<svg xmlns="http://www.w3.org/2000/svg" xmlns:xlink="http://www.w3.org/1999/xlink" version="1.1" width="491" height="368" viewBox="-0.5 -0.5 491 368">
  <!-- Exported by Scratch - http://scratch.mit.edu/ -->
  <path id="ID0.058502851985394955" d="M 279.616 194.54 C 278.584 194.778 277.142 194.94 275.845 195.049 C 276.137 195.748 276.351 196.498 276.426 197.311 C 276.53 198.435 276.384 199.733 275.945 201.099 C 276.545 201.303 277.193 201.49 277.86 201.62 C 280.411 202.224 282.17 202.255 282.187 202.255 C 282.574 202.261 282.882 202.578 282.877 202.964 C 282.872 203.348 282.561 203.655 282.178 203.655 C 282.175 203.655 282.172 203.655 282.169 203.655 C 282.093 203.654 280.25 203.625 277.564 202.987 C 276.817 202.841 276.099 202.633 275.437 202.406 C 273.109 207.541 266.513 213.167 252.889 214.16 C 234.387 215.51 220.494 208.861 215.004 197.002 C 214.415 195.722 214.047 194.442 213.839 193.178 C 213.519 193.181 213.153 193.183 212.762 193.183 C 211.688 193.183 210.445 193.167 209.576 193.109 C 207.744 192.988 203.912 192.125 203.75 192.088 C 203.373 192.003 203.137 191.628 203.222 191.251 C 203.307 190.873 203.686 190.639 204.059 190.723 C 204.098 190.732 207.947 191.599 209.669 191.713 C 210.749 191.786 212.489 191.788 213.673 191.779 C 213.587 190.533 213.654 189.309 213.838 188.122 C 212.913 187.382 211.538 186.36 209.806 185.319 C 206.193 183.126 204.095 182.453 204.075 182.446 C 203.706 182.33 203.501 181.937 203.617 181.569 C 203.732 181.2 204.125 180.995 204.492 181.11 C 204.583 181.138 206.753 181.828 210.53 184.121 C 212.009 185.01 213.219 185.873 214.144 186.583 C 215.791 179.769 220.873 174.53 221.237 174.188 L 221.29 155.762 L 232.794 165.44 C 232.794 165.44 237.269 164.278 241.858 164.641 C 243.557 164.748 246.61 165.327 248.087 165.61 L 250.814 164.737 L 258.816 158.669 L 260.226 170.126 C 260.226 170.126 265.818 175.45 267.312 178.858 C 269.742 184.497 269.316 188.776 269.316 188.776 C 269.316 188.776 273.085 190.456 275.147 193.699 C 276.531 193.596 278.202 193.429 279.313 193.174 C 281.85 192.633 283.73 191.35 283.749 191.337 C 284.068 191.117 284.504 191.197 284.723 191.516 C 284.943 191.834 284.863 192.27 284.544 192.49 C 284.457 192.547 282.411 193.943 279.616 194.54 Z M 490 0 L 0 3 L 1 364 L 486 367 L 490 0 Z " stroke-width="1" />
</svg>