<svg version="1.1" xmlns="http://www.w3.org/2000/svg" xmlns:xlink="http://www.w3.org/1999/xlink" width="81.901" height="96.44083" viewBox="0,0,81.901,96.44083"><g transform="translate(-202,-137)"><g data-paper-data="{&quot;isPaintingLayer&quot;:true}" fill="none" fill-rule="nonzero" stroke="none" stroke-width="none" stroke-linecap="none" stroke-linejoin="none" stroke-miterlimit="10" stroke-dasharray="" stroke-dashoffset="0" font-family="none" font-weight="none" font-size="none" text-anchor="none" style="mix-blend-mode: normal"><path d="M256.975,188.264c2.1,0.2 4.4,4.7 4.301,8.4c-0.201,3.699 -1.602,6.3 -2.5,7.899c-1.301,1.4 0,-3.1 -2.5,-4.399c-2.5,-1.301 -6.4,0.3 -6.4,0.3c0,0 2.1,-5 3.199,-7.8c0.9,-2.601 1.7,-4.4 3.9,-4.4z" id="ID0.914295740891248_29_" fill="#ffffff" stroke="none" stroke-width="1" stroke-linecap="butt" stroke-linejoin="miter"/><path d="M242.074,207.164c2.301,-1 4.9,-2.5 6.801,-5.301c4.199,-6.199 4,-14.699 8.299,-13.5c4.301,1.2 7.301,14.4 -3.699,21.2c-3.801,2.4 -7.6,3.3 -10.6,3.9c-0.801,0.2 -7.801,1.1 -10.9,-1.8c-3.1,-2.9 -1.699,-4.101 -1,-4.801c0.699,-0.598 7.9,1.802 11.099,0.302z" id="ID0.40227043256163597_29_" fill="none" stroke="#8e5322" stroke-width="1.4" stroke-linecap="round" stroke-linejoin="round"/><path d="M254.662,194.601c0,0 2.201,16.1 0,19c-3.199,4.2 -17.699,4.5 -19.898,2c-3.701,-4.3 -2.4,-3.1 -2.4,-3.1l-1,-14.601z" id="ID0.26344340899959207_29_" fill="#518943" stroke="#426c36" stroke-width="1.4" stroke-linecap="round" stroke-linejoin="round"/><path d="M255.239,184.77c0.941,1.338 1.525,3.188 1.525,5.231c0,2.041 -0.584,3.891 -1.525,5.23c-0.942,1.34 -2.24,2.169 -3.676,2.169c-1.436,0 -2.735,-0.829 -3.676,-2.169c-0.941,-1.338 -1.523,-3.189 -1.523,-5.23c0,-2.043 0.582,-3.892 1.523,-5.231c0.942,-1.34 2.24,-2.169 3.676,-2.169c1.435,0 2.734,0.829 3.676,2.169z" id="ID0.2414738917723298_29_" fill="#fefbdf" stroke="#70715e" stroke-width="1.4" stroke-linecap="round" stroke-linejoin="round"/><path d="M253.542,187.102c0.508,0.742 0.822,1.768 0.822,2.898c0,1.13 -0.314,2.156 -0.822,2.897c-0.506,0.743 -1.207,1.202 -1.979,1.202c-0.772,0 -1.473,-0.459 -1.979,-1.202c-0.507,-0.741 -0.82,-1.767 -0.82,-2.897c0,-1.13 0.312,-2.156 0.82,-2.898c0.506,-0.743 1.208,-1.202 1.979,-1.202c0.771,0 1.472,0.459 1.979,1.202z" id="ID0.6192030962556601_29_" fill="#fefbdf" stroke="#70715e" stroke-width="1.4" stroke-linecap="round" stroke-linejoin="round"/><path d="M246.662,214.301l-0.5,-7.7l6.5,-1.3c0,0 0.701,5.899 -0.299,6.8c-0.9,0.799 -5.701,2.2 -5.701,2.2z" id="ID0.15330331353470683_29_" fill="#518943" stroke="#426c36" stroke-width="1.4" stroke-linecap="round" stroke-linejoin="round"/><path d="M240.864,212.901c0,0 -3.702,8.4 -2.6,15.7c0.298,2 -0.202,2.7 -2.102,3.4c-2.1,0.799 -11.299,1 -11.5,-1.101c-0.5,-7.399 6.601,-3.099 6.9,-6.899c0.801,-8.801 -0.9,-14.301 -0.9,-14.301" id="ID0.007584026083350182_31_" fill="#ffffff" stroke="#8e5322" stroke-width="1.4" stroke-linecap="round" stroke-linejoin="round"/><path d="M229.563,225.801c0,0 1.301,-0.2 2.801,0.1" id="ID0.31672530295327306_31_" fill="#faa51f" stroke="#8e5322" stroke-width="1.4" stroke-linecap="round" stroke-linejoin="round"/><path d="M240.062,191.101c6.701,0 10.801,1.8 10.801,8.5c0,6.7 1.099,15.7 -10.801,15.7c-11.9,0 -10.199,-9.8 -10.199,-16.5c0,-6.7 3.5,-7.7 10.199,-7.7z" id="ID0.46792364912107587_29_" fill="#ffffff" stroke="#8e5322" stroke-width="1.4" stroke-linecap="round" stroke-linejoin="round"/><path d="M238.963,196.901c3.699,0 5.9,1.2 5.9,5.4c0,4.2 0.5,9.899 -5.9,9.899c-6.4,0 -5.5,-6.3 -5.5,-10.5c0,-4.199 1.801,-4.799 5.5,-4.799z" id="ID0.38032895559445024_29_" fill="#bababa" stroke="none" stroke-width="1" stroke-linecap="butt" stroke-linejoin="miter"/><path d="M250.063,209.7c0,0 -2.6,5.5 -1.299,14.2c0.6,3.8 6.199,-0.899 5.799,6.7c-0.1,2.5 -7.699,2.3 -9.9,1.9c-2.1,-0.4 -2.898,-1.5 -2.699,-3.601c0.301,-4.2 -1.199,-13.3 -1.199,-13.3" id="ID0.527006761636585_30_" fill="#ffffff" stroke="#8e5322" stroke-width="1.4" stroke-linecap="round" stroke-linejoin="round"/><path d="M248.162,225.9c1.4,-0.399 3,-0.2 3,-0.2" id="ID0.8937406223267317_41_" fill="#faa51f" stroke="#8e5322" stroke-width="1.4" stroke-linecap="round" stroke-linejoin="round"/><path d="M242.265,192.001l7.898,-1.4c6.8,5.4 10.5,16.099 6.4,18.4" id="ID0.15909873321652412_27_" fill="#ffffff" stroke="#8e5322" stroke-width="1.4" stroke-linecap="round" stroke-linejoin="round"/><path d="M247.764,198.4l2.699,4.101" id="ID0.8143284288235009_27_" fill="#faa51f" stroke="#8e5322" stroke-width="1.4" stroke-linecap="round" stroke-linejoin="round"/><path d="M251.662,202.2l-1.199,0.301" id="ID0.6682511982508004_27_" fill="none" stroke="#8e5322" stroke-width="1.4" stroke-linecap="round" stroke-linejoin="round"/><path d="M225.527,209.082c-5.666,-3.184 -1.567,-12.603 3.419,-16.087l4.257,0.142" id="ID0.30105241015553474_27_" fill="#ffffff" stroke="#8e5322" stroke-width="1.4" stroke-linecap="round" stroke-linejoin="round"/><path d="M230.567,199.135l-0.604,3.812" id="ID0.7841392233967781_27_" fill="#faa51f" stroke="#8e5322" stroke-width="1.4" stroke-linecap="round" stroke-linejoin="round"/><path d="M229.963,202.947l-1.133,-0.153" id="ID0.4326359131373465_27_" fill="none" stroke="#8e5322" stroke-width="1.4" stroke-linecap="round" stroke-linejoin="round"/><path d="M250.361,215.668c-6.829,-4.115 -5.463,-14.001 -3.463,-21.001c1,-1 1.238,-0.582 3.238,-1.582c-2,6 -4,14 0.803,19.26" id="ID0.48627097019925714_29_" fill="#518943" stroke="#426c36" stroke-width="1.4" stroke-linecap="round" stroke-linejoin="round"/><path d="M229.324,208.219c-1.188,-6.134 -1.188,-14.134 6.813,-15.134c-5,2 -7,9 -4.245,14.237" id="ID0.07006075512617826_29_" fill="#518943" stroke="#426c36" stroke-width="1.4" stroke-linecap="round" stroke-linejoin="round"/><path d="M241.701,145.9c1.5,-0.1 4.6,-0.3 6.299,-0.2c4.602,0.2 8.9,1.9 8.9,1.9l12.6,-8.2l-2.199,18.3c-0.6,-0.8 10.199,12.4 3.4,23.4c-6.9,11.1 -21.5,16 -39.701,12.4c-18.199,-3.6 -22.499,-14.1 -21.3,-19.6c1.201,-5.5 8.101,-7.6 8.101,-7.6c0,0 0.1,-4.3 3.199,-9.601c1.9,-3.199 8.102,-7.8 8.102,-7.8l2.798,-11.199l7.201,7z" id="ID0.2591130444779992_29_" fill="#faa51f" stroke="none" stroke-width="1" stroke-linecap="butt" stroke-linejoin="miter"/><path d="M218.701,166.2l2.4,-2l8.799,2.601c0,0 0,3.3 4.201,4.2c4.199,0.899 11.299,-0.7 11.299,-0.7l7.1,1.8c0,0 8.102,-0.5 8.5,5.9c0.701,11.1 -8.6,16.399 -17.1,16.3c-5.5,0 -9,-0.7 -12.9,-1.4c-17.199,-3.1 -22.099,-13.5 -20.599,-19c1.199,-5.5 7.8,-7.1 7.8,-7.1z" id="ID0.3588979784399271_29_" fill="#ffffff" stroke="none" stroke-width="1" stroke-linecap="butt" stroke-linejoin="miter"/><path d="M213.701,171.601c0,0 -4.399,-0.7 -6.601,-1.5c-2.6,-0.9 -4.4,-2.5 -4.4,-2.5" id="ID0.2727069961838424_29_" fill="none" stroke="#8e5322" stroke-width="1.4" stroke-linecap="round" stroke-linejoin="round"/><path d="M213.201,177.4c0,0 -2.601,1.101 -5.399,1.3c-2.701,0.301 -4.5,0.101 -4.5,0.101" id="ID0.5861211125738919_29_" fill="none" stroke="#8e5322" stroke-width="1.4" stroke-linecap="round" stroke-linejoin="round"/><path d="M259.201,146.101l-5.201,3.599" id="ID0.4793355236761272_29_" fill="none" stroke="#8e5322" stroke-width="1.4" stroke-linecap="round" stroke-linejoin="round"/><path d="M241.701,145.9c1.5,-0.1 4.6,-0.3 6.299,-0.2c4.602,0.2 8.9,1.9 8.9,1.9l12.6,-8.2l-2.199,18.3c-0.6,-0.8 10.199,12.4 3.4,23.4c-6.9,11.1 -21.5,16 -39.701,12.4c-18.199,-3.6 -22.499,-14.1 -21.3,-19.6c1.201,-5.5 8.101,-7.6 8.101,-7.6c0,0 0.1,-4.3 3.199,-9.601c1.9,-3.199 8.102,-7.8 8.102,-7.8l2.798,-11.199l7.201,7z" id="ID0.48413723474368453_29_" fill="none" stroke="#8e5322" stroke-width="1.4" stroke-linecap="round" stroke-linejoin="round"/><path d="M282.4,176.9c0,0 -4,0.4 -5.799,0.3c-1.801,-0.1 -5.301,-0.6 -5.301,-0.6" id="ID0.9024141579866409_29_" fill="none" stroke="#8e5322" stroke-width="1.4" stroke-linecap="round" stroke-linejoin="round"/><path d="M271.102,172.801c0,0 2.299,-1.7 5.898,-3.3c4,-1.801 6.201,-2.2 6.201,-2.2" id="ID0.16030752705410123_29_" fill="none" stroke="#8e5322" stroke-width="1.4" stroke-linecap="round" stroke-linejoin="round"/><path d="M233.201,152.101c2.699,1.7 2.6,6.7 -0.201,11c-2.799,4.4 -7.299,6.5 -10,4.7c-2.699,-1.7 -2.6,-6.7 0.201,-11c2.799,-4.3 7.299,-6.401 10,-4.7z" id="ID0.40023312577977777_29_" fill="#ffffff" stroke="#8e5322" stroke-width="1.4" stroke-linecap="round" stroke-linejoin="round"/><path d="M223.301,160.4c0.301,-1 1.199,-1.599 2.199,-1.399c1,0.3 1.5,1.3 1.201,2.3c-0.301,1.099 -1.301,1.7 -2.201,1.399c-1,-0.3 -1.5,-1.3 -1.199,-2.3" id="ID0.43813491938635707_29_" fill="#414142" stroke="none" stroke-width="1" stroke-linecap="butt" stroke-linejoin="miter"/><path d="M257.3,155.8c3.199,2.1 3.5,7.3 0.699,11.6c-2.798,4.401 -7.699,6.201 -10.898,4.101c-3.201,-2.101 -3.5,-7.301 -0.701,-11.601c2.801,-4.299 7.702,-6.099 10.9,-4.1z" id="ID0.4253597157076001_29_" fill="#ffffff" stroke="#8e5322" stroke-width="1.4" stroke-linecap="round" stroke-linejoin="round"/><path d="M246.701,163.801c0,-1.101 0.799,-1.9 1.699,-1.9c0.9,0 1.701,0.9 1.701,1.9c0,1.099 -0.701,1.899 -1.701,1.899c-0.9,0 -1.699,-0.899 -1.699,-1.899" id="ID0.814307457767427_29_" fill="#414142" stroke="none" stroke-width="1" stroke-linecap="butt" stroke-linejoin="miter"/><path d="M239.899,170.501c0.1,1.5 -3.4,4 -5.4,3.899c-1.798,-0.099 -3.398,-3.399 -3.398,-4.2c0.299,-1.899 2.6,-0.599 4.299,-0.399c1.5,0.2 4.399,-0.8 4.499,0.7z" id="ID0.5240494590252638_29_" fill="#5f4b43" stroke="#8e5322" stroke-width="1.4" stroke-linecap="round" stroke-linejoin="round"/><path d="M244.5,185.2c0,0 -2.5,2.301 -7.898,1.2" id="ID0.046259244438260794_29_" fill="#ffffff" stroke="#8e5322" stroke-width="1.4" stroke-linecap="round" stroke-linejoin="round"/><path d="M256.562,209.001c-8.5,1.9 -12.199,0.199 -12.4,-3.801c-0.1,-1.699 2.9,-4.8 8.5,-3" id="ID0.1790580078959465_31_" fill="#ffffff" stroke="#8e5322" stroke-width="1.4" stroke-linecap="round" stroke-linejoin="round"/><path d="M227.764,203.501c3.199,-1.4 4.699,0.899 5.6,3.1c1.299,3.1 -2.6,6.7 -7.801,2.4" id="ID0.7947451807558537_27_" fill="#ffffff" stroke="#8e5322" stroke-width="1.4" stroke-linecap="round" stroke-linejoin="round"/></g></g></svg>