<svg xmlns="http://www.w3.org/2000/svg" xmlns:xlink="http://www.w3.org/1999/xlink" version="1.1" width="26.59404754638672" height="44.49199676513672" viewBox="0.7943000793457031 1.0408000946044922 26.59404754638672 44.49199676513672">
  <!-- Exported by Scratch - http://scratch.mit.edu/ -->
  <g id="ID0.9808851568959653">
    <path id="ID0.12919439608231187" fill="#404040" stroke="#333333" d="M 24.4291 1.5408 C 27.8103 4.5912 27.669 18.5349 24.2268 21.5162 L 1.5325 11.298 L 24.4291 1.5408 Z " stroke-width="0.7552847762277445"/>
    <path id="ID0.7512953788973391" fill="#808080" d="M 24.7461 6.3444 C 26.1863 9.4651 25.4726 18.5621 23.7385 19.8892 L 4.9972 11.8667 L 24.7461 6.3444 Z " stroke-width="0.7552847762277445"/>
    <path id="ID0.27147613279521465" fill="#B3B3B3" d="M 24.6745 9.9818 C 25.0321 13.4605 24.8516 16.7287 23.5 18.6614 L 8.2841 12.5553 L 24.6745 9.9818 Z " stroke-width="0.7552847762277445"/>
    <path id="ID0.11133367801085114" fill="#FFFFFF" d="M 23.8794 11.9542 C 24.1424 13.9917 24.0167 15.9043 23.0437 17.0339 L 12.0591 13.4378 L 23.8794 11.9542 Z " stroke-width="0.7552847762277445"/>
    <path id="ID0.043344194535166025" fill="#404040" stroke="#333333" d="M 24.1909 25.0574 C 27.572 28.1078 27.4308 42.0515 23.9885 45.0328 L 1.2943 34.8146 L 24.1909 25.0574 Z " stroke-width="0.7552847762277445"/>
    <path id="ID0.42498049000278115" fill="#808080" d="M 24.5079 29.861 C 25.948 32.9817 25.2344 42.0788 23.5003 43.4058 L 4.759 35.3833 L 24.5079 29.861 Z " stroke-width="0.7552847762277445"/>
    <path id="ID0.37005876982584596" fill="#B3B3B3" d="M 24.4363 33.4984 C 24.7938 36.9772 24.6133 40.2453 23.2618 42.178 L 8.0459 36.0719 L 24.4363 33.4984 Z " stroke-width="0.7552847762277445"/>
    <path id="ID0.6777598522603512" fill="#FFFFFF" d="M 23.6412 35.4708 C 23.9042 37.5083 23.7784 39.421 22.8055 40.5506 L 11.8209 36.9544 L 23.6412 35.4708 Z " stroke-width="0.7552847762277445"/>
  </g>
</svg>