<svg xmlns="http://www.w3.org/2000/svg" xmlns:xlink="http://www.w3.org/1999/xlink" version="1.1" width="484.1000061035156" height="208.1101531982422" viewBox="0 0.8898494243621826 484.1000061035156 208.1101531982422">
  
  <path id="ID0.249843280762434" fill="none" stroke="#FF0000" stroke-width="4" stroke-linecap="round" d="M 2 207 C 2 207 65.65 189.268 98 183 C 134.509 175.923 173.006 173.373 210 166 C 240.505 159.958 266.89 148.72 296 144 C 326.023 138.363 355.682 132.232 387 135 C 395.717 135.763 404 154 404 154 "/>
  <path id="ID0.249843280762434" fill="none" stroke="#FF0000" stroke-width="4" stroke-linecap="round" d="M 292 45 C 292 45 302.879 32.4 311 31 C 328.725 28.002 347.234 36.307 365 33 C 399.162 26.874 430.658 8.55 465 3 C 473.585 1.612 482.1 13.8 482.1 13.8 "/>
  <path id="ID0.249843280762434" fill="none" stroke="#FF0000" stroke-width="4" stroke-linecap="round" d="M 208 126.05 C 208 126.05 225.362 127.186 234 127.05 C 242.035 127.002 258 125.05 258 125.05 "/>
</svg>