<svg xmlns="http://www.w3.org/2000/svg" xmlns:xlink="http://www.w3.org/1999/xlink" version="1.1" width="487" height="244" viewBox="0 0 487 244">
  
  <path id="ID0.249843280762434" fill="none" stroke="#FF0000" stroke-width="4" stroke-linecap="round" d="M 2 211 C 2 211 65.65 193.268 98 187 C 134.509 179.923 173.024 177.47 210 170 C 240.183 163.906 271.724 152.689 303 146 C 319.2 142.538 351 140 351 140 "/>
  <path id="ID0.249843280762434" fill="none" stroke="#FF0000" stroke-width="4" stroke-linecap="round" d="M 296 61 C 296 61 296.833 50.312 300 46 C 304.04 41.387 309.96 38.253 316 37 C 336.965 32.734 358.618 35.25 380 31 C 408.846 25.265 436.523 14.327 465 7 C 472.119 5.168 485 2 485 2 "/>
  <path id="ID0.249843280762434" fill="none" stroke="#FF0000" stroke-width="4" stroke-linecap="round" d="M 307 242 C 307 242 366.896 199.401 398 180 C 411.26 171.874 420.67 165.753 433 161 C 447.741 155.412 479 149 479 149 "/>
  <path id="ID0.6027498156763613" fill="#FF0000" stroke="none" d="M 296.5 137 C 299.121 137 301.496 138.065 303.216 139.784 C 304.935 141.504 306 143.879 306 146.5 C 306 149.121 304.935 151.496 303.216 153.216 C 301.496 154.935 299.121 156 296.5 156 C 293.879 156 291.504 154.935 289.784 153.216 C 288.065 151.496 287 149.121 287 146.5 C 287 143.879 288.065 141.504 289.784 139.784 C 291.504 138.065 293.879 137 296.5 137 Z " stroke-width="1"/>
</svg>