<svg version="1.1" xmlns="http://www.w3.org/2000/svg" xmlns:xlink="http://www.w3.org/1999/xlink" width="328.9916" height="301.14115" viewBox="0,0,328.9916,301.14115"><defs><linearGradient x1="146.68964" y1="182.83084" x2="146.68964" y2="313.6454" gradientUnits="userSpaceOnUse" id="color-1"><stop offset="0" stop-color="#000000"/><stop offset="1" stop-color="#00ff14"/></linearGradient><linearGradient x1="154.51344" y1="210.91561" x2="99.83774" y2="259.23647" gradientUnits="userSpaceOnUse" id="color-2"><stop offset="0" stop-color="#ffffff"/><stop offset="1" stop-color="#ffffff" stop-opacity="0"/></linearGradient><linearGradient x1="97.48162" y1="257.7796" x2="149.04692" y2="299.44652" gradientUnits="userSpaceOnUse" id="color-3"><stop offset="0" stop-color="#ffffff"/><stop offset="1" stop-color="#ffffff" stop-opacity="0"/></linearGradient><linearGradient x1="254.90315" y1="15.66585" x2="254.90315" y2="273.01054" gradientUnits="userSpaceOnUse" id="color-4"><stop offset="0" stop-color="#000000"/><stop offset="1" stop-color="#00ff14"/></linearGradient><linearGradient x1="155.32788" y1="43.06424" x2="246.54428" y2="185.9097" gradientUnits="userSpaceOnUse" id="color-5"><stop offset="0" stop-color="#ffffff"/><stop offset="1" stop-color="#ffffff" stop-opacity="0"/></linearGradient><linearGradient x1="261.20716" y1="231.7028" x2="341.33554" y2="30.05422" gradientUnits="userSpaceOnUse" id="color-6"><stop offset="0" stop-color="#ffffff" stop-opacity="0"/><stop offset="1" stop-color="#ffffff"/></linearGradient></defs><g transform="translate(-87.04641,-12.50422)"><g data-paper-data="{&quot;isPaintingLayer&quot;:true}" fill-rule="nonzero" stroke="none" stroke-linecap="butt" stroke-linejoin="miter" stroke-miterlimit="10" stroke-dasharray="" stroke-dashoffset="0" style="mix-blend-mode: normal"><g><path d="M122.64034,236.26485c-0.16186,0.03324 -0.33663,0.05489 -0.52535,0.06288c-0.57577,-1.09983 -1.39929,-2.18853 -2.57715,-3.0529c-0.08024,-1.11038 -0.18245,-2.21647 -0.30897,-3.31807c-0.01965,-1.00697 -0.16251,-1.90208 -0.36925,-2.75107c-0.09593,-0.62199 -0.20033,-1.24246 -0.31364,-1.8614c-0.2515,-1.37384 -0.85986,-2.65678 -1.38463,-3.96057c-0.02499,-0.12734 -0.04878,-0.25643 -0.07125,-0.38741c-0.28654,-1.67068 -0.51473,-3.35645 -0.81462,-5.03238c0.08842,-1.72555 0.28511,-3.46107 -0.23097,-5.0806c-0.83248,-2.61251 -2.49915,-5.29456 -4.4074,-7.76455c0.05072,-0.5713 0.10906,-1.14569 0.01491,-1.69956c-0.29258,-1.72117 -0.78386,-3.46037 -1.23574,-5.2006c5.32364,-0.445 10.67141,-0.62597 15.95329,-1.2391c1.72024,3.37282 6.04093,7.88196 8.55379,10.43191c0.74011,0.75104 4.62505,3.82842 4.96449,4.55302c4.90097,10.46244 14.55946,18.88015 25.38955,23.08956l3.26285,1.08762c0,0 1.70386,0.56795 3.95758,0.54988c0.29247,0.2804 0.5835,0.56101 0.87287,0.84191c0.88975,2.04662 1.87269,4.01845 2.97767,6.12005c0.86053,1.63667 0.91292,3.7727 2.21448,5.08615c2.48791,2.51063 5.55549,4.47979 8.75446,5.98296c1.41304,0.66398 3.13069,0.08004 4.67242,0.32624c2.26421,0.36157 4.27028,1.76235 6.52569,2.17523c0.2668,0.04884 0.53695,0.09207 0.80989,0.13083c2.28515,0.81783 4.18831,1.9697 2.35672,6.48821c-0.83631,2.06316 -3.71438,2.46085 -5.64653,3.56668c-2.8729,1.64425 -4.89351,2.54604 -7.96946,3.41037c-0.7194,0.20216 -1.69852,-0.12322 -2.20003,0.43076c-0.63894,0.70579 -0.1979,1.95914 -0.69731,2.76968c-1.37872,2.23762 -2.83402,2.86429 -4.60374,4.0086h-0.97207c-5.16427,0 -9.48787,3.5993 -10.59909,8.42616c-0.98976,0.50214 -2.04454,0.89638 -3.03766,1.39294c-0.60659,0.62293 -3.94327,4.07893 -4.35046,4.35046c-8.10778,5.40665 -18.88887,6.28968 -27.73972,10.0948c-2.40305,1.03312 -4.96837,1.73992 -7.22436,3.06374c-2.53157,1.48552 -3.96613,4.98241 -6.52569,6.52569c-2.35157,1.41787 -8.04174,3.2671 -10.78248,3.63382c-4.45892,0.59663 -7.99159,-1.06572 -12.35223,-1.25948c-1.03787,-0.9385 -5.62097,-4.82412 -5.95623,-6.23782c-0.34219,-1.44291 0.84668,-2.85418 1.04998,-4.3231c0.33842,-2.44503 0.25204,-5.06376 1.32899,-7.28476c1.07861,-2.22445 3.44548,-3.76185 4.19065,-6.11901c0.11583,-0.36642 0.10528,-0.75297 0.05894,-1.14501c1.90503,-2.03888 3.8378,-4.0906 5.30609,-6.39029c0.67616,-1.05902 0.90895,-2.36476 1.60591,-3.41021c0.65211,-0.97817 1.78393,-1.58491 2.39409,-2.58979c0.54708,-0.901 0.45767,-2.09612 1,-3c0.48507,-0.80845 1.53871,-1.17774 2,-2c1.03147,-1.83862 0.80974,-4.25996 2,-6c0.28831,-0.42149 0.94071,-0.4945 1.22691,-0.91742c0.26769,-0.39557 -0.04493,-1.10537 0.33652,-1.39282c1.17639,-0.88652 3.05086,-0.75047 4.00113,-1.876c2.77469,-3.28642 4.04116,-8.78499 5.41577,-12.90879l0.51317,-5.16228c0,0 0,-1.98956 -0.88743,-4.19381c0.05573,-0.36431 0.07814,-0.70942 0.07466,-1.04135z" fill="url(#color-1)" stroke-width="0"/><path d="M165.10545,282.47484c-1.99073,1.75935 -3.88442,1.0181 -5.64311,1.5153c-2.28943,0.64725 -4.39747,2.21796 -6.67803,2.11224c-4.18615,-0.19406 -8.75031,-0.49714 -16.49592,-4.84088c-7.47308,-4.1909 -12.53413,-13.27697 -18.47272,-22.05069c2.57378,-3.317 3.79876,-8.57194 5.12429,-12.54852l0.51317,-5.16228c0,0 0,-5.35191 -3.91529,-8.22517c-0.19288,-2.66923 -0.5128,-5.31368 -0.99185,-7.93053c-0.41288,-2.25541 -1.78753,-4.26581 -2.17523,-6.52569c-0.44763,-2.6092 0.47753,-5.41291 -0.32623,-7.93527c-1.05063,-3.29709 -3.42988,-6.70491 -5.94659,-9.65749c-0.78512,-1.54052 -1.86417,-3.07387 -3.38707,-4.64545c0.08433,-0.00969 0.16869,-0.01925 0.25308,-0.02866c6.45802,-0.72001 12.98059,-0.82637 19.40565,-1.5722c1.72024,3.37282 6.04093,7.88196 8.55379,10.43191c0.74011,0.75104 4.62505,3.82842 4.96449,4.55302c4.90097,10.46244 14.55946,18.88015 25.38955,23.08956l3.26285,1.08762c0,0 0.08789,0.0293 0.25015,0.07437c8.79849,19.98129 8.50223,38.85537 -2.37304,48.46661z" data-paper-data="{&quot;index&quot;:null}" fill="url(#color-2)" stroke-width="0"/><path d="M149.04692,299.44652c-11.4693,14.19395 -32.3103,16.37295 -46.54966,4.86695c-3.30985,-2.6745 -7.11176,-5.78184 -10.2377,-9.19302c0.12327,-0.83805 0.24289,-1.67363 0.70007,-2.36314c2.76893,-4.17595 7.21811,-7.64293 10,-12c0.67616,-1.05902 0.90895,-2.36476 1.60591,-3.41021c0.65211,-0.97817 1.78393,-1.58491 2.39409,-2.58979c0.54708,-0.901 0.45767,-2.09612 1,-3c0.48507,-0.80845 1.53871,-1.17774 2,-2c1.03147,-1.83862 0.80974,-4.25996 2,-6c0.28831,-0.42149 0.94071,-0.4945 1.22691,-0.91742c0.26769,-0.39557 -0.04493,-1.10537 0.33652,-1.39282c1.17639,-0.88652 3.05086,-0.75047 4.00113,-1.876c2.77469,-3.28642 4.04116,-8.78499 5.41577,-12.90879l0.51317,-5.16228c0,0 0,-0.64393 -0.1634,-1.60497c2.4689,0.03942 4.80813,0.84354 7.06493,2.09395c1.17458,1.65009 2.6457,3.50303 2.66126,3.55522c0.55476,1.86133 -0.02633,3.93625 0.50293,5.80499c0.72881,2.57334 2.45437,4.75891 3.49104,7.22439c0.34135,0.81181 0.19411,1.75656 0.16593,2.63676c-0.01629,0.50879 -0.85653,1.16541 -0.44254,1.46163l-0.65432,3.19657c-1.20456,5.88472 2.58945,11.63172 8.47417,12.83628c0.35327,0.07231 0.70604,0.12661 1.05736,0.16352c1.25032,2.90105 4.04717,6.62014 10.13211,6.29293c-1.00493,5.0752 -3.22087,9.98496 -6.69569,14.28525z" fill="url(#color-3)" stroke-width="0"/><path d="M416.03802,144.3382c0,71.06377 -72.14253,128.67234 -161.13487,128.67234c-88.99232,0 -161.13487,-57.60857 -161.13487,-128.67234c0,-71.06377 72.14253,-128.67234 161.13487,-128.67234c88.99232,0 161.13487,57.60857 161.13487,128.67234z" fill="url(#color-4)" stroke-width="0"/><path d="M323.3456,44.49753c3.32117,5.20097 0.93906,9.27983 1.44742,13.49434c0.66177,5.48639 3.50789,10.88871 2.44499,16.08391c-1.95103,9.5362 -4.28816,19.90065 -17.0418,36.11222c-15.44058,19.62705 -47.20267,27.76634 -74.01293,43.03391c-30.44921,17.33983 -41.37421,24.80677 -62.21758,32.62594c-7.82279,2.93463 -23.23272,16.45401 -32.61466,15.27735c-23.32306,-2.92513 -31.77541,-12.60528 -41.95653,-28.54898c-25.18871,-39.44569 -14.35323,-89.48607 55.93337,-129.51197c70.2866,-40.0259 143.77771,-40.94818 168.96642,-1.5025z" data-paper-data="{&quot;index&quot;:null}" fill="url(#color-5)" stroke-width="0"/><path d="M200.76867,90.94213c22.12683,-55.68371 85.06077,-82.94416 140.56687,-60.88791c55.50611,22.05626 82.56534,85.07696 60.43851,140.76068c-10.22965,25.74362 -23.91978,59.23477 -46.82718,70.7635c-26.64154,13.40803 -61.38432,-6.79523 -91.22892,-18.65447c-28.41028,-11.28929 -71.44962,-24.48711 -82.17386,-50.76333c-10.22807,-25.06052 8.42316,-54.03593 19.22458,-81.21846z" data-paper-data="{&quot;index&quot;:null}" fill="url(#color-6)" stroke-width="0"/><text transform="matrix(3.55453 0 0 3.55453 173.1128 114.52585)" font-size="40"  fill="#ffffff" fill-rule="nonzero" stroke="none" stroke-width="1" stroke-linecap="butt" stroke-linejoin="miter" stroke-miterlimit="10" stroke-dasharray="" stroke-dashoffset="0" font-family="Helvetica" font-weight="normal" text-anchor="start" style="mix-blend-mode: normal" >Hi</text></g></g></g></svg>