<svg version="1.1" xmlns="http://www.w3.org/2000/svg" xmlns:xlink="http://www.w3.org/1999/xlink" width="576.56907" height="423.04429" viewBox="0,0,576.56907,423.04429"><defs><radialGradient cx="379.63965" cy="68.8889" r="102.1021" gradientUnits="userSpaceOnUse" id="color-1"><stop offset="0" stop-color="#efff00"/><stop offset="1" stop-color="#efff00" stop-opacity="0"/></radialGradient></defs><g transform="translate(55.04128,33.2132)"><g data-paper-data="{&quot;isPaintingLayer&quot;:true}" fill-rule="nonzero" stroke-linejoin="miter" stroke-miterlimit="10" stroke-dasharray="" stroke-dashoffset="0" style="mix-blend-mode: normal"><path d="M-3.99399,377.44746v-388.88889h507.50751v388.88889z" fill="#66f4ff" stroke="none" stroke-width="NaN" stroke-linecap="butt"/><path d="M277.53755,68.8889c0,-56.38943 45.71267,-102.1021 102.1021,-102.1021c56.38943,0 102.1021,45.71267 102.1021,102.10211c0,56.38943 -45.71267,102.1021 -102.1021,102.1021c-56.38943,0 -102.1021,-45.71267 -102.1021,-102.1021z" fill="url(#color-1)" stroke="none" stroke-width="0" stroke-linecap="butt"/><path d="M335.34536,68.8889c0,-24.46306 19.83123,-44.2943 44.29429,-44.2943c24.46307,0 44.2943,19.83123 44.2943,44.2943c0,24.46307 -19.83123,44.29429 -44.2943,44.29429c-24.46307,0 -44.29429,-19.83123 -44.29429,-44.29429z" fill="#efff00" stroke="#cfde00" stroke-width="5" stroke-linecap="butt"/><path d="M346.35887,72.64266c0,-1.38071 1.11929,-2.5 2.5,-2.5c1.38071,0 2.5,1.11929 2.5,2.5c0,1.38071 -1.11929,2.5 -2.5,2.5c-1.38071,0 -2.5,-1.11929 -2.5,-2.5z" fill="#000000" stroke="none" stroke-width="0.5" stroke-linecap="butt"/><path d="M367.37989,74.14415c0,-1.38071 1.11929,-2.5 2.5,-2.5c1.38071,0 2.5,1.11929 2.5,2.5c0,1.38071 -1.11929,2.5 -2.5,2.5c-1.38071,0 -2.5,-1.11929 -2.5,-2.5z" fill="#000000" stroke="none" stroke-width="0.5" stroke-linecap="butt"/><path d="M377.3874,95.16517c0,0 -6.55213,4.99635 -16.38379,3.48415c-7.9448,-1.22199 -12.14474,-4.98565 -12.14474,-4.98565" fill="none" stroke="#000000" stroke-width="2.5" stroke-linecap="round"/><path d="M-51.29128,386.08109v-156.15616h569.06907v156.15616z" fill="#3300ff" stroke="#3300ff" stroke-width="7.5" stroke-linecap="butt"/></g></g></svg>