<svg xmlns="http://www.w3.org/2000/svg" xmlns:xlink="http://www.w3.org/1999/xlink" version="1.1" width="29.071199417114258" height="29.188199996948242" viewBox="0.7730000019073486 0.012899935245513916 29.071199417114258 29.188199996948242">
  <!-- Exported by Scratch - http://scratch.mit.edu/ -->
  <path id="ID0.3996796882711351" fill="#E3B046" stroke="#FFFFFF" stroke-width="0.9203675389289856" stroke-linecap="round" d="M 14.9404 11.8123 L 29.3442 28.7011 L 1.273 28.7011 L 14.9404 11.8123 Z "/>
  <path id="ID0.5185317564755678" fill="#E3B046" stroke="#FFFFFF" stroke-width="0.9203675389289856" stroke-linecap="round" d="M 18.1521 4.8629 C 18.8249 4.8629 19.4351 5.1362 19.8759 5.578 C 20.3177 6.0188 20.591 6.629 20.591 7.3018 C 20.591 7.9746 20.3177 8.5848 19.8759 9.0257 C 19.4351 9.4675 18.8249 9.7408 18.1521 9.7408 C 17.4793 9.7408 16.8691 9.4675 16.4282 9.0257 C 15.9864 8.5848 15.7131 7.9746 15.7131 7.3018 C 15.7131 6.629 15.9864 6.0188 16.4282 5.578 C 16.8691 5.1362 17.4793 4.8629 18.1521 4.8629 Z "/>
  <path id="ID0.5185317564755678" fill="#E3B046" stroke="#FFFFFF" stroke-width="0.9203675389289856" d="M 11.8521 8.6629 C 12.5249 8.6629 13.1351 8.9362 13.5759 9.378 C 14.0177 9.8188 14.291 10.429 14.291 11.1018 C 14.291 11.7746 14.0177 12.3848 13.5759 12.8257 C 13.1351 13.2675 12.5249 13.5408 11.8521 13.5408 C 11.1793 13.5408 10.5691 13.2675 10.1282 12.8257 C 9.6864 12.3848 9.4131 11.7746 9.4131 11.1018 C 9.4131 10.429 9.6864 9.8188 10.1282 9.378 C 10.5691 8.9362 11.1793 8.6629 11.8521 8.6629 Z "/>
  <path id="ID0.5185317564755678" fill="#E3B046" stroke="#FFFFFF" stroke-width="0.9203675389289856" d="M 12.4021 0.5129 C 13.0749 0.5129 13.6851 0.7862 14.1259 1.228 C 14.5677 1.6688 14.841 2.279 14.841 2.9518 C 14.841 3.6246 14.5677 4.2348 14.1259 4.6757 C 13.6851 5.1175 13.0749 5.3908 12.4021 5.3908 C 11.7293 5.3908 11.1191 5.1175 10.6782 4.6757 C 10.2364 4.2348 9.9631 3.6246 9.9631 2.9518 C 9.9631 2.279 10.2364 1.6688 10.6782 1.228 C 11.1191 0.7862 11.7293 0.5129 12.4021 0.5129 Z "/>
</svg>