<svg version="1.1" xmlns="http://www.w3.org/2000/svg" xmlns:xlink="http://www.w3.org/1999/xlink" width="283.284" height="346.51722" viewBox="0,0,283.284,346.51722"><g transform="translate(-98.358,-17.75)"><g data-paper-data="{&quot;isPaintingLayer&quot;:true}" fill-rule="nonzero" stroke-linejoin="miter" stroke-miterlimit="10" stroke-dasharray="" stroke-dashoffset="0" style="mix-blend-mode: normal"><path d="M99.608,19h280.784v322h-144.30415c-20.47312,-0.24095 -40.95056,-0.25193 -61.42343,0h-29.60568c-15.14935,-0.15731 -30.30031,-0.21776 -45.45074,-0.17231z" fill="#808080" stroke="#000000" stroke-width="2.5" stroke-linecap="butt"/><path d="M280.9375,19v321" fill="none" stroke="#000000" stroke-width="2.5" stroke-linecap="round"/><text transform="matrix(0.5 0 0 0.5 306.9375 37.5)" font-size="40"  fill="#000000" fill-rule="nonzero" stroke="none" stroke-width="1" stroke-linecap="butt" stroke-linejoin="miter" stroke-miterlimit="10" stroke-dasharray="" stroke-dashoffset="0" font-family="Helvetica" font-weight="normal" text-anchor="start" style="mix-blend-mode: normal" >PULL</text><g fill="#000000" stroke="none" stroke-width="1" stroke-linecap="butt" font-family="Sans Serif" font-weight="normal" font-size="40" text-anchor="start"><text transform="matrix(0.5 0 0 0.5 327.9375 60.5)" font-size="40"  fill="#000000" fill-rule="nonzero" stroke="none" stroke-width="1" stroke-linecap="butt" stroke-linejoin="miter" stroke-miterlimit="10" stroke-dasharray="" stroke-dashoffset="0" font-family="Helvetica" font-weight="normal" text-anchor="start" style="mix-blend-mode: normal" >l</text><text transform="matrix(0.5 0 0 0.5 322.9375 71.5)" font-size="40"  fill="#000000" fill-rule="nonzero" stroke="none" stroke-width="1" stroke-linecap="butt" stroke-linejoin="miter" stroke-miterlimit="10" stroke-dasharray="" stroke-dashoffset="0" font-family="Helvetica" font-weight="normal" text-anchor="start" style="mix-blend-mode: normal" >\/</text></g><text transform="matrix(0.5 0 0 0.5 303.9375 93.5)" font-size="40"  fill="#000000" fill-rule="nonzero" stroke="none" stroke-width="1" stroke-linecap="butt" stroke-linejoin="miter" stroke-miterlimit="10" stroke-dasharray="" stroke-dashoffset="0" font-family="Helvetica" font-weight="normal" text-anchor="start" style="mix-blend-mode: normal" >HOLD</text><g data-paper-data="{&quot;index&quot;:null}"><path d="M298.27484,190.32143v-29.33929h64.35714v29.33929z" fill="#cccccc" stroke="#000000" stroke-width="1.5" stroke-linecap="butt"/><path d="M307.73912,189.375v-27.44643h13.25v27.44643z" fill="#000000" stroke="#000000" stroke-width="1.5" stroke-linecap="butt"/><path d="M338.97126,189.375v-27.44643h13.25v27.44643z" fill="#000000" stroke="#000000" stroke-width="1.5" stroke-linecap="butt"/><g fill="none" stroke-linecap="round"><path d="M314.36412,213.98214v-38.80357" stroke="#bfbfbf" stroke-width="5"/><path d="M346.06948,175.17857v38.80357" stroke="#c0c0c0" stroke-width="5"/><path d="M290.98438,212.41147h79.5" stroke="#c0c0c0" stroke-width="7.5"/><path d="M290.98438,201.91518v20.58482" stroke="#c0c0c0" stroke-width="7.5"/><path d="M370.48438,222.5v-20.58482" stroke="#c0c0c0" stroke-width="7.5"/></g></g><path d="M227.72199,329.80765c-4.48682,5.02719 -11.01602,-12.80765 -18.28449,-12.80765c-8.5525,0 0.91853,-11.38224 -3.46398,-18.02377c-2.5511,-3.86609 -21.03602,-1.49775 -21.03602,-6.47623c0,-6.76549 -23.25775,-7.89049 -18.82412,-12.32412c4.43363,-4.43362 36.55863,-12.17588 43.32412,-12.17588c8.26045,0 27.56608,14.08806 32.0041,20.35138c2.83165,3.99627 -7.5041,-1.12191 -7.5041,4.14862c0,6.26251 -2.34967,32.97622 -6.21551,37.30765z" fill="#c4b996" stroke="none" stroke-width="NaN" stroke-linecap="butt"/><path d="M242.20434,317.41454c-0.35999,-3.23846 2.02534,-6.46644 5.28111,-9.33397c4.19303,-3.69302 9.82979,-6.78818 12.90544,-8.53796c-2.2072,3.43295 -3.88974,12.26696 -4.33629,23.16423c-6.72401,-1.63809 -13.61244,-3.15291 -13.85026,-5.2923z" fill="#c4b996" stroke="none" stroke-width="0" stroke-linecap="butt"/><path d="M267.86384,345.297c-4.05512,-5.54622 -11.92634,-14.49176 -11.92634,-16.797c0,-1.98083 0.04024,-3.91756 0.1171,-5.79316c6.51871,1.58807 12.8829,3.292 12.8829,5.79316c0,6.20648 -0.39508,11.97999 -1.07366,16.797z" fill="#c4b996" stroke="none" stroke-width="0" stroke-linecap="butt"/><path d="M270.21665,334.36999c0.33528,5.18412 -1.44406,7.72606 -3.43588,8.92512c-0.50401,-0.07824 -1.02046,-0.11884 -1.5464,-0.11884c-0.46723,0 -0.92698,0.03204 -1.37717,0.09405c1.66758,-1.74327 3.09368,-6.49266 4.00663,-12.97332c1.37183,1.87626 2.30692,3.36349 2.35281,4.07299z" fill="#c4b996" stroke="none" stroke-width="0" stroke-linecap="butt"/><path d="M260.39089,284.54261c0.64349,-1.00084 1.33157,-1.54261 2.04661,-1.54261c0.60283,0 -0.31685,0.55853 -2.04661,1.54261z" fill="#c4b996" stroke="none" stroke-width="0" stroke-linecap="butt"/><path d="M109.42503,327.49365c2.5275,-7.54968 17.74126,-6.49365 22.51247,-6.49365c4.43578,0 13.65571,9.21009 20.7106,20.08687c-12.7116,-0.15894 -25.42459,-0.25074 -38.1377,-0.27005c-2.75716,-5.15283 -6.02884,-10.50504 -5.08538,-13.32317z" fill="#c4b996" stroke="none" stroke-width="0" stroke-linecap="butt"/><path d="M119.60231,363.72774c0.14623,-0.00155 0.29249,-0.00318 0.43876,-0.00487c-0.10373,0.17803 -0.20212,0.35955 -0.29495,0.54435c-0.04883,-0.17865 -0.09677,-0.35849 -0.14381,-0.53948z" fill="#c4b996" stroke="none" stroke-width="0" stroke-linecap="butt"/><path d="M205.69823,337.34681c3.91186,-0.85755 14.42865,2.65319 19.23928,2.65319c4.12857,0 8.04071,0.36036 11.53979,1.00461c-12.18004,-0.14508 -24.36164,-0.20884 -36.54291,-0.18435c1.14593,-1.57456 2.94424,-2.85535 5.76384,-3.47345z" fill="#c4b996" stroke="none" stroke-width="0" stroke-linecap="butt"/><path d="" fill="#c4b996" stroke="none" stroke-width="0" stroke-linecap="butt"/><path d="M252.06088,320.85173c0.2957,0.36156 0.13502,0.54754 0,0z" fill="#c4b996" stroke="none" stroke-width="0" stroke-linecap="butt"/><path d="M153.32823,331.05844c1.27654,-8.53436 22.31388,-13.05844 24.60927,-13.05844c3.01528,0 5.58528,9.53244 6.57033,22.899c-5.70431,0.04695 -11.40837,0.1139 -17.112,0.20155c-1.74643,0.02684 -3.2538,0.4174 -4.52212,1.0721c-4.85451,-4.11232 -10.0167,-7.96387 -9.54548,-11.11421z" fill="#c4b996" stroke="none" stroke-width="0" stroke-linecap="butt"/><path d="" fill="#c4b996" stroke="none" stroke-width="0" stroke-linecap="butt"/><path d="" fill="#c4b996" stroke="none" stroke-width="0" stroke-linecap="butt"/><path d="M149.69085,290.36838c-2.33946,5.0803 0.06706,21.89121 -3.10697,25.48912c-7.01205,7.94848 -20.62076,-0.63526 -26.83678,-3.49771c-2.51508,-1.15818 1.71759,-7.05747 0.43257,-9.86952c-3.32847,-7.28383 -8.60491,-15.41732 -3.18832,-27.17985c2.82369,-6.13186 15.43373,2.68051 19.37951,-1.22293c6.54543,-6.4752 4.93063,-23.36273 10.56424,-20.76848c9.02972,4.15814 10.26352,20.74571 2.75576,37.04937z" fill="#c4b996" stroke="none" stroke-width="0" stroke-linecap="butt"/><path d="M169.63495,273.11149c-4.73714,-4.45029 -10.77179,-25.11387 -1.54156,-34.93905c9.23022,-9.82518 30.23002,-5.09136 34.96716,-0.64107c3.50486,3.29263 15.19249,9.23141 10.654,16.7293c-1.59569,2.63618 -16.38839,6.56288 -18.78946,9.11871c-0.58145,0.61892 -28.52344,0.3623 -29.11932,0.93699c-8.86354,8.54834 8.26789,12.96506 3.82916,8.79511z" fill="#c4b996" stroke="none" stroke-width="0" stroke-linecap="butt"/><path d="M266.1317,299.88054c-6.5603,3.97253 -14.81858,-15.72755 -21.01143,-19.54526c-4.09065,-2.52177 -17.27062,-20.03476 -18.46469,-24.66963c-1.55057,-6.01863 9.92413,0.41152 13.77186,-5.83c3.02837,-4.91242 -8.85286,-33.7172 -4.20601,-35.65762c5.80393,-2.4236 28.34116,22.92964 33.56297,26.14875c5.47806,3.37707 -0.50143,14.45904 -0.29865,21.10147c0.14527,4.75869 7.83423,4.78684 4.99148,9.39816c-2.325,3.77145 -4.94534,26.99518 -8.34554,29.05414z" data-paper-data="{&quot;index&quot;:null}" fill="#c4b996" stroke="none" stroke-width="0" stroke-linecap="butt"/></g></g></svg>