<svg xmlns="http://www.w3.org/2000/svg" xmlns:xlink="http://www.w3.org/1999/xlink" version="1.1" width="245.99000549316406" height="444.3500061035156" viewBox="0 -0.5 245.99000549316406 444.3500061035156">
  <!-- Exported by Scratch - http://scratch.mit.edu/ -->
  <g id="ID0.1806792877614498">
    <path id="ID0.19601519871503115" fill="#8C303C" d="M 24.69 32.19 L 220.69 32.19 L 220.69 414.19 L 24.69 414.19 L 24.69 32.19 Z " stroke-width="1"/>
    <path id="ID0.6495714392513037" fill="#781E29" d="M 104.16 75.93 L 114.15 73.25 L 120.35 59.47 L 109.73 47.68 L 99.75 46.65 L 91.75 50.94 L 86.37 63.58 L 94.55 70.18 L 104.16 75.93 " stroke-width="1"/>
    <path id="ID0.49380286782979965" fill="#781E29" d="M 56.68 145.66 L 103.51 138.87 L 115.25 100.04 L 99.43 78.08 L 73.85 68.07 L 31.76 74.88 L 29.43 100.73 L 32.07 129.71 L 56.68 145.66 " stroke-width="1"/>
    <path id="ID0.5455126301385462" fill="#781E29" d="M 211.22 156.42 L 194.59 130.83 L 167.46 119.06 L 122.87 127.05 L 120.44 157.14 L 123.21 190.98 L 149.22 209.68 L 198.88 201.69 L 211.22 156.42 " stroke-width="1"/>
    <path id="ID0.5560232745483518" fill="#781E29" d="M 140.98 216.1 L 133.86 228.28 L 134.63 251.82 L 149.72 259.27 L 159.15 251.5 L 163.86 239.08 L 162.89 217.65 L 152.47 215.59 L 140.98 216.1 " stroke-width="1"/>
    <path id="ID0.47854310693219304" fill="#781E29" d="M 112.24 181.28 L 117.2 162.01 L 110.49 151.07 L 99.55 146.05 L 81.43 149.49 L 80.44 162.48 L 81.53 176.58 L 92.19 184.69 L 112.24 181.28 " stroke-width="1"/>
    <path id="ID0.024183943402022123" fill="#781E29" d="M 216.61 216.49 L 220.92 205.47 L 211.45 197.46 L 202.87 199.04 L 195.13 206.41 L 190.67 223.56 L 200.6 231.51 L 173.98 232.46 L 165.35 251.13 L 173.87 262.82 L 188.1 268.82 L 212.69 267.61 L 215.18 254.77 L 214.83 240.47 L 201.75 231.92 L 210.81 227.76 L 216.61 216.49 " stroke-width="1"/>
    <path id="ID0.8038869490846992" fill="#781E29" d="M 202.55 309.05 L 184.43 312.49 L 183.44 325.48 L 184.53 339.58 L 195.19 347.69 L 215.24 344.28 L 220.2 325.01 L 213.49 314.07 L 202.55 309.05 " stroke-width="1"/>
    <path id="ID0.9569218778051436" fill="#781E29" d="M 44.27 290.73 L 57.68 280.36 L 54.93 241.62 L 47.68 220.72 L 38.23 210.27 L 26.43 220.33 L 29.66 245.9 L 34.6 274.22 L 44.27 290.73 " stroke-width="1"/>
    <path id="ID0.19103153189644217" fill="#781E29" d="M 196.56 93.54 L 213.88 90.37 L 218.11 72.72 L 212.39 62.7 L 202.95 58.04 L 187.29 61.23 L 186.44 73.16 L 187.36 86.02 L 196.56 93.54 " stroke-width="1"/>
    <path id="ID0.2558383084833622" fill="#781E29" d="M 202.16 128.93 L 212.15 126.25 L 218.35 112.47 L 207.73 100.68 L 197.75 99.65 L 189.75 103.94 L 184.37 116.58 L 192.55 123.18 L 202.16 128.93 " stroke-width="1"/>
    <path id="ID0.7948681772686541" fill="#781E29" d="M 171.21 212.42 L 166.44 222.18 L 171.61 226.56 L 177.7 230 L 184.71 226.99 L 190.06 216.47 L 183.79 208.32 L 176.8 208.57 L 171.21 212.42 " stroke-width="1"/>
    <path id="ID0.25025012623518705" fill="#781E29" d="M 71.52 180.14 L 62.36 187.59 L 64.79 197.59 L 71.28 200.19 L 77.95 198.93 L 86.28 191.94 L 83.32 185.84 L 79.15 180.23 L 71.52 180.14 " stroke-width="1"/>
    <path id="ID0.8198485574685037" fill="#781E29" d="M 142.37 388.75 L 135.64 392.7 L 130.71 403.7 L 137.37 409.14 L 145.15 413.72 L 153.57 411.03 L 159.19 399.08 L 150.74 389.26 L 142.37 388.75 " stroke-width="1"/>
    <path id="ID0.1976296822540462" fill="#781E29" d="M 42.33 336.66 L 58.87 332.46 L 62.53 321.26 L 59.65 309.49 L 46.95 294.98 L 37.19 300 L 27.95 307.43 L 28.62 320.51 L 42.33 336.66 " stroke-width="1"/>
    <path id="ID0.31967526115477085" fill="#781E29" d="M 125.01 365.47 L 114.55 365.58 L 103.62 368.65 L 99.61 382.98 L 105.6 407.48 L 121.78 412.08 L 129.05 401.77 L 130.72 387.73 L 125.01 365.47 " stroke-width="1"/>
    <path id="ID0.13699196185916662" fill="#781E29" d="M 51.79 201.92 L 65.64 177.66 L 64.93 160.84 L 57.12 149.94 L 38.18 148.57 L 31 165.58 L 25.07 185.01 L 30.88 199.84 L 51.79 201.92 " stroke-width="1"/>
    <path id="ID0.7520885835401714" fill="#781E29" d="M 156.36 379.75 L 173.48 344.07 L 174.79 321.11 L 167.9 306.93 L 148 308.2 L 138.65 332.65 L 130.16 360.6 L 134.36 380.35 L 156.36 379.75 " stroke-width="1"/>
    <path id="ID0.6197506682947278" fill="#781E29" d="M 185.18 268.83 L 152 265.37 L 131.03 272.94 L 137.03 294.64 L 180.77 305.21 L 206.56 302.5 L 220.77 293.21 L 214.52 273.73 L 185.18 268.83 " stroke-width="1"/>
    <path id="ID0.30276461271569133" fill="#781E29" d="M 116.38 201.98 L 94 198.2 L 59.44 208.19 L 60.19 226.95 L 65.49 247.15 L 87.88 255.26 L 126.29 244.72 L 132.21 215.59 L 116.38 201.98 " stroke-width="1"/>
    <path id="ID0.2910922304727137" fill="#781E29" d="M 80.71 356.84 L 48.71 340.41 L 36.39 354.59 L 26.39 372.91 L 37.13 394.18 L 72.31 412.84 L 96.6 395.7 L 94.41 374.94 L 80.71 356.84 " stroke-width="1"/>
    <path id="ID0.21088068885728717" fill="#781E29" d="M 127.41 106.78 L 146.82 115.3 L 179.97 112.52 L 183.05 93.68 L 182.36 72.48 L 163.84 59.62 L 127.1 62.14 L 116 89.91 L 127.41 106.78 " stroke-width="1"/>
    <path id="ID0.3146608741953969" fill="#781E29" d="M 193.02 353.35 L 176.98 363.38 L 160.84 376.64 L 158.8 394.33 L 177.62 411.77 L 204.09 400.25 L 212.27 384.26 L 210.38 368.73 L 193.02 353.35 " stroke-width="1"/>
    <path id="ID0.5829402669332922" fill="#781E29" d="M 123.36 262.72 L 89.12 258.15 L 71.2 275.05 L 63.73 306.01 L 80.2 356.42 L 118.29 360.45 L 133.98 335.75 L 130.21 296.8 L 123.36 262.72 " stroke-width="1"/>
    <path id="ID0.4177084397524595_6_" fill="none" d="M 0.5 0 L 245.49 0 L 245.49 443.35 L 0.5 443.35 L 0.5 0 Z " stroke-width="1"/>
    <path id="ID0.17349215224385262_119_" fill="#A34E42" d="M 108.76 46.59 L 117.98 56.83 L 112.7 68.56 L 104.45 70.77 L 95.68 65.53 L 88.79 59.98 L 93.3 49.37 L 100.14 45.71 L 108.76 46.59 " stroke-width="1"/>
    <path id="ID0.2507083029486239" fill="#5E2028" d="M 24.69 30.32 L 24.63 49.94 L 28.35 56.89 L 35.89 48.71 L 37.66 51.13 L 43.13 46.7 L 47.05 54.59 L 49.94 51.19 L 51.9 53.91 L 54.54 51.46 L 57.45 56.51 L 61.33 48.87 L 64.54 57.89 L 72.48 48.71 L 75.38 54.61 L 79.63 50.89 L 81.48 52.62 L 83.52 47.88 L 89.26 54.68 L 92.06 45.75 L 96.22 53.99 L 98.25 48.35 L 100.09 48.04 L 101.78 46.06 L 107.85 58.02 L 111.85 48.95 L 113.37 52.13 L 119.01 47.53 L 123.3 50.18 L 123.56 40.97 L 122.98 30.51 L 24.69 30.32 " stroke-width="1"/>
    <path id="ID0.404715524520725" fill="#5E2028" d="M 122.69 30.32 L 122.63 49.94 L 126.35 56.89 L 133.88 48.71 L 135.66 51.13 L 141.13 46.7 L 145.05 54.59 L 147.94 51.19 L 149.9 53.91 L 152.54 51.46 L 155.45 56.51 L 159.33 48.87 L 162.54 57.89 L 170.48 48.71 L 173.38 54.61 L 177.63 50.89 L 179.48 52.62 L 181.52 47.88 L 187.26 54.68 L 190.06 45.75 L 194.22 53.99 L 196.25 48.35 L 198.09 48.04 L 199.78 46.06 L 205.85 58.02 L 209.85 48.95 L 211.37 52.13 L 217.01 47.53 L 220.3 51.18 L 220.56 40.97 L 218.98 30.51 L 122.69 30.32 " stroke-width="1"/>
    <path id="ID0.17349215224385262_118_" fill="#BA594B" d="M 113.05 97.41 L 101.96 134.08 L 57.13 140.58 L 33.96 125.56 L 31.43 97.73 L 33.6 73.61 L 73.62 67.14 L 98.14 76.73 L 113.05 97.41 " stroke-width="1"/>
    <path id="ID0.17349215224385262_117_" fill="#AB483B" d="M 209.05 153.76 L 197.28 196.92 L 149.71 204.57 L 125.13 186.89 L 122.44 154.13 L 124.74 125.74 L 167.21 118.13 L 193.23 129.42 L 209.05 153.76 " stroke-width="1"/>
    <path id="ID0.17349215224385262_116_" fill="#9E3325" d="M 149.45 253.9 L 136.59 247.55 L 135.88 225.79 L 142.16 215.05 L 152.32 214.6 L 160.97 216.31 L 161.84 235.76 L 157.47 247.3 L 149.45 253.9 " stroke-width="1"/>
    <path id="ID0.17349215224385262_115_" fill="#B3655A" d="M 115.05 159.33 L 110.62 176.52 L 92.71 179.57 L 83.45 172.53 L 82.44 159.48 L 83.31 148.17 L 99.3 145.14 L 109.1 149.64 L 115.05 159.33 " stroke-width="1"/>
    <path id="ID0.17349215224385262_114_" fill="#BA6256" d="M 196.92 204.46 L 192.93 219.81 L 201.63 226.77 L 209.35 223.23 L 214.78 212.67 L 218.53 203.08 L 210.88 196.61 L 203.82 197.91 L 196.92 204.46 " stroke-width="1"/>
    <path id="ID0.17349215224385262_113_" fill="#D06454" d="M 218.05 322.33 L 213.62 339.52 L 195.71 342.57 L 186.45 335.53 L 185.44 322.48 L 186.31 311.17 L 202.3 308.14 L 212.1 312.64 L 218.05 322.33 " stroke-width="1"/>
    <path id="ID0.17349215224385262_112_" fill="#C76455" d="M 52.96 239.03 L 55.61 276.44 L 44.86 284.76 L 36.52 270.53 L 31.64 242.57 L 28.56 218.16 L 38.06 210.06 L 45.93 218.77 L 52.96 239.03 " stroke-width="1"/>
    <path id="ID0.17349215224385262_111_" fill="#AB483B" d="M 215.98 70.03 L 212.24 85.64 L 197.11 88.41 L 189.29 82.01 L 188.44 70.16 L 189.17 59.89 L 202.68 57.14 L 210.96 61.22 L 215.98 70.03 " stroke-width="1"/>
    <path id="ID0.17349215224385262_110_" fill="#9C472D" d="M 206.76 99.59 L 215.98 109.83 L 210.7 121.56 L 202.45 123.77 L 193.68 118.53 L 186.79 112.98 L 191.3 102.37 L 198.14 98.71 L 206.76 99.59 " stroke-width="1"/>
    <path id="ID0.17349215224385262_109_" fill="#BA594B" d="M 182.83 207.35 L 187.71 213.68 L 183.26 222.43 L 177.82 224.77 L 172.76 221.91 L 168.92 218.66 L 172.78 210.77 L 177.46 207.55 L 182.83 207.35 " stroke-width="1"/>
    <path id="ID0.17349215224385262_108_" fill="#D06454" d="M 66.49 193.11 L 64.6 185.34 L 72.22 179.14 L 78.14 179.21 L 81.61 183.87 L 83.81 188.4 L 77.08 194.05 L 71.5 195.1 L 66.49 193.11 " stroke-width="1"/>
    <path id="ID0.17349215224385262_107_" fill="#AB483B" d="M 167.66 247.9 L 175.28 231.42 L 200.53 230.52 L 212.86 238.58 L 213.18 251.61 L 211.02 262.69 L 188.45 263.8 L 175.15 258.19 L 167.66 247.9 " stroke-width="1"/>
    <path id="ID0.17349215224385262_106_" fill="#AB483B" d="M 149.77 388.2 L 156.83 396.4 L 152.13 406.39 L 145.39 408.54 L 138.51 404.49 L 133.15 400.11 L 137.19 391.09 L 142.84 387.78 L 149.77 388.2 " stroke-width="1"/>
    <path id="ID0.17349215224385262_105_" fill="#BA594B" d="M 57.31 327.79 L 43.05 331.41 L 30.58 316.73 L 30 305.34 L 38.29 298.68 L 46.48 294.46 L 57.82 307.42 L 60.45 318.17 L 57.31 327.79 " stroke-width="1"/>
    <path id="ID0.17349215224385262_104_" fill="#BA594B" d="M 120.96 406.77 L 107.27 402.87 L 101.68 380.01 L 105.25 367.27 L 114.84 364.57 L 123.47 364.48 L 128.69 384.86 L 127.13 398.03 L 120.96 406.77 " stroke-width="1"/>
    <path id="ID0.17349215224385262_103_" fill="#AB483B" d="M 63.62 174.17 L 50.69 196.8 L 32.3 194.97 L 27.19 181.92 L 32.89 163.25 L 39.47 147.66 L 56.05 148.86 L 62.97 158.52 L 63.62 174.17 " stroke-width="1"/>
    <path id="ID0.17349215224385262_102_" fill="#B3655A" d="M 171.5 340.56 L 155.08 374.79 L 135.97 375.31 L 132.22 357.7 L 140.54 330.3 L 149.4 307.12 L 166.69 306.01 L 172.76 318.51 L 171.5 340.56 " stroke-width="1"/>
    <path id="ID0.17349215224385262_101_" fill="#9C472D" d="M 180.9 300.18 L 138.64 289.98 L 133.45 271.2 L 152.25 264.41 L 184.91 267.82 L 212.98 272.5 L 218.39 289.37 L 205.87 297.56 L 180.9 300.18 " stroke-width="1"/>
    <path id="ID0.17349215224385262_100_" fill="#D06454" d="M 130.01 213.34 L 124.57 240.11 L 87.96 250.16 L 67.15 242.62 L 62.18 223.65 L 61.5 206.68 L 94.11 197.25 L 115.49 200.86 L 130.01 213.34 " stroke-width="1"/>
    <path id="ID0.17349215224385262_99_" fill="#B3655A" d="M 94.49 391.74 L 72.17 407.5 L 38.63 389.71 L 28.65 369.95 L 38.04 352.74 L 49.19 339.91 L 79.39 355.41 L 92.47 372.7 L 94.49 391.74 " stroke-width="1"/>
    <path id="ID0.17349215224385262_98_" fill="#C76050" d="M 118.25 86.67 L 128.49 61.05 L 163.28 58.66 L 180.4 70.55 L 181.05 90.55 L 178.26 107.66 L 147.17 110.26 L 128.76 102.18 L 118.25 86.67 " stroke-width="1"/>
    <path id="ID0.17349215224385262_97_" fill="#AB483B" d="M 202.63 395.7 L 178.02 406.41 L 160.89 390.55 L 162.72 374.68 L 178.14 362.01 L 192.8 352.84 L 208.47 366.73 L 210.2 380.9 L 202.63 395.7 " stroke-width="1"/>
    <path id="ID0.17349215224385262_96_" fill="#AB483B" d="M 65.81 302.93 L 81.7 351.57 L 117.27 355.32 L 131.93 332.25 L 128.23 294.09 L 121.69 261.51 L 89.8 257.26 L 73 273.1 L 65.81 302.93 " stroke-width="1"/>
    <path id="ID0.954360578674823" fill="#39B54A" d="M 119.98 26.46 L 114.57 28.1 L 114.85 27.31 L 108.81 26.38 L 100.61 28.48 L 94.46 26.82 L 89.01 27.53 L 89 26.78 L 81.39 26.82 L 77.28 28.44 L 77.38 28.11 L 69.93 26.55 L 59.37 28.11 L 59.42 28.34 L 55.69 27.33 L 49.79 28.1 L 49.87 28.58 L 45.11 27.59 L 41.08 28.49 L 41.2 28.11 L 33.74 26.55 L 23.18 28.11 L 23.92 31.78 L 22.91 31.23 L 20.66 33.09 L 21.19 39.19 L 23.4 45.79 L 25.74 40.84 L 28.35 53.89 L 37.89 38.71 L 37.66 46.13 L 45.13 39.7 L 48.05 51.59 L 49.94 42.19 L 51.9 49.91 L 53.54 42.46 L 57.45 51.51 L 61.33 37.87 L 64.54 53.89 L 74.28 38.38 L 74.48 37.71 L 75.38 49.61 L 80.63 42.89 L 81.48 46.62 L 84.52 39.88 L 89.26 49.68 L 89.04 30.49 L 90.06 36.75 L 96.22 50.99 L 99.25 40.35 L 100.09 44.04 L 102.78 38.06 L 107.85 54.02 L 112.85 32.95 L 113.79 30.31 L 113.37 48.13 L 121.01 38.53 L 124.3 50.18 L 125.98 27.51 L 119.98 26.46 " stroke-width="1"/>
    <path id="ID0.4057059297338128" fill="#8CE83F" d="M 26.87 28.93 L 28.83 46.46 L 32.14 35.31 L 37.25 28.68 L 33.65 27.93 L 26.87 28.93 " stroke-width="1"/>
    <path id="ID0.27364346105605364" fill="#8CE83F" d="M 51.74 28.88 L 55.1 35.04 L 56.68 44.98 L 59.74 29.9 L 54.59 28.51 L 51.74 28.88 " stroke-width="1"/>
    <path id="ID0.5317802750505507" fill="#8CE83F" d="M 96.7 29.02 L 91.55 30.42 L 95.12 45.5 L 96.7 33.49 L 99.54 29.39 L 96.7 29.02 " stroke-width="1"/>
    <path id="ID0.7766101486049592" fill="#8CE83F" d="M 42.89 28.93 L 39.17 40.77 L 44.92 32.89 L 48.21 41.99 L 48.62 34.88 L 48.12 29.48 L 42.89 28.93 " stroke-width="1"/>
    <path id="ID0.3027723841369152" fill="#8CE83F" d="M 84.77 28.04 L 77.99 29.1 L 76.81 42.5 L 81.31 32.04 L 87.47 39.22 L 87.41 32.7 L 84.77 28.04 " stroke-width="1"/>
    <path id="ID0.6235603475943208" fill="#8CE83F" d="M 69.84 27.93 L 63.05 28.93 L 66.05 41.29 L 73.5 32.21 L 73.43 28.68 L 69.84 27.93 " stroke-width="1"/>
    <path id="ID0.38386352732777596" fill="#8CE83F" d="M 50.09 36.19 L 50.79 39.86 L 51.72 45.88 L 53.27 36.64 L 51.24 34.35 L 50.09 36.19 " stroke-width="1"/>
    <path id="ID0.4236233737319708" fill="#8CE83F" d="M 80.78 36.69 L 81.17 39.37 L 81.61 43.72 L 83.85 37.59 L 82.05 35.63 L 80.78 36.69 " stroke-width="1"/>
    <path id="ID0.24888124084100127" fill="#8CE83F" d="M 99.39 34.1 L 99.78 36.78 L 100.22 41.13 L 102.46 35.01 L 100.66 33.04 L 99.39 34.1 " stroke-width="1"/>
    <path id="ID0.9194990452378988" fill="#8CE83F" d="M 21.9 33.36 L 22.19 37.03 L 23.19 41.28 L 24.57 34.19 L 23.36 32.11 L 21.9 33.36 " stroke-width="1"/>
    <path id="ID0.34929538890719414" fill="#8CE83F" d="M 122.53 28.15 L 117.1 28.23 L 115.07 41.31 L 119.47 31.61 L 123.74 39.59 L 124.23 33.14 L 122.53 28.15 " stroke-width="1"/>
    <path id="ID0.8590280329808593" fill="#8CE83F" d="M 102.25 29.46 L 105.47 34.58 L 107.57 46.53 L 109.95 32.47 L 112.54 28.13 L 108.89 27.76 L 102.25 29.46 " stroke-width="1"/>
    <path id="ID0.427535817027092" fill="#39B54A" d="M 218.19 26.46 L 212.78 28.1 L 213.05 27.31 L 207.02 26.38 L 198.82 28.48 L 192.67 26.82 L 187.22 27.53 L 187.21 26.78 L 179.59 26.82 L 175.49 28.44 L 175.59 28.11 L 168.14 26.55 L 157.58 28.11 L 157.63 28.34 L 153.9 27.33 L 148 28.1 L 148.08 28.58 L 143.32 27.59 L 139.29 28.49 L 139.4 28.11 L 131.95 26.55 L 121.39 28.11 L 122.13 31.78 L 121.12 31.23 L 118.86 33.09 L 119.58 38.07 L 122.61 45.79 L 123.94 40.84 L 126.56 53.89 L 136.09 38.71 L 135.87 46.13 L 143.34 39.7 L 146.26 51.59 L 148.15 42.19 L 150.11 49.91 L 151.75 42.46 L 155.66 51.51 L 159.54 37.87 L 162.75 53.89 L 172.49 38.38 L 172.69 37.71 L 173.58 49.61 L 178.84 42.89 L 179.69 46.62 L 182.73 39.88 L 187.46 49.68 L 187.25 30.49 L 188.27 36.75 L 194.43 50.99 L 197.46 40.35 L 198.3 44.04 L 200.99 38.06 L 206.06 54.02 L 211.06 32.95 L 211.99 30.31 L 211.58 48.13 L 218.22 38.53 L 223.51 46.18 L 223.98 34.53 L 222.19 28.51 L 218.19 26.46 " stroke-width="1"/>
    <path id="ID0.9896741020493209" fill="#8CE83F" d="M 125.07 28.93 L 127.04 46.46 L 130.35 35.31 L 135.45 28.68 L 131.85 27.93 L 125.07 28.93 " stroke-width="1"/>
    <path id="ID0.11197011265903711" fill="#8CE83F" d="M 149.95 28.88 L 153.31 35.04 L 154.89 44.98 L 157.94 29.9 L 152.8 28.51 L 149.95 28.88 " stroke-width="1"/>
    <path id="ID0.3231014641933143" fill="#8CE83F" d="M 194.91 29.02 L 189.76 30.42 L 193.33 45.5 L 194.91 33.49 L 197.75 29.39 L 194.91 29.02 " stroke-width="1"/>
    <path id="ID0.865035857539624" fill="#8CE83F" d="M 141.1 28.93 L 137.38 40.77 L 143.12 32.89 L 146.42 41.99 L 146.83 34.88 L 146.33 29.48 L 141.1 28.93 " stroke-width="1"/>
    <path id="ID0.44309771060943604" fill="#8CE83F" d="M 182.98 28.04 L 176.2 29.1 L 175.02 42.5 L 179.52 32.04 L 185.68 39.22 L 185.62 32.7 L 182.98 28.04 " stroke-width="1"/>
    <path id="ID0.348554203286767" fill="#8CE83F" d="M 168.04 27.93 L 161.26 28.93 L 164.26 41.29 L 171.71 32.21 L 171.64 28.68 L 168.04 27.93 " stroke-width="1"/>
    <path id="ID0.07148867193609476" fill="#8CE83F" d="M 148.3 36.19 L 148.99 39.86 L 149.93 45.88 L 151.48 36.64 L 149.44 34.35 L 148.3 36.19 " stroke-width="1"/>
    <path id="ID0.8551436699926853" fill="#8CE83F" d="M 178.99 36.69 L 179.37 39.37 L 179.82 43.72 L 182.06 37.59 L 180.25 35.63 L 178.99 36.69 " stroke-width="1"/>
    <path id="ID0.3531850674189627" fill="#8CE83F" d="M 197.6 34.1 L 197.99 36.78 L 198.43 41.13 L 200.67 35.01 L 198.87 33.04 L 197.6 34.1 " stroke-width="1"/>
    <path id="ID0.46064284909516573" fill="#8CE83F" d="M 119.83 33.4 L 120.85 36.72 L 122.25 42.15 L 123.84 33.92 L 121.21 31.79 L 119.83 33.4 " stroke-width="1"/>
    <path id="ID0.8951707230880857" fill="#8CE83F" d="M 220.74 29.15 L 215.31 28.23 L 213.28 41.31 L 217.68 31.61 L 221.95 39.59 L 222.02 33.53 L 220.74 29.15 " stroke-width="1"/>
    <path id="ID0.08555533597245812" fill="#8CE83F" d="M 200.46 29.46 L 203.68 34.58 L 205.78 46.53 L 208.15 32.47 L 210.75 28.13 L 207.09 27.76 L 200.46 29.46 " stroke-width="1"/>
  </g>
</svg>