<svg version="1.1" xmlns="http://www.w3.org/2000/svg" xmlns:xlink="http://www.w3.org/1999/xlink" width="334.8773" height="304.12369" viewBox="0,0,334.8773,304.12369"><defs><linearGradient x1="302.85384" y1="45.6121" x2="302.85384" y2="207.58032" gradientUnits="userSpaceOnUse" id="color-1"><stop offset="0" stop-color="#535353"/><stop offset="1" stop-color="#808080"/></linearGradient><linearGradient x1="238.0123" y1="251.07774" x2="407.43865" y2="251.07774" gradientUnits="userSpaceOnUse" id="color-2"><stop offset="0" stop-color="#808080"/><stop offset="1" stop-color="#535353"/></linearGradient><linearGradient x1="169.85893" y1="169.307" x2="169.85893" y2="331.27522" gradientUnits="userSpaceOnUse" id="color-3"><stop offset="0" stop-color="#535353"/><stop offset="1" stop-color="#808080"/></linearGradient><linearGradient x1="157.27453" y1="27.93815" x2="157.27453" y2="189.90638" gradientUnits="userSpaceOnUse" id="color-4"><stop offset="0" stop-color="#ffb570"/><stop offset="1" stop-color="#ff7700"/></linearGradient></defs><g transform="translate(-72.56135,-27.93816)"><g data-paper-data="{&quot;isPaintingLayer&quot;:true}" fill-rule="nonzero" stroke-linejoin="miter" stroke-miterlimit="10" stroke-dasharray="" stroke-dashoffset="0" style="mix-blend-mode: normal"><path d="M386.43875,125.83574c0,26.81547 4.19071,61.53113 -16.77607,75.91453c-13.33442,9.14753 -47.49293,3.51826 -65.06378,3.51826c-14.86486,0 -60.43967,5.7817 -72.45432,-0.94177c-24.51777,-13.72028 -9.38553,-49.04917 -9.38553,-78.49103c0,-24.74952 -2.78028,-56.48356 15.50119,-71.05138c14.12317,-11.25422 46.63926,-8.38141 66.33865,-8.38141c21.18376,0 56.9932,-4.56732 71.52615,8.25021c16.47539,14.5307 10.3137,47.87377 10.3137,71.18259z" data-paper-data="{&quot;index&quot;:null}" fill="url(#color-1)" stroke="none" stroke-width="0" stroke-linecap="butt"/><path d="M406.31038,251.8382c0,23.30881 6.16169,56.65189 -10.3137,71.18259c-14.53295,12.81753 -50.34239,8.25021 -71.52615,8.25021c-19.69939,0 -52.21548,2.87281 -66.33865,-8.38141c-18.28148,-14.56782 -15.50119,-46.30186 -15.50119,-71.05138c0,-29.44186 -15.13224,-64.77075 9.38553,-78.49103c12.01466,-6.72347 57.58946,-0.94177 72.45432,-0.94177c17.57084,0 51.72936,-5.62926 65.06378,3.51826c20.96679,14.3834 16.77607,49.09906 16.77607,75.91453z" data-paper-data="{&quot;index&quot;:null}" fill="url(#color-2)" stroke="none" stroke-width="0" stroke-linecap="butt"/><path d="M86.27402,251.05159c0,-26.81547 -4.19071,-61.53113 16.77607,-75.91453c13.33442,-9.14753 47.49293,-3.51826 65.06378,-3.51826c14.86486,0 60.43967,-5.7817 72.45432,0.94177c24.51777,13.72028 9.38553,49.04917 9.38553,78.49103c0,24.74952 2.78028,56.48356 -15.50119,71.05138c-14.12317,11.25422 -46.63926,8.38141 -66.33865,8.38141c-21.18376,0 -56.9932,4.56732 -71.52615,-8.25021c-16.47539,-14.5307 -10.3137,-47.87377 -10.3137,-71.18259z" data-paper-data="{&quot;index&quot;:null}" fill="url(#color-3)" stroke="none" stroke-width="0" stroke-linecap="butt"/><path d="M73.68962,108.1618c0,-23.30881 -6.16169,-56.65189 10.3137,-71.18259c14.53295,-12.81753 50.34239,-8.25021 71.52615,-8.25021c19.69939,0 52.21548,-2.87281 66.33865,8.38141c18.28148,14.56782 15.50119,46.30186 15.50119,71.05138c0,29.44186 15.13224,64.77075 -9.38553,78.49103c-12.01466,6.72347 -57.58946,0.94177 -72.45432,0.94177c-17.57084,0 -51.72936,5.62926 -65.06378,-3.51826c-20.96679,-14.3834 -16.77607,-49.09906 -16.77607,-75.91453z" data-paper-data="{&quot;index&quot;:null}" fill="url(#color-4)" stroke="none" stroke-width="0" stroke-linecap="butt"/><g fill="none" stroke="#ffffff" stroke-width="10" stroke-linecap="round"><path d="M211.23603,175.36681l-95.38071,-120.21945"/><path d="M122.81017,158.47646l85.44523,-95.38071"/></g><g fill="none" stroke="#ffffff" stroke-width="10" stroke-linecap="round"><path d="M324.55586,174.62355l-1.85114,114.76622"/><path d="M370.83431,225.99511l-110.14268,-2.18603"/></g><g><path d="M254.61355,120.07786l105.99176,-1.01915" fill="none" stroke="#ffffff" stroke-width="10" stroke-linecap="round"/><path d="M302.11927,72.17773c0,-4.72072 3.82691,-8.54762 8.54762,-8.54762c4.72072,0 8.54762,3.82691 8.54762,8.54762c0,4.72073 -3.82691,8.54762 -8.54762,8.54762c-4.72072,0 -8.54762,-3.8269 -8.54762,-8.54762z" fill="#ffffff" stroke="none" stroke-width="0.5" stroke-linecap="butt"/><path d="M302.11927,156.76731c0,-4.72073 3.82691,-8.54762 8.54762,-8.54762c4.72072,0 8.54762,3.8269 8.54762,8.54762c0,4.72073 -3.82691,8.54762 -8.54762,8.54762c-4.72072,0 -8.54762,-3.8269 -8.54762,-8.54762z" fill="#ffffff" stroke="none" stroke-width="0.5" stroke-linecap="butt"/></g><path d="M119.99778,242.07425l38.51487,-0.84648" fill="none" stroke="#ffffff" stroke-width="10" stroke-linecap="round"/><g data-paper-data="{&quot;index&quot;:null}" fill="none" stroke="#ffffff" stroke-width="10" stroke-linecap="round"><path d="M283.91663,182.08567l-67.2527,0.43389"/><path d="M282.06777,198.44066l-66.09715,0.8474"/></g></g></g></svg>