<svg xmlns="http://www.w3.org/2000/svg" xmlns:xlink="http://www.w3.org/1999/xlink" version="1.1" width="296.9317021369934" height="307.40451097488403" viewBox="-0.541238009929657 0.26655250787734985 296.9317021369934 307.40451097488403">
  <!-- Exported by Scratch - http://scratch.mit.edu/ -->
  <g id="ID0.5341594824567437">
    <path id="ID0.6582191283814609" fill="#FFFFFF" d="M 14.7978 61.4316 C 12.9201 61.357 11.1384 60.8769 9.5167 60.002 C 7.7457 59.0418 6.4547 57.7935 5.6759 56.2785 C 4.9931 54.9449 4.9184 53.4193 5.4518 51.9896 C 5.6652 51.4028 5.9746 50.8801 6.3587 50.3999 C 5.9746 50.2826 5.6119 50.1439 5.2491 49.9945 C 3.4034 49.1837 1.9631 47.7861 0.9709 45.8443 C 0.0107 43.9452 -0.2454 41.9395 0.2134 39.8697 C 0.6508 37.9279 1.707 36.1036 3.3714 34.4392 C 4.8757 32.9349 6.8281 31.6119 9.1753 30.5237 C 11.0637 29.6488 12.8561 29.0834 14.5311 28.8487 C 15.2673 28.742 15.9821 28.6993 16.6649 28.6993 C 17.5718 28.6993 18.4359 28.7953 19.2361 28.9767 C 20.7084 29.3074 21.9567 29.8622 22.9489 30.6197 C 24.0265 31.4412 24.816 32.4228 25.2854 33.5323 C 25.8509 34.866 25.8509 36.3276 25.2747 37.7572 C 25.1894 37.9813 25.0827 38.1947 24.9653 38.408 C 26.0963 38.7174 27.1205 39.2296 28.0487 39.923 C 29.2863 40.8619 30.2785 42.1849 30.9933 43.8599 C 31.8255 45.8443 32.0282 47.9034 31.5908 49.9839 C 31.164 51.9896 30.1398 53.8567 28.5394 55.5637 C 27.0778 57.1107 25.136 58.455 22.7782 59.5539 C 20.0576 60.8235 17.6038 61.4316 15.2673 61.4316 C 15.2673 61.4423 14.9472 61.4423 14.7978 61.4316 Z M 15.2779 50.1866 C 15.63 50.464 15.9714 50.688 16.2701 50.8374 C 16.3448 50.8801 16.5262 50.9334 16.8889 50.9334 C 17.0276 50.9334 17.4757 50.9014 18.3826 50.4746 C 19.1828 50.1012 19.7589 49.6851 20.079 49.2477 C 19.9296 49.2477 19.7802 49.2584 19.6309 49.2797 C 18.8307 49.3864 17.7318 49.6104 16.3555 49.9305 C 15.9928 50.0265 15.63 50.1012 15.2779 50.1866 L 15.2779 50.1866 Z " stroke-width="1.0668950080871582"/>
    <path id="ID0.7844027699902654" d="M 28.0487 45.1081 C 28.6355 46.4844 28.7635 47.8927 28.4648 49.3224 C 28.166 50.752 27.4085 52.0963 26.2136 53.3659 C 25.0187 54.6355 23.429 55.7238 21.4233 56.652 C 19.0334 57.7615 16.8676 58.3056 14.9152 58.231 C 13.5282 58.1776 12.2266 57.8255 11.0424 57.1854 C 9.8474 56.5453 9.0153 55.7558 8.5352 54.8169 C 8.2578 54.2728 8.2364 53.7073 8.4605 53.0992 C 8.6845 52.4911 9.122 52.0323 9.7728 51.7016 C 10.3062 51.4348 10.829 51.3708 11.3411 51.4882 C 11.8532 51.6055 12.3867 51.9149 12.9414 52.3737 C 13.5922 52.9285 14.2324 53.3552 14.8298 53.6646 C 15.4273 53.974 16.1208 54.1127 16.9316 54.1127 C 17.7425 54.1127 18.6707 53.8567 19.7482 53.3552 C 21.2205 52.6724 22.2768 51.8083 22.9169 50.752 C 23.557 49.7065 23.6744 48.7036 23.2583 47.754 C 22.9276 46.9966 22.4048 46.5058 21.6793 46.2604 C 20.9538 46.015 20.143 45.951 19.2254 46.079 C 18.3079 46.1964 17.1023 46.4418 15.63 46.7938 C 13.6563 47.2633 11.9279 47.562 10.4662 47.6474 C 9.0046 47.7327 7.703 47.5407 6.5507 47.0392 C 5.3985 46.5378 4.5023 45.6523 3.8515 44.372 C 3.2327 43.1557 3.062 41.8755 3.3607 40.5418 C 3.6594 39.2082 4.4169 37.9066 5.6545 36.6797 C 6.8921 35.4421 8.5245 34.3432 10.5516 33.4043 C 12.1733 32.6468 13.6563 32.1881 14.9899 32.0067 C 16.3235 31.8253 17.5184 31.8466 18.5426 32.0814 C 19.5669 32.3161 20.399 32.6788 21.0285 33.1483 C 21.658 33.6284 22.1061 34.1725 22.3621 34.7699 C 22.5968 35.3247 22.5862 35.9115 22.3301 36.541 C 22.0741 37.1705 21.626 37.6292 20.9645 37.9173 C 20.367 38.184 19.8549 38.248 19.4282 38.12 C 19.0014 37.992 18.4466 37.7146 17.8385 37.2771 C 16.985 36.669 16.1208 36.2209 15.2353 36.0395 C 14.3497 35.8582 13.1762 36.1142 11.7038 36.797 C 10.3382 37.4372 9.3673 38.216 8.7912 39.1229 C 8.2151 40.0297 8.0977 40.8512 8.4498 41.5661 C 8.6632 42.0142 8.9939 42.3236 9.4314 42.5156 C 9.8688 42.7076 10.3916 42.8037 10.989 42.8037 C 11.5865 42.8037 12.1733 42.7503 12.7281 42.6543 C 13.2935 42.5476 14.2217 42.3662 15.47 42.0782 C 17.0383 41.7261 18.5 41.4487 19.8336 41.2887 C 21.1672 41.1286 22.3515 41.1286 23.397 41.2887 C 24.4426 41.4487 25.3601 41.8328 26.1496 42.4409 C 26.9284 43.081 27.5686 43.9559 28.0487 45.1081 Z " stroke-width="1.0668950080871582" />
    <path id="ID0.5603762627579272" fill="#FFFFFF" d="M 38.8136 51.6055 C 37.2666 51.6055 35.773 51.3175 34.386 50.752 C 31.324 49.5144 29.0729 47.1673 27.6859 43.7745 C 26.7471 41.4914 26.427 39.2296 26.7151 37.0318 C 27.0138 34.7166 27.9847 32.6361 29.5957 30.8438 C 31.1213 29.1367 33.1804 27.7924 35.7196 26.8536 C 37.2986 26.2668 38.867 25.936 40.382 25.872 C 40.6274 25.8614 40.8621 25.8507 41.0968 25.8507 C 42.3451 25.8507 43.508 26.0107 44.5642 26.3095 C 45.8658 26.6829 46.9967 27.2377 47.9036 27.9418 C 49.0025 28.7953 49.7386 29.7875 50.1227 30.9078 C 50.5815 32.2627 50.4428 33.6924 49.7386 34.962 C 49.92 35.0367 50.1014 35.1113 50.2828 35.2074 C 51.8724 36.0395 52.5552 37.2451 52.8433 38.12 C 53.2061 39.1976 53.2701 40.3925 53.014 41.6727 C 52.79 42.825 52.3205 43.9452 51.563 45.1188 C 50.8375 46.2391 49.8453 47.2846 48.5864 48.2342 C 47.3808 49.141 45.9512 49.9092 44.3188 50.5173 C 42.3877 51.2428 40.542 51.6055 38.8136 51.6055 L 38.8136 51.6055 Z M 39.9019 36.0289 C 39.7845 36.0289 39.5285 36.0502 39.1017 36.2102 C 38.4509 36.4556 38.2268 36.7437 38.0882 37.1171 C 37.8854 37.6826 37.9708 38.4614 38.3442 39.4323 C 38.5362 39.923 38.771 40.3391 39.0484 40.6805 C 39.2617 40.9473 39.4751 41.1286 39.6992 41.246 C 39.8699 41.3313 40.0299 41.3847 40.2219 41.3847 C 40.2219 41.3847 40.2326 41.3847 40.2326 41.3847 C 40.5313 41.3847 40.7767 41.3313 41.0435 41.2353 C 41.4382 41.0966 41.7156 40.9153 41.8756 40.7232 C 42.089 40.4565 42.2597 40.0724 42.3557 39.603 C 42.5158 38.8241 42.7505 38.152 43.0385 37.5545 C 42.5158 37.3625 41.9823 37.0851 41.4382 36.733 C 40.6487 36.2209 40.2006 36.0715 40.0086 36.0289 C 39.9979 36.0395 39.9552 36.0289 39.9019 36.0289 L 39.9019 36.0289 Z " stroke-width="1.0668950080871582"/>
    <path id="ID0.9038091953843832" d="M 49.8027 39.1442 C 49.984 39.6883 50.0054 40.3391 49.8667 41.0753 C 49.728 41.8114 49.3866 42.5796 48.8745 43.3904 C 48.3517 44.2013 47.6155 44.9588 46.6553 45.6843 C 45.6951 46.4098 44.5429 47.0179 43.1986 47.5193 C 40.3393 48.5862 37.8214 48.6822 35.5916 47.7754 C 33.3618 46.8685 31.7081 45.1402 30.6412 42.5583 C 29.9264 40.8086 29.6597 39.1015 29.8837 37.4478 C 30.1078 35.7942 30.8013 34.2898 31.9748 32.9776 C 33.1484 31.6653 34.7701 30.6197 36.8292 29.8516 C 38.0988 29.3821 39.3364 29.1154 40.5207 29.062 C 41.7049 29.0087 42.7612 29.1154 43.6787 29.3821 C 44.5962 29.6488 45.3537 30.0116 45.9405 30.4704 C 46.5273 30.9291 46.9114 31.4199 47.0927 31.932 C 47.2741 32.4548 47.1994 32.9669 46.89 33.479 C 46.5806 33.9911 46.1219 34.3538 45.5031 34.5672 C 45.0977 34.7059 44.7349 34.7273 44.4042 34.6312 C 44.0734 34.5352 43.6573 34.3432 43.1879 34.0444 C 42.3131 33.479 41.4702 33.0629 40.6807 32.8922 C 39.8912 32.7215 38.9843 32.8282 37.9921 33.1909 C 36.5518 33.7244 35.5809 34.6632 35.0902 35.9969 C 34.5994 37.3305 34.6954 38.8561 35.3782 40.5845 C 35.6983 41.3954 36.0931 42.0995 36.5838 42.6863 C 37.0746 43.2731 37.608 43.7319 38.2055 44.0519 C 38.803 44.372 39.4431 44.5427 40.1153 44.5747 C 40.7981 44.6067 41.4809 44.4894 42.1744 44.2226 C 43.1132 43.8706 43.8387 43.3798 44.3722 42.729 C 44.8949 42.0782 45.2897 41.246 45.5031 40.2431 C 45.6204 39.6563 45.7911 39.1549 46.0365 38.7601 C 46.2819 38.3654 46.6446 38.088 47.1354 37.9173 C 47.7222 37.7146 48.277 37.7572 48.7998 38.024 C 49.3119 38.3227 49.6426 38.6854 49.8027 39.1442 Z " stroke-width="1.0668950080871582" />
    <path id="ID0.6606812463141978" fill="#FFFFFF" d="M 57.1962 45.823 C 56.2787 45.823 55.4039 45.5989 54.593 45.1615 C 53.6755 44.6707 52.4486 43.6358 51.7657 41.5341 L 47.8182 29.2861 C 47.1994 27.355 47.2528 25.6587 47.9996 24.229 C 48.469 23.3328 49.4292 22.1272 51.3817 21.5191 C 52.0431 21.3164 52.6939 21.2097 53.3127 21.2097 C 53.8142 21.2097 54.3156 21.2844 54.7851 21.4231 C 55.6599 20.5376 56.8122 19.8761 58.2205 19.4707 C 59.1593 19.2039 60.1302 19.0652 61.1011 19.0652 C 61.6985 19.0652 62.3173 19.1186 62.9148 19.2253 C 66.2435 19.7907 67.2037 22.0419 67.4598 22.9914 C 67.8545 24.4424 67.5985 25.9254 66.7556 27.163 C 66.0088 28.2512 64.9739 29.0087 63.7683 29.3501 C 63.2669 29.4888 62.7441 29.5315 61.6239 29.5315 L 61.4958 29.5315 C 60.9837 29.5315 60.6957 29.5742 60.5356 29.6168 C 60.5356 29.6275 60.5356 29.6382 60.5356 29.6382 C 60.5036 30.1076 60.557 30.6944 60.685 31.3665 C 60.845 32.1987 61.1224 33.2336 61.4958 34.4605 L 62.6161 38.1413 C 63.2775 40.2965 62.8188 41.8648 62.3173 42.8037 C 61.6132 44.1373 60.4503 45.0868 58.9566 45.5456 C 58.3698 45.7376 57.783 45.823 57.1962 45.823 L 57.1962 45.823 Z " stroke-width="1.0668950080871582"/>
    <path id="ID0.9998829746618867" d="M 58.4338 35.3887 C 58.8819 36.8611 59.106 37.6079 59.5541 39.0802 C 59.8315 39.9764 59.8101 40.7125 59.4901 41.2993 C 59.1807 41.8861 58.6792 42.2809 57.9964 42.5049 C 57.3243 42.7183 56.6948 42.665 56.108 42.3556 C 55.5212 42.0462 55.0945 41.4487 54.8064 40.5738 C 53.2274 35.6768 52.4379 33.2229 50.8589 28.3259 C 50.2187 26.3521 50.7095 25.1039 52.3312 24.5918 C 53.1634 24.3357 53.8355 24.3784 54.337 24.7305 C 54.8384 25.0825 55.5639 26.6082 55.5639 26.6082 C 55.6172 26.6082 56.2894 24.6558 56.7802 23.9943 C 57.2709 23.3435 58.0391 22.8634 59.0953 22.554 C 60.1515 22.2446 61.2398 22.1912 62.36 22.3833 C 63.4803 22.5753 64.1417 23.0554 64.3551 23.8343 C 64.5045 24.3784 64.4191 24.8905 64.0991 25.3493 C 63.779 25.808 63.3736 26.1174 62.8935 26.2561 C 62.7121 26.3095 62.2427 26.3201 61.4958 26.3201 C 60.7383 26.3201 60.0982 26.3948 59.5647 26.5442 C 58.8393 26.7576 58.2951 27.099 57.9431 27.5791 C 57.591 28.0592 57.3883 28.6673 57.3349 29.4141 C 57.2816 30.161 57.3563 31.0145 57.5376 31.964 C 57.7297 32.9135 58.0284 34.0551 58.4338 35.3887 Z " stroke-width="1.0668950080871582" />
    <path id="ID0.08152084611356258" fill="#FFFFFF" d="M 73.3277 41.0966 C 72.6556 41.0966 71.9834 41.0326 71.3433 40.8939 C 69.7429 40.5632 68.356 39.8804 67.2144 38.8561 C 66.0408 37.7999 65.2406 36.4983 64.8352 34.994 C 64.3018 33.0096 64.5258 31.0145 65.5074 29.2328 C 64.5045 28.5819 63.8003 27.6217 63.4909 26.4375 C 63.0855 24.9225 63.2669 23.2901 64.003 21.7111 C 64.6858 20.2708 65.8701 18.9692 67.5558 17.8276 C 69.0921 16.7821 71.0659 15.9712 73.413 15.4165 C 75.2588 14.979 76.9125 14.7657 78.3421 14.7657 C 78.9182 14.7657 79.4837 14.7977 79.9958 14.8723 C 82.1616 15.1711 83.9753 16.142 85.2129 17.6783 C 86.2798 19.0012 87.0266 20.7189 87.4854 22.9274 C 87.7094 23.9943 87.8908 24.9118 88.0402 25.6587 L 88.5203 28.1339 C 88.6163 28.6246 88.8297 29.1581 89.1604 29.7342 C 89.8859 31.0038 90.1953 31.7186 90.334 32.3694 C 90.6221 33.7671 90.238 35.2074 89.2564 36.4236 C 88.4029 37.4692 87.272 38.1733 85.9704 38.4507 C 85.6397 38.5254 85.2876 38.5574 84.9462 38.5574 C 83.986 38.5574 83.0364 38.2907 82.1082 37.7466 C 82.0442 37.7146 81.9909 37.6719 81.9269 37.6399 C 81.5108 38.0453 81.084 38.4294 80.6466 38.7281 C 79.3557 39.6136 77.83 40.2858 76.123 40.7019 C 75.1841 40.9686 74.2346 41.0966 73.3277 41.0966 L 73.3277 41.0966 Z " stroke-width="1.0668950080871582"/>
    <path id="ID0.1707568452693522" d="M 81.7775 33.447 C 81.3721 33.4577 79.8251 35.4421 78.8435 36.1249 C 77.862 36.797 76.7098 37.2985 75.3761 37.6292 C 74.1599 37.9279 73.029 37.9813 71.9834 37.7679 C 70.9378 37.5545 70.0737 37.1278 69.3588 36.4876 C 68.6547 35.8475 68.1746 35.0793 67.9292 34.1725 C 67.5985 32.9562 67.7372 31.804 68.356 30.7157 C 68.9748 29.6275 69.999 28.7526 71.4073 28.0698 C 71.706 27.9311 72.4422 27.5791 73.6264 27.0456 C 74.8107 26.5122 75.8242 26.0427 76.6671 25.648 C 77.5099 25.2532 79.2596 24.6238 79.409 24.2824 C 79.5904 23.8663 78.6195 22.2979 78.022 21.8392 C 77.4246 21.3804 76.379 21.3377 74.9067 21.6791 C 73.6371 21.9779 72.7089 22.3726 72.1541 22.8527 C 71.5993 23.3328 71.1619 23.941 70.8632 24.6878 C 70.5644 25.4346 70.3511 25.936 70.223 26.1814 C 70.0843 26.4268 69.7109 26.6295 69.0921 26.7896 C 68.5373 26.9283 68.0146 26.8963 67.5238 26.6829 C 67.033 26.4695 66.7236 26.1067 66.5849 25.6053 C 66.3715 24.8158 66.4782 23.973 66.905 23.0661 C 67.3317 22.1592 68.1533 21.2951 69.3588 20.4735 C 70.5644 19.652 72.1648 19.0012 74.1599 18.5318 C 76.3897 18.009 78.1927 17.849 79.569 18.041 C 80.9453 18.2331 82.0016 18.7878 82.7377 19.6947 C 83.4739 20.6016 84.0073 21.8925 84.3594 23.5782 C 84.5834 24.6451 84.7648 25.5413 84.9142 26.2881 C 85.0635 27.0349 85.2129 27.8671 85.3943 28.7633 C 85.565 29.6062 85.9064 30.4704 86.3972 31.3345 C 86.8879 32.1987 87.1547 32.7642 87.2187 33.0202 C 87.3147 33.4897 87.1653 33.9591 86.7812 34.4285 C 86.3972 34.9086 85.9171 35.2074 85.3303 35.3247 C 84.8395 35.4314 84.306 35.3141 83.7299 34.9833 C 83.1538 34.6739 81.9909 33.4363 81.7775 33.447 Z M 80.0065 26.9923 C 79.3343 27.3977 78.3528 27.8885 77.0405 28.4753 C 75.7282 29.062 74.832 29.4995 74.3412 29.7449 C 73.8505 30.0009 73.413 30.3743 73.029 30.8544 C 72.6449 31.3452 72.5382 31.9107 72.6982 32.5721 C 72.8689 33.2549 73.2957 33.7564 73.9678 34.0978 C 74.64 34.4392 75.4188 34.4925 76.315 34.2792 C 77.2645 34.0444 78.0967 33.6497 78.8115 33.0736 C 79.5264 32.4975 80.0065 31.8466 80.2518 31.1532 C 80.5292 30.3743 80.5079 29.2007 80.1558 27.6431 C 80.0918 27.3764 80.0598 27.2483 80.0065 26.9923 Z " stroke-width="1.0668950080871582" />
    <path id="ID0.8114492823369801" fill="#FFFFFF" d="M 94.9857 36.5303 C 93.9081 36.5303 92.9372 36.3596 92.0837 36.0395 C 90.4834 35.4207 89.2351 34.2898 88.4776 32.7962 C 87.9335 31.7186 87.5174 30.3637 87.1867 28.646 L 86.0451 22.618 C 85.597 22.522 85.1702 22.3619 84.7648 22.1592 C 83.4632 21.4764 82.599 20.3135 82.3109 18.8945 C 82.0229 17.4222 82.4176 15.9926 83.4312 14.851 C 83.7193 14.5309 84.0393 14.2535 84.4021 14.0082 L 84.3914 13.9441 C 84.2314 13.08 84.1247 12.4078 84.082 11.8744 C 84.0073 10.9355 84.146 10.05 84.4981 9.2285 C 84.8715 8.3643 85.4476 7.6175 86.2265 7.02 C 86.9733 6.4439 87.8481 6.0598 88.8297 5.8891 C 89.1924 5.8251 89.5552 5.7931 89.9072 5.7931 C 90.9421 5.7931 91.9343 6.0598 92.8732 6.5826 C 93.8974 7.1587 94.6763 8.0229 95.1244 9.0791 C 95.3911 9.7192 95.6045 10.5194 95.7752 11.5223 L 95.7858 11.597 C 96.7354 11.6076 97.5889 11.8317 98.3464 12.2585 C 99.6267 12.9839 100.4482 14.1789 100.6829 15.6192 C 100.9709 17.4649 100.2348 19.1826 98.6878 20.2068 C 98.3037 20.4629 97.8769 20.6763 97.3862 20.8683 L 98.2397 25.8507 C 98.5384 25.7653 98.8051 25.7013 99.0612 25.6587 C 99.3066 25.616 99.552 25.6053 99.7974 25.6053 C 100.7469 25.6053 101.6858 25.904 102.5073 26.4588 C 103.5955 27.2057 104.3103 28.3366 104.5024 29.6382 C 104.8118 31.6226 103.9262 33.4577 102.1019 34.6739 C 100.9389 35.4421 99.3706 35.9969 97.3115 36.3489 C 96.4793 36.4556 95.7112 36.5303 94.9857 36.5303 L 94.9857 36.5303 Z " stroke-width="1.0668950080871582"/>
    <path id="ID0.38198215141892433" d="M 87.5067 16.1526 C 87.7308 16.1099 87.8375 16.0886 88.0615 16.0459 C 87.8588 14.9577 87.7521 14.4136 87.5494 13.3147 C 87.4107 12.5785 87.3254 12.0024 87.2933 11.5756 C 87.2613 11.1489 87.3147 10.7648 87.4641 10.4341 C 87.6134 10.0927 87.8481 9.7833 88.2002 9.5165 C 88.5416 9.2498 88.9577 9.0791 89.4271 8.9938 C 90.0779 8.8764 90.7181 8.9938 91.3262 9.3352 C 91.7316 9.5592 92.0197 9.8686 92.1904 10.274 C 92.3611 10.6794 92.5105 11.2556 92.6385 12.0237 C 92.8519 13.2613 92.9586 13.8908 93.1719 15.1284 C 93.9188 15.0004 94.2922 14.9364 95.039 14.8083 C 95.7645 14.691 96.3406 14.755 96.7674 15.0004 C 97.1941 15.2458 97.4502 15.6085 97.5249 16.0886 C 97.6209 16.7074 97.4182 17.1768 96.9167 17.5076 C 96.4153 17.8383 95.6685 18.0837 94.6656 18.2544 C 94.2922 18.3184 94.1001 18.3504 93.7161 18.4144 C 94.2922 21.7645 94.5802 23.4395 95.1564 26.7896 C 95.2844 27.5044 95.4018 28.0485 95.5191 28.4219 C 95.6365 28.7953 95.8392 29.0834 96.1059 29.2861 C 96.3833 29.4888 96.778 29.5422 97.3008 29.4461 C 97.5889 29.4035 97.9623 29.2861 98.4317 29.1154 C 98.9012 28.9447 99.2746 28.8273 99.552 28.7847 C 99.9467 28.7206 100.3201 28.8167 100.6829 29.062 C 101.0456 29.3074 101.259 29.6488 101.323 30.0863 C 101.4404 30.8224 101.099 31.4519 100.3095 31.9747 C 99.52 32.4975 98.3357 32.8815 96.746 33.1589 C 95.2417 33.415 94.0575 33.383 93.2039 33.0522 C 92.3398 32.7215 91.7103 32.1454 91.3049 31.3559 C 90.8995 30.5557 90.5687 29.4568 90.302 28.0485 C 89.6405 24.5598 89.3098 22.8207 88.6483 19.332 C 88.3816 19.3853 88.2536 19.4066 87.9868 19.46 C 87.2613 19.5987 86.6746 19.556 86.2371 19.3213 C 85.789 19.0866 85.5223 18.7345 85.4263 18.2544 C 85.3303 17.7743 85.4583 17.3475 85.7997 16.9635 C 86.1411 16.5794 86.7386 16.302 87.5067 16.1526 Z " stroke-width="1.0668950080871582" />
    <path id="ID0.06641522375866771" fill="#FFFFFF" d="M 110.2849 34.2258 C 107.3937 34.2258 104.8758 33.4577 102.806 31.932 C 100.1601 30.0009 98.5491 27.1843 98.005 23.5782 C 97.6422 21.1564 97.8556 18.8732 98.6344 16.8141 C 99.456 14.6376 100.8749 12.8452 102.8273 11.4796 C 104.7051 10.178 106.9989 9.3565 109.6555 9.0471 C 110.3063 8.9724 110.9571 8.9297 111.5865 8.9297 C 112.5468 8.9297 113.4856 9.0258 114.3818 9.1965 C 115.8541 9.4952 117.1771 9.9753 118.308 10.6261 C 119.4709 11.2982 120.4311 12.1091 121.1459 13.0159 C 121.9994 14.0935 122.4795 15.2351 122.5862 16.398 C 122.7143 17.817 122.2448 19.1826 121.2633 20.2495 C 121.4233 20.3669 121.5834 20.4949 121.7434 20.6336 C 123.0663 21.8178 123.4398 23.1515 123.5251 24.0583 C 123.6211 25.1786 123.4077 26.3521 122.8743 27.5364 C 122.4049 28.5926 121.658 29.6062 120.6765 30.545 C 119.727 31.4519 118.5214 32.2414 117.0811 32.8709 C 115.7048 33.479 114.1364 33.8844 112.4294 34.0871 C 111.6826 34.1831 110.9677 34.2258 110.2849 34.2258 L 110.2849 34.2258 Z M 111.1491 18.9372 C 111.0211 18.9372 110.8931 18.9479 110.7544 18.9586 C 110.1036 19.0332 109.8368 19.2573 109.6235 19.5774 C 109.2927 20.0788 109.1967 20.8576 109.3354 21.9032 C 109.4101 22.4366 109.5381 22.8954 109.7195 23.2901 C 109.8582 23.5889 110.0289 23.8343 110.2103 24.005 C 110.349 24.133 110.4876 24.2077 110.6584 24.261 C 110.8184 24.3037 110.9784 24.325 111.1598 24.325 C 111.2558 24.325 111.3518 24.3144 111.4479 24.3037 C 111.8319 24.261 112.1307 24.165 112.3227 24.0156 C 112.5894 23.8129 112.8348 23.4715 113.0375 23.0448 C 113.3789 22.3193 113.7523 21.7111 114.1898 21.2097 C 113.7203 20.8896 113.2722 20.4949 112.8241 20.0148 C 112.184 19.332 111.7999 19.0866 111.6186 19.0012 C 111.5865 18.9799 111.4479 18.9372 111.1491 18.9372 L 111.1491 18.9372 Z " stroke-width="1.0668950080871582"/>
    <path id="ID0.16088852612301707" d="M 120.3351 24.3464 C 120.3884 24.9225 120.2604 25.552 119.951 26.2348 C 119.6416 26.9176 119.1402 27.5897 118.4574 28.2512 C 117.7639 28.9127 116.8783 29.4781 115.7901 29.9582 C 114.7019 30.4383 113.4536 30.7584 112.056 30.9184 C 109.0687 31.2705 106.6362 30.7584 104.7051 29.3501 C 102.7847 27.9418 101.5897 25.872 101.1737 23.0981 C 100.8963 21.2204 101.035 19.5027 101.6324 17.945 C 102.2299 16.3873 103.2328 15.1071 104.6624 14.1042 C 106.092 13.112 107.8844 12.4718 110.0396 12.2264 C 111.3732 12.0664 112.6108 12.1091 113.763 12.3438 C 114.9153 12.5785 115.8968 12.9306 116.7183 13.4107 C 117.5398 13.8908 118.18 14.4242 118.6387 15.011 C 119.0975 15.5978 119.3535 16.1633 119.3962 16.6967 C 119.4496 17.2515 119.2575 17.7316 118.8414 18.1584 C 118.4253 18.5851 117.9026 18.8199 117.2624 18.8839 C 116.8463 18.9265 116.4836 18.8625 116.1955 18.6918 C 115.8968 18.5211 115.5447 18.2331 115.1713 17.8276 C 114.4672 17.0701 113.7523 16.4727 113.0269 16.1206 C 112.3014 15.7685 111.4158 15.6512 110.3703 15.7685 C 108.866 15.9499 107.7244 16.6221 106.9456 17.8063 C 106.1667 18.9799 105.9107 20.4949 106.1561 22.3193 C 106.2734 23.1835 106.4975 23.9516 106.8175 24.6451 C 107.1376 25.3386 107.5537 25.904 108.0551 26.3628 C 108.5566 26.8216 109.122 27.131 109.7622 27.323 C 110.4023 27.5151 111.0958 27.5684 111.8213 27.483 C 112.8028 27.3657 113.6136 27.0563 114.2751 26.5548 C 114.9259 26.0534 115.5021 25.3386 115.9395 24.4104 C 116.1955 23.8769 116.4729 23.4288 116.793 23.0981 C 117.1131 22.7674 117.5292 22.586 118.0413 22.5327 C 118.6494 22.4793 119.1722 22.65 119.6096 23.0341 C 120.047 23.4288 120.2924 23.8663 120.3351 24.3464 Z " stroke-width="1.0668950080871582" />
    <path id="ID0.1275525288656354" fill="#FFFFFF" d="M 126.1817 32.8175 C 123.7065 32.8175 120.9539 31.3452 120.6338 27.227 L 119.0975 7.244 C 118.9268 5.0036 119.695 3.5846 120.3671 2.7844 C 121.0499 1.9736 122.3195 0.96 124.464 0.8107 C 124.6347 0.8 124.8054 0.8 124.9654 0.8 C 126.4591 0.8 127.7927 1.2801 128.8169 2.1976 C 129.6064 2.9018 130.5773 4.2141 130.716 6.4439 L 130.7907 7.7241 C 130.8013 7.7241 130.812 7.7241 130.812 7.7135 C 131.8149 7.4041 132.9138 7.212 134.066 7.1694 C 134.2474 7.1587 134.4181 7.1587 134.5888 7.1587 C 136.1998 7.1587 137.6935 7.4681 139.0271 8.0762 C 140.5741 8.7804 141.8437 9.8686 142.8039 11.3303 C 143.412 12.2478 143.8281 13.2507 144.0415 14.2962 C 144.2122 15.1711 144.3082 16.1313 144.3296 17.2302 L 144.4896 26.0747 C 144.5216 27.8351 144.0308 29.2861 143.0386 30.3957 C 142.0144 31.5372 140.6061 32.156 138.9951 32.1987 L 138.803 32.1987 C 135.5277 32.1987 133.3299 29.9156 133.2125 26.3735 L 132.9458 18.5745 C 132.9244 17.9023 132.8391 17.4649 132.7644 17.1982 L 132.6257 17.1982 C 132.263 17.2195 132.0603 17.3262 131.9216 17.4222 C 131.7402 17.5503 131.6122 17.7103 131.5482 17.8917 C 131.5482 17.9023 131.4201 18.4571 131.5375 20.3242 L 131.9109 26.4268 C 132.0176 28.1445 131.6015 29.5955 130.6946 30.7477 C 130.0118 31.6013 128.7636 32.6361 126.6511 32.7855 C 126.5017 32.8175 126.3417 32.8175 126.1817 32.8175 L 126.1817 32.8175 Z " stroke-width="1.0668950080871582"/>
    <path id="ID0.5844901078380644" d="M 127.526 6.6466 C 127.6967 9.3885 127.7713 10.7541 127.942 13.4854 C 128.5502 12.7706 129.1583 12.1944 129.7558 11.7677 C 130.3532 11.3409 131.036 11.0102 131.7829 10.7755 C 132.5297 10.5408 133.3405 10.4127 134.2154 10.37 C 135.5277 10.3167 136.7013 10.5301 137.7255 10.9888 C 138.7497 11.4476 139.5605 12.1838 140.158 13.0906 C 140.5207 13.6347 140.7875 14.2429 140.9262 14.9257 C 141.0649 15.6085 141.1395 16.3873 141.1502 17.2835 C 141.2142 20.8256 141.2462 22.5967 141.3102 26.1281 C 141.3316 27.0563 141.1182 27.7604 140.6808 28.2405 C 140.2433 28.7206 139.6566 28.9767 138.9204 28.998 C 137.3201 29.0407 136.4879 28.1339 136.4132 26.2668 C 136.3065 23.1515 136.2532 21.5831 136.1465 18.4678 C 136.0931 16.9955 135.8157 15.8646 135.3036 15.0857 C 134.7915 14.3069 133.8526 13.9441 132.487 14.0082 C 131.5802 14.0508 130.7693 14.3282 130.0652 14.8297 C 129.361 15.3418 128.8276 16.0246 128.5395 16.8354 C 128.2941 17.5182 128.2514 18.7665 128.3581 20.5269 C 128.5075 22.9701 128.5822 24.1863 128.7316 26.6295 C 128.7849 27.5471 128.6142 28.2512 128.2088 28.7526 C 127.8034 29.2541 127.2166 29.5315 126.4484 29.5848 C 124.8481 29.6915 123.9732 28.8273 123.8345 26.9603 C 123.2157 18.9692 122.9063 14.9684 122.2982 6.9773 C 122.2235 6.0491 122.4049 5.3236 122.821 4.8222 C 123.237 4.3208 123.8665 4.0434 124.688 3.9793 C 125.5202 3.926 126.1923 4.118 126.6938 4.5555 C 127.1952 5.0356 127.4726 5.7184 127.526 6.6466 Z " stroke-width="1.0668950080871582" />
    <path id="ID0.7205672860145569" fill="#FFFFFF" d="M 160.8238 32.4334 C 159.2127 32.3588 157.8258 31.6973 156.8122 30.5237 C 156.1401 29.7449 155.3613 28.3579 155.4466 26.2028 L 155.7453 18.5105 C 155.7773 17.785 155.724 17.3155 155.6707 17.0168 C 155.628 17.0168 155.532 17.0061 155.532 17.0061 C 155.2226 17.0061 155.0305 17.0595 154.8278 17.1875 C 154.6251 17.3155 154.4971 17.4649 154.4224 17.6569 C 154.4224 17.6676 154.2517 18.2544 154.2303 20.3669 L 154.1557 26.1494 C 154.1237 28.3899 153.2381 29.7342 152.502 30.4704 C 151.4351 31.5372 150.0481 32.092 148.4798 32.092 C 146.8474 32.0814 145.4498 31.4839 144.3936 30.3423 C 143.6894 29.5848 142.8572 28.2405 142.8466 26.0854 L 142.8039 12.7279 C 142.7932 10.5514 143.6467 9.2285 144.3616 8.503 C 145.0764 7.7775 146.3673 6.9026 148.3838 6.9026 C 149.3973 6.9026 150.3042 7.1374 151.1363 7.5748 C 151.4671 7.7562 151.7765 7.9695 152.0645 8.2149 C 152.2139 8.1402 152.3633 8.0656 152.5233 8.0015 C 153.9209 7.3827 155.4893 7.0733 157.175 7.0733 C 157.335 7.0733 157.495 7.0733 157.6551 7.084 C 159.5328 7.148 161.2292 7.5961 162.7122 8.4176 C 164.2698 9.2818 165.5074 10.5728 166.3076 12.1518 C 166.7984 13.1226 167.0864 14.1255 167.1931 15.1391 C 167.2785 15.9712 167.2785 16.9528 167.2145 18.137 L 166.7344 26.7255 C 166.6383 28.4753 166.0409 29.8942 164.9633 30.9184 C 163.9284 31.9 162.6055 32.4228 161.1332 32.4228 C 161.1225 32.4441 160.9198 32.4441 160.8238 32.4334 Z " stroke-width="1.0668950080871582"/>
    <path id="ID0.6400938141159713" d="M 150.8056 12.6959 C 150.8056 12.9199 150.8056 13.0266 150.8056 13.2507 C 151.7231 12.1944 152.726 11.4156 153.8143 10.9462 C 154.9025 10.4661 156.1508 10.2527 157.5484 10.2954 C 158.914 10.338 160.1196 10.6474 161.1652 11.2342 C 162.2107 11.821 162.9575 12.6425 163.4483 13.6027 C 163.7364 14.1789 163.9391 14.8083 164.0031 15.4591 C 164.0671 16.1206 164.0671 16.9528 164.0138 17.9663 C 163.8217 21.4017 163.7257 23.1194 163.5337 26.5548 C 163.4803 27.483 163.2136 28.1659 162.7442 28.614 C 162.2747 29.062 161.6879 29.2648 160.9731 29.2328 C 160.2476 29.2007 159.6715 28.934 159.2447 28.4326 C 158.8073 27.9311 158.6153 27.227 158.6473 26.3201 C 158.7646 23.2475 158.8287 21.7005 158.946 18.6278 C 158.9994 17.1022 158.818 15.9286 158.3806 15.1071 C 157.9431 14.2856 157.0256 13.8481 155.628 13.8055 C 154.7211 13.7841 153.8783 14.0082 153.1208 14.4776 C 152.3633 14.9577 151.7872 15.6298 151.4457 16.4727 C 151.179 17.1448 151.051 18.4464 151.0297 20.3242 C 150.9977 22.6393 150.987 23.7916 150.955 26.1067 C 150.9443 27.0456 150.6989 27.7498 150.2402 28.2085 C 149.7707 28.6673 149.1839 28.902 148.4584 28.8913 C 147.7543 28.8913 147.1782 28.646 146.7301 28.1659 C 146.282 27.6751 146.0473 26.9816 146.0473 26.0854 C 146.0366 20.7403 146.0259 18.073 146.0046 12.7279 C 146.0046 11.853 146.218 11.1916 146.6447 10.7541 C 147.0715 10.3167 147.6583 10.1033 148.4051 10.1033 C 148.8639 10.1033 149.2693 10.1993 149.632 10.4021 C 149.9948 10.6048 150.2828 10.8928 150.5069 11.2769 C 150.7309 11.661 150.8163 12.1518 150.8056 12.6959 Z " stroke-width="1.0668950080871582" />
    <path id="ID0.7966215838678181" fill="#FFFFFF" d="M 183.8153 34.3859 C 183.5806 34.3859 183.3352 34.3752 183.1005 34.3432 C 182.2043 34.2365 180.8814 33.8097 179.6758 32.4228 C 179.6331 32.3694 179.5904 32.3267 179.5478 32.2734 C 179.0357 32.5188 178.5129 32.7322 178.0114 32.8815 C 176.9019 33.1909 175.7283 33.351 174.5013 33.351 C 174.0533 33.351 173.5838 33.3296 173.1144 33.287 C 171.3967 33.1376 169.8497 32.6575 168.5374 31.868 C 167.1398 31.0358 166.0515 29.9369 165.3154 28.5926 C 164.5579 27.2163 164.2271 25.7227 164.3338 24.1757 C 164.4725 22.1272 165.3367 20.3135 166.8304 18.9479 C 166.0942 18.009 165.7421 16.8674 165.8382 15.6512 C 165.9448 14.0935 166.649 12.6105 167.8546 11.3623 C 168.9642 10.2207 170.5005 9.3778 172.4529 8.8444 C 173.6585 8.5137 175.0135 8.3536 176.4858 8.3536 C 177.2113 8.3536 177.9794 8.3963 178.7583 8.471 C 181.4255 8.7377 183.5166 9.2711 185.149 10.0927 C 187.0907 11.0849 188.4777 12.5892 189.1498 14.4456 C 189.7259 16.0459 189.8753 17.913 189.5872 20.1428 C 189.4485 21.231 189.3312 22.1486 189.2245 22.9061 L 188.8724 25.4026 C 188.8084 25.8934 188.8297 26.4802 188.9578 27.131 C 189.2672 28.7526 189.2778 29.4568 189.2032 30.0009 C 189.0218 31.4199 188.1896 32.6575 186.8667 33.4897 C 185.9171 34.0871 184.8929 34.3859 183.8153 34.3859 L 183.8153 34.3859 Z " stroke-width="1.0668950080871582"/>
    <path id="ID0.6032987898215652" d="M 180.764 28.2192 C 180.3799 28.1018 178.2782 29.4781 177.1366 29.7982 C 175.995 30.1183 174.7467 30.2143 173.3811 30.0969 C 172.1328 29.9902 171.0659 29.6595 170.1591 29.1261 C 169.2522 28.5926 168.5694 27.8991 168.1106 27.067 C 167.6519 26.2348 167.4492 25.3493 167.5132 24.4104 C 167.5985 23.1515 168.1 22.1059 169.0282 21.2844 C 169.9564 20.4522 171.2046 19.9614 172.741 19.7694 C 173.061 19.7267 173.8719 19.6414 175.1522 19.524 C 176.4324 19.4066 177.542 19.3 178.4702 19.1933 C 179.3984 19.0866 181.2441 19.0652 181.4895 18.7985 C 181.7989 18.4678 181.3935 16.6647 180.9774 16.0459 C 180.5613 15.4271 179.6011 15.0324 178.0968 14.883 C 176.8058 14.755 175.8136 14.8297 175.1308 15.0964 C 174.448 15.3631 173.8399 15.8005 173.3278 16.4087 C 172.8157 17.0168 172.4422 17.4329 172.2395 17.6143 C 172.0368 17.7956 171.6101 17.8703 170.9806 17.8276 C 170.4151 17.785 169.935 17.5823 169.551 17.2195 C 169.1562 16.8568 168.9855 16.4193 169.0175 15.8966 C 169.0709 15.0857 169.4443 14.3176 170.1377 13.6027 C 170.8312 12.8879 171.8768 12.3331 173.2744 11.9491 C 174.6721 11.565 176.3898 11.469 178.4169 11.6717 C 180.6787 11.8957 182.439 12.3438 183.6766 12.9626 C 184.9142 13.5921 185.7251 14.4563 186.1198 15.5552 C 186.5146 16.6541 186.6106 18.0517 186.3866 19.7481 C 186.2479 20.8256 186.1305 21.7325 186.0238 22.4793 C 185.9171 23.2261 185.7998 24.069 185.6717 24.9758 C 185.5544 25.8294 185.5971 26.7576 185.7784 27.7284 C 185.9598 28.6993 186.0345 29.3181 185.9918 29.5955 C 185.9278 30.0649 185.6397 30.4597 185.117 30.7904 C 184.6048 31.1105 184.0501 31.2385 183.4633 31.1638 C 182.9618 31.0998 182.5031 30.8224 182.0656 30.321 C 181.6602 29.8195 180.9667 28.2725 180.764 28.2192 Z M 181.1908 21.5298 C 180.4333 21.7005 179.3344 21.8392 177.9154 21.9779 C 176.4964 22.1166 175.5149 22.2233 174.9708 22.2979 C 174.4267 22.3833 173.8932 22.586 173.3704 22.9167 C 172.8477 23.2475 172.5703 23.7596 172.5063 24.4317 C 172.4529 25.1252 172.677 25.744 173.1997 26.2775 C 173.7225 26.8216 174.4373 27.1203 175.3442 27.2163 C 176.3151 27.3123 177.2219 27.195 178.0861 26.8856 C 178.9503 26.5762 179.6011 26.1174 180.0599 25.5413 C 180.572 24.9012 180.9347 23.7702 181.1161 22.1806 C 181.1481 21.9245 181.1588 21.7965 181.1908 21.5298 Z " stroke-width="1.0668950080871582" />
    <path id="ID0.7398024634458125" fill="#FFFFFF" d="M 190.8889 42.2809 C 190.5901 42.2809 190.2807 42.2595 189.9607 42.2062 C 187.1974 41.7901 186.1625 40.1044 185.7998 39.1335 C 185.3837 38.056 185.2983 36.765 185.5224 35.2074 L 188.3603 15.4698 C 188.6697 13.304 189.7046 12.1198 190.5261 11.5116 C 191.4543 10.8181 192.5852 10.4447 193.8015 10.4447 C 194.1215 10.4447 194.4416 10.4661 194.7724 10.5194 C 196.202 10.7328 197.4076 11.3836 198.2824 12.3971 C 198.4318 12.3438 198.5918 12.3011 198.7412 12.2585 C 199.6694 11.9917 200.6509 11.8637 201.6538 11.8637 C 202.3686 11.8637 203.1048 11.9277 203.841 12.0664 C 205.9534 12.4505 207.8418 13.3147 209.4422 14.6483 C 211.0958 16.0246 212.2694 17.8063 212.9202 19.9508 C 213.539 21.9885 213.603 24.2504 213.0909 26.6829 C 212.7282 28.4219 212.0987 30.0223 211.2452 31.4092 C 210.3597 32.8389 209.2928 34.0124 208.0552 34.9086 C 206.8069 35.8048 205.42 36.4236 203.9156 36.7544 C 203.1155 36.9251 202.294 37.0211 201.4831 37.0211 C 200.779 37.0211 200.0642 36.9571 199.3493 36.829 C 198.3038 36.637 197.3542 36.3489 196.5007 35.9542 L 196.3514 36.9037 C 195.5405 41.8861 191.9664 42.2809 190.8889 42.2809 L 190.8889 42.2809 Z M 200.4696 21.4764 C 200.1282 21.4764 199.8508 21.5724 199.5307 21.8072 C 199.1253 22.1059 198.8159 22.8527 198.6452 23.8876 C 198.4851 24.8798 198.5598 25.6266 198.8692 26.0961 C 199.136 26.5122 199.424 26.7042 199.9041 26.7896 C 199.9681 26.8002 200.0428 26.8109 200.1068 26.8109 C 200.2455 26.8109 200.3736 26.7789 200.5122 26.7255 C 200.7256 26.6402 200.9497 26.4375 201.1737 26.1388 C 201.4725 25.7333 201.6965 25.1359 201.8459 24.3784 C 201.9846 23.6422 201.9952 23.0448 201.8779 22.5753 C 201.7605 22.1272 201.6005 21.9352 201.4831 21.8285 C 201.3018 21.6578 201.1097 21.5618 200.843 21.5191 C 200.715 21.4871 200.5869 21.4764 200.4696 21.4764 L 200.4696 21.4764 Z " stroke-width="1.0668950080871582"/>
    <path id="ID0.21997992508113384" d="M 196.33 16.6221 C 196.298 16.8461 196.2767 16.9528 196.2447 17.1768 C 197.3649 16.27 198.4958 15.6512 199.6054 15.3311 C 200.7256 15.011 201.9419 14.9684 203.2542 15.2031 C 204.8225 15.4911 206.2095 16.1206 207.3831 17.1022 C 208.5566 18.0837 209.3781 19.3426 209.8476 20.879 C 210.317 22.4153 210.3384 24.1223 209.9436 26.0107 C 209.6555 27.3977 209.1754 28.6353 208.5033 29.7129 C 207.8418 30.7904 207.063 31.6546 206.1668 32.2947 C 205.2706 32.9349 204.2891 33.3723 203.2222 33.607 C 202.1446 33.8417 201.0457 33.8631 199.9041 33.6497 C 198.5278 33.4043 197.4183 32.9349 196.5754 32.2627 C 195.7326 31.5799 194.9644 30.6731 194.2602 29.5208 C 193.8228 32.2627 193.6094 33.6284 193.172 36.3703 C 192.8519 38.376 191.9344 39.2616 190.4301 39.0268 C 189.5446 38.8882 189.0005 38.5467 188.7871 37.9813 C 188.5737 37.4158 188.5417 36.6477 188.6804 35.6555 C 189.8113 27.7604 190.3767 23.8129 191.5183 15.9179 C 191.6464 15.043 191.9451 14.4242 192.4359 14.0615 C 192.9266 13.6988 193.5348 13.5707 194.2816 13.6774 C 195.0071 13.7841 195.5619 14.0935 195.9459 14.6163 C 196.33 15.1391 196.458 15.8005 196.33 16.6221 Z M 204.9932 24.9758 C 205.2279 23.7809 205.2279 22.714 204.9825 21.7752 C 204.7372 20.8363 204.3104 20.0681 203.6703 19.4813 C 203.0408 18.8839 202.2833 18.5105 201.3978 18.3611 C 200.0001 18.1157 198.7412 18.4144 197.621 19.2466 C 196.5007 20.0788 195.7966 21.4658 195.4872 23.3862 C 195.1991 25.1999 195.4338 26.6935 196.1913 27.8458 C 196.9488 29.0087 197.9944 29.7022 199.3493 29.9369 C 200.1602 30.0756 200.9497 30.0009 201.7178 29.6808 C 202.486 29.3608 203.1688 28.8167 203.7556 28.0272 C 204.3424 27.2377 204.7585 26.2134 204.9932 24.9758 Z " stroke-width="1.0668950080871582" />
    <path id="ID0.932053663302213" fill="#FFFFFF" d="M 213.0589 46.5165 C 212.6215 46.5165 212.1627 46.4631 211.704 46.3564 C 208.9727 45.7269 208.0765 43.9666 207.7885 42.9744 C 207.4577 41.8648 207.4684 40.5738 207.8098 39.0375 L 212.1521 19.5774 C 212.6322 17.4436 213.7524 16.3447 214.6166 15.7899 C 215.4701 15.2458 216.4623 14.9577 217.5079 14.9577 C 217.9667 14.9577 218.4468 15.011 218.9269 15.1284 C 220.3352 15.4485 221.4981 16.1953 222.2982 17.2835 C 222.4583 17.2409 222.6183 17.2088 222.7783 17.1768 C 223.4505 17.0381 224.144 16.9741 224.8375 16.9741 C 225.8297 16.9741 226.8432 17.1128 227.8781 17.3795 C 229.9692 17.9237 231.7829 18.9372 233.2766 20.3882 C 234.8236 21.8925 235.8691 23.7596 236.3599 25.9467 C 236.8294 28.0272 236.712 30.2996 236.0185 32.6788 C 235.5171 34.3859 234.7702 35.9222 233.81 37.2451 C 232.8178 38.6001 231.6549 39.6883 230.3533 40.4778 C 229.041 41.278 227.6007 41.7901 226.0751 41.9928 C 225.5629 42.0675 225.0402 42.0995 224.5281 42.0995 C 223.5252 42.0995 222.5116 41.9608 221.5087 41.7048 C 220.4739 41.438 219.5457 41.0646 218.7135 40.6059 L 218.4894 41.5447 C 217.4012 46.0363 214.3285 46.5165 213.0589 46.5165 L 213.0589 46.5165 Z M 223.6745 26.4908 C 223.3865 26.4908 223.1304 26.5762 222.8317 26.7576 C 222.4049 27.0243 222.0315 27.7391 221.7861 28.7633 C 221.5514 29.7342 221.5728 30.481 221.8395 30.9825 C 222.0849 31.4199 222.3516 31.6333 222.8317 31.7613 C 222.9277 31.7826 223.0237 31.804 223.1091 31.804 L 223.1091 31.804 C 223.2158 31.804 223.3331 31.7826 223.4612 31.7506 C 223.6745 31.6866 223.9093 31.5052 224.1653 31.2172 C 224.496 30.8331 224.7734 30.2676 224.9762 29.5208 C 225.1682 28.806 225.2322 28.2085 225.1469 27.7391 C 225.0615 27.2803 224.9121 27.0776 224.8054 26.9603 C 224.6347 26.7682 224.4427 26.6615 224.176 26.5975 C 223.9946 26.5228 223.8239 26.4908 223.6745 26.4908 L 223.6745 26.4908 Z " stroke-width="1.0668950080871582"/>
    <path id="ID0.8356547015719116" d="M 220.0258 21.3484 C 219.9724 21.5618 219.9511 21.6685 219.8977 21.8925 C 221.0927 21.071 222.2662 20.5482 223.4078 20.3242 C 224.5494 20.0895 225.7763 20.1428 227.0673 20.4842 C 228.6143 20.8896 229.9479 21.6258 231.0575 22.6927 C 232.1564 23.7596 232.8818 25.0825 233.2339 26.6509 C 233.586 28.2192 233.4793 29.9262 232.9459 31.7826 C 232.5511 33.1483 231.975 34.3432 231.2282 35.3567 C 230.4813 36.3809 229.6385 37.1811 228.6889 37.7466 C 227.7501 38.3227 226.7259 38.6748 225.6376 38.8241 C 224.5494 38.9735 223.4398 38.8988 222.3196 38.6108 C 220.9646 38.2587 219.8871 37.7146 219.0976 36.9677 C 218.3081 36.2209 217.6039 35.25 216.9958 34.0444 C 216.345 36.7437 216.0249 38.088 215.3741 40.7979 C 214.9047 42.7716 213.9231 43.5825 212.4295 43.2411 C 211.5546 43.0384 211.0318 42.6543 210.8611 42.0782 C 210.6904 41.502 210.7118 40.7232 210.9358 39.7417 C 212.6749 31.9533 213.539 28.0698 215.2781 20.2815 C 215.4701 19.428 215.8222 18.8305 216.345 18.4998 C 216.8571 18.1691 217.4865 18.0944 218.2227 18.2544 C 218.9375 18.4251 219.471 18.7772 219.823 19.3106 C 220.1751 19.8441 220.2178 20.5376 220.0258 21.3484 Z M 228.0595 30.353 C 228.3795 29.1794 228.4649 28.1125 228.2942 27.163 C 228.1235 26.2134 227.7501 25.4133 227.1526 24.7731 C 226.5658 24.133 225.8297 23.6956 224.9655 23.4715 C 223.5892 23.1194 222.2982 23.3115 221.114 24.0583 C 219.9297 24.8051 219.1189 26.1281 218.6601 28.0272 C 218.2334 29.8195 218.3507 31.3132 219.0229 32.5295 C 219.695 33.7457 220.6872 34.5246 222.0209 34.866 C 222.821 35.0687 223.6105 35.0473 224.4107 34.8019 C 225.2109 34.5566 225.9257 34.0551 226.5765 33.3083 C 227.238 32.5508 227.7287 31.5693 228.0595 30.353 Z " stroke-width="1.0668950080871582" />
    <path id="ID0.04139647167176008" fill="#FFFFFF" d="M 246.2607 48.6929 C 244.8417 48.6502 243.3054 48.3408 241.6944 47.7967 C 237.9283 46.5165 235.229 44.4253 233.6713 41.5981 C 232.0497 38.6641 231.7829 35.3461 232.8712 31.7506 C 233.3833 30.0649 234.1514 28.5499 235.165 27.259 C 236.2319 25.8934 237.5442 24.8265 239.0485 24.0796 C 240.5635 23.3328 242.2492 22.9381 244.0736 22.8954 L 244.351 22.8954 C 245.994 22.8954 247.7117 23.1941 249.4507 23.7809 C 251.8939 24.6024 253.8783 25.84 255.372 27.451 C 256.8976 29.1047 257.8579 30.9505 258.2313 32.9349 C 258.594 34.8873 258.4553 36.7437 257.8045 38.4721 C 257.2391 39.9871 256.3962 40.9046 255.564 41.4594 C 255.7667 42.3236 255.7027 43.2518 255.372 44.1586 C 255.0199 45.1188 254.3158 46.0043 253.3022 46.7725 C 252.4487 47.4233 251.4245 47.9141 250.1762 48.2662 C 249.1733 48.5542 248.0424 48.6929 246.8155 48.6929 C 246.8155 48.6929 246.4527 48.6929 246.2607 48.6929 Z " stroke-width="1.0668950080871582"/>
    <path id="ID0.6073359800502658" d="M 249.9095 38.5147 C 246.1754 37.1811 244.2976 36.541 240.5315 35.3247 C 240.2221 36.3276 240.1581 37.2771 240.3394 38.184 C 240.5208 39.0909 240.8942 39.8377 241.4597 40.4565 C 242.0358 41.0753 242.74 41.5234 243.5721 41.8008 C 244.1376 41.9928 244.671 42.1102 245.1831 42.1529 C 245.6953 42.1955 246.2074 42.1529 246.7408 42.0462 C 247.2743 41.9395 247.7757 41.8008 248.2451 41.6407 C 248.7146 41.4807 249.3547 41.214 250.1122 40.9473 C 250.4109 40.8406 250.8057 40.8726 251.2538 41.0433 C 251.7445 41.2247 252.086 41.4914 252.2993 41.8435 C 252.5127 42.1955 252.534 42.6009 252.3633 43.0384 C 252.214 43.4331 251.8832 43.8279 251.3498 44.2333 C 250.8163 44.6387 250.1442 44.9481 249.3014 45.1935 C 248.4585 45.4282 247.477 45.5349 246.3567 45.4922 C 245.2365 45.4496 244.0202 45.2148 242.7186 44.7667 C 239.7206 43.7425 237.6509 42.1955 236.4666 40.0511 C 235.2824 37.9066 235.0903 35.4527 235.9332 32.6788 C 236.3279 31.3772 236.9147 30.225 237.6829 29.2434 C 238.451 28.2619 239.3792 27.4937 240.4675 26.9603 C 241.5557 26.4268 242.772 26.1388 244.1376 26.1174 C 245.5032 26.0961 246.9328 26.3308 248.4265 26.8322 C 250.3683 27.4937 251.9046 28.4326 253.0248 29.6382 C 254.1451 30.8438 254.8279 32.1454 255.0839 33.5323 C 255.34 34.9193 255.244 36.1889 254.8065 37.3625 C 254.4011 38.4507 253.793 39.0268 252.9821 39.1015 C 252.182 39.1549 251.1578 38.9628 249.9095 38.5147 Z M 241.3317 32.8389 C 244.8524 33.9698 246.6128 34.5672 250.1122 35.8048 C 250.5176 34.2792 250.4749 32.9989 249.9522 31.9853 C 249.4294 30.9718 248.5225 30.2463 247.2422 29.8089 C 246.0153 29.3928 244.8844 29.4355 243.8495 29.9369 C 242.804 30.4383 241.9718 31.4092 241.3317 32.8389 Z " stroke-width="1.0668950080871582" />
    <path id="ID0.22766042640432715" fill="#FFFFFF" d="M 270.5859 58.8071 C 269.7857 58.8071 268.9856 58.6257 268.2067 58.2736 C 266.9798 57.7188 266.0516 56.8227 265.4862 55.6597 C 265.1981 55.6811 264.91 55.6917 264.622 55.6917 C 264.2272 55.6917 263.8325 55.6704 263.4377 55.6277 C 262.3495 55.5104 261.2292 55.2116 260.1197 54.7529 C 258.6153 54.1234 257.3031 53.2272 256.2362 52.0856 C 255.1693 50.9441 254.3584 49.5998 253.8357 48.0955 C 253.3342 46.6231 253.1102 45.0548 253.1955 43.4118 C 253.2702 41.8328 253.6223 40.2324 254.2304 38.6641 C 255.5854 35.1434 257.7192 32.7108 260.5784 31.4519 C 261.9761 30.8331 263.4591 30.5237 264.974 30.5237 C 266.5744 30.5237 268.2174 30.8758 269.8711 31.5586 C 271.1407 32.092 272.2396 32.7215 273.1571 33.4577 L 273.6799 32.2627 C 274.3947 30.6411 275.451 29.5208 276.7952 28.934 C 277.4674 28.6353 278.1715 28.4859 278.9184 28.4859 C 279.7505 28.4859 280.5934 28.678 281.4256 29.0514 C 283.3566 29.9262 284.1888 31.2812 284.5516 32.2521 C 284.9036 33.2229 285.1384 34.7913 284.2208 36.765 L 275.675 55.265 C 274.7575 57.2494 273.4239 58.0923 272.453 58.4443 C 271.8555 58.6897 271.226 58.8071 270.5859 58.8071 L 270.5859 58.8071 Z M 266.8411 41.0646 C 266.7664 41.0646 266.6917 41.0753 266.6171 41.086 C 266.457 41.118 266.2116 41.1926 265.8596 41.5127 C 265.4862 41.8648 265.1554 42.3769 264.8887 43.049 C 264.6006 43.7532 264.4726 44.3507 264.5046 44.8521 C 264.5366 45.3855 264.6967 45.5989 264.75 45.6629 C 264.9207 45.887 265.1127 46.0363 265.3901 46.1537 C 265.6249 46.2497 265.8489 46.3031 266.0623 46.3031 C 266.1263 46.3031 266.1796 46.3031 266.2436 46.2924 C 266.3183 46.2817 266.5637 46.2497 266.9691 45.919 C 267.2252 45.7163 267.6093 45.2682 268.004 44.3613 C 268.2921 43.6998 268.4308 43.1237 268.4094 42.6543 C 268.3774 42.1529 268.2387 41.8861 268.1321 41.7368 C 267.9507 41.4807 267.7373 41.3207 267.4386 41.1926 C 267.2359 41.118 267.0332 41.0646 266.8411 41.0646 L 266.8411 41.0646 Z " stroke-width="1.0668950080871582"/>
    <path id="ID0.3470848589204252" d="M 268.4628 51.9896 C 268.5375 51.8189 268.5695 51.7442 268.6442 51.5735 C 267.7373 51.9469 266.9051 52.2137 266.1263 52.3524 C 265.3475 52.5017 264.5686 52.5337 263.7791 52.4484 C 262.9896 52.363 262.1788 52.1497 261.3573 51.7976 C 260.2584 51.3388 259.3408 50.7093 258.5727 49.8985 C 257.8045 49.0877 257.2391 48.1381 256.8656 47.0606 C 256.4922 45.983 256.3322 44.8201 256.3962 43.5932 C 256.4602 42.3556 256.7269 41.1073 257.2177 39.827 C 258.2526 37.1278 259.7996 35.3034 261.8694 34.3859 C 263.9392 33.4683 266.2116 33.511 268.6335 34.5246 C 270.0311 35.1113 271.13 35.8262 271.8982 36.6583 C 272.677 37.4905 273.3172 38.5467 273.8399 39.8057 C 274.9495 37.3091 275.4936 36.0609 276.6032 33.5643 C 276.9873 32.7002 277.4781 32.1347 278.0755 31.868 C 278.673 31.6013 279.3558 31.6439 280.0919 31.9747 C 280.8388 32.3161 281.3189 32.7748 281.5323 33.3616 C 281.7456 33.9484 281.671 34.6419 281.3082 35.4314 C 277.8941 42.8357 276.1764 46.5271 272.7624 53.9314 C 272.389 54.7315 271.9195 55.2437 271.3327 55.457 C 270.7459 55.6704 270.1485 55.6384 269.5083 55.3503 C 268.8895 55.0729 268.4735 54.6249 268.2494 54.0274 C 268.0574 53.4406 268.1107 52.7578 268.4628 51.9896 Z M 261.9334 41.8541 C 261.464 43.017 261.2612 44.0839 261.3253 45.0548 C 261.3893 46.0257 261.6773 46.8685 262.1894 47.562 C 262.7016 48.2555 263.3524 48.7676 264.1525 49.109 C 264.9634 49.4504 265.7849 49.5784 266.6277 49.4824 C 267.4706 49.3864 268.2601 49.0237 269.0176 48.4049 C 269.7751 47.7861 270.4152 46.8685 270.9487 45.6736 C 271.4501 44.5534 271.6741 43.4865 271.6208 42.4943 C 271.5675 41.502 271.2794 40.6379 270.7566 39.9017 C 270.2338 39.1655 269.551 38.6108 268.7082 38.2587 C 267.8333 37.8853 266.9478 37.7786 266.0729 37.9386 C 265.1981 38.0986 264.3979 38.5147 263.6831 39.1869 C 262.9576 39.8697 262.3815 40.7552 261.9334 41.8541 Z " stroke-width="1.0668950080871582" />
    <path id="ID0.756230897270143" fill="#FFFFFF" d="M 280.8708 63.5974 C 279.9106 63.5974 278.9717 63.3734 278.0862 62.9253 C 276.7739 62.2745 275.771 61.2503 275.1629 59.9593 C 274.4481 58.4443 274.4801 56.7373 275.2482 55.1476 C 275.9524 53.6967 277.158 52.6831 278.737 52.2243 C 278.801 52.203 278.8543 52.1923 278.9184 52.1817 C 278.8864 51.979 278.8757 51.7762 278.8757 51.5735 C 278.8543 50.5813 279.0891 49.4718 279.5905 48.0741 C 280.8388 44.9588 281.4362 43.4545 282.6312 40.4351 C 283.2713 38.8348 283.7194 37.7679 284.0608 37.0744 C 285.085 34.9726 286.6427 34.1405 287.7736 33.8097 C 288.3177 33.6497 288.8832 33.5643 289.4593 33.5643 C 290.4728 33.5643 291.4864 33.8204 292.4893 34.3112 C 295.2739 35.6981 295.786 37.8106 295.85 38.9415 C 295.914 40.2965 295.5406 41.7474 294.6977 43.4011 C 294.2923 44.1906 293.8442 44.9588 293.3535 45.6949 C 291.5717 48.4582 290.6755 49.8665 288.8832 52.6938 C 288.1257 53.8994 287.3362 54.7956 286.4613 55.393 C 286.3333 55.4784 286.2053 55.5637 286.0772 55.6384 C 286.1199 55.7238 286.1519 55.8091 286.1839 55.9051 C 286.7814 57.4308 286.7174 59.0631 285.9812 60.4928 C 285.1917 62.0398 283.8688 63.0853 282.2364 63.4481 C 281.7776 63.5441 281.3189 63.5974 280.8708 63.5974 L 280.8708 63.5974 Z " stroke-width="1.0668950080871582"/>
    <path id="ID0.06341399671509862" d="M 282.5885 49.1624 C 283.7941 46.143 284.4022 44.628 285.5971 41.6087 C 286.1839 40.1364 286.6213 39.0909 286.9307 38.4721 C 287.3362 37.6292 287.923 37.0958 288.6698 36.8717 C 289.4166 36.6477 290.2168 36.7544 291.0596 37.1705 C 292.0838 37.6826 292.6066 38.3227 292.6493 39.1015 C 292.692 39.8697 292.4146 40.8192 291.8385 41.9501 C 291.4971 42.6116 291.113 43.2731 290.6862 43.9132 C 288.8725 46.7405 287.9656 48.1488 286.1732 50.9761 C 285.6398 51.8189 285.1384 52.4164 284.6369 52.7578 C 284.1461 53.0992 283.602 53.1205 283.0046 52.8218 C 282.3964 52.5231 282.087 52.0856 282.0764 51.5095 C 282.0657 50.9334 282.2257 50.1546 282.5885 49.1624 Z M 279.5158 60.066 C 278.8437 59.7353 278.3636 59.2445 278.0648 58.6044 C 277.7554 57.9642 277.7875 57.2708 278.1289 56.5559 C 278.4383 55.9265 278.9397 55.5104 279.6332 55.3077 C 280.3373 55.105 281.0308 55.169 281.735 55.521 C 282.4391 55.8731 282.9192 56.3852 283.1966 57.0787 C 283.474 57.7722 283.442 58.423 283.1219 59.0418 C 282.7592 59.7459 282.2364 60.1727 281.5429 60.3327 C 280.8388 60.4714 280.1666 60.3861 279.5158 60.066 Z " stroke-width="1.0668950080871582" />
  </g>
  <g id="ID0.9790828069671988">
    <path id="ID0.2117975428700447" d="M 76.0696 260.4716 L 76.0696 266.7876 L 83.3672 266.7876 L 83.3672 260.4716 L 85.3409 260.4716 L 85.3409 275.5681 L 83.3672 275.5681 L 83.3672 268.4946 L 76.0696 268.4946 L 76.0696 275.5681 L 74.0959 275.5681 L 74.0959 260.4716 L 76.0696 260.4716 Z " stroke-width="1.0668950080871582" />
    <path id="ID0.6200243271887302" d="M 89.7579 270.5111 C 89.8006 273.1783 91.4862 274.2772 93.4813 274.2772 C 94.8896 274.2772 95.7645 274.0318 96.4793 273.7117 L 96.8421 275.12 C 96.1486 275.4294 94.943 275.8135 93.2146 275.8135 C 89.8752 275.8135 87.8801 273.5944 87.8801 270.3297 C 87.8801 267.065 89.8112 264.5044 92.9692 264.5044 C 96.5327 264.5044 97.4502 267.5984 97.4502 269.5935 C 97.4502 269.9989 97.4289 270.287 97.3862 270.5111 L 89.7579 270.5111 Z M 95.5404 269.0921 C 95.5618 267.8545 95.0283 265.9127 92.8092 265.9127 C 90.7928 265.9127 89.9392 267.7265 89.7899 269.0921 L 95.5404 269.0921 Z " stroke-width="1.0668950080871582" />
    <path id="ID0.9519655853509903" d="M 99.8827 259.6607 L 101.8565 259.6607 L 101.8565 275.5681 L 99.8827 275.5681 L 99.8827 259.6607 Z " stroke-width="1.0668950080871582" />
    <path id="ID0.9680715198628604" d="M 105.1745 268.2706 C 105.1745 266.8836 105.1318 265.7634 105.0892 264.7285 L 106.8389 264.7285 L 106.9456 266.5849 L 106.9882 266.5849 C 107.7671 265.2619 109.0687 264.5044 110.8397 264.5044 C 113.4856 264.5044 115.4594 266.7236 115.4594 269.9883 C 115.4594 273.8824 113.0589 275.8135 110.509 275.8135 C 109.0793 275.8135 107.8204 275.1841 107.1696 274.1065 L 107.1269 274.1065 L 107.1269 279.9958 L 105.1745 279.9958 L 105.1745 268.2706 Z M 107.1269 271.1619 C 107.1269 271.4499 107.1483 271.7166 107.2123 271.9727 C 107.575 273.3383 108.7593 274.2772 110.1676 274.2772 C 112.248 274.2772 113.4643 272.5702 113.4643 270.0843 C 113.4643 267.9292 112.3227 266.0728 110.2423 266.0728 C 108.898 266.0728 107.6177 267.0116 107.2656 268.4946 C 107.2016 268.74 107.1269 269.0281 107.1269 269.2841 L 107.1269 271.1619 Z " stroke-width="1.0668950080871582" />
    <path id="ID0.7598333428613842" d="M 122.4902 273.1996 C 123.3651 273.7651 124.6133 274.1812 125.9576 274.1812 C 127.9527 274.1812 129.1156 273.125 129.1156 271.61 C 129.1156 270.223 128.3048 269.3908 126.267 268.6333 C 123.8025 267.7371 122.2768 266.4355 122.2768 264.3337 C 122.2768 261.9759 124.2293 260.2369 127.1632 260.2369 C 128.6889 260.2369 129.8305 260.5996 130.4813 260.973 L 129.9478 262.5627 C 129.4784 262.2746 128.4648 261.8479 127.0992 261.8479 C 125.0401 261.8479 124.2506 263.0748 124.2506 264.1097 C 124.2506 265.518 125.1681 266.2115 127.2486 267.0223 C 129.7984 268.0039 131.0787 269.2415 131.0787 271.4606 C 131.0787 273.7864 129.3717 275.8242 125.8189 275.8242 C 124.368 275.8242 122.7676 275.3761 121.9674 274.8427 L 122.4902 273.1996 Z " stroke-width="1.0668950080871582" />
    <path id="ID0.4412311753258109" d="M 141.577 275.1841 C 141.0649 275.4294 139.9233 275.8135 138.4616 275.8135 C 135.1863 275.8135 133.0631 273.5944 133.0631 270.2763 C 133.0631 266.937 135.3463 264.4938 138.8884 264.4938 C 140.0513 264.4938 141.0862 264.7818 141.6196 265.0806 L 141.1715 266.5849 C 140.7021 266.3395 139.966 266.0728 138.8884 266.0728 C 136.4025 266.0728 135.0582 267.9292 135.0582 270.1697 C 135.0582 272.6769 136.6693 274.2239 138.8244 274.2239 C 139.9446 274.2239 140.6808 273.9571 141.2462 273.7117 L 141.577 275.1841 Z " stroke-width="1.0668950080871582" />
    <path id="ID0.4814460729248822" d="M 143.8921 268.1105 C 143.8921 266.8303 143.8708 265.7314 143.8068 264.7285 L 145.5351 264.7285 L 145.6205 266.8836 L 145.6845 266.8836 C 146.1753 265.4326 147.3915 264.5044 148.7038 264.5044 C 148.9065 264.5044 149.0666 264.5258 149.2373 264.5471 L 149.2373 266.4035 C 149.0346 266.3608 148.8319 266.3608 148.5651 266.3608 C 147.1782 266.3608 146.186 267.3957 145.9192 268.868 C 145.8766 269.1348 145.8552 269.4762 145.8552 269.7856 L 145.8552 275.5681 L 143.8815 275.5681 L 143.8815 268.1105 Z " stroke-width="1.0668950080871582" />
    <path id="ID0.9850031714886427" d="M 158.722 272.9756 C 158.722 273.9145 158.7646 274.832 158.882 275.5788 L 157.111 275.5788 L 156.9509 274.2132 L 156.8869 274.2132 C 156.2788 275.0667 155.1159 275.8242 153.5689 275.8242 C 151.3711 275.8242 150.2508 274.2772 150.2508 272.7089 C 150.2508 270.0843 152.5767 268.6547 156.7696 268.676 L 156.7696 268.452 C 156.7696 267.5771 156.5242 265.9447 154.305 265.9661 C 153.2701 265.9661 152.2246 266.2541 151.4564 266.7769 L 151.0083 265.454 C 151.9045 264.8992 153.2275 264.5151 154.5931 264.5151 C 157.9111 264.5151 158.7113 266.7769 158.7113 268.9321 L 158.7113 272.9756 Z M 156.8122 270.031 C 154.6571 269.9883 152.2246 270.3724 152.2246 272.4741 C 152.2246 273.7758 153.0781 274.3519 154.0596 274.3519 C 155.4893 274.3519 156.4068 273.4557 156.7269 272.5382 C 156.7909 272.3141 156.8122 272.0901 156.8122 271.9087 L 156.8122 270.031 Z " stroke-width="1.0668950080871582" />
    <path id="ID0.8516940707340837" d="M 164.1845 262.1253 L 164.1845 264.7285 L 167.0011 264.7285 L 167.0011 266.2328 L 164.1845 266.2328 L 164.1845 272.0794 C 164.1845 273.4237 164.5686 274.1812 165.6568 274.1812 C 166.1902 274.1812 166.5103 274.1385 166.7984 274.0425 L 166.8837 275.5468 C 166.4996 275.6855 165.9022 275.8135 165.134 275.8135 C 164.2165 275.8135 163.4803 275.5041 163.0109 274.9813 C 162.4774 274.3732 162.2534 273.413 162.2534 272.1327 L 162.2534 266.2221 L 160.5784 266.2221 L 160.5784 264.7178 L 162.2534 264.7178 L 162.2534 262.7014 L 164.1845 262.1253 Z " stroke-width="1.0668950080871582" />
    <path id="ID0.678651534486562" d="M 176.8165 275.1841 C 176.3044 275.4294 175.1628 275.8135 173.7012 275.8135 C 170.4258 275.8135 168.3027 273.5944 168.3027 270.2763 C 168.3027 266.937 170.5858 264.4938 174.1279 264.4938 C 175.2908 264.4938 176.3257 264.7818 176.8592 265.0806 L 176.4111 266.5849 C 175.9417 266.3395 175.2055 266.0728 174.1279 266.0728 C 171.6421 266.0728 170.2978 267.9292 170.2978 270.1697 C 170.2978 272.6769 171.9088 274.2239 174.0639 274.2239 C 175.1842 274.2239 175.9203 273.9571 176.4858 273.7117 L 176.8165 275.1841 Z " stroke-width="1.0668950080871582" />
    <path id="ID0.8322960799559951" d="M 179.1317 259.6607 L 181.1054 259.6607 L 181.1054 266.4569 L 181.1481 266.4569 C 181.4575 265.9021 181.9589 265.3793 182.5564 265.0486 C 183.1432 264.7178 183.8367 264.5151 184.5728 264.5151 C 186.0238 264.5151 188.3603 265.4113 188.3603 269.1348 L 188.3603 275.5895 L 186.3866 275.5895 L 186.3866 269.3588 C 186.3866 267.6091 185.7358 266.1581 183.8794 266.1581 C 182.5991 266.1581 181.6175 267.0543 181.2335 268.1105 C 181.1161 268.3986 181.0948 268.6973 181.0948 269.0494 L 181.0948 275.5895 L 179.121 275.5895 L 179.121 259.6607 Z " stroke-width="1.0668950080871582" />
    <path id="ID0.654868480283767" d="M 206.9136 275.0987 C 206.2201 275.4615 204.7585 275.8135 202.9234 275.8135 C 198.6665 275.8135 195.4872 273.125 195.4872 268.1532 C 195.4872 263.4055 198.6879 260.2262 203.3715 260.2262 C 205.2279 260.2262 206.4442 260.6316 206.9563 260.8983 L 206.4655 262.488 C 205.7507 262.1253 204.6945 261.8585 203.4462 261.8585 C 199.9041 261.8585 197.5569 264.1204 197.5569 268.0892 C 197.5569 271.8127 199.6907 274.1598 203.3395 274.1598 C 204.5451 274.1598 205.7614 273.9145 206.5402 273.5304 L 206.9136 275.0987 Z " stroke-width="1.0668950080871582" />
    <path id="ID0.4134245626628399" d="M 216.7717 272.9756 C 216.7717 273.9145 216.8144 274.832 216.9318 275.5788 L 215.1607 275.5788 L 215.0007 274.2132 L 214.9367 274.2132 C 214.3285 275.0667 213.1656 275.8242 211.6186 275.8242 C 209.4208 275.8242 208.3006 274.2772 208.3006 272.7089 C 208.3006 270.0843 210.6264 268.6547 214.8193 268.676 L 214.8193 268.452 C 214.8193 267.5771 214.5739 265.9447 212.3548 265.9661 C 211.3306 265.9661 210.2743 266.2541 209.5062 266.7769 L 209.0581 265.454 C 209.9543 264.8992 211.2772 264.5151 212.6428 264.5151 C 215.9609 264.5151 216.7611 266.7769 216.7611 268.9321 L 216.7611 272.9756 Z M 214.862 270.031 C 212.7069 269.9883 210.2743 270.3724 210.2743 272.4741 C 210.2743 273.7758 211.1279 274.3519 212.1094 274.3519 C 213.539 274.3519 214.4672 273.4557 214.7766 272.5382 C 214.8406 272.3141 214.862 272.0901 214.862 271.9087 L 214.862 270.031 Z " stroke-width="1.0668950080871582" />
    <path id="ID0.9607205968350172" d="M 222.2342 262.1253 L 222.2342 264.7285 L 225.0615 264.7285 L 225.0615 266.2328 L 222.2342 266.2328 L 222.2342 272.0794 C 222.2342 273.4237 222.6183 274.1812 223.7172 274.1812 C 224.2507 274.1812 224.5707 274.1385 224.8588 274.0425 L 224.9441 275.5468 C 224.5601 275.6855 223.9626 275.8135 223.1944 275.8135 C 222.2769 275.8135 221.5407 275.5041 221.0713 274.9813 C 220.5379 274.3732 220.3138 273.413 220.3138 272.1327 L 220.3138 266.2221 L 218.6281 266.2221 L 218.6281 264.7178 L 220.3138 264.7178 L 220.3138 262.7014 L 222.2342 262.1253 Z " stroke-width="1.0668950080871582" />
    <path id="ID0.8546456238254905" d="M 44.0841 300.0854 C 44.959 300.6402 46.2072 301.0669 47.5515 301.0669 C 49.5466 301.0669 50.7095 300.0107 50.7095 298.485 C 50.7095 297.0981 49.8987 296.2659 47.8609 295.5084 C 45.3964 294.6122 43.8707 293.3106 43.8707 291.2088 C 43.8707 288.8617 45.8231 287.1119 48.7571 287.1119 C 50.2828 287.1119 51.4243 287.4747 52.0751 287.8481 L 51.5417 289.4378 C 51.0723 289.1497 50.0587 288.723 48.6931 288.723 C 46.634 288.723 45.8445 289.9606 45.8445 290.9848 C 45.8445 292.3931 46.762 293.0866 48.8425 293.8974 C 51.3923 294.8789 52.6726 296.1165 52.6726 298.3357 C 52.6726 300.6615 50.9656 302.6993 47.4128 302.6993 C 45.9618 302.6993 44.3615 302.2512 43.5613 301.7177 L 44.0841 300.0854 Z " stroke-width="1.0668950080871582" />
    <path id="ID0.43767092609778047" d="M 63.0002 299.8613 C 63.0002 300.8002 63.0428 301.7177 63.1602 302.4646 L 61.3891 302.4646 L 61.2291 301.0989 L 61.1651 301.0989 C 60.557 301.9525 59.394 302.7099 57.847 302.7099 C 55.6492 302.7099 54.529 301.163 54.529 299.5946 C 54.529 296.9701 56.8548 295.5404 61.0477 295.5618 L 61.0477 295.3377 C 61.0477 294.4629 60.8023 292.8305 58.5832 292.8518 C 57.5483 292.8518 56.5028 293.1399 55.7346 293.6627 L 55.2865 292.3397 C 56.1827 291.7743 57.5056 291.4009 58.8713 291.4009 C 62.1893 291.4009 62.9895 293.6627 62.9895 295.8178 L 62.9895 299.8613 Z M 61.0904 296.9274 C 58.9353 296.8847 56.5028 297.2581 56.5028 299.3706 C 56.5028 300.6722 57.3563 301.2483 58.3378 301.2483 C 59.7675 301.2483 60.685 300.3521 61.0051 299.4346 C 61.0691 299.2105 61.0904 298.9865 61.0904 298.8051 L 61.0904 296.9274 Z " stroke-width="1.0668950080871582" />
    <path id="ID0.2570474804379046" d="M 66.7663 291.6142 L 68.8894 297.6849 C 69.2522 298.6984 69.5402 299.5946 69.7643 300.4908 L 69.8283 300.4908 C 70.0737 299.5946 70.3831 298.6984 70.7458 297.6849 L 72.8476 291.6142 L 74.9067 291.6142 L 70.6498 302.4539 L 68.7721 302.4539 L 64.6538 291.6142 L 66.7663 291.6142 Z " stroke-width="1.0668950080871582" />
    <path id="ID0.8167498470284045" d="M 77.6486 297.3968 C 77.6913 300.064 79.377 301.163 81.3721 301.163 C 82.7804 301.163 83.6552 300.9176 84.3701 300.6082 L 84.7328 302.0165 C 84.0393 302.3259 82.8337 302.7099 81.1054 302.7099 C 77.766 302.7099 75.7709 300.4908 75.7709 297.2261 C 75.7709 293.9614 77.702 291.4009 80.86 291.4009 C 84.4234 291.4009 85.3409 294.4949 85.3409 296.49 C 85.3409 296.8954 85.3196 297.1834 85.2769 297.4075 L 77.6486 297.4075 Z M 83.4312 295.9778 C 83.4525 294.7509 82.9191 292.7985 80.6999 292.7985 C 78.6835 292.7985 77.83 294.6122 77.6806 295.9778 L 83.4312 295.9778 Z " stroke-width="1.0668950080871582" />
    <path id="ID0.023588061798363924" d="M 94.9003 289.011 L 94.9003 291.6142 L 97.7276 291.6142 L 97.7276 293.1186 L 94.9003 293.1186 L 94.9003 298.9651 C 94.9003 300.3094 95.2844 301.0669 96.3833 301.0669 C 96.9167 301.0669 97.2368 301.0243 97.5249 300.9282 L 97.6102 302.4326 C 97.2261 302.5713 96.6287 302.6993 95.8605 302.6993 C 94.943 302.6993 94.2068 302.3899 93.7374 301.8671 C 93.2039 301.259 92.9799 300.2988 92.9799 299.0185 L 92.9799 293.1079 L 91.3049 293.1079 L 91.3049 291.6036 L 92.9799 291.6036 L 92.9799 289.5871 L 94.9003 289.011 Z " stroke-width="1.0668950080871582" />
    <path id="ID0.3962403661571443" d="M 99.9467 286.5465 L 101.9205 286.5465 L 101.9205 293.3319 L 101.9632 293.3319 C 102.2726 292.7665 102.774 292.2544 103.3715 291.9236 C 103.9582 291.5822 104.6517 291.3902 105.3879 291.3902 C 106.8389 291.3902 109.1754 292.2864 109.1754 296.0098 L 109.1754 302.4646 L 107.2016 302.4646 L 107.2016 296.2339 C 107.2016 294.4842 106.5508 293.0332 104.6944 293.0332 C 103.4141 293.0332 102.4326 293.9294 102.0485 294.9856 C 101.9418 295.2737 101.9098 295.5724 101.9098 295.9245 L 101.9098 302.4646 L 99.9361 302.4646 L 99.9361 286.5465 Z " stroke-width="1.0668950080871582" />
    <path id="ID0.7748603192158043" d="M 113.475 297.3968 C 113.5176 300.064 115.2033 301.163 117.1984 301.163 C 118.6067 301.163 119.4816 300.9176 120.1964 300.6082 L 120.5591 302.0165 C 119.8657 302.3259 118.6601 302.7099 116.9317 302.7099 C 113.5923 302.7099 111.5972 300.4908 111.5972 297.2261 C 111.5972 293.9614 113.5283 291.4009 116.6863 291.4009 C 120.2497 291.4009 121.1673 294.4949 121.1673 296.49 C 121.1673 296.8954 121.1459 297.1834 121.1033 297.4075 L 113.475 297.4075 Z M 119.2575 295.9778 C 119.2789 294.7509 118.7454 292.7985 116.5263 292.7985 C 114.5098 292.7985 113.6563 294.6122 113.507 295.9778 L 119.2575 295.9778 Z " stroke-width="1.0668950080871582" />
    <path id="ID0.5167694413103163" d="M 128.1768 300.0854 C 129.0516 300.6402 130.2999 301.0669 131.6442 301.0669 C 133.6393 301.0669 134.8022 300.0107 134.8022 298.485 C 134.8022 297.0981 133.9913 296.2659 131.9536 295.5084 C 129.489 294.6122 127.9634 293.3106 127.9634 291.2088 C 127.9634 288.8617 129.9158 287.1119 132.8498 287.1119 C 134.3754 287.1119 135.517 287.4747 136.1678 287.8481 L 135.6344 289.4378 C 135.1649 289.1497 134.1514 288.723 132.7858 288.723 C 130.7266 288.723 129.9371 289.9606 129.9371 290.9848 C 129.9371 292.3931 130.8547 293.0866 132.9351 293.8974 C 135.485 294.8789 136.7653 296.1165 136.7653 298.3357 C 136.7653 300.6615 135.0582 302.6993 131.5055 302.6993 C 130.0545 302.6993 128.4542 302.2512 127.654 301.7177 L 128.1768 300.0854 Z " stroke-width="1.0668950080871582" />
    <path id="ID0.6506262477487326" d="M 147.2635 302.0698 C 146.7514 302.3152 145.6098 302.6993 144.1482 302.6993 C 140.8728 302.6993 138.7497 300.4801 138.7497 297.1621 C 138.7497 293.8227 141.0329 291.3795 144.5749 291.3795 C 145.7379 291.3795 146.7727 291.6676 147.3062 291.9663 L 146.8581 293.4706 C 146.3887 293.2253 145.6525 292.9585 144.5749 292.9585 C 142.0891 292.9585 140.7448 294.8149 140.7448 297.0554 C 140.7448 299.5626 142.3558 301.1096 144.5109 301.1096 C 145.6312 301.1096 146.3673 300.8429 146.9328 300.5975 L 147.2635 302.0698 Z " stroke-width="1.0668950080871582" />
    <path id="ID0.1388600803911686" d="M 149.568 294.9963 C 149.568 293.716 149.5467 292.6278 149.4827 291.6142 L 151.211 291.6142 L 151.2964 293.7694 L 151.3604 293.7694 C 151.8512 292.3077 153.0674 291.3902 154.3797 291.3902 C 154.5824 291.3902 154.7425 291.4115 154.9132 291.4329 L 154.9132 293.2893 C 154.7104 293.2466 154.5077 293.2466 154.241 293.2466 C 152.854 293.2466 151.8618 294.2708 151.5951 295.7538 C 151.5524 296.0205 151.5311 296.3619 151.5311 296.6713 L 151.5311 302.4539 L 149.5573 302.4539 L 149.5573 294.9963 Z " stroke-width="1.0668950080871582" />
    <path id="ID0.581386717967689" d="M 164.3979 299.8613 C 164.3979 300.8002 164.4405 301.7177 164.5579 302.4646 L 162.7868 302.4646 L 162.6268 301.0989 L 162.5628 301.0989 C 161.9547 301.9525 160.7917 302.7099 159.2447 302.7099 C 157.0469 302.7099 155.9267 301.163 155.9267 299.5946 C 155.9267 296.9701 158.2525 295.5404 162.4454 295.5618 L 162.4454 295.3377 C 162.4454 294.4629 162.2 292.8305 159.9809 292.8518 C 158.946 292.8518 157.9005 293.1399 157.1323 293.6627 L 156.6842 292.3397 C 157.5804 291.7743 158.9033 291.4009 160.269 291.4009 C 163.587 291.4009 164.3872 293.6627 164.3872 295.8178 L 164.3872 299.8613 Z M 162.4988 296.9274 C 160.3437 296.8847 157.9111 297.2581 157.9111 299.3706 C 157.9111 300.6722 158.7646 301.2483 159.7462 301.2483 C 161.1758 301.2483 162.0934 300.3521 162.4134 299.4346 C 162.4774 299.2105 162.4988 298.9865 162.4988 298.8051 L 162.4988 296.9274 Z " stroke-width="1.0668950080871582" />
    <path id="ID0.2295622332021594" d="M 169.871 289.011 L 169.871 291.6142 L 172.6983 291.6142 L 172.6983 293.1186 L 169.871 293.1186 L 169.871 298.9651 C 169.871 300.3094 170.2551 301.0669 171.354 301.0669 C 171.8875 301.0669 172.2075 301.0243 172.4956 300.9282 L 172.5809 302.4326 C 172.1969 302.5713 171.5994 302.6993 170.8312 302.6993 C 169.9137 302.6993 169.1775 302.3899 168.6974 301.8671 C 168.164 301.259 167.9399 300.2988 167.9399 299.0185 L 167.9399 293.1079 L 166.2649 293.1079 L 166.2649 291.6036 L 167.9399 291.6036 L 167.9399 289.5871 L 169.871 289.011 Z " stroke-width="1.0668950080871582" />
    <path id="ID0.9758267672732472" d="M 182.5031 302.0698 C 181.991 302.3152 180.8494 302.6993 179.3877 302.6993 C 176.1124 302.6993 173.9892 300.4801 173.9892 297.1621 C 173.9892 293.8227 176.2724 291.3795 179.8145 291.3795 C 180.9774 291.3795 182.0123 291.6676 182.5457 291.9663 L 182.0976 293.4706 C 181.6282 293.2253 180.892 292.9585 179.8145 292.9585 C 177.3286 292.9585 175.9843 294.8149 175.9843 297.0554 C 175.9843 299.5626 177.5953 301.1096 179.7505 301.1096 C 180.8707 301.1096 181.6069 300.8429 182.1723 300.5975 L 182.5031 302.0698 Z " stroke-width="1.0668950080871582" />
    <path id="ID0.359536400064826" d="M 184.8076 286.5465 L 186.7813 286.5465 L 186.7813 293.3319 L 186.824 293.3319 C 187.1334 292.7665 187.6348 292.2544 188.2323 291.9236 C 188.8191 291.5822 189.5126 291.3902 190.2487 291.3902 C 191.6997 291.3902 194.0362 292.2864 194.0362 296.0098 L 194.0362 302.4646 L 192.0624 302.4646 L 192.0624 296.2339 C 192.0624 294.4842 191.4116 293.0332 189.5552 293.0332 C 188.275 293.0332 187.2934 293.9294 186.9093 294.9856 C 186.792 295.2737 186.7706 295.5724 186.7706 295.9245 L 186.7706 302.4646 L 184.7969 302.4646 L 184.7969 286.5465 Z " stroke-width="1.0668950080871582" />
    <path id="ID0.31440060865134" d="M 197.2475 286.5465 L 199.2213 286.5465 L 199.2213 302.4539 L 197.2475 302.4539 L 197.2475 286.5465 Z " stroke-width="1.0668950080871582" />
    <path id="ID0.9718962283805013" d="M 204.7265 288.5629 C 204.7265 289.2351 204.257 289.7685 203.4675 289.7685 C 202.7527 289.7685 202.2833 289.2351 202.2833 288.5629 C 202.2833 287.8908 202.7741 287.336 203.5209 287.336 C 204.2357 287.336 204.7265 287.8694 204.7265 288.5629 Z M 202.5287 302.4539 L 202.5287 291.6142 L 204.5024 291.6142 L 204.5024 302.4539 L 202.5287 302.4539 Z " stroke-width="1.0668950080871582" />
    <path id="ID0.44507284788414836" d="M 207.7778 294.5482 C 207.7778 293.4066 207.7565 292.5104 207.6925 291.6142 L 209.4422 291.6142 L 209.5595 293.4066 L 209.6022 293.4066 C 210.1356 292.3931 211.3946 291.3902 213.187 291.3902 C 214.6913 291.3902 217.0171 292.2864 217.0171 296.0098 L 217.0171 302.4646 L 215.0434 302.4646 L 215.0434 296.2126 C 215.0434 294.4629 214.3926 293.0119 212.5362 293.0119 C 211.2559 293.0119 210.253 293.9294 209.8903 295.0283 C 209.8049 295.2737 209.7516 295.6151 209.7516 295.9458 L 209.7516 302.4646 L 207.7778 302.4646 L 207.7778 294.5482 Z " stroke-width="1.0668950080871582" />
    <path id="ID0.40314603969454765" d="M 229.4891 300.8642 C 229.4891 303.3714 228.977 304.8757 227.9421 305.836 C 226.8646 306.7962 225.3389 307.1376 223.9733 307.1376 C 222.6717 307.1376 221.242 306.8282 220.3672 306.2414 L 220.8579 304.7157 C 221.5728 305.1851 222.693 305.5906 224.0373 305.5906 C 226.0537 305.5906 227.5367 304.5343 227.5367 301.7818 L 227.5367 300.5975 L 227.494 300.5975 C 226.9072 301.6004 225.723 302.4112 224.048 302.4112 C 221.3594 302.4112 219.439 300.1281 219.439 297.1194 C 219.439 293.4493 221.8395 291.3795 224.3467 291.3795 C 226.2244 291.3795 227.238 292.3397 227.7287 293.2359 L 227.7714 293.2359 L 227.8354 291.6036 L 229.5851 291.6036 C 229.5211 292.3611 229.4998 293.2573 229.4998 294.5589 L 229.4998 300.8642 Z M 227.5154 295.8925 C 227.5154 295.5618 227.494 295.263 227.4087 295.0176 C 227.0459 293.8547 226.1071 292.9159 224.6561 292.9159 C 222.7783 292.9159 221.4341 294.5055 221.4341 297.0127 C 221.4341 299.1359 222.533 300.9069 224.6347 300.9069 C 225.8617 300.9069 226.9606 300.1494 227.366 298.8905 C 227.4834 298.5491 227.526 298.1756 227.526 297.8342 L 227.526 295.8925 Z " stroke-width="1.0668950080871582" />
    <path id="ID0.6514181816019118" d="M 232.4658 300.4588 C 233.0739 300.8215 234.0981 301.2163 235.0903 301.2163 C 236.4986 301.2163 237.1708 300.5228 237.1708 299.6053 C 237.1708 298.6664 236.6053 298.1756 235.1757 297.6315 C 233.2019 296.9167 232.2844 295.8605 232.2844 294.5589 C 232.2844 292.8092 233.714 291.3795 236.0292 291.3795 C 237.1281 291.3795 238.0883 291.6676 238.6751 292.0517 L 238.2056 293.4813 C 237.7789 293.2146 237.0001 292.8305 235.9865 292.8305 C 234.8236 292.8305 234.1941 293.5026 234.1941 294.3135 C 234.1941 295.2097 234.8236 295.6151 236.2319 296.1699 C 238.0883 296.8634 239.0805 297.8022 239.0805 299.4132 C 239.0805 301.3337 237.5762 302.6779 235.0476 302.6779 C 233.8634 302.6779 232.7645 302.3685 231.9963 301.9204 L 232.4658 300.4588 Z " stroke-width="1.0668950080871582" />
    <path id="ID0.22000828105956316" d="M 241.225 301.3123 C 241.225 300.5015 241.7904 299.9254 242.5692 299.9254 C 243.3588 299.9254 243.8709 300.5121 243.8709 301.3123 C 243.8709 302.0912 243.3588 302.6993 242.5266 302.6993 C 241.7584 302.6993 241.225 302.1018 241.225 301.3123 Z M 241.7904 298.133 L 241.481 287.3573 L 243.6361 287.3573 L 243.3267 298.133 L 241.7904 298.133 Z " stroke-width="1.0668950080871582" />
    <path id="ID0.10222574742510915" d="M 246.3781 301.3123 C 246.3781 300.5015 246.9435 299.9254 247.7224 299.9254 C 248.5119 299.9254 249.024 300.5121 249.024 301.3123 C 249.024 302.0912 248.5119 302.6993 247.6797 302.6993 C 246.9115 302.6993 246.3781 302.1018 246.3781 301.3123 Z M 246.9435 298.133 L 246.6341 287.3573 L 248.7892 287.3573 L 248.4798 298.133 L 246.9435 298.133 Z " stroke-width="1.0668950080871582" />
    <path id="ID0.17006376897916198" d="M 251.5312 301.3123 C 251.5312 300.5015 252.0966 299.9254 252.8755 299.9254 C 253.6543 299.9254 254.1771 300.5121 254.1771 301.3123 C 254.1771 302.0912 253.665 302.6993 252.8328 302.6993 C 252.0646 302.6993 251.5312 302.1018 251.5312 301.3123 Z M 252.0966 298.133 L 251.7872 287.3573 L 253.9423 287.3573 L 253.633 298.133 L 252.0966 298.133 Z " stroke-width="1.0668950080871582" />
  </g>
</svg>