<svg version="1.1" xmlns="http://www.w3.org/2000/svg" xmlns:xlink="http://www.w3.org/1999/xlink" width="482.79951" height="288.99634" viewBox="0,0,482.79951,288.99634"><defs><linearGradient x1="469.27115" y1="162.19426" x2="469.27115" y2="330.44564" gradientUnits="userSpaceOnUse" id="color-1"><stop offset="0" stop-color="#1fffff"/><stop offset="1" stop-color="#0077ff"/></linearGradient><linearGradient x1="507.44138" y1="290.63563" x2="507.44138" y2="365.92931" gradientUnits="userSpaceOnUse" id="color-2"><stop offset="0" stop-color="#1fffff"/><stop offset="1" stop-color="#0077ff"/></linearGradient><linearGradient x1="794.13043" y1="-215.50443" x2="794.13043" y2="19.74827" gradientUnits="userSpaceOnUse" id="color-3"><stop offset="0" stop-color="#005921"/><stop offset="1" stop-color="#00ff14"/></linearGradient><linearGradient x1="794.13043" y1="-215.50443" x2="794.13043" y2="19.74827" gradientUnits="userSpaceOnUse" id="color-4"><stop offset="0" stop-color="#005921"/><stop offset="1" stop-color="#00ff14"/></linearGradient><linearGradient x1="794.13043" y1="-215.50443" x2="794.13043" y2="19.74827" gradientUnits="userSpaceOnUse" id="color-5"><stop offset="0" stop-color="#005921"/><stop offset="1" stop-color="#00ff14"/></linearGradient><linearGradient x1="794.13043" y1="-215.50443" x2="794.13043" y2="19.74827" gradientUnits="userSpaceOnUse" id="color-6"><stop offset="0" stop-color="#005921"/><stop offset="1" stop-color="#00ff14"/></linearGradient><linearGradient x1="191.40876" y1="186.43956" x2="401.58825" y2="222.5935" gradientUnits="userSpaceOnUse" id="color-7"><stop offset="0" stop-color="#8a5500"/><stop offset="1" stop-color="#ff9d00"/></linearGradient><linearGradient x1="268.60114" y1="278.16803" x2="328.53818" y2="92.54182" gradientUnits="userSpaceOnUse" id="color-8"><stop offset="0" stop-color="#ffffff" stop-opacity="0"/><stop offset="1" stop-color="#ffffff"/></linearGradient></defs><g transform="translate(-87.25277,-76.93299)"><g data-paper-data="{&quot;isPaintingLayer&quot;:true}" fill-rule="nonzero" stroke-linejoin="miter" stroke-miterlimit="10" stroke-dasharray="" stroke-dashoffset="0" style="mix-blend-mode: normal"><g stroke="none" stroke-width="0.5" stroke-linecap="butt"><path d="M482.73613,301.78345c0.45033,0.24598 0.90404,0.48393 1.37649,0.66808c6.79063,2.64679 12.70358,5.70312 18.91234,9.45128c1.86322,1.12481 3.87641,2.27034 5.11168,4.06223c0.45504,-1.95507 14.09991,-14.68109 14.89786,-15.48239c7.28036,-7.31103 13.83655,-15.32524 21.19019,-22.56256c0.85608,-0.84254 2.24208,-0.93019 3.20305,-1.65081c1.13257,-0.84929 1.8606,-2.16698 3.003,-3.003c0.59341,-0.43426 1.56507,-0.20053 2.08503,-0.72049c0.51996,-0.51996 0.25913,-1.51243 0.72049,-2.08503c0.54822,-0.68041 1.76223,-0.7089 2.15822,-1.4878c0.26153,-0.51441 -0.50039,-1.06163 -0.5709,-1.63438c-0.24462,-1.987 -0.04034,-4.00441 0,-6.00601c0.07266,-3.60506 -1.88952,-6.57655 -2.75175,-10.087c-1.42215,-5.79011 -1.75275,-9.81889 -1.75275,-15.43852c0,-0.16575 -0.21789,-2.6373 -0.12884,-4.40532c-0.61177,-0.21273 -1.3826,-0.60129 -2.32015,-1.22681c-1.38177,-0.92191 -1.6697,-2.92283 -2.86182,-4.07958c-0.52773,-0.51207 -1.51054,-0.26149 -2.08503,-0.72049c-1.73172,-1.38355 -3.31194,-2.97549 -4.70199,-4.70199c-1.99862,-2.48237 -3.05062,-5.28132 -5.80852,-7.31002c-4.26338,-3.13612 -9.25417,-5.83072 -13.51351,-9.00901c-1.8085,-1.34949 -3.48805,-2.88017 -5.38513,-4.102c-1.04224,-0.67126 -1.7308,-1.93985 -2.91343,-2.31164c-1.28979,-0.40548 -2.73201,0.40332 -4.05427,0.12118c-1.48411,-0.31668 -2.73744,-1.31715 -4.14998,-1.87177c-2.8974,-1.13764 -5.83094,-2.376 -8.31226,-4.25541c-1.35142,0.04039 -2.72739,0.3807 -4.05427,0.12118c-1.09834,-0.21482 -1.91112,-1.25594 -3.003,-1.5015c-0.90688,-0.20395 -1.85191,0.18827 -2.78136,0.20063c-3.67211,0.04883 -7.35439,0.24733 -11.01729,-0.01714c-9.23138,-0.66653 -18.41563,-1.89295 -27.59672,-3.06352c-2.4195,-0.30848 -4.74687,-1.18235 -7.17006,-1.46035c-2.3155,-0.26564 -4.69115,0.21905 -6.99012,-0.16413c-1.10392,-0.184 -1.89872,-1.31964 -3.003,-1.5015c-1.8041,-0.29711 -3.67379,0.35948 -5.48423,0.10379c-1.66912,-0.23573 -3.17239,-1.16279 -4.81113,-1.55782c-8.89211,-2.1435 -19.39607,-1.2495 -28.52204,-1.34833c-2.07684,-0.02249 -4.19549,0.22843 -6.22765,-0.20063c-3.39342,-0.71648 -7.48855,-3.51996 -10.63996,-5.09567c0,0 -6.7082,-3.3541 -3.3541,-10.06231c3.3541,-6.7082 10.06231,-3.3541 10.06231,-3.3541c1.95107,0.97554 5.2835,3.55544 7.37805,3.91334c4.9635,0.84813 10.07497,-0.42604 15.10506,-0.19415c6.42147,0.29603 12.94181,0.24159 19.21432,1.64819c1.44403,0.32382 2.73318,1.23365 4.19788,1.44518c2.15386,0.31105 4.38181,-0.25766 6.52779,0.10379c1.10361,0.18588 1.89907,1.31753 3.003,1.5015c1.65207,0.27532 3.35656,-0.34255 5.02189,-0.16413c2.6499,0.2839 5.20122,1.20612 7.84495,1.54266c8.80245,1.12053 17.60767,2.29274 26.45733,2.94249c5.39628,0.3962 10.91029,-0.79772 16.23138,0.18349c1.1006,0.20295 1.90642,1.27789 3.003,1.5015c1.61876,0.33008 3.30316,0.08078 4.95474,0.12118c3.07255,1.8807 6.37405,3.38343 9.70575,4.7536c0.67008,0.27557 1.14344,1.0002 1.85602,1.13123c1.62483,0.29878 3.39314,-0.41803 4.95474,0.12118c4.91956,1.69867 8.7565,5.60998 12.72246,8.60138c0.78419,0.59149 1.86098,0.69676 2.65983,1.2683c4.81923,3.44796 10.54021,7.29027 14.77466,11.52473c2.05316,2.05316 3.70073,4.49101 5.28552,6.92398c1.47448,2.26362 2.98421,1.26479 5.22499,3.58653c0.44713,0.46329 -0.39498,1.56993 0.14118,1.92642c0.55703,0.37037 1.38839,-0.94159 1.93015,-0.54922c2.69616,1.95276 5.37013,4.19488 7.06197,7.06197c1.35783,2.30106 0.5709,8.9448 0.5709,11.87913c0,4.37705 0.08082,7.01613 1.25025,11.5885c0.93854,3.66961 2.41559,5.84764 3.15741,9.73265c0.55943,2.92982 0.26348,7.18131 0.09684,10.21038c-0.13543,2.46184 0.2878,5.06343 -0.5709,7.37463c-0.68897,1.85435 -2.68516,2.9177 -3.84778,4.5182c-0.88881,1.22357 -1.21315,2.85161 -2.28252,3.92098c-1.06937,1.06937 -2.71888,1.36488 -3.92098,2.28252c-1.12524,0.85897 -1.87057,2.15353 -3.003,3.003c-0.82984,0.62248 -2.07069,0.61742 -2.80296,1.3522c-3.24592,3.25701 -5.8536,7.09982 -8.98036,10.47139c-3.4546,3.72507 -7.1664,7.20309 -10.75025,10.80399c-4.69132,4.71364 -9.18895,9.62941 -14.08599,14.12895c-1.75251,1.61025 -3.27382,3.63461 -5.43618,4.6288c-2.73334,1.25671 -9.01292,0.2657 -11.74626,0c-5.76076,-4.90597 -12.50629,-9.01577 -19.51952,-12.01201c-2.11012,-0.9015 -4.15653,-1.99424 -6.36053,-2.63273c-1.69791,-0.49188 -3.87664,0.2262 -5.22284,-0.91949c-5.52013,-4.69792 -4.82471,-6.87814 -5.05852,-12.38589l9.0015,-7.5c0,0 7.4401,0 7.49964,7.41033z" fill="url(#color-1)"/><path d="M554.02901,291.23533c1.29034,-0.55232 2.93331,-0.73303 5.00393,-0.15423c7.22312,2.01905 5.20407,9.24217 5.20407,9.24217l-9.64638,6.65014c-0.96405,-0.26948 -1.92809,-0.53895 -2.89214,-0.80843c-2.96545,-1.35308 -7.86303,1.47868 -11.06766,1.37515c-2.00096,-0.06464 -3.7824,-1.59468 -5.78428,-1.61686c-1.91304,-0.02119 -5.11838,0.84699 -6.99806,1.4594c-2.00858,0.65441 -2.99074,3.08383 -4.86073,4.06658c-2.66878,1.40255 -10.75724,2.9722 -13.8744,2.8715c-6.55036,-0.21162 -12.90869,-4.41521 -19.32936,-5.2953c-3.13612,-0.42987 -6.32112,0.36271 -9.48485,0.46685c-2.35827,-0.61625 -4.60793,-1.93188 -7.03562,-2.01693c0.80453,0.60571 1.89323,0.85393 2.67469,1.50687c3.57131,2.98395 6.94643,6.19604 10.35834,9.36102c0.40239,0.37327 0.57575,1.021 1.07633,1.2461c1.25262,0.56327 2.81247,0.32321 3.98907,1.03169c14.34704,8.63897 26.80035,21.28572 39.63048,31.89175c0,0 5.78055,4.77862 1.00194,10.55917c-4.77862,5.78055 -10.55917,1.00194 -10.55917,1.00194c-9.25615,-7.65199 -18.18914,-15.84379 -27.63933,-23.24674c-2.94292,-2.30538 -5.76907,-4.80569 -8.98479,-6.71219c-1.40214,-0.83129 -3.25443,-0.61656 -4.68734,-1.3936c-5.26844,-2.85698 -8.86894,-8.06716 -13.44458,-11.93787c-1.51228,-1.2793 -3.45037,-2.0449 -4.81939,-3.47647c-1.84507,-1.92937 -2.67162,-5.21834 -5.16921,-6.72643c-1.51325,-0.91373 -4.26188,-0.60225 -4.78249,-2.29157c-1.36414,-4.42646 -2.50772,-9.87488 -0.20559,-13.89415c1.47169,-2.56942 5.86881,-0.79611 8.81098,-1.12991c7.62214,-0.86476 14.221,-0.93267 21.45762,1.32079c2.17304,-0.16652 7.96091,-0.6617 9.48485,-0.46685c4.63019,0.59202 9.6463,2.59584 14.19771,3.86808c1.37642,0.38475 2.64164,1.33037 4.07073,1.3462c1.66517,0.01844 3.20632,-0.97429 4.86282,-1.14501c0.35088,-0.03616 0.75288,0.3943 1.04091,0.19066c0.60042,-0.42452 0.65849,-1.38437 1.25519,-1.8141c1.79866,-1.29532 3.74478,-2.41827 5.79421,-3.2626c2.83241,-1.16689 9.79136,-2.46299 12.78006,-2.36644c2.00096,0.06464 3.7824,1.59468 5.78428,1.61686c3.16691,0.03508 6.58833,-2.01956 9.88906,-1.91292c0.98803,0.03192 1.94402,0.30657 2.8981,0.59568z" fill="url(#color-2)"/></g><path d="" fill="url(#color-3)" stroke="#009c42" stroke-width="12.5" stroke-linecap="round"/><path d="" fill="url(#color-4)" stroke="#009c42" stroke-width="12.5" stroke-linecap="round"/><path d="" fill="url(#color-5)" stroke="#009c42" stroke-width="12.5" stroke-linecap="round"/><path d="" fill="url(#color-6)" stroke="#009c42" stroke-width="12.5" stroke-linecap="round"/><g stroke="none" stroke-linecap="butt"><path d="M299.64393,193.70376c0.80524,65.2108 -46.08508,118.66168 -104.73245,119.38587c-58.64738,0.72419 -106.84325,-51.55254 -107.64849,-116.76334c-0.80524,-65.2108 46.08508,-118.66168 104.73245,-119.38587c58.64738,-0.72419 106.84325,51.55254 107.64849,116.76334z" fill="#1a1a1a" stroke-width="0"/><path d="M213.70969,123.44924c-0.09377,-7.59334 5.98583,-13.82497 13.57918,-13.91872c7.59334,-0.09377 13.82497,5.98583 13.91872,13.57918c0.09377,7.59334 -5.98583,13.82497 -13.57918,13.91872c-7.59334,0.09377 -13.82497,-5.98583 -13.91872,-13.57918z" fill="#ffffff" stroke-width="0.5"/><path d="M220.43044,170.91003c-0.09377,-7.59334 5.98583,-13.82496 13.57917,-13.91872c7.59334,-0.09377 13.82496,5.98583 13.91872,13.57917c0.09377,7.59334 -5.98583,13.82497 -13.57918,13.91872c-7.59334,0.09377 -13.82496,-5.98584 -13.91872,-13.57918z" fill="#ffffff" stroke-width="0.5"/><path d="M171.81475,146.20479c-0.09377,-7.59334 5.98583,-13.82496 13.57917,-13.91872c7.59334,-0.09377 13.82497,5.98583 13.91872,13.57918c0.09377,7.59334 -5.98583,13.82496 -13.57917,13.91872c-7.59334,0.09377 -13.82497,-5.98583 -13.91872,-13.57918z" fill="#ffffff" stroke-width="0.5"/></g><g stroke="none" stroke-linecap="butt"><g><path d="M402.68898,203.20526c0.80524,65.2108 -46.08508,118.66168 -104.73245,119.38587c-58.64738,0.72419 -106.84325,-51.55254 -107.64849,-116.76334c-0.80524,-65.2108 46.08508,-118.66168 104.73245,-119.38587c58.64738,-0.72419 106.84325,51.55254 107.64849,116.76334z" fill="url(#color-7)" stroke-width="0"/><path d="M316.75474,132.95074c-0.09377,-7.59334 5.98583,-13.82497 13.57918,-13.91872c7.59334,-0.09377 13.82497,5.98583 13.91872,13.57918c0.09377,7.59334 -5.98583,13.82497 -13.57918,13.91872c-7.59334,0.09377 -13.82497,-5.98583 -13.91872,-13.57918z" fill="#000000" stroke-width="0.5"/><path d="M323.47549,180.41153c-0.09377,-7.59334 5.98583,-13.82496 13.57917,-13.91872c7.59334,-0.09377 13.82496,5.98583 13.91872,13.57917c0.09377,7.59334 -5.98583,13.82497 -13.57918,13.91872c-7.59334,0.09377 -13.82496,-5.98584 -13.91872,-13.57918z" fill="#000000" stroke-width="0.5"/><path d="M274.8598,155.70629c-0.09377,-7.59334 5.98583,-13.82496 13.57917,-13.91872c7.59334,-0.09377 13.82497,5.98583 13.91872,13.57918c0.09377,7.59334 -5.98583,13.82496 -13.57917,13.91872c-7.59334,0.09377 -13.82497,-5.98583 -13.91872,-13.57918z" fill="#000000" stroke-width="0.5"/></g><path d="M201.64013,154.59949c16.55115,-51.25926 75.8023,-78.55605 126.89806,-62.05768c51.09576,16.49837 87.04215,82.01672 70.49099,133.27599c-2.32595,7.20351 -5.85676,25.20383 -13.514,39.79482c-3.69937,7.04922 -22.25735,31.8562 -42.27101,45.2975c-9.26583,6.22299 -25.77705,5.84978 -28.80214,7.63108c-23.104,13.60462 -28.10768,-27.17081 -55.58091,-36.04168c-26.15288,-8.44453 -54.06884,-30.08982 -65.24443,-53.02503c-6.35519,-13.0425 -3.4715,-59.38545 0.49564,-64.60152c2.68159,-3.5258 7.52781,-10.27347 7.52781,-10.27347z" data-paper-data="{&quot;index&quot;:null}" fill="url(#color-8)" stroke-width="0"/></g></g></g></svg>