<svg xmlns="http://www.w3.org/2000/svg" xmlns:xlink="http://www.w3.org/1999/xlink" version="1.1" width="194.3044312170808" height="137.94218756473705" viewBox="7.52139984708704 19.994400373515262 194.3044312170808 137.94218756473705">
  <!-- Exported by Scratch - http://scratch.mit.edu/ -->
  <g id="ID0.2712148008868098">
    <path id="ID0.7152078151702881_1_" fill="#FAA51D" stroke="#000000" d="M 132.7101 127.4278 C 128.2622 128.2281 122.7354 128.6362 117.1126 126.4536 C 104.5392 121.5731 96.2636 108.7934 90.9995 114.8948 C 85.7302 121.0017 94.3886 143.4367 117.8806 142.4475 C 125.9777 142.1115 132.5425 139.6321 137.8061 137.4703 C 139.1841 136.8965 150.6482 131.3117 152.4774 123.8909 C 154.3059 116.4688 150.9275 116.0761 149.2289 115.7912 C 147.528 115.5098 138.9985 126.2948 132.7101 127.4278 L 132.7101 127.4278 Z " stroke-width="0.9999999610477271"/>
    <path id="ID0.4691764716990292_1_" fill="#FFFFFF" d="M 92.1349 114.967 C 89.1148 117.3186 90.1081 125.5656 94.0988 130.9071 C 98.0921 136.256 101.9037 137.8247 104.9151 139.3884 C 108.2196 140.1755 102.1103 135.7286 104.5484 131.3642 C 106.9786 127.0129 113.8091 126.054 113.8091 126.054 C 113.8091 126.054 106.2072 121.097 101.779 118.0369 C 97.5698 115.0913 95.4579 112.7187 92.1349 114.967 L 92.1349 114.967 Z " stroke-width="0.9999999610477271"/>
  </g>
  <path id="ID0.7115552560426295" fill="#FAA51D" stroke="#000000" stroke-width="1.1999999311040759" d="M 166.9931 115.6799 C 166.2202 117.5148 164.6162 118.9708 162.5312 119.4751 L 144.6174 123.8114 C 142.4561 124.3345 140.1778 123.7174 138.5769 122.1738 L 125.4079 109.4782 C 122.8235 106.9857 122.7511 102.8711 125.2391 100.2869 C 127.7316 97.7025 131.8465 97.6269 134.4304 100.1181 L 145.0293 110.336 L 159.4727 106.8399 C 162.9622 105.9958 166.4741 108.1393 167.3196 111.6282 C 167.6599 113.034 167.5151 114.4425 166.9931 115.6799 L 166.9931 115.6799 Z "/>
  <path id="ID0.10610466729849577" fill="#FAA51D" stroke="#000000" stroke-width="1.2000000334854264" d="M 189.2459 91.7723 C 189.2498 91.7929 189.2538 91.8135 189.2577 91.8341 L 192.8827 111.5868 C 193.3221 113.9707 192.5828 116.4201 190.897 118.1626 C 189.2124 119.9059 186.7872 120.7258 184.3907 120.3643 L 166.5211 117.6755 L 150.1318 129.7778 C 146.7995 132.2382 142.1033 131.5313 139.6429 128.199 C 137.1829 124.8687 137.8892 120.1695 141.2217 117.7101 L 160.1111 103.7636 C 161.7118 102.582 163.7149 102.0841 165.6814 102.3801 L 176.2247 103.9658 L 174.5008 94.5266 C 173.7565 90.4519 176.4571 86.5454 180.5328 85.801 C 184.5855 85.064 188.4737 87.7324 189.2459 91.7723 L 189.2459 91.7723 Z "/>
  <path id="ID0.26425604708492756_1_" fill="#FAA51D" stroke="#231F20" stroke-width="1.1999999359785054" d="M 152.6472 106.7845 C 150.8047 104.7363 147.9005 102.7326 143.4414 100.2121 C 139.7241 98.1113 132.83 96.0581 132.83 96.0581 C 128.0832 94.8148 120.4974 93.4504 119.7249 100.5869 C 119.4131 103.4748 120.1276 108.0792 119.3969 114.7591 C 118.6604 121.4434 115.743 127.5823 124.8487 131.8886 C 133.9582 136.1926 141.3806 148.291 155.3656 131.4609 L 152.6472 106.7845 Z "/>
  <path id="ID0.46752600744366646" fill="#FAA51D" stroke="#000000" stroke-width="1.2000000647370521" d="M 194.4022 105.991 L 200.9518 129.5568 C 201.6812 132.1813 200.93 134.9942 198.9905 136.9074 C 197.0504 138.8187 194.2265 139.5288 191.6136 138.7615 L 168.5307 131.9841 L 150.6256 136.8639 C 146.6408 137.9496 142.5314 135.6106 141.427 131.6372 C 141.4236 131.6247 141.4204 131.6131 141.4169 131.6006 C 140.3277 127.6033 142.6851 123.4815 146.6802 122.3919 L 166.6338 116.9542 C 167.9739 116.589 169.3873 116.603 170.7198 116.9945 L 182.8855 120.5662 L 179.9512 110.0084 C 178.8418 106.0167 181.1772 101.8833 185.1689 100.7739 C 189.1606 99.6645 193.2927 101.9993 194.4022 105.991 L 194.4022 105.991 Z "/>
  <path id="ID0.203311821911484_1_" fill="#FFFFFF" d="M 139.9455 99.4732 C 139.9455 99.4732 134.7158 95.3245 130.5493 104.7584 C 126.3829 114.1922 131.5479 117.9858 134.5851 120.5628 C 139.8307 125.0312 150.2806 113.9939 150.2806 113.9939 L 151.636 107.0267 C 151.636 107.0267 148.3692 104.0763 145.8178 102.8697 C 143.467 101.4428 139.9455 99.4732 139.9455 99.4732 " stroke-width="0.9999999466487545"/>
  <path id="ID0.17305035842582583" fill="#FAA51D" d="M 153.5619 121.201 C 157.1674 124.2373 157.2615 130.0585 153.7716 134.2029 C 150.2828 138.3482 144.5292 139.2474 140.9236 136.2101 C 137.3171 133.1738 135.228 127.5069 138.7178 123.3625 C 144.6563 116.3084 147.0917 115.7557 153.5619 121.201 Z " stroke-width="0.9999999466487545"/>
  <path id="ID0.7115552560426295" fill="#FAA51D" stroke="#000000" stroke-width="1.1999999940132353" d="M 163.1065 136.5034 C 162.2253 138.2888 160.5371 139.6463 158.4257 140.0251 L 140.2847 143.2827 C 138.096 143.6757 135.8587 142.9235 134.3529 141.287 L 121.9665 127.8268 C 119.5357 125.1843 119.7093 121.0727 122.3474 118.6419 C 124.9899 116.2111 129.102 116.3816 131.5323 119.0228 L 141.5014 129.856 L 156.1281 127.2296 C 159.6617 126.5956 163.0393 128.9453 163.6746 132.4785 C 163.9303 133.9022 163.7016 135.2994 163.1065 136.5034 L 163.1065 136.5034 Z "/>
  <g id="ID0.7563453577458858">
    <path id="ID0.4675603983923793_1_" fill="#FAA51D" stroke="#231F20" stroke-width="1.1999999362100031" d="M 47.3619 60.4667 C 45.6019 62.701 42.1266 67.4831 40.4906 70.2967 C 36.1127 77.8195 34.2471 86.4614 34.2471 86.4614 L 8.1214 98.0652 L 39.5388 113.5131 C 38.9766 111.7338 48.7528 142.603 73.4537 143.0943 C 98.1683 143.5849 121.1727 125.2841 134.166 92.6108 C 147.1562 59.933 134.9531 42.2303 124.8908 38.4371 C 114.829 34.643 104.4964 43.4636 104.4964 43.4636 C 104.4964 43.4636 97.4918 39.1246 85.7806 38.6358 C 78.8106 38.3424 65.0243 43.4853 65.0243 43.4853 L 44.3352 36.3529 L 48.0077 55.0557 L 47.3619 60.4667 L 47.3619 60.4667 Z "/>
    <path id="ID0.876089540310204_1_" fill="#FFFFFF" d="M 103.2869 44.7667 L 97.6208 46.535 L 92.6175 63.2645 C 92.6175 63.2645 97.8956 66.6821 94.9934 74.3693 C 92.0947 82.0658 80.2737 89.3986 80.2737 89.3986 L 77.7675 104.8309 C 77.7675 104.8309 70.7654 118.7816 78.4193 124.3976 C 95.4258 136.8843 116.8413 119.9647 122.6326 112.0492 C 125.7952 107.7317 130.3416 98.9993 133.1417 91.9573 C 145.893 61.3228 134.1957 43.2364 124.133 39.4381 C 114.0712 35.644 105.0516 44.562 105.0516 44.562 L 103.2869 44.7667 L 103.2869 44.7667 Z " stroke-width="0.9999999468416693"/>
    <path id="ID0.44282719027251005_1_" fill="none" stroke="#231F20" stroke-width="1.1999999362100031" d="M 54.7404 157.3366 C 54.7404 157.3366 59.4231 151.3706 61.1253 148.3829 C 62.825 145.3973 65.7091 139.3186 65.7091 139.3186 "/>
    <path id="ID0.893105489667505_1_" fill="none" stroke="#231F20" stroke-width="1.1999999362100031" d="M 117.223 42.2867 C 117.223 42.2867 120.622 34.5222 121.6861 30.1504 C 122.9463 25.0193 122.2983 20.5944 122.2983 20.5944 "/>
    <path id="ID0.03574043000116944_1_" fill="none" stroke="#231F20" stroke-width="1.1999999362100031" d="M 59.8443 135.0886 C 59.8443 135.0886 54.7175 136.9917 48.4359 141.1016 C 41.4781 145.6541 38.4795 148.6862 38.4795 148.6862 "/>
    <path id="ID0.6674723788164556_1_" fill="none" stroke="#231F20" stroke-width="1.1999999362100031" d="M 126.8694 47.5226 C 126.8694 47.5226 131.2977 44.4167 134.5376 40.3661 C 137.7333 36.3655 139.351 33.3041 139.351 33.3041 "/>
    <path id="ID0.12165586883202195_1_" fill="none" stroke="#000000" stroke-linecap="round" d="M 47.0891 61.0775 C 51.0077 57.3937 53.2409 56.5464 53.2409 56.5464 " stroke-width="0.9999999468416693"/>
    <path id="ID0.178104005753994_1_" fill="none" stroke="#000000" d="M 27.8314 89.0322 L 40.6137 84.0362 " stroke-width="0.9999999468416693"/>
    <path id="ID0.5430324394255877_1_" fill="#5E4A42" stroke="#000000" d="M 91.1061 73.3316 C 92.9589 70.4701 95.2213 66.0176 96.6793 66.6508 C 98.1423 67.2836 101.4587 73.4899 100.4 75.6051 C 99.3377 77.7277 90.6457 82.7083 88.1581 81.2513 C 85.6676 79.8006 89.3962 75.9723 91.1061 73.3316 L 91.1061 73.3316 Z " stroke-width="0.9999999468416693"/>
    <path id="ID0.5547774969600141_1_" fill="none" stroke="#231F20" stroke-width="1.200000007066907" d="M 129.0405 67.0321 C 129.0957 66.9243 123.9795 84.6001 119.7533 92.5916 C 116.8395 98.1037 109.6835 109.3181 108.7279 107.6873 C 108.2708 106.1983 111.8904 90.9874 115.6348 83.4927 C 118.7457 77.2682 124.1489 72.7772 128.4078 67.697 L 129.0405 67.0321 Z "/>
    <path id="ID0.0627080244012177" fill="none" stroke="#000000" d="M 78.3009 87.1262 C 74.0665 89.2629 67.2806 104.1292 70.0908 111.8292 " stroke-width="0.9999999468416693"/>
    <path id="ID0.6798256845213473" fill="none" stroke="#000000" d="M 95.336 45.4474 C 91.2021 46.3065 83.437 57.8738 85.2683 65.426 " stroke-width="0.9999999468416693"/>
  </g>
</svg>