<svg xmlns="http://www.w3.org/2000/svg" xmlns:xlink="http://www.w3.org/1999/xlink" version="1.1" width="44.49420166015625" height="26.35552406311035" viewBox="0.7081999778747559 0.5384999513626099 44.49420166015625 26.35552406311035">
  <!-- Exported by Scratch - http://scratch.mit.edu/ -->
  <path id="ID0.12919439608231187" fill="#404040" stroke="#333333" d="M 44.7024 23.8351 C 41.6864 27.247 27.742 27.247 24.726 23.8351 L 34.7138 1.0385 L 44.7024 23.8351 Z " stroke-width="0.7552847298489311"/>
  <path id="ID0.7512953788973391" fill="#808080" d="M 39.9023 24.2008 C 36.7963 25.6724 27.6925 25.0509 26.3479 23.3304 L 34.1802 4.5088 L 39.9023 24.2008 Z " stroke-width="0.7552847298489311"/>
  <path id="ID0.27147613279521465" fill="#B3B3B3" d="M 36.2643 24.166 C 32.7894 24.5588 29.5196 24.4114 27.5733 23.0795 L 33.5249 7.8025 L 36.2643 24.166 Z " stroke-width="0.7552847298489311"/>
  <path id="ID0.11133367801085114" fill="#FFFFFF" d="M 34.284 23.3909 C 32.2493 23.6745 30.3354 23.5682 29.196 22.6067 L 32.6807 11.5863 L 34.284 23.3909 Z " stroke-width="0.7552847298489311"/>
  <path id="ID0.043344194535166025" fill="#404040" stroke="#333333" d="M 21.1845 23.8351 C 18.1686 27.247 4.2241 27.247 1.2082 23.8351 L 11.196 1.0385 L 21.1845 23.8351 Z " stroke-width="0.7552847298489311"/>
  <path id="ID0.42498049000278115" fill="#808080" d="M 16.3845 24.2008 C 13.2785 25.6724 4.1747 25.0509 2.8301 23.3304 L 10.6624 4.5088 L 16.3845 24.2008 Z " stroke-width="0.7552847298489311"/>
  <path id="ID0.37005876982584596" fill="#B3B3B3" d="M 12.7465 24.166 C 9.2716 24.5588 6.0018 24.4114 4.0555 23.0795 L 10.0071 7.8025 L 12.7465 24.166 Z " stroke-width="0.7552847298489311"/>
  <path id="ID0.6777598522603512" fill="#FFFFFF" d="M 10.7662 23.3909 C 8.7315 23.6745 6.8176 23.5682 5.6782 22.6067 L 9.1629 11.5863 L 10.7662 23.3909 Z " stroke-width="0.7552847298489311"/>
</svg>