<svg version="1.1" width="21" height="28" viewBox="-1 -1 21 28" xmlns="http://www.w3.org/2000/svg" xmlns:xlink="http://www.w3.org/1999/xlink">
  <!-- Exported by Scratch - http://scratch.mit.edu/ -->
  <g id="ID0.4881619568914175" transform="matrix(1, 0, 0, 1, -176.75, -165)">
    <path id="ID0.03944232827052474" fill="none" stroke="#000000" stroke-width="1" stroke-linecap="round" d="M 189.750 176.500 L 190.500 173 L 192 170.750 L 194 170.250 "/>
    <path id="ID0.3679896113462746" fill="#7F7F7F" stroke="#000000" stroke-width="1" stroke-linecap="round" d="M 186.500 173.750 C 188.914 173.750 191.102 174.702 192.686 176.241 C 194.270 177.780 195.250 179.905 195.250 182.250 C 195.250 184.595 194.270 186.720 192.686 188.259 C 191.102 189.798 188.914 190.750 186.500 190.750 C 184.086 190.750 181.898 189.798 180.314 188.259 C 178.730 186.720 177.750 184.595 177.750 182.250 C 177.750 179.905 178.730 177.780 180.314 176.241 C 181.898 174.702 184.086 173.750 186.500 173.750 Z " transform="matrix(1, 0, 0, 1.0694444179534912, 0, -12)"/>
    <path id="ID0.17523644026368856" fill="none" stroke="#FF0000" stroke-width="1" stroke-linecap="round" d="M 199 163 C 199 163 199.787 164.529 200.250 165.250 C 200.538 165.698 200.936 166.069 201.250 166.500 C 201.603 166.986 201.906 167.508 202.250 168 C 202.489 168.341 202.750 168.667 203 169 C 203.062 169.083 203 169 203 169 " transform="matrix(1, 0, 0, 1, -6.5, 3.5)"/>
    <path id="ID0.48264634422957897" fill="none" stroke="#FF0000" stroke-width="1" stroke-linecap="round" d="M 202.250 162.750 C 202.250 162.750 201.697 163.556 201.500 164 C 201.361 164.314 201.371 164.679 201.250 165 C 201.119 165.349 200.917 165.667 200.750 166 C 200.583 166.333 200.381 166.651 200.250 167 C 200.129 167.321 200.109 167.674 200 168 C 199.941 168.177 199.750 168.500 199.750 168.500 " transform="matrix(1, 0, 0, 1, -6.5, 3.5)"/>
    <path id="ID0.5914430255070329" fill="none" stroke="#FF0000" stroke-width="1" stroke-linecap="round" d="M 200.500 163.250 C 200.500 163.250 200.645 164.421 200.750 165 C 200.811 165.338 200.957 165.659 201 166 C 201.041 166.330 200.959 166.670 201 167 C 201.043 167.341 201.250 167.657 201.250 168 C 201.250 168.186 201 168.500 201 168.500 " transform="matrix(1, 0, 0, 1, -6.5, 3.5)"/>
    <path id="ID0.13578250631690025" fill="none" stroke="#FF0000" stroke-width="1" stroke-linecap="round" d="M 199.250 165.750 C 199.250 165.750 200.076 166 200.500 166 C 200.843 166 201.159 165.793 201.500 165.750 C 201.830 165.709 202.172 165.695 202.500 165.750 C 202.684 165.781 203 166 203 166 " transform="matrix(1, 0, 0, 1, -6.5, 3.5)"/>
    <path id="ID0.32910319278016686" fill="none" stroke="#FF9400" stroke-width="1" stroke-linecap="round" d="M 200.750 165.500 C 201.000 165.916 201.259 166.329 201.500 166.750 C 201.592 166.912 201.750 167.250 201.750 167.250 " transform="matrix(1, 0, 0, 1, -6.5, 3.5)"/>
    <path id="ID0.5106396246701479" fill="none" stroke="#FF9400" stroke-width="1" stroke-linecap="round" d="M 201.250 165 C 200.701 166.106 200.831 166.345 200.750 166.500 C 200.590 166.815 200.193 167.314 200 167.250 C 199.818 167.189 199.851 166.548 200 166.250 C 200.074 166.101 200.364 166.205 200.500 166.250 Z " transform="matrix(1, 0, 0, 1, -6.5, 3.5)"/>
    <path id="ID0.004027002025395632" fill="none" stroke="#FFFF00" stroke-width="1" stroke-linecap="round" d="M 200.750 166.250 C 201.186 165.955 202.093 166.380 202.250 166.750 C 202.336 166.946 201.510 166.958 201.250 166.750 C 200.982 166.536 201.127 166.069 201 165.750 C 200.956 165.641 200.641 165.413 200.750 165.500 Z " transform="matrix(1, 0, 0, 1, -6.5, 3.5)"/>
  </g>
</svg>