<svg xmlns="http://www.w3.org/2000/svg" xmlns:xlink="http://www.w3.org/1999/xlink" version="1.1" width="79.5" height="80.25" viewBox="-0.25 -0.25 79.5 80.25">
  <!-- Exported by Scratch - http://scratch.mit.edu/ -->
  <g id="ID0.9427086170762777">
    <path id="ID0.033297700341790915_4_" fill="none" d="M 0.5 0.5 L 78.5 0.5 L 78.5 79.25 L 0.5 79.25 L 0.5 0.5 Z " stroke-width="1"/>
    <path id="ID0.6428824830800295_4_" fill="#7F7F7F" d="M 16 16 L 64 16 L 64 64 L 16 64 L 16 16 Z " stroke-width="1"/>
    <path id="ID0.14449769724160433_14_" fill="#C4482B" stroke="#000000" stroke-width="1.5" d="M 64.01 30.14 L 64 35.79 C 64 37.99 62.21 39.77 60 39.77 L 53.54 40.45 L 38.41 39.55 L 27.32 39.76 L 20 39.76 C 17.8 39.76 16 37.98 16 35.78 L 15.85 31.51 L 16 19.98 C 16 17.78 17.79 16 20 16 L 29.47 16.8 L 47.68 16 L 56.89 16.38 L 60.01 16 C 62.21 16 64.01 17.78 64.01 19.98 L 64.01 30.14 Z "/>
    <path id="ID0.3559804647229612_3_" fill="#C4482B" stroke="#000000" stroke-width="1.5" d="M 15 64.02 L 27.89 64.39 L 36.02 64.02 C 38.22 64.02 40.01 62.24 40.01 60.04 L 39.24 48.24 L 40.01 44.25 C 40.01 42.05 38.23 40.27 36.02 40.27 L 26.87 40.27 L 19.56 39.88 L 15.02 40.27 "/>
    <path id="ID0.14449769724160433_13_" fill="#C4482B" stroke="#000000" stroke-width="1.5" d="M 64.01 54.17 L 64 59.82 C 64 62.02 62.21 63.8 60 63.8 L 55.89 64.23 L 43.66 64.01 C 41.46 64.01 39.66 62.23 39.66 60.03 L 39.5 55.76 L 39.65 44.23 C 39.65 42.03 41.44 40.25 43.65 40.25 L 52.85 40.83 L 60.01 40.03 C 62.21 40.03 64.01 41.81 64.01 44.01 L 64.01 54.17 Z "/>
    <path id="ID0.14449769724160433_12_" fill="#E3674B" d="M 59.06 28.37 L 28.42 34.74 L 22.32 34.74 C 20.48 34.74 18.98 33.56 18.98 32.1 L 18.85 29.27 L 18.98 21.64 C 18.98 20.18 20.47 19 22.32 19 L 30.23 19.53 L 45.44 19 L 53.13 19.25 L 55.73 19 C 57.57 19 59.07 20.18 59.07 21.64 L 59.07 28.37 Z " stroke-width="1"/>
    <path id="ID0.8233107249252498" fill="#E3674B" d="M 31.61 43.56 L 29.01 43.81 L 21.32 43.56 L 15 43.78 L 15 57.07 L 34.96 52.92 L 34.96 46.2 C 34.96 44.73 33.45 43.56 31.61 43.56 Z " stroke-width="1"/>
    <path id="ID0.14449769724160433_11_" fill="#E3674B" d="M 60.36 52.91 L 48.72 59.28 L 46.62 59.28 C 44.78 59.28 43.28 58.1 43.28 56.64 L 43.15 53.81 L 43.28 46.18 C 43.28 44.72 44.77 43.54 46.62 43.54 L 54.42 43.79 L 57.02 43.54 C 58.86 43.54 60.36 44.72 60.36 46.18 L 60.36 52.91 Z " stroke-width="1"/>
  </g>
</svg>