<svg version="1.1" xmlns="http://www.w3.org/2000/svg" xmlns:xlink="http://www.w3.org/1999/xlink" width="386.01695" height="465.91926" viewBox="0,0,386.01695,465.91926"><defs><linearGradient x1="206.67486" y1="379.96173" x2="206.67486" y2="491.22735" gradientTransform="translate(-32.67954,-199.91551) scale(0.43139,0.43139)" gradientUnits="userSpaceOnUse" id="color-1"><stop offset="0" stop-color="#1a1a1a" stop-opacity="0"/><stop offset="1" stop-color="#1a1a1a"/></linearGradient><linearGradient x1="210.8043" y1="25.85902" x2="210.8043" y2="379.47976" gradientUnits="userSpaceOnUse" id="color-2"><stop offset="0" stop-color="#a27d3d"/><stop offset="1" stop-color="#ffdc00"/></linearGradient><linearGradient x1="221.12455" y1="41.24307" x2="221.12455" y2="97.8638" gradientUnits="userSpaceOnUse" id="color-3"><stop offset="0" stop-color="#000000"/><stop offset="1" stop-color="#000000" stop-opacity="0"/></linearGradient></defs><g transform="translate(-25.85237,-25.85903)"><g data-paper-data="{&quot;isPaintingLayer&quot;:true}" fill-rule="nonzero" stroke-linejoin="miter" stroke-miterlimit="10" stroke-dasharray="" stroke-dashoffset="0" style="mix-blend-mode: normal"><text transform="matrix(2.31807 0 0 2.31807 75.75347 405.4664)" font-size="40"  fill="url(#color-1)" fill-rule="nonzero" stroke="none" stroke-width="1" stroke-linecap="butt" stroke-linejoin="miter" stroke-miterlimit="10" stroke-dasharray="" stroke-dashoffset="0" font-family="Helvetica" font-weight="normal" text-anchor="start" style="mix-blend-mode: normal" >Notes</text><text transform="matrix(2.31807 0 0 2.31807 70.75346 400.46639)" font-size="40"  fill="#ffffff" fill-rule="nonzero" stroke="none" stroke-width="1" stroke-linecap="butt" stroke-linejoin="miter" stroke-miterlimit="10" stroke-dasharray="" stroke-dashoffset="0" font-family="Helvetica" font-weight="normal" text-anchor="start" style="mix-blend-mode: normal" >Notes</text><path d="M393.29292,201.00907c0,58.54548 9.14947,134.33922 -36.62674,165.7421c-29.11266,19.97154 -103.69001,7.68133 -142.05194,7.68133c-32.45404,0 -131.95625,12.62302 -158.18752,-2.05614c-53.52897,-29.9551 -20.49116,-107.08769 -20.49116,-171.36729c0,-54.03495 -6.07011,-123.319 33.84333,-155.12451c30.83473,-24.57103 101.82621,-18.29891 144.83535,-18.29891c46.24992,0 124.43168,-9.9717 156.16106,18.01246c35.97026,31.72447 22.51762,104.52148 22.51762,155.41097z" fill="url(#color-2)" stroke="none" stroke-width="0" stroke-linecap="butt"/><path d="M404.21987,121.73539l-345.01426,6.17454" fill="none" stroke="#00bfff" stroke-width="5" stroke-linecap="round"/><path d="M409.36932,200.97543l-358.40284,10.29093" fill="none" stroke="#00bfff" stroke-width="5" stroke-linecap="round"/><path d="M401.13016,283.30278l-362.52243,11.32001" fill="none" stroke="#00bfff" stroke-width="5" stroke-linecap="round"/><path d="M85.353,34.91472l-11.3288,338.57122" fill="none" stroke="#ff0000" stroke-width="5" stroke-linecap="round"/><path d="M403.61317,69.28759c0,9.37413 9.14947,21.51001 -36.62674,26.53815c-29.11266,3.19779 -103.69001,1.22991 -142.05194,1.22991c-32.45404,0 -131.95625,2.02116 -158.18752,-0.32922c-53.52897,-4.79632 -20.49116,-17.14657 -20.49116,-27.43884c0,-8.65192 -6.07011,-19.74548 33.84333,-24.83809c30.83473,-3.93424 101.82621,-2.92997 144.83535,-2.92997c46.24992,0 124.43168,-1.59664 156.16106,2.8841c35.97026,5.07963 22.51762,16.73568 22.51762,24.88396z" fill="url(#color-3)" stroke="none" stroke-width="0" stroke-linecap="butt"/><path d="M405.61317,60.28759c0,9.37413 9.14947,21.51001 -36.62674,26.53815c-29.11266,3.19779 -103.69001,1.22991 -142.05194,1.22991c-32.45404,0 -131.95625,2.02116 -158.18752,-0.32922c-53.52897,-4.79632 -20.49116,-17.14657 -20.49116,-27.43884c0,-8.65192 -6.07011,-19.74548 33.84333,-24.83809c30.83473,-3.93424 101.82621,-2.92997 144.83535,-2.92997c46.24992,0 124.43168,-1.59664 156.16106,2.8841c35.97026,5.07963 22.51762,16.73568 22.51762,24.88396z" fill="#2e2402" stroke="none" stroke-width="0" stroke-linecap="butt"/><path d="M406.61317,54.28759c0,9.37413 9.14947,21.51001 -36.62674,26.53815c-29.11266,3.19779 -103.69001,1.22991 -142.05194,1.22991c-32.45404,0 -131.95625,2.02116 -158.18752,-0.32922c-53.52897,-4.79632 -20.49116,-17.14657 -20.49116,-27.43884c0,-8.65192 -6.07011,-19.74548 33.84333,-24.83809c30.83473,-3.93424 101.82621,-2.92997 144.83535,-2.92997c46.24992,0 124.43168,-1.59664 156.16106,2.8841c35.97026,5.07963 22.51762,16.73568 22.51762,24.88396z" fill="#4f3e04" stroke="none" stroke-width="0" stroke-linecap="butt"/></g></g></svg>