<svg xmlns="http://www.w3.org/2000/svg" xmlns:xlink="http://www.w3.org/1999/xlink" version="1.1" width="177.5648371696472" height="167.8687159538269" viewBox="-0.28676662445068346 1.4099332332611085 177.5648371696472 167.8687159538269">
  
  <g id="ID0.9484398658387363">
    <g id="Layer_3">
      <path id="ID0.3332494683563709" fill="#FAA51D" stroke="#000000" d="M 58.462 142.039 C 56.047 141.588 53.158 140.73 50.72 138.536 C 45.268 133.629 43.526 125.535 39.672 127.622 C 35.816 129.71 35.89 142.787 48.025 146.816 C 52.207 148.207 56.023 148.212 59.116 148.128 C 59.927 148.103 66.833 147.474 69.195 144.054 C 71.556 140.634 69.914 139.782 69.105 139.31 C 68.295 138.838 61.878 142.677 58.462 142.039 Z " stroke-width="1"/>
      <path id="ID0.6104611339978874" fill="#FFFFFF" d="M 40.236 127.877 C 38.247 128.49 37.161 132.875 38.16 136.361 C 39.158 139.851 40.794 141.383 42.023 142.759 C 43.551 143.797 41.303 140.357 43.384 138.609 C 45.459 136.865 49.117 137.695 49.117 137.695 C 49.117 137.695 46.208 133.708 44.547 131.299 C 42.975 128.988 42.359 127.375 40.236 127.877 Z " stroke-width="1"/>
    </g>
    <g id="ID0.5703156087547541">
      <path id="ID0.7303501446731389" fill="#FAA51D" d="M 74.217 149.756 C 74.217 149.756 65.385 155.956 57.146 158.168 L 57.232 158.383 C 58.479 160.207 63.102 165.88 56.898 167.879 C 51.565 169.596 41.778 154.775 46.077 151.977 C 48.703 150.264 50.969 151.725 50.969 151.725 C 50.969 151.725 54.443 150.655 56.97 149.38 C 61.273 147.219 62.754 145.927 62.754 145.927 C 62.754 145.927 66.938 141.621 69.61 141.79 C 72.281 141.96 77.669 146.504 74.217 149.756 Z " stroke-width="1"/>
      <path id="ID0.730161692481488" fill="none" stroke="#231F20" stroke-width="1.2" d="M 57.232 158.383 C 58.479 160.207 63.102 165.88 56.898 167.879 C 51.565 169.596 41.569 154.535 45.868 151.734 C 48.494 150.021 50.969 151.724 50.969 151.724 C 50.969 151.724 54.443 150.652 56.97 149.376 C 61.273 147.215 62.754 145.923 62.754 145.923 "/>
      <path id="ID0.6963182277977467" fill="none" stroke="#231F20" stroke-width="1.2" d="M 74.217 149.756 C 74.217 149.756 64.094 156.863 55.413 158.575 "/>
    </g>
    <path id="ID0.26618277095258236" fill="#FAA51D" stroke="#231F20" stroke-width="1.2" d="M 88.169 137.885 C 88.169 137.885 89.404 138.05 92.913 141.561 C 96.422 145.069 98.939 143.721 101.824 142.285 C 104.701 140.842 112.361 136.159 108.314 132.468 C 104.265 128.78 102.107 133.614 98.599 134.873 C 95.087 136.133 93.538 132.386 91.741 130.586 C 91.152 129.993 90.553 129.487 90.012 129.081 C 90.012 129.081 89.041 128.321 88.106 131.871 C 87.172 135.412 86.162 136.415 88.169 137.885 Z "/>
    <g id="Layer_2_1_">
      <path id="ID0.050346181727945805" fill="#FAA51D" stroke="#231F20" stroke-width="1.2" d="M 82.753 145.012 C 83.941 144.1 85.15 142.61 86.704 140.299 C 88 138.372 89.404 134.721 89.404 134.721 C 90.279 132.2 91.338 128.145 87.502 127.425 C 85.949 127.134 83.423 127.327 79.832 126.649 C 76.239 125.968 73.034 124.127 70.315 128.882 C 67.597 133.639 60.725 137.153 69.259 145.445 C 69.259 145.445 74.16 149.287 80.023 155.084 C 84.854 159.859 92.068 165.686 92.068 165.686 C 92.068 165.686 111.04 167.874 111.603 164.993 C 113.525 155.203 96.826 158.082 96.826 158.082 C 96.826 158.082 92.221 154.149 90.101 152.288 C 86.623 149.229 78.976 141.517 78.976 141.517 "/>
      <path id="ID0.742171126883477" fill="#FFFFFF" d="M 87.253 138.434 C 87.253 138.434 89.723 135.774 84.784 133.117 C 79.845 130.46 77.571 133.1 76.045 134.638 C 73.401 137.293 79.488 141.249 79.488 141.249 L 82.664 144.453 C 82.664 144.453 84.402 142.806 85.163 141.474 C 86.036 140.26 87.253 138.434 87.253 138.434 " stroke-width="1"/>
    </g>
    <path id="ID0.009812458418309689" fill="#FAA51D" stroke="#231F20" stroke-width="1.2" d="M 65.926 136.218 C 66.675 135.647 68.815 134.016 70.78 132.561 C 73.208 130.762 76.897 126.712 71.857 124.915 C 66.817 123.114 64.35 126.519 60.338 129.861 C 58.179 131.662 55.03 132.56 56.019 136.07 C 57.012 139.581 60.881 149.478 67.808 146.24 C 74.737 143.001 66.009 137.06 64.748 135.083 "/>
  </g>
  <g id="ID0.23403690615668893">
    <g id="Layer_2">
      <path id="ID0.9297396447509527" fill="#FAA51D" stroke="#231F20" stroke-width="2.5233332633972165" d="M 91.1714 20.5641 C 87.9331 20.2634 81.1832 19.8997 77.4655 20.0784 C 67.5236 20.5515 58.0695 24.1326 58.0695 24.1326 L 30.6955 6.2674 L 35.3952 46.0225 C 36.7536 44.3781 13.2004 72.9464 28.0797 96.9602 C 42.9673 120.9865 74.8307 131.6938 114.2683 123.8589 C 153.7059 116.0176 163.1137 93.3034 160.5 81.286 C 157.8883 69.2708 143.0007 64.836 143.0007 64.836 C 143.0007 64.836 142.8114 55.4156 136.0026 43.8713 C 131.9527 36.9994 118.4486 26.9629 118.4486 26.9629 L 112.4368 2.6716 L 96.7669 17.82 L 91.1714 20.5641 Z "/>
      <path id="ID0.6379891382530332" fill="#FFFFFF" d="M 141.0304 64.5332 L 135.8113 60.1931 L 116.6445 65.7886 C 116.6445 65.7886 116.6445 72.978 107.4616 74.9714 C 98.2725 76.9711 83.8874 70.1834 83.8874 70.1834 L 67.5173 77.3686 C 67.5173 77.3686 49.7761 79.32 49.1411 90.1556 C 47.7259 114.2387 77.2742 124.2794 88.4714 124.9187 C 94.58 125.2699 105.7878 124.2079 114.2872 122.5194 C 151.6158 115.719 161.707 93.2509 159.0974 81.2314 C 156.4858 69.2161 142.3215 66.0998 142.3215 66.0998 L 141.0304 64.5332 Z " stroke-width="2.1027777194976807"/>
      <path id="ID0.18055897066369653" fill="none" stroke="#231F20" stroke-width="2.5233332633972165" d="M 2.779 87.8509 C 2.779 87.8509 11.4152 88.6374 15.341 88.4145 C 19.2627 88.1895 26.8895 87.1801 26.8895 87.1801 "/>
      <path id="ID0.4344127029180527" fill="none" stroke="#231F20" stroke-width="2.5233332633972165" d="M 152.0405 76.3193 C 152.0405 76.3193 161.6061 74.7569 166.4635 73.0621 C 172.1725 71.0813 176.0164 67.7105 176.0164 67.7105 "/>
      <path id="ID0.8373628221452236" fill="none" stroke="#231F20" stroke-width="2.5233332633972165" d="M 27.3058 78.9225 C 27.3058 78.9225 22.2928 75.1859 14.4432 71.71 C 5.7503 67.8598 0.9749 66.8673 0.9749 66.8673 "/>
      <path id="ID0.14957254519686103" fill="none" stroke="#231F20" stroke-width="2.5233332633972165" d="M 153.0099 88.8329 C 153.0099 88.8329 158.7421 91.1544 164.6446 91.7453 C 170.4693 92.3256 174.4141 91.9766 174.4141 91.9766 "/>
      <path id="ID0.09430623613297939" fill="none" stroke="#000000" stroke-linecap="round" d="M 90.4165 20.6819 C 96.3884 22.1538 98.59 23.7709 98.59 23.7709 " stroke-width="2.1027777194976807"/>
      <path id="ID0.7991216699592769" fill="none" stroke="#000000" d="M 51.6161 19.5716 L 64.3547 28.7355 " stroke-width="2.1027777194976807"/>
    </g>
    <g id="Layer_5">
      <path id="ID0.8860019026324153" fill="#FFFFFF" stroke="#231F20" d="M 131.3997 44.1363 C 137.5482 53.5546 137.7774 64.304 131.9085 68.1395 C 126.0355 71.9771 116.2933 67.4414 110.1364 58.0188 C 103.9689 48.5984 103.7502 37.8553 109.6233 34.0156 C 115.4921 30.1822 125.2448 34.7116 131.3997 44.1363 Z " stroke-width="2.1027777194976807"/>
      <path id="ID0.0714525175280869" fill="#231F20" d="M 129.8205 59.1838 C 129.8205 61.4548 128.134 63.2968 126.0355 63.2968 C 123.9474 63.2968 122.2442 61.4526 122.2442 59.1838 C 122.2442 56.9128 123.9474 55.0665 126.0355 55.0665 C 128.134 55.0665 129.8205 56.9128 129.8205 59.1838 " stroke-width="2.1027777194976807"/>
    </g>
    <g id="Layer_7">
      <path id="ID0.797677946742624" fill="#FFFFFF" stroke="#231F20" d="M 80.9898 50.9766 C 87.1425 60.3971 86.4969 71.7142 79.5578 76.2415 C 72.6144 80.7814 61.9975 76.8134 55.8468 67.393 C 49.6899 57.9726 50.3292 46.6596 57.2725 42.1239 C 64.218 37.5903 74.8307 41.552 80.9898 50.9766 Z " stroke-width="2.1027777194976807"/>
      <path id="ID0.10308482823893428" fill="#231F20" d="M 77.23 63.3578 C 77.23 65.6309 75.5415 67.4729 73.4429 67.4729 C 71.3569 67.4729 69.6516 65.6267 69.6516 63.3578 C 69.6516 61.0868 71.3569 59.2426 73.4429 59.2426 C 75.5373 59.2426 77.23 61.0868 77.23 63.3578 " stroke-width="2.1027777194976807"/>
    </g>
    <path id="ID0.2920343307778239" fill="#5E4A42" stroke="#000000" d="M 106.0107 70.5472 C 109.9093 70.5472 115.5889 69.95 115.8875 71.7436 C 116.1882 73.5415 112.2938 80.5816 109.6044 80.8802 C 106.9065 81.1788 96.7248 75.9324 96.5777 72.6394 C 96.422 69.3465 102.4129 70.5472 106.0107 70.5472 Z " stroke-width="2.1027777194976807"/>
    <g id="Layer_4">
      <path id="ID0.29903274588286877" fill="none" stroke="#231F20" stroke-width="2.5233332633972165" d="M 78.6914 85.9164 C 78.6914 85.9164 100.4489 92.3382 108.5866 94.1109 C 116.7202 95.8814 131.4039 97.652 131.4039 97.652 C 131.4039 97.652 114.6027 119.1949 94.9669 113.7256 C 75.3312 108.2647 75.6866 95.8835 78.6914 85.9164 Z "/>
    </g>
  </g>
</svg>