<svg xmlns="http://www.w3.org/2000/svg" xmlns:xlink="http://www.w3.org/1999/xlink" version="1.1" width="270.3689341202633" height="129.4666361466305" viewBox="-0.6844670601316457 -0.6844670601316457 270.3689341202633 129.4666361466305">
  <!-- Exported by Scratch - http://scratch.mit.edu/ -->
  <path id="ID0.4177084397524595_15_" fill="none" d="M 269 0 L 0 0 L 0 12.0005 L 269 12.0005 L 269 0 Z " stroke-width="1.3689341202632914"/>
  <path id="ID0.6827319422736764" fill="#FFFFFF" d="M 39.05 29.43 L 39.18 26.19 C 46.79 28.24 54.26 30.35 61.8 30.58 C 63.69 30.64 65.57 30.64 67.44 30.57 C 85.06 31.19 101.9 20.27 118.15 22.73 C 121.07 23.09 132.34 25.14 137.06 26.19 C 137.06 26.19 137.06 26.9 137.06 27.69 C 137.06 28.22 137.06 28.79 137.06 29.19 L 137.06 42.26 L 39.06 42.26 L 39.06 29.44 C 39.06 29.44 39.06 29.44 39.05 29.43 Z " stroke-width="1"/>
  <path id="ID0.6534432582557201" fill="#BBD8ED" d="M 39.05 32.43 L 39.18 29.19 C 46.79 31.24 54.26 33.35 61.8 33.58 C 63.69 33.64 65.57 33.64 67.44 33.57 C 85.06 34.19 101.9 23.27 118.15 25.73 C 121.07 26.09 132.34 28.14 137.06 29.19 C 137.06 29.19 137.06 29.9 137.06 30.69 C 137.06 31.22 137.06 31.79 137.06 32.19 L 137.06 47.26 L 39.06 47.26 L 39.06 32.44 C 39.06 32.44 39.06 32.44 39.05 32.43 Z " stroke-width="1"/>
  <path id="ID0.7802803465165198" fill="#95BFDE" d="M 39.05 42.43 L 39.18 39.19 C 46.79 41.24 54.26 43.35 61.8 43.58 C 63.69 43.64 65.57 43.64 67.44 43.57 C 85.06 44.19 101.9 33.27 118.15 35.73 C 121.07 36.09 132.34 38.14 137.06 39.19 C 137.06 39.19 137.06 39.9 137.06 40.69 C 137.06 41.22 137.06 41.79 137.06 42.19 L 137.06 62.26 L 39.06 62.26 L 39.06 42.44 C 39.06 42.44 39.06 42.44 39.05 42.43 Z " stroke-width="1"/>
  <path id="ID0.6625757529400289" fill="#79AED4" d="M 39.05 54.8536 L 39.18 53.1372 C 46.79 54.2232 54.26 55.341 61.8 55.4628 C 63.69 55.4946 65.57 55.4946 67.44 55.4576 C 85.06 55.786 101.9 50.0011 118.15 51.3043 C 121.07 51.495 132.34 52.581 137.06 53.1372 C 137.06 53.1372 137.06 53.5133 137.06 53.9319 C 137.06 54.2126 137.06 54.5146 137.06 54.7265 L 137.06 128.0977 L 39.06 128.0977 L 39.06 54.8589 C 39.06 54.8589 39.06 54.8589 39.05 54.8536 Z " stroke-width="0.800200342750945"/>
  <path id="ID0.6827319422736764" fill="#FFFFFF" d="M 135.8 29.43 L 135.93 26.19 C 143.54 28.24 151.01 30.35 158.55 30.58 C 160.44 30.64 162.32 30.64 164.19 30.57 C 181.81 31.19 198.65 20.27 214.9 22.73 C 217.82 23.09 229.09 25.14 233.81 26.19 C 233.81 26.19 233.81 26.9 233.81 27.69 C 233.81 28.22 233.81 28.79 233.81 29.19 L 233.81 42.26 L 135.81 42.26 L 135.81 29.44 C 135.81 29.44 135.81 29.44 135.8 29.43 Z " stroke-width="1"/>
  <path id="ID0.6534432582557201" fill="#BBD8ED" d="M 135.8 32.43 L 135.93 29.19 C 143.54 31.24 151.01 33.35 158.55 33.58 C 160.44 33.64 162.32 33.64 164.19 33.57 C 181.81 34.19 198.65 23.27 214.9 25.73 C 217.82 26.09 229.09 28.14 233.81 29.19 C 233.81 29.19 233.81 29.9 233.81 30.69 C 233.81 31.22 233.81 31.79 233.81 32.19 L 233.81 47.26 L 135.81 47.26 L 135.81 32.44 C 135.81 32.44 135.81 32.44 135.8 32.43 Z " stroke-width="1"/>
  <path id="ID0.7802803465165198" fill="#95BFDE" d="M 135.8 42.43 L 135.93 39.19 C 143.54 41.24 151.01 43.35 158.55 43.58 C 160.44 43.64 162.32 43.64 164.19 43.57 C 181.81 44.19 198.65 33.27 214.9 35.73 C 217.82 36.09 229.09 38.14 233.81 39.19 C 233.81 39.19 233.81 39.9 233.81 40.69 C 233.81 41.22 233.81 41.79 233.81 42.19 L 233.81 62.26 L 135.81 62.26 L 135.81 42.44 C 135.81 42.44 135.81 42.44 135.8 42.43 Z " stroke-width="1"/>
  <path id="ID0.6625757529400289" fill="#79AED4" d="M 135.8 54.8536 L 135.93 53.1372 C 143.54 54.2232 151.01 55.341 158.55 55.4628 C 160.44 55.4946 162.32 55.4946 164.19 55.4576 C 181.81 55.786 198.65 50.0011 214.9 51.3043 C 217.82 51.495 229.09 52.581 233.81 53.1372 C 233.81 53.1372 233.81 53.5133 233.81 53.9319 C 233.81 54.2126 233.81 54.5146 233.81 54.7265 L 233.81 128.0977 L 135.81 128.0977 L 135.81 54.8589 C 135.81 54.8589 135.81 54.8589 135.8 54.8536 Z " stroke-width="0.800200342750945"/>
</svg>