<svg version="1.1" width="475" height="281" viewBox="-1 -1 475 281" xmlns="http://www.w3.org/2000/svg" xmlns:xlink="http://www.w3.org/1999/xlink">
  <!-- Exported by Scratch - http://scratch.mit.edu/ -->
  <path id="ID0.24440857861191034" fill="#006622" stroke="none" d="M 0 308 L 480 308 L 480 360 L 0 360 L 0 308 Z " transform="matrix(0.5520833730697632, 0, 0, 0.6538462042808533, 82, -100.25)"/>
  <path id="ID0.21787316165864468" fill="#006622" stroke="none" d="M 371 93 L 473 93 L 473 120 L 371 120 L 371 93 Z " transform="matrix(1, 0, 0, 1, 0, -81)"/>
  <path id="ID0.9266741378232837" fill="#006622" stroke="none" d="M 0 318 L 163 318 L 163 354 L 0 354 L 0 318 Z " transform="matrix(1, 0, 0, 1, 0, -81)"/>
  <path id="ID0.09699255088344216" fill="#006622" stroke="none" d="M 268 298 L 397 298 L 397 360 L 268 360 L 268 298 Z " transform="matrix(1, 0, 0, 1, 0, -81)"/>
  <path id="ID0.6450049197301269" fill="#006622" stroke="none" d="M 23 32 L 147 32 L 147 69 L 23 69 L 23 32 Z " transform="matrix(1, 0, 0, 1, -14, -32)"/>
  <path id="ID0.7151578404009342" fill="#006622" stroke="none" d="M 212 322 L 298 322 L 298 360 L 212 360 L 212 322 Z " transform="matrix(1, 0, 0, 1, 0, -81)"/>
</svg>