<svg xmlns="http://www.w3.org/2000/svg" xmlns:xlink="http://www.w3.org/1999/xlink" version="1.1" width="511.29275035858154" height="383.99993419647217" viewBox="0.2392265796661377 0.4392266273498535 511.29275035858154 383.99993419647217">
  <!-- Exported by Scratch - http://scratch.mit.edu/ -->
  <path id="ID0.41042835358530283" fill="#FFFFFF" stroke="#FFFFFF" stroke-width="2.121546745300293" d="M 1.3 1.5 L 510.4712 1.5 L 510.4712 383.3784 L 1.3 383.3784 L 1.3 1.5 Z "/>
  <g id="ID0.290224383585155">
    <path id="ID0.8914963030256331" fill="#FAA51D" stroke="#000000" stroke-width="0.9583801746368408" d="M 185.0738 174.9041 C 184.9364 174.9041 184.799 174.8985 184.6609 174.8873 L 173.9422 174.0344 C 171.0838 173.8067 168.9514 171.3054 169.179 168.4478 C 169.405 165.5902 171.8936 163.4586 174.7656 163.6847 L 182.5373 164.3028 L 192.7791 149.8033 C 194.4331 147.4617 197.6717 146.9034 200.0149 148.5574 C 202.3566 150.2114 202.914 153.4508 201.2608 155.7932 L 189.3146 172.7086 C 188.3363 174.0919 186.7509 174.9041 185.0738 174.9041 L 185.0738 174.9041 Z "/>
    <path id="ID0.7002262021414936" fill="#FAA51D" stroke="#000000" stroke-width="0.9583801746368408" d="M 180.8289 213.3727 C 179.9656 213.3727 179.0887 213.185 178.2573 212.7897 L 171.4017 209.5248 C 171.2891 209.4713 171.1789 209.4138 171.0694 209.3539 L 166.6665 206.9092 C 164.9917 205.9788 163.8624 204.304 163.6284 202.4024 C 163.3952 200.5016 164.0844 198.6032 165.4837 197.295 L 170.599 192.5151 L 163.8017 190.5321 C 160.6255 189.6056 158.8022 186.2801 159.7286 183.1038 C 160.655 179.9276 163.9806 178.1059 167.1568 179.0307 L 184.0499 183.96 C 186.1168 184.563 187.7005 186.229 188.1989 188.323 C 188.6972 190.4163 188.0344 192.6174 186.4618 194.0869 L 179.8402 200.2748 L 183.4062 201.9727 C 186.3931 203.3951 187.6614 206.9699 186.239 209.956 C 185.2143 212.1124 183.0668 213.3727 180.8289 213.3727 L 180.8289 213.3727 Z "/>
    <path id="ID0.7152078151702881_1_" fill="#FAA51D" stroke="#000000" d="M 137.7002 175.0039 C 134.8594 172.7757 131.68 169.6977 129.9933 165.1861 C 126.222 155.0952 129.4454 143.3718 123.0099 143.4732 C 116.5695 143.577 107.7924 160.661 120.8639 174.1414 C 125.3683 178.7903 130.3327 181.3875 134.4202 183.377 C 135.4944 183.8929 144.9152 187.7608 150.3109 184.9096 C 155.709 182.0568 154.1476 179.8326 153.4145 178.6689 C 152.6797 177.5053 141.7166 178.1506 137.7002 175.0039 L 137.7002 175.0039 Z " stroke-width="0.7986501455307007"/>
    <path id="ID0.4691764716990292_1_" fill="#FFFFFF" d="M 123.5689 144.1888 C 120.5612 143.6385 116.1718 148.6117 115.108 153.8301 C 114.041 159.0533 115.1304 162.16 115.7981 164.7852 C 117.0839 167.1748 116.4905 161.1697 120.3879 160.3032 C 124.2733 159.4406 128.4742 163.0042 128.4742 163.0042 C 128.4742 163.0042 127.3921 155.8371 126.8618 151.5715 C 126.3834 147.4968 126.6757 144.9763 123.5689 144.1888 L 123.5689 144.1888 Z " stroke-width="0.7986501455307007"/>
    <path id="ID0.26425604708492756_1_" fill="#FAA51D" stroke="#231F20" stroke-width="0.9583801746368408" d="M 173.8655 189.7805 C 175.6106 188.4404 177.386 186.2521 179.6693 182.8578 C 181.5725 180.0282 183.6346 174.6661 183.6346 174.6661 C 184.9188 170.9636 186.4754 165.008 180.8409 163.9506 C 178.5608 163.5233 174.8502 163.8068 169.5768 162.8109 C 164.3001 161.8102 159.5928 159.1068 155.5996 166.0902 C 151.6079 173.0768 141.5146 178.2369 154.0486 190.4155 L 173.8655 189.7805 Z "/>
    <path id="ID0.441501600202173" fill="#FAA51D" stroke="#000000" stroke-width="0.9583801746368408" d="M 153.9879 216.6288 C 152.5 216.6288 151.0097 216.0785 149.8493 214.9684 L 141.4962 206.9819 C 140.1545 205.7 139.4836 203.8687 139.6785 202.0231 C 139.8734 200.1774 140.9132 198.5274 142.4921 197.5538 L 152.8818 191.1478 L 151.0888 188.6313 C 149.1697 185.9374 149.7974 182.1966 152.492 180.2774 C 155.1875 178.3567 158.9276 178.986 160.8459 181.6806 L 166.3534 189.4124 C 167.315 190.7621 167.6744 192.4512 167.3453 194.0757 C 167.0171 195.7009 166.03 197.1169 164.6179 197.9859 L 155.38 203.6827 L 158.1273 206.3102 C 160.5185 208.5959 160.6039 212.3879 158.3174 214.7791 C 157.1418 216.009 155.566 216.6288 153.9879 216.6288 L 153.9879 216.6288 Z "/>
    <path id="ID0.203311821911484_1_" fill="#FFFFFF" d="M 180.4743 180.1201 C 180.4743 180.1201 184.1018 176.2131 176.8485 172.3109 C 169.5951 168.4087 166.2544 172.2861 164.0142 174.5447 C 160.1311 178.4445 168.2718 187.4493 168.2718 187.4493 L 173.7353 188.9603 C 173.7353 188.9603 176.287 186.542 177.4059 184.5853 C 178.6878 182.8019 180.4743 180.1201 180.4743 180.1201 " stroke-width="0.7986501455307007"/>
    <path id="ID0.699479915201664" fill="#FAA51D" d="M 162.3298 189.6152 C 159.6887 192.2979 155.0477 192.012 151.9641 188.9763 C 148.8797 185.9414 148.5203 181.3045 151.1623 178.6218 C 153.8034 175.9383 158.4452 174.6262 161.5288 177.6618 C 166.7775 182.8275 167.0666 184.801 162.3298 189.6152 Z " stroke-width="0.7986501455307007"/>
    <path id="ID0.4675603983923793_1_" fill="#FAA51D" stroke="#231F20" stroke-width="0.9583801746368408" d="M 185.6736 91.4499 C 183.4605 90.938 178.8227 90.0539 176.2335 89.8287 C 169.3076 89.2241 162.4288 90.815 162.4288 90.815 L 145.1588 75.8827 L 144.682 103.8394 C 145.777 102.8275 126.7955 120.3914 134.8411 138.4074 C 142.8923 156.4329 163.9415 166.8321 191.9701 165.1086 C 220.0019 163.3812 228.6433 148.5422 227.9613 139.9807 C 227.28 131.4192 217.3927 126.9523 217.3927 126.9523 C 217.3927 126.9523 218.1459 120.4146 214.5152 111.7868 C 212.3573 106.6507 203.9515 98.4373 203.9515 98.4373 L 202.069 81.0611 L 189.8042 90.0763 L 185.6736 91.4499 L 185.6736 91.4499 Z "/>
    <path id="ID0.876089540310204_1_" fill="#FFFFFF" d="M 216.0574 126.5586 L 212.8516 123.0653 L 199.0613 125.1402 C 199.0613 125.1402 198.3865 130.1166 191.8447 130.6341 C 185.2974 131.1572 175.9779 125.1099 175.9779 125.1099 L 163.9734 128.548 C 163.9734 128.548 151.5113 128.2326 150.0562 135.6736 C 146.8168 152.2096 166.3271 161.93 174.0165 163.4227 C 178.2118 164.2389 186.0681 164.5544 192.1091 164.183 C 218.5819 162.9778 227.673 148.3745 226.9957 139.8098 C 226.3145 131.2491 216.8033 127.7638 216.8033 127.7638 L 216.0574 126.5586 L 216.0574 126.5586 Z " stroke-width="0.7986501455307007"/>
    <path id="ID0.44282719027251005_1_" fill="none" stroke="#231F20" stroke-width="0.9583801619500799" d="M 125.5112 111.7082 C 125.5112 111.7082 128.5977 116.9205 130.3276 119.0524 C 132.058 121.1825 135.7477 125.0877 135.7477 125.0877 "/>
    <path id="ID0.893105489667505_1_" fill="none" stroke="#231F20" stroke-width="0.9583801774305156" d="M 222.9491 135.8658 C 222.9491 135.8658 229.6395 134.8342 233.0429 133.6804 C 237.0418 132.3337 239.7483 130.0033 239.7483 130.0033 "/>
    <path id="ID0.6674723788164556_1_" fill="none" stroke="#231F20" stroke-width="0.9583801551572763" d="M 223.4163 144.4958 C 223.4163 144.4958 227.5504 145.7503 231.6929 145.7913 C 235.7816 145.8298 238.5031 145.3387 238.5031 145.3387 "/>
    <path id="ID0.12165586883202195_1_" fill="none" stroke="#000000" stroke-linecap="round" d="M 185.1401 91.4611 C 189.1349 93.0401 190.507 94.3658 190.507 94.3658 " stroke-width="0.7986501455307007"/>
    <path id="ID0.178104005753994_1_" fill="none" stroke="#000000" d="M 158.3893 87.0526 L 166.347 94.5902 " stroke-width="0.7986501455307007"/>
    <path id="ID0.7735752793960273_1_" fill="#FFFFFF" stroke="#231F20" d="M 211.3054 111.5384 C 214.6773 118.6336 213.8276 126.0962 209.4062 128.199 C 204.9809 130.3043 198.6644 126.2519 195.2861 119.1519 C 191.9014 112.0535 192.7584 104.5981 197.1829 102.4913 C 201.6034 100.3884 207.9287 104.4376 211.3054 111.5384 L 211.3054 111.5384 Z " stroke-width="0.7986501455307007"/>
    <path id="ID0.19106501014903188_1_" fill="#231F20" d="M 208.8009 121.805 C 208.5876 123.3768 207.2483 124.4933 205.7947 124.2968 C 204.3492 124.1004 203.3437 122.6652 203.5569 121.0942 C 203.7694 119.5217 205.1215 118.4036 206.567 118.5993 C 208.0206 118.7965 209.0141 120.2333 208.8009 121.805 " stroke-width="0.7986501455307007"/>
    <path id="ID0.06283409334719181_1_" fill="#FFFFFF" stroke="#231F20" d="M 175.7743 111.544 C 179.1494 118.6416 177.6407 126.4132 172.4128 128.8963 C 167.1816 131.3872 160.2062 127.6456 156.8327 120.548 C 153.4552 113.4504 154.9583 105.6811 160.1894 103.1933 C 165.4222 100.7063 172.396 104.444 175.7743 111.544 L 175.7743 111.544 Z " stroke-width="0.7986501455307007"/>
    <path id="ID0.716460831463337_1_" fill="#231F20" d="M 172.8097 122.1564 C 172.5957 123.7298 171.2547 124.8463 169.802 124.6498 C 168.3572 124.4542 167.3517 123.0158 167.5642 121.4448 C 167.7766 119.8739 169.1295 118.7574 170.5735 118.9523 C 172.023 119.1495 173.0221 120.5855 172.8097 122.1564 " stroke-width="0.7986501455307007"/>
    <path id="ID0.5430324394255877_1_" fill="#5E4A42" stroke="#000000" d="M 191.2561 127.4363 C 193.954 127.8013 197.9408 127.9211 197.9792 129.191 C 198.0191 130.4632 194.6632 134.97 192.7736 134.9253 C 190.8784 134.8789 184.323 130.2923 184.5299 127.9994 C 184.7319 125.7064 188.7659 127.0985 191.2561 127.4363 L 191.2561 127.4363 Z " stroke-width="0.7986501455307007"/>
    <path id="ID0.5547774969600141_1_" fill="none" stroke="#231F20" stroke-width="0.9583801746368408" d="M 170.9065 135.5107 C 170.9065 135.5107 185.3629 141.9965 190.828 143.9859 C 196.2916 145.9746 206.2883 148.5782 206.2883 148.5782 C 206.2883 148.5782 192.6386 161.9117 179.5615 156.2844 C 166.4844 150.6635 167.8916 142.1275 170.9065 135.5107 L 170.9065 135.5107 Z "/>
    <path id="ID0.3775032921694219" fill="#FAA51D" stroke="#000000" stroke-width="0.9583801746368408" d="M 159.7582 171.8844 C 158.6129 171.8844 157.4612 171.5074 156.5005 170.7327 L 147.6594 163.596 C 146.7154 162.8349 146.0685 161.7663 145.8305 160.5771 L 142.8332 145.6232 C 142.2693 142.8119 144.0918 140.0766 146.9031 139.5135 C 149.7151 138.9465 152.4497 140.7722 153.0128 143.5834 L 155.6411 156.6965 L 163.0222 162.6544 C 165.2529 164.4554 165.6011 167.7234 163.8009 169.9549 C 162.7747 171.2247 161.2724 171.8844 159.7582 171.8844 L 159.7582 171.8844 Z "/>
    <path id="ID0.893105489667505_1_" fill="none" stroke="#231F20" stroke-width="0.9583802239163487" d="M 121.9601 119.8351 C 121.9601 119.8351 126.1186 125.1766 128.7836 127.5876 C 131.9068 130.4248 135.2602 131.6542 135.2602 131.6542 "/>
  </g>
  <g id="ID0.6324665369465947">
    <g id="ID0.3306593904271722">
      <text  fill="#E5E5E5" text-anchor="start" transform="matrix(2.66209 -0.380299 0.380299 2.66209 213.985775 182.360225)" stroke-width="1" font-family="Helvetica" alignment-baseline="text-before-edge"  font-size="18" >That's All</text>
      <text  fill="#E5E5E5" text-anchor="start" transform="matrix(2.66209 -0.380299 0.380299 2.66209 140.985775 243.910225)" stroke-width="1" font-family="Helvetica" alignment-baseline="text-before-edge"  font-size="18" >For Now !!!</text>
    </g>
    <g id="ID0.3306593904271722">
      <text  fill="#E5E5E5" text-anchor="start" transform="matrix(2.6567 -0.379529 0.379529 2.6567 216.79025 183.06175)" stroke-width="1" font-family="Helvetica" alignment-baseline="text-before-edge"  font-size="18" >That's All</text>
      <text  fill="#E5E5E5" text-anchor="start" transform="matrix(2.6567 -0.379529 0.379529 2.6567 143.89025 244.46175)" stroke-width="1" font-family="Helvetica" alignment-baseline="text-before-edge"  font-size="18" >For Now !!!</text>
    </g>
    <g id="ID0.3306593904271722">
      <text  fill="#000000" text-anchor="start" transform="matrix(2.50828 -0.358325 0.358325 2.50828 215.31629999999998 181.7977)" stroke-width="1" font-family="Helvetica" alignment-baseline="text-before-edge"  font-size="18" >That's All</text>
      <text  fill="#000000" text-anchor="start" transform="matrix(2.50828 -0.358325 0.358325 2.50828 146.4663 239.7477)" stroke-width="1" font-family="Helvetica" alignment-baseline="text-before-edge"  font-size="18" >For Now !!!</text>
    </g>
  </g>
</svg>