<svg version="1.1" width="55" height="55" viewBox="-1 -1 55 55" xmlns="http://www.w3.org/2000/svg" xmlns:xlink="http://www.w3.org/1999/xlink">
  <defs>
    <linearGradient id="grad_1" y2="1">
      <stop offset="0" stop-color="#00FF55" stop-opacity="1"/>
      <stop offset="1" stop-color="#00CC44" stop-opacity="1"/>
    </linearGradient>
  </defs>
  <!-- Exported by Scratch - http://scratch.mit.edu/ -->
  <g id="ID0.6818435080349445" transform="matrix(1, 0, 0, 1, -242.5, -162)">
    <path id="ID0.9076091619208455" fill="url(#grad_1)" stroke="#00CC44" stroke-width="2" d="M 269.750 163.750 C 276.785 163.750 283.160 166.607 287.776 171.224 C 292.393 175.840 295.250 182.215 295.250 189.250 C 295.250 196.285 292.393 202.660 287.776 207.276 C 283.160 211.893 276.785 214.750 269.750 214.750 C 262.715 214.750 256.340 211.893 251.724 207.276 C 247.107 202.660 244.250 196.285 244.250 189.250 C 244.250 182.215 247.107 175.840 251.724 171.224 C 256.340 166.607 262.715 163.750 269.750 163.750 Z "/>
    <path id="ID0.039225236512720585" fill="none" stroke="#FFFFFF" stroke-width="2" stroke-linecap="round" d="M 258.750 176 L 283.500 192 L 258 201.750 L 258.750 176 Z "/>
  </g>
</svg>