<svg version="1.1" width="134" height="88" viewBox="-1 -1 134 88" xmlns="http://www.w3.org/2000/svg" xmlns:xlink="http://www.w3.org/1999/xlink">
  <!-- Exported by Scratch - http://scratch.mit.edu/ -->
  <path id="ID0.9509237096644938" fill="none" stroke="#FFFFFF" stroke-width="7" stroke-linecap="round" d="M 24.750 12.550 L 22 4.050 L 6 4.050 L 3.750 12.800 " transform="matrix(1, 0, 0, 1, 104, 71)"/>
  <path id="ID0.9509237096644938" fill="none" stroke="#E3B046" stroke-width="4" stroke-linecap="round" d="M 24.750 12.500 L 22 4 L 6 4 L 3.750 12.750 " transform="matrix(1, 0, 0, 1, 104, 71)"/>
  <path id="ID0.1855693543329835" fill="none" stroke="#000000" stroke-width="2" stroke-linecap="round" d="M 230 106 C 230 106 222.004 105.211 218 105 C 215.672 104.877 213.324 104.821 211 105 C 208.980 105.155 207.022 105.874 205 106 C 201.676 106.208 198.312 105.651 195 106 C 191.947 106.321 189.021 107.451 186 108 C 181.691 108.784 177.368 109.676 173 110 C 168.351 110.344 163.647 109.628 159 110 C 155.289 110.297 151.651 111.270 148 112 C 143.325 112.935 138.625 113.844 134 115 C 131.957 115.511 129.955 116.218 128 117 C 126.617 117.553 125.277 118.234 124 119 C 123.596 119.242 123 120 123 120 " transform="matrix(1, 0, 0, 1, -122, -103)"/>
</svg>