<svg xmlns="http://www.w3.org/2000/svg" xmlns:xlink="http://www.w3.org/1999/xlink" xmlns:a="http://ns.adobe.com/AdobeSVGViewerExtensions/3.0/" version="1.1" x="0px" y="0px" width="43.48600387573242" height="60.88100051879883" viewBox="0 0 43.48600387573242 60.88100051879883" enable-background="new -9.937 -2.038 64 64" xml:space="preserve">
  <defs/>
  <g>
    <path fill="#594419" d="M22.557,59.881c-4.361,0-7.982-0.836-10.768-2.485c-2.785-1.648-4.805-3.6-6.002-5.8&#13;&#10;&#9;C4.585,49.386,4,47.461,4,45.712c0-1.301,0.518-2.517,1.537-3.615c1.037-1.117,2.405-1.708,3.957-1.708&#13;&#10;&#9;c1.793,0,4.245,0.746,5.746,4.294c0.781,1.737,1.854,3.122,3.176,4.084c1.289,0.938,2.689,1.395,4.277,1.395&#13;&#10;&#9;c1.444,0,2.664-0.356,3.731-1.092c1.091-0.753,1.916-1.773,2.521-3.116c0.623-1.386,0.938-3,0.938-4.802&#13;&#10;&#9;c0-1.936-0.335-3.589-0.998-4.911c-0.643-1.288-1.462-2.211-2.504-2.823c-1.065-0.626-2.227-0.93-3.552-0.93&#13;&#10;&#9;c-2.201,0-3.098,0.321-3.436,0.513c-0.781,0.443-1.951,1.253-3.478,2.406c-1.891,1.428-3.486,2.12-4.881,2.12&#13;&#10;&#9;c-1.529,0-2.896-0.553-4.065-1.643c-1.199-1.121-1.806-2.439-1.806-3.92c0-0.17,0-0.316,0.401-2.604l2.879-16.425&#13;&#10;&#9;c0.373-2.296,1.098-3.977,2.209-5.118C11.828,6.611,13.642,6,16.044,6h18.103c6.033,0,6.935,3.551,6.935,5.666&#13;&#10;&#9;c0,1.649-0.646,3.065-1.869,4.095c-1.159,0.976-2.794,1.47-4.86,1.47H19.396l-1.195,6.792c2.423-0.971,4.731-1.462,6.894-1.462&#13;&#10;&#9;c2.399,0,4.682,0.459,6.781,1.364c2.087,0.899,3.944,2.162,5.521,3.75c1.58,1.595,2.837,3.502,3.735,5.671&#13;&#10;&#9;c0.897,2.171,1.354,4.532,1.354,7.019c0,3.568-0.815,6.869-2.422,9.812c-1.623,2.97-3.99,5.356-7.033,7.097&#13;&#10;&#9;C29.998,59.003,26.475,59.881,22.557,59.881L22.557,59.881z" stroke-width="1"/>
    <linearGradient id="SVGID_1_" gradientUnits="userSpaceOnUse" x1="20.2432" y1="1" x2="20.2432" y2="54.8809">
      <stop offset="0" style="stop-color:#FFFFFF"/>
      <stop offset="1" style="stop-color:#FFD38F"/>
    </linearGradient>
    <path fill="url(#SVGID_1_)" stroke="#594419" stroke-width="2" d="M19.557,54.881c-4.361,0-7.982-0.836-10.768-2.485&#13;&#10;&#9;c-2.785-1.648-4.805-3.6-6.002-5.8C1.585,44.386,1,42.461,1,40.712c0-1.301,0.518-2.517,1.537-3.615&#13;&#10;&#9;c1.037-1.117,2.405-1.708,3.957-1.708c1.793,0,4.245,0.746,5.746,4.294c0.781,1.737,1.854,3.122,3.176,4.084&#13;&#10;&#9;c1.289,0.938,2.689,1.395,4.277,1.395c1.444,0,2.664-0.356,3.731-1.092c1.091-0.753,1.916-1.773,2.521-3.116&#13;&#10;&#9;c0.623-1.386,0.938-3,0.938-4.802c0-1.936-0.335-3.589-0.998-4.911c-0.643-1.288-1.462-2.211-2.504-2.823&#13;&#10;&#9;c-1.065-0.626-2.227-0.93-3.552-0.93c-2.201,0-3.098,0.321-3.436,0.513c-0.781,0.443-1.951,1.253-3.478,2.406&#13;&#10;&#9;c-1.891,1.428-3.486,2.12-4.881,2.12c-1.529,0-2.896-0.553-4.065-1.643c-1.199-1.121-1.806-2.439-1.806-3.92&#13;&#10;&#9;c0-0.17,0-0.316,0.401-2.604L5.446,7.936C5.819,5.64,6.544,3.959,7.655,2.817C8.828,1.611,10.642,1,13.044,1h18.103&#13;&#10;&#9;c6.033,0,6.935,3.551,6.935,5.666c0,1.649-0.646,3.065-1.869,4.095c-1.159,0.976-2.794,1.47-4.86,1.47H16.396l-1.195,6.792&#13;&#10;&#9;c2.423-0.971,4.731-1.462,6.894-1.462c2.399,0,4.682,0.459,6.781,1.364c2.087,0.899,3.944,2.162,5.521,3.75&#13;&#10;&#9;c1.58,1.595,2.837,3.502,3.735,5.671c0.897,2.171,1.354,4.532,1.354,7.019c0,3.568-0.815,6.869-2.422,9.812&#13;&#10;&#9;c-1.623,2.97-3.99,5.356-7.033,7.097C26.998,54.003,23.475,54.881,19.557,54.881L19.557,54.881z"/>
  </g>
</svg>