<svg version="1.1" xmlns="http://www.w3.org/2000/svg" xmlns:xlink="http://www.w3.org/1999/xlink" width="647.39516" height="434.94873" viewBox="0,0,647.39516,434.94873"><defs><radialGradient cx="242.96693" cy="205.65857" r="141.17178" gradientUnits="userSpaceOnUse" id="color-1"><stop offset="0" stop-color="#dcdcdc"/><stop offset="1" stop-color="#5f5f5f"/></radialGradient><radialGradient cx="233.51669" cy="203.0238" r="141.17178" gradientUnits="userSpaceOnUse" id="color-2"><stop offset="0" stop-color="#dcdcdc"/><stop offset="1" stop-color="#5f5f5f"/></radialGradient><linearGradient x1="257.1954" y1="65.63063" x2="257.1954" y2="209.77477" gradientUnits="userSpaceOnUse" id="color-3"><stop offset="0" stop-color="#59ff00" stop-opacity="0"/><stop offset="1" stop-color="#59ff00"/></linearGradient><linearGradient x1="218.15636" y1="205.27027" x2="218.15636" y2="337.4024" gradientUnits="userSpaceOnUse" id="color-4"><stop offset="0" stop-color="#ffb900"/><stop offset="1" stop-color="#ffb900" stop-opacity="0"/></linearGradient><linearGradient x1="239.17738" y1="203.76877" x2="239.17738" y2="244.30931" gradientUnits="userSpaceOnUse" id="color-5"><stop offset="0" stop-color="#5d00a9" stop-opacity="0"/><stop offset="1" stop-color="#5d00a9"/></linearGradient><linearGradient x1="229.41763" y1="128.69369" x2="229.41763" y2="305.87087" gradientUnits="userSpaceOnUse" id="color-6"><stop offset="0" stop-color="#ffb2b2" stop-opacity="0"/><stop offset="1" stop-color="#ffb2b2"/></linearGradient><linearGradient x1="305.24344" y1="157.22222" x2="305.24344" y2="200.76577" gradientUnits="userSpaceOnUse" id="color-7"><stop offset="0" stop-color="#3500ff" stop-opacity="0"/><stop offset="1" stop-color="#3500ff"/></linearGradient><linearGradient x1="233.99971" y1="205.9507" x2="145.1828" y2="288.63748" gradientUnits="userSpaceOnUse" id="color-8"><stop offset="0" stop-color="#ffad00" stop-opacity="0"/><stop offset="1" stop-color="#ffad00"/></linearGradient></defs><g transform="translate(70.5976,-61.81455)"><g data-paper-data="{&quot;isPaintingLayer&quot;:true}" fill-rule="nonzero" stroke-linejoin="miter" stroke-miterlimit="10" stroke-dasharray="" stroke-dashoffset="0" style="mix-blend-mode: normal"><text transform="matrix(2.31807 0 0 2.31807 -64.43855 410.45139)" font-size="40"  fill="#000000" fill-rule="nonzero" stroke="none" stroke-width="1" stroke-linecap="butt" stroke-linejoin="miter" stroke-miterlimit="10" stroke-dasharray="" stroke-dashoffset="0" font-family="Helvetica" font-weight="normal" text-anchor="start" style="mix-blend-mode: normal" >DockLauncher</text><path d="M113.57408,149.19915c31.1821,-71.46154 114.39115,-104.11445 185.85269,-72.93235c71.46154,31.1821 104.11443,114.39119 72.93235,185.85269c-31.1821,71.46154 -114.39119,104.11443 -185.85269,72.93235c-71.46154,-31.1821 -104.11445,-114.39115 -72.93235,-185.85269z" fill="url(#color-1)" stroke="none" stroke-width="1" stroke-linecap="butt"/><path d="M104.12383,146.56439c31.18209,-71.46151 114.39119,-104.11443 185.85269,-72.93235c71.46151,31.18209 104.11443,114.39119 72.93235,185.85269c-31.18209,71.46151 -114.39119,104.11443 -185.85269,72.93235c-71.46151,-31.18209 -104.11443,-114.39119 -72.93235,-185.85269z" fill="url(#color-2)" stroke="none" stroke-width="1" stroke-linecap="butt"/><text transform="matrix(2.31807 0 0 2.31807 -69.43856 405.45139)" font-size="40"  fill="#ffffff" fill-rule="nonzero" stroke="none" stroke-width="1" stroke-linecap="butt" stroke-linejoin="miter" stroke-miterlimit="10" stroke-dasharray="" stroke-dashoffset="0" font-family="Helvetica" font-weight="normal" text-anchor="start" style="mix-blend-mode: normal" >DockLauncher</text><g fill="none" stroke-width="5" stroke-linecap="round"><path d="M291.72993,85.15015l-52.55255,124.62462l-16.51652,-144.14414" stroke="url(#color-3)"/><path d="M152.0903,314.87988l88.58859,-109.60961l43.54354,132.13213" stroke="url(#color-4)"/><path d="M104.04225,203.76877l136.63664,6.00601l133.63363,34.53453" stroke="url(#color-5)"/><path d="M126.56477,128.69369l111.11111,72.07207l94.59459,105.10511" stroke="url(#color-6)"/><path d="M245.18339,200.76577l120.12012,-43.54354" stroke="url(#color-7)"/></g><g stroke-linecap="butt"><path d="M216.17189,182.17117c6.48348,-23.67581 71.56321,-62.67655 71.56321,-62.67655l41.44187,47.31775c0,0 -34.77587,57.67669 -71.56321,62.67655c-36.78734,4.99986 -47.92535,-23.64194 -41.44187,-47.31775z" fill="#b3b3b3" stroke="none" stroke-width="0"/><path d="M332.05316,177.71554c-19.71779,18.31583 -74.85751,-41.04446 -55.13973,-59.36029c19.71779,-18.31583 63.27207,-3.4836 63.27207,-3.4836c0,0 11.58544,44.52806 -8.13234,62.84389z" fill="#4c4c4c" stroke="none" stroke-width="0"/><path d="M278.70306,189.45402c-8.41935,7.64522 -19.72908,8.90431 -25.26099,2.81226c-5.5319,-6.09205 -3.19117,-17.22832 5.22818,-24.87353c8.41935,-7.64522 19.72909,-8.90431 25.261,-2.81226c5.5319,6.09205 3.19116,17.22831 -5.22819,24.87353z" fill="none" stroke="#4c4c4c" stroke-width="15"/><path d="M172.70455,274.99352c-1.32338,0.65566 -2.81312,0.95718 -4.09668,1.68774c-3.76598,1.41848 -6.64062,3.95381 -10.66151,4.89553c-0.84756,0.19851 -4.68406,0.85715 -5.63249,0.35266c-2.62428,-1.39592 -6.44783,-2.34637 -7.23513,-5.21266c-0.77359,-2.81635 2.01547,-5.53686 3.61042,-7.98356c0.53475,-0.82032 1.69469,-0.98169 2.54752,-1.46289c1.25619,-0.7088 2.49108,-1.28888 3.63484,-2.19831c3.34404,-2.65893 5.56162,-5.85769 8.22861,-9.04488c0.4448,-0.53156 1.07709,-0.88529 1.52189,-1.41685c0.19814,-0.23679 0.38511,-0.4701 0.566,-0.70015c-1.00357,0.77754 -2.0891,1.45605 -3.24488,1.96179c-0.95937,0.4198 -1.91012,0.88967 -2.92608,1.14354c-0.35098,0.08771 -0.738,-0.27304 -1.07579,-0.1435c-0.51202,0.19633 -0.77756,0.80583 -1.27169,1.04363c-0.52485,0.25259 -1.06739,0.43804 -1.6235,0.5715l-0.34559,0.32174c-2.62662,2.44533 -6.73825,2.29836 -9.18359,-0.32825c-2.44533,-2.62662 -2.29836,-6.73825 0.32825,-9.18359l0.58212,-0.54194c0.50133,-0.81263 1.1993,-1.49706 1.78329,-2.25581c0.33422,-0.43422 0.44393,-1.01601 0.78721,-1.44312c1.76709,-2.19866 4.66766,-4.7978 6.90193,-6.49699c2.17786,-1.65628 4.76697,-2.96755 7.06738,-4.46184c2.34878,-2.22455 4.6528,-4.7573 7.26016,-6.67467c1.32898,-0.97729 3.26095,-1.7421 4.26809,-3.1404c0.16556,-0.22986 0.04469,-0.56942 0.12824,-0.84009c0.51619,-1.67223 1.00557,-3.3553 1.61831,-4.9946c0.15684,-0.41963 4.23934,-9.98701 4.40206,-10.29698c2.14732,-4.08996 5.2166,-8.37234 8.3414,-11.77821c0.92367,-1.00675 2.25638,-1.62784 3.04562,-2.74311c0.77982,-1.10196 1.40932,-2.30559 2.19327,-3.4046c0,0 1.71716,-2.3864 4.44659,-2.79378c0.08616,-0.11717 0.17822,-0.23118 0.2766,-0.34176c1.78458,-2.00605 5.18664,-1.75939 7.87113,-1.71042c1.39263,0.0254 2.55215,1.14818 3.71052,1.92163c0.4518,0.30166 0.58572,0.959 1.04301,1.2523c0.65228,0.41836 1.53342,0.38303 2.1778,0.81347c1.20286,0.80351 1.95062,2.14645 3.04737,3.08964c0.89404,0.76886 2.11821,1.07092 3.04642,1.79816c0.68265,0.53486 1.2222,1.23072 1.83329,1.84606c7.61642,8.18108 15.17255,16.35439 23.17789,24.14516c0.99867,0.97191 2.0194,1.92754 3.11782,2.78514c2.87369,2.24368 7.93048,4.60301 8.49501,8.64492c0.32891,2.35489 -1.992,4.3261 -3.18724,6.38162c-1.16204,1.99844 -3.98993,3.08279 -5.38293,4.89677c-0.33374,0.4346 -0.44393,1.01601 -0.7872,1.44311c-0.43908,0.54632 -2.27578,2.23335 -2.98749,2.89593c-0.58841,0.39336 -0.78059,1.18341 -1.22399,1.73511c-0.54329,0.67598 -1.21133,1.24235 -1.84606,1.83329c-1.92367,1.79089 -4.29468,2.76607 -5.9947,4.82749c-0.86146,1.04459 -1.80553,2.87119 -2.61501,3.83168c-0.78166,0.92749 -1.92251,1.51906 -2.66332,2.47949c-2.30987,2.99471 -5.02373,5.45374 -7.80318,8.04136c-2.82639,2.63131 -5.45029,5.14187 -8.73447,7.2051c-2.86432,1.4678 -4.75637,4.31285 -7.30261,6.26143c-3.56702,2.72974 -7.70004,4.83378 -11.22634,7.62349c-0.81536,0.64505 -1.4657,1.48249 -2.28285,2.12528c-1.26107,0.99199 -2.44371,1.34848 -3.4256,2.48682c-3.31042,3.83799 -6.18787,7.93502 -9.91662,11.38523c-0.81226,0.75158 -2.31467,2.26755 -3.53652,2.58219l-1.00291,0.93369c-2.62662,2.44533 -6.73825,2.29836 -9.18359,-0.32826c-1.99175,-2.1394 -2.2637,-5.26398 -0.87674,-7.67092l0.71545,-1.31158l0.18534,0.1011c0.0974,-0.10329 0.1988,-0.20408 0.30419,-0.30221l0.10224,-0.09518l-0.01966,-0.57729c1.06794,-1.02484 1.88049,-2.28659 2.8463,-3.40821c0.62147,-0.72173 1.43571,-1.25858 2.0731,-1.96629c1.41074,-1.5664 2.4546,-3.43789 3.85726,-5.0115c1.37923,-1.54732 2.78264,-2.98701 4.14157,-4.553c1.19307,-1.37487 1.51425,-2.75927 2.59541,-4.35272c0.61535,-0.90691 1.42623,-1.81675 2.25235,-2.74974c-2.21125,0.53972 -4.64151,-0.10027 -6.30275,-1.88466c-0.92796,-0.99677 -1.48262,-2.20738 -1.67011,-3.45963c-0.95478,0.63479 -1.83864,1.41104 -2.86449,1.91929z" fill="url(#color-8)" stroke="none" stroke-width="0.5"/></g></g></g></svg>