<svg version="1.1" xmlns="http://www.w3.org/2000/svg" xmlns:xlink="http://www.w3.org/1999/xlink" width="190.33333" height="118.33333" viewBox="0,0,190.33333,118.33333"><g transform="translate(-144.83334,-120.83333)"><g data-paper-data="{&quot;isPaintingLayer&quot;:true}" fill-rule="nonzero" stroke="none" stroke-width="0" stroke-linejoin="miter" stroke-miterlimit="10" stroke-dasharray="" stroke-dashoffset="0" style="mix-blend-mode: normal"><path d="M335.16667,180h-190.33333" fill="none" stroke-linecap="round"></path><path d="M240,239.16666v-118.33333" fill="none" stroke-linecap="round"></path><path d="M213.36109,184.97801c0,-7.1797 5.8203,-13 13,-13c7.1797,0 13,5.8203 13,13c0,7.1797 -5.8203,13 -13,13c-7.1797,0 -13,-5.8203 -13,-13z" fill="#ffffff" stroke-linecap="butt"></path><path d="M230.02776,177.97801c0,-6.99561 5.67106,-12.66667 12.66667,-12.66667c6.99561,0 12.66667,5.67106 12.66667,12.66667c0,6.99561 -5.67106,12.66667 -12.66667,12.66667c-6.99561,0 -12.66667,-5.67106 -12.66667,-12.66667z" fill="#ffffff" stroke-linecap="butt"></path><path d="M241.02776,186.31134c0,-7.91608 6.41725,-14.33333 14.33333,-14.33333c7.91608,0 14.33333,6.41725 14.33333,14.33333c0,7.91608 -6.41725,14.33333 -14.33333,14.33333c-7.91608,0 -14.33333,-6.41725 -14.33333,-14.33333z" fill="#ffffff" stroke-linecap="butt"></path><path d="M259.69443,196.14467c0,4.87852 -5.74568,8.83333 -12.83333,8.83333c-7.08765,0 -12.83333,-3.95482 -12.83333,-8.83333c0,-4.87852 5.74568,-8.83333 12.83333,-8.83333c7.08765,0 12.83333,3.95482 12.83333,8.83333z" fill="#ffffff" stroke-linecap="butt"></path><path d="M238.69443,197.97801c0,2.39323 -2.91015,4.33333 -6.5,4.33333c-3.58985,0 -6.5,-1.9401 -6.5,-4.33333c0,-2.39323 2.91015,-4.33333 6.5,-4.33333c3.58985,0 6.5,1.9401 6.5,4.33333z" fill="#ffffff" stroke-linecap="butt"></path></g></g></svg>