<svg version="1.1" xmlns="http://www.w3.org/2000/svg" xmlns:xlink="http://www.w3.org/1999/xlink" width="903.59801" height="625.62837" viewBox="0,0,903.59801,625.62837"><g transform="translate(272.6417,133.00901)"><g data-paper-data="{&quot;isPaintingLayer&quot;:true}" fill-rule="nonzero" stroke-linecap="butt" stroke-linejoin="miter" stroke-miterlimit="10" stroke-dasharray="" stroke-dashoffset="0" style="mix-blend-mode: normal"><path d="M296.05953,306.69278c-0.52931,-2.44332 1.91401,-2.97264 1.91401,-2.97264l0.9454,-0.20481c7.04504,-1.52621 14.08441,-3.06565 21.13749,-4.54192c-0.14365,-0.01455 -0.28731,-0.02907 -0.43097,-0.04358c-22.6825,1.29466 -45.36699,2.53302 -68.06183,3.64396c-18.04312,0.88323 -36.0774,1.74398 -54.11613,2.50289c15.03499,1.40819 30.06584,2.86881 45.10122,4.31155c7.22579,0.69336 14.47254,1.4127 21.72191,2.18404c29.45776,0.86324 58.9063,2.0007 88.3582,3.06269c8.08619,0.29157 16.17173,0.60112 24.25679,0.92323c16.99521,-0.72111 33.9936,-1.37147 51.00246,-1.9416c3.88283,-0.13015 7.76564,-0.26111 11.64843,-0.39241c-9.08606,-1.09068 -18.17172,-2.18436 -27.25567,-3.29134c-25.19604,-3.0704 -50.39279,-6.37993 -75.63099,-9.19126c-4.09053,0.78108 -8.18766,1.53707 -12.26642,2.37302c-8.15262,1.6709 -16.27237,3.52535 -24.40587,5.28737l-0.9454,0.20481c0,0 -2.44332,0.52931 -2.97264,-1.91401zM243.84814,329.26324c-22.6194,0.52137 -45.2758,1.35899 -67.91974,1.70127c-17.49032,1.20859 -34.97458,2.53667 -52.45795,3.78555c5.29438,-0.13302 10.58875,-0.26605 15.88313,-0.39907c34.89444,-0.87674 69.65425,-2.98329 104.49456,-5.08775zM-56.20038,335.35839c-19.19519,-1.25687 -38.41322,-2.30015 -57.56332,-3.62964c-34.45016,-2.39169 -68.93272,-3.62319 -103.43627,-5.02577c-6.62547,-0.26933 -13.23802,-0.35154 -19.8486,-0.33423c21.39427,2.13341 42.72338,3.57589 64.21582,4.74352c34.95941,1.89925 69.82021,3.28736 104.8241,4.00428c3.93609,0.08062 7.87218,0.16123 11.80827,0.24185zM76.61314,347.8675c-28.45827,0.88814 -56.91913,1.84781 -85.38301,2.41145c-19.99608,0.39596 -39.99216,0.79217 -59.98824,1.18789c-7.58964,0.1502 -15.18001,0.09948 -22.77103,0.09948c-3.33333,0 -6.72659,0.62919 -10,0h-5c-1.38071,0 -2.5,-1.11929 -2.5,-2.5c0,-1.32257 1.02701,-2.40527 2.32704,-2.49411c3.32315,-0.2604 9.3848,-0.7354 12.70794,-0.9958c20.76051,-1.62681 41.52645,-3.18091 62.29391,-4.71518c-12.13693,-0.24858 -24.27386,-0.49715 -36.41079,-0.74573c-35.06006,-0.71807 -69.97746,-2.1083 -104.99296,-4.01059c-21.72133,-1.18006 -43.2942,-2.51963 -64.92983,-4.79706c-5.84555,-0.61532 -11.70123,-1.16784 -17.5338,-1.89682c-3.3076,-0.4134 -6.72902,-0.28587 -9.92278,-1.24035l-4.92848,-0.61606c-1.25027,-0.13791 -2.22282,-1.19778 -2.22282,-2.48481c0,-1.2221 0.8769,-2.23939 2.03582,-2.45699l3.50063,-0.73049l0.01773,0.08496l0.2109,-0.12171c16.65486,-0.37405 33.23257,-0.81518 49.87974,-0.13847c34.55133,1.40453 69.08158,2.63865 103.57947,5.03365c34.89595,2.42264 70.01456,3.90298 104.81393,7.43828c9.25988,0.94131 18.51976,1.88263 27.77965,2.82394c0.42606,0.00755 0.85211,0.01463 1.27815,0.0212c30.38336,-2.21719 60.77383,-4.32969 91.16404,-6.45199c-24.46152,-0.34945 -48.92305,-0.6989 -73.38457,-1.04835c-34.83934,-0.4977 -69.61414,-1.85094 -104.42973,-3.21042c-21.67558,-0.84639 -43.33483,-1.65321 -64.98518,-3.00636c-6.65368,-0.41586 -13.30747,-0.83004 -19.96105,-1.24757c-2.03866,-0.12793 -7.64437,-0.32995 -9.72577,-1.03014l-4.90349,-0.75438c-1.21902,-0.16665 -2.15823,-1.21206 -2.15823,-2.47683c0,-1.25901 0.93066,-2.30065 2.14157,-2.4745l2.7577,-0.44479c30.30356,-4.88767 61.21837,-8.53491 91.87349,-10.29221c34.95094,-2.00356 69.90184,-4.00786 104.85283,-6.01055c2.94654,-0.11005 5.89309,-0.22008 8.83963,-0.33009c-0.08663,-0.25361 -0.13364,-0.52559 -0.13364,-0.80854c0,-1.38071 1.11929,-2.5 2.5,-2.5h5c0.75682,0.00008 1.51364,0.002 2.27047,0.00569c0.37922,-0.01346 0.76034,-0.00953 1.14287,0.00693c7.72396,0.05587 15.44818,0.29417 23.17037,0.65479c14.42967,0.03669 28.85644,-0.08122 43.28368,-0.2404c5.72443,-0.21353 11.44885,-0.42708 17.17328,-0.64066c33.8797,-1.26405 67.76412,-2.2806 101.65208,-3.28942c-11.38413,-1.03294 -22.76879,-2.06036 -34.15402,-3.08279c-34.69983,-3.11617 -69.68852,-4.30811 -104.5093,-5.03354c-34.52201,-0.71921 -69.04215,-1.5029 -103.56236,-2.30397c-29.11275,-1.68551 -58.57968,-2.21823 -87.33491,-7.29268c0,0 -2.46196,-0.43446 -2.0275,-2.89642c0.43446,-2.46196 2.89642,-2.0275 2.89642,-2.0275c28.53322,5.03527 57.78068,5.54384 86.66851,7.2207c34.48753,0.79509 68.97476,1.58243 103.46398,2.30095c34.93515,0.72782 70.03855,1.92609 104.85238,5.0525c25.3486,2.2764 50.6944,4.57747 76.03765,6.90928c21.6924,-0.52891 43.38511,-0.96452 65.08698,-1.3204c23.32916,-0.38257 46.65794,-0.78025 69.98658,-1.19304c4.98138,-0.08814 9.95169,-0.17561 14.92935,-0.39213c0.04393,-0.00191 10.04763,-0.4371 10.05137,-0.43628c0.02029,0.00445 0.04054,0.00899 0.06077,0.01363l0.00007,-0.01406l2.61953,0.01368c1.37547,0.00614 2.4886,1.12306 2.4886,2.49997c0,1.34565 -1.06316,2.44298 -2.39532,2.49785l-3.02669,0.14413c-0.89817,0.3351 -1.91439,0.2352 -2.92942,0.13965c-27.42948,1.31495 -54.8453,2.99689 -82.25866,4.60944c-1.97672,0.11628 -3.95342,0.23241 -5.93011,0.34836c21.10874,2.4725 42.19318,5.20853 63.27712,7.77783c19.78487,2.41099 39.57784,4.75897 59.36537,7.15015c19.47677,-0.65044 38.95427,-1.27749 58.4343,-1.82366c11.75941,-0.3297 23.52125,-0.61625 35.28115,-0.95636c19.11632,-1.21686 38.37655,-2.76423 57.48982,-2.76757l5,0c0,0 0,0 0,0c1.38071,0 2.5,1.11929 2.5,2.5c0,1.30421 -0.9987,2.37517 -2.27306,2.48984l-4.94584,0.50716l-0.00134,-0.01309c-0.02358,0.00654 -0.04718,0.01301 -0.0708,0.01943c-0.00613,0.00167 -10.00851,0.44421 -10.0625,0.4466c-4.99511,0.22118 -9.99021,0.44235 -14.98532,0.66353c-10.80608,0.47848 -21.6172,0.83672 -32.42995,1.14965c-2.06204,0.13144 -4.12235,0.25889 -6.18055,0.37997c-14.94981,0.8794 -29.89879,1.79812 -44.84893,2.69903c0.65684,0.08335 1.31366,0.16684 1.97046,0.25046c11.37265,1.44793 22.68098,3.12709 34.00368,4.92285l4.89406,0.48941c1.27708,0.11199 2.27874,1.18419 2.27874,2.49034c0,1.35449 -1.07718,2.45739 -2.42163,2.49879l-4.98595,0.17809l-0.00061,-0.01705c-0.03212,0.00632 -0.06426,0.01253 -0.09644,0.01863c-0.01081,0.00205 -10.01371,-0.41845 -10.08824,-0.42157c-6.6608,-0.27959 -13.3216,-0.55917 -19.9824,-0.83877c-9.23254,-0.38755 -18.4637,-0.81682 -27.69425,-1.26127c-9.60931,2.23297 -19.65403,2.98793 -29.412,4.22898c-19.4606,2.47507 -38.79664,4.90901 -58.36658,6.29695c-34.18631,2.42456 -68.36351,5.02512 -102.57734,7.02699c-34.94024,2.04438 -69.88048,4.08875 -104.82073,6.13313c-13.87489,0.81183 -27.74261,1.87114 -41.60479,3.03831c14.59033,2.092 29.16912,4.27035 43.75505,6.34309c21.52701,3.0591 42.75447,7.31753 64.08778,11.50664c6.58062,1.2922 13.16436,2.51306 19.68421,4.08642c3.24032,0.78195 6.66054,1.02511 9.72082,2.34641l4.81043,1.16114c1.12283,0.24558 1.96338,1.24576 1.96338,2.44227c0,1.3488 -1.06814,2.44812 -2.40469,2.49822l-3.70252,0.16064c-26.65144,1.15631 -53.30196,2.42619 -79.96634,3.2342c-34.97369,1.05981 -69.93579,2.36028 -104.92557,2.5821c-35.01616,0.22199 -70.04855,0.83278 -105.0593,0.14641c-23.34106,-0.45759 -46.77817,-0.33697 -70.0775,-1.81266c-4.99,-0.31605 -9.98,-0.6321 -14.97,-0.94815c-0.04453,-0.00282 -10.03375,-0.63527 -10.03909,-0.63654c-0.01937,-0.00462 -0.03872,-0.00927 -0.05807,-0.01395l-0.0009,0.00811l-4.93944,-0.54883c-1.2652,-0.12362 -2.2539,-1.19037 -2.2539,-2.48804c0,-0.99801 0.58479,-1.85943 1.43041,-2.26029l4.31456,-2.15728l0.04697,0.09394l0.27519,-0.22781c27.05118,-5.2144 54.04127,-9.54065 81.34036,-13.2077c19.82543,-2.66312 39.64764,-5.77365 59.52669,-7.99537c14.62467,-1.63448 29.38156,-2.49039 44.04545,-3.73293c5.973,-0.50612 11.94656,-1.03146 17.92083,-1.56486c-5.13805,-0.60156 -10.27989,-1.1681 -15.42633,-1.69126c-6.24645,-0.63498 -12.49291,-1.26997 -18.73936,-1.90495zM133.99364,354.39451c-13.57513,1.21739 -27.14578,2.46655 -40.71348,3.6162c-14.62306,1.23908 -29.33973,2.09027 -43.92353,3.72109c-19.83834,2.2184 -39.6201,5.32286 -59.4051,7.98055c-12.61684,1.6948 -25.35346,3.01162 -37.91166,5.0918c-11.3142,1.87412 -22.5661,4.16478 -33.8395,6.30034c0.42241,0.03847 0.85061,0.07322 1.28544,0.10076c4.99,0.31605 9.98,0.6321 14.97,0.94815c23.2265,1.47108 46.59131,1.34746 69.85945,1.80362c34.96749,0.68552 69.95671,0.07445 104.9296,-0.14727c34.94983,-0.22157 69.87205,-1.52131 104.80583,-2.5799c21.9592,-0.66543 43.90901,-1.64453 65.85768,-2.61509c-3.94166,-0.89121 -7.89526,-1.66654 -11.86865,-2.44677c-22.87758,-4.49235 -45.64899,-9.14558 -68.73412,-12.4261c-21.7658,-3.09304 -43.5157,-6.42269 -65.31196,-9.34737zM379.88305,324.57974c-9.82584,0.49376 -19.65168,0.98752 -29.47752,1.48128c-2.29264,0.11521 -4.5853,0.22558 -6.87799,0.33148c-0.41349,0.66192 -1.12811,1.11639 -1.95207,1.17164l-4.44592,0.34199c-30.9686,2.38218 -61.94594,4.47348 -92.94886,6.34614c-34.90926,2.10861 -69.73802,4.21866 -104.70152,5.09714c-25.98444,0.65288 -51.96888,1.30575 -77.95332,1.95863c5.08772,0.51719 10.17543,1.03438 15.26315,1.55157c5.91134,-0.18438 11.82256,-0.3656 17.73367,-0.53946c34.53024,-1.0156 69.00363,-2.94483 103.50139,-4.74158c34.88794,-1.81708 69.68916,-3.78127 104.50746,-6.64866c25.78286,-2.12329 51.56059,-4.32453 77.35152,-6.35017zM38.97604,344.0415c-6.40519,-0.65112 -12.81037,-1.30224 -19.21556,-1.95336c-2.88959,0.2111 -5.77911,0.42316 -8.66856,0.63627c-13.88047,1.02378 -27.76146,2.04033 -41.64178,3.06545c7.22904,-0.18335 14.45672,-0.36688 21.681,-0.50994c15.94922,-0.31583 31.89749,-0.75609 47.8449,-1.23843zM175.70878,325.96804c14.11823,-0.97517 28.24042,-1.87239 42.36928,-2.58744c24.20737,-1.22512 48.41473,-2.45025 72.6221,-3.67537c-8.9008,-1.15941 -17.83262,-2.18973 -26.76067,-3.14052c-5.46771,-0.16001 -10.93573,-0.31054 -16.40416,-0.44934c-34.34471,-0.87178 -68.69486,-2.00648 -103.04695,-2.50797c-34.85758,-0.50887 -69.72506,-1.3081 -104.58645,-1.3081c-27.9426,0 -55.87444,-0.6807 -83.80986,-0.72492c-0.98999,0.15238 -1.97496,0.25782 -2.92065,-0.00225h-2.98153c-1.38071,0 -2.5,-1.11929 -2.5,-2.5c0,-0.19297 0.02186,-0.38083 0.06325,-0.56124c-6.20796,0.35584 -12.41592,0.71168 -18.62387,1.06755c-25.09857,1.43877 -50.37192,4.15251 -75.33723,7.77911c3.44951,0.21555 6.89897,0.43176 10.34847,0.64735c23.27797,1.45487 46.55346,2.40229 69.85865,3.31232c34.7744,1.35787 69.50796,2.71001 104.30606,3.20712c34.99643,0.49995 69.99286,0.9999 104.98929,1.49985c10.79824,0.15426 21.60481,0.10596 32.41428,-0.05615zM7.71318,305.0739c12.56257,-0.23388 25.12513,-0.46838 37.68769,-0.70319c21.90122,-0.40937 43.79663,-0.93755 65.69166,-1.5174c-6.61498,-0.50965 -13.2341,-0.99598 -19.85581,-1.42033c-19.10148,0.71286 -38.20297,1.42558 -57.30449,2.13753c-8.73968,0.50122 -17.47936,1.00234 -26.21905,1.50339zM286.1537,295.78361c-0.04048,-0.00373 -0.08095,-0.00746 -0.12143,-0.01119c-12.26781,0.40592 -24.5435,1.16047 -36.79875,1.68109c-34.98715,1.4863 -70.02128,2.21078 -105.03863,2.62275c-1.29631,0.01525 -2.59261,0.0309 -3.88891,0.04682c5.8705,0.45326 11.73869,0.92802 17.6051,1.4201c31.15532,-0.98157 62.26848,-2.43909 93.40809,-3.9634c11.61385,-0.56851 23.22498,-1.17041 34.83453,-1.79616zM454.73766,323.87483c-16.04811,1.03128 -32.0953,2.52665 -48.11895,3.69201c-34.57916,2.51485 -69.12338,5.50062 -103.6768,8.3462c-34.86832,2.87151 -69.71975,4.83907 -104.65777,6.65876c-28.41299,1.47984 -56.80947,3.04906 -85.23472,4.12511c7.02412,0.83299 14.04133,1.72951 21.05371,2.66831c21.14171,-1.89433 42.29431,-3.70783 63.46364,-4.94646c34.94024,-2.04438 69.88048,-4.08875 104.82073,-6.13313c34.19326,-2.00067 68.34991,-4.5999 102.51567,-7.023c20.87366,-1.4804 41.54663,-4.14821 62.28847,-6.80104c-3.28548,-0.16008 -6.57098,-0.31894 -9.85652,-0.4754c-0.86582,-0.03706 -1.73163,-0.07417 -2.59745,-0.11135zM192.3759,309.62519c-11.52754,-1.07084 -23.05805,-2.10657 -34.59543,-3.07544c-3.15768,0.09919 -6.31579,0.19348 -9.47441,0.28246c-14.04359,0.39559 -28.08608,0.78551 -42.1289,1.15206c12.79554,0.21108 25.59053,0.43689 38.3842,0.62365c15.93872,0.23268 31.87701,0.60156 47.81454,1.01726zM506.21601,321.32649c-0.29622,-0.03711 -0.59245,-0.0742 -0.88868,-0.11126c0.00203,0.02336 0.00373,0.04682 0.00511,0.07036c0.29452,0.01365 0.58905,0.02729 0.88357,0.0409zM316.45038,318.40202c0.31617,-0.016 0.63235,-0.032 0.94852,-0.048c-0.54257,-0.01965 -1.08513,-0.03929 -1.6277,-0.0589c0.22639,0.03563 0.45278,0.07127 0.67918,0.1069z" fill="#000000" stroke="none" stroke-width="0.5"/><path d="M64.23633,319.68872c-0.60235,2.77485 -1.1981,5.54953 -1.77758,8.32495c-4.96762,23.79228 -10.51603,48.34767 -21.80863,70.02938c-3.05635,5.86818 -5.77095,12.22493 -9.45641,17.73043c-1.28426,1.91849 -1.90181,5.00161 -4.14465,5.54899c-2.05217,0.50085 -3.64549,-2.13526 -5.46823,-3.20289c-2.03191,-6.26483 -4.40822,-12.728 -5.79117,-19.17011c-1.39731,-6.50897 -1.83522,-13.40496 -2.73503,-20.00355c-2.60087,-19.07304 -3.84974,-38.35625 -5.36723,-57.56119c-0.59695,-0.24195 -1.1577,-0.5626 -1.63828,-0.92769c-1.42384,-1.08164 -1.70456,-3.14461 -2.50217,-4.74494c-1.54218,-3.09426 -2.69458,-6.38598 -3.64704,-9.70947c-5.07102,-17.69473 -8.18718,-35.79109 -9.36308,-54.18227c-1.06473,-16.65243 0.62944,-33.34707 2.00562,-49.9612c0.66591,-8.03932 1.33956,-16.07752 1.99535,-24.11703c-0.79602,-9.24604 -1.59203,-18.49208 -2.38805,-27.73812c-1.2555,-14.5831 -3.05983,-29.18162 -2.93982,-43.82299c0.15027,-18.33272 0.30054,-36.66543 0.4508,-54.99815c0.06847,-8.35377 -0.25681,-16.82151 0.2115,-25.16126c0.42525,-7.57291 2.11796,-15.28754 3.16171,-22.80258c1.36943,-9.85987 1.97775,-20.22887 4.16777,-29.93501c1.05128,-4.65927 3.05487,-9.33615 4.54479,-13.87391c0.05477,-0.1668 3.16215,-9.63851 3.18734,-9.68321c1.22845,-2.18001 2.02484,-5.93858 4.52664,-5.9886c3.04971,-0.06098 4.84251,5.86688 5.74607,8.4286c0.17306,0.49064 0.34632,0.98069 0.51963,1.47023c1.1271,0.80573 0.93507,2.34197 0.93507,2.34197c-0.00913,0.07298 -0.01822,0.14597 -0.02728,0.21897c3.47234,9.79386 6.85909,19.44676 8.93743,29.68768c2.65004,13.05797 5.92107,26.14963 7.97564,39.31255c3.33924,21.39336 4.76326,43.28031 7.12281,64.80681c1.47838,34.41783 2.91588,68.7196 2.91588,103.17117c0,8.3567 0.2828,16.77008 -0.00294,25.12128c-0.25796,7.53916 -1.47426,15.17127 -2.20546,22.68079c-0.64372,6.6111 -0.73059,13.60829 -1.97044,20.13047c-0.93061,4.89544 -2.80692,9.84865 -4.17831,14.64218c-1.90964,6.67489 -3.41522,13.17783 -6.69103,19.32161c-3.9616,7.3817 -7.3537,15.55681 -12.89174,21.8932c-1.04229,1.19254 -1.82661,2.80402 -2.98874,3.84305c1.5152,19.1711 2.75542,38.42214 5.3517,57.46152c0.88261,6.47249 1.29898,13.24547 2.6695,19.62966c1.25725,5.85654 3.53241,11.5504 5.00837,17.36611c0.11637,0.3867 0.14369,1.50779 0.3491,1.16011c0.54904,-0.92931 0.38164,-2.14564 0.81674,-3.13344c1.33034,-3.02022 3.21934,-5.76319 4.7437,-8.69027c3.01052,-5.78084 6.62197,-11.55131 9.15228,-17.55444c1.88692,-4.47671 3.0957,-9.44282 4.61345,-14.05946c2.35309,-7.15755 5.28577,-14.35652 7.12514,-21.6605c2.01736,-8.01075 3.38862,-16.24882 5.07723,-24.33635c2.89442,-13.86276 6.19968,-27.70768 8.69608,-41.64677c3.52121,-19.66134 6.46579,-39.44492 9.69716,-59.15629c5.65485,-34.49457 10.44567,-69.10069 15.34858,-103.70947c4.80978,-33.95138 7.06887,-68.3492 10.29448,-102.48691c2.89429,-30.61533 4.25906,-61.34888 7.37065,-91.95054l0.12231,-0.18219l-0.07596,-0.02071l0.90431,-3.31621c0.27062,-1.08824 1.25424,-1.89468 2.42622,-1.89468c1.33139,0 2.41969,1.04074 2.49575,2.35306l0.3313,4.96957c0.32397,1.37365 0.4203,8.7098 0.45221,10.09654c0.11504,4.99868 0.22948,9.99737 0.34422,14.99605c0.53225,23.18758 -1.6584,46.34797 -3.10483,69.49081c-2.12509,33.98877 -5.14453,67.97289 -8.02024,101.90625c-1.96963,23.24169 -3.29235,46.64487 -5.91798,69.82031c-1.31413,11.59932 -3.28888,23.16418 -4.93043,34.72236c-1.40614,9.90065 -2.81228,19.80129 -4.21842,29.70194c-0.61873,4.35647 -0.85777,9.02742 -1.89812,13.30651c-3.89426,16.01758 -9.88401,31.69981 -14.41673,47.56431l-1.35842,4.75448c-0.28053,1.07387 -1.25721,1.86634 -2.41899,1.86634c-1.02534,0 -1.90651,-0.61726 -2.29218,-1.50046l-2.07753,-4.48603l0.28855,-0.13363c-0.47977,-0.77664 -0.93834,-1.56528 -1.36997,-2.36765zM12.10897,314.05507c4.89672,-6.42607 8.25985,-14.33502 12.02297,-21.34689c3.12664,-5.78393 4.48495,-12.02484 6.28952,-18.33249c1.32965,-4.64763 3.171,-9.45356 4.07341,-14.20066c1.21125,-6.37172 1.27707,-13.22197 1.90601,-19.68125c0.72314,-7.4267 1.9397,-14.98305 2.18782,-22.43879c0.27525,-8.27115 -0.00294,-16.60228 -0.00294,-24.87872c0,-34.32623 -1.45659,-68.49831 -2.90145,-102.79159c-2.35735,-21.39581 -3.75831,-43.15083 -7.07742,-64.41529c-2.04282,-13.08765 -5.30063,-26.1057 -7.93556,-39.0892c-1.31826,-6.49569 -3.17279,-12.66926 -5.23778,-18.83925c-0.47934,5.61477 -0.88437,11.23756 -1.43591,16.84528c-1.94229,19.74826 -3.87655,39.45106 -5.14063,59.25511c-2.19797,34.43488 -4.53568,68.8554 -6.96935,103.27442c-0.71487,10.11028 -1.50918,20.2136 -2.33234,30.31478c0.90752,10.54116 1.81503,21.08232 2.72255,31.62348c3.00176,34.86665 6.49996,69.69297 9.81687,104.53102c0.00475,0.05668 0.0095,0.11336 0.01424,0.17005zM-3.09558,147.00185c2.43131,-34.38722 4.76678,-68.77596 6.96272,-103.17903c1.26773,-19.86111 3.20629,-39.62097 5.15449,-59.42605c0.90124,-9.16182 1.41705,-18.3623 2.49241,-27.50459c-0.70133,-1.73055 -1.46084,-3.44602 -1.78899,-5.27468c-0.16982,-0.94635 0.79564,-3.06071 -0.1488,-2.88056c-0.95424,0.18202 0.16582,1.96218 -0.02751,2.91419c-0.65048,3.20319 -2.03211,6.21328 -3.05175,9.31874c-1.44286,4.39443 -3.40873,8.92957 -4.42426,13.44247c-2.15128,9.56002 -2.73753,19.78312 -4.08633,29.49452c-1.02821,7.40313 -2.71961,15.02028 -3.12753,22.47992c-0.45023,8.23345 -0.13072,16.59016 -0.19832,24.83706c-0.15027,18.33272 -0.30054,36.66543 -0.4508,54.99815c-0.11165,13.62151 1.47256,27.20985 2.69466,40.77986zM6.72894,310.28859c-3.20211,-33.49541 -6.54651,-66.98197 -9.43266,-100.50571c-0.06801,-0.78995 -0.13602,-1.5799 -0.20403,-2.36984c-1.24674,14.67049 -2.50476,29.39987 -1.56561,44.08829c0.91758,14.351 2.46811,29.65909 6.43368,43.51246c1.49092,5.2084 2.86817,10.28302 4.76862,15.27481zM65.87909,312.16177c0.50253,0.42737 0.74454,0.94995 0.74454,0.94995l1.13001,2.44004c0.43351,0.93608 0.99343,1.82901 1.44504,2.75891c4.43302,-15.13982 10.05998,-30.12776 13.8056,-45.42012c1.01439,-4.14149 1.22593,-8.68996 1.82511,-12.90875c1.40614,-9.90065 2.81228,-19.80129 4.21842,-29.70194c1.63491,-11.51145 3.60373,-23.02977 4.91254,-34.58216c2.62031,-23.12847 3.93841,-46.48501 5.90405,-69.67966c2.87259,-33.89652 5.89092,-67.84396 8.01212,-101.79593c1.27858,-20.45722 3.1508,-40.93074 3.17691,-61.42258c-1.4194,19.22765 -2.66226,38.46844 -4.47501,57.66312c-3.23292,34.21512 -5.50104,68.68948 -10.32174,102.7179c-4.908,34.6447 -9.7043,69.28665 -15.36501,103.81702c-3.23719,19.74686 -6.18444,39.56697 -9.71585,59.26303c-1.55288,8.66105 -3.41462,17.28582 -5.29673,25.90117z" fill="#ff0000" stroke="none" stroke-width="0.5"/><path d="M406.77766,193.86232c2.49893,-0.07307 2.572,2.42586 2.572,2.42586l0.04821,1.64866c0.61071,20.88577 0.13348,41.94054 3.45587,62.58045c1.23329,7.66166 2.82608,16.45014 7.895,22.52041c1.23907,-2.5329 2.40073,-5.08483 3.43317,-7.6624c4.91431,-12.26886 8.6519,-25.16284 12.95291,-37.66266c3.22252,-9.36546 7.00825,-18.71553 9.7205,-28.23902c2.25797,-7.92838 3.68019,-16.20717 5.50778,-24.24753c3.69414,-16.25211 7.38827,-32.50422 11.08241,-48.75634c3.6124,-15.89252 4.84584,-32.29802 6.79806,-48.47359c2.18662,-18.11767 4.90723,-36.24352 5.93865,-54.46529c0.38181,-6.7453 0.82083,-13.49611 1.26359,-20.24972c-0.011,-0.64691 -0.02209,-1.29387 -0.03324,-1.94088c-0.37064,-21.49717 -0.34759,-42.98733 -0.34515,-64.48748c0.00073,-6.40872 0.46632,-12.76997 0.85396,-19.16606c0.01046,-0.17264 0.61232,-10.14848 0.62597,-10.18729c0.02305,-0.06554 0.04697,-0.13067 0.07171,-0.1954l-0.03378,-0.00776l0.77791,-3.38448c0.23592,-1.13556 1.24216,-1.98886 2.4477,-1.98886c1.33139,0 2.41969,1.04074 2.49575,2.35306l0.3313,4.96957c0.21066,3.17408 0.3337,6.35658 0.32585,9.53764c-0.03743,13.33914 0.28244,26.73435 -0.11332,40.067c-0.44056,14.84205 -1.42934,29.69923 -2.40205,44.54308c0.57988,34.14396 0.93678,68.15862 0.14266,102.30554c-0.27124,11.66351 -0.54249,23.32703 -0.81373,34.99054c-0.14596,6.27629 0.10946,12.71639 -0.44532,18.96913c-1.47063,16.57487 -4.6338,33.17964 -6.93781,49.6622c-0.8356,5.97776 -1.05348,12.50721 -2.57649,18.34658c-2.10062,8.05397 -5.52232,15.98944 -8.24596,23.85773c-1.56855,4.53136 -2.7213,10.45324 -5.10058,14.60097c-0.90665,1.58053 -2.34332,2.79095 -3.52298,4.17966c-2.98061,3.50882 -6.47695,9.15097 -10.20959,11.80286c-0.48466,0.34433 -10.25378,4.0959 -10.70734,4.10551c-4.00088,0.0848 -8.45408,-2.5861 -11.8095,-5.10276c-2.78969,5.2723 -5.73548,10.48462 -8.38003,15.70026c-4.27635,8.43391 -8.02306,17.58021 -13.40198,25.3598c-4.75068,6.84657 -9.50136,13.69314 -14.25204,20.5397c-2.7518,3.96583 -5.47384,9.35408 -8.90484,12.73132c-3.0372,2.98961 -8.56749,5.10724 -12.22747,7.26017c-4.07885,2.39933 -8.99034,6.38343 -13.47275,7.84339c-1.48676,0.48425 -3.11863,0.2332 -4.67915,0.33166c-4.98724,0.31466 -9.98499,0.60264 -14.97671,0.83564c-1.89503,0.08845 -3.83737,0.64148 -5.68703,0.21993c-0.4438,-0.10114 -8.6922,-4.68161 -9.40866,-5.07665c-0.50728,-0.2797 -8.90957,-4.89691 -9.14807,-5.09517c-0.2385,-0.19826 -6.31341,-7.6153 -6.68111,-8.06293c-3.1558,-3.84184 -6.98597,-7.676 -9.69947,-11.83719c-3.41765,-5.24101 -5.64815,-11.82361 -8.33839,-17.47575c-7.23356,-15.19757 -13.74813,-30.37828 -19.77955,-46.09173c-5.97049,-15.55469 -12.53739,-31.00985 -17.94884,-46.7662c-5.91349,-17.21812 -10.54564,-34.9959 -15.79803,-52.42897c-5.76935,-19.14891 -12.0438,-38.22202 -17.32627,-57.51c-3.96324,-14.47104 -7.20415,-29.18261 -10.79991,-43.75c-5.98782,-24.25829 -12.73529,-48.46195 -17.9902,-72.88787c-2.10509,-9.78488 -3.62932,-19.7349 -5.43916,-29.57929c-3.94482,-21.45732 -8.1392,-42.87514 -11.46354,-64.43643c0.8311,22.85816 1.6622,45.71632 2.49331,68.57448c1.27174,34.97711 2.53404,69.95457 3.79635,104.93202c1.26218,34.97397 2.73107,69.94129 4.11379,104.9107c1.37926,34.88168 2.59641,69.96125 5.34554,104.76264c1.53612,19.45751 2.98556,38.92406 4.67641,58.36875c0.57753,6.6416 1.15661,13.28307 1.73259,19.92481c0.34348,3.96064 1.10355,9.31848 0.44255,13.28678v5c0,1.38071 -1.11929,2.5 -2.5,2.5c-1.10809,0 -2.04781,-0.72092 -2.37569,-1.71932l-1.55385,-4.38214c-4.389,-11.70316 -8.89261,-23.37267 -12.2707,-35.41032c-9.38985,-33.46021 -15.69546,-67.79682 -23.53226,-101.65179c-7.82541,-33.80577 -15.65835,-67.54425 -22.40028,-101.58391c-3.23765,-16.34672 -7.01362,-32.6852 -9.72857,-49.12562c-2.98602,-18.08186 -4.83088,-36.43273 -7.23941,-54.60183c-3.84304,-28.99047 -4.84193,-58.90861 -4.84193,-88.14374c0,0 0,-2.5 2.5,-2.5c2.5,0 2.5,2.5 2.5,2.5c0,29.01594 0.98437,58.71371 4.79857,87.48668c2.40154,18.11632 4.23862,36.41498 7.21596,54.44423c2.70627,16.38782 6.47281,32.67436 9.70011,48.96885c6.73158,33.98743 14.55334,67.67383 22.36675,101.42776c7.81936,33.77964 14.10618,68.0428 23.4751,101.42843c2.48794,8.86564 5.59764,17.52888 8.81586,26.15467c-0.29165,-4.5371 -0.82621,-9.08291 -1.21969,-13.60799c-1.98085,-22.77982 -3.7464,-45.57599 -5.54599,-68.3708c-2.75104,-34.86724 -3.97529,-70.01118 -5.35714,-104.9586c-1.38295,-34.97516 -2.85205,-69.94822 -4.11444,-104.92793c-1.26229,-34.97701 -2.52458,-69.95401 -3.7963,-104.93067c-0.84782,-23.31793 -1.69564,-46.63585 -2.54346,-69.95378c-0.34763,-9.56089 -1.3441,-19.14486 -1.34913,-28.69605c0,0 0,-4.45317 0,-4.45317c0,-1.38071 1.11929,-2.5 2.5,-2.5c1.16178,0 2.13847,0.79247 2.41899,1.86634l1.35842,4.75448c1.30052,2.71569 1.74372,7.171 2.17516,10.07434c1.22491,8.24281 2.4414,16.48689 3.66163,24.7304c2.92061,19.73076 7.05632,39.33619 10.66289,58.95365c1.80076,9.79498 3.31522,19.69602 5.40973,29.43174c5.24432,24.3767 11.98057,48.53179 17.95635,72.74127c3.58563,14.52636 6.81596,29.19724 10.76802,43.62748c5.27129,19.24717 11.53413,38.27989 17.29128,57.38833c5.23453,17.37382 9.84732,35.09401 15.74151,52.25319c5.39216,15.69768 11.93748,31.09551 17.88587,46.59264c5.9856,15.59406 12.4477,30.65251 19.6263,45.73461c2.59901,5.46046 4.73547,11.88874 8.04408,16.94349c2.61114,3.98918 6.31457,7.65817 9.34271,11.3446c2.01612,2.45441 3.57109,5.36117 6.01368,7.3916c2.4426,2.03042 5.58457,3.02802 8.36608,4.56167c2.71763,1.49843 5.07973,3.8906 8.10549,4.58019c3.02577,0.68959 6.19114,-0.44283 9.28967,-0.61571c3.32816,-0.1857 6.65489,-0.39896 9.98447,-0.55709c1.16945,-0.05554 2.39924,0.24454 3.51007,-0.12527c4.10782,-1.36755 8.64301,-5.16588 12.38528,-7.36721c3.30777,-1.94575 8.64584,-3.89634 11.36186,-6.6159c3.15996,-3.16408 5.64319,-8.23496 8.19761,-11.91633c4.75068,-6.84657 9.50136,-13.69314 14.25204,-20.5397c5.26501,-7.55803 8.88551,-16.55642 13.05042,-24.77055c2.78336,-5.4894 5.91698,-10.97926 8.83775,-16.54127c-0.7902,-0.59734 -1.54667,-1.22649 -2.13924,-2.01014c-1.11923,-1.48014 -1.55815,-3.36843 -2.32322,-5.05903c-0.16038,-0.3544 -4.12386,-9.25417 -4.17899,-9.43944c-0.06075,-0.20418 -1.59654,-9.78639 -1.66128,-10.18858c-3.35771,-20.85934 -2.90012,-42.12252 -3.51728,-63.22893l-0.04821,-1.64866c0,0 -0.07307,-2.49893 2.42586,-2.572zM424.54291,286.61817c2.50741,2.00767 6.37944,4.66063 9.38244,4.59698c1.38014,-0.02925 2.51731,-1.13583 3.79815,-1.6507c1.35927,-0.5464 2.92503,-0.68349 4.11929,-1.53196c1.19426,-0.84847 1.8581,-2.26553 2.80236,-3.38559c2.14852,-2.54852 4.3257,-5.07282 6.50598,-7.59423c4.29214,-4.9637 5.5598,-10.9927 7.69574,-17.16319c2.6716,-7.71796 6.03053,-15.49744 8.10956,-23.39157c1.49253,-5.66716 1.67412,-12.0616 2.48596,-17.86938c2.29077,-16.38782 5.43564,-32.89638 6.90609,-49.3749c0.54922,-6.15481 0.28656,-12.50181 0.43025,-18.68048c0.27124,-11.66351 0.54249,-23.32703 0.81373,-34.99054c0.38435,-16.52716 0.49833,-33.02314 0.44778,-49.51784c-0.93066,7.51559 -1.92668,15.02365 -2.83268,22.53052c-1.97312,16.34869 -3.23521,32.91951 -6.88641,48.98273c-3.69414,16.25211 -7.38827,32.50422 -11.08241,48.75634c-1.8476,8.1284 -3.29186,16.49337 -5.57463,24.50881c-2.73708,9.61067 -6.54941,19.0454 -9.80134,28.49631c-4.33754,12.60597 -8.09994,25.61909 -13.0762,37.98445c-1.26051,3.13221 -2.70445,6.22623 -4.24366,9.29424z" fill="#ff7b00" stroke="none" stroke-width="0.5"/><path d="M202.80038,161.03244c-2.48387,0.28357 -2.76743,-2.2003 -2.76743,-2.2003l-0.35198,-3.08311c-0.96132,-8.42055 -1.30026,-16.68702 -1.49563,-25.1574c-0.57084,-24.74886 -0.33268,-49.95106 3.10438,-74.47597c1.39547,-9.9573 1.96713,-20.41568 5.19023,-29.94998c3.20793,-9.42329 5.77335,-19.47317 9.74441,-28.59648c2.61809,-6.01494 6.37998,-11.7747 9.51021,-17.54257c3.27979,-6.04345 6.2243,-12.06398 10.50677,-17.46081c2.98177,-3.75767 5.96328,-8.75046 9.52195,-11.95136c1.67823,-1.50951 3.31257,-3.79319 5.56902,-3.85249c5.7136,-0.15017 8.91524,8.16228 11.18123,11.94284c0.15827,0.26406 5.18661,8.64611 5.25485,8.78975c2.84532,5.98916 4.63891,12.79107 6.89554,19.02997c1.70795,4.72198 3.72829,9.46122 5.15633,14.27416c2.21648,7.47023 3.24138,15.52788 4.8311,23.15854c2.35243,11.29166 5.34403,22.64618 6.67706,34.10401c2.49302,21.53065 5.42434,43.06094 7.48332,64.63681c1.19885,12.56267 1.52997,25.27313 2.29213,37.87085c0.70505,11.65377 1.6143,23.31563 2.11589,34.97968c1.00175,23.29439 0.69389,46.63667 2.15577,69.91148c0.82926,13.20279 1.08012,26.59973 2.84176,39.71093c0.66581,4.95538 1.34364,9.90944 1.99514,14.86672c0.1925,1.46474 0.48117,2.92107 0.57852,4.39464c0.32114,-1.4762 0.87778,-2.89312 1.31497,-4.33989c2.6716,-8.84095 4.11933,-17.42342 5.55148,-26.55338c0.95194,-6.06859 1.7603,-12.17228 2.44387,-18.30068l-0.73285,-2.56499l0.06413,-0.01832l-0.11581,-0.19883c-2.13893,-20.95335 -2.09515,-42.00628 -2.3686,-63.06169c-0.44703,-34.42098 -0.85846,-68.84218 -1.25411,-103.26379c-0.32988,-28.70164 -2.87677,-58.25633 0.68884,-86.78119c0,0 0.31009,-2.48069 2.79078,-2.17061c2.48069,0.31009 2.17061,2.79078 2.17061,2.79078c-3.53666,28.29328 -0.97782,57.6342 -0.65056,86.10355c0.39562,34.41913 0.80703,68.83783 1.25402,103.25633c0.15281,11.76675 0.21605,23.52997 0.60969,35.2764c0.90417,-17.38882 1.06719,-34.83692 0.90702,-52.11309c-0.32458,-35.00896 -0.55636,-70.01007 -0.55636,-105.0206c0,-10.00831 -0.35592,-20.09022 0.00167,-30.09128c0.35499,-9.92838 1.45367,-19.88971 2.17873,-29.79884c0.72973,-9.97291 0.90572,-20.1759 2.20733,-30.08829c0.59282,-4.5146 1.91229,-9.0676 2.85427,-13.52061c1.77144,-8.37408 3.5392,-16.65276 5.6357,-24.87428c-0.31175,-19.99223 -0.83411,-40.01021 0.06017,-59.97768c0.22371,-4.99498 0.44281,-9.9902 0.67113,-14.98498c0.15393,-3.36744 0.03882,-7.09381 1.36437,-10.30614l1.07307,-4.83309c0.22924,-1.1442 1.23958,-2.00618 2.45124,-2.00618c1.38071,0 2.5,1.11929 2.5,2.5v5c0,20.71836 -0.0419,41.43231 -0.15895,62.14702c0.72059,-0.54899 1.5809,-0.89201 2.61814,-0.91758c5.42899,-0.13386 8.87028,9.34048 10.90852,12.93738c2.46863,4.35641 5.42356,8.73246 7.51079,13.28141c3.2129,7.00227 4.87232,15.2319 7.21483,22.57622c3.02961,9.49853 6.83358,19.06617 9.16505,28.75624c3.10417,12.90157 4.38561,26.54726 6.546,39.64465c1.82926,11.08986 4.51544,22.39625 5.10544,33.62091c1.02969,19.97348 2.05938,39.94695 3.08907,59.92043c0.77516,15.03624 1.8748,30.05861 1.66712,45.11582c-0.29882,21.66461 -0.59764,43.32921 -0.89647,64.99382c-0.1738,12.60059 0.03056,25.23254 -1.12007,37.78492c-1.67354,18.25679 -3.34708,36.51358 -5.02062,54.77037c-0.76219,8.31476 -1.16837,16.75777 -2.29803,25.02957c-1.05602,7.73257 -3.11978,15.46129 -4.66548,23.11252c-4.86958,24.10442 -9.67994,48.13307 -15.62558,71.99649c-1.21069,4.85923 -2.21391,9.85241 -3.65169,14.64864c-0.54287,1.81095 -0.79961,3.79123 -1.85509,5.35973c-0.97153,1.44375 -2.26543,3.30446 -4.00506,3.34874c-2.20721,0.05617 -3.90316,-2.06521 -5.85474,-3.09782c-1.67646,-4.87317 -4.10419,-10.33486 -4.98468,-15.43257c-0.03712,-0.21492 -0.40162,-9.90616 -0.41757,-10.32244c-0.25529,-6.66178 -0.51057,-13.32355 -0.76586,-19.98533c-0.76885,-20.06329 -0.83874,-40.02013 -0.67683,-60.09642c0.28067,-34.80307 0.43854,-69.59928 0.42685,-104.4035c-0.01176,-35.00887 -0.21383,-69.88945 -1.57432,-104.87347c-0.91994,-23.65552 -1.75999,-47.31649 -2.71989,-70.97157c-0.18687,10.65917 -0.41855,21.31753 -0.87208,31.9571c-0.62377,14.63351 -1.97739,29.27452 -2.96483,43.88861c-1.44006,21.31296 -4.29753,42.66161 -7.31832,63.80714c-0.94363,6.60538 -1.8397,13.21973 -2.83123,19.81807c-0.46851,3.11779 -0.50933,6.34253 -1.48181,9.34159l-0.77715,4.89905c-0.08942,0.63369 -0.41643,1.19103 -0.88802,1.57903c-0.61645,5.2171 -1.32471,10.41526 -2.13615,15.58817c-1.46701,9.35221 -2.93371,18.18036 -5.70771,27.23435c-0.73514,2.39942 -2.67275,11.08557 -6.5825,10.83057c-2.55712,-0.16679 -3.29343,-4.0134 -4.31067,-6.3654c-0.05047,-0.1167 -1.35811,-9.92203 -1.4043,-10.26625c-2.23034,-16.6193 -3.15554,-33.2421 -4.20645,-49.9737c-1.46396,-23.30793 -1.15782,-46.68268 -2.16099,-70.01009c-0.50035,-11.63497 -1.40809,-23.26783 -2.11139,-34.89256c-0.75937,-12.55159 -1.08429,-25.21784 -2.28198,-37.73411c-2.06023,-21.53012 -4.98161,-43.01484 -7.46941,-64.50039c-1.3025,-11.30554 -4.28426,-22.51908 -6.60514,-33.65934c-4.55851,-21.88082 -9.94421,-44.36944 -21.53155,-63.70168c-1.49569,-2.49539 -2.6376,-5.22939 -4.4346,-7.51737c-0.61883,-0.78791 -1.24493,-2.08691 -2.24308,-2.00061c-1.08847,0.09411 -1.53755,1.55551 -2.24435,2.3886c-3.16605,3.73179 -6.09805,7.70323 -9.14771,11.53148c-4.10188,5.1491 -6.89024,10.95603 -10.02602,16.73413c-3.06232,5.64273 -6.76463,11.27862 -9.3245,17.16293c-3.91215,8.99275 -6.42931,18.91381 -9.59142,28.20251c-3.15296,9.19131 -3.62441,19.4179 -4.97187,29.03261c-3.39961,24.25773 -3.62194,49.18741 -3.05732,73.66673c0.19192,8.32091 0.52042,16.43436 1.46469,24.70555l0.35198,3.08311c0,0 0.28357,2.48387 -2.2003,2.76743zM328.3087,223.94703c1.9867,-14.96642 3.71752,-29.9841 4.73232,-45.00323c0.98493,-14.57698 2.33734,-29.18124 2.95857,-43.77759c0.84906,-19.94972 0.91813,-39.96552 1.37705,-59.92858c0.37857,-16.45662 0.56348,-32.92222 0.6922,-49.38903c-0.81586,-15.34106 -1.55022,-30.68777 -1.93744,-46.02522c-0.36211,1.72638 -0.72367,3.45478 -1.08963,5.18477c-0.9183,4.34106 -2.22124,8.78587 -2.79547,13.18726c-1.2788,9.80183 -1.44967,19.89068 -2.17121,29.75173c-0.7206,9.84823 -1.81622,19.74924 -2.16873,29.61652c-0.35511,9.94005 0.00167,19.96139 0.00167,29.90872c0,34.99508 0.23171,69.98073 0.55615,104.97424c0.09693,10.45461 0.07523,20.97152 -0.15547,31.50042zM343.66576,-50.72671c-0.05459,7.59078 -0.12018,15.18181 -0.1984,22.77334c-0.18437,17.89396 -0.25849,35.79641 -0.39818,53.69746c0.80013,15.03138 1.67828,30.0573 2.38327,45.0636c1.61876,34.45645 2.78978,68.93636 4.13022,103.40473c1.36298,35.04813 1.56632,69.99313 1.5781,105.06609c0.01169,34.81821 -0.14623,69.62843 -0.42701,104.4455c-0.17478,21.67268 0.03483,43.20297 0.86479,64.86097c0.30509,7.96134 -0.43128,16.81291 0.92268,24.65189c0.7586,4.39205 2.81758,8.8667 3.9888,13.19393c2.37429,2.20649 2.10341,-0.78081 2.98257,-3.91703c2.23707,-7.98028 4.01496,-16.12222 6.01879,-24.16478c5.11449,-20.52749 8.96982,-41.33973 13.15865,-62.07442c1.52754,-7.56131 3.58054,-15.20487 4.61921,-22.84673c1.11231,-8.18363 1.51215,-16.53608 2.26617,-24.76168c1.67354,-18.25679 3.34708,-36.51358 5.02062,-54.77037c1.13873,-12.42251 0.92767,-24.92698 1.09967,-37.39746c0.29882,-21.66461 0.59764,-43.32921 0.89647,-64.99382c0.20618,-14.9477 -0.89143,-29.86235 -1.66096,-44.78944c-1.02969,-19.97348 -2.05938,-39.94695 -3.08907,-59.92043c-0.55658,-11.02908 -3.24816,-22.16877 -5.04541,-33.06458c-2.14046,-12.97656 -3.3986,-26.50702 -6.47394,-39.28875c-2.30272,-9.57058 -6.07486,-19.02441 -9.06734,-28.40651c-2.28639,-7.16836 -3.882,-15.26879 -7.03257,-22.09268c-2.02699,-4.39031 -4.89466,-8.61055 -7.27959,-12.81926c-1.56687,-2.76507 -2.96396,-5.63049 -4.66251,-8.31669c-0.47298,-0.74799 -0.75932,-1.95755 -1.63393,-2.09262c-0.63381,-0.09788 -0.68181,1.09779 -0.89789,1.70162c-0.80436,2.24784 -1.41189,4.55995 -2.06321,6.85811z" fill="#efff00" stroke="none" stroke-width="0.5"/><path d="M440.96085,-32.07754c-0.51207,0.32547 -2.05752,1.09143 -3.33978,-0.51139c-1.56174,-1.95217 0.39043,-3.51391 0.39043,-3.51391l6.19563,-3.24863c3.00674,8.25666 1.62185,16.31998 1.03111,24.93124c-0.69105,10.02199 -2.51074,19.97688 -3.95366,29.91701c-3.59178,24.74339 -8.3471,49.25685 -12.91538,73.83707c-3.40068,18.29781 -7.29513,36.55053 -11.44797,54.74369c0.90364,7.95342 1.81228,15.90773 2.74803,23.8616c4.03354,34.28513 7.62519,68.72107 13.80491,102.70227c0.59714,3.28426 1.19426,6.56852 1.79137,9.85278l-0.00198,0.01485l0.00442,-0.00075l0.83009,4.88232c0.02846,0.15097 0.04335,0.30674 0.04335,0.46598c0,1.38071 -1.11929,2.5 -2.5,2.5c-1.14024,0 -2.10219,-0.76336 -2.40268,-1.80691l-1.4777,-4.7171l0.00855,-0.00268c-0.00765,-0.01489 -0.01528,-0.0298 -0.02289,-0.04473c-0.00144,-0.00282 -2.61309,-9.66664 -2.62246,-9.70132c-2.16791,-8.02134 -4.11951,-15.8757 -5.54362,-24.06435c-3.37486,-19.40547 -6.24763,-38.83225 -8.99046,-58.33676c-0.81865,-5.8215 -1.57536,-11.64835 -2.27439,-17.48013c-1.58412,6.59109 -3.18634,13.17332 -4.79534,19.74599c-8.32871,34.02225 -16.91619,67.9428 -25.86862,101.80636c-4.93771,18.67742 -10.6515,37.11374 -16.22972,55.60916c-2.28445,7.57446 -4.76579,15.08704 -7.19461,22.61632c-0.94375,2.92561 -1.36587,6.08331 -2.87011,8.76419l-1.56291,4.68873c-0.31417,1.02156 -1.26534,1.76412 -2.38994,1.76412c-1.38071,0 -2.5,-1.11929 -2.5,-2.5c0,-0.11158 0.00731,-0.22145 0.02148,-0.32916l0.4789,-4.07723l0.05748,0.00675l-0.03373,-0.16502c6.91361,-27.77159 13.233,-55.70498 20.0675,-83.50613c8.23096,-33.48164 16.67686,-66.90939 25.4112,-100.26331c4.80447,-18.3469 9.53133,-36.71184 14.22245,-55.08612c-1.60356,-18.4344 -2.70867,-36.9101 -3.44881,-55.41349c-0.1737,-4.34255 -0.2931,-8.68803 -0.36346,-13.03549c-0.19289,-1.42426 -0.38777,-2.84836 -0.58477,-4.27229c-2.04727,-14.79768 -4.37762,-29.62444 -7.11459,-44.3126c-2.75077,-14.76224 -6.56689,-29.352 -8.69434,-44.22434c0,0 -0.35355,-2.47487 2.12132,-2.82843c2.47487,-0.35355 2.82843,2.12132 2.82843,2.12132c2.11167,14.80193 5.92234,29.32377 8.65998,44.01552c1.0852,5.82378 2.10686,11.66922 3.07256,17.52599c0.61529,-19.35081 1.94551,-38.69495 3.52805,-57.94922c1.94739,-23.69328 3.55124,-47.88779 8.48882,-71.18503c1.29541,-6.11222 1.80866,-13.43366 4.08576,-19.24228c0.89163,-2.27445 1.03269,-5.79557 3.36931,-6.5085c2.15144,-0.65643 3.72954,2.51572 5.59432,3.77358c1.4093,6.7693 3.018,13.65565 3.926,20.51411c1.09413,8.26428 1.35297,16.73584 2.02319,25.04666c0.53675,6.6557 1.4167,13.38882 1.61467,20.06211c0.39482,13.30868 -0.56393,26.8042 -0.84564,40.11807c-0.19548,9.2385 0.3475,18.83813 -0.59824,28.02671c-0.23084,2.24279 -0.52014,4.48565 -0.84413,6.72757c0.83868,-5.14468 1.63886,-10.29669 2.38819,-15.45874c1.4245,-9.81324 3.23838,-19.64644 3.91352,-29.54093c0.33425,-4.87242 1.03593,-9.90337 1.02075,-14.78595c-0.00262,-0.84221 -0.18135,-1.68759 -0.30987,-2.52916zM408.67452,157.50335c-0.05055,-0.48776 -0.10072,-0.97554 -0.15051,-1.46336c-3.56181,13.87099 -7.15153,27.73498 -10.77973,41.59003c-8.72798,33.32964 -17.1677,66.73305 -25.39267,100.19032c-2.07476,8.43962 -4.09749,16.89353 -6.10373,25.35175c2.99483,-10.19915 5.85781,-20.43581 8.57002,-30.69505c8.94461,-33.83397 17.52453,-67.7248 25.84596,-101.71732c2.70737,-11.05946 5.39571,-22.14602 8.01067,-33.25636zM408.31198,72.45044c1.94283,14.36636 3.68432,28.74891 5.35565,43.13967c1.76015,-6.93252 3.518,-13.86578 5.27579,-20.79934c3.5826,-23.82206 8.36683,-47.75366 10.86734,-71.70939c0.94713,-9.07376 0.38789,-18.57865 0.58098,-27.70419c0.27991,-13.22872 1.239,-26.64076 0.84672,-39.86403c-0.24468,-8.24767 -1.33921,-16.56609 -2.00261,-24.79227c-0.52986,-6.57024 -0.72919,-13.27436 -1.59409,-19.80772c-0.78581,-5.93588 -2.21448,-11.80878 -3.18269,-17.72682c-0.08696,3.30065 -1.18967,6.58152 -1.86984,9.78804c-1.24077,5.84935 -2.7046,11.6861 -3.50125,17.61384c-2.81074,20.91447 -5.24194,41.69372 -6.97059,62.72559c-2.43291,29.60045 -4.27173,59.41471 -3.8054,89.13661z" fill="#00ff09" stroke="none" stroke-width="0.5"/><path d="M22.17941,192.72542v-82.89703h431.93717v82.89703z" fill="#000000" stroke="#000000" stroke-width="2"/><text transform="matrix(1.13177 0 0 1.13177 60.71926 136.8508)" font-size="40"  fill="#ffffff" fill-rule="nonzero" stroke="none" stroke-width="1" stroke-linecap="butt" stroke-linejoin="miter" stroke-miterlimit="10" stroke-dasharray="" stroke-dashoffset="0" font-family="Helvetica" font-weight="normal" text-anchor="start" style="mix-blend-mode: normal" >Please stand by</text></g></g></svg>