<svg xmlns="http://www.w3.org/2000/svg" xmlns:xlink="http://www.w3.org/1999/xlink" version="1.1" width="511.29275035858154" height="383.99993419647217" viewBox="0.2392265796661377 0.4392266273498535 511.29275035858154 383.99993419647217">
  <!-- Exported by Scratch - http://scratch.mit.edu/ -->
  <path id="ID0.41042835358530283" fill="#FFFFFF" stroke="#FFFFFF" stroke-width="2.121546745300293" d="M 1.3 1.5 L 510.4712 1.5 L 510.4712 383.3784 L 1.3 383.3784 L 1.3 1.5 Z "/>
  <g id="ID0.290224383585155">
    <path id="ID0.8914963030256331" fill="#FAA51D" stroke="#000000" stroke-width="0.9583801746368408" d="M 185.1231 174.9433 C 184.9858 174.9433 184.8484 174.9378 184.7102 174.9266 L 173.9916 174.0736 C 171.1332 173.846 169.0008 171.3446 169.2284 168.4871 C 169.4544 165.6295 171.943 163.4979 174.815 163.7239 L 182.5866 164.3421 L 192.8285 149.8426 C 194.4825 147.5009 197.7211 146.9427 200.0643 148.5967 C 202.4059 150.2507 202.9634 153.49 201.3102 155.8324 L 189.364 172.7479 C 188.3856 174.1311 186.8003 174.9433 185.1231 174.9433 L 185.1231 174.9433 Z "/>
    <path id="ID0.7002262021414936" fill="#FAA51D" stroke="#000000" stroke-width="0.9583801746368408" d="M 180.8783 213.4119 C 180.015 213.4119 179.1381 213.2242 178.3067 212.8289 L 171.4511 209.564 C 171.3384 209.5105 171.2282 209.453 171.1188 209.3931 L 166.7159 206.9485 C 165.0411 206.018 163.9118 204.3433 163.6778 202.4417 C 163.4446 200.5409 164.1338 198.6425 165.5331 197.3343 L 170.6484 192.5544 L 163.8511 190.5713 C 160.6749 189.6449 158.8515 186.3193 159.778 183.1431 C 160.7044 179.9669 164.03 178.1451 167.2062 179.07 L 184.0993 183.9992 C 186.1662 184.6022 187.7499 186.2682 188.2483 188.3623 C 188.7466 190.4555 188.0837 192.6566 186.5112 194.1261 L 179.8896 200.3141 L 183.4556 202.012 C 186.4425 203.4344 187.7108 207.0092 186.2884 209.9953 C 185.2637 212.1517 183.1161 213.4119 180.8783 213.4119 L 180.8783 213.4119 Z "/>
    <path id="ID0.7152078151702881_1_" fill="#FAA51D" stroke="#000000" d="M 137.7496 175.0432 C 134.9088 172.8149 131.7294 169.7369 130.0426 165.2254 C 126.2714 155.1344 129.4948 143.411 123.0592 143.5125 C 116.6189 143.6163 107.8418 160.7002 120.9133 174.1806 C 125.4177 178.8296 130.3821 181.4268 134.4696 183.4162 C 135.5437 183.9322 144.9646 187.8 150.3603 184.9488 C 155.7584 182.0961 154.197 179.8718 153.4639 178.7082 C 152.7291 177.5446 141.766 178.1899 137.7496 175.0432 L 137.7496 175.0432 Z " stroke-width="0.7986501455307007"/>
    <path id="ID0.4691764716990292_1_" fill="#FFFFFF" d="M 123.6183 144.2281 C 120.6106 143.6778 116.2212 148.651 115.1574 153.8694 C 114.0904 159.0925 115.1798 162.1993 115.8474 164.8245 C 117.1333 167.214 116.5399 161.209 120.4373 160.3424 C 124.3227 159.4799 128.5236 163.0435 128.5236 163.0435 C 128.5236 163.0435 127.4414 155.8764 126.9111 151.6108 C 126.4327 147.5361 126.725 145.0155 123.6183 144.2281 L 123.6183 144.2281 Z " stroke-width="0.7986501455307007"/>
    <path id="ID0.26425604708492756_1_" fill="#FAA51D" stroke="#231F20" stroke-width="0.9583801746368408" d="M 173.9149 189.8198 C 175.6599 188.4797 177.4353 186.2914 179.7187 182.8971 C 181.6219 180.0675 183.684 174.7054 183.684 174.7054 C 184.9682 171.0028 186.5248 165.0473 180.8903 163.9899 C 178.6102 163.5626 174.8996 163.8461 169.6261 162.8502 C 164.3495 161.8495 159.6422 159.146 155.649 166.1294 C 151.6573 173.116 141.564 178.2761 154.098 190.4547 L 173.9149 189.8198 Z "/>
    <path id="ID0.441501600202173" fill="#FAA51D" stroke="#000000" stroke-width="0.9583801746368408" d="M 154.0373 216.668 C 152.5494 216.668 151.0591 216.1178 149.8987 215.0076 L 141.5456 207.0211 C 140.2039 205.7393 139.533 203.908 139.7279 202.0623 C 139.9227 200.2166 140.9626 198.5666 142.5415 197.5931 L 152.9312 191.1871 L 151.1382 188.6705 C 149.219 185.9767 149.8468 182.2358 152.5414 180.3167 C 155.2369 178.3959 158.9769 179.0252 160.8953 181.7199 L 166.4028 189.4516 C 167.3644 190.8013 167.7238 192.4905 167.3947 194.1149 C 167.0665 195.7402 166.0793 197.1562 164.6673 198.0251 L 155.4293 203.7219 L 158.1767 206.3495 C 160.5678 208.6352 160.6533 212.4272 158.3668 214.8184 C 157.1912 216.0483 155.6154 216.668 154.0373 216.668 L 154.0373 216.668 Z "/>
    <path id="ID0.203311821911484_1_" fill="#FFFFFF" d="M 180.5237 180.1593 C 180.5237 180.1593 184.1512 176.2523 176.8978 172.3501 C 169.6445 168.4479 166.3038 172.3254 164.0635 174.584 C 160.1805 178.4838 168.3211 187.4885 168.3211 187.4885 L 173.7847 188.9996 C 173.7847 188.9996 176.3364 186.5813 177.4553 184.6246 C 178.7371 182.8412 180.5237 180.1593 180.5237 180.1593 " stroke-width="0.7986501455307007"/>
    <path id="ID0.699479915201664" fill="#FAA51D" d="M 162.3792 189.6545 C 159.7381 192.3371 155.0971 192.0512 152.0135 189.0156 C 148.9291 185.9807 148.5697 181.3437 151.2117 178.6611 C 153.8528 175.9776 158.4946 174.6654 161.5781 177.7011 C 166.8269 182.8668 167.116 184.8402 162.3792 189.6545 Z " stroke-width="0.7986501455307007"/>
    <path id="ID0.4675603983923793_1_" fill="#FAA51D" stroke="#231F20" stroke-width="0.9583801746368408" d="M 185.7229 91.4892 C 183.5099 90.9773 178.8721 90.0932 176.2829 89.8679 C 169.357 89.2634 162.4782 90.8543 162.4782 90.8543 L 145.2082 75.9219 L 144.7314 103.8787 C 145.8264 102.8668 126.8448 120.4307 134.8904 138.4466 C 142.9416 156.4722 163.9909 166.8714 192.0195 165.1479 C 220.0513 163.4204 228.6927 148.5815 228.0107 140.02 C 227.3294 131.4584 217.4421 126.9916 217.4421 126.9916 C 217.4421 126.9916 218.1952 120.4538 214.5646 111.826 C 212.4066 106.6899 204.0008 98.4766 204.0008 98.4766 L 202.1184 81.1004 L 189.8536 90.1155 L 185.7229 91.4892 L 185.7229 91.4892 Z "/>
    <path id="ID0.876089540310204_1_" fill="#FFFFFF" d="M 216.1068 126.5979 L 212.901 123.1046 L 199.1107 125.1795 C 199.1107 125.1795 198.4358 130.1558 191.8941 130.6734 C 185.3468 131.1965 176.0273 125.1491 176.0273 125.1491 L 164.0228 128.5873 C 164.0228 128.5873 151.5607 128.2718 150.1055 135.7129 C 146.8662 152.2489 166.3764 161.9693 174.0658 163.462 C 178.2611 164.2782 186.1175 164.5936 192.1585 164.2223 C 218.6313 163.0171 227.7223 148.4138 227.0451 139.8491 C 226.3638 131.2883 216.8527 127.803 216.8527 127.803 L 216.1068 126.5979 L 216.1068 126.5979 Z " stroke-width="0.7986501455307007"/>
    <path id="ID0.44282719027251005_1_" fill="none" stroke="#231F20" stroke-width="0.9583801775559995" d="M 125.5387 111.7146 C 125.5387 111.7146 128.6252 116.9269 130.355 119.0588 C 132.0855 121.1889 135.7752 125.0941 135.7752 125.0941 "/>
    <path id="ID0.893105489667505_1_" fill="none" stroke="#231F20" stroke-width="0.9583801883430147" d="M 222.9694 135.8711 C 222.9694 135.8711 229.6598 134.8395 233.0632 133.6856 C 237.0621 132.3389 239.7686 130.0085 239.7686 130.0085 "/>
    <path id="ID0.6674723788164556_1_" fill="none" stroke="#231F20" stroke-width="0.9583801722035654" d="M 223.4551 144.5113 C 223.4551 144.5113 227.5891 145.7659 231.7316 145.8068 C 235.8203 145.8453 238.5418 145.3542 238.5418 145.3542 "/>
    <path id="ID0.12165586883202195_1_" fill="none" stroke="#000000" stroke-linecap="round" d="M 185.1894 91.5004 C 189.1843 93.0793 190.5564 94.4051 190.5564 94.4051 " stroke-width="0.7986501455307007"/>
    <path id="ID0.178104005753994_1_" fill="none" stroke="#000000" d="M 158.4386 87.0918 L 166.3964 94.6295 " stroke-width="0.7986501455307007"/>
    <path id="ID0.7735752793960273_1_" fill="#FFFFFF" stroke="#231F20" d="M 211.3548 111.5776 C 214.7267 118.6729 213.8769 126.1354 209.4556 128.2383 C 205.0303 130.3435 198.7138 126.2912 195.3355 119.1912 C 191.9508 112.0928 192.8078 104.6374 197.2323 102.5305 C 201.6528 100.4277 207.9781 104.4768 211.3548 111.5776 L 211.3548 111.5776 Z " stroke-width="0.7986501455307007"/>
    <path id="ID0.19106501014903188_1_" fill="#231F20" d="M 208.8502 121.8443 C 208.637 123.416 207.2977 124.5326 205.8441 124.3361 C 204.3986 124.1396 203.3931 122.7044 203.6063 121.1335 C 203.8187 119.561 205.1709 118.4428 206.6164 118.6385 C 208.07 118.8358 209.0635 120.2726 208.8502 121.8443 " stroke-width="0.7986501455307007"/>
    <path id="ID0.06283409334719181_1_" fill="#FFFFFF" stroke="#231F20" d="M 175.8237 111.5832 C 179.1988 118.6808 177.6901 126.4525 172.4621 128.9355 C 167.231 131.4265 160.2556 127.6848 156.8821 120.5872 C 153.5046 113.4896 155.0076 105.7203 160.2388 103.2326 C 165.4716 100.7456 172.4454 104.4832 175.8237 111.5832 L 175.8237 111.5832 Z " stroke-width="0.7986501455307007"/>
    <path id="ID0.716460831463337_1_" fill="#231F20" d="M 172.8591 122.1957 C 172.645 123.769 171.3041 124.8856 169.8514 124.6891 C 168.4066 124.4934 167.4011 123.055 167.6135 121.4841 C 167.826 119.9132 169.1789 118.7966 170.6229 118.9915 C 172.0724 119.1888 173.0715 120.6248 172.8591 122.1957 " stroke-width="0.7986501455307007"/>
    <path id="ID0.5430324394255877_1_" fill="#5E4A42" stroke="#000000" d="M 191.3055 127.4756 C 194.0033 127.8406 197.9902 127.9604 198.0285 129.2302 C 198.0685 130.5025 194.7125 135.0092 192.8229 134.9645 C 190.9277 134.9182 184.3724 130.3315 184.5793 128.0386 C 184.7813 125.7457 188.8153 127.1377 191.3055 127.4756 L 191.3055 127.4756 Z " stroke-width="0.7986501455307007"/>
    <path id="ID0.5547774969600141_1_" fill="none" stroke="#231F20" stroke-width="0.9583801746368408" d="M 170.9559 135.5499 C 170.9559 135.5499 185.4123 142.0358 190.8774 144.0252 C 196.341 146.0138 206.3377 148.6174 206.3377 148.6174 C 206.3377 148.6174 192.688 161.9509 179.6109 156.3236 C 166.5338 150.7027 167.941 142.1667 170.9559 135.5499 L 170.9559 135.5499 Z "/>
    <path id="ID0.3775032921694219" fill="#FAA51D" stroke="#000000" stroke-width="0.9583801746368408" d="M 159.8075 171.9237 C 158.6623 171.9237 157.5106 171.5467 156.5498 170.772 L 147.7088 163.6353 C 146.7648 162.8741 146.1179 161.8056 145.8799 160.6164 L 142.8825 145.6624 C 142.3187 142.8512 144.1412 140.1158 146.9525 139.5528 C 149.7645 138.9857 152.4991 140.8114 153.0621 143.6227 L 155.6905 156.7357 L 163.0716 162.6937 C 165.3022 164.4946 165.6505 167.7627 163.8503 169.9941 C 162.824 171.264 161.3218 171.9237 159.8075 171.9237 L 159.8075 171.9237 Z "/>
    <path id="ID0.893105489667505_1_" fill="none" stroke="#231F20" stroke-width="0.9583802071439153" d="M 121.9817 119.8076 C 121.9817 119.8076 126.1402 125.1492 128.8052 127.5602 C 131.9284 130.3974 135.2818 131.6267 135.2818 131.6267 "/>
  </g>
  <g id="ID0.6324665369465947">
    <g id="ID0.3306593904271722">
      <text  fill="#E5E5E5" text-anchor="start" transform="matrix(2.66209 -0.380299 0.380299 2.66209 214.015775 182.399225)" stroke-width="1" font-family="Helvetica" alignment-baseline="text-before-edge"  font-size="18" >Level</text>
      <text  fill="#E5E5E5" text-anchor="start" transform="matrix(2.66209 -0.380299 0.380299 2.66209 140.992775 243.916225)" stroke-width="1" font-family="Helvetica" alignment-baseline="text-before-edge"  font-size="18" >Complete !!!</text>
    </g>
    <g id="ID0.3306593904271722">
      <text  fill="#E5E5E5" text-anchor="start" transform="matrix(2.6567 -0.379529 0.379529 2.6567 216.81525 183.09875)" stroke-width="1" font-family="Helvetica" alignment-baseline="text-before-edge"  font-size="18" >Level</text>
      <text  fill="#E5E5E5" text-anchor="start" transform="matrix(2.6567 -0.379529 0.379529 2.6567 143.92225 244.50475)" stroke-width="1" font-family="Helvetica" alignment-baseline="text-before-edge"  font-size="18" >Complete !!!</text>
    </g>
    <g id="ID0.3306593904271722">
      <text  fill="#000000" text-anchor="start" transform="matrix(2.50828 -0.358325 0.358325 2.50828 215.33429999999998 181.8137)" stroke-width="1" font-family="Helvetica" alignment-baseline="text-before-edge"  font-size="18" >Level</text>
      <text  fill="#000000" text-anchor="start" transform="matrix(2.50828 -0.358325 0.358325 2.50828 146.5133 239.7897)" stroke-width="1" font-family="Helvetica" alignment-baseline="text-before-edge"  font-size="18" >Complete !!!</text>
    </g>
  </g>
</svg>