<svg version="1.1" xmlns="http://www.w3.org/2000/svg" xmlns:xlink="http://www.w3.org/1999/xlink" width="506.19955" height="341.475" viewBox="0,0,506.19955,341.475"><defs><linearGradient x1="226.42404" y1="-17.76455" x2="226.42404" y2="323.71048" gradientUnits="userSpaceOnUse" id="color-1"><stop offset="0" stop-color="#0c556e"/><stop offset="1" stop-color="#002734"/></linearGradient><linearGradient x1="219.37877" y1="-16.11809" x2="219.37877" y2="65.36246" gradientUnits="userSpaceOnUse" id="color-2"><stop offset="0" stop-color="#0c556e"/><stop offset="1" stop-color="#002734"/></linearGradient></defs><g transform="translate(20.50154,17.76452)"><g data-paper-data="{&quot;isPaintingLayer&quot;:true}" fill-rule="nonzero" stroke-linecap="butt" stroke-linejoin="miter" stroke-miterlimit="10" stroke-dasharray="" stroke-dashoffset="0" style="mix-blend-mode: normal"><path d="" fill="#000000" stroke="none" stroke-width="0"/><path d="" fill="#929292" stroke="none" stroke-width="0"/><path d="" fill="#ffffff" stroke="none" stroke-width="0"/><path d="M432.00191,311.41907c-41.03137,19.28549 -146.14086,7.41754 -200.20818,7.41754c-45.7408,0 -185.9793,12.18942 -222.94967,-1.98557c-32.29553,-12.38258 -28.88024,-129.98091 -28.88024,-165.48137c0,-52.17898 -8.55523,-119.08341 47.69888,-149.79647c43.45857,-23.72711 143.51396,-17.67039 204.13113,-17.67039c65.18474,0 175.37414,-9.62924 220.09355,17.3938c50.69648,30.63487 44.63167,279.79834 -19.88548,310.12255z" fill="url(#color-1)" stroke="none" stroke-width="2"/><path d="M411.57768,62.42958c-38.36107,4.60178 -136.63005,1.76993 -187.1787,1.76993c-42.764,0 -173.87581,2.90856 -208.44017,-0.47379c-30.19374,-2.95464 -27.0007,-31.0152 -27.0007,-39.48608c0,-12.4506 -7.99845,-28.41491 44.59465,-35.74346c40.6303,-5.66159 134.1741,-4.2164 190.84633,-4.2164c60.94254,0 163.96083,-2.29767 205.76993,4.1504c47.39717,7.3099 41.72705,66.76365 -18.59133,73.99942z" fill="url(#color-2)" stroke="none" stroke-width="2"/><g stroke="#000000" stroke-width="3.99013"><path d="M258.68164,185.63568c0,0 -0.36731,-0.851 0,-1.47289c0.36731,-0.62188 3.59038,-6.03283 6.7093,-9.89071c3.11942,-3.85788 6.99889,-7.85539 11.56015,-12.70664c4.56126,-4.85125 6.78449,-7.18932 11.23094,-11.53379c4.44645,-4.34447 6.55739,-6.26086 10.84736,-10.03909c4.28946,-3.77768 6.65392,-5.24347 10.5151,-8.77404c3.86066,-3.53057 4.88235,-5.04873 8.09881,-8.24708c3.21595,-3.1989 5.89743,-5.72899 8.35487,-8.11615c3.70876,-3.46402 5.69218,-4.97345 6.50304,-5.97337c0.48264,-0.59515 0.1387,-1.04629 0.45725,-1.50016c0.31448,-0.44841 0.61778,-0.08837 0.93989,-0.49096c0.32211,-0.40259 0.46029,-2.42972 1.85438,-3.00033c1.39409,-0.57061 5.42139,-0.845 7.87476,-0.98192c0.52177,-0.02891 0.75496,0.09928 0.93989,0.49096c0.18493,0.39168 0.16156,0.9001 0,1.50016c-0.16156,0.60006 -0.36782,1.06048 -0.93989,1.99112c-0.57206,0.93065 -3.03508,5.27675 -5.51233,8.51001c-2.47725,3.23326 -4.63646,5.24021 -7.92557,9.02825c-3.28911,3.78805 -7.06748,8.00323 -11.32949,13.14687c-4.26203,5.14365 -5.71352,7.44844 -9.57673,12.08312c-3.86321,4.63468 -6.17077,7.39552 -10.11018,11.53762c-3.92265,4.12463 -4.89962,4.84307 -8.2558,7.77356c-3.35617,2.9305 -5.60378,4.38047 -9.01787,7.30988c-3.41409,2.92941 -4.71927,4.35593 -7.92557,7.22806c-3.2063,2.87213 -5.43104,6.43051 -9.2465,8.15543c-3.0295,1.36924 -4.73299,0.35786 -6.50304,-1.03648c-1.67961,-1.32287 -0.32261,-3.13834 -0.45725,-4.44594" fill="#a85b00"/><path d="M263.38109,192.59098c-0.55276,3.3691 -1.48452,9.98071 -1.87979,11.45579c-0.39526,1.47507 -0.95614,1.21649 -1.85438,2.48208c-1.46064,2.05768 -3.66913,5.42132 -4.166,6.00065c-0.49687,0.57934 -1.06233,0.22476 -1.39713,0.49096c-0.3348,0.26621 -0.04878,0.65189 -0.45725,0.98192c-0.42422,0.34313 -1.06386,0.24821 -1.39713,0.51823c-0.33329,0.27003 -0.17071,0.67426 -0.45725,0.98192c-0.28654,0.30767 -0.65945,0.21711 -0.93989,0.51823c-0.28044,0.30112 -0.05436,0.64425 -0.45725,0.98192c-1.11111,0.93119 -2.77192,2.04459 -3.70876,2.50936c-0.93684,0.46478 -1.14616,0.49096 -2.33702,0.49096c-3.44966,0 -9.44362,-0.34913 -10.66904,-0.49096c-1.22542,-0.14183 -1.87572,-0.8079 -2.31162,-1.0092c-0.4359,-0.20129 -0.43134,-0.38404 -0.93989,-0.49096c-0.50856,-0.10692 -1.66741,0.69171 -1.39713,0c1.12532,-2.87922 3.52942,-5.41041 5.10589,-9.49193c1.57647,-4.08153 0.66859,-7.49699 2.79427,-10.96483c2.12568,-3.46783 3.92519,-4.80979 7.89357,-6.47143c3.96888,-1.66109 11.13289,-1.49307 11.13289,-1.49307" fill="#f2e7be"/></g></g></g></svg>