<svg version="1.1" xmlns="http://www.w3.org/2000/svg" xmlns:xlink="http://www.w3.org/1999/xlink" width="276.63923" height="285.7081" viewBox="0,0,276.63923,285.7081"><defs><linearGradient x1="317.21585" y1="236.75657" x2="317.21585" y2="77.69629" gradientUnits="userSpaceOnUse" id="color-1"><stop offset="0" stop-color="#f3f3f3"/><stop offset="1" stop-color="#c8b6a6"/></linearGradient><linearGradient x1="208.23696" y1="32.10715" x2="208.23696" y2="241.83156" gradientUnits="userSpaceOnUse" id="color-2"><stop offset="0" stop-color="#f3f3f3"/><stop offset="1" stop-color="#c8b6a6"/></linearGradient></defs><g transform="translate(-113.36242,43.87654)"><g data-paper-data="{&quot;isPaintingLayer&quot;:true}" fill-rule="nonzero" stroke-linecap="butt" stroke-linejoin="miter" stroke-miterlimit="10" stroke-dasharray="" stroke-dashoffset="0" style="mix-blend-mode: normal"><g><path d="M248.71595,125.07314c-5.95266,-1.98422 -3.96844,-7.93688 -3.96844,-7.93688l3.47601,-9.35404c4.98551,-3.54058 9.00719,-8.39976 14.23704,-11.56831c2.26274,-1.3709 5.24195,-1.18095 7.52959,-2.50986c7.55093,-4.38641 9.65731,-12.54886 19.04951,-15.72705c1.00917,-0.34149 14.96453,-0.26924 16.87746,-0.26924c0.76617,0 18.23615,-0.09634 19.38733,0.26924c3.18879,1.01265 5.47034,3.90277 8.46807,5.38852c2.55249,1.26508 5.64332,1.31926 8.07159,2.80894c3.03954,1.86468 7.70105,8.11039 10.71873,10.52453c2.51495,2.01197 5.7072,3.16173 7.98837,5.43533c2.13651,2.12942 2.90254,5.38093 5.01972,7.52958c6.1473,6.23867 19.16161,8.75072 23.68411,16.53528c1.00298,1.72643 0.7108,16.07477 0.69544,18.78657c-2.32267,9.29069 -1.07385,16.22248 -2.54387,25.33705c-0.42125,2.61187 -2.04969,4.92428 -2.50986,7.52958c-0.51801,2.93277 0.76603,6.18385 -0.39661,8.9257c-2.86699,6.76124 -14.05445,14.62455 -18.02851,20.97647c-6.48557,10.36616 -4.92838,20.60528 -18.57842,25.2954c-3.42175,1.1757 -7.27292,-0.33721 -10.85266,0.18821c-2.61757,0.3842 -4.91771,2.08861 -7.52958,2.50986c-8.77323,1.41497 -20.57547,1.26182 -29.38022,0.03401c-5.60638,-0.7818 -11.14187,-2.5022 -16.80237,-2.46285c0,0 -6.27465,0 -6.27465,-6.27465c0,-6.27465 6.27465,-6.27465 6.27465,-6.27465c6.17093,0.03497 12.2299,1.6619 18.33569,2.55687c7.72607,1.13247 18.16008,1.36069 25.83673,0.03401c2.60698,-0.45054 4.90899,-2.14675 7.52958,-2.50986c3.04694,-0.42218 6.20643,0.77378 9.22624,0.18821c6.06001,-1.17509 9.20993,-16.15087 11.53992,-19.88211c4.08592,-6.5432 8.02527,-11.16695 13.45,-16.19724c1.15415,-1.07023 3.12919,-1.50213 3.65954,-2.98408c0.69032,-1.92896 -0.70976,-4.10878 -0.39661,-6.13347c0.40439,-2.61454 2.05932,-4.9226 2.50986,-7.52958c1.48149,-8.57238 0.26769,-16.02752 2.47586,-24.86018c-0.01567,-2.25431 -0.1851,-4.51279 -0.04701,-6.76292c0.09452,-1.54002 1.57984,-3.27292 0.74245,-4.56884c-1.10966,-1.71727 -3.72321,-1.7102 -5.47793,-2.75964c-1.02127,-0.61079 -15.67289,-10.48522 -16.01547,-10.82342c-2.14662,-2.11923 -2.89055,-5.39281 -5.01972,-7.52958c-1.98522,-1.99231 -4.87455,-2.84713 -7.07079,-4.60412c-3.48144,-2.78516 -5.50743,-7.31068 -9.36016,-9.55436c-2.1111,-1.22942 -4.80718,-1.10897 -6.98759,-2.21079c-2.39993,-1.21275 -4.05803,-3.74872 -6.5911,-4.65092c-4.94664,-1.76182 -10.49973,0.26923 -15.75074,0.26923c-4.41453,0 -9.04207,-1.63239 -13.24087,-0.26923c-6.75424,2.19279 -10.33997,10.85064 -16.08855,14.39129c-2.25263,1.38744 -5.25445,1.15964 -7.52958,2.50986c-3.95544,2.34743 -6.93439,6.11617 -10.86158,8.51058l-1.54371,5.70512c0,0 -1.98422,5.95266 -7.93688,3.96844z" data-paper-data="{&quot;index&quot;:null}" fill="url(#color-1)" stroke="none" stroke-width="0.5"/><path d="M281.88419,233.08418c-17.26716,10.07991 -149.3443,17.86234 -166.10347,-14.71412c-6.55715,-12.74577 12.50402,-108.75728 8.79336,-155.12876c-1.18086,-14.75705 58.31443,-31.04993 58.61477,-31.04993c3.07332,0 65.50434,-2.41261 96.14746,18.58837c25.48548,17.46624 33.79662,164.06263 2.54788,182.30445z" fill="url(#color-2)" stroke="none" stroke-width="0"/><path d="M289.26921,75.34914c0,23.56469 -32.08221,43.66764 -77.82543,43.66764c-45.74322,0 -82.82543,-19.10295 -82.82543,-42.66764c0,-23.56469 37.08221,-42.66765 82.82543,-42.66765c45.74323,0 77.82544,18.10296 77.82544,41.66765z" fill="#251200" stroke="#8e4500" stroke-width="2.5"/><path d="M270.5,71.5c-4.26094,0 -6.10113,-2.42074 -6.89586,-4.51166c-0.59347,-0.27262 -1.19831,-0.51376 -1.82728,-0.68897c-0.50961,-0.14197 -1.66654,-0.06855 -2.22201,-0.12248c-0.32713,0.7017 -1.54458,2.27978 -2.29993,2.62318c-3.24935,1.47724 -6.66047,3.83292 -10.18894,3.29398c-2.35772,-0.36012 -2.83619,-3.85871 -4.52627,-5.5416c-0.45964,-0.45768 -1.28726,-0.34823 -1.79462,-0.75238c-0.85065,-0.67762 -1.41123,-1.65908 -2.18807,-2.42019c-0.9664,-0.94683 -2.70419,0.10332 -4.05702,0.12012c-2.52744,0.03139 -5.05586,-0.03989 -7.58169,-0.13533c-2.6421,0.66072 -5.27284,2.5957 -7.9263,1.98216c-2.83913,-0.65648 -4.87976,-3.2771 -6.87189,-5.40385c-1.57832,-1.68498 -0.53473,-4.32926 -3.82148,-4.53983c-1.54041,-0.09869 -3.13161,-0.61438 -4.62525,-0.22496c-0.47347,0.12344 -0.61786,0.77379 -1.01313,1.06218c-3.37941,2.46563 -7.28229,4.88257 -11.88339,4.05899c-2.60204,-0.46576 -4.35284,-3.04817 -6.21984,-4.91949c-0.48511,-0.48623 -1.39003,0.28408 -2.05702,0.12012c-0.18952,-0.04659 0.02012,-0.69577 -0.12987,-0.57091c-0.44109,0.36717 -0.43057,1.16305 -0.92714,1.45079c-1.41021,0.81714 -3.04751,1.15683 -4.57127,1.73524c0,0 -7.11513,2.37171 -9.48684,-4.74341c-2.37171,-7.11512 4.74341,-9.48683 4.74341,-9.48683c1.73996,-0.32243 2.83078,-2.23104 4.50159,-2.81397c1.08442,-0.37835 8.30822,-0.85004 10.07149,-0.47406c2.32675,0.49612 5.41139,1.44568 7.51314,3.23535c0.04333,-0.02345 0.08518,-0.04759 0.12524,-0.07257c5.15736,-3.21592 10.22753,-4.213 16.36162,-3.16278c5.02585,0.86048 10.14385,4.0755 13.06447,8.29331c0.11701,-0.08151 0.2244,-0.16584 0.31585,-0.25483c6.97474,-0.14706 16.05736,-1.71242 22.36129,1.98479c1.50359,0.88184 2.48483,2.44967 3.81193,3.57982c0.08918,0.07594 0.18176,0.14899 0.27712,0.21966c0.94024,-0.93511 1.89325,-1.85804 3.09784,-2.34869c6.77462,-2.75941 13.11292,0.81972 19.24184,2.81397l5.12829,9.11512c0,0 0,7.5 -7.5,7.5z" fill="#4d2500" stroke="none" stroke-width="0.5"/><path d="M257.20821,85.3541c-2.32067,4.64134 -6.24699,4.46574 -8.44616,3.91692c-1.80519,1.82135 -2.48087,4.94566 -7.26204,4.22898c-1.9736,-0.29583 -3.6795,-1.40671 -5.22719,-2.79346c-1.5703,1.38868 -2.70487,1.87215 -6.57144,2.69661c-3.82698,0.81601 -11.88887,0.23319 -15.20137,0.09685c-1.96428,-0.08085 -4.04943,0.1707 -5.87013,-0.5709c-0.99301,-0.40447 -1.80289,-1.11712 -2.58391,-1.87832c-1.39783,0.44922 -2.54596,0.44922 -2.54596,0.44922h-1c-1.95671,-0.1903 -4.01391,0.07671 -5.87013,-0.5709c-1.25659,-0.43841 -2.04857,-1.69948 -3.07286,-2.54922c-1.45344,-0.69219 -3.24604,-0.91469 -4.36032,-2.07658c-1.28473,-1.33964 -1.53497,-3.38435 -2.43407,-5.00816c-0.73047,-1.31926 -1.82314,-2.63304 -1.92169,-4.12014c-0.01021,0.05966 -0.02965,0.10924 -0.06408,0.12436c-0.39446,0.17327 -0.84602,0.20064 -1.27686,0.20064c-0.76189,0 -1.54399,-0.40893 -2.27686,-0.20064c-1.14491,0.3254 -2.00939,1.30941 -3.12105,1.73477c-1.39541,0.53395 -3.27225,0.18358 -4.29879,1.26916c-1.31046,1.38581 -1.98785,3.61514 -3.76436,4.30926c-6.64052,2.59458 -9.3925,0.66159 -14.29385,-2.81249c-0.50354,-0.35691 -0.65368,-1.11138 -1.18807,-1.42019c-0.91267,-0.52741 -2.10575,-0.44194 -3,-1c-0.48688,-0.30384 -0.39947,-1.22508 -0.92714,-1.45078c-0.38797,-0.16595 -0.71188,0.51312 -1.12987,0.5709c-0.99058,0.13693 -2,0 -3,0c0,0 -7.5,0 -7.5,-7.5c0,-7.5 7.5,-7.5 7.5,-7.5c2.78113,0 7.7869,-0.08281 9.87013,0.5709c1.26982,0.39847 1.92383,1.87768 3.07286,2.54922c0.91007,0.53187 2.1025,0.44719 3,1c0.59049,0.3637 1.10438,0.8315 1.5961,1.32688c1.34281,-1.1177 2.85987,-2.04175 4.42676,-2.80586c1.37377,-0.66993 2.99839,-0.64553 4.43206,-1.17528c4.6065,-1.70215 10.16124,-4.13497 15.32524,-2.26523c2.84366,1.02961 5.69385,2.36325 7.94276,4.38535c1.25475,1.1282 1.27618,3.13068 2.07146,4.61888c0.56645,1.05999 1.56109,1.88116 2,3c0.13179,0.33596 -0.72151,0.77362 -0.43407,0.99184c0.4358,0.33084 1.09312,-0.05106 1.63968,-0.07658c1.03223,1.61523 0.79984,2.0104 1.05702,0.87988h1c0,0 1.33628,0 2.88075,0.56405c4.48338,-2.30652 8.42255,1.63265 8.42255,1.63265c-1.30022,1.1232 7.8184,-0.25479 10.6967,-0.1967c0.6867,0.01386 1.57191,0.60635 2.05702,0.12012c2.54098,-2.54686 5.69609,-7.75671 9.94298,-7.12012c2.23866,0.33557 4.13289,1.7198 5.84249,3.36582c1.26683,-0.48556 2.37857,-0.82636 2.7858,-0.98095l7.72581,1.40692c0,0 6.70821,3.3541 3.35411,10.06231z" fill="#4d2500" stroke="none" stroke-width="0.5"/><path d="M271.4069,-37.74086c0.80251,-2.08218 2.64611,-4.47385 6.88139,-4.47385c7.5,0 7.5,7.5 7.5,7.5v1.5015c-0.64325,2.4323 -0.28875,5.4385 -1.56601,7.50613c0.04608,0.01787 0.0862,0.0336 0.11996,0.04708c1.87625,2.76381 4.58398,5.1185 5.62874,8.29142c2.21946,6.74047 -1.24608,10.74665 -6.23821,14.55927c-1.25784,0.96065 -3.14075,0.69827 -4.5045,1.5015c-1.55286,0.91461 -2.4651,2.74393 -4.07586,3.55222c-0.89468,0.44895 -2.10768,-0.44766 -3.003,0c-1.26618,0.63309 -1.72261,2.39918 -3.003,3.003c-1.25615,0.59239 -2.80263,0.03343 -4.14998,0.37027c-0.7029,0.17572 -1.18657,0.85413 -1.85602,1.13123c-1.39573,0.57772 -2.83905,1.04277 -4.29568,1.44438c0.03642,0.6418 -0.43016,1.36958 -0.28409,1.91539c0.57865,2.16222 2.41147,3.84728 3.003,6.00601c0.39366,1.43663 0.0868,3.13382 0.91034,4.37505c0,0 3.3541,6.7082 -3.3541,10.06231c-6.7082,3.3541 -10.06231,-3.3541 -10.06231,-3.3541c-0.69755,-1.54465 -1.64476,-2.99936 -2.09266,-4.63396c-0.26454,-0.96541 0.20392,-2.02299 0,-3.003c-0.45597,-2.19137 -2.47036,-3.832 -3.003,-6.00601c-1.27444,-5.20165 -0.1721,-12.04675 3.49757,-16.03546c2.50521,-2.72301 6.71065,-3.36982 9.94068,-4.6288c1.41392,-0.5511 2.67777,-1.50372 4.14998,-1.87177c0.61203,-0.15301 1.30135,0.67081 1.85602,0.37027c1.24467,-0.67439 1.73683,-2.36991 3.003,-3.003c0.89532,-0.44766 2.10675,0.4458 3.003,0c0.93175,-0.46346 1.04359,-1.90884 1.93015,-2.45379c0.30122,-0.18516 0.61552,-0.34555 0.93926,-0.4868c-2.95885,-1.08894 -5.31818,-2.80962 -8.26824,-4.66452c-1.48887,-0.93615 -3.785,-1.09749 -4.54185,-2.68503c-1.79564,-3.76641 -4.51909,-8.55569 -2.57808,-12.24929c1.77559,-3.37882 7.16548,-2.69742 10.88439,-3.55702c1.17977,-0.27269 2.4097,-0.10556 3.62912,-0.03065z" fill="#000000" stroke="none" stroke-width="0.5"/><path d="M182.1997,-31.75426c-1.23801,-1.70147 -3.33669,-5.73336 0.6952,-9.76526c5.3033,-5.3033 10.6066,0 10.6066,0l3.6982,6.8048c0,2.002 0,4.004 0,6.00601c0,0 0,2.38278 -1.34306,4.46223c-0.07487,3.06531 -2.35514,5.34558 -2.35514,5.34558l-1.92155,1.63616c3.17298,1.62341 5.55147,4.27974 8.51108,6.49574c0.89586,0.67077 2.13128,0.79965 3.003,1.5015c5.61054,4.51719 10.01818,11.87624 9.02383,19.2977c-0.28599,2.13449 -1.52025,4.15568 -1.40466,6.30614c0,0 0,7.5 -7.5,7.5c-7.5,0 -7.5,-7.5 -7.5,-7.5c0.03228,-1.40146 -0.15621,-2.82557 0.09684,-4.20437c0.29219,-1.59208 2.3919,-3.16831 1.60529,-4.58299c-0.85301,-1.5341 -1.56004,-3.64997 -3.09197,-4.64784c-0.93775,-0.61084 -2.10816,-0.82938 -3.003,-1.5015c-2.2273,-1.67294 -3.90485,-4.15001 -6.41732,-5.35296c-5.55609,-2.66021 -7.74563,-0.83768 -11.14147,-8.37174c-2.44236,-5.41866 0.56767,-11.65409 4.48761,-15.25601c0.98797,-0.90781 2.64485,-0.38937 3.98863,-0.53851c-0.03814,-0.36731 -0.03814,-0.58911 -0.03814,-0.58911c0,-1.01518 0,-2.03037 0,-3.04555z" fill="#000000" stroke="none" stroke-width="0.5"/><path d="M128.01449,-25.69663c-0.12107,-1.06045 -0.27128,-2.35531 -0.1939,-3.26689c-2.21979,-0.52391 -5.68096,-2.15772 -5.68096,-7.25269c0,-7.5 7.5,-7.5 7.5,-7.5l5.87313,0.5709c2.35399,2.35399 5.37013,4.19488 7.06197,7.06197c1.35783,2.30106 0.5709,8.9448 0.5709,11.87913c-0.06688,1.57538 0.39554,3.2664 -0.20063,4.72615c-1.07074,2.62174 -2.26929,5.46921 -4.41041,7.30223c0.38815,0.5119 0.73983,1.04791 1.03713,1.61801c0.64218,1.23144 0.05652,2.79706 0.37027,4.14998c0.82893,3.57439 6.37108,10.46677 7.20355,12.53219c0.98952,2.45504 0.86814,5.23424 1.60014,7.77796c0.37677,1.3093 1.4501,2.37585 1.70682,3.71388c0.39136,2.03976 0.13376,4.15177 0.20063,6.22765c0,0 0,7.5 -7.5,7.5c-7.5,0 -7.5,-7.5 -7.5,-7.5c0.06688,-0.92712 0.39683,-1.87277 0.20063,-2.78136c-0.18527,-0.85797 -1.05698,-1.4476 -1.29618,-2.29213c-0.66965,-2.36425 -0.49731,-4.95274 -1.40287,-7.23706c-1.40029,-3.5323 -4.0959,-6.42516 -5.7188,-9.86088c-0.72389,-1.53249 -1.65791,-2.99581 -2.09266,-4.63396c-0.16183,-0.60976 0.61213,-1.27336 0.37027,-1.85602c-0.19046,-0.45885 -1.02591,-0.21853 -1.37721,-0.56983c-0.3513,-0.3513 -0.24341,-1.00267 -0.56983,-1.37721c-0.12837,-0.1473 0.05898,0.60787 -0.13288,0.5709c-2.81224,-0.54177 -6.81422,0.24787 -8.3063,-2.1967c-2.20823,-3.61787 -2.67672,-8.90064 -0.78102,-12.69163c2.39463,-4.78873 9.11068,-4.56244 13.46818,-4.61461z" fill="#000000" stroke="none" stroke-width="0.5"/></g></g></g></svg>