<svg version="1.1" width="410" height="262" viewBox="-1 -1 410 262" xmlns="http://www.w3.org/2000/svg" xmlns:xlink="http://www.w3.org/1999/xlink">
  <!-- Exported by Scratch - http://scratch.mit.edu/ -->
  <path id="ID0.9834131342358887" fill="#7F7F7F" stroke="none" d="M 231 78 L 385 78 L 385 228 L 231 228 L 231 78 Z " transform="matrix(1.3123459815979004, 0, 0, 1.2112147808074951, -129.5, -54)"/>
  <path id="ID0.871446312405169" fill="#CCCCCC" stroke="none" d="M 380 21 L 432 21 L 432 206 L 380 206 L 380 21 Z " transform="matrix(0.7786381244659424, 0, 0, 1.0381841659545898, 72.45, -14.6)"/>
  <path id="ID0.2614692375063896" fill="#CCCCCC" stroke="none" d="M 244 16 L 403 16 L 403 103 L 244 103 L 244 16 Z " transform="matrix(1.2797741889953613, 0, 0, 0.5250586867332458, -137, -6.45)"/>
  <g id="ID0.12781129591166973" transform="matrix(0.5546005368232727, 0, 0, 0.5546005368232727, -0.05, 160.6)">
    <path id="ID0.042927201837301254" fill="#B2B2B2" stroke="none" d="M 89 257 L 104 257 L 104 326 L 89 326 L 89 257 Z " transform="matrix(0.7074039578437805, 0.7068094611167908, -0.7068094611167908, 0.7074039578437805, 167.85, -42.45)"/>
    <path id="ID0.31018794840201735" fill="#FF0000" stroke="none" d="M 100 233 C 104.414 233 108.414 234.793 111.311 237.689 C 114.207 240.586 116 244.586 116 249 C 116 253.414 114.207 257.414 111.311 260.311 C 108.414 263.207 104.414 265 100 265 C 95.586 265 91.586 263.207 88.689 260.311 C 85.793 257.414 84 253.414 84 249 C 84 244.586 85.793 240.586 88.689 237.689 C 91.586 234.793 95.586 233 100 233 Z " transform="matrix(0.99478679895401, 0.9939507842063904, -0.9939507842063904, 0.99478679895401, 213.45, -150.4)"/>
  </g>
  <path id="ID0.9103170982562006" fill="#CCCCCC" stroke="none" d="M 153 194 L 432 194 L 432 293 L 153 293 L 153 194 Z " transform="matrix(1.0381841659545898, 0, 0, 0.5867313742637634, -39.55, 73.75)"/>
  <path id="ID0.11256414232775569" fill="#CCCCCC" stroke="none" d="M 151 15 L 248 15 L 248 200 L 151 200 L 151 15 Z " transform="matrix(0.6742845177650452, 0, 0, 1.0381841659545898, 15.15, -14.6)"/>
</svg>