<svg version="1.1" xmlns="http://www.w3.org/2000/svg" xmlns:xlink="http://www.w3.org/1999/xlink" width="15.56497" height="16.02557" viewBox="0,0,15.56497,16.02557"><defs><linearGradient x1="44.14822" y1="19.31605" x2="44.14822" y2="34.78532" gradientUnits="userSpaceOnUse" id="color-1"><stop offset="0" stop-color="#000000"/><stop offset="1" stop-color="#00ff14"/></linearGradient><linearGradient x1="39.06586" y1="21.48985" x2="44.24256" y2="28.06767" gradientUnits="userSpaceOnUse" id="color-2"><stop offset="0" stop-color="#ffffff"/><stop offset="1" stop-color="#ffffff" stop-opacity="0"/></linearGradient><linearGradient x1="44.40265" y1="30.29028" x2="48.24639" y2="20.1409" gradientUnits="userSpaceOnUse" id="color-3"><stop offset="0" stop-color="#ffffff" stop-opacity="0"/><stop offset="1" stop-color="#ffffff"/></linearGradient></defs><g transform="translate(-36.31284,-19.28605)"><g data-paper-data="{&quot;isPaintingLayer&quot;:true}" fill-rule="nonzero" stroke-linejoin="miter" stroke-miterlimit="10" stroke-dasharray="" stroke-dashoffset="0" style="mix-blend-mode: normal"><path d="M51.87781,27.05068c0,4.27172 -3.46067,7.73464 -7.7296,7.73464c-4.26894,0 -7.7296,-3.46292 -7.7296,-7.73464c0,-4.27172 3.46067,-7.73464 7.7296,-7.73464c4.26894,0 7.7296,3.46292 7.7296,7.73464z" fill="url(#color-1)" stroke="none" stroke-width="2" stroke-linecap="butt"/><g fill="none" stroke="#ffffff" stroke-width="1.5"><path d="M43.86175,27.56753l3.76465,6.99409" stroke-linecap="round"/><path d="M39.67815,22.06491c1.59681,-1.11323 4.06069,-0.84329 5.50324,0.60292c1.44255,1.44622 1.31748,3.52106 -0.27933,4.63429c-1.59681,1.11322 -4.06069,0.84329 -5.50323,-0.60292c-1.44255,-1.44622 -1.31749,-3.52106 0.27932,-4.63429z" stroke-linecap="butt"/><path d="M41.43774,24.49701l2.4665,0.07957" stroke-linecap="round"/></g><path d="M47.07414,20.53272c0.18848,0.2395 0.09886,0.45785 0.14766,0.66529c0.06353,0.27004 0.23056,0.5225 0.21027,0.78855c-0.03725,0.48836 -0.08805,1.02046 -0.60069,1.90844c-0.62065,1.07507 -2.08545,1.67617 -3.2729,2.60307c-1.34861,1.0527 -1.82522,1.49263 -2.77201,2.01088c-0.35535,0.19451 -1.01017,0.96426 -1.46375,0.96292c-1.12756,-0.00333 -1.5865,-0.43519 -2.1643,-1.16936c-1.4295,-1.81641 -1.2056,-4.38268 1.90743,-6.81266c3.11302,-2.42997 6.60682,-2.92602 8.03633,-1.10961z" data-paper-data="{&quot;index&quot;:null}" fill="url(#color-2)" stroke="none" stroke-width="2" stroke-linecap="butt"/><path d="M41.50341,23.20551c1.06142,-2.80268 4.08035,-4.17475 6.74296,-3.06461c2.66262,1.11014 3.96064,4.28209 2.89923,7.08477c-0.49072,1.29573 -1.14742,2.98141 -2.24629,3.56167c-1.27799,0.67486 -2.94459,-0.34202 -4.37624,-0.93892c-1.36284,-0.56821 -3.42742,-1.23248 -3.94186,-2.55502c-0.49064,-1.26135 0.40406,-2.71974 0.9222,-4.08789z" data-paper-data="{&quot;index&quot;:null}" fill="url(#color-3)" stroke="none" stroke-width="2" stroke-linecap="butt"/></g></g></svg>