<svg xmlns="http://www.w3.org/2000/svg" xmlns:xlink="http://www.w3.org/1999/xlink" version="1.1" width="122.41999816894531" height="33" viewBox="-0.5 -0.5 122.41999816894531 33">
  <!-- Exported by Scratch - http://scratch.mit.edu/ -->
  <g id="ID0.5370320472866297">
    <path id="ID0.9686039481312037" fill="none" d="M 0 0 L 98.680 0 L 98.680 32 L 0 32 L 0 0 Z " stroke-width="1"/>
    <path id="ID0.9563665930181742" fill="#FFDB43" d="M 121.410 20.860 C 121.410 27.010 118.900 32 115.790 32 L 91.030 32 C 87.930 32 85.410 27.010 85.410 20.860 L 85.410 11.150 C 85.410 4.990 87.930 0 91.030 0 L 115.800 0 C 118.900 0 121.420 4.990 121.420 11.140 L 121.420 20.860 Z " stroke-width="1"/>
    <path id="ID0.11732550384476781" d="M 18.850 17.660 C 18.850 18.660 18.590 19.570 18.070 20.370 C 17.550 21.170 16.800 21.800 15.800 22.250 C 14.800 22.700 13.620 22.930 12.250 22.930 C 10.610 22.930 9.260 22.620 8.190 22 C 7.430 21.550 6.820 20.960 6.350 20.210 C 5.880 19.470 5.640 18.740 5.640 18.040 C 5.640 17.630 5.780 17.280 6.070 16.990 C 6.350 16.700 6.710 16.550 7.150 16.550 C 7.500 16.550 7.810 16.660 8.050 16.890 C 8.290 17.120 8.510 17.450 8.680 17.900 C 8.890 18.430 9.120 18.870 9.370 19.230 C 9.620 19.590 9.960 19.880 10.410 20.110 C 10.860 20.340 11.440 20.460 12.170 20.460 C 13.170 20.460 13.980 20.230 14.600 19.760 C 15.220 19.300 15.540 18.720 15.540 18.020 C 15.540 17.470 15.370 17.020 15.040 16.680 C 14.700 16.340 14.270 16.070 13.740 15.890 C 13.210 15.710 12.490 15.520 11.600 15.310 C 10.410 15.030 9.410 14.700 8.600 14.330 C 7.790 13.960 7.160 13.450 6.680 12.800 C 6.210 12.150 5.970 11.350 5.970 10.390 C 5.970 9.480 6.220 8.660 6.720 7.950 C 7.220 7.240 7.940 6.690 8.890 6.310 C 9.830 5.930 10.950 5.740 12.220 5.740 C 13.240 5.740 14.120 5.870 14.870 6.120 C 15.610 6.370 16.230 6.710 16.720 7.130 C 17.210 7.550 17.570 7.990 17.800 8.450 C 18.030 8.910 18.140 9.360 18.140 9.800 C 18.140 10.200 18.000 10.560 17.710 10.880 C 17.430 11.200 17.070 11.360 16.650 11.360 C 16.260 11.360 15.970 11.260 15.770 11.070 C 15.570 10.880 15.350 10.560 15.120 10.120 C 14.820 9.490 14.450 9.000 14.030 8.650 C 13.610 8.300 12.930 8.120 11.990 8.120 C 11.120 8.120 10.420 8.310 9.890 8.690 C 9.360 9.070 9.090 9.530 9.090 10.070 C 9.090 10.400 9.180 10.690 9.360 10.930 C 9.540 11.170 9.790 11.380 10.110 11.550 C 10.430 11.720 10.750 11.860 11.070 11.960 C 11.400 12.060 11.930 12.200 12.680 12.390 C 13.620 12.610 14.470 12.850 15.220 13.120 C 15.980 13.380 16.630 13.710 17.160 14.080 C 17.690 14.460 18.110 14.940 18.410 15.510 C 18.700 16.110 18.850 16.820 18.850 17.660 Z " stroke-width="1" />
    <path id="ID0.6294524692930281" d="M 33.080 16.640 C 33.080 17.560 32.940 18.410 32.650 19.190 C 32.360 19.970 31.950 20.640 31.400 21.200 C 30.860 21.760 30.210 22.190 29.450 22.490 C 28.690 22.790 27.840 22.940 26.900 22.940 C 25.960 22.940 25.120 22.790 24.370 22.490 C 23.620 22.190 22.970 21.750 22.430 21.190 C 21.890 20.630 21.470 19.960 21.180 19.190 C 20.900 18.420 20.750 17.570 20.750 16.650 C 20.750 15.710 20.890 14.860 21.180 14.080 C 21.470 13.300 21.880 12.640 22.420 12.080 C 22.960 11.530 23.610 11.100 24.370 10.800 C 25.130 10.500 25.980 10.350 26.900 10.350 C 27.840 10.350 28.690 10.500 29.450 10.800 C 30.210 11.100 30.870 11.530 31.410 12.090 C 31.950 12.650 32.370 13.310 32.650 14.090 C 32.930 14.870 33.080 15.710 33.080 16.640 Z M 29.970 16.640 C 29.970 15.380 29.690 14.400 29.140 13.690 C 28.580 12.990 27.840 12.640 26.900 12.640 C 26.300 12.640 25.760 12.800 25.300 13.110 C 24.840 13.420 24.480 13.890 24.230 14.500 C 23.980 15.110 23.860 15.830 23.860 16.640 C 23.860 17.450 23.980 18.160 24.230 18.760 C 24.480 19.360 24.830 19.830 25.280 20.150 C 25.730 20.470 26.280 20.630 26.900 20.630 C 27.840 20.630 28.580 20.280 29.140 19.570 C 29.690 18.860 29.970 17.880 29.970 16.640 Z " stroke-width="1" />
    <path id="ID0.9917425960302353" d="M 43.550 21.180 L 43.550 20.780 C 43.180 21.250 42.790 21.640 42.380 21.960 C 41.970 22.280 41.530 22.510 41.040 22.670 C 40.560 22.830 40.000 22.900 39.390 22.900 C 38.640 22.900 37.970 22.740 37.380 22.440 C 36.790 22.140 36.330 21.700 36.000 21.160 C 35.610 20.500 35.420 19.560 35.420 18.330 L 35.420 12.200 C 35.420 11.580 35.560 11.120 35.840 10.810 C 36.120 10.500 36.490 10.350 36.950 10.350 C 37.420 10.350 37.800 10.500 38.080 10.810 C 38.370 11.120 38.510 11.580 38.510 12.190 L 38.510 17.140 C 38.510 17.860 38.570 18.460 38.690 18.950 C 38.810 19.440 39.030 19.820 39.340 20.090 C 39.650 20.370 40.080 20.500 40.620 20.500 C 41.140 20.500 41.630 20.340 42.090 20.040 C 42.550 19.740 42.890 19.330 43.100 18.830 C 43.270 18.390 43.360 17.430 43.360 15.950 L 43.360 12.190 C 43.360 11.580 43.500 11.120 43.790 10.810 C 44.080 10.500 44.450 10.350 44.910 10.350 C 45.370 10.350 45.740 10.500 46.020 10.810 C 46.300 11.120 46.440 11.580 46.440 12.200 L 46.440 21.170 C 46.440 21.760 46.310 22.200 46.040 22.500 C 45.770 22.790 45.430 22.940 45.000 22.940 C 44.570 22.940 44.230 22.790 43.950 22.480 C 43.690 22.160 43.550 21.740 43.550 21.180 Z " stroke-width="1" />
    <path id="ID0.007449384778738022" d="M 52.350 12.060 L 52.350 12.430 C 52.890 11.710 53.490 11.180 54.140 10.850 C 54.790 10.510 55.530 10.350 56.370 10.350 C 57.190 10.350 57.910 10.530 58.560 10.880 C 59.210 11.230 59.680 11.740 60.000 12.390 C 60.200 12.770 60.340 13.180 60.400 13.610 C 60.460 14.050 60.490 14.610 60.490 15.290 L 60.490 21.050 C 60.490 21.670 60.350 22.140 60.070 22.460 C 59.790 22.780 59.420 22.940 58.960 22.940 C 58.500 22.940 58.130 22.780 57.840 22.450 C 57.550 22.120 57.410 21.660 57.410 21.060 L 57.410 15.900 C 57.410 14.880 57.270 14.100 56.990 13.560 C 56.710 13.020 56.140 12.750 55.300 12.750 C 54.750 12.750 54.250 12.910 53.790 13.240 C 53.340 13.570 53 14.020 52.790 14.590 C 52.640 15.050 52.560 15.910 52.560 17.170 L 52.560 21.050 C 52.560 21.680 52.410 22.150 52.120 22.460 C 51.830 22.770 51.450 22.930 50.990 22.930 C 50.540 22.930 50.180 22.770 49.890 22.440 C 49.600 22.110 49.460 21.650 49.460 21.050 L 49.460 12.100 C 49.460 11.510 49.590 11.070 49.840 10.780 C 50.100 10.490 50.450 10.340 50.890 10.340 C 51.160 10.340 51.410 10.400 51.630 10.530 C 51.850 10.660 52.020 10.850 52.160 11.110 C 52.280 11.380 52.350 11.690 52.350 12.060 Z " stroke-width="1" />
    <path id="ID0.10260381642729044" d="M 72.030 21.160 L 72.030 20.850 C 71.610 21.330 71.200 21.710 70.800 22.010 C 70.400 22.310 69.960 22.540 69.490 22.690 C 69.020 22.850 68.500 22.920 67.940 22.920 C 67.200 22.920 66.510 22.760 65.880 22.450 C 65.250 22.140 64.700 21.690 64.240 21.110 C 63.780 20.530 63.430 19.840 63.190 19.060 C 62.950 18.270 62.830 17.420 62.830 16.510 C 62.830 14.580 63.300 13.070 64.250 11.990 C 65.190 10.910 66.440 10.370 67.980 10.370 C 68.870 10.370 69.620 10.520 70.240 10.830 C 70.850 11.140 71.450 11.610 72.030 12.240 L 72.030 7.670 C 72.030 7.040 72.160 6.560 72.410 6.230 C 72.660 5.910 73.020 5.740 73.490 5.740 C 73.960 5.740 74.320 5.890 74.570 6.190 C 74.820 6.490 74.950 6.930 74.950 7.510 L 74.950 21.160 C 74.950 21.750 74.810 22.190 74.540 22.490 C 74.270 22.780 73.920 22.930 73.490 22.930 C 73.070 22.930 72.720 22.780 72.440 22.470 C 72.170 22.160 72.030 21.730 72.030 21.160 Z M 65.950 16.620 C 65.950 17.460 66.080 18.170 66.340 18.760 C 66.600 19.350 66.960 19.790 67.410 20.090 C 67.860 20.390 68.360 20.540 68.890 20.540 C 69.430 20.540 69.930 20.400 70.380 20.120 C 70.830 19.840 71.190 19.400 71.460 18.820 C 71.730 18.230 71.860 17.500 71.860 16.630 C 71.860 15.810 71.730 15.100 71.460 14.500 C 71.190 13.910 70.830 13.450 70.370 13.140 C 69.910 12.830 69.410 12.670 68.870 12.670 C 68.300 12.670 67.800 12.830 67.350 13.150 C 66.900 13.470 66.560 13.930 66.310 14.530 C 66.070 15.130 65.950 15.820 65.950 16.620 Z " stroke-width="1" />
  </g>
</svg>