<svg xmlns="http://www.w3.org/2000/svg" xmlns:xlink="http://www.w3.org/1999/xlink" version="1.1" width="94.11959028244019" height="33.81028699874878" viewBox="0.0985059142112732 0.9485058784484863 94.11959028244019 33.81028699874878">
  <!-- Exported by Scratch - http://scratch.mit.edu/ -->
  <g id="ID0.0915894778445363">
    <path id="ID0.9975910093635321" fill="#42210B" d="M 14.5381 34.1485 C 13.4884 34.1485 12.6218 33.7824 11.9504 33.05 C 11.2913 32.3421 10.9618 31.3046 10.9618 29.9619 L 10.9618 10.3837 L 5.5179 10.3837 C 4.3706 10.3837 3.4796 10.1029 2.8693 9.5537 C 2.2468 8.9922 1.9294 8.2354 1.9294 7.3322 C 1.9294 6.3924 2.259 5.6234 2.9181 5.0619 C 3.5406 4.5249 4.4194 4.2441 5.5179 4.2441 L 23.5216 4.2441 C 24.6812 4.2441 25.5844 4.5249 26.1947 5.0863 C 26.8294 5.66 27.1468 6.4168 27.1468 7.3322 C 27.1468 8.2476 26.8172 9.0044 26.1703 9.5659 C 25.5478 10.1151 24.6568 10.3837 23.5094 10.3837 L 18.0656 10.3837 L 18.0656 29.9619 C 18.0656 31.3168 17.736 32.3543 17.0891 33.0622 C 16.4422 33.7824 15.5756 34.1485 14.5381 34.1485 L 14.5381 34.1485 Z " stroke-width="1.220588207244873"/>
    <path id="ID0.7932884735055268" fill="#42210B" d="M 31.4799 34.1485 C 30.5034 34.1485 29.6856 33.7824 29.0631 33.0744 C 28.465 32.3909 28.1721 31.4388 28.1721 30.2426 L 28.1721 15.3515 C 28.1721 14.1431 28.4772 13.191 29.0753 12.5319 C 29.6978 11.8606 30.5034 11.5066 31.4799 11.5066 C 32.4441 11.5066 33.2619 11.8484 33.8966 12.5197 C 34.5191 13.1788 34.8365 14.0821 34.8365 15.1928 L 34.8365 30.2426 C 34.8365 31.4754 34.5191 32.4397 33.8966 33.111 C 33.2619 33.7946 32.4563 34.1485 31.4799 34.1485 L 31.4799 34.1485 Z M 31.5409 10.5546 C 30.6376 10.5546 29.8565 10.2738 29.1974 9.7124 C 28.5138 9.1265 28.1721 8.2965 28.1721 7.2712 C 28.1721 6.3191 28.5138 5.5257 29.2096 4.9032 C 29.8687 4.3051 30.6621 4 31.5409 4 C 32.3831 4 33.1399 4.2807 33.799 4.8178 C 34.4947 5.3915 34.8487 6.2215 34.8487 7.2712 C 34.8487 8.2843 34.5069 9.1021 33.8356 9.7001 C 33.1887 10.2616 32.4197 10.5546 31.5409 10.5546 L 31.5409 10.5546 Z " stroke-width="1.220588207244873"/>
    <path id="ID0.6985066579654813" fill="#42210B" d="M 66.291 34.1485 C 65.2901 34.1485 64.4601 33.7946 63.8132 33.0744 C 63.1907 32.3909 62.8734 31.39 62.8734 30.1328 L 62.8734 21.3812 C 62.8734 20.3071 62.8246 19.4282 62.7391 18.7935 C 62.6659 18.2687 62.4706 17.8415 62.1532 17.4875 C 61.8847 17.1946 61.4209 17.0359 60.7862 17.0359 C 60.2369 17.0359 59.7365 17.1946 59.236 17.5241 C 58.7234 17.8659 58.3328 18.3053 58.0521 18.879 C 57.8324 19.3794 57.5516 20.5756 57.5516 23.1999 L 57.5516 30.1206 C 57.5516 31.4022 57.2343 32.3909 56.6118 33.0744 C 55.9771 33.7824 55.1349 34.1363 54.1096 34.1363 C 53.1087 34.1363 52.2787 33.7824 51.644 33.0744 C 51.0337 32.3909 50.7285 31.4022 50.7285 30.1206 L 50.7285 21.8206 C 50.7285 20.5512 50.6797 19.5625 50.6065 18.8546 C 50.5332 18.2687 50.3501 17.8171 50.045 17.4509 C 49.8009 17.1579 49.3615 17.0115 48.739 17.0115 C 47.3353 17.0115 46.4443 17.4509 46.0415 18.3419 C 45.5532 19.4038 45.2969 21.0028 45.2969 23.0656 L 45.2969 30.1084 C 45.2969 31.3656 44.9918 32.3543 44.3815 33.05 C 43.7468 33.7701 42.9168 34.1241 41.8915 34.1241 C 40.8906 34.1241 40.0606 33.7701 39.4137 33.05 C 38.7912 32.3665 38.4738 31.3656 38.4738 30.1084 L 38.4738 15.2172 C 38.4738 14.0576 38.7668 13.1422 39.3404 12.4953 C 39.9385 11.824 40.7197 11.4822 41.6718 11.4822 C 42.5872 11.4822 43.3562 11.7996 43.9787 12.4099 C 44.3449 12.776 44.6012 13.2154 44.7476 13.7403 C 45.3824 13.1666 46.0537 12.7028 46.7494 12.361 C 47.8724 11.7996 49.1418 11.5188 50.5088 11.5188 C 51.9369 11.5188 53.1941 11.8118 54.2438 12.3976 C 55.0372 12.8371 55.7207 13.4351 56.3066 14.2041 C 57.0634 13.4229 57.869 12.8004 58.7112 12.3732 C 59.8097 11.8118 61.0547 11.5188 62.3851 11.5188 C 63.9231 11.5188 65.2779 11.8362 66.4131 12.4465 C 67.5726 13.0812 68.4515 13.9966 69.0251 15.1684 C 69.5256 16.2303 69.7697 17.7804 69.7697 19.9287 L 69.7697 30.0962 C 69.7697 31.3778 69.4524 32.3665 68.8299 33.05 C 68.1585 33.7946 67.3041 34.1485 66.291 34.1485 L 66.291 34.1485 Z " stroke-width="1.220588207244873"/>
    <path id="ID0.27819565730169415" fill="#42210B" d="M 83.66 34.1485 C 80.1203 34.1485 77.3251 33.111 75.3356 31.0604 C 73.346 29.0221 72.3451 26.2391 72.3451 22.7849 C 72.3451 21.1737 72.5893 19.6479 73.0775 18.2565 C 73.5657 16.8528 74.2981 15.62 75.2379 14.6069 C 76.19 13.5938 77.374 12.8004 78.7532 12.2634 C 80.1203 11.7263 81.646 11.4578 83.2938 11.4578 C 85.4543 11.4578 87.334 11.9216 88.8963 12.8493 C 90.4587 13.7769 91.6549 14.9853 92.436 16.4622 C 93.2172 17.9269 93.6078 19.4404 93.6078 20.9662 C 93.6078 22.5651 93.0951 23.6393 92.0821 24.1641 C 91.2154 24.6157 90.0681 24.8232 88.579 24.8232 L 79.1682 24.8232 C 79.2537 25.5922 79.449 26.2757 79.7541 26.886 C 80.1569 27.6672 80.6696 28.2409 81.3287 28.6315 C 81.9878 29.0221 82.6957 29.2174 83.5013 29.2174 C 84.0506 29.2174 84.5632 29.1563 85.0026 29.0221 C 85.4421 28.9 85.8815 28.6925 86.3087 28.424 C 86.7603 28.131 87.1753 27.8137 87.5537 27.4841 C 87.9565 27.1301 88.4813 26.6541 89.116 26.056 C 89.5432 25.6899 90.0925 25.519 90.7638 25.519 C 91.484 25.519 92.0821 25.7265 92.5459 26.1415 C 92.8876 26.4466 93.2904 26.9959 93.2904 27.9357 C 93.2904 28.546 93.0707 29.2051 92.6313 29.9497 C 92.2163 30.6576 91.5938 31.3412 90.776 31.9637 C 89.9704 32.5862 88.9574 33.111 87.7612 33.5138 C 86.5772 33.941 85.1979 34.1485 83.66 34.1485 L 83.66 34.1485 Z M 87.0166 20.4169 C 86.8335 19.2085 86.4429 18.2809 85.8571 17.6584 C 85.1613 16.926 84.2581 16.5599 83.0985 16.5599 C 82 16.5599 81.1334 16.926 80.4376 17.6706 C 79.8518 18.3053 79.4368 19.2329 79.2293 20.4169 L 87.0166 20.4169 Z " stroke-width="1.220588207244873"/>
    <path id="ID0.21051119826734066" fill="#FBB03B" stroke="#42210B" stroke-width="0.9764705657958985" d="M 13.3175 31.7074 C 12.2678 31.7074 11.4012 31.3412 10.7299 30.6088 C 10.0707 29.9009 9.7412 28.8634 9.7412 27.5207 L 9.7412 7.9425 L 4.2974 7.9425 C 3.15 7.9425 2.259 7.6618 1.6487 7.1125 C 1.0262 6.551 0.7088 5.7943 0.7088 4.891 C 0.7088 3.9512 1.0384 3.1822 1.6975 2.6207 C 2.32 2.0837 3.1988 1.8029 4.2974 1.8029 L 22.301 1.8029 C 23.4606 1.8029 24.3638 2.0837 24.9741 2.6451 C 25.6088 3.2188 25.9262 3.9756 25.9262 4.891 C 25.9262 5.8065 25.5966 6.5632 24.9497 7.1247 C 24.3272 7.674 23.4362 7.9425 22.2888 7.9425 L 16.845 7.9425 L 16.845 27.5207 C 16.845 28.8756 16.5154 29.9131 15.8685 30.621 C 15.2216 31.3412 14.355 31.7074 13.3175 31.7074 L 13.3175 31.7074 Z "/>
    <path id="ID0.16641523456200957" fill="#FBB03B" stroke="#42210B" stroke-width="0.9764705657958985" d="M 30.2593 31.7074 C 29.2828 31.7074 28.465 31.3412 27.8425 30.6332 C 27.2444 29.9497 26.9515 28.9976 26.9515 27.8015 L 26.9515 12.9103 C 26.9515 11.7019 27.2566 10.7499 27.8547 10.0907 C 28.4772 9.4194 29.2828 9.0654 30.2593 9.0654 C 31.2235 9.0654 32.0413 9.4072 32.676 10.0785 C 33.2985 10.7376 33.6159 11.6409 33.6159 12.7516 L 33.6159 27.8015 C 33.6159 29.0343 33.2985 29.9985 32.676 30.6699 C 32.0413 31.3534 31.2357 31.7074 30.2593 31.7074 L 30.2593 31.7074 Z M 30.3203 8.1134 C 29.4171 8.1134 28.6359 7.8326 27.9768 7.2712 C 27.2932 6.6853 26.9515 5.8553 26.9515 4.83 C 26.9515 3.8779 27.2932 3.0846 27.989 2.4621 C 28.6481 1.864 29.4415 1.5588 30.3203 1.5588 C 31.1625 1.5588 31.9193 1.8396 32.5784 2.3766 C 33.2741 2.9503 33.6281 3.7803 33.6281 4.83 C 33.6281 5.8431 33.2863 6.6609 32.615 7.259 C 31.9681 7.8204 31.1991 8.1134 30.3203 8.1134 L 30.3203 8.1134 Z "/>
    <path id="ID0.48224413860589266" fill="#FBB03B" stroke="#42210B" stroke-width="0.9764705657958985" d="M 65.0704 31.7074 C 64.0696 31.7074 63.2396 31.3534 62.5926 30.6332 C 61.9701 29.9497 61.6528 28.9488 61.6528 27.6916 L 61.6528 18.94 C 61.6528 17.8659 61.604 16.9871 61.5185 16.3524 C 61.4453 15.8275 61.25 15.4003 60.9326 15.0463 C 60.6641 14.7534 60.2003 14.5947 59.5656 14.5947 C 59.0163 14.5947 58.5159 14.7534 58.0154 15.0829 C 57.5028 15.4247 57.1122 15.8641 56.8315 16.4378 C 56.6118 16.9382 56.331 18.1344 56.331 20.7587 L 56.331 27.6794 C 56.331 28.961 56.0137 29.9497 55.3912 30.6332 C 54.7565 31.3412 53.9143 31.6951 52.889 31.6951 C 51.8881 31.6951 51.0581 31.3412 50.4234 30.6332 C 49.8131 29.9497 49.5079 28.961 49.5079 27.6794 L 49.5079 19.3794 C 49.5079 18.11 49.4591 17.1213 49.3859 16.4134 C 49.3126 15.8275 49.1296 15.3759 48.8244 15.0097 C 48.5803 14.7168 48.1409 14.5703 47.5184 14.5703 C 46.1147 14.5703 45.2237 15.0097 44.8209 15.9007 C 44.3326 16.9626 44.0763 18.5616 44.0763 20.6244 L 44.0763 27.6672 C 44.0763 28.9244 43.7712 29.9131 43.1609 30.6088 C 42.5262 31.329 41.6962 31.6829 40.6709 31.6829 C 39.67 31.6829 38.84 31.329 38.1931 30.6088 C 37.5706 29.9253 37.2532 28.9244 37.2532 27.6672 L 37.2532 12.8004 C 37.2532 11.6409 37.5462 10.7254 38.1199 10.0785 C 38.7179 9.4072 39.4991 9.0654 40.4512 9.0654 C 41.3666 9.0654 42.1356 9.3828 42.7581 9.9931 C 43.1243 10.3593 43.3806 10.7987 43.5271 11.3235 C 44.1618 10.7499 44.8331 10.286 45.5288 9.9443 C 46.6518 9.3828 47.9212 9.1021 49.2882 9.1021 C 50.7163 9.1021 51.9735 9.395 53.0232 9.9809 C 53.8166 10.4203 54.5001 11.0184 55.086 11.7874 C 55.8428 11.0062 56.6484 10.3837 57.4906 9.9565 C 58.5891 9.395 59.8341 9.1021 61.1646 9.1021 C 62.7025 9.1021 64.0574 9.4194 65.1925 10.0297 C 66.3521 10.6644 67.2309 11.5799 67.8046 12.7516 C 68.305 13.8135 68.5491 15.3637 68.5491 17.5119 L 68.5491 27.6794 C 68.5491 28.961 68.2318 29.9497 67.6093 30.6332 C 66.9379 31.3534 66.0835 31.7074 65.0704 31.7074 L 65.0704 31.7074 Z "/>
    <path id="ID0.33950073132291436" fill="#FBB03B" stroke="#42210B" stroke-width="0.9764705657958985" d="M 82.4394 31.7074 C 78.8997 31.7074 76.1046 30.6699 74.115 28.6193 C 72.1254 26.5809 71.1246 23.7979 71.1246 20.3437 C 71.1246 18.7325 71.3687 17.2068 71.8569 15.8153 C 72.3451 14.4116 73.0775 13.1788 74.0174 12.1657 C 74.9694 11.1526 76.1534 10.3593 77.5326 9.8222 C 78.8997 9.2851 80.4254 9.0166 82.0732 9.0166 C 84.2337 9.0166 86.1134 9.4804 87.6757 10.4081 C 89.2381 11.3357 90.4343 12.5441 91.2154 14.021 C 91.9966 15.4857 92.3872 16.9993 92.3872 18.525 C 92.3872 20.124 91.8746 21.1981 90.8615 21.7229 C 89.9949 22.1746 88.8475 22.3821 87.3584 22.3821 L 77.9476 22.3821 C 78.0331 23.151 78.2284 23.8346 78.5335 24.4449 C 78.9363 25.226 79.449 25.7997 80.1081 26.1903 C 80.7672 26.5809 81.4751 26.7762 82.2807 26.7762 C 82.83 26.7762 83.3426 26.7151 83.7821 26.5809 C 84.2215 26.4588 84.6609 26.2513 85.0881 25.9828 C 85.5397 25.6899 85.9547 25.3725 86.3331 25.0429 C 86.7359 24.689 87.2607 24.2129 87.8954 23.6149 C 88.3226 23.2487 88.8719 23.0778 89.5432 23.0778 C 90.2634 23.0778 90.8615 23.2853 91.3253 23.7003 C 91.6671 24.0054 92.0699 24.5547 92.0699 25.4946 C 92.0699 26.1049 91.8501 26.764 91.4107 27.5085 C 90.9957 28.2165 90.3732 28.9 89.5554 29.5225 C 88.7499 30.145 87.7368 30.6699 86.5406 31.0726 C 85.3566 31.4999 83.9774 31.7074 82.4394 31.7074 L 82.4394 31.7074 Z M 85.796 17.9757 C 85.6129 16.7674 85.2224 15.8397 84.6365 15.2172 C 83.9407 14.4849 83.0375 14.1187 81.8779 14.1187 C 80.7794 14.1187 79.9128 14.4849 79.2171 15.2294 C 78.6312 15.8641 78.2162 16.7918 78.0087 17.9757 L 85.796 17.9757 Z "/>
  </g>
</svg>