<svg version="1.1" xmlns="http://www.w3.org/2000/svg" xmlns:xlink="http://www.w3.org/1999/xlink" width="317.01371" height="385.60048" viewBox="0,0,317.01371,385.60048"><g transform="translate(-72.40373,22.01314)"><g data-paper-data="{&quot;isPaintingLayer&quot;:true}" fill-rule="nonzero" stroke="none" stroke-width="0.5" stroke-linecap="butt" stroke-linejoin="miter" stroke-miterlimit="10" stroke-dasharray="" stroke-dashoffset="0" style="mix-blend-mode: normal"><path d="M341.24591,205.38099c-0.24406,0.67386 -0.51096,1.33531 -0.79503,1.98737c-0.34172,2.08605 -1.02196,4.06271 -2.1651,5.7746c-0.66672,0.99843 -1.36728,1.83233 -2.0972,2.5342c-1.02844,1.9794 -1.981,3.9969 -2.6806,6.14694c-0.39186,1.2043 -1.23181,2.28276 -1.37762,3.54079c-0.97895,8.44648 -0.16211,17.87476 -4.88006,25.61253c-0.98559,1.61642 -4.21758,4.76613 -5.95036,6.49891l-1.93448,1.93448c0,0 -3.27663,3.27663 -7.97758,4.27295c-2.58382,2.80109 -5.58337,5.13099 -8.94195,6.43052c0.23949,-0.08324 0.55398,-0.1757 0.47643,-0.06381c-1.31036,1.89051 -3.14964,3.37187 -4.92918,4.82938c-3.19536,2.61712 -6.97711,5.68717 -10.56017,7.61555c-5.00806,2.69531 -10.67161,3.38585 -15.8485,5.40997c-2.60512,1.01857 -5.09872,2.32487 -7.74739,3.22414c-7.84196,1.83177 -15.39297,1.54549 -23.39885,1.54549c-6.06487,0 -11.90206,0.16685 -17.7985,-1.15447c-1.9629,-0.43986 -7.62062,0.27529 -9.12143,0.07859c-10.99538,-1.4411 -21.40052,-6.37666 -31.68169,-10.07096c-8.66068,-5.48184 -17.85017,-9.85513 -26.53154,-15.28153c-7.2012,-4.50121 -13.52804,-10.09493 -20.29096,-15.16128c-7.06884,-5.29551 -14.32101,-9.16421 -17.73882,-18.00369c-6.2798,-2.37329 -8.5964,-9.32307 -8.5964,-9.32307l-1.71133,-7.48703c1.36262,-6.16632 1.16752,-10.23694 4.10005,-16.32827c0.15438,-0.32067 0.35881,-0.74808 0.59914,-1.12572c0.10262,-0.45729 0.25545,-0.9301 0.32425,-1.31175c0.28551,-1.58384 0.93337,-3.08084 1.35827,-4.63311c1.02419,-3.74165 1.84465,-7.48254 3.06756,-11.17094c0.57002,-1.71922 2.1461,-4.72755 2.34486,-6.44251c0.22579,-1.94813 0.34707,-3.94293 0.96724,-5.80345c-2.36076,-7.3015 3.53164,-14.652 8.89593,-18.57006c0.09723,-0.07101 -0.39996,0.18453 -0.35367,0.07339c0.55436,-1.33105 1.17348,-2.64426 1.93448,-3.86896c1.20315,-1.93627 2.39708,-3.91221 3.9421,-5.58841c1.18247,-1.28285 2.91156,-1.96073 4.1495,-3.19015c3.0151,-2.99436 4.8324,-6.77003 8.54544,-9.24789c5.54101,-3.69776 12.08159,-5.76664 18.6564,-6.53539c3.77192,-0.44103 7.9718,0.65083 11.68029,0.11666c1.00914,-0.14535 1.8923,-0.82383 2.90172,-0.96724c3.52244,-0.50043 7.45038,-0.18724 11.02781,-0.18724c3.95654,0.09198 8.11745,0.48214 11.99506,1.15447c2.70913,0.46973 4.24747,1.55307 6.84409,1.81782c2.3824,0.2429 4.73282,0.74659 7.11355,1.00531c3.06743,0.33335 6.21169,-0.42292 9.25616,0.07859c2.01201,0.33143 3.77677,1.70957 5.80345,1.93448c9.38235,1.04119 17.47482,4.85709 26.54731,7.06921c2.87467,0.70093 5.78795,1.27703 8.60155,2.19282c5.66514,1.88838 11.25826,3.84124 16.84519,5.94407c3.36063,1.26488 4.5184,1.06265 8.43916,3.21533c0.79937,0.43889 1.17553,1.42891 1.93448,1.93448c0.23107,0.15392 0.5715,-0.20196 0.82753,-0.09458c1.92259,0.80636 3.77998,1.76907 5.598,2.78954c3.47919,1.9529 7.52555,4.63635 10.62007,7.13118c1.45693,1.1746 2.22337,3.26575 3.94844,3.99133c7.13376,3.00054 12.33684,7.19156 17.57074,13.1404c0.32241,0.96724 0.44268,2.02746 0.96724,2.90172c0.46918,0.78197 1.49559,1.13512 1.93448,1.93449c1.02702,1.87056 1.67949,3.92687 2.38871,5.93952c0.59652,1.69284 1.23237,3.39339 1.52411,5.16439c0.10579,0.64219 0.09251,1.2955 0.04442,1.95165c3.67111,5.68051 1.3332,12.69422 1.3332,12.69422z" fill="#00fbff"/><path d="M239.45209,155.03177c1.74566,1.5132 3.325,3.21797 4.61546,5.25462c0.95871,1.51308 1.2979,3.3407 2.02906,4.97592c1.93214,4.32115 2.7944,3.98418 4.58482,9.95542c0.37487,1.25023 -0.01989,2.62405 0.20066,3.9105c0.17228,1.0049 0.82383,1.8923 0.96724,2.90172c0.40867,2.87655 -0.41154,6.40245 0.07859,9.25616c0.22502,1.31016 0.8178,2.54805 0.96724,3.86897c0.42061,3.71772 -0.88698,9.38298 -0.0786,12.9904c1.71664,7.66055 2.65095,15.26108 1.08391,23.09626c0.31521,10.89981 -3.22584,21.78688 -12.60978,28.31599c-2.78929,1.94072 -6.90712,3.03482 -9.95768,4.5601c-7.36836,3.68417 -14.61551,6.72256 -23.20185,5.15617c-3.32669,-0.60688 -6.32935,-2.38376 -9.47877,-3.61516c-5.94226,-2.32337 -12.67023,-3.20788 -18.75021,-5.40997c-2.19607,-1.46404 -4.88943,-2.08544 -7.05596,-3.59285c-3.75519,-2.61277 -7.29995,-6.63645 -9.27143,-10.80005c-1.04224,-2.20111 -1.71254,-4.57533 -2.25444,-6.94967c-0.00875,-0.03835 -0.01382,-0.08291 -0.01556,-0.13162c-1.57018,-1.6027 -3.10627,-3.28908 -3.90413,-5.34728c-1.08046,-2.78721 -1.1745,-9.48516 -1.10375,-13.28684c0.21064,-11.31834 3.26072,-24.02657 8.24511,-34.42059c1.18739,-2.47608 2.48969,-4.92337 3.30939,-7.54423c3.00233,-3.58165 6.24877,-7.13688 9.14237,-10.75388c1.02176,-1.27721 1.67651,-2.87069 2.8949,-3.96193c2.78734,-2.49645 6.29923,-4.08303 9.6859,-5.67425c5.51943,-2.59328 9.50462,-7.83435 15.1906,-9.94852c0.22208,-0.08257 -0.86301,0.31445 -0.69547,0.14691c5.81474,-5.81474 12.88175,-7.82882 20.8927,-8.11592c0,0 14.5,0 14.5,14.5c0,0.22468 -0.00348,0.44589 -0.01033,0.66366z" fill="#fffb00"/><path d="M139.99834,248.75652c0.51228,0.17445 1.02132,0.35703 1.52679,0.54636c1.367,0.51201 2.41942,1.64908 3.72341,2.30516c1.83146,0.92147 3.84675,1.67486 5.41679,2.97236c0.00149,0.00012 0.003,0.00027 0.00456,0.00044c3.72149,0.40355 7.30476,3.08532 10.84276,3.47794c3.18929,0.35393 6.36338,0.91176 9.47877,1.68067c6.89606,3.44803 17.5124,4.01604 21.47985,11.95095c3.03531,6.07062 -0.44162,17.96463 -4.38239,23.72382c0.00064,0.00214 0.00101,0.00489 0.0011,0.0083c0.03034,1.1508 0.13191,2.32092 -0.07859,3.45271c-0.84164,4.52523 -2.78191,9.53868 -4.42583,13.86955c-0.75728,1.99507 -1.2778,4.11754 -2.38872,5.93952c-1.05499,1.73026 -2.5829,3.13146 -4.01587,4.56443c-0.04537,0.04537 -0.04934,-0.00112 -0.03264,-0.08864c-0.19372,0.80469 -0.28224,1.66101 -0.78769,2.2949c-1.95318,2.44948 -4.16224,4.73618 -6.64581,6.64582c-2.09233,1.60881 -4.85989,2.12881 -7.05596,3.59286c-4.11292,1.33421 -8.48975,2.68041 -12.75313,3.22168c-2.55877,0.32486 -5.19738,-0.44551 -7.73793,0c-1.00424,0.17611 -1.8923,0.82383 -2.90172,0.96724c-1.91525,0.2721 -3.91578,-0.423 -5.80345,0c-4.84173,1.08498 -10.23578,2.1083 -15.22969,0.53231c-6.02152,-1.90029 -12.36615,-7.31013 -16.42462,-12.11534c-1.10065,-1.30316 -1.71272,-3.0638 -3.07497,-4.09041c-6.97312,-5.25507 -10.09203,-11.61322 -13.62444,-19.48894c-0.1624,-3.01452 -0.68975,-9.5414 -0.27925,-12.841c0.66845,-5.37309 2.79903,-9.93999 4.66099,-14.86596c2.04448,-5.40881 3.94066,-10.91668 8.03558,-15.16652c0.10967,-0.11382 -0.50421,0.28602 -0.45423,0.13608c0.67481,-2.02445 1.32294,-4.09078 2.38871,-5.93953c0.774,-1.34262 2.09674,-2.28662 3.05546,-3.50422c4.15054,-5.27133 7.88634,-10.7265 12.56731,-15.56883c0,0 10.25305,-10.25305 20.5061,0c4.15645,4.15645 4.94297,8.31291 4.40873,11.78629zM177.20501,322.93911c0.07083,-0.24073 0.16781,-0.50664 0.12289,-0.38585c-0.04674,0.12568 -0.08691,0.25472 -0.12289,0.38585z" fill="#fffb00"/><path d="M270.75295,273.32731c0.78052,-0.97839 1.60908,-1.91588 2.4753,-2.8066c1.36568,-1.40431 3.6052,-1.54571 5.33254,-2.46956c9.95291,-5.32326 17.92898,-10.64005 30.32475,-4.54089c2.55278,1.25606 3.11217,4.76872 4.82338,7.04164c1.80095,2.3921 3.37633,5.03341 4.32319,7.87401c0.04998,0.14995 -0.55467,-0.25811 -0.45423,-0.13608c0.57953,0.70409 1.4653,1.15251 1.93448,1.93448c0.52456,0.87426 0.44316,2.02717 0.96724,2.90172c0.56163,0.93721 1.74598,1.42805 2.21795,2.41345c3.67521,7.67338 4.86938,16.03796 4.67518,24.39165c-1.48174,5.92696 0.06346,11.95309 -1.48077,17.90607c-0.48426,1.86681 -1.94953,3.33304 -2.78674,5.07045c-0.64724,1.34319 -0.84508,2.90457 -1.65838,4.15423c-3.31369,5.09158 -9.45869,10.28395 -14.66902,13.1404c-0.77788,0.42645 -1.76552,0.35787 -2.54277,0.78547c-4.32223,2.3779 -7.57765,6.69087 -12.10476,8.95397c-1.88071,0.94016 -4.03015,1.20075 -6.04663,1.79639c-5.95472,1.75894 -15.24642,2.88472 -21.20983,0.44176c-4.48789,-1.8385 -7.92796,-6.59017 -10.93795,-10.12108c-0.81692,-2.50322 -1.15462,-5.19408 -2.34216,-7.54423c-0.8698,-1.72132 -2.18728,-3.23739 -2.78674,-5.07045c-0.4974,-1.52096 -0.18833,-3.19984 -0.43493,-4.78096c-0.31422,-2.01477 -1.59524,-3.79274 -1.93448,-5.80345c-0.21455,-1.27168 0.18239,-2.59227 0,-3.86897c-0.46007,-3.22049 -1.47692,-6.45177 -1.93448,-9.67241c-0.78442,-5.52136 -0.03811,-11.81402 0.96724,-17.21942c0.21425,-1.15195 2.43151,-8.21058 3.07381,-9.53973c1.02598,-2.12312 2.67305,-3.98747 3.28649,-6.26431c0,0 4.5853,-13.75591 18.34121,-9.17061c0.19745,0.06582 0.39113,0.13353 0.5811,0.20306z" fill="#fffb00"/><path d="M161.1245,125.34225c-6.23535,-0.14367 -14.29335,-1.51656 -18.95822,-6.18143c-2.1205,-2.1205 -5.32962,-9.95879 -5.9942,-13.73386c-0.06421,-0.36477 0.56306,-0.67498 0.43493,-1.02249c-0.15073,-0.40879 -0.90865,-0.33337 -1.08222,-0.733c-1.34196,-3.08986 -2.25444,-6.48271 -2.25444,-9.8514c-1.60775,-4.82326 -1.15448,-9.85993 -1.15448,-14.89678c0,-8.49354 -0.69234,-17.29498 1.15448,-25.53644c0.32513,-1.45091 -0.22397,-4.78816 -0.18724,-6.38253c0.11908,-5.16822 0.96572,-10.4036 3.40892,-15.07576c2.66174,-5.0901 6.53551,-8.61268 10.51045,-12.58762c1.01085,-0.38036 1.03179,-1.89825 1.58082,-2.82834c0.98574,-1.6699 2.06333,-3.29251 3.26221,-4.81662c0.76671,-0.9747 1.12125,-2.21626 1.78075,-3.26647c1.97901,-3.15146 5.24298,-6.75878 7.88484,-9.40064c3.29484,-3.29484 4.03295,-4.0808 8.71866,-6.64149c1.89791,-1.03718 3.858,-1.95673 5.80345,-2.90172c0.50137,-0.24354 1.17482,0.01653 1.64921,-0.2761c0.77614,-0.47876 1.11282,-1.53892 1.93448,-1.93449c3.4503,-1.66107 7.31236,-2.40905 11.1039,-2.94557c4.16204,-0.58894 8.37815,-3.17777 12.57414,-3.86896c1.7194,-0.28324 3.48291,-0.12483 5.22437,-0.18724c1.54038,0 4.98203,0.50107 6.38253,0.18724c3.72654,-0.83507 7.61099,-1.29362 11.41597,-0.96724c0.32264,0.02767 0.25526,0.78 0.57908,0.78c0.32382,0 0.25674,-0.74906 0.57908,-0.78c2.50416,-0.24037 5.04684,-0.2788 7.54701,0c4.68321,0.52225 9.9649,2.81806 14.50862,3.86896c2.94756,0.68173 6.15595,-0.02917 9.02972,0.91652c1.58465,0.52146 2.56457,2.16106 4.00867,2.9963c0.4825,0.27906 1.15992,0.00916 1.64922,0.27611c5.10393,2.78463 5.1692,3.2103 8.71866,6.64148c0,0 1.81274,1.81274 3.15158,4.67601c0.00736,0.00444 0.01467,0.00887 0.02192,0.01329c2.96546,1.80814 8.62841,7.61631 10.51479,10.51479c0.81329,1.24966 1.01113,2.81104 1.65837,4.15423c0.83721,1.73741 2.26671,3.21329 2.78674,5.07045c1.79983,6.42764 0.62216,14.92531 0.62216,21.61222c0,0 0,0.09529 -0.00772,0.27041c0.28377,1.24197 0.58522,2.4616 0.97496,3.59856c0.48122,1.4038 -0.44355,2.98636 -0.18723,4.44805c0.17611,1.00424 0.82383,1.8923 0.96724,2.90172c0.78576,5.53079 -0.07885,10.92186 -0.96724,16.25218c-0.47661,2.85964 -0.45337,5.85452 -0.96724,8.70517c-0.89829,4.98315 -2.82462,10.03318 -4.42582,14.8368c-1.24249,3.72746 -2.3151,8.44956 -4.32319,11.74297c-1.05499,1.73026 -2.5829,3.13146 -4.01587,4.56443c-0.16754,0.16754 0.22949,-0.91755 0.14691,-0.69546c-1.33364,3.58678 -3.57812,5.36659 -5.95718,8.34042c-1.02177,1.2772 -1.73834,2.80537 -2.8949,3.96193c-1.15656,1.15656 -2.69656,1.85851 -3.96193,2.8949c-5.35558,4.38641 -10.57479,8.91947 -17.18167,11.24761c-2.58074,0.9094 -5.34803,1.20907 -8.06611,1.5241c-2.78089,0.32231 -5.32927,1.99919 -8.12609,2.12171c-1.95928,0.08583 -3.93739,-1.57059 -5.80344,-0.96724c-5.77025,0 -11.22237,0.10242 -16.83127,-1.15447c-1.13383,-0.25408 -2.31886,0.18723 -3.48081,0.18723c-4.52804,0 -9.45426,0.44857 -13.92953,-0.18723c-2.92099,-0.41499 -5.81366,-1.28653 -8.70517,-1.93448c-1.88767,-0.423 -3.8882,0.2721 -5.80345,0c-1.17722,-0.16725 -2.34943,-1.14581 -3.48081,-0.78001c0,0 -8.71117,0 -12.62957,-6.75197c-0.30342,-0.00545 -0.60734,-0.0117 -0.91181,-0.01872z" fill="#00f1ff"/><path d="M229.80725,4.44571c0,-8.00813 6.49187,-14.5 14.5,-14.5c8.00813,0 14.5,6.49187 14.5,14.5c0,8.00813 -6.49187,14.5 -14.5,14.5c-8.00813,0 -14.5,-6.49187 -14.5,-14.5z" fill="#ffffff"/><path d="M157.26415,34.43019c0,-8.00813 6.49187,-14.5 14.5,-14.5c8.00813,0 14.5,6.49187 14.5,14.5c0,8.00813 -6.49187,14.5 -14.5,14.5c-8.00813,0 -14.5,-6.49187 -14.5,-14.5z" fill="#ffffff"/><path d="M170.91588,29.59398c0,-2.07107 1.67893,-3.75 3.75,-3.75c2.07107,0 3.75,1.67893 3.75,3.75c0,2.07107 -1.67893,3.75 -3.75,3.75c-2.07107,0 -3.75,-1.67893 -3.75,-3.75z" fill="#000000"/><path d="M242.49173,-2.32498c0,-2.07107 1.67893,-3.75 3.75,-3.75c2.07107,0 3.75,1.67893 3.75,3.75c0,2.07107 -1.67893,3.75 -3.75,3.75c-2.07107,0 -3.75,-1.67893 -3.75,-3.75z" fill="#000000"/><path d="M310.57633,-20.75479c5.26924,1.25658 10.51486,2.61265 15.7475,4.01384c2.72884,0.73072 7.40435,1.65343 10.36801,2.75685c14.87232,5.5372 29.3837,14.65684 39.74505,26.74509c3.7433,4.36718 7.96636,16.69283 9.39598,22.72567c1.27735,5.39028 0.19329,11.31671 1.37933,16.63281c1.88013,8.42716 3.40114,17.07309 0.87994,25.72524c-5.97316,20.49848 -17.59361,34.91271 -34.09675,49.05826c-2.96625,2.5425 -9.99895,4.26843 -13.24296,4.97186c-6.95944,1.50907 -13.08601,5.79557 -20.51372,5.67261c-6.27137,-0.10382 -11.68867,2.24005 -17.897,1.93448c-3.56403,-0.17542 -8.06261,-0.99409 -11.49555,-1.89094c-1.40896,-0.36809 -3.75344,-1.94487 -5.32781,-1.97803c-3.72768,-0.07851 -9.14051,-0.37707 -11.96048,-2.8125c-5.68993,-4.91403 -8.88042,-12.32506 -7.3125,-19.93448c0.45833,-2.22437 1.6404,-4.57199 1.65323,-6.87919c0.08254,-14.84381 -3.19025,-29.59115 2.25,-43.80141c0.70929,-1.85272 2.44149,-3.59956 3.23823,-5.52305c1.54039,-3.71884 0.85858,-7.66123 1.56371,-11.50324c1.1287,-6.14988 2.62041,-12.28001 3.86897,-18.37758c0.55316,-2.70146 3.82953,-12.05854 2.06784,-14.03657c-4.90942,-3.21461 -8.15254,-8.76352 -8.15254,-15.06989c0,-7.83065 5.00034,-14.49341 11.98219,-16.96946c7.86516,-3.35187 18.09141,-3.31279 25.85931,-1.46035z" fill="#00daff"/><path d="M160.19636,16.76651c-0.87017,2.89094 -0.96536,5.96019 -1.66518,8.86928c-0.6003,2.49541 -2.54737,4.67461 -2.62047,7.24017c-0.09365,3.28663 0.59067,11.32392 -0.28125,15.97362c-0.65655,3.50118 -2.61492,7.78231 -2.62047,11.10913c-0.01122,6.72643 0.11215,14.13363 0.11215,20.86007c0,2.02755 -0.97106,4.05088 -1.07939,5.9747c-0.69925,12.41832 0.248,25.89814 -10.10828,34.8422c-13.74938,11.87446 -38.29643,-0.11776 -50.76253,-9.35791c-2.76267,-2.04775 -5.55724,-4.9043 -7.91455,-7.26162c-8.51228,-8.51228 -9.0127,-23.41448 -9.77326,-34.51663c-0.29583,-4.31842 -1.07939,-8.29941 -1.07939,-12.81656c0,-3.98122 2.67838,-7.53637 3.01387,-11.0589c0.68008,-7.14034 0.86706,-15.52627 4.18448,-22.16112c7.57461,-15.14922 18.6129,-28.15731 33.83276,-35.76724c5.48888,-2.74444 11.71479,-2.53527 17.5729,-3.21724c2.81548,-0.32776 6.31677,-2.00201 8.92666,-2.62047c8.06232,-1.91054 22.35234,0.72398 25.95403,9.36802c0.63736,1.05136 1.17011,2.17319 1.58382,3.35105c0.71673,1.60078 1.28102,3.30058 0.97589,4.80829c0.02434,0.38308 0.03669,0.76941 0.03669,1.15863c0,6.35407 -3.29236,11.93916 -8.2642,15.14242c-0.00815,0.02669 -0.01624,0.05339 -0.02429,0.08012z" fill="#00daff"/><path d="M180.7188,66.19306c1.79797,-2.69694 3.91969,-3.77507 5.89878,-4.05058c0.6414,-0.73027 1.30084,-1.45208 1.99641,-2.15729c1.28074,-1.29851 2.57931,-2.57931 3.86897,-3.86897c0.64483,-0.64483 1.24577,-1.33676 1.93448,-1.93448c0.10408,-0.09034 0.22654,-0.19555 0.35627,-0.25741c-0.08486,-1.83366 0.63937,-3.64812 0.99287,-5.45992c0.37045,-1.89868 -0.2861,-3.89023 0,-5.80344c0.21909,-1.46506 0.96856,-2.88513 0.85103,-4.36181c0,0 0,-9 9,-9c3.33818,0 5.43819,1.23815 6.7593,2.79598c2.80703,0.15284 5.00369,1.61729 5.00369,1.61729c1.67595,1.1173 3.90254,2.35072 5.96522,3.77288c0.75538,-1.90715 2.35624,-3.7609 5.54126,-4.82258c8.53815,-2.84605 11.3842,5.6921 11.3842,5.6921c1.2891,4.22814 2.05078,8.52678 1.31288,12.99286c-0.3324,2.01185 -1.64918,3.78439 -1.93448,5.80345c-0.13533,0.95773 0.20094,1.95559 0,2.90173c-0.63034,2.96787 -2.29781,5.6257 -3.70067,8.31597c-1.12951,2.16608 -0.59569,3.95638 -1.13553,6.19264c-0.51386,2.12861 -1.2031,4.23953 -2.19517,6.19167c-0.41314,0.81297 -1.46003,1.1557 -1.93448,1.93448c-0.38005,0.62382 -0.19579,1.47908 -0.53826,2.12431c-3.01989,5.68954 -7.57801,9.37928 -12.83585,12.83584c-4.08542,1.36181 -6.81061,3.73192 -11.21769,4.66792c-0.94614,0.20095 -1.944,-0.13533 -2.90172,0c-2.01907,0.2853 -3.7916,1.60208 -5.80345,1.93448c-1.42893,0.23609 -2.89524,0.09298 -4.34336,0.11621c-5.06323,0.08122 -11.01206,-0.94232 -15.9687,-0.11621c-1.47185,0.24531 -2.85209,1.13453 -4.34337,1.08346c-5.78519,-0.19815 -14.04604,-4.2186 -17.97085,-8.43949c-4.34265,-4.67025 -5.04632,-10.00794 -6.43758,-15.90396c-0.06102,-3.62104 -0.68531,-8.97485 0.31874,-12.41288c0.45885,-1.5712 1.74692,-2.77618 2.46348,-4.24783c0.57423,-1.17935 0.69074,-2.57329 1.39622,-3.67914c0.86224,-1.35158 2.15092,-2.37791 3.22638,-3.56686l4.27352,-2.65312c0,0 6.65677,-3.32839 10.89016,2.12169c6.97097,1.23927 6.97097,8.82987 6.97097,8.82987l-0.1148,1.44234c0.08823,0.00577 0.95807,0.59381 1.96006,1.21417c0.25578,-0.59625 0.58879,-1.21188 1.01111,-1.84537zM212.55531,54.68658c-0.01352,-0.04056 -0.02678,-0.081 -0.03979,-0.1213c-0.08301,0.52229 -0.15784,1.04998 -0.23263,1.57932c0.48391,0.34273 0.96626,0.69095 1.44801,1.04143c-0.45189,-0.69899 -0.85081,-1.52509 -1.17559,-2.49945zM219.64472,60.77573c-0.39007,-0.04199 -0.79113,-0.10894 -1.19602,-0.20796c0.33808,0.22916 0.67743,0.45437 1.01837,0.67459c0.06612,-0.17917 0.12586,-0.33632 0.17765,-0.46663zM176.35348,86.38564c-0.17201,-0.06249 -0.34494,-0.12665 -0.51864,-0.19248c-0.03284,0.06829 -0.06669,0.13661 -0.10159,0.20492c0.19653,-0.00477 0.40442,-0.00889 0.62023,-0.01244z" fill="#06ffff"/><path d="M222.71603,67.47235c-0.08058,-0.16116 -0.15633,-0.32071 -0.22738,-0.47864c-1.16769,-0.3396 -2.31314,-0.75879 -3.41486,-1.26489c-3.16225,-1.45266 -5.63157,-4.24695 -8.70517,-5.80345c-3.991,-2.02106 -9.13713,-2.96177 -13.40051,-4.38289c0,0 -8.53815,-2.84605 -5.6921,-11.3842c2.84605,-8.53815 11.3842,-5.6921 11.3842,-5.6921c5.0599,1.68663 10.84436,2.9174 15.61674,5.28952c3.07364,1.52776 5.85352,3.89661 8.70517,5.80345c0.91308,0.61056 2.24633,-0.17132 3.29092,0.16829c2.71541,0.88281 5.70534,1.57294 7.82405,3.48707c1.76775,1.59707 2.09428,4.27976 3.14143,6.41964l-6.44771,11.86314c0,0 -8.04984,4.02492 -12.07476,-4.02492z" fill="#00f1f1"/><path d="M198.84691,105.33363c-7.82345,0 -8.84619,-6.80071 -8.97989,-8.57879c-0.58047,-2.06318 -1.0965,-4.34214 -2.00666,-6.13945c-1.05037,-2.07416 -2.83412,-3.7215 -3.86897,-5.80345c-0.77843,-1.5661 -0.46381,-3.62123 -1.5055,-5.02603c-1.12414,-1.51599 -2.95014,-2.39725 -4.14042,-3.86189c-2.15447,-2.65107 -2.88497,-4.10133 -5.77015,-5.95538c0,0 -7.48845,-4.9923 -2.49615,-12.48076c4.9923,-7.48846 12.48075,-2.49615 12.48075,-2.49615c4.05641,2.76334 6.72079,5.70991 9.7057,9.52049c1.6491,2.10526 4.07721,3.56658 5.53199,5.81052c1.26794,1.95575 1.31045,4.50149 2.36346,6.58087c1.05037,2.07416 2.83413,3.72149 3.86897,5.80344c1.47783,2.97318 2.30108,6.65142 3.35503,9.81329l0.46185,3.81329c0,0 0,9 -9,9z" fill="#00f1f1"/><path d="M218.71242,160.17155c0,-3.45178 2.79822,-6.25 6.25,-6.25c3.45178,0 6.25,2.79822 6.25,6.25c0,3.45178 -2.79822,6.25 -6.25,6.25c-3.45178,0 -6.25,-2.79822 -6.25,-6.25z" fill="#000000"/><path d="M180.99001,184.35259c0,-3.45178 2.79822,-6.25 6.25,-6.25c3.45178,0 6.25,2.79822 6.25,6.25c0,3.45178 -2.79822,6.25 -6.25,6.25c-3.45178,0 -6.25,-2.79822 -6.25,-6.25z" fill="#000000"/><path d="M232.2538,202.73017c0,-3.45178 2.79822,-6.25 6.25,-6.25c3.45178,0 6.25,2.79822 6.25,6.25c0,3.45178 -2.79822,6.25 -6.25,6.25c-3.45178,0 -6.25,-2.79822 -6.25,-6.25z" fill="#000000"/><path d="M169.38311,230.78017c0,-3.45178 2.79822,-6.25 6.25,-6.25c3.45178,0 6.25,2.79822 6.25,6.25c0,3.45178 -2.79822,6.25 -6.25,6.25c-3.45178,0 -6.25,-2.79822 -6.25,-6.25z" fill="#000000"/><path d="M213.87621,247.22327c0,-3.45178 2.79822,-6.25 6.25,-6.25c3.45178,0 6.25,2.79822 6.25,6.25c0,3.45178 -2.79822,6.25 -6.25,6.25c-3.45178,0 -6.25,-2.79822 -6.25,-6.25z" fill="#000000"/><path d="M197.43311,207.56638c0,-3.45178 2.79822,-6.25 6.25,-6.25c3.45178,0 6.25,2.79822 6.25,6.25c0,3.45178 -2.79822,6.25 -6.25,6.25c-3.45178,0 -6.25,-2.79822 -6.25,-6.25z" fill="#000000"/><path d="M235.36802,100.82973c-1.5589,-0.78304 -3.11422,-2.34553 -3.11422,-5.46335c0,-6.25 6.25,-6.25 6.25,-6.25c3.86796,0 7.73925,-0.04587 11.6069,0c1.30114,0.01543 2.66631,-0.32446 3.90286,0.0807c2.46827,0.80874 5.33362,1.46569 6.97085,3.4821c1.39965,1.72381 0.94769,4.34783 1.17974,6.55616c0.77406,7.36641 -3.93741,11.36245 -8.60127,16.02631c-1.19665,1.19665 -4.90634,5.02549 -5.89661,5.22379c-8.7555,1.75335 -10.02599,-0.33767 -12.43003,-7.67483c-0.1007,-0.30734 -0.0807,-5.99311 -0.0807,-6.80459c0.03416,-1.65208 -0.03733,-3.45344 0.21249,-5.17631z" fill="#000000"/></g></g></svg>