<svg version="1.1" xmlns="http://www.w3.org/2000/svg" xmlns:xlink="http://www.w3.org/1999/xlink" width="345.19988" height="348.78044" viewBox="0,0,345.19988,348.78044"><defs><radialGradient cx="239.99999" cy="178.21306" r="141.17178" gradientUnits="userSpaceOnUse" id="color-1"><stop offset="0" stop-color="#dcdcdc"/><stop offset="1" stop-color="#5f5f5f"/></radialGradient><linearGradient x1="240" y1="5.60978" x2="240" y2="350.80966" gradientUnits="userSpaceOnUse" id="color-2"><stop offset="0" stop-color="#ffffff"/><stop offset="1" stop-color="#bfbfbf"/></linearGradient><linearGradient x1="229.17668" y1="9.19034" x2="229.17668" y2="354.39022" gradientUnits="userSpaceOnUse" id="color-3"><stop offset="0" stop-color="#ffffff"/><stop offset="1" stop-color="#bfbfbf"/></linearGradient><radialGradient cx="223.74726" cy="135.59393" r="144.96377" gradientUnits="userSpaceOnUse" id="color-4"><stop offset="0" stop-color="#ffffff"/><stop offset="1" stop-color="#bfbfbf"/></radialGradient><linearGradient x1="256.28257" y1="36.07452" x2="256.28257" y2="186.9853" gradientUnits="userSpaceOnUse" id="color-5"><stop offset="0" stop-color="#055d0c"/><stop offset="1" stop-color="#59ff00"/></linearGradient><linearGradient x1="215.4109" y1="182.26934" x2="215.4109" y2="320.60422" gradientUnits="userSpaceOnUse" id="color-6"><stop offset="0" stop-color="#d6ff00"/><stop offset="1" stop-color="#ffb900"/></linearGradient><linearGradient x1="237.41872" y1="180.69735" x2="237.41872" y2="223.14101" gradientUnits="userSpaceOnUse" id="color-7"><stop offset="0" stop-color="#ff0025"/><stop offset="1" stop-color="#5d00a9"/></linearGradient><linearGradient x1="227.20081" y1="102.09798" x2="227.20081" y2="287.59249" gradientUnits="userSpaceOnUse" id="color-8"><stop offset="0" stop-color="#6e0000"/><stop offset="1" stop-color="#ffb2b2"/></linearGradient><linearGradient x1="306.58617" y1="131.96574" x2="306.58617" y2="177.55338" gradientUnits="userSpaceOnUse" id="color-9"><stop offset="0" stop-color="#ba00de"/><stop offset="1" stop-color="#3500ff"/></linearGradient><linearGradient x1="229.20248" y1="163.88395" x2="280.45039" y2="172.69933" gradientUnits="userSpaceOnUse" id="color-10"><stop offset="0" stop-color="#8a5500"/><stop offset="1" stop-color="#ff9d00"/></linearGradient><linearGradient x1="248.02424" y1="186.25003" x2="262.63864" y2="140.98893" gradientUnits="userSpaceOnUse" id="color-11"><stop offset="0" stop-color="#ffffff" stop-opacity="0"/><stop offset="1" stop-color="#ffffff"/></linearGradient><linearGradient x1="216.05749" y1="211.20217" x2="127.24058" y2="293.88895" gradientUnits="userSpaceOnUse" id="color-12"><stop offset="0" stop-color="#ffad00" stop-opacity="0"/><stop offset="1" stop-color="#ffad00"/></linearGradient></defs><g transform="translate(-67.40006,-5.60978)"><g data-paper-data="{&quot;isPaintingLayer&quot;:true}" fill-rule="nonzero" stroke-linejoin="miter" stroke-miterlimit="10" stroke-dasharray="" stroke-dashoffset="0" style="mix-blend-mode: normal"><g><path d="M98.82572,178.21388c0,-77.96842 63.20585,-141.17427 141.17427,-141.17427c77.96842,0 141.17427,63.20589 141.17427,141.17427c0,77.96842 -63.20589,141.17427 -141.17427,141.17427c-77.96842,0 -141.17427,-63.20585 -141.17427,-141.17427z" fill="url(#color-1)" stroke="none" stroke-width="1" stroke-linecap="butt"/><path d="M412.59994,178.20972c0,95.16703 -77.42459,172.59994 -172.59994,172.59994c-95.17119,0 -172.59994,-77.43291 -172.59994,-172.59994c0,-95.17119 77.42459,-172.59994 172.59994,-172.59994c95.17535,0 172.59994,77.43291 172.59994,172.59994z" fill="url(#color-2)" stroke="none" stroke-width="1" stroke-linecap="butt"/><path d="M388.11145,181.79028c0,95.16703 -71.29467,172.59994 -158.93477,172.59994c-87.63623,0 -158.93477,-77.43291 -158.93477,-172.59994c0,-95.17119 71.29467,-172.59994 158.93477,-172.59994c87.64005,0 158.93477,77.43291 158.93477,172.59994z" fill="url(#color-3)" stroke="none" stroke-width="1" stroke-linecap="butt"/><path d="M106.92937,123.77076c32.011,-73.36116 117.43203,-106.88208 190.79317,-74.87109c73.36116,32.011 106.88208,117.43203 74.87109,190.79317c-32.011,73.36116 -117.43203,106.88208 -190.79317,74.87109c-73.36116,-32.011 -106.88208,-117.43203 -74.87109,-190.79317z" fill="url(#color-4)" stroke="none" stroke-width="1" stroke-linecap="butt"/><g fill="none" stroke-width="2" stroke-linecap="round"><path d="M168.21555,311.21803l188.29995,-212.42699" stroke="#e8e8e8"/><path d="M370.17949,137.53098l-175.23807,191.97963" stroke="#e8e8e8"/><path d="M382.56962,158.42571c0,0 -50.44467,69.8078 -94.72193,118.35088c-40.40853,44.30159 -45.55924,49.69863 -45.55924,49.69863" stroke="#e8e8e8"/><path d="M291.98828,319.65137c25.32519,-28.08903 63.93958,-81.28152 88.15954,-107.83483" stroke="#ececec"/><g><path d="M151.10809,67.08661l-45.6277,58.41716" stroke="#e0e0e0"/><path d="M224.17262,35.79693l-127.57842,150.27517" stroke="#e7e7e7"/><path d="M104.81643,223.13999l166.29008,-178.48959" stroke="#d1d1d1"/><path d="M300.58158,53.77425l-181.28677,207.59966" stroke="#d1d1d1"/><path d="M336.37464,74.06074c0,0 -48.85819,55.78002 -80.63075,92.12054c-40.43392,46.2471 -113.20701,127.05307 -113.20701,127.05307" stroke="#d1d1d1"/></g></g><g fill="none" stroke-width="5" stroke-linecap="round"><path d="M292.43828,56.51035l-55.01955,130.47494l-17.29186,-150.91078" stroke="url(#color-5)"/><path d="M146.24346,297.02442l92.74725,-114.75508l45.58763,138.33488" stroke="url(#color-6)"/><path d="M95.93986,180.69735l143.05085,6.28795l139.90687,36.1557" stroke="url(#color-7)"/><path d="M119.51967,102.09798l116.32706,75.45539l99.0352,110.03912" stroke="url(#color-8)"/><path d="M243.70667,177.55338l125.75899,-45.58763" stroke="url(#color-9)"/></g></g><g stroke-linecap="butt"><path d="M214.22967,155.42264c6.48348,-23.67581 71.56321,-62.67655 71.56321,-62.67655l41.44187,47.31775c0,0 -34.77587,57.67669 -71.56321,62.67655c-12.39787,1.68502 -34.27992,40.69552 -53.45435,47.98888c-5.07028,1.92858 -25.76254,-10.45159 -27.22273,-11.93636c-9.40293,-9.56122 35.51454,-69.78346 39.23521,-83.37027z" fill="#b3b3b3" stroke="none" stroke-width="0"/><g stroke="none"><g><path d="M280.71878,167.97192c0.19635,15.90031 -11.23689,28.93319 -25.53683,29.10977c-14.29995,0.17658 -26.0515,-12.57001 -26.24785,-28.47032c-0.19635,-15.90031 11.23689,-28.93319 25.53684,-29.10977c14.29995,-0.17658 26.0515,12.57001 26.24785,28.47032z" fill="url(#color-10)" stroke-width="0"/><path d="M259.7655,150.8418c-0.02287,-1.85147 1.45952,-3.37093 3.311,-3.39379c1.85147,-0.02286 3.37093,1.45952 3.39379,3.311c0.02287,1.85147 -1.45951,3.37093 -3.311,3.39379c-1.85147,0.02286 -3.37093,-1.45952 -3.39379,-3.311z" fill="#000000" stroke-width="0.5"/><path d="M261.40421,162.41413c-0.02287,-1.85147 1.45953,-3.37093 3.311,-3.39379c1.85147,-0.02286 3.37093,1.45953 3.39379,3.311c0.02287,1.85147 -1.45951,3.37093 -3.311,3.39379c-1.85147,0.02286 -3.37093,-1.45953 -3.39379,-3.311z" fill="#000000" stroke-width="0.5"/><path d="M249.55028,156.39027c-0.02286,-1.85147 1.45953,-3.37093 3.311,-3.39379c1.85147,-0.02286 3.37093,1.45953 3.39379,3.31101c0.02287,1.85147 -1.45953,3.37093 -3.311,3.39379c-1.85147,0.02286 -3.37093,-1.45953 -3.39379,-3.31101z" fill="#000000" stroke-width="0.5"/></g><path d="M231.69718,156.12041c4.03566,-12.4985 18.48282,-19.15426 30.94146,-15.13147c12.45864,4.02278 21.22343,19.99807 17.18777,32.49658c-0.56714,1.75643 -1.42805,6.14543 -3.29511,9.70315c-0.90202,1.71881 -5.427,7.76747 -10.30691,11.04485c-2.25928,1.51735 -6.2852,1.42635 -7.0228,1.86069c-5.63343,3.31721 -6.85347,-6.62505 -13.55225,-8.78802c-6.37683,-2.05902 -13.18357,-7.33677 -15.90851,-12.92905c-1.54958,-3.18014 -0.84645,-14.47992 0.12086,-15.75174c0.65385,-0.85969 1.83551,-2.50497 1.83551,-2.50497z" data-paper-data="{&quot;index&quot;:null}" fill="url(#color-11)" stroke-width="0"/></g><path d="M330.11094,150.96701c-19.71779,18.31583 -74.85751,-41.04446 -55.13973,-59.36029c19.71779,-18.31583 63.27207,-3.4836 63.27207,-3.4836c0,0 11.58544,44.52806 -8.13234,62.84389z" fill="#4c4c4c" stroke="none" stroke-width="0"/><path d="M271.39558,183.35511c-13.91044,12.63143 -32.59636,14.71168 -41.73618,4.64641c-9.1398,-10.06527 -5.27245,-28.46461 8.63799,-41.09601c13.91044,-12.63143 32.59638,-14.71169 41.7362,-4.64641c9.1398,10.06528 5.27243,28.46459 -8.63801,41.09601z" fill="none" stroke="#4c4c4c" stroke-width="15"/><path d="M154.76233,280.24499c-1.32338,0.65566 -2.81312,0.95718 -4.09668,1.68774c-3.76598,1.41848 -6.64062,3.95381 -10.66151,4.89553c-0.84756,0.19851 -4.68406,0.85715 -5.63249,0.35266c-2.62428,-1.39592 -6.44783,-2.34637 -7.23513,-5.21266c-0.77359,-2.81635 2.01547,-5.53686 3.61042,-7.98356c0.53475,-0.82032 1.69469,-0.98169 2.54752,-1.46289c1.25619,-0.7088 2.49108,-1.28888 3.63484,-2.19831c3.34404,-2.65893 5.56162,-5.85769 8.22861,-9.04488c0.4448,-0.53156 1.07709,-0.88529 1.52189,-1.41685c0.19814,-0.23679 0.38511,-0.4701 0.566,-0.70015c-1.00357,0.77754 -2.0891,1.45605 -3.24488,1.96179c-0.95937,0.4198 -1.91012,0.88967 -2.92608,1.14354c-0.35098,0.08771 -0.738,-0.27304 -1.07579,-0.1435c-0.51202,0.19633 -0.77756,0.80583 -1.27169,1.04363c-0.52485,0.25259 -1.06739,0.43804 -1.6235,0.5715l-0.34559,0.32174c-2.62662,2.44533 -6.73825,2.29836 -9.18359,-0.32825c-2.44533,-2.62662 -2.29836,-6.73825 0.32825,-9.18359l0.58212,-0.54194c0.50133,-0.81263 1.1993,-1.49706 1.78329,-2.25581c0.33422,-0.43422 0.44393,-1.01601 0.78721,-1.44312c1.76709,-2.19866 4.66766,-4.7978 6.90193,-6.49699c2.17786,-1.65628 4.76697,-2.96755 7.06738,-4.46184c2.34878,-2.22455 4.6528,-4.7573 7.26016,-6.67467c1.32898,-0.97729 3.26095,-1.7421 4.26809,-3.1404c0.16556,-0.22986 0.04469,-0.56942 0.12824,-0.84009c0.51619,-1.67223 1.00557,-3.3553 1.61831,-4.9946c0.15684,-0.41963 4.23934,-9.98701 4.40206,-10.29698c2.14732,-4.08996 5.2166,-8.37234 8.3414,-11.77821c0.92367,-1.00675 2.25638,-1.62784 3.04562,-2.74311c0.77982,-1.10196 1.40932,-2.30559 2.19327,-3.4046c0,0 1.71716,-2.3864 4.44659,-2.79378c0.08616,-0.11717 0.17822,-0.23118 0.2766,-0.34176c1.78458,-2.00605 5.18664,-1.75939 7.87113,-1.71042c1.39263,0.0254 2.55215,1.14818 3.71052,1.92163c0.4518,0.30166 0.58572,0.959 1.04301,1.2523c0.65228,0.41836 1.53342,0.38303 2.1778,0.81347c1.20286,0.80351 1.95062,2.14645 3.04737,3.08964c0.89404,0.76886 2.11821,1.07092 3.04642,1.79816c0.68265,0.53486 1.2222,1.23072 1.83329,1.84606c7.61642,8.18108 15.17255,16.35439 23.17789,24.14516c0.99867,0.97191 2.0194,1.92754 3.11782,2.78514c2.87369,2.24368 7.93048,4.60301 8.49501,8.64492c0.32891,2.35489 -1.992,4.3261 -3.18724,6.38162c-1.16204,1.99844 -3.98993,3.08279 -5.38293,4.89677c-0.33374,0.4346 -0.44393,1.01601 -0.7872,1.44311c-0.43908,0.54632 -2.27578,2.23335 -2.98749,2.89593c-0.58841,0.39336 -0.78059,1.18341 -1.22399,1.73511c-0.54329,0.67598 -1.21133,1.24235 -1.84606,1.83329c-1.92367,1.79089 -4.29468,2.76607 -5.9947,4.82749c-0.86146,1.04459 -1.80553,2.87119 -2.61501,3.83168c-0.78166,0.92749 -1.92251,1.51906 -2.66332,2.47949c-2.30987,2.99471 -5.02373,5.45374 -7.80318,8.04136c-2.82639,2.63131 -5.45029,5.14187 -8.73447,7.2051c-2.86432,1.4678 -4.75637,4.31285 -7.30261,6.26143c-3.56702,2.72974 -7.70004,4.83378 -11.22634,7.62349c-0.81536,0.64505 -1.4657,1.48249 -2.28285,2.12528c-1.26107,0.99199 -2.44371,1.34848 -3.4256,2.48682c-3.31042,3.83799 -6.18787,7.93502 -9.91662,11.38523c-0.81226,0.75158 -2.31467,2.26755 -3.53652,2.58219l-1.00291,0.93369c-2.62662,2.44533 -6.73825,2.29836 -9.18359,-0.32826c-1.99175,-2.1394 -2.2637,-5.26398 -0.87674,-7.67092l0.71545,-1.31158l0.18534,0.1011c0.0974,-0.10329 0.1988,-0.20408 0.30419,-0.30221l0.10224,-0.09518l-0.01966,-0.57729c1.06794,-1.02484 1.88049,-2.28659 2.8463,-3.40821c0.62147,-0.72173 1.43571,-1.25858 2.0731,-1.96629c1.41074,-1.5664 2.4546,-3.43789 3.85726,-5.0115c1.37923,-1.54732 2.78264,-2.98701 4.14157,-4.553c1.19307,-1.37487 1.51425,-2.75927 2.59541,-4.35272c0.61535,-0.90691 1.42623,-1.81675 2.25235,-2.74974c-2.21125,0.53972 -4.64151,-0.10027 -6.30275,-1.88466c-0.92796,-0.99677 -1.48262,-2.20738 -1.67011,-3.45963c-0.95478,0.63479 -1.83864,1.41104 -2.86449,1.91929z" fill="url(#color-12)" stroke="none" stroke-width="0.5"/></g></g></g></svg>