<svg version="1.1" width="518" height="269" viewBox="-1 -1 518 269" xmlns="http://www.w3.org/2000/svg" xmlns:xlink="http://www.w3.org/1999/xlink">
  <!-- Exported by Scratch - http://scratch.mit.edu/ -->
  <path id="ID0.21787316165864468" fill="#006622" stroke="none" d="M 371 93 L 473 93 L 473 120 L 371 120 L 371 93 Z " transform="matrix(1, 0, 0, 1, 14, -93)"/>
  <path id="ID0.09699255088344216" fill="#006622" stroke="none" d="M 268 298 L 397 298 L 397 360 L 268 360 L 268 298 Z " transform="matrix(3.3104653358459473, 0, 0, 1, -798.15, -93)"/>
  <path id="ID0.6450049197301269" fill="#006622" stroke="none" d="M 23 32 L 147 32 L 147 69 L 23 69 L 23 32 Z " transform="matrix(1, 0, 0, 1, 168, -8)"/>
  <path id="ID0.5996072264388204" fill="#006622" stroke="none" d="M 173 151 L 317 151 L 317 200 L 173 200 L 173 151 Z " transform="matrix(1, 0, 0, 1, -173, -61)"/>
  <path id="ID0.24516539461910725" fill="#006622" stroke="none" d="M 235 281 L 480 281 L 480 319 L 235 319 L 235 281 Z " transform="matrix(1, 0, 0, 1, 14, -93)"/>
</svg>