<svg version="1.1" xmlns="http://www.w3.org/2000/svg" xmlns:xlink="http://www.w3.org/1999/xlink" width="103.44188" height="207.0618" viewBox="0,0,103.44188,207.0618"><defs><linearGradient x1="269.38767" y1="208.47958" x2="269.82671" y2="227.4745" gradientUnits="userSpaceOnUse" id="color-1"><stop offset="0" stop-color="#ffe4ba"/><stop offset="1" stop-color="#ddb980"/></linearGradient><linearGradient x1="267.53297" y1="171.51257" x2="268.48036" y2="212.50161" gradientUnits="userSpaceOnUse" id="color-2"><stop offset="0" stop-color="#00ffff"/><stop offset="1" stop-color="#00a1ab"/></linearGradient><linearGradient x1="269.22694" y1="208.39993" x2="269.36944" y2="214.56496" gradientUnits="userSpaceOnUse" id="color-3"><stop offset="0" stop-color="#00ffff"/><stop offset="1" stop-color="#00a1ab"/></linearGradient><linearGradient x1="231.84825" y1="223.86424" x2="231.84825" y2="272.5309" gradientUnits="userSpaceOnUse" id="color-4"><stop offset="0" stop-color="#213fff"/><stop offset="1" stop-color="#003580"/></linearGradient><linearGradient x1="251.18158" y1="224.19757" x2="251.18158" y2="272.86424" gradientUnits="userSpaceOnUse" id="color-5"><stop offset="0" stop-color="#213fff"/><stop offset="1" stop-color="#003580"/></linearGradient><linearGradient x1="241.37361" y1="165.28772" x2="241.37361" y2="231.20642" gradientUnits="userSpaceOnUse" id="color-6"><stop offset="0" stop-color="#00ffff"/><stop offset="1" stop-color="#00a1ab"/></linearGradient><linearGradient x1="241.36387" y1="95.21574" x2="241.36387" y2="173.1794" gradientUnits="userSpaceOnUse" id="color-7"><stop offset="0" stop-color="#ffe4ba"/><stop offset="1" stop-color="#ddb980"/></linearGradient><linearGradient x1="239.84062" y1="77.4691" x2="239.84062" y2="119.49912" gradientUnits="userSpaceOnUse" id="color-8"><stop offset="0" stop-color="#00ffff"/><stop offset="1" stop-color="#00a1ab"/></linearGradient><linearGradient x1="240.72145" y1="97.17906" x2="240.72145" y2="149.62497" gradientUnits="userSpaceOnUse" id="color-9"><stop offset="0" stop-color="#00ffff"/><stop offset="1" stop-color="#00a1ab"/></linearGradient><linearGradient x1="230.84825" y1="265.86424" x2="230.84825" y2="281.5309" gradientUnits="userSpaceOnUse" id="color-10"><stop offset="0" stop-color="#00e6ff"/><stop offset="1" stop-color="#0095c3"/></linearGradient><linearGradient x1="254.51491" y1="266.86424" x2="254.51491" y2="282.5309" gradientUnits="userSpaceOnUse" id="color-11"><stop offset="0" stop-color="#00e6ff"/><stop offset="1" stop-color="#0095c3"/></linearGradient><linearGradient x1="235.97562" y1="202.23444" x2="202.04691" y2="179.21611" gradientUnits="userSpaceOnUse" id="color-12"><stop offset="0" stop-color="#00ffff"/><stop offset="1" stop-color="#00a1ab"/></linearGradient><linearGradient x1="198.78059" y1="182.29568" x2="183.05753" y2="171.62864" gradientUnits="userSpaceOnUse" id="color-13"><stop offset="0" stop-color="#ffe4ba"/><stop offset="1" stop-color="#ddb980"/></linearGradient><linearGradient x1="198.54452" y1="185.94829" x2="193.44142" y2="182.48618" gradientUnits="userSpaceOnUse" id="color-14"><stop offset="0" stop-color="#00ffff"/><stop offset="1" stop-color="#00a1ab"/></linearGradient></defs><g transform="translate(-180.2033,-76.4691)"><g data-paper-data="{&quot;isPaintingLayer&quot;:true}" fill-rule="nonzero" stroke-linejoin="miter" stroke-miterlimit="10" stroke-dasharray="" stroke-dashoffset="0" style="mix-blend-mode: normal"><g stroke="#000000" stroke-width="2" stroke-linecap="butt"><path d="M269.82671,227.4745c-5.61341,0.12974 -10.26224,-4.01724 -10.38347,-9.26253c-0.12123,-5.24529 4.33104,-9.60263 9.94444,-9.73238c5.61339,-0.12975 10.26223,4.01726 10.38347,9.26253c0.12125,5.24531 -4.33104,9.60263 -9.94444,9.73238z" fill="url(#color-1)"/><path d="M262.14874,212.64796l-0.94741,-40.98905l12.6633,-0.29269l0.94741,40.98905z" fill="url(#color-2)"/><path d="M269.36943,214.56496c-4.64715,0.10742 -8.44631,-1.1856 -8.48567,-2.88801c-0.03936,-1.70244 3.69601,-3.16957 8.34317,-3.277c4.64717,-0.10742 8.44631,1.18559 8.48567,2.88801c0.03936,1.70244 -3.69602,3.16959 -8.34317,3.277z" fill="url(#color-3)"/></g><path d="M223.18158,272.5309v-48.66667h17.33334v48.66667z" fill="url(#color-4)" stroke="#000000" stroke-width="2" stroke-linecap="butt"/><path d="M242.51491,272.86424v-48.66667h17.33333v48.66667z" fill="url(#color-5)" stroke="#000000" stroke-width="2" stroke-linecap="butt"/><path d="M222.3207,231.20642v-65.91871h38.10583v65.91871z" fill="url(#color-6)" stroke="#000000" stroke-width="2" stroke-linecap="butt"/><path d="M241.36387,173.1794c-22.79904,0 -41.28132,-17.45276 -41.28132,-38.98183c0,-21.52907 18.48228,-38.98183 41.28132,-38.98183c22.79904,0 41.28132,17.45276 41.28132,38.98183c0,21.52907 -18.48228,38.98183 -41.28132,38.98183z" fill="url(#color-7)" stroke="#000000" stroke-width="2" stroke-linecap="butt"/><path d="M229.24335,162.00615c-4.35419,0 -7.88396,-4.22835 -7.88396,-9.44427c0,-5.21593 3.52976,-9.44427 7.88396,-9.44427c4.35419,0 7.88396,4.22835 7.88396,9.44427c0,5.21593 -3.52976,9.44427 -7.88396,9.44427z" fill="#000000" stroke="#000000" stroke-width="2" stroke-linecap="butt"/><path d="M250.09661,160.5215c-4.3542,0 -7.88397,-3.85525 -7.88397,-8.61094c0,-4.75569 3.52977,-8.61093 7.88397,-8.61093c4.35419,0 7.88396,3.85524 7.88396,8.61093c0,4.75569 -3.52976,8.61094 -7.88396,8.61094z" fill="#000000" stroke="#000000" stroke-width="2" stroke-linecap="butt"/><path d="M228.92366,148.47824c0,-1.38071 1.11929,-2.5 2.5,-2.5c1.38071,0 2.5,1.11929 2.5,2.5c0,1.38071 -1.11929,2.5 -2.5,2.5c-1.38071,0 -2.5,-1.11929 -2.5,-2.5z" fill="#ffffff" stroke="none" stroke-width="0.5" stroke-linecap="butt"/><path d="M249.57557,148.81158c0,-1.38071 1.11929,-2.5 2.5,-2.5c1.38071,0 2.5,1.11929 2.5,2.5c0,1.38071 -1.11929,2.5 -2.5,2.5c-1.38071,0 -2.5,-1.11929 -2.5,-2.5z" fill="#ffffff" stroke="none" stroke-width="0.5" stroke-linecap="butt"/><path d="M232.00501,123.53796l-8.32196,0.219" fill="none" stroke="#000000" stroke-width="2" stroke-linecap="round"/><path d="M246.85826,121.54763l6.56997,-0.219" fill="none" stroke="#000000" stroke-width="2" stroke-linecap="round"/><path d="M241.15462,106.92079c-22.01287,0 -43.79981,9.30156 -43.79981,-2.30471c0,-11.60627 20.47294,-27.14698 42.48581,-27.14698c22.01287,0 41.60982,14.22672 41.60982,25.83299c0,11.60627 -18.28295,3.6187 -40.29582,3.6187z" fill="url(#color-8)" stroke="#000000" stroke-width="2" stroke-linecap="butt"/><path d="M241.37361,101.55899c-4.95894,0 -8.97896,-3.67684 -8.97896,-8.21246c0,-4.53561 4.02002,-8.21246 8.97896,-8.21246c4.95894,0 8.97896,3.67684 8.97896,8.21246c0,4.53561 -4.02002,8.21246 -8.97896,8.21246z" fill="#ffffff" stroke="#000000" stroke-width="2" stroke-linecap="butt"/><path d="M240.72144,149.62497c-17.8401,0 -32.30236,-11.7404 -32.30236,-26.22299c0,-14.48252 14.46226,-26.22299 32.30236,-26.22299c17.8401,0 32.30236,11.7404 32.30236,26.22299c0,14.48252 -14.46226,26.22299 -32.30236,26.22299z" fill="url(#color-9)" stroke="#000000" stroke-width="2" stroke-linecap="butt"/><text transform="matrix(0.22735 0 0 0.22735 235.67964 89.50416)" font-size="40"  fill="#00ffff" fill-rule="nonzero" stroke="none" stroke-width="1" stroke-linecap="butt" stroke-linejoin="miter" stroke-miterlimit="10" stroke-dasharray="" stroke-dashoffset="0" font-family="Helvetica" font-weight="normal" text-anchor="start" style="mix-blend-mode: normal" >CP</text><text transform="matrix(0.60554 0 0 0.60554 227.13868 186.87113)" font-size="40"  fill="#006f6f" fill-rule="nonzero" stroke="none" stroke-width="1" stroke-linecap="butt" stroke-linejoin="miter" stroke-miterlimit="10" stroke-dasharray="" stroke-dashoffset="0" font-family="Helvetica" font-weight="normal" text-anchor="start" style="mix-blend-mode: normal" >CP</text><path d="M230.84824,281.5309c-7.54789,0 -13.66667,-3.5071 -13.66667,-7.83333c0,-4.32623 6.11878,-7.83333 13.66667,-7.83333c7.54789,0 13.66667,3.5071 13.66667,7.83333c0,4.32623 -6.11878,7.83333 -13.66667,7.83333z" fill="url(#color-10)" stroke="#000000" stroke-width="2" stroke-linecap="butt"/><path d="M254.51492,282.5309c-7.54789,0 -13.66666,-3.5071 -13.66666,-7.83333c0,-4.32623 6.11877,-7.83333 13.66666,-7.83333c7.54789,0 13.66666,3.5071 13.66666,7.83333c0,4.32623 -6.11877,7.83333 -13.66666,7.83333z" fill="url(#color-11)" stroke="#000000" stroke-width="2" stroke-linecap="butt"/><path d="M240.71926,169.50017c-6.73216,0 -12.18959,-0.93275 -12.18959,-2.0835c0,-1.15068 5.45747,-2.0835 12.18959,-2.0835c6.73216,0 12.18959,0.93275 12.18959,2.0835c0,1.15068 -5.45747,2.0835 -12.18959,2.0835z" fill="#bd0000" stroke="#000000" stroke-width="2" stroke-linecap="butt"/><g stroke="#000000" stroke-width="2" stroke-linecap="butt"><path d="M202.93592,179.97511c0,0 1.99226,11.33919 4.54867,11.3422c2.6394,0.0031 13.71338,-17.32389 13.71338,-17.32389l-0.11134,14.81537c0,0 -15.79667,17.60213 -18.42347,17.09624c-4.16796,-0.80271 -12.50523,-16.78121 -12.50523,-16.78121z" fill="url(#color-12)"/><path d="M183.05753,171.62864c2.30389,-3.39591 9.30559,-5.11469 14.06434,-5.18229c1.75248,-0.02489 5.00307,-2.02356 6.17166,-1.23076c1.60581,1.08943 -1.46421,4.22472 -1.50938,6.2982c-0.07696,3.53282 -1.01711,7.85387 -3.00355,10.78186c-3.15234,4.64651 -9.22752,6.02533 -13.56933,3.07972c-4.3418,-2.94562 -5.30606,-9.10024 -2.15373,-13.74673z" fill="url(#color-13)"/><path d="M193.44142,182.48618c2.60971,-3.84667 5.86766,-6.19002 7.27685,-5.23399c1.40918,0.95603 0.43596,4.8494 -2.17375,8.6961c-2.60971,3.84667 -5.86766,6.19002 -7.27685,5.23399c-1.40918,-0.95603 -0.43596,-4.8494 2.17375,-8.6961z" fill="url(#color-14)"/></g></g></g></svg>