<svg version="1.1" xmlns="http://www.w3.org/2000/svg" xmlns:xlink="http://www.w3.org/1999/xlink" width="86.60135" height="26.64661" viewBox="0,0,86.60135,26.64661"><defs><linearGradient x1="120.0045" y1="30.64331" x2="120.0045" y2="56.40664" gradientUnits="userSpaceOnUse" id="color-1"><stop offset="0" stop-color="#000000"/><stop offset="1" stop-color="#00ff14"/></linearGradient><linearGradient x1="111.54008" y1="34.26368" x2="120.16162" y2="45.21871" gradientUnits="userSpaceOnUse" id="color-2"><stop offset="0" stop-color="#ffffff"/><stop offset="1" stop-color="#ffffff" stop-opacity="0"/></linearGradient><linearGradient x1="120.42825" y1="48.92037" x2="126.82981" y2="32.01707" gradientUnits="userSpaceOnUse" id="color-3"><stop offset="0" stop-color="#ffffff" stop-opacity="0"/><stop offset="1" stop-color="#ffffff"/></linearGradient><linearGradient x1="59.32587" y1="31.30998" x2="59.32587" y2="57.07331" gradientUnits="userSpaceOnUse" id="color-4"><stop offset="0" stop-color="#000000"/><stop offset="1" stop-color="#ff0000"/></linearGradient><linearGradient x1="50.86145" y1="34.93036" x2="59.48299" y2="45.88538" gradientUnits="userSpaceOnUse" id="color-5"><stop offset="0" stop-color="#ffffff"/><stop offset="1" stop-color="#ffffff" stop-opacity="0"/></linearGradient><linearGradient x1="59.74961" y1="49.58704" x2="66.15118" y2="32.68374" gradientUnits="userSpaceOnUse" id="color-6"><stop offset="0" stop-color="#ffffff" stop-opacity="0"/><stop offset="1" stop-color="#ffffff"/></linearGradient><linearGradient x1="88.87095" y1="31.47665" x2="88.87095" y2="57.23997" gradientUnits="userSpaceOnUse" id="color-7"><stop offset="0" stop-color="#000000"/><stop offset="1" stop-color="#faff00"/></linearGradient><linearGradient x1="89.2947" y1="49.75371" x2="95.69627" y2="32.8504" gradientUnits="userSpaceOnUse" id="color-8"><stop offset="0" stop-color="#ffffff" stop-opacity="0"/><stop offset="1" stop-color="#ffffff"/></linearGradient><linearGradient x1="80.40654" y1="35.09703" x2="89.02808" y2="46.05204" gradientUnits="userSpaceOnUse" id="color-9"><stop offset="0" stop-color="#ffffff"/><stop offset="1" stop-color="#ffffff" stop-opacity="0"/></linearGradient></defs><g transform="translate(-46.27643,-30.59336)"><g data-paper-data="{&quot;isPaintingLayer&quot;:true}" fill-rule="nonzero" stroke-linejoin="miter" stroke-miterlimit="10" stroke-dasharray="" stroke-dashoffset="0" style="mix-blend-mode: normal"><g><g><path d="M132.87778,43.52497c0,7.11435 -5.76357,12.88167 -12.87328,12.88167c-7.10972,0 -12.87328,-5.76732 -12.87328,-12.88167c0,-7.11435 5.76358,-12.88167 12.87328,-12.88167c7.10972,0 12.87328,5.76732 12.87328,12.88167z" fill="url(#color-1)" stroke="none" stroke-width="0" stroke-linecap="butt"/><g fill="none" stroke="#ffffff" stroke-width="5" stroke-linecap="round"><path d="M119.92578,51.57067v-16.42059"/><path d="M128.16258,43.79249l-16.47361,-0.86424"/></g><path d="M124.87748,32.66962c0.31391,0.39887 0.16465,0.76253 0.24592,1.10801c0.1058,0.44974 0.38399,0.8702 0.35019,1.3133c-0.06203,0.81334 -0.14664,1.69952 -1.00042,3.17842c-1.03366,1.79048 -3.47322,2.79158 -5.45085,4.33528c-2.24604,1.75322 -3.03981,2.4859 -4.61665,3.34902c-0.59181,0.32394 -1.68239,1.60593 -2.4378,1.6037c-1.8779,-0.00555 -2.64224,-0.72478 -3.60453,-1.94752c-2.38077,-3.02514 -2.00786,-7.29914 3.17673,-11.34615c5.18459,-4.047 11.00333,-4.87315 13.38411,-1.848z" data-paper-data="{&quot;index&quot;:null}" fill="url(#color-2)" stroke="none" stroke-width="0" stroke-linecap="butt"/><path d="M115.59973,37.12103c1.76774,-4.66772 6.79562,-6.95284 11.23008,-5.10396c4.43446,1.84888 6.59626,7.13162 4.82852,11.79934c-0.81727,2.15797 -1.91098,4.96539 -3.74108,5.93179c-2.12843,1.12394 -4.90408,-0.56961 -7.28841,-1.56372c-2.26974,-0.94633 -5.7082,-2.05264 -6.56498,-4.25526c-0.81713,-2.10071 0.67294,-4.52959 1.53588,-6.80818z" data-paper-data="{&quot;index&quot;:null}" fill="url(#color-3)" stroke="none" stroke-width="0" stroke-linecap="butt"/></g><g><path d="M72.19915,44.19165c0,7.11435 -5.76356,12.88166 -12.87329,12.88166c-7.10972,0 -12.87329,-5.76731 -12.87329,-12.88166c0,-7.11434 5.76357,-12.88167 12.87329,-12.88167c7.10972,0 12.87329,5.76732 12.87329,12.88167z" fill="url(#color-4)" stroke="none" stroke-width="0" stroke-linecap="butt"/><g fill="none" stroke="#ffffff" stroke-width="5" stroke-linecap="round"><path d="M65.85715,37.29166l-11.79494,14.41667"/><path d="M53.03847,37.60705l13.84243,13.7859"/></g><path d="M64.19885,33.3363c0.3139,0.39887 0.16466,0.76253 0.24593,1.10801c0.1058,0.44974 0.38399,0.8702 0.35019,1.3133c-0.06204,0.81333 -0.14664,1.69951 -1.00042,3.17842c-1.03366,1.79048 -3.47322,2.79158 -5.45084,4.33528c-2.24605,1.75323 -3.03981,2.48589 -4.61666,3.34902c-0.59181,0.32394 -1.68241,1.60593 -2.43781,1.6037c-1.8779,-0.00555 -2.64222,-0.72477 -3.60453,-1.94751c-2.38077,-3.02514 -2.00786,-7.29914 3.17673,-11.34615c5.18459,-4.04701 11.00334,-4.87314 13.3841,-1.848z" data-paper-data="{&quot;index&quot;:null}" fill="url(#color-5)" stroke="none" stroke-width="0" stroke-linecap="butt"/><path d="M54.92109,37.7877c1.76774,-4.66772 6.79562,-6.95284 11.23008,-5.10396c4.43446,1.84888 6.59626,7.13163 4.82852,11.79934c-0.81727,2.15797 -1.91099,4.96539 -3.74109,5.93179c-2.12843,1.12394 -4.90408,-0.56961 -7.2884,-1.56372c-2.26974,-0.94633 -5.70822,-2.05265 -6.56498,-4.25527c-0.81713,-2.10071 0.67294,-4.52958 1.53587,-6.80817z" data-paper-data="{&quot;index&quot;:null}" fill="url(#color-6)" stroke="none" stroke-width="0" stroke-linecap="butt"/></g><g><path d="M101.74424,44.35831c0,7.11435 -5.76357,12.88166 -12.87329,12.88166c-7.10972,0 -12.87329,-5.76731 -12.87329,-12.88166c0,-7.11434 5.76357,-12.88167 12.87329,-12.88167c7.10972,0 12.87329,5.76732 12.87329,12.88167z" fill="url(#color-7)" stroke="none" stroke-width="0" stroke-linecap="butt"/><path d="M97.02904,44.62583l-16.4736,-0.86424" fill="none" stroke="#ffffff" stroke-width="5" stroke-linecap="round"/><path d="M84.46618,37.95437c1.76774,-4.66772 6.79563,-6.95284 11.23009,-5.10396c4.43446,1.84888 6.59626,7.13163 4.82852,11.79934c-0.81727,2.15797 -1.91098,4.96539 -3.7411,5.93179c-2.12843,1.12394 -4.90408,-0.56961 -7.2884,-1.56372c-2.26974,-0.94633 -5.70821,-2.05264 -6.56498,-4.25527c-0.81713,-2.10071 0.67293,-4.52958 1.53587,-6.80817z" data-paper-data="{&quot;index&quot;:null}" fill="url(#color-8)" stroke="none" stroke-width="0" stroke-linecap="butt"/><path d="M93.74394,33.50297c0.31391,0.39887 0.16465,0.76253 0.24592,1.10801c0.10579,0.44973 0.38399,0.8702 0.3502,1.3133c-0.06203,0.81334 -0.14664,1.69951 -1.00043,3.17842c-1.03366,1.79048 -3.47322,2.79158 -5.45084,4.33528c-2.24604,1.75323 -3.03981,2.48589 -4.61665,3.34902c-0.5918,0.32394 -1.68241,1.60593 -2.4378,1.6037c-1.8779,-0.00555 -2.64222,-0.72477 -3.60453,-1.94752c-2.38077,-3.02515 -2.00786,-7.29915 3.17673,-11.34615c5.18459,-4.047 11.00332,-4.87314 13.38409,-1.848z" data-paper-data="{&quot;index&quot;:null}" fill="url(#color-9)" stroke="none" stroke-width="0" stroke-linecap="butt"/></g></g></g></g></svg>