<svg version="1.1" xmlns="http://www.w3.org/2000/svg" xmlns:xlink="http://www.w3.org/1999/xlink" width="401.7549" height="406.99171" viewBox="0,0,401.7549,406.99171"><defs><linearGradient x1="251.28905" y1="26.10825" x2="230.16595" y2="379.09754" gradientUnits="userSpaceOnUse" id="color-1"><stop offset="0" stop-color="#000000"/><stop offset="1" stop-color="#000000" stop-opacity="0"/></linearGradient><linearGradient x1="183.32869" y1="-14.07474" x2="296.34208" y2="373.04931" gradientUnits="userSpaceOnUse" id="color-2"><stop offset="0" stop-color="#846632"/><stop offset="1" stop-color="#c5ab00"/></linearGradient><linearGradient x1="175.19303" y1="-23.26811" x2="291.05725" y2="373.62136" gradientUnits="userSpaceOnUse" id="color-3"><stop offset="0" stop-color="#a27d3d"/><stop offset="1" stop-color="#ffdc00"/></linearGradient><linearGradient x1="252.7343" y1="-0.54293" x2="248.22649" y2="55.89807" gradientUnits="userSpaceOnUse" id="color-4"><stop offset="0" stop-color="#000000"/><stop offset="1" stop-color="#000000" stop-opacity="0"/></linearGradient></defs><g transform="translate(-39.99628,23.49585)"><g data-paper-data="{&quot;isPaintingLayer&quot;:true}" fill-rule="nonzero" stroke-linejoin="miter" stroke-miterlimit="10" stroke-dasharray="" stroke-dashoffset="0" style="mix-blend-mode: normal"><path d="M422.98942,211.84626c-3.49714,58.44094 1.10855,134.64587 -46.46174,163.25829c-30.25364,18.19687 -103.96369,1.47382 -142.25712,-0.81768c-32.39609,-1.93859 -132.47464,4.71823 -157.78223,-11.5016c-51.64405,-33.09909 -14.05782,-108.12049 -10.21816,-172.2853c3.22771,-53.93847 1.30704,-123.46139 43.04908,-152.82592c32.2474,-22.68528 102.73745,-12.18377 145.66978,-9.61467c46.16734,2.76268 124.80514,-2.52112 154.80626,27.30838c34.01101,33.81647 16.23395,105.6799 13.19413,156.47852z" fill="url(#color-1)" stroke="none" stroke-width="0" stroke-linecap="butt"/><path d="M431.90284,198.92732c-3.49714,58.44094 1.10855,134.64588 -46.46173,163.2583c-30.25364,18.19687 -103.96369,1.47382 -142.25711,-0.81769c-32.39609,-1.93859 -132.47463,4.71824 -157.78223,-11.50161c-51.64405,-33.09909 -14.05782,-108.12049 -10.21816,-172.2853c3.22771,-53.93847 1.30704,-123.46139 43.04907,-152.82592c32.2474,-22.68528 102.73745,-12.18377 145.66979,-9.61468c46.16734,2.76268 124.80513,-2.52112 154.80626,27.30839c34.011,33.81646 16.23396,105.67991 13.19413,156.47853z" fill="#af9017" stroke="#000000" stroke-width="5" stroke-linecap="butt"/><path d="M426.42851,192.75609c-3.49714,58.44094 1.10855,134.64588 -46.46173,163.2583c-30.25365,18.19687 -103.96369,1.47382 -142.25712,-0.81768c-32.39609,-1.93859 -132.47463,4.71824 -157.78223,-11.50161c-51.64405,-33.09909 -14.05782,-108.12049 -10.21816,-172.2853c3.22771,-53.93847 1.30704,-123.46139 43.04908,-152.82592c32.2474,-22.68528 102.73744,-12.18377 145.66978,-9.61467c46.16734,2.76268 124.80514,-2.52112 154.80626,27.30839c34.01101,33.81647 16.23396,105.6799 13.19413,156.47852z" fill="#bf9e19" stroke="#444444" stroke-width="4.5" stroke-linecap="butt"/><path d="M423.85124,184.67111c-3.49714,58.44094 1.10855,134.64588 -46.46173,163.25829c-30.25364,18.19687 -103.96369,1.47382 -142.25711,-0.81769c-32.39609,-1.93859 -132.47464,4.71823 -157.78223,-11.50161c-51.64405,-33.09909 -14.05782,-108.12048 -10.21815,-172.28529c3.22771,-53.93847 1.30703,-123.46138 43.04907,-152.82592c32.2474,-22.68528 102.73745,-12.18377 145.66979,-9.61468c46.16734,2.76268 124.80513,-2.52112 154.80626,27.30839c34.01101,33.81647 16.23396,105.6799 13.19413,156.47852z" fill="url(#color-2)" stroke="#444444" stroke-width="4.5" stroke-linecap="butt"/><path d="M402.10475,220.24018c-17.3666,35.12025 -35.36637,68.42741 -53.113,79.10161c-15.02507,9.03723 26.22574,48.40171 3.90894,56.2001c-22.61907,7.90401 -108.83375,-15.82627 -128.10926,-16.97973c-32.39609,-1.93859 -132.47463,4.71824 -157.78223,-11.50161c-51.64405,-33.09909 -14.05782,-108.12048 -10.21815,-172.28529c3.22771,-53.93847 1.30703,-123.46138 43.04906,-152.82592c32.2474,-22.68528 102.73745,-12.18376 145.6698,-9.61467c46.16734,2.76268 124.80514,-2.52112 154.80625,27.30838c18.92731,18.81904 32.89154,50.29109 26.55211,79.80202c-2.56765,11.95277 -6.02577,62.8762 -8.71467,70.32127c-0.98228,2.71974 -16.04883,50.47385 -16.04883,50.47385z" fill="url(#color-3)" stroke="none" stroke-width="0" stroke-linecap="butt"/><path d="M421.83437,127.47938l-359.37951,-37.54943" fill="none" stroke="#00bfff" stroke-width="7.5" stroke-linecap="round"/><path d="M415.58812,169.97143l-357.23948,-37.32584" fill="none" stroke="#00bfff" stroke-width="7.5" stroke-linecap="round"/><path d="M403.04486,207.88846l-346.77188,-36.23214" fill="none" stroke="#00bfff" stroke-width="7.5" stroke-linecap="round"/><path d="M432.41092,41.94124c-0.74631,9.34437 7.40793,22.17016 -38.62329,23.53791c-29.27484,0.86986 -103.45879,-7.02918 -141.69895,-10.08333c-32.35102,-2.5838 -131.6983,-8.49084 -157.65919,-12.92214c-52.9772,-9.04276 -19.06101,-18.72353 -18.2416,-28.98313c0.68882,-8.62446 -4.47882,-20.16607 35.71336,-22.06484c31.05007,-1.46687 101.73626,5.18614 144.60888,8.61027c46.10311,3.68215 124.16382,8.31495 155.43575,15.30757c35.45167,7.92725 21.11375,18.47527 20.46503,26.59769z" fill="url(#color-4)" stroke="none" stroke-width="0" stroke-linecap="butt"/><path d="M435.1211,33.12904c-0.74631,9.34437 7.40793,22.17016 -38.62329,23.53791c-29.27484,0.86986 -103.4588,-7.02918 -141.69896,-10.08334c-32.35102,-2.5838 -131.6983,-8.49084 -157.65918,-12.92214c-52.9772,-9.04276 -19.06101,-18.72353 -18.2416,-28.98313c0.68882,-8.62446 -4.47882,-20.16607 35.71337,-22.06484c31.05007,-1.46687 101.73625,5.18614 144.60887,8.61027c46.10311,3.68215 124.16382,8.31494 155.43575,15.30757c35.45167,7.92725 21.11375,18.47527 20.46503,26.59769z" fill="#2e2402" stroke="none" stroke-width="0" stroke-linecap="butt"/><path d="M436.59561,27.2277c-0.74631,9.34437 7.40792,22.17016 -38.62329,23.5379c-29.27484,0.86986 -103.45879,-7.02918 -141.69895,-10.08333c-32.35102,-2.5838 -131.6983,-8.49084 -157.65918,-12.92214c-52.9772,-9.04276 -19.06101,-18.72353 -18.2416,-28.98313c0.68882,-8.62446 -4.47882,-20.16607 35.71337,-22.06484c31.05007,-1.46687 101.73626,5.18613 144.60888,8.61027c46.10311,3.68215 124.16382,8.31495 155.43575,15.30758c35.45167,7.92725 21.11375,18.47527 20.46503,26.59769z" fill="#4f3e04" stroke="none" stroke-width="0" stroke-linecap="butt"/><path d="M383.7237,249.39332l-332.51285,-34.7423" fill="none" stroke="#00bfff" stroke-width="7.5" stroke-linecap="round"/><path d="M365.47722,282.83856l-319.64915,-33.39825" fill="none" stroke="#00bfff" stroke-width="7.5" stroke-linecap="round"/><path d="M98.75003,33.97573l-40.18127,284.58077" fill="none" stroke="#ff0000" stroke-width="7.5" stroke-linecap="round"/></g></g></svg>