<svg version="1.1" xmlns="http://www.w3.org/2000/svg" xmlns:xlink="http://www.w3.org/1999/xlink" width="299.19303" height="228.25249" viewBox="0,0,299.19303,228.25249"><g transform="translate(-80.90216,-64.45566)"><g data-paper-data="{&quot;isPaintingLayer&quot;:true}" fill-rule="nonzero" stroke-linejoin="miter" stroke-miterlimit="10" stroke-dasharray="" stroke-dashoffset="0" style="mix-blend-mode: normal"><path d="M291.00673,262.61091l84.08846,-1.8481" fill="none" stroke="#ffffff" stroke-width="10" stroke-linecap="round"/><g><path d="M85.90216,251.69239l96.10109,-0.92405" fill="none" stroke="#ffffff" stroke-width="10" stroke-linecap="round"/><path d="M128.97486,208.26209c0,-4.2802 3.4698,-7.75 7.75,-7.75c4.2802,0 7.75,3.4698 7.75,7.75c0,4.28021 -3.4698,7.75 -7.75,7.75c-4.2802,0 -7.75,-3.46979 -7.75,-7.75z" fill="#ffffff" stroke="none" stroke-width="0.5" stroke-linecap="butt"/><path d="M128.97486,284.95815c0,-4.28021 3.4698,-7.75 7.75,-7.75c4.2802,0 7.75,3.46979 7.75,7.75c0,4.28021 -3.4698,7.75 -7.75,7.75c-4.2802,0 -7.75,-3.46979 -7.75,-7.75z" fill="#ffffff" stroke="none" stroke-width="0.5" stroke-linecap="butt"/></g><g fill="none" stroke="#ffffff" stroke-width="10" stroke-linecap="round"><path d="M316.54354,179.74542l1.8481,-97.02515"/><path d="M364.59409,126.15058l-109.96183,-1.8481"/></g><g fill="none" stroke="#ffffff" stroke-width="10" stroke-linecap="round"><path d="M188.59561,208.77128l89.63275,-0.57828"/><path d="M187.67157,231.11994l88.09267,-1.1294"/></g><g fill="none" stroke="#ffffff" stroke-width="10" stroke-linecap="round"><path d="M211.37278,181.26559l-88.7087,-111.80993"/><path d="M129.13243,165.55675l79.46822,-88.7087"/></g></g></g></svg>