<svg version="1.1" xmlns="http://www.w3.org/2000/svg" xmlns:xlink="http://www.w3.org/1999/xlink" width="334.96938" height="376.04346" viewBox="0,0,334.96938,376.04346"><g transform="translate(-33.81308,-0.56999)"><g data-paper-data="{&quot;isPaintingLayer&quot;:true}" fill-rule="nonzero" stroke="none" stroke-width="0.5" stroke-linecap="butt" stroke-linejoin="miter" stroke-miterlimit="10" stroke-dasharray="" stroke-dashoffset="0" style="mix-blend-mode: normal"><path d="M111.71898,264.7162c-2.11312,-2.50607 -4.46049,-4.96404 -5.75069,-7.97753c-0.75275,-1.75818 -0.42851,-3.80492 -0.7901,-5.68299c-0.38551,-2.00235 -1.60273,-3.79149 -1.93448,-5.80345c-1.64039,-9.9485 2.3791,-20.49717 8.47615,-27.91874c0.77536,-0.9438 -0.02128,-2.45308 0.16128,-3.66082c0.39279,-2.5985 1.19741,-5.20355 1.93448,-7.73793c0.12033,-5.99758 2.32744,-11.38512 4.72682,-16.79763c0.68268,-1.53999 0.98358,-3.26526 1.8826,-4.68982c3.13418,-4.96625 7.98501,-7.36488 12.38069,-10.83307c1.14737,-0.90527 2.04832,-2.12629 3.2877,-2.90084c0.86461,-0.54033 2.02746,-0.44268 2.90172,-0.96724c0.78197,-0.46918 1.13666,-1.49281 1.93448,-1.93449c2.13866,-1.18397 4.70689,-1.41704 6.8832,-2.53028c6.33577,-3.24093 11.74992,-11.62974 19.23232,-11.97833c1.24086,-0.94995 2.26518,-2.28582 3.72258,-2.84984c1.37317,-0.53142 2.86684,-0.69824 4.35422,-0.75815c0.39307,-0.5205 1.02964,-0.9149 1.59561,-1.22822c1.78399,-0.98763 4.09144,-0.82676 5.80345,-1.93448c1.31204,-0.84893 2.19863,-2.50383 3.72258,-2.84984c1.07998,-0.24521 2.18255,-0.45616 3.29448,-0.61069c0.2604,-0.17855 0.45764,-0.30215 0.57449,-0.35655c1.73386,-0.8072 3.80493,-0.42852 5.68299,-0.7901c4.64842,-0.89497 8.55538,-3.00125 13.54138,-2.90172c3.44656,-1.14885 6.70172,-0.46092 10.1474,-1.03499c7.97261,-1.32829 15.92391,-1.61078 23.84164,0.06775c1.89243,0.40118 3.89473,-0.31473 5.80345,0c4.66449,0.76912 9.70062,2.65622 14.30324,4.71607c3.74557,-0.48603 8.98783,0.27388 12.28516,6.86856c0.18459,0.36918 0.35089,0.73225 0.49991,1.08924c4.57009,3.32849 8.20006,7.90884 9.95582,13.45277c2.211,6.98138 -0.85549,14.94268 0.37494,21.93209c0.35354,2.00824 1.60273,3.7915 1.93448,5.80345c0.65742,3.98702 0.16141,8.59751 0.16141,12.64193c0,10.31107 -1.52127,21.20467 -6.10726,30.64017c-0.24095,0.49575 -2.92223,4.29746 -3.37434,5.61562c-0.9456,2.75697 -1.84103,5.54496 -3.0768,8.18464c-0.88509,1.89061 -1.18356,4.15562 -2.5819,5.7056c-0.41155,0.45618 -0.84719,0.88872 -1.30204,1.30135c-0.00048,0.26128 -0.00076,0.52249 -0.00076,0.78364c-0.10843,3.29422 -0.51734,6.64622 -1.6087,9.7563c-0.65562,1.86831 -1.11603,3.85879 -2.19265,5.52051c-4.55548,7.03118 -14.08622,11.19577 -22.17223,12.53764c-1.27226,0.21113 -2.5884,-0.15289 -3.86897,0c-2.48808,0.29705 -4.76458,1.65164 -7.24568,2.00223c-1.12042,0.15832 -2.2738,-0.2278 -3.39397,-0.06775c-2.60254,0.37183 -5.17733,1.0743 -7.80573,1.12865c-1.26792,0.02622 -2.56055,-0.42442 -3.80117,-0.16141c-0.9974,0.21145 -1.89265,0.82133 -2.90172,0.96724c-4.44663,0.64295 -7.3605,0.02752 -11.59081,1.45443c-1.6552,0.55174 -6.63904,2.24727 -7.75402,2.41454c-3.54742,0.53217 -8.14556,-0.62288 -11.6069,0c-1.49719,0.26943 -2.90309,1.10944 -4.4243,1.11944c-4.21627,0.02774 -9.00556,-1.40067 -13.12163,-2.08668c-3.01207,-0.50201 -6.63207,-0.31624 -9.5748,-1.14022c-1.87437,-0.52483 -3.50642,-1.70642 -5.33389,-2.37653c-6.45643,-2.3675 -13.41241,-3.91582 -19.68387,-6.87074c-2.15296,1.75716 -4.90255,2.81097 -7.89826,2.81097c-6.90356,0 -12.5,-5.59644 -12.5,-12.5c0,-1.35361 0.21515,-2.65697 0.61313,-3.87775c-1.26662,-1.27174 -2.35829,-2.40025 -2.61611,-2.70601zM216.56982,219.38831c-1.84559,1.33526 -3.74084,2.60165 -5.66465,3.82546c0.80308,-0.37333 1.61006,-0.73954 2.40228,-1.13265c1.08991,-0.89368 2.17727,-1.79153 3.26237,-2.69281z" fill="#00fff9"/><path d="M225.93131,134.99308c0.05085,-0.07887 0.10269,-0.15793 0.15553,-0.2372c6.93375,-10.40063 17.33438,-3.46688 17.33438,-3.46688l3.89283,2.66834c2.05841,4.82439 7.21479,9.33205 6.17524,14.47317c-0.98569,4.87473 -7.06704,7.06376 -11.11449,9.95387c-2.44078,1.74284 -7.02093,1.55838 -9.75629,1.6087c-4.18758,0.07704 -8.38561,0 -12.57414,0c-19.81173,0 -39.13541,0.96724 -59.00171,0.96724c0,0 -12.5,0 -12.5,-12.5c0,-12.5 12.5,-12.5 12.5,-12.5c7.09311,0 14.1862,0 21.2793,0c2.33148,0 5.39777,0.54542 7.67013,0.16141c1.00531,-0.16989 1.89265,-0.82134 2.90172,-0.96724c8.68757,-1.25616 18.37197,-0.16141 27.15055,-0.16141c1.96231,0 3.92463,0 5.88694,0z" fill="#06fffb"/><path d="M227.351,150.07463c-1.36807,0.40045 -10.24804,3.08998 -11.66313,3.13855c-1.98861,0.06827 -3.89956,-0.82128 -5.87596,-1.05169c-2.05652,-0.23976 -4.14019,0.09366 -6.21064,0.09366c-5.10539,0 -10.68369,0.40481 -16.1543,0.20082c-0.85448,2.21563 -1.96199,4.25149 -3.68713,5.84849c-2.73772,2.53437 -7.45238,0.36705 -11.17809,0.55998c-3.37901,0.17497 -6.79456,-0.42398 -10.07109,-1.26817c-1.35285,-0.34856 -2.47138,-1.38019 -3.83185,-1.69769c-0.89002,-0.20771 -1.82959,0.27496 -2.73685,0.16471c-5.50079,-0.66844 -6.56271,-1.24136 -11.28975,-2.82515c-5.72992,-2.82187 -11.79389,-5.64489 -16.38079,-10.20575c-1.43296,-1.42483 -2.45962,-3.20839 -3.75471,-4.75961c-0.93328,-1.11786 -2.19801,-1.98263 -2.92682,-3.24337c-2.16896,-3.75198 -5.01428,-10.92288 -5.77204,-15.51851c-0.85656,-5.19476 -0.16141,-11.24541 -0.16141,-16.5109c0,-1.5155 -0.06899,-8.75898 0.22554,-10.10178c0.59574,-2.71606 2.4767,-5.10349 2.76984,-7.86862c0.52511,-4.95345 1.86874,-9.29009 3.44952,-14.03245c1.17334,-3.39966 0.79304,-6.99266 1.82937,-10.30911c0.54354,-1.73944 1.88562,-3.12598 2.66919,-4.77132c3.68844,-7.74487 5.91564,-16.2337 12.06252,-22.69177c0.87995,-0.9245 2.244,-1.2777 3.15037,-2.17632c2.41339,-2.39275 4.00407,-6.18868 6.52205,-8.46334c1.87967,-1.69803 4.05589,-3.05646 6.24867,-4.32459c0.8826,-0.51042 1.98892,-0.51303 2.90172,-0.96724c1.18248,-0.58839 2.12059,-1.62167 3.3367,-2.13697c6.28839,-2.6646 13.32442,-4.26849 19.97273,-5.81112c3.79775,0.10603 3.78567,-1.13388 8.23018,-1.86673c3.60969,-0.5952 8.00039,-0.16141 11.67469,-0.16141c3.79179,0 7.94643,-0.31824 11.67469,0.16141c4.36398,0.56143 7.84408,1.99028 12.00696,3.51676c3.39228,1.24391 7.29308,1.52198 10.63966,2.90172c2.37055,0.97734 4.67248,2.14924 6.84101,3.51752c1.15709,0.73009 1.76456,2.23491 3.01922,2.78055c5.14027,2.23546 9.07462,4.85056 10.94469,10.46075c3.39226,2.03671 3.91957,5.63612 5.43202,8.81767c1.06611,2.24265 3.04352,3.97801 4.07145,6.23842c0.5503,1.2101 0.45403,2.64268 0.96724,3.86897c0.642,1.53402 1.95874,2.75288 2.46671,4.33635c0.46199,1.44013 0.10586,3.03345 0.37494,4.52174c0.1814,1.0033 0.83715,1.8905 0.96724,2.90173c0.64718,5.03054 -0.0925,9.32551 -0.89949,14.16922c-0.39999,2.40077 0.09366,5.74944 0.09366,8.14513c0,6.77069 0,13.54137 0,20.31206c0,8.70248 -0.31003,16.79209 -2.09589,25.21607c-0.40118,1.89243 0.43185,3.91779 0,5.80345c-1.54502,6.74631 -3.70756,10.95189 -10.45677,14.38242c-2.10581,1.07035 -7.55431,0.9515 -10.58699,0.9515c-6.11329,0 -12.01682,-0.53987 -18.02769,-0.81294c-0.26193,0.18708 -0.52252,0.3758 -0.78119,0.5669zM225.117,118.96194c-0.95512,0.79829 -1.8727,1.6869 -2.77806,2.60882c0.9357,-0.68617 1.82872,-1.41312 2.54728,-2.31461c0.07832,-0.09825 0.15524,-0.19632 0.23078,-0.29421z" fill="#04d2cf"/><path d="M161.22916,74.82882c0.26541,0.39942 0.49921,0.87553 0.68795,1.44174c1.58114,4.74341 -3.16228,6.32455 -3.16228,6.32455l-5.69272,1.89758c-0.5284,0.18998 -1.09804,0.29349 -1.69186,0.29349c-2.76143,0 -5,-2.23857 -5,-5c0,-1.38071 0.55964,-2.63072 1.46446,-3.53554l1.31685,-1.31685c1.88922,-5.26592 6.94423,-9.11814 11.35844,-12.55758c-0.60037,-0.66145 -1.198,-1.32565 -1.69311,-2.06309c-3.06382,-4.56344 -6.46328,-8.89365 -11.92951,-10.60422c0,0 -4.74341,-1.58114 -3.16227,-6.32455c1.58114,-4.74341 6.32456,-3.16228 6.32456,-3.16228c4.51533,1.56497 9.20848,4.53321 12.59405,7.97857c2.04102,2.07707 3.33674,4.89976 4.94032,7.38753c0.50771,-0.54297 1.01615,-1.07524 1.52999,-1.58408c2.38353,-2.36035 2.41212,-4.03035 4.11848,-6.83105c0.34453,-0.56549 1.2546,-0.63612 1.56834,-1.21925c0.16726,-0.31088 -0.25374,-0.65887 -0.38061,-0.98831c0,0 0,-5 5,-5c5,0 5,5 5,5c-0.12687,1.60504 0.16365,3.29986 -0.3806,4.81514c-0.39541,1.10085 -1.70493,1.64307 -2.30062,2.64972c-0.43715,0.73873 -0.33394,1.70772 -0.72892,2.46983c-1.61006,3.10663 -4.39217,6.37078 -7.33553,9.26684c0.12365,0.12722 0.23509,0.26398 0.32652,0.41636c0.52456,0.87426 0.45202,2.02192 0.96724,2.90172c1.12523,1.92144 3.0827,3.29116 4.10729,5.26811c0.01791,0.03454 0.03556,0.06932 0.05298,0.1043c0.09528,-0.00386 0.19248,-0.00583 0.29165,-0.00583c5,0 5,5 5,5v3.86897c0,2.76143 -2.23857,5 -5,5c-1.38071,0 -2.63071,-0.55964 -3.53553,-1.46446l-1.93449,-1.93448c-1.65607,-1.77419 -2.81113,-3.98526 -3.85776,-6.17498c-0.82049,-1.71661 -2.63808,-2.78112 -3.63065,-4.40431c-0.33999,-0.55602 -0.4262,-1.22962 -0.58117,-1.87165c-1.61279,1.25093 -3.23757,2.5272 -4.65148,3.95805z" fill="#000000"/><path d="M192.40965,53.1412c1.0804,-1.0804 2.16079,-1.50049 3.14029,-1.56295c0.78068,-1.05373 1.49267,-2.16208 2.20117,-3.27297c-0.8414,-0.7045 -1.71747,-1.36942 -2.64495,-1.97691c0,0 -4.16025,-2.7735 -1.38675,-6.93375c2.7735,-4.16025 6.93375,-1.38675 6.93375,-1.38675c1.22286,0.82608 2.34924,1.73294 3.42039,2.68727c3.1854,-2.33745 6.88997,-3.43205 10.22738,-5.48495c1.49597,-0.92021 1.91491,-2.97758 3.16025,-4.21607c1.34267,-1.33529 3.00083,-2.31043 4.50124,-3.46565c0,0 4,-3 7,1c3,4 -1,7 -1,7c-1.0789,0.77927 -2.2991,1.39324 -3.23669,2.3378c-1.67252,1.68494 -2.62874,4.10066 -4.57769,5.45635c-2.58972,1.80141 -6.11183,2.7052 -8.90302,4.45509c0.76487,0.73132 1.5523,1.44594 2.37873,2.1306c1.18691,0.98333 2.73135,1.57161 3.70531,2.76623c0.74463,0.91334 0.66476,2.28348 1.24696,3.30803c0.11515,0.20263 0.25825,0.41041 0.42345,0.62161c3.73259,-1.05989 5.59888,2.6727 5.59888,2.6727l1.34582,2.95787l0.94004,3.76019c0.11506,0.42094 0.17648,0.86402 0.17648,1.32146c0,2.76143 -2.23857,5 -5,5c-1.76307,0 -3.313,-0.91252 -4.20327,-2.29103l-1.68137,-2.52205c-1.94784,-1.88971 -4.69503,-4.00788 -6.10655,-6.26344c-0.4577,-0.73139 -0.15934,-1.81318 -0.68752,-2.49542c-0.48367,-0.62474 -1.47087,-0.62234 -2.09814,-1.10274c-0.8544,-0.65435 -1.53599,-1.50779 -2.30007,-2.26566c-0.00895,-0.00888 -0.01791,-0.01777 -0.02687,-0.02666c-1.34755,2.03415 -2.73661,4.03083 -4.50896,5.83011l-8.03831,-0.96724c0,0 -3.53554,-3.53553 0,-7.07107z" fill="#000000"/><path d="M251.71175,101.80365c-2.22015,2.22015 -4.4403,1.652 -5.78499,0.92193c-6.37875,1.06807 -12.76961,-0.59312 -19.19618,0.47798c-1.2638,0.21063 -2.42175,1.06185 -3.70263,1.0318c-1.54854,-0.03633 -2.98857,-0.81588 -4.48287,-1.22382c0,0 -4.74341,-1.58114 -3.16227,-6.32456c1.58114,-4.74341 6.32456,-3.16228 6.32456,-3.16228c1.90421,1.02474 4.79124,-0.23378 7.12403,-0.25659c5.27701,-0.05159 11.81014,1.1114 16.79644,-0.71065l6.08392,2.17512c0,0 3.53554,3.53554 0,7.07107z" fill="#000000"/><path d="M241.78981,109.60194c-3.1957,5.23887 -8.32495,5.91491 -13.14567,1.26214c-1.41537,-1.36607 -0.6292,-3.88352 -0.94379,-5.82528c0,0 0,-4.53143 4.31388,-4.96653c0.786,-1.73122 2.52994,-2.93519 4.55508,-2.93519c0.59382,0 1.16346,0.10352 1.69186,0.29349l2.68162,0.89387c2.04313,0.62835 3.52824,2.53068 3.52824,4.77988c0,1.51174 -0.6709,2.86678 -1.7312,3.78362c-0.17918,0.96119 -0.44533,1.88663 -0.95003,2.71401z" fill="#f894ff"/><path d="M253.60549,9.54735c2.86088,-1.52429 5.43418,-2.0219 8.02223,-2.03793c0.66582,-0.06609 1.34114,-0.09992 2.02434,-0.09992c2.16314,0 4.24707,0.33918 6.2015,0.96724c8.31351,1.13634 15.97174,2.20617 23.32702,6.57063c3.62754,2.1525 7.78364,2.54704 11.34656,5.0848c3.94323,2.80863 6.4176,6.75145 9.68237,10.20213c3.44086,3.6368 10.13726,8.61257 12.62164,13.41572c6.51383,12.5934 12.06999,35.70889 8.26277,49.41482c-5.59582,20.14491 -27.69328,40.46855 -49.19532,40.92914c-11.88651,0.25462 -20.56077,0.98593 -28.69283,-8.54296c-6.70672,-7.85872 -5.92844,-26.59399 -6.06578,-35.85303c-0.08846,-5.9631 -1.68051,-11.58024 -0.65084,-17.70772c1.26409,-7.52251 0.52466,-14.87824 0.52466,-22.78668c0,-1.36928 1.20156,-4.45486 0.69498,-5.08935c-2.34259,-1.71362 -4.30323,-3.91837 -5.73036,-6.4627c-1.89943,-2.47624 -3.21313,-5.23831 -2.5351,-8.58857c-0.02738,-0.43097 -0.04128,-0.86559 -0.04128,-1.30346c0,-5.97626 2.58887,-11.34785 6.7063,-15.05449c0.94393,-1.24768 2.07694,-2.30099 3.49712,-3.05766z" fill="#00c2ff"/><path d="M147.95729,40.93544c-2.42871,1.29403 -6.32901,2.11689 -8.91458,2.26402c-0.11473,0.00653 -0.5177,-0.06308 -0.95205,-0.12696c-0.05992,0.00052 -0.11991,0.00079 -0.17996,0.00079c-0.37473,0 -0.74708,-0.01018 -1.1168,-0.03028c-1.66673,2.79774 -0.94346,8.05165 -1.91891,11.33216c-0.60163,2.02333 -2.68913,7.37964 -2.8298,10.32115c-0.21727,4.54302 0.26655,8.01574 -0.14417,12.12301c-0.28945,2.8945 -1.12836,5.6145 -1.79031,8.46581c-1.20239,5.17924 -0.03747,16.28342 0,20.05934c0.07378,7.43588 -3.67602,18.19194 -11.09224,21.28203c-11.05481,4.60617 -25.74223,3.54095 -36.6931,-1.93448c-5.70656,-2.85328 -9.17501,-8.10515 -14.26654,-11.62691c-9.87457,-6.83016 -20.147,-12.86679 -26.84328,-23.36447c-10.09853,-15.83134 -9.06897,-33.483 -1.69801,-49.81791c3.73152,-8.26951 11.14244,-14.29947 18.56811,-19.13192c18.10803,-11.78429 32.07113,-18.48247 53.67452,-19.14476c3.98094,-0.12204 7.59543,-1.33392 11.64193,-0.96724c9.64017,0.87355 27.12297,0.38651 31.83766,11.70177c0.71703,1.18278 1.31638,2.44484 1.78181,3.76993c0.80632,1.80087 1.44115,3.71315 1.09787,5.40932c0.02738,0.43097 0.04128,0.86559 0.04128,1.30346c0,5.97626 -2.58887,11.34786 -6.7063,15.05449c-0.94393,1.24768 -2.07694,2.30098 -3.49712,3.05766z" fill="#00c2ff"/><path d="M275.0942,233.61779c6.76264,1.0608 21.55103,1.49385 25.99348,5.33051c3.53629,3.05408 7.49075,5.88598 10.49626,9.52902c3.50655,4.25036 3.65395,10.67134 4.96951,15.74247c1.00536,3.87537 3.09917,7.66284 3.78739,11.75839c1.202,7.15299 1.11804,14.61498 2.25089,21.72458c1.79483,11.26411 3.48357,12.83134 1.77895,24.58615c-0.62739,4.32637 -0.53318,9.04027 -1.81755,13.23443c-1.20851,3.94644 -3.31025,7.5019 -5.77733,10.78039c-1.17781,1.56518 -1.74721,3.96105 -2.93777,5.63256c-7.36135,10.33508 -17.73575,21.65204 -31.6436,21.09246c-11.43009,-0.45988 -22.65429,-8.23066 -29.71905,-16.79401c-7.05546,-8.55208 -6.72145,-18.2057 -9.2679,-28.00142c-1.20081,-4.61928 -3.5335,-9.29664 -4.32521,-14.00805c-1.00999,-6.01035 -0.96884,-12.00356 -1.28365,-18.08152c-0.28447,-5.4922 -1.69009,-9.70304 0.0386,-15.34813c0.50112,-1.63642 1.01454,-2.81839 1.59237,-3.82516c1.26781,-2.95596 3.21895,-5.54935 5.65471,-7.58142c0.25995,-0.37977 -0.19155,-2.47985 -0.60335,-4.16088c-3.59602,3.46753 -7.68568,6.96632 -10.90016,9.61491c-1.76569,1.45484 -4.10598,2.71928 -6.70266,3.7631c1.23803,1.08384 2.44415,2.31963 3.65753,3.7246c2.49178,2.88522 3.25054,7.73562 3.26986,11.32009c0.06552,12.16049 0.29136,15.98468 -1.12277,25.73632c-0.87884,6.06032 -3.74062,11.29317 -6.17493,16.85325c-7.30978,16.6959 -18.04754,23.61776 -33.72033,32.02601c-4.24299,2.2763 -8.1457,5.10542 -12.80432,6.53202c-10.00662,3.06432 -27.01993,2.2582 -36.52162,-2.49265c-7.20897,-3.60449 -11.79498,-9.09122 -16.2789,-15.57377c-2.10318,-3.04064 -5.08045,-5.04257 -6.79071,-8.46309c-1.84632,-3.69264 -3.56671,-15.40282 -3.62466,-19.63265c-0.03115,-2.27432 1.08658,-4.87207 1.09341,-6.97049c0.01824,-5.60847 0.71516,-10.8328 0.96724,-16.40807c0.18988,-4.19952 2.15045,-11.52081 5.12704,-17.68179c0.93667,-2.52513 2.36253,-4.81267 4.16249,-6.74748c1.36523,-1.65395 2.82689,-2.90617 4.34673,-3.53943c1.18278,-0.71702 2.44483,-1.31637 3.76993,-1.7818c1.80087,-0.80632 3.71315,-1.44115 5.40933,-1.09787c0.43096,-0.02738 0.86559,-0.04128 1.30346,-0.04128c4.2438,0 8.18269,1.30545 11.43701,3.53668c2.42951,-1.03156 5.10202,-1.60219 7.90781,-1.60219c0.33537,0 0.66885,0.00815 1.00022,0.02427c-2.80294,-1.52825 -5.52811,-3.22239 -8.28219,-4.78454c-5.50622,-3.12321 -10.35352,-6.12737 -14.53438,-11.06446c-9.86915,-11.65426 -8.52615,-30.207 -2.67814,-43.39943c1.51244,-3.41189 1.1606,-7.43952 2.90677,-10.93187c2.10673,-4.21347 5.17737,-7.45151 7.7357,-11.32031c1.99973,-3.02406 2.278,-7.36043 4.6098,-10.18686c3.85431,-4.67189 7.90525,-9.44984 12.33364,-13.63847c4.50893,-4.2648 10.19559,-5.94786 15.12016,-9.20551c5.67799,-3.75605 9.89288,-5.99797 17.00469,-6.46553c5.04832,-0.3319 10.17098,-1.99311 15.24504,-1.99311c11.73335,0 24.43766,2.43831 32.29124,11.9578c2.21233,2.68162 3.56344,6.98023 4.67733,10.3219l1.52971,3.05942c1.89042,2.18892 2.30624,6.16818 2.71075,8.95763c0.68215,4.704 2.91796,9.16515 3.70808,13.86708c0.268,1.59485 0.0894,3.71495 0.511,5.33678c2.54676,9.79691 1.69045,19.47862 -0.59902,29.11063c5.31206,-1.86216 11.20734,-2.20404 17.21528,-2.20404zM175.54368,280.76794c-0.29244,-0.02489 -0.58571,-0.05498 -0.88022,-0.09135c0.13835,0.10971 0.27523,0.22118 0.41062,0.33439c0.15501,-0.0821 0.3115,-0.16306 0.46961,-0.24304z" fill="#ecff00"/><path d="M196.34691,173.71293c0,-1.38071 1.11929,-2.5 2.5,-2.5c1.38071,0 2.5,1.11929 2.5,2.5c0,1.38071 -1.11929,2.5 -2.5,2.5c-1.38071,0 -2.5,-1.11929 -2.5,-2.5z" fill="#000000"/><path d="M181.83829,184.35259c0,-1.38071 1.11929,-2.5 2.5,-2.5c1.38071,0 2.5,1.11929 2.5,2.5c0,1.38071 -1.11929,2.5 -2.5,2.5c-1.38071,0 -2.5,-1.11929 -2.5,-2.5z" fill="#000000"/><path d="M209.88829,188.22155c0,-1.38071 1.11929,-2.5 2.5,-2.5c1.38071,0 2.5,1.11929 2.5,2.5c0,1.38071 -1.11929,2.5 -2.5,2.5c-1.38071,0 -2.5,-1.11929 -2.5,-2.5z" fill="#000000"/><path d="M197.31415,206.59914c0,-1.38071 1.11929,-2.5 2.5,-2.5c1.38071,0 2.5,1.11929 2.5,2.5c0,1.38071 -1.11929,2.5 -2.5,2.5c-1.38071,0 -2.5,-1.11929 -2.5,-2.5z" fill="#000000"/><path d="M166.36243,220.14052c0,-1.38071 1.11929,-2.5 2.5,-2.5c1.38071,0 2.5,1.11929 2.5,2.5c0,1.38071 -1.11929,2.5 -2.5,2.5c-1.38071,0 -2.5,-1.11929 -2.5,-2.5z" fill="#000000"/><path d="M207.9538,240.45258c0,-1.38071 1.11929,-2.5 2.5,-2.5c1.38071,0 2.5,1.11929 2.5,2.5c0,1.38071 -1.11929,2.5 -2.5,2.5c-1.38071,0 -2.5,-1.11929 -2.5,-2.5z" fill="#000000"/><path d="M174.10036,252.05948c0,-1.38071 1.11929,-2.5 2.5,-2.5c1.38071,0 2.5,1.11929 2.5,2.5c0,1.38071 -1.11929,2.5 -2.5,2.5c-1.38071,0 -2.5,-1.11929 -2.5,-2.5z" fill="#000000"/><path d="M231.16759,207.56638c0,-1.38071 1.11929,-2.5 2.5,-2.5c1.38071,0 2.5,1.11929 2.5,2.5c0,1.38071 -1.11929,2.5 -2.5,2.5c-1.38071,0 -2.5,-1.11929 -2.5,-2.5z" fill="#000000"/><path d="M123.85134,190.46527c2.31616,0.1438 12.80074,1.44568 12.80074,13.23214c0,13.25 -13.25,13.25 -13.25,13.25l-7.92586,-0.17109c-2.58175,-0.92501 -5.52969,-1.15874 -7.74525,-2.77503c-2.54874,-1.85935 -4.62271,-4.34836 -6.42452,-6.9633c-4.27223,-1.59537 -8.91212,-3.95617 -12.42024,-6.63517c-2.15783,-1.64785 -3.67573,-4.1577 -5.80345,-5.80345c-3.43202,-2.6546 -6.14993,-4.97003 -8.61712,-8.61712c-0.67418,-0.99659 -2.07538,-1.24049 -2.98978,-2.02253c-1.35451,-1.15846 -2.62983,-2.42012 -3.78091,-3.78091c-1.99345,-2.35662 -3.55392,-5.04888 -5.40592,-7.51821c-4.19333,-6.61892 -8.93422,-12.29427 -11.42597,-19.90592c-0.5376,-1.64222 -1.15759,-3.27096 -1.4761,-4.96933c-0.09355,-0.49886 -0.26438,-1.07281 -0.31355,-1.61083c-0.32233,-0.38287 -0.57976,-0.87123 -0.78039,-1.28358c-1.62966,-3.34954 -4.46787,-10.76902 -2.77503,-14.8918c1.90116,-4.63013 3.57934,-10.52577 8.12057,-12.63047c4.79924,-2.22427 10.73003,0.01627 15.79324,1.54728c2.99693,0.90621 5.41548,5.14323 7.14981,7.70698c0.91654,1.35486 2.79281,1.75269 3.95859,2.90015c0.82848,0.81546 1.12212,2.0702 1.93448,2.90172c1.44268,1.4767 3.35331,2.43265 4.83621,3.86897c2.02495,2.02495 4.88033,3.84399 6.77069,5.80345c1.95551,2.02698 3.61747,5.14238 5.3163,7.51978c3.20447,4.48444 4.67037,5.6211 7.22835,11.28745c1.36068,3.01413 2.53327,7.47604 3.86897,10.63965c0.51836,1.22776 0.97666,2.48836 1.29589,3.78226c0.02833,0.11481 -0.41195,0.03897 -0.33169,0.1258c3.32092,3.59315 6.13258,7.56579 9.70494,11.13815c0,0 1.48964,1.48964 2.68699,3.87495z" fill="#00eff3"/><path d="M260.07449,178.54914c0,-7.33301 4.05834,-10.60768 7.68297,-12.07003c1.08274,-7.49504 9.11494,-10.17243 9.11494,-10.17243c3.76657,-1.19004 8.60535,-2.90192 11.91847,-4.94959c1.32019,-0.81595 2.01455,-2.38438 3.21602,-3.36679c1.26168,-1.03163 2.46324,-2.16404 3.86739,-2.99135c0.13494,-0.07951 -0.01051,0.61934 0.03252,0.46875c0.77738,-2.72021 2.781,-4.66121 3.68035,-7.30351c1.45056,-4.26172 3.35746,-7.87425 5.36051,-11.86402c2.07731,-4.13769 3.59064,-7.99171 6.435,-11.78418c2.95448,-6.01469 6.34076,-9.8712 11.57594,-13.9205c4.08649,-3.16082 6.43874,-6.79621 11.28412,-9.39382c1.8891,-1.01275 4.0926,-1.37481 5.94157,-2.45911c5.33998,-3.13154 8.43471,-6.93039 16.75409,-3.97449c4.25329,1.51121 7.08683,5.82228 9.53705,9.61314c5.2487,8.12055 0.59726,19.0784 -4.55762,25.82866c-1.30999,1.71541 -3.57543,2.57742 -4.77911,4.36903c-0.56858,0.8463 -0.38077,2.06772 -0.96724,2.90172c-1.37221,1.95139 -3.20245,3.53663 -4.80368,5.30495c-3.85374,3.68011 -6.4269,8.08661 -9.5651,12.32643c-1.82048,2.45953 -4.64002,4.87904 -6.878,7.0184c-1.17131,1.1197 -2.22834,2.38562 -3.55624,3.31428c-1.56222,1.09253 -4.05784,0.92594 -5.14894,2.48917c-3.45973,4.9568 -6.30402,11.28653 -11.29417,14.92117c-1.99078,1.45001 -4.30271,2.40998 -6.54582,3.42693c-0.30552,0.13851 -0.72488,-0.18553 -1.00634,-0.00304c-0.90365,0.58589 -1.4013,1.72738 -2.37216,2.19351c-3.08847,1.48283 -6.76957,1.79741 -9.55014,3.79888c-5.16753,2.28055 -8.77012,7.17322 -14.41779,8.95934c-2.15013,0.68 -4.49424,0.37902 -6.74136,0.56853h-0.96724c0,0 -13.25,0 -13.25,-13.25z" fill="#00eff3"/><path d="M150.27724,129.31853c-0.01459,0.5597 -0.0415,1.0581 -0.08873,1.34463c0.4057,-0.23056 1.05044,-0.06878 1.73061,0.17229c-0.33233,-0.41221 -0.63665,-0.8646 -1.06678,-1.15579c-0.188,-0.12727 -0.37988,-0.24731 -0.5751,-0.36114zM189.11892,90.89458c4.68861,0.19879 9.17075,0.9528 13.94804,1.45504c2.17822,2.17822 5.01736,3.85378 6.53465,6.53465c0.67666,1.19558 0.68054,6.86798 0.64702,9.05626c-0.02177,1.4214 0.12205,2.86074 -0.10976,4.26327c-0.33251,2.01183 -1.64557,3.7849 -1.93448,5.80345c-1.03329,7.21918 -3.09543,14.8057 -9.03425,19.90208c-0.9793,0.84038 -2.45759,0.82849 -3.59246,1.44277c-1.60396,0.86819 -2.33036,2.88962 -3.86897,3.86897c-1.09284,0.69561 -2.47148,0.80477 -3.63595,1.37239c-1.44754,0.7056 -2.6433,1.93098 -4.17305,2.43409c-1.27022,0.41775 -2.68666,0.02191 -4.00334,0.25496c-1.00396,0.1777 -1.89349,0.81569 -2.90172,0.96724c-3.17962,0.47794 -6.83708,0.10976 -10.06672,0.10976c-6.41158,0 -12.54008,0.14148 -18.77189,-1.077c-1.57779,-0.3085 -3.32959,0.12836 -4.79298,-0.53727c-1.82763,-0.83131 -3.21768,-2.41417 -4.69208,-3.77705c-6.59135,-6.09284 -5.39132,-14.34791 -5.39132,-22.45351c0,-2.2475 -0.10113,-7.73436 0.64702,-9.05626c3.3586,-5.93426 8.94442,-9.40297 15.94199,-6.53465c2.77547,1.13767 6.50324,4.79166 7.18228,8.56363c1.57029,0.91526 3.72105,2.77291 4.47225,3.47292c1.26312,-0.09045 2.69044,-0.31182 3.8155,0.35615c0.66463,-1.04193 1.97819,-1.62921 2.97101,-2.40796c1.00397,-0.7875 2.28407,-1.39744 2.87338,-2.52918c1.11004,-2.1318 2.17917,-4.42558 3.99017,-6.00578c0.34372,-0.29992 -0.30223,-0.87856 -0.30223,-1.33473c0,-2.99226 -0.88603,-5.55063 -0.96724,-8.70517c0,0 0,-8.5 8.5,-8.5c3.44777,0 5.49706,1.39849 6.71511,3.06095z" fill="#00eff3"/><path d="M208.72628,129.42679c-4.95153,4.95153 -9.90306,1.74466 -11.49404,0.46105c-0.98516,-0.32133 -1.96366,-0.65655 -2.85405,-1.1754c-3.62089,-2.11 -6.37754,-5.82033 -9.62536,-8.39505c-1.82191,-1.44433 -3.99166,-2.41196 -5.80345,-3.86897c-1.13259,-0.91081 -1.6809,-2.50131 -2.94877,-3.21184c-1.21276,-0.67965 -2.70379,-0.66158 -4.02267,-1.10121c0,0 -8.06381,-2.68794 -5.37587,-10.75174c2.68794,-8.06381 10.75174,-5.37587 10.75174,-5.37587c1.69475,0.56492 6.53173,2.12853 7.58423,2.76776c1.87737,1.14021 3.06791,3.16156 4.78916,4.52609c1.82191,1.44433 3.99166,2.41196 5.80345,3.86897c2.29025,1.84178 4.49905,3.94029 6.77069,5.80345c0.65967,0.54105 1.2881,1.31008 2.13524,1.41132l4.28971,3.02064c0,0 6.01041,6.01041 0,12.02082z" fill="#00fbff"/><path d="M179.70904,148.77162c-6.01041,6.01041 -12.02082,0 -12.02082,0l-0.96724,-0.96724c-1.14815,-1.26519 -2.1627,-2.66771 -3.03287,-4.15508l-1.3912,0.07915c0.10719,-1.50415 -0.69274,-2.94296 -0.85748,-4.4419c-0.01338,-0.1217 0.05325,-0.23351 0.14474,-0.34075c-0.05945,-0.27491 -0.12239,-0.62048 -0.17003,-1.01795c-0.29431,-0.07733 -0.61324,-0.13393 -0.74948,-0.37033c-0.83496,-1.44888 -1.23013,-3.11054 -1.80052,-4.6825c-0.42567,-1.17312 -0.78578,-2.36119 -1.12478,-3.55434c-0.36054,1.16401 -0.62974,2.28155 -0.79875,3.19519c-0.29244,1.58085 0.12836,3.32959 -0.53727,4.79298c-0.42805,0.94106 -1.08289,1.74234 -1.78936,2.51181c-0.787,2.46807 -2.80803,5.63711 -7.9981,5.63711c-8.5,0 -8.5,-8.5 -8.5,-8.5l2.28011,-6.39052c-0.17527,-0.21603 -0.27265,-0.51971 -0.23587,-0.77448c0.10411,-0.72104 1.85685,-5.93036 2.26092,-7.12983c1.58336,-4.70016 3.47011,-8.41991 6.88961,-12.02764c0,0 6.01041,-6.01041 12.02082,0c0.49295,0.49295 0.90504,0.9859 1.24622,1.47553c7.10228,-1.51433 9.51236,5.71591 9.51236,5.71591c1.03334,3.11924 1.32355,8.07564 3.03569,10.79336c0.72091,1.14433 2.06602,1.89014 2.55693,3.15039c0.39053,1.00255 0.3608,2.10326 0.39088,3.19465c0.14199,0.34327 0.36256,0.65035 0.66827,0.81844l0.96724,0.96724c0,0 6.01041,6.01041 0,12.02082z" fill="#00fbff"/><path d="" fill="#9966ff"/><path d="" fill="#9966ff"/></g></g></svg>