<svg version="1.1" xmlns="http://www.w3.org/2000/svg" xmlns:xlink="http://www.w3.org/1999/xlink" width="42.66324" height="44.5514" viewBox="0,0,42.66324,44.5514"><defs><linearGradient x1="347.09829" y1="-354.02882" x2="380.55422" y2="-384.37401" gradientUnits="userSpaceOnUse" id="color-1"><stop offset="0" stop-color="#ee2a7b"/><stop offset="1" stop-color="#811150"/></linearGradient></defs><g transform="translate(-79.68766,-22.72431)"><g data-paper-data="{&quot;isPaintingLayer&quot;:true}" fill="url(#color-1)" fill-rule="nonzero" stroke="#ffffff" stroke-width="1.15823" stroke-linecap="butt" stroke-linejoin="miter" stroke-miterlimit="10" stroke-dasharray="" stroke-dashoffset="0" style="mix-blend-mode: normal"><path d="M98.08696,33.75409c0,0 15.40929,16.97447 22.4044,24.68668c1.83236,2.02019 1.67973,5.14337 -0.3401,6.97539c-2.02019,1.83236 -5.14273,1.67982 -6.97508,-0.34037c-5.86462,-6.46582 -22.38677,-24.66649 -22.38677,-24.66649c0,0 -0.12832,2.34441 -0.65228,13.09813c-0.1329,2.72428 -2.44856,4.82464 -5.17248,4.69154c-2.7246,-0.13383 -4.82504,-2.44886 -4.69188,-5.17285c0.42449,-8.7194 1.22043,-25.02517 1.22043,-25.02517c0.13317,-2.72399 2.44913,-4.8246 5.17248,-4.69154c0,0 14.07098,0.68577 24.82497,1.21003c2.72562,0.13289 4.82598,2.44855 4.69188,5.17285c-0.13254,2.72409 -2.44887,4.82504 -5.17182,4.69093c-8.72148,-0.42396 -12.92376,-0.62913 -12.92376,-0.62913z" data-paper-data="{&quot;index&quot;:null}"/></g></g></svg>