<svg xmlns="http://www.w3.org/2000/svg" xmlns:xlink="http://www.w3.org/1999/xlink" version="1.1" width="24.375" height="30.75" viewBox="0.30000001192092896 0.15000003576278687 24.375 30.75">
  <defs>
    <linearGradient id="grad_1" x1="9.3999" y1="29.3428" x2="13.9829" y2="0.4066" gradientUnits="userSpaceOnUse">
      <stop offset="0" stop-color="#A83C00"/>
      <stop offset="0.5211" stop-color="#D19500"/>
      <stop offset="0.7606" stop-color="#D1AEAE"/>
      <stop offset="1" stop-color="#D19500"/>
    </linearGradient>
    <linearGradient id="grad_2" x1="-109.6582" y1="9.2119" x2="-120.9855" y2="20.5392" gradientUnits="userSpaceOnUse">
      <stop offset="0" stop-color="#FFDA4C"/>
      <stop offset="0.5459" stop-color="#FFFF4C"/>
      <stop offset="0.6083" stop-color="#FFFF71"/>
      <stop offset="0.7039" stop-color="#FFFFA3"/>
      <stop offset="0.794" stop-color="#FFFFCB"/>
      <stop offset="0.8761" stop-color="#FFFFE8"/>
      <stop offset="0.9474" stop-color="#FFFFF9"/>
      <stop offset="1" stop-color="#FFFFFF"/>
    </linearGradient>
  <linearGradient id="grad_1-,0,0,1,0.8,0.65" x1="10.1999" y1="29.9928" x2="14.7829" y2="1.0566" gradientUnits="userSpaceOnUse">
      <stop offset="0" stop-color="#A83C00"/>
      <stop offset="0.5211" stop-color="#D19500"/>
      <stop offset="0.7606" stop-color="#D1AEAE"/>
      <stop offset="1" stop-color="#D19500"/>
    </linearGradient><linearGradient id="grad_2-,0,0,1,0.8,0.65" x1="-108.8582" y1="9.8619" x2="-120.1855" y2="21.1892" gradientUnits="userSpaceOnUse">
      <stop offset="0" stop-color="#FFDA4C"/>
      <stop offset="0.5459" stop-color="#FFFF4C"/>
      <stop offset="0.6083" stop-color="#FFFF71"/>
      <stop offset="0.7039" stop-color="#FFFFA3"/>
      <stop offset="0.794" stop-color="#FFFFCB"/>
      <stop offset="0.8761" stop-color="#FFFFE8"/>
      <stop offset="0.9474" stop-color="#FFFFF9"/>
      <stop offset="1" stop-color="#FFFFFF"/>
    </linearGradient></defs>
  <!-- Exported by Scratch - http://scratch.mit.edu/ -->
  <g id="ID0.8258890747092664">
    <g id="ID0.4755026241764426">
      <path id="ID0.712921445723623" fill="url(#grad_1-,0,0,1,0.8,0.65)" d="M 10.038 29.9 C 5.22 29.9 1.3 23.452 1.3 15.525 C 1.3 7.599 5.22 1.15 10.038 1.15 C 10.088 1.15 15.063 1.151 15.139 1.153 C 19.927 1.335 23.675 7.647 23.675 15.525 C 23.675 23.434 19.911 29.747 15.107 29.897 C 15.041 29.899 10.088 29.9 10.038 29.9 L 10.038 29.9 Z " stroke-width="1"/>
      <path id="ID0.3141426108777523" fill="#A86700" d="M 10.038 1.65 C 10.101 1.65 15.06 1.651 15.123 1.653 C 19.587 1.822 23.175 7.967 23.175 15.525 C 23.175 23.1 19.57 29.257 15.091 29.397 C 15.039 29.399 10.091 29.4 10.038 29.4 C 5.488 29.4 1.8 23.188 1.8 15.525 C 1.8 7.862 5.488 1.65 10.038 1.65 M 10.038 0.65 C 4.858 0.65 0.8 7.184 0.8 15.525 C 0.8 23.866 4.858 30.4 10.038 30.4 C 10.088 30.4 15.044 30.4 15.129 30.396 C 20.198 30.238 24.175 23.706 24.175 15.525 C 24.175 7.377 20.216 0.845 15.161 0.653 C 15.066 0.65 10.089 0.65 10.038 0.65 L 10.038 0.65 Z " stroke-width="1"/>
    </g>
    <path id="ID0.5774983670562506" fill="url(#grad_2-,0,0,1,0.8,0.65)" d="M 10.038 5.788 C 11.633 5.788 13.079 6.879 14.126 8.642 C 15.173 10.404 15.821 12.839 15.821 15.525 C 15.821 18.211 15.173 20.646 14.126 22.408 C 13.079 24.171 11.633 25.262 10.038 25.262 C 8.443 25.262 6.997 24.171 5.95 22.408 C 4.903 20.646 4.255 18.211 4.255 15.525 C 4.255 12.839 4.903 10.404 5.95 8.642 C 6.997 6.879 8.443 5.788 10.038 5.788 Z " stroke-width="1"/>
    <path id="ID0.2550264662131667" fill="#FFD947" d="M 10.265 6.759 C 11.47 6.759 12.562 7.741 13.353 9.328 C 14.144 10.915 14.633 13.107 14.633 15.525 C 14.633 17.943 14.144 20.135 13.353 21.722 C 12.562 23.309 11.47 24.291 10.265 24.291 C 9.06 24.291 7.968 23.309 7.177 21.722 C 6.386 20.135 5.897 17.943 5.897 15.525 C 5.897 13.107 6.386 10.915 7.177 9.328 C 7.968 7.741 9.06 6.759 10.265 6.759 Z " stroke-width="1"/>
    <path id="ID0.1819972861558199" fill="#FFEB53" stroke="#FFC648" stroke-width="0.2" d="M 1.8 15.525 C 1.8 23.188 5.488 29.4 10.038 29.4 C 14.588 29.4 18.278 23.188 18.278 15.525 C 18.278 7.862 14.589 1.65 10.038 1.65 C 5.487 1.65 1.8 7.862 1.8 15.525 Z M 4.255 15.525 C 4.255 10.146 6.845 5.788 10.038 5.788 C 13.233 5.788 15.821 10.146 15.821 15.525 C 15.821 20.903 13.233 25.262 10.038 25.262 C 6.845 25.262 4.255 20.903 4.255 15.525 Z "/>
  </g>
</svg>