<svg xmlns="http://www.w3.org/2000/svg" xmlns:xlink="http://www.w3.org/1999/xlink" version="1.1" width="25.429197311401367" height="26.49620819091797" viewBox="0.6950745582580566 -0.29006052017211914 25.429197311401367 26.49620819091797">
  <!-- Exported by Scratch - http://scratch.mit.edu/ -->
  <path id="ID0.9402324948459864" fill="#FFFFFF" stroke="#666666" stroke-width="1.7400000095367432" stroke-linecap="round" d="M 7.874 2.9575 C 8.2438 1.8735 10.7815 1.2584 11.354 2.3485 C 12.7069 5.1055 11.7673 11.6105 11.963 11.5705 C 12.1622 11.5314 11.8351 4.9054 13.355 2.044 C 13.9536 0.9191 16.7959 0.9165 17.183 2.131 C 18.3392 5.7615 15.6205 11.3269 16.835 13.5715 C 17.4866 14.7695 18.8725 9.7513 20.663 9.0475 C 22.0185 8.5603 24.1743 9.3189 24.5345 10.657 C 25.0269 12.4953 23.38 14.405 22.3595 16.051 C 20.8344 18.5122 19.2606 20.9752 17.1395 22.837 C 15.8101 23.9454 14.0005 24.5787 12.3545 24.664 C 10.1325 24.7788 7.6 24.7432 5.786 23.446 C 4.1034 22.2619 3.2874 19.9582 2.915 17.965 C 2.2468 14.405 1.7814 10.5717 2.741 7.09 C 3.0768 5.8746 5.4728 5.0612 6.4385 5.872 C 7.6669 6.9082 6.9718 9.1858 7.0475 10.8745 C 7.1606 11.7732 6.9361 14.4206 7.004 13.615 C 7.2615 10.5535 6.5377 6.2992 7.874 2.9575 Z "/>
  <path id="ID0.24463977431878448" fill="none" stroke="#EF0101" stroke-width="3" stroke-linecap="round" d="M 2.6 23.4 L 22.7 3.9 "/>
  <path id="ID0.046818872448056936" fill="none" stroke="#EF0101" stroke-width="3" stroke-linecap="round" d="M 2.4 3.4 L 21.9 23.2 "/>
</svg>