<svg version="1.1" xmlns="http://www.w3.org/2000/svg" xmlns:xlink="http://www.w3.org/1999/xlink" width="43.47812" height="52.50863" viewBox="0,0,43.47812,52.50863"><g transform="translate(-220.60595,-153.74567)"><g data-paper-data="{&quot;isPaintingLayer&quot;:true}" fill-rule="nonzero" stroke="none" stroke-linecap="butt" stroke-linejoin="miter" stroke-miterlimit="10" stroke-dasharray="" stroke-dashoffset="0" style="mix-blend-mode: normal"><path d="M231.021,192.88994c0.14435,0.08513 0.32467,0.14668 0.55253,0.172c0.97596,0.10844 1.26939,-0.63581 1.35079,-0.95962c0.94947,-0.23645 1.99443,-0.35692 2.99236,-0.46788l1.21332,0.00023c0,0 1.20965,0.09147 1.20965,-1.15853c0,-1.25 -1.25598,-1.25295 -1.25598,-1.25295l-1.35863,-0.00052c-0.78196,0.08684 -1.72377,0.19429 -2.69048,0.37783c0.10401,-7.08574 -2.33357,-14.38909 -0.73891,-21.51835c0.53124,-2.67969 1.32293,-6.46302 3.17039,-8.59762c2.78118,-3.21345 12.68587,-4.66937 15.91531,-1.79326c1.34764,1.57111 2.95447,2.77781 3.55033,4.88213c0.8745,3.08837 0.77186,6.91276 1.12302,10.11657l0.14641,1.16362c0,0 0.06566,0.52013 0.44514,0.84484c0.11039,2.70515 0.52842,5.66267 0.13333,8.26104c-0.58843,3.86994 -5.30063,9.03375 -9.02312,9.80558c-2.22521,1.71264 -2.11605,4.10065 -4.18023,5.91342c-2.15898,1.89602 -6.73332,2.12081 -9.48656,2.11911c-0.93175,-0.00057 -2.50306,0.31411 -3.38422,0.09251c-0.74134,-0.18643 -0.92082,-4.4837 -1.0997,-5.27181c0.00654,-1.27174 0.53402,-2.09862 1.35028,-2.65233z" data-paper-data="{&quot;noHover&quot;:false,&quot;origItem&quot;:[&quot;Path&quot;,{&quot;applyMatrix&quot;:true,&quot;segments&quot;:[[[230.98853,192.92794],[0,0],[-0.81626,0.55371]],[[229.63702,195.57925],[0.00654,-1.27174],[0.17888,0.78811]],[[230.72998,200.84651],[-0.74134,-0.18643],[0.88116,0.2216]],[[234.10876,200.75136],[-0.93175,-0.00057],[2.75324,0.0017]],[[243.57548,198.62847],[-2.15898,1.89602],[2.06418,-1.81277]],[[247.74141,192.71737],[-2.22521,1.71264],[3.72249,-0.77183]],[[256.73205,182.94398],[-0.58843,3.86994],[0.39509,-2.59837]],[[256.59822,174.71229],[0.11039,2.70515],[-0.37948,-0.32471]],[256.15413,173.87068],[[256.00926,172.71082],[0,0],[-0.35116,-3.20381]],[[254.90221,162.61378],[0.8745,3.08837],[-0.59586,-2.10432]],[[251.36323,157.73786],[1.34764,1.57111],[-3.22944,-2.87611]],[[235.48497,159.5308],[2.78118,-3.21345],[-1.84746,2.1346]],[[232.33181,168.11667],[0.53124,-2.67969],[-1.59466,7.12926]],[[233.06855,189.56382],[0.10401,-7.08574],[0.96671,-0.18354]],[[235.75392,189.18184],[-0.78196,0.08684],[0,0]],[237.10876,189.17993],[[238.35876,190.42993],[0,-1.25],[0,1.25]],[237.10876,191.67993],[[235.89218,191.67802],[0,0],[-0.99793,0.11096]],[[232.89398,192.14205],[0.94947,-0.23645],[-0.0814,0.32381]],[[231.54215,193.10086],[0.97596,0.10844],[-0.22786,-0.02532]],[[230.98852,192.92795],[0.14435,0.08513],[0,0]]],&quot;closed&quot;:true,&quot;fillColor&quot;:[0,0,0,1]}]}" fill="#0072ff" stroke-width="0.5"/><path d="M230.60574,188.08921c-0.03124,0.00135 -0.04903,0.00336 -0.04903,0.00336c-1.64772,0.18568 -4.58019,0.24115 -5.81854,-1.1688c-1.25266,-1.42626 -1.40864,-3.8231 -1.40736,-5.59524c0.00251,-3.47619 -0.00018,-7.03517 -0.00018,-10.51135c0,-1.29377 -0.49117,-3.90017 -0.08365,-5.0989c0.69309,-2.03872 5.95636,-1.80223 7.44818,-1.80034l-0.48363,0.15834c0,0 0.18901,0.06464 0.44155,0.18045c-0.30433,1.13883 -0.54308,2.26683 -0.75066,3.29647c-1.50711,6.82315 0.56876,13.78017 0.70333,20.53599z" data-paper-data="{&quot;noHover&quot;:false,&quot;origItem&quot;:[&quot;Path&quot;,{&quot;applyMatrix&quot;:true,&quot;segments&quot;:[[[230.59101,188.04141],[0,0],[-0.13457,-6.75582]],[[229.88572,167.60033],[-1.50711,6.82315],[0.20758,-1.02964]],[[230.63789,164.30437],[-0.30433,1.13883],[-0.25254,-0.11581]],[230.22489,164.0281],[[230.6802,163.96565],[0,0],[-1.49182,-0.00189]],[[223.26362,165.76543],[0.69309,-2.03872],[-0.40752,1.19873]],[[223.35877,170.85851],[0,-1.29377],[0,3.47618]],[[223.35877,181.28708],[0.00251,-3.47619],[-0.00128,1.77214]],[[224.74789,186.87472],[-1.25266,-1.42626],[1.23835,1.40995]],[[230.54216,188.04473],[-1.64772,0.18568],[0,0]],[[230.59101,188.04143],[-0.03124,0.00135],[0,0]]],&quot;closed&quot;:true,&quot;fillColor&quot;:[0,0,0,1]}]}" fill="#0072ff" stroke-width="0.5"/><path d="M249.86872,194.66197c-0.05462,1.46432 -0.17201,2.95625 -0.24452,4.42202c-0.04558,0.92139 0.38761,2.74762 0.10313,3.568c-0.23256,0.67067 -2.41093,0.67533 -2.78551,0.7312c-1.36224,0.20316 -4.51159,1.06774 -5.78125,0.59159c-0.43687,-0.16384 -0.1407,-0.89375 -0.13179,-1.39722c0.99471,-0.24349 2.00304,-0.64079 2.8324,-1.08083c1.44704,-0.76777 2.74028,-2.18224 3.474,-3.62962c0.59389,-1.17153 0.37954,-2.15358 1.45708,-2.90716c0.35386,-0.068 0.71615,-0.16626 1.07647,-0.298z" data-paper-data="{&quot;noHover&quot;:false,&quot;origItem&quot;:[&quot;Path&quot;,{&quot;applyMatrix&quot;:true,&quot;segments&quot;:[[[249.83437,194.69828],[0,0],[-0.36032,0.13174]],[[248.76184,194.99964],[0.35386,-0.068],[-1.07754,0.75358]],[[247.37452,197.83626],[0.59389,-1.17153],[-0.73372,1.44738]],[[243.83175,201.53716],[1.44704,-0.76777],[-0.82936,0.44004]],[[241.06916,202.54808],[0.99471,-0.24349],[-0.00891,0.50347]],[[241.19449,203.93805],[-0.43687,-0.16384],[1.26966,0.47615]],[[246.92378,203.33656],[-1.36224,0.20316],[0.37458,-0.05587]],[[249.6874,202.6219],[-0.23256,0.67067],[0.28448,-0.82038]],[[249.57433,199.08758],[-0.04558,0.92139],[0.07251,-1.46577]],[[249.83436,194.69829],[-0.05462,1.46432],[0,0]]],&quot;closed&quot;:true,&quot;fillColor&quot;:[0,0,0,1],&quot;strokeWidth&quot;:0.5}]}" fill="#ff0000" stroke-width="0.25"/><path d="M258.47112,185.56686c-0.02798,0.3101 -0.15387,0.54389 -0.15387,0.54389l-0.79772,1.45354c-2.29464,2.29601 -5.15085,2.64761 -6.77618,5.69413c0.38738,3.08958 2.13355,6.88435 0.47541,9.94953c-0.71673,1.32492 -2.05594,1.66367 -3.30922,2.18714c-1.66361,-0.05166 -3.32583,-0.09759 -4.99288,-0.12696c-0.75057,-0.01322 -1.54836,-0.14288 -2.32158,-0.17559c-0.24666,-0.38503 -0.41967,-0.8596 -0.59384,-1.48241c-0.04377,-0.15651 0.01965,-2.75013 -0.42607,-2.86537c-0.81308,-0.21022 -2.47746,0.15569 -3.32551,0.21628c-1.34465,0.19286 -3.22199,0.7641 -4.55923,0.36378c-3.52408,-1.05499 -3.75415,-6.16277 -2.14574,-8.84963c0.33406,-0.55806 1.52223,-1.85898 2.05993,-2.30736c0.33879,-0.28252 1.34199,-0.35954 1.10345,-0.73061c-0.39737,-0.61814 -3.49307,-0.39378 -4.07704,-0.48293c-2.27936,-0.348 -4.03011,-1.21409 -5.40421,-3.02396c-1.46829,-3.52765 -1.31316,-7.94479 -1.55757,-11.73162c-0.07501,-1.16224 -0.51179,-3.89177 0.17554,-4.92368c1.36162,-2.04424 4.0032,-1.15503 5.97655,-1.30324c0.23891,-0.01794 2.59902,-0.24174 2.69956,-0.55515c0.11816,-0.36838 0.27386,-0.72592 0.45905,-1.0699l-0.44302,-0.25843l0.68805,-1.17952c0.21382,-0.38224 0.62257,-0.64064 1.09167,-0.64064c0.63664,0 1.16211,0.47594 1.24004,1.09142l0.1967,1.37688c0.63917,4.16384 2.2953,7.70583 3.44314,11.66892c1.10555,2.64047 3.43647,6.21119 6.40043,7.12204c4.10706,1.26214 9.4843,-1.16372 13.54291,-1.7467c0,0 1.23744,-0.17678 1.41421,1.06066c0.04285,0.29997 0.0026,0.53761 -0.08298,0.72551z" fill="#0058c3" stroke-width="0.5"/><path d="M231.39255,161.89697c0.55156,-1.49196 1.25864,-2.89389 2.19715,-3.99649c3.77954,-4.44033 15.18341,-5.69588 19.5503,-1.92135c1.6345,1.90832 3.47327,3.41943 4.17531,5.98122c0.89368,3.26109 0.79993,7.10685 1.17867,10.47439l0.00689,0.05509c0.57218,0.34051 0.57218,1.08294 0.57218,1.08294c0,3.13535 0.62841,6.67611 0.12672,9.77166c-0.53946,3.32859 -3.5188,7.61863 -6.84739,9.98701c0.00638,0.06139 0.00638,0.09848 0.00638,0.09848c-0.00298,2.33858 -0.28684,4.6604 -0.28571,7c0.00022,0.45668 0.02978,2.95165 -0.11436,3.2366c-1.30919,2.58823 -6.38758,2.58304 -8.84993,2.58482c-0.59964,0.00044 -2.88832,0.04033 -3.22859,-0.18669c-1.09631,-0.73142 -1.152,-1.97186 -1.26845,-3.07987c-2.00065,0.24387 -4.0521,0.26656 -5.78867,0.26656c-2.01433,0 -3.46221,0.40498 -4.69806,-1.70852c-0.78255,-1.33829 -0.63404,-4.13537 -0.97305,-5.6908c-0.00306,-0.82192 -0.09834,-2.67613 0.32728,-3.37332c0.47399,-0.77642 1.217,-1.3627 2.09245,-1.81045c-0.61435,0.05743 -1.23899,0.08307 -1.80599,-0.00448c-9.1957,-1.41986 -6.90691,-13.00697 -6.90691,-19.80529c0,-1.54098 -0.52187,-4.65147 0.09515,-6.04978c1.4742,-3.34083 6.77027,-3.33967 9.72628,-3.34307zM230.59101,188.04141c-0.13457,-6.75582 -2.2124,-13.61793 -0.70529,-20.44108c0.20758,-1.02964 0.44784,-2.15713 0.75217,-3.29596c-0.25254,-0.11581 -0.413,-0.27627 -0.413,-0.27627l0.45531,-0.06245c-1.49182,-0.00189 -6.72349,-0.23894 -7.41658,1.79978c-0.40752,1.19873 0.09515,3.79931 0.09515,5.09308c0,3.47618 0.00251,6.95238 0,10.42857c-0.00128,1.77214 0.13646,4.16138 1.38912,5.58764c1.23835,1.40995 4.14655,1.35569 5.79427,1.17001c0,0 0.01761,-0.00195 0.04885,-0.0033zM249.83437,194.69828c-0.36032,0.13174 -0.71867,0.23336 -1.07253,0.30136c-1.07754,0.75358 -0.79343,1.66509 -1.38732,2.83662c-0.73372,1.44738 -2.09573,2.93313 -3.54277,3.7009c-0.82936,0.44004 -1.76788,0.76743 -2.76259,1.01092c-0.00891,0.50347 -0.31154,1.22613 0.12533,1.38997c1.26966,0.47615 4.36705,-0.39833 5.72929,-0.60149c0.37458,-0.05587 2.53106,-0.04399 2.76362,-0.71466c0.28448,-0.82038 -0.15865,-2.61293 -0.11307,-3.53432c0.07251,-1.46577 0.20541,-2.92497 0.26003,-4.38929zM230.98853,192.92794c-0.81626,0.55371 -1.34497,1.37957 -1.35151,2.65131c0.17888,0.78811 0.35162,5.08083 1.09296,5.26726c0.88116,0.2216 2.44703,-0.09572 3.37878,-0.09515c2.75324,0.0017 7.30774,-0.22687 9.46672,-2.12289c2.06418,-1.81277 1.94072,-4.19846 4.16593,-5.9111c3.72249,-0.77183 8.40221,-5.90345 8.99064,-9.77339c0.39509,-2.59837 -0.02344,-5.52654 -0.13383,-8.23169c-0.37948,-0.32471 -0.44409,-0.84161 -0.44409,-0.84161l-0.14487,-1.15986c-0.35116,-3.20381 -0.23255,-7.00867 -1.10705,-10.09704c-0.59586,-2.10432 -2.19134,-3.30481 -3.53898,-4.87592c-3.22944,-2.87611 -13.09708,-1.42051 -15.87826,1.79294c-1.84746,2.1346 -2.62192,5.90618 -3.15316,8.58587c-1.59466,7.12926 0.84075,14.36141 0.73674,21.44715c0.96671,-0.18354 1.90341,-0.29514 2.68537,-0.38198l1.35484,-0.00191c0,0 1.25,0 1.25,1.25c0,1.25 -1.25,1.25 -1.25,1.25l-1.21658,-0.00191c-0.99793,0.11096 -2.04873,0.22758 -2.9982,0.46403c-0.0814,0.32381 -0.37587,1.06725 -1.35183,0.95881c-0.22786,-0.02532 -0.40928,-0.08778 -0.55363,-0.17291z" data-paper-data="{&quot;index&quot;:null}" fill="#000000" stroke-width="0.5"/><path d="M245.84696,164.8912c0.13907,0.0267 0.23593,0.02603 0.23593,0.02603c4.13268,0 10.27029,-1.10008 14.08307,0.75894c1.89094,0.92198 1.96253,5.04151 0.96899,6.43182c-3.12483,4.29474 -8.72191,3.682 -13.64568,3.68371c-1.72924,0.0006 -3.96745,0.21416 -5.27623,-1.19384c-0.94981,-1.02182 -0.59301,-3.0403 -0.6122,-4.28233c0.78953,-2.14749 2.16504,-4.38617 4.24612,-5.42433z" data-paper-data="{&quot;noHover&quot;:false,&quot;origItem&quot;:[&quot;Path&quot;,{&quot;applyMatrix&quot;:true,&quot;segments&quot;:[[[239.90084,166.06497],[0.78953,-2.14749],[0.0192,1.24203]],[[240.50838,170.32677],[-0.94981,-1.02182],[1.30878,1.408]],[[245.76918,171.50163],[-1.72924,0.0006],[4.92377,-0.00171]],[[259.33593,167.84814],[-3.12483,4.29474],[0.99354,-1.39031]],[[258.37182,161.44966],[1.89094,0.92198],[-3.81279,-1.85902]],[[244.36918,160.70163],[4.13268,0],[0,0]],[[244.13387,160.67493],[0.13907,0.0267],[-2.08108,1.03816]]],&quot;closed&quot;:true}]}" fill="#9ddcff" stroke-width="0.5"/><path d="M263.03128,172.98426c0.24515,1.22573 -0.98058,1.47087 -0.98058,1.47087l-0.28345,0.02334c-6.06495,2.75213 -15.92772,2.90608 -21.82704,-0.62165c0,0 -1.07187,-0.64312 -0.42875,-1.71499c0.64312,-1.07187 1.71499,-0.42875 1.71499,-0.42875c5.20577,3.13517 14.17581,2.91624 19.50629,0.48946l0.82766,-0.19888c0,0 1.22573,-0.24515 1.47087,0.98058z" fill="#49bfff" stroke-width="0.5"/><path d="M244.18483,162.92279l0.08333,-0.02778c1.26765,-0.4158 2.83466,-0.56838 4.16239,-0.56838c0,0 0.0701,0 0.13607,0.03712c0.00371,-0.00134 0.00742,-0.00268 0.01112,-0.00403c5.17903,-0.29228 12.80639,-0.93258 14.96658,3.59733c0.62039,1.30095 0.54773,3.04343 0.52486,4.44457c-0.01761,1.07854 -0.36436,2.17698 -0.91675,3.10349c-0.89459,1.23056 -1.75742,2.64354 -3.14263,3.39818c-1.27906,0.69681 -2.99953,0.7266 -4.40719,0.9348c-4.07325,0.60246 -12.17038,1.86737 -15.22263,-1.6116c-1.52515,-1.73837 -1.21645,-4.22777 -1.19246,-6.3382c0.94978,-2.70823 2.45385,-5.23166 4.82315,-6.74774c0.00432,-0.16114 0.17416,-0.21775 0.17416,-0.21775zM241.65084,170.31497c0.0192,1.24203 -0.34226,3.23998 0.60754,4.2618c1.30878,1.408 3.53156,1.17546 5.2608,1.17486c4.92377,-0.00171 10.44193,0.64125 13.56676,-3.65349c0.99354,-1.39031 0.92683,-5.4765 -0.96411,-6.39848c-3.81279,-1.85902 -9.86996,-0.74803 -14.00265,-0.74803c0,0 -0.09624,0 -0.23531,-0.0267c-2.08108,1.03816 -3.44351,3.24255 -4.23303,5.39005z" fill="#000000" stroke-width="0.5"/><path d="M255.29167,166.94312c0,1.25 -1.25,1.25 -1.25,1.25c-0.83333,0 -1.91667,0 -2.75,0c0,0 -1.25,0 -1.25,-1.25c0,-1.25 1.25,-1.25 1.25,-1.25c0.83333,0 1.66667,0 2.5,0h0.25c0,0 1.25,0 1.25,1.25z" fill="#ffffff" stroke-width="0.5"/></g></g></svg>