<svg version="1.1" xmlns="http://www.w3.org/2000/svg" xmlns:xlink="http://www.w3.org/1999/xlink" width="348.78141" height="370.98021" viewBox="0,0,348.78141,370.98021"><defs><linearGradient x1="249.79121" y1="48.71918" x2="231.47074" y2="370.47521" gradientUnits="userSpaceOnUse" id="color-1"><stop offset="0" stop-color="#000000"/><stop offset="1" stop-color="#000000" stop-opacity="0"/></linearGradient><linearGradient x1="190.84789" y1="12.09167" x2="288.86656" y2="364.96215" gradientUnits="userSpaceOnUse" id="color-2"><stop offset="0" stop-color="#846632"/><stop offset="1" stop-color="#a89100"/></linearGradient><linearGradient x1="234.97532" y1="13.68086" x2="234.97532" y2="350.47019" gradientUnits="userSpaceOnUse" id="color-3"><stop offset="0" stop-color="#efbd40"/><stop offset="1" stop-color="#baa008"/></linearGradient><linearGradient x1="251.04471" y1="24.42615" x2="247.135" y2="75.87313" gradientUnits="userSpaceOnUse" id="color-4"><stop offset="0" stop-color="#000000"/><stop offset="1" stop-color="#000000" stop-opacity="0"/></linearGradient></defs><g transform="translate(-66.53294,-3.50414)"><g data-paper-data="{&quot;isPaintingLayer&quot;:true}" fill-rule="nonzero" stroke-linejoin="miter" stroke-miterlimit="10" stroke-dasharray="" stroke-dashoffset="0" style="mix-blend-mode: normal"><path d="M398.71023,218.02269c-3.03314,53.26996 0.96147,122.73211 -40.29716,148.81284c-26.23956,16.58677 -90.1697,1.34341 -123.38233,-0.74533c-28.09775,-1.76706 -114.89779,4.30075 -136.84755,-10.48392c-44.79187,-30.17042 -12.19262,-98.55375 -8.86241,-157.04112c2.79945,-49.16588 1.13362,-112.53726 37.33729,-139.30356c27.96879,-20.67804 89.10616,-11.10573 126.34219,-8.76395c40.04182,2.51824 108.24589,-2.29805 134.26644,24.89207c29.4984,30.82431 14.08002,96.32911 11.44352,142.63297z" fill="url(#color-1)" stroke="none" stroke-width="0" stroke-linecap="butt"/><path d="M406.44101,206.24685c-3.03314,53.26996 0.96147,122.73212 -40.29715,148.81285c-26.23956,16.58677 -90.1697,1.34341 -123.38232,-0.74534c-28.09775,-1.76706 -114.89779,4.30076 -136.84755,-10.48393c-44.79187,-30.17042 -12.19262,-98.55375 -8.86241,-157.04112c2.79945,-49.16588 1.13362,-112.53726 37.33728,-139.30356c27.96879,-20.67804 89.10616,-11.10573 126.3422,-8.76396c40.04182,2.51824 108.24588,-2.29805 134.26644,24.89208c29.49839,30.8243 14.08002,96.32912 11.44352,142.63298z" fill="#af9017" stroke="#000000" stroke-width="5" stroke-linecap="butt"/><path d="M401.69302,200.62166c-3.03314,53.26996 0.96147,122.73212 -40.29715,148.81285c-26.23957,16.58677 -90.1697,1.34341 -123.38233,-0.74533c-28.09775,-1.76706 -114.89779,4.30076 -136.84755,-10.48393c-44.79187,-30.17042 -12.19262,-98.55375 -8.86241,-157.04112c2.79945,-49.16588 1.13362,-112.53726 37.33729,-139.30356c27.96879,-20.67804 89.10615,-11.10573 126.34219,-8.76395c40.04182,2.51824 108.24589,-2.29805 134.26644,24.89208c29.4984,30.82431 14.08002,96.32911 11.44352,142.63297z" fill="#bf9e19" stroke="#444444" stroke-width="4.5" stroke-linecap="butt"/><path d="M399.45771,193.25205c-3.03314,53.26996 0.96147,122.73212 -40.29715,148.81284c-26.23956,16.58677 -90.1697,1.34341 -123.38232,-0.74534c-28.09775,-1.76706 -114.89779,4.30075 -136.84755,-10.48393c-44.79187,-30.17042 -12.19262,-98.55374 -8.8624,-157.04111c2.79945,-49.16588 1.13361,-112.53725 37.33728,-139.30356c27.96879,-20.67804 89.10616,-11.10573 126.3422,-8.76396c40.04182,2.51824 108.24588,-2.29805 134.26644,24.89208c29.4984,30.82431 14.08002,96.32911 11.44352,142.63297z" fill="url(#color-2)" stroke="#444444" stroke-width="4.5" stroke-linecap="butt"/><path d="M380.59656,225.6739c-15.06239,32.01274 -68.99725,53.76961 -84.38924,63.49933c-13.03153,8.23759 61.06941,52.72222 41.71362,59.83059c-19.61795,7.20465 -94.3936,-14.42593 -111.11162,-15.47733c-28.09775,-1.76706 -114.89779,4.30076 -136.84755,-10.48393c-44.79187,-30.17042 -12.19262,-98.55374 -8.8624,-157.04111c2.79945,-49.16588 1.13361,-112.53725 37.33727,-139.30356c27.96879,-20.67804 89.10616,-11.10572 126.34221,-8.76395c40.04182,2.51824 108.24589,-2.29805 134.26643,24.89207c16.41602,17.15389 28.52746,45.84123 23.02915,72.74096c-2.22697,10.89517 -5.22627,57.31278 -7.5584,64.0991c-0.85195,2.47909 -13.91946,46.00782 -13.91946,46.00782z" fill="url(#color-3)" stroke="none" stroke-width="0" stroke-linecap="butt"/><path d="M394.58001,141.12078l-308.56831,-34.22698" fill="none" stroke="#00bfff" stroke-width="7.5" stroke-linecap="round"/><path d="M389.16251,179.07093l-306.71222,-33.24106" fill="none" stroke="#00bfff" stroke-width="7.5" stroke-linecap="round"/><path d="M377.5014,216.76141l-296.85136,-35.37257" fill="none" stroke="#00bfff" stroke-width="7.5" stroke-linecap="round"/><path d="M76.25955,220.57929l275.09892,32.45033" fill="none" stroke="#00bfff" stroke-width="7.5" stroke-linecap="round"/><path d="M73.15519,251.50822l242.04294,25.75045" fill="none" stroke="#00bfff" stroke-width="7.5" stroke-linecap="round"/><path d="M117.4912,55.89052l-34.84999,259.40046" fill="none" stroke="#ff0000" stroke-width="7.5" stroke-linecap="round"/><g stroke="none" stroke-width="0" stroke-linecap="butt"><path d="M406.88168,63.15123c-0.64729,8.51756 6.42504,20.20849 -33.49872,21.45522c-25.39063,0.7929 -89.73179,-6.40722 -122.89822,-9.19114c-28.05866,-2.35518 -114.22446,-7.73955 -136.74084,-11.77876c-45.94814,-8.24264 -16.53198,-17.06684 -15.82129,-26.41864c0.59743,-7.86135 -3.88457,-18.38173 30.97488,-20.1125c26.93032,-1.33707 88.23781,4.72726 125.42205,7.84841c39.98611,3.35635 107.68966,7.57923 134.8124,13.95312c30.74791,7.22583 18.31236,16.84054 17.74971,24.24427z" fill="url(#color-4)"/><path d="M409.23227,55.11875c-0.64729,8.51756 6.42504,20.20849 -33.49872,21.45522c-25.39063,0.7929 -89.7318,-6.40722 -122.89822,-9.19114c-28.05866,-2.35518 -114.22446,-7.73955 -136.74083,-11.77876c-45.94814,-8.24264 -16.53198,-17.06684 -15.82129,-26.41864c0.59743,-7.86135 -3.88457,-18.38173 30.97489,-20.1125c26.93032,-1.33707 88.2378,4.72726 125.42204,7.84841c39.98611,3.35635 107.68966,7.57922 134.8124,13.95312c30.74791,7.22583 18.31236,16.84054 17.74971,24.24427z" fill="#2e2402"/><path d="M410.51114,49.73958c-0.64729,8.51756 6.42503,20.20849 -33.49872,21.45521c-25.39063,0.7929 -89.73179,-6.40722 -122.89822,-9.19114c-28.05866,-2.35518 -114.22446,-7.73955 -136.74083,-11.77876c-45.94814,-8.24264 -16.53198,-17.06684 -15.82129,-26.41864c0.59743,-7.86135 -3.88457,-18.38173 30.97489,-20.1125c26.93032,-1.33707 88.23781,4.72725 125.42205,7.84841c39.98611,3.35635 107.68966,7.57923 134.8124,13.95314c30.74791,7.22583 18.31236,16.84054 17.74971,24.24427z" fill="#4f3e04"/></g></g></g></svg>