<svg version="1.1" xmlns="http://www.w3.org/2000/svg" xmlns:xlink="http://www.w3.org/1999/xlink" width="82.909" height="80.47845" viewBox="0,0,82.909,80.47845"><g transform="translate(-202,-154)"><g data-paper-data="{&quot;isPaintingLayer&quot;:true}" fill="none" fill-rule="nonzero" stroke="none" stroke-width="none" stroke-linecap="none" stroke-linejoin="none" stroke-miterlimit="10" stroke-dasharray="" stroke-dashoffset="0" font-family="none" font-weight="none" font-size="none" text-anchor="none" style="mix-blend-mode: normal"><path d="M244.479,215.872c0,0 -0.094,1.908 2.082,3.122c2.019,1.127 6.138,1.563 10.386,1.723c3.808,0.187 0.449,-7.405 7.726,-5.965c2.058,0.465 0.685,9.563 -0.377,11.545c-0.938,1.797 -1.696,2.202 -3.642,1.65c-7.098,-2.02 -19.488,2.287 -19.488,2.287" id="ID0.007584026083350182_41_" fill="#ffffff" stroke="#8e5322" stroke-width="1.4" stroke-linecap="round" stroke-linejoin="round"/><path d="M258.732,221.749c-0.106,-1.523 0.257,-2.788 0.257,-2.788" id="ID0.31672530295327306_41_" fill="#faa51f" stroke="#8e5322" stroke-width="1.4" stroke-linecap="round" stroke-linejoin="round"/><path d="M236.653,224.626c0.83,0.539 2.447,1.424 0.017,4.903c-2.431,3.48 -9.464,4.053 -10.288,4.025c-3.059,0.035 -6.965,-0.054 -11.178,-1.616c-12.173,-4.365 -11.979,-17.903 -8.021,-19.969c3.957,-2.066 5.527,6.289 10.921,11.483c2.44,2.343 5.294,3.273 7.752,3.772c3.444,0.801 9.986,-3.039 10.797,-2.598z" id="ID0.8535828334279358_31_" fill="#faa51f" stroke="none" stroke-width="1" stroke-linecap="butt" stroke-linejoin="miter"/><path d="M212.086,215.324c1.656,2.512 4.748,6.963 4.748,6.963c0,0 -4.146,-0.755 -6.323,1.037c-2.174,1.791 0.032,5.922 -1.53,4.824c-1.216,-1.378 -3.123,-3.632 -4.088,-7.21c-0.863,-3.598 0.45,-8.476 2.464,-9.108c2.152,-0.459 3.308,1.138 4.729,3.494z" id="ID0.914295740891248_37_" fill="#ffffff" stroke="none" stroke-width="1" stroke-linecap="butt" stroke-linejoin="miter"/><path d="M236.653,224.626c0.83,0.539 2.447,1.424 0.017,4.903c-2.431,3.48 -9.464,4.053 -10.288,4.025c-3.059,0.035 -6.965,-0.054 -11.178,-1.616c-12.173,-4.365 -11.979,-17.903 -8.021,-19.969c3.957,-2.066 5.527,6.289 10.921,11.483c2.44,2.343 5.294,3.273 7.752,3.772c3.444,0.801 9.986,-3.039 10.797,-2.598z" id="ID0.40227043256163597_37_" fill="#ffffff" stroke="#8e5322" stroke-width="1.4" stroke-linecap="round" stroke-linejoin="round"/><path d="M219.3615,205.1093l6.5994,-3.4958l4.4344,8.3713l-6.5995,3.4958z" id="ID0.5006253425963223" fill="#fefbdf" stroke="none" stroke-width="1.00002" stroke-linecap="butt" stroke-linejoin="miter"/><path d="M239.353,212.066l1.944,14.506c0,0 1.035,-1.435 -1.729,3.519c-1.654,2.889 -15.919,5.5 -19.897,2.026c-2.736,-2.401 -3.805,-18.615 -3.805,-18.615z" id="ID0.26344340899959207_32_" fill="#518943" stroke="#426c36" stroke-width="1.4" stroke-linecap="round" stroke-linejoin="round"/><path d="M216.499,201.125c1.405,-0.289 2.845,0.264 4.035,1.388c1.191,1.122 2.132,2.818 2.541,4.821c0.411,1.999 0.209,3.929 -0.446,5.43c-0.652,1.502 -1.76,2.572 -3.166,2.86c-1.406,0.287 -2.845,-0.264 -4.036,-1.39c-1.189,-1.123 -2.132,-2.818 -2.541,-4.818c-0.408,-2.001 -0.208,-3.931 0.447,-5.431c0.653,-1.5 1.76,-2.573 3.166,-2.86z" id="ID0.2414738917723298_32_" fill="#fefbdf" stroke="#70715e" stroke-width="1.4" stroke-linecap="round" stroke-linejoin="round"/><path d="M217.16,204.358c0.755,-0.155 1.534,0.155 2.18,0.781c0.645,0.624 1.158,1.565 1.384,2.675c0.226,1.107 0.124,2.175 -0.224,3.003c-0.346,0.828 -0.942,1.418 -1.697,1.573c-0.756,0.155 -1.535,-0.155 -2.181,-0.781c-0.645,-0.624 -1.156,-1.566 -1.384,-2.675c-0.226,-1.107 -0.124,-2.176 0.225,-3.003c0.347,-0.829 0.94,-1.419 1.697,-1.573z" id="ID0.6192030962556601_32_" fill="#fefbdf" stroke="#70715e" stroke-width="1.4" stroke-linecap="round" stroke-linejoin="round"/><path d="M221.623,230.184c-1.16,-0.681 -1.655,-6.601 -1.655,-6.601l6.629,-0.028l1.053,7.645c0,0 -4.984,-0.409 -6.027,-1.016z" id="ID0.15330331353470683_32_" fill="#518943" stroke="#426c36" stroke-width="1.4" stroke-linecap="round" stroke-linejoin="round"/><path d="M246.415,210.563c1.343,6.564 4.971,15.826 -6.689,18.21c-11.658,2.384 -12.382,-6.655 -13.725,-13.221c-1.343,-6.564 2.313,-9.148 8.878,-10.491c6.563,-1.339 10.194,-1.061 11.536,5.502z" id="ID0.46792364912107587_37_" fill="#faa51f" stroke="#8e5322" stroke-width="1.4" stroke-linecap="round" stroke-linejoin="round"/><path d="M245.895,213.716c0.841,4.116 2.985,10.108 -3.285,11.39c-6.27,1.283 -6.922,-4.4 -7.763,-8.518c-0.841,-4.116 1.072,-5.731 4.698,-6.472c3.625,-0.742 5.509,-0.512 6.35,3.6z" id="ID0.38032895559445024_37_" fill="#bababa" stroke="none" stroke-width="1" stroke-linecap="butt" stroke-linejoin="miter"/><path d="M241.961,205.758l3.976,-1.526c5.852,1.66 12.805,9.22 8.492,14.082" id="ID0.30105241015553474_34_" fill="#ffffff" stroke="#8e5322" stroke-width="1.4" stroke-linecap="round" stroke-linejoin="round"/><path d="M248.231,213.968l-1.816,-3.404" id="ID0.7841392233967781_33_" fill="#faa51f" stroke="#8e5322" stroke-width="1.4" stroke-linecap="round" stroke-linejoin="round"/><path d="M248.231,213.968l1.021,-0.514" id="ID0.4326359131373465_29_" fill="none" stroke="#8e5322" stroke-width="1.4" stroke-linecap="round" stroke-linejoin="round"/><path d="M228.782,225.988c12.539,-17.057 -3.1,-19.167 -3.1,-19.167c19.048,1.31 8.24,19.342 4.369,21.868" id="ID0.48627097019925714_32_" fill="#518943" stroke="#426c36" stroke-width="1.4" stroke-linecap="round" stroke-linejoin="round"/><path d="M246.349,215.56c2.354,-9.464 -8.815,-11.162 -8.815,-11.162c11.809,0.342 12.033,6.421 11.037,12.034" id="ID0.07006075512617826_32_" fill="#518943" stroke="#426c36" stroke-width="1.4" stroke-linecap="round" stroke-linejoin="round"/><path d="M254.429,218.314c-4.231,5.255 -8.774,2.509 -8.122,-0.787c0.44,-2.335 1.449,-4.891 4.865,-4.16" id="ID0.7947451807558537_29_" fill="#ffffff" stroke="#8e5322" stroke-width="1.4" stroke-linecap="round" stroke-linejoin="round"/><path d="M232.862,228.388c-4.613,0.921 -8.764,-9.611 -7.111,-18.138l6.91,-4.075" id="ID0.15909873321652412_33_" fill="#ffffff" stroke="#8e5322" stroke-width="1.4" stroke-linecap="round" stroke-linejoin="round"/><path d="M233.267,219.484l-0.619,-4.871" id="ID0.8143284288235009_33_" fill="#faa51f" stroke="#8e5322" stroke-width="1.4" stroke-linecap="round" stroke-linejoin="round"/><path d="M233.267,219.484l-1.108,0.554" id="ID0.6682511982508004_29_" fill="none" stroke="#8e5322" stroke-width="1.4" stroke-linecap="round" stroke-linejoin="round"/><path d="M249.746,162.806l7.82,-6.301l1.745,11.41c0,0 5.746,5.158 7.34,8.521c2.593,5.564 2.294,9.857 2.294,9.857c0,0 6.673,2.731 7.357,8.32c0.684,5.587 -4.575,15.64 -23.03,17.532c-18.455,1.892 -32.536,-4.345 -38.372,-16.039c-5.75,-11.583 6.232,-23.72 5.56,-22.981l-0.489,-18.425l11.784,9.335c0,0 4.438,-1.293 9.037,-1.064c1.7,0.058 4.77,0.547 6.254,0.786z" id="ID0.2591130444779992_35_" fill="#faa51f" stroke="none" stroke-width="1" stroke-linecap="butt" stroke-linejoin="miter"/><path d="M268.502,186.752c0,0 6.419,2.207 7.104,7.792c0.982,5.618 -4.862,15.518 -22.276,17.004c-3.948,0.335 -7.498,0.707 -12.975,0.194c-8.471,-0.69 -17.239,-6.833 -15.51,-17.819c0.993,-6.336 9.012,-5.084 9.012,-5.084l7.235,-1.132c0,0 6.921,2.253 11.187,1.748c4.266,-0.506 4.573,-3.792 4.573,-3.792l9.004,-1.77l2.203,2.215z" id="ID0.3588979784399271_35_" fill="#ffffff" stroke="none" stroke-width="1" stroke-linecap="butt" stroke-linejoin="miter"/><path d="M284.209,191.102c0,0 -2.168,1.05 -4.916,1.205c-2.337,0.168 -6.76,-0.36 -6.76,-0.36" id="ID0.2727069961838424_35_" fill="none" stroke="#8e5322" stroke-width="1.4" stroke-linecap="round" stroke-linejoin="round"/><path d="M281.672,201.733c0,0 -1.788,-0.282 -4.313,-1.281c-2.65,-0.934 -4.866,-2.682 -4.866,-2.682" id="ID0.5861211125738919_35_" fill="none" stroke="#8e5322" stroke-width="1.4" stroke-linecap="round" stroke-linejoin="round"/><path d="M229.604,162.329l4.842,4.067" id="ID0.4793355236761272_35_" fill="none" stroke="#8e5322" stroke-width="1.4" stroke-linecap="round" stroke-linejoin="round"/><path d="M249.746,162.806l7.82,-6.301l1.745,11.41c0,0 5.746,5.158 7.34,8.521c2.593,5.564 2.294,9.857 2.294,9.857c0,0 6.673,2.731 7.357,8.32c0.684,5.587 -4.575,15.64 -23.03,17.532c-18.455,1.892 -32.536,-4.345 -38.372,-16.039c-5.75,-11.583 6.232,-23.72 5.56,-22.981l-0.489,-18.425l11.784,9.335c0,0 4.438,-1.293 9.037,-1.064c1.7,0.058 4.77,0.547 6.254,0.786z" id="ID0.48413723474368453_35_" fill="none" stroke="#8e5322" stroke-width="1.4" stroke-linecap="round" stroke-linejoin="round"/><path d="M214.719,191.572c0,0 -3.405,0.941 -5.18,1.272c-1.771,0.332 -5.788,0.446 -5.788,0.446" id="ID0.9024141579866409_35_" fill="none" stroke="#8e5322" stroke-width="1.4" stroke-linecap="round" stroke-linejoin="round"/><path d="M202.7,183.492c0,0 2.228,0.189 6.381,1.597c3.828,1.278 3.81,1.289 6.19,2.719" id="ID0.16030752705410123_35_" fill="none" stroke="#8e5322" stroke-width="1.4" stroke-linecap="round" stroke-linejoin="round"/><path d="M265.845,176.576c2.387,4.541 2.021,9.531 -0.823,10.972c-2.856,1.541 -7.142,-0.968 -9.521,-5.609c-2.387,-4.541 -2.021,-9.53 0.826,-10.972c2.847,-1.442 7.13,1.068 9.518,5.609z" id="ID0.40023312577977777_35_" fill="#ffffff" stroke="#8e5322" stroke-width="1.4" stroke-linecap="round" stroke-linejoin="round"/><path d="M265.409,180.153c0.207,1.022 -0.385,1.972 -1.408,2.177c-0.924,0.215 -1.862,-0.476 -2.058,-1.599c-0.209,-1.023 0.383,-1.973 1.405,-2.179c1.015,-0.106 1.854,0.578 2.061,1.601" id="ID0.43813491938635707_35_" fill="#414142" stroke="none" stroke-width="1" stroke-linecap="butt" stroke-linejoin="miter"/><path d="M246.062,177.428c2.389,4.543 1.606,9.69 -1.775,11.485c-3.381,1.793 -8.092,-0.454 -10.473,-5.096c-2.387,-4.541 -1.604,-9.691 1.775,-11.485c3.371,-1.694 8.084,0.555 10.473,5.096z" id="ID0.4253597157076001_35_" fill="#ffffff" stroke="#8e5322" stroke-width="1.4" stroke-linecap="round" stroke-linejoin="round"/><path d="M245.399,181.284c-0.092,0.996 -0.973,1.817 -1.868,1.732c-0.995,-0.092 -1.619,-0.955 -1.516,-2.048c0.092,-0.995 0.973,-1.819 1.867,-1.734c0.898,0.084 1.62,0.955 1.517,2.05" id="ID0.814307457767427_35_" fill="#414142" stroke="none" stroke-width="1" stroke-linecap="butt" stroke-linejoin="miter"/><path d="M253.308,187.813c1.713,-0.041 4.125,-1.122 4.245,0.8c-0.075,0.795 -1.975,3.933 -3.775,3.864c-2.001,-0.086 -5.252,-2.902 -5.014,-4.386c0.236,-1.484 3.031,-0.218 4.544,-0.278z" id="ID0.5240494590252638_35_" fill="#5f4b43" stroke="#8e5322" stroke-width="1.4" stroke-linecap="round" stroke-linejoin="round"/><path d="M252.534,205.298c-5.48,0.591 -7.754,-1.929 -7.754,-1.929" id="ID0.046259244438260794_35_" fill="#ffffff" stroke="#8e5322" stroke-width="1.4" stroke-linecap="round" stroke-linejoin="round"/><path d="M240.664,218.484c0,0 -0.396,1.868 1.56,3.413c1.813,1.434 5.812,2.519 9.98,3.352c3.729,0.79 1.62,-7.239 8.575,-4.661c1.958,0.786 -0.844,9.552 -2.207,11.339c-1.211,1.625 -2.023,1.904 -3.857,1.051c-6.688,-3.123 -19.604,-0.84 -19.604,-0.84" id="ID0.007584026083350182_40_" fill="#ffffff" stroke="#8e5322" stroke-width="1.4" stroke-linecap="round" stroke-linejoin="round"/><path d="M253.802,226.553c0.136,-1.523 0.697,-2.713 0.697,-2.713" id="ID0.31672530295327306_40_" fill="#faa51f" stroke="#8e5322" stroke-width="1.4" stroke-linecap="round" stroke-linejoin="round"/><path d="M232.813,219.952c4.754,-3.466 9.703,-0.91 10.141,0.734c1.065,3.861 -2.739,7.014 -11.408,7.873" id="ID0.1790580078959465_45_" fill="#ffffff" stroke="#8e5322" stroke-width="1.4" stroke-linecap="round" stroke-linejoin="round"/></g></g></svg>