<svg version="1.1" width="285" height="239" viewBox="11 -1 285 239" xmlns="http://www.w3.org/2000/svg" xmlns:xlink="http://www.w3.org/1999/xlink">
  <!-- Exported by Scratch - http://scratch.mit.edu/ -->
  <g id="ID0.05629549268633127" transform="matrix(1, 0, 0, 1, -174.5, -115.25)">
    <path id="ID0.11619313526898623" fill="#CC0000" stroke="none" d="M 243.500 109 C 261.571 109 277.946 116.340 289.803 128.197 C 301.660 140.054 309 156.429 309 174.500 C 309 192.571 301.660 208.946 289.803 220.803 C 277.946 232.660 261.571 240 243.500 240 C 225.429 240 209.054 232.660 197.197 220.803 C 185.340 208.946 178 192.571 178 174.500 C 178 156.429 185.340 140.054 197.197 128.197 C 209.054 116.340 225.429 109 243.500 109 Z " transform="matrix(1, 0, 0, 1, -3.25, 6.25)"/>
    <g id="ID0.12167014554142952" transform="matrix(1, 0, 0, 1, 178, 109)">
      <path id="ID0.24737547896802425" fill="none" stroke="#FF0000" stroke-width="2" stroke-linecap="round" d="M 256 109 L 256 171 " transform="matrix(1, 0, 0, 1, -193.4, -99.25)"/>
      <path id="ID0.07651694864034653" fill="none" stroke="#FF0000" stroke-width="2" stroke-linecap="round" d="M 257 139.500 L 249.700 138.250 L 242.500 139.250 L 236.350 141.150 L 230.700 146.150 L 222.850 151.500 L 218.500 160 L 214.500 172.500 L 215.600 182.850 L 218.700 193.350 L 226.100 205.150 L 237.850 212.250 L 247.600 214.850 L 257.200 215.250 L 268 212.150 L 278.200 205.750 L 287.200 193.150 L 291.500 175.850 L 288.500 161.350 L 283.100 151.850 L 283.350 152.500 " transform="matrix(0.9202918410301208, -0.39123255014419556, 0.39123255014419556, 0.9202918410301208, -240.05, 17.95)"/>
    </g>
  </g>
</svg>