<svg version="1.1" xmlns="http://www.w3.org/2000/svg" xmlns:xlink="http://www.w3.org/1999/xlink" width="494" height="374" viewBox="0,0,494,374"><g transform="translate(7,7)"><g data-paper-data="{&quot;isPaintingLayer&quot;:true}" fill-rule="nonzero" stroke-linecap="butt" stroke-linejoin="miter" stroke-miterlimit="10" stroke-dasharray="" stroke-dashoffset="0" style="mix-blend-mode: normal"><path d="M-6,366v-372h492v372z" fill="#000000" stroke="#000000" stroke-width="2"/><text transform="matrix(0.80336 0 0 0.80336 90.28615 169.18475)" font-size="40"  fill="#e4e4e4" fill-rule="nonzero" stroke="none" stroke-width="1" stroke-linecap="butt" stroke-linejoin="miter" stroke-miterlimit="10" stroke-dasharray="" stroke-dashoffset="0" font-family="Gloria" font-weight="normal" text-anchor="start" style="mix-blend-mode: normal" >Connecting to Server...</text><g stroke="none"><path d="M250.77442,228.51968c1.84772,3.32501 2.78343,8.74443 2.37118,12.86809c-0.04309,0.01574 -0.08377,0.03342 -0.12209,0.05289c-0.06401,0.97587 -0.17723,1.9172 -0.34121,2.83831c0.00298,0.02085 0.00605,0.04196 0.00903,0.06281c0,0 0.10006,0.69525 -0.26285,1.26658c-0.00851,1.00402 -0.06448,2.01903 -0.25788,2.98508c-0.51242,2.55956 -2.84527,5.74002 -1.66066,8.32922c1.19537,2.61273 4.10909,4.70371 5.5713,7.25484c0.65787,3.53091 -0.91378,7.82786 -5.49442,6.37694c-4.18853,-1.32671 -8.65147,-5.3685 -11.7486,-8.42033c-1.75747,-0.95798 -3.55189,-0.62637 -5.27787,-1.40864c-6.22222,-2.82014 -5.38554,-13.42859 -5.38554,-19.10013c-0.46759,-4.7319 0.39195,-7.90848 2.39949,-12.17269c0.63102,-1.34034 1.2949,-2.44582 2.80999,-2.99237c2.65789,-0.95879 5.79383,-1.05193 8.5872,-1.05193c1.64085,0 4.46094,-0.55575 5.99254,-0.06257c1.15975,0.37345 2.26554,2.19345 2.81039,3.17391z" data-paper-data="{&quot;noHover&quot;:false,&quot;origItem&quot;:[&quot;Path&quot;,{&quot;applyMatrix&quot;:true,&quot;segments&quot;:[[[252.32166,155.56542],[0,0],[-0.54485,-0.98046]],[[249.51908,152.39422],[1.15975,0.37345],[-1.5316,-0.49318]],[[243.53937,152.45836],[1.64085,0],[-2.79337,0]],[[234.97063,153.50661],[2.65789,-0.95879],[-1.51509,0.54655]],[[232.16827,156.49508],[0.63102,-1.34034],[-2.00754,4.26421]],[[229.78781,168.64609],[-0.46759,-4.7319],[0,5.67154]],[[235.15581,187.68402],[-6.22222,-2.82014],[1.72598,0.78227]],[[240.41711,189.08543],[-1.75747,-0.95798],[3.09713,3.05183]],[[252.1368,197.50762],[-4.18853,-1.32671],[4.58064,1.45092]],[[257.61612,191.13962],[0.65787,3.53091],[-1.46221,-2.55113]],[[252.04326,183.88618],[1.19537,2.61273],[-1.18461,-2.5892]],[[253.6882,175.59046],[-0.51242,2.55956],[0.1934,-0.96605]],[[253.94728,172.61966],[-0.00851,1.00402],[0.36291,-0.57133]],[[254.21159,171.35814],[0,0],[-0.00298,-0.02085]],[[254.20265,171.29559],[0.00298,0.02085],[0.16398,-0.92111]],[[254.54819,168.46646],[-0.06401,0.97587],[0.03832,-0.01947]],[[254.67024,168.41351],[-0.04309,0.01574],[0.41225,-4.12366]],[[252.32167,155.56539],[1.84772,3.32501],[0,0]]],&quot;closed&quot;:true,&quot;fillColor&quot;:[0,0,0,1]}]}" fill="#ff0000" stroke-width="0.5"/><path d="M221.6805,255.65554c-2.05951,-4.55589 -0.50155,-10.19075 -0.73334,-15.04799c-0.09181,-1.92398 -0.48423,-4.63716 1.76357,-5.22284c1.03917,-0.09983 2.07482,-0.10116 3.11322,-0.10037c-0.29275,2.27278 -0.26772,4.54061 -0.07498,6.44333c0,3.51158 -0.18548,8.38254 0.69724,12.52814l-0.2096,0.00033c-1.61987,0.00658 -3.20046,0.52996 -4.55609,1.39939z" data-paper-data="{&quot;noHover&quot;:false,&quot;origItem&quot;:[&quot;Path&quot;,{&quot;applyMatrix&quot;:true,&quot;segments&quot;:[[[223.25692,182.60632],[0,0],[1.35563,-0.86943]],[[227.78936,181.20836],[-1.61987,0.00658],[0,0]],[[227.99793,181.20836],[0,0],[-0.88272,-4.1456]],[[227.29091,168.77063],[0,3.51158],[-0.19274,-1.90272]],[[227.38044,162.3331],[-0.29275,2.27278],[-1.0384,-0.00079]],[[224.28225,162.43454],[1.03917,-0.09983],[-2.2478,0.58568]],[[222.53807,167.65173],[-0.09181,-1.92398],[0.23179,4.85724]],[[223.25691,182.60633],[-2.05951,-4.55589],[0,0]]],&quot;closed&quot;:true,&quot;fillColor&quot;:[0,0,0,1]}]}" fill="#ff0000" stroke-width="0.5"/><path d="M235.41266,263.27794c-0.87566,1.20889 -1.89143,2.69947 -3.0337,3.38545c-0.86127,0.51723 -2.45025,0.34357 -3.39578,0.34367c-4.30107,0.00049 -8.73955,-1.38199 -8.83345,-6.19404c0.86881,-2.26807 3.72235,-4.16386 6.05759,-4.15251l0.92075,-0.00176c0.61841,1.70221 1.55422,3.22812 2.81306,4.34345c1.79771,1.59277 3.63353,1.74654 5.47154,2.27574z" data-paper-data="{&quot;noHover&quot;:false,&quot;origItem&quot;:[&quot;Path&quot;,{&quot;applyMatrix&quot;:true,&quot;segments&quot;:[[[236.93103,190.26873],[0,0],[-1.83801,-0.5292]],[[231.46209,188.02045],[1.79771,1.59277],[-1.25884,-1.11533]],[[228.70182,183.70835],[0.61841,1.70221],[0,0]],[[227.78934,183.70835],[0,0],[-2.33524,-0.01135]],[[221.76678,187.81974],[0.86881,-2.26807],[0.0939,4.81205]],[[230.53934,193.95835],[-4.30107,0.00049],[0.94553,-0.0001]],[[233.91193,193.62722],[-0.86127,0.51723],[1.14227,-0.68598]],[[236.93102,190.26873],[-0.87566,1.20889],[0,0]]],&quot;closed&quot;:true,&quot;fillColor&quot;:[0,0,0,1],&quot;strokeWidth&quot;:0.5}]}" fill="#ff0000" stroke-width="0.25"/><path d="M227.38583,237.42744c0.09574,-2.042 0.23264,-4.09238 0.03203,-6.07244c0,0 -0.12438,-1.2438 1.11942,-1.36818c1.2438,-0.12438 1.36818,1.11942 1.36818,1.11942c0.70124,7.09671 -1.42857,16.37159 6.46701,20.33742c3.30737,0.98364 6.75051,0.78696 10.16419,0.78696c0.63222,0 4.37279,-0.2953 4.69338,-0.04006c2.10384,1.67501 -0.11275,2.80798 0.59753,4.46432c0.52758,1.23029 1.64247,1.66662 2.56708,2.5417c1.51372,1.43264 2.5374,3.33316 3.23573,5.25612c0.21375,2.08969 0.0819,5.11283 -2.16952,6.27583c-0.21691,0.11205 -0.50979,0.18006 -0.84629,0.21819c-0.12368,0.43702 -0.47909,0.77672 -0.9251,0.87793l-1.47463,0.36866l-0.02987,-0.11946l-0.2733,0.15678c-0.73048,-0.19455 -1.64211,-0.06433 -2.19143,-0.58365c-0.07358,-0.06956 -0.14038,-0.14395 -0.20149,-0.2224c-0.68072,-0.0993 -1.36657,-0.31454 -1.9213,-0.52367c-2.58507,-0.97455 -6.14226,-4.12248 -8.00055,-6.22108c-0.64066,-0.72352 -1.13397,-2.18929 -2.05763,-2.67744c-1.49056,-0.78776 -3.3778,3.69403 -3.99224,4.47037c-4.96601,2.13865 -13.33684,2.54093 -14.4895,-4.51472c-0.40062,-2.45226 1.43731,-3.19822 1.74239,-5.40894c0.34787,-2.52081 -0.76224,-4.97923 -0.7617,-7.50622c-0.28108,-2.81084 -1.55711,-9.72459 1.35693,-11.32556c1.19134,-0.65452 4.10346,-0.08728 5.51714,-0.23051z" fill="#d20000" stroke-width="0.5"/><path d="M226.26619,232.83336c0.77444,-3.24707 2.28404,-6.24537 4.90055,-7.92378c2.9609,-1.89933 7.38703,-1.95122 10.80511,-1.95122c1.92602,0 4.95106,-0.55219 6.77029,0.06415c1.80032,0.60994 3.33265,2.7719 4.19741,4.3288c2.3854,4.29464 3.32435,11.28674 2.38303,16.10219c-0.15824,0.78618 -0.27813,1.58116 -0.35693,2.37923l0.0062,0.25062c0,0 0,0.27065 -0.12594,0.56008c-0.03547,0.82068 -0.11357,1.63558 -0.27289,2.43283c-0.40533,2.02831 -1.7359,4.0498 -1.97755,6.06587c-0.10592,0.88367 1.26095,1.83608 1.72243,2.40411c1.48862,1.83229 2.94788,3.65375 4.0772,5.73086c1.14855,5.49078 -1.91817,11.54198 -8.52069,9.632c-4.26974,-1.23515 -9.04417,-5.3255 -12.23277,-8.52701c-1.14007,1.49364 -2.46056,3.51088 -4.04239,4.4074c-3.98459,2.25833 -12.85817,0.2913 -15.09211,-3.71873c-0.85536,-1.53541 -0.78396,-3.03277 -0.76274,-4.72379c0.45991,-1.12875 1.13882,-2.18209 1.97614,-3.08651c-2.17506,-4.32004 -0.99204,-7.86958 -0.99869,-12.4271c-0.00387,-2.65676 -0.65636,-5.46246 -0.10414,-8.10242c0.48103,-2.29964 1.46738,-3.06188 3.61124,-3.74875c1.34517,-0.13847 2.64225,-0.14883 3.9929,-0.14883zM250.75415,228.56542c-0.54485,-0.98046 -1.64283,-2.79775 -2.80258,-3.1712c-1.5316,-0.49318 -4.33886,0.06414 -5.97971,0.06414c-2.79337,0 -5.91085,0.08946 -8.56874,1.04825c-1.51509,0.54655 -2.17134,1.64813 -2.80236,2.98847c-2.00754,4.26421 -2.84805,7.41911 -2.38046,12.15101c0,5.67154 -0.85422,16.21779 5.368,19.03793c1.72598,0.78227 3.50383,0.44343 5.2613,1.40141c3.09713,3.05183 7.53116,7.09548 11.71969,8.42219c4.58064,1.45092 6.13719,-2.83709 5.47932,-6.368c-1.46221,-2.55113 -4.37749,-4.64071 -5.57286,-7.25344c-1.18461,-2.5892 1.13252,-5.73616 1.64494,-8.29572c0.1934,-0.96605 0.25057,-1.96678 0.25908,-2.9708c0.36291,-0.57133 0.26431,-1.26152 0.26431,-1.26152c-0.00298,-0.02085 -0.00596,-0.0417 -0.00894,-0.06255c0.16398,-0.92111 0.28153,-1.85326 0.34554,-2.82913c0.03832,-0.01947 0.07896,-0.03721 0.12205,-0.05295c0.41225,-4.12366 -0.50085,-9.52311 -2.34857,-12.84812zM235.36353,263.26874c-1.83801,-0.5292 -3.67123,-0.65551 -5.46894,-2.24828c-1.25884,-1.11533 -2.14186,-2.60989 -2.76027,-4.3121h-0.91248c-2.33524,-0.01135 -5.15375,1.84332 -6.02256,4.11139c0.0939,4.81205 4.47149,6.1391 8.77256,6.13861c0.94553,-0.0001 2.51132,0.1861 3.37259,-0.33113c1.14227,-0.68598 2.14343,-2.1496 3.01909,-3.35849zM221.68941,255.60632c1.35563,-0.86943 2.91257,-1.39138 4.53244,-1.39796h0.20857c-0.88272,-4.1456 -0.70702,-8.92615 -0.70702,-12.43773c-0.19274,-1.90272 -0.20322,-4.16475 0.08953,-6.43753c-1.0384,-0.00079 -2.05902,0.00161 -3.09819,0.10144c-2.2478,0.58568 -1.83599,3.29321 -1.74418,5.21719c0.23179,4.85724 -1.34067,10.39871 0.71884,14.9546z" data-paper-data="{&quot;index&quot;:null}" fill="#000000" stroke-width="0.5"/><path d="M244.02945,232.76621c0.13907,0.0267 0.23593,0.02603 0.23593,0.02603c4.13268,0 10.27029,-1.10008 14.08307,0.75894c1.89094,0.92198 1.96253,5.04151 0.96899,6.43182c-3.12483,4.29474 -8.72191,3.682 -13.64568,3.68371c-1.72924,0.0006 -3.96745,0.21416 -5.27623,-1.19384c-0.94981,-1.02182 -0.59301,-3.0403 -0.6122,-4.28233c0.78953,-2.14749 2.16504,-4.38617 4.24612,-5.42433z" data-paper-data="{&quot;noHover&quot;:false,&quot;origItem&quot;:[&quot;Path&quot;,{&quot;applyMatrix&quot;:true,&quot;segments&quot;:[[[239.90084,166.06497],[0.78953,-2.14749],[0.0192,1.24203]],[[240.50838,170.32677],[-0.94981,-1.02182],[1.30878,1.408]],[[245.76918,171.50163],[-1.72924,0.0006],[4.92377,-0.00171]],[[259.33593,167.84814],[-3.12483,4.29474],[0.99354,-1.39031]],[[258.37182,161.44966],[1.89094,0.92198],[-3.81279,-1.85902]],[[244.36918,160.70163],[4.13268,0],[0,0]],[[244.13387,160.67493],[0.13907,0.0267],[-2.08108,1.03816]]],&quot;closed&quot;:true}]}" fill="#9ddcff" stroke-width="0.5"/><path d="M261.21378,240.85927c0.24515,1.22573 -0.98058,1.47087 -0.98058,1.47087l-0.28345,0.02334c-6.06495,2.75213 -15.92772,2.90608 -21.82704,-0.62165c0,0 -1.07187,-0.64312 -0.42875,-1.71499c0.64312,-1.07187 1.71499,-0.42875 1.71499,-0.42875c5.20577,3.13517 14.17581,2.91624 19.50629,0.48946l0.82766,-0.19888c0,0 1.22573,-0.24515 1.47087,0.98058z" fill="#49bfff" stroke-width="0.5"/><path d="M242.36733,230.7978l0.08333,-0.02778c1.26765,-0.4158 2.83466,-0.56838 4.16239,-0.56838c0,0 0.0701,0 0.13607,0.03712c0.00371,-0.00134 0.00742,-0.00268 0.01112,-0.00403c5.17903,-0.29228 12.80639,-0.93258 14.96658,3.59733c0.62039,1.30095 0.54773,3.04343 0.52486,4.44457c-0.01761,1.07854 -0.36436,2.17698 -0.91675,3.10349c-0.89459,1.23056 -1.75742,2.64354 -3.14263,3.39818c-1.27906,0.69681 -2.99953,0.7266 -4.40719,0.9348c-4.07325,0.60246 -12.17038,1.86737 -15.22263,-1.6116c-1.52515,-1.73837 -1.21645,-4.22777 -1.19246,-6.3382c0.94978,-2.70823 2.45385,-5.23166 4.82315,-6.74774c0.00432,-0.16114 0.17416,-0.21775 0.17416,-0.21775zM239.83334,238.18998c0.0192,1.24203 -0.34226,3.23998 0.60754,4.2618c1.30878,1.408 3.53156,1.17546 5.2608,1.17486c4.92377,-0.00171 10.44193,0.64125 13.56676,-3.65349c0.99354,-1.39031 0.92683,-5.4765 -0.96411,-6.39848c-3.81279,-1.85902 -9.86996,-0.74803 -14.00265,-0.74803c0,0 -0.09624,0 -0.23531,-0.0267c-2.08108,1.03816 -3.44351,3.24255 -4.23303,5.39005z" fill="#000000" stroke-width="0.5"/><path d="M254.53667,234.73063c0,1.25 -1.25,1.25 -1.25,1.25l-0.25062,-0.0062c-1.34336,0.13274 -2.6501,0.1312 -3.99938,0.1312c0,0 -1.25,0 -1.25,-1.25c0,-1.25 1.25,-1.25 1.25,-1.25c1.26646,0 2.49051,0.00887 3.75062,-0.1188l0.49938,-0.0062c0,0 1.25,0 1.25,1.25z" fill="#ffffff" stroke-width="0.5"/></g></g></g></svg>