<svg version="1.1" xmlns="http://www.w3.org/2000/svg" xmlns:xlink="http://www.w3.org/1999/xlink" width="272.92788" height="272.92788" viewBox="0,0,272.92788,272.92788"><g transform="translate(-103.53606,-43.53606)"><g data-paper-data="{&quot;isPaintingLayer&quot;:true}" fill-rule="nonzero" stroke-linecap="butt" stroke-linejoin="miter" stroke-miterlimit="10" stroke-dasharray="" stroke-dashoffset="0" style="mix-blend-mode: normal"><path d="M103.53606,180c0,-75.36695 61.09699,-136.46394 136.46394,-136.46394c75.36695,0 136.46394,61.09699 136.46394,136.46394c0,75.36695 -61.09699,136.46394 -136.46394,136.46394c-75.36695,0 -136.46394,-61.09699 -136.46394,-136.46394z" fill="#2e2e2e" stroke="none" stroke-width="0"/><path d="M117.50481,180c0,-67.65223 54.84297,-122.49519 122.49519,-122.49519c67.65223,0 122.49519,54.84297 122.49519,122.49519c0,67.65223 -54.84297,122.49519 -122.49519,122.49519c-67.65223,0 -122.49519,-54.84297 -122.49519,-122.49519z" fill="#eeeeee" stroke="#c7d1d1" stroke-width="14"/><path d="M220.32211,146.19275v-57.01531h37.25v57.01531z" fill="#2e2e2e" stroke="none" stroke-width="0"/><path d="M274.17985,160.65144l57.01531,0l0,37.25l-57.01531,0z" fill="#2e2e2e" stroke="none" stroke-width="0"/><path d="M148.80485,160.63702l57.0153,-0.00001v37.25001h-57.0153z" fill="#2e2e2e" stroke="none" stroke-width="0"/><path d="M220.30769,270.82256v-57.0153h37.25v57.0153z" fill="#2e2e2e" stroke="none" stroke-width="0"/><path d="M252.75877,141.65424l37.19717,-37.19717l24.30215,24.30215l-37.19717,37.19717z" fill="#2e2e2e" stroke="none" stroke-width="0"/><path d="M163.91743,231.89943l37.19716,-37.19717l24.30215,24.30215l-37.19717,37.19716z" fill="#2e2e2e" stroke="none" stroke-width="0"/><path d="M289.92709,255.47081l-37.19717,-37.19716l24.30215,-24.30215l37.19717,37.19717z" fill="#2e2e2e" stroke="none" stroke-width="0"/><path d="M203.23478,166.62947l-37.19716,-37.19716l24.30215,-24.30215l37.19716,37.19717z" fill="#2e2e2e" stroke="none" stroke-width="0"/><path d="M168.74519,180.86975c0,-39.76052 32.23227,-71.99279 71.99279,-71.99279c39.76052,0 71.99279,32.23227 71.99279,71.99279c0,39.76052 -32.23227,71.99279 -71.99279,71.99279c-39.76052,0 -71.99279,-32.23227 -71.99279,-71.99279z" fill="#2e2e2e" stroke="none" stroke-width="0"/><path d="M205.97356,180c0,-18.79229 15.23416,-34.02644 34.02644,-34.02644c18.79229,0 34.02644,15.23416 34.02644,34.02644c0,18.79229 -15.23416,34.02644 -34.02644,34.02644c-18.79229,0 -34.02644,-15.23416 -34.02644,-34.02644z" fill="#eeeeee" stroke="none" stroke-width="0"/><path d="M126.81731,180c0,-62.50907 50.67362,-113.18269 113.18269,-113.18269c62.50907,0 113.18269,50.67362 113.18269,113.18269c0,62.50907 -50.67362,113.18269 -113.18269,113.18269c-62.50907,0 -113.18269,-50.67362 -113.18269,-113.18269z" fill="none" stroke="#2e2e2e" stroke-width="7.5"/></g></g></svg>