<svg version="1.1" xmlns="http://www.w3.org/2000/svg" xmlns:xlink="http://www.w3.org/1999/xlink" width="453.64285" height="54.65069" viewBox="0,0,453.64285,54.65069"><defs><linearGradient x1="1052.77264" y1="-1888.78583" x2="1052.77264" y2="-1653.53313" gradientUnits="userSpaceOnUse" id="color-1"><stop offset="0" stop-color="#005921"/><stop offset="1" stop-color="#00ff14"/></linearGradient><linearGradient x1="1052.77264" y1="-1888.78583" x2="1052.77264" y2="-1653.53313" gradientUnits="userSpaceOnUse" id="color-2"><stop offset="0" stop-color="#005921"/><stop offset="1" stop-color="#00ff14"/></linearGradient><linearGradient x1="243.02926" y1="206.58762" x2="243.02926" y2="223.32535" gradientUnits="userSpaceOnUse" id="color-3"><stop offset="0" stop-color="#555555"/><stop offset="1" stop-color="#c5c5c5"/></linearGradient><linearGradient x1="244.02926" y1="219.23734" x2="244.02926" y2="223.17563" gradientUnits="userSpaceOnUse" id="color-4"><stop offset="0" stop-color="#555555"/><stop offset="1" stop-color="#c5c5c5"/></linearGradient><linearGradient x1="236.73551" y1="184.70077" x2="236.73551" y2="217.27929" gradientUnits="userSpaceOnUse" id="color-5"><stop offset="0" stop-color="#ffffff"/><stop offset="1" stop-color="#ffffff" stop-opacity="0"/></linearGradient></defs><g transform="translate(-16.17857,-168.67465)"><g data-paper-data="{&quot;isPaintingLayer&quot;:true}" fill-rule="nonzero" stroke-linejoin="miter" stroke-miterlimit="10" stroke-dasharray="" stroke-dashoffset="0" style="mix-blend-mode: normal"><path d="" fill="url(#color-1)" stroke="#009c42" stroke-width="12.5" stroke-linecap="round"/><path d="" fill="url(#color-2)" stroke="#009c42" stroke-width="12.5" stroke-linecap="round"/><g stroke="none" stroke-width="0" stroke-linecap="butt"><g fill="url(#color-3)"><path d="M18.08337,223.32535l7.5,-17.73773l432.89171,-2.5l9.5,20.23773z"/></g><path d="M19.08337,223.17563v-3.93829h449.89171v3.93829z" fill="url(#color-4)"/><path d="M16.17857,220.90805c0,0 23.00861,-50.22816 25.16634,-50.22816c30.42513,0 404.65332,-1.40157 404.65332,-1.40157l23.82319,50.4503z" fill="#a3a3a3"/><path d="M16.94643,219.77929c0,0 21.00861,-49.12451 23.16634,-49.12451c30.42513,0 407.15332,-1.98012 407.15332,-1.98012l21.82319,52.27985z" fill="url(#color-5)"/></g></g></g></svg>