<svg xmlns="http://www.w3.org/2000/svg" xmlns:xlink="http://www.w3.org/1999/xlink" version="1.1" width="24.374000549316406" height="30.75" viewBox="0 0.050000011920928955 24.374000549316406 30.75">
  <defs>
    <linearGradient id="grad_1" x1="9.3926" y1="29.3438" x2="13.9756" y2="0.4076" gradientUnits="userSpaceOnUse">
      <stop offset="0" stop-color="#D68D00"/>
      <stop offset="0.5211" stop-color="#FFE600"/>
      <stop offset="0.7606" stop-color="#FFFFFF"/>
      <stop offset="1" stop-color="#FFE600"/>
    </linearGradient>
    <linearGradient id="grad_2" x1="8.4731" y1="9.2119" x2="19.8" y2="20.5387" gradientUnits="userSpaceOnUse">
      <stop offset="0" stop-color="#C96E00"/>
      <stop offset="1" stop-color="#F2C700"/>
    </linearGradient>
  <linearGradient id="grad_1-,0,0,1,0.5,0.55" x1="9.8926" y1="29.8938" x2="14.4756" y2="0.9576" gradientUnits="userSpaceOnUse">
      <stop offset="0" stop-color="#D68D00"/>
      <stop offset="0.5211" stop-color="#FFE600"/>
      <stop offset="0.7606" stop-color="#FFFFFF"/>
      <stop offset="1" stop-color="#FFE600"/>
    </linearGradient><linearGradient id="grad_2-,0,0,1,0.5,0.55" x1="8.9731" y1="9.7619" x2="20.3" y2="21.0887" gradientUnits="userSpaceOnUse">
      <stop offset="0" stop-color="#C96E00"/>
      <stop offset="1" stop-color="#F2C700"/>
    </linearGradient></defs>
  <!-- Exported by Scratch - http://scratch.mit.edu/ -->
  <g id="ID0.291697661858052">
    <g id="ID0.6164557291194797">
      <path id="ID0.39301236998289824" fill="url(#grad_1-,0,0,1,0.5,0.55)" d="M 9.564 29.797 C 4.764 29.647 1 23.334 1 15.425 C 1 7.547 4.748 1.235 9.532 1.053 C 9.61 1.051 14.586 1.05 14.636 1.05 C 19.454 1.05 23.375 7.499 23.375 15.425 C 23.375 23.352 19.454 29.8 14.636 29.8 C 14.636 29.8 9.633 29.799 9.564 29.797 Z " stroke-width="1"/>
      <path id="ID0.7526641241274774" fill="#B58015" d="M 14.636 1.55 C 19.187 1.55 22.875 7.762 22.875 15.425 C 22.875 23.088 19.187 29.3 14.636 29.3 C 14.584 29.3 9.636 29.299 9.584 29.297 C 5.104 29.157 1.5 23 1.5 15.425 C 1.5 7.867 5.087 1.722 9.551 1.553 C 9.614 1.551 14.572 1.55 14.636 1.55 M 14.636 0.55 C 14.586 0.55 9.61 0.55 9.52 0.553 C 4.459 0.745 0.5 7.277 0.5 15.425 C 0.5 23.606 4.476 30.138 9.552 30.296 C 9.631 30.3 14.586 30.3 14.635 30.3 C 19.816 30.3 23.874 23.766 23.874 15.425 C 23.875 7.084 19.816 0.55 14.636 0.55 L 14.636 0.55 Z " stroke-width="1"/>
    </g>
    <path id="ID0.4106632019393146" fill="url(#grad_2-,0,0,1,0.5,0.55)" d="M 14.636 5.688 C 16.231 5.688 17.677 6.779 18.724 8.542 C 19.771 10.304 20.419 12.739 20.419 15.425 C 20.419 18.111 19.771 20.546 18.724 22.308 C 17.677 24.071 16.231 25.162 14.636 25.162 C 13.041 25.162 11.595 24.071 10.548 22.308 C 9.501 20.546 8.853 18.111 8.853 15.425 C 8.853 12.739 9.501 10.304 10.548 8.542 C 11.595 6.779 13.041 5.688 14.636 5.688 Z " stroke-width="1"/>
    <path id="ID0.8419432905502617" fill="#D38700" d="M 13.572 6.659 C 15.008 6.659 16.309 7.641 17.252 9.228 C 18.194 10.815 18.777 13.007 18.777 15.425 C 18.777 17.843 18.194 20.035 17.252 21.622 C 16.309 23.209 15.008 24.191 13.572 24.191 C 12.136 24.191 10.835 23.209 9.892 21.622 C 8.95 20.035 8.367 17.843 8.367 15.425 C 8.367 13.007 8.95 10.815 9.892 9.228 C 10.835 7.641 12.136 6.659 13.572 6.659 Z " stroke-width="1"/>
    <path id="ID0.9167210618034005" fill="#D39901" stroke="#BF7400" stroke-width="0.2" d="M 14.636 1.55 C 10.085 1.55 6.396 7.762 6.396 15.425 C 6.396 23.088 10.085 29.3 14.636 29.3 C 19.187 29.3 22.875 23.088 22.875 15.425 C 22.875 7.762 19.187 1.55 14.636 1.55 Z M 14.636 25.162 C 11.442 25.162 8.853 20.803 8.853 15.425 C 8.853 10.046 11.442 5.688 14.636 5.688 C 17.83 5.688 20.419 10.046 20.419 15.425 C 20.419 20.803 17.83 25.162 14.636 25.162 Z "/>
  </g>
</svg>