<svg xmlns="http://www.w3.org/2000/svg" xmlns:xlink="http://www.w3.org/1999/xlink" version="1.1" width="173.07338256835936" height="185.2480041503906" viewBox="-0.1003848075866699 0.9559999942779541 173.07338256835936 185.2480041503906">
  <!-- Exported by Scratch - http://scratch.mit.edu/ -->
  <g id="ID0.5683259665966034">
    <path id="ID0.6269772984087467" fill="#FAA51D" stroke="#000000" stroke-width="1.2" d="M 49.042 142.149 C 45.657 142.15 42.803 139.528 42.564 136.1 L 41.381 119.115 C 41.16 115.941 43.269 113.074 46.364 112.34 L 66.66 107.525 C 70.154 106.693 73.656 108.855 74.485 112.348 C 75.314 115.841 73.154 119.345 69.662 120.173 L 54.732 123.715 L 55.532 135.198 C 55.781 138.779 53.08 141.885 49.499 142.134 C 49.347 142.144 49.194 142.149 49.042 142.149 L 49.042 142.149 Z "/>
    <path id="ID0.4675603983923793_1_" fill="#FAA51D" stroke="#231F20" stroke-width="1.2" d="M 98.174 17.203 C 95.342 16.94 89.439 16.622 86.188 16.778 C 77.494 17.192 69.226 20.323 69.226 20.323 L 45.287 4.7 L 49.396 39.468 C 50.584 38.029 29.986 63.013 42.999 84.014 C 56.02 105.026 83.885 114.389 118.373 107.537 C 152.863 100.68 161.09 80.815 158.805 70.307 C 156.52 59.799 143.5 55.92 143.5 55.92 C 143.5 55.92 143.335 47.682 137.38 37.586 C 133.838 31.576 122.028 22.799 122.028 22.799 L 116.77 1.556 L 103.067 14.804 L 98.174 17.203 L 98.174 17.203 Z "/>
    <path id="ID0.876089540310204_1_" fill="#FFFFFF" d="M 141.777 55.655 L 137.213 51.86 L 120.451 56.753 C 120.451 56.753 120.451 63.041 112.421 64.783 C 104.385 66.533 91.805 60.596 91.805 60.596 L 77.489 66.88 C 77.489 66.88 61.973 68.585 61.419 78.062 C 60.181 99.124 86.023 107.904 95.815 108.463 C 101.158 108.771 110.959 107.841 118.392 106.364 C 151.037 100.417 159.861 80.768 157.58 70.257 C 155.296 59.749 142.908 57.025 142.908 57.025 L 141.777 55.655 L 141.777 55.655 Z " stroke-width="1"/>
    <path id="ID0.44282719027251005_1_" fill="none" stroke="#231F20" stroke-width="1.2" d="M 20.873 76.047 C 20.873 76.047 28.426 76.735 31.859 76.54 C 35.289 76.344 41.959 75.461 41.959 75.461 "/>
    <path id="ID0.893105489667505_1_" fill="none" stroke="#231F20" stroke-width="1.2" d="M 151.406 65.963 C 151.406 65.963 159.771 64.596 164.019 63.113 C 169.011 61.382 172.373 58.433 172.373 58.433 "/>
    <path id="ID0.03574043000116944_1_" fill="none" stroke="#231F20" stroke-width="1.2" d="M 42.322 68.239 C 42.322 68.239 37.938 64.97 31.074 61.931 C 23.471 58.564 19.296 57.696 19.296 57.696 "/>
    <path id="ID0.6674723788164556_1_" fill="none" stroke="#231F20" stroke-width="1.2" d="M 152.253 76.906 C 152.253 76.906 157.267 78.935 162.428 79.453 C 167.523 79.961 170.972 79.655 170.972 79.655 "/>
    <path id="ID0.12165586883202195_1_" fill="none" stroke="#000000" stroke-linecap="round" d="M 97.514 17.306 C 102.736 18.593 104.661 20.007 104.661 20.007 " stroke-width="1"/>
    <path id="ID0.178104005753994_1_" fill="none" stroke="#000000" d="M 63.582 16.335 L 74.723 24.349 " stroke-width="1"/>
    <path id="ID0.7735752793960273_1_" fill="#FFFFFF" stroke="#231F20" d="M 133.355 37.817 C 138.732 46.053 138.932 55.455 133.8 58.808 C 128.663 62.164 120.144 58.199 114.759 49.957 C 109.365 41.719 109.175 32.324 114.311 28.966 C 119.443 25.614 127.972 29.575 133.355 37.817 L 133.355 37.817 Z " stroke-width="1"/>
    <path id="ID0.19106501014903188_1_" fill="#231F20" d="M 131.974 50.978 C 131.974 52.963 130.499 54.575 128.663 54.575 C 126.837 54.575 125.348 52.963 125.348 50.978 C 125.348 48.992 126.837 47.376 128.663 47.376 C 130.5 47.376 131.974 48.991 131.974 50.978 " stroke-width="1"/>
    <path id="ID0.06283409334719181_1_" fill="#FFFFFF" stroke="#231F20" d="M 89.27 43.8 C 94.651 52.038 94.085 61.936 88.017 65.895 C 81.945 69.866 72.661 66.395 67.282 58.157 C 61.898 49.919 62.457 40.025 68.529 36.058 C 74.603 32.093 83.884 35.558 89.27 43.8 L 89.27 43.8 Z " stroke-width="1"/>
    <path id="ID0.716460831463337_1_" fill="#231F20" d="M 85.982 54.627 C 85.982 56.615 84.505 58.227 82.669 58.227 C 80.845 58.227 79.355 56.612 79.355 54.627 C 79.355 52.642 80.845 51.028 82.669 51.028 C 84.501 51.028 85.982 52.642 85.982 54.627 " stroke-width="1"/>
    <path id="ID0.5430324394255877_1_" fill="#5E4A42" stroke="#000000" d="M 111.152 60.914 C 114.561 60.914 119.528 60.393 119.789 61.961 C 120.053 63.533 116.646 69.69 114.295 69.951 C 111.936 70.213 103.031 65.624 102.902 62.744 C 102.766 59.865 108.005 60.914 111.152 60.914 L 111.152 60.914 Z " stroke-width="1"/>
    <path id="ID0.5547774969600141_1_" fill="none" stroke="#231F20" stroke-width="1.2" d="M 87.26 74.356 C 87.26 74.356 106.287 79.972 113.404 81.522 C 120.517 83.071 133.359 84.62 133.359 84.62 C 133.359 84.62 118.666 103.46 101.494 98.677 C 84.322 93.9 84.632 83.072 87.26 74.356 L 87.26 74.356 Z "/>
    <path id="ID0.9637372624129057" fill="#FAA51D" stroke="#000000" stroke-width="1.2" d="M 112.949 173.605 C 112.869 173.605 112.788 173.604 112.707 173.601 L 91.69 172.934 C 88.89 172.845 86.373 171.203 85.163 168.675 C 83.954 166.148 84.254 163.156 85.942 160.92 L 95.928 147.686 L 82.408 145.01 C 78.345 144.205 75.703 140.259 76.507 136.197 C 77.311 132.134 81.259 129.496 85.32 130.296 L 110.578 135.296 C 113.112 135.798 115.209 137.567 116.13 139.981 C 117.05 142.393 116.664 145.11 115.109 147.171 L 106.634 158.4 L 113.183 158.608 C 117.323 158.739 120.573 162.202 120.441 166.342 C 120.312 170.401 116.981 173.605 112.949 173.605 L 112.949 173.605 Z "/>
    <path id="ID0.7152078151702881_1_" fill="#FAA51D" stroke="#000000" d="M 42.474 138.367 C 37.961 138.589 32.428 138.284 27.132 135.397 C 15.29 128.939 8.726 115.202 2.72 120.577 C -3.29 125.955 2.412 149.317 25.836 151.357 C 33.91 152.064 40.738 150.449 46.236 148.982 C 47.675 148.59 59.761 144.526 62.532 137.401 C 65.3 130.278 61.999 129.453 60.35 128.952 C 58.703 128.454 48.856 138.053 42.474 138.367 L 42.474 138.367 Z " stroke-width="1"/>
    <path id="ID0.4691764716990292_1_" fill="#FFFFFF" d="M 3.838 120.794 C 0.54 122.737 0.464 131.044 3.735 136.855 C 7.006 142.674 10.587 144.718 13.371 146.656 C 16.547 147.863 11.06 142.666 14.04 138.652 C 17.008 134.649 23.905 134.577 23.905 134.577 C 23.905 134.577 17.005 128.682 13.007 125.08 C 9.211 121.615 7.422 118.991 3.838 120.794 L 3.838 120.794 Z " stroke-width="1"/>
    <path id="ID0.26425604708492756_1_" fill="#FAA51D" stroke="#231F20" stroke-width="1.2" d="M 86.532 141.986 C 88.717 140.308 90.94 137.568 93.799 133.318 C 96.182 129.775 98.764 123.061 98.764 123.061 C 100.372 118.425 102.321 110.968 95.266 109.644 C 92.411 109.109 87.765 109.464 81.162 108.217 C 74.555 106.964 68.661 103.579 63.661 112.323 C 58.663 121.071 46.025 127.532 61.719 142.781 L 86.532 141.986 Z "/>
    <path id="ID0.6215196419507265" fill="#FAA51D" stroke="#000000" stroke-width="1.2" d="M 44.644 185.604 L 30.522 185.604 C 28.9 185.604 27.321 185.078 26.023 184.105 L 16.686 177.105 C 14.502 175.467 13.38 172.773 13.756 170.07 C 14.133 167.367 15.947 165.082 18.495 164.103 L 47.275 153.047 L 55.161 133.401 C 56.704 129.557 61.074 127.691 64.915 129.235 C 68.759 130.778 70.624 135.144 69.081 138.989 L 59.977 161.67 C 59.201 163.605 57.653 165.13 55.706 165.877 L 43.401 170.604 L 44.642 170.604 C 48.785 170.604 52.142 173.961 52.142 178.104 C 52.142 182.247 48.787 185.604 44.644 185.604 L 44.644 185.604 Z "/>
    <path id="ID0.203311821911484_1_" fill="#FFFFFF" d="M 94.807 129.89 C 94.807 129.89 99.349 124.998 90.267 120.112 C 81.185 115.226 77.002 120.081 74.197 122.909 C 69.335 127.792 80.528 135.067 80.528 135.067 L 86.369 140.959 C 86.369 140.959 89.564 137.931 90.965 135.481 C 92.57 133.248 94.807 129.89 94.807 129.89 " stroke-width="1"/>
    <path id="ID0.20993915991857648" fill="#FAA51D" d="M 70.0689 128.8365 C 71.9982 130.7354 73.0758 133.1375 73.2577 135.4845 C 73.4389 137.8322 72.7259 140.1234 71.0739 141.8018 C 69.4218 143.4802 67.1423 144.2294 64.792 144.0854 C 62.4424 143.9407 60.0236 142.9012 58.0943 141.0023 C 56.165 139.1033 55.0874 136.7012 54.9054 134.3542 C 54.7242 132.0065 55.4372 129.7153 57.0893 128.0369 C 58.7413 126.3585 61.0209 125.6093 63.3711 125.7533 C 65.7207 125.8981 68.1396 126.9375 70.0689 128.8365 Z " stroke-width="1.0000217754203118"/>
    <path id="ID0.8527859235182405" fill="#FAA51D" stroke="#000000" stroke-width="1.2" d="M 100.096 139.604 C 98.096 139.604 96.16 138.679 94.908 137.021 L 82.509 120.603 C 80.345 117.739 80.913 113.663 83.779 111.499 C 86.642 109.335 90.719 109.903 92.883 112.769 L 102.465 125.457 L 118.165 120.2 C 121.567 119.063 125.252 120.895 126.393 124.301 C 127.533 127.705 125.697 131.389 122.292 132.529 L 102.159 139.269 C 101.481 139.494 100.785 139.604 100.096 139.604 L 100.096 139.604 Z "/>
  </g>
</svg>