<svg xmlns="http://www.w3.org/2000/svg" xmlns:xlink="http://www.w3.org/1999/xlink" version="1.1" width="97" height="71.54619598388672" viewBox="0 -0.19999998807907104 97 71.54619598388672">
  <!-- Exported by Scratch - http://scratch.mit.edu/ -->
  <path id="ID0.4177084397524595_2_" fill="none" d="M 1.027 0.3 L 96.171 0.3 L 96.171 70.8462 L 1.027 70.8462 L 1.027 0.3 Z " stroke-width="0.9775970214933396"/>
  <path id="ID0.7840548576787114" fill="#FBB03B" stroke="#FF00FF" d="M 96.5 19.161 C 96.5 22.375 93.285 24.979 89.32 24.979 L 7.68 24.979 C 3.715 24.979 0.5 22.375 0.5 19.161 L 0.5 9.437 C 0.5 6.224 3.715 3.619 7.68 3.619 L 89.32 3.619 C 93.285 3.619 96.5 6.223 96.5 9.437 L 96.5 19.161 Z " stroke-width="1"/>
  <path id="ID0.19409132888540626" fill="#FFD594" d="M 4.874 19.714 C 4.263 19.11 3.904 18.402 3.904 17.644 L 3.904 10.956 C 3.904 8.746 6.891 6.954 10.575 6.954 L 86.425 6.954 C 87.812 6.954 89.1 7.208 90.167 7.643 L 94.342 5.284 C 93.047 4.255 91.276 3.62 89.32 3.62 L 7.68 3.62 C 3.715 3.62 0.5 6.224 0.5 9.438 L 0.5 19.162 C 0.5 20.096 0.778 20.975 1.261 21.757 L 4.874 19.714 Z " stroke-width="1"/>
  <path id="ID0.8169588991440833" fill="#CC8310" d="M 96.104 7.543 L 92.636 9.502 C 92.929 9.953 93.096 10.441 93.096 10.954 L 93.096 17.642 C 93.096 19.853 90.109 21.644 86.425 21.644 L 10.575 21.644 C 9.6 21.644 8.677 21.516 7.842 21.29 L 3.38 23.813 C 4.58 24.542 6.066 24.98 7.68 24.98 L 89.32 24.98 C 93.285 24.98 96.5 22.376 96.5 19.162 L 96.5 9.438 C 96.5 8.773 96.356 8.138 96.104 7.543 Z " stroke-width="1"/>
  <path id="ID0.08539461996406317" fill="none" stroke="#000000" d="M 96.5 19.161 C 96.5 22.375 93.285 24.979 89.32 24.979 L 7.68 24.979 C 3.715 24.979 0.5 22.375 0.5 19.161 L 0.5 9.437 C 0.5 6.224 3.715 3.619 7.68 3.619 L 89.32 3.619 C 93.285 3.619 96.5 6.223 96.5 9.437 L 96.5 19.161 Z " stroke-width="1"/>
</svg>