<svg version="1.1" xmlns="http://www.w3.org/2000/svg" xmlns:xlink="http://www.w3.org/1999/xlink" width="271.24489" height="397.86138" viewBox="0,0,271.24489,397.86138"><g transform="translate(-93.83147,48.68908)"><g data-paper-data="{&quot;isPaintingLayer&quot;:true}" fill-rule="nonzero" stroke="none" stroke-width="0.5" stroke-linecap="butt" stroke-linejoin="miter" stroke-miterlimit="10" stroke-dasharray="" stroke-dashoffset="0" style="mix-blend-mode: normal"><path d="M181.17089,96.73926c-1.73926,5.21776 -6.95702,3.4785 -6.95702,3.4785l-3,-1c0,0 -5.21776,-1.73925 -3.4785,-6.95701c1.73926,-5.21776 6.95702,-3.4785 6.95702,-3.4785l3,1c0,0 5.21776,1.73926 3.4785,6.95701z" fill="#ffffff"/><path d="M240.45313,96c0,-3.03757 2.46243,-5.5 5.5,-5.5c3.03757,0 5.5,2.46243 5.5,5.5c0,3.03757 -2.46243,5.5 -5.5,5.5c-3.03757,0 -5.5,-2.46243 -5.5,-5.5z" fill="#ffffff"/><path d="M113.39058,214.53989c-0.53259,-4.65551 1.62313,-11.32398 3.92941,-15.11152c0.85786,-1.40883 4.21324,-4.68614 5.7943,-6.26719c0.37486,-0.37486 0.85039,-1.11991 1.29587,-1.55977c0.09743,-2.61391 1.84393,-6.99645 1.99447,-7.38494c2.26901,-5.85574 4.55937,-11.71236 6.82493,-17.55328c2.59489,-6.68998 3.4423,-14.06969 6.29214,-20.72009c3.77523,-8.80989 11.28323,-15.25611 13.53777,-24.78895c1.15272,-2.67843 2.02945,-5.49332 3.45815,-8.03527c0.672,-1.19563 1.91916,-1.96699 2.76874,-3.04372c8.62333,-10.9289 19.50534,-19.89029 33.10494,-24.05693c2.96057,-0.90705 6.09094,-1.16482 9.06699,-2.01971c2.57217,-0.73887 4.7708,-1.88841 7.49256,-2.3371c1.19684,-0.1973 2.45102,0.31192 3.63844,0.06414c2.90584,-0.60639 5.4469,-2.50164 8.36156,-3.06414c0.98188,-0.18949 2.02382,0.21693 3,0c2.05799,-0.45733 3.94201,-1.54267 6,-2c1.97931,-0.43985 4.07646,-0.35882 6,-1c7.14787,-0.23064 14.23189,-0.8475 21.0592,1.90716c0.92685,0.37396 7.77966,4.90476 8.86794,5.76466c0.9259,0.73159 1.48598,1.96472 2.56703,2.43784c5.57027,2.4378 11.59333,6.49372 15.14124,11.6573c0.82695,1.20353 0.94528,2.77241 1.59581,4.07975c1.4448,2.90354 3.6688,5.37208 5.12747,8.26869c3.91306,7.77048 6.56809,16.03894 10.36716,23.88638c1.18705,4.49762 3.03376,9.20187 3.68278,13.80954c0.16392,1.16374 -0.23397,2.3616 -0.06775,3.52501c0.14909,1.0435 0.8486,1.95684 1,3c0.6039,4.16091 0.16141,8.79741 0.16141,13.00228c0,1.73092 0.043,7.59389 -0.16141,9.00228c-0.1514,1.04316 -0.82556,1.96044 -1,3c-0.38612,2.30116 0.37969,4.69777 0,7c-0.49286,2.98845 -2.53686,6.0658 -3,9c-0.2409,1.52617 0.10618,3.15177 -0.37495,4.62002c-0.57971,1.76908 -1.92382,3.19383 -2.73471,4.8696c-0.63605,1.31445 -0.85244,2.82287 -1.59581,4.07975c-0.78036,1.31942 -2.08845,2.42021 -2.40419,3.92025c-1.55476,2.37131 -3.5322,4.44663 -5.08841,6.81698c-2.13016,3.24456 -3.67485,7.02104 -6.55311,9.62496c-1.07787,0.97513 -2.72,1.0408 -4.01578,1.6993c-0.10021,0.05093 0.34668,0.12622 0.2672,0.2057c-1.34589,1.34589 -2.65715,2.77912 -4.2672,3.7943c-1.45407,0.91684 -3.21209,1.22897 -4.78809,1.91536c-2.2276,0.97017 -4.06833,2.70054 -6.29165,3.68044c-3.11113,1.37121 -6.58906,1.77111 -9.96461,2.1774c-6.07298,0.73098 -11.88033,4.12621 -18,5c-4.95579,0.70761 -10.52993,0.09366 -15.52729,0.09366c-2.69397,-0.08693 -5.34407,-0.71537 -8.00228,-1.16141c-2.30116,-0.38612 -4.69086,0.33514 -7,0c-1.04316,-0.1514 -1.96044,-0.82557 -3,-1c-1.89881,-0.31861 -3.85632,0.30406 -5.77444,0.13725c-4.08344,-0.35512 -8.17564,-0.61201 -12.25428,-1.01843c-5.52344,-0.5504 -10.99178,-1.6886 -16.53543,-1.97025c-9.12714,-0.46372 -18.1258,-0.8018 -27.2277,-2.11658c-4.63503,-0.66953 -9.09329,-2.32911 -13.73316,-2.96423c-2.82913,-0.38726 -5.68969,-0.72987 -8.42556,-1.5478c0,0 -11.85854,-3.95284 -7.9057,-15.81139c0.8183,-2.45492 1.97542,-4.23223 3.296,-5.50727zM260.78576,202.5c0.27127,0 0.54253,0 0.81379,0c0.01131,-0.19103 0.02275,-0.38205 0.0334,-0.57299c-0.27894,0.19663 -0.56157,0.38763 -0.84719,0.57299z" fill="#00ffff"/><path d="M164.50514,77.9262c-5.60543,-7.34838 -6.56482,-17.32698 -5.39061,-26.42848c0.13487,-1.04543 0.82557,-1.96044 1,-3c0.42921,-2.55795 -0.7195,-4.57971 -1,-6.99544c-0.26928,-2.31913 -0.19277,-4.66778 -0.16141,-7.00228c0.02634,-1.9603 -0.13195,-3.96771 0.33439,-5.87191c0.47462,-1.93797 1.5218,-3.69457 2.44204,-5.46492c0.06215,-0.11957 0.2646,0.46518 0.22357,0.33683c-1.80671,-5.65176 0.08418,-10.2746 0.33439,-15.87191c1.48763,-3.28291 3.24674,-6.43648 4.93667,-9.61998c1.17853,-2.22012 1.35998,-4.89099 2.5958,-7.07975c0.60673,-1.07458 1.80559,-1.71213 2.49261,-2.73724c2.46664,-3.68047 3.85988,-7.96488 7.05985,-11.28131c1.44104,-1.49348 3.30223,-2.51731 4.89065,-3.85299c3.56859,-3.00077 6.31653,-6.28975 10.25627,-8.95745c5.69423,-3.85571 11.33968,-7.30565 18.40646,-8.00572c6.00424,-0.59481 12.75145,0.83512 18.48013,2.54781c1.51615,0.75119 3.3744,0.28066 5.04944,0.51994c1.0435,0.14907 1.96266,0.81282 3,1c1.52051,0.27436 3.16639,-0.14871 4.62002,0.37494c5.35781,1.9301 11.73355,6.74437 15.01083,11.39201c0.60746,0.86146 0.57451,2.0356 1,3c0.04537,0.10283 0.11364,-0.33169 0.2057,-0.2672c1.74813,1.22458 3.51651,2.46546 5,4c3.63493,3.76001 5.54075,8.91714 8.82794,12.91398c1.24696,1.51615 3.00773,2.64014 3.96636,4.35322c1.77593,3.1736 2.10759,6.98213 2.70546,10.56936c0.17329,1.03975 0.8486,1.95683 1,3c0.19365,1.33432 0.16141,6.13172 0.16141,8.00228c0,6.77096 0.93943,14.32746 -0.16141,21.00228c-0.77405,4.69336 -3.07113,9.3904 -5.15825,13.58789c-1.55116,3.11959 -2.54288,6.51579 -4.28328,9.5339c-1.11228,1.92884 -2.41058,3.76779 -3.88524,5.43925c0.09361,0.35779 0.08358,0.74875 -0.04816,1.05899c-1.1039,2.59964 -2.68131,4.98595 -4.29687,7.30256c-5.85498,8.39566 -15.79889,13.22448 -25.45842,15.15639c-3.51705,1.19277 -7.56087,2.68344 -11.20607,3.25735c-1.31711,0.20737 -2.68007,-0.18856 -4,0c-1.0435,0.14907 -1.95457,0.86513 -3,1c-2.97657,0.38402 -6.0746,0.82182 -9.00228,0.16141c-0.04321,-0.00974 -0.05006,-0.03412 -0.03217,-0.06754c-0.74627,0.59469 -1.44043,1.29261 -2.34553,1.53119c-3.77551,0.99519 -8.65148,0.53635 -12.6223,0.53635c-7,0 -14,0 -21,0c0,0 -12.5,0 -12.5,-12.5c0,-2.75312 0.60638,-4.89988 1.55202,-6.5738z" fill="#00f7f7"/><path d="M290.59459,175.54716c3.95285,-11.85854 15.81139,-7.9057 15.81139,-7.9057c7.07509,2.8022 12.49007,7.49219 18.23717,12.41537c4.70262,4.02844 10.45447,7.79552 14.47675,12.51832c2.67856,3.14505 5.08213,6.56344 7.7764,9.73484c3.38268,3.98172 8.44348,7.10792 11.18996,11.61838c1.04769,1.7206 1.48361,3.74587 2.22541,5.6188c1.66794,5.00381 3.86332,10.17495 4.5478,15.42556c0.8514,6.53104 -1.01148,11.79606 -2,18.05458c-0.36403,2.30476 0.30163,4.68624 0,7c-0.61841,4.74376 -3.30713,8.92843 -4.06775,13.47499c-0.3755,2.24452 0.04017,4.66242 -0.7901,6.78127c-1.40904,3.59591 -5.55952,6.60846 -7.47625,10.01779c-0.65924,1.1726 -0.7051,2.64301 -1.43911,3.77031c-2.0082,3.0842 -5.76923,5.97145 -8.4744,8.30586c-10.14889,3.23479 -20.88417,5.91422 -31.68602,4.52884c-1.3632,-0.17483 -2.63891,-0.80942 -4,-1c-4.38677,-0.61426 -9.04818,0.66233 -13.47499,-0.06775c-5.68682,-0.93789 -11.42492,-3.62425 -16.27181,-6.52722c-1.97746,-1.18437 -4.21089,-1.98516 -5.99845,-3.4404c-1.12862,-0.91881 -1.54295,-2.49737 -2.5663,-3.53214c-0.56084,-0.56709 -1.49977,-0.63129 -2.08603,-1.17206c-2.72749,-2.51589 -4.95238,-5.71919 -6.30408,-9.17488c-1.24034,-1.86052 -2.03822,-3.98134 -3,-6c-1.03387,-2.16999 -2.93128,-3.84695 -4,-6c-1.83715,-3.70113 -2.08557,-8.39715 -4,-12c-2.85608,-5.37497 -6.60813,-12.11918 -6.10966,-18.48961c0.32164,-4.11054 -1.19201,-8.95147 1.19807,-12.31116c2.02373,-2.8447 6.03257,-3.27553 9.47429,-4.39642c-0.11661,-0.21642 0.46767,-0.7338 0.74137,-0.96148c0.92395,-0.76861 2.06151,-1.24921 3,-2c2.94262,-2.3541 5.81886,-4.61902 8.99111,-6.73386c2.82995,-1.88663 8.23761,-4.73878 9.70481,-8.09126c0.58546,-1.33775 0.83195,-2.83522 1.59581,-4.07975c0.90531,-1.475 2.71031,-2.33478 3.40419,-3.92025c0.58546,-1.33775 0.85244,-2.82287 1.59581,-4.07975c0.47996,-0.8115 1.43662,-1.24403 2,-2c1.25977,-1.69039 0.8546,-4.23012 2,-6c0.63778,-0.9855 1.40607,-1.86819 2.24984,-2.68716c0.78964,-0.89646 1.70572,-1.67884 2.72036,-2.31929c0.02596,-1.32102 0.27148,-2.77604 0.80439,-4.37475z" fill="#fff81f"/><path d="M122.96169,220.81139c0.64326,-0.46553 1.36791,-0.94872 2.18256,-1.45191c4.7894,-2.9583 11.30013,-0.23371 16.88052,0.50739c0.93461,0.12412 1.24403,1.43661 2,2c0.79933,0.5957 1.9642,0.35941 2.9232,0.63164c3.89013,1.10427 7.83864,1.84517 11.50744,3.6629c4.69151,-0.12589 9.02965,1.6291 13.77444,1.86275c6.00198,0.29557 12.01334,0.47947 18,1c5.02299,0.43674 9.85777,-0.73507 14.71812,1.47434c3.39873,1.545 7.40516,2.70625 9.64568,5.69262c2.99754,3.99538 2.35948,11.3047 2.35948,16.30888c0,2.15779 -0.39288,4.33576 -0.09366,6.47271c0.19058,1.36109 0.84327,2.6346 1,4c0.38014,3.31158 -0.35455,6.68557 0,10c0.14619,1.36657 0.82516,2.6368 1,4c0.57088,4.45114 0.09723,9.27864 0.03282,13.75901c-1.18913,5.94565 -2.11236,11.88115 -3.10057,17.77056c-0.33095,1.97239 0.19726,3.99808 0.16141,5.99772c-0.09492,5.29402 0.17298,5.49404 -1.9515,10.78355c-2.20588,5.49217 -5.45511,10.00406 -9.70966,14.05529c-1.37842,1.31255 -2.59881,2.87814 -4.26719,3.7943c-3.18772,1.75046 -6.97552,2.14872 -10.56936,2.70546c-4.07564,0.63138 -8.30458,2.50932 -12.47499,3.06775c-4.01603,0.53776 -8.47532,0.09366 -12.52729,0.09366c-3.8958,0 -8.17201,0.33275 -12.00228,-0.16141c-1.04543,-0.13488 -1.9565,-0.85093 -3,-1c-1.31993,-0.18856 -2.69292,0.2633 -4,0c-2.46756,-0.49707 -4.77406,-1.60833 -7.20607,-2.25735c-5.8652,-1.5652 -8.09406,-0.58304 -14.36329,-4.44811c-2.43232,-1.49956 -4.30509,-3.80764 -6.06149,-6.06149c-0.64793,-0.83144 -0.57451,-2.0356 -1,-3c-0.04537,-0.10284 -0.13295,0.35287 -0.2057,0.2672c-1.6552,-1.94909 -3.63217,-3.73632 -4.70966,-6.05529c-0.81958,-1.76389 -0.42375,-3.87108 -0.7901,-5.78127c-0.39709,-2.07045 -1.65694,-3.91992 -2,-6c-1.04443,-6.33284 -0.16141,-13.57986 -0.16141,-20.00228c0,-1.97839 0.55711,-5.11133 0.16141,-6.99772c-0.2164,-1.03164 -0.8486,-1.95684 -1,-3c-0.36907,-2.54291 0.53297,-6.45926 0,-9c-0.2164,-1.03164 -0.8486,-1.95684 -1,-3c-0.61925,-4.26677 0.58683,-8.80296 0,-13c-0.70888,-5.06996 -2.54918,-10.32525 -3.06775,-15.47499c-0.55026,-5.46435 1.01667,-9.45259 2.27957,-14.55899c0,0 3.03169,-12.12678 15.15847,-9.09508c0.51964,0.12991 1.01145,0.27652 1.47687,0.43816zM171.34786,305.22378c0.62914,-0.19454 1.25419,-0.36752 1.86164,-0.51395c0.04575,-0.4102 0.01301,-0.83664 -0.03229,-1.26711c-0.30155,0.30559 -0.59715,0.60447 -0.88524,0.89612c-0.32457,0.28008 -0.63668,0.57898 -0.9441,0.88494z" fill="#fff81f"/><path d="M176.95313,14.5c0,-6.90356 5.59644,-12.5 12.5,-12.5c6.90356,0 12.5,5.59644 12.5,12.5c0,6.90356 -5.59644,12.5 -12.5,12.5c-6.90356,0 -12.5,-5.59644 -12.5,-12.5z" fill="#ffffff"/><path d="M229.95313,12.5c0,-6.90356 5.59644,-12.5 12.5,-12.5c6.90356,0 12.5,5.59644 12.5,12.5c0,6.90356 -5.59644,12.5 -12.5,12.5c-6.90356,0 -12.5,-5.59644 -12.5,-12.5z" fill="#ffffff"/><path d="M185.95313,14.5c0,-1.38071 1.11929,-2.5 2.5,-2.5c1.38071,0 2.5,1.11929 2.5,2.5c0,1.38071 -1.11929,2.5 -2.5,2.5c-1.38071,0 -2.5,-1.11929 -2.5,-2.5z" fill="#000000"/><path d="M239.95313,12.5c0,-1.38071 1.11929,-2.5 2.5,-2.5c1.38071,0 2.5,1.11929 2.5,2.5c0,1.38071 -1.11929,2.5 -2.5,2.5c-1.38071,0 -2.5,-1.11929 -2.5,-2.5z" fill="#000000"/><path d="M165.95313,61.5c0,-0.19295 0.01489,-0.37101 0.04238,-0.53533c-0.00343,-0.02137 -0.0068,-0.04278 -0.0101,-0.06422c-0.39873,-2.59108 0.56901,-5.215 1,-7.80091c0.55471,-3.32827 0.87061,-6.10669 2.09601,-9.39011c0.49982,-1.33925 0.56796,-2.99224 1.60394,-3.9772c1.65316,-1.57174 7.64265,-2.75406 9.53553,-1c1.03658,0.96056 0.62811,2.68802 0.67973,4.17131l1.0525,2.59645c-0.01076,0.86651 -0.14715,1.74061 -0.03228,2.59954c0.12502,0.93486 0.36058,1.59439 0.68795,2.0555c0.71109,-0.26666 1.97894,-0.46007 2.92446,0.95821c0.00916,0.01375 0.01818,0.02746 0.02704,0.04115c0.87482,-0.03747 1.85651,-0.16037 2.89284,-0.1544c0.16737,0.00096 0.33371,0.00505 0.49908,0.01061c0.00009,-0.77404 0.00092,-1.36871 0.00092,-1.51061c0,0 0,-2.5 2.5,-2.5c2.5,0 2.5,2.5 2.5,2.5c0,0.09628 0.0005,0.19227 0.00148,0.28798c1.00662,-0.80409 2.00004,-1.88947 2.9125,-3.06814c-0.46212,0.03685 -0.95084,0.23703 -1.41398,0.28017c0,0 -2.5,0 -2.5,-2.5c0,-2.5 2.5,-2.5 2.5,-2.5c1.3189,0.06343 2.72071,-0.27428 3.95671,0.1903c0.10834,0.04072 0.21004,0.09175 0.30644,0.15106c0.17791,-0.3261 0.34214,-0.64086 0.49107,-0.93974c0.50619,-1.01592 0.53252,-2.24426 1.11916,-3.21595c0.86759,-1.43704 3.19537,-2.64075 3.7339,-4.41013c0.02789,-0.09162 0.04722,-0.18426 0.05969,-0.27773c-0.27776,-0.56719 -0.25883,-1.10659 -0.13012,-1.5559c-0.03537,-0.28382 -0.05105,-0.56616 -0.00456,-0.84236c0.19712,-1.17115 0.73067,-2.26008 1.09601,-3.39011c0,0 0.79057,-2.37171 3.16228,-1.58114c1.56002,0.52001 1.75188,1.7241 1.70048,2.48736c2.50036,0.70182 4.83256,1.41759 7.50895,1.38435c3.64628,0.17537 5.28451,-0.63461 7.3097,3.54329c1.68384,3.47371 -0.13804,7.46244 -1.24263,10.99216l0.169,2.08259c0,0 -0.28241,0.56482 -0.84723,0.98478c-0.1095,1.75456 0.36796,3.5578 0.07888,5.29764c-0.59576,3.58557 -2.46917,9.80926 -4.34109,12.91387c-1.81872,3.01638 -5.33018,5.49467 -8.72617,6.15339c-0.9817,0.19042 -2.01361,-0.1644 -3,0c-1.03975,0.17329 -1.95936,0.83216 -3,1c-3.89931,0.62889 -8.44504,0.03228 -12.40046,0.03228c-0.48002,0 -6.14144,0.00949 -6.40046,-0.03228c-1.04064,-0.16784 -1.96025,-0.82671 -3,-1c-0.98639,-0.1644 -2.01439,0.16905 -3,0c-5.11908,-0.87801 -11.17776,-3.65219 -13.35532,-8.6182c-0.41735,-0.36843 -0.74423,-0.94554 -0.74423,-1.84952zM173.35475,56.25421c1.73656,-0.86526 3.43257,-2.04924 5.09461,-3.25503c-0.04161,-0.06149 -0.08256,-0.12313 -0.12286,-0.18486c-1.67122,-2.55971 -1.35244,-4.47787 -1.37277,-7.24227c-0.57938,-0.4136 -0.82328,-1.04294 -0.92596,-1.49951c-0.07894,-0.3192 -0.13366,-0.74587 -0.04363,-1.18962c-0.0444,0.03797 -0.08823,0.06761 -0.13057,0.08479c-0.51274,0.20805 -1.26869,-0.11672 -1.63269,0.30005c-1.14311,1.30883 -0.83756,3.37726 -1.39606,5.0228c-0.60874,1.7936 -0.5926,3.74157 -0.90399,5.60989c-0.1985,1.19099 -0.60566,2.35387 -0.87305,3.51679c0.76163,-0.406 1.5419,-0.78184 2.30695,-1.16304zM175.5515,60.74579c-1.21782,0.61097 -2.56784,1.09428 -3.64589,1.91137c1.48021,1.90715 4.22112,2.76121 6.33808,3.47114c4.55164,1.52641 9.39004,1.87171 14.20943,1.87171c1.31002,0 2.70954,0.08387 4.13148,0.16292c-1.59779,-1.73214 0.10076,-3.43069 0.10076,-3.43069l0.34241,0.16143c0.44925,-1.76025 1.8943,-6.45175 1.11566,-8.43695c-0.35413,-0.90286 -1.16894,-1.48466 -2.00143,-2.0595c-0.12473,0.08028 -0.2496,0.15682 -0.37454,0.22942c-0.44425,0.25815 -0.89826,0.47277 -1.36017,0.65075c0.25459,2.03945 0.52534,4.0634 0.54584,6.22263v3c0,0 0,2.5 -2.5,2.5c-2.5,0 -2.5,-2.5 -2.5,-2.5v-3c0.0227,-1.82819 -0.61903,-3.60183 -0.9349,-5.40462c-1.19181,0.0006 -2.38892,-0.0632 -3.5651,-0.09538c-0.90824,-0.02485 -1.86922,0.14954 -2.77306,0.08517c-2.31303,1.65839 -4.68141,3.43289 -7.12856,4.66062zM202.76282,54.54329c1.27869,3.16733 -0.13875,8.52615 -0.88434,11.56305l-1.65759,2.16143c0,0 -0.01149,0.01149 -0.03353,0.03168c1.3381,0.00753 2.64557,-0.05637 3.86531,-0.26717c1.0387,-0.17951 1.96025,-0.82671 3,-1c3.51728,-0.58621 6.13083,-0.24868 8.27383,-3.84661c0.37637,-0.63189 0.75138,-1.41592 1.11132,-2.28525c-1.73263,-1.01518 -3.36009,-2.24491 -4.75246,-3.63266c-0.85125,-0.84842 -1.16873,-2.132 -2,-3c-1.41635,-1.47894 -3.78907,-1.59016 -5.54656,-2.64114c-0.80916,-0.48388 -1.19155,-1.51493 -2,-2c-0.28505,-0.17103 -0.59906,-0.27926 -0.92367,-0.36444c-0.48953,0.66322 -1.00355,1.31156 -1.53517,1.9243c1.29166,1.29718 2.93209,2.98333 3.08286,3.3568zM204.76745,45.37337c0.80845,0.48507 1.19232,1.51364 2,2c2.07749,1.25101 4.70947,1.67376 6.45344,3.35886c0.8643,0.83512 1.15168,2.14865 2,3c0.80625,0.80913 1.79317,1.61505 2.85366,2.32696c0.40716,-1.46152 0.72659,-2.85848 0.91085,-3.95965c0.44732,-2.67326 0.1588,-4.8351 0.57856,-7.31407c-3.9587,-1.42194 -7.86704,-2.82353 -12.11084,-2.78547c0,0 -1.28337,0 -2.01108,-0.91951c-0.35444,0.7904 -0.3517,1.73767 -0.74313,2.51789c-0.22732,0.4531 -0.48244,0.9345 -0.76197,1.43404c0.29131,0.08216 0.57256,0.18618 0.83051,0.34096zM220.95313,37.5c0.00943,-0.2771 0.76725,-2.48252 -0.45671,-2.6903c-0.6744,-0.11449 -1.36219,0.12687 -2.04329,0.1903c-3.19515,-0.03033 -5.42604,-0.39758 -8.18273,-1.92965c-0.07184,0.73589 -0.18051,1.46231 -0.42454,2.15411c-0.23668,0.67095 -0.61224,1.26405 -1.05411,1.82106c4.19639,0.2535 8.0167,1.51401 11.94536,2.87684c0.11996,-0.80333 0.18854,-1.61495 0.21602,-2.42237z" fill="#00d7ff"/><path d="M205.4685,97.83845c0.16491,-0.52335 0.36782,-1.0256 0.69078,-1.46433c2.2109,-3.00339 5.5254,-5.30423 9.01017,-6.6327c3.57961,-2.38641 5.01281,-3.79778 10.28368,-3.99143c1.10446,-0.04058 7.9353,1.9642 9.73116,2.74217c10.85458,4.70227 18.44741,12.99262 25.80892,21.82643c2.31452,2.77743 5.79335,5.65266 7.59961,8.8141c1.26243,2.2096 2.07701,4.64822 3.0154,7.0137c0.89104,2.2461 1.13414,4.71085 1.98927,6.97086c1.11858,2.95629 2.53648,5.80414 3.47972,8.82095c0,4.71635 2.37701,8.63762 3.05285,13.37049c0.54927,3.84651 0.49203,9.58264 0,13.38257c-0.68361,5.27954 -2.69082,9.22779 -5.24408,13.7025c-1.50298,2.63405 -2.82919,6.44114 -4.52326,8.80714c-6.33097,8.84206 -16.9011,16.43137 -27.71832,17.97602c-0.6743,0.09629 -7.42204,0.07305 -8.19129,0.07305c-2.54741,-0.0703 -5.0399,-0.75935 -7.56178,-1.1259c-4.20089,-0.61059 -8.77328,-0.31656 -13,-1c-1.04058,-0.16826 -1.95724,-0.84587 -3,-1c-1.54332,-0.22812 -3.1657,0.247 -4.67831,-0.13493c-1.82666,-0.46122 -3.37492,-1.69319 -5.14263,-2.3448c-4.44261,-1.6376 -7.92297,-2.35651 -12.0256,-5.03189c-5.84075,-3.80884 -11.67289,-8.22907 -13.92332,-15.28709c-1.16074,-3.64043 -0.41835,-8.95763 -0.41835,-12.8254c0,-3.74203 -0.06605,-6.98592 1.1259,-10.56178c-0.52672,-6.01711 2.28616,-10.34813 3,-16c0.16707,-1.32282 -0.25127,-2.69056 0,-4c0.57578,-3.00057 2.50392,-5.5744 3.70759,-8.38262c0.46277,-1.07966 0.34603,-2.34368 0.77214,-3.43833c1.71001,-4.39297 4.63301,-9.10551 7.60429,-12.79867c1.182,-1.46916 2.83533,-2.51706 4,-4c3.31503,-4.22094 5.87601,-8.8475 9.64579,-12.7129c0,0 0.32695,-0.32695 0.90966,-0.76726z" fill="#e1ff00"/><path d="M217.95313,114.5c0,0.95343 -0.53372,1.78221 -1.31869,2.20385c-0.35502,0.64095 -1.24369,1.74392 -2.97188,1.16786c-2.37171,-0.79057 -1.58114,-3.16228 -1.58114,-3.16228l1,-3c0,0 0.79057,-2.37171 3.16228,-1.58114c2.37171,0.79057 1.58114,3.16228 1.58114,3.16228l-0.07412,0.22237c0.13026,0.30281 0.20241,0.63651 0.20241,0.98706z" fill="#000000"/><path d="M231.95313,109.5c0,-1.38071 1.11929,-2.5 2.5,-2.5c1.38071,0 2.5,1.11929 2.5,2.5c0,1.38071 -1.11929,2.5 -2.5,2.5c-1.38071,0 -2.5,-1.11929 -2.5,-2.5z" fill="#000000"/><path d="M224.95313,149.5c0,-1.38071 1.11929,-2.5 2.5,-2.5c1.38071,0 2.5,1.11929 2.5,2.5c0,1.38071 -1.11929,2.5 -2.5,2.5c-1.38071,0 -2.5,-1.11929 -2.5,-2.5z" fill="#000000"/><path d="M199.95313,172.5c0,-1.38071 1.11929,-2.5 2.5,-2.5c1.38071,0 2.5,1.11929 2.5,2.5c0,1.38071 -1.11929,2.5 -2.5,2.5c-1.38071,0 -2.5,-1.11929 -2.5,-2.5z" fill="#000000"/><path d="M253.95313,185.5c0,-1.38071 1.11929,-2.5 2.5,-2.5c1.38071,0 2.5,1.11929 2.5,2.5c0,1.38071 -1.11929,2.5 -2.5,2.5c-1.38071,0 -2.5,-1.11929 -2.5,-2.5z" fill="#000000"/><path d="M198.95313,131.5c0,-1.38071 1.11929,-2.5 2.5,-2.5c1.38071,0 2.5,1.11929 2.5,2.5c0,1.38071 -1.11929,2.5 -2.5,2.5c-1.38071,0 -2.5,-1.11929 -2.5,-2.5z" fill="#000000"/><path d="M249.95313,128.5c0,-1.38071 1.11929,-2.5 2.5,-2.5c1.38071,0 2.5,1.11929 2.5,2.5c0,1.38071 -1.11929,2.5 -2.5,2.5c-1.38071,0 -2.5,-1.11929 -2.5,-2.5z" fill="#000000"/><path d="M186.95313,151.5c0,-1.38071 1.11929,-2.5 2.5,-2.5c1.38071,0 2.5,1.11929 2.5,2.5c0,1.38071 -1.11929,2.5 -2.5,2.5c-1.38071,0 -2.5,-1.11929 -2.5,-2.5z" fill="#000000"/><path d="M218.95313,178.5c0,-1.38071 1.11929,-2.5 2.5,-2.5c1.38071,0 2.5,1.11929 2.5,2.5c0,1.38071 -1.11929,2.5 -2.5,2.5c-1.38071,0 -2.5,-1.11929 -2.5,-2.5z" fill="#000000"/><path d="M259.95313,160.5c0,-1.38071 1.11929,-2.5 2.5,-2.5c1.38071,0 2.5,1.11929 2.5,2.5c0,1.38071 -1.11929,2.5 -2.5,2.5c-1.38071,0 -2.5,-1.11929 -2.5,-2.5z" fill="#000000"/><path d="M229.95313,132.5c0,-1.38071 1.11929,-2.5 2.5,-2.5c1.38071,0 2.5,1.11929 2.5,2.5c0,1.38071 -1.11929,2.5 -2.5,2.5c-1.38071,0 -2.5,-1.11929 -2.5,-2.5z" fill="#000000"/><path d="M234.8267,52.00415c-0.12772,-0.00271 -0.25233,-0.00415 -0.37357,-0.00415c0,0 -2.5,0 -2.5,-2.5c0,-2.5 2.5,-2.5 2.5,-2.5c3.93543,0 8.08427,-0.36912 12,0c1.60079,0.1509 3.74649,-0.50966 4.76777,0.73223c1.21742,1.4804 0.9792,3.85833 0.54193,5.72448c-0.03555,0.15172 -0.52665,0.71098 -1.17645,1.40018c-0.17673,1.46615 -1.57514,2.57141 -3.21354,3.26c-0.06254,0.06203 -0.11379,0.11288 -0.15195,0.15088c-1.64908,1.64229 -4.52386,4.89702 -7.01411,4.72007c-3.35933,-0.23871 -6.7096,-7.40843 -5.38008,-10.98368zM239.84994,54.99218c0.05811,-0.15253 0.11619,-0.30509 0.17551,-0.45625c-0.25886,-0.1626 -0.52033,-0.30127 -0.80456,-0.26816c-0.32209,0.03751 0.37029,0.41091 0.62905,0.72441z" fill="#000000"/><path d="M257,-26.77344c8.84165,-12.3825 27.19848,-9.15461 39.81019,-5.47628c5.50049,1.60428 10.32205,3.58765 15.3636,6.30839c2.18748,1.1805 3.75083,3.24178 5.83034,4.41517c17.03043,9.60964 28.6505,19.52157 31.64431,39.97929c0.56501,3.86093 1.07279,8.36232 0,12.09375c-7.04243,24.49539 -34.39694,31.14452 -57.19531,30.45313c-2.08039,-0.06309 -4.08612,-0.87065 -6.16345,-1c-6.07211,-0.37811 -13.63034,1.26187 -18.73738,-3.14875c-1.89814,-1.6393 -3.92419,-3.17005 -5.55229,-5.07781c-5.8428,-6.84641 -6.95236,-23.8358 -0.89812,-31.17427c3.645,-4.41818 9.05477,-6.34308 10.81983,-11.95837c0.4157,-1.32249 0.84895,-2.65087 1.46891,-3.8908c0.00608,-0.01216 0.59714,-0.6251 0.51084,-0.75c-0.00115,-0.00166 -0.00229,-0.00332 -0.00344,-0.00498c-0.1479,0.00331 -0.2962,0.00498 -0.44489,0.00498c-3.25079,0 -6.31579,-0.79546 -9.01097,-2.20235c-6.23369,-3.25401 -10.48903,-9.77888 -10.48903,-17.29765c0,-2.44651 0.45054,-4.78779 1.27318,-6.94539c0.34684,-1.55834 0.85441,-3.04061 1.77369,-4.32804z" fill="#00f3ff"/><path d="M196.95313,-28.5c-0.60288,2.23066 -0.76656,4.66918 -1.27318,6.94539c-0.34684,1.55834 -0.85441,3.04061 -1.77369,4.32804c-1.5386,2.15477 -4.5476,4.54725 -6.70312,5.78906c-0.49132,0.28305 -1.01706,0.48638 -1.56362,0.64106c-2.18566,1.01237 -4.59039,1.63191 -7.12357,1.76797c-0.95579,0.62688 -0.24432,2.28127 -0.5314,3.38767c-0.44615,1.71943 -1.61519,3.18798 -2.10683,4.89496c-0.8434,2.92831 -0.94637,6.1937 -1.89317,9.10504c-2.04653,6.29294 -7.94832,10.05433 -8.9396,16.66663c-0.42404,2.82858 1.02969,8.3368 1.02969,11.38409c0,10.03314 -6.5787,21.27327 -13.72067,27.44133c-7.66302,6.61807 -18.23777,2.24031 -26.21935,-0.20884c-15.4778,-4.74937 -21.19812,-11.67923 -27.74257,-26.66126c-3.67678,-8.41713 -5.43456,-15.00231 -4.13422,-24.52802c0.93563,-6.854 6.49049,-18.87483 10.59531,-24.65312c0.98634,-1.38845 3.81096,-4.23298 4.84862,-6.12578c10.26428,-18.72319 25.46696,-24.81563 44.97537,-28.7617c8.44998,-1.70923 15.26428,-2.11053 22.62572,-0.91195c2.92204,0.47576 5.93028,1.20361 9.16125,2.20179c2.91795,0.90148 7.01988,4.46181 7.83101,7.46297z" fill="#00f3ff"/></g></g></svg>