<svg xmlns="http://www.w3.org/2000/svg" xmlns:xlink="http://www.w3.org/1999/xlink" version="1.1" width="63.308823585510254" height="63.308823585510254" viewBox="-0.479411780834198 -0.42941176891326904 63.308823585510254 63.308823585510254">
  <defs>
    <linearGradient id="grad_1" x1="7.9893" y1="7.9893" x2="21.7613" y2="21.7613" gradientUnits="userSpaceOnUse">
      <stop offset="0" stop-color="#D68D00"/>
      <stop offset="1" stop-color="#FFE600"/>
    </linearGradient>
  <linearGradient id="grad_1-.058823585510254,0,0,2.058823585510254,0.55,0.6" x1="16.9986" y1="17.0486" x2="45.3527" y2="45.4027" gradientUnits="userSpaceOnUse">
      <stop offset="0" stop-color="#D68D00"/>
      <stop offset="1" stop-color="#FFE600"/>
    </linearGradient></defs>
  <!-- Exported by Scratch - http://scratch.mit.edu/ -->
  <g id="ID0.5204231468960643">
    <g id="ID0.04987580515444279">
      <path id="ID0.4675361681729555" fill="#F9EB27" d="M 31.175 60.8206 C 14.8568 60.8206 1.5794 47.5453 1.5794 31.225 C 1.5794 14.9068 14.8568 1.6294 31.175 1.6294 C 47.4953 1.6294 60.7706 14.9068 60.7706 31.225 C 60.7706 47.5453 47.4953 60.8206 31.175 60.8206 L 31.175 60.8206 Z " stroke-width="2.058823585510254"/>
      <path id="ID0.7858227952383459" fill="#B58015" d="M 31.175 2.6588 C 46.9518 2.6588 59.7412 15.4482 59.7412 31.225 C 59.7412 47.0018 46.9518 59.7912 31.175 59.7912 C 15.3982 59.7912 2.6088 47.0018 2.6088 31.225 C 2.6088 15.4482 15.3982 2.6588 31.175 2.6588 M 31.175 0.6 C 14.2885 0.6 0.55 14.3385 0.55 31.225 C 0.55 48.1115 14.2885 61.85 31.175 61.85 C 48.0615 61.85 61.8 48.1115 61.8 31.225 C 61.8 14.3385 48.0615 0.6 31.175 0.6 L 31.175 0.6 Z " stroke-width="2.058823585510254"/>
    </g>
    <path id="ID0.580843495670706" fill="url(#grad_1-.058823585510254,0,0,2.058823585510254,0.55,0.6)" d="M 31.175 11.1762 C 36.7071 11.1762 41.7182 13.4224 45.3479 17.0521 C 48.9776 20.6818 51.2238 25.6929 51.2238 31.225 C 51.2238 36.7571 48.9776 41.7682 45.3479 45.3979 C 41.7182 49.0276 36.7071 51.2738 31.175 51.2738 C 25.6429 51.2738 20.6318 49.0276 17.0021 45.3979 C 13.3724 41.7682 11.1262 36.7571 11.1262 31.225 C 11.1262 25.6929 13.3724 20.6818 17.0021 17.0521 C 20.6318 13.4224 25.6429 11.1762 31.175 11.1762 Z " stroke-width="2.058823585510254"/>
    <path id="ID0.49814528692513704" fill="#F3E526" d="M 31.175 13.1774 C 36.1532 13.1774 40.6662 15.1991 43.9335 18.4665 C 47.2009 21.7338 49.2226 26.2468 49.2226 31.225 C 49.2226 36.2032 47.2009 40.7162 43.9335 43.9835 C 40.6662 47.2509 36.1532 49.2726 31.175 49.2726 C 26.1968 49.2726 21.6838 47.2509 18.4165 43.9835 C 15.1491 40.7162 13.1274 36.2032 13.1274 31.225 C 13.1274 26.2468 15.1491 21.7338 18.4165 18.4665 C 21.6838 15.1991 26.1968 13.1774 31.175 13.1774 Z " stroke-width="2.058823585510254"/>
  </g>
</svg>