<svg version="1.1" xmlns="http://www.w3.org/2000/svg" xmlns:xlink="http://www.w3.org/1999/xlink" width="370.62127" height="355.73761" viewBox="0,0,370.62127,355.73761"><defs><linearGradient x1="236.12457" y1="29.24313" x2="236.12457" y2="382.86387" gradientUnits="userSpaceOnUse" id="color-1"><stop offset="0" stop-color="#a27d3d"/><stop offset="1" stop-color="#ffdc00"/></linearGradient><linearGradient x1="241.18706" y1="14.11307" x2="241.18706" y2="372.70883" gradientUnits="userSpaceOnUse" id="color-2"><stop offset="0" stop-color="#ffffff"/><stop offset="1" stop-color="#ffffff" stop-opacity="0"/></linearGradient><linearGradient x1="266.27319" y1="215.5781" x2="244.03813" y2="-16.65651" gradientUnits="userSpaceOnUse" id="color-3"><stop offset="0" stop-color="#ffffff" stop-opacity="0"/><stop offset="1" stop-color="#ffffff"/></linearGradient></defs><g transform="translate(-51.17264,-27.12625)"><g data-paper-data="{&quot;isPaintingLayer&quot;:true}" fill-rule="nonzero" stroke-linejoin="miter" stroke-miterlimit="10" stroke-dasharray="" stroke-dashoffset="0" style="mix-blend-mode: normal"><path d="M418.61319,204.39318c0,58.54548 9.14947,134.33922 -36.62674,165.7421c-29.11266,19.97154 -103.69001,7.68133 -142.05194,7.68133c-32.45404,0 -131.95625,12.62302 -158.18752,-2.05614c-53.52897,-29.9551 -20.49116,-107.08769 -20.49116,-171.36729c0,-54.03495 -6.07011,-123.319 33.84333,-155.12451c30.83473,-24.57103 101.82621,-18.29891 144.83535,-18.29891c46.24992,0 124.43168,-9.9717 156.16106,18.01246c35.97026,31.72447 22.51762,104.52148 22.51762,155.41097z" fill="url(#color-1)" stroke="none" stroke-width="0" stroke-linecap="butt"/><path d="M407.28251,118.56799l-284.25057,9.26186" fill="none" stroke="#00bfff" stroke-width="5" stroke-linecap="round"/><path d="M366.08686,214.27356l-254.38358,10.29088" fill="none" stroke="#00bfff" stroke-width="5" stroke-linecap="round"/><path d="M395.95362,283.22275l-295.57938,15.4364" fill="none" stroke="#00bfff" stroke-width="5" stroke-linecap="round"/><path d="M110.67328,38.29884l-11.3288,338.57122" fill="none" stroke="#ff0000" stroke-width="5" stroke-linecap="round"/><path d="M419.91303,193.41095c0,99.02348 -80.01835,179.29789 -178.72597,179.29789c-98.70764,0 -178.72597,-80.2744 -178.72597,-179.29789c0,-45.78041 0.58649,-105.57144 28.73226,-137.2574c32.73381,-36.85109 98.42197,-27.02548 151.49522,-27.02548c50.52257,0 124.67743,-5.99668 157.18377,27.81393c31.00239,32.24632 20.0407,88.12969 20.0407,136.46894z" fill="url(#color-2)" stroke="none" stroke-width="0" stroke-linecap="butt"/><path d="M61.27149,108.49388c-0.80957,-8.45561 4.66659,-11.96081 6.68563,-17.44423c2.62836,-7.13824 2.52717,-15.5428 7.0865,-21.24303c8.36903,-10.46323 17.73041,-21.69941 43.52237,-33.5711c31.22583,-14.37284 75.25162,-4.43611 117.67773,-6.33906c48.18459,-2.16124 66.25372,-4.46302 96.69831,-0.97876c11.42625,1.30769 38.7857,-5.59961 49.54534,1.72375c26.74793,18.20553 31.03766,35.36688 33.51943,61.28775c6.14004,64.12982 -38.50805,118.66006 -149.7336,123.64889c-111.22555,4.98883 -201.86466,-39.95141 -208.00471,-104.08122z" fill="url(#color-3)" stroke="none" stroke-width="0" stroke-linecap="butt"/></g></g></svg>