<svg xmlns="http://www.w3.org/2000/svg" xmlns:xlink="http://www.w3.org/1999/xlink" version="1.1" width="181" height="137" viewBox="-0.5 -0.5 181 137">
  <!-- Exported by Scratch - http://scratch.mit.edu/ -->
  <path id="ID0.058502851985394955" d="M 123.566 74.54 C 122.534 74.778 121.092 74.94 119.795 75.049 C 120.087 75.748 120.301 76.498 120.376 77.311 C 120.48 78.435 120.334 79.733 119.895 81.099 C 120.495 81.303 121.143 81.49 121.81 81.62 C 124.361 82.224 126.12 82.255 126.137 82.255 C 126.524 82.261 126.832 82.578 126.827 82.964 C 126.822 83.348 126.511 83.655 126.128 83.655 C 126.125 83.655 126.122 83.655 126.119 83.655 C 126.043 83.654 124.2 83.625 121.514 82.987 C 120.767 82.841 120.049 82.633 119.387 82.406 C 117.059 87.541 110.463 93.167 96.839 94.16 C 78.337 95.51 64.444 88.861 58.954 77.002 C 58.365 75.722 57.997 74.442 57.789 73.178 C 57.469 73.181 57.103 73.183 56.712 73.183 C 55.638 73.183 54.395 73.167 53.526 73.109 C 51.694 72.988 47.862 72.125 47.7 72.088 C 47.323 72.003 47.087 71.628 47.172 71.251 C 47.257 70.873 47.636 70.639 48.009 70.723 C 48.048 70.732 51.897 71.599 53.619 71.713 C 54.699 71.786 56.439 71.788 57.623 71.779 C 57.537 70.533 57.604 69.309 57.788 68.122 C 56.863 67.382 55.488 66.36 53.756 65.319 C 50.143 63.126 48.045 62.453 48.025 62.446 C 47.656 62.33 47.451 61.937 47.567 61.569 C 47.682 61.2 48.075 60.995 48.442 61.11 C 48.533 61.138 50.703 61.828 54.48 64.121 C 55.959 65.01 57.169 65.873 58.094 66.583 C 59.741 59.769 64.823 54.53 65.187 54.188 L 65.24 35.762 L 76.744 45.44 C 76.744 45.44 81.219 44.278 85.808 44.641 C 87.507 44.748 90.56 45.327 92.037 45.61 L 94.764 44.737 L 102.766 38.669 L 104.176 50.126 C 104.176 50.126 109.768 55.45 111.262 58.858 C 113.692 64.497 113.266 68.776 113.266 68.776 C 113.266 68.776 117.035 70.456 119.097 73.699 C 120.481 73.596 122.152 73.429 123.263 73.174 C 125.8 72.633 127.68 71.35 127.699 71.337 C 128.018 71.117 128.454 71.197 128.673 71.516 C 128.893 71.834 128.813 72.27 128.494 72.49 C 128.407 72.547 126.361 73.943 123.566 74.54 Z M 179 0 L 0 0 L 0 135 L 180 136 L 179 0 Z " stroke-width="1" />
</svg>