<svg xmlns="http://www.w3.org/2000/svg" xmlns:xlink="http://www.w3.org/1999/xlink" version="1.1" width="92.07138612813638" height="72.54538515157388" viewBox="-0.7726925757869437 -0.47269256386601477 92.07138612813638 72.54538515157388">
  <!-- Exported by Scratch - http://scratch.mit.edu/ -->
  <path id="ID0.5443468582816422" fill="#000000" stroke="#000000" stroke-width="1.30558801450409" d="M 51.3979 24.1363 C 56.4901 23.9769 61.65 25.5911 64.8028 27.7019 C 68.397 30.1038 70.1342 33.3796 70.4535 36.3013 C 70.7851 39.2783 70.8272 43.1166 66.0814 44.9216 C 60.8927 47.3215 52.5446 46.8697 45.4792 46.8722 C 38.6645 46.8756 30.6464 47.4062 25.2069 45.2363 C 20.7928 43.2353 19.9307 39.3635 20.5049 36.3013 C 21.084 33.2395 24.1312 29.7259 29.0427 27.7019 C 35.2106 25.1552 43.5621 23.9773 51.3979 24.1363 Z "/>
  <path id="ID0.37750169076025486" fill="#FFFFFF" stroke="#000000" stroke-width="0.8471974517271978" d="M 69.4166 27.396 C 70.7559 27.396 71.9692 27.9341 72.8478 28.8041 C 73.7264 29.6735 74.2704 30.8747 74.2704 32.1999 C 74.2704 33.525 73.7264 34.7263 72.8478 35.5957 C 71.9692 36.4657 70.7559 37.0038 69.4166 37.0038 C 68.0774 37.0038 66.8641 36.4657 65.9854 35.5957 C 65.1068 34.7263 64.5628 33.525 64.5628 32.1999 C 64.5628 30.8747 65.1068 29.6735 65.9854 28.8041 C 66.8641 27.9341 68.0774 27.396 69.4166 27.396 Z "/>
  <path id="ID0.37750169076025486" fill="#FFFFFF" stroke="#000000" stroke-width="1.1104878126595163" d="M 58.9339 25.8629 C 60.9221 25.861 62.724 26.5332 64.0294 27.6214 C 65.3349 28.7089 66.1439 30.2125 66.1456 31.872 C 66.1472 33.5316 65.341 35.0367 64.0377 36.1268 C 62.7343 37.2175 60.9337 37.8932 58.9455 37.8951 C 56.9573 37.8971 55.1554 37.2249 53.8499 36.1367 C 52.5445 35.0491 51.7354 33.5455 51.7338 31.886 C 51.7322 30.2265 52.5383 28.7213 53.8417 27.6312 C 55.145 26.5405 56.9456 25.8648 58.9339 25.8629 Z "/>
  <path id="ID0.234124637208879" fill="#000000" stroke="black" stroke-width="1.178983154000629" stroke-linecap="round" d="M 69.5193 27.9784 C 69.8823 27.9784 70.2109 28.4273 70.4489 29.1533 C 70.6872 29.8792 70.8345 30.8814 70.8345 31.987 C 70.8345 33.0927 70.6872 34.0949 70.4489 34.8208 C 70.2109 35.5467 69.8823 35.9957 69.5193 35.9957 C 69.1562 35.9957 68.8276 35.5467 68.5897 34.8208 C 68.3513 34.0949 68.204 33.0927 68.204 31.987 C 68.204 30.8814 68.3513 29.8792 68.5897 29.1533 C 68.8276 28.4273 69.1562 27.9784 69.5193 27.9784 Z "/>
  <path id="ID0.234124637208879" fill="#000000" stroke="black" stroke-width="1.5453851515738875" stroke-linecap="round" d="M 58.7253 26.4743 C 59.2642 26.4737 59.7526 27.0355 60.1068 27.9443 C 60.4615 28.8531 60.6814 30.1079 60.6828 31.4926 C 60.6841 32.8772 60.4666 34.1325 60.1136 35.042 C 59.7612 35.9514 59.2739 36.5141 58.735 36.5147 C 58.1961 36.5152 57.7077 35.9534 57.3535 35.0446 C 56.9988 34.1359 56.7789 32.881 56.7775 31.4964 C 56.7762 30.1117 56.9937 28.8564 57.3467 27.947 C 57.699 27.0375 58.1864 26.4748 58.7253 26.4743 Z "/>
  <path id="ID0.033297700341790915_9_" fill="none" d="M 0 0.3 L 90.526 0.3 L 90.526 71.3 L 0 71.3 L 0 0.3 Z " stroke-width="0.7653684782999252"/>
</svg>