<svg version="1.1" xmlns="http://www.w3.org/2000/svg" xmlns:xlink="http://www.w3.org/1999/xlink" width="383.19084" height="464.96732" viewBox="0,0,383.19084,464.96732"><defs><linearGradient x1="237.99879" y1="52.6714" x2="237.99879" y2="406.29214" gradientUnits="userSpaceOnUse" id="color-1"><stop offset="0" stop-color="#000000"/><stop offset="1" stop-color="#000000" stop-opacity="0"/></linearGradient><linearGradient x1="236.12458" y1="29.24311" x2="236.12458" y2="382.86387" gradientUnits="userSpaceOnUse" id="color-2"><stop offset="0" stop-color="#00ffff"/><stop offset="1" stop-color="#66c0ff"/></linearGradient><linearGradient x1="92.44171" y1="255.98567" x2="187.0576" y2="255.98567" gradientUnits="userSpaceOnUse" id="color-3"><stop offset="0" stop-color="#000000" stop-opacity="0"/><stop offset="1" stop-color="#000000"/></linearGradient><linearGradient x1="93.83233" y1="248.89714" x2="125.81259" y2="248.89714" gradientUnits="userSpaceOnUse" id="color-4"><stop offset="0" stop-color="#000000" stop-opacity="0"/><stop offset="1" stop-color="#000000"/></linearGradient><linearGradient x1="113.49285" y1="304.6735" x2="203.43651" y2="304.6735" gradientUnits="userSpaceOnUse" id="color-5"><stop offset="0" stop-color="#000000" stop-opacity="0"/><stop offset="1" stop-color="#000000"/></linearGradient><linearGradient x1="228.10548" y1="250.01145" x2="297.04294" y2="250.01145" gradientUnits="userSpaceOnUse" id="color-6"><stop offset="0" stop-color="#000000" stop-opacity="0"/><stop offset="1" stop-color="#000000"/></linearGradient><linearGradient x1="171.79542" y1="281.32678" x2="303.25356" y2="281.32678" gradientUnits="userSpaceOnUse" id="color-7"><stop offset="0" stop-color="#000000" stop-opacity="0"/><stop offset="1" stop-color="#000000"/></linearGradient><linearGradient x1="202.30818" y1="257.77147" x2="235.58649" y2="257.77147" gradientUnits="userSpaceOnUse" id="color-8"><stop offset="0" stop-color="#000000" stop-opacity="0"/><stop offset="1" stop-color="#000000"/></linearGradient><linearGradient x1="145.5771" y1="248.90586" x2="198.4163" y2="248.90586" gradientUnits="userSpaceOnUse" id="color-9"><stop offset="0" stop-color="#000000" stop-opacity="0"/><stop offset="1" stop-color="#000000"/></linearGradient><linearGradient x1="146.19674" y1="143.25484" x2="333.49343" y2="143.25484" gradientUnits="userSpaceOnUse" id="color-10"><stop offset="0" stop-color="#000000" stop-opacity="0"/><stop offset="1" stop-color="#000000"/></linearGradient><linearGradient x1="179.85729" y1="183.93747" x2="332.03525" y2="183.93747" gradientUnits="userSpaceOnUse" id="color-11"><stop offset="0" stop-color="#000000" stop-opacity="0"/><stop offset="1" stop-color="#000000"/></linearGradient><linearGradient x1="218.25611" y1="191.57759" x2="289.68863" y2="191.57759" gradientUnits="userSpaceOnUse" id="color-12"><stop offset="0" stop-color="#000000" stop-opacity="0"/><stop offset="1" stop-color="#000000"/></linearGradient><linearGradient x1="326.96952" y1="152.98252" x2="360.97198" y2="152.98252" gradientUnits="userSpaceOnUse" id="color-13"><stop offset="0" stop-color="#000000" stop-opacity="0"/><stop offset="1" stop-color="#000000"/></linearGradient><linearGradient x1="328.11251" y1="177.53257" x2="357.25742" y2="177.53257" gradientUnits="userSpaceOnUse" id="color-14"><stop offset="0" stop-color="#000000" stop-opacity="0"/><stop offset="1" stop-color="#000000"/></linearGradient><linearGradient x1="246.95624" y1="158.28475" x2="272.69354" y2="158.28475" gradientUnits="userSpaceOnUse" id="color-15"><stop offset="0" stop-color="#000000" stop-opacity="0"/><stop offset="1" stop-color="#000000"/></linearGradient><linearGradient x1="131.52723" y1="154.98263" x2="166.1011" y2="154.98263" gradientUnits="userSpaceOnUse" id="color-16"><stop offset="0" stop-color="#000000" stop-opacity="0"/><stop offset="1" stop-color="#000000"/></linearGradient><linearGradient x1="133.52741" y1="174.76982" x2="166.95828" y2="174.76982" gradientUnits="userSpaceOnUse" id="color-17"><stop offset="0" stop-color="#000000" stop-opacity="0"/><stop offset="1" stop-color="#000000"/></linearGradient><linearGradient x1="258.28193" y1="126.77812" x2="300.22186" y2="126.77812" gradientUnits="userSpaceOnUse" id="color-18"><stop offset="0" stop-color="#000000" stop-opacity="0"/><stop offset="1" stop-color="#000000"/></linearGradient><linearGradient x1="282.39502" y1="133.69547" x2="292.68145" y2="133.69547" gradientUnits="userSpaceOnUse" id="color-19"><stop offset="0" stop-color="#000000" stop-opacity="0"/><stop offset="1" stop-color="#000000"/></linearGradient><linearGradient x1="185.73845" y1="135.6087" x2="229.21318" y2="135.6087" gradientUnits="userSpaceOnUse" id="color-20"><stop offset="0" stop-color="#000000" stop-opacity="0"/><stop offset="1" stop-color="#000000"/></linearGradient><linearGradient x1="210.96144" y1="141.98174" x2="221.24787" y2="141.98174" gradientUnits="userSpaceOnUse" id="color-21"><stop offset="0" stop-color="#000000" stop-opacity="0"/><stop offset="1" stop-color="#000000"/></linearGradient><linearGradient x1="241.18712" y1="14.1131" x2="241.18712" y2="372.70888" gradientUnits="userSpaceOnUse" id="color-22"><stop offset="0" stop-color="#ffffff"/><stop offset="1" stop-color="#ffffff" stop-opacity="0"/></linearGradient><linearGradient x1="266.27322" y1="215.57814" x2="244.03817" y2="-16.65649" gradientUnits="userSpaceOnUse" id="color-23"><stop offset="0" stop-color="#ffffff" stop-opacity="0"/><stop offset="1" stop-color="#ffffff"/></linearGradient></defs><g transform="translate(-41.68579,-22.9252)"><g data-paper-data="{&quot;isPaintingLayer&quot;:true}" stroke-miterlimit="10" stroke-dasharray="" stroke-dashoffset="0" style="mix-blend-mode: normal"><path d="M420.4874,227.82143c0,58.54548 9.14947,134.33922 -36.62674,165.7421c-29.11266,19.97154 -103.69001,7.68133 -142.05194,7.68133c-32.45404,0 -131.95625,12.62302 -158.18752,-2.05614c-53.52897,-29.9551 -20.49116,-107.08769 -20.49116,-171.36729c0,-54.03495 -6.07011,-123.319 33.84333,-155.12451c30.83473,-24.57103 101.82621,-18.29891 144.83535,-18.29891c46.24992,0 124.43168,-9.9717 156.16106,18.01246c35.97026,31.72447 22.51762,104.52148 22.51762,155.41097z" fill="url(#color-1)" fill-rule="nonzero" stroke="none" stroke-width="0" stroke-linecap="butt" stroke-linejoin="miter"/><path d="M418.6132,204.39316c0,58.54548 9.14947,134.33922 -36.62674,165.7421c-29.11266,19.97154 -103.69001,7.68133 -142.05194,7.68133c-32.45404,0 -131.95625,12.62302 -158.18752,-2.05614c-53.52897,-29.9551 -20.49116,-107.08769 -20.49116,-171.36729c0,-54.03495 -6.07011,-123.319 33.84333,-155.12451c30.83473,-24.57103 101.82621,-18.29891 144.83535,-18.29891c46.24992,0 124.43168,-9.9717 156.16106,18.01246c35.97026,31.72447 22.51762,104.52148 22.51762,155.41097z" fill="url(#color-2)" fill-rule="nonzero" stroke="none" stroke-width="0" stroke-linecap="butt" stroke-linejoin="miter"/><path d="M62.39789,131.248l104.16535,-97.63235" fill="none" fill-rule="nonzero" stroke="#0afaff" stroke-width="9" stroke-linecap="round" stroke-linejoin="miter"/><path d="M240.4853,32.6163l-174.39724,164.68214" fill="none" fill-rule="nonzero" stroke="#04fdff" stroke-width="9" stroke-linecap="round" stroke-linejoin="miter"/><path d="M56.99944,244.65989l250.97383,-217.23469" fill="none" fill-rule="nonzero" stroke="#1fedfe" stroke-width="9" stroke-linecap="round" stroke-linejoin="miter"/><path d="M362.28023,35.83934l-316.09444,278.99208" fill="none" fill-rule="nonzero" stroke="#11f4ff" stroke-width="9" stroke-linecap="round" stroke-linejoin="miter"/><path d="M399.70629,49.87427c0,0 -80.28304,73.68582 -128.10801,117.58081c-60.86233,55.86099 -207.4741,190.425 -207.4741,190.425" fill="none" fill-rule="nonzero" stroke="#16f2ff" stroke-width="9" stroke-linecap="round" stroke-linejoin="miter"/><path d="M101.16681,373.48646l313.73059,-280.15549" fill="none" fill-rule="nonzero" stroke="#1fecff" stroke-width="9" stroke-linecap="round" stroke-linejoin="miter"/><path d="M420.37663,141.39486l-272.80696,237.73067" fill="none" fill-rule="nonzero" stroke="#34e0fe" stroke-width="9" stroke-linecap="round" stroke-linejoin="miter"/><path d="M416.97464,195.67396c0,0 -25.61895,27.52691 -111.83513,103.35242c-78.68303,69.20024 -88.70805,77.62354 -88.70805,77.62354" fill="none" fill-rule="nonzero" stroke="#45d4ff" stroke-width="9" stroke-linecap="round" stroke-linejoin="miter"/><path d="M270.65477,380.26722c56.26018,-50.06171 88.97861,-78.34287 142.77729,-125.65779" fill="none" fill-rule="nonzero" stroke="#49d2ff" stroke-width="9" stroke-linecap="round" stroke-linejoin="miter"/><path d="M350.73055,377.05249c23.53009,-20.93766 37.21415,-32.76589 59.71475,-52.55474" fill="none" fill-rule="nonzero" stroke="#56caff" stroke-width="9" stroke-linecap="round" stroke-linejoin="miter"/><g fill-rule="evenodd" stroke="none" stroke-width="0"><path d="M183.24519,260.56147c2.28588,1.14294 7.14336,3.71454 0.28573,13.42951c-6.85763,9.71497 -26.57329,11.7151 -28.85917,11.7151c-8.85776,0.28573 -19.71567,0.28573 -31.71651,-3.71454c-34.85959,-11.42937 -35.14532,-48.86058 -24.00168,-54.86099c10.85791,-6.00042 15.71539,17.14406 31.43078,31.14504c6.85763,6.28616 15.14392,8.57203 22.00155,10.0007c9.71497,1.7144 28.2877,-9.1435 30.85931,-7.71483z" fill="url(#color-3)" stroke-linecap="round" stroke-linejoin="round"/><path d="M112.38306,237.41704c4.57175,7.71483 13.42952,18.57273 13.42952,18.57273c0,0 -10.57218,-2.57161 -16.5726,2.28587c-4.85748,3.71454 -3.71455,10.0007 -3.14307,12.00084c-3.71455,-3.71454 -8.2863,-8.85776 -11.14364,-18.85847c-2.85734,-10.00071 0,-22.00155 5.71469,-23.71595c5.71469,-1.14293 7.14336,3.14308 11.71511,9.71497z" fill="url(#color-4)" stroke-linecap="butt" stroke-linejoin="miter"/></g><path d="M197.53191,290.2779c-5.14322,3.42881 -22.85875,16.00113 -45.43177,23.14449l-1.14293,0.28573c-1.14293,0.28573 -1.71441,1.71441 -1.14294,2.85735c4.85748,6.85762 13.71525,20.57287 -2.00014,25.43035c-15.14392,4.85748 -43.43162,-35.43106 -31.43078,-46.00323c5.42896,-4.00028 10.28644,-2.00014 12.85805,-0.85721c1.42867,0.57147 2.85735,0.57147 4.28602,0.28573c3.42881,-1.14294 9.71497,-3.42881 14.57245,-6.00042c12.28658,-6.28616 15.14392,-8.85776 20.85861,-13.14378c5.71469,-4.28602 18.85847,-14.85819 29.43064,-5.71469c9.1435,7.71483 4.00028,16.28686 -0.8572,19.71567z" fill="url(#color-5)" fill-rule="evenodd" stroke="none" stroke-width="0" stroke-linecap="round" stroke-linejoin="round"/><path d="M242.96367,230.84514c1.42867,1.14293 18.85847,21.71582 24.57316,16.5726c6.85762,-6.00042 16.28686,-17.71554 26.5733,-8.2863c10.28643,9.42924 -9.14351,25.43036 -17.4298,29.71638c-19.71567,8.85776 -35.71679,-8.00056 -39.1456,-12.57231c-3.42881,-4.57175 -9.42923,-12.28658 -9.42923,-19.71568c0.28573,-8.00056 10.0007,-10.0007 14.85818,-5.71469z" fill="url(#color-6)" fill-rule="evenodd" stroke="none" stroke-width="0" stroke-linecap="round" stroke-linejoin="round"/><g fill-rule="evenodd" stroke="none" stroke-width="0"><path d="M243.2494,297.42125c6.00042,5.42895 19.14421,16.57259 19.14421,16.57259c0,0 40.86001,-7.14336 40.86001,13.42951c0,12.28658 -20.57287,15.14392 -48.28911,12.57231c-1.7144,-0.28573 -3.42881,-0.8572 -4.85748,-2.00014c-6.28616,-5.42895 -24.28742,-21.43007 -35.71679,-32.57371c-16.85833,-16.57259 -30.85931,-27.4305 -30.85931,-27.4305c-24.28742,-23.71595 -4.57175,-33.71666 3.14308,-47.43191c7.14336,-11.71511 10.28644,-9.42923 27.4305,-6.00042c9.71497,1.42867 15.42966,2.28587 21.71581,2.00014c9.42923,-0.28573 7.71482,13.42952 5.14321,20.57288c0,0 -4.00028,10.57217 -7.71482,16.00113c-4.57175,6.57189 -8.00056,10.8579 -11.42937,13.42951z" fill="url(#color-7)" stroke-linecap="round" stroke-linejoin="round"/><path d="M219.24773,276.27691c0,0 -4.28601,-3.42881 -8.85776,-7.71483c-5.71469,-5.14322 -11.42937,-9.42924 -5.71469,-18.287c5.14322,-6.85763 10.0007,-16.00112 22.85875,-7.71483c12.28658,7.71483 6.85762,14.85819 6.85762,14.85819c-6.28616,12.85805 -15.14392,18.85847 -15.14392,18.85847z" fill="url(#color-8)" stroke-linecap="butt" stroke-linejoin="miter"/></g><path d="M176.10184,252.84669c6.28616,8.00056 16.00113,18.00127 3.71455,26.28756c-16.85833,9.42923 -30.85931,-19.1442 -33.71666,-29.14491c-2.57161,-8.85776 4.85748,-14.57245 11.14364,-19.42993c12.28658,-8.85776 22.57302,-16.85832 34.00239,-12.57231c14.28672,5.14322 4.00028,16.57259 -3.14308,21.71581c-4.28601,3.14308 -8.57203,6.57189 -11.71511,8.57203c-0.8572,1.42867 -1.14294,3.14308 -0.28573,4.57175z" fill="url(#color-9)" fill-rule="evenodd" stroke="none" stroke-width="0" stroke-linecap="round" stroke-linejoin="round"/><g fill-rule="evenodd" stroke="none" stroke-width="0"><path d="M266.10812,60.26172c0.85721,-0.57147 2.28588,-0.28574 2.57161,0.8572l7.42909,30.57358c0,0 18.287,13.42951 23.71595,22.85875c9.1435,15.71539 9.42924,28.57344 9.42924,28.57344c0,0 20.28714,6.00042 23.71595,22.28728c3.42881,16.28686 -9.1435,47.14617 -62.86156,57.71834c-53.71806,10.57217 -96.86395,-4.00028 -117.15109,-36.57399c-20.28714,-32.57371 11.71511,-71.43359 10.0007,-69.14772l-6.00042,-51.14645c-0.28573,-1.14293 1.14294,-2.00014 2.28588,-1.42867l34.57386,22.57302c0,0 12.85805,-4.85748 26.28756,-5.42895c8.00056,-0.57147 14.85819,0 21.43008,1.14294z" fill="url(#color-10)" stroke-linecap="butt" stroke-linejoin="miter"/><path d="M308.3968,144.26763c0,0 19.71568,5.14322 23.14449,21.43008c3.42881,16.28686 -10.28644,45.7175 -63.43303,56.00393c-69.14772,14.28672 -102.00717,-26.85903 -82.86297,-57.14687c19.1442,-30.57358 52.00366,-4.57175 76.00534,-6.28616c20.57287,-1.42867 22.85875,-19.42994 47.14617,-14.00099z" fill="url(#color-11)" stroke-linecap="butt" stroke-linejoin="miter"/><path d="M218.39052,174.84122c0,-1.14293 1.14294,-2.00014 2.28588,-1.7144c5.42896,2.00014 20.85861,6.57189 38.00267,7.71483c15.42966,0.8572 24.57316,0 28.85917,-0.8572c1.42867,-0.28573 2.57161,1.14294 2.00014,2.57161c-2.57161,7.71483 -13.42952,29.1449 -43.43163,27.4305c-26.00182,-2.85735 -28.57344,-21.14434 -27.71623,-35.14533z" fill="url(#color-12)" stroke-linecap="round" stroke-linejoin="round"/><path d="M360.97198,147.41071c-13.42951,10.8579 -34.00239,11.14364 -34.00239,11.14364" fill="url(#color-13)" stroke-linecap="round" stroke-linejoin="round"/><path d="M357.25742,179.41296c-18.00126,1.42867 -29.1449,-4.00028 -29.1449,-4.00028" fill="url(#color-14)" stroke-linecap="round" stroke-linejoin="round"/><path d="M260.10767,150.8395c6.00042,0 12.28658,0.57147 12.57231,2.57161c0.28574,4.00028 -4.00028,12.00084 -8.57203,12.28658c-5.14322,0.57147 -17.14406,-6.57189 -17.14406,-11.14364c-0.28573,-3.42881 7.4291,-3.71454 13.14378,-3.71454z" fill="url(#color-15)" stroke-linecap="round" stroke-linejoin="round"/><path d="M131.52723,146.5535c0,0 24.57315,8.00056 34.57386,16.85833" fill="url(#color-16)" stroke-linecap="round" stroke-linejoin="round"/><path d="M166.95828,173.41254c-12.28657,4.85748 -33.43092,1.7144 -33.43092,1.7144" fill="url(#color-17)" stroke-linecap="round" stroke-linejoin="round"/><g><path d="M293.82438,117.4086c8.28629,12.85805 8.57202,27.43049 0.57146,32.57371c-8.00056,5.14322 -21.14434,-0.8572 -29.71637,-13.71525c-8.28629,-12.85805 -8.57203,-27.43049 -0.57147,-32.57371c8.00056,-5.42896 21.43008,0.8572 29.71637,13.71525z" fill="url(#color-18)" stroke-linecap="round" stroke-linejoin="round"/><path d="M292.68145,133.69547c0,3.14308 -2.28587,5.71469 -5.14322,5.71469c-2.85735,0 -5.14322,-2.57161 -5.14322,-5.71469c0,-3.14308 2.28587,-5.71469 5.14322,-5.71469c2.85735,0 5.14322,2.57161 5.14322,5.71469" fill="url(#color-19)" stroke-linecap="butt" stroke-linejoin="miter"/></g><g><path d="M222.96227,125.40916c8.57203,12.57231 8.00056,28.00196 0.28573,33.43092c-9.42924,5.42896 -22.00154,1.42867 -30.57357,-11.14364c-8.85776,-12.57231 -9.42924,-28.85917 -0.57147,-35.14532c8.85777,-6.57189 22.28728,0.28574 30.85931,12.85805z" fill="url(#color-20)" stroke-linecap="round" stroke-linejoin="round"/><path d="M221.24787,141.98174c0,3.14308 -2.28587,5.71468 -5.14321,5.71468c-2.85735,0 -5.14322,-2.5716 -5.14322,-5.71468c0,-3.14308 2.28588,-5.71469 5.14322,-5.71469c2.85735,0.28573 5.14321,2.57161 5.14321,5.71469" fill="url(#color-21)" stroke-linecap="butt" stroke-linejoin="miter"/></g></g><g><path d="M188.8757,156.05803c1.44507,1.15605 19.0749,21.96504 24.85517,16.76279c6.93633,-6.06929 16.47378,-17.91885 26.87827,-8.3814c10.40449,9.53745 -9.24844,25.72222 -17.62983,30.05742c-19.94194,8.95942 -36.12671,-8.09238 -39.59487,-12.7166c-3.46816,-4.62422 -9.53745,-12.42759 -9.53745,-19.94194c0.28901,-8.09238 10.11548,-10.11548 15.02871,-5.78027z" fill="#ffab19" fill-rule="evenodd" stroke="#001026" stroke-width="1.2" stroke-linecap="round" stroke-linejoin="round"/><path d="M203.32636,170.50877c1.44507,1.15605 19.0749,21.96504 24.85517,16.76279c6.93633,-6.06929 16.47378,-17.91885 26.87827,-8.3814c10.40449,9.53745 -9.24844,25.72222 -17.62983,30.05742c-19.94194,8.95942 -36.12671,-8.09238 -39.59487,-12.7166c-3.46816,-4.62422 -9.53745,-12.42759 -9.53745,-19.94194c0.28901,-8.09238 10.11548,-10.11548 15.02871,-5.78027z" fill="#ffab19" fill-rule="evenodd" stroke="#001026" stroke-width="1.2" stroke-linecap="round" stroke-linejoin="round"/><path d="M217.77704,184.95946c1.44507,1.15605 19.0749,21.96504 24.85517,16.76279c6.93633,-6.06929 16.47378,-17.91885 26.87827,-8.3814c10.40449,9.53745 -9.24844,25.72222 -17.62983,30.05742c-19.94194,8.95942 -36.12671,-8.09238 -39.59487,-12.7166c-3.46816,-4.62422 -9.53745,-12.42759 -9.53745,-19.94194c0.28901,-8.09238 10.11548,-10.11548 15.02871,-5.78027z" fill="#ffab19" fill-rule="evenodd" stroke="#001026" stroke-width="1.2" stroke-linecap="round" stroke-linejoin="round"/><path d="M274.36735,49.26615c0.86704,-0.57803 2.31211,-0.28901 2.60112,0.86704l7.51436,30.92446c0,0 18.49687,13.58364 23.98813,23.12109c9.24844,15.89575 9.53745,28.90137 9.53745,28.90137c0,0 20.51997,6.06929 23.98813,22.54307c3.46816,16.47378 -9.24844,47.68725 -63.583,58.38076c-54.33457,10.69351 -97.97563,-4.04619 -118.4956,-36.99375c-20.51997,-32.94756 11.84956,-72.25341 10.11548,-69.9413l-6.06929,-51.73344c-0.28901,-1.15605 1.15605,-2.0231 2.31211,-1.44507l34.97065,22.83208c0,0 13.00561,-4.91323 26.58926,-5.49126c8.09238,-0.57803 15.02871,0 21.67602,1.15605z" fill="#da9216" fill-rule="evenodd" stroke="#001026" stroke-width="1.2" stroke-linecap="butt" stroke-linejoin="miter"/><path d="M317.14135,134.23613c0,0 19.94194,5.20225 23.41011,21.67602c3.46816,16.47378 -10.40449,46.24218 -64.16103,56.64668c-69.9413,14.45068 -103.17787,-27.16728 -83.81396,-57.80273c19.36391,-30.92446 52.60049,-4.62422 76.87763,-6.3583c20.80898,-1.44507 23.12109,-19.65293 47.68725,-14.16167z" fill="#ffffff" fill-rule="evenodd" stroke="none" stroke-width="1" stroke-linecap="butt" stroke-linejoin="miter"/><path d="M226.10211,165.16063c0,-1.15605 1.15605,-2.0231 2.31211,-1.73408c5.49126,2.0231 21.098,6.64731 38.43882,7.80337c15.60674,0.86704 24.85517,0 29.19038,-0.86704c1.44507,-0.28901 2.60112,1.15605 2.0231,2.60112c-2.60112,7.80337 -13.58364,29.47939 -43.93008,27.74531c-26.30024,-2.89014 -28.90137,-21.38701 -28.03432,-35.54868z" fill="#ffffff" fill-rule="evenodd" stroke="#001026" stroke-width="1.2" stroke-linecap="round" stroke-linejoin="round"/><path d="M268.29805,140.88342c6.06929,0 12.42759,0.57803 12.7166,2.60112c0.28901,4.04619 -4.04619,12.13857 -8.67041,12.42759c-5.20225,0.57803 -17.34082,-6.64731 -17.34082,-11.27153c-0.28901,-3.46816 7.51436,-3.75718 13.29463,-3.75718z" fill="#001026" fill-rule="evenodd" stroke="#001026" stroke-width="1.2" stroke-linecap="round" stroke-linejoin="round"/><g fill-rule="evenodd"><path d="M302.40166,107.06888c8.3814,13.00561 8.67041,27.74531 0.57803,32.94756c-8.09238,5.20225 -21.38701,-0.86704 -30.05742,-13.87266c-8.3814,-13.00561 -8.67041,-27.74531 -0.57803,-32.94756c8.09238,-5.49126 21.67602,0.86704 30.05742,13.87266z" fill="#ffffff" stroke="#001026" stroke-width="1.2" stroke-linecap="round" stroke-linejoin="round"/><path d="M301.24559,123.54266c0,3.17915 -2.31211,5.78027 -5.20225,5.78027c-2.89014,0 -5.20225,-2.60112 -5.20225,-5.78027c0,-3.17915 2.31211,-5.78027 5.20225,-5.78027c2.89014,0 5.20225,2.60112 5.20225,5.78027" fill="#001026" stroke="none" stroke-width="1" stroke-linecap="butt" stroke-linejoin="miter"/></g><g fill-rule="evenodd"><path d="M230.72634,115.16127c8.67041,12.7166 8.09238,28.32334 0.28901,33.8146c-9.53745,5.49126 -22.25405,1.44507 -30.92446,-11.27153c-8.95942,-12.7166 -9.53745,-29.19038 -0.57803,-35.54868c8.95942,-6.64731 22.54307,0.28901 31.21347,13.00561z" fill="#ffffff" stroke="#001026" stroke-width="1.2" stroke-linecap="round" stroke-linejoin="round"/><path d="M228.99226,131.92406c0,3.17915 -2.31211,5.78027 -5.20225,5.78027c-2.89014,0 -5.20225,-2.60112 -5.20225,-5.78027c0,-3.17915 2.31211,-5.78027 5.20225,-5.78027c2.89014,0.28901 5.20225,2.60112 5.20225,5.78027" fill="#001026" stroke="none" stroke-width="1" stroke-linecap="butt" stroke-linejoin="miter"/></g><path d="M212.64566,287.79376c-5.20225,3.46816 -23.12109,16.18476 -45.95317,23.41011l-1.15605,0.28901c-1.15605,0.28901 -1.73408,1.73408 -1.15605,2.89014c4.91323,6.93633 13.87266,20.80898 -2.0231,25.72222c-15.31772,4.91323 -43.93008,-35.83769 -31.7915,-46.5312c5.49126,-4.04619 10.40449,-2.0231 13.00561,-0.86704c1.44507,0.57803 2.89014,0.57803 4.3352,0.28901c3.46816,-1.15605 9.82646,-3.46816 14.7397,-6.06929c12.42759,-6.3583 15.31772,-8.95942 21.098,-13.29463c5.78027,-4.3352 19.0749,-15.02871 29.76841,-5.78027c9.24844,7.80337 4.04619,16.47378 -0.86704,19.94194z" fill="#d08b15" fill-rule="evenodd" stroke="#001026" stroke-width="1.2" stroke-linecap="round" stroke-linejoin="round"/><path d="M258.59883,227.67893c1.44507,1.15605 19.0749,21.96504 24.85517,16.76279c6.93633,-6.06929 16.47378,-17.91885 26.87827,-8.3814c10.40449,9.53745 -9.24844,25.72222 -17.62983,30.05742c-19.94194,8.95942 -36.12671,-8.09238 -39.59487,-12.7166c-3.46816,-4.62422 -9.53745,-12.42759 -9.53745,-19.94194c0.28901,-8.09238 10.11548,-10.11548 15.02871,-5.78027z" fill="#ca8000" fill-rule="evenodd" stroke="#001026" stroke-width="1.2" stroke-linecap="round" stroke-linejoin="round"/><path d="M258.88786,295.01905c6.06929,5.49126 19.36391,16.76279 19.36391,16.76279c0,0 41.32895,-7.22534 41.32895,13.58364c0,12.42759 -20.80898,15.31772 -48.84331,12.7166c-1.73408,-0.28901 -3.46816,-0.86704 -4.91323,-2.0231c-6.3583,-5.49126 -24.56616,-21.67602 -36.12671,-32.94756c-17.05181,-16.76279 -31.21347,-27.74531 -31.21347,-27.74531c-24.56616,-23.98813 -4.62422,-34.10361 3.17915,-47.97627c7.22534,-11.84956 10.40449,-9.53745 27.74531,-6.06929c9.82646,1.44507 15.60674,2.31211 21.96504,2.0231c9.53745,-0.28901 7.80337,13.58364 5.20225,20.80898c0,0 -4.04619,10.69351 -7.80337,16.18476c-4.62422,6.64731 -8.09238,10.98252 -11.56055,13.58364z" fill="#ab7211" fill-rule="evenodd" stroke="#001026" stroke-width="1.2" stroke-linecap="round" stroke-linejoin="round"/><path d="M234.61071,273.63206c0,0 -4.3352,-3.46816 -8.95942,-7.80337c-5.78027,-5.20225 -11.56055,-9.53745 -5.78027,-18.49687c5.20225,-6.93633 10.11548,-16.18476 23.12109,-7.80337c12.42759,7.80337 6.93633,15.02871 6.93633,15.02871c-6.3583,13.00561 -15.31772,19.0749 -15.31772,19.0749z" fill="#ffffff" fill-rule="evenodd" stroke="none" stroke-width="1" stroke-linecap="butt" stroke-linejoin="miter"/><path d="M190.96964,249.93299c6.3583,8.09238 16.18476,18.20786 3.75718,26.58926c-17.05181,9.53745 -31.21347,-19.36391 -34.10361,-29.47939c-2.60112,-8.95942 4.91323,-14.7397 11.27153,-19.65293c12.42759,-8.95942 22.83208,-17.05181 34.39262,-12.7166c14.45068,5.20225 4.04619,16.76279 -3.17915,21.96504c-4.3352,3.17915 -8.67041,6.64731 -11.84956,8.67041c-0.86704,1.44507 -1.15605,3.17915 -0.28901,4.62422z" fill="#b57912" fill-rule="evenodd" stroke="#001026" stroke-width="1.2" stroke-linecap="round" stroke-linejoin="round"/><g fill-rule="evenodd"><path d="M285.1504,55.77035c0.86704,-0.57803 2.31211,-0.28901 2.60112,0.86704l7.51436,30.92446c0,0 18.49687,13.58364 23.98813,23.12109c9.24844,15.89575 9.53745,28.90137 9.53745,28.90137c0,0 20.51997,6.06929 23.98813,22.54307c3.46816,16.47378 -9.24844,47.68725 -63.583,58.38076c-54.33457,10.69351 -97.97563,-4.04619 -118.4956,-36.99375c-20.51997,-32.94756 11.84956,-72.25341 10.11548,-69.9413l-6.06929,-51.73344c-0.28901,-1.15605 1.15605,-2.0231 2.31211,-1.44507l34.97065,22.83208c0,0 13.00561,-4.91323 26.58926,-5.49126c8.09238,-0.57803 15.02871,0 21.67602,1.15605z" fill="#ffab19" stroke="#001026" stroke-width="1.2" stroke-linecap="butt" stroke-linejoin="miter"/><path d="M327.92448,140.74037c0,0 19.94194,5.20225 23.41011,21.67602c3.46816,16.47378 -10.40449,46.24218 -64.16103,56.64668c-69.9413,14.45068 -103.17787,-27.16728 -83.81396,-57.80273c19.36391,-30.92446 52.60049,-4.62422 76.87763,-6.3583c20.80898,-1.44507 23.12109,-19.65293 47.68725,-14.16167z" fill="#ffffff" stroke="none" stroke-width="1" stroke-linecap="butt" stroke-linejoin="miter"/><path d="M236.88519,171.66482c0,-1.15605 1.15605,-2.0231 2.31211,-1.73408c5.49126,2.0231 21.098,6.64731 38.43882,7.80337c15.60674,0.86704 24.85517,0 29.19038,-0.86704c1.44507,-0.28901 2.60112,1.15605 2.0231,2.60112c-2.60112,7.80337 -13.58364,29.47939 -43.93008,27.74531c-26.30024,-2.89014 -28.90137,-21.38701 -28.03432,-35.54868z" fill="#ffffff" stroke="#001026" stroke-width="1.2" stroke-linecap="round" stroke-linejoin="round"/><path d="M381.10301,143.91951c-13.58364,10.98252 -34.39262,11.27153 -34.39262,11.27153" fill="none" stroke="#001026" stroke-width="1.2" stroke-linecap="round" stroke-linejoin="round"/><path d="M377.34583,176.28904c-18.20786,1.44507 -29.47939,-4.04619 -29.47939,-4.04619" fill="none" stroke="#001026" stroke-width="1.2" stroke-linecap="round" stroke-linejoin="round"/><path d="M279.0811,147.38763c6.06929,0 12.42759,0.57803 12.7166,2.60112c0.28901,4.04619 -4.04619,12.13857 -8.67041,12.42759c-5.20225,0.57803 -17.34082,-6.64731 -17.34082,-11.27153c-0.28901,-3.46816 7.51436,-3.75718 13.29463,-3.75718z" fill="#001026" stroke="#001026" stroke-width="1.2" stroke-linecap="round" stroke-linejoin="round"/><path d="M149.02499,143.05248c0,0 24.85517,8.09238 34.97065,17.05181" fill="none" stroke="#001026" stroke-width="1.2" stroke-linecap="round" stroke-linejoin="round"/><path d="M184.86272,170.21977c-12.42759,4.91323 -33.8146,1.73408 -33.8146,1.73408" fill="none" stroke="#001026" stroke-width="1.2" stroke-linecap="round" stroke-linejoin="round"/><g><path d="M313.18479,113.57308c8.3814,13.00561 8.67041,27.74531 0.57803,32.94756c-8.09238,5.20225 -21.38701,-0.86704 -30.05742,-13.87266c-8.3814,-13.00561 -8.67041,-27.74531 -0.57803,-32.94756c8.09238,-5.49126 21.67602,0.86704 30.05742,13.87266z" fill="#ffffff" stroke="#001026" stroke-width="1.2" stroke-linecap="round" stroke-linejoin="round"/><path d="M312.02872,130.04683c0,3.17915 -2.31211,5.78027 -5.20225,5.78027c-2.89014,0 -5.20225,-2.60112 -5.20225,-5.78027c0,-3.17915 2.31211,-5.78027 5.20225,-5.78027c2.89014,0 5.20225,2.60112 5.20225,5.78027" fill="#001026" stroke="none" stroke-width="1" stroke-linecap="butt" stroke-linejoin="miter"/></g><g><path d="M241.5094,121.66547c8.67041,12.7166 8.09238,28.32334 0.28901,33.8146c-9.53745,5.49126 -22.25405,1.44507 -30.92446,-11.27153c-8.95942,-12.7166 -9.53745,-29.19038 -0.57803,-35.54868c8.95942,-6.64731 22.54307,0.28901 31.21347,13.00561z" fill="#ffffff" stroke="#001026" stroke-width="1.2" stroke-linecap="round" stroke-linejoin="round"/><path d="M239.77532,138.42823c0,3.17915 -2.31211,5.78027 -5.20225,5.78027c-2.89014,0 -5.20225,-2.60112 -5.20225,-5.78027c0,-3.17915 2.31211,-5.78027 5.20225,-5.78027c2.89014,0.28901 5.20225,2.60112 5.20225,5.78027" fill="#001026" stroke="none" stroke-width="1" stroke-linecap="butt" stroke-linejoin="miter"/></g></g><path d="M252.68229,77.92358l26.34992,-27.9469c1.62931,1.1901 3.3879,2.21382 5.25071,3.04618l-27.30052,28.95509z" fill="#ffab19" fill-rule="nonzero" stroke="none" stroke-width="0" stroke-linecap="butt" stroke-linejoin="miter"/><path d="M266.90306,76.63126l-24.68697,2.4913" fill="none" fill-rule="nonzero" stroke="#000000" stroke-width="1" stroke-linecap="round" stroke-linejoin="miter"/><path d="M283.2247,55.35225l-7.3352,-6.11267" fill="none" fill-rule="nonzero" stroke="#000000" stroke-width="1.5" stroke-linecap="round" stroke-linejoin="miter"/><path d="M220.37242,291.24163c-5.20225,3.46816 -23.12109,16.18476 -45.95317,23.41011l-1.15605,0.28901c-1.15605,0.28901 -1.73408,1.73408 -1.15605,2.89014c4.91323,6.93633 13.87266,20.80898 -2.0231,25.72222c-15.31772,4.91323 -43.93008,-35.83769 -31.7915,-46.5312c5.49126,-4.04619 10.40449,-2.0231 13.00561,-0.86704c1.44507,0.57803 2.89014,0.57803 4.3352,0.28901c3.46816,-1.15605 9.82646,-3.46816 14.7397,-6.06929c12.42759,-6.3583 15.31772,-8.95942 21.098,-13.29463c5.78027,-4.3352 19.0749,-15.02871 29.76841,-5.78027c9.24844,7.80337 4.04619,16.47378 -0.86704,19.94194z" fill="#ffab19" fill-rule="evenodd" stroke="#001026" stroke-width="1.2" stroke-linecap="round" stroke-linejoin="round"/><path d="M266.32555,231.12681c1.44507,1.15605 19.0749,21.96504 24.85517,16.76279c6.93633,-6.06929 16.47378,-17.91885 26.87827,-8.3814c10.40449,9.53745 -9.24844,25.72222 -17.62983,30.05742c-19.94194,8.95942 -36.12671,-8.09238 -39.59487,-12.7166c-3.46816,-4.62422 -9.53745,-12.42759 -9.53745,-19.94194c0.28901,-8.09238 10.11548,-10.11548 15.02871,-5.78027z" fill="#ffab19" fill-rule="evenodd" stroke="#001026" stroke-width="1.2" stroke-linecap="round" stroke-linejoin="round"/><g fill-rule="evenodd"><path d="M268.44839,295.41061c6.06929,5.49126 19.36391,16.76279 19.36391,16.76279c0,0 41.32895,-7.22534 41.32895,13.58364c0,12.42759 -20.80898,15.31772 -48.84331,12.7166c-1.73408,-0.28901 -3.46816,-0.86704 -4.91323,-2.0231c-6.3583,-5.49126 -24.56616,-21.67602 -36.12671,-32.94756c-17.05181,-16.76279 -31.21347,-27.74531 -31.21347,-27.74531c-24.56616,-23.98813 -4.62422,-34.10361 3.17915,-47.97627c7.22534,-11.84956 10.40449,-9.53745 27.74531,-6.06929c9.82646,1.44507 15.60674,2.31211 21.96504,2.0231c9.53745,-0.28901 7.80337,13.58364 5.20225,20.80898c0,0 -4.04619,10.69351 -7.80337,16.18476c-4.62422,6.64731 -8.09238,10.98252 -11.56055,13.58364z" fill="#ffab19" stroke="#001026" stroke-width="1.2" stroke-linecap="round" stroke-linejoin="round"/><path d="M244.17125,274.0236c0,0 -4.3352,-3.46816 -8.95942,-7.80337c-5.78027,-5.20225 -11.56055,-9.53745 -5.78027,-18.49687c5.20225,-6.93633 10.11548,-16.18476 23.12109,-7.80337c12.42759,7.80337 6.93633,15.02871 6.93633,15.02871c-6.3583,13.00561 -15.31772,19.0749 -15.31772,19.0749z" fill="#ffffff" stroke="none" stroke-width="1" stroke-linecap="butt" stroke-linejoin="miter"/></g><path d="M198.6964,253.38086c6.3583,8.09238 16.18476,18.20786 3.75718,26.58926c-17.05181,9.53745 -31.21347,-19.36391 -34.10361,-29.47939c-2.60112,-8.95942 4.91323,-14.7397 11.27153,-19.65293c12.42759,-8.95942 22.83208,-17.05181 34.39262,-12.7166c14.45068,5.20225 4.04619,16.76279 -3.17915,21.96504c-4.3352,3.17915 -8.67041,6.64731 -11.84956,8.67041c-0.86704,1.44507 -1.15605,3.17915 -0.28901,4.62422z" fill="#ffab19" fill-rule="evenodd" stroke="#001026" stroke-width="1.2" stroke-linecap="round" stroke-linejoin="round"/></g><path d="M419.91308,193.41097c0,99.02348 -80.01835,179.29789 -178.72597,179.29789c-98.70764,0 -178.72597,-80.2744 -178.72597,-179.29789c0,-45.78041 0.58649,-105.57144 28.73226,-137.2574c32.73381,-36.85109 98.42197,-27.02548 151.49522,-27.02548c50.52257,0 124.67743,-5.99668 157.18377,27.81393c31.00239,32.24632 20.0407,88.12969 20.0407,136.46894z" fill="url(#color-22)" fill-rule="nonzero" stroke="none" stroke-width="0" stroke-linecap="butt" stroke-linejoin="miter"/><path d="M61.27153,108.49392c-0.80957,-8.45561 4.66659,-11.96081 6.68563,-17.44423c2.62836,-7.13824 2.52717,-15.5428 7.0865,-21.24303c8.36903,-10.46323 17.73041,-21.69941 43.52237,-33.5711c31.22583,-14.37284 75.25162,-4.43611 117.67773,-6.33906c48.18459,-2.16124 66.25372,-4.46302 96.69831,-0.97876c11.42625,1.30769 38.7857,-5.59961 49.54534,1.72375c26.74793,18.20553 31.03766,35.36688 33.51943,61.28775c6.14004,64.12982 -38.50805,118.66006 -149.7336,123.64889c-111.22555,4.98883 -201.86466,-39.95141 -208.00471,-104.08122z" fill="url(#color-23)" fill-rule="nonzero" stroke="none" stroke-width="0" stroke-linecap="butt" stroke-linejoin="miter"/><g fill-rule="nonzero" stroke="none" stroke-width="1" stroke-linecap="butt" stroke-linejoin="miter" font-family="Sans Serif" font-weight="normal" font-size="40" text-anchor="start"><text transform="matrix(2.31807 0 0 2.31807 111.29401 400.9649)" font-size="40"  fill="#000000" fill-rule="nonzero" stroke="none" stroke-width="1" stroke-linecap="butt" stroke-linejoin="miter" stroke-miterlimit="10" stroke-dasharray="" stroke-dashoffset="0" font-family="Helvetica" font-weight="normal" text-anchor="start" style="mix-blend-mode: normal" >Files</text><text transform="matrix(2.31807 0 0 2.31807 111.294 398.9649)" font-size="40"  fill="#ffffff" fill-rule="nonzero" stroke="none" stroke-width="1" stroke-linecap="butt" stroke-linejoin="miter" stroke-miterlimit="10" stroke-dasharray="" stroke-dashoffset="0" font-family="Helvetica" font-weight="normal" text-anchor="start" style="mix-blend-mode: normal" >Files</text></g></g></g></svg>