<svg version="1.1" width="297" height="308" viewBox="-1 -1 297 308" xmlns="http://www.w3.org/2000/svg" xmlns:xlink="http://www.w3.org/1999/xlink">
  <!-- Exported by Scratch - http://scratch.mit.edu/ -->
  <g id="ID0.5999237038195133" transform="matrix(1, 0, 0, 1, 73, 114)">
    <g id="Layer_3">
      <path id="ID0.8604952380992472" fill="#FAA51D" stroke="#000000" d="M 22.462 79.039 C 20.047 78.588 17.158 77.730 14.720 75.536 C 9.268 70.629 7.526 62.535 3.672 64.622 C -0.184 66.710 -0.110 79.787 12.025 83.816 C 16.207 85.207 20.023 85.212 23.116 85.128 C 23.927 85.103 30.833 84.474 33.195 81.054 C 35.556 77.634 33.914 76.782 33.105 76.310 C 32.295 75.838 25.878 79.677 22.462 79.039 Z "/>
      <path id="ID0.17464576661586761" fill="#FFFFFF" d="M 4.236 64.877 C 2.247 65.490 1.161 69.875 2.160 73.361 C 3.158 76.851 4.794 78.383 6.023 79.759 C 7.551 80.797 5.303 77.357 7.384 75.609 C 9.459 73.865 13.117 74.695 13.117 74.695 C 13.117 74.695 10.208 70.708 8.547 68.299 C 6.975 65.988 6.359 64.375 4.236 64.877 Z "/>
    </g>
    <g id="ID0.3104518982581794">
      <path id="ID0.44840336637571454" fill="#FAA51D" d="M 38.217 86.756 C 38.217 86.756 29.385 92.956 21.146 95.168 L 21.232 95.383 C 22.479 97.207 27.102 102.880 20.898 104.879 C 15.565 106.596 5.778 91.775 10.077 88.977 C 12.703 87.264 14.969 88.725 14.969 88.725 C 14.969 88.725 18.443 87.655 20.970 86.380 C 25.273 84.219 26.754 82.927 26.754 82.927 C 26.754 82.927 30.938 78.621 33.610 78.790 C 36.281 78.960 41.669 83.504 38.217 86.756 Z "/>
      <path id="ID0.4884979287162423" fill="none" stroke="#231F20" stroke-width="1.2" d="M 21.232 95.383 C 22.479 97.207 27.102 102.880 20.898 104.879 C 15.565 106.596 5.569 91.535 9.868 88.734 C 12.494 87.021 14.969 88.724 14.969 88.724 C 14.969 88.724 18.443 87.652 20.970 86.376 C 25.273 84.215 26.754 82.923 26.754 82.923 "/>
      <path id="ID0.1606444977223873" fill="none" stroke="#231F20" stroke-width="1.2" d="M 38.217 86.756 C 38.217 86.756 28.094 93.863 19.413 95.575 "/>
    </g>
    <path id="ID0.9402460069395602" fill="#FAA51D" stroke="#231F20" stroke-width="1.2" d="M 52.169 74.885 C 52.169 74.885 53.404 75.050 56.913 78.561 C 60.422 82.069 62.939 80.721 65.824 79.285 C 68.701 77.842 76.361 73.159 72.314 69.468 C 68.265 65.780 66.107 70.614 62.599 71.873 C 59.087 73.133 57.538 69.386 55.741 67.586 C 55.152 66.993 54.553 66.487 54.012 66.081 C 54.012 66.081 53.041 65.321 52.106 68.871 C 51.172 72.412 50.162 73.415 52.169 74.885 Z "/>
    <g id="Layer_2_1_">
      <path id="ID0.7260299338959157" fill="#FAA51D" stroke="#231F20" stroke-width="1.2" d="M 46.753 82.012 C 47.941 81.100 49.150 79.610 50.704 77.299 C 52 75.372 53.404 71.721 53.404 71.721 C 54.279 69.200 55.338 65.145 51.502 64.425 C 49.949 64.134 47.423 64.327 43.832 63.649 C 40.239 62.968 37.034 61.127 34.315 65.882 C 31.597 70.639 24.725 74.153 33.259 82.445 C 33.259 82.445 38.160 86.287 44.023 92.084 C 48.854 96.859 56.068 102.686 56.068 102.686 C 56.068 102.686 75.040 104.874 75.603 101.993 C 77.525 92.203 60.826 95.082 60.826 95.082 C 60.826 95.082 56.221 91.149 54.101 89.288 C 50.623 86.229 42.976 78.517 42.976 78.517 "/>
      <path id="ID0.5387447266839445" fill="#FFFFFF" d="M 51.253 75.434 C 51.253 75.434 53.723 72.774 48.784 70.117 C 43.845 67.460 41.571 70.100 40.045 71.638 C 37.401 74.293 43.488 78.249 43.488 78.249 L 46.664 81.453 C 46.664 81.453 48.402 79.806 49.163 78.474 C 50.036 77.260 51.253 75.434 51.253 75.434 "/>
    </g>
    <path id="ID0.2052974202670157" fill="#FAA51D" stroke="#231F20" stroke-width="1.2" d="M 29.926 73.218 C 30.675 72.647 32.815 71.016 34.780 69.561 C 37.208 67.762 40.897 63.712 35.857 61.915 C 30.817 60.114 28.350 63.519 24.338 66.861 C 22.179 68.662 19.030 69.560 20.019 73.070 C 21.012 76.581 24.881 86.478 31.808 83.240 C 38.737 80.001 30.009 74.060 28.748 72.083 "/>
    <g id="Layer_2">
      <path id="ID0.7363785458728671" fill="#FAA51D" stroke="#231F20" stroke-width="1.2" d="M 52.709 14.156 C 51.169 14.013 47.959 13.840 46.191 13.925 C 41.463 14.150 36.967 15.853 36.967 15.853 L 23.949 7.357 L 26.184 26.263 C 26.830 25.481 15.629 39.067 22.705 50.487 C 29.785 61.913 44.938 67.005 63.693 63.279 C 82.448 59.550 86.922 48.748 85.679 43.033 C 84.437 37.319 77.357 35.210 77.357 35.210 C 77.357 35.210 77.267 30.730 74.029 25.240 C 72.103 21.972 65.681 17.199 65.681 17.199 L 62.822 5.647 L 55.370 12.851 L 52.709 14.156 Z "/>
      <path id="ID0.6782119716517627" fill="#FFFFFF" d="M 76.420 35.066 L 73.938 33.002 L 64.823 35.663 C 64.823 35.663 64.823 39.082 60.456 40.030 C 56.086 40.981 49.245 37.753 49.245 37.753 L 41.460 41.170 C 41.460 41.170 33.023 42.098 32.721 47.251 C 32.048 58.704 46.100 63.479 51.425 63.783 C 54.330 63.950 59.660 63.445 63.702 62.642 C 81.454 59.408 86.253 48.723 85.012 43.007 C 83.770 37.293 77.034 35.811 77.034 35.811 L 76.420 35.066 Z "/>
      <path id="ID0.5170033164322376" fill="none" stroke="#231F20" stroke-width="1.2" d="M 10.673 46.155 C 10.673 46.155 14.780 46.529 16.647 46.423 C 18.512 46.316 22.139 45.836 22.139 45.836 "/>
      <path id="ID0.6706205611117184" fill="none" stroke="#231F20" stroke-width="1.2" d="M 81.656 40.671 C 81.656 40.671 86.205 39.928 88.515 39.122 C 91.230 38.180 93.058 36.577 93.058 36.577 "/>
      <path id="ID0.011387292761355639" fill="none" stroke="#231F20" stroke-width="1.2" d="M 22.337 41.909 C 22.337 41.909 19.953 40.132 16.220 38.479 C 12.086 36.648 9.815 36.176 9.815 36.176 "/>
      <path id="ID0.6237748684361577" fill="none" stroke="#231F20" stroke-width="1.2" d="M 82.117 46.622 C 82.117 46.622 84.843 47.726 87.650 48.007 C 90.420 48.283 92.296 48.117 92.296 48.117 "/>
      <path id="ID0.08910029707476497" fill="none" stroke="#000000" stroke-linecap="round" d="M 52.350 14.212 C 55.190 14.912 56.237 15.681 56.237 15.681 "/>
      <path id="ID0.2864495851099491" fill="none" stroke="#000000" d="M 33.898 13.684 L 39.956 18.042 "/>
    </g>
    <g id="Layer_5">
      <path id="ID0.4160962710157037" fill="#FFFFFF" stroke="#231F20" d="M 71.840 25.366 C 74.764 29.845 74.873 34.957 72.082 36.781 C 69.289 38.606 64.656 36.449 61.728 31.968 C 58.795 27.488 58.691 22.379 61.484 20.553 C 64.275 18.730 68.913 20.884 71.840 25.366 Z "/>
      <path id="ID0.9668496949598193" fill="#231F20" d="M 71.089 32.522 C 71.089 33.602 70.287 34.478 69.289 34.478 C 68.296 34.478 67.486 33.601 67.486 32.522 C 67.486 31.442 68.296 30.564 69.289 30.564 C 70.287 30.564 71.089 31.442 71.089 32.522 "/>
    </g>
    <g id="Layer_7">
      <path id="ID0.14908870309591293" fill="#FFFFFF" stroke="#231F20" d="M 47.867 28.619 C 50.793 33.099 50.486 38.481 47.186 40.634 C 43.884 42.793 38.835 40.906 35.910 36.426 C 32.982 31.946 33.286 26.566 36.588 24.409 C 39.891 22.253 44.938 24.137 47.867 28.619 Z "/>
      <path id="ID0.06938396580517292" fill="#231F20" d="M 46.079 34.507 C 46.079 35.588 45.276 36.464 44.278 36.464 C 43.286 36.464 42.475 35.586 42.475 34.507 C 42.475 33.427 43.286 32.550 44.278 32.550 C 45.274 32.550 46.079 33.427 46.079 34.507 "/>
    </g>
    <path id="ID0.5399805647321045" fill="#5E4A42" stroke="#000000" d="M 59.766 37.926 C 61.620 37.926 64.321 37.642 64.463 38.495 C 64.606 39.350 62.754 42.698 61.475 42.840 C 60.192 42.982 55.350 40.487 55.280 38.921 C 55.206 37.355 58.055 37.926 59.766 37.926 Z "/>
    <g id="Layer_4">
      <path id="ID0.4968195320107043" fill="none" stroke="#231F20" stroke-width="1.2" d="M 46.774 45.235 C 46.774 45.235 57.121 48.289 60.991 49.132 C 64.859 49.974 71.842 50.816 71.842 50.816 C 71.842 50.816 63.852 61.061 54.514 58.460 C 45.176 55.863 45.345 49.975 46.774 45.235 Z "/>
    </g>
  </g>
  <path id="ID0.3473799880594015" fill="none" stroke="#00CCCC" stroke-width="2" stroke-linecap="round" d="M 138 317 C 138 317 138.940 304.937 140 299 C 140.611 295.578 141.901 292.298 143 289 C 144.233 285.302 145.501 281.598 147 278 C 148.834 273.599 150.685 269.168 153 265 C 155.692 260.155 158.810 255.532 162 251 C 165.143 246.533 168.564 242.245 172 238 C 174.227 235.249 176.591 232.594 179 230 C 180.923 227.929 183.191 226.171 185 224 C 186.537 222.155 187.526 219.895 189 218 C 189.867 216.885 191.096 216.085 192 215 C 192.769 214.078 193.554 213.115 194 212 C 194.247 211.382 193.702 210.596 194 210 C 194.421 209.158 195.478 208.784 196 208 C 196.826 206.761 197.447 205.383 198 204 C 198.782 202.045 199.292 199.983 200 198 C 200.957 195.321 202.043 192.679 203 190 C 203.708 188.017 204.372 186.010 205 184 C 206.037 180.682 206.752 177.245 208 174 C 208.431 172.879 209.569 172.121 210 171 C 211.248 167.755 211.676 164.215 213 161 C 214.022 158.517 215.647 156.319 217 154 C 217.978 152.323 219.001 150.665 220 149 C 220.999 147.335 222.132 145.737 223 144 C 223.802 142.396 224.334 140.665 225 139 C 225.666 137.335 226.198 135.604 227 134 C 227.868 132.263 229.197 130.768 230 129 C 230.872 127.083 231.117 124.912 232 123 C 233.125 120.562 234.865 118.433 236 116 C 237.203 113.422 237.879 110.615 239 108 C 240.878 103.618 242.795 99.227 245 95 C 246.796 91.557 248.846 88.231 251 85 C 252.847 82.229 254.722 79.429 257 77 C 259.743 74.075 262.933 71.583 266 69 C 269.262 66.253 272.543 63.497 276 61 C 278.547 59.161 281.357 57.699 284 56 C 286.020 54.701 287.852 53.074 290 52 C 291.228 51.386 292.697 51.434 294 51 C 294.706 50.765 295.278 50.181 296 50 C 297.965 49.509 299.980 49.155 302 49 C 304.324 48.821 306.689 48.692 309 49 C 311.722 49.363 314.360 50.246 317 51 C 319.025 51.579 321.116 52.058 323 53 C 325.810 54.405 328.292 56.407 331 58 C 333.955 59.738 337.383 60.785 340 63 C 341.833 64.551 342.588 67.058 344 69 C 345.254 70.724 346.777 72.253 348 74 C 349.113 75.591 350.132 77.263 351 79 C 351.802 80.604 352.648 82.242 353 84 C 353.656 87.282 353.743 90.663 354 94 C 354.077 94.996 354.134 95.996 354 97 C 353.465 101.016 352.704 105.011 352 109 C 351.705 110.672 351.169 112.310 351 114 C 350.834 115.657 351.184 117.345 351 119 C 350.848 120.365 350.333 121.668 350 123 C 349.667 124.332 349.728 125.836 349 127 C 348.002 128.597 346.408 129.749 345 131 C 343.406 132.417 341.747 133.777 340 135 C 338.409 136.113 336.697 137.057 335 138 C 333.698 138.723 332.293 139.261 331 140 C 329.958 140.596 329.115 141.554 328 142 C 327.382 142.247 326.471 141.529 326 142 C 325.529 142.471 326 143.334 326 144 C 326 144.666 326 145.334 326 146 C 326 147.332 326 148.668 326 150 C 326 150.999 326 152.001 326 153 C 326 153.999 326 155.001 326 156 C 326 156.999 326 158.001 326 159 C 326 160.332 326 161.668 326 163 C 326 163.999 326 165.001 326 166 C 326 167.332 326 168.668 326 170 C 326 171.665 326 173.335 326 175 C 326 176.332 325.835 177.678 326 179 C 326.170 180.362 326.806 181.641 327 183 C 327.141 183.989 327 185.001 327 186 C 327 186.999 327.164 188.015 327 189 C 326.827 190.039 326.289 190.987 326 192 C 325.623 193.320 325.541 194.738 325 196 C 324.527 197.104 323.769 198.078 323 199 C 322.096 200.085 320.999 201.001 320 202 C 319.001 202.999 317.999 204.001 317 205 C 316.001 205.999 315.150 207.179 314 208 C 312.788 208.866 311.400 209.491 310 210 C 307.722 210.828 305.362 211.455 303 212 C 301.026 212.455 299.019 212.832 297 213 C 295.009 213.166 292.998 213 291 213 C 287.670 213 284.304 213.413 281 213 C 276.269 212.409 271.681 210.906 267 210 C 261.356 208.908 255.608 208.262 250 207 C 242.278 205.262 234.586 203.260 227 201 C 218.926 198.595 211.055 195.466 203 193 C 194.733 190.469 186.275 188.502 178 186 C 171.952 184.172 165.994 181.998 160 180 C 156.004 178.668 152.030 177.226 148 176 C 144.368 174.895 140.700 173.854 137 173 C 136.075 172.787 135.646 172.838 135 173 C 134.278 173.181 133.666 173.667 133 174 C 131.668 174.666 130.332 175.334 129 176 C 128.334 176.333 127.596 176.553 127 177 C 126.247 177.565 125.666 178.334 125 179 C 124.334 179.666 123.565 180.247 123 181 C 122.553 181.596 122.277 182.309 122 183 C 121.609 183.978 120.913 184.951 121 186 C 121.255 189.060 121.898 192.135 123 195 C 123.598 196.554 125.191 197.545 126 199 C 126.871 200.568 127.129 202.432 128 204 C 128.809 205.455 130.324 206.479 131 208 C 131.690 209.552 131.553 211.362 132 213 C 132.554 215.032 133.446 216.968 134 219 C 134.447 220.638 134.463 222.389 135 224 C 135.471 225.413 136.261 226.707 137 228 C 137.596 229.042 138.151 230.151 139 231 C 140.177 232.177 141.747 232.904 143 234 C 144.418 235.240 145.467 236.905 147 238 C 147.857 238.612 148.987 238.711 150 239 C 151.320 239.377 152.654 239.731 154 240 C 155.986 240.397 158.026 240.545 160 241 C 162.362 241.545 164.640 242.445 167 243 C 170.306 243.778 173.728 244.091 177 245 C 179.741 245.761 182.289 247.137 185 248 C 189.620 249.470 194.307 250.783 199 252 C 203.301 253.115 207.717 253.819 212 255 C 217.381 256.484 222.721 258.185 228 260 C 233.381 261.850 238.641 264.086 244 266 C 247.967 267.417 251.930 268.915 256 270 C 261.933 271.582 267.972 272.833 274 274 C 278.300 274.832 282.633 275.664 287 276 C 291.316 276.332 295.674 276.149 300 276 C 305.335 275.816 310.675 275.380 316 275 C 320.000 274.714 323.996 274.211 328 274 C 330.328 273.877 332.669 274 335 274 C 337.997 274 341.003 274 344 274 C 345.332 274 346.668 274 348 274 C 348.999 274 350.015 274.164 351 274 C 352.039 273.827 353.022 273.391 354 273 C 354.691 272.723 355.309 272.277 356 272 C 356.978 271.609 358.022 271.391 359 271 C 359.691 270.723 360.309 270.277 361 270 C 361.978 269.609 363.022 269.391 364 269 C 364.691 268.723 365.404 268.447 366 268 C 366.753 267.435 367.192 266.485 368 266 C 368.903 265.458 370.022 265.391 371 265 C 371.691 264.723 372.309 264.277 373 264 C 373.978 263.609 375.097 263.542 376 263 C 376.808 262.515 377.247 261.565 378 261 C 378.596 260.553 379.419 260.465 380 260 C 381.103 259.117 382.001 257.999 383 257 C 384.665 255.335 386.416 253.742 388 252 C 389.749 250.076 391.414 248.061 393 246 C 394.747 243.729 396.306 241.310 398 239 C 399.969 236.315 402.153 233.771 404 231 C 405.489 228.766 406.799 226.401 408 224 C 409.467 221.067 410.708 218.014 412 215 C 412.706 213.352 413.507 211.724 414 210 C 414.183 209.360 414 208.666 414 208 C 414 207.334 414 206.666 414 206 C 414 205.334 414.471 204.471 414 204 C 412.627 202.627 410.774 201.789 409 201 C 407.745 200.442 406.255 200.558 405 200 C 403.226 199.211 401.616 198.077 400 197 C 398.615 196.076 397.332 194.999 396 194 C 394.668 193.001 393.332 191.999 392 191 C 390.668 190.001 389.385 188.924 388 188 C 386.384 186.923 384.616 186.077 383 185 C 381.615 184.076 380.385 182.924 379 182 C 377.384 180.923 375.553 180.165 374 179 C 372.870 178.152 372.103 176.883 371 176 C 370.419 175.535 369.527 175.527 369 175 C 368.473 174.473 368.527 173.527 368 173 C 367.473 172.473 366.691 172.277 366 172 C 365.022 171.609 363.999 171.333 363 171 C 362.001 170.667 360.978 170.391 360 170 C 359.309 169.723 358.722 169.181 358 169 C 357.354 168.838 356.653 169.131 356 169 C 354.967 168.793 354.013 168.289 353 168 C 351.680 167.623 350.351 167.246 349 167 C 346.683 166.579 344.299 166.511 342 166 C 341.273 165.838 340.730 165.146 340 165 C 339.020 164.804 337.980 165.196 337 165 C 336.270 164.854 335.722 164.181 335 164 C 334.354 163.838 333.666 164 333 164 C 331.002 164 328.995 164.117 327 164 C 323.328 163.784 319.654 163.422 316 163 C 310.994 162.422 305.986 161.733 301 161 C 294.663 160.068 288.329 158.989 282 158 C 277.673 157.324 273.303 156.820 269 156 C 266.303 155.486 263.664 154.666 261 154 C 259.668 153.667 258.303 153.434 257 153 C 256.294 152.765 255.666 152.333 255 152 C 254.334 151.667 253.572 151.477 253 151 C 251.553 149.794 250.471 148.177 249 147 C 247.125 145.500 244.859 144.521 243 143 C 241.178 141.509 239.665 139.665 238 138 C 236.335 136.335 234.597 134.730 233 133 C 230.599 130.399 228.401 127.601 226 125 C 224.403 123.270 222.485 121.827 221 120 C 218.144 116.485 215.633 112.686 213 109 C 212.302 108.023 211.446 107.115 211 106 C 210.753 105.382 211.298 104.596 211 104 C 210.579 103.158 209.724 102.603 209 102 C 207.721 100.934 206.253 100.096 205 99 C 203.582 97.760 202.260 96.400 201 95 C 199.260 93.067 197.839 90.839 196 89 C 194.161 87.161 192.013 85.647 190 84 C 188.350 82.650 186.619 81.388 185 80 C 184.285 79.387 183.906 78.259 183 78 C 181.399 77.543 179.615 77.596 178 78 C 176.835 78.291 176.074 79.463 175 80 C 174.058 80.471 172.914 80.478 172 81 C 170.554 81.826 169.332 83.001 168 84 C 166.668 84.999 165.279 85.934 164 87 C 163.276 87.603 162.666 88.334 162 89 C 161.334 89.666 160.666 90.334 160 91 C 159.334 91.666 158.565 92.247 158 93 C 157.553 93.596 157.527 94.473 157 95 C 156.473 95.527 155.447 95.404 155 96 C 154.368 96.842 154.471 98.058 154 99 C 153.463 100.074 152.666 101.001 152 102 C 151.334 102.999 150.698 104.023 150 105 C 149.032 106.355 147.924 107.615 147 109 C 145.923 110.616 144.943 112.303 144 114 C 143.277 115.302 142.666 116.668 142 118 C 141.334 119.332 140.587 120.631 140 122 C 139.585 122.968 139.116 123.953 139 125 C 138.779 126.986 139 129.002 139 131 C 139 131.999 139 133.001 139 134 C 139 134.666 138.838 135.354 139 136 C 139.181 136.722 139.617 137.362 140 138 C 140.618 139.030 141.382 139.970 142 141 C 142.383 141.638 142.667 142.334 143 143 C 143.666 144.332 144.134 145.788 145 147 C 145.821 148.150 147.001 149.001 148 150 C 148.666 150.666 149.435 151.247 150 152 C 150.447 152.596 150.473 153.473 151 154 C 151.527 154.527 152.553 154.404 153 155 C 153.632 155.842 153.458 157.097 154 158 C 154.485 158.808 155.247 159.435 156 160 C 156.596 160.447 157.362 160.617 158 161 C 159.030 161.618 160.062 162.250 161 163 C 161.735 163.588 162.158 164.579 163 165 C 163.596 165.298 164.382 164.753 165 165 C 166.115 165.446 166.970 166.382 168 167 C 168.638 167.383 169.362 167.617 170 168 C 171.030 168.618 171.926 169.463 173 170 C 173.942 170.471 175.014 170.630 176 171 C 177.679 171.630 179.432 172.129 181 173 C 182.455 173.809 183.454 175.382 185 176 C 186.881 176.752 189.096 176.308 191 177 C 192.825 177.664 194.232 179.197 196 180 C 197.917 180.872 200.021 181.280 202 182 C 203.685 182.613 205.361 183.272 207 184 C 208.361 184.605 209.606 185.477 211 186 C 212.286 186.482 213.638 186.830 215 187 C 216.322 187.165 217.676 186.853 219 187 C 220.688 187.188 222.315 187.789 224 188 C 224.991 188.124 226.001 188 227 188 C 227.666 188 228.334 188 229 188 C 229.999 188 231.001 188 232 188 C 232.999 188 234.015 187.836 235 188 C 236.039 188.173 236.958 188.851 238 189 C 239.319 189.188 240.686 188.781 242 189 C 242.734 189.122 243.278 189.819 244 190 C 244.646 190.162 245.347 190.131 246 190 C 247.033 189.793 248.022 189.391 249 189 C 249.691 188.723 250.320 188.302 251 188 C 253.317 186.970 255.691 186.049 258 185 C 259.356 184.384 260.639 183.605 262 183 C 263.639 182.272 265.361 181.728 267 181 C 268.361 180.395 269.587 179.471 271 179 C 272.611 178.463 274.374 178.488 276 178 C 277.718 177.485 279.299 176.567 281 176 C 282.303 175.566 283.668 175.333 285 175 C 286.332 174.667 287.697 174.434 289 174 C 289.706 173.765 290.334 173.333 291 173 C 291.666 172.667 292.334 172.333 293 172 C 293.666 171.667 294.334 171.333 295 171 C 296.332 170.334 297.668 169.666 299 169 C 299.666 168.667 300.334 168.333 301 168 C 301.666 167.667 302.334 167.333 303 167 C 304.332 166.334 305.631 165.587 307 165 C 307.968 164.585 309.022 164.391 310 164 C 310.691 163.723 311.309 163.277 312 163 C 312.978 162.609 314.097 162.542 315 162 C 315.808 161.515 316.216 160.522 317 160 C 318.239 159.174 319.856 158.953 321 158 C 321.922 157.231 322.151 155.849 323 155 C 324.177 153.823 325.736 153.084 327 152 C 328.073 151.081 329.133 150.115 330 149 C 331.474 147.105 332.727 145.036 334 143 C 334.395 142.369 334.667 141.666 335 141 C 335.333 140.334 335.667 139.666 336 139 C 336.333 138.334 336.553 137.596 337 137 C 337.565 136.247 338.579 135.842 339 135 C 339.298 134.404 338.838 133.646 339 133 C 339.181 132.278 339.723 131.691 340 131 C 340.391 130.022 340.793 129.033 341 128 C 341.131 127.347 341 126.666 341 126 C 341 125.001 341.196 123.980 341 123 C 340.854 122.270 340.146 121.730 340 121 C 339.804 120.020 340.196 118.980 340 118 C 339.854 117.270 339.333 116.666 339 116 C 338.667 115.334 338.383 114.638 338 114 C 337.382 112.970 336.537 112.074 336 111 C 335.529 110.058 335.391 108.978 335 108 C 334.723 107.309 334.181 106.722 334 106 C 333.838 105.354 334 104.666 334 104 C 334 103.334 334 102.666 334 102 C 334 101.001 334 99.999 334 99 C 334 98.334 334 97.666 334 97 C 334 96.334 334 95.666 334 95 C 334 94.001 333.804 92.980 334 92 C 334.146 91.270 334.723 90.691 335 90 C 335.391 89.022 335.711 88.013 336 87 C 336.377 85.680 336.830 84.362 337 83 C 337.165 81.678 336.781 80.314 337 79 C 337.122 78.266 337.878 77.734 338 77 C 338.219 75.686 337.812 74.319 338 73 C 338.149 71.958 338.667 70.999 339 70 C 339.333 69.001 339.667 67.999 340 67 C 340.333 66.001 340.609 64.978 341 64 C 341.277 63.309 341.667 62.666 342 62 C 342.333 61.334 342.553 60.596 343 60 C 343.565 59.247 344.334 58.666 345 58 C 345.666 57.334 346.334 56.666 347 56 C 347.666 55.334 348.265 54.588 349 54 C 349.938 53.250 351.151 52.849 352 52 C 352.527 51.473 352.553 50.596 353 50 C 353.565 49.247 354.412 48.735 355 48 C 355.750 47.062 356.463 46.074 357 45 C 357.471 44.058 357.667 42.999 358 42 C 358.333 41.001 358.667 39.999 359 39 C 359.333 38.001 359.793 37.033 360 36 C 360.131 35.347 360 34.666 360 34 C 360 33.334 360.162 32.646 360 32 C 359.819 31.278 359.383 30.638 359 30 C 358.382 28.970 357.849 27.849 357 27 C 355.823 25.823 354.385 24.924 353 24 C 351.384 22.923 349.665 21.999 348 21 C 346.335 20.001 344.792 18.747 343 18 C 340.762 17.068 338.342 16.625 336 16 C 333.347 15.292 330.649 14.723 328 14 C 326.984 13.723 326.033 13.207 325 13 C 324.347 12.869 323.653 12.869 323 13 C 321.967 13.207 321.033 13.793 320 14 C 319.347 14.131 318.666 14 318 14 C 317.334 14 316.653 13.869 316 14 C 314.967 14.207 314.039 14.827 313 15 C 312.015 15.164 310.993 14.890 310 15 C 307.987 15.224 305.965 15.509 304 16 C 303.278 16.181 302.706 16.765 302 17 C 300.697 17.434 299.332 17.667 298 18 C 296.668 18.333 295.262 18.459 294 19 C 292.896 19.473 292.030 20.382 291 21 C 290.362 21.383 289.666 21.667 289 22 C 288.334 22.333 287.596 22.553 287 23 C 286.247 23.565 285.973 24.375 285 25 C 281.109 27.502 276.891 29.498 273 32 C 272.027 32.625 271.784 33.478 271 34 C 269.761 34.826 268.163 35.070 267 36 C 266.419 36.465 266.527 37.473 266 38 C 265.473 38.527 264.596 38.553 264 39 C 263.247 39.565 262.753 40.435 262 41 C 261.404 41.447 260.596 41.553 260 42 C 259.247 42.565 258.666 43.334 258 44 C 256.668 45.332 255.447 46.794 254 48 C 253.428 48.477 252.527 48.473 252 49 C 251.473 49.527 251.465 50.419 251 51 C 250.117 52.103 248.883 52.897 248 54 C 247.535 54.581 247.447 55.404 247 56 C 246.435 56.753 245.588 57.265 245 58 C 244.250 58.938 243.666 60.001 243 61 C 242.334 61.999 241.618 62.970 241 64 C 240.617 64.638 240.277 65.309 240 66 C 239.609 66.978 239.471 68.058 239 69 C 238.463 70.074 237.750 71.062 237 72 C 236.412 72.735 235.485 73.192 235 74 C 234.458 74.903 234.333 76.001 234 77 C 233.667 77.999 233.333 79.001 233 80 C 232.667 80.999 232.471 82.058 232 83 C 231.463 84.074 230.422 84.876 230 86 C 229.404 87.590 229.537 89.389 229 91 C 228.529 92.413 227.523 93.606 227 95 C 226.518 96.286 226.333 97.668 226 99 C 225.667 100.332 225.194 101.641 225 103 C 224.859 103.989 225 105.001 225 106 C 225 106.999 225.164 108.015 225 109 C 224.827 110.039 224.207 110.967 224 112 C 223.869 112.653 224 113.334 224 114 C 224 114.999 223.836 116.015 224 117 C 224.173 118.039 224.793 118.967 225 120 C 225.131 120.653 224.702 121.404 225 122 C 225.421 122.842 226.515 123.192 227 124 C 227.542 124.903 227.585 126.032 228 127 C 228.587 128.369 229.334 129.668 230 131 C 230.666 132.332 231.106 133.809 232 135 C 233.130 136.507 234.749 137.592 236 139 C 237.417 140.594 238.574 142.415 240 144 C 241.575 145.750 243.335 147.335 245 149 C 246.665 150.665 248.134 152.564 250 154 C 252.490 155.915 255.306 157.384 258 159 C 260.302 160.381 262.540 161.924 265 163 C 267.894 164.266 271.132 164.676 274 166 C 275.512 166.698 276.645 168.032 278 169 C 278.977 169.698 279.896 170.527 281 171 C 282.262 171.541 283.646 171.774 285 172 C 285.657 172.109 286.347 171.869 287 172 C 288.033 172.207 288.967 172.793 290 173 C 290.653 173.131 291.334 173 292 173 C 292.666 173 293.354 172.838 294 173 C 294.722 173.181 295.270 173.854 296 174 C 296.980 174.196 298.001 174 299 174 C 299.999 174 301.001 174 302 174 C 302.999 174 304.011 174.141 305 174 C 306.359 173.806 307.697 173.434 309 173 C 310.701 172.433 312.236 171.321 314 171 C 315.966 170.643 318.009 171.166 320 171 C 322.019 170.832 324.014 170.397 326 170 C 327.346 169.731 328.668 169.333 330 169 C 331.332 168.667 332.638 168.170 334 168 C 335.322 167.835 336.681 168.188 338 168 C 339.042 167.851 340.022 167.391 341 167 C 341.691 166.723 342.404 166.447 343 166 C 343.753 165.435 344.247 164.565 345 164 C 345.596 163.553 346.404 163.447 347 163 C 347.753 162.435 348.412 161.735 349 161 C 349.750 160.062 350.250 158.938 351 158 C 351.588 157.265 352.478 156.784 353 156 C 353.826 154.761 354.334 153.332 355 152 C 355.666 150.668 356.395 149.361 357 148 C 357.728 146.361 358.485 144.718 359 143 C 359.488 141.374 359.632 139.658 360 138 C 360.298 136.660 360.667 135.332 361 134 C 361.333 132.668 361.702 131.340 362 130 C 362.368 128.342 362.404 126.590 363 125 C 363.422 123.876 364.382 123.030 365 122 C 365.383 121.362 365.723 120.691 366 120 C 366.391 119.022 366.529 117.942 367 117 C 367.537 115.926 368.382 115.030 369 114 C 369.383 113.362 369.617 112.638 370 112 C 370.618 110.970 371.463 110.074 372 109 C 372.471 108.058 372.458 106.903 373 106 C 373.485 105.192 374.435 104.753 375 104 C 375.447 103.404 375.723 102.691 376 102 C 376.391 101.022 376.609 99.978 377 99 C 377.277 98.309 377.707 97.684 378 97 C 378.706 95.352 379.129 93.568 380 92 C 380.809 90.545 382.032 89.355 383 88 C 383.698 87.023 384.404 86.042 385 85 C 385.739 83.707 386.261 82.293 387 81 C 387.596 79.958 388.554 79.115 389 78 C 389.247 77.382 388.702 76.596 389 76 C 389.421 75.158 390.435 74.753 391 74 C 391.447 73.404 391.473 72.527 392 72 C 392.527 71.473 393.278 71.181 394 71 C 394.646 70.838 395.334 71 396 71 C 396.666 71 397.334 71 398 71 C 398.666 71 399.446 70.631 400 71 C 400.620 71.413 400.723 72.309 401 73 C 401.391 73.978 401.585 75.032 402 76 C 402.587 77.369 403.677 78.546 404 80 C 404.361 81.625 403.702 83.362 404 85 C 404.377 87.072 405.654 88.923 406 91 C 406.328 92.971 406 95.002 406 97 C 406 98.998 405.717 101.022 406 103 C 406.388 105.718 407.549 108.291 408 111 C 408.219 112.314 408 113.668 408 115 C 408 116.665 408.184 118.345 408 120 C 407.848 121.365 407.333 122.668 407 124 C 406.667 125.332 406.482 126.714 406 128 C 405.477 129.394 404.605 130.639 404 132 C 403.272 133.639 402.802 135.396 402 137 C 401.132 138.737 400.113 140.409 399 142 C 397.777 143.747 396.434 145.422 395 147 C 393.099 149.091 391.083 151.091 389 153 C 387.083 154.757 384.839 156.161 383 158 C 381.492 159.508 380.578 161.566 379 163 C 376.880 164.927 374.347 166.357 372 168 C 371.016 168.689 370.074 169.463 369 170 C 368.058 170.471 367.033 170.793 366 171 C 365.347 171.131 364.596 170.702 364 171 C 363.158 171.421 362.753 172.435 362 173 C 361.404 173.447 360.716 173.795 360 174 C 358.367 174.466 356.660 174.644 355 175 C 351.998 175.643 349.010 176.398 346 177 C 344.014 177.397 342.017 177.817 340 178 C 338.342 178.151 336.662 178.092 335 178 C 330.665 177.759 326.322 177.412 322 177 C 319.327 176.745 316.654 176.408 314 176 C 312.322 175.742 310.688 175.188 309 175 C 307.676 174.853 306.332 175 305 175 C 304.001 175 302.999 175 302 175 C 301.334 175 300.657 174.891 300 175 C 298.646 175.226 297.340 175.702 296 176 C 294.342 176.368 292.688 176.812 291 177 C 289.676 177.147 288.332 177 287 177 C 286.001 177 284.999 177 284 177 C 283.334 177 282.666 177 282 177 C 281.834 177 282 177 282 177 " transform="matrix(1, 0, 0, 1, -120, -11)"/>
</svg>