<svg version="1.1" xmlns="http://www.w3.org/2000/svg" xmlns:xlink="http://www.w3.org/1999/xlink" width="39.63443" height="46.22704" viewBox="0,0,39.63443,46.22704"><g transform="translate(-220.70957,-133.90555)"><g data-paper-data="{&quot;isPaintingLayer&quot;:true}" fill="none" fill-rule="nonzero" stroke="#000000" stroke-width="none" stroke-linecap="none" stroke-linejoin="miter" stroke-miterlimit="10" stroke-dasharray="" stroke-dashoffset="0" font-family="none" font-weight="none" font-size="none" text-anchor="none" style="mix-blend-mode: normal"><path d="M243.9154,134.6453c3.6878,-0.3134 7.4245,2.8605 9.7078,7.011c2.6029,4.723 3.8611,11.164 4.0923,16.9089c0.2401,5.8538 0.2706,13.4009 -3.1663,16.9501c-3.7577,4.7189 -9.8034,3.8305 -14.9202,3.8355c-4.9352,0.0066 -10.742,1.05 -14.6813,-3.2168c-3.1967,-3.9344 -3.821,-11.5476 -3.4052,-17.5688c0.4193,-6.0204 2.6262,-12.9291 6.1831,-16.9089c4.4668,-5.0075 10.515,-7.3236 16.1898,-7.011z" id="ID0.5443468582816422" fill="#002067" stroke-width="1.43679" stroke-linecap="butt"/><path d="M255.0666,142.746c1.3393,0 2.5526,0.5381 3.4312,1.4081c0.8786,0.8694 1.4226,2.0706 1.4226,3.3958c0,1.3251 -0.544,2.5264 -1.4226,3.3958c-0.8786,0.87 -2.0919,1.4081 -3.4312,1.4081c-1.3392,0 -2.5525,-0.5381 -3.4312,-1.4081c-0.8786,-0.8694 -1.4226,-2.0707 -1.4226,-3.3958c0,-1.3252 0.544,-2.5264 1.4226,-3.3958c0.8787,-0.87 2.092,-1.4081 3.4312,-1.4081z" id="ID0.37750169076025486" fill="#ffffff" stroke-width="0.8472" stroke-linecap="butt"/><path d="M244.6839,141.5629c1.9882,-0.0019 3.7901,0.6703 5.0955,1.7585c1.3055,1.0875 2.1145,2.5911 2.1162,4.2506c0.0016,1.6596 -0.8046,3.1647 -2.1079,4.2548c-1.3034,1.0907 -3.104,1.7664 -5.0922,1.7683c-1.9882,0.002 -3.7901,-0.6702 -5.0956,-1.7584c-1.3054,-1.0876 -2.1145,-2.5912 -2.1161,-4.2507c-0.0016,-1.6595 0.8045,-3.1647 2.1079,-4.2548c1.3033,-1.0907 3.1039,-1.7664 5.0922,-1.7683z" id="ID0.37750169076025486" fill="#ffffff" stroke-width="1.11049" stroke-linecap="butt"/><path d="M255.1193,142.9784c0.363,0 0.6916,0.4489 0.9296,1.1749c0.2383,0.7259 0.3856,1.7281 0.3856,2.8337c0,1.1057 -0.1473,2.1079 -0.3856,2.8338c-0.238,0.7259 -0.5666,1.1749 -0.9296,1.1749c-0.3631,0 -0.6917,-0.449 -0.9296,-1.1749c-0.2384,-0.7259 -0.3857,-1.7281 -0.3857,-2.8338c0,-1.1056 0.1473,-2.1078 0.3857,-2.8337c0.2379,-0.726 0.5665,-1.1749 0.9296,-1.1749z" id="ID0.234124637208879" fill="#000000" stroke-width="1.17898" stroke-linecap="round"/><path d="M244.2753,142.5243c0.5389,-0.0006 1.0273,0.5612 1.3815,1.47c0.3547,0.9088 0.5746,2.1636 0.576,3.5483c0.0013,1.3846 -0.2162,2.6399 -0.5692,3.5494c-0.3524,0.9094 -0.8397,1.4721 -1.3786,1.4727c-0.5389,0.0005 -1.0273,-0.5613 -1.3815,-1.4701c-0.3547,-0.9087 -0.5746,-2.1636 -0.576,-3.5482c-0.0013,-1.3847 0.2162,-2.64 0.5692,-3.5494c0.3523,-0.9095 0.8397,-1.4722 1.3786,-1.4727z" id="ID0.234124637208879" fill="#000000" stroke-width="1.54539" stroke-linecap="round"/><path d="M255.66667,140.5l-4.66667,3l-13.66667,-4.33333" data-paper-data="{&quot;origPos&quot;:null}" fill="none" stroke-width="2" stroke-linecap="round"/></g></g></svg>