<svg xmlns="http://www.w3.org/2000/svg" xmlns:xlink="http://www.w3.org/1999/xlink" version="1.1" width="35.88859963417053" height="38.23093819618225" viewBox="0.022759079933166504 0.23039674758911133 35.88859963417053 38.23093819618225">
  <!-- Exported by Scratch - http://scratch.mit.edu/ -->
  <path id="ID0.5443468582816422" fill="#666600" stroke="#000000" stroke-width="0.5806726683068892" d="M 18.7594 1.2369 C 23.6494 1.4446 29.2718 2.2832 32.7511 6.4779 C 35.509 9.5877 34.9709 15.4247 34.7724 19.9907 C 34.5619 24.8471 34.5913 30.801 31.5173 33.7561 C 27.7876 37.5978 22.1195 37.5536 17.2631 37.4816 C 12.7547 37.4147 7.4032 37.0175 4.0064 33.251 C 1.1466 30.1859 0.872 24.4468 1.0137 19.7381 C 1.1692 14.5818 1.8501 8.4322 5.0039 4.994 C 8.6207 1.3739 14.0662 1.0367 18.7594 1.2369 Z "/>
  <g id="ID0.05171704199165106">
    <path id="ID0.37750169076025486" fill="#FFFFFF" stroke="#000000" stroke-width="0.7608326505693641" d="M 27.0266 15.8762 C 28.2293 15.8762 29.3189 16.3595 30.108 17.1408 C 30.897 17.9216 31.3856 19.0004 31.3856 20.1904 C 31.3856 21.3805 30.897 22.4593 30.108 23.2401 C 29.3189 24.0214 28.2293 24.5046 27.0266 24.5046 C 25.8239 24.5046 24.7342 24.0214 23.9452 23.2401 C 23.1561 22.4593 22.6676 21.3805 22.6676 20.1904 C 22.6676 19.0004 23.1561 17.9216 23.9452 17.1408 C 24.7342 16.3595 25.8239 15.8762 27.0266 15.8762 Z "/>
    <path id="ID0.234124637208879" fill="#000000" stroke="black" stroke-width="1.0587955475257709" stroke-linecap="round" d="M 27.0802 16.4541 C 27.4062 16.4541 27.7013 16.8573 27.915 17.5093 C 28.1291 18.1612 28.2613 19.0612 28.2613 20.0541 C 28.2613 21.0471 28.1291 21.9471 27.915 22.599 C 27.7013 23.251 27.4062 23.6542 27.0802 23.6542 C 26.7542 23.6542 26.459 23.251 26.2453 22.599 C 26.0313 21.9471 25.899 21.0471 25.899 20.0541 C 25.899 19.0612 26.0313 18.1612 26.2453 17.5093 C 26.459 16.8573 26.7542 16.4541 27.0802 16.4541 Z "/>
  </g>
  <g id="ID0.45551702193915844">
    <path id="ID0.37750169076025486" fill="#FFFFFF" stroke="#000000" stroke-width="0.7278478448213466" d="M 9.2855 15.7362 C 10.5886 15.7349 11.7696 16.1755 12.6253 16.8887 C 13.4809 17.6015 14.0112 18.587 14.0123 19.6747 C 14.0133 20.7624 13.485 21.749 12.6307 22.4634 C 11.7764 23.1783 10.5963 23.6212 9.2931 23.6225 C 7.99 23.6237 6.809 23.1832 5.9533 22.4699 C 5.0977 21.7571 4.5674 20.7716 4.5664 19.6839 C 4.5653 18.5962 5.0937 17.6097 5.9479 16.8952 C 6.8022 16.1803 7.9824 15.7374 9.2855 15.7362 Z "/>
    <path id="ID0.234124637208879" fill="#000000" stroke="black" stroke-width="1.0128928920385338" stroke-linecap="round" d="M 9.0196 16.1131 C 9.3728 16.1128 9.6929 16.481 9.925 17.0766 C 10.1576 17.6722 10.3017 18.4947 10.3026 19.4023 C 10.3034 20.3098 10.1609 21.1325 9.9295 21.7286 C 9.6986 22.3247 9.3792 22.6935 9.0259 22.6939 C 8.6727 22.6942 8.3526 22.326 8.1205 21.7304 C 7.888 21.1347 7.7438 20.3123 7.7429 19.4047 C 7.7421 18.4972 7.8846 17.6744 8.116 17.0784 C 8.3469 16.4823 8.6663 16.1134 9.0196 16.1131 Z "/>
  </g>
  <path id="ID0.33818667102605104" fill="#717902" stroke="none" d="M 14.8519 28.7183 C 16.2237 29.14 17.355 29.8815 18.0753 30.7399 C 18.7976 31.5975 19.1075 32.5715 18.835 33.4579 C 18.5624 34.3444 17.7589 34.9761 16.6796 35.2799 C 15.6015 35.5854 14.249 35.5633 12.8772 35.1416 C 11.5054 34.7199 10.3741 33.9784 9.6537 33.12 C 8.9314 32.2624 8.6216 31.2883 8.8941 30.4019 C 9.1666 29.5155 9.9701 28.8837 11.0494 28.58 C 12.1276 28.2745 13.48 28.2965 14.8519 28.7183 Z " stroke-width="1.4775547651213656"/>
  <path id="ID0.5287177078425884" fill="#717902" stroke="none" d="M 8.4893 5.8673 C 9.6142 5.301 10.8115 5.1393 11.8348 5.3353 C 12.8594 5.5306 13.7106 6.0848 14.1457 6.9492 C 14.5808 7.8136 14.5189 8.8274 14.0655 9.7667 C 13.6133 10.7054 12.7703 11.5708 11.6454 12.137 C 10.5205 12.7033 9.3232 12.865 8.2998 12.669 C 7.2753 12.4737 6.4241 11.9195 5.989 11.0551 C 5.5539 10.1907 5.6157 9.1769 6.0691 8.2376 C 6.5213 7.2989 7.3644 6.4335 8.4893 5.8673 Z " stroke-width="1.3629629600064408"/>
  <path id="ID0.7122737374156713" fill="#717902" stroke="none" d="M 18.14 13.94 C 19.0508 13.94 19.8752 14.3228 20.4728 14.942 C 21.0704 15.5612 21.44 16.4168 21.44 17.36 C 21.44 18.3032 21.0704 19.1588 20.4728 19.778 C 19.8752 20.3972 19.0508 20.78 18.14 20.78 C 17.2292 20.78 16.4048 20.3972 15.8072 19.778 C 15.2096 19.1588 14.84 18.3032 14.84 17.36 C 14.84 16.4168 15.2096 15.5612 15.8072 14.942 C 16.4048 14.3228 17.2292 13.94 18.14 13.94 Z " stroke-width="1.2000000476837158"/>
  <path id="ID0.7883478063158691" fill="#717902" stroke="none" d="M 4.6478 24.5465 C 5.1787 24.5465 5.6596 24.7437 6.0081 25.0612 C 6.3567 25.3786 6.5728 25.8177 6.5728 26.3026 C 6.5728 26.7876 6.3567 27.2266 6.0081 27.5441 C 5.6596 27.8615 5.1787 28.0588 4.6478 28.0588 C 4.1169 28.0588 3.636 27.8615 3.2875 27.5441 C 2.9389 27.2266 2.7228 26.7876 2.7228 26.3026 C 2.7228 25.8177 2.9389 25.3786 3.2875 25.0612 C 3.636 24.7437 4.1169 24.5465 4.6478 24.5465 Z " stroke-width="1.3508771657943726"/>
  <path id="ID0.8392290938645601" fill="#717902" stroke="none" d="M 18.3586 2.9612 C 19.3244 2.9807 20.1956 3.1774 20.8226 3.4802 C 21.4506 3.783 21.8344 4.1908 21.8254 4.6318 C 21.8165 5.0727 21.4165 5.4646 20.7767 5.7417 C 20.138 6.0189 19.2595 6.1801 18.2937 6.1605 C 17.3279 6.1409 16.4567 5.9443 15.8297 5.6415 C 15.2018 5.3387 14.8179 4.9308 14.8269 4.4899 C 14.8358 4.049 15.2358 3.6571 15.8756 3.38 C 16.5143 3.1028 17.3928 2.9416 18.3586 2.9612 Z " stroke-width="0.9999999700321787"/>
  <path id="ID0.4541481975466013" fill="#717902" stroke="none" d="M 27.1631 9.906 C 27.5167 10.348 27.6788 10.874 27.656 11.3674 C 27.634 11.8601 27.4263 12.3208 27.0382 12.6313 C 26.6501 12.9418 26.155 13.0433 25.6695 12.9566 C 25.1831 12.8705 24.7056 12.5969 24.352 12.1549 C 23.9984 11.713 23.8363 11.187 23.8591 10.6936 C 23.8811 10.2009 24.0888 9.7402 24.4769 9.4297 C 24.865 9.1192 25.3601 9.0177 25.8456 9.1044 C 26.332 9.1905 26.8095 9.4641 27.1631 9.906 Z " stroke-width="1.0000000241444285"/>
  <path id="ID0.3690975047647953" fill="#717902" stroke="none" d="M 32.7594 24.3514 C 33.0638 24.4633 33.2204 24.8933 33.2237 25.4986 C 33.2294 26.1029 33.0842 26.8814 32.7867 27.6908 C 32.4892 28.5002 32.0957 29.1874 31.7001 29.6442 C 31.3056 30.1033 30.9078 30.3296 30.6034 30.2178 C 30.2991 30.1059 30.1425 29.6759 30.1392 29.0705 C 30.1335 28.4663 30.2787 27.6878 30.5762 26.8784 C 30.8736 26.069 31.2671 25.3817 31.6627 24.925 C 32.0573 24.4659 32.4551 24.2395 32.7594 24.3514 Z " stroke-width="1.8115942406539927"/>
  <path id="ID0.7883478063158691" fill="#717902" stroke="none" d="M 25.7673 28.9385 C 26.5231 28.9385 27.2077 29.2192 27.7038 29.6711 C 28.2 30.1231 28.5077 30.7481 28.5077 31.4385 C 28.5077 32.1288 28.2 32.7538 27.7038 33.2058 C 27.2077 33.6577 26.5231 33.9385 25.7673 33.9385 C 25.0115 33.9385 24.3269 33.6577 23.8308 33.2058 C 23.3346 32.7538 23.0269 32.1288 23.0269 31.4385 C 23.0269 30.7481 23.3346 30.1231 23.8308 29.6711 C 24.3269 29.2192 25.0115 28.9385 25.7673 28.9385 Z " stroke-width="1.923076868057251"/>
</svg>