<svg xmlns="http://www.w3.org/2000/svg" xmlns:xlink="http://www.w3.org/1999/xlink" version="1.1" width="132.64990606809158" height="104.277812867408" viewBox="-0.5560550237918894 -0.3560550208116572 132.64990606809158 104.277812867408">
  <!-- Exported by Scratch - http://scratch.mit.edu/ -->
  <path id="ID0.35917190834879875" fill="#42210B" stroke="#000000" d="M 29.2444 55.0196 C 29.2444 68.1141 44.4467 78.7288 63.2006 78.7288 C 81.9545 78.7288 96.8852 67.185 92.0415 55.0196 C 87.4587 43.5095 81.9545 31.3105 63.2006 31.3105 C 44.4467 31.3105 29.2444 41.9258 29.2444 55.0196 Z " stroke-width="0.5902649164199829"/>
  <g id="ID0.893189774826169">
    <path id="ID0.6546092904172838" fill="#C69C6D" stroke="#000000" d="M 34.1691 78.6716 C 34.1691 74.2038 38.857 70.5814 44.6404 70.5814 C 50.4238 70.5814 55.1117 74.2038 55.1117 78.6716 C 55.1117 81.1424 34.1691 81.1424 34.1691 78.6716 Z " stroke-width="0.5902649164199829"/>
    <path id="ID0.9999977913685143" fill="#A67C52" stroke="#000000" d="M 53.2612 79.7795 C 53.1437 76.3825 51.373 74.7374 51.373 74.7374 " stroke-width="0.5902649164199829"/>
    <path id="ID0.8689246741123497" fill="#A67C52" stroke="#000000" d="M 50.8848 80.1921 C 50.8807 76.9704 49.7987 75.5532 49.7987 75.5532 " stroke-width="0.5902649164199829"/>
  </g>
  <path id="ID0.009229061659425497" fill="#754C24" stroke="#000000" d="M 27.8673 55.7696 C 27.8673 60.0508 29.3548 64.0841 31.9797 67.6186 C 37.916 75.6108 61.5643 77.0688 70.6952 67.0833 C 87.428 48.785 103.665 54.6877 94.6204 44.1922 C 88.069 36.5902 76.8841 30.4868 63.2006 30.4868 C 43.6864 30.4868 27.8673 41.8063 27.8673 55.7696 Z " stroke-width="0.5902649164199829"/>
  <path id="ID0.5557723217643797" fill="#42210B" stroke="#000000" d="M 60.0007 37.0464 L 65.1431 37.0464 L 62.5719 19.1909 L 60.0007 37.0464 " stroke-width="0.5902649164199829"/>
  <path id="ID0.3557110703550279" fill="#42210B" stroke="#000000" d="M 69.687 32.9907 L 74.7603 33.8354 L 75.1558 15.7993 L 69.687 32.9907 " stroke-width="0.5902649164199829"/>
  <path id="ID0.9858297486789525" fill="#42210B" stroke="#000000" d="M 78.7458 38.5965 L 83.2129 41.1458 L 89.8304 24.3628 L 78.7458 38.5965 " stroke-width="0.5902649164199829"/>
  <path id="ID0.7554545314051211" fill="#42210B" stroke="#000000" d="M 88.7838 40.277 L 92.7563 43.5435 L 102.112 28.1187 L 88.7838 40.277 " stroke-width="0.5902649164199829"/>
  <path id="ID0.12854639953002334" fill="#42210B" stroke="#000000" d="M 80.4145 48.2556 L 84.4896 51.3934 L 88.1646 42.4072 L 80.4145 48.2556 " stroke-width="0.5902649164199829"/>
  <path id="ID0.0611889879219234" fill="#42210B" stroke="#000000" d="M 67.4859 43.8646 L 72.5309 44.8615 L 71.8237 35.1788 L 67.4859 43.8646 " stroke-width="0.5902649164199829"/>
  <path id="ID0.2531722658313811" fill="#42210B" stroke="#000000" d="M 53.4529 43.4054 L 58.5109 42.4745 L 54.2882 33.7327 L 53.4529 43.4054 " stroke-width="0.5902649164199829"/>
  <path id="ID0.7779754302464426" fill="#42210B" stroke="#000000" d="M 43.8818 51.4772 L 47.5414 47.8636 L 39.1343 43.0087 L 43.8818 51.4772 " stroke-width="0.5902649164199829"/>
  <path id="ID0.20593265164643526" fill="#42210B" stroke="#000000" d="M 39.2565 60.8447 L 39.5799 55.7118 L 30.0755 57.6898 L 39.2565 60.8447 " stroke-width="0.5902649164199829"/>
  <path id="ID0.8070150394923985" fill="#42210B" stroke="#000000" d="M 50.0312 33.6158 L 55.0809 32.6425 L 49.1765 15.5968 L 50.0312 33.6158 " stroke-width="0.5902649164199829"/>
  <path id="ID0.729429510422051" fill="#42210B" stroke="#000000" d="M 42.8895 41.4126 L 47.5698 39.2824 L 37.8339 24.096 L 42.8895 41.4126 " stroke-width="0.5902649164199829"/>
  <path id="ID0.06967791076749563" fill="#42210B" stroke="#000000" d="M 33.6672 43.766 L 37.4715 40.3065 L 23.5572 28.8252 L 33.6672 43.766 " stroke-width="0.5902649164199829"/>
  <path id="ID0.07578826742246747" fill="#42210B" stroke="#000000" d="M 34.784 52.9618 L 36.631 48.1629 L 19.044 44.1467 L 34.784 52.9618 " stroke-width="0.5902649164199829"/>
  <g id="ID0.7288383892737329">
    <path id="ID0.44699910236522555" fill="#C69C6D" stroke="#000000" d="M 59.181 78.9732 C 59.181 75.2321 63.8689 72.1987 69.6523 72.1987 C 75.4357 72.1987 80.1236 75.2321 80.1236 78.9732 C 80.1236 81.0415 59.181 81.0415 59.181 78.9732 Z " stroke-width="0.5902649164199829"/>
    <path id="ID0.4673094302415848" fill="#A67C52" stroke="#000000" d="M 78.2731 79.9005 C 78.1557 77.0566 76.3849 75.6789 76.3849 75.6789 " stroke-width="0.5902649164199829"/>
    <path id="ID0.029157384298741817" fill="#A67C52" stroke="#000000" d="M 75.8967 80.2458 C 75.8926 77.5483 74.8106 76.3613 74.8106 76.3613 " stroke-width="0.5902649164199829"/>
  </g>
  <g id="ID0.6843042531982064">
    <path id="ID0.8130080956034362" fill="#C69C6D" stroke="#000000" d="M 74.9492 65.9905 C 76.3942 65.5402 77.675 64.4936 78.9111 63.1785 C 77.7217 63.3308 76.4219 63.1089 75.2201 62.4655 C 72.466 60.991 71.2677 57.8638 72.5439 55.4791 C 73.82 53.095 77.0871 52.3572 79.8413 53.8311 C 81.6747 54.8127 82.8127 56.5262 82.9969 58.2657 C 85.9045 54.7979 89.2454 51.7539 94.4026 52.912 C 99.2232 53.994 98.7806 59.5041 102.076 60.4869 C 106.4623 61.7949 111.7929 61.1757 111.7929 65.9905 C 111.7929 69.9034 108.916 73.3783 104.4648 75.5682 C 101.3789 77.0863 97.5363 76.9163 93.3708 76.9163 C 88.7053 76.9163 81.5643 74.4219 77.8751 73.7968 C 73.6453 73.0796 71.7759 66.9804 74.9492 65.9905 Z " stroke-width="0.5902649164199829"/>
    <path id="ID0.5114893540740013" d="M 104.7003 70.6513 C 105.7114 71.6022 108.8688 70.7817 111.9393 68.0423 C 114.615 65.6547 114.4491 61.7754 112.6459 60.3801 C 110.8426 58.9847 106.915 59.9899 105.5491 63.3054 C 103.5759 68.0972 103.6308 69.6449 104.7003 70.6513 Z " stroke-width="0.5902649164199829" />
    <path id="ID0.6965664783492684" fill="#FFFFFF" stroke="#000000" d="M 84.4666 62.1597 C 86.2091 67.4904 94.7012 69.9317 94.7012 62.237 C 89.4839 62.3563 88.6368 58.9132 86.5255 58.7474 C 84.4489 58.5845 83.9743 60.6545 84.4666 62.1597 Z " stroke-width="0.5902649164199829"/>
    <path id="ID0.6119098500348628" d="M 92.2747 63.0451 C 92.6276 63.0451 92.9476 63.1885 93.1789 63.4199 C 93.4103 63.6513 93.5538 63.9712 93.5538 64.3242 C 93.5538 64.6772 93.4103 64.9971 93.1789 65.2285 C 92.9476 65.4599 92.6276 65.6033 92.2747 65.6033 C 91.9217 65.6033 91.6017 65.4599 91.3704 65.2285 C 91.139 64.9971 90.9955 64.6772 90.9955 64.3242 C 90.9955 63.9712 91.139 63.6513 91.3704 63.4199 C 91.6017 63.1885 91.9217 63.0451 92.2747 63.0451 Z " stroke-width="0.5902649164199829" />
    <path id="ID0.22970852302387357" fill="none" stroke="#000000" d="M 76.61 61.4129 C 75.7742 60.9656 75.1818 60.2522 74.8998 59.4619 C 74.6176 58.6708 74.6459 57.8022 75.0518 57.0439 C 75.4576 56.2856 76.1646 55.7803 76.9794 55.5763 C 77.7935 55.3726 78.7156 55.4698 79.5514 55.9171 C 80.3873 56.3645 80.9796 57.0779 81.2616 57.8682 C 81.5438 58.6593 81.5155 59.5279 81.1096 60.2862 C 80.7038 61.0444 79.9968 61.5498 79.182 61.7538 C 78.3679 61.9575 77.4458 61.8603 76.61 61.4129 Z " stroke-width="0.5902898577198336"/>
    <path id="ID0.916386145632714" fill="none" stroke="#000000" d="M 109.4543 71.5054 C 109.4543 71.5054 107.6835 72.5466 105.1259 72.6162 C 102.5683 72.6859 101.3441 71.4245 99.2232 71.0314 C 96.6385 71.3118 96.694 74.7518 96.694 74.7518 " stroke-width="0.5902649164199829"/>
    <path id="ID0.46020253375172615" fill="none" stroke="#000000" d="M 95.8782 61.5995 C 93.7137 61.7961 93.8489 61.7654 91.9134 61.3723 C 89.9779 60.9792 88.2048 58.2244 85.5486 57.8797 " stroke-width="0.5902649164199829"/>
  </g>
  <path id="ID0.033297700341790915_9_" fill="none" d="M 0 0.2 L 131.5378 0.2 L 131.5378 103.3657 L 0 103.3657 L 0 0.2 Z " stroke-width="1.1121100475837788"/>
</svg>