<svg xmlns="http://www.w3.org/2000/svg" xmlns:xlink="http://www.w3.org/1999/xlink" version="1.1" width="134.06683654785155" height="165.5724365234375" viewBox="-0.10682961940765379 0.709999942779541 134.06683654785155 165.5724365234375">
  <!-- Exported by Scratch - http://scratch.mit.edu/ -->
  <g id="ID0.2655712771229446">
    <path id="ID0.6011513499543071" fill="#FAA51D" stroke="#000000" stroke-width="1.2" d="M 55.120 145.580 C 55.110 145.580 55.100 145.580 55.080 145.580 L 45.570 145.540 C 45.410 145.540 45.260 145.530 45.100 145.520 L 38.810 145.100 C 36.420 144.940 34.250 143.640 32.970 141.610 C 31.690 139.580 31.460 137.060 32.350 134.830 L 35.600 126.690 L 26.840 128.070 C 22.740 128.710 18.910 125.920 18.270 121.820 C 17.630 117.720 20.420 113.890 24.520 113.250 L 46.290 109.830 C 48.950 109.410 51.630 110.450 53.320 112.560 C 55.000 114.670 55.420 117.510 54.420 120.020 L 50.220 130.560 L 55.160 130.580 C 59.300 130.600 62.650 133.970 62.630 138.120 C 62.600 142.240 59.250 145.580 55.120 145.580 L 55.120 145.580 Z "/>
    <path id="ID0.7152078151702881_1_" fill="#FAA51D" stroke="#000000" d="M 12.320 125.360 C 12.680 129.870 13.690 135.310 17.230 140.200 C 25.150 151.120 39.610 155.870 35.050 162.510 C 30.480 169.160 6.580 166.490 1.560 143.520 C -0.170 135.600 0.550 128.630 1.310 122.980 C 1.510 121.500 4.000 109.000 10.710 105.340 C 17.420 101.680 18.660 104.850 19.370 106.420 C 20.080 107.990 11.820 118.990 12.320 125.360 L 12.320 125.360 Z " stroke-width="1"/>
    <path id="ID0.4691764716990292_1_" fill="#FFFFFF" d="M 34.700 161.430 C 33.190 164.950 24.960 166.090 18.780 163.580 C 12.590 161.080 10.100 157.790 7.830 155.280 C 6.230 152.280 12.080 157.060 15.680 153.590 C 19.270 150.130 18.460 143.280 18.460 143.280 C 18.460 143.280 25.190 149.370 29.280 152.870 C 33.190 156.200 36.020 157.640 34.700 161.430 L 34.700 161.430 Z " stroke-width="1"/>
    <path id="ID0.26425604708492756_1_" fill="#FAA51D" stroke="#231F20" stroke-width="1.2" d="M 37.660 126.350 C 39.840 124.670 42.070 121.930 44.930 117.680 C 47.310 114.140 49.890 107.420 49.890 107.420 C 51.500 102.780 53.450 95.330 46.390 94.000 C 43.530 93.460 38.890 93.820 32.290 92.570 C 25.680 91.320 19.790 87.930 14.790 96.680 C 9.790 105.430 -2.850 111.890 12.850 127.140 L 37.660 126.350 Z "/>
    <path id="ID0.9169861832633615" fill="#FAA51D" stroke="#000000" stroke-width="1.2" d="M 25.620 151.670 C 23.710 151.670 21.860 150.940 20.460 149.610 C 18.770 148.010 17.930 145.720 18.160 143.410 L 19.710 128.200 L 15.840 128.070 C 11.700 127.930 8.460 124.450 8.610 120.310 C 8.760 116.170 12.210 112.910 16.370 113.080 L 28.250 113.490 C 30.320 113.560 32.280 114.490 33.640 116.060 C 35 117.620 35.660 119.680 35.450 121.750 L 34.070 135.270 L 38.770 134.540 C 42.870 133.900 46.700 136.710 47.330 140.800 C 47.970 144.890 45.160 148.730 41.070 149.360 L 26.770 151.580 C 26.390 151.640 26 151.670 25.620 151.670 L 25.620 151.670 Z "/>
    <path id="ID0.203311821911484_1_" fill="#FFFFFF" d="M 45.940 114.260 C 45.940 114.260 50.480 109.370 41.400 104.480 C 32.320 99.590 28.140 104.450 25.330 107.280 C 20.470 112.160 30.660 123.440 30.660 123.440 L 37.500 125.330 C 37.500 125.330 40.700 122.300 42.100 119.850 C 43.700 117.620 45.940 114.260 45.940 114.260 " stroke-width="1"/>
    <path id="ID0.39469825103878975" fill="#FAA51D" d="M 23.220 126.150 C 19.910 129.510 14.100 129.150 10.240 125.350 C 6.380 121.550 5.930 115.740 9.240 112.390 C 12.550 109.030 18.360 107.390 22.220 111.190 C 28.790 117.650 29.150 120.120 23.220 126.150 Z " stroke-width="1"/>
    <path id="ID0.4675603983923793_1_" fill="#FAA51D" stroke="#231F20" stroke-width="1.2" d="M 109.800 51.510 C 108.350 49.060 105.160 44.090 103.130 41.540 C 97.700 34.730 90.320 29.860 90.320 29.860 L 88.970 1.310 L 63.190 25 C 65.050 25.120 32.740 23.050 23.330 45.890 C 13.920 68.750 22.640 96.820 48.390 120.770 C 74.140 144.720 95.060 139.760 102.240 131.750 C 109.420 123.750 104.940 110.920 104.940 110.920 C 104.940 110.920 111.520 105.960 116.220 95.230 C 119.020 88.840 119.220 74.130 119.220 74.130 L 133.360 57.430 L 114.600 54.080 L 109.800 51.510 L 109.800 51.510 Z "/>
    <path id="ID0.876089540310204_1_" fill="#FFFFFF" d="M 104.150 109.370 L 104.560 103.450 L 90.780 92.720 C 90.780 92.720 85.680 96.400 79.570 90.910 C 73.450 85.420 70.890 71.750 70.890 71.750 L 57.410 63.820 C 57.410 63.820 46.950 52.240 38.940 57.340 C 21.140 68.670 29.150 94.760 34.430 103.020 C 37.310 107.530 43.800 114.930 49.350 120.090 C 73.280 143.070 94.380 138.720 101.560 130.720 C 108.740 122.720 103.700 111.080 103.700 111.080 L 104.150 109.370 L 104.150 109.370 Z " stroke-width="1"/>
    <path id="ID0.44282719027251005_1_" fill="none" stroke="#231F20" stroke-width="1.2" d="M 13.120 28.370 C 13.120 28.370 22.170 29.740 26.360 32.850 C 29.120 34.900 31.880 39.050 31.880 39.050 "/>
    <path id="ID0.893105489667505_1_" fill="none" stroke="#231F20" stroke-width="1.2" d="M 101.430 123.210 C 101.430 123.210 107.440 129.190 111.130 131.770 C 115.450 134.800 120.040 134.830 120.040 134.830 "/>
    <path id="ID0.03574043000116944_1_" fill="none" stroke="#231F20" stroke-width="1.2" d="M 37.130 33.700 C 37.130 33.700 36.420 27.820 32.310 21.540 C 27.760 14.580 21.880 15.040 21.880 15.040 "/>
    <path id="ID0.6674723788164556_1_" fill="none" stroke="#231F20" stroke-width="1.2" d="M 93.060 130.300 C 93.060 130.300 94.350 135.550 96.950 140.040 C 99.520 144.470 102.230 145.140 102.230 145.140 "/>
    <path id="ID0.12165586883202195_1_" fill="none" stroke="#000000" stroke-linecap="round" d="M 109.330 51.030 C 111.340 56.020 111.320 58.410 111.320 58.410 " stroke-width="1"/>
    <path id="ID0.178104005753994_1_" fill="none" stroke="#000000" d="M 90.250 22.950 L 90.280 36.670 " stroke-width="1"/>
    <path id="ID0.7735752793960273_1_" fill="#FFFFFF" stroke="#231F20" d="M 113.680 92.100 C 110.150 101.280 102.650 106.950 96.920 104.750 C 91.190 102.550 89.420 93.320 92.950 84.130 C 96.470 74.930 103.980 69.280 109.700 71.480 C 115.430 73.670 117.210 82.910 113.680 92.100 L 113.680 92.100 Z " stroke-width="1"/>
    <path id="ID0.19106501014903188_1_" fill="#231F20" d="M 102.210 98.680 C 100.600 99.840 98.430 99.590 97.360 98.100 C 96.290 96.620 96.730 94.470 98.330 93.310 C 99.940 92.150 102.120 92.410 103.190 93.890 C 104.260 95.380 103.810 97.520 102.210 98.680 " stroke-width="1"/>
    <path id="ID0.06283409334719181_1_" fill="#FFFFFF" stroke="#231F20" d="M 83.020 59.860 C 79.490 69.050 71.140 74.380 64.370 71.780 C 57.600 69.180 54.970 59.620 58.500 50.440 C 62.030 41.250 70.370 35.910 77.140 38.510 C 83.930 41.110 86.550 50.670 83.020 59.860 L 83.020 59.860 Z " stroke-width="1"/>
    <path id="ID0.716460831463337_1_" fill="#231F20" d="M 70.830 66.320 C 69.220 67.480 67.050 67.230 65.970 65.740 C 64.900 64.260 65.340 62.110 66.950 60.950 C 68.560 59.790 70.740 60.050 71.810 61.530 C 72.880 63.020 72.440 65.160 70.830 66.320 " stroke-width="1"/>
    <path id="ID0.5430324394255877_1_" fill="#5E4A42" stroke="#000000" d="M 81.960 87.620 C 83.960 90.380 87.290 94.110 86.170 95.240 C 85.050 96.370 78.060 97.220 76.480 95.460 C 74.880 93.700 73.390 83.790 75.640 82 C 77.900 80.210 80.120 85.070 81.960 87.620 L 81.960 87.620 Z " stroke-width="1"/>
    <path id="ID0.5547774969600141_1_" fill="none" stroke="#231F20" stroke-width="1.2" d="M 57.070 76.120 C 57.070 76.120 63.660 94.830 66.570 101.510 C 69.480 108.180 75.740 119.500 75.740 119.500 C 75.740 119.500 51.860 118.620 45.690 101.900 C 39.510 85.180 48.470 79.090 57.070 76.120 L 57.070 76.120 Z "/>
    <path id="ID0.016656510066241026" fill="#FAA51D" stroke="#000000" stroke-width="1.2" d="M 28.620 129.250 C 25.540 129.250 22.860 127.080 22.250 124.030 L 18.500 105.310 C 17.790 101.790 20.080 98.360 23.600 97.660 C 27.120 96.950 30.540 99.240 31.250 102.760 L 33.890 115.920 L 45.300 115.210 C 48.890 114.970 51.970 117.710 52.190 121.290 C 52.410 124.870 49.690 127.960 46.110 128.180 L 29.040 129.240 C 28.900 129.250 28.760 129.250 28.620 129.250 L 28.620 129.250 Z "/>
  </g>
</svg>