<svg version="1.1" xmlns="http://www.w3.org/2000/svg" xmlns:xlink="http://www.w3.org/1999/xlink" width="271.24487" height="397.86138" viewBox="0,0,271.24487,397.86138"><g transform="translate(-93.83149,48.68908)"><g data-paper-data="{&quot;isPaintingLayer&quot;:true}" fill-rule="nonzero" stroke="none" stroke-width="0.5" stroke-linecap="butt" stroke-linejoin="miter" stroke-miterlimit="10" stroke-dasharray="" stroke-dashoffset="0" style="mix-blend-mode: normal"><path d="M281.21546,89.78225l3,-1c0,0 5.21776,-1.73926 6.95702,3.4785c1.73926,5.21776 -3.4785,6.95701 -3.4785,6.95701l-3,1c0,0 -5.21776,1.73926 -6.95702,-3.4785c-1.73926,-5.21775 3.4785,-6.95701 3.4785,-6.95701z" data-paper-data="{&quot;index&quot;:null}" fill="#ffffff"/><path d="M212.95472,101.5c-3.03757,0 -5.5,-2.46243 -5.5,-5.5c0,-3.03757 2.46243,-5.5 5.5,-5.5c3.03757,0 5.5,2.46243 5.5,5.5c0,3.03757 -2.46243,5.5 -5.5,5.5z" data-paper-data="{&quot;index&quot;:null}" fill="#ffffff"/><path d="M345.51727,214.53992c1.32058,1.27504 2.4777,3.05235 3.296,5.50727c3.95284,11.85855 -7.9057,15.81139 -7.9057,15.81139c-2.73587,0.81793 -5.59643,1.16054 -8.42556,1.5478c-4.63987,0.63512 -9.09813,2.2947 -13.73316,2.96423c-9.1019,1.31478 -18.10056,1.65286 -27.2277,2.11658c-5.54365,0.28165 -11.01199,1.41985 -16.53543,1.97025c-4.07864,0.40642 -8.17084,0.66331 -12.25428,1.01843c-1.91812,0.16681 -3.87563,-0.45586 -5.77444,-0.13725c-1.03956,0.17443 -1.95684,0.8486 -3,1c-2.30914,0.33514 -4.69884,-0.38612 -7,0c-2.65821,0.44604 -5.30831,1.07448 -8.00228,1.16141c-4.99736,0 -10.5715,0.61395 -15.52729,-0.09366c-6.11967,-0.87379 -11.92702,-4.26902 -18,-5c-3.37555,-0.40629 -6.85348,-0.80619 -9.96461,-2.1774c-2.22332,-0.9799 -4.06405,-2.71027 -6.29165,-3.68044c-1.576,-0.68639 -3.33402,-0.99852 -4.78809,-1.91536c-1.61005,-1.01518 -2.92131,-2.44841 -4.2672,-3.7943c-0.07948,-0.07948 0.36741,-0.15477 0.2672,-0.2057c-1.29578,-0.6585 -2.93791,-0.72417 -4.01578,-1.6993c-2.87826,-2.60392 -4.42295,-6.3804 -6.55311,-9.62496c-1.55621,-2.37035 -3.53365,-4.44567 -5.08841,-6.81698c-0.31574,-1.50004 -1.62383,-2.60083 -2.40419,-3.92025c-0.74337,-1.25688 -0.95976,-2.7653 -1.59581,-4.07975c-0.81089,-1.67577 -2.155,-3.10052 -2.73471,-4.8696c-0.48113,-1.46825 -0.13405,-3.09385 -0.37495,-4.62002c-0.46314,-2.9342 -2.50714,-6.01155 -3,-9c-0.37969,-2.30223 0.38612,-4.69884 0,-7c-0.17444,-1.03956 -0.8486,-1.95684 -1,-3c-0.20441,-1.40839 -0.16141,-7.27136 -0.16141,-9.00228c0,-4.20487 -0.44249,-8.84137 0.16141,-13.00228c0.1514,-1.04316 0.85091,-1.9565 1,-3c0.16622,-1.16341 -0.23167,-2.36127 -0.06775,-3.52501c0.64902,-4.60767 2.49573,-9.31192 3.68278,-13.80954c3.79907,-7.84744 6.4541,-16.1159 10.36716,-23.88638c1.45867,-2.89661 3.68267,-5.36515 5.12747,-8.26869c0.65053,-1.30734 0.76886,-2.87622 1.59581,-4.07975c3.54791,-5.16358 9.57097,-9.2195 15.14124,-11.6573c1.08105,-0.47312 1.64113,-1.70625 2.56703,-2.43784c1.08828,-0.8599 7.94109,-5.3907 8.86794,-5.76466c6.82731,-2.75466 13.91133,-2.1378 21.0592,-1.90716c1.92354,0.64118 4.02069,0.56015 6,1c2.05799,0.45733 3.94201,1.54267 6,2c0.97618,0.21693 2.01812,-0.18949 3,0c2.91466,0.5625 5.45572,2.45775 8.36156,3.06414c1.18742,0.24778 2.4416,-0.26144 3.63844,-0.06414c2.72176,0.44869 4.92039,1.59823 7.49256,2.3371c2.97605,0.85489 6.10642,1.11266 9.06699,2.01971c13.5996,4.16664 24.48161,13.12803 33.10494,24.05693c0.84958,1.07673 2.09674,1.84809 2.76874,3.04372c1.4287,2.54195 2.30543,5.35684 3.45815,8.03527c2.25454,9.53284 9.76254,15.97906 13.53777,24.78895c2.84984,6.6504 3.69725,14.03011 6.29214,20.72009c2.26556,5.84092 4.55592,11.69754 6.82493,17.55328c0.15054,0.38849 1.89704,4.77103 1.99447,7.38494c0.44548,0.43986 0.92101,1.18491 1.29587,1.55977c1.58106,1.58105 4.93644,4.85836 5.7943,6.26719c2.30628,3.78754 4.462,10.45601 3.92941,15.11152zM197.2749,201.92701c0.01065,0.19094 0.02209,0.38196 0.0334,0.57299c0.27126,0 0.54252,0 0.81379,0c-0.28562,-0.18536 -0.56825,-0.37636 -0.84719,-0.57299z" data-paper-data="{&quot;index&quot;:null}" fill="#00ffff"/><path d="M294.4027,77.92621c0.94564,1.67392 1.55202,3.82068 1.55202,6.5738c0,12.5 -12.5,12.5 -12.5,12.5c-7,0 -14,0 -21,0c-3.97082,0 -8.84679,0.45884 -12.6223,-0.53635c-0.9051,-0.23858 -1.59926,-0.9365 -2.34553,-1.53119c0.01789,0.03342 0.01104,0.0578 -0.03217,0.06754c-2.92768,0.66041 -6.02571,0.22261 -9.00228,-0.16141c-1.04543,-0.13487 -1.9565,-0.85093 -3,-1c-1.31993,-0.18856 -2.68289,0.20737 -4,0c-3.6452,-0.57391 -7.68902,-2.06458 -11.20607,-3.25735c-9.65953,-1.93191 -19.60344,-6.76073 -25.45842,-15.15639c-1.61556,-2.31661 -3.19297,-4.70292 -4.29687,-7.30256c-0.13174,-0.31024 -0.14177,-0.7012 -0.04816,-1.05899c-1.47466,-1.67146 -2.77296,-3.51041 -3.88524,-5.43925c-1.7404,-3.01811 -2.73212,-6.41431 -4.28328,-9.5339c-2.08712,-4.19749 -4.3842,-8.89453 -5.15825,-13.58789c-1.10084,-6.67482 -0.16141,-14.23132 -0.16141,-21.00228c0,-1.87056 -0.03224,-6.66796 0.16141,-8.00228c0.1514,-1.04317 0.82671,-1.96025 1,-3c0.59787,-3.58723 0.92953,-7.39576 2.70546,-10.56936c0.95863,-1.71308 2.7194,-2.83707 3.96636,-4.35322c3.28719,-3.99684 5.19301,-9.15397 8.82794,-12.91398c1.48349,-1.53454 3.25187,-2.77542 5,-4c0.09206,-0.06449 0.16033,0.37003 0.2057,0.2672c0.42549,-0.9644 0.39254,-2.13854 1,-3c3.27728,-4.64764 9.65302,-9.46191 15.01083,-11.39201c1.45363,-0.52365 3.09951,-0.10058 4.62002,-0.37494c1.03734,-0.18718 1.9565,-0.85093 3,-1c1.67504,-0.23928 3.53329,0.23125 5.04944,-0.51994c5.72868,-1.71269 12.47589,-3.14262 18.48013,-2.54781c7.06678,0.70007 12.71223,4.15001 18.40646,8.00572c3.93974,2.6677 6.68768,5.95668 10.25627,8.95745c1.58842,1.33568 3.44961,2.35951 4.89065,3.85299c3.19997,3.31643 4.59321,7.60084 7.05985,11.28131c0.68702,1.02511 1.88588,1.66266 2.49261,2.73724c1.23582,2.18876 1.41727,4.85963 2.5958,7.07975c1.68993,3.1835 3.44904,6.33707 4.93667,9.61998c0.25021,5.59731 2.1411,10.22015 0.33439,15.87191c-0.04103,0.12835 0.16142,-0.4564 0.22357,-0.33683c0.92024,1.77035 1.96742,3.52695 2.44204,5.46492c0.46634,1.9042 0.30805,3.91161 0.33439,5.87191c0.03136,2.3345 0.10787,4.68315 -0.16141,7.00228c-0.2805,2.41573 -1.42921,4.43749 -1,6.99544c0.17443,1.03956 0.86513,1.95457 1,3c1.17421,9.1015 0.21482,19.0801 -5.39061,26.42848z" data-paper-data="{&quot;index&quot;:null}" fill="#00f7f7"/><path d="M168.31328,175.54718c0.53291,1.59871 0.77843,3.05373 0.80439,4.37475c1.01464,0.64045 1.93072,1.42283 2.72036,2.31929c0.84377,0.81897 1.61206,1.70166 2.24984,2.68716c1.1454,1.76988 0.74023,4.30961 2,6c0.56338,0.75597 1.52004,1.1885 2,2c0.74337,1.25688 1.01035,2.742 1.59581,4.07975c0.69388,1.58547 2.49888,2.44525 3.40419,3.92025c0.76386,1.24453 1.01035,2.742 1.59581,4.07975c1.4672,3.35248 6.87486,6.20463 9.70481,8.09126c3.17225,2.11484 6.04849,4.37976 8.99111,6.73386c0.93849,0.75079 2.07605,1.23139 3,2c0.2737,0.22768 0.85798,0.74506 0.74137,0.96148c3.44172,1.12089 7.45056,1.55172 9.47429,4.39642c2.39008,3.35969 0.87643,8.20062 1.19807,12.31116c0.49847,6.37043 -3.25358,13.11464 -6.10966,18.48961c-1.91443,3.60285 -2.16285,8.29887 -4,12c-1.06872,2.15305 -2.96613,3.83001 -4,6c-0.96178,2.01866 -1.75966,4.13948 -3,6c-1.3517,3.45569 -3.57659,6.65899 -6.30408,9.17488c-0.58626,0.54077 -1.52519,0.60497 -2.08603,1.17206c-1.02335,1.03477 -1.43768,2.61333 -2.5663,3.53214c-1.78756,1.45524 -4.02099,2.25603 -5.99845,3.4404c-4.84689,2.90297 -10.58499,5.58933 -16.27181,6.52722c-4.42681,0.73008 -9.08822,-0.54651 -13.47499,0.06775c-1.36109,0.19058 -2.6368,0.82517 -4,1c-10.80185,1.38538 -21.53713,-1.29405 -31.68602,-4.52884c-2.70517,-2.33441 -6.4662,-5.22166 -8.4744,-8.30586c-0.73401,-1.1273 -0.77987,-2.59771 -1.43911,-3.77031c-1.91673,-3.40933 -6.06721,-6.42188 -7.47625,-10.01779c-0.83027,-2.11885 -0.4146,-4.53675 -0.7901,-6.78127c-0.76062,-4.54656 -3.44934,-8.73123 -4.06775,-13.47499c-0.30163,-2.31376 0.36403,-4.69524 0,-7c-0.98852,-6.25852 -2.8514,-11.52354 -2,-18.05458c0.68448,-5.25061 2.87986,-10.42175 4.5478,-15.42556c0.7418,-1.87293 1.17772,-3.8982 2.22541,-5.6188c2.74648,-4.51046 7.80728,-7.63666 11.18996,-11.61838c2.69427,-3.1714 5.09784,-6.58979 7.7764,-9.73484c4.02228,-4.7228 9.77413,-8.48988 14.47675,-12.51832c5.7471,-4.92318 11.16208,-9.61317 18.23717,-12.41537c0,0 11.85854,-3.95284 15.81139,7.9057z" data-paper-data="{&quot;index&quot;:null}" fill="#fff81f"/><path d="M335.94614,220.81139c0.46542,-0.16164 0.95723,-0.30825 1.47687,-0.43816c12.12678,-3.0317 15.15847,9.09508 15.15847,9.09508c1.2629,5.1064 2.82983,9.09464 2.27957,14.55899c-0.51857,5.14974 -2.35887,10.40503 -3.06775,15.47499c-0.58683,4.19704 0.61925,8.73323 0,13c-0.1514,1.04316 -0.7836,1.96836 -1,3c-0.53297,2.54074 0.36907,6.45709 0,9c-0.1514,1.04316 -0.7836,1.96836 -1,3c-0.3957,1.88639 0.16141,5.01933 0.16141,6.99772c0,6.42242 0.88302,13.66944 -0.16141,20.00228c-0.34306,2.08008 -1.60291,3.92955 -2,6c-0.36635,1.91019 0.02948,4.01738 -0.7901,5.78127c-1.07749,2.31897 -3.05446,4.1062 -4.70966,6.05529c-0.07275,0.08567 -0.16033,-0.37004 -0.2057,-0.2672c-0.42549,0.9644 -0.35207,2.16856 -1,3c-1.7564,2.25385 -3.62917,4.56193 -6.06149,6.06149c-6.26923,3.86507 -8.49809,2.88291 -14.36329,4.44811c-2.43201,0.64902 -4.73851,1.76028 -7.20607,2.25735c-1.30708,0.2633 -2.68007,-0.18856 -4,0c-1.0435,0.14907 -1.95457,0.86512 -3,1c-3.83027,0.49416 -8.10648,0.16141 -12.00228,0.16141c-4.05197,0 -8.51126,0.4441 -12.52729,-0.09366c-4.17041,-0.55843 -8.39935,-2.43637 -12.47499,-3.06775c-3.59384,-0.55674 -7.38164,-0.955 -10.56936,-2.70546c-1.66838,-0.91616 -2.88877,-2.48175 -4.26719,-3.7943c-4.25455,-4.05123 -7.50378,-8.56312 -9.70966,-14.05529c-2.12448,-5.28951 -1.85658,-5.48953 -1.9515,-10.78355c-0.03585,-1.99964 0.49236,-4.02533 0.16141,-5.99772c-0.98821,-5.88941 -1.91144,-11.82491 -3.10057,-17.77056c-0.06441,-4.48037 -0.53806,-9.30787 0.03282,-13.75901c0.17484,-1.3632 0.85381,-2.63343 1,-4c0.35455,-3.31443 -0.38014,-6.68842 0,-10c0.15673,-1.3654 0.80942,-2.63891 1,-4c0.29922,-2.13695 -0.09366,-4.31492 -0.09366,-6.47271c0,-5.00418 -0.63806,-12.3135 2.35948,-16.30888c2.24052,-2.98637 6.24695,-4.14762 9.64568,-5.69262c4.86035,-2.20941 9.69513,-1.0376 14.71812,-1.47434c5.98666,-0.52053 11.99802,-0.70443 18,-1c4.74479,-0.23365 9.08293,-1.98864 13.77444,-1.86275c3.6688,-1.81773 7.61731,-2.55863 11.50744,-3.6629c0.959,-0.27223 2.12387,-0.03594 2.9232,-0.63164c0.75597,-0.56339 1.06539,-1.87588 2,-2c5.58039,-0.7411 12.09112,-3.46569 16.88052,-0.50739c0.81465,0.50319 1.5393,0.98638 2.18256,1.45191zM287.55998,305.22378c-0.30742,-0.30596 -0.61953,-0.60486 -0.9441,-0.88494c-0.28809,-0.29165 -0.58369,-0.59053 -0.88524,-0.89612c-0.0453,0.43047 -0.07804,0.85691 -0.03229,1.26711c0.60745,0.14643 1.2325,0.31941 1.86164,0.51395z" data-paper-data="{&quot;index&quot;:null}" fill="#fff81f"/><path d="M269.45472,27c-6.90356,0 -12.5,-5.59644 -12.5,-12.5c0,-6.90356 5.59644,-12.5 12.5,-12.5c6.90356,0 12.5,5.59644 12.5,12.5c0,6.90356 -5.59644,12.5 -12.5,12.5z" data-paper-data="{&quot;index&quot;:null}" fill="#ffffff"/><path d="M216.45472,25c-6.90356,0 -12.5,-5.59644 -12.5,-12.5c0,-6.90356 5.59644,-12.5 12.5,-12.5c6.90356,0 12.5,5.59644 12.5,12.5c0,6.90356 -5.59644,12.5 -12.5,12.5z" data-paper-data="{&quot;index&quot;:null}" fill="#ffffff"/><path d="M270.45472,17c-1.38071,0 -2.5,-1.11929 -2.5,-2.5c0,-1.38071 1.11929,-2.5 2.5,-2.5c1.38071,0 2.5,1.11929 2.5,2.5c0,1.38071 -1.11929,2.5 -2.5,2.5z" data-paper-data="{&quot;index&quot;:null}" fill="#000000"/><path d="M216.45472,15c-1.38071,0 -2.5,-1.11929 -2.5,-2.5c0,-1.38071 1.11929,-2.5 2.5,-2.5c1.38071,0 2.5,1.11929 2.5,2.5c0,1.38071 -1.11929,2.5 -2.5,2.5z" data-paper-data="{&quot;index&quot;:null}" fill="#000000"/><path d="M194.5236,65.5c0,-0.19295 0.01489,-0.37101 0.04238,-0.53533c-0.00343,-0.02137 -0.0068,-0.04278 -0.0101,-0.06422c-0.39873,-2.59108 0.56901,-5.215 1,-7.80091c0.55471,-3.32827 0.87061,-6.10669 2.09601,-9.39011c0.49982,-1.33925 0.56796,-2.99224 1.60394,-3.9772c1.65316,-1.57174 7.64265,-2.75406 9.53553,-1c1.03658,0.96056 0.62811,2.68802 0.67973,4.17131l1.0525,2.59645c-0.01076,0.86651 -0.14715,1.74061 -0.03228,2.59954c0.12502,0.93486 0.36058,1.59439 0.68795,2.0555c0.71109,-0.26666 1.97894,-0.46007 2.92446,0.95821c0.00916,0.01375 0.01818,0.02746 0.02704,0.04115c0.87482,-0.03747 1.85651,-0.16037 2.89284,-0.1544c0.16737,0.00096 0.33371,0.00505 0.49908,0.01061c0.00009,-0.77404 0.00092,-1.36871 0.00092,-1.51061c0,0 0,-2.5 2.5,-2.5c2.5,0 2.5,2.5 2.5,2.5c0,0.09628 0.0005,0.19227 0.00148,0.28798c1.00662,-0.80409 2.00004,-1.88947 2.9125,-3.06814c-0.46212,0.03685 -0.95084,0.23703 -1.41398,0.28017c0,0 -2.5,0 -2.5,-2.5c0,-2.5 2.5,-2.5 2.5,-2.5c1.3189,0.06343 2.72071,-0.27428 3.95671,0.1903c0.10834,0.04072 0.21004,0.09175 0.30644,0.15106c0.17791,-0.3261 0.34214,-0.64086 0.49107,-0.93974c0.50619,-1.01592 0.53252,-2.24426 1.11916,-3.21595c0.86759,-1.43704 3.19537,-2.64075 3.7339,-4.41013c0.02789,-0.09162 0.04722,-0.18426 0.05969,-0.27773c-0.27776,-0.56719 -0.25883,-1.10659 -0.13012,-1.5559c-0.03537,-0.28382 -0.05105,-0.56616 -0.00456,-0.84236c0.19712,-1.17115 0.73067,-2.26008 1.09601,-3.39011c0,0 0.79057,-2.37171 3.16228,-1.58114c1.56002,0.52001 1.75188,1.7241 1.70048,2.48736c2.50036,0.70182 4.83256,1.41759 7.50895,1.38435c3.64628,0.17537 5.28451,-0.63461 7.3097,3.54329c1.68384,3.47371 -0.13804,7.46244 -1.24263,10.99216l0.169,2.08259c0,0 -0.28241,0.56482 -0.84723,0.98478c-0.1095,1.75456 0.36796,3.5578 0.07888,5.29764c-0.59576,3.58557 -2.46917,9.80926 -4.34109,12.91387c-1.81872,3.01638 -5.33018,5.49467 -8.72617,6.15339c-0.9817,0.19042 -2.01361,-0.1644 -3,0c-1.03975,0.17329 -1.95936,0.83216 -3,1c-3.89931,0.62889 -8.44504,0.03228 -12.40046,0.03228c-0.48002,0 -6.14144,0.00949 -6.40046,-0.03228c-1.04064,-0.16784 -1.96025,-0.82671 -3,-1c-0.98639,-0.1644 -2.01439,0.16905 -3,0c-5.11908,-0.87801 -11.17776,-3.65219 -13.35532,-8.6182c-0.41735,-0.36843 -0.74423,-0.94554 -0.74423,-1.84952zM201.92522,60.25421c1.73656,-0.86526 3.43257,-2.04924 5.09461,-3.25503c-0.04161,-0.06149 -0.08256,-0.12313 -0.12286,-0.18486c-1.67122,-2.55971 -1.35244,-4.47787 -1.37277,-7.24227c-0.57938,-0.4136 -0.82328,-1.04294 -0.92596,-1.49951c-0.07894,-0.3192 -0.13366,-0.74587 -0.04363,-1.18962c-0.0444,0.03797 -0.08823,0.06761 -0.13057,0.08479c-0.51274,0.20805 -1.26869,-0.11672 -1.63269,0.30005c-1.14311,1.30883 -0.83756,3.37726 -1.39606,5.0228c-0.60874,1.7936 -0.5926,3.74157 -0.90399,5.60989c-0.1985,1.19099 -0.60566,2.35387 -0.87305,3.51679c0.76163,-0.406 1.5419,-0.78184 2.30695,-1.16304zM204.12197,64.74579c-1.21782,0.61097 -2.56784,1.09428 -3.64589,1.91137c1.48021,1.90715 4.22112,2.76121 6.33808,3.47114c4.55164,1.52641 9.39004,1.87171 14.20943,1.87171c1.31002,0 2.70954,0.08387 4.13148,0.16292c-1.59779,-1.73214 0.10076,-3.43069 0.10076,-3.43069l0.34241,0.16143c0.44925,-1.76025 1.8943,-6.45175 1.11566,-8.43695c-0.35413,-0.90286 -1.16894,-1.48466 -2.00143,-2.0595c-0.12473,0.08028 -0.2496,0.15682 -0.37454,0.22942c-0.44425,0.25815 -0.89826,0.47277 -1.36017,0.65075c0.25459,2.03945 0.52534,4.0634 0.54584,6.22263v3c0,0 0,2.5 -2.5,2.5c-2.5,0 -2.5,-2.5 -2.5,-2.5v-3c0.0227,-1.82819 -0.61903,-3.60183 -0.9349,-5.40462c-1.19181,0.0006 -2.38892,-0.0632 -3.5651,-0.09538c-0.90824,-0.02485 -1.86922,0.14954 -2.77306,0.08517c-2.31303,1.65839 -4.68141,3.43289 -7.12856,4.66062zM231.33329,58.54329c1.27869,3.16733 -0.13875,8.52615 -0.88434,11.56305l-1.65759,2.16143c0,0 -0.01149,0.01149 -0.03353,0.03168c1.3381,0.00753 2.64557,-0.05637 3.86531,-0.26717c1.0387,-0.17951 1.96025,-0.82671 3,-1c3.51728,-0.58621 6.13083,-0.24868 8.27383,-3.84661c0.37637,-0.63189 0.75138,-1.41592 1.11132,-2.28525c-1.73263,-1.01518 -3.36009,-2.24491 -4.75246,-3.63266c-0.85125,-0.84842 -1.16873,-2.132 -2,-3c-1.41635,-1.47894 -3.78907,-1.59016 -5.54656,-2.64114c-0.80916,-0.48388 -1.19155,-1.51493 -2,-2c-0.28505,-0.17103 -0.59906,-0.27926 -0.92367,-0.36444c-0.48953,0.66322 -1.00355,1.31156 -1.53517,1.9243c1.29166,1.29718 2.93209,2.98333 3.08286,3.3568zM233.33792,49.37337c0.80845,0.48507 1.19232,1.51364 2,2c2.07749,1.25101 4.70947,1.67376 6.45344,3.35886c0.8643,0.83512 1.15168,2.14865 2,3c0.80625,0.80913 1.79317,1.61505 2.85366,2.32696c0.40716,-1.46152 0.72659,-2.85848 0.91085,-3.95965c0.44732,-2.67326 0.1588,-4.8351 0.57856,-7.31407c-3.9587,-1.42194 -7.86704,-2.82353 -12.11084,-2.78547c0,0 -1.28337,0 -2.01108,-0.91951c-0.35444,0.7904 -0.3517,1.73767 -0.74313,2.51789c-0.22732,0.4531 -0.48244,0.9345 -0.76197,1.43404c0.29131,0.08216 0.57256,0.18618 0.83051,0.34096zM249.5236,41.5c0.00943,-0.2771 0.76725,-2.48252 -0.45671,-2.6903c-0.6744,-0.11449 -1.36219,0.12687 -2.04329,0.1903c-3.19515,-0.03033 -5.42604,-0.39758 -8.18273,-1.92965c-0.07184,0.73589 -0.18051,1.46231 -0.42454,2.15411c-0.23668,0.67095 -0.61224,1.26405 -1.05411,1.82106c4.19639,0.2535 8.0167,1.51401 11.94536,2.87684c0.11996,-0.80333 0.18854,-1.61495 0.21602,-2.42237z" data-paper-data="{&quot;index&quot;:null}" fill="#00d7ff"/><path d="M253.43936,97.8384c0.58271,0.44031 0.90966,0.76726 0.90966,0.76726c3.76978,3.8654 6.33076,8.49196 9.64579,12.7129c1.16467,1.48294 2.818,2.53084 4,4c2.97128,3.69316 5.89428,8.4057 7.60429,12.79867c0.42611,1.09465 0.30937,2.35867 0.77214,3.43833c1.20367,2.80822 3.13181,5.38205 3.70759,8.38262c0.25127,1.30944 -0.16707,2.67718 0,4c0.71384,5.65187 3.52672,9.98289 3,16c1.19195,3.57586 1.1259,6.81975 1.1259,10.56178c0,3.86777 0.74239,9.18497 -0.41835,12.8254c-2.25043,7.05802 -8.08257,11.47825 -13.92332,15.28709c-4.10263,2.67538 -7.58299,3.39429 -12.0256,5.03189c-1.76771,0.65161 -3.31597,1.88358 -5.14263,2.3448c-1.51261,0.38193 -3.13499,-0.09319 -4.67831,0.13493c-1.04276,0.15413 -1.95942,0.83174 -3,1c-4.22672,0.68344 -8.79911,0.38941 -13,1c-2.52188,0.36655 -5.01437,1.0556 -7.56178,1.1259c-0.76925,0 -7.51699,0.02324 -8.19129,-0.07305c-10.81722,-1.54465 -21.38735,-9.13396 -27.71832,-17.97602c-1.69407,-2.366 -3.02028,-6.17309 -4.52326,-8.80714c-2.55326,-4.47471 -4.56047,-8.42296 -5.24408,-13.7025c-0.49203,-3.79993 -0.54927,-9.53606 0,-13.38257c0.67584,-4.73287 3.05285,-8.65414 3.05285,-13.37049c0.94324,-3.01681 2.36114,-5.86466 3.47972,-8.82095c0.85513,-2.26001 1.09823,-4.72476 1.98927,-6.97086c0.93839,-2.36548 1.75297,-4.8041 3.0154,-7.0137c1.80626,-3.16144 5.28509,-6.03667 7.59961,-8.8141c7.36151,-8.83381 14.95434,-17.12416 25.80892,-21.82643c1.79586,-0.77797 8.6267,-2.78275 9.73116,-2.74217c5.27087,0.19365 6.70407,1.60502 10.28368,3.99143c3.48477,1.32847 6.79927,3.62931 9.01017,6.6327c0.32296,0.43873 0.52587,0.94098 0.69078,1.46433z" data-paper-data="{&quot;index&quot;:null}" fill="#e1ff00"/><path d="M241.15713,113.51294l-0.07412,-0.22237c0,0 -0.79057,-2.37171 1.58114,-3.16228c2.37171,-0.79057 3.16228,1.58114 3.16228,1.58114l1,3c0,0 0.79057,2.37171 -1.58114,3.16228c-1.72819,0.57606 -2.61686,-0.52691 -2.97188,-1.16786c-0.78497,-0.42164 -1.31869,-1.25042 -1.31869,-2.20385c0,-0.35055 0.07215,-0.68425 0.20241,-0.98706z" data-paper-data="{&quot;index&quot;:null}" fill="#000000"/><path d="M224.45472,112c-1.38071,0 -2.5,-1.11929 -2.5,-2.5c0,-1.38071 1.11929,-2.5 2.5,-2.5c1.38071,0 2.5,1.11929 2.5,2.5c0,1.38071 -1.11929,2.5 -2.5,2.5z" data-paper-data="{&quot;index&quot;:null}" fill="#000000"/><path d="M231.45472,152c-1.38071,0 -2.5,-1.11929 -2.5,-2.5c0,-1.38071 1.11929,-2.5 2.5,-2.5c1.38071,0 2.5,1.11929 2.5,2.5c0,1.38071 -1.11929,2.5 -2.5,2.5z" data-paper-data="{&quot;index&quot;:null}" fill="#000000"/><path d="M256.45472,175c-1.38071,0 -2.5,-1.11929 -2.5,-2.5c0,-1.38071 1.11929,-2.5 2.5,-2.5c1.38071,0 2.5,1.11929 2.5,2.5c0,1.38071 -1.11929,2.5 -2.5,2.5z" data-paper-data="{&quot;index&quot;:null}" fill="#000000"/><path d="M202.45472,188c-1.38071,0 -2.5,-1.11929 -2.5,-2.5c0,-1.38071 1.11929,-2.5 2.5,-2.5c1.38071,0 2.5,1.11929 2.5,2.5c0,1.38071 -1.11929,2.5 -2.5,2.5z" data-paper-data="{&quot;index&quot;:null}" fill="#000000"/><path d="M257.45472,134c-1.38071,0 -2.5,-1.11929 -2.5,-2.5c0,-1.38071 1.11929,-2.5 2.5,-2.5c1.38071,0 2.5,1.11929 2.5,2.5c0,1.38071 -1.11929,2.5 -2.5,2.5z" data-paper-data="{&quot;index&quot;:null}" fill="#000000"/><path d="M206.45472,131c-1.38071,0 -2.5,-1.11929 -2.5,-2.5c0,-1.38071 1.11929,-2.5 2.5,-2.5c1.38071,0 2.5,1.11929 2.5,2.5c0,1.38071 -1.11929,2.5 -2.5,2.5z" data-paper-data="{&quot;index&quot;:null}" fill="#000000"/><path d="M269.45472,154c-1.38071,0 -2.5,-1.11929 -2.5,-2.5c0,-1.38071 1.11929,-2.5 2.5,-2.5c1.38071,0 2.5,1.11929 2.5,2.5c0,1.38071 -1.11929,2.5 -2.5,2.5z" data-paper-data="{&quot;index&quot;:null}" fill="#000000"/><path d="M237.45472,181c-1.38071,0 -2.5,-1.11929 -2.5,-2.5c0,-1.38071 1.11929,-2.5 2.5,-2.5c1.38071,0 2.5,1.11929 2.5,2.5c0,1.38071 -1.11929,2.5 -2.5,2.5z" data-paper-data="{&quot;index&quot;:null}" fill="#000000"/><path d="M196.45472,163c-1.38071,0 -2.5,-1.11929 -2.5,-2.5c0,-1.38071 1.11929,-2.5 2.5,-2.5c1.38071,0 2.5,1.11929 2.5,2.5c0,1.38071 -1.11929,2.5 -2.5,2.5z" data-paper-data="{&quot;index&quot;:null}" fill="#000000"/><path d="M226.45472,135c-1.38071,0 -2.5,-1.11929 -2.5,-2.5c0,-1.38071 1.11929,-2.5 2.5,-2.5c1.38071,0 2.5,1.11929 2.5,2.5c0,1.38071 -1.11929,2.5 -2.5,2.5z" data-paper-data="{&quot;index&quot;:null}" fill="#000000"/><path d="M271.08115,61.00416c1.32952,3.57525 -2.02075,10.74497 -5.38008,10.98368c-2.49025,0.17695 -5.36503,-3.07778 -7.01411,-4.72007c-0.03816,-0.038 -0.08941,-0.08885 -0.15195,-0.15088c-1.6384,-0.68859 -3.03681,-1.79385 -3.21354,-3.26c-0.6498,-0.6892 -1.1409,-1.24846 -1.17645,-1.40018c-0.43727,-1.86615 -0.67549,-4.24408 0.54193,-5.72448c1.02128,-1.24189 3.16698,-0.58133 4.76777,-0.73223c3.91573,-0.36912 8.06457,0 12,0c0,0 2.5,0 2.5,2.5c0,2.5 -2.5,2.5 -2.5,2.5c-0.12124,0 -0.24585,0.00144 -0.37357,0.00415zM266.68696,63.26777c-0.28423,-0.03311 -0.5457,0.10556 -0.80456,0.26816c0.05932,0.15116 0.1174,0.30372 0.17551,0.45625c0.25876,-0.3135 0.95114,-0.6869 0.62905,-0.72441z" data-paper-data="{&quot;index&quot;:null}" fill="#000000"/><path d="M201.90784,-26.77342c0.91928,1.28743 1.42685,2.7697 1.77369,4.32804c0.82264,2.1576 1.27318,4.49888 1.27318,6.94539c0,7.51877 -4.25534,14.04364 -10.48903,17.29765c-2.69518,1.40689 -5.76018,2.20235 -9.01097,2.20235c-0.14869,0 -0.29699,-0.00167 -0.44489,-0.00498c-0.00115,0.00166 -0.00229,0.00332 -0.00344,0.00498c-0.0863,0.1249 0.50476,0.73784 0.51084,0.75c0.61996,1.23993 1.05321,2.56831 1.46891,3.8908c1.76506,5.61529 7.17483,7.54019 10.81983,11.95837c6.05424,7.33847 4.94468,24.32786 -0.89812,31.17427c-1.6281,1.90776 -3.65415,3.43851 -5.55229,5.07781c-5.10704,4.41062 -12.66527,2.77064 -18.73738,3.14875c-2.07733,0.12935 -4.08306,0.93691 -6.16345,1c-22.79837,0.69139 -50.15288,-5.95774 -57.19531,-30.45313c-1.07279,-3.73143 -0.56501,-8.23282 0,-12.09375c2.99381,-20.45772 14.61388,-30.36965 31.64431,-39.97929c2.07951,-1.17339 3.64286,-3.23467 5.83034,-4.41517c5.04155,-2.72074 9.86311,-4.70411 15.3636,-6.30839c12.61171,-3.67833 30.96854,-6.90622 39.81019,5.47628z" data-paper-data="{&quot;index&quot;:null}" fill="#00f3ff"/><path d="M264.61274,-38.33467c0.81113,-3.00116 4.91306,-6.56149 7.83101,-7.46297c3.23097,-0.99818 6.23921,-1.72603 9.16125,-2.20179c7.36144,-1.19858 14.17574,-0.79728 22.62572,0.91195c19.50841,3.94607 34.71109,10.03851 44.97537,28.7617c1.03766,1.8928 3.86228,4.73733 4.84862,6.12578c4.10482,5.77829 9.65968,17.79912 10.59531,24.65312c1.30034,9.52571 -0.45744,16.11089 -4.13422,24.52802c-6.54445,14.98203 -12.26477,21.91189 -27.74257,26.66126c-7.98158,2.44915 -18.55633,6.82691 -26.21935,0.20884c-7.14197,-6.16806 -13.72067,-17.40819 -13.72067,-27.44133c0,-3.04729 1.45373,-8.55551 1.02969,-11.38409c-0.99128,-6.6123 -6.89307,-10.37369 -8.9396,-16.66663c-0.9468,-2.91134 -1.04977,-6.17673 -1.89317,-9.10504c-0.49164,-1.70698 -1.66068,-3.17553 -2.10683,-4.89496c-0.28708,-1.1064 0.42439,-2.76079 -0.5314,-3.38767c-2.53318,-0.13606 -4.93791,-0.7556 -7.12357,-1.76797c-0.54656,-0.15468 -1.0723,-0.35801 -1.56362,-0.64106c-2.15552,-1.24181 -5.16452,-3.63429 -6.70312,-5.78906c-0.91928,-1.28743 -1.42685,-2.7697 -1.77369,-4.32804c-0.50662,-2.27621 -0.6703,-4.71473 -1.27318,-6.94539z" data-paper-data="{&quot;index&quot;:null}" fill="#00f3ff"/></g></g></svg>