<svg version="1.1" xmlns="http://www.w3.org/2000/svg" xmlns:xlink="http://www.w3.org/1999/xlink" width="51.4712" height="74.4254" viewBox="0,0,51.4712,74.4254"><g transform="translate(-216.75,-125.5)"><g data-paper-data="{&quot;isPaintingLayer&quot;:true}" fill-rule="nonzero" stroke="none" stroke-width="1.15528" stroke-linecap="butt" stroke-linejoin="miter" stroke-miterlimit="10" stroke-dasharray="" stroke-dashoffset="0" style="mix-blend-mode: normal"><g><g><path d="M238.5628,143.7534l27.0047,47.2556l-45.1841,1.7052l18.1794,-48.9608" fill="#00a100"/><path d="M228.8088,170.0233l4.4109,-11.8786c0.4829,-0.0982 0.9831,-0.1502 1.4949,-0.1502c4.1243,0 7.4689,3.3446 7.4689,7.4689c0,4.1244 -3.3434,7.4689 -7.4689,7.4689c-2.4065,0 -4.5403,-1.1426 -5.9058,-2.909z" fill="#8100ff"/><path d="M251.1658,169.5023c0.8572,0 1.6682,0.1883 2.4053,0.5152l3.4831,6.0941c-0.3304,2.9749 -2.8246,5.2982 -5.8884,5.2982c-3.2891,0 -5.9543,-2.6664 -5.9543,-5.9544c0,-3.2879 2.6652,-5.9543 5.9543,-5.9531z" fill="#2ec7ff"/><path d="M238.0453,176.5668c1.3089,0 2.4942,0.5314 3.3537,1.3898c0.8584,0.8595 1.3898,2.0449 1.3898,3.3538c0,1.3089 -0.5314,2.4942 -1.3898,3.3538c-0.8595,0.8583 -2.0448,1.3898 -3.3537,1.3898c-1.309,0 -2.4943,-0.5315 -3.3538,-1.3898c-0.8584,-0.8596 -1.3898,-2.0449 -1.3898,-3.3538c0,-1.3089 0.5314,-2.4943 1.3898,-3.3538c0.8595,-0.8584 2.0448,-1.3898 3.3538,-1.3898z" fill="#ffff00"/><path d="M233.5039,191.6028c0,0.2079 -0.0151,0.4136 -0.0312,0.6169l-13.0893,0.4945l3.0638,-8.2534c0.7798,-0.2714 1.615,-0.4263 2.4873,-0.4263c4.1798,0 7.5694,3.3896 7.5694,7.5683z" fill="#ffb903"/><path d="M258.9373,191.2597l-12.3834,0.4667c-0.2137,-0.6423 -0.3339,-1.3263 -0.3339,-2.0402c0,-3.5675 2.8917,-6.4592 6.4592,-6.4592c3.5675,0 6.4592,2.8917 6.4592,6.4592c0,0.5441 -0.0751,1.0686 -0.2011,1.5735z" fill="#dc5991"/><path d="M241.0998,148.1943l4.7863,8.3758c-0.7705,0.5164 -1.6971,0.8191 -2.6941,0.8191c-2.6756,0 -4.844,-2.1696 -4.844,-4.8441c0,-1.9224 1.1287,-3.5687 2.7518,-4.3508z" fill="#ff6b00"/></g><path d="M243.6183,137.6755l5.5696,4.0897l-6.5966,-0.7694l5.4448,9.7332l-7.7715,-6.7619l0.7705,13.7929l-4.0307,-15.2127l-12.35,2.1454l8.7235,-5.803l-11.9559,-7.0091l14.4583,2.9945l-1.4707,-9.3751l4.7598,9.5461l10.364,-3.8621l-5.9151,6.4915" fill="#2ec7ff"/><path d="M216.75,196.2909l3.229,-9.6882l4.4409,4.8441l5.4495,-3.4312l2.8258,2.8259l4.4409,-3.2291l3.0291,4.0366l5.3478,-6.5597l4.7436,4.9435l4.6419,-3.4301l6.0571,3.2302l5.4495,-7.0657l1.8161,12.3141l-8.0743,-1.6162l-4.6419,4.2399l-5.6528,-3.8356l-5.8526,4.642l-7.0646,-3.8344l-5.2484,5.2484l-2.6248,-4.6442l-5.0451,3.028l-3.2302,-3.4312l-4.0365,1.4129" fill="#2ec7ff"/></g></g></g></svg>