<svg version="1.1" xmlns="http://www.w3.org/2000/svg" xmlns:xlink="http://www.w3.org/1999/xlink" width="56.35951" height="67.24328" viewBox="0,0,56.35951,67.24328"><g transform="translate(-211.13014,-117.97202)"><g data-paper-data="{&quot;isPaintingLayer&quot;:true}" fill="none" fill-rule="nonzero" stroke="#000000" stroke-width="1" stroke-linecap="butt" stroke-linejoin="miter" stroke-miterlimit="10" stroke-dasharray="" stroke-dashoffset="0" font-family="none" font-weight="none" font-size="none" text-anchor="none" style="mix-blend-mode: normal"><path d="M240.6587,158.0476c-2.5291,0.4513 -2.2229,-8.8991 -1.8853,-7.6305l1.013,3.8083l0.4353,-14.3948l10.1336,-0.9941l-0.994,-10.1337l10.1337,-0.994l-0.8699,-8.867c1.7222,0.8968 3.3946,2.0116 4.7994,3.2948c2.8316,2.0669 3.9634,6.361 3.442,10.462c-0.6069,4.6778 -2.4691,10.0443 -5.9989,13.4485c-5.5958,5.3967 -12.5224,10.4316 -20.2089,12.0005z" id="ID0.1943633360788226" fill="#9966ff"/><path d="M227.5919,155.4722c-4.4259,-2.3615 -8.9094,-5.3294 -11.6896,-9.5044c-2.842,-4.2536 -4.782,-10.1091 -4.1536,-14.8054c0.5284,-3.8536 2.0851,-7.3717 4.4178,-10.228l8.8475,1.0497l-1.1996,10.1114l10.1114,1.1997l-1.1997,10.1114l10.1114,1.1996l-3.1883,9.7687c-0.3152,1.3839 1.298,4.1295 -0.1488,4.2548c-4.0628,0.376 -8.2488,-1.2044 -11.9085,-3.1575z" id="ID0.2068682238459587" fill="#9966ff"/><path d="M240,154.85c11.7,-0.2 21.4,-13.4 21.6,-8.6c-1.1,20.1 -6.7,32.2 -10,35.2c-3.6,4 -7.4,3.2 -12.3,3.2c-4.7,0 -8.3,0.9 -12.1,-2.7c-3.2,-3.2 -11,-13.8 -10.4,-35.6c0.4,-5.1 10.3,8.4 23.2,8.5z" id="ID0.5443468582816422_1_" fill="#5a3c96"/></g></g></svg>