<svg version="1.1" xmlns="http://www.w3.org/2000/svg" xmlns:xlink="http://www.w3.org/1999/xlink" width="45.83333" height="66.49079" viewBox="0,0,45.83333,66.49079"><g transform="translate(-216.26724,-117.77451)"><g data-paper-data="{&quot;isPaintingLayer&quot;:true}" fill="none" fill-rule="nonzero" stroke="#000000" stroke-width="1" stroke-linecap="butt" stroke-linejoin="miter" stroke-miterlimit="10" stroke-dasharray="" stroke-dashoffset="0" font-family="none" font-weight="none" font-size="none" text-anchor="none" style="mix-blend-mode: normal"><path d="M253.6,152.5c-2.9,3.2 -7.2,3.4 -11.3,3.3l1.6,-1.9l-7.2,-7.2l7.2,-7.2l-7.2,-7.2l7.2,-7.2l-6.3,-6.3c1.9,-0.4 3.9,-0.6 5.8,-0.5c3.5,-0.2 7.1,2.4 9.3,5.9c2.5,4 3.7,9.4 3.9,14.2c0.2,4.9 0.3,11.2 -3,14.1z" id="ID0.1943633360788226" fill="#9966ff"/><path d="M225,153.2c-3.1,-3.3 -3.7,-9.7 -3.3,-14.7c0.4,-5.1 2.5,-10.9 5.9,-14.2c2.8,-2.7 6.2,-4.5 9.8,-5.3l6.3,6.3l-7.2,7.2l7.2,7.2l-7.2,7.2l7.2,7.2l-1.5,1.7c-1,0 -2,0 -3,0c-4.7,0 -10.3,0.8 -14.2,-2.6z" id="ID0.2068682238459587" fill="#9966ff"/><path d="M240,153.9c11.7,-0.2 21.4,-13.4 21.6,-8.6c-1.1,20.1 -6.7,32.2 -10,35.2c-3.6,4 -7.4,3.2 -12.3,3.2c-4.7,0 -8.3,0.9 -12.1,-2.7c-3.2,-3.2 -11,-13.8 -10.4,-35.6c0.4,-5.1 10.3,8.4 23.2,8.5z" id="ID0.5443468582816422_1_" fill="#5a3c96"/></g></g></svg>