<svg xmlns="http://www.w3.org/2000/svg" xmlns:xlink="http://www.w3.org/1999/xlink" version="1.1" width="153.69133239894626" height="188.70575195461032" viewBox="8.694930762501965 18.023831099721203 153.69133239894626 188.70575195461032">
  <!-- Exported by Scratch - http://scratch.mit.edu/ -->
  <path id="ID0.2217080220580101" fill="#FAA51D" stroke="#000000" d="M 42.6211 159.1333 C 40.8791 163.6917 38.9505 169.261 35.6536 174.9164 C 31.4905 181.6079 17.7243 196.3 24.6019 204.6878 C 38.3749 212.5697 47.4345 185.7764 48.8975 177.0764 C 50.3582 169.4452 51.3099 162.9243 52.6504 157.6362 C 52.996 156.2505 56.9653 144.7397 53.9855 140.2343 C 51.0021 135.7289 47.7049 138.324 46.0336 139.7031 C 44.3606 141.0868 45.0835 152.6858 42.6211 159.1333 L 42.6211 159.1333 Z " stroke-width="0.9999999989982076"/>
  <path id="ID0.7902200957760215" fill="#FFFFFF" d="M 24.4471 203.2862 C 27.0559 206.8015 34.0261 204.5478 38.1115 200.0784 C 42.2039 195.607 43.4072 191.9786 44.8087 189.1314 C 45.5508 185.9345 41.5839 191.8119 37.9135 188.9474 C 34.2554 186.0928 34.5341 178.4271 34.5341 178.4271 C 34.5341 178.4271 29.0266 186.2922 26.324 191.5127 C 23.7233 196.4768 21.8755 199.3911 24.4471 203.2862 L 24.4471 203.2862 Z " stroke-width="0.9999999989982076"/>
  <path id="ID0.4324202057905495" fill="#FAA51D" stroke="#000000" stroke-width="1.1999999751726915" d="M 82.4939 153.5833 C 82.1297 153.0079 81.8534 152.3733 81.6827 151.6943 L 77.0897 133.4439 C 76.2138 129.9625 78.3258 126.43 81.8066 125.5533 C 85.2871 124.6779 88.8194 126.7877 89.6972 130.2702 L 93.4178 145.056 L 109.6339 150.4131 C 113.0415 151.539 114.8924 155.2162 113.7665 158.6239 C 112.6406 162.0316 108.9642 163.8819 105.5557 162.7565 L 85.9469 156.2783 C 84.4989 155.8008 83.2877 154.8372 82.4939 153.5833 L 82.4939 153.5833 Z "/>
  <path id="ID0.2676980262622237" fill="#FAA51D" stroke="#000000" stroke-width="1.1999999895553712" d="M 43.7096 190.5729 C 43.4261 189.5453 43.3585 188.4395 43.5502 187.3181 L 44.7758 180.1499 C 44.8042 179.9823 44.8387 179.8141 44.8781 179.6487 L 46.3626 173.5201 C 47.3232 169.5537 51.2797 167.0834 55.2669 167.9616 L 65.8247 170.2873 L 64.3395 158.6553 C 63.8148 154.5469 66.7205 150.7908 70.8292 150.2671 C 74.9376 149.7425 78.6893 152.6545 79.2174 156.7568 L 82.0515 178.9546 C 82.3603 181.3746 81.4727 183.7938 79.6718 185.4401 C 77.8695 187.0857 75.3806 187.7538 72.9978 187.2276 L 59.2986 184.2095 L 58.335 189.8458 C 57.6368 193.9286 53.7609 196.6723 49.6781 195.974 C 46.7173 195.4694 44.4594 193.2904 43.7096 190.5729 L 43.7096 190.5729 Z "/>
  <path id="ID0.26425604708492756_1_" fill="#FAA51D" stroke="#231F20" stroke-width="1.2" d="M 77.061 156.786 C 79.246 155.108 81.469 152.368 84.328 148.118 C 86.711 144.575 89.293 137.861 89.293 137.861 C 90.901 133.225 92.85 125.768 85.795 124.444 C 82.94 123.909 78.294 124.264 71.691 123.017 C 65.084 121.764 59.19 118.379 54.19 127.123 C 49.192 135.871 36.554 142.332 52.248 157.581 L 77.061 156.786 Z "/>
  <path id="ID0.7468986632302403" fill="#FAA51D" stroke="#000000" stroke-width="1.2" d="M 48.169 205.405 C 47.174 205.405 46.162 205.206 45.19 204.785 L 26.731 196.785 C 24.401 195.775 22.741 193.655 22.318 191.151 C 21.895 188.647 22.769 186.099 24.638 184.38 L 42.806 167.683 L 47.369 149.198 C 48.359 145.177 52.424 142.716 56.447 143.714 C 60.468 144.706 62.925 148.771 61.931 152.792 L 56.827 173.473 C 56.474 174.905 55.707 176.201 54.621 177.199 L 43.29 187.613 L 51.155 191.021 C 54.956 192.668 56.701 197.084 55.054 200.885 C 53.828 203.715 51.067 205.405 48.169 205.405 L 48.169 205.405 Z "/>
  <path id="ID0.203311821911484_1_" fill="#FFFFFF" d="M 85.336 144.689 C 85.336 144.689 89.878 139.797 80.796 134.911 C 71.714 130.025 67.531 134.88 64.726 137.708 C 59.864 142.591 70.057 153.866 70.057 153.866 L 76.898 155.758 C 76.898 155.758 80.093 152.73 81.494 150.28 C 83.099 148.048 85.336 144.689 85.336 144.689 " stroke-width="1"/>
  <path id="ID0.5667225387878716" fill="#FAA51D" d="M 62.616 156.579 C 59.309 159.938 53.498 159.58 49.637 155.779 C 45.775 151.979 45.325 146.173 48.633 142.814 C 51.94 139.454 57.752 137.811 61.613 141.612 C 68.186 148.08 68.548 150.551 62.616 156.579 Z " stroke-width="1"/>
  <path id="ID0.4675603983923793_1_" fill="#FAA51D" stroke="#231F20" stroke-width="1.1999999589892802" d="M 94.0916 38.4264 C 91.3245 37.7698 85.524 36.6269 82.2839 36.3261 C 73.617 35.5172 64.9923 37.4582 64.9923 37.4582 L 43.4797 18.6322 L 42.6736 53.6328 C 44.0515 52.3737 20.1535 74.2232 30.0942 96.8407 C 40.0399 119.4706 66.3173 132.6483 101.4253 130.6994 C 136.5363 128.7453 147.4666 110.2301 146.6771 99.5055 C 145.8896 88.7816 133.5423 83.1155 133.5423 83.1155 C 133.5423 83.1155 134.5336 74.9362 130.0537 64.1047 C 127.3885 57.6577 116.9272 47.3114 116.9272 47.3114 L 114.699 25.5411 L 99.2734 36.7367 L 94.0916 38.4264 L 94.0916 38.4264 Z "/>
  <path id="ID0.876089540310204_1_" fill="#FFFFFF" d="M 131.8719 82.6117 L 127.8841 78.2142 L 110.6019 80.7084 C 110.6019 80.7084 109.7215 86.9341 101.5258 87.5338 C 93.3236 88.1398 81.6996 80.498 81.6996 80.498 L 66.6435 84.713 C 66.6435 84.713 51.0426 84.2261 49.1641 93.5321 C 44.9856 114.2116 69.3406 126.5278 78.9588 128.4549 C 84.2056 129.5083 94.0389 129.9622 101.6066 129.5417 C 134.7628 128.2295 146.2548 110.0131 145.4699 99.2849 C 144.6814 88.5606 132.7983 84.1262 132.7983 84.1262 L 131.8719 82.6117 L 131.8719 82.6117 Z " stroke-width="0.9999999658244002"/>
  <path id="ID0.44282719027251005_1_" fill="none" stroke="#231F20" stroke-width="1.1999999589892802" d="M 9.3033 85.8515 C 9.3033 85.8515 16.6853 87.5905 20.1123 87.8805 C 23.5354 88.1668 30.2642 88.2278 30.2642 88.2278 "/>
  <path id="ID0.893105489667505_1_" fill="none" stroke="#231F20" stroke-width="1.1999999589892802" d="M 139.9605 94.1673 C 139.9605 94.1673 148.4347 93.9869 152.8496 93.1133 C 158.0351 92.0984 161.7779 89.6516 161.7779 89.6516 "/>
  <path id="ID0.03574043000116944_1_" fill="none" stroke="#231F20" stroke-width="1.1999999589892802" d="M 31.6359 81.1273 C 31.6359 81.1273 27.7536 77.2767 21.3831 73.3049 C 14.3278 68.9045 10.3158 67.4604 10.3158 67.4604 "/>
  <path id="ID0.6674723788164556_1_" fill="none" stroke="#231F20" stroke-width="1.1999999589892802" d="M 139.2661 105.122 C 139.2661 105.122 143.9451 107.8342 148.9829 109.0702 C 153.9563 110.2871 157.4132 110.4688 157.4132 110.4688 "/>
  <path id="ID0.12165586883202195_1_" fill="none" stroke="#000000" stroke-linecap="round" d="M 93.4233 38.4357 C 98.4128 40.4426 100.1225 42.1119 100.1225 42.1119 " stroke-width="0.9999999658244002"/>
  <path id="ID0.178104005753994_1_" fill="none" stroke="#000000" d="M 59.9613 32.7166 L 69.8693 42.2139 " stroke-width="0.9999999658244002"/>
  <path id="ID0.7735752793960273_1_" fill="#FFFFFF" stroke="#231F20" d="M 126.0344 63.7698 C 130.2043 72.6788 129.0851 82.015 123.5328 84.616 C 117.9767 87.2188 110.0977 82.0988 105.9213 73.1842 C 101.7352 64.2703 102.8642 54.942 108.421 52.3373 C 113.9711 49.7365 121.8607 54.854 126.0344 63.7698 L 126.0344 63.7698 Z " stroke-width="0.9999999658244002"/>
  <path id="ID0.19106501014903188_1_" fill="#231F20" d="M 122.6511 71.2234 C 122.3719 73.1893 120.6862 74.578 118.8687 74.3208 C 117.0604 74.0648 115.8122 72.2588 116.0898 70.2945 C 116.3691 68.3287 118.0703 66.9381 119.8777 67.1938 C 121.6955 67.4501 122.9294 69.2573 122.6511 71.2234 " stroke-width="0.9999999658244002"/>
  <path id="ID0.06283409334719181_1_" fill="#FFFFFF" stroke="#231F20" d="M 81.546 63.512 C 85.7193 72.4233 83.7711 82.1435 77.2079 85.2134 C 70.639 88.2929 61.9329 83.5544 57.7616 74.6437 C 53.5861 65.7327 55.5259 56.0148 62.0947 52.9384 C 68.666 49.864 77.3691 54.5962 81.546 63.512 L 81.546 63.512 Z " stroke-width="0.9999999658244002"/>
  <path id="ID0.716460831463337_1_" fill="#231F20" d="M 76.8579 70.6096 C 76.5789 72.5776 74.8909 73.9667 73.0735 73.7094 C 71.2671 73.4541 70.0186 71.6459 70.2966 69.6807 C 70.5755 67.7158 72.2773 66.3265 74.0834 66.5828 C 75.8958 66.8392 77.1368 68.6447 76.8579 70.6096 " stroke-width="0.9999999658244002"/>
  <path id="ID0.5430324394255877_1_" fill="#5E4A42" stroke="#000000" d="M 100.8134 83.5244 C 104.1889 84.0031 109.1797 84.1825 109.2181 85.7722 C 109.2585 87.3648 105.0226 92.9839 102.6576 92.9129 C 100.2844 92.841 92.1121 87.0494 92.3878 84.18 C 92.6567 81.3114 97.6966 83.0833 100.8134 83.5244 L 100.8134 83.5244 Z " stroke-width="0.9999999658244002"/>
  <path id="ID0.5547774969600141_1_" fill="none" stroke="#231F20" stroke-width="1.1999999589892802" d="M 75.2727 93.4838 C 75.2727 93.4838 93.3242 101.7111 100.1538 104.2442 C 106.9799 106.7748 119.4777 110.109 119.4777 110.109 C 119.4777 110.109 102.2882 126.7028 85.9571 119.5592 C 69.6222 112.4228 71.4486 101.7465 75.2727 93.4838 L 75.2727 93.4838 Z "/>
  <path id="ID0.0015770294703543186" fill="#FAA51D" stroke="#000000" stroke-width="1.2167382827353272" d="M 57.371 136.0252 C 60.2338 135.9978 62.838 134.013 63.5945 131.0283 C 64.4984 127.4585 62.4154 123.8104 58.9403 122.8785 L 43.7006 118.7951 L 34.1964 100.1078 C 32.5341 96.838 28.6078 95.5693 25.425 97.2791 C 22.2442 98.9868 21.0127 103.0222 22.6771 106.292 L 33.5163 127.6037 C 34.3664 129.2749 35.8631 130.5001 37.6398 130.9754 L 55.6678 135.8061 C 56.2363 135.9589 56.809 136.0306 57.371 136.0252 L 57.371 136.0252 Z "/>
</svg>