<svg version="1.1" xmlns="http://www.w3.org/2000/svg" xmlns:xlink="http://www.w3.org/1999/xlink" width="376.7666" height="381.86574" viewBox="0,0,376.7666,381.86574"><defs><linearGradient x1="222.53496" y1="211.76407" x2="222.53496" y2="391.7578" gradientUnits="userSpaceOnUse" id="color-1"><stop offset="0" stop-color="#ffffff"/><stop offset="1" stop-color="#ffffff" stop-opacity="0"/></linearGradient><linearGradient x1="226.92886" y1="209.46371" x2="226.92886" y2="376.62105" gradientUnits="userSpaceOnUse" id="color-2"><stop offset="0" stop-color="#ffffff"/><stop offset="1" stop-color="#ffffff" stop-opacity="0"/></linearGradient><linearGradient x1="189.73941" y1="227.0996" x2="189.73941" y2="395.1985" gradientUnits="userSpaceOnUse" id="color-3"><stop offset="0" stop-color="#ffffff"/><stop offset="1" stop-color="#ffffff" stop-opacity="0"/></linearGradient><linearGradient x1="214.34954" y1="216.36473" x2="214.34954" y2="387.90776" gradientUnits="userSpaceOnUse" id="color-4"><stop offset="0" stop-color="#ffffff"/><stop offset="1" stop-color="#ffffff" stop-opacity="0"/></linearGradient><linearGradient x1="250.78514" y1="228.63316" x2="250.78514" y2="383.29041" gradientUnits="userSpaceOnUse" id="color-5"><stop offset="0" stop-color="#ffffff"/><stop offset="1" stop-color="#ffffff" stop-opacity="0"/></linearGradient><linearGradient x1="316.25834" y1="245.50221" x2="316.25834" y2="349.01709" gradientUnits="userSpaceOnUse" id="color-6"><stop offset="0" stop-color="#ffffff"/><stop offset="1" stop-color="#ffffff" stop-opacity="0"/></linearGradient><linearGradient x1="322.39255" y1="234.00059" x2="322.39255" y2="332.91478" gradientUnits="userSpaceOnUse" id="color-7"><stop offset="0" stop-color="#ffffff"/><stop offset="1" stop-color="#ffffff" stop-opacity="0"/></linearGradient><linearGradient x1="223.89225" y1="249.31013" x2="420.53092" y2="249.31013" gradientUnits="userSpaceOnUse" id="color-8"><stop offset="0" stop-color="#ffffff"/><stop offset="1" stop-color="#ffffff" stop-opacity="0"/></linearGradient><linearGradient x1="221.30293" y1="234.35232" x2="415.72601" y2="234.35232" gradientUnits="userSpaceOnUse" id="color-9"><stop offset="0" stop-color="#ffffff"/><stop offset="1" stop-color="#ffffff" stop-opacity="0"/></linearGradient><linearGradient x1="237.42596" y1="256.60418" x2="393.60483" y2="256.60418" gradientUnits="userSpaceOnUse" id="color-10"><stop offset="0" stop-color="#ffffff"/><stop offset="1" stop-color="#ffffff" stop-opacity="0"/></linearGradient><linearGradient x1="228.02227" y1="230.5922" x2="399.43673" y2="230.5922" gradientUnits="userSpaceOnUse" id="color-11"><stop offset="0" stop-color="#ffffff"/><stop offset="1" stop-color="#ffffff" stop-opacity="0"/></linearGradient><linearGradient x1="240.49208" y1="195.91123" x2="409.14582" y2="195.91123" gradientUnits="userSpaceOnUse" id="color-12"><stop offset="0" stop-color="#ffffff"/><stop offset="1" stop-color="#ffffff" stop-opacity="0"/></linearGradient><linearGradient x1="262.85934" y1="129.54755" x2="396.15678" y2="129.54755" gradientUnits="userSpaceOnUse" id="color-13"><stop offset="0" stop-color="#ffffff"/><stop offset="1" stop-color="#ffffff" stop-opacity="0"/></linearGradient><linearGradient x1="251.48567" y1="120.42897" x2="383.44941" y2="120.42897" gradientUnits="userSpaceOnUse" id="color-14"><stop offset="0" stop-color="#ffffff"/><stop offset="1" stop-color="#ffffff" stop-opacity="0"/></linearGradient><linearGradient x1="228.89225" y1="255.44642" x2="418.21119" y2="255.44642" gradientUnits="userSpaceOnUse" id="color-15"><stop offset="0" stop-color="#ffffff"/><stop offset="1" stop-color="#ffffff" stop-opacity="0"/></linearGradient><linearGradient x1="226.30293" y1="239.35232" x2="420.72601" y2="239.35232" gradientUnits="userSpaceOnUse" id="color-16"><stop offset="0" stop-color="#ffffff"/><stop offset="1" stop-color="#ffffff" stop-opacity="0"/></linearGradient><linearGradient x1="242.42596" y1="261.60418" x2="398.60483" y2="261.60418" gradientUnits="userSpaceOnUse" id="color-17"><stop offset="0" stop-color="#ffffff"/><stop offset="1" stop-color="#ffffff" stop-opacity="0"/></linearGradient><linearGradient x1="233.02227" y1="235.5922" x2="404.43673" y2="235.5922" gradientUnits="userSpaceOnUse" id="color-18"><stop offset="0" stop-color="#ffffff"/><stop offset="1" stop-color="#ffffff" stop-opacity="0"/></linearGradient><linearGradient x1="245.49208" y1="200.91123" x2="414.14582" y2="200.91123" gradientUnits="userSpaceOnUse" id="color-19"><stop offset="0" stop-color="#ffffff"/><stop offset="1" stop-color="#ffffff" stop-opacity="0"/></linearGradient><linearGradient x1="267.85934" y1="134.54755" x2="401.15678" y2="134.54755" gradientUnits="userSpaceOnUse" id="color-20"><stop offset="0" stop-color="#ffffff"/><stop offset="1" stop-color="#ffffff" stop-opacity="0"/></linearGradient><linearGradient x1="256.48567" y1="125.42897" x2="388.44942" y2="125.42897" gradientUnits="userSpaceOnUse" id="color-21"><stop offset="0" stop-color="#ffffff"/><stop offset="1" stop-color="#ffffff" stop-opacity="0"/></linearGradient><linearGradient x1="258.77149" y1="27.39401" x2="258.77149" y2="194.3746" gradientUnits="userSpaceOnUse" id="color-22"><stop offset="0" stop-color="#ffffff" stop-opacity="0"/><stop offset="1" stop-color="#ffffff"/></linearGradient><linearGradient x1="254.8261" y1="33.43303" x2="254.8261" y2="196.84829" gradientUnits="userSpaceOnUse" id="color-23"><stop offset="0" stop-color="#ffffff" stop-opacity="0"/><stop offset="1" stop-color="#ffffff"/></linearGradient><linearGradient x1="275.7143" y1="25.90765" x2="275.7143" y2="179.92444" gradientUnits="userSpaceOnUse" id="color-24"><stop offset="0" stop-color="#ffffff" stop-opacity="0"/><stop offset="1" stop-color="#ffffff"/></linearGradient><linearGradient x1="251.13734" y1="26.81518" x2="251.13734" y2="190.00128" gradientUnits="userSpaceOnUse" id="color-25"><stop offset="0" stop-color="#ffffff" stop-opacity="0"/><stop offset="1" stop-color="#ffffff"/></linearGradient><linearGradient x1="217.27868" y1="25.83276" x2="217.27868" y2="177.54169" gradientUnits="userSpaceOnUse" id="color-26"><stop offset="0" stop-color="#ffffff" stop-opacity="0"/><stop offset="1" stop-color="#ffffff"/></linearGradient><linearGradient x1="155.4688" y1="47.46926" x2="155.4688" y2="157.5511" gradientUnits="userSpaceOnUse" id="color-27"><stop offset="0" stop-color="#ffffff" stop-opacity="0"/><stop offset="1" stop-color="#ffffff"/></linearGradient><linearGradient x1="150.93799" y1="65.95633" x2="150.93799" y2="169.05853" gradientUnits="userSpaceOnUse" id="color-28"><stop offset="0" stop-color="#ffffff" stop-opacity="0"/><stop offset="1" stop-color="#ffffff"/></linearGradient><linearGradient x1="58.79314" y1="175.42527" x2="231.66413" y2="175.42527" gradientUnits="userSpaceOnUse" id="color-29"><stop offset="0" stop-color="#ffffff" stop-opacity="0"/><stop offset="1" stop-color="#ffffff"/></linearGradient><linearGradient x1="56.45941" y1="182.62684" x2="234.12648" y2="182.62684" gradientUnits="userSpaceOnUse" id="color-30"><stop offset="0" stop-color="#ffffff" stop-opacity="0"/><stop offset="1" stop-color="#ffffff"/></linearGradient><linearGradient x1="72.09665" y1="152.61431" x2="217.14154" y2="152.61431" gradientUnits="userSpaceOnUse" id="color-31"><stop offset="0" stop-color="#ffffff" stop-opacity="0"/><stop offset="1" stop-color="#ffffff"/></linearGradient><linearGradient x1="62.67186" y1="175.18058" x2="227.27186" y2="175.18058" gradientUnits="userSpaceOnUse" id="color-32"><stop offset="0" stop-color="#ffffff" stop-opacity="0"/><stop offset="1" stop-color="#ffffff"/></linearGradient><linearGradient x1="57.82999" y1="209.37099" x2="214.81965" y2="209.37099" gradientUnits="userSpaceOnUse" id="color-33"><stop offset="0" stop-color="#ffffff" stop-opacity="0"/><stop offset="1" stop-color="#ffffff"/></linearGradient><linearGradient x1="75.72211" y1="276.59207" x2="195.0468" y2="276.59207" gradientUnits="userSpaceOnUse" id="color-34"><stop offset="0" stop-color="#ffffff" stop-opacity="0"/><stop offset="1" stop-color="#ffffff"/></linearGradient><linearGradient x1="90.20766" y1="284.28236" x2="206.5599" y2="284.28236" gradientUnits="userSpaceOnUse" id="color-35"><stop offset="0" stop-color="#ffffff" stop-opacity="0"/><stop offset="1" stop-color="#ffffff"/></linearGradient><linearGradient x1="299.19646" y1="52.66573" x2="299.19646" y2="288.83295" gradientUnits="userSpaceOnUse" id="color-36"><stop offset="0" stop-color="#00ffff"/><stop offset="1" stop-color="#66c0ff"/></linearGradient><linearGradient x1="221.08881" y1="87.18348" x2="308.91871" y2="173.68708" gradientUnits="userSpaceOnUse" id="color-37"><stop offset="0" stop-color="#ffffff"/><stop offset="1" stop-color="#ffffff" stop-opacity="0"/></linearGradient></defs><g transform="translate(-50.20941,-19.58275)"><g data-paper-data="{&quot;isPaintingLayer&quot;:true}" fill-rule="nonzero" stroke-linejoin="miter" stroke-miterlimit="10" stroke-dasharray="" stroke-dashoffset="0" style="mix-blend-mode: normal"><g fill="none" stroke-width="12.5" stroke-linecap="round"><path d="M124.70508,391.7578l93.40584,-179.99373l102.25392,174.12382" stroke="url(#color-1)"/><path d="M88.52567,376.62105l128.05171,-167.15732l148.75468,164.85698" stroke="url(#color-2)"/><path d="M211.97671,227.0996l-44.47459,168.0989" stroke="url(#color-3)"/><path d="M212.12171,387.90776l4.45566,-171.54303" stroke="url(#color-4)"/><path d="M253.21216,383.13822l-34.33446,-154.50506l63.81489,154.65725" stroke="url(#color-5)"/><path d="M387.56858,349.01708l-142.62047,-103.51485" stroke="url(#color-6)"/><path d="M400.60377,332.91478l-156.42244,-98.91419" stroke="url(#color-7)"/></g><g fill="none" stroke-width="12.5" stroke-linecap="round"><path d="M397.04935,354.04734l-173.1571,-148.42272l196.63867,-61.05171" stroke="url(#color-8)"/><path d="M354.87361,369.37458l-133.57068,-162.78108l194.42308,-107.26345" stroke="url(#color-9)"/><path d="M393.60483,298.11561l-156.17887,-83.02285" stroke="url(#color-10)"/><path d="M228.02227,208.16643l171.41446,44.85157" stroke="url(#color-11)"/><path d="M403.07636,210.55719l-162.58428,-1.83422l168.65374,-27.4577" stroke="url(#color-12)"/><path d="M262.85934,187.18376l133.29744,-115.27235" stroke="url(#color-13)"/><path d="M383.44941,55.54913l-131.96374,129.75965" stroke="url(#color-14)"/></g><g fill="none" stroke-width="12.5" stroke-linecap="round"><path d="M402.04935,359.04734l-173.1571,-148.42272l189.31894,-58.7791" stroke="url(#color-15)"/><path d="M359.87361,374.37458l-133.57068,-162.78108l194.42308,-107.26345" stroke="url(#color-16)"/><path d="M398.60483,303.1156l-156.17887,-83.02285" stroke="url(#color-17)"/><path d="M404.43673,258.01799l-171.41446,-44.85156" stroke="url(#color-18)"/><path d="M408.07636,215.55719l-162.58428,-1.83422l168.65374,-27.4577" stroke="url(#color-19)"/><path d="M267.85934,192.18376l133.29744,-115.27235" stroke="url(#color-20)"/><path d="M256.48567,190.30878l131.96375,-129.75965" stroke="url(#color-21)"/></g><g fill="none" stroke-width="12.5" stroke-linecap="round"><path d="M351.79138,27.39401l-115.17197,166.98055l-70.86781,-164.91129" stroke="url(#color-22)"/><path d="M385.76449,46.97745l-147.91057,149.87085l-113.96621,-163.41525" stroke="url(#color-23)"/><path d="M244.61943,179.92444l62.18974,-154.01675" stroke="url(#color-24)"/><path d="M238.71511,190.00128l24.84447,-163.18606" stroke="url(#color-25)"/><path d="M223.92064,27.86802l14.04312,149.67363l-41.37015,-151.70889" stroke="url(#color-26)"/><path d="M96.73533,47.46927l117.46694,110.08182" stroke="url(#color-27)"/><path d="M88.34826,65.95633l125.17947,103.10218" stroke="url(#color-28)"/></g><g fill="none" stroke-width="12.5" stroke-linecap="round"><path d="M78.91428,85.68679l152.74985,103.31166l-172.87099,76.16526" stroke="url(#color-29)"/><path d="M93.20561,51.18053l140.92087,136.56088l-177.66707,126.33165" stroke="url(#color-30)"/><path d="M72.09665,124.098l145.04489,57.03271" stroke="url(#color-31)"/><path d="M227.27186,186.94275l-164.6,-23.52444" stroke="url(#color-32)"/><path d="M57.82999,203.98439l156.98966,-16.17653l-152.64496,43.12625" stroke="url(#color-33)"/><path d="M75.72211,341.43329l119.32469,-129.68245" stroke="url(#color-34)"/><path d="M206.5599,212.32026l-116.35224,143.92412" stroke="url(#color-35)"/></g><path d="M405.39503,170.74934c0,65.21578 -47.54672,118.08361 -106.19857,118.08361c-58.65185,0 -106.19857,-52.86783 -106.19857,-118.08361c0,-65.21578 47.54672,-118.08361 106.19857,-118.08361c58.65185,0 106.19857,52.86783 106.19857,118.08361z" fill="url(#color-36)" stroke="none" stroke-width="0" stroke-linecap="butt"/><path d="M320.3348,99.43913c0,-7.59392 6.15608,-13.75 13.75,-13.75c7.59392,0 13.75,6.15608 13.75,13.75c0,7.59392 -6.15608,13.75 -13.75,13.75c-7.59392,0 -13.75,-6.15608 -13.75,-13.75z" fill="#000000" stroke="none" stroke-width="0.5" stroke-linecap="butt"/><path d="M326.46902,146.97929c0,-7.59392 6.15608,-13.75 13.75,-13.75c7.59392,0 13.75,6.15608 13.75,13.75c0,7.59392 -6.15608,13.75 -13.75,13.75c-7.59392,0 -13.75,-6.15608 -13.75,-13.75z" fill="#000000" stroke="none" stroke-width="0.5" stroke-linecap="butt"/><path d="M278.16209,121.67567c0,-7.59392 6.15608,-13.75 13.75,-13.75c7.59392,0 13.75,6.15608 13.75,13.75c0,7.59392 -6.15608,13.75 -13.75,13.75c-7.59392,0 -13.75,-6.15608 -13.75,-13.75z" fill="#000000" stroke="none" stroke-width="0.5" stroke-linecap="butt"/><path d="M79.59418,202.15728c2.04862,-1.09152 3.61155,-1.37868 5.11936,-1.34728c0.55781,-0.06888 1.12596,-0.10435 1.7024,-0.10435c1.59048,0 3.11789,0.27004 4.53888,0.76678c6.12162,0.20485 12.25249,0.17095 18.37515,0c6.97245,-0.19467 13.63479,-1.63977 20.35446,-2.88812c-1.22355,-10.95632 -3.19396,-21.88871 -5.32176,-32.52769c-0.2113,-0.95799 -0.3227,-1.95349 -0.3227,-2.97501c0,-1.83772 0.36052,-3.59124 1.0147,-5.19369c0.50982,-1.63003 1.29491,-3.16637 2.6652,-4.62361c5.69908,-6.06075 15.54935,-4.89534 20.51942,0.71628c3.96744,4.47957 3.68504,11.3973 4.66575,16.86514c1.73738,9.68657 3.16258,14.1828 3.91828,22.92207c0.0622,0.71935 0.12518,1.4407 0.18867,2.16389c7.23523,-0.1465 14.5073,0.12728 21.41715,0.94007c10.94407,1.28733 17.62436,11.15932 11.60156,21.69922c-4.89657,8.569 -18.13581,5.84718 -25.91779,5.09518c-1.91786,-0.18533 -3.5059,-0.16276 -4.97452,-0.0513c0.63148,12.82341 0.47972,25.66113 -1.74204,37.78306c-1.20419,6.57007 0.91103,15.7525 -6.28972,19.8672c-2.38316,1.36181 -5.20441,2.14844 -7.94922,2.14844c-19.16001,0 -12.36874,-19.27078 -12.21645,-30.22352c0.12267,-8.82234 0.16864,-17.64677 0.10693,-26.47005c-1.94546,0.33581 -3.93906,0.69628 -6.02536,1.07511c-11.05446,2.00724 -25.33312,1.13488 -35.96706,1.17732c-1.87393,0.00748 -4.16401,-0.44924 -6.43509,-1.29733c-1.71851,-0.49251 -3.29923,-1.31106 -4.67094,-2.38443c-3.54952,-2.40255 -6.08515,-5.85037 -5.25547,-9.94995c-0.01859,-0.29263 -0.02803,-0.58775 -0.02803,-0.88507c0,-4.05795 1.75787,-7.70533 4.55366,-10.22218c0.64094,-0.84719 1.41027,-1.5624 2.37459,-2.07619z" fill="#000000" stroke="none" stroke-width="0.5" stroke-linecap="butt"/><path d="M340.45716,60.96885c3.19787,3.14958 2.16986,6.42784 3.21337,9.33382c1.35843,3.78297 4.25208,7.15231 4.34041,11.00833c0.16213,7.07803 48.23278,95.88699 41.81702,109.44911c-7.76744,16.41941 -74.11724,62.63099 -80.96039,63.3172c-17.01173,1.70589 -87.63696,-57.84216 -97.44009,-67.49726c-24.25355,-23.88731 -33.6896,-59.62398 9.66133,-99.39655c43.35093,-39.77258 95.31167,-52.33738 119.56523,-28.45008z" data-paper-data="{&quot;index&quot;:null}" fill="url(#color-37)" stroke="none" stroke-width="0" stroke-linecap="butt"/></g></g></svg>