<svg version="1.1" width="230" height="266" viewBox="-1 -1 230 266" xmlns="http://www.w3.org/2000/svg" xmlns:xlink="http://www.w3.org/1999/xlink">
  <!-- Exported by Scratch - http://scratch.mit.edu/ -->
  <g id="ID0.8897097925655544">
    <g id="ID0.6135969767346978">
      <path id="ID0.15048338193446398" fill="#f5f9ff" stroke="none" stroke-width="1" stroke-linecap="butt" stroke-linejoin="miter" d="M 285 182 C 276.600 190.700 266.100 191.900 254.600 188.800 C 265.700 180.800 274.700 171.200 280.800 159.200 " transform="matrix(1, 0, 0, 1, -124.8, -46.8)"/>
      <g id="ID0.799644569400698">
        <g id="ID0.3209174773655832">
          <g id="ID0.2850454030558467">
            <g id="ID0.20861771097406745">
              <path id="ID0.5931917764246464" fill="#FAA51D" stroke="#414042" stroke-width="2.8003" d="M 256.850 198.917 C 260.850 189.217 263.350 191.717 263.350 191.717 C 264.750 193.117 264.750 195.517 266.150 197.417 C 270.550 203.217 280.950 215.817 285.650 213.617 C 296.250 207.817 308.750 202.417 315.650 212.917 C 325.750 225.017 304.750 231.017 293.550 236.517 C 285.250 239.417 277.150 242.917 266.250 230.317 C 257.650 218.917 253.250 218.217 253.250 218.217 C 248.050 213.217 252.850 208.617 256.850 198.917 Z " transform="matrix(1, 0, 0, 1, -124.8, -46.8)"/>
              <path id="ID0.23663953924551606" fill="#faa51d" stroke="#414042" stroke-width="2.8003" d="M 279.050 216.617 L 285.750 213.517 " transform="matrix(1, 0, 0, 1, -124.8, -46.8)"/>
            </g>
            <g id="ID0.2062997347675264">
              <path id="ID0.5530564179643989" fill="#FAA51D" stroke="#414042" stroke-width="2.8003" d="M 267.150 244.617 C 267.150 244.617 262.450 260.117 264.550 285.017 C 265.450 295.717 285.650 283.517 284.050 304.517 C 283.650 310.417 257.250 309.817 251.550 307.717 C 246.150 305.717 244.850 303.817 245.650 298.117 C 248.850 277.517 238.450 253.717 238.450 253.717 " transform="matrix(1, 0, 0, 1, -124.8, -46.8)"/>
              <path id="ID0.2940375101752579" fill="#faa51d" stroke="#414042" stroke-width="2.8003" d="M 262.350 290.517 C 266.450 289.617 270.250 290.117 270.250 290.117 " transform="matrix(1, 0, 0, 1, -124.8, -46.8)"/>
            </g>
            <path id="ID0.38430578680709004" fill="#FAA51D" stroke="#414042" stroke-width="2.8003" stroke-linecap="round" stroke-linejoin="round" d="M 269.450 223.717 C 269.450 242.617 274.250 270.517 240.650 270.517 C 207.050 270.517 209.950 245.117 209.950 226.217 C 209.950 207.317 221.450 202.117 240.650 202.117 C 259.850 202.117 269.450 204.817 269.450 223.717 Z " transform="matrix(1, 0, 0, 1, -124.8, -46.8)"/>
            <path id="ID0.05112924240529537" fill="#ffffff" stroke="none" stroke-width="1" stroke-linecap="butt" stroke-linejoin="miter" d="M 262.150 232.117 C 262.150 244.117 264.750 261.817 246.450 261.817 C 228.150 261.817 229.750 245.717 229.750 233.717 C 229.750 221.717 236.050 218.417 246.450 218.417 C 256.950 218.417 262.150 220.117 262.150 232.117 Z " transform="matrix(1, 0, 0, 1, -124.8, -46.8)"/>
            <g id="ID0.8097035074606538">
              <path id="ID0.6524621383287013" fill="#FAA51D" stroke="#414042" stroke-width="2.8003" d="M 237.450 269.517 C 236.250 278.217 234.750 291.517 235.350 299.017 C 235.750 304.817 233.550 308.017 227.550 309.117 C 221.250 310.217 199.950 310.817 199.550 303.717 C 198.450 282.417 216.450 295.617 216.050 284.817 C 215.550 273.117 215.250 263.217 212.850 256.617 C 210.350 249.817 210.450 246.117 210.150 244.817 " transform="matrix(1, 0, 0, 1, -124.8, -46.8)"/>
              <path id="ID0.4520877143368125" fill="#faa51d" stroke="#414042" stroke-width="2.8003" d="M 209.350 290.017 C 209.350 290.017 213.850 289.417 217.850 290.517 " transform="matrix(1, 0, 0, 1, -124.8, -46.8)"/>
            </g>
          </g>
          <g id="ID0.6698855943977833">
            <path id="ID0.4805224328301847" fill="#FAA51D" stroke="none" stroke-width="1" stroke-linecap="butt" stroke-linejoin="miter" d="M 220.450 206.017 L 222.050 226.117 L 198.350 237.117 L 199.650 225.917 Z " transform="matrix(1, 0, 0, 1, -124.8, -46.8)"/>
            <path id="ID0.5775167010724545" fill="#FAA51D" stroke="#414042" stroke-width="2.8333" stroke-linecap="round" stroke-linejoin="round" d="M 199.750 225.917 C 200.850 223.417 204.150 216.417 206.950 210.017 C 210.450 202.117 219.450 189.217 227.650 202.217 " transform="matrix(1, 0, 0, 1, -124.8, -46.8)"/>
            <path id="ID0.1902615181170404" fill="#FAA51D" stroke="#414042" stroke-width="2.8003" stroke-linecap="round" stroke-linejoin="round" d="M 221.350 225.617 C 225.250 227.117 234.650 228.617 241.050 233.417 C 248.350 238.917 248.550 250.317 241.250 255.817 C 234.650 260.717 225.050 255.217 207.050 245.117 C 201.850 242.217 198.550 236.617 198.950 230.717 C 198.950 230.617 198.950 230.517 198.950 230.517 C 199.350 224.917 201.150 219.417 203.950 214.517 L 210.250 203.517 " transform="matrix(1, 0, 0, 1, -124.8, -46.8)"/>
          </g>
        </g>
        <g id="ID0.6410768968053162">
          <g id="ID0.6829058900475502">
            <path id="ID0.9964955104514956" fill="#FAA51D" stroke="#414042" stroke-width="2.8003" stroke-linecap="round" stroke-linejoin="round" d="M 250.750 69.717 L 270.950 50.217 L 278.650 81.517 C 278.650 81.517 296.050 94.417 301.250 103.317 C 310.050 118.217 310.250 130.317 310.250 130.317 C 310.250 130.317 329.350 136.017 332.750 151.517 C 336.050 166.917 323.950 196.217 273.150 206.317 C 222.350 216.317 181.350 202.617 162.150 171.617 C 142.950 140.717 173.250 103.917 171.550 106.017 L 165.450 54.817 L 200.750 77.817 C 200.750 77.817 212.950 73.217 225.750 72.617 C 230.550 72.317 239.250 72.817 243.450 73.217 Z " transform="matrix(1, 0, 0, 1, -124.8, -46.8)"/>
            <path id="ID0.3765965420752764" fill="#FFFFFF" stroke="none" stroke-width="1" stroke-linecap="butt" stroke-linejoin="miter" d="M 309.150 131.317 C 309.150 131.317 327.650 135.817 331.050 151.317 C 335.150 166.717 321.450 195.717 273.350 204.517 C 262.450 206.717 252.650 208.517 237.250 208.517 C 213.450 208.617 187.650 193.817 189.450 162.817 C 190.550 144.917 213.150 146.317 213.150 146.317 L 232.850 141.117 C 232.850 141.117 252.750 145.817 264.550 143.217 C 276.350 140.717 276.350 131.417 276.350 131.417 L 301.050 124.217 L 307.750 129.817 Z " transform="matrix(1, 0, 0, 1, -124.8, -46.8)"/>
            <path id="ID0.816016208846122" fill="none" stroke="#414042" stroke-width="2.8003" stroke-linecap="round" stroke-linejoin="round" d="M 160.750 158.917 C 160.750 158.917 150.950 160.217 145.850 160.517 C 140.750 160.817 129.650 159.817 129.650 159.817 " transform="matrix(1, 0, 0, 1, -124.8, -46.8)"/>
            <path id="ID0.27444384060800076" fill="none" stroke="#414042" stroke-width="2.8003" stroke-linecap="round" stroke-linejoin="round" d="M 352.750 133.917 C 352.750 133.917 347.850 138.217 340.450 140.817 C 334.150 143.017 321.850 145.017 321.850 145.017 " transform="matrix(1, 0, 0, 1, -124.8, -46.8)"/>
            <path id="ID0.34623048501089215" fill="none" stroke="#414042" stroke-width="2.8003" stroke-linecap="round" stroke-linejoin="round" d="M 127.250 132.817 C 127.250 132.817 133.450 134.017 144.650 139.017 C 154.750 143.517 161.250 148.317 161.250 148.317 " transform="matrix(1, 0, 0, 1, -124.8, -46.8)"/>
            <path id="ID0.9197907312773168" fill="none" stroke="#414042" stroke-width="2.8003" stroke-linecap="round" stroke-linejoin="round" d="M 350.750 165.217 C 350.750 165.217 345.650 165.617 338.150 164.917 C 330.550 164.117 323.150 161.117 323.150 161.117 " transform="matrix(1, 0, 0, 1, -124.8, -46.8)"/>
            <path id="ID0.3693347042426467" fill="none" stroke="#414042" stroke-width="2.8003" stroke-linecap="round" stroke-linejoin="round" d="M 242.550 73.317 C 250.250 75.217 253.050 77.317 253.050 77.317 " transform="matrix(1, 0, 0, 1, -124.8, -46.8)"/>
            <path id="ID0.9501844285987318" fill="none" stroke="#414042" stroke-width="2.8003" stroke-linecap="round" stroke-linejoin="round" d="M 194.450 73.617 L 208.950 83.717 " transform="matrix(1, 0, 0, 1, -124.8, -46.8)"/>
          </g>
          <g id="ID0.9258842738345265">
            <path id="ID0.1267840196378529" fill="#FFFFFF" stroke="#414042" stroke-width="2.8003" stroke-linecap="round" stroke-linejoin="round" d="M 295.350 103.517 C 303.250 115.617 303.550 129.517 296.050 134.417 C 288.450 139.317 275.950 133.517 268.050 121.417 C 260.150 109.317 259.850 95.417 267.350 90.517 C 274.850 85.617 287.350 91.417 295.350 103.517 Z " transform="matrix(1, 0, 0, 1, -124.8, -46.8)"/>
            <path id="ID0.09409715700894594" fill="#404041" stroke="none" stroke-width="1" stroke-linecap="butt" stroke-linejoin="miter" d="M 283.850 117.417 C 284.650 120.217 283.150 123.117 280.550 123.817 C 277.950 124.517 275.250 122.817 274.450 120.017 C 273.650 117.217 275.150 114.317 277.750 113.617 C 280.350 112.917 283.050 114.617 283.850 117.417 " transform="matrix(1, 0, 0, 1, -124.8, -46.8)"/>
          </g>
          <g id="ID0.9100559162907302">
            <path id="ID0.3170496867969632" fill="#FFFFFF" stroke="#414042" stroke-width="2.8003" stroke-linecap="round" stroke-linejoin="round" d="M 230.350 112.317 C 238.250 124.417 237.450 139.017 228.550 144.817 C 219.650 150.617 205.950 145.517 198.050 133.417 C 190.150 121.317 190.950 106.717 199.850 100.817 C 208.750 95.117 222.450 100.217 230.350 112.317 Z " transform="matrix(1, 0, 0, 1, -124.8, -46.8)"/>
            <path id="ID0.5508944322355092" fill="#404041" stroke="none" stroke-width="1" stroke-linecap="butt" stroke-linejoin="miter" d="M 218.350 126.917 C 218.350 129.817 216.150 132.217 213.450 132.217 C 210.750 132.217 208.550 129.817 208.550 126.917 C 208.550 124.017 210.750 121.617 213.450 121.617 C 216.150 121.617 218.350 124.017 218.350 126.917 " transform="matrix(1, 0, 0, 1, -124.8, -46.8)"/>
          </g>
          <path id="ID0.3150829430669546" fill="#414042" stroke="#414042" stroke-width="2.8003" stroke-linecap="round" stroke-linejoin="round" d="M 261.050 140.017 C 265.750 139.417 272.350 135.917 273.150 141.217 C 273.250 143.517 268.750 152.717 263.550 153.017 C 258.050 153.317 248.150 146.217 248.450 142.017 C 248.850 137.817 256.950 140.517 261.050 140.017 Z " transform="matrix(1, 0, 0, 1, -124.8, -46.8)"/>
          <path id="ID0.42667306074872613" fill="#FAA51D" stroke="#414042" stroke-width="2.8003" stroke-linecap="round" stroke-linejoin="round" d="M 181.650 104.317 C 181.650 104.317 184.450 88.717 199.450 88.717 " transform="matrix(1, 0, 0, 1, -124.8, -46.8)"/>
          <path id="ID0.5673273629508913" fill="#b74e6c" stroke="#414042" stroke-width="2.8003" stroke-linecap="round" stroke-linejoin="round" d="M 258.750 173.317 C 247.950 177.917 249.450 191.217 255.350 192.517 C 251.650 197.017 239.450 196.017 233.950 193.917 C 213.850 186.417 226.050 167.317 226.050 167.317 C 226.050 167.317 241.050 178.917 270.150 170.917 " transform="matrix(1, 0, 0, 1, -124.8, -46.8)"/>
          <path id="ID0.12352873431518674" fill="#ff6680" stroke="#414042" stroke-width="2.8003" stroke-linecap="round" stroke-linejoin="round" d="M 227.650 190.417 C 227.650 190.417 233.150 187.117 239.650 187.917 C 245.050 188.617 251.850 194.617 251.850 194.617 C 251.850 194.617 238.150 198.017 227.650 190.417 Z " transform="matrix(1, 0, 0, 1, -124.8, -46.8)"/>
        </g>
      </g>
    </g>
  </g>
</svg>