<svg version="1.1" width="102" height="104" viewBox="-1 -1 102 104" xmlns="http://www.w3.org/2000/svg" xmlns:xlink="http://www.w3.org/1999/xlink">
  <!-- Exported by Scratch - http://scratch.mit.edu/ -->
  <g id="ID0.625082207378" transform="matrix(-0.9895201921463013, 0.144394651055336, -0.144394651055336, -0.9895201921463013, 135.7, 146.35)">
    <g id="R_Wing_1_">
      <path id="Inner_2_" fill="#936C54" d="M 85.957 102.975 C 93.266 105.910 93.654 113.145 89.717 118.631 C 95.946 122.406 100.613 123.803 105.283 128.837 C 108.658 132.471 108.181 135.441 110.820 139.740 C 111.861 137.642 110.385 136.245 109.955 134.010 C 109.307 130.585 109.781 128.626 109.781 125.202 C 109.781 119.015 111.209 115.661 112.722 109.543 C 113.978 104.338 106.408 102.904 101.654 99.339 C 99.795 97.942 99.230 96.018 96.638 95.844 C 93.912 95.669 93.566 98.326 91.275 99.481 C 89.287 100.456 86.734 101.227 85.957 102.975 Z "/>
      <path id="Outer_3_" fill="#CF9F70" d="M 92.486 96.822 C 98.453 99.198 104.941 103.671 107.535 106.187 C 107.535 106.187 96.639 103.669 93.351 104.019 C 95.338 106.255 106.497 109.054 106.497 109.054 C 101.523 112.060 98.103 114.329 94.389 118.351 C 100.186 117.021 102.823 115.622 107.880 113.177 C 108.143 129.882 111.427 139.739 111.427 139.739 C 111.341 124.218 115.667 108.598 114.628 105.906 C 113.634 103.322 103.561 99.197 97.680 94.584 C 96.273 93.484 93.914 95.669 92.486 96.822 Z "/>
      <path id="Outline_5_" fill="#272525" d="M 116.104 105.600 C 114.735 114.649 112.106 123.122 112.719 132.339 C 112.901 135.065 113.139 137.862 113.030 140.591 C 112.451 141.059 111.469 141.057 110.815 140.690 C 109.412 139.901 107.733 134.800 106.817 133.186 C 101.742 124.223 90.301 120.165 87.754 118.522 C 88.441 116.794 89.944 116.464 90.566 114.688 C 93.232 110.026 88.828 106.503 85.982 103.250 C 85.791 103.034 85.683 102.523 86.107 102.406 C 94.109 105.369 94.398 115.537 90.400 118.521 C 98.869 120.994 106.861 127.823 109.342 134.827 C 107.881 127.810 106.342 120.605 107.865 113.503 C 105.311 114.927 95.539 119.566 92.401 118.493 C 91.817 118.294 105.649 109.327 105.649 109.327 C 102.955 108.357 93.438 107.380 92.612 103.114 C 97.408 103.216 106.633 105.501 106.633 105.501 C 103.194 102.677 96.238 100.505 93.000 97.500 L 93.188 96.657 C 94.776 96.629 109.598 106.422 109.344 106.941 C 105.375 106.960 98.772 104.406 94.705 104.556 C 99.100 106.921 108.340 108.601 108.230 108.917 C 104.652 111.417 98.892 114.698 95.519 117.374 C 97.822 116.938 107.828 112.379 109.465 110.968 C 109.465 110.968 108.777 130.913 111.517 137.294 C 110.219 129.466 112.564 109.710 114.447 106.196 C 109.816 104.549 99.906 97.924 96.562 94.754 C 96.312 94.521 96.527 93.978 96.869 93.812 C 98.254 94.146 114.029 104.253 116.104 105.600 Z "/>
    </g>
    <g id="Body">
      <g id="Body_1_">
        <path id="Body_Fill" fill="#CF9F70" d="M 102.057 79.334 C 102.057 76.779 104.507 75.312 104.994 72.841 C 106.598 64.712 108.528 57.588 102.743 51.554 C 100.092 55.283 93.819 66.638 93.819 66.638 C 93.819 66.638 90.524 65.967 88.547 65.787 C 87.151 62.700 84.379 59.266 82.167 55.576 C 80.157 52.224 76.541 48.537 75.094 48.704 C 73.447 48.895 72.563 53.021 72.362 56.079 C 71.918 62.240 72.440 66.303 73.325 71.835 C 67.297 75.689 63.519 78.287 59.983 84.486 C 56.566 90.437 58.536 93.958 58.536 100.831 C 58.536 106.234 56.446 112.896 48.730 110.217 C 45.930 109.242 44.590 107.283 41.657 107.366 C 40.250 107.408 39.005 107.450 38.282 108.709 C 37.478 110.091 39.929 111.223 41.496 111.223 C 40.210 112.731 38.080 114.452 39.407 115.915 C 40.613 117.256 42.300 116.586 43.908 115.915 C 43.788 117.633 44.390 120.105 45.997 119.771 C 49.132 119.099 49.855 115.411 53.070 115.411 C 58.013 115.411 61.187 114.574 64.323 109.210 C 67.065 111.093 69.908 111.285 73.108 111.486 L 72.744 112.818 C 70.953 115.795 67.770 116.454 64.626 116.092 C 63.881 116.006 62.662 116.271 62.969 117.644 C 63.277 119.015 68.181 116.956 68.341 117.523 C 68.502 118.092 64.092 119.162 65.313 121.099 C 66.533 123.037 70.623 118.678 71.371 119.370 C 72.120 120.062 68.514 121.609 69.714 122.828 C 70.914 124.043 75.054 119.049 72.571 116.807 C 72.748 116.313 74.337 113.495 75.436 111.628 C 79.512 111.830 82.436 111.432 86.022 108.873 C 89.559 106.359 91.688 104.307 93.579 100.325 C 95.468 96.346 95.748 91.607 100.010 91.107 C 101.900 90.896 103.503 91.107 104.670 89.599 C 105.636 88.338 104.871 86.578 104.351 85.073 C 103.464 82.602 102.057 81.975 102.057 79.334 Z "/>
        <path id="Outline_2_" d="M 103.270 78.098 C 103.537 77.598 103.788 77.091 104.038 76.585 C 104.383 76.027 105.184 74.650 105.184 74.573 C 107.547 68.151 108.411 58.124 105.063 52.028 C 104.549 51.092 103.624 49.740 102.436 50.419 C 99.526 55.540 97.219 61.057 93.632 65.733 C 92.126 65.060 90.423 65.242 88.831 65.020 C 87.471 60.984 78.953 45.127 73.915 47.558 C 71.515 52.392 70.726 66.149 72.972 70.987 C 72.316 71.425 71.674 71.877 71.070 72.347 L 71.074 72.349 C 68.136 73.949 62.687 78.810 59.178 84.737 C 53.820 93.786 60.685 103.920 55.112 109.232 C 51.938 112.257 48.000 107.691 45.110 106.789 C 39.446 105.019 33.538 109.587 40.129 112.101 C 36.917 114.435 38.505 118.946 43.338 117.337 C 42.980 117.898 42.530 118.683 42.881 119.243 C 44.831 122.364 49.814 119.931 51.282 115.905 C 57.229 117.223 62.481 112.904 64.007 109.930 C 64.014 109.936 64.018 109.940 64.025 109.946 C 64.961 110.588 67.569 111.445 70.586 112.036 C 68.020 115.252 63.669 111.708 60.912 115.674 C 60.138 116.787 60.545 119.771 63.479 119.560 C 62.434 120.691 63.599 125.802 67.980 123.331 C 71.676 126.425 74.771 121.948 74.289 117.086 C 74.601 115.679 76.187 114.173 77.595 112.702 C 78.647 112.668 79.634 112.556 80.489 112.334 C 86.719 110.665 93.063 105.423 95.007 98.747 C 95.007 98.747 95.908 96.262 95.902 94.893 C 97.408 94.182 98.824 93.257 100.092 92.074 C 100.799 91.906 100.353 91.468 103.869 91.141 C 104.877 90.881 106.041 90.458 106.436 90.166 C 106.220 88.282 104.612 85.884 103.873 83.595 C 103.859 83.562 102.557 79.441 103.270 78.098 Z M 72.569 116.809 C 75.052 119.050 70.912 124.044 69.712 122.830 C 68.512 121.612 72.118 120.064 71.369 119.372 C 70.621 118.682 66.531 123.040 65.311 121.101 C 64.090 119.163 68.500 118.094 68.339 117.525 C 68.179 116.958 63.275 119.017 62.967 117.646 C 62.660 116.273 63.879 116.008 64.624 116.094 C 67.768 116.454 70.951 115.795 72.742 112.820 L 72.945 112.428 C 73.573 112.513 74.204 112.586 74.829 112.635 C 73.955 114.038 72.794 116.178 72.569 116.809 Z M 103.801 88.736 C 100.739 88.978 97.550 90.279 94.487 89.332 C 88.575 87.503 81.764 86.588 76.483 90.761 L 76.483 91.774 C 78.354 91.715 79.987 90.336 81.744 89.752 C 83.694 89.101 86.041 89.125 87.745 89.453 C 90.733 89.515 93.202 91.643 96.145 91.895 C 90.809 96.416 81.081 94.249 80.770 94.457 C 80.686 96.355 83.043 96.503 83.916 96.603 C 87.552 97.007 91.351 96.710 94.763 95.382 C 94.167 96.582 93.535 98.283 93.406 98.623 C 89.863 106.552 83.443 110.323 75.175 110.631 C 71.973 110.751 67.274 109.575 64.029 108.521 C 63.739 108.424 63.515 108.530 63.416 108.730 C 63.412 108.734 63.407 108.736 63.403 108.741 C 61.554 110.797 58.778 116.291 49.914 114.062 C 49.696 117.545 45.477 119.853 44.941 118.232 C 44.406 116.615 47.446 115.119 46.885 114.241 C 46.324 113.363 42.543 115.539 41.513 115.672 C 40.482 115.804 40.373 115.078 41.113 114.241 C 41.852 113.406 45.156 111.390 44.941 110.665 C 44.728 109.941 39.433 111.579 40.141 109.355 C 40.574 107.995 42.773 108.156 43.927 108.472 C 47.492 109.457 50.405 114.816 56.202 110.900 C 62.994 106.312 55.895 94.368 60.717 85.633 C 64.726 78.365 72.080 73.396 72.564 73.085 C 74.326 71.716 82.754 68.694 83.635 67.042 C 85.097 64.297 75.975 51.550 75.975 51.550 C 78.299 56.041 80.498 60.623 82.151 65.433 C 80.768 66.596 77.341 68.233 74.070 70.278 C 74.210 68.759 73.266 65.976 73.232 65.433 C 72.929 60.593 73.667 54.319 75.576 49.881 C 83.396 54.555 86.704 65.882 88.722 67.162 C 90.649 66.971 92.492 67.191 94.323 67.579 C 94.710 67.321 100.703 57.081 103.011 52.144 C 106.067 58.112 105.686 63.725 104.897 70.142 C 104.741 71.421 104.543 72.754 104.061 73.936 C 103.713 74.787 103.283 75.621 102.893 76.455 C 102.725 75.660 102.254 74.246 102.229 73.957 C 102.034 71.749 100.061 69.664 98.576 68.890 C 100.748 65.731 102.506 59.513 102.403 54.886 C 100.862 59.414 99.549 64.062 97.203 68.293 C 97.203 68.293 98.776 69.648 100.057 71.749 C 101.153 73.542 101.953 75.966 102.723 76.834 C 101.964 78.535 101.467 80.248 102.324 82.125 C 102.334 82.146 102.960 83.890 103.004 83.938 C 103.688 85.568 104.505 87.350 103.801 88.736 Z "/>
      </g>
      <g id="L_Eye">
        <path id="Eyebrow" d="M 90.773 76.163 C 90.318 76.519 89.515 76.163 89.002 75.865 C 88.373 74.136 84.132 69.320 84.132 69.320 C 86.592 70.036 90.318 73.540 90.773 76.163 Z "/>
      </g>
      <g id="R_Eye">
        <path id="Eyebrow_1_" d="M 99.404 73.004 C 97.861 74.076 97.347 76.223 95.861 77.057 C 95.576 77.057 95.347 76.996 95.173 76.757 C 95.404 74.912 97.033 73.302 99.404 73.004 Z "/>
      </g>
      <g id="L_Tooth">
        <path id="ID0.015255651902407408" fill="#FFFFFF" d="M 85.473 92.416 C 84.540 92.416 84.096 91.230 83.741 90.277 C 83.647 90.031 83.567 89.810 83.492 89.665 L 83.246 89.191 L 83.733 88.976 C 84.014 88.851 84.366 88.788 84.774 88.788 C 85.449 88.788 86.083 88.961 86.108 88.968 L 86.574 89.098 L 86.463 89.567 C 86.448 89.645 86.474 89.924 86.492 90.129 C 86.567 90.950 86.680 92.191 85.682 92.396 C 85.613 92.408 85.542 92.416 85.473 92.416 L 85.473 92.416 Z "/>
        <path id="ID0.349766475148499" d="M 84.771 89.288 C 85.386 89.288 85.974 89.450 85.974 89.450 C 85.861 89.928 86.383 91.738 85.578 91.904 C 85.541 91.912 85.505 91.916 85.470 91.916 C 84.685 91.916 84.259 90.062 83.933 89.434 C 84.180 89.325 84.479 89.288 84.771 89.288 M 84.771 88.288 C 84.292 88.288 83.875 88.366 83.530 88.517 L 82.552 88.949 L 83.045 89.894 C 83.101 90.000 83.187 90.230 83.269 90.452 C 83.660 91.492 84.193 92.916 85.470 92.916 C 85.575 92.916 85.681 92.904 85.785 92.883 C 87.215 92.588 87.059 90.897 86.985 90.082 C 86.971 89.932 86.954 89.728 86.955 89.641 L 87.168 88.744 L 86.238 88.488 C 86.167 88.466 85.502 88.288 84.771 88.288 L 84.771 88.288 Z "/>
      </g>
      <g id="R_Tooth">
        <path id="ID0.6325767948292196" fill="#FFFFFF" d="M 103.538 93.789 C 102.325 93.789 101.797 92.310 101.570 91.682 L 101.507 91.505 L 101.274 90.925 L 101.891 90.825 C 102.037 90.801 102.240 90.783 102.465 90.763 C 102.899 90.726 103.704 90.659 103.924 90.487 L 105.207 89.478 L 104.709 91.033 C 104.672 91.148 104.648 91.405 104.629 91.652 C 104.565 92.407 104.483 93.345 103.824 93.722 L 103.718 93.783 L 103.538 93.789 Z "/>
        <path id="ID0.8781794318929315" d="M 104.232 90.881 C 104.060 91.417 104.205 92.930 103.576 93.288 C 103.562 93.289 103.551 93.289 103.538 93.289 C 102.560 93.289 102.137 91.730 101.971 91.318 C 102.490 91.234 103.775 91.239 104.232 90.881 M 106.002 88.244 L 103.635 90.079 C 103.427 90.182 102.727 90.240 102.423 90.266 C 102.182 90.287 101.966 90.307 101.813 90.331 L 100.578 90.531 L 101.045 91.691 C 101.062 91.730 101.080 91.785 101.103 91.847 C 101.341 92.515 101.976 94.287 103.541 94.287 L 103.562 94.287 L 103.622 94.285 L 103.865 94.274 L 104.076 94.155 C 104.964 93.649 105.060 92.518 105.132 91.692 C 105.147 91.520 105.169 91.258 105.192 91.178 L 106.002 88.244 L 106.002 88.244 Z "/>
      </g>
    </g>
    <g id="L_Wing_1_">
      <path id="Inner_3_" fill="#936C54" d="M 16.042 149.107 C 20.307 142.443 24.845 139.605 25.326 132.134 C 25.599 128.122 25.934 124.713 23.506 121.103 C 21.569 118.177 20.596 116.773 18.498 113.724 C 28.080 113.626 32.920 113.921 40.229 109.247 C 43.647 107.059 46.453 103.750 46.029 100.115 C 45.590 96.233 42.783 94.481 41.688 90.631 C 48.308 91.367 52.670 90.866 58.311 88.259 C 60.432 87.280 63.763 84.466 65.576 83.581 C 66.959 83.665 68.317 83.183 70.799 81.209 C 68.006 90.287 69.907 95.491 69.694 104.855 C 69.434 114.636 74.100 120.009 74.399 129.855 C 74.526 134.193 68.248 134.691 63.139 135.634 C 56.921 136.773 53.472 137.269 47.172 138.361 C 35.056 140.498 24.601 142.184 16.042 149.107 Z "/>
      <path id="Outer_2_" fill="#CF9F70" d="M 76.408 78.880 C 75.887 83.568 73.933 85.884 72.516 90.402 C 70.634 96.381 71.058 100.015 71.099 106.280 C 71.175 113.426 73.241 118.333 75.527 124.353 C 76.661 127.334 79.550 128.495 79.945 131.599 C 80.575 136.484 72.092 136.066 66.153 136.674 C 59.727 137.332 55.999 138.781 49.765 140.056 C 36.899 142.670 31.182 146.749 17.991 148.762 C 18.614 146.302 23.451 143.693 27.842 141.562 C 39.617 135.835 54.431 135.650 63.114 132.679 C 59.801 131.187 34.101 124.390 28.752 120.842 C 30.649 119.052 61.849 126.843 69.190 129.698 C 65.401 124.636 60.252 114.602 58.431 112.186 C 55.438 108.197 53.883 104.577 54.385 100.061 L 69.804 122.594 C 68.164 113.865 66.678 110.007 66.727 98.619 C 66.744 94.648 67.585 92.456 68.025 88.497 C 68.548 83.843 70.649 78.239 76.408 78.880 Z "/>
      <path id="Outline_4_" fill="#272525" d="M 81.341 130.697 C 78.171 125.857 75.113 124.771 73.697 118.193 C 71.085 106.048 72.352 94.546 75.705 82.861 C 75.992 81.869 76.407 80.574 75.313 79.715 C 74.031 80.513 73.441 82.077 72.998 83.310 C 69.216 93.756 69.321 109.424 72.605 120.222 C 73.584 123.439 77.921 130.191 78.201 132.246 C 78.724 136.086 71.861 135.367 68.789 135.649 C 53.318 137.075 36.541 142.147 20.846 147.223 L 20.631 146.951 C 31.626 138.747 50.409 135.402 65.149 133.893 C 65.814 133.598 67.284 133.610 67.013 132.701 C 66.303 132.457 58.026 130.311 54.678 129.388 C 46.370 127.103 38.214 124.355 30.452 120.939 C 37.933 120.997 69.080 130.828 71.183 130.267 C 71.094 130.185 70.856 130.053 70.532 129.894 L 70.533 129.896 C 66.966 124.132 55.620 108.152 54.984 102.310 C 60.901 110.903 64.560 120.303 72.620 127.924 L 73.658 128.040 C 74.119 127.125 73.139 126.440 72.749 125.638 C 67.573 114.967 65.950 97.488 69.887 86.814 C 70.358 85.536 71.909 82.422 70.815 81.068 C 69.841 81.470 68.616 83.740 68.218 84.578 C 63.245 95.031 65.600 108.185 68.529 119.068 C 62.465 111.156 52.663 94.118 52.219 96.090 C 50.263 104.792 62.430 122.750 67.902 128.765 C 65.788 127.923 63.243 127.004 62.114 126.703 C 50.802 123.679 39.388 120.789 27.639 119.522 C 25.839 120.904 30.566 122.520 31.998 123.160 C 40.769 127.059 51.226 129.961 60.668 132.447 C 48.357 134.662 31.164 138.014 20.638 144.688 C 25.015 139.211 27.117 130.969 25.830 125.221 C 25.236 122.204 23.944 119.364 21.579 116.700 C 21.010 116.003 20.492 114.888 19.871 114.221 C 21.181 114.596 22.922 114.950 23.682 115.033 C 37.190 116.540 51.696 104.379 44.828 93.477 C 44.330 92.688 43.634 91.899 43.196 90.895 C 48.545 91.680 54.308 91.313 58.823 88.932 C 61.209 87.671 64.648 85.911 65.950 83.824 C 65.905 83.551 65.672 83.233 65.265 83.298 C 64.493 84.539 62.695 85.260 61.368 86.066 C 57.063 88.677 47.585 90.021 40.462 89.894 C 44.250 97.560 47.135 102.952 39.048 109.290 C 35.391 112.155 27.841 113.170 22.864 113.493 C 21.936 113.550 18.848 112.850 18.497 113.722 C 24.164 121.201 27.184 132.421 21.488 140.343 C 20.407 141.849 17.805 145.499 16.773 147.614 C 16.210 148.221 15.780 149.000 16.299 149.718 C 17.942 149.816 19.633 149.175 21.160 148.808 C 34.242 145.663 45.983 140.609 59.660 138.685 C 64.566 137.995 75.368 137.519 79.215 136.456 C 80.182 136.190 81.506 135.119 81.861 134.351 C 82.381 133.239 82.036 131.761 81.341 130.697 Z "/>
    </g>
  </g>
  <path id="ID0.1108206738717854" fill="none" stroke="#000000" stroke-width="2" stroke-linecap="round" d="M 214.500 222.500 L 220.500 231 " transform="matrix(1, 0, 0, 1, -175, -145)"/>
  <path id="ID0.16214421344920993" fill="none" stroke="#000000" stroke-width="2" stroke-linecap="round" d="M 219 223 L 212 229 " transform="matrix(1, 0, 0, 1, -175, -145)"/>
  <path id="ID0.08672287501394749" fill="none" stroke="#000000" stroke-width="2" stroke-linecap="round" d="M 199.500 222 L 205 230 " transform="matrix(1, 0, 0, 1, -175, -145)"/>
  <path id="ID0.712173777166754" fill="none" stroke="#000000" stroke-width="2" stroke-linecap="round" d="M 204 226 L 199.500 230.500 " transform="matrix(1, 0, 0, 1, -175, -145)"/>
</svg>