<svg xmlns="http://www.w3.org/2000/svg" xmlns:xlink="http://www.w3.org/1999/xlink" version="1.1" width="18.791000366210938" height="30.75" viewBox="-0.19999998807907104 -0.1499999761581421 18.791000366210938 30.75">
  <defs>
    <linearGradient id="grad_1" x1="6.6094" y1="29.3457" x2="11.1929" y2="0.4061" gradientUnits="userSpaceOnUse">
      <stop offset="0" stop-color="#BC5B00"/>
      <stop offset="0.5211" stop-color="#E5B400"/>
      <stop offset="0.7606" stop-color="#E5CDCD"/>
      <stop offset="1" stop-color="#E5B400"/>
    </linearGradient>
    <linearGradient id="grad_2" x1="112.793" y1="9.6753" x2="102.3913" y2="20.077" gradientUnits="userSpaceOnUse">
      <stop offset="0" stop-color="#FFDA4C"/>
      <stop offset="0.5459" stop-color="#FFFF4C"/>
      <stop offset="0.6083" stop-color="#FFFF71"/>
      <stop offset="0.7039" stop-color="#FFFFA3"/>
      <stop offset="0.794" stop-color="#FFFFCB"/>
      <stop offset="0.8761" stop-color="#FFFFE8"/>
      <stop offset="0.9474" stop-color="#FFFFF9"/>
      <stop offset="1" stop-color="#FFFFFF"/>
    </linearGradient>
  <linearGradient id="grad_1-,0,0,1,0.3,0.35" x1="6.9094" y1="29.6957" x2="11.4929" y2="0.7561" gradientUnits="userSpaceOnUse">
      <stop offset="0" stop-color="#BC5B00"/>
      <stop offset="0.5211" stop-color="#E5B400"/>
      <stop offset="0.7606" stop-color="#E5CDCD"/>
      <stop offset="1" stop-color="#E5B400"/>
    </linearGradient><linearGradient id="grad_2-,0,0,1,0.3,0.35" x1="113.093" y1="10.0253" x2="102.6913" y2="20.427" gradientUnits="userSpaceOnUse">
      <stop offset="0" stop-color="#FFDA4C"/>
      <stop offset="0.5459" stop-color="#FFFF4C"/>
      <stop offset="0.6083" stop-color="#FFFF71"/>
      <stop offset="0.7039" stop-color="#FFFFA3"/>
      <stop offset="0.794" stop-color="#FFFFCB"/>
      <stop offset="0.8761" stop-color="#FFFFE8"/>
      <stop offset="0.9474" stop-color="#FFFFF9"/>
      <stop offset="1" stop-color="#FFFFFF"/>
    </linearGradient></defs>
  <!-- Exported by Scratch - http://scratch.mit.edu/ -->
  <g id="ID0.7630323679186404">
    <g id="ID0.10852426895871758">
      <path id="ID0.39308031275868416" fill="url(#grad_1-,0,0,1,0.3,0.35)" d="M 6.499 29.6 C 3.303 29.6 0.8 23.286 0.8 15.225 C 0.8 7.164 3.303 0.85 6.499 0.85 C 6.554 0.85 11.976 0.85 12.036 0.853 C 15.205 1.043 17.591 7.222 17.591 15.225 C 17.591 23.261 15.194 29.44 12.015 29.596 C 11.962 29.6 6.554 29.6 6.499 29.6 L 6.499 29.6 Z " stroke-width="1"/>
      <path id="ID0.17030890937894583" fill="#A86700" d="M 6.499 1.35 C 6.538 1.35 11.972 1.351 12.011 1.353 C 14.827 1.522 17.091 7.667 17.091 15.225 C 17.091 22.8 14.818 28.957 11.99 29.097 C 11.958 29.099 6.532 29.1 6.499 29.1 C 3.628 29.1 1.3 22.888 1.3 15.225 C 1.3 7.562 3.628 1.35 6.499 1.35 M 6.499 0.35 C 2.473 0.35 0.3 8.014 0.3 15.225 C 0.3 22.436 2.473 30.1 6.499 30.1 C 10.131 30.1 11.998 30.098 12.051 30.095 C 16.013 29.9 18.091 22.466 18.091 15.225 C 18.091 8.015 16.023 0.592 12.07 0.355 C 11.978 0.35 6.723 0.35 6.499 0.35 L 6.499 0.35 Z " stroke-width="1"/>
    </g>
    <path id="ID0.7057899655774236" fill="url(#grad_2-,0,0,1,0.3,0.35)" d="M 6.5 5.488 C 7.507 5.488 8.42 6.579 9.08 8.342 C 9.741 10.104 10.15 12.539 10.15 15.225 C 10.15 17.911 9.741 20.346 9.08 22.108 C 8.42 23.871 7.507 24.962 6.5 24.962 C 5.493 24.962 4.58 23.871 3.92 22.108 C 3.259 20.346 2.85 17.911 2.85 15.225 C 2.85 12.539 3.259 10.104 3.92 8.342 C 4.58 6.579 5.493 5.488 6.5 5.488 Z " stroke-width="1"/>
    <path id="ID0.9265933660790324" fill="#FFF360" d="M 6.955 6.459 C 7.573 6.459 8.134 7.441 8.539 9.028 C 8.945 10.615 9.196 12.807 9.196 15.225 C 9.196 17.643 8.945 19.835 8.539 21.422 C 8.134 23.009 7.573 23.991 6.955 23.991 C 6.337 23.991 5.776 23.009 5.371 21.422 C 4.965 19.835 4.714 17.643 4.714 15.225 C 4.714 12.807 4.965 10.615 5.371 9.028 C 5.776 7.441 6.337 6.459 6.955 6.459 Z " stroke-width="1"/>
    <path id="ID0.8606671020388603" fill="#FFFF6D" stroke="#FFE061" stroke-width="0.2" d="M 1.3 15.225 C 1.3 22.888 3.628 29.1 6.499 29.1 C 9.371 29.1 11.698 22.888 11.698 15.225 C 11.698 7.562 9.371 1.35 6.499 1.35 C 3.628 1.35 1.3 7.562 1.3 15.225 Z M 2.85 15.225 C 2.85 9.846 4.484 5.488 6.499 5.488 C 8.514 5.488 10.149 9.846 10.149 15.225 C 10.149 20.603 8.514 24.962 6.499 24.962 C 4.484 24.962 2.85 20.603 2.85 15.225 Z "/>
  </g>
</svg>