<svg version="1.1" xmlns="http://www.w3.org/2000/svg" xmlns:xlink="http://www.w3.org/1999/xlink" width="157.74169" height="38.74842" viewBox="0,0,157.74169,38.74842"><defs><linearGradient x1="182.94295" y1="123.58261" x2="182.94295" y2="162.33104" gradientUnits="userSpaceOnUse" id="color-1"><stop offset="0" stop-color="#0c556e"/><stop offset="1" stop-color="#002734"/></linearGradient><linearGradient x1="205.4018" y1="131.8001" x2="205.4018" y2="154.39413" gradientUnits="userSpaceOnUse" id="color-2"><stop offset="0" stop-color="#1490ba"/><stop offset="1" stop-color="#005673"/></linearGradient><linearGradient x1="129.35845" y1="130.69947" x2="129.35845" y2="151.95525" gradientUnits="userSpaceOnUse" id="color-3"><stop offset="0" stop-color="#015875"/><stop offset="1" stop-color="#148db7"/></linearGradient><linearGradient x1="131.07907" y1="139.79572" x2="131.07907" y2="150.09785" gradientUnits="userSpaceOnUse" id="color-4"><stop offset="0" stop-color="#ffffff" stop-opacity="0"/><stop offset="1" stop-color="#ffffff"/></linearGradient><linearGradient x1="123.52654" y1="140.70435" x2="130.64744" y2="134.76624" gradientUnits="userSpaceOnUse" id="color-5"><stop offset="0" stop-color="#ffffff"/><stop offset="1" stop-color="#ffffff" stop-opacity="0"/></linearGradient></defs><g transform="translate(-104.0721,-123.58262)"><g data-paper-data="{&quot;isPaintingLayer&quot;:true}" fill-rule="nonzero" stroke-linejoin="miter" stroke-miterlimit="10" stroke-dasharray="" stroke-dashoffset="0" style="mix-blend-mode: normal"><g><path d="M260.76334,142.7749c0,6.41519 3.90171,14.72038 -15.61911,18.16139c-12.41478,2.1884 -44.21755,0.84169 -60.57659,0.84169c-13.83971,0 -56.27138,1.38318 -67.45743,-0.22531c-22.82687,-3.28237 -8.73823,-11.73427 -8.73823,-18.77778c0,-5.92095 -2.58854,-13.51283 14.43215,-16.99795c13.14917,-2.6924 43.42273,-2.00513 61.76355,-2.00513c19.72281,0 53.0626,-1.09266 66.59326,1.97373c15.33913,3.47625 9.6024,11.45307 9.6024,17.02935z" fill="url(#color-1)" stroke="none" stroke-width="2" stroke-linecap="butt"/><path d="M248.99581,153.58085c-8.70095,1.27605 -30.99004,0.49079 -42.45533,0.49079c-9.69961,0 -39.43801,0.80653 -47.27779,-0.13138c-5.6838,-0.67997 -6.12422,-8.30133 -6.12422,-10.94924c0,-3.45248 -1.81419,-7.87927 10.11483,-9.91143c9.21564,-1.56993 30.43298,-1.16918 43.28721,-1.16918c13.82281,0 37.18912,-0.63712 46.67214,1.15088c10.75049,2.02698 9.46441,18.51313 -4.21683,20.51956z" fill="url(#color-2)" stroke="none" stroke-width="2" stroke-linecap="butt"/><path d="M140.1989,141.32736c0,5.86962 -4.85343,10.62789 -10.84045,10.62789c-5.98701,0 -10.84045,-4.75827 -10.84045,-10.62789c0,-5.86962 4.85343,-10.62789 10.84045,-10.62789c5.98701,0 10.84045,4.75827 10.84045,10.62789z" fill="url(#color-3)" stroke="none" stroke-width="10" stroke-linecap="butt"/><g fill="none" stroke-width="5"><path d="M133.39705,150.09785l-4.63596,-10.30213" stroke="url(#color-4)" stroke-linecap="round"/><path d="M130.64744,134.76624c1.77642,2.13025 1.62241,5.18645 -0.34397,6.82621c-1.96638,1.63976 -5.00052,1.24215 -6.77693,-0.8881c-1.77642,-2.13025 -1.62241,-5.18645 0.34397,-6.82621c1.96638,-1.63976 5.00052,-1.24215 6.77693,0.8881z" stroke="url(#color-5)" stroke-linecap="butt"/></g></g></g></g></svg>