<svg version="1.1" width="167" height="247" viewBox="-1 -1 167 247" xmlns="http://www.w3.org/2000/svg" xmlns:xlink="http://www.w3.org/1999/xlink">
  <!-- Exported by Scratch - http://scratch.mit.edu/ -->
  <path id="ID0.05485427472740412" fill="#663B00" stroke="#000000" stroke-width="2" d="M 191 89 L 207 89 L 207 332 L 191 332 L 191 89 Z " transform="matrix(1, 0, 0, 1, -116, -88)"/>
  <path id="ID0.24270684365183115" fill="#666666" stroke="#000000" stroke-width="2" stroke-linecap="round" d="M 219 106 C 236.799 105.520 255.484 106.971 271.510 114.490 C 283.016 119.951 287.756 131.925 295 141 C 299.258 145.435 309.514 152.289 306 155 C 298.580 158.580 282.030 150.732 271 150 C 256.713 149.045 242.216 149.270 228 150 C 206.926 151.090 186.040 153.530 165 157 C 157.627 158.209 146.844 165.735 143 164 C 140.276 162.590 149.671 154.975 153 150 C 161.158 138.484 165.646 122.638 177.490 114.490 C 189.426 106.268 204.911 105.520 219 106 Z " transform="matrix(1, 0, 0, 1, -141, -88)"/>
</svg>