<svg version="1.1" xmlns="http://www.w3.org/2000/svg" xmlns:xlink="http://www.w3.org/1999/xlink" width="749.22908" height="366.58978" viewBox="0,0,749.22908,366.58978"><defs><linearGradient x1="117.8401" y1="118.87903" x2="117.8401" y2="190.04456" gradientUnits="userSpaceOnUse" id="color-1"><stop offset="0" stop-color="#ffffff"/><stop offset="1" stop-color="#c1c1c1"/></linearGradient><linearGradient x1="288.9499" y1="66.80307" x2="288.9499" y2="241.45625" gradientUnits="userSpaceOnUse" id="color-2"><stop offset="0" stop-color="#ffffff"/><stop offset="1" stop-color="#c1c1c1"/></linearGradient><linearGradient x1="235.50004" y1="7.67459" x2="235.50004" y2="355.51515" gradientUnits="userSpaceOnUse" id="color-3"><stop offset="0" stop-color="#ffffff"/><stop offset="1" stop-color="#bfbfbf"/></linearGradient><linearGradient x1="271.37939" y1="79.25331" x2="271.37939" y2="83.8707" gradientUnits="userSpaceOnUse" id="color-4"><stop offset="0" stop-color="#cfcfcf"/><stop offset="1" stop-color="#ffffff"/></linearGradient><linearGradient x1="274.18427" y1="83.66989" x2="274.18427" y2="88.28728" gradientUnits="userSpaceOnUse" id="color-5"><stop offset="0" stop-color="#ffffff"/><stop offset="1" stop-color="#cfcfcf"/></linearGradient><linearGradient x1="271.52645" y1="144.10625" x2="271.52645" y2="148.72364" gradientUnits="userSpaceOnUse" id="color-6"><stop offset="0" stop-color="#cfcfcf"/><stop offset="1" stop-color="#ffffff"/></linearGradient><linearGradient x1="274.33133" y1="148.52284" x2="274.33133" y2="153.14023" gradientUnits="userSpaceOnUse" id="color-7"><stop offset="0" stop-color="#ffffff"/><stop offset="1" stop-color="#cfcfcf"/></linearGradient><linearGradient x1="261.1588" y1="209.76801" x2="261.1588" y2="214.3854" gradientUnits="userSpaceOnUse" id="color-8"><stop offset="0" stop-color="#cfcfcf"/><stop offset="1" stop-color="#ffffff"/></linearGradient><linearGradient x1="263.96368" y1="214.1846" x2="263.96368" y2="218.80199" gradientUnits="userSpaceOnUse" id="color-9"><stop offset="0" stop-color="#ffffff"/><stop offset="1" stop-color="#cfcfcf"/></linearGradient><linearGradient x1="262.92351" y1="280.28272" x2="262.92351" y2="284.90011" gradientUnits="userSpaceOnUse" id="color-10"><stop offset="0" stop-color="#cfcfcf"/><stop offset="1" stop-color="#ffffff"/></linearGradient><linearGradient x1="265.72839" y1="284.69931" x2="265.72839" y2="289.3167" gradientUnits="userSpaceOnUse" id="color-11"><stop offset="0" stop-color="#ffffff"/><stop offset="1" stop-color="#cfcfcf"/></linearGradient><linearGradient x1="266.37939" y1="337.03912" x2="266.37939" y2="353.35726" gradientUnits="userSpaceOnUse" id="color-12"><stop offset="0" stop-color="#cfcfcf"/><stop offset="1" stop-color="#ffffff"/></linearGradient><linearGradient x1="265.87955" y1="349.31074" x2="265.87955" y2="365.62887" gradientUnits="userSpaceOnUse" id="color-13"><stop offset="0" stop-color="#f1f1f1"/><stop offset="1" stop-color="#cfcfcf"/></linearGradient><linearGradient x1="282.37939" y1="27.62884" x2="282.37939" y2="11.3107" gradientUnits="userSpaceOnUse" id="color-14"><stop offset="0" stop-color="#cfcfcf"/><stop offset="1" stop-color="#ffffff"/></linearGradient><linearGradient x1="281.87955" y1="15.35722" x2="281.87955" y2="-0.96091" gradientUnits="userSpaceOnUse" id="color-15"><stop offset="0" stop-color="#f1f1f1"/><stop offset="1" stop-color="#cfcfcf"/></linearGradient></defs><g transform="translate(102.72023,0.96091)"><g data-paper-data="{&quot;isPaintingLayer&quot;:true}" fill-rule="nonzero" stroke-linejoin="miter" stroke-miterlimit="10" stroke-dasharray="" stroke-dashoffset="0" style="mix-blend-mode: normal"><g stroke-width="2"><g stroke="none"><path d="M-28.19181,190.04456v-71.16553h292.06371v71.16553z" fill="url(#color-1)" stroke-linecap="butt"/><path d="M147.09721,66.80307l283.70551,116.18295l-281.13265,58.47019z" fill="url(#color-2)" stroke-linecap="round"/></g><path d="M530.51034,179.96174c0,57.58854 14.79105,132.14335 -59.21067,163.03289c-47.06336,19.64506 -167.62486,7.55578 -229.64055,7.55578c-52.46511,0 -213.31989,12.41667 -255.72522,-2.02255c-86.53467,-29.46547 -33.12587,-105.33729 -33.12587,-168.56619c0,-53.15172 -9.81293,-121.30327 54.71103,-152.58887c49.84735,-24.16943 164.61177,-17.99981 234.14019,-17.99981c74.76746,0 201.15566,-9.80869 252.44923,17.71801c58.14932,31.20593 36.40184,102.81303 36.40184,152.87068z" fill="url(#color-3)" stroke="none" stroke-linecap="butt"/><path d="M128.21213,15.90386l-168.39328,96.03645" fill="none" stroke="#e0e0e0" stroke-linecap="round"/><path d="M242.54964,10.99273l-281.92981,161.99028" fill="none" stroke="#e7e7e7" stroke-linecap="round"/><path d="M-38.5791,226.6409l405.72319,-213.68384" fill="none" stroke="#d1d1d1" stroke-linecap="round"/><path d="M456.22765,23.59056l-510.99694,274.43175" fill="none" stroke="#d1d1d1" stroke-linecap="round"/><path d="M512.85696,52.1402c0,0 -125.15196,69.89383 -199.70554,111.52992c-94.87727,52.98625 -323.42802,180.62537 -323.42802,180.62537" fill="none" stroke="#d1d1d1" stroke-linecap="round"/><path d="M56.06211,358.07546l469.73244,-255.23127" fill="none" stroke="#e8e8e8" stroke-linecap="round"/><path d="M521.74096,165.36381l-353.22108,187.29119" fill="none" stroke="#e8e8e8" stroke-linecap="round"/><path d="M520.11466,217.54471c0,0 -30.85933,20.17542 -134.71102,75.75069c-94.77764,50.71933 -106.85332,56.89306 -106.85332,56.89306" fill="none" stroke="#e8e8e8" stroke-linecap="round"/><path d="M371.37211,355.31789c59.40665,-32.16482 93.9549,-50.33555 150.76248,-80.73551" fill="none" stroke="#ececec" stroke-linecap="round"/></g><g stroke="none" stroke-width="5" stroke-linecap="butt"><path d="M-92.49965,83.8707v-4.6174h727.7585v4.6174z" fill="url(#color-4)"/><path d="M-89.69477,88.28728v-4.6174h727.7585v4.6174z" fill="url(#color-5)"/></g><g stroke="none" stroke-width="5" stroke-linecap="butt"><path d="M-92.35259,148.72364v-4.6174h727.7585v4.6174z" fill="url(#color-6)"/><path d="M-89.54771,153.14023v-4.6174h727.75851v4.6174z" fill="url(#color-7)"/></g><g stroke="none" stroke-width="5" stroke-linecap="butt"><path d="M-102.72023,214.3854v-4.6174h727.7585v4.6174z" fill="url(#color-8)"/><path d="M-99.91536,218.80199v-4.6174h727.75851v4.6174z" fill="url(#color-9)"/></g><g stroke="none" stroke-width="5" stroke-linecap="butt"><path d="M-100.95552,284.90011v-4.6174h727.7585v4.6174z" fill="url(#color-10)"/><path d="M-98.15065,289.3167v-4.6174h727.75851v4.6174z" fill="url(#color-11)"/></g><g stroke-linecap="butt"><path d="M-97.49965,353.35726v-16.31817h727.7585v16.31817z" fill="url(#color-12)" stroke="#b6b6b6" stroke-width="0.5"/><path d="M-97.99949,365.62887v-16.31817h727.75851v16.31817z" fill="url(#color-13)" stroke="#dcba63" stroke-width="0"/></g><g data-paper-data="{&quot;index&quot;:null}" stroke-linecap="butt"><path d="M646.25885,11.3107v16.31817h-727.7585v-16.31817z" fill="url(#color-14)" stroke="#b6b6b6" stroke-width="0.5"/><path d="M645.75902,-0.96091v16.31817h-727.75851v-16.31817z" fill="url(#color-15)" stroke="#dcba63" stroke-width="0"/></g></g></g></svg>