<svg version="1.1" xmlns="http://www.w3.org/2000/svg" xmlns:xlink="http://www.w3.org/1999/xlink" width="91.47448" height="86.81327" viewBox="0,0,91.47448,86.81327"><defs><linearGradient x1="240.31077" y1="136.76132" x2="240.31077" y2="223.40663" gradientUnits="userSpaceOnUse" id="color-1"><stop offset="0" stop-color="#000000"/><stop offset="1" stop-color="#00ff14"/></linearGradient><linearGradient x1="210.44204" y1="148.93713" x2="240.86523" y2="185.78021" gradientUnits="userSpaceOnUse" id="color-2"><stop offset="0" stop-color="#ffffff"/><stop offset="1" stop-color="#ffffff" stop-opacity="0"/></linearGradient><linearGradient x1="241.80606" y1="198.22937" x2="264.39551" y2="141.38146" gradientUnits="userSpaceOnUse" id="color-3"><stop offset="0" stop-color="#ffffff" stop-opacity="0"/><stop offset="1" stop-color="#ffffff"/></linearGradient></defs><g transform="translate(-194.26275,-136.59337)"><g data-paper-data="{&quot;isPaintingLayer&quot;:true}" fill-rule="nonzero" stroke-linejoin="miter" stroke-miterlimit="10" stroke-dasharray="" stroke-dashoffset="0" style="mix-blend-mode: normal"><g><path d="M285.73723,180.08398c0,23.92644 -20.33812,43.32266 -45.42646,43.32266c-25.08834,0 -45.42646,-19.39621 -45.42646,-43.32266c0,-23.92644 20.33812,-43.32266 45.42646,-43.32266c25.08834,0 45.42646,19.39621 45.42646,43.32266z" fill="url(#color-1)" stroke="none" stroke-width="0" stroke-linecap="butt"/><path d="M257.50626,143.5761c1.1077,1.34145 0.58102,2.5645 0.8678,3.72638c0.37333,1.51252 1.35501,2.9266 1.23575,4.41678c-0.2189,2.73535 -0.51744,5.7157 -3.53022,10.68944c-3.64751,6.02161 -12.25611,9.38843 -19.23462,14.58008c-7.9257,5.89631 -10.72668,8.36039 -16.29096,11.26318c-2.08835,1.08945 -5.93674,5.40095 -8.60237,5.39345c-6.62662,-0.01866 -9.32375,-2.43751 -12.71944,-6.54975c-8.40113,-10.17394 -7.08524,-24.54794 11.20983,-38.15852c18.29507,-13.61058 38.82787,-16.389 47.229,-6.21507z" data-paper-data="{&quot;index&quot;:null}" fill="url(#color-2)" stroke="none" stroke-width="0" stroke-linecap="butt"/><path d="M224.76749,158.54672c6.2379,-15.69812 23.97997,-23.38327 39.62802,-17.16526c15.64805,6.21801 23.27647,23.98454 17.03857,39.68266c-2.8839,7.25753 -6.74336,16.69922 -13.20132,19.94935c-7.51067,3.77994 -17.30521,-1.91568 -25.71887,-5.25899c-8.00931,-3.18263 -20.14277,-6.9033 -23.16611,-14.31098c-2.88345,-7.06496 2.37462,-15.23358 5.41971,-22.89676z" data-paper-data="{&quot;index&quot;:null}" fill="url(#color-3)" stroke="none" stroke-width="0" stroke-linecap="butt"/><g fill="none" stroke="#ffffff" stroke-width="10" stroke-linecap="round"><path d="M236.10934,148.55503v69.06936"/><path d="M272.46164,184.90732l-72.70459,-3.63523"/></g></g></g></g></svg>