<svg version="1.1" width="84" height="133" viewBox="2 2 84 133" xmlns="http://www.w3.org/2000/svg" xmlns:xlink="http://www.w3.org/1999/xlink">
  <!-- Exported by Scratch - http://scratch.mit.edu/ -->
  <path id="ID0.9801845066249371" fill="#7F7F7F" stroke="#666666" stroke-width="2" stroke-linecap="round" d="M 216.500 157.500 C 228.774 154.243 242.759 161.221 252.906 168.857 C 261.229 175.119 268 185.835 268 196.250 C 268 206.665 261.229 217.381 252.906 223.643 C 242.759 231.279 228.581 238.910 216.500 235 C 197.721 228.917 170.239 198.124 170.650 196.200 C 171.216 194.651 202.803 218.565 221 219 C 233.001 219.284 241.667 206.636 251 199 C 253.333 197.091 254.696 195.075 251.500 193 C 238.715 184.699 226.173 172.453 211 172 C 196.234 171.585 169.871 192.801 170.350 191.250 C 171.130 189.483 198.324 162.326 216.500 157.500 Z " transform="matrix(0.06095873937010765, -0.998140275478363, 0.998140275478363, 0.06095873937010765, -165.25, 259.9)"/>
  <path id="ID0.14824552228674293" fill="none" stroke="#221E20" stroke-width="2" stroke-linecap="round" d="M 242 232 L 247 253.500 " transform="matrix(1, 0, 0, 1, -196, -127.5)"/>
  <path id="ID0.8277696780860424" fill="none" stroke="#221E20" stroke-width="2" stroke-linecap="round" d="M 227 233 L 212.500 253.500 " transform="matrix(1, 0, 0, 1, -196, -127.5)"/>
  <path id="ID0.3151343399658799" fill="none" stroke="#221E20" stroke-width="2" stroke-linecap="round" d="M 234 237.500 L 234 262 " transform="matrix(1, 0, 0, 1, -196, -127.5)"/>
</svg>