<svg version="1.1" xmlns="http://www.w3.org/2000/svg" xmlns:xlink="http://www.w3.org/1999/xlink" width="283.284" height="324.5" viewBox="0,0,283.284,324.5"><g transform="translate(-98.358,-17.75)"><g data-paper-data="{&quot;isPaintingLayer&quot;:true}" fill-rule="nonzero" stroke-linejoin="miter" stroke-miterlimit="10" stroke-dasharray="" stroke-dashoffset="0" style="mix-blend-mode: normal"><path d="M99.608,341v-322h280.784v322z" fill="#808080" stroke="#000000" stroke-width="2.5" stroke-linecap="butt"/><path d="M280.9375,19v321" fill="none" stroke="#000000" stroke-width="2.5" stroke-linecap="round"/><text transform="matrix(0.5 0 0 0.5 306.9375 37.5)" font-size="40"  fill="#000000" fill-rule="nonzero" stroke="none" stroke-width="1" stroke-linecap="butt" stroke-linejoin="miter" stroke-miterlimit="10" stroke-dasharray="" stroke-dashoffset="0" font-family="Helvetica" font-weight="normal" text-anchor="start" style="mix-blend-mode: normal" >PULL</text><g fill="#000000" stroke="none" stroke-width="1" stroke-linecap="butt" font-family="Sans Serif" font-weight="normal" font-size="40" text-anchor="start"><text transform="matrix(0.5 0 0 0.5 327.9375 60.5)" font-size="40"  fill="#000000" fill-rule="nonzero" stroke="none" stroke-width="1" stroke-linecap="butt" stroke-linejoin="miter" stroke-miterlimit="10" stroke-dasharray="" stroke-dashoffset="0" font-family="Helvetica" font-weight="normal" text-anchor="start" style="mix-blend-mode: normal" >l</text><text transform="matrix(0.5 0 0 0.5 322.9375 71.5)" font-size="40"  fill="#000000" fill-rule="nonzero" stroke="none" stroke-width="1" stroke-linecap="butt" stroke-linejoin="miter" stroke-miterlimit="10" stroke-dasharray="" stroke-dashoffset="0" font-family="Helvetica" font-weight="normal" text-anchor="start" style="mix-blend-mode: normal" >\/</text></g><text transform="matrix(0.5 0 0 0.5 303.9375 93.5)" font-size="40"  fill="#000000" fill-rule="nonzero" stroke="none" stroke-width="1" stroke-linecap="butt" stroke-linejoin="miter" stroke-miterlimit="10" stroke-dasharray="" stroke-dashoffset="0" font-family="Helvetica" font-weight="normal" text-anchor="start" style="mix-blend-mode: normal" >HOLD</text><g data-paper-data="{&quot;index&quot;:null}"><path d="M298.27484,190.32143v-29.33929h64.35714v29.33929z" fill="#cccccc" stroke="#000000" stroke-width="1.5" stroke-linecap="butt"/><path d="M307.73912,189.375v-27.44643h13.25v27.44643z" fill="#000000" stroke="#000000" stroke-width="1.5" stroke-linecap="butt"/><path d="M338.97126,189.375v-27.44643h13.25v27.44643z" fill="#000000" stroke="#000000" stroke-width="1.5" stroke-linecap="butt"/><g fill="none" stroke-linecap="round"><path d="M314.36412,175.17857v38.80357" stroke="#bfbfbf" stroke-width="5"/><path d="M346.06948,175.17857v38.80357" stroke="#c0c0c0" stroke-width="5"/><path d="M290.98438,212.41147h79.5" stroke="#c0c0c0" stroke-width="7.5"/><path d="M290.98438,201.91518v20.58482" stroke="#c0c0c0" stroke-width="7.5"/><path d="M370.48438,222.5v-20.58482" stroke="#c0c0c0" stroke-width="7.5"/></g></g><path d="M228.72199,284.80765c-4.48682,5.02719 -11.01602,-12.80765 -18.28449,-12.80765c-8.5525,0 0.91853,-11.38224 -3.46398,-18.02377c-2.5511,-3.86609 -21.03602,-1.49775 -21.03602,-6.47623c0,-6.76549 -23.25775,-7.89049 -18.82412,-12.32412c4.43363,-4.43362 36.55863,-12.17588 43.32412,-12.17588c8.26045,0 27.56608,14.08806 32.0041,20.35138c2.83165,3.99627 -7.5041,-1.12191 -7.5041,4.14862c0,6.26251 -2.34967,32.97622 -6.21551,37.30765z" fill="#c4b996" stroke="none" stroke-width="NaN" stroke-linecap="butt"/><path d="M268.9375,298.5c0,-5.0811 -26.26479,-6.87201 -26.73316,-11.08546c-0.35999,-3.23846 2.02534,-6.46644 5.28111,-9.33397c6.55121,-5.76999 16.62675,-10.08057 14.95205,-10.08057c-3.58985,0 -6.5,13.65532 -6.5,30.5c0,3.08508 14.09762,18.06318 14.27915,20.86999c0.80963,12.51855 -10.71152,9.63001 -7.77915,9.63001c3.58985,0 6.5,-13.65532 6.5,-30.5z" fill="#c4b996" stroke="none" stroke-width="0" stroke-linecap="butt"/><path d="M109.42503,282.49365c2.5275,-7.54968 17.74126,-6.49365 22.51247,-6.49365c7.73199,0 30,27.98374 30,44c0,16.01626 -22.26801,14 -30,14c-7.73199,0 -14,-12.98374 -14,-29c0,-6.13303 -10.08091,-17.8214 -8.51247,-22.50635z" fill="#c4b996" stroke="none" stroke-width="0" stroke-linecap="butt"/><path d="M245.00111,305.08086c-3.3764,0.59057 -16.12134,9.91914 -20.06361,9.91914c-4.81063,0 -1.32742,18.51074 -5.23928,17.65319c-8.21388,-1.80063 -21.76072,-24.225 -21.76072,-28.15319c0,-3.92819 -0.45316,-11.35256 7.76072,-13.15319c3.91186,-0.85755 14.42865,2.65319 19.23928,2.65319c14.91169,0 27,4.70101 27,10.5c0,4.26588 2.45848,-1.0624 -6.93639,0.58086z" fill="#c4b996" stroke="none" stroke-width="0" stroke-linecap="butt"/><path d="M197.49555,331.26632c-0.99399,13.27976 -16.55521,-3.26632 -19.55805,-3.26632c-3.86599,0 -7,-15.67003 -7,-35c0,-7.85303 -18.48273,-16.10198 -17.60927,-21.94156c1.27654,-8.53436 22.31388,-13.05844 24.60927,-13.05844c3.86599,0 7,15.67003 7,35c0,4.31577 12.84377,34.4491 12.55805,38.26632z" fill="#c4b996" stroke="none" stroke-width="0" stroke-linecap="butt"/><path d="M149.69085,245.36838c-2.33946,5.0803 0.06706,21.89121 -3.10697,25.48912c-7.01205,7.94848 -20.62076,-0.63526 -26.83678,-3.49771c-2.51508,-1.15818 1.71759,-7.05747 0.43257,-9.86952c-3.32847,-7.28383 -8.60491,-15.41732 -3.18832,-27.17985c2.82369,-6.13186 15.43373,2.68051 19.37951,-1.22293c6.54543,-6.4752 4.93063,-23.36273 10.56424,-20.76848c9.02972,4.15814 10.26352,20.74571 2.75576,37.04937z" fill="#c4b996" stroke="none" stroke-width="0" stroke-linecap="butt"/><path d="M169.63495,228.11149c-4.73714,-4.45029 -10.77179,-25.11387 -1.54156,-34.93905c9.23022,-9.82518 30.23002,-5.09136 34.96716,-0.64107c3.50486,3.29263 15.19249,9.23141 10.654,16.7293c-1.59569,2.63618 -16.38839,6.56288 -18.78946,9.11871c-0.58145,0.61892 -28.52344,0.3623 -29.11932,0.93699c-8.86354,8.54834 8.26789,12.96506 3.82916,8.79511z" fill="#c4b996" stroke="none" stroke-width="0" stroke-linecap="butt"/><path d="M266.1317,263.88054c-6.5603,3.97253 -14.81858,-15.72755 -21.01143,-19.54526c-4.09065,-2.52177 -17.27062,-20.03476 -18.46469,-24.66963c-1.55057,-6.01863 9.92413,0.41152 13.77186,-5.83c3.02837,-4.91242 -8.85286,-33.7172 -4.20601,-35.65762c5.80393,-2.4236 28.34116,22.92964 33.56297,26.14875c5.47806,3.37707 -0.50143,14.45904 -0.29865,21.10147c0.14527,4.75869 7.83423,4.78684 4.99148,9.39816c-2.325,3.77145 -4.94534,26.99518 -8.34554,29.05414z" data-paper-data="{&quot;index&quot;:null}" fill="#c4b996" stroke="none" stroke-width="0" stroke-linecap="butt"/></g></g></svg>