<svg xmlns="http://www.w3.org/2000/svg" xmlns:xlink="http://www.w3.org/1999/xlink" version="1.1" width="135.52482360947263" height="106.5378088389648" viewBox="-0.41810637885397184 -0.16810637885397184 135.52482360947263 106.5378088389648">
  <!-- Exported by Scratch - http://scratch.mit.edu/ -->
  <path id="ID0.35917190834879875" fill="#42210B" stroke="#000000" d="M 30.2444 53.0196 C 30.2444 66.1141 45.4467 76.7288 64.2006 76.7288 C 82.9545 76.7288 97.8852 65.185 93.0415 53.0196 C 88.4587 41.5095 82.9545 29.3105 64.2006 29.3105 C 45.4467 29.3105 30.2444 39.9258 30.2444 53.0196 Z " stroke-width="0.5902649164199829"/>
  <g id="ID0.893189774826169">
    <path id="ID0.6546092904172838" fill="#C69C6D" stroke="#000000" d="M 38.3191 76.6716 C 38.3191 72.2038 43.007 68.5814 48.7904 68.5814 C 54.5738 68.5814 59.2617 72.2038 59.2617 76.6716 C 59.2617 79.1424 38.3191 79.1424 38.3191 76.6716 Z " stroke-width="0.5902649164199829"/>
    <path id="ID0.9999977913685143" fill="#A67C52" stroke="#000000" d="M 57.4112 77.7795 C 57.2937 74.3825 55.523 72.7374 55.523 72.7374 " stroke-width="0.5902649164199829"/>
    <path id="ID0.8689246741123497" fill="#A67C52" stroke="#000000" d="M 55.0348 78.1921 C 55.0307 74.9704 53.9487 73.5532 53.9487 73.5532 " stroke-width="0.5902649164199829"/>
  </g>
  <path id="ID0.009229061659425497" fill="#754C24" stroke="#000000" d="M 28.8673 52.6696 C 28.8673 56.9508 30.3548 60.9841 32.9797 64.5186 C 38.916 72.5108 62.5643 73.9688 71.6952 63.9833 C 88.428 45.685 104.665 51.5877 95.6204 41.0922 C 89.069 33.4902 77.8841 27.3868 64.2006 27.3868 C 44.6864 27.3868 28.8673 38.7063 28.8673 52.6696 Z " stroke-width="0.5902649164199829"/>
  <path id="ID0.5557723217643797" fill="#42210B" stroke="#000000" d="M 61.0007 33.9464 L 66.1431 33.9464 L 63.5719 16.0909 L 61.0007 33.9464 " stroke-width="0.5902649164199829"/>
  <path id="ID0.3557110703550279" fill="#42210B" stroke="#000000" d="M 70.687 29.8907 L 75.7603 30.7354 L 76.1558 12.6993 L 70.687 29.8907 " stroke-width="0.5902649164199829"/>
  <path id="ID0.9858297486789525" fill="#42210B" stroke="#000000" d="M 79.7458 35.4965 L 84.2129 38.0458 L 90.8304 21.2628 L 79.7458 35.4965 " stroke-width="0.5902649164199829"/>
  <path id="ID0.7554545314051211" fill="#42210B" stroke="#000000" d="M 89.7838 37.177 L 93.7563 40.4435 L 103.112 25.0187 L 89.7838 37.177 " stroke-width="0.5902649164199829"/>
  <path id="ID0.12854639953002334" fill="#42210B" stroke="#000000" d="M 81.4145 45.1556 L 85.4896 48.2934 L 89.1646 39.3072 L 81.4145 45.1556 " stroke-width="0.5902649164199829"/>
  <path id="ID0.0611889879219234" fill="#42210B" stroke="#000000" d="M 68.4859 40.7646 L 73.5309 41.7615 L 72.8237 32.0788 L 68.4859 40.7646 " stroke-width="0.5902649164199829"/>
  <path id="ID0.2531722658313811" fill="#42210B" stroke="#000000" d="M 54.4529 40.3054 L 59.5109 39.3745 L 55.2882 30.6327 L 54.4529 40.3054 " stroke-width="0.5902649164199829"/>
  <path id="ID0.7779754302464426" fill="#42210B" stroke="#000000" d="M 44.8818 48.3772 L 48.5414 44.7636 L 40.1343 39.9087 L 44.8818 48.3772 " stroke-width="0.5902649164199829"/>
  <path id="ID0.20593265164643526" fill="#42210B" stroke="#000000" d="M 40.2565 57.7447 L 40.5799 52.6118 L 31.0755 54.5898 L 40.2565 57.7447 " stroke-width="0.5902649164199829"/>
  <path id="ID0.8070150394923985" fill="#42210B" stroke="#000000" d="M 51.0312 30.5158 L 56.0809 29.5425 L 50.1765 12.4968 L 51.0312 30.5158 " stroke-width="0.5902649164199829"/>
  <path id="ID0.729429510422051" fill="#42210B" stroke="#000000" d="M 43.8895 38.3126 L 48.5698 36.1824 L 38.8339 20.996 L 43.8895 38.3126 " stroke-width="0.5902649164199829"/>
  <path id="ID0.06967791076749563" fill="#42210B" stroke="#000000" d="M 34.6672 40.666 L 38.4715 37.2065 L 24.5572 25.7252 L 34.6672 40.666 " stroke-width="0.5902649164199829"/>
  <path id="ID0.07578826742246747" fill="#42210B" stroke="#000000" d="M 35.784 49.8618 L 37.631 45.0629 L 20.044 41.0467 L 35.784 49.8618 " stroke-width="0.5902649164199829"/>
  <g id="ID0.7288383892737329">
    <path id="ID0.44699910236522555" fill="#C69C6D" stroke="#000000" d="M 57.031 76.9732 C 57.031 73.2321 61.7189 70.1987 67.5023 70.1987 C 73.2857 70.1987 77.9736 73.2321 77.9736 76.9732 C 77.9736 79.0415 57.031 79.0415 57.031 76.9732 Z " stroke-width="0.5902649164199829"/>
    <path id="ID0.4673094302415848" fill="#A67C52" stroke="#000000" d="M 76.1231 77.9005 C 76.0057 75.0566 74.2349 73.6789 74.2349 73.6789 " stroke-width="0.5902649164199829"/>
    <path id="ID0.029157384298741817" fill="#A67C52" stroke="#000000" d="M 73.7467 78.2458 C 73.7426 75.5483 72.6606 74.3613 72.6606 74.3613 " stroke-width="0.5902649164199829"/>
  </g>
  <g id="ID0.3838445460423827">
    <path id="ID0.8130080956034362" fill="#C69C6D" stroke="#000000" d="M 75.9492 65.1905 C 77.3942 64.7402 78.675 63.6936 79.9111 62.3785 C 78.7217 62.5308 77.4219 62.3089 76.2201 61.6655 C 73.466 60.191 72.2677 57.0638 73.5439 54.6791 C 74.82 52.295 78.0871 51.5572 80.8413 53.0311 C 82.6747 54.0127 83.8127 55.7262 83.9969 57.4657 C 86.9045 53.9979 90.2454 50.9539 95.4026 52.112 C 100.2232 53.194 99.7806 58.7041 103.076 59.6869 C 107.4623 60.9949 112.7929 60.3757 112.7929 65.1905 C 112.7929 69.1034 109.916 72.5783 105.4648 74.7682 C 102.3789 76.2863 98.5363 76.1163 94.3708 76.1163 C 89.7053 76.1163 82.5643 73.6219 78.8751 72.9968 C 74.6453 72.2796 72.7759 66.1804 75.9492 65.1905 Z " stroke-width="0.5902649164199829"/>
    <path id="ID0.5114893540740013" d="M 105.7003 69.8513 C 106.7114 70.8022 109.8688 69.9817 112.9393 67.2423 C 115.615 64.8547 115.4491 60.9754 113.6459 59.5801 C 111.8426 58.1847 107.915 59.1899 106.5491 62.5054 C 104.5759 67.2972 104.6308 68.8449 105.7003 69.8513 Z " stroke-width="0.5902649164199829" />
    <path id="ID0.6965664783492684" fill="#FFFFFF" stroke="#000000" d="M 85.4666 61.3597 C 87.2091 66.6904 95.7012 69.1317 95.7012 61.437 C 90.4839 61.5563 89.6368 58.1132 87.5255 57.9474 C 85.4489 57.7845 84.9743 59.8545 85.4666 61.3597 Z " stroke-width="0.5902649164199829"/>
    <path id="ID0.6119098500348628" d="M 93.2747 62.2451 C 93.6276 62.2451 93.9476 62.3885 94.1789 62.6199 C 94.4103 62.8513 94.5538 63.1712 94.5538 63.5242 C 94.5538 63.8772 94.4103 64.1971 94.1789 64.4285 C 93.9476 64.6599 93.6276 64.8033 93.2747 64.8033 C 92.9217 64.8033 92.6017 64.6599 92.3704 64.4285 C 92.139 64.1971 91.9955 63.8772 91.9955 63.5242 C 91.9955 63.1712 92.139 62.8513 92.3704 62.6199 C 92.6017 62.3885 92.9217 62.2451 93.2747 62.2451 Z " stroke-width="0.5902649164199829" />
    <path id="ID0.22970852302387357" fill="none" stroke="#000000" d="M 77.61 60.6129 C 76.7742 60.1656 76.1818 59.4522 75.8998 58.6619 C 75.6176 57.8708 75.6459 57.0022 76.0518 56.2439 C 76.4576 55.4856 77.1646 54.9803 77.9794 54.7763 C 78.7935 54.5726 79.7156 54.6698 80.5514 55.1171 C 81.3873 55.5645 81.9796 56.2779 82.2616 57.0682 C 82.5438 57.8593 82.5155 58.7279 82.1096 59.4862 C 81.7038 60.2444 80.9968 60.7498 80.182 60.9538 C 79.3679 61.1575 78.4458 61.0603 77.61 60.6129 Z " stroke-width="0.5902898577198336"/>
    <path id="ID0.916386145632714" fill="none" stroke="#000000" d="M 110.4543 70.7054 C 110.4543 70.7054 108.6835 71.7466 106.1259 71.8162 C 103.5683 71.8859 102.3441 70.6245 100.2232 70.2314 C 97.6385 70.5118 97.694 73.9518 97.694 73.9518 " stroke-width="0.5902649164199829"/>
    <path id="ID0.46020253375172615" fill="none" stroke="#000000" d="M 96.8782 60.7995 C 94.7137 60.9961 94.8489 60.9654 92.9134 60.5723 C 90.9779 60.1792 89.2048 57.4244 86.5486 57.0797 " stroke-width="0.5902649164199829"/>
  </g>
  <path id="ID0.033297700341790915_9_" fill="none" d="M 0.15 0.4 L 134.5386 0.4 L 134.5386 105.8016 L 0.15 105.8016 L 0.15 0.4 Z " stroke-width="1.1362127696288726"/>
</svg>