<svg version="1.1" xmlns="http://www.w3.org/2000/svg" xmlns:xlink="http://www.w3.org/1999/xlink" width="47.54083" height="19.92061" viewBox="0,0,47.54083,19.92061"><defs><linearGradient x1="24.70524" y1="3.01935" x2="24.70524" y2="20.43997" gradientUnits="userSpaceOnUse" id="color-1"><stop offset="0" stop-color="#ffffff"/><stop offset="1" stop-color="#ffffff" stop-opacity="0"/></linearGradient></defs><g transform="translate(-0.89761,-1.77324)"><g data-paper-data="{&quot;isPaintingLayer&quot;:true}" fill-rule="nonzero" stroke="#fee4a7" stroke-linecap="butt" stroke-linejoin="miter" stroke-miterlimit="10" stroke-dasharray="" stroke-dashoffset="0" style="mix-blend-mode: normal"><path d="M44.46486,19.40849c-3.70087,2.36505 -22.56513,-0.06171 -22.56513,-0.06171c0,0 -19.75212,-4.29147 -19.75212,-7.03296c0,-2.64176 19.75213,-7.78114 19.75213,-7.78114c0,0 19.97424,-3.39622 25.2887,0c0.20882,0.13345 0.08272,13.08245 -2.72357,14.87581z" data-paper-data="{&quot;index&quot;:null}" fill="#c39b35" stroke-width="2.5"/><text transform="matrix(0.33259 0 0 0.33259 12.49089 7.9861499999999985)" font-size="40"  fill="#ffffff" fill-rule="nonzero" stroke="#fee4a7" stroke-width="0" stroke-linecap="butt" stroke-linejoin="miter" stroke-miterlimit="10" stroke-dasharray="" stroke-dashoffset="0" font-family="Helvetica" font-weight="normal" text-anchor="start" style="mix-blend-mode: normal" >Back</text><path d="M46.95471,11.40728c-0.3586,3.45947 -44.80322,3.64413 -44.80322,0.90265c0,-2.64176 19.75213,-7.78114 19.75213,-7.78114c0,0 19.97425,-3.39622 25.28871,0c0.10504,0.06713 0.12534,3.37697 -0.23762,6.87849z" data-paper-data="{&quot;index&quot;:null}" fill="url(#color-1)" stroke-width="0"/></g></g></svg>