<svg xmlns="http://www.w3.org/2000/svg" xmlns:xlink="http://www.w3.org/1999/xlink" version="1.1" width="128.53630062550187" height="101.24309536427138" viewBox="-0.8499999772006187 -0.8499999772006187 128.53630062550187 101.24309536427138">
  <!-- Exported by Scratch - http://scratch.mit.edu/ -->
  <path id="ID0.5443468582816422" fill="#000000" stroke="#000000" stroke-width="1.2374464515622894" d="M 62.8632 32.791 C 68.1189 32.6809 74.2039 33.2667 78.0558 36.3486 C 81.5594 39.1533 82.6832 43.9858 82.6003 48.1114 C 82.5087 52.6357 80.9371 57.6949 77.2928 60.9931 C 73.8509 64.1518 68.3418 65.8233 63.2944 65.899 C 58.1866 65.9042 52.4864 64.3113 48.8648 61.2226 C 44.9233 57.9049 42.2656 52.789 42.4295 48.1114 C 42.5854 43.727 45.4945 39.2537 49.296 36.3486 C 52.8964 33.5967 58.1316 32.6809 62.8632 32.791 Z "/>
  <path id="ID0.4069141363725066" fill="none" stroke="#000000" stroke-width="1.9999999641688582" stroke-linecap="round" d="M 70.48 33.6006 C 70.48 33.6006 73.2126 25.5112 74.6623 21.5021 C 75.3358 19.6384 75.0562 16.4993 76.8545 15.9686 C 78.7045 15.4221 80.2456 18.2427 81.9589 19.3476 C 87.5809 22.9721 93.2469 26.5662 98.8824 30.1699 "/>
  <path id="ID0.8678468321450055" fill="none" stroke="#000000" stroke-width="1.9999999663221664" stroke-linecap="round" d="M 76.6267 34.9764 C 76.6267 34.9764 81.5489 30.9699 84.1832 29.2195 C 85.0912 28.6158 86.3755 27.2361 87.1998 27.9498 C 89.3179 29.7836 89.7688 32.9444 91.2396 35.329 C 96.3285 43.5782 101.6787 51.6973 106.8904 59.8695 "/>
  <path id="ID0.8587070810608566" fill="none" stroke="#000000" stroke-width="1.9999999367505719" stroke-linecap="round" d="M 81.023 41.3916 C 81.023 41.3916 85.5626 37.9508 86.964 39.485 C 91.8183 44.8016 93.9379 52.1287 96.8424 58.7169 C 98.2864 61.9928 98.9334 65.5765 99.9779 69.001 "/>
  <path id="ID0.07539850194007158" fill="none" stroke="#000000" stroke-width="1.9999999184259178" stroke-linecap="round" d="M 81.5498 52.2226 C 81.5498 52.2226 85.4907 50.1154 85.6722 52.8147 C 86.398 63.6126 83.7717 85.259 83.7717 85.259 "/>
  <path id="ID0.4069141363725066" fill="none" stroke="#000000" stroke-width="1.9723797867620838" stroke-linecap="round" d="M 54.05 32.9556 C 54.05 32.9556 50.8885 25.097 49.2291 21.2093 C 48.458 19.402 48.5323 16.2535 46.7529 15.8576 C 44.9222 15.4499 43.6031 18.3746 42.0089 19.6023 C 36.7777 23.6298 31.5019 27.6303 26.2564 31.6382 "/>
  <path id="ID0.8678468321450055" fill="none" stroke="#000000" stroke-width="1.9723797982069222" stroke-linecap="round" d="M 47.7876 35.8554 C 47.7876 35.8554 42.8191 32.0988 40.1787 30.4815 C 39.2685 29.9237 37.9563 28.6096 37.1895 29.3634 C 35.2192 31.3003 34.9302 34.4795 33.6142 36.9343 C 29.0613 45.4263 24.2484 53.8013 19.5725 62.2224 "/>
  <path id="ID0.8587070810608566" fill="none" stroke="#000000" stroke-width="1.9723797882953924" stroke-linecap="round" d="M 44.0759 42.2757 C 44.0759 42.2757 39.5688 39.0061 38.2469 40.5894 C 33.6676 46.0762 31.802 53.4706 29.1531 60.1558 C 27.8363 63.4799 27.3028 67.0823 26.3785 70.5401 "/>
  <path id="ID0.07539850194007158" fill="none" stroke="#000000" stroke-width="1.9723798241346804" stroke-linecap="round" d="M 43.372 52.1436 C 43.372 52.1436 39.4107 50.2774 39.41 52.9816 C 39.407 63.7992 43.3616 85.2404 43.3616 85.2404 "/>
  <g id="ID0.9577445294708014">
    <path id="ID0.37750169076025486" fill="#FFFFFF" stroke="#000000" stroke-width="1.3443691729901157" d="M 70.7237 41.0185 C 72.8807 41.0161 74.8356 41.8638 76.2519 43.2363 C 77.6682 44.6079 78.5459 46.5042 78.5477 48.5972 C 78.5494 50.6902 77.6749 52.5884 76.2609 53.9633 C 74.8468 55.3389 72.8934 56.1911 70.7364 56.1935 C 68.5794 56.1959 66.6245 55.3482 65.2082 53.9757 C 63.7919 52.6041 62.9142 50.7078 62.9124 48.6148 C 62.9107 46.5218 63.7852 44.6235 65.1992 43.2487 C 66.6132 41.8731 68.5667 41.0209 70.7237 41.0185 Z "/>
    <path id="ID0.234124637208879" fill="#000000" stroke="black" stroke-width="1.5444463961489148" stroke-linecap="round" d="M 70.595 47.9038 C 71.4114 47.9029 72.1506 48.2739 72.686 48.8744 C 73.2222 49.475 73.5538 50.3045 73.5541 51.2201 C 73.5544 52.1358 73.2234 52.966 72.6876 53.5678 C 72.1526 54.1696 71.4137 54.5422 70.5973 54.5431 C 69.7809 54.544 69.0418 54.1731 68.5064 53.5725 C 67.9701 52.972 67.6385 52.1424 67.6382 51.2268 C 67.6379 50.3112 67.9689 49.4809 68.5048 48.8792 C 69.0397 48.2774 69.7786 47.9048 70.595 47.9038 Z "/>
  </g>
  <g id="ID0.9577445294708014">
    <path id="ID0.37750169076025486" fill="#FFFFFF" stroke="#000000" stroke-width="1.3443691729901157" d="M 55.3237 41.0685 C 57.4807 41.0661 59.4356 41.9138 60.8519 43.2863 C 62.2682 44.6579 63.1459 46.5542 63.1477 48.6472 C 63.1494 50.7402 62.2749 52.6384 60.8609 54.0133 C 59.4468 55.3889 57.4934 56.2411 55.3364 56.2435 C 53.1794 56.2459 51.2245 55.3982 49.8082 54.0257 C 48.3919 52.6541 47.5142 50.7578 47.5124 48.6648 C 47.5107 46.5718 48.3852 44.6735 49.7992 43.2987 C 51.2132 41.9231 53.1667 41.0709 55.3237 41.0685 Z "/>
    <path id="ID0.234124637208879" fill="#000000" stroke="black" stroke-width="1.5444463961489148" stroke-linecap="round" d="M 55.195 48.0038 C 56.0114 48.0029 56.7506 48.3739 57.286 48.9744 C 57.8222 49.575 58.1538 50.4045 58.1541 51.3201 C 58.1544 52.2358 57.8234 53.066 57.2876 53.6678 C 56.7526 54.2696 56.0137 54.6422 55.1973 54.6431 C 54.3809 54.644 53.6418 54.2731 53.1064 53.6725 C 52.5701 53.072 52.2385 52.2424 52.2382 51.3268 C 52.2379 50.4112 52.5689 49.5809 53.1048 48.9792 C 53.6397 48.3774 54.3786 48.0048 55.195 48.0038 Z "/>
  </g>
  <path id="ID0.033297700341790915_9_" fill="none" d="M 0.15 0.15 L 126.6863 0.15 L 126.6863 99.3931 L 0.15 99.3931 L 0.15 0.15 Z " stroke-width="1.0698244549706957"/>
</svg>