<svg version="1.1" xmlns="http://www.w3.org/2000/svg" xmlns:xlink="http://www.w3.org/1999/xlink" width="47.19959" height="66.14038" viewBox="0,0,47.19959,66.14038"><g transform="translate(-215.24481,-118.57493)"><g data-paper-data="{&quot;isPaintingLayer&quot;:true}" fill="none" fill-rule="nonzero" stroke="#000000" stroke-width="1" stroke-linecap="butt" stroke-linejoin="miter" stroke-miterlimit="10" stroke-dasharray="" stroke-dashoffset="0" font-family="none" font-weight="none" font-size="none" text-anchor="none" style="mix-blend-mode: normal"><path d="M252.7922,156.6367c-3.8432,1.9697 -7.9368,0.6382 -11.7373,-0.9032l2.1679,-1.2126l-4.1934,-9.2787l9.2788,-4.1934l-4.1934,-9.2788l9.2788,-4.1934l-3.6692,-8.1189c1.9188,0.2968 3.8606,0.816 5.6029,1.5805c3.3451,1.0489 5.7949,4.7527 6.6171,8.8042c0.9263,4.6251 0.142,10.1009 -1.366,14.6623c-1.5434,4.6549 -3.6747,10.5843 -7.7862,12.132z" id="ID0.1943633360788226" fill="#9966ff"/><path d="M223.6651,155.4601c-3.9425,-3.0022 -6.3076,-8.2459 -7.3472,-13.153c-1.068,-5.0029 -0.7055,-11.1607 1.6147,-15.2919c1.9158,-3.3852 4.6629,-6.0784 7.8864,-7.8699l7.8324,4.2465l-4.8531,8.9514l8.9513,4.8531l-4.8531,8.9514l8.9514,4.8531l-2.7366,5.7152c-1.2103,0.8882 -3.4548,0.2464 -5.4029,0.2479c-3.2307,-0.422 -6.9901,0.6993 -10.0433,-1.5038z" id="ID0.2068682238459587" fill="#9966ff"/><path d="M240,154.35c11.7,-0.2 21.4,-13.4 21.6,-8.6c-1.1,20.1 -6.7,32.2 -10,35.2c-3.6,4 -7.4,3.2 -12.3,3.2c-4.7,0 -8.3,0.9 -12.1,-2.7c-3.2,-3.2 -11,-13.8 -10.4,-35.6c0.4,-5.1 10.3,8.4 23.2,8.5z" id="ID0.5443468582816422_1_" fill="#5a3c96"/></g></g></svg>