<svg xmlns="http://www.w3.org/2000/svg" xmlns:xlink="http://www.w3.org/1999/xlink" xmlns:a="http://ns.adobe.com/AdobeSVGViewerExtensions/3.0/" version="1.1" x="0px" y="0px" width="40.89753341674805" height="40.07511901855469" viewBox="0.0005908012390136719 0.0008767843246459961 40.89753341674805 40.07511901855469" enable-background="new -4.562 -4.229 50 49" xml:space="preserve">
  <defs/>
  <g>
    <linearGradient id="SVGID_1_" gradientUnits="userSpaceOnUse" x1="12.1436" y1="36.1748" x2="25.6346" y2="-0.8917">
      <stop offset="0" style="stop-color:#D40000"/>
      <stop offset="0.0892" style="stop-color:#DB0000"/>
      <stop offset="0.3903" style="stop-color:#EF0000"/>
      <stop offset="0.6935" style="stop-color:#FB0000"/>
      <stop offset="1" style="stop-color:#FF0000"/>
    </linearGradient>
    <path fill="url(#SVGID_1_)" stroke="#000000" stroke-width="2" d="M33.26,1.931c-4.771-2.23-8.701-0.237-12.813,3.711&#13;&#10;&#9;C16.678,1.862,12.41-0.3,7.637,1.931c-5.42,2.535-8.049,9.706-5.871,16.015c2.09,6.051,15.191,21.13,18.637,21.13&#13;&#10;&#9;c3.535,0,16.641-15.079,18.73-21.13C41.311,11.637,38.68,4.466,33.26,1.931z"/>
    <path fill="#FFFFFF" d="M11.377,4.562c0.502,0.908-0.492,2.668-2.225,3.935c-1.73,1.265-3.541,1.556-4.043,0.647&#13;&#10;&#9;C4.605,8.236,5.6,6.476,7.332,5.211C9.063,3.945,10.873,3.654,11.377,4.562z" stroke-width="1"/>
  </g>
</svg>