<svg version="1.1" xmlns="http://www.w3.org/2000/svg" xmlns:xlink="http://www.w3.org/1999/xlink" width="283.284" height="324.5" viewBox="0,0,283.284,324.5"><g transform="translate(-98.358,-17.75)"><g data-paper-data="{&quot;isPaintingLayer&quot;:true}" fill-rule="nonzero" stroke-linejoin="miter" stroke-miterlimit="10" stroke-dasharray="" stroke-dashoffset="0" style="mix-blend-mode: normal"><path d="M99.608,341v-322h280.784v322z" fill="#808080" stroke="#000000" stroke-width="2.5" stroke-linecap="butt"/><path d="M280.9375,19v321" fill="none" stroke="#000000" stroke-width="2.5" stroke-linecap="round"/><text transform="matrix(0.5 0 0 0.5 306.9375 37.5)" font-size="40"  fill="#000000" fill-rule="nonzero" stroke="none" stroke-width="1" stroke-linecap="butt" stroke-linejoin="miter" stroke-miterlimit="10" stroke-dasharray="" stroke-dashoffset="0" font-family="Helvetica" font-weight="normal" text-anchor="start" style="mix-blend-mode: normal" >PULL</text><g fill="#000000" stroke="none" stroke-width="1" stroke-linecap="butt" font-family="Sans Serif" font-weight="normal" font-size="40" text-anchor="start"><text transform="matrix(0.5 0 0 0.5 327.9375 60.5)" font-size="40"  fill="#000000" fill-rule="nonzero" stroke="none" stroke-width="1" stroke-linecap="butt" stroke-linejoin="miter" stroke-miterlimit="10" stroke-dasharray="" stroke-dashoffset="0" font-family="Helvetica" font-weight="normal" text-anchor="start" style="mix-blend-mode: normal" >l</text><text transform="matrix(0.5 0 0 0.5 322.9375 71.5)" font-size="40"  fill="#000000" fill-rule="nonzero" stroke="none" stroke-width="1" stroke-linecap="butt" stroke-linejoin="miter" stroke-miterlimit="10" stroke-dasharray="" stroke-dashoffset="0" font-family="Helvetica" font-weight="normal" text-anchor="start" style="mix-blend-mode: normal" >\/</text></g><text transform="matrix(0.5 0 0 0.5 303.9375 93.5)" font-size="40"  fill="#000000" fill-rule="nonzero" stroke="none" stroke-width="1" stroke-linecap="butt" stroke-linejoin="miter" stroke-miterlimit="10" stroke-dasharray="" stroke-dashoffset="0" font-family="Helvetica" font-weight="normal" text-anchor="start" style="mix-blend-mode: normal" >HOLD</text><g data-paper-data="{&quot;index&quot;:null}"><path d="M362.63198,162.16071v29.33929h-64.35714v-29.33929z" fill="#cccccc" stroke="#000000" stroke-width="1.5" stroke-linecap="butt"/><path d="M320.98912,163.10714v27.44643h-13.25v-27.44643z" fill="#000000" stroke="#000000" stroke-width="1.5" stroke-linecap="butt"/><path d="M352.22126,163.10714v27.44643h-13.25v-27.44643z" fill="#000000" stroke="#000000" stroke-width="1.5" stroke-linecap="butt"/><g fill="none" stroke-linecap="round"><path d="M314.36412,138.5v38.80357" stroke="#bfbfbf" stroke-width="5"/><path d="M346.06948,138.5v38.80357" stroke="#c0c0c0" stroke-width="5"/><path d="M290.98438,140.07067h79.5" stroke="#c0c0c0" stroke-width="7.5"/><path d="M290.98438,150.56696v-20.58482" stroke="#c0c0c0" stroke-width="7.5"/><path d="M370.48438,150.56696v-20.58482" stroke="#c0c0c0" stroke-width="7.5"/></g></g><path d="M234.9375,247.5c0,-5.27053 10.33575,-0.15235 7.5041,-4.14862c-4.43802,-6.26332 -23.74365,-20.35138 -32.0041,-20.35138c-6.76549,0 -38.89049,7.74226 -43.32412,12.17588c-4.43363,4.43363 18.82412,5.55863 18.82412,12.32412c0,4.97848 18.48492,2.61014 21.03602,6.47623c4.38251,6.64153 -5.08852,18.02377 3.46398,18.02377c7.26847,0 13.79767,17.83484 18.28449,12.80765c3.86584,-4.33143 6.21551,-31.04514 6.21551,-37.30765z" fill="#c4b996" stroke="none" stroke-width="none" stroke-linecap="butt"/><path d="M268.9375,298.5c0,-5.0811 -26.26479,-6.87201 -26.73316,-11.08546c-0.35999,-3.23846 2.02534,-6.46644 5.28111,-9.33397c6.55121,-5.76999 16.62675,-10.08057 14.95205,-10.08057c-3.58985,0 -6.5,13.65532 -6.5,30.5c0,3.08508 14.09762,18.06318 14.27915,20.86999c0.80963,12.51855 -10.71152,9.63001 -7.77915,9.63001c3.58985,0 6.5,-13.65532 6.5,-30.5z" fill="#c4b996" stroke="none" stroke-width="0" stroke-linecap="butt"/><path d="M117.9375,305c0,16.01626 6.26801,29 14,29c7.73199,0 30,2.01626 30,-14c0,-16.01626 -22.26801,-44 -30,-44c-4.77121,0 -19.98497,-1.05603 -22.51247,6.49365c-1.56844,4.68495 8.51247,16.37332 8.51247,22.50635z" fill="#c4b996" stroke="none" stroke-width="0" stroke-linecap="butt"/><path d="M251.9375,304.5c0,-5.79899 -12.08831,-10.5 -27,-10.5c-4.81063,0 -15.32742,-3.51074 -19.23928,-2.65319c-8.21388,1.80063 -7.76072,9.225 -7.76072,13.15319c0,3.92819 13.54684,26.35256 21.76072,28.15319c3.91186,0.85755 0.42865,-17.65319 5.23928,-17.65319c3.94227,0 16.68721,-9.32857 20.06361,-9.91914c9.39487,-1.64326 6.93639,3.68502 6.93639,-0.58086z" fill="#c4b996" stroke="none" stroke-width="0" stroke-linecap="butt"/><path d="M184.9375,293c0,-19.32997 -3.13401,-35 -7,-35c-2.29539,0 -23.33273,4.52408 -24.60927,13.05844c-0.87346,5.83958 17.60927,14.08853 17.60927,21.94156c0,19.32997 3.13401,35 7,35c3.00284,0 18.56406,16.54608 19.55805,3.26632c0.28572,-3.81722 -12.55805,-33.95055 -12.55805,-38.26632z" fill="#c4b996" stroke="none" stroke-width="0" stroke-linecap="butt"/><path d="M149.69086,245.36838c7.50776,-16.30366 6.27396,-32.89123 -2.75576,-37.04937c-5.63361,-2.59425 -4.01881,14.29328 -10.56424,20.76848c-3.94578,3.90344 -16.55582,-4.90893 -19.37951,1.22293c-5.41659,11.76253 -0.14015,19.89602 3.18832,27.17985c1.28502,2.81205 -2.94765,8.71134 -0.43257,9.86952c6.21602,2.86245 19.82473,11.44619 26.83678,3.49771c3.17403,-3.59791 0.76751,-20.40882 3.10697,-25.48912z" fill="#c4b996" stroke="none" stroke-width="0" stroke-linecap="butt"/><path d="M169.63493,228.11148c4.43873,4.16995 -12.6927,-0.24677 -3.82916,-8.79511c0.59588,-0.57469 28.53787,-0.31807 29.11932,-0.93699c2.40107,-2.55583 17.19377,-6.48253 18.78946,-9.11871c4.53849,-7.49789 -7.14914,-13.43667 -10.654,-16.7293c-4.73714,-4.45029 -25.73694,-9.18411 -34.96716,0.64107c-9.23023,9.82518 -3.19558,30.48876 1.54156,34.93905z" fill="#c4b996" stroke="none" stroke-width="0" stroke-linecap="butt"/><path d="M266.1317,263.88054c-6.5603,3.97253 -14.81858,-15.72755 -21.01143,-19.54526c-4.09065,-2.52177 -17.27062,-20.03476 -18.46469,-24.66963c-1.55057,-6.01863 9.92413,0.41152 13.77186,-5.83c3.02837,-4.91242 -8.85286,-33.7172 -4.20601,-35.65762c5.80393,-2.4236 28.34116,22.92964 33.56297,26.14875c5.47806,3.37707 -0.50143,14.45904 -0.29865,21.10147c0.14527,4.75869 7.83423,4.78684 4.99148,9.39816c-2.325,3.77145 -4.94534,26.99518 -8.34554,29.05414z" data-paper-data="{&quot;index&quot;:null}" fill="#c4b996" stroke="none" stroke-width="0" stroke-linecap="butt"/></g></g></svg>