<svg version="1.1" xmlns="http://www.w3.org/2000/svg" xmlns:xlink="http://www.w3.org/1999/xlink" width="651.68753" height="463.01" viewBox="0,0,651.68753,463.01"><defs><linearGradient x1="238.99401" y1="125.73367" x2="238.99401" y2="84.70922" gradientUnits="userSpaceOnUse" id="color-1"><stop offset="0" stop-color="#000000" stop-opacity="0"/><stop offset="1" stop-color="#000000"/></linearGradient><linearGradient x1="242.1788" y1="233.29555" x2="242.1788" y2="274.31999" gradientUnits="userSpaceOnUse" id="color-2"><stop offset="0" stop-color="#000000" stop-opacity="0"/><stop offset="1" stop-color="#000000"/></linearGradient><linearGradient x1="132.82741" y1="180.52286" x2="91.80314" y2="180.61509" gradientUnits="userSpaceOnUse" id="color-3"><stop offset="0" stop-color="#000000" stop-opacity="0"/><stop offset="1" stop-color="#000000"/></linearGradient><linearGradient x1="347.48682" y1="198.39632" x2="388.51109" y2="198.4808" gradientUnits="userSpaceOnUse" id="color-4"><stop offset="0" stop-color="#000000" stop-opacity="0"/><stop offset="1" stop-color="#000000"/></linearGradient></defs><g transform="translate(73.23389,54.41946)"><g data-paper-data="{&quot;isPaintingLayer&quot;:true}" fill-rule="nonzero" stroke="none" stroke-width="0" stroke-linecap="butt" stroke-linejoin="miter" stroke-miterlimit="10" stroke-dasharray="" stroke-dashoffset="0" style="mix-blend-mode: normal"><path d="M-73.23388,86.56352v-140.98298h651.65166v140.983z" fill="#000000"/><path d="M-73.23388,408.59052v-135.53735h651.65166v135.53737z" fill="#000000"/><path d="M-73.18153,343v-351h166.4561v351z" fill="#000000"/><path d="M386.89432,353v-351h191.55933v351z" fill="#000000"/><path d="M522.02703,84.70922v41.02444h-566.06607v-41.02444z" data-paper-data="{&quot;index&quot;:null}" fill="url(#color-1)"/><path d="M-40.85424,274.31999v-41.02445h566.06607v41.02445z" data-paper-data="{&quot;index&quot;:null}" fill="url(#color-2)"/><path d="M90.98468,-39.42995l41.02427,-0.09223l1.63693,440.0901l-41.02427,0.09223z" data-paper-data="{&quot;index&quot;:null}" fill="url(#color-3)"/><path d="M387.69263,400.02973l-41.02427,-0.08448l1.63693,-403.09785l41.02427,0.08448z" data-paper-data="{&quot;index&quot;:null}" fill="url(#color-4)"/></g></g></svg>