<svg version="1.1" xmlns="http://www.w3.org/2000/svg" xmlns:xlink="http://www.w3.org/1999/xlink" width="73.31562" height="82.74608" viewBox="0,0,73.31562,82.74608"><g transform="translate(-203.34231,-132.49742)"><g data-paper-data="{&quot;isPaintingLayer&quot;:true}" fill-rule="nonzero" stroke="#000000" stroke-linejoin="miter" stroke-miterlimit="10" stroke-dasharray="" stroke-dashoffset="0" style="mix-blend-mode: normal"><path d="M217.54999,203.79977c0,0 -2.9419,4.89295 -4.7426,6.56025c-1.5354,1.42165 -5.39303,2.8246 -5.39303,2.8246l3.37854,-10.13563z" fill="#ffffff" stroke-width="2.5" stroke-linecap="round"/><path d="M274.40793,201.066c0,0 -4.76815,7.27824 -28.90851,7.04533c-15.96452,-0.15402 -39.81618,-0.92741 -39.90711,-6.92889c-0.08896,-5.53904 23.95534,-7.68466 39.90711,-7.16179c21.3164,0.69871 28.90851,7.04534 28.90851,7.04534z" fill="#ffffff" stroke-width="4.5" stroke-linecap="butt"/><path d="M250.13578,201.97375l-5.15672,-12.44726l-7.68017,-2.39494v-35.5636" fill="none" stroke-width="4" stroke-linecap="round"/><path d="M227.87454,143.92177c0,-5.20493 4.21943,-9.42435 9.42435,-9.42435c5.20493,0 9.42435,4.21943 9.42435,9.42435c0,5.20493 -4.21943,9.42435 -9.42435,9.42435c-5.20493,0 -9.42435,-4.21943 -9.42435,-9.42435z" fill="#ffffff" stroke-width="4" stroke-linecap="butt"/><path d="M226.30816,177.05946l1.06691,-5.51236l9.95781,-8.71308l12.26944,2.48945l4.80109,3.912" fill="none" stroke-width="4" stroke-linecap="round"/><path d="M227.19725,200.19555l4.08982,-7.46835l6.04581,-5.86799" fill="none" stroke-width="4" stroke-linecap="round"/></g></g></svg>