<svg xmlns="http://www.w3.org/2000/svg" xmlns:xlink="http://www.w3.org/1999/xlink" version="1.1" width="79.5" height="80.25" viewBox="-0.25 -0.25 79.5 80.25">
  <!-- Exported by Scratch - http://scratch.mit.edu/ -->
  <g id="ID0.6992544932290912">
    <path id="ID0.033297700341790915_4_" fill="none" d="M 0.5 0.5 L 78.5 0.5 L 78.5 79.25 L 0.5 79.25 L 0.5 0.5 Z " stroke-width="1"/>
    <path id="ID0.6428824830800295_4_" fill="#7F7F7F" d="M 16 16 L 64 16 L 64 64 L 16 64 L 16 16 Z " stroke-width="1"/>
    <path id="ID0.14449769724160433_14_" fill="#C4482B" stroke="#000000" stroke-width="1.5" d="M 64.01 30.14 L 64 35.79 C 64 37.99 62.21 39.77 60 39.77 L 53.54 40.45 L 38.41 39.55 L 27.32 39.76 L 20 39.76 C 17.8 39.76 16 37.98 16 35.78 L 15.85 31.51 L 16 19.98 C 16 17.78 17.79 16 20 16 L 29.47 16.8 L 47.68 16 L 56.89 16.38 L 60.01 16 C 62.21 16 64.01 17.78 64.01 19.98 L 64.01 30.14 Z "/>
    <path id="ID0.3690653797239065_1_" fill="#C4482B" stroke="#000000" stroke-width="1.5" d="M 65 40.15 L 51.31 40.79 L 43.98 40.15 C 41.78 40.15 39.99 41.94 39.99 44.15 L 39.5 49.89 L 39.99 60.02 C 39.99 62.23 41.77 64.02 43.98 64.02 L 56.8 64 L 64.99 64.02 "/>
    <path id="ID0.14449769724160433_13_" fill="#C4482B" stroke="#000000" stroke-width="1.5" d="M 40 54.12 L 39.99 59.77 C 39.99 61.97 38.2 63.75 35.99 63.75 L 31.88 64.18 L 19.65 63.96 C 17.45 63.96 15.65 62.18 15.65 59.98 L 15.5 55.71 L 15.65 44.18 C 15.65 41.98 17.44 40.2 19.65 40.2 L 28.85 40.78 L 36.01 39.98 C 38.21 39.98 40.01 41.76 40.01 43.96 L 40.01 54.12 Z "/>
    <path id="ID0.14449769724160433_12_" fill="#E3674B" d="M 59.06 28.37 L 28.42 34.74 L 22.32 34.74 C 20.48 34.74 18.98 33.56 18.98 32.1 L 18.85 29.27 L 18.98 21.64 C 18.98 20.18 20.47 19 22.32 19 L 30.23 19.53 L 45.44 19 L 53.13 19.25 L 55.73 19 C 57.57 19 59.07 20.18 59.07 21.64 L 59.07 28.37 Z " stroke-width="1"/>
    <path id="ID0.14449769724160433_11_" fill="#E3674B" d="M 36.06 52.91 L 24.42 59.28 L 22.32 59.28 C 20.48 59.28 18.98 58.1 18.98 56.64 L 18.85 53.81 L 18.98 46.18 C 18.98 44.72 20.47 43.54 22.32 43.54 L 30.12 43.79 L 32.72 43.54 C 34.56 43.54 36.06 44.72 36.06 46.18 L 36.06 52.91 Z " stroke-width="1"/>
    <path id="ID0.6034160871058702" fill="#E3674B" d="M 65 43.71 L 54.27 44.08 L 46.36 43.55 C 44.51 43.55 43.02 44.73 43.02 46.19 L 42.89 53.82 L 43.02 56.65 C 43.02 58.11 44.52 59.29 46.36 59.29 L 52.46 59.29 L 65 56.68 L 65 43.71 Z " stroke-width="1"/>
  </g>
</svg>