<svg version="1.1" xmlns="http://www.w3.org/2000/svg" xmlns:xlink="http://www.w3.org/1999/xlink" width="25.69427" height="16.12501" viewBox="0,0,25.69427,16.12501"><g transform="translate(-229,-171.99998)"><g data-paper-data="{&quot;isPaintingLayer&quot;:true}" fill-rule="nonzero" stroke-linecap="butt" stroke-linejoin="miter" stroke-miterlimit="10" stroke-dasharray="" stroke-dashoffset="0" style="mix-blend-mode: normal"><path d="M230,186.875v-13.75h20v13.75z" fill="#ff0000" stroke="#ff0000" stroke-width="2"/><path d="M254.51585,186.97791c0.17933,0.73544 -0.71733,0.88252 -0.71733,0.88252l-0.79102,0.12936c-0.65333,0.0876 -1.31716,0.1335 -1.97916,0.1352c0,0 -0.91442,0 -0.91442,-0.75c0,-0.02929 0.00139,-0.05744 0.00408,-0.08449c-0.19994,-0.08127 -0.38733,-0.23947 -0.44884,-0.54221c-0.09384,-0.46182 0.22239,-0.6834 0.47329,-0.78471c-0.26918,-0.0634 -0.63813,-0.23719 -0.63813,-0.71359c0,-0.75 0.91442,-0.75 0.91442,-0.75c0.09628,0 0.19257,0 0.28885,0c-0.00006,-0.00004 -0.00012,-0.00008 -0.00018,-0.00011c-0.21954,-0.02426 -0.45683,-0.12399 -0.63423,-0.39075c-0.43787,-0.65842 0.36489,-1.01756 0.36489,-1.01756c0.176,-0.07874 0.35199,-0.15747 0.52799,-0.23621c-0.43804,-0.02042 -0.87498,-0.05761 -1.30727,-0.11557c0,0 -0.90197,-0.1233 -0.75165,-0.86309c0.15033,-0.7398 1.0523,-0.6165 1.0523,-0.6165c0.02689,0.00376 0.0538,0.00741 0.08074,0.01097c-0.08662,-0.08182 -0.15884,-0.19189 -0.20376,-0.33927c-0.19009,-0.62364 0.43446,-0.84638 0.61682,-0.89731c0.01635,-0.03873 0.03686,-0.07873 0.06202,-0.12001c0.19191,-0.31481 0.47388,-0.40801 0.71912,-0.41827c-0.06367,-0.06653 -0.11827,-0.14992 -0.15812,-0.25418c-0.57034,0.01318 -1.14238,0.00786 -1.72436,0.00786c0,0 -0.91442,0 -0.91442,-0.75c0,-0.75 0.91442,-0.75 0.91442,-0.75c0.21998,0 0.4386,0.00144 0.65629,0.00247c-0.01865,-0.05115 -0.03267,-0.10752 -0.04109,-0.16965c-0.05401,-0.39872 0.1809,-0.60787 0.4111,-0.71616c-0.04272,-0.01314 -0.08543,-0.02628 -0.12815,-0.03942c0,0 -0.85619,-0.26334 -0.53512,-0.96559c0.10184,-0.22274 0.25752,-0.34834 0.42263,-0.41601c-0.2411,-0.12228 -0.46684,-0.264 -0.67024,-0.41532c0,0 -0.45052,-0.36952 -0.22338,-0.80011c-0.16018,-0.1441 -0.27406,-0.36363 -0.16167,-0.68626c0.11955,-0.34318 0.38132,-0.47639 0.62288,-0.52175c-0.03065,-0.07749 -0.04845,-0.16755 -0.04845,-0.27221c0,-0.75 0.91442,-0.75 0.91442,-0.75c0.35561,0 0.71121,0 1.06682,0h0.1524c0,0 0.91442,0 0.91442,0.75c0,0.38375 -0.2394,0.57115 -0.47321,0.66266c0.17509,0.10807 0.3208,0.28795 0.3208,0.58734c0,0.22617 -0.08315,0.38413 -0.19931,0.49446l0.64088,0.16903c0,0 0.86749,0.23717 0.57833,0.94868c-0.17096,0.42065 -0.54406,0.50971 -0.82053,0.51223l0.00305,0.00156c0,0 0.30899,0.16896 0.40187,0.45303c0.16653,0.07154 0.32161,0.20258 0.4156,0.43383c0.10318,0.25387 0.0591,0.44735 -0.04029,0.59122c0.10916,0.08553 0.17378,0.17994 0.20906,0.27389c0.27365,-0.0088 0.76121,0.05187 0.91767,0.56516c0.22178,0.72761 -0.66534,0.90951 -0.66534,0.90951c-0.29606,0.06071 -0.91565,0.18775 -1.38739,0.28448c0.24675,0.03452 0.52169,0.15678 0.66148,0.50074c0.1341,0.32997 0.01944,0.55792 -0.1421,0.70751c-0.01599,0.03719 -0.03583,0.07555 -0.05992,0.11507c-0.19733,0.32371 -0.48989,0.4131 -0.73982,0.41895c0.22121,0.01989 0.83636,0.13049 0.83636,0.74564c0,0.00389 -0.00002,0.00775 -0.00007,0.0116c0.1934,-0.02241 0.8691,-0.05368 1.04374,0.5707c0.20446,0.73101 -0.6868,0.89871 -0.6868,0.89871l-0.59951,0.08413c-0.08698,0.03891 -0.17395,0.07782 -0.26093,0.11674l0.36443,0.175c0,0 0.78411,0.38587 0.31364,1.02899c-0.02517,0.03441 -0.05124,0.06587 -0.07804,0.09461l0.36075,0.39452c0,0 0,0.65225 -0.74161,0.74023c0.00355,0.09229 -0.01831,0.17627 -0.05379,0.25073l0.61606,-0.10139c0,0 0.89666,-0.14709 1.07599,0.58835zM251.79036,181.375h0.40204c-0.20371,-0.01764 -0.35377,-0.07918 -0.35377,-0.07918l-0.00225,-0.00092c-0.12607,0.02585 -0.25215,0.0517 -0.37822,0.07755c0.11078,0.00202 0.22155,0.00284 0.3322,0.00255z" fill="#ffa100" stroke="none" stroke-width="0.5"/></g></g></svg>