<svg xmlns="http://www.w3.org/2000/svg" xmlns:xlink="http://www.w3.org/1999/xlink" version="1.1" width="22.73000144958496" height="26.65520668029785" viewBox="0.20249998569488525 0.34540003538131714 22.73000144958496 26.65520668029785">
  <!-- Exported by Scratch - http://scratch.mit.edu/ -->
  <g id="ID0.5207560155540705">
    <g id="Layer_3_1_">
      <path id="ID0.8535828334279358_1_" fill="#FAA51F" d="M 7.8018 19.6871 C 7.181 19.4172 6.4791 19.0123 5.9663 18.2564 C 4.8325 16.5828 4.8865 14.2883 3.7258 14.6123 C 2.565 14.9362 1.7552 18.4994 4.7245 20.335 C 5.7503 20.9828 6.7761 21.2258 7.5859 21.3877 C 7.8018 21.4417 9.6914 21.6847 10.5282 20.9018 C 11.365 20.119 10.9871 19.7951 10.7982 19.6061 C 10.6092 19.4442 8.6656 20.092 7.8018 19.6871 Z " stroke-width="0.2699386477470398"/>
      <path id="ID0.914295740891248_1_" fill="#FFFFFF" d="M 3.7798 14.5853 C 3.2129 14.6393 2.592 15.854 2.619 16.8528 C 2.673 17.8515 3.0509 18.5534 3.2939 18.9853 C 3.6448 19.3632 3.2939 18.1485 3.9687 17.7975 C 4.6436 17.4466 5.6963 17.8785 5.6963 17.8785 C 5.6963 17.8785 5.1294 16.5288 4.8325 15.773 C 4.5896 15.0712 4.3736 14.5853 3.7798 14.5853 Z " stroke-width="0.2699386477470398"/>
      <path id="ID0.40227043256163597_1_" fill="none" stroke="#8E5322" stroke-width="0.3779141068458557" stroke-linecap="round" stroke-linejoin="round" d="M 7.8018 19.6871 C 7.181 19.4172 6.4791 19.0123 5.9663 18.2564 C 4.8325 16.5828 4.8865 14.2883 3.7258 14.6123 C 2.565 14.9362 1.7552 18.4994 4.7245 20.335 C 5.7503 20.9828 6.7761 21.2258 7.5859 21.3877 C 7.8018 21.4417 9.6914 21.6847 10.5282 20.9018 C 11.365 20.119 10.9871 19.7951 10.7982 19.6061 C 10.6092 19.4442 8.6656 20.092 7.8018 19.6871 Z "/>
    </g>
    <path id="ID0.26344340899959207_1_" fill="#518943" stroke="#426C36" stroke-width="0.3779141068458557" stroke-linecap="round" stroke-linejoin="round" d="M 6.2902 16.2049 C 6.2902 16.2049 5.6963 20.5509 6.2902 21.3337 C 7.154 22.4675 11.0681 22.5485 11.662 21.8736 C 12.6607 20.7129 12.3098 21.0368 12.3098 21.0368 L 12.5798 17.0957 L 6.2902 16.2049 Z "/>
    <path id="ID0.2414738917723298_1_" fill="#FEFBDF" stroke="#70715E" stroke-width="0.3779141068458557" stroke-linecap="round" stroke-linejoin="round" d="M 7.127 12.9656 C 7.5049 12.9656 7.8558 13.1816 8.1258 13.5595 C 8.3687 13.9104 8.5307 14.4233 8.5307 14.9632 C 8.5307 15.5031 8.3687 16.016 8.1258 16.3669 C 7.8828 16.7178 7.5319 16.9607 7.127 16.9607 C 6.7221 16.9607 6.3982 16.7448 6.1282 16.3669 C 5.8853 16.016 5.7233 15.5031 5.7233 14.9632 C 5.7233 14.4233 5.8853 13.9104 6.1282 13.5595 C 6.3982 13.1816 6.7491 12.9656 7.127 12.9656 Z "/>
    <path id="ID0.6192030962556601_1_" fill="#FEFBDF" stroke="#70715E" stroke-width="0.3779141068458557" stroke-linecap="round" stroke-linejoin="round" d="M 7.127 13.8564 C 7.3429 13.8564 7.5319 13.9914 7.6669 14.1804 C 7.8018 14.3693 7.8828 14.6663 7.8828 14.9632 C 7.8828 15.2601 7.8018 15.5571 7.6669 15.746 C 7.5319 15.935 7.3429 16.0699 7.127 16.0699 C 6.911 16.0699 6.7221 15.935 6.5871 15.746 C 6.4521 15.5571 6.3712 15.2601 6.3712 14.9632 C 6.3712 14.6663 6.4521 14.3693 6.5871 14.1804 C 6.7491 13.9644 6.938 13.8564 7.127 13.8564 Z "/>
    <path id="ID0.15330331353470683_1_" fill="#518943" stroke="#426C36" stroke-width="0.3779141068458557" stroke-linecap="round" stroke-linejoin="round" d="M 8.4497 21.5227 L 8.5847 19.4442 L 6.8301 19.0933 C 6.8301 19.0933 6.6411 20.6859 6.911 20.9288 C 7.154 21.1448 8.4497 21.5227 8.4497 21.5227 Z "/>
    <g id="ID0.2669722530990839">
      <g id="ID0.16171270422637463_1_">
        <path id="ID0.007584026083350182_1_" fill="#FAA51F" stroke="#8E5322" stroke-width="0.3779141068458557" stroke-linecap="round" stroke-linejoin="round" d="M 14.3883 20.281 C 14.3883 20.281 13.9294 21.7656 14.1454 24.1411 C 14.2264 25.1669 16.1429 24.0061 16.008 26.0037 C 15.954 26.5706 13.4706 26.5166 12.9037 26.3006 C 12.3908 26.1117 12.2558 25.9227 12.3368 25.3828 C 12.6337 23.4123 11.635 21.1448 11.635 21.1448 "/>
        <path id="ID0.31672530295327306_1_" fill="#FAA51F" stroke="#8E5322" stroke-width="0.3779141068458557" stroke-linecap="round" stroke-linejoin="round" d="M 14.6853 24.627 C 14.6853 24.627 14.3344 24.573 13.9294 24.654 "/>
      </g>
      <g id="Layer_2_2_">
        <path id="ID0.39854341372847557_1_" fill="#FAA51F" stroke="#8E5322" stroke-width="0.3779141068458557" stroke-linecap="round" stroke-linejoin="round" d="M 11.9049 19.7141 "/>
      </g>
      <path id="ID0.46792364912107587_1_" fill="#FAA51F" stroke="#8E5322" stroke-width="0.3779141068458557" stroke-linecap="round" stroke-linejoin="round" d="M 14.6043 17.3387 C 14.6043 19.1472 15.0632 21.7926 11.8509 21.7926 C 8.6387 21.7926 8.9356 19.3632 8.9356 17.5546 C 8.9356 15.746 10.0423 15.2601 11.8509 15.2601 C 13.6595 15.2601 14.6043 15.5301 14.6043 17.3387 Z "/>
      <path id="ID0.38032895559445024_1_" fill="#FFFFFF" d="M 13.9025 18.1215 C 13.9025 19.2552 14.1454 20.9558 12.4178 20.9558 C 10.6902 20.9558 10.8252 19.4172 10.8252 18.2834 C 10.8252 17.1497 11.419 16.8258 12.4178 16.8258 C 13.4166 16.8258 13.9025 16.9877 13.9025 18.1215 Z " stroke-width="0.2699386477470398"/>
      <g id="ID0.15723733883351088_3_">
        <path id="ID0.527006761636585_3_" fill="#FAA51F" stroke="#8E5322" stroke-width="0.3779141068458557" stroke-linecap="round" stroke-linejoin="round" d="M 9.1515 20.281 C 9.1515 20.281 9.8534 21.7656 9.5025 24.1141 C 9.3405 25.1399 7.8288 23.8712 7.9368 25.9227 C 7.9638 26.5975 10.0153 26.5436 10.6092 26.4356 C 11.1761 26.3276 11.392 26.0307 11.338 25.4638 C 11.2571 24.3301 11.662 21.8736 11.662 21.8736 "/>
        <path id="ID0.8937406223267317_3_" fill="#FAA51F" stroke="#8E5322" stroke-width="0.3779141068458557" stroke-linecap="round" stroke-linejoin="round" d="M 8.8546 24.6 C 8.8546 24.6 9.2865 24.546 9.6644 24.654 "/>
      </g>
      <g id="ID0.7407716196030378_1_">
        <path id="ID0.15909873321652412_1_" fill="#FAA51F" stroke="#8E5322" stroke-width="0.3779141068458557" stroke-linecap="round" stroke-linejoin="round" d="M 7.3969 20.092 C 6.2902 19.4712 7.289 16.5828 9.1245 15.1252 L 11.2571 15.5031 "/>
        <path id="ID0.8024068027734756_1_" fill="#FAA51F" stroke="#8E5322" stroke-width="0.3779141068458557" stroke-linecap="round" stroke-linejoin="round" d="M 9.0436 18.3374 "/>
        <path id="ID0.06734407460317016_1_" fill="none" stroke="#8E5322" stroke-width="0.3779141068458557" stroke-linecap="round" stroke-linejoin="round" d="M 9.8804 17.8515 "/>
        <path id="ID0.8143284288235009_1_" fill="#FAA51F" stroke="#8E5322" stroke-width="0.3779141068458557" stroke-linecap="round" stroke-linejoin="round" d="M 9.0436 18.3374 L 9.7724 17.2307 "/>
        <path id="ID0.6682511982508004_1_" fill="none" stroke="#8E5322" stroke-width="0.3779141068458557" stroke-linecap="round" stroke-linejoin="round" d="M 9.0436 18.3374 L 8.7196 18.2564 "/>
      </g>
      <g id="ID0.32291418174281716_1_">
        <path id="ID0.30105241015553474_1_" fill="#FAA51F" stroke="#8E5322" stroke-width="0.3779141068458557" stroke-linecap="round" stroke-linejoin="round" d="M 16.3049 19.8221 C 17.7086 18.7693 16.2779 16.3939 14.8202 15.638 L 13.6865 15.827 "/>
        <path id="ID0.3822403196245432_1_" fill="#FAA51F" stroke="#8E5322" stroke-width="0.3779141068458557" stroke-linecap="round" stroke-linejoin="round" d="M 14.9012 18.3374 "/>
        <path id="ID0.5879319808445871_1_" fill="none" stroke="#8E5322" stroke-width="0.3779141068458557" stroke-linecap="round" stroke-linejoin="round" d="M 14.1994 17.9325 "/>
        <path id="ID0.7841392233967781_1_" fill="#FAA51F" stroke="#8E5322" stroke-width="0.3779141068458557" stroke-linecap="round" stroke-linejoin="round" d="M 14.9012 18.3374 L 14.6043 17.3387 "/>
        <path id="ID0.4326359131373465_1_" fill="none" stroke="#8E5322" stroke-width="0.3779141068458557" stroke-linecap="round" stroke-linejoin="round" d="M 14.9012 18.3374 L 15.1982 18.2564 "/>
      </g>
      <path id="ID0.48627097019925714_1_" fill="#518943" stroke="#426C36" stroke-width="0.3779141068458557" stroke-linecap="round" stroke-linejoin="round" d="M 9.1785 21.7656 C 10.3393 21.3067 14.1724 17.1227 9.2055 15.746 C 9.2055 15.746 13.2276 17.1497 8.9896 20.9828 "/>
      <path id="ID0.07006075512617826_1_" fill="#518943" stroke="#426C36" stroke-width="0.3779141068458557" stroke-linecap="round" stroke-linejoin="round" d="M 15.0092 19.5252 C 15.5761 18.0945 15.846 16.4748 12.7417 15.746 C 12.7417 15.746 15.6031 16.7988 14.4693 19.1742 "/>
      <g id="Layer_2_1_">
        <path id="ID0.2591130444779992_1_" fill="#FAA51F" d="M 11.9049 3.0589 C 11.5 3.0319 10.6632 2.9779 10.2043 3.0049 C 8.9626 3.0589 7.8018 3.5178 7.8018 3.5178 L 4.4006 1.3043 L 4.9945 6.2442 C 5.1564 6.0282 2.2411 9.5914 4.0767 12.5607 C 5.9393 15.5571 9.8804 16.8798 14.7933 15.908 C 19.7061 14.9362 20.8669 12.1018 20.5429 10.6172 C 20.219 9.1325 18.3564 8.5656 18.3564 8.5656 C 18.3564 8.5656 18.3294 7.4049 17.4926 5.9742 C 16.9798 5.1104 15.3061 3.8687 15.3061 3.8687 L 14.5503 0.8454 L 12.6067 2.735 L 11.9049 3.0589 Z " stroke-width="0.2699386477470398"/>
        <path id="ID0.3588979784399271_1_" fill="#FFFFFF" d="M 18.1135 8.5387 L 17.4656 7.9988 L 15.0902 8.7006 C 15.0902 8.7006 15.0902 9.5914 13.9564 9.8344 C 12.8227 10.0773 10.9061 9.6454 10.9061 9.6454 L 8.9896 10.1313 C 8.9896 10.1313 6.8031 9.9963 6.6951 11.7239 C 6.5061 14.7202 9.0166 16.1509 11.311 16.1239 C 12.7957 16.1239 13.7405 15.935 14.7933 15.746 C 19.4362 14.9092 20.7589 12.1018 20.354 10.6172 C 20.0301 9.1325 18.2485 8.7006 18.2485 8.7006 L 18.1135 8.5387 Z " stroke-width="0.2699386477470398"/>
        <path id="ID0.2727069961838424_1_" fill="none" stroke="#8E5322" stroke-width="0.3779141068458557" stroke-linecap="round" stroke-linejoin="round" d="M 19.4632 9.9963 C 19.4632 9.9963 20.6509 9.8074 21.2448 9.5914 C 21.9466 9.3485 22.4325 8.9166 22.4325 8.9166 "/>
        <path id="ID0.5861211125738919_1_" fill="none" stroke="#8E5322" stroke-width="0.3779141068458557" stroke-linecap="round" stroke-linejoin="round" d="M 19.5982 11.562 C 19.5982 11.562 20.3 11.8589 21.0558 11.9129 C 21.7847 11.9939 22.2706 11.9399 22.2706 11.9399 "/>
        <path id="ID0.4793355236761272_1_" fill="none" stroke="#8E5322" stroke-width="0.3779141068458557" stroke-linecap="round" stroke-linejoin="round" d="M 7.181 3.1129 L 8.5847 4.0847 "/>
        <path id="ID0.48413723474368453_1_" fill="none" stroke="#8E5322" stroke-width="0.3779141068458557" stroke-linecap="round" stroke-linejoin="round" d="M 11.9049 3.0589 C 11.5 3.0319 10.6632 2.9779 10.2043 3.0049 C 8.9626 3.0589 7.8018 3.5178 7.8018 3.5178 L 4.4006 1.3043 L 4.9945 6.2442 C 5.1564 6.0282 2.2411 9.5914 4.0767 12.5607 C 5.9393 15.5571 9.8804 16.8798 14.7933 15.908 C 19.7061 14.9362 20.8669 12.1018 20.5429 10.6172 C 20.219 9.1325 18.3564 8.5656 18.3564 8.5656 C 18.3564 8.5656 18.3294 7.4049 17.4926 5.9742 C 16.9798 5.1104 15.3061 3.8687 15.3061 3.8687 L 14.5503 0.8454 L 12.6067 2.735 L 11.9049 3.0589 Z "/>
        <path id="ID0.9024141579866409_1_" fill="none" stroke="#8E5322" stroke-width="0.3779141068458557" stroke-linecap="round" stroke-linejoin="round" d="M 0.9184 11.427 C 0.9184 11.427 1.9982 11.535 2.484 11.508 C 2.9699 11.481 3.9147 11.346 3.9147 11.346 "/>
        <path id="ID0.16030752705410123_1_" fill="none" stroke="#8E5322" stroke-width="0.3779141068458557" stroke-linecap="round" stroke-linejoin="round" d="M 3.9687 10.3202 C 3.9687 10.3202 3.3479 9.8613 2.3761 9.4294 C 1.2963 8.9436 0.7025 8.8356 0.7025 8.8356 "/>
      </g>
      <g id="Layer_5_1_">
        <path id="ID0.40023312577977777_1_" fill="#FFFFFF" stroke="#8E5322" stroke-width="0.3779141068458557" stroke-linecap="round" stroke-linejoin="round" d="M 16.8988 6.0012 C 17.6546 7.162 17.6816 8.5117 16.9528 8.9706 C 16.2239 9.4564 15.0092 8.8896 14.2534 7.7018 C 13.4975 6.5411 13.4706 5.1914 14.1994 4.7325 C 14.9282 4.2736 16.1429 4.8405 16.8988 6.0012 Z "/>
        <path id="ID0.43813491938635707_1_" fill="#414142" d="M 16.8718 6.973 C 16.9528 7.2429 16.8178 7.5129 16.5479 7.5939 C 16.3049 7.6748 16.035 7.5129 15.954 7.216 C 15.873 6.946 16.008 6.6761 16.2779 6.5951 C 16.5479 6.5411 16.7908 6.7031 16.8718 6.973 " stroke-width="0.2699386477470398"/>
      </g>
      <g id="Layer_7_1_">
        <path id="ID0.4253597157076001_1_" fill="#FFFFFF" stroke="#8E5322" stroke-width="0.3779141068458557" stroke-linecap="round" stroke-linejoin="round" d="M 10.6362 6.838 C 11.392 7.9988 11.311 9.4025 10.4472 9.9693 C 9.5834 10.5362 8.2607 10.0503 7.5049 8.8626 C 6.7491 7.7018 6.8301 6.2982 7.6939 5.7313 C 8.5577 5.1914 9.8804 5.6773 10.6362 6.838 Z "/>
        <path id="ID0.814307457767427_1_" fill="#414142" d="M 10.5552 7.8908 C 10.5552 8.1607 10.3393 8.4037 10.0963 8.4037 C 9.8264 8.4037 9.6374 8.1877 9.6374 7.8908 C 9.6374 7.6209 9.8534 7.3779 10.0963 7.3779 C 10.3393 7.3779 10.5552 7.5939 10.5552 7.8908 " stroke-width="0.2699386477470398"/>
      </g>
      <path id="ID0.5240494590252638_1_" fill="#5F4B43" stroke="#8E5322" stroke-width="0.3779141068458557" stroke-linecap="round" stroke-linejoin="round" d="M 13.6055 9.5104 C 14.0644 9.4564 14.6853 9.1055 14.7663 9.6184 C 14.7663 9.8344 14.3344 10.7252 13.8485 10.7521 C 13.3086 10.7791 12.3638 10.1043 12.3908 9.6994 C 12.4178 9.2945 13.2006 9.5644 13.6055 9.5104 Z "/>
      <path id="ID0.046259244438260794_1_" fill="#FFFFFF" stroke="#8E5322" stroke-width="0.3779141068458557" stroke-linecap="round" stroke-linejoin="round" d="M 11.1491 13.6675 C 11.1491 13.6675 11.8239 14.2883 13.2816 13.9914 "/>
      <path id="ID0.1790580078959465_1_" fill="#FAA51F" stroke="#8E5322" stroke-width="0.3779141068458557" stroke-linecap="round" stroke-linejoin="round" d="M 8.7196 18.2564 C 10.2313 17.7706 11.0411 18.6074 11.0141 19.0663 C 10.9601 20.146 9.7184 20.6319 7.4239 20.119 "/>
    </g>
    <path id="ID0.7947451807558537_1_" fill="#FAA51F" stroke="#8E5322" stroke-width="0.3779141068458557" stroke-linecap="round" stroke-linejoin="round" d="M 15.711 18.3374 C 14.8472 17.9595 14.4423 18.5804 14.1994 19.1742 C 13.8485 20.011 14.9012 20.9828 16.3049 19.8221 "/>
  </g>
</svg>