<svg version="1.1" xmlns="http://www.w3.org/2000/svg" xmlns:xlink="http://www.w3.org/1999/xlink" width="102.72126" height="109.10643" viewBox="0,0,102.72126,109.10643"><defs><linearGradient x1="184.20047" y1="178.80951" x2="184.20047" y2="299.08596" gradientUnits="userSpaceOnUse" id="color-1"><stop offset="0" stop-color="#000000"/><stop offset="1" stop-color="#00ff14"/></linearGradient><linearGradient x1="191.39401" y1="204.63184" x2="141.12284" y2="249.06008" gradientUnits="userSpaceOnUse" id="color-2"><stop offset="0" stop-color="#ffffff"/><stop offset="1" stop-color="#ffffff" stop-opacity="0"/></linearGradient><linearGradient x1="214.62275" y1="228.2414" x2="186.59828" y2="282.37221" gradientUnits="userSpaceOnUse" id="color-3"><stop offset="0" stop-color="#ffffff"/><stop offset="1" stop-color="#ffffff" stop-opacity="0"/></linearGradient></defs><g transform="translate(-132.96351,-189.97951)"><g data-paper-data="{&quot;isPaintingLayer&quot;:true}" fill-rule="nonzero" stroke="none" stroke-width="0" stroke-linecap="butt" stroke-linejoin="miter" stroke-miterlimit="10" stroke-dasharray="" stroke-dashoffset="0" style="mix-blend-mode: normal"><g><path d="M162.08852,227.939c-0.19147,0.03932 -0.40259,0.061 -0.6354,0.061c-1.15755,0 -1.77913,-0.53596 -2.1129,-1.11157c-0.08086,-1.59262 -0.20765,-3.17597 -0.38835,-4.74936c-0.01807,-0.92585 -0.14942,-1.74885 -0.3395,-2.52945c-0.0882,-0.57188 -0.18419,-1.14237 -0.28837,-1.71145c-0.23124,-1.26317 -0.79059,-2.44276 -1.27309,-3.64152c-0.02298,-0.11708 -0.04485,-0.23577 -0.06551,-0.3562c-0.26346,-1.53609 -0.47326,-3.08606 -0.749,-4.62698c0.0813,-1.58654 0.26214,-3.18225 -0.21236,-4.67132c-0.76542,-2.40205 -2.29782,-4.86804 -4.05235,-7.13906c0.04663,-0.52528 0.10027,-1.0534 0.01371,-1.56265c-0.26901,-1.58252 -0.72071,-3.18161 -1.13619,-4.78165c4.89478,-0.40915 9.81175,-0.57554 14.66813,-1.13928c1.58166,3.10111 5.55429,7.24701 7.86472,9.59154c0.68049,0.69054 4.25247,3.52001 4.56456,4.18624c4.50616,9.61961 13.38658,17.35921 23.34423,21.22952l3,1c0,0 1.5666,0.5222 3.63877,0.50558c0.26891,0.25781 0.5365,0.51581 0.80256,0.77409c0.81808,1.88175 1.72184,3.69474 2.7378,5.62704c0.7912,1.50483 0.83938,3.46878 2.03609,4.67642c2.28749,2.30838 5.10796,4.1189 8.04923,5.50098c1.29921,0.61049 2.87849,0.07359 4.29602,0.29995c2.08181,0.33244 3.92628,1.62038 6,2c0.2453,0.04491 0.4937,0.08465 0.74465,0.12029c2.10106,0.75195 3.8509,1.81103 2.16686,5.96553c-0.76894,1.89696 -3.41516,2.26261 -5.19166,3.27936c-2.64147,1.51179 -4.4993,2.34094 -7.32746,3.13564c-0.66145,0.18587 -1.56169,-0.11329 -2.0228,0.39606c-0.58747,0.64893 -0.18196,1.80132 -0.64114,2.54656c-1.26766,2.05737 -2.60571,2.63355 -4.23287,3.68568h-0.89376c-4.74824,0 -8.72355,3.30934 -9.74525,7.74737c-0.91003,0.46169 -1.87984,0.82417 -2.79295,1.28073c-0.55772,0.57275 -3.62561,3.75034 -4,4c-7.45464,4.9711 -17.36723,5.783 -25.50507,9.28159c-2.20947,0.94989 -4.56813,1.59976 -6.64238,2.81693c-2.32763,1.36585 -3.64663,4.58104 -6,6c-2.16213,1.30365 -7.39392,3.00391 -9.91387,3.34109c-4.09972,0.54857 -7.34781,-0.97987 -11.35716,-1.15802c-0.95426,-0.8629 -5.16816,-4.4355 -5.47641,-5.73532c-0.31462,-1.32667 0.77847,-2.62425 0.9654,-3.97484c0.31116,-2.24806 0.23174,-4.65584 1.22193,-6.69792c0.99172,-2.04525 3.16792,-3.4588 3.85306,-5.62608c0.30142,-0.95349 -0.32792,-2.0553 0,-3c0.69575,-2.00436 3.16611,-4.41697 4.14694,-6.37392c1.37267,-2.73874 0.40937,-3.30555 2.11916,-6.21595c0.47757,-0.81291 1.51364,-1.19232 2,-2c0.50212,-0.83385 0.44436,-1.91404 0.88084,-2.78405c1.54953,-3.08859 4.43977,-5.39563 6.11916,-8.21595c0.498,-0.83632 0.43914,-1.91668 0.88084,-2.78405c1.45684,-2.8608 3.50851,-4.87883 5.93609,-6.85833c-0.30061,-3.22771 0.26692,-5.35749 0.84198,-8.44375c0.07652,-0.41067 0.10695,-0.79433 0.10311,-1.16054z" fill="url(#color-1)"/><path d="M201.13274,270.42642c-1.83036,1.61762 -3.5715,0.93608 -5.18851,1.39323c-2.105,0.59511 -4.04322,2.03929 -6.14006,1.94208c-3.84892,-0.17843 -8.04541,-0.45709 -15.16705,-4.45091c-8.22663,-4.61349 -13.27417,-15.6789 -20.3337,-24.97853c0.79617,-1.00182 1.59234,-2.00363 2.38851,-3.00545c0.18936,-1.69825 0.4124,-3.51906 0.60035,-5.38786l2.16086,-4.43897c0,-4.60993 -0.31404,-9.14932 -1.12913,-13.60182c-0.37962,-2.07372 -1.64353,-3.92217 -2,-6c-0.41157,-2.39901 0.43906,-4.97686 -0.29995,-7.29602c-0.96599,-3.03148 -3.15358,-6.16478 -5.46755,-8.87951c-0.72187,-1.41642 -1.714,-2.82625 -3.11422,-4.27122c0.07754,-0.00891 0.1551,-0.0177 0.23269,-0.02635c5.93778,-0.66201 11.9349,-0.7598 17.84238,-1.44555c1.58166,3.10111 5.55429,7.24701 7.86472,9.59154c0.68049,0.69054 4.25247,3.52001 4.56456,4.18624c4.50616,9.61961 13.38658,17.35921 23.34423,21.22952l3,1c0,0 0.08081,0.02694 0.23,0.06838c8.0897,18.37164 7.81731,35.72527 -2.18187,44.56225z" data-paper-data="{&quot;index&quot;:null}" fill="url(#color-2)"/><path d="M186.59828,282.37221c-14.90013,-7.71406 -20.70558,-26.08513 -12.96684,-41.03294c3.57777,-6.91065 8.339,-15.8904 15.06394,-18.47386c6.37196,-2.44785 13.62452,1.49042 20.42575,5.27685c0.71364,1.57415 1.49127,3.1202 2.34884,4.75126c0.7912,1.50483 0.83938,3.46878 2.03609,4.67642c2.28749,2.30838 5.10796,4.1189 8.04923,5.50098c1.29921,0.61049 2.87849,0.07359 4.29602,0.29995c2.08181,0.33244 3.92628,1.62038 6,2c0.91593,0.16767 1.87496,0.26344 2.8496,0.34166c0.21043,0.45474 0.38772,0.9197 0.52863,1.39533c0.76528,2.58322 0.50335,5.20266 -0.32198,7.83294c-1.26977,1.36226 -2.66759,3.02905 -2.71174,3.05269c-1.57434,0.8429 -3.55049,0.70206 -5.1362,1.52336c-2.1836,1.13096 -3.83413,3.08827 -5.8638,4.47664c-0.66832,0.45716 -1.54645,0.49872 -2.34451,0.63563c-0.4613,0.07914 -1.20769,-0.55665 -1.39818,-0.12913h-3c-5.52285,0 -10,4.47715 -10,10c0,0.33154 0.01613,0.65932 0.04766,0.98258c-2.38264,1.66114 -5.21697,4.86618 -3.80029,10.28695c-4.75685,0.03056 -9.58797,-1.06022 -14.10222,-3.39732z" fill="url(#color-3)"/></g></g></g></svg>