<svg version="1.1" xmlns="http://www.w3.org/2000/svg" xmlns:xlink="http://www.w3.org/1999/xlink" width="41.5106" height="55.30194" viewBox="0,0,41.5106,55.30194"><g transform="translate(-223.83693,-175.84458)"><g data-paper-data="{&quot;isPaintingLayer&quot;:true}" fill="#ffffff" fill-rule="nonzero" stroke="none" stroke-width="0" stroke-linecap="butt" stroke-linejoin="miter" stroke-miterlimit="10" stroke-dasharray="" stroke-dashoffset="0" style="mix-blend-mode: normal"><g><path d="M241.28294,209.56648c9.22084,11.75148 21.25035,16.81126 16.72272,20.36388c-4.52763,3.55262 -17.96301,-0.70168 -27.18385,-12.45316c-9.22085,-11.75148 -8.10247,-30.40194 -3.57484,-33.95456c4.52764,-3.55261 4.81512,14.29237 14.03597,26.04385z"/><path d="M235.85356,195.81896l-8.81771,-11.2377c0,0 5.85623,-8.78094 9.8839,-8.73651c1.85259,0.02043 8.39363,6.1007 7.60156,11.35529c-0.70691,4.68961 -8.66775,8.61892 -8.66775,8.61892z"/><path d="M230.90848,201.05072c-2.49941,0.05453 -2.55393,-2.44488 -2.55393,-2.44488l0.31053,-2.47806c0.21315,-0.36801 0.42629,-0.73604 0.63944,-1.10405c-0.6246,-0.73143 -1.05892,-1.74954 -1.35802,-2.84864c-1.94401,-0.54814 -1.68628,-2.68398 -1.68628,-2.68398l0.31738,-2.63022c0,0 0.1447,-1.19926 1.06658,-1.82995c0.32369,-0.65603 0.98802,-1.35619 2.34521,-1.27285c2.4953,0.15322 2.34207,2.64853 2.34207,2.64853c-0.01792,0.22274 -0.02533,0.43551 -0.02537,0.63927c0.48996,0.10507 0.95101,0.35723 1.31096,0.74776l1.75681,1.86336l-0.16359,0.15423l0.99447,1.2674c0,0 1.54326,1.9668 -0.42355,3.51007c-0.23519,0.18455 -0.46432,0.3189 -0.68549,0.41243c-0.70132,1.21086 -1.40264,2.42173 -2.10395,3.63259l0.36161,-0.13696c0,0 0.05453,2.4994 -2.44488,2.55393z"/><path d="M258.37613,227.19705l-10.70189,-9.46082c0,0 4.17444,-9.69404 8.14393,-10.3776c1.82583,-0.31441 9.35724,4.48483 9.52697,9.79608c0.15149,4.74016 -6.96902,10.04234 -6.96902,10.04234z"/><path d="M258.54393,227.27617c0,1.38071 -1.11929,2.5 -2.5,2.5c-1.35769,0 -2.46259,-1.08227 -2.49907,-2.43114c-1.04238,-0.30123 -1.80463,-1.26261 -1.80463,-2.40202c0,-0.09339 0.00512,-0.18557 0.01509,-0.2763c-1.40543,-0.99208 -2.59981,-2.30818 -3.57605,-3.72279c0,0 -1.38675,-2.08012 0.69338,-3.46687c2.08012,-1.38675 3.46687,0.69337 3.46687,0.69337c0.73527,1.1618 1.77783,2.13805 2.90839,2.93188l1.43956,-1.43956c0.3018,-0.30181 0.68041,-0.5268 1.10399,-0.64316c0.52076,-0.47914 1.34311,-0.85292 2.52892,-0.3786c2.32119,0.92847 1.39271,3.24967 1.39271,3.24967l-0.81614,1.77721c-0.68396,0.82854 -1.04971,2.11638 -2.01208,2.54309c-0.06231,0.31178 -0.18261,0.60262 -0.34917,0.86081c0.00545,0.06742 0.00824,0.13559 0.00824,0.20441z"/></g></g></g></svg>