<svg version="1.1" xmlns="http://www.w3.org/2000/svg" xmlns:xlink="http://www.w3.org/1999/xlink" width="213.209" height="236.16408" viewBox="0,0,213.209,236.16408"><defs><linearGradient x1="794.13043" y1="-215.50443" x2="794.13043" y2="19.74827" gradientUnits="userSpaceOnUse" id="color-1"><stop offset="0" stop-color="#005921"/><stop offset="1" stop-color="#00ff14"/></linearGradient><linearGradient x1="794.13043" y1="-215.50443" x2="794.13043" y2="19.74827" gradientUnits="userSpaceOnUse" id="color-2"><stop offset="0" stop-color="#005921"/><stop offset="1" stop-color="#00ff14"/></linearGradient><linearGradient x1="134.91026" y1="161.92304" x2="345.08975" y2="198.07698" gradientUnits="userSpaceOnUse" id="color-3"><stop offset="0" stop-color="#8a5500"/><stop offset="1" stop-color="#ff9d00"/></linearGradient><linearGradient x1="212.10264" y1="253.65151" x2="272.03968" y2="68.0253" gradientUnits="userSpaceOnUse" id="color-4"><stop offset="0" stop-color="#ffffff" stop-opacity="0"/><stop offset="1" stop-color="#ffffff"/></linearGradient></defs><g transform="translate(-133.39551,-61.91797)"><g data-paper-data="{&quot;isPaintingLayer&quot;:true}" fill-rule="nonzero" stroke-linejoin="miter" stroke-miterlimit="10" stroke-dasharray="" stroke-dashoffset="0" style="mix-blend-mode: normal"><path d="" fill="url(#color-1)" stroke="#009c42" stroke-width="12.5" stroke-linecap="round"/><path d="" fill="url(#color-2)" stroke="#009c42" stroke-width="12.5" stroke-linecap="round"/><g stroke="none" stroke-linecap="butt"><g><path d="M346.19048,178.68874c0.80524,65.2108 -46.08508,118.66168 -104.73245,119.38587c-58.64738,0.72419 -106.84325,-51.55254 -107.64849,-116.76334c-0.80524,-65.2108 46.08508,-118.66168 104.73245,-119.38587c58.64738,-0.72419 106.84325,51.55254 107.64849,116.76334z" fill="url(#color-3)" stroke-width="0"/><path d="M260.25624,108.43422c-0.09377,-7.59334 5.98583,-13.82497 13.57918,-13.91872c7.59334,-0.09377 13.82497,5.98583 13.91872,13.57918c0.09377,7.59334 -5.98583,13.82497 -13.57918,13.91872c-7.59334,0.09377 -13.82497,-5.98583 -13.91872,-13.57918z" fill="#000000" stroke-width="0.5"/><path d="M266.97699,155.89501c-0.09377,-7.59334 5.98583,-13.82496 13.57917,-13.91872c7.59334,-0.09377 13.82496,5.98583 13.91872,13.57917c0.09377,7.59334 -5.98583,13.82497 -13.57918,13.91872c-7.59334,0.09377 -13.82496,-5.98584 -13.91872,-13.57918z" fill="#000000" stroke-width="0.5"/><path d="M218.3613,131.18977c-0.09377,-7.59334 5.98583,-13.82496 13.57917,-13.91872c7.59334,-0.09377 13.82497,5.98583 13.91872,13.57918c0.09377,7.59334 -5.98583,13.82496 -13.57917,13.91872c-7.59334,0.09377 -13.82497,-5.98583 -13.91872,-13.57918z" fill="#000000" stroke-width="0.5"/></g><path d="M145.14163,130.08298c16.55115,-51.25926 75.8023,-78.55605 126.89806,-62.05768c51.09576,16.49837 87.04215,82.01672 70.49099,133.27599c-2.32595,7.20351 -5.85676,25.20383 -13.514,39.79482c-3.69937,7.04922 -22.25735,31.8562 -42.27101,45.2975c-9.26583,6.22299 -25.77705,5.84978 -28.80214,7.63108c-23.104,13.60462 -28.10768,-27.17081 -55.58091,-36.04168c-26.15288,-8.44453 -54.06884,-30.08982 -65.24443,-53.02503c-6.35519,-13.0425 -3.4715,-59.38545 0.49564,-64.60152c2.68159,-3.5258 7.52781,-10.27347 7.52781,-10.27347z" data-paper-data="{&quot;index&quot;:null}" fill="url(#color-4)" stroke-width="0"/></g></g></g></svg>