<svg version="1.1" width="425" height="279" viewBox="-1 -1 425 279" xmlns="http://www.w3.org/2000/svg" xmlns:xlink="http://www.w3.org/1999/xlink">
  <!-- Exported by Scratch - http://scratch.mit.edu/ -->
  <g id="ID0.5575198056176305" transform="matrix(1, 0, 0, 1, 20, 38)">
    <g id="ID0.20859410520642996">
      <path id="ID0.5729599804617465" fill="#00ffff" stroke="none" stroke-width="0.5" d="M 28.190 67.017 C 34.331 63.014 44.318 66.778 50.746 68.597 C 58.202 70.708 65.993 70.248 73.366 72.794 C 74.904 73.325 76.599 74.787 78.155 74.950 C 82.295 75.384 85.719 74.942 89.649 76.499 C 98.729 80.098 106.107 78.110 112.580 94.868 C 116.461 104.916 116.952 120.236 113.743 131.142 C 109.747 144.720 106.946 141.998 103.541 150.666 C 99.285 161.498 97.619 172.213 94.721 184.007 C 91.833 195.757 89.780 202.643 86.356 212.365 C 85.097 215.943 84.103 219.799 82.824 223.410 C 82.329 224.809 80.263 226.998 81.125 227.293 C 91.705 230.916 103.332 228.262 113.526 228.262 C 115.260 228.262 117.081 229.739 118.742 229.845 C 123.442 230.145 128.284 228.192 132.846 230.406 C 142.142 234.919 148.457 245.041 148.457 265.769 C 148.457 286.497 142.143 296.619 132.846 301.132 C 125.466 304.715 118.778 300.521 111.778 300.335 C 102.007 300.075 88.905 299.122 77.994 298.976 C 64.873 298.801 46.684 304.018 35.699 285.737 C 26.646 270.669 30.120 247.426 36.712 232.312 C 39.038 226.979 38.869 215.962 40.815 209.858 C 42.253 205.348 44.468 199.842 46.196 195.529 C 47.332 192.693 49.636 191.278 50.525 188.180 C 52.736 180.483 55.961 173.520 58.021 165.867 C 60.003 158.502 61.102 151.185 62.689 143.662 C 62.983 142.270 61.152 143.271 60.389 143.009 C 59.530 142.714 58.741 142.587 57.847 142.445 C 55.002 141.994 52.068 141.632 49.239 140.875 C 41.455 138.791 26.732 140.875 21.321 127.366 C 20.414 125.687 19.595 123.832 18.878 121.827 C 16.802 116.021 15.585 108.968 15.585 101.363 C 15.585 91.773 17.521 83.060 20.675 76.617 C 22.188 72.594 24.391 69.494 28.190 67.017 Z " transform="matrix(1, 0, 0, 1, -15.55, -65.2)"/>
      <path id="ID0.12593805557116866" fill="#00ffff" stroke="none" stroke-width="0.5" d="M 185.016 276.382 L 182.883 276.108 C 182.410 276.170 181.932 276.201 181.450 276.201 C 180.008 276.201 178.604 275.920 177.255 275.386 L 176.415 275.278 L 175.940 274.778 C 172.912 273.170 170.205 270.273 168.025 266.450 L 166.588 263.932 L 166.104 262.516 C 165.618 261.350 165.175 260.126 164.778 258.852 L 163.032 255.280 L 160.053 244.831 L 159.805 244.108 L 159.190 242.489 L 159.099 242.044 L 158.555 240.455 L 156.842 236.951 L 154.758 233.818 L 154.063 230.894 L 153.981 230.678 L 153.697 230.096 L 153.507 229.432 L 149.854 219.824 L 149.797 219.542 L 149.039 218.003 L 146.962 206.559 L 146.888 205.261 L 146.563 203.665 L 146.692 201.861 L 146.514 200.617 L 146.300 198.055 L 146.244 197.744 L 146.178 196.591 L 146.083 195.444 L 146.094 195.119 L 145.947 192.543 L 145.947 177.592 L 145.829 176.775 L 145.947 175.842 L 145.947 174.914 L 146.244 169.712 L 146.872 166.250 L 146.962 164.676 L 148.554 155.902 L 148.670 154.989 L 148.807 154.507 L 149.039 153.231 L 149.353 152.594 L 150.824 147.434 L 152.548 143.908 L 152.979 142.397 L 153.529 141.272 L 154.381 138.781 L 155.075 137.565 L 155.133 137.360 L 155.683 136.235 L 156.535 133.745 L 157.612 131.856 L 158.689 128.708 L 161.562 123.671 L 164.179 120.918 L 166.496 117.435 L 167.932 116.176 L 168.307 116.030 L 170.419 114.370 L 171.293 113.859 L 171.523 113.658 L 171.867 113.523 L 172.221 113.317 L 172.603 112.903 L 175.409 111.137 L 177.574 110.188 L 179.036 109.333 L 181.945 108.181 L 182.011 108.180 L 182.074 108.145 L 185.040 107.624 L 187.012 107.624 L 187.617 107.359 L 189.077 106.984 L 189.255 106.885 L 189.913 106.770 L 190.567 106.602 L 190.752 106.623 L 192.221 106.365 L 199.311 106.365 L 199.777 106.158 L 200.310 106.365 L 200.839 106.365 L 203.805 106.885 L 208.809 109.677 L 209.330 109.880 L 209.604 110.121 L 210.332 110.527 L 210.696 111.078 L 213.638 113.658 L 214.549 115.027 L 215.679 115.734 L 217.833 118.253 L 220.341 123.089 L 220.795 123.814 L 221.424 124.548 L 222.222 126.087 L 222.989 127.310 L 224.317 128.708 L 228.390 135.849 L 233.055 141.985 L 235.082 146.359 L 235.727 147.387 L 236.142 147.933 L 236.586 148.257 L 236.941 148.983 L 237.364 149.540 L 240.115 155.477 L 242.954 161.285 L 243.061 161.660 L 243.290 162.328 L 243.534 162.856 L 243.571 163.151 L 244.558 166.036 L 246.544 170.099 L 247.263 172.617 L 247.346 173.274 L 248.293 176.978 L 249.011 180.755 L 249.667 185.855 L 249.668 185.971 L 249.688 186.081 L 249.884 189.519 L 250.386 193.410 L 250.386 193.526 L 250.407 193.636 L 250.703 198.838 L 250.703 208.752 L 250.822 209.569 L 250.703 210.502 L 250.703 211.430 L 250.407 216.632 L 248.814 225.406 L 248.699 226.319 L 248.561 226.801 L 248.330 228.076 L 248.016 228.714 L 247.981 228.837 L 247.200 230.434 L 246.796 232.416 L 245.360 236.193 L 243.961 238.424 L 242.988 241.267 L 238.679 248.822 L 237.058 250.528 L 235.786 252.982 L 235.196 253.671 L 233.653 256.377 L 231.859 258.264 L 231.614 258.985 L 230.997 259.774 L 230.780 260.154 L 230.323 260.636 L 226.079 266.059 L 225.894 266.205 L 225.754 266.450 L 224.132 268.156 L 222.860 270.610 L 218.551 275.647 L 217.421 276.354 L 216.511 277.723 L 216.440 277.785 L 216.077 278.336 L 215.349 278.742 L 215.074 278.982 L 214.554 279.185 L 209.550 281.977 L 206.583 282.497 L 206.054 282.497 L 205.522 282.705 L 205.056 282.497 L 199.493 282.497 L 199.028 282.705 L 198.495 282.497 L 197.966 282.497 L 195.000 281.977 L 189.996 279.185 L 189.475 278.982 L 189.200 278.742 L 188.473 278.336 L 188.109 277.785 L 186.603 276.464 L 185.933 275.458 Z M 209.674 204.258 L 211.296 202.552 L 212.337 200.544 L 212.330 200.489 L 212.329 200.373 L 212.309 200.263 L 212.289 199.909 L 212.131 199.586 L 211.708 199.030 L 209.681 194.655 L 209.036 193.627 L 204.527 187.697 L 203.665 185.837 L 202.493 184.604 L 198.796 178.121 L 198.206 177.432 L 195.882 172.950 L 194.559 172.950 L 193.954 173.215 L 192.493 173.590 L 192.316 173.689 L 191.658 173.804 L 191.004 173.972 L 190.818 173.951 L 189.349 174.209 L 187.912 174.209 L 187.491 174.474 L 186.102 175.083 L 185.991 175.170 L 185.674 175.818 L 184.822 178.309 L 184.128 179.525 L 183.920 180.255 L 183.920 188.444 L 184.071 189.505 L 184.101 189.865 L 185.758 194.222 L 185.820 194.526 L 188.035 197.856 L 188.752 200.874 L 189.097 201.578 L 189.769 203.935 L 190.785 205.555 L 192.221 209.332 L 192.624 211.313 L 193.405 212.911 L 193.546 213.404 L 194.032 213.187 L 200.828 215.835 L 200.941 215.501 L 201.558 214.713 L 201.775 214.332 L 202.233 213.850 L 206.476 208.427 L 207.963 207.258 Z " transform="matrix(1, 0, 0, 1, -15.55, -65.2)"/>
      <path id="ID0.9245184850879014" fill="#00ffff" stroke="none" stroke-width="0.5" d="M 335.724 342.430 C 336.059 342.098 336.389 341.745 336.713 341.371 C 336.688 341.719 336.663 342.068 336.638 342.416 C 336.326 342.439 336.013 342.451 335.700 342.453 C 335.708 342.446 335.716 342.438 335.724 342.430 Z " transform="matrix(1, 0, 0, 1, -15.55, -65.2)"/>
      <path id="ID0.929955942556262" fill="#00eaea" stroke="none" stroke-width="0.5" d="M 289.644 221.097 C 289.798 223.474 289.931 225.853 289.945 228.225 C 289.948 228.738 289.771 232.029 289.831 233.832 C 292.298 234.798 293.819 238.955 296.056 240.717 C 299.288 243.264 302.934 243.223 306.346 243.223 C 306.346 243.223 316.822 243.223 316.822 263.669 C 316.822 284.116 306.346 284.116 306.346 284.116 C 300.101 284.116 293.421 283.063 287.579 278.115 C 285.978 276.758 284.856 273.639 283.221 272.444 C 280.308 270.314 277.232 268.110 274.967 263.950 C 272.874 260.107 269.935 249.253 269.273 244.265 C 268.414 237.796 269.537 231.408 269.071 225.052 C 268.265 214.053 268.001 204.529 269.305 193.492 C 269.595 191.234 270.841 181.379 271.096 180.015 C 271.531 177.685 272.647 175.746 272.703 173.269 C 272.826 167.895 273.070 162.393 274.002 157.331 C 275.420 149.625 278.367 143.559 280.058 136.304 C 281.024 132.157 280.665 126.930 281.975 123.159 C 283.598 118.488 285.662 114.196 288.109 111.187 C 290.105 108.733 292.573 108.077 294.896 107.269 C 296.508 106.708 298.171 107.148 299.808 107.116 C 305.180 107.010 310.554 106.205 315.669 110.281 C 317.737 111.930 321.632 118.039 323.379 120.622 C 328.275 130.274 331.885 141.243 332.073 155.432 C 332.201 165.053 330.405 174.570 329.818 183.936 C 329.328 191.777 328.345 200.137 325.822 206.312 C 323.474 212.058 317.555 216.977 314.138 218.529 C 311.774 219.603 307.733 217.278 305.421 218.529 C 304.165 219.209 303.069 220.883 301.789 221.365 C 300.188 221.967 298.531 221.611 296.902 221.734 L 298.036 222.102 C 298.036 222.102 293.582 225.000 289.644 221.097 Z M 293.040 182.575 L 296.902 180.840 C 298.447 181.456 299.911 178.956 301.459 178.374 C 303.060 177.771 304.716 178.082 306.346 178.005 C 307.249 177.962 308.157 178.348 309.058 178.448 C 309.255 175.862 309.659 173.346 309.984 170.808 C 310.839 164.138 311.796 155.546 309.651 151.516 C 308.833 150.338 308.256 147.644 307.245 147.856 C 304.887 148.351 302.415 148.098 300.043 148.017 C 299.820 149.662 299.556 151.283 299.219 152.847 C 297.806 159.404 295.175 165.053 293.652 171.519 C 293.230 173.312 293.534 177.821 293.498 178.265 C 293.379 179.727 293.223 181.161 293.040 182.575 Z " transform="matrix(1, 0, 0, 1, -15.55, -65.2)"/>
      <path id="ID0.9517310978844762" fill="#00f8ff" stroke="none" stroke-width="0.5" d="" transform="matrix(1, 0, 0, 1, -15.55, -65.2)"/>
      <path id="ID0.7797687076963484" fill="#00eaea" stroke="none" stroke-width="0.5" d="M 403.151 215.650 C 403.074 215.669 402.996 215.683 402.917 215.693 C 402.958 215.845 402.996 215.998 403.033 216.153 C 403.070 215.984 403.109 215.816 403.151 215.650 Z M 356.524 241.602 C 360.823 241.734 364.372 240.427 368.687 239.605 C 370.922 239.179 373.770 241.948 375.442 239.647 C 376.273 238.503 376.220 236.335 377.001 235.111 C 378.462 232.819 380.654 231.578 381.784 228.885 C 383.356 218.536 377.964 203.470 383.312 194.682 C 387.632 187.585 399.281 191.976 404.571 193.400 C 407.227 194.115 410.514 192.375 412.594 194.994 C 415.702 198.908 417.510 205.097 418.569 211.028 C 419.171 214.399 417.563 217.858 417.296 221.328 C 417.050 224.504 417.607 227.837 417.035 230.913 C 416.540 233.570 414.958 235.472 414.196 237.978 C 412.384 243.938 414.897 244.431 413.248 252.090 C 411.423 260.564 408.961 261.587 405.582 267.509 C 404.160 270.002 403.385 273.467 401.604 275.346 C 399.790 277.259 397.308 277.006 395.291 278.362 C 391.050 281.214 386.596 286.069 382.667 289.914 C 367.927 295.706 349.333 296.353 337.145 280.626 C 330.666 272.266 327.530 264.548 328.192 251.310 C 328.324 248.672 329.239 246.235 329.454 243.610 C 330.076 236.024 327.498 226.417 333.495 220.723 C 345.970 208.880 352.239 228.405 356.524 241.602 Z " transform="matrix(1, 0, 0, 1, -15.55, -65.2)"/>
      <path id="ID0.19540999177843332" fill="#00ffff" stroke="none" stroke-width="0.5" d="M 381.177 176.823 C 378.953 175.025 376.959 172.519 375.324 169.033 C 369.989 157.652 372.157 140.059 373.579 127.614 C 374.071 123.303 372.763 117.847 374.684 114.596 C 385.238 96.730 391.711 99.875 400.258 117.877 C 401.758 121.038 400.879 125.637 400.942 129.539 C 400.948 129.901 400.266 130.126 400.459 130.339 C 400.989 130.927 401.869 130.991 402.392 131.518 C 402.362 131.382 402.357 131.261 402.399 131.190 C 402.867 130.390 405.430 126.969 405.914 125.246 C 407.552 119.425 407.604 112.843 408.436 106.638 C 413.305 104.122 417.904 98.974 423.045 99.089 C 429.152 99.225 435.406 111.833 437.196 119.290 C 437.967 122.502 437.244 126.150 437.549 129.539 C 438.120 135.884 439.365 142.307 438.812 148.656 C 437.806 160.195 433.339 170.237 430.693 180.951 C 428.382 190.311 430.310 194.041 423.299 201.581 C 413.557 212.058 398.153 204.357 387.260 204.357 C 387.260 204.357 377.291 204.357 377.291 189.152 C 377.291 182.675 379.100 178.957 381.177 176.823 Z " transform="matrix(1, 0, 0, 1, -15.55, -65.2)"/>
      <path id="ID0.2261264524422586" fill="#00ffff" stroke="none" stroke-width="0.5" d="M 333.755 189.886 C 332.929 189.735 332.371 189.200 331.994 188.545 C 331.653 188.034 331.451 187.450 331.338 186.872 C 329.509 181.950 329.059 173.742 332.446 170.021 C 332.479 169.985 332.511 169.950 332.544 169.915 C 336.620 165.610 341.637 170.393 343.358 175.830 C 344.035 177.971 343.646 181.733 343.509 184.949 C 343.532 186.111 343.540 187.148 343.519 188.107 C 343.528 188.210 343.538 188.312 343.549 188.411 C 344.012 192.501 344.826 196.553 344.851 200.703 C 344.851 200.703 344.851 205.331 341.817 205.331 C 340.470 205.331 339.721 204.419 339.305 203.406 C 339.300 203.406 339.296 203.406 339.292 203.406 C 337.927 203.406 336.773 202.031 336.391 200.140 L 335.151 194.466 L 335.316 194.382 L 335.035 193.744 C 335.213 192.473 336.126 190.914 335.568 189.933 C 335.516 189.842 335.460 189.763 335.398 189.694 C 334.954 189.976 334.411 190.091 333.755 189.886 Z " transform="matrix(1, 0, 0, 1, -15.55, -65.2)"/>
      <path id="ID0.5557228056713939" fill="#00ffff" stroke="none" stroke-width="0.5" d="M 305.960 219.859 C 303.068 215.922 301.961 203.968 306.377 200.415 C 308.406 198.783 311.019 201.124 313.116 202.543 C 316.749 205.001 320.922 214.273 323.765 218.608 C 323.765 218.608 325.910 221.881 323.765 225.153 C 321.620 228.425 319.474 225.153 319.474 225.153 C 319.349 224.963 319.225 224.773 319.100 224.583 C 319.098 224.583 319.097 224.583 319.095 224.583 C 318.735 224.583 318.389 224.487 318.068 224.311 L 314.348 222.420 C 311.653 220.999 308.087 222.755 305.960 219.859 Z " transform="matrix(1, 0, 0, 1, -15.55, -65.2)"/>
      <path id="ID0.31572522409260273" fill="#00ffff" stroke="none" stroke-width="0.5" d="M 327.231 208.149 C 326.344 209.700 325.401 211.027 324.144 211.106 C 316.793 211.573 314.474 185.394 320.263 181.163 C 322.331 179.651 324.958 181.701 327.002 183.291 C 331.829 187.045 331.753 199.705 333.334 206.941 C 333.334 206.941 334.294 211.331 331.415 212.794 C 328.537 214.257 327.577 209.867 327.577 209.867 C 327.453 209.297 327.338 208.723 327.231 208.149 Z " transform="matrix(1, 0, 0, 1, -15.55, -65.2)"/>
      <path id="ID0.9787836661562324" fill="#00e0e0" stroke="none" stroke-width="0.5" d="M 397.738 257.881 C 395.593 254.609 397.738 251.337 397.738 251.337 L 399.000 249.412 C 399.967 248.577 401.310 248.344 401.899 246.908 C 402.195 246.184 400.718 246.827 400.263 246.330 C 399.214 245.184 398.345 243.674 397.537 242.141 C 393.139 233.794 389.827 226.993 383.379 222.169 C 383.379 222.169 380.665 220.100 382.022 215.961 C 383.379 211.822 386.093 213.891 386.093 213.891 C 393.330 219.499 397.284 226.799 402.230 236.274 C 403.501 238.708 408.193 244.008 407.967 246.908 C 407.669 250.721 404.850 252.940 403.291 255.956 L 402.029 257.881 C 402.029 257.881 399.884 261.153 397.738 257.881 Z " transform="matrix(1, 0, 0, 1, -15.55, -65.2)"/>
      <path id="ID0.3195261815562844" fill="#00e0e0" stroke="none" stroke-width="0.5" d="M 380.066 288.684 C 377.920 285.412 380.066 282.140 380.066 282.140 L 380.243 283.080 C 379.294 277.322 379.781 272.725 379.199 266.718 C 378.208 256.489 375.862 246.490 374.218 236.479 C 374.218 236.479 373.482 231.990 376.426 230.868 C 379.369 229.745 380.105 234.235 380.105 234.235 C 381.804 244.618 384.229 254.980 385.223 265.602 C 385.806 271.829 384.974 275.947 386.352 282.023 L 384.357 288.684 C 384.357 288.684 382.211 291.956 380.066 288.684 Z " transform="matrix(1, 0, 0, 1, -15.55, -65.2)"/>
      <path id="ID0.37817308586090803" fill="#00e0e0" stroke="none" stroke-width="0.5" d="M 348.308 269.166 C 350.061 266.734 351.867 264.498 354.019 262.310 C 354.741 261.576 358.682 258.059 359.433 256.026 C 361.662 249.991 362.795 244.988 366.180 239.786 C 366.180 239.786 368.325 236.513 370.471 239.786 C 372.616 243.058 370.471 246.330 370.471 246.330 C 367.278 251.155 366.848 255.406 364.595 260.892 C 361.266 268.996 353.539 274.078 349.011 280.983 L 346.633 274.905 L 344.721 274.439 C 345.088 273.879 345.449 273.331 345.807 272.794 L 345.415 271.791 C 345.415 271.791 346.379 268.849 348.308 269.166 Z " transform="matrix(1, 0, 0, 1, -15.55, -65.2)"/>
      <path id="ID0.4074641140177846" fill="#00e0e0" stroke="none" stroke-width="0.5" d="M 327.837 254.897 C 325.123 252.828 326.480 248.689 326.480 248.689 L 328.773 243.058 C 336.316 235.388 344.947 226.779 354.137 230.967 C 354.137 230.967 357.016 232.430 356.056 236.820 C 355.097 241.210 352.218 239.747 352.218 239.747 C 345.685 235.847 337.481 245.327 332.139 250.758 L 331.907 252.828 C 331.907 252.828 330.550 256.967 327.837 254.897 Z " transform="matrix(1, 0, 0, 1, -15.55, -65.2)"/>
    </g>
  </g>
</svg>