<svg version="1.1" xmlns="http://www.w3.org/2000/svg" xmlns:xlink="http://www.w3.org/1999/xlink" width="47.21829" height="43.86844" viewBox="0,0,47.21829,43.86844"><defs><linearGradient x1="206.51161" y1="289.74093" x2="206.51161" y2="265.31836" gradientUnits="userSpaceOnUse" id="color-1"><stop offset="0" stop-color="#f3f3f3"/><stop offset="1" stop-color="#c8b6a6"/></linearGradient><linearGradient x1="187.9105" y1="258.31847" x2="187.9105" y2="290.52018" gradientUnits="userSpaceOnUse" id="color-2"><stop offset="0" stop-color="#f3f3f3"/><stop offset="1" stop-color="#c8b6a6"/></linearGradient></defs><g transform="translate(-171.7168,-246.65173)"><g data-paper-data="{&quot;isPaintingLayer&quot;:true}" fill-rule="nonzero" stroke-linecap="butt" stroke-linejoin="miter" stroke-miterlimit="10" stroke-dasharray="" stroke-dashoffset="0" style="mix-blend-mode: normal"><g><path d="M194.81967,272.59274c-1.01603,-0.30466 -0.67735,-1.21865 -0.67735,-1.21865l0.5933,-1.43625c0.85096,-0.54363 1.53739,-1.28973 2.43006,-1.77624c0.38622,-0.21049 0.89473,-0.18133 1.28518,-0.38537c1.28883,-0.6735 1.64836,-1.92678 3.25148,-2.41477c0.17225,-0.05244 2.55423,-0.04134 2.88074,-0.04134c0.13078,0 3.11265,-0.01479 3.30914,0.04134c0.54427,0.15549 0.93371,0.59923 1.44538,0.82736c0.43567,0.19424 0.96323,0.20256 1.3777,0.4313c0.51881,0.2863 1.31447,1.2453 1.82953,1.61597c0.42926,0.30892 0.97413,0.48545 1.36349,0.83455c0.36468,0.32696 0.49543,0.8262 0.8568,1.15611c1.04925,0.95791 3.27061,1.34361 4.04253,2.53887c0.1712,0.26508 0.12133,2.46816 0.11871,2.88454c-0.39644,1.42652 -0.18329,2.49085 -0.4342,3.89032c-0.0719,0.40104 -0.34985,0.75609 -0.42839,1.15611c-0.08842,0.4503 0.13074,0.94948 -0.0677,1.37047c-0.48935,1.03814 -2.39889,2.24549 -3.0772,3.22078c-1.10699,1.59165 -0.84121,3.1638 -3.17107,3.88393c-0.58404,0.18052 -1.24138,-0.05177 -1.85239,0.0289c-0.44679,0.05899 -0.83938,0.32069 -1.2852,0.38537c-1.49746,0.21726 -3.51193,0.19375 -5.01478,0.00522c-0.95693,-0.12003 -1.90176,-0.38419 -2.86793,-0.37815c0,0 -1.07099,0 -1.07099,-0.96342c0,-0.96343 1.07099,-0.96343 1.07099,-0.96343c1.05329,0.00536 2.08747,0.25518 3.12964,0.39259c1.31872,0.17388 3.09966,0.20893 4.40995,0.00523c0.44497,-0.06918 0.83789,-0.32961 1.2852,-0.38537c0.52007,-0.06482 1.05935,0.11881 1.57479,0.0289c1.03435,-0.18042 1.572,-2.47986 1.96969,-3.05276c0.6974,-1.00466 1.3698,-1.71461 2.29571,-2.48697c0.19699,-0.16433 0.5341,-0.23064 0.62463,-0.45818c0.11783,-0.29618 -0.12114,-0.63088 -0.06769,-0.94175c0.06903,-0.40144 0.35149,-0.75583 0.42839,-1.15611c0.25287,-1.31623 0.04569,-2.46091 0.42259,-3.8171c-0.00267,-0.34613 -0.03159,-0.69291 -0.00802,-1.0384c0.01613,-0.23646 0.26966,-0.50253 0.12673,-0.70151c-0.1894,-0.26368 -0.6355,-0.26259 -0.93501,-0.42372c-0.17432,-0.09378 -2.67513,-1.60993 -2.7336,-1.66186c-0.3664,-0.3254 -0.49337,-0.82802 -0.85679,-1.15611c-0.33885,-0.30591 -0.83201,-0.43716 -1.20688,-0.70694c-0.59423,-0.42765 -0.94004,-1.1225 -1.59765,-1.467c-0.36033,-0.18877 -0.82052,-0.17027 -1.19268,-0.33945c-0.40963,-0.18621 -0.69264,-0.57559 -1.125,-0.71411c-0.84433,-0.27052 -1.79215,0.04134 -2.68842,0.04134c-0.75349,0 -1.54335,-0.25064 -2.26002,-0.04134c-1.15285,0.33669 -1.76488,1.66604 -2.74607,2.20968c-0.3845,0.21303 -0.89686,0.17806 -1.2852,0.38538c-0.67513,0.36043 -1.1836,0.93909 -1.85391,1.30674l-0.26349,0.87598c0,0 -0.33868,0.91399 -1.35471,0.60932z" data-paper-data="{&quot;index&quot;:null}" fill="url(#color-1)" stroke="none" stroke-width="0.5"/><path d="M200.48101,289.17707c-2.94725,1.5477 -25.4909,2.74264 -28.35145,-2.25925c-1.11921,-1.95702 2.13426,-16.69891 1.50091,-23.81892c-0.20155,-2.26584 9.95342,-4.76749 10.00469,-4.76749c0.52457,0 11.18065,-0.37043 16.41098,2.85411c4.35001,2.68181 5.76858,25.19065 0.43488,27.99156z" fill="url(#color-2)" stroke="none" stroke-width="0"/><path d="M201.74153,264.95797c0,3.61819 -5.47596,6.70486 -13.28367,6.70486c-7.8077,0 -14.1371,-2.93312 -14.1371,-6.55131c0,-3.61819 6.3294,-6.55132 14.1371,-6.55132c7.8077,0 13.28367,2.77958 13.28367,6.39777z" fill="#251200" stroke="#8e4500" stroke-width="2.5"/><path d="M198.5379,264.36697c-0.72728,0 -1.04137,-0.37169 -1.17703,-0.69273c-0.1013,-0.04186 -0.20453,-0.07887 -0.31188,-0.10578c-0.08698,-0.02181 -0.28445,-0.01054 -0.37926,-0.01881c-0.05584,0.10774 -0.26364,0.35005 -0.39256,0.40278c-0.55462,0.22682 -1.13684,0.58851 -1.73911,0.50577c-0.40243,-0.05529 -0.48409,-0.59248 -0.77256,-0.85087c-0.07846,-0.07027 -0.21972,-0.05347 -0.30632,-0.11552c-0.1452,-0.10405 -0.24088,-0.25474 -0.37347,-0.3716c-0.16496,-0.14538 -0.46157,0.01586 -0.69248,0.01844c-0.4314,0.00482 -0.86297,-0.00613 -1.29409,-0.02078c-0.45097,0.10145 -0.89999,0.39856 -1.35291,0.30435c-0.4846,-0.1008 -0.8329,-0.50317 -1.17293,-0.82973c-0.2694,-0.25872 -0.09127,-0.66472 -0.65228,-0.69706c-0.26292,-0.01516 -0.53451,-0.09434 -0.78946,-0.03454c-0.08082,0.01896 -0.10546,0.11881 -0.17293,0.16309c-0.57681,0.37858 -1.24298,0.74968 -2.02832,0.62323c-0.44413,-0.07151 -0.74297,-0.46802 -1.06163,-0.75535c-0.0828,-0.07466 -0.23726,0.04362 -0.35111,0.01844c-0.03235,-0.00715 0.00344,-0.10683 -0.02216,-0.08766c-0.07528,0.05637 -0.07349,0.17858 -0.15825,0.22276c-0.2407,0.12547 -0.52017,0.17762 -0.78025,0.26643c0,0 -1.21445,0.36415 -1.61927,-0.72832c-0.40481,-1.09247 0.80963,-1.45663 0.80963,-1.45663c0.29699,-0.04951 0.48318,-0.34256 0.76836,-0.43207c0.1851,-0.05809 1.41808,-0.13052 1.71905,-0.07279c0.39714,0.07618 0.92365,0.22198 1.28239,0.49677c0.0074,-0.0036 0.01454,-0.0073 0.02138,-0.01114c0.88029,-0.49378 1.74569,-0.64688 2.7927,-0.48562c0.85784,0.13212 1.73141,0.62577 2.22991,1.27338c0.01997,-0.01251 0.0383,-0.02547 0.05391,-0.03913c1.19049,-0.02259 2.74076,-0.26293 3.81675,0.30475c0.25665,0.13539 0.42413,0.37613 0.65065,0.54965c0.01522,0.01166 0.03103,0.02289 0.0473,0.03373c0.16048,-0.14358 0.32315,-0.28529 0.52875,-0.36063c1.15633,-0.42369 2.23818,0.12587 3.28431,0.43207l0.87532,1.39956c0,0 0,1.15157 -1.28014,1.15157z" fill="#4d2500" stroke="none" stroke-width="0.5"/><path d="M196.26918,266.49417c-0.39611,0.71265 -1.06627,0.68569 -1.44164,0.60142c-0.30812,0.27965 -0.42344,0.75937 -1.23952,0.64933c-0.33686,-0.04542 -0.62804,-0.21599 -0.89221,-0.42891c-0.26803,0.21323 -0.46169,0.28745 -1.12165,0.41404c-0.65321,0.12529 -2.02926,0.0358 -2.59465,0.01488c-0.33528,-0.01241 -0.69118,0.02621 -1.00195,-0.08765c-0.16949,-0.06211 -0.30772,-0.17153 -0.44103,-0.2884c-0.23859,0.06898 -0.43456,0.06898 -0.43456,0.06898h-0.17068c-0.33398,-0.02921 -0.68512,0.01178 -1.00195,-0.08765c-0.21449,-0.06732 -0.34966,-0.26095 -0.52449,-0.39142c-0.24808,-0.10628 -0.55404,-0.14044 -0.74424,-0.31885c-0.21929,-0.20569 -0.262,-0.51964 -0.41546,-0.76897c-0.12468,-0.20256 -0.31119,-0.40429 -0.32801,-0.63262c-0.00174,0.00917 -0.00506,0.01677 -0.01094,0.01909c-0.06733,0.02661 -0.14441,0.03081 -0.21794,0.03081c-0.13005,0 -0.26353,-0.06278 -0.38863,-0.03081c-0.19542,0.04996 -0.34298,0.20105 -0.53272,0.26636c-0.23818,0.08198 -0.55852,0.02819 -0.73374,0.19487c-0.22368,0.21278 -0.3393,0.55508 -0.64253,0.66166c-1.13344,0.39839 -1.60316,0.10159 -2.43976,-0.43184c-0.08594,-0.0548 -0.11158,-0.17064 -0.20279,-0.21806c-0.15579,-0.08098 -0.35942,-0.06787 -0.51205,-0.15355c-0.08311,-0.04666 -0.06818,-0.18809 -0.15825,-0.22275c-0.06622,-0.02548 -0.12151,0.07879 -0.19285,0.08765c-0.16908,0.02102 -0.34137,0 -0.51205,0c0,0 -1.28014,0 -1.28014,-1.15157c0,-1.15157 1.28014,-1.15157 1.28014,-1.15157c0.4747,0 1.32912,-0.01272 1.68469,0.08765c0.21674,0.06119 0.32837,0.2883 0.52449,0.39142c0.15534,0.08166 0.35887,0.06867 0.51206,0.15354c0.10079,0.05584 0.1885,0.12768 0.27243,0.20374c0.2292,-0.17161 0.48814,-0.3135 0.75558,-0.43082c0.23449,-0.10286 0.51177,-0.09912 0.75649,-0.18045c0.78627,-0.26135 1.73438,-0.63489 2.6158,-0.34781c0.48538,0.1581 0.97185,0.36286 1.35572,0.67334c0.21417,0.17323 0.21782,0.48069 0.35356,0.70919c0.09668,0.16276 0.26646,0.28884 0.34138,0.46063c0.02249,0.05159 -0.12315,0.11878 -0.07409,0.15229c0.07439,0.0508 0.18658,-0.00784 0.27987,-0.01175c0.17619,0.24801 0.13652,0.30868 0.18042,0.13509h0.17068c0,0 0.22809,0 0.49171,0.0866c0.76525,-0.35415 1.43761,0.25068 1.43761,0.25068c-0.22193,0.17245 1.33449,-0.03912 1.82577,-0.0302c0.11721,0.00213 0.2683,0.09311 0.3511,0.01845c0.43371,-0.39105 0.97224,-1.191 1.69713,-1.09325c0.38211,0.05152 0.70543,0.26406 0.99723,0.5168c0.21624,-0.07455 0.40599,-0.12688 0.4755,-0.15062l1.31868,0.21602c0,0 1.14499,0.51499 0.5725,1.54499z" fill="#4d2500" stroke="none" stroke-width="0.5"/><path d="M198.69269,247.59381c0.13697,-0.3197 0.45166,-0.68693 1.17455,-0.68693c1.28014,0 1.28014,1.15157 1.28014,1.15157v0.23054c-0.1098,0.37346 -0.04928,0.83504 -0.2673,1.15251c0.00786,0.00274 0.01472,0.00516 0.02047,0.00723c0.32025,0.42437 0.78242,0.78592 0.96074,1.27308c0.37883,1.03495 -0.2127,1.65007 -1.06478,2.23548c-0.2147,0.1475 -0.53608,0.10722 -0.76885,0.23054c-0.26505,0.14043 -0.42076,0.42132 -0.69569,0.54542c-0.15271,0.06893 -0.35975,-0.06873 -0.51257,0c-0.21612,0.09721 -0.29403,0.36838 -0.51257,0.46109c-0.21441,0.09095 -0.47838,0.00513 -0.70834,0.05685c-0.11997,0.02698 -0.20253,0.13114 -0.3168,0.1737c-0.23823,0.08871 -0.48457,0.16011 -0.7332,0.22177c0.00621,0.09854 -0.07343,0.21029 -0.04849,0.2941c0.09876,0.332 0.41161,0.59072 0.51257,0.92218c0.06719,0.22059 0.01481,0.48118 0.15538,0.67176c0,0 0.57249,1.03 -0.57249,1.54499c-1.14499,0.51499 -1.71749,-0.51499 -1.71749,-0.51499c-0.11906,-0.23716 -0.28074,-0.46053 -0.35719,-0.71151c-0.04515,-0.14824 0.0348,-0.31062 0,-0.4611c-0.07782,-0.33646 -0.42166,-0.58838 -0.51257,-0.92218c-0.21753,-0.79867 -0.02938,-1.84969 0.59699,-2.46213c0.4276,-0.4181 1.14541,-0.51741 1.69673,-0.71072c0.24133,-0.08462 0.45705,-0.23089 0.70834,-0.28739c0.10447,-0.02349 0.22212,0.10299 0.3168,0.05685c0.21245,-0.10355 0.29645,-0.36388 0.51257,-0.46109c0.15282,-0.06873 0.35959,0.06844 0.51257,0c0.15904,-0.07117 0.17813,-0.29308 0.32945,-0.37676c0.05142,-0.02843 0.10506,-0.05306 0.16031,-0.07474c-0.50503,-0.16719 -0.90774,-0.4314 -1.41127,-0.71621c-0.25413,-0.14374 -0.64605,-0.16852 -0.77522,-0.41227c-0.30649,-0.57831 -0.77134,-1.31365 -0.44004,-1.88079c0.30307,-0.5188 1.22304,-0.41417 1.8578,-0.54616c0.20137,-0.04186 0.4113,-0.01621 0.61944,-0.00471z" fill="#000000" stroke="none" stroke-width="0.5"/><path d="M183.46631,248.51302c-0.21131,-0.26125 -0.56953,-0.88032 0.11867,-1.49939c0.90519,-0.81428 1.81039,0 1.81039,0l0.63123,1.04484c0,0.30739 0,0.61479 0,0.92218c0,0 0,0.36586 -0.22923,0.68515c-0.01278,0.47066 -0.40199,0.82078 -0.40199,0.82078l-0.32798,0.25122c0.54158,0.24926 0.94756,0.65712 1.45272,0.99738c0.15291,0.10299 0.36377,0.12277 0.51257,0.23054c0.95764,0.69358 1.70995,1.82351 1.54024,2.96303c-0.04882,0.32773 -0.25948,0.63808 -0.23976,0.96826c0,0 0,1.15157 -1.28014,1.15157c-1.28013,0 -1.28014,-1.15157 -1.28014,-1.15157c0.00551,-0.21518 -0.02666,-0.43384 0.01653,-0.64555c0.04987,-0.24445 0.40826,-0.48647 0.274,-0.70368c-0.1456,-0.23555 -0.26627,-0.56043 -0.52776,-0.71364c-0.16006,-0.09379 -0.35984,-0.12735 -0.51257,-0.23054c-0.38017,-0.25686 -0.6665,-0.63721 -1.09534,-0.82191c-0.94834,-0.40846 -1.32207,-0.12861 -1.90169,-1.28541c-0.41688,-0.832 0.09689,-1.7894 0.76598,-2.34246c0.16863,-0.13939 0.45143,-0.05978 0.6808,-0.08269c-0.00651,-0.05639 -0.00651,-0.09045 -0.00651,-0.09045c0,-0.15588 0,-0.31175 0,-0.46763z" fill="#000000" stroke="none" stroke-width="0.5"/><path d="M174.21769,249.44312c-0.02066,-0.16282 -0.04631,-0.36164 -0.0331,-0.50161c-0.37889,-0.08044 -0.96965,-0.3313 -0.96965,-1.1136c0,-1.15157 1.28014,-1.15157 1.28014,-1.15157l1.00246,0.08765c0.40179,0.36144 0.91661,0.6441 1.20538,1.08432c0.23176,0.35332 0.09744,1.37341 0.09744,1.82395c-0.01141,0.24188 0.06752,0.50153 -0.03425,0.72566c-0.18276,0.40254 -0.38734,0.83976 -0.7528,1.12121c0.06625,0.07859 0.12628,0.16089 0.17702,0.24843c0.10961,0.18908 0.00964,0.42947 0.0632,0.63721c0.14148,0.54882 1.08745,1.6071 1.22954,1.92423c0.16889,0.37695 0.14818,0.80368 0.27312,1.19425c0.06431,0.20104 0.24751,0.3648 0.29133,0.57024c0.0668,0.31319 0.02283,0.63747 0.03425,0.95621c0,0 -0.00001,1.15157 -1.28014,1.15157c-1.28013,0 -1.28013,-1.15157 -1.28013,-1.15157c0.01141,-0.14235 0.06773,-0.28756 0.03424,-0.42706c-0.03163,-0.13174 -0.18041,-0.22227 -0.22123,-0.35194c-0.1143,-0.36301 -0.08488,-0.76045 -0.23945,-1.11121c-0.23901,-0.54237 -0.69912,-0.98654 -0.97612,-1.51407c-0.12356,-0.2353 -0.28298,-0.45998 -0.35718,-0.71151c-0.02762,-0.09363 0.10449,-0.19552 0.0632,-0.28498c-0.03251,-0.07045 -0.1751,-0.03356 -0.23507,-0.0875c-0.05997,-0.05393 -0.04155,-0.15396 -0.09727,-0.21146c-0.02191,-0.02262 0.01007,0.09334 -0.02268,0.08766c-0.48001,-0.08319 -1.16309,0.03805 -1.41776,-0.33729c-0.37691,-0.5555 -0.45688,-1.36663 -0.13331,-1.94871c0.40872,-0.73528 1.55507,-0.70053 2.29882,-0.70854z" fill="#000000" stroke="none" stroke-width="0.5"/></g></g></g></svg>