<svg version="1.1" xmlns="http://www.w3.org/2000/svg" xmlns:xlink="http://www.w3.org/1999/xlink" width="75.824" height="98.04396" viewBox="0,0,75.824,98.04396"><g transform="translate(-218.167,-141)"><g data-paper-data="{&quot;isPaintingLayer&quot;:true}" fill="none" fill-rule="nonzero" stroke="none" stroke-width="none" stroke-linecap="none" stroke-linejoin="none" stroke-miterlimit="10" stroke-dasharray="" stroke-dashoffset="0" font-family="none" font-weight="none" font-size="none" text-anchor="none" style="mix-blend-mode: normal"><path d="M231.203,192.879v-9.474h7.469v9.474z" fill="#fefbdf" stroke="none" stroke-width="1" stroke-linecap="butt" stroke-linejoin="miter"/><path d="M245.646,198.894l-5.072,13.729c0,0 1.586,-0.785 -3.176,2.299c-2.814,1.78 -16.642,-2.591 -18.531,-7.523c-1.293,-3.402 5.352,-18.23 5.352,-18.23z" id="ID0.26344340899959207_31_" fill="#518943" stroke="#426c36" stroke-width="1.4" stroke-linecap="round" stroke-linejoin="round"/><path d="M230.572,178.528c1.377,0.402 2.391,1.564 2.916,3.115c0.527,1.549 0.564,3.488 -0.012,5.449c-0.572,1.959 -1.654,3.57 -2.936,4.59c-1.279,1.021 -2.76,1.449 -4.137,1.045c-1.377,-0.404 -2.391,-1.564 -2.916,-3.117c-0.525,-1.549 -0.564,-3.488 0.01,-5.447c0.576,-1.959 1.656,-3.57 2.938,-4.59c1.28,-1.019 2.76,-1.449 4.137,-1.045z" id="ID0.2414738917723298_31_" fill="#fefbdf" stroke="#70715e" stroke-width="1.4" stroke-linecap="round" stroke-linejoin="round"/><path d="M229.643,181.694c0.74,0.217 1.283,0.855 1.561,1.711c0.277,0.854 0.291,1.926 -0.029,3.012c-0.318,1.084 -0.908,1.98 -1.604,2.549c-0.693,0.57 -1.496,0.813 -2.236,0.596c-0.74,-0.217 -1.283,-0.855 -1.561,-1.711c-0.277,-0.854 -0.289,-1.926 0.029,-3.012c0.318,-1.084 0.908,-1.98 1.604,-2.549c0.695,-0.57 1.495,-0.814 2.236,-0.596z" id="ID0.6192030962556601_31_" fill="#fefbdf" stroke="#70715e" stroke-width="1.4" stroke-linecap="round" stroke-linejoin="round"/><path d="M221.498,206.606c-0.707,-1.144 1.627,-6.607 1.627,-6.607l5.871,3.078l-2.648,7.248c0,0 -4.213,-2.695 -4.85,-3.719z" id="ID0.15330331353470683_31_" fill="#518943" stroke="#426c36" stroke-width="1.4" stroke-linecap="round" stroke-linejoin="round"/><path d="M251.002,207.457c9.459,2.26 6.278,6.533 3.934,8.334c-8.475,5.729 0.621,7.973 -7.17,10.184c-2.449,0.506 -4.1,-4.046 -4.83,-6.066c-1.592,-4.397 0.025,-1.733 3.148,-4.129c-1.113,-0.861 -6.424,-1.828 -6.424,-1.828" id="ID0.527006761636585_40_" fill="#ffffff" stroke="#8e5322" stroke-width="1.4" stroke-linecap="round" stroke-linejoin="round"/><path d="M249.757,219.946c1.133,-0.844 2.563,-2.164 3.559,-2.699" id="ID0.8937406223267317_55_" fill="#faa51f" stroke="#8e5322" stroke-width="1.4" stroke-linecap="round" stroke-linejoin="round"/><path d="M248.859,215.386c-0.547,0.205 -2.867,-0.203 -4.223,-0.23" id="ID0.8937406223267317_54_" fill="#faa51f" stroke="#8e5322" stroke-width="1.4" stroke-linecap="round" stroke-linejoin="round"/><path d="M234.753,214.115c-1.302,2.144 -2.561,4.868 -2.498,8.252c0.145,7.486 5.209,14.315 1.005,15.814c-4.205,1.501 -14.27,-7.554 -9.202,-19.452c1.716,-4.152 4.305,-7.079 6.409,-9.3c0.538,-0.624 5.737,-5.396 9.942,-4.814c4.204,0.581 3.754,2.368 3.586,3.344c-0.228,0.895 -7.491,3.086 -9.242,6.156z" id="ID0.8535828334279358_30_" fill="#faa51f" stroke="none" stroke-width="1" stroke-linecap="butt" stroke-linejoin="miter"/><path d="M233.48,238.148c-1.832,1.048 -6.304,-1.303 -8.356,-4.381c-1.971,-3.139 -2.328,-6.07 -2.514,-7.897c0.255,-1.893 1.788,2.532 4.578,2.154c2.795,-0.379 5.058,-3.936 5.058,-3.936c0,0 1.167,5.293 1.884,8.216c0.764,2.644 1.148,4.577 -0.65,5.844z" id="ID0.914295740891248_36_" fill="#ffffff" stroke="none" stroke-width="1" stroke-linecap="butt" stroke-linejoin="miter"/><path d="M234.753,214.115c-1.302,2.144 -2.561,4.868 -2.498,8.252c0.145,7.486 5.209,14.315 1.005,15.814c-4.205,1.501 -14.27,-7.554 -9.202,-19.452c1.716,-4.152 4.305,-7.079 6.409,-9.3c0.538,-0.624 5.737,-5.396 9.942,-4.814c4.204,0.581 3.754,2.368 3.586,3.344c-0.228,0.895 -7.491,3.086 -9.242,6.156z" id="ID0.40227043256163597_36_" fill="#ffffff" stroke="#8e5322" stroke-width="1.4" stroke-linecap="round" stroke-linejoin="round"/><path d="M252.59,200.872c-1.887,6.43 -3.016,16.313 -14.436,12.961c-11.418,-3.352 -7.826,-11.678 -5.939,-18.107c1.887,-6.429 6.326,-7.002 12.756,-5.115c6.427,1.888 9.506,3.833 7.619,10.261z" id="ID0.46792364912107587_36_" fill="#faa51f" stroke="#8e5322" stroke-width="1.4" stroke-linecap="round" stroke-linejoin="round"/><path d="M250.654,203.414c-1.184,4.031 -2.094,10.33 -8.234,8.527c-6.141,-1.801 -4.057,-7.129 -2.873,-11.16c1.184,-4.031 3.631,-4.563 7.182,-3.52c3.55,1.042 5.107,2.126 3.925,6.153z" id="ID0.38032895559445024_36_" fill="#bababa" stroke="none" stroke-width="1" stroke-linecap="butt" stroke-linejoin="miter"/><path d="M250.902,194.542l4.229,0.512c4.394,4.207 7,14.143 0.912,16.42" id="ID0.30105241015553474_33_" fill="#faa51f" stroke="#8e5322" stroke-width="1.4" stroke-linecap="round" stroke-linejoin="round"/><path d="M252.59,200.872l0.012,3.859" id="ID0.7841392233967781_32_" fill="#faa51f" stroke="#8e5322" stroke-width="1.4" stroke-linecap="round" stroke-linejoin="round"/><path d="M253.745,204.754l-1.143,-0.023" id="ID0.4326359131373465_28_" fill="none" stroke="#8e5322" stroke-width="1.4" stroke-linecap="round" stroke-linejoin="round"/><path d="M229.788,206.249c19.064,-9.203 6.232,-18.389 6.232,-18.389c16.219,10.074 -1.771,20.949 -6.375,21.369" id="ID0.48627097019925714_31_" fill="#518943" stroke="#426c36" stroke-width="1.4" stroke-linecap="round" stroke-linejoin="round"/><path d="M250.193,205.256c6.51,-7.261 -2.564,-13.99 -2.564,-13.99c10.275,5.83 7.627,11.307 4.119,15.801" id="ID0.07006075512617826_31_" fill="#518943" stroke="#426c36" stroke-width="1.4" stroke-linecap="round" stroke-linejoin="round"/><path d="M256.043,211.473c-6.2,2.662 -8.928,-1.891 -6.809,-4.498c1.482,-1.857 3.57,-3.644 6.246,-1.398" id="ID0.7947451807558537_28_" fill="#ffffff" stroke="#8e5322" stroke-width="1.4" stroke-linecap="round" stroke-linejoin="round"/><path d="M232.27,210.279c-4.507,-1.346 -3.245,-12.596 2.207,-19.356l8.014,-0.366" id="ID0.15909873321652412_32_" fill="#ffffff" stroke="#8e5322" stroke-width="1.4" stroke-linecap="round" stroke-linejoin="round"/><path d="M238.528,198.007l-1.733,4.594" id="ID0.8143284288235009_32_" fill="#faa51f" stroke="#8e5322" stroke-width="1.4" stroke-linecap="round" stroke-linejoin="round"/><path d="M236.795,202.601l-1.238,-0.029" id="ID0.6682511982508004_28_" fill="none" stroke="#8e5322" stroke-width="1.4" stroke-linecap="round" stroke-linejoin="round"/><path d="M242.107,209.178c6.511,5.091 4.197,6.909 3.296,8.612c-8.559,5.919 1.796,7.536 -5.918,10.003c-3.121,1.365 -4.23,-3.907 -5.028,-5.903c-1.737,-4.34 0.467,-3.056 3.508,-5.554c-1.14,-0.823 -4.483,-4.261 -4.483,-4.261" id="ID0.527006761636585_39_" fill="#ffffff" stroke="#8e5322" stroke-width="1.4" stroke-linecap="round" stroke-linejoin="round"/><path d="M241.277,221.702c1.105,-0.88 2.489,-2.248 3.468,-2.816" id="ID0.8937406223267317_53_" fill="#faa51f" stroke="#8e5322" stroke-width="1.4" stroke-linecap="round" stroke-linejoin="round"/><path d="M235.176,215.261c1.355,-0.018 3.189,1.637 3.729,1.414" id="ID0.8937406223267317_52_" fill="#faa51f" stroke="#8e5322" stroke-width="1.4" stroke-linecap="round" stroke-linejoin="round"/><path d="M281.234,165.391l10.02,-0.688l-5.102,10.354c0,0 1.758,7.518 1.14,11.188c-1.06,6.047 -3.763,9.395 -3.763,9.395c0,0 3.909,6.061 1.27,11.035c-2.639,4.971 -12.706,10.204 -28.921,1.189c-16.215,-9.014 -24.189,-22.189 -22.279,-35.118c1.918,-12.789 18.691,-15.882 17.716,-15.659l10.148,-15.387l4.316,14.4c0,0 4.38,1.481 8.02,4.301c1.362,1.022 3.598,3.179 4.678,4.225z" id="ID0.2591130444779992_34_" fill="#faa51f" stroke="none" stroke-width="1" stroke-linecap="butt" stroke-linejoin="miter"/><path d="M282.902,195.762c0,0 4.001,5.485 1.364,10.457c-2.411,5.168 -12.87,9.939 -27.999,1.188c-3.428,-1.986 -6.553,-3.714 -10.749,-7.27c-6.551,-5.415 -10.223,-15.471 -2.516,-23.488c4.443,-4.627 10.301,0.99 10.301,0.99l6.579,3.215c0,0 4.385,5.81 8.172,7.838c3.787,2.028 5.92,-0.491 5.92,-0.491l8.396,3.703l0.538,3.078z" id="ID0.3588979784399271_34_" fill="#ffffff" stroke="none" stroke-width="1" stroke-linecap="butt" stroke-linejoin="miter"/><path d="M293.291,208.323c0,0 -2.379,-0.381 -4.721,-1.827c-2.012,-1.199 -5.336,-4.164 -5.336,-4.164" id="ID0.2727069961838424_34_" fill="none" stroke="#8e5322" stroke-width="1.4" stroke-linecap="round" stroke-linejoin="round"/><path d="M285.125,215.586c0,0 -1.304,-1.255 -2.802,-3.52c-1.639,-2.282 -2.455,-4.984 -2.455,-4.984" id="ID0.5861211125738919_34_" fill="none" stroke="#8e5322" stroke-width="1.4" stroke-linecap="round" stroke-linejoin="round"/><path d="M266.635,159.577l-1.642,-6.107" id="ID0.4793355236761272_34_" fill="none" stroke="#8e5322" stroke-width="1.4" stroke-linecap="round" stroke-linejoin="round"/><path d="M281.234,165.391l10.02,-0.688l-5.102,10.354c0,0 1.758,7.518 1.14,11.188c-1.06,6.047 -3.763,9.395 -3.763,9.395c0,0 3.909,6.061 1.27,11.035c-2.639,4.971 -12.706,10.204 -28.921,1.189c-16.215,-9.014 -24.189,-22.189 -22.279,-35.118c1.918,-12.789 18.691,-15.882 17.716,-15.659l10.148,-15.387l4.316,14.4c0,0 4.38,1.481 8.02,4.301c1.362,1.022 3.598,3.179 4.678,4.225z" id="ID0.48413723474368453_34_" fill="none" stroke="#8e5322" stroke-width="1.4" stroke-linecap="round" stroke-linejoin="round"/><path d="M236.048,168.924c0,0 -3.331,-1.177 -4.975,-1.922c-1.644,-0.742 -5.002,-2.948 -5.002,-2.948" id="ID0.9024141579866409_34_" fill="none" stroke="#8e5322" stroke-width="1.4" stroke-linecap="round" stroke-linejoin="round"/><path d="M230.819,155.419c0,0 1.718,1.431 4.317,4.962c2.409,3.239 2.386,3.238 3.519,5.773" id="ID0.16030752705410123_34_" fill="none" stroke="#8e5322" stroke-width="1.4" stroke-linecap="round" stroke-linejoin="round"/><path d="M286.551,185.899c-0.644,5.09 -3.8,8.972 -6.957,8.524c-3.224,-0.372 -5.301,-4.882 -4.595,-10.05c0.643,-5.09 3.8,-8.971 6.958,-8.523c3.16,0.449 5.235,4.959 4.594,10.049z" id="ID0.40023312577977777_34_" fill="#ffffff" stroke="#8e5322" stroke-width="1.4" stroke-linecap="round" stroke-linejoin="round"/><path d="M284.146,188.583c-0.415,0.956 -1.443,1.396 -2.4,0.979c-0.881,-0.354 -1.255,-1.457 -0.772,-2.489c0.415,-0.958 1.443,-1.398 2.399,-0.981c0.893,0.493 1.19,1.533 0.773,2.491" id="ID0.43813491938635707_34_" fill="#414142" stroke="none" stroke-width="1" stroke-linecap="butt" stroke-linejoin="miter"/><path d="M269.843,175.271c-0.643,5.093 -4.231,8.865 -8.03,8.4c-3.8,-0.466 -6.376,-5.005 -5.67,-10.173c0.643,-5.091 4.232,-8.865 8.031,-8.4c3.734,0.541 6.31,5.083 5.669,10.173z" id="ID0.4253597157076001_34_" fill="#ffffff" stroke="#8e5322" stroke-width="1.4" stroke-linecap="round" stroke-linejoin="round"/><path d="M267.092,178.055c-0.646,0.764 -1.838,0.933 -2.523,0.351c-0.763,-0.646 -0.78,-1.71 -0.07,-2.547c0.646,-0.764 1.839,-0.935 2.524,-0.353c0.688,0.582 0.78,1.71 0.069,2.549" id="ID0.814307457767427_34_" fill="#414142" stroke="none" stroke-width="1" stroke-linecap="butt" stroke-linejoin="miter"/><path d="M269.838,187.935c1.428,0.947 4.024,1.442 3.022,3.086c-0.517,0.609 -3.87,2.095 -5.308,1.007c-1.592,-1.216 -2.645,-5.386 -1.6,-6.466c1.045,-1.082 2.611,1.556 3.886,2.373z" id="ID0.5240494590252638_34_" fill="#5f4b43" stroke="#8e5322" stroke-width="1.4" stroke-linecap="round" stroke-linejoin="round"/><path d="M259.194,201.828c-4.831,-2.652 -5.254,-6.021 -5.254,-6.021" id="ID0.046259244438260794_34_" fill="#ffffff" stroke="#8e5322" stroke-width="1.4" stroke-linecap="round" stroke-linejoin="round"/><path d="M236.176,202.802c5.823,-0.837 9,3.738 8.617,5.396c-0.866,3.91 -5.704,4.915 -13.767,1.617" id="ID0.1790580078959465_44_" fill="#ffffff" stroke="#8e5322" stroke-width="1.4" stroke-linecap="round" stroke-linejoin="round"/></g></g></svg>