<svg version="1.1" xmlns="http://www.w3.org/2000/svg" xmlns:xlink="http://www.w3.org/1999/xlink" width="15.56498" height="15.49927" viewBox="0,0,15.56498,15.49927"><defs><linearGradient x1="4.11182" y1="19.57574" x2="4.11182" y2="35.04502" gradientUnits="userSpaceOnUse" id="color-1"><stop offset="0" stop-color="#000000"/><stop offset="1" stop-color="#ff0000"/></linearGradient><linearGradient x1="-0.97054" y1="21.74956" x2="4.20616" y2="28.32736" gradientUnits="userSpaceOnUse" id="color-2"><stop offset="0" stop-color="#ffffff"/><stop offset="1" stop-color="#ffffff" stop-opacity="0"/></linearGradient><linearGradient x1="4.36625" y1="30.54998" x2="8.20999" y2="20.4006" gradientUnits="userSpaceOnUse" id="color-3"><stop offset="0" stop-color="#ffffff" stop-opacity="0"/><stop offset="1" stop-color="#ffffff"/></linearGradient></defs><g transform="translate(3.72356,-19.54574)"><g data-paper-data="{&quot;isPaintingLayer&quot;:true}" fill-rule="nonzero" stroke-width="2" stroke-linejoin="miter" stroke-miterlimit="10" stroke-dasharray="" stroke-dashoffset="0" style="mix-blend-mode: normal"><path d="M11.84142,27.31038c0,4.27172 -3.46066,7.73464 -7.72961,7.73464c-4.26894,0 -7.72961,-3.46291 -7.72961,-7.73464c0,-4.27172 3.46067,-7.73464 7.72961,-7.73464c4.26894,0 7.72961,3.46292 7.72961,7.73464z" fill="url(#color-1)" stroke="none" stroke-linecap="butt"/><g fill="none" stroke="#ffffff" stroke-linecap="round"><path d="M8.03344,23.16737l-7.08213,8.65631"/><path d="M8.64815,31.63432l-8.31152,-8.27758"/></g><path d="M7.03773,20.79242c0.18848,0.2395 0.09887,0.45785 0.14767,0.66529c0.06353,0.27004 0.23056,0.5225 0.21027,0.78855c-0.03725,0.48835 -0.08805,1.02045 -0.60069,1.90844c-0.62065,1.07507 -2.08545,1.67617 -3.27289,2.60307c-1.34861,1.05271 -1.82522,1.49262 -2.77202,2.01088c-0.35535,0.19451 -1.01018,0.96426 -1.46375,0.96292c-1.12756,-0.00333 -1.58649,-0.43518 -2.1643,-1.16936c-1.4295,-1.81641 -1.2056,-4.38268 1.90743,-6.81266c3.11302,-2.42998 6.60682,-2.92602 8.03632,-1.10961z" data-paper-data="{&quot;index&quot;:null}" fill="url(#color-2)" stroke="none" stroke-linecap="butt"/><path d="M1.46702,23.46521c1.06142,-2.80268 4.08035,-4.17475 6.74296,-3.06461c2.66262,1.11014 3.96064,4.2821 2.89923,7.08477c-0.49072,1.29573 -1.14743,2.98141 -2.24629,3.56167c-1.27799,0.67486 -2.94459,-0.34202 -4.37623,-0.93892c-1.36284,-0.56821 -3.42743,-1.23249 -3.94186,-2.55502c-0.49064,-1.26135 0.40406,-2.71973 0.92219,-4.08788z" data-paper-data="{&quot;index&quot;:null}" fill="url(#color-3)" stroke="none" stroke-linecap="butt"/></g></g></svg>