<svg version="1.1" xmlns="http://www.w3.org/2000/svg" xmlns:xlink="http://www.w3.org/1999/xlink" width="81.84381" height="95.68653" viewBox="0,0,81.84381,95.68653"><g transform="translate(-208.4562,-137.5)"><g data-paper-data="{&quot;isPaintingLayer&quot;:true}" fill="none" fill-rule="nonzero" stroke="none" stroke-width="none" stroke-linecap="none" stroke-linejoin="none" stroke-miterlimit="10" stroke-dasharray="" stroke-dashoffset="0" font-family="none" font-weight="none" font-size="none" text-anchor="none" style="mix-blend-mode: normal"><g id="Layer_3_10_"><path d="M240.3,210.1c0.7,0.6 2.3,1.7 -0.5,4.9c-2.7,3.2 -9.8,3.1 -10.6,3c-3.1,-0.3 -7,-0.7 -11,-2.7c-11.7,-5.6 -10.1,-19 -6,-20.7c4.1,-1.7 4.8,6.8 9.7,12.5c2.2,2.6 4.9,3.8 7.3,4.5c3.3,1.1 10.2,-2 11.1,-1.5z" id="ID0.8535828334279358_9_" fill="#faa51f" stroke="none" stroke-width="1" stroke-linecap="butt" stroke-linejoin="miter"/><path d="M216.8,198.4c1.4,2.7 4,7.4 4,7.4c0,0 -4.1,-1.2 -6.4,0.4c-2.3,1.6 -0.6,5.9 -2,4.7c-1.1,-1.5 -2.8,-3.9 -3.4,-7.6c-0.6,-3.6 1.2,-8.4 3.3,-8.8c2.2,-0.3 3.2,1.4 4.5,3.9z" id="ID0.914295740891248_9_" fill="#ffffff" stroke="none" stroke-width="1" stroke-linecap="butt" stroke-linejoin="miter"/><path d="M240.3,210.1c0.7,0.6 2.3,1.7 -0.5,4.9c-2.7,3.2 -9.8,3.1 -10.6,3c-3.1,-0.3 -7,-0.7 -11,-2.7c-11.7,-5.6 -10.1,-19 -6,-20.7c4.1,-1.7 4.8,6.8 9.7,12.5c2.2,2.6 4.9,3.8 7.3,4.5c3.3,1.1 10.2,-2 11.1,-1.5z" id="ID0.40227043256163597_9_" fill="#ffffff" stroke="#8e5322" stroke-width="1.4" stroke-linecap="round" stroke-linejoin="round"/></g><g id="ID0.8950282377190888" stroke-width="1.4" stroke-linecap="round" stroke-linejoin="round"><path d="M245.8,196.2l-1.7,14.5c0,0 1.4,-1.1 -2.5,3c-2.3,2.4 -16.8,1.4 -19.8,-3c-2.1,-3 0.9,-19 0.9,-19z" id="ID0.26344340899959207_9_" fill="#518943" stroke="#426c36"/><path d="M226.4,179.9c1.4,0.1 2.7,1 3.6,2.3c0.9,1.4 1.4,3.3 1.3,5.3c-0.1,2 -0.8,3.9 -1.8,5.1c-1,1.3 -2.3,2.1 -3.8,2c-1.4,-0.1 -2.7,-1 -3.6,-2.3c-0.9,-1.4 -1.4,-3.3 -1.3,-5.3c0.1,-2 0.8,-3.9 1.8,-5.2c1.1,-1.3 2.4,-2 3.8,-1.9z" id="ID0.2414738917723298_9_" fill="#fefbdf" stroke="#70715e"/><path d="M226.3,183.1c0.8,0 1.4,0.5 1.9,1.3c0.5,0.8 0.7,1.8 0.7,2.9c-0.1,1.1 -0.4,2.1 -1,2.9c-0.5,0.7 -1.3,1.1 -2,1.1c-0.8,0 -1.4,-0.5 -1.9,-1.3c-0.5,-0.8 -0.7,-1.8 -0.7,-2.9c0.1,-1.1 0.4,-2.1 1,-2.9c0.5,-0.7 1.2,-1.1 2,-1.1z" id="ID0.6192030962556601_9_" fill="#fefbdf" stroke="#70715e"/><path d="M224.3,209.3c-1,-0.9 0,-6.8 0,-6.8l6.4,1.6l-0.9,7.7c0,0 -4.8,-1.7 -5.5,-2.5z" id="ID0.15330331353470683_9_" fill="#518943" stroke="#426c36"/></g><g id="ID0.16171270422637463_10_" stroke="#8e5322" stroke-width="1.4" stroke-linecap="round" stroke-linejoin="round"><path d="M250.4,212c0,0 1.2,4.5 1,7.3c-3.1,3.2 -4.9,5.8 -4.9,5.8c0.8,0.1 5.7,1.6 4.9,5.7c0.2,2.1 -9.1,1.8 -11.3,1.4c-2,-0.3 -2.6,-0.9 -2.7,-2.9c-0.1,-2.6 6.6,-7.6 6.6,-10.1c-1.5,-1.9 -4.6,-5.6 -4.6,-5.6" id="ID0.007584026083350182_10_" fill="#ffffff"/><path d="M244.9,225.1c1.4,-0.6 1.7,0 1.7,0" id="ID0.31672530295327306_10_" fill="#faa51f"/></g><path d="M242.6,208.8" id="ID0.39854341372847557_9_" fill="#faa51f" stroke="#8e5322" stroke-width="1.4" stroke-linecap="round" stroke-linejoin="round"/><path d="M253,200.5c-0.3,6.7 0.9,16.6 -11,16c-11.9,-0.6 -10.3,-9.5 -10,-16.2c0.3,-6.7 4.5,-8.3 11.2,-8c6.7,0.4 10.2,1.5 9.8,8.2z" id="ID0.46792364912107587_9_" fill="#ffffff" stroke="#8e5322" stroke-width="1.4" stroke-linecap="round" stroke-linejoin="round"/><path d="M252.2,202.8c-0.2,4.2 0.4,10.5 -6,10.2c-6.4,-0.3 -5.6,-6 -5.4,-10.2c0.2,-4.2 2.5,-5.3 6.2,-5.1c3.7,0.3 5.4,0.9 5.2,5.1z" id="ID0.38032895559445024_9_" fill="#bababa" stroke="none" stroke-width="1" stroke-linecap="butt" stroke-linejoin="miter"/><g id="ID0.7407716196030378_9_" stroke="#8e5322" stroke-width="1.4" stroke-linecap="round" stroke-linejoin="round"><path d="M228.9,209.6c-4,-2.5 0.2,-13 7.3,-18.1l7.8,1.8" id="ID0.15909873321652412_9_" fill="#ffffff"/><path d="M235.3,203.4" id="ID0.8024068027734756_9_" fill="#faa51f"/><path d="M238.5,201.7" id="ID0.06734407460317016_9_" fill="none"/><path d="M238.2,199.4l-2.9,4" id="ID0.8143284288235009_9_" fill="#faa51f"/><path d="M235.3,203.4l-1.2,-0.4" id="ID0.6682511982508004_9_" fill="none"/></g><g id="ID0.32291418174281716_9_" stroke="#8e5322" stroke-width="1.4" stroke-linecap="round" stroke-linejoin="round"><path d="M250,194.7l4.2,-0.5c5.2,3.1 10.1,12.2 4.7,15.8" id="ID0.30105241015553474_9_" fill="#ffffff"/><path d="M253.9,204.3" id="ID0.3822403196245432_9_" fill="#faa51f"/><path d="M251.4,202.7" id="ID0.5879319808445871_9_" fill="none"/><path d="M253.9,204.3l-0.9,-3.8" id="ID0.7841392233967781_9_" fill="#faa51f"/><path d="M253.9,204.3l1.1,-0.2" id="ID0.4326359131373465_9_" fill="none"/></g><g id="ID0.15723733883351088_14_" stroke="#8e5322" stroke-width="1.4" stroke-linecap="round" stroke-linejoin="round"><path d="M242.6,215.9c0,0 -5.7,9.9 -6.8,14c-0.5,2 -1.6,2.8 -3.7,2.5c-2.2,-0.3 -6.7,-1.6 -6,-4c2.1,-7.3 3.1,-2 4.9,-5.4c4.1,-7.8 4.3,-13.2 4.3,-13.2" id="ID0.527006761636585_14_" fill="#ffffff"/><path d="M229.8,224c0,0 3.7,0 4.9,2.4" id="ID0.8937406223267317_19_" fill="#faa51f"/></g><path d="M232.2,211c16.3,-13.4 1.7,-19.3 1.7,-19.3c18.1,6 3.2,20.8 -1.2,22.3" id="ID0.48627097019925714_9_" fill="#518943" stroke="#426c36" stroke-width="1.4" stroke-linecap="round" stroke-linejoin="round"/><path d="M251.8,205.4c4.6,-8.6 -5.8,-13 -5.8,-13c11.3,3.3 10.1,9.2 7.7,14.4" id="ID0.07006075512617826_9_" fill="#518943" stroke="#426c36" stroke-width="1.4" stroke-linecap="round" stroke-linejoin="round"/><path d="M234.1,203c5.7,-1.5 8.5,1.7 8.3,3.4c-0.4,4 -5.1,5.6 -13.5,3.2" id="ID0.1790580078959465_9_" fill="#ffffff" stroke="#8e5322" stroke-width="1.4" stroke-linecap="round" stroke-linejoin="round"/><path d="M258.9,210c-5.4,4 -9.1,0.2 -7.7,-2.8c1,-2.1 2.6,-4.4 5.7,-2.8" id="ID0.7947451807558537_9_" fill="#ffffff" stroke="#8e5322" stroke-width="1.4" stroke-linecap="round" stroke-linejoin="round"/><g id="ID0.161098456941545"><g id="Layer_2_19_"><path d="M255.7,146.4l7.9,-6.3l1.7,11.4c0,0 5.7,5.2 7.3,8.6c2.5,5.6 2.2,9.9 2.2,9.9c0,0 6.7,2.8 7.3,8.4c0.7,5.6 -4.6,15.6 -23.1,17.4c-18.5,1.8 -32.5,-4.5 -38.2,-16.2c-5.7,-11.7 6.4,-23.7 5.7,-23l-0.4,-18.4l11.7,9.4c0,0 4.4,-1.3 9,-1c1.8,0 4.8,0.6 6.3,0.8z" id="ID0.2591130444779992_9_" fill="#faa51f" stroke="none" stroke-width="1" stroke-linecap="butt" stroke-linejoin="miter"/><path d="M274.5,170.5c0,0 6.4,2.2 7.1,7.8c0.9,5.7 -5,15.5 -22.4,16.9c-4,0.3 -7.5,0.6 -13,0.1c-8.5,-0.7 -17.2,-6.9 -15.4,-17.9c1,-6.3 9,-5 9,-5l7.2,-1.1c0,0 6.9,2.3 11.1,1.9c4.3,-0.5 4.6,-3.8 4.6,-3.8l9,-1.7l2.2,2.2z" id="ID0.3588979784399271_9_" fill="#ffffff" stroke="none" stroke-width="1" stroke-linecap="butt" stroke-linejoin="miter"/><path d="M289.6,172.3c0,0 -1.9,1.5 -4.5,2.3c-2.3,0.6 -6.7,1.1 -6.7,1.1" id="ID0.2727069961838424_9_" fill="none" stroke="#8e5322" stroke-width="1.4" stroke-linecap="round" stroke-linejoin="round"/><path d="M288.1,183.8c0,0 -1.8,0 -4.5,-0.5c-2.8,-0.4 -5.3,-1.7 -5.3,-1.7" id="ID0.5861211125738919_9_" fill="none" stroke="#8e5322" stroke-width="1.4" stroke-linecap="round" stroke-linejoin="round"/><path d="M235.6,145.8l4.8,4.1" id="ID0.4793355236761272_9_" fill="none" stroke="#8e5322" stroke-width="1.4" stroke-linecap="round" stroke-linejoin="round"/><path d="M255.7,146.4l7.9,-6.3l1.7,11.4c0,0 5.7,5.2 7.3,8.6c2.5,5.6 2.2,9.9 2.2,9.9c0,0 6.7,2.8 7.3,8.4c0.7,5.6 -4.6,15.6 -23.1,17.4c-18.5,1.8 -32.5,-4.5 -38.2,-16.2c-5.7,-11.7 6.4,-23.7 5.7,-23l-0.4,-18.4l11.7,9.4c0,0 4.4,-1.3 9,-1c1.8,0 4.8,0.6 6.3,0.8z" id="ID0.48413723474368453_9_" fill="none" stroke="#8e5322" stroke-width="1.4" stroke-linecap="round" stroke-linejoin="round"/><path d="M220.6,174.9c0,0 -3.5,0 -5.3,-0.2c-1.8,-0.2 -5.7,-1.2 -5.7,-1.2" id="ID0.9024141579866409_9_" fill="none" stroke="#8e5322" stroke-width="1.4" stroke-linecap="round" stroke-linejoin="round"/><path d="M210.2,163.8c0,0 2.1,0.8 5.7,3.2c3.3,2.1 5.3,4.2 5.3,4.2" id="ID0.16030752705410123_9_" fill="none" stroke="#8e5322" stroke-width="1.4" stroke-linecap="round" stroke-linejoin="round"/></g><g id="Layer_5_10_"><path d="M270.4,160.1c2.4,4.6 2,9.5 -0.9,11c-2.9,1.5 -7.1,-1 -9.5,-5.7c-2.4,-4.6 -2,-9.5 0.9,-11c2.9,-1.4 7.1,1.1 9.5,5.7z" id="ID0.40023312577977777_9_" fill="#ffffff" stroke="#8e5322" stroke-width="1.4" stroke-linecap="round" stroke-linejoin="round"/><path d="M269.9,163.6c0.2,1 -0.4,2 -1.4,2.2c-0.9,0.2 -1.9,-0.5 -2.1,-1.6c-0.2,-1 0.4,-2 1.4,-2.2c1.1,-0.1 1.9,0.6 2.1,1.6" id="ID0.43813491938635707_9_" fill="#414142" stroke="none" stroke-width="1" stroke-linecap="butt" stroke-linejoin="miter"/></g><g id="Layer_7_10_"><path d="M247,160.8c2.4,4.6 1.5,9.7 -1.9,11.5c-3.4,1.8 -8.1,-0.5 -10.4,-5.2c-2.4,-4.6 -1.5,-9.7 1.8,-11.5c3.5,-1.6 8.2,0.7 10.5,5.2z" id="ID0.4253597157076001_9_" fill="#ffffff" stroke="#8e5322" stroke-width="1.4" stroke-linecap="round" stroke-linejoin="round"/><path d="M246.3,164.7c-0.1,1 -1,1.8 -1.9,1.7c-1,-0.1 -1.6,-1 -1.5,-2.1c0.1,-1 1,-1.8 1.9,-1.7c0.9,0.1 1.6,1 1.5,2.1" id="ID0.814307457767427_9_" fill="#414142" stroke="none" stroke-width="1" stroke-linecap="butt" stroke-linejoin="miter"/></g><path d="M257,171.8c1.7,0 4.1,-1.1 4.2,0.8c-0.1,0.8 -2,3.9 -3.8,3.8c-2,-0.1 -5.2,-2.9 -5,-4.4c0.3,-1.4 3.1,-0.2 4.6,-0.2z" id="ID0.5240494590252638_9_" fill="#5f4b43" stroke="#8e5322" stroke-width="1.4" stroke-linecap="round" stroke-linejoin="round"/><path d="M254.1,188.2c-5.4,0.5 -7.7,-2 -7.7,-2" id="ID0.046259244438260794_9_" fill="#ffffff" stroke="#8e5322" stroke-width="1.4" stroke-linecap="round" stroke-linejoin="round"/></g></g></g></svg>