<svg version="1.1" xmlns="http://www.w3.org/2000/svg" xmlns:xlink="http://www.w3.org/1999/xlink" width="118.1008" height="48.66752" viewBox="0,0,118.1008,48.66752"><g transform="translate(-117.26361,-171.67209)"><g data-paper-data="{&quot;isPaintingLayer&quot;:true}" fill-rule="nonzero" stroke="#24ff00" stroke-linejoin="miter" stroke-miterlimit="10" stroke-dasharray="" stroke-dashoffset="0" style="mix-blend-mode: normal"><path d="M118.76361,213.24767c0,-10.11942 0,-30.88659 0,-35.88162c0,-2.12137 1.85317,-4.19396 4.19396,-4.19396c10.38199,0 85.35708,0 105.78089,0c3.25633,0 5.12595,2.33655 5.12595,4.65995c0,5.06384 0,24.82236 0,34.94963c0,3.65686 -2.78966,6.05794 -6.05794,6.05794c-12.22021,0 -87.59326,0 -105.31489,0c-2.38692,0 -3.72796,-2.19662 -3.72796,-5.59194z" fill="#020202" stroke-width="3" stroke-linecap="butt"/><path d="M144.85933,213.71366h-11.18388v-34.01764" fill="none" stroke-width="2.5" stroke-linecap="round"/><path d="M162.56723,196.00585c0,9.77976 0.21069,17.70781 -7.19994,17.70781c-7.41063,0 -7.19993,-7.92806 -7.19993,-17.70781c0,-9.77976 -0.2107,-17.70781 7.19993,-17.70781c7.41063,0 7.19994,7.92806 7.19994,17.70781z" fill="none" stroke-width="2.5" stroke-linecap="butt"/><path d="M177.73609,206.77563c0,0 0.01729,7.47192 -5.75547,7.41491c-4.41037,-0.04356 -6.69054,-11.1083 -5.82208,-23.89066c0.79278,-11.66848 7.84959,-11.01797 7.84959,-11.01797" fill="none" stroke-width="2.5" stroke-linecap="round"/><path d="M183.32805,214.23155l6.98993,-35.88162l9.7859,33.55165" fill="none" stroke-width="2.5" stroke-linecap="round"/><path d="M194.51193,196.98973h-7.45592" fill="none" stroke-width="2.5" stroke-linecap="round"/><path d="M218.02059,213.24767h-11.18388v-34.01764" fill="none" stroke-width="2.5" stroke-linecap="round"/></g></g></svg>