<svg xmlns="http://www.w3.org/2000/svg" xmlns:xlink="http://www.w3.org/1999/xlink" version="1.1" width="110.22000122070312" height="69.7300033569336" viewBox="-0.5 -0.75 110.22000122070312 69.7300033569336">
  <defs>
    <linearGradient id="grad_1" x1="30.876" y1="21.125" x2="30.876" y2="48.8809" gradientUnits="userSpaceOnUse">
      <stop offset="0" stop-color="#FFFDF0"/>
      <stop offset="1" stop-color="#E6DE91"/>
    </linearGradient>
    <linearGradient id="grad_2" x1="79.0459" y1="21.125" x2="79.0459" y2="48.8809" gradientUnits="userSpaceOnUse">
      <stop offset="0" stop-color="#FFFDF0"/>
      <stop offset="1" stop-color="#E6DE91"/>
    </linearGradient>
    <linearGradient id="grad_3" x1="28.876" y1="30.125" x2="28.876" y2="37.708" gradientUnits="userSpaceOnUse">
      <stop offset="0" stop-color="#FFFDF0"/>
      <stop offset="1" stop-color="#FFFFFF"/>
    </linearGradient>
    <linearGradient id="grad_4" x1="76.876" y1="30.125" x2="76.876" y2="37.708" gradientUnits="userSpaceOnUse">
      <stop offset="0" stop-color="#FFFDF0"/>
      <stop offset="1" stop-color="#FFFFFF"/>
    </linearGradient>
  <linearGradient id="grad_1-,0,0,1,0.25,0" x1="31.126" y1="21.125" x2="31.126" y2="48.8809" gradientUnits="userSpaceOnUse">
      <stop offset="0" stop-color="#FFFDF0"/>
      <stop offset="1" stop-color="#E6DE91"/>
    </linearGradient><linearGradient id="grad_2-,0,0,1,0.25,0" x1="79.2959" y1="21.125" x2="79.2959" y2="48.8809" gradientUnits="userSpaceOnUse">
      <stop offset="0" stop-color="#FFFDF0"/>
      <stop offset="1" stop-color="#E6DE91"/>
    </linearGradient><linearGradient id="grad_3-,0,0,1,0.25,0" x1="29.126" y1="30.125" x2="29.126" y2="37.708" gradientUnits="userSpaceOnUse">
      <stop offset="0" stop-color="#FFFDF0"/>
      <stop offset="1" stop-color="#FFFFFF"/>
    </linearGradient><linearGradient id="grad_4-,0,0,1,0.25,0" x1="77.126" y1="30.125" x2="77.126" y2="37.708" gradientUnits="userSpaceOnUse">
      <stop offset="0" stop-color="#FFFDF0"/>
      <stop offset="1" stop-color="#FFFFFF"/>
    </linearGradient></defs>
  <!-- Exported by Scratch - http://scratch.mit.edu/ -->
  <g id="ID0.8065986605361104">
    <path id="ID0.033297700341790915_17_" fill="none" d="M 0.25 0 L 108.97 0 L 108.97 68.23 L 0.25 68.23 L 0.25 0 Z " stroke-width="1"/>
    <path id="ID0.45551669085398316" fill="url(#grad_1-,0,0,1,0.25,0)" stroke="#000000" stroke-width="1.5" d="M 38.22 31.13 L 31.12 21.13 L 24.02 31.13 L 24.02 47 C 26.53 49.51 35.71 49.51 38.22 47 L 38.22 31.13 Z "/>
    <path id="ID0.7971681752242148" fill="url(#grad_2-,0,0,1,0.25,0)" stroke="#000000" stroke-width="1.5" d="M 86.39 31.13 L 79.29 21.13 L 72.19 31.13 L 72.19 47 C 74.7 49.51 83.88 49.51 86.39 47 L 86.39 31.13 Z "/>
    <path id="ID0.8921632687561214" fill="url(#grad_3-,0,0,1,0.25,0)" d="M 31.37 35.76 C 31.37 36.84 30.37 37.71 29.13 37.71 L 29.13 37.71 C 27.89 37.71 26.89 36.84 26.89 35.76 L 26.89 32.07 C 26.89 30.99 27.89 30.12 29.13 30.12 L 29.13 30.12 C 30.37 30.12 31.37 30.99 31.37 32.07 L 31.37 35.76 Z " stroke-width="1"/>
    <path id="ID0.7150342641398311" fill="url(#grad_4-,0,0,1,0.25,0)" d="M 79.37 35.76 C 79.37 36.84 78.37 37.71 77.13 37.71 L 77.13 37.71 C 75.89 37.71 74.89 36.84 74.89 35.76 L 74.89 32.07 C 74.89 30.99 75.89 30.12 77.13 30.12 L 77.13 30.12 C 78.37 30.12 79.37 30.99 79.37 32.07 L 79.37 35.76 Z " stroke-width="1"/>
  </g>
</svg>