<svg version="1.1" xmlns="http://www.w3.org/2000/svg" xmlns:xlink="http://www.w3.org/1999/xlink" width="350.15575" height="332.05327" viewBox="0,0,350.15575,332.05327"><g transform="translate(-64.92213,-13.97336)"><g data-paper-data="{&quot;isPaintingLayer&quot;:true}" fill-rule="nonzero" stroke="none" stroke-width="0.5" stroke-linecap="butt" stroke-linejoin="miter" stroke-miterlimit="10" stroke-dasharray="" stroke-dashoffset="0" style="mix-blend-mode: normal"><path d="M327.14125,31.87544l1.32669,0.47625l0.12171,0.01909l0.98706,0.37602l4.60202,0.57525l2.13766,0.48706l0.2743,0.01991l0.70265,0.20269l0.71302,0.16246l0.24971,0.11525l2.10656,0.60766l1.46798,0.58719l0.1535,0.01535l1.77027,0.56327l1.83527,0.28789l3.66855,1.39754l0.36183,0.18092l0.95783,0.30476l0.04278,0.03695l0.36291,0.12097l1.61784,0.72524l1.65681,0.63116l2,1l1.31434,0.83011l1.37283,0.72932l3,2l1.90357,1.56364l1.9066,1.55994l5,5l1.55994,1.9066l1.56364,1.90357l0.62685,0.94027l0.24957,0.24957l2.48592,3.03835l0.04002,0.07738l0.06075,0.06244l2.07463,3.28483l0.59498,0.79331l0.74369,0.74369l2.48592,3.03835l0.04002,0.07738l0.06075,0.06244l0.70034,1.10887l0.71297,0.71297l1.1227,1.37219l1.19963,1.30548l4.93398,6.57864l0.74369,0.74369l1.1227,1.37219l1.19963,1.30548l1.93398,2.57864l0.74369,0.74369l1.1227,1.37219l1.19963,1.30548l1.15975,1.54633l0.03042,0.02142l0.06678,0.10819l1.74305,2.32406l2.03125,3.35938l0.34517,0.99011l0.55077,0.89225l1.32637,3.69488l0.51416,2.05663l1.04187,2.43102l0.06541,0.07574l0.09498,0.29852l1.00864,2.3535l1.17971,3.74428l0.10906,1.12263l0.34199,1.07482l0.21102,2.11018l0.43317,1.73268l0.08637,0.59016l0.17459,0.57032l0.88333,4.41665l0.85572,3.42286l0.2815,1.92359l0.07431,0.23355l0.0866,0.86604l0.12603,0.86118l-0.01545,0.2446l0.19344,1.93443v37l-0.24512,2.45122l-0.24036,2.45169l-0.51452,2.57258v3.52451l-0.39062,3.90625l-0.02641,0.08302l-0.00119,0.08711l-0.58177,2.5764v2.34723l-0.24512,2.45122l-0.24036,2.45169l-1,5l-0.71179,2.32519l-0.0445,0.2837l-0.21557,0.56588l-0.17725,0.57902l-0.13905,0.25126l-0.86567,2.27239l-0.20544,0.41088l-1.44909,4.34727l-0.09678,0.96776l-0.56327,1.77027l-0.28789,1.83527l-1.39754,3.66855l-0.18092,0.36183l-0.30476,0.95783l-0.41361,0.47891l-1.10071,2.20143l-0.83011,1.31434l-0.72932,1.37283l-0.14289,0.21434l-0.30539,0.91618l-0.04618,0.63111l-0.46179,0.89279l-0.12793,0.38378l-1.60584,3.58227l-1.09417,1.5013l-0.85348,1.65006l-1.36903,1.67326l-2.43388,4.86776l-0.83011,1.31434l-0.72932,1.37283l-3.13664,4.70496l-0.30394,0.60787l-0.83011,1.31434l-0.72932,1.37283l-3.13664,4.70496l-0.30394,0.60787l-2.09631,3.31916l-0.06075,0.06244l-0.04002,0.07738l-2.48592,3.03835l-0.32378,0.32378l-1.69865,2.83109l-0.12054,0.43481l-0.56138,0.70172l-0.53599,0.89332l-2.34471,3.14861l-1.19588,1.05379l-0.99572,1.24465l-2.72111,2.2352l-0.98045,1.22557l-1.3982,2.0973l-1.56364,1.90357l-1.55994,1.9066l-1.24957,1.24957l-0.62685,0.94027l-1.56364,1.90357l-1.55994,1.9066l-0.24957,0.24957l-1.76349,2.64523l-0.30394,0.60787l-2.09631,3.31916l-1.02524,1.05371l-0.81551,1.22326l-2.80625,2.74524l-1.08063,0.86451l-0.56132,0.57691l-0.33354,0.13897l-3.02451,2.41961l-3.29429,2.13519l-0.44762,0.17191l-0.3875,0.28242l-3.31341,1.48532l-3.30704,2.2047l-1.37283,0.72932l-1.31434,0.83011l-5.14124,2.57062l-3.7037,2.22222l-0.8354,0.72148l-1.73751,0.55284l-1.45065,0.68427l-2.73114,0.6463l-2.67445,0.85096l-1.59598,0.1596l-1.77434,0.41988l-1.08754,-0.18885h-0.79988l-8.90602,1.90843l-2.2307,0.84979l-1.83527,0.28789l-1.67123,0.53176l-0.10643,0.05449l-0.19666,0.05333l-0.19041,0.07254l-0.18282,0.02868l-3.219,0.87295l-6,1l-0.08973,0.00588l-0.11455,0.05135l-3,1l-2.62253,0.59218l-0.97058,0.48529l-1.67326,1.36903l-0.07738,0.04002l-0.06244,0.06075l-3.31916,2.09631l-2.20143,1.10071l-0.47891,0.41361l-0.95783,0.30476l-0.36183,0.18092l-3.66855,1.39754l-1.83527,0.28789l-1.77027,0.56327l-3.90625,0.39063h-0.40454l-0.993,0.15576l-0.61332,-0.15576h-0.91149l-0.0828,0.0207l-2.08915,0.69638l-3.82932,0.86469l-0.08711,0.00119l-0.08302,0.02641l-3.90625,0.39063h-4.92236l-1.01425,0.25356l-0.98886,0.14471l-0.96455,0.26157l-6,1l-0.29114,0.01909l-0.2833,0.0698l-7,1l-1.77138,0.07485l-0.81318,0.08132l-0.72684,0.14537l-0.40282,0.20329l-0.89686,0.05664l-1.02155,0.20431l-3.907,0.38304l-1.58418,-0.17602l-1.59076,0.10047l-3.88436,-0.56844l-1.01068,-0.25267l-0.00803,-0.00089h-6.90703l-0.61332,0.15576l-0.993,-0.15576h-0.40454l-3.90625,-0.39062l-1.77027,-0.56327l-1.83527,-0.28789l-2.35128,-0.89573l-15.56019,-3.45782l-1.22466,-0.40358l-1.25778,-0.28401l-2.08915,-0.69638l-3.06855,-0.76714l-1.32669,-0.47625l-0.12171,-0.01909l-1.11922,-0.42637l-1.12726,-0.40466l-0.10483,-0.06471l-1.31724,-0.50181l-0.10283,-0.05141l-2.62253,-0.59218l-3,-1l-3.58227,-1.60584l-0.0704,-0.05131l-0.08226,-0.02868l-3.35937,-2.03125l-6.21467,-4.661l-1.864,-1.17726l-1.92133,-1.16173l-4,-3l-1.30548,-1.19963l-1.37219,-1.1227l-16.74369,-16.74369l-0.77524,-0.58143l-1.98374,-0.99187l-1.07017,-0.6759l-0.07257,-0.02787l-1.08412,-0.70267l-1.0923,-0.68987l-0.05572,-0.05421l-1.06215,-0.68843l-5,-4l-0.98924,-0.96773l-1.07106,-0.87632l-6,-6l-2.48592,-3.03835l-0.04002,-0.07738l-0.06075,-0.06244l-2.09631,-3.31916l-4,-8l-0.63116,-1.65681l-0.72524,-1.61784l-0.43816,-1.31448l-2.63932,-5.27863l-1.36903,-1.67326l-0.04002,-0.07738l-0.06075,-0.06244l-2.09631,-3.31916l-1.10071,-2.20143l-0.41361,-0.47891l-0.30476,-0.95783l-0.18092,-0.36183l-1.39754,-3.66855l-0.19949,-1.27174l-0.22205,-0.69788l-0.18092,-0.36183l-1.39754,-3.66855l-0.28789,-1.83527l-0.56327,-1.77027l-0.09678,-0.96776l-0.01093,-0.03279l-0.86469,-3.82932l-0.00119,-0.08711l-0.02641,-0.08302l-0.39062,-3.90625v-24.98913l-0.15576,-0.61332l0.15576,-0.993v-0.40454l0.39063,-3.90625l0.56327,-1.77027l0.28789,-1.83527l0.46689,-1.22559l0.29133,-2.03931v-0.2233l0.39063,-3.90625l0.02641,-0.08302l0.00119,-0.08711l0.86469,-3.82932l0.00958,-0.02873l0.19299,-1.96848l2,-10l0.71179,-2.32519l0.0445,-0.2837l0.21557,-0.56588l0.17725,-0.57902l0.13905,-0.25126l0.41571,-1.09123l-0.01136,-0.17985l0.12603,-0.86118l0.0866,-0.86604l0.07431,-0.23355l0.2815,-1.92359l1,-4l0.57223,-1.59407l0.46942,-1.62731l0.45386,-1.13465l0.14868,-1.48684l0.56327,-1.77027l0.28789,-1.83527l1.39754,-3.66855l0.18092,-0.36183l0.30476,-0.95783l0.03695,-0.04278l0.94919,-2.84757l0.966,-3.381l0.31349,-3.13491l0.56327,-1.77027l0.28789,-1.83527l1.39754,-3.66855l0.18092,-0.36183l0.30476,-0.95783l0.03695,-0.04278l1.12097,-3.36291l0.72524,-1.61784l0.00306,-0.00803l0.47427,-2.37134l1.14912,-3.75379l0.17165,-0.31017l0.08164,-0.34497l1.67479,-3.55056l2.50602,-4.1767l2.57062,-5.14124l2.09631,-3.31916l0.06075,-0.06244l0.04002,-0.07738l2.48592,-3.03835l0.74369,-0.74369l1.93398,-2.57864l1.19963,-1.30548l1.1227,-1.37219l14,-14l3.03835,-2.48592l0.07738,-0.04002l0.06244,-0.06075l2.12735,-1.34359l4.37339,-3.74862l10.32109,-10.32109l1.37219,-1.1227l1.30548,-1.19963l1.80456,-1.35342l2.218,-2.58766l0.01431,-0.03435l0.09112,-0.08866l1.8906,-2.2057l2.83874,-2.71163l0.89165,-0.55174l0.75152,-0.73121l1.10887,-0.70034l7.71297,-7.71297l3.03835,-2.48592l0.07738,-0.04002l0.06244,-0.06075l3.31916,-2.09631l0.86776,-0.43388l1.67326,-1.36903l1.65006,-0.85348l1.5013,-1.09417l3.58227,-1.60584l0.38378,-0.12793l0.89279,-0.46179l0.63111,-0.04618l4.09232,-1.36411l1.90793,-0.43082l1.88779,-0.51194l6,-1l1.28545,-0.08429l1.23331,-0.4111l0.41088,-0.20544l1.31724,-0.50181l0.10483,-0.06471l1.12726,-0.40466l1.11922,-0.42637l0.12171,-0.01909l1.32669,-0.47625l3.06855,-0.76714l5.08915,-1.69638l3.82932,-0.86469l0.08711,-0.00119l0.08302,-0.02641l3.90625,-0.39062h0.34723l2.5764,-0.58177l0.08711,-0.00119l0.08302,-0.02641l3.90625,-0.39062h12l3.90625,0.39063l0.08302,0.02641l0.02058,0.00028l0.0839,-0.0267l0.86604,-0.0866l0.86118,-0.12603l0.2446,0.01545l1.93443,-0.19344h12.98913l0.61332,-0.15576l0.993,0.15576h0.40454l3.90625,0.39063l1.77027,0.56327l1.83527,0.28789l0.03346,0.01275l1.361,0.1361l0.08302,0.02641l0.08711,0.00119l3.60033,0.81298l0.02984,-0.00125l0.59716,0.10041l0.60254,0.06025l0.27365,0.08707l2.39804,0.40321l4.10335,1.1191h9.30785l0.61332,-0.15576l0.993,0.15576h0.40454l3.90625,0.39063l1.77027,0.56327l1.83527,0.28789l0.38939,0.14834l0.00506,0.00051l0.78498,0.24977l0.8216,0.05963l3.77194,1.08806l1.46798,0.58719l0.1535,0.01535l1.77027,0.56327l1.83527,0.28789l3.66855,1.39754l0.36183,0.18092l0.95783,0.30476l0.47891,0.41361l2.20143,1.10071l3.31916,2.09631l0.06244,0.06075l0.07738,0.04002l2.25615,1.84594l0.97203,0.51639l0.59694,0.39796z" fill="#aab1aa"/><path d="M237.5,180c0,-1.38071 1.11929,-2.5 2.5,-2.5c1.38071,0 2.5,1.11929 2.5,2.5c0,1.38071 -1.11929,2.5 -2.5,2.5c-1.38071,0 -2.5,-1.11929 -2.5,-2.5z" fill="#b900ff"/></g></g></svg>