<svg version="1.1" xmlns="http://www.w3.org/2000/svg" xmlns:xlink="http://www.w3.org/1999/xlink" width="190.33333" height="118.33333" viewBox="0,0,190.33333,118.33333"><g transform="translate(-144.83333,-120.83333)"><g data-paper-data="{&quot;isPaintingLayer&quot;:true}" fill-rule="nonzero" stroke="none" stroke-width="0" stroke-linejoin="miter" stroke-miterlimit="10" stroke-dasharray="" stroke-dashoffset="0" style="mix-blend-mode: normal"><path d="M210.50358,163.58442c10.16522,0 18.40577,8.24054 18.40577,18.40577c0,10.16522 -8.24054,18.40577 -18.40577,18.40577c-10.16522,0 -18.40577,-8.24054 -18.40577,-18.40577c0,-10.16522 8.24054,-18.40577 18.40577,-18.40577z" data-paper-data="{&quot;index&quot;:null}" fill="#ffffff" stroke-linecap="butt"></path><path d="M228.90934,181.53381c-9.57877,0 -17.3439,-5.96911 -17.3439,-13.33238c0,-7.36327 7.76513,-13.33238 17.3439,-13.33238c9.57877,0 17.3439,5.96911 17.3439,13.33238c0,7.36327 -7.76513,13.33238 -17.3439,13.33238z" data-paper-data="{&quot;index&quot;:null}" fill="#ffffff" stroke-linecap="butt"></path><path d="M252.97843,159.3525c7.94973,0 14.39425,6.44453 14.39425,14.39425c0,7.94973 -6.44453,14.39425 -14.39425,14.39425c-7.94973,0 -14.39425,-6.44453 -14.39425,-14.39425c0,-7.94973 6.44453,-14.39425 14.39425,-14.39425z" data-paper-data="{&quot;index&quot;:null}" fill="#ffffff" stroke-linecap="butt"></path><path d="M251.44461,202.2993c-20.13496,0 -36.45758,-6.55018 -36.45758,-14.63023c0,-8.08005 16.32261,-14.63023 36.45758,-14.63023c20.13496,0 36.45758,6.55018 36.45758,14.63023c0,8.08005 -16.32261,14.63023 -36.45758,14.63023z" data-paper-data="{&quot;index&quot;:null}" fill="#ffffff" stroke-linecap="butt"></path><path d="M224.54387,205.13095c-6.84198,0 -12.3885,-2.6412 -12.3885,-5.89928c0,-3.25808 5.54652,-5.89928 12.3885,-5.89928c6.84198,0 12.3885,2.6412 12.3885,5.89928c0,3.25808 -5.54652,5.89928 -12.3885,5.89928z" data-paper-data="{&quot;index&quot;:null}" fill="#ffffff" stroke-linecap="butt"></path><path d="M335.16667,180l-190.33333,0" fill="none" stroke-linecap="round"></path><path d="M240,120.83333v118.33333" fill="none" stroke-linecap="round"></path></g></g></svg>