<svg xmlns="http://www.w3.org/2000/svg" xmlns:xlink="http://www.w3.org/1999/xlink" version="1.1" width="71.5" height="102.83000183105469" viewBox="-0.75 -0.75 71.5 102.83000183105469">
  <!-- Exported by Scratch - http://scratch.mit.edu/ -->
  <g id="ID0.5205010510981083">
    <path id="ID0.4177084397524595_21_" fill="none" d="M 0 0 L 70 0 L 70 101.330 L 0 101.330 L 0 0 Z " stroke-width="1"/>
    <path id="ID0.09093367448076606" fill="#FCEE21" stroke="#807B3A" d="M 14 21.330 L 20.160 21.330 L 20.160 79.660 L 14 79.660 L 14 21.330 Z " stroke-width="1"/>
    <path id="ID0.113030054140836" fill="#FCEE21" stroke="#807B3A" d="M 26.170 87.330 L 17.100 88.330 L 8.030 87.330 L 9.320 79.670 L 24.880 79.670 L 26.170 87.330 " stroke-width="1"/>
    <path id="ID0.863410821184516" fill="none" stroke="#FFFFFF" stroke-width="1.5" d="M 16 23 L 16 74.670 "/>
    <path id="ID0.18381580151617527" fill="none" stroke="#FFFFFF" stroke-width="1.5" d="M 12.110 81 L 19.900 81 "/>
    <path id="ID0.5000806106254458" fill="#FCEE21" stroke="#807B3A" d="M 17.030 12.180 C 18.451 12.180 19.738 12.757 20.671 13.689 C 21.603 14.622 22.180 15.909 22.180 17.330 C 22.180 18.751 21.603 20.038 20.671 20.971 C 19.738 21.903 18.451 22.480 17.030 22.480 C 15.609 22.480 14.322 21.903 13.389 20.971 C 12.457 20.038 11.880 18.751 11.880 17.330 C 11.880 15.909 12.457 14.622 13.389 13.689 C 14.322 12.757 15.609 12.180 17.030 12.180 Z " stroke-width="1"/>
    <path id="ID0.5522831776179373" fill="#FFFFFF" d="M 15.440 14.190 C 15.870 14.190 16.260 14.365 16.543 14.647 C 16.825 14.930 17 15.320 17 15.750 C 17 16.180 16.825 16.570 16.543 16.853 C 16.260 17.135 15.870 17.310 15.440 17.310 C 15.010 17.310 14.620 17.135 14.337 16.853 C 14.055 16.570 13.880 16.180 13.880 15.750 C 13.880 15.320 14.055 14.930 14.337 14.647 C 14.620 14.365 15.010 14.190 15.440 14.190 Z " stroke-width="1"/>
    <path id="ID0.7732032840140164" fill="#FFC369" stroke="#875608" d="M 50.500 30.670 C 52.170 33.250 53.830 35.620 55.500 37.670 C 53.830 40.950 52.170 43.920 50.500 46.670 C 52.170 49.230 53.830 51.560 55.500 53.580 C 43.720 58.430 31.940 47.710 20.160 52.940 C 20.160 42.330 20.160 31.720 20.160 21.110 C 31.940 15.890 43.720 26.600 55.500 21.750 C 53.840 25 52.170 27.940 50.500 30.670 Z " stroke-width="1"/>
    <path id="ID0.4392298269085586" fill="#FAA51D" stroke="#231F20" stroke-width="0.6" d="M 36.380 29.460 C 35.890 29.290 34.860 29 34.290 28.910 C 32.770 28.660 31.340 29.020 31.340 29.020 C 29.950 27.870 28.560 26.810 27.170 25.880 C 27.410 27.980 27.650 30.090 27.890 32.210 C 28.100 31.890 24.510 36.590 26.780 40.320 C 29.050 43.930 33.900 46.400 39.910 46.740 C 45.920 46.880 47.350 43.030 46.950 41.170 C 46.550 39.260 44.280 38.260 44.280 38.240 C 44.280 38.240 44.250 36.740 43.210 34.720 C 42.590 33.530 40.540 31.480 40.540 31.470 C 40.230 30.110 39.930 28.750 39.620 27.390 C 38.820 28.010 38.030 28.610 37.230 29.230 C 36.940 29.300 36.660 29.380 36.380 29.460 L 36.380 29.460 Z "/>
    <path id="ID0.9654217027127743" fill="#FFFFFF" d="M 43.970 38.130 C 43.700 37.860 43.440 37.580 43.180 37.300 C 42.210 37.420 41.230 37.500 40.260 37.580 C 40.260 37.580 40.260 38.730 38.860 38.710 C 37.460 38.690 35.270 37.090 35.270 37.100 C 34.440 37.290 33.610 37.500 32.780 37.730 C 32.780 37.700 30.080 37.610 29.980 39.360 C 29.760 43.090 34.260 45.390 35.970 45.970 C 36.900 46.240 38.610 46.490 39.900 46.530 C 45.590 46.770 47.120 43.030 46.730 41.150 C 46.330 39.230 44.170 38.450 44.170 38.430 C 44.100 38.320 44.040 38.220 43.970 38.130 L 43.970 38.130 Z " stroke-width="1"/>
    <path id="ID0.8472942560911179" fill="none" stroke="#231F20" stroke-width="0.6" d="M 22.910 39.380 C 22.910 39.370 24.220 39.200 24.820 39.110 C 25.420 38.980 26.580 38.760 26.580 38.760 "/>
    <path id="ID0.09300332888960838" fill="none" stroke="#231F20" stroke-width="0.6" d="M 45.650 40.240 C 45.650 40.250 47.110 40.150 47.850 39.890 C 48.720 39.610 49.300 39.040 49.300 39.040 "/>
    <path id="ID0.2992403917014599" fill="none" stroke="#231F20" stroke-width="0.6" d="M 26.650 37.450 C 26.650 37.460 25.890 36.860 24.690 36.470 C 23.370 36.050 22.640 36.120 22.640 36.110 "/>
    <path id="ID0.4419950060546398" fill="none" stroke="#231F20" stroke-width="0.6" d="M 45.790 42.250 C 45.790 42.250 46.660 42.720 47.560 42.860 C 48.450 42.990 49.050 42.920 49.050 42.920 "/>
    <path id="ID0.800627947319299" fill="none" stroke="#000000" stroke-width="0.5" stroke-linecap="round" d="M 36.260 29.450 C 37.170 29.900 37.500 30.240 37.500 30.240 "/>
    <path id="ID0.22304237633943558" fill="none" stroke="#000000" stroke-width="0.5" d="M 30.350 28.160 C 31 28.720 31.640 29.300 32.290 29.900 "/>
    <path id="ID0.32445673644542694" fill="#FFFFFF" stroke="#231F20" stroke-width="0.5" d="M 42.500 34.620 C 43.440 36.300 43.470 38.010 42.580 38.450 C 41.680 38.890 40.200 37.830 39.260 36.110 C 38.320 34.390 38.290 32.670 39.180 32.270 C 40.080 31.870 41.570 32.930 42.500 34.620 L 42.500 34.620 Z "/>
    <path id="ID0.11882243724539876" fill="#231F20" d="M 42.260 36.960 C 42.260 37.320 42 37.560 41.680 37.500 C 41.360 37.430 41.100 37.080 41.100 36.720 C 41.100 36.360 41.360 36.120 41.680 36.190 C 42.010 36.250 42.260 36.600 42.260 36.960 " stroke-width="1"/>
    <path id="ID0.14106792537495494" fill="#FFFFFF" stroke="#231F20" stroke-width="0.5" d="M 34.820 33.940 C 35.760 35.650 35.660 37.430 34.600 37.910 C 33.540 38.400 31.930 37.470 30.990 35.850 C 30.050 34.240 30.150 32.440 31.210 31.860 C 32.270 31.280 33.890 32.230 34.820 33.940 C 34.820 33.940 34.820 33.940 34.820 33.940 Z "/>
    <path id="ID0.25285458471626043" fill="#231F20" d="M 34.250 35.790 C 34.250 36.150 33.990 36.390 33.670 36.330 C 33.350 36.270 33.090 35.920 33.090 35.560 C 33.090 35.200 33.350 34.950 33.670 35.020 C 33.990 35.080 34.250 35.420 34.250 35.790 " stroke-width="1"/>
    <path id="ID0.287384451366961" fill="#5E4A42" stroke="#000000" stroke-width="0.5" d="M 38.640 37.950 C 39.230 38.090 40.100 38.200 40.140 38.500 C 40.180 38.800 39.590 39.780 39.180 39.730 C 38.770 39.680 37.220 38.470 37.200 37.940 C 37.170 37.400 38.090 37.810 38.640 37.950 L 38.640 37.950 Z "/>
    <path id="ID0.08666165359318256" fill="none" stroke="#231F20" stroke-width="0.6" d="M 34.470 39.420 C 34.470 39.400 37.780 41.200 39.020 41.790 C 40.260 42.380 42.500 43.140 42.500 43.130 C 42.500 43.150 39.940 46.030 36.950 44.410 C 33.960 42.840 34.020 40.920 34.470 39.420 L 34.470 39.420 Z "/>
  </g>
</svg>