<svg version="1.1" xmlns="http://www.w3.org/2000/svg" xmlns:xlink="http://www.w3.org/1999/xlink" width="373.74006" height="379.16586" viewBox="0,0,373.74006,379.16586"><defs><linearGradient x1="237.99881" y1="52.67138" x2="237.99881" y2="406.29211" gradientUnits="userSpaceOnUse" id="color-1"><stop offset="0" stop-color="#000000"/><stop offset="1" stop-color="#000000" stop-opacity="0"/></linearGradient><linearGradient x1="236.12459" y1="29.24315" x2="236.12459" y2="382.86389" gradientUnits="userSpaceOnUse" id="color-2"><stop offset="0" stop-color="#0089bf"/><stop offset="1" stop-color="#ffffff"/></linearGradient><linearGradient x1="229.86144" y1="248.66571" x2="229.86144" y2="383.58903" gradientUnits="userSpaceOnUse" id="color-3"><stop offset="0" stop-color="#53ad93"/><stop offset="1" stop-color="#00874f"/></linearGradient><linearGradient x1="241.18705" y1="14.11305" x2="241.18705" y2="372.70881" gradientUnits="userSpaceOnUse" id="color-4"><stop offset="0" stop-color="#ffffff"/><stop offset="1" stop-color="#ffffff" stop-opacity="0"/></linearGradient><linearGradient x1="266.27318" y1="215.57809" x2="244.03812" y2="-16.65652" gradientUnits="userSpaceOnUse" id="color-5"><stop offset="0" stop-color="#ffffff" stop-opacity="0"/><stop offset="1" stop-color="#ffffff"/></linearGradient></defs><g transform="translate(-49.21071,-27.12625)"><g data-paper-data="{&quot;isPaintingLayer&quot;:true}" fill-rule="nonzero" stroke="none" stroke-linecap="butt" stroke-linejoin="miter" stroke-miterlimit="10" stroke-dasharray="" stroke-dashoffset="0" style="mix-blend-mode: normal"><path d="M420.48746,227.82142c0,58.54548 9.14947,134.33922 -36.62674,165.7421c-29.11266,19.97154 -103.69001,7.68133 -142.05194,7.68133c-32.45404,0 -131.95625,12.62302 -158.18752,-2.05614c-53.52897,-29.9551 -20.49116,-107.08769 -20.49116,-171.36729c0,-54.03495 -6.07011,-123.319 33.84333,-155.12451c30.83473,-24.57103 101.82621,-18.29891 144.83535,-18.29891c46.24992,0 124.43168,-9.9717 156.16106,18.01246c35.97026,31.72447 22.51762,104.52148 22.51762,155.41097z" fill="url(#color-1)" stroke-width="0"/><path d="M418.61321,204.3932c0,58.54548 9.14947,134.33922 -36.62674,165.7421c-29.11266,19.97154 -103.69001,7.68133 -142.05194,7.68133c-32.45404,0 -131.95625,12.62302 -158.18752,-2.05614c-53.52897,-29.9551 -20.49116,-107.08769 -20.49116,-171.36729c0,-54.03495 -6.07011,-123.319 33.84333,-155.12451c30.83473,-24.57103 101.82621,-18.29891 144.83535,-18.29891c46.24992,0 124.43168,-9.9717 156.16106,18.01246c35.97026,31.72447 22.51762,104.52148 22.51762,155.41097z" fill="url(#color-2)" stroke-width="0"/><g fill="#ffe551" stroke-width="0.5"><path d="M248.4748,130.84456c2.02255,-0.57735 4.04942,-1.14844 6.11103,-1.14844c1.2873,0 2.48512,0.70869 3.76185,0.87341c4.00069,0.51614 9.42201,0.4556 12.66154,3.38394c1.63473,1.47769 1.41343,4.18435 2.34995,6.17905c0.22861,0.48692 0.8969,0.68067 1.10381,1.17721c0.53455,1.28275 0.93478,2.61179 1.30301,3.95387c2.03936,4.61237 3.55813,9.75123 5.0344,14.17303c2.83616,8.49499 5.72668,16.37257 5.74651,25.49811c0.02094,9.63458 -2.95596,18.65961 -4.66372,28.03785c-0.47707,2.61987 -1.07626,5.22007 -1.43828,7.85829c-0.40653,2.96265 -0.26951,5.99895 -0.86532,8.9294c-0.178,0.87548 -4.26529,12.92302 -4.73293,14.39c-0.68048,2.13462 -0.99828,4.4044 -1.95228,6.4316c-2.6622,5.65707 -7.63799,10.7129 -11.6155,15.43954c-5.3527,4.58769 -9.75444,7.77888 -16.02556,10.83151c-1.98805,0.96773 -3.86369,2.24607 -5.99205,2.84515c-5.03813,1.4181 -9.65673,1.14804 -14.75649,1.15538c-0.45471,0.00065 -11.01994,0.02434 -11.67694,-0.07043c-6.96228,-1.00424 -9.22801,-2.7181 -16.03922,-4.9c-7.27486,-2.33042 -13.69998,-3.08668 -20.13957,-7.51563c-2.1133,-1.45346 -2.90666,-4.37722 -5.01842,-5.83291c-1.32928,-0.91631 -3.0848,-1.27738 -4.15868,-2.48296c-2.71354,-3.04632 -3.43827,-7.40263 -4.9847,-11.17779c-1.51233,-3.69191 -4.58505,-7.05966 -6.41013,-10.54452c-1.15378,-2.20307 -1.95846,-4.57201 -2.93769,-6.85802c-1.59731,-7.10222 -2.68762,-10.27418 -2.7086,-17.81089c-0.02409,-8.65224 1.32119,-17.13313 2.87579,-25.58723c-0.06338,-3.0946 0.1484,-6.32419 0.17739,-9.29348c0.87044,-4.3522 0.61396,-8.19377 2.86224,-12.28805c0.88107,-1.60449 2.59927,-2.5901 3.73483,-4.02576c2.76732,-3.49867 5.87719,-6.58371 10.01126,-8.54848c3.28261,-3.77787 5.88282,-7.11893 10.24071,-9.95463c1.2656,-0.82353 2.82528,-1.12681 4.08203,-1.96379c1.06724,-0.71076 1.70962,-1.96908 2.8105,-2.62654c3.50165,-2.0912 7.74065,-2.98623 12.04986,-3.46966c3.60279,-2.10905 7.20181,-3.27892 11.32072,-4.32763c1.43451,-0.36524 2.82078,-1.05787 4.30019,-1.10874c1.77491,-0.06104 3.49844,0.66258 5.27053,0.77961c4.44442,0.29351 8.90812,-0.04575 13.36222,-0.04575c3.00781,0 6.03493,0.46881 9.0226,0.12138c1.16208,-0.13513 2.23161,-0.89803 3.40109,-0.86649c0.85487,0.02306 1.69183,0.17907 2.52202,0.38949zM179.89906,211.11184c0.22929,0.1898 0.45486,0.38939 0.68147,0.58579c0.01739,-0.86205 0.09567,-1.70675 0.32539,-2.64853c-0.21989,0.5717 -0.33296,1.21095 -0.66505,1.72216c-0.0886,0.1364 -0.20915,0.24385 -0.34181,0.34058zM203.6998,209.73507c-0.35405,0.01067 -0.7278,-0.01091 -1.12501,-0.06932c0.02931,0.53958 -0.05149,0.93085 -0.20746,1.23189c0.37082,-0.14277 0.73032,-0.29926 0.97501,-0.59094c0.14421,-0.17191 0.25961,-0.36537 0.35747,-0.57162zM198.94074,214.69794c0.53583,-0.88386 1.12814,-1.73526 1.75828,-2.55149c-0.58412,0.32945 -1.17243,0.76921 -1.54755,1.68049c-0.11632,0.28259 -0.18134,0.57371 -0.21073,0.871zM248.5776,164.27899c0.0069,-0.00975 0.01381,-0.01924 0.02075,-0.02844c-1.01378,-0.54723 -2.02402,-1.10172 -3.0614,-1.59661c-0.16757,-0.03408 -0.33364,-0.07657 -0.49886,-0.12373c0.64774,0.57315 1.27449,1.16957 1.87819,1.7868c0.55381,-0.01622 1.10764,-0.03616 1.66132,-0.03802z"/><path d="M304.16976,50.80806c7.82155,5.21436 2.60719,13.03592 2.60719,13.03592l-2.05593,3.00142c-1.8865,1.7107 -2.35845,4.03664 -3.65139,6.27884c-1.02089,1.77041 -2.97347,4.3897 -4.21671,5.97528c-1.13627,1.44916 -2.07492,3.09745 -3.47197,4.29722c-0.82925,0.71215 -2.08754,0.70749 -3.01997,1.27792c-1.16278,0.71135 -1.68654,2.17138 -2.74248,3.0334c-2.86731,2.34076 -5.61771,4.76334 -8.5918,7.01883c0,0 -7.52027,5.6402 -13.16047,-1.88007c-5.6402,-7.52027 1.88007,-13.16047 1.88007,-13.16047c2.78578,-2.05625 5.22956,-4.40356 7.95279,-6.51765c1.72578,-1.33975 2.99016,-3.23083 4.77779,-4.48686c0.41163,-0.28921 1.02985,-0.02782 1.49219,-0.22613c0.15662,-0.06718 -0.54669,-0.06601 -0.46387,-0.21494c0.60912,-1.09542 1.52001,-1.99363 2.25608,-3.00811c2.4309,-3.35037 3.5229,-7.24258 6.4204,-10.30668l0.95218,-1.51074c0,0 5.21436,-7.82155 13.03592,-2.60719z"/><path d="M212.47233,43.21306c9.40033,0 9.40033,9.40033 9.40033,9.40033v0.75203c-1.32078,-1.53243 0.91912,1.0276 1.1007,1.78809c0.86991,3.64323 0.56852,8.48289 0.98576,12.22679c0.31794,2.85296 4.48667,3.73826 6.00041,6.17733c1.56936,2.52868 2.35077,5.49574 3.07213,8.38308c0.33269,1.33162 -0.10275,2.75342 0.05095,4.11734c0.11574,1.02706 0.66214,1.97846 0.75203,3.00811c0.18592,2.12961 0.04696,4.27517 0.07043,6.41275c0,0 0,9.40033 -9.40033,9.40033c-9.40033,0 -9.40033,-9.40033 -9.40033,-9.40033c0.04081,-2.38507 -0.42229,-4.75245 -0.68159,-7.12373c-0.12332,-1.12772 0.01871,-2.26895 0.05095,-3.40293c0.00611,-0.21472 0.22307,-0.49683 0.06403,-0.64124c-0.82701,-0.75093 -2.02668,-1.03562 -2.79931,-1.84239c-1.42404,-1.48696 -2.72106,-3.1343 -3.7009,-4.94506c-2.32474,-4.2961 -2.79546,-8.58896 -3.39111,-13.23324c-0.1444,-1.1259 -0.17247,-2.27411 -0.07043,-3.40464c0.01478,-0.16378 0.46873,-0.13315 0.40335,-0.28404c-0.35936,-0.82931 -1.27368,-1.3821 -1.50405,-2.25608c-0.4245,-1.61047 -0.2689,-3.3201 -0.40335,-4.98015v-0.75203c0,0 0,-9.40033 9.40033,-9.40033z"/><path d="M137.26967,64.26981c7.36933,0 8.96153,5.77715 9.30552,8.27352c0.89225,2.08469 2.36363,3.26202 4.10975,5.00814c2.74724,2.74724 5.14918,5.29815 7.55245,8.41033c5.08493,6.58487 10.37873,12.98635 15.1974,19.76109c0.91292,1.28351 1.8477,2.57391 2.51267,4.00171c0.58087,1.24722 0.58203,2.81111 1.48089,3.85276c0,0 5.21436,7.82155 -2.60719,13.03592c-7.82155,5.21436 -13.03592,-2.60719 -13.03592,-2.60719c-1.28997,-2.07568 -2.21463,-4.37223 -3.03127,-6.67561c-0.61528,-1.73544 -2.42082,-2.78129 -3.50354,-4.27058c-4.62957,-6.368 -9.33549,-12.82292 -14.45686,-18.83198c-2.40011,-2.81613 -5.7813,-4.97704 -7.92521,-8.00447c-1.9104,-2.6977 -3.41975,-5.7103 -4.51665,-8.82865l-0.48239,-3.72468c0,0 0,-9.40033 9.40033,-9.40033z"/><path d="M89.44817,132.94462c8.22648,-4.11324 12.42847,3.84695 12.606,4.19242c1.41475,1.2241 2.97878,2.30223 4.26121,3.58466c0.85591,0.85591 1.37053,1.99822 2.12669,2.94341c1.29545,1.61931 3.20251,3.11347 4.64155,4.57686c1.15621,1.17576 2.53716,2.10737 3.82483,3.1375c0.69297,0.55437 1.09533,1.53319 1.93047,1.83332c4.79634,1.72364 9.28148,3.72528 13.91594,5.84397c2.67665,1.22366 5.67187,1.84891 8.10197,3.50917c1.54556,1.05594 2.32157,2.93689 3.48236,4.40533c0,0 5.21436,7.82155 -2.60719,13.03592c-7.82155,5.21436 -13.03592,-2.60719 -13.03592,-2.60719c1.89912,-0.42779 -0.25128,0.13204 -3.4562,-1.10983c-3.20691,-1.24263 -6.15129,-3.10304 -9.35956,-4.34217c-1.7456,-0.6742 -3.61587,-1.03372 -5.30152,-1.84629c-2.09633,-1.01054 -3.77256,-2.72911 -5.58979,-4.18289c-3.84216,-3.07374 -7.96589,-6.43375 -11.08632,-10.33429c-0.3747,-0.46837 -0.45729,-1.14462 -0.88142,-1.56875c-0.42413,-0.42413 -1.10038,-0.50672 -1.56875,-0.88142c-0.3986,-0.31888 -3.07481,-3.01011 -3.69544,-3.63074l-2.5129,-3.94713c0,0 -4.20396,-8.40791 4.20396,-12.61187zM101.95448,137.05032l-0.90328,-0.84077c0.29026,0.29026 0.5929,0.56927 0.90328,0.84077z"/><path d="M87.2599,236.10789c0,-6.8878 5.04681,-8.72878 7.74466,-9.22084c0.51417,-0.33952 1.04305,-0.65004 1.61287,-0.87995c2.83502,-1.14386 6.00067,-1.23192 9.0438,-1.52359c3.65393,-0.35021 7.36967,-1.38665 10.96421,-2.10556c2.09909,-0.41982 4.28859,-0.48214 6.31308,-1.17779c2.30262,-0.79123 4.40712,-2.24569 6.80917,-2.64351c1.48494,-0.24593 3.00925,-0.08092 4.51387,-0.12138c0,0 9.40033,0 9.40033,9.40033c0,9.40033 -9.40033,9.40033 -9.40033,9.40033c-1.82942,-0.14781 -3.47721,1.17639 -5.22154,1.74727c-5.1275,1.67812 -11.07734,2.42065 -16.39658,3.36289c-1.80568,0.31986 -3.60748,0.68507 -5.43152,0.87402c-1.29253,0.1339 -2.84947,-0.13961 -3.83327,0.70933l-6.71842,1.57878c0,0 -9.40033,0 -9.40033,-9.40033z"/><path d="M94.52536,307.42921c-6.64704,-6.64704 0,-13.29408 0,-13.29408l2.19138,-2.12669c1.78124,-1.18749 3.18237,-2.94376 5.08831,-3.9186c1.56094,-0.79839 3.3379,-1.07453 5.01142,-1.5973c0.49389,-0.15429 1.81554,-0.43855 2.1574,-0.78594c0.71617,-0.72775 0.95786,-1.88107 1.76992,-2.50001c1.70965,-1.30308 3.67066,-2.26161 5.63192,-3.14161c2.49717,-1.12044 5.29728,-1.4166 7.8562,-2.38774c3.58672,-1.36119 7.09772,-3.37348 10.73903,-4.58725c1.27473,-0.42491 2.90378,-0.23467 3.85259,-1.1861c0,0 7.82155,-5.21436 13.03592,2.60719c5.21436,7.82155 -2.60719,13.03592 -2.60719,13.03592c-1.29103,0.78909 -2.47145,1.79734 -3.87309,2.36728c-1.3624,0.55397 -2.91149,0.49369 -4.30674,0.95877c-3.4864,1.16213 -6.85722,3.15065 -10.31771,4.43707c-0.52085,0.19362 -7.37064,1.76168 -7.56862,1.99092c-0.51475,0.59602 -0.62162,1.5222 -1.23819,2.01214c-1.95079,1.55014 -4.11726,2.82688 -6.31917,3.99312c-1.10902,0.58739 -2.33858,0.93184 -3.55585,1.23715c-0.32627,0.08184 -0.69508,-0.22449 -1.00479,-0.09325c-0.19,0.08051 -0.01962,0.45878 -0.17588,0.59356c-0.68441,0.59032 -1.50405,1.0027 -2.25608,1.50405l-0.81672,0.88142c0,0 -6.64704,6.64704 -13.29408,0z"/><path d="M208.36409,346.45013c1.00628,0.80122 1.94767,1.93771 2.73981,3.52198c4.20396,8.40791 -4.20396,12.61187 -4.20396,12.61187l-12.35505,-1.00885c-2.24932,-2.52966 -4.1757,-5.59214 -4.88799,-8.90141c-0.26374,-1.22531 0.20761,-2.52407 0,-3.76013c-0.53009,-3.15602 -2.35388,-4.26252 -3.26243,-7.17509c-0.65074,-2.08611 -0.66308,-4.32241 -1.11965,-6.45943c-0.21178,-0.99124 -0.73556,-1.90711 -0.88211,-2.91006c-0.18022,-1.23344 0.02868,-2.4976 -0.08936,-3.73853c-0.23028,-2.421 -1.23141,-4.72643 -1.46565,-7.14705c-0.268,-2.76949 0.41701,-5.55115 0.75203,-8.31334c0.50585,-4.17069 -0.07043,-8.93611 -0.07043,-13.13994c0,0 0,-9.40033 9.40033,-9.40033c9.40033,0 9.40033,9.40033 9.40033,9.40033c0,5.03567 0.44928,10.4344 -0.07043,15.43707c-0.13069,1.25801 -1.01408,2.48175 -0.75203,3.71909c0.55546,2.62275 1.26413,5.22704 1.54245,7.89348c0.26615,2.54984 0.21218,5.42775 0.91699,7.94872c0.16925,0.60536 0.8912,0.91632 1.16727,1.48103c1.38344,2.82987 2.94188,6.49441 3.23985,9.9406z"/><path d="M298.02462,330.94047c2.76818,0.79204 6.57098,2.96817 6.57098,8.94709c0,9.40033 -9.40033,9.40033 -9.40033,9.40033l-5.96639,-1.57878c-1.94861,-1.32324 -4.25843,-2.11081 -6.07306,-3.61253c-1.05636,-0.87421 -1.49812,-2.34002 -2.52861,-3.24457c-0.93391,-0.81978 -2.27257,-1.05926 -3.24944,-1.82734c-0.72204,-0.5677 -7.44692,-7.31426 -7.85708,-7.92914c-4.46283,-6.6904 -5.99093,-14.41238 -8.72109,-21.81585c-1.51391,-4.10533 -3.21631,-8.14318 -4.60333,-12.29309c0,0 -2.97265,-8.91794 5.94529,-11.89059c8.91794,-2.97265 11.89059,5.94529 11.89059,5.94529c2.10434,6.33212 4.66505,12.4613 6.76824,18.80067c0.88978,2.68194 2.23281,7.64852 3.9722,10.26063c2.0367,3.05858 5.83457,4.50969 8.44617,6.78811c0.85609,0.74688 1.14413,2.00607 1.98355,2.77164c0.44397,0.40492 1.1743,0.30542 1.70314,0.59073c0.38565,0.20806 0.75558,0.44245 1.11919,0.6874z"/><path d="M343.32497,313.19061c-6.05133,0 -8.2072,-3.89546 -8.97526,-6.67109c-2.01413,-2.8889 -4.26223,-5.55163 -6.03336,-8.7341c-1.05412,-1.89409 -1.8257,-3.93769 -2.89816,-5.82146c-0.89434,-1.57091 -2.16825,-2.91146 -3.00811,-4.51216c-0.24205,-0.46134 -0.07638,-1.11436 -0.42083,-1.50522c-0.47304,-0.53675 -1.34999,-0.57228 -1.8559,-1.07818c-0.5059,-0.5059 -0.54827,-1.3752 -1.07818,-1.8559c-0.33252,-0.30164 -0.91056,-0.10686 -1.31047,-0.31089c-0.66498,-0.33927 -8.54727,-5.15337 -8.78182,-5.34315c-2.81563,-2.27826 -4.96049,-5.28154 -7.33265,-8.01852c-1.11219,-1.28324 -2.53135,-2.29913 -3.53253,-3.67075c-0.95716,-1.31131 -1.52401,-2.86708 -2.28602,-4.30062c0,0 -4.20396,-8.40791 4.20396,-12.61187c8.40791,-4.20396 12.61187,4.20396 12.61187,4.20396c0.66904,1.58957 2.06255,2.76978 3.20576,4.06106c2.18688,2.47008 2.09888,3.48156 4.69978,5.51796c3.2818,2.56952 7.7268,3.76633 10.96446,6.37838c0.8518,0.68721 1.15604,1.88238 1.92993,2.65626c0.7739,0.7739 1.96529,1.08117 2.65626,1.92993c1.09438,1.34429 1.69198,3.02667 2.58727,4.51099c2.14439,3.55524 4.11161,7.08882 6.12616,10.72312c1.87349,3.37983 4.18548,5.92642 6.34941,9.0855l1.57878,5.96639c0,0 0,9.40033 -9.40033,9.40033z"/><path d="M375.66211,242.50011c-2.0271,0 -3.61708,-0.43712 -4.86418,-1.12285c-0.03872,-0.01047 -0.07738,-0.0213 -0.11596,-0.03253c-2.3232,-0.67561 -4.24859,-2.36006 -6.52546,-3.17832c-2.56941,-0.92339 -5.53002,-1.59997 -7.89768,-2.75623c-1.12625,-0.55001 -1.97102,-1.55222 -3.00811,-2.25608c-1.32307,-0.89796 -3.18758,-0.43251 -4.7042,-0.93915c-3.67651,-1.22817 -7.16117,-3.26495 -10.90824,-4.39305c-6.50502,-1.95843 -13.54811,-1.8468 -20.06057,-3.69113c-2.35219,-0.66614 -4.5883,-1.68927 -6.88245,-2.53391c0,0 -8.8018,-3.30067 -5.50113,-12.10248c3.30067,-8.8018 12.10248,-5.50113 12.10248,-5.50113c8.30731,3.19107 17.19838,3.26386 25.69885,5.80739c3.99095,1.19418 7.74946,3.33428 11.65255,4.63127c1.00327,0.33339 2.1047,0.27088 3.12214,0.55813c1.43369,0.40477 2.88553,0.8213 4.20607,1.51082c1.11104,0.58013 1.89469,1.68053 3.00811,2.25608c1.74879,0.90399 3.80145,1.04908 5.6388,1.75593c1.64874,0.63429 3.33283,1.2021 4.90313,2.01133c0.30331,0.1563 0.49955,0.50168 0.60383,0.82658c0.06294,0.19608 -0.31199,-0.2689 -0.46799,-0.40335l9.40033,10.15236c0,0 0,9.40033 -9.40033,9.40033z"/><path d="M393.8333,142.52005c3.02279,8.90107 -5.87828,11.92386 -5.87828,11.92386l-3.74014,1.22183c-2.5956,0.3393 -5.33632,0.67934 -7.74475,1.8359c-1.15223,0.55332 -2.15714,1.38756 -3.3186,1.9212c-4.26278,1.95856 -9.25691,3.19796 -13.67991,4.69399c-10.95463,3.70529 -22.3545,5.84777 -32.79334,11.00838c-1.7507,0.86549 -3.22673,2.20681 -4.91285,3.19222c0,0 -8.13539,4.70973 -12.84513,-3.42566c-4.70973,-8.13539 3.42566,-12.84513 3.42566,-12.84513c1.89387,-1.08231 3.57257,-2.52929 5.51322,-3.5253c2.96042,-1.51939 6.07341,-2.72276 9.14271,-4.00807c8.55023,-3.58053 17.70435,-5.22434 26.42415,-8.19858c3.7701,-1.28594 8.32639,-2.26906 11.95516,-4.01164c4.89576,-2.351 9.10129,-4.23344 14.57172,-4.94854l1.95654,-0.71276c0,0 8.90107,-3.02279 11.92386,5.87828z"/><path d="M383.318,80.74658c4.20396,8.40791 -4.20396,12.61187 -4.20396,12.61187l-1.50405,0.75203c-3.88698,1.91183 -7.38537,4.45466 -11.29433,6.35673c-3.10091,2.23556 -6.4972,4.18516 -10.16359,5.40728c-1.03074,0.34358 -2.17514,0.22559 -3.21353,0.54528c-1.54426,0.47543 -2.53217,2.04939 -3.97946,2.7678c-1.42009,0.7049 -3.03941,0.9171 -4.51216,1.50405c-1.38708,0.55281 -2.09912,2.2253 -3.45456,2.85168c-1.81156,0.83716 -3.86275,1.00599 -5.78299,1.54941c-1.48873,0.4213 -4.8496,1.905 -5.53678,2.11501c-4.79935,1.4668 -9.87955,1.83077 -14.72491,3.13764c-5.05568,1.36359 -10.11065,3.75169 -14.79642,6.10227c0,0 -8.40791,4.20396 -12.61187,-4.20396c-4.20396,-8.40791 4.20396,-12.61187 4.20396,-12.61187c5.83067,-2.90722 12.01067,-5.70509 18.29275,-7.43421c4.54692,-1.25152 9.34804,-1.48067 13.8521,-2.87858c2.61304,-0.811 3.8361,-1.86384 6.49564,-2.39714c0.56798,-0.11389 1.17614,0.18924 1.73728,0.04535c0.15696,-0.04025 -0.1479,-0.38617 -0.02003,-0.48569c1.28514,-1.00029 2.64124,-1.92679 4.08574,-2.67884c1.40624,-0.73214 3.10027,-0.78289 4.51216,-1.50405c1.78118,-0.90979 3.19209,-2.49505 5.04486,-3.24842c1.3624,-0.55397 2.91149,-0.49369 4.30674,-0.95877c2.34683,-0.78227 4.47495,-2.1057 6.381,-3.61704c4.37373,-2.23119 8.39556,-4.96705 12.77052,-7.17975l1.50405,-0.75203c0,0 8.40791,-4.20396 12.61187,4.20396z"/></g><path d="M410.51216,334.84348c0,28.97409 -26.62633,44.13607 -69.04049,46.93005c-12.76885,0.84113 -30.20281,1.29005 -45.45167,-0.45841c-11.05338,-1.2674 -19.20903,-5.00159 -32.03974,-4.25373c-7.25486,0.42286 -36.76308,1.56225 -44.25738,1.56225c-55.40876,0 -107.75624,13.90721 -140.89425,-4.82763c-26.53126,-14.99966 -29.61792,-17.79009 -29.61792,-38.95252c0,-13.4953 6.50264,-26.26608 18.09477,-37.63821c29.29052,-28.73463 91.07492,-48.53956 162.55595,-48.53956c99.77064,0 180.65072,38.5831 180.65072,86.17777z" fill="url(#color-3)" stroke-width="0"/><path d="M419.91302,193.41093c0,99.02348 -80.01835,179.29789 -178.72597,179.29789c-98.70764,0 -178.72597,-80.2744 -178.72597,-179.29789c0,-45.78041 0.58649,-105.57144 28.73226,-137.2574c32.73381,-36.85109 98.42197,-27.02548 151.49522,-27.02548c50.52257,0 124.67743,-5.99668 157.18377,27.81393c31.00239,32.24632 20.0407,88.12969 20.0407,136.46894z" fill="url(#color-4)" stroke-width="0"/><path d="M61.27148,108.49387c-0.80957,-8.45561 4.66659,-11.96081 6.68563,-17.44423c2.62836,-7.13824 2.52717,-15.5428 7.0865,-21.24303c8.36903,-10.46323 17.73041,-21.69941 43.52237,-33.5711c31.22583,-14.37284 75.25162,-4.43611 117.67773,-6.33906c48.18459,-2.16124 66.25372,-4.46302 96.69831,-0.97876c11.42625,1.30769 38.7857,-5.59961 49.54534,1.72375c26.74793,18.20553 31.03766,35.36688 33.51943,61.28775c6.14004,64.12982 -38.50805,118.66006 -149.7336,123.64889c-111.22555,4.98883 -201.86466,-39.95141 -208.00471,-104.08122z" fill="url(#color-5)" stroke-width="0"/></g></g></svg>