<svg version="1.1" xmlns="http://www.w3.org/2000/svg" xmlns:xlink="http://www.w3.org/1999/xlink" width="41.47666" height="51.87338" viewBox="0,0,41.47666,51.87338"><g transform="translate(-219.26169,-155.27898)"><g data-paper-data="{&quot;isPaintingLayer&quot;:true}" fill-rule="nonzero" stroke="none" stroke-linecap="butt" stroke-linejoin="miter" stroke-miterlimit="10" stroke-dasharray="" stroke-dashoffset="0" style="mix-blend-mode: normal"><path d="M223.49097,173.58047c0.7386,-0.22912 2.03733,-0.06507 3.0637,0.02574c-0.12474,3.94614 0.05235,7.79448 0.39436,11.9602v0.00002c0.20456,2.49139 -0.325,5.00424 -0.39816,7.49498l-0.38179,-0.15912c-0.778,-0.42384 -1.5608,-0.86159 -2.31767,-1.32211c-2.51055,-3.73447 -2.01836,-8.55064 -1.84684,-12.83861c0.05501,-1.37514 -0.41177,-4.57224 1.4864,-5.16108z" data-paper-data="{&quot;noHover&quot;:false,&quot;origItem&quot;:[&quot;Path&quot;,{&quot;applyMatrix&quot;:true,&quot;segments&quot;:[[[223.49568,173.63024],[0,0],[-1.89817,0.58884]],[[222.02805,178.78567],[0.05501,-1.37514],[-0.17152,4.28797]],[[223.85475,191.53027],[-2.51055,-3.73447],[0.75687,0.46052]],[[226.16009,192.85308],[-0.778,-0.42384],[0,0]],[[226.54018,193.01254],[0,0],[0.07316,-2.49074]],[[226.91199,185.53279],[0.20456,2.49139],[0,0]],[[226.91199,185.53277],[0,0],[-0.34201,-4.16572]],[[226.54381,173.65501],[-0.12474,3.94614],[-1.02637,-0.09081]],[[223.49568,173.63023],[0.7386,-0.22912],[0,0]]],&quot;closed&quot;:true,&quot;fillColor&quot;:[0,0,0,1],&quot;strokeWidth&quot;:0.5}]}" fill="#ffffff" stroke-width="0.25"/><path d="M254.81408,188.2065c0.00013,1.07885 0.02393,2.16679 0.07358,3.25179c-3.04398,-0.31384 -6.27382,-0.15506 -9.424,0.16288c-0.86144,-0.24183 -1.76993,-0.37116 -2.70863,-0.37116c-1.81963,0 -3.52573,0.486 -4.9956,1.33528c-0.13965,0.01791 -0.27856,0.03555 -0.41667,0.05289c-2.44659,0.30715 -3.65634,2.51563 -5.51921,3.20169c-0.85669,-0.0338 -1.71313,-0.08504 -2.56561,-0.10136c0.04813,-0.27682 0.01069,-0.49968 0.01069,-0.49968c-0.57353,-3.27846 0.4944,-6.69882 0.23511,-10.01272c-0.43616,-5.57418 -0.58165,-10.44474 -0.10716,-16.003c0,-2.69448 0.21802,-5.08187 2.125,-7.15542c0.84222,-0.91581 2.229,-1.33118 3.33377,-1.81225c3.94493,-1.7178 11.2298,-4.35117 14.9131,-0.9824c2.6132,2.93984 2.91732,5.66486 3.40284,9.58614c0.796,6.42877 1.14591,12.88782 1.64279,19.34727z" data-paper-data="{&quot;noHover&quot;:false,&quot;origItem&quot;:[&quot;Path&quot;,{&quot;applyMatrix&quot;:true,&quot;segments&quot;:[[[254.77208,188.30426],[0,0],[-0.49688,-6.45945]],[[253.13537,169.01901],[0.796,6.42877],[-0.48552,-3.92128]],[[249.75049,159.44472],[2.6132,2.93984],[-3.6833,-3.36877]],[[234.87221,160.4275],[3.94493,-1.7178],[-1.10477,0.48107]],[[231.54674,162.23588],[0.84222,-0.91581],[-1.90698,2.07355]],[[229.43466,169.38047],[0,-2.69448],[-0.47449,5.55826]],[[229.54952,185.33109],[-0.43616,-5.57418],[0.25929,3.3139]],[[229.30025,195.32512],[-0.57353,-3.27846],[0,0]],[[229.06553,196.36866],[0.33319,-0.45271],[-0.17215,1.68414]],[[228.96641,201.21289],[-0.37644,-0.75874],[0.27719,0.55868]],[[230.80662,201.55076],[-0.60494,-0.15167],[1.5351,0.38487]],[[236.86002,200.88603],[-0.94502,1.89146],[0.84036,-1.682]],[[237.21779,194.21962],[-0.11599,1.83417],[1.54226,-1.43926]],[[242.78805,192.69563],[-2.25858,-1.32972],[1.84333,1.08524]],[[245.43039,198.93262],[-0.11026,-1.94876],[0.03557,0.62869]],[[245.40999,200.82159],[-0.43051,-0.45954],[0.47816,0.51039]],[[247.46202,201.25901],[-0.69344,-0.09097],[1.28537,0.16864]],[[254.2278,201.03293],[-0.85838,1.084],[0.87546,-1.10557]],[[254.69029,196.48555],[0,1.28056],[0.0037,-0.99917]],[[254.97089,193.50107],[-0.17402,0.98401],[-0.00102,-0.01348]],[[254.96785,193.46062],[0.00101,0.01348],[0,0]],[254.95481,193.44355],[[254.96003,193.35498],[-0.00522,0.05557],[-0.12312,-1.67817]],[[254.77209,188.30429],[0.0002,1.67953],[0,0]]],&quot;closed&quot;:true,&quot;fillColor&quot;:[0,0,0,1],&quot;strokeWidth&quot;:0.5}]}" fill="#ffffff" stroke-width="0.25"/><path d="M254.44955,194.68326c-0.13572,0.67862 -1.4984,0.87271 -1.91615,1.26773c-0.95162,0.8998 -0.78545,1.83756 -2.10388,2.56358c-1.83347,1.00965 -4.44533,0.39494 -6.4071,1.13918c-0.13489,0.05117 -0.25961,0.1121 -0.37552,0.18154c-2.42257,0.84012 -4.42208,2.58547 -5.59381,4.83132c-0.50577,-0.01516 -1.01635,-0.02298 -1.54954,0.12879c-4.20529,1.19697 -4.87928,-2.44284 -5.64184,-5.68639c-0.01894,-0.08056 -0.07543,-0.13818 -0.15895,-0.18122c-0.0212,0.00053 -0.04247,0.0008 -0.0638,0.0008c-0.33806,0 -0.66044,-0.0671 -0.95456,-0.1887c-0.55591,-0.08714 -1.106,-0.27025 -1.14387,-0.95186c-0.25403,-0.39131 -0.40157,-0.85814 -0.40157,-1.35944c0,-0.24818 0.03616,-0.48792 0.10351,-0.71423c-0.01069,-0.00003 -0.02138,-0.00005 -0.03207,-0.00005c-0.42643,0 -0.84663,0.02669 -1.25902,0.0785c-0.07478,-0.14623 -0.15936,-0.28205 -0.25532,-0.40579c-1.39923,-1.80443 -4.28268,-2.54085 -5.29136,-4.77851c-0.77896,-1.72807 0.0134,-3.42014 -0.34479,-5.13167c-0.49559,-2.3681 -1.11826,-4.47318 -1.19727,-6.93981v-0.00003c-0.09491,-0.18991 -0.14698,-0.43161 -0.12136,-0.73906c0.10984,-1.31804 1.42788,-1.20821 1.42788,-1.20821l1.46472,0.12317c0.25879,0.04378 2.70421,0.66781 2.96031,0.12035c0.4107,-0.87796 -0.34301,-2.08316 0.17474,-2.90256c0.25957,-0.41079 1.04016,-0.11524 1.38364,-0.45896c0.51872,-0.51909 -0.11079,-1.49856 0.10832,-2.19896v-1.35944c0,-0.73046 0.59215,-1.32261 1.32261,-1.32261c0.62001,0 1.14037,0.42662 1.28357,1.00233l0.34514,1.26549l-0.00591,0.00161l0.00954,0.01198c1.33657,5.34624 0.14178,14.15935 6.05887,17.28051c2.03375,1.07276 4.33223,1.3099 6.58494,1.48323c2.84068,-0.00203 5.64356,-0.23331 8.47654,-0.35252c0.78516,-0.03304 2.72674,-0.33547 3.38267,-0.01803c0.70281,0.34012 1.32078,0.95129 1.65631,1.65631c0.09121,0.19165 0.14374,0.41011 0.16865,0.64472c-0.12395,0.01791 -0.2477,0.0363 -0.37126,0.05517c-0.37527,-0.05711 -0.75406,-0.10605 -1.13587,-0.14745c-0.04879,0.12173 -0.09769,0.24184 -0.14679,0.36037c-0.21346,0.03816 -0.42645,0.07754 -0.63902,0.11803c0.51202,0.63514 0.48216,1.31343 0.19868,2.73081z" fill="#e0e0e0" stroke-width="0.5"/><path d="M256.61413,191.84474c-1.09355,2.1871 -2.17392,4.46162 -4.26128,5.89564c-2.51108,1.72512 -5.83465,1.95815 -8.64855,2.97934c-2.96771,1.48909 -4.39902,5.5903 -7.66299,6.3602c-0.54773,0.1292 -1.12548,0.04125 -1.68806,0.02723c-0.6037,-0.01505 -1.27505,0.16954 -1.80804,-0.11436c-2.88416,-1.53628 -0.66055,-4.50328 -2.42137,-6.45878c-1.62243,-1.80181 -2.73221,-2.31575 -3.3288,-4.72033c-0.17123,0.02426 -0.34106,0.05285 -0.50939,0.08567c-0.00214,-0.00972 -0.00427,-0.01946 -0.00638,-0.0292c0,0 -0.01441,-0.07206 -0.01877,-0.18472c-0.25149,-0.02559 -0.43179,-0.10286 -0.43179,-0.10286h0.00001l-0.93529,-0.40726c-0.98034,-0.53536 -1.93334,-1.12155 -2.86753,-1.73389c-3.17533,-4.43197 -2.84932,-9.55213 -2.64077,-14.76567c0.0901,-2.25241 -0.21004,-4.55224 1.5555,-6.28183c1.6847,-1.65038 3.60882,-1.41428 5.72471,-1.34752c0.03591,-0.58498 0.07796,-1.17636 0.12638,-1.77586c0,-3.28297 0.4422,-6.36634 2.82566,-8.84429c1.44612,-1.50345 3.75578,-2.31795 5.67377,-3.03781c5.01165,-1.88097 11.88038,-3.69589 16.32979,0.18584c3.05619,3.43821 3.57273,6.6255 4.13929,11.1172c0.8202,6.50257 1.15246,12.97671 1.65511,19.51129c-0.00005,0.42304 0.00385,0.84707 0.01175,1.27157c0.05896,0.21275 0.04608,0.42232 0.01354,0.58955c0.00239,0.0876 0.00496,0.17522 0.0077,0.26283c0.18168,0.32774 0.18168,0.67328 0.18168,0.67328l0.00001,-0.00001c-0.00222,0.14656 -0.00795,0.28808 -0.01706,0.425c-0.2823,0.03375 -0.56347,0.07027 -0.84362,0.10932zM232.01122,198.89457c1.04123,1.25166 1.26694,3.07563 1.30439,4.60774c0.01018,0.41643 -0.13,1.11864 0.27423,1.2192c3.43351,0.85418 4.34441,-3.32422 6.41303,-4.98485c0.78366,-0.62909 1.81417,-0.86527 2.71359,-1.31351c2.58722,-0.94243 5.909,-1.15237 8.20859,-2.73495c1.71648,-1.18127 2.55698,-3.16945 3.453,-4.9615l0.38653,-0.77307l0.01471,-0.07377c0,0 0.00318,-0.01591 0.01063,-0.04374c-0.01176,-0.51132 -0.01775,-1.02219 -0.01781,-1.53182l-0.00001,-0.00003c-0.49688,-6.45945 -0.84071,-12.85648 -1.63671,-19.28525c-0.48552,-3.92128 -0.77168,-6.63445 -3.38488,-9.57429c-3.6833,-3.36877 -10.93335,-0.73502 -14.87828,0.98278c-1.10477,0.48107 -2.48325,0.89257 -3.32547,1.80838c-1.90698,2.07355 -2.11208,4.45011 -2.11208,7.14459c-0.47449,5.55826 -0.3213,10.37644 0.11486,15.95062c0.25929,3.3139 -0.8228,6.71557 -0.24927,9.99403c0,0 0.01711,0.10269 0.01293,0.25524c0.51342,1.7553 1.40049,1.75446 2.698,3.31419zM223.49571,173.63025c-1.89817,0.58884 -1.41262,3.78029 -1.46763,5.15543c-0.17152,4.28797 -0.68385,9.01013 1.8267,12.7446c0.75687,0.46052 1.52734,0.89897 2.30534,1.32281l0.38009,0.15946c0.07316,-2.49074 0.57637,-4.98836 0.37181,-7.47975v-0.00002c-0.34201,-4.16572 -0.49292,-7.93162 -0.36818,-11.87776c-1.02637,-0.09081 -2.30953,-0.2539 -3.04813,-0.02478z" fill="#000000" stroke-width="0.5"/><path d="" fill="#000000" stroke-width="0.5"/><path d="M241.44189,166.47958c0.14715,0.02825 0.24963,0.02754 0.24963,0.02754c4.37274,0 10.86686,-1.16398 14.90112,0.80302c2.00078,0.97554 2.07653,5.33436 1.02528,6.80543c-3.30634,4.54421 -9.22854,3.89588 -14.43832,3.89769c-1.82969,0.00063 -4.19791,0.2266 -5.58271,-1.26319c-1.00498,-1.08117 -0.62746,-3.2169 -0.64776,-4.53108c0.83539,-2.27223 2.2908,-4.64095 4.49277,-5.73941z" data-paper-data="{&quot;noHover&quot;:false,&quot;origItem&quot;:[&quot;Path&quot;,{&quot;applyMatrix&quot;:true,&quot;segments&quot;:[[[239.90084,166.06497],[0.78953,-2.14749],[0.0192,1.24203]],[[240.50838,170.32677],[-0.94981,-1.02182],[1.30878,1.408]],[[245.76918,171.50163],[-1.72924,0.0006],[4.92377,-0.00171]],[[259.33593,167.84814],[-3.12483,4.29474],[0.99354,-1.39031]],[[258.37182,161.44966],[1.89094,0.92198],[-3.81279,-1.85902]],[[244.36918,160.70163],[4.13268,0],[0,0]],[[244.13387,160.67493],[0.13907,0.0267],[-2.08108,1.03816]]],&quot;closed&quot;:true}]}" fill="#9ddcff" stroke-width="0.5"/><path d="M259.62438,175.04275c0.25939,1.29693 -1.03754,1.55631 -1.03754,1.55631l-0.29991,0.0247c-6.41725,2.91199 -16.85292,3.07489 -23.09491,-0.65776c0,0 -1.13413,-0.68048 -0.45365,-1.81461c0.68048,-1.13413 1.81461,-0.45365 1.81461,-0.45365c5.50816,3.31728 14.99924,3.08564 20.63936,0.51789l0.87574,-0.21043c0,0 1.29693,-0.25939 1.55631,1.03754z" fill="#49bfff" stroke-width="0.5"/><path d="M239.68321,164.39683l0.08817,-0.02939c1.34128,-0.43995 2.99932,-0.6014 4.40417,-0.6014c0,0 0.07417,0 0.14397,0.03928c0.00393,-0.00142 0.00785,-0.00284 0.01177,-0.00426c5.47987,-0.30926 13.55028,-0.98675 15.83595,3.80629c0.65643,1.37652 0.57955,3.22021 0.55535,4.70274c-0.01863,1.14119 -0.38552,2.30343 -0.97,3.28376c-0.94655,1.30204 -1.8595,2.7971 -3.32518,3.59557c-1.35336,0.73729 -3.17376,0.76881 -4.66319,0.9891c-4.30985,0.63746 -12.87732,1.97584 -16.10687,-1.70521c-1.61374,-1.83935 -1.28711,-4.47335 -1.26173,-6.70637c1.00495,-2.86554 2.59639,-5.53555 5.10331,-7.1397c0.00457,-0.1705 0.18428,-0.2304 0.18428,-0.2304zM237.00203,172.2184c0.02032,1.31418 -0.36214,3.42818 0.64283,4.50936c1.3848,1.48979 3.7367,1.24374 5.56639,1.2431c5.20978,-0.00181 11.04847,0.6785 14.35482,-3.86571c1.05125,-1.47107 0.98067,-5.79461 -1.02011,-6.77015c-4.03426,-1.96701 -10.44328,-0.79148 -14.81602,-0.79148c0,0 -0.10183,0 -0.24898,-0.02825c-2.20196,1.09846 -3.64353,3.4309 -4.47891,5.70314z" fill="#000000" stroke-width="0.5"/><path d="M253.41913,168.41777c0,1.32261 -1.32261,1.32261 -1.32261,1.32261c-1.44997,0 -3.84047,0 -5.29044,0c0,0 -1.32261,0 -1.32261,-1.32261c0,-1.32261 1.32261,-1.32261 1.32261,-1.32261c1.44997,0 2.89994,0 4.34991,0h0.94052c0,0 1.32261,0 1.32261,1.32261z" fill="#ffffff" stroke-width="0.5"/></g></g></svg>