<svg version="1.1" xmlns="http://www.w3.org/2000/svg" xmlns:xlink="http://www.w3.org/1999/xlink" width="454.79673" height="408.64265" viewBox="0,0,454.79673,408.64265"><g transform="translate(-19.36057,90.35674)"><g data-paper-data="{&quot;isPaintingLayer&quot;:true}" fill-rule="nonzero" stroke="none" stroke-width="0.5" stroke-linecap="butt" stroke-linejoin="miter" stroke-miterlimit="10" stroke-dasharray="" stroke-dashoffset="0" style="mix-blend-mode: normal"><path d="M86.32152,177.40333c-0.23329,-0.88331 -0.48334,-1.75561 -0.7703,-2.60566c-1.07198,-3.17541 -2.583,-6.30991 -2.81033,-9.65366c-0.27096,-3.9854 0.64472,-11.60591 1.9655,-15.18369c0.84296,-2.28342 2.78879,-4.00725 3.90517,-6.1702c2.3756,-4.60268 4.91054,-9.89083 8.77023,-13.53767c1.06142,-1.00288 2.51137,-1.49415 3.71969,-2.31407c1.43209,-0.97177 1.91816,-2.93709 3.23261,-4.06289c1.53001,-1.31042 3.41191,-2.14277 5.11787,-3.21415c1.53233,-0.78643 2.97736,-1.77337 4.59699,-2.35929c1.88072,-0.68037 4.0496,-0.33461 5.89909,-1.09578c1.7859,-0.73499 3.59886,-1.43495 5.43473,-2.08934c1.65707,-1.33167 3.32613,-2.6526 5.2102,-3.61358c0.73509,-0.37493 1.63854,-0.40028 2.31841,-0.86794c0.86019,-0.5917 1.34675,-1.62508 2.1936,-2.23573c4.09773,-2.95485 10.5194,-6.20164 15.27909,-8.03524c1.26992,-0.48922 2.79779,-0.43404 3.88637,-1.25076c7.8543,-4.03101 15.20562,-4.05885 23.6472,-3.86375c2.65526,0.06136 6.18289,-1.59433 8.84863,-1.64369c0.43438,-0.00805 0.71051,0.73877 1.1341,0.64227c1.02776,-0.23418 1.72688,-1.3595 2.76691,-1.53108c1.68895,-0.27862 3.41878,0.26 5.13026,0.22831c3.8089,-0.07053 7.91089,-2.03781 11.79818,-2.19158c1.05326,-0.04166 2.07826,0.4548 3.13217,0.43529c4.84982,-0.0898 9.21822,-0.64044 14.16887,-0.10947c2.75301,0.44718 5.41456,1.35477 8.07513,2.19169c4.34634,1.36719 9.31713,0.4639 13.69911,2.12974c5.97608,2.27185 13.12368,8.89603 16.27349,14.27893c0.78032,1.33353 0.66496,3.02901 1.2124,4.47384c0.77505,2.04558 1.53272,4.09851 2.23233,6.17109c2.23314,6.6156 4.55005,13.86658 4.84855,20.99721c0.16353,3.90668 -0.719,8.47427 -0.96085,12.41368c-0.4701,4.81223 0.91255,7.95895 -0.67103,13.11273c-2.36304,7.69054 -8.46846,12.76979 -12.01907,19.64906c-1.38245,2.67846 -2.77921,5.36486 -4.46722,7.86205c-0.528,0.78111 -0.97855,1.62359 -1.6011,2.33163c-0.07422,0.08442 -0.22522,-0.33452 -0.25104,-0.22513c-0.66682,2.8244 -1.83865,5.5657 -3.38645,8.02056c-1.02769,1.62993 -4.35564,6.17128 -5.10357,6.84143c-1.57011,1.40685 -4.13608,1.48394 -5.53382,3.06215c-0.43458,0.4907 -0.44261,1.31836 -0.96623,1.71265c-0.49697,0.37424 -1.48961,-0.13439 -1.82528,0.38941c-0.71688,1.11866 -0.60732,2.58697 -0.91097,3.88045c-4.72571,3.6304 -10.17288,8.48461 -15.56153,11.19294c-0.98138,0.49323 -5.2573,2.70895 -7.91393,3.05089c-0.21922,0.27176 -0.50867,0.52786 -0.7269,0.72981c-2.29292,2.12182 -5.28947,3.36884 -7.64641,5.41933c-1.25742,1.09393 -2.08836,2.63272 -3.38483,3.68007c-0.87273,0.70503 -5.67174,3.32293 -7.20763,4.17282c-3.21756,1.78044 -6.6966,4.17907 -10.13082,5.42144c-1.88072,0.68037 -4.0496,0.33461 -5.89909,1.09579c-2.68207,1.10383 -5.47757,1.88132 -8.06066,3.18866c-4.4015,2.25209 -9.54363,3.81205 -14.60467,4.33994c-0.39601,1.16017 -1.0026,2.37606 -1.87094,3.64058c-7.07593,10.30444 -17.38035,3.2285 -17.38035,3.2285c-3.24791,-2.41728 -6.85428,-1.8812 -10.51985,-3.34063c-4.50659,-1.79428 -8.0073,-5.43114 -11.61275,-8.46463c-2.26636,-1.90683 -5.82153,-2.74754 -7.892,-4.55273c-2.15453,-1.87849 -3.76987,-4.3059 -5.47499,-6.60008c-0.24156,-0.32502 -0.02576,-0.88237 -0.30455,-1.17607c-0.64908,-0.6838 -1.73146,-0.87398 -2.33162,-1.6011c-5.26072,-6.37361 -6.47488,-13.68385 -7.92413,-21.48581c-2.61877,-14.09796 -6.86006,-28.77347 -2.00672,-42.92712c0.25281,-0.73726 0.76562,-1.34801 1.23473,-1.9824zM158.61295,223.66498c-0.81868,0.21498 -1.65301,0.40682 -2.50654,0.57639c-0.25864,0.05138 -0.58756,0.11453 -0.96586,0.18552c1.08696,0.14172 2.17502,0.27349 3.26491,0.38831c0.05134,-0.39841 0.12113,-0.78163 0.20748,-1.1502zM245.87225,138.48402c-0.1516,-0.88684 -0.34149,-1.77086 -0.55939,-2.65141c0.0455,0.89616 0.06824,1.73483 0.03707,2.52832c0.1741,0.03966 0.34822,0.08069 0.52231,0.12309z" data-paper-data="{&quot;index&quot;:null}" fill="#00f8ff"/><path d="M314.16374,67.3784c0.00403,0.00148 0.00846,0.0024 0.01329,0.00278zM304.56267,82.59135c0.17661,-0.25604 0.35882,-0.50675 0.5459,-0.75288c-0.22026,-1.36078 -0.21117,-2.70807 -0.00048,-4.00144l0.23646,-1.70148c-0.26019,0.55697 -0.56639,1.09722 -0.86324,1.61581c-0.06232,0.10885 0.34333,-0.26812 0.34814,-0.14279c0.04657,1.21357 -0.12325,2.42604 -0.21407,3.63711c-0.03597,0.47962 -0.05236,0.92524 -0.0527,1.34566zM325.95105,106.4487c-0.01265,-0.0726 -0.02568,-0.14568 -0.0391,-0.21922c0.01279,0.07259 0.02584,0.14568 0.0391,0.21922zM271.97529,175.73596c-8.98477,-2.57361 -8.36373,-12.68927 -8.36373,-12.68927c0.41732,-4.27188 -0.97075,-8.65787 -1.75218,-12.86466c-0.3044,-1.63875 -0.11969,-3.40181 -0.75404,-4.94315c-0.40117,-0.97477 -1.19171,-1.76895 -1.53107,-2.76691c-1.15291,-3.39034 -0.80673,-7.52057 -2.00895,-10.815c-0.36136,-0.99022 -1.20754,-1.7637 -1.53107,-2.76692c-1.83948,-5.70385 -2.44017,-12.0369 -2.30502,-17.88438c0.0771,-3.33624 -1.33355,-6.48555 -0.84313,-10.01444c-0.6055,-3.25965 0.40792,-6.07016 0.32268,-9.2139c-0.04189,-1.5445 -0.68002,-3.07937 -0.47513,-4.61079c0.53046,-3.96478 2.51039,-8.43384 4.22436,-11.92134c0.22459,-0.457 -0.49391,-3.72931 -0.49945,-3.93054c-0.0711,-2.58426 0.6339,-5.1419 0.6678,-7.72691c0.0255,-1.94484 -0.76268,-3.94444 -0.27903,-5.82834c0.63585,-2.47675 2.25317,-4.59498 3.52457,-6.81358c0.05589,-0.09751 0.22522,0.33453 0.25104,0.22514c0.24221,-1.02589 -0.00463,-2.17426 0.43529,-3.13217c0.96508,-2.10149 2.31371,-4.01734 3.69856,-5.86932c0.47764,-0.63874 1.3854,-0.87583 1.83688,-1.53332c1.74416,-2.53995 2.68348,-5.70634 4.92094,-7.82462c1.46289,-1.38496 3.41192,-2.14277 5.11787,-3.21415c3.28442,-1.68564 6.84636,-2.90263 10.46885,-3.61418c1.70629,-0.33516 3.66527,-0.04752 5.11987,-1.00037c1.55203,-1.01668 2.41403,-2.84182 3.83772,-4.03158c2.17399,-1.81677 4.62154,-3.2847 7.02715,-4.78136c1.22092,-0.75961 1.5737,-2.43447 2.59772,-3.44394c1.0616,-1.04652 2.4534,-1.70639 3.56746,-2.69689c1.49281,-1.32725 3.01458,-4.93671 4.2842,-6.4166c0.36032,-0.41999 5.97547,-5.94804 6.58254,-6.45535c5.54369,-4.63277 12.16286,-7.8217 18.55616,-11.1029c2.88576,-0.53605 4.76985,-2.06729 7.65559,-2.60334c1.68299,-0.31262 3.41877,0.25999 5.13026,0.2283c1.7903,-0.03315 3.09744,-1.34075 4.72879,-1.89551c0.91223,-0.31023 6.21747,-1.35279 7.83821,-1.62017c4.91745,-0.81121 9.31003,-0.34236 14.16153,-0.43219c2.99157,-0.0554 6.04291,-0.66167 9.03127,-0.66051c3.8285,0.00148 10.67267,0.89656 14.2005,2.14813c1.63106,0.57866 2.77969,2.28798 4.47603,2.63097c1.03318,0.20891 2.08811,0.2902 3.13217,0.43529c1.04455,0.44698 2.11497,0.83799 3.13788,1.33176c4.82186,-0.97875 11.42366,-0.71906 15.80299,1.55265c5.22275,2.70921 8.78422,8.66853 13.75238,11.95654c2.33293,1.54398 5.33092,2.34883 7.04706,4.55819c2.94697,3.79392 3.47239,10.59467 4.35771,15.36072c1.3393,7.20999 2.6786,14.42 4.0179,21.62999c0.93731,5.04597 1.89153,9.37404 1.57788,14.4827c1.44292,5.71835 2.98131,12.29008 3.3075,18.17664c0.14357,2.59079 -0.74947,5.86539 -0.33001,8.42293c0.10645,0.64902 0.96879,0.96164 1.17231,1.58704c0.48942,1.50403 2.12617,10.22001 2.19241,11.80266c0.19732,4.71366 -1.29984,9.50808 -1.80713,14.12718c-1.42397,12.96588 -0.56923,26.49369 -4.0951,39.11805c-2.46815,5.7678 -3.82422,11.6308 -4.75802,17.73909c-0.19508,1.27609 -0.86724,2.46624 -0.94949,3.75453c-0.05605,0.87796 0.60605,1.70474 0.54492,2.58235c-0.18618,2.67297 -0.49779,5.37269 -1.27755,7.93616c-1.34611,4.42539 -5.04072,7.98021 -7.5621,11.59463c-0.52053,0.7462 -0.51614,1.76154 -0.96373,2.55363c-4.15096,7.34598 -9.59138,15.34915 -15.00383,21.84957c-3.20475,3.84897 -7.33408,7.22385 -10.9323,10.71425c-6.41054,6.85995 -13.98926,13.58477 -23.03178,16.68912c-5.18089,1.77863 -11.13965,2.09168 -16.44657,1.96902c-1.84131,-0.04256 -3.5808,0.97237 -5.41971,1.07565c-3.89642,0.21884 -7.80601,-0.00441 -11.65964,0.06272c-5.82368,0.10143 -11.79146,3.08114 -17.69726,3.28736c-2.11986,0.07401 -8.17017,-1.06951 -10.23079,-1.42181c-3.8916,-1.8146 -9.37119,-5.24187 -13.8494,-5.91888c-3.2096,-0.48522 -6.59872,-0.22772 -9.64391,-1.35189c-2.04159,-0.75367 -3.4606,-2.73581 -5.47806,-3.55188c-1.75642,-0.71047 -3.74981,-0.86104 -5.38597,-1.81645c-1.61013,-0.94021 -2.72668,-2.546 -4.14915,-3.75143c-7.1844,-6.08821 -11.06086,-13.98436 -14.0608,-22.73704c-0.8382,-2.44558 -2.63428,-4.50181 -3.39814,-6.97163c-0.63983,-2.0688 -0.66409,-4.28927 -1.23663,-6.3777c-1.06428,-3.88212 -2.45922,-7.68588 -3.2223,-11.63825c-0.4492,-2.41826 -0.63893,-6.2172 -1.37471,-8.92745z" data-paper-data="{&quot;index&quot;:null}" fill="#00eaff"/><path d="M330.57824,2.45805c-0.02542,3.38275 -0.49564,6.66416 -1.66027,9.7277c-0.71149,1.87156 -5.00706,8.03141 -6.45363,9.39819c-1.0614,1.00287 -2.5604,1.42615 -3.71968,2.31406c-4.67319,3.57928 -3.58321,7.26125 -13.40326,6.49374c-4.10989,-0.32122 -7.70304,-3.18755 -10.98396,-5.68355c-1.60326,-1.21971 -2.21169,-3.37051 -3.21414,-5.11786c-2.63758,-4.59748 -4.38108,-10.05271 -5.51053,-15.20213c-0.22164,-1.83574 -1.32437,-3.45488 -1.89059,-5.21514c-1.16367,-3.61753 -0.85134,-7.79273 -2.03822,-11.34355c-0.33416,-0.99972 -1.19172,-1.76894 -1.53108,-2.76691c-1.4047,-4.13078 -2.97296,-11.36435 -2.92293,-15.73539c0.02604,-2.27449 0.38142,-4.54847 0.88896,-6.76577c0.41153,-1.79785 1.94919,-3.91373 1.83537,-5.94557c-0.30779,-5.4943 -0.30525,-11.77904 1.60023,-17.15006c1.42364,-4.01283 4.83447,-8.71646 7.23722,-12.09404c4.52774,-3.59741 8.23058,-7.68195 13.73458,-9.87247c5.23844,-2.08485 12.12186,-2.41588 17.67003,-3.44648c7.90433,-1.46828 16.57298,-4.24503 24.61126,-4.40751c3.18591,-0.0644 6.705,1.41667 9.90033,1.14337c4.54478,-0.38871 8.58323,-0.64392 13.18865,-0.00389c2.31323,0.29042 4.72231,0.15119 6.93972,0.87125c8.94951,2.90616 16.64061,13.19809 21.4976,20.5128c3.17843,4.78677 6.92768,8.57938 9.42896,13.93199c0.54172,1.15929 0.43092,2.53228 0.83035,3.74795c0.85803,2.61139 2.60486,4.87742 3.42741,7.50019c0.45141,1.43937 0.30405,3.02327 0.7598,4.46128c0.31847,1.00483 1.20755,1.7637 1.53108,2.76691c1.73164,5.36947 2.05025,10.44212 1.45875,15.95709c0,0 -1.72063,12.38101 -14.10164,10.66038c-0.57565,-0.07999 -1.1208,-0.18303 -1.63706,-0.30681c-4.01001,1.07441 -8.93878,0.13784 -13.1423,0.78869c-0.92091,-0.55596 -1.92373,-1.00508 -2.86959,-1.52851c-0.30806,-0.00059 -0.61226,0.00567 -0.89068,0.05739c-1.96636,0.36526 -3.93273,0.73051 -5.89909,1.09578c-5.89909,1.09579 -11.79818,2.19158 -17.69727,3.28737c-3.11707,0.57901 -6.60127,0.77875 -9.6151,1.72418c-3.57784,1.12236 -13.10884,5.59291 -17.3593,6.14531z" data-paper-data="{&quot;index&quot;:null}" fill="#00ddff"/><path d="M445.92939,151.30498c0.79638,-0.29368 1.67516,-0.53604 2.64462,-0.71612c12.28977,-2.28289 14.57266,10.00688 14.57266,10.00688c0.03169,1.36121 1.08924,2.49775 1.5546,3.77733c0.693,1.90548 1.38925,3.80978 2.07897,5.71646c0.3941,1.08945 0.35505,2.29855 0.70125,3.40417c0.67783,2.16472 2.36607,3.91311 3.09143,6.06238c1.45263,4.30424 2.67171,11.20207 2.92293,15.73538c0.05832,1.05248 -0.41094,2.07837 -0.43529,3.13218c-0.04621,1.99947 1.05537,3.8995 1.09579,5.89909c0.03947,1.95267 -1.16185,9.51521 -1.71285,11.06833c-0.52746,1.48675 -2.40156,2.43767 -2.51133,4.01139c-0.05741,0.82318 0.01503,1.6503 0.02255,2.47544c-0.47358,2.01672 0.48949,4.17956 0.09867,6.21394c-0.53282,2.77359 -1.77283,5.37092 -2.89093,7.96448c-0.1609,0.37323 -0.76834,0.43952 -0.89813,0.82467c-0.33662,0.9989 -0.04975,2.15113 -0.43529,3.13218c-1.185,3.01544 -3.68772,5.85217 -4.97035,8.79287c-0.75748,1.73668 -0.82512,3.77134 -1.81645,5.38598c-1.60361,2.61189 -4.31507,4.35893 -6.33572,6.66341c-2.01271,2.29541 -3.73378,4.86988 -5.78648,7.1775c-1.61776,1.81866 -2.54338,4.2362 -4.35618,5.8605c-4.36822,3.914 -12.53688,8.06425 -18.38086,8.2003c-2.84491,1.57423 -5.85711,1.47084 -8.666,2.62686c-4.24798,1.7483 -8.65368,3.64606 -13.48981,3.34698c-2.24599,-0.13891 -4.29369,-1.70153 -6.54357,-1.65987c-1.94467,0.03601 -3.93043,0.70446 -5.82833,0.27903c-2.09538,-0.46969 -3.82123,-1.96217 -5.76377,-2.87747c-4.5577,-2.14753 -9.07725,-4.17707 -13.44186,-6.65705c-2.04932,-1.16441 -3.74446,-2.90274 -5.82906,-4.00275c-1.32246,-0.69783 -2.84101,-1.0302 -4.07599,-1.87321c-3.97576,-2.71392 -7.10575,-6.80989 -11.14621,-9.36366c-1.60849,-1.28793 -3.50683,-2.28038 -4.82547,-3.8638c-2.48839,-2.98804 -4.00001,-7.50738 -6.40899,-10.67591c-0.8232,-1.08275 -2.04658,-1.83777 -2.79278,-2.97495c-3.70249,-5.64253 -5.28811,-11.66617 -6.49735,-18.17599c-0.96175,-5.1775 -1.83696,-9.32124 -0.41381,-14.66293c0.79667,-2.99025 2.62487,-5.60948 4.11113,-8.32377c0.77304,-1.41178 1.13212,-3.05336 2.06556,-4.36462c5.67245,-7.96834 14.51731,-13.23253 22.57154,-18.32902c1.6759,-0.9307 6.30702,-3.54669 7.68257,-4.07286c3.76901,-1.4417 7.68855,-2.24082 11.46006,-3.95225c2.23108,-1.01241 4.20057,-2.57763 6.48986,-3.45047c1.28758,-0.49092 2.82581,-0.04168 4.09249,-0.58426c1.37028,-0.58696 2.22715,-2.04437 3.56746,-2.69689c1.16089,-0.56518 2.5574,-0.4414 3.77295,-0.87679c3.07296,-1.10068 6.60141,-2.72758 9.51896,-4.36698c3.8077,-2.13959 7.60068,-4.43964 11.75448,-5.78961c4.38758,-1.42593 8.78386,-1.25775 13.21242,-1.33488c3.93283,-0.0685 8.89077,-1.7806 12.78136,-2.37421c1.56186,0.21704 3.01801,0.26501 4.38856,0.26259z" data-paper-data="{&quot;index&quot;:null}" fill="#00ddff"/><path d="M402.43452,154.074c-6.78745,1.26081 -13.31185,-3.21942 -14.57266,-10.00687c-1.26081,-6.78745 3.21942,-13.31185 10.00687,-14.57266c6.78745,-1.2608 13.31185,3.21943 14.57266,10.00688c1.26081,6.78745 -3.21942,13.31185 -10.00687,14.57266z" data-paper-data="{&quot;index&quot;:null}" fill="#ffffff"/><path d="M367.19707,49.24643c-1.2608,-6.78745 3.21943,-13.31186 10.00688,-14.57266c6.78745,-1.2608 13.31185,3.21943 14.57266,10.00688c1.2608,6.78745 -3.21943,13.31186 -10.00688,14.57266c-6.78745,1.2608 -13.31185,-3.21943 -14.57266,-10.00688z" data-paper-data="{&quot;index&quot;:null}" fill="#ffffff"/><path d="M394.74413,142.78872c-0.45389,-2.44348 1.15899,-4.79227 3.60247,-5.24616c2.44348,-0.45389 4.79227,1.15899 5.24616,3.60247c0.45389,2.44348 -1.15899,4.79227 -3.60247,5.24616c-2.44348,0.45389 -4.79227,-1.15899 -5.24616,-3.60247z" data-paper-data="{&quot;index&quot;:null}" fill="#000000"/><path d="M379.50813,52.55368c-2.44348,0.45389 -4.79227,-1.159 -5.24616,-3.60248c-0.45389,-2.44348 1.15899,-4.79227 3.60247,-5.24616c2.44348,-0.45389 4.79227,1.15899 5.24616,3.60247c0.45389,2.44348 -1.15899,4.79227 -3.60247,5.24616z" data-paper-data="{&quot;index&quot;:null}" fill="#000000"/><path d="M297.66785,148.64126c0,0 -3.55,-1.02077 -3.29251,-4.42899c-1.4957,3.97282 -1.77249,8.26906 -1.73753,13.19089c0.0138,1.94297 0.9961,3.78569 1.08853,5.72651c0.06538,1.37281 -0.30068,2.74183 -0.25265,4.11536c0.03317,0.94851 0.1798,1.93803 0.37703,2.93762c1.94945,-0.26893 3.15835,0.5138 3.89283,1.42256c2.90634,-0.37343 5.77298,-0.59995 8.67543,-0.9309c-0.26776,-0.97641 -0.53901,-1.95275 -0.55837,-2.95418c-0.08097,-4.18761 1.25067,-8.08447 2.84532,-11.8511c1.67214,-2.43509 3.58559,-4.58798 5.53668,-6.72727c-1.01214,-0.31166 -2.02186,-0.61813 -3.03877,-0.90852c-1.38378,2.46178 -4.49853,2.02891 -4.49853,2.02891c-2.08812,-0.2902 -4.17624,-0.58038 -6.26436,-0.87058l-2.77311,-0.75032zM299.62887,136.23144c-1.44745,1.45457 -2.60321,2.9267 -3.52387,4.43523c0.65151,-0.50536 1.38665,-0.72583 2.05004,-0.8043c1.09703,-1.20327 2.70142,-1.50129 2.70142,-1.50129l3.66886,-0.6224c4.01054,0.49631 7.08872,1.36013 10.88725,2.45236c1.9736,0.56749 3.90038,0.98396 5.78188,1.47725c1.66427,-0.80222 3.58864,-1.21269 5.04789,-2.34315c0.74533,-0.57741 0.84902,-1.76307 1.6011,-2.33163c1.09634,-0.8288 2.65314,-0.88571 3.75009,-1.7137c0.89236,-0.67356 1.09322,-2.07087 2.04372,-2.65954c1.04558,-0.64754 2.39257,-0.56197 3.57631,-0.90896c-1.73876,-4.90349 -3.17605,-10.46624 -6.50692,-14.28816c-0.59467,-0.68233 -1.39024,-1.13054 -2.20301,-1.56096c-0.86737,0.01521 -2.35022,-0.14893 -3.41173,-1.27624c-1.74946,0.77504 -3.2121,2.18483 -5.0121,2.85439c-1.85534,0.69014 -4.05234,0.61031 -5.67811,1.73968c-1.76396,1.22537 -3.0326,3.04254 -4.57204,4.54027c-3.89977,3.79409 -8.05839,7.50457 -10.2008,12.51116zM317.04535,173.49538c0.40735,2.19295 -0.47415,3.50086 -1.46693,4.26232c0.2819,3.22085 1.48529,6.78754 2.0574,9.86749c0.84581,4.55331 2.77513,9.8783 0.9797,14.42955c-3.22311,8.1703 -14.88504,8.58751 -20.49109,2.78923c-0.40247,-0.41627 -3.17031,-5.48065 -3.66806,-6.38017c-1.67727,-3.14538 -5.04836,-4.94213 -6.61853,-8.04556c-1.21462,-2.40067 -0.59601,-5.35749 -0.61512,-8.04787c-0.0125,-1.75978 -0.69988,-3.44955 -1.02128,-5.17978c-0.86852,-4.6756 -1.29349,-8.79879 -1.45829,-13.51072c-0.0719,-2.05576 -1.04646,-4.01543 -1.10304,-6.07167c-0.26582,-9.66132 1.07026,-19.47133 8.56952,-26.47143c2.34667,-5.48393 7.08369,-9.72236 11.34402,-13.86725c0.58879,-0.57283 5.39894,-5.27795 5.76509,-5.51676c2.29156,-1.49455 5.141,-1.87376 7.72117,-2.78352c1.98822,-0.70104 3.55849,-2.32561 5.53383,-3.06215c0.93699,-0.34936 2.00631,-0.21577 2.94955,-0.54789c1.98852,-0.70017 3.55792,-2.32716 5.53383,-3.06215c7.8749,-2.92927 16.4758,-4.41089 24.8843,-5.3502c1.72361,1.18359 3.88136,1.90486 5.17082,3.55075c2.28999,2.92298 1.36297,8.09686 1.38631,11.38113c0.02008,2.82531 1.2624,6.36276 1.7518,9.1125c0.39739,2.23278 0.171,4.53322 0.18712,6.80103c0.0001,0.01549 0.00024,0.03096 0.00039,0.04643c0.32055,0.68009 0.47569,1.54472 0.32321,2.64189c-0.02022,0.14548 -0.04452,0.28554 -0.07263,0.4204c0.28663,2.13358 0.67777,4.14019 0.36787,6.6445l-0.75031,2.77311c0,0 -1.24353,4.32477 -5.5683,3.08123c-4.32477,-1.24354 -3.08123,-5.5683 -3.08123,-5.5683l0.48552,-1.52488c0.12462,-0.76308 0.15536,-1.4491 0.1286,-2.09529c-2.48334,0.2733 -4.56167,1.28983 -7.2281,2.25957c-0.93978,0.34178 -2.00631,0.21578 -2.94955,0.5479c-1.98852,0.70017 -3.5451,2.36258 -5.53383,3.06215c-0.63482,0.22331 -1.45486,-0.28448 -2.01707,0.08538c-0.64453,0.42401 -0.54344,1.53793 -1.15847,2.00371c-1.09563,0.82975 -2.65374,0.88491 -3.75009,1.71371c-0.75208,0.56856 -0.84412,1.7696 -1.6011,2.33163c-0.47259,0.35087 -0.99712,0.62103 -1.54524,0.85362c0.37717,1.03672 0.3893,2.36732 -0.65976,3.89502c-2.33431,3.39936 -5.64459,1.54457 -6.18195,1.21056c-2.38138,2.64563 -5.03697,5.09534 -7.0544,8.03325c-0.96526,2.21282 -1.77515,4.84098 -1.73277,7.30722c0.01855,1.07912 0.32017,2.12926 0.60259,3.18161c0.71702,0.54295 1.32725,1.41382 1.5845,2.79872zM307.69142,183.36979c-0.24586,-1.32356 -0.40742,-2.54855 -0.5146,-3.74796c-3.72081,0.40246 -7.39847,0.67582 -11.13826,1.33768c0.10669,0.62335 0.17844,1.08171 0.18185,1.20582c0.03791,1.37748 -1.19208,2.99513 -0.3899,4.11558c2.02876,2.83369 4.68607,4.62656 6.50065,7.82538c1.88924,3.41416 1.57136,4.68005 5.20799,5.29181c1.04973,0.17659 2.25488,0.95506 2.68515,-0.59715c0.38225,-1.37898 -0.05998,-2.20612 -0.34131,-3.63298c-0.77358,-3.92354 -1.46122,-7.86633 -2.19158,-11.79817zM337.36961,111.37294c4.04365,4.54101 5.71978,10.75716 7.86048,16.38643c3.47258,-1.21293 6.98366,-2.19182 10.62394,-2.46554c0.01424,-0.14244 0.02209,-0.28531 0.02108,-0.4287c-0.02084,-2.9336 -1.23752,-6.20402 -1.75181,-9.1125c-0.39489,-2.23322 -0.17099,-4.53322 -0.18711,-6.80103c-0.00044,-0.0626 -0.64016,-1.95686 -0.59372,-2.8805c-3.97502,1.59144 -8.65264,1.1793 -12.7095,2.49065c-1.61511,0.52208 -3.22556,1.059 -4.83043,1.61194c0.78749,0.5617 1.41797,1.03183 1.56706,1.19926z" data-paper-data="{&quot;index&quot;:null}" fill="#00c2ff"/><path d="M305.84734,80.793c-2.32287,1.31813 -5.51557,2.04993 -7.50434,1.89777c-1.19835,-0.09168 -2.12463,-1.25136 -3.31481,-1.41847c-1.12936,-0.15858 -2.25857,0.31819 -3.38786,0.47729c-1.57642,-0.99268 -3.41983,-1.65294 -4.72927,-2.97804c-2.46666,-2.49617 -4.26951,-9.17533 -3.69743,-12.62494c0.19216,-1.15871 1.38497,-1.92879 1.80752,-3.02469c0.49839,-1.29258 0.1371,-2.91061 0.92131,-4.05261c0.7842,-1.142 2.43174,-1.37742 3.4514,-2.31522c0.69394,-0.63823 0.88521,-1.71812 1.6011,-2.33163c1.20435,-1.0321 7.63116,-4.33141 8.77557,-4.22545c7.85102,0.72695 7.0719,8.18296 8.9774,13.24195c0.37154,0.98645 1.17973,1.7731 1.53107,2.76692c1.0269,2.90469 1.26809,6.5085 1.83246,9.54671c0,0 0.82185,4.42432 -3.60247,5.24616c-1.09317,0.20306 -1.9664,0.08585 -2.66165,-0.20576z" data-paper-data="{&quot;index&quot;:null}" fill="#000000"/><path d="M136.01689,259.18155c0.89072,0.8586 1.4927,1.92584 1.98196,3.0745c0.94068,1.54148 1.6215,3.27733 1.97093,5.15845c1.05541,5.68174 -1.18664,11.21239 -5.37288,14.62125c-1.80699,1.47144 -3.97623,2.54754 -6.39889,3.06981c-10.58204,3.80777 -24.95802,4.63764 -25.5326,4.74931c-1.73181,0.3366 -3.50291,1.5984 -5.20002,1.98304c-4.2742,0.96875 -8.60012,1.69417 -12.90902,2.49457c-4.19308,0.77889 -10.34835,-0.18378 -14.52758,-1.26308c-0.97859,-0.25272 -1.84184,0.34792 -2.78936,0.31474c-7.29437,-0.25546 -13.17266,-0.08083 -19.36477,-4.33288c-5.59645,-3.84302 -6.47156,-9.65345 -10.04946,-14.66459c-3.04598,-4.26613 -5.42187,-9.19537 -7.4953,-14.0678c-7.11541,-16.72075 -3.01269,-27.29049 9.3435,-40.23423c1.2388,-1.29772 1.99943,-2.95659 3.38395,-4.18095c4.83743,-4.27781 14.47192,-6.00553 19.94941,-9.9164c7.42446,-5.30099 16.45356,-7.79836 25.54589,-8.00558c4.07403,-0.09285 8.40084,-1.13185 12.46296,0.03617c13.76792,3.9588 9.56763,12.21145 15.37311,21.14323c2.64275,4.0659 6.21208,8.27259 8.20877,12.64194c0.78841,1.7253 1.43646,3.96802 2.5499,5.59782c2.30881,3.37952 5.58696,5.57904 7.19499,9.56625c1.42792,3.54063 -1.50787,7.68909 -0.62447,10.73669c0.3966,0.27742 0.7801,0.57361 1.14905,0.88759c0.41866,0.15774 0.85731,0.30811 1.14994,0.59019z" data-paper-data="{&quot;index&quot;:null}" fill="#efff00"/><path d="M108.46116,147.06989c2.58638,6.07781 4.67246,12.69827 2.70684,19.53425c-0.63803,2.21895 -1.83679,4.37304 -3.49381,5.98086c-1.40256,1.36092 -3.69304,1.40443 -5.28526,2.53761c-0.6067,0.95339 -1.31828,1.83907 -2.12205,2.63854c-0.24291,0.32929 -0.50519,0.63924 -0.81195,0.90375c-0.90145,0.77731 -1.93656,1.38437 -3.03535,1.87824c-1.26719,0.64182 -2.64605,1.11597 -4.11327,1.38852v0c-15.29705,4.04512 -23.03394,3.14454 -37.27244,1.1953c-4.9818,-0.682 -10.8828,-0.3927 -15.47941,-3.05492c-2.1047,-1.21898 -3.88884,-2.95167 -5.85084,-4.29895c-3.64255,-2.50128 -7.98044,-4.67342 -9.95977,-9.00479c-0.98507,-2.15562 -2.92951,-5.12119 -3.13144,-7.52212c-0.14031,-1.66825 0.41165,-3.39973 0.17667,-5.04468c-0.45888,-3.21233 -1.60714,-6.5832 -1.40485,-9.87825c0.79735,-12.98743 17.73351,-19.48382 28.3321,-21.74631c6.4953,-1.38655 13.06889,-2.37837 19.58982,-3.63891c2.52566,-0.48822 5.21979,-2.4393 7.574,-3.44112c7.85479,-3.34257 20.33581,-4.87436 29.22033,-2.57993c1.93586,0.49994 4.03501,-0.2352 5.85597,0.75316c2.67554,1.4522 6.15024,2.1774 7.81462,4.72637c4.28942,6.5692 4.68609,18.97424 -2.713,23.80555c-2.29185,1.49649 -4.69231,2.2392 -6.90992,3.18288z" data-paper-data="{&quot;index&quot;:null}" fill="#efff00"/><path d="M229.83597,124.34599c6.18419,-1.14875 19.60822,-0.14373 23.30664,5.52037c3.7897,5.80387 6.77995,14.61085 4.74466,21.6892c-1.83668,6.38757 -7.45532,10.1139 -9.51623,14.60515c-4.1201,8.97876 -9.3893,17.41131 -16.2483,24.77764c-2.31884,2.49036 -6.41587,3.23943 -9.16529,5.24679c-4.29468,3.13554 -8.42613,6.489 -12.66796,9.69568c-1.60733,1.2151 -3.8134,1.48723 -5.49743,2.58181c-7.31808,4.75659 -13.82514,10.92096 -22.80331,12.75092c-11.98333,2.44249 -30.65529,8.23948 -44.40524,5.29255c-3.02525,-0.64838 -6.93093,-4.16309 -9.45318,-6.19651c-6.35579,-5.12401 -9.20706,-15.35387 -10.81913,-22.85848c-1.04608,-4.86978 -5.79751,-14.66637 -5.6327,-19.37217c0.42186,-12.04601 4.96189,-22.32384 11.56037,-32.22034c1.12539,-1.68789 1.2907,-3.8308 2.2526,-5.46111c3.20927,-5.43934 8.38463,-9.29611 14.03428,-11.87787c21.2958,-9.7317 37.61687,-10.69254 60.14112,-4.87563c2.7329,0.70578 4.45648,-0.14781 6.90472,-0.06208c7.82569,0.27406 15.33756,0.21266 23.14051,0.6917z" data-paper-data="{&quot;index&quot;:null}" fill="#efff00"/><path d="M228.24865,155.40827c-0.25216,-1.3575 0.64388,-2.66238 2.00137,-2.91454c1.35749,-0.25216 2.66238,0.64388 2.91454,2.00137c0.25216,1.3575 -0.64388,2.66238 -2.00137,2.91454c-1.35749,0.25216 -2.66238,-0.64388 -2.91454,-2.00137z" data-paper-data="{&quot;index&quot;:null}" fill="#000000"/><path d="M210.70657,175.95761c-0.25216,-1.3575 0.64388,-2.66238 2.00137,-2.91454c1.35749,-0.25216 2.66238,0.64389 2.91454,2.00138c0.25216,1.3575 -0.64388,2.66238 -2.00137,2.91454c-1.35749,0.25216 -2.66238,-0.64389 -2.91454,-2.00138z" data-paper-data="{&quot;index&quot;:null}" fill="#000000"/><path d="M207.70688,151.59573c-1.35749,0.25216 -2.66238,-0.64389 -2.91454,-2.00138c-0.25216,-1.35749 0.64388,-2.66237 2.00137,-2.91453c1.35749,-0.25216 2.66238,0.64388 2.91454,2.00137c0.25216,1.35749 -0.64388,2.66237 -2.00137,2.91453z" data-paper-data="{&quot;index&quot;:null}" fill="#000000"/><path d="M241.32524,160.09897c-0.25216,-1.3575 0.64388,-2.66238 2.00137,-2.91454c1.35749,-0.25216 2.66237,0.64388 2.91453,2.00137c0.25216,1.3575 -0.64388,2.66238 -2.00137,2.91454c-1.35749,0.25216 -2.66237,-0.64388 -2.91453,-2.00137z" data-paper-data="{&quot;index&quot;:null}" fill="#000000"/><path d="M238.61757,141.51312l1.6011,-2.33163c0,0 1.41518,-2.06088 3.47607,-0.64569c2.06089,1.41518 0.6457,3.47607 0.6457,3.47607l-1.6011,2.33162c0,0 -1.41518,2.06089 -3.47607,0.6457c-2.06088,-1.41518 -0.6457,-3.47607 -0.6457,-3.47607z" data-paper-data="{&quot;index&quot;:null}" fill="#000000"/><path d="M198.81092,199.52653c-0.25216,-1.3575 0.64388,-2.66238 2.00137,-2.91454c1.35749,-0.25216 2.66238,0.64388 2.91454,2.00137c0.25216,1.3575 -0.64388,2.66238 -2.00137,2.91454c-1.35749,0.25216 -2.66238,-0.64388 -2.91454,-2.00137z" data-paper-data="{&quot;index&quot;:null}" fill="#000000"/><path d="M175.61957,145.85939c-0.25216,-1.35749 0.64388,-2.66237 2.00137,-2.91453c1.35749,-0.25216 2.66238,0.64388 2.91454,2.00137c0.25216,1.35749 -0.64388,2.66237 -2.00137,2.91453c-1.35749,0.25216 -2.66238,-0.64388 -2.91454,-2.00137z" data-paper-data="{&quot;index&quot;:null}" fill="#000000"/><path d="M129.42518,181.90213c-0.25216,-1.3575 0.64388,-2.66238 2.00137,-2.91454c1.35749,-0.25216 2.66238,0.64388 2.91454,2.00137c0.25216,1.3575 -0.64388,2.66238 -2.00137,2.91454c-1.35749,0.25216 -2.66238,-0.64388 -2.91454,-2.00137z" data-paper-data="{&quot;index&quot;:null}" fill="#000000"/><path d="M158.02262,198.96634c-0.25216,-1.3575 0.64388,-2.66238 2.00137,-2.91454c1.35749,-0.25216 2.66237,0.64388 2.91453,2.00137c0.25216,1.3575 -0.64388,2.66238 -2.00137,2.91454c-1.35749,0.25216 -2.66237,-0.64388 -2.91453,-2.00137z" data-paper-data="{&quot;index&quot;:null}" fill="#000000"/><path d="M144.88829,155.63633c-0.25216,-1.35749 0.64388,-2.66237 2.00137,-2.91453c1.35749,-0.25216 2.66238,0.64388 2.91454,2.00137c0.25216,1.35749 -0.64388,2.66237 -2.00137,2.91453c-1.35749,0.25216 -2.66238,-0.64388 -2.91454,-2.00137z" data-paper-data="{&quot;index&quot;:null}" fill="#000000"/><path d="M173.12046,170.73417c-0.25216,-1.35749 0.64388,-2.66237 2.00137,-2.91453c1.35749,-0.25216 2.66238,0.64388 2.91454,2.00137c0.25216,1.35749 -0.64388,2.66237 -2.00137,2.91453c-1.35749,0.25216 -2.66238,-0.64388 -2.91454,-2.00137z" data-paper-data="{&quot;index&quot;:null}" fill="#000000"/><path d="M150.68992,175.91788c-0.25216,-1.3575 0.64388,-2.66238 2.00137,-2.91454c1.35749,-0.25216 2.66237,0.64388 2.91453,2.00137c0.25216,1.3575 -0.64388,2.66238 -2.00137,2.91454c-1.35749,0.25216 -2.66237,-0.64388 -2.91453,-2.00137z" data-paper-data="{&quot;index&quot;:null}" fill="#000000"/><path d="M146.88493,210.18918c-0.25216,-1.35749 0.64388,-2.66237 2.00137,-2.91453c1.35749,-0.25216 2.66238,0.64388 2.91454,2.00137c0.25216,1.35749 -0.64388,2.66237 -2.00137,2.91453c-1.35749,0.25216 -2.66238,-0.64388 -2.91454,-2.00137z" data-paper-data="{&quot;index&quot;:null}" fill="#000000"/><path d="M182.64473,205.58081c-0.25216,-1.3575 0.64388,-2.66238 2.00137,-2.91454c1.35749,-0.25216 2.66238,0.64388 2.91454,2.00137c0.25216,1.3575 -0.64388,2.66238 -2.00137,2.91454c-1.35749,0.25216 -2.66238,-0.64388 -2.91454,-2.00137z" data-paper-data="{&quot;index&quot;:null}" fill="#000000"/><path d="M197.41233,172.83302c-1.35749,0.25216 -2.66238,-0.64389 -2.91454,-2.00138c-0.25216,-1.35749 0.64388,-2.66237 2.00137,-2.91453c1.35749,-0.25216 2.66238,0.64388 2.91454,2.00137c0.25216,1.35749 -0.64388,2.66237 -2.00137,2.91453z" data-paper-data="{&quot;index&quot;:null}" fill="#000000"/><path d="M158.79288,142.88241c-0.25216,-1.3575 0.64388,-2.66238 2.00137,-2.91454c1.35749,-0.25216 2.66238,0.64388 2.91454,2.00137c0.25216,1.3575 -0.64388,2.66238 -2.00137,2.91454c-1.35749,0.25216 -2.66238,-0.64388 -2.91454,-2.00137z" data-paper-data="{&quot;index&quot;:null}" fill="#000000"/><path d="M255.94774,251.76152c-0.02548,1.16636 -0.07775,2.32735 -0.3609,3.45229c-0.4188,1.66384 -1.18406,3.21577 -1.96088,4.75639c-3.8932,11.37922 -10.38479,21.85815 -19.07405,29.9456c-4.99534,4.64938 -10.80364,8.34109 -16.2632,12.43539c-8.76743,6.57498 -17.35187,12.10827 -28.23593,14.47201c-3.80764,0.82692 -7.71066,1.20774 -11.6001,1.4405c-3.76013,0.22503 -7.36124,-1.32887 -11.08232,-1.5136c-4.74111,-0.23538 -9.50095,-0.58261 -14.16546,-1.46347c-6.35087,-6.62013 -12.06377,-8.61992 -5.91125,-19.62457c1.98746,-3.55485 9.04852,-6.11884 13.11061,-7.51083c2.04588,-0.70107 4.04706,-1.61111 6.17749,-1.98304c1.03839,-0.18128 2.08843,0.38264 3.14218,0.356c1.88502,-0.04765 3.44465,-1.68433 5.31228,-1.94414c0.74416,-0.10353 1.4646,0.69799 2.19386,0.51718c0.76926,-0.19072 1.0895,-1.23869 1.83219,-1.51536c2.21559,-0.82535 4.58994,-1.13751 6.87683,-1.73763c3.88068,-1.01837 7.99962,-0.9743 11.85333,-2.0904c4.72702,-1.36902 5.61528,-3.31046 9.57762,-6.18399c0.6882,-0.49909 1.61135,-0.64795 2.23876,-1.2216c1.0798,-0.98728 1.65004,-2.47436 2.79703,-3.3827c1.5826,-1.25332 3.57662,-1.88719 5.26154,-2.99917c2.33626,-1.54184 4.47636,-3.37562 6.85875,-4.84514c2.05144,-1.25274 4.04019,-2.61445 6.15432,-3.75824c1.08598,-0.58754 2.37685,-0.85322 3.40702,-1.50921c1.10016,-2.45506 1.99062,-4.94457 2.67518,-7.46344c-0.03775,-0.70089 -0.09443,-1.40492 -0.02301,-2.09714c0.21245,-2.05923 0.92899,-4.12662 0.64368,-6.17703c-0.76734,-5.51451 -3.24733,-7.17678 -5.98057,-11.83415c-0.43264,-0.73721 -2.11803,-5.42109 -2.59912,-6.73566l-0.6548,-5.30249c0,0 -0.24325,-8.36222 7.4668,-9.82018c0.46877,-0.39725 1.00072,-0.78191 1.60285,-1.14961c8.32114,-5.08146 13.40259,3.23968 13.40259,3.23968c1.43831,2.36044 4.6844,7.4979 5.20109,9.56682c2.7135,10.86536 2.64009,22.52125 0.12558,33.68091z" data-paper-data="{&quot;index&quot;:null}" fill="#00fff9"/><path d="M88.88278,70.39376c0.71371,-0.92285 1.44578,-1.82547 2.3421,-2.56186c1.3257,-1.08916 2.86352,-1.8824 4.40391,-2.65967c9.89418,-6.83733 21.34291,-11.40627 33.13764,-12.7458c6.78064,-0.77008 13.64588,-0.28682 20.46994,-0.33459c10.95866,-0.07673 21.15104,0.57551 31.30896,5.14352c3.55361,1.59805 6.91878,3.61155 10.18504,5.73605c3.15767,2.05386 5.13014,5.44383 8.01287,7.80402c3.67294,3.00717 7.29445,6.11542 10.52214,9.59617c1.17274,9.0986 4.57852,14.1023 -6.90999,19.29556c-3.71115,1.67759 -10.9136,-0.45716 -15.00769,-1.75202c-2.06199,-0.65215 -4.21223,-1.1097 -6.1466,-2.07681c-0.94282,-0.47138 -1.4521,-1.54897 -2.31537,-2.15385c-1.54427,-1.08203 -3.77129,-0.69278 -5.42767,-1.59386c-0.65999,-0.35904 -0.763,-1.43181 -1.45693,-1.71984c-0.73201,-0.30383 -1.6124,0.34862 -2.37412,0.1297c-2.27233,-0.65309 -4.36733,-1.81324 -6.56315,-2.68983c-3.72614,-1.4875 -7.01243,-3.97103 -10.77496,-5.36391c-4.61518,-1.70853 -6.48342,-0.67516 -11.37784,-0.71926c-0.85009,-0.00765 -1.68098,-0.43662 -2.52649,-0.34819c-1.45516,0.1522 -2.7976,1.0092 -4.25989,1.05798c-2.01765,0.0673 -3.998,-0.60808 -6.01392,-0.71525c-2.79522,-0.1486 -5.60621,0.05418 -8.39556,-0.18c-2.39435,-0.2118 -4.80305,-0.29872 -7.18305,-0.63541c-1.22256,-0.17295 -2.41859,-0.72653 -3.63695,-0.81125c-2.34392,1.32048 -4.53967,2.79332 -6.58729,4.41215c-0.38621,0.5861 -0.75907,1.18597 -1.22792,1.70021c-1.39476,1.52978 -3.19977,2.76652 -4.18898,4.58504c-2.66045,4.89088 -1.65399,7.70167 -2.22401,13.07166c-0.09023,0.85 -1.5187,5.61851 -1.91311,6.96164l-2.62494,4.65347c0,0 -4.77446,6.86953 -11.84147,3.45957c-0.61309,0.04085 -1.26951,0.03404 -1.97229,-0.02813c-9.71207,-0.85913 -8.85295,-10.5712 -8.85295,-10.5712c0.24623,-2.75314 0.68914,-8.81403 1.50328,-10.78497c4.27561,-10.35076 11.26232,-19.68088 19.91725,-27.16105z" data-paper-data="{&quot;index&quot;:null}" fill="#00fff9"/></g></g></svg>