<svg xmlns="http://www.w3.org/2000/svg" xmlns:xlink="http://www.w3.org/1999/xlink" version="1.1" width="682" height="265" viewBox="0 0 682 265">
  <!-- Exported by Scratch - http://scratch.mit.edu/ -->
  <g id="ID0.3618333274498582">
    <path id="ID0.2358101550489664" d="M 99.9 91.2878 C 100.7706 91.1412 101.9083 91.0206 103.3564 91.0206 C 105.1319 91.0206 106.4421 91.4343 107.2695 92.1755 C 108.0108 92.8392 108.4849 93.8563 108.4849 95.0975 C 108.4849 96.3559 108.1142 97.3558 107.4074 98.0798 C 106.4335 99.0969 104.9078 99.614 103.1495 99.614 C 102.6151 99.614 102.1152 99.5968 101.7014 99.4934 L 101.7014 105.0787 L 99.9 105.0787 L 99.9 91.2878 Z M 101.7014 98.0108 C 102.0979 98.1143 102.5892 98.1574 103.1926 98.1574 C 105.3647 98.1574 106.692 97.0799 106.692 95.2009 C 106.692 93.3392 105.3647 92.4514 103.3994 92.4514 C 102.6151 92.4514 102.0117 92.5117 101.7014 92.5979 L 101.7014 98.0108 Z " stroke-width="0.8619328737258911" />
    <path id="ID0.965262159705162" d="M 119.3883 99.976 C 119.3883 103.6823 116.8025 105.2942 114.4063 105.2942 C 111.7171 105.2942 109.6054 103.3117 109.6054 100.1398 C 109.6054 96.8127 111.8205 94.8475 114.5701 94.8475 C 117.4403 94.8475 119.3883 96.9334 119.3883 99.976 Z M 111.4671 100.0795 C 111.4671 102.2688 112.7083 103.9237 114.4839 103.9237 C 116.225 103.9237 117.5265 102.286 117.5265 100.0364 C 117.5265 98.3384 116.6818 96.2094 114.527 96.2094 C 112.398 96.2094 111.4671 98.2005 111.4671 100.0795 Z " stroke-width="0.8619328737258911" />
    <path id="ID0.8755654166452587" d="M 130.7486 99.976 C 130.7486 103.6823 128.1628 105.2942 125.7666 105.2942 C 123.0774 105.2942 120.9656 103.3117 120.9656 100.1398 C 120.9656 96.8127 123.1808 94.8475 125.9304 94.8475 C 128.8006 94.8475 130.7486 96.9334 130.7486 99.976 Z M 122.8188 100.0795 C 122.8188 102.2688 124.06 103.9237 125.8356 103.9237 C 127.5767 103.9237 128.8782 102.286 128.8782 100.0364 C 128.8782 98.3384 128.0335 96.2094 125.8787 96.2094 C 123.7497 96.2094 122.8188 98.2005 122.8188 100.0795 Z " stroke-width="0.8619328737258911" />
    <path id="ID0.39790206030011177" d="M 133.0413 98.1746 C 133.0413 96.9937 133.0241 95.9853 132.9551 95.0544 L 134.5497 95.0544 L 134.6359 97.0368 L 134.6962 97.0368 C 135.1531 95.6922 136.2649 94.8475 137.4889 94.8475 C 137.6785 94.8475 137.8164 94.8648 137.9888 94.8906 L 137.9888 96.6059 C 137.7992 96.5628 137.6182 96.5628 137.3682 96.5628 C 136.0839 96.5628 135.1789 97.5109 134.929 98.8814 C 134.8859 99.1313 134.8686 99.4416 134.8686 99.7261 L 134.8686 105.0614 L 133.0499 105.0614 L 133.0499 98.1746 Z " stroke-width="0.8619328737258911" />
    <path id="ID0.5976704675704241" d="M 146.0479 91.124 L 146.0479 99.3985 C 146.0479 102.5015 147.4356 103.8289 149.2974 103.8289 C 151.3488 103.8289 152.6934 102.467 152.6934 99.3985 L 152.6934 91.124 L 154.5121 91.124 L 154.5121 99.2779 C 154.5121 103.5617 152.2538 105.2942 149.237 105.2942 C 146.384 105.2942 144.2292 103.6823 144.2292 99.3382 L 144.2292 91.124 L 146.0479 91.124 Z " stroke-width="0.8619328737258911" />
    <path id="ID0.21614999324083328" d="M 157.5719 97.7609 C 157.5719 96.7093 157.5547 95.8819 157.4857 95.0544 L 159.0975 95.0544 L 159.201 96.7093 L 159.2441 96.7093 C 159.744 95.7784 160.899 94.8475 162.5539 94.8475 C 163.9416 94.8475 166.0878 95.675 166.0878 99.1055 L 166.0878 105.0614 L 164.2691 105.0614 L 164.2691 99.2865 C 164.2691 97.6747 163.6658 96.3301 161.9505 96.3301 C 160.7697 96.3301 159.8388 97.1748 159.5113 98.1918 C 159.4251 98.4159 159.3906 98.7262 159.3906 99.0365 L 159.3906 105.0528 L 157.5719 105.0528 L 157.5719 97.7609 Z " stroke-width="0.8619328737258911" />
    <path id="ID0.9295611674897373" d="M 176.1897 104.7167 C 175.7156 104.9408 174.6554 105.2942 173.3108 105.2942 C 170.2941 105.2942 168.3289 103.2428 168.3289 100.1829 C 168.3289 97.0972 170.4406 94.8475 173.7073 94.8475 C 174.7847 94.8475 175.7329 95.1147 176.2328 95.3819 L 175.819 96.7696 C 175.3881 96.5455 174.6985 96.2956 173.7073 96.2956 C 171.4146 96.2956 170.1734 98.0108 170.1734 100.0795 C 170.1734 102.3981 171.6645 103.8203 173.647 103.8203 C 174.6813 103.8203 175.3622 103.5703 175.8794 103.3462 L 176.1897 104.7167 Z " stroke-width="0.8619328737258911" />
    <path id="ID0.8491689953953028" d="M 178.3187 90.3741 L 180.1373 90.3741 L 180.1373 105.0614 L 178.3187 105.0614 L 178.3187 90.3741 Z " stroke-width="0.8619328737258911" />
    <path id="ID0.3353780545294285" d="M 184.2143 100.3898 C 184.2574 102.8549 185.8088 103.8634 187.6448 103.8634 C 188.9463 103.8634 189.7565 103.6392 190.4202 103.3462 L 190.7477 104.6477 C 190.1099 104.9408 188.9894 105.2855 187.3948 105.2855 C 184.3091 105.2855 182.4732 103.2341 182.4732 100.2174 C 182.4732 97.2006 184.2488 94.8389 187.1707 94.8389 C 190.4633 94.8389 191.308 97.6919 191.308 99.5364 C 191.308 99.9071 191.2907 100.1743 191.2476 100.3811 L 184.2143 100.3811 Z M 189.5583 99.0882 C 189.5755 97.9505 189.0842 96.1491 187.0328 96.1491 C 185.171 96.1491 184.3867 97.8212 184.2401 99.0882 L 189.5583 99.0882 Z " stroke-width="0.8619328737258911" />
    <path id="ID0.8470882149413228" d="M 198.0138 91.3308 C 198.7982 91.1412 200.0652 91.0206 201.3064 91.0206 C 203.1078 91.0206 204.2628 91.3308 205.1161 92.0376 C 205.8402 92.572 206.297 93.3995 206.297 94.5028 C 206.297 95.8646 205.3833 97.0455 203.9353 97.5626 L 203.9353 97.623 C 205.2627 97.9333 206.8142 99.0279 206.8142 101.0965 C 206.8142 102.2946 206.3401 103.2255 205.6161 103.8892 C 204.6679 104.777 203.0906 105.1907 200.8151 105.1907 C 199.5739 105.1907 198.6258 105.1045 198.0224 105.027 L 198.0224 91.3308 Z M 199.8153 97.0368 L 201.4529 97.0368 C 203.3319 97.0368 204.4525 96.0198 204.4525 94.6751 C 204.4525 93.0633 203.2285 92.3996 201.4098 92.3996 C 200.5824 92.3996 200.1083 92.46 199.8153 92.5203 L 199.8153 97.0368 Z M 199.8153 103.6996 C 200.1859 103.7599 200.6858 103.7858 201.3236 103.7858 C 203.1854 103.7858 204.9007 103.1049 204.9007 101.0793 C 204.9007 99.2003 203.263 98.3901 201.2978 98.3901 L 199.8066 98.3901 L 199.8066 103.6996 Z " stroke-width="0.8619328737258911" />
    <path id="ID0.7680223998613656" d="M 211.1928 92.2359 C 211.1928 92.8565 210.7618 93.3564 210.0378 93.3564 C 209.3741 93.3564 208.9431 92.8565 208.9431 92.2359 C 208.9431 91.6153 209.4 91.0981 210.0809 91.0981 C 210.7359 91.0981 211.1928 91.598 211.1928 92.2359 Z M 209.1672 105.0701 L 209.1672 95.0544 L 210.9859 95.0544 L 210.9859 105.0701 L 209.1672 105.0701 Z " stroke-width="0.8619328737258911" />
    <path id="ID0.9219714603386819" d="M 216.2006 92.6496 L 216.2006 95.0458 L 218.8036 95.0458 L 218.8036 96.4421 L 216.2006 96.4421 L 216.2006 101.8378 C 216.2006 103.079 216.554 103.7858 217.5625 103.7858 C 218.0624 103.7858 218.3468 103.7427 218.614 103.6651 L 218.7002 105.0528 C 218.3468 105.1735 217.7866 105.3028 217.0884 105.3028 C 216.2437 105.3028 215.5542 105.0097 215.1232 104.5357 C 214.6233 103.9754 214.4164 103.0876 214.4164 101.9068 L 214.4164 96.4421 L 212.8649 96.4421 L 212.8649 95.0544 L 214.4164 95.0544 L 214.4164 93.1926 L 216.2006 92.6496 Z " stroke-width="0.8619328737258911" />
    <path id="ID0.24228056613355875" d="M 220.855 97.7609 C 220.855 96.7093 220.8119 95.8819 220.7688 95.0544 L 222.3634 95.0544 L 222.4496 96.6921 L 222.51 96.6921 C 223.0702 95.7439 224.0011 94.8475 225.6732 94.8475 C 227.0179 94.8475 228.0522 95.675 228.4831 96.8558 L 228.5262 96.8558 C 228.8365 96.2783 229.2503 95.8646 229.664 95.5543 C 230.2673 95.0975 230.9052 94.8475 231.8533 94.8475 C 233.1979 94.8475 235.1631 95.7181 235.1631 99.1917 L 235.1631 105.0701 L 233.3875 105.0701 L 233.3875 99.4244 C 233.3875 97.4764 232.6635 96.3387 231.2155 96.3387 C 230.1639 96.3387 229.3709 97.1058 229.0434 97.9764 C 228.9572 98.2435 228.8969 98.5538 228.8969 98.89 L 228.8969 105.0787 L 227.1213 105.0787 L 227.1213 99.0796 C 227.1213 97.485 226.4145 96.3473 225.0354 96.3473 C 223.9149 96.3473 223.0702 97.2609 222.7772 98.166 C 222.6737 98.4159 222.6306 98.7435 222.6306 99.0538 L 222.6306 105.0701 L 220.855 105.0701 L 220.855 97.7609 Z " stroke-width="0.8619328737258911" />
    <path id="ID0.281007029581815" d="M 245.1357 102.6653 C 245.1357 103.5358 245.1788 104.3805 245.2822 105.0614 L 243.6445 105.0614 L 243.498 103.803 L 243.4377 103.803 C 242.8774 104.5874 241.8 105.2942 240.3778 105.2942 C 238.3523 105.2942 237.318 103.8634 237.318 102.4153 C 237.318 99.9933 239.4728 98.6745 243.3342 98.6918 L 243.3342 98.4849 C 243.3342 97.6747 243.1101 96.1663 241.0587 96.1921 C 240.1106 96.1921 239.1366 96.4593 238.4299 96.9334 L 238.0161 95.7095 C 238.8436 95.1923 240.0675 94.8389 241.3259 94.8389 C 244.3858 94.8389 245.1357 96.9248 245.1357 98.9159 L 245.1357 102.6653 Z M 243.3773 99.9588 C 241.3949 99.9157 239.1366 100.2691 239.1366 102.2171 C 239.1366 103.4151 239.921 103.9582 240.8346 103.9582 C 242.162 103.9582 243.0067 103.1307 243.2998 102.286 C 243.3601 102.0792 243.386 101.8723 243.386 101.7085 L 243.386 99.9588 Z " stroke-width="0.8619328737258911" />
    <path id="ID0.7546499501913786" d="M 248.0749 98.3211 C 248.0749 97.0368 248.0318 96.0025 247.9887 95.0544 L 249.6005 95.0544 L 249.7039 96.7696 L 249.747 96.7696 C 250.4711 95.5457 251.6691 94.8475 253.3068 94.8475 C 255.7461 94.8475 257.5648 96.8989 257.5648 99.9157 C 257.5648 103.5186 255.3496 105.2942 252.9965 105.2942 C 251.6691 105.2942 250.5142 104.7167 249.9108 103.7254 L 249.8763 103.7254 L 249.8763 109.1642 L 248.0749 109.1642 L 248.0749 98.3211 Z M 249.8763 100.9931 C 249.8763 101.2603 249.8936 101.5103 249.9625 101.7344 C 250.29 102.9928 251.3933 103.8634 252.6948 103.8634 C 254.617 103.8634 255.7375 102.2946 255.7375 99.9933 C 255.7375 98.0108 254.6859 96.287 252.7552 96.287 C 251.514 96.287 250.3331 97.1575 250.0056 98.5194 C 249.9453 98.7435 249.8849 99.0193 249.8849 99.2434 L 249.8849 100.9931 Z " stroke-width="0.8619328737258911" />
    <path id="ID0.30892000580206513" d="M 263.9862 103.2255 C 264.5464 103.5531 265.4945 103.9323 266.4082 103.9323 C 267.7097 103.9323 268.3303 103.2945 268.3303 102.4412 C 268.3303 101.5706 267.8131 101.1138 266.4858 100.6225 C 264.6671 99.9588 263.8138 98.9848 263.8138 97.7867 C 263.8138 96.1749 265.1412 94.8475 267.2701 94.8475 C 268.2872 94.8475 269.175 95.1147 269.7094 95.4681 L 269.2784 96.7955 C 268.8819 96.5455 268.1579 96.1921 267.227 96.1921 C 266.1496 96.1921 265.5721 96.8127 265.5721 97.554 C 265.5721 98.3815 266.1496 98.7521 267.4511 99.2692 C 269.1664 99.9071 270.08 100.7776 270.08 102.2688 C 270.08 104.0444 268.6923 105.2855 266.3565 105.2855 C 265.2618 105.2855 264.2447 104.9925 263.5466 104.5788 L 263.9862 103.2255 Z " stroke-width="0.8619328737258911" />
    <path id="ID0.1318872249685228" d="M 274.6138 92.6496 L 274.6138 95.0458 L 277.2168 95.0458 L 277.2168 96.4421 L 274.6138 96.4421 L 274.6138 101.8378 C 274.6138 103.079 274.9672 103.7858 275.9756 103.7858 C 276.4756 103.7858 276.76 103.7427 277.0272 103.6651 L 277.1134 105.0528 C 276.76 105.1735 276.1997 105.3028 275.5016 105.3028 C 274.6569 105.3028 273.9673 105.0097 273.5364 104.5357 C 273.0365 103.9754 272.8296 103.0876 272.8296 101.9068 L 272.8296 96.4421 L 271.2781 96.4421 L 271.2781 95.0544 L 272.8296 95.0544 L 272.8296 93.1926 L 274.6138 92.6496 Z " stroke-width="0.8619328737258911" />
    <path id="ID0.7332750097848475" d="M 288.2065 99.976 C 288.2065 103.6823 285.6207 105.2942 283.2245 105.2942 C 280.5353 105.2942 278.4235 103.3117 278.4235 100.1398 C 278.4235 96.8127 280.6387 94.8475 283.3883 94.8475 C 286.2585 94.8475 288.2065 96.9334 288.2065 99.976 Z M 280.2853 100.0795 C 280.2853 102.2688 281.5265 103.9237 283.3021 103.9237 C 285.0432 103.9237 286.3447 102.286 286.3447 100.0364 C 286.3447 98.3384 285.5 96.2094 283.3452 96.2094 C 281.2162 96.2094 280.2853 98.2005 280.2853 100.0795 Z " stroke-width="0.8619328737258911" />
    <path id="ID0.04249202599748969" d="M 299.5668 99.976 C 299.5668 103.6823 296.981 105.2942 294.5848 105.2942 C 291.8955 105.2942 289.7838 103.3117 289.7838 100.1398 C 289.7838 96.8127 291.999 94.8475 294.7485 94.8475 C 297.6188 94.8475 299.5668 96.9334 299.5668 99.976 Z M 291.637 100.0795 C 291.637 102.2688 292.8782 103.9237 294.6537 103.9237 C 296.3948 103.9237 297.6964 102.286 297.6964 100.0364 C 297.6964 98.3384 296.8517 96.2094 294.6968 96.2094 C 292.5679 96.2094 291.637 98.2005 291.637 100.0795 Z " stroke-width="0.8619328737258911" />
    <path id="ID0.17773060407489538" d="M 310.4874 90.3741 L 310.4874 102.4756 C 310.4874 103.3634 310.5305 104.3805 310.5736 105.0614 L 308.9618 105.0614 L 308.8756 103.3203 L 308.8153 103.3203 C 308.2809 104.4408 307.0742 105.2855 305.4451 105.2855 C 303.0231 105.2855 301.1441 103.2341 301.1441 100.2001 C 301.1268 96.8731 303.2127 94.8389 305.6348 94.8389 C 307.1862 94.8389 308.2033 95.5629 308.6515 96.3473 L 308.6946 96.3473 L 308.6946 90.3741 L 310.4874 90.3741 Z M 308.686 99.1313 C 308.686 98.9072 308.6688 98.5969 308.5998 98.3642 C 308.3326 97.2265 307.3414 96.2783 305.9709 96.2783 C 304.0919 96.2783 302.9714 97.9333 302.9714 100.1226 C 302.9714 102.1481 303.9885 103.8289 305.9278 103.8289 C 307.1518 103.8289 308.2637 103.0014 308.5998 101.6568 C 308.6601 101.4068 308.686 101.1569 308.686 100.8724 L 308.686 99.1313 Z " stroke-width="0.8619328737258911" />
    <path id="ID0.02511388109996915" d="M 318.6327 95.0544 L 319.9773 100.1398 C 320.2445 101.2603 320.5117 102.2946 320.7013 103.329 L 320.7617 103.329 C 320.9858 102.3119 321.3219 101.2431 321.6495 100.1657 L 323.2871 95.0544 L 324.8214 95.0544 L 326.3729 100.0622 C 326.7435 101.2603 327.0366 102.3205 327.2607 103.329 L 327.321 103.329 C 327.4848 102.3119 327.752 101.2603 328.0881 100.0795 L 329.5189 95.0544 L 331.3204 95.0544 L 328.0967 105.0701 L 326.4418 105.0701 L 324.9076 100.2949 C 324.5542 99.1744 324.2697 98.1832 324.0198 97.0024 L 323.9767 97.0024 C 323.7267 98.2005 323.4164 99.2348 323.063 100.3122 L 321.4512 105.0701 L 319.7963 105.0701 L 316.7795 95.0544 L 318.6327 95.0544 Z " stroke-width="0.8619328737258911" />
    <path id="ID0.39926559990271926" d="M 340.0862 102.6653 C 340.0862 103.5358 340.1293 104.3805 340.2327 105.0614 L 338.5951 105.0614 L 338.4485 103.803 L 338.3882 103.803 C 337.828 104.5874 336.7505 105.2942 335.3283 105.2942 C 333.3028 105.2942 332.2685 103.8634 332.2685 102.4153 C 332.2685 99.9933 334.4233 98.6745 338.2848 98.6918 L 338.2848 98.4849 C 338.2848 97.6747 338.0607 96.1663 336.0093 96.1921 C 335.0611 96.1921 334.0872 96.4593 333.3804 96.9334 L 332.9666 95.7095 C 333.7941 95.1923 335.018 94.8389 336.2765 94.8389 C 339.3363 94.8389 340.0862 96.9248 340.0862 98.9159 L 340.0862 102.6653 Z M 338.3279 99.9588 C 336.3454 99.9157 334.0872 100.2691 334.0872 102.2171 C 334.0872 103.4151 334.8715 103.9582 335.7852 103.9582 C 337.1125 103.9582 337.9572 103.1307 338.2503 102.286 C 338.3106 102.0792 338.3365 101.8723 338.3365 101.7085 L 338.3365 99.9588 Z " stroke-width="0.8619328737258911" />
    <path id="ID0.7919008261524141" d="M 345.1371 92.6496 L 345.1371 95.0458 L 347.7402 95.0458 L 347.7402 96.4421 L 345.1371 96.4421 L 345.1371 101.8378 C 345.1371 103.079 345.4905 103.7858 346.499 103.7858 C 346.9989 103.7858 347.2834 103.7427 347.5506 103.6651 L 347.6367 105.0528 C 347.2834 105.1735 346.7231 105.3028 346.0249 105.3028 C 345.1802 105.3028 344.4907 105.0097 344.0597 104.5357 C 343.5598 103.9754 343.3529 103.0876 343.3529 101.9068 L 343.3529 96.4421 L 341.8015 96.4421 L 341.8015 95.0544 L 343.3529 95.0544 L 343.3529 93.1926 L 345.1371 92.6496 Z " stroke-width="0.8619328737258911" />
    <path id="ID0.4609866966493428" d="M 356.7991 104.7167 C 356.325 104.9408 355.2649 105.2942 353.9202 105.2942 C 350.9035 105.2942 348.9383 103.2428 348.9383 100.1829 C 348.9383 97.0972 351.05 94.8475 354.3167 94.8475 C 355.3941 94.8475 356.3423 95.1147 356.8422 95.3819 L 356.4285 96.7696 C 355.9975 96.5455 355.3079 96.2956 354.3167 96.2956 C 352.024 96.2956 350.7828 98.0108 350.7828 100.0795 C 350.7828 102.3981 352.2739 103.8203 354.2564 103.8203 C 355.2907 103.8203 355.9716 103.5703 356.4888 103.3462 L 356.7991 104.7167 Z " stroke-width="0.8619328737258911" />
    <path id="ID0.14150086464360356" d="M 358.9281 90.3741 L 360.7467 90.3741 L 360.7467 96.6404 L 360.7898 96.6404 C 361.0829 96.1232 361.5311 95.6491 362.0914 95.3388 C 362.6258 95.0285 363.2722 94.8389 363.9531 94.8389 C 365.2978 94.8389 367.4526 95.6664 367.4526 99.0969 L 367.4526 105.0528 L 365.6339 105.0528 L 365.6339 99.3037 C 365.6339 97.6919 365.0306 96.3473 363.3153 96.3473 C 362.1345 96.3473 361.2294 97.1748 360.876 98.1487 C 360.7726 98.4159 360.7554 98.6831 360.7554 99.0193 L 360.7554 105.0614 L 358.9367 105.0614 L 358.9367 90.3741 Z " stroke-width="0.8619328737258911" />
    <path id="ID0.509634593501687" d="M 372.4432 92.2359 C 372.4432 92.8565 372.0122 93.3564 371.2882 93.3564 C 370.6245 93.3564 370.1935 92.8565 370.1935 92.2359 C 370.1935 91.6153 370.6504 91.0981 371.3313 91.0981 C 371.9864 91.0981 372.4432 91.598 372.4432 92.2359 Z M 370.409 105.0701 L 370.409 95.0544 L 372.2277 95.0544 L 372.2277 105.0701 L 370.409 105.0701 Z " stroke-width="0.8619328737258911" />
    <path id="ID0.39284539548680186" d="M 375.2531 97.7609 C 375.2531 96.7093 375.2358 95.8819 375.1669 95.0544 L 376.7787 95.0544 L 376.8821 96.7093 L 376.9252 96.7093 C 377.4251 95.7784 378.5801 94.8475 380.235 94.8475 C 381.6228 94.8475 383.769 95.675 383.769 99.1055 L 383.769 105.0614 L 381.9503 105.0614 L 381.9503 99.2865 C 381.9503 97.6747 381.3469 96.3301 379.6317 96.3301 C 378.4508 96.3301 377.52 97.1748 377.1924 98.1918 C 377.1062 98.4159 377.0718 98.7262 377.0718 99.0365 L 377.0718 105.0528 L 375.2531 105.0528 L 375.2531 97.7609 Z " stroke-width="0.8619328737258911" />
    <path id="ID0.046838948503136635" d="M 395.3016 103.5962 C 395.3016 105.9148 394.8276 107.3025 393.8708 108.1903 C 392.8796 109.078 391.4747 109.3883 390.2076 109.3883 C 389.0095 109.3883 387.6821 109.0953 386.8806 108.5609 L 387.3374 107.1559 C 388.0011 107.5869 389.0354 107.9662 390.2766 107.9662 C 392.1383 107.9662 393.5002 106.9922 393.5002 104.4495 L 393.5002 103.3548 L 393.4571 103.3548 C 392.9227 104.2857 391.8194 105.027 390.2679 105.027 C 387.7856 105.027 386.01 102.9152 386.01 100.1484 C 386.01 96.7524 388.2252 94.8562 390.5438 94.8562 C 392.2849 94.8562 393.2158 95.7439 393.664 96.5714 L 393.7071 96.5714 L 393.7674 95.063 L 395.3792 95.063 C 395.3189 95.7698 395.293 96.5973 395.293 97.7953 L 395.293 103.5962 Z M 393.4743 99.0021 C 393.4743 98.6918 393.4571 98.4246 393.3709 98.1918 C 393.0434 97.1144 392.1728 96.2439 390.8282 96.2439 C 389.0871 96.2439 387.8459 97.7092 387.8459 100.0278 C 387.8459 101.993 388.863 103.6306 390.8023 103.6306 C 391.9401 103.6306 392.9572 102.9238 393.3278 101.7689 C 393.4312 101.4586 393.4743 101.1052 393.4743 100.7949 L 393.4743 99.0021 Z " stroke-width="0.8619328737258911" />
    <path id="ID0.4131098482757807" d="M 402.8694 105.0701 L 402.8694 96.4421 L 401.4817 96.4421 L 401.4817 95.0544 L 402.8694 95.0544 L 402.8694 94.5803 C 402.8694 93.1754 403.1969 91.8911 404.0244 91.0809 C 404.7053 90.4172 405.619 90.15 406.4637 90.15 C 407.1274 90.15 407.6618 90.2965 408.0151 90.4431 L 407.7652 91.848 C 407.498 91.7273 407.1446 91.6239 406.6102 91.6239 C 405.0587 91.6239 404.6622 92.9685 404.6622 94.52 L 404.6622 95.0544 L 407.0843 95.0544 L 407.0843 96.4421 L 404.6622 96.4421 L 404.6622 105.0701 L 402.8694 105.0701 Z " stroke-width="0.8619328737258911" />
    <path id="ID0.09333218215033412" d="M 408.7219 98.1746 C 408.7219 96.9937 408.7047 95.9853 408.6357 95.0544 L 410.2303 95.0544 L 410.3165 97.0368 L 410.3768 97.0368 C 410.8337 95.6922 411.9456 94.8475 413.1695 94.8475 C 413.3591 94.8475 413.497 94.8648 413.6694 94.8906 L 413.6694 96.6059 C 413.4798 96.5628 413.2988 96.5628 413.0488 96.5628 C 411.7646 96.5628 410.8595 97.5109 410.6096 98.8814 C 410.5665 99.1313 410.5492 99.4416 410.5492 99.7261 L 410.5492 105.0614 L 408.7305 105.0614 L 408.7305 98.1746 Z " stroke-width="0.8619328737258911" />
    <path id="ID0.7655084147118032" d="M 424.3402 99.976 C 424.3402 103.6823 421.7544 105.2942 419.3582 105.2942 C 416.669 105.2942 414.5572 103.3117 414.5572 100.1398 C 414.5572 96.8127 416.7724 94.8475 419.5219 94.8475 C 422.4008 94.8475 424.3402 96.9334 424.3402 99.976 Z M 416.419 100.0795 C 416.419 102.2688 417.6602 103.9237 419.4358 103.9237 C 421.1769 103.9237 422.4784 102.286 422.4784 100.0364 C 422.4784 98.3384 421.6337 96.2094 419.4789 96.2094 C 417.3499 96.2094 416.419 98.2005 416.419 100.0795 Z " stroke-width="0.8619328737258911" />
    <path id="ID0.6862935512326658" d="M 426.6329 97.7609 C 426.6329 96.7093 426.5898 95.8819 426.5467 95.0544 L 428.1413 95.0544 L 428.2275 96.6921 L 428.2878 96.6921 C 428.8481 95.7439 429.7789 94.8475 431.4511 94.8475 C 432.7957 94.8475 433.83 95.675 434.261 96.8558 L 434.3041 96.8558 C 434.6144 96.2783 435.0281 95.8646 435.4418 95.5543 C 436.0452 95.0975 436.683 94.8475 437.6312 94.8475 C 438.9758 94.8475 440.941 95.7181 440.941 99.1917 L 440.941 105.0701 L 439.1654 105.0701 L 439.1654 99.4244 C 439.1654 97.4764 438.4414 96.3387 436.9933 96.3387 C 435.9418 96.3387 435.1488 97.1058 434.8213 97.9764 C 434.7351 98.2435 434.6747 98.5538 434.6747 98.89 L 434.6747 105.0787 L 432.8991 105.0787 L 432.8991 99.0796 C 432.8991 97.485 432.1924 96.3473 430.8133 96.3473 C 429.6928 96.3473 428.8481 97.2609 428.555 98.166 C 428.4516 98.4159 428.4085 98.7435 428.4085 99.0538 L 428.4085 105.0701 L 426.6329 105.0701 L 426.6329 97.7609 Z " stroke-width="0.8619328737258911" />
    <path id="ID0.8632763116620481" d="M 455.3094 102.6653 C 455.3094 103.5358 455.3525 104.3805 455.4559 105.0614 L 453.8183 105.0614 L 453.6717 103.803 L 453.6114 103.803 C 453.0511 104.5874 451.9737 105.2942 450.5515 105.2942 C 448.526 105.2942 447.4917 103.8634 447.4917 102.4153 C 447.4917 99.9933 449.6465 98.6745 453.508 98.6918 L 453.508 98.4849 C 453.508 97.6747 453.2839 96.1663 451.2325 96.1921 C 450.2843 96.1921 449.3103 96.4593 448.6036 96.9334 L 448.1898 95.7095 C 449.0173 95.1923 450.2412 94.8389 451.4997 94.8389 C 454.5595 94.8389 455.3094 96.9248 455.3094 98.9159 L 455.3094 102.6653 Z M 453.5511 99.9588 C 451.5686 99.9157 449.3103 100.2691 449.3103 102.2171 C 449.3103 103.4151 450.0947 103.9582 451.0084 103.9582 C 452.3357 103.9582 453.1804 103.1307 453.4735 102.286 C 453.5338 102.0792 453.5597 101.8723 453.5597 101.7085 L 453.5597 99.9588 Z " stroke-width="0.8619328737258911" />
    <path id="ID0.17599312588572502" d="M 471.2552 90.3741 L 471.2552 102.4756 C 471.2552 103.3634 471.2983 104.3805 471.3414 105.0614 L 469.7295 105.0614 L 469.6433 103.3203 L 469.583 103.3203 C 469.0486 104.4408 467.8419 105.2855 466.2129 105.2855 C 463.7908 105.2855 461.9118 103.2341 461.9118 100.2001 C 461.8946 96.8731 463.9804 94.8389 466.4025 94.8389 C 467.954 94.8389 468.971 95.5629 469.4192 96.3473 L 469.4623 96.3473 L 469.4623 90.3741 L 471.2552 90.3741 Z M 469.4623 99.1313 C 469.4623 98.9072 469.4451 98.5969 469.3761 98.3642 C 469.1089 97.2265 468.1177 96.2783 466.7473 96.2783 C 464.8682 96.2783 463.7477 97.9333 463.7477 100.1226 C 463.7477 102.1481 464.7648 103.8289 466.7042 103.8289 C 467.9281 103.8289 469.04 103.0014 469.3761 101.6568 C 469.4365 101.4068 469.4623 101.1569 469.4623 100.8724 L 469.4623 99.1313 Z " stroke-width="0.8619328737258911" />
    <path id="ID0.8131738440133631" d="M 476.3233 92.2359 C 476.3233 92.8565 475.8924 93.3564 475.1683 93.3564 C 474.5046 93.3564 474.0737 92.8565 474.0737 92.2359 C 474.0737 91.6153 474.5305 91.0981 475.2114 91.0981 C 475.8665 91.0981 476.3233 91.598 476.3233 92.2359 Z M 474.2978 105.0701 L 474.2978 95.0544 L 476.1165 95.0544 L 476.1165 105.0701 L 474.2978 105.0701 Z " stroke-width="0.8619328737258911" />
    <path id="ID0.5473097572103143" d="M 478.8919 103.2255 C 479.4521 103.5531 480.4003 103.9323 481.3139 103.9323 C 482.6154 103.9323 483.236 103.2945 483.236 102.4412 C 483.236 101.5706 482.7189 101.1138 481.3915 100.6225 C 479.5728 99.9588 478.7195 98.9848 478.7195 97.7867 C 478.7195 96.1749 480.0469 94.8475 482.1758 94.8475 C 483.1929 94.8475 484.0807 95.1147 484.6151 95.4681 L 484.1842 96.7955 C 483.7877 96.5455 483.0636 96.1921 482.1328 96.1921 C 481.0553 96.1921 480.4778 96.8127 480.4778 97.554 C 480.4778 98.3815 481.0553 98.7521 482.3569 99.2692 C 484.0721 99.9071 484.9857 100.7776 484.9857 102.2688 C 484.9857 104.0444 483.598 105.2855 481.2622 105.2855 C 480.1675 105.2855 479.1505 104.9925 478.4523 104.5788 L 478.8919 103.2255 Z " stroke-width="0.8619328737258911" />
    <path id="ID0.05428510531783104" d="M 489.5195 92.6496 L 489.5195 95.0458 L 492.1226 95.0458 L 492.1226 96.4421 L 489.5195 96.4421 L 489.5195 101.8378 C 489.5195 103.079 489.8729 103.7858 490.8814 103.7858 C 491.3813 103.7858 491.6657 103.7427 491.9329 103.6651 L 492.0191 105.0528 C 491.6657 105.1735 491.1055 105.3028 490.4073 105.3028 C 489.5626 105.3028 488.8731 105.0097 488.4421 104.5357 C 487.9422 103.9754 487.7353 103.0876 487.7353 101.9068 L 487.7353 96.4421 L 486.1838 96.4421 L 486.1838 95.0544 L 487.7353 95.0544 L 487.7353 93.1926 L 489.5195 92.6496 Z " stroke-width="0.8619328737258911" />
    <path id="ID0.7248120009899139" d="M 501.2073 102.6653 C 501.2073 103.5358 501.2504 104.3805 501.3539 105.0614 L 499.7162 105.0614 L 499.5697 103.803 L 499.5093 103.803 C 498.9491 104.5874 497.8716 105.2942 496.4495 105.2942 C 494.4239 105.2942 493.3896 103.8634 493.3896 102.4153 C 493.3896 99.9933 495.5444 98.6745 499.4059 98.6918 L 499.4059 98.4849 C 499.4059 97.6747 499.1818 96.1663 497.1304 96.1921 C 496.1823 96.1921 495.2083 96.4593 494.5015 96.9334 L 494.0878 95.7095 C 494.9152 95.1923 496.1392 94.8389 497.3976 94.8389 C 500.4574 94.8389 501.2073 96.9248 501.2073 98.9159 L 501.2073 102.6653 Z M 499.449 99.9588 C 497.4665 99.9157 495.2083 100.2691 495.2083 102.2171 C 495.2083 103.4151 495.9926 103.9582 496.9063 103.9582 C 498.2337 103.9582 499.0784 103.1307 499.3714 102.286 C 499.4317 102.0792 499.4576 101.8723 499.4576 101.7085 L 499.4576 99.9588 Z " stroke-width="0.8619328737258911" />
    <path id="ID0.6635065320879221" d="M 504.1465 97.7609 C 504.1465 96.7093 504.1293 95.8819 504.0603 95.0544 L 505.6721 95.0544 L 505.7756 96.7093 L 505.8187 96.7093 C 506.3186 95.7784 507.4736 94.8475 509.1285 94.8475 C 510.5162 94.8475 512.6624 95.675 512.6624 99.1055 L 512.6624 105.0614 L 510.8437 105.0614 L 510.8437 99.2865 C 510.8437 97.6747 510.2404 96.3301 508.5251 96.3301 C 507.3443 96.3301 506.4134 97.1748 506.0859 98.1918 C 505.9997 98.4159 505.9652 98.7262 505.9652 99.0365 L 505.9652 105.0528 L 504.1465 105.0528 L 504.1465 97.7609 Z " stroke-width="0.8619328737258911" />
    <path id="ID0.5448849489912391" d="M 522.7643 104.7167 C 522.2902 104.9408 521.23 105.2942 519.8854 105.2942 C 516.8686 105.2942 514.9034 103.2428 514.9034 100.1829 C 514.9034 97.0972 517.0152 94.8475 520.2819 94.8475 C 521.3593 94.8475 522.3074 95.1147 522.8074 95.3819 L 522.3936 96.7696 C 521.9627 96.5455 521.2731 96.2956 520.2819 96.2956 C 517.9892 96.2956 516.748 98.0108 516.748 100.0795 C 516.748 102.3981 518.2391 103.8203 520.2216 103.8203 C 521.2559 103.8203 521.9368 103.5703 522.454 103.3462 L 522.7643 104.7167 Z " stroke-width="0.8619328737258911" />
    <path id="ID0.27040905598551035" d="M 525.7897 100.3898 C 525.8327 102.8549 527.3842 103.8634 529.2201 103.8634 C 530.5217 103.8634 531.3319 103.6392 531.9956 103.3462 L 532.3231 104.6477 C 531.6853 104.9408 530.5648 105.2855 528.9702 105.2855 C 525.8845 105.2855 524.0485 103.2341 524.0485 100.2174 C 524.0485 97.2006 525.8241 94.8389 528.7461 94.8389 C 532.0387 94.8389 532.8834 97.6919 532.8834 99.5364 C 532.8834 99.9071 532.8661 100.1743 532.823 100.3811 L 525.7897 100.3811 Z M 531.125 99.0882 C 531.1423 97.9505 530.651 96.1491 528.5996 96.1491 C 526.7378 96.1491 525.9534 97.8212 525.8069 99.0882 L 531.125 99.0882 Z " stroke-width="0.8619328737258911" />
    <path id="ID0.3215617830865085" d="M 534.4521 103.9926 C 534.4521 103.2514 534.9692 102.6911 535.6933 102.6911 C 536.4173 102.6911 536.9172 103.2255 536.9172 103.9926 C 536.9172 104.7339 536.4173 105.2942 535.6588 105.2942 C 534.952 105.2942 534.4521 104.7339 534.4521 103.9926 Z " stroke-width="0.8619328737258911" />
    <path id="ID0.9848407912068069" d="M 190.7736 116.1114 C 191.6441 115.9649 192.7819 115.8442 194.2299 115.8442 C 196.0055 115.8442 197.3157 116.2579 198.1431 116.9992 C 198.8844 117.6629 199.3671 118.6714 199.3671 119.9125 C 199.3671 121.171 198.9964 122.1708 198.2896 122.8948 C 197.3157 123.9119 195.79 124.4291 194.0317 124.4291 C 193.4973 124.4291 192.9974 124.4118 192.5836 124.3084 L 192.5836 129.8937 L 190.7822 129.8937 L 190.7822 116.1114 Z M 192.575 122.8345 C 192.9715 122.9379 193.4628 122.981 194.0662 122.981 C 196.2382 122.981 197.5656 121.9036 197.5656 120.0246 C 197.5656 118.1628 196.2382 117.275 194.273 117.275 C 193.4887 117.275 192.8853 117.3354 192.575 117.4216 L 192.575 122.8345 Z " stroke-width="0.8619328737258911" />
    <path id="ID0.279974281322211" d="M 203.4181 117.0595 C 203.4181 117.6801 202.9872 118.1801 202.2631 118.1801 C 201.5995 118.1801 201.1685 117.6801 201.1685 117.0595 C 201.1685 116.439 201.6253 115.9218 202.3062 115.9218 C 202.9613 115.9218 203.4181 116.4217 203.4181 117.0595 Z M 201.384 129.8937 L 201.384 119.8781 L 203.2027 119.8781 L 203.2027 129.8937 L 201.384 129.8937 Z " stroke-width="0.8619328737258911" />
    <path id="ID0.24634538311511278" d="M 207.0727 119.8781 L 208.5035 122.0329 C 208.9 122.5932 209.2103 123.0845 209.5379 123.6447 L 209.581 123.6447 C 209.9085 123.0672 210.2446 122.5501 210.598 122.007 L 211.9858 119.8781 L 213.9682 119.8781 L 210.5549 124.7221 L 214.0544 129.8937 L 212.003 129.8937 L 210.5118 127.6355 C 210.1154 127.058 209.7878 126.4977 209.4344 125.8944 L 209.3913 125.8944 C 209.0638 126.4977 208.7276 127.0321 208.3398 127.6355 L 206.8917 129.8937 L 204.8834 129.8937 L 208.4432 124.7825 L 205.0472 119.8781 L 207.0727 119.8781 Z " stroke-width="0.8619328737258911" />
    <path id="ID0.0668287924490869" d="M 216.5109 125.2134 C 216.554 127.6786 218.1055 128.687 219.9414 128.687 C 221.2429 128.687 222.0531 128.4629 222.7168 128.1699 L 223.0443 129.4714 C 222.4065 129.7644 221.286 130.1092 219.6914 130.1092 C 216.6057 130.1092 214.7698 128.0578 214.7698 125.041 C 214.7698 122.0243 216.5454 119.6626 219.4673 119.6626 C 222.7599 119.6626 223.6046 122.5156 223.6046 124.3601 C 223.6046 124.7307 223.5874 124.9979 223.5443 125.2048 L 216.5109 125.2048 Z M 221.8463 123.9119 C 221.8635 122.7742 221.3722 120.9727 219.3208 120.9727 C 217.459 120.9727 216.6747 122.6449 216.5281 123.9119 L 221.8463 123.9119 Z " stroke-width="0.8619328737258911" />
    <path id="ID0.9010073505342007" d="M 225.8629 115.1978 L 227.6815 115.1978 L 227.6815 129.8851 L 225.8629 129.8851 L 225.8629 115.1978 Z " stroke-width="0.8619328737258911" />
    <path id="ID0.5742874923162162" d="M 230.7414 115.1978 L 232.5601 115.1978 L 232.5601 129.8851 L 230.7414 129.8851 L 230.7414 115.1978 Z " stroke-width="0.8619328737258911" />
    <path id="ID0.8031913386657834" d="M 242.6533 127.4889 C 242.6533 128.3595 242.6964 129.2042 242.7999 129.8851 L 241.1622 129.8851 L 241.0157 128.6267 L 240.9553 128.6267 C 240.3951 129.411 239.3176 130.1178 237.8955 130.1178 C 235.8699 130.1178 234.8356 128.687 234.8356 127.239 C 234.8356 124.8169 236.9904 123.4982 240.8519 123.5154 L 240.8519 123.3086 C 240.8519 122.4983 240.6278 120.99 238.5764 121.0158 C 237.6283 121.0158 236.6543 121.283 235.9475 121.7571 L 235.5338 120.5331 C 236.3612 120.016 237.5852 119.6626 238.8436 119.6626 C 241.9034 119.6626 242.6533 121.7485 242.6533 123.7395 L 242.6533 127.4889 Z M 240.895 124.7825 C 238.9125 124.7394 236.6543 125.0928 236.6543 127.0407 C 236.6543 128.2388 237.4386 128.7818 238.3523 128.7818 C 239.6797 128.7818 240.5243 127.9544 240.8174 127.1097 C 240.8777 126.9028 240.9036 126.696 240.9036 126.5322 L 240.9036 124.7825 Z " stroke-width="0.8619328737258911" />
    <path id="ID0.31464674789458513" d="M 247.7042 117.4733 L 247.7042 119.8694 L 250.3073 119.8694 L 250.3073 121.2572 L 247.7042 121.2572 L 247.7042 126.6529 C 247.7042 127.894 248.0576 128.6008 249.0661 128.6008 C 249.566 128.6008 249.8505 128.5577 250.1177 128.4802 L 250.2039 129.8679 C 249.8505 129.9885 249.2902 130.1178 248.592 130.1178 C 247.7473 130.1178 247.0578 129.8248 246.6268 129.3507 C 246.1269 128.7905 245.92 127.9027 245.92 126.7218 L 245.92 121.2658 L 244.3686 121.2658 L 244.3686 119.8781 L 245.92 119.8781 L 245.92 118.0163 L 247.7042 117.4733 Z " stroke-width="0.8619328737258911" />
    <path id="ID0.31214918615296483" d="M 253.2465 125.2134 C 253.2896 127.6786 254.8411 128.687 256.677 128.687 C 257.9785 128.687 258.7887 128.4629 259.4524 128.1699 L 259.7799 129.4714 C 259.1421 129.7644 258.0216 130.1092 256.427 130.1092 C 253.3413 130.1092 251.5054 128.0578 251.5054 125.041 C 251.5054 122.0243 253.281 119.6626 256.2029 119.6626 C 259.4955 119.6626 260.3402 122.5156 260.3402 124.3601 C 260.3402 124.7307 260.3229 124.9979 260.2798 125.2048 L 253.2465 125.2048 Z M 258.5818 123.9119 C 258.5991 122.7742 258.1078 120.9727 256.0564 120.9727 C 254.1946 120.9727 253.4102 122.6449 253.2637 123.9119 L 258.5818 123.9119 Z " stroke-width="0.8619328737258911" />
    <path id="ID0.28027893183752894" d="M 271.2264 115.1978 L 271.2264 127.2993 C 271.2264 128.1871 271.2695 129.2042 271.3126 129.8851 L 269.7008 129.8851 L 269.6146 128.144 L 269.5542 128.144 C 269.0198 129.2645 267.8131 130.1092 266.1841 130.1092 C 263.7621 130.1092 261.883 128.0578 261.883 125.0238 C 261.8658 121.6967 263.9517 119.6626 266.3737 119.6626 C 267.9252 119.6626 268.9423 120.3866 269.3905 121.171 L 269.4336 121.171 L 269.4336 115.1891 L 271.2264 115.1891 Z M 269.425 123.955 C 269.425 123.7309 269.4077 123.4206 269.3388 123.1879 C 269.0716 122.0501 268.0803 121.102 266.7099 121.102 C 264.8309 121.102 263.7103 122.7569 263.7103 124.9462 C 263.7103 126.9718 264.7274 128.6525 266.6668 128.6525 C 267.8907 128.6525 269.0026 127.8251 269.3388 126.4805 C 269.3991 126.2305 269.425 125.9805 269.425 125.6961 L 269.425 123.955 Z " stroke-width="0.8619328737258911" />
    <path id="ID0.5385995763354003" d="M 273.6226 128.8163 C 273.6226 128.075 274.1397 127.5148 274.8638 127.5148 C 275.5878 127.5148 276.0877 128.0492 276.0877 128.8163 C 276.0877 129.5576 275.5878 130.1178 274.8293 130.1178 C 274.1225 130.1178 273.6226 129.5576 273.6226 128.8163 Z " stroke-width="0.8619328737258911" />
    <path id="ID0.9387958166189492" d="M 277.9064 128.8163 C 277.9064 128.075 278.4235 127.5148 279.1476 127.5148 C 279.8716 127.5148 280.3715 128.0492 280.3715 128.8163 C 280.3715 129.5576 279.8716 130.1178 279.1131 130.1178 C 278.3977 130.1178 277.9064 129.5576 277.9064 128.8163 Z " stroke-width="0.8619328737258911" />
    <path id="ID0.2394300466403365" d="M 282.1902 128.8163 C 282.1902 128.075 282.7073 127.5148 283.4314 127.5148 C 284.1554 127.5148 284.6553 128.0492 284.6553 128.8163 C 284.6553 129.5576 284.1554 130.1178 283.3969 130.1178 C 282.6815 130.1178 282.1902 129.5576 282.1902 128.8163 Z " stroke-width="0.8619328737258911" />
    <path id="ID0.1235353103838861" d="M 304.7383 124.7997 C 304.7383 128.506 302.1525 130.1178 299.7564 130.1178 C 297.0671 130.1178 294.9554 128.1354 294.9554 124.9635 C 294.9554 121.6364 297.1706 119.6712 299.9201 119.6712 C 302.7904 119.6712 304.7383 121.7571 304.7383 124.7997 Z M 296.8086 124.9031 C 296.8086 127.0924 298.0497 128.7474 299.8253 128.7474 C 301.5664 128.7474 302.868 127.1097 302.868 124.86 C 302.868 123.162 302.0233 121.0331 299.8684 121.0331 C 297.7395 121.0331 296.8086 123.0241 296.8086 124.9031 Z " stroke-width="0.8619328737258911" />
    <path id="ID0.4161109942942858" d="M 307.0311 115.1978 L 308.8498 115.1978 L 308.8498 129.8851 L 307.0311 129.8851 L 307.0311 115.1978 Z " stroke-width="0.8619328737258911" />
    <path id="ID0.22630373761057854" d="M 320.5376 115.1978 L 320.5376 127.2993 C 320.5376 128.1871 320.5807 129.2042 320.6238 129.8851 L 319.012 129.8851 L 318.9258 128.144 L 318.8654 128.144 C 318.331 129.2645 317.1243 130.1092 315.4953 130.1092 C 313.0732 130.1092 311.1942 128.0578 311.1942 125.0238 C 311.177 121.6967 313.2629 119.6626 315.6849 119.6626 C 317.2364 119.6626 318.2535 120.3866 318.7017 121.171 L 318.7448 121.171 L 318.7448 115.1891 L 320.5376 115.1891 Z M 318.7361 123.955 C 318.7361 123.7309 318.7189 123.4206 318.6499 123.1879 C 318.3827 122.0501 317.3915 121.102 316.021 121.102 C 314.142 121.102 313.0215 122.7569 313.0215 124.9462 C 313.0215 126.9718 314.0386 128.6525 315.978 128.6525 C 317.2019 128.6525 318.3138 127.8251 318.6499 126.4805 C 318.7103 126.2305 318.7361 125.9805 318.7361 125.6961 L 318.7361 123.955 Z " stroke-width="0.8619328737258911" />
    <path id="ID0.21907472098246217" d="M 322.9338 128.8163 C 322.9338 128.075 323.4509 127.5148 324.1749 127.5148 C 324.899 127.5148 325.3989 128.0492 325.3989 128.8163 C 325.3989 129.5576 324.899 130.1178 324.1405 130.1178 C 323.4337 130.1178 322.9338 129.5576 322.9338 128.8163 Z " stroke-width="0.8619328737258911" />
    <path id="ID0.7550111995078623" d="M 327.2176 128.8163 C 327.2176 128.075 327.7347 127.5148 328.4587 127.5148 C 329.1828 127.5148 329.6827 128.0492 329.6827 128.8163 C 329.6827 129.5576 329.1828 130.1178 328.4243 130.1178 C 327.7175 130.1178 327.2176 129.5576 327.2176 128.8163 Z " stroke-width="0.8619328737258911" />
    <path id="ID0.9548710081726313" d="M 331.5014 128.8163 C 331.5014 128.075 332.0185 127.5148 332.7425 127.5148 C 333.4666 127.5148 333.9665 128.0492 333.9665 128.8163 C 333.9665 129.5576 333.4666 130.1178 332.7081 130.1178 C 332.0013 130.1178 331.5014 129.5576 331.5014 128.8163 Z " stroke-width="0.8619328737258911" />
    <path id="ID0.033808416686952114" d="M 345.1716 129.8937 L 345.1716 121.2658 L 343.7839 121.2658 L 343.7839 119.8781 L 345.1716 119.8781 L 345.1716 119.404 C 345.1716 117.9991 345.4992 116.7148 346.3266 115.9046 C 347.0075 115.2409 347.9212 114.9737 348.7659 114.9737 C 349.4296 114.9737 349.964 115.1202 350.3174 115.2667 L 350.0674 116.6717 C 349.8002 116.551 349.4468 116.4476 348.9124 116.4476 C 347.3609 116.4476 346.9644 117.7922 346.9644 119.3437 L 346.9644 119.8781 L 349.3865 119.8781 L 349.3865 121.2658 L 346.9644 121.2658 L 346.9644 129.8937 L 345.1716 129.8937 Z " stroke-width="0.8619328737258911" />
    <path id="ID0.31716900039464235" d="M 359.8245 124.7997 C 359.8245 128.506 357.2387 130.1178 354.8425 130.1178 C 352.1533 130.1178 350.0415 128.1354 350.0415 124.9635 C 350.0415 121.6364 352.2567 119.6712 355.0063 119.6712 C 357.8765 119.6712 359.8245 121.7571 359.8245 124.7997 Z M 351.8947 124.9031 C 351.8947 127.0924 353.1359 128.7474 354.9115 128.7474 C 356.6526 128.7474 357.9541 127.1097 357.9541 124.86 C 357.9541 123.162 357.1094 121.0331 354.9546 121.0331 C 352.8256 121.0331 351.8947 123.0241 351.8947 124.9031 Z " stroke-width="0.8619328737258911" />
    <path id="ID0.9120436948724091" d="M 362.1172 122.9983 C 362.1172 121.8174 362.1 120.809 362.031 119.8781 L 363.6256 119.8781 L 363.7118 121.8605 L 363.7721 121.8605 C 364.229 120.5159 365.3408 119.6712 366.5648 119.6712 C 366.7544 119.6712 366.8923 119.6884 367.0647 119.7143 L 367.0647 121.4295 C 366.8751 121.3864 366.6941 121.3864 366.4441 121.3864 C 365.1598 121.3864 364.2548 122.3346 364.0049 123.705 C 363.9618 123.955 363.9445 124.2653 363.9445 124.5497 L 363.9445 129.8851 L 362.1258 129.8851 L 362.1258 122.9983 Z " stroke-width="0.8619328737258911" />
    <path id="ID0.0169290523044765" d="M 377.2786 128.4198 C 377.2786 130.7384 376.8046 132.1261 375.8478 133.0139 C 374.8566 133.9017 373.4516 134.212 372.1846 134.212 C 370.9865 134.212 369.6591 133.919 368.8575 133.3846 L 369.3144 131.9796 C 369.978 132.4106 371.0124 132.7898 372.2535 132.7898 C 374.1153 132.7898 375.4772 131.8158 375.4772 129.2731 L 375.4772 128.1785 L 375.4341 128.1785 C 374.8997 129.1094 373.7964 129.8506 372.2449 129.8506 C 369.7626 129.8506 367.987 127.7389 367.987 124.9721 C 367.987 121.5761 370.2021 119.6798 372.5207 119.6798 C 374.2619 119.6798 375.1927 120.5676 375.6409 121.3951 L 375.684 121.3951 L 375.7444 119.8867 L 377.3562 119.8867 C 377.2959 120.5935 377.27 121.4209 377.27 122.619 L 377.27 128.4198 Z M 375.4599 123.8257 C 375.4599 123.5154 375.4427 123.2482 375.3565 123.0155 C 375.029 121.9381 374.1584 121.0675 372.8138 121.0675 C 371.0727 121.0675 369.8315 122.5328 369.8315 124.8514 C 369.8315 126.8166 370.8486 128.4543 372.7879 128.4543 C 373.9257 128.4543 374.9428 127.7475 375.3134 126.5925 C 375.4168 126.2822 375.4599 125.9288 375.4599 125.6185 L 375.4599 123.8257 Z " stroke-width="0.8619328737258911" />
    <path id="ID0.19248946756124496" d="M 389.3371 124.7997 C 389.3371 128.506 386.7513 130.1178 384.3551 130.1178 C 381.6659 130.1178 379.5541 128.1354 379.5541 124.9635 C 379.5541 121.6364 381.7693 119.6712 384.5189 119.6712 C 387.3977 119.6712 389.3371 121.7571 389.3371 124.7997 Z M 381.4159 124.9031 C 381.4159 127.0924 382.6571 128.7474 384.4327 128.7474 C 386.1738 128.7474 387.4753 127.1097 387.4753 124.86 C 387.4753 123.162 386.6306 121.0331 384.4758 121.0331 C 382.3468 121.0331 381.4159 123.0241 381.4159 124.9031 Z " stroke-width="0.8619328737258911" />
    <path id="ID0.16636561043560505" d="M 393.8277 117.4733 L 393.8277 119.8694 L 396.4308 119.8694 L 396.4308 121.2572 L 393.8277 121.2572 L 393.8277 126.6529 C 393.8277 127.894 394.1811 128.6008 395.1896 128.6008 C 395.6895 128.6008 395.9739 128.5577 396.2411 128.4802 L 396.3273 129.8679 C 395.9739 129.9885 395.4137 130.1178 394.7155 130.1178 C 393.8708 130.1178 393.1813 129.8248 392.7503 129.3507 C 392.2504 128.7905 392.0435 127.9027 392.0435 126.7218 L 392.0435 121.2658 L 390.492 121.2658 L 390.492 119.8781 L 392.0435 119.8781 L 392.0435 118.0163 L 393.8277 117.4733 Z " stroke-width="0.8619328737258911" />
    <path id="ID0.6451624021865427" d="M 400.6715 117.4733 L 400.6715 119.8694 L 403.2745 119.8694 L 403.2745 121.2572 L 400.6715 121.2572 L 400.6715 126.6529 C 400.6715 127.894 401.0249 128.6008 402.0333 128.6008 C 402.5333 128.6008 402.8177 128.5577 403.0849 128.4802 L 403.1711 129.8679 C 402.8177 129.9885 402.2574 130.1178 401.5593 130.1178 C 400.7146 130.1178 400.025 129.8248 399.5941 129.3507 C 399.0941 128.7905 398.8873 127.9027 398.8873 126.7218 L 398.8873 121.2658 L 397.3358 121.2658 L 397.3358 119.8781 L 398.8873 119.8781 L 398.8873 118.0163 L 400.6715 117.4733 Z " stroke-width="0.8619328737258911" />
    <path id="ID0.2787378057837486" d="M 406.2223 125.2134 C 406.2654 127.6786 407.8169 128.687 409.6528 128.687 C 410.9543 128.687 411.7646 128.4629 412.4282 128.1699 L 412.7558 129.4714 C 412.1179 129.7644 410.9974 130.1092 409.4029 130.1092 C 406.3171 130.1092 404.4812 128.0578 404.4812 125.041 C 404.4812 122.0243 406.2568 119.6626 409.1788 119.6626 C 412.4713 119.6626 413.316 122.5156 413.316 124.3601 C 413.316 124.7307 413.2988 124.9979 413.2557 125.2048 L 406.2223 125.2048 Z M 411.5577 123.9119 C 411.5749 122.7742 411.0836 120.9727 409.0322 120.9727 C 407.1705 120.9727 406.3861 122.6449 406.2396 123.9119 L 411.5577 123.9119 Z " stroke-width="0.8619328737258911" />
    <path id="ID0.8539883159101009" d="M 415.5657 122.5845 C 415.5657 121.533 415.5484 120.7055 415.4795 119.8781 L 417.0913 119.8781 L 417.1947 121.533 L 417.2378 121.533 C 417.7377 120.6021 418.8927 119.6712 420.5476 119.6712 C 421.9354 119.6712 424.0816 120.4987 424.0816 123.9291 L 424.0816 129.8851 L 422.2629 129.8851 L 422.2629 124.1102 C 422.2629 122.4983 421.6595 121.1537 419.9443 121.1537 C 418.7634 121.1537 417.8326 121.9984 417.505 123.0155 C 417.4188 123.2396 417.3844 123.5499 417.3844 123.8602 L 417.3844 129.8765 L 415.5657 129.8765 L 415.5657 122.5845 Z " stroke-width="0.8619328737258911" />
    <path id="ID0.7774819694459438" d="M 426.6157 128.8163 C 426.6157 128.075 427.1328 127.5148 427.8568 127.5148 C 428.5809 127.5148 429.0808 128.0492 429.0808 128.8163 C 429.0808 129.5576 428.5809 130.1178 427.8224 130.1178 C 427.1156 130.1178 426.6157 129.5576 426.6157 128.8163 Z " stroke-width="0.8619328737258911" />
    <path id="ID0.02581754233688116" d="M 430.8995 128.8163 C 430.8995 128.075 431.4166 127.5148 432.1406 127.5148 C 432.8647 127.5148 433.3646 128.0492 433.3646 128.8163 C 433.3646 129.5576 432.8647 130.1178 432.1062 130.1178 C 431.3908 130.1178 430.8995 129.5576 430.8995 128.8163 Z " stroke-width="0.8619328737258911" />
    <path id="ID0.9439226933754981" d="M 435.1833 128.8163 C 435.1833 128.075 435.7004 127.5148 436.4245 127.5148 C 437.1485 127.5148 437.6484 128.0492 437.6484 128.8163 C 437.6484 129.5576 437.1485 130.1178 436.39 130.1178 C 435.6746 130.1178 435.1833 129.5576 435.1833 128.8163 Z " stroke-width="0.8619328737258911" />
    <path id="ID0.025873449631035328" d="M 441.303 125.9202 L 441.2599 125.3858 C 441.1392 124.2912 441.5099 123.05 442.5442 121.8088 C 443.4751 120.7141 443.9922 119.9039 443.9922 118.973 C 443.9922 117.9215 443.3285 117.2147 442.027 117.1975 C 441.2858 117.1975 440.4583 117.4474 439.9411 117.8353 L 439.4412 116.5338 C 440.148 116.0338 441.303 115.7063 442.3976 115.7063 C 444.7766 115.7063 445.854 117.1716 445.854 118.7489 C 445.854 120.1539 445.0696 121.171 444.0784 122.3518 C 443.1648 123.4292 442.8372 124.3601 442.8976 125.4117 L 442.9407 125.9288 L 441.303 125.9288 Z M 440.872 128.8335 C 440.872 128.0664 441.3892 127.532 442.096 127.532 C 442.8372 127.532 443.3199 128.0664 443.3199 128.8335 C 443.3199 129.5576 442.8459 130.1178 442.0787 130.1178 C 441.3633 130.1178 440.872 129.5576 440.872 128.8335 Z " stroke-width="0.8619328737258911" />
  </g>
  <path id="ID0.6435082009993494" fill="none" stroke="#FFFFFF" stroke-width="2" stroke-linecap="round" d="M 677 260 C 677 260 681 264 681 264 "/>
  <path id="ID0.004330181051045656" fill="none" stroke="#FFFFFF" stroke-width="2" stroke-linecap="round" d="M 18 218 C 18 218 18.793 219.967 19 221 C 19.131 221.653 19 223 19 223 "/>
  <path id="ID0.3869425901211798" fill="none" stroke="#FFFFFF" stroke-width="2" stroke-linecap="round" d="M 647 18 L 647.3 18.3 "/>
  <path id="ID0.9160813260823488" fill="none" stroke="#FFFFFF" stroke-width="2" stroke-linecap="round" d="M 1 1 L 1.3 1.3 "/>
</svg>