<svg version="1.1" xmlns="http://www.w3.org/2000/svg" xmlns:xlink="http://www.w3.org/1999/xlink" width="564.79564" height="542.51246" viewBox="0,0,564.79564,542.51246"><g transform="translate(5.85102,73.75623)"><g data-paper-data="{&quot;isPaintingLayer&quot;:true}" fill-rule="nonzero" stroke-linejoin="miter" stroke-miterlimit="10" stroke-dasharray="" stroke-dashoffset="0" style="mix-blend-mode: normal"><path d="M423.99012,179.84118c0,58.54548 9.14947,134.33922 -36.62674,165.7421c-29.11266,19.97154 -103.69001,7.68133 -142.05194,7.68133c-32.45404,0 -131.95625,12.62302 -158.18752,-2.05614c-53.52897,-29.9551 -20.49116,-107.08769 -20.49116,-171.36729c0,-54.03495 -6.07011,-123.319 33.84333,-155.12451c30.83473,-24.57103 101.82621,-18.29891 144.83535,-18.29891c46.24992,0 124.43168,-9.9717 156.16106,18.01246c35.97026,31.72447 22.51762,104.52148 22.51762,155.41097z" fill="#9966ff" stroke="none" stroke-width="0" stroke-linecap="butt"/><path d="M267.88931,-67.50623l-267.49033,235.25271" fill="none" stroke="#009c42" stroke-width="12.5" stroke-linecap="round"/><path d="M304.42084,-35.47921l-267.49034,235.25271" fill="none" stroke="#009c42" stroke-width="12.5" stroke-linecap="round"/><path d="M339.45087,-7.95669l-267.49034,235.25271" fill="none" stroke="#009c42" stroke-width="12.5" stroke-linecap="round"/><path d="M409.5715,-6.15552l-370.1485,325.53863" fill="none" stroke="#009c42" stroke-width="12.5" stroke-linecap="round"/><path d="M441.59853,31.87751l-370.1485,325.53863" fill="none" stroke="#009c42" stroke-width="12.5" stroke-linecap="round"/><path d="M473.62556,63.90454l-370.1485,325.53863" fill="none" stroke="#009c42" stroke-width="12.5" stroke-linecap="round"/><path d="M511.65859,104.94057l-370.1485,325.53863" fill="none" stroke="#009c42" stroke-width="12.5" stroke-linecap="round"/><path d="M552.69462,136.9676l-370.1485,325.53863" fill="none" stroke="#009c42" stroke-width="12.5" stroke-linecap="round"/></g></g></svg>