<svg xmlns="http://www.w3.org/2000/svg" xmlns:xlink="http://www.w3.org/1999/xlink" version="1.1" width="92.07138612813638" height="72.54538515157388" viewBox="-0.7726925757869437 -0.47269256386601477 92.07138612813638 72.54538515157388">
  <!-- Exported by Scratch - http://scratch.mit.edu/ -->
  <path id="ID0.5443468582816422" fill="#000000" stroke="#000000" stroke-width="1.2374464515622894" d="M 48.275 18.7713 C 52.3704 18.5533 56.5201 20.7612 59.0558 23.6486 C 61.9463 26.9341 63.3435 31.4149 63.6003 35.4114 C 63.867 39.4836 63.9008 44.7338 60.0841 47.2029 C 55.9111 50.4855 49.1972 49.8676 43.5149 49.871 C 38.0343 49.8756 31.5857 50.6015 27.211 47.6332 C 23.661 44.8962 22.9677 39.6001 23.4295 35.4114 C 23.8952 31.2232 26.3459 26.4171 30.296 23.6486 C 35.2565 20.1651 41.9731 18.5538 48.275 18.7713 Z "/>
  <path id="ID0.37750169076025486" fill="#FFFFFF" stroke="#000000" stroke-width="0.8471974517271978" d="M 62.1166 28.646 C 63.4559 28.646 64.6692 29.1841 65.5478 30.0541 C 66.4264 30.9235 66.9704 32.1247 66.9704 33.4499 C 66.9704 34.775 66.4264 35.9763 65.5478 36.8457 C 64.6692 37.7157 63.4559 38.2538 62.1166 38.2538 C 60.7774 38.2538 59.5641 37.7157 58.6854 36.8457 C 57.8068 35.9763 57.2628 34.775 57.2628 33.4499 C 57.2628 32.1247 57.8068 30.9235 58.6854 30.0541 C 59.5641 29.1841 60.7774 28.646 62.1166 28.646 Z "/>
  <path id="ID0.37750169076025486" fill="#FFFFFF" stroke="#000000" stroke-width="1.1104878126595163" d="M 51.7339 27.1129 C 53.7221 27.111 55.524 27.7832 56.8294 28.8714 C 58.1349 29.9589 58.9439 31.4625 58.9456 33.122 C 58.9472 34.7816 58.141 36.2867 56.8377 37.3768 C 55.5343 38.4675 53.7337 39.1432 51.7455 39.1451 C 49.7573 39.1471 47.9554 38.4749 46.6499 37.3867 C 45.3445 36.2991 44.5354 34.7955 44.5338 33.136 C 44.5322 31.4765 45.3383 29.9713 46.6417 28.8812 C 47.945 27.7905 49.7456 27.1148 51.7339 27.1129 Z "/>
  <path id="ID0.234124637208879" fill="#000000" stroke="black" stroke-width="1.178983154000629" stroke-linecap="round" d="M 62.1693 29.2284 C 62.5323 29.2284 62.8609 29.6773 63.0989 30.4033 C 63.3372 31.1292 63.4845 32.1314 63.4845 33.237 C 63.4845 34.3427 63.3372 35.3449 63.0989 36.0708 C 62.8609 36.7967 62.5323 37.2457 62.1693 37.2457 C 61.8062 37.2457 61.4776 36.7967 61.2397 36.0708 C 61.0013 35.3449 60.854 34.3427 60.854 33.237 C 60.854 32.1314 61.0013 31.1292 61.2397 30.4033 C 61.4776 29.6773 61.8062 29.2284 62.1693 29.2284 Z "/>
  <path id="ID0.234124637208879" fill="#000000" stroke="black" stroke-width="1.5453851515738875" stroke-linecap="round" d="M 51.3753 27.7243 C 51.9142 27.7237 52.4026 28.2855 52.7568 29.1943 C 53.1115 30.1031 53.3314 31.3579 53.3328 32.7426 C 53.3341 34.1272 53.1166 35.3825 52.7636 36.292 C 52.4112 37.2014 51.9239 37.7641 51.385 37.7647 C 50.8461 37.7652 50.3577 37.2034 50.0035 36.2946 C 49.6488 35.3859 49.4289 34.131 49.4275 32.7464 C 49.4262 31.3617 49.6437 30.1064 49.9967 29.197 C 50.349 28.2875 50.8364 27.7248 51.3753 27.7243 Z "/>
  <path id="ID0.033297700341790915_9_" fill="none" d="M 0 0.3 L 90.526 0.3 L 90.526 71.3 L 0 71.3 L 0 0.3 Z " stroke-width="0.7653684782999252"/>
</svg>