<svg version="1.1" xmlns="http://www.w3.org/2000/svg" xmlns:xlink="http://www.w3.org/1999/xlink" width="67.90883" height="72.23729" viewBox="0,0,67.90883,72.23729"><g transform="translate(-205.8862,-144.8521)"><g data-paper-data="{&quot;isPaintingLayer&quot;:true}" fill-rule="nonzero" stroke="none" stroke-linecap="butt" stroke-linejoin="miter" stroke-miterlimit="10" stroke-dasharray="" stroke-dashoffset="0" style="mix-blend-mode: normal"><path d="M207.83341,217.08939v-72.22067h64.33319v72.22067z" fill="#000000" stroke-width="0"/><text transform="matrix(0.33003 0 0 0.33003 206.05122 150.95765999999998)" font-size="40"  fill="#7bdfff" fill-rule="nonzero" stroke="none" stroke-width="1" stroke-linecap="butt" stroke-linejoin="miter" stroke-miterlimit="10" stroke-dasharray="" stroke-dashoffset="0" font-family="Helvetica" font-weight="normal" text-anchor="start" style="mix-blend-mode: normal" >Resolution</text><path d="M216.75954,189.13771c0,-12.83536 10.40511,-23.24047 23.24047,-23.24047c12.83536,0 23.24047,10.40511 23.24047,23.24047c0,12.83536 -10.40511,23.24047 -23.24047,23.24047c-12.83536,0 -23.24047,-10.40511 -23.24047,-23.24047z" fill="#636363" stroke-width="0"/><g fill="#313131" stroke-width="none"><path d="M226.79505,189.4511v-12.09839h12.09839v12.09839z"/><path d="M226.79505,204.20523v-12.09839h12.09839v12.09839z"/><path d="M241.10656,189.4511v-12.09839h12.09839v12.09839z"/><path d="M241.10656,204.20523v-12.09839h12.09839v12.09839z"/></g><g fill="#7bdfff" stroke-width="none"><path d="M226.79506,187.23798v-12.09838h12.09838v12.09838z"/><path d="M226.79506,201.99211v-12.09838h12.09838v12.09838z"/><path d="M241.10656,187.23798v-12.09838h12.09838v12.09838z"/><path d="M241.10656,201.99211v-12.09838h12.09838v12.09838z"/></g></g></g></svg>