<svg xmlns="http://www.w3.org/2000/svg" xmlns:xlink="http://www.w3.org/1999/xlink" version="1.1" width="54" height="54.66999816894531" viewBox="-1 -0.5 54 54.66999816894531">
  <!-- Exported by Scratch - http://scratch.mit.edu/ -->
  <g id="ID0.7121359058655798">
    <path id="ID0.4177084397524595_22_" fill="none" d="M 0 0.5 L 52 0.5 L 52 53.17 L 0 53.17 L 0 0.5 Z " stroke-width="1"/>
    <path id="ID0.5515136159956455" fill="none" stroke="#006837" stroke-width="2" d="M 20.34 17.86 C 20.34 17.86 25.03 27.25 23.87 40.33 "/>
    <path id="ID0.07524502836167812" fill="none" stroke="#006837" stroke-width="1.5" d="M 28.58 32.42 C 28.58 32.42 25.88 34.5 24.06 38.16 "/>
    <path id="ID0.9393078950233757" fill="#008748" d="M 31.51 33.82 C 29.11 34.22 28.33 33.27 28.12 31.98 C 27.91 30.69 28.34 29.54 30.74 29.15 C 33.14 28.76 35.47 30.77 35.47 30.77 C 35.47 30.77 33.91 33.43 31.51 33.82 Z " stroke-width="1"/>
    <path id="ID0.9371762801893055" fill="none" stroke="#006837" stroke-width="1.5" d="M 20.74 34.63 C 20.74 34.63 22.83 36.54 24.23 39.89 "/>
    <path id="ID0.6515589170157909" fill="#008748" d="M 18.76 36.2 C 20.68 36.71 21.26 35.92 21.38 34.78 C 21.49 33.64 21.1 32.59 19.18 32.08 C 17.26 31.57 15.49 33.22 15.49 33.22 C 15.49 33.22 16.83 35.69 18.76 36.2 Z " stroke-width="1"/>
    <path id="ID0.7052676533348858" fill="#FF0000" stroke="#B02323" stroke-width="0.8" d="M 24.02 16.49 C 23.6 18.42 22.82 19.42 21.34 19.42 C 19.86 19.42 19.12 18.13 18.66 16.49 C 18.23 14.93 18.03 13.56 21.34 13.56 C 24.73 13.56 24.36 14.91 24.02 16.49 Z "/>
    <path id="ID0.1459033265709877" fill="#FF0000" stroke="#B02323" stroke-width="0.8" d="M 18.65 27.45 C 19.07 25.52 19.85 24.52 21.33 24.52 C 22.81 24.52 23.55 25.81 24.01 27.45 C 24.44 29.01 24.64 30.38 21.33 30.38 C 17.94 30.38 18.31 29.03 18.65 27.45 Z "/>
    <path id="ID0.07398379687219858" fill="#FF0000" stroke="#B02323" stroke-width="0.8" d="M 27.63 21.08 C 25.76 21.72 24.5 21.56 23.74 20.29 C 22.98 19.02 23.7 17.72 24.87 16.49 C 25.98 15.32 27.06 14.45 28.76 17.28 C 30.5 20.18 29.16 20.56 27.63 21.08 Z "/>
    <path id="ID0.7928573484532535" fill="#FF0000" stroke="#B02323" stroke-width="0.8" d="M 25.17 26.82 C 23.61 25.61 23.05 24.47 23.69 23.14 C 24.33 21.81 25.81 21.7 27.49 21.99 C 29.08 22.27 30.4 22.69 28.97 25.67 C 27.5 28.73 26.44 27.81 25.17 26.82 Z "/>
    <path id="ID0.10065253591164947" fill="#FF0000" stroke="#B02323" stroke-width="0.8" d="M 15.16 21.37 C 17.03 22.01 18.29 21.85 19.05 20.58 C 19.81 19.31 19.09 18.01 17.92 16.78 C 16.81 15.61 15.73 14.74 14.03 17.57 C 12.28 20.47 13.63 20.84 15.16 21.37 Z "/>
    <path id="ID0.2214318043552339" fill="#FF0000" stroke="#B02323" stroke-width="0.8" d="M 17.62 27.11 C 19.18 25.9 19.74 24.76 19.1 23.43 C 18.46 22.1 16.98 21.99 15.3 22.28 C 13.71 22.56 12.39 22.98 13.82 25.96 C 15.28 29.02 16.34 28.1 17.62 27.11 Z "/>
    <path id="ID0.28408597176894546" fill="#FFDC30" stroke="#B02323" stroke-width="0.8" d="M 21.34 18.42 C 22.314 18.42 23.196 18.805 23.835 19.428 C 24.474 20.051 24.87 20.911 24.87 21.86 C 24.87 22.809 24.474 23.669 23.835 24.292 C 23.196 24.915 22.314 25.3 21.34 25.3 C 20.366 25.3 19.484 24.915 18.845 24.292 C 18.206 23.669 17.81 22.809 17.81 21.86 C 17.81 20.911 18.206 20.051 18.845 19.428 C 19.484 18.805 20.366 18.42 21.34 18.42 Z "/>
  </g>
</svg>