<svg version="1.1" xmlns="http://www.w3.org/2000/svg" xmlns:xlink="http://www.w3.org/1999/xlink" width="345.19988" height="348.78044" viewBox="0,0,345.19988,348.78044"><defs><radialGradient cx="239.99999" cy="178.21306" r="141.17178" gradientUnits="userSpaceOnUse" id="color-1"><stop offset="0" stop-color="#dcdcdc"/><stop offset="1" stop-color="#5f5f5f"/></radialGradient><linearGradient x1="240" y1="5.60978" x2="240" y2="350.80966" gradientUnits="userSpaceOnUse" id="color-2"><stop offset="0" stop-color="#ffffff"/><stop offset="1" stop-color="#bfbfbf"/></linearGradient><linearGradient x1="229.17668" y1="9.19034" x2="229.17668" y2="354.39022" gradientUnits="userSpaceOnUse" id="color-3"><stop offset="0" stop-color="#ffffff"/><stop offset="1" stop-color="#bfbfbf"/></linearGradient><radialGradient cx="223.74726" cy="135.59393" r="144.96377" gradientUnits="userSpaceOnUse" id="color-4"><stop offset="0" stop-color="#ffffff"/><stop offset="1" stop-color="#bfbfbf"/></radialGradient><linearGradient x1="256.28257" y1="36.07452" x2="256.28257" y2="186.9853" gradientUnits="userSpaceOnUse" id="color-5"><stop offset="0" stop-color="#055d0c"/><stop offset="1" stop-color="#59ff00"/></linearGradient><linearGradient x1="215.4109" y1="182.26934" x2="215.4109" y2="320.60422" gradientUnits="userSpaceOnUse" id="color-6"><stop offset="0" stop-color="#d6ff00"/><stop offset="1" stop-color="#ffb900"/></linearGradient><linearGradient x1="237.41872" y1="180.69735" x2="237.41872" y2="223.14101" gradientUnits="userSpaceOnUse" id="color-7"><stop offset="0" stop-color="#ff0025"/><stop offset="1" stop-color="#5d00a9"/></linearGradient><linearGradient x1="227.20081" y1="102.09798" x2="227.20081" y2="287.59249" gradientUnits="userSpaceOnUse" id="color-8"><stop offset="0" stop-color="#6e0000"/><stop offset="1" stop-color="#ffb2b2"/></linearGradient><linearGradient x1="306.58617" y1="131.96574" x2="306.58617" y2="177.55338" gradientUnits="userSpaceOnUse" id="color-9"><stop offset="0" stop-color="#ba00de"/><stop offset="1" stop-color="#3500ff"/></linearGradient><linearGradient x1="235.68632" y1="145.5366" x2="284.52745" y2="153.93798" gradientUnits="userSpaceOnUse" id="color-10"><stop offset="0" stop-color="#8a5500"/><stop offset="1" stop-color="#ff9d00"/></linearGradient><linearGradient x1="253.62414" y1="166.85229" x2="267.5522" y2="123.71681" gradientUnits="userSpaceOnUse" id="color-11"><stop offset="0" stop-color="#ffffff" stop-opacity="0"/><stop offset="1" stop-color="#ffffff"/></linearGradient><linearGradient x1="223.15866" y1="190.6326" x2="138.51289" y2="269.43612" gradientUnits="userSpaceOnUse" id="color-12"><stop offset="0" stop-color="#ffad00" stop-opacity="0"/><stop offset="1" stop-color="#ffad00"/></linearGradient></defs><g transform="translate(-67.40006,-5.60978)"><g data-paper-data="{&quot;isPaintingLayer&quot;:true}" fill-rule="nonzero" stroke-linejoin="miter" stroke-miterlimit="10" stroke-dasharray="" stroke-dashoffset="0" style="mix-blend-mode: normal"><g><g><path d="M98.82572,178.21388c0,-77.96842 63.20585,-141.17427 141.17427,-141.17427c77.96842,0 141.17427,63.20589 141.17427,141.17427c0,77.96842 -63.20589,141.17427 -141.17427,141.17427c-77.96842,0 -141.17427,-63.20585 -141.17427,-141.17427z" fill="url(#color-1)" stroke="none" stroke-width="1" stroke-linecap="butt"/><path d="M412.59994,178.20972c0,95.16703 -77.42459,172.59994 -172.59994,172.59994c-95.17119,0 -172.59994,-77.43291 -172.59994,-172.59994c0,-95.17119 77.42459,-172.59994 172.59994,-172.59994c95.17535,0 172.59994,77.43291 172.59994,172.59994z" fill="url(#color-2)" stroke="none" stroke-width="1" stroke-linecap="butt"/><path d="M388.11145,181.79028c0,95.16703 -71.29467,172.59994 -158.93477,172.59994c-87.63623,0 -158.93477,-77.43291 -158.93477,-172.59994c0,-95.17119 71.29467,-172.59994 158.93477,-172.59994c87.64005,0 158.93477,77.43291 158.93477,172.59994z" fill="url(#color-3)" stroke="none" stroke-width="1" stroke-linecap="butt"/><path d="M106.92937,123.77076c32.011,-73.36116 117.43203,-106.88208 190.79317,-74.87109c73.36116,32.011 106.88208,117.43203 74.87109,190.79317c-32.011,73.36116 -117.43203,106.88208 -190.79317,74.87109c-73.36116,-32.011 -106.88208,-117.43203 -74.87109,-190.79317z" fill="url(#color-4)" stroke="none" stroke-width="1" stroke-linecap="butt"/><g fill="none" stroke-width="2" stroke-linecap="round"><path d="M168.21555,311.21803l188.29995,-212.42699" stroke="#e8e8e8"/><path d="M194.94142,329.51061l175.23807,-191.97963" stroke="#e8e8e8"/><path d="M382.56962,158.42571c0,0 -50.44467,69.8078 -94.72193,118.35088c-40.40853,44.30159 -45.55924,49.69863 -45.55924,49.69863" stroke="#e8e8e8"/><path d="M291.98828,319.65137c25.32519,-28.08903 63.93958,-81.28152 88.15954,-107.83483" stroke="#ececec"/><g><path d="M105.48039,125.50377l45.6277,-58.41716" stroke="#e0e0e0"/><path d="M224.17262,35.79693l-127.57842,150.27517" stroke="#e7e7e7"/><path d="M104.81643,223.13999l166.29008,-178.48959" stroke="#d1d1d1"/><path d="M119.29481,261.37391l181.28677,-207.59966" stroke="#d1d1d1"/><path d="M336.37464,74.06074c0,0 -48.85819,55.78002 -80.63075,92.12054c-40.43392,46.2471 -113.20701,127.05307 -113.20701,127.05307" stroke="#d1d1d1"/></g></g><g fill="none" stroke-width="5" stroke-linecap="round"><path d="M292.43828,56.51035l-55.01955,130.47494l-17.29186,-150.91078" stroke="url(#color-5)"/><path d="M146.24346,297.02442l92.74725,-114.75508l45.58763,138.33488" stroke="url(#color-6)"/><path d="M95.93986,180.69735l143.05085,6.28795l139.90687,36.1557" stroke="url(#color-7)"/><path d="M119.51967,102.09798l116.32706,75.45539l99.0352,110.03912" stroke="url(#color-8)"/><path d="M243.70667,177.55338l125.75899,-45.58763" stroke="url(#color-9)"/></g></g><g stroke-linecap="butt"><path d="M221.41668,137.47266c6.17899,-22.56391 68.20236,-59.73305 68.20236,-59.73305l39.49562,45.09555c0,0 -33.14268,54.968 -68.20236,59.73305c-11.81562,1.60589 -32.67002,38.78432 -50.94395,45.73516c-4.83216,1.83801 -24.55264,-9.96075 -25.94426,-11.37579c-8.96134,-9.11219 33.84666,-66.50619 37.39259,-79.45492z" fill="#b3b3b3" stroke="none" stroke-width="0"/><g stroke="none"><g><path d="M284.78324,149.43259c0.18713,15.15358 -10.70917,27.57439 -24.33753,27.74268c-13.62838,0.16829 -24.82803,-11.97968 -25.01516,-27.13326c-0.18713,-15.15358 10.70917,-27.57439 24.33754,-27.74268c13.62838,-0.16829 24.82803,11.97968 25.01516,27.13326z" fill="url(#color-10)" stroke-width="0"/><path d="M264.814,133.10695c-0.0218,-1.76452 1.39098,-3.21262 3.1555,-3.23441c1.76452,-0.02179 3.21262,1.39098 3.23441,3.1555c0.0218,1.76452 -1.39097,3.21262 -3.1555,3.23441c-1.76452,0.02179 -3.21262,-1.39098 -3.23441,-3.1555z" fill="#000000" stroke-width="0.5"/><path d="M266.37575,144.13581c-0.0218,-1.76452 1.39099,-3.21262 3.1555,-3.23441c1.76452,-0.02179 3.21262,1.39099 3.23441,3.1555c0.0218,1.76452 -1.39097,3.21262 -3.1555,3.23441c-1.76452,0.02179 -3.21262,-1.39099 -3.23441,-3.1555z" fill="#000000" stroke-width="0.5"/><path d="M255.07852,138.39485c-0.02179,-1.76452 1.39099,-3.21262 3.1555,-3.23441c1.76452,-0.02179 3.21262,1.39099 3.23441,3.15551c0.0218,1.76452 -1.39099,3.21262 -3.1555,3.23441c-1.76452,0.02179 -3.21262,-1.39099 -3.23441,-3.15551z" fill="#000000" stroke-width="0.5"/></g><path d="M238.06386,138.13766c3.84613,-11.91153 17.6148,-18.25471 29.48834,-14.42084c11.87354,3.83386 20.22671,19.05889 16.38057,30.97043c-0.54051,1.67394 -1.36098,5.85682 -3.14036,9.24746c-0.85966,1.63809 -5.17213,7.40268 -9.82286,10.52615c-2.15318,1.44609 -5.99003,1.35936 -6.69299,1.77331c-5.36887,3.16142 -6.53161,-6.31392 -12.91579,-8.3753c-6.07735,-1.96232 -12.56442,-6.99221 -15.16139,-12.32186c-1.47681,-3.03079 -0.8067,-13.79989 0.11518,-15.01198c0.62314,-0.81932 1.74931,-2.38733 1.74931,-2.38733z" data-paper-data="{&quot;index&quot;:null}" fill="url(#color-11)" stroke-width="0"/></g><path d="M331.85577,133.22628c-18.79178,17.45566 -71.34195,-39.11687 -52.55018,-56.57253c18.79178,-17.45566 60.3006,-3.32 60.3006,-3.32c0,0 11.04135,42.43687 -7.75042,59.89253z" fill="#4c4c4c" stroke="none" stroke-width="0"/><path d="M275.89789,164.09333c-13.25716,12.03822 -31.06552,14.02077 -39.77611,4.4282c-8.71056,-9.59257 -5.02484,-27.12782 8.23232,-39.166c13.25716,-12.03822 31.06554,-14.02078 39.77613,-4.4282c8.71056,9.59258 5.02482,27.1278 -8.23234,39.166z" fill="none" stroke="#4c4c4c" stroke-width="2.5"/><path d="M164.74213,256.43293c-1.26123,0.62487 -2.68101,0.91223 -3.90429,1.60848c-3.58912,1.35186 -6.32875,3.76813 -10.16081,4.66562c-0.80776,0.18919 -4.46408,0.8169 -5.36797,0.3361c-2.50103,-1.33036 -6.14502,-2.23618 -6.89534,-4.96786c-0.73726,-2.68408 1.92082,-5.27683 3.44086,-7.60862c0.50964,-0.78179 1.6151,-0.93559 2.42788,-1.39419c1.1972,-0.67551 2.37409,-1.22835 3.46414,-2.09507c3.18699,-2.53406 5.30043,-5.58259 7.84217,-8.6201c0.42391,-0.5066 1.02651,-0.84371 1.45042,-1.35031c0.18883,-0.22567 0.36702,-0.44802 0.53942,-0.66727c-0.95644,0.74102 -1.99099,1.38767 -3.09249,1.86966c-0.91431,0.40008 -1.82041,0.84789 -2.78866,1.08984c-0.3345,0.08359 -0.70334,-0.26022 -1.02527,-0.13676c-0.48797,0.18711 -0.74104,0.76799 -1.21197,0.99462c-0.5002,0.24073 -1.01726,0.41747 -1.54725,0.54466l-0.32936,0.30663c-2.50327,2.33049 -6.4218,2.19042 -8.7523,-0.31283c-2.33049,-2.50327 -2.19042,-6.4218 0.31283,-8.7523l0.55478,-0.51649c0.47779,-0.77447 1.14298,-1.42675 1.69954,-2.14987c0.31852,-0.41383 0.42308,-0.96829 0.75024,-1.37535c1.6841,-2.0954 4.44845,-4.57248 6.57779,-6.19187c2.07558,-1.5785 4.5431,-2.82818 6.73547,-4.2523c2.23847,-2.12008 4.43429,-4.53388 6.9192,-6.3612c1.26657,-0.93139 3.1078,-1.66029 4.06765,-2.99292c0.15778,-0.21906 0.04259,-0.54268 0.12222,-0.80064c0.49195,-1.5937 0.95835,-3.19772 1.54231,-4.76004c0.14947,-0.39992 4.04025,-9.51799 4.19532,-9.8134c2.04647,-3.89788 4.97161,-7.97915 7.94966,-11.22507c0.88029,-0.95947 2.15041,-1.55139 2.90259,-2.61428c0.7432,-1.05021 1.34313,-2.19731 2.09027,-3.24471c0,0 1.63652,-2.27433 4.23776,-2.66257c0.08211,-0.11167 0.16985,-0.22032 0.26361,-0.32571c1.70077,-1.91184 4.94306,-1.67676 7.50148,-1.63009c1.32723,0.02421 2.43229,1.09426 3.53626,1.83138c0.43058,0.28749 0.55821,0.91396 0.99403,1.19349c0.62165,0.39871 1.46141,0.36504 2.07552,0.77527c1.14637,0.76577 1.85901,2.04565 2.90426,2.94454c0.85205,0.73275 2.01873,1.02063 2.90335,1.71371c0.65059,0.50974 1.1648,1.17292 1.74719,1.75936c7.25873,7.79687 14.46,15.58633 22.08938,23.01122c0.95177,0.92627 1.92456,1.83702 2.9714,2.65434c2.73873,2.13831 7.55804,4.38684 8.09606,8.23893c0.31346,2.2443 -1.89845,4.12293 -3.03756,6.08192c-1.10747,1.90459 -3.80255,2.93801 -5.13013,4.6668c-0.31807,0.41419 -0.42308,0.96829 -0.75023,1.37534c-0.41846,0.52066 -2.1689,2.12846 -2.84719,2.75993c-0.56078,0.37489 -0.74393,1.12783 -1.16651,1.65362c-0.51778,0.64423 -1.15444,1.18401 -1.75936,1.74719c-1.83333,1.70678 -4.09299,2.63617 -5.71317,4.60077c-0.821,0.99553 -1.72074,2.73635 -2.4922,3.65173c-0.74495,0.88393 -1.83222,1.44772 -2.53824,2.36304c-2.20139,2.85407 -4.7878,5.19761 -7.43672,7.66371c-2.69365,2.50773 -5.19433,4.90039 -8.32427,6.86672c-2.7298,1.39887 -4.53299,4.1103 -6.95965,5.96737c-3.3995,2.60154 -7.33842,4.60677 -10.69911,7.26547c-0.77707,0.61476 -1.39687,1.41287 -2.17564,2.02547c-1.20185,0.9454 -2.32895,1.28515 -3.26472,2.37003c-3.15495,3.65774 -5.89727,7.56236 -9.4509,10.85054c-0.77411,0.71628 -2.20597,2.16106 -3.37043,2.46092l-0.95581,0.88984c-2.50327,2.33049 -6.4218,2.19042 -8.7523,-0.31284c-1.89821,-2.03893 -2.15739,-5.01677 -0.83557,-7.31067l0.68185,-1.24998l0.17664,0.09635c0.09283,-0.09844 0.18946,-0.1945 0.2899,-0.28802l0.09744,-0.09071l-0.01874,-0.55018c1.01779,-0.97671 1.79218,-2.1792 2.71263,-3.24815c0.59228,-0.68784 1.36828,-1.19947 1.97574,-1.87395c1.34449,-1.49284 2.33932,-3.27644 3.67611,-4.77614c1.31446,-1.47465 2.65196,-2.84673 3.94707,-4.33918c1.13704,-1.3103 1.44314,-2.62969 2.47352,-4.1483c0.58645,-0.86432 1.35925,-1.73143 2.14657,-2.6206c-2.1074,0.51437 -4.42353,-0.09556 -6.00675,-1.79615c-0.88438,-0.94996 -1.41299,-2.10371 -1.59168,-3.29715c-0.90994,0.60498 -1.75229,1.34477 -2.72996,1.82915z" fill="url(#color-12)" stroke="none" stroke-width="0.5"/></g></g></g></g></svg>