<svg xmlns="http://www.w3.org/2000/svg" xmlns:xlink="http://www.w3.org/1999/xlink" version="1.1" width="36.90079879760742" height="38.75966262817383" viewBox="-0.3029000014066696 0.2710999846458435 36.90079879760742 38.75966262817383">
  <!-- Exported by Scratch - http://scratch.mit.edu/ -->
  <g id="ID0.5061348681338131">
    <g id="ID0.2712148008868098">
      <path id="ID0.7152078151702881_1_" fill="#FAA51D" stroke="#000000" d="M 24.179 32.6128 C 25.116 32.1174 26.1956 31.3936 26.9182 30.1776 C 28.5342 27.4583 28.2143 23.9019 30.0686 24.2674 C 31.9246 24.6331 33.5699 30.0277 29.0891 33.2419 C 27.5454 34.3506 25.9747 34.8421 24.6902 35.204 C 24.3527 35.2973 21.4284 35.9237 20.0176 34.818 C 18.6067 33.7119 19.1738 33.1509 19.4462 32.8527 C 19.7196 32.5548 22.854 33.3129 24.179 32.6128 L 24.179 32.6128 Z " stroke-width="0.23452769348713373"/>
      <path id="ID0.4691764716990292_1_" fill="#FFFFFF" d="M 29.8694 24.4449 C 30.767 24.4424 31.7761 26.1088 31.8116 27.6722 C 31.8477 29.2373 31.3707 30.0781 31.0408 30.8022 C 30.5444 31.4254 31.0295 29.7209 29.9482 29.2676 C 28.8703 28.8155 27.4704 29.6261 27.4704 29.6261 C 27.4704 29.6261 28.1573 27.6116 28.5325 26.4062 C 28.8838 25.2537 28.9307 24.5102 29.8694 24.4449 L 29.8694 24.4449 Z " stroke-width="0.23452769348713373"/>
    </g>
    <path id="ID0.7115552560426295" fill="#FAA51D" stroke="#000000" stroke-width="0.2814332376568399" d="M 10.2397 33.1416 C 10.6326 33.3941 11.1359 33.4631 11.6061 33.2841 L 15.6464 31.7476 C 16.1339 31.5623 16.4928 31.1408 16.5978 30.6299 L 17.4619 26.4278 C 17.6313 25.603 17.0997 24.7974 16.2758 24.6274 C 15.451 24.458 14.6449 24.989 14.4754 25.8135 L 13.78 29.1955 L 10.5224 30.4344 C 9.7354 30.7338 9.3403 31.6141 9.6394 32.4011 C 9.7599 32.7182 9.9747 32.9715 10.2397 33.1416 L 10.2397 33.1416 Z "/>
    <path id="ID0.10610466729849577" fill="#FAA51D" stroke="#000000" stroke-width="0.2814332426542732" d="M 3.8955 27.7836 C 3.8962 27.7885 3.8968 27.7933 3.8975 27.7982 L 4.5532 32.4623 C 4.6319 33.0253 4.9778 33.5156 5.482 33.7786 C 5.9859 34.0418 6.5863 34.0447 7.0929 33.7868 L 10.8704 31.8654 L 15.4136 33.3452 C 16.3373 33.646 17.3301 33.141 17.6309 32.2173 C 17.9317 31.2941 17.4266 30.3006 16.503 30 L 11.2668 28.295 C 10.8232 28.1506 10.3405 28.1881 9.9248 28.3995 L 7.696 29.533 L 7.3808 27.3048 C 7.2447 26.343 6.3545 25.6736 5.3924 25.8097 C 4.436 25.9457 3.7683 26.8274 3.8955 27.7836 L 3.8955 27.7836 Z "/>
    <path id="ID0.26425604708492756_1_" fill="#FAA51D" stroke="#231F20" stroke-width="0.2814332186257772" d="M 14.3329 30.8376 C 14.2455 30.1974 14.3271 29.3739 14.5517 28.1939 C 14.7391 27.2101 15.4164 25.665 15.4164 25.665 C 15.9133 24.627 16.8188 23.0625 18.2131 24.0058 C 18.7773 24.3877 19.4931 25.2134 20.7994 26.095 C 22.1074 26.9762 23.6483 27.3844 23.039 29.6668 C 22.4288 31.9495 23.4693 35.1116 18.3375 35.064 L 14.3329 30.8376 Z "/>
    <path id="ID0.46752600744366646" fill="#FAA51D" stroke="#000000" stroke-width="0.2814332228318807" d="M 7.1357 31.02 L 7.0848 36.7561 C 7.0791 37.395 7.4203 37.9864 7.9759 38.3019 C 8.5315 38.6169 9.2144 38.6061 9.7596 38.2734 L 14.5761 35.335 L 18.9285 35.3518 C 19.8971 35.3555 20.6857 34.5759 20.6943 33.6087 C 20.6943 33.6057 20.6944 33.6028 20.6944 33.5998 C 20.6981 32.6281 19.9135 31.8378 18.9424 31.8339 L 14.0921 31.8152 C 13.7663 31.814 13.447 31.9031 13.169 32.0727 L 10.6305 33.6214 L 10.6533 31.0515 C 10.6619 30.0799 9.8816 29.2856 8.91 29.277 C 7.9384 29.2684 7.1444 30.0484 7.1357 31.02 L 7.1357 31.02 Z "/>
    <path id="ID0.203311821911484_1_" fill="#FFFFFF" d="M 14.9493 27.4562 C 14.9493 27.4562 14.9993 25.8914 17.3193 26.5754 C 19.6392 27.2594 19.5354 28.7588 19.5363 29.693 C 19.5411 31.309 15.9819 31.5066 15.9819 31.5066 L 14.5295 30.6933 C 14.5295 30.6933 14.4965 29.6615 14.6672 29.022 C 14.7681 28.385 14.9493 27.4562 14.9493 27.4562 " stroke-width="0.23452768218814765"/>
    <path id="ID0.17305035842582583" fill="#FAA51D" d="M 16.7745 33.1862 C 16.7716 34.2917 17.7992 35.1908 19.0699 35.1942 C 20.3405 35.198 21.3735 34.3045 21.3763 33.1989 C 21.3794 32.0932 20.6818 30.8604 19.4111 30.857 C 17.2485 30.8508 16.7805 31.2029 16.7745 33.1862 Z " stroke-width="0.23452768218814765"/>
    <path id="ID0.7115552560426295" fill="#FAA51D" stroke="#000000" stroke-width="0.28143322843230045" d="M 22.8862 37.0093 C 23.3382 36.8923 23.7306 36.5695 23.9184 36.1028 L 25.5333 32.0932 C 25.7281 31.6094 25.6623 31.0598 25.3585 30.6358 L 22.8598 27.1486 C 22.3692 26.4642 21.4169 26.3076 20.7327 26.7972 C 20.0483 27.2877 19.8909 28.2401 20.3812 28.9243 L 22.3923 31.731 L 21.0903 34.9638 C 20.7759 35.7449 21.154 36.6327 21.9349 36.9474 C 22.2495 37.0741 22.5813 37.0884 22.8862 37.0093 L 22.8862 37.0093 Z "/>
    <path id="ID0.4675603983923793_1_" fill="#FAA51D" stroke="#231F20" stroke-width="0.281433230638504" d="M 17.5986 4.4408 C 18.2628 4.3791 19.6472 4.3045 20.4097 4.3411 C 22.4487 4.4382 24.3877 5.1725 24.3877 5.1725 L 30.0023 1.5085 L 29.0386 9.6625 C 28.76 9.325 33.5908 15.1845 30.5389 20.1098 C 27.4851 25.0377 20.95 27.2336 12.8616 25.6266 C 4.7728 24.0184 2.8433 19.3595 3.3792 16.8951 C 3.9149 14.4307 6.9684 13.521 6.9684 13.521 C 6.9684 13.521 7.0071 11.5889 8.4037 9.2211 C 9.2344 7.8116 12.0042 5.7532 12.0042 5.7532 L 13.2373 0.7711 L 16.4511 3.8781 L 17.5986 4.4408 L 17.5986 4.4408 Z "/>
    <path id="ID0.876089540310204_1_" fill="#FFFFFF" d="M 7.3727 13.4588 L 8.4431 12.5688 L 12.3743 13.7163 C 12.3743 13.7163 12.3743 15.191 14.2575 15.5996 C 16.1422 16.01 19.0926 14.6176 19.0926 14.6176 L 22.4503 16.0916 C 22.4503 16.0916 26.0892 16.4915 26.2192 18.7141 C 26.5095 23.6537 20.4488 25.7129 18.1523 25.844 C 16.8993 25.9162 14.6007 25.6981 12.8574 25.3517 C 5.2013 23.957 3.1318 19.3488 3.6667 16.8836 C 4.2024 14.4192 7.1077 13.7804 7.1077 13.7804 L 7.3727 13.4588 L 7.3727 13.4588 Z " stroke-width="0.23452769219875336"/>
    <path id="ID0.44282719027251005_1_" fill="none" stroke="#231F20" stroke-width="0.281433230638504" d="M 35.7281 18.2413 C 35.7281 18.2413 33.9567 18.4027 33.1516 18.3569 C 32.3471 18.311 30.7828 18.1039 30.7828 18.1039 "/>
    <path id="ID0.893105489667505_1_" fill="none" stroke="#231F20" stroke-width="0.281433230638504" d="M 5.1145 15.8763 C 5.1145 15.8763 3.1527 15.5557 2.1564 15.2079 C 0.9856 14.802 0.1971 14.1103 0.1971 14.1103 "/>
    <path id="ID0.03574043000116944_1_" fill="none" stroke="#231F20" stroke-width="0.281433230638504" d="M 30.6977 16.4101 C 30.6977 16.4101 31.7259 15.6435 33.3357 14.9307 C 35.1188 14.1411 36.0979 13.9375 36.0979 13.9375 "/>
    <path id="ID0.6674723788164556_1_" fill="none" stroke="#231F20" stroke-width="0.281433230638504" d="M 4.9156 18.4428 C 4.9156 18.4428 3.7397 18.9186 2.5293 19.0401 C 1.3344 19.1593 0.5255 19.0875 0.5255 19.0875 "/>
    <path id="ID0.12165586883202195_1_" fill="none" stroke="#000000" stroke-linecap="round" d="M 17.7536 4.4649 C 16.5289 4.7668 16.0775 5.0984 16.0775 5.0984 " stroke-width="0.23452769219875336"/>
    <path id="ID0.178104005753994_1_" fill="none" stroke="#000000" d="M 25.7116 4.2372 L 23.0988 6.1167 " stroke-width="0.23452769219875336"/>
    <path id="ID0.7735752793960273_1_" fill="#FFFFFF" stroke="#231F20" d="M 9.3479 9.2753 C 8.0869 11.2069 8.04 13.4119 9.2436 14.1983 C 10.4483 14.9854 12.4463 14.0555 13.7092 12.1225 C 14.9743 10.1904 15.0188 7.9871 13.8143 7.1995 C 12.6107 6.4134 10.6104 7.3423 9.3479 9.2753 L 9.3479 9.2753 Z " stroke-width="0.23452769219875336"/>
    <path id="ID0.19106501014903188_1_" fill="#231F20" d="M 9.5218 11.1119 C 9.5218 11.5775 9.8677 11.9555 10.2983 11.9555 C 10.7266 11.9555 11.0758 11.5775 11.0758 11.1119 C 11.0758 10.6462 10.7266 10.2672 10.2983 10.2672 C 9.8675 10.2672 9.5218 10.6459 9.5218 11.1119 " stroke-width="0.23452769219875336"/>
    <path id="ID0.06283409334719181_1_" fill="#FFFFFF" stroke="#231F20" d="M 19.6871 10.6785 C 18.4251 12.6105 18.5578 14.9319 19.981 15.8604 C 21.405 16.7917 23.5824 15.9777 24.8439 14.0456 C 26.1066 12.1136 25.9755 9.7932 24.5514 8.8628 C 23.1269 7.9329 20.95 8.7455 19.6871 10.6785 L 19.6871 10.6785 Z " stroke-width="0.23452769219875336"/>
    <path id="ID0.716460831463337_1_" fill="#231F20" d="M 20.3082 12.5677 C 20.3082 13.034 20.6546 13.412 21.0852 13.412 C 21.513 13.412 21.8624 13.0333 21.8624 12.5677 C 21.8624 12.1022 21.513 11.7237 21.0852 11.7237 C 20.6553 11.7237 20.3082 12.1022 20.3082 12.5677 " stroke-width="0.23452769219875336"/>
    <path id="ID0.5430324394255877_1_" fill="#5E4A42" stroke="#000000" d="M 14.5552 14.6922 C 13.7556 14.6922 12.5907 14.57 12.5295 14.9378 C 12.4676 15.3064 13.2667 16.7504 13.818 16.8116 C 14.3713 16.8731 16.4598 15.7968 16.49 15.1214 C 16.5219 14.4462 15.293 14.6922 14.5552 14.6922 L 14.5552 14.6922 Z " stroke-width="0.23452769219875336"/>
    <path id="ID0.5547774969600141_1_" fill="none" stroke="#231F20" stroke-width="0.22887848440831005" d="M 8.4386 20.7181 C 8.4386 20.7181 12.9089 21.4177 14.5578 21.749 C 16.2058 22.0802 19.1285 22.8357 19.1285 22.8357 C 19.1285 22.8357 16.6521 19.3654 12.6296 18.6979 C 8.6073 18.0296 8.2207 19.4215 8.4386 20.7181 L 8.4386 20.7181 Z "/>
  </g>
</svg>