<svg xmlns="http://www.w3.org/2000/svg" xmlns:xlink="http://www.w3.org/1999/xlink" version="1.1" width="68.89999847412109" height="70.28999786376953" viewBox="-0.65 -0.65 68.89999847412109 70.28999786376953">
  <!-- Exported by Scratch - http://scratch.mit.edu/ -->
  <g id="ID0.9428708590567112">
    <path id="ID0.6238556453026831" fill="#E6E6E6" stroke="#999999" d="M 57.040 29.140 C 57.560 32.890 54.480 37.440 50.100 37.040 C 45.960 36.650 41.780 35.100 41.260 31.350 C 40.740 27.600 43.840 24.060 48.200 23.450 C 52.560 22.840 56.520 25.390 57.040 29.140 Z " stroke-width="1"/>
    <path id="ID0.741514831315726" fill="#E6E6E6" stroke="#999999" d="M 50.880 11.090 C 56.520 13.520 58.590 18.240 56.200 22.250 C 52.880 27.800 43.820 31.120 39.710 28.480 C 35.600 25.840 37.090 19.230 40.170 14.430 C 43.250 9.630 46.400 9.160 50.880 11.090 Z " stroke-width="1"/>
    <path id="ID0.06401694379746914" fill="none" stroke="#FFFFFF" d="M 41.200 25.760 L 49.150 14.490 " stroke-width="1"/>
    <path id="ID0.26854713587090373" fill="none" stroke="#FFFFFF" d="M 46.650 18.250 L 51.860 18.560 " stroke-width="1"/>
    <path id="ID0.3364641419611871" fill="none" stroke="#FFFFFF" d="M 41.970 24.340 L 47.190 24.660 " stroke-width="1"/>
    <path id="ID0.7618541377596557" fill="none" stroke="#FFFFFF" d="M 42.410 15.440 L 45.600 19.320 " stroke-width="1"/>
    <path id="ID0.46066601760685444" fill="none" stroke="#FFFFFF" d="M 40.810 19.320 L 43.470 22.550 " stroke-width="1"/>
    <path id="ID0.8848401634022593" fill="none" stroke="#FFFFFF" d="M 44.490 21.240 L 52.440 21.730 " stroke-width="1"/>
    <path id="ID0.16902838787063956" fill="#E6E6E6" stroke="#999999" d="M 10.300 29.140 C 9.780 32.890 12.860 37.440 17.240 37.040 C 21.380 36.650 25.560 35.100 26.080 31.350 C 26.600 27.600 23.500 24.060 19.140 23.450 C 14.780 22.840 10.820 25.390 10.300 29.140 Z " stroke-width="1"/>
    <path id="ID0.405840833671391" fill="#E6E6E6" stroke="#999999" d="M 16.460 11.090 C 10.820 13.520 8.750 18.240 11.140 22.250 C 14.460 27.800 23.520 31.120 27.630 28.480 C 31.740 25.840 30.250 19.230 27.170 14.430 C 24.090 9.630 20.940 9.160 16.460 11.090 Z " stroke-width="1"/>
    <path id="ID0.5858048466034234" fill="none" stroke="#FFFFFF" d="M 26.140 25.760 L 18.190 14.490 " stroke-width="1"/>
    <path id="ID0.6939687351696193" fill="none" stroke="#FFFFFF" d="M 20.690 18.250 L 15.480 18.560 " stroke-width="1"/>
    <path id="ID0.9715944621711969" fill="none" stroke="#FFFFFF" d="M 25.370 24.340 L 20.150 24.660 " stroke-width="1"/>
    <path id="ID0.8322648722678423" fill="none" stroke="#FFFFFF" d="M 24.930 15.440 L 21.750 19.320 " stroke-width="1"/>
    <path id="ID0.90189996547997" fill="none" stroke="#FFFFFF" d="M 26.530 19.320 L 23.870 22.550 " stroke-width="1"/>
    <path id="ID0.128584164660424" fill="none" stroke="#FFFFFF" d="M 22.850 21.240 L 14.900 21.730 " stroke-width="1"/>
    <path id="ID0.5789128402248025" fill="#FCEE21" stroke="#000000" d="M 49.230 38.880 C 49.230 47.520 42.230 56.360 33.590 56.360 C 24.950 56.360 17.950 47.510 17.950 38.880 C 17.950 30.250 24.950 25.090 33.590 25.090 C 42.230 25.090 49.230 30.250 49.230 38.880 Z " stroke-width="1"/>
    <path id="ID0.9848352232947946" fill="#D9E021" stroke="#42210B" stroke-width="1.3" d="M 49.230 38.880 C 49.230 47.520 42.230 56.360 33.590 56.360 C 24.950 56.360 17.950 47.510 17.950 38.880 C 17.950 30.250 24.950 25.090 33.590 25.090 C 42.230 25.090 49.230 30.250 49.230 38.880 Z "/>
    <path id="ID0.06028846837580204" fill="#FCEE21" d="M 33.130 52.210 C 25.880 52.210 20.260 44.300 20.260 37.500 C 20.260 29.880 26.720 26.480 33.130 26.480 C 39.540 26.480 46 29.880 46 37.500 C 46 44.300 40.380 52.210 33.130 52.210 L 33.130 52.210 Z " stroke-width="1"/>
    <path id="ID0.6321170162409544" fill="none" stroke="#000000" d="M 38.200 53.560 L 40.810 57.980 " stroke-width="1"/>
    <path id="ID0.5595343909226358" fill="none" stroke="#000000" d="M 37.200 54.340 L 38.740 58.630 " stroke-width="1"/>
    <path id="ID0.7745169890113175" fill="none" stroke="#000000" d="M 39.690 53.040 L 42.410 56.490 " stroke-width="1"/>
    <path id="ID0.19728412758558989" fill="none" stroke="#000000" d="M 44.770 49.090 L 48.510 51.600 " stroke-width="1"/>
    <path id="ID0.260137720964849" fill="none" stroke="#000000" d="M 44.200 50.080 L 47 52.890 " stroke-width="1"/>
    <path id="ID0.9953672722913325" fill="none" stroke="#000000" d="M 45.830 48.120 L 49.320 49.830 " stroke-width="1"/>
    <path id="ID0.5738843693397939" fill="none" stroke="#000000" d="M 22.230 49.090 L 18.490 51.600 " stroke-width="1"/>
    <path id="ID0.9739556009881198" fill="none" stroke="#000000" d="M 22.800 50.080 L 20 52.890 " stroke-width="1"/>
    <path id="ID0.5938029605895281" fill="none" stroke="#000000" d="M 21.160 48.120 L 17.680 49.830 " stroke-width="1"/>
    <path id="ID0.7596845272928476" fill="none" stroke="#000000" d="M 29.440 53.560 L 26.830 57.980 " stroke-width="1"/>
    <path id="ID0.011545334942638874" fill="none" stroke="#000000" d="M 30.450 54.340 L 28.910 58.630 " stroke-width="1"/>
    <path id="ID0.19274576287716627" fill="none" stroke="#000000" d="M 27.950 53.040 L 25.240 56.490 " stroke-width="1"/>
    <path id="ID0.3587050945498049" fill="none" stroke="#000000" d="M 33.370 26.250 L 33.370 21.120 " stroke-width="1"/>
    <path id="ID0.5468815532512963" fill="none" stroke="#000000" d="M 32.110 26.090 L 31.260 21.610 " stroke-width="1"/>
    <path id="ID0.9237626176327467" fill="none" stroke="#000000" d="M 34.910 25.940 L 35.510 21.590 " stroke-width="1"/>
    <path id="ID0.5122443814761937" fill="#D9E021" d="M 25.7975 39.8007 C 26.3741 39.6621 26.9668 39.826 27.4578 40.2037 C 27.9484 40.5805 28.3382 41.1707 28.5099 41.8844 C 28.6815 42.598 28.6026 43.301 28.3368 43.8596 C 28.0713 44.4192 27.6179 44.8347 27.0413 44.9734 C 26.4647 45.112 25.872 44.948 25.3811 44.5703 C 24.8904 44.1936 24.5006 43.6034 24.329 42.8897 C 24.1574 42.176 24.2362 41.4731 24.502 40.9145 C 24.7675 40.3549 25.2209 39.9394 25.7975 39.8007 Z " stroke-width="1.000014856715954"/>
    <path id="ID0.022811229806393385" fill="#CDD41F" d="M 29.1006 29.1561 C 29.1637 29.4217 29.0117 29.7126 28.7144 29.9672 C 28.4181 30.2214 27.9767 30.4403 27.461 30.5627 C 26.9454 30.685 26.4527 30.6879 26.0737 30.5938 C 25.6938 30.5 25.4273 30.3083 25.3643 30.0427 C 25.3013 29.7771 25.4532 29.4861 25.7505 29.2316 C 26.0468 28.9773 26.4882 28.7585 27.0039 28.6361 C 27.5196 28.5137 28.0122 28.5109 28.3912 28.605 C 28.7711 28.6988 29.0376 28.8904 29.1006 29.1561 Z " stroke-width="1.000021896057529"/>
    <path id="ID0.7858160245232284" fill="#CDD41F" d="M 42.0902 45.3588 C 42.5544 45.5363 42.898 45.8978 43.0773 46.339 C 43.2579 46.7795 43.2752 47.3 43.0859 47.7951 C 42.8966 48.2902 42.5365 48.6664 42.1081 48.8741 C 41.6803 49.0831 41.1831 49.1233 40.7189 48.9458 C 40.2546 48.7683 39.9111 48.4068 39.7318 47.9656 C 39.5512 47.5251 39.5339 47.0046 39.7231 46.5095 C 39.9124 46.0144 40.2725 45.6382 40.7009 45.4305 C 41.1288 45.2215 41.6259 45.1814 42.0902 45.3588 Z " stroke-width="1.0000315871198502"/>
    <path id="ID0.012329132296144962" fill="#D9E021" d="M 39.0435 31.017 C 38.9788 31.4674 38.6221 31.8333 38.0977 32.059 C 37.5731 32.2856 36.8806 32.373 36.1462 32.2674 C 35.4118 32.1618 34.7719 31.8829 34.3325 31.5177 C 33.8928 31.1534 33.6537 30.7018 33.7184 30.2515 C 33.7832 29.8011 34.1399 29.4351 34.6643 29.2095 C 35.1889 28.9828 35.8813 28.8955 36.6158 29.0011 C 37.3502 29.1067 37.99 29.3855 38.4295 29.7508 C 38.8691 30.115 39.1083 30.5667 39.0435 31.017 Z " stroke-width="0.9999766405810724"/>
    <path id="ID0.2555413921363652" fill="none" d="M 0 0 L 67.600 0 L 67.600 68.990 L 0 68.990 L 0 0 Z " stroke-width="1"/>
    <path id="ID0.18740348983556032" fill="#FFFFFF" stroke="#000000" d="M 45.250 35.170 C 45.250 38.620 42.450 41.420 39 41.420 C 35.550 41.420 33.750 38.620 33.750 35.170 C 33.750 31.720 35.550 28.920 39 28.920 C 42.450 28.920 45.250 31.710 45.250 35.170 Z " stroke-width="1"/>
    <path id="ID0.3573734648525715" d="M 39 34.170 C 39.276 34.170 39.526 34.282 39.707 34.463 C 39.888 34.644 40 34.894 40 35.170 C 40 35.446 39.888 35.696 39.707 35.877 C 39.526 36.058 39.276 36.170 39 36.170 C 38.724 36.170 38.474 36.058 38.293 35.877 C 38.112 35.696 38 35.446 38 35.170 C 38 34.894 38.112 34.644 38.293 34.463 C 38.474 34.282 38.724 34.170 39 34.170 Z " stroke-width="1" />
    <path id="ID0.46293607261031866" fill="#FFFFFF" stroke="#000000" d="M 33.250 35.170 C 33.250 38.620 31.450 41.420 28 41.420 C 24.550 41.420 21.750 38.620 21.750 35.170 C 21.750 31.720 24.550 28.920 28 28.920 C 31.450 28.920 33.250 31.710 33.250 35.170 Z " stroke-width="1"/>
    <path id="ID0.08563837176188827" d="M 28 34.170 C 28.276 34.170 28.526 34.282 28.707 34.463 C 28.888 34.644 29 34.894 29 35.170 C 29 35.446 28.888 35.696 28.707 35.877 C 28.526 36.058 28.276 36.170 28 36.170 C 27.724 36.170 27.474 36.058 27.293 35.877 C 27.112 35.696 27 35.446 27 35.170 C 27 34.894 27.112 34.644 27.293 34.463 C 27.474 34.282 27.724 34.170 28 34.170 Z " stroke-width="1" />
    <path id="ID0.6864442331716418" fill="none" stroke="#000000" d="M 29.500 50.090 C 29.500 48.590 37.730 48.590 37.730 50.090 " stroke-width="1"/>
  </g>
</svg>