<svg version="1.1" xmlns="http://www.w3.org/2000/svg" xmlns:xlink="http://www.w3.org/1999/xlink" width="497.71772" height="157.09215" viewBox="0,0,497.71772,157.09215"><g transform="translate(8.10811,-200.73367)"><g data-paper-data="{&quot;isPaintingLayer&quot;:true}" fill="#000000" fill-rule="nonzero" stroke="none" stroke-width="1" stroke-linecap="butt" stroke-linejoin="miter" stroke-miterlimit="10" stroke-dasharray="" stroke-dashoffset="0" style="mix-blend-mode: normal"><path d="M291.8057,200.73367h1.04987l0.03888,6.68808c0,3.694 0.15554,12.67625 0.31107,19.94759c0.31107,12.7929 0.31107,13.22063 -0.42773,14.23162c-0.77768,1.01099 -0.77768,1.39983 -0.34996,22.74726c0.23331,11.97633 0.42773,30.09637 0.42773,40.28403c0,18.78107 0.11665,20.53086 1.43872,20.53086c0.27219,0 0.50549,0.34996 0.50549,0.81657c0,0.62215 0.15554,0.7388 0.81657,0.54438c0.50549,-0.15554 0.93322,-0.07777 1.12764,0.15554c0.19442,0.31107 0.54438,0.34996 1.28318,0.07777c1.04987,-0.38884 1.04987,-0.38884 1.04987,1.28318c0,1.86644 0.42773,2.17752 2.9552,2.17752c1.20541,0 1.24429,-0.07777 2.4497,-3.49958c0.66103,-1.94421 1.12764,-3.694 1.01099,-3.88842c-0.11665,-0.19442 0.11665,-0.54438 0.54438,-0.7388c1.43872,-0.77768 6.84362,-12.36517 8.71006,-18.7033c1.74979,-5.9104 1.98309,-7.66019 1.98309,-14.97042c-0.03888,-5.75486 -1.12764,-22.00846 -2.29417,-34.06256c-0.19442,-2.06086 -0.15554,-2.2164 0.66103,-2.4497c0.50549,-0.11665 1.36095,-0.23331 1.90533,-0.23331c1.24429,0 1.51648,-0.58326 1.51648,-3.30516c0,-1.90533 0.11665,-2.13863 1.39983,-3.1885l1.36095,-1.08876l-0.42773,-4.86052l-0.42773,-4.86052l1.51648,-1.36095c2.13863,-1.86644 2.52747,-2.79966 2.29417,-5.4049c-0.11665,-1.20541 -0.07777,-4.97718 0.03888,-8.39899l0.27219,-6.22147l0.54438,8.82671c0.50549,7.93238 0.62215,8.8656 1.24429,8.8656c0.89434,0 1.12764,0.77768 1.12764,3.81065c0,2.41082 0.07777,2.64413 1.39983,4.00507c1.12764,1.16653 1.43872,1.82756 1.7109,3.88842c0.19442,1.36095 0.38884,3.61623 0.38884,5.01606c0.03888,3.53846 0.46661,5.1716 2.13863,7.58242l1.4776,2.09975l0.19442,10.03212c0.07777,5.52156 0.31107,10.22654 0.50549,10.45985c0.19442,0.23331 1.94421,1.08876 3.84954,1.90533c1.94421,0.81657 3.46069,1.51648 3.38293,1.59425c-0.07777,0.07777 -1.67202,-0.46661 -3.57735,-1.24429c-2.68301,-1.08876 -3.49958,-1.28318 -3.73288,-0.85545c-0.19442,0.27219 -0.27219,0.7388 -0.15554,1.01099c0.11665,0.31107 0.19442,1.16653 0.19442,1.98309v1.43872l6.6492,3.26627l6.68808,3.26627l1.4776,-0.85545c1.82756,-1.04987 2.02198,-0.85545 0.27219,0.27219l-1.28318,0.77768l2.33305,1.01099c1.24429,0.58326 2.68301,0.9721 3.14962,0.85545c0.54438,-0.07777 0.81657,0 0.69992,0.31107c-0.19442,0.46661 1.04987,1.16653 3.46069,2.09975c0.89434,0.34996 1.12764,0.27219 1.59425,-0.46661c0.77768,-1.16653 1.36095,-3.96619 0.9721,-4.58834c-0.23331,-0.42773 -0.58326,-0.38884 -1.78867,0.19442c-1.43872,0.69992 -1.4776,0.69992 -0.77768,-0.03888c0.34996,-0.42773 0.66103,-0.85545 0.66103,-0.9721c0,-0.11665 -0.9721,-0.62215 -2.17752,-1.08876c-2.09975,-0.85545 -2.2164,-0.89434 -3.38293,-0.23331l-1.24429,0.66103l0.89434,-0.77768l0.89434,-0.77768l-1.86644,-0.81657c-1.01099,-0.46661 -2.9552,-1.28318 -4.31615,-1.82756c-1.36095,-0.54438 -2.37194,-1.04987 -2.29417,-1.12764c0.07777,-0.11665 2.06086,0.62215 4.35503,1.59425c2.29417,0.9721 4.47168,1.74979 4.78276,1.74979c0.31107,0 1.86644,-0.81657 3.46069,-1.82756l2.87743,-1.82756l-0.27219,-9.95435l-0.27219,-9.91547l1.39983,-1.63314l1.36095,-1.63314l0.27219,-6.76585l0.27219,-6.72697l1.36095,-0.93322l1.36095,-0.93322l-0.11665,-3.49958c-0.15554,-3.30516 -0.11665,-3.53846 0.62215,-3.65511c0.7388,-0.11665 0.77768,-0.38884 0.77768,-8.24345c0,-4.51057 0.11665,-8.16568 0.23331,-8.16568c0.42773,0 0.69992,2.87743 0.9721,9.91547l0.27219,6.61031l1.74979,2.13863l1.7109,2.13863l-0.23331,3.9273l-0.27219,3.96619l1.55537,0.89434c1.55537,0.85545 1.59425,0.89434 1.59425,3.11074c0,3.30516 0.11665,3.46069 2.60524,3.46069h2.13863l-0.23331,4.93829c-0.11665,2.76078 -0.34996,8.51564 -0.46661,12.87067l-0.23331,7.85461l2.06086,0.93322c3.73288,1.63314 53.69908,21.69738 57.43196,23.01944c1.98309,0.7388 4.23838,1.32206 4.93829,1.32206c0.81657,0 1.36095,0.19442 1.39983,0.46661c0,0.38884 0.07777,0.38884 0.19442,0.03888c0.11665,-0.27219 1.24429,-0.58326 2.52747,-0.7388c1.24429,-0.15554 2.29417,-0.42773 2.29417,-0.62215c0,-0.19442 0.38884,-0.11665 0.85545,0.11665c0.46661,0.27219 2.25528,0.42773 4.19949,0.38884l3.38293,-0.07777l0.31107,1.67202c0.23331,1.24429 0.34996,1.4776 0.54438,0.89434c0.11665,-0.42773 0.31107,0.54438 0.42773,2.13863l0.19442,2.91631l3.88842,1.63314c2.13863,0.89434 4.08284,1.63314 4.31615,1.63314c0.31107,0.03888 0.42773,-1.43872 0.31107,-5.13271c-0.07777,-2.79966 0,-4.70499 0.15554,-4.16061c0.27219,0.85545 0.34996,0.89434 0.58326,0.27219c0.15554,-0.38884 0.27219,-1.16653 0.27219,-1.67202c0,-0.50549 0.19442,-0.93322 0.38884,-0.93322c0.23331,0 0.38884,0.62215 0.38884,1.36095c0,1.32206 0.77768,1.90533 1.36095,0.9721c0.11665,-0.23331 0.03888,-0.38884 -0.23331,-0.38884c-0.31107,0 -0.31107,-0.15554 0.07777,-0.62215c0.38884,-0.50549 0.38884,-0.66103 -0.03888,-0.93322c-0.38884,-0.23331 -0.11665,-0.38884 0.81657,-0.54438c0.7388,-0.11665 1.94421,-0.31107 2.68301,-0.42773c0.7388,-0.11665 1.63314,-0.19442 1.94421,-0.19442c5.13271,0.19442 4.78276,0.07777 5.13271,1.4776c0.31107,1.08876 0.42773,1.24429 0.89434,0.85545c0.42773,-0.34996 0.58326,-0.34996 0.58326,-0.03888c0,0.69992 0.69992,0.50549 0.85545,-0.27219c0.07777,-0.34996 0.27219,3.1885 0.42773,7.89349c0.23331,6.84362 0.42773,8.67118 0.89434,9.13779c0.50549,0.50549 0.58326,0.11665 0.46661,-3.96619l-0.11665,-4.54945l1.12764,-0.19442c0.62215,-0.11665 1.36095,-0.23331 1.63314,-0.23331c0.46661,0 0.54438,3.46069 0.54438,21.19189v21.19189h-248.85886h-248.85886v-6.72697l0.03888,-6.68808l1.20541,-1.32206l1.20541,-1.36095l1.67202,1.82756c0.89434,1.01099 1.86644,2.37194 2.17752,2.99408c0.31107,0.7388 0.69992,1.08876 1.04987,0.9721c0.27219,-0.11665 0.7388,-0.03888 1.01099,0.19442c0.38884,0.31107 0.69992,0.15554 1.20541,-0.7388c0.66103,-1.12764 0.85545,-1.20541 3.14962,-1.20541c1.90533,0 2.4497,0.11665 2.4497,0.58326c0,0.34996 0.23331,0.46661 0.62215,0.31107c0.34996,-0.11665 0.77768,0 1.01099,0.31107c0.31107,0.42773 0.31107,0.38884 0.15554,-0.19442c-0.38884,-1.20541 0.11665,-2.17752 1.16653,-2.17752c0.77768,0 0.93322,0.19442 0.93322,1.12764c0,1.82756 0.62215,1.74979 1.32206,-0.15554c0.54438,-1.32206 0.69992,-3.22739 0.77768,-8.47675c0.03888,-4.78276 0.19442,-6.96027 0.54438,-7.388c0.27219,-0.34996 1.51648,-0.69992 2.83855,-0.85545c1.28318,-0.15554 2.56636,-0.50549 2.87743,-0.81657c0.31107,-0.34996 1.36095,-0.54438 2.60524,-0.54438c1.90533,0 2.2164,-0.11665 2.9552,-1.16653c0.50549,-0.66103 1.20541,-1.16653 1.63314,-1.16653c0.62215,0 0.77768,-0.27219 0.85545,-1.28318l0.03888,-1.24429l0.15554,1.20541c0.11665,0.89434 0.42773,1.32206 1.01099,1.4776c1.86644,0.50549 1.82756,0.77768 1.82756,-9.02113l0.03888,-9.21555l1.32206,-0.62215c0.89434,-0.42773 1.36095,-0.50549 1.39983,-0.19442c0,0.27219 0.07777,0.23331 0.23331,-0.07777c0.11665,-0.31107 1.20541,-0.46661 3.46069,-0.46661h3.30516l0.58326,-1.36095c0.54438,-1.36095 0.58326,-1.36095 2.99408,-1.36095h2.4497v-2.91631c0,-2.68301 0.07777,-2.99408 1.04987,-3.9273c0.58326,-0.50549 1.04987,-1.12764 1.04987,-1.32206c0,-0.23331 0.85545,-0.38884 1.90533,-0.38884c2.33305,0 3.9273,-0.54438 3.9273,-1.36095c0,-0.46661 0.54438,-0.58326 2.72189,-0.58326h2.72189l0.27219,-1.20541l0.23331,-1.24429l3.49958,0.23331c1.90533,0.11665 3.65511,0.38884 3.81065,0.54438c0.19442,0.19442 0.38884,8.90448 0.42773,19.36433c0.03888,10.49873 0.15554,22.24176 0.23331,26.16906l0.11665,7.07692h0.93322c0.54438,0 0.9721,0.15554 0.9721,0.38884c0,0.19442 0.27219,0.38884 0.62215,0.38884c0.31107,0 0.46661,-0.19442 0.34996,-0.38884c-0.11665,-0.23331 -0.07777,-0.38884 0.15554,-0.38884c0.19442,0 0.46661,0.23331 0.58326,0.46661c0.11665,0.38884 0.34996,0.31107 0.7388,-0.15554c0.62215,-0.77768 1.4776,-0.93322 1.32206,-0.27219c-0.03888,0.23331 0.15554,0.54438 0.42773,0.62215c0.23331,0.11665 0.46661,-0.07777 0.46661,-0.38884c0,-0.34996 0.50549,-0.62215 1.36095,-0.7388c1.01099,-0.11665 1.36095,0 1.36095,0.42773c0,0.31107 0.11665,0.42773 0.31107,0.27219c0.34996,-0.34996 0.34996,-0.46661 0.42773,-3.30516c0.03888,-1.94421 0.15554,-2.37194 0.81657,-2.56636c0.42773,-0.15554 0.77768,-0.58326 0.77768,-1.01099c0,-0.42773 -0.15554,-0.66103 -0.38884,-0.54438c-0.19442,0.11665 -0.38884,0.03888 -0.38884,-0.15554c0,-0.50549 0.34996,-0.54438 2.79966,-0.42773c1.63314,0.07777 1.82756,-0.03888 1.94421,-0.85545c0.07777,-0.66103 0.42773,-0.93322 1.39983,-1.08876l1.32206,-0.19442l0.15554,-16.09806c0.11665,-10.88758 0.31107,-16.29248 0.58326,-16.64244c0.27219,-0.27219 0.7388,-0.50549 1.08876,-0.50549c0.34996,0 0.81657,-0.31107 1.08876,-0.7388c0.31107,-0.50549 1.08876,-0.77768 2.87743,-0.93322c1.59425,-0.11665 2.60524,-0.42773 2.91631,-0.85545c0.38884,-0.54438 0.46661,-0.54438 0.69992,0c0.31107,0.89434 1.78867,0.7388 1.78867,-0.19442c0,-0.62215 0.27219,-0.77768 1.20541,-0.77768c0.85545,0 1.24429,-0.19442 1.39983,-0.77768c0.27219,-1.04987 1.32206,-1.28318 4.62722,-0.9721l2.87743,0.27219v13.33728c0,9.21555 0.11665,13.45393 0.42773,13.64835c0.31107,0.15554 0.31107,0.34996 0,0.66103c-0.46661,0.46661 -0.54438,7.81572 -0.11665,8.94337c0.27219,0.62215 0.38884,0.58326 1.36095,-0.42773c1.24429,-1.32206 2.87743,-1.28318 3.38293,0.07777c0.27219,0.7388 0.34996,0.69992 0.89434,-0.66103c0.58326,-1.36095 1.24429,-4.00507 2.25528,-9.21555c0.23331,-1.16653 0.31107,-3.11074 0.19442,-4.27726c-0.11665,-1.16653 -0.31107,-4.23838 -0.38884,-6.80473c-0.07777,-2.56636 -0.27219,-7.77684 -0.42773,-11.58749c-0.27219,-6.37701 -0.27219,-6.8825 0.34996,-6.8825c0.38884,0 0.77768,-0.34996 0.89434,-0.77768c0.11665,-0.42773 0.77768,-0.93322 1.51648,-1.16653l1.32206,-0.46661l-0.19442,-2.17752c-0.11665,-1.20541 -0.31107,-2.83855 -0.38884,-3.57735c-0.15554,-1.20541 0,-1.51648 1.16653,-2.4497c1.36095,-1.08876 1.36095,-1.08876 1.43872,-4.47168l0.07777,-3.38293l0.11665,2.83855c0.15554,2.60524 0.23331,2.87743 1.08876,3.1885c0.89434,0.34996 0.9721,0.58326 0.9721,2.83855c0,1.98309 0.15554,2.64413 0.7388,3.14962c0.42773,0.38884 0.89434,1.20541 1.01099,1.82756c0.15554,0.66103 0.50549,1.12764 0.85545,1.12764c0.54438,0 0.58326,0.46661 0.38884,3.26627c-0.19442,2.87743 -0.15554,3.34404 0.50549,3.9273c0.54438,0.50549 0.77768,1.32206 0.85545,3.07185c0.11665,2.29417 0.15554,2.37194 1.24429,2.48859c0.7388,0.07777 1.24429,-0.07777 1.4776,-0.46661c0.19442,-0.34996 0.62215,-0.62215 0.93322,-0.62215c0.31107,0 1.55537,-0.46661 2.72189,-1.01099c2.13863,-1.01099 2.41082,-1.01099 6.02705,-0.31107l1.04987,0.19442l0.15554,11.97633c0.11665,9.25444 0.27219,12.17075 0.66103,12.63736c0.34996,0.42773 0.38884,0.62215 0.07777,0.62215c-0.31107,0 -0.42773,1.12764 -0.34996,3.77177c0.11665,3.30516 0.19442,3.81065 0.81657,3.9273c0.66103,0.11665 0.69992,-0.19442 0.58326,-4.54945c-0.11665,-4.47168 -0.07777,-4.70499 0.66103,-4.70499c0.7388,0 0.77768,0.23331 0.66103,3.73288l-0.11665,3.694l2.64413,-0.07777c2.56636,-0.07777 2.64413,-0.07777 2.64413,0.85545c0,0.81657 0.23331,0.93322 1.4776,1.04987c0.93322,0.07777 1.51648,-0.03888 1.63314,-0.38884c0.11665,-0.27219 0.03888,-26.48014 -0.15554,-58.24853c-0.19442,-37.28994 -0.19442,-58.01522 0.07777,-58.48183c0.19442,-0.38884 0.81657,-1.16653 1.39983,-1.67202c0.81657,-0.7388 1.32206,-0.85545 2.4497,-0.69992l1.43872,0.19442l0.23331,-1.7109c0.19442,-1.20541 0.62215,-2.06086 1.51648,-2.91631l1.24429,-1.20541l12.59848,0.42773c6.96027,0.23331 12.87067,0.46661 13.14286,0.58326c0.34996,0.11665 0.46661,11.00423 0.46661,52.72697c0,49.694 0.23331,62.64244 1.12764,66.41421c0.19442,0.7388 0.34996,1.12764 0.38884,0.85545c0.03888,-0.34996 0.31107,-0.42773 0.81657,-0.27219c0.42773,0.11665 0.77768,0.11665 0.77768,-0.07777c0,-0.38884 2.4497,-0.42773 2.72189,-0.03888c0.11665,0.15554 0.66103,0.03888 1.16653,-0.19442c0.77768,-0.38884 1.16653,-0.38884 1.94421,0c1.08876,0.58326 1.94421,0.66103 1.94421,0.19442c0,-0.54438 -0.89434,-1.24429 -1.63314,-1.24429c-0.38884,0 -0.69992,-0.27219 -0.69992,-0.58326c0,-0.7388 -1.55537,-1.36095 -3.34404,-1.36095c-0.93322,0 -1.32206,-0.15554 -1.24429,-0.50549c0.11665,-0.31107 1.32206,-0.54438 3.46069,-0.66103l3.26627,-0.19442l0.27219,-2.72189c1.24429,-11.54861 1.20541,-37.28994 -0.03888,-65.71429c-0.42773,-10.07101 -0.81657,-20.56974 -0.81657,-23.3694v-5.09383l1.55537,-1.04987c1.12764,-0.7388 2.02198,-1.01099 3.42181,-1.01099c1.86644,0 1.86644,0 1.7109,-1.12764c-0.11665,-0.93322 0.07777,-1.24429 1.63314,-2.29417l1.78867,-1.20541l11.54861,0.34996c6.37701,0.19442 11.62637,0.34996 11.62637,0.34996c0.50549,0.19442 0.66103,10.22654 0.89434,53.50465c0.15554,28.22993 0.42773,51.63821 0.58326,51.98817c0.38884,0.81657 2.52747,1.4776 4.86052,1.4776h1.67202l-0.27219,-45.0279l-0.31107,-45.0279l1.04987,-0.69992c0.58326,-0.38884 2.25528,-0.89434 3.65511,-1.16653c2.17752,-0.38884 2.64413,-0.62215 2.72189,-1.32206c0.07777,-0.46661 0.77768,-1.20541 1.55537,-1.7109c1.28318,-0.77768 1.94421,-0.89434 5.9104,-0.89434h4.47168l-0.11665,-11.93745l-0.11665,-11.93745l1.08876,-0.27219c1.59425,-0.38884 4.47168,-1.90533 7.31023,-3.81065l2.4497,-1.7109l6.57143,-0.27219c3.57735,-0.15554 8.39899,-0.19442 10.65427,-0.07777c2.25528,0.11665 4.35503,0.03888 4.6661,-0.15554c0.31107,-0.19442 1.01099,-0.34996 1.63314,-0.34996zM360.98069,283.16817c-0.27219,0 -4.70499,2.56636 -5.09383,2.9552c-0.31107,0.27219 4.35503,2.13863 4.86052,1.94421c0.38884,-0.15554 0.54438,-0.93322 0.54438,-2.56636c0,-1.28318 -0.15554,-2.33305 -0.31107,-2.33305zM379.99506,283.16817c-0.27219,0 -0.42773,0.93322 -0.42773,2.29417v2.25528l3.22739,1.4776c14.07608,6.37701 52.88251,23.52494 53.31023,23.52494c0.11665,0 0.23331,-0.9721 0.23331,-2.13863c0,-2.06086 0.42773,-2.79966 0.93322,-1.51648c0.11665,0.34996 0.23331,1.4776 0.23331,2.52747v1.94421l2.13863,0.93322c2.02198,0.89434 3.30516,0.93322 3.30516,0.11665c0,-0.19442 -0.15554,-0.27219 -0.34996,-0.15554c-0.19442,0.11665 -0.42773,-0.42773 -0.58326,-1.24429c-0.34996,-2.29417 -0.31107,-2.83855 0.38884,-2.72189c0.34996,0.07777 0.81657,-0.19442 1.08876,-0.58326c0.34996,-0.58326 0.27219,-0.77768 -0.34996,-1.12764c-0.42773,-0.27219 -0.85545,-0.42773 -0.93322,-0.34996c-0.07777,0.03888 -0.27219,-0.03888 -0.38884,-0.23331c-0.11665,-0.19442 -3.30516,-1.59425 -7.03804,-3.11074c-3.73288,-1.51648 -17.49789,-7.03804 -30.60186,-12.32629c-13.06509,-5.24937 -23.95267,-9.56551 -24.18597,-9.56551zM335.58931,284.33469c-0.62215,0 -0.19442,4.04396 0.54438,5.1716c0.31107,0.46661 1.82756,1.51648 3.38293,2.37194c2.48859,1.32206 2.91631,1.43872 3.81065,1.01099c1.01099,-0.42773 1.01099,-0.42773 0.38884,0.27219c-0.66103,0.69992 -0.58326,0.77768 1.78867,1.94421l2.4497,1.20541l1.32206,-0.77768l1.32206,-0.81657l-1.12764,0.9721l-1.12764,0.93322l2.52747,1.32206l2.52747,1.32206l2.60524,-1.86644c1.39983,-1.01099 2.56636,-1.94421 2.56636,-2.09975c0,-0.15554 -0.9721,-0.77768 -2.17752,-1.36095l-2.17752,-1.08876l-1.43872,0.81657c-1.28318,0.7388 -1.32206,0.7388 -0.50549,0.03888c0.46661,-0.42773 0.85545,-0.85545 0.85545,-0.9721c0,-0.11665 -1.01099,-0.7388 -2.25528,-1.36095c-2.09975,-1.04987 -2.29417,-1.08876 -3.38293,-0.54438c-1.04987,0.50549 -1.08876,0.50549 -0.42773,-0.03888c0.42773,-0.34996 0.66103,-0.69992 0.58326,-0.81657c-0.11665,-0.07777 -2.76078,-1.39983 -5.9104,-2.91631c-3.11074,-1.4776 -5.87151,-2.72189 -6.1437,-2.72189zM379.80064,288.61196c-0.54438,0 -0.81657,3.77177 -0.31107,4.51057c0.7388,1.08876 19.05326,10.38208 30.40744,15.39814c6.26036,2.79966 26.13018,10.84869 26.28572,10.69315c0.07777,-0.07777 0.23331,-1.08876 0.38884,-2.25528c0.15554,-1.4776 0.07777,-2.29417 -0.31107,-2.76078c-0.46661,-0.62215 -9.44886,-4.74387 -42.38377,-19.40321c-7.66019,-3.38293 -13.95943,-6.18259 -14.07608,-6.18259zM337.22244,291.33385c-0.23331,0 -0.15554,0.7388 0.15554,1.82756c0.31107,1.04987 0.58326,2.02198 0.58326,2.17752c0,0.19442 0.38884,0.19442 0.89434,0.03888c0.81657,-0.23331 0.81657,-0.23331 0.19442,0.50549c-0.62215,0.69992 -0.62215,0.81657 -0.07777,1.63314c0.34996,0.46661 1.16653,1.20541 1.82756,1.59425c1.08876,0.66103 1.28318,0.66103 2.37194,0.15554l1.20541,-0.58326l-0.89434,0.7388l-0.93322,0.69992l1.51648,1.01099c2.64413,1.82756 3.38293,2.02198 4.62722,1.28318l1.12764,-0.66103l-0.9721,0.85545l-0.9721,0.85545l0.93322,0.66103c0.50549,0.34996 1.59425,1.01099 2.37194,1.4776l1.4776,0.89434l2.56636,-1.98309c1.39983,-1.08876 2.56636,-2.13863 2.56636,-2.25528c0,-0.15554 -1.04987,-0.77768 -2.33305,-1.39983l-2.29417,-1.08876l-1.67202,1.04987l-1.67202,1.04987l1.28318,-1.08876c0.69992,-0.58326 1.24429,-1.20541 1.24429,-1.36095c0,-0.38884 -4.51057,-2.64413 -4.78276,-2.41082c-0.11665,0.11665 -0.58326,-0.15554 -1.01099,-0.58326c-1.20541,-1.20541 -3.88842,-2.4497 -4.74387,-2.17752c-0.54438,0.19442 -0.66103,0.11665 -0.50549,-0.34996c0.15554,-0.38884 -0.34996,-0.85545 -1.74979,-1.55537c-1.08876,-0.54438 -2.13863,-1.01099 -2.33305,-1.01099zM54.88429,293.47248c0,0.42773 0.42773,0.58326 1.55537,0.58326c1.67202,0 2.09975,-0.54438 0.69992,-0.93322c-1.4776,-0.38884 -2.25528,-0.27219 -2.25528,0.34996zM380.03394,294.44459c-0.77768,0 0.07777,1.86644 1.01099,2.33305c3.11074,1.39983 13.41505,5.48267 13.5317,5.32713c0.11665,-0.07777 -3.07185,-1.82756 -6.99916,-3.9273c-3.96619,-2.06086 -7.34911,-3.73288 -7.54353,-3.73288zM359.4642,295.65c-0.62215,0.03888 -5.1716,3.30516 -5.1716,3.694c0,0.42773 3.77177,2.37194 4.00507,2.06086c0.23331,-0.23331 1.43872,-4.82164 1.43872,-5.32713c0,-0.27219 -0.11665,-0.46661 -0.27219,-0.42773zM381.04493,297.55532c-0.42773,0 -0.38884,0.81657 0.07777,2.17752c0.31107,0.89434 1.51648,1.78867 5.48267,4.16061c3.77177,2.29417 5.1716,2.9552 5.56044,2.64413c0.58326,-0.46661 1.01099,-0.19442 1.01099,0.69992c0,1.12764 15.67033,10.07101 25.27473,14.42604c4.78276,2.17752 9.56551,4.16061 10.5765,4.39391c1.01099,0.27219 1.86644,0.58326 1.86644,0.7388c0,0.19442 0.27219,0.31107 0.58326,0.31107c0.31107,0 0.58326,-0.19442 0.58326,-0.38884c0,-0.23331 0.46661,-0.38884 1.01099,-0.38884c0.54438,0 0.85545,0.15554 0.7388,0.38884c-0.23331,0.38884 1.63314,1.01099 2.02198,0.62215c0.11665,-0.11665 0,-0.46661 -0.27219,-0.81657c-0.38884,-0.46661 -0.38884,-0.58326 0.11665,-0.58326c0.81657,0 1.08876,-2.17752 0.31107,-2.87743c-0.89434,-0.77768 -26.44125,-13.64835 -32.50719,-16.37025c-2.76078,-1.24429 -8.90448,-3.81065 -13.57058,-5.67709c-4.70499,-1.90533 -8.67118,-3.46069 -8.8656,-3.46069zM339.67215,299.73284c0.11665,0.34996 0.23331,0.77768 0.23331,0.9721c0,0.23331 0.34996,0.19442 0.85545,-0.07777c0.81657,-0.42773 0.81657,-0.46661 0.11665,-0.9721c-0.9721,-0.7388 -1.51648,-0.69992 -1.20541,0.07777zM340.87756,303.85456c0.85545,2.60524 1.04987,2.79966 2.17752,2.29417l0.93322,-0.46661l-0.85545,0.66103c-0.50549,0.34996 -0.89434,0.85545 -0.89434,1.12764c0,0.58326 3.38293,3.694 3.96619,3.694c0.23331,0 1.12764,-0.54438 2.02198,-1.20541l1.59425,-1.20541l-1.51648,1.36095c-0.81657,0.7388 -1.39983,1.51648 -1.28318,1.7109c0.15554,0.23331 1.20541,1.12764 2.41082,2.06086l2.13863,1.63314l1.36095,-1.01099c1.43872,-1.08876 2.91631,-3.57735 2.91631,-4.82164c0,-0.46661 -0.62215,-1.04987 -1.7109,-1.63314l-1.67202,-0.89434l-1.32206,0.89434l-1.32206,0.89434l1.08876,-1.16653l1.08876,-1.20541l-2.29417,-1.39983c-1.28318,-0.77768 -2.48859,-1.39983 -2.72189,-1.39983c-0.23331,0 -0.46661,-0.15554 -0.54438,-0.31107c-0.03888,-0.19442 -0.93322,-0.89434 -1.94421,-1.55537c-3.22739,-2.2164 -4.70499,-1.43872 -3.61623,1.94421zM382.32811,303.93233c0.38884,1.39983 0.62215,1.59425 4.16061,3.22739c5.56044,2.60524 5.52156,2.60524 5.52156,1.51648c0,-0.69992 -0.77768,-1.36095 -4.16061,-3.42181c-6.61031,-4.00507 -6.26036,-3.9273 -5.52156,-1.32206zM357.44223,303.38795c-0.27219,0 -4.31615,3.07185 -4.31615,3.30516c0,0.15554 2.52747,1.74979 2.79966,1.74979c0.31107,0 1.08876,-2.02198 1.4776,-3.65511c0.15554,-0.77768 0.19442,-1.39983 0.03888,-1.39983zM479.73302,306.10984c-0.11665,0 -0.31107,0.15554 -0.42773,0.38884c-0.11665,0.19442 -0.03888,0.38884 0.15554,0.38884c0.23331,0 0.42773,-0.19442 0.42773,-0.38884c0,-0.23331 -0.07777,-0.38884 -0.15554,-0.38884zM383.45575,307.00418c0.03888,1.67202 1.67202,3.77177 4.78276,6.22147c3.22739,2.52747 4.51057,3.11074 4.58834,2.09975c0,-0.23331 0.23331,0.07777 0.46661,0.77768c0.77768,2.06086 11.8208,10.3432 14.50381,10.84869c0.69992,0.11665 1.36095,0.46661 1.4776,0.77768c0.31107,0.77768 1.32206,0.66103 1.78867,-0.23331c0.50549,-0.93322 2.06086,-1.08876 1.7109,-0.19442c-0.19442,0.42773 0.03888,0.58326 0.9721,0.58326c1.28318,0 1.63314,-0.62215 0.54438,-0.89434c-0.38884,-0.11665 0.66103,-0.19442 2.33305,-0.23331c2.41082,-0.03888 2.99408,0.07777 2.99408,0.54438c0,0.38884 0.38884,0.58326 1.16653,0.58326c1.20541,0 1.55537,-0.50549 0.69992,-1.01099c-0.31107,-0.19442 -0.27219,-0.34996 0.19442,-0.50549c1.36095,-0.50549 -11.74303,-7.93238 -22.35841,-12.71513c-5.28825,-2.37194 -5.56044,-2.4497 -5.9104,-1.7109c-0.50549,1.12764 -1.01099,0.9721 -1.28318,-0.42773c-0.19442,-0.93322 -0.62215,-1.39983 -2.48859,-2.33305c-3.73288,-1.86644 -6.18259,-2.76078 -6.18259,-2.17752zM453.83615,307.27637c-0.19442,0 -0.38884,0.15554 -0.38884,0.38884c0,0.19442 0.19442,0.38884 0.38884,0.38884c0.23331,0 0.38884,-0.19442 0.38884,-0.38884c0,-0.23331 -0.15554,-0.38884 -0.38884,-0.38884zM456.55804,307.27637c-0.19442,0 -0.38884,0.15554 -0.38884,0.38884c0,0.19442 0.19442,0.38884 0.38884,0.38884c0.23331,0 0.38884,-0.19442 0.38884,-0.38884c0,-0.23331 -0.15554,-0.38884 -0.38884,-0.38884zM457.99676,307.74298c-0.11665,-0.34996 -0.19442,-0.03888 -0.19442,0.69992c0,0.7388 0.07777,1.04987 0.19442,0.66103c0.07777,-0.34996 0.07777,-0.9721 0,-1.36095zM393.1768,309.33723c0,0.31107 0.23331,0.7388 0.50549,0.9721c0.7388,0.62215 6.92139,3.26627 7.15469,3.07185c0.07777,-0.11665 -1.32206,-1.08876 -3.11074,-2.17752c-4.00507,-2.41082 -4.54945,-2.64413 -4.54945,-1.86644zM343.79387,310.6593c0,0.19442 0.23331,0.69992 0.54438,1.12764c0.66103,0.85545 1.36095,0.42773 0.77768,-0.50549c-0.46661,-0.7388 -1.32206,-1.12764 -1.32206,-0.62215zM442.55973,311.16479c-0.19442,0 -0.38884,0.15554 -0.38884,0.38884c0,0.19442 0.19442,0.38884 0.38884,0.38884c0.23331,0 0.38884,-0.19442 0.38884,-0.38884c0,-0.23331 -0.15554,-0.38884 -0.38884,-0.38884zM345.42701,312.40908c-0.31107,0.38884 0,1.16653 1.20541,3.14962c0.89434,1.43872 1.82756,2.60524 2.06086,2.60524c0.19442,0 0.89434,-0.50549 1.4776,-1.12764l1.08876,-1.12764l-2.41082,-1.90533c-2.83855,-2.2164 -2.87743,-2.2164 -3.42181,-1.59425zM386.5276,312.72016c-0.69992,-0.38884 -0.69992,-0.34996 -0.27219,0.66103c1.04987,2.37194 2.37194,3.96619 4.19949,4.93829c1.08876,0.58326 1.94421,0.93322 1.94421,0.81657c0,-0.11665 0.58326,0.19442 1.28318,0.69992c1.67202,1.28318 4.51057,2.68301 5.01606,2.52747c0.23331,-0.07777 -0.7388,-1.08876 -2.17752,-2.17752c-1.43872,-1.12764 -2.76078,-1.94421 -2.9552,-1.82756c-0.23331,0.11665 -0.38884,0.03888 -0.38884,-0.15554c0,-0.23331 -1.32206,-1.4776 -2.9552,-2.76078c-1.59425,-1.28318 -3.26627,-2.52747 -3.694,-2.72189zM419.61806,313.69226c0,0.19442 16.17583,8.3601 16.52578,8.3601c0.11665,0 0.19442,-0.42773 0.19442,-0.89434c0,-0.81657 -0.69992,-1.24429 -6.68808,-3.694c-7.31023,-2.99408 -10.03212,-4.04396 -10.03212,-3.77177zM438.82685,314.8199c-1.59425,-0.66103 -1.78867,-0.23331 -1.4776,2.87743l0.23331,2.25528l2.2164,0.85545c1.20541,0.46661 2.29417,0.85545 2.37194,0.85545c0.11665,0 0.19442,-1.16653 0.15554,-2.56636c-0.03888,-2.4497 -0.11665,-2.64413 -1.12764,-3.1885c-0.62215,-0.31107 -1.67202,-0.81657 -2.37194,-1.08876zM353.59269,314.66437c-0.38884,0 -1.24429,0.81657 -1.24429,1.24429c0,0.62215 0.7388,0.31107 1.16653,-0.46661c0.23331,-0.42773 0.27219,-0.77768 0.07777,-0.77768zM337.37798,315.67536c-0.54438,-0.69992 -0.58326,-0.66103 -0.58326,0.89434c0,1.4776 0.07777,1.63314 0.58326,1.20541c0.31107,-0.27219 0.58326,-0.69992 0.58326,-0.93322c0,-0.23331 -0.27219,-0.77768 -0.58326,-1.16653zM460.36869,315.44205c-0.38884,0 -0.38884,3.88842 -0.03888,6.41589c0.23331,1.67202 0.34996,1.90533 1.82756,2.56636c1.08876,0.50549 2.52747,0.7388 4.47168,0.7388h2.87743l-0.19442,-2.99408c-0.23331,-3.49958 -0.19442,-3.46069 -5.13271,-5.36602c-1.94421,-0.7388 -3.65511,-1.36095 -3.81065,-1.36095zM352.19286,316.64746c-0.42773,-0.34996 -0.85545,-0.15554 -1.94421,0.89434c-1.28318,1.20541 -1.39983,1.39983 -0.9721,2.33305c0.69992,1.4776 1.39983,1.24429 2.48859,-0.89434c0.77768,-1.59425 0.85545,-1.98309 0.42773,-2.33305zM318.55803,316.60858c-0.19442,0 -0.7388,0.54438 -1.24429,1.20541c-0.50549,0.66103 -1.32206,1.7109 -1.78867,2.29417c-0.50549,0.58326 -0.89434,1.20541 -0.89434,1.32206c0,0.11665 -0.34996,0.58326 -0.77768,1.01099c-0.93322,0.93322 -1.04987,3.11074 -0.15554,3.11074c0.42773,0 0.54438,-0.23331 0.34996,-0.81657c-0.23331,-0.7388 -0.15554,-0.81657 0.7388,-0.58326c0.7388,0.19442 1.01099,0.07777 1.01099,-0.31107c0,-0.27219 0.31107,-0.50549 0.69992,-0.46661c0.46661,0.03888 0.69992,-0.31107 0.81657,-1.32206c0.19442,-1.36095 0.19442,-1.36095 0.38884,0.38884c0.38884,2.99408 0.93322,1.94421 1.08876,-2.06086c0.07777,-2.13863 0,-3.77177 -0.23331,-3.77177zM379.56733,317.96952c-0.23331,-0.85545 -0.31107,-0.34996 -0.34996,1.90533c-0.03888,2.87743 0,3.03297 0.7388,2.83855c0.50549,-0.11665 0.77768,0 0.77768,0.34996c0,0.50549 0.46661,0.69992 1.28318,0.58326c0.15554,0 0.27219,0.23331 0.27219,0.58326c0,0.54438 0.11665,0.54438 0.62215,0.15554c0.50549,-0.42773 0.62215,-0.38884 0.81657,0.34996c0.15554,0.62215 0.42773,0.77768 0.93322,0.62215c0.50549,-0.15554 0.7388,-0.03888 0.7388,0.34996c0,0.34996 0.31107,0.62215 0.7388,0.62215c0.42773,0 0.85545,0.31107 0.93322,0.66103c0.15554,0.54438 0.19442,0.54438 0.23331,-0.11665c0.03888,-0.54438 -0.23331,-0.93322 -0.7388,-1.04987c-0.46661,-0.11665 -0.77768,-0.54438 -0.77768,-1.01099c0,-0.89434 -2.02198,-3.11074 -2.25528,-2.4497c-0.23331,0.77768 -0.77768,0.50549 -0.58326,-0.27219c0.11665,-0.42773 -0.19442,-1.08876 -0.81657,-1.7109c-0.54438,-0.54438 -1.01099,-1.16653 -1.01099,-1.36095c0,-0.58326 -1.16653,-0.89434 -1.20541,-0.34996c-0.03888,0.27219 -0.19442,-0.07777 -0.34996,-0.69992zM338.66116,317.61957c-0.19442,0.15554 -0.31107,2.09975 -0.31107,4.31615c0,3.03297 0.11665,4.00507 0.50549,4.00507c0.38884,0 0.46661,-0.89434 0.34996,-3.81065c-0.15554,-4.54945 -0.19442,-4.89941 -0.54438,-4.51057zM361.60283,317.7751c-0.07777,0 -0.42773,0.19442 -0.77768,0.42773c-0.50549,0.27219 -0.69992,0.89434 -0.69992,2.29417c0,1.67202 0.11665,1.94421 0.77768,1.94421c0.69992,0 0.77768,-0.27219 0.77768,-2.33305c0,-1.28318 -0.03888,-2.33305 -0.07777,-2.33305zM340.29429,318.74721c-0.23331,-0.15554 -0.38884,1.04987 -0.38884,3.26627c0,2.09975 0.15554,3.53846 0.38884,3.53846c0.23331,0 0.38884,-1.36095 0.38884,-3.26627c0,-1.82756 -0.15554,-3.42181 -0.38884,-3.53846zM337.18356,318.94163c-0.23331,0 -0.38884,1.39983 -0.38884,3.46069c0,1.94421 0.19442,3.61623 0.38884,3.73288c0.23331,0.15554 0.38884,-1.08876 0.38884,-3.46069c0,-2.2164 -0.15554,-3.73288 -0.38884,-3.73288zM391.23259,319.52489c-1.39983,-0.69992 -1.43872,-0.58326 -0.34996,1.36095c0.50549,0.85545 1.24429,1.59425 1.74979,1.7109c0.7388,0.19442 0.93322,0.50549 0.93322,1.51648c0,0.66103 0.27219,1.67202 0.58326,2.2164c0.31107,0.54438 0.69992,1.28318 0.81657,1.63314c0.31107,0.89434 0.7388,0.89434 2.33305,-0.11665l1.28318,-0.77768l0.27219,0.9721c0.19442,0.89434 0.34996,0.93322 1.08876,0.54438c0.42773,-0.23331 1.01099,-0.69992 1.28318,-1.04987c0.42773,-0.54438 0.46661,-0.54438 0.50549,0.03888c0,1.01099 2.17752,0.93322 2.72189,-0.03888c0.34996,-0.69992 0.03888,-0.9721 -2.99408,-2.60524c-1.90533,-1.01099 -4.31615,-2.29417 -5.44379,-2.91631c-1.78867,-1.01099 -2.06086,-1.04987 -2.37194,-0.46661c-0.42773,0.77768 -1.24429,0.34996 -1.24429,-0.66103c0,-0.46661 -0.50549,-1.01099 -1.16653,-1.36095zM359.38643,320.53588c-0.23331,-0.31107 -0.42773,-0.34996 -0.58326,-0.11665c-0.23331,0.38884 0.42773,1.08876 0.7388,0.77768c0.07777,-0.07777 0,-0.38884 -0.15554,-0.66103zM341.84966,320.69142c-0.23331,-0.15554 -0.38884,0.58326 -0.38884,1.94421c0,1.36095 0.15554,2.09975 0.38884,1.94421c0.23331,-0.11665 0.38884,-1.01099 0.38884,-1.94421c0,-0.93322 -0.15554,-1.82756 -0.38884,-1.94421zM437.50479,321.54687c0,0.38884 0.15554,0.89434 0.31107,1.12764c0.23331,0.42773 4.08284,2.48859 4.54945,2.48859c0.11665,0 0.19442,-0.54438 0.19442,-1.16653c0,-1.04987 -0.23331,-1.28318 -1.63314,-1.90533c-2.99408,-1.28318 -3.42181,-1.32206 -3.42181,-0.54438zM357.67553,322.32455c-0.42773,0.38884 -0.31107,6.6492 0.11665,6.92139c0.23331,0.15554 0.38884,-0.81657 0.42773,-2.60524c0,-3.03297 0.66103,-2.72189 0.69992,0.34996c0.03888,0.93322 0.23331,1.67202 0.42773,1.67202c0.42773,0 0.54438,-4.97718 0.15554,-5.98817c-0.23331,-0.62215 -1.36095,-0.85545 -1.82756,-0.34996zM343.24949,323.41331c-0.46661,1.24429 -0.27219,2.91631 0.34996,2.91631c0.46661,0 0.54438,-0.31107 0.34996,-1.67202c-0.31107,-1.94421 -0.38884,-2.06086 -0.69992,-1.24429zM419.22921,323.14112c0,0.46661 4.82164,3.1885 5.59932,3.1885c1.04987,0 0.34996,-0.69992 -1.74979,-1.78867c-2.60524,-1.28318 -3.84954,-1.74979 -3.84954,-1.39983zM356.12016,323.87992c-0.34996,0.31107 -0.27219,3.88842 0.07777,5.1716c0.27219,0.89434 0.31107,0.81657 0.54438,-0.58326c0.15554,-0.85545 0.27219,-2.29417 0.27219,-3.22739c0,-1.51648 -0.31107,-1.98309 -0.89434,-1.36095zM360.39742,323.87992c-0.31107,0.58326 0.19442,5.94928 0.58326,5.94928c0.19442,0 0.27219,-0.34996 0.11665,-0.7388c-0.11665,-0.42773 -0.03888,-0.85545 0.19442,-1.01099c0.19442,-0.11665 0.38884,-1.01099 0.38884,-1.90533c0,-1.55537 -0.85545,-3.07185 -1.28318,-2.29417zM311.79218,325.04645c-0.23331,0.62215 -0.62215,1.20541 -0.85545,1.36095c-0.66103,0.50549 0.11665,0.77768 0.93322,0.31107c0.54438,-0.27219 0.81657,-0.81657 0.81657,-1.55537c0,-1.43872 -0.27219,-1.4776 -0.89434,-0.11665zM379.6451,324.07434c-0.38884,-0.11665 -0.46661,0.31107 -0.38884,1.7109c0.07777,1.08876 0.31107,1.90533 0.62215,2.02198c0.38884,0.11665 0.46661,-0.31107 0.38884,-1.7109c-0.07777,-1.08876 -0.31107,-1.90533 -0.62215,-2.02198zM437.77698,325.20198c0.15554,0.58326 0.54438,0.7388 1.7109,0.7388c1.08876,0 1.51648,0.15554 1.51648,0.58326c0,0.31107 0.27219,0.58326 0.58326,0.58326c1.32206,0 0.23331,-1.36095 -2.02198,-2.48859c-1.74979,-0.85545 -2.13863,-0.7388 -1.78867,0.58326zM345.11593,324.9298c-0.54438,-0.69992 -0.58326,-0.62215 -0.34996,0.81657c0.31107,1.98309 0.9721,2.72189 0.9721,1.12764c0,-0.66103 -0.27219,-1.51648 -0.62215,-1.94421zM381.27824,325.24087c-0.46661,-0.58326 -0.50549,-0.46661 -0.54438,0.89434c0,1.4776 0.07777,1.55537 1.16653,1.59425c0.9721,0.03888 1.16653,-0.11665 1.16653,-0.85545c0,-0.62215 -0.23331,-0.93322 -0.62215,-0.93322c-0.34996,0 -0.89434,-0.31107 -1.16653,-0.69992zM342.08297,325.27975c-0.11665,-0.15554 -0.23331,0.07777 -0.19442,0.50549c0,0.42773 0.11665,0.54438 0.23331,0.23331c0.11665,-0.27219 0.07777,-0.62215 -0.03888,-0.7388zM354.56479,325.86302c-0.31107,0.46661 0.19442,3.96619 0.54438,3.96619c0.19442,0 0.34996,-0.9721 0.34996,-2.13863c0,-1.90533 -0.38884,-2.68301 -0.89434,-1.82756zM467.64004,325.55194c-0.54438,0 -0.9721,0.15554 -0.9721,0.38884c0,0.19442 0.42773,0.38884 0.9721,0.38884c0.54438,0 0.9721,-0.19442 0.9721,-0.38884c0,-0.23331 -0.42773,-0.38884 -0.9721,-0.38884zM438.7102,326.32963c-0.46661,0 -0.81657,0.15554 -0.81657,0.38884c0,0.19442 0.23331,0.38884 0.54438,0.38884c0.31107,0 0.69992,-0.19442 0.81657,-0.38884c0.11665,-0.23331 -0.11665,-0.38884 -0.54438,-0.38884zM384.35009,327.06843c-0.27219,-0.27219 -0.50549,-0.27219 -0.66103,-0.03888c-0.27219,0.46661 0.46661,1.04987 0.81657,0.69992c0.15554,-0.15554 0.07777,-0.42773 -0.15554,-0.66103zM426.61721,327.10731c0,0.19442 0.46661,0.38884 1.08876,0.38884c0.81657,0 0.93322,-0.07777 0.46661,-0.38884c-0.77768,-0.50549 -1.55537,-0.50549 -1.55537,0zM416.93505,327.10731c-0.66103,0 -1.20541,0.15554 -1.20541,0.38884c0,0.19442 0.42773,0.38884 0.93322,0.38884c0.54438,0 1.08876,-0.19442 1.20541,-0.38884c0.15554,-0.23331 -0.27219,-0.38884 -0.93322,-0.38884zM423.62313,327.10731c-0.50549,0 -0.89434,0.15554 -0.89434,0.38884c0,0.50549 0.42773,0.50549 1.16653,0c0.46661,-0.31107 0.42773,-0.38884 -0.27219,-0.38884zM238.45658,327.49615c-0.54438,0 -0.89434,0.69992 -0.62215,1.16653c0.38884,0.66103 0.9721,0.42773 0.9721,-0.38884c0,-0.42773 -0.15554,-0.77768 -0.34996,-0.77768zM312.2199,327.53504c-1.74979,0.42773 -2.13863,1.08876 -1.63314,2.9552c0.27219,0.93322 0.85545,1.24429 0.81657,0.38884c0,-0.23331 0.03888,-0.81657 0.07777,-1.24429l0.07777,-0.77768l0.34996,0.77768c0.27219,0.62215 0.34996,0.50549 0.34996,-0.69992c0.03888,-0.77768 0,-1.43872 -0.03888,-1.39983zM22.02714,328.00165c-1.04987,0 -1.4776,0.07777 -0.85545,0.15554c0.58326,0.07777 1.43872,0.07777 1.94421,0c0.46661,-0.07777 0,-0.15554 -1.08876,-0.15554zM234.33486,328.27384c-1.16653,0.15554 -1.36095,0.27219 -0.85545,0.50549c1.01099,0.38884 2.13863,0.34996 2.41082,-0.15554c0.38884,-0.54438 0.23331,-0.58326 -1.55537,-0.34996zM297.59945,327.88499c-1.16653,0 -2.02198,0.62215 -2.02198,1.4776c0,0.42773 0.31107,0.50549 1.20541,0.31107c0.66103,-0.11665 1.36095,-0.23331 1.55537,-0.23331c0.19442,0 0.34996,-0.34996 0.34996,-0.77768c0,-0.58326 -0.27219,-0.77768 -1.08876,-0.77768zM346.51577,327.88499c-0.19442,0 -0.38884,0.15554 -0.38884,0.38884c0,0.19442 0.19442,0.38884 0.38884,0.38884c0.23331,0 0.38884,-0.19442 0.38884,-0.38884c0,-0.23331 -0.15554,-0.38884 -0.38884,-0.38884zM379.56733,328.27384c-0.19442,0 -0.38884,0.15554 -0.38884,0.38884c0,0.19442 0.19442,0.38884 0.38884,0.38884c0.23331,0 0.38884,-0.19442 0.38884,-0.38884c0,-0.23331 -0.15554,-0.38884 -0.38884,-0.38884zM232.97391,329.44036c-0.19442,0 -0.38884,0.15554 -0.38884,0.38884c0,0.19442 0.19442,0.38884 0.38884,0.38884c0.23331,0 0.38884,-0.19442 0.38884,-0.38884c0,-0.23331 -0.15554,-0.38884 -0.38884,-0.38884zM236.00688,329.44036c-0.9721,0 -3.42181,1.43872 -3.42181,1.94421c0,0.19442 0.31107,0.31107 0.69992,0.31107c0.34996,-0.03888 1.32206,0.07777 2.13863,0.23331l1.43872,0.27219v-1.39983c0,-1.16653 -0.11665,-1.36095 -0.85545,-1.36095zM238.22328,329.44036c-0.38884,0 -0.58326,0.42773 -0.58326,1.36095c0,0.93322 0.19442,1.36095 0.58326,1.36095c0.38884,0 0.58326,-0.42773 0.58326,-1.36095c0,-0.93322 -0.19442,-1.36095 -0.58326,-1.36095z"/><path d="M345.77697,304.16563c0.58326,0 0.38884,0.34996 -0.50549,0.81657c-0.81657,0.42773 -0.85545,0.42773 -0.34996,-0.15554c0.27219,-0.38884 0.66103,-0.66103 0.85545,-0.66103z"/><path d="M343.21061,281.26284c0.23331,0 0.81657,0.23331 1.36095,0.54438c0.54438,0.31107 0.81657,0.54438 0.58326,0.54438c-0.19442,0 -0.81657,-0.23331 -1.36095,-0.54438c-0.54438,-0.31107 -0.77768,-0.54438 -0.58326,-0.54438z"/><path d="M483.50479,305.721c0.58326,0 1.04987,0.15554 1.04987,0.38884c0,0.42773 -1.36095,0.31107 -1.78867,-0.11665c-0.15554,-0.15554 0.19442,-0.27219 0.7388,-0.27219z"/><path d="M27.35428,319.71931c0.77768,0 1.55537,0.15554 1.67202,0.38884c0.11665,0.23331 -0.15554,0.38884 -0.66103,0.38884c-0.81657,0.03888 -0.77768,0.07777 0.27219,0.58326l1.16653,0.50549l-2.02198,0.03888c-1.12764,0.03888 -2.06086,-0.15554 -2.06086,-0.34996c0,-0.23331 0.38884,-0.38884 0.85545,-0.38884c0.81657,0 0.81657,0 0.07777,-0.58326c-0.69992,-0.50549 -0.66103,-0.54438 0.69992,-0.58326z"/></g></g></svg>