<svg version="1.1" xmlns="http://www.w3.org/2000/svg" xmlns:xlink="http://www.w3.org/1999/xlink" width="600.17239" height="301.29739" viewBox="0,0,600.17239,301.29739"><defs><linearGradient x1="250.08491" y1="72.42775" x2="250.08491" y2="301.0791" gradientUnits="userSpaceOnUse" id="color-1"><stop offset="0" stop-color="#ffffff"/><stop offset="1" stop-color="#f1f1f1"/></linearGradient></defs><g transform="translate(83.40291,-25.60292)"><g data-paper-data="{&quot;isPaintingLayer&quot;:true}" fill-rule="nonzero" stroke="none" stroke-linecap="butt" stroke-linejoin="miter" stroke-miterlimit="10" stroke-dasharray="" stroke-dashoffset="0" style="mix-blend-mode: normal"><g><path d="M369.71684,186.75343c0,63.14032 -53.56104,107.57226 -119.63193,107.57226c-22.21705,0 -48.62807,-3.83598 -79.34418,-12.70036c-49.63718,-14.32482 -102.74345,-33.47295 -109.42549,-65.91093c-1.47982,-7.18381 69.13774,-21.36253 69.13774,-28.96098c0,-63.14032 40.0542,-81.52336 106.12509,-81.52336c14.56787,0 20.80939,-6.19459 33.72089,-1.63833c3.79593,1.33952 28.72629,-21.26156 32.32984,-19.57525c2.14598,1.00423 47.9933,-48.03658 62.42943,-55.57071c0.6096,-0.31814 7.54533,-3.23626 14.45848,-2.79812c13.67144,0.86647 30.06293,3.53951 16.9253,9.31522c-7.99205,3.51356 1.99212,43.66291 4.32625,43.21044c2.96643,-0.57506 17.29229,-1.0781 18.90996,-6.12135c0.38403,-1.19727 -1.20172,-12.79499 -7.699,-16.67597c-1.88115,-1.12365 -3.20644,-5.46403 -5.51094,-5.60861c-5.68277,-0.35653 -12.41809,5.19342 -12.36125,4.3479c0.19112,-2.84321 -6.17368,-18.94834 -5.59182,-21.1178c0.57308,-2.13671 -10.40304,-4.82219 -5.29974,-5.95116c6.55121,-1.44928 29.5985,-0.95864 31.40614,-0.08585c14.92997,7.20862 14.69395,24.47086 16.06083,25.3508c0.92356,0.59455 42.33736,4.08271 62.88203,6.93903c7.50407,1.04329 9.71576,3.67441 9.71576,3.67441c0,0 -0.40179,4.49424 -3.81595,6.8002c-4.96928,3.3563 -23.12689,11.39727 -23.12689,11.39727c0,0 21.63562,-0.23133 28.76963,0.96749c6.21671,1.04468 11.66247,5.82688 11.66247,5.82688c0,0 -0.1995,3.74526 -7.82965,6.54253c-23.63322,8.66412 -77.09861,24.81534 -78.94081,27.52626c-6.96856,10.25466 -43.19268,14.35061 -55.52276,13.88123c-7.04446,-0.26817 -31.90341,-21.67697 -30.26189,-19.68006c15.97507,19.43368 25.50248,43.93704 25.50248,70.56695z" fill="url(#color-1)" stroke-width="0"/><path d="M298.32358,122.02553c2.2814,0 2.48089,2.08191 2.49833,2.446c4.13175,4.34499 6.62267,8.89878 8.55634,14.69981c0.64226,1.98857 0.75905,4.11094 1.06078,6.17876c0.29596,2.02821 2.17406,3.51917 2.81933,5.46464c0.33782,1.0185 -0.10496,2.16045 0.07499,3.21833c0.17054,1.00256 0.80303,1.89031 0.96477,2.89432c0.86807,5.38846 0.19261,11.1023 0.97832,16.49615c0.43023,2.95346 1.56861,5.78015 1.93611,8.74208c1.16663,9.40271 -0.19704,19.15645 -5.49557,27.0485c-2.19748,1.66825 -3.91152,4.03515 -6.37303,5.28133c-5.18485,2.62491 -9.6877,2.03573 -15.04404,1.27054c-5.05079,-0.72154 -11.66039,-1.20708 -15.18814,-5.78765c-2.3412,-3.03991 -1.49905,-7.65262 -1.47801,-11.16522c0.0049,-0.81773 -0.05221,-1.62127 -0.1506,-2.41568c-1.3734,3.13116 -3.20583,6.05309 -5.181,8.95759c-1.98936,1.51255 -5.00259,3.94395 -7.31473,5.2681c-2.47604,1.41802 -5.23821,2.31252 -7.65868,3.82345c-1.4405,0.89921 -2.57974,2.26642 -4.09899,3.02504c-1.25255,0.62545 -2.74754,0.58169 -4.06616,1.05214c-1.62182,0.57862 -3.00462,2.10411 -4.72646,2.08483c-0.60259,-0.00675 -8.73426,-3.95561 -9.3727,-4.4849c-0.99426,-0.82428 -1.39593,-2.17961 -2.2084,-3.18354c-1.37947,-1.70455 -2.99671,-3.25206 -4.08801,-5.15402c-1.06751,-1.86049 -1.84311,-3.72306 -2.46205,-5.60333c-0.54468,1.75541 -1.51784,4.63349 -1.68693,5.13908c-1.61612,4.83223 -4.11735,10.20902 -8.77557,12.91334c-3.01481,1.75024 -4.72685,1.31283 -8.06774,1.33815c-3.66891,-0.0165 -5.15527,0.31258 -8.72957,-1.17849c-8.69872,-3.62878 -15.49269,-12.71313 -16.89271,-22.14608c-0.1935,-1.30376 0.14821,-2.64602 -0.01355,-3.95409c-0.72116,-5.83169 -2.29192,-11.55616 -2.90089,-17.42504c-0.40266,-3.88063 0.98006,-7.0652 0.95261,-10.85885c0,0 0,-2.5 2.5,-2.5c2.5,0 2.5,2.5 2.5,2.5c-0.02088,3.56611 -1.40231,6.80532 -0.97694,10.36617c0.69529,5.82036 2.15549,11.50839 2.88776,17.30681c0.1572,1.24482 -0.18316,2.52091 -0.01355,3.7641c1.08331,7.94017 6.89555,15.23094 13.98004,18.37442c2.39077,1.06081 4.16591,0.76445 6.70681,0.75106c1.60249,0.01496 3.88867,0.39287 5.43909,-0.5914c3.6206,-2.29851 5.3753,-6.37102 6.66081,-10.24123c0.56779,-1.70941 1.83797,-3.29311 1.8031,-5.09401c-0.02314,-1.19486 -0.79753,-2.2721 -0.94788,-3.4577c-0.61103,-4.81829 0.09691,-9.75586 1.02979,-14.45396l0.10353,-0.12924l-0.05899,-0.01966l0.94654,-2.83963c0.31417,-1.02156 1.26534,-1.76412 2.38994,-1.76412c1.38071,0 2.5,1.11929 2.5,2.5v2.89432h-0.41455c1.06954,4.29992 1.60192,8.69507 2.31182,13.10638c0.84119,5.2272 4.06041,9.33106 7.18383,13.28709c0.63703,0.80685 0.86317,1.94433 1.6507,2.6051c0.93815,0.78714 2.24202,0.99147 3.32262,1.56767c0.94341,0.50305 1.67211,1.68587 2.74106,1.66562c1.15922,-0.02197 1.9149,-1.34448 2.99173,-1.77426c1.16279,-0.46409 2.53256,-0.31684 3.65203,-0.87741c2.6984,-1.3512 4.9762,-3.45135 7.67458,-4.80259c3.66385,-1.8347 6.61573,-3.80268 9.91441,-6.23539c2.82212,-4.3428 5.43484,-8.72179 6.08828,-14.0238c0.24033,-1.95006 0.1405,-4.06659 0.06556,-6.13435c-0.50464,-0.88258 -1.02199,-1.75443 -1.00395,-2.73516c0.00292,-0.15892 0.01353,-0.31646 0.03095,-0.47277h-0.07605v-2.89432c0,-1.38071 1.11929,-2.5 2.5,-2.5c1.1246,0 2.07576,0.74256 2.38994,1.76412l0.94654,2.83963l-0.16331,0.05444l0.25932,0.33568c0.00422,0.43039 0.01457,0.8689 0.02847,1.31333c1.48553,2.52385 0.45934,4.19289 0.9326,7.34748c0.43853,2.92312 1.46296,5.78589 1.93324,8.70511c0.50395,3.12821 -0.27142,6.50042 0,9.64774c0.23388,2.71199 3.96936,3.99173 6.11784,4.80916c1.94612,0.74044 4.13022,0.53375 6.19151,0.82822c4.37119,0.62446 7.68044,1.44831 11.96963,-0.659c2.03241,-0.99854 3.38395,-3.01947 5.20425,-4.36641c4.3456,-6.59031 5.12596,-15.39537 4.15217,-23.11973c-0.36838,-2.92209 -1.5133,-5.70727 -1.92298,-8.62385c-0.20766,-1.47838 0.17777,-5.36047 0,-6.75342c-0.16786,-1.31529 -0.7818,-2.54583 -0.96477,-3.85909c-0.2619,-1.87973 0.33719,-3.82356 0.01355,-5.69364c-0.17342,-1.00207 -0.80134,-1.89058 -0.96477,-2.89432c-0.13775,-0.846 0.34758,-1.75768 0.07499,-2.57032c-0.72039,-2.14762 -2.56166,-3.8844 -2.96931,-6.11265c-0.32801,-1.7929 -0.27137,-3.67655 -0.86876,-5.39853c-1.79476,-5.38428 -4.06653,-9.48191 -8.07902,-13.49441l-0.73223,-2.73254c0,0 0,-2.5 2.5,-2.5z" fill="#dfdfdf" stroke-width="0.5"/><path d="M-12.00966,270.20633c0,-4.5 4.5,-4.5 4.5,-4.5l3.61514,0.05811c3.11012,1.02226 6.11819,2.39169 9.08824,3.8438c-0.18675,-0.63215 -0.37466,-1.24805 -0.5713,-1.83798c-1.23235,-3.69705 -2.08827,-7.2853 -4.29902,-10.50416l-0.75577,-3.46092c0,0 0,-4.5 4.5,-4.5c3.73712,0 4.37067,3.10356 4.47807,4.15586c2.13062,3.64232 3.2562,7.38716 4.61487,11.46318c0.64318,1.92955 1.30034,3.85449 1.92955,5.78864c0.40014,1.23001 0.30248,2.88606 1.35672,3.63549c1.79725,1.27762 5.87294,1.41659 7.92857,2.42808c1.04038,0.51193 1.86392,1.39781 2.89432,1.92955c2.7111,1.39905 5.56425,1.04682 8.39147,1.53007c2.25154,0.38485 4.3212,1.58201 6.58242,1.90516c3.80631,0.54395 8.12703,-0.03372 11.99223,-0.03372c4.27816,0 8.25577,0.25307 12.41542,-0.83041c3.27143,-0.81483 6.71953,-2.39242 10.01833,-2.97057c0.95029,-0.16655 1.94103,0.14843 2.89432,0c4.78895,-0.74564 11.49492,-4.01321 14.90477,-7.42305c3.46714,-3.46714 5.67355,-9.0208 7.82252,-13.26671c1.70528,-3.36926 4.10801,-6.26847 5.80614,-9.68312c0,0 2.01246,-4.02492 6.03738,-2.01246c4.02492,2.01246 2.01246,6.03738 2.01246,6.03738c-1.68372,3.35157 -4.13903,6.29952 -5.77115,9.61236c-2.51125,5.09728 -5.40347,11.53658 -9.5434,15.6765c-4.83716,4.83716 -13.11035,8.76569 -19.82709,9.94288c-0.95029,0.16655 -1.94103,-0.14843 -2.89432,0c-2.9902,0.46557 -6.32304,2.07704 -9.27715,2.81807c-4.94756,1.19782 -9.54819,1.09913 -14.59824,1.09913c-4.24126,0 -8.90519,0.56424 -13.09188,-0.03372c-2.37418,-0.33909 -4.55671,-1.57223 -6.92441,-1.95394c-3.70878,-0.59792 -7.35292,-0.59787 -10.904,-2.32902c-1.04226,-0.5081 -1.86123,-1.40306 -2.89432,-1.92955c-2.80737,-1.4307 -6.96376,-1.31639 -9.43735,-3.36056c-0.02787,-0.02303 -0.05558,-0.04621 -0.08315,-0.06953c-2.9688,2.14847 -5.75299,4.29795 -9.26918,5.58629l-2.3878,0.23093c0,0 -4.5,0 -4.5,-4.5c0,-4.5 4.5,-4.5 4.5,-4.5l-0.45825,0.23093c0.60739,-0.16297 1.20685,-0.40313 1.79899,-0.6991c-0.46844,-0.20013 -0.93231,-0.4101 -1.38827,-0.63714c-1.54376,-0.7687 -2.90217,-1.93226 -4.53238,-2.49485l-2.1735,0.05811c0,0 -4.5,0 -4.5,-4.5z" fill="#fffffe" stroke-width="0.5"/><path d="M-26.00619,309.67914c2.01246,-4.02492 6.03738,-2.01246 6.03738,-2.01246l-0.08291,0.4897c4.72072,0 9.44144,0 14.16217,0c-0.22072,-0.55576 -0.4271,-1.15905 -0.62417,-1.81717l-1.2836,-1.11336c0,0 -3.18198,-3.18198 0,-6.36396c3.18198,-3.18198 6.36396,0 6.36396,0l2.5755,2.74574c0.94759,2.63807 0.71064,4.39186 3.38374,4.85013c0,0 1.92438,0.64146 2.75843,2.35506c1.34408,0.18946 2.73879,0.17051 4.08656,0.34206c2.89515,0.3685 5.64875,1.54389 8.54362,1.91459c3.68174,0.47146 7.4224,-0.13444 11.13379,-0.18902c8.99903,-0.13234 17.99805,-0.26468 26.99708,-0.39702c5.99935,-0.08823 11.99856,-0.18668 17.99805,-0.26468c3.70857,-0.04822 7.49387,0.13814 11.1038,-0.71291c5.58445,-3.9227 11.20425,-6.61635 17.20934,-9.57484c2.08027,-1.02487 3.71953,-2.81187 5.78864,-3.85909c3.19656,-1.61786 5.70226,-2.63824 8.14478,-5.56395c3.91289,-4.68695 4.93255,-10.5956 6.97775,-16.07423c0.90372,-2.42088 2.14177,-4.73668 2.74916,-7.24834c0,0 1.09141,-4.36564 5.45705,-3.27423c4.36564,1.09141 3.27423,5.45705 3.27423,5.45705c-0.72307,2.8201 -2.01286,5.46372 -3.03948,8.18804c-2.42424,6.43317 -3.88277,13.15988 -8.45863,18.65762c-3.21093,3.85782 -6.83864,5.81727 -11.15069,7.94288c-2.08003,1.02535 -3.71954,2.81186 -5.78864,3.85909c-2.81247,1.42347 -5.85355,2.46514 -8.68296,3.85909c-3.02854,1.49206 -6.00559,4.03522 -8.83955,5.86154c-10.42917,2.68371 -21.87063,1.58805 -32.6105,1.74599c-8.99903,0.13234 -17.99805,0.26468 -26.99708,0.39702c-4.02892,0.05925 -8.08739,0.64038 -12.0871,0.15247c-2.98919,-0.36464 -5.83332,-1.57819 -8.8223,-1.9445c-2.55245,-0.31281 -5.1748,-0.38647 -7.62662,-1.16198l-0.19062,-0.09148c-0.56938,0.40485 -1.08579,0.86029 -1.65973,1.56968c-0.94368,1.16639 -1.48743,2.70471 -2.67812,3.61755c-1.22212,0.93694 -4.36155,1.70027 -6.15432,2.1813l-1.11336,1.2836c0,0 -3.18198,3.18198 -6.36396,0c-3.18198,-3.18198 0,-6.36396 0,-6.36396l2.09569,-1.96576c-2.21063,0 -4.42127,0 -6.6319,0l-3.94201,-1.43985c0,0 -4.02492,-2.01246 -2.01246,-6.03738z" fill="#fffffe" stroke-width="0.5"/><path d="M-74.89525,257.83823c-0.53705,1.17165 -1.65993,2.3965 -4.00766,2.3965c-4.5,0 -4.5,-4.5 -4.5,-4.5l2.48754,-4.9897c4.65907,-2.32953 9.71706,-4.06942 14.2254,-6.62059c2.1502,-1.21675 3.62936,-3.38403 5.68152,-4.7597c0.84472,-0.56626 2.0074,-0.4672 2.89432,-0.96477c2.10155,-1.179 3.40411,-4.5864 4.97245,-6.10747c2.05345,-1.99155 5.42826,-3.44879 7.92293,-4.70204c0,0 4.02492,-2.01246 6.03738,2.01246c2.01246,4.02492 -2.01246,6.03738 -2.01246,6.03738c-0.07162,0.03562 -4.90059,2.29828 -5.5839,3.01615c-2.28107,2.39645 -3.61914,5.52524 -6.60483,7.39936c-0.86133,0.54066 -2.04646,0.40323 -2.89432,0.96477c-2.12836,1.40963 -3.68306,3.61488 -5.89576,4.88803c-4.01653,2.31106 -8.47663,3.96856 -12.72262,5.92959z" fill="#f3f3f3" stroke-width="0.5"/><path d="M-65.68374,279.17696c-3.18198,-3.18198 0,-6.36396 0,-6.36396l3.05534,-2.14843c6.17829,-1.53886 12.14704,-2.31318 18.3307,-3.85909c0,0 4.36564,-1.09141 5.45705,3.27423c1.09141,4.36564 -3.27423,5.45705 -3.27423,5.45705c-6.20448,1.55112 -12.16671,2.31287 -18.3307,3.85909l1.1258,-0.21889c0,0 -3.18198,3.18198 -6.36396,0z" fill="#f3f3f3" stroke-width="0.5"/><path d="M-57.00078,307.15539c-3.18198,-3.18198 0,-6.36396 0,-6.36396l2.72373,-2.05187c3.09738,-1.03246 6.47742,-1.71825 9.5095,-2.84573c1.51791,-0.56443 2.82131,-1.67285 4.38646,-2.08869c1.26609,-0.33638 2.61881,-0.08025 3.92821,-0.12038c0,0 4.5,0 4.5,4.5c0,4.5 -4.5,4.5 -4.5,4.5c-1.81222,-0.11726 -3.49364,1.00742 -5.19216,1.65003c-3.09569,1.17122 -6.61306,1.88528 -9.78597,2.94291l0.79418,-0.12232c0,0 -3.18198,3.18198 -6.36396,0z" fill="#f3f3f3" stroke-width="0.5"/></g></g></g></svg>