<svg version="1.1" xmlns="http://www.w3.org/2000/svg" xmlns:xlink="http://www.w3.org/1999/xlink" width="382.27941" height="353.62073" viewBox="0,0,382.27941,353.62073"><defs><linearGradient x1="61.17255" y1="216.05344" x2="431.07642" y2="216.05344" gradientUnits="userSpaceOnUse" id="color-1"><stop offset="0" stop-color="#ffffff"/><stop offset="1" stop-color="#a5a5a5"/></linearGradient><linearGradient x1="338.37471" y1="89.60211" x2="409.56298" y2="211.27077" gradientTransform="translate(-66.06432,-131.20229) rotate(35.05478) scale(0.35276,0.35276)" gradientUnits="userSpaceOnUse" id="color-2"><stop offset="0" stop-color="#ffffff"/><stop offset="1" stop-color="#a5a5a5"/></linearGradient></defs><g transform="translate(-61.17256,-39.24307)"><g data-paper-data="{&quot;isPaintingLayer&quot;:true}" fill-rule="nonzero" stroke-linejoin="miter" stroke-miterlimit="10" stroke-dasharray="" stroke-dashoffset="0" style="mix-blend-mode: normal"><g><path d="M428.61311,214.39312c0,58.54548 9.14947,134.33922 -36.62674,165.7421c-29.11266,19.97154 -103.69001,7.68133 -142.05194,7.68133c-32.45404,0 -131.95625,12.62302 -158.18752,-2.05614c-53.52897,-29.9551 -20.49116,-107.08769 -20.49116,-171.36729c0,-54.03495 -6.07011,-123.319 33.84333,-155.12451c30.83473,-24.57103 101.82621,-18.29891 144.83535,-18.29891c46.24992,0 124.43168,-9.9717 156.16106,18.01246c35.97026,31.72447 22.51762,104.52148 22.51762,155.41097z" fill="url(#color-1)" stroke="none" stroke-width="0" stroke-linecap="butt"/><text transform="matrix(1.84364 0 0 1.84364 188.2876 104.00864999999999)" font-size="40"  fill="#ffffff" fill-rule="nonzero" stroke="none" stroke-width="1" stroke-linecap="butt" stroke-linejoin="miter" stroke-miterlimit="10" stroke-dasharray="" stroke-dashoffset="0" font-family="Helvetica" font-weight="normal" text-anchor="start" style="mix-blend-mode: normal" >1</text><text transform="matrix(1.09964 0 0 1.09964 361.90331 206.62563)" font-size="40"  fill="#ffffff" fill-rule="nonzero" stroke="none" stroke-width="1" stroke-linecap="butt" stroke-linejoin="miter" stroke-miterlimit="10" stroke-dasharray="" stroke-dashoffset="0" font-family="Helvetica" font-weight="normal" text-anchor="start" style="mix-blend-mode: normal" >2</text><text transform="matrix(3.73094 0 0 3.73094 195.69103 232.37052999999997)" font-size="40"  fill="#ffffff" fill-rule="nonzero" stroke="none" stroke-width="1" stroke-linecap="butt" stroke-linejoin="miter" stroke-miterlimit="10" stroke-dasharray="" stroke-dashoffset="0" font-family="Helvetica" font-weight="normal" text-anchor="start" style="mix-blend-mode: normal" >3</text><text transform="matrix(3.56939 0 0 3.56939 251.22106 106.15646000000001)" font-size="40"  fill="#ffffff" fill-rule="nonzero" stroke="none" stroke-width="1" stroke-linecap="butt" stroke-linejoin="miter" stroke-miterlimit="10" stroke-dasharray="" stroke-dashoffset="0" font-family="Helvetica" font-weight="normal" text-anchor="start" style="mix-blend-mode: normal" >4</text><text transform="matrix(1.67122 0 0 1.67122 290.01748 266.92515)" font-size="40"  fill="#ffffff" fill-rule="nonzero" stroke="none" stroke-width="1" stroke-linecap="butt" stroke-linejoin="miter" stroke-miterlimit="10" stroke-dasharray="" stroke-dashoffset="0" font-family="Helvetica" font-weight="normal" text-anchor="start" style="mix-blend-mode: normal" >5</text><text transform="matrix(2.83481 0 0 2.83481 366.93144 126.02989)" font-size="40"  fill="url(#color-2)" fill-rule="nonzero" stroke="none" stroke-width="1" stroke-linecap="butt" stroke-linejoin="miter" stroke-miterlimit="10" stroke-dasharray="" stroke-dashoffset="0" font-family="Helvetica" font-weight="normal" text-anchor="start" style="mix-blend-mode: normal" >6</text><g fill="none" stroke="#ffffff" stroke-width="2.5" stroke-linecap="round"><path d="M150.45603,298.31221l-50.96353,-25.24486"/><path d="M92.59263,285.46963l50.24794,24.49312"/></g><g fill="none" stroke="#ffffff" stroke-width="2.5" stroke-linecap="round"><path d="M172.98011,181.61866l-56.10304,-25.33853"/><path d="M151.285,142.13375l-12.93903,49.71251"/></g><g fill="none" stroke="#ffffff" stroke-width="10" stroke-linecap="round"><path d="M296.29839,216.71517l-0.54563,28.64552"/><path d="M309.93912,229.53745l-32.46493,-0.54563"/></g><path d="M322.57902,353.25129l76.2837,-35.42712" fill="none" stroke="#ffffff" stroke-width="2.5" stroke-linecap="round"/><g stroke-width="2.5"><path d="M209.48455,109.7456l57.88722,-23.28295" fill="none" stroke="#ffffff" stroke-linecap="round"/><path d="M225.25804,73.30123c-1.0121,-2.58794 0.26537,-5.50637 2.85331,-6.51847c2.58794,-1.0121 5.50637,0.26537 6.51847,2.85331c1.01211,2.58795 -0.26537,5.50637 -2.85331,6.51847c-2.58794,1.0121 -5.50637,-0.26536 -6.51847,-2.85331z" fill="#ffffff" stroke="none" stroke-linecap="butt"/><path d="M243.39373,119.67407c-1.01211,-2.58795 0.26537,-5.50637 2.85331,-6.51847c2.58794,-1.0121 5.50637,0.26536 6.51847,2.85331c1.01211,2.58795 -0.26537,5.50637 -2.85331,6.51847c-2.58794,1.0121 -5.50637,-0.26536 -6.51847,-2.85331z" fill="#ffffff" stroke="none" stroke-linecap="butt"/></g><text transform="matrix(1.06207 0 0 1.06207 198.25604 322.73003)" font-size="40"  fill="#ffffff" fill-rule="nonzero" stroke="none" stroke-width="1" stroke-linecap="butt" stroke-linejoin="miter" stroke-miterlimit="10" stroke-dasharray="" stroke-dashoffset="0" font-family="Helvetica" font-weight="normal" text-anchor="start" style="mix-blend-mode: normal" >7</text><text transform="matrix(0.91987 0 0 0.91987 265.1021 307.02182)" font-size="40"  fill="#ffffff" fill-rule="nonzero" stroke="none" stroke-width="1" stroke-linecap="butt" stroke-linejoin="miter" stroke-miterlimit="10" stroke-dasharray="" stroke-dashoffset="0" font-family="Helvetica" font-weight="normal" text-anchor="start" style="mix-blend-mode: normal" >8</text><text transform="matrix(0.82051 0 0 0.82051 231.56086 330.24118000000004)" font-size="40"  fill="#ffffff" fill-rule="nonzero" stroke="none" stroke-width="1" stroke-linecap="butt" stroke-linejoin="miter" stroke-miterlimit="10" stroke-dasharray="" stroke-dashoffset="0" font-family="Helvetica" font-weight="normal" text-anchor="start" style="mix-blend-mode: normal" >9</text><text transform="matrix(0.81982 0 0 0.81982 153.80279 339.89178)" font-size="40"  fill="#ffffff" fill-rule="nonzero" stroke="none" stroke-width="1" stroke-linecap="butt" stroke-linejoin="miter" stroke-miterlimit="10" stroke-dasharray="" stroke-dashoffset="0" font-family="Helvetica" font-weight="normal" text-anchor="start" style="mix-blend-mode: normal" >10</text><text transform="matrix(0.99272 0 0 0.99272 90.84255 305.33068000000003)" font-size="40"  fill="#ffffff" fill-rule="nonzero" stroke="none" stroke-width="1" stroke-linecap="butt" stroke-linejoin="miter" stroke-miterlimit="10" stroke-dasharray="" stroke-dashoffset="0" font-family="Helvetica" font-weight="normal" text-anchor="start" style="mix-blend-mode: normal" >11</text><text transform="matrix(0.75294 0 0 0.75294 243.70407 209.81186)" font-size="40"  fill="#ffffff" fill-rule="nonzero" stroke="none" stroke-width="1" stroke-linecap="butt" stroke-linejoin="miter" stroke-miterlimit="10" stroke-dasharray="" stroke-dashoffset="0" font-family="Helvetica" font-weight="normal" text-anchor="start" style="mix-blend-mode: normal" >12</text><text transform="matrix(0.73438 0 0 0.73438 335.83495 289.85823999999997)" font-size="40"  fill="#ffffff" fill-rule="nonzero" stroke="none" stroke-width="1" stroke-linecap="butt" stroke-linejoin="miter" stroke-miterlimit="10" stroke-dasharray="" stroke-dashoffset="0" font-family="Helvetica" font-weight="normal" text-anchor="start" style="mix-blend-mode: normal" >13</text><text transform="matrix(0.78196 0 0 0.78196 259.00743 281.79079)" font-size="40"  fill="#ffffff" fill-rule="nonzero" stroke="none" stroke-width="1" stroke-linecap="butt" stroke-linejoin="miter" stroke-miterlimit="10" stroke-dasharray="" stroke-dashoffset="0" font-family="Helvetica" font-weight="normal" text-anchor="start" style="mix-blend-mode: normal" >14</text><text transform="matrix(0.9074 0 0 0.9074 379.24064 276.96668999999997)" font-size="40"  fill="#ffffff" fill-rule="nonzero" stroke="none" stroke-width="1" stroke-linecap="butt" stroke-linejoin="miter" stroke-miterlimit="10" stroke-dasharray="" stroke-dashoffset="0" font-family="Helvetica" font-weight="normal" text-anchor="start" style="mix-blend-mode: normal" >15</text><text transform="matrix(0.94155 0 0 0.94155 193.61155 135.99128000000002)" font-size="40"  fill="#ffffff" fill-rule="nonzero" stroke="none" stroke-width="1" stroke-linecap="butt" stroke-linejoin="miter" stroke-miterlimit="10" stroke-dasharray="" stroke-dashoffset="0" font-family="Helvetica" font-weight="normal" text-anchor="start" style="mix-blend-mode: normal" >78</text><text transform="matrix(0.81302 0 0 0.81302 84.16187 189.53832)" font-size="40"  fill="#ffffff" fill-rule="nonzero" stroke="none" stroke-width="1" stroke-linecap="butt" stroke-linejoin="miter" stroke-miterlimit="10" stroke-dasharray="" stroke-dashoffset="0" font-family="Helvetica" font-weight="normal" text-anchor="start" style="mix-blend-mode: normal" >87</text></g></g></g></svg>