<svg xmlns="http://www.w3.org/2000/svg" xmlns:xlink="http://www.w3.org/1999/xlink" version="1.1" width="116.03279876708984" height="119.72129821777344" viewBox="-0.5 -0.25 116.03279876708984 119.72129821777344">
  <!-- Exported by Scratch - http://scratch.mit.edu/ -->
  <path id="ID0.4059793520718813" fill="#522828" stroke="#000000" stroke-width="2" d="M 58.65 22.9 C 68.761 22.9 77.924 27.007 84.559 33.641 C 91.193 40.276 95.3 49.439 95.3 59.55 C 95.3 69.661 91.193 78.824 84.559 85.459 C 77.924 92.093 68.761 96.2 58.65 96.2 C 48.539 96.2 39.376 92.093 32.741 85.459 C 26.107 78.824 22 69.661 22 59.55 C 22 49.439 26.107 40.276 32.741 33.641 C 39.376 27.007 48.539 22.9 58.65 22.9 Z "/>
  <path id="ID0.06171654677018523" fill="#6D4F27" stroke="none" d="M 32.2964 58.1182 C 33.8968 57.4053 35.8026 57.7835 37.5896 58.969 C 39.3757 60.1548 41.0434 62.1488 42.166 64.669 C 43.2887 67.1893 43.6556 69.7627 43.3425 71.8836 C 43.0285 74.0049 42.035 75.6747 40.4346 76.3876 C 38.8342 77.1005 36.9284 76.7223 35.1414 75.5368 C 33.3553 74.351 31.6877 72.357 30.565 69.8368 C 29.4423 67.3165 29.0754 64.7431 29.3885 62.6222 C 29.7025 60.5009 30.696 58.8311 32.2964 58.1182 Z " stroke-width="0.9999999941965036"/>
  <path id="ID0.06171654677018523" fill="#6D4F27" stroke="none" d="M 81.1099 67.9952 C 82.592 69.6862 83.0915 71.9569 82.7032 74.2599 C 82.314 76.5619 81.0363 78.897 78.9614 80.7155 C 76.8866 82.534 74.4042 83.4946 72.071 83.5786 C 69.7369 83.6616 67.5514 82.8687 66.0692 81.1777 C 64.5871 79.4866 64.0876 77.216 64.4759 74.9129 C 64.8651 72.6109 66.1428 70.2759 68.2177 68.4573 C 70.2926 66.6388 72.775 65.6782 75.1082 65.5942 C 77.4422 65.5112 79.6278 66.3041 81.1099 67.9952 Z " stroke-width="1.1504957831389895"/>
  <path id="ID0.06171654677018523" fill="#6D4F27" stroke="none" d="M 65.491 46.6548 C 65.6635 49.2208 64.7013 51.6204 63.0086 53.4261 C 61.3158 55.2304 58.8916 56.4409 56.1388 56.6259 C 53.386 56.811 50.8215 55.9359 48.9024 54.3744 C 46.9833 52.8115 45.7086 50.5623 45.536 47.9963 C 45.3635 45.4303 46.3258 43.0307 48.0184 41.225 C 49.7112 39.4207 52.1355 38.2102 54.8883 38.0251 C 57.6411 37.8401 60.2055 38.7152 62.1246 40.2766 C 64.0438 41.8396 65.3185 44.0887 65.491 46.6548 Z " stroke-width="1.2559541700053596"/>
  <path id="ID0.06171654677018523" fill="#6D4F27" stroke="none" d="M 83.8116 41.4659 C 84.5367 41.1429 85.4973 41.5321 86.4636 42.4209 C 87.4296 43.31 88.4016 44.6993 89.1491 46.3773 C 89.8966 48.0554 90.2792 49.7072 90.2941 51.02 C 90.3085 52.3329 89.9554 53.3073 89.2303 53.6303 C 88.5052 53.9533 87.5446 53.564 86.5783 52.6752 C 85.6124 51.7861 84.6403 50.3968 83.8928 48.7188 C 83.1453 47.0407 82.7627 45.3889 82.7478 44.0762 C 82.7334 42.7633 83.0865 41.7889 83.8116 41.4659 Z " stroke-width="0.5694827624778586"/>
  <path id="ID0.033297700341790915_9_" fill="none" d="M 0.5 0.75 L 114.5328 0.75 L 114.5328 118.4713 L 0.5 118.4713 L 0.5 0.75 Z " stroke-width="1.084480332450292"/>
</svg>