<svg xmlns="http://www.w3.org/2000/svg" xmlns:xlink="http://www.w3.org/1999/xlink" version="1.1" width="257.4510192871094" height="205.093994140625" viewBox="0.30000001192092896 -0.5 257.4510192871094 205.093994140625">
  <!-- Exported by Scratch - http://scratch.mit.edu/ -->
  <path id="ID0.058502851985394955" d="M 164.616 111.54 C 163.584 111.778 162.142 111.94 160.845 112.049 C 161.137 112.748 161.351 113.498 161.426 114.311 C 161.53 115.435 161.384 116.733 160.945 118.099 C 161.545 118.303 162.193 118.49 162.86 118.62 C 165.411 119.224 167.17 119.255 167.187 119.255 C 167.574 119.261 167.882 119.578 167.877 119.964 C 167.872 120.348 167.561 120.655 167.178 120.655 C 167.175 120.655 167.172 120.655 167.169 120.655 C 167.093 120.654 165.25 120.625 162.564 119.987 C 161.817 119.841 161.099 119.633 160.437 119.406 C 158.109 124.541 151.513 130.167 137.889 131.16 C 119.387 132.51 105.494 125.861 100.004 114.002 C 99.415 112.722 99.047 111.442 98.839 110.178 C 98.519 110.181 98.153 110.183 97.762 110.183 C 96.688 110.183 95.445 110.167 94.576 110.109 C 92.744 109.988 88.912 109.125 88.75 109.088 C 88.373 109.003 88.137 108.628 88.222 108.251 C 88.307 107.873 88.686 107.639 89.059 107.723 C 89.098 107.732 92.947 108.599 94.669 108.713 C 95.749 108.786 97.489 108.788 98.673 108.779 C 98.587 107.533 98.654 106.309 98.838 105.122 C 97.913 104.382 96.538 103.36 94.806 102.319 C 91.193 100.126 89.095 99.453 89.075 99.446 C 88.706 99.33 88.501 98.937 88.617 98.569 C 88.732 98.2 89.125 97.995 89.492 98.11 C 89.583 98.138 91.753 98.828 95.53 101.121 C 97.009 102.01 98.219 102.873 99.144 103.583 C 100.791 96.769 105.873 91.53 106.237 91.188 L 106.29 72.762 L 117.794 82.44 C 117.794 82.44 122.269 81.278 126.858 81.641 C 128.557 81.748 131.61 82.327 133.087 82.61 L 135.814 81.737 L 143.816 75.669 L 145.226 87.126 C 145.226 87.126 150.818 92.45 152.312 95.858 C 154.742 101.497 154.316 105.776 154.316 105.776 C 154.316 105.776 158.085 107.456 160.147 110.699 C 161.531 110.596 163.202 110.429 164.313 110.174 C 166.85 109.633 168.73 108.35 168.749 108.337 C 169.068 108.117 169.504 108.197 169.723 108.516 C 169.943 108.834 169.863 109.27 169.544 109.49 C 169.457 109.547 167.411 110.943 164.616 111.54 Z M 257.251 0 L 0.8 0 L 0.8 204.094 L 257.251 204.094 L 257.251 0 Z " stroke-width="1" />
</svg>