<svg xmlns="http://www.w3.org/2000/svg" xmlns:xlink="http://www.w3.org/1999/xlink" xmlns:a="http://ns.adobe.com/AdobeSVGViewerExtensions/3.0/" version="1.1" x="0px" y="0px" width="44.0680046081543" height="61.599998474121094" viewBox="0 0 44.0680046081543 61.599998474121094" enable-background="new -9.631 -1.319 64 64" xml:space="preserve">
  <defs/>
  <g>
    <path fill="#594419" d="M24.134,60.6c-4.143,0-7.785-1.037-10.827-3.081c-3.044-2.045-5.393-5.087-6.981-9.039&#13;&#10;&#9;C4.783,44.641,4,39.914,4,34.431c0-4.434,0.469-8.468,1.39-11.989c0.938-3.589,2.318-6.62,4.102-9.014&#13;&#10;&#9;c1.815-2.437,4.053-4.307,6.653-5.558C18.726,6.629,21.69,6,24.957,6c3.167,0,6.011,0.636,8.456,1.889&#13;&#10;&#9;c2.459,1.263,4.354,2.871,5.633,4.781c1.305,1.951,1.967,3.886,1.967,5.751c0,1.344-0.502,2.564-1.486,3.63&#13;&#10;&#9;c-1.006,1.085-2.344,1.658-3.873,1.658c-1.303,0-2.518-0.411-3.613-1.218c-1.074-0.789-1.873-1.886-2.369-3.256&#13;&#10;&#9;c-0.406-1.063-1.047-1.912-1.945-2.57c-0.873-0.635-1.869-0.944-3.043-0.944c-0.935,0-1.858,0.271-2.821,0.83&#13;&#10;&#9;c-1.005,0.584-1.831,1.356-2.526,2.361c-1.114,1.617-1.898,4.313-2.34,8.037c0.796-0.6,1.619-1.107,2.467-1.521&#13;&#10;&#9;c2.037-0.993,4.337-1.498,6.832-1.498c2.383,0,4.621,0.455,6.656,1.352c2.031,0.897,3.834,2.188,5.359,3.838&#13;&#10;&#9;c1.52,1.646,2.707,3.604,3.527,5.822c0.818,2.201,1.23,4.532,1.23,6.928c0,3.484-0.813,6.699-2.414,9.554&#13;&#10;&#9;c-1.613,2.876-3.895,5.151-6.781,6.764C31.003,59.788,27.728,60.6,24.134,60.6L24.134,60.6z M24.271,33.617&#13;&#10;&#9;c-1.142,0-2.209,0.299-3.265,0.914c-1.049,0.613-1.876,1.487-2.53,2.672c-0.654,1.184-0.985,2.616-0.985,4.257&#13;&#10;&#9;c0,2.749,0.677,4.953,2.067,6.741c1.294,1.664,2.856,2.473,4.781,2.473c1.817,0,3.286-0.729,4.487-2.234&#13;&#10;&#9;c1.27-1.588,1.914-3.753,1.914-6.432c0-1.834-0.305-3.411-0.91-4.688c-0.582-1.233-1.346-2.14-2.334-2.771&#13;&#10;&#9;C26.515,33.922,25.46,33.617,24.271,33.617L24.271,33.617z" stroke-width="1"/>
    <linearGradient id="SVGID_1_" gradientUnits="userSpaceOnUse" x1="20.5332" y1="1" x2="20.5332" y2="55.5996">
      <stop offset="0" style="stop-color:#FFFFFF"/>
      <stop offset="1" style="stop-color:#FFD38F"/>
    </linearGradient>
    <path fill="url(#SVGID_1_)" stroke="#594419" stroke-width="2" d="M21.134,55.6c-4.143,0-7.785-1.037-10.827-3.081&#13;&#10;&#9;c-3.044-2.045-5.393-5.087-6.981-9.039C1.783,39.641,1,34.914,1,29.431c0-4.434,0.469-8.468,1.39-11.989&#13;&#10;&#9;c0.938-3.589,2.318-6.62,4.102-9.014c1.815-2.437,4.053-4.307,6.653-5.558C15.726,1.629,18.69,1,21.957,1&#13;&#10;&#9;c3.167,0,6.011,0.636,8.456,1.889c2.459,1.263,4.354,2.871,5.633,4.781c1.305,1.951,1.967,3.886,1.967,5.751&#13;&#10;&#9;c0,1.344-0.502,2.564-1.486,3.63c-1.006,1.085-2.344,1.658-3.873,1.658c-1.303,0-2.518-0.411-3.613-1.218&#13;&#10;&#9;c-1.074-0.789-1.873-1.886-2.369-3.256c-0.406-1.063-1.047-1.912-1.945-2.57c-0.873-0.635-1.869-0.944-3.043-0.944&#13;&#10;&#9;c-0.935,0-1.858,0.271-2.821,0.83c-1.005,0.584-1.831,1.356-2.526,2.361c-1.114,1.617-1.898,4.313-2.34,8.037&#13;&#10;&#9;c0.796-0.6,1.619-1.107,2.467-1.521c2.037-0.993,4.337-1.498,6.832-1.498c2.383,0,4.621,0.455,6.656,1.352&#13;&#10;&#9;c2.031,0.897,3.834,2.188,5.359,3.838c1.52,1.646,2.707,3.604,3.527,5.822c0.818,2.201,1.23,4.532,1.23,6.928&#13;&#10;&#9;c0,3.484-0.813,6.699-2.414,9.554c-1.613,2.876-3.895,5.151-6.781,6.764C28.003,54.788,24.728,55.6,21.134,55.6L21.134,55.6z&#13;&#10;&#9; M21.271,28.617c-1.142,0-2.209,0.299-3.265,0.914c-1.049,0.613-1.876,1.487-2.53,2.672c-0.654,1.184-0.985,2.616-0.985,4.257&#13;&#10;&#9;c0,2.749,0.677,4.953,2.067,6.741c1.294,1.664,2.856,2.473,4.781,2.473c1.817,0,3.286-0.729,4.487-2.234&#13;&#10;&#9;c1.27-1.588,1.914-3.753,1.914-6.432c0-1.834-0.305-3.411-0.91-4.688c-0.582-1.233-1.346-2.14-2.334-2.771&#13;&#10;&#9;C23.515,28.922,22.46,28.617,21.271,28.617L21.271,28.617z"/>
  </g>
</svg>