<svg version="1.1" xmlns="http://www.w3.org/2000/svg" xmlns:xlink="http://www.w3.org/1999/xlink" width="597.98493" height="476.40087" viewBox="0,0,597.98493,476.40087"><defs><linearGradient x1="117.84008" y1="62.54944" x2="117.84008" y2="159.10215" gradientUnits="userSpaceOnUse" id="color-1"><stop offset="0" stop-color="#ffffff"/><stop offset="1" stop-color="#c1c1c1"/></linearGradient><linearGradient x1="288.94988" y1="-8.10378" x2="288.94988" y2="228.85415" gradientUnits="userSpaceOnUse" id="color-2"><stop offset="0" stop-color="#ffffff"/><stop offset="1" stop-color="#c1c1c1"/></linearGradient><linearGradient x1="235.50002" y1="-88.32544" x2="235.50002" y2="383.60178" gradientUnits="userSpaceOnUse" id="color-3"><stop offset="0" stop-color="#0c556e"/><stop offset="1" stop-color="#002734"/></linearGradient></defs><g transform="translate(63.49245,88.32544)"><g data-paper-data="{&quot;isPaintingLayer&quot;:true}" fill-rule="nonzero" stroke-width="2" stroke-linejoin="miter" stroke-miterlimit="10" stroke-dasharray="" stroke-dashoffset="0" style="mix-blend-mode: normal"><g stroke="none"><path d="M-28.19183,159.10215v-96.55272h292.06371v96.55272z" fill="url(#color-1)" stroke-linecap="butt"/><path d="M147.09719,-8.10378l283.70551,157.62939l-281.13265,79.32851z" fill="url(#color-2)" stroke-linecap="round"/></g><path d="M530.51032,145.42244c0,78.13235 14.79105,179.28341 -59.21067,221.19231c-47.06336,26.65313 -167.62486,10.25119 -229.64055,10.25119c-52.46511,0 -213.31989,16.84612 -255.72522,-2.74406c-86.53467,-39.97681 -33.12587,-142.91471 -33.12587,-228.69953c0,-72.11276 -9.81293,-164.5763 54.71103,-207.02255c49.84735,-32.79149 164.61177,-24.42096 234.14019,-24.42096c74.76746,0 201.15566,-13.30779 252.44923,24.03863c58.14932,42.33815 36.40184,139.48996 36.40184,207.40489z" fill="url(#color-3)" stroke="none" stroke-linecap="butt"/><path d="M128.21213,-77.16049l-168.39328,130.29595" fill="none" stroke="#0b5973" stroke-linecap="round"/><path d="M242.54962,-83.8236l-281.92981,219.77777" fill="none" stroke="#0b5973" stroke-linecap="round"/><path d="M-38.57912,208.75367l405.72319,-289.91219" fill="none" stroke="#0b5973" stroke-linecap="round"/><path d="M456.22763,-66.73169l-510.99694,372.33097" fill="none" stroke="#0b5973" stroke-linecap="round"/><path d="M512.85696,-27.99742c0,0 -125.15196,94.82736 -199.70554,151.31646c-94.87727,71.88826 -323.42802,245.06063 -323.42802,245.06063" fill="none" stroke="#0a556e" stroke-linecap="round"/><path d="M56.06209,387.07543l469.73244,-346.28101" fill="none" stroke="#0c698b" stroke-linecap="round"/><path d="M521.74096,125.61694l-353.22108,254.10438" fill="none" stroke="#0c698b" stroke-linecap="round"/><path d="M520.11465,196.41255c0,0 -30.85933,27.37269 -134.71102,102.77356c-94.77764,68.81266 -106.85332,77.18876 -106.85332,77.18876" fill="none" stroke="#0c698b" stroke-linecap="round"/><path d="M371.37209,383.33415c59.40665,-43.63912 93.9549,-68.29197 150.76248,-109.53663" fill="none" stroke="#0c698b" stroke-linecap="round"/></g></g></svg>