<svg version="1.1" xmlns="http://www.w3.org/2000/svg" xmlns:xlink="http://www.w3.org/1999/xlink" width="81.901" height="96.26504" viewBox="0,0,81.901,96.26504"><g transform="translate(-200,-137)"><g data-paper-data="{&quot;isPaintingLayer&quot;:true}" fill="none" fill-rule="nonzero" stroke="none" stroke-width="none" stroke-linecap="none" stroke-linejoin="none" stroke-miterlimit="10" stroke-dasharray="" stroke-dashoffset="0" font-family="none" font-weight="none" font-size="none" text-anchor="none" style="mix-blend-mode: normal"><path d="M226.989,192.664c1.099,2.8 3.199,7.8 3.199,7.8c0,0 -3.9,-1.601 -6.4,-0.3c-2.5,1.299 -1.199,5.799 -2.5,4.399c-0.898,-1.599 -2.299,-4.2 -2.5,-7.899c-0.099,-3.7 2.201,-8.2 4.301,-8.4c2.199,0 3,1.799 3.9,4.4z" id="ID0.914295740891248_29_" fill="#ffffff" stroke="none" stroke-width="1" stroke-linecap="butt" stroke-linejoin="miter"/><path d="M249.088,206.862c0.699,0.7 2.1,1.901 -1,4.801c-3.099,2.9 -10.099,2 -10.9,1.8c-3,-0.6 -6.799,-1.5 -10.6,-3.9c-11,-6.8 -8,-20 -3.699,-21.2c4.299,-1.199 4.1,7.301 8.299,13.5c1.901,2.801 4.5,4.301 6.801,5.301c3.199,1.5 10.401,-0.9 11.099,-0.302z" id="ID0.40227043256163597_29_" fill="none" stroke="#8e5322" stroke-width="1.4" stroke-linecap="round" stroke-linejoin="round"/><path d="M248.699,197.9l-1,14.601c0,0 1.301,-1.2 -2.4,3.1c-2.199,2.5 -16.699,2.2 -19.898,-2c-2.201,-2.9 0,-19 0,-19z" id="ID0.26344340899959207_29_" fill="#518943" stroke="#426c36" stroke-width="1.4" stroke-linecap="round" stroke-linejoin="round"/><path d="M228.501,182.601c1.436,0 2.734,0.829 3.676,2.169c0.941,1.339 1.523,3.188 1.523,5.231c0,2.041 -0.582,3.892 -1.523,5.23c-0.941,1.34 -2.24,2.169 -3.676,2.169c-1.436,0 -2.734,-0.829 -3.676,-2.169c-0.941,-1.339 -1.525,-3.189 -1.525,-5.23c0,-2.043 0.584,-3.893 1.525,-5.231c0.942,-1.34 2.24,-2.169 3.676,-2.169z" id="ID0.2414738917723298_29_" fill="#fefbdf" stroke="#70715e" stroke-width="1.4" stroke-linecap="round" stroke-linejoin="round"/><path d="M228.501,185.9c0.771,0 1.473,0.459 1.979,1.202c0.508,0.742 0.82,1.768 0.82,2.898c0,1.13 -0.313,2.156 -0.82,2.897c-0.506,0.743 -1.207,1.202 -1.979,1.202c-0.772,0 -1.473,-0.459 -1.979,-1.202c-0.508,-0.741 -0.822,-1.767 -0.822,-2.897c0,-1.13 0.314,-2.156 0.822,-2.898c0.506,-0.743 1.207,-1.202 1.979,-1.202z" id="ID0.6192030962556601_29_" fill="#fefbdf" stroke="#70715e" stroke-width="1.4" stroke-linecap="round" stroke-linejoin="round"/><path d="M227.7,212.101c-1,-0.901 -0.299,-6.8 -0.299,-6.8l6.5,1.3l-0.5,7.7c0,0 -4.8,-1.401 -5.701,-2.2z" id="ID0.15330331353470683_29_" fill="#518943" stroke="#426c36" stroke-width="1.4" stroke-linecap="round" stroke-linejoin="round"/><path d="M249.401,209.7c0,0 -1.701,5.5 -0.9,14.301c0.299,3.8 7.4,-0.5 6.9,6.899c-0.201,2.101 -9.4,1.9 -11.5,1.101c-1.9,-0.7 -2.4,-1.4 -2.102,-3.4c1.102,-7.3 -2.6,-15.7 -2.6,-15.7" id="ID0.007584026083350182_31_" fill="#ffffff" stroke="#8e5322" stroke-width="1.4" stroke-linecap="round" stroke-linejoin="round"/><path d="M247.7,225.901c1.5,-0.3 2.801,-0.1 2.801,-0.1" id="ID0.31672530295327306_31_" fill="#faa51f" stroke="#8e5322" stroke-width="1.4" stroke-linecap="round" stroke-linejoin="round"/><path d="M250.2,198.801c0,6.7 1.701,16.5 -10.199,16.5c-11.9,0 -10.801,-9 -10.801,-15.7c0,-6.7 4.1,-8.5 10.801,-8.5c6.699,0 10.199,1 10.199,7.7z" id="ID0.46792364912107587_29_" fill="#ffffff" stroke="#8e5322" stroke-width="1.4" stroke-linecap="round" stroke-linejoin="round"/><path d="M246.601,201.7c0,4.2 0.9,10.5 -5.5,10.5c-6.4,0 -5.9,-5.699 -5.9,-9.899c0,-4.2 2.201,-5.4 5.9,-5.4c3.699,0 5.5,0.6 5.5,4.799z" id="ID0.38032895559445024_29_" fill="#bababa" stroke="none" stroke-width="1" stroke-linecap="butt" stroke-linejoin="miter"/><path d="M239.299,215.599c0,0 -1.5,9.1 -1.199,13.3c0.199,2.101 -0.599,3.201 -2.699,3.601c-2.201,0.4 -9.8,0.6 -9.9,-1.9c-0.4,-7.599 5.199,-2.9 5.799,-6.7c1.301,-8.7 -1.299,-14.2 -1.299,-14.2" id="ID0.527006761636585_30_" fill="#ffffff" stroke="#8e5322" stroke-width="1.4" stroke-linecap="round" stroke-linejoin="round"/><path d="M228.901,225.7c0,0 1.6,-0.199 3,0.2" id="ID0.8937406223267317_41_" fill="#faa51f" stroke="#8e5322" stroke-width="1.4" stroke-linecap="round" stroke-linejoin="round"/><path d="M223.501,209.001c-4.1,-2.301 -0.4,-13 6.4,-18.4l7.898,1.4" id="ID0.15909873321652412_27_" fill="#ffffff" stroke="#8e5322" stroke-width="1.4" stroke-linecap="round" stroke-linejoin="round"/><path d="M232.3,198.4l-2.699,4.101" id="ID0.8143284288235009_27_" fill="#faa51f" stroke="#8e5322" stroke-width="1.4" stroke-linecap="round" stroke-linejoin="round"/><path d="M229.601,202.501l-1.2,-0.301" id="ID0.6682511982508004_27_" fill="none" stroke="#8e5322" stroke-width="1.4" stroke-linecap="round" stroke-linejoin="round"/><path d="M246.86,193.137l4.257,-0.142c4.986,3.484 9.085,12.903 3.419,16.087" id="ID0.30105241015553474_27_" fill="#ffffff" stroke="#8e5322" stroke-width="1.4" stroke-linecap="round" stroke-linejoin="round"/><path d="M249.497,199.135l0.604,3.812" id="ID0.7841392233967781_27_" fill="#faa51f" stroke="#8e5322" stroke-width="1.4" stroke-linecap="round" stroke-linejoin="round"/><path d="M250.101,202.947l1.133,-0.153" id="ID0.4326359131373465_27_" fill="none" stroke="#8e5322" stroke-width="1.4" stroke-linecap="round" stroke-linejoin="round"/><path d="M229.124,212.345c4.803,-5.26 2.803,-13.26 0.803,-19.26c2,1 2.238,0.582 3.238,1.582c2,7 3.366,16.886 -3.463,21.001" id="ID0.48627097019925714_29_" fill="#518943" stroke="#426c36" stroke-width="1.4" stroke-linecap="round" stroke-linejoin="round"/><path d="M248.171,207.322c2.755,-5.237 0.755,-12.237 -4.245,-14.237c8.001,1 8.001,9 6.813,15.134" id="ID0.07006075512617826_29_" fill="#518943" stroke="#426c36" stroke-width="1.4" stroke-linecap="round" stroke-linejoin="round"/><path d="M239.701,145.9c1.5,-0.1 4.6,-0.3 6.299,-0.2c4.602,0.2 8.9,1.9 8.9,1.9l12.6,-8.2l-2.199,18.3c-0.6,-0.8 10.199,12.4 3.4,23.4c-6.9,11.1 -21.5,16 -39.701,12.4c-18.199,-3.6 -22.499,-14.1 -21.3,-19.6c1.201,-5.5 8.101,-7.6 8.101,-7.6c0,0 0.1,-4.3 3.199,-9.601c1.9,-3.199 8.102,-7.8 8.102,-7.8l2.798,-11.199l7.201,7z" id="ID0.2591130444779992_29_" fill="#faa51f" stroke="none" stroke-width="1" stroke-linecap="butt" stroke-linejoin="miter"/><path d="M216.701,166.2l2.4,-2l8.799,2.601c0,0 0,3.3 4.201,4.2c4.199,0.899 11.299,-0.7 11.299,-0.7l7.1,1.8c0,0 8.102,-0.5 8.5,5.9c0.701,11.1 -8.6,16.399 -17.1,16.3c-5.5,0 -9,-0.7 -12.9,-1.4c-17.199,-3.1 -22.099,-13.5 -20.599,-19c1.199,-5.5 7.8,-7.1 7.8,-7.1z" id="ID0.3588979784399271_29_" fill="#ffffff" stroke="none" stroke-width="1" stroke-linecap="butt" stroke-linejoin="miter"/><path d="M211.701,171.601c0,0 -4.399,-0.7 -6.601,-1.5c-2.6,-0.9 -4.4,-2.5 -4.4,-2.5" id="ID0.2727069961838424_29_" fill="none" stroke="#8e5322" stroke-width="1.4" stroke-linecap="round" stroke-linejoin="round"/><path d="M211.201,177.4c0,0 -2.601,1.101 -5.399,1.3c-2.701,0.301 -4.5,0.101 -4.5,0.101" id="ID0.5861211125738919_29_" fill="none" stroke="#8e5322" stroke-width="1.4" stroke-linecap="round" stroke-linejoin="round"/><path d="M252,149.7l5.201,-3.599" id="ID0.4793355236761272_29_" fill="none" stroke="#8e5322" stroke-width="1.4" stroke-linecap="round" stroke-linejoin="round"/><path d="M239.701,145.9c1.5,-0.1 4.6,-0.3 6.299,-0.2c4.602,0.2 8.9,1.9 8.9,1.9l12.6,-8.2l-2.199,18.3c-0.6,-0.8 10.199,12.4 3.4,23.4c-6.9,11.1 -21.5,16 -39.701,12.4c-18.199,-3.6 -22.499,-14.1 -21.3,-19.6c1.201,-5.5 8.101,-7.6 8.101,-7.6c0,0 0.1,-4.3 3.199,-9.601c1.9,-3.199 8.102,-7.8 8.102,-7.8l2.798,-11.199l7.201,7z" id="ID0.48413723474368453_29_" fill="none" stroke="#8e5322" stroke-width="1.4" stroke-linecap="round" stroke-linejoin="round"/><path d="M280.4,176.9c0,0 -4,0.4 -5.799,0.3c-1.801,-0.1 -5.301,-0.6 -5.301,-0.6" id="ID0.9024141579866409_29_" fill="none" stroke="#8e5322" stroke-width="1.4" stroke-linecap="round" stroke-linejoin="round"/><path d="M269.102,172.801c0,0 2.299,-1.7 5.898,-3.3c4,-1.801 6.201,-2.2 6.201,-2.2" id="ID0.16030752705410123_29_" fill="none" stroke="#8e5322" stroke-width="1.4" stroke-linecap="round" stroke-linejoin="round"/><path d="M233.201,152.101c2.699,1.7 2.6,6.7 -0.201,11c-2.799,4.4 -7.299,6.5 -10,4.7c-2.699,-1.7 -2.6,-6.7 0.201,-11c2.799,-4.3 7.299,-6.401 10,-4.7z" id="ID0.40023312577977777_29_" fill="#ffffff" stroke="#8e5322" stroke-width="1.4" stroke-linecap="round" stroke-linejoin="round"/><path d="M225.301,160.4c0.301,-1 1.199,-1.599 2.199,-1.399c1,0.3 1.5,1.3 1.201,2.3c-0.301,1.099 -1.301,1.7 -2.201,1.399c-1,-0.3 -1.5,-1.3 -1.199,-2.3" id="ID0.43813491938635707_29_" fill="#414142" stroke="none" stroke-width="1" stroke-linecap="butt" stroke-linejoin="miter"/><path d="M257.3,155.8c3.199,2.1 3.5,7.3 0.699,11.6c-2.798,4.401 -7.699,6.201 -10.898,4.101c-3.201,-2.101 -3.5,-7.301 -0.701,-11.601c2.801,-4.299 7.702,-6.099 10.9,-4.1z" id="ID0.4253597157076001_29_" fill="#ffffff" stroke="#8e5322" stroke-width="1.4" stroke-linecap="round" stroke-linejoin="round"/><path d="M249.701,163.801c0,-1.101 0.799,-1.9 1.699,-1.9c0.9,0 1.701,0.9 1.701,1.9c0,1.099 -0.701,1.899 -1.701,1.899c-0.9,0 -1.699,-0.899 -1.699,-1.899" id="ID0.814307457767427_29_" fill="#414142" stroke="none" stroke-width="1" stroke-linecap="butt" stroke-linejoin="miter"/><path d="M239.899,170.501c0.1,1.5 -3.4,4 -5.4,3.899c-1.798,-0.099 -3.398,-3.399 -3.398,-4.2c0.299,-1.899 2.6,-0.599 4.299,-0.399c1.5,0.2 4.399,-0.8 4.499,0.7z" id="ID0.5240494590252638_29_" fill="#5f4b43" stroke="#8e5322" stroke-width="1.4" stroke-linecap="round" stroke-linejoin="round"/><path d="M243.552,185.563c0,0 -2.699,2.064 -7.975,0.477" id="ID0.046259244438260794_29_" fill="#ffffff" stroke="#8e5322" stroke-width="1.4" stroke-linecap="round" stroke-linejoin="round"/><path d="M227.401,202.2c5.6,-1.8 8.6,1.301 8.5,3c-0.201,4 -3.9,5.701 -12.4,3.801" id="ID0.1790580078959465_31_" fill="#ffffff" stroke="#8e5322" stroke-width="1.4" stroke-linecap="round" stroke-linejoin="round"/><path d="M254.501,209.001c-5.201,4.3 -9.1,0.7 -7.801,-2.4c0.901,-2.201 2.401,-4.5 5.6,-3.1" id="ID0.7947451807558537_27_" fill="#ffffff" stroke="#8e5322" stroke-width="1.4" stroke-linecap="round" stroke-linejoin="round"/></g></g></svg>