<svg version="1.1" xmlns="http://www.w3.org/2000/svg" xmlns:xlink="http://www.w3.org/1999/xlink" width="87.29038" height="207.0618" viewBox="0,0,87.29038,207.0618"><defs><linearGradient x1="231.84825" y1="223.86424" x2="231.84825" y2="272.5309" gradientUnits="userSpaceOnUse" id="color-1"><stop offset="0" stop-color="#213fff"/><stop offset="1" stop-color="#003580"/></linearGradient><linearGradient x1="251.18158" y1="224.19757" x2="251.18158" y2="272.86424" gradientUnits="userSpaceOnUse" id="color-2"><stop offset="0" stop-color="#213fff"/><stop offset="1" stop-color="#003580"/></linearGradient><linearGradient x1="241.37361" y1="165.28772" x2="241.37361" y2="231.20642" gradientUnits="userSpaceOnUse" id="color-3"><stop offset="0" stop-color="#00ffff"/><stop offset="1" stop-color="#00a1ab"/></linearGradient><linearGradient x1="241.36387" y1="95.21574" x2="241.36387" y2="173.1794" gradientUnits="userSpaceOnUse" id="color-4"><stop offset="0" stop-color="#ffe4ba"/><stop offset="1" stop-color="#ddb980"/></linearGradient><linearGradient x1="239.84062" y1="77.4691" x2="239.84062" y2="119.49912" gradientUnits="userSpaceOnUse" id="color-5"><stop offset="0" stop-color="#00ffff"/><stop offset="1" stop-color="#00a1ab"/></linearGradient><linearGradient x1="240.72145" y1="97.17906" x2="240.72145" y2="149.62497" gradientUnits="userSpaceOnUse" id="color-6"><stop offset="0" stop-color="#00ffff"/><stop offset="1" stop-color="#00a1ab"/></linearGradient><linearGradient x1="230.84825" y1="265.86424" x2="230.84825" y2="281.5309" gradientUnits="userSpaceOnUse" id="color-7"><stop offset="0" stop-color="#00e6ff"/><stop offset="1" stop-color="#0095c3"/></linearGradient><linearGradient x1="254.51491" y1="266.86424" x2="254.51491" y2="282.5309" gradientUnits="userSpaceOnUse" id="color-8"><stop offset="0" stop-color="#00e6ff"/><stop offset="1" stop-color="#0095c3"/></linearGradient><linearGradient x1="249.04327" y1="174.99373" x2="239.05652" y2="158.83004" gradientUnits="userSpaceOnUse" id="color-9"><stop offset="0" stop-color="#ffe4ba"/><stop offset="1" stop-color="#ddb980"/></linearGradient><linearGradient x1="269.34185" y1="205.94477" x2="247.79151" y2="171.06523" gradientUnits="userSpaceOnUse" id="color-10"><stop offset="0" stop-color="#00ffff"/><stop offset="1" stop-color="#00a1ab"/></linearGradient><linearGradient x1="249.2222" y1="174.98113" x2="245.98089" y2="169.73502" gradientUnits="userSpaceOnUse" id="color-11"><stop offset="0" stop-color="#00ffff"/><stop offset="1" stop-color="#00a1ab"/></linearGradient><linearGradient x1="213.54038" y1="197.8416" x2="243.16754" y2="169.50026" gradientUnits="userSpaceOnUse" id="color-12"><stop offset="0" stop-color="#00ffff"/><stop offset="1" stop-color="#00a1ab"/></linearGradient><linearGradient x1="238.83708" y1="173.41212" x2="252.56674" y2="160.27834" gradientUnits="userSpaceOnUse" id="color-13"><stop offset="0" stop-color="#ffe4ba"/><stop offset="1" stop-color="#ddb980"/></linearGradient><linearGradient x1="239.34228" y1="174.30191" x2="243.7984" y2="170.0392" gradientUnits="userSpaceOnUse" id="color-14"><stop offset="0" stop-color="#00ffff"/><stop offset="1" stop-color="#00a1ab"/></linearGradient></defs><g transform="translate(-196.35481,-76.4691)"><g data-paper-data="{&quot;isPaintingLayer&quot;:true}" fill-rule="nonzero" stroke-linejoin="miter" stroke-miterlimit="10" stroke-dasharray="" stroke-dashoffset="0" style="mix-blend-mode: normal"><path d="M223.18158,272.5309v-48.66667h17.33334v48.66667z" fill="url(#color-1)" stroke="#000000" stroke-width="2" stroke-linecap="butt"/><path d="M242.51491,272.86424v-48.66667h17.33333v48.66667z" fill="url(#color-2)" stroke="#000000" stroke-width="2" stroke-linecap="butt"/><path d="M222.3207,231.20642v-65.91871h38.10583v65.91871z" fill="url(#color-3)" stroke="#000000" stroke-width="2" stroke-linecap="butt"/><path d="M241.36387,173.1794c-22.79904,0 -41.28132,-17.45276 -41.28132,-38.98183c0,-21.52907 18.48228,-38.98183 41.28132,-38.98183c22.79904,0 41.28132,17.45276 41.28132,38.98183c0,21.52907 -18.48228,38.98183 -41.28132,38.98183z" fill="url(#color-4)" stroke="#000000" stroke-width="2" stroke-linecap="butt"/><path d="M229.24335,162.00615c-4.35419,0 -7.88396,-4.22835 -7.88396,-9.44427c0,-5.21593 3.52976,-9.44427 7.88396,-9.44427c4.35419,0 7.88396,4.22835 7.88396,9.44427c0,5.21593 -3.52976,9.44427 -7.88396,9.44427z" fill="#000000" stroke="#000000" stroke-width="2" stroke-linecap="butt"/><path d="M250.09661,160.5215c-4.3542,0 -7.88397,-3.85525 -7.88397,-8.61094c0,-4.75569 3.52977,-8.61093 7.88397,-8.61093c4.35419,0 7.88396,3.85524 7.88396,8.61093c0,4.75569 -3.52976,8.61094 -7.88396,8.61094z" fill="#000000" stroke="#000000" stroke-width="2" stroke-linecap="butt"/><path d="M228.92366,148.47824c0,-1.38071 1.11929,-2.5 2.5,-2.5c1.38071,0 2.5,1.11929 2.5,2.5c0,1.38071 -1.11929,2.5 -2.5,2.5c-1.38071,0 -2.5,-1.11929 -2.5,-2.5z" fill="#ffffff" stroke="none" stroke-width="0.5" stroke-linecap="butt"/><path d="M249.57557,148.81158c0,-1.38071 1.11929,-2.5 2.5,-2.5c1.38071,0 2.5,1.11929 2.5,2.5c0,1.38071 -1.11929,2.5 -2.5,2.5c-1.38071,0 -2.5,-1.11929 -2.5,-2.5z" fill="#ffffff" stroke="none" stroke-width="0.5" stroke-linecap="butt"/><path d="M223.68305,123.75696l8.32196,-0.219" fill="none" stroke="#000000" stroke-width="2" stroke-linecap="round"/><path d="M246.85826,121.54763l6.56997,-0.219" fill="none" stroke="#000000" stroke-width="2" stroke-linecap="round"/><path d="M241.15462,106.92079c-22.01287,0 -43.79981,9.30156 -43.79981,-2.30471c0,-11.60627 20.47294,-27.14698 42.48581,-27.14698c22.01287,0 41.60982,14.22672 41.60982,25.83299c0,11.60627 -18.28295,3.6187 -40.29582,3.6187z" fill="url(#color-5)" stroke="#000000" stroke-width="2" stroke-linecap="butt"/><path d="M241.37361,101.55899c-4.95894,0 -8.97896,-3.67684 -8.97896,-8.21246c0,-4.53561 4.02002,-8.21246 8.97896,-8.21246c4.95894,0 8.97896,3.67684 8.97896,8.21246c0,4.53561 -4.02002,8.21246 -8.97896,8.21246z" fill="#ffffff" stroke="#000000" stroke-width="2" stroke-linecap="butt"/><path d="M240.72144,149.62497c-17.8401,0 -32.30236,-11.7404 -32.30236,-26.22299c0,-14.48252 14.46226,-26.22299 32.30236,-26.22299c17.8401,0 32.30236,11.7404 32.30236,26.22299c0,14.48252 -14.46226,26.22299 -32.30236,26.22299z" fill="url(#color-6)" stroke="#000000" stroke-width="2" stroke-linecap="butt"/><text transform="matrix(0.22735 0 0 0.22735 235.67964 89.50416)" font-size="40"  fill="#00ffff" fill-rule="nonzero" stroke="none" stroke-width="1" stroke-linecap="butt" stroke-linejoin="miter" stroke-miterlimit="10" stroke-dasharray="" stroke-dashoffset="0" font-family="Helvetica" font-weight="normal" text-anchor="start" style="mix-blend-mode: normal" >CP</text><text transform="matrix(0.60554 0 0 0.60554 227.13868 186.87113)" font-size="40"  fill="#006f6f" fill-rule="nonzero" stroke="none" stroke-width="1" stroke-linecap="butt" stroke-linejoin="miter" stroke-miterlimit="10" stroke-dasharray="" stroke-dashoffset="0" font-family="Helvetica" font-weight="normal" text-anchor="start" style="mix-blend-mode: normal" >CP</text><path d="M230.84824,281.5309c-7.54789,0 -13.66667,-3.5071 -13.66667,-7.83333c0,-4.32623 6.11878,-7.83333 13.66667,-7.83333c7.54789,0 13.66667,3.5071 13.66667,7.83333c0,4.32623 -6.11878,7.83333 -13.66667,7.83333z" fill="url(#color-7)" stroke="#000000" stroke-width="2" stroke-linecap="butt"/><path d="M254.51492,282.5309c-7.54789,0 -13.66666,-3.5071 -13.66666,-7.83333c0,-4.32623 6.11877,-7.83333 13.66666,-7.83333c7.54789,0 13.66666,3.5071 13.66666,7.83333c0,4.32623 -6.11877,7.83333 -13.66666,7.83333z" fill="url(#color-8)" stroke="#000000" stroke-width="2" stroke-linecap="butt"/><path d="M232.05259,170.16684c-6.73216,0 -12.18959,-0.93275 -12.18959,-2.0835c0,-1.15068 5.45747,-2.0835 12.18959,-2.0835c6.73216,0 12.18959,0.93275 12.18959,2.0835c0,1.15068 -5.45747,2.0835 -12.18959,2.0835z" fill="#ffffff" stroke="#000000" stroke-width="2" stroke-linecap="butt"/><g stroke="#000000" stroke-width="2" stroke-linecap="butt"><path d="M239.05652,158.83004c4.77671,-2.95129 10.8846,-1.72542 13.64236,2.73805c2.75776,4.46348 1.12107,10.47434 -3.65562,13.42563c-4.77669,2.95129 -10.88461,1.72541 -13.64236,-2.73805c-2.75777,-4.46349 -1.12107,-10.47434 3.65562,-13.42563z" fill="url(#color-9)"/><path d="M253.1794,167.73632l21.55035,34.87954l-10.7758,6.65783l-21.55035,-34.87954z" fill="url(#color-10)"/><path d="M245.9809,169.73502c3.95448,-2.44328 7.88581,-3.24957 8.78088,-1.8009c0.89507,1.44868 -1.58509,4.60372 -5.53958,7.047c-3.95449,2.44329 -7.88582,3.24958 -8.78088,1.80091c-0.89507,-1.44868 1.5851,-4.60373 5.53958,-7.04701z" fill="url(#color-11)"/></g><g stroke="#000000" stroke-width="2" stroke-linecap="butt"><path d="M247.54546,174.07682l-29.62715,28.34135l-8.75586,-9.1531l29.62715,-28.34135z" fill="url(#color-12)"/><path d="M252.56674,160.27834c3.88132,4.05741 3.95425,10.28667 0.16291,13.91347c-3.79134,3.6268 -10.01126,3.27772 -13.89256,-0.77967c-3.88132,-4.05741 -3.95425,-10.28667 -0.16291,-13.91347c3.79134,-3.6268 10.01126,-3.27772 13.89256,0.77967z" fill="url(#color-13)"/><path d="M243.7984,170.0392c3.21321,3.35899 4.82051,7.03623 3.58999,8.21336c-1.23052,1.17712 -4.83288,-0.59164 -8.04611,-3.95064c-3.21321,-3.35899 -4.82051,-7.03623 -3.58999,-8.21336c1.23052,-1.17712 4.83288,0.59164 8.04611,3.95064z" fill="url(#color-14)"/></g></g></g></svg>