<svg version="1.1" width="91" height="111" viewBox="-1 -1 91 111" xmlns="http://www.w3.org/2000/svg" xmlns:xlink="http://www.w3.org/1999/xlink">
  <!-- Exported by Scratch - http://scratch.mit.edu/ -->
  <g id="Layer_8">
    <path id="ID0.475567031186074" fill="#FAA51D" stroke="#231F20" stroke-width="1.2" d="M 23.754 82.506 C 20.883 81.104 13.243 79.988 8.983 75.811 C -0.448 66.565 5.159 54.079 9.687 54.014 C 13.298 53.953 13.050 59.496 14.309 65.159 C 15.184 69.098 15.982 72.147 20.716 74.833 C 25.451 77.521 27.634 77.749 27.634 77.749 C 27.634 77.749 30.892 78.540 29.230 80.311 C 27.568 82.076 23.754 82.506 23.754 82.506 Z " transform="matrix(1, 0, 0, 1, -3, 0)"/>
    <path id="ID0.8033728995360434" fill="#FFFFFF" d="M 14.291 66.369 C 14.176 65.910 14.069 65.441 13.961 64.956 C 12.789 59.685 13.020 54.524 9.658 54.579 C 6.225 54.629 2.128 62.350 5.468 69.864 C 5.661 69.721 5.867 69.528 6.037 69.276 C 6.488 68.612 6.858 66.307 8.691 65.588 C 9.989 65.082 12.778 65.869 14.291 66.369 Z " transform="matrix(1, 0, 0, 1, -3, 0)"/>
  </g>
  <path id="ID0.7088998830877244" fill="#FAA51D" stroke="#231F20" stroke-width="1.2" d="M 14.610 89.584 C 14.610 89.584 16.114 99.975 8.688 97.971 C 3.102 96.461 2.983 77.291 8.282 77.280 C 11.519 77.274 12.707 80.139 12.707 80.139 C 12.707 80.139 17.092 84.951 19.657 84.451 C 22.222 83.949 27.635 77.748 27.635 77.748 C 27.635 77.748 30.510 75.209 33.781 77.771 C 37.052 80.332 35.302 83.949 35.302 83.949 C 35.302 83.949 29.232 91.021 24.288 92.021 C 19.343 93.023 14.913 89.453 12.708 88.570 " transform="matrix(1, 0, 0, 1, -3, 0)"/>
  <g id="Layer_6">
    <path id="ID0.4310221769846976" fill="#FAA51D" stroke="#231F20" stroke-width="1.2" d="M 42.435 76.238 C 42.435 76.238 47.301 80.300 50.601 83.758 C 54.985 88.350 47.262 98.797 47.262 98.797 C 47.262 98.797 58.496 105.264 50.260 109.797 C 47.603 111.264 34.599 96.572 34.599 96.572 C 34.599 96.572 42.578 89.097 39.571 86.400 C 34.607 81.951 28.800 81.441 27.971 76.576 C 27.469 73.619 28.584 72.074 30.629 69.523 C 31.983 67.834 32.713 66.341 32.713 66.341 C 32.713 66.341 33.848 59.103 37.002 58.087 C 40.155 57.073 45.844 58.144 47.760 58.482 C 49.674 58.820 54.405 60.359 52.377 68.404 C 52.377 68.404 50.926 72.175 49.588 74.166 C 47.984 76.555 46.734 78.090 45.508 79.033 " transform="matrix(1, 0, 0, 1, -3, 0)"/>
    <path id="ID0.1372409937903285" fill="#FFFFFF" d="M 50.182 72.631 C 50.182 72.631 52.732 69.883 47.631 67.137 C 42.529 64.391 40.182 67.121 38.607 68.709 C 35.876 71.451 41.941 76.162 41.941 76.162 L 45.324 78.726 C 45.324 78.726 47.240 77.144 48.025 75.769 C 48.807 74.396 50.182 72.631 50.182 72.631 " transform="matrix(1, 0, 0, 1, -3, 0)"/>
  </g>
  <g id="Layer_2">
    <path id="ID0.4476120304316282" fill="#FAA51D" stroke="#231F20" stroke-width="1.2" d="M 51.709 10.156 C 50.169 10.013 46.959 9.840 45.191 9.925 C 40.463 10.150 35.967 11.853 35.967 11.853 L 22.949 3.357 L 25.184 22.263 C 25.830 21.481 14.629 35.067 21.705 46.487 C 28.785 57.913 43.938 63.005 62.693 59.279 C 81.448 55.551 85.922 44.748 84.679 39.033 C 83.437 33.319 76.357 31.210 76.357 31.210 C 76.357 31.210 76.267 26.730 73.029 21.240 C 71.103 17.972 64.681 13.199 64.681 13.199 L 61.822 1.647 L 54.370 8.851 L 51.709 10.156 Z " transform="matrix(1, 0, 0, 1, -3, 0)"/>
    <path id="ID0.7441424787975848" fill="#FFFFFF" d="M 75.420 31.066 L 72.937 29.002 L 63.822 31.663 C 63.822 31.663 63.822 35.082 59.455 36.030 C 55.085 36.981 48.244 33.753 48.244 33.753 L 40.460 37.170 C 40.460 37.170 32.023 38.098 31.721 43.251 C 31.048 54.704 45.100 59.478 50.425 59.783 C 53.330 59.950 58.660 59.446 62.702 58.643 C 80.454 55.408 85.253 44.723 84.011 39.008 C 82.769 33.294 76.034 31.812 76.034 31.812 L 75.420 31.066 Z " transform="matrix(1, 0, 0, 1, -3, 0)"/>
    <path id="ID0.4468932654708624" fill="none" stroke="#231F20" stroke-width="1.2" d="M 9.673 42.155 C 9.673 42.155 13.780 42.529 15.647 42.423 C 17.512 42.316 21.139 41.836 21.139 41.836 " transform="matrix(1, 0, 0, 1, -3, 0)"/>
    <path id="ID0.9366219025105238" fill="none" stroke="#231F20" stroke-width="1.2" d="M 80.656 36.671 C 80.656 36.671 85.205 35.928 87.515 35.122 C 90.230 34.180 92.058 32.577 92.058 32.577 " transform="matrix(1, 0, 0, 1, -3, 0)"/>
    <path id="ID0.6635733773000538" fill="none" stroke="#231F20" stroke-width="1.2" d="M 21.337 37.909 C 21.337 37.909 18.953 36.132 15.220 34.479 C 11.086 32.648 8.815 32.176 8.815 32.176 " transform="matrix(1, 0, 0, 1, -3, 0)"/>
    <path id="ID0.10924032470211387" fill="none" stroke="#231F20" stroke-width="1.2" d="M 81.117 42.622 C 81.117 42.622 83.843 43.726 86.650 44.007 C 89.420 44.283 91.297 44.117 91.297 44.117 " transform="matrix(1, 0, 0, 1, -3, 0)"/>
    <path id="ID0.22221685713157058" fill="none" stroke="#000000" stroke-linecap="round" d="M 51.349 10.212 C 54.189 10.912 55.237 11.681 55.237 11.681 " transform="matrix(1, 0, 0, 1, -3, 0)"/>
    <path id="ID0.0989679447375238" fill="none" stroke="#000000" d="M 32.898 9.684 L 38.956 14.042 " transform="matrix(1, 0, 0, 1, -3, 0)"/>
  </g>
  <g id="Layer_5">
    <path id="ID0.621504198294133" fill="#FFFFFF" stroke="#231F20" d="M 70.840 21.366 C 73.764 25.845 73.873 30.957 71.082 32.781 C 68.289 34.606 63.656 32.449 60.728 27.968 C 57.796 23.488 57.691 18.379 60.484 16.553 C 63.275 14.730 67.913 16.884 70.840 21.366 Z " transform="matrix(1, 0, 0, 1, -3, 0)"/>
    <path id="ID0.6615443737246096" fill="#231F20" d="M 70.089 28.522 C 70.089 29.602 69.287 30.478 68.289 30.478 C 67.296 30.478 66.486 29.601 66.486 28.522 C 66.486 27.442 67.296 26.564 68.289 26.564 C 69.287 26.564 70.089 27.442 70.089 28.522 " transform="matrix(1, 0, 0, 1, -3, 0)"/>
  </g>
  <g id="Layer_7">
    <path id="ID0.6135309096425772" fill="#FFFFFF" stroke="#231F20" d="M 46.867 24.619 C 49.793 29.099 49.486 34.481 46.186 36.634 C 42.884 38.793 37.835 36.906 34.910 32.426 C 31.982 27.946 32.286 22.566 35.588 20.409 C 38.891 18.253 43.938 20.137 46.867 24.619 Z " transform="matrix(1, 0, 0, 1, -3, 0)"/>
    <path id="ID0.6582768126390874" fill="#231F20" d="M 45.079 30.507 C 45.079 31.588 44.276 32.464 43.278 32.464 C 42.286 32.464 41.475 31.586 41.475 30.507 C 41.475 29.427 42.286 28.550 43.278 28.550 C 44.274 28.550 45.079 29.427 45.079 30.507 " transform="matrix(1, 0, 0, 1, -3, 0)"/>
  </g>
  <g id="ID0.482181778177619">
    <path id="ID0.5877763065509498" fill="#FAA51D" stroke="#231F20" stroke-width="1" d="M 29.926 73.218 C 30.675 72.647 32.815 71.016 34.780 69.561 C 37.208 67.762 40.897 63.712 35.857 61.915 C 30.817 60.114 28.350 63.519 24.338 66.861 C 22.179 68.662 19.030 69.560 20.019 73.070 C 21.012 76.581 24.881 86.478 31.808 83.240 C 38.737 80.001 30.009 74.060 28.748 72.083 " transform="matrix(-0.3970218300819397, -0.9178091883659363, 0.9178091883659363, -0.3970218300819397, 3.3, 122.2)"/>
    <path id="ID0.41703723231330514" fill="#FF0000" stroke="#000000" stroke-width="1" stroke-linecap="round" d="M 301.400 200 C 303.055 200 304.555 200.846 305.642 202.213 C 306.728 203.580 307.146 205.696 307.400 207.550 C 307.601 209.012 308.154 211.077 306.900 211.600 C 303.899 212.863 300.211 212.747 297.150 211.600 C 295.742 211.173 295.395 209.103 295.400 207.550 C 295.406 205.675 296.072 203.580 297.158 202.213 C 298.245 200.846 299.745 200 301.400 200 Z " transform="matrix(0.8689242601394653, 0.7368976473808289, -0.6467878818511963, 0.7626699209213257, -62.25, -316.75)"/>
  </g>
  <path id="ID0.4528502020984888" fill="#5E4A42" stroke="#000000" d="M 58.766 33.926 C 60.620 33.926 63.321 33.642 63.463 34.495 C 63.606 35.350 61.754 38.698 60.475 38.840 C 59.192 38.982 54.350 36.487 54.280 34.921 C 54.206 33.355 57.055 33.926 58.766 33.926 Z " transform="matrix(1, 0, 0, 1, -3, 0)"/>
  <g id="Layer_4">
    <path id="ID0.9094956321641803" fill="none" stroke="#231F20" stroke-width="1.2" d="M 45.774 41.235 C 45.774 41.235 56.121 44.289 59.991 45.132 C 63.859 45.974 70.842 46.816 70.842 46.816 C 70.842 46.816 62.852 57.061 53.514 54.460 C 44.176 51.863 44.345 45.975 45.774 41.235 Z " transform="matrix(1, 0, 0, 0.761904776096344, -8.05, 10.25)"/>
  </g>
  <g id="ID0.7411454315297306">
    <path id="ID0.5877763065509498" fill="#FAA51D" stroke="#231F20" stroke-width="1" d="M 29.926 73.218 C 30.675 72.647 32.815 71.016 34.780 69.561 C 37.208 67.762 40.897 63.712 35.857 61.915 C 30.817 60.114 28.350 63.519 24.338 66.861 C 22.179 68.662 19.030 69.560 20.019 73.070 C 21.012 76.581 24.881 86.478 31.808 83.240 C 38.737 80.001 30.009 74.060 28.748 72.083 " transform="matrix(-0.3970218300819397, -0.9178091883659363, 0.9178091883659363, -0.3970218300819397, -12.75, 123.85)"/>
    <path id="ID0.41703723231330514" fill="#FF0000" stroke="#000000" stroke-width="1" stroke-linecap="round" d="M 301.400 200 C 303.055 200 304.555 200.846 305.642 202.213 C 306.728 203.580 307.146 205.696 307.400 207.550 C 307.601 209.012 308.154 211.077 306.900 211.600 C 303.899 212.863 300.211 212.747 297.150 211.600 C 295.742 211.173 295.395 209.103 295.400 207.550 C 295.406 205.675 296.072 203.580 297.158 202.213 C 298.245 200.846 299.745 200 301.400 200 Z " transform="matrix(0.8689242601394653, 0.7368976473808289, -0.6467878818511963, 0.7626699209213257, -78.3, -315.15)"/>
  </g>
  <path id="ID0.6366310031153262" fill="none" stroke="#000000" stroke-width="1" stroke-linecap="round" d="M 227.250 140.250 L 239.250 140 " transform="matrix(1, 0, 0, 1, -196, -125)"/>
  <path id="ID0.7351176082156599" fill="none" stroke="#000000" stroke-width="1" stroke-linecap="round" d="M 251.750 141.250 L 261 141.250 " transform="matrix(1, 0, 0, 1, -196, -125)"/>
  <path id="ID0.687510175164789" fill="none" stroke="#000000" stroke-width="2" stroke-linecap="round" d="M 233.550 167.800 C 233.550 167.800 234.119 168.344 234.450 168.550 C 235.006 168.896 235.594 169.201 236.200 169.450 C 236.532 169.587 236.896 169.640 237.250 169.700 C 237.580 169.756 237.924 169.725 238.250 169.800 C 238.579 169.876 238.884 170.033 239.200 170.150 C 239.516 170.267 239.840 170.368 240.150 170.500 C 240.506 170.651 240.841 170.855 241.200 171 C 241.542 171.138 241.896 171.248 242.250 171.350 C 242.646 171.464 243.044 171.580 243.450 171.650 C 243.912 171.730 244.386 171.735 244.850 171.800 C 245.219 171.852 245.586 171.922 245.950 172 C 246.286 172.072 246.612 172.191 246.950 172.250 C 247.280 172.308 247.617 172.318 247.950 172.350 C 248.316 172.385 248.687 172.388 249.050 172.450 C 249.472 172.522 249.877 172.684 250.300 172.750 C 250.629 172.801 250.968 172.770 251.300 172.800 C 251.701 172.836 252.099 172.908 252.500 172.950 C 252.899 172.992 253.301 173.086 253.700 173.050 C 254.046 173.019 254.358 172.810 254.700 172.750 C 255.028 172.693 255.369 172.741 255.700 172.700 C 256.037 172.658 256.398 172.655 256.700 172.500 C 257.004 172.344 257.487 172.108 257.450 171.800 C 257.412 171.483 256.888 171.345 256.550 171.250 C 256.213 171.155 255.850 171.250 255.500 171.250 C 255.167 171.250 254.833 171.250 254.500 171.250 C 254.150 171.250 253.800 171.242 253.450 171.250 C 253.067 171.259 252.682 171.265 252.300 171.300 C 251.948 171.332 251.602 171.417 251.250 171.450 C 250.885 171.484 250.517 171.492 250.150 171.500 C 249.784 171.508 249.415 171.534 249.050 171.500 C 248.696 171.467 248.346 171.384 248 171.300 C 247.662 171.218 247.330 171.110 247 171 C 246.680 170.893 246.370 170.757 246.050 170.650 C 245.720 170.540 245.383 170.450 245.050 170.350 C 244.717 170.250 244.386 170.140 244.050 170.050 C 243.703 169.957 243.347 169.893 243 169.800 C 242.664 169.710 242.337 169.584 242 169.500 C 241.671 169.418 241.333 169.368 241 169.300 C 240.600 169.218 240.203 169.114 239.800 169.050 C 239.469 168.997 239.131 169 238.800 168.950 C 238.464 168.900 238.136 168.802 237.800 168.750 C 237.486 168.702 236.850 168.650 236.850 168.650 " transform="matrix(1, 0, 0, 1, -196, -125)"/>
  <path id="ID0.004879458341747522" fill="none" stroke="#000000" stroke-width="2" stroke-linecap="round" d="M 234.700 167.500 L 235 167.800 " transform="matrix(1, 0, 0, 1, -196, -125)"/>
  <path id="ID0.42685328237712383" fill="none" stroke="#000000" stroke-width="2" stroke-linecap="round" d="M 235.200 167.500 L 235.500 167.800 " transform="matrix(1, 0, 0, 1, -196, -125)"/>
  <path id="ID0.137755261734128" fill="none" stroke="#000000" stroke-width="1" stroke-linecap="round" d="M 247.250 170.250 C 247.250 170.250 248.087 170.246 248.500 170.300 C 248.856 170.346 249.203 170.457 249.550 170.550 C 249.886 170.640 250.208 170.788 250.550 170.850 C 250.763 170.889 251.200 170.850 251.200 170.850 " transform="matrix(1, 0, 0, 1, -196, -125)"/>
  <path id="ID0.7890484021045268" fill="none" stroke="#FFFFFF" stroke-width="1" stroke-linecap="round" d="M 237.700 167.350 C 237.700 167.350 237.347 168.304 237.250 168.800 C 237.163 169.242 237.205 169.703 237.150 170.150 C 237.105 170.520 237.021 170.885 236.950 171.250 C 236.888 171.567 236.750 172.200 236.750 172.200 " transform="matrix(1, 0, 0, 1, -196, -125)"/>
  <path id="ID0.15028972085565329" fill="none" stroke="#FFFFFF" stroke-width="1" stroke-linecap="round" d="M 243.550 168.700 C 243.550 168.700 243.432 169.769 243.350 170.300 C 243.298 170.636 243.206 170.965 243.150 171.300 C 243.073 171.765 242.992 172.231 242.950 172.700 C 242.925 172.982 242.950 173.550 242.950 173.550 " transform="matrix(1, 0, 0, 1, -196, -125)"/>
  <path id="ID0.3226599092595279" fill="none" stroke="#FFFFFF" stroke-width="1" stroke-linecap="round" d="M 248.850 169.350 C 248.850 169.350 248.804 170.359 248.700 170.850 C 248.619 171.231 248.423 171.580 248.300 171.950 C 248.190 172.280 248.133 172.629 248 172.950 C 247.849 173.315 247.637 173.652 247.450 174 C 247.403 174.087 247.300 174.250 247.300 174.250 " transform="matrix(1, 0, 0, 1, -196, -125)"/>
  <path id="ID0.3974233637563884" fill="none" stroke="#FFFFFF" stroke-width="1" stroke-linecap="round" d="M 253.550 170.250 C 253.550 170.250 253.029 171.092 252.750 171.500 C 252.562 171.775 252.346 172.031 252.150 172.300 C 251.946 172.580 251.744 172.863 251.550 173.150 C 251.361 173.429 251.183 173.717 251 174 C 250.817 174.283 250.643 174.574 250.450 174.850 C 250.402 174.919 250.300 175 250.300 175 " transform="matrix(1, 0, 0, 1, -196, -125)"/>
</svg>