<svg version="1.1" width="495" height="266" viewBox="-1 -1 495 266" xmlns="http://www.w3.org/2000/svg" xmlns:xlink="http://www.w3.org/1999/xlink">
  <!-- Exported by Scratch - http://scratch.mit.edu/ -->
  <path id="ID0.4459972116164863" fill="#663B00" stroke="#663B00" stroke-width="2" d="M 15 297 L 480 297 L 480 360 L 15 360 L 15 297 Z " transform="matrix(1.0556745529174805, 0, 0, 1, -14.25, -154.5)"/>
  <path id="ID0.050547581166028976" fill="#995900" stroke="none" d="M 366.750 154 C 366.957 154 367.144 154.028 367.280 154.073 C 367.416 154.119 367.500 154.181 367.500 154.250 C 367.500 154.319 367.416 154.381 367.280 154.427 C 367.144 154.472 366.957 154.500 366.750 154.500 C 366.543 154.500 366.356 154.472 366.220 154.427 C 366.084 154.381 366 154.319 366 154.250 C 366 154.181 366.084 154.119 366.220 154.073 C 366.356 154.028 366.543 154 366.750 154 Z " transform="matrix(1, 0, 0, 1, 12, -154)"/>
  <g id="ID0.09005809342488647" transform="matrix(1, 0, 0, 1, 210, -99.5)">
    <path id="ID0.4858781984075904" fill="#995900" stroke="none" d="M 134 254 C 134.966 254 135.841 254.448 136.474 255.172 C 137.108 255.896 137.500 256.896 137.500 258 C 137.500 259.104 137.108 260.104 136.474 260.828 C 135.841 261.552 134.966 262 134 262 C 133.034 262 132.159 261.552 131.526 260.828 C 130.892 260.104 130.500 259.104 130.500 258 C 130.500 256.896 130.892 255.896 131.526 255.172 C 132.159 254.448 133.034 254 134 254 Z "/>
    <path id="ID0.302546180319041" fill="#995900" stroke="none" d="M 139.750 254 C 140.647 254 141.459 254.672 142.047 255.758 C 142.636 256.845 143 258.345 143 260 C 143 261.655 142.636 263.155 142.047 264.242 C 141.459 265.328 140.647 266 139.750 266 C 138.853 266 138.041 265.328 137.453 264.242 C 136.864 263.155 136.500 261.655 136.500 260 C 136.500 258.345 136.864 256.845 137.453 255.758 C 138.041 254.672 138.853 254 139.750 254 Z " transform="matrix(1, 0, 0, 1, -1, -3)"/>
    <path id="ID0.6586020197719336" fill="#995900" stroke="none" d="M 147.750 258.500 C 147.819 258.500 147.881 258.500 147.927 258.500 C 147.972 258.500 148 258.500 148 258.500 C 148 258.500 147.972 258.500 147.927 258.500 C 147.881 258.500 147.819 258.500 147.750 258.500 C 147.681 258.500 147.619 258.500 147.573 258.500 C 147.528 258.500 147.500 258.500 147.500 258.500 C 147.500 258.500 147.528 258.500 147.573 258.500 C 147.619 258.500 147.681 258.500 147.750 258.500 Z "/>
    <path id="ID0.3068500477820635" fill="#995900" stroke="none" d="M 140.750 257.500 C 141.371 257.500 141.933 257.864 142.341 258.453 C 142.748 259.041 143 259.853 143 260.750 C 143 261.647 142.748 262.459 142.341 263.047 C 141.933 263.636 141.371 264 140.750 264 C 140.129 264 139.567 263.636 139.159 263.047 C 138.752 262.459 138.500 261.647 138.500 260.750 C 138.500 259.853 138.752 259.041 139.159 258.453 C 139.567 257.864 140.129 257.500 140.750 257.500 Z "/>
  </g>
</svg>