<svg xmlns="http://www.w3.org/2000/svg" xmlns:xlink="http://www.w3.org/1999/xlink" version="1.1" width="45.50379943847656" height="24.758150100708008" viewBox="0.23259997367858887 -0.03444981575012207 45.50379943847656 24.758150100708008">
  <!-- Exported by Scratch - http://scratch.mit.edu/ -->
  <path id="ID0.12919439608231187" fill="#404040" stroke="#333333" d="M 21.1726 2.8633 C 18.0867 -0.3337 3.8185 -0.3337 0.7326 2.8633 L 10.9522 24.2237 L 21.1726 2.8633 Z " stroke-width="0.7459315924724887"/>
  <path id="ID0.7512953788973391" fill="#808080" d="M 16.2611 2.5207 C 13.0831 1.1417 3.7679 1.724 2.3921 3.3362 L 10.4062 20.9721 L 16.2611 2.5207 Z " stroke-width="0.7459315924724887"/>
  <path id="ID0.27147613279521465" fill="#B3B3B3" d="M 12.5387 2.5532 C 8.9831 2.1852 5.6374 2.3233 3.6459 3.5713 L 9.7357 17.8859 L 12.5387 2.5532 Z " stroke-width="0.7459315924724887"/>
  <path id="ID0.11133367801085114" fill="#FFFFFF" d="M 10.5124 3.2795 C 8.4305 3.0137 6.4722 3.1134 5.3063 4.0143 L 8.8719 14.3405 L 10.5124 3.2795 Z " stroke-width="0.7459315924724887"/>
  <path id="ID0.11343067837879062" fill="#404040" stroke="#333333" d="M 45.2364 2.8633 C 42.1504 -0.3337 27.8823 -0.3337 24.7963 2.8633 L 35.0159 24.2237 L 45.2364 2.8633 Z " stroke-width="0.7459315924724887"/>
  <path id="ID0.6466262182220817" fill="#808080" d="M 40.3249 2.5207 C 37.1468 1.1417 27.8316 1.724 26.4559 3.3362 L 34.4699 20.9721 L 40.3249 2.5207 Z " stroke-width="0.7459315924724887"/>
  <path id="ID0.9691841411404312" fill="#B3B3B3" d="M 36.6025 2.5532 C 33.0468 2.1852 29.702 2.3233 27.7097 3.5713 L 33.8003 17.8859 L 36.6025 2.5532 Z " stroke-width="0.7459315924724887"/>
  <path id="ID0.1519111911766231" fill="#FFFFFF" d="M 34.5753 3.2795 C 32.4942 3.0137 30.5359 3.1134 29.3701 4.0143 L 32.9356 14.3405 L 34.5753 3.2795 Z " stroke-width="0.7459315924724887"/>
</svg>