<svg xmlns="http://www.w3.org/2000/svg" xmlns:xlink="http://www.w3.org/1999/xlink" version="1.1" width="154.16360787771632" height="286.51251534841947" viewBox="-0.6855100603028672 -0.5113100023194688 154.16360787771632 286.51251534841947">
  <!-- Exported by Scratch - http://scratch.mit.edu/ -->
  <path id="ID0.5409291740506887" fill="none" stroke="none" d="M 0.7463 77.2194 L 152.0463 77.2194 L 152.0463 284.5694 L 0.7463 284.5694 L 0.7463 77.2194 Z " stroke-width="0.9705918852156621"/>
  <g id="ID0.9984294562600553">
    <g id="layer1">
      <path id="path5110" fill="#627d44" stroke="none" stroke-width="1.0444239081681659" d="M 120.2097 130.9292 C 120.2097 144.6083 109.1199 155.6981 95.4394 155.6981 C 81.7604 155.6981 70.6706 144.6083 70.6706 130.9292 C 70.6706 117.2487 81.7604 106.159 95.4394 106.159 C 109.1199 106.159 120.2097 117.2487 120.2097 130.9292 Z "/>
      <path id="path5108" fill="#627d44" stroke="none" stroke-width="1.0444238714470722" d="M 108.2761 51.2715 C 108.2761 79.0773 85.7337 101.6197 57.9251 101.6197 C 30.1193 101.6197 7.5769 79.0773 7.5769 51.2715 C 7.5769 23.4629 30.1193 0.9205 57.9251 0.9205 C 85.7337 0.9205 108.2761 23.4629 108.2761 51.2715 Z "/>
      <path id="path5099" fill="#627d44" stroke="none" stroke-width="1.044423756590752" d="M 88.7496 138.3117 C 88.7496 161.4519 69.9895 180.212 46.8469 180.212 C 23.7066 180.212 4.9465 161.4519 4.9465 138.3117 C 4.9465 115.169 23.7066 96.4089 46.8469 96.4089 C 69.9895 96.4089 88.7496 115.169 88.7496 138.3117 Z "/>
      <path id="path5101" fill="#627d44" stroke="none" stroke-width="1.0444237343350853" d="M 151.8248 73.2838 C 151.8248 99.9232 130.2279 121.52 103.5858 121.52 C 76.9464 121.52 55.3496 99.9232 55.3496 73.2838 C 55.3496 46.6417 76.9464 25.0449 103.5858 25.0449 C 130.2279 25.0449 151.8248 46.6417 151.8248 73.2838 Z "/>
      <path id="path5139" fill="#6a945c" stroke="none" stroke-width="2.86362008474758" d="M 102.1135 31.2613 C 100.5197 31.2613 98.9269 31.3229 97.3812 31.4974 L 99.9839 37.0182 C 102.362 36.5931 104.8185 36.3873 107.3189 36.3873 C 117.3182 36.3873 126.4287 39.9478 133.583 45.8519 C 125.9911 36.9106 114.7614 31.2613 102.1135 31.2613 Z "/>
      <g id="g5103">
        <path id="path4875" fill="#8f4b36" stroke="none" stroke-width="2.5238685882850973" d="M 85.4169 275.3132 M 69.1102 275.2754 C 70.3014 252.1113 71.5154 229.1113 71.1949 206.1315 C 70.9703 192.7398 70.5563 179.4921 67.1163 166.9106 C 67.1163 166.9106 67.1163 166.9106 67.1163 166.9106 C 64.9079 158.766 60.9227 150.9976 55.0951 144.7056 C 48.5962 137.664 40.4441 132.0484 32.4611 126.3747 C 40.964 131.2357 49.6183 136.0083 57.1142 142.641 C 63.911 148.6882 69.0698 156.5678 72.3407 165.2044 C 72.3407 165.2044 72.3407 165.2044 72.3407 165.2044 C 77.2496 178.1973 79.1627 192.0761 80.6443 205.5308 C 80.6443 205.5308 80.6443 205.5308 80.6443 205.5308 C 83.2565 228.7832 84.3392 252.1517 85.4169 275.3132 Z "/>
        <path id="path4877" fill="#8f4b36" stroke="none" stroke-width="2.5238685882850973" d="M 71.5154 216.6989 M 80.9875 216.3582 C 78.5267 175.358 79.0618 133.6763 91.0148 94.4377 C 91.0148 94.4377 91.0148 94.4377 91.0148 94.4377 C 94.6871 82.4064 99.4445 70.5922 106.8142 60.4058 C 106.8142 60.4058 106.8142 60.4058 106.8142 60.4058 C 111.8191 53.5106 118.1817 47.1707 126.3338 44.4499 C 118.053 46.7568 111.1906 52.8418 105.7795 59.6159 C 105.7795 59.6159 105.7795 59.6159 105.7795 59.6159 C 97.7813 69.5902 92.2742 81.3994 87.9584 93.4231 C 87.9584 93.4231 87.9584 93.4231 87.9584 93.4231 C 73.8727 132.591 71.0106 175.1384 71.5154 216.6989 Z "/>
        <path id="path4879" fill="#8f4b36" stroke="none" stroke-width="2.5238685882850973" d="M 79.3016 123.7777 M 83.7461 125.1506 C 84.319 122.8968 84.112 120.8399 83.7738 119.1262 C 83.3221 116.408 82.5674 113.8185 81.7194 111.3249 C 79.4126 104.5306 76.3284 98.0847 72.8733 91.9113 C 72.8733 91.9113 72.8733 91.9113 72.8733 91.9113 C 68.9789 84.9429 64.5344 78.2647 59.3781 72.1923 C 54.7645 66.7508 49.535 61.6451 43.2708 58.311 C 49.3281 62.0085 54.1487 67.344 58.3989 72.9772 C 63.1286 79.2617 67.0986 86.0761 70.521 93.1379 C 70.521 93.1379 70.521 93.1379 70.521 93.1379 C 73.5522 99.4072 76.1821 105.8481 77.9942 112.4682 C 77.9942 112.4682 77.9942 112.4682 77.9942 112.4682 C 78.658 114.9037 79.2157 117.3216 79.4606 119.7142 C 79.5792 121.3573 79.7306 122.7959 79.3016 123.7777 Z "/>
        <path id="path5164" fill="#8f4b36" stroke="none" stroke-width="2.5238685882850973" d="M 75.5157 160.2551 M 80.1521 159.8816 C 79.7407 157.2214 80.4297 154.2483 81.3863 151.2903 C 82.6255 147.5878 84.5159 144.062 87.0094 140.9879 C 89.6444 137.7473 92.9935 135.0038 96.9182 133.4491 C 96.9182 133.4491 96.9182 133.4491 96.9182 133.4491 C 101.3501 131.6774 106.476 131.584 111.2588 132.8358 C 106.6123 131.1448 101.3829 130.7132 96.4714 132.1443 C 92.1506 133.4163 88.2436 135.9982 85.0711 139.2565 C 85.0711 139.2565 85.0711 139.2565 85.0711 139.2565 C 82.0778 142.3205 79.6448 145.9599 77.8932 149.93 C 76.4975 152.999 75.4072 156.4668 75.5157 160.2551 Z "/>
      </g>
      <path id="path5112" fill="#6a945c" stroke="none" stroke-width="2.86362008474758" d="M 57.315 6.6996 C 33.1543 6.6996 13.5954 26.2596 13.5954 50.4202 C 13.5954 63.1142 19.0066 74.5673 27.6429 82.5592 C 22.5158 75.3934 19.4881 66.6192 19.4881 57.1359 C 19.4881 32.9752 39.1159 13.3474 63.2766 13.3474 C 74.6545 13.3474 84.9619 17.7402 92.7429 24.86 C 84.7969 13.8633 71.9192 6.6996 57.315 6.6996 Z "/>
      <path id="path5117" fill="#6a945c" stroke="none" stroke-width="2.86362008474758" d="M 47.0598 101.3046 C 27.0351 101.3046 10.8204 117.5192 10.8204 137.544 C 10.8204 147.5569 14.9051 156.6433 21.4672 163.2055 C 17.3031 157.3024 14.9156 150.0938 14.9156 142.3212 C 14.9156 122.2964 31.1302 106.0817 51.155 106.0817 Z "/>
    </g>
  </g>
</svg>