<svg xmlns="http://www.w3.org/2000/svg" xmlns:xlink="http://www.w3.org/1999/xlink" xmlns:a="http://ns.adobe.com/AdobeSVGViewerExtensions/3.0/" version="1.1" x="0px" y="0px" width="32.89200019836426" height="61.599998474121094" viewBox="0 0 32.89200019836426 61.599998474121094" enable-background="new -15.289 -1.319 64 64" xml:space="preserve">
  <defs/>
  <g>
    <path fill="#594419" d="M25.609,60.6c-1.856,0-3.383-0.648-4.539-1.93c-1.111-1.231-1.677-2.985-1.677-5.211V25.421&#13;&#10;&#9;c-6.282,4.537-8.783,5.111-10.14,5.111c-1.382,0-2.658-0.565-3.693-1.633C4.527,27.834,4,26.568,4,25.14&#13;&#10;&#9;c0-2.102,0.942-3.249,1.732-3.84c0.823-0.617,2.181-1.367,4.151-2.293c2.619-1.233,4.729-2.538,6.269-3.875&#13;&#10;&#9;c1.556-1.354,2.955-2.889,4.156-4.563c1.781-2.481,2.36-3.161,2.642-3.457C23.654,6.365,24.749,6,26.295,6&#13;&#10;&#9;c1.695,0,3.135,0.697,4.163,2.016c0.951,1.217,1.434,2.85,1.434,4.851v39.257C31.892,59.498,27.955,60.6,25.609,60.6L25.609,60.6z" stroke-width="1"/>
    <linearGradient id="SVGID_1_" gradientUnits="userSpaceOnUse" x1="14.9458" y1="1" x2="14.9458" y2="55.5996">
      <stop offset="0" style="stop-color:#FFFFFF"/>
      <stop offset="1" style="stop-color:#FFD38F"/>
    </linearGradient>
    <path fill="url(#SVGID_1_)" stroke="#594419" stroke-width="2" d="M22.609,55.6c-1.856,0-3.383-0.648-4.539-1.93&#13;&#10;&#9;c-1.111-1.231-1.677-2.985-1.677-5.211V20.421c-6.282,4.537-8.783,5.111-10.14,5.111c-1.382,0-2.658-0.565-3.693-1.633&#13;&#10;&#9;C1.527,22.834,1,21.568,1,20.14c0-2.102,0.942-3.249,1.732-3.84c0.823-0.617,2.181-1.367,4.151-2.293&#13;&#10;&#9;c2.619-1.233,4.729-2.538,6.269-3.875c1.556-1.354,2.955-2.889,4.156-4.563c1.781-2.481,2.36-3.161,2.642-3.457&#13;&#10;&#9;C20.654,1.365,21.749,1,23.295,1c1.695,0,3.135,0.697,4.163,2.016c0.951,1.217,1.434,2.85,1.434,4.851v39.257&#13;&#10;&#9;C28.892,54.498,24.955,55.6,22.609,55.6L22.609,55.6z"/>
  </g>
</svg>