<svg xmlns="http://www.w3.org/2000/svg" xmlns:xlink="http://www.w3.org/1999/xlink" xmlns:a="http://ns.adobe.com/AdobeSVGViewerExtensions/3.0/" version="1.1" x="0px" y="0px" width="31.940004348754883" height="38.42000198364258" viewBox="0 0 31.940004348754883 38.42000198364258" enable-background="new -23.2 -20.65 64 64" xml:space="preserve">
  <defs/>
  <g>
    <path fill="#594419" d="M22.8,34.11l-5.78-8.5l-5.93,8.5c-0.86,1.19-1.58,2.03-2.18,2.54c-0.59,0.51-1.35,0.76-2.26,0.76&#13;&#10;&#9;c-1.01,0-1.87-0.32-2.58-0.95S3,35.1,3,34.29c0-0.84,0.54-2.03,1.64-3.59l7.21-10.34l-6.39-8.61c-1.11-1.42-1.66-2.66-1.66-3.71&#13;&#10;&#9;c0-0.82,0.33-1.53,0.99-2.13C5.44,5.3,6.31,5,7.38,5C8.31,5,9.09,5.26,9.7,5.79c0.61,0.53,1.33,1.35,2.15,2.48l5.17,7.07l5.02-7.07&#13;&#10;&#9;c0.84-1.17,1.56-2,2.18-2.51C24.83,5.25,25.59,5,26.5,5c1.05,0,1.92,0.3,2.61,0.89c0.69,0.59,1.04,1.31,1.04,2.15&#13;&#10;&#9;c0,0.6-0.14,1.18-0.42,1.74c-0.28,0.56-0.72,1.21-1.3,1.97l-6.39,8.61l7.21,10.34c1.13,1.62,1.69,2.83,1.69,3.65&#13;&#10;&#9;c0,0.84-0.35,1.56-1.05,2.16c-0.7,0.6-1.57,0.91-2.6,0.91c-0.92,0-1.69-0.26-2.32-0.79C24.34,36.1,23.61,35.26,22.8,34.11z" stroke-width="1"/>
    <linearGradient id="SVGID_1_" gradientUnits="userSpaceOnUse" x1="14.9712" y1="1" x2="14.9712" y2="33.4097">
      <stop offset="0" style="stop-color:#FFFFFF"/>
      <stop offset="1" style="stop-color:#FFD38F"/>
    </linearGradient>
    <path fill="url(#SVGID_1_)" stroke="#594419" stroke-width="2" d="M20.8,30.11l-5.78-8.5l-5.93,8.5c-0.86,1.19-1.58,2.03-2.18,2.54&#13;&#10;&#9;c-0.59,0.51-1.35,0.76-2.26,0.76c-1.01,0-1.87-0.32-2.58-0.95S1,31.1,1,30.29c0-0.84,0.54-2.03,1.64-3.59l7.21-10.34L3.45,7.74&#13;&#10;&#9;C2.34,6.32,1.79,5.09,1.79,4.04c0-0.82,0.33-1.53,0.99-2.13C3.44,1.3,4.31,1,5.38,1C6.31,1,7.09,1.26,7.7,1.79&#13;&#10;&#9;c0.61,0.53,1.33,1.35,2.15,2.48l5.17,7.07l5.02-7.07c0.84-1.17,1.56-2,2.18-2.51C22.83,1.25,23.59,1,24.5,1&#13;&#10;&#9;c1.05,0,1.92,0.3,2.61,0.89c0.69,0.59,1.04,1.31,1.04,2.15c0,0.6-0.14,1.18-0.42,1.74c-0.28,0.56-0.72,1.21-1.3,1.97l-6.39,8.61&#13;&#10;&#9;l7.21,10.34c1.13,1.62,1.69,2.83,1.69,3.65c0,0.84-0.35,1.56-1.05,2.16c-0.7,0.6-1.57,0.91-2.6,0.91c-0.92,0-1.69-0.26-2.32-0.79&#13;&#10;&#9;C22.34,32.1,21.61,31.26,20.8,30.11z"/>
  </g>
</svg>