<svg xmlns="http://www.w3.org/2000/svg" xmlns:xlink="http://www.w3.org/1999/xlink" version="1.1" width="171.78128356933593" height="182.168994140625" viewBox="-0.10028252601623533 0.556000018119812 171.78128356933593 182.168994140625">
  <!-- Exported by Scratch - http://scratch.mit.edu/ -->
  <g id="ID0.7098984164185822">
    <path id="ID0.9481008462607861" fill="#FAA51D" stroke="#000000" stroke-width="1.2" d="M 104.833 136.875 C 103.022 136.875 101.243 136.118 99.979 134.701 L 86.977 120.122 C 84.588 117.443 84.823 113.334 87.502 110.944 C 90.182 108.555 94.289 108.790 96.680 111.469 L 106.441 122.414 L 122.581 114.752 C 125.823 113.215 129.701 114.593 131.240 117.836 C 132.780 121.079 131.399 124.956 128.155 126.496 L 107.618 136.246 C 106.727 136.669 105.776 136.875 104.833 136.875 L 104.833 136.875 Z "/>
    <path id="ID0.7152078151702881_1_" fill="#FAA51D" stroke="#000000" d="M 39.918 135.738 C 35.444 135.108 30.066 133.768 25.407 129.939 C 14.988 121.372 11.120 106.647 4.212 110.797 C -2.701 114.951 -1.488 138.969 21.137 145.369 C 28.935 147.582 35.944 147.278 41.620 146.869 C 43.108 146.756 55.743 145.032 59.800 138.555 C 63.856 132.077 60.770 130.648 59.245 129.847 C 57.718 129.047 46.245 136.627 39.918 135.738 L 39.918 135.738 Z " stroke-width="1"/>
    <path id="ID0.4691764716990292_1_" fill="#FFFFFF" d="M 5.270 111.219 C 1.666 112.510 0.032 120.656 2.154 126.977 C 4.275 133.306 7.406 135.987 9.777 138.413 C 12.670 140.194 8.257 134.060 11.937 130.677 C 15.604 127.302 22.393 128.527 22.393 128.527 C 22.393 128.527 16.721 121.443 13.472 117.153 C 10.393 113.037 9.128 110.124 5.270 111.219 L 5.270 111.219 Z " stroke-width="1"/>
    <path id="ID0.4675603983923793_1_" fill="#FAA51D" stroke="#231F20" stroke-width="1.2" d="M 96.882 16.803 C 94.050 16.540 88.147 16.222 84.896 16.378 C 76.202 16.792 67.934 19.923 67.934 19.923 L 43.995 4.300 L 48.104 39.068 C 49.292 37.629 28.694 62.613 41.707 83.614 C 54.728 104.626 82.593 113.989 117.081 107.137 C 151.571 100.280 159.798 80.415 157.513 69.907 C 155.229 59.399 142.209 55.520 142.209 55.520 C 142.209 55.520 142.044 47.282 136.089 37.186 C 132.547 31.176 120.737 22.399 120.737 22.399 L 115.479 1.156 L 101.776 14.404 L 96.882 16.803 L 96.882 16.803 Z "/>
    <path id="ID0.876089540310204_1_" fill="#FFFFFF" d="M 140.485 55.255 L 135.921 51.460 L 119.159 56.353 C 119.159 56.353 119.159 62.641 111.129 64.383 C 103.093 66.133 90.513 60.196 90.513 60.196 L 76.197 66.480 C 76.197 66.480 60.681 68.185 60.127 77.662 C 58.889 98.724 84.731 107.504 94.523 108.063 C 99.866 108.371 109.667 107.441 117.100 105.964 C 149.745 100.017 158.569 80.368 156.288 69.857 C 154.004 59.349 141.616 56.625 141.616 56.625 L 140.485 55.255 L 140.485 55.255 Z " stroke-width="1"/>
    <path id="ID0.44282719027251005_1_" fill="none" stroke="#231F20" stroke-width="1.2" d="M 19.581 75.647 C 19.581 75.647 27.134 76.335 30.567 76.140 C 33.997 75.944 40.667 75.061 40.667 75.061 "/>
    <path id="ID0.893105489667505_1_" fill="none" stroke="#231F20" stroke-width="1.2" d="M 150.114 65.563 C 150.114 65.563 158.479 64.196 162.727 62.713 C 167.719 60.982 171.081 58.033 171.081 58.033 "/>
    <path id="ID0.03574043000116944_1_" fill="none" stroke="#231F20" stroke-width="1.2" d="M 41.030 67.839 C 41.030 67.839 36.646 64.570 29.782 61.531 C 22.179 58.164 18.004 57.296 18.004 57.296 "/>
    <path id="ID0.6674723788164556_1_" fill="none" stroke="#231F20" stroke-width="1.2" d="M 150.961 76.506 C 150.961 76.506 155.975 78.535 161.136 79.053 C 166.231 79.561 169.680 79.255 169.680 79.255 "/>
    <path id="ID0.12165586883202195_1_" fill="none" stroke="#000000" stroke-linecap="round" d="M 96.222 16.906 C 101.444 18.193 103.369 19.607 103.369 19.607 " stroke-width="1"/>
    <path id="ID0.178104005753994_1_" fill="none" stroke="#000000" d="M 62.290 15.935 L 73.431 23.949 " stroke-width="1"/>
    <path id="ID0.7735752793960273_1_" fill="#FFFFFF" stroke="#231F20" d="M 132.063 37.417 C 137.440 45.653 137.640 55.055 132.508 58.408 C 127.371 61.764 118.852 57.799 113.467 49.557 C 108.073 41.319 107.883 31.924 113.019 28.566 C 118.151 25.214 126.680 29.175 132.063 37.417 L 132.063 37.417 Z " stroke-width="1"/>
    <path id="ID0.19106501014903188_1_" fill="#231F20" d="M 130.682 50.578 C 130.682 52.563 129.207 54.175 127.371 54.175 C 125.545 54.175 124.056 52.563 124.056 50.578 C 124.056 48.592 125.545 46.976 127.371 46.976 C 129.208 46.976 130.682 48.591 130.682 50.578 " stroke-width="1"/>
    <path id="ID0.06283409334719181_1_" fill="#FFFFFF" stroke="#231F20" d="M 87.978 43.400 C 93.359 51.638 92.793 61.536 86.725 65.495 C 80.653 69.466 71.369 65.995 65.990 57.757 C 60.606 49.519 61.165 39.625 67.237 35.658 C 73.311 31.693 82.592 35.158 87.978 43.400 L 87.978 43.400 Z " stroke-width="1"/>
    <path id="ID0.716460831463337_1_" fill="#231F20" d="M 84.690 54.227 C 84.690 56.215 83.213 57.827 81.377 57.827 C 79.553 57.827 78.063 56.212 78.063 54.227 C 78.063 52.242 79.553 50.628 81.377 50.628 C 83.209 50.628 84.690 52.242 84.690 54.227 " stroke-width="1"/>
    <path id="ID0.5430324394255877_1_" fill="#5E4A42" stroke="#000000" d="M 109.860 60.514 C 113.269 60.514 118.236 59.993 118.497 61.561 C 118.761 63.133 115.354 69.290 113.003 69.551 C 110.644 69.813 101.739 65.224 101.610 62.344 C 101.474 59.465 106.713 60.514 109.860 60.514 L 109.860 60.514 Z " stroke-width="1"/>
    <path id="ID0.5547774969600141_1_" fill="none" stroke="#231F20" stroke-width="1.2" d="M 85.968 73.956 C 85.968 73.956 104.995 79.572 112.112 81.122 C 119.225 82.671 132.067 84.220 132.067 84.220 C 132.067 84.220 117.374 103.060 100.202 98.277 C 83.030 93.500 83.340 82.672 85.968 73.956 L 85.968 73.956 Z "/>
    <path id="ID0.6599588762037456" fill="#FAA51D" stroke="#000000" stroke-width="1.2" d="M 37.969 182.125 C 37.869 182.125 37.770 182.123 37.669 182.119 L 25.187 181.629 C 23.087 181.547 21.118 180.587 19.759 178.983 L 12.530 170.451 C 10.970 168.610 10.391 166.132 10.974 163.791 C 11.557 161.449 13.230 159.531 15.471 158.637 L 44.361 147.104 L 62.930 131.576 C 66.108 128.919 70.838 129.341 73.495 132.517 C 76.152 135.695 75.730 140.424 72.553 143.081 L 53.066 159.378 C 52.457 159.887 51.772 160.296 51.035 160.591 L 34.975 167.002 L 38.258 167.131 C 42.397 167.293 45.620 170.780 45.458 174.919 C 45.299 178.958 41.975 182.125 37.969 182.125 L 37.969 182.125 Z "/>
    <path id="ID0.26425604708492756_1_" fill="#FAA51D" stroke="#231F20" stroke-width="1.2" d="M 85.240 141.586 C 87.425 139.908 89.648 137.168 92.507 132.918 C 94.890 129.375 97.472 122.661 97.472 122.661 C 99.080 118.025 101.029 110.568 93.974 109.244 C 91.119 108.709 86.473 109.064 79.870 107.817 C 73.263 106.564 67.369 103.179 62.369 111.923 C 57.371 120.671 44.733 127.132 60.427 142.381 L 85.240 141.586 Z "/>
    <path id="ID0.9373653982765973" fill="#FAA51D" stroke="#000000" stroke-width="1.2" d="M 110.375 176.704 C 110.266 176.704 110.157 176.702 110.048 176.697 L 86.738 175.697 C 84.130 175.585 81.767 174.125 80.501 171.843 C 79.235 169.560 79.247 166.782 80.532 164.510 L 88.183 150.990 L 67.133 146.101 C 63.098 145.163 60.587 141.133 61.524 137.099 C 62.462 133.065 66.488 130.550 70.526 131.490 L 101.347 138.648 C 103.651 139.183 105.567 140.773 106.518 142.938 C 107.468 145.103 107.343 147.589 106.178 149.648 L 99.620 161.236 L 110.689 161.711 C 114.828 161.889 118.038 165.388 117.861 169.525 C 117.689 173.554 114.369 176.704 110.375 176.704 L 110.375 176.704 Z "/>
    <path id="ID0.203311821911484_1_" fill="#FFFFFF" d="M 93.515 129.490 C 93.515 129.490 98.057 124.598 88.975 119.712 C 79.893 114.826 75.710 119.681 72.905 122.509 C 68.043 127.392 79.236 131.667 79.236 131.667 L 85.077 131.559 C 85.077 131.559 90.272 133.531 91.673 131.081 C 93.278 128.848 93.515 129.490 93.515 129.490 " stroke-width="1"/>
    <path id="ID0.33314631087705493" fill="#FAA51D" d="M 73.7586 130.463 C 75.6878 132.362 76.7655 134.7641 76.9474 137.1111 C 77.1286 139.4588 76.4156 141.7499 74.7636 143.4283 C 73.1115 145.1067 70.832 145.856 68.4817 145.712 C 66.1321 145.5672 63.7132 144.5278 61.784 142.6288 C 59.8547 140.7299 58.7771 138.3277 58.5951 135.9807 C 58.4139 133.633 59.1269 131.3419 60.779 129.6635 C 62.431 127.9851 64.7106 127.2359 67.0608 127.3799 C 69.4104 127.5246 71.8293 128.5641 73.7586 130.463 Z " stroke-width="1.0000217754203118"/>
    <path id="ID0.032669804990291595" fill="#FAA51D" stroke="#000000" stroke-width="1.2" d="M 45.084 143.295 C 45.039 143.295 44.993 143.295 44.948 143.294 C 41.359 143.220 38.509 140.250 38.583 136.661 L 38.998 116.531 C 39.064 113.339 41.439 110.666 44.602 110.226 L 64.687 107.435 C 68.242 106.948 71.526 109.423 72.020 112.979 C 72.514 116.535 70.032 119.818 66.477 120.312 L 51.882 122.339 L 51.581 136.928 C 51.507 140.473 48.611 143.295 45.084 143.295 L 45.084 143.295 Z "/>
  </g>
</svg>