<svg xmlns="http://www.w3.org/2000/svg" xmlns:xlink="http://www.w3.org/1999/xlink" version="1.1" width="26.148135776243357" height="39.916844958982615" viewBox="0.6733344222497203 0.9858319188546397 26.148135776243357 39.916844958982615">
  <!-- Exported by Scratch - http://scratch.mit.edu/ -->
  <path id="ID0.5443468582816422" fill="#002067" stroke="#000000" stroke-width="1.1357437321759745" d="M 15.2979 1.5778 C 17.6031 1.3068 19.9389 4.0512 21.3662 7.6401 C 22.9932 11.7239 23.7797 17.2933 23.9242 22.2607 C 24.0743 27.3224 24.0934 33.8482 21.945 36.9171 C 19.5961 40.9973 15.817 40.2292 12.6185 40.2335 C 9.5336 40.2392 5.9038 41.1414 3.4414 37.452 C 1.4431 34.05 1.0529 27.4671 1.3128 22.2607 C 1.575 17.0551 2.9544 11.0813 5.1778 7.6401 C 7.97 3.3102 11.7506 1.3075 15.2979 1.5778 Z "/>
  <path id="ID0.37750169076025486" fill="#FFFFFF" stroke="#000000" stroke-width="0.6166064510134136" d="M 22.7209 12.455 C 23.6957 12.455 24.5787 12.8467 25.2182 13.4799 C 25.8577 14.1126 26.2536 14.9869 26.2536 15.9514 C 26.2536 16.9159 25.8577 17.7901 25.2182 18.4229 C 24.5787 19.0561 23.6957 19.4478 22.7209 19.4478 C 21.7462 19.4478 20.8631 19.0561 20.2237 18.4229 C 19.5842 17.7901 19.1882 16.9159 19.1882 15.9514 C 19.1882 14.9869 19.5842 14.1126 20.2237 13.4799 C 20.8631 12.8467 21.7462 12.455 22.7209 12.455 Z "/>
  <path id="ID0.37750169076025486" fill="#FFFFFF" stroke="#000000" stroke-width="0.8082342082415827" d="M 15.0965 11.5216 C 16.5435 11.5202 17.855 12.0094 18.8051 12.8015 C 19.7553 13.593 20.3441 14.6873 20.3453 15.8952 C 20.3465 17.103 19.7597 18.1985 18.8111 18.9919 C 17.8625 19.7857 16.552 20.2775 15.105 20.2789 C 13.6579 20.2803 12.3464 19.7911 11.3963 18.999 C 10.4461 18.2075 9.8573 17.1132 9.8561 15.9053 C 9.855 14.6975 10.4417 13.602 11.3903 12.8086 C 12.3389 12.0148 13.6494 11.523 15.0965 11.5216 Z "/>
  <path id="ID0.234124637208879" fill="#000000" stroke="black" stroke-width="0.8580863905232347" stroke-linecap="round" d="M 22.7352 12.192 C 22.9994 12.192 23.2386 12.5188 23.4118 13.0471 C 23.5852 13.5755 23.6925 14.3049 23.6925 15.1096 C 23.6925 15.9143 23.5852 16.6437 23.4118 17.1721 C 23.2386 17.7004 22.9994 18.0272 22.7352 18.0272 C 22.471 18.0272 22.2318 17.7004 22.0586 17.1721 C 21.8851 16.6437 21.7779 15.9143 21.7779 15.1096 C 21.7779 14.3049 21.8851 13.5755 22.0586 13.0471 C 22.2318 12.5188 22.471 12.192 22.7352 12.192 Z "/>
  <path id="ID0.234124637208879" fill="#000000" stroke="black" stroke-width="1.1247607272977316" stroke-linecap="round" d="M 14.7586 11.8911 C 15.1508 11.8907 15.5063 12.2996 15.764 12.961 C 16.0222 13.6224 16.1823 14.5357 16.1833 15.5435 C 16.1842 16.5513 16.0259 17.4649 15.769 18.1268 C 15.5126 18.7887 15.1579 19.1983 14.7656 19.1986 C 14.3734 19.199 14.0179 18.7901 13.7602 18.1287 C 13.502 17.4673 13.3419 16.554 13.3409 15.5462 C 13.34 14.5384 13.4982 13.6248 13.7552 12.9629 C 14.0116 12.301 14.3663 11.8914 14.7586 11.8911 Z "/>
</svg>