<svg version="1.1" width="303" height="137" viewBox="-1 -1 303 137" xmlns="http://www.w3.org/2000/svg" xmlns:xlink="http://www.w3.org/1999/xlink">
  <!-- Exported by Scratch - http://scratch.mit.edu/ -->
  <g id="ID0.07366833975538611" transform="matrix(1, 0, 0, 1, 46, 116)">
    <g id="Layer_3">
      <path id="ID0.8200414711609483" fill="#FAA51D" stroke="#000000" d="M 22.462 79.039 C 20.047 78.588 17.158 77.730 14.720 75.536 C 9.268 70.629 7.526 62.535 3.672 64.622 C -0.184 66.710 -0.110 79.787 12.025 83.816 C 16.207 85.207 20.023 85.212 23.116 85.128 C 23.927 85.103 30.833 84.474 33.195 81.054 C 35.556 77.634 33.914 76.782 33.105 76.310 C 32.295 75.838 25.878 79.677 22.462 79.039 Z "/>
      <path id="ID0.8578959656879306" fill="#FFFFFF" d="M 4.236 64.877 C 2.247 65.490 1.161 69.875 2.160 73.361 C 3.158 76.851 4.794 78.383 6.023 79.759 C 7.551 80.797 5.303 77.357 7.384 75.609 C 9.459 73.865 13.117 74.695 13.117 74.695 C 13.117 74.695 10.208 70.708 8.547 68.299 C 6.975 65.988 6.359 64.375 4.236 64.877 Z "/>
    </g>
    <g id="ID0.37383122043684125">
      <path id="ID0.599285970441997" fill="#FAA51D" d="M 38.217 86.756 C 38.217 86.756 29.385 92.956 21.146 95.168 L 21.232 95.383 C 22.479 97.207 27.102 102.880 20.898 104.879 C 15.565 106.596 5.778 91.775 10.077 88.977 C 12.703 87.264 14.969 88.725 14.969 88.725 C 14.969 88.725 18.443 87.655 20.970 86.380 C 25.273 84.219 26.754 82.927 26.754 82.927 C 26.754 82.927 30.938 78.621 33.610 78.790 C 36.281 78.960 41.669 83.504 38.217 86.756 Z "/>
      <path id="ID0.35038306610658765" fill="none" stroke="#231F20" stroke-width="1.2" d="M 21.232 95.383 C 22.479 97.207 27.102 102.880 20.898 104.879 C 15.565 106.596 5.569 91.535 9.868 88.734 C 12.494 87.021 14.969 88.724 14.969 88.724 C 14.969 88.724 18.443 87.652 20.970 86.376 C 25.273 84.215 26.754 82.923 26.754 82.923 "/>
      <path id="ID0.2152438540942967" fill="none" stroke="#231F20" stroke-width="1.2" d="M 38.217 86.756 C 38.217 86.756 28.094 93.863 19.413 95.575 "/>
    </g>
    <path id="ID0.5251262439414859" fill="#FAA51D" stroke="#231F20" stroke-width="1.2" d="M 52.169 74.885 C 52.169 74.885 53.404 75.050 56.913 78.561 C 60.422 82.069 62.939 80.721 65.824 79.285 C 68.701 77.842 76.361 73.159 72.314 69.468 C 68.265 65.780 66.107 70.614 62.599 71.873 C 59.087 73.133 57.538 69.386 55.741 67.586 C 55.152 66.993 54.553 66.487 54.012 66.081 C 54.012 66.081 53.041 65.321 52.106 68.871 C 51.172 72.412 50.162 73.415 52.169 74.885 Z "/>
    <g id="Layer_2_1_">
      <path id="ID0.9175611156970263" fill="#FAA51D" stroke="#231F20" stroke-width="1.2" d="M 46.753 82.012 C 47.941 81.100 49.150 79.610 50.704 77.299 C 52 75.372 53.404 71.721 53.404 71.721 C 54.279 69.200 55.338 65.145 51.502 64.425 C 49.949 64.134 47.423 64.327 43.832 63.649 C 40.239 62.968 37.034 61.127 34.315 65.882 C 31.597 70.639 24.725 74.153 33.259 82.445 C 33.259 82.445 38.160 86.287 44.023 92.084 C 48.854 96.859 56.068 102.686 56.068 102.686 C 56.068 102.686 75.040 104.874 75.603 101.993 C 77.525 92.203 60.826 95.082 60.826 95.082 C 60.826 95.082 56.221 91.149 54.101 89.288 C 50.623 86.229 42.976 78.517 42.976 78.517 "/>
      <path id="ID0.07041538273915648" fill="#FFFFFF" d="M 51.253 75.434 C 51.253 75.434 53.723 72.774 48.784 70.117 C 43.845 67.460 41.571 70.100 40.045 71.638 C 37.401 74.293 43.488 78.249 43.488 78.249 L 46.664 81.453 C 46.664 81.453 48.402 79.806 49.163 78.474 C 50.036 77.260 51.253 75.434 51.253 75.434 "/>
    </g>
    <path id="ID0.017732197884470224" fill="#FAA51D" stroke="#231F20" stroke-width="1.2" d="M 29.926 73.218 C 30.675 72.647 32.815 71.016 34.780 69.561 C 37.208 67.762 40.897 63.712 35.857 61.915 C 30.817 60.114 28.350 63.519 24.338 66.861 C 22.179 68.662 19.030 69.560 20.019 73.070 C 21.012 76.581 24.881 86.478 31.808 83.240 C 38.737 80.001 30.009 74.060 28.748 72.083 "/>
    <g id="Layer_2">
      <path id="ID0.4667322891764343" fill="#FAA51D" stroke="#231F20" stroke-width="1.2" d="M 52.709 14.156 C 51.169 14.013 47.959 13.840 46.191 13.925 C 41.463 14.150 36.967 15.853 36.967 15.853 L 23.949 7.357 L 26.184 26.263 C 26.830 25.481 15.629 39.067 22.705 50.487 C 29.785 61.913 44.938 67.005 63.693 63.279 C 82.448 59.550 86.922 48.748 85.679 43.033 C 84.437 37.319 77.357 35.210 77.357 35.210 C 77.357 35.210 77.267 30.730 74.029 25.240 C 72.103 21.972 65.681 17.199 65.681 17.199 L 62.822 5.647 L 55.370 12.851 L 52.709 14.156 Z "/>
      <path id="ID0.6655192254111171" fill="#FFFFFF" d="M 76.420 35.066 L 73.938 33.002 L 64.823 35.663 C 64.823 35.663 64.823 39.082 60.456 40.030 C 56.086 40.981 49.245 37.753 49.245 37.753 L 41.460 41.170 C 41.460 41.170 33.023 42.098 32.721 47.251 C 32.048 58.704 46.100 63.479 51.425 63.783 C 54.330 63.950 59.660 63.445 63.702 62.642 C 81.454 59.408 86.253 48.723 85.012 43.007 C 83.770 37.293 77.034 35.811 77.034 35.811 L 76.420 35.066 Z "/>
      <path id="ID0.13082147715613246" fill="none" stroke="#231F20" stroke-width="1.2" d="M 10.673 46.155 C 10.673 46.155 14.780 46.529 16.647 46.423 C 18.512 46.316 22.139 45.836 22.139 45.836 "/>
      <path id="ID0.04599890997633338" fill="none" stroke="#231F20" stroke-width="1.2" d="M 81.656 40.671 C 81.656 40.671 86.205 39.928 88.515 39.122 C 91.230 38.180 93.058 36.577 93.058 36.577 "/>
      <path id="ID0.09440325666218996" fill="none" stroke="#231F20" stroke-width="1.2" d="M 22.337 41.909 C 22.337 41.909 19.953 40.132 16.220 38.479 C 12.086 36.648 9.815 36.176 9.815 36.176 "/>
      <path id="ID0.42567099817097187" fill="none" stroke="#231F20" stroke-width="1.2" d="M 82.117 46.622 C 82.117 46.622 84.843 47.726 87.650 48.007 C 90.420 48.283 92.296 48.117 92.296 48.117 "/>
      <path id="ID0.9297998398542404" fill="none" stroke="#000000" stroke-linecap="round" d="M 52.350 14.212 C 55.190 14.912 56.237 15.681 56.237 15.681 "/>
      <path id="ID0.1121952491812408" fill="none" stroke="#000000" d="M 33.898 13.684 L 39.956 18.042 "/>
    </g>
    <g id="Layer_5">
      <path id="ID0.7596660940907896" fill="#FFFFFF" stroke="#231F20" d="M 71.840 25.366 C 74.764 29.845 74.873 34.957 72.082 36.781 C 69.289 38.606 64.656 36.449 61.728 31.968 C 58.795 27.488 58.691 22.379 61.484 20.553 C 64.275 18.730 68.913 20.884 71.840 25.366 Z "/>
      <path id="ID0.3683806308545172" fill="#231F20" d="M 71.089 32.522 C 71.089 33.602 70.287 34.478 69.289 34.478 C 68.296 34.478 67.486 33.601 67.486 32.522 C 67.486 31.442 68.296 30.564 69.289 30.564 C 70.287 30.564 71.089 31.442 71.089 32.522 "/>
    </g>
    <g id="Layer_7">
      <path id="ID0.9499196009710431" fill="#FFFFFF" stroke="#231F20" d="M 47.867 28.619 C 50.793 33.099 50.486 38.481 47.186 40.634 C 43.884 42.793 38.835 40.906 35.910 36.426 C 32.982 31.946 33.286 26.566 36.588 24.409 C 39.891 22.253 44.938 24.137 47.867 28.619 Z "/>
      <path id="ID0.6029720683582127" fill="#231F20" d="M 46.079 34.507 C 46.079 35.588 45.276 36.464 44.278 36.464 C 43.286 36.464 42.475 35.586 42.475 34.507 C 42.475 33.427 43.286 32.550 44.278 32.550 C 45.274 32.550 46.079 33.427 46.079 34.507 "/>
    </g>
    <path id="ID0.843347423709929" fill="#5E4A42" stroke="#000000" d="M 59.766 37.926 C 61.620 37.926 64.321 37.642 64.463 38.495 C 64.606 39.350 62.754 42.698 61.475 42.840 C 60.192 42.982 55.350 40.487 55.280 38.921 C 55.206 37.355 58.055 37.926 59.766 37.926 Z "/>
    <g id="Layer_4">
      <path id="ID0.7664906638674438" fill="none" stroke="#231F20" stroke-width="1.2" d="M 46.774 45.235 C 46.774 45.235 57.121 48.289 60.991 49.132 C 64.859 49.974 71.842 50.816 71.842 50.816 C 71.842 50.816 63.852 61.061 54.514 58.460 C 45.176 55.863 45.345 49.975 46.774 45.235 Z "/>
    </g>
  </g>
  <path id="ID0.20410560863092542" fill="none" stroke="#000000" stroke-width="2" stroke-linecap="round" d="M 144 83 C 144 83 145.247 81.565 146 81 C 146.596 80.553 147.473 80.527 148 80 C 148.527 79.473 148.667 78.666 149 78 C 149.666 76.668 150.211 75.263 151 74 C 151.882 72.588 153.174 71.446 154 70 C 154.522 69.086 154.585 67.968 155 67 C 155.587 65.631 156.529 64.413 157 63 C 157.211 62.368 156.789 61.632 157 61 C 157.471 59.587 158.334 58.332 159 57 C 159.333 56.334 159.667 55.666 160 55 C 160.333 54.334 160.667 53.666 161 53 C 161.333 52.334 161.819 51.722 162 51 C 162.162 50.354 161.869 49.653 162 49 C 162.207 47.967 162.529 46.942 163 46 C 163.537 44.926 164.382 44.030 165 43 C 165.383 42.362 165.553 41.596 166 41 C 166.565 40.247 167.579 39.842 168 39 C 168.298 38.404 167.631 37.554 168 37 C 168.413 36.380 169.278 36.181 170 36 C 170.646 35.838 171.446 35.631 172 36 C 172.620 36.413 172.667 37.334 173 38 C 173.333 38.666 173.819 39.278 174 40 C 174.162 40.646 173.657 41.429 174 42 C 174.727 43.211 176.368 43.736 177 45 C 177.447 45.894 176.629 47.072 177 48 C 177.350 48.875 178.515 49.192 179 50 C 179.542 50.903 179.793 51.967 180 53 C 180.131 53.653 180 54.334 180 55 C 180 55.666 179.702 56.404 180 57 C 180.421 57.842 181.579 58.158 182 59 C 182.298 59.596 182 60.334 182 61 C 182 61.666 181.838 62.354 182 63 C 182.181 63.722 182.819 64.278 183 65 C 183.162 65.646 182.753 66.382 183 67 C 183.446 68.115 184.554 68.885 185 70 C 185.247 70.618 185 71.334 185 72 C 185 72.666 185 73.334 185 74 C 185 74.666 185 75.334 185 76 C 185 76.666 185 77.334 185 78 C 185 78.666 185 79.334 185 80 C 185 80.666 185.162 81.354 185 82 C 184.819 82.722 184.177 84 184 84 C 183.823 84 184 82.666 184 82 C 184 81.334 184 80.666 184 80 C 184 79.001 184 77.999 184 77 C 184 76.001 183.836 74.985 184 74 C 184.173 72.961 184.793 72.033 185 71 C 185.131 70.347 185 69.666 185 69 C 185 68.334 185 67.666 185 67 C 185 66.334 185 65.666 185 65 C 185 63.668 185 62.332 185 61 C 185 60.334 185 59.666 185 59 C 185 58.001 185 56.999 185 56 C 185 55.001 185 53.999 185 53 C 185 52.334 185 51.666 185 51 C 185 49.668 185 48.332 185 47 C 185 46.001 185 44.999 185 44 C 185 43.334 185.298 42.596 185 42 C 184.579 41.158 183.421 40.842 183 40 C 182.702 39.404 183 38.666 183 38 C 183 37.334 183.131 36.653 183 36 C 182.793 34.967 182 34.053 182 33 C 182 32.255 182.667 31.666 183 31 C 183.333 30.334 183.819 29.722 184 29 C 184.162 28.354 184 27.666 184 27 C 184 26.667 184 26 184 26 " transform="matrix(1, 0, 0, 1, -143, -10)"/>
  <path id="ID0.7986095584928989" fill="none" stroke="#000000" stroke-width="2" stroke-linecap="round" d="M 294 27 C 294 27 291.745 27.255 291 28 C 290.529 28.471 290.838 29.354 291 30 C 291.181 30.722 291.819 31.278 292 32 C 292.162 32.646 292.162 33.354 292 34 C 291.819 34.722 291.181 35.278 291 36 C 290.838 36.646 291 37.334 291 38 C 291 38.666 291 39.334 291 40 C 291 40.666 291 41.334 291 42 C 291 42.999 291 44.001 291 45 C 291 45.999 291.196 47.020 291 48 C 290.854 48.730 290.181 49.278 290 50 C 289.838 50.646 290 51.334 290 52 C 290 52.666 290 53.334 290 54 C 290 54.666 290 55.334 290 56 C 290 56.666 290 57.334 290 58 C 290 58.666 290 59.334 290 60 C 290 60.999 289.859 62.011 290 63 C 290.194 64.359 290.566 65.697 291 67 C 291.235 67.706 291.723 68.309 292 69 C 292.391 69.978 292.368 71.158 293 72 C 293.447 72.596 294.404 72.553 295 73 C 295.753 73.565 296.334 74.334 297 75 C 297.666 75.666 298.435 76.247 299 77 C 299.447 77.596 299.535 78.419 300 79 C 300.883 80.103 301.897 81.117 303 82 C 303.581 82.465 304.278 82.819 305 83 C 305.646 83.162 306.334 83 307 83 C 307.666 83 308.334 83 309 83 C 309.999 83 311.001 83 312 83 C 312.666 83 313.334 83 314 83 C 314.666 83 315.382 83.247 316 83 C 317.115 82.554 318.001 81.666 319 81 C 319.999 80.334 321.062 79.750 322 79 C 322.735 78.412 323.247 77.565 324 77 C 324.596 76.553 325.334 76.333 326 76 C 326.666 75.667 327.404 75.447 328 75 C 328.753 74.435 329.265 73.588 330 73 C 330.938 72.250 332.151 71.849 333 71 C 333.527 70.473 333.553 69.596 334 69 C 334.565 68.247 335.334 67.666 336 67 C 336.666 66.334 337.334 65.666 338 65 C 338.666 64.334 339.334 63.666 340 63 C 340.666 62.334 341.579 61.842 342 61 C 342.298 60.404 341.838 59.646 342 59 C 342.181 58.278 343.527 57.527 343 57 C 342.029 56.029 340.354 56.226 339 56 C 338.343 55.891 337.666 56 337 56 C 335.668 56 334.332 56 333 56 C 331.335 56 329.652 56.207 328 56 C 326.955 55.869 326.039 55.173 325 55 C 324.015 54.836 322.980 55.196 322 55 C 321.270 54.854 320.722 54.181 320 54 C 319.354 53.838 318.666 54 318 54 C 317.334 54 316.666 54 316 54 C 315.334 54 314.632 54.211 314 54 C 313.553 53.851 313 53 313 53 " transform="matrix(1, 0, 0, 1, -143, -10)"/>
  <path id="ID0.24014283949509263" fill="none" stroke="#000000" stroke-width="2" stroke-linecap="round" d="M 394 17 C 394 17 396.158 17.368 397 18 C 397.596 18.447 397.667 19.334 398 20 C 398.333 20.666 398.667 21.334 399 22 C 399.333 22.666 399.819 23.278 400 24 C 400.162 24.646 399.753 25.382 400 26 C 400.446 27.115 401.554 27.885 402 29 C 402.247 29.618 402 30.334 402 31 C 402 31.999 401.804 33.020 402 34 C 402.146 34.730 402.854 35.270 403 36 C 403.196 36.980 403 38.001 403 39 C 403 40.332 403 41.668 403 43 C 403 43.999 403 45.001 403 46 C 403 46.999 403 48.001 403 49 C 403 49.666 403 50.334 403 51 C 403 51.666 403 52.334 403 53 C 403 53.666 403.131 54.347 403 55 C 402.793 56.033 402.173 56.961 402 58 C 401.836 58.985 402 60.001 402 61 C 402 61.666 402 62.334 402 63 C 402 63.999 402 65.001 402 66 C 402 66.999 402 68.001 402 69 C 402 71.331 401.646 73.696 402 76 C 402.983 82.391 404.876 88.633 406 95 C 406.876 99.963 407.319 105.007 408 110 C 408.318 112.333 408.667 114.669 409 117 C 409.333 119.331 409.804 121.653 410 124 C 410.138 125.659 410 127.335 410 129 C 410 130.998 409.801 133.012 410 135 C 410.137 136.366 410.806 137.641 411 139 C 411.141 139.989 411 141.001 411 142 C 411 142.666 410.631 143.446 411 144 C 411.413 144.620 412.278 144.819 413 145 C 413.646 145.162 414.404 145.298 415 145 C 415.842 144.579 416.515 143.808 417 143 C 417.542 142.097 417.342 140.822 418 140 C 418.750 139.062 420.250 138.938 421 138 C 421.658 137.178 421.529 135.942 422 135 C 422.537 133.926 423.463 133.074 424 132 C 424.471 131.058 424.458 129.903 425 129 C 425.485 128.192 426.435 127.753 427 127 C 427.447 126.404 427.553 125.596 428 125 C 428.565 124.247 429.515 123.808 430 123 C 430.542 122.097 430.667 120.999 431 120 C 431.333 119.001 431.609 117.978 432 117 C 432.277 116.309 432.667 115.666 433 115 C 433.666 113.668 434.334 112.332 435 111 C 435.333 110.334 435.723 109.691 436 109 C 436.391 108.022 436.793 107.033 437 106 C 437.131 105.347 436.838 104.646 437 104 C 437.181 103.278 437.765 102.706 438 102 C 438.434 100.697 438.667 99.332 439 98 C 439.333 96.668 439.623 95.320 440 94 C 440.289 92.987 440.667 91.999 441 91 C 441.333 90.001 441.793 89.033 442 88 C 442.131 87.347 442 86.666 442 86 C 442 85.001 441.836 83.985 442 83 C 442.173 81.961 442.827 81.039 443 80 C 443.164 79.015 443 77.999 443 77 C 443 76.334 443.131 75.653 443 75 C 442.793 73.967 442.273 73.160 442 72 C 440.908 67.359 440.092 62.641 439 58 C 438.727 56.840 438.471 55.942 438 55 C 437.463 53.926 436.618 53.030 436 52 C 435.617 51.362 435.277 50.691 435 50 C 434.609 49.022 434.471 47.942 434 47 C 433.463 45.926 432.618 45.030 432 44 C 431.617 43.362 431.333 42.666 431 42 C 430.667 41.334 430.447 40.596 430 40 C 429.435 39.247 428.588 38.735 428 38 C 427.250 37.062 426.750 35.938 426 35 C 425.412 34.265 424.666 33.666 424 33 C 423.334 32.334 422.565 31.753 422 31 C 421.553 30.404 421.527 29.527 421 29 C 420.151 28.151 418.849 27.849 418 27 C 417.473 26.473 417.527 25.527 417 25 C 416.473 24.473 415.596 24.447 415 24 C 414.247 23.435 413.666 22.666 413 22 C 412.001 21.001 410.883 20.103 410 19 C 409.535 18.419 409.527 17.527 409 17 C 408.473 16.473 407.596 16.447 407 16 C 406.247 15.435 405.753 14.565 405 14 C 404.404 13.553 403.722 13.181 403 13 C 402.354 12.838 401.646 13.162 401 13 C 400.278 12.819 399.730 12.146 399 12 C 398.020 11.804 396.999 12 396 12 C 395.334 12 394.666 12 394 12 C 393.001 12 391.999 12 391 12 C 390.334 12 389.666 12 389 12 C 388.334 12 387.596 11.702 387 12 C 386.158 12.421 385.666 13.334 385 14 C 384.334 14.666 383.522 15.216 383 16 C 382.174 17.239 381.666 18.668 381 20 C 380.834 20.333 381 20 381 20 " transform="matrix(1, 0, 0, 1, -143, -10)"/>
</svg>