<svg version="1.1" xmlns="http://www.w3.org/2000/svg" xmlns:xlink="http://www.w3.org/1999/xlink" width="184" height="239.65543" viewBox="0,0,184,239.65543"><defs><linearGradient x1="240" y1="62.5" x2="240" y2="297.5" gradientUnits="userSpaceOnUse" id="color-1"><stop offset="0" stop-color="#ffffff" stop-opacity="0"/><stop offset="1" stop-color="#ffffff"/></linearGradient><linearGradient x1="242.5914" y1="75.02503" x2="242.5914" y2="126.39063" gradientUnits="userSpaceOnUse" id="color-2"><stop offset="0" stop-color="#00ebd4"/><stop offset="1" stop-color="#009cff"/></linearGradient><linearGradient x1="227.22635" y1="149.0012" x2="227.22635" y2="179.21067" gradientUnits="userSpaceOnUse" id="color-3"><stop offset="0" stop-color="#00ebd4"/><stop offset="1" stop-color="#009cff"/></linearGradient><linearGradient x1="255.07571" y1="167.88212" x2="255.07571" y2="186.76304" gradientUnits="userSpaceOnUse" id="color-4"><stop offset="0" stop-color="#00ebd4"/><stop offset="1" stop-color="#009cff"/></linearGradient><linearGradient x1="301.59823" y1="241.81624" x2="273.82395" y2="229.93342" gradientUnits="userSpaceOnUse" id="color-5"><stop offset="0" stop-color="#00ebd4"/><stop offset="1" stop-color="#009cff"/></linearGradient><linearGradient x1="273.28483" y1="259.9939" x2="255.9259" y2="252.56713" gradientUnits="userSpaceOnUse" id="color-6"><stop offset="0" stop-color="#00ebd4"/><stop offset="1" stop-color="#009cff"/></linearGradient><linearGradient x1="182.59698" y1="261.926" x2="207.69291" y2="245.10914" gradientUnits="userSpaceOnUse" id="color-7"><stop offset="0" stop-color="#00ebd4"/><stop offset="1" stop-color="#009cff"/></linearGradient><linearGradient x1="182.77889" y1="228.28015" x2="198.46385" y2="217.76962" gradientUnits="userSpaceOnUse" id="color-8"><stop offset="0" stop-color="#00ebd4"/><stop offset="1" stop-color="#009cff"/></linearGradient></defs><g transform="translate(-148,-57.84457)"><g data-paper-data="{&quot;isPaintingLayer&quot;:true}" fill-rule="nonzero" stroke-linejoin="miter" stroke-miterlimit="10" stroke-dasharray="" stroke-dashoffset="0" style="mix-blend-mode: normal"><path d="M332,180c0,64.89346 -41.1898,117.5 -92,117.5c-50.81019,0 -92,-52.60654 -92,-117.5c0,-64.89346 41.18981,-117.5 92,-117.5c50.8102,0 92,52.60654 92,117.5z" data-paper-data="{&quot;index&quot;:null}" fill="url(#color-1)" stroke="#000000" stroke-width="0" stroke-linecap="butt"/><path d="M197.4758,125.19976c-16.3678,-5.82979 -29.22179,-21.84669 -29.85593,-28.79647c-0.85686,-9.39076 23.28081,-25.39272 44.08175,-28.55872c10.50986,-1.59965 44.18161,0.26202 57.58786,2.23562c22.81509,3.35872 47.46318,17.39574 48.2756,26.29943c0.86682,9.4999 -23.0875,25.72772 -45.95592,31.44315c-11.15902,2.78893 -57.20979,3.40473 -74.13334,-2.623z" fill="none" stroke="url(#color-2)" stroke-width="20" stroke-linecap="butt"/><g fill="none" stroke-width="7.5" stroke-linecap="round"><g><path d="M200.32103,179.21067l24.5452,-30.20947l29.26543,27.84936" stroke="url(#color-3)"/><path d="M258.37987,167.88212l7.08034,18.88092l-20.76901,-4.2482" stroke="url(#color-4)"/></g><g><path d="M284.40708,205.19695l18.1195,34.44943l-37.11591,15.95186" stroke="url(#color-5)"/><path d="M271.98514,263.03171l-20.14396,-0.91717l12.0752,-17.4238" stroke="url(#color-6)"/></g><g><path d="M222.67043,267.4602l-38.75963,-3.57358l6.84397,-39.81473" stroke="url(#color-7)"/><path d="M180.93955,225.53529l11.74351,-16.3924l8.03248,19.61832" stroke="url(#color-8)"/></g></g></g></g></svg>