<svg version="1.1" xmlns="http://www.w3.org/2000/svg" xmlns:xlink="http://www.w3.org/1999/xlink" width="246.30919" height="260.75" viewBox="0,0,246.30919,260.75"><g transform="translate(-55.75,-27.75)"><g data-paper-data="{&quot;isPaintingLayer&quot;:true}" fill="#ffffff" fill-rule="nonzero" stroke="#ffffff" stroke-linejoin="miter" stroke-miterlimit="10" stroke-dasharray="" stroke-dashoffset="0" style="mix-blend-mode: normal"><path d="M109.46429,232.1l1.33469,-145.48163" stroke-width="12.5" stroke-linecap="round"/><path d="M293.5847,45.56939l2.22449,181.29592" stroke-width="12.5" stroke-linecap="round"/><path d="M109.75,83.5l183,-47" stroke-width="17.5" stroke-linecap="round"/><path d="M300.39092,226.5c0,20.43454 6.8897,37 -17.49269,37c-24.38239,0 -44.14823,-16.56546 -44.14823,-37c0,-20.43454 19.76584,-37 44.14823,-37c24.38239,0 17.49269,16.56546 17.49269,37z" stroke-width="0" stroke-linecap="butt"/><path d="M117.39092,251.5c0,20.43453 6.8897,37 -17.49269,37c-24.38239,0 -44.14822,-16.56547 -44.14822,-37c0,-20.43454 19.76583,-37 44.14823,-37c24.38239,0 17.49269,16.56546 17.49269,37z" stroke-width="0" stroke-linecap="butt"/></g></g></svg>