<svg version="1.1" xmlns="http://www.w3.org/2000/svg" xmlns:xlink="http://www.w3.org/1999/xlink" width="453.64285" height="70.15069" viewBox="0,0,453.64285,70.15069"><defs><linearGradient x1="240.26139" y1="182.86065" x2="240.26139" y2="199.59838" gradientUnits="userSpaceOnUse" id="color-1"><stop offset="0" stop-color="#555555"/><stop offset="1" stop-color="#c5c5c5"/></linearGradient><linearGradient x1="240.26139" y1="215.59838" x2="240.26139" y2="198.86065" gradientUnits="userSpaceOnUse" id="color-2"><stop offset="0" stop-color="#555555"/><stop offset="1" stop-color="#c5c5c5"/></linearGradient><linearGradient x1="1052.77264" y1="-1888.78584" x2="1052.77264" y2="-1653.53314" gradientUnits="userSpaceOnUse" id="color-3"><stop offset="0" stop-color="#005921"/><stop offset="1" stop-color="#00ff14"/></linearGradient><linearGradient x1="1052.77264" y1="-1888.78584" x2="1052.77264" y2="-1653.53314" gradientUnits="userSpaceOnUse" id="color-4"><stop offset="0" stop-color="#005921"/><stop offset="1" stop-color="#00ff14"/></linearGradient><linearGradient x1="241.26139" y1="195.51037" x2="241.26139" y2="199.44866" gradientUnits="userSpaceOnUse" id="color-5"><stop offset="0" stop-color="#555555"/><stop offset="1" stop-color="#c5c5c5"/></linearGradient><linearGradient x1="238.46764" y1="148.9738" x2="238.46764" y2="181.55232" gradientUnits="userSpaceOnUse" id="color-6"><stop offset="0" stop-color="#ffffff"/><stop offset="1" stop-color="#ffffff" stop-opacity="0"/></linearGradient></defs><g transform="translate(-13.41071,-145.44768)"><g data-paper-data="{&quot;isPaintingLayer&quot;:true}" fill-rule="nonzero" stroke-linejoin="miter" stroke-miterlimit="10" stroke-dasharray="" stroke-dashoffset="0" style="mix-blend-mode: normal"><g stroke="none" stroke-width="0" stroke-linecap="butt"><path d="M15.31551,199.59838l7.5,-17.73773l432.89171,-2.5l9.5,20.23773z" fill="url(#color-1)"/><path d="M465.20722,198.86065v16.73773h-449.89171v-16.73773z" data-paper-data="{&quot;index&quot;:null}" fill="url(#color-2)"/></g><path d="" fill="url(#color-3)" stroke="#009c42" stroke-width="12.5" stroke-linecap="round"/><path d="" fill="url(#color-4)" stroke="#009c42" stroke-width="12.5" stroke-linecap="round"/><path d="M16.31551,199.44866v-3.93829h449.89171v3.93829z" fill="url(#color-5)" stroke="none" stroke-width="0" stroke-linecap="butt"/><path d="M13.41071,197.18108c0,0 23.00861,-50.22816 25.16634,-50.22816c30.42513,0 404.65332,-1.40157 404.65332,-1.40157l23.82319,50.4503z" fill="#a3a3a3" stroke="none" stroke-width="0" stroke-linecap="butt"/><path d="M18.67857,184.05232c0,0 16.00861,-38.12451 18.16634,-38.12451c30.42513,0 408.65332,-0.48012 408.65332,-0.48012l15.32319,39.27985z" fill="url(#color-6)" stroke="none" stroke-width="0" stroke-linecap="butt"/></g></g></svg>