<svg version="1.1" xmlns="http://www.w3.org/2000/svg" xmlns:xlink="http://www.w3.org/1999/xlink" width="450.43619" height="339.52103" viewBox="0,0,450.43619,339.52103"><g transform="translate(3.47252,-56.0332)"><g data-paper-data="{&quot;isPaintingLayer&quot;:true}" fill-rule="nonzero" stroke="none" stroke-width="0.5" stroke-linecap="butt" stroke-linejoin="miter" stroke-miterlimit="10" stroke-dasharray="" stroke-dashoffset="0" style="mix-blend-mode: normal"><path d="M177.48575,271.24306c3.03499,0 5.8786,0.81942 8.32165,2.24909l1.21741,0.32903l1.2172,1.40939c1.23949,1.0665 2.31876,2.31402 3.19678,3.70153l0.48446,0.56095l0.11809,0.47236c1.2408,2.31726 1.94441,4.96528 1.94441,7.77764v2.90172l-0.6433,2.57319l-0.20343,2.64457l-0.12052,0.36155v0.22414l-0.91951,3.67805l-0.82244,3.70097l-0.20561,0.41122l-0.90644,3.62574l-0.00224,0.01008l0.05732,0.22569l-0.1028,0.46262v0.45976l-0.91951,3.67805l-0.00224,0.01008l0.05732,0.22569l-0.1028,0.46262v0.45976l-0.91951,3.67805l-0.82244,3.70097l-0.20561,0.41122l-0.11494,0.45976l-0.27298,0.31608l-0.81654,1.63308l-0.59643,1.78928l-0.6376,1.00194l-0.25763,1.15933l-1.93448,3.86897l-1.72615,2.01384l-0.56739,0.94565l-0.75299,3.01195l-0.00224,0.01008l0.05732,0.22569l-0.1028,0.46262v0.45976l-0.49265,1.97059v0.56588l0.59545,2.3446l-0.59545,2.67954l0,2.7449l-0.47459,0.9404v2.29547l-0.6433,2.57319l-0.20343,2.64457l-0.96724,2.90172l-0.6376,1.00194l-0.25763,1.15933l-1.93448,3.86897l-0.29915,0.34901l-0.62323,1.49575l-2.48333,2.12856l-2.12856,2.48333l-0.02434,0.01014l-0.4339,0.72317l-0.23891,0.23891l-0.49441,1.18657l-2.48333,2.12856l-2.12856,2.48333l-0.02434,0.01014l-0.4339,0.72317l-1.93448,1.93448l-2.2744,1.36464l-0.40237,0.34489l-1.19219,1.19219l-2.2744,1.36464l-2.01384,1.72615l-2.68191,1.34095l-0.31608,0.27298l-0.45976,0.11494l-0.41122,0.20561l-3.70097,0.82244l-3.67805,0.91951h-0.45976l-0.46262,0.1028l-0.40479,-0.1028h-2.18186l-0.40479,0.1028l-0.46262,-0.1028h-0.45976l-3.67805,-0.91951l-0.21478,-0.04773l-1.55069,0l-0.40479,0.1028l-0.46262,-0.1028h-0.45976l-3.67805,-0.91951l-0.01008,-0.00224l-0.22569,0.05732l-0.46262,-0.1028h-0.45976l-3.67805,-0.91951l-0.21478,-0.04773h-0.94338l-0.77689,-0.19422l-3.59833,-0.26329l-1.81797,-1.09078l-2.0568,-0.5142l-1.47754,-1.27606l-1.52045,-0.33788l-0.3869,-0.19345l-3.48207,-0.77379l-0.41122,-0.20561l-0.45976,-0.11494l-0.31608,-0.27298l-0.1914,-0.0957l-1.69126,-0.42281l-3.70097,-0.82244l-0.41122,-0.20561l-0.45976,-0.11494l-0.31608,-0.27298l-14.2888,-7.1444l-2.01384,-1.72615l-2.2744,-1.36464l-0.23891,-0.23891l-1.18657,-0.49441l-2.12856,-2.48333l-2.48333,-2.12856l-0.62323,-1.49575l-0.29915,-0.34901l-2.90172,-5.80345l-0.25763,-1.15933l-0.6376,-1.00194l-0.96724,-2.90172l-0.04962,-0.64506l-0.30446,-0.57086l-0.81355,-3.25421l-0.76685,-2.30056l-0.16278,-2.11614l-0.73167,-3.29253l-0.91951,-3.67805v-0.45976l-0.1028,-0.46262l0.05732,-0.22569l-0.00224,-0.01008l-0.91951,-3.67805v-0.45976l-0.1028,-0.46262l0.1028,-0.40479v-13.78876l-0.1028,-0.40479l0.1028,-0.46262v-0.45976l0.91951,-3.67805l0.04773,-0.21478v-3.8451l0.6433,-2.57319l0.20343,-2.64457l0.12052,-0.36155v-7.96207l0.6433,-2.57319l0.20343,-2.64457l0.12052,-0.36155v-0.22414l0.6433,-2.57319l0.20343,-2.64457l0.77379,-2.32138l0.19345,-2.51483l0.12052,-0.36155v-1.79869l-0.1028,-0.40479l0.1028,-0.46262v-0.45976l0.91951,-3.67805l0.82244,-3.70097l0.20561,-0.41122l0.11494,-0.45976l0.27298,-0.31608l0.37371,-0.74742l0.36861,-0.43004l0.46757,-1.73l3.90886,-3.37583l0.78924,-0.92078l0.53508,-0.22295l0.4387,-0.37888l1.17653,-0.29413l1.5324,-0.6385l1.16004,-1.00185l2.0568,-0.5142l1.81797,-1.09078l3.41797,-0.2501l1.14816,-0.25515l1.50361,-0.3759l0.84783,-0.3491l0.41951,0.03227l0.9071,-0.22678l0.45976,0l0.46262,-0.1028l0.40479,0.1028h0.60731l2.57319,0.6433l2.64457,0.20343l0.36155,0.12052h2.15863l2.57319,0.6433l2.64457,0.20343l0.36155,0.12052h10.8638l2.57319,0.6433l2.64457,0.20343l9.06672,3.02224h0.22414l3.67805,0.91951l0.21478,0.04773h8.68131l2.57319,0.6433l2.64457,0.20343l0.36155,0.12052h0.22414l3.67805,0.91951l3.70097,0.82244l0.41122,0.20561l0.45976,0.11494l0.31608,0.27298l3.56757,1.78378l1.78928,0.59643l7.17442,4.56554l0.26358,0.44303c1.78259,-0.65909 3.71017,-1.01909 5.72183,-1.01909zM150.86318,303.76992l0.1098,-0.49409l-0.89125,0l0.37671,1.13012z" fill="#fffe00"/><path d="M257.38628,284.00745c8.26512,-11.57507 25.54621,-6.26887 37.23243,-5.9937c6.08397,0.14326 12.17133,0.01572 18.25696,0c1.60092,-0.00414 3.18425,-1.07005 4.81521,-1.07005c3.60458,0 6.93181,1.0497 10.46037,1.07005c12.36842,0.07133 25.70452,-3.25156 34.45808,6.96094c3.13312,3.65531 5.41023,15.51283 6.44709,20.17872c0.6405,2.88226 -1.18839,6.10659 -1.65119,8.90507c-0.90665,5.48244 -1.98808,11.13869 -3.0645,16.62476c-0.39704,2.02356 -1.57047,3.89467 -1.68019,5.9539c-0.04332,0.81307 0.55119,1.55655 0.59243,2.36972c0.38441,7.58018 0.00318,11.03815 -1.74195,18.01868c-1.1591,4.63639 -5.0792,7.84945 -7.5296,11.68625c-5.11498,8.00901 -14.80042,14.99696 -23.11166,19.4144c-3.09897,1.64711 -5.17672,4.69546 -8.75881,5.6128c-4.67262,1.19662 -12.21098,2.47773 -16.94936,1.42476c-1.04824,-0.23294 -6.52945,-1.86481 -7.55306,-1.82897c-1.47755,0.05173 -5.83476,-1.35399 -7.47416,-2.76984c-3.37826,-2.91759 -8.29328,-6.55461 -11.14865,-9.90634c-2.33791,-2.74431 -3.3643,-6.36571 -5.26003,-9.21362c-0.62039,-0.93201 -2.19771,-1.89175 -2.71183,-2.90227c-1.20481,-2.3681 -1.79623,-5.00201 -2.76984,-7.47416c-3.01794,-7.66302 -4.69144,-7.37643 -6.66518,-16.25824c-0.86548,-3.89464 2.68098,-10.42617 1.93448,-12.79828c-1.96839,-6.2549 -4.33733,-11.55592 -5.80345,-18.15344c-0.67339,-3.03025 1.31456,-6.11247 1.48213,-9.11155c-0.52475,-0.56737 -1.01014,-1.17167 -1.45184,-1.80857c-1.84869,-2.66565 -2.93201,-5.90229 -2.93201,-9.39195c0,-2.07012 0.38123,-4.05121 1.07731,-5.87687c0.29348,-1.3186 0.72297,-2.57283 1.50082,-3.66219z" fill="#fffe00"/><path d="M364.77268,254.90096c1.24088,2.9781 1.69884,6.86827 2.5418,9.98722c0.10582,0.39154 2.19016,6.66673 1.84476,8.3014c-1.74417,8.25449 -1.74978,8.26357 -8.3528,13.51512c-1.08432,0.86239 -3.06127,0.49827 -4.32872,1.08218c-6.42451,2.95973 -8.74979,4.31022 -15.52817,5.81653c-4.86913,1.08203 -8.1457,-0.95088 -12.598,-0.96724c-8.60415,-0.03162 -11.39548,0.53313 -18.35372,0.96724c-8.32158,0.51917 -16.69906,-1.05012 -24.83875,-2.22844c-13.74794,-1.99017 -27.68872,-3.60195 -41.26785,-5.82991c-4.96487,-0.8146 -10.14933,-2.45492 -15.17778,-3.07395c-10.38,-1.27784 -18.63727,-1.2288 -29.94837,-1.44183c-6.7949,-0.12797 -17.73266,-3.169 -25.28115,-4.36161c-8.43611,-1.33285 -16.8449,-3.41467 -25.14827,-4.83621c-7.37866,-1.26323 -13.83885,-4.20853 -21.54478,-4.34356c-5.41067,-0.09481 -26.47226,3.38791 -41.49964,-0.20291c-0.84541,0.13356 -1.71216,0.20291 -2.59511,0.20291c-7.75815,0 -14.26572,-5.35437 -16.02893,-12.56932c-1.5103,-0.18213 -3.12583,-0.58163 -4.48053,-0.88267c-5.57753,-1.23945 -14.05759,-8.2892 -13.61899,-14.28344c0.44564,-6.09043 1.59416,-9.2311 5.05084,-13.97321c1.38927,-1.90589 2.99979,-4.36398 4.83621,-5.80345c0.81767,-0.64093 3.00901,-0.70271 2.63128,-1.67054c-2.98945,-7.65969 -1.49537,-21.50905 7.55667,-25.28073c6.7322,-2.80508 15.34247,-3.46669 22.75862,-3.02974c16.73959,0.98627 33.52855,0.82292 50.29655,0.96724c7.56623,0.06512 15.08307,2.35108 22.64489,2.90172c6.01941,0.43833 12.17555,0.36231 18.11212,1.45989c4.5939,0.84934 9.74741,2.37636 14.47251,2.40908c22.21376,0.15381 44.42955,-0.20645 66.64289,0c1.73484,0.01612 3.78338,0.96078 5.57931,0.96724c26.22742,0.09443 51.58213,-0.01022 76.82697,6.30311c5.14401,1.28643 15.82448,2.06012 20.63337,4.46456c9.49558,4.74779 9.34313,15.5132 5.67188,23.97656c-0.43715,1.00777 -2.28621,1.07536 -2.49412,2.15401c-0.23315,1.2096 1.21849,2.19628 1.42138,3.41132c0.2532,1.5163 0.30494,3.10514 0,4.61189c-1.02094,5.04464 -3.44862,6.74445 -6.64627,10.3348z" fill="#00ffe2"/><path d="M125.69521,274.00828c-2.65406,-1.21848 -5.24513,-1.8242 -7.81951,-3.42613c-6.71537,-4.1787 -11.88586,-9.78296 -15.50385,-16.85799c-0.51399,-1.00512 -1.825,-1.36052 -2.55969,-2.21766c-0.59305,-0.6919 -0.69424,-2.01625 -1.38564,-2.70764c-2.14986,-2.14986 -5.17732,-3.49828 -7.31953,-5.99753c-2.61267,-3.04811 -5.79094,-12.49213 -6.65381,-16.58016c-2.04141,-9.67162 -0.62363,-19.46764 0.12052,-29.09813c1.44203,-18.66227 7.67167,-36.88229 13.5423,-54.49416c1.92147,-5.76441 3.43068,-10.48851 6.09362,-15.8144c1.75277,-3.50554 2.41442,-7.66755 5.26782,-10.64744c3.6313,-3.79226 3.34021,-10.30857 7.59128,-13.95235c4.55917,-3.90786 10.86655,-5.86868 16.0894,-8.55622c1.95002,-1.00342 5.22457,-4.86069 7.05386,-6.42866c4.18486,-3.58702 13.25999,-6.07096 17.82744,-9.39734c3.1509,-2.29474 5.75452,-5.01772 9.16559,-7.0009c8.28469,-4.81667 24.28818,-7.56276 35.90151,-5.73973c4.63015,-1.07228 9.3181,-2.87571 13.99127,-2.87571c11.00531,0 21.17929,1.53327 31.85993,3.90674c5.04081,1.12018 11.37712,0.73742 16.09182,3.09477c6.9537,3.47685 34.71711,16.86477 43.5324,24.78286c13.98039,12.5575 21.79397,28.70333 28.17501,45.9529c1.58196,4.27645 4.3873,8.46102 5.33724,12.96156c1.0424,4.9386 1.67612,9.91729 2.78121,14.89017c2.44,10.98001 0.1028,23.83295 0.1028,34.86555c0,1.63111 -1.05907,3.21356 -1.07005,4.81521c-0.07377,10.75959 -1.71108,31.46904 -4.71569,41.94906c-3.50586,12.22834 -9.13345,23.62622 -18.03639,32.79894c-3.32483,3.42558 -10.81553,6.94516 -15.57822,8.91794c-2.90596,1.20369 -5.46426,3.81637 -8.51309,4.57858c-6.83946,1.70987 -14.60481,2.62727 -21.11867,5.23039c-3.72145,1.4872 -8.29023,3.1954 -12.37587,3.28225c-9.11707,0.1938 -18.97574,0.1028 -28.09486,0.1028c-1.63114,0 -3.21338,-1.05729 -4.81521,-1.07005c-12.82799,-0.10214 -25.17749,-4.47868 -37.69855,-6.77069c-17.59606,-3.22101 -35.0678,-7.39019 -51.87212,-13.34885c-0.86106,-0.30532 -1.82005,-0.79663 -2.80405,-1.43188c-1.85303,-1.07168 -3.47831,-2.49336 -4.78544,-4.17465c-0.13531,-0.15605 -0.26826,-0.31391 -0.39858,-0.47341c-2.72037,-0.97847 -5.25917,-2.08236 -7.40621,-3.06806z" fill="#00dfff"/><path d="M150.55127,132.01721c0,-13.80712 11.19288,-25 25,-25c13.80712,0 25,11.19288 25,25c0,13.80712 -11.19288,25 -25,25c-13.80712,0 -25,-11.19288 -25,-25z" fill="#ffffff"/><path d="M261.78402,137.82066c0,-13.80712 11.19288,-25 25,-25c13.80712,0 25,11.19288 25,25c0,13.80712 -11.19288,25 -25,25c-13.80712,0 -25,-11.19288 -25,-25z" fill="#ffffff"/><path d="M161.51851,132.98446c0,-8.28427 6.71573,-15 15,-15c8.28427,0 15,6.71573 15,15c0,8.28427 -6.71573,15 -15,15c-8.28427,0 -15,-6.71573 -15,-15z" fill="#000000"/><path d="M270.81677,137.82066c0,-8.28427 6.71573,-15 15,-15c8.28427,0 15,6.71573 15,15c0,8.28427 -6.71573,15 -15,15c-8.28427,0 -15,-6.71573 -15,-15z" fill="#000000"/><path d="M329.47135,73.3979c3.75491,0 8.94524,1.60347 12.60057,2.33051c2.72905,0.5428 5.66716,0.88212 8.31743,1.73752c8.05686,2.60041 16.42277,4.41532 24.32083,7.43483c6.11231,2.3368 12.00141,5.90288 18.18265,7.90161c7.88745,2.55044 16.41154,4.10607 23.11685,9.32374c9.70815,7.5543 13.65948,14.5168 19.95491,25.36495c2.21795,3.82192 6.19907,7.98886 7.58797,12.15556c1.34716,4.04147 3.41111,11.36737 3.41111,15.45566c0,16.10888 -4.62195,37.30751 -15.18684,50.04059c-4.07491,4.91119 -9.27442,8.32477 -14.37526,12.10814c-1.33184,0.98785 -2.10672,2.56624 -3.26161,3.75613c-1.74022,1.79296 -4.09988,2.19355 -6.21412,3.08839c-1.6723,0.70779 -3.45508,2.55074 -5.13534,3.55359c-2.27439,1.35744 -4.8934,1.63797 -7.2762,2.67086c-14.00875,6.07247 -28.46047,11.3599 -43.52033,13.80378c-11.37667,1.84618 -24.82129,4.82596 -33.3731,-4.77607c-2.97144,-3.33636 -2.9204,-14.16585 0,-17.34375c1.26583,-1.37744 4.13124,-1.80113 4.24745,-3.66825c0.11877,-1.9082 -2.54597,-2.85491 -3.74896,-4.3409c-1.60107,-1.97772 -1.72859,-4.80753 -2.21593,-7.30499c-0.37937,-1.94419 0.38813,-3.9525 0.34093,-5.9328c-0.03824,-1.60398 -1.0607,-3.15419 -1.0607,-4.77315c0,-3.51632 0,-7.38076 0,-10.89709c0,-1.59533 1.04611,-3.13223 1.04611,-4.70749c0,-4.03978 -1.72903,-8.50138 -1.91989,-12.57414c-0.26259,-5.60328 0.5814,-13.39624 -1.61483,-19.03348c-4.38019,-11.24296 -6.46284,-22.98795 -9.15614,-34.69008c-1.1132,-4.83672 -3.62621,-9.88565 -2.40337,-14.70057c-1.45796,-2.31287 -2.30151,-5.0519 -2.30151,-7.98795c0,-6.55221 4.20107,-12.12321 10.05656,-14.16633c5.96894,-2.88647 13.52611,-3.82885 19.58078,-3.82885z" fill="#00f3ff"/><path d="M161.12476,84.58909c-0.71183,0.99689 -1.52411,1.69831 -2.37839,2.25364c-1.67522,1.57651 -3.71304,2.77206 -5.97505,3.44822c-0.31048,0.2973 0.37784,0.85179 0.2558,1.26396c-0.66713,2.25325 -0.93387,4.86207 -2.54202,6.57556c-1.43643,1.53051 -3.30228,2.61112 -4.7657,4.11583c-1.65445,1.70113 -7.62416,11.03719 -9.00399,13.80575c-1.57269,3.15551 -2.01531,6.6385 -2.88049,10.09923c-1.87771,7.51082 -4.89349,14.73776 -6.77069,22.24655c-0.65628,2.6251 -2.58694,5.12158 -3.63476,7.65124c-3.77896,9.12321 -7.94362,18.8004 -10.25751,28.41673c-1.48845,6.18585 0.26826,13.02244 -0.96724,19.12727c-0.20068,0.9916 -0.89654,5.9656 -1.875,7.5c-0.26243,0.41155 -0.97784,0.62056 -0.9571,1.10822c0.01734,0.40745 0.78213,0.33469 1.03219,0.65685c0.23709,0.30544 3.31652,5.03032 3.48345,5.85515c1.18384,5.84956 -0.83891,12.47172 -5.48458,16.45373c-10.69537,9.16746 -31.18808,-1.17345 -42.55547,-2.65014c-5.62124,-0.73023 -19.78349,-2.79811 -24.50556,-5.15915c-14.05019,-7.0251 -26.98751,-20.89623 -32.54267,-35.60414c-1.67457,-4.43361 -2.48258,-9.41711 -1.83512,-14.12868c0.15721,-1.14403 -1.09324,-2.03977 -1.5231,-3.11156c-0.84716,-2.11223 -1.72952,-4.73239 -2.10297,-6.93913c-1.01428,-5.99353 -0.22401,-12.25231 -0.96724,-18.28969c-0.34534,-2.80526 -2.0847,-5.06324 -2.73324,-7.65738c-2.88536,-11.54143 -4.35377,-23.78517 -1.78108,-35.63265c0.8376,-3.8572 3.74597,-8.33933 5.17331,-11.65097c2.2502,-5.22079 3.23598,-9.76969 7.46374,-13.99744c2.97733,-2.97733 7.04913,-3.80888 10.49282,-5.82073c14.95111,-8.73466 33.89243,-10.28881 50.97056,-11.67364c4.70845,-0.3818 8.971,-1.95491 13.60014,-2.61043c2.76965,-0.39221 6.22266,0.23027 8.89437,-0.87639c4.3065,-1.78381 9.64324,-2.91071 14.35944,-3.28387c3.42118,-0.27069 6.28898,0.68359 9.58451,0.96724c10.01358,0.86187 20.24908,1.69087 30.07238,3.86897c2.8772,0 5.5652,0.81007 7.84836,2.21459c4.2907,2.63948 7.15164,7.37834 7.15164,12.78541c0,1.88193 -0.34657,3.68291 -0.97937,5.34261c-0.2668,1.19872 -0.65724,2.33893 -1.36438,3.32926z" fill="#00f3ff"/><path d="M110.5799,260.42002c1.65875,1.19556 4.14848,1.85147 5.64974,3.13827c2.69417,2.30929 5.11241,6.75215 8.18881,8.44699c2.87165,1.58204 5.80269,3.36574 8.51172,5.2231c1.67647,1.14942 3.21761,2.90121 5.21004,3.57226c15.163,5.10692 31.70871,3.03443 47.08347,6.45104c7.27907,1.61757 14.88953,4.75425 22.31221,4.83621c4.16924,0.04604 8.43827,-0.90449 12.50848,0c6.61037,1.46897 19.61623,3.70635 26.02762,3.86897c6.1313,0.15551 12.2667,0.04241 18.39982,0c1.59996,-0.01106 3.15516,-1.0607 4.77315,-1.0607c5.69642,0 12.18514,0.86421 17.58778,-1.70141c5.60021,-2.65944 9.33909,-4.56658 14.38611,-6.72985c1.06802,-0.45778 1.44594,-1.83832 2.32819,-2.59454c2.26441,-1.94093 9.59995,-6.30698 12.09239,-6.48936c10.61681,-0.77684 18.97855,8.83403 16.68039,19.17575c-0.8865,3.98927 -4.21696,7.95359 -7.16606,10.53489c-1.00598,0.88052 -2.43389,0.99129 -3.4612,2.01859c-11.09484,11.09484 -20.37182,12.71982 -34.40886,16.84663c-11.95056,3.51339 -20.40565,5.65155 -33.32023,5.80345c-1.60122,0.01883 -3.15486,1.0607 -4.77315,1.0607c-18.91728,0 -37.14928,-0.57511 -55.66625,-3.58c-6.48187,-1.05186 -13.53967,-0.90188 -19.90729,-2.31691c-2.23064,-0.4957 -5.3481,-0.79905 -7.5,-1.875c-3.20249,-1.60125 -5.7666,-4.90979 -9.38506,-5.73161c-12.52711,-2.84513 -23.26149,-5.24211 -35.19679,-10.18588c-3.10429,-1.28584 -6.87688,-1.57818 -9.7288,-3.28933c-3.67851,-2.2071 -9.34125,-5.07756 -11.70343,-8.74672c-1.53183,-2.37938 -2.57785,-5.4345 -4.79314,-7.41921c-5.35542,-4.79801 -14.3898,-6.93537 -20.31834,-11.63875c-7.95931,-6.31449 -19.4295,-26.25537 -11.29493,-35.34695c8.8295,-9.86826 22.80157,-6.45232 26.81491,5.58768c0.04354,0.02238 0.08696,0.04497 0.13025,0.06776c8.37721,4.18861 12.97279,7.05337 19.93844,12.07393z" fill="#00ffda"/><path d="M304.03828,253.99396l-0.38488,-1.40447c0.42859,2.08964 1.65655,4.16826 1.28576,6.26893c-0.90401,5.12154 -7.66132,11.68672 -11.80275,14.94746c-1.77358,1.39642 -3.33558,3.34123 -5.51464,3.93055c-1.89521,0.51255 -3.87248,-0.67017 -5.82624,-0.86345c-0.67865,-0.06714 -1.39952,-0.13663 -2.14423,-0.22038c-0.71354,0.20196 -1.52807,0.31722 -2.45786,0.31722c-2.77003,0 -4.51698,-1.02307 -5.61872,-2.3135c-0.96385,-0.48019 -1.8434,-1.07477 -2.58631,-1.81768c-1.40168,-1.40168 -4.0622,-8.86106 -4.13118,-11.10675c-0.06494,-2.11405 1.15729,-4.3645 0.38488,-6.33346c0,0 -1.83667,-5.51002 2.57139,-8.44865c1.02372,-4.04222 5.54459,-5.17243 5.54459,-5.17243c1.99194,-0.39522 3.94521,-1.15929 5.97581,-1.18565c1.31969,-0.01713 2.51156,0.8531 3.81527,1.05856c3.44723,0.54326 6.47209,1.08804 9.87551,2.22251l2.73765,0.91255c1.25884,0.38715 2.37645,1.09671 3.25647,2.03232c5.01946,1.4379 5.01946,7.17632 5.01946,7.17632z" fill="#000000"/><path d="M199.37722,188.89751c0.64088,-0.96132 1.33113,-1.67583 2.04032,-2.19674c0.11335,-0.27075 0.23417,-0.53994 0.36442,-0.80711c2.38161,-4.88516 4.92832,-9.84714 7.73793,-14.50862c0.7152,-1.1866 0.04694,-2.29571 0.30145,-3.70968c0.25162,-1.39792 0.83685,-2.71471 1.25527,-4.07207c0,0 2.37171,-7.11512 9.48683,-4.74342c2.35521,0.78507 3.67094,2.08988 4.3773,3.48432c0.0143,-0.00023 0.02168,-0.00023 0.02168,-0.00023l4.30619,0.38488c2.85752,0.95251 5.93803,1.71494 8.70517,2.90172c1.97946,0.84895 4.38387,1.18593 5.83332,2.77907c4.66488,5.12731 2.89065,9.67427 2.09986,15.20984c-0.18238,1.27669 0.18238,2.59227 0,3.86897c-0.22079,1.54553 -0.95917,3.04338 -0.8704,4.60208c-0.2477,10.49474 -3.70385,22.53331 -10.40511,30.87043c-3.79699,4.72388 -9.00486,7.05431 -13.61929,10.71756c-3.62569,2.87833 -5.76882,6.55877 -10.16495,8.67523c-3.7894,1.82436 -7.01084,1.33757 -10.79894,2.60027c-4.45274,0.1051 -9.59305,0.67091 -14.00963,0c-4.17869,-0.63477 -8.39563,-2.25043 -12.57414,-2.90172c-2.65603,-0.41399 -5.45869,-0.5019 -7.89722,-1.63303c-2.1091,-0.97833 -3.71936,-2.83844 -5.80345,-3.86897c-1.13207,-0.55978 -2.47131,-0.66725 -3.54957,-1.32472c-1.0597,-0.64616 -1.77138,-1.74631 -2.74642,-2.5143c-5.37869,-4.23655 -10.81188,-9.16075 -12.32065,-16.20559c-0.11967,-0.55876 -0.09684,-5.92454 -0.09684,-7.00481c0,-4.05385 0.10598,-7.16676 1.35212,-11.07688c0.2524,-0.79198 2.14325,-6.43642 2.31224,-6.72688c1.16088,-1.99529 2.17249,-4.32656 4.11939,-5.56689c7.25247,-4.62039 15.60055,-1.45875 19.21948,5.9919c0.92214,1.89851 0.1837,5.53256 1.38527,7.63231c0.17091,0.29866 0.60193,0.3442 0.8579,0.57417c0.93079,0.83622 1.66363,1.86957 2.50865,2.79238c0.90887,0.99253 2.7516,-0.23974 4.03385,0.16893c1.10759,0.35301 1.80582,1.54672 2.90172,1.93448c0.6105,0.21602 1.29212,-0.33833 1.92971,-0.22497c0.73806,0.13123 1.72581,0.84243 2.23037,0.28803c5.93141,-1.97714 10.86917,-4.83507 14.32404,-10.29722c-0.50763,-1.65545 -0.42686,-3.72427 1.15212,-6.09273zM231.59483,179.60229c-0.07252,-0.01803 -0.14543,-0.03685 -0.21868,-0.0564c0.05018,0.0852 0.09744,0.16837 0.14187,0.24904c0.02533,-0.06427 0.051,-0.12847 0.07682,-0.19264z" fill="#00ffff"/><path d="M243.34001,198.62327c-2.92196,0 -4.70554,-1.13838 -5.79425,-2.52813c-2.38218,-0.4656 -4.7038,-1.24053 -6.85391,-2.46096c-0.79307,-0.45016 -1.15509,-1.46104 -1.93448,-1.93448c-0.66519,-0.40407 -1.55594,-0.26533 -2.25388,-0.60976c-1.04245,-0.51444 -1.86917,-1.40044 -2.90172,-1.93448c-1.67394,-0.86577 -3.64465,-1.00409 -5.37844,-1.74275c-4.08548,-1.74056 -8.07438,-3.09237 -12.09087,-5.0571c0,0 -6.7082,-3.3541 -3.3541,-10.06231c3.3541,-6.7082 10.06231,-3.3541 10.06231,-3.3541c5.50754,2.84224 11.77111,4.02104 17.35138,6.74153c2.16563,1.05579 4.38017,2.02833 6.4513,3.25921c0.78393,0.46589 1.17463,1.43027 1.93448,1.93448c1.15104,0.76378 3.43314,0.89006 4.76219,0.81436l7.5,9.43448c0,0 0,7.5 -7.5,7.5z" fill="#00c1ff"/><path d="M223.02794,238.28017c-6.85432,0 -7.44441,-6.26422 -7.49521,-7.34281c-1.29232,-2.9929 -5.04466,-5.53128 -7.01002,-7.97641c-2.17739,-2.70892 -3.62697,-6.00815 -5.80345,-8.70517c-3.15324,-3.90741 -6.58184,-7.49746 -10.14289,-11.05851c0,0 -5.3033,-5.3033 0,-10.6066c5.3033,-5.3033 10.6066,0 10.6066,0c3.90069,3.90069 7.71213,7.84742 11.13642,12.15528c2.16436,2.72283 3.64648,5.98815 5.80345,8.70517c2.55201,3.21464 6.2264,5.93657 8.31775,9.51711c0.80463,1.37757 1.13499,2.982 1.70248,4.473l0.38488,3.33895c0,0 0,7.5 -7.5,7.5zM215.65303,231.23665l0.25978,0.94798c-0.05601,-0.32119 -0.14414,-0.63705 -0.25978,-0.94798z" fill="#00c1ff"/><path d="M182.4038,246.0181c-6.91124,0 -7.45378,-6.36869 -7.49637,-7.3686c-0.4336,-1.31786 -0.92868,-2.62701 -0.97087,-4.00037c-0.04338,-1.41228 0.8318,-2.70937 1.06409,-4.10309c0.37941,-2.27646 -0.09684,-5.18417 -0.09684,-7.5038c0,-2.31964 0.47625,-5.22735 0.09684,-7.5038c-0.23229,-1.39372 -1.10747,-2.69082 -1.06409,-4.10309c0.05572,-1.81382 0.90141,-3.51562 1.35212,-5.27343c0,0 2.37171,-7.11512 9.48683,-4.74342c7.11512,2.37171 4.74342,9.48683 4.74342,9.48683c-0.49717,0.45248 0.37827,5.85544 0.38488,6.33346c0.05341,3.86339 0.05341,7.74351 0,11.6069c-0.00661,0.47802 -0.88205,5.88098 -0.38488,6.33346l0.38488,3.33895c0,0 0,7.5 -7.5,7.5zM175.17,239.48949l0.11868,0.43307c-0.0371,-0.14471 -0.07688,-0.28903 -0.11868,-0.43307z" fill="#00c1ff"/><path d="M145.19626,235.55389c-6.7082,-3.3541 -3.3541,-10.06231 -3.3541,-10.06231l2.37214,-3.88368c1.12007,-1.12007 4.0291,-3.11427 4.72687,-4.44313c0.47399,-0.90269 0.44268,-2.02746 0.96724,-2.90172c0.46918,-0.78197 1.4653,-1.15251 1.93448,-1.93448c0.52456,-0.87427 0.41641,-2.04376 0.96724,-2.90172c1.89737,-2.9553 7.36875,-5.62074 7.96993,-9.06838c0,0 2.37171,-7.11512 9.48683,-4.74342c7.11512,2.37171 4.74342,9.48683 4.74342,9.48683c-1.07736,2.83058 -2.63248,5.56733 -4.71355,7.7678c-1.12527,1.18983 -4.00736,3.07286 -4.72687,4.44313c-0.47399,0.90269 -0.44268,2.02746 -0.96724,2.90172c-0.46918,0.78197 -1.4653,1.15251 -1.93448,1.93448c-0.52456,0.87427 -0.41641,2.04376 -0.96724,2.90172c-1.65112,2.57176 -4.69528,4.97901 -6.88003,7.16377l0.43766,-0.01472c0,0 -3.3541,6.7082 -10.06231,3.3541z" fill="#00c1ff"/></g></g></svg>