<svg version="1.1" width="110" height="104" viewBox="4 -1 110 104" xmlns="http://www.w3.org/2000/svg" xmlns:xlink="http://www.w3.org/1999/xlink">
  <!-- Exported by Scratch - http://scratch.mit.edu/ -->
  <g id="tail" transform="matrix(0.8655866980552673, -0.5007590651512146, 0.5007590651512146, 0.8655866980552673, -17.15, 27)">
    <path id="ID0.927450898103416" fill="#FFAB19" stroke="#001026" stroke-width="1.2" stroke-linecap="round" stroke-linejoin="round" d="M 21.900 73.800 C 19.500 73.300 16.600 72.500 14.200 70.300 C 8.700 65.400 7 57.300 3.200 59.400 C -0.700 61.500 -0.600 74.600 11.600 78.600 C 15.800 80 19.600 80 22.700 79.900 C 23.500 79.900 30.400 79.200 32.800 75.800 C 35.200 72.400 33.500 71.500 32.700 71.100 C 31.800 70.600 25.300 74.400 21.900 73.800 Z " transform="matrix(0.29537367820739746, -0.9553818106651306, 0.9553818106651306, 0.29537367820739746, -5.65, 82.8)"/>
    <path id="detail" fill="#FFFFFF" stroke="none" stroke-width="1" d="M 3.800 59.600 C 1.800 60.200 0.800 64.400 1.800 67.900 C 2.800 71.400 4.400 73.200 5.700 74.500 C 5.500 73.800 5.100 71.600 6.800 70.300 C 8.900 68.600 12.600 69.500 12.600 69.500 C 12.600 69.500 9.500 65.700 7.900 63 C 6.300 60.700 5.800 59.200 3.800 59.600 Z " transform="matrix(0.29537367820739746, -0.9553818106651306, 0.9553818106651306, 0.29537367820739746, -5.65, 82.8)"/>
  </g>
  <path id="leg" fill="#FFAB19" stroke="#001026" stroke-width="1.2" stroke-linecap="round" stroke-linejoin="round" d="M 37.700 81.500 C 35.900 82.700 29.700 87.100 21.800 89.600 L 21.400 89.700 C 21 89.800 20.800 90.300 21 90.700 C 22.700 93.100 25.800 97.900 20.300 99.600 C 15 101.300 5.100 87.200 9.300 83.500 C 11.200 82.100 12.900 82.800 13.800 83.200 C 14.300 83.400 14.800 83.400 15.300 83.300 C 16.500 82.900 18.700 82.100 20.400 81.200 C 24.700 79 25.700 78.100 27.700 76.600 C 29.700 75.100 34.300 71.400 38 74.600 C 41.200 77.300 39.400 80.300 37.700 81.500 Z " transform="matrix(-0.22274459898471832, -0.9748768210411072, 0.9748768210411072, -0.22274459898471832, 19.4, 101.8)"/>
  <path id="arm" fill="#FFAB19" stroke="#001026" stroke-width="1.2" stroke-linecap="round" stroke-linejoin="round" d="M 53.600 60.700 C 54.100 61.100 60.200 68.300 62.200 66.500 C 64.600 64.400 67.900 60.300 71.500 63.600 C 75.100 66.900 68.300 72.500 65.400 74 C 58.500 77.100 52.900 71.200 51.700 69.600 C 50.500 68 48.400 65.300 48.400 62.700 C 48.500 59.900 51.900 59.200 53.600 60.700 Z " transform="matrix(-0.22274459898471832, -0.9748768210411072, 0.9748768210411072, -0.22274459898471832, 19.4, 101.8)"/>
  <g id="body-and-leg" transform="matrix(0.8655866980552673, -0.5007590651512146, 0.5007590651512146, 0.8655866980552673, -17.15, 27)">
    <path id="body" fill="#FFAB19" stroke="#001026" stroke-width="1.2" stroke-linecap="round" stroke-linejoin="round" d="M 46.200 76.700 C 47.400 75.800 48.600 74.300 50.200 72 C 51.500 70.100 52.900 66.400 52.900 66.400 C 53.800 63.900 54.400 59.100 51.100 59.200 C 48.900 59.300 46.900 59 43.500 58.500 C 37.500 57.300 36.400 56.500 33.900 60.600 C 31.200 65.400 24.300 68.900 32.800 77.200 C 32.800 77.200 37.700 81 43.600 86.800 C 47.600 90.700 53.900 96.300 56.100 98.200 C 56.600 98.600 57.200 98.800 57.800 98.900 C 67.500 99.800 74.700 98.800 74.700 94.500 C 74.700 87.300 60.400 89.800 60.400 89.800 C 60.400 89.800 55.800 85.900 53.700 84 L 46.200 76.700 Z " transform="matrix(0.29537367820739746, -0.9553818106651306, 0.9553818106651306, 0.29537367820739746, -5.65, 82.8)"/>
    <path id="tummy" fill="#FFFFFF" stroke="none" stroke-width="1" d="M 50.600 70 C 50.600 70 52.500 67.500 48.200 64.800 C 43.700 61.900 42 65.100 40.200 67.500 C 38.200 70.600 40.200 72.100 42.200 73.900 C 43.800 75.400 45.300 76.600 45.300 76.600 C 45.300 76.600 48.400 74.500 50.600 70 Z " transform="matrix(0.29537367820739746, -0.9553818106651306, 0.9553818106651306, 0.29537367820739746, -5.65, 82.8)"/>
  </g>
  <path id="arm" fill="#FFAB19" stroke="#001026" stroke-width="1.2" stroke-linecap="round" stroke-linejoin="round" d="M 30.200 68.400 C 32.400 71.200 35.800 74.700 31.500 77.600 C 25.600 80.900 20.700 70.900 19.700 67.400 C 18.800 64.300 21.400 62.300 23.600 60.600 C 27.900 57.500 31.500 54.700 35.500 56.200 C 40.500 58 36.900 62 34.400 63.800 C 32.900 64.900 31.400 66.100 30.300 66.800 C 30 67.300 29.900 67.900 30.200 68.400 Z " transform="matrix(-0.22274459898471832, -0.9748768210411072, 0.9748768210411072, -0.22274459898471832, 19.4, 101.8)"/>
  <path id="ID0.7781623927876353" fill="#FFAB19" stroke="#001026" stroke-width="1.2" d="M 53.100 9 C 50.800 8.600 48.400 8.400 45.600 8.600 C 40.900 8.800 36.400 10.500 36.400 10.500 L 24.300 2.600 C 23.900 2.400 23.400 2.700 23.500 3.100 L 25.600 21 C 26.200 20.200 15 33.800 22.100 45.200 C 29.200 56.600 44.300 61.700 63.100 58 C 81.900 54.300 86.300 43.500 85.100 37.800 C 83.900 32.100 76.800 30 76.800 30 C 76.800 30 76.700 25.500 73.500 20 C 71.600 16.700 65.200 12 65.200 12 L 62.600 1.300 C 62.500 0.900 62 0.800 61.700 1 L 53.100 9 Z " transform="matrix(-0.22274459898471832, -0.9748768210411072, 0.9748768210411072, -0.22274459898471832, 19.4, 101.8)"/>
  <path id="face" fill="#FFFFFF" stroke="none" stroke-width="1" d="M 76.500 30.400 C 76.500 30.400 83.400 32.200 84.600 37.900 C 85.800 43.600 81 53.900 62.400 57.500 C 38.200 62.500 26.700 48.100 33.400 37.500 C 40.100 26.800 51.600 35.900 60 35.300 C 67.200 34.800 68 28.500 76.500 30.400 Z " transform="matrix(-0.22274459898471832, -0.9748768210411072, 0.9748768210411072, -0.22274459898471832, 19.4, 101.8)"/>
  <path id="mouth" fill="#FFFFFF" stroke="#001026" stroke-width="1.2" stroke-linecap="round" stroke-linejoin="round" d="M 45 41.100 C 45 40.700 45.400 40.400 45.800 40.500 C 47.700 41.200 53.100 42.800 59.100 43.200 C 64.500 43.500 67.700 43.200 69.200 42.900 C 69.700 42.800 70.100 43.300 69.900 43.800 C 69 46.500 65.200 54 54.700 53.400 C 45.600 52.400 44.700 46 45 41.100 Z " transform="matrix(0.22274459898471832, 0.9748768210411072, -0.9748768210411072, 0.22274459898471832, 85.4, -31.4)"/>
  <path id="whisker" fill="none" stroke="#001026" stroke-width="1.2" stroke-linecap="round" stroke-linejoin="round" d="M 83 35.400 C 83 35.400 90.200 35.300 94.900 31.500 " transform="matrix(-0.22274459898471832, -0.9748768210411072, 0.9748768210411072, -0.22274459898471832, 19.4, 101.8)"/>
  <path id="whisker" fill="none" stroke="#001026" stroke-width="1.2" stroke-linecap="round" stroke-linejoin="round" d="M 83.400 41.300 C 83.400 41.300 87.300 43.200 93.600 42.700 " transform="matrix(-0.22274459898471832, -0.9748768210411072, 0.9748768210411072, -0.22274459898471832, 19.4, 101.8)"/>
  <path id="nose" fill="#001026" stroke="#001026" stroke-width="1.2" stroke-linecap="round" stroke-linejoin="round" d="M 59.600 32.700 C 61.700 32.700 63.900 32.900 64 33.600 C 64.100 35 62.600 37.800 61 37.900 C 59.200 38.100 55 35.600 55 34 C 54.900 32.800 57.600 32.700 59.600 32.700 Z " transform="matrix(-0.22274459898471832, -0.9748768210411072, 0.9748768210411072, -0.22274459898471832, 19.4, 101.8)"/>
  <path id="whisker" fill="none" stroke="#001026" stroke-width="1.2" stroke-linecap="round" stroke-linejoin="round" d="M 14.600 31.200 C 14.600 31.200 23.200 34 26.700 37.100 " transform="matrix(-0.22274459898471832, -0.9748768210411072, 0.9748768210411072, -0.22274459898471832, 19.4, 101.8)"/>
  <path id="whisker" fill="none" stroke="#001026" stroke-width="1.2" stroke-linecap="round" stroke-linejoin="round" d="M 15.300 41.200 C 15.300 41.200 22.700 42.300 27 40.600 " transform="matrix(-0.22274459898471832, -0.9748768210411072, 0.9748768210411072, -0.22274459898471832, 19.4, 101.8)"/>
  <g id="eye" transform="matrix(0.8655866980552673, -0.5007590651512146, 0.5007590651512146, 0.8655866980552673, -17.15, 27)">
    <path id="pupil" fill="#FFFFFF" stroke="#001026" stroke-width="1.2" stroke-linecap="round" stroke-linejoin="round" d="M 71.400 21 C 74.300 25.500 74.400 30.600 71.600 32.400 C 68.800 34.200 64.200 32.100 61.200 27.600 C 58.300 23.100 58.200 18 61 16.200 C 63.800 14.300 68.500 16.500 71.400 21 Z " transform="matrix(0.29537367820739746, -0.9553818106651306, 0.9553818106651306, 0.29537367820739746, -5.65, 82.8)"/>
    <path id="pupil" fill="#001026" stroke="none" stroke-width="1" d="M 71 26.700 C 71 27.800 70.200 28.700 69.200 28.700 C 68.200 28.700 67.400 27.800 67.400 26.700 C 67.400 25.600 68.200 24.700 69.200 24.700 C 70.200 24.700 71 25.600 71 26.700 " transform="matrix(0.29537367820739746, -0.9553818106651306, 0.9553818106651306, 0.29537367820739746, -5.65, 82.8)"/>
  </g>
  <g id="eye" transform="matrix(0.8655866980552673, -0.5007590651512146, 0.5007590651512146, 0.8655866980552673, -17.15, 27)">
    <path id="ID0.1016911081969738" fill="#FFFFFF" stroke="#001026" stroke-width="1.2" stroke-linecap="round" stroke-linejoin="round" d="M 46.600 23.800 C 49.600 28.200 49.400 33.600 46.700 35.500 C 43.400 37.400 39 36 36 31.600 C 32.900 27.200 32.700 21.500 35.800 19.300 C 38.900 17 43.600 19.400 46.600 23.800 Z " transform="matrix(0.29537367820739746, -0.9553818106651306, 0.9553818106651306, 0.29537367820739746, -5.65, 82.8)"/>
    <path id="pupil" fill="#001026" stroke="none" stroke-width="1" d="M 46 29.600 C 46 30.700 45.200 31.600 44.200 31.600 C 43.200 31.600 42.400 30.700 42.400 29.600 C 42.400 28.500 43.200 27.600 44.200 27.600 C 45.200 27.700 46 28.500 46 29.600 " transform="matrix(0.29537367820739746, -0.9553818106651306, 0.9553818106651306, 0.29537367820739746, -5.65, 82.8)"/>
  </g>
</svg>