<svg xmlns="http://www.w3.org/2000/svg" xmlns:xlink="http://www.w3.org/1999/xlink" version="1.1" width="123.07186126708984" height="37.82148361206055" viewBox="-0.5 -0.4414818286895752 123.07186126708984 37.82148361206055">
  <!-- Exported by Scratch - http://scratch.mit.edu/ -->
  <g id="ID0.09742937376722693">
    <path id="ID0.3084553489461541" fill="none" d="M 0 4.88 L 98.68 4.88 L 98.68 36.88 L 0 36.88 L 0 4.88 Z " stroke-width="1"/>
    <path id="ID0.13452717615291476" fill="#FBB03B" d="M 121.41 25.74 C 121.41 31.89 118.9 36.88 115.79 36.88 L 91.03 36.88 C 87.93 36.88 85.41 31.89 85.41 25.74 L 85.41 16.03 C 85.41 9.88 87.92 4.89 91.03 4.89 L 115.8 4.89 C 118.9 4.89 121.42 9.88 121.42 16.03 L 121.42 25.74 Z " stroke-width="1"/>
    <path id="ID0.6446947171352804" d="M 18.85 22.54 C 18.85 23.54 18.59 24.45 18.07 25.25 C 17.55 26.05 16.8 26.68 15.8 27.13 C 14.8 27.58 13.62 27.81 12.25 27.81 C 10.61 27.81 9.26 27.5 8.19 26.88 C 7.43 26.43 6.82 25.84 6.35 25.09 C 5.88 24.35 5.64 23.62 5.64 22.92 C 5.64 22.51 5.78 22.16 6.07 21.87 C 6.35 21.58 6.71 21.43 7.15 21.43 C 7.5 21.43 7.81 21.54 8.05 21.77 C 8.29 22 8.51 22.33 8.68 22.78 C 8.89 23.31 9.12 23.75 9.37 24.11 C 9.62 24.47 9.96 24.76 10.41 24.99 C 10.86 25.22 11.44 25.34 12.17 25.34 C 13.17 25.34 13.98 25.11 14.6 24.64 C 15.22 24.18 15.54 23.6 15.54 22.9 C 15.54 22.35 15.37 21.9 15.04 21.56 C 14.7 21.22 14.27 20.95 13.74 20.77 C 13.21 20.59 12.49 20.4 11.6 20.19 C 10.41 19.91 9.41 19.58 8.6 19.21 C 7.79 18.84 7.16 18.33 6.68 17.68 C 6.21 17.03 5.97 16.23 5.97 15.27 C 5.97 14.36 6.22 13.54 6.72 12.83 C 7.22 12.12 7.94 11.57 8.89 11.19 C 9.83 10.81 10.95 10.62 12.22 10.62 C 13.24 10.62 14.12 10.75 14.87 11 C 15.61 11.25 16.23 11.59 16.72 12.01 C 17.21 12.43 17.57 12.87 17.8 13.33 C 18.03 13.79 18.14 14.24 18.14 14.68 C 18.14 15.08 18 15.44 17.71 15.76 C 17.43 16.08 17.07 16.24 16.65 16.24 C 16.26 16.24 15.97 16.14 15.77 15.95 C 15.57 15.76 15.35 15.44 15.12 15 C 14.82 14.37 14.45 13.88 14.03 13.53 C 13.61 13.18 12.93 13 11.99 13 C 11.12 13 10.42 13.19 9.89 13.57 C 9.36 13.95 9.09 14.41 9.09 14.95 C 9.09 15.28 9.18 15.57 9.36 15.81 C 9.54 16.05 9.79 16.26 10.11 16.43 C 10.43 16.6 10.75 16.74 11.07 16.84 C 11.4 16.94 11.93 17.08 12.68 17.27 C 13.62 17.49 14.47 17.73 15.22 18 C 15.98 18.26 16.63 18.59 17.16 18.96 C 17.69 19.34 18.11 19.82 18.41 20.39 C 18.7 21 18.85 21.7 18.85 22.54 Z " stroke-width="1" />
    <path id="ID0.8221295583061874" d="M 33.08 21.52 C 33.08 22.44 32.94 23.29 32.65 24.07 C 32.36 24.85 31.95 25.52 31.4 26.08 C 30.86 26.64 30.21 27.07 29.45 27.37 C 28.69 27.67 27.84 27.82 26.9 27.82 C 25.96 27.82 25.12 27.67 24.37 27.37 C 23.62 27.07 22.97 26.63 22.43 26.07 C 21.89 25.51 21.47 24.84 21.18 24.07 C 20.9 23.3 20.75 22.45 20.75 21.53 C 20.75 20.59 20.89 19.74 21.18 18.96 C 21.47 18.18 21.88 17.52 22.42 16.96 C 22.96 16.41 23.61 15.98 24.37 15.68 C 25.13 15.38 25.98 15.23 26.9 15.23 C 27.84 15.23 28.69 15.38 29.45 15.68 C 30.21 15.98 30.87 16.41 31.41 16.97 C 31.95 17.53 32.37 18.19 32.65 18.97 C 32.93 19.75 33.08 20.59 33.08 21.52 Z M 29.97 21.52 C 29.97 20.26 29.69 19.28 29.14 18.57 C 28.58 17.87 27.84 17.52 26.9 17.52 C 26.3 17.52 25.76 17.68 25.3 17.99 C 24.84 18.3 24.48 18.77 24.23 19.38 C 23.98 19.99 23.86 20.71 23.86 21.52 C 23.86 22.33 23.98 23.04 24.23 23.64 C 24.48 24.24 24.83 24.71 25.28 25.03 C 25.73 25.35 26.28 25.51 26.9 25.51 C 27.84 25.51 28.58 25.16 29.14 24.45 C 29.69 23.75 29.97 22.77 29.97 21.52 Z " stroke-width="1" />
    <path id="ID0.9312042687088251" d="M 43.55 26.07 L 43.55 25.67 C 43.18 26.14 42.79 26.53 42.38 26.85 C 41.97 27.17 41.53 27.4 41.04 27.56 C 40.56 27.72 40 27.79 39.39 27.79 C 38.64 27.79 37.97 27.63 37.38 27.33 C 36.79 27.03 36.33 26.59 36 26.05 C 35.61 25.39 35.42 24.45 35.42 23.22 L 35.42 17.09 C 35.42 16.47 35.56 16.01 35.84 15.7 C 36.12 15.39 36.49 15.24 36.95 15.24 C 37.42 15.24 37.8 15.39 38.08 15.7 C 38.37 16.01 38.51 16.47 38.51 17.08 L 38.51 22.03 C 38.51 22.75 38.57 23.35 38.69 23.84 C 38.81 24.33 39.03 24.71 39.34 24.98 C 39.65 25.26 40.08 25.39 40.62 25.39 C 41.14 25.39 41.63 25.23 42.09 24.93 C 42.55 24.63 42.89 24.22 43.1 23.72 C 43.27 23.28 43.36 22.32 43.36 20.84 L 43.36 17.08 C 43.36 16.47 43.5 16.01 43.79 15.7 C 44.08 15.39 44.45 15.24 44.91 15.24 C 45.37 15.24 45.74 15.39 46.02 15.7 C 46.3 16.01 46.44 16.47 46.44 17.09 L 46.44 26.05 C 46.44 26.64 46.31 27.08 46.04 27.38 C 45.77 27.67 45.43 27.82 45 27.82 C 44.57 27.82 44.23 27.67 43.95 27.36 C 43.69 27.05 43.55 26.62 43.55 26.07 Z " stroke-width="1" />
    <path id="ID0.9777785851620138" d="M 52.35 16.94 L 52.35 17.31 C 52.89 16.59 53.49 16.06 54.14 15.73 C 54.79 15.39 55.53 15.23 56.37 15.23 C 57.19 15.23 57.91 15.41 58.56 15.76 C 59.21 16.11 59.68 16.62 60 17.27 C 60.2 17.65 60.34 18.06 60.4 18.49 C 60.46 18.93 60.49 19.49 60.49 20.17 L 60.49 25.93 C 60.49 26.55 60.35 27.02 60.07 27.34 C 59.79 27.66 59.42 27.82 58.96 27.82 C 58.5 27.82 58.13 27.66 57.84 27.33 C 57.55 27 57.41 26.54 57.41 25.94 L 57.41 20.78 C 57.41 19.76 57.27 18.98 56.99 18.44 C 56.71 17.9 56.14 17.63 55.3 17.63 C 54.75 17.63 54.25 17.79 53.79 18.12 C 53.34 18.45 53 18.9 52.79 19.47 C 52.64 19.93 52.56 20.79 52.56 22.05 L 52.56 25.93 C 52.56 26.56 52.41 27.03 52.12 27.34 C 51.83 27.65 51.45 27.81 50.99 27.81 C 50.54 27.81 50.18 27.65 49.89 27.32 C 49.6 26.99 49.46 26.53 49.46 25.93 L 49.46 16.99 C 49.46 16.4 49.59 15.96 49.84 15.67 C 50.1 15.38 50.45 15.23 50.89 15.23 C 51.16 15.23 51.41 15.29 51.63 15.42 C 51.85 15.55 52.02 15.74 52.16 16 C 52.28 16.26 52.35 16.57 52.35 16.94 Z " stroke-width="1" />
    <path id="ID0.9043929586187005" d="M 72.03 26.05 L 72.03 25.74 C 71.61 26.22 71.2 26.6 70.8 26.9 C 70.4 27.2 69.96 27.43 69.49 27.58 C 69.02 27.74 68.5 27.81 67.94 27.81 C 67.2 27.81 66.51 27.65 65.88 27.34 C 65.25 27.03 64.7 26.58 64.24 26 C 63.78 25.42 63.43 24.73 63.19 23.95 C 62.95 23.16 62.83 22.31 62.83 21.4 C 62.83 19.47 63.3 17.96 64.25 16.88 C 65.19 15.8 66.44 15.26 67.98 15.26 C 68.87 15.26 69.62 15.41 70.24 15.72 C 70.85 16.03 71.45 16.5 72.03 17.13 L 72.03 12.56 C 72.03 11.93 72.16 11.45 72.41 11.12 C 72.66 10.8 73.02 10.63 73.49 10.63 C 73.96 10.63 74.32 10.78 74.57 11.08 C 74.82 11.38 74.95 11.82 74.95 12.4 L 74.95 26.05 C 74.95 26.64 74.81 27.08 74.54 27.38 C 74.27 27.67 73.92 27.82 73.49 27.82 C 73.07 27.82 72.72 27.67 72.44 27.36 C 72.17 27.05 72.03 26.61 72.03 26.05 Z M 65.95 21.5 C 65.95 22.34 66.08 23.05 66.34 23.64 C 66.6 24.23 66.96 24.67 67.41 24.97 C 67.86 25.27 68.36 25.42 68.89 25.42 C 69.43 25.42 69.93 25.28 70.38 25 C 70.83 24.72 71.19 24.28 71.46 23.7 C 71.73 23.11 71.86 22.38 71.86 21.51 C 71.86 20.69 71.73 19.98 71.46 19.38 C 71.19 18.79 70.83 18.33 70.37 18.02 C 69.91 17.71 69.41 17.55 68.87 17.55 C 68.3 17.55 67.8 17.71 67.35 18.03 C 66.9 18.35 66.56 18.81 66.31 19.41 C 66.07 20.01 65.95 20.71 65.95 21.5 Z " stroke-width="1" />
    <path id="check_1_" d="M 88.54 22.53 C 88.54 22.53 95.15 29.97 96.47 33.01 L 102.15 33.01 C 104.53 25.74 113.78 8.4 121.7 2.32 C 123.34 0.21 119.22 -0.66 115.89 0.74 C 110.87 2.85 101.41 18.93 99.64 22.8 C 97.13 23.46 94.49 18.57 94.49 18.57 L 88.54 22.53 Z " stroke-width="1" />
  </g>
</svg>