<svg version="1.1" xmlns="http://www.w3.org/2000/svg" xmlns:xlink="http://www.w3.org/1999/xlink" width="245.24219" height="120.63281" viewBox="0,0,245.24219,120.63281"><g transform="translate(-102.73438,-79.20052)"><g data-paper-data="{&quot;isPaintingLayer&quot;:true}" fill-rule="nonzero" stroke-linecap="butt" stroke-linejoin="miter" stroke-miterlimit="10" stroke-dasharray="" stroke-dashoffset="0" style="mix-blend-mode: normal"><path d="M274.86328,190.875v-23h48.75v23z" fill="#ffffff" stroke="#000000" stroke-width="2"/><path d="M266.86892,161.16667c-38.91304,0 -70.45828,8.43197 -70.45828,18.83333c0,10.40136 31.54525,18.83333 70.45828,18.83333c19.57446,0 16.61319,-8.86451 16.49453,-18.33791c-0.11723,-9.35924 2.84404,-19.32875 -16.49453,-19.32875z" fill="#6a6a6a" stroke="#000000" stroke-width="2"/><path d="M202.16667,186.5c0,0 -4.48029,-1.9776 -5.00135,-3.67106c-0.37156,-1.20756 0.14763,-4.23233 1.08348,-5.9421c0.91877,-1.67856 2.2512,-2.05351 2.2512,-2.05351l81.33333,-1.33333v13z" fill="#ffffff" stroke="#000000" stroke-width="2"/><text transform="matrix(0.37211 0 0 0.291 199.57 176.23838)" font-size="40"  fill="#000000" fill-rule="nonzero" stroke="none" stroke-width="1" stroke-linecap="butt" stroke-linejoin="miter" stroke-miterlimit="10" stroke-dasharray="" stroke-dashoffset="0" font-family="Helvetica" font-weight="normal" text-anchor="start" style="mix-blend-mode: normal" >Cheat code</text><text transform="matrix(0.5 0 0 0.5 102.98438 88.33333)" font-size="40"  fill="#000000" fill-rule="nonzero" stroke="none" stroke-width="1" stroke-linecap="butt" stroke-linejoin="miter" stroke-miterlimit="10" stroke-dasharray="" stroke-dashoffset="0" font-family="Helvetica" font-weight="normal" text-anchor="start" style="mix-blend-mode: normal" >Animate good cheat code</text><path d="M229.76908,145.0694c-2.23607,1.11803 -3.3541,-1.11803 -3.3541,-1.11803l0.13575,-0.40329c-10.76891,-7.54672 -20.59258,-15.56236 -29.42458,-25.37567c0,0 -1.67241,-1.85824 0.18582,-3.53065c1.85824,-1.67241 3.53065,0.18582 3.53065,0.18582c8.5759,9.52882 18.10866,17.30627 28.57542,24.62433l1.46908,2.26338c0,0 1.11803,2.23607 -1.11803,3.3541z" fill="#000000" stroke="none" stroke-width="0.5"/><path d="M219.19959,151.67638c0.49029,-2.45145 2.94174,-1.96116 2.94174,-1.96116l2.16117,0.48692c3.7649,1.61472 6.24217,1.79786 10.34854,1.79786c1.44444,0 2.88971,-0.04884 4.33333,0c1.38968,0.04702 5.12261,1.20564 4.16684,0.19573c-4.77993,-5.05068 -9.81894,-9.13726 -13.88158,-14.92874c0,0 -1.43366,-2.04808 0.61442,-3.48174c2.04808,-1.43366 3.48174,0.61442 3.48174,0.61442c2.98187,4.26953 6.23952,7.73337 10.01047,11.291c1.36833,1.29093 4.85702,4.67192 4.77462,6.44692c-0.28141,6.06184 -5.52701,4.76615 -9.1665,4.8624c-6.05381,0.1601 -11.04943,0.19704 -16.65146,-2.20214l-1.17216,-0.17974c0,0 -2.45145,-0.49029 -1.96116,-2.94174z" fill="#000000" stroke="none" stroke-width="0.5"/><path d="M313.61328,173.125c0,-1.10457 0.89543,-2 2,-2c1.10457,0 2,0.89543 2,2c0,1.10457 -0.89543,2 -2,2c-1.10457,0 -2,-0.89543 -2,-2z" fill="#000000" stroke="none" stroke-width="0.5"/><path d="M314.86328,185.375c0,-1.10457 0.89543,-2 2,-2c1.10457,0 2,0.89543 2,2c0,1.10457 -0.89543,2 -2,2c-1.10457,0 -2,-0.89543 -2,-2z" fill="#000000" stroke="none" stroke-width="0.5"/></g></g></svg>