<svg version="1.1" xmlns="http://www.w3.org/2000/svg" xmlns:xlink="http://www.w3.org/1999/xlink" width="513" height="383" viewBox="0,0,513,383"><g transform="translate(5.54688,5.5)"><g data-paper-data="{&quot;isPaintingLayer&quot;:true}" fill-rule="nonzero" stroke-linecap="butt" stroke-linejoin="miter" stroke-miterlimit="10" stroke-dasharray="" stroke-dashoffset="0" style="mix-blend-mode: normal"><path d="M-4.54687,376.5v-381h511v381zM389.45313,339.5c5.52285,0 10,-4.47715 10,-10c0,-5.52285 -4.47715,-10 -10,-10c-5.52285,0 -10,4.47715 -10,10c0,5.52285 4.47715,10 10,10z" fill="#000000" stroke="#000000" stroke-width="2"/><path d="M204.71192,98.59461c3.86138,-5.92773 9.17849,-14.2001 15.74121,-17.59461c4.51014,-2.33283 10.61476,-3.08775 15.75243,-3.46105c14.57771,-1.05922 31.52906,-5.62005 43.3897,5.81892c1.64276,1.58436 7.22944,7.00962 10.51373,10.53311c4.46381,4.78893 9.00043,9.5134 13.32489,14.42852c14.25492,16.20193 18.67928,24.61446 24.73906,44.89879c1.71185,5.7302 3.25008,11.04946 3.28017,17.28171c0.03926,8.13034 -0.04072,16.26097 0,24.39131c0.02889,5.76896 -2.29815,11.30673 -3.27952,16.98667c-2.1719,12.57052 -4.61642,34.92478 -21.9254,35.88639c-3.9863,0.22146 -8.1684,-0.59034 -11.73936,-2.37582c-15.1366,-7.5683 -11.4034,-18.29072 -7.2892,-30.14296c0.94388,-2.71913 4.23298,-21.21242 4.23347,-22.77229c0.00589,-18.56076 -0.05772,-27.90163 -7.12669,-44.10783c-2.32745,-5.33587 -7.03371,-9.29247 -10.89426,-13.64961c-5.54774,-6.26137 -10.41008,-13.41843 -17.26332,-18.21586c-0.57109,-0.39978 -1.39523,-0.03739 -2.09134,0c-4.26015,0.2288 -8.51905,0.48688 -12.77395,0.79837c-1.58026,0.11569 -2.3661,1.98758 -3.09142,3.11862c-3.27719,5.11027 -5.9916,10.11892 -9.11801,15.17701c-2.94304,4.76142 -5.39631,9.81755 -7.77063,14.8866c-2.74133,5.8526 -2.87879,12.97258 -5.9725,18.79602c-0.94745,1.78343 -8.65425,11.50533 -8.89788,13.94473c-0.93469,9.35868 0.19906,15.4009 -3.5,24.27864c-1.40142,3.3634 -5.27756,6.47213 -9.89902,8.54911c-2.52534,1.38453 -5.38206,2.23983 -8.4209,2.41665c-4.842,0.61776 -9.43693,-0.20696 -12.1217,-3.22144c-3.1703,-2.07586 -5.71523,-5.02779 -7.29085,-8.51185c-1.52858,-0.69128 -2.95473,-1.56915 -4.24941,-2.60454c-4.27501,-3.07509 -7.34012,-7.45815 -7.27136,-12.47726c-0.16241,-1.02634 -0.24675,-2.07865 -0.24675,-3.15067c0,-4.04642 1.20168,-7.81218 3.26764,-10.95987c2.20355,-6.51949 4.67767,-13.53223 4.73236,-15.89178c0.1788,-7.71405 -0.04835,-15.43239 0,-23.14835c0.01495,-2.38529 0.95599,-4.6184 1.12265,-6.95272c0.87432,-12.24614 0.75274,-18.3756 0.75274,-29.92925c0,-2.41726 1.12332,-4.79152 1.12461,-7.14473c0.00858,-15.64489 1.64921,-31.02533 1.97526,-46.62999c-2.46328,2.11445 -5.50204,3.66338 -9.02241,4.42093c-7.92646,1.70569 -22.43855,-3.48743 -31.30115,-2.76424c-1.62368,0.13249 -3.80432,1.37413 -5.5267,1.6875c-3.29757,0.59995 -6.53142,1.31493 -9.7482,2.07153c2.0827,14.34268 1.96756,28.51057 2.6232,43.03304c0.08147,1.80456 0.85539,3.69996 0.92308,5.549c0.26157,7.14479 -0.83543,14.50654 -0.92308,21.65893c-0.03143,2.56508 -0.95009,5.13776 -1,7.65525c-0.20441,10.30964 5.79687,49.98736 -13.87552,55.52022c-3.84334,1.08094 -8.10195,1.19569 -11.9752,0.22738c-3.87325,-0.96831 -7.57685,-3.07361 -10.45935,-5.83601c-6.36821,-6.10287 -3.77632,-12.92094 -3.68994,-20.02895c0.20833,-17.14299 0.83347,-33.60507 1,-50.53789c0.16261,-16.53412 0.67462,-34.81959 -2.25176,-51.73346c-6.50763,0.34675 -12.80545,0.34868 -20.06304,-0.37647c-3.35462,-0.33518 -6.72029,-0.65466 -10.09156,-0.67277c-0.11002,-0.00059 -0.22076,0.00011 -0.33219,0.00204c-2.51825,1.1437 -5.31546,1.78065 -8.26145,1.78065c-1.22952,0 -2.43313,-0.11095 -3.60136,-0.32338c-9.32684,-1.69598 -16.39864,-9.86045 -16.39864,-19.67662c0,-4.48045 1.47329,-8.6168 3.96185,-11.95101c3.69048,-5.27158 9.86789,-8.06911 18.77705,-9.71441c10.19062,-1.88195 20.22656,2.48229 30.26359,1.66541c4.12113,-0.3354 8.26294,-0.51946 12.38989,-0.82102c3.34517,-1.69737 7.34334,-2.34398 11.88882,-1.43886c21.71755,-3.95505 34.39686,-12.07105 58.51701,-6.05844c9.61647,2.39717 22.27906,2.74479 24.86721,15.68552c0.27156,1.35781 0.42532,2.70928 0.46664,4.04148c3.36612,-2.77288 7.76838,-4.40867 12.86795,-4.40867c11.74797,0 19.84051,8.70837 20,20c0.21596,15.29003 -1.40107,23.5819 -2,37.65525c-0.18747,4.40511 0.12461,8.81761 0.12461,13.22672c0,0.55106 -0.05836,1.09988 -0.1485,1.64671c0.09425,-0.14477 0.18848,-0.28946 0.28268,-0.43407z" fill="#dadada" stroke="none" stroke-width="0.5"/><path d="M441.45313,205.5c0.1031,0 0.20602,0.00078 0.30875,0.00233l0.80928,-0.12695l0.8779,0.22296c2.02779,0.20091 3.96653,0.7047 5.77033,1.46548l2.15628,0.54763l1.01907,1.14422c5.45491,3.57178 9.05838,9.73724 9.05838,16.74433c0,0.43247 -0.01373,0.86173 -0.04077,1.28737l0.30513,1.50772l-0.85685,2.05643c-0.48962,1.96498 -1.26985,3.81501 -2.29241,5.50178l-0.3446,0.82704l-0.58135,0.56564c-1.96337,2.70139 -4.58638,4.89237 -7.63243,6.33634l-0.1736,0.0868l-0.38313,0.33089l-0.76626,0.24381l-0.28947,0.14473l-2.93484,1.11803l-1.46822,0.23031l-1.41621,0.45061l-3.125,0.3125h-0.32363l-0.7944,0.12461l-0.49066,-0.12461h-7.39131l-1.64166,-0.16417l-1.64632,-0.10796l-6,-1l-1.51023,-0.40955l-1.52635,-0.34466l-0.45481,-0.1516l-1.34564,-0.13456l-0.06641,-0.02113l-0.06969,-0.00095l-3.06346,-0.69175l-2.27132,-0.75711l-3.25484,-0.81371l-2.9559,-1.06109l-0.24133,-0.14897l-0.27256,-0.07836l-2.7735,-1.47342l-1.96397,-1.30931l-4.8863,-2.44315l-2.65533,-1.67705l-0.04995,-0.0486l-0.0619,-0.03202l-2.43068,-1.98874l-3.58441,-3.58441l-7.93896,-7.05686l-3.33449,-2.50087l-2.3125,-2.125l-0.14286,-0.20043l-0.19219,-0.15376l-1.99345,-2.42681l-1.82111,-2.73167l-4.81255,-6.73757l-1.32713,-2.31475l-0.0872,-0.11964l-0.06668,-0.14875l-0.08108,-0.14141l-0.04547,-0.14089l-1.09145,-2.43477l-0.55053,-1.65158l-4.64492,-9.28984l-0.33089,-0.38313l-0.24381,-0.76626l-0.14473,-0.28947l-1.11803,-2.93484l-0.23031,-1.46822l-0.45061,-1.41621l-0.3125,-3.125l0,-0.32363l-0.12461,-0.7944l0.12461,-0.49066v-1.55942l-0.61989,-7.43863l-0.15527,-0.77634l-0.23142,-0.60749l-0.39973,-2.5483l-0.50587,-2.52937l0.00714,-0.65004l-0.21957,-1.39976l0.24558,-0.96697l0.00136,-0.12363l1,-9l0.21141,-0.99028l0.00085,-0.06219l0.22765,-1.00815l0.21578,-1.01076l0.02529,-0.05682l0.1967,-0.87111v-7.79207l0.21812,-2.18119l-0.00663,-0.22262l0.06475,-0.3586l0.03626,-0.36259l0.06753,-0.21223l0.38949,-2.15719l1.23048,-4.30668v-0.59021l-0.12461,-0.49066l0.12461,-0.7944v-0.32363l0.3125,-3.125l0.45061,-1.41621l0.23031,-1.46822l1.11803,-2.93484l0.14473,-0.28947l0.24381,-0.76626l0.33089,-0.38313l0.28057,-0.56114l1.67705,-2.65533l0.0486,-0.04995l0.03202,-0.0619l1.98874,-2.43068l2,-2l2.43068,-1.98874l0.0619,-0.03202l0.04995,-0.0486l1.42995,-0.90313l7.02752,-7.02752l1.52528,-1.24796l1.52285,-1.25091l0.79085,-0.52723l5.25162,-6.00186l0.09434,-0.08829l0.08219,-0.30411l1.12368,-0.97045l1.60919,-1.60919l2.43068,-1.98874l0.31452,-0.16268l1.39693,-1.20644l2.43088,-0.77346l2.26582,-1.17197l1.84086,-0.1347l0.33744,-0.10737l3.125,-0.3125h2l0.11651,0.01165l1.64,-0.12l0.59022,0.33906l0.08545,0.0125l0.69283,0.06928l0.18684,0.05945l1.53887,0.2252l4,1l1.06135,0.381l0.09737,0.01527l0.89538,0.3411l0.9018,0.32372l0.08386,0.05177l1.05379,0.40144l4,2l1.05147,0.66409l1.09826,0.58345l3,2l1.52285,1.25091l1.52528,1.24796l4,4l1.24796,1.52528l1.25091,1.52285l4,6l0.58345,1.09826l0.66409,1.05147l1,2l0.50493,1.32545l0.58019,1.29427l1,3l0.16937,0.75009l0.25981,0.72375l1,4l0.2252,1.53887l0.05945,0.18684l0.06928,0.69283l0.10082,0.68895l-0.01236,0.19568l0.15475,1.54754l0,3.34475l0.72788,4.36727l0.10796,1.64632l0.16417,1.64166l0,14.39131l0.12461,0.49066l-0.12461,0.7944v0.32363l-0.3125,3.125l-0.45061,1.41621l-0.23031,1.46822l-1.11803,2.93484l-0.14473,0.28947l-0.24381,0.76626l-0.33089,0.38313l-2.28057,4.56114l-0.41063,0.65016l-0.32806,0.69548l-1.87045,3.11742l-0.30574,0.91722l-0.79576,1.77516l-0.06348,0.22079l-0.22728,0.42781l-0.19816,0.44205l-0.13531,0.18566l-0.91268,1.71798l-1.55873,2.33809l-0.31177,0.74825l-0.99826,0.97128l-1.1247,1.3692l-1.58925,1.2714l-1.4587,1.41928l-0.01562,0.00987l-0.58398,0.77864l-0.9597,1.04438l-0.89816,1.09775l-0.21038,0.21038l-0.05675,0.20998l-1.12368,0.97045l-1.60919,1.60919l-2.43068,1.98874l-0.31452,0.16268l-1.39693,1.20644l-2.43088,0.77346l-2.26582,1.17197l-1.84086,0.1347l-0.33744,0.10737l-0.37693,0.03769l-0.73863,0.28138l-1.93209,0.30307l4.20993,3.74216l0.39905,0.43312l0.45581,0.37293l1.70505,1.70505l3.09709,1.54854l1.05147,0.66409l1.09826,0.58345l0.11755,0.07837l0.63916,0.15979l0.72375,0.25981l0.75009,0.16937l0.45481,0.1516l1.34564,0.13456l0.06641,0.02113l0.06969,0.00095l3.06346,0.69175l1.5113,0.50377l2.81939,0.4699h3.08243c1.96991,-0.64891 4.07512,-1 6.26232,-1zM397.68262,156.31966l0.57633,-0.56075l0.19418,-0.25891l2.125,-2.3125l0.48314,-0.34436l0.31094,-0.65919l0.39194,-0.87432l0.05805,-0.07965l0.48108,-1.0199l2.60482,-4.34136l0.54504,-1.09008l0,-9.62339l-0.72788,-4.36727l-0.10796,-1.64632l-0.16417,-1.64166v-2.53789l-0.21656,-0.86624l-0.08179,-0.24537l-0.13878,0.08393l-1.46887,1.20657l-1.35222,0.90148l-7.19388,7.19388l-0.31743,1.75806l-1.23048,4.30668v8.1989l-0.3125,3.125l-0.02113,0.06641l-0.00095,0.06969l-0.69175,3.06346l-0.32997,0.98992l-0.24089,2.168l0.52811,2.85661l0.06777,0.81324l1.40171,-1.36383l2.65533,-1.67705l0.56114,-0.28057l0.38313,-0.33089l0.76626,-0.24381l0.28947,-0.14473l0.06203,-0.02363z" fill="#dadada" stroke="none" stroke-width="0.5"/><path d="M129.43352,260.5c7.49613,0.28516 24.99172,-0.65284 32.01961,3.5c6.92729,4.0934 10,8.88654 10,17.5c0,11.53974 -6.82558,17.17514 -16.875,19.6875c-5.38421,1.34605 -9.56826,-0.54461 -14.58711,-0.6875c-12.36297,-0.35199 -23.23396,-0.96685 -35.0791,-3.76311c-1.25621,-0.29655 -2.82109,-0.46856 -4.55682,-0.61732c-1.26201,0.24958 -2.56671,0.38043 -3.90197,0.38043c-1.57079,0 -3.09929,-0.18109 -4.56575,-0.52352c-0.2348,1.36615 -0.39918,2.69561 -0.43425,3.94487c-0.11383,4.05536 -3.88364,10.81699 -0.05921,12.17072c14.03644,4.96849 34.55017,8.7095 49.44551,5.86397c3.47735,-0.66429 2.83812,-2.89145 6.66943,-4.34459c3.73297,-1.41584 7.75305,-2.59728 11.73936,-2.37582c3.02335,0.16796 5.84161,1.85108 8.38525,3.49386c9.09259,5.8723 13.04623,21.06019 6.9985,30.15064c-0.94394,1.41885 -5.67809,6.32571 -6.08545,6.74439c-3.7652,3.86979 -10.96861,3.71051 -15.64759,4.4754c-4.3758,0.71533 -8.49085,1.93604 -13.03447,2.25895c-20.16713,1.43323 -33.25123,-1.99712 -52.66409,-6.31334c-14.39763,-3.20114 -32.58102,-6.71562 -36.89427,-23.00234c-1.69824,-6.41253 0.93226,-13.5282 1.14703,-20.0053c0.12957,-3.90767 -0.34085,-9.06305 0.20101,-13.36631c1.47866,-11.74286 4.45706,-23.51764 4.79899,-35.37951c0.23842,-8.27082 -0.20663,-16.55498 -0.74804,-24.81151c-0.80952,-2.17326 -1.25196,-4.52524 -1.25196,-6.98056c0,-4.54389 1.51531,-8.73385 4.06816,-12.09214c4.06836,-5.64551 10.84246,-9.39271 18.72693,-8.17223c1.15201,0.17833 2.26888,0.46972 3.34459,0.85996c1.40967,-0.80036 2.92614,-1.4344 4.52271,-1.87544c1.07999,-0.29834 2.19664,-0.50836 3.34168,-0.62181c1.9029,-0.48328 3.91081,-0.25845 5.8983,0.28216c2.22897,0.44085 4.32477,1.25207 6.22062,2.36686c0.20148,0.08576 0.401,0.17016 0.59838,0.25263c0.97051,0.40552 3.14514,0.19128 4.20096,0.38839c4.3635,0.8146 8.6277,2.33664 13.05807,2.61161c15.51041,0.96268 49.01961,-7.24962 49.01961,20c0,3.99245 -1.14419,8.09608 -3.125,11.5625c-3.14698,5.50721 -10.87396,8.38255 -16.875,8.4375c-10.3329,0.09462 -20.66685,0.06148 -31,0c-5.35629,-0.03187 -12.97298,-2.25657 -16.98039,-3c-0.65695,-0.12187 -1.32155,-0.23135 -1.99107,-0.33482c-0.02948,2.18241 -0.11525,4.37279 -0.24335,6.56445c10.76045,-0.80585 21.73741,4.37254 32.19519,4.77037z" fill="#dadada" stroke="none" stroke-width="0.5"/><path d="M191.89063,359.375c-2.31053,-1.64982 -5.48703,-4.86638 -6.17867,-7.63298c-1.06095,-4.24381 -1.85613,-8.43056 -1.99704,-12.48625c-0.23559,-6.781 1.35782,-13.19561 6.59608,-18.89791c1.0085,-1.09784 8.78517,-6.43447 9.39665,-7.3458c3.32481,-4.95523 4.6392,-11.2995 7.24548,-16.51206c3.81169,-7.62338 15.04104,-20.99053 22.5,-24.5c11.52795,-5.42394 35.12216,-7.03545 47,-6.5c5.46822,0.24651 13.05857,0.87486 18,3.5c13.88985,7.37898 22.71925,23.80744 23,39.5c0.22322,12.47695 -2.74957,17.78024 -4,28.98039c-1.09815,9.83612 1.09281,23.87729 -9.4375,29.89461c-3.46642,1.98081 -7.57005,3.125 -11.5625,3.125c-26.62252,0 -20.0146,-32.81569 -16.61161,-48.92232c0.92872,-4.3957 3.57897,-11.82709 0.08117,-15.89021c-1.70736,-1.98331 -15.33184,0.48334 -20.54723,1.42415c-2.31391,0.41741 -5.15873,-0.15461 -7.13244,1.09765c-3.37272,2.13988 -4.6442,6.99937 -6.28988,10.29074c-2.8051,5.6102 -5.57194,11.44286 -8.61146,16.94427c-1.48822,2.69362 -3.46162,5.14097 -5.74641,7.19786c-1.36299,1.22704 -3.5483,1.65411 -4.43065,3.26185c-0.51073,2.9786 -1.68018,5.73219 -3.35303,8.10547c-3.62004,5.13575 -9.59747,8.49054 -16.35846,8.49054c-2.50924,0 -4.91055,-0.46209 -7.12348,-1.30583c-1.5983,-0.35573 -3.11858,-0.87632 -4.43902,-1.81917z" fill="#dadada" stroke="none" stroke-width="0.5"/><path d="M422.45313,257.5c7.00709,0 13.17254,3.60347 16.74433,9.05838l1.14422,1.01907l0.54763,2.15628c0.76078,1.80381 1.26457,3.74254 1.46548,5.77033l0.22296,0.8779l-0.12695,0.80928c0.00155,0.10273 0.00233,0.20565 0.00233,0.30875c0,2.1872 -0.35109,4.2924 -1,6.26232l0,4.71098l0.00658,0.01727l0.23031,1.46822l0.45061,1.41621l0.3125,3.125v0.32363l0.12461,0.7944l-0.12461,0.49066v6.78261l0.12461,0.49066l-0.12461,0.7944v0.32363l-0.3125,3.125l-0.45061,1.41621l-0.23031,1.46822l-0.00658,0.01727v14.36461l0.12461,0.49066l-0.12461,0.7944v0.32363l-0.3125,3.125l-0.45061,1.41621l-0.23031,1.46822l-1.11803,2.93484l-0.14473,0.28947l-0.24381,0.76626l-0.33089,0.38313l-2.28057,4.56114l-1.67705,2.65533l-0.0486,0.04995l-0.03202,0.0619l-1.98874,2.43068l-0.30064,0.30064l-0.95295,2.50149l-0.14473,0.28947l-0.24381,0.76626l-0.28154,0.326l-0.1907,0.68788l-0.87008,1.0876l-0.94619,1.49813l-1.41928,1.4587l-1.2714,1.58925l-1.3692,1.1247l-0.97128,0.99826l-0.74825,0.31177l-0.69031,0.4602l-0.59965,0.59965l-2.43068,1.98874l-0.0619,0.03202l-0.04995,0.0486l-2.65533,1.67705l-6,3l-1.32545,0.50493l-1.29427,0.58019l-3,1l-3.06346,0.69175l-0.06969,0.00095l-0.06641,0.02113l-3.125,0.3125l-7.53789,0l-1.6114,0.40285l-1.53887,0.2252l-0.18684,0.05945l-0.69283,0.06928l-0.68895,0.10082l-0.19568,-0.01236l-1.54754,0.15475h-7.39131l-0.49066,0.12461l-0.7944,-0.12461h-0.32363l-3.125,-0.3125l-1.41621,-0.45061l-1.46822,-0.23031l-2.93484,-1.11803l-0.28947,-0.14473l-0.76626,-0.24381l-0.38313,-0.33089l-0.56114,-0.28057l-2.65533,-1.67705l-0.04995,-0.0486l-0.0619,-0.03202l-2.41482,-1.97576l-0.96773,-0.5141l-4.96397,-3.30931l-0.8863,-0.44315l-2.65533,-1.67705l-0.04995,-0.0486l-0.0619,-0.03202l-2.43068,-1.98874l-2.21038,-2.21038l-0.20998,-0.05675l-0.97045,-1.12368l-1.60919,-1.60919l-1.98874,-2.43068l-0.16268,-0.31452l-1.20644,-1.39693l-0.77346,-2.43088l-1.17197,-2.26582l-0.1347,-1.84086l-0.10737,-0.33744l-0.3125,-3.125v-2.27573l-0.10835,-1.48077l0.10835,-0.18861v-7.44619l-0.12461,-0.49066l0.12461,-0.7944v-0.32363l0.3125,-3.125l0.45061,-1.41621l0.23031,-1.46822l1.11803,-2.93484l0.14473,-0.28947l0.24381,-0.76626l0.33089,-0.38313l2.28057,-4.56114l0.54761,-0.86705l0.57043,-1.36902l2.83337,-2.7568l1.08572,-1.11588l1.70928,-2.08912l2,-2l2.43068,-1.98874l0.0619,-0.03202l0.04995,-0.0486l2.65533,-1.67705l2,-1l1.32545,-0.50493l1.29427,-0.58019l6,-2l3.06346,-0.69175l0.06969,-0.00095l0.06641,-0.02113l0.37693,-0.03769l0.73863,-0.28138l1.46822,-0.23031l1.41621,-0.45061l3.125,-0.3125h0.32363l0.7944,-0.12461l0.49066,0.12461h3.39131l1.96097,0.1961l1.96135,0.19229l3.05807,0.61161h6.01961l3.125,0.3125l3.85339,1.22608l-0.103,-0.65661l0.12461,-0.49066v-9.78261l-0.12461,-0.49066l0.12461,-0.7944v-0.32363l0.3125,-3.125l0.45061,-1.41621l0.23031,-1.46822l1.11803,-2.93484l0.14473,-0.28947l0.24381,-0.76626l0.33089,-0.38313l0.0868,-0.1736c1.44397,-3.04605 3.63495,-5.66906 6.33634,-7.63243l0.56564,-0.58135l0.82704,-0.3446c1.68678,-1.02256 3.5368,-1.80279 5.50178,-2.29241l2.05643,-0.85685l1.50772,0.30513c0.42564,-0.02704 0.8549,-0.04077 1.28737,-0.04077zM389.45313,339.5c5.52285,0 10,-4.47715 10,-10c0,-5.52285 -4.47715,-10 -10,-10c-5.52285,0 -10,4.47715 -10,10c0,5.52285 4.47715,10 10,10z" fill="#dadada" stroke="none" stroke-width="0.5"/><path d="M379.45313,329.5c0,-5.52285 4.47715,-10 10,-10c5.52285,0 10,4.47715 10,10c0,5.52285 -4.47715,10 -10,10c-5.52285,0 -10,-4.47715 -10,-10z" fill="#000000" stroke="none" stroke-width="0.5"/></g></g></svg>