<svg xmlns="http://www.w3.org/2000/svg" xmlns:xlink="http://www.w3.org/1999/xlink" version="1.1" width="68.89999847412109" height="48.68000106811523" viewBox="-0.65 -0.15000000000000002 68.89999847412109 48.68000106811523">
  <!-- Exported by Scratch - http://scratch.mit.edu/ -->
  <g id="ID0.5457445327192545">
    <path id="ID0.8705798648297787" fill="#E6E6E6" stroke="#999999" d="M 62.63 23.29 C 64.09 26.79 62.26 31.97 57.92 32.69 C 53.82 33.36 49.38 32.92 47.93 29.43 C 46.47 25.93 48.58 21.73 52.64 20.03 C 56.7 18.33 61.18 19.79 62.63 23.29 Z " stroke-width="1"/>
    <path id="ID0.745099167805165" fill="#E6E6E6" stroke="#999999" d="M 52.1 7.39 C 58.17 8.31 61.37 12.36 60.07 16.83 C 58.27 23.04 50.34 28.55 45.7 27.04 C 41.06 25.53 40.82 18.76 42.59 13.33 C 44.36 7.91 47.27 6.66 52.1 7.39 Z " stroke-width="1"/>
    <path id="ID0.547113767825067" fill="none" stroke="#FFFFFF" d="M 46.45 24.04 L 51.29 11.12 " stroke-width="1"/>
    <path id="ID0.8096877196803689" fill="none" stroke="#FFFFFF" d="M 49.82 15.39 L 54.94 14.37 " stroke-width="1"/>
    <path id="ID0.6806356417946517" fill="none" stroke="#FFFFFF" d="M 46.84 22.47 L 51.97 21.45 " stroke-width="1"/>
    <path id="ID0.8804711909033358" fill="none" stroke="#FFFFFF" d="M 45 13.75 L 49.07 16.69 " stroke-width="1"/>
    <path id="ID0.2865224904380739" fill="none" stroke="#FFFFFF" d="M 44.45 17.9 L 47.83 20.36 " stroke-width="1"/>
    <path id="ID0.6561514744535089" fill="none" stroke="#FFFFFF" d="M 48.49 18.83 L 56.31 17.29 " stroke-width="1"/>
    <path id="ID0.966390592046082" fill="#E6E6E6" stroke="#999999" d="M 4.47 22.16 C 2.59 25.45 3.76 30.82 7.98 32.07 C 11.97 33.25 16.42 33.36 18.3 30.07 C 20.18 26.78 18.61 22.34 14.79 20.16 C 10.97 17.98 6.35 18.88 4.47 22.16 Z " stroke-width="1"/>
    <path id="ID0.8171810838393867" fill="#E6E6E6" stroke="#999999" d="M 16.89 7.7 C 10.75 7.86 7.07 11.48 7.81 16.08 C 8.83 22.47 16.01 28.92 20.8 27.99 C 25.59 27.07 26.67 20.38 25.59 14.78 C 24.51 9.17 21.77 7.57 16.89 7.7 Z " stroke-width="1"/>
    <path id="ID0.5594368632882833" fill="none" stroke="#FFFFFF" d="M 20.43 24.91 L 17.24 11.49 " stroke-width="1"/>
    <path id="ID0.08073707250878215" fill="none" stroke="#FFFFFF" d="M 18.17 15.91 L 13.2 14.27 " stroke-width="1"/>
    <path id="ID0.564784228336066" fill="none" stroke="#FFFFFF" d="M 20.24 23.31 L 15.28 21.66 " stroke-width="1"/>
    <path id="ID0.7213623877614737" fill="none" stroke="#FFFFFF" d="M 23.14 14.88 L 18.74 17.3 " stroke-width="1"/>
    <path id="ID0.486519371625036" fill="none" stroke="#FFFFFF" d="M 23.18 19.07 L 19.52 21.09 " stroke-width="1"/>
    <path id="ID0.7278551147319376" fill="none" stroke="#FFFFFF" d="M 19.05 19.5 L 11.49 16.99 " stroke-width="1"/>
    <path id="ID0.1464923582971096" fill="#FCEE21" stroke="#000000" d="M 54.08 27.21 C 54.08 33.14 44.92 39.22 33.62 39.22 C 22.32 39.22 13.16 33.14 13.16 27.21 C 13.16 21.28 22.32 17.74 33.62 17.74 C 44.92 17.73 54.08 21.27 54.08 27.21 Z " stroke-width="1"/>
    <path id="ID0.6000633160583675" fill="#D9E021" stroke="#42210B" stroke-width="1.3" d="M 54.08 27.21 C 54.08 33.14 44.92 39.22 33.62 39.22 C 22.32 39.22 13.16 33.14 13.16 27.21 C 13.16 21.28 22.32 17.74 33.62 17.74 C 44.92 17.73 54.08 21.27 54.08 27.21 Z "/>
    <path id="ID0.8274940783157945" fill="#FCEE21" d="M 33.02 36.36 C 23.54 36.36 16.18 30.93 16.18 26.25 C 16.18 21.02 24.64 18.68 33.02 18.68 C 41.4 18.68 49.86 21.02 49.86 26.25 C 49.85 30.93 42.5 36.36 33.02 36.36 L 33.02 36.36 Z " stroke-width="1"/>
    <path id="ID0.7602760116569698" fill="none" stroke="#000000" d="M 39.66 37.28 L 43.07 40.32 " stroke-width="1"/>
    <path id="ID0.9520316226407886" fill="none" stroke="#000000" d="M 38.34 37.82 L 40.36 40.77 " stroke-width="1"/>
    <path id="ID0.9303099173121154" fill="none" stroke="#000000" d="M 41.6 36.93 L 45.16 39.29 " stroke-width="1"/>
    <path id="ID0.06254370231181383" fill="none" stroke="#000000" d="M 48.25 34.21 L 53.13 35.94 " stroke-width="1"/>
    <path id="ID0.6969341025687754" fill="none" stroke="#000000" d="M 47.5 34.89 L 51.16 36.82 " stroke-width="1"/>
    <path id="ID0.35774728935211897" fill="none" stroke="#000000" d="M 49.64 33.55 L 54.19 34.72 " stroke-width="1"/>
    <path id="ID0.7794059924781322" fill="none" stroke="#000000" d="M 18.75 34.21 L 13.86 35.94 " stroke-width="1"/>
    <path id="ID0.06929419515654445" fill="none" stroke="#000000" d="M 19.49 34.89 L 15.84 36.82 " stroke-width="1"/>
    <path id="ID0.7189552173949778" fill="none" stroke="#000000" d="M 17.36 33.55 L 12.81 34.72 " stroke-width="1"/>
    <path id="ID0.577375850174576" fill="none" stroke="#000000" d="M 28.19 37.28 L 24.78 40.32 " stroke-width="1"/>
    <path id="ID0.7629124755039811" fill="none" stroke="#000000" d="M 29.51 37.82 L 27.49 40.77 " stroke-width="1"/>
    <path id="ID0.9927298836410046" fill="none" stroke="#000000" d="M 26.24 36.93 L 22.69 39.29 " stroke-width="1"/>
    <path id="ID0.3728182939812541" fill="none" stroke="#000000" d="M 33.33 18.53 L 33.34 15 " stroke-width="1"/>
    <path id="ID0.7646150202490389" fill="none" stroke="#000000" d="M 31.68 18.42 L 30.56 15.34 " stroke-width="1"/>
    <path id="ID0.5280728456564248" fill="none" stroke="#000000" d="M 35.35 18.32 L 36.12 15.33 " stroke-width="1"/>
    <path id="ID0.8299619043245912" fill="#D9E021" d="M 26.92 29.3 C 27.37 30.28 26.51 31.23 25 31.42 C 23.49 31.61 21.9 30.97 21.45 29.99 C 21 29.01 21.86 28.06 23.37 27.87 C 24.88 27.67 26.47 28.32 26.92 29.3 Z " stroke-width="1"/>
    <path id="ID0.43553286138921976" fill="#CDD41F" d="M 25.63 21.46 C 24.28 21.63 23.05 21.47 22.89 21.11 C 22.73 20.75 23.69 20.32 25.04 20.15 C 26.39 19.98 27.62 20.14 27.78 20.5 C 27.94 20.86 26.98 21.3 25.63 21.46 Z " stroke-width="1"/>
    <path id="ID0.12002505036070943" fill="#CDD41F" d="M 46.05 33.31 C 45.55 33.99 44.17 34.34 42.95 34.1 C 41.74 33.86 41.15 33.11 41.65 32.43 C 42.15 31.75 43.53 31.39 44.75 31.64 C 45.96 31.88 46.54 32.63 46.05 33.31 Z " stroke-width="1"/>
    <path id="ID0.10123975435271859" fill="#D9E021" d="M 37 22.63 C 35.08 22.48 33.65 21.87 33.82 21.25 C 33.99 20.63 35.69 20.25 37.61 20.39 C 39.54 20.54 40.96 21.15 40.79 21.77 C 40.62 22.39 38.93 22.78 37 22.63 Z " stroke-width="1"/>
    <path id="ID0.6722154337912798" fill="none" d="M 0 0.5 L 67.6 0.5 L 67.6 47.88 L 0 47.88 L 0 0.5 Z " stroke-width="1"/>
    <path id="ID0.958071306347847" fill="#FFFFFF" stroke="#000000" d="M 46.64 23.32 C 46.64 26.98 43.51 29.95 39.65 29.95 C 35.79 29.95 33.78 26.98 33.78 23.32 C 33.78 19.66 35.79 16.69 39.65 16.69 C 43.51 16.69 46.64 19.66 46.64 23.32 Z " stroke-width="1"/>
    <path id="ID0.4390447731129825" d="M 37.65 22.26 C 37.959 22.26 38.239 22.379 38.442 22.571 C 38.644 22.763 38.77 23.028 38.77 23.32 C 38.77 23.612 38.644 23.877 38.442 24.069 C 38.239 24.261 37.959 24.38 37.65 24.38 C 37.341 24.38 37.061 24.261 36.858 24.069 C 36.656 23.877 36.53 23.612 36.53 23.32 C 36.53 23.028 36.656 22.763 36.858 22.571 C 37.061 22.379 37.341 22.26 37.65 22.26 Z " stroke-width="1" />
    <path id="ID0.2893283097073436" fill="#FFFFFF" stroke="#000000" d="M 33.22 23.32 C 33.22 26.98 31.21 29.95 27.35 29.95 C 23.49 29.95 20.36 26.98 20.36 23.32 C 20.36 19.66 23.49 16.69 27.35 16.69 C 31.21 16.69 33.22 19.66 33.22 23.32 Z " stroke-width="1"/>
    <path id="ID0.5868167318403721" d="M 29.35 22.26 C 29.659 22.26 29.939 22.379 30.142 22.571 C 30.344 22.763 30.47 23.028 30.47 23.32 C 30.47 23.612 30.344 23.877 30.142 24.069 C 29.939 24.261 29.659 24.38 29.35 24.38 C 29.041 24.38 28.761 24.261 28.558 24.069 C 28.356 23.877 28.23 23.612 28.23 23.32 C 28.23 23.028 28.356 22.763 28.558 22.571 C 28.761 22.379 29.041 22.26 29.35 22.26 Z " stroke-width="1" />
    <path id="ID0.5216660583391786" fill="none" stroke="#000000" d="M 27.5 31.91 C 27.88 30.95 37.9 34.87 37.52 35.83 " stroke-width="1"/>
  </g>
</svg>