<svg version="1.1" width="37" height="39" viewBox="-1 -1 37 39" xmlns="http://www.w3.org/2000/svg" xmlns:xlink="http://www.w3.org/1999/xlink">
  <!-- Exported by Scratch - http://scratch.mit.edu/ -->
  <path id="ID0.9696031636558473" fill="#6A3C00" stroke="none" stroke-linecap="round" d="M 353 283 C 357.946 283.141 359.973 291.099 363.050 295.500 C 365.642 299.440 367.927 303.680 369.966 307.966 C 370.476 309.038 371.855 308.673 369.200 308.650 C 358.580 308.557 347.987 308.260 337.450 307.700 C 334.768 307.559 335.704 307.944 336.200 306.900 C 338.185 302.725 340.677 298.812 343.350 295 C 346.289 290.799 348.211 282.864 353 283 Z " transform="matrix(1, 0, 0, 1, -335, -271)"/>
  <path id="ID0.37330280570313334" fill="#6A3C00" stroke="none" stroke-linecap="round" d="M 373.450 304.100 L 380.450 285 L 386.750 304.100 L 373.450 304.100 Z " transform="matrix(1, 0, 0, 1, -362, -285)"/>
</svg>