<svg xmlns="http://www.w3.org/2000/svg" xmlns:xlink="http://www.w3.org/1999/xlink" version="1.1" width="151.62999267578124" height="158.8699981689453" viewBox="-0.3299999892711639 0.8600000381469727 151.62999267578124 158.8699981689453">
  <!-- Exported by Scratch - http://scratch.mit.edu/ -->
  <g id="ID0.25356014212593436">
    <path id="ID0.5511079430580139" fill="#FAA51D" stroke="#000000" stroke-width="1.2" d="M 79.940 122.360 C 76.390 122.360 73.490 119.510 73.440 115.950 C 73.390 112.360 76.260 109.410 79.850 109.360 L 89.610 109.230 L 100.690 89.960 C 102.480 86.850 106.450 85.780 109.570 87.570 C 112.680 89.360 113.750 93.330 111.960 96.450 L 99.030 118.930 C 97.890 120.920 95.780 122.160 93.480 122.190 L 80.020 122.370 C 80 122.360 79.970 122.360 79.940 122.360 L 79.940 122.360 Z "/>
    <path id="ID0.16231557866558433" fill="#FAA51D" stroke="#000000" stroke-width="1.2" d="M 100.610 158.020 C 98.530 158.020 96.510 157.150 95.080 155.590 L 82.860 142.260 L 76.900 146.860 C 73.620 149.390 68.910 148.780 66.380 145.500 C 63.850 142.220 64.460 137.510 67.740 134.980 L 79.160 126.180 C 82.240 123.800 86.640 124.180 89.270 127.050 L 98.790 137.440 L 100.800 133.620 C 102.730 129.950 107.260 128.540 110.930 130.470 C 114.600 132.400 116.010 136.930 114.080 140.600 L 110.730 146.980 L 107.350 153.840 C 106.260 156.060 104.140 157.600 101.680 157.950 C 101.320 157.990 100.970 158.020 100.610 158.020 L 100.610 158.020 Z "/>
    <path id="ID0.7152078151702881_1_" fill="#FAA51D" stroke="#000000" d="M 36.680 132.130 C 33.770 128.670 30.660 124.090 29.740 118.130 C 27.700 104.800 34.650 91.250 26.730 89.730 C 18.810 88.210 3.680 106.910 16.260 126.770 C 20.590 133.620 26.010 138.070 30.510 141.560 C 31.690 142.470 42.250 149.610 49.600 147.500 C 56.950 145.380 55.600 142.260 55.000 140.640 C 54.400 139.020 40.790 137.010 36.680 132.130 L 36.680 132.130 Z " stroke-width="1"/>
    <path id="ID0.4691764716990292_1_" fill="#FFFFFF" d="M 27.230 90.750 C 23.690 89.310 17.030 94.280 14.400 100.400 C 11.760 106.530 12.300 110.620 12.450 114.010 C 13.420 117.270 14.220 109.750 19.220 109.690 C 24.200 109.630 28.440 115.070 28.440 115.070 C 28.440 115.070 28.940 106.010 29.390 100.640 C 29.830 95.520 30.830 92.500 27.230 90.750 L 27.230 90.750 Z " stroke-width="1"/>
    <path id="ID0.26425604708492756_1_" fill="#FAA51D" stroke="#231F20" stroke-width="1.2" d="M 80.630 144.660 C 82.110 142.340 83.260 139 84.490 134.030 C 85.520 129.890 85.650 122.690 85.650 122.690 C 85.570 117.780 84.850 110.110 77.770 111.280 C 74.900 111.750 70.660 106.680 64.030 107.770 C 57.390 108.850 50.700 114.690 48.990 124.620 C 47.290 134.550 37.620 144.950 57.590 153.910 L 80.630 144.660 Z "/>
    <path id="ID0.203311821911484_1_" fill="#FFFFFF" d="M 84.270 130.460 C 84.270 130.460 86.860 124.310 76.660 122.830 C 66.450 121.350 64.190 127.340 62.520 130.960 C 59.620 137.210 73.060 144.320 73.060 144.320 L 80.140 143.760 C 80.140 143.760 82.100 139.820 82.580 137.040 C 83.320 134.380 84.270 130.460 84.270 130.460 " stroke-width="1"/>
    <path id="ID0.4675603983923793_1_" fill="#FAA51D" stroke="#231F20" stroke-width="1.2" d="M 80.750 20.460 C 77.940 19.990 72.080 19.250 68.830 19.170 C 60.130 18.950 51.650 21.480 51.650 21.480 L 34.840 2.790 L 30.490 39.140 C 31.780 37.790 9.430 61.220 20.880 83.100 C 31.200 102.810 63.270 115.880 94.350 112.020 C 129.250 107.680 138.890 88.460 137.370 77.810 C 135.850 67.160 123.150 62.350 123.150 62.350 C 123.150 62.350 123.580 54.120 118.370 43.620 C 115.270 37.370 104.130 27.760 104.130 27.760 L 96.130 1.460 L 85.810 18.420 L 80.750 20.460 L 80.750 20.460 Z "/>
    <path id="ID0.876089540310204_1_" fill="#FFFFFF" d="M 121.460 61.970 L 117.180 57.850 L 100.110 61.520 C 100.110 61.520 99.660 67.790 91.520 68.950 C 83.380 70.110 71.260 63.280 71.260 63.280 L 56.530 68.510 C 56.530 68.510 40.930 69.090 39.690 78.500 C 36.930 99.420 62.070 110.040 71.790 111.310 C 77.100 112.010 86.940 111.790 94.460 110.850 C 127.450 107.280 137.670 88.330 136.160 77.680 C 134.640 67.040 122.490 63.420 122.490 63.420 L 121.460 61.970 L 121.460 61.970 Z " stroke-width="1"/>
    <path id="ID0.44282719027251005_1_" fill="none" stroke="#231F20" stroke-width="1.2" d="M 0.270 71.490 C 0.270 71.490 6.880 74.780 10.320 74.840 C 13.760 74.890 20.470 74.490 20.470 74.490 "/>
    <path id="ID0.893105489667505_1_" fill="none" stroke="#231F20" stroke-width="1.2" d="M 130.310 72.940 C 130.310 72.940 138.750 72.180 143.090 71.010 C 148.200 69.640 150.700 66.010 150.700 66.010 "/>
    <path id="ID0.03574043000116944_1_" fill="none" stroke="#231F20" stroke-width="1.2" d="M 21.350 67.310 C 21.350 67.310 18.210 63.670 11.580 60.140 C 5.790 55.980 2.950 51.880 2.950 51.880 "/>
    <path id="ID0.6674723788164556_1_" fill="none" stroke="#231F20" stroke-width="1.2" d="M 130.370 83.920 C 130.370 83.920 135.220 86.310 140.330 87.200 C 145.380 88.080 147.720 86.090 147.720 86.090 "/>
    <path id="ID0.12165586883202195_1_" fill="none" stroke="#000000" stroke-linecap="round" d="M 80.090 20.510 C 85.210 22.170 87.020 23.720 87.020 23.720 " stroke-width="1"/>
    <path id="ID0.178104005753994_1_" fill="none" stroke="#000000" d="M 46.310 17.080 L 56.840 25.880 " stroke-width="1"/>
    <path id="ID0.7735752793960273_1_" fill="#FFFFFF" stroke="#231F20" d="M 114.350 43.560 C 119.110 52.160 118.640 61.560 113.270 64.530 C 107.900 67.500 99.690 62.930 94.920 54.320 C 90.140 45.710 90.630 36.330 95.990 33.350 C 101.360 30.390 109.580 34.950 114.350 43.560 L 114.350 43.560 Z " stroke-width="1"/>
    <path id="ID0.19106501014903188_1_" fill="#231F20" d="M 112.210 59.580 C 112.060 61.560 110.480 63.060 108.650 62.930 C 106.830 62.800 105.460 61.080 105.610 59.100 C 105.750 57.120 107.350 55.620 109.180 55.750 C 111 55.890 112.350 57.600 112.210 59.580 " stroke-width="1"/>
    <path id="ID0.06283409334719181_1_" fill="#FFFFFF" stroke="#231F20" d="M 69.940 46.340 C 74.710 54.950 73.430 64.780 67.090 68.290 C 60.750 71.810 51.740 67.680 46.970 59.070 C 42.200 50.460 43.470 40.640 49.810 37.120 C 56.160 33.600 65.170 37.730 69.940 46.340 L 69.940 46.340 Z " stroke-width="1"/>
    <path id="ID0.716460831463337_1_" fill="#231F20" d="M 66.320 63.890 C 66.180 65.870 64.590 67.370 62.750 67.240 C 60.930 67.110 59.560 65.390 59.710 63.410 C 59.850 61.430 61.460 59.930 63.280 60.060 C 65.100 60.190 66.460 61.910 66.320 63.890 " stroke-width="1"/>
    <path id="ID0.5430324394255877_1_" fill="#5E4A42" stroke="#000000" d="M 90.530 64.990 C 93.930 65.240 98.920 65.080 99.070 66.660 C 99.220 68.250 95.380 74.140 93.010 74.230 C 90.640 74.320 82.090 69.100 82.170 66.220 C 82.240 63.340 87.390 64.760 90.530 64.990 L 90.530 64.990 Z " stroke-width="1"/>
    <path id="ID0.5547774969600141_1_" fill="none" stroke="#231F20" stroke-width="1.2" d="M 65.730 76.670 C 65.730 76.670 84.300 83.650 91.290 85.710 C 98.270 87.770 110.970 90.250 110.970 90.250 C 110.970 90.250 94.950 107.970 78.170 101.960 C 61.380 95.950 62.480 85.170 65.730 76.670 L 65.730 76.670 Z "/>
    <path id="ID0.805032136850059" fill="#FAA51D" stroke="#000000" stroke-width="1.2" d="M 54.150 123.040 C 53.450 123.040 52.740 122.930 52.040 122.690 L 38.580 118.080 C 37.140 117.590 35.920 116.610 35.130 115.310 L 25.210 99 C 23.340 95.930 24.310 91.930 27.380 90.070 C 30.440 88.200 34.440 89.170 36.310 92.240 L 45.020 106.540 L 56.260 110.390 C 59.660 111.550 61.470 115.250 60.300 118.640 C 59.370 121.340 56.850 123.040 54.150 123.040 L 54.150 123.040 Z "/>
    <path id="ID0.7249246831052005" fill="#FAA51D" stroke="#000000" stroke-width="1.2" d="M 85.570 159.130 C 83.830 159.130 82.120 158.520 80.760 157.380 L 69.030 147.580 L 66.750 150.710 C 64.310 154.060 59.620 154.790 56.270 152.350 C 52.920 149.910 52.190 145.220 54.630 141.870 L 61.630 132.260 C 62.850 130.580 64.710 129.490 66.780 129.230 C 68.850 128.980 70.910 129.590 72.510 130.920 L 82.940 139.640 L 84.970 135.340 C 86.740 131.590 91.210 129.990 94.950 131.760 C 98.700 133.530 100.300 138.000 98.530 141.740 L 92.350 154.830 C 91.360 156.930 89.450 158.450 87.180 158.950 C 86.650 159.070 86.110 159.130 85.570 159.130 L 85.570 159.130 Z "/>
    <path id="ID0.42075247690081596" fill="#FAA51D" d="M 67.010 151.080 C 65.560 154.260 60.390 155.010 55.460 152.750 C 50.530 150.500 47.710 146.100 49.160 142.930 C 50.610 139.750 54.940 137.460 59.870 139.710 C 68.260 143.540 69.610 145.380 67.010 151.080 Z " stroke-width="1"/>
  </g>
</svg>