<svg version="1.1" width="424" height="340" viewBox="-1 5 424 340" xmlns="http://www.w3.org/2000/svg" xmlns:xlink="http://www.w3.org/1999/xlink">
  <!-- Exported by Scratch - http://scratch.mit.edu/ -->
  <path id="ID0.7193447235040367" fill="none" stroke="#000000" stroke-width="10" stroke-linecap="round" d="M 307 142 L 301 0 " transform="matrix(0.92313551902771, -0.38447466492652893, 0.7387126088142395, 1.7736717462539673, -269.4, 141.35)"/>
  <path id="ID0.7193447235040367" fill="none" stroke="#000000" stroke-width="10" stroke-linecap="round" d="M 307 142 L 301 0 " transform="matrix(0.8468127846717834, -0.5318911075592041, 1.0219520330429077, 1.6270285844802856, 8.55, 174.5)"/>
  <g id="ID0.6781720658764243" transform="matrix(0.9925110340118408, -0.12215520441532135, 0.12215520441532135, 0.9925110340118408, 75, -3.25)">
    <path id="ID0.6230223970487714" fill="none" stroke="#FFFF00" stroke-width="10" stroke-linecap="round" d="M 317 196 L 362 149 " transform="matrix(1, 0, 0, 1, -51.5, 140.5)"/>
    <path id="ID0.609744478482753" fill="none" stroke="#FFFF00" stroke-width="10" stroke-linecap="round" d="M 259 191 L 293 150 " transform="matrix(1, 0, 0, 1, -51.5, 140.5)"/>
    <path id="ID0.45952338073402643" fill="none" stroke="#FF9400" stroke-width="10" stroke-linecap="round" d="M 310 147 L 266 196 " transform="matrix(1, 0, 0, 1, -51.5, 140.5)"/>
    <path id="ID0.05529486993327737" fill="none" stroke="#FF9400" stroke-width="10" stroke-linecap="round" d="M 197 146 L 154 191 " transform="matrix(1, 0, 0, 1, -51.5, 140.5)"/>
    <path id="ID0.8590407934971154" fill="none" stroke="#FF9400" stroke-width="10" stroke-linecap="round" d="M 139 147 L 90 198 " transform="matrix(1, 0, 0, 1, -51.5, 140.5)"/>
    <path id="ID0.022650402504950762" fill="none" stroke="#FFFF00" stroke-width="10" stroke-linecap="round" d="M 78 194 L 128 147 " transform="matrix(1, 0, 0, 1, -51.5, 140.5)"/>
    <path id="ID0.18434873363003135" fill="none" stroke="#FFFF00" stroke-width="10" stroke-linecap="round" d="M 144 195 L 188 145 " transform="matrix(1, 0, 0, 1, -51.5, 140.5)"/>
    <path id="ID0.6866439837031066" fill="none" stroke="#FF9400" stroke-width="10" stroke-linecap="round" d="M 252 153 L 214 192 " transform="matrix(1, 0, 0, 1, -51.5, 140.5)"/>
    <path id="ID0.6044852444902062" fill="none" stroke="#FFFF00" stroke-width="10" stroke-linecap="round" d="M 198 195 L 242 150 " transform="matrix(1, 0, 0, 1, -45.5, 137.5)"/>
    <path id="ID0.5657335696741939" fill="none" stroke="#FFFF00" stroke-width="10" stroke-linecap="round" d="M 57 144 L 59 198 L 365 199 L 365 144 L 57 144 Z " transform="matrix(1, 0, 0, 1, -51.5, 140.5)"/>
  </g>
</svg>