<svg version="1.1" xmlns="http://www.w3.org/2000/svg" xmlns:xlink="http://www.w3.org/1999/xlink" width="473.71707" height="349.50842" viewBox="0,0,473.71707,349.50842"><defs><linearGradient x1="223.07041" y1="72.70242" x2="222.659" y2="349.21017" gradientUnits="userSpaceOnUse" id="color-1"><stop offset="0" stop-color="#000000"/><stop offset="1" stop-color="#000000" stop-opacity="0"/></linearGradient><linearGradient x1="-15.58895" y1="168.26003" x2="458.12812" y2="168.26003" gradientUnits="userSpaceOnUse" id="color-2"><stop offset="0" stop-color="#ffffff"/><stop offset="1" stop-color="#ced0ce"/></linearGradient><linearGradient x1="216.30507" y1="0.55206" x2="216.30507" y2="67.629" gradientUnits="userSpaceOnUse" id="color-3"><stop offset="0" stop-color="#0c556e"/><stop offset="1" stop-color="#002734"/></linearGradient></defs><g transform="translate(15.58895,0.37319)"><g data-paper-data="{&quot;isPaintingLayer&quot;:true}" fill-rule="nonzero" stroke-linejoin="miter" stroke-miterlimit="10" stroke-dasharray="" stroke-dashoffset="0" style="mix-blend-mode: normal"><path d="M449.91906,209.79146c-0.06812,45.77865 11.22749,105.05097 -45.76383,129.57244c-36.24522,15.59512 -129.0201,5.93047 -176.75004,5.90243c-40.37933,-0.02372 -164.19472,9.77388 -196.8146,-1.72343c-66.56591,-23.46202 -25.37053,-83.75039 -25.29574,-134.01274c0.06286,-42.25172 -7.40896,-96.43165 42.28837,-121.27224c38.39317,-19.19036 126.71352,-14.23407 180.2255,-14.20263c57.54417,0.03381 154.82957,-7.70622 194.27472,14.19871c44.71731,24.83272 27.89484,81.74527 27.83562,121.53744z" fill="url(#color-1)" stroke="none" stroke-width="0" stroke-linecap="butt"/><path d="M407.91361,324.38383c-38.37094,19.62758 -136.66522,7.54911 -187.22687,7.54911c-42.77501,0 -173.92057,12.40562 -208.49381,-2.02079c-30.20152,-12.60223 -27.00766,-132.28652 -27.00766,-168.41669c0,-25.00175 -8.73032,-116.30487 32.44222,-145.54898c19.13453,-13.59091 98.7083,-9.86117 172.57547,-12.95742c47.73685,-2.00096 100.43433,-2.82729 141.08021,-3.24393c48.57821,-0.49795 81.87165,0.23255 95.22656,9.01527c47.40937,31.17828 41.73779,284.76141 -18.59612,315.62352z" fill="url(#color-2)" stroke="none" stroke-width="2" stroke-linecap="butt"/><path d="M395.74787,65.21456c-35.81507,3.78831 -127.562,1.45705 -174.75576,1.45705c-39.92578,0 -162.33579,2.3944 -194.60612,-0.39003c-28.18981,-2.43235 -25.20869,-25.53254 -25.20869,-32.50599c0,-10.24967 -7.4676,-23.39191 41.63493,-29.42497c37.93369,-4.66078 125.26906,-3.47104 178.17998,-3.47104c56.89782,0 153.07886,-1.89151 192.1131,3.41672c44.25145,6.0177 38.95765,54.9616 -17.35744,60.91828z" fill="url(#color-3)" stroke="none" stroke-width="2" stroke-linecap="butt"/><path d="" fill="#000000" stroke="none" stroke-width="0" stroke-linecap="butt"/><path d="" fill="#929292" stroke="none" stroke-width="0" stroke-linecap="butt"/><path d="" fill="#ffffff" stroke="none" stroke-width="0" stroke-linecap="butt"/><path d="M401.66208,169.12851l-372.77252,-2.7182" fill="none" stroke="#000000" stroke-width="0.5" stroke-linecap="round"/><path d="M21.76733,200.38827l373.526,1.71889" fill="none" stroke="#000000" stroke-width="0.5" stroke-linecap="round"/><path d="M24.01935,232.2632l354.19305,0.24428" fill="none" stroke="#000000" stroke-width="0.5" stroke-linecap="round"/><path d="M7.6088,259.19208l359.79985,3.13774" fill="none" stroke="#000000" stroke-width="0.5" stroke-linecap="round"/><path d="M27.00658,139.30483l357.35736,3.00301" fill="none" stroke="#000000" stroke-width="0.5" stroke-linecap="round"/><path d="M42.02159,100.26579l313.81381,-3.003" fill="none" stroke="#000000" stroke-width="0.5" stroke-linecap="round"/><path d="M356.83391,80.74626c0,2.5 -2.5,2.5 -2.5,2.5l-2.61954,-0.26393c-1.4848,-0.78754 -3.20787,-1.28384 -4.88797,-1.23757c-4.83984,0 -9.67968,0 -14.51952,0c-2.80118,0 -5.65353,0.50108 -8.40346,-0.03228c-3.63079,-0.70421 -4.35798,-2.32581 -7.96727,-1.55287c-4.36981,0.9358 -4.43594,7.23738 -8.77318,8.93375c-3.79971,1.48613 -7.35647,-1.36039 -9.96958,-3.41074c-1.17832,-0.92456 -2.15124,-2.08556 -3.1858,-3.16859c-0.75882,-0.79437 -1.4104,-1.68905 -2.19194,-2.46108c-0.15386,-0.15198 -0.50544,-0.48288 -0.58452,-0.28159c-0.42595,1.08425 -0.28294,2.32872 -0.65358,3.4331c-0.31401,0.93569 -1.14263,1.6622 -1.37808,2.62068c-0.45616,1.85699 0.64769,4.30777 -0.66536,5.69789c-1.23289,1.30525 -3.56344,0.44358 -5.34515,0.66536c-0.49825,-0.23862 -6.34269,-3.00168 -6.87566,-3.39535c-2.24654,-1.65939 -5.01286,-6.49044 -8.49209,-5.61366c-3.7702,0.95011 -3.57957,6.70007 -6.90224,8.78007c-1.3456,0.84234 -3.20544,0.56477 -4.75703,0.22894c-4.14604,-0.89739 -5.94589,-4.41214 -7.3508,-7.97245c-0.04692,0.47737 -0.08533,0.84837 -0.08533,1.03482c0,1.001 0,2.002 0,3.00301c0,0 0,2.5 -2.5,2.5c-0.2579,0 -0.4892,-0.02661 -0.69664,-0.07433l-2.30636,1.57583c-7.45213,0 -14.67428,-0.26414 -20.9813,-4.9764c-2.26811,-1.69461 -3.79271,-4.2404 -6.006,-6.00601c-0.62092,-0.49533 -1.44495,-0.67091 -2.11561,-1.09649c-0.26394,-0.16748 -0.6997,-0.97552 -0.66085,-0.66535c0.25602,2.04402 1.42458,4.21186 0.69996,6.14019c-0.04713,0.12544 -0.09694,0.24954 -0.14918,0.37239l0.05317,0.01772l-1.48328,4.44982c-0.31418,1.02156 -1.26533,1.76412 -2.38993,1.76412c-1.32996,0 -2.41736,-1.03852 -2.49551,-2.34884l-0.1964,-2.86446c-0.4761,-0.87862 -0.81485,-1.85814 -1.49074,-2.59002c-1.12251,-1.2155 -2.36575,2.41878 -3.86965,3.10851c-0.40624,0.18631 -6.92096,0.27028 -7.5371,0.12343c-1.08866,-0.25947 -1.9173,-1.22992 -3.003,-1.50151c-0.95817,-0.23968 -1.99928,0.22509 -2.96305,0.00909c-2.66202,-0.59663 -4.88657,-2.45785 -7.45569,-3.37542c-2.76215,-0.98652 -5.8089,-0.84598 -8.7326,-1.07981c-2.9969,-0.23969 -5.89168,-1.35096 -8.89472,-1.49467c-2.9817,-0.14269 -5.39405,0.75205 -8.22585,1.50816c-1.20359,0.81046 -2.45852,1.54946 -3.61077,2.43139c-1.45098,1.11057 -2.4055,3.13352 -4.18752,3.53737c-1.48314,0.33611 -2.81608,-1.15751 -4.26414,-1.62204c-1.42305,-0.45651 -3.05383,-0.37074 -4.33684,-1.13715c-1.35027,-0.80658 -1.8442,-2.73381 -3.26671,-3.40484c-1.07111,-0.50526 -2.36399,0.15591 -3.54779,0.1903c-1.00058,0.02907 -2.01403,0.15474 -3.003,0c-0.48111,-0.07528 -1.07081,-1.10414 -1.29677,-0.67277c-0.36588,0.69848 0.78477,1.62136 0.4308,2.32595c-1.09487,2.17936 -2.20753,4.9337 -4.49837,5.77058c-5.90107,2.15577 -6.17883,-5.33479 -7.962,-7.79713c-0.69294,-0.95686 -2.0064,1.3564 -2.66358,2.33816c-2.04065,3.04855 -3.55044,10.21429 -7.39244,11.46498c-5.39109,1.75498 -5.40058,-4.32202 -8.3264,-5.92854c-1.00432,0.37814 -2.12894,0.526 -3.01295,1.13441c-1.11842,0.76973 -1.76384,2.09733 -2.85556,2.90448c-0.752,0.55599 -2.02007,0.35947 -2.57614,1.11141c-0.79233,1.0714 -0.5807,2.61481 -1.09008,3.84616c-1.2562,3.0367 -3.54184,5.57884 -4.77722,8.62408c-1.4373,3.543 -1.43136,11.24851 -5.21751,13.5439c-4.05652,2.45932 -11.10247,-2.0629 -12.63304,-5.67442c-1.12208,-2.64764 0.41613,-6.60568 -0.12342,-9.39133c-0.38924,-2.00962 -2.01898,-3.57271 -2.80595,-5.46235c-0.26617,-0.63911 -0.01648,-1.59189 -0.57976,-1.99441c-0.46903,-0.33518 -1.12578,0.24891 -1.68867,0.37337c0,0 -2.5,0 -2.5,-2.5c0,-2.5 2.5,-2.5 2.5,-2.5c1.43911,0.12446 3.10651,-0.4143 4.31733,0.37337c1.30952,0.85188 1.66044,2.64826 2.42324,4.0116c0.26228,0.46876 3.15613,6.33505 3.20006,6.54966c0.57666,2.81745 -1.09412,5.9196 -0.12342,8.62668c0.41021,1.14402 3.22227,2.57269 4.27069,3.02809c0.35333,0.15348 0.83389,0.57065 1.11429,0.30649c0.46139,-0.43467 0.31552,-1.22853 0.50614,-1.83308c0.97472,-3.09132 1.4864,-6.337 2.70771,-9.33946c1.24871,-3.06981 3.47478,-5.66809 4.80944,-8.70151c0.73911,-1.67987 0.80487,-3.69981 1.91292,-5.16284c0.78827,-1.04081 2.38977,-1.10238 3.42987,-1.89161c1.17395,-0.89078 1.85561,-2.39793 3.15045,-3.10152c1.83946,-0.99954 3.99737,-1.24572 5.99605,-1.86858c1.53118,0.74248 3.30215,1.11925 4.59355,2.22745c0.84931,0.72883 0.96721,2.01962 1.5015,3.003c0.16537,0.30438 0.3679,1.11584 0.59356,0.85302c3.39696,-3.95628 2.86501,-11.11997 8.69397,-13.40696c5.21609,-2.04653 5.80255,0.70562 7.69728,4.19467c0.40883,0.75285 0.64557,1.58928 1.0332,2.35327c0.15673,0.30892 0.35267,1.10195 0.59356,0.85302c1.66554,-1.72101 0.15862,-5.31595 1.93844,-6.91849c1.1784,-1.06102 3.12955,-0.53496 4.70924,-0.67277c1.29867,-0.11329 8.41854,0.17129 8.46421,0.1903c1.62592,0.67674 2.29602,2.75712 3.80437,3.66623c1.05486,0.63578 2.46669,0.33564 3.60711,0.8008c0.68608,0.27984 1.03324,1.59744 1.74187,1.38096c0.97744,-0.2986 1.04183,-1.80428 1.81849,-2.46864c1.4304,-1.22357 3.13982,-2.07708 4.70973,-3.11561c3.93381,-1.08947 6.3691,-2.11329 10.48067,-1.95385c3.47574,0.13478 5.76665,1.24528 9.12329,1.50833c3.3458,0.2622 6.80674,0.24681 9.97783,1.34555c2.38723,0.82713 4.39059,2.70738 6.86691,3.20823c0.99419,0.20108 2.05889,-0.23678 3.04296,0.00908c1.08578,0.27128 1.92095,1.21571 3.003,1.5015c0.78299,0.20681 1.61908,-0.08921 2.42862,-0.06688c0.68478,0.01888 1.44784,0.52367 2.0463,0.1903c3.0339,-1.69003 3.01682,-6.08782 8.14236,-2.89749c0.30399,0.18922 0.57771,0.41067 0.82828,0.65675c0.11194,-1.59774 -0.45892,-3.66242 0.72881,-4.72484c1.33822,-1.19702 3.56568,-0.9045 5.34515,-0.66535c4.5565,0.61235 6.62648,5.44849 9.89641,7.91253c5.44173,4.10061 11.6557,4.03261 18.05774,4.03261l-0.26627,-0.76927c0,0 0.27197,-0.27197 0.70924,-0.49588c-0.09699,-2.25938 -0.248,-4.63251 0.06003,-6.74536c0.25318,-1.7366 -0.42963,-4.44356 1.18567,-5.12963c1.99953,-0.84928 4.57738,0.55239 6.20597,1.99013c3.17347,2.80156 1.50781,9.5853 6.19326,11.21689c2.26803,0.78978 1.60115,-0.38715 3.04844,-2.99665c2.02435,-3.64994 1.74487,-4.87406 6.31331,-6.01236c5.81662,-1.44931 8.59406,3.43395 12.52893,6.39835c1.53398,1.15565 3.43966,1.71072 5.13635,2.61065c0.22028,0.22178 0.66138,0.97795 0.66085,0.66536c-0.00191,-1.12577 -0.82504,-2.19674 -0.66535,-3.31112c0.17755,-1.23905 1.11746,-2.24111 1.62493,-3.38533c1.90298,-4.29077 1.36625,-8.12055 7.77091,-5.85749c0.93059,0.32882 5.55628,5.4823 6.63427,6.38235c1.45177,1.21212 3.38942,3.50878 5.04543,2.59527c4.18917,-2.31088 3.6927,-7.68221 9.24484,-9.08428c5.36814,-1.35559 5.29962,0.46795 10.05075,1.45014c2.48173,0.51304 5.06834,-0.03228 7.60254,-0.03228c4.83984,0 9.67968,0 14.51952,0c2.44608,0.04573 4.91753,0.70869 7.12404,1.76543l0.38347,-0.26394c0,0 2.5,0 2.5,2.5z" fill="#313131" stroke="none" stroke-width="0.5" stroke-linecap="butt"/><path d="M81.10191,131.33163c1.96719,1.54278 0.42441,3.50997 0.42441,3.50997l-3.28601,3.67802c-15.58796,-0.9345 -31.1136,-4.22231 -46.72923,-4.22231c0,0 -2.5,0 -2.5,-2.5c0,-2.5 2.5,-2.5 2.5,-2.5c8.77928,0 17.43883,1.25494 26.15976,2.22393c6.22572,0.69174 12.48506,1.18046 18.63372,2.38829l1.28737,-2.15349c0,0 1.54278,-1.9672 3.50997,-0.42442z" fill="#313131" stroke="none" stroke-width="0.5" stroke-linecap="butt"/><path d="M424.40147,100.26579c0,2.5 -2.5,2.5 -2.5,2.5l-0.38347,-0.26393c-3.77389,1.87699 -6.77394,4.5342 -10.38223,6.68512c-3.13443,1.86845 -5.42353,2.14912 -8.02173,4.78414c-2.46593,2.50087 -3.96839,6.04557 -6.92527,7.94081c-1.95025,1.25002 -4.49316,1.46127 -6.32483,2.87938c-1.48658,1.09109 -2.82338,2.42316 -4.45974,3.2733c-2.33556,1.21339 -5.34508,0.53316 -7.71591,1.67613c-1.49026,0.71845 -2.40099,2.3585 -3.88635,3.08703c-1.57244,0.77124 -3.43225,0.74096 -5.08716,1.31427c-1.1526,0.39929 -2.09937,1.35318 -3.29599,1.58991c-2.19113,0.43347 -9.94234,0.65272 -12.23506,-0.29609c-1.93543,-0.80094 -3.72605,-2.02611 -5.22853,-3.48553c-0.8657,-0.84089 -0.94594,-2.24649 -1.66808,-3.21347c-0.89734,-1.20159 -2.27478,-1.9975 -3.13884,-3.22324c-0.69578,-0.98703 -0.49465,-2.59736 -1.46807,-3.31206c-0.48748,-0.35792 -0.71912,1.01969 -1.2433,1.32132c-1.29529,0.74533 -2.62989,1.86438 -4.12104,1.76543c-6.89139,-0.4573 -5.94608,-6.3175 -6.93762,-10.93463c-0.05158,-0.24016 -0.11665,-0.47816 -0.18935,-0.71488c-1.43689,1.35837 -2.87377,2.71675 -4.31065,4.07513c-2.94912,-0.79397 -5.70384,-2.22144 -8.65627,-3.00301c-1.21014,-0.32035 -2.69177,0.37328 -3.74295,-0.30649c-1.10533,-0.71479 -1.06172,-2.48099 -1.99811,-3.40611c-0.84334,-0.83319 -2.20668,-0.93912 -3.13998,-1.67012c-3.90877,-3.06148 -7.18683,-9.25613 -12.88987,-9.5717c-0.66782,-0.03696 -1.18751,0.62914 -1.71845,1.03589c-0.76578,0.58666 -1.72787,1.06668 -2.15508,1.93161c-1.38707,2.80827 4.80183,3.9034 -0.99537,7.17592c-1.62869,0.91939 -3.67122,-0.77103 -5.43536,-1.39206c-3.97812,-1.4004 -5.8662,-4.6854 -9.29024,-6.91578c-1.31651,-0.85756 -2.82272,-1.38113 -4.22327,-2.09322c-0.82718,-0.42057 -1.61337,-0.92309 -2.45935,-1.30445c-0.35119,-0.15831 -0.8339,-0.57065 -1.11429,-0.30649c-0.46139,0.43467 -0.33742,1.22205 -0.50613,1.83308c-0.44783,1.31609 -1.06027,2.58722 -1.34348,3.94825c-0.40157,1.92979 0.61329,4.40187 -0.69995,5.87181c-2.13788,2.39299 -8.40972,-0.24294 -10.23199,-0.95957c-1.9599,-0.77076 -3.56261,-2.44682 -5.62368,-2.87958c-1.12065,-0.2353 -2.28956,0.05934 -3.43463,0.06688c-5.8373,0.03847 -12.07234,0.86652 -17.6302,2.84176c-4.68237,1.66409 -9.30839,5.79721 -12.36872,9.63353c-3.05361,3.82789 1.51477,8.04676 -6.53261,8.54573c-5.17781,0.32104 -7.82236,-6.58062 -9.53561,-10.04723c-4.25281,-4.16496 -8.52245,-8.2822 -12.88054,-12.33834c-1.22002,-1.13549 -2.46194,-2.24788 -3.66005,-3.40646c-0.97971,-0.94738 -1.60795,-2.40045 -2.87196,-2.91001c-0.0496,-0.01999 -6.22865,0.20695 -6.83431,0.46457c-6.25142,2.65916 -5.86001,9.53851 -8.45437,14.68216c-0.80339,1.59283 -1.2981,3.95384 -3.02063,4.41801c-5.42864,1.46284 -5.45016,-2.88424 -7.32318,-5.41444c-0.95311,-1.28752 -2.59003,-2.06456 -3.28459,-3.50807c-0.32634,-0.67822 0.6869,-1.45339 0.54193,-2.19195c-0.06994,-0.35634 -0.4951,0.57155 -0.83478,0.69996c-1.00959,0.38165 -2.42238,-0.00714 -3.1372,0.80155c-0.92068,1.04159 -0.50442,2.77125 -1.12184,4.0168c-0.42336,0.85407 -1.27994,1.41298 -1.91991,2.11947c-1.70765,2.48624 -3.82376,7.31104 -8.13548,6.5757c-1.86392,-0.31788 -5.37158,-5.1713 -7.06733,-6.44562c-2.12102,-1.59391 -4.72075,-2.42523 -7.03947,-3.71473c-5.05971,-2.81382 -10.682,-4.92686 -16.49447,-4.62842c-3.98582,0.20466 -9.26985,0.07192 -12.19608,3.52362c-1.98078,2.33648 -2.85771,5.42773 -4.04205,8.25262c-1.73363,4.13509 -2.11681,8.58838 -2.84672,12.96781c0,0 -0.41099,2.46598 -2.87698,2.05498c-2.46599,-0.411 -2.05499,-2.87698 -2.05499,-2.87698c1.13342,-6.80052 2.31173,-12.48672 5.46899,-18.69269c0.85161,-1.67394 1.33754,-3.6052 2.59252,-5.00246c4.45766,-4.96299 13.9686,-6.33534 20.27107,-5.39751c1.68544,0.2508 3.22517,1.10551 4.8624,1.57783c5.80513,1.67467 12.34552,4.18532 17.27933,7.8797c1.24004,0.92853 2.28017,2.10516 3.309,3.26335c0.62534,0.70396 0.80715,1.85568 1.63569,2.30305c0.38503,0.20789 0.69241,-0.55284 0.94804,-0.90798c0.88904,-1.2351 1.64633,-2.55988 2.46949,-3.83982c1.7281,-1.76166 1.61426,-4.88577 3.42326,-6.56426c1.76937,-1.64172 8.56964,-3.45576 11.04305,-1.5015c1.00758,0.79609 -0.04782,2.67337 0.54193,3.81406c0.5655,1.0938 1.97463,1.5189 2.72141,2.49793c0.6002,0.78686 0.82095,1.80102 1.24116,2.69701c0.14177,0.3023 0.26903,1.18153 0.44466,0.89757c0.27846,-0.45021 -0.14113,-1.07324 -0.01763,-1.588c1.11405,-4.64339 2.85215,-10.47921 6.29434,-13.95589c3.46109,-3.49576 10.53221,-5.83142 15.44401,-3.93041c0.55878,0.21627 7.34897,6.60275 8.10821,7.30939c4.59988,4.28117 9.12347,8.59435 13.53029,13.07484c0.89345,1.76777 2.77454,7.25332 5.4794,7.97079c0.30014,0.07961 0.80938,-0.01263 0.87638,-0.31583c0.16425,-0.74331 -0.49807,-1.52631 -0.3065,-2.26305c0.36342,-1.39767 1.06417,-2.71737 1.90652,-3.8904c3.35205,-4.66796 9.25376,-9.43014 14.65831,-11.38748c6.04699,-2.19 13.01731,-3.19921 19.39682,-3.16425c1.52794,0.00838 3.09023,-0.25736 4.58339,0.06688c0.78212,0.16984 5.38437,2.71666 6.38833,3.12643c1.2871,0.52534 2.66985,0.79731 3.94826,1.34348c0.33393,0.14266 0.81472,1.06253 0.83478,0.69995c0.05918,-1.06981 -0.82451,-2.07301 -0.69995,-3.13719c0.20639,-1.76327 1.10635,-3.37384 1.65952,-5.06076c0.83229,-1.39097 1.11075,-3.33257 2.49687,-4.17292c1.39707,-0.84699 3.27973,-0.57242 4.89171,-0.30649c4.3252,0.71352 9.25742,4.75467 12.40547,7.49609c1.15776,1.00821 2.58667,1.66913 3.83492,2.55992c-0.06932,-0.89572 0.00594,-1.80002 0.39506,-2.57359c1.02831,-2.04432 5.43623,-5.96485 8.13848,-6.04151c7.51528,-0.21321 11.24845,6.6306 16.26728,10.57645c1.13754,0.89435 2.72235,1.17596 3.7389,2.20576c0.65271,0.66123 0.24437,2.06617 1.00489,2.59989c0.62311,0.43729 1.52175,-0.47953 2.26306,-0.30649c2.2827,0.53282 4.23199,2.01732 6.35874,3.00301c0.35913,-0.43247 0.71825,-0.86495 1.07738,-1.29742c0,-1.27451 0,-3.77696 0,-3.77696h1.00979l0.5335,-2.3097c0.66609,0.42838 1.36576,0.81467 2.0654,1.20101l0.65908,-0.65908l3.003,3.003l-0.0319,0.03191c0.09922,0.0891 0.19669,0.18039 0.29224,0.27408c3.17277,3.11127 1.0244,6.80692 2.86353,10.33428c0.8872,1.70162 6.78884,-2.64593 7.76205,-2.27975c2.01517,0.75823 2.6627,3.38669 4.07894,5.00844c1.0541,1.20707 2.36949,2.18563 3.32618,3.47128c1.3073,1.75681 2.37818,4.08058 4.4269,4.854c1.7486,0.66012 7.85542,0.49115 9.47446,0.16291c0.99845,-0.20243 1.74685,-1.08115 2.71002,-1.41309c1.49572,-0.51547 3.19572,-0.41065 4.61426,-1.11109c1.50542,-0.74334 2.43241,-2.41074 3.95426,-3.11981c2.40495,-1.12054 5.4404,-0.44328 7.77509,-1.70368c1.31073,-0.70761 2.36018,-1.81781 3.54027,-2.72671c1.98768,-1.45657 4.5916,-1.85074 6.69618,-3.13263c2.71909,-1.65618 3.88063,-5.11079 6.01906,-7.22375c3.67156,-3.62784 4.8107,-3.05517 8.99923,-5.54445c3.70704,-2.20312 6.82721,-4.91342 10.70353,-6.86076l2.61954,-0.26394c0,0 2.5,0 2.5,2.5z" fill="#313131" stroke="none" stroke-width="0.5" stroke-linecap="butt"/><path d="M398.99548,155.08677c2.23607,1.11803 1.11804,3.3541 1.11804,3.3541l-2.78086,4.19467c-1.97253,-0.46148 -4.05767,-0.5882 -5.94392,-1.30615c0.04242,1.59949 0.04818,3.41812 -1.20596,4.12608c-1.62869,0.91939 -3.66549,-0.78755 -5.43536,-1.39206c-0.87815,-0.29994 -1.67468,-0.80907 -2.45935,-1.30444c-0.26432,-0.16687 -0.69971,-0.97553 -0.66086,-0.66536c0.05949,0.47494 0.65075,0.76357 0.73224,1.23523c0.16856,0.97563 -0.15699,7.01575 -0.37337,7.32034c-2.10179,2.95853 -5.25312,2.77792 -8.2193,2.68567c-7.25086,-0.22551 -11.7658,-2.82028 -17.73917,-6.51928c-4.16908,-2.60178 -5.23957,-2.77848 -8.3705,-6.76211c-0.83665,-1.0645 -1.23505,-2.41944 -2.01033,-3.52944c-0.67755,-0.97004 -0.98711,2.3316 -2.01053,2.92544c-0.55102,0.31973 -6.96393,0.52951 -7.89471,0.3065c-1.15503,-0.27675 -2.06696,-1.21642 -3.20449,-1.55806c-1.46893,-0.44117 -3.08235,-0.28035 -4.53687,-0.76694c-1.91345,-0.64012 -3.79695,-2.88348 -6.1249,-2.1795c-2.14249,0.6479 -3.83342,2.46461 -6.00601,3.00301c-2.14327,0.53113 -7.9327,0.5357 -10.08809,0.0154c-4.20258,-1.01447 -7.7849,-3.94076 -12.43443,-3.01841c-0.62045,0.12308 -3.25414,1.80885 -3.96621,2.2506c-2.2915,4.04944 -2.18324,7.1409 -8.07539,5.13348c-1.33999,-0.45652 -1.74808,-2.34788 -3.003,-3.00301c-0.7245,-0.37822 -1.64534,0.3183 -2.44675,0.15802c-1.74082,-0.34816 -3.41343,-0.99769 -5.06076,-1.65952c-1.21718,-0.48901 -2.45867,-0.99605 -3.50807,-1.7831c-0.98507,-0.73881 -1.42221,-2.12224 -2.49793,-2.72141c-0.59847,-0.33335 -1.37041,0.30192 -2.0463,0.1903c-0.47226,-0.07799 -1.01144,-1.15534 -1.23523,-0.73223c-0.3005,0.56811 0.85406,1.19525 0.66536,1.80961c-0.51432,1.6745 -1.14971,3.60349 -2.62029,4.55525c-1.37158,0.88768 -3.27635,0.55101 -4.89172,0.3065c-1.10655,-0.1675 -1.91756,-1.22888 -3.003,-1.5015c-1.04027,-0.26127 -2.21447,0.32009 -3.21716,-0.06074c-2.83818,-1.07798 -5.13183,-3.26266 -7.837,-4.64082c-0.82684,-0.42124 -1.61337,-0.92309 -2.45935,-1.30445c-0.35119,-0.15831 -0.85271,-0.58929 -1.11429,-0.3065c-0.6438,0.69599 -0.38544,1.96605 -1.04806,2.64415c-0.78217,0.80044 -2.21088,0.7109 -3.00301,1.5015c-0.83145,0.82985 -1.0875,2.08258 -1.63126,3.12387c-4.00592,1.45151 -8.31327,3.11744 -12.7229,2.04599c-2.69148,-0.65398 -5.09603,-2.18852 -7.72369,-3.06441c-1.9579,-0.65263 -6.80817,-1.9906 -8.4847,-3.60694c-0.68255,-0.65804 -0.5989,-1.8092 -1.04806,-2.64415c-0.27158,-0.50485 -0.70146,0.96558 -0.77814,1.53369c-0.15634,1.15839 0.22026,2.43709 -0.27501,3.49587c-0.96395,2.06072 -2.06503,4.3002 -3.96039,5.55852c-2.7632,1.83447 -6.05262,-0.35902 -8.30369,-1.46962c-3.96702,-1.9572 -7.19439,-6.05117 -11.46836,-7.31045c-1.80767,-0.53261 -3.55308,1.7181 -5.43162,1.56838c-1.75038,-0.13951 -3.18051,-1.48915 -4.77077,-2.23373c-0.45879,-0.85076 -0.96024,-1.68044 -1.41493,-2.53323c-0.0616,1.00138 -0.4013,1.94802 -1.05554,2.53323c-3.7275,3.33419 -5.43981,-0.10906 -8.34816,-0.83615c-0.97111,-0.24278 -2.03822,0.26683 -3.003,0c-4.67318,-1.29247 -6.32608,-5.22212 -9.89641,-7.91252c-0.06167,-0.04647 -5.15374,-3.27875 -5.4206,-2.21528c-0.14031,0.55915 0.32764,1.114 0.37338,1.68867c0.23486,2.95109 0,6.04754 0,9.00901c0,0 0,2.5 -2.5,2.5c-2.5,0 -2.5,-2.5 -2.5,-2.5c0,-0.00701 -0.00001,-0.01404 -0.00002,-0.02106c-0.13252,0.18312 -0.23672,0.28733 -0.23672,0.28733l-3.26927,2.23373c-1.19246,-0.0223 -2.38493,-0.04458 -3.57739,-0.06688c-1.2968,-0.6355 -2.71462,-1.068 -3.89039,-1.90652c-1.63326,-1.16479 -5.15959,-5.8599 -8.09203,-4.22291c-1.07725,0.60136 -2.62766,3.0649 -3.02809,4.27069c-0.49277,1.48386 0.28933,3.87565 -1.1188,4.55525c-1.68436,0.81291 -3.68127,-0.74318 -5.43536,-1.39206c-1.29742,-0.47994 -2.65721,-1.00932 -3.65274,-1.96981c-0.4613,-0.44506 -0.78563,-0.9358 -1.0582,-1.41654c-0.44369,0.40222 -1.0325,0.64727 -1.67854,0.64727c-0.29691,0 -0.58173,-0.05176 -0.84593,-0.14675l-3.52222,-1.17407c-0.37127,0.6055 -0.70865,1.25966 -1.11125,1.7841c-1.35445,1.76436 -5.28489,5.74726 -8.03411,5.54273c-5.44092,-0.40478 -5.28844,-2.38423 -5.42184,-5.64728c-0.32166,0.3951 -0.6751,0.74432 -1.12897,0.95247c-0.42956,0.19701 -1.49525,0.3238 -2.82079,0.37915c-0.69691,2.58791 -1.68973,4.96446 -5.24297,5.78488c-1.7013,0.39282 -3.43352,-0.94167 -4.86523,-1.94111c-0.80998,-0.56543 -0.65051,-2.10404 -1.54123,-2.53111c-0.48572,-0.23289 -0.61112,0.92736 -0.69331,1.45971c-0.15189,0.98376 0.45041,2.09509 0.00688,2.98622c-0.71176,1.43007 -2.42587,2.15425 -3.24725,3.52429c-0.8184,1.36508 -0.85091,3.08933 -1.56929,4.50961c-0.68936,1.36291 -2.02953,2.35191 -2.61482,3.76265c-0.52299,1.26058 0.51591,3.29733 -0.62496,4.04631c-1.69856,1.11511 -4.218,1.16043 -6.0851,0.35886c-1.43384,-0.61557 -2.68576,-5.28195 -3.71678,-6.67086c-0.95481,-1.28626 -2.56359,-2.07759 -3.2846,-3.50807c-0.39784,-0.78931 0.52441,-1.83004 0.18307,-2.64538c-0.50102,-1.19676 -2.58203,-0.32835 -3.87938,-0.31583c-1.50143,0.01449 -3.00301,0 -4.50451,0c0,0 -2.5,0 -2.5,-2.5c0,-2.5 2.5,-2.5 2.5,-2.5c4.05416,0 9.62813,-1.11094 12.63714,2.68717c0.69665,0.87935 -0.31524,2.3555 0.18307,3.36062c0.54693,1.10321 1.97753,1.51669 2.72141,2.49793c0.75678,0.99825 1.21598,2.19536 1.70947,3.34674c0.00545,0.01273 0.01097,0.02594 0.01653,0.03961c0.67339,-1.52572 2.04149,-2.70163 2.79135,-4.20389c0.77791,-1.55845 0.88964,-3.41893 1.79288,-4.90824c0.68702,-1.13279 2.27024,-1.57435 2.8586,-2.76138c0.44703,-0.90189 -0.57207,-2.19634 0.00688,-3.01978c1.34056,-1.9067 2.99577,-4.29241 5.3127,-4.5463c0.86861,-0.09518 1.57611,0.38914 2.23112,1.0544c-0.27283,-1.97554 -0.2804,-5.00745 -0.22662,-6.06191c0.07358,-1.4426 -0.46319,-3.13976 0.37337,-4.31733c1.0145,-1.42803 2.89199,-2.07072 4.55524,-2.62029c1.13245,-0.37419 2.38472,-0.06688 3.57739,-0.06688c1.69311,0 3.42017,-0.27262 5.07889,0.06688c3.22173,0.65941 5.85935,3.73503 9.00901,4.5045c0.8316,0.20317 1.76534,-0.11662 2.61011,-0.06651c2.43367,0.00984 4.86605,0.21572 7.28629,0.47152l0.21892,1.00536c0.13276,0.02686 0.26454,0.05722 0.39518,0.09113c1.52378,0.39551 3.0305,1.10902 4.19639,2.16686c0.82883,0.75203 0.72854,2.19366 1.5015,3.003c0.46552,0.48744 1.26189,0.49174 1.8898,0.75126c0.29587,-1.259 1.03073,-2.42432 1.82183,-3.44827c1.14253,-1.47881 2.38658,-3.04871 4.0744,-3.85092c5.97462,-2.83973 10.66993,3.61526 15.0446,5.88258c0.80954,-0.0223 1.61908,-0.04458 2.42862,-0.06687l-0.26627,-0.76927c0,0 1.76777,-1.76776 3.53554,0c0.02757,0.02757 0.05428,0.05514 0.08014,0.0827c-0.38624,-5.42015 -0.9199,-12.17136 5.65959,-12.82694c1.48706,-0.14817 2.76612,1.13496 4.12104,1.76543c2.51091,1.16837 4.69746,3.01453 6.65574,4.97281c1.2914,1.2914 2.77438,3.40252 4.81262,3.83915c0.97879,0.20968 2.03188,-0.24278 3.003,0c1.08574,0.27143 2.03971,0.93179 3.00301,1.5015c0.26906,0.15912 0.6997,0.97553 0.66085,0.66536c-0.24882,-1.98648 -1.59973,-4.8023 0,-6.006c5.97681,-4.49719 7.98886,2.46954 9.54154,6.006c0.41174,0.25643 0.75798,0.85594 1.23524,0.76927c0.92511,-0.168 1.50996,-1.23435 2.42862,-1.43463c3.37574,-0.73596 5.01024,0.12455 7.83521,1.77235c3.31429,1.93322 5.5384,4.23585 8.87222,5.93221c1.19216,0.60661 2.71078,2.42451 3.70833,1.53338c1.54575,-1.38083 1.06367,-4.01223 1.7706,-5.96063c1.46004,-4.0241 3.14213,-6.72729 8.23087,-4.47232c1.18517,0.52518 1.05739,2.42653 1.95494,3.36186c1.60565,1.67324 4.3303,1.66573 6.53031,2.39907c2.48629,0.82877 4.75467,2.28287 7.29132,2.94159c2.50529,0.65058 5.95913,-0.2966 8.29813,-0.95701c0.45725,-0.96071 0.62016,-2.12903 1.37174,-2.88214c0.79056,-0.79217 2.20405,-0.7178 3.003,-1.50151c0.92542,-0.90777 0.8123,-2.74965 1.95494,-3.36186c3.91877,-2.09964 10.01593,1.8566 13.10498,3.73645c0.91843,0.55891 1.50321,1.6504 2.5114,2.02381c0.87195,0.32295 1.88651,-0.2852 2.78885,-0.06074c1.4546,0.36184 2.92642,2.71827 4.11729,1.808c1.52107,-1.16266 -0.3703,-4.3612 1.04806,-5.64714c0.67957,-0.61613 7.59676,-1.06948 8.73048,-0.54193c2.26889,1.05576 3.68062,3.57979 6.00601,4.5045c1.2918,0.5137 2.58505,1.07084 3.94825,1.34348c1.16453,0.2329 2.48933,-0.35736 3.55926,0.15802c1.27537,0.61434 1.926,2.08427 3.00301,3.003c0.19135,0.16323 0.59783,0.39582 0.73197,0.18308c0.76966,-1.2207 1.11385,-2.66258 1.67078,-3.99386c1.73182,-1.22629 4.45138,-3.39282 6.57667,-3.82014c5.65442,-1.1369 9.51853,1.66442 14.59259,2.9876c1.69212,0.44126 6.23072,0.44562 7.92993,0.0154c2.16984,-0.54937 3.82027,-2.52075 6.00601,-3.00301c2.96805,-0.65486 5.94092,1.33446 8.82538,2.29263c1.45554,0.48351 3.06838,0.32432 4.53687,0.76694c1.00603,0.30323 1.78547,1.17722 2.80153,1.44494c0.78312,0.20634 1.62101,-0.127 2.42863,-0.06688c0.5749,0.0428 1.24383,0.74005 1.68867,0.37337c0.86359,-0.71185 0.47719,-2.55212 1.5015,-3.003c1.67721,-0.73827 3.87232,-0.92526 5.49697,-0.07756c1.75986,0.91825 2.2669,3.2653 3.53667,4.79107c1.93869,2.32954 4.53436,4.07241 7.11728,5.6579c5.35203,3.31423 8.85367,5.43624 15.2801,5.77324c1.26691,0.06644 3.2073,0.80818 3.79271,-0.31734c0.26601,-0.51144 -0.32764,-1.114 -0.37337,-1.68867c-0.11293,-1.41905 0.02965,-7.14532 0.73223,-7.77377c2.06033,-1.84293 6.04627,-0.80856 8.25358,0.5816c-0.03251,-1.54562 0.01625,-3.23983 1.20887,-3.94347c1.75882,-1.0377 6.17606,1.84114 7.86513,2.81993l0.22215,-1.81133c0,0 1.11803,-2.23607 3.3541,-1.11804zM88.04154,151.35656c0.47968,-0.65643 0.69151,-1.50148 1.03437,-2.24471c-0.0532,-0.02016 -0.10704,-0.04236 -0.16112,-0.06678c-0.74446,-0.2056 -1.64555,0.39882 -2.42253,0.20038c-0.03095,-0.0079 -0.06186,-0.01603 -0.09274,-0.02439c-0.23252,0.52496 -0.56811,0.86053 -0.56811,0.86053l-0.83628,0.57138c0.04312,0.19895 0.067,0.41945 0.067,0.66385c0,1.51155 -0.91392,2.10919 -1.63661,2.34548c-0.24612,3.10907 3.86505,-1.27806 4.61601,-2.30576zM82.55193,147.28585c-1.66486,-1.06904 -3.31576,-2.20538 -5.06868,-2.5449c-2.08091,-0.40305 -4.24616,-0.17199 -6.35874,0c-0.49848,0.04058 -1.21998,-0.06099 -1.45076,0.38271c-0.26601,0.51144 0.32764,1.114 0.37337,1.68867c0.07941,0.99785 0.17042,2.01662 0,3.00301c-0.08149,0.47167 -1.07069,0.89677 -0.73223,1.23523c0.33846,0.33846 0.76357,-0.65074 1.23524,-0.73223c0.31284,-0.05405 0.63487,-0.05184 0.96135,-0.01815c0.0894,-0.25116 0.18029,-0.5017 0.27388,-0.75112c2.14983,-0.74248 4.17736,-2.12507 6.44949,-2.22744c0.23316,-0.0105 0.45983,0.01323 0.6816,0.06287c1.13298,-0.36059 2.43896,-0.01117 3.64568,-0.06916zM67.50739,155.29474c0.40382,0.32683 0.64683,1.22283 1.14077,1.06189c0.42159,-0.13736 0.68157,-0.52169 0.88856,-0.9536c-0.83138,-0.06745 -1.59933,-0.16007 -2.22753,-0.27809c0.06543,0.05906 0.13146,0.11578 0.19819,0.1698z" fill="#313131" stroke="none" stroke-width="0.5" stroke-linecap="butt"/><path d="M89.07114,188.85438c0.06104,-3.26534 -0.47115,-5.57418 2.68717,-8.13263c0.48464,-0.39259 1.19164,-0.10694 1.86732,0.04641c0.20848,-1.13633 1.02739,-1.60058 1.66172,-1.79026c0.01344,-0.08708 0.03065,-0.17116 0.05373,-0.25056c0,0 1.11803,-2.23606 3.3541,-1.11803c0.64233,0.32117 1.00789,0.73459 1.20268,1.16076c2.74403,-0.08364 5.52092,-0.17458 8.1898,0.07681c1.60179,0.15088 3.88814,-0.61292 4.77077,0.73224c0.76954,1.17281 0.54853,2.64158 0.29324,4.12059c2.0729,0.53969 3.87989,2.29302 6.02088,2.72156c2.2662,0.4536 4.62362,-0.15391 6.93313,-0.06687c0.68456,0.0258 1.43209,0.49367 2.0463,0.1903c1.88025,-0.9287 3.37724,-5.3279 4.06803,-6.47795c1.93039,-3.21382 4.72056,-5.90835 6.77407,-9.04319c0.81501,-1.24418 0.97577,-3.16574 2.3138,-3.8153c1.89676,-0.92081 4.20776,-0.28421 6.31432,-0.37337c2.64869,-0.1121 5.34266,-0.42242 7.95307,0.04002c6.1605,1.09135 11.22951,6.37052 15.58771,10.92385c1.80673,-3.02799 5.80601,-5.70111 8.42238,-6.39249c2.43395,-0.64318 9.46009,-0.42677 11.65928,0c1.09866,0.2132 1.90575,1.2812 3.00301,1.5015c1.38432,0.27794 2.8356,-0.23166 4.23558,-0.04815c5.00365,0.65588 9.72516,2.95438 14.65166,4.00385c1.25866,0.26812 2.5845,0.21831 3.81408,0.59808c1.01143,0.31239 1.80064,1.18228 2.82421,1.45222c0.78307,0.20652 1.63181,-0.21158 2.42862,-0.06688c0.47095,0.08552 1.02214,1.16083 1.23523,0.73224c0.30525,-0.61395 -0.86382,-1.317 -0.62496,-1.9597c1.80594,-4.85914 5.04215,-7.10834 9.32585,-9.21617c4.97325,-0.09297 10.43363,-0.15385 14.35416,3.66836c1.74402,1.70029 1.29156,4.27773 3.69344,5.46407c0.6142,0.30337 1.36335,-0.24391 2.04629,-0.1903c0.53564,0.04205 1.194,0.8819 1.54123,0.4719c1.4746,-1.74115 -0.53119,-4.96751 0.83665,-6.79373c1.05013,-1.40204 2.87344,-2.13041 4.55524,-2.62029c4.93057,-1.43618 4.47648,1.08641 8.71693,2.90641c0.07639,0.03278 6.73694,1.39066 7.53778,1.62138c3.02103,0.87032 5.89355,2.23517 8.94632,2.98657c5.53401,1.36211 10.99844,1.37274 16.63835,1.53505c1.4139,0.93323 2.77749,1.94758 4.24171,2.7997c0.39425,0.22943 0.94207,0.70774 1.30056,0.42568c0.48225,-0.37945 0.23065,-1.2099 0.43258,-1.78936c1.53723,-4.41108 1.95514,-8.70101 8.89008,-7.48242c3.00238,0.52757 3.93854,4.89691 6.66337,6.26363c3.53604,1.7736 9.02545,1.17763 12.77727,1.177c2.20388,-0.00037 4.45331,0.47845 6.61155,0.03229c1.54995,-0.32041 2.95074,-1.20015 4.50451,-1.50151c3.53108,-0.68487 9.27428,-0.03462 12.36098,1.43727c1.43657,0.68502 2.26128,2.34288 3.70616,3.01021c0.95285,0.44009 2.1753,-0.24768 3.14495,0.15405c1.39011,0.57593 2.26788,2.05844 3.6471,2.65997c1.71451,0.74776 2.10771,-3.14939 2.67966,-4.93029c1.43908,-0.76554 2.74404,-1.86999 4.31726,-2.29662c3.84259,-1.04203 4.31588,0.34361 7.5371,1.62492c3.03726,1.20813 6.38,1.5277 9.41557,2.74011c1.02109,0.40783 1.75046,1.35939 2.74368,1.83104c3.31737,1.57531 5.90534,1.24456 9.40656,1.24456h3.003c0,0 2.5,0 2.5,2.5c0,2.5 -2.5,2.5 -2.5,2.5h-3.003c-0.43203,0 -6.20188,0.00949 -6.40646,-0.03229c-2.78232,-0.56814 -5.14188,-2.4196 -7.7779,-3.47577c-1.44292,-0.57813 -3.0394,-0.66428 -4.53262,-1.09615c-3.9544,-1.14369 -6.96235,-3.92171 -10.92591,-2.2638c-0.52871,1.53243 -0.40716,3.4847 -1.58615,4.5973c-5.23324,4.93858 -5.60157,0.88674 -10.10511,-0.8616c-1.03926,-0.40346 -2.32334,0.24118 -3.33705,-0.22275c-1.58403,-0.72494 -2.58227,-2.40581 -4.13445,-3.19664c-2.11246,-1.07629 -6.90543,-1.49394 -9.35245,-0.98808c-1.54995,0.32041 -2.95074,1.20014 -4.5045,1.5015c-2.42564,0.47046 -4.94162,0.03269 -7.41246,0.03228c-4.85626,-0.0008 -10.72974,0.44804 -15.24076,-1.826c-2.33712,-1.17817 -2.96327,-4.67125 -5.34864,-5.74838c-0.70432,-0.31804 -1.72379,0.19985 -2.16235,0.83615c-1.92255,2.78941 0.41304,5.839 -3.52999,7.9101c-3.91537,2.05657 -6.74516,-0.94345 -9.47275,-2.78064c-9.18535,0.43243 -16.775,-1.97622 -25.46637,-4.48738c-2.1861,-0.63162 -6.46545,-1.1224 -8.16575,-1.84063c-1.45458,-0.61444 -2.47676,-2.00848 -3.90542,-2.68099c-0.14641,-0.06892 -2.96593,0.00211 -3.15492,0.4231c-0.28897,0.64371 0.52089,1.40682 0.34109,2.08913c-0.5627,2.13544 -0.90416,4.61354 -2.50745,6.13216c-0.48766,0.46192 -7.64201,0.67519 -8.42449,0.2816c-1.66945,-0.83975 -2.89659,-2.40005 -4.0744,-3.85093c-0.62373,-0.76834 -0.55448,-1.98439 -1.24116,-2.69701c-2.41717,-2.50848 -6.56134,-2.25205 -9.66986,-2.33765c-2.46798,1.27089 -4.58424,3.04899 -5.68916,5.79885c-0.50884,1.26636 0.39673,3.14148 -0.62497,4.04631c-1.20444,1.06668 -3.16698,0.60441 -4.77077,0.73223c-2.30937,0.18406 -4.54698,-0.92977 -6.75918,-1.61765c-2.71251,-0.84345 -5.60629,-0.98273 -8.33712,-1.76486c-2.17117,-0.62184 -6.89702,-2.34288 -9.23318,-2.64223c-1.57832,-0.20224 -3.21289,0.26283 -4.77343,-0.04814c-1.09758,-0.21872 -1.90707,-1.27473 -3.00301,-1.50151c-1.28305,-0.26549 -2.61995,0.05424 -3.93012,0.06688c-2.60999,0.02517 -5.32316,-0.69656 -7.54723,1.02961c-1.68688,1.30924 -2.69046,2.79021 -3.46628,4.43627v2.54463c0,1.38071 -1.11929,2.5 -2.5,2.5c-0.99801,0 -1.85943,-0.5848 -2.26029,-1.43041l-1.34049,-2.68097c-3.77885,-3.73398 -8.79176,-10.09085 -14.3673,-10.94366c-0.73926,-0.11308 -5.5968,0.12836 -7.06195,0.04003c-1.23261,-0.07431 -2.5453,-0.84709 -3.68567,-0.37338c-0.70695,0.29367 -0.331,1.51417 -0.68921,2.19071c-0.42613,0.80483 -1.08567,1.46242 -1.63113,2.19168c-1.70956,2.28563 -3.67337,4.39968 -5.14068,6.84788c-0.88733,1.48049 -1.29429,3.24494 -2.33572,4.6214c-1.12753,1.49028 -2.40494,3.01118 -4.0744,3.85093c-1.1805,0.5938 -2.63877,0.1542 -3.95971,0.1903c-1.17741,0.03218 -7.95368,-0.04126 -8.08189,-0.06688c-1.22742,-0.24534 -2.22166,-1.16381 -3.38533,-1.62493c-1.47141,-0.58306 -3.18069,-0.63402 -4.5045,-1.5015c-0.04986,-0.03268 -0.09931,-0.06587 -0.14836,-0.09955l-0.01296,0.02592l-2.95456,-1.47728c-0.84561,-0.40086 -1.43041,-1.26228 -1.43041,-2.26029c0,-0.16042 0.01511,-0.31731 0.04398,-0.46932c-0.22696,-0.01868 -0.41624,-0.03369 -0.54698,-0.03369c-2.23478,0 -4.46956,0 -6.70434,0c-0.26573,0.43469 -0.58024,0.82494 -0.99034,1.12813c-0.80492,0.59507 -2.08291,-0.39425 -3.003,0c-1.19254,0.511 -0.35155,2.58246 -0.31583,3.87938v1.08149c0.02264,0.19953 0.01881,0.39269 0,0.57084v1.35067c0,0 0,2.33345 -2.2544,2.49158l-0.95653,1.38162c-2.91499,-0.97162 -5.65203,-1.61399 -8.22564,-3.32342c-2.02561,-1.34545 -3.73377,-3.1514 -5.82623,-4.39032c-2.39426,-1.41761 -5.24214,-1.90701 -7.72452,-3.16393c-1.36262,-0.68994 -2.3133,-2.13299 -3.76265,-2.61482c-2.14583,-0.71338 -4.52177,0.11486 -6.78305,0.10727c-5.43006,-0.01822 -9.60471,2.55682 -13.8055,5.69403c-2.26434,1.69105 -5.01049,2.66373 -7.27298,4.35725c-2.58414,1.93428 -4.88251,4.24967 -7.56479,6.04536c0,0 -2.08013,1.38674 -3.46688,-0.69338c-1.38675,-2.08013 0.69337,-3.46687 0.69337,-3.46687c8.08476,-5.36515 15.29003,-12.41338 24.50811,-16.01308c3.21256,-1.25453 6.55087,-0.96711 9.91168,-0.92331c1.74321,0.02272 3.56405,-0.4098 5.22897,0.10727c1.72523,0.5358 2.94102,2.12635 4.55785,2.93218c2.57608,1.28392 5.50251,1.83425 7.979,3.30109c2.21406,1.3114 4.04757,3.18695 6.18577,4.61869c1.19662,0.80125 2.60878,1.38951 3.57844,2.44101z" fill="#313131" stroke="none" stroke-width="0.5" stroke-linecap="butt"/><path d="M394.37144,212.8784c0,2.5 -2.5,2.5 -2.5,2.5c-1.001,0 -3.50351,0 -4.5045,0c-4.5045,0 -9.00901,0 -13.51351,0c-0.94326,0 -6.46665,0.04805 -6.96271,-0.1903c-2.55196,-1.22619 -3.51038,-4.6689 -6.00601,-6.00601c-0.60384,-0.32352 -1.36125,0.19031 -2.04629,0.19031c-1.1843,0 -2.45769,-0.65317 -3.5478,-0.19031c-1.18633,0.50372 -1.52963,2.1748 -2.64538,2.81994c-1.6515,0.95491 -3.55236,1.44601 -5.41838,1.84259c-3.74809,0.79657 -8.59421,0.03228 -12.41246,0.03228c-9.10883,0 -18.45934,0.70709 -27.33249,-1.52023c-3.89209,0.01736 -7.81627,0.10534 -11.70655,0.01873c-1.18401,-0.02636 -2.433,-0.59004 -3.5478,-0.1903c-5.35125,1.91883 -0.5595,10.00535 -6.00601,12.01201c-1.95693,0.72099 -4.06072,-0.95389 -6.09927,-1.39399c-1.68674,-0.36415 -3.44688,-0.44851 -5.07561,-1.01853c-4.99173,-1.74697 -4.60327,-2.76144 -8.97652,-5.19891c-2.49226,-1.38909 -5.3903,-1.93234 -7.91016,-3.27072c-8.96636,-4.76233 -17.58936,-9.63742 -27.26387,-12.97145c-2.62198,0.21105 -8.11811,-0.17599 -9.38764,2.98109c-0.37346,0.92872 0.47842,2.12374 0,3.00301c-1.30581,2.39988 -4.90624,5.35716 -7.74132,5.98092c-0.06917,0.01522 -8.32893,0.20205 -9.0386,-0.12342c-1.28675,-0.59015 -1.73682,-2.36991 -3.003,-3.00301c-0.89533,-0.44766 -2.10792,0.44814 -3.00301,0c-1.38028,-0.69107 -2.03998,-2.38691 -3.36062,-3.18607c-2.43021,-1.4706 -5.29345,-2.19378 -8.09513,-2.66191c-4.04146,-0.67529 -8.38688,-0.01749 -12.15635,1.34348c-0.69951,0.25256 -1.64514,0.22016 -2.07108,0.82981c-1.00433,1.4375 -0.40348,4.02868 -1.92836,4.8946c-7.54149,4.28252 -7.13228,-3.23008 -6.77448,-7.0774c-0.90714,-0.83265 -1.99826,-1.50132 -2.72141,-2.49793c-0.483,-0.66565 -0.22565,-1.73777 -0.78772,-2.33815c-0.26327,-0.28122 -0.76096,0.15302 -1.11429,0.3065c-0.72853,0.31645 -1.48902,0.60835 -2.11561,1.09649c-1.2637,0.98448 -2.0557,2.60878 -3.50807,3.28459c-1.19807,0.55749 -2.63866,0.15875 -3.95971,0.1903c-3.02325,0.0722 -6.04908,0.07185 -9.07232,-0.0008c-2.97008,-0.07138 -5.83795,-1.1222 -8.78176,-1.52278c-4.07132,-0.55401 -9.07706,0.02208 -13.18197,0.02208c-8.91595,0 -18.11788,-0.77773 -26.84888,1.40904c-2.5668,0.64288 -4.9088,1.97759 -7.36619,2.95891c-2.66514,0.77891 -5.62856,0.84391 -8.01792,2.25834c-2.4682,1.46111 -4.01653,4.09573 -6.02895,6.13951c-1.03065,1.04671 -2.13007,2.03291 -3.06851,3.16303c-1.26958,1.52888 -1.7351,3.96684 -3.54096,4.79638c-1.80725,0.83017 -4.25787,0.6079 -5.95042,-0.43642c-0.9858,-0.60824 0.2624,-2.4788 -0.35886,-3.45645c-0.44109,-0.69413 -1.67426,-0.30231 -2.33815,-0.78772c-0.97333,-0.71166 -1.3828,-2.07236 -2.41833,-2.69002c-1.9035,-1.13536 -3.83691,2.26 -5.90594,3.05465c-0.98123,0.37686 -2.13232,-0.21038 -3.15308,0.04039c-2.60721,0.64052 -4.87387,2.33642 -7.47646,2.99546c-1.42989,0.36209 -2.96699,0.25186 -4.36645,0.71791c-1.64633,0.54826 -3.00527,1.81554 -4.67361,2.29263c-1.14671,0.32792 -2.38492,0.04458 -3.57738,0.06688c0,0 -2.5,0 -2.5,-2.5c0,-2.5 2.5,-2.5 2.5,-2.5c2.34061,0.06446 4.47815,-1.37156 6.69928,-2.11263c1.51063,-0.50402 3.1618,-0.43195 4.7073,-0.81596c2.62597,-0.65248 4.91601,-2.34441 7.53856,-3.01054c0.9218,-0.23414 1.96701,0.38635 2.85292,0.04039c1.52695,-0.59629 2.51935,-2.24205 4.07879,-2.74731c1.59643,-0.51725 3.4519,-0.77401 5.03028,-0.20406c1.53166,0.55309 2.29261,2.3287 3.58767,3.31599c1.13588,0.86594 2.85314,1.04212 3.66786,2.21528c0.35986,0.51818 0.06263,1.19316 -0.16853,1.85186c0.57191,-1.11812 1.10907,-2.26736 1.8713,-3.26283c0.99294,-1.29676 2.25371,-2.36463 3.3965,-3.53149c0.72948,-0.74485 6.75711,-6.76529 7.04813,-6.93756c0.3487,-0.20642 7.66962,-2.31488 8.93504,-2.6826c2.54757,-1.0208 4.98888,-2.37117 7.64882,-3.0471c9.19059,-2.33544 18.80747,-1.59397 28.19617,-1.59397c4.35134,0 9.54002,-0.54489 13.84506,0.02208c1.67317,0.22036 3.22569,1.02546 4.88676,1.32367c1.3024,0.23381 7.67038,0.15581 8.29521,0.15575c1.33633,-0.00012 2.67334,-0.04198 4.00901,0c0.68471,0.02152 1.44782,0.52365 2.04629,0.1903c1.07573,-0.59918 1.50076,-1.99902 2.49794,-2.72141c2.21377,-1.60374 6.00555,-3.15272 8.78211,-1.60003c1.24662,0.69714 1.34642,2.53421 2.21528,3.66786c0.97447,1.27143 2.18973,2.33872 3.28459,3.50807c0.01807,0.37598 0.06266,0.7448 0.11265,1.10577c0.06423,-0.10841 0.12897,-0.20455 0.19352,-0.28557c0.9337,-1.17191 2.55644,-1.58587 3.93493,-2.17319c4.43295,-1.88871 10.08157,-2.45601 14.87068,-1.65952c0.40831,0.0679 9.65538,3.1849 9.92289,3.34409c1.10756,0.6591 1.49226,2.24424 2.64538,2.81993c0.89559,0.44712 2.10768,-0.44766 3.00301,0c1.26618,0.63309 1.7663,2.3141 3.00301,3.003c0.59846,0.33337 1.36139,-0.17615 2.04629,-0.1903c1.30995,-0.02705 2.63849,0.28685 3.93013,0.06688c0.99732,-0.16985 3.92253,-2.23089 4.27069,-3.0281c0.40062,-0.91734 -0.49231,-2.13143 0,-3.003c0.96261,-1.70418 2.39241,-3.23202 4.08095,-4.2218c2.81107,-1.64777 7.41671,-1.6127 10.55543,-1.80612c10.33309,3.35683 19.47281,8.44135 28.98427,13.51821c2.5183,1.34418 5.41521,1.89211 7.91377,3.27265c3.28071,1.8127 4.69628,3.67213 8.25581,4.88452c1.51646,0.51651 3.19786,0.40774 4.71909,0.91005c1.05243,0.34751 1.80883,1.48097 2.90973,1.609c0.41982,0.04882 0.0226,-0.84505 0.02509,-1.26769c0.00588,-1.00099 -0.26683,-2.03822 0,-3.003c0.73548,-2.6593 3.43647,-6.66298 5.98091,-7.74132c1.67712,-0.71077 3.64001,-0.15717 5.46122,-0.1903c4.0967,-0.07452 8.22011,0.00278 12.31747,0.01873c8.69241,2.16441 17.79946,1.48277 26.72157,1.48277c3.61982,0 8.04575,0.68182 11.61156,0.03229c1.23746,-0.22541 2.52413,-0.49354 3.59063,-1.16041c1.30882,-0.81838 1.91898,-2.63432 3.36062,-3.18608c1.70117,-0.65109 3.6397,-0.1903 5.46121,-0.1903c1.32142,0 2.76864,-0.382 3.95971,0.1903c2.55196,1.22619 3.51038,4.6689 6.00601,6.00601c1.48463,0.79543 3.365,-0.1903 5.0493,-0.1903c4.5045,0 9.00901,0 13.51351,0c1.001,0 2.002,0 3.003,0h1.5015c0,0 2.5,0 2.5,2.5z" fill="#313131" stroke="none" stroke-width="0.5" stroke-linecap="butt"/><path d="M39.0243,243.28326c2.08013,-1.38675 3.46688,0.69338 3.46688,0.69338l0.48161,0.93458c0.58859,0.53103 1.03806,1.27869 1.76578,1.5931c1.99715,0.86288 5.645,-1.76504 6.49307,-3.36574c1.47409,-2.78228 1.17941,-5.74795 1.17941,-8.77519c0,0 0,-2.5 2.5,-2.5c2.5,0 2.5,2.5 2.5,2.5c0,7.12544 -1.26577,15.63633 -10.02723,16.95489c-1.41782,0.21338 -2.9396,0.35615 -4.30029,-0.09582c-1.27533,-0.42362 -2.15615,-1.6046 -3.23422,-2.4069l-1.51839,-2.06542c0,0 -1.38675,-2.08013 0.69338,-3.46688z" fill="#313131" stroke="none" stroke-width="0.5" stroke-linecap="butt"/><path d="M59.41105,250.86338c0,-0.39872 0.06359,-0.73386 0.17049,-1.01554c-0.63876,-1.25239 -0.91433,-2.00624 -1.15833,-4.23812c-0.19573,-1.79033 -0.56742,-7.38537 0.25177,-8.86438c1.89288,-3.41753 5.98166,-3.38197 9.23607,-3.38197c5.50065,0 12.48989,1.35789 11.98783,8.24634c-0.08533,1.17076 -0.22358,2.40166 -0.78365,3.4333c-0.77114,1.42045 -3.90031,3.81757 -5.17313,4.79668c-1.73911,1.3378 -3.81303,2.23073 -5.88939,2.93992c-1.5364,0.30331 -3.10128,0.49892 -4.66779,0.56191c-0.37744,0.09328 -0.71545,0.08823 -1.01403,0.02185h-0.45985c0,0 -2.5,0 -2.5,-2.5zM64.4842,248.27808c0.76779,-0.06813 1.53187,-0.17761 2.28518,-0.33094c1.45902,-0.46933 2.90708,-1.11112 4.11061,-2.06008c0.79161,-0.62417 1.59074,-1.23943 2.36375,-1.88649c0.50314,-0.42116 1.13288,-0.74984 1.46312,-1.31682c2.76701,-4.75074 -6.52133,-4.51184 -9.04947,-4.33252c-0.86056,0.06104 -2.26012,-0.19546 -2.51028,0.6302c-0.13598,0.44883 0.23212,0.91407 0.26393,1.38197c0.22162,3.25964 0.01921,5.21551 1.07315,7.9147z" fill="#313131" stroke="none" stroke-width="0.5" stroke-linecap="butt"/><path d="M96.49117,251.97663c1.38675,2.08013 -0.69338,3.46688 -0.69338,3.46688l-1.38675,0.91987c-2.53514,1.7513 -6.40762,3.25687 -9.61803,1.73607c-0.98603,-0.46709 -1.37823,-1.6968 -2.14973,-2.4683c-0.7715,-0.7715 -2.00121,-1.1637 -2.4683,-2.14973c-0.51767,-1.0928 -0.17595,-2.41202 -0.26393,-3.61803c0,0 0,-1.47151 1.12895,-2.15663c0.43466,-4.0098 -0.62843,-8.68315 1.88676,-11.86409c2.79232,-3.53143 7.92772,-3.42337 10.88761,-0.10021c1.89805,2.131 1.62782,4.58923 1.59669,7.12093c-0.03815,3.10172 0.35243,4.28911 -2.53822,6.52811c-0.9245,0.71609 -2.25616,0.66219 -3.30151,1.18634c-0.86165,0.43204 -1.45045,1.36728 -2.3697,1.65726c-0.2684,0.08467 -0.54338,0.13154 -0.82241,0.15516c0.20774,0.43272 0.24504,1.00715 0.64988,1.23707c1.1623,0.66011 3.56415,-0.54895 4.38197,-1.26393l1.61325,-1.08013c0,0 2.08013,-1.38675 3.46688,0.69338zM86.50914,246.54091c0.24961,-0.1347 0.49664,-0.26992 0.74164,-0.39197c0.27905,-0.13901 3.05636,-0.33318 3.28856,-1.57612c0.36234,-1.93961 0.49942,-5.55452 -1.79563,-6.30014c-1.41987,-0.46129 -2.20783,0.84258 -2.37778,2.06348c-0.28044,2.01475 0.14697,4.13868 0.1432,6.20476z" fill="#313131" stroke="none" stroke-width="0.5" stroke-linecap="butt"/><path d="M135.77957,249.70247c1.66091,1.86852 -0.20761,3.52943 -0.20761,3.52943l-0.76295,0.67818c-1.43993,1.23629 -2.63061,2.84371 -4.31979,3.70886c-3.68366,1.88667 -7.59498,-0.0244 -10.53994,-2.22746c-2.50777,-1.876 -4.37817,-3.54282 -6.0908,-6.1009c-0.0867,-0.12949 -0.47222,-2.39311 -1.52074,-1.96389c-2.4075,0.98553 -3.95838,5.34084 -5.34656,7.42343c0,0 -1.38675,2.08013 -3.46688,0.69338c-2.08013,-1.38675 -0.69338,-3.46688 -0.69338,-3.46688c2.20065,-3.30044 4.09678,-8.87582 8.65344,-9.57657c5.20937,-0.80113 7.77553,6.21678 11.38846,8.93521c1.13735,0.85576 3.84697,2.84789 5.46006,1.77254c1.19496,-0.7966 2.10287,-1.95652 3.1543,-2.93478l0.76295,-0.67818c0,0 1.86852,-1.66091 3.52943,0.20761z" fill="#313131" stroke="none" stroke-width="0.5" stroke-linecap="butt"/><path d="M176.41105,240.86338c1.5,2 -0.5,3.5 -0.5,3.5l-1.73223,1.26777c-1.10792,1.51272 -3.59434,5.15772 -5.12952,5.22841c-1.7394,0.08009 -3.07681,-1.7712 -4.20842,-3.0946c-2.20867,-2.583 -2.4323,-7.13104 -4.29212,-9.80534c-0.22841,-0.32843 -0.8556,-0.01923 -1.18101,0.21347c-1.73897,1.24353 -3.41585,3.04603 -4.10925,5.0502c-0.37717,1.09016 -0.40559,2.36858 -1.11968,3.27455c-0.07695,0.09763 -0.15545,0.19383 -0.23537,0.28871l0.04191,0.02994l-2.48063,3.47289c-0.45157,0.64913 -1.20302,1.07402 -2.0537,1.07402c-1.22888,0 -2.25067,-0.88665 -2.46053,-2.05512l-0.37839,-1.89193c-1.52728,-1.4802 -1.9877,-3.43139 -4.16108,-3.05294c0,0 -2.5,0 -2.5,-2.5c0,-2.5 2.5,-2.5 2.5,-2.5c1.19432,0.08225 2.52248,-0.30872 3.58297,0.24674c1.69187,0.88616 2.76599,2.57171 3.93821,4.13555c0.38957,-3.12509 2.20259,-5.47972 4.81151,-7.74512c2.45945,-2.13561 4.19211,-5.06178 8.52959,-2.23341c2.53414,1.65246 3.01964,5.24771 4.36362,7.9581c0.45584,0.91928 0.90965,1.85148 1.22267,2.82812c0.23789,-0.84055 0.87032,-1.2621 1.78366,-2.45776l2.26777,-1.73223c0,0 2,-1.5 3.5,0.5z" fill="#313131" stroke="none" stroke-width="0.5" stroke-linecap="butt"/><path d="M220.41105,237.86338c2.5,0 2.5,2.5 2.5,2.5v2c-0.01563,2.90381 0.25192,6.92653 -2.13545,9.09476c-1.13886,1.03432 -3.1093,0.12725 -4.61063,-0.20868c-3.39372,-0.75938 -5.0039,-2.7608 -8.17039,-4.06012c-3.91844,-1.60787 -9.03469,-2.0647 -13.20807,-2.32906c-0.03702,-0.00234 -3.93343,-0.41819 -4.75454,0.40642c-1.61799,1.62487 -2.28566,3.97715 -3.50093,5.92168c0,0 -1.325,2.12 -3.44499,0.795c-0.32549,-0.20343 -0.56977,-0.4256 -0.75011,-0.65596c-0.1381,0.02364 -0.28006,0.03596 -0.4249,0.03596c-1.38071,0 -2.5,-1.11929 -2.5,-2.5c0,-1.38071 1.11929,-2.5 2.5,-2.5c0.50215,0 0.96971,0.14805 1.36144,0.40287c0.9843,-1.934 1.87357,-3.95552 3.51764,-5.30618c4.55457,-3.74174 13.53811,-1.18482 18.54566,-0.06052c3.17408,0.71265 6.14529,2.18732 9.05122,3.6496c1.06252,0.53466 2.2531,0.81134 3.27013,1.42816c0.25136,0.15245 0.3479,1.08235 0.38937,0.79132c0.23075,-1.61935 -0.12449,-3.26957 -0.13545,-4.90524v-2c0,0 0,-2.5 2.5,-2.5z" fill="#313131" stroke="none" stroke-width="0.5" stroke-linecap="butt"/><path d="M254.78275,256.65395c-0.79057,2.37171 -3.16228,1.58114 -3.16228,1.58114l-3.06932,-1.02425c-2.03504,-0.83362 -3.93656,-2.0193 -5.67116,-3.37114c-0.28705,-0.22371 -2.27797,-1.88777 -2.96894,-1.97633c-1.5324,-0.1964 -3.51175,5.69694 -4.325,5.90715c-2.27719,0.58861 -6.54227,-4.13068 -8.46124,-5.26342c0,0 -2.14373,-1.28624 -0.85749,-3.42997c1.28624,-2.14373 3.42997,-0.85749 3.42997,-0.85749c0.91743,0.55774 1.90323,1.01607 2.75229,1.67322c0.50077,0.38758 1.01978,0.78509 1.45856,1.24559c1.05534,-2.46906 3.10018,-4.17292 6.00291,-4.27507c3.87899,-0.13651 6.98544,4.3476 10.35989,5.65254l2.93068,0.97575c0,0 2.37171,0.79057 1.58114,3.16228z" fill="#313131" stroke="none" stroke-width="0.5" stroke-linecap="butt"/><path d="M270.30261,237.36338c2.5,0 2.5,2.5 2.5,2.5c0,4.33333 0,11.66667 0,16c0,0 0,2.5 -2.5,2.5c-2.5,0 -2.5,-2.5 -2.5,-2.5c0,-4.33333 0,-8.66667 0,-13v-3c0,0 0,-2.5 2.5,-2.5z" fill="#313131" stroke="none" stroke-width="0.5" stroke-linecap="butt"/><path d="M323.30261,252.36338l-1.79057,-0.12829c-1.2423,-0.46165 -2.67801,-0.57485 -3.72691,-1.38494c-1.05421,-0.81419 -1.36724,-2.3165 -2.29865,-3.26873c-1.32869,-1.35839 -3.52062,-1.92612 -4.41993,-3.6c-0.08816,-0.1641 -0.16763,-0.33142 -0.23903,-0.50161c-0.98519,1.51583 -1.82513,3.13434 -2.75051,4.66809c2.15672,1.00393 4.27819,2.09088 6.32399,3.46969l2.69219,0.87408c0,0 0.73523,0.24508 1.25052,0.87169c2.12467,-0.00215 3.86779,-0.17131 5.67239,-0.41169c0.07859,-0.2593 0.16013,-0.51758 0.24437,-0.77543c-0.51381,0.18714 -0.95785,0.18714 -0.95785,0.18714zM293.01342,235.3466c-2.78122,-0.34791 -5.51373,-0.88667 -8.22127,-1.52378c-0.05784,2.83657 -0.3254,5.88572 -0.02183,8.6401c0.36789,3.33801 3.6225,3.53951 4.84198,6.44375c0.47172,1.12341 -0.01285,2.44686 0.17157,3.65125c0.87252,5.69822 2.28698,9.69319 -1.44042,14.74939c-1.22494,1.66162 -2.17526,3.69328 -3.92281,4.79214c-1.16443,0.73219 -2.74536,0.17595 -4.11803,0.26393l-3.11803,-1.26393c0,0 -2.23607,-1.11803 -1.11803,-3.3541c1.11803,-2.23607 3.3541,-1.11803 3.3541,-1.11803l0.88197,0.73607c0.62732,0.08798 1.37363,0.64192 1.88197,0.26393c1.02225,-0.76012 1.36176,-2.15385 2.07719,-3.20786c0.52674,-0.77603 1.34764,-1.39205 1.64812,-2.28053c0.86774,-2.56577 -0.77923,-6.59967 -1.08854,-8.97008c-0.10157,-0.7784 0.43985,-1.61101 0.17157,-2.34875c-0.60104,-1.65276 -2.93334,-2.1218 -3.81693,-3.64238c-0.69288,-1.19239 -1.11634,-2.55322 -1.34109,-3.91387c-0.52577,-3.183 -0.03228,-7.13921 -0.03228,-10.40046c0,0 0,-0.11841 0.02577,-0.30369c-3.01416,-0.81134 -6.01523,-1.67499 -9.03678,-2.46016c-0.11899,1.26996 -1.18792,2.26384 -2.48899,2.26384c-1.38071,0 -2.5,-1.11929 -2.5,-2.5c0,-0.29332 0.05051,-0.57483 0.14332,-0.83633c-2.80699,-0.51802 -6.99088,-1.27047 -7.46411,-1.40892c-4.27391,-1.25039 -7.89606,-3.96816 -12.0407,-5.40787c-5.15997,-1.7924 -9.68418,-4.03909 -14.30238,-7.13432c-1.328,-0.54038 -2.57686,-1.3463 -3.984,-1.62115c-1.62699,-0.31779 -3.3457,0.19547 -4.97155,-0.12809c-1.77756,-0.35376 -3.40998,-1.23003 -5.10304,-1.87688c-8.83003,-3.3736 -17.91396,-8.14371 -21.09414,-16.84561c-2.39709,-2.13948 -4.53353,-5.75862 -3.07613,-8.46528c0.11558,-0.21465 0.24478,-0.41866 0.38545,-0.61373l-0.07284,-0.04856l1.97849,-2.96774c0.44514,-0.68925 1.2201,-1.14551 2.10163,-1.14551c1.38071,0 2.5,1.11929 2.5,2.5v4c-0.01623,1.3069 0.1233,2.52473 0.39636,3.66187c0.09954,0.05287 0.20341,0.10279 0.31193,0.14951c1.3189,0.56792 2.81789,0.55541 4.22143,0.85889c5.72459,1.23778 11.50389,2.4458 17.17634,3.9043c17.02568,4.37763 34.52088,8.22739 51.11837,13.95882c5.49605,1.89924 12.12579,2.66165 17.31967,5.19508c2.10827,1.02836 3.71137,2.87008 5.54086,4.33817c1.72441,1.38377 3.53448,2.70154 5.51341,3.68757c1.01592,0.50619 2.24846,0.52563 3.21595,1.11916c0.21367,0.13108 4.07739,3.95107 4.45344,4.35886c0.42514,0.46102 0.60667,1.22516 1.18894,1.45807c1.19136,0.47654 2.97684,-0.43301 3.81106,0.54193c0.05636,0.06586 0.10877,0.15523 0.15748,0.26493c0.33574,0.00111 0.67132,0.00213 1.00673,0.00312c2.46295,-2.65618 5.24548,-6.21343 9.5298,-3.52839c1.14755,0.71919 1.36642,2.28825 1.73542,3.6609c3.90989,0.10272 7.81307,0.21831 11.71173,0.3492c1.85841,-1.57266 3.79352,-3.0415 5.94365,-4.20312c1.50254,-0.81176 8.07097,-2.50607 9.04892,-2.11068c2.66051,1.07566 3.68122,4.01324 3.78245,7.0737c10.50752,0.50342 21.00774,1.14704 31.54383,1.97884c6.78025,0.53528 14.02439,0.34601 18.0362,7.21888c0.6171,1.05719 0.24811,2.41209 0.22855,3.66149c0.15977,0.74098 -0.05277,1.32225 -0.35829,1.74979c-0.25706,0.46157 -0.69479,0.90468 -1.44017,1.07537l-2.39797,1.06403c-4.65958,0.93192 -11.83224,1.09058 -15.98177,3.63634c-0.91293,0.56008 -1.32204,1.90974 -2.35762,2.18307c-1.90587,0.50304 -4.04,0.61294 -5.91342,0c-1.40855,-0.46084 -2.21474,-1.97144 -3.27552,-3.0064c-1.33008,-1.2977 -2.82774,-2.46734 -3.89439,-3.98897c-0.5724,-0.81656 -0.30763,-2.05146 -0.90148,-2.85255c-0.68763,-0.92761 -1.70409,-1.62841 -2.76246,-2.09007c-0.44309,-0.19328 -1.71949,0.03862 -2.70348,0.31312c-0.00912,0.27804 -0.02802,0.5494 -0.05542,0.81003c-0.10775,1.02503 -5.83789,7.98915 -6.68093,9.04235l-0.07908,0.05273l0.0174,0.01617l-2.87119,3.08991c-0.45674,0.49439 -1.11058,0.80399 -1.83674,0.80399c-1.38071,0 -2.5,-1.11929 -2.5,-2.5v-3h0.07141c-0.00271,-0.28883 0.02276,-0.57793 0.08387,-0.86737c0.00432,-0.02046 0.00883,-0.04082 0.01352,-0.0611c-2.01597,2.05407 -4.18021,3.99778 -6.59438,5.18581c-0.94139,0.46327 -1.94452,0.80159 -2.98617,1.02718c0.15138,0.78929 0.28071,1.57774 0.37937,2.36424c0.3465,2.76212 0.03236,5.56747 0.03237,8.35124v3c0,1.38071 -1.11929,2.5 -2.5,2.5c-1.1246,0 -2.07576,-0.74256 -2.38994,-1.76412l-0.98177,-2.94531c0,0 -0.62947,-1.88841 0.92001,-2.8568c0.07395,-1.93129 0.18321,-3.86488 -0.05477,-5.77672c-0.10736,-0.86254 -0.23979,-1.72466 -0.39114,-2.58639c-0.4746,-0.0394 -0.94972,-0.09612 -1.42355,-0.1692c-2.75462,0.85024 -4.71732,-0.3095 -7.37339,0.07982c-0.18935,0.02775 -0.37657,0.05535 -0.56189,0.08273c-0.16176,1.06006 -0.24988,2.19048 -0.24357,3.436c0,0 0,2.5 -2.5,2.5c-2.5,0 -2.5,-2.5 -2.5,-2.5c0.00421,-0.96715 0.05531,-1.87851 0.14653,-2.74904c-1.47414,0.15361 -2.97323,0.24904 -4.64653,0.24904c0,0 -1.36312,0 -2.07628,-1.00654c-0.41802,-0.02299 -0.71429,-0.12175 -0.71429,-0.12175l-3.30781,-1.12592c-2.31566,-1.52853 -4.70063,-2.71145 -7.12314,-3.82541c-1.9214,2.29349 -4.02991,4.45655 -5.69836,6.96638c0,0 -1.38675,2.08013 -3.46688,0.69338c-2.08013,-1.38675 -0.69338,-3.46688 -0.69338,-3.46688c1.51419,-2.26534 3.39705,-4.25936 5.1647,-6.32173c-0.73296,-0.33974 -1.46744,-0.68911 -2.2026,-1.05546c0,0 -2.23607,-1.11803 -1.11803,-3.3541c1.11803,-2.23607 3.3541,-1.11803 3.3541,-1.11803c1.01871,0.51122 2.04005,0.98729 3.05993,1.4494c1.90759,-2.99989 3.4364,-6.35847 6.0059,-8.93137c0.28642,-0.2868 0.58431,-0.56106 0.89012,-0.82666c-5.85073,-0.0666 -11.69776,-0.26339 -17.36317,-0.97208zM403.03863,243.92377c-0.7451,-1.08422 -2.15051,-1.51869 -3.17759,-2.34076c-3.67023,-2.93763 -10.9941,-2.03572 -15.70866,-2.40792c-5.02809,-0.39695 -10.04888,-0.73718 -15.06711,-1.03208c0.33278,0.08905 0.6688,0.20459 1.00791,0.34867c2.00519,0.85195 3.78206,2.28876 5.23754,3.90993c0.74235,0.82687 0.46975,2.23124 1.09852,3.14745c0.83483,1.21646 2.1521,2.0205 3.17667,3.08209c0.58698,0.60819 0.90167,1.53611 1.65341,1.92253c2.394,1.23063 2.21762,-0.92853 3.72896,-1.81693c4.87926,-2.86812 12.20297,-3.20061 17.62984,-4.28599l0.5293,-0.27763c-0.01983,-0.08715 -0.05468,-0.17062 -0.10879,-0.24937zM305.30876,231.22671c-0.70168,-0.89227 -1.43157,-1.71903 -2.32048,-2.2367c-0.84112,-0.48984 -1.91404,-0.44436 -2.78405,-0.88084c-0.17683,-0.08871 -6.2916,-4.15688 -6.48659,-4.31243c-1.50353,-1.19941 -2.72204,-2.83617 -4.45914,-3.66183c-5.06566,-2.40775 -11.51791,-3.16734 -16.86348,-5.01199c-16.46015,-5.684 -33.81448,-9.48939 -50.69847,-13.83411c-5.64707,-1.45315 -11.39814,-2.53508 -17.07233,-3.87949c-0.16038,-0.038 -0.32163,-0.07358 -0.48353,-0.10739c3.79258,4.57981 10.17685,7.31202 15.73977,9.48325c1.4169,0.55302 2.76635,1.34882 4.26036,1.63408c1.64587,0.31426 3.3871,-0.21515 5.02489,0.13881c1.85677,0.40128 3.53384,1.39517 5.30076,2.09276c3.01963,2.00298 6.53765,4.51579 9.84751,5.92627c1.21527,0.51788 2.60329,0.50291 3.85011,0.93941c4.03461,1.41248 7.56387,4.09452 11.71758,5.30159c3.16417,0.9195 6.51282,1.04934 9.71523,1.82528c7.99373,1.93687 15.77402,4.7017 23.99488,5.7368c3.8374,0.48317 7.76282,0.72375 11.71697,0.84655zM330.54543,237.15828c0.21078,-0.20328 0.43075,-0.39179 0.66002,-0.56114c-0.49112,-0.01356 -0.98234,-0.02695 -1.47364,-0.0402c0.27089,0.20087 0.54214,0.40127 0.81362,0.60134zM356.95976,238.98262c0.91822,-0.46308 1.93012,-0.98709 2.94147,-1.33138c-0.82567,-0.04013 -1.65135,-0.07922 -2.47706,-0.11732c-0.13679,0.51956 -0.29339,1.00679 -0.4644,1.44869zM364.47491,238.48635c0.59052,-0.23771 1.19677,-0.41071 1.81755,-0.50287c-0.83527,-0.04636 -1.67049,-0.09152 -2.50569,-0.13553c0.25734,0.18015 0.48595,0.39535 0.68813,0.6384zM318.89277,239.86338l-0.00741,0.01481c0.96287,0.39655 1.90078,0.94487 3.0758,1.84571c0.65394,-0.36052 1.34143,-0.36052 1.34143,-0.36052c0.51596,0.01452 1.04084,0.0919 1.56487,0.16324c-0.01357,-0.11939 -0.0289,-0.23865 -0.04614,-0.35778c-0.11137,-0.76953 -0.28395,-1.52664 -0.48405,-2.27827l-1.42143,-0.94706c0,0 -0.8712,-0.5808 -1.11011,-1.55446c-1.15301,-0.01188 -2.31051,-0.019 -3.47107,-0.02441c-0.76154,0.75901 -1.38644,1.38103 -1.39407,1.38738c-0.29065,0.24175 -0.59627,0.46543 -0.90839,0.68109zM348.31493,247.50872c-1.95351,1.32949 -4.10421,2.49967 -6.23521,3.21813c-0.14806,0.47461 -0.3918,0.92001 -0.7178,1.37267c2.73351,-0.75947 4.92835,-2.56048 6.95301,-4.59081zM333.87585,251.63757c0.3611,0.12001 0.72637,0.22859 1.09317,0.32471c0.05916,-0.10077 0.11543,-0.20631 0.17321,-0.31062c-0.42027,0.00045 -0.84276,-0.00476 -1.26638,-0.01409zM349.12658,240.48401c1.03286,-0.92287 2.33137,-1.66866 2.98675,-2.8889c0.05057,-0.09415 0.09641,-0.19001 0.13805,-0.28738c-3.67508,-0.15215 -7.35164,-0.28682 -11.03152,-0.40849c-1.08529,0.9257 -2.14505,1.86942 -3.22273,2.79571c0.32013,1.04145 0.64764,2.23326 0.93354,3.32744c0.60322,0.43944 1.13284,0.94262 1.49601,1.58886c0.23405,0.41649 0.44373,0.80802 0.63005,1.17737c2.97875,-1.13889 5.9356,-3.39764 8.06985,-5.30462zM352.40111,230.19519c-0.87017,-0.09699 -1.58151,0.75634 -2.39954,1.0685c-0.69408,0.26486 -1.37559,0.56733 -2.0418,0.90235c1.68425,0.06712 3.36795,0.13745 5.0513,0.21118c0.14689,-1.02562 0.18354,-2.09359 -0.60996,-2.18203zM334.8608,246.21237c-0.6762,-0.39646 -1.4153,-0.7245 -2.05356,-1.16683c-0.1917,-0.13285 -0.40245,-0.28151 -0.62797,-0.44256c-0.12881,0.66692 -0.25484,1.33429 -0.47612,1.97284c1.09231,0.05611 2.18854,0.10202 3.26695,0.10268c-0.03666,-0.15539 -0.07311,-0.31076 -0.1093,-0.46613z" fill="#313131" stroke="none" stroke-width="0.5" stroke-linecap="butt"/></g></g></svg>