<svg xmlns="http://www.w3.org/2000/svg" xmlns:xlink="http://www.w3.org/1999/xlink" version="1.1" width="58.3755989074707" height="46" viewBox="-0.19999998807907104 -0.3499999940395355 58.3755989074707 46">
  <!-- Exported by Scratch - http://scratch.mit.edu/ -->
  <path id="ID0.5443468582816422" fill="#000000" stroke="#000000" stroke-width="0.7342697719003555" d="M 31.2925 11.1777 C 33.3466 11.0257 35.428 12.5657 36.6998 14.5795 C 38.1497 16.8711 38.8504 19.9963 38.9792 22.7838 C 39.113 25.6241 39.13 29.286 37.2156 31.0081 C 35.1226 33.2977 31.755 32.8667 28.905 32.8691 C 26.1561 32.8723 22.9217 33.3785 20.7274 31.3082 C 18.9469 29.3992 18.5991 25.7053 18.8307 22.7838 C 19.0643 19.8627 20.2935 16.5105 22.2748 14.5795 C 24.7628 12.1498 28.1316 11.0261 31.2925 11.1777 Z "/>
  <path id="ID0.37750169076025486" fill="#FFFFFF" stroke="#000000" stroke-width="0.5369561233231867" d="M 37.9049 18.846 C 38.7537 18.846 39.5227 19.1871 40.0796 19.7385 C 40.6365 20.2895 40.9813 21.0509 40.9813 21.8908 C 40.9813 22.7307 40.6365 23.492 40.0796 24.0431 C 39.5227 24.5944 38.7537 24.9355 37.9049 24.9355 C 37.0561 24.9355 36.2871 24.5944 35.7302 24.0431 C 35.1733 23.492 34.8285 22.7307 34.8285 21.8908 C 34.8285 21.0509 35.1733 20.2895 35.7302 19.7385 C 36.2871 19.1871 37.0561 18.846 37.9049 18.846 Z "/>
  <path id="ID0.37750169076025486" fill="#FFFFFF" stroke="#000000" stroke-width="0.7038303046936172" d="M 31.3609 17.8427 C 32.621 17.8415 33.7631 18.2675 34.5905 18.9572 C 35.4179 19.6465 35.9307 20.5995 35.9317 21.6513 C 35.9327 22.7031 35.4218 23.6571 34.5957 24.348 C 33.7696 25.0393 32.6284 25.4675 31.3683 25.4687 C 30.1081 25.47 28.9661 25.0439 28.1387 24.3542 C 27.3113 23.6649 26.7985 22.712 26.7975 21.6601 C 26.7965 20.6083 27.3074 19.6544 28.1335 18.9635 C 28.9595 18.2722 30.1008 17.8439 31.3609 17.8427 Z "/>
  <path id="ID0.234124637208879" fill="#000000" stroke="black" stroke-width="0.7472428666850641" stroke-linecap="round" d="M 37.8988 19.2215 C 38.1289 19.2215 38.3372 19.5061 38.488 19.9662 C 38.6391 20.4263 38.7325 21.0614 38.7325 21.7622 C 38.7325 22.463 38.6391 23.0982 38.488 23.5583 C 38.3372 24.0184 38.1289 24.3029 37.8988 24.3029 C 37.6688 24.3029 37.4605 24.0184 37.3097 23.5583 C 37.1586 23.0982 37.0652 22.463 37.0652 21.7622 C 37.0652 21.0614 37.1586 20.4263 37.3097 19.9662 C 37.4605 19.5061 37.6688 19.2215 37.8988 19.2215 Z "/>
  <path id="ID0.234124637208879" fill="#000000" stroke="black" stroke-width="0.9794695021458867" stroke-linecap="round" d="M 31.1195 18.2274 C 31.4611 18.227 31.7707 18.5831 31.9951 19.1591 C 32.22 19.7351 32.3594 20.5304 32.3602 21.408 C 32.3611 22.2856 32.2232 23.0812 31.9995 23.6576 C 31.7761 24.234 31.4673 24.5907 31.1257 24.591 C 30.7841 24.5913 30.4746 24.2353 30.2501 23.6593 C 30.0253 23.0833 29.8859 22.288 29.8851 21.4104 C 29.8842 20.5328 30.022 19.7372 30.2458 19.1608 C 30.4691 18.5844 30.778 18.2277 31.1195 18.2274 Z "/>
  <path id="ID0.033297700341790915_9_" fill="none" d="M 0.3 0.15 L 57.6756 0.15 L 57.6756 45.15 L 0.3 45.15 L 0.3 0.15 Z " stroke-width="0.4850927024469056"/>
</svg>