<svg version="1.1" xmlns="http://www.w3.org/2000/svg" xmlns:xlink="http://www.w3.org/1999/xlink" width="383.19083" height="361.84201" viewBox="0,0,383.19083,361.84201"><defs><linearGradient x1="236.12458" y1="29.24316" x2="236.12458" y2="382.86392" gradientUnits="userSpaceOnUse" id="color-1"><stop offset="0" stop-color="#960000"/><stop offset="1" stop-color="#ff0000"/></linearGradient><linearGradient x1="266.27319" y1="215.57811" x2="244.03813" y2="-16.6565" gradientUnits="userSpaceOnUse" id="color-2"><stop offset="0" stop-color="#ffffff" stop-opacity="0"/><stop offset="1" stop-color="#ffffff"/></linearGradient></defs><g transform="translate(-41.68579,-22.92525)"><g data-paper-data="{&quot;isPaintingLayer&quot;:true}" fill-rule="nonzero" stroke-linejoin="miter" stroke-miterlimit="10" stroke-dasharray="" stroke-dashoffset="0" style="mix-blend-mode: normal"><path d="M418.6132,204.39323c0,58.54548 9.14947,134.33922 -36.62674,165.7421c-29.11266,19.97154 -103.69001,7.68133 -142.05194,7.68133c-32.45404,0 -131.95625,12.62302 -158.18752,-2.05614c-53.52897,-29.9551 -20.49116,-107.08769 -20.49116,-171.36729c0,-54.03495 -6.07011,-123.319 33.84333,-155.12451c30.83473,-24.57103 101.82621,-18.29891 144.83535,-18.29891c46.24992,0 124.43168,-9.9717 156.16106,18.01246c35.97026,31.72447 22.51762,104.52148 22.51762,155.41097z" fill="url(#color-1)" stroke="none" stroke-width="0" stroke-linecap="butt"/><path d="M62.39791,131.24803l104.16535,-97.63235" fill="none" stroke="#9d0000" stroke-width="9" stroke-linecap="round"/><path d="M66.08807,197.2985l174.39724,-164.68214" fill="none" stroke="#aa0000" stroke-width="9" stroke-linecap="round"/><path d="M307.97328,27.42525l-250.97383,217.23469" fill="none" stroke="#ad0000" stroke-width="9" stroke-linecap="round"/><path d="M46.18579,314.83148l316.09444,-278.99208" fill="none" stroke="#b40100" stroke-width="9" stroke-linecap="round"/><path d="M399.70629,49.87432c0,0 -80.28304,73.68582 -128.10801,117.58081c-60.86233,55.86099 -207.4741,190.425 -207.4741,190.425" fill="none" stroke="#cd0000" stroke-width="9" stroke-linecap="round"/><path d="M101.16682,373.48651l313.73059,-280.15549" fill="none" stroke="#cf0000" stroke-width="9" stroke-linecap="round"/><path d="M147.56966,379.12558l272.80696,-237.73067" fill="none" stroke="#d70000" stroke-width="9" stroke-linecap="round"/><path d="M416.97464,195.67401c0,0 -25.61895,27.52691 -111.83513,103.35242c-78.68303,69.20024 -88.70805,77.62354 -88.70805,77.62354" fill="none" stroke="#cc0000" stroke-width="9" stroke-linecap="round"/><path d="M270.65477,380.26727c56.26018,-50.06171 88.97861,-78.34287 142.77729,-125.65779" fill="none" stroke="#de0000" stroke-width="9" stroke-linecap="round"/><path d="M350.73055,377.05254c23.53009,-20.93766 37.21415,-32.76589 59.71475,-52.55474" fill="none" stroke="#f50000" stroke-width="9" stroke-linecap="round"/><g stroke="#000000" stroke-width="2.5"><path d="M356.59892,193.4731c0,26.91179 9.17019,65.39723 -17.21621,81.55189c-21.30411,13.04312 -74.80784,6.51882 -104.94737,6.51882c-36.87426,0 -88.44235,11.5248 -110.84156,-7.09751c-18.58481,-15.45106 -11.32201,-58.91664 -11.32201,-80.9732c0,-21.64791 -9.52678,-61.34747 8.4455,-76.68268c22.40916,-19.12106 76.27698,-11.38803 113.71808,-11.38803c38.44249,0 97.72573,-6.3894 120.11946,13.62254c16.90872,15.11032 2.04412,53.5222 2.04412,74.44817z" fill="#ffffff" stroke-linecap="butt"/><path d="M264.1822,175.5248l72.92271,95.15093" fill="none" stroke-linecap="round"/><path d="M199.47614,165.6291l-78.05811,102.0018" fill="none" stroke-linecap="round"/><path d="M341.56669,111.25791c-10.34944,2.69656 -34.42403,46.23619 -47.44837,52.01999c-14.62736,6.49565 -33.50418,30.13624 -54.00818,31.1221c-26.1895,1.25923 -37.60597,-23.90349 -54.65913,-32.03759c-5.69526,-2.71655 -51.08113,-49.25804 -61.04636,-48.86598c-16.44704,0.64708 59.32866,-5.59563 108.70033,-7.96948c49.37166,-2.37385 114.47667,4.16377 108.46172,5.73097z" fill="#ffffff" stroke-linecap="butt"/></g><path d="M61.27149,108.49389c-0.80957,-8.45561 4.66659,-11.96081 6.68563,-17.44423c2.62836,-7.13824 2.52717,-15.5428 7.0865,-21.24303c8.36903,-10.46323 17.73041,-21.69941 43.52237,-33.5711c31.22583,-14.37284 75.25162,-4.43611 117.67773,-6.33906c48.18459,-2.16124 66.25372,-4.46302 96.69831,-0.97876c11.42625,1.30769 38.7857,-5.59961 49.54534,1.72375c26.74793,18.20553 31.03766,35.36688 33.51943,61.28775c6.14004,64.12982 -38.50805,118.66006 -149.7336,123.64889c-111.22555,4.98883 -201.86466,-39.95141 -208.00471,-104.08122z" fill="url(#color-2)" stroke="none" stroke-width="0" stroke-linecap="butt"/></g></g></svg>