<svg version="1.1" width="92" height="120" viewBox="-1 -1 92 120" xmlns="http://www.w3.org/2000/svg" xmlns:xlink="http://www.w3.org/1999/xlink">
  <!-- Exported by Scratch - http://scratch.mit.edu/ -->
  <g id="Layer_3" transform="matrix(0.8738704919815063, 0.4861588180065155, -0.4861588180065155, 0.8738704919815063, 54.8, -1.15)">
    <path id="ID0.43023113161325455" fill="#FAA51D" stroke="#000000" d="M 22.462 79.039 C 20.047 78.588 17.158 77.730 14.720 75.536 C 9.268 70.629 7.526 62.535 3.672 64.622 C -0.184 66.710 -0.110 79.787 12.025 83.816 C 16.207 85.207 20.023 85.212 23.116 85.128 C 23.927 85.103 30.833 84.474 33.195 81.054 C 35.556 77.634 33.914 76.782 33.105 76.310 C 32.295 75.838 25.878 79.677 22.462 79.039 Z " transform="matrix(0.3394572138786316, -0.4932086169719696, 0.4932086169719696, 0.3394572138786316, -22.45, 93)"/>
    <path id="ID0.3360647330991924" fill="#FFFFFF" d="M 4.236 64.877 C 2.247 65.490 1.161 69.875 2.160 73.361 C 3.158 76.851 4.794 78.383 6.023 79.759 C 7.551 80.797 5.303 77.357 7.384 75.609 C 9.459 73.865 13.117 74.695 13.117 74.695 C 13.117 74.695 10.208 70.708 8.547 68.299 C 6.975 65.988 6.359 64.375 4.236 64.877 Z " transform="matrix(0.3394572138786316, -0.4932086169719696, 0.4932086169719696, 0.3394572138786316, -22.45, 93)"/>
  </g>
  <g id="ID0.5222696494311094" transform="matrix(-0.8110015988349915, 0.5850439071655273, -0.5850439071655273, -0.8110015988349915, 122.35, 167.45)">
    <path id="ID0.5466966405510902" fill="#FAA51D" d="M 38.217 86.756 C 38.217 86.756 29.385 92.956 21.146 95.168 L 21.232 95.383 C 22.479 97.207 27.102 102.880 20.898 104.879 C 15.565 106.596 5.778 91.775 10.077 88.977 C 12.703 87.264 14.969 88.725 14.969 88.725 C 14.969 88.725 18.443 87.655 20.970 86.380 C 25.273 84.219 26.754 82.927 26.754 82.927 C 26.754 82.927 30.938 78.621 33.610 78.790 C 36.281 78.960 41.669 83.504 38.217 86.756 Z " transform="matrix(-0.5676902532577515, -0.19029906392097473, 0.19029906392097473, -0.5676902532577515, 39.5, 159.4)"/>
    <path id="ID0.6204263344407082" fill="none" stroke="#231F20" stroke-width="1.2" d="M 21.232 95.383 C 22.479 97.207 27.102 102.880 20.898 104.879 C 15.565 106.596 5.569 91.535 9.868 88.734 C 12.494 87.021 14.969 88.724 14.969 88.724 C 14.969 88.724 18.443 87.652 20.970 86.376 C 25.273 84.215 26.754 82.923 26.754 82.923 " transform="matrix(-0.5676902532577515, -0.19029906392097473, 0.19029906392097473, -0.5676902532577515, 39.5, 159.4)"/>
    <path id="ID0.9263987257145345" fill="none" stroke="#231F20" stroke-width="1.2" d="M 38.217 86.756 C 38.217 86.756 28.094 93.863 19.413 95.575 " transform="matrix(-0.5676902532577515, -0.19029906392097473, 0.19029906392097473, -0.5676902532577515, 39.5, 159.4)"/>
  </g>
  <path id="ID0.7830428401939571" fill="#FAA51D" stroke="#231F20" stroke-width="1.2" d="M 52.169 74.885 C 52.169 74.885 53.404 75.050 56.913 78.561 C 60.422 82.069 62.939 80.721 65.824 79.285 C 68.701 77.842 76.361 73.159 72.314 69.468 C 68.265 65.780 66.107 70.614 62.599 71.873 C 59.087 73.133 57.538 69.386 55.741 67.586 C 55.152 66.993 54.553 66.487 54.012 66.081 C 54.012 66.081 53.041 65.321 52.106 68.871 C 51.172 72.412 50.162 73.415 52.169 74.885 Z " transform="matrix(0.5003872513771057, -0.32878345251083374, 0.32878345251083374, 0.5003872513771057, -10.25, 79.15)"/>
  <g id="Layer_2_1_">
    <path id="ID0.9638876365497708" fill="#FAA51D" stroke="#231F20" stroke-width="1.2" d="M 46.753 82.012 C 47.941 81.100 49.150 79.610 50.704 77.299 C 52 75.372 53.404 71.721 53.404 71.721 C 54.279 69.200 55.338 65.145 51.502 64.425 C 49.949 64.134 47.423 64.327 43.832 63.649 C 40.239 62.968 37.034 61.127 34.315 65.882 C 31.597 70.639 24.725 74.153 33.259 82.445 C 33.259 82.445 38.160 86.287 44.023 92.084 C 48.854 96.859 56.068 102.686 56.068 102.686 C 56.068 102.686 75.040 104.874 75.603 101.993 C 77.525 92.203 60.826 95.082 60.826 95.082 C 60.826 95.082 56.221 91.149 54.101 89.288 C 50.623 86.229 42.976 78.517 42.976 78.517 " transform="matrix(0.5763962864875793, -0.1620284467935562, 0.1620284467935562, 0.5763962864875793, -3.1, 64.35)"/>
    <path id="ID0.8565445239655674" fill="#FFFFFF" d="M 51.253 75.434 C 51.253 75.434 53.723 72.774 48.784 70.117 C 43.845 67.460 41.571 70.100 40.045 71.638 C 37.401 74.293 43.488 78.249 43.488 78.249 L 46.664 81.453 C 46.664 81.453 48.402 79.806 49.163 78.474 C 50.036 77.260 51.253 75.434 51.253 75.434 " transform="matrix(0.5763962864875793, -0.1620284467935562, 0.1620284467935562, 0.5763962864875793, -3.1, 64.35)"/>
  </g>
  <path id="ID0.6716921986080706" fill="#FAA51D" stroke="#231F20" stroke-width="1.2" d="M 29.926 73.218 C 30.675 72.647 32.815 71.016 34.780 69.561 C 37.208 67.762 40.897 63.712 35.857 61.915 C 30.817 60.114 28.350 63.519 24.338 66.861 C 22.179 68.662 19.030 69.560 20.019 73.070 C 21.012 76.581 24.881 86.478 31.808 83.240 C 38.737 80.001 30.009 74.060 28.748 72.083 " transform="matrix(0.07824741303920746, 0.5936019420623779, -0.5936019420623779, 0.07824741303920746, 62.25, 73)"/>
  <g id="ID0.8902280498296022">
    <g id="Layer_2">
      <path id="ID0.3592168199829757" fill="#FAA51D" stroke="#231F20" stroke-width="1.2" d="M 52.709 14.156 C 51.169 14.013 47.959 13.840 46.191 13.925 C 41.463 14.150 36.967 15.853 36.967 15.853 L 23.949 7.357 L 26.184 26.263 C 26.830 25.481 15.629 39.067 22.705 50.487 C 29.785 61.913 44.938 67.005 63.693 63.279 C 82.448 59.550 86.922 48.748 85.679 43.033 C 84.437 37.319 77.357 35.210 77.357 35.210 C 77.357 35.210 77.267 30.730 74.029 25.240 C 72.103 21.972 65.681 17.199 65.681 17.199 L 62.822 5.647 L 55.370 12.851 L 52.709 14.156 Z " transform="matrix(0.5763962864875793, -0.1620284467935562, 0.1620284467935562, 0.5763962864875793, -3.35, 64.3)"/>
      <path id="ID0.8846501670777798" fill="#FFFFFF" d="M 76.420 35.066 L 73.938 33.002 L 64.823 35.663 C 64.823 35.663 64.823 39.082 60.456 40.030 C 56.086 40.981 49.245 37.753 49.245 37.753 L 41.460 41.170 C 41.460 41.170 33.023 42.098 32.721 47.251 C 32.048 58.704 46.100 63.479 51.425 63.783 C 54.330 63.950 59.660 63.445 63.702 62.642 C 81.454 59.408 86.253 48.723 85.012 43.007 C 83.770 37.293 77.034 35.811 77.034 35.811 L 76.420 35.066 Z " transform="matrix(0.5763962864875793, -0.1620284467935562, 0.1620284467935562, 0.5763962864875793, -3.35, 64.3)"/>
      <path id="ID0.2090745223686099" fill="none" stroke="#231F20" stroke-width="1.2" d="M 10.673 46.155 C 10.673 46.155 14.780 46.529 16.647 46.423 C 18.512 46.316 22.139 45.836 22.139 45.836 " transform="matrix(0.5763962864875793, -0.1620284467935562, 0.1620284467935562, 0.5763962864875793, -3.35, 64.3)"/>
      <path id="ID0.616165709681809" fill="none" stroke="#231F20" stroke-width="1.2" d="M 81.656 40.671 C 81.656 40.671 86.205 39.928 88.515 39.122 C 91.230 38.180 93.058 36.577 93.058 36.577 " transform="matrix(0.5763962864875793, -0.1620284467935562, 0.1620284467935562, 0.5763962864875793, -3.35, 64.3)"/>
      <path id="ID0.2477515242062509" fill="none" stroke="#231F20" stroke-width="1.2" d="M 22.337 41.909 C 22.337 41.909 19.953 40.132 16.220 38.479 C 12.086 36.648 9.815 36.176 9.815 36.176 " transform="matrix(0.5763962864875793, -0.1620284467935562, 0.1620284467935562, 0.5763962864875793, -3.35, 64.3)"/>
      <path id="ID0.6878497516736388" fill="none" stroke="#231F20" stroke-width="1.2" d="M 82.117 46.622 C 82.117 46.622 84.843 47.726 87.650 48.007 C 90.420 48.283 92.296 48.117 92.296 48.117 " transform="matrix(0.5763962864875793, -0.1620284467935562, 0.1620284467935562, 0.5763962864875793, -3.35, 64.3)"/>
      <path id="ID0.45768876606598496" fill="none" stroke="#000000" stroke-linecap="round" d="M 52.350 14.212 C 55.190 14.912 56.237 15.681 56.237 15.681 " transform="matrix(0.5763962864875793, -0.1620284467935562, 0.1620284467935562, 0.5763962864875793, -3.35, 64.3)"/>
      <path id="ID0.3721612663939595" fill="none" stroke="#000000" d="M 33.898 13.684 L 39.956 18.042 " transform="matrix(0.5763962864875793, -0.1620284467935562, 0.1620284467935562, 0.5763962864875793, -3.35, 64.3)"/>
    </g>
    <g id="Layer_5">
      <path id="ID0.2944911657832563" fill="#FFFFFF" stroke="#231F20" d="M 71.840 25.366 C 74.764 29.845 74.873 34.957 72.082 36.781 C 69.289 38.606 64.656 36.449 61.728 31.968 C 58.795 27.488 58.691 22.379 61.484 20.553 C 64.275 18.730 68.913 20.884 71.840 25.366 Z " transform="matrix(0.5763962864875793, -0.1620284467935562, 0.1620284467935562, 0.5763962864875793, -3.35, 64.3)"/>
      <path id="ID0.3106024251319468" fill="#231F20" d="M 71.089 32.522 C 71.089 33.602 70.287 34.478 69.289 34.478 C 68.296 34.478 67.486 33.601 67.486 32.522 C 67.486 31.442 68.296 30.564 69.289 30.564 C 70.287 30.564 71.089 31.442 71.089 32.522 " transform="matrix(0.5763962864875793, -0.1620284467935562, 0.1620284467935562, 0.5763962864875793, -3.35, 64.3)"/>
    </g>
    <g id="Layer_7">
      <path id="ID0.5587242003530264" fill="#FFFFFF" stroke="#231F20" d="M 47.867 28.619 C 50.793 33.099 50.486 38.481 47.186 40.634 C 43.884 42.793 38.835 40.906 35.910 36.426 C 32.982 31.946 33.286 26.566 36.588 24.409 C 39.891 22.253 44.938 24.137 47.867 28.619 Z " transform="matrix(0.5763962864875793, -0.1620284467935562, 0.1620284467935562, 0.5763962864875793, -3.35, 64.3)"/>
      <path id="ID0.4893275401555002" fill="#231F20" d="M 46.079 34.507 C 46.079 35.588 45.276 36.464 44.278 36.464 C 43.286 36.464 42.475 35.586 42.475 34.507 C 42.475 33.427 43.286 32.550 44.278 32.550 C 45.274 32.550 46.079 33.427 46.079 34.507 " transform="matrix(0.5763962864875793, -0.1620284467935562, 0.1620284467935562, 0.5763962864875793, -3.35, 64.3)"/>
    </g>
    <path id="ID0.3530631815083325" fill="#5E4A42" stroke="#000000" d="M 59.766 37.926 C 61.620 37.926 64.321 37.642 64.463 38.495 C 64.606 39.350 62.754 42.698 61.475 42.840 C 60.192 42.982 55.350 40.487 55.280 38.921 C 55.206 37.355 58.055 37.926 59.766 37.926 Z " transform="matrix(0.5763962864875793, -0.1620284467935562, 0.1620284467935562, 0.5763962864875793, -3.35, 64.3)"/>
    <g id="Layer_4">
      <path id="ID0.1258972999639809" fill="none" stroke="#231F20" stroke-width="1.2" d="M 46.774 45.235 C 46.774 45.235 57.121 48.289 60.991 49.132 C 64.859 49.974 71.842 50.816 71.842 50.816 C 71.842 50.816 63.852 61.061 54.514 58.460 C 45.176 55.863 45.345 49.975 46.774 45.235 Z " transform="matrix(0.5763962864875793, -0.1620284467935562, 0.1620284467935562, 0.5763962864875793, -3.35, 64.3)"/>
    </g>
  </g>
  <g id="ID0.2683739080093801">
    <path id="ID0.6671341862529516" fill="none" stroke="#000000" stroke-width="2" stroke-linecap="round" d="M 253 164 L 254.250 263.750 L 252.250 267.500 L 249.750 268.250 L 246.200 268.300 L 243.300 266.650 L 237.450 249.950 " transform="matrix(0.5987369418144226, 0, 0, 0.5987369418144226, -103.65, -56.2)"/>
    <path id="ID0.8884457643143833" fill="#CCCC00" stroke="#000000" stroke-width="2" stroke-linecap="round" d="M 242 96 C 263.468 98.314 285.764 109.482 299 126 C 309.954 140.744 316.094 170.978 307 180 C 298.964 187.952 282.580 164.736 264 162 C 259.742 161.525 253.974 172.688 243 171 C 234.504 169.715 230.253 155.173 222 156 C 201.630 158.518 174.948 189.373 166 180 C 156.357 169.873 171.053 132.587 186 116 C 198.785 101.814 222.318 93.884 242 96 Z " transform="matrix(0.5987369418144226, 0, 0, 0.5987369418144226, -96.9, -56.2)"/>
  </g>
  <path id="ID0.9722963888198137" fill="#FAA51D" stroke="#231F20" stroke-width="1" d="M 356.700 178.650 C 357.141 178.650 357.541 178.829 357.831 179.119 C 358.121 179.409 358.300 179.809 358.300 180.250 C 358.300 180.691 358.121 181.091 357.831 181.381 C 357.541 181.671 357.141 181.850 356.700 181.850 C 356.259 181.850 355.859 181.671 355.569 181.381 C 355.279 181.091 355.100 180.691 355.100 180.250 C 355.100 179.809 355.279 179.409 355.569 179.119 C 355.859 178.829 356.259 178.650 356.700 178.650 Z " transform="matrix(0.5987369418144226, 0, 0, 0.5987369418144226, -166.7, -16.25)"/>
  <path id="ID0.9722963888198137" fill="#FAA51D" stroke="#231F20" stroke-width="1" d="M 356.700 178.650 C 357.141 178.650 357.541 178.829 357.831 179.119 C 358.121 179.409 358.300 179.809 358.300 180.250 C 358.300 180.691 358.121 181.091 357.831 181.381 C 357.541 181.671 357.141 181.850 356.700 181.850 C 356.259 181.850 355.859 181.671 355.569 181.381 C 355.279 181.091 355.100 180.691 355.100 180.250 C 355.100 179.809 355.279 179.409 355.569 179.119 C 355.859 178.829 356.259 178.650 356.700 178.650 Z " transform="matrix(0.5987369418144226, 0, 0, 0.5987369418144226, -164.95, -17)"/>
  <path id="ID0.9722963888198137" fill="#FAA51D" stroke="#231F20" stroke-width="1" d="M 356.700 178.650 C 357.141 178.650 357.541 178.829 357.831 179.119 C 358.121 179.409 358.300 179.809 358.300 180.250 C 358.300 180.691 358.121 181.091 357.831 181.381 C 357.541 181.671 357.141 181.850 356.700 181.850 C 356.259 181.850 355.859 181.671 355.569 181.381 C 355.279 181.091 355.100 180.691 355.100 180.250 C 355.100 179.809 355.279 179.409 355.569 179.119 C 355.859 178.829 356.259 178.650 356.700 178.650 Z " transform="matrix(0.5987369418144226, 0, 0, 0.5987369418144226, -163.95, -15.25)"/>
  <path id="ID0.9722963888198137" fill="#FAA51D" stroke="#231F20" stroke-width="1" d="M 356.700 178.650 C 357.141 178.650 357.541 178.829 357.831 179.119 C 358.121 179.409 358.300 179.809 358.300 180.250 C 358.300 180.691 358.121 181.091 357.831 181.381 C 357.541 181.671 357.141 181.850 356.700 181.850 C 356.259 181.850 355.859 181.671 355.569 181.381 C 355.279 181.091 355.100 180.691 355.100 180.250 C 355.100 179.809 355.279 179.409 355.569 179.119 C 355.859 178.829 356.259 178.650 356.700 178.650 Z " transform="matrix(0.5987369418144226, 0, 0, 0.5987369418144226, -164.7, -13.5)"/>
</svg>