<svg version="1.1" xmlns="http://www.w3.org/2000/svg" xmlns:xlink="http://www.w3.org/1999/xlink" width="149" height="35" viewBox="0,0,149,35"><g transform="translate(-165.5,-162.5)"><g data-paper-data="{&quot;isPaintingLayer&quot;:true}" fill-rule="nonzero" stroke="none" stroke-linecap="butt" stroke-linejoin="miter" stroke-miterlimit="10" stroke-dasharray="" stroke-dashoffset="0" style="mix-blend-mode: normal"><g stroke-width="0"><path d="M167.5,197.5v-33h147v33z" fill="#6e8197"/><path d="M165.5,195.5v-33h147v33z" fill="#ffffff"/></g><text transform="matrix(0.39437 0 0 0.39437 213.16667 169.8595)" font-size="40"  fill="#000000" fill-rule="nonzero" stroke="none" stroke-width="1" stroke-linecap="butt" stroke-linejoin="miter" stroke-miterlimit="10" stroke-dasharray="" stroke-dashoffset="0" font-family="Helvetica" font-weight="normal" text-anchor="start" style="mix-blend-mode: normal" >Pink</text><path d="M174.76031,180.61665c-1.9536,1.61167 -2.76798,7.20917 -2.41666,9.48526c0.12792,0.82878 1.75823,0.73791 3.26693,0.70863c0.06003,-3.15144 0.64082,-7.32957 1.78147,-11.02676c-0.9117,0.14069 -1.8882,0.21947 -2.63173,0.83287zM171.88987,192.15775c-3.02736,-1.65914 -1.0722,-11.51936 1.91701,-13.31289c0.40231,-0.24139 2.94102,-1.22021 4.38453,-1.32846c0.55371,-1.37549 1.19898,-2.62207 1.93834,-3.6422c1.16177,-1.60293 1.82971,-3.20133 3.67681,-4.01516c3.52796,-1.41118 9.83075,-3.73377 13.47237,-1.4261c3.51914,2.23004 4.97451,7.28251 5.60507,11.17362c1.34465,3.31049 1.56032,6.2533 1.55353,9.80107c-0.0015,0.78193 0.10037,2.27697 -0.5137,2.86859c-2.39562,2.30799 -10.54355,0.92502 -13.68521,0.92502c-3.98295,0 -8.42221,0.52996 -12.33085,-0.23572l-0.6758,0.01894c0,0 -0.20739,0 -0.43092,-0.09562c-1.62584,0.30549 -4.2175,-0.35091 -4.91118,-0.73109zM178.29039,191.0524c3.74871,0.76809 8.12044,0.19784 11.94823,0.19784c3.2097,0 9.5522,1.19266 12.32807,-0.37564c0.01578,-0.00892 -0.08015,-2.76602 -0.08015,-2.76763c0,-2.94567 -0.4004,-5.2371 -1.48135,-7.97469c-0.61114,-3.58013 -1.73706,-7.864 -4.80025,-10.07056c-2.77156,-1.99649 -8.98858,0.53469 -11.67379,1.60878c-1.31454,0.437 -2.0035,2.22773 -2.82651,3.35527c-2.72623,3.735 -4.14589,11.30422 -4.1484,15.90328c0.11429,0.03088 0.21644,0.06894 0.304,0.11564z" fill="#000000" stroke-width="0.5"/><path d="M174.7596,180.56666c0.74352,-0.61339 1.7418,-0.68753 2.6535,-0.82822c-1.14064,3.69719 -1.73546,7.97017 -1.79549,11.12161c-1.50871,0.02928 -3.16905,0.11505 -3.29697,-0.71373c-0.35132,-2.2761 0.48534,-7.96799 2.43894,-9.57966z" data-paper-data="{&quot;noHover&quot;:false,&quot;origItem&quot;:[&quot;Path&quot;,{&quot;applyMatrix&quot;:true,&quot;segments&quot;:[[[174.76031,180.61665],[0,0],[-1.9536,1.61167]],[[172.34365,190.10192],[-0.35132,-2.2761],[0.12792,0.82878]],[[175.61058,190.81054],[-1.50871,0.02928],[0.06003,-3.15144]],[[177.39205,179.78378],[-1.14064,3.69719],[-0.9117,0.14069]],[[174.76032,180.61665],[0.74352,-0.61339],[0,0]]],&quot;closed&quot;:true,&quot;fillColor&quot;:[0,0,0,1]}]}" fill="#ff4cf0" stroke-width="0.5"/><path d="M177.82241,191.07738c-0.08756,-0.04671 -0.19028,-0.08543 -0.30457,-0.11631c0.00251,-4.59906 1.41875,-12.22769 4.14498,-15.9627c0.82301,-1.12755 1.52725,-2.93325 2.8418,-3.37025c2.68521,-1.07409 8.95413,-3.60599 11.72569,-1.6095c3.06318,2.20656 4.21372,6.53184 4.82486,10.11197c1.08096,2.73759 1.47402,5.05681 1.47402,8.00247c0,0.00161 0.09176,2.76453 0.07598,2.77345c-2.77588,1.5683 -9.15603,0.39371 -12.36574,0.39371c-3.82779,0 -8.23757,0.55363 -11.98628,-0.21446z" data-paper-data="{&quot;noHover&quot;:false,&quot;origItem&quot;:[&quot;Path&quot;,{&quot;applyMatrix&quot;:true,&quot;segments&quot;:[[[178.29039,191.0524],[0,0],[3.74871,0.76809]],[[190.23862,191.25025],[-3.82779,0],[3.2097,0]],[[202.56669,190.8746],[-2.77588,1.5683],[0.01578,-0.00892]],[[202.48654,188.10697],[0,0.00161],[0,-2.94567]],[[201.00519,180.13228],[1.08096,2.73759],[-0.61114,-3.58013]],[[196.20495,170.06172],[3.06318,2.20656],[-2.77156,-1.99649]],[[184.53116,171.6705],[2.68521,-1.07409],[-1.31454,0.437]],[[181.70465,175.02577],[0.82301,-1.12755],[-2.72623,3.735]],[[177.55624,190.92905],[0.00251,-4.59906],[0.11429,0.03088]],[[177.86025,191.04469],[-0.08756,-0.04671],[0,0]]],&quot;closed&quot;:true,&quot;fillColor&quot;:[0,0,0,1]}]}" fill="#ff4cf0" stroke-width="0.5"/><path d="M186.71598,175.68803c0.0731,0 0.14433,0.00804 0.21284,0.02328l0.06287,-0.05716l0.01492,0.00103l0.06423,-0.03211l0.0642,-0.04279l0.01675,-0.01675l0.00215,-0.01074l0.02363,-0.01504l0.01922,-0.01922l0.1922,-0.11532l0.1891,-0.12034l0.02579,-0.0086l0.02402,-0.01441l0.01057,0.00289l0.06895,-0.02298l0.58833,-0.29416l0.06855,-0.01523l0.05923,-0.03769l0.1951,-0.06503l0.15635,-0.01203l0.15213,-0.03803h5.98306l0.1165,0.02912h0.12009l0.14363,0.03591h1.50574l0.09426,0.02357l0.09706,-0.00462l0.23045,0.0461h0.55512l0.00912,-0.00607l0.02735,0.00607h0.02718l0.21745,0.05437l0.21881,0.04862l0.02431,0.01216l0.02718,0.00679l0.00166,0.00291l0.13738,0.03435l0.09479,0.05056l0.10487,0.02331l0.7804,0.3902l0.06047,0.05183l0.04859,0.00271l0.12584,0.14682l0.14682,0.12584l0.00271,0.04859l0.05183,0.06047l0.03657,0.07314l0.00951,0.00544l0.00679,0.02718l0.01216,0.02431l0.04862,0.21881l0.03677,0.14708l0.01621,0.03241l0.00951,0.00544l0.00679,0.02718l0.01216,0.02431l0.04862,0.21881l0.05437,0.21745v0.02718l0.00607,0.02735l-0.00607,0.00912v0.1613l0.02708,0.05416l0.01523,0.06855l0.03769,0.05923l0.06503,0.1951l0.01203,0.15635l0.03803,0.15213v0.0597l0.01067,0.04802l0.05437,0.21745v0.02718l0.00607,0.02735l-0.00012,0.00017l0.13907,0.41721l0.01203,0.15635l0.03803,0.15213v0.00723l0.0603,0.15073l0.02496,0.18306l0.04481,0.17923v0.15794l0.00813,0.00464l0.00679,0.02718l0.01216,0.02431l0.04862,0.21881l0.05437,0.21745v0.02718l0.00607,0.02735l-0.00607,0.00912v2.34397l0.00607,0.00912l-0.00607,0.02735v0.02718l-0.05437,0.21745l-0.04862,0.21881l-0.01216,0.02431l-0.00679,0.02718l-0.00951,0.00544l-0.0706,0.1412l-0.0431,0.12933l-0.06995,0.10992l-0.04382,0.1227l-0.05761,0.0864l-0.02372,0.07117l-0.03769,0.05923l-0.01523,0.06855l-0.06503,0.13007l-0.05771,0.06732l-0.0344,0.08172l-0.14232,0.18977l-0.0257,0.05139l-0.10205,0.11906l-0.08068,0.13446l-0.17701,0.17701l-0.01726,0.02015l-0.00271,0.04859l-0.14682,0.12584l-0.12584,0.14682l-0.04859,0.00271l-0.06047,0.05183l-0.07575,0.03788l-0.14457,0.09638l-0.1227,0.04382l-0.10992,0.06995l-0.02579,0.0086l-0.11028,0.06616l-0.1891,0.12034l-0.02579,0.0086l-0.02402,0.01441l-0.01057,-0.00289l-0.06895,0.02298l-0.19813,0.09906l-0.06855,0.01523l-0.05923,0.03769l-0.363,0.121l-0.29855,0.11941l-0.18306,0.02496l-0.17923,0.04481h-2.1461l-0.09426,-0.02357l-0.09706,0.00462l-0.23045,-0.0461h-0.87891l-0.09426,-0.02357l-0.09706,0.00462l-0.23045,-0.0461h-0.68381l-0.132,-0.033l-0.13598,-0.00454l-0.32387,-0.09253h-0.51371l-0.15213,-0.03803l-0.15635,-0.01203l-0.1951,-0.06503l-0.02475,-0.01575l-0.02907,-0.00397l-0.29855,-0.11941l-0.30538,-0.10179l-0.59077,-0.11815l-0.05571,-0.02639l-0.06146,-0.00472l-0.33258,-0.11086l-0.17089,-0.03418h-0.16355l-0.15213,-0.03803l-0.15635,-0.01203l-0.32472,-0.10824l-0.10451,-0.02613l-0.21881,-0.04862l-0.02431,-0.01216l-0.02718,-0.00679l-0.00544,-0.00951l-0.03241,-0.01621l-0.11633,-0.02908l-0.07197,0.01963l-0.10749,-0.06449l-0.1216,-0.0304l-0.037,-0.06476l-0.03432,-0.02059l-0.06771,-0.01692l-0.1473,-0.07856l-0.15721,-0.05615l-0.1951,-0.13007l-0.06536,-0.07189l-0.08332,-0.04998l-0.04694,-0.04694l-0.07873,-0.06748l-0.13446,-0.08068l-0.13007,-0.13007l-0.04998,-0.08332l-0.07189,-0.06536l-0.13007,-0.1951l-0.05615,-0.15721l-0.07856,-0.1473l-0.03906,-0.15625l-0.05372,-0.10742l-0.00951,-0.00544l-0.00679,-0.02718l-0.01216,-0.02431l-0.04862,-0.21881l-0.05437,-0.21745v-0.02718l-0.00607,-0.02735l0.00607,-0.00912v-0.19115l-0.01067,-0.04802l-0.05437,-0.21745v-0.02718l-0.00607,-0.02735l0.00607,-0.00912v-0.06108l-0.01067,-0.04802l-0.05437,-0.21745v-0.02718l-0.00607,-0.02735l0.00542,-0.00813l-0.01002,-0.04506l-0.05437,-0.21745v-0.02718l-0.00607,-0.02735l0.00607,-0.00912v-0.01137l-0.03591,-0.14363v-0.05272l-0.03725,-0.02129l-0.0304,-0.1216l-0.06449,-0.10749l0.01963,-0.07197l-0.04668,-0.1867v-0.27011l-0.03591,-0.14363v-0.12009l-0.02912,-0.1165v-0.5853l0.03803,-0.15213l0.01203,-0.15635l0.009,-0.02701l-0.00012,-0.00017l0.00607,-0.02735v-0.02718l0.05437,-0.21745l0.01067,-0.04802v-0.57997l0.00952,-0.03807l-0.01478,-0.02956l0.0739,-0.20694l0.05329,-0.21318l0.02869,-0.0164l0.0132,-0.03696l0.08837,-0.13255l0.03706,-0.14824l0.018,-0.03375l0.00294,-0.03814l0.06503,-0.1951l0.03769,-0.05923l0.01523,-0.06855l0.02708,-0.05416v-0.28998c0,-0.16626 0.0416,-0.32282 0.11495,-0.45982l0.00698,-0.02793l0.01286,-0.00735c0.16968,-0.28752 0.48266,-0.4804 0.8407,-0.4804zM187.52346,177.75012l-0.03403,0.06806l-0.03127,0.09379l-0.05594,0.22379l-0.05056,0.09479l-0.02331,0.10487l-0.06503,0.13007l-0.02708,0.03159v0.37896l0.00607,0.00912l-0.00607,0.02735v0.02718l-0.05437,0.21745l-0.01067,0.04802v0.0597l-0.03803,0.15213l-0.01203,0.15635l-0.01497,0.04492v0.3069l0.03591,0.14363v0.12009l0.02912,0.1165v0.02787l0.00813,0.00464l0.0304,0.1216l0.06449,0.10749l-0.01963,0.07197l0.04668,0.1867v0.07501l0.03591,0.14363v0.12009l0.02912,0.1165v0.0597l0.01067,0.04802l0.05437,0.21745v0.02718l0.00607,0.02735l-0.00542,0.00813l0.01002,0.04506l0.05437,0.21745v0.02718l0.00607,0.02735l-0.00607,0.00912v0.06108l0.01067,0.04802l0.05437,0.21745v0.02718l0.00607,0.02735l-0.00607,0.00912v0.09626l0.02708,0.05416l0.02331,0.10487l0.05056,0.09479l0.01955,0.07822l0.04463,0.03825l0.13446,0.08068l0.0474,0.0474l0.08471,0.02117l0.00489,0.00261l0.01718,-0.00468l0.20776,0.12466l0.04828,0.02575l0.02791,0.00698l0.21881,0.04862l0.02431,0.01216l0.02718,0.00679l0.00544,0.00951l0.07769,0.03884l0.1278,0.00983l0.24002,0.08h0.10183l0.09426,0.02357l0.09706,-0.00462l0.32517,0.06503l0.05571,0.02639l0.06146,0.00472l0.33258,0.11086l0.59077,0.11815l0.05571,0.02639l0.06146,0.00472l0.3902,0.13007l0.02475,0.01575l0.02907,0.00397l0.29855,0.11941l0.01773,0.00591h0.49203l0.132,0.033l0.13598,0.00454l0.32387,0.09253h0.64378l0.09426,0.02357l0.09706,-0.00462l0.23045,0.0461h0.87891l0.09426,0.02357l0.09706,-0.00462l0.23045,0.0461h1.86164l0.15073,-0.0603l0.02907,-0.00397l0.02475,-0.01575l0.32442,-0.10814l0.19813,-0.09906l0.06855,-0.01523l0.05923,-0.03769l0.02579,-0.0086l0.11028,-0.06616l0.1891,-0.12034l0.02579,-0.0086l0.02402,-0.01441l0.01057,0.00289l0.01078,-0.00359l0.0864,-0.05761l0.00317,-0.00113l0.04325,-0.07208l0.17701,-0.17701l0.02314,-0.02699l0.0344,-0.08172l0.13915,-0.18551l0.04098,-0.12296l0.06995,-0.10992l0.04382,-0.1227l0.05761,-0.0864l0.02372,-0.07117l0.03769,-0.05923l0.01523,-0.06855l0.02708,-0.05416v-2.00872l-0.00813,-0.00464l-0.00679,-0.02718l-0.01216,-0.02431l-0.04862,-0.21881l-0.05437,-0.21745v-0.02718l-0.00607,-0.02735l0.00607,-0.00912v-0.13869l-0.0603,-0.15073l-0.02496,-0.18306l-0.04481,-0.17923v-0.0368l-0.14504,-0.43512l-0.01203,-0.15635l-0.03803,-0.15213v-0.0597l-0.01067,-0.04802l-0.05437,-0.21745v-0.02718l-0.00107,-0.0048l-0.06259,-0.12516l-0.00951,-0.00544l-0.00679,-0.02718l-0.01216,-0.02431l-0.04862,-0.21881l-0.05437,-0.21745v-0.02718l-0.00607,-0.02735l0.00607,-0.00912v-0.15932l-0.00813,-0.00464l-0.00679,-0.02718l-0.01216,-0.02431l-0.01863,-0.08384l-0.29477,-0.14738l-0.15625,-0.03906l-0.06732,-0.03591h-0.54152l-0.09426,-0.02357l-0.09706,0.00462l-0.23045,-0.0461h-1.52924l-0.1165,-0.02912h-0.12009l-0.14363,-0.03591h-5.69772l-0.57443,0.28721l-0.06855,0.01523l-0.05923,0.03769l-0.02579,0.0086l-0.00139,0.00083l-0.06536,0.07189l-0.17465,0.11644l-0.01422,0.02842l-0.3272,0.38172l-0.2448,0.0136z" fill="#000000" stroke-width="0.5"/><path d="M187.49228,177.66745l0.24528,-0.01452l0.32933,-0.38532l0.01436,-0.02864l0.1756,-0.11781l0.06585,-0.07256l0.0014,-0.00084l0.02591,-0.00875l0.05957,-0.03815l0.06883,-0.0156l0.5779,-0.29124l5.755,-0.01067l0.14519,0.03667l0.1212,0.00059l0.11768,0.02979l1.5394,0.00777l0.23173,0.04741l0.09745,-0.00419l0.09475,0.02412l0.54348,0.00234l0.06768,0.03638l0.15688,0.0399l0.29613,0.14932l0.01898,0.08439l0.01228,0.02449l0.00691,0.02737l0.00817,0.0047l0.00058,0.16026l-0.00605,0.00915l0.00619,0.02754l0.0001,0.02735l0.05525,0.21901l0.04946,0.22043l0.01226,0.02452l0.00689,0.02739l0.00954,0.00551l0.06309,0.12623l0.00108,0.00484l0.00009,0.02738l0.0551,0.21918l0.01082,0.04841l0.00017,0.06014l0.03849,0.15338l0.01245,0.15759l0.1461,0.43893l0.00007,0.0371l0.04514,0.18079l0.02524,0.18462l0.0605,0.15208l0.00015,0.13986l-0.00607,0.00919l0.0061,0.02759l0.00002,0.02741l0.05452,0.21933l0.0487,0.22069l0.01217,0.02452l0.00679,0.02741l0.00813,0.00468l-0.00242,2.0249l-0.02723,0.05462l-0.01541,0.06908l-0.03788,0.05975l-0.02393,0.07174l-0.0579,0.08717l-0.04421,0.12368l-0.07036,0.11088l-0.04142,0.12392l-0.13996,0.18718l-0.03474,0.08236l-0.02327,0.02724l-0.17798,0.17873l-0.0436,0.07268l-0.00318,0.00115l-0.08681,0.05827l-0.01082,0.00365l-0.01059,-0.00286l-0.02414,0.01459l-0.02589,0.00875l-0.19007,0.12177l-0.11086,0.06698l-0.0259,0.00875l-0.05957,0.03815l-0.06882,0.0156l-0.19922,0.10044l-0.32615,0.11013l-0.02493,0.01594l-0.02921,0.00412l-0.15168,0.06128l-1.87407,0.00924l-0.23244,-0.04511l-0.09806,0.00507l-0.09513,-0.02319l-0.88927,0.00309l-0.23338,-0.04565l-0.09836,0.00476l-0.09551,-0.02346l-0.65258,-0.00015l-0.3284,-0.09322l-0.13778,-0.00493l-0.13381,-0.03346l-0.49792,-0.00204l-0.01795,-0.006l-0.30235,-0.12121l-0.02939,-0.00414l-0.02509,-0.01593l-0.39459,-0.13277l-0.06201,-0.00511l-0.05633,-0.02684l-0.59571,-0.12227l-0.33509,-0.11342l-0.06179,-0.00509l-0.05613,-0.02687l-0.32694,-0.06719l-0.09741,0.00415l-0.09473,-0.0242l-0.10219,-0.0005l-0.24116,-0.08167l-0.12821,-0.01047l-0.07807,-0.03944l-0.00549,-0.0096l-0.02728,-0.00695l-0.02442,-0.01235l-0.21953,-0.04985l-0.028,-0.00714l-0.04848,-0.02612l-0.20862,-0.12631l-0.0172,0.00465l-0.00491,-0.00265l-0.08493,-0.02162l-0.04764,-0.0479l-0.13493,-0.0817l-0.04481,-0.03867l-0.01982,-0.07885l-0.0509,-0.09564l-0.02364,-0.10573l-0.02726,-0.05465l-0.00026,-0.097l0.00606,-0.00917l-0.00615,-0.02758l-0.00007,-0.0274l-0.05495,-0.2193l-0.01078,-0.04843l-0.00014,-0.06157l0.00606,-0.00918l-0.00614,-0.02759l-0.00006,-0.02741l-0.05482,-0.21935l-0.0101,-0.04545l0.00541,-0.00819l-0.00612,-0.02759l-0.00005,-0.02741l-0.05471,-0.21937l-0.01073,-0.04844l-0.00007,-0.06021l-0.02925,-0.11753l-0.00011,-0.12113l-0.03602,-0.1449l-0.00004,-0.07566l-0.04675,-0.18833l0.01962,-0.07259l-0.06449,-0.10842l-0.03038,-0.12264l-0.00813,-0.00468l0.00001,-0.02811l-0.02908,-0.11748l0.00006,-0.12111l-0.03581,-0.14481l0.00031,-0.30944l0.01503,-0.04531l0.01225,-0.15764l0.03828,-0.15341l0.0001,-0.06018l0.01076,-0.04842l0.05482,-0.21926l0.00006,-0.02739l0.00614,-0.02758l-0.00606,-0.00917l0.00089,-0.38181l0.02718,-0.03189l0.06544,-0.13118l0.02362,-0.10568l0.05089,-0.0956l0.05669,-0.22549l0.03161,-0.09451l0.0343,-0.06862z" data-paper-data="{&quot;noHover&quot;:false,&quot;origItem&quot;:[&quot;Path&quot;,{&quot;applyMatrix&quot;:true,&quot;segments&quot;:[[187.52346,177.75012],[187.48944,177.81818],[187.45817,177.91197],[187.40223,178.13577],[187.35167,178.23056],[187.32836,178.33543],[187.26333,178.4655],[187.23625,178.49709],[187.23625,178.87605],[187.24232,178.88517],[187.23625,178.91252],[187.23625,178.93971],[187.18188,179.15715],[187.17122,179.20517],[187.17122,179.26487],[187.13319,179.417],[187.12115,179.57335],[187.10618,179.61828],[187.10618,179.92518],[187.14209,180.06881],[187.14209,180.18891],[187.17122,180.30541],[187.17122,180.33328],[187.17935,180.33792],[187.20974,180.45952],[187.27423,180.56701],[187.2546,180.63897],[187.30128,180.82567],[187.30128,180.90068],[187.33719,181.04431],[187.33719,181.1644],[187.36632,181.2809],[187.36632,181.3406],[187.37698,181.38862],[187.43135,181.60607],[187.43135,181.63325],[187.43742,181.66061],[187.432,181.66874],[187.44201,181.71379],[187.49638,181.93124],[187.49638,181.95842],[187.50246,181.98577],[187.49638,181.99489],[187.49638,182.05597],[187.50705,182.10399],[187.56142,182.32144],[187.56142,182.34862],[187.56749,182.37597],[187.56142,182.38509],[187.56142,182.48135],[187.5885,182.53551],[187.6118,182.64038],[187.66236,182.73518],[187.68191,182.8134],[187.72654,182.85165],[187.861,182.93233],[187.90839,182.97973],[187.99311,183.0009],[187.998,183.00352],[188.01518,182.99883],[188.22293,183.12349],[188.27121,183.14924],[188.29913,183.15623],[188.51794,183.20485],[188.54225,183.21701],[188.56943,183.2238],[188.57487,183.23331],[188.65256,183.27214],[188.78036,183.28198],[189.02038,183.36198],[189.12221,183.36198],[189.21647,183.38555],[189.31353,183.38093],[189.63869,183.44596],[189.6944,183.47235],[189.75586,183.47708],[190.08844,183.58793],[190.67921,183.70608],[190.73492,183.73247],[190.79638,183.7372],[191.18658,183.86726],[191.21133,183.88301],[191.2404,183.88698],[191.53895,184.00639],[191.55668,184.0123],[192.04871,184.0123],[192.18071,184.0453],[192.3167,184.04984],[192.64056,184.14237],[193.28434,184.14237],[193.3786,184.16593],[193.47565,184.16132],[193.70611,184.20741],[194.58502,184.20741],[194.67928,184.23098],[194.77633,184.22636],[195.00678,184.27246],[196.86842,184.27246],[197.01916,184.21216],[197.04823,184.20819],[197.07298,184.19244],[197.3974,184.0843],[197.59553,183.98525],[197.66408,183.97001],[197.72331,183.93232],[197.7491,183.92372],[197.85939,183.85756],[198.04849,183.73722],[198.07428,183.72862],[198.09831,183.71421],[198.10888,183.7171],[198.11966,183.71351],[198.20607,183.6559],[198.20924,183.65477],[198.25249,183.58269],[198.42949,183.40568],[198.45263,183.37869],[198.48704,183.29697],[198.62618,183.11146],[198.66717,182.98849],[198.73711,182.87858],[198.78093,182.75587],[198.83854,182.66947],[198.86226,182.59829],[198.89996,182.53906],[198.91519,182.47052],[198.94227,182.41636],[198.94227,180.40764],[198.93414,180.40299],[198.92735,180.37581],[198.91519,180.3515],[198.86657,180.13269],[198.8122,179.91525],[198.8122,179.88806],[198.80613,179.86071],[198.8122,179.85159],[198.8122,179.7129],[198.7519,179.56217],[198.72694,179.37911],[198.68214,179.19988],[198.68214,179.16308],[198.5371,178.72796],[198.52507,178.57161],[198.48704,178.41948],[198.48704,178.35978],[198.47637,178.31176],[198.422,178.09432],[198.422,178.06713],[198.42094,178.06233],[198.35835,177.93717],[198.34884,177.93173],[198.34205,177.90455],[198.32989,177.88024],[198.28127,177.66143],[198.2269,177.44398],[198.2269,177.4168],[198.22083,177.38945],[198.2269,177.38033],[198.2269,177.22101],[198.21877,177.21637],[198.21198,177.18918],[198.19982,177.16487],[198.1812,177.08103],[197.88643,176.93365],[197.73018,176.8946],[197.66286,176.85868],[197.12134,176.85868],[197.02708,176.83512],[196.93002,176.83973],[196.69957,176.79364],[195.17033,176.79364],[195.05383,176.76452],[194.93374,176.76452],[194.79011,176.7286],[189.09239,176.7286],[188.51796,177.01582],[188.44942,177.03105],[188.39019,177.06874],[188.36439,177.07734],[188.363,177.07817],[188.29764,177.15006],[188.12299,177.26649],[188.10877,177.29491],[187.78158,177.67663],[187.53678,177.69024]],&quot;closed&quot;:true,&quot;fillColor&quot;:[0,0,0,1],&quot;strokeWidth&quot;:0.5}]}" fill="#d6efff" stroke-width="0.25"/></g></g></svg>