<svg xmlns="http://www.w3.org/2000/svg" xmlns:xlink="http://www.w3.org/1999/xlink" version="1.1" width="95.55578947056472" height="40.172595500838156" viewBox="0.3253026009145402 0.8716025353017472 95.55578947056472 40.172595500838156">
  <!-- Exported by Scratch - http://scratch.mit.edu/ -->
  <g id="ID0.4450822318904102">
    <path id="ID0.9904805179685354" fill="#42210B" d="M 28.2545 40.324 C 27.1454 40.324 26.2236 40.0791 25.489 39.575 C 24.7976 39.1141 24.2214 38.4947 23.7461 37.7313 C 23.3428 37.0687 22.9683 36.4637 22.6514 35.9164 L 15.3486 24.6669 L 10.8978 28.9305 L 10.8978 35.3834 C 10.8978 36.9823 10.4944 38.221 9.7166 39.042 C 8.9244 39.8919 7.8873 40.3096 6.663 40.3096 C 5.9428 40.3096 5.2514 40.1223 4.5888 39.7478 C 3.9262 39.3733 3.4077 38.8548 3.0476 38.2066 C 2.7739 37.6593 2.6155 37.0543 2.5579 36.3917 C 2.5147 35.8156 2.4859 34.9945 2.4859 33.9142 L 2.4859 9.3843 C 2.4859 7.8287 2.8604 6.6044 3.595 5.7689 C 4.3584 4.9191 5.3955 4.4726 6.6774 4.4726 C 7.9305 4.4726 8.9532 4.9047 9.7454 5.7545 C 10.5233 6.59 10.9122 7.8143 10.9122 9.3987 L 10.9122 18.8189 L 22.5506 6.6908 C 23.2275 5.985 23.7893 5.4664 24.279 5.1207 C 24.8696 4.703 25.633 4.487 26.5404 4.487 C 27.7216 4.487 28.701 4.8471 29.4644 5.5673 C 30.2279 6.3019 30.6168 7.1949 30.6168 8.2608 C 30.6168 9.4707 30.0262 10.6663 28.8451 11.7898 L 21.2542 18.9773 L 30.1846 31.7825 C 30.8616 32.7475 31.3946 33.6118 31.7403 34.3464 C 32.1292 35.153 32.3164 35.974 32.3164 36.7518 C 32.3164 37.7313 31.9275 38.5811 31.1785 39.3013 C 30.4583 39.9639 29.4644 40.324 28.2545 40.324 L 28.2545 40.324 Z " stroke-width="1.4403948782795621"/>
    <path id="ID0.8979540774598718" fill="#42210B" d="M 40.0514 40.324 C 38.899 40.324 37.934 39.8919 37.1994 39.0565 C 36.4936 38.2498 36.1479 37.1263 36.1479 35.7147 L 36.1479 18.1419 C 36.1479 16.7159 36.508 15.5924 37.2138 14.8146 C 37.9484 14.0224 38.899 13.6047 40.0514 13.6047 C 41.1893 13.6047 42.1543 14.008 42.9033 14.8002 C 43.6379 15.578 44.0124 16.6439 44.0124 17.9547 L 44.0124 35.7147 C 44.0124 37.1695 43.6379 38.3074 42.9033 39.0997 C 42.1543 39.9063 41.1893 40.324 40.0514 40.324 L 40.0514 40.324 Z M 40.1234 12.4812 C 39.0575 12.4812 38.1356 12.1499 37.3578 11.4873 C 36.5512 10.7959 36.1479 9.8164 36.1479 8.6065 C 36.1479 7.483 36.5512 6.5467 37.3722 5.8121 C 38.15 5.1063 39.0863 4.7462 40.1234 4.7462 C 41.1172 4.7462 42.0103 5.0775 42.7881 5.7113 C 43.6091 6.3883 44.0268 7.3678 44.0268 8.6065 C 44.0268 9.802 43.6235 10.7671 42.8313 11.4729 C 42.0679 12.1355 41.1605 12.4812 40.1234 12.4812 L 40.1234 12.4812 Z " stroke-width="1.4403948782795621"/>
    <path id="ID0.5064732450991869" fill="#42210B" d="M 52.5396 40.324 C 51.3873 40.324 50.4222 39.8919 49.6876 39.0565 C 48.9818 38.2498 48.6361 37.1263 48.6361 35.7147 L 48.6361 9.0674 C 48.6361 7.627 48.9818 6.5035 49.6732 5.7113 C 50.3934 4.8903 51.3585 4.4726 52.5396 4.4726 C 53.7207 4.4726 54.6858 4.8759 55.4204 5.6825 C 56.1406 6.4747 56.5007 7.6126 56.5007 9.0674 L 56.5007 35.7147 C 56.5007 37.1839 56.1262 38.3219 55.406 39.0997 C 54.6714 39.9063 53.7063 40.324 52.5396 40.324 L 52.5396 40.324 Z " stroke-width="1.4403948782795621"/>
    <path id="ID0.33389825699850917" fill="#42210B" d="M 65.0278 40.324 C 63.8755 40.324 62.9104 39.8919 62.1758 39.0565 C 61.47 38.2498 61.1243 37.1263 61.1243 35.7147 L 61.1243 9.0674 C 61.1243 7.627 61.47 6.5035 62.1614 5.7113 C 62.8816 4.8903 63.8467 4.4726 65.0278 4.4726 C 66.2089 4.4726 67.174 4.8759 67.9086 5.6825 C 68.6288 6.4747 68.9889 7.6126 68.9889 9.0674 L 68.9889 35.7147 C 68.9889 37.1839 68.6144 38.3219 67.8942 39.0997 C 67.1596 39.9063 66.1945 40.324 65.0278 40.324 L 65.0278 40.324 Z " stroke-width="1.4403948782795621"/>
    <path id="ID0.1450405791401863" fill="#42210B" d="M 83.4937 40.324 C 81.1746 40.324 79.1581 39.9639 77.4872 39.2437 C 75.7731 38.5091 74.4768 37.5584 73.6414 36.4349 C 72.7771 35.2826 72.345 34.0727 72.345 32.8772 C 72.345 31.9697 72.6763 31.1775 73.3245 30.5293 C 73.9727 29.8811 74.7937 29.5498 75.7587 29.5498 C 76.623 29.5498 77.3144 29.7803 77.8329 30.2412 C 78.2506 30.6157 78.6395 31.1487 78.9996 31.7969 C 79.547 32.7475 80.2096 33.4677 80.9586 33.9286 C 81.6932 34.3752 82.7447 34.6056 84.0986 34.6056 C 85.1501 34.6056 85.9999 34.3752 86.6337 33.9431 C 87.4403 33.3813 87.4403 32.9204 87.4403 32.7763 C 87.4403 31.7537 86.9794 31.3647 86.6337 31.1487 C 85.8991 30.7022 84.6172 30.2556 82.8455 29.8379 C 80.6849 29.305 78.8988 28.7288 77.5304 28.1383 C 76.09 27.5045 74.9089 26.6547 74.0303 25.6176 C 73.1084 24.5229 72.6331 23.1545 72.6331 21.5701 C 72.6331 20.1729 73.0508 18.8333 73.8862 17.5946 C 74.7073 16.3702 75.9172 15.3908 77.5016 14.6706 C 79.0428 13.9648 80.901 13.6191 83.0471 13.6191 C 84.7036 13.6191 86.216 13.7919 87.5556 14.1376 C 88.9095 14.4833 90.0619 14.973 90.9837 15.578 C 91.92 16.1974 92.669 16.9032 93.1731 17.6666 C 93.7061 18.4876 93.9797 19.3086 93.9797 20.1153 C 93.9797 21.0659 93.6484 21.8581 93.0003 22.4775 C 92.3665 23.0825 91.4879 23.385 90.3932 23.385 C 89.5577 23.385 88.8375 23.1401 88.2326 22.6504 C 87.7428 22.247 87.1955 21.6709 86.5761 20.8931 C 86.1728 20.3745 85.7119 19.9712 85.1789 19.6687 C 84.6892 19.3807 83.969 19.2366 83.0471 19.2366 C 82.1109 19.2366 81.3331 19.4239 80.7425 19.8128 C 80.1087 20.2161 80.0367 20.605 80.0367 20.8499 C 80.0367 21.2244 80.1808 21.498 80.512 21.7573 C 80.9586 22.103 81.6067 22.4055 82.4134 22.636 C 83.3208 22.9096 84.5596 23.2265 86.1584 23.6154 C 88.1317 24.0907 89.7594 24.6813 91.0269 25.3583 C 92.3521 26.0641 93.3748 26.9139 94.0662 27.9078 C 94.7864 28.9305 95.1609 30.1116 95.1609 31.408 C 95.1609 33.2661 94.6999 34.8937 93.7781 36.2477 C 92.8562 37.6017 91.4879 38.6243 89.7162 39.3157 C 87.9733 39.9927 85.8847 40.324 83.4937 40.324 L 83.4937 40.324 Z " stroke-width="1.4403948782795621"/>
    <path id="ID0.8227497637271881" fill="#FBB03B" stroke="#42210B" stroke-width="1.1523159026236498" d="M 26.8141 37.4432 C 25.705 37.4432 24.7832 37.1983 24.0486 36.6942 C 23.3572 36.2333 22.781 35.6139 22.3057 34.8505 C 21.9024 34.1879 21.5279 33.583 21.211 33.0356 L 13.9082 21.7861 L 9.4574 26.0497 L 9.4574 32.5027 C 9.4574 34.1015 9.0541 35.3402 8.2762 36.1613 C 7.484 37.0111 6.4469 37.4288 5.2226 37.4288 C 4.5024 37.4288 3.811 37.2416 3.1484 36.8671 C 2.4859 36.4925 1.9673 35.974 1.6072 35.3258 C 1.3335 34.7785 1.1751 34.1735 1.1175 33.5109 C 1.0743 32.9348 1.0455 32.1137 1.0455 31.0335 L 1.0455 6.5035 C 1.0455 4.9479 1.42 3.7236 2.1546 2.8881 C 2.918 2.0383 3.9551 1.5918 5.237 1.5918 C 6.4902 1.5918 7.5128 2.0239 8.305 2.8737 C 9.0829 3.7092 9.4718 4.9335 9.4718 6.5179 L 9.4718 15.9381 L 21.1102 3.81 C 21.7871 3.1042 22.3489 2.5857 22.8386 2.24 C 23.4292 1.8222 24.1926 1.6062 25.1001 1.6062 C 26.2812 1.6062 27.2606 1.9663 28.0241 2.6865 C 28.7875 3.4211 29.1764 4.3141 29.1764 5.38 C 29.1764 6.59 28.5858 7.7855 27.4047 8.909 L 19.8138 16.0966 L 28.7443 28.9017 C 29.4212 29.8667 29.9542 30.731 30.2999 31.4656 C 30.6888 32.2722 30.876 33.0932 30.876 33.871 C 30.876 34.8505 30.4871 35.7003 29.7381 36.4205 C 29.0179 37.0831 28.0241 37.4432 26.8141 37.4432 L 26.8141 37.4432 Z "/>
    <path id="ID0.6063922927714884" fill="#FBB03B" stroke="#42210B" stroke-width="1.1523159026236498" d="M 38.611 37.4432 C 37.4586 37.4432 36.4936 37.0111 35.759 36.1757 C 35.0532 35.369 34.7075 34.2455 34.7075 32.8339 L 34.7075 15.2611 C 34.7075 13.8351 35.0676 12.7116 35.7734 11.9338 C 36.508 11.1416 37.4586 10.7239 38.611 10.7239 C 39.7489 10.7239 40.7139 11.1272 41.4629 11.9194 C 42.1975 12.6972 42.572 13.7631 42.572 15.0739 L 42.572 32.8339 C 42.572 34.2887 42.1975 35.4267 41.4629 36.2189 C 40.7139 37.0255 39.7489 37.4432 38.611 37.4432 L 38.611 37.4432 Z M 38.683 9.6004 C 37.6171 9.6004 36.6952 9.2691 35.9174 8.6065 C 35.1108 7.9151 34.7075 6.9356 34.7075 5.7257 C 34.7075 4.6022 35.1108 3.666 35.9318 2.9313 C 36.7096 2.2256 37.6459 1.8655 38.683 1.8655 C 39.6768 1.8655 40.5699 2.1967 41.3477 2.8305 C 42.1687 3.5075 42.5864 4.487 42.5864 5.7257 C 42.5864 6.9212 42.1831 7.8863 41.3909 8.5921 C 40.6275 9.2547 39.7201 9.6004 38.683 9.6004 L 38.683 9.6004 Z "/>
    <path id="ID0.8453252827748656" fill="#FBB03B" stroke="#42210B" stroke-width="1.1523159026236498" d="M 51.0992 37.4432 C 49.9469 37.4432 48.9818 37.0111 48.2472 36.1757 C 47.5414 35.369 47.1957 34.2455 47.1957 32.8339 L 47.1957 6.1866 C 47.1957 4.7462 47.5414 3.6227 48.2328 2.8305 C 48.953 2.0095 49.9181 1.5918 51.0992 1.5918 C 52.2803 1.5918 53.2454 1.9951 53.98 2.8017 C 54.7002 3.5939 55.0603 4.7318 55.0603 6.1866 L 55.0603 32.8339 C 55.0603 34.3031 54.6858 35.4411 53.9656 36.2189 C 53.231 37.0255 52.2659 37.4432 51.0992 37.4432 L 51.0992 37.4432 Z "/>
    <path id="ID0.9104336299933493" fill="#FBB03B" stroke="#42210B" stroke-width="1.1523159026236498" d="M 63.5874 37.4432 C 62.4351 37.4432 61.47 37.0111 60.7354 36.1757 C 60.0296 35.369 59.6839 34.2455 59.6839 32.8339 L 59.6839 6.1866 C 59.6839 4.7462 60.0296 3.6227 60.721 2.8305 C 61.4412 2.0095 62.4063 1.5918 63.5874 1.5918 C 64.7685 1.5918 65.7336 1.9951 66.4682 2.8017 C 67.1884 3.5939 67.5485 4.7318 67.5485 6.1866 L 67.5485 32.8339 C 67.5485 34.3031 67.174 35.4411 66.4538 36.2189 C 65.7192 37.0255 64.7541 37.4432 63.5874 37.4432 L 63.5874 37.4432 Z "/>
    <path id="ID0.7200119183398783" fill="#FBB03B" stroke="#42210B" stroke-width="1.1523159026236498" d="M 82.0533 37.4432 C 79.7342 37.4432 77.7177 37.0831 76.0468 36.3629 C 74.3327 35.6283 73.0364 34.6777 72.201 33.5541 C 71.3367 32.4018 70.9046 31.1919 70.9046 29.9964 C 70.9046 29.0889 71.2359 28.2967 71.8841 27.6485 C 72.5323 27.0003 73.3533 26.6691 74.3183 26.6691 C 75.1826 26.6691 75.874 26.8995 76.3925 27.3604 C 76.8102 27.7349 77.1991 28.2679 77.5592 28.9161 C 78.1066 29.8667 78.7692 30.5869 79.5182 31.0479 C 80.2528 31.4944 81.3043 31.7248 82.6582 31.7248 C 83.7097 31.7248 84.5596 31.4944 85.1933 31.0623 C 85.9999 30.5005 85.9999 30.0396 85.9999 29.8955 C 85.9999 28.8729 85.539 28.484 85.1933 28.2679 C 84.4587 27.8214 83.1768 27.3748 81.4051 26.9571 C 79.2445 26.4242 77.4584 25.848 76.09 25.2575 C 74.6496 24.6237 73.4685 23.7739 72.5899 22.7368 C 71.668 21.6421 71.1927 20.2737 71.1927 18.6893 C 71.1927 17.2921 71.6104 15.9525 72.4458 14.7138 C 73.2669 13.4894 74.4768 12.51 76.0612 11.7898 C 77.6024 11.084 79.4606 10.7383 81.6067 10.7383 C 83.2632 10.7383 84.7756 10.9111 86.1152 11.2568 C 87.4692 11.6025 88.6215 12.0923 89.5433 12.6972 C 90.4796 13.3166 91.2286 14.0224 91.7327 14.7858 C 92.2657 15.6068 92.5393 16.4278 92.5393 17.2345 C 92.5393 18.1851 92.2081 18.9773 91.5599 19.5967 C 90.9261 20.2017 90.0475 20.5042 88.9528 20.5042 C 88.1173 20.5042 87.3971 20.2593 86.7922 19.7696 C 86.3024 19.3663 85.7551 18.7901 85.1357 18.0123 C 84.7324 17.4937 84.2715 17.0904 83.7385 16.7879 C 83.2488 16.4999 82.5286 16.3558 81.6067 16.3558 C 80.6705 16.3558 79.8927 16.5431 79.3021 16.932 C 78.6683 17.3353 78.5963 17.7242 78.5963 17.9691 C 78.5963 18.3436 78.7404 18.6172 79.0716 18.8765 C 79.5182 19.2222 80.1663 19.5247 80.973 19.7552 C 81.8804 20.0288 83.1192 20.3457 84.718 20.7346 C 86.6913 21.21 88.319 21.8005 89.5865 22.4775 C 90.9117 23.1833 91.9344 24.0331 92.6258 25.027 C 93.346 26.0497 93.7205 27.2308 93.7205 28.5272 C 93.7205 30.3853 93.2595 32.0129 92.3377 33.3669 C 91.4158 34.7209 90.0475 35.7435 88.2758 36.4349 C 86.5329 37.1119 84.4443 37.4432 82.0533 37.4432 L 82.0533 37.4432 Z "/>
  </g>
</svg>