<svg version="1.1" xmlns="http://www.w3.org/2000/svg" xmlns:xlink="http://www.w3.org/1999/xlink" width="371.62748" height="369.56566" viewBox="0,0,371.62748,369.56566"><defs><linearGradient x1="236.12449" y1="29.24306" x2="236.12449" y2="382.86379" gradientUnits="userSpaceOnUse" id="color-1"><stop offset="0" stop-color="#000000"/><stop offset="1" stop-color="#00b3ef"/></linearGradient><linearGradient x1="97.59735" y1="-85.00622" x2="97.59735" y2="150.24648" gradientUnits="userSpaceOnUse" id="color-2"><stop offset="0" stop-color="#005921"/><stop offset="1" stop-color="#00ff14"/></linearGradient><linearGradient x1="97.59735" y1="-85.00622" x2="97.59735" y2="150.24648" gradientUnits="userSpaceOnUse" id="color-3"><stop offset="0" stop-color="#005921"/><stop offset="1" stop-color="#00ff14"/></linearGradient><linearGradient x1="219.2195" y1="136.10178" x2="289.54535" y2="252.36295" gradientUnits="userSpaceOnUse" id="color-4"><stop offset="0" stop-color="#ffffff"/><stop offset="1" stop-color="#f1f1f1"/></linearGradient><linearGradient x1="240.22228" y1="8.32441" x2="240.22228" y2="366.92017" gradientUnits="userSpaceOnUse" id="color-5"><stop offset="0" stop-color="#ffffff"/><stop offset="1" stop-color="#ffffff" stop-opacity="0"/></linearGradient><linearGradient x1="266.27318" y1="215.57809" x2="244.03812" y2="-16.65652" gradientUnits="userSpaceOnUse" id="color-6"><stop offset="0" stop-color="#ffffff" stop-opacity="0"/><stop offset="1" stop-color="#ffffff"/></linearGradient></defs><g transform="translate(-50.31852,-22.15089)"><g data-paper-data="{&quot;isPaintingLayer&quot;:true}" fill-rule="nonzero" stroke-linejoin="miter" stroke-miterlimit="10" stroke-dasharray="" stroke-dashoffset="0" style="mix-blend-mode: normal"><path d="M418.61311,204.3931c0,58.54548 9.14947,134.33922 -36.62674,165.7421c-29.11266,19.97154 -103.69001,7.68133 -142.05194,7.68133c-32.45404,0 -131.95625,12.62302 -158.18752,-2.05614c-53.52897,-29.9551 -20.49116,-107.08769 -20.49116,-171.36729c0,-54.03495 -6.07011,-123.319 33.84333,-155.12451c30.83473,-24.57103 101.82621,-18.29891 144.83535,-18.29891c46.24992,0 124.43168,-9.9717 156.16106,18.01246c35.97026,31.72447 22.51762,104.52148 22.51762,155.41097z" fill="url(#color-1)" stroke="none" stroke-width="0" stroke-linecap="butt"/><path d="" fill="url(#color-2)" stroke="#009c42" stroke-width="12.5" stroke-linecap="round"/><path d="" fill="url(#color-3)" stroke="#009c42" stroke-width="12.5" stroke-linecap="round"/><path d="M65.59254,135.24135l104.16535,-97.63235" fill="none" stroke="#00495a" stroke-width="12.5" stroke-linecap="round"/><path d="M66.08803,197.29839l174.39724,-164.68214" fill="none" stroke="#00637c" stroke-width="12.5" stroke-linecap="round"/><path d="M66.58352,251.84794l250.97383,-217.23469" fill="none" stroke="#007996" stroke-width="12.5" stroke-linecap="round"/><path d="M56.56852,324.41551l316.09444,-278.99208" fill="none" stroke="#0196bb" stroke-width="12.5" stroke-linecap="round"/><path d="M407.69298,74.44745c0,0 -77.41696,71.05526 -123.5346,113.38321c-58.68956,53.86677 -200.06734,183.62689 -200.06734,183.62689" fill="none" stroke="#00aed9" stroke-width="12.5" stroke-linecap="round"/><path d="M125.12708,385.46655l290.56892,-259.47256" fill="none" stroke="#00add7" stroke-width="12.5" stroke-linecap="round"/><path d="M413.18849,189.55255l-218.49684,190.4035" fill="none" stroke="#01a6cf" stroke-width="12.5" stroke-linecap="round"/><path d="M412.18248,242.60059c0,0 -19.08907,20.51072 -83.33006,77.00946c-58.62792,51.56215 -66.09772,57.83848 -66.09772,57.83848" fill="none" stroke="#00b1dd" stroke-width="12.5" stroke-linecap="round"/><path d="M320.17276,382.66317c36.74801,-32.6993 58.11903,-51.17198 93.25924,-82.07713" fill="none" stroke="#00b8e4" stroke-width="12.5" stroke-linecap="round"/><g stroke="none" stroke-linecap="butt"><path d="M315.21106,157.43741c19.41994,32.10463 5.85188,71.17037 -27.74284,91.49167c-11.29659,6.83325 -25.90549,13.00598 -44.24995,17.94605c-29.64462,7.98314 -62.53664,14.58078 -75.91111,0.14239c-2.96195,-3.19757 28.58368,-32.12665 26.24664,-35.9902c-19.41994,-32.10463 -4.70783,-53.77116 28.8869,-74.09245c7.40725,-4.48061 8.67558,-9.55003 16.64199,-11.2045c2.34209,-0.48641 8.06693,-19.64604 10.41787,-19.89696c1.40002,-0.14942 9.62839,-39.18612 14.6514,-47.45705c0.21211,-0.34926 2.84116,-3.96623 6.49102,-5.86971c7.21794,-3.76433 16.37458,-7.44668 11.47098,-0.46922c-2.98302,4.24462 14.44224,21.58834 15.48989,20.64037c1.33146,-1.20478 8.46093,-5.86673 7.73232,-8.92859c-0.17297,-0.72688 -4.54636,-6.13619 -9.04367,-6.11118c-1.3021,0.00724 -3.31092,-1.79207 -4.52715,-1.15679c-2.99914,1.56655 -4.71683,6.46008 -4.94799,6.01268c-0.7773,-1.50445 -8.967,-7.73574 -9.3384,-9.01779c-0.36579,-1.2627 -6.77273,0.74773 -4.52512,-1.39592c2.88531,-2.75185 14.75495,-9.59099 15.94251,-9.70318c9.80851,-0.92665 14.99781,7.92318 15.96346,7.95019c0.65246,0.01825 22.78277,-10.9457 34.10753,-15.81225c4.13644,-1.77754 6.07025,-1.11995 6.07025,-1.11995c0,0 1.17799,2.40874 0.15124,4.63133c-1.49441,3.23495 -8.25377,12.9082 -8.25377,12.9082c0,0 10.9298,-6.77205 14.92591,-8.35668c3.48229,-1.38088 7.72212,-0.62424 7.72212,-0.62424c0,0 1.05048,1.96569 -1.96883,5.7348c-9.35185,11.67422 -31.56952,36.3308 -31.67243,38.27581c-0.38926,7.35744 -17.54817,20.58147 -23.96195,24.13514c-3.66434,2.0303 -22.88891,-1.20951 -21.44006,-0.69903c14.09994,4.96792 26.48074,14.49669 34.67125,28.03706z" fill="url(#color-4)" stroke-width="0"/><path d="M259.00187,146.48384c1.16001,-0.70169 1.90177,0.29554 2.02262,0.4753c3.43723,0.93848 6.10438,2.4878 8.87179,4.84268c0.93819,0.81358 1.65034,1.85681 2.43976,2.81542c0.7743,0.94025 2.18782,1.1207 3.11428,1.91144c0.48503,0.41397 0.61112,1.1308 1.02799,1.61334c0.39507,0.45731 0.98971,0.71417 1.38075,1.17493c2.0987,2.47285 3.51265,5.58589 5.57113,8.08681c1.12715,1.36941 2.57537,2.45655 3.67323,3.84955c3.48516,4.42213 5.79172,9.80098 5.52495,15.44347c-0.60424,1.52412 -0.74779,3.25479 -1.61609,4.64551c-1.82898,2.92937 -4.29973,4.01472 -7.25859,5.27309c-2.79007,1.18658 -6.30016,2.97261 -9.50273,1.72857c-2.1254,-0.82561 -3.11592,-3.43003 -4.18558,-5.22253c-0.24902,-0.41729 -0.5252,-0.8083 -0.81956,-1.18197c0.26472,2.0145 0.23169,4.06379 0.12071,6.14813c-0.54631,1.38094 -1.33061,3.544 -2.09898,4.92842c-0.82284,1.48256 -1.95219,2.78694 -2.7182,4.29966c-0.45588,0.90027 -0.61463,1.94584 -1.15379,2.79884c-0.44451,0.70326 -1.21812,1.14082 -1.74389,1.7856c-0.64667,0.79303 -0.88059,1.99399 -1.76201,2.51377c-0.30847,0.18191 -5.65768,0.67509 -6.1451,0.60233c-0.75907,-0.11331 -1.38016,-0.67891 -2.10205,-0.93948c-1.22568,-0.44242 -2.52395,-0.73187 -3.66382,-1.3633c-1.11502,-0.61766 -2.08225,-1.32616 -2.97527,-2.09185c0.26296,1.06009 0.65335,2.82281 0.72287,3.13189c0.6645,2.95409 1.04644,6.45729 -0.49034,9.26506c-0.99461,1.81719 -1.99965,2.12136 -3.69059,3.16178c-1.87059,1.12005 -2.52513,1.74453 -4.80115,2.08572c-5.53909,0.83034 -11.78764,-1.69912 -15.40078,-6.06485c-0.49938,-0.6034 -0.73847,-1.39099 -1.22304,-2.00635c-2.16033,-2.7434 -4.71967,-5.17098 -6.83439,-7.9678c-1.3983,-1.84932 -1.6747,-3.89384 -2.85547,-5.81434c0,0 -0.76892,-1.27116 0.50224,-2.04008c1.27116,-0.76892 2.04008,0.50224 2.04008,0.50224c1.0862,1.81966 1.38007,3.89157 2.69156,5.57131c2.14369,2.7456 4.6356,5.18865 6.79135,7.91172c0.4628,0.5846 0.68222,1.33813 1.15083,1.91808c2.99297,3.70411 8.19069,5.62355 12.75974,5.04293c1.54189,-0.19594 2.35334,-0.8926 3.64118,-1.68091c0.81941,-0.48527 2.09809,-0.99627 2.58369,-1.9736c1.134,-2.28229 0.77363,-4.89271 0.23691,-7.25596c-0.23706,-1.04381 -0.07831,-2.23973 -0.64994,-3.1447c-0.37927,-0.60043 -1.10434,-0.90999 -1.54544,-1.46658c-1.79264,-2.262 -2.95132,-4.99032 -3.92196,-7.66606l0.01289,-0.09756l-0.03604,0.00815l-0.3921,-1.73498c-0.15445,-0.61606 0.10079,-1.28617 0.67261,-1.63206c0.70204,-0.42466 1.61542,-0.1998 2.04008,0.50224l0.8902,1.47166l-0.21078,0.1275c1.86634,1.8574 3.48885,3.92844 5.20658,5.95309c2.03544,2.39912 4.93451,3.49566 7.73941,4.5465c0.57207,0.21432 1.03691,0.72314 1.64057,0.8169c0.71912,0.11169 1.44493,-0.18545 2.1716,-0.22483c0.63441,-0.03438 1.36873,0.34292 1.90602,0.00385c0.58267,-0.36771 0.56014,-1.27258 0.97548,-1.82231c0.4485,-0.59361 1.19027,-0.94004 1.58707,-1.56938c0.95646,-1.51698 1.4687,-3.28541 2.42513,-4.8024c1.29864,-2.05976 2.19428,-3.96832 3.12332,-6.21983c0.09924,-3.07615 0.08088,-6.10631 -1.2176,-9.00317c-0.47758,-1.06545 -1.17931,-2.11093 -1.8534,-3.13927c-0.52805,-0.29355 -1.05925,-0.57773 -1.35172,-1.08195c-0.04739,-0.0817 -0.09045,-0.16507 -0.12967,-0.24991l-0.03867,0.02339l-0.8902,-1.47166c-0.42466,-0.70204 -0.1998,-1.61542 0.50224,-2.04008c0.57182,-0.34589 1.28384,-0.26087 1.75779,0.16192l1.35466,1.15273l-0.06629,0.07791l0.2351,0.09092c0.13452,0.21754 0.27465,0.43732 0.41841,0.65903c1.5316,0.82639 1.52316,1.99066 2.73404,3.4491c1.12204,1.35143 2.52342,2.49196 3.6604,3.83164c1.21838,1.43559 1.86131,3.38872 2.96734,4.90554c0.95304,1.30702 3.24601,0.80881 4.58985,0.56364c1.21727,-0.22208 2.26424,-0.99893 3.4029,-1.48319c2.41466,-1.02692 4.35069,-1.62584 5.88345,-4.01655c0.72629,-1.13283 0.79193,-2.57609 1.30321,-3.82083c0.18262,-4.68751 -2.12875,-9.40459 -4.99966,-13.03264c-1.08605,-1.37248 -2.52483,-2.4365 -3.63019,-3.79348c-0.56029,-0.68783 -1.55832,-2.78029 -2.07714,-3.43388c-0.48989,-0.61715 -1.18053,-1.05401 -1.67748,-1.66548c-0.71131,-0.87522 -1.00456,-2.04785 -1.74429,-2.89918c-0.39638,-0.45618 -0.98894,-0.71483 -1.38075,-1.17493c-0.33024,-0.38779 -0.36387,-1.00062 -0.75242,-1.32998c-1.02683,-0.87042 -2.49723,-1.1872 -3.38985,-2.1948c-0.71822,-0.81074 -1.26877,-1.78593 -2.10215,-2.47776c-2.5686,-2.18571 -4.98402,-3.57048 -8.25835,-4.37658l-1.21276,-1.16419c0,0 -0.76892,-1.27116 0.50224,-2.04008z" fill="#dfdfdf" stroke-width="0.5"/><path d="M146.784,317.27715c-1.38406,-2.28809 0.90404,-3.67215 0.90404,-3.67215l1.85604,-1.08236c1.8958,-0.43679 3.84649,-0.66567 5.80328,-0.84081c-0.28938,-0.26399 -0.57436,-0.51935 -0.85579,-0.75883c-1.7637,-1.50079 -3.30253,-3.06204 -5.41664,-4.01875l-1.44875,-1.52731c0,0 -1.38406,-2.28809 0.90404,-3.67215c1.90019,-1.14942 3.17689,0.23377 3.55515,0.73579c2.20361,1.19668 3.92772,2.75461 5.87221,4.40923c0.9205,0.78328 1.8467,1.55993 2.76151,2.34985c0.58177,0.50235 1.04146,1.37443 1.808,1.43124c1.30679,0.09685 3.42188,-1.08604 4.7782,-1.20398c0.68645,-0.05969 1.37766,0.13746 2.06513,0.09091c1.80881,-0.12248 3.15119,-1.17912 4.73737,-1.80296c1.2632,-0.49682 2.68376,-0.52466 3.9329,-1.05584c2.10268,-0.89412 4.12194,-2.51676 6.08726,-3.70557c2.17529,-1.31582 4.27561,-2.41053 6.0574,-4.24082c1.41279,-1.4205 2.68082,-3.28318 4.18032,-4.59175c0.43196,-0.37696 1.0326,-0.52153 1.47166,-0.8902c2.20568,-1.85206 4.61043,-5.57605 5.29546,-8.35859c0.69654,-2.8293 0.11029,-6.33176 -0.10294,-9.15161c-0.1692,-2.23764 0.16079,-4.45079 -0.026,-6.70931c0,0 -0.21467,-2.6655 2.45083,-2.88017c2.6655,-0.21467 2.88017,2.45083 2.88017,2.45083c0.17472,2.22202 -0.16702,4.47612 0.02203,6.66256c0.29088,3.36417 0.80081,7.52788 -0.03089,10.9062c-0.97177,3.94728 -3.9701,8.48937 -7.02326,11.15378c-0.43196,0.37696 -1.0326,0.52153 -1.47166,0.8902c-1.37722,1.15642 -2.57621,3.00086 -3.85035,4.28624c-2.14725,2.13076 -4.51687,3.49559 -7.08464,5.04882c-2.15653,1.30448 -4.35443,3.02585 -6.66713,4.0095c-1.31148,0.55781 -2.80049,0.60208 -4.12179,1.13622c-2.06968,0.83668 -3.92259,1.95752 -6.26063,2.16949c-0.68623,0.06221 -1.3779,-0.14095 -2.06513,-0.09091c-1.86749,0.136 -3.94571,1.47249 -5.83216,1.1939c-0.02125,-0.00314 -0.04247,-0.0064 -0.06366,-0.00978c-0.84873,2.00553 -1.60328,3.95479 -2.99489,5.69134l-1.14309,0.85183c0,0 -2.28809,1.38406 -3.67215,-0.90404c-1.38406,-2.28809 0.90404,-3.67215 0.90404,-3.67215l-0.16198,0.25836c0.25871,-0.26968 0.48965,-0.57616 0.6997,-0.90878c-0.29974,0.04232 -0.60018,0.07823 -0.90185,0.10303c-1.02137,0.08396 -2.06995,-0.08987 -3.07189,0.12547l-1.08728,0.69804c0,0 -2.28809,1.38406 -3.67215,-0.90404z" fill="#fffffe" stroke-width="0.5"/><path d="M151.80783,341.65257c-0.21467,-2.6655 2.45083,-2.88017 2.45083,-2.88017l0.10846,0.27449c2.40032,-1.45194 4.80065,-2.90389 7.20097,-4.35583c-0.28316,-0.21469 -0.57365,-0.45798 -0.87627,-0.73199l-0.9951,-0.17131c0,0 -2.5966,-0.63925 -1.95735,-3.23585c0.63925,-2.5966 3.23585,-1.95735 3.23585,-1.95735l2.15405,0.60397c1.2932,1.04992 1.71213,2.01454 3.21226,1.42539c0,0 1.17577,-0.26572 2.1269,0.34906c0.74169,-0.31706 1.44502,-0.75567 2.18308,-1.08297c1.58542,-0.70309 3.34704,-0.95236 4.933,-1.65424c2.01704,-0.89266 3.73268,-2.35125 5.60301,-3.52051c4.53498,-2.8351 9.06997,-5.67021 13.60496,-8.50531c3.02332,-1.89007 6.04343,-3.78529 9.06997,-5.67021c1.87085,-1.16515 3.85286,-2.23464 5.42662,-3.77766c1.633,-3.71215 3.66199,-6.81025 5.80543,-10.16151c0.74253,-1.16094 1.02641,-2.57375 1.75639,-3.74262c1.12774,-1.80578 2.08796,-3.09529 2.43004,-5.33415c0.54801,-3.58663 -0.75084,-6.90458 -1.39598,-10.31931c-0.28508,-1.50889 -0.36784,-3.06718 -0.83151,-4.53108c0,0 -0.78779,-2.55546 1.76767,-3.34324c2.55546,-0.78779 3.34325,1.76767 3.34325,1.76767c0.49972,1.65632 0.657,3.3972 0.97291,5.09817c0.74599,4.01666 2.0733,7.88555 1.43757,12.08835c-0.4461,2.94914 -1.68801,5.06122 -3.22676,7.46828c-0.74226,1.16111 -1.02641,2.57374 -1.75639,3.74261c-0.99223,1.58881 -2.21812,3.0538 -3.22805,4.63282c-1.081,1.69014 -1.81252,3.89889 -2.69178,5.69915c-4.47744,4.57225 -10.63202,7.53417 -16.04428,10.91772c-4.53498,2.8351 -9.06997,5.6702 -13.60496,8.50531c-2.03034,1.26929 -3.91519,2.81304 -6.09897,3.79513c-1.63205,0.73397 -3.45144,0.99169 -5.0839,1.72475c-1.39404,0.626 -2.75007,1.3951 -4.23526,1.75488l-0.12506,0.01211c-0.16499,0.38098 -0.28749,0.77138 -0.36113,1.30861c-0.12108,0.88331 0.07558,1.83274 -0.24908,2.6631c-0.33323,0.85229 -1.69474,2.206 -2.45836,3.00199l-0.17131,0.9951c0,0 -0.63925,2.5966 -3.23585,1.95735c-2.5966,-0.63925 -1.95735,-3.23585 -1.95735,-3.23585l0.46098,-1.64409c-1.12403,0.67992 -2.24806,1.35984 -3.37209,2.03976l-2.44722,0.48032c0,0 -2.6655,0.21467 -2.88017,-2.45083z" fill="#fffffe" stroke-width="0.5"/><path d="M111.00486,330.33c0.08729,0.76092 -0.10693,1.72908 -1.30067,2.45116c-2.28809,1.38406 -3.67215,-0.90404 -3.67215,-0.90404l-0.26984,-3.30217c1.65248,-2.61747 3.68916,-5.05782 5.19683,-7.74161c0.71907,-1.28001 0.80458,-2.83694 1.42492,-4.16759c0.25535,-0.54773 0.877,-0.85497 1.17493,-1.38075c0.70594,-1.24585 0.32024,-3.37902 0.64986,-4.6348c0.43157,-1.64421 1.69934,-3.42315 2.58234,-4.82766c0,0 1.42756,-2.2612 3.68877,-0.83364c2.2612,1.42756 0.83364,3.68876 0.83364,3.68876c-0.02546,0.04014 -1.7849,2.67586 -1.91154,3.25104c-0.42277,1.92009 -0.14082,3.92253 -1.08252,5.79375c-0.27167,0.53983 -0.91653,0.83445 -1.17493,1.38075c-0.64864,1.37136 -0.76088,2.97083 -1.49438,4.29874c-1.33146,2.41045 -3.08946,4.62501 -4.64525,6.92806z" fill="#f3f3f3" stroke-width="0.5"/><path d="M122.2517,338.34683c-2.5966,-0.63925 -1.95735,-3.23585 -1.95735,-3.23585l0.89275,-2.03213c2.66814,-2.6827 5.46488,-4.91221 8.13358,-7.60015c0,0 1.88409,-1.89767 3.78177,-0.01358c1.89767,1.88409 0.01358,3.78177 0.01358,3.78177c-2.67769,2.69699 -5.47498,4.9181 -8.13358,7.60015l0.5051,-0.45756c0,0 -0.63925,2.5966 -3.23585,1.95735z" fill="#f3f3f3" stroke-width="0.5"/><path d="M135.27195,349.90228c-2.5966,-0.63925 -1.95735,-3.23585 -1.95735,-3.23585l0.75383,-1.88103c1.25735,-1.47762 2.76506,-2.86591 3.95999,-4.37177c0.5982,-0.75386 0.92002,-1.71833 1.58795,-2.41116c0.54031,-0.56045 1.30689,-0.84627 1.96033,-1.2694c0,0 2.28809,-1.38406 3.67215,0.90404c1.38406,2.28809 -0.90404,3.67215 -0.90404,3.67215c-0.95752,0.49776 -1.46655,1.58677 -2.13253,2.43592c-1.21382,1.54766 -2.78265,2.99256 -4.07067,4.50622l0.36619,-0.30646c0,0 -0.63925,2.5966 -3.23585,1.95735z" fill="#f3f3f3" stroke-width="0.5"/></g><path d="M418.94825,187.62229c0,99.02348 -80.01835,179.29789 -178.72597,179.29789c-98.70764,0 -178.72597,-80.2744 -178.72597,-179.29789c0,-45.78041 0.58649,-105.57144 28.73226,-137.2574c32.73381,-36.85109 98.42197,-27.02548 151.49522,-27.02548c50.52257,0 124.67743,-5.99668 157.18377,27.81393c31.00239,32.24632 20.0407,88.12969 20.0407,136.46894z" fill="url(#color-5)" stroke="none" stroke-width="0" stroke-linecap="butt"/><path d="M61.27148,108.49387c-0.80957,-8.45561 4.66659,-11.96081 6.68563,-17.44423c2.62836,-7.13824 2.52717,-15.5428 7.0865,-21.24303c8.36903,-10.46323 17.73041,-21.69941 43.52237,-33.5711c31.22583,-14.37284 75.25162,-4.43611 117.67773,-6.33906c48.18459,-2.16124 66.25372,-4.46302 96.69831,-0.97876c11.42625,1.30769 38.7857,-5.59961 49.54534,1.72375c26.74793,18.20553 31.03766,35.36688 33.51943,61.28775c6.14004,64.12982 -38.50805,118.66006 -149.7336,123.64889c-111.22555,4.98883 -201.86466,-39.95141 -208.00471,-104.08122z" fill="url(#color-6)" stroke="none" stroke-width="0" stroke-linecap="butt"/></g></g></svg>