<svg xmlns="http://www.w3.org/2000/svg" xmlns:xlink="http://www.w3.org/1999/xlink" xmlns:a="http://ns.adobe.com/AdobeSVGViewerExtensions/3.0/" version="1.1" x="0px" y="0px" width="122.42000579833984" height="33" viewBox="-0.5 -0.5 122.42000579833984 33" enable-background="new -337.59 -284 800 600" xml:space="preserve">
  <defs/>
  <g>
    <rect fill="none" width="98.68" height="32" stroke-width="1"/>
    <path fill="#FBB03B" d="M121.41,20.86c0,6.15-2.51,11.14-5.62,11.14H91.03c-3.1,0-5.62-4.99-5.62-11.14v-9.71&#13;&#10;&#9;C85.41,4.99,87.93,0,91.03,0h24.77c3.1,0,5.62,4.99,5.62,11.14V20.86z" stroke-width="1"/>
    <path d="M18.85,17.66c0,1-0.26,1.91-0.78,2.71s-1.27,1.43-2.27,1.88c-1,0.45-2.18,0.68-3.55,0.68c-1.64,0-2.99-0.31-4.06-0.93&#13;&#10;&#9;c-0.76-0.45-1.37-1.04-1.84-1.79c-0.47-0.74-0.71-1.47-0.71-2.17c0-0.41,0.14-0.76,0.43-1.05c0.28-0.29,0.64-0.44,1.08-0.44&#13;&#10;&#9;c0.35,0,0.66,0.11,0.9,0.34s0.46,0.56,0.63,1.01c0.21,0.53,0.44,0.97,0.69,1.33c0.25,0.36,0.59,0.65,1.04,0.88s1.03,0.35,1.76,0.35&#13;&#10;&#9;c1,0,1.81-0.23,2.43-0.7c0.62-0.46,0.94-1.04,0.94-1.74c0-0.55-0.17-1-0.5-1.34c-0.34-0.34-0.77-0.61-1.3-0.79&#13;&#10;&#9;c-0.53-0.18-1.25-0.37-2.14-0.58c-1.19-0.28-2.19-0.61-3-0.98s-1.44-0.88-1.92-1.53c-0.47-0.65-0.71-1.45-0.71-2.41&#13;&#10;&#9;c0-0.91,0.25-1.73,0.75-2.44c0.5-0.71,1.22-1.26,2.17-1.64c0.94-0.38,2.06-0.57,3.33-0.57c1.02,0,1.9,0.13,2.65,0.38&#13;&#10;&#9;c0.74,0.25,1.36,0.59,1.85,1.01s0.85,0.86,1.08,1.32c0.23,0.46,0.34,0.91,0.34,1.35c0,0.4-0.14,0.76-0.43,1.08&#13;&#10;&#9;c-0.28,0.32-0.64,0.48-1.06,0.48c-0.39,0-0.68-0.1-0.88-0.29c-0.2-0.19-0.42-0.51-0.65-0.95c-0.3-0.63-0.67-1.12-1.09-1.47&#13;&#10;&#9;s-1.1-0.53-2.04-0.53c-0.87,0-1.57,0.19-2.1,0.57c-0.53,0.38-0.8,0.84-0.8,1.38c0,0.33,0.09,0.62,0.27,0.86&#13;&#10;&#9;c0.18,0.24,0.43,0.45,0.75,0.62s0.64,0.31,0.96,0.41c0.33,0.1,0.86,0.24,1.61,0.43c0.94,0.22,1.79,0.46,2.54,0.73&#13;&#10;&#9;c0.76,0.26,1.41,0.59,1.94,0.96c0.53,0.38,0.95,0.86,1.25,1.43C18.7,16.11,18.85,16.82,18.85,17.66z" stroke-width="1" />
    <path d="M33.08,16.64c0,0.92-0.14,1.77-0.43,2.55c-0.29,0.78-0.7,1.45-1.25,2.01c-0.54,0.56-1.19,0.99-1.95,1.29&#13;&#10;&#9;c-0.76,0.3-1.61,0.45-2.55,0.45c-0.94,0-1.78-0.15-2.53-0.45c-0.75-0.3-1.4-0.74-1.94-1.3s-0.96-1.23-1.25-2&#13;&#10;&#9;c-0.28-0.77-0.43-1.62-0.43-2.54c0-0.94,0.14-1.79,0.43-2.57s0.7-1.44,1.24-2c0.54-0.55,1.19-0.98,1.95-1.28s1.61-0.45,2.53-0.45&#13;&#10;&#9;c0.94,0,1.79,0.15,2.55,0.45c0.76,0.3,1.42,0.73,1.96,1.29s0.96,1.22,1.24,2S33.08,15.71,33.08,16.64z M29.97,16.64&#13;&#10;&#9;c0-1.26-0.28-2.24-0.83-2.95c-0.56-0.7-1.3-1.05-2.24-1.05c-0.6,0-1.14,0.16-1.6,0.47s-0.82,0.78-1.07,1.39&#13;&#10;&#9;c-0.25,0.61-0.37,1.33-0.37,2.14c0,0.81,0.12,1.52,0.37,2.12s0.6,1.07,1.05,1.39s1,0.48,1.62,0.48c0.94,0,1.68-0.35,2.24-1.06&#13;&#10;&#9;C29.69,18.86,29.97,17.88,29.97,16.64z" stroke-width="1" />
    <path d="M43.55,21.18v-0.4c-0.37,0.47-0.76,0.86-1.17,1.18c-0.41,0.32-0.85,0.55-1.34,0.71c-0.48,0.16-1.04,0.23-1.65,0.23&#13;&#10;&#9;c-0.75,0-1.42-0.16-2.01-0.46s-1.05-0.74-1.38-1.28c-0.39-0.66-0.58-1.6-0.58-2.83v-6.13c0-0.62,0.14-1.08,0.42-1.39&#13;&#10;&#9;c0.28-0.31,0.65-0.46,1.11-0.46c0.47,0,0.85,0.15,1.13,0.46c0.29,0.31,0.43,0.77,0.43,1.38v4.95c0,0.72,0.06,1.32,0.18,1.81&#13;&#10;&#9;s0.34,0.87,0.65,1.14c0.31,0.28,0.74,0.41,1.28,0.41c0.52,0,1.01-0.16,1.47-0.46s0.8-0.71,1.01-1.21c0.17-0.44,0.26-1.4,0.26-2.88&#13;&#10;&#9;v-3.76c0-0.61,0.14-1.07,0.43-1.38c0.29-0.31,0.66-0.46,1.12-0.46s0.83,0.15,1.11,0.46c0.28,0.31,0.42,0.77,0.42,1.39v8.97&#13;&#10;&#9;c0,0.59-0.13,1.03-0.4,1.33c-0.27,0.29-0.61,0.44-1.04,0.44s-0.77-0.15-1.05-0.46C43.69,22.16,43.55,21.74,43.55,21.18z" stroke-width="1" />
    <path d="M52.35,12.06v0.37c0.54-0.72,1.14-1.25,1.79-1.58c0.65-0.34,1.39-0.5,2.23-0.5c0.82,0,1.54,0.18,2.19,0.53&#13;&#10;&#9;s1.12,0.86,1.44,1.51c0.2,0.38,0.34,0.79,0.4,1.22c0.06,0.44,0.09,1,0.09,1.68v5.76c0,0.62-0.14,1.09-0.42,1.41&#13;&#10;&#9;s-0.65,0.48-1.11,0.48c-0.46,0-0.83-0.16-1.12-0.49s-0.43-0.79-0.43-1.39v-5.16c0-1.02-0.14-1.8-0.42-2.34&#13;&#10;&#9;c-0.28-0.54-0.85-0.81-1.69-0.81c-0.55,0-1.05,0.16-1.51,0.49c-0.45,0.33-0.79,0.78-1,1.35c-0.15,0.46-0.23,1.32-0.23,2.58v3.88&#13;&#10;&#9;c0,0.63-0.15,1.1-0.44,1.41c-0.29,0.31-0.67,0.47-1.13,0.47c-0.45,0-0.81-0.16-1.1-0.49s-0.43-0.79-0.43-1.39V12.1&#13;&#10;&#9;c0-0.59,0.13-1.03,0.38-1.32c0.26-0.29,0.61-0.44,1.05-0.44c0.27,0,0.52,0.06,0.74,0.19c0.22,0.13,0.39,0.32,0.53,0.58&#13;&#10;&#9;C52.28,11.38,52.35,11.69,52.35,12.06z" stroke-width="1" />
    <path d="M72.03,21.16v-0.31c-0.42,0.48-0.83,0.86-1.23,1.16s-0.84,0.53-1.31,0.68c-0.47,0.16-0.99,0.23-1.55,0.23&#13;&#10;&#9;c-0.74,0-1.43-0.16-2.06-0.47s-1.18-0.76-1.64-1.34c-0.46-0.58-0.81-1.27-1.05-2.05c-0.24-0.79-0.36-1.64-0.36-2.55&#13;&#10;&#9;c0-1.93,0.47-3.44,1.42-4.52c0.94-1.08,2.19-1.62,3.73-1.62c0.89,0,1.64,0.15,2.26,0.46c0.61,0.31,1.21,0.78,1.79,1.41V7.67&#13;&#10;&#9;c0-0.63,0.13-1.11,0.38-1.44c0.25-0.32,0.61-0.49,1.08-0.49s0.83,0.15,1.08,0.45c0.25,0.3,0.38,0.74,0.38,1.32v13.65&#13;&#10;&#9;c0,0.59-0.14,1.03-0.41,1.33c-0.27,0.29-0.62,0.44-1.05,0.44c-0.42,0-0.77-0.15-1.05-0.46C72.17,22.16,72.03,21.73,72.03,21.16z&#13;&#10;&#9; M65.95,16.62c0,0.84,0.13,1.55,0.39,2.14c0.26,0.59,0.62,1.03,1.07,1.33c0.45,0.3,0.95,0.45,1.48,0.45c0.54,0,1.04-0.14,1.49-0.42&#13;&#10;&#9;c0.45-0.28,0.81-0.72,1.08-1.3c0.27-0.59,0.4-1.32,0.4-2.19c0-0.82-0.13-1.53-0.4-2.13c-0.27-0.59-0.63-1.05-1.09-1.36&#13;&#10;&#9;s-0.96-0.47-1.5-0.47c-0.57,0-1.07,0.16-1.52,0.48c-0.45,0.32-0.79,0.78-1.04,1.38C66.07,15.13,65.95,15.82,65.95,16.62z" stroke-width="1" />
  </g>
</svg>