<svg version="1.1" xmlns="http://www.w3.org/2000/svg" xmlns:xlink="http://www.w3.org/1999/xlink" width="328.9916" height="301.14115" viewBox="0,0,328.9916,301.14115"><defs><linearGradient x1="356.39479" y1="182.83084" x2="356.39479" y2="313.6454" gradientUnits="userSpaceOnUse" id="color-1"><stop offset="0" stop-color="#000000"/><stop offset="1" stop-color="#00fcd8"/></linearGradient><linearGradient x1="348.57098" y1="210.91561" x2="403.24669" y2="259.23647" gradientUnits="userSpaceOnUse" id="color-2"><stop offset="0" stop-color="#ffffff"/><stop offset="1" stop-color="#ffffff" stop-opacity="0"/></linearGradient><linearGradient x1="405.60281" y1="257.7796" x2="354.0375" y2="299.44652" gradientUnits="userSpaceOnUse" id="color-3"><stop offset="0" stop-color="#ffffff"/><stop offset="1" stop-color="#ffffff" stop-opacity="0"/></linearGradient><linearGradient x1="248.18128" y1="15.66585" x2="248.18128" y2="273.01054" gradientUnits="userSpaceOnUse" id="color-4"><stop offset="0" stop-color="#000000"/><stop offset="1" stop-color="#00ffdb"/></linearGradient><linearGradient x1="347.75655" y1="43.06424" x2="256.54015" y2="185.9097" gradientUnits="userSpaceOnUse" id="color-5"><stop offset="0" stop-color="#ffffff"/><stop offset="1" stop-color="#ffffff" stop-opacity="0"/></linearGradient><linearGradient x1="241.87726" y1="231.7028" x2="161.74889" y2="30.05422" gradientUnits="userSpaceOnUse" id="color-6"><stop offset="0" stop-color="#ffffff" stop-opacity="0"/><stop offset="1" stop-color="#ffffff"/></linearGradient></defs><g transform="translate(-87.04641,-12.50422)"><g data-paper-data="{&quot;isPaintingLayer&quot;:true}" fill-rule="nonzero" stroke="none" stroke-linecap="butt" stroke-linejoin="miter" stroke-miterlimit="10" stroke-dasharray="" stroke-dashoffset="0" style="mix-blend-mode: normal"><g><g stroke-width="0"><path d="M380.44408,236.26485c-0.00348,0.33193 0.01893,0.67704 0.07466,1.04135c-0.88743,2.20425 -0.88743,4.19381 -0.88743,4.19381l0.51317,5.16228c1.37461,4.1238 2.64108,9.62237 5.41577,12.90879c0.95027,1.12553 2.82474,0.98948 4.00113,1.876c0.38145,0.28745 0.06883,0.99725 0.33652,1.39282c0.2862,0.42292 0.9386,0.49593 1.22691,0.91742c1.19026,1.74004 0.96853,4.16138 2,6c0.46129,0.82226 1.51493,1.19155 2,2c0.54233,0.90388 0.45292,2.099 1,3c0.61016,1.00488 1.74198,1.61162 2.39409,2.58979c0.69696,1.04545 0.92975,2.35119 1.60591,3.41021c1.46829,2.29969 3.40106,4.35141 5.30609,6.39029c-0.04634,0.39204 -0.05689,0.77859 0.05894,1.14501c0.74517,2.35716 3.11204,3.89456 4.19065,6.11901c1.07695,2.221 0.99057,4.83973 1.32899,7.28476c0.2033,1.46892 1.39217,2.88019 1.04998,4.3231c-0.33526,1.4137 -4.91836,5.29932 -5.95623,6.23782c-4.36064,0.19376 -7.89331,1.85611 -12.35223,1.25948c-2.74074,-0.36672 -8.43091,-2.21595 -10.78248,-3.63382c-2.55956,-1.54328 -3.99412,-5.04017 -6.52569,-6.52569c-2.25599,-1.32382 -4.82131,-2.03062 -7.22436,-3.06374c-8.85085,-3.80512 -19.63194,-4.68815 -27.73972,-10.0948c-0.40719,-0.27153 -3.74387,-3.72753 -4.35046,-4.35046c-0.99312,-0.49656 -2.0479,-0.8908 -3.03766,-1.39294c-1.11122,-4.82686 -5.43482,-8.42616 -10.59909,-8.42616h-0.97207c-1.76972,-1.14431 -3.22502,-1.77098 -4.60374,-4.0086c-0.49941,-0.81054 -0.05837,-2.06389 -0.69731,-2.76968c-0.50151,-0.55398 -1.48063,-0.2286 -2.20003,-0.43076c-3.07595,-0.86433 -5.09656,-1.76612 -7.96946,-3.41037c-1.93215,-1.10583 -4.81022,-1.50352 -5.64653,-3.56668c-1.83159,-4.51851 0.07157,-5.67038 2.35672,-6.48821c0.27294,-0.03876 0.54309,-0.08199 0.80989,-0.13083c2.25541,-0.41288 4.26148,-1.81366 6.52569,-2.17523c1.54173,-0.2462 3.25938,0.33774 4.67242,-0.32624c3.19897,-1.50317 6.26655,-3.47233 8.75446,-5.98296c1.30156,-1.31345 1.35395,-3.44948 2.21448,-5.08615c1.10498,-2.1016 2.08792,-4.07343 2.97767,-6.12005c0.28937,-0.2809 0.5804,-0.56151 0.87287,-0.84191c2.25372,0.01807 3.95758,-0.54988 3.95758,-0.54988l3.26285,-1.08762c10.83009,-4.20941 20.48858,-12.62712 25.38955,-23.08956c0.33944,-0.7246 4.22438,-3.80198 4.96449,-4.55302c2.51286,-2.54995 6.83355,-7.05909 8.55379,-10.43191c5.28188,0.61313 10.62965,0.7941 15.95329,1.2391c-0.45188,1.74023 -0.94316,3.47943 -1.23574,5.2006c-0.09415,0.55387 -0.03581,1.12826 0.01491,1.69956c-1.90825,2.46999 -3.57492,5.15204 -4.4074,7.76455c-0.51608,1.61953 -0.31939,3.35505 -0.23097,5.0806c-0.29989,1.67593 -0.52808,3.3617 -0.81462,5.03238c-0.02247,0.13098 -0.04626,0.26007 -0.07125,0.38741c-0.52477,1.30379 -1.13313,2.58673 -1.38463,3.96057c-0.11331,0.61894 -0.21771,1.23941 -0.31364,1.8614c-0.20674,0.84899 -0.3496,1.7441 -0.36925,2.75107c-0.12652,1.1016 -0.22873,2.20769 -0.30897,3.31807c-1.17786,0.86437 -2.00138,1.95307 -2.57715,3.0529c-0.18872,-0.00799 -0.36349,-0.02964 -0.52535,-0.06288z" data-paper-data="{&quot;index&quot;:null}" fill="url(#color-1)"/><path d="M336.66704,282.68264c-10.87527,-9.61124 -11.17153,-28.48532 -2.37304,-48.46661c0.16226,-0.04507 0.25015,-0.07437 0.25015,-0.07437l3.26285,-1.08762c10.83009,-4.20941 20.48858,-12.62712 25.38955,-23.08956c0.33944,-0.7246 4.22438,-3.80198 4.96449,-4.55302c2.51286,-2.54995 6.83355,-7.05909 8.55379,-10.43191c6.42506,0.74583 12.94763,0.85219 19.40565,1.5722c0.08439,0.00941 0.16875,0.01897 0.25308,0.02866c-1.5229,1.57158 -2.60195,3.10493 -3.38707,4.64545c-2.51671,2.95258 -4.89596,6.3604 -5.94659,9.65749c-0.80376,2.52236 0.1214,5.32607 -0.32623,7.93527c-0.3877,2.25988 -1.76235,4.27028 -2.17523,6.52569c-0.47905,2.61685 -0.79897,5.2613 -0.99185,7.93053c-3.91529,2.87326 -3.91529,8.22517 -3.91529,8.22517l0.51317,5.16228c1.32553,3.97658 2.55051,9.23152 5.12429,12.54852c-5.93859,8.77372 -10.99964,17.85979 -18.47272,22.05069c-7.74561,4.34374 -12.30977,4.64682 -16.49592,4.84088c-2.28056,0.10572 -4.3886,-1.46499 -6.67803,-2.11224c-1.75869,-0.4972 -3.65238,0.24405 -5.64311,-1.5153z" data-paper-data="{&quot;index&quot;:null}" fill="url(#color-2)"/><path d="M354.03751,299.44652c-3.47482,-4.30029 -5.69076,-9.21005 -6.69569,-14.28525c6.08494,0.32721 8.88179,-3.39188 10.13211,-6.29293c0.35132,-0.03691 0.70409,-0.09121 1.05736,-0.16352c5.88472,-1.20456 9.67873,-6.95156 8.47417,-12.83628l-0.65432,-3.19657c0.41399,-0.29622 -0.42625,-0.95284 -0.44254,-1.46163c-0.02818,-0.8802 -0.17542,-1.82495 0.16593,-2.63676c1.03667,-2.46548 2.76223,-4.65105 3.49104,-7.22439c0.52926,-1.86874 -0.05183,-3.94366 0.50293,-5.80499c0.01556,-0.05219 1.48668,-1.90513 2.66126,-3.55522c2.2568,-1.25041 4.59603,-2.05453 7.06493,-2.09395c-0.1634,0.96104 -0.1634,1.60497 -0.1634,1.60497l0.51317,5.16228c1.37461,4.1238 2.64108,9.62237 5.41577,12.90879c0.95027,1.12553 2.82474,0.98948 4.00113,1.876c0.38145,0.28745 0.06883,0.99725 0.33652,1.39282c0.2862,0.42292 0.9386,0.49593 1.22691,0.91742c1.19026,1.74004 0.96853,4.16138 2,6c0.46129,0.82226 1.51493,1.19155 2,2c0.54233,0.90388 0.45292,2.099 1,3c0.61016,1.00488 1.74198,1.61162 2.39409,2.58979c0.69696,1.04545 0.92975,2.35119 1.60591,3.41021c2.78189,4.35707 7.23107,7.82405 10,12c0.45718,0.68951 0.5768,1.52509 0.70007,2.36314c-3.12594,3.41118 -6.92785,6.51852 -10.2377,9.19302c-14.23936,11.506 -35.08036,9.327 -46.54966,-4.86695z" data-paper-data="{&quot;index&quot;:null}" fill="url(#color-3)"/><path d="M248.18128,15.66586c88.99234,0 161.13487,57.60857 161.13487,128.67234c0,71.06377 -72.14255,128.67234 -161.13487,128.67234c-88.99234,0 -161.13487,-57.60857 -161.13487,-128.67234c0,-71.06377 72.14255,-128.67234 161.13487,-128.67234z" data-paper-data="{&quot;index&quot;:null}" fill="url(#color-4)"/><path d="M178.79013,41.56175c25.18871,-39.44568 98.67982,-38.5234 168.96642,1.5025c70.2866,40.0259 81.12208,90.06628 55.93337,129.51197c-10.18112,15.9437 -18.63347,25.62385 -41.95653,28.54898c-9.38194,1.17666 -24.79187,-12.34272 -32.61466,-15.27735c-20.84337,-7.81917 -31.76837,-15.28611 -62.21758,-32.62594c-26.81026,-15.26757 -58.57235,-23.40686 -74.01293,-43.03391c-12.75364,-16.21157 -15.09077,-26.57602 -17.0418,-36.11222c-1.0629,-5.1952 1.78322,-10.59752 2.44499,-16.08391c0.50836,-4.21451 -1.87375,-8.29337 1.44742,-13.49434z" data-paper-data="{&quot;index&quot;:null}" fill="url(#color-5)"/><path d="M302.31576,90.94214c10.80142,27.18253 29.45265,56.15794 19.22458,81.21846c-10.72424,26.27622 -53.76358,39.47404 -82.17386,50.76333c-29.8446,11.85924 -64.58738,32.0625 -91.22892,18.65447c-22.9074,-11.52873 -36.59753,-45.01988 -46.82718,-70.7635c-22.12683,-55.68372 4.9324,-118.70442 60.43851,-140.76068c55.5061,-22.05625 118.44004,5.2042 140.56687,60.88791z" data-paper-data="{&quot;index&quot;:null}" fill="url(#color-6)"/></g><text transform="matrix(2.72409 0 0 2.72409 185.12199 130.91933)" font-size="40"  fill="#ffffff" fill-rule="nonzero" stroke="none" stroke-width="1" stroke-linecap="butt" stroke-linejoin="miter" stroke-miterlimit="10" stroke-dasharray="" stroke-dashoffset="0" font-family="Helvetica" font-weight="normal" text-anchor="start" style="mix-blend-mode: normal" >Hi</text></g></g></g></svg>