<svg xmlns="http://www.w3.org/2000/svg" xmlns:xlink="http://www.w3.org/1999/xlink" version="1.1" width="130.4585516640432" height="75.74154879539084" viewBox="-0.5142749120239023 -0.4142749105337862 130.4585516640432 75.74154879539084">
  <!-- Exported by Scratch - http://scratch.mit.edu/ -->
  <path id="ID0.6534826750867069" fill="none" d="M 0.05 0.15 L 129.38 0.15 L 129.38 74.763 L 0.05 74.763 L 0.05 0.15 Z " stroke-width="1"/>
  <path id="ID0.15375018352642655" fill="#C89A66" stroke="#624523" stroke-width="1.1285498142242432" d="M 42.312 35.6531 C 42.9748 44.197 39.2355 47.7873 30.1778 47.7873 C 22.6917 47.7873 17.3266 44.5988 18.0429 35.6531 C 18.5786 28.9729 22.6993 23.1684 30.1778 23.519 C 37.6646 23.8688 41.68 27.4922 42.312 35.6531 Z "/>
  <path id="ID0.9231221177615225" fill="#AA7C48" d="M 37.6646 35.1475 C 37.6646 39.2818 34.8229 42.5764 30.6894 42.5764 C 26.5544 42.5764 22.6925 39.2818 22.6925 35.1475 C 22.6925 31.0125 26.0435 27.6607 30.1785 27.6607 C 35.1065 27.6607 37.6646 31.0133 37.6646 35.1475 Z " stroke-width="0.7523665428161621"/>
  <path id="ID0.06518897321075201" fill="#624523" d="M 31.3101 34.4975 C 30.6879 34.0438 30.1191 33.2832 29.8964 32.8588 C 28.7445 31.3263 28.1178 30.5453 24.6517 27.824 C 25.632 30.0149 29.2155 31.9259 29.3336 34.0581 C 30.2756 36.5913 24.7382 39.0583 23.1996 39.9747 C 23.1996 39.9747 28.0177 39.0207 30.1823 35.371 C 30.7157 34.4719 36.594 37.5506 36.594 37.5506 C 35.2375 36.2234 34.0916 35.8811 32.8284 35.2822 " stroke-width="0.7523665428161621"/>
  <path id="ID0.7497768863104284" fill="#624523" d="M 31.8097 41.6126 L 31.5569 41.3207 C 31.584 40.0974 30.9873 38.9936 30.7428 38.0351 L 31.1423 37.9336 C 31.3989 38.9395 32.0249 39.9928 31.9948 41.3207 L 31.8097 41.6126 Z " stroke-width="0.7523665428161621"/>
  <path id="ID0.3099703397601843" fill="#624523" d="M 33.5191 29.0639 C 34.7108 27.1168 35.2909 25.5932 35.1547 24.7739 L 35.9018 24.649 C 36.0741 25.6775 33.5191 29.0639 33.5191 29.0639 Z " stroke-width="0.7523665428161621"/>
  <path id="ID0.9944758857600391" fill="#624523" d="M 21.9981 35.0241 L 22.1508 34.5231 C 23.0755 33.8121 25.2746 33.9242 25.5229 33.94 L 25.805 34.2974 C 24.7683 34.2342 23.086 34.7616 22.6135 35.125 L 21.9981 35.0241 Z " stroke-width="0.7523665428161621"/>
  <path id="ID0.49146472522988915" fill="#C89A66" stroke="#624523" stroke-width="1.1285498142242432" d="M 91.127 35.6524 C 91.7898 44.197 88.0506 47.7865 78.9928 47.7865 C 71.5068 47.7865 66.1417 44.598 66.8587 35.6524 C 67.3936 28.9721 71.5143 23.1676 78.9928 23.5182 C 86.4796 23.8688 90.4943 27.4922 91.127 35.6524 Z "/>
  <path id="ID0.6701460680924356" fill="#AA7C48" d="M 85.974 34.6412 C 85.974 38.7762 83.1331 42.0708 78.9989 42.0708 C 74.8639 42.0708 71.002 38.7762 71.002 34.6412 C 71.002 30.5069 74.353 27.1551 78.488 27.1551 C 83.416 27.1551 85.974 30.5069 85.974 34.6412 Z " stroke-width="0.7523665428161621"/>
  <path id="ID0.1964735547080636" fill="#624523" d="M 78.2397 32.8927 C 77.8139 33.5345 77.0781 34.1349 76.6635 34.3756 C 75.1813 35.5929 74.4275 36.252 71.8574 39.8303 C 74.0046 38.7581 75.7599 35.0949 77.8854 34.8865 C 80.3764 33.8362 83.0774 39.2637 84.0593 40.7617 C 84.0593 40.7617 82.8999 35.9887 79.1606 33.9821 C 78.239 33.4886 80.1914 27.596 80.1914 27.596 C 78.9236 29.0082 79.1177 30.0518 78.5738 31.3398 " stroke-width="0.7523665428161621"/>
  <path id="ID0.957850428763777" fill="#624523" d="M 77.923 43.2754 C 76.9614 45.306 76.021 46.6226 75.2739 46.9838 L 75.5718 47.6331 C 76.51 47.1809 77.923 43.2754 77.923 43.2754 Z " stroke-width="0.7523665428161621"/>
  <path id="ID0.9385940567590296" fill="#624523" d="M 85.1622 31.1465 C 87.1696 30.1119 88.7224 29.6402 89.5342 29.8178 L 89.6983 29.1075 C 88.6796 28.8841 85.1622 31.1465 85.1622 31.1465 Z " stroke-width="0.7523665428161621"/>
  <path id="ID0.2835201183333993" fill="#624523" d="M 70.6807 30.9907 L 71.1133 30.6958 C 72.2802 30.7206 73.9241 32.1847 74.1077 32.3525 L 74.104 32.8077 C 73.335 32.1087 71.6934 31.4662 71.0975 31.4542 L 70.6807 30.9907 Z " stroke-width="0.7523665428161621"/>
  <g id="ID0.7427087859250605">
    <path id="ID0.6909199906513095" fill="#C89A66" stroke="#624523" stroke-width="1.1285498329885013" d="M 66.7143 36.3564 C 66.9029 44.9247 62.9698 48.3016 53.9259 47.7999 C 46.4514 47.3853 41.2711 43.9045 42.4824 35.0123 C 43.3866 28.3719 47.8232 22.8046 55.27 23.5688 C 62.7259 24.3335 66.5337 28.1737 66.7143 36.3564 Z "/>
    <path id="ID0.82295709149912" fill="#AA7C48" d="M 61.5957 35.5661 C 61.3668 39.6941 58.3477 42.8263 54.2198 42.5973 C 50.0919 42.3683 46.4176 38.8648 46.6466 34.7369 C 46.8756 30.609 50.4079 27.448 54.5358 27.677 C 59.457 27.95 61.8247 31.4382 61.5957 35.5661 Z " stroke-width="0.7523665553256675"/>
    <path id="ID0.27400038950145245" fill="#624523" d="M 54.1006 35.7668 C 54.6376 35.2141 55.4707 34.7584 55.9219 34.5981 C 57.6016 33.6733 58.464 33.1635 61.6472 30.1158 C 59.3394 30.7767 56.9421 34.0557 54.8146 33.8713 C 52.1732 34.4467 50.5126 28.6165 49.8221 26.9641 C 49.8221 26.9641 50.0873 31.8685 53.3948 34.5265 C 54.2107 35.1814 51.2116 40.6159 51.2116 40.6159 C 52.7157 39.4598 52.7174 38.3982 53.4873 37.2323 " stroke-width="0.7523665553256675"/>
    <path id="ID0.6486528874374926" fill="#624523" d="M 58.1655 43.951 L 58.4542 44.2066 C 58.5879 45.4234 59.3236 46.4385 59.6916 47.3564 L 59.3094 47.51 C 58.9227 46.5467 58.1639 45.5838 58.0201 44.2639 L 58.1655 43.951 Z " stroke-width="0.7523665553256675"/>
    <path id="ID0.863175633829087" fill="#624523" d="M 47.1167 38.2714 C 45.1057 39.2735 43.5531 39.7284 42.7423 39.5509 L 42.5757 40.2454 C 43.5919 40.4691 47.1167 38.2714 47.1167 38.2714 Z " stroke-width="0.7523665553256675"/>
    <path id="ID0.2732348460704088" fill="#624523" d="M 59.8804 36.1823 L 60.3295 35.9119 C 61.4932 36.0013 63.0535 37.5542 63.2275 37.7319 L 63.1986 38.1861 C 62.4695 37.4464 60.8652 36.7139 60.2709 36.6682 L 59.8804 36.1823 Z " stroke-width="0.7523665553256675"/>
  </g>
  <g id="ID0.7427087859250605">
    <path id="ID0.6909199906513095" fill="#C89A66" stroke="#624523" stroke-width="1.128549708744803" d="M 115.9075 35.6331 C 116.6137 44.1742 112.892 47.7827 103.8344 47.8287 C 96.3484 47.8668 90.9672 44.7055 91.6387 35.7564 C 92.1397 29.0735 96.2316 23.2481 103.7111 23.5607 C 111.1996 23.8733 115.2326 27.4763 115.9075 35.6331 Z "/>
    <path id="ID0.82295709149912" fill="#AA7C48" d="M 110.7505 35.1537 C 110.7715 39.2879 107.9474 42.5969 103.8132 42.6179 C 99.679 42.6389 95.7996 39.3639 95.7786 35.2297 C 95.7576 31.0955 99.0924 27.7268 103.2266 27.7058 C 108.1552 27.6807 110.7295 31.0195 110.7505 35.1537 Z " stroke-width="0.7523664724965354"/>
    <path id="ID0.27400038950145245" fill="#624523" d="M 103.2812 35.8071 C 103.7839 35.2229 104.5879 34.7178 105.0286 34.5305 C 106.6492 33.5058 107.4793 32.9448 110.4723 29.7102 C 108.2087 30.5094 106.0141 33.9273 103.8793 33.8719 C 101.2776 34.6059 99.2675 28.8868 98.4784 27.2792 C 98.4784 27.2792 99.0396 32.1585 102.5017 34.6118 C 103.3557 35.2161 100.6907 40.822 100.6907 40.822 C 102.1222 39.5771 102.0596 38.5173 102.7577 37.307 " stroke-width="0.7523664724965354"/>
    <path id="ID0.6486528874374926" fill="#624523" d="M 107.8335 43.7306 L 108.1372 43.9683 C 108.3442 45.1748 109.1398 46.1436 109.5627 47.0375 L 109.1904 47.2139 C 108.7463 46.2757 107.9306 45.3605 107.7072 44.0517 L 107.8335 43.7306 Z " stroke-width="0.7523664724965354"/>
    <path id="ID0.863175633829087" fill="#624523" d="M 96.4615 38.7293 C 94.5148 39.8512 92.9925 40.3992 92.1725 40.2709 L 92.0482 40.9743 C 93.076 41.1361 96.4615 38.7293 96.4615 38.7293 Z " stroke-width="0.7523664724965354"/>
    <path id="ID0.2732348460704088" fill="#624523" d="M 109.0756 35.8724 L 109.5075 35.5753 C 110.6745 35.5942 112.3259 37.05 112.5103 37.2168 L 112.5088 37.672 C 111.7364 36.9777 110.0907 36.3435 109.4948 36.3338 L 109.0756 35.8724 Z " stroke-width="0.7523664724965354"/>
  </g>
</svg>