<svg version="1.1" xmlns="http://www.w3.org/2000/svg" xmlns:xlink="http://www.w3.org/1999/xlink" width="225.13661" height="197.4138" viewBox="0,0,225.13661,197.4138"><g transform="translate(-118.85273,-62.78375)"><g data-paper-data="{&quot;isPaintingLayer&quot;:true}" fill="#f4ff00" fill-rule="nonzero" stroke="none" stroke-width="0.5" stroke-linecap="butt" stroke-linejoin="miter" stroke-miterlimit="10" stroke-dasharray="" stroke-dashoffset="0" style="mix-blend-mode: normal"><path d="M185.6922,136.47268c0.00428,-0.98098 0.01093,-1.97091 0.01093,-2.97268c0,-3.84092 -0.44716,-8.09572 0.15172,-11.88214c0.35585,-2.24989 1.66034,-4.29243 1.93631,-6.55351c0.37721,-3.09052 0.40034,-6.43338 1.06369,-9.44649c0.72548,-3.29532 2.46553,-6.29748 4.04307,-9.28024c1.13751,-2.15077 1.63431,-5.23171 2.40818,-7.5533c0.77653,-2.32958 2.17712,-6.70985 3.15188,-8.46166c0.45842,-0.82386 1.51493,-1.19155 2,-2c0.54233,-0.90388 0.44253,-2.10539 1,-3c0.77175,-1.23848 2.00904,-2.12284 2.90838,-3.27203c0.74069,-0.94648 1.04998,-2.26385 2,-3c3.09039,-2.39467 6.0306,-5.94705 9.92895,-6.24345c4.15058,-0.31557 7.94567,2.62609 11.60719,4.60605c1.50829,0.8156 2.53767,2.32183 3.6374,3.6374c2.9,3.46918 4.51233,7.37477 6.46843,11.28699c0.53748,1.07497 1.47787,1.91749 2,3c2.31789,4.80553 3.36585,10.13834 4.04307,15.28024c0.41977,3.18716 2.51563,7.0671 3.54875,10.16647c0.90661,2.71982 1.67812,5.43624 2.31854,8.17315c0.78529,-0.26183 1.44881,-0.48119 1.81876,-0.60451c1.15061,-0.38354 2.55784,-0.13423 3.53834,-0.84812c0.76219,-0.55494 1.17614,-1.54158 2,-2c2.17512,-1.2103 4.79713,-1.42993 7.01496,-2.56006c2.14168,-1.09132 3.84708,-2.93102 6,-4c3.88538,-1.92919 5.4917,-1.66113 9,-4c1.52066,-0.33702 2.64466,-1.64662 3.98504,-2.43994c1.2356,-0.73131 2.7346,-0.91028 4.01496,-1.56006c3.85477,-1.95628 7.46491,-4.28363 11.89688,-4.98664c0.91207,-0.95029 1.97029,-1.77292 3.08816,-2.4533c1.34539,-0.81885 8.47186,-3.26534 10.2952,-3.60313c0.36704,-0.068 4.01185,0.10766 4.7048,-0.39687c2.79514,-2.03509 5.83963,-4.71895 9.2952,-4.60313c4.52902,0.1518 9.60291,0.52151 13.19065,3.28977c2.63483,2.03301 2.30318,6.24799 3.28977,9.42636c1.49447,4.81452 1.23293,8.0178 -1,12.76428c0,4.57425 0.33607,4.65986 -2.60313,10.2952c-0.8115,1.55588 -2.7708,2.36283 -3.43994,3.98504c-1.67412,4.0586 -3.65289,7.81759 -6.46843,11.28699c-0.2756,0.3396 -0.8546,0.3604 -1.09162,0.72797c-1.0463,1.62255 -1.35072,3.73734 -2.68664,5.13116c-1.07097,1.11739 -2.93455,1.10544 -4.17633,2.0293c-0.29752,0.22135 0.1695,0.80936 -0.04541,1.11157c-1.63429,2.29817 -4.26924,3.80624 -6,6c-2.01402,2.55278 -2.85492,6.30402 -4.74897,8.68281c-1.30553,1.63965 -3.31396,2.57117 -4.88843,3.95459c-2.15434,1.89292 -4.109,4.18987 -6.14086,6.22173c-0.70096,0.70096 -1.94018,0.95045 -2.31336,1.86884c-1.16505,2.86719 -2.4003,6.2972 -4,9c-0.42334,0.71527 -1.27764,1.09545 -1.80638,1.72938c0.97629,1.20645 1.94502,2.41905 2.89801,3.64391c1.1579,1.48823 2.81739,2.53133 4,4c2.25781,2.80396 3.77959,6.18561 6,9c2.62616,3.32869 5.01657,5.54958 7.46843,9.28699c0.53749,2.42519 3.07568,3.90918 4.43994,5.98504c0.57892,0.88089 0.56123,2.04157 1,3c0.80396,1.75613 3.48483,2.12417 4.31336,3.86884c1.99932,4.21008 6.25356,8.48557 5.12717,13.0081c-1.71317,6.87849 -8.36977,8.66402 -13.72,10.44743c-10.04916,3.34972 -21.2114,4.23524 -30.89302,-1.15188c-0.82386,-0.45842 -1.19155,-1.51493 -2,-2c-0.90388,-0.54233 -2.10539,-0.44253 -3,-1c-1.4893,-0.92805 -2.57819,-2.3911 -3.98504,-3.43994c-2.81626,-0.74006 -5.91233,-2.58717 -8.71976,-2.95693c-3.14037,-0.41361 -6.37636,-0.77796 -9.28024,-2.04307c-1.10183,-0.48003 -1.92826,-1.4561 -3,-2c-1.28036,-0.64977 -2.80787,-0.7826 -4.01496,-1.56006c-2.01862,-1.30014 -3.37697,-3.43396 -5.27203,-4.90838c-2.63774,-2.05225 -5.4116,-3.8891 -8,-6c-0.95898,-0.78207 -1.78957,-1.70877 -2.6644,-2.58494c-0.17043,0.29388 -0.35011,0.57906 -0.57772,0.80667c-0.70096,0.70096 -1.90072,0.96749 -2.31336,1.86884c-0.43877,0.95843 -0.42108,2.11911 -1,3c-1.01366,1.54238 -2.43155,2.77796 -3.68664,4.13116c-0.67412,0.72681 -1.90072,0.96749 -2.31336,1.86884c-0.43877,0.95843 -0.42108,2.11911 -1,3c-1.01366,1.54238 -2.43155,2.77796 -3.68664,4.13116c-1.31156,1.41408 -5.19908,5.07407 -6.13116,5.68664c-0.67485,0.44352 -1.47188,0.66304 -2.27096,0.84209c-2.41185,4.96701 -8.61692,9.77894 -12.59787,13.47127c-1.35321,1.2551 -2.43332,2.96294 -4.13116,3.68664c-3.39123,1.44551 -7.06781,3.00765 -10.73696,2.65089c-3.31461,-0.32229 -5.9265,-3.03951 -8.88976,-4.55926c-2.30638,-2.24115 -4.58529,-4.50442 -6.85914,-6.77827c-0.70096,-0.70096 -0.98768,-1.85921 -1.86884,-2.31336c-1.27053,-0.65483 -2.85367,-0.74603 -3.95483,-1.65734c-1.61467,-1.33629 -2.58932,-3.29819 -3.95459,-4.88843c-2.64934,-3.0859 -5.34381,-1.45995 -6.34891,-8.74977c-0.55203,-4.00382 1.20874,-8.02752 2.44053,-11.87694c0.28734,-0.89796 1.51493,-1.19155 2,-2c0.54233,-0.90388 0.4289,-2.11402 1,-3c0.0089,-0.0138 0.01889,-0.02768 0.02987,-0.04157c0.04684,-0.58685 0.21527,-1.20712 0.21527,-1.78109c0,-1.69616 -0.03106,-6.77428 0.15172,-7.88214c0.8873,-5.37797 3.62519,-11.27502 5.60313,-16.2952c0.66667,-0.66667 1.51493,-1.19155 2,-2c0.85082,-1.41803 0.75347,-2.37384 1.07077,-3.2092c-2.40971,-1.31022 -4.5927,-2.71578 -7.238,-4.05826c-1.28036,-0.64977 -2.80787,-0.7826 -4.01496,-1.56006c-1.58526,-1.02103 -2.3239,-3.13615 -4,-4c-1.27053,-0.65483 -2.85367,-0.74603 -3.95483,-1.65734c-1.61467,-1.33629 -2.58932,-3.29819 -3.95459,-4.88843c-2.67677,-3.11786 -5.68006,-5.52009 -8,-9c-1.63655,-1.84117 -2.88299,-4.03221 -3.90838,-6.27203c-0.7849,-1.71449 -3.01965,-2.38926 -4,-4c-1.94219,-3.19106 -2.95164,-7.86094 -4.15188,-11.46166c-0.38331,-1.14993 -2.53004,-7.48989 -2.45125,-7.83353c1.22166,-5.32845 1.24954,-12.63367 6.05395,-15.24182c4.78245,-2.59623 10.81234,1.60985 15.9937,3.27291c0.26517,0.08511 5.48006,5.44446 5.6374,5.6374c1.14212,1.40047 1.41071,3.78802 3.09057,4.45422c3.39332,1.34572 7.16303,1.21628 10.7048,2.39687c6.54365,0 12.542,2.0082 18.28024,5.04307c1.86359,0.98563 4.10116,1.08412 6,2c0.36323,0.1752 0.72203,0.35093 1.07669,0.52788zM230.40082,138.42225c-0.04215,-0.07884 -0.08348,-0.15823 -0.12399,-0.23816c-1.00729,-0.85256 -2.02432,-1.69273 -3.02602,-2.55085c-0.02554,0.96684 -0.04739,1.92088 -0.04769,2.84796c0.6163,0.1556 1.23137,0.29964 1.83962,0.38444c-0.03591,-0.0088 -0.05161,-0.01831 -0.02527,-0.02761c0.31684,-0.11188 0.80764,-0.25687 1.38335,-0.41579zM243.82308,160.50975c0.09877,-0.41188 0.20195,-0.82318 0.30932,-1.23399c-0.73238,0.22886 -1.49451,0.4695 -2.27827,0.71197c0.66538,0.12724 1.31918,0.31456 1.96895,0.52202z"/></g></g></svg>