<svg version="1.1" xmlns="http://www.w3.org/2000/svg" xmlns:xlink="http://www.w3.org/1999/xlink" width="880.37838" height="572.57057" viewBox="0,0,880.37838,572.57057"><g transform="translate(200.18919,106.28529)"><g data-paper-data="{&quot;isPaintingLayer&quot;:true}" fill-rule="nonzero" stroke-linecap="butt" stroke-linejoin="miter" stroke-miterlimit="10" stroke-dasharray="" stroke-dashoffset="0" style="mix-blend-mode: normal"><path d="M-199.18919,465.28529v-570.57057h878.37838v570.57057z" fill="#000000" stroke="#000000" stroke-width="2"/><path d="M187.91633,200.24571c-8.86102,0 -21.43428,-3.22491 -25.63763,-11.93266c-3.3142,-6.86576 -1.48567,-14.1791 -2.22566,-21.31789c-0.21051,-2.03081 -0.86389,-4.0209 -1.10686,-6.05901c-2.28607,-0.50543 -4.72973,-1.86913 -7.02871,-0.70556c-2.61504,1.32353 -3.32215,4.59453 -3.95091,7.12323c-1.09949,4.42191 -3.61908,9.88716 -2.95219,14.53197c0.28409,1.97861 1.12528,2.53543 1.86185,4.47078c1.69391,4.45075 2.82287,9.13852 4.07656,13.73446c0.429,1.57302 0.31266,3.35741 1.15597,4.75285c0.6943,1.14888 2.33811,1.32059 3.48361,2.02044c1.60988,0.98357 3.19063,2.01406 4.78538,3.02198c3.03909,1.92078 6.24646,4.04238 9.48836,5.60557c3.76166,1.81381 8.21028,1.72838 12.25482,2.27884c3.00329,0.40875 5.42768,0.74905 8.46233,0.48675c0,0 0.57172,-0.04764 1.19022,0.17659c0.83696,-0.56423 1.66093,-1.15007 2.46846,-1.76297c-0.0345,-0.01538 -0.069,-0.03078 -0.10348,-0.04621c-2.56484,-4.31618 -5.01503,-10.79201 -3.89814,-16.1437c-0.77466,-0.07849 -1.54932,-0.15697 -2.32398,-0.23545zM167.71564,220.00577c-3.41917,-1.61196 -6.8193,-3.87959 -10.01164,-5.89443c-2.73743,-1.72772 -7.90596,-3.72613 -9.73101,-6.45758c-0.29844,-0.44667 -1.61221,-5.39713 -1.84403,-6.24715c-1.20969,-4.43637 -2.28597,-8.97149 -3.92344,-13.26554c-0.70409,-1.84638 -1.85957,-3.57288 -2.13815,-5.52922c-0.41877,-2.94083 0.47471,-5.73805 1.01784,-8.5818c1.1471,-6.00599 2.46125,-15.22212 8.57907,-18.263c4.53218,-2.25274 8.84185,-0.16782 12.97129,1.79444c1.07451,2.89202 2.09174,5.83838 2.39314,8.94099c0.76467,7.87151 -2.33667,19.68497 6.28419,24.59414c1.9499,1.11038 5.02505,2.10971 7.19035,2.75584c3.22991,0.96383 6.29865,1.39946 9.66217,1.39946c0.87474,0.08643 1.74948,0.17287 2.62422,0.2593l0.00124,-0.01241c0,0 0.85062,0 1.55951,0.49616c1.55141,-2.04619 3.55866,-3.80954 4.70873,-6.12276c3.4154,-6.86961 8.48666,-15.15283 17.47205,-13.57485c0,0 0.10596,0.02119 0.26942,0.07679c-1.77373,-1.74295 -3.44742,-3.64096 -5.21765,-5.29975c-1.11048,-1.04056 -3.88142,-3.18706 -4.50648,-4.41535c-1.94254,-3.81722 0.1087,-7.29963 0.60526,-10.83503c-3.47823,1.44332 -7.20917,2.66024 -10.75139,3.59161c-3.38978,0.89129 -7.16809,0.33306 -10.64913,1.0346l-0.87225,0.53462c0,0 -2.23606,1.11803 -3.3541,-1.11804c-1.11803,-2.23607 1.11803,-3.35411 1.11803,-3.35411l2.12774,-0.96538c3.31786,-0.659 7.17469,-0.05966 10.35086,-0.9654c3.84772,-1.09723 7.89892,-2.35271 11.59535,-4.01047c-0.04093,-1.3828 0.07294,-2.77926 -0.16801,-4.13894l-0.00001,0.00006c-0.0766,-0.43225 -0.21096,-0.84954 -0.37559,-1.25883c-2.87152,-0.23938 -5.84068,-0.6753 -8.69095,-0.67509c-0.26935,0.00002 -6.01922,0.5069 -6.19059,0.49054c-3.55059,-0.33894 -8.09494,-2.26989 -11.3153,-3.71446l-2.23084,-0.99139c0,0 -2.28453,-1.01534 -1.26918,-3.29987c1.01534,-2.28453 3.29987,-1.26918 3.29987,-1.26918l2.26916,1.00861c2.68734,1.24102 6.71051,3.03474 9.6847,3.28554c1.93703,0.16334 3.8655,-0.50958 5.80941,-0.50946c2.33703,0.00014 4.74896,0.279 7.12668,0.51604c0.16791,-0.50987 0.40612,-1.01696 0.35517,-1.53764c-0.07965,-0.81401 -0.80699,-1.45338 -0.96536,-2.2558c-0.6138,-3.10995 -0.99558,-8.22421 -0.51861,-11.3358c0.7073,-4.61423 4.63598,-8.15228 6.4055,-12.32338c0.80691,-1.90204 0.32049,-4.82485 0.33017,-6.81724c-1.1318,-5.81146 -9.55684,-13.31759 -2.44306,-18.79636c0.89628,-0.69029 2.14168,-0.7297 3.21252,-1.09455l1.79215,-0.25014c0.04054,-0.12977 0.09223,-0.26407 0.15632,-0.40295c1.04764,-2.2699 3.31754,-1.22226 3.31754,-1.22226c2.99166,1.38215 5.71485,3.04393 8.621,4.55986c3.02155,1.57612 6.00352,2.5021 8.54731,4.89194c1.44548,1.35801 2.8603,3.2307 3.5874,5.09622c0.20791,0.53343 -0.17716,1.28645 0.21441,1.70412c0.34786,0.37104 1.02755,0.01351 1.51892,0.14476c0.89162,0.23816 1.70794,0.71362 2.59867,0.95508c2.8477,0.77198 5.22226,0.03707 8.04475,-0.31153c4.02865,-0.49757 6.53278,-0.54816 10.33815,-2.06972c3.70497,-1.67872 8.51618,-3.38411 11.59375,-6.08947c2.59549,-2.28159 3.9343,-5.60312 6.41997,-7.9275c0.1287,-0.12035 4.67615,-3.18255 4.96322,-3.34614c3.03606,-1.73002 8.61661,-4.08234 10.84678,0.78752c0.61059,1.33331 -0.6326,2.86397 -0.93461,4.29901c-0.98346,4.67312 -1.82854,9.31603 -2.41885,14.08638c1.68066,5.37634 8.41643,6.37157 12.38809,9.8409c4.28721,3.74497 7.60116,9.01381 10.10947,14.03043l0.66774,2.18123c0,0 0.05213,0.18244 0.0774,0.46116c3.90152,-1.2325 8.08666,-1.64789 11.73315,-3.29976c1.49422,-0.67688 2.71303,-1.84453 4.07721,-2.75577l1.93823,-1.45367c0.42124,-0.32311 0.94829,-0.51515 1.5202,-0.51515c1.38071,0 2.5,1.11929 2.5,2.5v2.5h-0.16299c0.01864,0.34401 0.00272,0.68833 -0.06042,1.03304c-0.13137,0.71725 -4.34624,4.06252 -5.1782,4.46275c-4.90006,2.35724 -10.83237,2.78969 -15.9199,4.8254l-0.12135,0.12448c-0.03165,1.40079 -0.03467,2.80021 -0.05689,4.22422c0.55079,0.58772 0.70121,1.33982 0.70121,1.33982c0.0661,0.3331 0.1361,0.68338 0.2078,1.04738c1.42834,0.59796 3.85585,0.6019 4.67786,0.71574c6.25599,0.86643 12.56799,3.76412 18.63126,5.5826l1.81787,1.00083c0,0 2.14374,1.28624 0.8575,3.42997c-1.28624,2.14373 -3.42998,0.85749 -3.42998,0.85749l-0.68213,-0.49917c-5.78247,-1.73523 -11.90276,-4.61709 -17.86874,-5.4174c-0.98431,-0.13204 -2.06958,-0.2552 -3.15552,-0.45731c0.2009,1.8525 0.24849,3.68048 -0.04865,5.1826c-0.54396,2.74985 -2.6542,5.54425 -4.08209,7.86186c-1.97422,3.20439 -2.77934,6.94916 -5.15611,9.97421c-1.29643,1.65005 -3.22736,2.6838 -4.80084,4.07216c-3.66062,3.22997 -6.94067,5.19374 -11.20557,7.5747l-0.50938,0.25553c-0.29575,0.49147 -0.66987,0.78245 -0.66987,0.78245c-3.07885,2.29305 -7.08897,3.36233 -11.19375,3.85745c0.34733,2.26995 1.15956,4.35828 1.39672,6.67287c0.04334,0.42297 0.07227,0.84113 0.08823,1.25516c0.20508,0.00356 0.33494,0.0252 0.33494,0.0252c3.67413,0.61407 7.25126,0.88782 10.9851,0.71814c0.96096,-0.04367 1.91398,-0.22104 2.8757,-0.24173c0.45422,-0.00977 0.99599,0.42963 1.35462,0.15071c0.48955,-0.38073 0.30061,-1.24079 0.67891,-1.73222c0.54872,-0.71281 1.45203,-1.08991 2.02645,-1.78218c1.22809,-1.48006 1.79093,-3.45779 3.10208,-4.86479c6.18611,-6.63827 14.63319,-8.06727 23.1146,-5.97106c4.7217,0.99432 9.90855,4.20367 12.74731,8.25216c1.72879,2.46551 1.22231,5.31429 2.46639,7.8727c1.29478,2.66268 2.47529,2.21997 2.48783,5.81424c0.01311,3.75898 -2.73968,5.8892 -4.75412,8.50549c-2.25442,2.92797 -3.29884,6.86583 -5.97811,9.51227c-3.14442,3.10591 -7.55666,3.53794 -11.60997,4.64415c-1.68421,0.45842 -3.44952,0.62457 -5.09645,1.20278c-3.59106,1.26074 -6.84298,3.78799 -10.69831,4.35881c-2.96361,0.43879 -3.16929,-0.22493 -6.06924,-0.48202c-0.98714,-0.08751 -4.57341,0.13116 -5.44425,-0.02376c-2.03042,-0.36119 -3.91769,-1.30702 -5.92392,-1.7846c-1.95412,-0.46517 -4.01365,-0.46111 -5.93385,-1.05088c-4.54336,-1.39544 -8.9405,-4.38914 -13.27627,-6.35632l-0.57183,-0.10056c0,0 -0.83426,-0.20856 -1.40188,-0.87033c-1.76915,0.95703 -3.54953,1.90267 -5.25082,2.97228c0.17282,1.6135 -0.15375,6.24868 0.51821,7.65212c0.86176,1.79985 4.61657,2.9093 5.9355,4.4995c1.65068,1.99018 2.25724,5.17214 4.0434,7.0241c1.03204,1.07006 2.7421,1.15216 4.08537,1.78916c5.59046,2.65106 11.67718,4.85756 17.03907,7.91132c4.05894,0.75626 8.17068,0.76101 12.25745,1.37402c3.30822,0.49624 6.21995,0.35708 8.75423,3.06797c4.95477,5.30008 5.1877,15.65429 -1.17928,20.19466c-4.57415,3.26189 -11.61971,2.20605 -16.83164,2.20728c-6.71143,0.58186 -13.09251,2.84239 -19.97211,1.72668c-3.8942,-0.63155 -5.11017,-3.01892 -8.35576,-4.78898c-6.36197,-3.46967 -13.61256,-5.43116 -20.1473,-8.446c-3.65576,-1.68661 -5.59103,-5.03042 -8.46993,-7.5532c-4.83752,-3.62697 -10.89089,-6.90827 -15.17038,-11.15273c-3.29324,-3.26628 -5.68469,-6.32191 -9.63456,-8.95308l-1.14949,-0.6864c0,0 -0.31294,-0.18776 -0.62795,-0.53938c-0.46012,0.14565 -0.83581,0.14565 -0.83581,0.14565l0.21837,-0.10543c-1.38994,0.4076 -2.75578,0.94155 -4.02215,1.64467c-2.33765,2.09441 -4.89997,4.63108 -6.11441,7.61226c-2.34015,5.74455 0.91715,12.45759 -0.65611,18.45351c-1.07242,4.08713 -3.90202,6.30606 -6.48359,9.46925c-1.59385,1.95294 -1.88253,3.06101 -4.42168,4.20802c-3.76672,1.70155 -8.29864,0.54459 -12.00622,-0.57992c-5.08898,-0.50889 -10.34896,-1.6732 -13.34143,-6.31124c-1.11821,-1.73312 -1.16131,-3.96697 -1.95504,-5.87068c-1.04621,-2.50927 -4.23526,-4.06702 -5.7626,-6.33219c-2.53988,-3.76684 -3.01199,-11.25876 -0.58688,-15.24425c1.59447,-2.6204 3.96183,-3.74748 6.57933,-4.81287c-0.03403,-1.08022 0.78465,-1.89889 0.78465,-1.89889l0.73153,-0.62597c3.49269,-2.03913 4.37301,-5.53034 7.55251,-7.86837c2.63395,-1.93686 5.95715,-1.85217 8.74339,-3.40851c1.97119,-1.10107 3.97105,-2.1623 5.96048,-3.24547c-5.53371,-0.2715 -11.46626,-1.28601 -15.79537,-3.32696zM162.71935,244.57c-2.4618,0.97908 -5.43421,1.85678 -5.97359,4.90158c-0.13944,0.78716 0.27676,4.23102 0.29254,4.66395c0.02414,0.66213 -0.2276,1.34087 -0.07736,1.98618c0.50296,2.16025 4.00433,4.58631 5.21856,5.9891c2.25293,2.60278 1.68092,5.07362 3.43858,7.74691c2.22601,3.3856 6.45292,3.81819 10.15858,4.18876c2.61781,0.77736 6.25562,2.0967 8.99377,0.92008c1.20797,-0.51908 1.82642,-1.86214 2.57833,-2.79199c3.29835,-4.07887 6.46641,-6.59139 6.1942,-12.32327c-0.22549,-4.7482 -1.69513,-9.54252 0.16609,-14.25397c1.55693,-3.94117 4.79629,-7.15795 7.88559,-9.88774c1.73729,-0.96555 3.57699,-1.77461 5.47784,-2.35533l0.82121,-0.07107c-0.36545,-0.63416 -0.74427,-1.25815 -1.15765,-1.86039c-0.51483,-0.75003 -1.39152,-1.19351 -1.94106,-1.91849c-2.2817,-3.01017 -3.72435,-6.66858 -4.19526,-10.36325c-0.02036,-0.00684 -0.04073,-0.0137 -0.06109,-0.02057l-0.01554,0.39608c0,0 -0.20207,-0.20206 -0.40125,-0.53787c-0.43173,-0.14825 -0.86237,-0.30042 -1.29194,-0.45669c-0.1392,1.0274 -1.0042,1.70018 -1.0042,1.70018c-5.50121,4.26536 -11.74021,7.40982 -17.7945,10.69723c-2.47735,1.34517 -6.00405,1.42623 -8.25662,3.0915c-1.08792,0.80427 -2.23671,3.03237 -2.9987,4.00766c-1.21336,1.55299 -2.8257,2.78439 -4.49822,3.84347c0.39879,1.92512 -1.55833,2.70797 -1.55833,2.70797zM210.84568,228.57482c1.53369,2.24794 2.52204,4.69495 4.19519,6.92398c0,0 0.29961,0.39948 0.45249,0.97527c3.21457,2.48309 5.61109,5.27173 8.54971,8.24153c0.52191,0.52745 3.58035,2.48122 3.95958,2.7551c3.67378,2.65317 7.24905,5.37555 10.87005,8.09217c2.4835,2.23138 4.37573,5.53957 7.53006,6.94681c6.61989,2.95331 13.96148,5.01534 20.35269,8.554c1.83884,1.01812 3.12057,2.8546 4.91229,3.95351c1.2116,0.7431 2.8164,0.42293 4.23641,0.48419c5.66373,0.24435 10.97861,-1.478 16.52343,-2c4.06745,0.00079 10.55985,1.20374 14.16836,-1.29272c4.32092,-2.98931 2.89302,-9.48838 0.32072,-12.80535c-1.17707,-1.51783 -4.15923,-1.19405 -5.74577,-1.43203c-4.42813,-0.66422 -8.8477,-0.70667 -13.24255,-1.62597c-5.58451,-3.03785 -11.70659,-5.36611 -17.46092,-8.08868c-1.78005,-0.84221 -3.94251,-1.26887 -5.41463,-2.71085c-2.04339,-2.00154 -2.71772,-5.26697 -4.45659,-7.47589c-1.94441,-2.47001 -4.95777,-2.34228 -6.56451,-5.5005c-1.05323,-2.07024 -0.63127,-6.90696 -0.9657,-9.21702c0,0 -0.05532,-0.38724 0.03098,-0.87724c-0.24244,-0.94383 0.20783,-1.84435 0.20783,-1.84435l1.09931,-1.46209c5.20589,-3.46867 10.90133,-5.39951 15.25263,-10.06306c1.33215,-1.42774 1.49551,-4.76672 1.97222,-6.51461c0.85339,-3.1291 1.49109,-6.07292 1.17408,-9.34586c-0.22556,-2.32879 -1.05894,-4.48483 -1.41048,-6.80298c-1.40875,0.04739 -2.78777,0.0571 -4.10169,0.0566c-2.83589,-0.00108 -5.79377,0.62085 -8.6002,0.49799c-4.40803,-0.19298 -8.67003,-1.81001 -13.02433,-2.00109c-3.00765,-0.13198 -5.83085,0.23508 -8.85021,-0.04238c-2.6006,-0.76778 -5.26797,-1.87096 -7.86972,-2.52622c-3.22291,-0.81169 -6.21551,-0.81597 -9.10583,-2.18677c0.3244,1.56701 0.85822,4.03781 0.67568,5.3584c-0.3548,2.56693 -1.92619,5.40617 -2.54449,7.9838c-0.71266,2.97099 -0.38438,5.96877 -1.04975,8.90465c1.44855,1.32343 3.75127,1.34658 5.50912,2.28684c2.78813,1.49136 8.27042,6.28215 8.8122,9.73965c0.79605,5.08026 -4.96458,8.93144 -9.33036,9.23218c-2.66341,0.18347 -5.74322,-0.79651 -8.34088,-1.29136c-2.55111,-0.48597 -5.0695,-1.0413 -7.55441,-1.69658c0.93431,2.99325 2.92829,5.03256 4.82799,7.81694zM280.04911,222.36656c1.80239,0.54217 3.73519,0.51309 5.56615,0.94912c1.89175,0.4505 3.66453,1.35806 5.57607,1.7154c1.65657,0.30967 3.37659,-0.16712 5.05575,-0.02376c1.71615,0.14652 3.20436,0.78214 4.93076,0.51798c3.46064,-0.52953 6.55207,-3.00674 9.80169,-4.14119c1.74886,-0.61053 3.61672,-0.80888 5.40355,-1.29722c2.57531,-0.70189 5.56181,-0.98497 7.93298,-2.2675c3.54521,-1.91754 4.67899,-7.05006 6.97894,-10.07608c1.17359,-1.54407 3.72649,-3.19609 3.74587,-5.49451c0.00984,-1.16572 -1.69355,-2.99808 -2.01216,-3.68577c-0.94751,-2.04506 -0.66006,-5.31276 -2.03361,-7.1273c-2.25729,-2.98202 -6.11452,-5.56978 -9.7527,-6.24784c-6.82072,-1.72671 -13.36433,-0.83886 -18.3854,4.52894c-1.24478,1.33074 -1.74423,3.22476 -2.89791,4.63521c-0.55219,0.67508 -1.41027,1.05197 -1.97355,1.71782c-0.71328,0.84315 -0.88473,2.18221 -1.82109,2.76777c-1.04655,0.65446 -2.42203,0.48646 -3.64539,0.65072c-4.99009,0.67004 -10.07844,0.3098 -15.0184,-0.50359c-0.42974,2.52192 -1.15016,4.9904 -1.77667,7.58841c-0.6539,2.71158 -0.32911,3.44205 -2.29899,5.8188c-1.45255,1.75257 -3.14594,3.15077 -4.96128,4.37278c3.77472,1.86766 7.65332,4.41902 11.58539,5.6018zM213.09277,181.10544c-3.82389,-0.66236 -5.57222,2.3779 -7.94121,5.06305c-0.95582,1.08337 -2.27327,1.95979 -2.80733,3.3022c-0.34242,0.8607 -0.40576,1.82699 -0.82159,2.65472c-0.82426,1.64072 -1.87248,3.16888 -2.98589,4.6289c-1.10267,1.44592 -2.52955,1.99571 -3.12282,3.78103c-1.23123,3.70515 0.52701,9.00678 2.02936,12.33744c7.35994,2.28703 14.57986,4.42603 22.21756,5.65357c2.37376,0.38152 3.20199,0.22104 5.05579,-1.21963c0.05671,-0.04407 1.95507,-1.02009 1.62177,-1.82274c-0.90311,-2.17486 -4.14752,-5.2233 -6.1878,-6.26035c-1.64577,-0.83653 -3.73467,-0.76575 -5.21241,-1.87237c-1.15936,-0.8682 -1.85231,-2.22719 -2.77847,-3.34079c0.15491,-3.90709 0.04274,-7.75868 0.95024,-11.59535c0.58455,-2.47131 2.04351,-5.07731 2.45551,-7.5162c0.05972,-0.35348 -0.44626,-2.82619 -0.64673,-3.7835c-0.10669,0.03289 -0.21241,0.05777 -0.31501,0.07631l-0.35344,0.6788c0,0 -0.65131,-0.21711 -1.15753,-0.76508zM212.60096,90.47952l-1.59172,0.16387c-5.82256,1.32071 1.10281,8.54487 2.14632,11.54409c0.34259,0.98467 0.41543,2.04333 0.62315,3.06499c0.01202,2.95971 0.41861,6.34408 -0.66984,9.18276c-1.41396,3.68765 -5.59554,7.22897 -6.0945,11.17661c-0.34309,2.7144 -0.05805,7.0035 0.48139,9.6642c0.19425,0.95809 0.93549,1.77166 1.03464,2.7442c0.0862,0.84545 -0.5676,1.65285 -0.5,2.5c0.14363,1.79986 1.64359,3.26945 1.97255,5.04481c0.25836,1.39431 0.16941,2.82712 0.20562,4.24832c0.94234,1.011 0.45401,2.47601 0.45401,2.47601l-0.17025,-0.53086c0.18193,1.03594 0.59645,2.05725 0.54578,3.10782c-0.12811,2.65592 -3.07718,6.73107 -1.53278,9.4722c0.76255,1.35344 2.36043,2.0219 3.49351,3.08465c2.60458,2.44294 4.98185,5.38529 7.79753,7.57975c2.83345,2.2083 6.10138,1.76315 9.33898,2.56758c2.51755,0.62552 5.12379,1.70766 7.63027,2.47378c3.67512,0.329 7.34174,-0.46433 11.01106,0.25216c3.39522,0.66297 6.63338,1.52271 10.11441,1.70436c3.60656,0.1882 7.48904,-0.50937 11.14979,-0.50201c4.00763,0.00806 10.03402,-0.36227 13.5931,-2.59548c0.36181,-0.92705 1.28886,-1.39059 1.28886,-1.39059l1.40393,-0.69932c4.0038,-2.21474 6.88497,-3.91696 10.29442,-6.9253c1.35487,-1.19547 3.09941,-1.9942 4.19917,-3.42784c2.20389,-2.87296 2.99189,-6.47246 4.84389,-9.5258c1.08017,-1.78084 2.98935,-4.03211 3.41791,-6.13813c0.37524,-1.84404 0.00989,-4.4517 -0.42766,-6.76073c-0.29461,-0.31349 -0.56041,-0.66461 -0.79122,-1.05877c-1.69495,-2.89451 -0.57921,-9.22341 -0.31377,-12.43564c0,0 0.04598,-0.55177 0.35433,-1.11434c-0.56562,-0.53718 -0.76678,-1.24124 -0.76678,-1.24124l-0.33226,-1.31876c-2.21975,-4.43949 -5.10671,-9.1515 -8.89053,-12.46957c-3.15263,-2.76458 -8.05561,-3.88782 -11.06824,-6.81065c-2.16951,-2.10484 -2.24347,-3.6234 -3.04368,-6.34844c0.23241,-2.71624 0.98734,-5.30093 1.25068,-7.98571c0.28605,-2.91625 0.23952,-6.39221 2.10872,-8.78676c-0.00218,0.00114 -0.00434,0.00221 -0.00646,0.00319c-0.41177,0.19082 -0.88605,0.21558 -1.30308,0.3946c-0.70694,0.30347 -1.39409,0.65637 -2.05652,1.04759c-2.12392,1.25436 -3.80293,2.36992 -5.25482,4.33773c-1.66543,2.25723 -3.22954,4.52921 -5.36199,6.38863c-3.50463,3.0559 -8.70073,4.9936 -12.90625,6.91053c-1.08006,0.43218 -4.83528,1.9778 -5.79799,2.16292c-1.92145,0.36948 -3.9227,0.0216 -5.86386,0.26736c-3.51305,0.44478 -6.40274,1.08654 -9.95526,0.18846c-0.49561,-0.12529 -6.27682,-2.29712 -6.38241,-2.40015c-1.68864,-1.6477 -1.725,-4.8554 -3.69819,-6.69966c-2.15248,-2.01184 -4.89029,-2.77089 -7.45269,-4.10806c-2.26506,-1.18201 -4.40428,-2.4551 -6.66212,-3.60518c-0.61631,0.97048 -1.85914,1.12583 -1.85914,1.12583z" fill="#ffffff" stroke="none" stroke-width="0.5"/><g fill="#ffffff" stroke="none" stroke-width="0.5"><path d="M2.0979,350.87241c-0.87133,-2.61399 1.74266,-3.48531 1.74266,-3.48531l2.9672,-0.96337c4.42077,-2.99053 6.69398,-4.30209 8.51597,-9.41765c0.29278,-0.82202 0.96076,-1.56253 0.96076,-2.43513c0,-6.11039 -8.01278,-7.28499 -2.49943,-14.07203c0.99338,-1.22287 2.92231,-1.17853 4.38348,-1.76779c0,0 2.61399,-0.87133 3.48531,1.74266c0.87133,2.61399 -1.74266,3.48531 -1.74266,3.48531c-0.93102,0.18228 -3.14672,0.38747 -2.59827,1.16157c0.44832,0.63277 1.46061,0.72799 1.86651,1.38878c0.31108,0.50642 2.61582,7.59154 2.61582,8.06151c0,1.45298 -0.80378,2.79295 -1.24355,4.17779c-2.09829,6.60738 -5.77086,8.96901 -11.32278,12.6254l-3.64571,1.24094c0,0 -2.61399,0.87133 -3.48531,-1.74266z"/><path d="M52.36463,345.46238c1.23224,2.46449 -1.23224,3.69673 -1.23224,3.69673l-4.30788,1.25165c-2.43096,-0.84202 -5.20915,-0.24299 -7.6422,-1.07899c-4.88184,-1.67739 -8.06157,-7.44905 -6.15579,-12.50881c0.49078,-1.303 1.86774,-2.06548 2.80161,-3.09822c0,0 1.94834,-1.94834 3.89669,0c1.94834,1.94834 0,3.89669 0,3.89669c-1.91781,1.56382 -2.48111,5.75045 1.05443,6.43602c2.57497,0.49931 5.29218,0.31846 7.78793,1.12532l0.10073,-0.95266c0,0 2.46449,-1.23225 3.69673,1.23224z"/><path d="M77.19799,328.80423c-1.94834,1.94834 -3.89669,0 -3.89669,0l0.84619,-0.29511c-1.86389,-0.02315 -3.47316,-0.34211 -5.16432,0.69063c-4.52332,2.76226 -4.61085,9.14258 -5.3417,13.52763c-0.34321,2.05927 -1.0925,4.08404 -1.06657,6.17155c0,0 0,2.75538 -2.75538,2.75538c-2.75538,0 -2.75538,-2.75538 -2.75538,-2.75538c0.02262,-2.38171 0.74616,-4.70488 1.13773,-7.05428c1.01077,-6.06459 1.76728,-13.69718 7.88413,-17.33264c3.13055,-1.8606 4.7377,-1.48211 8.06151,-1.51366l3.05049,1.90918c0,0 1.94834,1.94835 0,3.89669z"/><path d="M109.96745,343.38816c0,2.75538 -2.75538,2.75538 -2.75538,2.75538h-2.2043c-0.77034,0 -1.54488,-0.05412 -2.31888,-0.10341c0.36664,2.01522 0.65368,4.05125 0.66566,6.16525l0.81126,0.97205c0,0 1.23225,2.46448 -1.23224,3.69673c-2.46449,1.23225 -3.69674,-1.23224 -3.69674,-1.23224l-1.39304,-3.43656c0.01321,-1.90121 -0.3282,-3.71615 -0.74438,-5.49732c-0.51139,0.21731 -1.02498,0.42424 -1.56964,0.50205c-2.28392,0.32628 -4.67101,0.21032 -6.875,0.86465c-0.0129,0.02298 -0.02613,0.04578 -0.03972,0.06844c-0.99349,1.65582 -2.47323,3.08643 -3.03634,4.93351c0,0 -0.87133,2.61399 -3.48531,1.74266c-2.61399,-0.87133 -1.74266,-3.48531 -1.74266,-3.48531c0.45743,-1.29457 0.6768,-2.69988 1.37227,-3.88372c0.52634,-0.89595 1.66968,-1.31327 2.2043,-2.2043c0.59773,-0.99621 0.50442,-2.31024 1.10215,-3.30646c0.53462,-0.89104 1.66968,-1.31327 2.2043,-2.2043c0.59773,-0.99621 0.50015,-2.31282 1.10215,-3.30646c0.60099,-0.99195 1.67138,-1.61449 2.41732,-2.5026c1.07455,-1.27936 1.46594,-3.41496 3.03501,-3.98892c2.05753,-0.75263 4.9497,-1.00999 6.55495,0.481c1.56506,1.45365 0.64788,4.22691 0.80704,6.35696c0.09768,1.30724 0.28113,2.58841 0.50212,3.85761c1.57328,-0.00241 3.10485,-0.00008 3.35541,-0.00008h2.2043c0,0 2.75538,0 2.75538,2.75538zM94.64702,341.77051c0.43387,-0.06199 0.84773,-0.20773 1.25651,-0.37516c-0.30819,-1.91385 -0.37447,-3.84993 0.15727,-5.87501c-0.29996,0.66225 -0.61466,1.31913 -1.04585,1.89964c-0.54789,0.7376 -1.52236,1.11586 -1.99129,1.90601c-0.48156,0.81143 -0.51364,1.82874 -0.82892,2.71596c0.82088,-0.07642 1.64102,-0.15554 2.4523,-0.27144z"/><path d="M177.34741,351.02171c0.15463,0.2496 0.31782,0.50182 0.49072,0.75742zM176.59475,349.70588c0.42658,-0.18291 2.51665,-0.93857 3.61957,1.26727c1.23224,2.46449 -1.23225,3.69673 -1.23225,3.69673l-5.72916,0.16608c-2.78775,-4.23295 -3.19201,-8.38924 -5.16649,-12.8059c-0.35244,-0.78835 -1.38301,1.03765 -2.11382,1.49767c-0.90978,0.57267 -2.23077,0.29217 -3.08256,0.94801c-2.14084,1.64835 -3.76771,6.13216 -4.56927,8.60099c0,0 -0.56048,1.68141 -2.13091,1.89768c-0.16557,0.80619 -0.73422,2.19068 -2.68738,2.19068c-2.75538,0 -2.75538,-2.75538 -2.75538,-2.75538c0,-2.08996 -0.19723,-4.41446 -0.20519,-6.66163c-0.2547,0.54777 -0.60184,0.89491 -0.60184,0.89491l-2.70405,2.59982c-2.91256,1.02912 -8.27025,3.81165 -11.36796,3.71798c-7.31768,-0.22128 -11.22511,-8.01154 -7.85462,-14.12335c0.25548,-0.46326 0.53163,-0.89843 0.82665,-1.30679h-2.8914c-2.40147,0 -4.45893,0.19224 -6.48217,0.52547c0.22569,2.90066 0.42033,5.82172 0.42033,8.84282v3.30646c0,0 0,2.75538 -2.75538,2.75538c-2.75538,0 -2.75538,-2.75538 -2.75538,-2.75538v-3.30646c0,-2.6218 -0.14654,-5.16374 -0.33275,-7.68266c-0.5673,0.13936 -1.15032,0.28512 -1.75435,0.43641c0,0 -2.67311,0.66828 -3.34138,-2.00484c-0.66828,-2.67312 2.00483,-3.3414 2.00483,-3.3414c0.91653,-0.22869 1.79784,-0.44625 2.65695,-0.64976c-0.18749,-2.52792 -0.33543,-5.07492 -0.33543,-7.69865c0,0 0,-2.75538 2.75538,-2.75538c2.75538,0 2.75538,2.75538 2.75538,2.75538c0,2.23842 0.10865,4.42688 0.25773,6.59862c2.17961,-0.33983 4.40159,-0.53678 6.90626,-0.53678h3.30646c0,0 2.57721,0 2.74664,2.49247c2.7005,-1.77105 6.02688,-2.46068 9.37704,-2.49247c0,0 2.75538,0 2.75538,2.75538c0,2.75538 -2.75538,2.75538 -2.75538,2.75538c-3.86372,-0.04799 -6.36257,0.90428 -8.67767,4.20396c-1.50036,2.13845 0.38295,5.89058 3.1669,5.71541c2.55142,-0.16053 5.96206,-2.13012 8.47078,-2.89495l1.70456,-1.80879c0,0 1.94834,-1.94834 3.89669,0c0.3129,0.31289 0.5253,0.62579 0.6614,0.93061c0.03788,-0.55587 0.09611,-1.10027 0.1812,-1.62793c0.39018,-2.41922 1.08855,-4.82331 1.06657,-7.2737v-3.30646c0,0 0,-2.75538 2.75538,-2.75538c2.75538,0 2.75538,2.75538 2.75538,2.75538v3.30646c-0.01767,2.40929 -0.52062,4.78874 -0.95947,7.16367c0.91247,-1.51079 1.96106,-2.86975 3.14451,-3.84262c0.96489,-0.79321 2.44982,-0.62971 3.53036,-1.2563c1.13826,-0.66006 1.70817,-2.43806 3.01984,-2.54211c2.04934,-0.16258 4.29221,0.53928 5.88785,1.83548c1.22287,0.99338 1.21692,2.90742 1.7678,4.38348c1.01057,2.70781 1.63444,4.8909 2.84385,7.18903z"/><path d="M215.22301,320.79404c2.75538,0 2.75538,2.75538 2.75538,2.75538l-0.1414,1.97348c-1.24512,3.59478 -0.52469,7.0455 -2.47443,10.49662c-0.51112,0.90472 -1.66825,1.31412 -2.2043,2.2043c-0.55341,0.91902 -0.48399,2.11248 -0.97081,3.06846c-1.16343,2.28463 -3.12358,4.06761 -4.75296,6.04706c-0.99548,1.20935 -1.42976,2.96575 -2.74792,3.81187c-3.49711,2.24476 -10.79799,2.54086 -14.28125,-0.06258c-1.22781,-0.91769 -1.69828,-2.55781 -2.66266,-3.74929c-0.75126,-0.9282 -1.94801,-1.52019 -2.47118,-2.59362c-2.68945,-5.51814 -2.03336,-14.24276 -0.21625,-19.86333c0,0 0.87133,-2.61399 3.48531,-1.74266c2.61399,0.87133 1.74266,3.48531 1.74266,3.48531c-1.35427,3.90989 -2.23698,11.51545 -0.21625,15.40553c0.40793,0.78529 1.39002,1.1197 1.93743,1.81499c0.69156,0.8784 0.9146,2.11617 1.74595,2.86362c1.3227,1.18924 6.5508,0.7971 7.76179,-0.06258c0.88511,-0.62833 0.99728,-1.94192 1.66069,-2.80104c1.30865,-1.69477 3.12227,-3.05158 4.06426,-4.97447c0.55035,-1.12342 0.59144,-2.47081 1.2335,-3.54447c0.53331,-0.89183 1.63756,-1.33335 2.2043,-2.2043c1.35472,-2.0819 0.31955,-3.23473 0.72621,-5.60569c0.22127,-1.2901 0.80532,-2.49094 1.20797,-3.73642l-0.1414,-0.23082c0,0 0,-2.75538 2.75538,-2.75538z"/><path d="M220.98972,353.05158c-1.94834,-1.94834 0,-3.89669 0,-3.89669l2.17916,-1.76779c4.27399,-1.30299 9.89034,-5.84487 8.15355,-10.91553c-1.33463,-3.89649 -8.25065,-7.43654 -3.7198,-12.66619c1.1604,-1.33938 3.5032,-0.53802 5.2548,-0.80703c0,0 2.75538,0 2.75538,2.75538c0,2.75538 -2.75538,2.75538 -2.75538,2.75538c-0.4527,-0.26901 -0.86418,-0.62446 -1.35812,-0.80704c-0.27749,-0.10257 0.50224,0.33006 0.68881,0.55964c0.66799,0.822 1.27223,1.69521 1.85977,2.57651c1.58405,2.37608 2.69794,5.28581 2.66707,8.14132c-0.01573,1.45523 0.33507,3.01141 -0.20974,4.3609c-0.52124,1.29112 -1.84577,2.08576 -2.80159,3.09822c-2.91151,3.08404 -4.74265,4.74557 -8.79208,6.1764l-0.02514,0.43652c0,0 -1.94834,1.94834 -3.89669,0z"/><path d="M250.13074,341.73494c-0.13892,0.16603 -0.27239,0.33374 -0.39967,0.50336c-0.83489,1.11253 0.94501,1.97968 1.40554,2.32548c2.96736,2.22805 4.51711,1.57978 8.17249,1.57978c0,0 2.75538,0 2.75538,2.75538c0,2.75538 -2.75538,2.75538 -2.75538,2.75538c-0.84003,0 -6.96822,0.03173 -7.41138,-0.11823c-4.4281,-1.49841 -9.3697,-6.20496 -7.25794,-11.40666c0.10916,-0.26889 1.14316,-1.37864 2.34779,-2.61841c0.21179,-0.36653 0.49781,-0.62867 0.7986,-0.81614c1.21466,-1.23379 2.43636,-2.44483 2.96166,-2.97012c2.80584,-2.80584 5.7737,-7.52553 10.71785,-5.0059c6.95268,3.54321 2.59915,8.94024 -1.81015,11.50243c-3.41487,1.98433 -5.37654,1.48589 -9.16366,1.51367zM256.71488,335.56067c0.01454,-0.00894 0.02903,-0.01799 0.04348,-0.02713c1.16312,-0.73644 1.24274,-1.49777 1.77807,-1.86368c-0.15451,0.0371 -0.28781,0.08301 -0.37719,0.14028c-0.58197,0.3729 -0.84182,1.09889 -1.31039,1.607c-0.04421,0.04794 -0.08887,0.09579 -0.13396,0.14352z"/><path d="M290.42956,330.29243c-1.23225,2.46449 -3.69674,1.23224 -3.69674,1.23224l-0.97205,-0.81125c-1.93854,0 -3.97064,-0.71683 -5.81445,-0.11823c-5.99201,1.94532 -2.93885,8.57029 -3.58942,13.23435c-0.28841,2.06766 -1.0925,4.08404 -1.06657,6.17155c0,0 0,2.75538 -2.75538,2.75538c-2.75538,0 -2.75538,-2.75538 -2.75538,-2.75538c0.02261,-2.38171 0.79217,-4.69767 1.13773,-7.05428c0.84246,-5.74533 -2.04802,-10.60195 3.17723,-14.91532c1.29687,-1.07054 2.66195,-2.17159 4.25487,-2.71061c0.44315,-0.14996 6.57136,-0.11823 7.41138,-0.11823l3.43656,1.39304c0,0 2.46449,1.23225 1.23224,3.69674z"/><path d="M325.98933,352.20538c0,2.75538 -2.75538,2.75538 -2.75538,2.75538h-2.2043c-5.18629,0 -14.71198,0.64047 -15.96781,-6.89248c-0.33016,-1.98045 1.69378,-3.6596 2.81543,-5.32485c0.43625,-0.64767 1.4873,-0.79182 1.78951,-1.51187c0.71758,-1.70966 -0.22043,-3.70437 -0.20974,-5.55847c0.00553,-0.95972 0.31867,-3.91493 -0.53648,-4.94041c-2.58059,-3.09462 -7.00491,-2.35731 -10.16479,-1.26282c0,0 -2.61399,0.87133 -3.48531,-1.74266c-0.87133,-2.61399 1.74266,-3.48531 1.74266,-3.48531c5.40698,-1.74806 12.24656,-2.00518 16.28687,3.14579c2.40737,3.06913 1.76596,8.00395 1.66782,11.59188c-0.0398,1.45476 0.31878,3.00494 -0.20974,4.3609c-0.47274,1.21287 -1.69562,1.97929 -2.6191,2.89674c-0.48447,0.48131 -1.70534,0.61443 -1.59318,1.28806c0.12926,0.77639 1.29655,0.90838 2.01307,1.2341c2.64396,1.20191 5.65733,0.69064 8.47078,0.69064h2.2043c0,0 2.75538,0 2.75538,2.75538z"/><path d="M337.83328,353.48308c-0.12998,0.22157 -0.30276,0.44611 -0.52731,0.67066c-1.94834,1.94834 -3.89669,0 -3.89669,0c-1.98557,-2.00134 -4.14033,-3.83226 -5.09741,-6.66064c-1.12779,-3.33283 -0.02439,-8.45199 1.12532,-11.58917c0.54213,-1.47929 0.59442,-3.33208 1.7678,-4.38348c1.38794,-1.24367 3.39476,-1.79364 5.2548,-1.90918c5.33368,-0.33131 9.99564,3.86364 11.43121,8.49697c0.48843,1.57641 1.48572,3.19102 1.16984,4.81084c-0.27517,1.41104 -1.88048,2.17718 -2.75512,3.31813c-0.93258,1.21653 -1.47051,2.78573 -2.66266,3.74929c-0.97144,0.78517 -2.35358,0.83754 -3.53037,1.2563l-1.70454,1.80879c0,0 -0.2155,0.2155 -0.57484,0.43149zM335.36231,348.33681l1.85318,-1.78175c1.02751,-0.31601 2.23876,-0.28192 3.08254,-0.94801c0.87751,-0.6927 1.01713,-2.01588 1.74595,-2.86362c0.43042,-0.50065 1.51533,-0.44487 1.65349,-1.09048c0.14494,-0.67728 -0.78602,-1.15553 -1.03447,-1.80206c-0.29174,-0.75917 0.01378,-1.8059 -0.56974,-2.37245c-0.27296,-0.26503 -6.06797,-3.36061 -6.99161,-2.06129c-0.43874,0.61721 -0.23191,1.50035 -0.43651,2.22945c-0.63735,2.27121 -1.87088,5.81037 -1.07899,8.24958c0.2241,0.69028 0.97662,1.59926 1.77614,2.44065z"/><path d="M364.14809,342.9413c2.04978,2.13779 4.59867,5.36952 7.27688,6.62693c3.34606,1.57095 2.28335,-5.02921 1.0594,-6.0405c-3.23031,-0.98481 -4.39003,-2.09829 -7.59945,-0.83204zM359.7302,338.61034c0.06671,-0.02751 0.10561,-0.04047 0.10561,-0.04047l3.30646,-1.10215c1.39259,-0.41452 2.72481,-1.24355 4.17779,-1.24355c0.86574,0 7.1811,2.30473 8.06151,2.61582c1.10046,1.16458 2.64748,2.03097 3.30135,3.49374c0.59391,1.32861 0.20974,2.90558 0.20974,4.3609c0,5.40142 -2.64413,9.93413 -9.06461,8.14792c-1.62012,-0.45073 -2.91944,-1.68859 -4.25487,-2.7106c-4.31374,-3.30132 -11.03261,-9.38226 -11.99445,-14.91532c-1.36043,-7.82602 6.5181,-18.494 14.84348,-18.62688c1.45279,-0.02319 2.78519,0.82903 4.17779,1.24355c0,0 2.61399,0.87133 1.74266,3.48531c-0.87133,2.61399 -3.48531,1.74266 -3.48531,1.74266c-0.81171,-0.32025 -1.56294,-0.93404 -2.43513,-0.96076c-1.18229,-0.03622 -4.36149,2.27742 -4.86604,2.68193c-3.12844,2.50814 -6.33778,7.82151 -3.82597,11.82793z"/><path d="M393.28732,322.88653c-0.57536,0.06044 -1.15016,0.11181 -1.71992,0.11181c0,0 -2.75538,0 -2.75538,-2.75538c0,-2.75538 2.75538,-2.75538 2.75538,-2.75538c4.37223,0 9.02425,-1.01808 12.1091,3.28719c3.29117,4.59322 1.80766,6.27126 -1.54499,9.31411c-0.82785,0.75135 -2.14805,0.88699 -2.86362,1.74595c-0.15166,0.18205 -0.25182,0.39035 -0.32259,0.61382c3.27194,1.85264 5.60641,4.59756 8.1918,7.28662c1.49323,4.35788 4.28085,14.46905 -2.81296,16.25394c-1.80287,0.45362 -3.72479,-0.60959 -5.3881,-1.43996c-6.68448,-3.33703 -7.81428,-11.82593 -6.46762,-18.63662c-0.04929,-0.03163 -0.09775,-0.06491 -0.1453,-0.09998c-4.22815,-3.11796 -4.35227,-4.58619 -1.99743,-9.30321c0.55849,-1.11872 1.73321,-1.80271 2.59982,-2.70406zM397.6824,338.16315c-0.234,1.56884 -0.27686,3.15448 -0.07381,4.88835c0.2609,2.22795 2.5606,7.21762 5.44943,7.57437c0.93631,0.11563 0.11407,-1.88621 0.08198,-2.82909c-0.05908,-1.73576 -0.16755,-3.50821 -0.69064,-5.16432c-1.57757,-1.48665 -3.02071,-3.17512 -4.76695,-4.46931zM398.74842,323.42341c-0.00731,0.75702 -0.30793,1.35825 -0.30793,1.35825l-1.27619,2.30306c1.15919,-0.46448 2.32928,-0.89277 2.74295,-1.96405c0.25541,-0.66145 -0.38052,-1.26905 -1.15883,-1.69725z"/><path d="M442.81749,351.10323c0,2.75538 -2.75538,2.75538 -2.75538,2.75538l-2.22555,-0.00008c-4.25202,-0.03294 -15.35806,1.23105 -18.03282,-3.01657c-1.02389,-1.62597 1.77131,-3.42408 2.87989,-4.99353c2.46134,-3.48459 5.684,-4.65599 7.04943,-8.84235c0.30164,-0.92479 1.58109,-3.63124 1.07899,-4.94312c-2.06968,-5.40751 -6.96419,-8.87257 -12.68724,-9.06664c-1.41577,-0.04801 -4.48777,2.37051 -5.19025,2.84572c0,0 -2.29262,1.52841 -3.82103,-0.76421c-1.52841,-2.29262 0.76421,-3.82103 0.76421,-3.82103c2.41974,-1.5936 4.89723,-3.70245 8.03558,-3.76719c7.06922,-0.14583 12.01892,3.39349 15.62419,8.94001c0.86723,1.33418 2.08238,2.51503 2.54884,4.0364c1.53458,5.00507 -1.79477,11.49618 -5.09741,14.87049c-0.73384,0.74975 -1.36438,1.65523 -2.05417,2.47455c3.08395,-0.2113 6.90169,0.52119 8.9443,0.53687l2.18306,-0.00008c0,0 2.75538,0 2.75538,2.75538z"/><path d="M461.00301,359.36938c-2.75538,0 -2.75538,-2.75538 -2.75538,-2.75538v-1.10215c0.06154,-6.48262 2.87507,-15.16538 5.79094,-21.04933c0.58817,-1.18687 1.61021,-2.12254 2.2043,-3.30646c0.56107,-1.11811 0.53582,-2.50609 1.23348,-3.54447c0.79133,-1.17779 2.12143,-1.88927 3.10469,-2.91231c0.16449,-0.17114 0.52654,-0.54288 0.31036,-0.64092c-0.59047,-0.26778 -1.3103,0.04453 -1.9425,-0.09927c-2.74239,-0.62376 -5.43254,-1.47013 -8.10077,-2.35916c-7.51714,-2.50465 -15.23816,-3.95567 -22.7595,-6.45806c0,0 -2.61399,-0.87133 -1.74266,-3.48531c0.87133,-2.61399 3.48531,-1.74266 3.48531,-1.74266c5.77215,1.92791 11.84925,2.51259 17.6094,4.4004c3.29186,1.07886 6.53282,2.31879 9.85873,3.28765c1.31956,0.3844 7.59716,2.47949 8.06255,3.23421c3.47401,5.6336 -0.94068,6.26137 -3.19787,9.6726c-0.59199,0.89466 -0.49254,2.10818 -0.97082,3.06845c-3.22111,6.46723 -7.52741,14.48378 -7.43489,21.93462v1.10215c0,0 0,2.75538 -2.75538,2.75538z"/></g></g></g></svg>