<svg version="1.1" xmlns="http://www.w3.org/2000/svg" xmlns:xlink="http://www.w3.org/1999/xlink" width="159.87616" height="43.56883" viewBox="0,0,159.87616,43.56883"><defs><linearGradient x1="239.99999" y1="159.71559" x2="239.99999" y2="200.28441" gradientUnits="userSpaceOnUse" id="color-1"><stop offset="0" stop-color="#ffffff"/><stop offset="1" stop-color="#ffffff" stop-opacity="0"/></linearGradient></defs><g transform="translate(-160.23318,-158.21559)"><g data-paper-data="{&quot;isPaintingLayer&quot;:true}" fill-rule="nonzero" stroke-linecap="butt" stroke-linejoin="miter" stroke-miterlimit="10" stroke-dasharray="" stroke-dashoffset="0" style="mix-blend-mode: normal"><g><path d="M313.62362,193.99153c-13.57792,8.21995 -151.89043,10.06162 -151.89043,-4.78629c0,-5.05948 -2.2748,-20.03426 4.90011,-24.07587c13.88107,-7.81919 136.24961,-7.21141 148.71967,2.10344c4.52663,3.38129 4.67615,22.88089 -1.72934,26.75872z" fill="#0095e4" stroke="#c3c3c3" stroke-width="3"/><text transform="matrix(0.63698 0 0 0.63698 175.48673 171.71925000000002)" font-size="40"  fill="#444444" fill-rule="nonzero" stroke="none" stroke-width="1" stroke-linecap="butt" stroke-linejoin="miter" stroke-miterlimit="10" stroke-dasharray="" stroke-dashoffset="0" font-family="Helvetica" font-weight="normal" text-anchor="start" style="mix-blend-mode: normal" >Don't Save</text><path d="M313.62361,193.99153c-13.57792,8.21995 -151.89043,10.06162 -151.89043,-4.78629c0,-5.05948 -2.2748,-20.03426 4.90011,-24.07587c13.88107,-7.81919 136.24961,-7.21141 148.71967,2.10344c4.52663,3.38129 4.67615,22.88089 -1.72934,26.75872z" fill="url(#color-1)" stroke="#c3c3c3" stroke-width="3"/></g></g></g></svg>