<svg xmlns="http://www.w3.org/2000/svg" xmlns:xlink="http://www.w3.org/1999/xlink" version="1.1" width="71.5" height="102.83000183105469" viewBox="-0.75 -0.75 71.5 102.83000183105469">
  <!-- Exported by Scratch - http://scratch.mit.edu/ -->
  <path id="ID0.4177084397524595_21_" fill="none" d="M 0 0 L 70 0 L 70 101.330 L 0 101.330 L 0 0 Z " stroke-width="1"/>
  <path id="ID0.8384288609959185" fill="#FCEE21" stroke="#807B3A" d="M 14 21.330 L 20.160 21.330 L 20.160 79.660 L 14 79.660 L 14 21.330 Z " stroke-width="1"/>
  <path id="ID0.4964490276761353" fill="#FCEE21" stroke="#807B3A" d="M 26.170 87.330 L 17.100 88.330 L 8.030 87.330 L 9.320 79.670 L 24.880 79.670 L 26.170 87.330 " stroke-width="1"/>
  <path id="ID0.5623504188843071" fill="none" stroke="#FFFFFF" stroke-width="1.5" d="M 16 23 L 16 74.670 "/>
  <path id="ID0.5337067288346589" fill="none" stroke="#FFFFFF" stroke-width="1.5" d="M 12.110 81 L 19.900 81 "/>
  <path id="ID0.681304331868887" fill="#FCEE21" stroke="#807B3A" d="M 17.030 12.180 C 18.451 12.180 19.738 12.757 20.671 13.689 C 21.603 14.622 22.180 15.909 22.180 17.330 C 22.180 18.751 21.603 20.038 20.671 20.971 C 19.738 21.903 18.451 22.480 17.030 22.480 C 15.609 22.480 14.322 21.903 13.389 20.971 C 12.457 20.038 11.880 18.751 11.880 17.330 C 11.880 15.909 12.457 14.622 13.389 13.689 C 14.322 12.757 15.609 12.180 17.030 12.180 Z " stroke-width="1"/>
  <path id="ID0.23918739659711719" fill="#FFFFFF" d="M 15.440 14.190 C 15.870 14.190 16.260 14.365 16.543 14.647 C 16.825 14.930 17 15.320 17 15.750 C 17 16.180 16.825 16.570 16.543 16.853 C 16.260 17.135 15.870 17.310 15.440 17.310 C 15.010 17.310 14.620 17.135 14.337 16.853 C 14.055 16.570 13.880 16.180 13.880 15.750 C 13.880 15.320 14.055 14.930 14.337 14.647 C 14.620 14.365 15.010 14.190 15.440 14.190 Z " stroke-width="1"/>
</svg>