<svg xmlns="http://www.w3.org/2000/svg" xmlns:xlink="http://www.w3.org/1999/xlink" xmlns:a="http://ns.adobe.com/AdobeSVGViewerExtensions/3.0/" version="1.1" x="0px" y="0px" width="68.89999847412109" height="70.28999786376953" viewBox="-0.65 -0.65 68.89999847412109 70.28999786376953" enable-background="new -6.5 -5.5 81 79" xml:space="preserve">
  <defs/>
  <g>
    <path fill="#E6E6E6" stroke="#999999" d="M57.04,29.14c0.52,3.75-2.56,8.3-6.94,7.9c-4.14-0.39-8.32-1.94-8.84-5.69&#13;&#10;&#9;c-0.52-3.75,2.58-7.29,6.94-7.9C52.56,22.84,56.52,25.39,57.04,29.14z" stroke-width="1"/>
    <path fill="#E6E6E6" stroke="#999999" d="M50.88,11.09c5.64,2.43,7.71,7.15,5.32,11.16c-3.32,5.55-12.38,8.87-16.49,6.23&#13;&#10;&#9;c-4.11-2.64-2.62-9.25,0.46-14.05S46.4,9.16,50.88,11.09z" stroke-width="1"/>
    <line fill="none" stroke="#FFFFFF" x1="41.2" y1="25.76" x2="49.15" y2="14.49" stroke-width="1"/>
    <line fill="none" stroke="#FFFFFF" x1="46.65" y1="18.25" x2="51.86" y2="18.56" stroke-width="1"/>
    <line fill="none" stroke="#FFFFFF" x1="41.97" y1="24.34" x2="47.19" y2="24.66" stroke-width="1"/>
    <line fill="none" stroke="#FFFFFF" x1="42.41" y1="15.44" x2="45.6" y2="19.32" stroke-width="1"/>
    <line fill="none" stroke="#FFFFFF" x1="40.81" y1="19.32" x2="43.47" y2="22.55" stroke-width="1"/>
    <line fill="none" stroke="#FFFFFF" x1="44.49" y1="21.24" x2="52.44" y2="21.73" stroke-width="1"/>
    <path fill="#E6E6E6" stroke="#999999" d="M10.3,29.14c-0.52,3.75,2.56,8.3,6.94,7.9c4.14-0.39,8.32-1.94,8.84-5.69&#13;&#10;&#9;c0.52-3.75-2.58-7.29-6.94-7.9C14.78,22.84,10.82,25.39,10.3,29.14z" stroke-width="1"/>
    <path fill="#E6E6E6" stroke="#999999" d="M16.46,11.09c-5.64,2.43-7.71,7.15-5.32,11.16c3.32,5.55,12.38,8.87,16.49,6.23&#13;&#10;&#9;c4.11-2.64,2.62-9.25-0.46-14.05S20.94,9.16,16.46,11.09z" stroke-width="1"/>
    <line fill="none" stroke="#FFFFFF" x1="26.14" y1="25.76" x2="18.19" y2="14.49" stroke-width="1"/>
    <line fill="none" stroke="#FFFFFF" x1="20.69" y1="18.25" x2="15.48" y2="18.56" stroke-width="1"/>
    <line fill="none" stroke="#FFFFFF" x1="25.37" y1="24.34" x2="20.15" y2="24.66" stroke-width="1"/>
    <line fill="none" stroke="#FFFFFF" x1="24.93" y1="15.44" x2="21.75" y2="19.32" stroke-width="1"/>
    <line fill="none" stroke="#FFFFFF" x1="26.53" y1="19.32" x2="23.87" y2="22.55" stroke-width="1"/>
    <line fill="none" stroke="#FFFFFF" x1="22.85" y1="21.24" x2="14.9" y2="21.73" stroke-width="1"/>
    <path fill="#FCEE21" stroke="#000000" d="M49.23,38.88c0,8.64-7,17.48-15.64,17.48c-8.64,0-15.64-8.85-15.64-17.48&#13;&#10;&#9;s7-13.79,15.64-13.79C42.23,25.09,49.23,30.25,49.23,38.88z" stroke-width="1"/>
    <path fill="#D9E021" stroke="#42210B" stroke-width="1.3" d="M49.23,38.88c0,8.64-7,17.48-15.64,17.48&#13;&#10;&#9;c-8.64,0-15.64-8.85-15.64-17.48s7-13.79,15.64-13.79C42.23,25.09,49.23,30.25,49.23,38.88z"/>
    <path fill="#FCEE21" d="M33.13,52.21c-7.25,0-12.87-7.91-12.87-14.71c0-7.62,6.46-11.02,12.87-11.02S46,29.88,46,37.5&#13;&#10;&#9;C46,44.3,40.38,52.21,33.13,52.21L33.13,52.21z" stroke-width="1"/>
    <line fill="none" stroke="#000000" x1="38.2" y1="53.56" x2="40.81" y2="57.98" stroke-width="1"/>
    <line fill="none" stroke="#000000" x1="37.2" y1="54.34" x2="38.74" y2="58.63" stroke-width="1"/>
    <line fill="none" stroke="#000000" x1="39.69" y1="53.04" x2="42.41" y2="56.49" stroke-width="1"/>
    <line fill="none" stroke="#000000" x1="44.77" y1="49.09" x2="48.51" y2="51.6" stroke-width="1"/>
    <line fill="none" stroke="#000000" x1="44.2" y1="50.08" x2="47" y2="52.89" stroke-width="1"/>
    <line fill="none" stroke="#000000" x1="45.83" y1="48.12" x2="49.32" y2="49.83" stroke-width="1"/>
    <line fill="none" stroke="#000000" x1="22.23" y1="49.09" x2="18.49" y2="51.6" stroke-width="1"/>
    <line fill="none" stroke="#000000" x1="22.8" y1="50.08" x2="20" y2="52.89" stroke-width="1"/>
    <line fill="none" stroke="#000000" x1="21.16" y1="48.12" x2="17.68" y2="49.83" stroke-width="1"/>
    <line fill="none" stroke="#000000" x1="29.44" y1="53.56" x2="26.83" y2="57.98" stroke-width="1"/>
    <line fill="none" stroke="#000000" x1="30.45" y1="54.34" x2="28.91" y2="58.63" stroke-width="1"/>
    <line fill="none" stroke="#000000" x1="27.95" y1="53.04" x2="25.24" y2="56.49" stroke-width="1"/>
    <line fill="none" stroke="#000000" x1="33.37" y1="26.25" x2="33.37" y2="21.12" stroke-width="1"/>
    <line fill="none" stroke="#000000" x1="32.11" y1="26.09" x2="31.26" y2="21.61" stroke-width="1"/>
    <line fill="none" stroke="#000000" x1="34.91" y1="25.94" x2="35.51" y2="21.59" stroke-width="1"/>
    <ellipse transform="matrix(0.9723,-0.2338,0.2338,0.9723,-9.1884,7.3424)" fill="#D9E021" cx="26.38" cy="42.43" rx="2.15" ry="2.66" stroke-width="1"/>
    <ellipse transform="matrix(0.2309,0.973,-0.973,0.2309,49.7316,-3.7833)" fill="#CDD41F" cx="27.26" cy="29.56" rx="0.99" ry="1.92" stroke-width="1"/>
    <ellipse transform="matrix(0.9341,0.3571,-0.3571,0.9341,19.5565,-11.6793)" fill="#CDD41F" cx="41.41" cy="47.12" rx="1.8" ry="1.92" stroke-width="1"/>
    <ellipse transform="matrix(-0.1423,0.9898,-0.9898,-0.1423,71.8749,-1.0893)" fill="#D9E021" cx="36.41" cy="30.6" rx="1.65" ry="2.69" stroke-width="1"/>
    <rect fill="none" width="67.6" height="68.99" stroke-width="1"/>
    <path fill="#FFFFFF" stroke="#000000" d="M45.25,35.17c0,3.45-2.8,6.25-6.25,6.25c-3.45,0-5.25-2.8-5.25-6.25&#13;&#10;&#9;c0-3.45,1.8-6.25,5.25-6.25C42.45,28.92,45.25,31.71,45.25,35.17z" stroke-width="1"/>
    <circle cx="39" cy="35.17" r="1" stroke-width="1"/>
    <path fill="#FFFFFF" stroke="#000000" d="M33.25,35.17c0,3.45-1.8,6.25-5.25,6.25c-3.45,0-6.25-2.8-6.25-6.25&#13;&#10;&#9;c0-3.45,2.8-6.25,6.25-6.25C31.45,28.92,33.25,31.71,33.25,35.17z" stroke-width="1"/>
    <circle cx="28" cy="35.17" r="1" stroke-width="1"/>
    <path fill="none" stroke="#000000" d="M29.5,50.09c0-1.5,8.23-1.5,8.23,0" stroke-width="1"/>
  </g>
</svg>