<svg version="1.1" xmlns="http://www.w3.org/2000/svg" xmlns:xlink="http://www.w3.org/1999/xlink" width="453.64285" height="54.04703" viewBox="0,0,453.64285,54.04703"><defs><linearGradient x1="1052.77267" y1="-1888.78581" x2="1052.77267" y2="-1653.53311" gradientUnits="userSpaceOnUse" id="color-1"><stop offset="0" stop-color="#005921"/><stop offset="1" stop-color="#00ff14"/></linearGradient><linearGradient x1="1052.77267" y1="-1888.78581" x2="1052.77267" y2="-1653.53311" gradientUnits="userSpaceOnUse" id="color-2"><stop offset="0" stop-color="#005921"/><stop offset="1" stop-color="#00ff14"/></linearGradient><linearGradient x1="243.02929" y1="206.58765" x2="243.02929" y2="223.32538" gradientUnits="userSpaceOnUse" id="color-3"><stop offset="0" stop-color="#555555"/><stop offset="1" stop-color="#c5c5c5"/></linearGradient><linearGradient x1="244.02929" y1="219.23737" x2="244.02929" y2="223.17566" gradientUnits="userSpaceOnUse" id="color-4"><stop offset="0" stop-color="#555555"/><stop offset="1" stop-color="#c5c5c5"/></linearGradient><linearGradient x1="340.30307" y1="-92.34856" x2="340.30307" y2="8.46261" gradientUnits="userSpaceOnUse" id="color-5"><stop offset="0" stop-color="#005921"/><stop offset="1" stop-color="#00ff14"/></linearGradient><linearGradient x1="340.30307" y1="-92.34856" x2="340.30307" y2="8.46261" gradientUnits="userSpaceOnUse" id="color-6"><stop offset="0" stop-color="#005921"/><stop offset="1" stop-color="#00ff14"/></linearGradient><linearGradient x1="41.71137" y1="205.41337" x2="63.93226" y2="200.40662" gradientUnits="userSpaceOnUse" id="color-7"><stop offset="0" stop-color="#8a5500"/><stop offset="1" stop-color="#ff9d00"/></linearGradient><linearGradient x1="49.87242" y1="192.71043" x2="56.20917" y2="218.41673" gradientUnits="userSpaceOnUse" id="color-8"><stop offset="0" stop-color="#ffffff" stop-opacity="0"/><stop offset="1" stop-color="#ffffff"/></linearGradient><linearGradient x1="89.40524" y1="219.99915" x2="89.40524" y2="190.06168" gradientUnits="userSpaceOnUse" id="color-9"><stop offset="0" stop-color="#00ffff"/><stop offset="1" stop-color="#66c0ff"/></linearGradient><linearGradient x1="88.10624" y1="204.48357" x2="88.10624" y2="192.82518" gradientUnits="userSpaceOnUse" id="color-10"><stop offset="0" stop-color="#ffffff"/><stop offset="1" stop-color="#ffffff" stop-opacity="0"/></linearGradient><linearGradient x1="88.35861" y1="204.63257" x2="88.35861" y2="193.8056" gradientUnits="userSpaceOnUse" id="color-11"><stop offset="0" stop-color="#ffffff"/><stop offset="1" stop-color="#ffffff" stop-opacity="0"/></linearGradient><linearGradient x1="86.22252" y1="203.49027" x2="86.22252" y2="192.60232" gradientUnits="userSpaceOnUse" id="color-12"><stop offset="0" stop-color="#ffffff"/><stop offset="1" stop-color="#ffffff" stop-opacity="0"/></linearGradient><linearGradient x1="87.63609" y1="204.18558" x2="87.63609" y2="193.07454" gradientUnits="userSpaceOnUse" id="color-13"><stop offset="0" stop-color="#ffffff"/><stop offset="1" stop-color="#ffffff" stop-opacity="0"/></linearGradient><linearGradient x1="89.72887" y1="203.39094" x2="89.72887" y2="193.37361" gradientUnits="userSpaceOnUse" id="color-14"><stop offset="0" stop-color="#ffffff"/><stop offset="1" stop-color="#ffffff" stop-opacity="0"/></linearGradient><linearGradient x1="93.48955" y1="202.29832" x2="93.48955" y2="195.59354" gradientUnits="userSpaceOnUse" id="color-15"><stop offset="0" stop-color="#ffffff"/><stop offset="1" stop-color="#ffffff" stop-opacity="0"/></linearGradient><linearGradient x1="93.84188" y1="203.04329" x2="93.84188" y2="196.63651" gradientUnits="userSpaceOnUse" id="color-16"><stop offset="0" stop-color="#ffffff"/><stop offset="1" stop-color="#ffffff" stop-opacity="0"/></linearGradient><linearGradient x1="88.18419" y1="202.05167" x2="99.47878" y2="202.05167" gradientUnits="userSpaceOnUse" id="color-17"><stop offset="0" stop-color="#ffffff"/><stop offset="1" stop-color="#ffffff" stop-opacity="0"/></linearGradient><linearGradient x1="88.03548" y1="203.02051" x2="99.20279" y2="203.02051" gradientUnits="userSpaceOnUse" id="color-18"><stop offset="0" stop-color="#ffffff"/><stop offset="1" stop-color="#ffffff" stop-opacity="0"/></linearGradient><linearGradient x1="88.96155" y1="201.57923" x2="97.9322" y2="201.57923" gradientUnits="userSpaceOnUse" id="color-19"><stop offset="0" stop-color="#ffffff"/><stop offset="1" stop-color="#ffffff" stop-opacity="0"/></linearGradient><linearGradient x1="88.42143" y1="203.26406" x2="98.26717" y2="203.26406" gradientUnits="userSpaceOnUse" id="color-20"><stop offset="0" stop-color="#ffffff"/><stop offset="1" stop-color="#ffffff" stop-opacity="0"/></linearGradient><linearGradient x1="89.13767" y1="205.51038" x2="98.82484" y2="205.51038" gradientUnits="userSpaceOnUse" id="color-21"><stop offset="0" stop-color="#ffffff"/><stop offset="1" stop-color="#ffffff" stop-opacity="0"/></linearGradient><linearGradient x1="90.4224" y1="209.80883" x2="98.07878" y2="209.80883" gradientUnits="userSpaceOnUse" id="color-22"><stop offset="0" stop-color="#ffffff"/><stop offset="1" stop-color="#ffffff" stop-opacity="0"/></linearGradient><linearGradient x1="89.76912" y1="210.39945" x2="97.34888" y2="210.39945" gradientUnits="userSpaceOnUse" id="color-23"><stop offset="0" stop-color="#ffffff"/><stop offset="1" stop-color="#ffffff" stop-opacity="0"/></linearGradient><linearGradient x1="88.47139" y1="201.65422" x2="99.34554" y2="201.65422" gradientUnits="userSpaceOnUse" id="color-24"><stop offset="0" stop-color="#ffffff"/><stop offset="1" stop-color="#ffffff" stop-opacity="0"/></linearGradient><linearGradient x1="88.32267" y1="202.69665" x2="99.48998" y2="202.69665" gradientUnits="userSpaceOnUse" id="color-25"><stop offset="0" stop-color="#ffffff"/><stop offset="1" stop-color="#ffffff" stop-opacity="0"/></linearGradient><linearGradient x1="89.24874" y1="201.25537" x2="98.21938" y2="201.25537" gradientUnits="userSpaceOnUse" id="color-26"><stop offset="0" stop-color="#ffffff"/><stop offset="1" stop-color="#ffffff" stop-opacity="0"/></linearGradient><linearGradient x1="88.70861" y1="202.9402" x2="98.55435" y2="202.9402" gradientUnits="userSpaceOnUse" id="color-27"><stop offset="0" stop-color="#ffffff"/><stop offset="1" stop-color="#ffffff" stop-opacity="0"/></linearGradient><linearGradient x1="89.42486" y1="205.18652" x2="99.11202" y2="205.18652" gradientUnits="userSpaceOnUse" id="color-28"><stop offset="0" stop-color="#ffffff"/><stop offset="1" stop-color="#ffffff" stop-opacity="0"/></linearGradient><linearGradient x1="90.70959" y1="209.48498" x2="98.36596" y2="209.48498" gradientUnits="userSpaceOnUse" id="color-29"><stop offset="0" stop-color="#ffffff"/><stop offset="1" stop-color="#ffffff" stop-opacity="0"/></linearGradient><linearGradient x1="90.0563" y1="210.07559" x2="97.63608" y2="210.07559" gradientUnits="userSpaceOnUse" id="color-30"><stop offset="0" stop-color="#ffffff"/><stop offset="1" stop-color="#ffffff" stop-opacity="0"/></linearGradient><linearGradient x1="90.18761" y1="216.42543" x2="90.18761" y2="205.60991" gradientUnits="userSpaceOnUse" id="color-31"><stop offset="0" stop-color="#ffffff" stop-opacity="0"/><stop offset="1" stop-color="#ffffff"/></linearGradient><linearGradient x1="89.96099" y1="216.03428" x2="89.96099" y2="205.44968" gradientUnits="userSpaceOnUse" id="color-32"><stop offset="0" stop-color="#ffffff" stop-opacity="0"/><stop offset="1" stop-color="#ffffff"/></linearGradient><linearGradient x1="91.16077" y1="216.52171" x2="91.16077" y2="206.54587" gradientUnits="userSpaceOnUse" id="color-33"><stop offset="0" stop-color="#ffffff" stop-opacity="0"/><stop offset="1" stop-color="#ffffff"/></linearGradient><linearGradient x1="89.74911" y1="216.46292" x2="89.74911" y2="205.89317" gradientUnits="userSpaceOnUse" id="color-34"><stop offset="0" stop-color="#ffffff" stop-opacity="0"/><stop offset="1" stop-color="#ffffff"/></linearGradient><linearGradient x1="87.80433" y1="216.52655" x2="87.80433" y2="206.7002" gradientUnits="userSpaceOnUse" id="color-35"><stop offset="0" stop-color="#ffffff" stop-opacity="0"/><stop offset="1" stop-color="#ffffff"/></linearGradient><linearGradient x1="84.25408" y1="215.12513" x2="84.25408" y2="207.99501" gradientUnits="userSpaceOnUse" id="color-36"><stop offset="0" stop-color="#ffffff" stop-opacity="0"/><stop offset="1" stop-color="#ffffff"/></linearGradient><linearGradient x1="83.99385" y1="213.92771" x2="83.99385" y2="207.24966" gradientUnits="userSpaceOnUse" id="color-37"><stop offset="0" stop-color="#ffffff" stop-opacity="0"/><stop offset="1" stop-color="#ffffff"/></linearGradient><linearGradient x1="78.70119" y1="206.83728" x2="88.63061" y2="206.83728" gradientUnits="userSpaceOnUse" id="color-38"><stop offset="0" stop-color="#ffffff" stop-opacity="0"/><stop offset="1" stop-color="#ffffff"/></linearGradient><linearGradient x1="78.56715" y1="206.37083" x2="88.77205" y2="206.37083" gradientUnits="userSpaceOnUse" id="color-39"><stop offset="0" stop-color="#ffffff" stop-opacity="0"/><stop offset="1" stop-color="#ffffff"/></linearGradient><linearGradient x1="79.46533" y1="208.31477" x2="87.79645" y2="208.31477" gradientUnits="userSpaceOnUse" id="color-40"><stop offset="0" stop-color="#ffffff" stop-opacity="0"/><stop offset="1" stop-color="#ffffff"/></linearGradient><linearGradient x1="78.92398" y1="206.85312" x2="88.37831" y2="206.85312" gradientUnits="userSpaceOnUse" id="color-41"><stop offset="0" stop-color="#ffffff" stop-opacity="0"/><stop offset="1" stop-color="#ffffff"/></linearGradient><linearGradient x1="78.64588" y1="204.63858" x2="87.66309" y2="204.63858" gradientUnits="userSpaceOnUse" id="color-42"><stop offset="0" stop-color="#ffffff" stop-opacity="0"/><stop offset="1" stop-color="#ffffff"/></linearGradient><linearGradient x1="79.67358" y1="200.28459" x2="86.52737" y2="200.28459" gradientUnits="userSpaceOnUse" id="color-43"><stop offset="0" stop-color="#ffffff" stop-opacity="0"/><stop offset="1" stop-color="#ffffff"/></linearGradient><linearGradient x1="80.5056" y1="199.78648" x2="87.18866" y2="199.78648" gradientUnits="userSpaceOnUse" id="color-44"><stop offset="0" stop-color="#ffffff" stop-opacity="0"/><stop offset="1" stop-color="#ffffff"/></linearGradient><linearGradient x1="89.33663" y1="220.2285" x2="89.33663" y2="190.11717" gradientUnits="userSpaceOnUse" id="color-45"><stop offset="0" stop-color="#ffffff"/><stop offset="1" stop-color="#ffffff" stop-opacity="0"/></linearGradient><linearGradient x1="98.14833" y1="216.43173" x2="89.35018" y2="205.03413" gradientUnits="userSpaceOnUse" id="color-46"><stop offset="0" stop-color="#ffffff"/><stop offset="1" stop-color="#ffffff" stop-opacity="0"/></linearGradient></defs><g transform="translate(-16.17857,-169.27835)"><g data-paper-data="{&quot;isPaintingLayer&quot;:true}" fill-rule="nonzero" stroke-linejoin="miter" stroke-miterlimit="10" stroke-dasharray="" stroke-dashoffset="0" style="mix-blend-mode: normal"><path d="" fill="url(#color-1)" stroke="#009c42" stroke-width="12.5" stroke-linecap="round"/><path d="" fill="url(#color-2)" stroke="#009c42" stroke-width="12.5" stroke-linecap="round"/><path d="M18.08339,223.32538l7.5,-17.73773l432.89171,-2.5l9.5,20.23773z" fill="url(#color-3)" stroke="none" stroke-width="0" stroke-linecap="butt"/><path d="M19.08339,223.17566v-3.93829h449.89171v3.93829z" fill="url(#color-4)" stroke="none" stroke-width="0" stroke-linecap="butt"/><path d="M16.17857,220.90808c0,0 23.00861,-50.22816 25.16634,-50.22816c30.42513,0 404.65332,-1.40157 404.65332,-1.40157l23.82319,50.4503z" fill="#a3a3a3" stroke="none" stroke-width="0" stroke-linecap="butt"/><path d="" fill="url(#color-5)" stroke="#009c42" stroke-width="12.5" stroke-linecap="round"/><path d="" fill="url(#color-6)" stroke="#009c42" stroke-width="12.5" stroke-linecap="round"/><g data-paper-data="{&quot;index&quot;:null}" stroke="none" stroke-linecap="butt"><g><path d="M52.66768,219.26147c-6.20039,-0.10029 -11.1578,-7.5024 -11.07266,-16.53306c0.08514,-9.03066 5.18056,-16.27017 11.38096,-16.16988c6.2004,0.10029 11.1578,7.5024 11.07267,16.53306c-0.08514,9.03066 -5.18056,16.27017 -11.38095,16.16988z" fill="url(#color-7)" stroke-width="0"/><path d="M56.43492,210.94023c0.8028,0.01298 1.44555,0.87597 1.43563,1.92753c-0.00991,1.05156 -0.66874,1.89348 -1.47153,1.8805c-0.8028,-0.01298 -1.44555,-0.87597 -1.43564,-1.92753c0.00991,-1.05156 0.66874,-1.89348 1.47154,-1.8805z" fill="#000000" stroke-width="0.5"/><path d="M55.67393,206.24816c0.00991,-1.05156 0.66874,-1.89349 1.47154,-1.8805c0.8028,0.01298 1.44555,0.87597 1.43563,1.92753c-0.00991,1.05156 -0.66874,1.89348 -1.47154,1.8805c-0.8028,-0.01298 -1.44555,-0.87597 -1.43563,-1.92753z" fill="#000000" stroke-width="0.5"/><path d="M52.00564,207.78894c0.8028,0.01298 1.44555,0.87597 1.43564,1.92753c-0.00991,1.05156 -0.66873,1.89348 -1.47153,1.8805c-0.8028,-0.01298 -1.44555,-0.87596 -1.43563,-1.92752c0.00991,-1.05156 0.66873,-1.89349 1.47153,-1.8805z" fill="#000000" stroke-width="0.5"/></g><path d="M42.79309,209.82272c0,0 -0.51236,-0.93445 -0.79586,-1.42272c-0.41942,-0.72234 -0.72429,-7.14011 -0.0524,-8.94629c1.18152,-3.17616 4.13289,-6.1737 6.89786,-7.34313c2.90456,-1.22848 3.43357,-6.87523 5.8762,-4.9912c0.31983,0.24668 2.06544,0.195 3.04505,1.05678c2.11591,1.86141 4.07793,5.29679 4.46903,6.27299c0.80955,2.02062 1.18284,4.51338 1.42875,5.51095c1.74985,7.0986 -2.05053,16.17186 -7.45255,18.45662c-5.40201,2.28476 -11.66624,-1.49541 -13.41609,-8.59401z" data-paper-data="{&quot;index&quot;:null}" fill="url(#color-8)" stroke-width="0"/></g><g><path d="M89.40524,219.99915c-7.4214,0 -13.43763,-6.70173 -13.43763,-14.96873c0,-8.26701 6.01623,-14.96874 13.43763,-14.96874c7.4214,0 13.43763,6.70173 13.43763,14.96874c0,8.26701 -6.01623,14.96873 -13.43763,14.96873z" data-paper-data="{&quot;index&quot;:null}" fill="url(#color-9)" stroke="none" stroke-width="0" stroke-linecap="butt"/><g data-paper-data="{&quot;index&quot;:null}" fill="none" stroke-width="0.5" stroke-linecap="round"><g><path d="M93.72543,193.20538l-5.87329,11.27819l-5.36507,-11.65839" stroke="url(#color-10)"/><path d="M96.30826,193.9546l-8.54421,10.67797l-7.35506,-10.82697" stroke="url(#color-11)"/><path d="M87.49979,203.49027l-2.55454,-10.88796" stroke="url(#color-12)"/><path d="M87.76404,204.18558l-0.25593,-11.11104" stroke="url(#color-13)"/><path d="M91.56159,193.37361l-3.66541,10.01733l1.97212,-10.00746" stroke="url(#color-14)"/><path d="M97.58549,195.59354l-8.19187,6.70478" stroke="url(#color-15)"/><path d="M89.34957,203.04329l8.98463,-6.40679" stroke="url(#color-16)"/></g><g><path d="M99.47878,208.83562l-11.29458,-3.95439l9.94584,-9.61351" stroke="url(#color-17)"/><path d="M99.20279,211.76605l-11.16732,-6.94757l7.67207,-10.54351" stroke="url(#color-18)"/><path d="M88.96155,204.26797l8.97064,-5.37749" stroke="url(#color-19)"/><path d="M98.26717,201.81151l-9.84574,2.90509" stroke="url(#color-20)"/><path d="M98.82484,206.45902l-9.68718,-1.77846l9.33855,-0.11881" stroke="url(#color-21)"/><path d="M98.07877,213.54199l-7.65637,-7.46632" stroke="url(#color-22)"/><path d="M97.34888,214.60179l-7.57976,-8.40468" stroke="url(#color-23)"/></g><g><path d="M99.34554,208.36456l-10.87415,-3.80719l9.94584,-9.61351" stroke="url(#color-24)"/><path d="M99.48998,211.44219l-11.16732,-6.94758l7.67207,-10.54351" stroke="url(#color-25)"/><path d="M89.24874,203.94412l8.97064,-5.37749" stroke="url(#color-26)"/><path d="M98.55435,201.48765l-9.84574,2.90509" stroke="url(#color-27)"/><path d="M99.11204,206.13516l-9.68718,-1.77846l9.33855,-0.11881" stroke="url(#color-28)"/><path d="M90.7096,205.75181l7.65637,7.46632" stroke="url(#color-29)"/><path d="M97.63606,214.27793l-7.57976,-8.40468" stroke="url(#color-30)"/></g><g><path d="M84.84471,216.2914l4.07052,-10.68149l6.61528,10.81552" stroke="url(#color-31)"/><path d="M82.44011,216.03428l6.54602,-10.58459l8.49573,9.7073" stroke="url(#color-32)"/><path d="M92.94679,216.52171l-3.57207,-9.97584" stroke="url(#color-33)"/><path d="M89.0356,205.89317l1.42702,10.56975" stroke="url(#color-34)"/><path d="M86.61621,216.52656l2.37623,-9.82636l-0.80661,9.69453" stroke="url(#color-35)"/><path d="M87.62763,207.995l-6.74709,7.13013" stroke="url(#color-36)"/><path d="M87.58889,207.24967l-7.19009,6.67804" stroke="url(#color-37)"/></g><g><path d="M78.70118,201.02483l9.92941,4.93331l-8.77368,6.69161" stroke="url(#color-38)"/><path d="M78.56715,197.85691l10.20489,8.18264l-8.09425,8.8452" stroke="url(#color-39)"/><path d="M79.46533,210.1618l8.33112,-3.69407" stroke="url(#color-40)"/><path d="M88.37831,206.09128l-9.45433,1.52371" stroke="url(#color-41)"/><path d="M78.89543,203.24191l8.76766,2.79333l-9.01721,-1.04777" stroke="url(#color-42)"/><path d="M86.52737,204.48442l-6.8538,-8.39968" stroke="url(#color-43)"/><path d="M87.18866,204.44755l-6.68307,-9.32213" stroke="url(#color-44)"/></g></g><path d="M92.50955,214.78856c-3.36886,0 -6.09986,-3.42432 -6.09986,-7.64841c0,-4.2241 2.731,-7.64841 6.09986,-7.64841c3.36886,0 6.09986,3.42432 6.09986,7.64841c0,4.2241 -2.731,7.64841 -6.09986,7.64841z" data-paper-data="{&quot;index&quot;:null}" fill="#c37700" stroke="none" stroke-width="0" stroke-linecap="butt"/><path d="M94.51347,210.86839c0.43618,0 0.78977,0.39874 0.78977,0.8906c0,0.49186 -0.35359,0.8906 -0.78977,0.8906c-0.43618,0 -0.78977,-0.39874 -0.78977,-0.8906c0,-0.49186 0.35359,-0.8906 0.78977,-0.8906z" data-paper-data="{&quot;index&quot;:null}" fill="#000000" stroke="none" stroke-width="0.5" stroke-linecap="butt"/><path d="M94.86581,207.78915c0.43618,0 0.78977,0.39874 0.78977,0.8906c0,0.49186 -0.35359,0.8906 -0.78977,0.8906c-0.43618,0 -0.78977,-0.39874 -0.78977,-0.8906c0,-0.49186 0.35359,-0.8906 0.78977,-0.8906z" data-paper-data="{&quot;index&quot;:null}" fill="#000000" stroke="none" stroke-width="0.5" stroke-linecap="butt"/><path d="M92.09114,209.4281c0.43618,0 0.78977,0.39874 0.78977,0.8906c0,0.49186 -0.35359,0.8906 -0.78977,0.8906c-0.43618,0 -0.78977,-0.39874 -0.78977,-0.8906c0,-0.49186 0.35359,-0.8906 0.78977,-0.8906z" data-paper-data="{&quot;index&quot;:null}" fill="#000000" stroke="none" stroke-width="0.5" stroke-linecap="butt"/><path d="M79.89597,205.1058c-0.05539,-0.03329 -0.09958,-0.0796 -0.13639,-0.13448c-0.16058,-0.16302 -0.26155,-0.39926 -0.26155,-0.6621c0,-0.01927 0.00055,-0.03837 0.00161,-0.05733c-0.04765,-0.26553 0.09798,-0.48886 0.30186,-0.64447c0.07879,-0.06952 0.16958,-0.12254 0.26829,-0.15444c0.13045,-0.05493 0.26199,-0.08451 0.36962,-0.08403c0.6108,0.00275 1.43093,-0.05376 2.06589,0.07626c0.11984,0.02454 0.23434,0.04789 0.34609,0.06964c0.00354,-0.57149 0.0009,-1.14306 -0.00614,-1.71449c-0.00875,-0.70941 -0.39883,-1.95761 0.70169,-1.95761c0.15765,0 0.3197,0.05096 0.45658,0.13916c0.4136,0.26651 0.2921,0.86127 0.36127,1.28683c0.12762,0.78516 0.13633,1.61667 0.10006,2.44725c0.08435,0.00722 0.17556,0.00868 0.28573,-0.00332c0.44698,-0.04871 1.20742,-0.225 1.48867,0.33002c0.34594,0.68269 -0.03776,1.32211 -0.66637,1.40549c-0.39689,0.05265 -0.81458,0.07038 -1.23016,0.06089c-0.00365,0.04684 -0.00726,0.09356 -0.01084,0.14016c-0.0434,0.56605 -0.12526,0.85728 -0.22506,1.48469c-0.05634,0.35416 -0.04012,0.80223 -0.268,1.09238c-0.28547,0.36346 -0.85125,0.43895 -1.1786,0.04639c-0.07871,-0.09439 -0.1238,-0.19391 -0.15308,-0.29948c-0.03758,-0.10379 -0.05828,-0.21736 -0.05828,-0.3364c0,-0.06617 0.0064,-0.13064 0.01854,-0.19269c0.12222,-0.68911 0.2354,-1.39721 0.30568,-2.10686c-0.38597,-0.08085 -0.76864,-0.17445 -1.16913,-0.18707c-0.35167,-0.01107 -0.70381,-0.01327 -1.05543,0c-0.08162,0.03218 -0.16935,0.04966 -0.26071,0.04966c-0.03311,0 -0.06575,-0.0023 -0.09778,-0.00676c-0.08661,0.00203 -0.17637,-0.01656 -0.29404,-0.08727z" data-paper-data="{&quot;index&quot;:null}" fill="#000000" stroke="none" stroke-width="0.5" stroke-linecap="butt"/><path d="M97.75192,193.48037c0.41344,0.46989 1.90203,1.85749 2.96329,3.57789c1.33541,2.16482 2.22874,4.78105 2.09278,5.90803c-0.12188,1.01021 0.46727,4.39951 -0.29939,5.85394c-0.70561,1.33862 -1.33486,3.28585 -2.41245,5.05909c-1.23089,2.02549 -2.95923,3.86344 -4.53662,4.9927c-2.84106,2.03392 -6.15088,1.17748 -8.19716,1.17748c-1.64973,0 -6.27903,-1.95354 -8.60143,-5.51503c-1.17901,-1.80805 -2.01581,-3.95596 -2.40614,-5.61052c-0.20976,-0.88917 -0.12718,-1.54371 -0.26689,-2.13362c-0.85204,-0.68298 0.22745,-5.79273 0.34339,-6.64223c0.03347,-0.24523 0.23501,-0.52845 0.35112,-0.73026c0.29788,-0.51773 0.55977,-1.24976 0.84405,-1.71965c0.45008,-0.74393 0.63209,-1.19607 1.00205,-1.85016c0.21826,-0.38586 4.25753,-4.54317 7.51414,-5.46755c0.41273,-0.11716 0.81287,-0.24611 1.19109,-0.24281c1.27423,0.01112 3.2848,-0.14938 5.1176,0.27867c2.12939,0.49731 4.07908,1.67577 5.30056,3.06404z" data-paper-data="{&quot;index&quot;:null}" fill="url(#color-45)" stroke="none" stroke-width="0" stroke-linecap="butt"/><path d="M84.99269,218.51383c-0.32034,-0.41498 -0.67172,-2.08505 -0.64916,-2.55715c0.04141,-0.86658 0.10336,-1.81127 0.91173,-3.4085c0.97867,-1.93373 3.0498,-3.47853 4.9684,-5.17727c2.17901,-1.92932 2.85551,-2.62899 4.39432,-3.59249c0.57753,-0.36161 2.03358,-1.44919 2.78096,-1.46875c1.85796,-0.04862 2.63177,0.69391 3.61377,1.96605c1.52948,1.98138 1.80987,4.26471 0.68732,6.98535c-0.66059,1.60102 -1.6883,3.5208 -3.55168,5.17065c-3.73961,3.31109 -8.27826,4.22744 -11.14954,3.44884c-0.99065,-0.26864 -1.42288,-0.28804 -2.0461,-1.09539z" data-paper-data="{&quot;index&quot;:null}" fill="url(#color-46)" stroke="none" stroke-width="0" stroke-linecap="butt"/></g></g></g></svg>