<svg xmlns="http://www.w3.org/2000/svg" xmlns:xlink="http://www.w3.org/1999/xlink" version="1.1" width="185.36724853515625" height="194.54798889160156" viewBox="-7.000246047973633 -6.343999981880188 185.36724853515625 194.54798889160156">
  <!-- Exported by Scratch - http://scratch.mit.edu/ -->
  <g id="ID0.3962286729365587">
    <path id="ID0.7510613328777254" fill="#FAA51D" stroke="#000000" stroke-width="1.2" d="M 99.107 138.314 C 98.697 138.314 98.281 138.275 97.863 138.194 L 79.052 134.547 C 76.983 134.146 75.237 132.767 74.367 130.847 C 73.498 128.926 73.614 126.704 74.678 124.885 L 83.529 109.750 C 85.342 106.651 89.323 105.609 92.421 107.420 C 95.521 109.233 96.564 113.214 94.751 116.313 L 90.530 123.531 L 100.337 125.433 C 103.860 126.116 106.163 129.527 105.481 133.051 C 104.878 136.157 102.157 138.314 99.107 138.314 L 99.107 138.314 Z "/>
    <g id="ID0.6258926251903176">
      <path id="ID0.08962639467790723" fill="none" stroke="#000000" stroke-width="15" stroke-linecap="round" stroke-linejoin="round" d="M 70.654 113.214 L 65.311 128.893 L 68.271 145.143 "/>
      <path id="ID0.9476802772842348" fill="none" stroke="#FAA51D" stroke-width="13" stroke-linecap="round" stroke-linejoin="round" d="M 70.654 113.214 L 65.311 128.893 L 68.271 145.143 "/>
    </g>
    <path id="ID0.4675603983923793_1_" fill="#FAA51D" stroke="#231F20" stroke-width="1.2" d="M 96.667 16.803 C 93.835 16.540 87.933 16.222 84.681 16.378 C 75.987 16.792 67.720 19.923 67.720 19.923 L 43.780 4.300 L 47.889 39.068 C 49.077 37.629 28.479 62.613 41.492 83.614 C 54.513 104.626 82.378 113.989 116.867 107.137 C 151.357 100.280 159.584 80.415 157.299 69.907 C 155.014 59.399 141.994 55.520 141.994 55.520 C 141.994 55.520 141.830 47.282 135.875 37.186 C 132.332 31.176 120.523 22.399 120.523 22.399 L 115.265 1.156 L 101.562 14.404 L 96.667 16.803 L 96.667 16.803 Z "/>
    <path id="ID0.876089540310204_1_" fill="#FFFFFF" d="M 140.271 55.255 L 135.707 51.460 L 118.945 56.353 C 118.945 56.353 118.945 62.641 110.914 64.383 C 102.879 66.133 90.299 60.196 90.299 60.196 L 75.982 66.480 C 75.982 66.480 60.466 68.185 59.912 77.662 C 58.674 98.724 84.516 107.504 94.307 108.063 C 99.651 108.371 109.452 107.441 116.885 105.964 C 149.530 100.017 158.354 80.368 156.073 69.857 C 153.787 59.350 141.400 56.625 141.400 56.625 L 140.271 55.255 L 140.271 55.255 Z " stroke-width="1"/>
    <path id="ID0.44282719027251005_1_" fill="none" stroke="#231F20" stroke-width="1.2" d="M 19.366 75.647 C 19.366 75.647 26.919 76.335 30.352 76.140 C 33.782 75.944 40.452 75.061 40.452 75.061 "/>
    <path id="ID0.893105489667505_1_" fill="none" stroke="#231F20" stroke-width="1.2" d="M 149.900 65.563 C 149.900 65.563 158.265 64.196 162.513 62.713 C 167.505 60.982 170.867 58.033 170.867 58.033 "/>
    <path id="ID0.03574043000116944_1_" fill="none" stroke="#231F20" stroke-width="1.2" d="M 40.815 67.839 C 40.815 67.839 36.431 64.570 29.567 61.531 C 21.964 58.164 17.789 57.296 17.789 57.296 "/>
    <path id="ID0.6674723788164556_1_" fill="none" stroke="#231F20" stroke-width="1.2" d="M 150.748 76.506 C 150.748 76.506 155.762 78.535 160.922 79.053 C 166.018 79.561 169.467 79.255 169.467 79.255 "/>
    <path id="ID0.12165586883202195_1_" fill="none" stroke="#000000" stroke-linecap="round" d="M 96.007 16.906 C 101.230 18.193 103.155 19.607 103.155 19.607 " stroke-width="1"/>
    <path id="ID0.178104005753994_1_" fill="none" stroke="#000000" d="M 62.075 15.935 L 73.216 23.949 " stroke-width="1"/>
    <path id="ID0.7735752793960273_1_" fill="#FFFFFF" stroke="#231F20" d="M 131.849 37.417 C 137.226 45.653 137.425 55.055 132.294 58.408 C 127.157 61.764 118.638 57.799 113.253 49.557 C 107.858 41.319 107.669 31.924 112.804 28.566 C 117.937 25.214 126.466 29.175 131.849 37.417 L 131.849 37.417 Z " stroke-width="1"/>
    <path id="ID0.19106501014903188_1_" fill="#231F20" d="M 130.468 50.578 C 130.468 52.563 128.993 54.175 127.157 54.175 C 125.331 54.175 123.841 52.563 123.841 50.578 C 123.841 48.592 125.331 46.976 127.157 46.976 C 128.994 46.976 130.468 48.591 130.468 50.578 " stroke-width="1"/>
    <path id="ID0.06283409334719181_1_" fill="#FFFFFF" stroke="#231F20" d="M 87.763 43.400 C 93.144 51.638 92.579 61.536 86.511 65.495 C 80.438 69.466 71.154 65.995 65.775 57.757 C 60.391 49.519 60.950 39.625 67.022 35.658 C 73.097 31.693 82.378 35.158 87.763 43.400 L 87.763 43.400 Z " stroke-width="1"/>
    <path id="ID0.716460831463337_1_" fill="#231F20" d="M 84.476 54.227 C 84.476 56.215 82.999 57.827 81.163 57.827 C 79.339 57.827 77.849 56.212 77.849 54.227 C 77.849 52.242 79.339 50.628 81.163 50.628 C 82.995 50.628 84.476 52.242 84.476 54.227 " stroke-width="1"/>
    <path id="ID0.5430324394255877_1_" fill="#5E4A42" stroke="#000000" d="M 109.646 60.514 C 113.054 60.514 118.021 59.993 118.283 61.561 C 118.547 63.133 115.140 69.290 112.789 69.551 C 110.430 69.813 101.525 65.224 101.396 62.344 C 101.259 59.465 106.500 60.514 109.646 60.514 L 109.646 60.514 Z " stroke-width="1"/>
    <path id="ID0.5547774969600141_1_" fill="none" stroke="#231F20" stroke-width="1.2" d="M 85.753 73.956 C 85.753 73.956 104.780 79.572 111.898 81.122 C 119.011 82.671 131.853 84.220 131.853 84.220 C 131.853 84.220 117.160 103.060 99.988 98.277 C 82.815 93.500 83.126 82.672 85.753 73.956 L 85.753 73.956 Z "/>
    <path id="ID0.88177111139521" fill="#FAA51D" stroke="#000000" stroke-width="1.2" d="M 56.345 180.704 C 56.335 180.704 56.325 180.704 56.315 180.704 L 34.309 180.617 C 31.093 180.604 28.244 178.543 27.225 175.492 C 26.206 172.442 27.246 169.082 29.809 167.139 L 50.816 151.219 L 54.708 130.742 C 55.482 126.673 59.408 124.004 63.477 124.774 C 67.546 125.547 70.218 129.473 69.445 133.543 L 65.014 156.854 C 64.667 158.678 63.656 160.309 62.176 161.431 L 56.535 165.705 C 60.602 165.807 63.861 169.144 63.845 173.232 C 63.828 177.365 60.474 180.704 56.345 180.704 L 56.345 180.704 Z "/>
    <path id="ID0.7152078151702881_1_" fill="#FAA51D" stroke="#000000" d="M 41.457 140.770 C 36.941 140.619 31.452 139.858 26.412 136.545 C 15.141 129.134 9.732 114.902 3.304 119.764 C -3.129 124.628 0.629 148.381 23.805 152.344 C 31.793 153.715 38.731 152.667 44.332 151.657 C 45.799 151.386 58.179 148.331 61.526 141.459 C 64.871 134.588 61.650 133.493 60.048 132.858 C 58.446 132.226 47.843 140.982 41.457 140.770 L 41.457 140.770 Z " stroke-width="1"/>
    <path id="ID0.4691764716990292_1_" fill="#FFFFFF" d="M 4.400 120.072 C 0.953 121.738 0.194 130.010 2.975 136.071 C 5.757 142.138 9.155 144.471 11.770 146.632 C 14.836 148.097 9.796 142.465 13.096 138.710 C 16.385 134.965 23.264 135.461 23.264 135.461 C 23.264 135.461 16.872 129.020 13.185 125.100 C 9.688 121.333 8.121 118.572 4.400 120.072 L 4.400 120.072 Z " stroke-width="1"/>
    <path id="ID0.26425604708492756_1_" fill="#FAA51D" stroke="#231F20" stroke-width="1.2" d="M 85.025 141.586 C 87.211 139.908 89.433 137.168 92.293 132.918 C 94.676 129.375 97.258 122.661 97.258 122.661 C 98.865 118.025 100.815 110.568 93.760 109.244 C 90.905 108.709 86.258 109.064 79.655 107.817 C 73.048 106.564 67.154 103.179 62.154 111.923 C 57.156 120.671 44.518 127.132 60.212 142.381 L 85.025 141.586 Z "/>
    <path id="ID0.3996659410186112" fill="#FAA51D" stroke="#000000" stroke-width="1.2" d="M 82.209 167.705 C 80.821 167.705 79.417 167.320 78.162 166.515 L 69.600 161.015 C 69.568 160.994 69.536 160.973 69.504 160.952 L 62.718 156.444 C 60.147 154.736 58.885 151.628 59.538 148.610 C 60.191 145.593 62.626 143.285 65.673 142.793 L 69.373 142.196 L 67.853 141.495 C 64.092 139.761 62.449 135.305 64.184 131.544 C 65.919 127.782 70.372 126.139 74.136 127.874 L 97.986 138.873 C 100.982 140.255 102.723 143.432 102.275 146.701 C 101.828 149.970 99.296 152.562 96.040 153.088 L 87.118 154.527 C 89.905 156.927 90.572 161.075 88.526 164.258 C 87.093 166.488 84.676 167.705 82.209 167.705 L 82.209 167.705 Z "/>
    <path id="ID0.203311821911484_1_" fill="#FFFFFF" d="M 93.300 129.490 C 93.300 129.490 97.843 124.598 88.761 119.712 C 79.678 114.826 75.496 119.681 72.690 122.509 C 67.828 127.392 79.021 134.667 79.021 134.667 L 84.862 140.559 C 84.862 140.559 88.057 137.531 89.458 135.081 C 91.064 132.848 93.300 129.490 93.300 129.490 " stroke-width="1"/>
    <path id="ID0.6916942936368287" fill="#FAA51D" d="M 68.5448 128.4293 C 70.4741 130.3283 71.5517 132.7304 71.7337 135.0774 C 71.9149 137.4251 71.2019 139.7162 69.5498 141.3946 C 67.8978 143.073 65.6182 143.8223 63.268 143.6782 C 60.9184 143.5335 58.4995 142.4941 56.5702 140.5951 C 54.641 138.6961 53.5633 136.294 53.3814 133.947 C 53.2002 131.5993 53.9132 129.3082 55.5652 127.6298 C 57.2173 125.9514 59.4968 125.2021 61.8471 125.3462 C 64.1967 125.4909 66.6156 126.5303 68.5448 128.4293 Z " stroke-width="1.0000217754203118"/>
    <path id="ID0.49980930611491203" fill="#FAA51D" stroke="#000000" stroke-width="1.2" d="M 73.427 145.743 C 71.689 145.743 69.956 145.051 68.677 143.681 L 54.542 128.555 C 53.289 127.214 52.661 125.407 52.813 123.577 C 52.965 121.749 53.883 120.070 55.340 118.955 L 69.262 108.299 C 72.113 106.116 76.192 106.658 78.374 109.509 C 80.556 112.361 80.014 116.440 77.163 118.621 L 68.936 124.919 L 78.174 134.804 C 80.625 137.427 80.486 141.540 77.863 143.992 C 76.610 145.163 75.017 145.743 73.427 145.743 L 73.427 145.743 Z "/>
  </g>
</svg>