<svg xmlns="http://www.w3.org/2000/svg" xmlns:xlink="http://www.w3.org/1999/xlink" version="1.1" width="135.17176598114156" height="106.26035088104389" viewBox="0.08337363698888733 0.18337360122610047 135.17176598114156 106.26035088104389">
  <!-- Exported by Scratch - http://scratch.mit.edu/ -->
  <path id="ID0.35917190834879875" fill="#42210B" stroke="#000000" d="M 29.2444 58.0196 C 29.2444 71.1141 44.4467 81.7288 63.2006 81.7288 C 81.9545 81.7288 96.8852 70.185 92.0415 58.0196 C 87.4587 46.5095 81.9545 34.3105 63.2006 34.3105 C 44.4467 34.3105 29.2444 44.9258 29.2444 58.0196 Z " stroke-width="0.5902649164199829"/>
  <g id="ID0.893189774826169">
    <path id="ID0.6546092904172838" fill="#C69C6D" stroke="#000000" d="M 35.7691 81.6716 C 35.7691 77.2038 40.457 73.5814 46.2404 73.5814 C 52.0238 73.5814 56.7117 77.2038 56.7117 81.6716 C 56.7117 84.1424 35.7691 84.1424 35.7691 81.6716 Z " stroke-width="0.5902649164199829"/>
    <path id="ID0.9999977913685143" fill="#A67C52" stroke="#000000" d="M 54.8612 82.7795 C 54.7437 79.3825 52.973 77.7374 52.973 77.7374 " stroke-width="0.5902649164199829"/>
    <path id="ID0.8689246741123497" fill="#A67C52" stroke="#000000" d="M 52.4848 83.1921 C 52.4807 79.9704 51.3987 78.5532 51.3987 78.5532 " stroke-width="0.5902649164199829"/>
  </g>
  <path id="ID0.009229061659425497" fill="#754C24" stroke="#000000" d="M 27.8673 58.4196 C 27.8673 62.7008 29.3548 66.7341 31.9797 70.2686 C 37.916 78.2608 61.5643 79.7188 70.6952 69.7333 C 87.428 51.435 103.665 57.3377 94.6204 46.8422 C 88.069 39.2402 76.8841 33.1368 63.2006 33.1368 C 43.6864 33.1368 27.8673 44.4563 27.8673 58.4196 Z " stroke-width="0.5902649164199829"/>
  <path id="ID0.5557723217643797" fill="#42210B" stroke="#000000" d="M 60.0007 39.6964 L 65.1431 39.6964 L 62.5719 21.8409 L 60.0007 39.6964 " stroke-width="0.5902649164199829"/>
  <path id="ID0.3557110703550279" fill="#42210B" stroke="#000000" d="M 69.687 35.6407 L 74.7603 36.4854 L 75.1558 18.4493 L 69.687 35.6407 " stroke-width="0.5902649164199829"/>
  <path id="ID0.9858297486789525" fill="#42210B" stroke="#000000" d="M 78.7458 41.2465 L 83.2129 43.7958 L 89.8304 27.0128 L 78.7458 41.2465 " stroke-width="0.5902649164199829"/>
  <path id="ID0.7554545314051211" fill="#42210B" stroke="#000000" d="M 88.7838 42.927 L 92.7563 46.1935 L 102.112 30.7687 L 88.7838 42.927 " stroke-width="0.5902649164199829"/>
  <path id="ID0.12854639953002334" fill="#42210B" stroke="#000000" d="M 80.4145 50.9056 L 84.4896 54.0434 L 88.1646 45.0572 L 80.4145 50.9056 " stroke-width="0.5902649164199829"/>
  <path id="ID0.0611889879219234" fill="#42210B" stroke="#000000" d="M 67.4859 46.5146 L 72.5309 47.5115 L 71.8237 37.8288 L 67.4859 46.5146 " stroke-width="0.5902649164199829"/>
  <path id="ID0.2531722658313811" fill="#42210B" stroke="#000000" d="M 53.4529 46.0554 L 58.5109 45.1245 L 54.2882 36.3827 L 53.4529 46.0554 " stroke-width="0.5902649164199829"/>
  <path id="ID0.7779754302464426" fill="#42210B" stroke="#000000" d="M 43.8818 54.1272 L 47.5414 50.5136 L 39.1343 45.6587 L 43.8818 54.1272 " stroke-width="0.5902649164199829"/>
  <path id="ID0.20593265164643526" fill="#42210B" stroke="#000000" d="M 39.2565 63.4947 L 39.5799 58.3618 L 30.0755 60.3398 L 39.2565 63.4947 " stroke-width="0.5902649164199829"/>
  <path id="ID0.8070150394923985" fill="#42210B" stroke="#000000" d="M 50.0312 36.2658 L 55.0809 35.2925 L 49.1765 18.2468 L 50.0312 36.2658 " stroke-width="0.5902649164199829"/>
  <path id="ID0.729429510422051" fill="#42210B" stroke="#000000" d="M 42.8895 44.0626 L 47.5698 41.9324 L 37.8339 26.746 L 42.8895 44.0626 " stroke-width="0.5902649164199829"/>
  <path id="ID0.06967791076749563" fill="#42210B" stroke="#000000" d="M 33.6672 46.416 L 37.4715 42.9565 L 23.5572 31.4752 L 33.6672 46.416 " stroke-width="0.5902649164199829"/>
  <path id="ID0.07578826742246747" fill="#42210B" stroke="#000000" d="M 34.784 55.6118 L 36.631 50.8129 L 19.044 46.7967 L 34.784 55.6118 " stroke-width="0.5902649164199829"/>
  <g id="ID0.7288383892737329">
    <path id="ID0.44699910236522555" fill="#C69C6D" stroke="#000000" d="M 57.631 81.9732 C 57.631 78.2321 62.3189 75.1987 68.1023 75.1987 C 73.8857 75.1987 78.5736 78.2321 78.5736 81.9732 C 78.5736 84.0415 57.631 84.0415 57.631 81.9732 Z " stroke-width="0.5902649164199829"/>
    <path id="ID0.4673094302415848" fill="#A67C52" stroke="#000000" d="M 76.7231 82.9005 C 76.6057 80.0566 74.8349 78.6789 74.8349 78.6789 " stroke-width="0.5902649164199829"/>
    <path id="ID0.029157384298741817" fill="#A67C52" stroke="#000000" d="M 74.3467 83.2458 C 74.3426 80.5483 73.2606 79.3613 73.2606 79.3613 " stroke-width="0.5902649164199829"/>
  </g>
  <g id="ID0.23571901209652424">
    <path id="ID0.8130080956034362" fill="#C69C6D" stroke="#000000" d="M 74.9492 69.7405 C 76.3942 69.2902 77.675 68.2436 78.9111 66.9285 C 77.7217 67.0808 76.4219 66.8589 75.2201 66.2155 C 72.466 64.741 71.2677 61.6138 72.5439 59.2291 C 73.82 56.845 77.0871 56.1072 79.8413 57.5811 C 81.6747 58.5627 82.8127 60.2762 82.9969 62.0157 C 85.9045 58.5479 89.2454 55.5039 94.4026 56.662 C 99.2232 57.744 98.7806 63.2541 102.076 64.2369 C 106.4623 65.5449 111.7929 64.9257 111.7929 69.7405 C 111.7929 73.6534 108.916 77.1283 104.4648 79.3182 C 101.3789 80.8363 97.5363 80.6663 93.3708 80.6663 C 88.7053 80.6663 81.5643 78.1719 77.8751 77.5468 C 73.6453 76.8296 71.7759 70.7304 74.9492 69.7405 Z " stroke-width="0.5902649164199829"/>
    <path id="ID0.5114893540740013" d="M 104.7003 74.4013 C 105.7114 75.3522 108.8688 74.5317 111.9393 71.7923 C 114.615 69.4047 114.4491 65.5254 112.6459 64.1301 C 110.8426 62.7347 106.915 63.7399 105.5491 67.0554 C 103.5759 71.8472 103.6308 73.3949 104.7003 74.4013 Z " stroke-width="0.5902649164199829" />
    <path id="ID0.6965664783492684" fill="#FFFFFF" stroke="#000000" d="M 84.4666 65.9097 C 86.2091 71.2404 94.7012 73.6817 94.7012 65.987 C 89.4839 66.1063 88.6368 62.6632 86.5255 62.4974 C 84.4489 62.3345 83.9743 64.4045 84.4666 65.9097 Z " stroke-width="0.5902649164199829"/>
    <path id="ID0.6119098500348628" d="M 92.2747 66.7951 C 92.6276 66.7951 92.9476 66.9385 93.1789 67.1699 C 93.4103 67.4013 93.5538 67.7212 93.5538 68.0742 C 93.5538 68.4272 93.4103 68.7471 93.1789 68.9785 C 92.9476 69.2099 92.6276 69.3533 92.2747 69.3533 C 91.9217 69.3533 91.6017 69.2099 91.3704 68.9785 C 91.139 68.7471 90.9955 68.4272 90.9955 68.0742 C 90.9955 67.7212 91.139 67.4013 91.3704 67.1699 C 91.6017 66.9385 91.9217 66.7951 92.2747 66.7951 Z " stroke-width="0.5902649164199829" />
    <path id="ID0.22970852302387357" fill="none" stroke="#000000" d="M 76.61 65.1629 C 75.7742 64.7156 75.1818 64.0022 74.8998 63.2119 C 74.6176 62.4208 74.6459 61.5522 75.0518 60.7939 C 75.4576 60.0356 76.1646 59.5303 76.9794 59.3263 C 77.7935 59.1226 78.7156 59.2198 79.5514 59.6671 C 80.3873 60.1145 80.9796 60.8279 81.2616 61.6182 C 81.5438 62.4093 81.5155 63.2779 81.1096 64.0362 C 80.7038 64.7944 79.9968 65.2998 79.182 65.5038 C 78.3679 65.7075 77.4458 65.6103 76.61 65.1629 Z " stroke-width="0.5902898577198336"/>
    <path id="ID0.916386145632714" fill="none" stroke="#000000" d="M 109.4543 75.2554 C 109.4543 75.2554 107.6835 76.2966 105.1259 76.3662 C 102.5683 76.4359 101.3441 75.1745 99.2232 74.7814 C 96.6385 75.0618 96.694 78.5018 96.694 78.5018 " stroke-width="0.5902649164199829"/>
    <path id="ID0.46020253375172615" fill="none" stroke="#000000" d="M 95.8782 65.3495 C 93.7137 65.5461 93.8489 65.5154 91.9134 65.1223 C 89.9779 64.7292 88.2048 61.9744 85.5486 61.6297 " stroke-width="0.5902649164199829"/>
  </g>
  <path id="ID0.033297700341790915_9_" fill="none" d="M 0.65 0.75 L 134.6885 0.75 L 134.6885 105.8771 L 0.65 105.8771 L 0.65 0.75 Z " stroke-width="1.133252797547799"/>
</svg>