<svg xmlns="http://www.w3.org/2000/svg" xmlns:xlink="http://www.w3.org/1999/xlink" version="1.1" width="487" height="365" viewBox="-0.5 -0.5 487 365">
  <!-- Exported by Scratch - http://scratch.mit.edu/ -->
  <path id="ID0.8802549191750586" d="M 260.907 187.77 C 260.391 187.889 259.671 187.97 259.022 188.024 C 259.168 188.374 259.275 188.749 259.313 189.155 C 259.364 189.718 259.292 190.366 259.072 191.05 C 259.372 191.152 259.696 191.245 260.03 191.311 C 261.305 191.613 262.184 191.628 262.193 191.628 C 262.386 191.631 262.541 191.79 262.538 191.982 C 262.536 192.174 262.38 192.328 262.188 192.328 C 262.187 192.328 262.186 192.328 262.184 192.328 C 262.146 192.327 261.225 192.313 259.881 191.994 C 259.508 191.921 259.149 191.817 258.818 191.704 C 257.654 194.27 254.356 197.084 247.544 197.581 C 238.294 198.255 231.347 194.931 228.603 189.001 C 228.308 188.361 228.124 187.722 228.02 187.089 C 227.86 187.091 227.677 187.092 227.482 187.092 C 226.945 187.092 226.323 187.084 225.888 187.055 C 224.972 186.994 223.056 186.563 222.976 186.544 C 222.787 186.501 222.669 186.314 222.711 186.126 C 222.753 185.937 222.942 185.819 223.13 185.861 C 223.15 185.866 225.073 186.299 225.935 186.356 C 226.475 186.393 227.345 186.393 227.937 186.389 C 227.894 185.766 227.927 185.155 228.019 184.561 C 227.557 184.19 226.87 183.68 226.003 183.159 C 224.196 182.063 223.148 181.726 223.138 181.723 C 222.952 181.664 222.851 181.468 222.909 181.284 C 222.967 181.1 223.163 180.997 223.347 181.055 C 223.393 181.069 224.477 181.413 226.366 182.56 C 227.106 183.004 227.712 183.436 228.174 183.791 C 228.997 180.383 231.538 177.764 231.72 177.594 L 231.747 168.381 L 237.499 173.219 C 237.499 173.219 239.735 172.639 242.03 172.821 C 242.88 172.874 244.407 173.163 245.145 173.305 L 246.508 172.867 L 250.508 169.834 L 251.213 175.563 C 251.213 175.563 254.01 178.225 254.756 179.928 C 255.971 182.748 255.758 184.887 255.758 184.887 C 255.758 184.887 257.643 185.727 258.674 187.349 C 259.365 187.297 260.201 187.214 260.757 187.086 C 262.026 186.815 262.965 186.174 262.975 186.168 C 263.135 186.058 263.352 186.098 263.461 186.257 C 263.571 186.416 263.531 186.634 263.372 186.744 C 263.328 186.773 262.306 187.471 260.907 187.77 Z M 486 2 L 0 0 L 2 363 L 482 364 L 486 2 Z " stroke-width="1" />
</svg>