<svg xmlns="http://www.w3.org/2000/svg" xmlns:xlink="http://www.w3.org/1999/xlink" version="1.1" width="133.53779595670883" height="105.16569512663071" viewBox="-0.9999999681005137 -0.09999993233772686 133.53779595670883 105.16569512663071">
  <!-- Exported by Scratch - http://scratch.mit.edu/ -->
  <path id="ID0.5443468582816422" fill="#000000" stroke="#000000" stroke-width="1.2374464515622894" d="M 65.8632 36.791 C 71.1189 36.6809 77.2039 37.2667 81.0558 40.3486 C 84.5594 43.1533 85.6832 47.9858 85.6003 52.1114 C 85.5087 56.6357 83.9371 61.6949 80.2928 64.9931 C 76.8509 68.1518 71.3418 69.8233 66.2944 69.899 C 61.1866 69.9042 55.4864 68.3113 51.8648 65.2226 C 47.9233 61.9049 45.2656 56.789 45.4295 52.1114 C 45.5854 47.727 48.4945 43.2537 52.296 40.3486 C 55.8964 37.5967 61.1316 36.6809 65.8632 36.791 Z "/>
  <path id="ID0.4069141363725066" fill="none" stroke="#000000" stroke-width="1.9999999362010275" stroke-linecap="round" d="M 73.9212 37.847 C 73.9212 37.847 76.9826 29.8762 78.5952 25.9298 C 79.3445 24.0952 79.1936 20.9474 81.0121 20.4907 C 82.883 20.0204 84.3072 22.9018 85.9739 24.0758 C 91.4428 27.9275 96.957 31.7505 102.4401 35.5819 "/>
  <path id="ID0.8678468321450055" fill="none" stroke="#000000" stroke-width="1.9999999326450675" stroke-linecap="round" d="M 79.1692 38.5724 C 79.1692 38.5724 83.9359 34.382 86.5018 32.5329 C 87.3863 31.8951 88.6173 30.4677 89.4681 31.1496 C 91.6542 32.9017 92.2247 36.0431 93.785 38.3702 C 99.1833 46.4203 104.8377 54.3306 110.3558 62.2991 "/>
  <path id="ID0.8587070810608566" fill="none" stroke="#000000" stroke-width="1.9999998432100903" stroke-linecap="round" d="M 84.859 46.1112 C 84.859 46.1112 89.6031 42.9584 90.9067 44.5765 C 95.4222 50.1837 97.0836 57.6281 99.5741 64.3837 C 100.8123 67.7428 101.236 71.3597 102.0661 74.8423 "/>
  <path id="ID0.07539850194007158" fill="none" stroke="#000000" stroke-width="1.9999999022308537" stroke-linecap="round" d="M 85.9359 53.1187 C 85.9359 53.1187 89.7457 50.7827 90.0861 53.4666 C 91.4476 64.2029 90.1026 85.9666 90.1026 85.9666 "/>
  <path id="ID0.4069141363725066" fill="none" stroke="#000000" stroke-width="1.9723797513210413" stroke-linecap="round" d="M 56.9177 36.8779 C 56.9177 36.8779 53.2046 29.2644 51.2725 25.5048 C 50.3747 23.757 50.2245 20.6112 48.4214 20.3431 C 46.5664 20.0668 45.4589 23.0779 43.9561 24.4161 C 39.0251 28.8059 34.0476 33.1721 29.1009 37.5433 "/>
  <path id="ID0.8678468321450055" fill="none" stroke="#000000" stroke-width="1.9723798532897958" stroke-linecap="round" d="M 51.7545 39.5456 C 51.7545 39.5456 46.9333 35.6017 44.3567 33.8846 C 43.4685 33.2924 42.2076 31.9291 41.4125 32.653 C 39.3695 34.513 38.9592 37.6789 37.5503 40.0816 C 32.6758 48.3932 27.5461 56.578 22.5516 64.8141 "/>
  <path id="ID0.8587070810608566" fill="none" stroke="#000000" stroke-width="1.972379724263427" stroke-linecap="round" d="M 46.5567 47.0294 C 46.5567 47.0294 41.9272 43.9355 40.6671 45.5685 C 36.3022 51.2272 34.7221 58.6879 32.3322 65.47 C 31.1441 68.8422 30.7494 72.4624 29.9588 75.9532 "/>
  <path id="ID0.07539850194007158" fill="none" stroke="#000000" stroke-width="1.972379859711352" stroke-linecap="round" d="M 45.556 54.0231 C 45.556 54.0231 41.8415 51.7043 41.5229 54.3896 C 40.2486 65.1319 41.6559 86.8893 41.6559 86.8893 "/>
  <g id="ID0.9577445294708014">
    <path id="ID0.37750169076025486" fill="#FFFFFF" stroke="#000000" stroke-width="1.3443691729901157" d="M 73.7237 45.0185 C 75.8807 45.0161 77.8356 45.8638 79.2519 47.2363 C 80.6682 48.6079 81.5459 50.5042 81.5477 52.5972 C 81.5494 54.6902 80.6749 56.5884 79.2609 57.9633 C 77.8468 59.3389 75.8934 60.1911 73.7364 60.1935 C 71.5794 60.1959 69.6245 59.3482 68.2082 57.9757 C 66.7919 56.6041 65.9142 54.7078 65.9124 52.6148 C 65.9107 50.5218 66.7852 48.6235 68.1992 47.2487 C 69.6132 45.8731 71.5667 45.0209 73.7237 45.0185 Z "/>
    <path id="ID0.234124637208879" fill="#000000" stroke="black" stroke-width="1.5444463961489148" stroke-linecap="round" d="M 73.595 51.9038 C 74.4114 51.9029 75.1506 52.2739 75.686 52.8744 C 76.2222 53.475 76.5538 54.3045 76.5541 55.2201 C 76.5544 56.1358 76.2234 56.966 75.6876 57.5678 C 75.1526 58.1696 74.4137 58.5422 73.5973 58.5431 C 72.7809 58.544 72.0418 58.1731 71.5064 57.5725 C 70.9701 56.972 70.6385 56.1424 70.6382 55.2268 C 70.6379 54.3112 70.9689 53.4809 71.5048 52.8792 C 72.0397 52.2774 72.7786 51.9048 73.595 51.9038 Z "/>
  </g>
  <g id="ID0.9577445294708014">
    <path id="ID0.37750169076025486" fill="#FFFFFF" stroke="#000000" stroke-width="1.3443691729901157" d="M 58.3237 45.0685 C 60.4807 45.0661 62.4356 45.9138 63.8519 47.2863 C 65.2682 48.6579 66.1459 50.5542 66.1477 52.6472 C 66.1494 54.7402 65.2749 56.6384 63.8609 58.0133 C 62.4468 59.3889 60.4934 60.2411 58.3364 60.2435 C 56.1794 60.2459 54.2245 59.3982 52.8082 58.0257 C 51.3919 56.6541 50.5142 54.7578 50.5124 52.6648 C 50.5107 50.5718 51.3852 48.6735 52.7992 47.2987 C 54.2132 45.9231 56.1667 45.0709 58.3237 45.0685 Z "/>
    <path id="ID0.234124637208879" fill="#000000" stroke="black" stroke-width="1.5444463961489148" stroke-linecap="round" d="M 58.195 52.0038 C 59.0114 52.0029 59.7506 52.3739 60.286 52.9744 C 60.8222 53.575 61.1538 54.4045 61.1541 55.3201 C 61.1544 56.2358 60.8234 57.066 60.2876 57.6678 C 59.7526 58.2696 59.0137 58.6422 58.1973 58.6431 C 57.3809 58.644 56.6418 58.2731 56.1064 57.6725 C 55.5701 57.072 55.2385 56.2424 55.2382 55.3268 C 55.2379 54.4112 55.5689 53.5809 56.1048 52.9792 C 56.6397 52.3774 57.3786 52.0048 58.195 52.0038 Z "/>
  </g>
  <path id="ID0.033297700341790915_9_" fill="none" d="M 0 0.9 L 131.5378 0.9 L 131.5378 104.0657 L 0 104.0657 L 0 0.9 Z " stroke-width="1.1121099802623649"/>
</svg>