<svg xmlns="http://www.w3.org/2000/svg" xmlns:xlink="http://www.w3.org/1999/xlink" version="1.1" width="131.5" height="80.25" viewBox="-0.5 -0.25 131.5 80.25">
  <!-- Exported by Scratch - http://scratch.mit.edu/ -->
  <g id="ID0.2642007148824632">
    <path id="ID0.6870412128046155" fill="#7F7F7F" d="M 63.75 16 L 15.75 16 L 15.75 64 L 63.75 64 L 111.75 64 L 111.75 16 L 63.75 16 " stroke-width="1"/>
    <path id="ID0.033297700341790915_22_" fill="none" d="M 0.25 0.5 L 130.25 0.5 L 130.25 79.25 L 0.25 79.25 L 0.25 0.5 Z " stroke-width="1"/>
    <path id="ID0.14449769724160433_121_" fill="#C4482B" stroke="#000000" stroke-width="1.5" d="M 63.76 30.14 L 63.75 35.79 C 63.75 37.99 61.96 39.77 59.75 39.77 L 53.29 40.45 L 38.16 39.55 L 27.07 39.76 L 19.75 39.76 C 17.55 39.76 15.75 37.98 15.75 35.78 L 15.6 31.51 L 15.75 19.98 C 15.75 17.78 17.54 16 19.75 16 L 29.22 16.8 L 47.43 16 L 56.64 16.38 L 59.76 16 C 61.96 16 63.76 17.78 63.76 19.98 L 63.76 30.14 Z "/>
    <path id="ID0.3559804647229612_5_" fill="#C4482B" stroke="#000000" stroke-width="1.5" d="M 14.75 64.02 L 27.64 64.39 L 35.77 64.02 C 37.97 64.02 39.76 62.24 39.76 60.04 L 38.99 48.24 L 39.76 44.25 C 39.76 42.05 37.98 40.27 35.77 40.27 L 26.62 40.27 L 19.3 39.88 L 14.76 40.27 "/>
    <path id="ID0.14449769724160433_120_" fill="#E3674B" d="M 58.81 28.37 L 28.17 34.74 L 22.07 34.74 C 20.23 34.74 18.73 33.56 18.73 32.1 L 18.6 29.27 L 18.73 21.64 C 18.73 20.18 20.22 19 22.07 19 L 29.98 19.53 L 45.19 19 L 52.88 19.25 L 55.48 19 C 57.32 19 58.82 20.18 58.82 21.64 L 58.82 28.37 Z " stroke-width="1"/>
    <path id="ID0.4152245898731053" fill="#E3674B" d="M 31.36 43.56 L 28.76 43.81 L 21.07 43.56 L 14.75 43.78 L 14.75 57.07 L 34.71 52.92 L 34.71 46.2 C 34.71 44.73 33.2 43.56 31.36 43.56 Z " stroke-width="1"/>
    <path id="ID0.14449769724160433_119_" fill="#C4482B" stroke="#000000" stroke-width="1.5" d="M 111.76 30.14 L 111.75 35.79 C 111.75 37.99 109.96 39.77 107.75 39.77 L 101.29 40.45 L 86.16 39.55 L 75.07 39.76 L 67.75 39.76 C 65.55 39.76 63.75 37.98 63.75 35.78 L 63.6 31.51 L 63.75 19.98 C 63.75 17.78 65.54 16 67.75 16 L 77.22 16.8 L 95.43 16 L 104.64 16.38 L 107.76 16 C 109.96 16 111.76 17.78 111.76 19.98 L 111.76 30.14 Z "/>
    <path id="ID0.43518768064677715" fill="#C4482B" stroke="#000000" stroke-width="1.5" d="M 87.76 44.25 C 87.76 42.05 85.98 40.27 83.77 40.27 L 74.62 40.27 L 67.3 39.88 L 63.29 40.22 L 51.05 40.79 L 43.72 40.15 C 41.52 40.15 39.73 41.94 39.73 44.15 L 39.25 49.89 L 39.74 60.02 C 39.74 62.23 41.52 64.02 43.73 64.02 L 56.55 64 L 62.75 64.01 L 62.75 64.01 L 75.64 64.38 L 83.77 64.01 C 85.97 64.01 87.76 62.23 87.76 60.03 L 86.99 48.23 L 87.76 44.25 Z "/>
    <path id="ID0.3690653797239065_1_" fill="#C4482B" stroke="#000000" stroke-width="1.5" d="M 112.75 40.15 L 99.06 40.79 L 91.73 40.15 C 89.53 40.15 87.74 41.94 87.74 44.15 L 87.25 49.89 L 87.74 60.02 C 87.74 62.23 89.52 64.02 91.73 64.02 L 104.56 64 L 112.75 64.02 "/>
    <path id="ID0.14449769724160433_118_" fill="#E3674B" d="M 106.81 28.37 L 76.17 34.74 L 70.07 34.74 C 68.23 34.74 66.73 33.56 66.73 32.1 L 66.6 29.27 L 66.73 21.64 C 66.73 20.18 68.22 19 70.07 19 L 77.98 19.53 L 93.19 19 L 100.88 19.25 L 103.48 19 C 105.32 19 106.82 20.18 106.82 21.64 L 106.82 28.37 Z " stroke-width="1"/>
    <path id="ID0.8058410272933543" fill="#E3674B" d="M 82.71 46.19 C 82.71 44.73 81.21 43.55 79.37 43.55 L 76.77 43.8 L 69.08 43.55 L 62.76 43.77 L 62.76 43.78 L 54.03 44.08 L 46.12 43.55 C 44.27 43.55 42.78 44.73 42.78 46.19 L 42.65 53.82 L 42.78 56.65 C 42.78 58.11 44.28 59.29 46.12 59.29 L 52.22 59.29 L 64.76 56.68 L 64.76 56.65 L 82.72 52.92 L 82.72 46.19 Z " stroke-width="1"/>
    <path id="ID0.07870024722069502" fill="#E3674B" d="M 112.75 43.71 L 102.02 44.08 L 94.11 43.55 C 92.26 43.55 90.77 44.73 90.77 46.19 L 90.64 53.82 L 90.77 56.65 C 90.77 58.11 92.27 59.29 94.11 59.29 L 100.21 59.29 L 112.75 56.68 L 112.75 43.71 Z " stroke-width="1"/>
  </g>
</svg>