<svg xmlns="http://www.w3.org/2000/svg" xmlns:xlink="http://www.w3.org/1999/xlink" xmlns:a="http://ns.adobe.com/AdobeSVGViewerExtensions/3.0/" version="1.1" x="0px" y="0px" width="42.972999572753906" height="60.8120002746582" viewBox="0 0 42.972999572753906 60.8120002746582" enable-background="new -10.164 -2.107 64 64" xml:space="preserve">
  <defs/>
  <g>
    <path fill="#594419" d="M17.654,59.812c-1.84,0-3.416-0.692-4.555-2.001c-1.102-1.265-1.658-3.063-1.658-5.345&#13;&#10;&#9;c0-1.605,0.316-3.681,0.971-6.344c0.633-2.573,1.67-5.683,3.084-9.241c1.412-3.556,3.201-7.256,5.322-10.997&#13;&#10;&#9;c1.631-2.879,3.521-5.781,5.635-8.654H11.313c-2.291,0-4.004-0.443-5.244-1.355C5.127,15.183,4,13.83,4,11.323&#13;&#10;&#9;c0-2.799,1.326-3.989,2.438-4.495C7.664,6.271,9.258,6,11.313,6h22.834c2.549,0,4.404,0.43,5.672,1.313&#13;&#10;&#9;c0.982,0.686,2.154,2.056,2.154,4.695c0,1.317-0.668,2.868-2.037,4.742c-1.164,1.588-2.484,3.342-3.971,5.263&#13;&#10;&#9;c-1.418,1.837-2.906,4.162-4.424,6.91c-1.508,2.727-2.914,6.126-4.182,10.104c-0.523,1.729-0.902,3.185-1.119,4.309&#13;&#10;&#9;c-0.225,1.171-0.473,2.689-0.742,4.557c-0.279,1.937-0.525,3.418-0.736,4.444c-0.549,2.66-1.35,4.505-2.455,5.641&#13;&#10;&#9;C21.117,59.194,19.553,59.812,17.654,59.812L17.654,59.812z" stroke-width="1"/>
    <linearGradient id="SVGID_1_" gradientUnits="userSpaceOnUse" x1="19.9863" y1="1" x2="19.9863" y2="54.8115">
      <stop offset="0" style="stop-color:#FFFFFF"/>
      <stop offset="1" style="stop-color:#FFD38F"/>
    </linearGradient>
    <path fill="url(#SVGID_1_)" stroke="#594419" stroke-width="2" d="M14.654,54.812c-1.84,0-3.416-0.692-4.555-2.001&#13;&#10;&#9;c-1.102-1.265-1.658-3.063-1.658-5.345c0-1.605,0.316-3.681,0.971-6.344c0.633-2.573,1.67-5.683,3.084-9.241&#13;&#10;&#9;c1.412-3.556,3.201-7.256,5.322-10.997c1.631-2.879,3.521-5.781,5.635-8.654H8.313c-2.291,0-4.004-0.443-5.244-1.355&#13;&#10;&#9;C2.127,10.183,1,8.83,1,6.323c0-2.799,1.326-3.989,2.438-4.495C4.664,1.271,6.258,1,8.313,1h22.834c2.549,0,4.404,0.43,5.672,1.313&#13;&#10;&#9;c0.982,0.686,2.154,2.056,2.154,4.695c0,1.317-0.668,2.868-2.037,4.742c-1.164,1.588-2.484,3.342-3.971,5.263&#13;&#10;&#9;c-1.418,1.837-2.906,4.162-4.424,6.91c-1.508,2.727-2.914,6.126-4.182,10.104c-0.523,1.729-0.902,3.185-1.119,4.309&#13;&#10;&#9;c-0.225,1.171-0.473,2.689-0.742,4.557c-0.279,1.937-0.525,3.418-0.736,4.444c-0.549,2.66-1.35,4.505-2.455,5.641&#13;&#10;&#9;C18.117,54.194,16.553,54.812,14.654,54.812L14.654,54.812z"/>
  </g>
</svg>