<svg xmlns="http://www.w3.org/2000/svg" xmlns:xlink="http://www.w3.org/1999/xlink" version="1.1" width="39.81374740600586" height="43.96299743652344" viewBox="-0.38384806364774704 0.030699968338012695 39.81374740600586 43.96299743652344">
  <!-- Exported by Scratch - http://scratch.mit.edu/ -->
  <g id="ID0.9107724418863654">
    <path id="ID0.2856518356129527" fill="#FAA51D" stroke="#000000" stroke-width="0.27860653352935855" d="M 21.0887 35.9658 C 20.6264 35.966 20.1702 35.7543 19.8742 35.3538 L 17.33 31.913 C 17.0231 31.4978 16.9495 30.9548 17.1352 30.473 L 18.6627 26.5103 C 18.9627 25.7325 19.8368 25.3457 20.6136 25.6448 C 21.3914 25.9447 21.7789 26.8182 21.4792 27.5957 L 20.2498 30.7851 L 22.3011 33.5593 C 22.7965 34.2296 22.6549 35.1743 21.9848 35.67 C 21.7148 35.8696 21.4005 35.9658 21.0887 35.9658 L 21.0887 35.9658 Z "/>
    <path id="ID0.46319058258086443" fill="#FAA51D" stroke="#000000" stroke-width="0.27860653352935855" d="M 22.8831 43.011 C 22.8782 43.011 22.8734 43.011 22.8685 43.011 L 18.206 42.9767 C 17.6432 42.9729 17.1169 42.6976 16.793 42.2372 C 16.4689 41.777 16.3876 41.1882 16.5745 40.6575 L 17.9666 36.6997 L 15.9212 32.4347 C 15.5054 31.5675 15.8713 30.5274 16.7384 30.1115 C 17.6051 29.696 18.646 30.0616 19.0616 30.9288 L 21.4186 35.8443 C 21.6182 36.2609 21.6445 36.7394 21.4912 37.1749 L 20.6701 39.5101 L 22.8977 39.5284 C 23.8594 39.5363 24.6325 40.3225 24.6246 41.2844 C 24.616 42.2407 23.838 43.011 22.8831 43.011 L 22.8831 43.011 Z "/>
    <path id="ID0.7152078151702881_1_" fill="#FAA51D" stroke="#000000" d="M 10.2906 32.9401 C 9.383 33.4667 8.2089 33.993 6.8089 33.9614 C 3.6783 33.8908 0.8609 31.756 0.1946 33.5043 C -0.4725 35.2542 3.1924 39.4662 8.2419 37.3918 C 9.9827 36.6778 11.2195 35.6173 12.1974 34.729 C 12.4528 34.4947 14.5133 32.3687 14.3255 30.6042 C 14.1374 28.8395 13.3689 29.021 12.9756 29.0932 C 12.5821 29.1664 11.5735 32.1953 10.2906 32.9401 L 10.2906 32.9401 Z " stroke-width="0.23217211127446546"/>
    <path id="ID0.4691764716990292_1_" fill="#FFFFFF" d="M 0.4481 33.4302 C -0.0251 34.1824 0.8442 35.904 2.1378 36.7542 C 3.4327 37.6058 4.3887 37.6467 5.1698 37.7498 C 5.9534 37.6602 4.268 37.1728 4.4549 36.0273 C 4.6411 34.8852 6.0562 34.1355 6.0562 34.1355 C 6.0562 34.1355 4.0047 33.655 2.796 33.3373 C 1.6442 33.0274 0.9956 32.6766 0.4481 33.4302 L 0.4481 33.4302 Z " stroke-width="0.23217211127446546"/>
    <path id="ID0.26425604708492756_1_" fill="#FAA51D" stroke="#231F20" stroke-width="0.27860653352935855" d="M 19.9287 33.1347 C 20.436 32.7451 20.9521 32.1089 21.6159 31.1222 C 22.1692 30.2996 22.7687 28.7408 22.7687 28.7408 C 23.142 27.6644 23.5945 25.9331 21.9565 25.6257 C 21.2937 25.5015 20.215 25.584 18.682 25.2944 C 17.148 25.0035 15.7796 24.2176 14.6187 26.2477 C 13.4583 28.2788 10.5241 29.7788 14.1678 33.3192 L 19.9287 33.1347 Z "/>
    <path id="ID0.06476658303290606" fill="#FAA51D" stroke="#000000" stroke-width="0.27860653352935855" d="M 17.1687 43.4937 L 11.49 43.4937 C 10.8575 43.4937 10.275 43.1508 9.9676 42.598 C 9.6607 42.0452 9.6774 41.3693 10.0115 40.8326 L 12.9626 36.0904 L 12.9842 31.7818 C 12.9891 30.8229 13.7678 30.0491 14.7253 30.0491 C 14.7283 30.0491 14.7311 30.0491 14.7341 30.0491 C 15.696 30.054 16.4715 30.8375 16.4668 31.799 L 16.4427 36.6005 C 16.441 36.923 16.35 37.2383 16.1796 37.512 L 14.6243 40.0114 L 17.1684 40.0114 C 18.1303 40.0114 18.9097 40.7908 18.9097 41.7526 C 18.9097 42.7145 18.1306 43.4937 17.1687 43.4937 L 17.1687 43.4937 Z "/>
    <path id="ID0.203311821911484_1_" fill="#FFFFFF" d="M 21.8499 30.3263 C 21.8499 30.3263 22.9045 29.1905 20.7959 28.0561 C 18.6873 26.9217 17.7161 28.0489 17.0649 28.7055 C 15.9361 29.8392 18.3026 32.4569 18.3026 32.4569 L 19.8909 32.8962 C 19.8909 32.8962 20.6327 32.1932 20.9579 31.6244 C 21.3306 31.1059 21.8499 30.3263 21.8499 30.3263 " stroke-width="0.23217211127446546"/>
    <path id="ID0.59592011757195" fill="#FAA51D" d="M 16.5752 33.0866 C 15.8074 33.8665 14.4583 33.7833 13.5619 32.9009 C 12.6652 32.0186 12.5607 30.6706 13.3288 29.8907 C 14.0966 29.1106 15.4459 28.7292 16.3424 29.6117 C 17.8682 31.1134 17.9522 31.6871 16.5752 33.0866 Z " stroke-width="0.23217211127446546"/>
    <path id="ID0.4675603983923793_1_" fill="#FAA51D" stroke="#231F20" stroke-width="0.27860653352935855" d="M 21.7032 4.1635 C 21.0457 4.1025 19.6752 4.0286 18.9204 4.0648 C 16.9019 4.161 14.9823 4.8879 14.9823 4.8879 L 9.4241 1.2607 L 10.3781 9.3328 C 10.6539 8.9987 5.8716 14.7993 8.8929 19.6752 C 11.916 24.5536 18.3855 26.7274 26.3926 25.1366 C 34.4002 23.5446 36.3103 18.9325 35.7798 16.4928 C 35.2495 14.0531 32.2266 13.1525 32.2266 13.1525 C 32.2266 13.1525 32.1883 11.2399 30.8058 8.8959 C 29.9834 7.5005 27.2415 5.4628 27.2415 5.4628 L 26.0207 0.5307 L 22.8392 3.6065 L 21.7032 4.1635 L 21.7032 4.1635 Z "/>
    <path id="ID0.876089540310204_1_" fill="#FFFFFF" d="M 31.8264 13.091 L 30.7668 12.2099 L 26.8751 13.3459 C 26.8751 13.3459 26.8751 14.8058 25.0107 15.2103 C 23.145 15.6166 20.2243 14.2382 20.2243 14.2382 L 16.9005 15.6971 C 16.9005 15.6971 13.2981 16.093 13.1695 18.2933 C 12.8821 23.1833 18.8819 25.2218 21.1553 25.3515 C 22.3958 25.4231 24.6713 25.2071 26.397 24.8642 C 33.9763 23.4835 36.025 18.9215 35.4954 16.4812 C 34.9651 14.0415 32.089 13.4091 32.089 13.4091 L 31.8264 13.091 L 31.8264 13.091 Z " stroke-width="0.23217211127446546"/>
    <path id="ID0.44282719027251005_1_" fill="none" stroke="#231F20" stroke-width="0.27860653352935855" d="M 3.7558 17.8255 C 3.7558 17.8255 5.5094 17.9852 6.3065 17.9399 C 7.1028 17.8944 8.6514 17.6894 8.6514 17.6894 "/>
    <path id="ID0.893105489667505_1_" fill="none" stroke="#231F20" stroke-width="0.27860653352935855" d="M 34.062 15.4842 C 34.062 15.4842 36.0041 15.1669 36.9904 14.8225 C 38.1494 14.4207 38.9299 13.736 38.9299 13.736 "/>
    <path id="ID0.03574043000116944_1_" fill="none" stroke="#231F20" stroke-width="0.27860653352935855" d="M 8.7357 16.0127 C 8.7357 16.0127 7.7179 15.2537 6.1242 14.5481 C 4.359 13.7666 3.3897 13.5649 3.3897 13.5649 "/>
    <path id="ID0.6674723788164556_1_" fill="none" stroke="#231F20" stroke-width="0.27860653352935855" d="M 34.2589 18.0249 C 34.2589 18.0249 35.423 18.496 36.6212 18.6162 C 37.8041 18.7342 38.6049 18.6631 38.6049 18.6631 "/>
    <path id="ID0.12165586883202195_1_" fill="none" stroke="#000000" stroke-linecap="round" d="M 21.5498 4.1874 C 22.7622 4.4862 23.2091 4.8145 23.2091 4.8145 " stroke-width="0.23217211127446546"/>
    <path id="ID0.178104005753994_1_" fill="none" stroke="#000000" d="M 13.6717 3.962 L 16.2583 5.8226 " stroke-width="0.23217211127446546"/>
    <path id="ID0.7735752793960273_1_" fill="#FFFFFF" stroke="#231F20" d="M 29.871 8.9495 C 31.1194 10.8617 31.1659 13.0446 29.9743 13.823 C 28.7817 14.6022 26.8038 13.6816 25.5536 11.7681 C 24.3012 9.8555 24.2571 7.6742 25.4495 6.8946 C 26.6411 6.1163 28.6212 7.036 29.871 8.9495 L 29.871 8.9495 Z " stroke-width="0.23217211127446546"/>
    <path id="ID0.19106501014903188_1_" fill="#231F20" d="M 29.5504 12.0051 C 29.5504 12.466 29.2079 12.8403 28.7817 12.8403 C 28.3577 12.8403 28.012 12.466 28.012 12.0051 C 28.012 11.544 28.3577 11.1688 28.7817 11.1688 C 29.2082 11.1688 29.5504 11.5438 29.5504 12.0051 " stroke-width="0.23217211127446546"/>
    <path id="ID0.06283409334719181_1_" fill="#FFFFFF" stroke="#231F20" d="M 19.6357 10.3386 C 20.885 12.2512 20.7536 14.5493 19.3448 15.4684 C 17.9351 16.3904 15.7796 15.5845 14.5307 13.6719 C 13.2807 11.7593 13.4105 9.4622 14.8202 8.5411 C 16.2305 7.6206 18.3852 8.425 19.6357 10.3386 L 19.6357 10.3386 Z " stroke-width="0.23217211127446546"/>
    <path id="ID0.716460831463337_1_" fill="#231F20" d="M 18.8723 12.8523 C 18.8723 13.3139 18.5294 13.6881 18.1032 13.6881 C 17.6797 13.6881 17.3337 13.3132 17.3337 12.8523 C 17.3337 12.3915 17.6797 12.0167 18.1032 12.0167 C 18.5287 12.0167 18.8723 12.3915 18.8723 12.8523 " stroke-width="0.23217211127446546"/>
    <path id="ID0.5430324394255877_1_" fill="#5E4A42" stroke="#000000" d="M 24.7161 14.312 C 25.5076 14.312 26.6608 14.191 26.7214 14.5551 C 26.7827 14.9201 25.9917 16.3495 25.4458 16.4101 C 24.8981 16.471 22.8306 15.4055 22.8007 14.7369 C 22.7691 14.0684 23.9857 14.312 24.7161 14.312 L 24.7161 14.312 Z " stroke-width="0.23217211127446546"/>
    <path id="ID0.5547774969600141_1_" fill="none" stroke="#231F20" stroke-width="0.27860653352935855" d="M 19.1691 17.4329 C 19.1691 17.4329 23.5866 18.7367 25.239 19.0966 C 26.8904 19.4562 29.872 19.8159 29.872 19.8159 C 29.872 19.8159 26.4607 24.19 22.4738 23.0795 C 18.4869 21.9704 18.5591 19.4565 19.1691 17.4329 L 19.1691 17.4329 Z "/>
    <path id="ID0.6480262982659042" fill="#FAA51D" stroke="#000000" stroke-width="0.27860653352935855" d="M 17.0045 35.7807 C 16.529 35.7807 16.0612 35.5567 15.7677 35.1378 L 13.2986 31.6174 C 12.9598 31.1345 12.9336 30.4983 13.2313 29.989 L 15.5574 26.0114 C 15.9783 25.2916 16.9035 25.0504 17.6221 25.4704 C 18.3416 25.8913 18.5838 26.8156 18.1631 27.5351 L 16.3254 30.6769 L 18.2385 33.4047 C 18.7173 34.087 18.5522 35.0282 17.8696 35.5068 C 17.6061 35.6918 17.3038 35.7807 17.0045 35.7807 L 17.0045 35.7807 Z "/>
  </g>
</svg>