<svg xmlns="http://www.w3.org/2000/svg" xmlns:xlink="http://www.w3.org/1999/xlink" version="1.1" width="24.16919732093811" height="25.236208200454712" viewBox="0.32507455348968506 0.3399394750595093 24.16919732093811 25.236208200454712">
  <!-- Exported by Scratch - http://scratch.mit.edu/ -->
  <path id="ID0.9402324948459864" fill="#FFFFFF" stroke="#666666" stroke-width="1.7400000095367432" stroke-linecap="round" d="M 6.874 2.9575 C 7.2438 1.8735 9.7815 1.2584 10.354 2.3485 C 11.7069 5.1055 10.7673 11.6105 10.963 11.5705 C 11.1622 11.5314 10.8351 4.9054 12.355 2.044 C 12.9536 0.9191 15.7959 0.9165 16.183 2.131 C 17.3392 5.7615 14.6205 11.3269 15.835 13.5715 C 16.4866 14.7695 17.8725 9.7513 19.663 9.0475 C 21.0185 8.5603 23.1743 9.3189 23.5345 10.657 C 24.0269 12.4953 22.38 14.405 21.3595 16.051 C 19.8344 18.5122 18.2606 20.9752 16.1395 22.837 C 14.8101 23.9454 13.0005 24.5787 11.3545 24.664 C 9.1325 24.7788 6.6 24.7432 4.786 23.446 C 3.1034 22.2619 2.2874 19.9582 1.915 17.965 C 1.2468 14.405 0.7814 10.5717 1.741 7.09 C 2.0768 5.8746 4.4728 5.0612 5.4385 5.872 C 6.6669 6.9082 5.9718 9.1858 6.0475 10.8745 C 6.1606 11.7732 5.9361 14.4206 6.004 13.615 C 6.2615 10.5535 5.5377 6.2992 6.874 2.9575 Z "/>
</svg>