<svg version="1.1" xmlns="http://www.w3.org/2000/svg" xmlns:xlink="http://www.w3.org/1999/xlink" width="120" height="52.288" viewBox="0,0,120,52.288"><defs><linearGradient x1="181.0479" y1="176.9307" x2="301.0479" y2="176.9307" gradientUnits="userSpaceOnUse" id="color-1"><stop offset="0" stop-color="#fbb040"/><stop offset="1" stop-color="#f15a29"/></linearGradient><linearGradient x1="185.5508" y1="176.9297" x2="296.5439" y2="176.9297" gradientUnits="userSpaceOnUse" id="color-2"><stop offset="0" stop-color="#ed7340"/><stop offset="0.5181" stop-color="#f4aa46"/><stop offset="1" stop-color="#f29746"/></linearGradient></defs><g transform="translate(-181.048,-150.787)"><g data-paper-data="{&quot;isPaintingLayer&quot;:true}" fill-rule="nonzero" stroke-linecap="butt" stroke-linejoin="miter" stroke-miterlimit="10" stroke-dasharray="" stroke-dashoffset="0" style="mix-blend-mode: normal"><path d="M301.048,176.931c0,14.415 -11.73,26.144 -26.146,26.144h-67.711c-14.415,0 -26.143,-11.728 -26.143,-26.144c0,-14.416 11.727,-26.144 26.143,-26.144h67.711c14.416,0 26.145,11.727 26.146,26.144z" fill="url(#color-1)" stroke="none" stroke-width="1"/><path d="M296.544,176.929c0,11.953 -9.689,21.641 -21.642,21.641h-67.711c-11.952,0 -21.64,-9.688 -21.64,-21.641v0c0,-11.951 9.688,-21.64 21.64,-21.64h67.711c11.952,0 21.642,9.689 21.642,21.64z" fill="url(#color-2)" stroke="none" stroke-width="1"/><path d="M206.01466,175.83598c1.69708,-3.86387 3.34048,-8.30525 4.83932,-12.26686c0.65985,-1.74407 1.26485,-4.24346 3.48682,-4.36691c2.30046,-0.1278 3.12685,3.75905 3.55338,5.60001c1.53406,6.62127 3.08761,15.1043 6.41977,20.98322c0.37427,0.66031 0.30187,-1.488 0.47806,-2.22628c0.35927,-1.50547 0.85455,-3.09689 1.39628,-4.54492c0.80937,-2.1634 3.59974,-13.31317 4.93167,-15.04601c1.59147,-2.0705 3.88682,-1.6162 4.75164,0.97828c0.33512,1.00536 -1.30902,5.40565 -1.52611,6.32849c-1.56339,6.64616 -4.29182,12.83914 -5.63942,19.6535c-0.54618,2.76181 -0.76164,7.72172 -4.33597,7.52314c-2.06798,-0.11489 -2.83648,-5.24928 -3.35572,-6.7897c-2.54383,-7.5468 -4.94925,-15.0415 -7.22476,-22.66243c-0.23749,-0.79539 -0.87438,1.42387 -1.16195,2.20255c-0.52674,1.42634 -0.96198,2.80129 -1.36377,4.25245c-1.1287,4.0767 -3.61061,11.48909 -6.22316,14.25771c-0.0946,0.10025 -0.2123,0.19362 -0.34755,0.27808c-0.41284,0.30105 -0.9214,0.4787 -1.47146,0.4787c-0.06668,0 -0.13275,-0.00261 -0.19812,-0.00773c-1.11732,0.035 -2.22724,-0.45775 -2.22724,-1.88349c-0.04875,-0.19487 -0.07465,-0.3988 -0.07465,-0.60878c0,-0.31242 0.05731,-0.61146 0.16199,-0.88717c0.85987,-3.77989 3.91805,-8.48434 5.13094,-11.24585z" fill="#000000" stroke="none" stroke-width="0.5"/><path d="M269.29156,178.62253c0,7.11988 -5.80787,12.89167 -12.97225,12.89167c-7.16438,0 -12.97225,-5.7718 -12.97225,-12.89167c0,-7.11988 5.80787,-12.89167 12.97225,-12.89167c7.16438,0 12.97225,5.77179 12.97225,12.89167z" fill="#000000" stroke="#000000" stroke-width="2"/><path d="M267.84125,178.21967c0,5.8294 -4.90603,10.55506 -10.95792,10.55506c-6.0519,0 -10.95793,-4.72566 -10.95793,-10.55506c0,-5.8294 4.90603,-10.55505 10.95793,-10.55505c6.0519,0 10.95792,4.72565 10.95792,10.55505z" fill="#ffffff" stroke="#000000" stroke-width="2"/></g></g></svg>