<svg version="1.1" xmlns="http://www.w3.org/2000/svg" xmlns:xlink="http://www.w3.org/1999/xlink" width="364.7666" height="369.86575" viewBox="0,0,364.7666,369.86575"><defs><linearGradient x1="222.53496" y1="211.76408" x2="222.53496" y2="391.7578" gradientUnits="userSpaceOnUse" id="color-1"><stop offset="0" stop-color="#ffffff"/><stop offset="1" stop-color="#ffffff" stop-opacity="0"/></linearGradient><linearGradient x1="226.92886" y1="209.4637" x2="226.92886" y2="376.62106" gradientUnits="userSpaceOnUse" id="color-2"><stop offset="0" stop-color="#ffffff"/><stop offset="1" stop-color="#ffffff" stop-opacity="0"/></linearGradient><linearGradient x1="189.73941" y1="227.09961" x2="189.73941" y2="395.19851" gradientUnits="userSpaceOnUse" id="color-3"><stop offset="0" stop-color="#ffffff"/><stop offset="1" stop-color="#ffffff" stop-opacity="0"/></linearGradient><linearGradient x1="214.34954" y1="216.36474" x2="214.34954" y2="387.90777" gradientUnits="userSpaceOnUse" id="color-4"><stop offset="0" stop-color="#ffffff"/><stop offset="1" stop-color="#ffffff" stop-opacity="0"/></linearGradient><linearGradient x1="250.78514" y1="228.63317" x2="250.78514" y2="383.29042" gradientUnits="userSpaceOnUse" id="color-5"><stop offset="0" stop-color="#ffffff"/><stop offset="1" stop-color="#ffffff" stop-opacity="0"/></linearGradient><linearGradient x1="316.25834" y1="245.5022" x2="316.25834" y2="349.0171" gradientUnits="userSpaceOnUse" id="color-6"><stop offset="0" stop-color="#ffffff"/><stop offset="1" stop-color="#ffffff" stop-opacity="0"/></linearGradient><linearGradient x1="322.39255" y1="234.00059" x2="322.39255" y2="332.91477" gradientUnits="userSpaceOnUse" id="color-7"><stop offset="0" stop-color="#ffffff"/><stop offset="1" stop-color="#ffffff" stop-opacity="0"/></linearGradient><linearGradient x1="223.89225" y1="249.31013" x2="420.53092" y2="249.31013" gradientUnits="userSpaceOnUse" id="color-8"><stop offset="0" stop-color="#ffffff"/><stop offset="1" stop-color="#ffffff" stop-opacity="0"/></linearGradient><linearGradient x1="221.30293" y1="234.35231" x2="415.72601" y2="234.35231" gradientUnits="userSpaceOnUse" id="color-9"><stop offset="0" stop-color="#ffffff"/><stop offset="1" stop-color="#ffffff" stop-opacity="0"/></linearGradient><linearGradient x1="237.42596" y1="256.60418" x2="393.60483" y2="256.60418" gradientUnits="userSpaceOnUse" id="color-10"><stop offset="0" stop-color="#ffffff"/><stop offset="1" stop-color="#ffffff" stop-opacity="0"/></linearGradient><linearGradient x1="228.02227" y1="230.59219" x2="399.43673" y2="230.59219" gradientUnits="userSpaceOnUse" id="color-11"><stop offset="0" stop-color="#ffffff"/><stop offset="1" stop-color="#ffffff" stop-opacity="0"/></linearGradient><linearGradient x1="240.49208" y1="195.91122" x2="409.14582" y2="195.91122" gradientUnits="userSpaceOnUse" id="color-12"><stop offset="0" stop-color="#ffffff"/><stop offset="1" stop-color="#ffffff" stop-opacity="0"/></linearGradient><linearGradient x1="262.85934" y1="129.54755" x2="396.15678" y2="129.54755" gradientUnits="userSpaceOnUse" id="color-13"><stop offset="0" stop-color="#ffffff"/><stop offset="1" stop-color="#ffffff" stop-opacity="0"/></linearGradient><linearGradient x1="251.48567" y1="120.42898" x2="383.44941" y2="120.42898" gradientUnits="userSpaceOnUse" id="color-14"><stop offset="0" stop-color="#ffffff"/><stop offset="1" stop-color="#ffffff" stop-opacity="0"/></linearGradient><linearGradient x1="228.89225" y1="255.44641" x2="418.21119" y2="255.44641" gradientUnits="userSpaceOnUse" id="color-15"><stop offset="0" stop-color="#ffffff"/><stop offset="1" stop-color="#ffffff" stop-opacity="0"/></linearGradient><linearGradient x1="226.30293" y1="239.35231" x2="420.72601" y2="239.35231" gradientUnits="userSpaceOnUse" id="color-16"><stop offset="0" stop-color="#ffffff"/><stop offset="1" stop-color="#ffffff" stop-opacity="0"/></linearGradient><linearGradient x1="242.42596" y1="261.60418" x2="398.60483" y2="261.60418" gradientUnits="userSpaceOnUse" id="color-17"><stop offset="0" stop-color="#ffffff"/><stop offset="1" stop-color="#ffffff" stop-opacity="0"/></linearGradient><linearGradient x1="233.02227" y1="235.59219" x2="404.43673" y2="235.59219" gradientUnits="userSpaceOnUse" id="color-18"><stop offset="0" stop-color="#ffffff"/><stop offset="1" stop-color="#ffffff" stop-opacity="0"/></linearGradient><linearGradient x1="245.49208" y1="200.91122" x2="414.14582" y2="200.91122" gradientUnits="userSpaceOnUse" id="color-19"><stop offset="0" stop-color="#ffffff"/><stop offset="1" stop-color="#ffffff" stop-opacity="0"/></linearGradient><linearGradient x1="267.85934" y1="134.54755" x2="401.15678" y2="134.54755" gradientUnits="userSpaceOnUse" id="color-20"><stop offset="0" stop-color="#ffffff"/><stop offset="1" stop-color="#ffffff" stop-opacity="0"/></linearGradient><linearGradient x1="256.48567" y1="125.42898" x2="388.44942" y2="125.42898" gradientUnits="userSpaceOnUse" id="color-21"><stop offset="0" stop-color="#ffffff"/><stop offset="1" stop-color="#ffffff" stop-opacity="0"/></linearGradient><linearGradient x1="258.77149" y1="27.394" x2="258.77149" y2="194.3746" gradientUnits="userSpaceOnUse" id="color-22"><stop offset="0" stop-color="#ffffff" stop-opacity="0"/><stop offset="1" stop-color="#ffffff"/></linearGradient><linearGradient x1="254.8261" y1="33.43303" x2="254.8261" y2="196.84828" gradientUnits="userSpaceOnUse" id="color-23"><stop offset="0" stop-color="#ffffff" stop-opacity="0"/><stop offset="1" stop-color="#ffffff"/></linearGradient><linearGradient x1="275.7143" y1="25.90764" x2="275.7143" y2="179.92445" gradientUnits="userSpaceOnUse" id="color-24"><stop offset="0" stop-color="#ffffff" stop-opacity="0"/><stop offset="1" stop-color="#ffffff"/></linearGradient><linearGradient x1="251.13734" y1="26.81517" x2="251.13734" y2="190.00129" gradientUnits="userSpaceOnUse" id="color-25"><stop offset="0" stop-color="#ffffff" stop-opacity="0"/><stop offset="1" stop-color="#ffffff"/></linearGradient><linearGradient x1="217.27868" y1="25.83275" x2="217.27868" y2="177.54169" gradientUnits="userSpaceOnUse" id="color-26"><stop offset="0" stop-color="#ffffff" stop-opacity="0"/><stop offset="1" stop-color="#ffffff"/></linearGradient><linearGradient x1="155.4688" y1="47.46925" x2="155.4688" y2="157.55109" gradientUnits="userSpaceOnUse" id="color-27"><stop offset="0" stop-color="#ffffff" stop-opacity="0"/><stop offset="1" stop-color="#ffffff"/></linearGradient><linearGradient x1="150.93799" y1="65.95632" x2="150.93799" y2="169.05852" gradientUnits="userSpaceOnUse" id="color-28"><stop offset="0" stop-color="#ffffff" stop-opacity="0"/><stop offset="1" stop-color="#ffffff"/></linearGradient><linearGradient x1="58.79314" y1="175.42528" x2="231.66413" y2="175.42528" gradientUnits="userSpaceOnUse" id="color-29"><stop offset="0" stop-color="#ffffff" stop-opacity="0"/><stop offset="1" stop-color="#ffffff"/></linearGradient><linearGradient x1="56.45941" y1="182.62684" x2="234.12648" y2="182.62684" gradientUnits="userSpaceOnUse" id="color-30"><stop offset="0" stop-color="#ffffff" stop-opacity="0"/><stop offset="1" stop-color="#ffffff"/></linearGradient><linearGradient x1="72.09665" y1="152.6143" x2="217.14154" y2="152.6143" gradientUnits="userSpaceOnUse" id="color-31"><stop offset="0" stop-color="#ffffff" stop-opacity="0"/><stop offset="1" stop-color="#ffffff"/></linearGradient><linearGradient x1="62.67186" y1="175.18057" x2="227.27186" y2="175.18057" gradientUnits="userSpaceOnUse" id="color-32"><stop offset="0" stop-color="#ffffff" stop-opacity="0"/><stop offset="1" stop-color="#ffffff"/></linearGradient><linearGradient x1="57.82999" y1="209.371" x2="214.81965" y2="209.371" gradientUnits="userSpaceOnUse" id="color-33"><stop offset="0" stop-color="#ffffff" stop-opacity="0"/><stop offset="1" stop-color="#ffffff"/></linearGradient><linearGradient x1="75.72211" y1="276.59208" x2="195.0468" y2="276.59208" gradientUnits="userSpaceOnUse" id="color-34"><stop offset="0" stop-color="#ffffff" stop-opacity="0"/><stop offset="1" stop-color="#ffffff"/></linearGradient><linearGradient x1="90.20766" y1="284.28237" x2="206.5599" y2="284.28237" gradientUnits="userSpaceOnUse" id="color-35"><stop offset="0" stop-color="#ffffff" stop-opacity="0"/><stop offset="1" stop-color="#ffffff"/></linearGradient></defs><g transform="translate(-56.20941,-25.58275)"><g data-paper-data="{&quot;isPaintingLayer&quot;:true}" fill="none" fill-rule="nonzero" stroke-width="0.5" stroke-linecap="round" stroke-linejoin="miter" stroke-miterlimit="10" stroke-dasharray="" stroke-dashoffset="0" style="mix-blend-mode: normal"><g><g><path d="M124.70508,391.7578l93.40584,-179.99373l102.25392,174.12382" stroke="url(#color-1)"/><path d="M88.52567,376.62106l128.05171,-167.15732l148.75468,164.85698" stroke="url(#color-2)"/><path d="M211.97671,227.09961l-44.47459,168.0989" stroke="url(#color-3)"/><path d="M216.57737,216.36473l-4.45566,171.54303" stroke="url(#color-4)"/><path d="M253.21216,383.13823l-34.33446,-154.50506l63.81489,154.65725" stroke="url(#color-5)"/><path d="M387.56858,349.01709l-142.62047,-103.51485" stroke="url(#color-6)"/><path d="M400.60377,332.91477l-156.42244,-98.91419" stroke="url(#color-7)"/></g><g><path d="M397.04935,354.04735l-173.1571,-148.42272l196.63867,-61.05171" stroke="url(#color-8)"/><path d="M354.87361,369.37459l-133.57068,-162.78108l194.42308,-107.26345" stroke="url(#color-9)"/><path d="M237.42596,215.09275l156.17887,83.02285" stroke="url(#color-10)"/><path d="M228.02227,208.16642l171.41446,44.85157" stroke="url(#color-11)"/><path d="M403.07636,210.55718l-162.58428,-1.83422l168.65374,-27.4577" stroke="url(#color-12)"/><path d="M262.85934,187.18377l133.29744,-115.27235" stroke="url(#color-13)"/><path d="M383.44941,55.54912l-131.96374,129.75965" stroke="url(#color-14)"/></g><g><path d="M402.04935,359.04735l-173.1571,-148.42272l189.31894,-58.7791" stroke="url(#color-15)"/><path d="M359.87361,374.37459l-133.57068,-162.78108l194.42308,-107.26345" stroke="url(#color-16)"/><path d="M398.60483,303.1156l-156.17887,-83.02285" stroke="url(#color-17)"/><path d="M233.02227,213.16643l171.41446,44.85156" stroke="url(#color-18)"/><path d="M408.07636,215.55718l-162.58428,-1.83422l168.65374,-27.4577" stroke="url(#color-19)"/><path d="M401.15678,76.91141l-133.29744,115.27235" stroke="url(#color-20)"/><path d="M256.48567,190.30879l131.96375,-129.75965" stroke="url(#color-21)"/></g><g><path d="M351.79138,27.394l-115.17197,166.98055l-70.86781,-164.91129" stroke="url(#color-22)"/><path d="M385.76449,46.97744l-147.91057,149.87085l-113.96621,-163.41525" stroke="url(#color-23)"/><path d="M244.61943,179.92445l62.18974,-154.01675" stroke="url(#color-24)"/><path d="M238.71511,190.00129l24.84447,-163.18606" stroke="url(#color-25)"/><path d="M223.92064,27.86801l14.04312,149.67363l-41.37015,-151.70889" stroke="url(#color-26)"/><path d="M96.73533,47.46928l117.46694,110.08182" stroke="url(#color-27)"/><path d="M88.34826,65.95632l125.17947,103.10218" stroke="url(#color-28)"/></g><g><path d="M78.91428,85.68678l152.74985,103.31166l-172.87099,76.16526" stroke="url(#color-29)"/><path d="M93.20561,51.18052l140.92087,136.56088l-177.66707,126.33165" stroke="url(#color-30)"/><path d="M72.09665,124.09799l145.04489,57.03271" stroke="url(#color-31)"/><path d="M227.27186,186.94274l-164.6,-23.52444" stroke="url(#color-32)"/><path d="M57.82999,203.98438l156.98966,-16.17653l-152.64496,43.12625" stroke="url(#color-33)"/><path d="M195.0468,211.75085l-119.32469,129.68245" stroke="url(#color-34)"/><path d="M206.5599,212.32025l-116.35224,143.92412" stroke="url(#color-35)"/></g></g></g></g></svg>