<svg version="1.1" xmlns="http://www.w3.org/2000/svg" xmlns:xlink="http://www.w3.org/1999/xlink" width="190.33333" height="118.33333" viewBox="0,0,190.33333,118.33333"><g transform="translate(-144.83334,-120.83333)"><g data-paper-data="{&quot;isPaintingLayer&quot;:true}" fill-rule="nonzero" stroke="none" stroke-width="0" stroke-linejoin="miter" stroke-miterlimit="10" stroke-dasharray="" stroke-dashoffset="0" style="mix-blend-mode: normal"><path d="M335.16667,180h-190.33333" fill="none" stroke-linecap="round"></path><path d="M240,239.16666v-118.33333" fill="none" stroke-linecap="round"></path><path d="M268.63637,187.21211c0,4.45175 -14.27737,4.66667 -29.27273,4.66667c-14.99536,0 -28,-2.33613 -28,-6.78787c0,-4.45175 13.00464,-9.33333 28,-9.33333c14.99536,0 29.27273,7.0028 29.27273,11.45455z" fill="#ffffff" stroke-linecap="butt"></path><path d="M263.12122,175.33333c0,3.74884 -5.69819,6.78787 -12.72727,6.78787c-7.02908,0 -12.72727,-3.03903 -12.72727,-6.78787c0,-3.74884 5.69819,-6.78787 12.72727,-6.78787c7.02908,0 12.72727,3.03903 12.72727,6.78787z" fill="#ffffff" stroke-linecap="butt"></path><path d="M248.27274,174.0606c0,4.45175 -4.74849,8.0606 -10.60606,8.0606c-5.85756,0 -10.60606,-3.60886 -10.60606,-8.0606c0,-4.45175 4.74849,-8.0606 10.60606,-8.0606c5.85756,0 10.60606,3.60886 10.60606,8.0606z" fill="#ffffff" stroke-linecap="butt"></path><path d="M230.45455,177.87878c0,2.34303 -2.56419,4.24242 -5.72727,4.24242c-3.16308,0 -5.72727,-1.89939 -5.72727,-4.24242c0,-2.34303 2.56419,-4.24242 5.72727,-4.24242c3.16308,0 5.72727,1.89939 5.72727,4.24242z" fill="#ffffff" stroke-linecap="butt"></path><path d="M249.96971,192.09091c0,1.05437 -3.03903,1.90909 -6.78787,1.90909c-3.74884,0 -6.78787,-0.85473 -6.78787,-1.90909c0,-1.05437 3.03903,-1.90909 6.78787,-1.90909c3.74884,0 6.78787,0.85473 6.78787,1.90909z" fill="#ffffff" stroke-linecap="butt"></path><path d="M230.8788,189.75757c0,1.40582 -3.41891,2.54545 -7.63636,2.54545c-4.21745,0 -7.63636,-1.13964 -7.63636,-2.54545c0,-1.40582 3.41891,-2.54545 7.63636,-2.54545c4.21745,0 7.63636,1.13964 7.63636,2.54545z" fill="#ffffff" stroke-linecap="butt"></path><path d="M243.18182,191.66666c0,-0.58576 2.37425,-1.0606 5.30303,-1.0606c2.92879,0 5.30303,0.47485 5.30303,1.0606c0,0.58576 -2.37425,1.0606 -5.30303,1.0606c-2.92879,0 -5.30303,-0.47485 -5.30303,-1.0606z" fill="#ffffff" stroke-linecap="butt"></path><path d="M262.87061,181.01329c0.58685,2.68823 0.35107,5.17357 -0.52663,5.55115c-0.87771,0.37758 -2.06496,-1.49557 -2.65182,-4.18381c-0.58685,-2.68823 -0.35107,-5.17357 0.52663,-5.55115c0.87771,-0.37758 2.06496,1.49557 2.65182,4.18381z" fill="#ffffff" stroke-linecap="butt"></path></g></g></svg>