<svg xmlns="http://www.w3.org/2000/svg" xmlns:xlink="http://www.w3.org/1999/xlink" version="1.1" width="134.08999633789062" height="230.8000030517578" viewBox="-0.5 -0.5 134.08999633789062 230.8000030517578">
  <!-- Exported by Scratch - http://scratch.mit.edu/ -->
  <g id="ID0.2140220459550619">
    <path id="ID0.14449769724160433_103_" fill="#ADADAD" stroke="#000000" stroke-width="2" d="M 65.55 45.88 L 65.74 57.47 C 65.74 61.88 62.26 65.56 57.93 65.56 L 49.64 66.03 L 24.34 66.03 C 20.02 66.03 17.55 62.21 17.55 57.81 L 17.26 48.99 L 17.55 25.9 C 17.84 21.58 21.28 17.71 25.62 17.71 L 42.53 18.12 L 57.72 17.58 C 62.04 17.58 65.75 21.37 65.75 25.78 L 65.55 45.88 Z "/>
    <path id="ID0.14449769724160433_102_" fill="#DEDEDE" d="M 61.73 44.46 L 61.9 54.64 C 61.9 58.51 58.84 61.75 55.03 61.75 L 47.74 62.17 L 25.48 62.17 C 21.69 62.17 19.51 58.82 19.51 54.94 L 19.25 47.19 L 19.51 26.9 C 19.76 23.1 22.79 19.7 26.61 19.7 L 41.48 20.06 L 54.84 19.58 C 58.63 19.58 61.9 22.91 61.9 26.79 L 61.73 44.46 Z " stroke-width="1"/>
    <path id="ID0.14449769724160433_101_" fill="#F0F0F0" d="M 55.16 41.12 L 33.88 53.03 L 30.03 53.03 C 26.67 53.03 23.92 50.83 23.92 48.1 L 23.69 42.82 L 23.92 28.56 C 23.92 25.84 26.65 23.63 30.03 23.63 L 44.29 24.1 L 49.05 23.63 C 52.41 23.63 55.16 25.83 55.16 28.56 L 55.16 41.12 Z " stroke-width="1"/>
    <path id="ID0.033297700341790915_13_" fill="none" d="M 0.5 0.5 L 132.59 0.5 L 132.59 229.3 L 0.5 229.3 L 0.5 0.5 Z " stroke-width="1"/>
    <path id="ID0.13050847593694925" fill="#DEDEDE" d="M 29.06 26.63 C 29.99 26.63 30.832 27.008 31.442 27.618 C 32.052 28.228 32.43 29.07 32.43 30 C 32.43 30.93 32.052 31.772 31.442 32.382 C 30.832 32.992 29.99 33.37 29.06 33.37 C 28.13 33.37 27.288 32.992 26.678 32.382 C 26.068 31.772 25.69 30.93 25.69 30 C 25.69 29.07 26.068 28.228 26.678 27.618 C 27.288 27.008 28.13 26.63 29.06 26.63 Z " stroke-width="1"/>
    <path id="ID0.33773002680391073" fill="#DEDEDE" d="M 51.79 26.63 C 52.72 26.63 53.562 27.008 54.172 27.618 C 54.782 28.228 55.16 29.07 55.16 30 C 55.16 30.93 54.782 31.772 54.172 32.382 C 53.562 32.992 52.72 33.37 51.79 33.37 C 50.86 33.37 50.018 32.992 49.408 32.382 C 48.798 31.772 48.42 30.93 48.42 30 C 48.42 29.07 48.798 28.228 49.408 27.618 C 50.018 27.008 50.86 26.63 51.79 26.63 Z " stroke-width="1"/>
    <path id="ID0.22513504372909665" fill="#D4D4D4" d="M 29.06 49.7 C 29.99 49.7 30.832 50.078 31.442 50.688 C 32.052 51.298 32.43 52.14 32.43 53.07 C 32.43 54 32.052 54.842 31.442 55.452 C 30.832 56.062 29.99 56.44 29.06 56.44 C 28.13 56.44 27.288 56.062 26.678 55.452 C 26.068 54.842 25.69 54 25.69 53.07 C 25.69 52.14 26.068 51.298 26.678 50.688 C 27.288 50.078 28.13 49.7 29.06 49.7 Z " stroke-width="1"/>
    <path id="ID0.14403152000159025" fill="#D4D4D4" d="M 51.79 49.7 C 52.72 49.7 53.562 50.078 54.172 50.688 C 54.782 51.298 55.16 52.14 55.16 53.07 C 55.16 54 54.782 54.842 54.172 55.452 C 53.562 56.062 52.72 56.44 51.79 56.44 C 50.86 56.44 50.018 56.062 49.408 55.452 C 48.798 54.842 48.42 54 48.42 53.07 C 48.42 52.14 48.798 51.298 49.408 50.688 C 50.018 50.078 50.86 49.7 51.79 49.7 Z " stroke-width="1"/>
    <path id="ID0.14449769724160433_100_" fill="#ADADAD" stroke="#000000" stroke-width="2" d="M 113.56 45.88 L 113.75 57.47 C 113.75 61.88 110.27 65.56 105.94 65.56 L 97.65 66.03 L 72.34 66.03 C 68.02 66.03 65.55 62.21 65.55 57.81 L 65.26 48.99 L 65.55 25.9 C 65.84 21.58 69.28 17.71 73.62 17.71 L 90.53 18.12 L 105.72 17.58 C 110.04 17.58 113.75 21.37 113.75 25.78 L 113.56 45.88 Z "/>
    <path id="ID0.14449769724160433_99_" fill="#DEDEDE" d="M 109.73 44.46 L 109.9 54.64 C 109.9 58.51 106.84 61.75 103.03 61.75 L 95.74 62.17 L 73.48 62.17 C 69.69 62.17 67.51 58.82 67.51 54.94 L 67.25 47.19 L 67.51 26.9 C 67.76 23.1 70.79 19.7 74.61 19.7 L 89.48 20.06 L 102.84 19.58 C 106.63 19.58 109.9 22.91 109.9 26.79 L 109.73 44.46 Z " stroke-width="1"/>
    <path id="ID0.14449769724160433_98_" fill="#F0F0F0" d="M 103.16 41.12 L 81.88 53.03 L 78.03 53.03 C 74.67 53.03 71.92 50.83 71.92 48.1 L 71.69 42.82 L 71.92 28.56 C 71.92 25.84 74.65 23.63 78.03 23.63 L 92.29 24.1 L 97.05 23.63 C 100.41 23.63 103.16 25.83 103.16 28.56 L 103.16 41.12 Z " stroke-width="1"/>
    <path id="ID0.9893293711356819" fill="#DEDEDE" d="M 77.06 26.63 C 77.99 26.63 78.832 27.008 79.442 27.618 C 80.052 28.228 80.43 29.07 80.43 30 C 80.43 30.93 80.052 31.772 79.442 32.382 C 78.832 32.992 77.99 33.37 77.06 33.37 C 76.13 33.37 75.288 32.992 74.678 32.382 C 74.068 31.772 73.69 30.93 73.69 30 C 73.69 29.07 74.068 28.228 74.678 27.618 C 75.288 27.008 76.13 26.63 77.06 26.63 Z " stroke-width="1"/>
    <path id="ID0.33681026427075267" fill="#DEDEDE" d="M 99.79 26.63 C 100.72 26.63 101.562 27.008 102.172 27.618 C 102.782 28.228 103.16 29.07 103.16 30 C 103.16 30.93 102.782 31.772 102.172 32.382 C 101.562 32.992 100.72 33.37 99.79 33.37 C 98.86 33.37 98.018 32.992 97.408 32.382 C 96.798 31.772 96.42 30.93 96.42 30 C 96.42 29.07 96.798 28.228 97.408 27.618 C 98.018 27.008 98.86 26.63 99.79 26.63 Z " stroke-width="1"/>
    <path id="ID0.5978538380004466" fill="#D4D4D4" d="M 77.06 49.7 C 77.99 49.7 78.832 50.078 79.442 50.688 C 80.052 51.298 80.43 52.14 80.43 53.07 C 80.43 54 80.052 54.842 79.442 55.452 C 78.832 56.062 77.99 56.44 77.06 56.44 C 76.13 56.44 75.288 56.062 74.678 55.452 C 74.068 54.842 73.69 54 73.69 53.07 C 73.69 52.14 74.068 51.298 74.678 50.688 C 75.288 50.078 76.13 49.7 77.06 49.7 Z " stroke-width="1"/>
    <path id="ID0.05019973823800683" fill="#D4D4D4" d="M 99.79 49.7 C 100.72 49.7 101.562 50.078 102.172 50.688 C 102.782 51.298 103.16 52.14 103.16 53.07 C 103.16 54 102.782 54.842 102.172 55.452 C 101.562 56.062 100.72 56.44 99.79 56.44 C 98.86 56.44 98.018 56.062 97.408 55.452 C 96.798 54.842 96.42 54 96.42 53.07 C 96.42 52.14 96.798 51.298 97.408 50.688 C 98.018 50.078 98.86 49.7 99.79 49.7 Z " stroke-width="1"/>
    <path id="ID0.14449769724160433_97_" fill="#ADADAD" stroke="#000000" stroke-width="2" d="M 65.55 93.88 L 65.74 105.47 C 65.74 109.88 62.26 113.56 57.93 113.56 L 49.64 114.03 L 24.34 114.03 C 20.02 114.03 17.55 110.21 17.55 105.81 L 17.26 96.99 L 17.55 73.9 C 17.84 69.58 21.28 65.71 25.62 65.71 L 42.53 66.12 L 57.72 65.58 C 62.04 65.58 65.75 69.37 65.75 73.78 L 65.55 93.88 Z "/>
    <path id="ID0.14449769724160433_96_" fill="#DEDEDE" d="M 61.73 92.46 L 61.9 102.64 C 61.9 106.51 58.84 109.75 55.03 109.75 L 47.74 110.17 L 25.48 110.17 C 21.69 110.17 19.51 106.82 19.51 102.94 L 19.25 95.19 L 19.51 74.9 C 19.76 71.1 22.79 67.7 26.61 67.7 L 41.48 68.06 L 54.84 67.58 C 58.63 67.58 61.9 70.91 61.9 74.79 L 61.73 92.46 Z " stroke-width="1"/>
    <path id="ID0.14449769724160433_95_" fill="#F0F0F0" d="M 55.16 89.12 L 33.88 101.03 L 30.03 101.03 C 26.67 101.03 23.92 98.83 23.92 96.1 L 23.69 90.82 L 23.92 76.56 C 23.92 73.84 26.65 71.63 30.03 71.63 L 44.29 72.1 L 49.05 71.63 C 52.41 71.63 55.16 73.83 55.16 76.56 L 55.16 89.12 Z " stroke-width="1"/>
    <path id="ID0.7624611090868711" fill="#DEDEDE" d="M 29.06 74.63 C 29.99 74.63 30.832 75.008 31.442 75.618 C 32.052 76.228 32.43 77.07 32.43 78 C 32.43 78.93 32.052 79.772 31.442 80.382 C 30.832 80.992 29.99 81.37 29.06 81.37 C 28.13 81.37 27.288 80.992 26.678 80.382 C 26.068 79.772 25.69 78.93 25.69 78 C 25.69 77.07 26.068 76.228 26.678 75.618 C 27.288 75.008 28.13 74.63 29.06 74.63 Z " stroke-width="1"/>
    <path id="ID0.5551947564817965" fill="#DEDEDE" d="M 51.79 74.63 C 52.72 74.63 53.562 75.008 54.172 75.618 C 54.782 76.228 55.16 77.07 55.16 78 C 55.16 78.93 54.782 79.772 54.172 80.382 C 53.562 80.992 52.72 81.37 51.79 81.37 C 50.86 81.37 50.018 80.992 49.408 80.382 C 48.798 79.772 48.42 78.93 48.42 78 C 48.42 77.07 48.798 76.228 49.408 75.618 C 50.018 75.008 50.86 74.63 51.79 74.63 Z " stroke-width="1"/>
    <path id="ID0.9115212582983077" fill="#D4D4D4" d="M 29.06 97.7 C 29.99 97.7 30.832 98.078 31.442 98.688 C 32.052 99.298 32.43 100.14 32.43 101.07 C 32.43 102 32.052 102.842 31.442 103.452 C 30.832 104.062 29.99 104.44 29.06 104.44 C 28.13 104.44 27.288 104.062 26.678 103.452 C 26.068 102.842 25.69 102 25.69 101.07 C 25.69 100.14 26.068 99.298 26.678 98.688 C 27.288 98.078 28.13 97.7 29.06 97.7 Z " stroke-width="1"/>
    <path id="ID0.4387034927494824" fill="#D4D4D4" d="M 51.79 97.7 C 52.72 97.7 53.562 98.078 54.172 98.688 C 54.782 99.298 55.16 100.14 55.16 101.07 C 55.16 102 54.782 102.842 54.172 103.452 C 53.562 104.062 52.72 104.44 51.79 104.44 C 50.86 104.44 50.018 104.062 49.408 103.452 C 48.798 102.842 48.42 102 48.42 101.07 C 48.42 100.14 48.798 99.298 49.408 98.688 C 50.018 98.078 50.86 97.7 51.79 97.7 Z " stroke-width="1"/>
    <path id="ID0.14449769724160433_94_" fill="#ADADAD" stroke="#000000" stroke-width="2" d="M 113.56 93.88 L 113.75 105.47 C 113.75 109.88 110.27 113.56 105.94 113.56 L 97.65 114.03 L 72.34 114.03 C 68.02 114.03 65.55 110.21 65.55 105.81 L 65.26 96.99 L 65.55 73.9 C 65.84 69.58 69.28 65.71 73.62 65.71 L 90.53 66.12 L 105.72 65.58 C 110.04 65.58 113.75 69.37 113.75 73.78 L 113.56 93.88 Z "/>
    <path id="ID0.14449769724160433_93_" fill="#DEDEDE" d="M 109.73 92.46 L 109.9 102.64 C 109.9 106.51 106.84 109.75 103.03 109.75 L 95.74 110.17 L 73.48 110.17 C 69.69 110.17 67.51 106.82 67.51 102.94 L 67.25 95.19 L 67.51 74.9 C 67.76 71.1 70.79 67.7 74.61 67.7 L 89.48 68.06 L 102.84 67.58 C 106.63 67.58 109.9 70.91 109.9 74.79 L 109.73 92.46 Z " stroke-width="1"/>
    <path id="ID0.14449769724160433_92_" fill="#F0F0F0" d="M 103.16 89.12 L 81.88 101.03 L 78.03 101.03 C 74.67 101.03 71.92 98.83 71.92 96.1 L 71.69 90.82 L 71.92 76.56 C 71.92 73.84 74.65 71.63 78.03 71.63 L 92.29 72.1 L 97.05 71.63 C 100.41 71.63 103.16 73.83 103.16 76.56 L 103.16 89.12 Z " stroke-width="1"/>
    <path id="ID0.7639661263674498" fill="#DEDEDE" d="M 77.06 74.63 C 77.99 74.63 78.832 75.008 79.442 75.618 C 80.052 76.228 80.43 77.07 80.43 78 C 80.43 78.93 80.052 79.772 79.442 80.382 C 78.832 80.992 77.99 81.37 77.06 81.37 C 76.13 81.37 75.288 80.992 74.678 80.382 C 74.068 79.772 73.69 78.93 73.69 78 C 73.69 77.07 74.068 76.228 74.678 75.618 C 75.288 75.008 76.13 74.63 77.06 74.63 Z " stroke-width="1"/>
    <path id="ID0.30962352361530066" fill="#DEDEDE" d="M 99.79 74.63 C 100.72 74.63 101.562 75.008 102.172 75.618 C 102.782 76.228 103.16 77.07 103.16 78 C 103.16 78.93 102.782 79.772 102.172 80.382 C 101.562 80.992 100.72 81.37 99.79 81.37 C 98.86 81.37 98.018 80.992 97.408 80.382 C 96.798 79.772 96.42 78.93 96.42 78 C 96.42 77.07 96.798 76.228 97.408 75.618 C 98.018 75.008 98.86 74.63 99.79 74.63 Z " stroke-width="1"/>
    <path id="ID0.9903994691558182" fill="#D4D4D4" d="M 77.06 97.7 C 77.99 97.7 78.832 98.078 79.442 98.688 C 80.052 99.298 80.43 100.14 80.43 101.07 C 80.43 102 80.052 102.842 79.442 103.452 C 78.832 104.062 77.99 104.44 77.06 104.44 C 76.13 104.44 75.288 104.062 74.678 103.452 C 74.068 102.842 73.69 102 73.69 101.07 C 73.69 100.14 74.068 99.298 74.678 98.688 C 75.288 98.078 76.13 97.7 77.06 97.7 Z " stroke-width="1"/>
    <path id="ID0.9760546796023846" fill="#D4D4D4" d="M 99.79 97.7 C 100.72 97.7 101.562 98.078 102.172 98.688 C 102.782 99.298 103.16 100.14 103.16 101.07 C 103.16 102 102.782 102.842 102.172 103.452 C 101.562 104.062 100.72 104.44 99.79 104.44 C 98.86 104.44 98.018 104.062 97.408 103.452 C 96.798 102.842 96.42 102 96.42 101.07 C 96.42 100.14 96.798 99.298 97.408 98.688 C 98.018 98.078 98.86 97.7 99.79 97.7 Z " stroke-width="1"/>
    <path id="ID0.14449769724160433_91_" fill="#ADADAD" stroke="#000000" stroke-width="2" d="M 65.55 141.88 L 65.74 153.47 C 65.74 157.88 62.26 161.56 57.93 161.56 L 49.64 162.03 L 24.34 162.03 C 20.02 162.03 17.55 158.21 17.55 153.81 L 17.26 144.99 L 17.55 121.9 C 17.84 117.58 21.28 113.71 25.62 113.71 L 42.53 114.12 L 57.72 113.58 C 62.04 113.58 65.75 117.37 65.75 121.78 L 65.55 141.88 Z "/>
    <path id="ID0.14449769724160433_90_" fill="#DEDEDE" d="M 61.73 140.46 L 61.9 150.64 C 61.9 154.51 58.84 157.75 55.03 157.75 L 47.74 158.17 L 25.48 158.17 C 21.69 158.17 19.51 154.82 19.51 150.94 L 19.25 143.19 L 19.51 122.9 C 19.76 119.1 22.79 115.7 26.61 115.7 L 41.48 116.06 L 54.84 115.58 C 58.63 115.58 61.9 118.91 61.9 122.79 L 61.73 140.46 Z " stroke-width="1"/>
    <path id="ID0.14449769724160433_89_" fill="#F0F0F0" d="M 55.16 137.12 L 33.88 149.03 L 30.03 149.03 C 26.67 149.03 23.92 146.83 23.92 144.1 L 23.69 138.82 L 23.92 124.56 C 23.92 121.84 26.65 119.63 30.03 119.63 L 44.29 120.1 L 49.05 119.63 C 52.41 119.63 55.16 121.83 55.16 124.56 L 55.16 137.12 Z " stroke-width="1"/>
    <path id="ID0.3773573669604957" fill="#DEDEDE" d="M 29.06 122.63 C 29.99 122.63 30.832 123.008 31.442 123.618 C 32.052 124.228 32.43 125.07 32.43 126 C 32.43 126.93 32.052 127.772 31.442 128.382 C 30.832 128.992 29.99 129.37 29.06 129.37 C 28.13 129.37 27.288 128.992 26.678 128.382 C 26.068 127.772 25.69 126.93 25.69 126 C 25.69 125.07 26.068 124.228 26.678 123.618 C 27.288 123.008 28.13 122.63 29.06 122.63 Z " stroke-width="1"/>
    <path id="ID0.5147486752830446" fill="#DEDEDE" d="M 51.79 122.63 C 52.72 122.63 53.562 123.008 54.172 123.618 C 54.782 124.228 55.16 125.07 55.16 126 C 55.16 126.93 54.782 127.772 54.172 128.382 C 53.562 128.992 52.72 129.37 51.79 129.37 C 50.86 129.37 50.018 128.992 49.408 128.382 C 48.798 127.772 48.42 126.93 48.42 126 C 48.42 125.07 48.798 124.228 49.408 123.618 C 50.018 123.008 50.86 122.63 51.79 122.63 Z " stroke-width="1"/>
    <path id="ID0.5276098493486643" fill="#D4D4D4" d="M 29.06 145.7 C 29.99 145.7 30.832 146.078 31.442 146.688 C 32.052 147.298 32.43 148.14 32.43 149.07 C 32.43 150 32.052 150.842 31.442 151.452 C 30.832 152.062 29.99 152.44 29.06 152.44 C 28.13 152.44 27.288 152.062 26.678 151.452 C 26.068 150.842 25.69 150 25.69 149.07 C 25.69 148.14 26.068 147.298 26.678 146.688 C 27.288 146.078 28.13 145.7 29.06 145.7 Z " stroke-width="1"/>
    <path id="ID0.724969991017133" fill="#D4D4D4" d="M 51.79 145.7 C 52.72 145.7 53.562 146.078 54.172 146.688 C 54.782 147.298 55.16 148.14 55.16 149.07 C 55.16 150 54.782 150.842 54.172 151.452 C 53.562 152.062 52.72 152.44 51.79 152.44 C 50.86 152.44 50.018 152.062 49.408 151.452 C 48.798 150.842 48.42 150 48.42 149.07 C 48.42 148.14 48.798 147.298 49.408 146.688 C 50.018 146.078 50.86 145.7 51.79 145.7 Z " stroke-width="1"/>
    <path id="ID0.14449769724160433_88_" fill="#ADADAD" stroke="#000000" stroke-width="2" d="M 113.56 141.88 L 113.75 153.47 C 113.75 157.88 110.27 161.56 105.94 161.56 L 97.65 162.03 L 72.34 162.03 C 68.02 162.03 65.55 158.21 65.55 153.81 L 65.26 144.99 L 65.55 121.9 C 65.84 117.58 69.28 113.71 73.62 113.71 L 90.53 114.12 L 105.72 113.58 C 110.04 113.58 113.75 117.37 113.75 121.78 L 113.56 141.88 Z "/>
    <path id="ID0.14449769724160433_87_" fill="#DEDEDE" d="M 109.73 140.46 L 109.9 150.64 C 109.9 154.51 106.84 157.75 103.03 157.75 L 95.74 158.17 L 73.48 158.17 C 69.69 158.17 67.51 154.82 67.51 150.94 L 67.25 143.19 L 67.51 122.9 C 67.76 119.1 70.79 115.7 74.61 115.7 L 89.48 116.06 L 102.84 115.58 C 106.63 115.58 109.9 118.91 109.9 122.79 L 109.73 140.46 Z " stroke-width="1"/>
    <path id="ID0.14449769724160433_86_" fill="#F0F0F0" d="M 103.16 137.12 L 81.88 149.03 L 78.03 149.03 C 74.67 149.03 71.92 146.83 71.92 144.1 L 71.69 138.82 L 71.92 124.56 C 71.92 121.84 74.65 119.63 78.03 119.63 L 92.29 120.1 L 97.05 119.63 C 100.41 119.63 103.16 121.83 103.16 124.56 L 103.16 137.12 Z " stroke-width="1"/>
    <path id="ID0.4496892443858087" fill="#DEDEDE" d="M 77.06 122.63 C 77.99 122.63 78.832 123.008 79.442 123.618 C 80.052 124.228 80.43 125.07 80.43 126 C 80.43 126.93 80.052 127.772 79.442 128.382 C 78.832 128.992 77.99 129.37 77.06 129.37 C 76.13 129.37 75.288 128.992 74.678 128.382 C 74.068 127.772 73.69 126.93 73.69 126 C 73.69 125.07 74.068 124.228 74.678 123.618 C 75.288 123.008 76.13 122.63 77.06 122.63 Z " stroke-width="1"/>
    <path id="ID0.4605189128778875" fill="#DEDEDE" d="M 99.79 122.63 C 100.72 122.63 101.562 123.008 102.172 123.618 C 102.782 124.228 103.16 125.07 103.16 126 C 103.16 126.93 102.782 127.772 102.172 128.382 C 101.562 128.992 100.72 129.37 99.79 129.37 C 98.86 129.37 98.018 128.992 97.408 128.382 C 96.798 127.772 96.42 126.93 96.42 126 C 96.42 125.07 96.798 124.228 97.408 123.618 C 98.018 123.008 98.86 122.63 99.79 122.63 Z " stroke-width="1"/>
    <path id="ID0.6722796666435897" fill="#D4D4D4" d="M 77.06 145.7 C 77.99 145.7 78.832 146.078 79.442 146.688 C 80.052 147.298 80.43 148.14 80.43 149.07 C 80.43 150 80.052 150.842 79.442 151.452 C 78.832 152.062 77.99 152.44 77.06 152.44 C 76.13 152.44 75.288 152.062 74.678 151.452 C 74.068 150.842 73.69 150 73.69 149.07 C 73.69 148.14 74.068 147.298 74.678 146.688 C 75.288 146.078 76.13 145.7 77.06 145.7 Z " stroke-width="1"/>
    <path id="ID0.7237685127183795" fill="#D4D4D4" d="M 99.79 145.7 C 100.72 145.7 101.562 146.078 102.172 146.688 C 102.782 147.298 103.16 148.14 103.16 149.07 C 103.16 150 102.782 150.842 102.172 151.452 C 101.562 152.062 100.72 152.44 99.79 152.44 C 98.86 152.44 98.018 152.062 97.408 151.452 C 96.798 150.842 96.42 150 96.42 149.07 C 96.42 148.14 96.798 147.298 97.408 146.688 C 98.018 146.078 98.86 145.7 99.79 145.7 Z " stroke-width="1"/>
    <path id="ID0.14449769724160433_85_" fill="#ADADAD" stroke="#000000" stroke-width="2" d="M 65.55 189.88 L 65.74 201.47 C 65.74 205.88 62.26 209.56 57.93 209.56 L 49.64 210.03 L 24.34 210.03 C 20.02 210.03 17.55 206.21 17.55 201.81 L 17.26 192.99 L 17.55 169.9 C 17.84 165.58 21.28 161.71 25.62 161.71 L 42.53 162.12 L 57.72 161.58 C 62.04 161.58 65.75 165.37 65.75 169.78 L 65.55 189.88 Z "/>
    <path id="ID0.14449769724160433_84_" fill="#DEDEDE" d="M 61.73 188.46 L 61.9 198.64 C 61.9 202.51 58.84 205.75 55.03 205.75 L 47.74 206.17 L 25.48 206.17 C 21.69 206.17 19.51 202.82 19.51 198.94 L 19.25 191.19 L 19.51 170.9 C 19.76 167.1 22.79 163.7 26.61 163.7 L 41.48 164.06 L 54.84 163.58 C 58.63 163.58 61.9 166.91 61.9 170.79 L 61.73 188.46 Z " stroke-width="1"/>
    <path id="ID0.14449769724160433_83_" fill="#F0F0F0" d="M 55.16 185.12 L 33.88 197.03 L 30.03 197.03 C 26.67 197.03 23.92 194.83 23.92 192.1 L 23.69 186.82 L 23.92 172.56 C 23.92 169.84 26.65 167.63 30.03 167.63 L 44.29 168.1 L 49.05 167.63 C 52.41 167.63 55.16 169.83 55.16 172.56 L 55.16 185.12 Z " stroke-width="1"/>
    <path id="ID0.47306347312405705" fill="#DEDEDE" d="M 29.06 170.63 C 29.99 170.63 30.832 171.008 31.442 171.618 C 32.052 172.228 32.43 173.07 32.43 174 C 32.43 174.93 32.052 175.772 31.442 176.382 C 30.832 176.992 29.99 177.37 29.06 177.37 C 28.13 177.37 27.288 176.992 26.678 176.382 C 26.068 175.772 25.69 174.93 25.69 174 C 25.69 173.07 26.068 172.228 26.678 171.618 C 27.288 171.008 28.13 170.63 29.06 170.63 Z " stroke-width="1"/>
    <path id="ID0.1681851581670344" fill="#DEDEDE" d="M 51.79 170.63 C 52.72 170.63 53.562 171.008 54.172 171.618 C 54.782 172.228 55.16 173.07 55.16 174 C 55.16 174.93 54.782 175.772 54.172 176.382 C 53.562 176.992 52.72 177.37 51.79 177.37 C 50.86 177.37 50.018 176.992 49.408 176.382 C 48.798 175.772 48.42 174.93 48.42 174 C 48.42 173.07 48.798 172.228 49.408 171.618 C 50.018 171.008 50.86 170.63 51.79 170.63 Z " stroke-width="1"/>
    <path id="ID0.26017030188813806" fill="#D4D4D4" d="M 29.06 193.7 C 29.99 193.7 30.832 194.078 31.442 194.688 C 32.052 195.298 32.43 196.14 32.43 197.07 C 32.43 198 32.052 198.842 31.442 199.452 C 30.832 200.062 29.99 200.44 29.06 200.44 C 28.13 200.44 27.288 200.062 26.678 199.452 C 26.068 198.842 25.69 198 25.69 197.07 C 25.69 196.14 26.068 195.298 26.678 194.688 C 27.288 194.078 28.13 193.7 29.06 193.7 Z " stroke-width="1"/>
    <path id="ID0.16041613323614" fill="#D4D4D4" d="M 51.79 193.7 C 52.72 193.7 53.562 194.078 54.172 194.688 C 54.782 195.298 55.16 196.14 55.16 197.07 C 55.16 198 54.782 198.842 54.172 199.452 C 53.562 200.062 52.72 200.44 51.79 200.44 C 50.86 200.44 50.018 200.062 49.408 199.452 C 48.798 198.842 48.42 198 48.42 197.07 C 48.42 196.14 48.798 195.298 49.408 194.688 C 50.018 194.078 50.86 193.7 51.79 193.7 Z " stroke-width="1"/>
    <path id="ID0.14449769724160433_82_" fill="#ADADAD" stroke="#000000" stroke-width="2" d="M 113.56 189.88 L 113.75 201.47 C 113.75 205.88 110.27 209.56 105.94 209.56 L 97.65 210.03 L 72.34 210.03 C 68.02 210.03 65.55 206.21 65.55 201.81 L 65.26 192.99 L 65.55 169.9 C 65.84 165.58 69.28 161.71 73.62 161.71 L 90.53 162.12 L 105.72 161.58 C 110.04 161.58 113.75 165.37 113.75 169.78 L 113.56 189.88 Z "/>
    <path id="ID0.14449769724160433_81_" fill="#DEDEDE" d="M 109.73 188.46 L 109.9 198.64 C 109.9 202.51 106.84 205.75 103.03 205.75 L 95.74 206.17 L 73.48 206.17 C 69.69 206.17 67.51 202.82 67.51 198.94 L 67.25 191.19 L 67.51 170.9 C 67.76 167.1 70.79 163.7 74.61 163.7 L 89.48 164.06 L 102.84 163.58 C 106.63 163.58 109.9 166.91 109.9 170.79 L 109.73 188.46 Z " stroke-width="1"/>
    <path id="ID0.14449769724160433_80_" fill="#F0F0F0" d="M 103.16 185.12 L 81.88 197.03 L 78.03 197.03 C 74.67 197.03 71.92 194.83 71.92 192.1 L 71.69 186.82 L 71.92 172.56 C 71.92 169.84 74.65 167.63 78.03 167.63 L 92.29 168.1 L 97.05 167.63 C 100.41 167.63 103.16 169.83 103.16 172.56 L 103.16 185.12 Z " stroke-width="1"/>
    <path id="ID0.40285907685756683" fill="#DEDEDE" d="M 77.06 170.63 C 77.99 170.63 78.832 171.008 79.442 171.618 C 80.052 172.228 80.43 173.07 80.43 174 C 80.43 174.93 80.052 175.772 79.442 176.382 C 78.832 176.992 77.99 177.37 77.06 177.37 C 76.13 177.37 75.288 176.992 74.678 176.382 C 74.068 175.772 73.69 174.93 73.69 174 C 73.69 173.07 74.068 172.228 74.678 171.618 C 75.288 171.008 76.13 170.63 77.06 170.63 Z " stroke-width="1"/>
    <path id="ID0.6059956992976367" fill="#DEDEDE" d="M 99.79 170.63 C 100.72 170.63 101.562 171.008 102.172 171.618 C 102.782 172.228 103.16 173.07 103.16 174 C 103.16 174.93 102.782 175.772 102.172 176.382 C 101.562 176.992 100.72 177.37 99.79 177.37 C 98.86 177.37 98.018 176.992 97.408 176.382 C 96.798 175.772 96.42 174.93 96.42 174 C 96.42 173.07 96.798 172.228 97.408 171.618 C 98.018 171.008 98.86 170.63 99.79 170.63 Z " stroke-width="1"/>
    <path id="ID0.16264403611421585" fill="#D4D4D4" d="M 77.06 193.7 C 77.99 193.7 78.832 194.078 79.442 194.688 C 80.052 195.298 80.43 196.14 80.43 197.07 C 80.43 198 80.052 198.842 79.442 199.452 C 78.832 200.062 77.99 200.44 77.06 200.44 C 76.13 200.44 75.288 200.062 74.678 199.452 C 74.068 198.842 73.69 198 73.69 197.07 C 73.69 196.14 74.068 195.298 74.678 194.688 C 75.288 194.078 76.13 193.7 77.06 193.7 Z " stroke-width="1"/>
    <path id="ID0.5112976087257266" fill="#D4D4D4" d="M 99.79 193.7 C 100.72 193.7 101.562 194.078 102.172 194.688 C 102.782 195.298 103.16 196.14 103.16 197.07 C 103.16 198 102.782 198.842 102.172 199.452 C 101.562 200.062 100.72 200.44 99.79 200.44 C 98.86 200.44 98.018 200.062 97.408 199.452 C 96.798 198.842 96.42 198 96.42 197.07 C 96.42 196.14 96.798 195.298 97.408 194.688 C 98.018 194.078 98.86 193.7 99.79 193.7 Z " stroke-width="1"/>
  </g>
</svg>