<svg version="1.1" xmlns="http://www.w3.org/2000/svg" xmlns:xlink="http://www.w3.org/1999/xlink" width="150.70786" height="131.30385" viewBox="0,0,150.70786,131.30385"><defs><linearGradient x1="141.06908" y1="232.96285" x2="141.06908" y2="263.18022" gradientUnits="userSpaceOnUse" id="color-1"><stop offset="0" stop-color="#00ffff"/><stop offset="1" stop-color="#66c0ff"/></linearGradient><linearGradient x1="258.59056" y1="159.62349" x2="258.59056" y2="171.39089" gradientUnits="userSpaceOnUse" id="color-2"><stop offset="0" stop-color="#ffffff"/><stop offset="1" stop-color="#ffffff" stop-opacity="0"/></linearGradient><linearGradient x1="258.87781" y1="159.4731" x2="258.87781" y2="170.40129" gradientUnits="userSpaceOnUse" id="color-3"><stop offset="0" stop-color="#ffffff"/><stop offset="1" stop-color="#ffffff" stop-opacity="0"/></linearGradient><linearGradient x1="256.44649" y1="160.62607" x2="256.44649" y2="171.61583" gradientUnits="userSpaceOnUse" id="color-4"><stop offset="0" stop-color="#ffffff"/><stop offset="1" stop-color="#ffffff" stop-opacity="0"/></linearGradient><linearGradient x1="258.05542" y1="159.92426" x2="258.05542" y2="171.13918" gradientUnits="userSpaceOnUse" id="color-5"><stop offset="0" stop-color="#ffffff"/><stop offset="1" stop-color="#ffffff" stop-opacity="0"/></linearGradient><linearGradient x1="260.43746" y1="160.72633" x2="260.43746" y2="170.83732" gradientUnits="userSpaceOnUse" id="color-6"><stop offset="0" stop-color="#ffffff"/><stop offset="1" stop-color="#ffffff" stop-opacity="0"/></linearGradient><linearGradient x1="264.71788" y1="161.82918" x2="264.71788" y2="168.59664" gradientUnits="userSpaceOnUse" id="color-7"><stop offset="0" stop-color="#ffffff"/><stop offset="1" stop-color="#ffffff" stop-opacity="0"/></linearGradient><linearGradient x1="265.11892" y1="161.07724" x2="265.11892" y2="167.54392" gradientUnits="userSpaceOnUse" id="color-8"><stop offset="0" stop-color="#ffffff"/><stop offset="1" stop-color="#ffffff" stop-opacity="0"/></linearGradient><linearGradient x1="246.67929" y1="177.07813" x2="259.53488" y2="177.07813" gradientUnits="userSpaceOnUse" id="color-9"><stop offset="0" stop-color="#ffffff"/><stop offset="1" stop-color="#ffffff" stop-opacity="0"/></linearGradient><linearGradient x1="246.51001" y1="176.10023" x2="259.22075" y2="176.10023" gradientUnits="userSpaceOnUse" id="color-10"><stop offset="0" stop-color="#ffffff"/><stop offset="1" stop-color="#ffffff" stop-opacity="0"/></linearGradient><linearGradient x1="247.56408" y1="177.55499" x2="257.77454" y2="177.55499" gradientUnits="userSpaceOnUse" id="color-11"><stop offset="0" stop-color="#ffffff"/><stop offset="1" stop-color="#ffffff" stop-opacity="0"/></linearGradient><linearGradient x1="246.9493" y1="175.85441" x2="258.15581" y2="175.85441" gradientUnits="userSpaceOnUse" id="color-12"><stop offset="0" stop-color="#ffffff"/><stop offset="1" stop-color="#ffffff" stop-opacity="0"/></linearGradient><linearGradient x1="247.76453" y1="173.58708" x2="258.79056" y2="173.58708" gradientUnits="userSpaceOnUse" id="color-13"><stop offset="0" stop-color="#ffffff"/><stop offset="1" stop-color="#ffffff" stop-opacity="0"/></linearGradient><linearGradient x1="249.22683" y1="169.24844" x2="257.94138" y2="169.24844" gradientUnits="userSpaceOnUse" id="color-14"><stop offset="0" stop-color="#ffffff"/><stop offset="1" stop-color="#ffffff" stop-opacity="0"/></linearGradient><linearGradient x1="248.48326" y1="168.6523" x2="257.11061" y2="168.6523" gradientUnits="userSpaceOnUse" id="color-15"><stop offset="0" stop-color="#ffffff"/><stop offset="1" stop-color="#ffffff" stop-opacity="0"/></linearGradient><linearGradient x1="251.00617" y1="169.4793" x2="263.38322" y2="169.4793" gradientUnits="userSpaceOnUse" id="color-16"><stop offset="0" stop-color="#ffffff"/><stop offset="1" stop-color="#ffffff" stop-opacity="0"/></linearGradient><linearGradient x1="250.83689" y1="168.42712" x2="263.54763" y2="168.42712" gradientUnits="userSpaceOnUse" id="color-17"><stop offset="0" stop-color="#ffffff"/><stop offset="1" stop-color="#ffffff" stop-opacity="0"/></linearGradient><linearGradient x1="251.89096" y1="169.88187" x2="262.10142" y2="169.88187" gradientUnits="userSpaceOnUse" id="color-18"><stop offset="0" stop-color="#ffffff"/><stop offset="1" stop-color="#ffffff" stop-opacity="0"/></linearGradient><linearGradient x1="251.27618" y1="168.18129" x2="262.48269" y2="168.18129" gradientUnits="userSpaceOnUse" id="color-19"><stop offset="0" stop-color="#ffffff"/><stop offset="1" stop-color="#ffffff" stop-opacity="0"/></linearGradient><linearGradient x1="252.09142" y1="165.91397" x2="263.11744" y2="165.91397" gradientUnits="userSpaceOnUse" id="color-20"><stop offset="0" stop-color="#ffffff"/><stop offset="1" stop-color="#ffffff" stop-opacity="0"/></linearGradient><linearGradient x1="253.55371" y1="161.57533" x2="262.26826" y2="161.57533" gradientUnits="userSpaceOnUse" id="color-21"><stop offset="0" stop-color="#ffffff"/><stop offset="1" stop-color="#ffffff" stop-opacity="0"/></linearGradient><linearGradient x1="252.81014" y1="160.97918" x2="261.4375" y2="160.97918" gradientUnits="userSpaceOnUse" id="color-22"><stop offset="0" stop-color="#ffffff"/><stop offset="1" stop-color="#ffffff" stop-opacity="0"/></linearGradient><linearGradient x1="237.22159" y1="155.51007" x2="244.57466" y2="163.57887" gradientUnits="userSpaceOnUse" id="color-23"><stop offset="0" stop-color="#ffffff" stop-opacity="0"/><stop offset="1" stop-color="#ffffff"/></linearGradient><linearGradient x1="237.29687" y1="155.97562" x2="244.49294" y2="163.87214" gradientUnits="userSpaceOnUse" id="color-24"><stop offset="0" stop-color="#ffffff" stop-opacity="0"/><stop offset="1" stop-color="#ffffff"/></linearGradient><linearGradient x1="237.97485" y1="154.69216" x2="244.75705" y2="162.13452" gradientUnits="userSpaceOnUse" id="color-25"><stop offset="0" stop-color="#ffffff" stop-opacity="0"/><stop offset="1" stop-color="#ffffff"/></linearGradient><linearGradient x1="236.82721" y1="155.81827" x2="244.01319" y2="163.70371" gradientUnits="userSpaceOnUse" id="color-26"><stop offset="0" stop-color="#ffffff" stop-opacity="0"/><stop offset="1" stop-color="#ffffff"/></linearGradient><linearGradient x1="235.14784" y1="157.26178" x2="241.82841" y2="164.59262" gradientUnits="userSpaceOnUse" id="color-27"><stop offset="0" stop-color="#ffffff" stop-opacity="0"/><stop offset="1" stop-color="#ffffff"/></linearGradient><linearGradient x1="233.11385" y1="161.02913" x2="237.96135" y2="166.34847" gradientUnits="userSpaceOnUse" id="color-28"><stop offset="0" stop-color="#ffffff" stop-opacity="0"/><stop offset="1" stop-color="#ffffff"/></linearGradient><linearGradient x1="233.709" y1="162.12197" x2="238.24915" y2="167.10405" gradientUnits="userSpaceOnUse" id="color-29"><stop offset="0" stop-color="#ffffff" stop-opacity="0"/><stop offset="1" stop-color="#ffffff"/></linearGradient><linearGradient x1="187.88566" y1="180.24778" x2="199.18739" y2="180.24778" gradientUnits="userSpaceOnUse" id="color-30"><stop offset="0" stop-color="#ffffff" stop-opacity="0"/><stop offset="1" stop-color="#ffffff"/></linearGradient><linearGradient x1="187.73308" y1="180.71859" x2="199.34837" y2="180.71859" gradientUnits="userSpaceOnUse" id="color-31"><stop offset="0" stop-color="#ffffff" stop-opacity="0"/><stop offset="1" stop-color="#ffffff"/></linearGradient><linearGradient x1="188.7554" y1="178.75647" x2="198.23795" y2="178.75647" gradientUnits="userSpaceOnUse" id="color-32"><stop offset="0" stop-color="#ffffff" stop-opacity="0"/><stop offset="1" stop-color="#ffffff"/></linearGradient><linearGradient x1="188.13923" y1="180.23178" x2="198.90024" y2="180.23178" gradientUnits="userSpaceOnUse" id="color-33"><stop offset="0" stop-color="#ffffff" stop-opacity="0"/><stop offset="1" stop-color="#ffffff"/></linearGradient><linearGradient x1="187.82269" y1="182.46704" x2="198.08615" y2="182.46704" gradientUnits="userSpaceOnUse" id="color-34"><stop offset="0" stop-color="#ffffff" stop-opacity="0"/><stop offset="1" stop-color="#ffffff"/></linearGradient><linearGradient x1="188.99242" y1="186.86173" x2="196.79347" y2="186.86173" gradientUnits="userSpaceOnUse" id="color-35"><stop offset="0" stop-color="#ffffff" stop-opacity="0"/><stop offset="1" stop-color="#ffffff"/></linearGradient><linearGradient x1="189.93943" y1="187.3645" x2="197.54616" y2="187.3645" gradientUnits="userSpaceOnUse" id="color-36"><stop offset="0" stop-color="#ffffff" stop-opacity="0"/><stop offset="1" stop-color="#ffffff"/></linearGradient><linearGradient x1="228.93092" y1="131.87636" x2="228.93092" y2="162.09373" gradientUnits="userSpaceOnUse" id="color-37"><stop offset="0" stop-color="#ffffff"/><stop offset="1" stop-color="#ffffff" stop-opacity="0"/></linearGradient><linearGradient x1="250.02055" y1="168.56362" x2="240.00641" y2="180.06778" gradientUnits="userSpaceOnUse" id="color-38"><stop offset="0" stop-color="#ffffff"/><stop offset="1" stop-color="#ffffff" stop-opacity="0"/></linearGradient></defs><g transform="translate(-125.77425,-131.87636)"><g data-paper-data="{&quot;isPaintingLayer&quot;:true}" fill-rule="nonzero" stroke-linejoin="miter" stroke-miterlimit="10" stroke-dasharray="" stroke-dashoffset="0" style="mix-blend-mode: normal"><path d="M156.36391,248.07153c0,8.3443 -6.84773,15.10868 -15.29483,15.10868c-8.4471,0 -15.29483,-6.76439 -15.29483,-15.10868c0,-8.3443 6.84773,-15.10868 15.29483,-15.10868c8.4471,0 15.29483,6.76439 15.29483,15.10868z" fill="url(#color-1)" stroke="none" stroke-width="0" stroke-linecap="butt"/><g fill="none" stroke-width="12.5" stroke-linecap="round"><path d="M252.19476,171.39089l6.10657,-11.7674l6.68502,11.38364" stroke="url(#color-2)"/><path d="M249.82947,170.40129l8.3716,-10.92819l9.72509,10.77781" stroke="url(#color-3)"/><path d="M257.90029,160.62608l-2.9076,10.98975" stroke="url(#color-4)"/><path d="M258.20107,159.92426l-0.2913,11.21492" stroke="url(#color-5)"/><path d="M260.59613,170.82737l-2.24467,-10.10103l4.17201,10.11098" stroke="url(#color-6)"/><path d="M260.05585,161.82918l9.32406,6.76746" stroke="url(#color-7)"/><path d="M270.23211,167.54392l-10.22638,-6.46668" stroke="url(#color-8)"/></g><g fill="none" stroke-width="12.5" stroke-linecap="round"><path d="M257.99973,183.9255l-11.32044,-9.70339l12.85559,-3.99136" stroke="url(#color-9)"/><path d="M255.24242,184.92754l-8.73241,-10.64209l12.71074,-7.01253" stroke="url(#color-10)"/><path d="M257.77454,180.26887l-10.21046,-5.42776" stroke="url(#color-11)"/><path d="M258.15581,177.32054l-11.20651,-2.93225" stroke="url(#color-12)"/><path d="M258.39376,174.54459l-10.62922,-0.11992l11.02603,-1.79509" stroke="url(#color-13)"/><path d="M249.22683,173.01651l8.71455,-7.53613" stroke="url(#color-14)"/><path d="M248.48326,172.89393l8.62735,-8.48326" stroke="url(#color-15)"/></g><g fill="none" stroke-width="12.5" stroke-linecap="round"><path d="M262.32662,176.25238l-11.32044,-9.70339l12.37705,-3.84278" stroke="url(#color-16)"/><path d="M259.5693,177.25443l-8.73241,-10.64209l12.71074,-7.01253" stroke="url(#color-17)"/><path d="M251.89096,167.16799l10.21046,5.42776" stroke="url(#color-18)"/><path d="M262.48269,169.64742l-11.20651,-2.93225" stroke="url(#color-19)"/><path d="M262.72064,166.87147l-10.62922,-0.11992l11.02603,-1.79509" stroke="url(#color-20)"/><path d="M262.26826,157.80726l-8.71455,7.53613" stroke="url(#color-21)"/><path d="M252.81014,165.22081l8.62735,-8.48326" stroke="url(#color-22)"/></g><g fill="none" stroke-width="12.5" stroke-linecap="round"><path d="M241.71647,151.4139l1.78776,13.14044l-10.6864,-4.84811" stroke="url(#color-23)"/><path d="M244.22048,150.86418l-0.54767,13.75533l-12.70312,-2.87796" stroke="url(#color-24)"/><path d="M239.47741,153.32289l3.77708,10.18092" stroke="url(#color-25)"/><path d="M243.41292,164.25073l-5.98545,-8.97948" stroke="url(#color-26)"/><path d="M235.55841,157.06765l7.26953,6.6141l-8.67965,-5.50909" stroke="url(#color-27)"/><path d="M240.79946,163.76212l-10.52371,-0.14664" stroke="url(#color-28)"/><path d="M241.27359,164.34788l-10.58904,0.53026" stroke="url(#color-29)"/></g><g fill="none" stroke-width="12.5" stroke-linecap="round"><path d="M189.20111,174.38097l9.98628,6.75418l-11.30174,4.97943" stroke="url(#color-30)"/><path d="M190.13543,172.12507l9.21294,8.9279l-11.61529,8.25915" stroke="url(#color-31)"/><path d="M188.7554,176.89217l9.48256,3.72861" stroke="url(#color-32)"/><path d="M198.90024,181.00075l-10.76101,-1.53795" stroke="url(#color-33)"/><path d="M187.82269,182.11488l10.26347,-1.05757l-9.97942,2.81945" stroke="url(#color-34)"/><path d="M188.99242,191.10083l7.80105,-8.47821" stroke="url(#color-35)"/><path d="M197.54616,182.65986l-7.60673,9.40928" stroke="url(#color-36)"/></g><path d="M261.54534,163.94208c0,4.26359 -3.10845,7.71992 -6.94291,7.71992c-3.83446,0 -6.94291,-3.45632 -6.94291,-7.71992c0,-4.26359 3.10845,-7.71992 6.94291,-7.71992c3.83446,0 6.94291,3.45632 6.94291,7.71992z" fill="#c37700" stroke="none" stroke-width="0" stroke-linecap="butt"/><path d="M244.98439,173.28005c0,-0.49647 0.40246,-0.89893 0.89893,-0.89893c0.49647,0 0.89893,0.40246 0.89893,0.89893c0,0.49647 -0.40246,0.89893 -0.89893,0.89893c-0.49647,0 -0.89893,-0.40246 -0.89893,-0.89893z" fill="#000000" stroke="none" stroke-width="0.5" stroke-linecap="butt"/><path d="M245.38542,176.38807c0,-0.49647 0.40246,-0.89893 0.89893,-0.89893c0.49647,0 0.89893,0.40246 0.89893,0.89893c0,0.49647 -0.40246,0.89893 -0.89893,0.89893c-0.49647,0 -0.89893,-0.40246 -0.89893,-0.89893z" fill="#000000" stroke="none" stroke-width="0.5" stroke-linecap="butt"/><path d="M242.22727,174.73381c0,-0.49647 0.40246,-0.89893 0.89893,-0.89893c0.49647,0 0.89893,0.40246 0.89893,0.89893c0,0.49647 -0.40246,0.89893 -0.89893,0.89893c-0.49647,0 -0.89893,-0.40246 -0.89893,-0.89893z" fill="#000000" stroke="none" stroke-width="0.5" stroke-linecap="butt"/><path d="M225.24556,163.99543c0.13393,-0.07136 0.23611,-0.09013 0.33469,-0.08808c0.03647,-0.0045 0.07361,-0.00682 0.1113,-0.00682c0.10398,0 0.20384,0.01765 0.29674,0.05013c0.40021,0.01339 0.80103,0.01118 1.20131,0c0.45584,-0.01273 0.8914,-0.1072 1.33071,-0.18882c-0.07999,-0.71629 -0.20881,-1.43101 -0.34792,-2.12655c-0.01381,-0.06263 -0.0211,-0.12771 -0.0211,-0.1945c0,-0.12014 0.02357,-0.23478 0.06634,-0.33955c0.03333,-0.10657 0.08466,-0.20701 0.17424,-0.30228c0.37259,-0.39623 1.01657,-0.32004 1.34149,0.04683c0.25938,0.29286 0.24092,0.74512 0.30503,1.10259c0.11358,0.63328 0.20676,0.92722 0.25616,1.49857c0.00407,0.04703 0.00818,0.09419 0.01233,0.14147c0.47302,-0.00958 0.94844,0.00832 1.40018,0.06146c0.71549,0.08416 1.15222,0.72956 0.75847,1.41862c-0.32012,0.56021 -1.18566,0.38227 -1.69442,0.33311c-0.12538,-0.01212 -0.2292,-0.01064 -0.32522,-0.00335c0.04128,0.83835 0.03136,1.67764 -0.11389,2.47013c-0.07873,0.42953 0.05956,1.02985 -0.4112,1.29885c-0.1558,0.08903 -0.34025,0.14046 -0.51969,0.14046c-1.25262,0 -0.80863,-1.25986 -0.79867,-1.97591c0.00802,-0.57678 0.01103,-1.15369 0.00699,-1.73052c-0.12719,0.02195 -0.25752,0.04552 -0.39392,0.07029c-0.7227,0.13123 -1.6562,0.07419 -2.35141,0.07697c-0.12251,0.00049 -0.27223,-0.02937 -0.4207,-0.08482c-0.11235,-0.0322 -0.21569,-0.08571 -0.30537,-0.15589c-0.23206,-0.15707 -0.39783,-0.38248 -0.34359,-0.65049c-0.00122,-0.01913 -0.00183,-0.03843 -0.00183,-0.05786c0,-0.2653 0.11492,-0.50375 0.2977,-0.66829c0.0419,-0.05539 0.0922,-0.10214 0.15524,-0.13573z" fill="#000000" stroke="none" stroke-width="0.5" stroke-linecap="butt"/><path d="M244.22575,146.98504c0,8.3443 -6.84773,15.10868 -15.29483,15.10868c-8.4471,0 -15.29483,-6.76439 -15.29483,-15.10868c0,-8.3443 6.84773,-15.10868 15.29483,-15.10868c8.4471,0 15.29483,6.76439 15.29483,15.10868z" fill="url(#color-37)" stroke="none" stroke-width="0" stroke-linecap="butt"/><path d="M235.00116,166.18817c0.70935,-0.8149 1.20132,-0.83449 2.32889,-1.10563c3.26811,-0.78588 8.43405,0.13904 12.6905,3.48109c2.12092,1.66528 3.29067,3.60301 4.04255,5.219c1.27769,2.74607 0.95855,5.05075 -0.78232,7.05065c-1.11773,1.28404 -1.99848,2.03351 -4.11322,1.98443c-0.85068,-0.01974 -2.50796,-1.11749 -3.16531,-1.48248c-1.75148,-0.9725 -2.52148,-1.67872 -5.00164,-3.62607c-2.18376,-1.71463 -4.54114,-3.27386 -5.65508,-5.22567c-0.92009,-1.61216 -0.9906,-2.56568 -1.03774,-3.44036c-0.02568,-0.47651 0.37427,-2.16219 0.73888,-2.58105z" data-paper-data="{&quot;index&quot;:null}" fill="url(#color-38)" stroke="none" stroke-width="0" stroke-linecap="butt"/></g></g></svg>