<svg version="1.1" width="496" height="382" viewBox="-1 -1 496 382" xmlns="http://www.w3.org/2000/svg" xmlns:xlink="http://www.w3.org/1999/xlink">
  <!-- Exported by Scratch - http://scratch.mit.edu/ -->
  <path id="ID0.7573869917541742" fill="#99B2FF" stroke="none" d="M 1 36 L 480 36 L 480 315 L 1 315 L 1 36 Z " transform="matrix(1, 0, 0, 1.1756272315979004, 0, -55.3)"/>
  <path id="ID0.547040204051882" fill="#00FF55" stroke="none" d="M 30 258 L 480 258 L 480 360 L 30 360 L 30 258 Z " transform="matrix(1.0977777242660522, 0, 0, 1, -38.9, 7)"/>
  <path id="ID0.4915185943245888" fill="#B2B2B2" stroke="none" d="M 0 272 L 480 272 L 480 331 L 0 331 L 0 272 Z " transform="matrix(1, 0, 0, 1, 0, -7)"/>
  <path id="ID0.12495281919836998" fill="none" stroke="#FFFF00" stroke-width="2" stroke-linecap="round" d="M 18 284 L 62 284 "/>
  <path id="ID0.14829624770209193" fill="none" stroke="#FFFF00" stroke-width="2" stroke-linecap="round" d="M 82 282 L 131 282 " transform="matrix(1, 0, 0, 1, 0, 2)"/>
  <path id="ID0.169530576094985" fill="none" stroke="#FFFF00" stroke-width="2" stroke-linecap="round" d="M 144 290 L 191 290 "/>
</svg>