<svg version="1.1" xmlns="http://www.w3.org/2000/svg" xmlns:xlink="http://www.w3.org/1999/xlink" width="87.29038" height="207.0618" viewBox="0,0,87.29038,207.0618"><defs><linearGradient x1="231.84825" y1="223.86424" x2="231.84825" y2="272.5309" gradientUnits="userSpaceOnUse" id="color-1"><stop offset="0" stop-color="#213fff"/><stop offset="1" stop-color="#003580"/></linearGradient><linearGradient x1="251.18158" y1="224.19757" x2="251.18158" y2="272.86424" gradientUnits="userSpaceOnUse" id="color-2"><stop offset="0" stop-color="#213fff"/><stop offset="1" stop-color="#003580"/></linearGradient><linearGradient x1="241.37361" y1="165.28772" x2="241.37361" y2="231.20642" gradientUnits="userSpaceOnUse" id="color-3"><stop offset="0" stop-color="#00ffff"/><stop offset="1" stop-color="#00a1ab"/></linearGradient><linearGradient x1="241.36387" y1="95.21574" x2="241.36387" y2="173.1794" gradientUnits="userSpaceOnUse" id="color-4"><stop offset="0" stop-color="#ffe4ba"/><stop offset="1" stop-color="#ddb980"/></linearGradient><linearGradient x1="239.84062" y1="77.4691" x2="239.84062" y2="119.49912" gradientUnits="userSpaceOnUse" id="color-5"><stop offset="0" stop-color="#00ffff"/><stop offset="1" stop-color="#00a1ab"/></linearGradient><linearGradient x1="240.72145" y1="97.17903" x2="240.72145" y2="123.29164" gradientUnits="userSpaceOnUse" id="color-6"><stop offset="0" stop-color="#00ffff"/><stop offset="1" stop-color="#00a1ab"/></linearGradient><linearGradient x1="230.84825" y1="265.86424" x2="230.84825" y2="281.5309" gradientUnits="userSpaceOnUse" id="color-7"><stop offset="0" stop-color="#00e6ff"/><stop offset="1" stop-color="#0095c3"/></linearGradient><linearGradient x1="254.51491" y1="266.86424" x2="254.51491" y2="282.5309" gradientUnits="userSpaceOnUse" id="color-8"><stop offset="0" stop-color="#00e6ff"/><stop offset="1" stop-color="#0095c3"/></linearGradient><linearGradient x1="242.47601" y1="186.91503" x2="223.61364" y2="184.6323" gradientUnits="userSpaceOnUse" id="color-9"><stop offset="0" stop-color="#ffe4ba"/><stop offset="1" stop-color="#ddb980"/></linearGradient><linearGradient x1="279.32814" y1="190.36761" x2="238.62513" y2="185.4417" gradientUnits="userSpaceOnUse" id="color-10"><stop offset="0" stop-color="#00ffff"/><stop offset="1" stop-color="#00a1ab"/></linearGradient><linearGradient x1="242.57782" y1="186.76735" x2="236.45582" y2="186.02646" gradientUnits="userSpaceOnUse" id="color-11"><stop offset="0" stop-color="#00ffff"/><stop offset="1" stop-color="#00a1ab"/></linearGradient><linearGradient x1="208.73055" y1="183.82454" x2="249.72786" y2="184.29411" gradientUnits="userSpaceOnUse" id="color-12"><stop offset="0" stop-color="#00ffff"/><stop offset="1" stop-color="#00a1ab"/></linearGradient><linearGradient x1="243.89682" y1="184.06064" x2="262.89557" y2="184.27826" gradientUnits="userSpaceOnUse" id="color-13"><stop offset="0" stop-color="#ffe4ba"/><stop offset="1" stop-color="#ddb980"/></linearGradient><linearGradient x1="243.63547" y1="185.04991" x2="249.80173" y2="185.12054" gradientUnits="userSpaceOnUse" id="color-14"><stop offset="0" stop-color="#00ffff"/><stop offset="1" stop-color="#00a1ab"/></linearGradient></defs><g transform="translate(-196.35481,-76.4691)"><g data-paper-data="{&quot;isPaintingLayer&quot;:true}" fill-rule="nonzero" stroke-linejoin="miter" stroke-miterlimit="10" stroke-dasharray="" stroke-dashoffset="0" style="mix-blend-mode: normal"><path d="M223.18158,272.5309v-48.66667h17.33334v48.66667z" fill="url(#color-1)" stroke="#000000" stroke-width="2" stroke-linecap="butt"/><path d="M242.51491,272.86424v-48.66667h17.33333v48.66667z" fill="url(#color-2)" stroke="#000000" stroke-width="2" stroke-linecap="butt"/><path d="M222.3207,231.20642v-65.91871h38.10583v65.91871z" fill="url(#color-3)" stroke="#000000" stroke-width="2" stroke-linecap="butt"/><path d="M241.36387,173.1794c-22.79904,0 -41.28132,-17.45276 -41.28132,-38.98183c0,-21.52907 18.48228,-38.98183 41.28132,-38.98183c22.79904,0 41.28132,17.45276 41.28132,38.98183c0,21.52907 -18.48228,38.98183 -41.28132,38.98183z" fill="url(#color-4)" stroke="#000000" stroke-width="2" stroke-linecap="butt"/><path d="M228.57668,160.00615c-4.35419,0 -7.88396,-6.7654 -7.88396,-15.11094c0,-8.34554 3.52976,-15.11094 7.88396,-15.11094c4.35419,0 7.88396,6.7654 7.88396,15.11094c0,8.34554 -3.52976,15.11094 -7.88396,15.11094z" fill="#000000" stroke="#000000" stroke-width="2" stroke-linecap="butt"/><path d="M250.09661,158.5215c-4.3542,0 -7.88397,-6.7654 -7.88397,-15.11094c0,-8.34554 3.52977,-15.11093 7.88397,-15.11093c4.35419,0 7.88396,6.76539 7.88396,15.11093c0,8.34554 -3.52976,15.11094 -7.88396,15.11094z" fill="#000000" stroke="#000000" stroke-width="2" stroke-linecap="butt"/><path d="M229.25699,135.47824c0,-1.38071 1.11929,-2.5 2.5,-2.5c1.38071,0 2.5,1.11929 2.5,2.5c0,1.38071 -1.11929,2.5 -2.5,2.5c-1.38071,0 -2.5,-1.11929 -2.5,-2.5z" fill="#ffffff" stroke="none" stroke-width="0.5" stroke-linecap="butt"/><path d="M251.57557,133.47825c0,-1.38071 1.11929,-2.5 2.5,-2.5c1.38071,0 2.5,1.11929 2.5,2.5c0,1.38071 -1.11929,2.5 -2.5,2.5c-1.38071,0 -2.5,-1.11929 -2.5,-2.5z" fill="#ffffff" stroke="none" stroke-width="0.5" stroke-linecap="butt"/><path d="M223.68305,123.75696l8.32196,-0.219" fill="none" stroke="#000000" stroke-width="2" stroke-linecap="round"/><path d="M246.85826,121.54763l6.56997,-0.219" fill="none" stroke="#000000" stroke-width="2" stroke-linecap="round"/><path d="M241.15462,106.92079c-22.01287,0 -43.79981,9.30156 -43.79981,-2.30471c0,-11.60627 20.47294,-27.14698 42.48581,-27.14698c22.01287,0 41.60982,14.22672 41.60982,25.83299c0,11.60627 -18.28295,3.6187 -40.29582,3.6187z" fill="url(#color-5)" stroke="#000000" stroke-width="2" stroke-linecap="butt"/><path d="M241.37361,101.55899c-4.95894,0 -8.97896,-3.67684 -8.97896,-8.21246c0,-4.53561 4.02002,-8.21246 8.97896,-8.21246c4.95894,0 8.97896,3.67684 8.97896,8.21246c0,4.53561 -4.02002,8.21246 -8.97896,8.21246z" fill="#ffffff" stroke="#000000" stroke-width="2" stroke-linecap="butt"/><path d="M240.72144,123.29164c-17.8401,0 -32.30236,-5.8455 -32.30236,-13.05632c0,-7.21079 14.46226,-13.05632 32.30236,-13.05632c17.8401,0 32.30236,5.8455 32.30236,13.05632c0,7.21079 -14.46226,13.05632 -32.30236,13.05632z" fill="url(#color-6)" stroke="#000000" stroke-width="2" stroke-linecap="butt"/><text transform="matrix(0.22735 0 0 0.22735 235.67964 89.50416)" font-size="40"  fill="#00ffff" fill-rule="nonzero" stroke="none" stroke-width="1" stroke-linecap="butt" stroke-linejoin="miter" stroke-miterlimit="10" stroke-dasharray="" stroke-dashoffset="0" font-family="Helvetica" font-weight="normal" text-anchor="start" style="mix-blend-mode: normal" >CP</text><text transform="matrix(0.60554 0 0 0.60554 227.13868 186.87113)" font-size="40"  fill="#006f6f" fill-rule="nonzero" stroke="none" stroke-width="1" stroke-linecap="butt" stroke-linejoin="miter" stroke-miterlimit="10" stroke-dasharray="" stroke-dashoffset="0" font-family="Helvetica" font-weight="normal" text-anchor="start" style="mix-blend-mode: normal" >CP</text><path d="M230.84824,281.5309c-7.54789,0 -13.66667,-3.5071 -13.66667,-7.83333c0,-4.32623 6.11878,-7.83333 13.66667,-7.83333c7.54789,0 13.66667,3.5071 13.66667,7.83333c0,4.32623 -6.11878,7.83333 -13.66667,7.83333z" fill="url(#color-7)" stroke="#000000" stroke-width="2" stroke-linecap="butt"/><path d="M254.51492,282.5309c-7.54789,0 -13.66666,-3.5071 -13.66666,-7.83333c0,-4.32623 6.11877,-7.83333 13.66666,-7.83333c7.54789,0 13.66666,3.5071 13.66666,7.83333c0,4.32623 -6.11877,7.83333 -13.66666,7.83333z" fill="url(#color-8)" stroke="#000000" stroke-width="2" stroke-linecap="butt"/><path d="M228.38592,171.50017c-6.73216,0 -12.18959,-1.90273 -12.18959,-4.25017c0,-2.34728 5.45747,-4.25017 12.18959,-4.25017c6.73216,0 12.18959,1.90273 12.18959,4.25017c0,2.34728 -5.45747,4.25017 -12.18959,4.25017z" fill="#ffffff" stroke="#000000" stroke-width="2" stroke-linecap="butt"/><g stroke="#000000" stroke-width="2" stroke-linecap="butt"><path d="M223.61364,184.6323c0.6746,-5.57423 5.44395,-9.58202 10.65264,-8.95166c5.2087,0.63036 8.88431,5.66018 8.20972,11.23439c-0.67459,5.57421 -5.44396,9.58202 -10.65264,8.95166c-5.20871,-0.63036 -8.88431,-5.66018 -8.20972,-11.23439z" fill="url(#color-9)"/><path d="M239.38604,179.15425l40.70301,4.9259l-1.52183,12.57492l-40.70301,-4.9259z" fill="url(#color-10)"/><path d="M236.45583,186.02645c0.55848,-4.61472 2.38166,-8.18984 4.07221,-7.98525c1.69055,0.20459 2.60826,4.11142 2.04978,8.72614c-0.55847,4.61473 -2.38166,8.18985 -4.0722,7.98526c-1.69055,-0.20459 -2.60826,-4.11143 -2.04979,-8.72615z" fill="url(#color-11)"/></g><g stroke="#000000" stroke-width="2" stroke-linecap="butt"><path d="M249.65531,190.62703l-40.99731,-0.46956l0.14507,-12.66583l40.99731,0.46956z" fill="url(#color-12)"/><path d="M262.89557,184.27826c-0.06431,5.61454 -4.36945,10.11729 -9.61581,10.05721c-5.24636,-0.06009 -9.44725,-4.66029 -9.38294,-10.2748c0.06431,-5.61454 4.36945,-10.11729 9.61581,-10.05721c5.24636,0.06009 9.44725,4.66029 9.38294,10.2748z" fill="url(#color-13)"/><path d="M249.80173,185.12054c-0.05324,4.64809 -1.47675,8.4003 -3.17952,8.38081c-1.70276,-0.0195 -3.03997,-3.80333 -2.98674,-8.45144c0.05324,-4.64809 1.47675,-8.4003 3.17952,-8.38081c1.70276,0.0195 3.03997,3.80333 2.98674,8.45144z" fill="url(#color-14)"/></g></g></g></svg>