<svg version="1.1" xmlns="http://www.w3.org/2000/svg" xmlns:xlink="http://www.w3.org/1999/xlink" width="735.533" height="705.11361" viewBox="0,0,735.533,705.11361"><g transform="translate(127.76649,172.55683)"><g data-paper-data="{&quot;isPaintingLayer&quot;:true}" fill="#ff9400" fill-rule="nonzero" stroke="none" stroke-width="0.5" stroke-linecap="butt" stroke-linejoin="miter" stroke-miterlimit="10" stroke-dasharray="" stroke-dashoffset="0" style="mix-blend-mode: normal"><path d="M-100.81565,364.51046c-60.63938,-60.63938 0,-121.27877 0,-121.27877l27.62063,-23.34708c49.05102,-28.02911 114.65146,-76.28204 178.22201,-100.848c-6.84684,-39.81642 -16.19808,-79.56454 -20.72062,-119.37925l-9.30979,-74.47829c-0.54714,-3.91452 -0.82984,-7.91367 -0.82984,-11.97884c0,-47.36218 38.39485,-85.75705 85.75705,-85.75705c37.46955,0 69.32628,24.03027 80.99982,57.52039l16.05972,42.82565c14.78509,-25.796 42.59037,-43.17439 74.45483,-43.17439c47.36218,0 85.75705,38.39485 85.75705,85.75705v76.22859h-12.5171l8.42619,26.17105c-2.41834,3.65897 -4.74837,7.44857 -7.01178,11.3385c13.23118,0.25013 26.46692,0.62375 39.68835,0.60458h76.22859c47.36218,0 85.75705,38.39485 85.75705,85.75705c0,45.04189 -34.72474,81.97345 -78.86389,85.48405l-86.35706,7.85077c-3.58893,1.92095 -7.17958,3.82276 -10.76594,5.69998l30.28424,25.23688c19.14669,15.72784 31.35992,39.58746 31.35992,66.29963c0,47.36218 -38.39485,85.75705 -85.75705,85.75705c-12.67089,0 -24.70003,-2.74794 -35.524,-7.68069l-64.95754,-27.83902l2.27142,-5.30035c-3.79989,-0.71435 -7.5835,-1.53391 -11.34823,-2.4698l3.91395,31.31075c0.54714,3.91452 0.82984,7.91367 0.82984,11.97884c0,47.36218 -38.39485,85.75705 -85.75705,85.75705c-36.06398,0 -66.92852,-22.26138 -79.60169,-53.79225l-27.807,-64.88322l4.41706,-1.89295c-3.40341,-4.72206 -6.61387,-9.59592 -9.59964,-14.64558c-8.36789,-14.15163 -6.72621,-50.89308 -2.80254,-87.89468c-33.04591,20.78465 -65.84398,45.66277 -89.80134,59.35275l8.56341,-4.29014c0,0 -60.63938,60.63938 -121.27877,0z"/></g></g></svg>