Referer: http://127.0.0.1:8000/static/build/11.6/Scratch.swf
Content-type: image/svg+xml
Content-length: 9319

<svg version="1.1" width="127" height="106" viewBox="-1 -1 127 106" xmlns="http://www.w3.org/2000/svg" xmlns:xlink="http://www.w3.org/1999/xlink">
  <!-- Exported by Scratch - http://scratch.mit.edu/ -->
  <g id="ID0.4128376776352525" transform="matrix(1, 0, 0, 1, 54, 9)">
    <g id="Layer_3">
      <path id="ID0.47132307663559914" fill="#FAA51D" stroke="#000000" d="M 22.462 79.039 C 20.047 78.588 17.158 77.730 14.720 75.536 C 9.268 70.629 7.526 62.535 3.672 64.622 C -0.184 66.710 -0.110 79.787 12.025 83.816 C 16.207 85.207 20.023 85.212 23.116 85.128 C 23.927 85.103 30.833 84.474 33.195 81.054 C 35.556 77.634 33.914 76.782 33.105 76.310 C 32.295 75.838 25.878 79.677 22.462 79.039 Z "/>
      <path id="ID0.6620760634541512" fill="#FFFFFF" d="M 4.236 64.877 C 2.247 65.490 1.161 69.875 2.160 73.361 C 3.158 76.851 4.794 78.383 6.023 79.759 C 7.551 80.797 5.303 77.357 7.384 75.609 C 9.459 73.865 13.117 74.695 13.117 74.695 C 13.117 74.695 10.208 70.708 8.547 68.299 C 6.975 65.988 6.359 64.375 4.236 64.877 Z "/>
    </g>
    <g id="ID0.9233173537068069">
      <path id="ID0.3499765172600746" fill="#FAA51D" d="M 38.217 86.756 C 38.217 86.756 29.385 92.956 21.146 95.168 L 21.232 95.383 C 22.479 97.207 27.102 102.880 20.898 104.879 C 15.565 106.596 5.778 91.775 10.077 88.977 C 12.703 87.264 14.969 88.725 14.969 88.725 C 14.969 88.725 18.443 87.655 20.970 86.380 C 25.273 84.219 26.754 82.927 26.754 82.927 C 26.754 82.927 30.938 78.621 33.610 78.790 C 36.281 78.960 41.669 83.504 38.217 86.756 Z "/>
      <path id="ID0.5121188480407" fill="none" stroke="#231F20" stroke-width="1.2" d="M 21.232 95.383 C 22.479 97.207 27.102 102.880 20.898 104.879 C 15.565 106.596 5.569 91.535 9.868 88.734 C 12.494 87.021 14.969 88.724 14.969 88.724 C 14.969 88.724 18.443 87.652 20.970 86.376 C 25.273 84.215 26.754 82.923 26.754 82.923 "/>
      <path id="ID0.6484305299818516" fill="none" stroke="#231F20" stroke-width="1.2" d="M 38.217 86.756 C 38.217 86.756 28.094 93.863 19.413 95.575 "/>
    </g>
    <path id="ID0.6491095968522131" fill="#FAA51D" stroke="#231F20" stroke-width="1.2" d="M 52.169 74.885 C 52.169 74.885 53.404 75.050 56.913 78.561 C 60.422 82.069 62.939 80.721 65.824 79.285 C 68.701 77.842 76.361 73.159 72.314 69.468 C 68.265 65.780 66.107 70.614 62.599 71.873 C 59.087 73.133 57.538 69.386 55.741 67.586 C 55.152 66.993 54.553 66.487 54.012 66.081 C 54.012 66.081 53.041 65.321 52.106 68.871 C 51.172 72.412 50.162 73.415 52.169 74.885 Z "/>
    <g id="Layer_2_1_">
      <path id="ID0.7646716963499784" fill="#FAA51D" stroke="#231F20" stroke-width="1.2" d="M 46.753 82.012 C 47.941 81.100 49.150 79.610 50.704 77.299 C 52 75.372 53.404 71.721 53.404 71.721 C 54.279 69.200 55.338 65.145 51.502 64.425 C 49.949 64.134 47.423 64.327 43.832 63.649 C 40.239 62.968 37.034 61.127 34.315 65.882 C 31.597 70.639 24.725 74.153 33.259 82.445 C 33.259 82.445 38.160 86.287 44.023 92.084 C 48.854 96.859 56.068 102.686 56.068 102.686 C 56.068 102.686 75.040 104.874 75.603 101.993 C 77.525 92.203 60.826 95.082 60.826 95.082 C 60.826 95.082 56.221 91.149 54.101 89.288 C 50.623 86.229 42.976 78.517 42.976 78.517 "/>
      <path id="ID0.8871614560484886" fill="#FFFFFF" d="M 51.253 75.434 C 51.253 75.434 53.723 72.774 48.784 70.117 C 43.845 67.460 41.571 70.100 40.045 71.638 C 37.401 74.293 43.488 78.249 43.488 78.249 L 46.664 81.453 C 46.664 81.453 48.402 79.806 49.163 78.474 C 50.036 77.260 51.253 75.434 51.253 75.434 "/>
    </g>
    <path id="ID0.984395429957658" fill="#FAA51D" stroke="#231F20" stroke-width="1.2" d="M 29.926 73.218 C 30.675 72.647 32.815 71.016 34.780 69.561 C 37.208 67.762 40.897 63.712 35.857 61.915 C 30.817 60.114 28.350 63.519 24.338 66.861 C 22.179 68.662 19.030 69.560 20.019 73.070 C 21.012 76.581 24.881 86.478 31.808 83.240 C 38.737 80.001 30.009 74.060 28.748 72.083 "/>
    <g id="Layer_2">
      <path id="ID0.9387994986027479" fill="#FAA51D" stroke="#231F20" stroke-width="1.2" d="M 52.709 14.156 C 51.169 14.013 47.959 13.840 46.191 13.925 C 41.463 14.150 36.967 15.853 36.967 15.853 L 23.949 7.357 L 26.184 26.263 C 26.830 25.481 15.629 39.067 22.705 50.487 C 29.785 61.913 44.938 67.005 63.693 63.279 C 82.448 59.550 86.922 48.748 85.679 43.033 C 84.437 37.319 77.357 35.210 77.357 35.210 C 77.357 35.210 77.267 30.730 74.029 25.240 C 72.103 21.972 65.681 17.199 65.681 17.199 L 62.822 5.647 L 55.370 12.851 L 52.709 14.156 Z "/>
      <path id="ID0.7742603709921241" fill="#FFFFFF" d="M 76.420 35.066 L 73.938 33.002 L 64.823 35.663 C 64.823 35.663 64.823 39.082 60.456 40.030 C 56.086 40.981 49.245 37.753 49.245 37.753 L 41.460 41.170 C 41.460 41.170 33.023 42.098 32.721 47.251 C 32.048 58.704 46.100 63.479 51.425 63.783 C 54.330 63.950 59.660 63.445 63.702 62.642 C 81.454 59.408 86.253 48.723 85.012 43.007 C 83.770 37.293 77.034 35.811 77.034 35.811 L 76.420 35.066 Z "/>
      <path id="ID0.3885115319862962" fill="none" stroke="#231F20" stroke-width="1.2" d="M 10.673 46.155 C 10.673 46.155 14.780 46.529 16.647 46.423 C 18.512 46.316 22.139 45.836 22.139 45.836 "/>
      <path id="ID0.0738368583843112" fill="none" stroke="#231F20" stroke-width="1.2" d="M 81.656 40.671 C 81.656 40.671 86.205 39.928 88.515 39.122 C 91.230 38.180 93.058 36.577 93.058 36.577 "/>
      <path id="ID0.9000044497661293" fill="none" stroke="#231F20" stroke-width="1.2" d="M 22.337 41.909 C 22.337 41.909 19.953 40.132 16.220 38.479 C 12.086 36.648 9.815 36.176 9.815 36.176 "/>
      <path id="ID0.6429309640079737" fill="none" stroke="#231F20" stroke-width="1.2" d="M 82.117 46.622 C 82.117 46.622 84.843 47.726 87.650 48.007 C 90.420 48.283 92.296 48.117 92.296 48.117 "/>
      <path id="ID0.4349889075383544" fill="none" stroke="#000000" stroke-linecap="round" d="M 52.350 14.212 C 55.190 14.912 56.237 15.681 56.237 15.681 "/>
      <path id="ID0.2796043213456869" fill="none" stroke="#000000" d="M 33.898 13.684 L 39.956 18.042 "/>
    </g>
    <g id="Layer_5">
      <path id="ID0.7923764083534479" fill="#FFFFFF" stroke="#231F20" d="M 71.840 25.366 C 74.764 29.845 74.873 34.957 72.082 36.781 C 69.289 38.606 64.656 36.449 61.728 31.968 C 58.795 27.488 58.691 22.379 61.484 20.553 C 64.275 18.730 68.913 20.884 71.840 25.366 Z "/>
      <path id="ID0.9366263318806887" fill="#231F20" d="M 71.089 32.522 C 71.089 33.602 70.287 34.478 69.289 34.478 C 68.296 34.478 67.486 33.601 67.486 32.522 C 67.486 31.442 68.296 30.564 69.289 30.564 C 70.287 30.564 71.089 31.442 71.089 32.522 "/>
    </g>
    <g id="Layer_7">
      <path id="ID0.560971864964813" fill="#FFFFFF" stroke="#231F20" d="M 47.867 28.619 C 50.793 33.099 50.486 38.481 47.186 40.634 C 43.884 42.793 38.835 40.906 35.910 36.426 C 32.982 31.946 33.286 26.566 36.588 24.409 C 39.891 22.253 44.938 24.137 47.867 28.619 Z "/>
      <path id="ID0.690971642266959" fill="#231F20" d="M 46.079 34.507 C 46.079 35.588 45.276 36.464 44.278 36.464 C 43.286 36.464 42.475 35.586 42.475 34.507 C 42.475 33.427 43.286 32.550 44.278 32.550 C 45.274 32.550 46.079 33.427 46.079 34.507 "/>
    </g>
    <path id="ID0.31691102171316743" fill="#5E4A42" stroke="#000000" d="M 59.766 37.926 C 61.620 37.926 64.321 37.642 64.463 38.495 C 64.606 39.350 62.754 42.698 61.475 42.840 C 60.192 42.982 55.350 40.487 55.280 38.921 C 55.206 37.355 58.055 37.926 59.766 37.926 Z "/>
    <g id="Layer_4">
      <path id="ID0.2821359671652317" fill="none" stroke="#231F20" stroke-width="1.2" d="M 46.774 45.235 C 46.774 45.235 57.121 48.289 60.991 49.132 C 64.859 49.974 71.842 50.816 71.842 50.816 C 71.842 50.816 63.852 61.061 54.514 58.460 C 45.176 55.863 45.345 49.975 46.774 45.235 Z "/>
    </g>
  </g>
  <path id="ID0.028728798031806946" fill="none" stroke="#000000" stroke-width="2" stroke-linecap="round" d="M 190 148 L 190.300 148.300 " transform="matrix(1, 0, 0, 1, -139, -116)"/>
  <path id="ID0.8540508965961635" fill="none" stroke="#000000" stroke-width="2" stroke-linecap="round" d="M 141 163 C 141 163 147.656 164.410 151 165 C 153.319 165.409 155.716 165.429 158 166 C 159.740 166.435 161.396 167.198 163 168 C 164.737 168.868 166.335 170.001 168 171 C 169.665 171.999 171.384 172.923 173 174 C 174.385 174.924 175.686 175.978 177 177 C 178.683 178.309 180.381 179.612 182 181 C 182.715 181.613 183.334 182.334 184 183 C 184.999 183.999 185.824 185.216 187 186 C 187.876 186.584 189.097 186.458 190 187 C 190.808 187.485 191.247 188.435 192 189 C 192.596 189.447 193.278 189.819 194 190 C 194.646 190.162 195.404 190.298 196 190 C 196.842 189.579 197.397 188.724 198 188 C 199.066 186.721 200.001 185.332 201 184 C 201.999 182.668 203.118 181.412 204 180 C 204.789 178.737 205.086 177.176 206 176 C 207.446 174.141 209.694 172.959 211 171 C 212.407 168.890 212.742 166.202 214 164 C 215.421 161.513 217.526 159.456 219 157 C 220.532 154.446 221.598 151.628 223 149 C 224.263 146.631 225.875 144.438 227 142 C 227.883 140.088 228.218 137.955 229 136 C 229.553 134.617 230.395 133.361 231 132 C 231.728 130.361 232.507 128.724 233 127 C 233.183 126.360 232.838 125.646 233 125 C 233.181 124.278 233.380 123.413 234 123 C 235.492 122.005 237.260 121.435 239 121 C 239.969 120.758 241.011 121.141 242 121 C 245.686 120.473 249.314 119.527 253 119 C 253.989 118.859 255.020 119.196 256 119 C 256.730 118.854 257.261 118.092 258 118 C 259.983 117.752 264 118 264 118 " transform="matrix(1, 0, 0, 1, -139, -116)"/>
</svg>