<svg xmlns="http://www.w3.org/2000/svg" xmlns:xlink="http://www.w3.org/1999/xlink" version="1.1" width="122.8280029296875" height="79.93699645996094" viewBox="-0.5 0 122.8280029296875 79.93699645996094">
  <defs>
    <linearGradient id="grad_1" x1="150.3633" y1="690.2612" x2="150.3633" y2="649.1899" gradientUnits="userSpaceOnUse">
      <stop offset="0" stop-color="#E6E6E6"/>
      <stop offset="0.0399" stop-color="#EBEBEB"/>
      <stop offset="0.192" stop-color="#F6F6F6"/>
      <stop offset="0.4058" stop-color="#FDFDFD"/>
      <stop offset="1" stop-color="#FFFFFF"/>
    </linearGradient>
    <linearGradient id="grad_2" x1="98.6738" y1="690.8286" x2="98.6738" y2="650.2153" gradientUnits="userSpaceOnUse">
      <stop offset="0" stop-color="#E6E6E6"/>
      <stop offset="0.0399" stop-color="#EBEBEB"/>
      <stop offset="0.192" stop-color="#F6F6F6"/>
      <stop offset="0.4058" stop-color="#FDFDFD"/>
      <stop offset="1" stop-color="#FFFFFF"/>
    </linearGradient>
    <linearGradient id="grad_3" x1="124.5527" y1="685.5366" x2="124.5527" y2="641.5151" gradientUnits="userSpaceOnUse">
      <stop offset="0" stop-color="#D9D9D9"/>
      <stop offset="0.0059" stop-color="#DADADA"/>
      <stop offset="0.1185" stop-color="#EBEBEB"/>
      <stop offset="0.258" stop-color="#F6F6F6"/>
      <stop offset="0.4545" stop-color="#FDFDFD"/>
      <stop offset="1" stop-color="#FFFFFF"/>
    </linearGradient>
  <linearGradient id="grad_1-,0,0,1,0,0.5" x1="150.3633" y1="690.7612" x2="150.3633" y2="649.6899" gradientUnits="userSpaceOnUse">
      <stop offset="0" stop-color="#E6E6E6"/>
      <stop offset="0.0399" stop-color="#EBEBEB"/>
      <stop offset="0.192" stop-color="#F6F6F6"/>
      <stop offset="0.4058" stop-color="#FDFDFD"/>
      <stop offset="1" stop-color="#FFFFFF"/>
    </linearGradient><linearGradient id="grad_2-,0,0,1,0,0.5" x1="98.6738" y1="691.3286" x2="98.6738" y2="650.7153" gradientUnits="userSpaceOnUse">
      <stop offset="0" stop-color="#E6E6E6"/>
      <stop offset="0.0399" stop-color="#EBEBEB"/>
      <stop offset="0.192" stop-color="#F6F6F6"/>
      <stop offset="0.4058" stop-color="#FDFDFD"/>
      <stop offset="1" stop-color="#FFFFFF"/>
    </linearGradient><linearGradient id="grad_3-,0,0,1,0,0.5" x1="124.5527" y1="686.0366" x2="124.5527" y2="642.0151" gradientUnits="userSpaceOnUse">
      <stop offset="0" stop-color="#D9D9D9"/>
      <stop offset="0.0059" stop-color="#DADADA"/>
      <stop offset="0.1185" stop-color="#EBEBEB"/>
      <stop offset="0.258" stop-color="#F6F6F6"/>
      <stop offset="0.4545" stop-color="#FDFDFD"/>
      <stop offset="1" stop-color="#FFFFFF"/>
    </linearGradient></defs>
  <!-- Exported by Scratch - http://scratch.mit.edu/ -->
  <g id="ID0.39434649096801877">
    <path id="ID0.8442809865809977_1_" fill="#FFFFFF" d="M 61.479 11.314 C 68.512 11.314 74.887 13.937 79.502 18.175 C 84.119 22.411 86.975 28.266 86.975 34.724 C 86.975 41.181 84.12 47.037 79.502 51.273 C 74.887 55.51 68.512 58.134 61.479 58.134 C 54.444 58.134 48.069 55.51 43.452 51.272 C 38.837 47.035 35.981 41.181 35.981 34.724 C 35.981 28.265 38.836 22.411 43.452 18.174 C 48.068 13.937 54.444 11.314 61.479 11.314 Z " stroke-width="1"/>
    <path id="ID0.9676298191770911_1_" fill="#FFFFFF" d="M 81.353 15.785 C 85.968 15.785 90.148 17.488 93.173 20.242 C 96.202 22.996 98.075 26.799 98.075 30.994 C 98.075 35.188 96.202 38.991 93.173 41.742 C 90.148 44.496 85.968 46.201 81.353 46.201 C 76.74 46.201 72.56 44.496 69.533 41.742 C 66.506 38.99 64.633 35.188 64.633 30.994 C 64.633 26.799 66.506 22.996 69.533 20.242 C 72.56 17.488 76.739 15.785 81.353 15.785 Z " stroke-width="1"/>
    <path id="ID0.8828279236331582_1_" fill="#FFFFFF" d="M 39.72 15.81 C 45.312 15.81 50.378 17.861 54.048 21.173 C 57.716 24.486 59.987 29.061 59.987 34.111 C 59.987 39.16 57.716 43.736 54.048 47.047 C 50.378 50.361 45.312 52.412 39.72 52.412 C 34.128 52.412 29.062 50.361 25.394 47.047 C 21.724 43.736 19.453 39.16 19.453 34.111 C 19.453 29.061 21.723 24.486 25.394 21.173 C 29.062 17.861 34.128 15.81 39.72 15.81 Z " stroke-width="1"/>
    <path id="ID0.6374159646220505_1_" fill="url(#grad_1-,0,0,1,0,0.5)" d="M 82.798 24.138 C 89.548 24.138 95.667 26.24 100.095 29.631 C 104.525 33.023 107.267 37.708 107.267 42.878 C 107.267 48.048 104.525 52.733 100.095 56.124 C 95.665 59.517 89.548 61.618 82.798 61.618 C 76.048 61.618 69.929 59.516 65.501 56.124 C 61.071 52.733 58.329 48.048 58.329 42.878 C 58.329 37.708 61.071 33.023 65.501 29.631 C 69.929 26.24 76.046 24.138 82.798 24.138 Z " stroke-width="1"/>
    <path id="ID0.6483261599205434_1_" fill="url(#grad_2-,0,0,1,0,0.5)" d="M 35.628 23.621 C 42.206 23.621 48.163 25.697 52.48 29.055 C 56.794 32.409 59.464 37.041 59.464 42.154 C 59.464 47.268 56.792 51.9 52.48 55.255 C 48.164 58.609 42.207 60.685 35.628 60.685 C 29.054 60.685 23.095 58.609 18.78 55.255 C 14.464 51.9 11.794 47.268 11.794 42.154 C 11.794 37.042 14.466 32.409 18.78 29.055 C 23.095 25.697 29.054 23.621 35.628 23.621 Z " stroke-width="1"/>
    <path id="ID0.6189421555027366_1_" fill="url(#grad_3-,0,0,1,0,0.5)" d="M 59.245 28.45 C 66.278 28.45 72.651 30.701 77.266 34.338 C 81.881 37.974 84.739 42.994 84.739 48.537 C 84.739 54.078 81.88 59.1 77.266 62.737 C 72.651 66.373 66.278 68.623 59.245 68.623 C 52.21 68.623 45.837 66.373 41.222 62.737 C 36.607 59.1 33.749 54.078 33.749 48.537 C 33.749 42.996 36.608 37.974 41.222 34.338 C 45.837 30.701 52.21 28.45 59.245 28.45 Z " stroke-width="1"/>
    <path id="ID0.5116889625787735" fill="none" stroke="#BCD1DC" d="M 100.095 29.631 C 99.366 29.073 98.576 28.564 97.76 28.079 C 97.113 25.051 95.483 22.34 93.173 20.241 C 90.148 17.487 85.968 15.784 81.353 15.784 C 79.906 15.784 78.508 15.969 77.168 16.284 C 72.839 13.173 67.395 11.313 61.48 11.313 C 55.391 11.313 49.798 13.28 45.412 16.555 C 43.604 16.077 41.698 15.809 39.721 15.809 C 34.129 15.809 29.063 17.86 25.395 21.172 C 23.369 23 21.791 25.222 20.764 27.687 C 20.074 28.117 19.406 28.567 18.782 29.053 C 14.468 32.407 11.796 37.039 11.796 42.152 C 11.796 47.265 14.466 51.897 18.782 55.253 C 23.096 58.607 29.055 60.683 35.63 60.683 C 36.699 60.683 37.744 60.609 38.777 60.503 C 39.523 61.294 40.34 62.041 41.223 62.737 C 45.838 66.373 52.211 68.623 59.246 68.623 C 66.279 68.623 72.652 66.373 77.267 62.737 C 77.827 62.296 78.359 61.834 78.864 61.354 C 80.148 61.514 81.457 61.619 82.799 61.619 C 89.549 61.619 95.666 59.517 100.096 56.125 C 104.526 52.734 107.268 48.049 107.268 42.879 C 107.268 37.709 104.524 33.023 100.095 29.631 Z " stroke-width="1"/>
    <path id="ID0.00209985114634037_1_" fill="none" d="M 0 0.5 L 121.828 0.5 L 121.828 79.437 L 0 79.437 L 0 0.5 Z " stroke-width="1"/>
  </g>
</svg>