<svg xmlns="http://www.w3.org/2000/svg" xmlns:xlink="http://www.w3.org/1999/xlink" version="1.1" width="29" height="30.75" viewBox="-0.3499999940395355 0.30000001192092896 29 30.75">
  <defs>
    <linearGradient id="grad_1" x1="11.7109" y1="29.3203" x2="16.2873" y2="0.4266" gradientUnits="userSpaceOnUse">
      <stop offset="0" stop-color="#820900"/>
      <stop offset="0.5211" stop-color="#AB6200"/>
      <stop offset="0.7606" stop-color="#AB7B7B"/>
      <stop offset="1" stop-color="#AB6200"/>
    </linearGradient>
    <linearGradient id="grad_2" x1="-108.3696" y1="8.6611" x2="-120.7971" y2="21.0886" gradientUnits="userSpaceOnUse">
      <stop offset="0" stop-color="#FFDA4C"/>
      <stop offset="0.5459" stop-color="#FFFF4C"/>
      <stop offset="0.6083" stop-color="#FFFF71"/>
      <stop offset="0.7039" stop-color="#FFFFA3"/>
      <stop offset="0.794" stop-color="#FFFFCB"/>
      <stop offset="0.8761" stop-color="#FFFFE8"/>
      <stop offset="0.9474" stop-color="#FFFFF9"/>
      <stop offset="1" stop-color="#FFFFFF"/>
    </linearGradient>
  <linearGradient id="grad_1-,0,0,1,0.15,0.8" x1="11.8609" y1="30.1203" x2="16.4373" y2="1.2266" gradientUnits="userSpaceOnUse">
      <stop offset="0" stop-color="#820900"/>
      <stop offset="0.5211" stop-color="#AB6200"/>
      <stop offset="0.7606" stop-color="#AB7B7B"/>
      <stop offset="1" stop-color="#AB6200"/>
    </linearGradient><linearGradient id="grad_2-,0,0,1,0.15,0.8" x1="-108.2196" y1="9.4611" x2="-120.6471" y2="21.8886" gradientUnits="userSpaceOnUse">
      <stop offset="0" stop-color="#FFDA4C"/>
      <stop offset="0.5459" stop-color="#FFFF4C"/>
      <stop offset="0.6083" stop-color="#FFFF71"/>
      <stop offset="0.7039" stop-color="#FFFFA3"/>
      <stop offset="0.794" stop-color="#FFFFCB"/>
      <stop offset="0.8761" stop-color="#FFFFE8"/>
      <stop offset="0.9474" stop-color="#FFFFF9"/>
      <stop offset="1" stop-color="#FFFFFF"/>
    </linearGradient></defs>
  <!-- Exported by Scratch - http://scratch.mit.edu/ -->
  <g id="ID0.6987480004318058">
    <g id="ID0.03910307306796312">
      <path id="ID0.855702230706811" fill="url(#grad_1-,0,0,1,0.15,0.8)" d="M 12.15 30.05 C 5.809 30.05 0.65 23.602 0.65 15.675 C 0.65 7.749 5.809 1.3 12.15 1.3 C 12.234 1.3 16.329 1.301 16.412 1.303 C 22.714 1.482 27.65 7.795 27.65 15.675 C 27.65 23.454 22.589 29.902 16.37 30.047 C 16.302 30.049 12.219 30.05 12.15 30.05 L 12.15 30.05 Z " stroke-width="1"/>
      <path id="ID0.3057160507887602" fill="#A86700" d="M 12.15 1.8 C 12.234 1.8 16.317 1.801 16.4 1.803 C 22.36 1.972 27.15 8.117 27.15 15.675 C 27.15 23.25 22.337 29.407 16.358 29.547 C 16.289 29.549 12.219 29.55 12.15 29.55 C 6.074 29.55 1.15 23.338 1.15 15.675 C 1.15 8.012 6.074 1.8 12.15 1.8 M 12.15 0.8 C 5.533 0.8 0.15 7.473 0.15 15.675 C 0.15 23.877 5.533 30.55 12.15 30.55 C 12.191 30.55 16.294 30.549 16.386 30.547 C 22.871 30.396 28.15 23.724 28.15 15.675 C 28.15 7.522 23.002 0.989 16.428 0.803 C 16.321 0.801 12.192 0.8 12.15 0.8 L 12.15 0.8 Z " stroke-width="1"/>
    </g>
    <path id="ID0.2986555374227464" fill="#FFD23A" stroke="#F2AD2E" stroke-width="0.2" d="M 12.15 1.8 C 15.185 1.8 17.935 3.355 19.926 5.866 C 21.917 8.378 23.15 11.847 23.15 15.675 C 23.15 19.503 21.917 22.972 19.926 25.484 C 17.935 27.995 15.185 29.55 12.15 29.55 C 9.115 29.55 6.365 27.995 4.374 25.484 C 2.383 22.972 1.15 19.503 1.15 15.675 C 1.15 11.847 2.383 8.378 4.374 5.866 C 6.365 3.355 9.115 1.8 12.15 1.8 Z "/>
    <path id="ID0.25412825774401426" fill="url(#grad_2-,0,0,1,0.15,0.8)" d="M 12.15 5.938 C 14.28 5.938 16.21 7.029 17.608 8.792 C 19.006 10.554 19.871 12.989 19.871 15.675 C 19.871 18.361 19.006 20.796 17.608 22.558 C 16.21 24.321 14.28 25.412 12.15 25.412 C 10.02 25.412 8.09 24.321 6.692 22.558 C 5.294 20.796 4.429 18.361 4.429 15.675 C 4.429 12.989 5.294 10.554 6.692 8.792 C 8.09 7.029 10.02 5.938 12.15 5.938 Z " stroke-width="1"/>
    <path id="ID0.9166105072945356" fill="#FFC02D" d="M 12.545 6.909 C 14.433 6.909 16.145 7.891 17.384 9.478 C 18.623 11.065 19.39 13.257 19.39 15.675 C 19.39 18.093 18.623 20.285 17.384 21.872 C 16.145 23.459 14.433 24.441 12.545 24.441 C 10.657 24.441 8.945 23.459 7.706 21.872 C 6.467 20.285 5.7 18.093 5.7 15.675 C 5.7 13.257 6.467 11.065 7.706 9.478 C 8.945 7.891 10.657 6.909 12.545 6.909 Z " stroke-width="1"/>
  </g>
</svg>