<svg version="1.1" xmlns="http://www.w3.org/2000/svg" xmlns:xlink="http://www.w3.org/1999/xlink" width="49.39694" height="48.24841" viewBox="0,0,49.39694,48.24841"><defs><linearGradient x1="215.97412" y1="165.68663" x2="215.97412" y2="174.81996" gradientUnits="userSpaceOnUse" id="color-1"><stop offset="0" stop-color="#e5e5e5"/><stop offset="1" stop-color="#b2b2b2"/></linearGradient><linearGradient x1="215.97412" y1="165.68663" x2="215.97412" y2="174.81996" gradientUnits="userSpaceOnUse" id="color-2"><stop offset="0" stop-color="#b2b2b2"/><stop offset="1" stop-color="#e5e5e5"/></linearGradient><linearGradient x1="237.16187" y1="153.66632" x2="226.65854" y2="153.66632" gradientUnits="userSpaceOnUse" id="color-3"><stop offset="0" stop-color="#e5e5e5"/><stop offset="1" stop-color="#b2b2b2"/></linearGradient><linearGradient x1="226.65854" y1="153.66632" x2="226.65854" y2="159.65023" gradientUnits="userSpaceOnUse" id="color-4"><stop offset="0" stop-color="#b2b2b2"/><stop offset="1" stop-color="#e5e5e5"/></linearGradient><linearGradient x1="245.12992" y1="153.56134" x2="234.62659" y2="153.56134" gradientUnits="userSpaceOnUse" id="color-5"><stop offset="0" stop-color="#e5e5e5"/><stop offset="1" stop-color="#b2b2b2"/></linearGradient><linearGradient x1="234.62659" y1="153.56134" x2="234.62659" y2="159.54525" gradientUnits="userSpaceOnUse" id="color-6"><stop offset="0" stop-color="#b2b2b2"/><stop offset="1" stop-color="#e5e5e5"/></linearGradient><linearGradient x1="252.85651" y1="153.56134" x2="242.35318" y2="153.56134" gradientUnits="userSpaceOnUse" id="color-7"><stop offset="0" stop-color="#e5e5e5"/><stop offset="1" stop-color="#b2b2b2"/></linearGradient><linearGradient x1="242.35318" y1="153.56134" x2="242.35318" y2="159.54525" gradientUnits="userSpaceOnUse" id="color-8"><stop offset="0" stop-color="#b2b2b2"/><stop offset="1" stop-color="#e5e5e5"/></linearGradient><linearGradient x1="215.79303" y1="172.66785" x2="215.79303" y2="181.80118" gradientUnits="userSpaceOnUse" id="color-9"><stop offset="0" stop-color="#e5e5e5"/><stop offset="1" stop-color="#b2b2b2"/></linearGradient><linearGradient x1="215.79303" y1="172.66785" x2="215.79303" y2="181.80118" gradientUnits="userSpaceOnUse" id="color-10"><stop offset="0" stop-color="#b2b2b2"/><stop offset="1" stop-color="#e5e5e5"/></linearGradient><linearGradient x1="215.91376" y1="179.59659" x2="215.91376" y2="188.72992" gradientUnits="userSpaceOnUse" id="color-11"><stop offset="0" stop-color="#e5e5e5"/><stop offset="1" stop-color="#b2b2b2"/></linearGradient><linearGradient x1="215.91376" y1="179.59659" x2="215.91376" y2="188.72992" gradientUnits="userSpaceOnUse" id="color-12"><stop offset="0" stop-color="#b2b2b2"/><stop offset="1" stop-color="#e5e5e5"/></linearGradient><linearGradient x1="263.84275" y1="165.63414" x2="263.84275" y2="174.76747" gradientUnits="userSpaceOnUse" id="color-13"><stop offset="0" stop-color="#e5e5e5"/><stop offset="1" stop-color="#b2b2b2"/></linearGradient><linearGradient x1="256.96126" y1="165.63414" x2="256.96126" y2="174.76747" gradientUnits="userSpaceOnUse" id="color-14"><stop offset="0" stop-color="#b2b2b2"/><stop offset="1" stop-color="#e5e5e5"/></linearGradient><linearGradient x1="263.72202" y1="172.77283" x2="263.72202" y2="181.90616" gradientUnits="userSpaceOnUse" id="color-15"><stop offset="0" stop-color="#e5e5e5"/><stop offset="1" stop-color="#b2b2b2"/></linearGradient><linearGradient x1="256.84053" y1="172.77283" x2="256.84053" y2="181.90616" gradientUnits="userSpaceOnUse" id="color-16"><stop offset="0" stop-color="#b2b2b2"/><stop offset="1" stop-color="#e5e5e5"/></linearGradient><linearGradient x1="263.84275" y1="179.91153" x2="263.84275" y2="189.04486" gradientUnits="userSpaceOnUse" id="color-17"><stop offset="0" stop-color="#e5e5e5"/><stop offset="1" stop-color="#b2b2b2"/></linearGradient><linearGradient x1="256.96126" y1="179.91153" x2="256.96126" y2="189.04486" gradientUnits="userSpaceOnUse" id="color-18"><stop offset="0" stop-color="#b2b2b2"/><stop offset="1" stop-color="#e5e5e5"/></linearGradient><linearGradient x1="256.43587" y1="154.86602" x2="263.83413" y2="162.22392" gradientUnits="userSpaceOnUse" id="color-19"><stop offset="0" stop-color="#e5e5e5"/><stop offset="1" stop-color="#b2b2b2"/></linearGradient><linearGradient x1="250.49188" y1="158.16958" x2="250.49188" y2="166.9435" gradientUnits="userSpaceOnUse" id="color-20"><stop offset="0" stop-color="#b2b2b2"/><stop offset="1" stop-color="#e5e5e5"/></linearGradient><linearGradient x1="222.81403" y1="155.33976" x2="216.19455" y2="161.92313" gradientUnits="userSpaceOnUse" id="color-21"><stop offset="0" stop-color="#e5e5e5"/><stop offset="1" stop-color="#b2b2b2"/></linearGradient><linearGradient x1="219.77396" y1="158.29556" x2="219.77396" y2="166.52524" gradientUnits="userSpaceOnUse" id="color-22"><stop offset="0" stop-color="#b2b2b2"/><stop offset="1" stop-color="#e5e5e5"/></linearGradient><linearGradient x1="263.6719" y1="192.33357" x2="256.00932" y2="199.44088" gradientUnits="userSpaceOnUse" id="color-23"><stop offset="0" stop-color="#b2b2b2"/><stop offset="1" stop-color="#7f7f7f"/></linearGradient><linearGradient x1="249.89689" y1="187.00596" x2="249.89689" y2="195.85373" gradientUnits="userSpaceOnUse" id="color-24"><stop offset="0" stop-color="#7f7f7f"/><stop offset="1" stop-color="#b2b2b2"/></linearGradient><linearGradient x1="215.77074" y1="192.57503" x2="223.4333" y2="199.68234" gradientUnits="userSpaceOnUse" id="color-25"><stop offset="0" stop-color="#b2b2b2"/><stop offset="1" stop-color="#7f7f7f"/></linearGradient><linearGradient x1="219.47815" y1="187.24742" x2="219.47815" y2="196.09518" gradientUnits="userSpaceOnUse" id="color-26"><stop offset="0" stop-color="#7f7f7f"/><stop offset="1" stop-color="#b2b2b2"/></linearGradient><linearGradient x1="253.09796" y1="200.48777" x2="242.59463" y2="200.48777" gradientUnits="userSpaceOnUse" id="color-27"><stop offset="0" stop-color="#b2b2b2"/><stop offset="1" stop-color="#7f7f7f"/></linearGradient><linearGradient x1="242.59463" y1="194.50386" x2="242.59463" y2="200.48777" gradientUnits="userSpaceOnUse" id="color-28"><stop offset="0" stop-color="#7f7f7f"/><stop offset="1" stop-color="#b2b2b2"/></linearGradient><linearGradient x1="245.00919" y1="200.59275" x2="234.50586" y2="200.59275" gradientUnits="userSpaceOnUse" id="color-29"><stop offset="0" stop-color="#b2b2b2"/><stop offset="1" stop-color="#7f7f7f"/></linearGradient><linearGradient x1="234.50586" y1="194.60884" x2="234.50586" y2="200.59275" gradientUnits="userSpaceOnUse" id="color-30"><stop offset="0" stop-color="#7f7f7f"/><stop offset="1" stop-color="#b2b2b2"/></linearGradient><linearGradient x1="237.04115" y1="200.59275" x2="226.53782" y2="200.59275" gradientUnits="userSpaceOnUse" id="color-31"><stop offset="0" stop-color="#b2b2b2"/><stop offset="1" stop-color="#7f7f7f"/></linearGradient><linearGradient x1="226.53782" y1="194.60884" x2="226.53782" y2="200.59275" gradientUnits="userSpaceOnUse" id="color-32"><stop offset="0" stop-color="#7f7f7f"/><stop offset="1" stop-color="#b2b2b2"/></linearGradient><linearGradient x1="224.18362" y1="160.75276" x2="255.81434" y2="160.75276" gradientUnits="userSpaceOnUse" id="color-33"><stop offset="0" stop-color="#2b2b2b"/><stop offset="1" stop-color="#2b2b2b"/></linearGradient><linearGradient x1="224.18362" y1="160.75276" x2="255.81434" y2="160.75276" gradientUnits="userSpaceOnUse" id="color-34"><stop offset="0" stop-color="#2b2b2b"/><stop offset="1" stop-color="#2b2b2b"/></linearGradient><linearGradient x1="226.83964" y1="162.85215" x2="252.79614" y2="162.85215" gradientUnits="userSpaceOnUse" id="color-35"><stop offset="0" stop-color="#7f7f7f"/><stop offset="1" stop-color="#7f7f7f"/></linearGradient><linearGradient x1="226.83964" y1="162.85215" x2="252.79614" y2="162.85215" gradientUnits="userSpaceOnUse" id="color-36"><stop offset="0" stop-color="#7f7f7f"/><stop offset="1" stop-color="#7f7f7f"/></linearGradient></defs><g transform="translate(-215.11942,-152.95284)"><g data-paper-data="{&quot;isPaintingLayer&quot;:true}" fill="none" fill-rule="nonzero" stroke="none" stroke-width="none" stroke-linecap="none" stroke-linejoin="miter" stroke-miterlimit="10" stroke-dasharray="" stroke-dashoffset="0" font-family="none" font-weight="none" font-size="none" text-anchor="none" style="mix-blend-mode: normal"><g data-paper-data="{&quot;origPos&quot;:null}" stroke-linecap="round"><path d="M215.97412,169.99084l6.88149,-4.30421v9.13333l-6.76076,-4.61916z" id="ID0.2595352800562978" fill="url(#color-1)" stroke="url(#color-2)" stroke-width="1"/><path d="M232.21203,153.66632l4.94985,5.98391h-10.50333l5.31203,-5.87893z" id="ID0.2595352800562978" fill="url(#color-3)" stroke="url(#color-4)" stroke-width="1"/><path d="M240.18007,153.56134l4.94985,5.98391h-10.50333l5.31203,-5.87893z" id="ID0.2595352800562978" fill="url(#color-5)" stroke="url(#color-6)" stroke-width="1"/><path d="M247.90666,153.56134l4.94985,5.98391h-10.50333l5.31203,-5.87893z" id="ID0.2595352800562978" fill="url(#color-7)" stroke="url(#color-8)" stroke-width="1"/><path d="M215.79303,176.97207l6.88149,-4.30421v9.13333l-6.76076,-4.61916z" id="ID0.2595352800562978" fill="url(#color-9)" stroke="url(#color-10)" stroke-width="1"/><path d="M215.91376,183.9008l6.88149,-4.30421v9.13333l-6.76076,-4.61916z" id="ID0.2595352800562978" fill="url(#color-11)" stroke="url(#color-12)" stroke-width="1"/><path d="M263.72202,170.14831l-6.76076,4.61916v-9.13333l6.88149,4.30421z" id="ID0.2595352800562978" fill="url(#color-13)" stroke="url(#color-14)" stroke-width="1"/><path d="M263.60129,177.28701l-6.76076,4.61916v-9.13333l6.88149,4.30421z" id="ID0.2595352800562978" fill="url(#color-15)" stroke="url(#color-16)" stroke-width="1"/><path d="M263.72202,184.4257l-6.76076,4.61916v-9.13333l6.88149,4.30421z" id="ID0.2595352800562978" fill="url(#color-17)" stroke="url(#color-18)" stroke-width="1"/><path d="M259.8256,158.39674l-2.19906,8.54676l-7.13466,-7.5583l9.26565,-1.21561z" id="ID0.2595352800562978" fill="url(#color-19)" stroke="url(#color-20)" stroke-width="1"/><path d="M219.842,158.29556l8.44342,1.20405l-6.0378,7.02563l-2.47367,-8.00252z" id="ID0.2595352800562978" fill="url(#color-21)" stroke="url(#color-22)" stroke-width="1"/><path d="M259.71125,195.85373l-9.81436,-1.3958l7.23979,-7.45196l2.82779,8.76638z" id="ID0.2595352800562978" fill="url(#color-23)" stroke="url(#color-24)" stroke-width="1"/><path d="M219.47815,196.0138l2.82779,-8.76638l7.23981,7.45196l-9.81438,1.3958z" id="ID0.2595352800562978" fill="url(#color-25)" stroke="url(#color-26)" stroke-width="1"/><path d="M247.90666,200.38279l-5.31203,-5.87893h10.50333l-4.94985,5.98391z" id="ID0.2595352800562978" fill="url(#color-27)" stroke="url(#color-28)" stroke-width="1"/><path d="M239.81789,200.48777l-5.31203,-5.87893h10.50333l-4.94985,5.98391z" id="ID0.2595352800562978" fill="url(#color-29)" stroke="url(#color-30)" stroke-width="1"/><path d="M231.84985,200.48777l-5.31203,-5.87893h10.50333l-4.94985,5.98391z" id="ID0.2595352800562978" fill="url(#color-31)" stroke="url(#color-32)" stroke-width="1"/><path d="M225.87381,162.54l3.62184,-1.78724l21.36885,0.10964l3.50111,1.46927l1.44874,2.31355v24.87882l-1.44874,2.93854l-3.25965,0.94296l-22.33467,0.10964l-3.50111,-1.26092l-0.96582,-4.1008l-0.12073,-22.77359z" data-paper-data="{&quot;origPos&quot;:null}" id="ID0.5509713650681078" fill="url(#color-33)" stroke="url(#color-34)" stroke-width="3"/><path d="M226.96036,190.35712l-0.12073,-27.39999l5.67421,-0.10498l2.77674,1.67969h9.17532l3.50111,-1.67969h4.82912l-0.24146,27.50497l-5.55349,-0.10498l-3.50111,-1.46973l-8.69241,0.10498l-2.29383,1.36475z" id="ID0.5818088655360043" fill="url(#color-35)" stroke="url(#color-36)" stroke-width="1"/></g><g data-paper-data="{&quot;origPos&quot;:null}" id="ID0.05171704199165106" stroke="#000000"><path d="M248.7766,169.6262c1.2027,0 2.2923,0.4833 3.0814,1.2646c0.789,0.7808 1.2776,1.8596 1.2776,3.0496c0,1.1901 -0.4886,2.2689 -1.2776,3.0497c-0.7891,0.7813 -1.8787,1.2645 -3.0814,1.2645c-1.2027,0 -2.2924,-0.4832 -3.0814,-1.2645c-0.7891,-0.7808 -1.2776,-1.8596 -1.2776,-3.0497c0,-1.19 0.4885,-2.2688 1.2776,-3.0496c0.789,-0.7813 1.8787,-1.2646 3.0814,-1.2646z" id="ID0.37750169076025486" fill="#ffffff" stroke-width="0.76083" stroke-linecap="butt"/><path d="M248.8302,170.2041c0.326,0 0.6211,0.4032 0.8348,1.0552c0.2141,0.6519 0.3463,1.5519 0.3463,2.5448c0,0.993 -0.1322,1.893 -0.3463,2.5449c-0.2137,0.652 -0.5088,1.0552 -0.8348,1.0552c-0.326,0 -0.6212,-0.4032 -0.8349,-1.0552c-0.214,-0.6519 -0.3463,-1.5519 -0.3463,-2.5449c0,-0.9929 0.1323,-1.8929 0.3463,-2.5448c0.2137,-0.652 0.5089,-1.0552 0.8349,-1.0552z" id="ID0.234124637208879" fill="#000000" stroke-width="1.0588" stroke-linecap="round"/></g><g data-paper-data="{&quot;origPos&quot;:null}" id="ID0.05171704199165106" stroke="#000000"><path d="M231.2766,169.37621c1.2027,0 2.2923,0.4833 3.0814,1.2646c0.789,0.7808 1.2776,1.8596 1.2776,3.0496c0,1.1901 -0.4886,2.2689 -1.2776,3.0497c-0.7891,0.7813 -1.8787,1.2645 -3.0814,1.2645c-1.2027,0 -2.2924,-0.4832 -3.0814,-1.2645c-0.7891,-0.7808 -1.2776,-1.8596 -1.2776,-3.0497c0,-1.19 0.4885,-2.2688 1.2776,-3.0496c0.789,-0.7813 1.8787,-1.2646 3.0814,-1.2646z" id="ID0.37750169076025486" fill="#ffffff" stroke-width="0.76083" stroke-linecap="butt"/><path d="M231.3302,169.95411c0.326,0 0.6211,0.4032 0.8348,1.0552c0.2141,0.6519 0.3463,1.5519 0.3463,2.5448c0,0.993 -0.1322,1.893 -0.3463,2.5449c-0.2137,0.652 -0.5088,1.0552 -0.8348,1.0552c-0.326,0 -0.6212,-0.4032 -0.8349,-1.0552c-0.214,-0.6519 -0.3463,-1.5519 -0.3463,-2.5449c0,-0.9929 0.1323,-1.8929 0.3463,-2.5448c0.2137,-0.652 0.5089,-1.0552 0.8349,-1.0552z" id="ID0.234124637208879" fill="#000000" stroke-width="1.0588" stroke-linecap="round"/></g><path d="M228.44456,167.46403l7.75,5" fill="none" stroke="#000000" stroke-width="2" stroke-linecap="round"/><path d="M250.94456,167.96403l-6.25,4.25" fill="none" stroke="#000000" stroke-width="2" stroke-linecap="round"/></g></g></svg>