<svg version="1.1" xmlns="http://www.w3.org/2000/svg" xmlns:xlink="http://www.w3.org/1999/xlink" width="370.77804" height="377.28449" viewBox="0,0,370.77804,377.28449"><defs><linearGradient x1="236.99876" y1="31.33515" x2="236.99876" y2="384.95589" gradientUnits="userSpaceOnUse" id="color-1"><stop offset="0" stop-color="#000000"/><stop offset="1" stop-color="#000000" stop-opacity="0"/></linearGradient><linearGradient x1="236.12458" y1="9.7633" x2="236.12458" y2="363.38407" gradientUnits="userSpaceOnUse" id="color-2"><stop offset="0" stop-color="#960000"/><stop offset="1" stop-color="#ff0000"/></linearGradient><linearGradient x1="268.27319" y1="196.12323" x2="246.03813" y2="-36.11138" gradientUnits="userSpaceOnUse" id="color-3"><stop offset="0" stop-color="#ffffff" stop-opacity="0"/><stop offset="1" stop-color="#ffffff"/></linearGradient></defs><g transform="translate(-51.17264,-7.67139)"><g data-paper-data="{&quot;isPaintingLayer&quot;:true}" fill-rule="nonzero" stroke-linejoin="miter" stroke-miterlimit="10" stroke-dasharray="" stroke-dashoffset="0" style="mix-blend-mode: normal"><g><path d="M419.48738,206.48519c0,58.54548 9.14947,134.33922 -36.62674,165.7421c-29.11266,19.97154 -103.69001,7.68133 -142.05194,7.68133c-32.45404,0 -131.95625,12.62302 -158.18752,-2.05614c-53.52897,-29.9551 -20.49116,-107.08769 -20.49116,-171.36729c0,-54.03495 -6.07011,-123.319 33.84333,-155.12451c30.83473,-24.57103 101.82621,-18.29891 144.83535,-18.29891c46.24992,0 124.43168,-9.9717 156.16106,18.01246c35.97026,31.72447 22.51762,104.52148 22.51762,155.41097z" data-paper-data="{&quot;index&quot;:null}" fill="url(#color-1)" stroke="none" stroke-width="0" stroke-linecap="butt"/><path d="M418.61319,184.91338c0,58.54548 9.14947,134.33922 -36.62674,165.7421c-29.11266,19.97154 -103.69001,7.68133 -142.05194,7.68133c-32.45404,0 -131.95625,12.62302 -158.18752,-2.05614c-53.52897,-29.9551 -20.49116,-107.08769 -20.49116,-171.36729c0,-54.03495 -6.07011,-123.319 33.84333,-155.12451c30.83473,-24.57103 101.82621,-18.29891 144.83535,-18.29891c46.24992,0 124.43168,-9.9717 156.16106,18.01246c35.97026,31.72447 22.51762,104.52148 22.51762,155.41097z" data-paper-data="{&quot;index&quot;:null}" fill="url(#color-2)" stroke="none" stroke-width="0" stroke-linecap="butt"/><path d="M166.56326,359.01158l-104.16535,-97.63235" data-paper-data="{&quot;index&quot;:null}" fill="none" stroke="#9d0000" stroke-width="0.5" stroke-linecap="round"/><path d="M66.08807,195.32876l174.39724,164.68214" data-paper-data="{&quot;index&quot;:null}" fill="none" stroke="#aa0000" stroke-width="0.5" stroke-linecap="round"/><path d="M307.97328,365.20201l-245.19727,-212.23469" data-paper-data="{&quot;index&quot;:null}" fill="none" stroke="#ad0000" stroke-width="0.5" stroke-linecap="round"/><path d="M67.64864,96.73937l294.63158,260.04848" data-paper-data="{&quot;index&quot;:null}" fill="none" stroke="#b40100" stroke-width="0.5" stroke-linecap="round"/><path d="M78.28809,47.74713c0,0 140.42373,128.88447 198.71724,182.38773c45.80642,42.04231 122.70096,112.61808 122.70096,112.61808" data-paper-data="{&quot;index&quot;:null}" fill="none" stroke="#cd0000" stroke-width="0.5" stroke-linecap="round"/><path d="M416.89741,299.29622l-308.73059,-275.69058" data-paper-data="{&quot;index&quot;:null}" fill="none" stroke="#cf0000" stroke-width="0.5" stroke-linecap="round"/><path d="M420.37662,251.23233l-272.80696,-237.73067" data-paper-data="{&quot;index&quot;:null}" fill="none" stroke="#d70000" stroke-width="0.5" stroke-linecap="round"/><path d="M215.43146,15.97727c0,0 10.02502,8.4233 88.70805,77.62354c86.21618,75.82551 111.83513,103.35242 111.83513,103.35242" data-paper-data="{&quot;index&quot;:null}" fill="none" stroke="#cc0000" stroke-width="0.5" stroke-linecap="round"/><path d="M413.43206,139.01776c-53.79868,-47.31492 -86.51711,-75.59608 -142.77729,-125.65779" data-paper-data="{&quot;index&quot;:null}" fill="none" stroke="#de0000" stroke-width="0.5" stroke-linecap="round"/><path d="M410.4453,68.12944c-22.5006,-19.78885 -36.18466,-31.61708 -59.71475,-52.55474" data-paper-data="{&quot;index&quot;:null}" fill="none" stroke="#f50000" stroke-width="0.5" stroke-linecap="round"/><g data-paper-data="{&quot;index&quot;:null}" stroke="#000000" stroke-width="2.5"><path d="M345.5782,181.30398c0,17.53333 12.45466,49.71765 -1.71272,62.3782c-18.76313,16.76748 -68.43503,11.41397 -100.645,11.41397c-31.37094,0 -76.50539,6.4793 -95.28145,-9.54174c-15.05851,-12.84898 -7.07627,-46.11221 -7.07627,-64.25044c0,-18.48063 -6.08531,-54.89932 9.48642,-67.84536c18.76772,-15.60315 61.97529,-5.94682 92.87128,-5.94682c25.25313,0 70.08253,-5.46654 87.93269,5.46195c22.10849,13.53558 14.42502,45.78154 14.42502,68.33023z" fill="#ffffff" stroke-linecap="butt"/><path d="M268.14458,196.34239l61.10006,-79.72451" fill="none" stroke-linecap="round"/><path d="M213.92904,204.63374l-65.40288,-85.46468" fill="none" stroke-linecap="round"/><path d="M332.98305,250.18996c5.03977,1.31311 -49.51004,6.79082 -90.87728,4.80183c-41.36725,-1.98899 -104.85775,-7.21959 -91.0772,-6.67742c8.34961,0.3285 46.37726,-38.66741 51.14917,-40.94354c14.28841,-6.81535 23.85397,-27.89855 45.79748,-26.84347c17.17977,0.82602 32.99617,20.63386 45.25206,26.0764c10.91276,4.8461 31.08424,41.32683 39.75577,43.58621z" fill="#ffffff" stroke-linecap="butt"/></g><path d="M63.27149,89.03901c-0.80957,-8.45561 4.66659,-11.96081 6.68563,-17.44423c2.62836,-7.13824 2.52717,-15.5428 7.0865,-21.24303c8.36903,-10.46323 17.73041,-21.69941 43.52237,-33.5711c31.22583,-14.37284 75.25162,-4.43611 117.67773,-6.33906c48.18459,-2.16124 66.25372,-4.46302 96.69831,-0.97876c11.42625,1.30769 38.7857,-5.59961 49.54534,1.72375c26.74793,18.20553 31.03766,35.36688 33.51943,61.28775c6.14004,64.12982 -38.50805,118.66006 -149.7336,123.64889c-111.22555,4.98883 -201.86466,-39.95141 -208.00471,-104.08122z" data-paper-data="{&quot;index&quot;:null}" fill="url(#color-3)" stroke="none" stroke-width="0" stroke-linecap="butt"/></g></g></g></svg>