<svg version="1.1" xmlns="http://www.w3.org/2000/svg" xmlns:xlink="http://www.w3.org/1999/xlink" width="383.18678" height="384.57828" viewBox="0,0,383.18678,384.57828"><defs><linearGradient x1="237.99877" y1="52.67138" x2="237.99877" y2="406.29211" gradientUnits="userSpaceOnUse" id="color-1"><stop offset="0" stop-color="#000000"/><stop offset="1" stop-color="#000000" stop-opacity="0"/></linearGradient><linearGradient x1="237.05097" y1="28.20368" x2="237.05097" y2="381.82441" gradientUnits="userSpaceOnUse" id="color-2"><stop offset="0" stop-color="#d4d4d4"/><stop offset="1" stop-color="#818889"/></linearGradient><linearGradient x1="52.09904" y1="205.01404" x2="422.0029" y2="205.01404" gradientUnits="userSpaceOnUse" id="color-3"><stop offset="0" stop-color="#d4d4d4"/><stop offset="1" stop-color="#b5b5b5"/></linearGradient></defs><g transform="translate(-44.59904,-21.71383)"><g data-paper-data="{&quot;isPaintingLayer&quot;:true}" fill-rule="nonzero" stroke-linecap="butt" stroke-linejoin="miter" stroke-miterlimit="10" stroke-dasharray="" stroke-dashoffset="0" style="mix-blend-mode: normal"><path d="M420.48739,227.82142c0,58.54548 9.14947,134.33922 -36.62674,165.7421c-29.11266,19.97154 -103.69001,7.68133 -142.05194,7.68133c-32.45404,0 -131.95625,12.62302 -158.18752,-2.05614c-53.52897,-29.9551 -20.49116,-107.08769 -20.49116,-171.36729c0,-54.03495 -6.07011,-123.319 33.84333,-155.12451c30.83473,-24.57103 101.82621,-18.29891 144.83535,-18.29891c46.24992,0 124.43168,-9.9717 156.16106,18.01246c35.97026,31.72447 22.51762,104.52148 22.51762,155.41097z" fill="url(#color-1)" stroke="none" stroke-width="0"/><path d="M419.53959,203.35372c0,58.54548 9.14947,134.33922 -36.62674,165.7421c-29.11266,19.97154 -103.69001,7.68133 -142.05194,7.68133c-32.45404,0 -131.95625,12.62302 -158.18752,-2.05614c-53.52897,-29.9551 -20.49116,-107.08769 -20.49116,-171.36729c0,-54.03495 -6.07011,-123.319 33.84333,-155.12451c30.83473,-24.57103 101.82621,-18.29891 144.83535,-18.29891c46.24992,0 124.43168,-9.9717 156.16106,18.01246c35.97026,31.72447 22.51762,104.52148 22.51762,155.41097z" fill="url(#color-2)" stroke="url(#color-3)" stroke-width="15"/></g></g></svg>