<svg version="1.1" xmlns="http://www.w3.org/2000/svg" xmlns:xlink="http://www.w3.org/1999/xlink" width="713.71023" height="407.83335" viewBox="0,0,713.71023,407.83335"><g transform="translate(116.8551,23.91664)"><g data-paper-data="{&quot;isPaintingLayer&quot;:true}" fill-rule="nonzero" stroke-linejoin="miter" stroke-miterlimit="10" stroke-dasharray="" stroke-dashoffset="0" style="mix-blend-mode: normal"><path d="M171.41917,48.95592v-37.99313l34.12943,-34.12942h104.96408l48.29636,48.29635v24.47015h35.41733v-33.48546h40.56894l36.70523,36.70523v51.51611h-22.5383v18.03064h39.92499v23.18225h47.00845v-21.89435h33.16349l27.04596,24.47015v30.90967l-26.40201,23.18225h-32.84152v-21.89434h-48.29635v28.33386h-39.28104v43.14475h21.89435v51.51611l-36.70523,41.7134h-40.56894v-38.49365h-16.74274v10.30322h9.01532v48.29636l-17.38669,17.38669h-48.94031l-18.67458,-18.67459v-45.72055h46.3645v-12.23507h-53.44797v77.27417h-67.6149l-37.99313,-37.99313h-128.14633v-48.9403h-31.55361v28.97781h-57.31168l-22.53829,-18.6746v-69.54675h29.62177v-43.7887h-21.89435v21.2504h-27.04596v27.68991h-17.38669l-28.33385,-18.03064v-98.52456l28.33386,-18.67459h18.03064v27.04595h26.40201v24.47015h22.5383v-40.56894h-29.62176v-70.83465l21.2504,-17.38669h58.59958v18.67459z" fill="none" stroke="#000000" stroke-width="1.5" stroke-linecap="round"/><path d="M30.07185,85.0172h80.49392v9.65927h-20.60644v77.27417l12.23508,14.81088h88.22134v-22.5383l-28.33385,-27.68991v-41.85684h-23.8262v-10.30322h33.48547v38.63708l42.50079,42.5008h35.41732v62.46329h-30.90967l-28.65583,28.65585v53.12599h-58.92156v-10.94718h22.5383l15.7768,-15.77681v-35.09535l22.05535,-22.05534v-20.44545h-87.41641v104.96407h-16.09879v-47.6524h-57.95562v-26.402h-22.5383v-43.78871h25.11411v21.2504h45.72055v-77.27417l-13.20101,-13.201h-15.77681l-16.58175,16.58174v18.51361h-25.27509v-41.85684h21.89435z" fill="#000000" stroke="#000000" stroke-width="0.5" stroke-linecap="round"/><path d="M359.13101,84.37325h34.12942v3.8637l17.70866,17.70867h9.98126v16.42076h-13.52298v-5.79556h-37.99314v7.72741l-26.40201,26.40201v25.75806h63.10724v-19.31854h55.37982v16.09878h-39.92499v77.91813h-10.30322l-18.35261,18.35262v4.18568h-99.49049v-44.43265h-14.81089v-8.37136h30.90966v43.14474h70.19071l14.48891,-14.48891v-62.1413h-115.58928v-21.25039h38.63708l41.85684,-41.85685z" fill="#000000" stroke="#000000" stroke-width="0.5" stroke-linecap="round"/><path d="M335.22141,29.84969c0,10.49341 -12.20024,19 -27.25,19c-15.04976,0 -27.25,-8.50659 -27.25,-19c0,-10.49341 12.20024,-19 27.25,-19c15.04976,0 27.25,8.50659 27.25,19z" fill="#000000" stroke="none" stroke-width="0" stroke-linecap="butt"/><path d="M245.28268,118.75984c0,10.49341 -12.20024,19 -27.25,19c-15.04976,0 -27.25,-8.50659 -27.25,-19c0,-10.49341 12.20024,-19 27.25,-19c15.04976,0 27.25,8.50659 27.25,19z" fill="#000000" stroke="none" stroke-width="0" stroke-linecap="butt"/><path d="M-50.6051,91.33336v-36.5h51.48775v36.5z" fill="#000000" stroke="none" stroke-width="0" stroke-linecap="butt"/><path d="M-51.1051,293.67485v-38h52.46324v38z" fill="#000000" stroke="none" stroke-width="0" stroke-linecap="butt"/><path d="M99.87501,253.63184v-14.75h43.75v14.75z" fill="#000000" stroke="none" stroke-width="0" stroke-linecap="butt"/><path d="M228.95437,328.99861c0,0 -7.17214,-12.63809 -7.45325,-23.33738c-0.03105,-1.18173 5.55064,-2.67838 5.52425,-3.68271c-0.25819,-9.82702 -0.7642,-29.08634 -0.7642,-29.08634c0,0 8.18765,-11.06648 12.32728,-11.06648c5.66016,0 12.98321,0 15.9347,0c2.91982,0 8.90212,7.5718 8.90212,7.5718c0,0 2.01505,8.12944 3.20968,15.46721c1.17016,7.18737 -1.39173,15.49368 -1.903,18.67784c-0.63298,3.94218 -9.83512,2.74067 -9.83512,2.74067c0,0 -0.18755,17.1671 -4.82957,16.63943c-2.20731,-0.25091 -6.1817,5.00829 -9.72461,6.09775c-5.89452,1.81259 -11.3883,-0.02178 -11.3883,-0.02178z" fill="#000000" stroke="none" stroke-width="0" stroke-linecap="butt"/><path d="M-115.71887,182.31793v-35h27v35z" fill="#000000" stroke="none" stroke-width="0" stroke-linecap="butt"/><path d="M420.83827,243.43499v18.73079l-19.48002,17.73182l-9.49027,0.24974l-0.49949,-8.24155" fill="none" stroke="#000000" stroke-width="1.5" stroke-linecap="round"/><path d="M393.86592,307.25735c0,0 12.98767,-1.05955 16.59486,0.17217c1.74514,0.5959 3.88414,6.82066 3.88414,6.82066l6.74309,0.99898l-0.24974,4.25482h-26.22311" fill="none" stroke="#000000" stroke-width="1.5" stroke-linecap="round"/><path d="M447.8106,330.98303v-23.97542h2.2477l5.49437,-2.74718l3.24667,-5.49437l0.74923,-4.49539l0.74923,-5.49437l-1.24872,-5.24462l-4.49539,-6.49334l-5.99385,-1.74821v-4.24565h22.47695" fill="none" stroke="#000000" stroke-width="1.5" stroke-linecap="round"/><path d="M337.89133,221.43796v-6.61111h29.65295v6.61111z" fill="#000000" stroke="#000000" stroke-width="2" stroke-linecap="butt"/><path d="M393.2718,109.00004v-24.5h27.66667v24.5z" fill="#000000" stroke="#000000" stroke-width="0.5" stroke-linecap="butt"/><path d="M394.2718,51.16671v-34.5h11.83333v34.5z" fill="#000000" stroke="#000000" stroke-width="0.5" stroke-linecap="butt"/><path d="M406.10513,42.66671v-26h7.33333v26z" fill="#000000" stroke="#000000" stroke-width="0.5" stroke-linecap="butt"/></g></g></svg>