<svg xmlns="http://www.w3.org/2000/svg" xmlns:xlink="http://www.w3.org/1999/xlink" version="1.1" width="148.5" height="251.67999267578125" viewBox="-0.5 -0.5 148.5 251.67999267578125">
  <!-- Exported by Scratch - http://scratch.mit.edu/ -->
  <g id="ID0.05868540471419692">
    <path id="ID0.29782875906676054" fill="#8C303C" d="M 123.370 224.190 L 85.050 228.190 L 52.050 228.190 L 25.370 224.190 L 25.370 32.190 L 123.370 32.190 L 123.370 224.190 " stroke-width="1"/>
    <path id="ID0.4450957113876939" fill="#781E29" d="M 104.840 75.930 L 114.830 73.250 L 121.030 59.470 L 110.420 47.680 L 100.430 46.650 L 92.430 50.940 L 87.050 63.580 L 95.230 70.170 L 104.840 75.930 " stroke-width="1"/>
    <path id="ID0.004068968817591667" fill="#781E29" d="M 57.360 145.660 L 104.190 138.870 L 115.940 100.040 L 100.110 78.080 L 74.530 68.070 L 32.440 74.880 L 30.120 100.730 L 32.750 129.710 L 57.360 145.660 " stroke-width="1"/>
    <path id="ID0.6682756789959967" fill="#781E29" d="M 112.920 181.280 L 117.880 162.010 L 111.170 151.070 L 100.240 146.050 L 82.110 149.490 L 81.120 162.480 L 82.210 176.580 L 92.870 184.690 L 112.920 181.280 " stroke-width="1"/>
    <path id="ID0.3802642887458205" fill="#781E29" d="M 48.360 220.720 L 38.910 210.270 L 27.110 220.330 L 27.600 224.190 L 39.720 228.190 L 49.570 225.190 L 48.360 220.720 " stroke-width="1"/>
    <path id="ID0.45402656123042107" fill="#781E29" d="M 72.200 180.140 L 63.040 187.590 L 65.480 197.590 L 71.960 200.190 L 78.640 198.930 L 86.960 191.940 L 84 185.840 L 79.830 180.230 L 72.200 180.140 " stroke-width="1"/>
    <path id="ID0.6023336132057011" fill="#781E29" d="M 52.470 201.920 L 66.320 177.660 L 65.610 160.840 L 57.800 149.940 L 38.860 148.570 L 31.680 165.580 L 25.750 185.010 L 31.570 199.840 L 52.470 201.920 " stroke-width="1"/>
    <path id="ID0.2321100295521319" fill="#781E29" d="M 90.680 198.200 L 56.120 208.190 L 56.760 226.190 L 82.380 233.190 L 121.030 226.190 L 122.890 215.590 L 113.060 201.980 L 90.680 198.200 " stroke-width="1"/>
    <path id="ID0.4177084397524595_11_" fill="none" d="M 0 0 L 147.500 0 L 147.500 250.680 L 0 250.680 L 0 0 Z " stroke-width="1"/>
    <path id="ID0.17349215224385262_85_" fill="#A34E42" d="M 109.440 46.590 L 118.660 56.830 L 113.380 68.560 L 105.130 70.770 L 96.360 65.530 L 89.470 59.980 L 94 49.370 L 100.840 45.710 L 109.440 46.590 " stroke-width="1"/>
    <path id="ID0.9350403365679085" fill="#5E2028" d="M 25.370 30.320 L 25.310 49.940 L 29 56.890 L 36.470 48.710 L 38.230 51.130 L 43.660 46.700 L 47.540 54.590 L 50.410 51.190 L 52.350 53.910 L 54.970 51.460 L 57.860 56.510 L 61.700 48.870 L 64.890 57.890 L 72.760 48.710 L 75.630 54.610 L 79.850 50.890 L 81.680 52.620 L 83.700 47.880 L 89.390 54.680 L 92.180 45.750 L 96.300 53.990 L 98.310 48.350 L 100.130 48.040 L 101.810 46.060 L 107.830 58.020 L 111.800 48.950 L 113.310 52.130 L 118.900 47.530 L 123.150 50.180 L 123.410 40.970 L 122.840 30.510 L 25.370 30.320 " stroke-width="1"/>
    <path id="ID0.17349215224385262_84_" fill="#BA594B" d="M 113.730 97.400 L 102.640 134.070 L 57.810 140.570 L 34.640 125.550 L 32.110 97.720 L 34.280 73.600 L 74.300 67.130 L 98.820 76.720 L 113.730 97.400 " stroke-width="1"/>
    <path id="ID0.17349215224385262_83_" fill="#B3655A" d="M 115.730 159.330 L 111.300 176.520 L 93.390 179.570 L 84.130 172.530 L 83.120 159.480 L 83.990 148.170 L 99.980 145.140 L 109.780 149.640 L 115.730 159.330 " stroke-width="1"/>
    <path id="ID0.3043316355906427" fill="#C76455" d="M 46.600 218.760 L 38.730 210.050 L 29.230 218.150 L 29.990 224.190 L 40.380 226.190 L 48.490 224.190 L 46.600 218.760 " stroke-width="1"/>
    <path id="ID0.17349215224385262_78_" fill="#D06454" d="M 67.180 193.110 L 65.290 185.340 L 72.910 179.140 L 78.830 179.210 L 82.300 183.870 L 84.500 188.400 L 77.770 194.050 L 72.190 195.100 L 67.180 193.110 " stroke-width="1"/>
    <path id="ID0.17349215224385262_68_" fill="#AB483B" d="M 64.300 174.170 L 51.370 196.800 L 32.980 194.970 L 27.870 181.920 L 33.570 163.250 L 40.150 147.660 L 56.730 148.860 L 63.650 158.520 L 64.300 174.170 " stroke-width="1"/>
    <path id="ID0.0772820021957159" fill="#D06454" d="M 90.790 197.240 L 58.180 206.680 L 58.860 223.660 L 60.010 226.190 L 83.050 230.690 L 119.300 225.190 L 121.700 213.340 L 112.170 200.860 L 90.790 197.240 " stroke-width="1"/>
    <path id="ID0.931133359670639" fill="#39B54A" d="M 120.660 26.460 L 115.250 28.100 L 115.530 27.310 L 109.490 26.380 L 101.300 28.480 L 95.150 26.820 L 89.690 27.530 L 89.680 26.780 L 82.070 26.820 L 77.960 28.440 L 78.060 28.100 L 70.610 26.550 L 60.050 28.100 L 60.100 28.340 L 56.370 27.330 L 50.480 28.100 L 50.550 28.580 L 45.790 27.590 L 41.760 28.490 L 41.880 28.100 L 34.420 26.550 L 23.860 28.100 L 24.600 31.780 L 23.590 31.230 L 21.340 33.080 L 21.870 39.190 L 24.090 45.790 L 26.420 40.840 L 29.030 53.890 L 38.570 38.710 L 38.340 46.130 L 45.810 39.700 L 48.730 51.590 L 50.620 42.190 L 52.580 49.910 L 54.220 42.460 L 58.130 51.510 L 62.010 37.870 L 65.220 53.890 L 74.960 38.380 L 75.170 37.710 L 76.060 49.610 L 81.310 42.890 L 82.160 46.620 L 85.200 39.880 L 89.940 49.680 L 89.720 30.480 L 90.750 36.750 L 96.910 50.990 L 99.930 40.350 L 100.770 44.040 L 103.460 38.060 L 108.530 54.020 L 113.530 32.950 L 114.470 30.310 L 114.050 48.130 L 121.690 38.530 L 126.370 46.440 L 127 34.450 L 124.660 28.510 L 120.660 26.460 " stroke-width="1"/>
    <path id="ID0.7184775774367154" fill="#8CE83F" d="M 27.550 28.920 L 29.510 46.460 L 32.820 35.310 L 37.930 28.680 L 34.330 27.930 L 27.550 28.920 " stroke-width="1"/>
    <path id="ID0.17296710703521967" fill="#8CE83F" d="M 52.420 28.880 L 55.790 35.040 L 57.360 44.980 L 60.420 29.900 L 55.270 28.510 L 52.420 28.880 " stroke-width="1"/>
    <path id="ID0.5821420573629439" fill="#8CE83F" d="M 97.380 29.020 L 92.230 30.420 L 95.800 45.500 L 97.380 33.490 L 100.220 29.390 L 97.380 29.020 " stroke-width="1"/>
    <path id="ID0.13717208476737142" fill="#8CE83F" d="M 43.570 28.920 L 39.850 40.770 L 45.600 32.890 L 48.900 41.990 L 49.300 34.880 L 48.800 29.480 L 43.570 28.920 " stroke-width="1"/>
    <path id="ID0.14930355921387672" fill="#8CE83F" d="M 85.450 28.030 L 78.670 29.100 L 77.500 42.500 L 81.990 32.040 L 88.150 39.220 L 88.100 32.700 L 85.450 28.030 " stroke-width="1"/>
    <path id="ID0.6599686308763921" fill="#8CE83F" d="M 70.520 27.930 L 63.740 28.920 L 66.730 41.290 L 74.180 32.200 L 74.110 28.680 L 70.520 27.930 " stroke-width="1"/>
    <path id="ID0.26209660805761814" fill="#8CE83F" d="M 50.770 36.190 L 51.470 39.860 L 52.400 45.880 L 53.950 36.640 L 51.920 34.350 L 50.770 36.190 " stroke-width="1"/>
    <path id="ID0.09489138703793287" fill="#8CE83F" d="M 81.460 36.690 L 81.850 39.370 L 82.290 43.720 L 84.540 37.590 L 82.730 35.620 L 81.460 36.690 " stroke-width="1"/>
    <path id="ID0.517822842579335" fill="#8CE83F" d="M 100.070 34.100 L 100.460 36.780 L 100.900 41.130 L 103.150 35.010 L 101.340 33.040 L 100.070 34.100 " stroke-width="1"/>
    <path id="ID0.13118042005226016" fill="#8CE83F" d="M 22.580 33.360 L 22.870 37.030 L 23.870 41.280 L 25.250 34.190 L 24.040 32.110 L 22.580 33.360 " stroke-width="1"/>
    <path id="ID0.7654445394873619" fill="#8CE83F" d="M 123.210 29.150 L 117.780 28.230 L 115.750 41.300 L 120.150 31.610 L 124.420 39.590 L 124.750 33.690 L 123.210 29.150 " stroke-width="1"/>
    <path id="ID0.5365798049606383" fill="#8CE83F" d="M 102.930 29.460 L 106.160 34.580 L 108.260 46.530 L 110.630 32.470 L 113.230 28.130 L 109.570 27.760 L 102.930 29.460 " stroke-width="1"/>
  </g>
</svg>