<svg version="1.1" xmlns="http://www.w3.org/2000/svg" xmlns:xlink="http://www.w3.org/1999/xlink" width="275.6058" height="209.72441" viewBox="0,0,275.6058,209.72441"><defs><linearGradient x1="212.18884" y1="32.19135" x2="212.18884" y2="238" gradientUnits="userSpaceOnUse" id="color-1"><stop offset="0" stop-color="#ffffff"/><stop offset="1" stop-color="#00ff14"/></linearGradient></defs><g transform="translate(-114.39586,-32.10715)"><g data-paper-data="{&quot;isPaintingLayer&quot;:true}" fill-rule="nonzero" stroke-linecap="butt" stroke-linejoin="miter" stroke-miterlimit="10" stroke-dasharray="" stroke-dashoffset="0" style="mix-blend-mode: normal"><path d="M248.71596,189.3797c5.95266,-1.98422 7.93688,3.96844 7.93688,3.96844l1.54371,5.70512c3.92719,2.39441 6.90614,6.16315 10.86158,8.51058c2.27513,1.35022 5.27695,1.12242 7.52958,2.50986c5.74858,3.54065 9.33431,12.1985 16.08855,14.39129c4.1988,1.36316 8.82634,-0.26923 13.24087,-0.26923c5.25101,0 10.8041,2.03105 15.75074,0.26923c2.53307,-0.9022 4.19117,-3.43817 6.5911,-4.65092c2.18041,-1.10182 4.87649,-0.98137 6.98759,-2.21079c3.85273,-2.24368 5.87872,-6.7692 9.36016,-9.55436c2.19624,-1.75699 5.08557,-2.61181 7.07079,-4.60412c2.12917,-2.13677 2.8731,-5.41035 5.01972,-7.52958c0.34258,-0.3382 14.9942,-10.21263 16.01547,-10.82342c1.75472,-1.04944 4.36827,-1.04237 5.47793,-2.75964c0.83739,-1.29592 -0.64793,-3.02882 -0.74245,-4.56884c-0.13809,-2.25013 0.03134,-4.50861 0.04701,-6.76292c-2.20817,-8.83266 -0.99437,-16.2878 -2.47586,-24.86018c-0.45054,-2.60698 -2.10547,-4.91504 -2.50986,-7.52958c-0.31315,-2.02469 1.08693,-4.20451 0.39661,-6.13347c-0.53035,-1.48195 -2.50539,-1.91385 -3.65954,-2.98408c-5.42473,-5.03029 -9.36408,-9.65404 -13.45,-16.19724c-2.32999,-3.73124 -5.47991,-18.70702 -11.53992,-19.88211c-3.01981,-0.58557 -6.1793,0.61039 -9.22624,0.18821c-2.62059,-0.36311 -4.9226,-2.05932 -7.52958,-2.50986c-7.67665,-1.32668 -18.11066,-1.09846 -25.83673,0.03401c-6.10579,0.89497 -12.16476,2.5219 -18.33569,2.55687c0,0 -6.27465,0 -6.27465,-6.27465c0,-6.27465 6.27465,-6.27465 6.27465,-6.27465c5.6605,0.03935 11.19599,-1.68105 16.80237,-2.46285c8.80475,-1.22781 20.60699,-1.38096 29.38022,0.03401c2.61187,0.42125 4.91201,2.12566 7.52958,2.50986c3.57974,0.52542 7.43091,-0.98749 10.85266,0.18821c13.65004,4.69012 12.09285,14.92924 18.57842,25.2954c3.97406,6.35192 15.16152,14.21523 18.02851,20.97647c1.16264,2.74185 -0.1214,5.99293 0.39661,8.9257c0.46017,2.6053 2.08861,4.91771 2.50986,7.52958c1.47002,9.11457 0.2212,16.04636 2.54387,25.33705c0.01536,2.7118 0.30754,17.06014 -0.69544,18.78657c-4.5225,7.78456 -17.53681,10.29661 -23.68411,16.53528c-2.11718,2.14865 -2.88321,5.40016 -5.01972,7.52958c-2.28117,2.2736 -5.47342,3.42336 -7.98837,5.43533c-3.01768,2.41414 -7.67919,8.65985 -10.71873,10.52453c-2.42827,1.48968 -5.5191,1.54386 -8.07159,2.80894c-2.99773,1.48575 -5.27928,4.37587 -8.46807,5.38852c-1.15118,0.36558 -18.62116,0.26924 -19.38733,0.26924c-1.91293,0 -15.86829,0.07225 -16.87746,-0.26924c-9.3922,-3.17819 -11.49858,-11.34064 -19.04951,-15.72705c-2.28764,-1.32891 -5.26685,-1.13896 -7.52959,-2.50986c-5.22985,-3.16855 -9.25153,-8.02773 -14.23704,-11.56831l-3.47601,-9.35404c0,0 -1.98422,-5.95266 3.96844,-7.93688z" fill="#000000" stroke="none" stroke-width="0.5"/><path d="M281.88419,233.08417c-17.26716,10.07991 -149.3443,17.86234 -166.10347,-14.71412c-6.55715,-12.74577 12.50402,-108.75728 8.79336,-155.12876c-1.18086,-14.75705 58.31443,-31.04993 58.61477,-31.04993c3.07332,0 65.50434,-2.41261 96.14746,18.58837c25.48548,17.46624 33.79662,164.06263 2.54788,182.30445z" fill="url(#color-1)" stroke="none" stroke-width="0"/><path d="M289.26921,75.34914c0,23.56469 -32.08221,43.66764 -77.82543,43.66764c-45.74322,0 -82.82543,-19.10295 -82.82543,-42.66764c0,-23.56469 37.08221,-42.66765 82.82543,-42.66765c45.74323,0 77.82544,18.10296 77.82544,41.66765z" fill="none" stroke="#612f00" stroke-width="2.5"/></g></g></svg>