<svg version="1.1" xmlns="http://www.w3.org/2000/svg" xmlns:xlink="http://www.w3.org/1999/xlink" width="90.62853" height="95" viewBox="0,0,90.62853,95"><g transform="translate(-203.87147,-136.6)"><g data-paper-data="{&quot;isPaintingLayer&quot;:true}" fill="none" fill-rule="nonzero" stroke="none" stroke-width="none" stroke-linecap="none" stroke-linejoin="none" stroke-miterlimit="10" stroke-dasharray="" stroke-dashoffset="0" font-family="none" font-weight="none" font-size="none" text-anchor="none" style="mix-blend-mode: normal"><g stroke-width="1.4" stroke-linecap="round" stroke-linejoin="round"><path d="M244.7,197.9l-5.1,13.7c0,0 1.6,-0.8 -3.2,2.3c-2.8,1.8 -16.6,-2.6 -18.5,-7.5c-1.2,-3.4 5.4,-18.2 5.4,-18.2z" id="ID0.26344340899959207_21_" fill="#518943" stroke="#426c36"/><path d="M229.6,177.6c1.4,0.4 2.4,1.6 2.9,3.1c0.5,1.5 0.6,3.5 0,5.4c-0.6,2 -1.7,3.6 -2.9,4.6c-1.3,1 -2.8,1.4 -4.1,1c-1.3,-0.4 -2.4,-1.6 -2.9,-3.1c-0.5,-1.5 -0.6,-3.5 0,-5.4c0.6,-2 1.7,-3.6 2.9,-4.6c1.3,-1 2.7,-1.4 4.1,-1z" id="ID0.2414738917723298_21_" fill="#fefbdf" stroke="#70715e"/><path d="M228.7,180.7c0.7,0.2 1.3,0.9 1.6,1.7c0.3,0.9 0.3,1.9 0,3c-0.3,1.1 -0.9,2 -1.6,2.5c-0.7,0.6 -1.5,0.8 -2.2,0.6c-0.7,-0.2 -1.3,-0.9 -1.6,-1.7c-0.3,-0.9 -0.3,-1.9 0,-3c0.3,-1.1 0.9,-2 1.6,-2.5c0.6,-0.5 1.4,-0.8 2.2,-0.6z" id="ID0.6192030962556601_21_" fill="#fefbdf" stroke="#70715e"/><path d="M220.5,205.7c-0.7,-1.1 1.6,-6.6 1.6,-6.6l5.9,3.1l-2.6,7.2c0,0 -4.2,-2.7 -4.9,-3.7z" id="ID0.15330331353470683_21_" fill="#518943" stroke="#426c36"/></g><path d="M239.6,205.6" id="ID0.39854341372847557_21_" fill="#faa51f" stroke="#8e5322" stroke-width="1.4" stroke-linecap="round" stroke-linejoin="round"/><g id="ID0.16171270422637463_22_" stroke="#8e5322" stroke-width="1.4" stroke-linecap="round" stroke-linejoin="round"><path d="M237.8,213.1c0,0 -6.6,2.6 -13.4,8.2c-3,2.4 4.6,5.8 -1.8,9.6c-1.8,1 -6.9,-6.7 -7.4,-8.9c-0.5,-2 -0.2,-2.8 1.6,-3.7c6.6,-3.2 13.8,-13.8 13.8,-13.8" id="ID0.007584026083350182_22_" fill="#ffffff"/><path d="M222.4,221.7c1.1,1.1 1.7,2.3 1.7,2.3" id="ID0.31672530295327306_22_" fill="#faa51f"/></g><g id="Layer_3_22_"><path d="M237.5,205.9c0.9,0.4 2.7,0.9 1.1,4.8c-1.7,4 -8.4,6 -9.2,6.2c-3,0.7 -6.8,1.5 -11.3,0.9c-12.8,-1.6 -15.6,-14.8 -12.2,-17.7c3.4,-2.9 6.8,4.9 13.2,8.8c2.9,1.8 5.9,2 8.4,2c3.5,0.1 9,-5.1 10,-5z" id="ID0.8535828334279358_21_" fill="#faa51f" stroke="none" stroke-width="1" stroke-linecap="butt" stroke-linejoin="miter"/><path d="M211.4,202.3c2.2,2.1 6.2,5.8 6.2,5.8c0,0 -4.2,0.2 -5.9,2.4c-1.7,2.2 1.4,5.7 -0.4,5c-1.5,-1 -3.9,-2.8 -5.6,-6.1c-1.6,-3.3 -1.4,-8.3 0.4,-9.4c2,-1 3.4,0.3 5.3,2.3z" id="ID0.914295740891248_21_" fill="#ffffff" stroke="none" stroke-width="1" stroke-linecap="butt" stroke-linejoin="miter"/><path d="M237.5,205.9c0.9,0.4 2.7,0.9 1.1,4.8c-1.7,4 -8.4,6 -9.2,6.2c-3,0.7 -6.8,1.5 -11.3,0.9c-12.8,-1.6 -15.6,-14.8 -12.2,-17.7c3.4,-2.9 6.8,4.9 13.2,8.8c2.9,1.8 5.9,2 8.4,2c3.5,0.1 9,-5.1 10,-5z" id="ID0.40227043256163597_21_" fill="#ffffff" stroke="#8e5322" stroke-width="1.4" stroke-linecap="round" stroke-linejoin="round"/></g><path d="M251.6,199.9c-1.9,6.4 -3,16.3 -14.4,13c-11.4,-3.4 -7.8,-11.7 -5.9,-18.1c1.9,-6.4 6.3,-7 12.8,-5.1c6.3,1.9 9.4,3.8 7.5,10.2z" id="ID0.46792364912107587_21_" fill="#ffffff" stroke="#8e5322" stroke-width="1.4" stroke-linecap="round" stroke-linejoin="round"/><path d="M253.3,203c-1.2,4 -4.8,4.5 -10.9,2.6c-1.7,-0.5 -1.3,-1.2 -0.2,-5.2c1.1,-4 3.6,-4.6 7.2,-3.5c3.5,1 5.1,2 3.9,6.1z" id="ID0.38032895559445024_21_" fill="#bababa" stroke="none" stroke-width="1" stroke-linecap="butt" stroke-linejoin="miter"/><g id="ID0.7407716196030378_21_" stroke="#8e5322" stroke-width="1.4" stroke-linecap="round" stroke-linejoin="round"><path d="M226,203c-3.3,-3.4 3.3,-12.6 11.3,-15.9l7.2,3.6" id="ID0.15909873321652412_21_" fill="#ffffff"/><path d="M233.7,198.5" id="ID0.8024068027734756_21_" fill="#faa51f"/><path d="M237.2,197.7" id="ID0.06734407460317016_21_" fill="none"/><path d="M233.7,198.5l3.7,-3.2" id="ID0.8143284288235009_21_" fill="#faa51f"/><path d="M232.6,197.9l1.1,0.6" id="ID0.6682511982508004_21_" fill="none"/></g><g id="ID0.32291418174281716_21_" stroke="#8e5322" stroke-width="1.4" stroke-linecap="round" stroke-linejoin="round"><path d="M250,193.6l4.2,0.5c4.4,4.2 7,14.1 0.9,16.4" id="ID0.30105241015553474_21_" fill="#ffffff"/><path d="M251.6,203.8" id="ID0.3822403196245432_21_" fill="#faa51f"/><path d="M249.6,201.6" id="ID0.5879319808445871_21_" fill="none"/><path d="M251.6,199.9v3.9" id="ID0.7841392233967781_21_" fill="#faa51f"/><path d="M252.7,203.8h-1.1" id="ID0.4326359131373465_21_" fill="none"/></g><path d="M228.9,205.3c19,-9.2 6.2,-18.4 6.2,-18.4c16.2,10.1 -1.8,21 -6.4,21.4" id="ID0.48627097019925714_21_" fill="#518943" stroke="#426c36" stroke-width="1.4" stroke-linecap="round" stroke-linejoin="round"/><path d="M249.3,204.3c6.5,-7.3 -2.6,-14 -2.6,-14c10.3,5.8 7.6,11.3 4.1,15.8" id="ID0.07006075512617826_21_" fill="#518943" stroke="#426c36" stroke-width="1.4" stroke-linecap="round" stroke-linejoin="round"/><path d="M232.6,197.9c5.9,-0.2 7.9,3.7 7.3,5.3c-1.3,3.8 -6.2,4.2 -13.9,0" id="ID0.1790580078959465_21_" fill="#ffffff" stroke="#8e5322" stroke-width="1.4" stroke-linecap="round" stroke-linejoin="round"/><path d="M255.1,210.5c-6.2,2.7 -8.9,-1.9 -6.8,-4.5c1.4,-1.9 3.5,-3.6 6.2,-1.4" id="ID0.7947451807558537_21_" fill="#ffffff" stroke="#8e5322" stroke-width="1.4" stroke-linecap="round" stroke-linejoin="round"/><g><g id="Layer_2_43_"><path d="M260.3,146.4l8,-6.1l1.4,11.5c0,0 5.6,5.3 7.1,8.7c2.4,5.6 2,9.9 2,9.9c0,0 6.5,2.9 7.1,8.5c0.6,5.6 -5,15.5 -23.5,16.8c-18.5,1.4 -32.4,-5.3 -37.9,-17.2c-5.4,-11.7 6.9,-23.5 6.2,-22.8l0.1,-18.4l11.5,9.7c0,0 4.5,-1.2 9.1,-0.8c1.7,0.1 4.7,0.7 6.2,1z" id="ID0.2591130444779992_21_" fill="#faa51f" stroke="none" stroke-width="1" stroke-linecap="butt" stroke-linejoin="miter"/><path d="M278.4,170.8c0,0 6.4,2.4 6.9,8c0.8,5.6 -5.4,15.3 -22.8,16.3c-4,0.2 -7.5,0.5 -13,-0.2c-8.5,-0.9 -17.1,-7.3 -15.1,-18.3c1.2,-6.3 9.2,-4.8 9.2,-4.8l7.3,-0.9c0,0 6.8,2.5 11.1,2.1c4.3,-0.4 4.7,-3.7 4.7,-3.7l9.1,-1.5l2.1,2.3z" id="ID0.3588979784399271_21_" fill="#ffffff" stroke="none" stroke-width="1" stroke-linecap="butt" stroke-linejoin="miter"/><path d="M293.8,175.6c0,0 -2.1,1 -4.9,1.1c-2.3,0.1 -6.7,-0.6 -6.7,-0.6" id="ID0.2727069961838424_21_" fill="none" stroke="#8e5322" stroke-width="1.4" stroke-linecap="round" stroke-linejoin="round"/><path d="M291.1,186.1c0,0 -1.8,-0.3 -4.3,-1.4c-2.6,-1 -4.8,-2.8 -4.8,-2.8" id="ID0.5861211125738919_21_" fill="none" stroke="#8e5322" stroke-width="1.4" stroke-linecap="round" stroke-linejoin="round"/><path d="M244.9,149.4l-4.7,-4.2" id="ID0.4793355236761272_21_" fill="none" stroke="#8e5322" stroke-width="1.4" stroke-linecap="round" stroke-linejoin="round"/><path d="M260.3,146.4l8,-6.1l1.4,11.5c0,0 5.6,5.3 7.1,8.7c2.4,5.6 2,9.9 2,9.9c0,0 6.5,2.9 7.1,8.5c0.6,5.6 -5,15.5 -23.5,16.8c-18.5,1.4 -32.4,-5.3 -37.9,-17.2c-5.4,-11.7 6.9,-23.5 6.2,-22.8l0.1,-18.4l11.5,9.7c0,0 4.5,-1.2 9.1,-0.8c1.7,0.1 4.7,0.7 6.2,1z" id="ID0.48413723474368453_21_" fill="none" stroke="#8e5322" stroke-width="1.4" stroke-linecap="round" stroke-linejoin="round"/><path d="M224.4,174c0,0 -3.4,0.8 -5.2,1.1c-1.8,0.3 -5.8,0.3 -5.8,0.3" id="ID0.9024141579866409_21_" fill="none" stroke="#8e5322" stroke-width="1.4" stroke-linecap="round" stroke-linejoin="round"/><path d="M212.7,165.6c0,0 2.2,0.3 6.3,1.8c3.8,1.4 3.8,1.4 6.1,2.9" id="ID0.16030752705410123_21_" fill="none" stroke="#8e5322" stroke-width="1.4" stroke-linecap="round" stroke-linejoin="round"/></g><g id="Layer_5_22_"><path d="M274.6,160.2c2.3,4.6 1.7,9.6 -1.1,10.9c-2.9,1.5 -7.1,-1.2 -9.4,-5.9c-2.3,-4.6 -1.7,-9.6 1.1,-10.9c2.9,-1.3 7.1,1.3 9.4,5.9z" id="ID0.40023312577977777_21_" fill="#ffffff" stroke="#8e5322" stroke-width="1.4" stroke-linecap="round" stroke-linejoin="round"/><path d="M274.1,163.8c0.2,1 -0.4,2 -1.5,2.1c-0.9,0.2 -1.8,-0.5 -2,-1.7c-0.2,-1 0.4,-2 1.5,-2.1c1,0 1.8,0.7 2,1.7" id="ID0.43813491938635707_21_" fill="#414142" stroke="none" stroke-width="1" stroke-linecap="butt" stroke-linejoin="miter"/></g><g id="Layer_7_22_"><path d="M251.2,160.5c2.3,4.6 1.3,9.7 -2.1,11.4c-3.4,1.7 -8.1,-0.7 -10.3,-5.4c-2.3,-4.6 -1.3,-9.7 2.1,-11.4c3.4,-1.6 8,0.8 10.3,5.4z" id="ID0.4253597157076001_21_" fill="#ffffff" stroke="#8e5322" stroke-width="1.4" stroke-linecap="round" stroke-linejoin="round"/><path d="M250.4,164.3c-0.1,1 -1,1.8 -1.9,1.7c-1,-0.1 -1.6,-1 -1.5,-2.1c0.1,-1 1,-1.8 1.9,-1.7c1,0.1 1.7,1 1.5,2.1" id="ID0.814307457767427_21_" fill="#414142" stroke="none" stroke-width="1" stroke-linecap="butt" stroke-linejoin="miter"/></g><path d="M260.9,171.6c1.7,0 4.2,-1 4.2,0.9c-0.1,0.8 -2.1,3.9 -3.9,3.8c-2,-0.1 -5.2,-3.1 -4.9,-4.5c0.3,-1.4 3.1,-0.1 4.6,-0.2z" id="ID0.5240494590252638_21_" fill="#5f4b43" stroke="#8e5322" stroke-width="1.4" stroke-linecap="round" stroke-linejoin="round"/><path d="M257.7,188c-5.5,0.4 -7.7,-2.2 -7.7,-2.2" id="ID0.046259244438260794_21_" fill="#ffffff" stroke="#8e5322" stroke-width="1.4" stroke-linecap="round" stroke-linejoin="round"/></g><g id="ID0.15723733883351088_24_" stroke="#8e5322" stroke-width="1.4" stroke-linecap="round" stroke-linejoin="round"><path d="M243.7,205.5c0.4,0.1 7.2,1.2 7.6,1.3c7.9,2.3 4.9,6.3 2.7,8c-8.5,5.7 0.6,8 -7.2,10.2c-2.4,0.5 -4.1,-4.1 -4.8,-6.1c-1.6,-4.4 0,-1.7 3.1,-4.1c-1.1,-0.8 -6.4,-1.8 -6.4,-1.8" id="ID0.527006761636585_24_" fill="#ffffff"/><path d="M248.8,219c1.2,-0.8 2.6,-2.2 3.6,-2.7" id="ID0.8937406223267317_34_" fill="#faa51f"/><path d="M247.9,214.4c-0.5,0.2 -2.9,-0.2 -4.2,-0.2" id="ID0.8937406223267317_33_" fill="#faa51f"/></g></g></g></svg>