<svg xmlns="http://www.w3.org/2000/svg" xmlns:xlink="http://www.w3.org/1999/xlink" version="1.1" width="25" height="26.79079818725586" viewBox="0.5 0.5 25 26.79079818725586">
  <!-- Exported by Scratch - http://scratch.mit.edu/ -->
  <g id="ID0.3591004814952612">
    <path id="ID0.5185317564755678" fill="#327F40" stroke="#FFFFFF" stroke-width="0.9203675389289856" stroke-linecap="round" d="M 15.7521 13.1629 C 16.4249 13.1629 17.0351 13.4362 17.4759 13.878 C 17.9177 14.3188 18.191 14.929 18.191 15.6018 C 18.191 16.2746 17.9177 16.8848 17.4759 17.3257 C 17.0351 17.7675 16.4249 18.0408 15.7521 18.0408 C 15.0793 18.0408 14.4691 17.7675 14.0282 17.3257 C 13.5864 16.8848 13.3131 16.2746 13.3131 15.6018 C 13.3131 14.929 13.5864 14.3188 14.0282 13.878 C 14.4691 13.4362 15.0793 13.1629 15.7521 13.1629 Z "/>
    <path id="ID0.5185317564755678" fill="#327F40" stroke="#FFFFFF" stroke-width="0.9203675389289856" d="M 11.6521 20.4129 C 12.3249 20.4129 12.9351 20.6862 13.3759 21.128 C 13.8177 21.5688 14.091 22.179 14.091 22.8518 C 14.091 23.5246 13.8177 24.1348 13.3759 24.5757 C 12.9351 25.0175 12.3249 25.2908 11.6521 25.2908 C 10.9793 25.2908 10.3691 25.0175 9.9282 24.5757 C 9.4864 24.1348 9.2131 23.5246 9.2131 22.8518 C 9.2131 22.179 9.4864 21.5688 9.9282 21.128 C 10.3691 20.6862 10.9793 20.4129 11.6521 20.4129 Z "/>
    <path id="ID0.5185317564755678" fill="#327F40" stroke="#FFFFFF" stroke-width="0.9203675389289856" d="M 10.0021 7.1629 C 10.6749 7.1629 11.2851 7.4362 11.7259 7.878 C 12.1677 8.3188 12.441 8.929 12.441 9.6018 C 12.441 10.2746 12.1677 10.8848 11.7259 11.3257 C 11.2851 11.7675 10.6749 12.0408 10.0021 12.0408 C 9.3293 12.0408 8.7191 11.7675 8.2782 11.3257 C 7.8364 10.8848 7.5631 10.2746 7.5631 9.6018 C 7.5631 8.929 7.8364 8.3188 8.2782 7.878 C 8.7191 7.4362 9.3293 7.1629 10.0021 7.1629 Z "/>
    <path id="ID0.9509237096644938" fill="none" stroke="#327F40" stroke-width="4" stroke-linecap="round" d="M 23.5 11 L 20.75 2.5 L 4.75 2.5 L 2.5 11.25 "/>
  </g>
</svg>