<svg xmlns="http://www.w3.org/2000/svg" xmlns:xlink="http://www.w3.org/1999/xlink" version="1.1" width="154.2770111741265" height="162.32020880596244" viewBox="0.18799995473820552 0.5059999137302099 154.2770111741265 162.32020880596244">
  <!-- Exported by Scratch - http://scratch.mit.edu/ -->
  <g id="ID0.2712148008868098">
    <path id="ID0.7152078151702881_1_" fill="#FAA51D" stroke="#000000" d="M 52.2488 137.0278 C 48.2535 134.9156 43.6504 131.8294 40.5692 126.6443 C 33.6789 115.0496 35.0427 99.8857 27.1364 101.4439 C 19.2226 103.0032 12.2073 126.005 31.3129 139.7101 C 37.8951 144.4377 44.5923 146.5331 50.0693 148.0764 C 51.508 148.4742 63.9772 151.1453 69.9926 146.4305 C 76.0083 141.7143 73.5905 139.3222 72.4288 138.0507 C 71.2632 136.7804 57.8983 140.0129 52.2488 137.0278 L 52.2488 137.0278 Z " stroke-width="0.9999999798563279"/>
    <path id="ID0.4691764716990292_1_" fill="#FFFFFF" d="M 27.9858 102.2007 C 24.1581 102.1902 19.8555 109.2956 19.7041 115.9615 C 19.5504 122.6349 21.5841 126.2199 22.991 129.3077 C 25.1074 131.9649 23.0391 124.697 27.6495 122.764 C 32.2456 120.8365 38.2146 124.2929 38.2146 124.2929 C 38.2146 124.2929 35.2858 115.7032 33.686 110.5637 C 32.1881 105.6495 31.9881 102.4794 27.9858 102.2007 L 27.9858 102.2007 Z " stroke-width="0.9999999798563279"/>
  </g>
  <path id="ID0.7115552560426295" fill="#FAA51D" stroke="#000000" stroke-width="1.2000000355650606" d="M 111.2632 139.2386 C 109.5882 140.315 107.442 140.6091 105.4371 139.8463 L 88.2096 133.2948 C 86.1312 132.5044 84.6008 130.7073 84.1531 128.529 L 80.4688 110.6118 C 79.7463 107.0947 82.0129 103.6599 85.5261 102.9351 C 89.0432 102.2125 92.48 104.4767 93.2028 107.9924 L 96.1681 122.4128 L 110.0581 127.6952 C 113.4135 128.9718 115.0984 132.7255 113.8232 136.0812 C 113.3091 137.4332 112.3933 138.5131 111.2632 139.2386 L 111.2632 139.2386 Z "/>
  <path id="ID0.10610466729849577" fill="#FAA51D" stroke="#000000" stroke-width="1.2000000657280567" d="M 138.3183 116.4411 C 138.3156 116.4619 138.3128 116.4827 138.31 116.5035 L 135.514 136.3905 C 135.1784 138.7912 133.7037 140.8819 131.5539 142.0031 C 129.4051 143.1254 126.8451 143.1378 124.6853 142.0382 L 108.5783 133.8457 L 89.2066 140.1553 C 85.268 141.4379 81.035 139.2846 79.7524 135.346 C 78.4695 131.4094 80.6232 127.1735 84.5617 125.8918 L 106.8879 118.6217 C 108.7797 118.0059 110.8376 118.1657 112.6101 119.0675 L 122.1136 123.9005 L 123.4577 114.3997 C 124.0379 110.2984 127.8336 107.4442 131.9359 108.0245 C 136.014 108.6046 138.8609 112.364 138.3183 116.4411 L 138.3183 116.4411 Z "/>
  <path id="ID0.26425604708492756_1_" fill="#FAA51D" stroke="#231F20" stroke-width="1.1999999594510016" d="M 93.8085 129.5909 C 94.1809 126.8612 93.8332 123.35 92.8753 118.3182 C 92.0764 114.1238 89.1882 107.5357 89.1882 107.5357 C 87.0697 103.1097 83.2089 96.4388 77.2635 100.461 C 74.858 102.0892 71.8058 105.61 66.2358 109.3689 C 60.6587 113.1263 54.0885 114.867 56.6863 124.5988 C 59.2884 134.3321 54.8517 147.8147 76.7331 147.6116 L 93.8085 129.5909 Z "/>
  <path id="ID0.46752600744366646" fill="#FAA51D" stroke="#000000" stroke-width="1.1999999644740562" d="M 124.34 130.2014 L 124.5572 154.6594 C 124.5814 157.3833 123.1267 159.9054 120.7576 161.2504 C 118.3884 162.5935 115.4769 162.5474 113.1522 161.129 L 92.6151 148.5999 L 74.057 148.6717 C 69.927 148.6873 66.5643 145.3631 66.5277 141.2392 C 66.5276 141.2262 66.5275 141.2142 66.5274 141.2012 C 66.5116 137.0582 69.8568 133.6884 73.9978 133.6716 L 94.6789 133.5919 C 96.0679 133.5866 97.4294 133.9665 98.6148 134.69 L 109.4389 141.2932 L 109.3416 130.3356 C 109.3048 126.1928 112.6319 122.8061 116.7747 122.7693 C 120.9175 122.7325 124.3032 126.0586 124.34 130.2014 L 124.34 130.2014 Z "/>
  <path id="ID0.203311821911484_1_" fill="#FFFFFF" d="M 91.1801 115.1728 C 91.1801 115.1728 90.9667 108.5008 81.0748 111.4174 C 71.1829 114.334 71.6255 120.7272 71.6214 124.7103 C 71.6012 131.6011 86.7772 132.4436 86.7772 132.4436 L 92.9702 128.9757 C 92.9702 128.9757 93.1107 124.576 92.3828 121.8492 C 91.9526 119.1331 91.1801 115.1728 91.1801 115.1728 " stroke-width="0.999999966209168"/>
  <path id="ID0.17305035842582583" fill="#FAA51D" d="M 83.3974 139.605 C 83.4102 144.3187 79.0284 148.1522 73.6104 148.167 C 68.1924 148.1832 63.7881 144.3735 63.7761 139.6591 C 63.7627 134.9447 66.7375 129.6883 72.1555 129.6735 C 81.3764 129.647 83.372 131.1485 83.3974 139.605 Z " stroke-width="0.999999966209168"/>
  <path id="ID0.7115552560426295" fill="#FAA51D" stroke="#000000" stroke-width="1.1999999905743877" d="M 57.8569 155.5612 C 55.9295 155.0622 54.2565 153.686 53.4555 151.6961 L 46.5699 134.5994 C 45.7392 132.5367 46.0197 130.193 47.3151 128.3854 L 57.9692 113.5163 C 60.061 110.598 64.1218 109.9303 67.0391 112.0177 C 69.9573 114.1095 70.6282 118.1701 68.5376 121.0876 L 59.9628 133.0549 L 65.5143 146.8396 C 66.855 150.1699 65.2428 153.9554 61.9132 155.2973 C 60.5715 155.8377 59.1569 155.8984 57.8569 155.5612 L 57.8569 155.5612 Z "/>
  <g id="ID0.12311764992773533">
    <path id="ID0.4675603983923793_1_" fill="#FAA51D" stroke="#231F20" stroke-width="1.2" d="M 79.667 16.753 C 76.835 16.49 70.932 16.172 67.681 16.328 C 58.987 16.742 50.719 19.873 50.719 19.873 L 26.779 4.25 L 30.888 39.018 C 32.076 37.579 11.478 62.563 24.491 83.564 C 37.512 104.576 65.377 113.939 99.865 107.087 C 134.355 100.23 142.582 80.365 140.297 69.857 C 138.013 59.349 124.993 55.47 124.993 55.47 C 124.993 55.47 124.828 47.232 118.873 37.136 C 115.331 31.126 103.521 22.349 103.521 22.349 L 98.263 1.106 L 84.56 14.354 L 79.667 16.753 L 79.667 16.753 Z "/>
    <path id="ID0.876089540310204_1_" fill="#FFFFFF" d="M 123.269 55.205 L 118.705 51.41 L 101.943 56.303 C 101.943 56.303 101.943 62.591 93.913 64.333 C 85.877 66.083 73.297 60.146 73.297 60.146 L 58.98 66.431 C 58.98 66.431 43.464 68.136 42.91 77.613 C 41.672 98.675 67.514 107.455 77.306 108.014 C 82.649 108.322 92.45 107.392 99.883 105.915 C 132.528 99.968 141.352 80.319 139.071 69.808 C 136.787 59.3 124.399 56.576 124.399 56.576 L 123.269 55.205 L 123.269 55.205 Z " stroke-width="1"/>
    <path id="ID0.44282719027251005_1_" fill="none" stroke="#231F20" stroke-width="1.2" d="M 2.365 75.597 C 2.365 75.597 9.918 76.285 13.351 76.09 C 16.781 75.894 23.451 75.011 23.451 75.011 "/>
    <path id="ID0.893105489667505_1_" fill="none" stroke="#231F20" stroke-width="1.2" d="M 132.898 65.513 C 132.898 65.513 141.263 64.146 145.511 62.663 C 150.503 60.932 153.865 57.983 153.865 57.983 "/>
    <path id="ID0.03574043000116944_1_" fill="none" stroke="#231F20" stroke-width="1.2" d="M 23.814 67.789 C 23.814 67.789 19.43 64.52 12.566 61.481 C 4.963 58.114 0.788 57.246 0.788 57.246 "/>
    <path id="ID0.6674723788164556_1_" fill="none" stroke="#231F20" stroke-width="1.2" d="M 133.746 76.456 C 133.746 76.456 138.76 78.485 143.921 79.003 C 149.016 79.511 152.465 79.205 152.465 79.205 "/>
    <path id="ID0.12165586883202195_1_" fill="none" stroke="#000000" stroke-linecap="round" d="M 79.006 16.856 C 84.228 18.143 86.153 19.557 86.153 19.557 " stroke-width="1"/>
    <path id="ID0.178104005753994_1_" fill="none" stroke="#000000" d="M 45.074 15.885 L 56.215 23.899 " stroke-width="1"/>
    <path id="ID0.7735752793960273_1_" fill="#FFFFFF" stroke="#231F20" d="M 114.847 37.367 C 120.224 45.603 120.424 55.005 115.292 58.358 C 110.155 61.714 101.636 57.749 96.251 49.507 C 90.857 41.269 90.667 31.874 95.803 28.516 C 100.935 25.164 109.464 29.125 114.847 37.367 L 114.847 37.367 Z " stroke-width="1"/>
    <path id="ID0.19106501014903188_1_" fill="#231F20" d="M 113.466 50.528 C 113.466 52.513 111.991 54.125 110.155 54.125 C 108.329 54.125 106.84 52.513 106.84 50.528 C 106.84 48.542 108.329 46.926 110.155 46.926 C 111.992 46.926 113.466 48.541 113.466 50.528 " stroke-width="1"/>
    <path id="ID0.06283409334719181_1_" fill="#FFFFFF" stroke="#231F20" d="M 70.762 43.35 C 76.143 51.588 75.577 61.486 69.509 65.445 C 63.437 69.416 54.153 65.945 48.774 57.707 C 43.39 49.469 43.949 39.575 50.021 35.608 C 56.095 31.643 65.377 35.108 70.762 43.35 L 70.762 43.35 Z " stroke-width="1"/>
    <path id="ID0.716460831463337_1_" fill="#231F20" d="M 67.474 54.177 C 67.474 56.165 65.997 57.777 64.161 57.777 C 62.337 57.777 60.847 56.162 60.847 54.177 C 60.847 52.192 62.337 50.578 64.161 50.578 C 65.994 50.578 67.474 52.192 67.474 54.177 " stroke-width="1"/>
    <path id="ID0.5430324394255877_1_" fill="#5E4A42" stroke="#000000" d="M 92.644 60.464 C 96.053 60.464 101.02 59.943 101.281 61.511 C 101.545 63.083 98.138 69.24 95.787 69.501 C 93.428 69.763 84.523 65.174 84.394 62.294 C 84.258 59.415 89.498 60.464 92.644 60.464 L 92.644 60.464 Z " stroke-width="1"/>
    <path id="ID0.5547774969600141_1_" fill="none" stroke="#231F20" stroke-width="0.9759124201590347" d="M 72.571 85.4439 C 72.571 85.4439 91.8385 84.4583 98.978 83.7842 C 106.1135 83.1104 118.8433 81.2017 118.8433 81.2017 C 118.8433 81.2017 106.8029 94.8209 89.4488 95.8687 C 72.0945 96.9201 71.0722 90.8458 72.571 85.4439 L 72.571 85.4439 Z "/>
  </g>
</svg>