<svg xmlns="http://www.w3.org/2000/svg" xmlns:xlink="http://www.w3.org/1999/xlink" version="1.1" width="460" height="343.6499938964844" viewBox="0 0.3500000238418579 460 343.6499938964844">
  <!-- Exported by Scratch - http://scratch.mit.edu/ -->
  <path id="ID0.38613532949239016" fill="#FAA51D" stroke="#000000" d="M 188.289 136.403 C 184.365 139.304 179.739 142.956 173.914 145.943 C 166.801 149.336 147.287 154.293 148.56 165.065 C 155.914 179.127 177.985 161.44 183.906 154.9 C 189.249 149.259 193.565 144.279 197.544 140.547 C 198.582 139.566 208.129 132.009 208.047 126.608 C 207.962 121.205 203.786 121.614 201.635 121.875 C 199.48 122.139 193.838 132.299 188.289 136.403 L 188.289 136.403 Z " stroke-width="1"/>
  <path id="ID0.725371353328228" fill="#FFFFFF" d="M 149.185 163.801 C 149.488 168.168 156.574 170.026 162.424 168.463 C 168.281 166.902 171.25 164.494 173.965 162.851 C 176.313 160.558 169.804 163.371 168.256 158.98 C 166.713 154.604 171.079 148.297 171.079 148.297 C 171.079 148.297 162.201 151.954 157.111 154.895 C 152.245 157.675 149.118 159.134 149.185 163.801 L 149.185 163.801 Z " stroke-width="1"/>
  <path id="ID0.14834140241146088" fill="#FAA51D" stroke="#000000" stroke-width="1.2" d="M 253.392 123.281 C 252.711 123.281 252.027 123.175 251.362 122.956 L 233.485 117.075 C 230.075 115.953 228.22 112.279 229.341 108.869 C 230.463 105.46 234.135 103.604 237.547 104.725 L 252.03 109.49 L 265.23 98.654 C 268.004 96.377 272.101 96.78 274.378 99.554 C 276.655 102.328 276.252 106.424 273.478 108.702 L 257.516 121.805 C 256.338 122.773 254.876 123.281 253.392 123.281 L 253.392 123.281 Z "/>
  <path id="ID0.8825720101594925" fill="#FAA51D" stroke="#000000" stroke-width="1.2" d="M 245.779 167.326 C 244.713 167.326 243.629 167.097 242.599 166.614 L 236.015 163.526 C 235.861 163.454 235.708 163.376 235.559 163.294 L 230.046 160.233 C 226.478 158.252 225.149 153.781 227.056 150.171 L 232.106 140.612 L 220.498 138.95 C 216.398 138.363 213.55 134.563 214.138 130.463 C 214.725 126.363 218.53 123.521 222.625 124.103 L 244.777 127.275 C 247.192 127.621 249.288 129.12 250.396 131.294 C 251.503 133.469 251.485 136.046 250.344 138.203 L 243.791 150.606 L 248.968 153.034 C 252.718 154.793 254.332 159.259 252.573 163.009 C 251.299 165.729 248.598 167.326 245.779 167.326 L 245.779 167.326 Z "/>
  <path id="ID0.26425604708492756_1_" fill="#FAA51D" stroke="#231F20" stroke-width="1.2" d="M 232.061 137.786 C 234.246 136.108 236.469 133.368 239.328 129.118 C 241.711 125.575 244.293 118.861 244.293 118.861 C 245.901 114.225 247.85 106.768 240.795 105.444 C 237.94 104.909 233.294 105.264 226.691 104.017 C 220.084 102.764 214.19 99.379 209.19 108.123 C 204.192 116.871 191.554 123.332 207.248 138.581 L 232.061 137.786 Z "/>
  <path id="ID0.4811783879995346" fill="#FAA51D" stroke="#000000" stroke-width="1.2" d="M 203.169 186.405 C 202.174 186.405 201.162 186.206 200.19 185.785 L 181.731 177.785 C 179.401 176.775 177.741 174.655 177.318 172.151 C 176.895 169.647 177.769 167.099 179.638 165.38 L 197.806 148.683 L 202.369 130.198 C 203.359 126.177 207.424 123.716 211.447 124.714 C 215.468 125.706 217.925 129.771 216.931 133.792 L 211.827 154.473 C 211.474 155.905 210.707 157.201 209.621 158.199 L 198.29 168.613 L 206.155 172.021 C 209.956 173.668 211.701 178.084 210.054 181.885 C 208.828 184.715 206.067 186.405 203.169 186.405 L 203.169 186.405 Z "/>
  <path id="ID0.203311821911484_1_" fill="#FFFFFF" d="M 240.336 125.689 C 240.336 125.689 244.878 120.797 235.796 115.911 C 226.714 111.025 222.531 115.88 219.726 118.708 C 214.864 123.591 225.057 134.866 225.057 134.866 L 231.898 136.758 C 231.898 136.758 235.093 133.73 236.494 131.28 C 238.099 129.048 240.336 125.689 240.336 125.689 " stroke-width="1"/>
  <path id="ID0.7054531346075237" fill="#FAA51D" d="M 217.616 137.579 C 214.309 140.938 208.498 140.58 204.637 136.779 C 200.775 132.979 200.325 127.173 203.633 123.814 C 206.94 120.454 212.752 118.811 216.613 122.612 C 223.186 129.08 223.548 131.551 217.616 137.579 Z " stroke-width="1"/>
  <path id="ID0.4675603983923793_1_" fill="#FAA51D" stroke="#231F20" stroke-width="1.2" d="M 230.716 13.348 C 227.891 13.676 222.049 14.583 218.901 15.407 C 210.479 17.607 208.668 21.122 203.036 22.377 L 169.35 26.5 L 187.584 45.202 C 193.42 51.5 173.451 72.246 190.519 90.108 C 207.596 107.98 236.794 111.39 269.125 97.567 C 301.457 83.738 305.406 62.603 301.001 52.793 C 296.598 42.983 283.058 41.875 283.058 41.875 C 283.058 41.875 281.196 33.849 273.286 25.199 C 268.579 20.05 258.169 20.35 255.213 13.899 L 262.85 1.35 L 235.009 9.99 L 230.716 13.348 L 230.716 13.348 Z "/>
  <path id="ID0.876089540310204_1_" fill="#FFFFFF" d="M 281.316 41.972 L 276.066 39.201 L 260.675 47.448 C 260.675 47.448 261.974 53.6 254.476 56.963 C 246.974 60.334 233.439 57.122 233.439 57.122 L 220.728 66.226 C 220.728 66.226 205.899 71.097 207.312 80.485 C 210.448 101.348 237.545 104.605 247.243 103.131 C 252.534 102.329 261.931 99.397 268.9 96.417 C 299.614 83.859 304.193 62.813 299.791 52.998 C 295.387 43.188 282.704 43.079 282.704 43.079 L 281.316 41.972 L 281.316 41.972 Z " stroke-width="1"/>
  <path id="ID0.44282719027251005_1_" fill="none" stroke="#231F20" stroke-width="1.1999999745313612" d="M 188.9351 82.2283 C 188.9351 82.2283 183.2526 87.2509 181.0369 89.8814 C 178.8264 92.5106 174.891 97.969 174.891 97.969 "/>
  <path id="ID0.893105489667505_1_" fill="none" stroke="#231F20" stroke-width="1.1999999597758766" d="M 318.8826 51.458 C 318.8826 51.458 310.5151 50.1049 306.015 50.1667 C 300.7315 50.2284 296.6083 51.9589 296.6083 51.9589 "/>
  <path id="ID0.03574043000116944_1_" fill="none" stroke="#231F20" stroke-width="1.2000000095370622" d="M 186.2885 77.8244 C 186.2885 77.8244 180.8551 78.4388 173.7687 80.9169 C 165.9192 83.6604 162.2804 85.8832 162.2804 85.8832 "/>
  <path id="ID0.6674723788164556_1_" fill="none" stroke="#231F20" stroke-width="1.1999999859023984" d="M 316.4692 65.5747 C 316.4692 65.5747 312.0306 62.4846 307.1123 60.8361 C 302.2566 59.2119 298.8266 58.7448 298.8266 58.7448 "/>
  <path id="ID0.12165586883202195_1_" fill="none" stroke="#000000" stroke-linecap="round" d="M 230.091 13.585 C 235.466 13.767 237.643 14.752 237.643 14.752 " stroke-width="1"/>
  <path id="ID0.178104005753994_1_" fill="none" stroke="#000000" d="M 196.688 19.639 L 209.244 25.181 " stroke-width="1"/>
  <path id="ID0.7735752793960273_1_" fill="#FFFFFF" stroke="#231F20" d="M 269.394 26.257 C 276.356 33.206 278.493 42.363 274.163 46.704 C 269.83 51.048 260.676 48.927 253.706 41.975 C 246.727 35.027 244.602 25.874 248.935 21.528 C 253.263 17.188 262.426 19.303 269.394 26.257 L 269.394 26.257 Z " stroke-width="1"/>
  <path id="ID0.19106501014903188_1_" fill="#231F20" d="M 268.76 34.418 C 269.169 36.361 268.059 38.242 266.263 38.621 C 264.476 38.998 262.686 37.727 262.276 35.786 C 261.867 33.843 262.991 31.955 264.777 31.578 C 266.573 31.198 268.35 32.475 268.76 34.418 " stroke-width="1"/>
  <path id="ID0.06283409334719181_1_" fill="#FFFFFF" stroke="#231F20" d="M 227.493 41.21 C 234.459 48.16 235.948 57.961 230.828 63.088 C 225.706 68.226 215.905 66.746 208.941 59.796 C 201.973 52.847 200.477 43.051 205.6 37.916 C 210.726 32.782 220.522 34.257 227.493 41.21 L 227.493 41.21 Z " stroke-width="1"/>
  <path id="ID0.716460831463337_1_" fill="#231F20" d="M 225.511 49.482 C 225.921 51.427 224.809 53.309 223.013 53.688 C 221.228 54.065 219.437 52.792 219.027 50.85 C 218.618 48.908 219.743 47.021 221.528 46.645 C 223.319 46.267 225.102 47.54 225.511 49.482 " stroke-width="1"/>
  <path id="ID0.5430324394255877_1_" fill="#5E4A42" stroke="#000000" d="M 252.837 46.938 C 256.173 46.235 260.925 44.699 261.504 46.18 C 262.086 47.663 260.024 54.391 257.777 55.132 C 255.522 55.875 245.863 53.223 245.142 50.432 C 244.415 47.644 249.757 47.588 252.837 46.938 L 252.837 46.938 Z " stroke-width="1"/>
  <path id="ID0.5547774969600141_1_" fill="none" stroke="#231F20" stroke-width="1.2" d="M 231.834 71.522 C 231.834 71.522 251.61 73.089 258.894 73.137 C 266.174 73.184 279.059 72.049 279.059 72.049 C 279.059 72.049 268.571 93.516 250.782 92.38 C 232.992 91.252 231.062 80.594 231.834 71.522 L 231.834 71.522 Z "/>
  <path id="ID0.6706311674788594" fill="#FAA51D" stroke="#000000" stroke-width="1.2" d="M 219.84 115.889 C 216.977 115.889 214.354 113.982 213.569 111.085 C 212.631 107.62 214.679 104.051 218.145 103.112 L 233.345 98.997 L 242.67 80.726 C 244.301 77.529 248.215 76.258 251.414 77.892 C 254.611 79.524 255.881 83.439 254.248 86.636 L 243.613 107.473 C 242.779 109.107 241.294 110.313 239.522 110.792 L 221.541 115.66 C 220.974 115.814 220.402 115.889 219.84 115.889 L 219.84 115.889 Z "/>
  <path id="ID0.5836901199072599" fill="none" stroke="#C6EDFF" stroke-width="0.1" d="M 446 333 L 459 333 L 459 343 L 446 343 L 446 333 Z "/>
  <path id="ID0.4083282435312867" fill="none" stroke="#C6EDFF" stroke-width="2" d="M 1 323 L 14 323 L 14 334 L 1 334 L 1 323 Z "/>
</svg>