<svg version="1.1" width="44" height="22" viewBox="-1 -1 44 22" xmlns="http://www.w3.org/2000/svg" xmlns:xlink="http://www.w3.org/1999/xlink">
  <!-- Exported by Scratch - http://scratch.mit.edu/ -->
  <path id="ID0.2258020592853427" fill="none" stroke="#FFFF00" stroke-width="1" stroke-linecap="round" d="M 226.500 172.500 L 226.500 190.250 " transform="matrix(1, 0, 0, 1, -226, -171)"/>
  <path id="ID0.29183216486126184" fill="none" stroke="#FFFF00" stroke-width="1" stroke-linecap="round" d="M 227 172 L 250.750 172 " transform="matrix(1, 0, 0, 1, -226, -171)"/>
  <path id="ID0.9185215774923563" fill="none" stroke="#FFFF00" stroke-width="1" stroke-linecap="round" d="M 227.500 190.250 L 250.750 190.250 " transform="matrix(1, 0, 0, 1, -226, -171)"/>
  <path id="ID0.3947727866470814" fill="#FFFF00" stroke="#FFFF00" stroke-width="1" stroke-linecap="round" d="M 254.250 171.500 C 256.250 171.500 257.808 173.191 259.375 174.358 C 262.212 176.457 267.875 177.806 268 181.250 C 267.875 184.694 262.212 186.043 259.375 188.142 C 257.808 189.309 256.250 191 254.250 191 C 252.250 191 250.437 189.907 249.125 188.142 C 247.812 186.377 247 183.940 247 181.250 C 247 178.560 247.812 176.123 249.125 174.358 C 250.437 172.593 252.250 171.500 254.250 171.500 Z " transform="matrix(1, 0, 0, 1, -226, -171)"/>
  <path id="ID0.7512929299846292" fill="#FFFF00" stroke="none" d="M 227.500 172.250 L 258.750 172.250 L 258.750 190.500 L 227.500 190.500 L 227.500 172.250 Z " transform="matrix(1, 0, 0, 1, -226.75, -171)"/>
</svg>