<svg version="1.1" width="94" height="102" viewBox="-1 7 94 102" xmlns="http://www.w3.org/2000/svg" xmlns:xlink="http://www.w3.org/1999/xlink">
  <!-- Exported by Scratch - http://scratch.mit.edu/ -->
  <g id="ID0.7411454315297306">
    <path id="ID0.5877763065509498" fill="#FAA51D" stroke="#231F20" stroke-width="1" d="M 29.926 73.218 C 30.675 72.647 32.815 71.016 34.780 69.561 C 37.208 67.762 40.897 63.712 35.857 61.915 C 30.817 60.114 28.350 63.519 24.338 66.861 C 22.179 68.662 19.030 69.560 20.019 73.070 C 21.012 76.581 24.881 86.478 31.808 83.240 C 38.737 80.001 30.009 74.060 28.748 72.083 " transform="matrix(-0.8240417242050171, -0.5665290951728821, 0.5665290951728821, -0.8240417242050171, 56.8, 142.45)"/>
    <path id="ID0.41703723231330514" fill="#FF0000" stroke="#000000" stroke-width="1" stroke-linecap="round" d="M 301.400 200 C 303.055 200 304.555 200.846 305.642 202.213 C 306.728 203.580 307.146 205.696 307.400 207.550 C 307.601 209.012 308.154 211.077 306.900 211.600 C 303.899 212.863 300.211 212.747 297.150 211.600 C 295.742 211.173 295.395 209.103 295.400 207.550 C 295.406 205.675 296.072 203.580 297.158 202.213 C 298.245 200.846 299.745 200 301.400 200 Z " transform="matrix(1.1276692152023315, 0.16251026093959808, -0.14263808727264404, 0.9897748827934265, -231.95, -194.55)"/>
  </g>
  <g id="Layer_3">
    <path id="ID0.1835678806528449" fill="#FAA51D" stroke="#000000" d="M 22.462 79.039 C 20.047 78.588 17.158 77.730 14.720 75.536 C 9.268 70.629 7.526 62.535 3.672 64.622 C -0.184 66.710 -0.110 79.787 12.025 83.816 C 16.207 85.207 20.023 85.212 23.116 85.128 C 23.927 85.103 30.833 84.474 33.195 81.054 C 35.556 77.634 33.914 76.782 33.105 76.310 C 32.295 75.838 25.878 79.677 22.462 79.039 Z " transform="matrix(1, 0, 0, 1, 11, 2)"/>
    <path id="ID0.6583570181392133" fill="#FFFFFF" d="M 4.236 64.877 C 2.247 65.490 1.161 69.875 2.160 73.361 C 3.158 76.851 4.794 78.383 6.023 79.759 C 7.551 80.797 5.303 77.357 7.384 75.609 C 9.459 73.865 13.117 74.695 13.117 74.695 C 13.117 74.695 10.208 70.708 8.547 68.299 C 6.975 65.988 6.359 64.375 4.236 64.877 Z " transform="matrix(1, 0, 0, 1, 11, 2)"/>
  </g>
  <g id="ID0.6498648482374847" transform="matrix(1, 0, 0, 1, 6.15, 5.25)">
    <path id="ID0.8264992614276707" fill="#FAA51D" d="M 38.217 86.756 C 38.217 86.756 29.385 92.956 21.146 95.168 L 21.232 95.383 C 22.479 97.207 27.102 102.880 20.898 104.879 C 15.565 106.596 5.778 91.775 10.077 88.977 C 12.703 87.264 14.969 88.725 14.969 88.725 C 14.969 88.725 18.443 87.655 20.970 86.380 C 25.273 84.219 26.754 82.927 26.754 82.927 C 26.754 82.927 30.938 78.621 33.610 78.790 C 36.281 78.960 41.669 83.504 38.217 86.756 Z " transform="matrix(1, 0, 0, 1, 11, 2)"/>
    <path id="ID0.5049330336041749" fill="none" stroke="#231F20" stroke-width="1.2" d="M 21.232 95.383 C 22.479 97.207 27.102 102.880 20.898 104.879 C 15.565 106.596 5.569 91.535 9.868 88.734 C 12.494 87.021 14.969 88.724 14.969 88.724 C 14.969 88.724 18.443 87.652 20.970 86.376 C 25.273 84.215 26.754 82.923 26.754 82.923 " transform="matrix(1, 0, 0, 1, 11, 2)"/>
    <path id="ID0.8097237898036838" fill="none" stroke="#231F20" stroke-width="1.2" d="M 38.217 86.756 C 38.217 86.756 28.094 93.863 19.413 95.575 " transform="matrix(1, 0, 0, 1, 11, 2)"/>
  </g>
  <g id="Layer_2_1_">
    <path id="ID0.6306336354464293" fill="#FAA51D" stroke="#231F20" stroke-width="1.2" d="M 46.753 82.012 C 47.941 81.100 49.150 79.610 50.704 77.299 C 52 75.372 53.404 71.721 53.404 71.721 C 54.279 69.200 55.338 65.145 51.502 64.425 C 49.949 64.134 47.423 64.327 43.832 63.649 C 40.239 62.968 36.563 63.024 34.315 65.882 C 31.441 69.454 30.875 74.206 30.500 78.600 C 30.495 80.167 31.972 81.536 33.259 82.445 C 37.088 85.152 42.979 85.010 45.650 88.800 C 47.863 91.944 43.716 97.294 45.800 100.500 C 53.836 106.668 59.098 108.594 65.850 110.700 C 67.538 111.227 68.361 109.088 68.150 107.900 C 67.751 105.663 66.067 103.743 64.400 102.200 C 61.599 99.605 57.249 98.432 54.700 95.350 C 53.304 93.688 54.643 90.773 53.300 88.850 C 50.516 84.861 42.976 78.517 42.976 78.517 " transform="matrix(0.9161902666091919, -0.40074360370635986, 0.40074360370635986, 0.9161902666091919, -16.9, 30.45)"/>
    <path id="ID0.07121856650337577" fill="#FFFFFF" d="M 51.253 75.434 C 51.253 75.434 53.723 72.774 48.784 70.117 C 43.845 67.460 41.571 70.100 40.045 71.638 C 37.401 74.293 43.488 78.249 43.488 78.249 L 46.664 81.453 C 46.664 81.453 48.402 79.806 49.163 78.474 C 50.036 77.260 51.253 75.434 51.253 75.434 " transform="matrix(0.9161902666091919, -0.40074360370635986, 0.40074360370635986, 0.9161902666091919, -16.9, 30.45)"/>
  </g>
  <g id="ID0.2738850857131183">
    <g id="Layer_2">
      <path id="ID0.5313210929743946" fill="#FAA51D" stroke="#231F20" stroke-width="1.2" d="M 52.709 14.156 C 51.169 14.013 47.959 13.840 46.191 13.925 C 41.463 14.150 36.967 15.853 36.967 15.853 L 23.949 7.357 L 26.184 26.263 C 26.830 25.481 15.629 39.067 22.705 50.487 C 29.785 61.913 44.938 67.005 63.693 63.279 C 82.448 59.550 86.922 48.748 85.679 43.033 C 84.437 37.319 77.357 35.210 77.357 35.210 C 77.357 35.210 77.267 30.730 74.029 25.240 C 72.103 21.972 65.681 17.199 65.681 17.199 L 62.822 5.647 L 55.370 12.851 L 52.709 14.156 Z " transform="matrix(0.9399409890174866, -0.3413369953632355, 0.3413369953632355, 0.9399409890174866, -11.25, 25.15)"/>
      <path id="ID0.510771797504276" fill="#FFFFFF" d="M 76.420 35.066 L 73.938 33.002 L 64.823 35.663 C 64.823 35.663 64.823 39.082 60.456 40.030 C 56.086 40.981 49.245 37.753 49.245 37.753 L 41.460 41.170 C 41.460 41.170 33.023 42.098 32.721 47.251 C 32.048 58.704 46.100 63.479 51.425 63.783 C 54.330 63.950 59.660 63.445 63.702 62.642 C 81.454 59.408 86.253 48.723 85.012 43.007 C 83.770 37.293 77.034 35.811 77.034 35.811 L 76.420 35.066 Z " transform="matrix(0.9399409890174866, -0.3413369953632355, 0.3413369953632355, 0.9399409890174866, -11.25, 25.15)"/>
      <path id="ID0.5452619679272175" fill="none" stroke="#231F20" stroke-width="1.2" d="M 10.673 46.155 C 10.673 46.155 14.780 46.529 16.647 46.423 C 18.512 46.316 22.139 45.836 22.139 45.836 " transform="matrix(0.9399409890174866, -0.3413369953632355, 0.3413369953632355, 0.9399409890174866, -11.25, 25.15)"/>
      <path id="ID0.9910133043304086" fill="none" stroke="#231F20" stroke-width="1.2" d="M 81.656 40.671 C 81.656 40.671 86.205 39.928 88.515 39.122 C 91.230 38.180 93.058 36.577 93.058 36.577 " transform="matrix(0.9399409890174866, -0.3413369953632355, 0.3413369953632355, 0.9399409890174866, -11.25, 25.15)"/>
      <path id="ID0.64155661361292" fill="none" stroke="#231F20" stroke-width="1.2" d="M 22.337 41.909 C 22.337 41.909 19.953 40.132 16.220 38.479 C 12.086 36.648 9.815 36.176 9.815 36.176 " transform="matrix(0.9399409890174866, -0.3413369953632355, 0.3413369953632355, 0.9399409890174866, -11.25, 25.15)"/>
      <path id="ID0.9218368721194565" fill="none" stroke="#231F20" stroke-width="1.2" d="M 82.117 46.622 C 82.117 46.622 84.843 47.726 87.650 48.007 C 90.420 48.283 92.296 48.117 92.296 48.117 " transform="matrix(0.9399409890174866, -0.3413369953632355, 0.3413369953632355, 0.9399409890174866, -11.25, 25.15)"/>
      <path id="ID0.3631199011579156" fill="none" stroke="#000000" stroke-linecap="round" d="M 52.350 14.212 C 55.190 14.912 56.237 15.681 56.237 15.681 " transform="matrix(0.9399409890174866, -0.3413369953632355, 0.3413369953632355, 0.9399409890174866, -11.25, 25.15)"/>
      <path id="ID0.668135226238519" fill="none" stroke="#000000" d="M 33.898 13.684 L 39.956 18.042 " transform="matrix(0.9399409890174866, -0.3413369953632355, 0.3413369953632355, 0.9399409890174866, -11.25, 25.15)"/>
    </g>
    <g id="ID0.5961529444903135">
      <g id="Layer_5">
        <path id="ID0.17162455013021827" fill="#FFFFFF" stroke="#231F20" d="M 71.840 25.366 C 74.764 29.845 74.873 34.957 72.082 36.781 C 69.289 38.606 64.656 36.449 61.728 31.968 C 58.795 27.488 58.691 22.379 61.484 20.553 C 64.275 18.730 68.913 20.884 71.840 25.366 Z " transform="matrix(0.9399409890174866, -0.3413369953632355, 0.3413369953632355, 0.9399409890174866, -11.1, 25.35)"/>
        <path id="ID0.8420191956683993" fill="#231F20" d="M 71.089 32.522 C 71.089 33.602 70.287 34.478 69.289 34.478 C 68.296 34.478 67.486 33.601 67.486 32.522 C 67.486 31.442 68.296 30.564 69.289 30.564 C 70.287 30.564 71.089 31.442 71.089 32.522 " transform="matrix(0.9399409890174866, -0.3413369953632355, 0.3413369953632355, 0.9399409890174866, -11.1, 25.35)"/>
      </g>
      <g id="Layer_7">
        <path id="ID0.2873079050332308" fill="#FFFFFF" stroke="#231F20" d="M 47.867 28.619 C 50.793 33.099 50.486 38.481 47.186 40.634 C 43.884 42.793 38.835 40.906 35.910 36.426 C 32.982 31.946 33.286 26.566 36.588 24.409 C 39.891 22.253 44.938 24.137 47.867 28.619 Z " transform="matrix(0.9399409890174866, -0.3413369953632355, 0.3413369953632355, 0.9399409890174866, -11.1, 25.35)"/>
        <path id="ID0.4468628210015595" fill="#231F20" d="M 46.079 34.507 C 46.079 35.588 45.276 36.464 44.278 36.464 C 43.286 36.464 42.475 35.586 42.475 34.507 C 42.475 33.427 43.286 32.550 44.278 32.550 C 45.274 32.550 46.079 33.427 46.079 34.507 " transform="matrix(0.9399409890174866, -0.3413369953632355, 0.3413369953632355, 0.9399409890174866, -11.1, 25.35)"/>
      </g>
      <path id="ID0.2020682035945356" fill="#5E4A42" stroke="#000000" d="M 59.766 37.926 C 61.620 37.926 64.321 37.642 64.463 38.495 C 64.606 39.350 62.754 42.698 61.475 42.840 C 60.192 42.982 55.350 40.487 55.280 38.921 C 55.206 37.355 58.055 37.926 59.766 37.926 Z " transform="matrix(0.9399409890174866, -0.3413369953632355, 0.3413369953632355, 0.9399409890174866, -11.1, 25.35)"/>
      <g id="Layer_4">
        <path id="ID0.7077885693870485" fill="none" stroke="#231F20" stroke-width="1.2" d="M 46.774 45.235 C 43.887 47.389 45.527 55.193 48.850 56.750 C 52.543 58.481 56.379 51.956 60.600 51.450 C 65.428 50.981 74.397 55.112 74.850 53.950 C 75.304 52.784 67.984 46.965 63.400 45.500 C 58.126 43.817 51.062 42.045 46.774 45.235 Z " transform="matrix(0.9399409890174866, -0.3413369953632355, 0.3413369953632355, 0.9399409890174866, -11.1, 25.35)"/>
      </g>
    </g>
  </g>
  <path id="ID0.5877763065509498" fill="#FAA51D" stroke="#231F20" stroke-width="1" d="M 29.926 73.218 C 30.675 72.647 32.815 71.016 34.780 69.561 C 37.208 67.762 40.897 63.712 35.857 61.915 C 30.817 60.114 28.350 63.519 24.338 66.861 C 22.179 68.662 19.030 69.560 20.019 73.070 C 21.012 76.581 24.881 86.478 31.808 83.240 C 38.737 80.001 30.009 74.060 28.748 72.083 " transform="matrix(-0.9425586462020874, -0.33404070138931274, 0.33404070138931274, -0.9425586462020874, 65.25, 147.25)"/>
  <path id="ID0.41703723231330514" fill="#FF0000" stroke="#000000" stroke-width="1" stroke-linecap="round" d="M 301.400 200 C 303.055 200 304.555 200.846 305.642 202.213 C 306.728 203.580 307.146 205.696 307.400 207.550 C 307.601 209.012 308.154 211.077 306.900 211.600 C 303.899 212.863 300.211 212.747 297.150 211.600 C 295.742 211.173 295.395 209.103 295.400 207.550 C 295.406 205.675 296.072 203.580 297.158 202.213 C 298.245 200.846 299.745 200 301.400 200 Z " transform="matrix(1.1160475015640259, -0.2290973961353302, 0.20108279585838318, 0.9795742630958557, -313.1, -73.55)"/>
  <path id="ID0.5033770301379263" fill="none" stroke="#000000" stroke-width="1" stroke-linecap="round" d="M 213.150 155.800 L 211 168.800 " transform="matrix(1, 0, 0, 1, -182, -123)"/>
  <path id="ID0.42883046297356486" fill="none" stroke="#000000" stroke-width="1" stroke-linecap="round" d="M 232.150 146.650 L 241.150 144.150 " transform="matrix(1, 0, 0, 1, -182, -123)"/>
  <path id="ID0.2477790997363627" fill="none" stroke="#00FFFF" stroke-width="1" stroke-linecap="round" d="M 254.300 143.400 C 254.833 143.433 255.373 143.416 255.900 143.500 C 256.212 143.550 256.800 143.800 256.800 143.800 " transform="matrix(1, 0, 0, 1, -182, -123)"/>
  <path id="ID0.7276202030479908" fill="none" stroke="#00FFFF" stroke-width="1" stroke-linecap="round" d="M 260.300 144.650 C 260.300 144.650 261.280 145.350 261.800 145.650 C 262.149 145.851 262.540 145.970 262.900 146.150 C 263.207 146.303 263.505 146.476 263.800 146.650 C 263.874 146.694 264 146.800 264 146.800 " transform="matrix(1, 0, 0, 1, -182, -123)"/>
  <path id="ID0.1365528078749776" fill="none" stroke="#00FFFF" stroke-width="1" stroke-linecap="round" d="M 268.500 148.400 C 268.933 148.700 269.379 148.984 269.800 149.300 C 270.046 149.484 270.500 149.900 270.500 149.900 " transform="matrix(1, 0, 0, 1, -182, -123)"/>
  <path id="ID0.5844756904989481" fill="none" stroke="#00FFFF" stroke-width="1" stroke-linecap="round" d="M 191.600 160.150 C 190.863 160.578 190.560 160.609 190.500 160.650 C 190.485 160.660 190.500 160.908 190.500 160.900 Z " transform="matrix(1, 0, 0, 1, -182, -123)"/>
  <path id="ID0.3052152064628899" fill="none" stroke="#00FFFF" stroke-width="1" stroke-linecap="round" d="M 188.750 163.400 C 188.750 163.400 188.091 164.240 187.750 164.650 C 187.508 164.940 187.219 165.193 187 165.500 C 186.801 165.779 186.688 166.114 186.500 166.400 C 186.271 166.748 186.010 167.075 185.750 167.400 C 185.477 167.741 185.154 168.044 184.900 168.400 C 184.817 168.516 184.750 168.800 184.750 168.800 " transform="matrix(1, 0, 0, 1, -182, -123)"/>
  <path id="ID0.6839005788788199" fill="none" stroke="#00FFFF" stroke-width="1" stroke-linecap="round" d="M 183 173.650 C 183 173.650 183.012 175.092 182.900 175.800 C 182.844 176.154 182.602 176.456 182.500 176.800 C 182.467 176.912 182.500 177.150 182.500 177.150 " transform="matrix(1, 0, 0, 1, -182, -123)"/>
</svg>