<svg version="1.1" width="169" height="140" viewBox="-1 -1 169 140" xmlns="http://www.w3.org/2000/svg" xmlns:xlink="http://www.w3.org/1999/xlink">
  <defs>
    <linearGradient id="grad_1" y2="1">
      <stop offset="0" stop-color="#FFFFFF" stop-opacity="1"/>
      <stop offset="1" stop-color="#FFFFFF" stop-opacity="0"/>
    </linearGradient>
    <linearGradient id="grad_2" y2="1">
      <stop offset="0" stop-color="#FFFFFF" stop-opacity="1"/>
      <stop offset="1" stop-color="#FFFFFF" stop-opacity="0"/>
    </linearGradient>
  </defs>
  <!-- Exported by Scratch - http://scratch.mit.edu/ -->
  <g id="ID0.5251427236944437" transform="matrix(1, 0, 0, 1, -156, -124)">
    <g id="ID0.6225903644226491" transform="matrix(-0.1851365715265274, 0.9827128052711487, -0.9827128052711487, -0.1851365715265274, 313.3, 176.9)">
      <g id="ID0.7042090003378689">
        <path id="ID0.5144429598003626" fill="#F9C4F7" d="M 45.638 120.479 C 43.910 119.311 43.367 117.966 41.389 117.208 C 39.472 116.488 37.890 116.837 36.139 117.829 C 32.410 119.973 30.557 124.385 32.222 128.182 C 33.014 130.008 33.243 129.778 34.805 131.061 C 37.138 132.987 39.096 133.979 42.222 133.862 C 45.326 133.747 47.367 131.588 50.303 130.591 C 54.657 129.096 57.178 129.171 61.553 130.438 C 63.532 131.001 70.656 134 73.218 133.003 C 77.675 131.274 80.925 128.742 85.633 130.047 C 90.424 131.391 92.382 134.111 97.299 134.485 C 101.255 134.778 103.630 133.940 107.213 132.381 C 109.151 131.544 109.754 130.337 110.546 128.490 C 111.317 126.678 111.546 126.095 111.546 124.133 C 111.546 120.557 109.462 116.529 105.631 116.821 C 102.819 117.037 101.193 117.075 98.465 117.834 C 96.902 118.258 50.325 119.389 45.638 120.479 Z " transform="matrix(1, 0, 0, 1, -31, -3)"/>
        <path id="ID0.26307614939287305" fill="#FFFF6E" d="M 61.885 42.195 C 59.843 41.417 58.469 43.031 56.552 44.140 C 54.552 45.307 52.032 44.432 50.803 42.584 C 49.616 40.793 49.178 38.849 46.970 38.538 C 44.554 38.187 43.825 40.755 41.472 41.416 C 41.160 39.315 41.534 37.855 42.472 35.969 C 43.181 34.529 43.618 34.218 44.972 33.245 C 47.972 31.066 50.200 30.600 53.970 29.899 C 57.949 29.160 59.955 26.746 61.122 23.186 C 61.851 20.969 61.573 18.986 62.469 16.826 C 63.739 13.754 63.510 11.419 66.052 9.045 C 68.302 6.945 70.552 7.139 73.634 6.477 C 79.113 5.311 85.840 7.411 86.340 12.936 C 89.028 12.761 91.819 13.929 92.922 16.204 C 94.256 18.947 92.547 21.399 91.048 24.220 C 89.507 23.364 89.673 21.943 88.964 20.407 C 88.235 18.812 87.193 18.209 85.882 16.983 C 84.715 15.894 84.194 14.862 82.633 14.338 C 81.029 13.812 79.612 15.115 78.966 16.593 C 77.820 19.200 77.758 20.873 77.550 23.675 C 77.238 27.955 76.509 30.620 73.467 33.946 C 72.738 34.744 72.405 35.600 71.300 35.658 C 70.071 35.716 69.384 34.684 68.217 35.035 C 66.135 35.677 66.135 37.875 66.135 39.937 C 64.468 40.058 62.718 40.854 61.885 42.195 Z " transform="matrix(1, 0, 0, 1, -31, -3)"/>
        <path id="ID0.41178736789152026" fill="#F9C4F7" d="M 70.884 48.108 C 70.592 51.766 68.634 53.477 67.051 56.824 C 63.302 64.723 55.595 71.258 46.888 68.030 C 44.930 67.603 43.013 67.213 42.555 65.384 C 42.304 64.450 43.888 64.372 44.720 63.827 C 46.554 62.583 47.470 61.727 49.054 60.248 C 51.637 57.835 52.970 56.280 55.554 53.867 C 58.802 50.832 59.427 47.837 63.385 45.619 C 66.051 44.144 71.092 45.230 70.884 48.108 Z " transform="matrix(1, 0, 0, 1, -31, -3)"/>
        <path id="ID0.7917356137186289" fill="#F9C4F7" d="M 72.549 59.003 L 92.296 59.003 L 92.296 63.789 L 72.549 63.789 C 73.217 62.041 73.008 60.792 72.549 59.003 Z " transform="matrix(1, 0, 0, 1, -31, -3)"/>
        <path id="ID0.8198357312940061" fill="#FF00FF" d="M 91.297 82.501 C 90.776 85.497 91.818 87.171 92.296 90.129 C 93.047 94.739 93.215 97.365 93.713 102.033 C 94.172 106.429 95.151 108.804 96.796 112.929 C 98.172 116.353 98.234 119.209 101.546 121.175 C 102.984 119.832 105.484 121.062 106.378 122.734 C 107.482 124.796 104.982 126.334 103.128 127.872 C 101.566 129.154 99.463 129.154 97.713 128.025 C 94.921 126.214 94.505 123.746 91.297 122.657 C 87.006 121.219 83.548 122.678 80.131 125.459 C 78.133 127.094 76.590 128.456 73.966 128.025 C 71.279 127.580 70.300 126.082 68.050 124.679 C 66.217 123.549 65.467 122.421 63.467 121.644 C 60.718 120.576 58.572 120.984 55.801 122.111 C 51.344 123.923 49.198 127.771 44.387 128.103 C 41.991 128.256 41.116 128.568 38.720 128.334 C 36.886 128.158 36.282 126.313 36.220 124.601 C 36.158 122.695 36.845 120.300 38.886 120.400 C 40.990 120.498 41.824 121.996 43.053 123.588 C 46.344 120.864 45.157 117.499 45.886 113.397 C 46.657 109.080 47.281 106.824 48.052 102.501 C 49.135 96.336 51.719 93.339 55.801 88.418 C 57.677 86.160 59.426 85.284 60.384 82.582 C 66.030 75.539 72.299 73.185 75.049 64.606 C 77.028 58.439 76.674 52.175 70.799 48.887 C 67.841 55.520 66.924 60.170 61.300 65.072 C 59.655 66.491 58.863 67.639 56.800 68.495 C 52.114 70.441 47.468 69.526 44.052 66.004 C 50.968 61.161 55.842 59.196 60.883 52.464 C 62.696 50.033 62.883 48.419 64.299 45.773 C 64.299 44.217 65.612 43.633 66.216 42.194 C 68.154 37.642 71.590 35.521 76.715 34.335 C 76.715 38.012 79.611 40.599 83.464 41.338 C 84.672 41.571 86.068 41.999 86.630 40.948 C 86.942 40.345 86.338 39.898 85.964 39.315 C 84.776 37.447 83.381 36.494 83.381 34.335 C 85.569 34.335 86.630 35.482 88.380 36.747 C 90.963 38.615 92.526 40.658 92.129 43.673 C 91.920 45.347 91.317 46.222 90.380 47.642 C 89.901 48.362 88.962 48.381 88.713 49.198 C 87.880 51.805 89.275 53.400 89.629 56.124 C 91.006 66.457 91.297 72.172 91.297 82.501 Z " transform="matrix(1, 0, 0, 1, -31, -3)"/>
        <path id="ID0.7261377740651369" fill="#F9C4F7" d="M 88.963 48.618 C 89.870 49.250 90.505 49.493 91.588 49.824 C 94.109 50.602 95.702 51.098 98.295 50.680 C 99.161 50.543 99.660 50.368 100.545 50.329 C 101.768 50.280 102.725 49.706 103.670 50.407 C 104.753 51.214 105.201 51.847 106.087 52.858 C 107.108 54.025 107.858 54.551 108.628 55.854 C 109.044 56.554 110.391 56.671 110.045 57.410 C 109.891 57.760 109.534 57.789 109.169 57.955 C 107.201 58.869 105.867 59.112 103.712 58.810 C 102.807 58.683 102.285 58.907 101.379 58.849 C 98.411 58.645 96.755 58.499 93.839 57.915 C 92.838 57.720 92.296 57.478 91.338 57.137 C 90.518 56.845 89.536 56.961 89.339 56.165 C 89.213 55.630 89.235 55.309 89.172 54.764 C 88.922 52.583 89.488 50.748 88.963 48.618 Z " transform="matrix(1, 0, 0, 1, -31, -3)"/>
        <path id="ID0.5175564126111567" fill="#FFDFA4" d="M 104.150 51.037 C 105.079 50.823 105.158 50.391 105.796 49.730 C 107.182 48.291 107.951 47.502 108.879 45.762 C 110.072 43.515 110.003 41.793 111.879 40.043 C 112.858 39.129 113.430 38.496 114.711 38.020 C 115.766 37.631 116.680 37.280 117.627 37.864 C 118.003 38.098 118.398 38.263 118.376 38.681 C 118.346 39.255 117.738 39.382 117.210 39.654 C 115.814 40.374 114.670 40.802 114.170 42.221 C 115.608 42.017 116.399 41.658 117.836 41.793 C 118.305 41.832 118.721 42.172 118.669 42.610 C 118.544 43.572 117.461 43.641 116.545 44.088 C 116.281 44.215 115.930 44.205 115.878 44.478 C 115.805 44.838 116.024 45.305 116.419 45.295 C 117.045 45.275 117.377 44.983 118.003 45.023 C 118.815 45.071 119.512 44.887 120.043 45.451 C 120.355 45.781 120.498 45.714 120.188 46.053 C 119.104 47.211 116.877 47.085 116.210 48.486 C 115.598 49.779 114.889 50.742 113.378 50.976 C 112.531 51.102 112.057 51.171 111.212 51.171 C 110.596 51.171 109.906 50.820 109.629 51.326 C 108.930 52.572 108.525 53.252 108.044 54.595 L 104.150 51.037 Z " transform="matrix(1, 0, 0, 1, -31, -3)"/>
        <path id="ID0.47115641878917813" fill="#FFDFA4" d="M 49.178 68.615 C 48.803 69.510 46.648 72.594 45.470 72.545 C 43.648 72.467 42.627 72.943 40.970 73.712 C 39.803 74.257 39.178 74.647 38.263 75.503 C 37.742 75.986 37.116 76.251 37.138 76.941 C 37.170 77.701 38.429 77.388 39.221 77.171 C 40.085 76.941 40.502 76.665 41.345 76.357 C 41.075 76.991 40.877 77.527 40.512 78.109 C 39.554 79.656 38.950 80.453 39.095 82.234 C 39.126 82.679 39.147 83.029 39.512 83.324 C 39.991 83.703 40.523 83.284 41.095 83.051 C 42.480 82.477 42.438 81.223 43.345 80.094 C 43.345 81.807 43.762 82.740 44.345 84.373 C 44.605 85.103 45.095 85.959 45.887 85.734 C 46.803 85.472 46.814 84.546 46.969 83.672 C 47.282 81.990 47.595 81.067 48.177 79.434 C 48.740 77.858 49.895 76.417 51.635 76.707 C 53.156 76.973 53.573 79.305 54.968 78.689 C 56.385 78.068 56.270 76.125 55.301 74.957 C 54.718 74.247 54.229 73.857 53.302 73.635 C 52.666 73.479 51.812 73.469 51.844 72.857 C 51.938 71.115 54.010 70.862 54.469 69.121 C 52.594 68.583 51.053 69.148 49.178 68.615 Z " transform="matrix(1, 0, 0, 1, -31, -3)"/>
        <path id="ID0.12976865284144878" fill="#E179FF" d="M 55.719 138.294 C 55.969 137.361 56.261 136.815 56.886 136.037 C 59.531 139.754 63.822 141.835 68.217 140.161 C 69.092 139.832 70.613 139.015 69.884 138.450 C 68.947 137.711 68.239 137.435 67.135 136.971 C 65.052 136.094 63.154 134.700 62.134 132.791 C 61.176 130.980 61.469 129.850 59.470 129.107 C 57.345 128.331 54.387 127.961 53.637 129.961 C 52.742 132.356 51.575 133.482 50.804 135.953 C 50.200 137.908 53.575 138.294 55.719 138.294 Z " transform="matrix(1, 0, 0, 1, -31, -3)"/>
        <path id="ID0.9403871474787593" fill="#E179FF" d="M 88.463 130.668 C 87.859 133.566 86.673 139.909 87.547 140.477 C 88.213 140.905 91.505 140.145 92.713 140.006 C 92.817 139.016 92.567 138.024 93.464 137.520 C 94.045 137.188 97.068 140.477 98.796 140.477 C 101.984 140.477 105.295 140.206 106.295 137.367 C 104.045 136.490 102.254 137.370 100.129 136.274 C 96.484 134.398 93.088 132.381 88.463 130.668 Z " transform="matrix(1, 0, 0, 1, -31, -3)"/>
        <path id="ID0.44381743762642145" fill="#272525" d="M 86.505 12.700 C 94.255 12.824 96.594 19.740 91.047 24.223 C 91.331 25.604 92.861 29.946 91.838 31.109 C 90.550 32.571 86.460 32.088 84.590 31.731 C 84.346 32.123 84.594 32.897 84.591 33.329 C 85.797 32.185 88.423 32.277 88.255 34.688 C 89.005 34.455 90.061 34.325 90.755 34.923 C 91.668 35.703 91.964 37.295 90.964 38.385 C 91.422 39.008 91.940 39.402 92.500 40.361 C 94.134 43.149 92.552 47.462 89.249 48.507 C 91.129 61.480 91.968 74.552 93.421 87.569 C 94.692 98.932 95.268 114.215 103.660 123.387 C 103.534 123.540 98.713 122.034 94.829 111.749 C 89.034 96.400 91.182 81.033 89.355 65.254 C 88.699 59.540 87.876 54.067 87.334 48.345 C 88.040 48.082 88.882 47.918 89.543 47.333 C 94.836 42.640 89.185 39.185 85.345 35.605 C 85.574 37.447 87.988 39.403 88.215 41.828 C 84.396 44.120 75.478 39.610 75.972 35.251 C 74.800 35.485 74.070 35.890 73.156 36.212 C 73.116 36.809 73.462 37.179 73.535 37.780 C 74.827 38.238 75.769 37.795 76.514 39.147 C 77.493 40.922 76.637 42.335 75.106 43.498 C 77.579 47.502 71.630 53.131 68.879 47.956 C 65.512 49.227 62.832 49.028 63.512 45.066 C 62.494 45 61.320 44.411 60.880 43.598 C 60.183 42.309 61.380 39.630 64.880 39.241 C 64.630 37.918 64.350 37.506 65.463 35.606 C 66.797 33.327 70.379 32.900 72.407 35.207 C 73.710 34.481 77.777 34.478 76.513 31.507 C 75.422 32.326 73.756 34.793 72.294 35.086 C 73.435 33.909 76.386 29.491 76.668 27.179 C 77.263 22.305 75.959 16.257 81.335 13.648 C 75.833 12.668 71.940 15.939 70.961 19.019 C 70.115 21.673 72.437 25.381 70.932 27.966 C 67.808 33.330 62.863 31.400 59.989 35.859 C 58.815 37.682 58.194 39.759 57.010 41.576 C 56.155 41.277 56.003 40.137 55.981 39.401 C 55.751 31.707 65.323 32.300 69.033 28.973 C 72.692 25.693 67.753 22.277 69.254 18.505 C 70.900 14.369 76.545 11.929 82.476 12.788 C 82.798 13.196 82.040 13.280 81.827 13.496 C 82.773 13.319 83.714 13.303 84.340 13.952 C 86.098 15.775 89.548 19.359 90.630 23.056 C 92.527 20.541 94.880 13.446 85.729 13.294 C 85.797 5.082 73.289 5.820 68.134 9.517 C 60.513 14.984 64.320 29.318 53.873 31.356 C 49.136 32.280 44.320 31.952 42.138 39.787 C 45.304 36.908 49.866 37.288 50.785 38.895 C 51.784 40.639 50.811 42.804 53.386 43.650 C 56.503 44.675 57.512 40.611 60.374 41.576 L 60.537 42.284 C 57.999 42.715 58.399 45.498 55.823 46.534 C 48.897 49.318 50.846 38.053 45.585 39.602 C 43.988 40.073 42.571 42.468 42.063 43.852 C 39.517 43.529 41.351 35.673 42.171 34.290 C 44.567 30.249 50.855 30.299 55.030 29.352 C 62.125 27.742 61.467 15.508 63.136 12.282 C 65.110 8.470 69.134 5.158 75.800 5.002 C 78.988 4.928 85.340 6.555 86.299 9.593 C 86.555 10.399 86.455 11.856 86.505 12.700 Z " transform="matrix(1, 0, 0, 1, -31, -3)"/>
        <path id="ID0.3764053229242563" fill="#272525" d="M 82.480 11.672 C 80.197 11.547 77.724 10.255 75.435 10.674 C 64.775 12.624 70.432 26.716 58.861 32.819 C 55.167 34.768 52.683 35.984 48.296 36.210 C 52.293 35.226 57.228 33.498 60.311 30.960 C 63.144 28.629 63.999 25.475 64.928 21.993 C 66.350 16.661 67.191 11.825 73.811 10.002 C 76.602 9.235 79.900 10.106 82.480 11.672 Z " transform="matrix(1, 0, 0, 1, -31, -3)"/>
        <path id="ID0.8122409950010478" fill="#FFBC99" d="M 80.882 20.796 C 83.006 21.341 83.090 19.551 81.924 18.462 C 81.100 17.691 78.663 18.705 77.839 19.085 C 77.193 19.386 77.641 21.067 78.284 21.262 C 79.038 21.498 80.126 20.604 80.882 20.796 Z " transform="matrix(1, 0, 0, 1, -31, -3)"/>
        <path id="ID0.5946966581977904" fill="#FFBC99" d="M 87.173 20.138 C 86.040 20.426 85.020 20.658 85.130 20.059 C 85.359 18.855 86.048 17.686 87.317 18.254 C 87.854 18.494 88.186 18.805 88.381 19.320 C 88.548 19.736 87.654 20.138 87.173 20.138 Z " transform="matrix(1, 0, 0, 1, -31, -3)"/>
        <path id="ID0.3648532754741609" fill="#FFDFA4" d="M 90.672 29.900 C 88.901 31.642 85.506 31.029 83.022 30.290 C 81.799 34.880 84.141 37.711 86.110 40.813 C 82.616 41.277 79.709 38.538 78.089 35.956 C 78.277 33.557 78.465 30.951 77.131 28.305 C 78.975 24.634 75.049 16.050 83.589 14.299 C 87.562 17.958 90.887 24.521 90.672 29.900 Z " transform="matrix(1, 0, 0, 1, -31, -3)"/>
        <path id="ID0.5017033303156495" fill="#272525" d="M 85.547 19.940 C 85.966 21.929 87.173 23.365 88.548 24.570 C 89.330 26.216 85.654 27.394 83.669 25.787 C 83.422 25.504 83.548 25.115 83.940 25.180 C 84.911 25.248 86.717 26.027 87.408 24.826 C 86.301 23.754 84.836 22.455 84.218 19.940 C 84.100 19.458 85.458 19.500 85.547 19.940 Z " transform="matrix(1, 0, 0, 1, -31, -3)"/>
        <path id="ID0.2665619608014822" fill="#272525" d="M 115.387 41.590 C 117.112 40.721 123.499 40.975 116.727 44.468 C 118.219 44.749 120.755 43.659 121.709 45.385 C 120.751 47.563 117.230 46.051 115.661 49.995 C 114.921 51.860 111.880 51.848 110.195 51.797 L 109.011 54.072 C 109.812 54.949 113.289 57.193 113.681 58.218 C 113.970 58.989 112.900 59.398 112.273 59.534 C 106.570 60.763 94.388 60.848 89.794 56.825 C 89.983 56.253 89.273 55.337 90.065 55.105 C 96.237 57.653 102.044 58.414 108.752 57.005 C 108.752 57.005 104.814 53.025 103.011 51.136 C 100.163 51.811 90.740 52.259 88.798 49.445 C 88.437 48.922 88.793 48.139 89.339 47.876 C 92.812 49.175 97.420 51.301 103.443 49.315 C 104.818 50.596 106.878 51.944 108.121 53.320 C 108.464 52.677 109.050 51.047 109.777 50.765 C 113.722 52.015 115.298 48.751 116.023 47.209 C 117.347 46.604 120.036 45.986 119.939 45.645 C 119.845 45.304 118.066 45.113 117.275 45.324 C 117.256 47.067 114.877 46.832 113.693 48.362 C 112.161 50.349 110.797 50.435 109.661 49.839 C 109.849 49.011 110.846 49.727 111.449 49.316 C 112.845 48.367 113.084 46.335 115.228 46.304 C 115.972 46.345 115.954 45.659 115.954 45.659 C 114.933 44.112 111.937 46.149 111.109 46.626 C 110.752 46.505 110.582 46.095 110.943 45.799 C 112.255 44.727 113.754 44.844 115.138 44.125 C 115.451 43.963 117.695 42.867 118.209 42.164 C 116.526 41.605 114.021 42.437 112.293 44.081 C 113.314 41.579 116.735 39.530 117.798 38.447 C 117.460 37.921 115.519 38.367 115.006 38.552 C 110.239 40.274 110.293 48.462 105.716 50.691 L 104.793 50.212 C 106.627 48.811 108.286 46.169 108.791 44.505 C 109.720 41.436 111.983 37.582 115.728 37.052 C 116.861 36.891 118.999 37.250 119.329 38.012 C 119.684 38.788 115.949 40.686 115.387 41.590 Z " transform="matrix(1, 0, 0, 1, -31, -3)"/>
        <path id="ID0.6519624092616141" fill="#9145FF" d="M 87.193 35.147 C 86.587 34.785 86.128 34.253 85.623 33.781 C 86.169 32.667 88.007 33.979 87.193 35.147 Z " transform="matrix(1, 0, 0, 1, -31, -3)"/>
        <path id="ID0.4338096478022635" fill="#9145FF" d="M 90.381 37.877 C 90.381 37.877 88.729 36.427 87.945 35.856 C 89.213 34.920 91.006 35.583 90.381 37.877 Z " transform="matrix(1, 0, 0, 1, -31, -3)"/>
        <path id="ID0.36549787130206823" fill="#9145FF" d="M 74.216 40.484 C 74.667 43.006 72.878 42.260 71.860 42.535 C 73.016 44.102 74.506 46.214 71.589 47.290 C 70.371 47.740 69.697 46.230 69.097 45.570 C 67.843 46.320 67.496 46.535 66.226 46.430 C 65.216 45.766 65.718 44.607 66.390 43.647 C 65.136 43.752 64.407 43.482 64.168 42.788 C 63.935 42.108 64.385 40.328 67.147 41.066 C 66.627 38.749 67.259 34.362 70.939 36.816 C 71.873 37.439 71.635 38.770 71.551 39.860 C 72.705 39.941 74.050 39.549 74.216 40.484 Z " transform="matrix(1, 0, 0, 1, -31, -3)"/>
        <path id="ID0.0662639569491148" fill="#272525" d="M 85.895 47.292 C 85.891 48.547 84.448 50.136 83.291 50.682 C 81.436 51.561 79.236 50.522 77.883 49.434 C 77.288 48.957 77.807 47.609 78.215 47.955 C 81.674 50.874 84.380 48.731 85.895 47.292 Z " transform="matrix(1, 0, 0, 1, -31, -3)"/>
        <path id="ID0.34639872098341584" fill="#272525" d="M 64.057 47.632 C 62.137 54.490 53.272 61.507 45.474 66.302 C 47.104 67.387 49.576 67.757 51.473 67.911 C 58.477 68.485 61.827 64.079 65.086 58.763 C 66.942 55.735 68.952 52.582 69.366 49.049 L 71.857 49.049 C 71.857 49.470 70.974 52.549 70.634 53.361 C 68.516 58.446 65.072 65.791 59.775 68.629 C 54.647 71.378 45.805 69.157 41.680 65.848 C 49.114 61.507 59.710 53.448 63.636 46.046 C 64.226 46.042 63.770 47.275 64.057 47.632 Z " transform="matrix(1, 0, 0, 1, -31, -3)"/>
        <path id="ID0.6976527692750096" fill="#272525" d="M 72.406 49.965 C 76.609 53.310 78.411 59.921 77.060 64.744 C 74.191 74.979 61.665 81.134 55.823 89.991 C 51.151 97.075 47.372 105.597 47.372 114.021 C 47.372 118.323 46.075 123.228 41.521 125.206 C 41.521 125.206 43.253 122.875 44.012 121.462 C 45.706 118.309 45.412 113.436 46.071 109.926 C 48.014 99.581 50.467 88.287 58.965 80.784 C 65.784 74.763 76.561 68.871 74.945 58.675 C 74.543 56.130 73.320 52.489 71.754 50.320 C 71.818 50.016 72.102 49.901 72.406 49.965 Z " transform="matrix(1, 0, 0, 1, -31, -3)"/>
        <path id="ID0.3057024898007512" fill="#272525" d="M 89.839 58.757 C 90.218 59.060 90.486 59.364 90.381 59.871 C 88.796 60.656 86.266 59.921 84.259 59.972 C 81.391 59.820 78.461 59.770 75.536 59.718 C 75.157 59.364 75.101 58.909 75.157 58.404 L 76.295 57.798 C 80.958 57.850 85.342 58.049 89.839 58.757 Z " transform="matrix(1, 0, 0, 1, -31, -3)"/>
        <path id="ID0.6412952528335154" fill="#272525" d="M 75.109 122.675 C 66.774 107.621 83.335 93.754 81.558 78.356 C 81.120 74.563 80.148 69.646 81.340 65.960 C 81.131 75.577 86.056 81.739 82.748 89.991 C 77.355 103.460 72.549 108.650 75.109 122.675 Z " transform="matrix(1, 0, 0, 1, -31, -3)"/>
        <path id="ID0.9113225913606584" fill="#272525" d="M 87.842 90.145 C 86.352 98.166 85.190 105.223 90.008 112.610 C 90.319 113.085 92.213 116.899 92.393 119.036 C 89.251 114.985 83.923 109.598 83.401 104.466 C 82.192 92.618 89.458 81.816 86.757 68.039 C 89.213 74.101 89.029 83.770 87.842 90.145 Z " transform="matrix(1, 0, 0, 1, -31, -3)"/>
        <path id="ID0.3499644426628947" fill="#272525" d="M 48.188 123.891 C 48.890 122.268 50.161 119.602 50.626 118.426 C 55.567 105.947 50.274 96.710 63.899 86.955 C 67.619 84.292 73.053 79.623 76.221 72.230 C 76.747 76.500 70.564 84.772 67.312 87.563 C 62.476 91.709 56.958 94.619 55.827 101.274 C 54.854 106.995 55.302 118.688 48.188 123.891 Z " transform="matrix(1, 0, 0, 1, -31, -3)"/>
        <path id="ID0.1947708292864263" fill="#272525" d="M 50.398 68.956 L 47.040 73.054 C 44.151 73.444 39.681 73.935 38.056 76.669 C 38.392 77.294 40.298 76.301 40.639 76.047 C 42.097 74.957 42.984 74.619 44.548 74.522 C 43.596 76.047 38.529 80.338 40.089 82.461 C 40.089 82.461 41.097 81.882 41.431 81.570 C 43.337 79.632 44.168 76.546 47.312 76.189 C 47.312 76.189 43.703 82.203 45.221 84.681 C 46.911 84.126 47.283 80.413 47.961 79.021 C 49.196 76.482 52.086 74.601 53.970 77.915 C 54.326 78.542 55.163 77.689 55.220 77.202 C 55.502 74.816 51.953 74.284 50.291 73.558 C 50.391 72.229 51.738 70.580 52.620 69.561 C 53.303 68.773 55.488 69.200 54.732 70.269 L 52.891 72.799 C 54.579 73.586 56.359 74.841 56.683 76.695 C 56.833 77.554 56.220 78.769 55.261 79.742 C 54.303 80.716 52.964 76.221 50.940 77.202 C 48.992 78.146 48.058 84.204 46.901 85.747 C 44.823 88.516 42.971 84.019 43.139 81.809 C 42.159 83.338 39.178 85.778 38.139 83.328 C 37.542 81.917 40.005 78.640 40.596 77.375 C 38.738 77.813 36.784 78.377 36.348 77.920 C 35.475 77.001 37.894 74.127 39.781 72.957 C 41.515 71.881 44.063 72.185 45.888 71.538 C 46.888 70.760 47.864 70.089 48.340 68.556 C 49.028 68.503 49.811 68.596 50.398 68.956 Z " transform="matrix(1, 0, 0, 1, -31, -3)"/>
        <path id="ID0.18481231573969126" fill="#272525" d="M 61.566 117.314 C 58.802 108.183 64.216 100.577 72.510 89.994 C 74.026 88.058 75.383 86.630 77.550 79.706 C 78.397 84.553 73.862 91.957 70.669 95.609 C 64.480 102.691 61.441 107.854 61.566 117.314 Z " transform="matrix(1, 0, 0, 1, -31, -3)"/>
        <path id="ID0.2220838824287057" fill="#272525" d="M 98.963 116.584 C 102.213 116.001 105.973 114.753 109.025 116.354 C 111.480 117.635 112.808 119.333 112.924 122.071 C 113.146 127.108 109.945 132.259 104.959 134.216 C 91.628 139.441 89.453 128.732 80.688 130.673 C 75.180 131.896 71.977 138.099 66.003 134.819 C 63.243 133.307 61.988 131.036 58.690 130.421 C 48.923 128.599 43.463 139.482 35.178 133.105 C 33.497 131.810 31.458 129.084 31.115 127.035 C 30.349 122.453 33.330 113.716 39.729 115.044 C 41.464 115.402 43.616 117.168 43.900 118.891 C 44.097 120.080 42.112 118.563 42.059 118.537 C 38.009 116.630 32.648 121 32.687 124.860 C 32.715 127.721 35.245 130.776 38.158 131.636 C 46.428 134.085 53.826 123.241 63.132 129.362 C 71.268 134.711 74.238 131.059 82.203 127.893 C 87.974 125.600 90.908 131.592 95.474 133.108 C 99.224 134.345 104.246 133.938 107.177 131.287 C 113.808 125.282 109.941 116.373 103.437 117.830 C 103.017 117.923 101.458 118.071 100.041 118.616 C 99.334 118.883 98.908 117.159 98.963 116.584 Z " transform="matrix(1, 0, 0, 1, -31, -3)"/>
        <path id="ID0.6651282887905836" fill="#272525" d="M 41.415 123.129 C 39.641 121.567 35.142 122.346 37.407 125.711 C 38.951 128.003 42.706 127.740 45.208 127.275 C 49.226 126.540 52.603 121.831 57.290 120.499 C 69.956 116.898 68.949 128.814 75.872 127.023 C 78.327 126.388 80.658 124.294 82.753 122.925 C 85.346 121.228 87.365 120.681 90.555 121.558 C 94.159 122.546 95.712 125.228 98.463 127.175 C 100.602 128.687 105.402 126.916 105.775 124.491 C 106.463 120.004 102.291 122.679 101.713 121.326 C 100.568 118.638 106.359 117.700 107.565 120.494 C 108.960 123.727 106.294 127.331 103.666 129.197 C 95.892 134.716 92.658 121.600 85.463 123.631 C 80.720 124.972 78.506 130.224 72.624 129.197 C 68.094 128.406 66.659 123.426 62.114 122.670 C 54.967 121.482 51.922 125.425 46.349 128.136 C 43.873 129.341 39.069 129.478 36.760 127.881 C 31.275 124.093 38.204 116.050 41.310 120.599 C 41.712 121.202 41.585 122.477 41.415 123.129 Z " transform="matrix(1, 0, 0, 1, -31, -3)"/>
        <path id="ID0.14604567969217896" fill="#272525" d="M 88.793 132.007 C 89.934 134.186 88.956 136.714 88.688 138.942 L 91.831 138.942 C 91.831 137.475 91.940 134.589 91.940 134.589 C 93.836 136.915 96.272 139.443 99.465 139.546 C 100.874 139.600 103.797 138.916 104.561 137.727 C 102.553 137.272 100.444 136.967 98.708 135.908 L 98.708 135.554 C 101.687 135.808 104.884 136.314 108.187 136.262 C 108.623 136.616 108.623 137.072 108.293 137.478 C 105.640 140.415 101.250 142.031 97.133 140.767 C 95.728 140.564 94.644 139.351 93.612 138.588 L 93.506 140.866 C 91.177 140.967 88.735 141.219 86.463 141.119 C 86.519 140.006 86.569 133.377 87.765 131.911 C 88.197 131.756 88.416 132.163 88.793 132.007 Z " transform="matrix(1, 0, 0, 1, -31, -3)"/>
        <path id="ID0.18367537669837475" fill="#272525" d="M 90.088 63.352 C 90.468 63.656 90.736 63.959 90.630 64.465 C 89.797 64.920 86.516 64.515 84.509 64.566 C 81.639 64.414 78.712 64.363 75.786 64.313 C 75.407 63.959 75.353 63.504 75.407 62.998 L 76.545 62.391 C 81.207 62.438 85.593 62.644 90.088 63.352 Z " transform="matrix(1, 0, 0, 1, -31, -3)"/>
        <path id="ID0.6404719287529588" fill="#272525" d="M 54.518 129.592 C 55.013 131.971 53.371 134.176 52.492 136.260 L 55.528 137.024 C 55.934 135.606 56.839 132.846 56.839 132.846 C 58.026 135.550 59.679 138.584 62.739 139.453 C 64.085 139.842 67.097 139.891 68.162 138.924 C 66.352 138.001 62.056 136.430 61.708 132.647 L 61.807 132.305 C 63.640 135.339 68.869 137.635 72.075 138.384 C 72.396 138.831 72.269 139.274 71.844 139.583 C 68.466 141.773 63.779 142.277 60.153 140.062 C 58.848 139.525 58.138 138.088 57.354 137.109 L 56.618 139.284 C 54.341 138.816 51.915 138.472 49.746 137.826 C 50.106 136.764 51.996 130.376 53.553 129.246 C 54.008 129.207 54.106 129.648 54.518 129.592 Z " transform="matrix(1, 0, 0, 1, -31, -3)"/>
        <path id="ID0.739327204413712" fill="#D718B9" d="M 83.277 27.717 C 83.281 28.309 84.455 29.205 84.855 29.495 C 85.621 30.044 86.716 30.535 87.293 29.825 C 87.691 29.327 86.618 29.102 85.984 28.888 C 84.975 28.541 84.270 28.104 83.277 27.717 Z " transform="matrix(1, 0, 0, 1, -31, -3)"/>
        <path id="ID0.6724210055544972" fill="#9E0096" d="M 83.270 27.726 C 84.225 27.468 84.716 27.232 85.303 27.143 C 85.908 27.057 86.256 27.413 86.867 27.375 C 87.181 27.356 87.176 26.965 87.471 26.847 C 88.149 26.582 88.507 26.761 89.229 26.587 C 88.568 27.541 86.801 28.342 83.270 27.726 Z " transform="matrix(1, 0, 0, 1, -31, -3)"/>
        <path id="ID0.25180333014577627" fill="#272525" d="M 76.425 20.212 C 76.735 18.382 80.395 17.619 82.047 18.166 C 80.215 18.423 76.583 19.522 76.425 20.212 Z " transform="matrix(1, 0, 0, 1, -31, -3)"/>
        <path id="ID0.8201079433783889" fill="#272525" d="M 89.421 18.297 C 88.492 17.735 86.626 17.311 86.184 18.255 L 89.421 18.297 Z " transform="matrix(1, 0, 0, 1, -31, -3)"/>
        <path id="ID0.23819611500948668" fill="#272525" d="M 82.490 20.808 C 80.671 22.422 77.240 22.142 76.157 21.345 C 77.803 20.769 80.531 19.166 82.490 20.808 Z " transform="matrix(1, 0, 0, 1, -31, -3)"/>
        <path id="ID0.528225427493453" fill="#272525" d="M 80.357 21.241 C 80.240 20.870 80.378 20.508 80.667 20.432 C 80.954 20.356 81.279 20.595 81.396 20.967 C 81.508 21.338 81.373 21.699 81.084 21.776 C 80.797 21.851 80.473 21.608 80.357 21.241 Z " transform="matrix(1, 0, 0, 1, -31, -3)"/>
        <path id="ID0.5920839393511415" fill="#FFFFFF" d="M 81.464 20.916 C 80.727 21.573 79.436 21.443 79.068 21.199 C 79.751 20.682 80.789 20.493 81.464 20.916 Z " transform="matrix(1, 0, 0, 1, -31, -3)"/>
        <path id="ID0.29849900864064693" fill="#272525" d="M 89.658 19.034 C 89.470 19.890 89.150 20.220 88.835 20.427 C 87.758 21.122 86.546 20.893 86.012 20.467 C 86.748 19.574 87.574 19.041 88.427 19.059 C 88.857 19.065 89.092 19.326 89.658 19.034 Z " transform="matrix(1, 0, 0, 1, -31, -3)"/>
        <path id="ID0.4326655017212033" fill="#272525" d="M 88.143 20.042 C 88.042 19.717 88.164 19.399 88.413 19.333 C 88.659 19.268 88.942 19.477 89.042 19.802 C 89.146 20.128 89.022 20.444 88.774 20.510 C 88.525 20.579 88.245 20.369 88.143 20.042 Z " transform="matrix(1, 0, 0, 1, -31, -3)"/>
        <path id="ID0.7764583984389901" fill="#FFFFFF" d="M 89 19.702 C 88.516 20.392 87.566 20.322 87.286 20.098 C 87.738 19.545 88.475 19.312 89 19.702 Z " transform="matrix(1, 0, 0, 1, -31, -3)"/>
      </g>
      <g id="ID0.9023489928804338">
        <path id="ID0.09253329830244184" fill="#FFFF00" stroke="#FFFF00" stroke-width="2" d="M 224.500 97.500 L 234.800 79.700 L 247.450 96.050 L 262.050 80.650 L 275.500 97.500 L 288.700 82.950 L 286.150 123.550 L 224.500 123.500 L 224.500 97.500 Z " transform="matrix(0.1752021610736847, 0, 0, 0.2380952388048172, 7.3, -17.15)"/>
        <path id="ID0.5417500040493906" fill="none" stroke="#FF0000" stroke-width="2" stroke-linecap="round" d="M 94.500 74.900 L 94.800 75.200 " transform="matrix(0.4444444477558136, 0, 0, 0.4444444477558136, 16, -31.3)"/>
        <path id="ID0.2820471115410328" fill="none" stroke="#FF0000" stroke-width="2" stroke-linecap="round" d="M 83.300 73.950 L 83.600 74.250 " transform="matrix(0.4444444477558136, 0, 0, 0.4444444477558136, 16, -31.3)"/>
        <path id="ID0.8687682445161045" fill="none" stroke="#FF0000" stroke-width="2" stroke-linecap="round" d="M 72.800 73.400 L 73.100 73.700 " transform="matrix(0.4444444477558136, 0, 0, 0.4444444477558136, 16, -31.3)"/>
        <g id="ID0.65213811583817">
          <path id="ID0.1449937978759408" fill="#00FFFF" stroke="none" d="M 53.125 84.300 C 54.387 84.300 55.531 84.813 56.359 85.641 C 57.187 86.469 57.700 87.613 57.700 88.875 C 57.700 90.137 57.187 91.281 56.359 92.109 C 55.531 92.937 54.387 93.450 53.125 93.450 C 51.863 93.450 50.719 92.937 49.891 92.109 C 49.063 91.281 48.550 90.137 48.550 88.875 C 48.550 87.613 49.063 86.469 49.891 85.641 C 50.719 84.813 51.863 84.300 53.125 84.300 Z " transform="matrix(0.17486339807510376, 0, 0, 0.17486339807510376, 39.45, -9)"/>
          <path id="ID0.1449937978759408" fill="url(#grad_1)" stroke="none" d="M 53.125 84.300 C 54.387 84.300 55.531 84.813 56.359 85.641 C 57.187 86.469 57.700 87.613 57.700 88.875 C 57.700 90.137 57.187 91.281 56.359 92.109 C 55.531 92.937 54.387 93.450 53.125 93.450 C 51.863 93.450 50.719 92.937 49.891 92.109 C 49.063 91.281 48.550 90.137 48.550 88.875 C 48.550 87.613 49.063 86.469 49.891 85.641 C 50.719 84.813 51.863 84.300 53.125 84.300 Z " transform="matrix(0.17486339807510376, 0, 0, 0.17486339807510376, 39.45, -9)"/>
        </g>
        <path id="ID0.09253329830244184" fill="url(#grad_2)" stroke="#000000" stroke-width="2" d="M 224.500 97.500 L 234.800 79.700 L 247.450 96.050 L 262.050 80.650 L 275.500 97.500 L 288.700 82.950 L 286.150 123.550 L 224.500 123.500 L 224.500 97.500 Z " transform="matrix(0.1752021610736847, 0, 0, 0.2380952388048172, 7.3, -17.2)"/>
      </g>
    </g>
    <g id="ID0.4347897255793214" transform="matrix(1, 0, 0, 1, 156, 124)">
      <path id="ID0.6906592580489814" fill="#EFCF38" d="M 67.267 53.296 C 67.672 47.246 71.209 44.732 74.800 39.874 C 70.839 39.585 67.504 41.368 64.650 39.026 C 68.757 38.286 71.078 37.922 74.942 36.258 C 73.944 34.745 72.591 34.754 71.013 33.945 C 68.004 32.392 67.183 29.399 67.163 25.878 L 76.952 32.140 C 78.348 27.656 76.674 24.494 78.468 20.199 C 79.776 17.068 80.340 15.083 82.557 12.498 C 83.579 11.293 84.248 9.689 85.783 10.067 C 85.492 14.419 90.626 35.325 87.231 38.757 C 83.126 42.910 73.091 53.615 70.215 53.513 C 69.068 53.456 68.371 52.818 67.267 53.296 Z " transform="matrix(1.2094361782073975, 0, 0, 1.2094361782073975, -5.3, -5.8)"/>
      <path id="ID0.35857311682775617" fill="#769100" d="M 71.661 51.699 C 69.143 51.338 68.160 50.242 66.118 49.108 C 66.453 47.532 65.556 45.385 64.669 43.296 C 64.253 42.278 61.496 41.144 61.313 40.064 C 61.068 38.766 62.301 38.270 62.839 37.083 C 64.149 34.299 64.973 32.653 65.281 29.582 C 65.524 27.094 63.395 23.445 65.772 23.005 C 68.407 22.530 69.485 22.050 71.892 20.785 C 77.130 18.022 79.187 15.506 83.005 11.839 C 82.522 13.723 80.706 18.711 80.546 21.099 C 80.221 25.981 81.309 28.780 82.473 33.504 C 82.953 35.486 86.188 37.462 84.555 38.596 C 82.602 39.947 80.794 39.957 78.639 40.893 C 74.697 42.604 71.933 46.250 71.661 51.699 Z " transform="matrix(1.2094361782073975, 0, 0, 1.2094361782073975, -5.3, -5.8)"/>
      <path id="ID0.4100918071344495" fill="#272525" d="M 72.384 50.607 C 71.688 51.047 71.285 50.157 70.693 50.077 C 72.857 42.865 78.299 39.582 84.332 37.770 C 80.728 32.824 79.048 21.414 81.626 14.499 C 77.264 20.947 77.652 28.021 79.750 35.225 C 75.850 34.139 71.350 29.656 67.428 26.559 C 67.477 31.175 75.033 34.806 78.550 36.075 C 78.657 36.940 69.098 38.624 65.118 39.104 C 67.400 40.720 75.947 38.373 77.303 38.246 C 72.769 42.020 69.672 47.935 69.029 50.825 C 68.470 50.807 68.069 50.381 67.696 50.002 C 68.634 47.016 71.683 42.376 73.963 40.188 C 70.845 41.027 66.293 41.173 63.325 39.059 C 66.397 38.089 73.589 35.988 73.749 35.810 C 68.270 33.494 66.277 30.670 66.385 24.435 C 67.063 24.397 76.393 31.211 77.682 32.117 C 75.796 22.588 78.661 17.907 83.545 10.842 C 83.857 10.738 84.092 11.147 83.998 11.386 C 83.466 12.745 82.810 13.935 82.400 15.370 C 80.712 21.264 81.381 27.881 83.859 33.427 C 84.437 34.726 85.340 35.874 85.909 37.124 C 86.170 37.698 86.263 38.955 85.678 39.368 C 85.567 39.448 81.835 40.009 81.231 40.301 C 77.023 42.337 73.193 43.797 72.384 50.607 Z " transform="matrix(1.2094361782073975, 0, 0, 1.2094361782073975, -5.3, -5.8)"/>
      <path id="ID0.22899190336465836" fill="#272525" d="M 83.686 10.820 C 83.798 12.194 73.572 23.147 65.684 23.360 C 66.728 31.659 63.970 36.162 61.980 39.046 C 63.870 41.317 67.207 44.334 66.321 49.176 L 65.914 49.146 C 65.859 43.862 61.472 41.143 60.169 39.853 C 63.627 36.020 65.477 27.655 63.929 22.721 C 72.128 22.615 83.115 10.821 83.686 10.820 Z " transform="matrix(1.2094361782073975, 0, 0, 1.2094361782073975, -5.3, -5.8)"/>
      <path id="ID0.8494717287831008" fill="#EFCF38" d="M 47.870 40.713 C 47.489 36.871 45.912 34.516 42.798 32.411 C 40.812 31.072 39.678 29.943 37.332 29.762 C 31.138 29.284 30.660 31.352 27.816 33.521 C 27.892 33.497 27.974 33.481 28.060 33.471 C 28.140 33.418 28.214 33.360 28.318 33.326 C 28.855 33.153 29.375 32.934 29.932 32.829 C 30.075 32.736 30.241 32.667 30.455 32.666 C 30.608 32.546 30.793 32.458 31.042 32.458 C 31.101 32.458 31.147 32.475 31.200 32.483 C 31.335 32.400 31.492 32.341 31.687 32.337 C 31.821 32.262 31.975 32.209 32.166 32.209 C 32.178 32.209 32.185 32.214 32.196 32.215 C 32.318 32.159 32.460 32.126 32.624 32.126 C 32.735 32.126 32.822 32.159 32.914 32.186 C 33.006 32.159 33.096 32.126 33.208 32.126 C 33.216 32.126 33.222 32.130 33.230 32.131 C 33.305 32.114 33.371 32.085 33.458 32.085 C 33.566 32.085 33.646 32.122 33.735 32.147 C 33.830 32.117 33.924 32.085 34.041 32.085 C 34.209 32.085 34.351 32.123 34.474 32.182 C 34.499 32.181 34.516 32.168 34.541 32.168 C 34.649 32.168 34.746 32.185 34.835 32.210 C 35.010 32.210 35.157 32.252 35.284 32.316 C 35.346 32.323 35.398 32.344 35.452 32.360 C 35.497 32.355 35.533 32.334 35.582 32.334 C 35.869 32.334 36.084 32.438 36.241 32.591 C 36.354 32.618 36.449 32.667 36.534 32.725 C 36.598 32.744 36.654 32.772 36.709 32.802 C 36.895 32.849 37.042 32.944 37.154 33.066 C 37.255 33.099 37.340 33.150 37.416 33.210 C 37.686 33.266 37.874 33.422 37.998 33.619 C 38.122 33.667 38.218 33.744 38.302 33.831 C 38.456 33.914 38.572 34.036 38.653 34.177 C 38.676 34.199 38.684 34.233 38.705 34.258 C 38.806 34.326 38.877 34.417 38.937 34.515 C 39.160 34.622 39.304 34.812 39.384 35.028 C 39.626 35.178 39.753 35.433 39.797 35.702 C 39.816 35.719 39.828 35.741 39.845 35.759 C 39.945 35.840 40.016 35.943 40.074 36.053 C 40.116 36.105 40.128 36.174 40.157 36.233 C 40.330 36.382 40.429 36.591 40.469 36.811 C 40.559 36.915 40.619 37.040 40.658 37.172 C 40.808 37.336 40.886 37.550 40.904 37.770 C 40.920 37.806 40.917 37.846 40.928 37.884 C 41.028 38.023 41.078 38.190 41.099 38.360 C 41.267 38.558 41.341 38.821 41.329 39.081 C 41.335 39.090 41.336 39.104 41.341 39.115 C 41.420 39.180 41.431 39.316 41.400 39.463 C 41.404 39.477 41.399 39.497 41.401 39.512 C 41.483 39.537 41.513 39.617 41.523 39.710 C 41.536 39.750 41.538 39.798 41.536 39.848 C 41.687 39.905 41.684 40.132 41.604 40.346 C 41.620 40.364 41.615 40.398 41.625 40.421 C 41.646 40.458 41.658 40.501 41.661 40.553 C 41.661 40.557 41.661 40.559 41.661 40.563 C 41.663 40.651 41.644 40.750 41.606 40.850 C 41.669 40.887 41.732 40.921 41.792 40.966 C 41.956 41.090 41.921 41.373 41.809 41.596 C 41.914 41.880 41.942 42.275 41.843 42.275 C 41.791 42.275 41.745 42.235 41.704 42.179 C 41.693 42.179 41.688 42.194 41.674 42.186 C 41.598 42.142 41.521 42.100 41.444 42.058 C 41.708 42.513 41.970 42.992 42.232 43.543 C 42.795 44.736 42.710 45.662 43.471 46.723 C 44.500 46.281 44.654 45.324 45.556 44.603 C 46.374 43.940 47.683 44.471 47.923 43.425 C 48.165 42.392 47.968 41.774 47.870 40.713 Z " transform="matrix(1.2094361782073975, 0, 0, 1.2094361782073975, -5.3, -5.8)"/>
      <path id="ID0.27197321178391576" fill="#EFCF38" d="M 74.863 60.029 C 71.623 59.765 69.876 60.529 66.636 61.207 C 66.890 62.855 65.875 64.091 66.751 65.448 C 67.624 66.802 69.230 65.624 70.808 65.624 C 70.939 65.624 71.049 65.618 71.173 65.616 C 71.321 65.338 71.587 65.125 72 65.125 C 72.039 65.125 72.071 65.134 72.107 65.138 C 72.266 64.913 72.515 64.750 72.875 64.750 C 72.977 64.750 73.057 64.781 73.142 64.804 C 73.461 64.401 73.952 64.125 74.625 64.125 C 74.706 64.125 74.775 64.140 74.851 64.147 C 75.077 64.056 75.332 64 75.625 64 C 75.737 64 75.828 64.030 75.930 64.044 C 76.068 64.016 76.217 64 76.375 64 C 76.846 64 77.225 64.139 77.521 64.357 C 77.960 64.499 78.290 64.775 78.502 65.128 C 79.236 65.119 79.963 65.177 80.667 65.417 C 79.682 62.709 77.611 60.250 74.863 60.029 Z " transform="matrix(1.2094361782073975, 0, 0, 1.2094361782073975, -5.3, -5.8)"/>
      <path id="ID0.5237613837234676" fill="#769100" d="M 8.648 16.455 C 12.170 15.631 14.875 15.425 17.890 17.515 C 21.496 20.018 20.511 24.081 24.765 25.170 C 32.204 27.113 37.247 21.755 44.714 23.050 C 49.870 23.933 51.307 28.231 54.858 32.236 C 56.999 34.650 58.295 36.063 59.929 38.949 C 61.197 41.186 61.732 42.570 63.085 44.720 C 63.479 45.367 64.325 44.897 65.001 45.191 C 66.776 45.956 67.932 46.133 69.623 47.074 C 71.905 48.341 73.314 48.989 75.709 50.019 C 76.385 48.429 75.962 47.192 76.835 45.661 C 78.020 43.600 80.583 43.218 82.584 44.367 C 84.161 45.280 84.695 47.516 86.527 47.723 C 88.697 47.988 89.316 47.782 91.374 47.075 C 89.825 43.808 93.573 40.128 96.896 40.245 C 98.728 40.304 99.627 42.041 100.050 43.895 C 100.529 45.897 102.529 46.428 102.529 48.488 C 104.334 48.488 105.429 49.401 107.148 48.841 C 108.472 48.429 108.472 47.016 109.404 45.898 C 110.758 44.279 112.050 43.837 113.913 42.954 C 116.279 41.835 118.846 41.540 120.560 43.542 C 122.025 45.250 122.250 46.074 123.154 48.135 C 124.843 51.905 121.297 56.674 117.968 58.970 C 113.009 62.415 109.177 64.270 103.316 63.327 C 98.302 62.532 95.739 57.850 90.804 59.558 C 88.779 60.265 87.507 64.622 89.283 65.799 C 90.157 66.388 92.468 66.300 92.606 67.390 C 92.776 68.625 91.762 68.831 90.692 69.332 C 88.240 70.480 84.604 70.628 82.690 68.625 C 80.969 66.829 79.756 64.503 77.502 63.562 C 74.938 62.501 75.107 62.649 72.430 63.444 C 70.288 64.092 68.541 64.033 67.245 65.918 C 70.344 68.832 73.246 67.184 76.264 70.158 C 77.617 71.481 77.645 74.603 76.153 75.810 C 74.828 76.870 72.882 75.810 72.094 74.162 C 71.474 75.603 71.728 77.371 70.291 77.810 C 69.304 78.107 68.206 77.429 67.924 76.398 C 67.304 74.162 68.291 71.688 66.233 70.627 C 64.627 69.802 64.120 68.418 62.401 68.036 C 58.963 67.269 56.906 68.418 53.384 68.036 C 50.623 67.741 49.496 65.798 46.735 65.445 C 44.227 65.120 41.691 64.267 40.649 61.912 C 39.353 59.026 38.451 58.408 37.607 55.317 C 36.959 52.931 37.381 51.077 35.690 49.311 L 29.942 55.787 C 27.913 54.109 27.604 52.196 25.209 50.959 C 26.759 48.162 27.012 46.160 27.012 42.951 C 29.858 43.422 31.323 45.306 34.112 44.835 C 36.479 44.423 37.578 43.216 39.973 42.951 C 40.734 42.862 41.298 43.186 42.002 42.951 C 43.157 42.568 42.650 41.625 42.678 40.360 C 42.735 38.475 42.622 37.297 41.776 35.649 C 40.283 32.764 37.662 32.441 34.563 31.763 C 28.054 30.321 22.081 36.444 17.544 31.292 C 15.459 28.907 14.669 25.905 13.486 22.931 C 12.170 19.576 11.127 19.045 8.648 16.455 Z " transform="matrix(1.2094361782073975, 0, 0, 1.2094361782073975, -5.3, -5.8)"/>
      <path id="ID0.8726960164494812" fill="#EFCF38" d="M 60.099 62.442 L 51.420 61.500 C 51.702 63.327 51.237 64.123 49.842 65.209 C 49.279 65.651 48.307 66.239 48.772 66.799 C 49.398 67.553 49.913 67.968 50.647 68.420 C 50.715 68.431 50.776 68.425 50.849 68.453 C 54.093 69.692 57.377 69.272 60.750 69 C 60.759 68.999 60.764 69.003 60.773 69.003 C 60.856 68.958 60.955 68.934 61.058 68.914 C 61.217 68.742 61.444 68.625 61.750 68.625 C 61.928 68.625 62.075 68.668 62.204 68.734 L 60.099 62.442 Z " transform="matrix(1.2094361782073975, 0, 0, 1.2094361782073975, -5.3, -5.8)"/>
      <path id="ID0.8857720550149679" fill="#272525" d="M 88.118 63.411 C 88.913 62.705 92.295 61.616 93.085 62.845 C 93.729 63.846 91.981 65.571 90.979 66.394 C 90.389 66.064 88.342 63.870 88.118 63.411 Z " transform="matrix(1.2094361782073975, 0, 0, 1.2094361782073975, -5.3, -5.8)"/>
      <path id="ID0.822335965000093" fill="#FFFFFF" d="M 91.874 63.518 C 92.086 63.885 90.977 65.152 90.339 65.314 C 89.932 64.839 89.518 64.069 89.518 64.069 C 89.518 64.069 91.416 62.720 91.874 63.518 Z " transform="matrix(1.2094361782073975, 0, 0, 1.2094361782073975, -5.3, -5.8)"/>
      <path id="ID0.6341359852813184" fill="#272525" d="M 94.618 60.535 C 95.597 60.662 97.624 60.786 98.577 61.088 C 98.510 62.176 96.910 65.474 95.517 65.214 C 94.150 64.958 94.465 61.376 94.618 60.535 Z " transform="matrix(1.2094361782073975, 0, 0, 1.2094361782073975, -5.3, -5.8)"/>
      <path id="ID0.287348082754761" fill="#FFFFFF" d="M 95.895 63.834 C 95.496 63.738 95.391 62.024 95.723 61.433 C 96.333 61.457 97.151 61.680 97.151 61.680 C 97.151 61.680 96.760 64.045 95.895 63.834 Z " transform="matrix(1.2094361782073975, 0, 0, 1.2094361782073975, -5.3, -5.8)"/>
      <path id="ID0.8399602132849395" fill="#272525" d="M 102.844 64.067 C 103.824 64.193 105.850 64.319 106.805 64.621 C 106.737 65.709 105.139 69.006 103.743 68.746 C 102.378 68.492 102.693 64.911 102.844 64.067 Z " transform="matrix(1.2094361782073975, 0, 0, 1.2094361782073975, -5.3, -5.8)"/>
      <path id="ID0.9670137828215957" fill="#FFFFFF" d="M 104.122 67.370 C 103.723 67.273 103.619 65.558 103.950 64.969 C 104.558 64.990 105.380 65.215 105.380 65.215 C 105.380 65.215 104.988 67.580 104.122 67.370 Z " transform="matrix(1.2094361782073975, 0, 0, 1.2094361782073975, -5.3, -5.8)"/>
      <path id="ID0.6079672141931951" fill="#272525" d="M 117.762 59.991 C 118.460 59.262 119.802 57.673 120.616 57.072 C 121.394 57.797 122.896 61.144 121.844 62.132 C 120.811 63.099 118.303 60.633 117.762 59.991 Z " transform="matrix(1.2094361782073975, 0, 0, 1.2094361782073975, -5.3, -5.8)"/>
      <path id="ID0.27255822252482176" fill="#FFFFFF" d="M 121.037 60.972 C 120.719 61.242 119.363 60.272 119.121 59.634 C 119.516 59.148 120.187 58.611 120.187 58.611 C 120.187 58.611 121.729 60.388 121.037 60.972 Z " transform="matrix(1.2094361782073975, 0, 0, 1.2094361782073975, -5.3, -5.8)"/>
      <path id="ID0.26858658250421286" fill="#272525" d="M 111.268 63.149 C 112.213 62.847 114.114 62.101 115.100 61.972 C 115.462 62.993 115.288 66.687 113.912 67.040 C 112.564 67.390 111.458 63.984 111.268 63.149 Z " transform="matrix(1.2094361782073975, 0, 0, 1.2094361782073975, -5.3, -5.8)"/>
      <path id="ID0.584137849509716" fill="#FFFFFF" d="M 113.719 65.623 C 113.315 65.705 112.557 64.183 112.629 63.503 C 113.195 63.265 114.029 63.121 114.029 63.121 C 114.029 63.121 114.593 65.446 113.719 65.623 Z " transform="matrix(1.2094361782073975, 0, 0, 1.2094361782073975, -5.3, -5.8)"/>
      <path id="ID0.8667866848409176" fill="#EFCF38" d="M 63.424 54.257 C 63.424 47.544 67.143 44.482 70.750 38.830 C 66.354 38.830 62.804 41.067 59.479 38.712 C 63.959 37.564 66.495 36.975 70.637 34.826 C 69.426 33.236 67.932 33.354 66.128 32.588 C 62.690 31.117 61.564 27.878 61.282 23.991 L 72.552 30.115 C 73.763 25.051 71.678 21.695 73.341 16.807 C 74.553 13.245 75.031 11.008 77.286 7.975 C 78.329 6.561 78.949 4.736 80.668 5.031 C 80.668 9.860 87.881 32.530 84.387 36.593 C 80.161 41.509 69.876 54.139 66.692 54.257 C 65.424 54.288 64.607 53.639 63.424 54.257 Z " transform="matrix(1.2094361782073975, 0, 0, 1.2094361782073975, -5.3, -5.8)"/>
      <path id="ID0.34107698779553175" fill="#769100" d="M 68.157 52.139 C 65.351 51.943 64.184 50.814 61.846 49.724 C 62.099 47.959 60.950 45.660 59.817 43.424 C 59.281 42.335 56.154 41.304 55.872 40.127 C 55.506 38.713 56.830 38.065 57.337 36.711 C 58.577 33.531 59.366 31.647 59.479 28.231 C 59.563 25.464 56.943 21.607 59.535 20.930 C 62.410 20.193 63.564 19.575 66.128 17.986 C 71.707 14.512 73.792 11.568 77.736 7.210 C 77.340 9.330 75.709 14.983 75.709 17.632 C 75.709 23.049 77.117 26.052 78.751 31.175 C 79.428 33.324 81.823 35.445 80.104 36.828 C 78.048 38.477 77.739 38.919 75.427 40.126 C 71.201 42.333 68.524 47.222 68.157 52.139 Z " transform="matrix(1.2094361782073975, 0, 0, 1.2094361782073975, -5.3, -5.8)"/>
      <path id="ID0.9021956860087812" fill="#272525" d="M 69.063 51.951 C 68.326 52.492 67.694 52.134 67.034 52.093 C 68.890 43.954 73.583 38.187 80.109 35.699 C 75.765 30.529 74.075 18.104 76.412 10.261 C 72.070 17.732 73.023 25.512 75.872 33.296 C 71.483 32.412 66.186 27.826 61.625 24.723 C 62.021 29.815 70.632 33.215 74.607 34.333 C 74.792 35.278 64.360 37.910 60.002 38.761 C 62.640 40.362 71.904 37.080 73.391 36.830 C 68.665 41.363 65.683 48.144 65.186 51.386 C 64.568 51.412 64.093 50.974 63.653 50.585 C 64.466 47.212 67.492 41.844 69.848 39.243 C 66.466 40.421 61.451 40.951 58.018 38.855 C 61.338 37.535 69.123 34.636 69.289 34.428 C 63.069 32.313 60.659 29.355 60.317 22.462 C 61.064 22.366 70.730 28.586 72.220 29.482 C 69.435 19.110 73.390 14.264 78.260 6.068 C 78.596 5.928 78.887 6.361 78.801 6.633 C 78.315 8.176 77.680 9.542 77.331 11.161 C 75.902 17.805 77.133 25.057 80.275 30.981 C 81.007 32.368 82.090 33.562 82.812 34.898 C 83.142 35.511 83.337 36.891 82.720 37.395 C 82.603 37.492 79.269 38.887 78.620 39.258 C 74.130 41.843 69.454 44.366 69.063 51.951 Z " transform="matrix(1.2094361782073975, 0, 0, 1.2094361782073975, -5.3, -5.8)"/>
      <path id="ID0.12352398922666907" fill="#272525" d="M 78.415 6.033 C 78.639 7.540 68.157 20.458 59.460 21.332 C 61.226 30.411 58.513 35.605 56.529 38.950 C 58.783 41.304 62.690 44.367 62.071 49.783 L 61.620 49.783 C 61.169 43.954 56.124 41.305 54.590 39.987 C 58.126 35.475 59.549 26.091 57.476 20.767 C 66.523 19.987 77.783 6.080 78.415 6.033 Z " transform="matrix(1.2094361782073975, 0, 0, 1.2094361782073975, -5.3, -5.8)"/>
      <path id="ID0.3471745355054736" fill="#272525" d="M 56.886 34.354 C 56.646 32.707 54.686 29.228 53.869 27.995 C 44.845 14.375 29.178 28.369 23.574 23.097 C 20.500 20.205 19.682 17.505 15.279 15.418 C 11.127 13.450 5.002 16.641 5 17.444 C 14.001 15.807 12.844 30.145 19.066 33.838 C 21.751 35.432 24.397 34.723 27.085 33.778 C 27.126 33.757 27.174 33.747 27.221 33.732 C 27.369 33.680 27.517 33.626 27.665 33.572 C 27.705 33.551 27.751 33.540 27.796 33.525 C 27.952 33.469 28.108 33.414 28.264 33.358 C 28.285 33.350 28.297 33.335 28.319 33.327 C 28.617 33.231 28.911 33.125 29.208 33.028 C 29.480 32.935 29.752 32.846 30.025 32.761 C 30.046 32.751 30.071 32.749 30.092 32.741 C 31.922 32.178 33.782 31.848 35.701 32.378 C 39.561 33.443 42.065 38.300 41.941 43.482 C 42.329 43.816 42.855 43.790 43.248 43.482 C 43.431 39.180 43.137 34.872 40.149 32.176 C 32.714 25.470 23.419 35.584 18.164 30.681 C 13.642 26.462 15.350 19.713 10.725 16.549 C 16.618 15.129 19.076 23.053 23.259 25.593 C 32.379 31.133 42.798 11.450 55.613 35.874 C 56.444 35.818 56.998 35.120 56.886 34.354 Z " transform="matrix(1.2094361782073975, 0, 0, 1.2094361782073975, -5.3, -5.8)"/>
      <path id="ID0.11598530365154147" fill="#272525" d="M 48.547 44.720 L 47.096 43.872 C 47.485 38.868 45.334 31.883 36.149 29.586 C 43.700 29.351 51.576 38.693 48.547 44.720 Z " transform="matrix(1.2094361782073975, 0, 0, 1.2094361782073975, -5.3, -5.8)"/>
      <path id="ID0.20384214585646987" fill="#FF1816" d="M 131.936 95.105 C 132.518 96.306 125.889 100.793 121.899 97.841 C 119.467 96.040 119.871 90.702 116.495 89.806 C 118.799 87.603 124.410 87.041 126.047 89.715 C 126.739 90.851 125.860 92.331 126.937 93.351 C 128.197 94.557 130.371 94.536 131.936 95.105 Z " transform="matrix(1.2094361782073975, 0, 0, 1.2094361782073975, -5.3, -5.8)"/>
      <path id="ID0.9845799235627055" fill="#FFEA00" d="M 130.066 96.073 C 119.543 101.060 123.400 90.085 119.515 89.874 C 125.599 86.807 123.693 94.665 126.558 95.928 C 127.549 96.364 130.066 96.073 130.066 96.073 Z " transform="matrix(1.2094361782073975, 0, 0, 1.2094361782073975, -5.3, -5.8)"/>
      <path id="ID0.32422945322468877" fill="#272525" d="M 100.621 43.448 C 98.036 43.872 99.025 41.550 95.978 41.093 C 93.991 40.796 90.023 42.364 93.136 47.877 C 91.033 47.487 86.876 48.873 86.876 48.873 C 86.876 48.873 85.998 48.144 85.735 47.251 C 86.317 46.835 89.794 46.365 90.428 46.085 C 88.512 38.696 98.051 36.949 100.393 42.128 C 100.553 42.477 100.682 43.068 100.621 43.448 Z " transform="matrix(1.2094361782073975, 0, 0, 1.2094361782073975, -5.3, -5.8)"/>
      <path id="ID0.672332601621747" fill="#272525" d="M 42.009 42.364 C 43.047 42.871 43.634 43.819 43.816 44.955 C 44.972 43.590 48.670 42.818 49.136 45.144 C 43.563 44.589 44.888 48.272 42.910 50.843 C 42.261 51.685 41.837 51.962 42.102 50.702 C 42.474 48.947 43.229 43.941 40.660 43.353 C 39.054 42.986 36.294 45.460 34.169 45.520 C 31.820 45.587 30.194 44.561 28.037 43.918 C 28.693 46.078 28.373 48.882 26.594 50.372 C 27.977 51.330 29.827 52.500 30.200 54.330 C 30.960 53.443 35.136 48.924 35.926 48.677 C 36.341 48.547 37.154 50.342 37.323 50.938 C 38.600 55.453 39.771 62.689 45.123 64.034 C 47.296 64.581 49.967 63.842 51.074 61.772 C 52.358 59.374 53.190 57.003 52.995 54.203 C 52.958 53.675 52.467 51.691 52.472 51.598 C 52.496 51.140 52.882 51.035 53.239 51.126 C 55.668 56.580 53.843 65.447 47.694 66.860 C 44.692 67.550 40.817 63.584 39.264 61.208 C 37.416 58.383 36.514 53.580 35.928 50.233 C 33.743 52.426 32.203 55.237 29.841 57.251 C 29.274 55.495 26.569 51.845 24.252 51.126 C 25.948 49.359 27.471 44.543 25.964 41.092 C 36.635 46.748 36.562 39.706 42.009 42.364 Z " transform="matrix(1.2094361782073975, 0, 0, 1.2094361782073975, -5.3, -5.8)"/>
      <path id="ID0.3665733430534601" fill="#272525" d="M 91.875 66.859 C 83.357 65.904 87.023 57.562 94.984 59.041 C 98.796 59.747 100.876 63.652 104.948 63.468 C 110.347 63.225 116.400 60.557 119.888 56.319 C 122.113 53.618 125.075 45.897 118.021 43.259 C 114.129 41.804 109.685 45.868 107.965 49.242 C 106.984 49.312 103.504 49.213 102.644 48.663 C 102.984 47.925 102.845 48.008 103.238 47.296 C 103.914 47.370 106.974 47.616 107.662 47.544 C 114.198 37.004 127.760 40.724 122.801 54.753 C 120.173 62.191 108.781 67.398 101.702 65.163 C 98.476 64.145 92.855 58.338 89.710 62.337 C 88.413 63.989 91.449 65.779 91.875 66.859 Z " transform="matrix(1.2094361782073975, 0, 0, 1.2094361782073975, -5.3, -5.8)"/>
      <path id="ID0.20089088287204504" fill="#272525" d="M 86.646 46.980 L 86.015 47.404 C 89.314 48.518 90.976 50.477 89.795 53.198 C 87.273 59.020 76.795 52.715 82.130 47.898 C 82.788 47.304 84.158 47.132 84.894 47.368 C 81.138 41.555 74.761 45.386 77.670 51.267 C 77.670 51.267 71.477 48.953 69.281 48.016 C 68.992 47.528 70.106 46.793 70.494 46.827 C 71.903 46.945 74.966 48.900 75.815 49.253 C 75.537 48.016 74.920 45.115 77.579 43.353 C 81.118 41.008 84.830 43.770 86.646 46.980 Z " transform="matrix(1.2094361782073975, 0, 0, 1.2094361782073975, -5.3, -5.8)"/>
      <path id="ID0.0050763520412147045" fill="#272525" d="M 102.895 50.786 C 100.112 52.846 94.522 50.266 95.602 46.659 C 96.450 43.837 99.918 43.934 102.332 45.573 C 104.225 46.854 104.075 49.915 102.895 50.786 Z " transform="matrix(1.2094361782073975, 0, 0, 1.2094361782073975, -5.3, -5.8)"/>
      <path id="ID0.44303235970437527" fill="#FFFFFF" d="M 102.195 47.544 C 103.163 49.058 101.914 50.724 99.716 50.371 C 98.326 50.146 96.447 48.899 96.842 47.132 C 97.084 46.049 98.156 45.558 99.547 45.896 C 100.426 46.109 101.628 46.657 102.195 47.544 Z " transform="matrix(1.2094361782073975, 0, 0, 1.2094361782073975, -5.3, -5.8)"/>
      <path id="ID0.18071374716237187" fill="#272525" d="M 101.463 46.957 C 101.790 46.957 102.086 47.096 102.300 47.320 C 102.514 47.543 102.647 47.853 102.647 48.194 C 102.647 48.535 102.514 48.845 102.300 49.068 C 102.086 49.292 101.790 49.431 101.463 49.431 C 101.136 49.431 100.840 49.292 100.626 49.068 C 100.412 48.845 100.279 48.535 100.279 48.194 C 100.279 47.853 100.412 47.543 100.626 47.320 C 100.840 47.096 101.136 46.957 101.463 46.957 Z " transform="matrix(1.2094361782073975, 0, 0, 1.2094361782073975, -5.3, -5.8)"/>
      <path id="ID0.476620614528656" fill="#272525" d="M 118.750 46.820 C 119.537 47.052 120.129 48.652 120.249 49.651 C 120.391 50.792 120.043 51.950 119.041 52.166 C 117.706 52.453 116.646 51.081 116.303 49.684 C 115.895 48.017 116.846 46.257 118.750 46.820 Z " transform="matrix(1.2094361782073975, 0, 0, 1.2094361782073975, -5.3, -5.8)"/>
      <path id="ID0.563854914624244" fill="#A1BF00" d="M 117.206 49.635 C 117.062 49.051 117.225 48.189 117.891 48.033 C 118.557 47.879 118.956 48.518 119.272 49.124 C 119.903 50.339 119.391 51.424 118.694 51.481 C 118.174 51.524 117.538 50.997 117.206 49.635 Z " transform="matrix(1.2094361782073975, 0, 0, 1.2094361782073975, -5.3, -5.8)"/>
      <path id="ID0.5103882467374206" fill="#FFFFFF" d="M 82.798 51.007 C 82.376 47.485 88.436 48.095 88.973 51.333 C 89.551 54.837 83.382 55.881 82.798 51.007 Z " transform="matrix(1.2094361782073975, 0, 0, 1.2094361782073975, -5.3, -5.8)"/>
      <path id="ID0.0208440781570971" fill="#272525" d="M 87.540 49.726 C 87.992 49.726 88.402 49.918 88.699 50.228 C 88.996 50.538 89.180 50.966 89.180 51.438 C 89.180 51.910 88.996 52.338 88.699 52.648 C 88.402 52.958 87.992 53.150 87.540 53.150 C 87.088 53.150 86.678 52.958 86.381 52.648 C 86.084 52.338 85.900 51.910 85.900 51.438 C 85.900 50.966 86.084 50.538 86.381 50.228 C 86.678 49.918 87.088 49.726 87.540 49.726 Z " transform="matrix(1.2094361782073975, 0, 0, 1.2094361782073975, -5.3, -5.8)"/>
      <path id="ID0.7392752389423549" fill="#FF1816" d="M 143.221 56.083 C 140.583 58.851 139.925 66.644 136.305 68.036 C 131.708 69.805 129.076 60.969 123.637 62.148 C 127.143 56.475 131.455 60.363 133.464 59.745 C 135.787 59.034 138.092 54.022 143.221 56.083 Z " transform="matrix(1.2094361782073975, 0, 0, 1.2094361782073975, -5.3, -5.8)"/>
      <path id="ID0.7487614741548896" fill="#FFEA00" d="M 126.341 61.253 C 128.962 58.846 132.430 62.285 134.545 61.442 C 136.631 60.607 136.397 57.526 140.631 56.494 C 137.891 58.784 138.380 67.449 133.149 65.774 C 130.922 65.063 129.633 61.422 126.341 61.253 Z " transform="matrix(1.2094361782073975, 0, 0, 1.2094361782073975, -5.3, -5.8)"/>
      <path id="ID0.8452975563704967" fill="#272525" d="M 115 56.638 C 113.854 59.631 109.238 57.901 108.284 55.270 C 106.816 51.234 112.499 51.930 114.216 53.513 C 115.428 54.628 115.309 55.833 115 56.638 Z " transform="matrix(1.2094361782073975, 0, 0, 1.2094361782073975, -5.3, -5.8)"/>
      <path id="ID0.823314209934324" fill="#A1BF00" d="M 114.150 54.972 C 115.129 57.732 111.116 57.776 110.123 55.634 C 108.729 52.626 113.495 53.126 114.150 54.972 Z " transform="matrix(1.2094361782073975, 0, 0, 1.2094361782073975, -5.3, -5.8)"/>
      <path id="ID0.5328716160729527" fill="#272525" d="M 79.316 62.855 C 73.961 58.555 70.636 61.373 67.254 62.031 C 66.957 62.088 67.240 61.741 67.073 61.477 C 65.849 59.542 74.219 58.309 76.947 59.733 C 78.639 60.618 79.316 62.855 79.316 62.855 Z " transform="matrix(1.2094361782073975, 0, 0, 1.2094361782073975, -5.3, -5.8)"/>
      <path id="ID0.9395506661385298" fill="#272525" d="M 78.126 72.608 C 77.683 70.035 76.064 68.853 74.144 68.071 C 73.963 68.030 73.805 67.963 73.658 67.881 C 71.448 67.069 68.949 66.661 67.397 65.258 C 66.932 63.739 67.831 61.731 67.934 60.441 C 68.047 59.028 66.243 58.675 65.680 60.441 C 63.195 68.233 72.663 67.346 75.286 70.911 C 76.033 71.927 76.223 73.725 75.644 74.869 C 73.859 78.395 73.061 71.923 70.775 72.042 C 71.707 73.923 71.468 77.283 69.243 77.271 C 66.804 76.220 69.502 72.070 68.612 70.815 C 67.690 69.519 62.874 69.618 61.669 64.126 C 61.179 61.892 62.027 61.033 62.976 59.181 C 62.196 57.963 60.098 58.203 59.593 59.982 C 59.294 61.040 59.121 62.654 59.278 63.703 C 59.577 65.710 60.714 67.388 62.195 68.726 C 62.325 68.790 62.426 68.883 62.507 68.992 C 63.926 70.194 65.609 71.105 67.168 71.711 C 66.636 74.752 65.903 79.107 70.415 78.732 C 71.440 78.646 72.440 76.517 72.383 75.221 C 72.455 75.210 74.605 78.529 76.817 76.800 C 77.950 75.916 78.369 74.016 78.126 72.608 Z " transform="matrix(1.2094361782073975, 0, 0, 1.2094361782073975, -5.3, -5.8)"/>
      <path id="ID0.8217857060953975" fill="#272525" d="M 60.302 61.807 C 60.302 62.279 60.437 63.033 59.761 63.033 L 52.920 62.349 C 52.559 62.067 52.694 61.407 52.830 61.030 C 52.829 61.029 59.265 60.817 60.302 61.807 Z " transform="matrix(1.2094361782073975, 0, 0, 1.2094361782073975, -5.3, -5.8)"/>
      <path id="ID0.02687776368111372" fill="#272525" d="M 92.823 67.896 C 92.664 67.530 92.027 67.644 91.740 67.661 C 90.298 68.953 88.888 69.021 87.095 68.886 C 78.533 68.236 83.214 58.272 69.563 63.798 C 68.959 64.043 67.724 64.899 67.140 65.211 C 67.106 65.992 67.107 66.380 67.996 66.507 C 68.436 66.569 69.943 65.963 71.399 65.343 C 71.514 65.249 71.657 65.187 71.829 65.159 C 71.983 65.093 72.125 65.032 72.274 64.968 C 72.388 64.875 72.530 64.814 72.699 64.785 C 73.023 64.646 73.326 64.516 73.586 64.410 C 73.772 64.295 73.982 64.208 74.226 64.164 C 74.262 64.152 74.304 64.136 74.334 64.127 C 75.016 63.924 75.662 63.904 76.277 64.009 C 76.310 64.008 76.339 63.999 76.374 63.999 C 76.837 63.999 77.207 64.137 77.502 64.351 C 77.822 64.451 78.087 64.619 78.289 64.841 C 79.806 65.829 81.081 67.456 82.136 68.792 C 85.639 73.224 93.941 70.515 92.823 67.896 Z " transform="matrix(1.2094361782073975, 0, 0, 1.2094361782073975, -5.3, -5.8)"/>
      <path id="ID0.060609509237110615" fill="#FF1816" d="M 128.634 71.083 C 125.944 67.836 121.397 67.434 119.096 71.474 C 117.854 73.653 116.787 76.049 114.905 77.769 C 112.604 79.873 107.551 79.271 105.096 77.746 C 104.158 77.163 102.908 76.114 102.210 75.240 C 101.960 76.670 102.704 78.627 103.795 79.523 C 106.994 82.154 114.486 76.642 118.113 86.390 C 117.540 86.912 117.038 86.131 116.531 85.952 C 109.156 83.296 106.310 91.955 98.642 86.265 C 92.288 81.554 99.199 75.652 96.605 69.962 C 95.751 68.092 94.627 66.455 92.758 65.577 C 98.531 63.183 101.700 68.629 105.097 71.145 C 110.452 75.121 113.673 64.132 120.833 64.385 C 124.133 64.503 127.555 66.977 128.634 71.083 Z " transform="matrix(1.2094361782073975, 0, 0, 1.2094361782073975, -5.3, -5.8)"/>
      <path id="ID0.780435835942626" fill="#FFEA00" d="M 125.495 67.265 C 119.706 63.884 116.623 72.114 114.433 75.195 C 110.211 81.134 102.871 74.601 101.412 72.991 C 100.855 75.660 100.204 79.239 102.609 81.083 C 107.097 84.523 112.255 78.551 115.886 84.827 C 114.765 84.425 113.782 83.748 112.574 83.642 C 108.391 83.279 106.415 87.146 101.507 85.830 C 99.556 85.307 97.915 83.333 97.695 81.165 C 97.597 80.209 98.585 76.137 98.769 74.789 C 99.467 69.716 97.066 67.295 94.532 65.571 C 100.689 65.546 101.597 76.672 110.142 73.411 C 115.238 71.468 117.058 63.188 123.656 66.269 C 124.266 66.551 124.982 66.820 125.495 67.265 Z " transform="matrix(1.2094361782073975, 0, 0, 1.2094361782073975, -5.3, -5.8)"/>
      <path id="ID0.12093066517263651" fill="#272525" d="M 61.338 66.917 C 57.619 67.979 51.894 66.564 49.234 64.868 C 48.513 65.434 47.701 65.998 47.476 66.799 C 49.652 68.342 52.611 69.088 55.307 69.275 C 56.672 69.318 58.047 69.226 59.437 69.110 C 60.040 69.021 60.696 68.907 61.258 68.763 C 61.381 68.692 61.523 68.646 61.694 68.637 C 62.076 68.513 62.382 68.374 62.523 68.213 C 63.017 67.741 61.383 67.341 61.338 66.917 Z " transform="matrix(1.2094361782073975, 0, 0, 1.2094361782073975, -5.3, -5.8)"/>
      <path id="ID0.8654435686767101" fill="#FF1816" d="M 115.709 80.977 C 115.882 78.751 117.377 76.828 119.236 75.809 C 122.097 74.245 124.916 76.526 127.378 77.757 C 129.658 78.901 132.357 78.391 134.649 77.582 C 134.821 80.782 132.799 85.896 129.628 85.634 C 125.887 85.324 122.193 77.245 115.709 80.977 Z " transform="matrix(1.2094361782073975, 0, 0, 1.2094361782073975, -5.3, -5.8)"/>
      <path id="ID0.3718892759643495" fill="#FFEA00" d="M 118.430 78.751 C 122.588 73.760 126.280 82.147 131.543 80.182 L 133.581 79.420 C 133.031 80.772 131.271 82.686 129.874 83.016 C 125.971 83.932 123.270 76.477 118.430 78.751 Z " transform="matrix(1.2094361782073975, 0, 0, 1.2094361782073975, -5.3, -5.8)"/>
    </g>
  </g>
</svg>