<svg xmlns="http://www.w3.org/2000/svg" xmlns:xlink="http://www.w3.org/1999/xlink" version="1.1" width="24.375" height="30.75" viewBox="0.050000011920928955 0.15000003576278687 24.375 30.75">
  <defs>
    <linearGradient id="grad_1" x1="9.3999" y1="29.3428" x2="13.9829" y2="0.4066" gradientUnits="userSpaceOnUse">
      <stop offset="0" stop-color="#A83C00"/>
      <stop offset="0.5211" stop-color="#D19500"/>
      <stop offset="0.7606" stop-color="#D1AEAE"/>
      <stop offset="1" stop-color="#D19500"/>
    </linearGradient>
    <linearGradient id="grad_2" x1="-109.6582" y1="9.2119" x2="-120.9855" y2="20.5392" gradientUnits="userSpaceOnUse">
      <stop offset="0" stop-color="#FFDA4C"/>
      <stop offset="0.5459" stop-color="#FFFF4C"/>
      <stop offset="0.6083" stop-color="#FFFF71"/>
      <stop offset="0.7039" stop-color="#FFFFA3"/>
      <stop offset="0.794" stop-color="#FFFFCB"/>
      <stop offset="0.8761" stop-color="#FFFFE8"/>
      <stop offset="0.9474" stop-color="#FFFFF9"/>
      <stop offset="1" stop-color="#FFFFFF"/>
    </linearGradient>
  <linearGradient id="grad_1-,0,0,1,0.55,0.65" x1="9.9499" y1="29.9928" x2="14.5329" y2="1.0566" gradientUnits="userSpaceOnUse">
      <stop offset="0" stop-color="#A83C00"/>
      <stop offset="0.5211" stop-color="#D19500"/>
      <stop offset="0.7606" stop-color="#D1AEAE"/>
      <stop offset="1" stop-color="#D19500"/>
    </linearGradient><linearGradient id="grad_2-,0,0,1,0.55,0.65" x1="-109.1082" y1="9.8619" x2="-120.4355" y2="21.1892" gradientUnits="userSpaceOnUse">
      <stop offset="0" stop-color="#FFDA4C"/>
      <stop offset="0.5459" stop-color="#FFFF4C"/>
      <stop offset="0.6083" stop-color="#FFFF71"/>
      <stop offset="0.7039" stop-color="#FFFFA3"/>
      <stop offset="0.794" stop-color="#FFFFCB"/>
      <stop offset="0.8761" stop-color="#FFFFE8"/>
      <stop offset="0.9474" stop-color="#FFFFF9"/>
      <stop offset="1" stop-color="#FFFFFF"/>
    </linearGradient></defs>
  <!-- Exported by Scratch - http://scratch.mit.edu/ -->
  <g id="ID0.8258890747092664">
    <g id="ID0.4755026241764426">
      <path id="ID0.712921445723623" fill="url(#grad_1-,0,0,1,0.55,0.65)" d="M 9.788 29.9 C 4.97 29.9 1.05 23.452 1.05 15.525 C 1.05 7.599 4.97 1.15 9.788 1.15 C 9.838 1.15 14.813 1.151 14.889 1.153 C 19.677 1.335 23.425 7.647 23.425 15.525 C 23.425 23.434 19.661 29.747 14.857 29.897 C 14.791 29.899 9.838 29.9 9.788 29.9 L 9.788 29.9 Z " stroke-width="1"/>
      <path id="ID0.3141426108777523" fill="#A86700" d="M 9.788 1.65 C 9.851 1.65 14.81 1.651 14.873 1.653 C 19.337 1.822 22.925 7.967 22.925 15.525 C 22.925 23.1 19.32 29.257 14.841 29.397 C 14.789 29.399 9.841 29.4 9.788 29.4 C 5.238 29.4 1.55 23.188 1.55 15.525 C 1.55 7.862 5.238 1.65 9.788 1.65 M 9.788 0.65 C 4.608 0.65 0.55 7.184 0.55 15.525 C 0.55 23.866 4.608 30.4 9.788 30.4 C 9.838 30.4 14.794 30.4 14.879 30.396 C 19.948 30.238 23.925 23.706 23.925 15.525 C 23.925 7.377 19.966 0.845 14.911 0.653 C 14.816 0.65 9.839 0.65 9.788 0.65 L 9.788 0.65 Z " stroke-width="1"/>
    </g>
    <path id="ID0.5774983670562506" fill="url(#grad_2-,0,0,1,0.55,0.65)" d="M 9.788 5.788 C 11.383 5.788 12.829 6.879 13.876 8.642 C 14.923 10.404 15.571 12.839 15.571 15.525 C 15.571 18.211 14.923 20.646 13.876 22.408 C 12.829 24.171 11.383 25.262 9.788 25.262 C 8.193 25.262 6.747 24.171 5.7 22.408 C 4.653 20.646 4.005 18.211 4.005 15.525 C 4.005 12.839 4.653 10.404 5.7 8.642 C 6.747 6.879 8.193 5.788 9.788 5.788 Z " stroke-width="1"/>
    <path id="ID0.2550264662131667" fill="#FFD947" d="M 10.015 6.759 C 11.22 6.759 12.312 7.741 13.103 9.328 C 13.894 10.915 14.383 13.107 14.383 15.525 C 14.383 17.943 13.894 20.135 13.103 21.722 C 12.312 23.309 11.22 24.291 10.015 24.291 C 8.81 24.291 7.718 23.309 6.927 21.722 C 6.136 20.135 5.647 17.943 5.647 15.525 C 5.647 13.107 6.136 10.915 6.927 9.328 C 7.718 7.741 8.81 6.759 10.015 6.759 Z " stroke-width="1"/>
    <path id="ID0.1819972861558199" fill="#FFEB53" stroke="#FFC648" stroke-width="0.2" d="M 1.55 15.525 C 1.55 23.188 5.238 29.4 9.788 29.4 C 14.338 29.4 18.028 23.188 18.028 15.525 C 18.028 7.862 14.339 1.65 9.788 1.65 C 5.237 1.65 1.55 7.862 1.55 15.525 Z M 4.005 15.525 C 4.005 10.146 6.595 5.788 9.788 5.788 C 12.983 5.788 15.571 10.146 15.571 15.525 C 15.571 20.903 12.983 25.262 9.788 25.262 C 6.595 25.262 4.005 20.903 4.005 15.525 Z "/>
  </g>
</svg>