<svg xmlns="http://www.w3.org/2000/svg" xmlns:xlink="http://www.w3.org/1999/xlink" version="1.1" width="79.5" height="130.05999755859375" viewBox="-0.75 -0.25 79.5 130.05999755859375">
  <!-- Exported by Scratch - http://scratch.mit.edu/ -->
  <g id="ID0.08754271827638149">
    <path id="ID0.033297700341790915_22_" fill="none" d="M 0 0.5 L 78 0.5 L 78 129.06 L 0 129.06 L 0 0.5 Z " stroke-width="1"/>
    <path id="ID0.6428824830800295_12_" fill="#7F7F7F" d="M 15.5 16 L 63.5 16 L 63.5 64 L 15.5 64 L 15.5 16 Z " stroke-width="1"/>
    <path id="ID0.14449769724160433_121_" fill="#C4482B" stroke="#000000" stroke-width="1.5" d="M 63.51 30.14 L 63.5 35.78 C 63.5 37.98 61.71 39.76 59.5 39.76 L 53.04 40.44 L 37.91 39.54 L 26.82 39.75 L 19.5 39.75 C 17.3 39.75 15.5 37.97 15.5 35.77 L 15.35 31.5 L 15.5 19.97 C 15.5 17.77 17.29 15.99 19.5 15.99 L 28.97 16.79 L 47.18 15.99 L 56.39 16.37 L 59.51 15.99 C 61.71 15.99 63.51 17.77 63.51 19.97 L 63.51 30.14 Z "/>
    <path id="ID0.14449769724160433_120_" fill="#E3674B" d="M 58.56 28.37 L 27.92 34.74 L 21.82 34.74 C 19.98 34.74 18.48 33.56 18.48 32.1 L 18.35 29.28 L 18.48 21.65 C 18.48 20.19 19.97 19.01 21.82 19.01 L 29.73 19.54 L 44.94 19.01 L 52.63 19.26 L 55.23 19.01 C 57.07 19.01 58.57 20.19 58.57 21.65 L 58.57 28.37 Z " stroke-width="1"/>
    <path id="ID0.32665271731093526" fill="#C4482B" stroke="#000000" stroke-width="1.5" d="M 39.51 44.24 C 39.51 42.04 37.73 40.26 35.52 40.26 L 27.81 40.26 L 19.54 40.15 C 17.34 40.15 15.55 41.94 15.55 44.15 L 15.06 49.89 L 15.55 60.02 C 15.55 62.23 17.33 64.02 19.54 64.02 L 27.81 64.01 L 35.52 64.02 C 37.72 64.02 39.51 62.24 39.51 60.04 L 39.06 53.21 L 39.51 44.24 Z "/>
    <path id="ID0.9663174767047167" fill="#E3674B" d="M 34.46 46.19 C 34.46 44.73 32.96 43.55 31.12 43.55 L 28.52 43.8 L 27.82 43.78 L 21.93 43.55 C 20.08 43.55 18.59 44.73 18.59 46.19 L 18.46 53.82 L 18.59 56.64 C 18.59 58.1 20.09 59.28 21.93 59.28 L 24.03 59.28 L 29.82 54.08 L 34.46 51.91 L 34.46 46.19 Z " stroke-width="1"/>
    <path id="ID0.2805735534057021" fill="#C4482B" stroke="#000000" stroke-width="1.5" d="M 63.5 43.85 C 63.5 41.65 61.73 40.27 59.52 40.27 L 51.81 40.27 L 43.54 40.16 C 41.34 40.16 39.55 41.95 39.55 44.16 L 39.06 49.9 L 39.55 60.03 C 39.55 62.24 41.33 64.03 43.54 64.03 L 51.81 64.02 L 59.52 64.03 C 61.72 64.03 63.51 62.25 63.51 60.05 L 63.79 49.3 L 63.5 43.85 Z "/>
    <path id="ID0.6995624657720327" fill="#E3674B" d="M 58.46 46.19 C 58.46 44.73 56.96 43.55 55.12 43.55 L 52.52 43.8 L 51.82 43.78 L 45.93 43.55 C 44.08 43.55 42.59 44.73 42.59 46.19 L 42.46 53.82 L 42.59 56.64 C 42.59 58.1 44.09 59.28 45.93 59.28 L 50.03 59.28 L 54.5 53.76 L 58.46 50.47 L 58.46 46.19 Z " stroke-width="1"/>
    <path id="ID0.6428824830800295_11_" fill="#7F7F7F" d="M 15.5 64 L 63.5 64 L 63.5 112 L 15.5 112 L 15.5 64 Z " stroke-width="1"/>
    <path id="ID0.14449769724160433_119_" fill="#C4482B" stroke="#000000" stroke-width="1.5" d="M 63.51 78.14 L 63.5 83.78 C 63.5 85.98 61.71 87.76 59.5 87.76 L 53.04 88.44 L 37.91 87.54 L 26.82 87.75 L 19.5 87.75 C 17.3 87.75 15.5 85.97 15.5 83.77 L 15.35 79.5 L 15.5 67.97 C 15.5 65.77 17.29 63.99 19.5 63.99 L 28.97 64.79 L 47.18 63.99 L 56.39 64.37 L 59.51 63.99 C 61.71 63.99 63.51 65.77 63.51 67.97 L 63.51 78.14 Z "/>
    <path id="ID0.14449769724160433_118_" fill="#E3674B" d="M 58.56 76.37 L 27.92 82.74 L 21.82 82.74 C 19.98 82.74 18.48 81.56 18.48 80.1 L 18.35 77.28 L 18.48 69.65 C 18.48 68.19 19.97 67.01 21.82 67.01 L 29.73 67.54 L 44.94 67.01 L 52.63 67.26 L 55.23 67.01 C 57.07 67.01 58.57 68.19 58.57 69.65 L 58.57 76.37 Z " stroke-width="1"/>
    <path id="ID0.855149304959923" fill="#C4482B" stroke="#000000" stroke-width="1.5" d="M 39.51 92.24 C 39.51 90.04 37.73 88.26 35.52 88.26 L 27.81 88.26 L 19.54 88.15 C 17.34 88.15 15.55 89.94 15.55 92.15 L 15.06 97.89 L 15.55 108.02 C 15.55 110.23 17.33 112.02 19.54 112.02 L 27.81 112.01 L 35.52 112.02 C 37.72 112.02 39.51 110.24 39.51 108.04 L 39.06 101.21 L 39.51 92.24 Z "/>
    <path id="ID0.8913393034599721" fill="#E3674B" d="M 34.46 94.19 C 34.46 92.73 32.96 91.55 31.12 91.55 L 28.52 91.8 L 27.82 91.78 L 21.93 91.55 C 20.08 91.55 18.59 92.73 18.59 94.19 L 18.46 101.82 L 18.59 104.64 C 18.59 106.1 20.09 107.28 21.93 107.28 L 24.03 107.28 L 29.82 102.08 L 34.46 99.91 L 34.46 94.19 Z " stroke-width="1"/>
    <path id="ID0.03865646291524172" fill="#C4482B" stroke="#000000" stroke-width="1.5" d="M 63.5 91.85 C 63.5 89.65 61.73 88.27 59.52 88.27 L 51.81 88.27 L 43.54 88.16 C 41.34 88.16 39.55 89.95 39.55 92.16 L 39.06 97.9 L 39.55 108.03 C 39.55 110.24 41.33 112.03 43.54 112.03 L 51.81 112.02 L 59.52 112.03 C 61.72 112.03 63.51 110.25 63.51 108.05 L 63.79 97.3 L 63.5 91.85 Z "/>
    <path id="ID0.22773006604984403" fill="#E3674B" d="M 58.46 94.19 C 58.46 92.73 56.96 91.55 55.12 91.55 L 52.52 91.8 L 51.82 91.78 L 45.93 91.55 C 44.08 91.55 42.59 92.73 42.59 94.19 L 42.46 101.82 L 42.59 104.64 C 42.59 106.1 44.09 107.28 45.93 107.28 L 50.03 107.28 L 54.5 101.76 L 58.46 98.47 L 58.46 94.19 Z " stroke-width="1"/>
  </g>
</svg>