<svg version="1.1" xmlns="http://www.w3.org/2000/svg" xmlns:xlink="http://www.w3.org/1999/xlink" width="29.82802" height="29.39311" viewBox="0,0,29.82802,29.39311"><defs><linearGradient x1="240.07539" y1="165.5269" x2="240.07539" y2="194.69656" gradientUnits="userSpaceOnUse" id="color-1"><stop offset="0" stop-color="#590057"/><stop offset="1" stop-color="#9c0f8a"/></linearGradient><linearGradient x1="238.64812" y1="180.64455" x2="238.64812" y2="192.00394" gradientUnits="userSpaceOnUse" id="color-2"><stop offset="0" stop-color="#ffffff"/><stop offset="1" stop-color="#ffffff" stop-opacity="0"/></linearGradient><linearGradient x1="238.92542" y1="180.49937" x2="238.92542" y2="191.04866" gradientUnits="userSpaceOnUse" id="color-3"><stop offset="0" stop-color="#ffffff"/><stop offset="1" stop-color="#ffffff" stop-opacity="0"/></linearGradient><linearGradient x1="236.5784" y1="181.61238" x2="236.5784" y2="192.22108" gradientUnits="userSpaceOnUse" id="color-4"><stop offset="0" stop-color="#ffffff"/><stop offset="1" stop-color="#ffffff" stop-opacity="0"/></linearGradient><linearGradient x1="238.13154" y1="180.9349" x2="238.13154" y2="191.76097" gradientUnits="userSpaceOnUse" id="color-5"><stop offset="0" stop-color="#ffffff"/><stop offset="1" stop-color="#ffffff" stop-opacity="0"/></linearGradient><linearGradient x1="240.43099" y1="181.70916" x2="240.43099" y2="191.46957" gradientUnits="userSpaceOnUse" id="color-6"><stop offset="0" stop-color="#ffffff"/><stop offset="1" stop-color="#ffffff" stop-opacity="0"/></linearGradient><linearGradient x1="244.563" y1="182.77376" x2="244.563" y2="189.30658" gradientUnits="userSpaceOnUse" id="color-7"><stop offset="0" stop-color="#ffffff"/><stop offset="1" stop-color="#ffffff" stop-opacity="0"/></linearGradient><linearGradient x1="244.95013" y1="182.0479" x2="244.95013" y2="188.29036" gradientUnits="userSpaceOnUse" id="color-8"><stop offset="0" stop-color="#ffffff"/><stop offset="1" stop-color="#ffffff" stop-opacity="0"/></linearGradient><linearGradient x1="238.73378" y1="183.01408" x2="251.14364" y2="183.01408" gradientUnits="userSpaceOnUse" id="color-9"><stop offset="0" stop-color="#ffffff"/><stop offset="1" stop-color="#ffffff" stop-opacity="0"/></linearGradient><linearGradient x1="238.57037" y1="182.07009" x2="250.8404" y2="182.07009" gradientUnits="userSpaceOnUse" id="color-10"><stop offset="0" stop-color="#ffffff"/><stop offset="1" stop-color="#ffffff" stop-opacity="0"/></linearGradient><linearGradient x1="239.58789" y1="183.47441" x2="249.44433" y2="183.47441" gradientUnits="userSpaceOnUse" id="color-11"><stop offset="0" stop-color="#ffffff"/><stop offset="1" stop-color="#ffffff" stop-opacity="0"/></linearGradient><linearGradient x1="238.99443" y1="181.83279" x2="249.81238" y2="181.83279" gradientUnits="userSpaceOnUse" id="color-12"><stop offset="0" stop-color="#ffffff"/><stop offset="1" stop-color="#ffffff" stop-opacity="0"/></linearGradient><linearGradient x1="239.7814" y1="179.64408" x2="250.42512" y2="179.64408" gradientUnits="userSpaceOnUse" id="color-13"><stop offset="0" stop-color="#ffffff"/><stop offset="1" stop-color="#ffffff" stop-opacity="0"/></linearGradient><linearGradient x1="241.19299" y1="175.45587" x2="249.60539" y2="175.45587" gradientUnits="userSpaceOnUse" id="color-14"><stop offset="0" stop-color="#ffffff"/><stop offset="1" stop-color="#ffffff" stop-opacity="0"/></linearGradient><linearGradient x1="240.4752" y1="174.8804" x2="248.80342" y2="174.8804" gradientUnits="userSpaceOnUse" id="color-15"><stop offset="0" stop-color="#ffffff"/><stop offset="1" stop-color="#ffffff" stop-opacity="0"/></linearGradient><linearGradient x1="239.04933" y1="183.40134" x2="250.99724" y2="183.40134" gradientUnits="userSpaceOnUse" id="color-16"><stop offset="0" stop-color="#ffffff"/><stop offset="1" stop-color="#ffffff" stop-opacity="0"/></linearGradient><linearGradient x1="238.88592" y1="182.38564" x2="251.15595" y2="182.38564" gradientUnits="userSpaceOnUse" id="color-17"><stop offset="0" stop-color="#ffffff"/><stop offset="1" stop-color="#ffffff" stop-opacity="0"/></linearGradient><linearGradient x1="239.90344" y1="183.78996" x2="249.75988" y2="183.78996" gradientUnits="userSpaceOnUse" id="color-18"><stop offset="0" stop-color="#ffffff"/><stop offset="1" stop-color="#ffffff" stop-opacity="0"/></linearGradient><linearGradient x1="239.30998" y1="182.14834" x2="250.12793" y2="182.14834" gradientUnits="userSpaceOnUse" id="color-19"><stop offset="0" stop-color="#ffffff"/><stop offset="1" stop-color="#ffffff" stop-opacity="0"/></linearGradient><linearGradient x1="240.09695" y1="179.95963" x2="250.74067" y2="179.95963" gradientUnits="userSpaceOnUse" id="color-20"><stop offset="0" stop-color="#ffffff"/><stop offset="1" stop-color="#ffffff" stop-opacity="0"/></linearGradient><linearGradient x1="241.50854" y1="175.77142" x2="249.92094" y2="175.77142" gradientUnits="userSpaceOnUse" id="color-21"><stop offset="0" stop-color="#ffffff"/><stop offset="1" stop-color="#ffffff" stop-opacity="0"/></linearGradient><linearGradient x1="240.79075" y1="175.19595" x2="249.11898" y2="175.19595" gradientUnits="userSpaceOnUse" id="color-22"><stop offset="0" stop-color="#ffffff"/><stop offset="1" stop-color="#ffffff" stop-opacity="0"/></linearGradient><linearGradient x1="240.93501" y1="169.00897" x2="240.93501" y2="179.5471" gradientUnits="userSpaceOnUse" id="color-23"><stop offset="0" stop-color="#ffffff" stop-opacity="0"/><stop offset="1" stop-color="#ffffff"/></linearGradient><linearGradient x1="240.68602" y1="169.39009" x2="240.68602" y2="179.70322" gradientUnits="userSpaceOnUse" id="color-24"><stop offset="0" stop-color="#ffffff" stop-opacity="0"/><stop offset="1" stop-color="#ffffff"/></linearGradient><linearGradient x1="242.00427" y1="168.91516" x2="242.00427" y2="178.63515" gradientUnits="userSpaceOnUse" id="color-25"><stop offset="0" stop-color="#ffffff" stop-opacity="0"/><stop offset="1" stop-color="#ffffff"/></linearGradient><linearGradient x1="240.45322" y1="168.97244" x2="240.45322" y2="179.2711" gradientUnits="userSpaceOnUse" id="color-26"><stop offset="0" stop-color="#ffffff" stop-opacity="0"/><stop offset="1" stop-color="#ffffff"/></linearGradient><linearGradient x1="238.3164" y1="168.91044" x2="238.3164" y2="178.48478" gradientUnits="userSpaceOnUse" id="color-27"><stop offset="0" stop-color="#ffffff" stop-opacity="0"/><stop offset="1" stop-color="#ffffff"/></linearGradient><linearGradient x1="234.41558" y1="170.27592" x2="234.41558" y2="177.22317" gradientUnits="userSpaceOnUse" id="color-28"><stop offset="0" stop-color="#ffffff" stop-opacity="0"/><stop offset="1" stop-color="#ffffff"/></linearGradient><linearGradient x1="234.12965" y1="171.44263" x2="234.12965" y2="177.94941" gradientUnits="userSpaceOnUse" id="color-29"><stop offset="0" stop-color="#ffffff" stop-opacity="0"/><stop offset="1" stop-color="#ffffff"/></linearGradient><linearGradient x1="228.31439" y1="178.35121" x2="239.22427" y2="178.35121" gradientUnits="userSpaceOnUse" id="color-30"><stop offset="0" stop-color="#ffffff" stop-opacity="0"/><stop offset="1" stop-color="#ffffff"/></linearGradient><linearGradient x1="228.16711" y1="178.8057" x2="239.37967" y2="178.8057" gradientUnits="userSpaceOnUse" id="color-31"><stop offset="0" stop-color="#ffffff" stop-opacity="0"/><stop offset="1" stop-color="#ffffff"/></linearGradient><linearGradient x1="229.15397" y1="176.91161" x2="238.30775" y2="176.91161" gradientUnits="userSpaceOnUse" id="color-32"><stop offset="0" stop-color="#ffffff" stop-opacity="0"/><stop offset="1" stop-color="#ffffff"/></linearGradient><linearGradient x1="228.55918" y1="178.33577" x2="238.94707" y2="178.33577" gradientUnits="userSpaceOnUse" id="color-33"><stop offset="0" stop-color="#ffffff" stop-opacity="0"/><stop offset="1" stop-color="#ffffff"/></linearGradient><linearGradient x1="228.25361" y1="180.49352" x2="238.16121" y2="180.49352" gradientUnits="userSpaceOnUse" id="color-34"><stop offset="0" stop-color="#ffffff" stop-opacity="0"/><stop offset="1" stop-color="#ffffff"/></linearGradient><linearGradient x1="229.38278" y1="184.73584" x2="236.91335" y2="184.73584" gradientUnits="userSpaceOnUse" id="color-35"><stop offset="0" stop-color="#ffffff" stop-opacity="0"/><stop offset="1" stop-color="#ffffff"/></linearGradient><linearGradient x1="230.29696" y1="185.22118" x2="237.63994" y2="185.22118" gradientUnits="userSpaceOnUse" id="color-36"><stop offset="0" stop-color="#ffffff" stop-opacity="0"/><stop offset="1" stop-color="#ffffff"/></linearGradient><linearGradient x1="240" y1="165.30344" x2="240" y2="194.64249" gradientUnits="userSpaceOnUse" id="color-37"><stop offset="0" stop-color="#ffffff"/><stop offset="1" stop-color="#ffffff" stop-opacity="0"/></linearGradient><linearGradient x1="249.68181" y1="169.00283" x2="240.01489" y2="180.10811" gradientUnits="userSpaceOnUse" id="color-38"><stop offset="0" stop-color="#ffffff"/><stop offset="1" stop-color="#ffffff" stop-opacity="0"/></linearGradient></defs><g transform="translate(-225.08598,-165.30345)"><g data-paper-data="{&quot;isPaintingLayer&quot;:true}" fill-rule="nonzero" stroke-linejoin="miter" stroke-miterlimit="10" stroke-dasharray="" stroke-dashoffset="0" style="mix-blend-mode: normal"><g><path d="M254.83991,180.11173c0,8.05498 -6.6103,14.58483 -14.76452,14.58483c-8.15422,0 -14.76452,-6.52985 -14.76452,-14.58483c0,-8.05498 6.6103,-14.58483 14.76452,-14.58483c8.15422,0 14.76452,6.52985 14.76452,14.58483z" fill="url(#color-1)" stroke="none" stroke-width="0" stroke-linecap="butt"/><g fill="none" stroke-width="0.5" stroke-linecap="round"><g><path d="M232.47409,192.00394l5.89484,-11.35939l6.45324,10.98894" stroke="url(#color-2)"/><path d="M230.19081,191.04866l8.08133,-10.54929l9.3879,10.40411" stroke="url(#color-3)"/><path d="M235.175,192.22109l2.80679,-10.60871" stroke="url(#color-4)"/><path d="M238.27214,180.9349l-0.2812,10.82607" stroke="url(#color-5)"/><path d="M240.58416,191.45996l-2.16685,-9.7508l4.02735,9.76041" stroke="url(#color-6)"/><path d="M240.06262,182.77376l9.00077,6.53282" stroke="url(#color-7)"/><path d="M249.88604,188.29036l-9.87181,-6.24247" stroke="url(#color-8)"/></g><g><path d="M249.66172,189.62404l-10.92793,-9.36695l12.40985,-3.85297" stroke="url(#color-9)"/><path d="M247.00001,190.59134l-8.42964,-10.2731l12.27003,-6.76939" stroke="url(#color-10)"/><path d="M249.44433,186.09419l-9.85644,-5.23957" stroke="url(#color-11)"/><path d="M249.81238,183.24808l-10.81795,-2.83058" stroke="url(#color-12)"/><path d="M250.04208,180.56838l-10.26068,-0.11576l10.64373,-1.73285" stroke="url(#color-13)"/><path d="M241.19299,179.09329l8.41239,-7.27483" stroke="url(#color-14)"/><path d="M248.80342,170.78584l-8.32822,8.18912" stroke="url(#color-15)"/></g><g><path d="M249.97727,189.93959l-10.92793,-9.36695l11.94791,-3.70954" stroke="url(#color-16)"/><path d="M247.31556,190.90689l-8.42964,-10.2731l12.27003,-6.76939" stroke="url(#color-17)"/><path d="M239.90344,181.17017l9.85644,5.23957" stroke="url(#color-18)"/><path d="M239.30998,180.73305l10.81795,2.83058" stroke="url(#color-19)"/><path d="M250.35763,180.88393l-10.26068,-0.11576l10.64373,-1.73285" stroke="url(#color-20)"/><path d="M241.50855,179.40884l8.41239,-7.27483" stroke="url(#color-21)"/><path d="M240.79075,179.29051l8.32822,-8.18912" stroke="url(#color-22)"/></g><g><path d="M246.80549,169.00897l-7.2685,10.53813l-4.47246,-10.40754" stroke="url(#color-23)"/><path d="M248.94953,170.24488l-9.33463,9.45834l-7.1924,-10.31313" stroke="url(#color-24)"/><path d="M240.04187,178.63515l3.92479,-9.71999" stroke="url(#color-25)"/><path d="M239.66925,179.2711l1.56793,-10.29866" stroke="url(#color-26)"/><path d="M238.73558,169.03888l0.88626,9.44589l-2.61087,-9.57434" stroke="url(#color-27)"/><path d="M238.12225,177.22318l-7.41333,-6.94726" stroke="url(#color-28)"/><path d="M230.17961,171.44263l7.90007,6.50677" stroke="url(#color-29)"/></g><g><path d="M229.58423,172.68782l9.64003,6.51999l-10.90988,4.80678" stroke="url(#color-30)"/><path d="M230.48616,170.51013l8.89351,8.61835l-11.21256,7.97278" stroke="url(#color-31)"/><path d="M229.15397,175.11195l9.15377,3.59933" stroke="url(#color-32)"/><path d="M238.94707,179.07808l-10.38789,-1.48463" stroke="url(#color-33)"/><path d="M228.25361,180.15358l9.90761,-1.0209l-9.63341,2.72169" stroke="url(#color-34)"/><path d="M236.91335,180.64372l-7.53057,8.18425" stroke="url(#color-35)"/><path d="M237.63994,180.67965l-7.34298,9.08304" stroke="url(#color-36)"/></g></g><path d="M250.18841,178.05611c0,4.11576 -3.00067,7.45225 -6.70218,7.45225c-3.70151,0 -6.70218,-3.33649 -6.70218,-7.45225c0,-4.11576 3.00067,-7.45225 6.70218,-7.45225c3.70151,0 6.70218,3.33649 6.70218,7.45225z" fill="#c37700" stroke="none" stroke-width="0" stroke-linecap="butt"/><path d="M244.82027,173.55573c0,-0.47925 0.38851,-0.86776 0.86776,-0.86776c0.47925,0 0.86776,0.38851 0.86776,0.86776c0,0.47925 -0.38851,0.86776 -0.86776,0.86776c-0.47925,0 -0.86776,-0.38851 -0.86776,-0.86776z" fill="#000000" stroke="none" stroke-width="0.5" stroke-linecap="butt"/><path d="M245.2074,176.55599c0,-0.47925 0.38851,-0.86776 0.86776,-0.86776c0.47925,0 0.86776,0.38851 0.86776,0.86776c0,0.47925 -0.38851,0.86776 -0.86776,0.86776c-0.47925,0 -0.86776,-0.38851 -0.86776,-0.86776z" fill="#000000" stroke="none" stroke-width="0.5" stroke-linecap="butt"/><path d="M242.15875,174.95908c0,-0.47925 0.38851,-0.86776 0.86776,-0.86776c0.47925,0 0.86776,0.38851 0.86776,0.86776c0,0.47925 -0.38851,0.86776 -0.86776,0.86776c-0.47925,0 -0.86776,-0.38851 -0.86776,-0.86776z" fill="#000000" stroke="none" stroke-width="0.5" stroke-linecap="butt"/><path d="M229.62714,180.03827c0.12929,-0.06889 0.22792,-0.08701 0.32308,-0.08503c0.0352,-0.00435 0.07106,-0.00659 0.10744,-0.00659c0.10038,0 0.19677,0.01704 0.28645,0.04839c0.38634,0.01293 0.77325,0.01079 1.15965,0c0.44003,-0.01229 0.86049,-0.10349 1.28457,-0.18227c-0.07722,-0.69145 -0.20157,-1.38139 -0.33586,-2.05282c-0.01334,-0.06046 -0.02037,-0.12328 -0.02037,-0.18775c0,-0.11598 0.02275,-0.22664 0.06404,-0.32777c0.03217,-0.10287 0.08172,-0.19983 0.1682,-0.2918c0.35967,-0.38249 0.98132,-0.30894 1.29498,0.0452c0.25038,0.28271 0.23256,0.71928 0.29446,1.06436c0.10965,0.61132 0.19959,0.89508 0.24728,1.44661c0.00393,0.0454 0.0079,0.09092 0.01191,0.13656c0.45661,-0.00925 0.91555,0.00803 1.35163,0.05933c0.69068,0.08124 1.11227,0.70426 0.73217,1.36944c-0.30902,0.54079 -1.14455,0.36902 -1.63567,0.32156c-0.12104,-0.0117 -0.22126,-0.01027 -0.31394,-0.00324c0.03985,0.80928 0.03028,1.61947 -0.10994,2.38449c-0.076,0.41464 0.0575,0.99414 -0.39694,1.25382c-0.1504,0.08594 -0.32845,0.13559 -0.50167,0.13559c-1.20919,0 -0.78059,-1.21618 -0.77098,-1.9074c0.00774,-0.55678 0.01064,-1.11369 0.00675,-1.67052c-0.12278,0.02119 -0.24859,0.04394 -0.38026,0.06785c-0.69765,0.12668 -1.59877,0.07162 -2.26988,0.0743c-0.11826,0.00047 -0.26279,-0.02835 -0.40612,-0.08187c-0.10846,-0.03108 -0.20821,-0.08274 -0.29478,-0.15048c-0.22401,-0.15162 -0.38403,-0.36922 -0.33167,-0.62794c-0.00117,-0.01847 -0.00177,-0.03709 -0.00177,-0.05586c0,-0.2561 0.11094,-0.48628 0.28738,-0.64512c0.04045,-0.05347 0.089,-0.0986 0.14986,-0.13103z" fill="#000000" stroke="none" stroke-width="0.5" stroke-linecap="butt"/><path d="M249.24624,191.36554c-1.34209,1.35267 -3.4843,2.5009 -5.82396,2.98546c-2.01377,0.41707 -4.22288,0.26068 -5.62293,0.27152c-0.41556,0.00322 -0.85522,-0.12243 -1.3087,-0.23658c-3.57818,-0.90067 -8.01631,-4.95135 -8.25612,-5.32732c-0.4065,-0.63732 -0.60648,-1.07786 -1.101,-1.80271c-0.31235,-0.45784 -0.6001,-1.1711 -0.92739,-1.67555c-0.12757,-0.19663 -0.34902,-0.47259 -0.38579,-0.71153c-0.12739,-0.82771 -1.31347,-5.80641 -0.3773,-6.47187c0.1535,-0.57478 0.06277,-1.21254 0.29324,-2.0789c0.42887,-1.61212 1.3483,-3.70494 2.64373,-5.46662c2.55172,-3.47015 7.63814,-5.37359 9.45077,-5.37359c2.24834,0 5.88498,-0.83448 9.00658,1.14728c1.73315,1.1003 3.63216,2.89111 4.98459,4.86465c1.184,1.72776 1.87538,3.62505 2.65067,4.92934c0.84236,1.41712 0.19504,4.7195 0.32895,5.7038c0.14939,1.09808 -0.83216,3.6472 -2.29943,5.7565c-1.16606,1.67628 -2.80164,3.02829 -3.2559,3.48613z" fill="url(#color-37)" stroke="none" stroke-width="0" stroke-linecap="butt"/><path d="M235.18319,166.70974c0.68476,-0.78665 1.15967,-0.80555 2.24814,-1.0673c3.1548,-0.75863 8.14162,0.13422 12.25049,3.36039c2.04738,1.60754 3.17657,3.47808 3.90239,5.03804c1.23339,2.65086 0.92532,4.87563 -0.75519,6.80619c-1.07897,1.23952 -1.92919,1.963 -3.97061,1.91563c-0.82118,-0.01906 -2.421,-1.07874 -3.05556,-1.43108c-1.69075,-0.93878 -2.43406,-1.62051 -4.82823,-3.50035c-2.10805,-1.65518 -4.38369,-3.16035 -5.459,-5.04449c-0.88819,-1.55626 -0.95626,-2.47673 -1.00176,-3.32108c-0.02479,-0.45999 0.36129,-2.08722 0.71326,-2.49156z" data-paper-data="{&quot;index&quot;:null}" fill="url(#color-38)" stroke="none" stroke-width="0" stroke-linecap="butt"/></g></g></g></svg>