<svg xmlns="http://www.w3.org/2000/svg" xmlns:xlink="http://www.w3.org/1999/xlink" version="1.1" width="139.38441741466522" height="48.14162337779999" viewBox="0.6101387143135071 0.12733864784240723 139.38441741466522 48.14162337779999">
  <!-- Exported by Scratch - http://scratch.mit.edu/ -->
  <g id="ID0.9452017885632813">
    <path id="ID0.828342076856643" fill="#42210B" d="M 9.1544 46.7327 C 7.1349 46.7327 5.6159 46.2321 4.6493 45.2655 C 3.6826 44.2989 3.1993 42.7971 3.1993 40.7948 L 3.1993 10.3288 C 3.1993 8.4473 3.6481 6.9974 4.5629 5.9962 C 5.5123 4.9605 6.7379 4.4427 8.2223 4.4427 C 9.7241 4.4427 10.9496 4.9605 11.899 5.9789 C 12.8311 6.9801 13.2971 8.4473 13.2971 10.346 L 13.2971 38.0848 L 28.5043 38.0848 C 30.0578 38.0848 31.3006 38.4991 32.1809 39.2931 C 33.0958 40.1217 33.5618 41.1746 33.5618 42.4347 C 33.5618 43.712 33.0958 44.7649 32.1809 45.5762 C 31.3006 46.353 30.075 46.7327 28.5043 46.7327 L 9.1544 46.7327 Z " stroke-width="1.7261227369308472"/>
    <path id="ID0.674701536539942" fill="#42210B" d="M 50.8576 47.4059 C 45.8518 47.4059 41.899 45.9387 39.0854 43.0388 C 36.2718 40.1562 34.8564 36.2206 34.8564 31.3357 C 34.8564 29.0572 35.2016 26.8996 35.8921 24.9318 C 36.5825 22.9467 37.6182 21.2033 38.9473 19.7707 C 40.2937 18.338 41.968 17.216 43.9185 16.4565 C 45.8518 15.697 48.0095 15.3173 50.3397 15.3173 C 53.395 15.3173 56.0532 15.9732 58.2626 17.285 C 60.4721 18.5969 62.1637 20.3058 63.2684 22.3944 C 64.3731 24.4657 64.9255 26.6061 64.9255 28.7638 C 64.9255 31.025 64.2005 32.544 62.7678 33.2862 C 61.5423 33.9249 59.9197 34.2183 57.8138 34.2183 L 44.5054 34.2183 C 44.6263 35.3058 44.9024 36.2724 45.334 37.1355 C 45.9036 38.2402 46.6286 39.0515 47.5607 39.6038 C 48.4928 40.1562 49.4939 40.4324 50.6332 40.4324 C 51.4099 40.4324 52.1349 40.346 52.7563 40.1562 C 53.3777 39.9836 53.9991 39.6901 54.6032 39.3104 C 55.2419 38.8961 55.8288 38.4473 56.3639 37.9813 C 56.9335 37.4807 57.6757 36.8075 58.5733 35.9617 C 59.1775 35.4439 59.9542 35.2022 60.9036 35.2022 C 61.922 35.2022 62.7678 35.4956 63.4237 36.0825 C 63.907 36.5141 64.4767 37.2908 64.4767 38.6199 C 64.4767 39.483 64.166 40.4151 63.5446 41.468 C 62.9577 42.4692 62.0774 43.4358 60.9209 44.3161 C 59.7816 45.1965 58.3489 45.9387 56.6573 46.5083 C 54.983 47.1124 53.0325 47.4059 50.8576 47.4059 L 50.8576 47.4059 Z M 55.6044 27.987 C 55.3455 26.2781 54.7931 24.9663 53.9646 24.086 C 52.9807 23.0503 51.7034 22.5325 50.0635 22.5325 C 48.51 22.5325 47.2845 23.0503 46.3006 24.1032 C 45.4721 25.0008 44.8852 26.3127 44.5917 27.987 L 55.6044 27.987 Z " stroke-width="1.7261227369308472"/>
    <path id="ID0.4942050254903734" fill="#42210B" d="M 79.8737 47.4059 C 78.5964 47.4059 77.5434 47.0952 76.7494 46.4738 C 76.0072 45.9042 75.4548 45.2655 75.0923 44.575 C 74.7816 43.9709 74.281 42.8489 73.5561 41.1401 L 66.5308 23.7753 C 66.3581 23.3265 66.2028 22.8949 66.0302 22.4807 C 65.8403 22.0146 65.685 21.5313 65.5641 21.0307 C 65.426 20.4956 65.357 20.0296 65.357 19.6153 C 65.357 18.9249 65.5641 18.2344 65.9784 17.5785 C 66.3754 16.9398 66.9105 16.422 67.6009 16.0077 C 68.2914 15.5934 69.0682 15.3863 69.8794 15.3863 C 71.4675 15.3863 72.6067 15.9041 73.2626 16.9053 C 73.7805 17.6821 74.3156 18.9249 74.9024 20.6682 L 79.8909 34.6844 L 85.3282 19.926 C 85.8806 18.407 86.4157 17.3196 86.9853 16.6464 C 87.6758 15.8178 88.6942 15.4036 89.9888 15.4036 C 91.197 15.4036 92.2327 15.8178 93.0958 16.6291 C 93.9588 17.4577 94.4076 18.4415 94.4076 19.5635 C 94.4076 19.9778 94.3386 20.4439 94.2005 20.9617 C 94.0797 21.4277 93.9243 21.8765 93.7517 22.2908 C 93.7517 22.2908 85.708 42.262 85.3973 43.0388 C 85.0521 43.8846 84.655 44.6268 84.2408 45.231 C 83.7575 45.9042 83.1533 46.4393 82.4629 46.819 C 81.7206 47.1988 80.8576 47.4059 79.8737 47.4059 L 79.8737 47.4059 Z " stroke-width="1.7261227369308472"/>
    <path id="ID0.11710259271785617" fill="#42210B" d="M 111.5135 47.4059 C 106.5078 47.4059 102.5549 45.9387 99.7414 43.0388 C 96.9278 40.1562 95.5124 36.2206 95.5124 31.3357 C 95.5124 29.0572 95.8576 26.8996 96.548 24.9318 C 97.2385 22.9467 98.2742 21.2033 99.6033 19.7707 C 100.9496 18.338 102.624 17.216 104.5745 16.4565 C 106.5078 15.697 108.6654 15.3173 110.9957 15.3173 C 114.0509 15.3173 116.7091 15.9732 118.9186 17.285 C 121.128 18.5969 122.8196 20.3058 123.9243 22.3944 C 125.0291 24.4657 125.5814 26.6061 125.5814 28.7638 C 125.5814 31.025 124.8564 32.544 123.4238 33.2862 C 122.1982 33.9249 120.5757 34.2183 118.4698 34.2183 L 105.1614 34.2183 C 105.2822 35.3058 105.5584 36.2724 105.9899 37.1355 C 106.5595 38.2402 107.2845 39.0515 108.2166 39.6038 C 109.1487 40.1562 110.1499 40.4324 111.2891 40.4324 C 112.0659 40.4324 112.7908 40.346 113.4122 40.1562 C 114.0337 39.9836 114.6551 39.6901 115.2592 39.3104 C 115.8979 38.8961 116.4847 38.4473 117.0198 37.9813 C 117.5895 37.4807 118.3317 36.8075 119.2293 35.9617 C 119.8334 35.4439 120.6102 35.2022 121.5595 35.2022 C 122.578 35.2022 123.4238 35.4956 124.0797 36.0825 C 124.563 36.5141 125.1326 37.2908 125.1326 38.6199 C 125.1326 39.483 124.8219 40.4151 124.2005 41.468 C 123.6136 42.4692 122.7333 43.4358 121.5768 44.3161 C 120.4376 45.1965 119.0049 45.9387 117.3133 46.5083 C 115.6389 47.1124 113.6884 47.4059 111.5135 47.4059 L 111.5135 47.4059 Z M 116.2603 27.987 C 116.0014 26.2781 115.4491 24.9663 114.6205 24.086 C 113.6366 23.0503 112.3593 22.5325 110.7195 22.5325 C 109.166 22.5325 107.9404 23.0503 106.9565 24.1032 C 106.128 25.0008 105.5411 26.3127 105.2477 27.987 L 116.2603 27.987 Z " stroke-width="1.7261227369308472"/>
    <path id="ID0.13153019128367305" fill="#42210B" d="M 134.3846 47.4059 C 133.0037 47.4059 131.8472 46.8881 130.9669 45.8869 C 130.1211 44.9203 129.7068 43.5739 129.7068 41.8823 L 129.7068 9.949 C 129.7068 8.2229 130.1211 6.8765 130.9497 5.9272 C 131.8127 4.9433 132.9692 4.4427 134.3846 4.4427 C 135.8001 4.4427 136.9566 4.926 137.8369 5.8926 C 138.6999 6.842 139.1315 8.2056 139.1315 9.949 L 139.1315 41.8823 C 139.1315 43.6429 138.6827 45.0066 137.8196 45.9387 C 136.9393 46.9053 135.7828 47.4059 134.3846 47.4059 L 134.3846 47.4059 Z " stroke-width="1.7261227369308472"/>
    <path id="ID0.19232159992679954" fill="#FBB03B" stroke="#42210B" stroke-width="1.380898189544678" d="M 7.4283 43.2805 C 5.4087 43.2805 3.8898 42.7799 2.9231 41.8133 C 1.9565 40.8466 1.4732 39.3449 1.4732 37.3426 L 1.4732 6.8765 C 1.4732 4.9951 1.922 3.5451 2.8368 2.544 C 3.7862 1.5083 5.0117 0.9904 6.4962 0.9904 C 7.9979 0.9904 9.2235 1.5083 10.1728 2.5267 C 11.105 3.5278 11.571 4.9951 11.571 6.8938 L 11.571 34.6326 L 26.7781 34.6326 C 28.3317 34.6326 29.5745 35.0469 30.4548 35.8409 C 31.3696 36.6694 31.8357 37.7223 31.8357 38.9824 C 31.8357 40.2597 31.3696 41.3127 30.4548 42.124 C 29.5745 42.9007 28.3489 43.2805 26.7781 43.2805 L 7.4283 43.2805 Z "/>
    <path id="ID0.8180709443986416" fill="#FBB03B" stroke="#42210B" stroke-width="1.380898189544678" d="M 49.1314 43.9536 C 44.1257 43.9536 40.1729 42.4864 37.3593 39.5866 C 34.5457 36.7039 33.1303 32.7684 33.1303 27.8834 C 33.1303 25.605 33.4755 23.4473 34.166 21.4795 C 34.8564 19.4945 35.8921 17.7511 37.2212 16.3184 C 38.5676 14.8857 40.2419 13.7638 42.1924 13.0043 C 44.1257 12.2448 46.2833 11.865 48.6136 11.865 C 51.6688 11.865 54.3271 12.5209 56.5365 13.8328 C 58.7459 15.1447 60.4375 16.8535 61.5423 18.9421 C 62.647 21.0135 63.1993 23.1539 63.1993 25.3115 C 63.1993 27.5727 62.4744 29.0917 61.0417 29.834 C 59.8161 30.4726 58.1936 30.7661 56.0877 30.7661 L 42.7793 30.7661 C 42.9001 31.8535 43.1763 32.8202 43.6078 33.6832 C 44.1775 34.7879 44.9024 35.5992 45.8345 36.1516 C 46.7666 36.7039 47.7678 36.9801 48.907 36.9801 C 49.6838 36.9801 50.4088 36.8938 51.0302 36.7039 C 51.6516 36.5313 52.273 36.2379 52.8771 35.8581 C 53.5158 35.4439 54.1027 34.9951 54.6378 34.529 C 55.2074 34.0284 55.9496 33.3553 56.8472 32.5095 C 57.4513 31.9916 58.2281 31.75 59.1775 31.75 C 60.1959 31.75 61.0417 32.0434 61.6976 32.6303 C 62.1809 33.0618 62.7505 33.8386 62.7505 35.1677 C 62.7505 36.0307 62.4398 36.9628 61.8184 38.0158 C 61.2316 39.0169 60.3512 39.9836 59.1947 40.8639 C 58.0555 41.7442 56.6228 42.4864 54.9312 43.0561 C 53.2569 43.6602 51.3064 43.9536 49.1314 43.9536 L 49.1314 43.9536 Z M 53.8783 24.5348 C 53.6194 22.8259 53.067 21.514 52.2385 20.6337 C 51.2546 19.5981 49.9772 19.0802 48.3374 19.0802 C 46.7839 19.0802 45.5584 19.5981 44.5745 20.651 C 43.7459 21.5486 43.1591 22.8604 42.8656 24.5348 L 53.8783 24.5348 Z "/>
    <path id="ID0.027956734877079725" fill="#FBB03B" stroke="#42210B" stroke-width="1.380898189544678" d="M 78.1476 43.9536 C 76.8702 43.9536 75.8173 43.6429 75.0233 43.0215 C 74.281 42.4519 73.7287 41.8133 73.3662 41.1228 C 73.0555 40.5187 72.5549 39.3967 71.83 37.6878 L 64.8046 20.323 C 64.632 19.8742 64.4767 19.4427 64.3041 19.0284 C 64.1142 18.5624 63.9588 18.0791 63.838 17.5785 C 63.6999 17.0434 63.6309 16.5773 63.6309 16.1631 C 63.6309 15.4726 63.838 14.7822 64.2523 14.1262 C 64.6493 13.4876 65.1844 12.9697 65.8748 12.5555 C 66.5653 12.1412 67.342 11.9341 68.1533 11.9341 C 69.7413 11.9341 70.8806 12.4519 71.5365 13.4531 C 72.0543 14.2298 72.5894 15.4726 73.1763 17.216 L 78.1648 31.2321 L 83.6021 16.4738 C 84.1545 14.9548 84.6896 13.8673 85.2592 13.1941 C 85.9496 12.3656 86.968 11.9513 88.2626 11.9513 C 89.4709 11.9513 90.5066 12.3656 91.3697 13.1769 C 92.2327 14.0054 92.6815 14.9893 92.6815 16.1113 C 92.6815 16.5256 92.6125 16.9916 92.4744 17.5094 C 92.3535 17.9755 92.1982 18.4243 92.0256 18.8386 C 92.0256 18.8386 83.9819 38.8098 83.6712 39.5866 C 83.3259 40.4324 82.9289 41.1746 82.5147 41.7787 C 82.0313 42.4519 81.4272 42.987 80.7367 43.3668 C 79.9945 43.7465 79.1314 43.9536 78.1476 43.9536 L 78.1476 43.9536 Z "/>
    <path id="ID0.9852699814364314" fill="#FBB03B" stroke="#42210B" stroke-width="1.380898189544678" d="M 109.7874 43.9536 C 104.7816 43.9536 100.8288 42.4864 98.0152 39.5866 C 95.2017 36.7039 93.7862 32.7684 93.7862 27.8834 C 93.7862 25.605 94.1315 23.4473 94.8219 21.4795 C 95.5124 19.4945 96.548 17.7511 97.8771 16.3184 C 99.2235 14.8857 100.8979 13.7638 102.8484 13.0043 C 104.7816 12.2448 106.9393 11.865 109.2696 11.865 C 112.3248 11.865 114.983 12.5209 117.1925 13.8328 C 119.4019 15.1447 121.0935 16.8535 122.1982 18.9421 C 123.3029 21.0135 123.8553 23.1539 123.8553 25.3115 C 123.8553 27.5727 123.1303 29.0917 121.6976 29.834 C 120.4721 30.4726 118.8495 30.7661 116.7437 30.7661 L 103.4353 30.7661 C 103.5561 31.8535 103.8323 32.8202 104.2638 33.6832 C 104.8334 34.7879 105.5584 35.5992 106.4905 36.1516 C 107.4226 36.7039 108.4238 36.9801 109.563 36.9801 C 110.3397 36.9801 111.0647 36.8938 111.6861 36.7039 C 112.3075 36.5313 112.9289 36.2379 113.5331 35.8581 C 114.1717 35.4439 114.7586 34.9951 115.2937 34.529 C 115.8633 34.0284 116.6056 33.3553 117.5032 32.5095 C 118.1073 31.9916 118.8841 31.75 119.8334 31.75 C 120.8518 31.75 121.6976 32.0434 122.3536 32.6303 C 122.8369 33.0618 123.4065 33.8386 123.4065 35.1677 C 123.4065 36.0307 123.0958 36.9628 122.4744 38.0158 C 121.8875 39.0169 121.0072 39.9836 119.8507 40.8639 C 118.7114 41.7442 117.2788 42.4864 115.5872 43.0561 C 113.9128 43.6602 111.9623 43.9536 109.7874 43.9536 L 109.7874 43.9536 Z M 114.5342 24.5348 C 114.2753 22.8259 113.7229 21.514 112.8944 20.6337 C 111.9105 19.5981 110.6332 19.0802 108.9934 19.0802 C 107.4399 19.0802 106.2143 19.5981 105.2304 20.651 C 104.4019 21.5486 103.815 22.8604 103.5216 24.5348 L 114.5342 24.5348 Z "/>
    <path id="ID0.4013460697606206" fill="#FBB03B" stroke="#42210B" stroke-width="1.380898189544678" d="M 132.6585 43.9536 C 131.2776 43.9536 130.1211 43.4358 129.2408 42.4347 C 128.395 41.468 127.9807 40.1217 127.9807 38.4301 L 127.9807 6.4968 C 127.9807 4.7707 128.395 3.4243 129.2235 2.4749 C 130.0866 1.491 131.2431 0.9904 132.6585 0.9904 C 134.0739 0.9904 135.2304 1.4738 136.1108 2.4404 C 136.9738 3.3898 137.4054 4.7534 137.4054 6.4968 L 137.4054 38.4301 C 137.4054 40.1907 136.9566 41.5543 136.0935 42.4864 C 135.2132 43.4531 134.0567 43.9536 132.6585 43.9536 L 132.6585 43.9536 Z "/>
  </g>
</svg>