<svg version="1.1" xmlns="http://www.w3.org/2000/svg" xmlns:xlink="http://www.w3.org/1999/xlink" width="371.62748" height="365.3503" viewBox="0,0,371.62748,365.3503"><defs><linearGradient x1="236.12449" y1="29.24306" x2="236.12449" y2="382.86379" gradientUnits="userSpaceOnUse" id="color-1"><stop offset="0" stop-color="#005921"/><stop offset="1" stop-color="#00ff14"/></linearGradient><linearGradient x1="241.18705" y1="14.11305" x2="241.18705" y2="372.70881" gradientUnits="userSpaceOnUse" id="color-2"><stop offset="0" stop-color="#ffffff"/><stop offset="1" stop-color="#ffffff" stop-opacity="0"/></linearGradient><linearGradient x1="267.05364" y1="215.57809" x2="244.81858" y2="-16.65652" gradientUnits="userSpaceOnUse" id="color-3"><stop offset="0" stop-color="#ffffff" stop-opacity="0"/><stop offset="1" stop-color="#ffffff"/></linearGradient></defs><g transform="translate(-50.31852,-26.36625)"><g data-paper-data="{&quot;isPaintingLayer&quot;:true}" fill-rule="nonzero" stroke-linejoin="miter" stroke-miterlimit="10" stroke-dasharray="" stroke-dashoffset="0" style="mix-blend-mode: normal"><path d="M418.61311,204.3931c0,58.54548 9.14947,134.33922 -36.62674,165.7421c-29.11266,19.97154 -103.69001,7.68133 -142.05194,7.68133c-32.45404,0 -131.95625,12.62302 -158.18752,-2.05614c-53.52897,-29.9551 -20.49116,-107.08769 -20.49116,-171.36729c0,-54.03495 -6.07011,-123.319 33.84333,-155.12451c30.83473,-24.57103 101.82621,-18.29891 144.83535,-18.29891c46.24992,0 124.43168,-9.9717 156.16106,18.01246c35.97026,31.72447 22.51762,104.52148 22.51762,155.41097z" fill="url(#color-1)" stroke="none" stroke-width="0" stroke-linecap="butt"/><path d="M65.59254,135.24135l104.16535,-97.63235" fill="none" stroke="#006b1f" stroke-width="12.5" stroke-linecap="round"/><path d="M240.48527,32.61625l-174.39724,164.68214" fill="none" stroke="#007d1e" stroke-width="12.5" stroke-linecap="round"/><path d="M66.58352,251.84794l250.97383,-217.23469" fill="none" stroke="#00741f" stroke-width="12.5" stroke-linecap="round"/><path d="M56.56852,324.41551l316.09444,-278.99208" fill="none" stroke="#018d1d" stroke-width="12.5" stroke-linecap="round"/><path d="M407.69298,74.44745c0,0 -77.41696,71.05526 -123.5346,113.38321c-58.68956,53.86677 -200.06734,183.62689 -200.06734,183.62689" fill="none" stroke="#00a21c" stroke-width="12.5" stroke-linecap="round"/><path d="M125.12708,385.46655l290.56892,-259.47256" fill="none" stroke="#00ad1a" stroke-width="12.5" stroke-linecap="round"/><path d="M413.18849,189.55255l-218.49684,190.4035" fill="none" stroke="#00c319" stroke-width="12.5" stroke-linecap="round"/><path d="M412.18248,242.60059c0,0 -19.08907,20.51072 -83.33006,77.00946c-58.62792,51.56215 -66.09772,57.83848 -66.09772,57.83848" fill="none" stroke="#01d118" stroke-width="12.5" stroke-linecap="round"/><path d="M320.17276,382.66317c36.74801,-32.6993 58.11903,-51.17198 93.25924,-82.07713" fill="none" stroke="#00e516" stroke-width="12.5" stroke-linecap="round"/><g fill="#ffffff" stroke="none" stroke-width="0" stroke-linecap="butt"><path d="M219.89003,222.62244c47.91053,61.05947 110.41462,87.34956 86.88952,105.80861c-23.5251,18.45905 -93.33394,-3.64586 -141.24447,-64.70533c-47.91058,-61.05947 -42.09959,-157.96533 -18.5745,-176.42437c23.52515,-18.45899 25.01886,74.26167 72.92945,135.32115z"/><path d="M191.67953,151.19175l-45.81591,-58.38992c0,0 30.42836,-45.62485 51.35572,-45.394c9.62587,0.10615 43.61243,31.6986 39.49692,59.00091c-3.67303,24.36673 -45.03673,44.78302 -45.03673,44.78302z"/><path d="M165.98541,178.37544c-12.98668,0.28333 -13.26996,-12.70334 -13.26996,-12.70334l1.61348,-12.87574c1.10751,-1.91214 2.21496,-3.82439 3.32246,-5.73653c-3.24536,-3.80043 -5.50204,-9.09043 -7.05613,-14.80124c-10.10087,-2.84808 -8.76174,-13.94568 -8.76174,-13.94568l1.64907,-13.66635c0,0 0.75185,-6.23123 5.54184,-9.50823c1.68186,-3.40866 5.13365,-7.04662 12.18547,-6.6136c12.96532,0.79612 12.16915,13.76149 12.16915,13.76149c-0.09311,1.15733 -0.13161,2.26286 -0.13182,3.32158c2.54578,0.54593 4.94135,1.85613 6.81161,3.88528l9.1282,9.68183l-0.85,0.80136l5.16716,6.58528c0,0 8.01862,10.21929 -2.20072,18.23796c-1.22202,0.9589 -2.41256,1.65697 -3.56173,2.14294c-3.64399,6.2915 -7.28797,12.58306 -10.93191,18.87456l1.87889,-0.71163c0,0 0.28333,12.98662 -12.70334,13.26996z"/><path d="M308.70447,314.22906l-55.60591,-49.15744c0,0 21.68996,-50.36923 42.31502,-53.92093c9.48682,-1.63364 48.61925,23.30271 49.50115,50.89942c0.78713,24.62938 -36.21031,52.17896 -36.21031,52.17896z"/><path d="M309.57634,314.64016c0,7.17403 -5.81571,12.98974 -12.98974,12.98974c-7.05442,0 -12.79536,-5.62336 -12.98491,-12.63195c-5.4161,-1.56516 -9.37667,-6.56039 -9.37667,-12.48065c0,-0.48524 0.0266,-0.9642 0.07841,-1.43563c-7.30247,-5.15474 -13.50834,-11.99306 -18.58079,-19.34323c0,0 -7.20541,-10.80809 3.60273,-18.0135c10.80809,-7.20541 18.0135,3.60268 18.0135,3.60268c3.82039,6.03659 9.23742,11.10909 15.11169,15.23374l7.4798,-7.4798c1.56812,-1.56817 3.53534,-2.7372 5.73622,-3.34179c2.70581,-2.48956 6.97866,-4.43168 13.14001,-1.96717c12.06066,4.82423 7.23638,16.88495 7.23638,16.88495l-4.24058,9.2342c-3.55379,4.30501 -5.45418,10.99649 -10.45456,13.21363c-0.32376,1.61998 -0.94882,3.13115 -1.81425,4.47268c0.02832,0.35031 0.04281,0.70451 0.04281,1.06209z"/></g><path d="M419.91302,193.41093c0,99.02348 -80.01835,179.29789 -178.72597,179.29789c-98.70764,0 -178.72597,-80.2744 -178.72597,-179.29789c0,-45.78041 0.58649,-105.57144 28.73226,-137.2574c32.73381,-36.85109 98.42197,-27.02548 151.49522,-27.02548c50.52257,0 124.67743,-5.99668 157.18377,27.81393c31.00239,32.24632 20.0407,88.12969 20.0407,136.46894z" fill="url(#color-2)" stroke="none" stroke-width="0" stroke-linecap="butt"/><path d="M62.05194,108.49387c-0.80957,-8.45561 4.66659,-11.96081 6.68563,-17.44423c2.62836,-7.13824 2.52717,-15.5428 7.0865,-21.24303c8.36903,-10.46323 17.73041,-21.69941 43.52237,-33.5711c31.22583,-14.37284 75.25162,-4.43611 117.67773,-6.33906c48.18459,-2.16124 66.25372,-4.46302 96.69831,-0.97876c11.42625,1.30769 38.7857,-5.59961 49.54534,1.72375c26.74793,18.20553 31.03766,35.36688 33.51943,61.28775c6.14004,64.12982 -38.50805,118.66006 -149.7336,123.64889c-111.22555,4.98883 -201.86466,-39.95141 -208.00471,-104.08122z" fill="url(#color-3)" stroke="none" stroke-width="0" stroke-linecap="butt"/></g></g></svg>