<svg version="1.1" xmlns="http://www.w3.org/2000/svg" xmlns:xlink="http://www.w3.org/1999/xlink" width="296" height="117.00354" viewBox="0,0,296,117.00354"><defs><linearGradient x1="244" y1="122.5" x2="244" y2="237.5" gradientUnits="userSpaceOnUse" id="color-1"><stop offset="0" stop-color="#58b9dc"/><stop offset="1" stop-color="#4da2c1"/></linearGradient><linearGradient x1="244" y1="122.5" x2="244" y2="191.5" gradientUnits="userSpaceOnUse" id="color-2"><stop offset="0" stop-color="#ffffff"/><stop offset="1" stop-color="#ffffff" stop-opacity="0"/></linearGradient></defs><g transform="translate(-92,-121.5)"><g data-paper-data="{&quot;isPaintingLayer&quot;:true}" fill-rule="nonzero" stroke-linecap="butt" stroke-linejoin="miter" stroke-miterlimit="10" stroke-dasharray="" stroke-dashoffset="0" style="mix-blend-mode: normal"><path d="M104,236.5c0,0 -11,-33.19396 -11,-57c0,-23.80604 8,-57 8,-57h286v115c0,0 -112.81362,-0.39864 -162.99443,-0.57595c-43.05781,-0.15215 -120.00557,-0.42405 -120.00557,-0.42405z" fill="url(#color-1)" stroke="#d0d0d0" stroke-width="2"/><text transform="matrix(1.47508 0 0 1.47508 121.0 164.373)" font-size="40"  fill="#ffffff" fill-rule="nonzero" stroke="none" stroke-width="1" stroke-linecap="butt" stroke-linejoin="miter" stroke-miterlimit="10" stroke-dasharray="" stroke-dashoffset="0" font-family="Helvetica" font-weight="normal" text-anchor="start" style="mix-blend-mode: normal" >A Button</text><path d="M104,190.9c0,0 -11,-19.91638 -11,-34.2c0,-14.28362 8,-34.2 8,-34.2h286v69c0,0 -112.81362,-0.23919 -162.99443,-0.34557c-43.05781,-0.09129 -120.00557,-0.25443 -120.00557,-0.25443z" fill="url(#color-2)" stroke="#d0d0d0" stroke-width="2"/></g></g></svg>