<svg xmlns="http://www.w3.org/2000/svg" xmlns:xlink="http://www.w3.org/1999/xlink" version="1.1" width="154.17813356559245" height="191.144579488444" viewBox="-0.0245691331265806 0.7970308868052126 154.17813356559245 191.144579488444">
  <!-- Exported by Scratch - http://scratch.mit.edu/ -->
  <path id="ID0.2217080220580101" fill="#FAA51D" stroke="#000000" d="M 73.3499 147.8746 C 70.7037 151.9748 67.6661 157.0255 63.2718 161.8777 C 57.816 167.5646 41.3113 179.0955 46.3075 188.7233 C 58.1549 199.2808 72.5548 174.9374 75.7837 166.7274 C 78.7895 159.5626 81.068 153.379 83.4721 148.482 C 84.0966 147.1976 90.3585 136.7553 88.3738 131.7315 C 86.3856 126.7068 82.6234 128.5647 80.7033 129.5687 C 78.7805 130.577 77.0913 142.075 73.3499 147.8746 L 73.3499 147.8746 Z " stroke-width="0.9999999797550048"/>
  <path id="ID0.7902200957760215" fill="#FFFFFF" d="M 46.4457 187.32 C 48.2719 191.2984 55.5574 190.5334 60.478 187.0046 C 65.406 183.4752 67.3329 180.1737 69.2924 177.6775 C 70.679 174.7029 65.5834 179.6339 62.5841 176.0728 C 59.5947 172.5241 61.4512 165.0814 61.4512 165.0814 C 61.4512 165.0814 54.4375 171.6388 50.7146 176.1883 C 47.1444 180.508 44.7344 182.9776 46.4457 187.32 L 46.4457 187.32 Z " stroke-width="0.9999999797550048"/>
  <path id="ID0.4324202057905495" fill="#FAA51D" stroke="#000000" stroke-width="1.2000000134883597" d="M 134.5947 116.6339 C 133.9404 116.8228 133.2538 116.9107 132.5542 116.8848 L 113.7474 116.1934 C 110.16 116.0614 107.3587 113.0461 107.4898 109.4589 C 107.6221 105.8725 110.6352 103.0708 114.2242 103.2013 L 129.4607 103.7619 L 139.1369 89.6896 C 141.1704 86.7325 145.2184 85.9832 148.1755 88.0167 C 151.1327 90.0503 151.8817 94.0973 149.8484 97.0554 L 138.1474 114.0719 C 137.2842 115.3287 136.0204 116.2223 134.5947 116.6339 L 134.5947 116.6339 Z "/>
  <path id="ID0.2676980262622237" fill="#FAA51D" stroke="#000000" stroke-width="1.1999999952159113" d="M 134.2836 161.8748 C 133.2434 162.1079 132.1355 162.1215 131.0248 161.8754 L 123.9249 160.302 C 123.7589 160.2654 123.5925 160.2227 123.4292 160.1753 L 117.3803 158.3939 C 113.4654 157.2411 111.1909 153.169 112.2623 149.2293 L 115.0998 138.7973 L 103.4093 139.714 C 99.2801 140.0378 95.6701 136.9525 95.3473 132.8232 C 95.0235 128.694 98.1149 125.0888 102.2381 124.7612 L 124.5476 123.0123 C 126.9798 122.8218 129.3529 123.8262 130.9095 125.7053 C 132.4653 127.5855 133.0113 130.1041 132.3696 132.4584 L 128.6874 145.9942 L 134.2701 147.2314 C 138.3139 148.1278 140.8655 152.1327 139.9691 156.1766 C 139.3207 159.1094 137.0343 161.2584 134.2836 161.8748 L 134.2836 161.8748 Z "/>
  <path id="ID0.26425604708492756_1_" fill="#FAA51D" stroke="#231F20" stroke-width="1.2000000011992071" d="M 113.4903 131.0578 C 114.344 128.4384 114.6287 124.9215 114.5844 119.7996 C 114.5471 115.5299 112.8814 108.5321 112.8814 108.5321 C 111.5869 103.7989 108.979 96.5461 102.411 99.4423 C 99.7536 100.615 96.1219 103.5343 89.9703 106.2385 C 83.8121 108.9401 77.0367 109.4799 77.8555 119.5192 C 78.6783 129.5606 71.9062 142.0347 93.4723 145.7409 L 113.4903 131.0578 Z "/>
  <path id="ID0.7468986632302403" fill="#FAA51D" stroke="#000000" stroke-width="1.1999999928789766" d="M 137.8335 172.592 C 137.3657 173.4702 136.7142 174.2698 135.8857 174.9297 L 120.1462 187.4598 C 118.1593 189.0414 115.5078 189.5097 113.0989 188.7057 C 110.6901 187.9017 108.8522 185.9324 108.2138 183.4746 L 102.0194 159.5896 L 87.8504 146.8713 C 84.767 144.107 84.5062 139.3623 87.2785 136.2809 C 90.0445 133.1984 94.7874 132.9412 97.8689 135.709 L 113.7218 149.9372 C 114.8196 150.9221 115.6028 152.2083 115.973 153.6361 L 119.8367 168.5329 L 126.5424 163.1937 C 129.7831 160.6134 134.501 161.1496 137.0813 164.3903 C 139.0026 166.8029 139.196 170.0343 137.8335 172.592 L 137.8335 172.592 Z "/>
  <path id="ID0.203311821911484_1_" fill="#FFFFFF" d="M 113.4774 116.4013 C 113.4774 116.4013 114.4584 109.7983 104.2047 110.9023 C 93.9511 112.0062 93.2453 118.3757 92.5303 122.2942 C 91.2803 129.0706 106.0622 132.6087 106.0622 132.6087 L 112.7747 130.3019 C 112.7747 130.3019 113.6984 125.998 113.469 123.1851 C 113.5311 120.4366 113.4774 116.4013 113.4774 116.4013 " stroke-width="1.0000000009993393"/>
  <path id="ID0.5667225387878716" fill="#FAA51D" d="M 101.4581 139.0531 C 100.6291 143.6934 95.6335 146.6832 90.2998 145.7306 C 84.966 144.7793 81.3125 140.2445 82.1422 135.6037 C 82.9706 130.9626 86.8359 126.3217 92.1695 127.2743 C 101.2479 128.8937 102.9434 130.7273 101.4581 139.0531 Z " stroke-width="1.0000000009993393"/>
  <path id="ID0.4675603983923793_1_" fill="#FAA51D" stroke="#231F20" stroke-width="1.1999999620476158" d="M 69.5228 20.5228 C 66.6971 20.8448 60.8532 21.7395 57.7035 22.5568 C 49.2769 24.739 41.8238 29.4932 41.8238 29.4932 L 15.1967 19.091 L 26.3236 52.2855 C 27.1921 50.6334 12.1335 79.2996 29.1637 97.1976 C 46.2029 115.1057 75.3936 118.5774 107.7537 104.8228 C 140.1149 91.0621 144.1085 69.9355 139.7243 60.1162 C 135.342 50.2969 121.8044 49.1603 121.8044 49.1603 C 121.8044 49.1603 119.9594 41.1304 112.0677 32.4637 C 107.3716 27.3048 94.0186 21.1255 94.0186 21.1255 L 84.5302 1.4054 L 73.8229 17.1739 L 69.5228 20.5228 L 69.5228 20.5228 Z "/>
  <path id="ID0.876089540310204_1_" fill="#FFFFFF" d="M 120.0622 49.2536 L 114.8181 46.4716 L 99.4097 54.686 C 99.4097 54.686 100.6957 60.8407 93.1906 64.1879 C 85.6815 67.543 72.1533 64.3024 72.1533 64.3024 L 59.4231 73.3795 C 59.4231 73.3795 44.5838 78.2192 45.977 87.6102 C 49.0689 108.4797 76.1589 111.794 85.86 110.3405 C 91.1527 109.5497 100.5559 106.6375 107.5312 103.6723 C 138.2716 91.1792 142.8951 70.1429 138.5139 60.3187 C 134.1306 50.4994 121.4479 50.3636 121.4479 50.3636 L 120.0622 49.2536 L 120.0622 49.2536 Z " stroke-width="0.9999999683730133"/>
  <path id="ID0.44282719027251005_1_" fill="none" stroke="#231F20" stroke-width="1.1999999620476158" d="M 5.8765 93.9214 C 5.8765 93.9214 13.4104 93.0503 16.7323 92.1594 C 20.0492 91.2664 26.3989 89.0388 26.3989 89.0388 "/>
  <path id="ID0.893105489667505_1_" fill="none" stroke="#231F20" stroke-width="1.1999999620476158" d="M 131.5941 57.376 C 131.5941 57.376 139.5035 54.3287 143.3594 52.0079 C 147.8922 49.2925 150.5817 45.7201 150.5817 45.7201 "/>
  <path id="ID0.03574043000116944_1_" fill="none" stroke="#231F20" stroke-width="1.1999999620476158" d="M 25.278 81.8944 C 25.278 81.8944 20.3189 79.5909 12.9782 78.0184 C 4.8478 76.2752 0.5838 76.2792 0.5838 76.2792 "/>
  <path id="ID0.6674723788164556_1_" fill="none" stroke="#231F20" stroke-width="1.1999999620476158" d="M 134.6608 67.9155 C 134.6608 67.9155 139.9828 68.8778 145.1409 68.3297 C 150.2321 67.7855 153.5452 66.7824 153.5452 66.7824 "/>
  <path id="ID0.12165586883202195_1_" fill="none" stroke="#000000" stroke-linecap="round" d="M 68.8973 20.7584 C 74.2719 20.9518 76.4468 21.9414 76.4468 21.9414 " stroke-width="0.9999999683730133"/>
  <path id="ID0.178104005753994_1_" fill="none" stroke="#000000" d="M 35.4816 26.7418 L 48.0258 32.3104 " stroke-width="0.9999999683730133"/>
  <path id="ID0.7735752793960273_1_" fill="#FFFFFF" stroke="#231F20" d="M 108.1734 33.5135 C 115.1207 40.4772 117.2384 49.6387 112.8992 53.9705 C 108.557 58.3054 99.4075 56.165 92.4523 49.1983 C 85.488 42.2356 83.3823 33.0781 87.7245 28.7413 C 92.0616 24.4104 101.2202 26.5448 108.1734 33.5135 L 108.1734 33.5135 Z " stroke-width="0.9999999683730133"/>
  <path id="ID0.19106501014903188_1_" fill="#231F20" d="M 107.5222 41.6731 C 107.9271 43.617 106.8131 45.4956 105.0163 45.8708 C 103.2285 46.2441 101.4412 44.9693 101.0353 43.0274 C 100.6304 41.0836 101.7584 39.1979 103.5452 38.8247 C 105.342 38.4485 107.1163 39.7293 107.5222 41.6731 " stroke-width="0.9999999683730133"/>
  <path id="ID0.06283409334719181_1_" fill="#FFFFFF" stroke="#231F20" d="M 66.2409 48.3779 C 73.1922 55.3426 74.6605 65.1467 69.5297 70.2629 C 64.3968 75.3901 54.599 73.8893 47.6497 66.9246 C 40.6964 59.9609 39.2211 50.1618 44.3549 45.0376 C 49.4918 39.9145 59.2846 41.4102 66.2409 48.3779 L 66.2409 48.3779 Z " stroke-width="0.9999999683730133"/>
  <path id="ID0.716460831463337_1_" fill="#231F20" d="M 64.2415 56.6457 C 64.6473 58.5916 63.5314 60.4712 61.7346 60.8464 C 59.9488 61.2196 58.1605 59.9428 57.7546 58 C 57.3497 56.0571 58.4787 54.1725 60.2645 53.8003 C 62.0563 53.4261 63.8366 54.7028 64.2415 56.6457 " stroke-width="0.9999999683730133"/>
  <path id="ID0.5430324394255877_1_" fill="#5E4A42" stroke="#000000" d="M 91.159 60.6586 C 94.4965 59.9626 99.2517 58.4367 99.8276 59.9189 C 100.4065 61.4031 98.3303 68.1268 96.0817 68.863 C 93.8251 69.6012 84.1718 66.9288 83.4567 64.1363 C 82.7356 61.3468 88.0777 61.3021 91.159 60.6586 L 91.159 60.6586 Z " stroke-width="0.9999999683730133"/>
  <path id="ID0.5547774969600141_1_" fill="none" stroke="#231F20" stroke-width="1.1999999620476158" d="M 70.5179 78.699 C 70.5179 78.699 90.2905 80.3078 97.5744 80.3712 C 104.8543 80.4336 117.7416 79.3258 117.7416 79.3258 C 117.7416 79.3258 107.2083 100.7706 89.4217 99.597 C 71.6342 98.4314 69.7267 87.7693 70.5179 78.699 L 70.5179 78.699 Z "/>
  <path id="ID0.0015770294703543186" fill="#FAA51D" stroke="#000000" stroke-width="1.2167383019205806" d="M 139.6765 106.3266 C 141.0917 103.8378 140.6846 100.5889 138.4845 98.4348 C 135.8525 95.8592 131.6517 95.8265 129.0996 98.3625 L 117.9101 109.4854 L 96.9778 108.3101 C 93.3155 108.1039 90.2454 110.8606 90.1239 114.4715 C 90.0016 118.0797 92.8715 121.1725 96.5348 121.377 L 120.407 122.717 C 122.279 122.8221 124.0904 122.1438 125.3943 120.8468 L 138.6312 107.6889 C 139.049 107.2742 139.3987 106.8151 139.6765 106.3266 L 139.6765 106.3266 Z "/>
</svg>