<svg xmlns="http://www.w3.org/2000/svg" xmlns:xlink="http://www.w3.org/1999/xlink" version="1.1" width="30.75" height="30.75" viewBox="0.40000003576278687 0.050000011920928955 30.75 30.75">
  <defs>
    <linearGradient id="grad_1" x1="7.9893" y1="7.9893" x2="21.7613" y2="21.7613" gradientUnits="userSpaceOnUse">
      <stop offset="0" stop-color="#D68D00"/>
      <stop offset="1" stop-color="#FFE600"/>
    </linearGradient>
  <linearGradient id="grad_1-,0,0,1,0.9,0.55" x1="8.8893" y1="8.5393" x2="22.6613" y2="22.3113" gradientUnits="userSpaceOnUse">
      <stop offset="0" stop-color="#D68D00"/>
      <stop offset="1" stop-color="#FFE600"/>
    </linearGradient></defs>
  <!-- Exported by Scratch - http://scratch.mit.edu/ -->
  <g id="ID0.5204231468960643">
    <g id="ID0.04987580515444279">
      <path id="ID0.4675361681729555" fill="#E0B820" d="M 15.775 29.8 C 7.849 29.8 1.4 23.352 1.4 15.425 C 1.4 7.499 7.849 1.05 15.775 1.05 C 23.702 1.05 30.15 7.499 30.15 15.425 C 30.15 23.352 23.702 29.8 15.775 29.8 L 15.775 29.8 Z " stroke-width="1"/>
      <path id="ID0.7858227952383459" fill="#B58015" d="M 15.775 1.55 C 23.438 1.55 29.65 7.762 29.65 15.425 C 29.65 23.088 23.438 29.3 15.775 29.3 C 8.112 29.3 1.9 23.088 1.9 15.425 C 1.9 7.762 8.112 1.55 15.775 1.55 M 15.775 0.55 C 7.573 0.55 0.9 7.223 0.9 15.425 C 0.9 23.627 7.573 30.3 15.775 30.3 C 23.977 30.3 30.65 23.627 30.65 15.425 C 30.65 7.223 23.977 0.55 15.775 0.55 L 15.775 0.55 Z " stroke-width="1"/>
    </g>
    <path id="ID0.580843495670706" fill="url(#grad_1-,0,0,1,0.9,0.55)" d="M 15.775 5.687 C 18.462 5.687 20.896 6.778 22.659 8.541 C 24.422 10.304 25.513 12.738 25.513 15.425 C 25.513 18.112 24.422 20.546 22.659 22.309 C 20.896 24.072 18.462 25.163 15.775 25.163 C 13.088 25.163 10.654 24.072 8.891 22.309 C 7.128 20.546 6.037 18.112 6.037 15.425 C 6.037 12.738 7.128 10.304 8.891 8.541 C 10.654 6.778 13.088 5.687 15.775 5.687 Z " stroke-width="1"/>
    <path id="ID0.49814528692513704" fill="#E0A614" d="M 15.775 6.659 C 18.193 6.659 20.385 7.641 21.972 9.228 C 23.559 10.815 24.541 13.007 24.541 15.425 C 24.541 17.843 23.559 20.035 21.972 21.622 C 20.385 23.209 18.193 24.191 15.775 24.191 C 13.357 24.191 11.165 23.209 9.578 21.622 C 7.991 20.035 7.009 17.843 7.009 15.425 C 7.009 13.007 7.991 10.815 9.578 9.228 C 11.165 7.641 13.357 6.659 15.775 6.659 Z " stroke-width="1"/>
  </g>
</svg>