<svg xmlns="http://www.w3.org/2000/svg" xmlns:xlink="http://www.w3.org/1999/xlink" version="1.1" width="123.07186126708984" height="38.82148361206055" viewBox="-0.5 -0.4914820194244385 123.07186126708984 38.82148361206055">
  <!-- Exported by Scratch - http://scratch.mit.edu/ -->
  <g id="ID0.8336169105023146">
    <path id="ID0.47723776707425714" d="M 10.830 25.980 L 8.170 15.390 L 8.170 26.860 C 8.170 27.490 8.030 27.970 7.740 28.290 C 7.460 28.610 7.080 28.770 6.610 28.770 C 6.160 28.770 5.790 28.610 5.500 28.300 C 5.210 27.990 5.070 27.510 5.070 26.870 L 5.070 13.710 C 5.070 12.980 5.260 12.500 5.640 12.240 C 6.020 11.980 6.530 11.860 7.170 11.860 L 8.210 11.860 C 8.840 11.860 9.290 11.920 9.580 12.030 C 9.870 12.140 10.070 12.350 10.210 12.640 C 10.350 12.930 10.500 13.410 10.670 14.080 L 13.080 23.180 L 15.490 14.080 C 15.660 13.410 15.820 12.940 15.950 12.640 C 16.090 12.350 16.300 12.140 16.580 12.030 C 16.860 11.920 17.320 11.860 17.950 11.860 L 18.990 11.860 C 19.630 11.860 20.140 11.990 20.520 12.240 C 20.900 12.490 21.090 12.980 21.090 13.710 L 21.090 26.860 C 21.090 27.490 20.950 27.970 20.660 28.290 C 20.380 28.610 20 28.770 19.520 28.770 C 19.070 28.770 18.710 28.610 18.420 28.290 C 18.130 27.970 17.990 27.500 17.990 26.860 L 17.990 15.390 L 15.330 25.980 C 15.160 26.670 15.010 27.170 14.910 27.490 C 14.800 27.810 14.600 28.100 14.300 28.370 C 14.010 28.630 13.600 28.770 13.080 28.770 C 12.690 28.770 12.350 28.690 12.080 28.520 C 11.810 28.350 11.600 28.130 11.450 27.870 C 11.300 27.610 11.180 27.310 11.090 26.990 C 11.010 26.660 10.930 26.320 10.830 25.980 Z " stroke-width="1" />
    <path id="ID0.8054496278055012" d="M 32.380 27.020 L 32.380 26.620 C 32.010 27.090 31.620 27.480 31.210 27.800 C 30.800 28.120 30.360 28.350 29.870 28.510 C 29.390 28.670 28.830 28.740 28.220 28.740 C 27.470 28.740 26.800 28.580 26.210 28.280 C 25.620 27.980 25.160 27.540 24.830 27 C 24.440 26.340 24.250 25.400 24.250 24.170 L 24.250 18.040 C 24.250 17.420 24.390 16.960 24.670 16.650 C 24.950 16.340 25.320 16.190 25.780 16.190 C 26.250 16.190 26.630 16.340 26.910 16.650 C 27.200 16.960 27.340 17.420 27.340 18.030 L 27.340 22.980 C 27.340 23.700 27.400 24.300 27.520 24.790 C 27.640 25.280 27.860 25.660 28.170 25.930 C 28.480 26.210 28.910 26.340 29.450 26.340 C 29.970 26.340 30.460 26.180 30.920 25.880 C 31.380 25.580 31.720 25.170 31.930 24.670 C 32.100 24.230 32.190 23.270 32.190 21.790 L 32.190 18.030 C 32.190 17.420 32.330 16.960 32.620 16.650 C 32.910 16.340 33.280 16.190 33.740 16.190 C 34.200 16.190 34.570 16.340 34.850 16.650 C 35.130 16.960 35.270 17.420 35.270 18.040 L 35.270 27 C 35.270 27.590 35.140 28.030 34.870 28.330 C 34.600 28.620 34.260 28.770 33.830 28.770 C 33.400 28.770 33.060 28.620 32.780 28.310 C 32.500 28 32.380 27.570 32.380 27.020 Z " stroke-width="1" />
    <path id="ID0.5277731046080589" d="M 48.330 24.720 C 48.330 25.570 48.120 26.300 47.710 26.910 C 47.290 27.520 46.680 27.980 45.870 28.290 C 45.060 28.600 44.070 28.760 42.910 28.760 C 41.800 28.760 40.850 28.590 40.050 28.250 C 39.260 27.910 38.670 27.480 38.290 26.970 C 37.910 26.460 37.720 25.950 37.720 25.430 C 37.720 25.090 37.840 24.800 38.080 24.560 C 38.320 24.320 38.630 24.200 39 24.200 C 39.320 24.200 39.570 24.280 39.750 24.440 C 39.920 24.600 40.090 24.820 40.250 25.110 C 40.570 25.660 40.950 26.070 41.390 26.350 C 41.830 26.620 42.430 26.760 43.200 26.760 C 43.820 26.760 44.330 26.620 44.720 26.350 C 45.120 26.070 45.310 25.760 45.310 25.400 C 45.310 24.860 45.100 24.460 44.690 24.210 C 44.280 23.960 43.600 23.720 42.650 23.500 C 41.580 23.240 40.720 22.960 40.050 22.670 C 39.380 22.380 38.850 22 38.450 21.520 C 38.050 21.040 37.850 20.460 37.850 19.760 C 37.850 19.140 38.040 18.550 38.410 18 C 38.780 17.450 39.330 17.010 40.050 16.680 C 40.770 16.350 41.640 16.190 42.660 16.190 C 43.460 16.190 44.180 16.270 44.820 16.440 C 45.460 16.610 45.990 16.830 46.420 17.110 C 46.850 17.390 47.170 17.700 47.390 18.040 C 47.610 18.380 47.720 18.710 47.720 19.040 C 47.720 19.400 47.600 19.690 47.360 19.910 C 47.120 20.140 46.780 20.250 46.350 20.250 C 46.030 20.250 45.760 20.160 45.540 19.980 C 45.320 19.800 45.060 19.530 44.780 19.160 C 44.550 18.860 44.270 18.620 43.950 18.430 C 43.630 18.250 43.200 18.160 42.660 18.160 C 42.100 18.160 41.640 18.280 41.270 18.520 C 40.900 18.760 40.720 19.050 40.720 19.410 C 40.720 19.740 40.860 20 41.130 20.210 C 41.400 20.420 41.770 20.590 42.230 20.730 C 42.690 20.870 43.330 21.030 44.130 21.230 C 45.090 21.460 45.870 21.740 46.480 22.070 C 47.090 22.400 47.550 22.780 47.860 23.220 C 48.170 23.660 48.330 24.150 48.330 24.720 Z " stroke-width="1" />
    <path id="ID0.9164875047281384" d="M 52.510 14.740 C 52.080 14.740 51.710 14.610 51.410 14.340 C 51.100 14.080 50.950 13.700 50.950 13.220 C 50.950 12.780 51.110 12.420 51.420 12.140 C 51.730 11.860 52.100 11.710 52.510 11.710 C 52.910 11.710 53.270 11.840 53.580 12.100 C 53.890 12.360 54.040 12.730 54.040 13.220 C 54.040 13.700 53.890 14.070 53.590 14.340 C 53.290 14.610 52.930 14.740 52.510 14.740 Z M 54.040 17.940 L 54.040 26.880 C 54.040 27.500 53.890 27.970 53.600 28.290 C 53.310 28.610 52.930 28.770 52.480 28.770 C 52.030 28.770 51.660 28.610 51.370 28.280 C 51.080 27.950 50.950 27.490 50.950 26.890 L 50.950 18.040 C 50.950 17.430 51.090 16.970 51.370 16.660 C 51.650 16.350 52.020 16.200 52.480 16.200 C 52.930 16.200 53.310 16.350 53.600 16.660 C 53.900 16.960 54.040 17.390 54.040 17.940 Z " stroke-width="1" />
    <path id="ID0.516801331192255" d="M 68.340 24.930 C 68.340 25.320 68.220 25.730 67.990 26.170 C 67.760 26.610 67.410 27.030 66.940 27.420 C 66.470 27.820 65.870 28.140 65.150 28.380 C 64.430 28.620 63.620 28.740 62.720 28.740 C 60.810 28.740 59.320 28.180 58.240 27.070 C 57.170 25.960 56.630 24.460 56.630 22.590 C 56.630 21.320 56.880 20.200 57.370 19.220 C 57.860 18.240 58.570 17.490 59.500 16.960 C 60.430 16.430 61.540 16.160 62.830 16.160 C 63.630 16.160 64.370 16.280 65.040 16.510 C 65.710 16.740 66.280 17.050 66.740 17.420 C 67.200 17.790 67.560 18.180 67.810 18.600 C 68.060 19.020 68.180 19.410 68.180 19.770 C 68.180 20.140 68.040 20.450 67.770 20.710 C 67.490 20.970 67.160 21.100 66.770 21.100 C 66.510 21.100 66.300 21.030 66.130 20.900 C 65.960 20.770 65.770 20.550 65.560 20.260 C 65.180 19.690 64.790 19.260 64.380 18.970 C 63.970 18.680 63.440 18.540 62.810 18.540 C 61.900 18.540 61.160 18.900 60.600 19.610 C 60.040 20.320 59.760 21.300 59.760 22.540 C 59.760 23.120 59.830 23.660 59.970 24.140 C 60.110 24.620 60.320 25.040 60.590 25.390 C 60.860 25.730 61.190 25.990 61.580 26.170 C 61.970 26.350 62.390 26.440 62.850 26.440 C 63.470 26.440 64 26.300 64.440 26.010 C 64.880 25.720 65.270 25.280 65.610 24.690 C 65.800 24.340 66 24.070 66.220 23.870 C 66.440 23.670 66.710 23.580 67.020 23.580 C 67.400 23.580 67.710 23.720 67.960 24.010 C 68.210 24.300 68.340 24.610 68.340 24.930 Z " stroke-width="1" />
    <path id="ID0.7507163197733462" fill="none" d="M 0 4.830 L 98.680 4.830 L 98.680 36.830 L 0 36.830 L 0 4.830 Z " stroke-width="1"/>
    <path id="ID0.30853080842643976" fill="#FBB03B" d="M 120.410 26.690 C 120.410 32.840 117.900 37.830 114.790 37.830 L 90.030 37.830 C 86.930 37.830 84.410 32.840 84.410 26.690 L 84.410 16.980 C 84.410 10.830 86.920 5.840 90.030 5.840 L 114.800 5.840 C 117.900 5.840 120.420 10.830 120.420 16.980 L 120.420 26.690 Z " stroke-width="1"/>
    <path id="check_1_" d="M 88.540 22.480 C 88.540 22.480 95.150 29.920 96.470 32.960 L 102.150 32.960 C 104.530 25.690 113.780 8.350 121.700 2.270 C 123.340 0.160 119.220 -0.710 115.890 0.690 C 110.870 2.800 101.410 18.880 99.640 22.750 C 97.130 23.410 94.490 18.520 94.490 18.520 L 88.540 22.480 Z " stroke-width="1" />
  </g>
</svg>