<svg version="1.1" xmlns="http://www.w3.org/2000/svg" xmlns:xlink="http://www.w3.org/1999/xlink" width="346.31775" height="344.23251" viewBox="0,0,346.31775,344.23251"><defs><linearGradient x1="284.04715" y1="61.62024" x2="190.84367" y2="321.94641" gradientUnits="userSpaceOnUse" id="color-1"><stop offset="0" stop-color="#000000"/><stop offset="1" stop-color="#000000" stop-opacity="0"/></linearGradient><linearGradient x1="290.64875" y1="41.41134" x2="197.44528" y2="301.7375" gradientUnits="userSpaceOnUse" id="color-2"><stop offset="0" stop-color="#dcdcdc"/><stop offset="1" stop-color="#bababa"/></linearGradient><linearGradient x1="237.74881" y1="7.88374" x2="237.74881" y2="331.17872" gradientUnits="userSpaceOnUse" id="color-3"><stop offset="0" stop-color="#ffffff"/><stop offset="1" stop-color="#ced0ce"/></linearGradient></defs><g transform="translate(-68.09113,-7.88375)"><g data-paper-data="{&quot;isPaintingLayer&quot;:true}" fill-rule="nonzero" stroke-linejoin="miter" stroke-miterlimit="10" stroke-dasharray="" stroke-dashoffset="0" style="mix-blend-mode: normal"><g><path d="M372.22627,238.65938c-15.43078,43.09962 -28.67206,101.30847 -70.64811,112.36124c-26.69584,7.02932 -78.35838,-21.67469 -106.59942,-31.7857c-23.8918,-8.55387 -100.46971,-25.48685 -115.9115,-43.20701c-31.51136,-36.16072 13.13995,-84.23594 30.08207,-131.55687c14.24194,-39.7791 28.03442,-92.38406 65.80058,-105.27848c29.17587,-9.96146 79.78477,13.36707 111.44695,24.70294c34.04796,12.19004 94.23152,25.45544 110.21409,54.41951c18.11876,32.83536 -10.97175,82.88088 -24.38465,120.34436z" fill="url(#color-1)" stroke="none" stroke-width="0" stroke-linecap="butt"/><path d="M381.74756,230.91553c-15.43078,43.09962 -28.67206,101.30848 -70.64811,112.36126c-26.69584,7.02932 -78.35838,-21.67469 -106.59941,-31.7857c-23.8918,-8.55387 -100.46971,-25.48685 -115.9115,-43.20701c-31.51136,-36.16072 13.13995,-84.23594 30.08207,-131.55687c14.24194,-39.7791 28.03442,-92.38406 65.80057,-105.27848c29.17587,-9.96146 79.78477,13.36707 111.44696,24.70294c34.04796,12.19004 94.23152,25.45544 110.21409,54.41952c18.11876,32.83535 -10.97175,82.88088 -24.38465,120.34437z" fill="#9c9c9c" stroke="#000000" stroke-width="5" stroke-linecap="butt"/><path d="M378.99078,225.08382c-15.43078,43.09962 -28.67206,101.30848 -70.64811,112.36126c-26.69585,7.02932 -78.35838,-21.67469 -106.59942,-31.7857c-23.8918,-8.55387 -100.46971,-25.48685 -115.9115,-43.20701c-31.51136,-36.16072 13.13995,-84.23594 30.08207,-131.55687c14.24194,-39.7791 28.03442,-92.38406 65.80058,-105.27848c29.17587,-9.96146 79.78476,13.36707 111.44695,24.70294c34.04796,12.19004 94.23152,25.45544 110.21409,54.41952c18.11876,32.83536 -10.97175,82.88088 -24.38465,120.34436z" fill="#bebebe" stroke="#444444" stroke-width="4.5" stroke-linecap="butt"/><path d="M378.82789,218.45048c-15.43078,43.09962 -28.67206,101.30848 -70.64811,112.36125c-26.69584,7.02932 -78.35838,-21.67469 -106.59941,-31.7857c-23.8918,-8.55387 -100.46971,-25.48685 -115.9115,-43.20701c-31.51136,-36.16072 13.13995,-84.23594 30.08207,-131.55686c14.24194,-39.7791 28.03441,-92.38406 65.80057,-105.27848c29.17587,-9.96146 79.78477,13.36707 111.44696,24.70294c34.04796,12.19004 94.23152,25.45544 110.21409,54.41952c18.11876,32.83536 -10.97175,82.88088 -24.38465,120.34436z" fill="url(#color-2)" stroke="#444444" stroke-width="4.5" stroke-linecap="butt"/><path d="M354.71088,240.38354c-20.7311,22.55592 -41.54018,43.61219 -57.19983,47.73556c-13.25813,3.49102 9.07914,42.07715 -9.38073,43.04049c-18.70989,0.97639 -78.223,-35.72733 -92.4385,-40.81685c-23.8918,-8.55387 -100.46971,-25.48685 -115.9115,-43.20701c-31.51136,-36.16072 13.13995,-84.23594 30.08207,-131.55686c14.24194,-39.7791 28.03441,-92.38406 65.80057,-105.27848c29.17587,-9.96146 79.78477,13.36707 111.44696,24.70295c34.04796,12.19004 94.23152,25.45544 110.21409,54.41951c10.08319,18.27305 13.6685,44.95596 2.44355,65.71782c-4.54643,8.40915 -18.30064,45.87466 -21.95033,50.87375c-1.33326,1.82621 -23.10633,34.36913 -23.10633,34.36913z" fill="url(#color-3)" stroke="none" stroke-width="0" stroke-linecap="butt"/><text transform="matrix(1.69293 0 0 1.69293 175.08359 39.491299999999995)" font-size="40"  fill="#313131" fill-rule="nonzero" stroke="none" stroke-width="1" stroke-linecap="butt" stroke-linejoin="miter" stroke-miterlimit="10" stroke-dasharray="" stroke-dashoffset="0" font-family="Helvetica" font-weight="normal" text-anchor="start" style="mix-blend-mode: normal" >To Do:</text><path d="M129.99722,104.00468l219.72329,81.32108" fill="none" stroke="#000000" stroke-width="0.5" stroke-linecap="round"/><path d="M114.35855,134.50008l220.50522,80.53914" fill="none" stroke="#000000" stroke-width="0.5" stroke-linecap="round"/><path d="M314.53351,240.06109l-209.55816,-75.06561" fill="none" stroke="#000000" stroke-width="0.5" stroke-linecap="round"/><path d="M86.20895,186.88962l211.90396,78.97528" fill="none" stroke="#000000" stroke-width="0.5" stroke-linecap="round"/></g></g></g></svg>