<svg version="1.1" xmlns="http://www.w3.org/2000/svg" xmlns:xlink="http://www.w3.org/1999/xlink" width="283.284" height="346.51722" viewBox="0,0,283.284,346.51722"><g transform="translate(-98.358,-17.75)"><g data-paper-data="{&quot;isPaintingLayer&quot;:true}" fill-rule="nonzero" stroke-linejoin="miter" stroke-miterlimit="10" stroke-dasharray="" stroke-dashoffset="0" style="mix-blend-mode: normal"><path d="M99.608,19h280.784v322h-109.43184c-1.42819,-0.72814 -3.22966,-1.16336 -5.42853,-1.203c-21.44096,-0.38656 -42.89201,-0.36594 -64.33333,0c-0.25427,0 -0.50632,0.00949 -0.75582,0.02814c-1.69643,0.10011 -2.89918,0.44008 -3.82137,1.00398c-7.31921,0.02437 -14.63824,0.08083 -21.95668,0.17089h-29.60568c-15.14935,-0.15731 -30.30031,-0.21776 -45.45074,-0.17231z" fill="#808080" stroke="#000000" stroke-width="2.5" stroke-linecap="butt"/><path d="M280.9375,19v321" fill="none" stroke="#000000" stroke-width="2.5" stroke-linecap="round"/><text transform="matrix(0.5 0 0 0.5 306.9375 37.5)" font-size="40"  fill="#000000" fill-rule="nonzero" stroke="none" stroke-width="1" stroke-linecap="butt" stroke-linejoin="miter" stroke-miterlimit="10" stroke-dasharray="" stroke-dashoffset="0" font-family="Helvetica" font-weight="normal" text-anchor="start" style="mix-blend-mode: normal" >PULL</text><g fill="#000000" stroke="none" stroke-width="1" stroke-linecap="butt" font-family="Sans Serif" font-weight="normal" font-size="40" text-anchor="start"><text transform="matrix(0.5 0 0 0.5 327.9375 60.5)" font-size="40"  fill="#000000" fill-rule="nonzero" stroke="none" stroke-width="1" stroke-linecap="butt" stroke-linejoin="miter" stroke-miterlimit="10" stroke-dasharray="" stroke-dashoffset="0" font-family="Helvetica" font-weight="normal" text-anchor="start" style="mix-blend-mode: normal" >l</text><text transform="matrix(0.5 0 0 0.5 322.9375 71.5)" font-size="40"  fill="#000000" fill-rule="nonzero" stroke="none" stroke-width="1" stroke-linecap="butt" stroke-linejoin="miter" stroke-miterlimit="10" stroke-dasharray="" stroke-dashoffset="0" font-family="Helvetica" font-weight="normal" text-anchor="start" style="mix-blend-mode: normal" >\/</text></g><text transform="matrix(0.5 0 0 0.5 303.9375 93.5)" font-size="40"  fill="#000000" fill-rule="nonzero" stroke="none" stroke-width="1" stroke-linecap="butt" stroke-linejoin="miter" stroke-miterlimit="10" stroke-dasharray="" stroke-dashoffset="0" font-family="Helvetica" font-weight="normal" text-anchor="start" style="mix-blend-mode: normal" >HOLD</text><g data-paper-data="{&quot;index&quot;:null}"><path d="M298.27484,190.32143v-29.33929h64.35714v29.33929z" fill="#cccccc" stroke="#000000" stroke-width="1.5" stroke-linecap="butt"/><path d="M307.73912,189.375v-27.44643h13.25v27.44643z" fill="#000000" stroke="#000000" stroke-width="1.5" stroke-linecap="butt"/><path d="M338.97126,189.375v-27.44643h13.25v27.44643z" fill="#000000" stroke="#000000" stroke-width="1.5" stroke-linecap="butt"/><g fill="none" stroke-linecap="round"><path d="M314.36412,213.98214v-38.80357" stroke="#bfbfbf" stroke-width="5"/><path d="M346.06948,175.17857v38.80357" stroke="#c0c0c0" stroke-width="5"/><path d="M290.98438,212.41147h79.5" stroke="#c0c0c0" stroke-width="7.5"/><path d="M290.98438,201.91518v20.58482" stroke="#c0c0c0" stroke-width="7.5"/><path d="M370.48438,201.91518v20.58482" stroke="#c0c0c0" stroke-width="7.5"/></g></g><path d="M205.97352,328.97623c-2.5511,-3.86609 -21.03602,-1.49775 -21.03602,-6.47623c0,-6.76549 -23.25775,-7.89049 -18.82412,-12.32412c4.43363,-4.43362 36.55863,-12.17588 43.32412,-12.17588c8.26045,0 27.56608,14.08806 32.0041,20.35138c2.83165,3.99627 -7.5041,-1.12191 -7.5041,4.14862c0,2.82333 -0.47757,9.80335 -1.35633,17.01517c-8.76044,0.00585 -17.52087,0.07435 -26.27993,0.20129c0.74867,-3.52202 1.71424,-7.64572 -0.32772,-10.74023z" fill="#c4b996" stroke="none" stroke-width="NaN" stroke-linecap="butt"/><path d="" fill="#c4b996" stroke="none" stroke-width="NaN" stroke-linecap="butt"/><path d="M247.48545,338.08057c4.19303,-3.69302 9.82979,-6.78818 12.90544,-8.53796c-1.22412,1.90392 -2.28685,5.4691 -3.06687,10.12618c-3.79896,-0.05025 -7.59816,-0.08798 -11.39748,-0.11351c0.48912,-0.50065 1.01173,-0.99277 1.55892,-1.47471z" fill="#c4b996" stroke="none" stroke-width="0" stroke-linecap="butt"/><path d="" fill="#c4b996" stroke="none" stroke-width="0" stroke-linecap="butt"/><path d="" fill="#c4b996" stroke="none" stroke-width="0" stroke-linecap="butt"/><path d="M260.39089,284.54261c0.64349,-1.00084 1.33157,-1.54261 2.04661,-1.54261c0.60283,0 -0.31685,0.55853 -2.04661,1.54261z" fill="#c4b996" stroke="none" stroke-width="0" stroke-linecap="butt"/><path d="" fill="#c4b996" stroke="none" stroke-width="0" stroke-linecap="butt"/><path d="M119.60231,363.72774c0.14623,-0.00155 0.29249,-0.00318 0.43876,-0.00487c-0.10373,0.17803 -0.20212,0.35955 -0.29495,0.54435c-0.04883,-0.17865 -0.09677,-0.35849 -0.14381,-0.53948z" fill="#c4b996" stroke="none" stroke-width="0" stroke-linecap="butt"/><path d="" fill="#c4b996" stroke="none" stroke-width="0" stroke-linecap="butt"/><path d="M252.06088,320.85173c0.2957,0.36156 0.13502,0.54754 0,0z" fill="#c4b996" stroke="none" stroke-width="0" stroke-linecap="butt"/><path d="" fill="#c4b996" stroke="none" stroke-width="0" stroke-linecap="butt"/><path d="" fill="#c4b996" stroke="none" stroke-width="0" stroke-linecap="butt"/><path d="" fill="#c4b996" stroke="none" stroke-width="0" stroke-linecap="butt"/><path d="M149.69085,320.36838c-1.86792,4.05633 -0.71024,15.59104 -1.7833,21.90746c-0.46433,-0.07997 -0.93961,-0.12792 -1.42349,-0.1415c-0.09701,-0.00093 -0.19237,-0.00217 -0.28576,-0.004c-9.00883,-0.1768 -18.02031,-0.27204 -27.0318,-0.27866c-1.11171,-1.84685 2.16418,-6.84259 1.01317,-9.3614c-3.32847,-7.28383 -8.60491,-15.41732 -3.18832,-27.17985c2.82369,-6.13186 15.43373,2.68051 19.37951,-1.22293c6.54543,-6.4752 4.93063,-23.36273 10.56424,-20.76848c9.02972,4.15814 10.26352,20.74571 2.75576,37.04937z" fill="#c4b996" stroke="none" stroke-width="0" stroke-linecap="butt"/><path d="M169.63495,303.11149c-4.73714,-4.45029 -10.77179,-25.11387 -1.54156,-34.93905c9.23022,-9.82518 30.23002,-5.09136 34.96716,-0.64107c3.50486,3.29263 15.19249,9.23141 10.654,16.7293c-1.59569,2.63618 -16.38839,6.56288 -18.78946,9.11871c-0.58145,0.61892 -28.52344,0.3623 -29.11932,0.93699c-8.86354,8.54834 8.26789,12.96506 3.82916,8.79511z" fill="#c4b996" stroke="none" stroke-width="0" stroke-linecap="butt"/><path d="M266.1317,329.88054c-6.5603,3.97253 -14.81858,-15.72755 -21.01143,-19.54526c-4.09065,-2.52177 -17.27062,-20.03476 -18.46469,-24.66963c-1.55057,-6.01863 9.92413,0.41152 13.77186,-5.83c3.02837,-4.91242 -8.85286,-33.7172 -4.20601,-35.65762c5.80393,-2.4236 28.34116,22.92964 33.56297,26.14875c5.47806,3.37707 -0.50143,14.45904 -0.29865,21.10147c0.14527,4.75869 7.83423,4.78684 4.99148,9.39816c-2.325,3.77145 -4.94534,26.99518 -8.34554,29.05414z" data-paper-data="{&quot;index&quot;:null}" fill="#c4b996" stroke="none" stroke-width="0" stroke-linecap="butt"/></g></g></svg>