<svg version="1.1" xmlns="http://www.w3.org/2000/svg" xmlns:xlink="http://www.w3.org/1999/xlink" width="272.92788" height="274.32171" viewBox="0,0,272.92788,274.32171"><g transform="translate(-103.53606,-43.53606)"><g data-paper-data="{&quot;isPaintingLayer&quot;:true}" fill-rule="nonzero" stroke-linecap="butt" stroke-linejoin="miter" stroke-miterlimit="10" stroke-dasharray="" stroke-dashoffset="0" style="mix-blend-mode: normal"><path d="M103.53606,180c0,-75.36695 61.09699,-136.46394 136.46394,-136.46394c75.36695,0 136.46394,61.09699 136.46394,136.46394c0,75.36695 -61.09699,136.46394 -136.46394,136.46394c-75.36695,0 -136.46394,-61.09699 -136.46394,-136.46394z" fill="#2e2e2e" stroke="none" stroke-width="0"/><path d="M117.50481,180c0,-67.65223 54.84297,-122.49519 122.49519,-122.49519c67.65223,0 122.49519,54.84297 122.49519,122.49519c0,67.65223 -54.84297,122.49519 -122.49519,122.49519c-67.65223,0 -122.49519,-54.84297 -122.49519,-122.49519z" fill="#eeeeee" stroke="#c7d1d1" stroke-width="14"/><path d="M205.97356,180c0,-18.79229 15.23416,-34.02644 34.02644,-34.02644c18.79229,0 34.02644,15.23416 34.02644,34.02644c0,18.79229 -15.23416,34.02644 -34.02644,34.02644c-18.79229,0 -34.02644,-15.23416 -34.02644,-34.02644z" fill="#eeeeee" stroke="none" stroke-width="0"/><path d="M126.81731,180c0,-62.50907 50.67362,-113.18269 113.18269,-113.18269c62.50907,0 113.18269,50.67362 113.18269,113.18269c0,62.50907 -50.67362,113.18269 -113.18269,113.18269c-62.50907,0 -113.18269,-50.67362 -113.18269,-113.18269z" fill="none" stroke="#2e2e2e" stroke-width="7.5"/><text transform="matrix(5.42016 0 0 5.42016 174.78874 119.20894000000001)" font-size="40"  fill="#2e2e2e" fill-rule="nonzero" stroke="none" stroke-width="1" stroke-linecap="butt" stroke-linejoin="miter" stroke-miterlimit="10" stroke-dasharray="" stroke-dashoffset="0" font-family="&quot;ヒラギノ角ゴ Pro W3&quot;, &quot;Hiragino Kaku Gothic Pro&quot;, Osaka, &quot;メイリオ&quot;, Meiryo, &quot;ＭＳ Ｐゴシック&quot;, &quot;MS PGothic&quot;" font-weight="normal" text-anchor="start" style="mix-blend-mode: normal" >X</text></g></g></svg>