<svg version="1.1" width="27" height="27" viewBox="-1 -1 27 27" xmlns="http://www.w3.org/2000/svg" xmlns:xlink="http://www.w3.org/1999/xlink">
  <!-- Exported by Scratch - http://scratch.mit.edu/ -->
  <g id="ID0.2637553964741528" transform="matrix(1, 0, 0, 1, -230.5, -168)">
    <path id="ID0.8139557507820427" fill="none" stroke="#FF0000" stroke-width="1" d="M 243 169.250 C 246.311 169.250 249.311 170.595 251.483 172.767 C 253.655 174.939 255 177.939 255 181.250 C 255 184.561 253.655 187.561 251.483 189.733 C 249.311 191.905 246.311 193.250 243 193.250 C 239.689 193.250 236.689 191.905 234.517 189.733 C 232.345 187.561 231 184.561 231 181.250 C 231 177.939 232.345 174.939 234.517 172.767 C 236.689 170.595 239.689 169.250 243 169.250 Z "/>
    <path id="ID0.8138718972913921" fill="none" stroke="#FF0000" stroke-width="1" stroke-linecap="round" d="M 237 171.250 L 249.750 190.750 "/>
    <path id="ID0.39156605675816536" fill="none" stroke="#FF0000" stroke-width="1" stroke-linecap="round" d="M 252.750 174.250 L 234.500 188.750 "/>
  </g>
</svg>