<svg version="1.1" width="108" height="141" viewBox="-1 -1 108 141" xmlns="http://www.w3.org/2000/svg" xmlns:xlink="http://www.w3.org/1999/xlink">
  <!-- Exported by Scratch - http://scratch.mit.edu/ -->
  <g id="Back_Arm">
    <g id="Fill_4_">
      <path id="Finger2" fill="#B1C7FF" d="M 113.537 77.195 C 113.984 77.408 113.519 78.820 113.839 79.507 C 114.169 80.208 115.290 80.174 115.951 79.458 C 118.918 76.249 114.843 72.333 110.560 75.089 C 110.919 75.832 111.525 76.502 111.527 77.355 C 112.177 77.314 112.915 76.900 113.537 77.195 Z " transform="matrix(1, 0, 0, 1, -12, -5)"/>
      <path id="Finger1" fill="#B1C7FF" d="M 114.744 80.970 C 115.396 81.678 115.144 83.895 116.355 83.699 C 117.566 83.501 117.369 81.375 116.960 80.150 C 116.410 80.657 115.848 81.158 114.744 80.970 Z " transform="matrix(1, 0, 0, 1, -12, -5)"/>
      <path id="Hand_1_" fill="#B1C7FF" d="M 113.584 81.246 L 111.529 81.171 C 111.644 80.504 112.675 80.577 113.176 80.339 C 112.519 79.877 113.080 78.215 111.851 78.527 C 111.849 80.316 109.564 82.879 107.989 80.715 C 107.593 80.945 107.060 81.579 106.542 81.361 C 106.462 80.840 107.161 80.716 107.387 80.340 C 107.176 79.574 106.668 78.895 106.703 78.076 L 107.387 77.736 C 108.033 78.418 108.248 80.601 109.723 80.076 C 111.266 79.527 110.270 75.951 109.037 75.357 C 107.708 74.712 105.508 75.965 104.769 76.981 C 103.961 78.089 104.183 79.225 104.125 80.604 C 103.016 80.672 101.822 80.837 100.705 80.662 C 96.881 80.302 93.830 78.346 92.657 77.491 L 88.791 80.418 L 85.729 82.994 C 86.778 85.535 92.138 86.796 92.138 86.796 C 97.781 88.126 103.029 85.502 105.375 83.624 C 107.914 86.543 109.465 84.228 110.218 83.425 C 110.873 83.570 113.114 83.786 113.301 84.342 C 113.562 85.105 112.933 86.394 113.583 87.138 C 114.979 88.730 117.004 86.107 116.077 84.685 C 113.840 85.246 114.143 82.232 113.584 81.246 Z " transform="matrix(1, 0, 0, 1, -12, -5)"/>
      <path id="Elbow_1_" fill="#B1C7FF" d="M 94.864 73.862 C 94.548 73.235 94.145 72.647 93.828 72.019 C 92.297 72.315 90.994 73.401 89.693 74.208 L 82 77.750 C 82.435 79.883 84 81.931 84 81.931 L 88.524 78.425 L 94.864 73.862 Z " transform="matrix(1, 0, 0, 1, -12, -5)"/>
      <path id="Arm" fill="#B1C7FF" d="M 88.890 72.326 C 89.536 71.970 90.315 71.632 90.315 71.632 L 88.748 69.037 C 88.321 69.129 87.900 69.235 87.487 69.363 C 87.487 69.363 84.606 71.095 81.940 72.072 L 83.199 74.884 L 88.890 72.326 Z " transform="matrix(1, 0, 0, 1, -12, -5)"/>
      <path id="Shoulder_1_" fill="#B1C7FF" d="M 85.199 53.635 C 83.787 53.121 82.056 53.489 80.373 54.051 C 80.256 54.169 74.875 55 75 59.750 C 75.125 64.500 76.328 68.008 79.602 70.191 C 79.602 70.191 83.479 69.910 86.927 67.580 C 92.903 63.865 89.971 55.374 85.199 53.635 Z " transform="matrix(1, 0, 0, 1, -12, -5)"/>
    </g>
    <path id="Outline_7_" fill="#272525" d="M 109.600 74.450 C 108.182 73.192 106.454 74.453 105.090 75.093 C 103.264 75.949 103.370 77.516 103.158 79.171 C 102.598 79.667 101.484 79.371 100.706 79.464 C 100.706 79.464 95.449 77.829 94.075 76.578 L 96.293 75.151 C 96.293 75.151 96.633 74.198 96.293 73.319 C 95.824 72.053 95.214 70.595 94.725 70.427 C 94.108 70.217 92.791 70.971 91.815 71.173 C 91.055 70.201 90.916 68.971 90.280 67.944 C 94.550 63.930 92.014 52.886 85.835 51.499 C 83.877 51.060 81.515 51.270 79.610 52.157 C 79.608 52.155 79.602 52.150 79.602 52.150 C 72.578 54.803 73.250 57 73.614 63.540 C 73.978 70.080 78.845 72.714 78.845 72.714 C 79.260 72.747 79.754 72.684 80.285 72.567 L 81.271 75.750 L 79.602 76.500 C 79.602 76.500 80.875 82.141 83.625 85.133 L 84.736 84.003 C 85.269 84.826 87.149 87.188 91.498 88.168 C 95.938 89.630 102.467 87.517 104.943 85.542 C 106.886 87.391 109.062 86.680 110.402 84.604 C 111.019 84.610 111.554 84.909 112.131 85.057 C 111.744 86.542 111.424 88.709 113.580 89.059 C 115.733 89.408 117.508 87.907 117.241 84.339 C 118.830 83.221 118.666 80.733 117.608 78.938 C 120.027 76.910 117.382 69.520 109.600 74.450 Z M 115.951 79.459 C 115.290 80.175 114.169 80.209 113.839 79.508 C 113.520 78.820 113.985 77.408 113.537 77.196 C 112.915 76.901 112.177 77.315 111.527 77.356 C 111.525 76.503 110.920 75.834 110.560 75.090 C 114.843 72.334 118.918 76.250 115.951 79.459 Z M 79.602 70.191 C 76.328 68.008 75.125 64.500 75 59.750 C 74.875 55 80.256 54.169 80.373 54.051 C 82.057 53.489 83.787 53.121 85.199 53.635 C 89.970 55.374 92.903 63.865 86.927 67.580 C 83.479 69.910 79.602 70.191 79.602 70.191 Z M 87.486 69.363 C 87.899 69.236 88.320 69.130 88.747 69.037 L 90.314 71.632 C 90.314 71.632 89.536 71.970 88.889 72.326 L 83.198 74.884 L 81.939 72.072 C 84.605 71.095 87.486 69.363 87.486 69.363 Z M 84 81.931 C 84 81.931 82.435 79.883 82 77.750 L 89.693 74.208 C 90.994 73.401 92.297 72.315 93.828 72.019 C 94.145 72.646 94.548 73.234 94.864 73.862 L 88.524 78.425 L 84 81.931 Z M 113.584 87.137 C 112.934 86.393 113.563 85.104 113.302 84.341 C 113.115 83.785 110.874 83.569 110.219 83.424 C 109.466 84.227 107.915 86.542 105.376 83.623 C 103.029 85.501 97.781 88.125 92.139 86.795 C 92.139 86.795 86.779 85.534 85.730 82.993 L 88.792 80.417 L 92.658 77.490 C 93.831 78.344 96.882 80.301 100.706 80.661 C 101.823 80.837 103.017 80.672 104.126 80.603 C 104.184 79.224 103.962 78.088 104.770 76.980 C 105.508 75.964 107.708 74.711 109.038 75.356 C 110.270 75.950 111.267 79.526 109.724 80.075 C 108.249 80.600 108.034 78.417 107.388 77.735 L 106.704 78.075 C 106.669 78.893 107.177 79.573 107.388 80.339 C 107.162 80.716 106.463 80.839 106.543 81.360 C 107.062 81.579 107.594 80.945 107.990 80.714 C 109.565 82.877 111.850 80.315 111.852 78.526 C 113.081 78.214 112.520 79.876 113.177 80.338 C 112.676 80.576 111.645 80.503 111.530 81.170 L 113.585 81.245 C 114.144 82.231 113.841 85.245 116.079 84.683 C 117.005 86.105 114.980 88.729 113.584 87.137 Z M 116.355 83.699 C 115.144 83.894 115.396 81.678 114.744 80.970 C 115.848 81.158 116.410 80.658 116.961 80.151 C 117.369 81.375 117.566 83.501 116.355 83.699 Z " transform="matrix(1, 0, 0, 1, -12, -5)"/>
  </g>
  <g id="L_Leg" transform="matrix(1, 0, 0, 1, 20, -3.5)">
    <g id="Fill_5_">
      <path id="Shoe_1_" fill="#B1C7FF" d="M 46.501 121.669 C 45.071 119.781 43.664 117.582 40.621 117.333 C 39.402 123.743 39.429 134.600 40.686 138.634 C 44.180 136.001 47.833 130.065 47.506 126.040 C 49.960 126.604 53.028 126.694 55.525 126.426 C 55.182 125.242 54.833 123.994 54.521 122.843 C 51.839 122.768 49.011 122.498 46.501 121.669 Z " transform="matrix(0.7800626754760742, -0.6257014274597168, 0.6257014274597168, 0.7800626754760742, -69.05, 52.25)"/>
      <path id="Leg_1_" fill="#B1C7FF" d="M 61.164 118.693 C 63.001 120.760 64.589 123.015 66.406 125.101 C 72.619 122.488 75.782 116.261 76.807 110.220 C 75.903 108.282 73.303 107.962 71.416 108.082 C 69.790 108.186 66.742 109.332 66.323 110.898 C 66.848 113.377 63.471 118.421 61.164 118.693 Z " transform="matrix(0.7800626754760742, -0.6257014274597168, 0.6257014274597168, 0.7800626754760742, -69.05, 52.25)"/>
      <path id="Shoe_Sole_1_" fill="#B1C7FF" d="M 38.736 116.739 L 37.642 116.775 C 35.361 122.388 36.585 133.523 37.501 137.890 C 37.619 138.454 38.016 138.902 38.666 138.486 C 37.436 131.908 37.274 123.305 38.736 116.739 Z " transform="matrix(0.7800626754760742, -0.6257014274597168, 0.6257014274597168, 0.7800626754760742, -69.05, 52.25)"/>
      <path id="Knee_1_" fill="#B1C7FF" d="M 58.355 118.452 C 57.882 118.416 55.862 119.011 55.840 119.383 C 55.818 119.756 58.151 129.131 58.553 129.569 C 58.955 130.003 65.501 128.329 65.770 127.981 C 66.039 127.634 58.828 118.488 58.355 118.452 Z " transform="matrix(0.7800626754760742, -0.6257014274597168, 0.6257014274597168, 0.7800626754760742, -69.05, 52.25)"/>
    </g>
    <path id="Outline_9_" fill="#272525" d="M 80.116 109.600 C 79.324 108.953 77.794 108.752 76.939 109.403 C 76.901 109.674 76.853 109.948 76.807 110.221 C 75.782 116.262 72.619 122.489 66.406 125.102 C 64.589 123.016 63.001 120.761 61.164 118.694 C 63.471 118.422 66.848 113.378 66.324 110.900 C 66.269 110.638 66.183 110.396 66.035 110.201 C 65.360 110.188 63.729 109.492 63.706 110.347 C 63.649 112.496 63.837 115.445 59.546 117.029 C 59.210 116.873 58.818 116.286 58.518 116.310 C 58.217 116.333 53.458 117.461 53.458 118.456 C 53.458 118.674 53.693 119.683 54.045 121.049 C 50.593 120.539 47.377 120.174 45.120 117.150 C 44.320 116.084 41.281 113.736 36.072 115.316 C 34.070 120.816 33.902 133.993 36.231 140.254 C 37.661 140.750 38.868 140.409 40.356 140.004 C 46.020 138.465 48.407 132.949 49.572 128.082 C 51.590 128.082 53.858 128.431 56.080 128.301 C 56.628 130.103 57.090 131.459 57.247 131.561 C 57.728 131.873 68.413 128.956 68.576 128.481 C 68.739 128.009 67.940 126.891 67.940 126.891 C 75.306 123.917 78.869 116.632 80.116 109.600 Z M 47.506 126.040 C 47.833 130.064 44.180 136.001 40.686 138.634 C 39.429 134.600 39.402 123.743 40.621 117.333 C 43.664 117.582 45.071 119.781 46.501 121.669 C 49.011 122.498 51.839 122.768 54.521 122.843 C 54.833 123.994 55.182 125.242 55.525 126.426 C 53.028 126.694 49.960 126.604 47.506 126.040 Z M 37.501 137.891 C 36.585 133.524 35.361 122.389 37.642 116.776 L 38.736 116.740 C 37.274 123.305 37.436 131.909 38.666 138.487 C 38.016 138.902 37.619 138.455 37.501 137.891 Z M 58.553 129.568 C 58.151 129.130 55.818 119.756 55.840 119.382 C 55.862 119.010 57.882 118.415 58.355 118.451 C 58.828 118.487 66.039 127.633 65.770 127.979 C 65.501 128.328 58.955 130.002 58.553 129.568 Z " transform="matrix(0.7800626754760742, -0.6257014274597168, 0.6257014274597168, 0.7800626754760742, -69.05, 52.25)"/>
  </g>
  <g id="R_Leg" transform="matrix(1, 0, 0, 1, -8.5, 2.5)">
    <g id="Fill_2_">
      <path id="Shoe_Sole" fill="#B1C7FF" d="M 131.098 121.993 C 124.374 125.721 117.543 129.195 109.869 130.837 C 110.080 131.084 110.026 131.434 110.294 131.632 C 117.757 129.695 124.746 126.712 131.626 123.438 C 131.414 122.938 131.573 122.242 131.098 121.993 Z " transform="matrix(0.9242277145385742, 0.3818416893482208, -0.3818416893482208, 0.9242277145385742, 28.4, -32.15)"/>
      <path id="Shoe" fill="#B1C7FF" d="M 109.311 128.576 C 114.207 127.515 127.339 122.543 130.729 119.264 C 127.145 116.069 121.493 116.214 117.036 117.380 C 116.047 117.641 114.903 118.249 113.946 118.419 C 113 118.585 110.671 115.829 109.460 114.308 C 107.808 115.191 106.002 116.135 104.378 116.969 C 105.924 118.486 108.422 121.772 108.914 123.235 C 108.120 125.470 108.451 127.270 109.311 128.576 Z " transform="matrix(0.9242277145385742, 0.3818416893482208, -0.3818416893482208, 0.9242277145385742, 28.4, -32.15)"/>
      <path id="Knee" fill="#B1C7FF" d="M 112.091 110.566 C 110.979 109.228 110.293 107.687 109.184 106.294 C 105.740 109.385 101.899 112.677 98.789 115.906 C 99.213 116.252 99.714 116.652 100.234 117.174 C 103.833 114.990 108.229 112.406 112.091 110.566 Z " transform="matrix(0.9242277145385742, 0.3818416893482208, -0.3818416893482208, 0.9242277145385742, 28.4, -32.15)"/>
      <path id="Leg" fill="#B1C7FF" d="M 105.843 106.542 C 103.048 104.611 100.339 102.560 97.384 100.842 C 95.417 100.417 93.348 101.087 92.008 102.110 C 90.537 103.233 89.142 104.632 89.142 107.050 C 92.547 108.077 96.322 111.248 99.119 112.751 C 100.438 111.311 104.848 107.486 105.843 106.542 Z " transform="matrix(0.9242277145385742, 0.3818416893482208, -0.3818416893482208, 0.9242277145385742, 28.4, -32.15)"/>
    </g>
    <path id="Outline_8_" fill="#272525" d="M 114.209 116.281 C 112.827 115.709 112.088 114.408 111.032 113.461 C 113.213 112.275 114.843 111.336 114.896 111.165 C 115.060 110.641 110.033 103.423 109.546 103.314 C 109.064 103.205 108.021 104.335 107.273 104.853 C 104.628 102.556 101.794 100.912 98.749 99.140 C 97.889 99.230 97.159 99.781 96.949 100.578 C 97.097 100.661 97.237 100.756 97.384 100.841 C 100.339 102.559 103.048 104.611 105.843 106.541 C 104.848 107.485 100.438 111.310 99.118 112.750 C 96.321 111.247 92.547 108.076 89.141 107.049 C 88.494 106.853 87.858 106.727 87.246 106.713 C 86.741 107.130 85.782 107.130 85.554 107.808 C 90.255 109.171 93.613 111.711 97.322 114.741 C 96.999 115.132 96.568 115.566 96.172 116 L 99.384 119.413 C 99.570 119.382 101.040 118.666 103.004 117.670 C 104.125 119.130 106.295 121.625 106.600 123.916 C 105.408 128.389 107.528 131.761 109.871 134.016 C 113.624 133.453 132.236 125.770 134.644 123.436 C 134.148 114.995 120.680 112.491 114.209 116.281 Z M 104.377 116.969 C 106.001 116.135 107.807 115.191 109.459 114.308 C 110.670 115.829 112.999 118.585 113.945 118.419 C 114.902 118.249 116.046 117.641 117.035 117.380 C 121.492 116.214 127.144 116.068 130.728 119.264 C 127.338 122.543 114.207 127.516 109.310 128.576 C 108.451 127.269 108.120 125.470 108.913 123.234 C 108.421 121.771 105.923 118.485 104.377 116.969 Z M 98.789 115.906 C 101.898 112.677 105.739 109.385 109.184 106.294 C 110.293 107.688 110.979 109.229 112.091 110.566 C 108.229 112.406 103.833 114.990 100.235 117.173 C 99.714 116.652 99.213 116.252 98.789 115.906 Z M 110.293 131.632 C 110.025 131.434 110.079 131.084 109.868 130.837 C 117.543 129.195 124.374 125.721 131.097 121.993 C 131.573 122.242 131.413 122.937 131.624 123.437 C 124.745 126.712 117.756 129.695 110.293 131.632 Z " transform="matrix(0.9242277145385742, 0.3818416893482208, -0.3818416893482208, 0.9242277145385742, 28.4, -32.15)"/>
  </g>
  <g id="Torso">
    <path id="Waist" fill="#B1C7FF" d="M 97.163 98.001 C 95.047 94.923 91.441 91.441 89.189 88.648 L 86.460 85.174 L 86.463 85.171 C 84.199 86.284 81.241 87.438 78.439 87.800 C 74.463 88.873 65.086 88.760 61.395 88.046 C 60.227 90.933 60.366 97.353 60.366 97.353 C 60.630 100.683 60.935 105.665 61.164 108.980 C 68.576 108.433 77.956 108.394 84.787 107.700 C 89.654 104.969 92.350 101.180 97.163 98.001 Z " transform="matrix(1, 0, 0, 1, -12, -5)"/>
    <path id="Neck_Rim" fill="#B1C7FF" d="M 64.500 66.693 C 78.088 69.288 85.107 60.512 85.193 58.256 C 85.245 56.940 82.924 56.756 82.238 57.550 C 82.556 57.650 83.504 58.055 83.400 58.404 C 79.566 64.315 71.475 66.196 64.267 64.918 C 60.293 64.541 54.875 62.499 54.125 62.123 C 53.846 61.983 54.219 61.108 54.797 60.065 C 53.676 60.211 51.659 60.673 51.750 62.123 C 51.875 64.125 58.625 65.512 64.500 66.693 Z " transform="matrix(1, 0, 0, 1, -12, -5)"/>
    <path id="Chest1" fill="#B1C7FF" d="M 64.430 68.727 C 64.430 68.727 59.939 68.018 55.840 66.828 C 54.431 79.152 60.336 86.028 60.336 86.028 C 65.913 87.176 74.448 87.889 80.536 86.098 C 79.987 80.822 77.601 72.852 75.958 67.993 C 72.227 69.155 68.106 69.455 64.430 68.727 Z " transform="matrix(1, 0, 0, 1, -12, -5)"/>
    <path id="Chest2" fill="#B1C7FF" d="M 88.524 81.931 C 88.524 81.931 88.280 79.285 87.723 77.393 C 86.497 73.686 82.805 64.862 82.127 64.962 C 80.466 66.172 78.519 67.133 76.440 67.830 C 78.724 70.247 82.130 81.179 82.694 85.341 C 84.417 84.651 87.127 83.406 88.524 81.931 Z " transform="matrix(1, 0, 0, 1, -12, -5)"/>
    <path id="Neck" fill="#B1C7FF" d="M 79.376 60.093 C 79.840 59.797 80.324 59.428 80.486 58.901 C 78.425 57.244 76.466 55.480 74.555 53.672 C 74.548 53.666 74.547 53.664 74.544 53.662 C 66.332 48.500 60.795 54.039 60.795 54.039 C 60.146 54.860 59.588 55.741 59.068 56.641 L 58.652 57.365 L 56.748 60.693 C 57.248 61.261 64.119 63.055 64.119 63.055 C 69.093 63.804 75.275 62.723 79.376 60.093 Z " transform="matrix(1, 0, 0, 1, -12, -5)"/>
    <path id="Outline_4_" fill="#272525" d="M 90.462 87.555 L 88.198 84.255 C 89.376 83.584 90.157 83.030 90.279 82.833 C 90.374 82.681 90.340 82.182 90.240 81.532 C 90.211 81.414 90.189 81.282 90.176 81.136 C 90.034 80.332 89.821 79.379 89.624 78.556 C 88.818 75.603 87.401 71.584 87.124 70.806 C 86.750 69.818 86.377 68.867 86.026 68.009 C 85.989 67.876 85.946 67.744 85.918 67.610 C 85.327 66.199 84.855 64.737 84.036 63.422 C 85.548 62.116 87.765 59.926 86.848 57.457 C 85.792 54.615 81.434 55.529 81.184 56.986 C 80.645 56.689 80.149 56.279 79.670 55.869 C 79.662 55.862 79.654 55.861 79.647 55.854 C 79.629 55.837 79.612 55.821 79.594 55.805 C 79.341 55.588 75.419 52.659 75.419 52.659 C 75.419 52.659 65.662 46.033 59.265 53.309 C 58.735 54.296 58.038 55.197 57.325 56.082 C 57.333 56.083 57.340 56.086 57.348 56.088 L 57.347 56.089 L 57.325 56.082 C 57.325 56.082 57.166 56.311 56.924 56.670 L 56.922 56.673 C 56.642 57.088 56.250 57.678 55.840 58.326 L 55.840 58.326 C 52.680 57.402 49.875 59.250 49.250 62.742 C 49.007 64.099 51.248 65.304 54.075 66.271 C 54.075 66.271 51.378 76.918 59.189 88.271 C 58.647 89.919 57.873 92.796 57.813 97.076 C 57.752 101.358 57.882 107.189 58.518 111.564 C 60.561 111.345 62.770 111.159 65.060 110.988 C 69.456 110.662 74.152 110.399 78.563 110.108 C 80.788 109.962 82.939 109.807 84.942 109.634 C 85.911 109.127 86.980 108.481 88.090 107.755 C 91.647 105.430 95.630 102.281 98.152 100.217 C 99.705 98.946 100.706 98.085 100.706 98.085 C 97.792 94.956 93.796 90.534 90.462 87.555 Z M 87.724 77.393 C 88.281 79.286 88.525 81.931 88.525 81.931 C 87.128 83.407 84.418 84.652 82.696 85.341 C 82.133 81.179 78.726 70.247 76.442 67.830 C 78.520 67.134 80.467 66.172 82.129 64.962 C 82.806 64.862 86.498 73.686 87.724 77.393 Z M 58.654 57.365 L 59.070 56.641 C 59.590 55.741 60.148 54.860 60.797 54.039 C 60.797 54.039 66.334 48.500 74.546 53.662 C 74.549 53.664 74.550 53.666 74.557 53.672 C 76.468 55.480 78.427 57.244 80.488 58.901 C 80.326 59.428 79.842 59.797 79.378 60.093 C 75.277 62.723 69.095 63.804 64.123 63.055 C 64.123 63.055 57.252 61.261 56.752 60.693 L 58.654 57.365 Z M 51.750 62.124 C 51.659 60.674 53.677 60.212 54.797 60.066 C 54.219 61.108 53.845 61.983 54.125 62.124 C 54.875 62.500 60.293 64.542 64.267 64.919 C 71.475 66.197 79.566 64.316 83.400 58.405 C 83.504 58.056 82.556 57.651 82.238 57.551 C 82.925 56.757 85.245 56.941 85.193 58.257 C 85.107 60.512 78.088 69.288 64.500 66.694 C 58.625 65.512 51.875 64.125 51.750 62.124 Z M 55.840 66.827 C 59.939 68.017 64.430 68.726 64.430 68.726 C 68.106 69.454 72.227 69.155 75.958 67.992 C 77.602 72.851 79.987 80.821 80.536 86.097 C 74.448 87.888 65.912 87.175 60.336 86.027 C 60.336 86.027 54.431 79.151 55.840 66.827 Z M 84.787 107.700 C 77.956 108.394 68.576 108.433 61.164 108.980 C 60.935 105.665 60.630 100.683 60.366 97.353 C 60.366 97.353 60.226 90.933 61.395 88.046 C 65.087 88.760 74.464 88.873 78.439 87.800 C 81.242 87.438 84.200 86.284 86.463 85.171 L 86.460 85.174 L 89.189 88.648 C 91.441 91.441 95.046 94.922 97.163 98.001 C 92.350 101.180 89.654 104.969 84.787 107.700 Z " transform="matrix(1, 0, 0, 1, -12, -5)"/>
  </g>
  <g id="Head">
    <g id="Helmet_Plume">
      <path id="Fill" fill="#9400FF" d="M 52.455 7.384 C 46.766 9.490 47.035 15.681 43.562 16.177 C 40.090 16.673 37.062 14.683 33.557 15.382 C 26.458 16.798 23.943 21.269 24.134 26.312 C 24.301 30.757 28.546 33.640 27.469 35.652 C 26.392 37.663 19.224 37.027 16.775 42.210 C 15.171 45.605 19.841 47.989 20.216 49.811 C 20.379 50.603 20.101 52.134 18.680 52.692 C 17.125 53.252 15.277 52.522 14.215 51.726 C 15.793 53.369 18.688 56.587 22.836 54.952 C 27.327 53.101 22.302 47.994 26.382 47.102 C 28.640 46.609 32.657 48.917 34.483 48.145 C 37 47.080 33.574 41.354 37.024 39.799 C 40.050 38.434 42.516 41.695 46.076 40.048 C 48.582 38.888 49.813 35.651 50.472 34.795 C 50.935 33.945 51.606 32.599 52.076 31.196 C 52.165 30.415 52.342 29.721 52.582 29.084 C 52.584 29.067 52.588 29.049 52.590 29.032 C 52.775 27.363 54.847 24.689 56.696 22.560 C 56.558 21.070 55.959 18.530 53.484 18.102 C 51.755 18.344 50.572 19.435 49.683 20.807 C 49.328 22.365 48.818 25.443 49.477 28.312 C 49.569 28.576 49.650 28.876 49.720 29.196 C 49.723 29.207 49.726 29.218 49.729 29.229 L 49.727 29.228 C 50.085 30.900 50.084 33.149 49.144 34.211 C 46.110 37.638 41.676 33.608 38.345 35.403 C 36.591 36.347 36.581 37.600 35.910 39.079 C 35.665 38.494 35.874 37.450 36.016 36.844 C 36.404 35.197 38.627 33.141 40.463 33.018 C 44.919 32.720 49.059 36.135 48.335 28.336 C 48.331 28.318 47.928 26.728 47.771 24.925 C 47.408 25.862 47.075 26.694 46.701 27.253 C 44.007 31.282 40.572 21.998 35.854 24.952 C 29.519 28.919 36.289 36.028 33.354 39.179 C 31.453 41.218 22.946 37.666 22.506 45.037 C 18.823 36.617 31.161 38.439 32.632 36.944 C 34.103 35.449 28.990 28.212 32.891 24.361 C 34.081 23.185 36.507 22.049 38.278 22.328 C 39.721 22.556 42.245 25.163 44.174 24.960 C 46.103 24.756 46.589 17.288 52.281 16.771 C 52.928 16.712 54.010 16.895 54.815 17.284 L 54.816 17.283 C 54.816 17.283 57.470 18.201 57.800 21.315 C 58.711 20.310 59.423 19.565 59.588 19.337 L 59.589 19.337 C 60.402 18.202 61.455 16.838 61.611 15.977 C 62.370 11.815 56.953 5.719 52.455 7.384 Z " transform="matrix(1, 0, 0, 1, -12, -5)"/>
      <path id="Outline" fill="#272525" d="M 54.734 5.001 C 45.689 5.105 46.414 13.830 43.004 14.687 C 39.594 15.545 35.506 10.039 28.741 13.446 C 24.159 15.752 21.175 20.439 20.958 25.269 C 20.775 29.337 25.467 34.124 24.506 35.503 C 23.544 36.882 11.995 36.740 13.071 43.402 C 13.502 46.077 19.449 49.547 17.305 51.499 C 16.487 52.244 15.343 51.983 13.970 51.284 C 13.921 51.259 13.870 51.231 13.820 51.205 C 13.714 51.149 13.609 51.096 13.500 51.036 C 14.285 52.244 15.250 55.417 19.766 56.990 C 21.798 57.710 24.516 57.587 26.118 56.146 C 28.673 53.848 25.400 50.022 26.860 49.141 C 28.321 48.260 33.417 53.193 36.654 51.526 C 40.525 49.531 35.921 43.191 37.554 42.086 C 39.186 40.981 43.818 45.282 46.447 44.370 C 47.602 43.970 48.769 42.518 49.644 40.822 L 49.644 40.823 C 49.647 40.816 49.656 40.798 49.664 40.781 C 49.964 40.195 50.225 39.582 50.443 38.972 C 51.860 35.648 54.718 28.896 55.401 27.523 C 56.301 25.712 60.844 19.784 60.849 19.778 C 61.379 19.338 61.683 18.872 61.985 18.713 C 65.582 13.035 62.416 4.910 54.734 5.001 Z M 59.590 19.338 C 59.425 19.566 58.714 20.310 57.802 21.316 C 57.471 18.202 54.818 17.284 54.818 17.284 L 54.817 17.285 C 54.013 16.896 52.930 16.714 52.283 16.772 C 46.591 17.289 46.105 24.757 44.176 24.961 C 42.247 25.164 39.723 22.557 38.280 22.329 C 36.509 22.050 34.083 23.186 32.893 24.362 C 28.992 28.213 34.105 35.450 32.634 36.945 C 31.163 38.440 18.825 36.618 22.508 45.038 C 22.948 37.667 31.455 41.219 33.356 39.180 C 36.291 36.029 29.521 28.920 35.856 24.953 C 40.574 21.999 44.009 31.283 46.703 27.254 C 47.077 26.695 47.410 25.863 47.773 24.926 C 47.930 26.729 48.333 28.319 48.337 28.337 C 49.061 36.136 44.920 32.721 40.465 33.019 C 38.629 33.142 36.406 35.197 36.018 36.845 C 35.876 37.451 35.667 38.495 35.912 39.080 C 36.583 37.601 36.593 36.348 38.347 35.404 C 41.678 33.609 46.112 37.639 49.146 34.212 C 50.086 33.150 50.087 30.901 49.729 29.229 L 49.731 29.230 C 49.728 29.219 49.725 29.208 49.722 29.197 C 49.652 28.877 49.572 28.576 49.479 28.313 C 48.820 25.444 49.330 22.365 49.685 20.808 C 50.574 19.436 51.757 18.345 53.486 18.103 C 55.961 18.531 56.560 21.071 56.698 22.561 C 54.849 24.690 52.777 27.364 52.592 29.033 C 52.590 29.050 52.586 29.068 52.584 29.085 C 52.503 29.767 52.315 30.488 52.078 31.197 C 51.607 32.600 50.937 33.946 50.474 34.796 C 49.814 35.652 48.584 38.889 46.078 40.049 C 42.518 41.696 40.052 38.435 37.026 39.800 C 33.576 41.355 37.002 47.081 34.485 48.146 C 32.659 48.918 28.642 46.610 26.384 47.103 C 22.304 47.995 27.329 53.102 22.838 54.953 C 18.690 56.588 15.795 53.370 14.217 51.727 C 15.279 52.523 17.128 53.252 18.682 52.693 C 20.103 52.135 20.381 50.604 20.218 49.812 C 19.843 47.990 15.173 45.606 16.777 42.211 C 19.226 37.028 26.394 37.664 27.471 35.653 C 28.548 33.641 24.303 30.758 24.136 26.313 C 23.945 21.270 26.460 16.799 33.559 15.383 C 37.064 14.684 40.092 16.674 43.564 16.178 C 47.037 15.682 46.768 9.491 52.457 7.385 C 56.955 5.720 62.372 11.816 61.616 15.980 C 61.460 16.841 60.407 18.205 59.594 19.340 L 59.590 19.338 Z " transform="matrix(1, 0, 0, 1, -12, -5)"/>
    </g>
    <g id="Helmet">
      <path id="Fill_1_" fill="#B1C7FF" d="M 64.765 40.023 C 64.344 39.680 59.220 28.411 59.894 28.002 C 61.917 26.772 73.129 27.991 75.775 28.499 C 72.546 25.857 68.135 22.107 63.494 22.537 C 62.078 22.667 60.624 23.236 59.288 24.066 C 58.859 23.268 58.257 22.553 57.658 21.852 C 57.669 21.845 57.681 21.836 57.692 21.829 C 57.097 20.835 56.720 19.901 56.038 19.780 C 55.357 19.659 51.018 23.493 50.943 24.189 C 50.885 24.727 51.588 25.249 52.297 25.717 C 52.414 25.879 52.564 26.022 52.743 26.131 C 53.244 26.437 53.720 26.783 54.191 27.133 C 54.254 27.180 54.318 27.228 54.381 27.277 C 54.394 27.287 54.575 27.427 54.614 27.458 C 54.725 27.545 54.837 27.633 54.940 27.730 C 55.033 27.818 55.136 27.888 55.243 27.949 C 54.865 28.524 54.555 29.111 54.337 29.692 C 51.333 37.711 56.727 45.022 61.801 51.004 C 65.185 50.960 68.603 51.217 71.966 50.755 C 72.708 48.772 79.058 38.932 81.390 36.100 C 79.541 36.252 68.579 39.426 64.765 40.023 Z " transform="matrix(1, 0, 0, 1, -12, -5)"/>
      <path id="Face" fill="#A48458" d="M 66.140 37.540 C 68.201 37.130 73.194 35.306 77.586 34.311 L 76.046 29.694 C 72.093 29.700 64.669 29.721 62.328 29.791 C 62.895 31.855 65.832 37.601 66.140 37.540 Z " transform="matrix(1, 0, 0, 1, -12, -5)"/>
      <path id="Outline_1_" fill="#272525" d="M 77.586 34.311 C 73.194 35.306 68.201 37.131 66.140 37.540 C 65.832 37.601 62.895 31.855 62.328 29.790 C 64.669 29.721 72.093 29.700 76.046 29.693 C 77.571 29.691 78.581 29.691 78.581 29.691 C 73.279 22.372 69.103 19.875 59.788 21.344 C 58.979 19.782 56.506 16.923 56.505 16.916 C 53.381 19.098 49.756 21.326 48.352 24.915 C 49.250 26.331 50.863 27.090 52.058 28.243 C 47.708 37.238 54.298 45.331 59.620 52.358 C 60.246 52.750 60.972 53.121 61.710 53.261 C 65.156 52.918 70.505 52.536 73.765 52.939 C 73.775 52.949 73.786 52.959 73.797 52.969 C 74.122 52.628 74.434 52.275 74.738 51.917 C 77.076 46.341 84.842 35.145 84.828 34.312 C 83.629 33.301 80.765 33.590 77.586 34.311 Z M 50.943 24.188 C 51.018 23.492 55.357 19.658 56.038 19.779 C 56.720 19.900 57.097 20.834 57.692 21.828 C 56.210 22.822 54.017 24.623 52.906 26.114 C 52.067 25.554 50.868 24.884 50.943 24.188 Z M 61.800 51.003 C 56.726 45.021 51.332 37.710 54.336 29.691 C 55.576 26.379 59.689 22.888 63.494 22.537 C 68.136 22.107 72.547 25.857 75.775 28.499 C 73.129 27.991 61.917 26.772 59.894 28.002 C 59.220 28.411 64.344 39.680 64.765 40.023 C 66.820 39.701 70.944 38.633 74.605 37.691 C 73.326 40.504 71.337 47.502 70.542 50.906 C 67.640 51.146 64.708 50.965 61.800 51.003 Z M 71.965 50.754 C 71.614 50.802 71.262 50.838 70.909 50.872 C 72.311 47.960 75.588 40.947 76.492 37.207 C 78.811 36.617 80.713 36.155 81.388 36.099 C 79.057 38.931 72.707 48.771 71.965 50.754 Z " transform="matrix(1, 0, 0, 1, -12, -5)"/>
    </g>
    <g id="R_Eye">
      <path id="White_1_" fill="#FFFFFF" d="M 75.585 30.623 C 74.802 30.786 74.614 31.695 74.781 32.311 C 75.172 33.746 75.920 34.304 76.527 34.259 C 77.349 34.199 77.949 33.054 77.207 31.774 C 76.837 31.135 76.367 30.459 75.585 30.623 Z " transform="matrix(1, 0, 0, 1, -12, -5)"/>
      <path id="Pupil_1_" fill="#272525" d="M 77.057 31.580 C 77.310 31.580 77.540 31.677 77.706 31.833 C 77.872 31.989 77.975 32.204 77.975 32.442 C 77.975 32.680 77.872 32.895 77.706 33.051 C 77.540 33.207 77.310 33.304 77.057 33.304 C 76.804 33.304 76.574 33.207 76.408 33.051 C 76.242 32.895 76.139 32.680 76.139 32.442 C 76.139 32.204 76.242 31.989 76.408 31.833 C 76.574 31.677 76.804 31.580 77.057 31.580 Z " transform="matrix(1, 0, 0, 1, -12, -5)"/>
      <path id="Outline_3_" fill="#272525" d="M 78.359 32.328 C 78.213 31.276 77.521 29.589 76.597 29.344 C 74.358 28.749 73.242 30.603 73.724 32.363 C 74.127 33.837 75.372 35.284 76.938 34.980 C 78.116 34.752 78.523 33.531 78.359 32.328 Z M 76.527 34.259 C 75.920 34.304 75.172 33.746 74.781 32.311 C 74.614 31.695 74.802 30.786 75.585 30.623 C 76.367 30.459 76.837 31.135 77.207 31.774 C 77.949 33.054 77.350 34.199 76.527 34.259 Z " transform="matrix(1, 0, 0, 1, -12, -5)"/>
    </g>
    <g id="L_Eye">
      <path id="White" fill="#FFFFFF" d="M 68.600 31.306 C 67.675 31.498 67.451 32.568 67.650 33.294 C 68.112 34.984 68.996 35.642 69.716 35.588 C 70.685 35.516 71.393 34.169 70.517 32.661 C 70.081 31.907 69.524 31.113 68.600 31.306 Z " transform="matrix(1, 0, 0, 1, -12, -5)"/>
      <path id="Pupil" fill="#272525" d="M 70.398 32.011 C 70.745 32.011 71.059 32.143 71.287 32.357 C 71.514 32.571 71.655 32.866 71.655 33.192 C 71.655 33.518 71.514 33.813 71.287 34.027 C 71.059 34.241 70.745 34.373 70.398 34.373 C 70.051 34.373 69.737 34.241 69.509 34.027 C 69.282 33.813 69.141 33.518 69.141 33.192 C 69.141 32.866 69.282 32.571 69.509 32.357 C 69.737 32.143 70.051 32.011 70.398 32.011 Z " transform="matrix(1, 0, 0, 1, -12, -5)"/>
      <path id="Outline_2_" fill="#272525" d="M 71.878 33.314 C 71.709 32.073 70.886 30.088 69.796 29.798 C 67.150 29.099 65.829 31.283 66.398 33.355 C 66.875 35.091 68.345 36.795 70.197 36.439 C 71.590 36.170 72.072 34.730 71.878 33.314 Z M 69.716 35.588 C 68.996 35.642 68.112 34.984 67.650 33.294 C 67.451 32.568 67.675 31.498 68.600 31.306 C 69.524 31.113 70.081 31.907 70.517 32.661 C 71.393 34.169 70.685 35.516 69.716 35.588 Z " transform="matrix(1, 0, 0, 1, -12, -5)"/>
    </g>
  </g>
  <g id="Front_Arm">
    <g id="Fill_3_">
      <path id="Hand" fill="#B1C7FF" d="M 72.648 101.126 C 73.236 100.660 74.306 101.922 75.381 101.740 C 78.014 101.494 78.268 97.909 77.500 97.076 C 76.732 96.243 75.333 97.167 75 98.334 C 74.667 99.501 72.667 98.250 71.917 97.584 C 71.167 96.918 71.500 95.834 72.584 95.334 C 73.668 94.834 72.250 92.667 71 92.500 C 69.750 92.333 69.432 94.040 69.432 94.040 C 69.248 94.721 69.511 95.518 68.946 96.062 C 68.696 96.084 68.450 96.083 68.208 96.066 C 68.128 96.061 68.051 96.045 67.972 96.035 C 67.810 96.015 67.649 95.994 67.491 95.959 C 67.401 95.938 67.313 95.910 67.224 95.885 C 67.080 95.844 66.936 95.801 66.795 95.748 C 66.704 95.714 66.615 95.675 66.526 95.637 C 66.389 95.577 66.254 95.514 66.119 95.444 C 66.033 95.399 65.946 95.352 65.861 95.302 C 65.727 95.225 65.594 95.142 65.463 95.055 C 65.383 95.002 65.303 94.950 65.224 94.894 C 65.086 94.795 64.952 94.692 64.817 94.584 C 64.749 94.529 64.680 94.478 64.613 94.422 C 64.460 94.293 64.310 94.157 64.161 94.020 C 64.116 93.978 64.070 93.939 64.026 93.897 C 63.637 93.524 63.265 93.124 62.910 92.708 C 62.863 92.653 62.819 92.598 62.772 92.543 C 62.643 92.388 62.515 92.233 62.390 92.077 C 62.334 92.007 62.281 91.936 62.226 91.866 C 62.114 91.722 62.003 91.579 61.894 91.434 C 61.838 91.360 61.784 91.286 61.729 91.212 C 61.622 91.066 61.518 90.924 61.415 90.780 C 61.365 90.711 61.315 90.641 61.266 90.572 C 61.157 90.419 61.051 90.268 60.946 90.118 C 60.908 90.064 60.870 90.011 60.833 89.957 C 60.682 89.739 60.535 89.527 60.394 89.323 C 60.142 88.958 59.904 88.615 59.684 88.312 C 58.408 90.013 56.761 91.445 55.607 93.230 C 55.916 93.421 56.291 93.674 56.711 93.958 L 56.711 93.958 C 56.802 94.020 56.900 94.085 56.996 94.150 C 57.119 94.232 57.247 94.318 57.376 94.404 C 57.430 94.440 57.483 94.475 57.539 94.512 C 57.717 94.629 57.899 94.749 58.088 94.870 C 58.091 94.872 58.093 94.874 58.096 94.876 C 58.293 95.002 58.497 95.131 58.706 95.260 C 58.735 95.278 58.766 95.295 58.795 95.314 C 58.969 95.419 59.146 95.526 59.327 95.632 C 59.384 95.665 59.443 95.697 59.500 95.731 C 59.659 95.822 59.819 95.913 59.983 96.002 C 60.050 96.039 60.118 96.075 60.186 96.111 C 60.349 96.198 60.515 96.283 60.682 96.367 C 60.748 96.399 60.813 96.433 60.880 96.466 C 61.074 96.560 61.271 96.651 61.470 96.739 C 61.510 96.757 61.549 96.776 61.590 96.794 C 61.834 96.900 62.082 97.001 62.332 97.096 C 62.357 97.106 62.384 97.114 62.409 97.123 C 62.626 97.204 62.845 97.279 63.065 97.349 C 63.141 97.372 63.217 97.394 63.293 97.416 C 63.466 97.467 63.640 97.515 63.815 97.558 C 63.905 97.580 63.995 97.601 64.086 97.620 C 64.252 97.657 64.419 97.689 64.586 97.718 C 64.678 97.734 64.770 97.749 64.863 97.763 C 65.039 97.787 65.216 97.805 65.392 97.820 C 65.473 97.827 65.554 97.837 65.636 97.841 C 65.893 97.855 66.150 97.860 66.407 97.850 C 66.555 99.932 67.787 104.317 69.076 104.170 C 70.363 104.018 69.399 102.505 69.693 102.234 C 70.678 101.337 72.199 104.215 73.659 102.867 C 73.658 102.867 72.009 101.635 72.648 101.126 Z " transform="matrix(1, 0, 0, 1, -12, -5)"/>
      <path id="Elbow" fill="#B1C7FF" d="M 53.501 91.610 C 55.189 89.611 57.003 87.631 58.915 85.743 L 58.915 85.743 C 59.585 85.081 60.263 84.427 60.952 83.791 C 60.900 83.245 60.529 82.848 60.318 82.350 C 59.377 82.842 58.423 83.299 57.463 83.743 C 54.778 84.983 52.031 86.065 49.270 87.127 L 49.270 87.127 C 48.629 87.373 47.989 87.620 47.348 87.866 C 48.514 89.905 50.367 91.444 52.431 92.884 C 52.775 92.458 53.143 92.035 53.501 91.610 L 53.501 91.610 Z " transform="matrix(1, 0, 0, 1, -12, -5)"/>
      <path id="Arm_1_" fill="#B1C7FF" d="M 55.712 78.425 C 53.171 78.876 50.418 79.272 47.877 79.272 C 47.857 80.050 47.936 80.807 48.047 81.551 C 48.047 81.552 48.047 81.552 48.047 81.552 C 48.167 82.355 48.331 83.137 48.531 83.889 C 48.644 84.312 48.761 84.729 48.881 85.133 C 49.850 84.618 56.304 81.654 56.304 81.654 L 55.712 78.425 Z " transform="matrix(1, 0, 0, 1, -12, -5)"/>
      <path id="Shoulder" fill="#B1C7FF" d="M 47.653 77.210 C 50.838 77.163 53.997 76.744 57.142 76.289 C 58.531 73.586 59.864 70.979 61.058 68.192 C 61.671 66.762 60.919 65.178 60.158 63.869 C 58.757 61.458 55.644 60.413 52.906 60.690 C 44.855 61.506 42.896 71.630 46.606 77.232 C 46.956 77.237 47.304 77.216 47.653 77.210 L 47.653 77.210 Z " transform="matrix(1, 0, 0, 1, -12, -5)"/>
    </g>
    <path id="Outline_6_" fill="#272525" d="M 78.846 96.334 C 76.250 92.917 74.950 96.359 74.517 96.555 C 74.084 96.751 73 96.917 73.250 96.417 C 73.500 95.917 75.750 93.977 73.583 92.488 C 71.416 91 68.461 89.767 67.730 92.509 C 67.651 92.890 67.680 93.309 67.517 93.675 C 64.672 91.845 62.605 88.908 61.958 85.729 L 64.128 83.690 C 63.282 82.450 62.470 81.184 61.587 79.963 C 60.503 80.068 59.616 80.699 58.623 81.057 C 58.258 80.266 58.511 79.386 58.252 78.576 C 58.896 78.650 61.100 74.374 62.734 71.110 C 62.734 71.110 65.096 65.876 62.956 62.545 C 61.841 60.810 61.196 59.420 58.450 57.833 C 56.766 57.149 56.936 57.078 55.326 57.107 C 50.340 57.256 45.586 59.524 43.161 63.764 C 40.820 67.856 41.200 72.994 43.235 77.127 C 43.384 77.431 44.054 78.737 44.272 78.917 C 44.556 79.149 45.038 78.917 45.438 79.165 C 45.755 81.453 46.173 83.487 46.972 85.921 C 46.972 85.921 44.718 86.781 44.272 87.512 C 43.826 88.248 48.672 95.390 52.054 96.654 C 53.505 97.198 53.078 95.547 54.171 95.118 C 57.371 97.792 61.261 98.167 64.971 99.639 C 65.415 102.002 66.855 106.619 70.318 105.598 C 71.445 105.268 70.971 104.346 72.224 104.659 C 73.991 105.098 74.660 104.692 75.932 103.714 C 76.131 103.561 76.325 103.474 76.514 103.438 C 76.516 103.435 81.441 99.751 78.846 96.334 Z M 46.606 77.232 C 42.896 71.629 44.855 61.505 52.906 60.690 C 55.644 60.413 58.757 61.458 60.158 63.869 C 60.919 65.178 61.671 66.762 61.058 68.192 C 59.864 70.979 58.531 73.586 57.142 76.289 C 53.996 76.744 50.838 77.163 47.653 77.210 C 47.304 77.216 46.956 77.237 46.606 77.232 Z M 48.882 85.133 C 48.762 84.729 48.645 84.312 48.532 83.889 C 48.331 83.138 48.168 82.354 48.048 81.551 C 47.936 80.807 47.858 80.050 47.878 79.272 C 50.419 79.272 53.172 78.876 55.713 78.425 L 56.306 81.654 C 56.305 81.654 49.851 84.618 48.882 85.133 Z M 52.430 92.883 C 50.366 91.444 48.513 89.904 47.347 87.865 C 47.988 87.619 48.629 87.372 49.269 87.126 C 52.030 86.064 54.778 84.982 57.462 83.742 C 58.421 83.299 59.376 82.842 60.317 82.349 C 60.528 82.847 60.899 83.245 60.951 83.790 C 60.262 84.426 59.584 85.080 58.914 85.742 C 57.002 87.630 55.187 89.610 53.500 91.609 C 53.143 92.035 52.775 92.458 52.430 92.883 Z M 69.692 102.234 C 69.398 102.505 70.362 104.017 69.075 104.170 C 67.786 104.316 66.554 99.932 66.406 97.850 C 66.149 97.860 65.891 97.855 65.635 97.841 C 65.553 97.836 65.472 97.826 65.391 97.820 C 65.214 97.805 65.037 97.788 64.862 97.763 C 64.769 97.749 64.677 97.734 64.585 97.718 C 64.418 97.690 64.252 97.657 64.085 97.620 C 63.995 97.600 63.904 97.580 63.814 97.558 C 63.639 97.515 63.465 97.467 63.292 97.416 C 63.216 97.394 63.140 97.373 63.064 97.349 C 62.844 97.280 62.625 97.204 62.408 97.123 C 62.382 97.113 62.356 97.105 62.331 97.096 C 62.081 97.001 61.833 96.901 61.589 96.794 C 61.548 96.776 61.509 96.757 61.469 96.739 C 61.270 96.650 61.073 96.559 60.879 96.466 C 60.813 96.433 60.748 96.400 60.681 96.367 C 60.514 96.283 60.348 96.198 60.185 96.111 C 60.117 96.075 60.049 96.039 59.982 96.002 C 59.818 95.913 59.658 95.822 59.499 95.731 C 59.441 95.698 59.383 95.666 59.326 95.632 C 59.145 95.526 58.968 95.419 58.794 95.314 C 58.765 95.295 58.734 95.278 58.705 95.260 C 58.496 95.131 58.292 95.002 58.095 94.876 C 58.092 94.874 58.090 94.872 58.087 94.870 C 57.898 94.749 57.715 94.629 57.538 94.512 C 57.482 94.475 57.430 94.440 57.375 94.404 C 57.246 94.318 57.117 94.232 56.995 94.150 C 56.896 94.083 56.804 94.021 56.710 93.958 C 56.290 93.675 55.915 93.422 55.606 93.230 C 56.760 91.445 58.407 90.013 59.683 88.312 C 59.903 88.615 60.141 88.958 60.393 89.323 C 60.535 89.527 60.681 89.738 60.832 89.957 C 60.869 90.011 60.907 90.064 60.945 90.118 C 61.049 90.267 61.156 90.420 61.265 90.572 C 61.314 90.641 61.364 90.711 61.414 90.780 C 61.517 90.924 61.622 91.067 61.728 91.212 C 61.783 91.285 61.837 91.359 61.893 91.434 C 62.001 91.578 62.112 91.722 62.225 91.866 C 62.280 91.936 62.333 92.007 62.389 92.077 C 62.514 92.233 62.642 92.389 62.771 92.543 C 62.817 92.598 62.862 92.653 62.909 92.708 C 63.264 93.124 63.637 93.524 64.025 93.897 C 64.069 93.939 64.115 93.978 64.160 94.020 C 64.308 94.158 64.458 94.293 64.612 94.422 C 64.679 94.478 64.748 94.529 64.816 94.584 C 64.950 94.691 65.086 94.795 65.223 94.894 C 65.302 94.950 65.382 95.002 65.462 95.055 C 65.593 95.142 65.726 95.225 65.860 95.302 C 65.945 95.352 66.032 95.399 66.118 95.444 C 66.252 95.514 66.388 95.578 66.525 95.637 C 66.614 95.675 66.703 95.714 66.794 95.748 C 66.935 95.801 67.079 95.844 67.223 95.885 C 67.312 95.910 67.400 95.939 67.490 95.959 C 67.648 95.994 67.810 96.016 67.971 96.035 C 68.050 96.045 68.127 96.061 68.207 96.066 C 68.450 96.084 68.695 96.085 68.945 96.062 C 69.509 95.517 69.247 94.720 69.431 94.040 C 69.431 94.040 69.749 92.333 70.999 92.500 C 72.249 92.667 73.666 94.834 72.582 95.334 C 71.498 95.834 71.165 96.918 71.915 97.584 C 72.665 98.250 74.665 99.501 74.998 98.334 C 75.331 97.167 76.729 96.243 77.498 97.076 C 78.267 97.909 78.013 101.494 75.379 101.740 C 74.303 101.922 73.233 100.660 72.646 101.126 C 72.007 101.635 73.656 102.867 73.656 102.867 C 72.198 104.216 70.677 101.337 69.692 102.234 Z " transform="matrix(1, 0, 0, 1, -12, -5)"/>
  </g>
  <g id="Sword">
    <path id="Handle" fill="#FFC900" d="M 75.031 93.861 C 75.494 94.298 75.771 94.951 76.021 94.855 C 84.001 91.834 100.707 79.392 104.788 73.409 C 93.162 77.158 81.812 83.062 75.031 93.861 Z " transform="matrix(1, 0, 0, 1, -12, -5)"/>
    <path id="Blade" fill="#FFC900" d="M 98.043 76.627 C 95.064 79.606 90.983 82.335 87.463 84.568 C 83.402 87.144 79.836 90.446 75.811 92.985 C 75.523 92.645 75.230 92.310 74.957 91.960 C 74.866 91.843 74.766 91.761 74.662 91.704 C 74.663 91.699 74.664 91.693 74.664 91.687 C 73.394 89.970 72.291 84.868 69.057 85.577 C 65.562 86.346 69.861 93.099 70.962 94.035 C 71.603 94.580 72.210 95.242 72.798 95.970 C 73.099 96.436 73.422 96.885 73.799 97.289 C 75.982 100.305 77.999 101.870 80.651 103.214 C 81.358 103.574 82.196 103.166 82.768 102.766 C 84.114 100.446 78.065 95.605 77.774 95.373 C 77.557 95.084 77.317 94.812 77.087 94.534 C 81.030 91.980 84.318 88.643 88.473 86.295 C 92.158 84.213 96.511 80.988 99.457 78.041 C 100.370 77.128 98.956 75.714 98.043 76.627 Z " transform="matrix(1, 0, 0, 1, -12, -5)"/>
    <path id="Outline_5_" fill="#272525" d="M 97.844 73.772 C 97.269 74.034 96.157 74.591 95.246 74.823 C 95.249 74.832 95.254 74.841 95.256 74.850 C 93.834 75.607 92.330 76.212 90.890 76.971 C 89.929 77.485 89.001 78.054 88.078 78.633 C 88.087 78.677 88.104 78.738 88.109 78.774 C 83.500 81.805 79.566 85.684 76.200 89.900 C 75.016 88.008 72.205 83.294 69.952 82.597 C 68.635 82.191 65.969 83.493 65.400 84.631 C 64.378 86.681 66.159 89.577 67.597 91.350 C 68.666 92.727 74.814 100.605 77.987 103.886 C 78.030 103.958 78.079 104.029 78.121 104.101 C 78.341 104.285 78.562 104.480 78.786 104.670 C 78.806 104.689 78.827 104.709 78.847 104.727 L 78.844 104.718 C 79.282 105.087 79.734 105.416 80.224 105.500 C 81.668 105.746 83.767 105.229 84.564 103.959 C 86.810 100.383 81.543 96.839 79.482 94.521 C 89.492 89.750 99.691 82.338 106.797 74.156 C 107.525 73.315 108.954 71.907 109.069 70.825 C 105.432 71.015 100.680 72.672 97.844 73.772 Z M 82.768 102.766 C 82.196 103.166 81.358 103.575 80.651 103.214 C 76.907 101.317 73.455 96.216 70.667 92.417 C 69.812 91.252 65.563 86.346 69.058 85.577 C 72.292 84.868 73.395 89.971 74.665 91.687 C 74.681 92.417 73.636 93.090 73.500 93.922 L 75.937 96.060 L 77.748 95.351 C 77.746 95.352 84.146 100.389 82.768 102.766 Z M 76.021 94.855 C 75.880 94.909 75.730 94.723 75.543 94.474 C 78.961 92.152 96.645 80.077 98.539 77.580 C 97.789 76.940 79.418 91.090 75.493 94.408 C 75.360 94.230 75.209 94.029 75.030 93.860 C 81.811 83.061 93.161 77.157 104.787 73.408 C 100.707 79.393 84.002 91.835 76.021 94.855 Z " transform="matrix(1, 0, 0, 1, -12, -5)"/>
  </g>
</svg>