<svg version="1.1" xmlns="http://www.w3.org/2000/svg" xmlns:xlink="http://www.w3.org/1999/xlink" width="87.29038" height="207.0618" viewBox="0,0,87.29038,207.0618"><defs><linearGradient x1="268.51491" y1="208.5309" x2="268.51491" y2="227.5309" gradientUnits="userSpaceOnUse" id="color-1"><stop offset="0" stop-color="#ffe4ba"/><stop offset="1" stop-color="#ddb980"/></linearGradient><linearGradient x1="214.84825" y1="170.19757" x2="214.84825" y2="211.19757" gradientUnits="userSpaceOnUse" id="color-2"><stop offset="0" stop-color="#00ffff"/><stop offset="1" stop-color="#00a1ab"/></linearGradient><linearGradient x1="215.01491" y1="205.36424" x2="215.01491" y2="224.36424" gradientUnits="userSpaceOnUse" id="color-3"><stop offset="0" stop-color="#ffe4ba"/><stop offset="1" stop-color="#ddb980"/></linearGradient><linearGradient x1="231.84825" y1="223.86424" x2="231.84825" y2="272.5309" gradientUnits="userSpaceOnUse" id="color-4"><stop offset="0" stop-color="#213fff"/><stop offset="1" stop-color="#003580"/></linearGradient><linearGradient x1="251.18158" y1="224.19757" x2="251.18158" y2="272.86424" gradientUnits="userSpaceOnUse" id="color-5"><stop offset="0" stop-color="#213fff"/><stop offset="1" stop-color="#003580"/></linearGradient><linearGradient x1="241.37361" y1="165.28772" x2="241.37361" y2="231.20642" gradientUnits="userSpaceOnUse" id="color-6"><stop offset="0" stop-color="#00ffff"/><stop offset="1" stop-color="#00a1ab"/></linearGradient><linearGradient x1="241.36387" y1="95.21574" x2="241.36387" y2="173.1794" gradientUnits="userSpaceOnUse" id="color-7"><stop offset="0" stop-color="#ffe4ba"/><stop offset="1" stop-color="#ddb980"/></linearGradient><linearGradient x1="239.84062" y1="77.4691" x2="239.84062" y2="119.49912" gradientUnits="userSpaceOnUse" id="color-8"><stop offset="0" stop-color="#00ffff"/><stop offset="1" stop-color="#00a1ab"/></linearGradient><linearGradient x1="240.38812" y1="97.17902" x2="240.38812" y2="104.62498" gradientUnits="userSpaceOnUse" id="color-9"><stop offset="0" stop-color="#00ffff"/><stop offset="1" stop-color="#00a1ab"/></linearGradient><linearGradient x1="230.84825" y1="265.86424" x2="230.84825" y2="281.5309" gradientUnits="userSpaceOnUse" id="color-10"><stop offset="0" stop-color="#00e6ff"/><stop offset="1" stop-color="#0095c3"/></linearGradient><linearGradient x1="254.51491" y1="266.86424" x2="254.51491" y2="282.5309" gradientUnits="userSpaceOnUse" id="color-11"><stop offset="0" stop-color="#00e6ff"/><stop offset="1" stop-color="#0095c3"/></linearGradient><linearGradient x1="267.51491" y1="171.5309" x2="267.51491" y2="212.5309" gradientUnits="userSpaceOnUse" id="color-12"><stop offset="0" stop-color="#00ffff"/><stop offset="1" stop-color="#00a1ab"/></linearGradient><linearGradient x1="214.02272" y1="205.11424" x2="214.02272" y2="211.2809" gradientUnits="userSpaceOnUse" id="color-13"><stop offset="0" stop-color="#00ffff"/><stop offset="1" stop-color="#00a1ab"/></linearGradient><linearGradient x1="268.35606" y1="208.44757" x2="268.35606" y2="214.61424" gradientUnits="userSpaceOnUse" id="color-14"><stop offset="0" stop-color="#00ffff"/><stop offset="1" stop-color="#00a1ab"/></linearGradient></defs><g transform="translate(-196.35481,-76.4691)"><g data-paper-data="{&quot;isPaintingLayer&quot;:true}" fill-rule="nonzero" stroke-linejoin="miter" stroke-miterlimit="10" stroke-dasharray="" stroke-dashoffset="0" style="mix-blend-mode: normal"><path d="M268.51491,227.5309c-5.6149,0 -10.16667,-4.25329 -10.16667,-9.5c0,-5.2467 4.55178,-9.5 10.16667,-9.5c5.61489,0 10.16667,4.2533 10.16667,9.5c0,5.24671 -4.55178,9.5 -10.16667,9.5z" fill="url(#color-1)" stroke="#000000" stroke-width="2" stroke-linecap="butt"/><path d="M208.51491,211.19757v-41h12.66667v41z" fill="url(#color-2)" stroke="#000000" stroke-width="2" stroke-linecap="butt"/><path d="M215.01491,224.36424c-5.6149,0 -10.16667,-4.25329 -10.16667,-9.5c0,-5.24671 4.55178,-9.5 10.16667,-9.5c5.6149,0 10.16667,4.25329 10.16667,9.5c0,5.24671 -4.55178,9.5 -10.16667,9.5z" fill="url(#color-3)" stroke="#000000" stroke-width="2" stroke-linecap="butt"/><path d="M223.18158,272.5309v-48.66667h17.33334v48.66667z" fill="url(#color-4)" stroke="#000000" stroke-width="2" stroke-linecap="butt"/><path d="M242.51491,272.86424v-48.66667h17.33333v48.66667z" fill="url(#color-5)" stroke="#000000" stroke-width="2" stroke-linecap="butt"/><path d="M222.3207,231.20642v-65.91871h38.10583v65.91871z" fill="url(#color-6)" stroke="#000000" stroke-width="2" stroke-linecap="butt"/><path d="M241.36387,173.1794c-22.79904,0 -41.28132,-17.45276 -41.28132,-38.98183c0,-21.52907 18.48228,-38.98183 41.28132,-38.98183c22.79904,0 41.28132,17.45276 41.28132,38.98183c0,21.52907 -18.48228,38.98183 -41.28132,38.98183z" fill="url(#color-7)" stroke="#000000" stroke-width="2" stroke-linecap="butt"/><path d="M227.57668,146.67281c-4.35419,0 -7.88396,-6.7654 -7.88396,-15.11094c0,-8.34554 3.52976,-15.11094 7.88396,-15.11094c4.35419,0 7.88396,6.7654 7.88396,15.11094c0,8.34554 -3.52976,15.11094 -7.88396,15.11094z" fill="#000000" stroke="#000000" stroke-width="2" stroke-linecap="butt"/><path d="M250.09661,146.85483c-4.3542,0 -7.88397,-6.7654 -7.88397,-15.11094c0,-8.34554 3.52977,-15.11093 7.88397,-15.11093c4.35419,0 7.88396,6.76539 7.88396,15.11093c0,8.34554 -3.52976,15.11094 -7.88396,15.11094z" fill="#000000" stroke="#000000" stroke-width="2" stroke-linecap="butt"/><path d="M227.92366,122.14491c0,-1.38071 1.11929,-2.5 2.5,-2.5c1.38071,0 2.5,1.11929 2.5,2.5c0,1.38071 -1.11929,2.5 -2.5,2.5c-1.38071,0 -2.5,-1.11929 -2.5,-2.5z" fill="#ffffff" stroke="none" stroke-width="0.5" stroke-linecap="butt"/><path d="M251.57556,122.14491c0,-1.38071 1.11929,-2.5 2.5,-2.5c1.38071,0 2.5,1.11929 2.5,2.5c0,1.38071 -1.11929,2.5 -2.5,2.5c-1.38071,0 -2.5,-1.11929 -2.5,-2.5z" fill="#ffffff" stroke="none" stroke-width="0.5" stroke-linecap="butt"/><path d="M220.34971,110.75696l8.32196,-0.219" fill="none" stroke="#000000" stroke-width="2" stroke-linecap="round"/><path d="M246.19159,109.88096l6.56997,-0.219" fill="none" stroke="#000000" stroke-width="2" stroke-linecap="round"/><path d="M241.15462,106.92079c-22.01287,0 -43.79981,9.30156 -43.79981,-2.30471c0,-11.60627 20.47294,-27.14698 42.48581,-27.14698c22.01287,0 41.60982,14.22672 41.60982,25.83299c0,11.60627 -18.28295,3.6187 -40.29582,3.6187z" fill="url(#color-8)" stroke="#000000" stroke-width="2" stroke-linecap="butt"/><path d="M241.37361,101.55899c-4.95894,0 -8.97896,-3.67684 -8.97896,-8.21246c0,-4.53561 4.02002,-8.21246 8.97896,-8.21246c4.95894,0 8.97896,3.67684 8.97896,8.21246c0,4.53561 -4.02002,8.21246 -8.97896,8.21246z" fill="#ffffff" stroke="#000000" stroke-width="2" stroke-linecap="butt"/><path d="M240.38811,104.62498c-17.8401,0 -32.30236,-1.66683 -32.30236,-3.72298c0,-2.05614 14.46226,-3.72298 32.30236,-3.72298c17.8401,0 32.30236,1.66683 32.30236,3.72298c0,2.05614 -14.46226,3.72298 -32.30236,3.72298z" fill="url(#color-9)" stroke="#000000" stroke-width="2" stroke-linecap="butt"/><text transform="matrix(0.22735 0 0 0.22735 235.67964 89.50416)" font-size="40"  fill="#00ffff" fill-rule="nonzero" stroke="none" stroke-width="1" stroke-linecap="butt" stroke-linejoin="miter" stroke-miterlimit="10" stroke-dasharray="" stroke-dashoffset="0" font-family="Helvetica" font-weight="normal" text-anchor="start" style="mix-blend-mode: normal" >CP</text><text transform="matrix(0.60554 0 0 0.60554 227.13868 186.87113)" font-size="40"  fill="#006f6f" fill-rule="nonzero" stroke="none" stroke-width="1" stroke-linecap="butt" stroke-linejoin="miter" stroke-miterlimit="10" stroke-dasharray="" stroke-dashoffset="0" font-family="Helvetica" font-weight="normal" text-anchor="start" style="mix-blend-mode: normal" >CP</text><path d="M230.84824,281.5309c-7.54789,0 -13.66667,-3.5071 -13.66667,-7.83333c0,-4.32623 6.11878,-7.83333 13.66667,-7.83333c7.54789,0 13.66667,3.5071 13.66667,7.83333c0,4.32623 -6.11878,7.83333 -13.66667,7.83333z" fill="url(#color-10)" stroke="#000000" stroke-width="2" stroke-linecap="butt"/><path d="M254.51492,282.5309c-7.54789,0 -13.66666,-3.5071 -13.66666,-7.83333c0,-4.32623 6.11877,-7.83333 13.66666,-7.83333c7.54789,0 13.66666,3.5071 13.66666,7.83333c0,4.32623 -6.11877,7.83333 -13.66666,7.83333z" fill="url(#color-11)" stroke="#000000" stroke-width="2" stroke-linecap="butt"/><path d="M261.18158,212.5309v-41h12.66667v41z" fill="url(#color-12)" stroke="#000000" stroke-width="2" stroke-linecap="butt"/><path d="M214.02272,211.2809c-4.6484,0 -8.41667,-1.38045 -8.41667,-3.08333c0,-1.70287 3.76827,-3.08333 8.41667,-3.08333c4.6484,0 8.41667,1.38045 8.41667,3.08333c0,1.70287 -3.76827,3.08333 -8.41667,3.08333z" fill="url(#color-13)" stroke="#000000" stroke-width="2" stroke-linecap="butt"/><path d="M268.35605,214.61423c-4.64839,0 -8.41666,-1.38045 -8.41666,-3.08333c0,-1.70288 3.76827,-3.08333 8.41666,-3.08333c4.6484,0 8.41667,1.38045 8.41667,3.08333c0,1.70288 -3.76828,3.08333 -8.41667,3.08333z" fill="url(#color-14)" stroke="#000000" stroke-width="2" stroke-linecap="butt"/><path d="M223.88593,166.16684c-6.08782,0 -11.02292,-2.72349 -11.02292,-6.08351c0,-3.3598 4.93513,-6.08351 11.02292,-6.08351c6.08782,0 11.02292,2.72349 11.02292,6.08351c0,3.3598 -4.93513,6.08351 -11.02292,6.08351z" fill="#b90000" stroke="#000000" stroke-width="2" stroke-linecap="butt"/><path d="M222.46113,166.32261c-2.48069,0.21076 -2.79078,-1.47532 -2.79078,-1.47532c-0.31384,-1.80064 -0.4809,-4.86622 1.33027,-6.6373c0.67789,-1.2916 2.18806,-2.13854 5.30111,-1.61326c0.14977,0.02527 0.2963,0.05557 0.43996,0.0903l0.01569,-0.04265l2.61593,0.44449c1.1133,0.17172 1.9444,0.84844 1.9444,1.65709c0,0.85027 -0.91883,1.55468 -2.11844,1.67954c-0.38661,0.35049 -0.85115,0.72391 -1.38583,1.11901c-0.26853,0.19844 -0.745,0.04202 -1.19102,-0.04555c-0.08341,0.1515 -0.16634,0.3116 -0.24825,0.47752l0.26159,-0.01976l0.32932,2.01451c0.01274,0.06951 0.0193,0.14033 0.0193,0.21218c0,0.93845 -1.11929,1.6992 -2.5,1.6992c-0.17119,0 -0.33836,-0.01169 -0.49988,-0.03397c-0.32556,0.23005 -0.80863,0.41324 -1.52337,0.47397z" fill="#ffa0e5" stroke="none" stroke-width="0.5" stroke-linecap="butt"/></g></g></svg>