<svg version="1.1" xmlns="http://www.w3.org/2000/svg" xmlns:xlink="http://www.w3.org/1999/xlink" width="119.49878" height="32.55579" viewBox="0,0,119.49878,32.55579"><g transform="translate(-115.39962,-230.38747)"><g data-paper-data="{&quot;isPaintingLayer&quot;:true}" fill-rule="nonzero" stroke="#ffffff" stroke-linecap="butt" stroke-linejoin="miter" stroke-miterlimit="10" stroke-dasharray="" stroke-dashoffset="0" style="mix-blend-mode: normal"><path d="M116.89963,256.0146c0,-6.0923 0,-18.59498 0,-21.60219c0,-1.27715 1.87568,-2.52494 4.24489,-2.52494c10.50808,0 86.39382,0 107.06568,0c3.29588,0 5.1882,1.40669 5.1882,2.80548c0,3.04863 0,14.94408 0,21.04111c0,2.20158 -2.82355,3.64712 -6.13152,3.64712c-12.36863,0 -88.65714,0 -106.59402,0c-2.41592,0 -3.77324,-1.32246 -3.77324,-3.36658z" fill="#010101" stroke-width="3"/><text transform="matrix(0.38229 0 0 0.55509 122.69475 239.90702)" font-size="40"  fill="#ffffff" fill-rule="nonzero" stroke="#ffffff" stroke-width="1" stroke-linecap="butt" stroke-linejoin="miter" stroke-miterlimit="10" stroke-dasharray="" stroke-dashoffset="0" font-family="Gloria" font-weight="normal" text-anchor="start" style="mix-blend-mode: normal" >HOW TO PLAY</text></g></g></svg>