<svg version="1.1" xmlns="http://www.w3.org/2000/svg" xmlns:xlink="http://www.w3.org/1999/xlink" width="255.39005" height="183.7136" viewBox="0,0,255.39005,183.7136"><g transform="translate(-112.30498,-88.1432)"><g data-paper-data="{&quot;isPaintingLayer&quot;:true}" fill-rule="nonzero" stroke-linejoin="miter" stroke-miterlimit="10" stroke-dasharray="" stroke-dashoffset="0" style="mix-blend-mode: normal"><path d="" fill="#ffffff" stroke="none" stroke-width="0" stroke-linecap="butt"/><g stroke="#000000" stroke-width="2.5"><path d="M360.40496,179.01016c0,26.91179 9.17019,65.39723 -17.21621,81.55189c-21.30411,13.04312 -74.80784,6.51882 -104.94737,6.51882c-36.87426,0 -88.44235,11.5248 -110.84156,-7.09751c-18.58481,-15.45106 -11.32201,-58.91664 -11.32201,-80.9732c0,-21.64791 -9.52678,-61.34747 8.4455,-76.68268c22.40916,-19.12106 76.27698,-11.38803 113.71808,-11.38803c38.44249,0 97.72573,-6.3894 120.11946,13.62254c16.90872,15.11032 2.04412,53.5222 2.04412,74.44817z" fill="#ffffff" stroke-linecap="butt"/><path d="M267.98824,161.06186l72.92271,95.15093" fill="none" stroke-linecap="round"/><path d="M203.28218,151.16616l-78.05811,102.0018" fill="none" stroke-linecap="round"/><path d="M345.37273,96.79497c-10.34944,2.69656 -34.42403,46.23619 -47.44837,52.01999c-14.62736,6.49565 -33.50418,30.13624 -54.00818,31.1221c-26.1895,1.25923 -37.60597,-23.90349 -54.65913,-32.03759c-5.69526,-2.71655 -51.08113,-49.25804 -61.04636,-48.86598c-16.44704,0.64708 59.32866,-5.59563 108.70033,-7.96948c49.37166,-2.37385 114.47667,4.16377 108.46172,5.73097z" fill="#ffffff" stroke-linecap="butt"/></g></g></g></svg>