<svg version="1.1" xmlns="http://www.w3.org/2000/svg" xmlns:xlink="http://www.w3.org/1999/xlink" width="494" height="382" viewBox="0,0,494,382"><g transform="translate(7,11)"><g data-paper-data="{&quot;isPaintingLayer&quot;:true}" fill-rule="nonzero" stroke-linejoin="miter" stroke-miterlimit="10" stroke-dasharray="" stroke-dashoffset="0" style="mix-blend-mode: normal"><path d="M-6,370v-380h492v380z" fill="#4e4e4e" stroke="#000000" stroke-width="2" stroke-linecap="butt"/><path d="M277.72059,82.20588l-102.45098,107.10785h66.12745l-65.19608,88.4804l128.52941,-118.28432l-69.85294,-0.93138z" fill="#0a0a0a" stroke="#181818" stroke-width="5" stroke-linecap="round"/><path d="M450.31863,25.39216c0,-1.38071 1.11929,-2.5 2.5,-2.5c1.38071,0 2.5,1.11929 2.5,2.5c0,1.38071 -1.11929,2.5 -2.5,2.5c-1.38071,0 -2.5,-1.11929 -2.5,-2.5z" fill="#0a0a0a" stroke="none" stroke-width="0.5" stroke-linecap="butt"/><path d="M450.41629,338.86111c0,-1.38071 1.11929,-2.5 2.5,-2.5c1.38071,0 2.5,1.11929 2.5,2.5c0,1.38071 -1.11929,2.5 -2.5,2.5c-1.38071,0 -2.5,-1.11929 -2.5,-2.5z" fill="#0a0a0a" stroke="none" stroke-width="0.5" stroke-linecap="butt"/><path d="M22.5,338c0,-2.76142 2.23858,-5 5,-5c2.76142,0 5,2.23858 5,5c0,2.76142 -2.23858,5 -5,5c-2.76142,0 -5,-2.23858 -5,-5z" fill="#0a0a0a" stroke="none" stroke-width="0.5" stroke-linecap="butt"/><path d="M20.5,26c0,-2.76142 2.23858,-5 5,-5c2.76142,0 5,2.23858 5,5c0,2.76142 -2.23858,5 -5,5c-2.76142,0 -5,-2.23858 -5,-5z" fill="#0a0a0a" stroke="none" stroke-width="0.5" stroke-linecap="butt"/><path d="M448.5,27c0,-2.76142 2.23858,-5 5,-5c2.76142,0 5,2.23858 5,5c0,2.76142 -2.23858,5 -5,5c-2.76142,0 -5,-2.23858 -5,-5z" fill="#0a0a0a" stroke="none" stroke-width="0.5" stroke-linecap="butt"/><path d="M447.5,338c0,-2.76142 2.23858,-5 5,-5c2.76142,0 5,2.23858 5,5c0,2.76142 -2.23858,5 -5,5c-2.76142,0 -5,-2.23858 -5,-5z" fill="#0a0a0a" stroke="none" stroke-width="0.5" stroke-linecap="butt"/><path d="M23.75,338c0,-2.07107 1.67893,-3.75 3.75,-3.75c2.07107,0 3.75,1.67893 3.75,3.75c0,2.07107 -1.67893,3.75 -3.75,3.75c-2.07107,0 -3.75,-1.67893 -3.75,-3.75z" fill="#333333" stroke="none" stroke-width="0.5" stroke-linecap="butt"/><path d="M21.75,26c0,-2.07107 1.67893,-3.75 3.75,-3.75c2.07107,0 3.75,1.67893 3.75,3.75c0,2.07107 -1.67893,3.75 -3.75,3.75c-2.07107,0 -3.75,-1.67893 -3.75,-3.75z" fill="#333333" stroke="none" stroke-width="0.5" stroke-linecap="butt"/><path d="M448.75,338c0,-2.07107 1.67893,-3.75 3.75,-3.75c2.07107,0 3.75,1.67893 3.75,3.75c0,2.07107 -1.67893,3.75 -3.75,3.75c-2.07107,0 -3.75,-1.67893 -3.75,-3.75z" fill="#333333" stroke="none" stroke-width="0.5" stroke-linecap="butt"/><path d="M449.75,27c0,-2.07107 1.67893,-3.75 3.75,-3.75c2.07107,0 3.75,1.67893 3.75,3.75c0,2.07107 -1.67893,3.75 -3.75,3.75c-2.07107,0 -3.75,-1.67893 -3.75,-3.75z" fill="#333333" stroke="none" stroke-width="0.5" stroke-linecap="butt"/></g></g></svg>