<svg xmlns="http://www.w3.org/2000/svg" xmlns:xlink="http://www.w3.org/1999/xlink" xmlns:a="http://ns.adobe.com/AdobeSVGViewerExtensions/3.0/" version="1.1" x="0px" y="0px" width="12.790000915527344" height="38.40999984741211" viewBox="0 0 12.790000915527344 38.40999984741211" enable-background="new -26.9 -14.65 64 64" xml:space="preserve">
  <defs/>
  <g>
    <path fill="#594419" d="M3,9.35C3,7.97,3.43,6.9,4.3,6.14C5.17,5.38,6.21,5,7.44,5c1.19,0,2.21,0.38,3.07,1.15&#13;&#10;&#9;c0.86,0.77,1.28,1.83,1.28,3.2c0,1.09-0.47,2.09-1.4,3.01c-0.93,0.92-1.95,1.37-3.04,1.37c-1.19,0-2.21-0.44-3.07-1.31&#13;&#10;&#9;C3.43,11.54,3,10.52,3,9.35z M7.44,37.41c-1.21,0-2.25-0.39-3.12-1.17C3.44,35.46,3,34.37,3,32.97c0-1.19,0.42-2.21,1.26-3.07&#13;&#10;&#9;c0.84-0.86,1.87-1.28,3.09-1.28c1.23,0,2.27,0.42,3.14,1.27c0.87,0.85,1.3,1.87,1.3,3.08c0,1.38-0.43,2.47-1.3,3.26&#13;&#10;&#9;C9.62,37.02,8.61,37.41,7.44,37.41z" stroke-width="1"/>
    <linearGradient id="SVGID_1_" gradientUnits="userSpaceOnUse" x1="5.394" y1="1" x2="5.394" y2="33.4097">
      <stop offset="0" style="stop-color:#FFFFFF"/>
      <stop offset="1" style="stop-color:#FFD38F"/>
    </linearGradient>
    <path fill="url(#SVGID_1_)" stroke="#594419" stroke-width="2" d="M1,5.35C1,3.97,1.43,2.9,2.3,2.14C3.17,1.38,4.21,1,5.44,1&#13;&#10;&#9;C6.63,1,7.65,1.38,8.5,2.15c0.86,0.77,1.28,1.83,1.28,3.2c0,1.09-0.47,2.09-1.4,3.01C7.45,9.27,6.44,9.73,5.35,9.73&#13;&#10;&#9;c-1.19,0-2.21-0.44-3.07-1.31C1.43,7.54,1,6.52,1,5.35z M5.44,33.41c-1.21,0-2.25-0.39-3.12-1.17C1.44,31.46,1,30.37,1,28.97&#13;&#10;&#9;c0-1.19,0.42-2.21,1.26-3.07c0.84-0.86,1.87-1.28,3.09-1.28c1.23,0,2.27,0.42,3.14,1.27c0.87,0.85,1.3,1.87,1.3,3.08&#13;&#10;&#9;c0,1.38-0.43,2.47-1.3,3.26C7.62,33.02,6.61,33.41,5.44,33.41z"/>
  </g>
</svg>