<svg version="1.1" xmlns="http://www.w3.org/2000/svg" xmlns:xlink="http://www.w3.org/1999/xlink" width="524.40205" height="475.2848" viewBox="0,0,524.40205,475.2848"><defs><radialGradient cx="404.63965" cy="64.88891" r="102.1021" gradientUnits="userSpaceOnUse" id="color-1"><stop offset="0" stop-color="#efff00"/><stop offset="1" stop-color="#efff00" stop-opacity="0"/></radialGradient></defs><g transform="translate(17.66029,53.41241)"><g data-paper-data="{&quot;isPaintingLayer&quot;:true}" fill-rule="nonzero" stroke-linejoin="miter" stroke-miterlimit="10" stroke-dasharray="" stroke-dashoffset="0" style="mix-blend-mode: normal"><path d="M-3.99398,377.44748v-388.88889h507.50751v388.88889z" fill="#66f4ff" stroke="none" stroke-width="NaN" stroke-linecap="butt"/><path d="M302.53755,64.88891c0,-56.38943 45.71267,-102.1021 102.1021,-102.1021c56.38943,0 102.1021,45.71267 102.1021,102.10211c0,56.38943 -45.71267,102.1021 -102.1021,102.1021c-56.38943,0 -102.1021,-45.71267 -102.1021,-102.1021z" fill="url(#color-1)" stroke="none" stroke-width="0" stroke-linecap="butt"/><path d="M116.76488,141.72895c0,8.28427 -11.86445,15 -26.5,15c-14.63555,0 -26.5,-6.71573 -26.5,-15c0,-8.28427 11.86445,-15 26.5,-15c14.63555,0 26.5,6.71573 26.5,15z" fill="#f6feff" stroke="none" stroke-width="0" stroke-linecap="butt"/><path d="M158.76488,123.72895c0,10.49341 -18.58018,19 -41.5,19c-22.91982,0 -41.5,-8.50659 -41.5,-19c0,-10.49341 18.58018,-19 41.5,-19c22.91982,0 41.5,8.50659 41.5,19z" fill="#f6feff" stroke="none" stroke-width="0" stroke-linecap="butt"/><path d="M355.19855,59.28682c-1.89568,54.84185 -64.66696,87 -121,87c-56.33304,0 -109.0574,-1.12823 -105.5,-43c3.96135,-46.62634 32.99525,-79.42716 89,-85.5c55.33304,-6 140.13387,-34.69758 137.5,41.5z" fill="#00abff" stroke="#005078" stroke-width="4.5" stroke-linecap="butt"/><path d="M96.76488,147.22895c0,-8.00813 10.52131,-14.5 23.5,-14.5c12.97869,0 23.5,6.49187 23.5,14.5c0,8.00813 -10.52131,14.5 -23.5,14.5c-12.97869,0 -23.5,-6.49187 -23.5,-14.5z" fill="#f6feff" stroke="none" stroke-width="0" stroke-linecap="butt"/><path d="M360.34536,64.88891c0,-24.46306 19.83123,-44.2943 44.29429,-44.2943c24.46307,0 44.2943,19.83123 44.2943,44.2943c0,24.46307 -19.83123,44.29429 -44.2943,44.29429c-24.46307,0 -44.29429,-19.83123 -44.29429,-44.29429z" fill="#efff00" stroke="#cfde00" stroke-width="5" stroke-linecap="butt"/><path d="M3.812,419.55343l-19.15665,-150.9461c0,0 17.50242,-36.47701 40.62019,-30.67981c63.05632,15.8125 140.93934,-7.37455 197.64095,-19.25905c30.24566,-7.34529 44.57953,30.92978 77.25781,24.0805c37.79587,-7.92191 20.10728,-115.37237 55.61047,-131.22653c16.31633,-7.28615 38.74427,16.91152 57.81233,31.99925c48.04366,38.01489 78.92757,38.51592 78.92757,38.51592l3.72723,220.63913z" fill="#3500ff" stroke="#2300ad" stroke-width="4.5" stroke-linecap="butt"/><path d="M87.50314,243.83896c0,0 -4.12594,9.05119 -6.91367,12.29313c-2.377,2.7643 -8.77762,5.955 -8.77762,5.955l3.84604,-18.21284z" fill="#ffffff" stroke="#000000" stroke-width="2.5" stroke-linecap="round"/><path d="M186.79232,224.81766c0,0 -6.81605,13.54107 -48.65045,17.90709c-27.66595,2.88736 -69.10737,6.26074 -70.45044,-4.11021c-1.2483,-9.57083 39.94991,-18.03525 67.66666,-20.28159c37.03798,-3.00179 51.43422,6.48469 51.43422,6.48469z" fill="#ffffff" stroke="#000000" stroke-width="4.5" stroke-linecap="butt"/><path d="M144.95514,231.18426l-11.38569,-20.52817l-13.76797,-2.62848l-7.026,-61.56269" fill="none" stroke="#000000" stroke-width="5" stroke-linecap="round"/><path d="M94.95078,135.09085c-1.02829,-9.01004 5.44219,-17.1477 14.45222,-18.17599c9.01004,-1.02829 17.1477,5.44219 18.17599,14.45222c1.02829,9.01004 -5.44219,17.1477 -14.45222,18.17599c-9.01004,1.02829 -17.1477,-5.44219 -18.17599,-14.45222z" fill="#ffffff" stroke="#000000" stroke-width="5" stroke-linecap="butt"/><path d="M96.72048,191.76358l0.75785,-9.753l15.51619,-17.05013l21.73094,1.88542l9.08383,5.82339" fill="none" stroke="#000000" stroke-width="5" stroke-linecap="round"/><path d="M104.89589,232.63786l5.60426,-13.73614l9.30636,-11.35226" fill="none" stroke="#000000" stroke-width="5" stroke-linecap="round"/><path d="M76.95362,42.28681c0,10.21727 -8.28273,18.5 -18.5,18.5c-10.21727,0 -18.5,-8.28273 -18.5,-18.5c0,-10.21727 8.28273,-18.5 18.5,-18.5c10.21727,0 18.5,8.28273 18.5,18.5z" fill="#f6feff" stroke="none" stroke-width="0" stroke-linecap="butt"/><path d="M100.95362,26.78681c0,11.59798 -10.07359,21 -22.5,21c-12.42641,0 -22.5,-9.40202 -22.5,-21c0,-11.59798 10.07359,-21 22.5,-21c12.42641,0 22.5,9.40202 22.5,21z" fill="#f6feff" stroke="none" stroke-width="0" stroke-linecap="butt"/><path d="M56.95362,45.28681c0,-6.35127 13.65532,-11.5 30.5,-11.5c16.84468,0 30.5,5.14873 30.5,11.5c0,6.35127 -13.65532,11.5 -30.5,11.5c-16.84468,0 -30.5,-5.14873 -30.5,-11.5z" fill="#f6feff" stroke="none" stroke-width="0" stroke-linecap="butt"/><text transform="matrix(1.26486 0 0 1.26486 138.26527 19.00838999999999)" font-size="40"  fill="#363636" fill-rule="nonzero" stroke="#000000" stroke-width="1" stroke-linecap="butt" stroke-linejoin="miter" stroke-miterlimit="10" stroke-dasharray="" stroke-dashoffset="0" font-family="&quot;ヒラギノ角ゴ Pro W3&quot;, &quot;Hiragino Kaku Gothic Pro&quot;, Osaka, &quot;メイリオ&quot;, Meiryo, &quot;ＭＳ Ｐゴシック&quot;, &quot;MS PGothic&quot;" font-weight="normal" text-anchor="start" style="mix-blend-mode: normal" >    Sound
Surfer</text><path d="M214.29632,-47.6906c0,0 1.51828,-4.33076 6.30334,-2.84629c4.07976,1.26566 3.64147,6.13897 3.64147,6.13897l-5.60832,15.55473c0,0 -0.82422,4.13162 -6.587,2.01925c-5.57423,-2.04327 -3.26433,-5.57119 -3.26433,-5.57119l5.51484,-15.29548z" fill="#ffffff" stroke="#000000" stroke-width="2" stroke-linecap="round"/><path d="M227.27887,-28.22174c0,0 -8.66101,9.07827 -16.62886,6.30818c-9.05745,-3.1489 -8.94296,-15.82116 -8.94296,-15.82116" fill="none" stroke="#000000" stroke-width="3" stroke-linecap="round"/><path d="M207.24681,-12.59803l3.18012,-9.10303" fill="none" stroke="#000000" stroke-width="3" stroke-linecap="round"/><text transform="matrix(0.87985 0 0 0.87985 155.72724 259.30287)" font-size="40"  fill="#ffffff" fill-rule="nonzero" stroke="#7c7c7c" stroke-width="2" stroke-linecap="butt" stroke-linejoin="miter" stroke-miterlimit="10" stroke-dasharray="" stroke-dashoffset="0" font-family="Marker" font-weight="normal" text-anchor="start" style="mix-blend-mode: normal" >Use Your Voice to 
Control the Waves</text><path d="M296.80724,113.95347c0,0 8.23805,-18.28159 5.86411,-24.71101c-1.9464,-5.2715 -12.4728,-8.33244 -12.4728,-8.33244c0,0 9.93486,-12.63587 22.96815,-4.22887c16.1343,10.40728 14.2637,26.28683 14.2637,26.28683" fill="#3500ff" stroke="#2300ad" stroke-width="4.5" stroke-linecap="round"/><path d="M149.17212,78.27788c0,-3.77393 3.05937,-6.8333 6.8333,-6.8333c3.77393,0 6.8333,3.05937 6.8333,6.8333c0,3.77393 -3.05937,6.8333 -6.8333,6.8333c-3.77393,0 -6.8333,-3.05937 -6.8333,-6.8333z" fill="#ffffff" stroke="#2b2b2b" stroke-width="2.5" stroke-linecap="butt"/><path d="M154.22189,63.76998c0,0 8.5359,-1.69252 12.91537,3.14158c6.38531,7.04816 4.30512,12.21724 4.30512,12.21724" fill="none" stroke="#2b2b2b" stroke-width="3.5" stroke-linecap="round"/><path d="M154.2219,54.31434c0,0 12.7497,-3.34743 20.59588,5.00981c9.48657,9.08422 6.86529,19.48259 6.86529,19.48259" fill="none" stroke="#2b2b2b" stroke-width="3" stroke-linecap="round"/></g></g></svg>