<svg version="1.1" xmlns="http://www.w3.org/2000/svg" xmlns:xlink="http://www.w3.org/1999/xlink" width="283.284" height="325.73702" viewBox="0,0,283.284,325.73702"><g transform="translate(-98.358,-17.75)"><g data-paper-data="{&quot;isPaintingLayer&quot;:true}" fill-rule="nonzero" stroke-linejoin="miter" stroke-miterlimit="10" stroke-dasharray="" stroke-dashoffset="0" style="mix-blend-mode: normal"><path d="M99.608,341v-322h280.784v322z" fill="#808080" stroke="#000000" stroke-width="2.5" stroke-linecap="butt"/><path d="M280.9375,19v321" fill="none" stroke="#000000" stroke-width="2.5" stroke-linecap="round"/><text transform="matrix(0.5 0 0 0.5 306.9375 37.5)" font-size="40"  fill="#000000" fill-rule="nonzero" stroke="none" stroke-width="1" stroke-linecap="butt" stroke-linejoin="miter" stroke-miterlimit="10" stroke-dasharray="" stroke-dashoffset="0" font-family="Helvetica" font-weight="normal" text-anchor="start" style="mix-blend-mode: normal" >PULL</text><g fill="#000000" stroke="none" stroke-width="1" stroke-linecap="butt" font-family="Sans Serif" font-weight="normal" font-size="40" text-anchor="start"><text transform="matrix(0.5 0 0 0.5 327.9375 60.5)" font-size="40"  fill="#000000" fill-rule="nonzero" stroke="none" stroke-width="1" stroke-linecap="butt" stroke-linejoin="miter" stroke-miterlimit="10" stroke-dasharray="" stroke-dashoffset="0" font-family="Helvetica" font-weight="normal" text-anchor="start" style="mix-blend-mode: normal" >l</text><text transform="matrix(0.5 0 0 0.5 322.9375 71.5)" font-size="40"  fill="#000000" fill-rule="nonzero" stroke="none" stroke-width="1" stroke-linecap="butt" stroke-linejoin="miter" stroke-miterlimit="10" stroke-dasharray="" stroke-dashoffset="0" font-family="Helvetica" font-weight="normal" text-anchor="start" style="mix-blend-mode: normal" >\/</text></g><text transform="matrix(0.5 0 0 0.5 303.9375 93.5)" font-size="40"  fill="#000000" fill-rule="nonzero" stroke="none" stroke-width="1" stroke-linecap="butt" stroke-linejoin="miter" stroke-miterlimit="10" stroke-dasharray="" stroke-dashoffset="0" font-family="Helvetica" font-weight="normal" text-anchor="start" style="mix-blend-mode: normal" >HOLD</text><g data-paper-data="{&quot;index&quot;:null}"><path d="M298.27484,190.32143v-29.33929h64.35714v29.33929z" fill="#cccccc" stroke="#000000" stroke-width="1.5" stroke-linecap="butt"/><path d="M307.73912,189.375v-27.44643h13.25v27.44643z" fill="#000000" stroke="#000000" stroke-width="1.5" stroke-linecap="butt"/><path d="M338.97126,189.375v-27.44643h13.25v27.44643z" fill="#000000" stroke="#000000" stroke-width="1.5" stroke-linecap="butt"/><g fill="none" stroke-linecap="round"><path d="M314.36412,213.98214v-38.80357" stroke="#bfbfbf" stroke-width="5"/><path d="M346.06948,175.17857v38.80357" stroke="#c0c0c0" stroke-width="5"/><path d="M290.98438,212.41147h79.5" stroke="#c0c0c0" stroke-width="7.5"/><path d="M290.98438,201.91518v20.58482" stroke="#c0c0c0" stroke-width="7.5"/><path d="M370.48438,201.91518v20.58482" stroke="#c0c0c0" stroke-width="7.5"/></g></g><path d="M227.72199,299.80765c-4.48682,5.02719 -11.01602,-12.80765 -18.28449,-12.80765c-8.5525,0 0.91853,-11.38224 -3.46398,-18.02377c-2.5511,-3.86609 -21.03602,-1.49775 -21.03602,-6.47623c0,-6.76549 -23.25775,-7.89049 -18.82412,-12.32412c4.43363,-4.43362 36.55863,-12.17588 43.32412,-12.17588c8.26045,0 27.56608,14.08806 32.0041,20.35138c2.83165,3.99627 -7.5041,-1.12191 -7.5041,4.14862c0,6.26251 -2.34967,32.97622 -6.21551,37.30765z" fill="#c4b996" stroke="none" stroke-width="NaN" stroke-linecap="butt"/><path d="M242.20434,302.41454c-0.35999,-3.23846 2.02534,-6.46644 5.28111,-9.33397c4.19303,-3.69302 9.82979,-6.78818 12.90544,-8.53796c-2.2072,3.43295 -3.88974,12.26696 -4.33629,23.16423c-6.72401,-1.63809 -13.61244,-3.15291 -13.85026,-5.2923z" fill="#c4b996" stroke="none" stroke-width="0" stroke-linecap="butt"/><path d="M267.86384,330.297c-4.05512,-5.54622 -11.92634,-14.49176 -11.92634,-16.797c0,-1.98083 0.04024,-3.91756 0.1171,-5.79316c6.51871,1.58807 12.8829,3.292 12.8829,5.79316c0,6.20648 -0.39508,11.97999 -1.07366,16.797z" fill="#c4b996" stroke="none" stroke-width="0" stroke-linecap="butt"/><path d="M270.21665,334.36999c0.33528,5.18412 -1.44406,7.72606 -3.43588,8.92512c-0.50401,-0.07824 -1.02046,-0.11884 -1.5464,-0.11884c-0.46723,0 -0.92698,0.03204 -1.37717,0.09405c1.66758,-1.74327 3.09368,-6.49266 4.00663,-12.97332c1.37183,1.87626 2.30692,3.36349 2.35281,4.07299z" fill="#c4b996" stroke="none" stroke-width="0" stroke-linecap="butt"/><path d="M260.39089,284.54261c0.64349,-1.00084 1.33157,-1.54261 2.04661,-1.54261c0.60283,0 -0.31685,0.55853 -2.04661,1.54261z" fill="#c4b996" stroke="none" stroke-width="0" stroke-linecap="butt"/><path d="M109.42503,297.49365c2.5275,-7.54968 17.74126,-6.49365 22.51247,-6.49365c7.73199,0 30,27.98374 30,44c0,2.88662 -0.72333,5.18749 -1.95454,7.01999c-0.61503,0.18476 -1.13462,0.47328 -1.49859,0.90628c-0.1533,0.18238 -0.29972,0.36953 -0.44027,0.56076c-3.40226,-0.33292 -6.86179,-0.24669 -9.31098,-0.31076c-1.74699,-0.0457 -3.53302,-0.46407 -5.24876,-0.5c-3.67697,-0.077 -7.60806,-0.4696 -11.25,-0.5c-0.4812,-0.00402 -4.8432,-0.35209 -9.49094,-0.30578c-2.94488,-5.31645 -4.80593,-13.14327 -4.80593,-21.87049c0,-6.13303 -10.08091,-17.8214 -8.51247,-22.50635z" fill="#c4b996" stroke="none" stroke-width="0" stroke-linecap="butt"/><path d="M245.00111,320.08086c-3.3764,0.59057 -16.12134,9.91914 -20.06361,9.91914c-3.14699,0 -2.74468,7.92156 -3.18518,13.16045c-0.88715,-0.36112 -1.83783,-0.59854 -2.83061,-0.69083c-0.32532,-0.00991 -0.64147,-0.02081 -0.93733,-0.04335c-1.98446,-0.15123 -3.97436,-0.21289 -5.96778,-0.21642c-7.01763,-7.39629 -14.07909,-19.87375 -14.07909,-22.70985c0,-3.92819 -0.45316,-11.35256 7.76072,-13.15319c3.91186,-0.85755 14.42865,2.65319 19.23928,2.65319c14.91169,0 27,4.70101 27,10.5c0,0.65945 0.05875,1.08963 0.12338,1.35173c-0.47839,-0.58494 -2.15127,-1.62942 -7.05977,-0.77087z" fill="#c4b996" stroke="none" stroke-width="0" stroke-linecap="butt"/><path d="M252.06088,320.85173c0.2957,0.36156 0.13502,0.54754 0,0z" fill="#c4b996" stroke="none" stroke-width="0" stroke-linecap="butt"/><path d="M170.9375,323c0,-7.85303 -18.48273,-16.10198 -17.60927,-21.94156c1.27654,-8.53436 22.31388,-13.05844 24.60927,-13.05844c3.86599,0 7,15.67003 7,35c0,2.2114 3.37219,11.20132 6.6223,19.95605c-1.44401,0.01976 -2.88647,0.0138 -4.32667,-0.02979c-5.16028,-0.15616 -10.03207,-0.42654 -15.13485,-0.61679c-0.73356,-5.53458 -1.16078,-12.17257 -1.16078,-19.30948z" fill="#c4b996" stroke="none" stroke-width="0" stroke-linecap="butt"/><path d="" fill="#c4b996" stroke="none" stroke-width="0" stroke-linecap="butt"/><path d="M149.69085,260.36838c-2.33946,5.0803 0.06706,21.89121 -3.10697,25.48912c-7.01205,7.94848 -20.62076,-0.63526 -26.83678,-3.49771c-2.51508,-1.15818 1.71759,-7.05747 0.43257,-9.86952c-3.32847,-7.28383 -8.60491,-15.41732 -3.18832,-27.17985c2.82369,-6.13186 15.43373,2.68051 19.37951,-1.22293c6.54543,-6.4752 4.93063,-23.36273 10.56424,-20.76848c9.02972,4.15814 10.26352,20.74571 2.75576,37.04937z" fill="#c4b996" stroke="none" stroke-width="0" stroke-linecap="butt"/><path d="M169.63495,243.11149c-4.73714,-4.45029 -10.77179,-25.11387 -1.54156,-34.93905c9.23022,-9.82518 30.23002,-5.09136 34.96716,-0.64107c3.50486,3.29263 15.19249,9.23141 10.654,16.7293c-1.59569,2.63618 -16.38839,6.56288 -18.78946,9.11871c-0.58145,0.61892 -28.52344,0.3623 -29.11932,0.93699c-8.86354,8.54834 8.26789,12.96506 3.82916,8.79511z" fill="#c4b996" stroke="none" stroke-width="0" stroke-linecap="butt"/><path d="M266.1317,278.88054c-6.5603,3.97253 -14.81858,-15.72755 -21.01143,-19.54526c-4.09065,-2.52177 -17.27062,-20.03476 -18.46469,-24.66963c-1.55057,-6.01863 9.92413,0.41152 13.77186,-5.83c3.02837,-4.91242 -8.85286,-33.7172 -4.20601,-35.65762c5.80393,-2.4236 28.34116,22.92964 33.56297,26.14875c5.47806,3.37707 -0.50143,14.45904 -0.29865,21.10147c0.14527,4.75869 7.83423,4.78684 4.99148,9.39816c-2.325,3.77145 -4.94534,26.99518 -8.34554,29.05414z" data-paper-data="{&quot;index&quot;:null}" fill="#c4b996" stroke="none" stroke-width="0" stroke-linecap="butt"/></g></g></svg>