<svg version="1.1" xmlns="http://www.w3.org/2000/svg" xmlns:xlink="http://www.w3.org/1999/xlink" width="236" height="373.86443" viewBox="0,0,236,373.86443"><defs><linearGradient x1="276.64303" y1="107.37727" x2="242.93118" y2="-29.10493" gradientUnits="userSpaceOnUse" id="color-1"><stop offset="0" stop-color="#efefef"/><stop offset="1" stop-color="#afafaf"/></linearGradient><radialGradient cx="293.76711" cy="130.52402" r="118" gradientUnits="userSpaceOnUse" id="color-2"><stop offset="0" stop-color="#57d5ff"/><stop offset="1" stop-color="#008cc9"/></radialGradient></defs><g transform="translate(-162.54054,53.0904)"><g data-paper-data="{&quot;isPaintingLayer&quot;:true}" fill-rule="nonzero" stroke="none" stroke-linecap="butt" stroke-linejoin="miter" stroke-miterlimit="10" stroke-dasharray="" stroke-dashoffset="0" style="mix-blend-mode: normal"><path d="M256.57854,-7.05236l30.43572,113.62027l-29.74246,5.61873l-15.42252,-118.157l-2.75718,-46.62004z" fill="url(#color-1)" stroke-width="0"/><path d="M162.54054,204.02402c0,-64.47924 52.8304,-116.75 118,-116.75c65.1696,0 118,52.27076 118,116.75c0,64.47924 -52.8304,116.75 -118,116.75c-65.1696,0 -118,-52.27076 -118,-116.75z" fill="url(#color-2)" stroke-width="0"/><path d="M253.3446,-41.85433c-2.23607,1.11803 -3.3541,-1.11803 -3.3541,-1.11803l0.23607,-0.11803c-3.89682,-2.92261 -7.4883,-5.02706 -12.5,-5c0,0 -2.5,0 -2.5,-2.5c0,-2.5 2.5,-2.5 2.5,-2.5c6.13174,0.02716 10.7023,2.40172 15.5,6l1.23607,1.88197c0,0 1.11803,2.23607 -1.11803,3.3541z" fill="#efefef" stroke-width="0.5"/></g></g></svg>