<svg version="1.1" width="416" height="154" viewBox="-1 -1 416 154" xmlns="http://www.w3.org/2000/svg" xmlns:xlink="http://www.w3.org/1999/xlink">
  <defs>
    <radialGradient id="grad_1" cx="0.5408" cy="0.9285" r="1.2070499999999997">
      <stop offset="0" stop-color="#006666" stop-opacity="1"/>
      <stop offset="1" stop-color="#00FFFF" stop-opacity="1"/>
    </radialGradient>
    <linearGradient id="grad_2" y2="1">
      <stop offset="0" stop-color="#FFFFFF" stop-opacity="1"/>
      <stop offset="1" stop-color="#FFFFFF" stop-opacity="0"/>
    </linearGradient>
    <radialGradient id="grad_3" cx="0.5" cy="0.5246" r="0.68198">
      <stop offset="0" stop-color="#00FFFF" stop-opacity="0"/>
      <stop offset="1" stop-color="#00FFFF" stop-opacity="1"/>
    </radialGradient>
  </defs>
  <!-- Exported by Scratch - http://scratch.mit.edu/ -->
  <path id="ID0.4136708746664226" fill="#CCCC00" stroke="#CCCC00" stroke-width="2" d="M 357 113.750 L 422.750 113.750 L 422.750 175.500 L 357 175.500 L 357 113.750 Z " transform="matrix(1.2323226928710938, 0, 0, 1.1215686798095703, -139, -81.7)"/>
  <g id="ID0.5261306166648865">
    <g id="Layer_3">
      <path id="ID0.749005860183388" fill="#FAA51D" stroke="#000000" d="M 22.462 79.039 C 20.047 78.588 17.158 77.730 14.720 75.536 C 9.268 70.629 7.526 62.535 3.672 64.622 C -0.184 66.710 -0.110 79.787 12.025 83.816 C 16.207 85.207 20.023 85.212 23.116 85.128 C 23.927 85.103 30.833 84.474 33.195 81.054 C 35.556 77.634 33.914 76.782 33.105 76.310 C 32.295 75.838 25.878 79.677 22.462 79.039 Z " transform="matrix(-0.5661605000495911, 0, 0, 0.5661605000495911, 367.65, 54.45)"/>
      <path id="ID0.6244088155217469" fill="#FFFFFF" d="M 4.236 64.877 C 2.247 65.490 1.161 69.875 2.160 73.361 C 3.158 76.851 4.794 78.383 6.023 79.759 C 7.551 80.797 5.303 77.357 7.384 75.609 C 9.459 73.865 13.117 74.695 13.117 74.695 C 13.117 74.695 10.208 70.708 8.547 68.299 C 6.975 65.988 6.359 64.375 4.236 64.877 Z " transform="matrix(-0.5661605000495911, 0, 0, 0.5661605000495911, 367.65, 54.45)"/>
    </g>
    <g id="ID0.059299286454916">
      <path id="ID0.6676748469471931" fill="#FAA51D" d="M 38.217 86.756 C 38.217 86.756 29.385 92.956 21.146 95.168 L 21.232 95.383 C 22.479 97.207 27.102 102.880 20.898 104.879 C 15.565 106.596 5.778 91.775 10.077 88.977 C 12.703 87.264 14.969 88.725 14.969 88.725 C 14.969 88.725 18.443 87.655 20.970 86.380 C 25.273 84.219 26.754 82.927 26.754 82.927 C 26.754 82.927 30.938 78.621 33.610 78.790 C 36.281 78.960 41.669 83.504 38.217 86.756 Z " transform="matrix(-0.5661605000495911, 0, 0, 0.5661605000495911, 367.65, 54.45)"/>
      <path id="ID0.04159410344436765" fill="none" stroke="#231F20" stroke-width="1.2" d="M 21.232 95.383 C 22.479 97.207 27.102 102.880 20.898 104.879 C 15.565 106.596 5.569 91.535 9.868 88.734 C 12.494 87.021 14.969 88.724 14.969 88.724 C 14.969 88.724 18.443 87.652 20.970 86.376 C 25.273 84.215 26.754 82.923 26.754 82.923 " transform="matrix(-0.5661605000495911, 0, 0, 0.5661605000495911, 367.65, 54.45)"/>
      <path id="ID0.3602594812400639" fill="none" stroke="#231F20" stroke-width="1.2" d="M 38.217 86.756 C 38.217 86.756 28.094 93.863 19.413 95.575 " transform="matrix(-0.5661605000495911, 0, 0, 0.5661605000495911, 367.65, 54.45)"/>
    </g>
    <path id="ID0.20667909597977996" fill="#FAA51D" stroke="#231F20" stroke-width="1.2" d="M 52.169 74.885 C 52.169 74.885 53.404 75.050 56.913 78.561 C 60.422 82.069 62.939 80.721 65.824 79.285 C 68.701 77.842 76.361 73.159 72.314 69.468 C 68.265 65.780 66.107 70.614 62.599 71.873 C 59.087 73.133 57.538 69.386 55.741 67.586 C 55.152 66.993 54.553 66.487 54.012 66.081 C 54.012 66.081 53.041 65.321 52.106 68.871 C 51.172 72.412 50.162 73.415 52.169 74.885 Z " transform="matrix(-0.5661605000495911, 0, 0, 0.5661605000495911, 367.65, 54.45)"/>
    <g id="Layer_2_1_">
      <path id="ID0.1845751223154366" fill="#FAA51D" stroke="#231F20" stroke-width="1.2" d="M 46.753 82.012 C 47.941 81.100 49.150 79.610 50.704 77.299 C 52 75.372 53.404 71.721 53.404 71.721 C 54.279 69.200 55.338 65.145 51.502 64.425 C 49.949 64.134 47.423 64.327 43.832 63.649 C 40.239 62.968 37.034 61.127 34.315 65.882 C 31.597 70.639 24.725 74.153 33.259 82.445 C 33.259 82.445 38.160 86.287 44.023 92.084 C 48.854 96.859 56.068 102.686 56.068 102.686 C 56.068 102.686 75.040 104.874 75.603 101.993 C 77.525 92.203 60.826 95.082 60.826 95.082 C 60.826 95.082 56.221 91.149 54.101 89.288 C 50.623 86.229 42.976 78.517 42.976 78.517 " transform="matrix(-0.5661605000495911, 0, 0, 0.5661605000495911, 367.65, 54.45)"/>
      <path id="ID0.45219812681898475" fill="#FFFFFF" d="M 51.253 75.434 C 51.253 75.434 53.723 72.774 48.784 70.117 C 43.845 67.460 41.571 70.100 40.045 71.638 C 37.401 74.293 43.488 78.249 43.488 78.249 L 46.664 81.453 C 46.664 81.453 48.402 79.806 49.163 78.474 C 50.036 77.260 51.253 75.434 51.253 75.434 " transform="matrix(-0.5661605000495911, 0, 0, 0.5661605000495911, 367.65, 54.45)"/>
    </g>
    <path id="ID0.014499656856060028" fill="#FAA51D" stroke="#231F20" stroke-width="1.2" d="M 29.926 73.218 C 30.675 72.647 32.815 71.016 34.780 69.561 C 37.208 67.762 40.897 63.712 35.857 61.915 C 30.817 60.114 28.350 63.519 24.338 66.861 C 22.179 68.662 19.030 69.560 20.019 73.070 C 21.012 76.581 24.881 86.478 31.808 83.240 C 38.737 80.001 30.009 74.060 28.748 72.083 " transform="matrix(-0.5661605000495911, 0, 0, 0.5661605000495911, 367.65, 54.45)"/>
    <g id="Layer_2">
      <path id="ID0.4349205568432808" fill="#FAA51D" stroke="#231F20" stroke-width="1.2" d="M 52.709 14.156 C 51.169 14.013 47.959 13.840 46.191 13.925 C 41.463 14.150 36.967 15.853 36.967 15.853 L 23.949 7.357 L 26.184 26.263 C 26.830 25.481 15.629 39.067 22.705 50.487 C 29.785 61.913 44.938 67.005 63.693 63.279 C 82.448 59.550 86.922 48.748 85.679 43.033 C 84.437 37.319 77.357 35.210 77.357 35.210 C 77.357 35.210 77.267 30.730 74.029 25.240 C 72.103 21.972 65.681 17.199 65.681 17.199 L 62.822 5.647 L 55.370 12.851 L 52.709 14.156 Z " transform="matrix(-0.5661605000495911, 0, 0, 0.5661605000495911, 367.65, 54.45)"/>
      <path id="ID0.4050597050227225" fill="#FFFFFF" d="M 76.420 35.066 L 73.938 33.002 L 64.823 35.663 C 64.823 35.663 64.823 39.082 60.456 40.030 C 56.086 40.981 49.245 37.753 49.245 37.753 L 41.460 41.170 C 41.460 41.170 33.023 42.098 32.721 47.251 C 32.048 58.704 46.100 63.479 51.425 63.783 C 54.330 63.950 59.660 63.445 63.702 62.642 C 81.454 59.408 86.253 48.723 85.012 43.007 C 83.770 37.293 77.034 35.811 77.034 35.811 L 76.420 35.066 Z " transform="matrix(-0.5661605000495911, 0, 0, 0.5661605000495911, 367.65, 54.45)"/>
      <path id="ID0.45193700352683663" fill="none" stroke="#231F20" stroke-width="1.2" d="M 10.673 46.155 C 10.673 46.155 14.780 46.529 16.647 46.423 C 18.512 46.316 22.139 45.836 22.139 45.836 " transform="matrix(-0.5661605000495911, 0, 0, 0.5661605000495911, 367.65, 54.45)"/>
      <path id="ID0.8810072797350585" fill="none" stroke="#231F20" stroke-width="1.2" d="M 81.656 40.671 C 81.656 40.671 86.205 39.928 88.515 39.122 C 91.230 38.180 93.058 36.577 93.058 36.577 " transform="matrix(-0.5661605000495911, 0, 0, 0.5661605000495911, 367.65, 54.45)"/>
      <path id="ID0.4411283419467509" fill="none" stroke="#231F20" stroke-width="1.2" d="M 22.337 41.909 C 22.337 41.909 19.953 40.132 16.220 38.479 C 12.086 36.648 9.815 36.176 9.815 36.176 " transform="matrix(-0.5661605000495911, 0, 0, 0.5661605000495911, 367.65, 54.45)"/>
      <path id="ID0.027906611561775208" fill="none" stroke="#231F20" stroke-width="1.2" d="M 82.117 46.622 C 82.117 46.622 84.843 47.726 87.650 48.007 C 90.420 48.283 92.296 48.117 92.296 48.117 " transform="matrix(-0.5661605000495911, 0, 0, 0.5661605000495911, 367.65, 54.45)"/>
      <path id="ID0.5448674485087395" fill="none" stroke="#000000" stroke-linecap="round" d="M 52.350 14.212 C 55.190 14.912 56.237 15.681 56.237 15.681 " transform="matrix(-0.5661605000495911, 0, 0, 0.5661605000495911, 367.65, 54.45)"/>
      <path id="ID0.13420389126986265" fill="none" stroke="#000000" d="M 33.898 13.684 L 39.956 18.042 " transform="matrix(-0.5661605000495911, 0, 0, 0.5661605000495911, 367.65, 54.45)"/>
    </g>
    <g id="Layer_5">
      <path id="ID0.21125855622813106" fill="#FFFFFF" stroke="#231F20" d="M 71.840 25.366 C 73.778 28.638 74.873 34.957 72.082 36.781 C 69.289 38.606 63.645 35.202 61.728 31.968 C 60.500 29.899 63.977 27.517 66.050 26.350 C 67.628 25.134 70.761 23.558 71.840 25.366 Z " transform="matrix(-0.5661605000495911, 0, 0, 0.5661605000495911, 367.65, 54.45)"/>
      <path id="ID0.8755267891101539" fill="#231F20" d="M 71.089 32.522 C 71.089 33.602 70.287 34.478 69.289 34.478 C 68.296 34.478 67.486 33.601 67.486 32.522 C 67.486 31.442 68.296 30.564 69.289 30.564 C 70.287 30.564 71.089 31.442 71.089 32.522 " transform="matrix(-0.5661605000495911, 0, 0, 0.5661605000495911, 367.65, 54.45)"/>
    </g>
    <g id="Layer_7">
      <path id="ID0.5943106897175312" fill="#FFFFFF" stroke="#231F20" d="M 47.950 30.350 C 49.209 33.543 49.996 39.048 47.186 40.634 C 44.060 42.386 38.748 39.254 35.910 36.426 C 34.100 34.616 33.429 30.246 35.150 28.150 C 36.673 26.347 40.146 27.879 42.650 28.150 C 44.477 28.622 47.240 28.553 47.950 30.350 Z " transform="matrix(-0.5661605000495911, 0, 0, 0.5661605000495911, 367.65, 54.45)"/>
      <path id="ID0.8282245201990008" fill="#231F20" d="M 46.079 34.507 C 46.079 35.588 45.276 36.464 44.278 36.464 C 43.286 36.464 42.475 35.586 42.475 34.507 C 42.475 33.427 43.286 32.550 44.278 32.550 C 45.274 32.550 46.079 33.427 46.079 34.507 " transform="matrix(-0.5661605000495911, 0, 0, 0.5661605000495911, 367.65, 54.45)"/>
    </g>
    <path id="ID0.1068558800034225" fill="#5E4A42" stroke="#000000" d="M 59.766 37.926 C 61.620 37.926 64.321 37.642 64.463 38.495 C 64.606 39.350 62.754 42.698 61.475 42.840 C 60.192 42.982 55.350 40.487 55.280 38.921 C 55.206 37.355 58.055 37.926 59.766 37.926 Z " transform="matrix(-0.5661605000495911, 0, 0, 0.5661605000495911, 367.65, 54.45)"/>
    <g id="Layer_4">
      <path id="ID0.503134589176625" fill="none" stroke="#231F20" stroke-width="1.2" d="M 46.774 45.235 C 46.774 45.235 57.121 48.289 60.991 49.132 C 64.859 49.974 71.842 50.816 71.842 50.816 C 71.842 50.816 63.852 61.061 54.514 58.460 C 45.176 55.863 45.345 49.975 46.774 45.235 Z " transform="matrix(-0.5661605000495911, 0, 0, 0.5661605000495911, 367.65, 54.45)"/>
    </g>
  </g>
  <g id="ID0.6916790250688791">
    <g id="ID0.9862604849040508">
      <path id="ID0.7250244673341513" fill="#666666" stroke="#7F7F7F" stroke-width="2" d="M 225 205.500 L 239 205.500 L 239 268 L 225 268 L 225 205.500 Z " transform="matrix(0.07425305992364883, -0.18262505531311035, 0.18262505531311035, 0.07425305992364883, 278.15, 125.75)"/>
      <path id="ID0.47025758773088455" fill="url(#grad_1)" stroke="#000000" stroke-width="2" d="M 234.500 159 C 240.983 159 246.858 161.633 251.113 165.887 C 255.367 170.142 258 176.017 258 182.500 C 258 188.983 255.367 194.858 251.113 199.113 C 246.858 203.367 240.983 206 234.500 206 C 228.017 206 222.142 203.367 217.887 199.113 C 213.633 194.858 211 188.983 211 182.500 C 211 176.017 213.633 170.142 217.887 165.887 C 222.142 161.633 228.017 159 234.500 159 Z " transform="matrix(0.07425305992364883, -0.18262505531311035, 0.18262505531311035, 0.07425305992364883, 278.25, 126.2)"/>
      <path id="ID0.6898534814827144" fill="none" stroke="#009F9F" stroke-width="2" stroke-linecap="round" d="M 247.500 178 L 247.800 178.300 " transform="matrix(0.07425305992364883, -0.18262505531311035, 0.18262505531311035, 0.07425305992364883, 278.25, 126.6)"/>
      <path id="ID0.6436798740178347" fill="none" stroke="#009F9F" stroke-width="2" stroke-linecap="round" d="M 241.500 190.500 L 241.800 190.800 " transform="matrix(0.07425305992364883, -0.18262505531311035, 0.18262505531311035, 0.07425305992364883, 278.25, 126.6)"/>
      <path id="ID0.534279353916645" fill="none" stroke="#009F9F" stroke-width="2" stroke-linecap="round" d="M 228.500 175 L 228.800 175.300 " transform="matrix(0.07425305992364883, -0.18262505531311035, 0.18262505531311035, 0.07425305992364883, 278.25, 126.6)"/>
      <path id="ID0.5541051714681089" fill="none" stroke="#009F9F" stroke-width="2" stroke-linecap="round" d="M 224 186.500 L 224.300 186.800 " transform="matrix(0.07425305992364883, -0.18262505531311035, 0.18262505531311035, 0.07425305992364883, 278.25, 126.6)"/>
      <path id="ID0.07968003954738379" fill="none" stroke="#009F9F" stroke-width="2" stroke-linecap="round" d="M 232 194.500 L 232.300 194.800 " transform="matrix(0.07425305992364883, -0.18262505531311035, 0.18262505531311035, 0.07425305992364883, 278.25, 126.6)"/>
      <path id="ID0.2499368181452155" fill="none" stroke="#009F9F" stroke-width="2" stroke-linecap="round" d="M 246.500 188 L 246.800 188.300 " transform="matrix(0.07425305992364883, -0.18262505531311035, 0.18262505531311035, 0.07425305992364883, 278.25, 126.6)"/>
      <path id="ID0.06400489434599876" fill="none" stroke="#009F9F" stroke-width="2" stroke-linecap="round" d="M 226 179.500 L 226.300 179.800 " transform="matrix(0.07425305992364883, -0.18262505531311035, 0.18262505531311035, 0.07425305992364883, 278.25, 126.6)"/>
      <path id="ID0.906250280328095" fill="none" stroke="#009F9F" stroke-width="2" stroke-linecap="round" d="M 235.500 167 L 235.800 167.300 " transform="matrix(0.07425305992364883, -0.18262505531311035, 0.18262505531311035, 0.07425305992364883, 278.25, 126.6)"/>
      <path id="ID0.18180017219856381" fill="none" stroke="#009F9F" stroke-width="2" stroke-linecap="round" d="M 248 163 L 248.300 163.300 " transform="matrix(0.07425305992364883, -0.18262505531311035, 0.18262505531311035, 0.07425305992364883, 278.5, 126.95)"/>
      <path id="ID0.3926858645863831" fill="none" stroke="#009F9F" stroke-width="2" stroke-linecap="round" d="M 218 176 L 218.300 176.300 " transform="matrix(0.07425305992364883, -0.18262505531311035, 0.18262505531311035, 0.07425305992364883, 278.25, 126.6)"/>
      <path id="ID0.08606827817857265" fill="none" stroke="#009F9F" stroke-width="2" stroke-linecap="round" d="M 251 193 L 251.300 193.300 " transform="matrix(0.07425305992364883, -0.18262505531311035, 0.18262505531311035, 0.07425305992364883, 278.25, 126.6)"/>
      <path id="ID0.47025758773088455" fill="url(#grad_2)" stroke="#000000" stroke-width="2" d="M 234.500 159 C 240.983 159 246.858 161.633 251.113 165.887 C 255.367 170.142 258 176.017 258 182.500 C 258 188.983 255.367 194.858 251.113 199.113 C 246.858 203.367 240.983 206 234.500 206 C 228.017 206 222.142 203.367 217.887 199.113 C 213.633 194.858 211 188.983 211 182.500 C 211 176.017 213.633 170.142 217.887 165.887 C 222.142 161.633 228.017 159 234.500 159 Z " transform="matrix(0.07425305992364883, -0.18262505531311035, 0.18262505531311035, 0.07425305992364883, 278.25, 126.2)"/>
    </g>
    <path id="ID0.056579621974378824" fill="#FAA51D" stroke="#221E20" stroke-width="1" d="M 347.025 165.500 C 347.722 165.500 348.353 165.797 348.810 166.277 C 349.267 166.756 349.550 167.419 349.550 168.150 C 349.550 168.881 349.267 169.544 348.810 170.023 C 348.353 170.503 347.722 170.800 347.025 170.800 C 346.328 170.800 345.697 170.503 345.240 170.023 C 344.783 169.544 344.500 168.881 344.500 168.150 C 344.500 167.419 344.783 166.756 345.240 166.277 C 345.697 165.797 346.328 165.500 347.025 165.500 Z " transform="matrix(-0.10285475850105286, -0.40527212619781494, 0.40527212619781494, -0.10285475850105286, 292.95, 256.35)"/>
    <path id="ID0.056579621974378824" fill="#FAA51D" stroke="#221E20" stroke-width="1" d="M 347.025 165.500 C 347.722 165.500 348.353 165.797 348.810 166.277 C 349.267 166.756 349.550 167.419 349.550 168.150 C 349.550 168.881 349.267 169.544 348.810 170.023 C 348.353 170.503 347.722 170.800 347.025 170.800 C 346.328 170.800 345.697 170.503 345.240 170.023 C 344.783 169.544 344.500 168.881 344.500 168.150 C 344.500 167.419 344.783 166.756 345.240 166.277 C 345.697 165.797 346.328 165.500 347.025 165.500 Z " transform="matrix(-0.10285475850105286, -0.40527212619781494, 0.40527212619781494, -0.10285475850105286, 293.85, 257.95)"/>
    <path id="ID0.056579621974378824" fill="#FAA51D" stroke="#221E20" stroke-width="1" d="M 347.025 165.500 C 347.722 165.500 348.353 165.797 348.810 166.277 C 349.267 166.756 349.550 167.419 349.550 168.150 C 349.550 168.881 349.267 169.544 348.810 170.023 C 348.353 170.503 347.722 170.800 347.025 170.800 C 346.328 170.800 345.697 170.503 345.240 170.023 C 344.783 169.544 344.500 168.881 344.500 168.150 C 344.500 167.419 344.783 166.756 345.240 166.277 C 345.697 165.797 346.328 165.500 347.025 165.500 Z " transform="matrix(-0.10285475850105286, -0.40527212619781494, 0.40527212619781494, -0.10285475850105286, 295.45, 259.2)"/>
  </g>
  <g id="ID0.33164782216772437">
    <path id="ID0.261154024861753" fill="none" stroke="#FFFF00" stroke-width="2" d="M 142 199 L 430 199 L 430 252 L 142 252 L 142 199 Z " transform="matrix(1, 0, 0, 1, -141, -107)"/>
    <path id="ID0.7641077870503068" fill="none" stroke="#FFFF00" stroke-width="2" stroke-linecap="round" d="M 202 199 L 177 249 " transform="matrix(1, 0, 0, 1, -141, -107)"/>
    <path id="ID0.5904625146649778" fill="none" stroke="#FFFF00" stroke-width="2" stroke-linecap="round" d="M 249 200 L 222 255 " transform="matrix(1, 0, 0, 1, -141, -107)"/>
    <path id="ID0.20474033150821924" fill="none" stroke="#FFFF00" stroke-width="2" stroke-linecap="round" d="M 289 198 L 262 247 " transform="matrix(1, 0, 0, 1, -141, -107)"/>
    <path id="ID0.5952359545044601" fill="none" stroke="#FFFF00" stroke-width="2" stroke-linecap="round" d="M 360 196 L 325 256 " transform="matrix(1, 0, 0, 1, -141, -107)"/>
    <path id="ID0.5104959728196263" fill="none" stroke="#FFFF00" stroke-width="2" stroke-linecap="round" d="M 395 202 L 372 253 " transform="matrix(1, 0, 0, 1, -141, -107)"/>
  </g>
  <path id="ID0.9276474858634174" fill="url(#grad_3)" stroke="#FFFF00" stroke-width="2" d="M 170 71 L 258 71 L 258 150 L 170 150 L 170 71 Z " transform="matrix(0.8039652109146118, 0.10408664494752884, -0.10076376050710678, 0.7782992720603943, 182.1, -27.65)"/>
  <path id="ID0.2891867230646312" fill="#FFFF00" stroke="#CCCC00" stroke-width="2" stroke-linecap="round" d="M 378 62 L 452 103 L 439 171 L 414 165 L 412 119 L 363 106 L 341 160 L 437 169 L 433 206 L 303 212 L 329 83 L 378 62 Z " transform="matrix(1, 0, 0, 1, -38.25, -60.75)"/>
</svg>