<svg xmlns="http://www.w3.org/2000/svg" xmlns:xlink="http://www.w3.org/1999/xlink" version="1.1" width="22.519171178340912" height="25.47867053747177" viewBox="0.24706462025642395 0.3260646164417267 22.519171178340912 25.47867053747177">
  <!-- Exported by Scratch - http://scratch.mit.edu/ -->
  <g id="ID0.6742771565914154">
    <path id="ID0.7595136067830026" fill="#FFFFFF" stroke="#FFFFFF" stroke-width="1.8509804010391235" stroke-linecap="round" d="M 10.2722 9.9788 L 13.0486 7.9427 L 18.6941 8.0353 L 21.378 9.9788 L 21.378 24.4165 L 10.2722 24.4165 L 10.2722 9.9788 Z "/>
    <path id="ID0.42411027615889907" fill="#FFFFFF" stroke="none" d="M 13.2635 3.0675 L 18.5388 3.0675 L 18.5388 6.7694 L 13.2635 6.7694 L 13.2635 3.0675 Z " stroke-width="0.9254902005195618"/>
    <path id="ID0.14725566003471613" fill="#FFFFFF" stroke="#FFFFFF" stroke-width="1.8509804010391235" d="M 14.5294 5.7216 L 17.2133 5.7216 L 17.2133 8.4055 L 14.5294 8.4055 L 14.5294 5.7216 Z "/>
    <path id="ID0.6542115551419556" fill="#7F00FF" stroke="#FFFFFF" stroke-width="1.8509804010391235" d="M 12.1508 3.778 L 14.1869 3.778 L 14.1869 5.9067 L 12.1508 5.9067 L 12.1508 3.778 Z "/>
    <path id="ID0.5840605138801038" fill="none" stroke="#FFFFFF" stroke-width="2.7764706015586853" stroke-linecap="round" d="M 9.3488 4.428 L 9.6265 4.7057 "/>
    <path id="ID0.17570145102217793" fill="none" stroke="#FFFFFF" stroke-width="2.7764706015586853" stroke-linecap="round" d="M 7.2733 5.8822 L 7.551 6.1598 "/>
    <path id="ID0.5702755684033036" fill="none" stroke="#FFFFFF" stroke-width="2.7764706015586853" stroke-linecap="round" d="M 4.9043 3.5929 L 5.182 3.8706 "/>
    <path id="ID0.9550954201258719" fill="none" stroke="#FFFFFF" stroke-width="2.7764706015586853" stroke-linecap="round" d="M 1.998 5.4716 L 2.2757 5.7492 "/>
    <path id="ID0.5313424691557884" fill="none" stroke="#FFFFFF" stroke-width="2.7764706015586853" stroke-linecap="round" d="M 4.5065 7.3427 L 4.7841 7.6204 "/>
    <path id="ID0.952321243006736" fill="none" stroke="#FFFFFF" stroke-width="2.7764706015586853" stroke-linecap="round" d="M 1.6853 1.7143 L 1.9629 1.992 "/>
    <path id="ID0.2128029614686966" fill="none" stroke="#FFFFFF" stroke-width="2.7764706015586853" stroke-linecap="round" d="M 1.7322 8.8437 L 2.0098 9.1214 "/>
  </g>
  <g id="ID0.4462624555453658">
    <path id="ID0.7595136067830026" fill="#7F00FF" stroke="none" stroke-linecap="round" d="M 10.2722 9.9788 L 13.0486 7.9427 L 18.6941 8.0353 L 21.378 9.9788 L 21.378 24.4165 L 10.2722 24.4165 L 10.2722 9.9788 Z " stroke-width="0.9254902005195618"/>
    <path id="ID0.42411027615889907" fill="#7F00FF" stroke="none" d="M 13.2135 3.0675 L 18.4888 3.0675 L 18.4888 6.7694 L 13.2135 6.7694 L 13.2135 3.0675 Z " stroke-width="0.9254902005195618"/>
    <path id="ID0.14725566003471613" fill="#7F00FF" stroke="none" d="M 14.5294 5.7216 L 17.2133 5.7216 L 17.2133 8.4055 L 14.5294 8.4055 L 14.5294 5.7216 Z " stroke-width="0.9254902005195618"/>
    <path id="ID0.6542115551419556" fill="#7F00FF" stroke="none" d="M 12.1508 3.778 L 14.1869 3.778 L 14.1869 5.9067 L 12.1508 5.9067 L 12.1508 3.778 Z " stroke-width="0.9254902005195618"/>
    <path id="ID0.5840605138801038" fill="none" stroke="#7F00FF" stroke-width="1.8509804010391235" stroke-linecap="round" d="M 9.2988 4.428 L 9.5765 4.7057 "/>
    <path id="ID0.17570145102217793" fill="none" stroke="#7F00FF" stroke-width="1.8509804010391235" stroke-linecap="round" d="M 7.2733 5.8822 L 7.551 6.1598 "/>
    <path id="ID0.5702755684033036" fill="none" stroke="#7F00FF" stroke-width="1.8509804010391235" stroke-linecap="round" d="M 4.9043 3.5929 L 5.182 3.8706 "/>
    <path id="ID0.9550954201258719" fill="none" stroke="#7F00FF" stroke-width="1.8509804010391235" stroke-linecap="round" d="M 1.998 5.4716 L 2.2757 5.7492 "/>
    <path id="ID0.5313424691557884" fill="none" stroke="#7F00FF" stroke-width="1.8509804010391235" stroke-linecap="round" d="M 4.5065 7.3427 L 4.7841 7.6204 "/>
    <path id="ID0.952321243006736" fill="none" stroke="#7F00FF" stroke-width="1.8509804010391235" stroke-linecap="round" d="M 1.6353 1.7143 L 1.9129 1.992 "/>
    <path id="ID0.2128029614686966" fill="none" stroke="#7F00FF" stroke-width="1.8509804010391235" stroke-linecap="round" d="M 1.6822 8.8437 L 1.9598 9.1214 "/>
  </g>
</svg>