<svg version="1.1" xmlns="http://www.w3.org/2000/svg" xmlns:xlink="http://www.w3.org/1999/xlink" width="371.62748" height="369.56566" viewBox="0,0,371.62748,369.56566"><defs><linearGradient x1="236.12449" y1="29.24306" x2="236.12449" y2="382.86379" gradientUnits="userSpaceOnUse" id="color-1"><stop offset="0" stop-color="#000000"/><stop offset="1" stop-color="#00cdff"/></linearGradient><linearGradient x1="97.59735" y1="-85.00622" x2="97.59735" y2="150.24648" gradientUnits="userSpaceOnUse" id="color-2"><stop offset="0" stop-color="#005921"/><stop offset="1" stop-color="#00ff14"/></linearGradient><linearGradient x1="97.59735" y1="-85.00622" x2="97.59735" y2="150.24648" gradientUnits="userSpaceOnUse" id="color-3"><stop offset="0" stop-color="#005921"/><stop offset="1" stop-color="#00ff14"/></linearGradient><linearGradient x1="240.22228" y1="8.32441" x2="240.22228" y2="366.92017" gradientUnits="userSpaceOnUse" id="color-4"><stop offset="0" stop-color="#ffffff"/><stop offset="1" stop-color="#ffffff" stop-opacity="0"/></linearGradient><linearGradient x1="266.27318" y1="215.57809" x2="244.03812" y2="-16.65652" gradientUnits="userSpaceOnUse" id="color-5"><stop offset="0" stop-color="#ffffff" stop-opacity="0"/><stop offset="1" stop-color="#ffffff"/></linearGradient></defs><g transform="translate(-50.31852,-22.15089)"><g data-paper-data="{&quot;isPaintingLayer&quot;:true}" fill-rule="nonzero" stroke-linejoin="miter" stroke-miterlimit="10" stroke-dasharray="" stroke-dashoffset="0" style="mix-blend-mode: normal"><path d="M418.61311,204.3931c0,58.54548 9.14947,134.33922 -36.62674,165.7421c-29.11266,19.97154 -103.69001,7.68133 -142.05194,7.68133c-32.45404,0 -131.95625,12.62302 -158.18752,-2.05614c-53.52897,-29.9551 -20.49116,-107.08769 -20.49116,-171.36729c0,-54.03495 -6.07011,-123.319 33.84333,-155.12451c30.83473,-24.57103 101.82621,-18.29891 144.83535,-18.29891c46.24992,0 124.43168,-9.9717 156.16106,18.01246c35.97026,31.72447 22.51762,104.52148 22.51762,155.41097z" fill="url(#color-1)" stroke="none" stroke-width="0" stroke-linecap="butt"/><path d="" fill="url(#color-2)" stroke="#009c42" stroke-width="12.5" stroke-linecap="round"/><path d="" fill="url(#color-3)" stroke="#009c42" stroke-width="12.5" stroke-linecap="round"/><path d="M65.59254,135.24135l104.16535,-97.63235" fill="none" stroke="#00495a" stroke-width="12.5" stroke-linecap="round"/><path d="M240.48527,32.61625l-174.39724,164.68214" fill="none" stroke="#00637c" stroke-width="12.5" stroke-linecap="round"/><path d="M66.58352,251.84794l250.97383,-217.23469" fill="none" stroke="#007996" stroke-width="12.5" stroke-linecap="round"/><path d="M56.56852,324.41551l316.09444,-278.99208" fill="none" stroke="#0196bb" stroke-width="12.5" stroke-linecap="round"/><path d="M407.69298,74.44745c0,0 -77.41696,71.05526 -123.5346,113.38321c-58.68956,53.86677 -200.06734,183.62689 -200.06734,183.62689" fill="none" stroke="#00aed9" stroke-width="12.5" stroke-linecap="round"/><path d="M125.12708,385.46655l290.56892,-259.47256" fill="none" stroke="#00add7" stroke-width="12.5" stroke-linecap="round"/><path d="M413.18849,189.55255l-218.49684,190.4035" fill="none" stroke="#01a6cf" stroke-width="12.5" stroke-linecap="round"/><path d="M412.18248,242.60059c0,0 -19.08907,20.51072 -83.33006,77.00946c-58.62792,51.56215 -66.09772,57.83848 -66.09772,57.83848" fill="none" stroke="#00b1dd" stroke-width="12.5" stroke-linecap="round"/><path d="M320.17276,382.66317c36.74801,-32.6993 58.11903,-51.17198 93.25924,-82.07713" fill="none" stroke="#00b8e4" stroke-width="12.5" stroke-linecap="round"/><path d="M418.94825,187.62229c0,99.02348 -80.01835,179.29789 -178.72597,179.29789c-98.70764,0 -178.72597,-80.2744 -178.72597,-179.29789c0,-45.78041 0.58649,-105.57144 28.73226,-137.2574c32.73381,-36.85109 98.42197,-27.02548 151.49522,-27.02548c50.52257,0 124.67743,-5.99668 157.18377,27.81393c31.00239,32.24632 20.0407,88.12969 20.0407,136.46894z" fill="url(#color-4)" stroke="none" stroke-width="0" stroke-linecap="butt"/><path d="M61.27148,108.49387c-0.80957,-8.45561 4.66659,-11.96081 6.68563,-17.44423c2.62836,-7.13824 2.52717,-15.5428 7.0865,-21.24303c8.36903,-10.46323 17.73041,-21.69941 43.52237,-33.5711c31.22583,-14.37284 75.25162,-4.43611 117.67773,-6.33906c48.18459,-2.16124 66.25372,-4.46302 96.69831,-0.97876c11.42625,1.30769 38.7857,-5.59961 49.54534,1.72375c26.74793,18.20553 31.03766,35.36688 33.51943,61.28775c6.14004,64.12982 -38.50805,118.66006 -149.7336,123.64889c-111.22555,4.98883 -201.86466,-39.95141 -208.00471,-104.08122z" fill="url(#color-5)" stroke="none" stroke-width="0" stroke-linecap="butt"/></g></g></svg>