<svg xmlns="http://www.w3.org/2000/svg" xmlns:xlink="http://www.w3.org/1999/xlink" version="1.1" width="126" height="57" viewBox="-0.5 -0.5 126 57">
  <!-- Exported by Scratch - http://scratch.mit.edu/ -->
  <g id="ID0.6991516477428377">
    <path id="ID0.8804141147993505" fill="#FFDB43" d="M 125 36.500 C 125 47.270 116.270 56 105.500 56 L 19.500 56 C 8.730 56 0 47.270 0 36.500 L 0 19.500 C 0 8.730 8.730 0 19.500 0 L 105.500 0 C 116.270 0 125 8.730 125 19.500 L 125 36.500 Z " stroke-width="1"/>
    <path id="ID0.8106151130050421" d="M 34.220 28.610 L 28.540 28.610 L 28.540 37.270 C 28.540 38.510 28.250 39.450 27.660 40.090 C 27.070 40.730 26.340 41.050 25.450 41.050 C 24.520 41.050 23.770 40.730 23.200 40.100 C 22.630 39.470 22.340 38.540 22.340 37.310 L 22.340 13.720 C 22.340 12.360 22.650 11.380 23.280 10.800 C 23.910 10.220 24.900 9.920 26.260 9.920 L 34.210 9.920 C 36.560 9.920 38.370 10.100 39.640 10.460 C 40.890 10.810 41.970 11.390 42.890 12.190 C 43.800 13.000 44.490 13.980 44.970 15.150 C 45.450 16.320 45.680 17.630 45.680 19.100 C 45.680 22.220 44.720 24.580 42.800 26.190 C 40.880 27.800 38.020 28.610 34.220 28.610 Z M 32.710 14.580 L 28.540 14.580 L 28.540 23.930 L 32.710 23.930 C 34.170 23.930 35.390 23.780 36.370 23.470 C 37.350 23.160 38.100 22.660 38.610 21.970 C 39.120 21.270 39.380 20.360 39.380 19.240 C 39.380 17.890 38.980 16.790 38.190 15.940 C 37.310 15.030 35.480 14.580 32.710 14.580 Z " stroke-width="1" />
    <path id="ID0.31624083733186126" d="M 50.460 37.580 L 50.460 12.870 C 50.460 11.730 50.710 10.870 51.220 10.280 C 51.730 9.700 52.410 9.400 53.280 9.400 C 54.140 9.400 54.840 9.690 55.370 10.270 C 55.900 10.850 56.160 11.710 56.160 12.870 L 56.160 37.580 C 56.160 38.740 55.890 39.600 55.360 40.180 C 54.820 40.760 54.130 41.050 53.280 41.050 C 52.440 41.050 51.770 40.750 51.240 40.150 C 50.720 39.550 50.460 38.690 50.460 37.580 Z " stroke-width="1" />
    <path id="ID0.4420815189369023" d="M 76.450 37.830 C 75.070 38.900 73.740 39.710 72.450 40.240 C 71.160 40.780 69.720 41.040 68.120 41.040 C 66.660 41.040 65.380 40.750 64.270 40.170 C 63.160 39.590 62.310 38.810 61.710 37.820 C 61.110 36.830 60.810 35.760 60.810 34.610 C 60.810 33.050 61.300 31.720 62.290 30.620 C 63.280 29.520 64.640 28.780 66.360 28.410 C 66.720 28.330 67.620 28.140 69.050 27.850 C 70.480 27.560 71.710 27.290 72.740 27.050 C 73.760 26.810 74.870 26.510 76.070 26.160 C 76.000 24.660 75.700 23.550 75.160 22.850 C 74.620 22.150 73.520 21.800 71.830 21.800 C 70.380 21.800 69.290 22.000 68.560 22.400 C 67.830 22.800 67.200 23.410 66.680 24.220 C 66.160 25.030 65.790 25.560 65.570 25.820 C 65.350 26.080 64.890 26.210 64.180 26.210 C 63.540 26.210 62.990 26.000 62.520 25.590 C 62.050 25.180 61.820 24.650 61.820 24.010 C 61.820 23.010 62.170 22.030 62.880 21.090 C 63.590 20.140 64.700 19.360 66.200 18.750 C 67.700 18.140 69.570 17.830 71.820 17.830 C 74.320 17.830 76.290 18.130 77.730 18.720 C 79.170 19.310 80.180 20.250 80.770 21.530 C 81.360 22.810 81.660 24.510 81.660 26.620 C 81.660 27.960 81.660 29.090 81.650 30.020 C 81.640 30.950 81.630 31.990 81.620 33.130 C 81.620 34.200 81.800 35.320 82.150 36.480 C 82.500 37.640 82.680 38.390 82.680 38.720 C 82.680 39.300 82.400 39.840 81.860 40.320 C 81.310 40.800 80.690 41.040 79.990 41.040 C 79.410 41.040 78.830 40.770 78.260 40.220 C 77.690 39.670 77.080 38.880 76.450 37.830 Z M 76.070 29.590 C 75.240 29.900 74.020 30.220 72.430 30.560 C 70.840 30.900 69.730 31.150 69.120 31.310 C 68.510 31.470 67.920 31.780 67.370 32.250 C 66.810 32.720 66.530 33.370 66.530 34.200 C 66.530 35.060 66.860 35.800 67.510 36.400 C 68.160 37.010 69.020 37.310 70.080 37.310 C 71.210 37.310 72.250 37.060 73.200 36.570 C 74.150 36.080 74.850 35.440 75.300 34.660 C 75.810 33.800 76.070 32.380 76.070 30.400 L 76.070 29.590 Z " stroke-width="1" />
    <path id="ID0.17141745518893003" d="M 92.140 41.760 L 92.660 40.490 L 85.650 22.830 C 85.220 21.810 85 21.070 85 20.610 C 85 20.120 85.130 19.670 85.380 19.250 C 85.630 18.830 85.980 18.500 86.410 18.250 C 86.850 18 87.300 17.870 87.780 17.870 C 88.600 17.870 89.220 18.130 89.640 18.650 C 90.060 19.170 90.430 19.920 90.750 20.890 L 95.570 34.920 L 100.140 21.870 C 100.500 20.810 100.830 19.980 101.120 19.390 C 101.410 18.790 101.720 18.390 102.050 18.180 C 102.380 17.970 102.840 17.870 103.440 17.870 C 103.870 17.870 104.290 17.990 104.680 18.210 C 105.070 18.430 105.380 18.750 105.600 19.140 C 105.810 19.530 105.920 19.940 105.920 20.370 C 105.860 20.630 105.770 21.010 105.650 21.500 C 105.520 21.990 105.370 22.480 105.190 22.980 L 97.760 42.430 C 97.120 44.140 96.490 45.480 95.880 46.460 C 95.270 47.430 94.460 48.180 93.450 48.700 C 92.440 49.220 91.080 49.480 89.370 49.480 C 87.700 49.480 86.450 49.300 85.610 48.940 C 84.770 48.580 84.360 47.920 84.360 46.960 C 84.360 46.310 84.560 45.800 84.950 45.450 C 85.350 45.100 85.930 44.920 86.710 44.920 C 87.020 44.920 87.320 44.960 87.610 45.050 C 87.970 45.130 88.280 45.180 88.550 45.180 C 89.200 45.180 89.720 45.080 90.090 44.890 C 90.470 44.700 90.800 44.360 91.100 43.880 C 91.410 43.390 91.750 42.690 92.140 41.760 Z " stroke-width="1" />
  </g>
</svg>