<svg xmlns="http://www.w3.org/2000/svg" xmlns:xlink="http://www.w3.org/1999/xlink" version="1.1" width="92.07138612813638" height="72.54538515157388" viewBox="-0.2726925757869437 0.02730743613398523 92.07138612813638 72.54538515157388">
  <!-- Exported by Scratch - http://scratch.mit.edu/ -->
  <path id="ID0.5443468582816422" fill="#000000" stroke="#000000" stroke-width="1.3442560785934845" d="M 43.9523 31.7046 C 51.7296 31.7046 58.776 32.2765 63.8793 33.2004 C 68.9826 34.1243 71.936 35.4583 72.1408 36.8082 C 72.4062 38.5035 71.9239 40.7239 66.0422 41.851 C 60.195 42.8476 51.2333 41.9889 43.9523 41.9117 C 36.7987 41.8358 27.6788 42.3553 21.7692 41.3346 C 16.4648 40.325 15.4806 38.3733 15.7637 36.8082 C 16.0048 35.4624 18.9219 34.1243 24.0252 33.2004 C 29.1285 32.2765 36.1749 31.7046 43.9523 31.7046 Z "/>
  <path id="ID0.37750169076025486" fill="#FFFFFF" stroke="#000000" stroke-width="0.8471974517271978" d="M 56.8166 29.446 C 58.1559 29.446 59.3692 29.9841 60.2478 30.8541 C 61.1264 31.7235 61.6704 32.9247 61.6704 34.2499 C 61.6704 35.575 61.1264 36.7763 60.2478 37.6457 C 59.3692 38.5157 58.1559 39.0538 56.8166 39.0538 C 55.4774 39.0538 54.2641 38.5157 53.3854 37.6457 C 52.5068 36.7763 51.9628 35.575 51.9628 34.2499 C 51.9628 32.9247 52.5068 31.7235 53.3854 30.8541 C 54.2641 29.9841 55.4774 29.446 56.8166 29.446 Z "/>
  <path id="ID0.37750169076025486" fill="#FFFFFF" stroke="#000000" stroke-width="1.1104878126595163" d="M 46.4339 27.9129 C 48.4221 27.911 50.224 28.5832 51.5294 29.6714 C 52.8349 30.7589 53.6439 32.2625 53.6456 33.922 C 53.6472 35.5816 52.841 37.0867 51.5377 38.1768 C 50.2343 39.2675 48.4337 39.9432 46.4455 39.9451 C 44.4573 39.9471 42.6554 39.2749 41.3499 38.1867 C 40.0445 37.0991 39.2354 35.5955 39.2338 33.936 C 39.2322 32.2765 40.0383 30.7713 41.3417 29.6812 C 42.645 28.5905 44.4456 27.9148 46.4339 27.9129 Z "/>
  <path id="ID0.234124637208879" fill="#000000" stroke="black" stroke-width="1.178983154000629" stroke-linecap="round" d="M 56.8693 30.1284 C 57.2323 30.1284 57.5609 30.5773 57.7989 31.3033 C 58.0372 32.0292 58.1845 33.0314 58.1845 34.137 C 58.1845 35.2427 58.0372 36.2449 57.7989 36.9708 C 57.5609 37.6967 57.2323 38.1457 56.8693 38.1457 C 56.5062 38.1457 56.1776 37.6967 55.9397 36.9708 C 55.7013 36.2449 55.554 35.2427 55.554 34.137 C 55.554 33.0314 55.7013 32.0292 55.9397 31.3033 C 56.1776 30.5773 56.5062 30.1284 56.8693 30.1284 Z "/>
  <path id="ID0.234124637208879" fill="#000000" stroke="black" stroke-width="1.5453851515738875" stroke-linecap="round" d="M 46.0253 28.3243 C 46.5642 28.3237 47.0526 28.8855 47.4068 29.7943 C 47.7615 30.7031 47.9814 31.9579 47.9828 33.3426 C 47.9841 34.7272 47.7666 35.9825 47.4136 36.892 C 47.0612 37.8014 46.5739 38.3641 46.035 38.3647 C 45.4961 38.3652 45.0077 37.8034 44.6535 36.8946 C 44.2988 35.9859 44.0789 34.731 44.0775 33.3464 C 44.0762 31.9617 44.2937 30.7064 44.6467 29.797 C 44.999 28.8875 45.4864 28.3248 46.0253 28.3243 Z "/>
  <path id="ID0.033297700341790915_9_" fill="none" d="M 0.5 0.8 L 91.026 0.8 L 91.026 71.8 L 0.5 71.8 L 0.5 0.8 Z " stroke-width="0.7653684782999252"/>
</svg>