<svg version="1.1" width="84" height="101" viewBox="2 2 84 101" xmlns="http://www.w3.org/2000/svg" xmlns:xlink="http://www.w3.org/1999/xlink">
  <!-- Exported by Scratch - http://scratch.mit.edu/ -->
  <path id="ID0.9801845066249371" fill="#7F7F7F" stroke="#666666" stroke-width="2" stroke-linecap="round" d="M 216.500 157.500 C 228.845 154.521 242.759 161.221 252.906 168.857 C 261.229 175.119 268 185.835 268 196.250 C 268 206.665 261.229 217.381 252.906 223.643 C 242.759 231.279 228.849 237.962 216.500 235 C 198.672 230.724 170.531 206 171 204 C 171.469 202 203.608 219.917 221 219 C 232.892 218.086 241.667 206.636 251 199 C 253.333 197.091 254.696 195.075 251.500 193 C 238.715 184.699 226.050 172.964 211 172 C 196.681 171.312 170.728 190.441 171.500 188.500 C 172.273 186.558 198.811 161.768 216.500 157.500 Z " transform="matrix(0.06095873937010765, -0.998140275478363, 0.998140275478363, 0.06095873937010765, -165.7, 259.45)"/>
</svg>