<svg version="1.1" width="116" height="126" viewBox="-1 -1 116 126" xmlns="http://www.w3.org/2000/svg" xmlns:xlink="http://www.w3.org/1999/xlink">
  <!-- Exported by Scratch - http://scratch.mit.edu/ -->
  <g id="ID0.6097372467629611" transform="matrix(1, 0, 0, 1, 0.5, -0.5)">
    <g id="R_Wing">
      <path id="Inner_1_" fill="#936C54" d="M 101.755 57.690 C 103.106 55.607 104.668 55.058 105.863 52.918 C 106.209 52.291 105.422 51.844 105.267 51.140 C 104.603 48.270 105.347 46.493 106.167 43.702 C 106.976 40.993 108.487 40.025 109.979 37.653 C 111.876 34.670 113.598 33.236 116.721 31.794 C 113.848 28.005 113.311 25.211 112.354 20.594 C 111.500 16.452 114.813 13.402 112.617 9.734 C 108.575 14.114 108.106 17.895 104.417 22.553 C 102.149 25.427 100.163 26.496 98.381 29.700 C 97.015 32.146 96.464 33.883 94.331 35.692 C 91.790 37.854 91.800 40.694 91.979 44.071 C 92.125 46.946 91.782 48.603 91.815 51.515 C 91.919 57.754 90.990 61.121 90.377 67.336 C 93.606 68.114 94.894 64.640 97.487 62.425 C 99.627 60.597 100.921 60.437 101.755 57.690 Z " transform="matrix(-1, 0, 0, -1, 118.1, 125.25)"/>
      <path id="Outer_1_" fill="#CF9F70" d="M 113.113 5.639 C 113.644 10.325 109.958 14.683 107.126 20.022 C 104.313 25.279 102.361 28.121 98.413 32.546 C 102.282 32.961 105.208 29.623 109.226 29.902 C 106.099 33.966 96.617 35.812 95.062 37.243 C 94.034 38.192 100.314 46.679 101.581 51.026 C 98.202 49.524 96.922 47.109 93.941 44.543 C 93.948 48.243 93.218 61.959 91.314 68.336 C 90.840 69.900 88.353 70.720 87.433 69.466 C 86.105 67.641 88.073 65.834 88.579 63.549 C 89.682 58.569 89.553 55.612 90.302 50.547 C 91.053 45.482 91.086 42.910 89.901 37.463 C 88.759 32.227 95.850 31.455 98.790 27.131 C 104.455 18.863 107.193 14.878 113.113 5.639 Z " transform="matrix(-1, 0, 0, -1, 118.1, 125.25)"/>
      <path id="Outline_3_" d="M 118.088 32.495 C 108.897 35.499 103.557 46.563 107.123 52.605 C 107.050 52.963 95.500 67.972 92.084 67.447 C 92.750 66.667 102.917 56 104.963 52.820 C 103.298 44.119 107.670 35.155 115.565 31.703 C 112.376 26.151 111.141 19.899 111.742 13.475 C 108.011 20.060 104.513 26.940 99.231 32.359 C 99.231 32.359 111.856 27.536 113.419 28.680 C 112.827 30.228 99.348 36.940 95.161 37.495 C 97.625 41.997 103.062 51.873 103.062 51.873 C 99.187 51.316 96.260 48.174 94.219 44.913 C 94.353 50.425 94.564 62.351 91.591 67.182 C 91.245 67.430 90.842 67.915 90.378 67.624 C 92.144 61.256 93.314 51.132 92.714 44.550 C 92.865 43.993 92.795 43.129 93.480 42.961 C 96.201 44.416 97.564 47.669 100.351 49.018 C 97.950 45.245 95.378 41.512 93.933 37.200 C 95.995 35.493 103.111 34.150 106.868 31.506 C 103.844 31.901 99.945 34.205 95.931 34.010 C 96.929 32.533 98 31.254 99.023 30.108 C 103.453 25.135 110.883 14.218 112.905 6.964 C 110.706 10.563 99.795 30.630 90.496 35.515 C 90.287 36.727 91.025 38.144 91.228 39.361 C 92.114 44.729 92.294 66.084 87.201 68.834 L 86.763 68.422 C 88.709 60.983 90.548 51.502 90.265 43.745 C 90.171 41.152 89.351 38.546 89.257 36.074 C 89.185 34.125 93.069 31.580 94.466 30.294 C 99.118 26.007 107.915 14.798 114.135 0.535 L 114.959 0 C 117.729 4 108.104 20.024 118.088 32.495 Z " transform="matrix(-1, 0, 0, -1, 118.1, 125.25)"/>
    </g>
    <g id="Body">
      <g id="Body_1_">
        <path id="Body_Fill" fill="#CF9F70" d="M 102.057 79.334 C 102.057 76.779 104.507 75.312 104.994 72.841 C 106.598 64.712 108.528 57.588 102.743 51.554 C 100.092 55.283 93.819 66.638 93.819 66.638 C 93.819 66.638 90.524 65.967 88.547 65.787 C 87.151 62.700 84.379 59.266 82.167 55.576 C 80.157 52.224 76.541 48.537 75.094 48.704 C 73.447 48.895 72.563 53.021 72.362 56.079 C 71.918 62.240 72.440 66.303 73.325 71.835 C 67.297 75.689 63.519 78.287 59.983 84.486 C 56.566 90.437 58.536 93.958 58.536 100.831 C 58.536 106.234 56.446 112.896 48.730 110.217 C 45.930 109.242 44.590 107.283 41.657 107.366 C 40.250 107.408 39.005 107.450 38.282 108.709 C 37.478 110.091 39.929 111.223 41.496 111.223 C 40.210 112.731 38.080 114.452 39.407 115.915 C 40.613 117.256 42.300 116.586 43.908 115.915 C 43.788 117.633 44.390 120.105 45.997 119.771 C 49.132 119.099 49.855 115.411 53.070 115.411 C 58.013 115.411 61.187 114.574 64.323 109.210 C 67.065 111.093 69.908 111.285 73.108 111.486 L 72.744 112.818 C 70.953 115.795 67.770 116.454 64.626 116.092 C 63.881 116.006 62.662 116.271 62.969 117.644 C 63.277 119.015 68.181 116.956 68.341 117.523 C 68.502 118.092 64.092 119.162 65.313 121.099 C 66.533 123.037 70.623 118.678 71.371 119.370 C 72.120 120.062 68.514 121.609 69.714 122.828 C 70.914 124.043 75.054 119.049 72.571 116.807 C 72.748 116.313 74.337 113.495 75.436 111.628 C 79.512 111.830 82.436 111.432 86.022 108.873 C 89.559 106.359 91.688 104.307 93.579 100.325 C 95.468 96.346 95.748 91.607 100.010 91.107 C 101.900 90.896 103.503 91.107 104.670 89.599 C 105.636 88.338 104.871 86.578 104.351 85.073 C 103.464 82.602 102.057 81.975 102.057 79.334 Z " transform="matrix(-1, 0, 0, -1, 118.1, 125.25)"/>
        <path id="Outline_2_" d="M 103.270 78.098 C 103.537 77.598 103.788 77.091 104.038 76.585 C 104.383 76.027 105.184 74.650 105.184 74.573 C 107.547 68.151 108.411 58.124 105.063 52.028 C 104.549 51.092 103.624 49.740 102.436 50.419 C 99.526 55.540 97.219 61.057 93.632 65.733 C 92.126 65.060 90.423 65.242 88.831 65.020 C 87.471 60.984 78.953 45.127 73.915 47.558 C 71.515 52.392 70.726 66.149 72.972 70.987 C 72.316 71.425 71.674 71.877 71.070 72.347 L 71.074 72.349 C 68.136 73.949 62.687 78.810 59.178 84.737 C 53.820 93.786 60.685 103.920 55.112 109.232 C 51.938 112.257 48 107.691 45.110 106.789 C 39.446 105.019 33.538 109.587 40.129 112.101 C 36.917 114.435 38.505 118.946 43.338 117.337 C 42.980 117.898 42.530 118.683 42.881 119.243 C 44.831 122.364 49.814 119.931 51.282 115.905 C 57.229 117.223 62.481 112.904 64.007 109.930 C 64.014 109.936 64.018 109.940 64.025 109.946 C 64.961 110.588 67.569 111.445 70.586 112.036 C 68.020 115.252 63.669 111.708 60.912 115.674 C 60.138 116.787 60.545 119.771 63.479 119.560 C 62.434 120.691 63.599 125.802 67.980 123.331 C 71.676 126.425 74.771 121.948 74.289 117.086 C 74.601 115.679 76.187 114.173 77.595 112.702 C 78.647 112.668 79.634 112.556 80.489 112.334 C 86.719 110.665 93.063 105.423 95.007 98.747 C 95.007 98.747 95.908 96.262 95.902 94.893 C 97.408 94.182 98.824 93.257 100.092 92.074 C 100.799 91.906 100.353 91.468 103.869 91.141 C 104.877 90.881 106.041 90.458 106.436 90.166 C 106.220 88.282 104.612 85.884 103.873 83.595 C 103.859 83.562 102.557 79.441 103.270 78.098 Z M 72.569 116.809 C 75.052 119.050 70.912 124.044 69.712 122.830 C 68.512 121.612 72.118 120.064 71.369 119.372 C 70.621 118.682 66.531 123.040 65.311 121.101 C 64.090 119.163 68.500 118.094 68.339 117.525 C 68.179 116.958 63.275 119.017 62.967 117.646 C 62.660 116.273 63.879 116.008 64.624 116.094 C 67.768 116.454 70.951 115.795 72.742 112.820 L 72.945 112.428 C 73.573 112.513 74.204 112.586 74.829 112.635 C 73.955 114.038 72.794 116.178 72.569 116.809 Z M 103.801 88.736 C 100.739 88.978 97.550 90.279 94.487 89.332 C 88.575 87.503 81.764 86.588 76.483 90.761 L 76.483 91.774 C 78.354 91.715 79.987 90.336 81.744 89.752 C 83.694 89.101 86.041 89.125 87.745 89.453 C 90.733 89.515 93.202 91.643 96.145 91.895 C 90.809 96.416 81.081 94.249 80.770 94.457 C 80.686 96.355 83.043 96.503 83.916 96.603 C 87.552 97.007 91.351 96.710 94.763 95.382 C 94.167 96.582 93.535 98.283 93.406 98.623 C 89.863 106.552 83.443 110.323 75.175 110.631 C 71.973 110.751 67.274 109.575 64.029 108.521 C 63.739 108.424 63.515 108.530 63.416 108.730 C 63.412 108.734 63.407 108.736 63.403 108.741 C 61.554 110.797 58.778 116.291 49.914 114.062 C 49.696 117.545 45.477 119.853 44.941 118.232 C 44.406 116.615 47.446 115.119 46.885 114.241 C 46.324 113.363 42.543 115.539 41.513 115.672 C 40.482 115.804 40.373 115.078 41.113 114.241 C 41.852 113.406 45.156 111.390 44.941 110.665 C 44.728 109.941 39.433 111.579 40.141 109.355 C 40.574 107.995 42.773 108.156 43.927 108.472 C 47.492 109.457 50.405 114.816 56.202 110.900 C 62.994 106.312 55.895 94.368 60.717 85.633 C 64.726 78.365 72.080 73.396 72.564 73.085 C 74.326 71.716 82.754 68.694 83.635 67.042 C 85.097 64.297 75.975 51.550 75.975 51.550 C 78.299 56.041 80.498 60.623 82.151 65.433 C 80.768 66.596 77.341 68.233 74.070 70.278 C 74.210 68.759 73.266 65.976 73.232 65.433 C 72.929 60.593 73.667 54.319 75.576 49.881 C 83.396 54.555 86.704 65.882 88.722 67.162 C 90.649 66.971 92.492 67.191 94.323 67.579 C 94.710 67.321 100.703 57.081 103.011 52.144 C 106.067 58.112 105.686 63.725 104.897 70.142 C 104.741 71.421 104.543 72.754 104.061 73.936 C 103.713 74.787 103.283 75.621 102.893 76.455 C 102.725 75.660 102.254 74.246 102.229 73.957 C 102.034 71.749 100.061 69.664 98.576 68.890 C 100.748 65.731 102.506 59.513 102.403 54.886 C 100.862 59.414 99.549 64.062 97.203 68.293 C 97.203 68.293 98.776 69.648 100.057 71.749 C 101.153 73.542 101.953 75.966 102.723 76.834 C 101.964 78.535 101.467 80.248 102.324 82.125 C 102.334 82.146 102.960 83.890 103.004 83.938 C 103.688 85.568 104.505 87.350 103.801 88.736 Z " transform="matrix(-1, 0, 0, -1, 118.1, 125.25)"/>
      </g>
      <g id="L_Eye">
        <path id="Eyebrow" d="M 90.773 76.163 C 90.318 76.519 89.515 76.163 89.002 75.865 C 88.373 74.136 84.132 69.320 84.132 69.320 C 86.592 70.036 90.318 73.540 90.773 76.163 Z " transform="matrix(-1, 0, 0, -1, 118.1, 125.25)"/>
      </g>
      <g id="R_Eye">
        <path id="Eyebrow_1_" d="M 99.404 73.004 C 97.861 74.076 97.347 76.223 95.861 77.057 C 95.576 77.057 95.347 76.996 95.173 76.757 C 95.404 74.912 97.033 73.302 99.404 73.004 Z " transform="matrix(-1, 0, 0, -1, 118.1, 125.25)"/>
      </g>
      <g id="L_Tooth">
        <path id="ID0.7620876226574183" fill="#FFFFFF" d="M 85.473 92.416 C 84.540 92.416 84.096 91.230 83.741 90.277 C 83.647 90.031 83.567 89.810 83.492 89.665 L 83.246 89.191 L 83.733 88.976 C 84.014 88.851 84.366 88.788 84.774 88.788 C 85.449 88.788 86.083 88.961 86.108 88.968 L 86.574 89.098 L 86.463 89.567 C 86.448 89.645 86.474 89.924 86.492 90.129 C 86.567 90.950 86.680 92.191 85.682 92.396 C 85.613 92.408 85.542 92.416 85.473 92.416 L 85.473 92.416 Z " transform="matrix(-1, 0, 0, -1, 118.1, 125.25)"/>
        <path id="ID0.38098408142104745" d="M 84.771 89.288 C 85.386 89.288 85.974 89.450 85.974 89.450 C 85.861 89.928 86.383 91.738 85.578 91.904 C 85.541 91.912 85.505 91.916 85.470 91.916 C 84.685 91.916 84.259 90.062 83.933 89.434 C 84.180 89.325 84.479 89.288 84.771 89.288 M 84.771 88.288 C 84.292 88.288 83.875 88.366 83.530 88.517 L 82.552 88.949 L 83.045 89.894 C 83.101 90 83.187 90.230 83.269 90.452 C 83.660 91.492 84.193 92.916 85.470 92.916 C 85.575 92.916 85.681 92.904 85.785 92.883 C 87.215 92.588 87.059 90.897 86.985 90.082 C 86.971 89.932 86.954 89.728 86.955 89.641 L 87.168 88.744 L 86.238 88.488 C 86.167 88.466 85.502 88.288 84.771 88.288 L 84.771 88.288 Z " transform="matrix(-1, 0, 0, -1, 118.1, 125.25)"/>
      </g>
      <g id="R_Tooth">
        <path id="ID0.20855163177475333" fill="#FFFFFF" d="M 103.538 93.789 C 102.325 93.789 101.797 92.310 101.570 91.682 L 101.507 91.505 L 101.274 90.925 L 101.891 90.825 C 102.037 90.801 102.240 90.783 102.465 90.763 C 102.899 90.726 103.704 90.659 103.924 90.487 L 105.207 89.478 L 104.709 91.033 C 104.672 91.148 104.648 91.405 104.629 91.652 C 104.565 92.407 104.483 93.345 103.824 93.722 L 103.718 93.783 L 103.538 93.789 Z " transform="matrix(-1, 0, 0, -1, 118.1, 125.25)"/>
        <path id="ID0.22820778051391244" d="M 104.232 90.881 C 104.060 91.417 104.205 92.930 103.576 93.288 C 103.562 93.289 103.551 93.289 103.538 93.289 C 102.560 93.289 102.137 91.730 101.971 91.318 C 102.490 91.234 103.775 91.239 104.232 90.881 M 106.002 88.244 L 103.635 90.079 C 103.427 90.182 102.727 90.240 102.423 90.266 C 102.182 90.287 101.966 90.307 101.813 90.331 L 100.578 90.531 L 101.045 91.691 C 101.062 91.730 101.080 91.785 101.103 91.847 C 101.341 92.515 101.976 94.287 103.541 94.287 L 103.562 94.287 L 103.622 94.285 L 103.865 94.274 L 104.076 94.155 C 104.964 93.649 105.060 92.518 105.132 91.692 C 105.147 91.520 105.169 91.258 105.192 91.178 L 106.002 88.244 L 106.002 88.244 Z " transform="matrix(-1, 0, 0, -1, 118.1, 125.25)"/>
      </g>
    </g>
    <g id="L_Wing">
      <path id="Inner" fill="#936C54" d="M 4.683 7.474 C 8.178 14.807 10.163 19.079 12.238 26.916 C 15.211 38.145 15.251 45.646 11.113 56.080 C 19.593 56.080 26.263 62.365 30.082 70.327 C 31.770 73.846 31.930 74.014 32.814 77.870 C 33.457 80.719 32.814 83.191 34.904 85.076 C 36.109 86.166 37.435 84.320 38.922 83.566 C 46.156 79.795 51.541 79.378 59.337 81.386 C 62.873 82.310 66.571 86.455 68.501 83.232 C 69.625 81.347 71.876 80.924 71.876 78.708 C 71.876 76.109 69.346 75.439 68.179 73.175 C 65.205 67.477 62.713 64.083 62.391 57.588 C 61.789 45.312 59.739 33.034 48.246 29.766 C 42.619 28.174 39.324 28.299 33.618 27.084 C 26.665 25.576 23.652 21.763 18.025 17.363 C 15.533 15.435 13.323 15.687 10.630 14.009 C 8.138 12.460 6.772 9.652 4.683 7.474 Z " transform="matrix(-1, 0, 0, -1, 118.1, 125.25)"/>
      <path id="Outer" fill="#CF9F70" d="M 74.528 75.688 C 71.797 72.756 69.947 70.035 68.178 65.800 C 64.361 56.833 60.543 34.164 61.106 29.345 C 50.094 29.345 43.584 28.465 32.894 25.407 C 26.585 23.606 7.657 10.574 4.683 7.474 C 7.344 13.162 22.716 25.995 27.027 27.838 C 35.065 31.274 43.062 34.208 52.506 34.208 C 45.955 34.794 41.213 38.020 35.465 41.331 C 27.910 45.689 22.204 49.376 17.382 54.572 C 19.551 55.494 21.159 54.070 23.330 53.063 C 28.273 50.800 47.121 39.570 54.435 37.057 C 54.033 39.319 40.771 59.682 38.119 73.679 C 40.450 72.253 52.064 51.011 57.168 40.325 C 57.489 48.957 61.910 61.109 63.197 65.466 C 64.603 70.244 66.773 75.020 70.509 78.120 C 72.761 79.963 73.643 78.539 74.528 75.688 Z " transform="matrix(-1, 0, 0, -1, 118.1, 125.25)"/>
      <path id="Outline" d="M 74.601 75.031 C 66.319 62.573 62.511 43.922 62.369 28.966 C 62.142 28.670 61.769 28.219 61.399 28.131 C 57.736 27.271 51.729 28.700 46.768 27.834 C 40.101 26.670 34.453 25.149 28.249 22.232 C 22.439 19.499 15.681 15.825 10.817 11.506 C 9.877 10.669 5.705 5.479 4.269 5.622 C 3.977 5.652 3.963 6.445 4.040 6.635 C 4.495 7.766 5.228 9.014 6.131 10.315 C 14.992 28.338 15.964 47.789 9.960 57.451 C 20.211 56.909 29.379 68.304 32.192 77.592 C 32.368 78.168 33.625 87.376 35.500 86.376 C 37.451 85.941 38.682 85.446 39.452 84.921 C 45.054 81.109 52.310 80.752 58.940 81.885 C 62.026 82.301 64.656 83.852 67.456 84.922 C 67.398 84.209 66.886 83.673 66.369 83.193 C 58.615 77.474 43.429 77.679 35.643 84.435 C 34.324 72.919 24.755 56.882 12.703 55.723 C 14.101 53.888 15.351 51.315 15.732 48.988 C 17.069 40.824 14.150 25.107 10.131 17.941 C 9.833 17.409 8.770 14.887 7.665 12.374 C 12.506 18.405 20.407 25.037 25.048 27.418 C 32.034 31.002 40.113 34.409 47.966 34.688 C 37.336 38.751 27.879 44.185 19.161 51.731 C 18.375 52.411 17.264 53.699 17.250 54.918 L 18.237 55.054 C 18.386 55.085 20.669 54.735 20.818 54.711 C 27.720 53.587 43.383 42.163 52.586 38.817 C 52.586 38.817 38.067 62.879 37.393 75.448 C 41.729 73.952 53.515 47.906 56.882 42.435 C 58.287 54.114 61.659 73.525 72.141 80.335 L 72.256 79.023 C 65.718 69.703 58.051 54.234 57.968 38.561 C 57.454 38.191 56.872 38.648 56.482 38.978 C 50.935 50.015 46.095 61.503 39.222 71.753 C 39.887 62.618 56.126 36.305 55.961 35.548 C 55.866 35.108 38.519 43.259 22.990 52.863 C 21.452 53.435 19.669 53.858 18.706 54.592 C 20.606 52.696 22.531 50.044 24.533 48.453 C 30.375 43.812 44.802 37.257 51.967 34.985 C 52.981 34.664 54.111 34.611 54.824 33.674 C 54.715 33.425 54.425 32.995 54.138 32.959 C 52.827 32.795 51.193 33.066 49.826 33.006 C 46.297 32.849 42.650 32.310 39.222 31.409 C 29.877 28.955 20.772 24.490 13.847 17.406 C 12.631 16.162 11.241 14.885 10.532 13.235 C 22.756 23.075 41.093 32.197 60.313 30.099 C 59.701 42.700 64.594 67.802 74.201 76.342 C 74.652 76.062 74.656 75.504 74.601 75.031 Z " transform="matrix(-1, 0, 0, -1, 118.1, 125.25)"/>
    </g>
  </g>
  <path id="ID0.27985854959115386" fill="none" stroke="#000000" stroke-width="2" stroke-linecap="round" d="M 200.500 180 L 207.500 191 " transform="matrix(1, 0, 0, 1, -169, -140)"/>
  <path id="ID0.3387745264917612" fill="none" stroke="#000000" stroke-width="2" stroke-linecap="round" d="M 206 180.500 L 199.500 186 " transform="matrix(1, 0, 0, 1, -169, -140)"/>
  <path id="ID0.025437628384679556" fill="none" stroke="#000000" stroke-width="2" stroke-linecap="round" d="M 187.500 181 L 193 186 " transform="matrix(1, 0, 0, 1, -169, -140)"/>
  <path id="ID0.1465870994143188" fill="none" stroke="#000000" stroke-width="2" stroke-linecap="round" d="M 189 178.500 L 186 186 " transform="matrix(1, 0, 0, 1, -169, -140)"/>
</svg>