<svg xmlns="http://www.w3.org/2000/svg" xmlns:xlink="http://www.w3.org/1999/xlink" xmlns:a="http://ns.adobe.com/AdobeSVGViewerExtensions/3.0/" version="1.1" x="0px" y="0px" width="43.3489990234375" height="60.74300003051758" viewBox="0 0 43.3489990234375 60.74300003051758" enable-background="new -10.046 -1.319 64 64" xml:space="preserve">
  <defs/>
  <g>
    <path fill="#594419" d="M11.037,59.743c-2.14,0-3.864-0.633-5.126-1.881C4.644,56.607,4,55.104,4,53.391&#13;&#10;&#9;c0-1.062,0.35-2.346,1.067-3.929c0.696-1.534,1.453-2.725,2.312-3.638c3.054-3.169,5.846-5.921,8.311-8.189&#13;&#10;&#9;c2.529-2.327,4.307-3.828,5.433-4.588c1.748-1.236,3.24-2.509,4.406-3.76c1.125-1.209,1.989-2.454,2.566-3.7&#13;&#10;&#9;c0.551-1.188,0.83-2.353,0.83-3.465c0-1.179-0.267-2.194-0.816-3.105c-0.553-0.913-1.284-1.604-2.235-2.111&#13;&#10;&#9;c-0.978-0.521-2.017-0.773-3.179-0.773c-2.444,0-4.319,1.054-5.734,3.224c-0.049,0.075-0.292,0.505-0.981,2.47&#13;&#10;&#9;c-0.603,1.72-1.285,3.032-2.086,4.011c-0.679,0.828-1.957,1.815-4.193,1.815c-1.573,0-2.908-0.537-3.966-1.597&#13;&#10;&#9;c-1.059-1.059-1.596-2.474-1.596-4.207c0-1.778,0.397-3.644,1.183-5.542c0.786-1.9,1.969-3.645,3.52-5.184&#13;&#10;&#9;c1.555-1.54,3.532-2.792,5.88-3.726C17.057,6.471,19.808,6,22.899,6c3.705,0,6.931,0.6,9.592,1.782&#13;&#10;&#9;c1.795,0.82,3.38,1.954,4.726,3.376c1.344,1.421,2.402,3.082,3.148,4.939c0.747,1.864,1.127,3.821,1.127,5.818&#13;&#10;&#9;c0,3.115-0.788,5.993-2.34,8.554c-1.479,2.442-3.026,4.397-4.599,5.81c-1.479,1.328-3.972,3.427-7.411,6.237&#13;&#10;&#9;c-3.075,2.513-5.274,4.516-6.548,5.963h14.682c2.135,0,3.837,0.482,5.056,1.433c1.319,1.029,2.017,2.492,2.017,4.232&#13;&#10;&#9;c0,1.538-0.523,2.864-1.555,3.942c-1.05,1.099-2.571,1.656-4.522,1.656H11.037z" stroke-width="1"/>
    <linearGradient id="SVGID_1_" gradientUnits="userSpaceOnUse" x1="20.1743" y1="1" x2="20.1743" y2="54.7432">
      <stop offset="0" style="stop-color:#FFFFFF"/>
      <stop offset="1" style="stop-color:#FFD38F"/>
    </linearGradient>
    <path fill="url(#SVGID_1_)" stroke="#594419" stroke-width="2" d="M8.037,54.743c-2.14,0-3.864-0.633-5.126-1.881&#13;&#10;&#9;C1.644,51.607,1,50.104,1,48.391c0-1.062,0.35-2.346,1.067-3.929c0.696-1.534,1.453-2.725,2.312-3.638&#13;&#10;&#9;c3.054-3.169,5.846-5.921,8.311-8.189c2.529-2.327,4.307-3.828,5.433-4.588c1.748-1.236,3.24-2.509,4.406-3.76&#13;&#10;&#9;c1.125-1.209,1.989-2.454,2.566-3.7c0.551-1.188,0.83-2.353,0.83-3.465c0-1.179-0.267-2.194-0.816-3.105&#13;&#10;&#9;c-0.553-0.913-1.284-1.604-2.235-2.111c-0.978-0.521-2.017-0.773-3.179-0.773c-2.444,0-4.319,1.054-5.734,3.224&#13;&#10;&#9;c-0.049,0.075-0.292,0.505-0.981,2.47c-0.603,1.72-1.285,3.032-2.086,4.011c-0.679,0.828-1.957,1.815-4.193,1.815&#13;&#10;&#9;c-1.573,0-2.908-0.537-3.966-1.597c-1.059-1.059-1.596-2.474-1.596-4.207c0-1.778,0.397-3.644,1.183-5.542&#13;&#10;&#9;c0.786-1.9,1.969-3.645,3.52-5.184c1.555-1.54,3.532-2.792,5.88-3.726C14.057,1.471,16.808,1,19.899,1&#13;&#10;&#9;c3.705,0,6.931,0.6,9.592,1.782c1.795,0.82,3.38,1.954,4.726,3.376c1.344,1.421,2.402,3.082,3.148,4.939&#13;&#10;&#9;c0.747,1.864,1.127,3.821,1.127,5.818c0,3.115-0.788,5.993-2.34,8.554c-1.479,2.442-3.026,4.397-4.599,5.81&#13;&#10;&#9;c-1.479,1.328-3.972,3.427-7.411,6.237c-3.075,2.513-5.274,4.516-6.548,5.963h14.682c2.135,0,3.837,0.482,5.056,1.433&#13;&#10;&#9;c1.319,1.029,2.017,2.492,2.017,4.232c0,1.538-0.523,2.864-1.555,3.942c-1.05,1.099-2.571,1.656-4.522,1.656H8.037z"/>
  </g>
</svg>