<svg version="1.1" xmlns="http://www.w3.org/2000/svg" xmlns:xlink="http://www.w3.org/1999/xlink" width="283.284" height="327" viewBox="0,0,283.284,327"><g transform="translate(-98.358,-17.75)"><g data-paper-data="{&quot;isPaintingLayer&quot;:true}" fill-rule="nonzero" stroke-linejoin="miter" stroke-miterlimit="10" stroke-dasharray="" stroke-dashoffset="0" style="mix-blend-mode: normal"><path d="M99.608,19h280.784v322h-86.92408c-0.67129,-0.1392 -1.38813,-0.21671 -2.15052,-0.22416c-7.08037,-0.06914 -14.16091,-0.12569 -21.24156,-0.16997c-1.26638,-0.48962 -2.77694,-0.77701 -4.54421,-0.80887c-21.44096,-0.38656 -42.89201,-0.36594 -64.33333,0c-0.25427,0 -0.50632,0.00949 -0.75582,0.02814c-1.41801,0.08368 -2.49109,0.33495 -3.3437,0.7445c-9.594,0.04866 -19.18784,0.11768 -28.78138,0.2062c-0.14044,0 -0.2802,0.00289 -0.41922,0.00863c-0.7597,0.02463 -1.42577,0.09715 -2.0151,0.21554h-20.82433c-15.14935,-0.15731 -30.30031,-0.21776 -45.45074,-0.17231z" fill="#808080" stroke="#000000" stroke-width="2.5" stroke-linecap="butt"/><path d="M280.9375,19v321" fill="none" stroke="#000000" stroke-width="2.5" stroke-linecap="round"/><text transform="matrix(0.5 0 0 0.5 306.9375 37.5)" font-size="40"  fill="#000000" fill-rule="nonzero" stroke="none" stroke-width="1" stroke-linecap="butt" stroke-linejoin="miter" stroke-miterlimit="10" stroke-dasharray="" stroke-dashoffset="0" font-family="Helvetica" font-weight="normal" text-anchor="start" style="mix-blend-mode: normal" >PULL</text><g fill="#000000" stroke="none" stroke-width="1" stroke-linecap="butt" font-family="Sans Serif" font-weight="normal" font-size="40" text-anchor="start"><text transform="matrix(0.5 0 0 0.5 327.9375 60.5)" font-size="40"  fill="#000000" fill-rule="nonzero" stroke="none" stroke-width="1" stroke-linecap="butt" stroke-linejoin="miter" stroke-miterlimit="10" stroke-dasharray="" stroke-dashoffset="0" font-family="Helvetica" font-weight="normal" text-anchor="start" style="mix-blend-mode: normal" >l</text><text transform="matrix(0.5 0 0 0.5 322.9375 71.5)" font-size="40"  fill="#000000" fill-rule="nonzero" stroke="none" stroke-width="1" stroke-linecap="butt" stroke-linejoin="miter" stroke-miterlimit="10" stroke-dasharray="" stroke-dashoffset="0" font-family="Helvetica" font-weight="normal" text-anchor="start" style="mix-blend-mode: normal" >\/</text></g><text transform="matrix(0.5 0 0 0.5 303.9375 93.5)" font-size="40"  fill="#000000" fill-rule="nonzero" stroke="none" stroke-width="1" stroke-linecap="butt" stroke-linejoin="miter" stroke-miterlimit="10" stroke-dasharray="" stroke-dashoffset="0" font-family="Helvetica" font-weight="normal" text-anchor="start" style="mix-blend-mode: normal" >HOLD</text><g data-paper-data="{&quot;index&quot;:null}"><path d="M298.27484,190.32143v-29.33929h64.35714v29.33929z" fill="#cccccc" stroke="#000000" stroke-width="1.5" stroke-linecap="butt"/><path d="M307.73912,189.375v-27.44643h13.25v27.44643z" fill="#000000" stroke="#000000" stroke-width="1.5" stroke-linecap="butt"/><path d="M338.97126,189.375v-27.44643h13.25v27.44643z" fill="#000000" stroke="#000000" stroke-width="1.5" stroke-linecap="butt"/><g fill="none" stroke-linecap="round"><path d="M314.36412,213.98214v-38.80357" stroke="#bfbfbf" stroke-width="5"/><path d="M346.06948,175.17857v38.80357" stroke="#c0c0c0" stroke-width="5"/><path d="M290.98438,212.41147h79.5" stroke="#c0c0c0" stroke-width="7.5"/><path d="M290.98438,201.91518v20.58482" stroke="#c0c0c0" stroke-width="7.5"/><path d="M370.48438,201.91518v20.58482" stroke="#c0c0c0" stroke-width="7.5"/></g></g><path d="" fill="#c4b996" stroke="none" stroke-width="NaN" stroke-linecap="butt"/><path d="" fill="#c4b996" stroke="none" stroke-width="NaN" stroke-linecap="butt"/><path d="M247.48545,338.08057c4.19303,-3.69302 9.82979,-6.78818 12.90544,-8.53796c-1.22412,1.90392 -2.28685,5.4691 -3.06687,10.12618c-3.79896,-0.05025 -7.59816,-0.08798 -11.39748,-0.11351c0.48912,-0.50065 1.01173,-0.99277 1.55892,-1.47471z" fill="#c4b996" stroke="none" stroke-width="0" stroke-linecap="butt"/><path d="" fill="#c4b996" stroke="none" stroke-width="0" stroke-linecap="butt"/><path d="" fill="#c4b996" stroke="none" stroke-width="0" stroke-linecap="butt"/><path d="M260.39089,284.54261c0.64349,-1.00084 1.33157,-1.54261 2.04661,-1.54261c0.60283,0 -0.31685,0.55853 -2.04661,1.54261z" fill="#c4b996" stroke="none" stroke-width="0" stroke-linecap="butt"/><path d="" fill="#c4b996" stroke="none" stroke-width="0" stroke-linecap="butt"/><path d="" fill="#c4b996" stroke="none" stroke-width="0" stroke-linecap="butt"/><path d="" fill="#c4b996" stroke="none" stroke-width="0" stroke-linecap="butt"/><path d="M252.06088,320.85173c0.2957,0.36156 0.13502,0.54754 0,0z" fill="#c4b996" stroke="none" stroke-width="0" stroke-linecap="butt"/><path d="" fill="#c4b996" stroke="none" stroke-width="0" stroke-linecap="butt"/><path d="" fill="#c4b996" stroke="none" stroke-width="0" stroke-linecap="butt"/><path d="" fill="#c4b996" stroke="none" stroke-width="0" stroke-linecap="butt"/><path d="" fill="#c4b996" stroke="none" stroke-width="0" stroke-linecap="butt"/><path d="M168.09339,328.17244c9.23022,-9.82518 30.23002,-5.09136 34.96716,-0.64107c3.18079,2.98818 13.10109,8.15579 11.51605,14.69031c-1.69122,-0.15417 -3.38277,-0.30311 -5.07515,-0.4385c-3.9945,-0.33288 -7.989,-0.66576 -11.9835,-0.99864l-2.83045,-0.03454c0,0 -5.42884,0 -8.28651,4c-7.68717,0 -15.37434,0 -23.06151,0c-0.36686,-6.09532 0.77581,-12.34305 4.7539,-16.57756z" fill="#c4b996" stroke="none" stroke-width="0" stroke-linecap="butt"/><path d="M240.42744,339.83565c3.02837,-4.91242 -8.85286,-33.7172 -4.20601,-35.65762c5.80393,-2.4236 28.34116,22.92964 33.56297,26.14875c3.63982,2.24385 2.22141,7.88923 0.91911,13.37377c-0.67371,0.02963 -1.34612,0.04945 -2.01601,0.04945c-5.66667,0 -11.33333,-0.0013 -17,0c-5.86699,0.00135 -11.73916,0.25467 -17.60096,0.00796c-2.31867,-0.09759 -4.63428,-0.24519 -6.94813,-0.42155c2.28713,-1.61024 10.21776,1.48124 13.28903,-3.50076z" data-paper-data="{&quot;index&quot;:null}" fill="#c4b996" stroke="none" stroke-width="0" stroke-linecap="butt"/><path d="" data-paper-data="{&quot;index&quot;:null}" fill="#c4b996" stroke="none" stroke-width="0" stroke-linecap="butt"/></g></g></svg>