<svg version="1.1" xmlns="http://www.w3.org/2000/svg" xmlns:xlink="http://www.w3.org/1999/xlink" width="591.59159" height="445.58559" viewBox="0,0,591.59159,445.58559"><g transform="translate(55.7958,105.7928)"><g data-paper-data="{&quot;isPaintingLayer&quot;:true}" fill-rule="nonzero" stroke="none" stroke-linecap="butt" stroke-linejoin="miter" stroke-miterlimit="10" stroke-dasharray="" stroke-dashoffset="0" style="mix-blend-mode: normal"><path d="M-55.7958,339.7928v-445.58559h591.59159v445.58559z" fill="#000000" stroke-width="0"/><path d="M22.14334,143.1563c1.62111,0.40527 1.88778,1.62321 1.88638,2.38638c1.7637,-0.02086 3.05433,-0.53226 5.43834,-1.2656c6.69475,-2.05936 12.71794,-5.45951 19.23813,-8.00496c2.95633,-1.15414 5.9014,-2.37618 8.68632,-3.89807c1.01716,-0.55585 2.27571,-0.86138 2.99126,-1.77327c0.2846,-0.36268 -0.48665,-0.79197 -0.63614,-1.22807c-0.37799,-1.10277 -0.4651,-2.30383 -0.9395,-3.36868c-1.74967,-3.92737 -5.15135,-7.52803 -7.80168,-10.83954c-5.65671,-7.19938 -10.52865,-14.54235 -14.18324,-22.98992c-1.80697,-4.17679 -3.32683,-6.60336 -1.19239,-11.24652c0.54281,-1.18081 1.9099,-1.78295 3.00125,-2.48859c2.83533,-1.83325 6.09641,-3.03015 9.35573,-3.82514c9.70441,-2.36704 19.96673,-3.0595 29.90368,-3.0595c0,0 2.5,0 2.5,2.5c0,2.5 -2.5,2.5 -2.5,2.5c-9.56216,0 -19.38117,0.6816 -28.72856,2.91944c-3.80645,0.9113 -4.58304,1.44983 -7.87383,3.20079c-0.45211,0.24056 -1.12657,0.29427 -1.33371,0.76263c-1.05282,2.38047 0.51862,4.69839 1.43778,6.70817c3.67194,8.02881 8.09181,14.98923 13.53132,21.91232c3.90185,4.87933 8.42562,9.82986 9.68241,16.13649c0.27455,1.37774 1.11689,2.95549 0.44761,4.19064c-1.4183,2.61741 -7.09957,5.47082 -9.75306,6.67417c-3.88846,1.76341 -7.92864,3.03269 -11.80196,4.85476c-7.18751,3.38112 -14.80032,7.56238 -22.91533,6.30089l-1.47249,-5.2398c0,0 0.60634,-2.42535 3.03169,-1.81902z" fill="#ffffff" stroke-width="0.5"/><path d="M91.77076,128.7837c0,2.5 -2.5,2.5 -2.5,2.5l-0.29318,-0.1283c-1.34726,0.40401 -2.63582,1.25207 -4.04179,1.21204c-5.33949,-0.15204 -7.6286,-4.3417 -9.79037,-8.36467c-1.43464,-2.66981 -3.62824,-5.21202 -2.97737,-8.5957c1.0876,-5.65407 5.41317,-8.71151 9.81713,-11.50191c0,0 2.12,-1.32499 3.44499,0.795c1.325,2.11999 -0.795,3.44499 -0.795,3.44499c-3.22567,1.98361 -6.49814,3.97317 -7.52271,8.0054c-0.3851,1.51559 2.14851,4.95046 2.44133,5.49293c1.03151,1.91099 2.40231,5.89002 5.38199,5.72396c0.87851,-0.04896 1.64044,-0.63697 2.46066,-0.95545l1.87431,-0.12829c0,0 2.5,0 2.5,2.5z" fill="#ffffff" stroke-width="0.5"/><path d="M115.42268,109.96039c-1.76776,1.76776 -3.53553,0 -3.53553,0l-0.87772,-0.89934c-1.35165,-1.08512 -2.35503,-2.92315 -4.05664,-3.25325c-2.58464,-0.50141 -3.70325,5.5374 -3.81493,6.96612c-0.37682,4.82072 0.71411,9.90915 -0.00656,14.68961c-0.36852,2.44447 -1.17125,4.80494 -1.65543,7.22914c0,0 -0.49029,2.45145 -2.94174,1.96116c-2.45145,-0.49029 -1.96116,-2.94174 -1.96116,-2.94174c0.46097,-2.30185 1.23065,-4.5405 1.59579,-6.85948c0.91581,-5.81614 -1.02724,-11.89514 0.60689,-17.67605c1.06076,-3.75254 3.69629,-8.6949 8.5765,-8.35278c1.88011,0.1318 5.33971,3.18374 6.78076,4.33293l1.28977,1.26815c0,0 1.76776,1.76777 0,3.53554z" fill="#ffffff" stroke-width="0.5"/><path d="M245.81962,100.86432c2.45145,0.49029 1.96116,2.94174 1.96116,2.94174l-0.49332,2.21906c0.3821,1.71877 0.73325,3.44444 1.07157,5.17236c-0.03621,3.76874 -1.32431,5.95317 -2.22904,9.51889c-0.99143,3.90746 -2.21503,7.22334 -5.90154,9.59559c-1.41587,0.9111 -5.96531,2.55389 -7.80421,3.05544c-1.67533,0.45694 -7.05973,1.3396 -8.10471,0.97557c-1.42362,-0.49591 -5.36933,-7.174 -5.65867,-7.79467c-0.50281,-1.0786 -0.96742,-2.20233 -1.388,-3.35921c-1.44249,3.1558 -3.65402,6.43775 -4.865,9.28351l0.61349,-0.14454c0,0 0.79057,2.3717 -1.58114,3.16227c-2.37171,0.79057 -3.16228,-1.58113 -3.16228,-1.58113l-0.47025,-3.39577c1.19225,-2.7972 2.47819,-5.55644 3.85711,-8.26649c0.39924,-0.78465 3.0389,-4.66064 2.19936,-6.37225c-0.33122,-0.67527 -1.29385,-0.78892 -2.00374,-1.03742c-1.86952,-0.65443 -5.87796,-0.87156 -7.67892,-0.07363c-2.36973,1.04993 -4.17834,5.23775 -5.54585,7.28696c-0.74179,1.11157 -1.48716,2.10487 -2.27872,3.03087c-0.13363,1.4073 -0.3242,2.80597 -0.59567,4.1925c0,0 -0.49029,2.45145 -2.94174,1.96116c-1.17938,-0.23587 -1.67789,-0.92567 -1.87768,-1.57802c-0.67592,0.13126 -1.53125,0.01558 -2.29355,-0.9373c-0.08019,-0.10023 -0.15112,-0.19944 -0.21352,-0.29746c-0.34065,0.52127 -0.78252,0.81585 -0.78252,0.81585l-2.60137,1.4696c-4.23225,0.70501 -8.97736,2.06996 -13.06858,-0.31752c-4.37019,-2.55027 -3.82649,-5.22884 -4.44676,-9.37403c-0.45132,-3.01612 -0.3536,-6.23963 0.61098,-9.16467c-5.16447,2.26121 -10.45884,3.50638 -16.01838,4.74208c0,0 -2.06495,0.45888 -2.81805,-1.36702c0.25328,2.29932 0.65079,4.58062 1.39621,6.80591l-0.06207,-0.43533c0,0 1.76776,1.76777 0,3.53554c-1.76776,1.76776 -3.53554,0 -3.53554,0l-1.14581,-1.51907c-0.45744,-1.37849 -0.87912,-2.74711 -1.23544,-4.12747c-0.44501,1.00104 -1.56285,1.37365 -1.56285,1.37365l-2.46152,0.66975c-3.38697,-0.06297 -6.79308,-0.19006 -10.19326,-0.38995c-0.16747,1.59856 -0.26628,3.23209 -0.26628,4.93467l0.27794,-0.0343c0,0 1.11804,2.23607 -1.11803,3.3541c-2.23607,1.11803 -3.3541,-1.11804 -3.3541,-1.11804l-0.80581,-2.20177c0,-1.82124 0.10457,-3.56961 0.28192,-5.28145c-0.03428,-0.00277 -0.06857,-0.00554 -0.10285,-0.00832c-1.82898,3.54654 -3.81266,7.0046 -5.83087,10.3691c0,0 -1.28624,2.14373 -3.42997,0.85749c-2.14373,-1.28624 -0.85749,-3.42997 -0.85749,-3.42997c1.67611,-2.79282 3.35528,-5.67513 4.94127,-8.6325c-0.5617,-0.38312 -1.0692,-1.06082 -0.95017,-2.25116c0.24876,-2.48759 2.73635,-2.23883 2.73635,-2.23883c0.16231,0.01632 0.32469,0.03244 0.48714,0.04837c2.83037,-5.82933 5.13896,-11.91037 6.23913,-18.14018l-0.25218,-3.02614c-0.00732,-0.07793 -0.01107,-0.15689 -0.01107,-0.23674c0,-1.38071 1.11929,-2.5 2.5,-2.5c1.28919,0 2.35047,0.97582 2.4855,2.22913l0.34172,2.79685l-0.10697,0.01307l0.01207,0.14484l0.11285,0.1953c-0.02089,0.13022 -0.04224,0.26036 -0.06404,0.39041l0.12546,1.50552l-0.07655,0.00638c0.03378,0.07866 0.06225,0.16045 0.08479,0.24573c0.721,2.72833 -0.47455,5.63365 -0.99392,8.40743c-0.56443,3.01444 -1.18486,5.82801 -1.68569,8.63897c3.19141,0.18171 6.38736,0.29669 9.56378,0.3528l0.7897,-0.41399c0,0 1.49714,-0.49904 2.50892,0.48534c-0.1967,-1.09867 -0.34106,-2.21362 -0.41897,-3.35512c-0.30072,-4.40605 0.27515,-9.2377 -1.4531,-13.33737c0,0 -0.92847,-2.32119 1.39272,-3.24966c2.32119,-0.92847 3.24967,1.39271 3.24967,1.39271c1.87434,4.87283 1.83981,10.1476 2.27572,15.38039c0.35475,-1.37551 1.90507,-1.72002 1.90507,-1.72002c5.84054,-1.29763 11.39003,-2.55174 16.77593,-5.22016l0.42221,-0.60958c0,0 1.76777,-1.76776 3.53554,0c0.04074,0.04074 0.07961,0.08148 0.11666,0.1222c0.1376,-0.12399 0.27871,-0.24582 0.42341,-0.36541c1.07965,-0.8923 2.63061,-0.96298 3.94591,-1.44447c0,0 2.3717,-0.79058 3.16227,1.58113c0.79057,2.37171 -1.58114,3.16228 -1.58114,3.16228c-5.25046,1.48487 -5.99771,6.60253 -5.36103,11.35629c0.26866,2.00597 -0.28674,4.61404 2.05568,5.79833c2.87281,1.45245 6.77258,0.16897 9.68996,-0.31752l0.64986,-0.69788c0,0 2.08013,-1.38675 3.46688,0.69338c0.03089,0.04632 0.06005,0.0923 0.08755,0.13793c0.27911,-0.44221 0.60554,-0.70335 0.60554,-0.70335c0.94996,-0.75018 1.78726,-1.56932 2.55519,-2.43314c0.53555,-7.28998 -0.30676,-14.83373 0.87553,-22.03544l0.77178,-1.79078c0,0 1.11803,-2.23606 3.35411,-1.11803c2.23607,1.11803 1.11803,3.3541 1.11803,3.3541l-0.31195,0.3767c-0.79796,4.7077 -0.73521,9.53973 -0.7339,14.36015c0.7341,-0.99713 1.51082,-1.97698 2.38243,-2.91025c0.9035,-0.96741 1.69339,-2.16352 2.8955,-2.7177c2.9178,-1.34513 8.79978,-1.54846 12.78439,0.18945c-0.08988,-2.43326 0.06643,-4.83446 0.51268,-7.11359c0,0 0.49029,-2.45145 2.94174,-1.96116c2.45145,0.49029 1.96116,2.94174 1.96116,2.94174c-1.32019,6.43893 0.32681,14.21557 3.08407,20.16866c0.63727,1.3759 1.67118,2.53273 2.42993,3.84555c0.24741,0.42809 0.09873,1.25711 0.58132,1.36467c1.64076,0.36568 3.27839,-0.74963 4.90018,-1.1919c3.5169,-0.95908 8.11083,-2.47641 9.73816,-6.1892c0.8741,-1.99428 0.81104,-4.29883 1.56092,-6.34306c0.50676,-1.38146 0.96773,-2.84118 0.94337,-4.31247c-0.38631,-1.88416 -0.74688,-3.77362 -1.0959,-5.66504l0.59042,-3.19964c0,0 0.4903,-2.45145 2.94174,-1.96116z" fill="#ffffff" stroke-width="0.5"/><path d="M266.24044,123.03185c-0.06018,0.59969 -0.30554,1.22143 -0.09479,1.77615c1.12624,2.96447 4.19788,5.88748 6.10971,8.43625c0,0 1.5,2 -0.5,3.5c-2,1.5 -3.5,-0.5 -3.5,-0.5c-1.9451,-2.5938 -4.78961,-5.57738 -6.31301,-8.62941c0.2337,1.35856 0.31128,2.85555 -0.34888,4.0262c-2.02427,3.58952 -8.67314,4.04446 -12.08443,5.42441l-1.76352,0.59239c0,0 -2.37171,0.79057 -3.16228,-1.58114c-0.79057,-2.37171 1.58114,-3.16228 1.58114,-3.16228l1.4877,-0.49135c2.65818,-1.05302 5.29482,-1.59258 7.94562,-2.62778c0.54552,-0.21304 1.25011,-0.18502 1.64476,-0.61774c0.83052,-0.91065 -0.83657,-2.35005 -1.54237,-3.36045c-0.82752,-1.18463 -1.99784,-2.1144 -2.76441,-3.33936c-3.12166,-4.98831 -3.56208,-11.40832 1.114,-15.68458c0.90062,-0.82362 2.23738,-0.97573 3.35607,-1.46359c0,0 2.32119,-0.92847 3.24966,1.39272c0.92847,2.32119 -1.39272,3.24967 -1.39272,3.24967c-0.68754,0.23463 -1.50711,0.23573 -2.06264,0.70388c-5.19507,4.37805 1.63411,10.26548 3.9797,14.70388c-0.07134,-0.8354 0.08145,-1.71333 0.07316,-2.55659c-0.04825,-4.90703 0.76026,-7.31914 3.69864,-11.18087c0.89207,-1.17239 1.22548,-3.10751 2.63008,-3.55182c4.56404,-1.44371 7.62841,1.23573 7.88307,5.5209c0.22194,3.73452 -3.88368,6.54483 -6.15093,8.81208l-2.30964,0.73224c0,0 -0.33708,-0.00001 -0.7637,-0.12378zM267.32293,117.33744c0.20683,-0.20645 0.41427,-0.41228 0.62278,-0.61704c1.00745,-0.98933 2.16245,-1.67146 2.51898,-3.10907c0.10094,-0.407 -0.5325,-1.31491 -0.78685,-0.98153c-0.39781,0.52141 -0.28004,1.30673 -0.62115,1.86687c-0.76151,1.25053 -1.32257,2.09365 -1.73377,2.84077z" fill="#ffffff" stroke-width="0.5"/><path d="M292.54062,112.56186c-1.11804,2.23607 -3.3541,1.11803 -3.3541,1.11803l0.45056,-1.31981c-1.17478,0.80008 -1.88428,2.17045 -2.51161,3.44587c-0.86097,1.75044 -2.57033,3.09258 -3.08155,4.97513c-0.70469,2.59501 0.3901,6.3046 0.62406,8.88012c0.1923,2.11687 0.22104,4.25138 0.52526,6.35509c0,0 0.35356,2.47487 -2.12132,2.82843c-2.47487,0.35356 -2.82842,-2.12132 -2.82842,-2.12132c-0.70324,-4.97844 -2.36426,-12.3549 -1.01816,-17.27699c0.33661,-1.23081 1.24805,-2.22617 1.89117,-3.32826c1.86093,-3.18901 2.57376,-5.41899 5.52057,-7.75807l4.78551,0.84768c0,0 2.23606,1.11803 1.11803,3.3541z" fill="#ffffff" stroke-width="0.5"/><path d="M315.16202,128.20752c0.23854,-0.47709 0.52799,-0.80149 0.83575,-1.01664c-0.15181,-0.21639 -0.27799,-0.4481 -0.3675,-0.70171c-1.5398,-4.3622 0.35618,-5.46583 2.35055,-8.77347c3.10546,-5.15037 8.47798,-12.16598 15.70589,-10.33058c1.48938,0.3782 2.88902,1.13631 4.13862,2.03062c2.10852,1.50904 5.15682,5.04739 5.3669,7.81145c0.36183,4.76074 -6.17925,11.4073 -9.8834,13.70382c-3.5217,2.1834 -7.66356,1.43642 -11.57577,1.43642c-0.29109,0 -0.58217,0 -0.87326,0c-0.50157,1.62561 -2.37796,1.62561 -2.37796,1.62561h-1.62561c-4.21584,-0.01707 -8.24535,1.73656 -12.42396,1.6253c-4.07807,-0.10858 -8.80136,-0.15536 -9.58306,-5.71187c-0.25574,-1.81791 4.04202,-5.66215 5.06689,-6.68364c3.31022,-3.2993 5.42404,-6.75211 4.24824,-11.60849c-0.13455,-0.55576 -0.05349,-1.24696 -0.45515,-1.65395c-1.46556,-1.48506 -5.409,-0.67592 -7.03303,-0.38553c0,0 -2.46598,0.411 -2.87698,-2.05498c-0.411,-2.46598 2.05498,-2.87699 2.05498,-2.87699c3.47301,-0.54613 8.52411,-1.07017 11.39056,1.78196c4.21292,4.19188 2.28983,13.32704 -0.88099,17.39492c-0.0202,0.02592 -5.24716,5.30224 -5.50058,5.51817c-0.28591,0.24362 -0.96456,0.11815 -1.01455,0.49043c-0.046,0.34258 0.53325,0.49875 0.8737,0.55848c1.19484,0.20965 2.41969,0.27929 3.63186,0.23209c3.60314,-0.1403 6.9617,-1.19312 10.51835,-1.52568c0.03944,-0.27266 0.13059,-0.56791 0.28951,-0.88575zM322.62825,127.39262c2.59523,0.129 5.98736,0.65607 8.12004,-0.75626c2.45877,-1.62829 5.03857,-4.79003 6.68242,-7.19734c0.37824,-0.55391 0.84139,-1.19004 0.77403,-1.85739c-0.2297,-2.27573 -3.73548,-4.72957 -5.66685,-5.33028c-1.64619,-0.51201 -2.93432,0.76163 -4.26816,1.42855c-3.93784,1.96892 -3.57299,2.75742 -6.03571,6.66444c-1.84276,2.92347 -3.14774,3.26067 -0.35886,5.58782c0,0 0.60471,0.60471 0.75309,1.46045z" fill="#ffffff" stroke-width="0.5"/><path d="M356.16395,128.81559c0.29769,0.37512 0.89893,1.31269 0.50513,2.37983c0.24825,0.1085 0.48377,0.21202 0.70335,0.31099c0.43329,0.19529 4.85292,2.30036 5.73832,2.37111c0.17131,0.01369 5.50511,-0.58913 5.51243,-1.38599c0.01307,-1.42496 -1.90279,-3.09119 -2.46869,-4.10865c-1.29264,-2.32411 -1.35827,-3.56673 -3.43896,-5.23524c-2.50029,1.5025 -5.09292,3.20336 -6.55156,5.66795zM350.91938,128.21405c2.34963,-5.35707 6.76917,-8.20718 12.19549,-10.05044c3.79118,2.04883 4.27746,1.56909 6.3147,5.06029c1.46102,2.50374 4.69515,7.65907 4.03375,10.52184c-0.91539,3.96215 -7.4497,5.39833 -10.74367,5.11646c-1.91648,-0.16399 -5.653,-2.00448 -7.40708,-2.79981c-5.63463,-2.55485 -13.25152,-6.32461 -12.77408,-13.93928c0.10712,-1.70844 1.15989,-3.22703 1.8947,-4.77309c1.52488,-3.2084 3.94783,-5.73903 6.41871,-8.21582c0,0 1.76777,-1.76776 3.53553,0c1.76776,1.76776 0,3.53554 0,3.53554c-2.27634,2.2704 -6.5561,6.28799 -6.85895,9.76963c-0.21465,2.46757 1.34941,4.33536 3.39091,5.77469z" fill="#ffffff" stroke-width="0.5"/><path d="M373.21695,109.79849c-0.85553,-0.00263 -1.7347,-0.06459 -2.664,-0.23817c0,0 -2.45145,-0.4903 -1.96116,-2.94174c0.49029,-2.45145 2.94174,-1.96116 2.94174,-1.96116c1.68662,0.3685 3.77899,0.22625 5.87735,0.13465c0.12489,-0.12013 1.81956,-1.68776 3.5175,-0.00346c3.22097,0.24175 5.85248,1.46832 6.16161,6.11335c0.14348,2.15586 -1.14387,4.60141 -2.59567,6.79083c0.96073,0.37683 1.72075,0.69123 1.91778,0.81552c4.41102,2.78259 8.79579,6.72584 10.79461,11.51438c0.42013,1.24724 1.38088,2.43115 1.26039,3.74173c-0.18387,1.99999 -3.59305,7.66445 -5.65361,8.27407c-1.5332,0.45361 -3.16631,-0.64433 -4.60538,-1.34113c-3.24444,-1.57097 -7.8539,-5.55111 -9.97246,-8.28929c-1.21713,-1.5731 -2.45328,-3.2194 -3.0931,-5.10266c-0.90777,-2.67194 0.02056,-5.02421 1.47048,-7.28241c-2.86919,-1.28982 -5.75728,-2.53386 -5.34701,-6.67059c0.0788,-0.7945 0.94419,-2.17365 1.95092,-3.55391zM381.33189,122.11853c-0.70972,0.96003 -1.88534,2.71963 -1.38309,3.80845c1.80196,3.9064 4.9476,6.024 8.26884,8.41361c0.87417,0.62895 1.69221,1.33357 2.50788,2.03673c0.29273,0.25235 0.47291,1.00935 0.81332,0.82635c0.52323,-0.28128 0.42082,-1.11443 0.69896,-1.63933c0.36778,-0.69405 1.16427,-1.22532 1.23361,-2.00773c0.0561,-0.63305 -0.60472,-1.11799 -0.90709,-1.67697c-1.90694,-5.07589 -6.53849,-7.63891 -11.23244,-9.7611zM379.77651,109.52949c-1.22107,1.42292 -2.76846,2.63965 -3.53737,4.34075c-0.46139,1.02077 1.8051,1.37479 2.8477,1.78446c0.01198,0.00471 0.20858,0.07696 0.53047,0.19583c1.13921,-1.59779 2.1249,-3.2196 2.47267,-4.94855c0.22173,-1.10233 -1.117,-1.28662 -1.76586,-1.3382c-0.18443,-0.01467 -0.3669,-0.02595 -0.54762,-0.03429z" fill="#ffffff" stroke-width="0.5"/><path d="M436.89349,135.33771c0.49029,2.45145 -1.96116,2.94174 -1.96116,2.94174l-2.70935,0.54187c-2.07396,0.41455 -4.15765,0.78089 -6.24466,1.12377c-4.38147,0 -10.52942,2.04613 -14.4789,-0.87867c-1.70535,-1.2629 -3.86832,-2.88135 -3.93771,-5.00227c-0.05883,-1.79808 2.35239,-2.72888 3.64379,-3.9814c1.69094,-1.64005 4.7214,-2.87404 5.06742,-5.56491c0.74406,-5.78629 -3.8472,-14.91132 -10.26702,-16.00612c-2.41814,-0.41238 -6.34483,1.97677 -8.37672,3.00073c0,0 -2.23607,1.11803 -3.35411,-1.11804c-1.11804,-2.23607 1.11804,-3.3541 1.11804,-3.3541c2.9393,-1.45946 7.6642,-4.07209 11.1306,-3.50171c9.20364,1.51441 16.13336,13.21969 14.659,21.92478c-0.60137,3.55066 -3.83103,6.80461 -6.85372,8.52371c-0.52438,0.29824 -1.55978,-0.21003 -1.77492,0.35356c-0.18288,0.47909 0.98602,0.28235 1.481,0.41642c0.95607,0.25895 1.89226,0.61705 2.87203,0.76259c2.76678,0.41099 5.84265,-0.55751 8.65884,-0.55751c1.89684,-0.32138 3.79001,-0.66618 5.67648,-1.04371l2.70935,-0.54187c0,0 2.45145,-0.49029 2.94174,1.96116z" fill="#ffffff" stroke-width="0.5"/><path d="M442.57003,141.03733c-2.5,0 -2.5,-2.5 -2.5,-2.5l0.00852,-2.91555c1.0862,-6.45426 4.466,-10.71778 8.75671,-15.54972c1.48339,-1.6705 2.85745,-3.44591 4.45784,-5.00469c0.77564,-0.75548 2.85934,-1.1952 2.40844,-2.17961c-0.14486,-0.31625 -0.57047,0.45301 -0.91485,0.50203c-0.87405,0.12443 -1.76951,0.08707 -2.64858,0.00527c-1.52789,-0.14217 -3.04216,-0.41074 -4.55365,-0.67545c-7.41152,-1.29798 -14.8622,-2.35007 -22.25963,-3.69294c0,0 -2.45967,-0.44721 -2.01246,-2.90689c0.44721,-2.45967 2.90689,-2.01246 2.90689,-2.01246c8.55938,1.55879 17.62161,3.51529 26.28999,4.30153c1.87723,0.17027 6.18171,-0.58058 7.27398,1.59104c2.8833,5.73253 -0.50274,6.09322 -3.01026,8.65779c-4.69268,4.79946 -10.59875,10.61206 -11.71147,17.37649l0.00852,2.50315c0,0 0,2.5 -2.5,2.5z" fill="#ffffff" stroke-width="0.5"/></g></g></svg>