<svg xmlns="http://www.w3.org/2000/svg" xmlns:xlink="http://www.w3.org/1999/xlink" version="1.1" width="418.2" height="315.043994140625" viewBox="-0.6 0.556000018119812 418.2 315.043994140625">
  <!-- Exported by Scratch - http://scratch.mit.edu/ -->
  <g id="ID0.2415749109350145">
    <path id="ID0.2856518356129527" fill="#FAA51D" stroke="#000000" stroke-width="1.2" d="M 231.832 153.78 C 229.841 153.781 227.876 152.869 226.601 151.144 L 215.643 136.324 C 214.321 134.536 214.004 132.197 214.804 130.122 L 221.383 113.054 C 222.675 109.704 226.44 108.038 229.786 109.326 C 233.136 110.618 234.805 114.38 233.514 117.729 L 228.219 131.466 L 237.054 143.415 C 239.188 146.302 238.578 150.371 235.692 152.506 C 234.529 153.366 233.175 153.78 231.832 153.78 L 231.832 153.78 Z "/>
    <path id="ID0.46319058258086443" fill="#FAA51D" stroke="#000000" stroke-width="1.2" d="M 239.561 184.125 C 239.54 184.125 239.519 184.125 239.498 184.125 L 219.416 183.977 C 216.992 183.961 214.725 182.775 213.33 180.792 C 211.934 178.81 211.584 176.274 212.389 173.988 L 218.385 156.941 L 209.575 138.571 C 207.784 134.836 209.36 130.356 213.095 128.565 C 216.828 126.775 221.311 128.35 223.101 132.085 L 233.253 153.257 C 234.113 155.051 234.226 157.112 233.566 158.988 L 230.029 169.046 L 239.624 169.125 C 243.766 169.159 247.096 172.545 247.062 176.688 C 247.025 180.807 243.674 184.125 239.561 184.125 L 239.561 184.125 Z "/>
    <path id="ID0.7152078151702881_1_" fill="#FAA51D" stroke="#000000" d="M 185.323 140.748 C 181.414 143.016 176.357 145.283 170.327 145.147 C 156.843 144.843 144.708 135.648 141.838 143.178 C 138.965 150.715 154.75 168.857 176.499 159.922 C 183.997 156.847 189.324 152.279 193.536 148.453 C 194.636 147.444 203.511 138.287 202.702 130.687 C 201.892 123.086 198.582 123.868 196.888 124.179 C 195.193 124.494 190.849 137.54 185.323 140.748 L 185.323 140.748 Z " stroke-width="1"/>
    <path id="ID0.4691764716990292_1_" fill="#FFFFFF" d="M 142.93 142.859 C 140.892 146.099 144.636 153.514 150.208 157.176 C 155.785 160.844 159.903 161.02 163.267 161.464 C 166.642 161.078 159.383 158.979 160.188 154.045 C 160.99 149.126 167.085 145.897 167.085 145.897 C 167.085 145.897 158.249 143.827 153.043 142.459 C 148.082 141.124 145.288 139.613 142.93 142.859 L 142.93 142.859 Z " stroke-width="1"/>
    <path id="ID0.26425604708492756_1_" fill="#FAA51D" stroke="#231F20" stroke-width="1.2" d="M 226.836 141.586 C 229.021 139.908 231.244 137.168 234.103 132.918 C 236.486 129.375 239.068 122.661 239.068 122.661 C 240.676 118.025 242.625 110.568 235.57 109.244 C 232.715 108.709 228.069 109.064 221.466 107.817 C 214.859 106.564 208.965 103.179 203.965 111.923 C 198.967 120.671 186.329 127.132 202.023 142.381 L 226.836 141.586 Z "/>
    <path id="ID0.06476658303290606" fill="#FAA51D" stroke="#000000" stroke-width="1.2" d="M 214.948 186.204 L 190.489 186.204 C 187.765 186.204 185.256 184.727 183.932 182.346 C 182.61 179.965 182.682 177.054 184.121 174.742 L 196.832 154.317 L 196.925 135.759 C 196.946 131.629 200.3 128.296 204.424 128.296 C 204.437 128.296 204.449 128.296 204.462 128.296 C 208.605 128.317 211.945 131.692 211.925 135.833 L 211.821 156.514 C 211.814 157.903 211.422 159.261 210.688 160.44 L 203.989 171.205 L 214.947 171.205 C 219.09 171.205 222.447 174.562 222.447 178.705 C 222.447 182.848 219.091 186.204 214.948 186.204 L 214.948 186.204 Z "/>
    <path id="ID0.203311821911484_1_" fill="#FFFFFF" d="M 235.111 129.49 C 235.111 129.49 239.653 124.598 230.571 119.712 C 221.489 114.826 217.306 119.681 214.501 122.509 C 209.639 127.392 219.832 138.667 219.832 138.667 L 226.673 140.559 C 226.673 140.559 229.868 137.531 231.269 135.081 C 232.874 132.848 235.111 129.49 235.111 129.49 " stroke-width="1"/>
    <path id="ID0.59592011757195" fill="#FAA51D" d="M 212.392 141.379 C 209.085 144.738 203.274 144.38 199.413 140.579 C 195.551 136.779 195.101 130.973 198.409 127.614 C 201.716 124.254 207.528 122.611 211.389 126.412 C 217.961 132.88 218.323 135.351 212.392 141.379 Z " stroke-width="1"/>
    <path id="ID0.4675603983923793_1_" fill="#FAA51D" stroke="#231F20" stroke-width="1.2" d="M 234.479 16.803 C 231.647 16.54 225.744 16.222 222.493 16.378 C 213.799 16.792 205.531 19.923 205.531 19.923 L 181.591 4.3 L 185.7 39.068 C 186.888 37.629 166.29 62.613 179.303 83.614 C 192.324 104.626 220.189 113.989 254.677 107.137 C 289.167 100.28 297.394 80.415 295.109 69.907 C 292.825 59.399 279.805 55.52 279.805 55.52 C 279.805 55.52 279.64 47.282 273.685 37.186 C 270.143 31.176 258.333 22.399 258.333 22.399 L 253.075 1.156 L 239.372 14.404 L 234.479 16.803 L 234.479 16.803 Z "/>
    <path id="ID0.876089540310204_1_" fill="#FFFFFF" d="M 278.081 55.255 L 273.517 51.46 L 256.755 56.353 C 256.755 56.353 256.755 62.641 248.725 64.383 C 240.689 66.133 228.109 60.196 228.109 60.196 L 213.793 66.48 C 213.793 66.48 198.277 68.185 197.723 77.662 C 196.485 98.724 222.327 107.504 232.119 108.063 C 237.462 108.371 247.263 107.441 254.696 105.964 C 287.341 100.017 296.165 80.368 293.884 69.857 C 291.6 59.349 279.212 56.625 279.212 56.625 L 278.081 55.255 L 278.081 55.255 Z " stroke-width="1"/>
    <path id="ID0.44282719027251005_1_" fill="none" stroke="#231F20" stroke-width="1.2" d="M 157.177 75.647 C 157.177 75.647 164.73 76.335 168.163 76.14 C 171.593 75.944 178.263 75.061 178.263 75.061 "/>
    <path id="ID0.893105489667505_1_" fill="none" stroke="#231F20" stroke-width="1.2" d="M 287.71 65.563 C 287.71 65.563 296.075 64.196 300.323 62.713 C 305.315 60.982 308.677 58.033 308.677 58.033 "/>
    <path id="ID0.03574043000116944_1_" fill="none" stroke="#231F20" stroke-width="1.2" d="M 178.626 67.839 C 178.626 67.839 174.242 64.57 167.378 61.531 C 159.775 58.165 155.6 57.296 155.6 57.296 "/>
    <path id="ID0.6674723788164556_1_" fill="none" stroke="#231F20" stroke-width="1.2" d="M 288.558 76.506 C 288.558 76.506 293.572 78.535 298.733 79.053 C 303.828 79.561 307.277 79.255 307.277 79.255 "/>
    <path id="ID0.12165586883202195_1_" fill="none" stroke="#000000" stroke-linecap="round" d="M 233.818 16.906 C 239.04 18.193 240.965 19.607 240.965 19.607 " stroke-width="1"/>
    <path id="ID0.178104005753994_1_" fill="none" stroke="#000000" d="M 199.886 15.935 L 211.027 23.949 " stroke-width="1"/>
    <path id="ID0.7735752793960273_1_" fill="#FFFFFF" stroke="#231F20" d="M 269.659 37.417 C 275.036 45.653 275.236 55.055 270.104 58.408 C 264.967 61.764 256.448 57.799 251.063 49.557 C 245.669 41.319 245.479 31.924 250.615 28.566 C 255.747 25.214 264.276 29.175 269.659 37.417 L 269.659 37.417 Z " stroke-width="1"/>
    <path id="ID0.19106501014903188_1_" fill="#231F20" d="M 268.278 50.578 C 268.278 52.563 266.803 54.175 264.967 54.175 C 263.141 54.175 261.652 52.563 261.652 50.578 C 261.652 48.592 263.141 46.976 264.967 46.976 C 266.804 46.976 268.278 48.591 268.278 50.578 " stroke-width="1"/>
    <path id="ID0.06283409334719181_1_" fill="#FFFFFF" stroke="#231F20" d="M 225.574 43.4 C 230.955 51.638 230.389 61.536 224.321 65.495 C 218.249 69.466 208.965 65.995 203.586 57.757 C 198.202 49.519 198.761 39.625 204.833 35.658 C 210.907 31.693 220.188 35.158 225.574 43.4 L 225.574 43.4 Z " stroke-width="1"/>
    <path id="ID0.716460831463337_1_" fill="#231F20" d="M 222.286 54.227 C 222.286 56.215 220.809 57.827 218.973 57.827 C 217.149 57.827 215.659 56.212 215.659 54.227 C 215.659 52.242 217.149 50.628 218.973 50.628 C 220.806 50.628 222.286 52.242 222.286 54.227 " stroke-width="1"/>
    <path id="ID0.5430324394255877_1_" fill="#5E4A42" stroke="#000000" d="M 247.456 60.514 C 250.865 60.514 255.832 59.993 256.093 61.561 C 256.357 63.133 252.95 69.29 250.599 69.551 C 248.24 69.813 239.335 65.224 239.206 62.344 C 239.07 59.465 244.31 60.514 247.456 60.514 L 247.456 60.514 Z " stroke-width="1"/>
    <path id="ID0.5547774969600141_1_" fill="none" stroke="#231F20" stroke-width="1.2" d="M 223.564 73.956 C 223.564 73.956 242.591 79.572 249.708 81.122 C 256.821 82.671 269.663 84.22 269.663 84.22 C 269.663 84.22 254.97 103.06 237.798 98.277 C 220.626 93.5 220.937 82.672 223.564 73.956 L 223.564 73.956 Z "/>
    <path id="ID0.6480262982659042" fill="#FAA51D" stroke="#000000" stroke-width="1.2" d="M 214.241 152.983 C 212.193 152.983 210.178 152.018 208.914 150.214 L 198.279 135.051 C 196.82 132.971 196.707 130.231 197.989 128.037 L 208.008 110.905 C 209.821 107.805 213.806 106.766 216.901 108.575 C 220 110.388 221.043 114.369 219.231 117.468 L 211.316 131 L 219.556 142.749 C 221.618 145.688 220.907 149.742 217.967 151.803 C 216.832 152.6 215.53 152.983 214.241 152.983 L 214.241 152.983 Z "/>
  </g>
  <path id="ID0.7151001119054854" fill="none" stroke="#C6EDFF" stroke-width="0.1" d="M 0 297 L 24 297 L 24 315 L 0 315 L 0 297 Z "/>
  <path id="ID0.6023072763346136" fill="none" stroke="#C6EDFF" stroke-width="0.1" d="M 391 297 L 417 297 L 417 315 L 391 315 L 391 297 Z "/>
</svg>