<svg xmlns="http://www.w3.org/2000/svg" xmlns:xlink="http://www.w3.org/1999/xlink" version="1.1" width="26.526432037353516" height="44.493099212646484" viewBox="0.30916619300842285 0.08539998531341553 26.526432037353516 44.493099212646484">
  <!-- Exported by Scratch - http://scratch.mit.edu/ -->
  <g id="ID0.9808851568959653">
    <path id="ID0.12919439608231187" fill="#404040" stroke="#333333" d="M 3.2963 44.0785 C -0.0936 41.0378 0.0077 27.0937 3.4414 24.1026 L 26.1648 34.2557 L 3.2963 44.0785 Z " stroke-width="0.7552847724255821"/>
    <path id="ID0.7512953788973391" fill="#808080" d="M 2.9655 39.2759 C 1.5165 36.1593 2.204 27.0602 3.9343 25.7282 L 22.6985 33.6969 L 2.9655 39.2759 Z " stroke-width="0.7552847724255821"/>
    <path id="ID0.27147613279521465" fill="#B3B3B3" d="M 3.0267 35.6382 C 2.6592 32.1605 2.8303 28.8919 4.1763 26.9553 L 19.4097 33.0177 L 3.0267 35.6382 Z " stroke-width="0.7552847724255821"/>
    <path id="ID0.11133367801085114" fill="#FFFFFF" d="M 3.8162 33.6636 C 3.5473 31.6269 3.6676 29.7138 4.6373 28.5814 L 15.6321 32.1461 L 3.8162 33.6636 Z " stroke-width="0.7552847724255821"/>
    <path id="ID0.043344194535166025" fill="#404040" stroke="#333333" d="M 3.4671 20.5613 C 0.0772 17.5206 0.1785 3.5765 3.6122 0.5854 L 26.3356 10.7385 L 3.4671 20.5613 Z " stroke-width="0.7552847724255821"/>
    <path id="ID0.42498049000278115" fill="#808080" d="M 3.1363 15.7587 C 1.6873 12.6421 2.3748 3.543 4.1051 2.211 L 22.8693 10.1797 L 3.1363 15.7587 Z " stroke-width="0.7552847724255821"/>
    <path id="ID0.37005876982584596" fill="#B3B3B3" d="M 3.1975 12.1211 C 2.83 8.6433 3.0011 5.3747 4.3471 3.4381 L 19.5805 9.5005 L 3.1975 12.1211 Z " stroke-width="0.7552847724255821"/>
    <path id="ID0.6777598522603512" fill="#FFFFFF" d="M 3.987 10.1464 C 3.7181 8.1097 3.8384 6.1966 4.8081 5.0642 L 15.8029 8.6289 L 3.987 10.1464 Z " stroke-width="0.7552847724255821"/>
  </g>
</svg>