<svg version="1.1" xmlns="http://www.w3.org/2000/svg" xmlns:xlink="http://www.w3.org/1999/xlink" width="252.91599" height="249.40726" viewBox="0,0,252.91599,249.40726"><defs><linearGradient x1="239.99998" y1="56.33134" x2="239.99998" y2="303.66871" gradientUnits="userSpaceOnUse" id="color-1"><stop offset="0" stop-color="#d4d4d4"/><stop offset="1" stop-color="#818889"/></linearGradient><linearGradient x1="239.99998" y1="83.65887" x2="239.99998" y2="276.34117" gradientUnits="userSpaceOnUse" id="color-2"><stop offset="0" stop-color="#ffffff"/><stop offset="1" stop-color="#c9c9c9"/></linearGradient><linearGradient x1="279.1052" y1="247.11241" x2="193.9016" y2="66.94282" gradientUnits="userSpaceOnUse" id="color-3"><stop offset="0" stop-color="#ffffff" stop-opacity="0"/><stop offset="1" stop-color="#ffffff"/></linearGradient><linearGradient x1="215.11493" y1="64.9184" x2="230.101" y2="221.4407" gradientUnits="userSpaceOnUse" id="color-4"><stop offset="0" stop-color="#ffffff"/><stop offset="1" stop-color="#ffffff" stop-opacity="0"/></linearGradient></defs><g transform="translate(-113.53177,-54.26144)"><g data-paper-data="{&quot;isPaintingLayer&quot;:true}" fill-rule="nonzero" stroke-linejoin="miter" stroke-miterlimit="10" stroke-dasharray="" stroke-dashoffset="0" style="mix-blend-mode: normal"><path d="M366.44775,180.00002c0,68.30033 -56.61259,123.66868 -126.44775,123.66868c-69.83517,0 -126.44775,-55.36835 -126.44775,-123.66868c0,-68.30033 56.61259,-123.66869 126.44776,-123.66869c69.83517,0 126.44775,55.36836 126.44775,123.66869z" fill="url(#color-1)" stroke="none" stroke-width="0" stroke-linecap="butt"/><path d="M333.09889,180.00002c0,53.20774 -41.6818,96.34114 -93.0989,96.34114c-51.4171,0 -93.09889,-43.1334 -93.09889,-96.34114c0,-53.20774 41.68179,-96.34114 93.0989,-96.34114c51.4171,0 93.0989,43.1334 93.0989,96.34115z" fill="url(#color-2)" stroke="none" stroke-width="0" stroke-linecap="butt"/><path d="M233.35625,97.09106l0.92636,86.15121" fill="none" stroke="#080000" stroke-width="10" stroke-linecap="round"/><path d="M300.98984,179.43254l-66.30321,2.79772" fill="none" stroke="#080000" stroke-width="10" stroke-linecap="round"/><path d="M195.3756,255.49813l40.75972,-73.18222" fill="none" stroke="#ff0000" stroke-width="7.5" stroke-linecap="round"/><path d="M119.67892,208.50254c-23.52832,-49.75246 24.62892,-118.10645 74.22268,-141.55973c49.59377,-23.45328 116.37844,-15.64709 139.90677,34.10538c3.15157,6.66424 16.85605,16.96035 22.16914,36.26245c5.07861,18.45026 9.34964,42.64457 9.3814,60.77965c0.0497,28.3753 -24.02178,48.53031 -26.88719,58.32672c-7.69053,26.29279 -37.02289,-29.10223 -63.68853,-16.49184c-25.3841,12.00434 -61.21696,32.63671 -85.58267,23.37283c-23.2384,-8.83527 -69.52159,-54.79547 -69.52159,-54.79547z" data-paper-data="{&quot;index&quot;:null}" fill="url(#color-3)" stroke="none" stroke-width="0" stroke-linecap="butt"/><path d="M353.2827,137.0914c0.54564,5.69894 -3.1452,8.06139 -4.506,11.75713c-1.77147,4.81106 -1.70327,10.47559 -4.77618,14.31745c-5.64059,7.05204 -11.95001,14.62505 -29.33337,22.62637c-21.0457,9.68706 -50.71835,2.98986 -79.31285,4.27242c-32.47562,1.45664 -44.65391,3.008 -65.17307,0.65967c-7.70111,-0.88136 -26.14092,3.77405 -33.39274,-1.16178c-18.02766,-12.27023 -20.91888,-23.8367 -22.59155,-41.30694c-4.13828,-43.22244 25.9538,-79.97492 100.91799,-83.33731c74.96419,-3.36239 136.05345,26.92659 140.19175,70.14903z" data-paper-data="{&quot;index&quot;:null}" fill="url(#color-4)" stroke="none" stroke-width="0" stroke-linecap="butt"/></g></g></svg>