<svg version="1.1" xmlns="http://www.w3.org/2000/svg" xmlns:xlink="http://www.w3.org/1999/xlink" width="582.56384" height="349.08273" viewBox="0,0,582.56384,349.08273"><g transform="translate(55.76929,-9.99273)"><g data-paper-data="{&quot;isPaintingLayer&quot;:true}" fill="none" fill-rule="nonzero" stroke-width="2" stroke-linecap="round" stroke-linejoin="miter" stroke-miterlimit="10" stroke-dasharray="" stroke-dashoffset="0" style="mix-blend-mode: normal"><g><path d="M128.21213,15.90386l-168.39328,96.03646" stroke="#e0e0e0"/><path d="M-39.38016,172.98302l281.92981,-161.99029" stroke="#e7e7e7"/><path d="M-38.57909,226.64091l405.72319,-213.68384" stroke="#d1d1d1"/><path d="M456.22766,23.59057l-510.99694,274.43175" stroke="#d1d1d1"/><path d="M512.85696,52.1402c0,0 -125.15196,69.89384 -199.70554,111.52992c-94.87727,52.98625 -323.42802,180.62537 -323.42802,180.62537" stroke="#d1d1d1"/><path d="M56.06212,358.07546l469.73244,-255.23126" stroke="#e8e8e8"/><path d="M521.74096,165.36381l-353.22108,187.29119" stroke="#e8e8e8"/><path d="M520.11467,217.54471c0,0 -30.85933,20.17542 -134.71102,75.75069c-94.77764,50.71934 -106.85332,56.89306 -106.85332,56.89306" stroke="#e8e8e8"/><path d="M371.37212,355.31789c59.40665,-32.16483 93.9549,-50.33555 150.76248,-80.7355" stroke="#ececec"/></g></g></g></svg>