<svg version="1.1" xmlns="http://www.w3.org/2000/svg" xmlns:xlink="http://www.w3.org/1999/xlink" width="371.77813" height="380.23577" viewBox="0,0,371.77813,380.23577"><defs><linearGradient x1="97.59735" y1="-85.00622" x2="97.59735" y2="150.24648" gradientUnits="userSpaceOnUse" id="color-1"><stop offset="0" stop-color="#005921"/><stop offset="1" stop-color="#00ff14"/></linearGradient><linearGradient x1="97.59735" y1="-85.00622" x2="97.59735" y2="150.24648" gradientUnits="userSpaceOnUse" id="color-2"><stop offset="0" stop-color="#005921"/><stop offset="1" stop-color="#00ff14"/></linearGradient><linearGradient x1="97.59735" y1="-85.00622" x2="97.59735" y2="150.24648" gradientUnits="userSpaceOnUse" id="color-3"><stop offset="0" stop-color="#005921"/><stop offset="1" stop-color="#00ff14"/></linearGradient><linearGradient x1="97.59735" y1="-85.00622" x2="97.59735" y2="150.24648" gradientUnits="userSpaceOnUse" id="color-4"><stop offset="0" stop-color="#005921"/><stop offset="1" stop-color="#00ff14"/></linearGradient><linearGradient x1="237.99876" y1="50.55457" x2="237.99876" y2="404.1753" gradientUnits="userSpaceOnUse" id="color-5"><stop offset="0" stop-color="#000000"/><stop offset="1" stop-color="#000000" stop-opacity="0"/></linearGradient><linearGradient x1="236.12449" y1="27.12625" x2="236.12449" y2="380.74698" gradientUnits="userSpaceOnUse" id="color-6"><stop offset="0" stop-color="#ffa819"/><stop offset="1" stop-color="#f0ff00"/></linearGradient><linearGradient x1="241.18705" y1="10.11305" x2="241.18705" y2="368.70881" gradientUnits="userSpaceOnUse" id="color-7"><stop offset="0" stop-color="#ffffff"/><stop offset="1" stop-color="#ffffff" stop-opacity="0"/></linearGradient><linearGradient x1="266.27318" y1="215.57809" x2="244.03812" y2="-16.65652" gradientUnits="userSpaceOnUse" id="color-8"><stop offset="0" stop-color="#ffffff" stop-opacity="0"/><stop offset="1" stop-color="#ffffff"/></linearGradient></defs><g transform="translate(-51.17256,-23.93953)"><g data-paper-data="{&quot;isPaintingLayer&quot;:true}" fill-rule="nonzero" stroke-linejoin="miter" stroke-miterlimit="10" stroke-dasharray="" stroke-dashoffset="0" style="mix-blend-mode: normal"><path d="" fill="url(#color-1)" stroke="#009c42" stroke-width="12.5" stroke-linecap="round"/><path d="" fill="url(#color-2)" stroke="#009c42" stroke-width="12.5" stroke-linecap="round"/><path d="" fill="url(#color-3)" stroke="#009c42" stroke-width="12.5" stroke-linecap="round"/><path d="" fill="url(#color-4)" stroke="#009c42" stroke-width="12.5" stroke-linecap="round"/><g><path d="M420.48738,225.70461c0,58.54548 9.14947,134.33922 -36.62674,165.7421c-29.11266,19.97154 -103.69001,7.68133 -142.05194,7.68133c-32.45404,0 -131.95625,12.62302 -158.18752,-2.05614c-53.52897,-29.9551 -20.49116,-107.08769 -20.49116,-171.36729c0,-54.03495 -6.07011,-123.319 33.84333,-155.12451c30.83473,-24.57103 101.82621,-18.29891 144.83535,-18.29891c46.24992,0 124.43168,-9.9717 156.16106,18.01246c35.97026,31.72447 22.51762,104.52148 22.51762,155.41097z" data-paper-data="{&quot;index&quot;:null}" fill="url(#color-5)" stroke="none" stroke-width="0.5" stroke-linecap="butt"/><path d="M418.61311,202.27629c0,58.54548 9.14947,134.33922 -36.62674,165.7421c-29.11266,19.97154 -103.69001,7.68133 -142.05194,7.68133c-32.45404,0 -131.95625,12.62302 -158.18752,-2.05614c-53.52897,-29.9551 -20.49116,-107.08769 -20.49116,-171.36729c0,-54.03495 -6.07011,-123.319 33.84333,-155.12451c30.83473,-24.57103 101.82621,-18.29891 144.83535,-18.29891c46.24992,0 124.43168,-9.9717 156.16106,18.01246c35.97026,31.72447 22.51762,104.52148 22.51762,155.41097z" data-paper-data="{&quot;index&quot;:null}" fill="url(#color-6)" stroke="none" stroke-width="0.5" stroke-linecap="butt"/><path d="M55.59254,289.17701l104.16535,97.63235" data-paper-data="{&quot;index&quot;:null}" fill="none" stroke="#feae17" stroke-width="0.5" stroke-linecap="round"/><path d="M66.08803,236.11997l174.39724,164.68214" data-paper-data="{&quot;index&quot;:null}" fill="none" stroke="#fdb415" stroke-width="0.5" stroke-linecap="round"/><path d="M66.58352,181.57042l250.97383,217.23469" data-paper-data="{&quot;index&quot;:null}" fill="none" stroke="#fcbc14" stroke-width="0.5" stroke-linecap="round"/><path d="M56.56852,109.00285l316.09444,278.99208" data-paper-data="{&quot;index&quot;:null}" fill="none" stroke="#fbc511" stroke-width="0.5" stroke-linecap="round"/><path d="M84.09104,61.96081c0,0 141.37778,129.76012 200.06734,183.62689c46.11764,42.32795 123.5346,113.38321 123.5346,113.38321" data-paper-data="{&quot;index&quot;:null}" fill="none" stroke="#fac710" stroke-width="0.5" stroke-linecap="round"/><path d="M415.696,307.42437l-290.56892,-259.47256" data-paper-data="{&quot;index&quot;:null}" fill="none" stroke="#f7d30d" stroke-width="0.5" stroke-linecap="round"/><path d="M194.69165,53.46231l218.49684,190.4035" data-paper-data="{&quot;index&quot;:null}" fill="none" stroke="#f7d60c" stroke-width="0.5" stroke-linecap="round"/><path d="M262.7547,55.96983c0,0 7.4698,6.27633 66.09772,57.83848c64.24099,56.49874 83.33006,77.00946 83.33006,77.00946" data-paper-data="{&quot;index&quot;:null}" fill="none" stroke="#f4e707" stroke-width="0.5" stroke-linecap="round"/><path d="M413.432,132.83232c-35.14021,-30.90515 -56.51123,-49.37783 -93.25924,-82.07713" data-paper-data="{&quot;index&quot;:null}" fill="none" stroke="#f4ec06" stroke-width="0.5" stroke-linecap="round"/><path d="M166.79897,313.8l-1.33469,-145.48164" data-paper-data="{&quot;index&quot;:null}" fill="#ffffff" stroke="#ffffff" stroke-width="5" stroke-linecap="round"/><path d="M349.5847,354.84897l2.22449,-181.29592" data-paper-data="{&quot;index&quot;:null}" fill="#ffffff" stroke="#ffffff" stroke-width="5" stroke-linecap="round"/><path d="M348.75,363.91836l-183,-47" data-paper-data="{&quot;index&quot;:null}" fill="#ffffff" stroke="#ffffff" stroke-width="5" stroke-linecap="round"/><path d="M338.89823,210.91836c-24.38239,0 -44.14823,-16.56546 -44.14823,-37c0,-20.43453 19.76584,-37 44.14823,-37c24.38239,0 17.49269,16.56547 17.49269,37c0,20.43454 6.8897,37 -17.49269,37z" data-paper-data="{&quot;index&quot;:null}" fill="#ffffff" stroke="#ffffff" stroke-width="0.5" stroke-linecap="butt"/><path d="M155.89823,185.91836c-24.3824,0 -44.14823,-16.56547 -44.14823,-37c0,-20.43453 19.76584,-37 44.14823,-37c24.38239,0 17.49269,16.56547 17.49269,37c0,20.43453 6.8897,37 -17.49269,37z" data-paper-data="{&quot;index&quot;:null}" fill="#ffffff" stroke="#ffffff" stroke-width="0.5" stroke-linecap="butt"/><path d="M419.91302,189.41093c0,99.02348 -80.01835,179.29789 -178.72597,179.29789c-98.70764,0 -178.72597,-80.2744 -178.72597,-179.29789c0,-45.78041 0.58649,-105.57144 28.73226,-137.2574c32.73381,-36.85109 98.42197,-27.02548 151.49522,-27.02548c50.52257,0 124.67743,-5.99668 157.18377,27.81393c31.00239,32.24632 20.0407,88.12969 20.0407,136.46894z" fill="url(#color-7)" stroke="none" stroke-width="0" stroke-linecap="butt"/><path d="M61.27148,108.49387c-0.80957,-8.45561 4.66659,-11.96081 6.68563,-17.44423c2.62836,-7.13824 2.52717,-15.5428 7.0865,-21.24303c8.36903,-10.46323 17.73041,-21.69941 43.52237,-33.5711c31.22583,-14.37284 75.25162,-4.43611 117.67773,-6.33906c48.18459,-2.16124 66.25372,-4.46302 96.69831,-0.97876c11.42625,1.30769 38.7857,-5.59961 49.54534,1.72375c26.74793,18.20553 31.03766,35.36688 33.51943,61.28775c6.14004,64.12982 -38.50805,118.66006 -149.7336,123.64889c-111.22555,4.98883 -201.86466,-39.95141 -208.00471,-104.08122z" fill="url(#color-8)" stroke="none" stroke-width="0" stroke-linecap="butt"/></g></g></g></svg>