<svg xmlns="http://www.w3.org/2000/svg" xmlns:xlink="http://www.w3.org/1999/xlink" version="1.1" width="89.33000183105469" height="88.2699966430664" viewBox="-0.5 0 89.33000183105469 88.2699966430664">
  <defs>
    <linearGradient id="grad_1" x1="43.6782" y1="15.6377" x2="43.6782" y2="62.2173" gradientUnits="userSpaceOnUse">
      <stop offset="0" stop-color="#F08576"/>
      <stop offset="1" stop-color="#AB4A3A"/>
    </linearGradient>
  <linearGradient id="grad_1-,0,0,1,0,0.5" x1="43.6782" y1="16.1377" x2="43.6782" y2="62.7173" gradientUnits="userSpaceOnUse">
      <stop offset="0" stop-color="#F08576"/>
      <stop offset="1" stop-color="#AB4A3A"/>
    </linearGradient></defs>
  <!-- Exported by Scratch - http://scratch.mit.edu/ -->
  <g id="ID0.6599210565909743">
    <path id="ID0.4177084397524595_23_" fill="none" d="M 0 0.5 L 88.33 0.5 L 88.33 87.77 L 0 87.77 L 0 0.5 Z " stroke-width="1"/>
    <path id="ID0.6947480007074773" fill="#781E29" d="M 68.63 21.1 L 41 16.5 L 23.48 22.88 L 15.15 39.84 L 18.9 67.85 L 37.76 69.73 L 59.69 68.39 L 72.25 52.46 L 68.63 21.1 " stroke-width="1"/>
    <path id="ID0.5596500532701612" fill="url(#grad_1-,0,0,1,0,0.5)" d="M 22.44 61.19 L 19.27 37.52 L 26.56 22.7 L 41.25 17.5 L 64.96 21.19 L 68.09 48.28 L 57.66 61.51 L 37.84 62.72 L 22.44 61.19 " stroke-width="1"/>
    <path id="ID0.5288189188577235" fill="#39B54A" d="M 69.67 66.79 L 70.54 63.72 L 72.79 56.94 L 64.17 63.41 L 61.67 62.34 L 62.87 58.44 L 52.73 67.72 L 52.51 65.91 L 50.44 68.29 L 48.3 66.5 L 47.48 68.69 L 44.59 69.42 L 37.45 68.68 L 36.83 64.14 L 34.48 67.11 L 28.05 56.15 L 26.68 67.22 L 25.86 67.87 L 23.23 55.04 L 20.55 63.64 L 14.46 55.73 L 15.91 63.72 L 16.95 67.66 L 18.45 70.71 L 25.18 70.08 L 24.94 70.86 L 30.21 71.79 L 37.37 69.69 L 42.75 70.36 L 47.51 70.65 L 47.52 71.4 L 54.17 71.36 L 57.76 69.74 L 57.67 70.07 L 62.87 71.31 L 67.29 69.73 L 69.67 66.79 " stroke-width="1"/>
    <path id="ID0.6097908928059042" fill="#8CE83F" d="M 57.14 69.08 L 60.72 61.69 L 54.24 68.14 L 57.14 69.08 " stroke-width="1"/>
    <path id="ID0.11991949705407023" fill="#8CE83F" d="M 64.44 69.07 L 69.23 64.82 L 71.67 58.5 L 66.17 64.2 L 60.12 69.19 L 64.44 69.07 " stroke-width="1"/>
    <path id="ID0.41977099189534783" fill="#8CE83F" d="M 19.23 69.03 L 22.97 69.94 L 22.74 56.87 L 20.9 66.56 L 15.17 57.59 L 16.88 64.48 L 19.23 69.03 " stroke-width="1"/>
    <path id="ID0.6688396972604096" fill="#8CE83F" d="M 30.95 68.72 L 32.13 65.6 L 28.29 57.65 L 29.22 67.71 L 26.95 70.05 L 30.15 70.41 L 30.95 68.72 " stroke-width="1"/>
  </g>
</svg>