<svg xmlns="http://www.w3.org/2000/svg" xmlns:xlink="http://www.w3.org/1999/xlink" version="1.1" width="36.90080261230469" height="38.75966262817383" viewBox="-0.24790000915527344 0.2710999846458435 36.90080261230469 38.75966262817383">
  <!-- Exported by Scratch - http://scratch.mit.edu/ -->
  <g id="ID0.5061348681338131">
    <g id="ID0.2712148008868098">
      <path id="ID0.7152078151702881_1_" fill="#FAA51D" stroke="#000000" d="M 12.171 32.6128 C 11.234 32.1174 10.1544 31.3936 9.4318 30.1776 C 7.8158 27.4583 8.1357 23.9019 6.2814 24.2674 C 4.4254 24.6331 2.7801 30.0277 7.2609 33.2419 C 8.8046 34.3506 10.3753 34.8421 11.6598 35.204 C 11.9973 35.2973 14.9216 35.9237 16.3324 34.818 C 17.7433 33.7119 17.1762 33.1509 16.9038 32.8527 C 16.6304 32.5548 13.496 33.3129 12.171 32.6128 L 12.171 32.6128 Z " stroke-width="0.23452769348713373"/>
      <path id="ID0.4691764716990292_1_" fill="#FFFFFF" d="M 6.4806 24.4449 C 5.583 24.4424 4.5739 26.1088 4.5384 27.6722 C 4.5023 29.2373 4.9793 30.0781 5.3092 30.8022 C 5.8056 31.4254 5.3205 29.7209 6.4018 29.2676 C 7.4797 28.8155 8.8796 29.6261 8.8796 29.6261 C 8.8796 29.6261 8.1927 27.6116 7.8175 26.4062 C 7.4662 25.2537 7.4193 24.5102 6.4806 24.4449 L 6.4806 24.4449 Z " stroke-width="0.23452769348713373"/>
    </g>
    <path id="ID0.7115552560426295" fill="#FAA51D" stroke="#000000" stroke-width="0.2814332376568399" d="M 26.1103 33.1416 C 25.7174 33.3941 25.2141 33.4631 24.7439 33.2841 L 20.7036 31.7476 C 20.2161 31.5623 19.8572 31.1408 19.7522 30.6299 L 18.8881 26.4278 C 18.7187 25.603 19.2503 24.7974 20.0742 24.6274 C 20.899 24.458 21.7051 24.989 21.8746 25.8135 L 22.57 29.1955 L 25.8276 30.4344 C 26.6146 30.7338 27.0097 31.6141 26.7106 32.4011 C 26.5901 32.7182 26.3753 32.9715 26.1103 33.1416 L 26.1103 33.1416 Z "/>
    <path id="ID0.10610466729849577" fill="#FAA51D" stroke="#000000" stroke-width="0.2814332426542732" d="M 32.4545 27.7836 C 32.4538 27.7885 32.4532 27.7933 32.4525 27.7982 L 31.7968 32.4623 C 31.7181 33.0253 31.3722 33.5156 30.868 33.7786 C 30.3641 34.0418 29.7637 34.0447 29.2571 33.7868 L 25.4796 31.8654 L 20.9364 33.3452 C 20.0127 33.646 19.0199 33.141 18.7191 32.2173 C 18.4183 31.2941 18.9234 30.3006 19.847 30 L 25.0832 28.295 C 25.5268 28.1506 26.0095 28.1881 26.4252 28.3995 L 28.654 29.533 L 28.9692 27.3048 C 29.1053 26.343 29.9955 25.6736 30.9576 25.8097 C 31.914 25.9457 32.5817 26.8274 32.4545 27.7836 L 32.4545 27.7836 Z "/>
    <path id="ID0.26425604708492756_1_" fill="#FAA51D" stroke="#231F20" stroke-width="0.2814332186257772" d="M 22.0171 30.8376 C 22.1045 30.1974 22.0229 29.3739 21.7983 28.1939 C 21.6109 27.2101 20.9336 25.665 20.9336 25.665 C 20.4367 24.627 19.5312 23.0625 18.1369 24.0058 C 17.5727 24.3877 16.8569 25.2134 15.5506 26.095 C 14.2426 26.9762 12.7017 27.3844 13.311 29.6668 C 13.9212 31.9495 12.8807 35.1116 18.0125 35.064 L 22.0171 30.8376 Z "/>
    <path id="ID0.46752600744366646" fill="#FAA51D" stroke="#000000" stroke-width="0.2814332228318807" d="M 29.2143 31.02 L 29.2652 36.7561 C 29.2709 37.395 28.9297 37.9864 28.3741 38.3019 C 27.8185 38.6169 27.1356 38.6061 26.5904 38.2734 L 21.7739 35.335 L 17.4215 35.3518 C 16.4529 35.3555 15.6643 34.5759 15.6557 33.6087 C 15.6557 33.6057 15.6556 33.6028 15.6556 33.5998 C 15.6519 32.6281 16.4365 31.8378 17.4076 31.8339 L 22.2579 31.8152 C 22.5837 31.814 22.903 31.9031 23.181 32.0727 L 25.7195 33.6214 L 25.6967 31.0515 C 25.6881 30.0799 26.4684 29.2856 27.44 29.277 C 28.4116 29.2684 29.2056 30.0484 29.2143 31.02 L 29.2143 31.02 Z "/>
    <path id="ID0.203311821911484_1_" fill="#FFFFFF" d="M 21.4007 27.4562 C 21.4007 27.4562 21.3507 25.8914 19.0307 26.5754 C 16.7108 27.2594 16.8146 28.7588 16.8137 29.693 C 16.8089 31.309 20.3681 31.5066 20.3681 31.5066 L 21.8205 30.6933 C 21.8205 30.6933 21.8535 29.6615 21.6828 29.022 C 21.5819 28.385 21.4007 27.4562 21.4007 27.4562 " stroke-width="0.23452768218814765"/>
    <path id="ID0.17305035842582583" fill="#FAA51D" d="M 19.5755 33.1862 C 19.5784 34.2917 18.5508 35.1908 17.2801 35.1942 C 16.0095 35.198 14.9765 34.3045 14.9737 33.1989 C 14.9706 32.0932 15.6682 30.8604 16.9389 30.857 C 19.1015 30.8508 19.5695 31.2029 19.5755 33.1862 Z " stroke-width="0.23452768218814765"/>
    <path id="ID0.7115552560426295" fill="#FAA51D" stroke="#000000" stroke-width="0.28143322843230045" d="M 13.4638 37.0093 C 13.0118 36.8923 12.6194 36.5695 12.4316 36.1028 L 10.8167 32.0932 C 10.6219 31.6094 10.6877 31.0598 10.9915 30.6358 L 13.4902 27.1486 C 13.9808 26.4642 14.9331 26.3076 15.6173 26.7972 C 16.3017 27.2877 16.4591 28.2401 15.9688 28.9243 L 13.9577 31.731 L 15.2597 34.9638 C 15.5741 35.7449 15.196 36.6327 14.4151 36.9474 C 14.1005 37.0741 13.7687 37.0884 13.4638 37.0093 L 13.4638 37.0093 Z "/>
    <path id="ID0.4675603983923793_1_" fill="#FAA51D" stroke="#231F20" stroke-width="0.281433230638504" d="M 18.7514 4.4408 C 18.0872 4.3791 16.7028 4.3045 15.9403 4.3411 C 13.9013 4.4382 11.9623 5.1725 11.9623 5.1725 L 6.3477 1.5085 L 7.3114 9.6625 C 7.59 9.325 2.7592 15.1845 5.8111 20.1098 C 8.8649 25.0377 15.4 27.2336 23.4884 25.6266 C 31.5772 24.0184 33.5067 19.3595 32.9708 16.8951 C 32.4351 14.4307 29.3816 13.521 29.3816 13.521 C 29.3816 13.521 29.3429 11.5889 27.9463 9.2211 C 27.1156 7.8116 24.3458 5.7532 24.3458 5.7532 L 23.1127 0.7711 L 19.8989 3.8781 L 18.7514 4.4408 L 18.7514 4.4408 Z "/>
    <path id="ID0.876089540310204_1_" fill="#FFFFFF" d="M 28.9773 13.4588 L 27.9069 12.5688 L 23.9757 13.7163 C 23.9757 13.7163 23.9757 15.191 22.0925 15.5996 C 20.2078 16.01 17.2574 14.6176 17.2574 14.6176 L 13.8997 16.0916 C 13.8997 16.0916 10.2608 16.4915 10.1308 18.7141 C 9.8405 23.6537 15.9012 25.7129 18.1977 25.844 C 19.4507 25.9162 21.7493 25.6981 23.4926 25.3517 C 31.1487 23.957 33.2182 19.3488 32.6833 16.8836 C 32.1476 14.4192 29.2423 13.7804 29.2423 13.7804 L 28.9773 13.4588 L 28.9773 13.4588 Z " stroke-width="0.23452769219875336"/>
    <path id="ID0.44282719027251005_1_" fill="none" stroke="#231F20" stroke-width="0.281433230638504" d="M 0.6219 18.2413 C 0.6219 18.2413 2.3933 18.4027 3.1984 18.3569 C 4.0029 18.311 5.5672 18.1039 5.5672 18.1039 "/>
    <path id="ID0.893105489667505_1_" fill="none" stroke="#231F20" stroke-width="0.281433230638504" d="M 31.2355 15.8763 C 31.2355 15.8763 33.1973 15.5557 34.1936 15.2079 C 35.3644 14.802 36.1529 14.1103 36.1529 14.1103 "/>
    <path id="ID0.03574043000116944_1_" fill="none" stroke="#231F20" stroke-width="0.281433230638504" d="M 5.6523 16.4101 C 5.6523 16.4101 4.6241 15.6435 3.0143 14.9307 C 1.2312 14.1411 0.2521 13.9375 0.2521 13.9375 "/>
    <path id="ID0.6674723788164556_1_" fill="none" stroke="#231F20" stroke-width="0.281433230638504" d="M 31.4344 18.4428 C 31.4344 18.4428 32.6103 18.9186 33.8207 19.0401 C 35.0156 19.1593 35.8245 19.0875 35.8245 19.0875 "/>
    <path id="ID0.12165586883202195_1_" fill="none" stroke="#000000" stroke-linecap="round" d="M 18.5964 4.4649 C 19.8211 4.7668 20.2725 5.0984 20.2725 5.0984 " stroke-width="0.23452769219875336"/>
    <path id="ID0.178104005753994_1_" fill="none" stroke="#000000" d="M 10.6384 4.2372 L 13.2512 6.1167 " stroke-width="0.23452769219875336"/>
    <path id="ID0.7735752793960273_1_" fill="#FFFFFF" stroke="#231F20" d="M 27.0021 9.2753 C 28.2631 11.2069 28.31 13.4119 27.1064 14.1983 C 25.9017 14.9854 23.9037 14.0555 22.6408 12.1225 C 21.3757 10.1904 21.3312 7.9871 22.5357 7.1995 C 23.7393 6.4134 25.7396 7.3423 27.0021 9.2753 L 27.0021 9.2753 Z " stroke-width="0.23452769219875336"/>
    <path id="ID0.19106501014903188_1_" fill="#231F20" d="M 26.8282 11.1119 C 26.8282 11.5775 26.4823 11.9555 26.0517 11.9555 C 25.6234 11.9555 25.2742 11.5775 25.2742 11.1119 C 25.2742 10.6462 25.6234 10.2672 26.0517 10.2672 C 26.4825 10.2672 26.8282 10.6459 26.8282 11.1119 " stroke-width="0.23452769219875336"/>
    <path id="ID0.06283409334719181_1_" fill="#FFFFFF" stroke="#231F20" d="M 16.6629 10.6785 C 17.9249 12.6105 17.7922 14.9319 16.369 15.8604 C 14.945 16.7917 12.7676 15.9777 11.5061 14.0456 C 10.2434 12.1136 10.3745 9.7932 11.7986 8.8628 C 13.2231 7.9329 15.4 8.7455 16.6629 10.6785 L 16.6629 10.6785 Z " stroke-width="0.23452769219875336"/>
    <path id="ID0.716460831463337_1_" fill="#231F20" d="M 16.0418 12.5677 C 16.0418 13.034 15.6954 13.412 15.2648 13.412 C 14.837 13.412 14.4876 13.0333 14.4876 12.5677 C 14.4876 12.1022 14.837 11.7237 15.2648 11.7237 C 15.6947 11.7237 16.0418 12.1022 16.0418 12.5677 " stroke-width="0.23452769219875336"/>
    <path id="ID0.5430324394255877_1_" fill="#5E4A42" stroke="#000000" d="M 21.7948 14.6922 C 22.5944 14.6922 23.7593 14.57 23.8205 14.9378 C 23.8824 15.3064 23.0833 16.7504 22.532 16.8116 C 21.9787 16.8731 19.8902 15.7968 19.86 15.1214 C 19.8281 14.4462 21.057 14.6922 21.7948 14.6922 L 21.7948 14.6922 Z " stroke-width="0.23452769219875336"/>
    <path id="ID0.5547774969600141_1_" fill="none" stroke="#231F20" stroke-width="0.22887848440831005" d="M 27.9114 20.7181 C 27.9114 20.7181 23.4411 21.4177 21.7922 21.749 C 20.1442 22.0802 17.2215 22.8357 17.2215 22.8357 C 17.2215 22.8357 19.6979 19.3654 23.7204 18.6979 C 27.7427 18.0296 28.1293 19.4215 27.9114 20.7181 L 27.9114 20.7181 Z "/>
  </g>
</svg>