<svg xmlns="http://www.w3.org/2000/svg" xmlns:xlink="http://www.w3.org/1999/xlink" version="1.1" width="71.5" height="102.83000183105469" viewBox="-0.75 -0.75 71.5 102.83000183105469">
  <!-- Exported by Scratch - http://scratch.mit.edu/ -->
  <g id="ID0.4490414783358574">
    <path id="ID0.4177084397524595_21_" fill="none" d="M 0 0 L 70 0 L 70 101.330 L 0 101.330 L 0 0 Z " stroke-width="1"/>
    <path id="ID0.8384288609959185" fill="#FCEE21" stroke="#807B3A" d="M 14 21.330 L 20.160 21.330 L 20.160 79.660 L 14 79.660 L 14 21.330 Z " stroke-width="1"/>
    <path id="ID0.4964490276761353" fill="#FCEE21" stroke="#807B3A" d="M 26.170 87.330 L 17.100 88.330 L 8.030 87.330 L 9.320 79.670 L 24.880 79.670 L 26.170 87.330 " stroke-width="1"/>
    <path id="ID0.5623504188843071" fill="none" stroke="#FFFFFF" stroke-width="1.5" d="M 16 23 L 16 74.670 "/>
    <path id="ID0.5337067288346589" fill="none" stroke="#FFFFFF" stroke-width="1.5" d="M 12.110 81 L 19.900 81 "/>
    <path id="ID0.681304331868887" fill="#FCEE21" stroke="#807B3A" d="M 17.030 12.180 C 18.451 12.180 19.738 12.757 20.671 13.689 C 21.603 14.622 22.180 15.909 22.180 17.330 C 22.180 18.751 21.603 20.038 20.671 20.971 C 19.738 21.903 18.451 22.480 17.030 22.480 C 15.609 22.480 14.322 21.903 13.389 20.971 C 12.457 20.038 11.880 18.751 11.880 17.330 C 11.880 15.909 12.457 14.622 13.389 13.689 C 14.322 12.757 15.609 12.180 17.030 12.180 Z " stroke-width="1"/>
    <path id="ID0.23918739659711719" fill="#FFFFFF" d="M 15.440 14.190 C 15.870 14.190 16.260 14.365 16.543 14.647 C 16.825 14.930 17 15.320 17 15.750 C 17 16.180 16.825 16.570 16.543 16.853 C 16.260 17.135 15.870 17.310 15.440 17.310 C 15.010 17.310 14.620 17.135 14.337 16.853 C 14.055 16.570 13.880 16.180 13.880 15.750 C 13.880 15.320 14.055 14.930 14.337 14.647 C 14.620 14.365 15.010 14.190 15.440 14.190 Z " stroke-width="1"/>
    <path id="ID0.21908493293449283" fill="#FFC369" stroke="#875608" d="M 50.500 31.570 C 52.170 34.070 53.830 36.220 55.500 37.890 C 53.830 41.550 52.170 44.730 50.500 47.570 C 52.170 50.040 53.830 52.170 55.500 53.810 C 43.720 61.350 31.940 44.680 20.160 52.810 C 20.160 42.200 20.160 31.590 20.160 20.980 C 31.940 12.850 43.720 29.520 55.500 21.980 C 53.840 25.610 52.170 28.760 50.500 31.570 Z " stroke-width="1"/>
    <path id="ID0.8182873949408531" fill="#FAA51D" stroke="#231F20" stroke-width="0.6" d="M 36.380 29.230 C 35.890 29 34.860 28.580 34.290 28.420 C 32.780 27.990 31.340 28.230 31.340 28.230 C 29.950 26.970 28.560 25.840 27.170 24.920 C 27.410 27.020 27.650 29.130 27.890 31.250 C 28.100 30.900 24.510 35.690 26.780 39.360 C 29.050 42.850 33.900 45.750 39.910 46.960 C 45.920 47.870 47.350 43.890 46.950 42.060 C 46.550 40.150 44.280 38.990 44.280 38.960 C 44.280 38.960 44.250 37.470 43.210 35.340 C 42.590 34.090 40.540 31.790 40.540 31.780 C 40.230 30.380 39.930 28.990 39.620 27.580 C 38.820 28.090 38.030 28.590 37.230 29.100 C 36.940 29.150 36.660 29.190 36.380 29.230 L 36.380 29.230 Z "/>
    <path id="ID0.7191751948557794" fill="#FFFFFF" d="M 43.970 38.840 C 43.700 38.540 43.440 38.240 43.180 37.930 C 42.210 37.950 41.230 37.920 40.260 37.860 C 40.260 37.860 40.260 39.010 38.860 38.810 C 37.460 38.600 35.270 36.720 35.270 36.730 C 34.440 36.820 33.610 36.930 32.780 37.080 C 32.780 37.040 30.080 36.720 29.980 38.480 C 29.760 42.150 34.260 44.840 35.970 45.680 C 36.900 46.070 38.610 46.550 39.900 46.760 C 45.590 47.730 47.120 43.900 46.730 42.030 C 46.330 40.110 44.170 39.170 44.170 39.140 C 44.100 39.040 44.040 38.940 43.970 38.840 L 43.970 38.840 Z " stroke-width="1"/>
    <path id="ID0.9018995477817953" fill="none" stroke="#231F20" stroke-width="0.6" d="M 22.910 38.730 C 22.910 38.710 24.230 38.380 24.820 38.250 C 25.420 38.070 26.580 37.810 26.580 37.820 "/>
    <path id="ID0.22111449763178825" fill="none" stroke="#231F20" stroke-width="0.6" d="M 45.650 41.090 C 45.650 41.100 47.110 41.090 47.850 40.840 C 48.720 40.570 49.300 40 49.300 40 "/>
    <path id="ID0.29449732415378094" fill="none" stroke="#231F20" stroke-width="0.6" d="M 26.650 36.500 C 26.650 36.510 25.890 35.920 24.690 35.620 C 23.370 35.310 22.640 35.510 22.640 35.490 "/>
    <path id="ID0.6776968450285494" fill="none" stroke="#231F20" stroke-width="0.6" d="M 45.790 43.100 C 45.790 43.100 46.660 43.630 47.560 43.790 C 48.450 43.950 49.050 43.860 49.050 43.860 "/>
    <path id="ID0.5726054734550416" fill="none" stroke="#000000" stroke-width="0.5" stroke-linecap="round" d="M 36.260 29.210 C 37.170 29.780 37.500 30.160 37.500 30.160 "/>
    <path id="ID0.2563604754395783" fill="none" stroke="#000000" stroke-width="0.5" d="M 30.350 27.310 C 31 27.910 31.640 28.550 32.290 29.200 "/>
    <path id="ID0.573101173620671" fill="#FFFFFF" stroke="#231F20" stroke-width="0.5" d="M 42.500 35.180 C 43.440 36.960 43.470 38.680 42.580 39.020 C 41.680 39.360 40.200 38.120 39.260 36.270 C 38.320 34.420 38.290 32.700 39.180 32.420 C 40.080 32.150 41.570 33.390 42.500 35.180 L 42.500 35.180 Z "/>
    <path id="ID0.6097509819082916" fill="#231F20" d="M 42.260 37.490 C 42.260 37.850 42 38.070 41.680 37.960 C 41.360 37.850 41.100 37.470 41.100 37.110 C 41.100 36.750 41.360 36.540 41.680 36.650 C 42.010 36.760 42.260 37.130 42.260 37.490 " stroke-width="1"/>
    <path id="ID0.5234593949280679" fill="#FFFFFF" stroke="#231F20" stroke-width="0.5" d="M 34.820 33.520 C 35.760 35.340 35.660 37.110 34.600 37.470 C 33.540 37.830 31.920 36.730 30.990 35.050 C 30.050 33.370 30.150 31.580 31.210 31.080 C 32.270 30.570 33.890 31.690 34.820 33.520 L 34.820 33.520 Z "/>
    <path id="ID0.7821517512202263" fill="#231F20" d="M 34.250 35.300 C 34.250 35.660 33.990 35.870 33.670 35.770 C 33.350 35.670 33.090 35.300 33.090 34.940 C 33.090 34.580 33.350 34.360 33.670 34.460 C 33.990 34.560 34.250 34.940 34.250 35.300 " stroke-width="1"/>
    <path id="ID0.4345359276048839" fill="#5E4A42" stroke="#000000" stroke-width="0.5" d="M 38.640 38.030 C 39.230 38.250 40.100 38.470 40.140 38.770 C 40.190 39.070 39.590 39.980 39.180 39.870 C 38.770 39.770 37.220 38.350 37.200 37.820 C 37.180 37.290 38.090 37.820 38.640 38.030 L 38.640 38.030 Z "/>
    <path id="ID0.46645359275862575" fill="none" stroke="#231F20" stroke-width="0.6" d="M 34.470 38.960 C 34.470 38.930 37.780 41.160 39.020 41.920 C 40.260 42.680 42.500 43.710 42.500 43.690 C 42.500 43.720 39.940 46.290 36.950 44.270 C 33.960 42.300 34.020 40.410 34.470 38.960 L 34.470 38.960 Z "/>
  </g>
</svg>