<svg version="1.1" xmlns="http://www.w3.org/2000/svg" xmlns:xlink="http://www.w3.org/1999/xlink" width="427.10692" height="430.6066" viewBox="0,0,427.10692,430.6066"><defs><linearGradient x1="264.64914" y1="21.15371" x2="171.44567" y2="281.47987" gradientUnits="userSpaceOnUse" id="color-1"><stop offset="0" stop-color="#dcdcdc"/><stop offset="1" stop-color="#bababa"/></linearGradient><linearGradient x1="137.00448" y1="28.81198" x2="137.00448" y2="352.10696" gradientUnits="userSpaceOnUse" id="color-2"><stop offset="0" stop-color="#ffffff"/><stop offset="1" stop-color="#ced0ce"/></linearGradient></defs><g transform="translate(6.02036,41.88998)"><g data-paper-data="{&quot;isPaintingLayer&quot;:true}" fill-rule="nonzero" stroke-linecap="butt" stroke-linejoin="miter" stroke-miterlimit="10" stroke-dasharray="" stroke-dashoffset="0" style="mix-blend-mode: normal"><g><path d="M347.35824,174.04824c-15.43078,43.09962 -28.67206,101.30848 -70.64811,112.36126c-26.69584,7.02932 -78.35838,-21.67469 -106.59941,-31.7857c-23.8918,-8.55387 -100.46971,-25.48685 -115.9115,-43.20701c-28.69111,-32.92435 33.21472,-81.06486 52.39898,-124.18112c1.88576,-4.23821 -23.83322,-3.14054 -22.31691,-7.37575c14.24194,-39.7791 28.03442,-92.38406 65.80057,-105.27848c29.17587,-9.96146 79.78477,13.36707 111.44696,24.70294c34.04796,12.19004 94.23152,25.45544 110.21409,54.41952c18.11876,32.83535 -10.97175,82.88088 -24.38465,120.34437z" fill="#9c9c9c" stroke="#000000" stroke-width="5"/><path d="M300.36478,159.82682c-15.43078,43.09962 -28.67206,101.30848 -70.64811,112.36126c-26.69585,7.02932 -78.35838,-21.67469 -106.59942,-31.7857c-23.8918,-8.55387 -100.46971,-25.48685 -115.9115,-43.20701c-31.51136,-36.16072 13.13995,-84.23594 30.08207,-131.55687c1.85259,-5.17447 167.67835,30.61991 169.56949,25.12703c12.64713,-36.73404 -136.62245,-119.1884 -103.76891,-130.40551c12.14855,-4.14785 146.23187,123.32185 162.89739,127.44855c23.35828,5.78395 -69.9288,-109.36133 -51.45044,-102.74561c10.49607,3.75786 -96.26824,73.21023 -82.86529,77.60088c30.07457,9.85208 182.0238,-43.21659 193.07938,-23.18136c18.11876,32.83536 -10.97175,82.88088 -24.38465,120.34436z" fill="#bebebe" stroke="#444444" stroke-width="4.5"/><path d="M388.67524,234.80252c-15.43078,43.09962 -28.67206,101.30848 -70.64811,112.36125c-26.69584,7.02932 -78.35838,-21.67469 -106.59941,-31.7857c-23.8918,-8.55387 -100.46971,-25.48685 -115.9115,-43.20701c-31.51136,-36.16072 13.13995,-84.23594 30.08207,-131.55686c14.24194,-39.7791 28.03441,-92.38406 65.80057,-105.27848c14.53631,-4.96311 74.8162,68.50601 94.99925,74.46985c20.32639,6.0062 0.5606,-55.4549 16.44771,-49.76691c34.04796,12.19004 94.23152,25.45544 110.21409,54.41952c18.11876,32.83536 -10.97175,82.88088 -24.38465,120.34436z" fill="url(#color-1)" stroke="#444444" stroke-width="4.5"/><path d="M289.8135,297.92144c-20.7311,22.55592 -41.54018,43.61219 -57.19983,47.73556c-13.25813,3.49102 9.07914,42.07715 -9.38073,43.04049c-18.70989,0.97639 -78.223,-35.72733 -92.4385,-40.81685c-23.8918,-8.55387 -100.46971,-25.48685 -115.9115,-43.20701c-31.51136,-36.16072 13.13995,-84.23594 30.08207,-131.55686c14.24194,-39.7791 28.03441,-92.38406 65.80057,-105.27848c11.343,-3.87282 -72.46286,-38.56081 -57.01353,-35.03106c24.28862,5.54929 149.10793,52.8053 168.46049,59.73401c34.04796,12.19004 94.23152,25.45544 110.21409,54.41951c10.08319,18.27305 13.6685,44.95596 2.44355,65.71782c-2.18978,4.05025 -129.31053,71.28105 -133.61459,81.93833c-4.63204,11.4694 113.55608,-33.65586 111.66426,-31.06458c-1.33326,1.82621 -23.10633,34.36913 -23.10633,34.36913z" fill="url(#color-2)" stroke="none" stroke-width="0"/></g></g></g></svg>