<svg version="1.1" xmlns="http://www.w3.org/2000/svg" xmlns:xlink="http://www.w3.org/1999/xlink" width="85.69924" height="45.97994" viewBox="0,0,85.69924,45.97994"><defs><linearGradient x1="95.28811" y1="14.30998" x2="95.28811" y2="40.07331" gradientUnits="userSpaceOnUse" id="color-1"><stop offset="0" stop-color="#000000"/><stop offset="1" stop-color="#ff0000"/></linearGradient><linearGradient x1="86.40687" y1="17.93036" x2="95.45297" y2="28.88538" gradientUnits="userSpaceOnUse" id="color-2"><stop offset="0" stop-color="#ffffff"/><stop offset="1" stop-color="#ffffff" stop-opacity="0"/></linearGradient><linearGradient x1="95.73272" y1="32.58704" x2="102.44953" y2="15.68374" gradientUnits="userSpaceOnUse" id="color-3"><stop offset="0" stop-color="#ffffff" stop-opacity="0"/><stop offset="1" stop-color="#ffffff"/></linearGradient><linearGradient x1="36.78811" y1="34.47665" x2="36.78811" y2="60.23997" gradientUnits="userSpaceOnUse" id="color-4"><stop offset="0" stop-color="#000000"/><stop offset="1" stop-color="#faff00"/></linearGradient><linearGradient x1="37.23272" y1="52.75371" x2="43.94953" y2="35.85041" gradientUnits="userSpaceOnUse" id="color-5"><stop offset="0" stop-color="#ffffff" stop-opacity="0"/><stop offset="1" stop-color="#ffffff"/></linearGradient><linearGradient x1="27.90687" y1="38.09703" x2="36.95297" y2="49.05204" gradientUnits="userSpaceOnUse" id="color-6"><stop offset="0" stop-color="#ffffff"/><stop offset="1" stop-color="#ffffff" stop-opacity="0"/></linearGradient></defs><g transform="translate(-23.09608,-14.26004)"><g data-paper-data="{&quot;isPaintingLayer&quot;:true}" fill-rule="nonzero" stroke-linejoin="miter" stroke-miterlimit="10" stroke-dasharray="" stroke-dashoffset="0" style="mix-blend-mode: normal"><g><path d="M108.79532,27.19165c0,7.11435 -6.04738,12.88166 -13.50721,12.88166c-7.45983,0 -13.50722,-5.76731 -13.50722,-12.88166c0,-7.11434 6.04739,-12.88167 13.50722,-12.88167c7.45983,0 13.50721,5.76732 13.50721,12.88167z" fill="url(#color-1)" stroke="none" stroke-width="0" stroke-linecap="butt"/><g fill="none" stroke="#ffffff" stroke-width="5" stroke-linecap="round"><path d="M102.14102,20.29166l-12.37577,14.41667"/><path d="M103.21518,34.39295l-14.52408,-13.7859"/></g><path d="M100.40106,16.3363c0.32936,0.39887 0.17277,0.76253 0.25804,1.10801c0.11101,0.44974 0.4029,0.8702 0.36744,1.3133c-0.06509,0.81333 -0.15386,1.69951 -1.04968,3.17842c-1.08456,1.79048 -3.64426,2.79158 -5.71926,4.33528c-2.35665,1.75323 -3.1895,2.48589 -4.844,3.34902c-0.62095,0.32394 -1.76525,1.60593 -2.55785,1.6037c-1.97038,-0.00555 -2.77234,-0.72477 -3.78203,-1.94751c-2.49801,-3.02514 -2.10674,-7.29914 3.33316,-11.34615c5.4399,-4.04701 11.54518,-4.87314 14.04319,-1.848z" data-paper-data="{&quot;index&quot;:null}" fill="url(#color-2)" stroke="none" stroke-width="0" stroke-linecap="butt"/><path d="M90.66643,20.7877c1.85479,-4.66772 7.13026,-6.95284 11.78309,-5.10396c4.65283,1.84888 6.92108,7.13163 5.06629,11.79934c-0.85751,2.15797 -2.00509,4.96539 -3.92531,5.93179c-2.23324,1.12394 -5.14557,-0.56961 -7.64731,-1.56372c-2.38151,-0.94633 -5.98931,-2.05265 -6.88827,-4.25527c-0.85737,-2.10071 0.70608,-4.52958 1.61151,-6.80817z" data-paper-data="{&quot;index&quot;:null}" fill="url(#color-3)" stroke="none" stroke-width="0" stroke-linecap="butt"/></g><g><path d="M50.29532,47.35831c0,7.11435 -6.04738,12.88166 -13.50721,12.88166c-7.45983,0 -13.50722,-5.76731 -13.50722,-12.88166c0,-7.11434 6.04739,-12.88167 13.50722,-12.88167c7.45983,0 13.50721,5.76732 13.50721,12.88167z" fill="url(#color-4)" stroke="none" stroke-width="0" stroke-linecap="butt"/><path d="M45.34793,47.62583l-17.28482,-0.86424" fill="none" stroke="#ffffff" stroke-width="5" stroke-linecap="round"/><path d="M32.16643,40.95437c1.85479,-4.66772 7.13027,-6.95284 11.7831,-5.10396c4.65283,1.84888 6.92108,7.13163 5.06629,11.79934c-0.85751,2.15797 -2.00509,4.96539 -3.92532,5.93179c-2.23324,1.12394 -5.14557,-0.56961 -7.64731,-1.56372c-2.38151,-0.94633 -5.98931,-2.05264 -6.88827,-4.25527c-0.85737,-2.10071 0.70607,-4.52958 1.61151,-6.80817z" data-paper-data="{&quot;index&quot;:null}" fill="url(#color-5)" stroke="none" stroke-width="0" stroke-linecap="butt"/><path d="M41.90106,36.50297c0.32937,0.39887 0.17276,0.76253 0.25803,1.10801c0.111,0.44973 0.4029,0.8702 0.36744,1.3133c-0.06509,0.81334 -0.15386,1.69951 -1.04969,3.17842c-1.08456,1.79048 -3.64426,2.79158 -5.71926,4.33528c-2.35665,1.75323 -3.1895,2.48589 -4.84399,3.34902c-0.62095,0.32394 -1.76525,1.60593 -2.55785,1.6037c-1.97038,-0.00555 -2.77234,-0.72477 -3.78203,-1.94752c-2.49801,-3.02515 -2.10674,-7.29915 3.33316,-11.34615c5.4399,-4.047 11.54517,-4.87314 14.04318,-1.848z" data-paper-data="{&quot;index&quot;:null}" fill="url(#color-6)" stroke="none" stroke-width="0" stroke-linecap="butt"/></g></g></g></svg>