<svg version="1.1" xmlns="http://www.w3.org/2000/svg" xmlns:xlink="http://www.w3.org/1999/xlink" width="511.15426" height="472.30005" viewBox="0,0,511.15426,472.30005"><defs><radialGradient cx="240" cy="286.66363" r="175.16566" gradientUnits="userSpaceOnUse" id="color-1"><stop offset="0" stop-color="#00edff"/><stop offset="1" stop-color="#00edff" stop-opacity="0"/></radialGradient></defs><g transform="translate(15.57713,10.47076)"><g data-paper-data="{&quot;isPaintingLayer&quot;:true}" fill-rule="nonzero" stroke-linecap="butt" stroke-linejoin="miter" stroke-miterlimit="10" stroke-dasharray="" stroke-dashoffset="0" style="mix-blend-mode: normal"><path d="M-15.57713,370.47077v-380.94153h511.15426v380.94153z" fill="#000000" stroke="none" stroke-width="0"/><text transform="matrix(1.44659 0 0 1.44659 84.17186 52.29016)" font-size="40"  fill="#00dee6" fill-rule="nonzero" stroke="none" stroke-width="1" stroke-linecap="butt" stroke-linejoin="miter" stroke-miterlimit="10" stroke-dasharray="" stroke-dashoffset="0" font-family="Helvetica" font-weight="normal" text-anchor="start" style="mix-blend-mode: normal" >CREWMATE</text><path d="M64.83434,286.66363c0,-96.74131 78.42435,-175.16566 175.16566,-175.16566c96.74131,0 175.16566,78.42435 175.16566,175.16566c0,96.74131 -78.42435,175.16566 -175.16566,175.16566c-96.74131,0 -175.16566,-78.42435 -175.16566,-175.16566z" fill="url(#color-1)" stroke="#000000" stroke-width="0"/><path d="M218.17493,274.21094c0.97644,-0.3029 2.69336,-0.08602 4.05021,0.03402c-0.1649,5.21682 0.06922,10.30434 0.52134,15.81144v0.00003c0.27044,3.29363 -0.42965,6.61562 -0.52637,9.90841l-0.50472,-0.21036c-1.02852,-0.56031 -2.0634,-1.13901 -3.06398,-1.74782c-3.31895,-4.93699 -2.66829,-11.30399 -2.44154,-16.9727c0.07272,-1.81795 -0.54435,-6.04453 1.96503,-6.82298z" data-paper-data="{&quot;noHover&quot;:false,&quot;origItem&quot;:[&quot;Path&quot;,{&quot;applyMatrix&quot;:true,&quot;segments&quot;:[[[223.49568,173.63024],[0,0],[-1.89817,0.58884]],[[222.02805,178.78567],[0.05501,-1.37514],[-0.17152,4.28797]],[[223.85475,191.53027],[-2.51055,-3.73447],[0.75687,0.46052]],[[226.16009,192.85308],[-0.778,-0.42384],[0,0]],[[226.54018,193.01254],[0,0],[0.07316,-2.49074]],[[226.91199,185.53279],[0.20456,2.49139],[0,0]],[[226.91199,185.53277],[0,0],[-0.34201,-4.16572]],[[226.54381,173.65501],[-0.12474,3.94614],[-1.02637,-0.09081]],[[223.49568,173.63023],[0.7386,-0.22912],[0,0]]],&quot;closed&quot;:true,&quot;fillColor&quot;:[0,0,0,1],&quot;strokeWidth&quot;:0.5}]}" fill="#ffa100" stroke="none" stroke-width="0.25"/><path d="M259.58426,293.71189c0.00027,2.22033 0.07639,4.46984 0.23916,6.6884c-0.0069,0.07346 -0.00706,0.11725 -0.00706,0.11725l0.01724,0.02258c0.00134,0.01782 0.0026,0.03572 0.00394,0.05354c-0.23004,1.30088 -0.37152,2.62929 -0.37641,3.9502c0,1.69289 0.53888,4.55488 -0.6185,6.01645c-1.13477,1.43305 -7.26179,0.52873 -8.96106,0.30577c-0.91672,-0.12026 -2.08639,0.09771 -2.71852,-0.57703c-0.56912,-0.60752 0.05083,-1.79624 0.0038,-2.62738c-0.14577,-2.57628 -1.03944,-6.67972 -3.47633,-8.11444c-2.98586,-1.7579 -5.35027,0.10893 -7.38914,2.01164c-0.15335,2.42479 0.6431,6.59085 -0.46786,8.81447c-1.24931,2.50052 -5.98796,1.38211 -8.01736,0.87331c-0.79974,-0.20051 -2.07049,0.2896 -2.43694,-0.449c-0.49766,-1.00307 -0.10291,-4.18205 0.12467,-6.40849c0.44049,-0.59849 0.30911,-1.38052 0.30911,-1.38052c-0.75822,-4.33415 0.65359,-8.85588 0.31081,-13.23686c-0.5766,-7.36908 -0.76895,-13.80801 -0.14167,-21.15604c0,-3.5621 0.28823,-6.71826 2.80927,-9.45949c1.11342,-1.2107 2.94675,-1.75984 4.40725,-2.3958c5.21523,-2.27094 14.84586,-5.75228 19.7152,-1.29874c3.45465,3.88649 3.85671,7.48896 4.49858,12.67293c1.05231,8.49887 1.51491,17.03776 2.17178,25.5772z" data-paper-data="{&quot;noHover&quot;:false,&quot;origItem&quot;:[&quot;Path&quot;,{&quot;applyMatrix&quot;:true,&quot;segments&quot;:[[[254.77208,188.30426],[0,0],[-0.49688,-6.45945]],[[253.13537,169.01901],[0.796,6.42877],[-0.48552,-3.92128]],[[249.75049,159.44472],[2.6132,2.93984],[-3.6833,-3.36877]],[[234.87221,160.4275],[3.94493,-1.7178],[-1.10477,0.48107]],[[231.54674,162.23588],[0.84222,-0.91581],[-1.90698,2.07355]],[[229.43466,169.38047],[0,-2.69448],[-0.47449,5.55826]],[[229.54952,185.33109],[-0.43616,-5.57418],[0.25929,3.3139]],[[229.30025,195.32512],[-0.57353,-3.27846],[0,0]],[[229.06553,196.36866],[0.33319,-0.45271],[-0.17215,1.68414]],[[228.96641,201.21289],[-0.37644,-0.75874],[0.27719,0.55868]],[[230.80662,201.55076],[-0.60494,-0.15167],[1.5351,0.38487]],[[236.86002,200.88603],[-0.94502,1.89146],[0.84036,-1.682]],[[237.21779,194.21962],[-0.11599,1.83417],[1.54226,-1.43926]],[[242.78805,192.69563],[-2.25858,-1.32972],[1.84333,1.08524]],[[245.43039,198.93262],[-0.11026,-1.94876],[0.03557,0.62869]],[[245.40999,200.82159],[-0.43051,-0.45954],[0.47816,0.51039]],[[247.46202,201.25901],[-0.69344,-0.09097],[1.28537,0.16864]],[[254.2278,201.03293],[-0.85838,1.084],[0.87546,-1.10557]],[[254.69029,196.48555],[0,1.28056],[0.0037,-0.99917]],[[254.97089,193.50107],[-0.17402,0.98401],[-0.00102,-0.01348]],[[254.96785,193.46062],[0.00101,0.01348],[0,0]],[254.95481,193.44355],[[254.96003,193.35498],[-0.00522,0.05557],[-0.12312,-1.67817]],[[254.77209,188.30429],[0.0002,1.67953],[0,0]]],&quot;closed&quot;:true,&quot;fillColor&quot;:[0,0,0,1],&quot;strokeWidth&quot;:0.5}]}" fill="#ffa100" stroke="none" stroke-width="0.25"/><path d="M213.37827,280.7635c-0.12546,-0.25106 -0.1943,-0.5706 -0.16044,-0.97704c0.1452,-1.74246 1.88766,-1.59726 1.88766,-1.59726l1.93637,0.16282c0.34212,0.05789 3.57497,0.88283 3.91356,0.1591c0.54296,-1.16066 -0.45346,-2.75396 0.231,-3.8372c0.34316,-0.54307 1.37511,-0.15234 1.82917,-0.60676c0.68575,-0.68624 -0.14645,-1.9811 0.1432,-2.90704v-1.7972c0,-0.96568 0.78283,-1.74851 1.74851,-1.74851c0.81967,0 1.50757,0.56401 1.69689,1.32507l0.45628,1.673l-0.0078,0.00213l0.01262,0.01585c1.76696,7.06774 0.18743,18.71872 8.00986,22.84491c2.68863,1.41819 5.72723,1.7317 8.70532,1.96084c3.75539,-0.00268 7.46083,-0.30843 11.20603,-0.46602c1.03799,-0.04368 3.60477,-0.4435 4.4719,-0.02384c0.92912,0.44963 1.74607,1.25761 2.18965,2.18965c0.58878,1.23716 -0.04149,3.3198 -0.18995,4.60549c-0.35704,3.09208 0.3904,8.59891 -2.5133,10.59807c-2.50733,1.72626 -8.72377,0.56737 -11.39743,-0.03369c-1.70209,-2.487 -2.65579,-10.47291 -5.73952,-11.42846c-6.93448,-2.14876 -2.46121,9.34525 -5.89624,11.84202c-2.30764,1.67732 -9.09134,0.44632 -11.61849,-0.01785c-1.1339,-2.64845 -0.22145,-7.52213 -1.88103,-9.66233c-1.84978,-2.38546 -5.66174,-3.35902 -6.99521,-6.31721c-1.02978,-2.28452 0.01771,-4.52144 -0.45581,-6.78408c-0.65517,-3.13065 -1.47834,-5.91357 -1.58279,-9.17447z" fill="#ff8200" stroke="none" stroke-width="0.5"/><path d="M221.26548,303.29783l-1.23645,-0.53839c-1.29601,-0.70775 -2.55589,-1.4827 -3.79089,-2.29221c-4.19779,-5.8591 -3.76683,-12.62797 -3.49111,-19.5203c0.11911,-2.97771 -0.27766,-6.01809 2.05639,-8.3046c2.22718,-2.1818 4.77088,-1.86967 7.56809,-1.78143c0.04749,-0.77336 0.10307,-1.55514 0.16706,-2.34769c0,-4.34011 0.58459,-8.41633 3.73554,-11.6922c1.91177,-1.98756 4.96515,-3.06433 7.50076,-4.016c6.62542,-2.48664 15.70593,-4.88597 21.58807,0.24567c4.04031,4.54533 4.72318,8.75894 5.47218,14.697c1.0843,8.59642 1.52356,17.15529 2.18807,25.79402c-0.0003,2.45511 0.10015,4.93568 0.3061,7.38217l0.00605,0.61147c0,0 0,0.55366 -0.31155,1.03788c-0.07105,0.63741 -0.10899,1.27846 -0.10614,1.91837c0,2.70355 0.51986,6.1175 -1.48677,8.32601c-2.47197,2.72068 -10.9825,2.26164 -14.24726,1.0361c-0.97682,-0.3667 -2.0963,-0.6601 -2.77087,-1.45609c-1.41334,-1.66769 0.0563,-12.69379 -4.90634,-9.45654c0.53144,3.48952 0.83981,8.59483 -2.27173,10.97728c-2.85772,2.18807 -12.56209,2.05554 -14.79583,-1.33865c-1.09068,-1.65729 -0.44834,-6.50023 -0.29244,-9.13782c-0.4839,0.02614 -0.88086,-0.14399 -0.88086,-0.14399z" fill="#005258" stroke="none" stroke-width="0.5"/><path d="M241.90616,264.82354c0.19454,0.03736 0.33002,0.0364 0.33002,0.0364c5.7808,0 14.36605,-1.53878 19.69935,1.06159c2.64503,1.28966 2.74517,7.05206 1.35543,8.99681c-4.37099,6.00747 -12.20018,5.15036 -19.08753,5.15277c-2.41885,0.00082 -5.54966,0.29956 -7.38036,-1.66993c-1.32858,-1.42932 -0.82952,-4.25275 -0.85634,-5.99012c1.10439,-3.0039 3.02845,-6.13537 5.93946,-7.58752z" data-paper-data="{&quot;noHover&quot;:false,&quot;origItem&quot;:[&quot;Path&quot;,{&quot;applyMatrix&quot;:true,&quot;segments&quot;:[[[239.90084,166.06497],[0.78953,-2.14749],[0.0192,1.24203]],[[240.50838,170.32677],[-0.94981,-1.02182],[1.30878,1.408]],[[245.76918,171.50163],[-1.72924,0.0006],[4.92377,-0.00171]],[[259.33593,167.84814],[-3.12483,4.29474],[0.99354,-1.39031]],[[258.37182,161.44966],[1.89094,0.92198],[-3.81279,-1.85902]],[[244.36918,160.70163],[4.13268,0],[0,0]],[[244.13387,160.67493],[0.13907,0.0267],[-2.08108,1.03816]]],&quot;closed&quot;:true}]}" fill="#9ddcff" stroke="none" stroke-width="0.5"/><path d="M265.94351,276.14408c0.34291,1.71454 -1.37163,2.05746 -1.37163,2.05746l-0.39648,0.03265c-8.48363,3.84968 -22.27965,4.06502 -30.53159,-0.86956c0,0 -1.49934,-0.89959 -0.59972,-2.39892c0.89959,-1.49934 2.39892,-0.59972 2.39892,-0.59972c7.28183,4.38546 19.82908,4.07923 27.28534,0.68465l1.15774,-0.27818c0,0 1.71454,-0.34291 2.05746,1.37163z" fill="#49bfff" stroke="none" stroke-width="0.5"/><path d="M239.58116,262.07012l0.11657,-0.03886c1.77317,-0.5816 3.96512,-0.79506 5.82234,-0.79506c0,0 0.09807,0 0.19033,0.05192c0.0052,-0.00189 0.01037,-0.00375 0.01557,-0.00564c7.24441,-0.40885 17.91354,-1.30449 20.9352,5.03193c0.86781,1.81978 0.76616,4.25713 0.73416,6.21704c-0.02463,1.50867 -0.50965,3.04515 -1.28235,4.34115c-1.25134,1.7213 -2.45826,3.69777 -4.39589,4.75337c-1.78915,0.97469 -4.19574,1.01637 -6.16476,1.30758c-5.69765,0.84274 -17.02389,2.61208 -21.29336,-2.2543c-2.13338,-2.43163 -1.70157,-5.91378 -1.66802,-8.86585c1.32855,-3.78826 3.43245,-7.31804 6.74661,-9.43872c0.00605,-0.22539 0.24362,-0.3046 0.24362,-0.3046z" fill="#00a6b2" stroke="none" stroke-width="0.5"/><path d="M257.74012,267.38583c0,1.74851 -1.74851,1.74851 -1.74851,1.74851c-1.91686,0 -5.07712,0 -6.99398,0c0,0 -1.74851,0 -1.74851,-1.74851c0,-1.74851 1.74851,-1.74851 1.74851,-1.74851c1.91686,0 3.83375,0 5.75061,0h1.24338c0,0 1.74851,0 1.74851,1.74851z" fill="#00eeff" stroke="none" stroke-width="0.5"/></g></g></svg>