<svg xmlns="http://www.w3.org/2000/svg" xmlns:xlink="http://www.w3.org/1999/xlink" version="1.1" width="26.806725322228232" height="27.807326137047568" viewBox="-0.12366306733169175 -0.22456306170501328 26.806725322228232 27.807326137047568">
  <!-- Exported by Scratch - http://scratch.mit.edu/ -->
  <path id="ID0.6059275302104652" fill="#FFFFFF" stroke="none" d="M 0.405 0.3041 L 26.1544 0.3041 L 26.1544 27.0541 L 0.405 27.0541 L 0.405 0.3041 Z " stroke-width="1.0573261370475693"/>
  <path id="ID0.5009699244983494" fill="#2CA5E2" stroke="none" d="M 1.75 18.6943 L 16.6 18.6943 L 16.6 25.5943 L 1.75 25.5943 L 1.75 18.6943 Z " stroke-width="0.9928828218845205"/>
  <path id="ID0.5009699244983494" fill="#2CA5E2" stroke="none" d="M 10.25 10.1943 L 25.1 10.1943 L 25.1 17.0943 L 10.25 17.0943 L 10.25 10.1943 Z " stroke-width="0.9928828218845205"/>
  <path id="ID0.5009699244983494" fill="#2CA5E2" stroke="none" d="M 18.3068 18.8943 L 24.9291 18.8943 L 24.9291 25.7943 L 18.3068 25.7943 L 18.3068 18.8943 Z " stroke-width="0.7650164654592517"/>
  <path id="ID0.5009699244983494" fill="#2CA5E2" stroke="none" d="M 1.6568 10.1943 L 8.2791 10.1943 L 8.2791 17.0943 L 1.6568 17.0943 L 1.6568 10.1943 Z " stroke-width="0.7650164654592517"/>
  <path id="ID0.5009699244983494" fill="#2CA5E2" stroke="none" d="M 2 1.6943 L 16.85 1.6943 L 16.85 8.5943 L 2 8.5943 L 2 1.6943 Z " stroke-width="0.9928828218845205"/>
  <path id="ID0.5009699244983494" fill="#2CA5E2" stroke="none" d="M 18.3068 1.6943 L 24.9291 1.6943 L 24.9291 8.5943 L 18.3068 8.5943 L 18.3068 1.6943 Z " stroke-width="0.7650164654592517"/>
</svg>