<svg xmlns="http://www.w3.org/2000/svg" xmlns:xlink="http://www.w3.org/1999/xlink" version="1.1" width="71.5" height="102.83000183105469" viewBox="-0.75 -0.75 71.5 102.83000183105469">
  <!-- Exported by Scratch - http://scratch.mit.edu/ -->
  <g id="ID0.6204587807878852">
    <path id="ID0.4177084397524595_21_" fill="none" d="M 0 0 L 70 0 L 70 101.330 L 0 101.330 L 0 0 Z " stroke-width="1"/>
    <path id="ID0.9561568414792418" fill="#FCEE21" stroke="#807B3A" d="M 14 21.330 L 20.160 21.330 L 20.160 79.660 L 14 79.660 L 14 21.330 Z " stroke-width="1"/>
    <path id="ID0.2853305540047586" fill="#FCEE21" stroke="#807B3A" d="M 26.170 87.330 L 17.100 88.330 L 8.030 87.330 L 9.320 79.670 L 24.880 79.670 L 26.170 87.330 " stroke-width="1"/>
    <path id="ID0.0325186369009316" fill="none" stroke="#FFFFFF" stroke-width="1.5" d="M 16 23 L 16 74.670 "/>
    <path id="ID0.0396624063141644" fill="none" stroke="#FFFFFF" stroke-width="1.5" d="M 12.110 81 L 19.900 81 "/>
    <path id="ID0.9916622578166425" fill="#FFC369" stroke="#875608" d="M 50.500 29.040 L 55.500 37.250 L 50.500 45.040 L 55.500 53.170 L 20.160 53.170 L 20.160 21.330 L 55.500 21.330 L 50.500 29.040 " stroke-width="1"/>
    <path id="ID0.7614920232445002" fill="#FCEE21" stroke="#807B3A" d="M 17.030 12.180 C 18.451 12.180 19.738 12.757 20.671 13.689 C 21.603 14.622 22.180 15.909 22.180 17.330 C 22.180 18.751 21.603 20.038 20.671 20.971 C 19.738 21.903 18.451 22.480 17.030 22.480 C 15.609 22.480 14.322 21.903 13.389 20.971 C 12.457 20.038 11.880 18.751 11.880 17.330 C 11.880 15.909 12.457 14.622 13.389 13.689 C 14.322 12.757 15.609 12.180 17.030 12.180 Z " stroke-width="1"/>
    <path id="ID0.9578589233569801" fill="#FFFFFF" d="M 15.440 14.190 C 15.870 14.190 16.260 14.365 16.543 14.647 C 16.825 14.930 17 15.320 17 15.750 C 17 16.180 16.825 16.570 16.543 16.853 C 16.260 17.135 15.870 17.310 15.440 17.310 C 15.010 17.310 14.620 17.135 14.337 16.853 C 14.055 16.570 13.880 16.180 13.880 15.750 C 13.880 15.320 14.055 14.930 14.337 14.647 C 14.620 14.365 15.010 14.190 15.440 14.190 Z " stroke-width="1"/>
    <path id="ID0.4675603983923793_1_" fill="#FAA51D" stroke="#231F20" stroke-width="0.6" d="M 36.380 29.850 C 35.890 29.800 34.860 29.750 34.290 29.770 C 32.780 29.850 31.340 30.410 31.340 30.410 L 27.170 27.570 L 27.890 33.890 C 28.100 33.630 24.510 38.170 26.780 41.990 C 29.050 45.810 33.900 47.510 39.910 46.270 C 45.920 45.020 47.350 41.410 46.950 39.500 C 46.550 37.590 44.280 36.880 44.280 36.880 C 44.280 36.880 44.250 35.380 43.210 33.550 C 42.590 32.460 40.540 30.860 40.540 30.860 L 39.620 27 L 37.230 29.410 L 36.380 29.850 L 36.380 29.850 Z "/>
    <path id="ID0.876089540310204_1_" fill="#FFFFFF" d="M 43.970 36.850 L 43.180 36.160 L 40.260 37.050 C 40.260 37.050 40.260 38.190 38.860 38.510 C 37.460 38.830 35.270 37.750 35.270 37.750 L 32.780 38.890 C 32.780 38.890 30.080 39.200 29.980 40.920 C 29.760 44.750 34.260 46.350 35.970 46.450 C 36.900 46.510 38.610 46.340 39.900 46.070 C 45.590 44.990 47.120 41.410 46.730 39.500 C 46.330 37.590 44.170 37.090 44.170 37.090 L 43.970 36.850 L 43.970 36.850 Z " stroke-width="1"/>
    <path id="ID0.44282719027251005_1_" fill="none" stroke="#231F20" stroke-width="0.6" d="M 22.910 40.560 C 22.910 40.560 24.230 40.680 24.820 40.650 C 25.420 40.610 26.580 40.450 26.580 40.450 "/>
    <path id="ID0.893105489667505_1_" fill="none" stroke="#231F20" stroke-width="0.6" d="M 45.650 38.720 C 45.650 38.720 47.110 38.470 47.850 38.200 C 48.720 37.890 49.300 37.350 49.300 37.350 "/>
    <path id="ID0.03574043000116944_1_" fill="none" stroke="#231F20" stroke-width="0.6" d="M 26.650 39.140 C 26.650 39.140 25.890 38.540 24.690 37.990 C 23.370 37.380 22.640 37.220 22.640 37.220 "/>
    <path id="ID0.6674723788164556_1_" fill="none" stroke="#231F20" stroke-width="0.6" d="M 45.790 40.710 C 45.790 40.710 46.660 41.080 47.560 41.170 C 48.450 41.260 49.050 41.210 49.050 41.210 "/>
    <path id="ID0.12165586883202195_1_" fill="none" stroke="#000000" stroke-width="0.5" stroke-linecap="round" d="M 36.260 29.870 C 37.170 30.100 37.500 30.360 37.500 30.360 "/>
    <path id="ID0.178104005753994_1_" fill="none" stroke="#000000" stroke-width="0.5" d="M 30.350 29.690 L 32.290 31.150 "/>
    <path id="ID0.7735752793960273_1_" fill="#FFFFFF" stroke="#231F20" stroke-width="0.5" d="M 42.500 33.600 C 43.440 35.100 43.470 36.810 42.580 37.420 C 41.680 38.030 40.200 37.310 39.260 35.810 C 38.320 34.310 38.290 32.600 39.180 31.990 C 40.080 31.380 41.570 32.100 42.500 33.600 L 42.500 33.600 Z "/>
    <path id="ID0.19106501014903188_1_" fill="#231F20" d="M 42.260 36 C 42.260 36.360 42 36.660 41.680 36.660 C 41.360 36.660 41.100 36.370 41.100 36 C 41.100 35.640 41.360 35.350 41.680 35.350 C 42.010 35.340 42.260 35.630 42.260 36 " stroke-width="1"/>
    <path id="ID0.06283409334719181_1_" fill="#FFFFFF" stroke="#231F20" stroke-width="0.5" d="M 34.820 34.690 C 35.760 36.190 35.660 37.990 34.600 38.710 C 33.540 39.430 31.930 38.800 30.990 37.300 C 30.050 35.800 30.150 34 31.210 33.280 C 32.270 32.560 33.890 33.190 34.820 34.690 L 34.820 34.690 Z "/>
    <path id="ID0.716460831463337_1_" fill="#231F20" d="M 34.250 36.660 C 34.250 37.020 33.990 37.320 33.670 37.320 C 33.350 37.320 33.090 37.030 33.090 36.660 C 33.090 36.290 33.350 36.010 33.670 36.010 C 33.990 36.010 34.250 36.300 34.250 36.660 " stroke-width="1"/>
    <path id="ID0.5430324394255877_1_" fill="#5E4A42" stroke="#000000" stroke-width="0.5" d="M 38.640 37.800 C 39.230 37.800 40.100 37.700 40.140 37.990 C 40.190 38.280 39.590 39.400 39.180 39.440 C 38.770 39.480 37.220 38.650 37.200 38.130 C 37.180 37.610 38.090 37.800 38.640 37.800 L 38.640 37.800 Z "/>
    <path id="ID0.5547774969600141_1_" fill="none" stroke="#231F20" stroke-width="0.6" d="M 34.470 40.250 C 34.470 40.250 37.780 41.270 39.020 41.550 C 40.260 41.830 42.500 42.110 42.500 42.110 C 42.500 42.110 39.940 45.540 36.950 44.670 C 33.960 43.800 34.020 41.830 34.470 40.250 L 34.470 40.250 Z "/>
  </g>
</svg>