<svg version="1.1" xmlns="http://www.w3.org/2000/svg" xmlns:xlink="http://www.w3.org/1999/xlink" width="57.7495" height="16.4399" viewBox="0,0,57.7495,16.4399"><g transform="translate(-212.05557,-165.35765)"><g data-paper-data="{&quot;isPaintingLayer&quot;:true}" fill="none" fill-rule="nonzero" stroke="#229100" stroke-width="none" stroke-linecap="none" stroke-linejoin="miter" stroke-miterlimit="10" stroke-dasharray="" stroke-dashoffset="0" font-family="none" font-weight="none" font-size="none" text-anchor="none" style="mix-blend-mode: normal"><path d="M240.9523,174.0206c7.7773,0 14.8237,0.3985 19.927,1.0424c5.1033,0.6438 8.0567,1.5734 8.2615,2.514c0.2654,1.1813 -0.2169,2.7286 -6.0986,3.514c-5.8472,0.6944 -14.8089,0.0961 -22.0899,0.0423c-7.1536,-0.0529 -16.2735,0.3091 -22.1831,-0.4022c-5.3044,-0.7035 -6.2886,-2.0635 -6.0055,-3.1541c0.2411,-0.9378 3.1582,-1.8702 8.2615,-2.514c5.1033,-0.6439 12.1497,-1.0424 19.9271,-1.0424z" data-paper-data="{&quot;origPos&quot;:null}" id="ID0.5443468582816422" fill="#32d600" stroke-width="1.32854" stroke-linecap="butt"/><path d="M253.8166,167.446c1.3393,0 2.5526,0.5381 3.4312,1.4081c0.8786,0.8694 1.4226,2.0706 1.4226,3.3958c0,1.3251 -0.544,2.5264 -1.4226,3.3958c-0.8786,0.87 -2.0919,1.4081 -3.4312,1.4081c-1.3392,0 -2.5525,-0.5381 -3.4312,-1.4081c-0.8786,-0.8694 -1.4226,-2.0707 -1.4226,-3.3958c0,-1.3252 0.544,-2.5264 1.4226,-3.3958c0.8787,-0.87 2.092,-1.4081 3.4312,-1.4081z" data-paper-data="{&quot;origPos&quot;:null}" id="ID0.37750169076025486" fill="#ffffff" stroke-width="0.8472" stroke-linecap="butt"/><path d="M243.4339,165.9129c1.9882,-0.0019 3.7901,0.6703 5.0955,1.7585c1.3055,1.0875 2.1145,2.5911 2.1162,4.2506c0.0016,1.6596 -0.8046,3.1647 -2.1079,4.2548c-1.3034,1.0907 -3.104,1.7664 -5.0922,1.7683c-1.9882,0.002 -3.7901,-0.6702 -5.0956,-1.7584c-1.3054,-1.0876 -2.1145,-2.5912 -2.1161,-4.2507c-0.0016,-1.6595 0.8045,-3.1647 2.1079,-4.2548c1.3033,-1.0907 3.1039,-1.7664 5.0922,-1.7683z" data-paper-data="{&quot;origPos&quot;:null}" id="ID0.37750169076025486" fill="#ffffff" stroke-width="1.11049" stroke-linecap="butt"/><path d="M253.8693,168.1284c0.363,0 0.6916,0.4489 0.9296,1.1749c0.2383,0.7259 0.3856,1.7281 0.3856,2.8337c0,1.1057 -0.1473,2.1079 -0.3856,2.8338c-0.238,0.7259 -0.5666,1.1749 -0.9296,1.1749c-0.3631,0 -0.6917,-0.449 -0.9296,-1.1749c-0.2384,-0.7259 -0.3857,-1.7281 -0.3857,-2.8338c0,-1.1056 0.1473,-2.1078 0.3857,-2.8337c0.2379,-0.726 0.5665,-1.1749 0.9296,-1.1749z" data-paper-data="{&quot;origPos&quot;:null}" id="ID0.234124637208879" fill="#229100" stroke-width="1.17898" stroke-linecap="round"/><path d="M243.0253,166.3243c0.5389,-0.0006 1.0273,0.5612 1.3815,1.47c0.3547,0.9088 0.5746,2.1636 0.576,3.5483c0.0013,1.3846 -0.2162,2.6399 -0.5692,3.5494c-0.3524,0.9094 -0.8397,1.4721 -1.3786,1.4727c-0.5389,0.0005 -1.0273,-0.5613 -1.3815,-1.4701c-0.3547,-0.9087 -0.5746,-2.1636 -0.576,-3.5482c-0.0013,-1.3847 0.2162,-2.64 0.5692,-3.5494c0.3523,-0.9095 0.8397,-1.4722 1.3786,-1.4727z" data-paper-data="{&quot;origPos&quot;:null}" id="ID0.234124637208879" fill="#229100" stroke-width="1.54539" stroke-linecap="round"/></g></g></svg>