<svg version="1.1" xmlns="http://www.w3.org/2000/svg" xmlns:xlink="http://www.w3.org/1999/xlink" width="92.18226" height="79.78655" viewBox="0,0,92.18226,79.78655"><g transform="translate(-194.75074,-155.5)"><g data-paper-data="{&quot;isPaintingLayer&quot;:true}" fill="none" fill-rule="nonzero" stroke="none" stroke-width="none" stroke-linecap="none" stroke-linejoin="none" stroke-miterlimit="10" stroke-dasharray="" stroke-dashoffset="0" font-family="none" font-weight="none" font-size="none" text-anchor="none" style="mix-blend-mode: normal"><path d="M225.943,224.825c0.727,0.671 2.172,1.815 -0.808,4.836c-2.981,3.021 -10.011,2.404 -10.818,2.236c-3.021,-0.48 -6.857,-1.224 -10.747,-3.473c-11.266,-6.35 -8.798,-19.662 -4.549,-21.032c4.248,-1.372 4.39,7.129 8.834,13.155c2.012,2.721 4.669,4.116 7.007,5.023c3.259,1.368 10.354,-1.316 11.081,-0.745z" id="ID0.8535828334279358_38_" fill="#faa51f" stroke="none" stroke-width="1" stroke-linecap="butt" stroke-linejoin="miter"/><path d="M203.289,211.522c1.212,2.755 3.51,7.664 3.51,7.664c0,0 -3.961,-1.443 -6.408,-0.041c-2.443,1.399 -0.964,5.843 -2.319,4.497c-0.964,-1.563 -2.466,-4.106 -2.815,-7.795c-0.247,-3.691 1.868,-8.279 3.959,-8.564c2.198,-0.09 3.07,1.678 4.073,4.239z" id="ID0.914295740891248_44_" fill="#ffffff" stroke="none" stroke-width="1" stroke-linecap="butt" stroke-linejoin="miter"/><path d="M225.943,224.825c0.727,0.671 2.172,1.815 -0.808,4.836c-2.981,3.021 -10.011,2.404 -10.818,2.236c-3.021,-0.48 -6.857,-1.224 -10.747,-3.473c-11.266,-6.35 -8.798,-19.662 -4.549,-21.032c4.248,-1.372 4.39,7.129 8.834,13.155c2.012,2.721 4.669,4.116 7.007,5.023c3.259,1.368 10.354,-1.316 11.081,-0.745z" id="ID0.40227043256163597_44_" fill="#ffffff" stroke="#8e5322" stroke-width="1.4" stroke-linecap="round" stroke-linejoin="round"/><path d="M220.189,197.53h7.469v9.474h-7.469z" id="ID0.558607118204236" fill="#fefbdf" stroke="none" stroke-width="1" stroke-linecap="butt" stroke-linejoin="miter"/><path d="M235.632,209.019l-5.072,13.729c0,0 1.586,-0.785 -3.176,2.299c-2.814,1.78 -16.642,-2.591 -18.531,-7.523c-1.293,-3.402 5.352,-18.23 5.352,-18.23z" id="ID0.26344340899959207_39_" fill="#518943" stroke="#426c36" stroke-width="1.4" stroke-linecap="round" stroke-linejoin="round"/><path d="M219.559,192.653c1.377,0.402 2.391,1.564 2.916,3.115c0.527,1.549 0.564,3.488 -0.012,5.449c-0.572,1.959 -1.654,3.57 -2.936,4.59c-1.279,1.021 -2.76,1.449 -4.137,1.045c-1.377,-0.404 -2.391,-1.564 -2.916,-3.117c-0.772,-2.273 2.347,-13.432 0.01,-5.447c0.576,-1.959 1.656,-3.57 2.938,-4.59c1.279,-1.019 2.76,-1.449 4.137,-1.045z" id="ID0.2414738917723298_39_" fill="#fefbdf" stroke="#70715e" stroke-width="1.4" stroke-linecap="round" stroke-linejoin="round"/><path d="M218.629,195.819c0.74,0.217 1.283,0.855 1.561,1.711c0.277,0.854 0.291,1.926 -0.029,3.012c-0.318,1.084 -0.908,1.98 -1.604,2.549c-0.693,0.57 -0.496,-3.188 -1.236,-3.404c-0.74,-0.216 -2.283,3.145 -2.561,2.289c-0.277,-0.854 -0.289,-1.926 0.029,-3.012c0.318,-1.084 0.908,-1.98 1.604,-2.549c0.695,-0.57 1.496,-0.814 2.236,-0.596z" id="ID0.6192030962556601_39_" fill="#fefbdf" stroke="#70715e" stroke-width="1.4" stroke-linecap="round" stroke-linejoin="round"/><path d="M211.484,216.731c-0.707,-1.144 1.627,-6.607 1.627,-6.607l5.871,3.078l-2.648,7.248c0,0 -4.213,-2.695 -4.85,-3.719z" id="ID0.15330331353470683_39_" fill="#518943" stroke="#426c36" stroke-width="1.4" stroke-linecap="round" stroke-linejoin="round"/><path d="M241.576,214.997c-1.887,6.43 -3.016,16.313 -14.436,12.961c-11.418,-3.352 -7.826,-11.678 -5.939,-18.107c1.887,-6.429 6.326,-7.002 12.756,-5.115c6.428,1.888 9.506,3.833 7.619,10.261z" id="ID0.46792364912107587_44_" fill="#ffffff" stroke="#8e5322" stroke-width="1.4" stroke-linecap="round" stroke-linejoin="round"/><path d="M242.227,217.301c8.563,-4.609 9.033,0.7 8.482,3.601c-2.512,9.917 6.317,2.325 2.426,10.374c-1.493,2.007 -5.527,0.878 -8.643,0.686c-4.666,-0.288 -1.132,-1.31 -0.397,-5.176c-1.404,0.097 -9.011,0.91 -9.011,0.91" id="ID0.527006761636585_42_" fill="#ffffff" stroke="#8e5322" stroke-width="1.4" stroke-linecap="round" stroke-linejoin="round"/><path d="M249.61,227.451c0.283,-1.386 0.472,-3.322 0.859,-4.384" id="ID0.8937406223267317_58_" fill="#faa51f" stroke="#8e5322" stroke-width="1.4" stroke-linecap="round" stroke-linejoin="round"/><path d="M239.641,217.539c-1.184,4.031 -2.094,10.33 -8.234,8.527c-6.141,-1.801 -4.057,-7.129 -2.873,-11.16c1.184,-4.031 3.631,-4.563 7.182,-3.52c3.55,1.042 5.106,2.126 3.925,6.153z" id="ID0.38032895559445024_44_" fill="#ffffff" stroke="none" stroke-width="1" stroke-linecap="butt" stroke-linejoin="miter"/><path d="M238.898,209.546l3.803,-1.918c5.99,1.064 13.667,7.888 9.863,13.159" id="ID0.30105241015553474_35_" fill="#faa51f" stroke="#8e5322" stroke-width="1.4" stroke-linecap="round" stroke-linejoin="round"/><path d="M245.962,217.084l-2.149,-3.205" id="ID0.7841392233967781_34_" fill="#faa51f" stroke="#8e5322" stroke-width="1.4" stroke-linecap="round" stroke-linejoin="round"/><path d="M246.926,216.47l-0.964,0.614" id="ID0.4326359131373465_30_" fill="none" stroke="#8e5322" stroke-width="1.4" stroke-linecap="round" stroke-linejoin="round"/><path d="M218.774,218.374c19.064,-9.203 6.232,-18.389 6.232,-18.389c16.219,10.074 -1.771,20.949 -6.375,21.369" id="ID0.48627097019925714_39_" fill="#518943" stroke="#426c36" stroke-width="1.4" stroke-linecap="round" stroke-linejoin="round"/><path d="M239.179,219.381c6.51,-7.261 -2.564,-13.99 -2.564,-13.99c10.275,5.83 7.627,11.307 4.119,15.801" id="ID0.07006075512617826_39_" fill="#518943" stroke="#426c36" stroke-width="1.4" stroke-linecap="round" stroke-linejoin="round"/><path d="M252.564,220.787c-3.682,5.652 -8.477,3.376 -8.16,0.031c0.204,-2.367 0.95,-5.013 4.423,-4.627" id="ID0.7947451807558537_30_" fill="#ffffff" stroke="#8e5322" stroke-width="1.4" stroke-linecap="round" stroke-linejoin="round"/><path d="M228.683,219.138c8.245,-0.576 7.743,1.323 8.213,3.192c-2.397,10.126 7.378,3.398 3.298,10.394c-1.407,3.102 -5.751,1.514 -8.688,0.979c-4.599,-0.838 -1.698,-2.584 -1.11,-6.474c-1.399,0.151 -6.184,-0.166 -6.184,-0.166" id="ID0.527006761636585_41_" fill="#ffffff" stroke="#8e5322" stroke-width="1.4" stroke-linecap="round" stroke-linejoin="round"/><path d="M236.448,229c0.231,-1.393 0.344,-3.337 0.691,-4.413" id="ID0.8937406223267317_57_" fill="#faa51f" stroke="#8e5322" stroke-width="1.4" stroke-linecap="round" stroke-linejoin="round"/><path d="M227.603,228.297c0.995,-0.919 3.464,-0.917 3.718,-1.445" id="ID0.8937406223267317_54_" fill="#faa51f" stroke="#8e5322" stroke-width="1.4" stroke-linecap="round" stroke-linejoin="round"/><path d="M231.49,225.881c-4.493,1.391 -9.706,-8.658 -8.939,-17.31l6.454,-4.765" id="ID0.15909873321652412_34_" fill="#ffffff" stroke="#8e5322" stroke-width="1.4" stroke-linecap="round" stroke-linejoin="round"/><path d="M230.977,216.982l-1.116,-4.781" id="ID0.8143284288235009_34_" fill="#faa51f" stroke="#8e5322" stroke-width="1.4" stroke-linecap="round" stroke-linejoin="round"/><path d="M230.977,216.982l-1.045,0.665" id="ID0.6682511982508004_30_" fill="none" stroke="#8e5322" stroke-width="1.4" stroke-linecap="round" stroke-linejoin="round"/><path d="M230.574,217.494c4.372,-3.937 9.558,-1.903 10.162,-0.313c1.457,3.73 -2.003,7.258 -10.537,9.006" id="ID0.1790580078959465_58_" fill="#ffffff" stroke="#8e5322" stroke-width="1.4" stroke-linecap="round" stroke-linejoin="round"/><path d="M256.975,169.156l8.762,-4.908l-0.182,11.542c0,0 4.804,6.044 5.815,9.626c1.628,5.919 0.617,10.101 0.617,10.101c0,0 6.125,3.808 5.867,9.432c-0.259,5.623 -7.121,14.658 -25.634,13.445c-18.512,-1.212 -31.355,-9.711 -35.159,-22.215c-3.737,-12.379 10.102,-22.349 9.316,-21.731l2.591,-18.248l10.061,11.171c0,0 4.592,-0.535 9.088,0.458c1.668,0.34 4.612,1.334 6.035,1.817z" id="ID0.2591130444779992_42_" fill="#faa51f" stroke="none" stroke-width="1" stroke-linecap="butt" stroke-linejoin="miter"/><path d="M271.471,195.897c0,0 5.963,3.247 5.706,8.869c0.031,5.702 -7.383,14.488 -24.801,13.049c-3.947,-0.328 -7.512,-0.555 -12.825,-1.974c-8.237,-2.092 -15.858,-9.612 -12.32,-20.155c2.036,-6.083 9.734,-3.511 9.734,-3.511l7.322,0.092c0,0 6.448,3.376 10.739,3.59c4.29,0.212 5.141,-2.977 5.141,-2.977l9.173,-0.243l1.803,2.552z" id="ID0.3588979784399271_42_" fill="#ffffff" stroke="none" stroke-width="1" stroke-linecap="butt" stroke-linejoin="miter"/><path d="M286.233,202.807c0,0 -2.313,0.674 -5.048,0.368c-2.332,-0.223 -6.604,-1.482 -6.604,-1.482" id="ID0.2727069961838424_42_" fill="none" stroke="#8e5322" stroke-width="1.4" stroke-linecap="round" stroke-linejoin="round"/><path d="M281.959,212.865c0,0 -1.716,-0.576 -4.038,-1.982c-2.457,-1.362 -4.352,-3.456 -4.352,-3.456" id="ID0.5861211125738919_42_" fill="none" stroke="#8e5322" stroke-width="1.4" stroke-linecap="round" stroke-linejoin="round"/><path d="M237.193,165.328l4.096,4.818" id="ID0.4793355236761272_42_" fill="none" stroke="#8e5322" stroke-width="1.4" stroke-linecap="round" stroke-linejoin="round"/><path d="M256.975,169.156l8.762,-4.908l-0.182,11.542c0,0 4.804,6.044 5.815,9.626c1.628,5.919 0.617,10.101 0.617,10.101c0,0 6.125,3.808 5.867,9.432c-0.259,5.623 -7.121,14.658 -25.634,13.445c-18.512,-1.212 -31.355,-9.711 -35.159,-22.215c-3.737,-12.379 10.102,-22.349 9.316,-21.731l2.591,-18.248l10.061,11.171c0,0 4.592,-0.535 9.088,0.458c1.668,0.34 4.612,1.334 6.035,1.817z" id="ID0.48413723474368453_42_" fill="none" stroke="#8e5322" stroke-width="1.4" stroke-linecap="round" stroke-linejoin="round"/><path d="M217.639,191.677c0,0 -3.514,0.362 -5.319,0.391c-1.803,0.033 -5.782,-0.525 -5.782,-0.525" id="ID0.9024141579866409_42_" fill="none" stroke="#8e5322" stroke-width="1.4" stroke-linecap="round" stroke-linejoin="round"/><path d="M207.138,181.707c0,0 2.166,0.559 6.024,2.639c3.562,1.898 3.542,1.906 5.65,3.714" id="ID0.16030752705410123_42_" fill="none" stroke="#8e5322" stroke-width="1.4" stroke-linecap="round" stroke-linejoin="round"/><path d="M270.55,185.422c1.596,4.876 0.403,9.734 -2.643,10.681c-3.072,1.042 -6.879,-2.146 -8.451,-7.119c-1.597,-4.875 -0.402,-9.733 2.644,-10.681c3.047,-0.947 6.852,2.243 8.45,7.119z" id="ID0.40023312577977777_42_" fill="#ffffff" stroke="#8e5322" stroke-width="1.4" stroke-linecap="round" stroke-linejoin="round"/><path d="M269.523,188.876c0.034,1.042 -0.707,1.88 -1.751,1.911c-0.947,0.058 -1.758,-0.78 -1.763,-1.92c-0.035,-1.043 0.706,-1.881 1.749,-1.913c1.019,0.065 1.733,0.878 1.765,1.922" id="ID0.43813491938635707_42_" fill="#414142" stroke="none" stroke-width="1" stroke-linecap="butt" stroke-linejoin="miter"/><path d="M250.901,182.961c1.598,4.879 -0.032,9.823 -3.665,11.028c-3.634,1.204 -7.904,-1.797 -9.477,-6.771c-1.597,-4.877 0.034,-9.823 3.667,-11.028c3.607,-1.109 7.879,1.895 9.475,6.771z" id="ID0.4253597157076001_42_" fill="#ffffff" stroke="#8e5322" stroke-width="1.4" stroke-linecap="round" stroke-linejoin="round"/><path d="M249.605,186.653c-0.257,0.967 -1.263,1.629 -2.131,1.396c-0.966,-0.258 -1.437,-1.212 -1.153,-2.272c0.257,-0.966 1.263,-1.631 2.132,-1.398c0.871,0.232 1.437,1.212 1.152,2.274" id="ID0.814307457767427_42_" fill="#414142" stroke="none" stroke-width="1" stroke-linecap="butt" stroke-linejoin="miter"/><path d="M256.313,194.409c1.696,0.246 4.255,-0.417 4.052,1.497c-0.206,0.771 -2.602,3.549 -4.366,3.18c-1.959,-0.418 -4.694,-3.736 -4.212,-5.16c0.482,-1.424 3.026,0.291 4.526,0.483z" id="ID0.5240494590252638_48_" fill="#5f4b43" stroke="#8e5322" stroke-width="1.4" stroke-linecap="round" stroke-linejoin="round"/><path d="M252.636,211.52c-5.502,-0.331 -7.325,-3.195 -7.325,-3.195" id="ID0.046259244438260794_36_" fill="#ffffff" stroke="#8e5322" stroke-width="1.4" stroke-linecap="round" stroke-linejoin="round"/></g></g></svg>