<svg version="1.1" xmlns="http://www.w3.org/2000/svg" xmlns:xlink="http://www.w3.org/1999/xlink" width="468.87353" height="348.84571" viewBox="0,0,468.87353,348.84571"><defs><linearGradient x1="199.47851" y1="-18.04489" x2="199.47851" y2="330.80084" gradientUnits="userSpaceOnUse" id="color-1"><stop offset="0" stop-color="#0c556e"/><stop offset="1" stop-color="#002734"/></linearGradient><linearGradient x1="220.95638" y1="39.99116" x2="220.95638" y2="123.58462" gradientUnits="userSpaceOnUse" id="color-2"><stop offset="0" stop-color="#0c556e"/><stop offset="1" stop-color="#002734"/></linearGradient><linearGradient x1="269.6335" y1="77.02036" x2="269.6335" y2="107.49405" gradientUnits="userSpaceOnUse" id="color-3"><stop offset="0" stop-color="#1490ba"/><stop offset="1" stop-color="#005673"/></linearGradient><linearGradient x1="90.12033" y1="70.39244" x2="90.12033" y2="113.80542" gradientUnits="userSpaceOnUse" id="color-4"><stop offset="0" stop-color="#015875"/><stop offset="1" stop-color="#148db7"/></linearGradient><linearGradient x1="97.73927" y1="87.48118" x2="97.73927" y2="109.45724" gradientUnits="userSpaceOnUse" id="color-5"><stop offset="0" stop-color="#ffffff" stop-opacity="0"/><stop offset="1" stop-color="#ffffff"/></linearGradient><linearGradient x1="78.46859" y1="89.41943" x2="96.63796" y2="76.75252" gradientUnits="userSpaceOnUse" id="color-6"><stop offset="0" stop-color="#ffffff"/><stop offset="1" stop-color="#ffffff" stop-opacity="0"/></linearGradient></defs><g transform="translate(29.23931,18.04487)"><g data-paper-data="{&quot;isPaintingLayer&quot;:true}" fill-rule="nonzero" stroke-linejoin="miter" stroke-miterlimit="10" stroke-dasharray="" stroke-dashoffset="0" style="mix-blend-mode: normal"><path d="M389.89753,318.24413c-38.00582,19.70177 -135.36476,7.57764 -185.44528,7.57764c-42.36797,0 -172.2656,12.45252 -206.50985,-2.02843c-29.91413,-12.64986 -26.75066,-132.78654 -26.75066,-169.05327c0,-53.30526 -7.92438,-121.65381 44.18167,-153.02981c40.25403,-24.23925 132.93156,-18.0518 189.07896,-18.0518c60.37817,0 162.44245,-9.83709 203.86435,17.76924c46.95824,31.29613 41.34063,285.83776 -18.41916,316.81652z" fill="url(#color-1)" stroke="none" stroke-width="2" stroke-linecap="butt"/><path d="M379.66631,120.57567c-31.67699,4.72111 -112.82346,1.81582 -154.56444,1.81582c-35.31275,0 -143.57947,2.98398 -172.12128,-0.48607c-24.93275,-3.03127 -22.29607,-31.81947 -22.29607,-40.51002c0,-12.77347 -6.60479,-29.15175 36.82442,-36.67034c33.55082,-5.80842 110.79544,-4.32573 157.59302,-4.32573c50.32383,0 135.39209,-2.35725 169.91631,4.25802c39.13863,7.49945 34.45647,68.49494 -15.35196,75.91834z" fill="url(#color-2)" stroke="none" stroke-width="2" stroke-linecap="butt"/><path d="M380.86594,106.39715c-22.20094,1.72107 -79.07275,0.66195 -108.32706,0.66195c-24.74908,0 -100.62821,1.0878 -120.63184,-0.17719c-14.50252,-0.91712 -15.62628,-11.19641 -15.62628,-14.76778c0,-4.65653 -4.62899,-10.62717 25.80853,-13.36804c23.51422,-2.11744 77.65139,-1.57693 110.44965,-1.57693c35.26965,0 94.89005,-0.85932 119.08648,1.55224c27.43046,2.7339 24.14894,24.96958 -10.75948,27.67576z" fill="url(#color-3)" stroke="none" stroke-width="2" stroke-linecap="butt"/><path d="M117.78032,92.09894c0,11.98816 -12.3838,21.7065 -27.65999,21.7065c-15.27619,0 -27.65998,-9.71834 -27.65998,-21.7065c0,-11.98816 12.38379,-21.7065 27.65998,-21.7065c15.27619,0 27.65999,9.71834 27.65999,21.7065z" fill="url(#color-4)" stroke="none" stroke-width="10" stroke-linecap="butt"/><g fill="none" stroke-width="5"><path d="M91.82482,87.48118l11.8289,21.97606" stroke="url(#color-5)" stroke-linecap="round"/><path d="M79.34625,74.85809c5.01733,-3.49788 12.75909,-2.6497 17.2917,1.89444c4.5326,4.54415 4.13968,11.0635 -0.87766,14.56137c-5.01733,3.49787 -12.75909,2.6497 -17.2917,-1.89444c-4.5326,-4.54416 -4.13968,-11.06351 0.87766,-14.56138z" stroke="url(#color-6)" stroke-linecap="butt"/></g><path d="" fill="#000000" stroke="none" stroke-width="0" stroke-linecap="butt"/><path d="" fill="#929292" stroke="none" stroke-width="0" stroke-linecap="butt"/><path d="" fill="#ffffff" stroke="none" stroke-width="0" stroke-linecap="butt"/></g></g></svg>