<svg version="1.1" xmlns="http://www.w3.org/2000/svg" xmlns:xlink="http://www.w3.org/1999/xlink" width="442.20207" height="440.23251" viewBox="0,0,442.20207,440.23251"><defs><linearGradient x1="297.4647" y1="61.29534" x2="178.26852" y2="394.2216" gradientUnits="userSpaceOnUse" id="color-1"><stop offset="0" stop-color="#000000"/><stop offset="1" stop-color="#000000" stop-opacity="0"/></linearGradient><linearGradient x1="305.90737" y1="35.45055" x2="186.71119" y2="368.37681" gradientUnits="userSpaceOnUse" id="color-2"><stop offset="0" stop-color="#dcdcdc"/><stop offset="1" stop-color="#bababa"/></linearGradient></defs><g transform="translate(-21.28259,7.42726)"><g data-paper-data="{&quot;isPaintingLayer&quot;:true}" fill-rule="nonzero" stroke-linejoin="miter" stroke-miterlimit="10" stroke-dasharray="" stroke-dashoffset="0" style="mix-blend-mode: normal"><path d="M410.23533,287.70738c-19.73413,55.1193 -36.66816,129.56151 -90.35055,143.69669c-34.14081,8.98967 -100.21107,-27.71935 -136.328,-40.65014c-30.55478,-10.93939 -128.48883,-32.59466 -148.23705,-55.25663c-40.29929,-46.24527 16.80444,-107.72777 38.47139,-168.24562c18.21375,-50.87274 35.85269,-118.14824 84.15113,-134.63867c37.31248,-12.73952 102.03525,17.09489 142.52742,31.59213c43.5433,15.58962 120.51093,32.55448 140.95074,69.59609c23.17174,41.99253 -14.03157,105.9948 -31.18507,153.90615z" fill="url(#color-1)" stroke="none" stroke-width="0" stroke-linecap="butt"/><path d="M422.41193,277.80391c-19.73413,55.1193 -36.66816,129.56152 -90.35055,143.69671c-34.14081,8.98967 -100.21107,-27.71935 -136.32799,-40.65014c-30.55478,-10.93939 -128.48883,-32.59465 -148.23705,-55.25664c-40.29929,-46.24527 16.80444,-107.72777 38.47139,-168.24562c18.21375,-50.87274 35.85269,-118.14824 84.15112,-134.63867c37.31248,-12.73952 102.03525,17.09489 142.52743,31.59213c43.5433,15.58962 120.51092,32.55448 140.95073,69.5961c23.17174,41.99252 -14.03156,105.99481 -31.18507,153.90616z" fill="#9c9c9c" stroke="#000000" stroke-width="5" stroke-linecap="butt"/><path d="M418.88633,270.34585c-19.73413,55.1193 -36.66816,129.56152 -90.35055,143.69671c-34.14082,8.98967 -100.21107,-27.71935 -136.328,-40.65014c-30.55478,-10.93939 -128.48883,-32.59465 -148.23705,-55.25664c-40.29929,-46.24527 16.80444,-107.72777 38.47139,-168.24562c18.21375,-50.87274 35.85269,-118.14824 84.15113,-134.63867c37.31248,-12.73952 102.03524,17.09489 142.52742,31.59213c43.5433,15.58962 120.51093,32.55448 140.95073,69.5961c23.17174,41.99253 -14.03156,105.9948 -31.18507,153.90615z" fill="#bebebe" stroke="#444444" stroke-width="4.5" stroke-linecap="butt"/><path d="M418.67801,261.8626c-19.73413,55.1193 -36.66816,129.56152 -90.35055,143.6967c-34.14081,8.98967 -100.21107,-27.71935 -136.32799,-40.65014c-30.55478,-10.93939 -128.48883,-32.59466 -148.23705,-55.25664c-40.29929,-46.24527 16.80444,-107.72776 38.47139,-168.24561c18.21375,-50.87274 35.85268,-118.14824 84.15112,-134.63867c37.31248,-12.73952 102.03525,17.09489 142.52743,31.59213c43.5433,15.58962 120.51092,32.55448 140.95073,69.5961c23.17174,41.99253 -14.03156,105.9948 -31.18507,153.90615z" fill="url(#color-2)" stroke="#444444" stroke-width="4.5" stroke-linecap="butt"/><path d="M387.83522,289.91238c-26.51262,28.84634 -53.12496,55.77481 -73.15179,61.04811c-16.95558,4.4646 11.61114,53.81168 -11.99684,55.04368c-23.92773,1.24869 -100.03793,-45.69101 -118.21787,-52.1999c-30.55478,-10.93939 -128.48883,-32.59465 -148.23705,-55.25664c-40.29929,-46.24527 16.80444,-107.72776 38.47139,-168.24561c18.21375,-50.87274 35.85268,-118.14824 84.15112,-134.63868c37.31248,-12.73952 102.03525,17.0949 142.52743,31.59214c43.5433,15.58962 120.51093,32.55448 140.95073,69.59609c12.8952,23.36906 17.48039,57.49333 3.12501,84.04529c-5.81434,10.7543 -23.40435,58.66824 -28.07187,65.06148c-1.70508,2.3355 -29.55025,43.95404 -29.55025,43.95404z" fill="#fafafa" stroke="none" stroke-width="0" stroke-linecap="butt"/><text transform="matrix(2.16506 0 0 2.16506 158.11325 32.99497)" font-size="40"  fill="#313131" fill-rule="nonzero" stroke="none" stroke-width="1" stroke-linecap="butt" stroke-linejoin="miter" stroke-miterlimit="10" stroke-dasharray="" stroke-dashoffset="0" font-family="Helvetica" font-weight="normal" text-anchor="start" style="mix-blend-mode: normal" >To Do:</text><path d="M100.45313,115.5l281,104" fill="none" stroke="#000000" stroke-width="0.5" stroke-linecap="round"/><path d="M80.45313,154.5l282,103" fill="none" stroke="#000000" stroke-width="0.5" stroke-linecap="round"/><path d="M68.45313,193.5l268,96" fill="none" stroke="#000000" stroke-width="0.5" stroke-linecap="round"/><path d="M44.45313,221.5l271,101" fill="none" stroke="#000000" stroke-width="0.5" stroke-linecap="round"/></g></g></svg>