<svg xmlns="http://www.w3.org/2000/svg" xmlns:xlink="http://www.w3.org/1999/xlink" version="1.1" width="154.37289737315305" height="170.68377994151243" viewBox="0.34930003359254014 5.34549987986024 154.37289737315305 170.68377994151243">
  <!-- Exported by Scratch - http://scratch.mit.edu/ -->
  <g id="ID0.2712148008868098">
    <path id="ID0.7152078151702881_1_" fill="#FAA51D" stroke="#000000" d="M 58.2482 142.064 C 54.419 139.6637 50.0554 136.2473 47.3637 130.8497 C 41.3448 118.7798 43.8199 103.7571 35.8204 104.7297 C 27.8134 105.7029 19.1256 128.1266 37.1717 143.1995 C 43.3884 148.3983 49.9134 150.9805 55.2621 152.9223 C 56.6677 153.4249 68.9067 157.0057 75.2525 152.746 C 81.5987 148.4849 79.3634 145.9215 78.2984 144.568 C 77.2293 143.2155 63.6629 145.4564 58.2482 142.064 L 58.2482 142.064 Z " stroke-width="0.9999999853848321"/>
    <path id="ID0.4691764716990292_1_" fill="#FFFFFF" d="M 36.6119 105.547 C 32.7953 105.255 27.9818 112.0248 27.3408 118.6615 C 26.6967 125.3055 28.4613 129.0304 29.6373 132.2133 C 31.5526 135.0189 30.0243 127.6187 34.7644 126.0299 C 39.4898 124.4455 45.1885 128.3315 45.1885 128.3315 C 45.1885 128.3315 42.8992 119.5498 41.6816 114.3065 C 40.5492 109.2954 40.5829 106.1192 36.6119 105.547 L 36.6119 105.547 Z " stroke-width="0.9999999853848321"/>
  </g>
  <path id="ID0.7115552560426295" fill="#FAA51D" stroke="#000000" stroke-width="1.2000000221010108" d="M 133.1167 125.0252 C 132.5445 126.9323 131.1055 128.5516 129.0865 129.2761 L 111.7396 135.5047 C 109.6468 136.2561 107.3155 135.8864 105.5586 134.523 L 91.1066 123.3097 C 88.2702 121.1081 87.7579 117.0248 89.955 114.1892 C 92.1566 111.3529 96.2398 110.8374 99.0755 113.0377 L 110.707 122.0626 L 124.6934 117.0408 C 128.0724 115.8281 131.7937 117.5835 133.0076 120.9619 C 133.4965 122.3232 133.5032 123.7391 133.1167 125.0252 L 133.1167 125.0252 Z "/>
  <path id="ID0.10610466729849577" fill="#FAA51D" stroke="#000000" stroke-width="1.200000034285867" d="M 146.7547 134.0466 C 146.7483 134.0666 146.7418 134.0865 146.7354 134.1065 L 140.4227 153.1711 C 139.6625 155.4729 137.8372 157.2657 135.5214 157.9837 C 133.2063 158.703 130.6855 158.2567 128.7575 156.7881 L 114.3783 145.8432 L 94.1898 148.5811 C 90.0851 149.1376 86.3063 146.261 85.7499 142.1563 C 85.1928 138.0536 88.0703 134.2719 92.1747 133.7164 L 115.442 130.5626 C 117.4135 130.2955 119.4095 130.8214 120.9918 132.026 L 129.476 138.483 L 132.5001 129.3766 C 133.8054 125.4456 138.0509 123.3173 141.983 124.623 C 145.8912 125.9241 148.0188 130.1326 146.7547 134.0466 L 146.7547 134.0466 Z "/>
  <path id="ID0.26425604708492756_1_" fill="#FAA51D" stroke="#231F20" stroke-width="1.1999999245010178" d="M 100.604 139.0061 C 101.4593 136.3873 101.7462 132.8706 101.7049 127.7486 C 101.6702 123.4789 100.0087 116.48 100.0087 116.48 C 98.7171 111.7461 96.1136 104.4917 89.5439 107.3839 C 86.8857 108.555 83.2523 111.4722 77.0991 114.1726 C 70.9392 116.8705 64.1635 117.4062 64.9762 127.446 C 65.7929 137.4879 59.0132 149.9578 80.5771 153.6771 L 100.604 139.0061 Z "/>
  <path id="ID0.46752600744366646" fill="#FAA51D" stroke="#000000" stroke-width="1.199999994209087" d="M 130.5299 145.1052 L 126.363 169.2066 C 125.899 171.8908 124.0161 174.1115 121.4444 175.0105 C 118.873 175.9075 116.0168 175.3407 113.9837 173.5288 L 96.0228 157.524 L 77.7519 154.2708 C 73.6859 153.5465 70.973 149.6737 71.6756 145.61 C 71.6778 145.5972 71.6798 145.5853 71.682 145.5725 C 72.4085 141.4937 76.3032 138.7775 80.3803 139.5026 L 100.7412 143.1284 C 102.1087 143.3719 103.3801 143.9895 104.4168 144.9137 L 113.8832 153.3487 L 115.75 142.5509 C 116.4558 138.4684 120.3357 135.7324 124.4181 136.4382 C 128.5005 137.144 131.2357 141.0227 130.5299 145.1052 L 130.5299 145.1052 Z "/>
  <path id="ID0.203311821911484_1_" fill="#FFFFFF" d="M 100.6005 124.3504 C 100.6005 124.3504 101.5855 117.7481 91.3312 118.8458 C 81.0769 119.9436 80.3673 126.3126 79.6499 130.2306 C 78.3958 137.0063 93.1755 140.5533 93.1755 140.5533 L 99.8894 138.2507 C 99.8894 138.2507 100.8157 133.9473 100.588 131.1342 C 100.6512 128.385 100.6005 124.3504 100.6005 124.3504 " stroke-width="0.9999999370841814"/>
  <path id="ID0.17305035842582583" fill="#FAA51D" d="M 88.5678 146.9936 C 87.736 151.6334 82.7385 154.6201 77.4055 153.6643 C 72.0722 152.7098 68.4215 148.1728 69.254 143.5325 C 70.0852 138.8919 73.9533 134.2533 79.2863 135.2092 C 88.3629 136.8346 90.0573 138.6693 88.5678 146.9936 Z " stroke-width="0.9999999370841814"/>
  <path id="ID0.7115552560426295" fill="#FAA51D" stroke="#000000" stroke-width="1.2000000239768762" d="M 112.9239 121.7952 C 112.8025 123.7825 111.7714 125.6877 109.9713 126.8542 L 94.5056 136.8802 C 92.6397 138.0898 90.2856 138.2624 88.2637 137.3363 L 71.6325 129.7203 C 68.3683 128.2248 66.9368 124.3665 68.4282 121.104 C 69.9238 117.8398 73.7813 116.4052 77.0446 117.8997 L 90.43 124.0293 L 102.8996 115.9457 C 105.9124 113.9933 109.9362 114.8523 111.8897 117.8641 C 112.6765 119.0778 113.0065 120.4547 112.9239 121.7952 L 112.9239 121.7952 Z "/>
  <g id="ID0.7563453577458858">
    <path id="ID0.4675603983923793_1_" fill="#FAA51D" stroke="#231F20" stroke-width="1.1999998846607085" d="M 74.8873 23.5458 C 72.0436 23.5964 66.1415 23.9306 62.9275 24.4438 C 54.332 25.8131 46.4592 29.8359 46.4592 29.8359 L 20.9439 16.9453 L 28.858 51.049 C 29.8803 49.4879 12.16 76.589 27.4073 96.0286 C 42.6638 115.4782 71.3907 121.7145 104.9139 111.1049 C 138.4386 100.4901 144.4271 79.8397 140.9984 69.6474 C 137.5707 59.4549 124.2027 57.0339 124.2027 57.0339 C 124.2027 57.0339 123.1311 48.8642 116.1002 39.4857 C 111.9176 33.9025 99.2126 26.4799 99.2126 26.4799 L 91.6464 5.9455 L 79.4863 20.6224 L 74.8873 23.5458 L 74.8873 23.5458 Z "/>
    <path id="ID0.876089540310204_1_" fill="#FFFFFF" d="M 122.4756 56.9129 L 117.5213 53.6438 L 101.4004 60.3536 C 101.4004 60.3536 102.0931 66.6033 94.3039 69.2193 C 86.5096 71.844 73.3521 67.329 73.3521 67.329 L 59.8155 75.1518 C 59.8155 75.1518 44.5818 78.5558 45.0752 88.0361 C 46.165 109.1063 72.8169 114.986 82.6109 114.4629 C 87.9553 114.1804 97.5942 112.1763 104.8193 109.8895 C 136.6104 100.3824 143.2161 79.8809 139.791 69.6851 C 136.3633 59.4927 123.7507 58.15 123.7507 58.15 L 122.4756 56.9129 L 122.4756 56.9129 Z " stroke-width="0.9999999038839238"/>
    <path id="ID0.44282719027251005_1_" fill="none" stroke="#231F20" stroke-width="1.1999998846607085" d="M 4.5383 90.5476 C 4.5383 90.5476 12.1212 90.3993 15.5118 89.8273 C 18.8993 89.2546 25.4314 87.6422 25.4314 87.6422 "/>
    <path id="ID0.893105489667505_1_" fill="none" stroke="#231F20" stroke-width="1.1999998846607085" d="M 133.1659 66.1449 C 133.1659 66.1449 141.3294 63.8647 145.3882 61.9228 C 150.1591 59.6523 153.1758 56.3509 153.1758 56.3509 "/>
    <path id="ID0.03574043000116944_1_" fill="none" stroke="#231F20" stroke-width="1.1999998846607085" d="M 24.9966 80.4242 C 24.9966 80.4242 20.2792 77.658 13.1222 75.3937 C 5.1946 72.8858 0.9493 72.482 0.9493 72.482 "/>
    <path id="ID0.6674723788164556_1_" fill="none" stroke="#231F20" stroke-width="1.1999998846607085" d="M 135.2143 76.9279 C 135.2143 76.9279 140.4213 78.3922 145.6079 78.3385 C 150.7279 78.2821 154.1222 77.598 154.1222 77.598 "/>
    <path id="ID0.12165586883202195_1_" fill="none" stroke="#000000" stroke-linecap="round" d="M 74.2417 23.721 C 79.5737 24.4249 81.6428 25.6182 81.6428 25.6182 " stroke-width="0.9999999038839238"/>
    <path id="ID0.178104005753994_1_" fill="none" stroke="#000000" d="M 40.4093 26.494 L 52.3653 33.2319 " stroke-width="0.9999999038839238"/>
    <path id="ID0.5430324394255877_1_" fill="#5E4A42" stroke="#000000" d="M 92.6007 65.5612 C 95.989 65.1856 100.8683 64.1206 101.3005 65.6503 C 101.7361 67.1837 99.0281 73.6785 96.7201 74.1969 C 94.4044 74.7172 85.048 71.1372 84.6025 68.2889 C 84.1502 65.4424 89.4739 65.9078 92.6007 65.5612 L 92.6007 65.5612 Z " stroke-width="0.9999999038839238"/>
    <path id="ID0.5547774969600141_1_" fill="none" stroke="#231F20" stroke-width="1.1999999662232936" d="M 122.6352 95.3962 C 122.6352 95.3962 103.0186 98.3557 95.9141 99.9616 C 88.8135 101.5668 76.5217 105.5953 76.5217 105.5953 C 76.5217 105.5953 81.8663 82.3087 99.4496 79.3791 C 117.0304 76.444 121.3288 86.3872 122.6352 95.3962 L 122.6352 95.3962 Z "/>
    <path id="ID0.0627080244012177" fill="none" stroke="#000000" d="M 73.8164 64.3723 C 69.4827 62.445 53.6768 66.5955 49.4917 73.6434 " stroke-width="0.9999999038839238"/>
    <path id="ID0.6798256845213473" fill="none" stroke="#000000" d="M 116.8708 51.195 C 113.5901 48.5373 99.7194 49.8423 95.0295 56.0387 " stroke-width="0.9999999038839238"/>
  </g>
</svg>