<svg version="1.1" width="584" height="205" viewBox="-1 -1 584 205" xmlns="http://www.w3.org/2000/svg" xmlns:xlink="http://www.w3.org/1999/xlink">
  <!-- Exported by Scratch - http://scratch.mit.edu/ -->
  <path id="ID0.42243940522894263" fill="#CC7700" stroke="#CC7700" stroke-width="2" stroke-linecap="round" d="M 80.500 249.500 C 114.653 243.373 149.695 242.885 184 238 C 226.491 231.390 268.104 216.518 311 215 C 375.980 212.701 454.074 186.354 506 225.500 C 553.722 261.479 574.090 367.929 556.500 401 C 543.590 423.429 485.215 347.798 445 336.500 C 432.719 333.070 447.205 342.135 414 359 C 353.521 384.529 283.525 394.789 217.500 391.500 C 186.499 389.961 168.232 347.426 137.407 343.807 C 122.984 342.123 125.825 375.834 111.500 380 C 99.796 383.241 92.759 359.316 80.500 360 C 58.807 361.249 36.582 390.868 19 386 C 8.129 382.772 32.621 352.514 23.593 343.807 C 14.854 335.430 -11.997 361.235 -17.500 352.500 C -23.793 341.706 -0.078 321.685 0 304.750 C 0.118 278.620 -22.975 237.142 -17 227 C -12.123 219.177 5.619 261.745 23.593 265.693 C 42.835 269.911 61.108 252.979 80.500 249.500 Z " transform="matrix(1, 0, 0, 1, 20, -203)"/>
</svg>