<svg xmlns="http://www.w3.org/2000/svg" xmlns:xlink="http://www.w3.org/1999/xlink" xmlns:a="http://ns.adobe.com/AdobeSVGViewerExtensions/3.0/" version="1.1" x="0px" y="0px" width="126" height="57" viewBox="-0.5 -0.5 126 57" enable-background="new -338 -272 800 600" xml:space="preserve">
  <defs/>
  <g>
    <path fill="#FBB03B" d="M125,36.5c0,10.77-8.73,19.5-19.5,19.5h-86C8.73,56,0,47.27,0,36.5v-17C0,8.73,8.73,0,19.5,0h86&#13;&#10;&#9;C116.27,0,125,8.73,125,19.5V36.5z" stroke-width="1"/>
    <path d="M34.22,28.61h-5.68v8.66c0,1.24-0.29,2.18-0.88,2.82s-1.32,0.96-2.21,0.96c-0.93,0-1.68-0.32-2.25-0.95&#13;&#10;&#9;c-0.57-0.63-0.86-1.56-0.86-2.79V13.72c0-1.36,0.31-2.34,0.94-2.92c0.63-0.58,1.62-0.88,2.98-0.88h7.95c2.35,0,4.16,0.18,5.43,0.54&#13;&#10;&#9;c1.25,0.35,2.33,0.93,3.25,1.73c0.91,0.81,1.6,1.79,2.08,2.96s0.71,2.48,0.71,3.95c0,3.12-0.96,5.48-2.88,7.09&#13;&#10;&#9;S38.02,28.61,34.22,28.61z M32.71,14.58h-4.17v9.35h4.17c1.46,0,2.68-0.15,3.66-0.46c0.98-0.31,1.73-0.81,2.24-1.5&#13;&#10;&#9;c0.51-0.7,0.77-1.61,0.77-2.73c0-1.35-0.4-2.45-1.19-3.3C37.31,15.03,35.48,14.58,32.71,14.58z" stroke-width="1" />
    <path d="M50.46,37.58V12.87c0-1.14,0.25-2,0.76-2.59c0.51-0.58,1.19-0.88,2.06-0.88c0.86,0,1.56,0.29,2.09,0.87&#13;&#10;&#9;c0.53,0.58,0.79,1.44,0.79,2.6v24.71c0,1.16-0.27,2.02-0.8,2.6c-0.54,0.58-1.23,0.87-2.08,0.87c-0.84,0-1.51-0.3-2.04-0.9&#13;&#10;&#9;C50.72,39.55,50.46,38.69,50.46,37.58z" stroke-width="1" />
    <path d="M76.45,37.83c-1.38,1.07-2.71,1.88-4,2.41c-1.29,0.54-2.73,0.8-4.33,0.8c-1.46,0-2.74-0.29-3.85-0.87&#13;&#10;&#9;c-1.11-0.58-1.96-1.36-2.56-2.35c-0.6-0.99-0.9-2.06-0.9-3.21c0-1.56,0.49-2.89,1.48-3.99c0.99-1.1,2.35-1.84,4.07-2.21&#13;&#10;&#9;c0.36-0.08,1.26-0.27,2.69-0.56c1.43-0.29,2.66-0.56,3.69-0.8c1.02-0.24,2.13-0.54,3.33-0.89c-0.07-1.5-0.37-2.61-0.91-3.31&#13;&#10;&#9;c-0.54-0.7-1.64-1.05-3.33-1.05c-1.45,0-2.54,0.2-3.27,0.6c-0.73,0.4-1.36,1.01-1.88,1.82c-0.52,0.81-0.89,1.34-1.11,1.6&#13;&#10;&#9;c-0.22,0.26-0.68,0.39-1.39,0.39c-0.64,0-1.19-0.21-1.66-0.62c-0.47-0.41-0.7-0.94-0.7-1.58c0-1,0.35-1.98,1.06-2.92&#13;&#10;&#9;c0.71-0.95,1.82-1.73,3.32-2.34c1.5-0.61,3.37-0.92,5.62-0.92c2.5,0,4.47,0.3,5.91,0.89s2.45,1.53,3.04,2.81s0.89,2.98,0.89,5.09&#13;&#10;&#9;c0,1.34,0,2.47-0.01,3.4c-0.01,0.93-0.02,1.97-0.03,3.11c0,1.07,0.18,2.19,0.53,3.35c0.35,1.16,0.53,1.91,0.53,2.24&#13;&#10;&#9;c0,0.58-0.28,1.12-0.82,1.6c-0.55,0.48-1.17,0.72-1.87,0.72c-0.58,0-1.16-0.27-1.73-0.82S77.08,38.88,76.45,37.83z M76.07,29.59&#13;&#10;&#9;c-0.83,0.31-2.05,0.63-3.64,0.97c-1.59,0.34-2.7,0.59-3.31,0.75c-0.61,0.16-1.2,0.47-1.75,0.94c-0.56,0.47-0.84,1.12-0.84,1.95&#13;&#10;&#9;c0,0.86,0.33,1.6,0.98,2.2c0.65,0.61,1.51,0.91,2.57,0.91c1.13,0,2.17-0.25,3.12-0.74c0.95-0.49,1.65-1.13,2.1-1.91&#13;&#10;&#9;c0.51-0.86,0.77-2.28,0.77-4.26V29.59z" stroke-width="1" />
    <path d="M92.14,41.76l0.52-1.27l-7.01-17.66C85.22,21.81,85,21.07,85,20.61c0-0.49,0.13-0.94,0.38-1.36c0.25-0.42,0.6-0.75,1.03-1&#13;&#10;&#9;c0.44-0.25,0.89-0.38,1.37-0.38c0.82,0,1.44,0.26,1.86,0.78c0.42,0.52,0.79,1.27,1.11,2.24l4.82,14.03l4.57-13.05&#13;&#10;&#9;c0.36-1.06,0.69-1.89,0.98-2.48c0.29-0.6,0.6-1,0.93-1.21c0.33-0.21,0.79-0.31,1.39-0.31c0.43,0,0.85,0.12,1.24,0.34&#13;&#10;&#9;s0.7,0.54,0.92,0.93c0.21,0.39,0.32,0.8,0.32,1.23c-0.06,0.26-0.15,0.64-0.27,1.13c-0.13,0.49-0.28,0.98-0.46,1.48l-7.43,19.45&#13;&#10;&#9;c-0.64,1.71-1.27,3.05-1.88,4.03c-0.61,0.97-1.42,1.72-2.43,2.24c-1.01,0.52-2.37,0.78-4.08,0.78c-1.67,0-2.92-0.18-3.76-0.54&#13;&#10;&#9;c-0.84-0.36-1.25-1.02-1.25-1.98c0-0.65,0.2-1.16,0.59-1.51c0.4-0.35,0.98-0.53,1.76-0.53c0.31,0,0.61,0.04,0.9,0.13&#13;&#10;&#9;c0.36,0.08,0.67,0.13,0.94,0.13c0.65,0,1.17-0.1,1.54-0.29c0.38-0.19,0.71-0.53,1.01-1.01C91.41,43.39,91.75,42.69,92.14,41.76z" stroke-width="1" />
  </g>
</svg>