<svg version="1.1" xmlns="http://www.w3.org/2000/svg" xmlns:xlink="http://www.w3.org/1999/xlink" width="474.31179" height="424.63574" viewBox="0,0,474.31179,424.63574"><g transform="translate(-2.84412,32.31786)"><g data-paper-data="{&quot;isPaintingLayer&quot;:true}" fill-rule="nonzero" stroke="#000000" stroke-width="2.5" stroke-linejoin="miter" stroke-miterlimit="10" stroke-dasharray="" stroke-dashoffset="0" style="mix-blend-mode: normal"><path d="M430.32972,84.9245c20.76621,41.49947 64.60405,93.7701 36.38033,139.04228c-22.78754,36.55231 -110.32769,67.77709 -156.80451,91.03396c-56.86216,28.45365 -127.49005,86.01751 -176.4006,74.58499c-40.58147,-9.48562 -62.92159,-82.11624 -79.9413,-116.12867c-16.7044,-33.38229 -62.02897,-87.24999 -46.14798,-124.76585c19.8016,-46.77754 108.8359,-76.41933 166.57217,-105.31038c59.28047,-29.66376 145.76821,-85.26187 195.74261,-71.68224c37.73392,10.25352 44.452,80.95691 60.59933,113.22591z" fill="#ffffff" stroke-linecap="butt"/><path d="M273.96839,128.5597l185.87314,90.45798" fill="none" stroke-linecap="round"/><path d="M166.55209,163.22967l-41.66132,217.52522" fill="none" stroke-linecap="round"/><path d="M343.70868,-30.25638c-13.87865,12.14428 -17.4061,97.86174 -33.02735,116.83079c-17.5439,21.30371 -28.41099,72.32491 -59.26859,89.66687c-39.414,22.15065 -76.43538,-7.84225 -109.00891,-7.22659c-10.8786,0.20563 -116.77942,-36.54243 -131.84383,-28.24828c-24.86294,13.68902 87.17031,-54.40912 161.47242,-96.16687c74.30211,-41.75775 179.74235,-81.91399 171.67628,-74.8559z" fill="#ffffff" stroke-linecap="butt"/></g></g></svg>