<svg version="1.1" width="110" height="121" viewBox="-1 -1 110 121" xmlns="http://www.w3.org/2000/svg" xmlns:xlink="http://www.w3.org/1999/xlink">
  <!-- Exported by Scratch - http://scratch.mit.edu/ -->
  <g id="ID0.08592581003904343" transform="matrix(1, 0, 0, 1, -145.15, -99.95)">
    <path id="ID0.47626223927363753" fill="none" stroke="#FFFF00" stroke-width="9" stroke-linecap="round" d="M 179.500 194.500 L 179.500 114.500 L 239 105.500 L 242 189.500 "/>
    <path id="ID0.7838504211977124" fill="#FFFF00" stroke="none" d="M 153 193 C 160.725 193 167.725 195.185 172.794 198.715 C 177.862 202.245 181 207.120 181 212.500 C 181 217.880 177.862 222.755 172.794 226.285 C 167.725 229.815 160.725 232 153 232 C 145.275 232 138.275 229.815 133.206 226.285 C 128.138 222.755 125 217.880 125 212.500 C 125 207.120 128.138 202.245 133.206 198.715 C 138.275 195.185 145.275 193 153 193 Z " transform="matrix(0.8303571343421936, 0, 0, 0.8303571343421936, 42.05, 26.75)"/>
    <path id="ID0.7838504211977124" fill="#FFFF00" stroke="none" d="M 153 193 C 160.725 193 167.725 195.185 172.794 198.715 C 177.862 202.245 181 207.120 181 212.500 C 181 217.880 177.862 222.755 172.794 226.285 C 167.725 229.815 160.725 232 153 232 C 145.275 232 138.275 229.815 133.206 226.285 C 128.138 222.755 125 217.880 125 212.500 C 125 207.120 128.138 202.245 133.206 198.715 C 138.275 195.185 145.275 193 153 193 Z " transform="matrix(0.8392857313156128, 0, 0, 0.8392857313156128, 102.5, 24.25)"/>
  </g>
</svg>