<svg version="1.1" xmlns="http://www.w3.org/2000/svg" xmlns:xlink="http://www.w3.org/1999/xlink" width="398.5" height="232.26604" viewBox="0,0,398.5,232.26604"><g transform="translate(-40.75,-75.94231)"><g data-paper-data="{&quot;isPaintingLayer&quot;:true}" fill-rule="nonzero" stroke-linecap="butt" stroke-linejoin="miter" stroke-miterlimit="10" stroke-dasharray="" stroke-dashoffset="0" style="mix-blend-mode: normal"><g stroke="#000000" stroke-width="2.5"><path d="M42,282.80769v-205.61538h396v205.61538z" fill="#b3b3b3"/><path d="M76.57143,264.85714v-169.71428h326.85714v169.71429z" fill="#8fa8cc"/></g><g><path d="M272.36583,137.11314c-0.00462,1.03902 -0.03217,2.0746 -0.08138,3.09728c0.05041,0.40693 0.07715,0.82479 0.07715,1.24536c0,1.28767 -0.24247,2.52884 -0.68573,3.65932c-0.00067,0.06178 -0.00106,0.11808 -0.00106,0.16751c0,0.50682 -0.08078,1.11013 -0.23205,1.76207c-0.04827,0.51341 -0.13617,1.02005 -0.2591,1.50792c-0.47186,5.4563 -2.1884,10.7794 -8.19867,12.40914c-2.14281,0.20613 -5.13163,-0.2565 -6.99398,0.95014c-1.4715,0.9534 -2.64142,2.71721 -4.12998,3.74591c-1.25185,0.8651 -2.98773,0.7865 -4.43739,0.78558c-3.62911,-0.00231 -6.14421,0.35619 -8.85316,-2.36312c-3.32203,-3.48219 2.09933,-5.71051 4.90192,-5.72224c0.96036,-0.00402 1.93065,0.61451 2.85342,0.34847c0.7553,-0.21776 1.41716,-0.66559 1.83351,-1.33234c0.13487,-0.21599 0.14852,-2.67573 0.12533,-3.12444c-0.12868,-2.48979 -0.41477,-5.48213 -1.04959,-7.87026c-1.54513,-8.34848 0.39992,-19.2412 9.227,-22.34669c5.44888,-1.63893 11.50258,-1.08147 14.53563,4.16723c1.21283,2.0988 0.91451,6.47271 1.36813,8.91315z" data-paper-data="{&quot;noHover&quot;:false,&quot;origItem&quot;:[&quot;Path&quot;,{&quot;applyMatrix&quot;:true,&quot;segments&quot;:[[[508.64022,333.26674],[0,0],[-0.90724,-4.88088]],[[505.92592,315.47186],[2.42566,4.1976],[-6.0661,-10.49738]],[[476.9168,307.1652],[10.89776,-3.27786],[-17.65416,6.21098]],[[458.56818,351.7392],[-3.09026,-16.69696],[1.26964,4.77626]],[[460.62702,367.41768],[-0.25736,-4.97958],[0.04638,0.89742]],[[460.3662,373.66026],[0.26974,-0.43198],[-0.8327,1.3335]],[[456.5989,376.49788],[1.5106,-0.43552],[-1.84554,0.53208]],[[450.88012,375.79224],[1.92072,-0.00804],[-5.60516,0.02346]],[[441.20574,387.08428],[-6.64406,-6.96438],[5.4179,5.43862]],[[458.88012,391.79224],[-7.25822,-0.00462],[2.89932,0.00184]],[[467.73666,390.21662],[-2.5037,1.7302],[2.97712,-2.0574]],[[475.97584,382.72392],[-2.943,1.9068],[3.7247,-2.41328]],[[489.9253,380.83396],[-4.28562,0.41226],[12.02054,-3.25948]],[[506.26982,356.08286],[-0.94372,10.9126],[0.24586,-0.97574]],[[506.78638,353.07606],[-0.09654,1.02682],[0.30254,-1.30388]],[[507.24964,349.56252],[0,1.01364],[0,-0.09886]],[[507.25174,349.2285],[-0.00134,0.12356],[0.88652,-2.26096]],[[508.62502,341.93056],[0,2.57534],[0,-0.84114]],[[508.47228,339.44656],[0.10082,0.81386],[0.09842,-2.04536]],[[508.64024,333.26674],[-0.00924,2.07804],[0,0]]],&quot;closed&quot;:true,&quot;fillColor&quot;:[0,0,0,1]}]}" fill="#ff0000" stroke="none" stroke-width="0.5"/><path d="M272.36583,137.11313c-0.00462,1.03902 -0.03217,2.0746 -0.08138,3.09728c0.05041,0.40693 0.07714,0.82479 0.07714,1.24536c0,1.28767 -0.24247,2.52884 -0.68573,3.65932c-0.00067,0.06178 -0.00106,0.11808 -0.00106,0.16751c0,0.50682 -0.08078,1.11013 -0.23205,1.76207c-0.04827,0.51341 -0.13617,1.02005 -0.2591,1.50792c-0.47186,5.4563 -2.1884,10.7794 -8.19867,12.40914c-2.14281,0.20613 -5.13163,-0.25649 -6.99398,0.95015c-1.4715,0.9534 -2.64142,2.71721 -4.12998,3.74591c-1.25185,0.8651 -2.98773,0.78649 -4.43739,0.78557c-3.62911,-0.00231 -6.14421,0.35619 -8.85316,-2.36312c-3.32203,-3.48219 2.09934,-5.71052 4.90192,-5.72225c0.96036,-0.00402 1.93066,0.61452 2.85343,0.34848c0.7553,-0.21776 1.41716,-0.66559 1.83351,-1.33234c0.13487,-0.21599 0.14852,-2.67573 0.12533,-3.12444c-0.12868,-2.48979 -0.41477,-5.48212 -1.04959,-7.87025c-1.54513,-8.34848 0.39992,-19.2412 9.227,-22.34669c5.44888,-1.63893 11.50258,-1.08147 14.53563,4.16722c1.21283,2.0988 0.91451,6.47271 1.36813,8.91315z" data-paper-data="{&quot;noHover&quot;:false,&quot;origItem&quot;:[&quot;Path&quot;,{&quot;applyMatrix&quot;:true,&quot;segments&quot;:[[[254.32011,166.63338],[0,0],[-0.45362,-2.44044]],[[252.96296,157.73594],[1.21283,2.0988],[-3.03305,-5.24869]],[[238.4584,153.58261],[5.44888,-1.63893],[-8.82708,3.10549]],[[229.28409,175.86961],[-1.54513,-8.34848],[0.63482,2.38813]],[[230.31351,183.70885],[-0.12868,-2.48979],[0.02319,0.44871]],[[230.1831,186.83014],[0.13487,-0.21599],[-0.41635,0.66675]],[[228.29945,188.24895],[0.7553,-0.21776],[-0.92277,0.26604]],[[225.44006,187.89613],[0.96036,-0.00402],[-2.80258,0.01173]],[[220.60287,193.54215],[-3.32203,-3.48219],[2.70895,2.71931]],[[229.44006,195.89613],[-3.62911,-0.00231],[1.44966,0.00092]],[[233.86833,195.10832],[-1.25185,0.8651],[1.48856,-1.0287]],[[237.98792,191.36197],[-1.4715,0.9534],[1.86235,-1.20664]],[[244.96265,190.41699],[-2.14281,0.20613],[6.01027,-1.62974]],[[253.13491,178.04144],[-0.47186,5.4563],[0.12293,-0.48787]],[[253.39319,176.53804],[-0.04827,0.51341],[0.15127,-0.65194]],[[253.62482,174.78127],[0,0.50682],[0,-0.04943]],[[253.62587,174.61426],[-0.00067,0.06178],[0.44326,-1.13048]],[[254.31251,170.96529],[0,1.28767],[0,-0.42057]],[[254.23614,169.72329],[0.05041,0.40693],[0.04921,-1.02268]],[[254.32012,166.63338],[-0.00462,1.03902],[0,0]]],&quot;closed&quot;:true,&quot;fillColor&quot;:[0,0,0,1]}]}" fill="#0072ff" stroke="none" stroke-width="0.5"/><path d="M271.76977,156.72135c2.05568,0.6096 7.59544,3.78333 6.53771,6.52405c-0.39694,1.02855 -3.00488,4.823 -4.06017,5.24331c-0.50649,0.20173 -1.91278,-1.21616 -2.18135,-1.41759c-2.10299,-1.57427 -4.25999,-3.19743 -6.53493,-4.50627c2.57615,-1.23777 4.76489,-3.35225 6.23874,-5.84349z" data-paper-data="{&quot;noHover&quot;:false,&quot;origItem&quot;:[&quot;Path&quot;,{&quot;applyMatrix&quot;:true,&quot;segments&quot;:[[[253.77161,186.27132],[0,0],[-1.47385,2.49124]],[[247.58103,192.06524],[2.57615,-1.23777],[2.27494,1.30884]],[[254.06507,196.52112],[-2.10299,-1.57427],[0.26857,0.20143]],[[256.22935,197.94204],[-0.50649,0.20173],[1.05529,-0.42031]],[[260.25773,192.74044],[-0.39694,1.02855],[1.05773,-2.74072]],[[253.77161,186.27131],[2.05568,0.6096],[0,0]]],&quot;closed&quot;:true,&quot;fillColor&quot;:[0,0,0,1]}]}" fill="#ff0000" stroke="none" stroke-width="0.5"/><path d="M240.57657,152.01177c-0.55793,-3.62723 -1.14426,-7.26249 -1.40724,-10.93538c-0.09036,-1.26212 -0.46768,-3.46074 0.12318,-4.65118c0.42827,-0.86285 3.618,-0.6331 5.48774,-0.49016c-0.64071,3.58009 -0.52464,7.44718 0.11296,11.00414c0.78236,2.7858 1.01122,6.41006 1.07007,9.32022c0.00763,0.37754 -0.72297,-0.24173 -1.09548,-0.30362c-0.14259,-0.02369 -0.28839,-0.03331 -0.43282,-0.03592c-0.05577,-0.00001 -0.11234,0.00013 -0.16807,0.00011c-0.03861,0.00059 -0.07782,0.00164 -0.11648,0.00284c-0.00037,-0.00093 -0.00073,-0.00186 -0.0011,-0.00279c-0.7848,-0.00037 -1.57755,-0.00093 -2.35813,-0.00127c-0.03189,-0.39986 -0.20442,-0.65613 -0.40902,-0.82007c-0.45708,-1.03874 -0.719,-1.87231 -0.80561,-3.08691z" data-paper-data="{&quot;noHover&quot;:false,&quot;origItem&quot;:[&quot;Path&quot;,{&quot;applyMatrix&quot;:true,&quot;segments&quot;:[[[223.38816,184.54902],[-0.45708,-1.03874],[0.2046,0.16394]],[[223.79463,185.36885],[-0.03189,-0.39986],[0.78058,0.00034]],[[226.1409,185.37072],[-0.7848,-0.00037],[0.00037,0.00093]],[[226.142,185.37351],[-0.00037,-0.00093],[0.03866,-0.0012]],[[226.25791,185.37077],[-0.03861,0.00059],[0.05573,0.00002]],[[226.42517,185.37082],[-0.05577,-0.00001],[0.14443,0.00261]],[[226.85598,185.40718],[-0.14259,-0.02369],[0.37251,0.06189]],[[227.94703,185.7121],[0.00763,0.37754],[-0.05885,-2.91016]],[[226.84603,176.42263],[0.78236,2.7858],[-0.6376,-3.55696]],[[226.76915,165.48378],[-0.64071,3.58009],[-1.86974,-0.14294]],[[221.30812,165.97269],[0.42827,-0.86285],[-0.59086,1.19044]],[[221.19682,170.61814],[-0.09036,-1.26212],[0.26298,3.67289]],[[222.59178,181.46412],[-0.55793,-3.62723],[0.08661,1.2146]]],&quot;closed&quot;:true,&quot;fillColor&quot;:[0,0,0,1]}]}" fill="#ff0000" stroke="none" stroke-width="0.5"/><path d="M240.57657,152.01177c-0.55793,-3.62723 -1.14426,-7.26249 -1.40724,-10.93538c-0.09036,-1.26212 -0.46768,-3.46074 0.12318,-4.65118c0.42827,-0.86285 3.618,-0.6331 5.48774,-0.49016c-0.64071,3.58009 -0.52464,7.44718 0.11296,11.00414c0.78236,2.7858 1.01122,6.41006 1.07007,9.32022c0.00763,0.37754 -0.72297,-0.24173 -1.09548,-0.30362c-0.14259,-0.02369 -0.28839,-0.03331 -0.43282,-0.03592c-0.05577,-0.00001 -0.11234,0.00013 -0.16807,0.00011c-0.03861,0.00059 -0.07782,0.00164 -0.11648,0.00284c-0.00037,-0.00093 -0.00073,-0.00186 -0.0011,-0.00279c-0.7848,-0.00037 -1.57755,-0.00093 -2.35813,-0.00127c-0.03189,-0.39986 -0.20442,-0.65613 -0.40902,-0.82007c-0.45708,-1.03874 -0.719,-1.87231 -0.80561,-3.08691z" data-paper-data="{&quot;noHover&quot;:false,&quot;origItem&quot;:[&quot;Path&quot;,{&quot;applyMatrix&quot;:true,&quot;segments&quot;:[[[223.38816,184.54903],[-0.45708,-1.03874],[0.2046,0.16394]],[[223.79463,185.36886],[-0.03189,-0.39986],[0.78058,0.00034]],[[226.1409,185.37073],[-0.7848,-0.00037],[0.00037,0.00093]],[[226.142,185.37352],[-0.00037,-0.00093],[0.03866,-0.0012]],[[226.25791,185.37078],[-0.03861,0.00059],[0.05573,0.00002]],[[226.42517,185.37083],[-0.05577,-0.00001],[0.14443,0.00261]],[[226.85598,185.40719],[-0.14259,-0.02369],[0.37251,0.06189]],[[227.94703,185.71211],[0.00763,0.37754],[-0.05885,-2.91016]],[[226.84603,176.42264],[0.78236,2.7858],[-0.6376,-3.55696]],[[226.76915,165.48379],[-0.64071,3.58009],[-1.86974,-0.14294]],[[221.30812,165.9727],[0.42827,-0.86285],[-0.59086,1.19044]],[[221.19682,170.61815],[-0.09036,-1.26212],[0.26298,3.67289]],[[222.59178,181.46413],[-0.55793,-3.62723],[0.08661,1.2146]]],&quot;closed&quot;:true,&quot;fillColor&quot;:[0,0,0,1]}]}" fill="#0072ff" stroke="none" stroke-width="0.5"/><path d="" data-paper-data="{&quot;noHover&quot;:false,&quot;origItem&quot;:[&quot;Path&quot;,{&quot;applyMatrix&quot;:true,&quot;segments&quot;:[[[449.86397,343.37156],[0.23321,-0.36348],[-0.86185,1.3433]],[[449.6,350.6],[0.00006,-1.57366],[-0.00025,6.39366]],[[454.94653,367.03801],[-8.00222,-1.0151],[-0.9364,-6.63368]],[[456.43812,343.37271],[-1.97962,8.19352],[-2.56451,-0.15786]]],&quot;closed&quot;:true}]}" fill="#ff0000" stroke="none" stroke-width="0.5"/><path d="" fill="#ff0000" stroke="#000000" stroke-width="0"/><path d="" data-paper-data="{&quot;noHover&quot;:false,&quot;origItem&quot;:[&quot;Path&quot;,{&quot;applyMatrix&quot;:true,&quot;segments&quot;:[[[489.06505,337.84067],[0,0],[-0.57722,0.25]],[[487.94923,338.09067],[0,0],[-5.60283,-0.0622]],[[479.50269,350.95737],[-8.88804,-5.30509],[1.11209,0.66379]],[[484.69557,351.35284],[-0.85137,-0.07382],[5.15912,0.44733]],[[500.19923,351.84067],[-5.21888,0],[3.53479,0.06487]],[[511.8226,341.405],[3.97586,5.77558],[-3.12614,-4.54123]],[[491.19923,337.84067],[4.64121,0],[0,0]]],&quot;closed&quot;:true}]}" fill="#6ff5ff" stroke="none" stroke-width="0.5"/><path d="" fill="#ffffff" stroke="none" stroke-width="0.5"/><path d="" fill="#e50000" stroke="none" stroke-width="0.5"/><path d="" fill="#e50000" stroke="none" stroke-width="0.5"/><path d="" fill="#000000" stroke="none" stroke-width="0.5"/><path d="M240.55584,156.17664c-1.27356,-3.8606 -1.36013,-8.19544 -2.32122,-12.17729c-0.30665,-1.27045 -1.13732,-3.84923 -0.13225,-5.00729c1.22289,-1.40904 5.78513,-1.08685 8.17034,-1.10456c0.18594,-1.24947 0.42822,-2.45683 0.42732,-3.7803v-0.6c0,0 0,-0.53221 0.34728,-0.90209c-0.0206,-0.82128 -0.00791,-1.6502 0.0564,-2.49378c0,0 0.09587,-1.24631 1.34219,-1.15044c1.24632,0.09587 1.15045,1.34219 1.15045,1.34219c-0.23926,3.0808 0.26275,5.96276 0.50004,9.00881c0.37519,4.81625 -0.27392,8.72396 3.52697,12.24217c4.86662,2.01261 10.20945,2.26492 15.36535,1.207c0.22752,-0.45019 0.58428,-0.88043 0.78523,-1.33472l0.73249,-0.56799c0.16033,-0.19771 0.40436,-0.36523 0.77501,-0.39722c0.23561,-0.04487 0.51872,-0.03386 0.79368,0.13809c0.28937,0.14643 0.44519,0.38304 0.52862,0.60791c0.15608,0.31712 0.14836,0.59968 0.07318,0.83247c-0.10672,1.2527 -0.26923,2.73692 0.70265,3.73188l-0.00001,0.00001c2.42737,2.48499 7.29402,3.62861 5.9706,8.38521c-0.416,1.49517 -3.01136,4.51681 -4.609,4.78582c-1.53844,0.25904 -3.37357,-1.27195 -4.40003,-2.1823c-1.6809,-1.34492 -3.18765,-3.00611 -5.08819,-4.05482c-3.23446,-1.78476 -9.26838,-0.85166 -11.95343,1.83774c-0.01147,0.40644 -0.21696,0.76434 -0.52714,0.98434l-1.08714,0.79065l-0.03064,-0.04212c-0.04271,0.0487 -0.08686,0.09629 -0.1326,0.14266c-0.88648,0.89882 -3.25006,0.63817 -4.37197,0.63854c-3.68469,0.00124 -8.91925,-0.31982 -10.77734,-4.31609c-1.5846,-3.40807 1.78453,-4.70645 4.56057,-5.24278c-0.12582,-0.44056 -0.25162,-0.88112 -0.3774,-1.3217z" fill="#0058c3" stroke="none" stroke-width="0.5"/><path d="M241.38816,155.04904c0.2046,0.16394 0.37458,0.41997 0.40647,0.81983c0.78058,0.00034 1.56147,0.0015 2.34627,0.00187c0.00037,0.00093 0.00073,0.00186 0.0011,0.00279c0.03866,-0.0012 0.0773,-0.00215 0.11591,-0.00274c0.05573,0.00002 0.11149,0.00004 0.16726,0.00005c0.14443,0.00261 0.28822,0.01267 0.43081,0.03636c0.37251,0.06189 1.09868,0.68246 1.09105,0.30492c-0.05885,-2.91016 -0.31864,-6.50367 -1.101,-9.28947c-0.6376,-3.55696 -0.71759,-7.35876 -0.07688,-10.93885c-1.86974,-0.14294 -5.03276,-0.37394 -5.46103,0.48891c-0.59086,1.19044 -0.20166,3.38333 -0.1113,4.64545c0.26298,3.67289 0.83703,7.21875 1.39496,10.84598c0.08661,1.2146 0.3393,2.04616 0.79638,3.0849zM238.10822,152.25027c-0.69735,-4.53174 -1.68565,-9.16857 -1.50742,-13.78763c0.07438,-1.92756 0.16471,-3.63969 2.14671,-4.59999c1.70774,-0.82742 4.60727,-0.39777 6.64892,-0.31749c0.45459,-0.9399 0.76641,-1.96175 0.90727,-3.03739c0.04413,0.00138 0.08817,0.00268 0.13213,0.00389c1.77723,-3.91743 4.7571,-7.13397 9.2359,-8.80202c6.45579,-1.93237 14.02757,-1.04795 17.49544,5.34667c1.38832,2.56001 1.12911,6.97321 1.64285,9.85256c0.01458,3.93224 -0.36631,7.71688 -0.75115,11.61164l0.00621,0.12563c0,0 0,0.32918 -0.16893,0.64969c-0.05442,1.32421 -0.19458,2.59035 -0.4991,3.67546c-0.14637,0.52155 -0.31957,1.03496 -0.51811,1.53765c3.2498,1.12743 7.52319,4.07466 7.80506,7.63903c0.17277,2.18479 -3.34982,8.10439 -5.78319,8.70225c-1.88157,0.46229 -3.01884,-0.84142 -4.33572,-1.82907c-2.41953,-1.81779 -4.83769,-3.65965 -7.55901,-5.00697l0.18401,0.13197c0,0 -0.88671,0 -1.16648,-0.74683l-0.00003,-0.00001c-1.61883,-0.03339 -3.73145,-0.14274 -4.63136,0.53098c-1.93347,1.44751 -3.2476,3.69532 -5.68187,4.52669c-4.79236,1.63673 -11.42005,0.79503 -14.93309,-2.70687c-2.14566,-2.57716 -2.0255,-6.53223 0.94035,-8.62405c0.46301,-0.32656 0.98115,-0.56767 1.52897,-0.74527c-0.63375,-1.40221 -1.01083,-2.57151 -1.13837,-4.1305zM272.32011,137.13339c-0.45362,-2.44044 -0.14432,-6.79864 -1.35715,-8.89744c-3.03305,-5.24869 -9.05568,-5.79226 -14.50456,-4.15333c-8.82708,3.10549 -10.71944,13.93852 -9.17431,22.287c0.63482,2.38813 0.90074,5.34945 1.02942,7.83924c0.02319,0.44871 0.00446,2.9053 -0.13041,3.12129c-0.41635,0.66675 -1.12835,1.20105 -1.88365,1.41881c-0.92277,0.26604 -1.89903,-0.35684 -2.85939,-0.35282c-2.80258,0.01173 -8.15922,2.16383 -4.83719,5.64602c2.70895,2.71931 5.20808,2.35167 8.83719,2.35398c1.44966,0.00092 3.17642,0.07729 4.42827,-0.78781c1.48856,-1.0287 2.64809,-2.79295 4.11959,-3.74635c1.86235,-1.20664 4.83192,-0.73885 6.97473,-0.94498c6.01027,-1.62974 7.7004,-6.91925 8.17226,-12.37555c0.12293,-0.48787 0.21001,-0.98999 0.25828,-1.5034c0.15127,-0.65194 0.23163,-1.24995 0.23163,-1.75677c0,-0.04943 0.00038,-0.10523 0.00105,-0.16701c0.44326,-1.13048 0.68664,-2.3613 0.68664,-3.64897c0,-0.42057 -0.02596,-0.83507 -0.07637,-1.242c0.04921,-1.02268 0.07936,-2.05089 0.08398,-3.08991zM271.77161,156.77134c-1.47385,2.49124 -3.61443,4.55615 -6.19058,5.79392c2.27494,1.30884 4.38105,2.88161 6.48404,4.45588c0.26857,0.20143 1.65779,1.62265 2.16428,1.42092c1.05529,-0.42031 3.63144,-4.17305 4.02838,-5.2016c1.05773,-2.74072 -4.43044,-5.85953 -6.48612,-6.46913z" fill="#000000" stroke="none" stroke-width="0.5"/><path d="M262.09696,131.14121c0.13907,0.0267 0.23593,0.02603 0.23593,0.02603c4.13268,0 10.27029,-1.10008 14.08307,0.75894c1.89094,0.92198 1.96253,5.04151 0.96899,6.43182c-3.12483,4.29474 -8.72191,3.682 -13.64568,3.68371c-1.72924,0.0006 -3.96745,0.21416 -5.27623,-1.19384c-0.94981,-1.02182 -0.59301,-3.0403 -0.6122,-4.28233c0.78953,-2.14749 2.16504,-4.38617 4.24612,-5.42433z" data-paper-data="{&quot;noHover&quot;:false,&quot;origItem&quot;:[&quot;Path&quot;,{&quot;applyMatrix&quot;:true,&quot;segments&quot;:[[[239.90084,166.06497],[0.78953,-2.14749],[0.0192,1.24203]],[[240.50838,170.32677],[-0.94981,-1.02182],[1.30878,1.408]],[[245.76918,171.50163],[-1.72924,0.0006],[4.92377,-0.00171]],[[259.33593,167.84814],[-3.12483,4.29474],[0.99354,-1.39031]],[[258.37182,161.44966],[1.89094,0.92198],[-3.81279,-1.85902]],[[244.36918,160.70163],[4.13268,0],[0,0]],[[244.13387,160.67493],[0.13907,0.0267],[-2.08108,1.03816]]],&quot;closed&quot;:true}]}" fill="#9ddcff" stroke="none" stroke-width="0.5"/><path d="M279.28128,139.23427c0.24515,1.22573 -0.98058,1.47087 -0.98058,1.47087l-0.28345,0.02334c-6.06495,2.75213 -15.92772,2.90608 -21.82704,-0.62165c0,0 -1.07187,-0.64312 -0.42875,-1.71499c0.64312,-1.07187 1.71499,-0.42875 1.71499,-0.42875c5.20577,3.13517 14.17581,2.91624 19.50629,0.48946l0.82766,-0.19888c0,0 1.22573,-0.24515 1.47087,0.98058z" fill="#49bfff" stroke="none" stroke-width="0.5"/><path d="M260.43483,129.1728l0.08333,-0.02778c1.26765,-0.4158 2.83466,-0.56838 4.16239,-0.56838c0,0 0.0701,0 0.13607,0.03712c0.00371,-0.00134 0.00742,-0.00268 0.01112,-0.00403c5.17903,-0.29228 12.80639,-0.93258 14.96658,3.59733c0.62039,1.30095 0.54773,3.04343 0.52486,4.44457c-0.01761,1.07854 -0.36436,2.17698 -0.91675,3.10349c-0.89459,1.23056 -1.75742,2.64354 -3.14263,3.39818c-1.27906,0.69681 -2.99953,0.7266 -4.40719,0.9348c-4.07325,0.60246 -12.17038,1.86737 -15.22263,-1.6116c-1.52515,-1.73837 -1.21645,-4.22777 -1.19246,-6.3382c0.94978,-2.70823 2.45385,-5.23166 4.82315,-6.74774c0.00432,-0.16114 0.17416,-0.21775 0.17416,-0.21775zM257.90084,136.56498c0.0192,1.24203 -0.34226,3.23998 0.60754,4.2618c1.30878,1.408 3.53156,1.17546 5.2608,1.17486c4.92377,-0.00171 10.44193,0.64125 13.56676,-3.65349c0.99354,-1.39031 0.92683,-5.4765 -0.96411,-6.39848c-3.81279,-1.85902 -9.86996,-0.74803 -14.00265,-0.74803c0,0 -0.09624,0 -0.23531,-0.0267c-2.08108,1.03816 -3.44351,3.24255 -4.23303,5.39005z" fill="#000000" stroke="none" stroke-width="0.5"/><path d="M272.08333,132.92386c0,1.25 -1.25,1.25 -1.25,1.25c-0.96296,0 -2.59259,0 -3.55556,0c0,0 -1.25,0 -1.25,-1.25c0,-1.25 1.25,-1.25 1.25,-1.25c0.96296,0 1.92593,0 2.88889,0h0.66667c0,0 1.25,0 1.25,1.25z" fill="#ffffff" stroke="none" stroke-width="0.5"/></g><path d="" fill="#c4b996" stroke="none" stroke-width="NaN"/><path d="" fill="#c4b996" stroke="none" stroke-width="NaN"/><path d="" fill="#c4b996" stroke="none" stroke-width="0"/><path d="" fill="#c4b996" stroke="none" stroke-width="0"/><path d="" fill="#c4b996" stroke="none" stroke-width="0"/><path d="" fill="#c4b996" stroke="none" stroke-width="0"/><path d="" fill="#c4b996" stroke="none" stroke-width="0"/><path d="" fill="#c4b996" stroke="none" stroke-width="0"/><path d="" fill="#c4b996" stroke="none" stroke-width="0"/><path d="" fill="#c4b996" stroke="none" stroke-width="0"/><path d="" fill="#c4b996" stroke="none" stroke-width="0"/><path d="" data-paper-data="{&quot;index&quot;:null}" fill="#c4b996" stroke="none" stroke-width="0"/><path d="" fill="#c4b996" stroke="none" stroke-width="0"/><path d="M253.12118,307.83366c0.3217,0.39335 0.14689,0.59568 0,0z" fill="#c4b996" stroke="none" stroke-width="0"/><path d="" fill="#e6d973" stroke="#000000" stroke-width="2.5"/><path d="M125.95437,172.83303l-18.99407,-23.04708l41.39938,-34.11898l18.99407,23.04708z" fill="#ffffff" stroke="#000000" stroke-width="1.5"/><path d="M123.03095,171.66641l-21.92041,-16.45727l29.56213,-39.37555l21.92041,16.45727z" fill="#ffffff" stroke="#000000" stroke-width="1.5"/><g fill="#e6d973" stroke="#000000" stroke-width="2.5"><path d="M100.08367,174.05529v-40.22361h69.83265v40.22361z"/><path d="M100.08367,133.83169v-7.88698h18.14006v7.88698z"/></g><text transform="matrix(0.56141 0 0 0.56141 94.6875 183.00626)" font-size="40"  fill="#ffffff" fill-rule="nonzero" stroke="none" stroke-width="1" stroke-linecap="butt" stroke-linejoin="miter" stroke-miterlimit="10" stroke-dasharray="" stroke-dashoffset="0" font-family="Donegal" font-weight="normal" text-anchor="start" style="mix-blend-mode: normal" >Cafeteria</text><g fill="#e6d973" stroke="#000000" stroke-width="2.5"><path d="M310.08367,174.0553v-40.2236h69.83265v40.2236z"/><path d="M310.08367,133.83169v-7.88699h18.14006v7.88699z"/></g><text transform="matrix(0.5 0 0 0.5 303.6875 185.25)" font-size="40"  fill="#ffffff" fill-rule="nonzero" stroke="none" stroke-width="1" stroke-linecap="butt" stroke-linejoin="miter" stroke-miterlimit="10" stroke-dasharray="" stroke-dashoffset="0" font-family="Donegal" font-weight="normal" text-anchor="start" style="mix-blend-mode: normal" >My Tablet</text></g></g></svg>