<svg version="1.1" xmlns="http://www.w3.org/2000/svg" xmlns:xlink="http://www.w3.org/1999/xlink" width="184" height="239.65543" viewBox="0,0,184,239.65543"><defs><linearGradient x1="227.22635" y1="149.00119" x2="227.22635" y2="179.21066" gradientUnits="userSpaceOnUse" id="color-1"><stop offset="0" stop-color="#00ebd4"/><stop offset="1" stop-color="#009cff"/></linearGradient><linearGradient x1="255.07571" y1="167.88211" x2="255.07571" y2="186.76303" gradientUnits="userSpaceOnUse" id="color-2"><stop offset="0" stop-color="#00ebd4"/><stop offset="1" stop-color="#009cff"/></linearGradient><linearGradient x1="301.59823" y1="241.81623" x2="273.82395" y2="229.93342" gradientUnits="userSpaceOnUse" id="color-3"><stop offset="0" stop-color="#00ebd4"/><stop offset="1" stop-color="#009cff"/></linearGradient><linearGradient x1="273.28483" y1="259.9939" x2="255.9259" y2="252.56713" gradientUnits="userSpaceOnUse" id="color-4"><stop offset="0" stop-color="#00ebd4"/><stop offset="1" stop-color="#009cff"/></linearGradient><linearGradient x1="182.59698" y1="261.92599" x2="207.69291" y2="245.10914" gradientUnits="userSpaceOnUse" id="color-5"><stop offset="0" stop-color="#00ebd4"/><stop offset="1" stop-color="#009cff"/></linearGradient><linearGradient x1="182.77889" y1="228.28014" x2="198.46385" y2="217.76962" gradientUnits="userSpaceOnUse" id="color-6"><stop offset="0" stop-color="#00ebd4"/><stop offset="1" stop-color="#009cff"/></linearGradient><linearGradient x1="240" y1="62.5" x2="240" y2="297.5" gradientUnits="userSpaceOnUse" id="color-7"><stop offset="0" stop-color="#ffffff" stop-opacity="0"/><stop offset="1" stop-color="#ffffff"/></linearGradient><linearGradient x1="242.5914" y1="75.02503" x2="242.5914" y2="126.39063" gradientUnits="userSpaceOnUse" id="color-8"><stop offset="0" stop-color="#00ebd4"/><stop offset="1" stop-color="#009cff"/></linearGradient></defs><g transform="translate(-148,-57.84457)"><g data-paper-data="{&quot;isPaintingLayer&quot;:true}" fill-rule="nonzero" stroke-linejoin="miter" stroke-miterlimit="10" stroke-dasharray="" stroke-dashoffset="0" style="mix-blend-mode: normal"><g><g stroke="none" stroke-width="0" stroke-linecap="butt"><path d="M234.55437,105.66816c0,12.08123 -7.10252,6.56991 -12.00882,10.00536c-3.18441,2.22976 -3.35449,8.47433 -3.35449,8.47433c-5.18559,6.7705 -8.01169,3.39531 -8.01169,3.39531c-6.57372,0 -6.50137,-4.83013 -11.54904,-9.04139c-5.60666,-4.67763 -11.82596,-5.53191 -11.82596,-12.83361c0,-5.28799 -7.66493,-6.63866 -4.47859,-10.85884c3.86654,-5.12109 13.23516,-1.95371 19.32146,-3.98659c5.29876,-1.76983 2.9456,-7.02957 8.53212,-7.02957c4.30797,0 3.79581,4.79183 7.67745,6.66038c8.62062,4.1498 15.69755,5.64718 15.69755,15.21462z" data-paper-data="{&quot;origPos&quot;:null}" fill="#b0b0b0"/><path d="M220.90094,82.59123c10.95127,5.10154 2.95623,9.2125 3.99858,15.1106c0.67653,3.82813 6.26523,6.6192 6.26523,6.6192c3.94753,7.55955 -0.30535,8.69609 -0.30535,8.69609c-2.77588,5.95887 -7.12371,3.85367 -13.07257,6.65094c-6.60766,3.10704 -10.00826,8.38391 -16.62703,5.30062c-4.7934,-2.23296 -9.25442,4.14472 -11.73439,-0.52566c-3.00938,-5.66739 3.81784,-12.82228 4.54516,-19.19775c0.63321,-5.55053 -5.12825,-5.63849 -2.76923,-10.7025c1.81914,-3.90505 5.9465,-1.41734 9.27939,-4.1469c7.40191,-6.06199 11.74762,-11.84472 20.42022,-7.80467z" data-paper-data="{&quot;origPos&quot;:null,&quot;origRot&quot;:0}" fill="#c1c1c1"/><path d="M218.80436,105.91816c0,2.54869 8.24722,3.03313 6.41376,4.8035c-2.4755,2.39032 -13.59759,4.0715 -17.03876,4.0715c-2.66402,0 -7.98771,5.10165 -10.22805,3.66017c-2.79691,-1.79959 -0.39694,-9.20933 -0.39694,-12.53517c0,-4.90152 0.25698,-5.625 6.125,-5.625c0,0 5.04772,-9.51089 8.88662,-8.42413c2.73249,0.77355 6.23838,9.1476 6.23838,14.04913z" data-paper-data="{&quot;origPos&quot;:null}" fill="#d9d9d9"/></g><g stroke="none" stroke-width="0" stroke-linecap="butt"><path d="M259.86087,148.15709c0,12.08123 -7.10252,6.56991 -12.00882,10.00536c-3.18441,2.22976 -3.35449,8.47433 -3.35449,8.47433c-5.18559,6.7705 -8.01169,3.39531 -8.01169,3.39531c-6.57372,0 -6.50137,-4.83013 -11.54904,-9.04139c-5.60666,-4.67763 -11.82596,-5.53191 -11.82596,-12.83361c0,-5.28799 -7.66493,-6.63866 -4.47859,-10.85884c3.86654,-5.12109 13.23516,-1.95371 19.32146,-3.98659c5.29876,-1.76983 2.9456,-7.02957 8.53212,-7.02957c4.30797,0 3.79581,4.79183 7.67745,6.66038c8.62062,4.1498 15.69755,5.64718 15.69755,15.21462z" data-paper-data="{&quot;origPos&quot;:null}" fill="#b0b0b0"/><path d="M246.20744,125.08015c10.95127,5.10154 2.95623,9.2125 3.99858,15.1106c0.67653,3.82813 6.26523,6.6192 6.26523,6.6192c3.94753,7.55955 -0.30535,8.69609 -0.30535,8.69609c-2.77588,5.95887 -7.12371,3.85367 -13.07257,6.65094c-6.60766,3.10704 -10.00826,8.38391 -16.62703,5.30062c-4.7934,-2.23296 -9.25442,4.14472 -11.73439,-0.52566c-3.00938,-5.66739 3.81784,-12.82228 4.54516,-19.19775c0.63321,-5.55053 -5.12825,-5.63849 -2.76923,-10.7025c1.81914,-3.90505 5.9465,-1.41734 9.27939,-4.1469c7.40191,-6.06199 11.74762,-11.84472 20.42022,-7.80467z" data-paper-data="{&quot;origPos&quot;:null,&quot;origRot&quot;:0}" fill="#c1c1c1"/><path d="M244.11086,148.40709c0,2.54869 8.24722,3.03313 6.41376,4.8035c-2.4755,2.39032 -13.59759,4.0715 -17.03876,4.0715c-2.66402,0 -7.98771,5.10165 -10.22805,3.66017c-2.79691,-1.79959 -0.39694,-9.20933 -0.39694,-12.53517c0,-4.90152 0.25698,-5.625 6.125,-5.625c0,0 5.04772,-9.51089 8.88662,-8.42413c2.73249,0.77355 6.23838,9.1476 6.23838,14.04913z" data-paper-data="{&quot;origPos&quot;:null}" fill="#d9d9d9"/></g><g stroke="none" stroke-width="0" stroke-linecap="butt"><path d="M204.79957,176.52074c-9.30549,7.7048 -9.59006,-1.28071 -15.36518,-2.8688c-3.74831,-1.03074 -8.66663,2.82073 -8.66663,2.82073c-8.52204,0.32372 -7.72467,-4.00559 -7.72467,-4.00559c-4.19239,-5.06337 -0.42587,-8.08805 -0.40132,-14.66172c0.02727,-7.30165 -3.28109,-12.63684 2.343,-17.2935c4.07304,-3.37241 0.22508,-10.13767 5.50773,-10.37483c6.41037,-0.28779 9.94555,8.94832 15.3929,12.33978c4.74248,2.95263 7.29304,-2.21428 10.85584,2.0887c2.7474,3.31819 -1.2701,5.97969 -0.23382,10.16116c2.30145,9.28651 5.66141,15.69242 -1.70785,21.79406z" data-paper-data="{&quot;origPos&quot;:null}" fill="#b0b0b0"/><path d="M213.86695,151.28696c3.05474,11.68865 -5.21053,8.15229 -9.08875,12.71667c-2.51713,2.96248 -1.10274,9.04715 -1.10274,9.04715c-3.30516,7.86166 -6.89284,5.31073 -6.89284,5.31073c-6.3601,1.66216 -7.51141,-3.02931 -13.45988,-5.82743c-6.60721,-3.10799 -12.84042,-2.36196 -14.68666,-9.42639c-1.33706,-5.11615 -9.09445,-4.48486 -7.07872,-9.37358c2.44604,-5.93233 12.3111,-5.23674 17.68562,-8.74248c4.67909,-3.05212 1.07247,-7.54595 6.47746,-8.9585c4.16799,-1.08927 4.88408,3.67635 9.11205,4.50271c9.38977,1.83524 16.61536,1.49456 19.03448,10.75111z" data-paper-data="{&quot;origPos&quot;:null,&quot;origRot&quot;:0}" fill="#c1c1c1"/><path d="M194.56244,164.54884c-1.96311,1.62543 2.92342,8.28674 0.39051,8.00358c-3.41988,-0.38231 -11.80791,-7.87686 -14.00251,-10.5274c-1.69898,-2.05194 -9.02367,-2.8989 -9.34216,-5.54381c-0.3976,-3.30199 6.84028,-6.17899 9.40198,-8.30004c3.77536,-3.12595 4.49651,-3.38941 8.23884,1.1304c0,0 10.54488,-2.17759 12.15607,1.47237c1.14683,2.59802 -3.06735,10.63895 -6.84273,13.7649z" data-paper-data="{&quot;origPos&quot;:null}" fill="#d9d9d9"/></g><g stroke="none" stroke-width="0" stroke-linecap="butt"><path d="M212.58613,232.61425c0,12.08123 -7.10252,6.56991 -12.00882,10.00536c-3.18441,2.22976 -3.35449,8.47433 -3.35449,8.47433c-5.18559,6.7705 -8.01169,3.39531 -8.01169,3.39531c-6.57372,0 -6.50137,-4.83013 -11.54904,-9.04139c-5.60666,-4.67763 -11.82596,-5.53191 -11.82596,-12.83361c0,-5.28799 -7.66493,-6.63866 -4.47859,-10.85884c3.86654,-5.12109 13.23516,-1.95371 19.32146,-3.98659c5.29876,-1.76983 2.9456,-7.02957 8.53212,-7.02957c4.30797,0 3.79581,4.79183 7.67745,6.66038c8.62062,4.1498 15.69755,5.64718 15.69755,15.21462z" data-paper-data="{&quot;origPos&quot;:null}" fill="#b0b0b0"/><path d="M198.9327,209.53732c10.95127,5.10154 2.95623,9.2125 3.99858,15.1106c0.67653,3.82813 6.26523,6.6192 6.26523,6.6192c3.94753,7.55955 -0.30535,8.69609 -0.30535,8.69609c-2.77588,5.95887 -7.12371,3.85367 -13.07257,6.65094c-6.60766,3.10704 -10.00826,8.38391 -16.62703,5.30062c-4.7934,-2.23296 -9.25442,4.14472 -11.73439,-0.52566c-3.00938,-5.66739 3.81784,-12.82228 4.54516,-19.19775c0.63321,-5.55053 -5.12825,-5.63849 -2.76923,-10.7025c1.81914,-3.90505 5.9465,-1.41734 9.27939,-4.1469c7.40191,-6.06199 11.74762,-11.84472 20.42022,-7.80467z" data-paper-data="{&quot;origPos&quot;:null,&quot;origRot&quot;:0}" fill="#c1c1c1"/><path d="M196.83612,232.86425c0,2.54869 8.24722,3.03313 6.41376,4.8035c-2.4755,2.39032 -13.59759,4.0715 -17.03876,4.0715c-2.66402,0 -7.98771,5.10165 -10.22805,3.66017c-2.79691,-1.79959 -0.39694,-9.20933 -0.39694,-12.53517c0,-4.90152 0.25698,-5.625 6.125,-5.625c0,0 5.04772,-9.51089 8.88662,-8.42413c2.73249,0.77355 6.23838,9.1476 6.23838,14.04913z" data-paper-data="{&quot;origPos&quot;:null}" fill="#d9d9d9"/></g><g stroke="none" stroke-width="0" stroke-linecap="butt"><path d="M272.77816,265.21026c0,12.08123 -7.10252,6.56991 -12.00882,10.00536c-3.18441,2.22976 -3.35449,8.47433 -3.35449,8.47433c-5.18559,6.7705 -8.01169,3.39531 -8.01169,3.39531c-6.57372,0 -6.50137,-4.83013 -11.54904,-9.04139c-5.60666,-4.67763 -11.82596,-5.53191 -11.82596,-12.83361c0,-5.28799 -7.66493,-6.63866 -4.47859,-10.85884c3.86654,-5.12109 13.23516,-1.95371 19.32146,-3.98659c5.29876,-1.76983 2.9456,-7.02957 8.53212,-7.02957c4.30797,0 3.79581,4.79183 7.67745,6.66038c8.62062,4.1498 15.69755,5.64718 15.69755,15.21462z" data-paper-data="{&quot;origPos&quot;:null}" fill="#b0b0b0"/><path d="M259.12473,242.13333c10.95127,5.10154 2.95623,9.2125 3.99858,15.1106c0.67653,3.82813 6.26523,6.6192 6.26523,6.6192c3.94753,7.55955 -0.30535,8.69609 -0.30535,8.69609c-2.77588,5.95887 -7.12371,3.85367 -13.07257,6.65094c-6.60766,3.10704 -10.00826,8.38391 -16.62703,5.30062c-4.7934,-2.23296 -9.25442,4.14472 -11.73439,-0.52566c-3.00938,-5.66739 3.81784,-12.82228 4.54516,-19.19775c0.63321,-5.55053 -5.12825,-5.63849 -2.76923,-10.7025c1.81914,-3.90505 5.9465,-1.41734 9.27939,-4.1469c7.40191,-6.06199 11.74762,-11.84472 20.42022,-7.80467z" data-paper-data="{&quot;origPos&quot;:null,&quot;origRot&quot;:0}" fill="#c1c1c1"/><path d="M257.02815,265.46026c0,2.54869 8.24722,3.03313 6.41376,4.8035c-2.4755,2.39032 -13.59759,4.0715 -17.03876,4.0715c-2.66402,0 -7.98771,5.10165 -10.22805,3.66017c-2.79691,-1.79959 -0.39694,-9.20933 -0.39694,-12.53517c0,-4.90152 0.25698,-5.625 6.125,-5.625c0,0 5.04772,-9.51089 8.88662,-8.42413c2.73249,0.77355 6.23838,9.1476 6.23838,14.04913z" data-paper-data="{&quot;origPos&quot;:null}" fill="#d9d9d9"/></g><g stroke="none" stroke-width="0" stroke-linecap="butt"><path d="M268.40593,244.17628c0,12.08123 -7.10252,6.56991 -12.00882,10.00536c-3.18441,2.22976 -3.35449,8.47433 -3.35449,8.47433c-5.18559,6.7705 -8.01169,3.39531 -8.01169,3.39531c-6.57372,0 -6.50137,-4.83013 -11.54904,-9.04139c-5.60666,-4.67763 -11.82596,-5.53191 -11.82596,-12.83361c0,-5.28799 -7.66493,-6.63866 -4.47859,-10.85884c3.86654,-5.12109 13.23516,-1.95371 19.32146,-3.98659c5.29876,-1.76983 2.9456,-7.02957 8.53212,-7.02957c4.30797,0 3.79581,4.79183 7.67745,6.66038c8.62062,4.1498 15.69755,5.64718 15.69755,15.21462z" data-paper-data="{&quot;origPos&quot;:null}" fill="#b0b0b0"/><path d="M254.7525,221.09935c10.95127,5.10154 2.95623,9.2125 3.99858,15.1106c0.67653,3.82813 6.26523,6.6192 6.26523,6.6192c3.94753,7.55955 -0.30535,8.69609 -0.30535,8.69609c-2.77588,5.95887 -7.12371,3.85367 -13.07257,6.65094c-6.60766,3.10704 -10.00826,8.38391 -16.62703,5.30062c-4.7934,-2.23296 -9.25442,4.14472 -11.73439,-0.52566c-3.00938,-5.66739 3.81784,-12.82228 4.54516,-19.19775c0.63321,-5.55053 -5.12825,-5.63849 -2.76923,-10.7025c1.81914,-3.90505 5.9465,-1.41734 9.27939,-4.1469c7.40191,-6.06199 11.74762,-11.84472 20.42022,-7.80467z" data-paper-data="{&quot;origPos&quot;:null,&quot;origRot&quot;:0}" fill="#c1c1c1"/><path d="M252.65592,244.42628c0,2.54869 8.24722,3.03313 6.41376,4.8035c-2.4755,2.39032 -13.59759,4.0715 -17.03876,4.0715c-2.66402,0 -7.98771,5.10165 -10.22805,3.66017c-2.79691,-1.79959 -0.39694,-9.20933 -0.39694,-12.53517c0,-4.90152 0.25698,-5.625 6.125,-5.625c0,0 5.04772,-9.51089 8.88662,-8.42413c2.73249,0.77355 6.23838,9.1476 6.23838,14.04913z" data-paper-data="{&quot;origPos&quot;:null}" fill="#d9d9d9"/></g><g stroke="none" stroke-width="0" stroke-linecap="butt"><path d="M301.00194,255.42444c0,12.08123 -7.10252,6.56991 -12.00882,10.00536c-3.18441,2.22976 -3.35449,8.47433 -3.35449,8.47433c-5.18559,6.7705 -8.01169,3.39531 -8.01169,3.39531c-6.57372,0 -6.50137,-4.83013 -11.54904,-9.04139c-5.60666,-4.67763 -11.82596,-5.53191 -11.82596,-12.83361c0,-5.28799 -7.66493,-6.63866 -4.47859,-10.85884c3.86654,-5.12109 13.23516,-1.95371 19.32146,-3.98659c5.29876,-1.76983 2.9456,-7.02957 8.53212,-7.02957c4.30797,0 3.79581,4.79183 7.67745,6.66038c8.62062,4.1498 15.69755,5.64718 15.69755,15.21462z" data-paper-data="{&quot;origPos&quot;:null}" fill="#b0b0b0"/><path d="M287.34851,232.34751c10.95127,5.10154 2.95623,9.2125 3.99858,15.1106c0.67653,3.82813 6.26523,6.6192 6.26523,6.6192c3.94753,7.55955 -0.30535,8.69609 -0.30535,8.69609c-2.77588,5.95887 -7.12371,3.85367 -13.07257,6.65094c-6.60766,3.10704 -10.00826,8.38391 -16.62703,5.30062c-4.7934,-2.23296 -9.25442,4.14472 -11.73439,-0.52566c-3.00938,-5.66739 3.81784,-12.82228 4.54516,-19.19775c0.63321,-5.55053 -5.12825,-5.63849 -2.76923,-10.7025c1.81914,-3.90505 5.9465,-1.41734 9.27939,-4.1469c7.40191,-6.06199 11.74762,-11.84472 20.42022,-7.80467z" data-paper-data="{&quot;origPos&quot;:null,&quot;origRot&quot;:0}" fill="#c1c1c1"/><path d="M285.25193,255.67444c0,2.54869 8.24722,3.03313 6.41376,4.8035c-2.4755,2.39032 -13.59759,4.0715 -17.03876,4.0715c-2.66402,0 -7.98771,5.10165 -10.22805,3.66017c-2.79691,-1.79959 -0.39694,-9.20933 -0.39694,-12.53517c0,-4.90152 0.25698,-5.625 6.125,-5.625c0,0 5.04772,-9.51089 8.88662,-8.42413c2.73249,0.77355 6.23838,9.1476 6.23838,14.04913z" data-paper-data="{&quot;origPos&quot;:null}" fill="#d9d9d9"/></g><g stroke="none" stroke-width="0" stroke-linecap="butt"><path d="M233.62749,259.90376c0,12.08123 -7.10252,6.56991 -12.00882,10.00536c-3.18441,2.22976 -3.35449,8.47433 -3.35449,8.47433c-5.18559,6.7705 -8.01169,3.39531 -8.01169,3.39531c-6.57372,0 -6.50137,-4.83013 -11.54904,-9.04139c-5.60666,-4.67763 -11.82596,-5.53191 -11.82596,-12.83361c0,-5.28799 -7.66493,-6.63866 -4.47859,-10.85884c3.86654,-5.12109 13.23516,-1.95371 19.32146,-3.98659c5.29876,-1.76983 2.9456,-7.02957 8.53212,-7.02957c4.30797,0 3.79581,4.79183 7.67745,6.66038c8.62062,4.1498 15.69755,5.64718 15.69755,15.21462z" data-paper-data="{&quot;origPos&quot;:null}" fill="#b0b0b0"/><path d="M219.97406,236.82683c10.95127,5.10154 2.95623,9.2125 3.99858,15.1106c0.67653,3.82813 6.26523,6.6192 6.26523,6.6192c3.94753,7.55955 -0.30535,8.69609 -0.30535,8.69609c-2.77588,5.95887 -7.12371,3.85367 -13.07257,6.65094c-6.60766,3.10704 -10.00826,8.38391 -16.62703,5.30062c-4.7934,-2.23296 -9.25442,4.14472 -11.73439,-0.52566c-3.00938,-5.66739 3.81784,-12.82228 4.54516,-19.19775c0.63321,-5.55053 -5.12825,-5.63849 -2.76923,-10.7025c1.81914,-3.90505 5.9465,-1.41734 9.27939,-4.1469c7.40191,-6.06199 11.74762,-11.84472 20.42022,-7.80467z" data-paper-data="{&quot;origPos&quot;:null,&quot;origRot&quot;:0}" fill="#c1c1c1"/><path d="M217.87748,260.15376c0,2.54869 8.24722,3.03313 6.41376,4.8035c-2.4755,2.39032 -13.59759,4.0715 -17.03876,4.0715c-2.66402,0 -7.98771,5.10165 -10.22805,3.66017c-2.79691,-1.79959 -0.39694,-9.20933 -0.39694,-12.53517c0,-4.90152 0.25698,-5.625 6.125,-5.625c0,0 5.04772,-9.51089 8.88662,-8.42413c2.73249,0.77355 6.23838,9.1476 6.23838,14.04913z" data-paper-data="{&quot;origPos&quot;:null}" fill="#d9d9d9"/></g><g stroke="none" stroke-width="0" stroke-linecap="butt"><path d="M204.26265,189.40523c0,12.08123 -7.10252,6.56991 -12.00882,10.00536c-3.18441,2.22976 -3.35449,8.47433 -3.35449,8.47433c-5.18559,6.7705 -8.01169,3.39531 -8.01169,3.39531c-6.57372,0 -6.50137,-4.83013 -11.54904,-9.04139c-5.60666,-4.67763 -11.82596,-5.53191 -11.82596,-12.83361c0,-5.28799 -7.66493,-6.63866 -4.47859,-10.85884c3.86654,-5.12109 13.23516,-1.95371 19.32146,-3.98659c5.29876,-1.76983 2.9456,-7.02957 8.53212,-7.02957c4.30797,0 3.79581,4.79183 7.67745,6.66038c8.62062,4.1498 15.69755,5.64718 15.69755,15.21462z" data-paper-data="{&quot;origPos&quot;:null}" fill="#b0b0b0"/><path d="M190.60922,166.3283c10.95127,5.10154 2.95623,9.2125 3.99858,15.1106c0.67653,3.82813 6.26523,6.6192 6.26523,6.6192c3.94753,7.55955 -0.30535,8.69609 -0.30535,8.69609c-2.77588,5.95887 -7.12371,3.85367 -13.07257,6.65094c-6.60766,3.10704 -10.00826,8.38391 -16.62703,5.30062c-4.7934,-2.23296 -9.25442,4.14472 -11.73439,-0.52566c-3.00938,-5.66739 3.81784,-12.82228 4.54516,-19.19775c0.63321,-5.55053 -5.12825,-5.63849 -2.76923,-10.7025c1.81914,-3.90505 5.9465,-1.41734 9.27939,-4.1469c7.40191,-6.06199 11.74762,-11.84472 20.42022,-7.80467z" data-paper-data="{&quot;origPos&quot;:null,&quot;origRot&quot;:0}" fill="#c1c1c1"/><path d="M188.51264,189.65523c0,2.54869 8.24722,3.03313 6.41376,4.8035c-2.4755,2.39032 -13.59759,4.0715 -17.03876,4.0715c-2.66402,0 -7.98771,5.10165 -10.22805,3.66017c-2.79691,-1.79959 -0.39694,-9.20933 -0.39694,-12.53517c0,-4.90152 0.25698,-5.625 6.125,-5.625c0,0 5.04772,-9.51089 8.88662,-8.42413c2.73249,0.77355 6.23838,9.1476 6.23838,14.04913z" data-paper-data="{&quot;origPos&quot;:null}" fill="#d9d9d9"/></g><g stroke="none" stroke-width="0" stroke-linecap="butt"><path d="M237.37934,178.78486c0,12.08123 -7.10252,6.56991 -12.00882,10.00536c-3.18441,2.22976 -3.35449,8.47433 -3.35449,8.47433c-5.18559,6.7705 -8.01169,3.39531 -8.01169,3.39531c-6.57372,0 -6.50137,-4.83013 -11.54904,-9.04139c-5.60666,-4.67763 -11.82596,-5.53191 -11.82596,-12.83361c0,-5.28799 -7.66493,-6.63866 -4.47859,-10.85884c3.86654,-5.12109 13.23516,-1.95371 19.32146,-3.98659c5.29876,-1.76983 2.9456,-7.02957 8.53212,-7.02957c4.30797,0 3.79581,4.79183 7.67745,6.66038c8.62062,4.1498 15.69755,5.64718 15.69755,15.21462z" data-paper-data="{&quot;origPos&quot;:null}" fill="#b0b0b0"/><path d="M223.72591,155.70792c10.95127,5.10154 2.95623,9.2125 3.99858,15.1106c0.67653,3.82813 6.26523,6.6192 6.26523,6.6192c3.94753,7.55955 -0.30535,8.69609 -0.30535,8.69609c-2.77588,5.95887 -7.12371,3.85367 -13.07257,6.65094c-6.60766,3.10704 -10.00826,8.38391 -16.62703,5.30062c-4.7934,-2.23296 -9.25442,4.14472 -11.73439,-0.52566c-3.00938,-5.66739 3.81784,-12.82228 4.54516,-19.19775c0.63321,-5.55053 -5.12825,-5.63849 -2.76923,-10.7025c1.81914,-3.90505 5.9465,-1.41734 9.27939,-4.1469c7.40191,-6.06199 11.74762,-11.84472 20.42022,-7.80467z" data-paper-data="{&quot;origPos&quot;:null,&quot;origRot&quot;:0}" fill="#c1c1c1"/><path d="M221.62933,179.03486c0,2.54869 8.24722,3.03313 6.41376,4.8035c-2.4755,2.39032 -13.59759,4.0715 -17.03876,4.0715c-2.66402,0 -7.98771,5.10165 -10.22805,3.66017c-2.79691,-1.79959 -0.39694,-9.20933 -0.39694,-12.53517c0,-4.90152 0.25698,-5.625 6.125,-5.625c0,0 5.04772,-9.51089 8.88662,-8.42413c2.73249,0.77355 6.23838,9.1476 6.23838,14.04913z" data-paper-data="{&quot;origPos&quot;:null}" fill="#d9d9d9"/></g><g stroke="none" stroke-width="0" stroke-linecap="butt"><path d="M307.46427,190.55368c0,12.08123 -7.10252,6.56991 -12.00882,10.00536c-3.18441,2.22976 -3.35449,8.47433 -3.35449,8.47433c-5.18559,6.7705 -8.01169,3.39531 -8.01169,3.39531c-6.57372,0 -6.50137,-4.83013 -11.54904,-9.04139c-5.60666,-4.67763 -11.82596,-5.53191 -11.82596,-12.83361c0,-5.28799 -7.66493,-6.63866 -4.47859,-10.85884c3.86654,-5.12109 13.23516,-1.95371 19.32146,-3.98659c5.29876,-1.76983 2.9456,-7.02957 8.53212,-7.02957c4.30797,0 3.79581,4.79183 7.67745,6.66038c8.62062,4.1498 15.69755,5.64718 15.69755,15.21462z" data-paper-data="{&quot;origPos&quot;:null}" fill="#b0b0b0"/><path d="M293.81084,167.47676c10.95127,5.10154 2.95623,9.2125 3.99858,15.1106c0.67653,3.82813 6.26523,6.6192 6.26523,6.6192c3.94753,7.55955 -0.30535,8.69609 -0.30535,8.69609c-2.77588,5.95887 -7.12371,3.85367 -13.07257,6.65094c-6.60766,3.10704 -10.00826,8.38391 -16.62703,5.30062c-4.7934,-2.23296 -9.25442,4.14472 -11.73439,-0.52566c-3.00938,-5.66739 3.81784,-12.82228 4.54516,-19.19775c0.63321,-5.55053 -5.12825,-5.63849 -2.76923,-10.7025c1.81914,-3.90505 5.9465,-1.41734 9.27939,-4.1469c7.40191,-6.06199 11.74762,-11.84472 20.42022,-7.80467z" data-paper-data="{&quot;origPos&quot;:null,&quot;origRot&quot;:0}" fill="#c1c1c1"/><path d="M291.71426,190.80368c0,2.54869 8.24722,3.03313 6.41376,4.8035c-2.4755,2.39032 -13.59759,4.0715 -17.03876,4.0715c-2.66402,0 -7.98771,5.10165 -10.22805,3.66017c-2.79691,-1.79959 -0.39694,-9.20933 -0.39694,-12.53517c0,-4.90152 0.25698,-5.625 6.125,-5.625c0,0 5.04772,-9.51089 8.88662,-8.42413c2.73249,0.77355 6.23838,9.1476 6.23838,14.04913z" data-paper-data="{&quot;origPos&quot;:null}" fill="#d9d9d9"/></g><g stroke="none" stroke-width="0" stroke-linecap="butt"><path d="M266.64448,206.48795c0,12.08123 -7.10252,6.56991 -12.00882,10.00536c-3.18441,2.22976 -3.35449,8.47433 -3.35449,8.47433c-5.18559,6.7705 -8.01169,3.39531 -8.01169,3.39531c-6.57372,0 -6.50137,-4.83013 -11.54904,-9.04139c-5.60666,-4.67763 -11.82596,-5.53191 -11.82596,-12.83361c0,-5.28799 -7.66493,-6.63866 -4.47859,-10.85884c3.86654,-5.12109 13.23516,-1.95371 19.32146,-3.98659c5.29876,-1.76983 2.9456,-7.02957 8.53212,-7.02957c4.30797,0 3.79581,4.79183 7.67745,6.66038c8.62062,4.1498 15.69755,5.64718 15.69755,15.21462z" data-paper-data="{&quot;origPos&quot;:null}" fill="#b0b0b0"/><path d="M252.99105,183.41103c10.95127,5.10154 2.95623,9.2125 3.99858,15.1106c0.67653,3.82813 6.26523,6.6192 6.26523,6.6192c3.94753,7.55955 -0.30535,8.69609 -0.30535,8.69609c-2.77588,5.95887 -7.12371,3.85367 -13.07257,6.65094c-6.60766,3.10704 -10.00826,8.38391 -16.62703,5.30062c-4.7934,-2.23296 -9.25442,4.14472 -11.73439,-0.52566c-3.00938,-5.66739 3.81784,-12.82228 4.54516,-19.19775c0.63321,-5.55053 -5.12825,-5.63849 -2.76923,-10.7025c1.81914,-3.90505 5.9465,-1.41734 9.27939,-4.1469c7.40191,-6.06199 11.74762,-11.84472 20.42022,-7.80467z" data-paper-data="{&quot;origPos&quot;:null,&quot;origRot&quot;:0}" fill="#c1c1c1"/><path d="M250.89447,206.73795c0,2.54869 8.24722,3.03313 6.41376,4.8035c-2.4755,2.39032 -13.59759,4.0715 -17.03876,4.0715c-2.66402,0 -7.98771,5.10165 -10.22805,3.66017c-2.79691,-1.79959 -0.39694,-9.20933 -0.39694,-12.53517c0,-4.90152 0.25698,-5.625 6.125,-5.625c0,0 5.04772,-9.51089 8.88662,-8.42413c2.73249,0.77355 6.23838,9.1476 6.23838,14.04913z" data-paper-data="{&quot;origPos&quot;:null}" fill="#d9d9d9"/></g><g stroke="none" stroke-width="0" stroke-linecap="butt"><path d="M320.06766,184.9333c0,12.08123 -7.10252,6.56991 -12.00882,10.00536c-3.18441,2.22976 -3.35449,8.47433 -3.35449,8.47433c-5.18559,6.7705 -8.01169,3.39531 -8.01169,3.39531c-6.57372,0 -6.50137,-4.83013 -11.54904,-9.04139c-5.60666,-4.67763 -11.82596,-5.53191 -11.82596,-12.83361c0,-5.28799 -7.66493,-6.63866 -4.47859,-10.85884c3.86654,-5.12109 13.23516,-1.95371 19.32146,-3.98659c5.29876,-1.76983 2.9456,-7.02957 8.53212,-7.02957c4.30797,0 3.79581,4.79183 7.67745,6.66038c8.62062,4.1498 15.69755,5.64718 15.69755,15.21462z" data-paper-data="{&quot;origPos&quot;:null}" fill="#b0b0b0"/><path d="M306.41424,161.85637c10.95127,5.10154 2.95623,9.2125 3.99858,15.1106c0.67653,3.82813 6.26523,6.6192 6.26523,6.6192c3.94753,7.55955 -0.30535,8.69609 -0.30535,8.69609c-2.77588,5.95887 -7.12371,3.85367 -13.07257,6.65094c-6.60766,3.10704 -10.00826,8.38391 -16.62703,5.30062c-4.7934,-2.23296 -9.25442,4.14472 -11.73439,-0.52566c-3.00938,-5.66739 3.81784,-12.82228 4.54516,-19.19775c0.63321,-5.55053 -5.12825,-5.63849 -2.76923,-10.7025c1.81914,-3.90505 5.9465,-1.41734 9.27939,-4.1469c7.40191,-6.06199 11.74762,-11.84472 20.42022,-7.80467z" data-paper-data="{&quot;origPos&quot;:null,&quot;origRot&quot;:0}" fill="#c1c1c1"/><path d="M304.31766,185.1833c0,2.54869 8.24722,3.03313 6.41376,4.8035c-2.4755,2.39032 -13.59759,4.0715 -17.03876,4.0715c-2.66402,0 -7.98771,5.10165 -10.22805,3.66017c-2.79691,-1.79959 -0.39694,-9.20933 -0.39694,-12.53517c0,-4.90152 0.25698,-5.625 6.125,-5.625c0,0 5.04772,-9.51089 8.88662,-8.42413c2.73249,0.77355 6.23838,9.1476 6.23838,14.04913z" data-paper-data="{&quot;origPos&quot;:null}" fill="#d9d9d9"/></g><g stroke="none" stroke-width="0" stroke-linecap="butt"><path d="M311.53,149.84098c0,12.08123 -7.10252,6.56991 -12.00882,10.00536c-3.18441,2.22976 -3.35449,8.47433 -3.35449,8.47433c-5.18559,6.7705 -8.01169,3.39531 -8.01169,3.39531c-6.57372,0 -6.50137,-4.83013 -11.54904,-9.04139c-5.60666,-4.67763 -11.82596,-5.53191 -11.82596,-12.83361c0,-5.28799 -7.66493,-6.63866 -4.47859,-10.85884c3.86654,-5.12109 13.23516,-1.95371 19.32146,-3.98659c5.29876,-1.76983 2.9456,-7.02957 8.53212,-7.02957c4.30797,0 3.79581,4.79183 7.67745,6.66038c8.62062,4.1498 15.69755,5.64718 15.69755,15.21462z" data-paper-data="{&quot;origPos&quot;:null}" fill="#b0b0b0"/><path d="M297.87657,126.76405c10.95127,5.10154 2.95623,9.2125 3.99858,15.1106c0.67653,3.82813 6.26523,6.6192 6.26523,6.6192c3.94753,7.55955 -0.30535,8.69609 -0.30535,8.69609c-2.77588,5.95887 -7.12371,3.85367 -13.07257,6.65094c-6.60766,3.10704 -10.00826,8.38391 -16.62703,5.30062c-4.7934,-2.23296 -9.25442,4.14472 -11.73439,-0.52566c-3.00938,-5.66739 3.81784,-12.82228 4.54516,-19.19775c0.63321,-5.55053 -5.12825,-5.63849 -2.76923,-10.7025c1.81914,-3.90505 5.9465,-1.41734 9.27939,-4.1469c7.40191,-6.06199 11.74762,-11.84472 20.42022,-7.80467z" data-paper-data="{&quot;origPos&quot;:null,&quot;origRot&quot;:0}" fill="#c1c1c1"/><path d="M295.77999,150.09098c0,2.54869 8.24722,3.03313 6.41376,4.8035c-2.4755,2.39032 -13.59759,4.0715 -17.03876,4.0715c-2.66402,0 -7.98771,5.10165 -10.22805,3.66017c-2.79691,-1.79959 -0.39694,-9.20933 -0.39694,-12.53517c0,-4.90152 0.25698,-5.625 6.125,-5.625c0,0 5.04772,-9.51089 8.88662,-8.42413c2.73249,0.77355 6.23838,9.1476 6.23838,14.04913z" data-paper-data="{&quot;origPos&quot;:null}" fill="#d9d9d9"/></g><g stroke="none" stroke-width="0" stroke-linecap="butt"><path d="M284.76855,99.64896c0,12.08123 -7.10252,6.56991 -12.00882,10.00536c-3.18441,2.22976 -3.35449,8.47433 -3.35449,8.47433c-5.18559,6.7705 -8.01169,3.39531 -8.01169,3.39531c-6.57372,0 -6.50137,-4.83013 -11.54904,-9.04139c-5.60666,-4.67763 -11.82596,-5.53191 -11.82596,-12.83361c0,-5.28799 -7.66493,-6.63866 -4.47859,-10.85884c3.86654,-5.12109 13.23516,-1.95371 19.32146,-3.98659c5.29876,-1.76983 2.9456,-7.02957 8.53212,-7.02957c4.30797,0 3.79581,4.79183 7.67745,6.66038c8.62062,4.1498 15.69755,5.64718 15.69755,15.21462z" data-paper-data="{&quot;origPos&quot;:null}" fill="#b0b0b0"/><path d="M271.11512,76.57203c10.95127,5.10154 2.95623,9.2125 3.99858,15.1106c0.67653,3.82813 6.26523,6.6192 6.26523,6.6192c3.94753,7.55955 -0.30535,8.69609 -0.30535,8.69609c-2.77588,5.95887 -7.12371,3.85367 -13.07257,6.65094c-6.60766,3.10704 -10.00826,8.38391 -16.62703,5.30062c-4.7934,-2.23296 -9.25442,4.14472 -11.73439,-0.52566c-3.00938,-5.66739 3.81784,-12.82228 4.54516,-19.19775c0.63321,-5.55053 -5.12825,-5.63849 -2.76923,-10.7025c1.81914,-3.90505 5.9465,-1.41734 9.27939,-4.1469c7.40191,-6.06199 11.74762,-11.84472 20.42022,-7.80467z" data-paper-data="{&quot;origPos&quot;:null,&quot;origRot&quot;:0}" fill="#c1c1c1"/><path d="M269.01854,99.89896c0,2.54869 8.24722,3.03313 6.41376,4.8035c-2.4755,2.39032 -13.59759,4.0715 -17.03876,4.0715c-2.66402,0 -7.98771,5.10165 -10.22805,3.66017c-2.79691,-1.79959 -0.39694,-9.20933 -0.39694,-12.53517c0,-4.90152 0.25698,-5.625 6.125,-5.625c0,0 5.04772,-9.51089 8.88662,-8.42413c2.73249,0.77355 6.23838,9.1476 6.23838,14.04913z" data-paper-data="{&quot;origPos&quot;:null}" fill="#d9d9d9"/></g><g fill="none" stroke-width="7.5" stroke-linecap="round"><g><path d="M200.32103,179.21066l24.5452,-30.20947l29.26543,27.84936" stroke="url(#color-1)"/><path d="M258.37987,167.88211l7.08034,18.88092l-20.76901,-4.2482" stroke="url(#color-2)"/></g><g><path d="M284.40708,205.19695l18.1195,34.44943l-37.11591,15.95186" stroke="url(#color-3)"/><path d="M271.98514,263.03171l-20.14396,-0.91717l12.0752,-17.4238" stroke="url(#color-4)"/></g><g><path d="M222.67043,267.46019l-38.75963,-3.57358l6.84397,-39.81473" stroke="url(#color-5)"/><path d="M180.93955,225.53529l11.74351,-16.3924l8.03248,19.61832" stroke="url(#color-6)"/></g></g><path d="M332,180c0,64.89346 -41.1898,117.5 -92,117.5c-50.81019,0 -92,-52.60654 -92,-117.5c0,-64.89346 41.18981,-117.5 92,-117.5c50.8102,0 92,52.60654 92,117.5z" data-paper-data="{&quot;index&quot;:null}" fill="url(#color-7)" stroke="#000000" stroke-width="0" stroke-linecap="butt"/><path d="M197.4758,125.19976c-16.3678,-5.82979 -29.22179,-21.84669 -29.85593,-28.79647c-0.85686,-9.39076 23.28081,-25.39272 44.08175,-28.55872c10.50986,-1.59965 44.18161,0.26202 57.58786,2.23562c22.81509,3.35872 47.46318,17.39574 48.2756,26.29943c0.86682,9.4999 -23.0875,25.72772 -45.95592,31.44315c-11.15902,2.78893 -57.20979,3.40473 -74.13334,-2.623z" fill="none" stroke="url(#color-8)" stroke-width="20" stroke-linecap="butt"/></g></g></g></svg>