<svg xmlns="http://www.w3.org/2000/svg" xmlns:xlink="http://www.w3.org/1999/xlink" version="1.1" width="137.48982849770667" height="43.29442825966956" viewBox="0.1955357638305344 0.8363357034629502 137.48982849770667 43.29442825966956">
  <!-- Exported by Scratch - http://scratch.mit.edu/ -->
  <g id="ID0.11672668624669313">
    <path id="ID0.9498556144535542" fill="#42210B" d="M 20.5932 43.3546 C 18.6528 43.3546 16.8676 43.1684 15.2687 42.7958 C 13.6387 42.4232 12.1485 41.8178 10.8135 41.0261 C 9.4785 40.2189 8.2366 39.1634 7.1345 37.8594 C 6.141 36.6796 5.2872 35.3601 4.6042 33.9165 C 3.9056 32.4728 3.3779 30.9205 3.0363 29.275 C 2.6948 27.6606 2.5241 25.9065 2.5241 24.0902 C 2.5241 21.1253 2.9587 18.4398 3.828 16.0802 C 4.6818 13.7052 5.9547 11.6406 7.6002 9.933 C 9.2301 8.241 11.1705 6.937 13.3748 6.0522 C 15.5636 5.1674 17.9232 4.7172 20.3914 4.7172 C 23.4029 4.7172 26.135 5.3381 28.5101 6.5489 C 30.8851 7.7597 32.7324 9.2966 34.0053 11.0973 C 35.3093 12.9445 35.9768 14.7297 35.9768 16.4217 C 35.9768 17.4773 35.6042 18.4242 34.8591 19.2315 C 34.0984 20.0542 33.1515 20.4733 32.0649 20.4733 C 30.9006 20.4733 29.9848 20.1629 29.3483 19.5574 C 28.805 19.0452 28.2462 18.2224 27.6252 17.0582 C 26.7559 15.4438 25.7469 14.2174 24.6137 13.4413 C 23.5116 12.6806 22.0989 12.2925 20.4535 12.2925 C 17.7679 12.2925 15.7033 13.2705 14.12 15.3041 C 12.5055 17.3687 11.6828 20.3957 11.6828 24.3076 C 11.6828 26.931 12.0554 29.1353 12.7694 30.8429 C 13.468 32.4883 14.4615 33.7302 15.7033 34.5374 C 16.9607 35.3446 18.482 35.7482 20.2051 35.7482 C 22.0679 35.7482 23.6513 35.2825 24.9086 34.3822 C 26.1816 33.4663 27.1595 32.1003 27.8115 30.2996 C 28.1375 29.2905 28.5721 28.4368 29.0844 27.7537 C 29.7209 26.931 30.6988 26.4964 32.0028 26.4964 C 33.1049 26.4964 34.0674 26.8844 34.8591 27.6606 C 35.6663 28.4368 36.0699 29.4147 36.0699 30.5635 C 36.0699 31.8208 35.7594 33.1714 35.154 34.5995 C 34.5486 36.0121 33.6172 37.4092 32.3443 38.7597 C 31.0559 40.1103 29.4104 41.2279 27.4545 42.0662 C 25.4985 42.9045 23.17 43.3546 20.5932 43.3546 L 20.5932 43.3546 Z " stroke-width="1.552328497706668"/>
    <path id="ID0.44759315345436335" fill="#42210B" d="M 52.7264 43.3546 C 50.6152 43.3546 48.6748 42.9976 46.9672 42.3146 C 45.2597 41.616 43.7384 40.6225 42.481 39.3186 C 41.2236 38.0302 40.2612 36.4778 39.6092 34.7237 C 38.9727 32.9851 38.6468 31.0447 38.6468 28.949 C 38.6468 26.8379 38.9727 24.8819 39.6247 23.1278 C 40.2767 21.3426 41.2391 19.8058 42.481 18.5329 C 43.7229 17.26 45.2286 16.2665 46.9828 15.5835 C 48.7214 14.9005 50.6463 14.5589 52.7264 14.5589 C 54.8375 14.5589 56.7935 14.9005 58.5321 15.599 C 60.2862 16.2976 61.8075 17.291 63.0494 18.5795 C 64.2912 19.8679 65.2692 21.4047 65.9056 23.1744 C 66.5421 24.913 66.8681 26.8689 66.8681 28.949 C 66.8681 31.0292 66.5421 32.9696 65.8901 34.7237 C 65.2381 36.5089 64.2602 38.0612 63.0183 39.3496 C 61.7609 40.6381 60.2552 41.6316 58.5166 42.3146 C 56.809 43.0131 54.8531 43.3546 52.7264 43.3546 L 52.7264 43.3546 Z M 52.7264 21.3271 C 51.6087 21.3271 50.6618 21.6065 49.8235 22.1654 C 49.0008 22.7242 48.3488 23.5935 47.8831 24.7112 C 47.4019 25.9065 47.1535 27.3346 47.1535 28.949 C 47.1535 30.5479 47.4019 31.9605 47.8676 33.1403 C 48.3333 34.2735 48.9542 35.1118 49.7925 35.7017 C 50.6152 36.276 51.5777 36.571 52.7109 36.571 C 54.4339 36.571 55.7534 35.95 56.7624 34.6616 C 57.818 33.3266 58.3458 31.4017 58.3458 28.9646 C 58.3458 26.4964 57.818 24.5715 56.7624 23.2365 C 55.7689 21.948 54.4495 21.3271 52.7264 21.3271 L 52.7264 21.3271 Z " stroke-width="1.552328497706668"/>
    <path id="ID0.5127470893785357" fill="#42210B" d="M 74.4279 43.3546 C 73.1861 43.3546 72.146 42.8889 71.3543 41.9886 C 70.5937 41.1193 70.2211 39.9085 70.2211 38.3872 L 70.2211 19.4488 C 70.2211 17.912 70.6092 16.7012 71.3698 15.8629 C 72.1615 15.0091 73.1861 14.5589 74.4279 14.5589 C 75.6543 14.5589 76.6943 14.9936 77.5015 15.8474 C 78.2932 16.6856 78.6968 17.8344 78.6968 19.247 L 78.6968 38.3872 C 78.6968 39.955 78.2932 41.1814 77.5015 42.0352 C 76.7099 42.9045 75.6698 43.3546 74.4279 43.3546 L 74.4279 43.3546 Z M 74.5055 13.3481 C 73.3568 13.3481 72.3633 12.9911 71.5251 12.277 C 70.6558 11.5319 70.2211 10.4763 70.2211 9.1724 C 70.2211 7.9615 70.6558 6.9525 71.5406 6.1608 C 72.3789 5.4002 73.3879 5.0121 74.5055 5.0121 C 75.5767 5.0121 76.5391 5.3692 77.3774 6.0522 C 78.2622 6.7818 78.7124 7.8374 78.7124 9.1724 C 78.7124 10.4608 78.2777 11.5009 77.4239 12.2615 C 76.6167 12.9756 75.6232 13.3481 74.5055 13.3481 L 74.5055 13.3481 Z " stroke-width="1.552328497706668"/>
    <path id="ID0.7391293053515255" fill="#42210B" d="M 104.7604 43.3546 C 103.503 43.3546 102.463 42.9045 101.6558 42.0041 C 100.8951 41.1348 100.507 39.924 100.507 38.4027 L 100.507 27.3657 C 100.507 25.3476 100.2432 23.8108 99.6998 22.7863 C 99.5446 22.4758 99.0479 21.5444 96.9056 21.5444 C 95.9122 21.5444 95.0429 21.8394 94.2201 22.4293 C 93.3974 23.0347 92.8075 23.8419 92.4194 24.8975 C 92.2331 25.4718 91.9848 26.8844 91.9848 30.1133 L 91.9848 38.4027 C 91.9848 39.9861 91.5812 41.2124 90.805 42.0507 C 89.9978 42.92 88.9577 43.3546 87.7159 43.3546 C 86.4895 43.3546 85.465 42.9045 84.6578 42.0041 C 83.8971 41.1348 83.509 39.924 83.509 38.4027 L 83.509 19.2625 C 83.509 17.7723 83.8661 16.608 84.5646 15.8163 C 85.2942 14.9936 86.2877 14.5745 87.5141 14.5745 C 88.2592 14.5745 88.9422 14.7607 89.5631 15.1178 C 90.1841 15.4748 90.6808 16.0181 91.0534 16.7322 C 91.2086 17.0271 91.3173 17.3531 91.4104 17.6946 C 92.2331 16.8874 93.118 16.2355 94.0338 15.7542 C 95.5396 14.9626 97.2937 14.5745 99.2341 14.5745 C 101.128 14.5745 102.8511 14.9936 104.3723 15.8319 C 105.9092 16.6856 107.0734 17.912 107.834 19.4643 C 108.2997 20.3336 108.6257 21.3116 108.7654 22.3672 C 108.9051 23.3451 108.9672 24.6025 108.9672 26.0927 L 108.9672 38.4182 C 108.9672 39.9706 108.5792 41.1969 107.8185 42.0507 C 107.0268 42.9045 106.0023 43.3546 104.7604 43.3546 L 104.7604 43.3546 Z " stroke-width="1.552328497706668"/>
    <path id="ID0.08235474256798625" fill="#42210B" d="M 124.3353 43.3546 C 121.836 43.3546 119.6628 42.9666 117.8621 42.1904 C 116.0148 41.3987 114.6177 40.3742 113.7174 39.1634 C 112.786 37.9215 112.3203 36.6175 112.3203 35.3291 C 112.3203 34.3511 112.6773 33.4974 113.3759 32.7988 C 114.0744 32.1003 114.9592 31.7432 115.9993 31.7432 C 116.9307 31.7432 117.6758 31.9916 118.2346 32.4883 C 118.6848 32.8919 119.1039 33.4663 119.492 34.1649 C 120.0819 35.1894 120.796 35.9656 121.6032 36.4623 C 122.3949 36.9435 123.5281 37.1919 124.9873 37.1919 C 126.1205 37.1919 127.0363 36.9435 127.7194 36.4778 C 128.5887 35.8724 128.5887 35.3757 128.5887 35.2204 C 128.5887 34.1183 128.0919 33.6992 127.7194 33.4663 C 126.9277 32.9851 125.5461 32.5039 123.6367 32.0537 C 121.3082 31.4793 119.3834 30.8584 117.9086 30.2219 C 116.3563 29.5389 115.0834 28.623 114.1365 27.5054 C 113.143 26.3256 112.6307 24.8509 112.6307 23.1433 C 112.6307 21.6376 113.0809 20.1939 113.9813 18.8589 C 114.8661 17.5394 116.17 16.4838 117.8776 15.7077 C 119.5386 14.947 121.5411 14.5745 123.8541 14.5745 C 125.6392 14.5745 127.2692 14.7607 128.7129 15.1333 C 130.172 15.5059 131.4139 16.0337 132.4074 16.6856 C 133.4164 17.3531 134.2236 18.1138 134.7669 18.9365 C 135.3413 19.8213 135.6362 20.7062 135.6362 21.5755 C 135.6362 22.6 135.2792 23.4538 134.5807 24.1213 C 133.8976 24.7733 132.9507 25.0993 131.7709 25.0993 C 130.8706 25.0993 130.0944 24.8354 129.4425 24.3076 C 128.9147 23.8729 128.3248 23.252 127.6573 22.4137 C 127.2226 21.8549 126.7259 21.4202 126.1515 21.0942 C 125.6237 20.7838 124.8476 20.6285 123.8541 20.6285 C 122.8451 20.6285 122.0068 20.8304 121.3703 21.2495 C 120.6873 21.6841 120.6097 22.1033 120.6097 22.3672 C 120.6097 22.7708 120.7649 23.0657 121.122 23.3451 C 121.6032 23.7177 122.3017 24.0437 123.171 24.292 C 124.149 24.587 125.484 24.9285 127.2071 25.3476 C 129.3338 25.8599 131.0879 26.4964 132.454 27.2259 C 133.8821 27.9866 134.9843 28.9025 135.7294 29.9736 C 136.5055 31.0757 136.9092 32.3486 136.9092 33.7457 C 136.9092 35.7482 136.4124 37.5024 135.4189 38.9615 C 134.4254 40.4207 132.9507 41.5229 131.0413 42.268 C 129.163 42.9976 126.9122 43.3546 124.3353 43.3546 L 124.3353 43.3546 Z " stroke-width="1.552328497706668"/>
    <path id="ID0.4352570786140859" fill="#FBB03B" stroke="#42210B" stroke-width="1.2418627981653345" d="M 19.0408 40.25 C 17.1004 40.25 15.3153 40.0637 13.7164 39.6911 C 12.0864 39.3186 10.5962 38.7132 9.2612 37.9215 C 7.9262 37.1143 6.6843 36.0587 5.5822 34.7547 C 4.5887 33.575 3.7349 32.2555 3.0519 30.8118 C 2.3533 29.3682 1.8255 27.8158 1.484 26.1704 C 1.1425 24.5559 0.9717 22.8018 0.9717 20.9856 C 0.9717 18.0206 1.4064 15.3351 2.2757 12.9756 C 3.1295 10.6005 4.4024 8.5359 6.0479 6.8283 C 7.6778 5.1363 9.6182 3.8324 11.8225 2.9475 C 14.0113 2.0627 16.3708 1.6125 18.839 1.6125 C 21.8506 1.6125 24.5827 2.2335 26.9577 3.4443 C 29.3328 4.6551 31.1801 6.1919 32.453 7.9926 C 33.7569 9.8399 34.4244 11.625 34.4244 13.3171 C 34.4244 14.3727 34.0519 15.3196 33.3067 16.1268 C 32.5461 16.9495 31.5992 17.3687 30.5126 17.3687 C 29.3483 17.3687 28.4324 17.0582 27.796 16.4528 C 27.2527 15.9405 26.6938 15.1178 26.0729 13.9535 C 25.2036 12.3391 24.1946 11.1128 23.0614 10.3366 C 21.9592 9.576 20.5466 9.1879 18.9011 9.1879 C 16.2156 9.1879 14.151 10.1659 12.5676 12.1994 C 10.9532 14.264 10.1305 17.291 10.1305 21.2029 C 10.1305 23.8263 10.503 26.0307 11.2171 27.7382 C 11.9157 29.3837 12.9091 30.6255 14.151 31.4328 C 15.4084 32.24 16.9297 32.6436 18.6528 32.6436 C 20.5156 32.6436 22.0989 32.1779 23.3563 31.2775 C 24.6292 30.3616 25.6072 28.9956 26.2592 27.1949 C 26.5852 26.1859 27.0198 25.3321 27.5321 24.6491 C 28.1685 23.8263 29.1465 23.3917 30.4505 23.3917 C 31.5526 23.3917 32.5151 23.7798 33.3067 24.5559 C 34.114 25.3321 34.5176 26.3101 34.5176 27.4588 C 34.5176 28.7162 34.2071 30.0667 33.6017 31.4948 C 32.9963 32.9075 32.0649 34.3046 30.792 35.6551 C 29.5035 37.0056 27.8581 38.1233 25.9021 38.9615 C 23.9462 39.7998 21.6177 40.25 19.0408 40.25 L 19.0408 40.25 Z "/>
    <path id="ID0.4523466816172004" fill="#FBB03B" stroke="#42210B" stroke-width="1.2418627981653345" d="M 51.174 40.25 C 49.0629 40.25 47.1225 39.8929 45.4149 39.2099 C 43.7073 38.5114 42.1861 37.5179 40.9287 36.2139 C 39.6713 34.9255 38.7088 33.3732 38.0569 31.619 C 37.4204 29.8804 37.0944 27.94 37.0944 25.8444 C 37.0944 23.7332 37.4204 21.7773 38.0724 20.0231 C 38.7244 18.238 39.6868 16.7012 40.9287 15.4282 C 42.1705 14.1553 43.6763 13.1618 45.4304 12.4788 C 47.169 11.7958 49.0939 11.4543 51.174 11.4543 C 53.2852 11.4543 55.2411 11.7958 56.9798 12.4943 C 58.7339 13.1929 60.2552 14.1864 61.497 15.4748 C 62.7389 16.7633 63.7169 18.3001 64.3533 20.0697 C 64.9898 21.8083 65.3158 23.7643 65.3158 25.8444 C 65.3158 27.9245 64.9898 29.8649 64.3378 31.619 C 63.6858 33.4042 62.7078 34.9565 61.466 36.245 C 60.2086 37.5334 58.7028 38.5269 56.9642 39.2099 C 55.2567 39.9085 53.3007 40.25 51.174 40.25 L 51.174 40.25 Z M 51.174 18.2224 C 50.0564 18.2224 49.1095 18.5019 48.2712 19.0607 C 47.4485 19.6195 46.7965 20.4888 46.3308 21.6065 C 45.8496 22.8018 45.6012 24.23 45.6012 25.8444 C 45.6012 27.4433 45.8496 28.8559 46.3153 30.0357 C 46.781 31.1689 47.4019 32.0071 48.2401 32.597 C 49.0629 33.1714 50.0253 33.4663 51.1585 33.4663 C 52.8816 33.4663 54.2011 32.8454 55.2101 31.5569 C 56.2657 30.2219 56.7935 28.2971 56.7935 25.8599 C 56.7935 23.3917 56.2657 21.4668 55.2101 20.1318 C 54.2166 18.8434 52.8971 18.2224 51.174 18.2224 L 51.174 18.2224 Z "/>
    <path id="ID0.9621078763157129" fill="#FBB03B" stroke="#42210B" stroke-width="1.2418627981653345" d="M 72.8756 40.25 C 71.6337 40.25 70.5937 39.7843 69.802 38.8839 C 69.0413 38.0146 68.6688 36.8038 68.6688 35.2825 L 68.6688 16.3441 C 68.6688 14.8073 69.0569 13.5965 69.8175 12.7582 C 70.6092 11.9045 71.6337 11.4543 72.8756 11.4543 C 74.1019 11.4543 75.142 11.8889 75.9492 12.7427 C 76.7409 13.581 77.1445 14.7297 77.1445 16.1423 L 77.1445 35.2825 C 77.1445 36.8504 76.7409 38.0767 75.9492 38.9305 C 75.1575 39.7998 74.1175 40.25 72.8756 40.25 L 72.8756 40.25 Z M 72.9532 10.2435 C 71.8045 10.2435 70.811 9.8864 69.9727 9.1724 C 69.1034 8.4272 68.6688 7.3717 68.6688 6.0677 C 68.6688 4.8569 69.1034 3.8479 69.9883 3.0562 C 70.8265 2.2955 71.8355 1.9075 72.9532 1.9075 C 74.0243 1.9075 74.9868 2.2645 75.825 2.9475 C 76.7099 3.6771 77.16 4.7327 77.16 6.0677 C 77.16 7.3561 76.7254 8.3962 75.8716 9.1568 C 75.0644 9.8709 74.0709 10.2435 72.9532 10.2435 L 72.9532 10.2435 Z "/>
    <path id="ID0.6794335260055959" fill="#FBB03B" stroke="#42210B" stroke-width="1.2418627981653345" d="M 103.2081 40.25 C 101.9507 40.25 100.9107 39.7998 100.1034 38.8995 C 99.3428 38.0302 98.9547 36.8193 98.9547 35.2981 L 98.9547 24.261 C 98.9547 22.243 98.6908 20.7062 98.1475 19.6816 C 97.9923 19.3712 97.4955 18.4398 95.3533 18.4398 C 94.3598 18.4398 93.4905 18.7347 92.6678 19.3246 C 91.8451 19.93 91.2552 20.7372 90.8671 21.7928 C 90.6808 22.3672 90.4324 23.7798 90.4324 27.0086 L 90.4324 35.2981 C 90.4324 36.8814 90.0288 38.1078 89.2527 38.946 C 88.4455 39.8153 87.4054 40.25 86.1635 40.25 C 84.9372 40.25 83.9127 39.7998 83.1054 38.8995 C 82.3448 38.0302 81.9567 36.8193 81.9567 35.2981 L 81.9567 16.1578 C 81.9567 14.6676 82.3138 13.5034 83.0123 12.7117 C 83.7419 11.8889 84.7354 11.4698 85.9617 11.4698 C 86.7068 11.4698 87.3899 11.6561 88.0108 12.0131 C 88.6317 12.3702 89.1285 12.9135 89.501 13.6275 C 89.6563 13.9225 89.7649 14.2485 89.8581 14.59 C 90.6808 13.7828 91.5656 13.1308 92.4815 12.6496 C 93.9873 11.8579 95.7414 11.4698 97.6818 11.4698 C 99.5756 11.4698 101.2987 11.8889 102.82 12.7272 C 104.3413 13.5655 105.5055 14.7918 106.2662 16.3441 C 106.7319 17.2134 107.0579 18.1914 107.1976 19.247 C 107.3373 20.2249 107.3994 21.4823 107.3994 22.9726 L 107.3994 35.2981 C 107.3994 36.8504 107.0113 38.0767 106.2507 38.9305 C 105.4745 39.7998 104.45 40.25 103.2081 40.25 L 103.2081 40.25 Z "/>
    <path id="ID0.9976798924617469" fill="#FBB03B" stroke="#42210B" stroke-width="1.2418627981653345" d="M 122.783 40.25 C 120.2837 40.25 118.1105 39.8619 116.3098 39.0857 C 114.4625 38.294 113.0654 37.2695 112.165 36.0587 C 111.2336 34.8168 110.7679 33.5129 110.7679 32.2244 C 110.7679 31.2465 111.125 30.3927 111.8235 29.6941 C 112.5221 28.9956 113.4069 28.6386 114.447 28.6386 C 115.3784 28.6386 116.1235 28.8869 116.6823 29.3837 C 117.1325 29.7873 117.5516 30.3616 117.9397 31.0602 C 118.5296 32.0847 119.2437 32.8609 120.0509 33.3576 C 120.8426 33.8389 121.9758 34.0872 123.4349 34.0872 C 124.5681 34.0872 125.484 33.8389 126.167 33.3732 C 127.0363 32.7678 127.0363 32.271 127.0363 32.1158 C 127.0363 31.0136 126.5396 30.5945 126.167 30.3616 C 125.3753 29.8804 123.9938 29.3992 122.0844 28.949 C 119.7559 28.3747 117.831 27.7537 116.3563 27.1173 C 114.804 26.4343 113.5311 25.5184 112.5842 24.4007 C 111.5907 23.2209 111.0784 21.7462 111.0784 20.0387 C 111.0784 18.5329 111.5286 17.0892 112.4289 15.7542 C 113.3138 14.4348 114.6177 13.3792 116.3253 12.603 C 117.9863 11.8424 119.9888 11.4698 122.3017 11.4698 C 124.0869 11.4698 125.7169 11.6561 127.1605 12.0286 C 128.6197 12.4012 129.8616 12.929 130.8551 13.581 C 131.8641 14.2485 132.6713 15.0091 133.2146 15.8319 C 133.789 16.7167 134.0839 17.6015 134.0839 18.4708 C 134.0839 19.4953 133.7269 20.3491 133.0283 21.0166 C 132.3453 21.6686 131.3984 21.9946 130.2186 21.9946 C 129.3183 21.9946 128.5421 21.7307 127.8901 21.2029 C 127.3623 20.7683 126.7724 20.1473 126.1049 19.3091 C 125.6703 18.7502 125.1735 18.3156 124.5992 17.9896 C 124.0714 17.6791 123.2952 17.5239 122.3017 17.5239 C 121.2927 17.5239 120.4545 17.7257 119.818 18.1448 C 119.135 18.5795 119.0574 18.9986 119.0574 19.2625 C 119.0574 19.6661 119.2126 19.961 119.5696 20.2405 C 120.0509 20.613 120.7494 20.939 121.6187 21.1874 C 122.5967 21.4823 123.9317 21.8238 125.6548 22.243 C 127.7815 22.7552 129.5356 23.3917 130.9016 24.1213 C 132.3298 24.8819 133.4319 25.7978 134.1771 26.8689 C 134.9532 27.9711 135.3568 29.244 135.3568 30.6411 C 135.3568 32.6436 134.8601 34.3977 133.8666 35.8569 C 132.8731 37.3161 131.3984 38.4182 129.489 39.1634 C 127.6107 39.8929 125.3598 40.25 122.783 40.25 L 122.783 40.25 Z "/>
  </g>
</svg>