<svg version="1.1" xmlns="http://www.w3.org/2000/svg" xmlns:xlink="http://www.w3.org/1999/xlink" width="190.33334" height="118.33334" viewBox="0,0,190.33334,118.33334"><g transform="translate(-144.83334,-120.83333)"><g data-paper-data="{&quot;isPaintingLayer&quot;:true}" fill-rule="nonzero" stroke="none" stroke-width="0" stroke-linejoin="miter" stroke-miterlimit="10" stroke-dasharray="" stroke-dashoffset="0" style="mix-blend-mode: normal"><path d="M335.16667,180h-190.33333" fill="none" stroke-linecap="round"></path><path d="M240,239.16666v-118.33333" fill="none" stroke-linecap="round"></path><path d="M144.83335,180.00001h190.33333" fill="none" stroke-linecap="round"></path><path d="M240.00001,239.16667v-118.33333" fill="none" stroke-linecap="round"></path><path d="M276.69443,184.97801c0,3.31371 -17.38628,6 -38.83333,6c-21.44706,0 -38.83333,-2.68629 -38.83333,-6c0,-3.31371 17.38628,-6 38.83333,-6c21.44706,0 38.83333,2.68629 38.83333,6z" fill="#ffffff" stroke-linecap="butt"></path><path d="M233.02776,190.31134c0,-2.39323 8.95431,-4.33333 20,-4.33333c11.04569,0 20,1.9401 20,4.33333c0,2.39323 -8.95431,4.33333 -20,4.33333c-11.04569,0 -20,-1.9401 -20,-4.33333z" fill="#ffffff" stroke-linecap="butt"></path><path d="M247.36109,179.81134c0,2.11709 -8.35735,3.83333 -18.66667,3.83333c-10.30932,0 -18.66667,-1.71624 -18.66667,-3.83333c0,-2.11709 8.35735,-3.83333 18.66667,-3.83333c10.30932,0 18.66667,1.71624 18.66667,3.83333z" fill="#ffffff" stroke-linecap="butt"></path><path d="M239.02776,177.47801c0,-2.66938 4.10406,-4.83333 9.16667,-4.83333c5.06261,0 9.16667,2.16396 9.16667,4.83333c0,2.66938 -4.10406,4.83333 -9.16667,4.83333c-5.06261,0 -9.16667,-2.16396 -9.16667,-4.83333z" fill="#ffffff" stroke-linecap="butt"></path><path d="M243.69443,175.47801c0,2.66938 -3.65634,4.83333 -8.16667,4.83333c-4.51033,0 -8.16667,-2.16396 -8.16667,-4.83333c0,-2.66938 3.65634,-4.83333 8.16667,-4.83333c4.51033,0 8.16667,2.16396 8.16667,4.83333z" fill="#ffffff" stroke-linecap="butt"></path><path d="M252.36109,179.31134c0,-1.10457 1.41776,-2 3.16667,-2c1.7489,0 3.16667,0.89543 3.16667,2c0,1.10457 -1.41776,2 -3.16667,2c-1.7489,0 -3.16667,-0.89543 -3.16667,-2z" fill="#ffffff" stroke-linecap="butt"></path></g></g></svg>