<svg version="1.1" xmlns="http://www.w3.org/2000/svg" xmlns:xlink="http://www.w3.org/1999/xlink" width="262.05672" height="230.59947" viewBox="0,0,262.05672,230.59947"><defs><linearGradient x1="238.80363" y1="91.70025" x2="238.80363" y2="322.29973" gradientUnits="userSpaceOnUse" id="color-1"><stop offset="0" stop-color="#0c556e"/><stop offset="1" stop-color="#002734"/></linearGradient><linearGradient x1="200.91338" y1="260.50742" x2="212.95752" y2="260.50742" gradientUnits="userSpaceOnUse" id="color-2"><stop offset="0" stop-color="#aeff66"/><stop offset="1" stop-color="#66ffef"/></linearGradient><linearGradient x1="179.83329" y1="273.73808" x2="207.26088" y2="273.73808" gradientUnits="userSpaceOnUse" id="color-3"><stop offset="0" stop-color="#fff966"/><stop offset="1" stop-color="#aeff66"/></linearGradient><linearGradient x1="156.59749" y1="281.32729" x2="186.15732" y2="281.32729" gradientUnits="userSpaceOnUse" id="color-4"><stop offset="0" stop-color="#ffcc66"/><stop offset="1" stop-color="#fff966"/></linearGradient><linearGradient x1="132.70202" y1="282.83044" x2="162.23996" y2="282.83044" gradientUnits="userSpaceOnUse" id="color-5"><stop offset="0" stop-color="#ff0000"/><stop offset="1" stop-color="#ffd666"/></linearGradient><linearGradient x1="225.55718" y1="213.61213" x2="225.55718" y2="256.76228" gradientUnits="userSpaceOnUse" id="color-6"><stop offset="0" stop-color="#66afff"/><stop offset="1" stop-color="#6cffe6"/></linearGradient></defs><g transform="translate(-110.97164,-91.70027)"><g data-paper-data="{&quot;isPaintingLayer&quot;:true}" fill-rule="nonzero" stroke-linecap="butt" stroke-linejoin="miter" stroke-miterlimit="10" stroke-dasharray="" stroke-dashoffset="0" style="mix-blend-mode: normal"><path d="M345.23016,313.9993c-21.24172,13.02357 -75.65631,5.00909 -103.64667,5.00909c-23.67976,0 -96.28046,8.23156 -115.41981,-1.34087c-16.71922,-8.36201 -14.95113,-87.77664 -14.95113,-111.75025c0,-35.23668 -4.42899,-80.41751 24.69345,-101.15817c22.49826,-16.02301 74.29638,-11.93288 105.67756,-11.93288c33.74578,0 90.79022,-6.50267 113.94122,11.7461c26.24529,20.68786 23.10557,188.94896 -10.2946,209.42703z" fill="url(#color-1)" stroke="none" stroke-width="2"/><g stroke="none" stroke-width="0.5"><path d="M204.45058,270.33462c-3.51374,0 -3.51374,-3.77285 -3.51374,-3.77285v-0.75532c0,-3.24672 -0.3591,-5.91715 1.7326,-8.71041c0.32855,-0.43875 0.9813,-0.42651 1.4069,-0.75532c0.07393,-0.05712 -0.0899,-0.19496 -0.05823,-0.28665c0.38605,-1.1175 0.59102,-2.37283 1.29525,-3.29415c0.61959,-0.81058 1.65999,-1.10526 2.48998,-1.65789c0,0 3.14279,-1.68727 4.71418,1.68727c1.57139,3.37454 -1.5714,5.06181 -1.5714,5.06181c-0.10794,-0.04908 -0.27763,-0.26292 -0.32383,-0.14724c-0.15214,0.38099 0.03972,0.85646 -0.11165,1.2378c-0.384,0.96742 -0.81662,1.9466 -1.46514,2.73465c-0.2711,0.32943 -0.67668,0.48624 -1.07566,0.63183c0.30322,0.74549 -0.00554,2.914 -0.00554,3.49829v0.75532c0,0 0,3.77285 -3.51374,3.77285z" fill="url(#color-2)"/><path d="M179.83329,279.4023c0,-3.77285 3.51374,-3.77285 3.51374,-3.77285h0.70345c0.66957,0 1.35971,0.28679 2.00651,0.10093c0.75366,-0.21657 1.3519,-0.83863 2.04971,-1.21326c1.15285,-0.61893 2.69938,-1.14047 3.73758,-1.95213c0.74923,-0.58575 1.28342,-1.50019 2.11678,-1.93561c0.58507,-0.3057 1.31042,-0.02843 1.94426,-0.18626c0.78544,-0.19558 2.31623,-1.10424 2.97348,-1.65475c0.52294,-0.438 0.83547,-1.14919 1.40691,-1.51065c0.01308,-0.00827 0.02724,-0.01439 0.04222,-0.01854c0.22096,-1.10903 0.95835,-2.95959 3.41921,-2.95959c3.51374,0 3.51374,3.77285 3.51374,3.77285c-0.17493,1.16472 0.02488,2.47262 -0.52477,3.49416c-0.48314,0.89791 -1.59844,1.1699 -2.34135,1.83251c-1.98486,1.77035 -4.27361,3.64659 -6.87484,4.38785c-0.28567,0.08141 -0.60891,-0.3359 -0.86955,-0.18626c-0.361,0.20726 -0.37358,0.81627 -0.69703,1.08569c-0.22912,0.19085 -2.81761,1.56716 -3.29693,1.82449c-1.5193,0.81567 -3.35232,2.13389 -4.98481,2.56336c-0.46483,0.12229 -2.88346,0.10093 -3.6211,0.10093h-0.70345c0,0 -3.51374,0 -3.51374,-3.77285z" fill="url(#color-3)"/><path d="M158.56173,286.55347c-3.14279,-1.68727 -1.57139,-5.06181 -1.57139,-5.06181l1.36165,-2.49119c1.02806,-0.58648 1.99056,-1.331 3.0842,-1.75944c0.44056,-0.1726 0.95194,0.12213 1.40691,0c0.50867,-0.13654 0.89485,-0.63425 1.4069,-0.75533c1.95589,-0.46249 4.42566,-0.10093 6.43491,-0.10093c1.40691,0 2.8138,0 4.22071,0c0.66957,0 1.36585,0.30987 2.00651,0.10093c0.50169,-0.16362 0.89127,-0.65323 1.4069,-0.75532c0.59163,-0.11714 3.29153,-0.10093 4.32455,-0.10093c0,0 3.51374,0 3.51374,3.77285c0,3.77285 -3.51374,3.77285 -3.51374,3.77285c-0.90387,0 -1.82813,-0.31388 -2.70997,-0.10093c-0.51154,0.12353 -0.89485,0.63425 -1.40691,0.75532c-2.8208,0.66701 -6.35855,0.10093 -9.24872,0.10093c-0.87044,0 -2.61119,-0.36256 -3.41342,-0.10093c-0.50169,0.16362 -0.89824,0.61878 -1.40691,0.75533c-0.3749,0.10064 -0.77523,0.10372 -1.16162,0.04541l-0.02014,0.23591c0,0 -1.57139,3.37454 -4.71418,1.68727z" fill="url(#color-4)"/><path d="M136.21577,277.89542c1.98338,0 2.84721,1.2021 3.22345,2.24922c1.26585,-0.04054 2.54749,0.01676 3.81107,0.01676c5.15865,0 10.31729,0 15.47594,0c0,0 3.51374,0 3.51374,3.77285c0,3.77285 -3.51374,3.77285 -3.51374,3.77285c-5.15865,0 -10.31729,0 -15.47594,0c-1.4048,0 -2.81643,0.03914 -4.22071,0c-0.73848,-0.02058 -1.5303,0.19898 -2.2142,-0.10093c-1.31133,-0.57505 -2.39238,-1.62916 -3.58858,-2.44375l-0.52477,-3.49416c0,0 0,-3.77285 3.51374,-3.77285z" fill="url(#color-5)"/></g><path d="M243.51466,214.79783c2.48459,2.66781 0,5.33561 0,5.33561l-0.70345,0.75532c-1.81139,1.9167 -2.30331,2.69833 -4.98362,3.96446c-0.33158,0.15663 -0.72004,-0.16412 -1.08048,-0.1253c-0.07854,0.00846 0.11981,0.14927 0.09894,0.23101c-0.08911,0.34902 -0.26575,0.66541 -0.41116,0.9919c-0.58469,1.31276 -1.79655,3.92328 -2.70241,4.54341c-0.67291,0.46066 -1.50543,0.54941 -2.3317,0.56347c-0.26323,0.86602 -0.91079,1.61711 -1.29695,2.44637c-0.23966,0.51467 -1.52145,3.29403 -1.69919,3.54005c-0.25091,0.34731 -0.72469,0.43441 -1.01113,0.74843c-0.06405,0.07022 0.25628,-0.03071 0.26747,0.06684c0.04528,0.39496 -0.01772,4.30917 -0.094,4.64345c-0.1751,0.76737 -1.90475,4.35272 -2.34206,4.82229c-0.63408,0.68083 -1.51805,1.03146 -2.3201,1.46206c-0.14781,0.07936 -0.38859,-0.08832 -0.49371,0.04859c-0.33352,0.4344 -0.31675,1.13045 -0.70345,1.51065c-0.66135,0.65023 -1.51805,1.03146 -2.3201,1.46205c-0.14781,0.07936 -0.38858,-0.08832 -0.4937,0.04859c-0.33352,0.4344 -0.31676,1.13045 -0.70346,1.51065c-0.66135,0.65023 -1.525,1.01685 -2.3201,1.46205c-0.70406,0.39423 -1.4052,0.82739 -2.171,1.05271c-0.67306,0.19803 -1.46819,0.04366 -2.04971,0.45794c0,0 -3.14278,1.68727 -4.71418,-1.68727c-1.57139,-3.37454 1.5714,-5.06181 1.5714,-5.06181c0.72367,-0.35091 1.40519,-0.82739 2.171,-1.05271c0.43331,-0.12749 2.1203,0.04454 2.54341,-0.50653c0.33352,-0.4344 0.31675,-1.13046 0.70345,-1.51065c0.66135,-0.65023 1.51805,-1.03146 2.3201,-1.46206c0.14781,-0.07936 0.38858,0.08832 0.4937,-0.04859c0.33352,-0.4344 0.31675,-1.13045 0.70345,-1.51065c0.66135,-0.65023 1.51805,-1.03146 2.3201,-1.46205c0.14781,-0.07936 0.37685,0.07688 0.49371,-0.04859c0.32025,-0.34387 0.39322,-1.38552 0.37776,-1.86414c-0.03205,-0.99204 -0.02608,-4.4792 0.26747,-5.22044c0.36267,-0.91577 1.25717,-1.46839 1.80268,-2.27287c0.50689,-0.74752 0.72949,-1.6755 1.11461,-2.50255c0.8087,-1.73666 1.94215,-5.05203 3.40586,-6.05406c0.68903,-0.4717 1.54539,-0.55344 2.39106,-0.56436c0.15511,-0.31889 0.38133,-0.61645 0.53415,-0.93484c0.32623,-0.67965 0.52812,-1.45276 0.99574,-2.0294c0.85445,-1.05365 1.78938,-2.08533 2.91275,-2.79028c0.49996,-0.31374 1.18395,0.0713 1.73333,-0.12531c0.33772,-0.12086 1.99366,-2.0154 2.0509,-2.07814l0.70345,-0.75532c0,0 2.48459,-2.66781 4.96918,0z" fill="url(#color-6)" stroke="none" stroke-width="0.5"/><g stroke="#000000" stroke-width="3.99013"><path d="M265.37777,188.31109c0,0 -0.33872,-0.78475 0,-1.35823c0.33872,-0.57347 3.31088,-5.56319 6.187,-9.12074c2.87658,-3.55755 6.45404,-7.24387 10.66022,-11.71746c4.20618,-4.47359 6.25633,-6.62965 10.35664,-10.63591c4.1003,-4.00626 6.04691,-5.77347 10.00292,-9.25757c3.95554,-3.4836 6.13593,-4.83528 9.69652,-8.091c3.56012,-3.25572 4.50227,-4.6557 7.46834,-7.60506c2.9656,-2.94987 5.43833,-5.283 7.70446,-7.48433c3.42004,-3.19435 5.24906,-4.58628 5.99679,-5.50836c0.44507,-0.54882 0.1279,-0.96484 0.42165,-1.38338c0.29,-0.4135 0.56969,-0.08149 0.86672,-0.45274c0.29703,-0.37125 0.42446,-2.24057 1.71002,-2.76676c1.28556,-0.52619 4.99935,-0.77922 7.26173,-0.90548c0.48115,-0.02666 0.69619,0.09155 0.86672,0.45274c0.17053,0.36119 0.14898,0.83003 0,1.38338c-0.14898,0.55335 -0.33919,0.97792 -0.86672,1.83612c-0.52753,0.8582 -2.79881,4.86597 -5.08321,7.84753c-2.2844,2.98156 -4.27552,4.83227 -7.30858,8.32542c-3.03306,3.49316 -6.51729,7.3802 -10.44752,12.12342c-3.93024,4.74323 -5.26874,6.8686 -8.8312,11.14248c-3.56247,4.27388 -5.69039,6.8198 -9.32313,10.63944c-3.61728,3.80354 -4.5182,4.46605 -7.61311,7.16841c-3.0949,2.70237 -5.16754,4.03946 -8.31585,6.74082c-3.14831,2.70136 -4.35189,4.01683 -7.30858,6.66537c-2.9567,2.64854 -5.00825,5.92991 -8.52668,7.52055c-2.79366,1.26265 -4.36454,0.33 -5.99679,-0.95579c-1.54886,-1.21989 -0.2975,-2.89403 -0.42165,-4.09983" fill="#a85b00"/><path d="M269.71138,194.72494c-0.50973,3.10682 -1.36895,9.20374 -1.73345,10.56398c-0.36449,1.36024 -0.88171,1.12179 -1.71002,2.28886c-1.34693,1.89749 -3.3835,4.99928 -3.84169,5.53351c-0.45819,0.53424 -0.97963,0.20726 -1.28837,0.45274c-0.30874,0.24549 -0.04498,0.60114 -0.42165,0.90548c-0.3912,0.31642 -0.98104,0.22889 -1.28837,0.47789c-0.30734,0.24901 -0.15742,0.62177 -0.42165,0.90548c-0.26423,0.28372 -0.60811,0.20021 -0.86672,0.47789c-0.25861,0.27768 -0.05013,0.5941 -0.42165,0.90548c-1.02461,0.8587 -2.55613,1.88542 -3.42004,2.31401c-0.86391,0.4286 -1.05693,0.45274 -2.15509,0.45274c-3.18111,0 -8.70846,-0.32195 -9.83848,-0.45274c-1.13002,-0.13079 -1.7297,-0.74501 -2.13167,-0.93064c-0.40197,-0.18562 -0.39776,-0.35414 -0.86672,-0.45274c-0.46897,-0.0986 -1.53761,0.63786 -1.28837,0c1.03772,-2.65508 3.25466,-4.98922 4.70841,-8.75301c1.45375,-3.76379 0.61654,-6.91337 2.57674,-10.11124c1.9602,-3.19787 3.61962,-4.43536 7.27907,-5.96764c3.65991,-1.53178 10.26622,-1.37684 10.26622,-1.37684" fill="#f2e7be"/></g></g></g></svg>