<svg xmlns="http://www.w3.org/2000/svg" xmlns:xlink="http://www.w3.org/1999/xlink" version="1.1" width="80" height="80.75" viewBox="-1 -0.5 80 80.75">
  <!-- Exported by Scratch - http://scratch.mit.edu/ -->
  <g id="ID0.41148947831243277">
    <path id="ID0.14449769724160433_22_" fill="#ADADAD" stroke="#000000" stroke-width="2" d="M 63.51 43.99 L 63.7 55.58 C 63.7 59.99 60.22 63.67 55.89 63.67 L 47.6 64.14 L 22.29 64.14 C 17.97 64.14 15.5 60.32 15.5 55.92 L 15.21 47.1 L 15.5 24.01 C 15.79 19.69 19.23 15.82 23.57 15.82 L 40.48 16.23 L 55.67 15.69 C 59.99 15.69 63.7 19.48 63.7 23.89 L 63.51 43.99 Z "/>
    <path id="ID0.14449769724160433_21_" fill="#DEDEDE" d="M 59.68 42.56 L 59.85 52.74 C 59.85 56.61 56.79 59.85 52.98 59.85 L 45.69 60.27 L 23.44 60.27 C 19.65 60.27 17.47 56.92 17.47 53.04 L 17.21 45.29 L 17.47 25 C 17.72 21.2 20.75 17.8 24.57 17.8 L 39.44 18.16 L 52.8 17.68 C 56.59 17.68 59.86 21.01 59.86 24.89 L 59.68 42.56 Z " stroke-width="1"/>
    <path id="ID0.14449769724160433_20_" fill="#F0F0F0" d="M 53.11 39.22 L 31.83 51.13 L 27.98 51.13 C 24.62 51.13 21.87 48.93 21.87 46.2 L 21.64 40.92 L 21.87 26.66 C 21.87 23.94 24.6 21.73 27.98 21.73 L 42.24 22.2 L 47 21.73 C 50.36 21.73 53.11 23.93 53.11 26.66 L 53.11 39.22 Z " stroke-width="1"/>
    <path id="ID0.033297700341790915_8_" fill="none" d="M 0 0.5 L 78 0.5 L 78 79.25 L 0 79.25 L 0 0.5 Z " stroke-width="1"/>
    <path id="ID0.5012160879559815" fill="#DEDEDE" d="M 27.01 24.73 C 27.94 24.73 28.782 25.108 29.392 25.718 C 30.002 26.328 30.38 27.17 30.38 28.1 C 30.38 29.03 30.002 29.872 29.392 30.482 C 28.782 31.092 27.94 31.47 27.01 31.47 C 26.08 31.47 25.238 31.092 24.628 30.482 C 24.018 29.872 23.64 29.03 23.64 28.1 C 23.64 27.17 24.018 26.328 24.628 25.718 C 25.238 25.108 26.08 24.73 27.01 24.73 Z " stroke-width="1"/>
    <path id="ID0.14869580883532763" fill="#DEDEDE" d="M 49.75 24.73 C 50.68 24.73 51.522 25.108 52.132 25.718 C 52.742 26.328 53.12 27.17 53.12 28.1 C 53.12 29.03 52.742 29.872 52.132 30.482 C 51.522 31.092 50.68 31.47 49.75 31.47 C 48.82 31.47 47.978 31.092 47.368 30.482 C 46.758 29.872 46.38 29.03 46.38 28.1 C 46.38 27.17 46.758 26.328 47.368 25.718 C 47.978 25.108 48.82 24.73 49.75 24.73 Z " stroke-width="1"/>
    <path id="ID0.7674991837702692" fill="#D4D4D4" d="M 27.01 47.8 C 27.94 47.8 28.782 48.178 29.392 48.788 C 30.002 49.398 30.38 50.24 30.38 51.17 C 30.38 52.1 30.002 52.942 29.392 53.552 C 28.782 54.162 27.94 54.54 27.01 54.54 C 26.08 54.54 25.238 54.162 24.628 53.552 C 24.018 52.942 23.64 52.1 23.64 51.17 C 23.64 50.24 24.018 49.398 24.628 48.788 C 25.238 48.178 26.08 47.8 27.01 47.8 Z " stroke-width="1"/>
    <path id="ID0.08038173196837306" fill="#D4D4D4" d="M 49.75 47.8 C 50.68 47.8 51.522 48.178 52.132 48.788 C 52.742 49.398 53.12 50.24 53.12 51.17 C 53.12 52.1 52.742 52.942 52.132 53.552 C 51.522 54.162 50.68 54.54 49.75 54.54 C 48.82 54.54 47.978 54.162 47.368 53.552 C 46.758 52.942 46.38 52.1 46.38 51.17 C 46.38 50.24 46.758 49.398 47.368 48.788 C 47.978 48.178 48.82 47.8 49.75 47.8 Z " stroke-width="1"/>
  </g>
</svg>