<svg version="1.1" width="152" height="176" viewBox="-1 -1 152 176" xmlns="http://www.w3.org/2000/svg" xmlns:xlink="http://www.w3.org/1999/xlink">
  <!-- Exported by Scratch - http://scratch.mit.edu/ -->
  <g id="ID0.2442258303053677">
    <path id="ID0.6671341862529516" fill="none" stroke="#000000" stroke-width="2" stroke-linecap="round" d="M 253 164 L 254.250 263.750 L 252.250 267.500 L 249.750 268.250 L 247.250 265.250 L 246 245.500 " transform="matrix(1, 0, 0, 1, -172.3, -94.1)"/>
    <path id="ID0.8884457643143833" fill="#CCCC00" stroke="#000000" stroke-width="2" stroke-linecap="round" d="M 242 96 C 263.468 98.314 285.764 109.482 299 126 C 309.954 140.744 316.094 170.978 307 180 C 298.964 187.952 282.580 164.736 264 162 C 259.742 161.525 253.974 172.688 243 171 C 234.504 169.715 230.253 155.173 222 156 C 201.630 158.518 174.948 189.373 166 180 C 156.357 169.873 171.053 132.587 186 116 C 198.785 101.814 222.318 93.884 242 96 Z " transform="matrix(1, 0, 0, 1, -161.05, -94.1)"/>
  </g>
</svg>