<svg xmlns="http://www.w3.org/2000/svg" xmlns:xlink="http://www.w3.org/1999/xlink" version="1.1" width="40.71609878540039" height="86.81500244140625" viewBox="0.09119999408721924 0.9220000505447388 40.71609878540039 86.81500244140625">
  <!-- Exported by Scratch - http://scratch.mit.edu/ -->
  <g id="ID0.37168458150699735">
    <path id="ID0.0213544606231153" fill="#4D4D4D" stroke="#333333" d="M 16.4531 31.426 L 17.1573 82.906 C 14.6562 87.814 3.0923 87.814 0.5912 82.906 L 1.2967 31.422 L 8.8746 1.422 L 16.4531 31.426 Z " stroke-width="0.8521372866723468"/>
    <path id="ID0.893112882040441" fill="#808080" d="M 12.6205 31.422 L 13.1766 83.433 C 10.6009 85.55 3.0513 84.656 1.9362 82.181 L 2.4319 31.422 L 8.4307 6.415 L 12.6205 31.422 Z " stroke-width="0.8521372866723468"/>
    <path id="ID0.6368621685542166" fill="#B3B3B3" d="M 9.8443 31.423 L 10.1604 83.383 C 7.2787 83.948 4.5671 83.736 2.9531 81.82 L 3.3364 31.423 L 7.8893 11.153 L 9.8443 31.423 Z " stroke-width="0.8521372866723468"/>
    <path id="ID0.0909316218458116" fill="#FFFFFF" d="M 8.3493 31.422 L 8.5175 82.268 C 6.8301 82.676 5.243 82.523 4.2981 81.14 L 4.4851 31.422 L 7.1879 16.596 L 8.3493 31.422 Z " stroke-width="0.8521372866723468"/>
  </g>
  <g id="ID0.37168458150699735">
    <path id="ID0.0213544606231153" fill="#4D4D4D" stroke="#333333" d="M 39.6031 32.076 L 40.3073 83.556 C 37.8062 88.464 26.2423 88.464 23.7412 83.556 L 24.4467 32.072 L 32.0246 2.072 L 39.6031 32.076 Z " stroke-width="0.8521372866723468"/>
    <path id="ID0.893112882040441" fill="#808080" d="M 35.7705 32.072 L 36.3266 84.083 C 33.7509 86.2 26.2013 85.306 25.0862 82.831 L 25.5819 32.072 L 31.5807 7.065 L 35.7705 32.072 Z " stroke-width="0.8521372866723468"/>
    <path id="ID0.6368621685542166" fill="#B3B3B3" d="M 32.9943 32.073 L 33.3104 84.033 C 30.4287 84.598 27.7171 84.386 26.1031 82.47 L 26.4864 32.073 L 31.0393 11.803 L 32.9943 32.073 Z " stroke-width="0.8521372866723468"/>
    <path id="ID0.0909316218458116" fill="#FFFFFF" d="M 31.4993 32.072 L 31.6675 82.918 C 29.9801 83.326 28.393 83.173 27.4481 81.79 L 27.6351 32.072 L 30.3379 17.246 L 31.4993 32.072 Z " stroke-width="0.8521372866723468"/>
  </g>
</svg>