<svg version="1.1" xmlns="http://www.w3.org/2000/svg" xmlns:xlink="http://www.w3.org/1999/xlink" width="591.59159" height="445.58559" viewBox="0,0,591.59159,445.58559"><g transform="translate(55.7958,42.79279)"><g data-paper-data="{&quot;isPaintingLayer&quot;:true}" fill-rule="nonzero" stroke="none" stroke-linecap="butt" stroke-linejoin="miter" stroke-miterlimit="10" stroke-dasharray="" stroke-dashoffset="0" style="mix-blend-mode: normal"><path d="M-55.7958,402.79279v-445.58559h591.59159v445.58559z" fill="#000000" stroke-width="0"/><g fill="#ffffff" stroke-width="0.5"><path d="M41.18437,180.98303c0.13679,0.38115 0.15189,0.89964 -0.3668,1.41792c-1.00763,1.00683 -2.01445,-0.0008 -2.01445,-0.0008l-0.5594,-2.28855c1.64779,-2.19146 4.367,-4.22787 4.86706,-7.10989c0.41367,-2.38418 -0.25446,-4.9601 -0.44798,-7.30838c-0.06719,-0.81537 0.14583,-1.64701 0.01352,-2.45437c-0.28249,-1.72376 -1.18193,-3.28976 -1.67213,-4.96631c-0.45843,-1.5679 -0.59312,-3.21281 -0.8827,-4.82049c-0.11695,-0.6493 -0.45604,-1.26707 -0.45255,-1.9268c0.01771,-3.34837 1.76687,-6.85181 3.70074,-9.46095c0,0 0.85423,-1.13987 1.9941,-0.28564c1.13987,0.85423 0.28564,1.9941 0.28564,1.9941c-1.52372,2.00675 -3.15278,5.01665 -3.13388,7.63889c0.00371,0.51541 0.30727,0.98648 0.40176,1.49317c0.28466,1.52643 0.38647,3.09518 0.82595,4.58443c0.12149,0.41169 1.69928,5.0217 1.7452,5.2936c0.14851,0.87942 -0.06121,1.78685 0.01352,2.67559c0.30693,3.64998 1.13867,7.12231 -0.57049,10.58241c-0.96637,1.95636 -2.41229,3.33006 -3.74712,4.94208z"/><path d="M66.43786,175.40837c0,1.42443 -1.42443,1.42443 -1.42443,1.42443l-1.49174,-0.15058c-0.73449,-0.4215 -1.71472,-0.57292 -2.20345,-1.26449c-0.79112,-1.11945 -0.86823,-4.52294 -0.70502,-5.76863c0.32189,-2.4568 1.0209,-2.63023 2.31671,-4.793c1.67673,-2.79855 3.87648,-5.22363 6.20184,-7.55445c0,0 1.00683,-1.00762 2.01445,-0.00079c1.00762,1.00683 0.00079,2.01445 0.00079,2.01445c-2.77071,2.76825 -5.46124,5.74523 -7.27614,9.2331c-0.61404,1.18005 -0.48245,2.45173 -0.43008,3.72722c0.01942,0.47309 -0.13716,1.03082 0.14185,1.41337c0.25398,0.34824 0.80925,0.297 1.21388,0.4455l0.21691,-0.15058c0,0 1.42443,0 1.42443,1.42443z"/><path d="M92.50447,163.71335c1.00759,1.00686 0.00074,2.01445 0.00074,2.01445l-0.64422,0.60555c-4.30563,2.84193 -5.78862,8.40612 -5.77358,13.34998c0,0 0,1.42443 -1.42443,1.42443c-1.42443,0 -1.42443,-1.42443 -1.42443,-1.42443c0.01581,-5.96304 1.91896,-12.27163 7.04133,-15.71982l0.21014,-0.24944c0,0 1.00686,-1.00759 2.01445,-0.00074z"/><path d="M122.79203,175.96551c0.29785,1.39294 -1.09509,1.69079 -1.09509,1.69079l-0.16506,0.03529c-4.35637,0.93085 -8.74529,1.80833 -13.1405,2.54176c0,0 -0.01988,0.00332 -0.0553,0.00679c-0.02609,0.97046 -0.03612,1.92817 -0.03612,2.86315c0,0 0,1.42443 -1.42443,1.42443c-1.42443,0 -1.42443,-1.42443 -1.42443,-1.42443c0,-5.10086 0.27623,-10.88469 1.76759,-15.79549c1.22209,-4.02413 4.1935,-6.75499 8.5222,-4.22584c0.91421,0.53415 1.51891,1.47562 2.27204,2.21987c1.74956,1.72891 3.41629,3.36001 4.88977,5.32617l1.21267,1.20854c0,0 1.00683,1.00761 -0.00078,2.01445c-1.00761,1.00684 -2.01445,-0.00078 -2.01445,-0.00078l-1.35033,-1.35644c-0.83634,-1.11598 -1.75202,-2.17724 -2.73847,-3.16303c-1.39068,-1.38974 -3.29384,-4.39073 -5.54082,-4.46849c-1.58645,-0.05491 -2.2078,2.19542 -2.52089,3.25674c-0.85053,2.88315 -1.27928,6.06267 -1.48308,9.21289c4.17092,-0.70675 8.33548,-1.54155 12.46964,-2.42618l0.16506,-0.03529c0,0 1.39294,-0.29785 1.69079,1.09509z"/><path d="M146.1746,183.67274c-1.42443,0 -1.42443,-1.42443 -1.42443,-1.42443v-0.9986c0.00424,-1.66057 -0.4246,-3.30282 -0.42697,-4.9634c-0.00125,-0.8743 0.42697,-1.71362 0.42697,-2.58792c0,-0.69745 -0.27172,-1.37263 -0.38164,-2.06107c-0.68907,-0.2534 -0.86599,-1.05013 -0.86599,-1.05013l-0.05263,-0.23704c-1.35363,-0.2158 -2.71798,-0.35975 -4.10995,-0.35729c0,0 -1.42443,0 -1.42443,-1.42443c0,-1.42443 1.42443,-1.42443 1.42443,-1.42443c1.17884,0.00189 2.3356,0.0979 3.48141,0.25012c-0.72663,-3.62584 -1.38315,-7.30484 -3.04698,-10.58648c0,0 -0.63662,-1.27425 0.63763,-1.91087c1.27425,-0.63662 1.91088,0.63763 1.91088,0.63763c1.25395,2.54222 1.98439,5.24363 2.59085,7.99156c0.20142,-0.13735 0.47151,-0.22944 0.83369,-0.22944c1.42443,0 1.42443,1.42443 1.42443,1.42443c-0.0036,1.18347 0.28631,2.35266 0.39038,3.53106c1.03636,0.21437 2.07644,0.43167 3.12868,0.62316l2.55264,0.42573c0,0 1.40502,0.23435 1.17067,1.63937c-0.23435,1.40502 -1.63938,1.17067 -1.63938,1.17067l-2.5733,-0.42926c-1.01665,-0.18497 -2.02364,-0.39897 -3.02793,-0.61118c-0.00128,0.02856 -0.00194,0.05718 -0.00194,0.08586c0.00003,0.85923 0.42734,1.6828 0.42734,2.54203c0,0.85923 -0.42604,1.6828 -0.42734,2.54203c-0.00254,1.67583 0.42346,3.33347 0.42734,5.00929v0.9986c0,0 0,1.42443 -1.42443,1.42443z"/><path d="M174.18062,180.88405c-0.34573,1.38184 -1.72757,1.03611 -1.72757,1.03611l-1.67566,-0.41966c-0.80161,-0.17232 -1.66359,-0.16645 -2.40482,-0.51695c-3.87715,-1.83338 -4.45312,-6.40338 -2.87024,-9.96741c1.52313,-3.42952 3.90687,-5.16031 6.96147,-7.07111c2.42634,-1.51779 4.1784,-2.7471 7.16959,-2.78602c0,0 1.42443,0 1.42443,1.42443c0,1.42443 -1.42443,1.42443 -1.42443,1.42443c-2.39865,-0.0429 -3.70657,1.1314 -5.64532,2.34394c-2.55024,1.59499 -4.57669,2.87858 -5.85344,5.75383c-0.88866,2.00126 -1.12051,5.26265 1.40143,6.27745c0.58667,0.23607 1.24453,0.22536 1.8668,0.33804l1.74165,0.43533c0,0 1.38184,0.34573 1.03611,1.72757z"/><path d="M202.60467,168.21788c1.20555,0.75873 0.44682,1.96427 0.44682,1.96427l-0.90373,1.4281c-2.26205,5.24127 -3.51423,10.80868 -4.44988,16.42951c0,0 -0.23399,1.40508 -1.63908,1.17109c-1.40508,-0.23399 -1.17109,-1.63908 -1.17109,-1.63908c0.98827,-5.93173 2.34171,-11.76368 4.73987,-17.28997l1.01281,-1.61711c0,0 0.75873,-1.20555 1.96427,-0.44682z"/><path d="M218.78446,198.8752c-1.23699,0.7063 -1.94329,-0.5307 -1.94329,-0.5307l-0.29606,-0.51851c-0.82175,-1.43982 -1.65735,-2.79596 -2.32953,-4.30712c-0.8414,-1.89158 -1.70356,-5.09412 -4.15385,-5.60932c-0.96105,-0.20207 -2.17335,0.10957 -3.07842,0.39646c-0.57834,0.18332 -1.22329,0.26461 -1.70757,0.63007c-1.18927,0.89745 -2.18163,3.04794 -3.27652,4.15148c0,0 -1.00684,1.00762 -2.01445,0.00078c-1.00761,-1.00684 -0.00078,-2.01445 -0.00078,-2.01445c1.22407,-1.21491 2.23383,-3.40796 3.55809,-4.39844c0.74266,-0.55547 1.68744,-0.77735 2.56411,-1.07992c0.64027,-0.22098 1.29901,-0.41897 1.97301,-0.486c6.76082,-0.67239 8.27433,6.63756 10.9399,11.30386l0.29606,0.51851c0,0 0.7063,1.23699 -0.5307,1.94329z"/></g><g fill="#ffffff" stroke-width="0.5"><path d="M241.85412,172.69922c1.10965,0.52323 0.58642,1.63288 0.58642,1.63288l-0.22918,0.48603c-1.65334,3.49875 -3.70813,6.98265 -5.64107,10.3461c-0.28327,0.49247 -2.22004,3.87976 -2.52096,4.32011c-1.80588,2.64257 -5.54428,7.5085 -9.0389,4.33704c-0.40973,-0.37184 -0.66499,-0.88842 -0.93622,-1.37067c-0.44304,-0.78772 -0.91445,-1.57356 -1.20165,-2.43047c-0.74746,-2.23015 -0.69185,-4.76079 -0.85653,-7.06172c-0.30565,-4.27045 -0.55747,-8.56913 0.46518,-12.76071c0,0 0.29735,-1.19025 1.48759,-0.8929c1.19025,0.29734 0.8929,1.48759 0.8929,1.48759c-1.32368,5.15137 -0.87818,11.23167 0.01823,16.42808c0.23869,1.38366 0.64556,2.76812 1.31777,4.00084c0.25627,0.46996 0.46023,1.22587 0.99437,1.26099c1.40667,0.09249 2.71476,-1.71505 3.38108,-2.53711c1.5336,-1.89203 2.65893,-3.89851 3.87023,-6.00445c1.90168,-3.30308 3.92997,-6.72835 5.54867,-10.16918l0.22917,-0.48603c0,0 0.52323,-1.10965 1.63288,-0.58642z"/><path d="M249.79929,198.29032c-0.549,-1.09713 0.54813,-1.64613 0.54813,-1.64613l0.41697,-0.13822c1.05062,-1.04819 1.63031,-1.49333 2.39935,-2.723c2.37029,-3.79 2.06424,-8.88118 3.5708,-13.03194c0.29101,-0.80176 1.10704,-2.8679 1.62819,-3.60904c0.29939,-0.42577 0.80058,-0.68145 1.10372,-1.10457c0.83974,-1.17212 0.46332,-1.71988 1.6202,-2.74794c0.90973,-0.80843 2.06772,-1.32223 2.92233,-2.18871c0,0 0.86716,-0.86783 1.73499,-0.00067c0.86783,0.86716 0.00067,1.73499 0.00067,1.73499c-0.87858,0.86987 -2.00748,1.4464 -2.96414,2.22958c-0.70837,0.57991 -0.79244,1.6607 -1.32304,2.40673c-0.30167,0.42416 -0.79787,0.68341 -1.10372,1.10457c-0.33355,0.45931 -1.19088,2.67711 -1.31505,3.01844c-1.40315,3.85703 -1.42621,8.01861 -2.96174,11.8296c-0.79289,1.96787 -2.10629,3.34034 -3.57689,4.81628l-1.05463,0.59816c0,0 -1.09713,0.549 -1.64613,-0.54813z"/><path d="M274.93277,190.74577c-0.73646,-0.98118 0.24472,-1.71765 0.24472,-1.71765l1.4039,-1.04989c0.93037,-0.93271 2.57415,-2.20241 2.94103,-3.47888c0.71825,-2.49896 -1.06758,-4.69692 -3.47978,-4.04579c-0.60435,0.41745 -1.30142,0.71466 -1.83622,1.21815c-0.60166,0.56643 -0.59263,1.24188 -0.78128,2.00749c-0.59642,2.42043 -0.35101,4.94553 0.1526,7.38454c0.40786,1.97528 0.9311,4.36672 1.64973,6.25379c1.53411,4.02841 4.84788,7.37106 8.35752,9.71263c0,0 1.02054,0.68088 0.33965,1.70142c-0.68088,1.02054 -1.70142,0.33965 -1.70142,0.33965c-3.93556,-2.62574 -7.56175,-6.37625 -9.28771,-10.87772c-0.76374,-1.9919 -1.33346,-4.54552 -1.76119,-6.63581c-0.6875,-3.35972 -1.39486,-8.82895 1.29647,-11.62034c0.17281,-0.17924 2.36143,-1.58617 2.57861,-1.72742c0.65608,-0.15773 1.29346,-0.4732 1.96824,-0.4732c3.27272,0 4.65004,2.72876 4.90168,5.54404c0.05727,0.6407 0.1276,1.31045 -0.0484,1.92915c-0.49819,1.7513 -2.43959,3.38048 -3.68119,4.62132l-1.53933,1.15926c0,0 -0.98118,0.73646 -1.71765,-0.24472z"/><path d="M303.66088,188.0602c0.84454,0.88986 -0.04533,1.7344 -0.04533,1.7344l-0.54973,0.52173c-1.10836,1.0519 -2.56213,1.81771 -3.35478,3.1241c-0.85014,1.40114 -1.1463,4.4641 -1.61236,6.00914c-0.61496,2.03867 -0.9472,3.95733 -1.50974,6.00493c-0.72044,2.62234 -2.03409,5.23636 -2.96621,7.80165c0,0 -0.41898,1.15306 -1.57204,0.73409c-1.15306,-0.41898 -0.73409,-1.57204 -0.73409,-1.57204c0.9137,-2.51461 2.22091,-5.09181 2.92026,-7.66237c0.55552,-2.04186 0.89844,-3.97789 1.51269,-6.01477c0.54995,-1.82368 0.88548,-4.95755 1.86307,-6.57227c0.11017,-0.18197 3.48497,-3.36726 3.76413,-3.6322l0.54973,-0.52173c0,0 0.88986,-0.84454 1.7344,0.04533z"/></g><g fill="#ffffff" stroke-width="0.5"><path d="M330.92567,200.31266c-0.22439,0.78476 -1.00915,0.56037 -1.00915,0.56037l-0.14387,-0.04114c-1.8474,-0.52907 -3.67931,-0.84193 -5.40566,-1.74078c-0.75094,-0.39099 -1.68267,-1.16636 -1.87969,-2.02582c-0.28427,-1.24003 1.04059,-2.46525 1.53853,-3.46579c0.97369,-1.95649 1.38252,-3.5702 1.38259,-5.75231c-0.01875,-1.2596 -0.25838,-2.22818 -0.68461,-3.40073c-0.41308,-1.13637 -0.76483,-2.252 -1.57659,-3.19065c-0.87754,-1.01472 -2.0491,-1.94318 -3.41306,-2.16255c-0.90983,-0.14633 -1.89875,0.11191 -2.74803,0.38207c-3.05044,0.97037 -5.82531,3.28378 -8.05228,5.51247c0,0 -0.57693,0.57737 -1.1543,0.00045c-0.57737,-0.57693 -0.00045,-1.1543 -0.00045,-1.1543c2.73615,-2.73827 6.45278,-5.8395 10.44206,-6.33995c5.59672,-0.70211 8.73205,5.64441 8.81961,10.33941c0.00007,2.43503 -0.46107,4.3148 -1.55465,6.4957c-0.34286,0.68376 -0.80556,1.30058 -1.21691,1.94546c-0.08996,0.14103 -0.2311,0.30792 -0.18178,0.46777c0.09567,0.31008 0.78701,0.78109 1.05753,0.91369c1.64014,0.80392 3.33469,1.1091 5.07644,1.60637l0.14387,0.04114c0,0 0.78476,0.22439 0.56037,1.00915z"/><path d="M349.84011,200.6231c-0.53482,-0.61657 0.08175,-1.1514 0.08175,-1.1514l0.94083,-0.80855c2.06533,-2.9163 3.92911,-5.84837 3.91085,-9.53057c-0.01396,-2.81479 -0.54077,-5.03609 -3.302,-6.34883c-0.4043,0.06163 -0.82291,0.06173 -1.2129,0.18488c-1.36779,0.4319 -2.35419,2.81367 -2.79227,3.97914c-0.66558,1.77069 -0.80534,3.40281 -0.96024,5.2488c-0.1834,2.18556 -0.47679,4.10785 -0.13819,6.29723c0.21717,1.40421 0.2747,3.55434 1.60452,4.34493c0,0 0.67897,0.453 0.22597,1.13196c-0.453,0.67897 -1.13196,0.22597 -1.13196,0.22597c-1.78334,-1.2696 -1.99729,-3.40516 -2.31178,-5.45343c-0.27723,-1.80566 -0.21662,-3.28045 -0.00944,-5.0817c0.14732,-1.28085 0.03217,-2.71404 0.2525,-3.97467c0.29294,-1.67609 0.94199,-3.32498 1.66328,-4.85093c0.56947,-1.20476 1.62045,-2.97169 3.01464,-3.3921c0.65041,-0.19613 1.34605,-0.18479 2.01908,-0.27719c1.47429,0.62557 1.61013,0.51741 2.80128,1.79122c1.71468,1.83367 1.9011,3.76726 1.90992,6.16769c0.01512,4.11378 -2.00594,7.39389 -4.33565,10.63598l-1.07879,0.94329c0,0 -0.61657,0.53482 -1.1514,-0.08175z"/><path d="M371.03746,192.23625c0.25829,-0.77427 1.03256,-0.51598 1.03256,-0.51598l0.77936,0.26147c1.70568,0.68281 3.78381,1.31357 4.79694,3.02341c1.59995,2.70019 0.00088,4.83357 -1.48499,7.00722c-0.71467,1.04548 -0.93702,1.54817 -2.5278,1.82438c-0.55635,0.0966 -1.1104,-0.20593 -1.66561,-0.3089c-2.40925,-1.75466 -4.67879,-3.73565 -5.81715,-6.58602c-0.88854,-2.22485 -0.49482,-5.13698 0.52647,-7.26465c0.3226,-0.67209 1.37734,-1.79283 1.78783,-2.32498c0.80115,-1.0386 1.51984,-1.96138 2.69071,-2.66658c0.06139,-0.03698 2.42427,-0.97997 2.55553,-1.03251c0,0 0.75775,-0.30334 1.06109,0.45441c0.30334,0.75775 -0.45441,1.06109 -0.45441,1.06109c-0.77886,0.31179 -1.6199,0.49646 -2.33985,0.92716c-0.9787,0.58549 -1.54008,1.37055 -2.20467,2.2326c-0.12724,0.16505 -1.43257,1.65177 -1.6389,2.08434c-0.82476,1.72913 -1.17442,4.15502 -0.45262,5.96313c0.97066,2.43149 2.95556,4.10147 4.95267,5.66193c1.75432,0.40604 2.22409,-1.01612 3.07437,-2.29086c0.62761,-0.94092 1.12996,-1.50064 0.92674,-2.71247c-0.36999,-2.20637 -2.60378,-2.82094 -4.39303,-3.5372l-0.68926,-0.22844c0,0 -0.77427,-0.25829 -0.51598,-1.03256z"/><path d="M389.54611,187.83433c-1.02641,-0.40248 -1.64611,-0.91324 -2.80349,-0.89254c0,0 -0.81621,0 -0.81621,-0.81621c0,-0.81621 0.81621,-0.81621 0.81621,-0.81621c1.39601,0.01816 2.20423,0.55786 3.46537,1.03061c2.1153,0.79293 4.14614,1.73983 6.04407,3.02602c0.99791,0.67626 1.87346,1.53632 1.83183,2.8836c-0.01827,0.59125 -0.29578,1.14626 -0.40829,1.727c-0.36493,1.88361 -1.09228,3.5846 -1.8121,5.33417c0.8016,0.90103 1.68713,1.80322 2.33536,2.78767c0.16628,0.25253 0.99767,2.02346 1.25524,2.5005c0.67761,1.25497 1.52892,2.41995 2.20194,3.67349c0.48351,0.90058 1.58137,2.45093 0.27508,3.48231c-1.21419,0.95866 -3.3886,-0.34021 -4.35608,-0.92749c-2.78927,-1.69315 -4.95851,-4.19596 -4.5426,-7.66656c0.12523,-1.04497 0.53228,-2.03696 0.76165,-3.06411c0.06309,-0.16333 0.12792,-0.32675 0.1941,-0.4903c-1.48878,-1.95288 -3.27935,-3.97465 -4.166,-6.27614c-0.04476,-0.11618 -0.65526,-2.94934 -0.70897,-3.19683l-0.00479,-1.55812c0,0 0,-0.53875 0.4377,-0.74084zM395.23946,201.0447c-0.20842,0.77829 -0.48042,1.54307 -0.59007,2.34011c-0.38441,2.79425 1.60191,4.71098 3.77954,6.05114c0.54217,0.33366 1.73001,1.14332 2.49744,1.03218c0.08436,-0.01222 -0.02628,-0.17119 -0.06421,-0.24753c-0.19457,-0.39161 -0.4083,-0.77376 -0.63036,-1.15046c-0.55007,-0.93312 -1.13393,-1.84611 -1.68036,-2.78137c-0.61437,-1.05153 -1.05205,-2.2843 -1.71598,-3.2926c-0.44991,-0.68327 -1.02188,-1.32299 -1.596,-1.95148zM390.63262,188.15494c0.10821,0.20801 0.10821,0.42023 0.10821,0.42023l-0.00479,1.38145c0.2079,0.92777 0.26734,1.89935 0.60936,2.78647c0.71783,1.8619 2.10582,3.53768 3.369,5.13904c0.77824,-1.8226 1.54289,-3.68006 1.73706,-5.63255c0.09784,-0.98386 -1.11974,-1.60197 -1.79662,-1.98874c-0.97793,-0.55879 -1.95764,-1.162 -2.92743,-1.70914c-0.33926,-0.19141 -0.7146,-0.29908 -1.0948,-0.39676z"/><path d="M427.68804,217.86962c-0.1443,0.80335 -0.94766,0.65905 -0.94766,0.65905l-1.51244,-0.27167c-3.16952,-0.56933 -6.34019,-1.131 -9.50351,-1.73323c-1.34875,-0.25677 -3.84803,-0.38853 -4.87672,-1.44804c-0.31981,-0.32939 -0.37467,-0.85939 -0.40065,-1.31776c-0.12354,-2.17975 1.20423,-3.8678 1.73464,-5.85929c0.85774,-3.16628 1.68126,-6.12497 1.63082,-9.4451c-0.02008,-1.32189 0.09127,-3.15383 -0.4063,-4.41334c-0.5371,-1.35956 -2.06765,-2.33709 -3.19484,-3.15577c-1.32408,-0.96168 -2.77384,-1.72758 -4.42347,-1.27254c0,0 -0.79181,0.19811 -0.98991,-0.5937c-0.19811,-0.79181 0.5937,-0.98991 0.5937,-0.98991c2.18489,-0.50791 3.99028,0.26149 5.77245,1.53062c1.38061,0.98317 3.08156,2.19842 3.74303,3.83949c0.58831,1.45957 0.51408,3.48919 0.53757,5.03031c0.05296,3.47425 -0.79092,6.58205 -1.68734,9.89646c-0.37908,1.38135 -1.17293,2.54929 -1.49724,3.94686c-0.1058,0.45595 -0.13522,0.92659 -0.18339,1.39217c-0.01172,0.11332 -0.09005,0.27743 0.00399,0.34175c0.94693,0.64765 2.8642,0.70784 3.9493,0.91423c3.15774,0.60062 6.32263,1.16177 9.48647,1.73008l1.51244,0.27167c0,0 0.80335,0.1443 0.65905,0.94766z"/><path d="M434.14908,214.85606c-0.80512,-0.13408 -0.67104,-0.9392 -0.67104,-0.9392l0.26911,-1.57356c1.8003,-4.01365 3.81762,-8.01083 4.99556,-12.26692c0.35193,-1.26793 0.96852,-2.69159 1.09433,-4.0071c0.04664,-0.48769 -0.0495,-0.98234 0,-1.46975c0.04143,-0.4079 0.43277,-0.94503 0.14279,-1.39002c-0.3175,-0.48722 -1.12596,-0.29479 -1.697,-0.40478c-0.91327,-0.1759 -1.81524,-0.41633 -2.73616,-0.54637c-3.80549,-0.53737 -7.70846,-0.90727 -11.5438,-0.90727c0,0 -0.81621,0 -0.81621,-0.81621c0,-0.81621 0.81621,-0.81621 0.81621,-0.81621c3.02242,0 5.94087,0.36818 8.94404,0.67768c1.51043,0.15566 2.98741,0.23224 4.48607,0.53008c1.17719,0.23395 3.12731,0.21875 3.88148,1.34308c0.83098,1.23884 0.25583,1.3807 0.14279,2.52932c-0.04798,0.48756 0.0506,0.98246 0,1.46975c-0.146,1.40603 -0.76517,2.88827 -1.14158,4.24439c-1.1866,4.2635 -3.15979,8.30087 -5.00696,12.30609l-0.22042,1.36595c0,0 -0.13408,0.80512 -0.9392,0.67104z"/></g></g></g></svg>