<svg xmlns="http://www.w3.org/2000/svg" xmlns:xlink="http://www.w3.org/1999/xlink" version="1.1" width="71.5" height="102.83000183105469" viewBox="-0.75 -0.75 71.5 102.83000183105469">
  <!-- Exported by Scratch - http://scratch.mit.edu/ -->
  <g id="ID0.08931994205340743">
    <path id="ID0.4177084397524595_21_" fill="none" d="M 0 0 L 70 0 L 70 101.330 L 0 101.330 L 0 0 Z " stroke-width="1"/>
    <path id="ID0.3273562421090901" fill="#FCEE21" stroke="#807B3A" d="M 14 21.330 L 20.160 21.330 L 20.160 79.660 L 14 79.660 L 14 21.330 Z " stroke-width="1"/>
    <path id="ID0.4245276404544711" fill="#FCEE21" stroke="#807B3A" d="M 26.170 87.330 L 17.100 88.330 L 8.030 87.330 L 9.320 79.670 L 24.880 79.670 L 26.170 87.330 " stroke-width="1"/>
    <path id="ID0.3638039235956967" fill="none" stroke="#FFFFFF" stroke-width="1.5" d="M 16 23 L 16 74.670 "/>
    <path id="ID0.8555250018835068" fill="none" stroke="#FFFFFF" stroke-width="1.5" d="M 12.110 81 L 19.900 81 "/>
    <path id="ID0.6153248394839466" fill="#FCEE21" stroke="#807B3A" d="M 17.030 12.180 C 18.451 12.180 19.738 12.757 20.671 13.689 C 21.603 14.622 22.180 15.909 22.180 17.330 C 22.180 18.751 21.603 20.038 20.671 20.971 C 19.738 21.903 18.451 22.480 17.030 22.480 C 15.609 22.480 14.322 21.903 13.389 20.971 C 12.457 20.038 11.880 18.751 11.880 17.330 C 11.880 15.909 12.457 14.622 13.389 13.689 C 14.322 12.757 15.609 12.180 17.030 12.180 Z " stroke-width="1"/>
    <path id="ID0.2776217218488455" fill="#FFFFFF" d="M 15.440 14.190 C 15.870 14.190 16.260 14.365 16.543 14.647 C 16.825 14.930 17 15.320 17 15.750 C 17 16.180 16.825 16.570 16.543 16.853 C 16.260 17.135 15.870 17.310 15.440 17.310 C 15.010 17.310 14.620 17.135 14.337 16.853 C 14.055 16.570 13.880 16.180 13.880 15.750 C 13.880 15.320 14.055 14.930 14.337 14.647 C 14.620 14.365 15.010 14.190 15.440 14.190 Z " stroke-width="1"/>
    <path id="ID0.7724690679460764" fill="#FFC369" stroke="#875608" d="M 50.500 26.510 C 52.170 29.480 53.830 32.800 55.500 36.610 C 53.830 38.140 52.170 40.150 50.500 42.510 C 52.170 45.460 53.830 48.750 55.500 52.520 C 43.720 44.980 31.940 61.650 20.160 53.520 C 20.160 42.910 20.160 32.300 20.160 21.690 C 31.940 29.820 43.720 13.150 55.500 20.690 C 53.840 22.200 52.170 24.180 50.500 26.510 Z " stroke-width="1"/>
    <path id="ID0.4273188910447061" fill="#FAA51D" stroke="#231F20" stroke-width="0.6" d="M 36.380 30.470 C 35.890 30.600 34.860 30.910 34.290 31.120 C 32.780 31.710 31.340 32.600 31.340 32.600 C 29.950 31.970 28.560 31.200 27.170 30.230 C 27.410 32.340 27.650 34.450 27.890 36.550 C 28.100 36.380 24.510 40.670 26.780 44.640 C 29.050 48.790 33.900 49.300 39.910 45.590 C 45.920 42.180 47.350 38.930 46.950 36.950 C 46.550 35.040 44.290 34.790 44.280 34.820 C 44.280 34.820 44.250 33.320 43.210 31.770 C 42.590 30.830 40.540 29.940 40.540 29.950 C 40.230 28.770 39.930 27.590 39.620 26.420 C 38.820 27.510 38.030 28.620 37.230 29.720 C 36.940 29.970 36.660 30.220 36.380 30.470 L 36.380 30.470 Z "/>
    <path id="ID0.678269614931196" fill="#FFFFFF" d="M 43.970 34.850 C 43.700 34.690 43.440 34.530 43.180 34.380 C 42.210 34.960 41.230 35.580 40.260 36.230 C 40.260 36.230 40.260 37.370 38.860 38.200 C 37.460 39.050 35.270 38.770 35.270 38.760 C 34.440 39.430 33.610 40.080 32.780 40.700 C 32.780 40.740 30.080 41.670 29.980 43.360 C 29.770 47.350 34.260 47.860 35.970 47.220 C 36.900 46.940 38.610 46.120 39.900 45.380 C 45.590 42.240 47.120 38.930 46.730 36.970 C 46.330 35.070 44.170 35.020 44.170 35.050 C 44.100 34.990 44.040 34.920 43.970 34.850 L 43.970 34.850 Z " stroke-width="1"/>
    <path id="ID0.6290257559157908" fill="none" stroke="#231F20" stroke-width="0.6" d="M 22.910 42.390 C 22.910 42.410 24.230 42.980 24.820 43.040 C 25.420 43.150 26.580 43.090 26.580 43.080 "/>
    <path id="ID0.06449885573238134" fill="none" stroke="#231F20" stroke-width="0.6" d="M 45.650 36.360 C 45.650 36.350 47.110 35.860 47.850 35.570 C 48.720 35.210 49.300 34.710 49.300 34.710 "/>
    <path id="ID0.4289644919335842" fill="none" stroke="#231F20" stroke-width="0.6" d="M 26.650 41.770 C 26.650 41.760 25.890 41.160 24.690 40.360 C 23.370 39.450 22.640 38.930 22.640 38.940 "/>
    <path id="ID0.18933063745498657" fill="none" stroke="#231F20" stroke-width="0.6" d="M 45.790 38.320 C 45.790 38.320 46.660 38.530 47.560 38.560 C 48.450 38.590 49.050 38.560 49.050 38.560 "/>
    <path id="ID0.7615604810416698" fill="none" stroke="#000000" stroke-width="0.5" stroke-linecap="round" d="M 36.260 30.530 C 37.170 30.430 37.500 30.560 37.500 30.560 "/>
    <path id="ID0.8431439017876983" fill="none" stroke="#000000" stroke-width="0.5" d="M 30.350 32.070 C 31 32.440 31.640 32.780 32.290 33.100 "/>
    <path id="ID0.6128476769663393" fill="#FFFFFF" stroke="#231F20" stroke-width="0.5" d="M 42.500 32.030 C 43.440 33.250 43.470 34.950 42.580 35.820 C 41.690 36.700 40.200 36.500 39.260 35.350 C 38.320 34.200 38.290 32.510 39.180 31.560 C 40.080 30.620 41.570 30.810 42.500 32.030 L 42.500 32.030 Z "/>
    <path id="ID0.7983427047729492" fill="#231F20" d="M 42.260 34.500 C 42.260 34.860 42 35.240 41.680 35.340 C 41.360 35.450 41.100 35.240 41.100 34.880 C 41.100 34.520 41.360 34.140 41.680 34.030 C 42.010 33.920 42.260 34.140 42.260 34.500 " stroke-width="1"/>
    <path id="ID0.49173528561368585" fill="#FFFFFF" stroke="#231F20" stroke-width="0.5" d="M 34.820 35.860 C 35.760 37.030 35.660 38.870 34.600 39.950 C 33.540 41.040 31.920 40.870 30.990 39.550 C 30.050 38.230 30.150 36.420 31.210 35.490 C 32.270 34.550 33.890 34.690 34.820 35.860 L 34.820 35.860 Z "/>
    <path id="ID0.15228841453790665" fill="#231F20" d="M 34.250 38.020 C 34.250 38.380 33.990 38.760 33.670 38.860 C 33.350 38.960 33.090 38.740 33.090 38.380 C 33.090 38.020 33.350 37.650 33.670 37.550 C 33.990 37.450 34.250 37.660 34.250 38.020 " stroke-width="1"/>
    <path id="ID0.9396968148648739" fill="#5E4A42" stroke="#000000" stroke-width="0.5" d="M 38.640 37.580 C 39.230 37.360 40.100 36.950 40.140 37.210 C 40.190 37.480 39.590 38.810 39.180 39.010 C 38.770 39.210 37.220 38.960 37.200 38.440 C 37.180 37.940 38.090 37.790 38.640 37.580 L 38.640 37.580 Z "/>
    <path id="ID0.8267048266716301" fill="none" stroke="#231F20" stroke-width="0.6" d="M 34.470 41.540 C 34.470 41.570 37.780 41.380 39.020 41.190 C 40.260 40.990 42.500 40.530 42.500 40.550 C 42.500 40.520 39.940 44.810 36.950 45.090 C 33.960 45.300 34.020 43.250 34.470 41.540 L 34.470 41.540 Z "/>
  </g>
</svg>