<svg xmlns="http://www.w3.org/2000/svg" xmlns:xlink="http://www.w3.org/1999/xlink" version="1.1" width="148.5" height="444.3500061035156" viewBox="-0.5 -0.5 148.5 444.3500061035156">
  <!-- Exported by Scratch - http://scratch.mit.edu/ -->
  <g id="ID0.544766700360924">
    <path id="ID0.17643113946542144" fill="#8C303C" d="M 24.190 32.190 L 122.190 32.190 L 122.190 414.190 L 24.190 414.190 L 24.190 32.190 Z " stroke-width="1"/>
    <path id="ID0.6939251190051436" fill="#781E29" d="M 103.660 75.930 L 113.650 73.250 L 119.850 59.470 L 109.230 47.680 L 99.250 46.650 L 91.250 50.940 L 85.870 63.580 L 94.050 70.170 L 103.660 75.930 " stroke-width="1"/>
    <path id="ID0.48928375681862235" fill="#781E29" d="M 56.180 145.660 L 103.010 138.870 L 114.750 100.040 L 98.930 78.080 L 73.350 68.070 L 31.260 74.880 L 28.930 100.730 L 31.570 129.710 L 56.180 145.660 " stroke-width="1"/>
    <path id="ID0.4126220066100359" fill="#781E29" d="M 111.740 181.280 L 116.700 162.010 L 109.990 151.070 L 99.050 146.050 L 80.930 149.490 L 79.940 162.480 L 81.030 176.580 L 91.690 184.690 L 111.740 181.280 " stroke-width="1"/>
    <path id="ID0.4485022504813969" fill="#781E29" d="M 43.770 290.730 L 57.180 280.360 L 54.430 241.620 L 47.180 220.720 L 37.730 210.270 L 25.930 220.330 L 29.160 245.900 L 34.100 274.220 L 43.770 290.730 " stroke-width="1"/>
    <path id="ID0.7173044318333268" fill="#781E29" d="M 71.020 180.140 L 61.860 187.590 L 64.290 197.590 L 70.780 200.190 L 77.450 198.930 L 85.780 191.940 L 82.820 185.840 L 78.650 180.230 L 71.020 180.140 " stroke-width="1"/>
    <path id="ID0.9632158847525716" fill="#781E29" d="M 41.830 336.660 L 58.370 332.450 L 62.030 321.260 L 59.150 309.490 L 46.450 294.980 L 36.690 300 L 27.450 307.430 L 28.120 320.510 L 41.830 336.660 " stroke-width="1"/>
    <path id="ID0.41784277791157365" fill="#781E29" d="M 114.510 355.470 L 104.050 355.570 L 93.120 358.650 L 89.110 372.980 L 95.100 397.480 L 111.280 402.080 L 118.550 391.770 L 120.220 377.730 L 114.510 355.470 " stroke-width="1"/>
    <path id="ID0.3867680933326483" fill="#781E29" d="M 51.290 201.920 L 65.140 177.660 L 64.430 160.840 L 56.620 149.940 L 37.680 148.570 L 30.500 165.580 L 24.570 185.010 L 30.380 199.840 L 51.290 201.920 " stroke-width="1"/>
    <path id="ID0.8556782836094499" fill="#781E29" d="M 111.880 201.980 L 89.500 198.200 L 54.940 208.190 L 55.690 226.950 L 60.990 247.150 L 83.380 255.260 L 118.790 244.720 L 121.710 215.590 L 111.880 201.980 " stroke-width="1"/>
    <path id="ID0.7377994954586029" fill="#781E29" d="M 74.570 357.720 L 45.300 341.410 L 34.040 355.490 L 24.890 373.690 L 34.710 394.810 L 66.890 413.340 L 89.100 396.320 L 87.100 375.700 L 74.570 357.720 " stroke-width="1"/>
    <path id="ID0.01003902917727828" fill="#781E29" d="M 112.290 262.130 L 81.820 258.120 L 65.880 272.960 L 59.230 300.150 L 73.880 344.410 L 107.770 347.940 L 121.730 326.260 L 118.370 292.060 L 112.290 262.130 " stroke-width="1"/>
    <path id="ID0.4177084397524595_8_" fill="none" d="M 0 0 L 147.500 0 L 147.500 443.350 L 0 443.350 L 0 0 Z " stroke-width="1"/>
    <path id="ID0.17349215224385262_75_" fill="#A34E42" d="M 108.260 46.590 L 117.480 56.830 L 112.200 68.560 L 103.950 70.770 L 95.180 65.530 L 88.290 59.980 L 92.800 49.370 L 99.640 45.710 L 108.260 46.590 " stroke-width="1"/>
    <path id="ID0.25592208467423916" fill="#5E2028" d="M 24.190 30.320 L 24.130 49.940 L 27.820 56.890 L 35.290 48.710 L 37.050 51.130 L 42.470 46.700 L 46.360 54.590 L 49.230 51.190 L 51.170 53.910 L 53.780 51.460 L 56.680 56.510 L 60.520 48.870 L 63.700 57.890 L 71.580 48.710 L 74.450 54.610 L 78.660 50.890 L 80.500 52.620 L 82.520 47.880 L 88.210 54.680 L 91 45.750 L 95.120 53.990 L 97.130 48.350 L 98.950 48.040 L 100.630 46.060 L 106.650 58.020 L 110.610 48.950 L 112.120 52.130 L 117.720 47.530 L 121.970 50.180 L 122.230 40.970 L 121.650 30.510 L 24.190 30.320 " stroke-width="1"/>
    <path id="ID0.17349215224385262_74_" fill="#BA594B" d="M 112.550 97.400 L 101.460 134.070 L 56.630 140.570 L 33.460 125.550 L 30.930 97.720 L 33.100 73.600 L 73.120 67.130 L 97.640 76.720 L 112.550 97.400 " stroke-width="1"/>
    <path id="ID0.17349215224385262_72_" fill="#B3655A" d="M 114.550 159.330 L 110.120 176.520 L 92.210 179.570 L 82.950 172.530 L 81.940 159.480 L 82.810 148.170 L 98.800 145.140 L 108.600 149.640 L 114.550 159.330 " stroke-width="1"/>
    <path id="ID0.17349215224385262_68_" fill="#C76455" d="M 52.460 239.030 L 55.110 276.440 L 44.360 284.760 L 36.020 270.530 L 31.140 242.570 L 28.060 218.160 L 37.560 210.060 L 45.430 218.770 L 52.460 239.030 " stroke-width="1"/>
    <path id="ID0.17349215224385262_66_" fill="#D06454" d="M 65.990 193.110 L 64.100 185.340 L 71.720 179.140 L 77.640 179.210 L 81.110 183.870 L 83.310 188.400 L 76.580 194.050 L 71 195.100 L 65.990 193.110 " stroke-width="1"/>
    <path id="ID0.17349215224385262_64_" fill="#BA594B" d="M 56.810 327.790 L 42.550 331.410 L 30.080 316.730 L 29.500 305.340 L 37.790 298.680 L 45.980 294.460 L 57.320 307.420 L 59.950 318.170 L 56.810 327.790 " stroke-width="1"/>
    <path id="ID0.17349215224385262_61_" fill="#BA594B" d="M 110.460 396.770 L 96.770 392.870 L 91.180 370.010 L 94.750 357.270 L 104.340 354.570 L 112.970 354.480 L 118.190 374.860 L 116.630 388.030 L 110.460 396.770 " stroke-width="1"/>
    <path id="ID0.17349215224385262_56_" fill="#AB483B" d="M 63.120 174.170 L 50.190 196.800 L 31.800 194.970 L 26.690 181.920 L 32.390 163.250 L 38.970 147.660 L 55.550 148.860 L 62.470 158.520 L 63.120 174.170 " stroke-width="1"/>
    <path id="ID0.17349215224385262_54_" fill="#D06454" d="M 110.990 200.860 L 89.610 197.250 L 57 206.680 L 57.680 223.660 L 62.650 242.630 L 83.460 250.170 L 117.070 240.120 L 120.510 213.350 L 110.990 200.860 Z " stroke-width="1"/>
    <path id="ID0.17349215224385262_51_" fill="#B3655A" d="M 87.170 392.390 L 66.760 408.040 L 36.090 390.370 L 26.970 370.750 L 35.560 353.650 L 45.750 340.910 L 73.370 356.310 L 85.340 373.480 L 87.170 392.390 " stroke-width="1"/>
    <path id="ID0.17349215224385262_49_" fill="#AB483B" d="M 61.700 297.410 L 75.570 339.800 L 106.490 343.110 L 119.210 323.030 L 115.950 289.780 L 110.230 261.390 L 82.510 257.650 L 67.930 271.430 L 61.700 297.410 " stroke-width="1"/>
    <path id="ID0.059777057729661465" fill="#39B54A" d="M 119.480 26.460 L 114.070 28.100 L 114.350 27.310 L 108.310 26.380 L 100.110 28.480 L 93.960 26.820 L 88.510 27.530 L 88.500 26.780 L 80.890 26.820 L 76.780 28.440 L 76.880 28.100 L 69.430 26.550 L 58.870 28.100 L 58.920 28.340 L 55.190 27.330 L 49.290 28.100 L 49.370 28.580 L 44.610 27.590 L 40.580 28.490 L 40.700 28.100 L 33.240 26.550 L 22.680 28.100 L 23.420 31.780 L 22.410 31.230 L 20.160 33.080 L 20.690 39.190 L 22.900 45.790 L 25.240 40.840 L 27.850 53.890 L 37.390 38.710 L 37.160 46.130 L 44.630 39.700 L 47.550 51.590 L 49.440 42.190 L 51.400 49.910 L 53.040 42.460 L 56.950 51.510 L 60.830 37.870 L 64.040 53.890 L 73.780 38.380 L 73.980 37.710 L 74.880 49.610 L 80.130 42.890 L 80.980 46.620 L 84.020 39.880 L 88.760 49.680 L 88.540 30.480 L 89.560 36.750 L 95.720 50.990 L 98.750 40.350 L 99.590 44.040 L 102.280 38.060 L 107.350 54.020 L 112.350 32.950 L 113.290 30.310 L 112.870 48.130 L 120.510 38.530 L 125.190 46.440 L 125.820 34.450 L 123.480 28.510 L 119.480 26.460 " stroke-width="1"/>
    <path id="ID0.009470200631767511" fill="#8CE83F" d="M 26.370 28.920 L 28.330 46.460 L 31.640 35.310 L 36.750 28.680 L 33.150 27.930 L 26.370 28.920 " stroke-width="1"/>
    <path id="ID0.3278562496416271" fill="#8CE83F" d="M 51.240 28.880 L 54.600 35.040 L 56.180 44.980 L 59.240 29.900 L 54.090 28.510 L 51.240 28.880 " stroke-width="1"/>
    <path id="ID0.7219753633253276" fill="#8CE83F" d="M 96.200 29.020 L 91.050 30.420 L 94.620 45.500 L 96.200 33.490 L 99.040 29.390 L 96.200 29.020 " stroke-width="1"/>
    <path id="ID0.2209896738640964" fill="#8CE83F" d="M 42.390 28.920 L 38.670 40.770 L 44.420 32.890 L 47.710 41.990 L 48.120 34.880 L 47.620 29.480 L 42.390 28.920 " stroke-width="1"/>
    <path id="ID0.7152888411656022" fill="#8CE83F" d="M 84.270 28.030 L 77.490 29.100 L 76.310 42.500 L 80.810 32.040 L 86.970 39.220 L 86.910 32.700 L 84.270 28.030 " stroke-width="1"/>
    <path id="ID0.7494586776010692" fill="#8CE83F" d="M 69.340 27.930 L 62.550 28.920 L 65.550 41.290 L 73 32.200 L 72.930 28.680 L 69.340 27.930 " stroke-width="1"/>
    <path id="ID0.9078972209244967" fill="#8CE83F" d="M 49.590 36.190 L 50.290 39.860 L 51.220 45.880 L 52.770 36.640 L 50.740 34.350 L 49.590 36.190 " stroke-width="1"/>
    <path id="ID0.2054368034005165" fill="#8CE83F" d="M 80.280 36.690 L 80.670 39.370 L 81.110 43.720 L 83.350 37.590 L 81.550 35.620 L 80.280 36.690 " stroke-width="1"/>
    <path id="ID0.7042235699482262" fill="#8CE83F" d="M 98.890 34.100 L 99.280 36.780 L 99.720 41.130 L 101.960 35.010 L 100.160 33.040 L 98.890 34.100 " stroke-width="1"/>
    <path id="ID0.24741355190053582" fill="#8CE83F" d="M 21.400 33.360 L 21.690 37.030 L 22.690 41.280 L 24.070 34.190 L 22.860 32.110 L 21.400 33.360 " stroke-width="1"/>
    <path id="ID0.38048951467499137" fill="#8CE83F" d="M 122.030 29.150 L 116.600 28.230 L 114.570 41.300 L 118.970 31.610 L 123.240 39.590 L 123.570 33.690 L 122.030 29.150 " stroke-width="1"/>
    <path id="ID0.17553383111953735" fill="#8CE83F" d="M 101.750 29.460 L 104.970 34.580 L 107.070 46.530 L 109.450 32.470 L 112.040 28.130 L 108.390 27.760 L 101.750 29.460 " stroke-width="1"/>
  </g>
</svg>