<svg version="1.1" xmlns="http://www.w3.org/2000/svg" xmlns:xlink="http://www.w3.org/1999/xlink" width="376.7666" height="381.86571" viewBox="0,0,376.7666,381.86571"><defs><linearGradient x1="240.07633" y1="31.61418" x2="240.07633" y2="385.23492" gradientUnits="userSpaceOnUse" id="color-1"><stop offset="0" stop-color="#00ffff"/><stop offset="1" stop-color="#66c0ff"/></linearGradient><linearGradient x1="222.53496" y1="211.76405" x2="222.53496" y2="391.75778" gradientUnits="userSpaceOnUse" id="color-2"><stop offset="0" stop-color="#ffffff"/><stop offset="1" stop-color="#ffffff" stop-opacity="0"/></linearGradient><linearGradient x1="226.92886" y1="209.4637" x2="226.92886" y2="376.62103" gradientUnits="userSpaceOnUse" id="color-3"><stop offset="0" stop-color="#ffffff"/><stop offset="1" stop-color="#ffffff" stop-opacity="0"/></linearGradient><linearGradient x1="189.73941" y1="227.09958" x2="189.73941" y2="395.19848" gradientUnits="userSpaceOnUse" id="color-4"><stop offset="0" stop-color="#ffffff"/><stop offset="1" stop-color="#ffffff" stop-opacity="0"/></linearGradient><linearGradient x1="214.34954" y1="216.36471" x2="214.34954" y2="387.90774" gradientUnits="userSpaceOnUse" id="color-5"><stop offset="0" stop-color="#ffffff"/><stop offset="1" stop-color="#ffffff" stop-opacity="0"/></linearGradient><linearGradient x1="250.78514" y1="228.63314" x2="250.78514" y2="383.29039" gradientUnits="userSpaceOnUse" id="color-6"><stop offset="0" stop-color="#ffffff"/><stop offset="1" stop-color="#ffffff" stop-opacity="0"/></linearGradient><linearGradient x1="316.25834" y1="245.5022" x2="316.25834" y2="349.01707" gradientUnits="userSpaceOnUse" id="color-7"><stop offset="0" stop-color="#ffffff"/><stop offset="1" stop-color="#ffffff" stop-opacity="0"/></linearGradient><linearGradient x1="322.39255" y1="234.00057" x2="322.39255" y2="332.91476" gradientUnits="userSpaceOnUse" id="color-8"><stop offset="0" stop-color="#ffffff"/><stop offset="1" stop-color="#ffffff" stop-opacity="0"/></linearGradient><linearGradient x1="223.89225" y1="249.31011" x2="420.53092" y2="249.31011" gradientUnits="userSpaceOnUse" id="color-9"><stop offset="0" stop-color="#ffffff"/><stop offset="1" stop-color="#ffffff" stop-opacity="0"/></linearGradient><linearGradient x1="221.30293" y1="234.3523" x2="415.72601" y2="234.3523" gradientUnits="userSpaceOnUse" id="color-10"><stop offset="0" stop-color="#ffffff"/><stop offset="1" stop-color="#ffffff" stop-opacity="0"/></linearGradient><linearGradient x1="237.42596" y1="256.60417" x2="393.60483" y2="256.60417" gradientUnits="userSpaceOnUse" id="color-11"><stop offset="0" stop-color="#ffffff"/><stop offset="1" stop-color="#ffffff" stop-opacity="0"/></linearGradient><linearGradient x1="228.02227" y1="230.59219" x2="399.43673" y2="230.59219" gradientUnits="userSpaceOnUse" id="color-12"><stop offset="0" stop-color="#ffffff"/><stop offset="1" stop-color="#ffffff" stop-opacity="0"/></linearGradient><linearGradient x1="240.49208" y1="195.91121" x2="409.14582" y2="195.91121" gradientUnits="userSpaceOnUse" id="color-13"><stop offset="0" stop-color="#ffffff"/><stop offset="1" stop-color="#ffffff" stop-opacity="0"/></linearGradient><linearGradient x1="262.85934" y1="129.54755" x2="396.15678" y2="129.54755" gradientUnits="userSpaceOnUse" id="color-14"><stop offset="0" stop-color="#ffffff"/><stop offset="1" stop-color="#ffffff" stop-opacity="0"/></linearGradient><linearGradient x1="251.48567" y1="120.42895" x2="383.44941" y2="120.42895" gradientUnits="userSpaceOnUse" id="color-15"><stop offset="0" stop-color="#ffffff"/><stop offset="1" stop-color="#ffffff" stop-opacity="0"/></linearGradient><linearGradient x1="228.89225" y1="255.44641" x2="418.21119" y2="255.44641" gradientUnits="userSpaceOnUse" id="color-16"><stop offset="0" stop-color="#ffffff"/><stop offset="1" stop-color="#ffffff" stop-opacity="0"/></linearGradient><linearGradient x1="226.30293" y1="239.3523" x2="420.72601" y2="239.3523" gradientUnits="userSpaceOnUse" id="color-17"><stop offset="0" stop-color="#ffffff"/><stop offset="1" stop-color="#ffffff" stop-opacity="0"/></linearGradient><linearGradient x1="242.42596" y1="261.60417" x2="398.60483" y2="261.60417" gradientUnits="userSpaceOnUse" id="color-18"><stop offset="0" stop-color="#ffffff"/><stop offset="1" stop-color="#ffffff" stop-opacity="0"/></linearGradient><linearGradient x1="233.02227" y1="235.59219" x2="404.43673" y2="235.59219" gradientUnits="userSpaceOnUse" id="color-19"><stop offset="0" stop-color="#ffffff"/><stop offset="1" stop-color="#ffffff" stop-opacity="0"/></linearGradient><linearGradient x1="245.49208" y1="200.91121" x2="414.14582" y2="200.91121" gradientUnits="userSpaceOnUse" id="color-20"><stop offset="0" stop-color="#ffffff"/><stop offset="1" stop-color="#ffffff" stop-opacity="0"/></linearGradient><linearGradient x1="267.85934" y1="134.54755" x2="401.15678" y2="134.54755" gradientUnits="userSpaceOnUse" id="color-21"><stop offset="0" stop-color="#ffffff"/><stop offset="1" stop-color="#ffffff" stop-opacity="0"/></linearGradient><linearGradient x1="256.48567" y1="125.42895" x2="388.44942" y2="125.42895" gradientUnits="userSpaceOnUse" id="color-22"><stop offset="0" stop-color="#ffffff"/><stop offset="1" stop-color="#ffffff" stop-opacity="0"/></linearGradient><linearGradient x1="258.77149" y1="27.39402" x2="258.77149" y2="194.37458" gradientUnits="userSpaceOnUse" id="color-23"><stop offset="0" stop-color="#ffffff" stop-opacity="0"/><stop offset="1" stop-color="#ffffff"/></linearGradient><linearGradient x1="254.8261" y1="33.43303" x2="254.8261" y2="196.84829" gradientUnits="userSpaceOnUse" id="color-24"><stop offset="0" stop-color="#ffffff" stop-opacity="0"/><stop offset="1" stop-color="#ffffff"/></linearGradient><linearGradient x1="275.7143" y1="25.90766" x2="275.7143" y2="179.92442" gradientUnits="userSpaceOnUse" id="color-25"><stop offset="0" stop-color="#ffffff" stop-opacity="0"/><stop offset="1" stop-color="#ffffff"/></linearGradient><linearGradient x1="251.13734" y1="26.81519" x2="251.13734" y2="190.00126" gradientUnits="userSpaceOnUse" id="color-26"><stop offset="0" stop-color="#ffffff" stop-opacity="0"/><stop offset="1" stop-color="#ffffff"/></linearGradient><linearGradient x1="217.27868" y1="25.83277" x2="217.27868" y2="177.54167" gradientUnits="userSpaceOnUse" id="color-27"><stop offset="0" stop-color="#ffffff" stop-opacity="0"/><stop offset="1" stop-color="#ffffff"/></linearGradient><linearGradient x1="155.4688" y1="47.46926" x2="155.4688" y2="157.55108" gradientUnits="userSpaceOnUse" id="color-28"><stop offset="0" stop-color="#ffffff" stop-opacity="0"/><stop offset="1" stop-color="#ffffff"/></linearGradient><linearGradient x1="150.93799" y1="65.95632" x2="150.93799" y2="169.05851" gradientUnits="userSpaceOnUse" id="color-29"><stop offset="0" stop-color="#ffffff" stop-opacity="0"/><stop offset="1" stop-color="#ffffff"/></linearGradient><linearGradient x1="58.79314" y1="175.42525" x2="231.66413" y2="175.42525" gradientUnits="userSpaceOnUse" id="color-30"><stop offset="0" stop-color="#ffffff" stop-opacity="0"/><stop offset="1" stop-color="#ffffff"/></linearGradient><linearGradient x1="56.45941" y1="182.62682" x2="234.12648" y2="182.62682" gradientUnits="userSpaceOnUse" id="color-31"><stop offset="0" stop-color="#ffffff" stop-opacity="0"/><stop offset="1" stop-color="#ffffff"/></linearGradient><linearGradient x1="72.09665" y1="152.61432" x2="217.14154" y2="152.61432" gradientUnits="userSpaceOnUse" id="color-32"><stop offset="0" stop-color="#ffffff" stop-opacity="0"/><stop offset="1" stop-color="#ffffff"/></linearGradient><linearGradient x1="62.67186" y1="175.18056" x2="227.27186" y2="175.18056" gradientUnits="userSpaceOnUse" id="color-33"><stop offset="0" stop-color="#ffffff" stop-opacity="0"/><stop offset="1" stop-color="#ffffff"/></linearGradient><linearGradient x1="57.82999" y1="209.37097" x2="214.81965" y2="209.37097" gradientUnits="userSpaceOnUse" id="color-34"><stop offset="0" stop-color="#ffffff" stop-opacity="0"/><stop offset="1" stop-color="#ffffff"/></linearGradient><linearGradient x1="75.72211" y1="276.59205" x2="195.0468" y2="276.59205" gradientUnits="userSpaceOnUse" id="color-35"><stop offset="0" stop-color="#ffffff" stop-opacity="0"/><stop offset="1" stop-color="#ffffff"/></linearGradient><linearGradient x1="90.20766" y1="284.28234" x2="206.5599" y2="284.28234" gradientUnits="userSpaceOnUse" id="color-36"><stop offset="0" stop-color="#ffffff" stop-opacity="0"/><stop offset="1" stop-color="#ffffff"/></linearGradient><linearGradient x1="246.18705" y1="19.11306" x2="246.18705" y2="377.70882" gradientUnits="userSpaceOnUse" id="color-37"><stop offset="0" stop-color="#ffffff"/><stop offset="1" stop-color="#ffffff" stop-opacity="0"/></linearGradient><linearGradient x1="266.27318" y1="215.57811" x2="244.03812" y2="-16.65651" gradientUnits="userSpaceOnUse" id="color-38"><stop offset="0" stop-color="#ffffff" stop-opacity="0"/><stop offset="1" stop-color="#ffffff"/></linearGradient></defs><g transform="translate(-50.20941,-19.58277)"><g data-paper-data="{&quot;isPaintingLayer&quot;:true}" fill-rule="nonzero" stroke-linejoin="miter" stroke-miterlimit="10" stroke-dasharray="" stroke-dashoffset="0" style="mix-blend-mode: normal"><path d="M422.56495,206.76423c0,58.54548 9.14947,134.33922 -36.62674,165.7421c-29.11266,19.97154 -103.69001,7.68133 -142.05194,7.68133c-32.45404,0 -131.95625,12.62302 -158.18752,-2.05614c-53.52897,-29.9551 -20.49116,-107.08769 -20.49116,-171.36729c0,-54.03495 -6.07011,-123.319 33.84333,-155.12451c30.83473,-24.57103 101.82621,-18.29891 144.83535,-18.29891c46.24992,0 124.43168,-9.9717 156.16106,18.01246c35.97026,31.72447 22.51762,104.52148 22.51762,155.41097z" fill="url(#color-1)" stroke="none" stroke-width="0" stroke-linecap="butt"/><g fill="none" stroke-width="12.5" stroke-linecap="round"><path d="M124.70508,391.75778l93.40584,-179.99373l102.25392,174.12382" stroke="url(#color-2)"/><path d="M88.52567,376.62103l128.05171,-167.15732l148.75468,164.85698" stroke="url(#color-3)"/><path d="M167.50212,395.19848l44.47459,-168.0989" stroke="url(#color-4)"/><path d="M216.57737,216.36471l-4.45566,171.54303" stroke="url(#color-5)"/><path d="M253.21216,383.1382l-34.33446,-154.50506l63.81489,154.65725" stroke="url(#color-6)"/><path d="M244.94811,245.50222l142.62047,103.51485" stroke="url(#color-7)"/><path d="M400.60377,332.91476l-156.42244,-98.91419" stroke="url(#color-8)"/></g><g fill="none" stroke-width="12.5" stroke-linecap="round"><path d="M397.04935,354.04732l-173.1571,-148.42272l196.63867,-61.05171" stroke="url(#color-9)"/><path d="M354.87361,369.37456l-133.57068,-162.78108l194.42308,-107.26345" stroke="url(#color-10)"/><path d="M393.60483,298.1156l-156.17887,-83.02285" stroke="url(#color-11)"/><path d="M228.02227,208.16641l171.41446,44.85157" stroke="url(#color-12)"/><path d="M403.07636,210.55717l-162.58428,-1.83422l168.65374,-27.4577" stroke="url(#color-13)"/><path d="M262.85934,187.18374l133.29744,-115.27235" stroke="url(#color-14)"/><path d="M251.48567,185.30877l131.96374,-129.75965" stroke="url(#color-15)"/></g><g fill="none" stroke-width="12.5" stroke-linecap="round"><path d="M402.04935,359.04732l-173.1571,-148.42272l189.31894,-58.7791" stroke="url(#color-16)"/><path d="M359.87361,374.37456l-133.57068,-162.78108l194.42308,-107.26345" stroke="url(#color-17)"/><path d="M242.42596,220.09274l156.17887,83.02285" stroke="url(#color-18)"/><path d="M233.02227,213.16641l171.41446,44.85156" stroke="url(#color-19)"/><path d="M408.07636,215.55717l-162.58428,-1.83422l168.65374,-27.4577" stroke="url(#color-20)"/><path d="M267.85934,192.18374l133.29744,-115.27235" stroke="url(#color-21)"/><path d="M388.44942,60.54911l-131.96375,129.75965" stroke="url(#color-22)"/></g><g fill="none" stroke-width="12.5" stroke-linecap="round"><path d="M351.79138,27.39402l-115.17197,166.98055l-70.86781,-164.91129" stroke="url(#color-23)"/><path d="M385.76449,46.97745l-147.91057,149.87085l-113.96621,-163.41525" stroke="url(#color-24)"/><path d="M244.61943,179.92442l62.18974,-154.01675" stroke="url(#color-25)"/><path d="M263.55958,26.8152l-24.84447,163.18606" stroke="url(#color-26)"/><path d="M223.92064,27.86803l14.04312,149.67363l-41.37015,-151.70889" stroke="url(#color-27)"/><path d="M214.20227,157.55108l-117.46694,-110.08182" stroke="url(#color-28)"/><path d="M88.34826,65.95632l125.17947,103.10218" stroke="url(#color-29)"/></g><g fill="none" stroke-width="12.5" stroke-linecap="round"><path d="M78.91428,85.68678l152.74985,103.31166l-172.87099,76.16526" stroke="url(#color-30)"/><path d="M93.20561,51.18054l140.92087,136.56088l-177.66707,126.33165" stroke="url(#color-31)"/><path d="M72.09665,124.09798l145.04489,57.03271" stroke="url(#color-32)"/><path d="M227.27186,186.94276l-164.6,-23.52444" stroke="url(#color-33)"/><path d="M57.82999,203.98437l156.98966,-16.17653l-152.64496,43.12625" stroke="url(#color-34)"/><path d="M195.0468,211.75082l-119.32469,129.68245" stroke="url(#color-35)"/><path d="M206.5599,212.32026l-116.35224,143.92412" stroke="url(#color-36)"/></g><path d="M405.39503,170.74934c0,65.21578 -47.54672,118.08361 -106.19857,118.08361c-58.65185,0 -106.19857,-52.86783 -106.19857,-118.08361c0,-65.21578 47.54672,-118.08361 106.19857,-118.08361c58.65185,0 106.19857,52.86783 106.19857,118.08361z" fill="#c37700" stroke="none" stroke-width="0" stroke-linecap="butt"/><path d="M320.3348,99.43912c0,-7.59392 6.15608,-13.75 13.75,-13.75c7.59392,0 13.75,6.15608 13.75,13.75c0,7.59392 -6.15608,13.75 -13.75,13.75c-7.59392,0 -13.75,-6.15608 -13.75,-13.75z" fill="#000000" stroke="none" stroke-width="0.5" stroke-linecap="butt"/><path d="M326.46902,146.97927c0,-7.59392 6.15608,-13.75 13.75,-13.75c7.59392,0 13.75,6.15608 13.75,13.75c0,7.59392 -6.15608,13.75 -13.75,13.75c-7.59392,0 -13.75,-6.15608 -13.75,-13.75z" fill="#000000" stroke="none" stroke-width="0.5" stroke-linecap="butt"/><path d="M278.16209,121.67566c0,-7.59392 6.15608,-13.75 13.75,-13.75c7.59392,0 13.75,6.15608 13.75,13.75c0,7.59392 -6.15608,13.75 -13.75,13.75c-7.59392,0 -13.75,-6.15608 -13.75,-13.75z" fill="#000000" stroke="none" stroke-width="0.5" stroke-linecap="butt"/><path d="M79.59418,202.15726c2.04862,-1.09152 3.61155,-1.37868 5.11936,-1.34728c0.55781,-0.06888 1.12596,-0.10435 1.7024,-0.10435c1.59048,0 3.11789,0.27004 4.53888,0.76678c6.12162,0.20485 12.25249,0.17095 18.37515,0c6.97245,-0.19467 13.63479,-1.63977 20.35446,-2.88812c-1.22355,-10.95632 -3.19396,-21.88871 -5.32176,-32.52769c-0.2113,-0.95799 -0.3227,-1.95349 -0.3227,-2.97501c0,-1.83772 0.36052,-3.59124 1.0147,-5.19369c0.50982,-1.63003 1.29491,-3.16637 2.6652,-4.62361c5.69908,-6.06075 15.54935,-4.89534 20.51942,0.71628c3.96744,4.47957 3.68504,11.3973 4.66575,16.86514c1.73738,9.68657 3.16258,14.1828 3.91828,22.92207c0.0622,0.71935 0.12518,1.4407 0.18867,2.16389c7.23523,-0.1465 14.5073,0.12728 21.41715,0.94007c10.94407,1.28733 17.62436,11.15932 11.60156,21.69922c-4.89657,8.569 -18.13581,5.84718 -25.91779,5.09518c-1.91786,-0.18533 -3.5059,-0.16276 -4.97452,-0.0513c0.63148,12.82341 0.47972,25.66113 -1.74204,37.78306c-1.20419,6.57007 0.91103,15.7525 -6.28972,19.8672c-2.38316,1.36181 -5.20441,2.14844 -7.94922,2.14844c-19.16001,0 -12.36874,-19.27078 -12.21645,-30.22352c0.12267,-8.82234 0.16864,-17.64677 0.10693,-26.47005c-1.94546,0.33581 -3.93906,0.69628 -6.02536,1.07511c-11.05446,2.00724 -25.33312,1.13488 -35.96706,1.17732c-1.87393,0.00748 -4.16401,-0.44924 -6.43509,-1.29733c-1.71851,-0.49251 -3.29923,-1.31106 -4.67094,-2.38443c-3.54952,-2.40255 -6.08515,-5.85037 -5.25547,-9.94995c-0.01859,-0.29263 -0.02803,-0.58775 -0.02803,-0.88507c0,-4.05795 1.75787,-7.70533 4.55366,-10.22218c0.64094,-0.84719 1.41027,-1.5624 2.37459,-2.07619z" fill="#000000" stroke="none" stroke-width="0.5" stroke-linecap="butt"/><path d="M424.91302,198.41095c0,99.02348 -80.01835,179.29789 -178.72597,179.29789c-98.70764,0 -178.72597,-80.2744 -178.72597,-179.29789c0,-45.78041 0.58649,-105.57144 28.73226,-137.2574c32.73381,-36.85109 98.42197,-27.02548 151.49522,-27.02548c50.52257,0 124.67743,-5.99668 157.18377,27.81393c31.00239,32.24632 20.0407,88.12969 20.0407,136.46894z" fill="url(#color-37)" stroke="none" stroke-width="0" stroke-linecap="butt"/><path d="M61.27148,108.49389c-0.80957,-8.45561 4.66659,-11.96081 6.68563,-17.44423c2.62836,-7.13824 2.52717,-15.5428 7.0865,-21.24303c8.36903,-10.46323 17.73041,-21.69941 43.52237,-33.5711c31.22583,-14.37284 75.25162,-4.43611 117.67773,-6.33906c48.18459,-2.16124 66.25372,-4.46302 96.69831,-0.97876c11.42625,1.30769 38.7857,-5.59961 49.54534,1.72375c26.74793,18.20553 31.03766,35.36688 33.51943,61.28775c6.14004,64.12982 -38.50805,118.66006 -149.7336,123.64889c-111.22555,4.98883 -201.86466,-39.95141 -208.00471,-104.08122z" fill="url(#color-38)" stroke="none" stroke-width="0" stroke-linecap="butt"/></g></g></svg>