<svg version="1.1" xmlns="http://www.w3.org/2000/svg" xmlns:xlink="http://www.w3.org/1999/xlink" width="104.13867" height="127.00001" viewBox="0,0,104.13867,127.00001"><defs><linearGradient x1="237.06934" y1="118.50001" x2="237.06934" y2="243.50001" gradientUnits="userSpaceOnUse" id="color-1"><stop offset="0" stop-color="#002999"/><stop offset="1" stop-color="#0e7562"/></linearGradient><linearGradient x1="235.50711" y1="169.86917" x2="235.50711" y2="231.26764" gradientTransform="translate(-154.1388,-162.2939) scale(0.75164,0.75164)" gradientUnits="userSpaceOnUse" id="color-2"><stop offset="0" stop-color="#ffffff"/><stop offset="1" stop-color="#cecece"/></linearGradient><linearGradient x1="240.06934" y1="116.50001" x2="240.06934" y2="165.50001" gradientUnits="userSpaceOnUse" id="color-3"><stop offset="0" stop-color="#ff0000"/><stop offset="1" stop-color="#ef9595"/></linearGradient></defs><g transform="translate(-187.93066,-116.5)"><g data-paper-data="{&quot;isPaintingLayer&quot;:true}" fill-rule="nonzero" stroke="none" stroke-linecap="butt" stroke-linejoin="miter" stroke-miterlimit="10" stroke-dasharray="" stroke-dashoffset="0" style="mix-blend-mode: normal"><g><path d="M286.06934,181.00001c0,34.5178 -21.93804,62.5 -49,62.5c-27.06196,0 -49,-27.9822 -49,-62.5c0,-34.5178 22.93804,-25.5 50,-25.5c27.06196,0 48,-9.0178 48,25.5z" fill="url(#color-1)" stroke-width="0"/><text transform="matrix(1.33042 0 0 1.33042 205.06934 182.65855)" font-size="40"  fill="url(#color-2)" fill-rule="nonzero" stroke="none" stroke-width="1" stroke-linecap="butt" stroke-linejoin="miter" stroke-miterlimit="10" stroke-dasharray="" stroke-dashoffset="0" font-family="Helvetica" font-weight="normal" text-anchor="start" style="mix-blend-mode: normal" >95</text><path d="M292.06934,141.00001c0,8.23288 -5.61888,19.51731 -18.83736,23.95958c-8.50645,2.85872 -21.91772,0.54042 -33.16264,0.54042c-13.9656,0 -34.64533,2.40609 -43.98728,-1.81495c-9.8688,-4.45909 -8.01272,-15.73402 -8.01272,-22.68505c0,-2.49134 2.90598,-9.24332 5.99601,-11.74174c4.75524,-3.84481 11.31454,-1.7209 19.04692,9.53454c2.75286,4.00713 6.92729,3.0929 10.98408,1.70146c2.3979,-0.82246 4.10409,-3.11288 7.21371,-1.12743c3.72444,2.378 3.99614,-22.86684 8.75928,-22.86684c8.86787,0 9.21727,19.04586 16.52288,20.89006c7.30151,1.84317 13.55376,-12.30694 20.45234,-12.20545c8.55273,0.12581 15.02478,10.63833 15.02478,15.81539z" fill="url(#color-3)" stroke-width="0"/></g></g></g></svg>