<svg version="1.1" width="87" height="121" viewBox="0 6 87 121" xmlns="http://www.w3.org/2000/svg" xmlns:xlink="http://www.w3.org/1999/xlink">
  <!-- Exported by Scratch - http://scratch.mit.edu/ -->
  <g id="ID0.6907584136351943" transform="matrix(1.822429895401001, 0, 0, 1.822429895401001, 0, -1)">
    <g id="tail">
      <path id="ID0.6980609633028507" fill="#FFAB19" stroke="#001026" stroke-width="1.2" stroke-linecap="round" stroke-linejoin="round" d="M 21.900 73.800 C 19.500 73.300 16.600 72.500 14.200 70.300 C 8.700 65.400 7 57.300 3.200 59.400 C -0.700 61.500 -0.600 74.600 11.600 78.600 C 15.800 80 19.600 80 22.700 79.900 C 23.500 79.900 30.400 79.200 32.800 75.800 C 35.200 72.400 33.500 71.500 32.700 71.100 C 31.800 70.600 25.300 74.400 21.900 73.800 Z " transform="matrix(-0.953774094581604, -0.30052459239959717, -0.30052459239959717, 0.953774094581604, 102.65, 23.1)"/>
      <path id="detail" fill="#FFFFFF" stroke="none" stroke-width="1" d="M 3.800 59.600 C 1.800 60.200 0.800 64.400 1.800 67.900 C 2.800 71.400 4.400 73.200 5.700 74.500 C 5.500 73.800 5.100 71.600 6.800 70.300 C 8.900 68.600 12.600 69.500 12.600 69.500 C 12.600 69.500 9.500 65.700 7.900 63 C 6.300 60.700 5.800 59.200 3.800 59.600 Z " transform="matrix(-0.953774094581604, -0.30052459239959717, -0.30052459239959717, 0.953774094581604, 102.65, 23.1)"/>
    </g>
    <path id="leg" fill="#FFAB19" stroke="#001026" stroke-width="1.2" stroke-linecap="round" stroke-linejoin="round" d="M 37.700 81.500 C 35.900 82.700 29.700 87.100 21.800 89.600 L 21.400 89.700 C 21 89.800 20.800 90.300 21 90.700 C 22.700 93.100 25.800 97.900 20.300 99.600 C 15 101.300 5.100 87.200 9.300 83.500 C 11.200 82.100 12.900 82.800 13.800 83.200 C 14.300 83.400 14.800 83.400 15.300 83.300 C 16.500 82.900 18.700 82.100 20.400 81.200 C 24.700 79 25.700 78.100 27.700 76.600 C 29.700 75.100 34.300 71.400 38 74.600 C 41.200 77.300 39.400 80.300 37.700 81.500 Z " transform="matrix(-0.953774094581604, -0.30052459239959717, -0.30052459239959717, 0.953774094581604, 102.55, 35.7)"/>
    <path id="arm" fill="#FFAB19" stroke="#001026" stroke-width="1.2" stroke-linecap="round" stroke-linejoin="round" d="M 53.600 60.700 C 54.100 61.100 60.200 68.300 62.200 66.500 C 64.600 64.400 67.900 60.300 71.500 63.600 C 75.100 66.900 68.300 72.500 65.400 74 C 58.500 77.100 52.900 71.200 51.700 69.600 C 50.500 68 48.400 65.300 48.400 62.700 C 48.500 59.900 51.900 59.200 53.600 60.700 Z " transform="matrix(-0.953774094581604, -0.30052459239959717, -0.30052459239959717, 0.953774094581604, 95.85, 26.25)"/>
    <path id="ID0.03367332322522998" fill="#FFAB19" stroke="#1F2324" stroke-width="1" stroke-linecap="round" d="M 245.250 189.750 C 247.427 189.357 250.345 186.460 251.700 188.150 C 254.973 192.272 255.778 198.109 256 203.250 C 256.144 206.594 254.795 210.350 252.849 212.793 C 250.903 215.237 248.216 216.750 245.250 216.750 C 242.284 216.750 239.597 215.237 237.651 212.793 C 235.705 210.350 234.678 206.592 234.500 203.250 C 234.278 199.089 233.825 194.040 236.450 190.700 C 238.288 188.435 242.351 190.273 245.250 189.750 Z " transform="matrix(1.534554362297058, 0.48352259397506714, -0.48352259397506714, 1.534554362297058, -239.5, -343.95)"/>
    <path id="ID0.25669877184554935" fill="#FFFFFF" stroke="none" stroke-linecap="round" d="M 247.800 192.350 C 251.187 192.101 255.346 193.228 257.400 195.850 C 260.606 199.941 262.191 205.690 262.050 210.750 C 261.909 215.899 259.536 221.064 256.400 225.150 C 254.655 227.301 251.330 228.042 248.550 228 C 245.306 227.952 240.893 227.758 239.050 225 C 235.938 220.344 235.347 214.038 235.200 208.350 C 235.106 204.734 235.767 200.662 238.050 197.850 C 240.388 194.973 244.121 192.831 247.800 192.350 Z " transform="matrix(0.953774094581604, 0.30052459239959717, -0.30052459239959717, 0.953774094581604, -134.75, -188.75)"/>
    <path id="ID0.5333547224290669" fill="#FFAB19" stroke="#001026" stroke-width="1.2" d="M 53.100 9 C 50.800 8.600 48.400 8.400 45.600 8.600 C 40.900 8.800 36.400 10.500 36.400 10.500 L 24.300 2.600 C 23.900 2.400 23.400 2.700 23.500 3.100 L 25.600 21 C 26.200 20.200 15 33.800 22.100 45.200 C 29.200 56.600 44.300 61.700 63.100 58 C 81.900 54.300 86.300 43.500 85.100 37.800 C 83.900 32.100 76.800 30 76.800 30 C 76.800 30 76.700 25.500 73.500 20 C 71.600 16.700 65.200 12 65.200 12 L 62.600 1.300 C 62.500 0.900 62 0.800 61.700 1 L 53.100 9 Z " transform="matrix(-0.953774094581604, -0.30052459239959717, -0.30052459239959717, 0.953774094581604, 108.25, 26.05)"/>
    <path id="face" fill="#FFFFFF" stroke="none" stroke-width="1" d="M 76.500 30.400 C 76.500 30.400 83.400 32.200 84.600 37.900 C 85.800 43.600 81 53.900 62.400 57.500 C 38.200 62.500 26.700 48.100 33.400 37.500 C 40.100 26.800 51.600 35.900 60 35.300 C 67.200 34.800 68 28.500 76.500 30.400 Z " transform="matrix(-0.953774094581604, -0.30052459239959717, -0.30052459239959717, 0.953774094581604, 108.25, 26.05)"/>
    <path id="mouth" fill="#FFFFFF" stroke="#001026" stroke-width="1.2" stroke-linecap="round" stroke-linejoin="round" d="M 54.250 51.500 C 52.343 51.797 47.430 54.407 49 54.500 C 53.441 54.766 65.856 52.926 66.750 52.500 C 67.630 52.074 58.477 51.106 54.250 51.500 Z " transform="matrix(-0.953774094581604, -0.30052459239959717, -0.30052459239959717, 0.953774094581604, 108.25, 26.05)"/>
    <path id="whisker" fill="none" stroke="#001026" stroke-width="1.2" stroke-linecap="round" stroke-linejoin="round" d="M 83 35.400 C 83 35.400 90.200 35.300 94.900 31.500 " transform="matrix(-0.953774094581604, -0.30052459239959717, -0.30052459239959717, 0.953774094581604, 108.25, 26.05)"/>
    <path id="whisker" fill="none" stroke="#001026" stroke-width="1.2" stroke-linecap="round" stroke-linejoin="round" d="M 83.400 41.300 C 83.400 41.300 87.300 43.200 93.600 42.700 " transform="matrix(-0.953774094581604, -0.30052459239959717, -0.30052459239959717, 0.953774094581604, 108.25, 26.05)"/>
    <path id="nose" fill="#001026" stroke="#001026" stroke-width="1.2" stroke-linecap="round" stroke-linejoin="round" d="M 59.600 32.700 C 61.700 32.700 63.900 32.900 64 33.600 C 64.100 35 62.600 37.800 61 37.900 C 59.200 38.100 55 35.600 55 34 C 54.900 32.800 57.600 32.700 59.600 32.700 Z " transform="matrix(-0.953774094581604, -0.30052459239959717, -0.30052459239959717, 0.953774094581604, 108.25, 26.05)"/>
    <path id="whisker" fill="none" stroke="#001026" stroke-width="1.2" stroke-linecap="round" stroke-linejoin="round" d="M 14.600 31.200 C 14.600 31.200 23.200 34 26.700 37.100 " transform="matrix(-0.953774094581604, -0.30052459239959717, -0.30052459239959717, 0.953774094581604, 108.25, 26.05)"/>
    <path id="whisker" fill="none" stroke="#001026" stroke-width="1.2" stroke-linecap="round" stroke-linejoin="round" d="M 15.300 41.200 C 15.300 41.200 22.700 42.300 27 40.600 " transform="matrix(-0.953774094581604, -0.30052459239959717, -0.30052459239959717, 0.953774094581604, 108.25, 26.05)"/>
    <path id="pupil" fill="#FFFFFF" stroke="#001026" stroke-width="1.2" stroke-linecap="round" stroke-linejoin="round" d="M 71.400 21 C 73.636 25.079 73.996 30.130 71.600 32.400 C 69.521 34.223 65.736 31.793 63.250 30.500 C 61.470 29.360 60.179 27.947 59.500 25.500 C 59.190 23.356 62.002 21.740 63 19.750 C 63.695 18.349 63.550 15.224 65 15.500 C 67.720 16.025 69.322 17.324 71.400 21 Z " transform="matrix(-0.953774094581604, -0.30052459239959717, -0.30052459239959717, 0.953774094581604, 108.25, 26.05)"/>
    <path id="pupil" fill="#001026" stroke="none" stroke-width="1" d="M 71 26.700 C 71 27.800 70.200 28.700 69.200 28.700 C 68.200 28.700 67.400 27.800 67.400 26.700 C 67.400 25.600 68.200 24.700 69.200 24.700 C 70.200 24.700 71 25.600 71 26.700 " transform="matrix(-0.953774094581604, -0.30052459239959717, -0.30052459239959717, 0.953774094581604, 110.4, 27.55)"/>
    <path id="ID0.22553515946492553" fill="#FFFFFF" stroke="#001026" stroke-width="1.2" stroke-linecap="round" stroke-linejoin="round" d="M 46.600 23.800 C 47.825 27.538 49.400 33.600 46.700 35.500 C 43.400 37.400 39 36 36 31.600 C 32.900 27.200 33.736 22.358 35.800 19.300 C 37.037 17.497 40.110 21.240 42.250 22.250 C 43.712 22.741 46.056 22.228 46.600 23.800 Z " transform="matrix(-0.953774094581604, -0.30052459239959717, -0.30052459239959717, 0.953774094581604, 108.25, 26.05)"/>
    <path id="pupil" fill="#001026" stroke="none" stroke-width="1" d="M 46 29.600 C 46 30.700 45.200 31.600 44.200 31.600 C 43.200 31.600 42.400 30.700 42.400 29.600 C 42.400 28.500 43.200 27.600 44.200 27.600 C 45.200 27.700 46 28.500 46 29.600 " transform="matrix(-0.953774094581604, -0.30052459239959717, -0.30052459239959717, 0.953774094581604, 110.85, 27.7)"/>
    <path id="arm" fill="#FFAB19" stroke="#001026" stroke-width="1.2" stroke-linecap="round" stroke-linejoin="round" d="M 30.200 68.400 C 32.400 71.200 35.800 74.700 31.500 77.600 C 25.600 80.900 20.700 70.900 19.700 67.400 C 18.800 64.300 21.400 62.300 23.600 60.600 C 27.900 57.500 31.500 54.700 35.500 56.200 C 40.500 58 36.900 62 34.400 63.800 C 32.900 64.900 31.400 66.100 30.300 66.800 C 30 67.300 29.900 67.900 30.200 68.400 Z " transform="matrix(-0.953774094581604, -0.30052459239959717, -0.27314627170562744, 0.8668835759162903, 107.1, 37.8)"/>
    <g id="ID0.10122523736208677">
      <path id="ID0.5151403779163957" fill="#FFAB19" stroke="#000000" stroke-width="2" d="M 140.375 166 C 145.513 166 150.170 167.863 153.541 170.872 C 156.913 173.882 159 178.038 159 182.625 C 159 187.212 156.913 191.368 153.541 194.378 C 150.170 197.387 145.513 199.250 140.375 199.250 C 135.237 199.250 130.580 197.387 127.209 194.378 C 123.837 191.368 121.750 187.212 121.750 182.625 C 121.750 178.038 123.837 173.882 127.209 170.872 C 130.580 167.863 135.237 166 140.375 166 Z " transform="matrix(0.38705623149871826, 0.12195751816034317, -0.12195751816034317, 0.38705623149871826, -22.2, -20.2)"/>
      <path id="ID0.30931515945121646" fill="#FFAB19" stroke="#000000" stroke-width="2" stroke-linecap="round" d="M 151.250 168.250 C 152.358 169.237 153.641 170.311 154.250 171.750 C 155.092 173.785 154.637 176.250 154.500 178.375 C 154.378 180.313 153.982 182.516 153.145 183.942 C 152.307 185.368 151.151 186.250 149.875 186.250 C 148.599 186.250 147.443 185.368 146.605 183.942 C 145.768 182.516 145.303 180.284 145.250 178.375 C 145.151 174.786 144.453 170.443 146.250 167.250 C 147.010 165.903 149.576 167.672 151.250 168.250 Z " transform="matrix(0.38705623149871826, 0.12195751816034317, -0.12195751816034317, 0.38705623149871826, -22.2, -20.2)"/>
      <path id="ID0.6361168920993805" fill="#FFAB19" stroke="#000000" stroke-width="2" stroke-linecap="round" d="M 141.125 166.500 C 142.131 166.397 143.605 166.662 144 167.500 C 144.890 169.995 144.563 172.768 144.500 175.250 C 144.448 177.379 144.122 179.852 143.511 181.436 C 142.900 183.020 142.056 184 141.125 184 C 140.194 184 139.350 183.020 138.739 181.436 C 138.128 179.852 137.707 177.413 137.750 175.250 C 137.802 172.763 138.147 170.154 139 167.750 C 139.349 167.039 140.248 166.600 141.125 166.500 Z " transform="matrix(0.38705623149871826, 0.12195751816034317, -0.12195751816034317, 0.38705623149871826, -22.6, -20.5)"/>
      <path id="ID0.05323290079832077" fill="#FFAB19" stroke="#000000" stroke-width="2" stroke-linecap="round" d="M 133.375 181.500 C 136.104 182.078 139.488 182.102 141.593 183.075 C 143.697 184.048 145 185.392 145 186.875 C 145 188.358 143.697 189.702 141.593 190.675 C 139.488 191.648 136.181 192.106 133.375 192.250 C 130.752 192.381 128.179 192.811 126 191.750 C 124.084 190.823 122.865 188.759 122.500 186.750 C 121.739 184.182 120.432 179.907 122.750 178.750 C 126.010 177.272 129.975 180.774 133.375 181.500 Z " transform="matrix(0.38705623149871826, 0.12195751816034317, -0.12195751816034317, 0.38705623149871826, -22.2, -20.2)"/>
      <path id="ID0.08617337374016643" fill="#FFAB19" stroke="#000000" stroke-width="2" stroke-linecap="round" d="M 133.750 168.250 C 134.537 167.937 135.974 167.948 136.250 168.750 C 137.184 171.613 136.812 174.895 136.750 177.750 C 136.709 179.724 136.386 182.089 135.797 183.582 C 135.209 185.076 134.397 186 133.500 186 C 132.603 186 131.791 185.076 131.203 183.582 C 130.614 182.089 130.355 179.843 130.250 177.750 C 130.135 175.543 129.279 173.282 130 171.250 C 130.573 169.813 132.264 168.848 133.750 168.250 Z " transform="matrix(0.38705623149871826, 0.12195751816034317, -0.12195751816034317, 0.38705623149871826, -22.85, -20.7)"/>
    </g>
  </g>
</svg>