<svg xmlns="http://www.w3.org/2000/svg" xmlns:xlink="http://www.w3.org/1999/xlink" version="1.1" width="732.2999877929688" height="192.92999267578125" viewBox="0 0 732.2999877929688 192.92999267578125">
  <!-- Exported by Scratch - http://scratch.mit.edu/ -->
  <g id="ID0.5983340404927731">
    <path id="ID0.30694269575178623" d="M 174.58 134.68 C 175.4 135.2 176.58 135.6 177.83 135.6 C 179.7 135.6 180.79 134.61 180.79 133.19 C 180.79 131.89 180.03 131.11 178.12 130.4 C 175.81 129.56 174.38 128.34 174.38 126.37 C 174.38 124.17 176.21 122.53 178.96 122.53 C 180.39 122.53 181.46 122.87 182.07 123.22 L 181.57 124.71 C 181.13 124.44 180.18 124.04 178.9 124.04 C 176.97 124.04 176.23 125.19 176.23 126.16 C 176.23 127.48 177.09 128.13 179.04 128.89 C 181.43 129.81 182.63 130.97 182.63 133.05 C 182.63 135.23 181.03 137.14 177.7 137.14 C 176.33 137.14 174.84 136.72 174.09 136.22 L 174.58 134.68 Z " stroke-width="1" />
    <path id="ID0.04928598599508405" d="M 192.47 136.55 C 191.99 136.78 190.92 137.14 189.55 137.14 C 186.48 137.14 184.49 135.06 184.49 131.95 C 184.49 128.82 186.63 126.53 189.95 126.53 C 191.04 126.53 192.01 126.8 192.51 127.08 L 192.1 128.49 C 191.66 128.26 190.96 128 189.95 128 C 187.62 128 186.36 129.74 186.36 131.84 C 186.36 134.19 187.87 135.64 189.89 135.64 C 190.94 135.64 191.63 135.39 192.16 135.16 L 192.47 136.55 Z " stroke-width="1" />
    <path id="ID0.11963531095534563" d="M 194.64 129.92 C 194.64 128.72 194.62 127.69 194.56 126.75 L 196.18 126.75 L 196.26 128.77 L 196.32 128.77 C 196.78 127.41 197.92 126.54 199.15 126.54 C 199.34 126.54 199.49 126.56 199.65 126.58 L 199.65 128.32 C 199.46 128.28 199.27 128.28 199.02 128.28 C 197.72 128.28 196.79 129.25 196.54 130.63 C 196.5 130.88 196.48 131.2 196.48 131.49 L 196.48 136.91 L 194.63 136.91 L 194.63 129.92 Z " stroke-width="1" />
    <path id="ID0.017180525232106447" d="M 208.54 134.47 C 208.54 135.35 208.58 136.21 208.69 136.91 L 207.03 136.91 L 206.88 135.63 L 206.82 135.63 C 206.25 136.43 205.16 137.14 203.71 137.14 C 201.65 137.14 200.6 135.69 200.6 134.22 C 200.6 131.76 202.78 130.42 206.71 130.44 L 206.71 130.23 C 206.71 129.41 206.48 127.88 204.4 127.9 C 203.43 127.9 202.45 128.17 201.73 128.66 L 201.31 127.42 C 202.15 126.9 203.39 126.54 204.67 126.54 C 207.78 126.54 208.53 128.66 208.53 130.68 L 208.53 134.47 Z M 206.75 131.72 C 204.73 131.68 202.45 132.03 202.45 134.01 C 202.45 135.23 203.25 135.77 204.17 135.77 C 205.51 135.77 206.37 134.93 206.67 134.07 C 206.73 133.86 206.75 133.65 206.75 133.48 L 206.75 131.72 Z " stroke-width="1" />
    <path id="ID0.6886046095751226" d="M 213.66 124.31 L 213.66 126.75 L 216.31 126.75 L 216.31 128.16 L 213.66 128.16 L 213.66 133.64 C 213.66 134.9 214.02 135.61 215.05 135.61 C 215.55 135.61 215.85 135.57 216.12 135.48 L 216.2 136.89 C 215.84 137.02 215.28 137.14 214.56 137.14 C 213.7 137.14 213.01 136.85 212.56 136.36 C 212.06 135.79 211.85 134.89 211.85 133.69 L 211.85 128.15 L 210.28 128.15 L 210.28 126.75 L 211.85 126.75 L 211.85 124.86 L 213.66 124.31 Z " stroke-width="1" />
    <path id="ID0.49371696170419455" d="M 225.51 136.55 C 225.03 136.78 223.96 137.14 222.59 137.14 C 219.52 137.14 217.53 135.06 217.53 131.95 C 217.53 128.82 219.67 126.53 222.99 126.53 C 224.08 126.53 225.05 126.8 225.55 127.08 L 225.13 128.49 C 224.69 128.26 224 128 222.99 128 C 220.66 128 219.4 129.74 219.4 131.84 C 219.4 134.19 220.91 135.64 222.93 135.64 C 223.98 135.64 224.67 135.39 225.2 135.16 L 225.51 136.55 Z " stroke-width="1" />
    <path id="ID0.6056899018585682" d="M 227.67 122 L 229.52 122 L 229.52 128.36 L 229.56 128.36 C 229.85 127.84 230.32 127.35 230.88 127.04 C 231.43 126.73 232.08 126.54 232.77 126.54 C 234.13 126.54 236.32 127.38 236.32 130.87 L 236.32 136.92 L 234.47 136.92 L 234.47 131.07 C 234.47 129.43 233.86 128.07 232.12 128.07 C 230.92 128.07 230 128.91 229.64 129.9 C 229.53 130.17 229.51 130.45 229.51 130.78 L 229.51 136.91 L 227.66 136.91 L 227.66 122 Z " stroke-width="1" />
    <path id="ID0.18107888661324978" d="M 250.92 134.47 C 250.92 135.35 250.96 136.21 251.07 136.91 L 249.41 136.91 L 249.26 135.63 L 249.2 135.63 C 248.63 136.43 247.54 137.14 246.09 137.14 C 244.03 137.14 242.98 135.69 242.98 134.22 C 242.98 131.76 245.16 130.42 249.09 130.44 L 249.09 130.23 C 249.09 129.41 248.86 127.88 246.78 127.9 C 245.81 127.9 244.83 128.17 244.11 128.66 L 243.69 127.42 C 244.53 126.9 245.77 126.54 247.05 126.54 C 250.16 126.54 250.91 128.66 250.91 130.68 L 250.91 134.47 Z M 249.13 131.72 C 247.11 131.68 244.83 132.03 244.83 134.01 C 244.83 135.23 245.63 135.77 246.55 135.77 C 247.89 135.77 248.75 134.93 249.05 134.07 C 249.11 133.86 249.13 133.65 249.13 133.48 L 249.13 131.72 Z " stroke-width="1" />
    <path id="ID0.1851696497760713" d="M 253.9 129.5 C 253.9 128.43 253.88 127.59 253.82 126.75 L 255.46 126.75 L 255.56 128.43 L 255.6 128.43 C 256.1 127.49 257.28 126.54 258.96 126.54 C 260.37 126.54 262.55 127.38 262.55 130.87 L 262.55 136.92 L 260.7 136.92 L 260.7 131.05 C 260.7 129.41 260.09 128.05 258.35 128.05 C 257.15 128.05 256.21 128.91 255.87 129.94 C 255.79 130.17 255.74 130.49 255.74 130.8 L 255.74 136.91 L 253.9 136.91 L 253.9 129.5 Z " stroke-width="1" />
    <path id="ID0.605625971686095" d="M 274.31 122 L 274.31 134.28 C 274.31 135.18 274.35 136.21 274.39 136.9 L 272.75 136.9 L 272.67 135.14 L 272.61 135.14 C 272.06 136.27 270.85 137.13 269.19 137.13 C 266.73 137.13 264.82 135.05 264.82 131.96 C 264.8 128.58 266.92 126.52 269.38 126.52 C 270.95 126.52 271.98 127.25 272.45 128.05 L 272.49 128.05 L 272.49 122 L 274.31 122 Z M 272.48 130.88 C 272.48 130.65 272.46 130.33 272.4 130.1 C 272.13 128.95 271.12 127.98 269.73 127.98 C 267.82 127.98 266.69 129.66 266.69 131.89 C 266.69 133.95 267.72 135.65 269.69 135.65 C 270.93 135.65 272.06 134.81 272.4 133.45 C 272.46 133.2 272.48 132.95 272.48 132.65 L 272.48 130.88 Z " stroke-width="1" />
    <path id="ID0.2555657187476754" d="M 281.85 122 L 283.7 122 L 283.7 128.36 L 283.74 128.36 C 284.03 127.84 284.5 127.35 285.06 127.04 C 285.61 126.73 286.26 126.54 286.95 126.54 C 288.32 126.54 290.5 127.38 290.5 130.87 L 290.5 136.92 L 288.65 136.92 L 288.65 131.07 C 288.65 129.43 288.04 128.07 286.3 128.07 C 285.1 128.07 284.18 128.91 283.82 129.9 C 283.72 130.17 283.69 130.45 283.69 130.78 L 283.69 136.91 L 281.84 136.91 L 281.84 122 Z " stroke-width="1" />
    <path id="ID0.03987166751176119" d="M 295.56 123.89 C 295.56 124.52 295.12 125.02 294.38 125.02 C 293.71 125.02 293.27 124.52 293.27 123.89 C 293.27 123.26 293.73 122.74 294.42 122.74 C 295.1 122.73 295.56 123.24 295.56 123.89 Z M 293.5 136.91 L 293.5 126.75 L 295.35 126.75 L 295.35 136.91 L 293.5 136.91 Z " stroke-width="1" />
    <path id="ID0.7526084133423865" d="M 298.17 135.04 C 298.74 135.38 299.7 135.75 300.63 135.75 C 301.95 135.75 302.58 135.1 302.58 134.24 C 302.58 133.36 302.06 132.9 300.71 132.39 C 298.86 131.72 298 130.73 298 129.52 C 298 127.88 299.34 126.54 301.51 126.54 C 302.54 126.54 303.44 126.81 303.99 127.17 L 303.55 128.51 C 303.15 128.26 302.42 127.9 301.47 127.9 C 300.38 127.9 299.79 128.53 299.79 129.29 C 299.79 130.13 300.38 130.51 301.7 131.03 C 303.44 131.68 304.37 132.56 304.37 134.07 C 304.37 135.88 302.96 137.14 300.59 137.14 C 299.48 137.14 298.45 136.85 297.73 136.43 L 298.17 135.04 Z " stroke-width="1" />
    <path id="ID0.2985003897920251" d="M 318.43 136.55 C 317.95 136.78 316.88 137.14 315.51 137.14 C 312.44 137.14 310.45 135.06 310.45 131.95 C 310.45 128.82 312.59 126.53 315.91 126.53 C 317 126.53 317.97 126.8 318.47 127.08 L 318.05 128.49 C 317.61 128.26 316.92 128 315.91 128 C 313.58 128 312.32 129.74 312.32 131.84 C 312.32 134.19 313.83 135.64 315.85 135.64 C 316.9 135.64 317.59 135.39 318.12 135.16 L 318.43 136.55 Z " stroke-width="1" />
    <path id="ID0.31308664521202445" d="M 329.1 134.11 C 329.1 135.18 329.12 136.1 329.18 136.9 L 327.54 136.9 L 327.44 135.24 L 327.4 135.24 C 326.94 136.06 325.85 137.13 324.04 137.13 C 322.44 137.13 320.53 136.23 320.53 132.68 L 320.53 126.75 L 322.38 126.75 L 322.38 132.36 C 322.38 134.29 322.99 135.61 324.65 135.61 C 325.89 135.61 326.75 134.75 327.09 133.91 C 327.19 133.66 327.26 133.32 327.26 132.97 L 327.26 126.75 L 329.11 126.75 L 329.11 134.11 Z " stroke-width="1" />
    <path id="ID0.4985573529265821" d="M 334.39 124.31 L 334.39 126.75 L 337.03 126.75 L 337.03 128.16 L 334.39 128.16 L 334.39 133.64 C 334.39 134.9 334.75 135.61 335.77 135.61 C 336.27 135.61 336.57 135.57 336.84 135.48 L 336.92 136.89 C 336.56 137.02 336 137.14 335.28 137.14 C 334.42 137.14 333.73 136.85 333.29 136.36 C 332.79 135.79 332.58 134.89 332.58 133.69 L 332.58 128.15 L 331.01 128.15 L 331.01 126.75 L 332.58 126.75 L 332.58 124.86 L 334.39 124.31 Z " stroke-width="1" />
    <path id="ID0.3055649437010288" d="M 340.02 132.16 C 340.06 134.66 341.64 135.69 343.51 135.69 C 344.83 135.69 345.65 135.46 346.32 135.17 L 346.66 136.49 C 346.01 136.78 344.88 137.14 343.26 137.14 C 340.13 137.14 338.26 135.06 338.26 132 C 338.26 128.94 340.07 126.54 343.03 126.54 C 346.37 126.54 347.23 129.44 347.23 131.31 C 347.23 131.69 347.21 131.96 347.17 132.17 L 340.02 132.17 Z M 345.44 130.84 C 345.46 129.69 344.96 127.86 342.88 127.86 C 340.99 127.86 340.19 129.56 340.05 130.84 L 345.44 130.84 Z " stroke-width="1" />
    <path id="ID0.5088575072586536" d="M 357.95 122.34 C 356.42 124.42 355.33 127.13 355.33 130.95 C 355.33 134.69 356.49 137.35 357.95 139.45 L 356.52 139.45 C 355.2 137.71 353.77 135.02 353.77 130.93 C 353.79 126.81 355.2 124.11 356.52 122.34 L 357.95 122.34 Z " stroke-width="1" />
    <path id="ID0.017917383462190628" d="M 367.17 136.55 C 366.69 136.78 365.62 137.14 364.25 137.14 C 361.18 137.14 359.19 135.06 359.19 131.95 C 359.19 128.82 361.33 126.53 364.65 126.53 C 365.74 126.53 366.71 126.8 367.21 127.08 L 366.79 128.49 C 366.35 128.26 365.66 128 364.65 128 C 362.32 128 361.06 129.74 361.06 131.84 C 361.06 134.19 362.57 135.64 364.59 135.64 C 365.64 135.64 366.33 135.39 366.86 135.16 L 367.17 136.55 Z " stroke-width="1" />
    <path id="ID0.2813965925015509" d="M 369.33 122 L 371.18 122 L 371.18 136.91 L 369.33 136.91 L 369.33 122 Z " stroke-width="1" />
    <path id="ID0.6724240467883646" d="M 383.49 131.74 C 383.49 135.5 380.86 137.14 378.43 137.14 C 375.7 137.14 373.56 135.12 373.56 131.91 C 373.56 128.53 375.81 126.53 378.6 126.53 C 381.51 126.54 383.49 128.66 383.49 131.74 Z M 375.45 131.85 C 375.45 134.08 376.71 135.76 378.51 135.76 C 380.27 135.76 381.6 134.1 381.6 131.81 C 381.6 130.09 380.74 127.93 378.56 127.93 C 376.39 127.92 375.45 129.94 375.45 131.85 Z " stroke-width="1" />
    <path id="ID0.06763129634782672" d="M 385.82 129.5 C 385.82 128.43 385.8 127.59 385.74 126.75 L 387.38 126.75 L 387.48 128.43 L 387.52 128.43 C 388.02 127.49 389.2 126.54 390.88 126.54 C 392.29 126.54 394.47 127.38 394.47 130.87 L 394.47 136.92 L 392.62 136.92 L 392.62 131.05 C 392.62 129.41 392.01 128.05 390.27 128.05 C 389.07 128.05 388.13 128.91 387.79 129.94 C 387.71 130.17 387.66 130.49 387.66 130.8 L 387.66 136.91 L 385.81 136.91 L 385.81 129.5 Z " stroke-width="1" />
    <path id="ID0.16917875409126282" d="M 398.5 132.16 C 398.54 134.66 400.12 135.69 401.99 135.69 C 403.31 135.69 404.13 135.46 404.8 135.17 L 405.14 136.49 C 404.49 136.78 403.36 137.14 401.74 137.14 C 398.61 137.14 396.74 135.06 396.74 132 C 396.74 128.94 398.55 126.54 401.51 126.54 C 404.85 126.54 405.71 129.44 405.71 131.31 C 405.71 131.69 405.69 131.96 405.65 132.17 L 398.5 132.17 Z M 403.92 130.84 C 403.94 129.69 403.44 127.86 401.36 127.86 C 399.47 127.86 398.67 129.56 398.53 130.84 L 403.92 130.84 Z " stroke-width="1" />
    <path id="ID0.21876696730032563" d="M 416.75 122 L 416.75 134.28 C 416.75 135.18 416.79 136.21 416.83 136.9 L 415.19 136.9 L 415.11 135.14 L 415.05 135.14 C 414.51 136.27 413.29 137.13 411.63 137.13 C 409.17 137.13 407.26 135.05 407.26 131.96 C 407.24 128.58 409.36 126.52 411.82 126.52 C 413.39 126.52 414.42 127.25 414.88 128.05 L 414.92 128.05 L 414.92 122 L 416.75 122 Z M 414.92 130.88 C 414.92 130.65 414.9 130.33 414.84 130.1 C 414.57 128.95 413.56 127.98 412.17 127.98 C 410.26 127.98 409.13 129.66 409.13 131.89 C 409.13 133.95 410.16 135.65 412.13 135.65 C 413.37 135.65 414.5 134.81 414.84 133.45 C 414.9 133.2 414.92 132.95 414.92 132.65 L 414.92 130.88 Z " stroke-width="1" />
    <path id="ID0.762245218269527" d="M 418.73 139.45 C 420.2 137.37 421.35 134.66 421.35 130.88 C 421.35 127.1 420.22 124.43 418.73 122.33 L 420.16 122.33 C 421.48 124.05 422.91 126.76 422.91 130.88 C 422.89 135 421.48 137.68 420.16 139.45 L 418.73 139.45 Z " stroke-width="1" />
    <path id="ID0.6326927370391786" d="M 430 135.04 C 430.57 135.38 431.53 135.75 432.46 135.75 C 433.78 135.75 434.41 135.1 434.41 134.24 C 434.41 133.36 433.89 132.9 432.54 132.39 C 430.69 131.72 429.83 130.73 429.83 129.51 C 429.83 127.87 431.17 126.53 433.34 126.53 C 434.37 126.53 435.27 126.8 435.82 127.16 L 435.38 128.5 C 434.98 128.25 434.25 127.89 433.3 127.89 C 432.21 127.89 431.62 128.52 431.62 129.28 C 431.62 130.12 432.21 130.5 433.53 131.02 C 435.27 131.67 436.2 132.55 436.2 134.06 C 436.2 135.87 434.79 137.13 432.42 137.13 C 431.31 137.13 430.28 136.84 429.56 136.42 L 430 135.04 Z " stroke-width="1" />
    <path id="ID0.8101190351881087" d="M 445.81 136.55 C 445.33 136.78 444.26 137.14 442.89 137.14 C 439.83 137.14 437.83 135.06 437.83 131.95 C 437.83 128.82 439.97 126.53 443.29 126.53 C 444.38 126.53 445.35 126.8 445.85 127.08 L 445.43 128.49 C 445 128.26 444.3 128 443.29 128 C 440.96 128 439.7 129.74 439.7 131.84 C 439.7 134.19 441.21 135.64 443.23 135.64 C 444.28 135.64 444.97 135.39 445.5 135.16 L 445.81 136.55 Z " stroke-width="1" />
    <path id="ID0.9874450154602528" d="M 447.98 129.92 C 447.98 128.72 447.96 127.69 447.9 126.75 L 449.52 126.75 L 449.6 128.77 L 449.66 128.77 C 450.12 127.41 451.26 126.54 452.49 126.54 C 452.68 126.54 452.83 126.56 452.99 126.58 L 452.99 128.32 C 452.8 128.28 452.61 128.28 452.36 128.28 C 451.06 128.28 450.13 129.25 449.88 130.63 C 449.84 130.88 449.82 131.2 449.82 131.49 L 449.82 136.91 L 447.97 136.91 L 447.97 129.92 Z " stroke-width="1" />
    <path id="ID0.8854131596162915" d="M 461.88 134.47 C 461.88 135.35 461.92 136.21 462.03 136.91 L 460.37 136.91 L 460.22 135.63 L 460.16 135.63 C 459.59 136.43 458.5 137.14 457.05 137.14 C 454.99 137.14 453.94 135.69 453.94 134.22 C 453.94 131.76 456.12 130.42 460.05 130.44 L 460.05 130.23 C 460.05 129.41 459.82 127.88 457.74 127.9 C 456.78 127.9 455.79 128.17 455.07 128.66 L 454.65 127.42 C 455.49 126.9 456.73 126.54 458.01 126.54 C 461.12 126.54 461.87 128.66 461.87 130.68 L 461.87 134.47 Z M 460.09 131.72 C 458.07 131.68 455.79 132.03 455.79 134.01 C 455.79 135.23 456.59 135.77 457.51 135.77 C 458.85 135.77 459.72 134.93 460.01 134.07 C 460.07 133.86 460.09 133.65 460.09 133.48 L 460.09 131.72 Z " stroke-width="1" />
    <path id="ID0.5382555108517408" d="M 467 124.31 L 467 126.75 L 469.65 126.75 L 469.65 128.16 L 467 128.16 L 467 133.64 C 467 134.9 467.36 135.61 468.39 135.61 C 468.89 135.61 469.19 135.57 469.46 135.48 L 469.54 136.89 C 469.18 137.02 468.62 137.14 467.9 137.14 C 467.04 137.14 466.35 136.85 465.91 136.36 C 465.41 135.79 465.2 134.89 465.2 133.69 L 465.2 128.15 L 463.62 128.15 L 463.62 126.75 L 465.2 126.75 L 465.2 124.86 L 467 124.31 Z " stroke-width="1" />
    <path id="ID0.7299850988201797" d="M 478.85 136.55 C 478.37 136.78 477.3 137.14 475.93 137.14 C 472.87 137.14 470.87 135.06 470.87 131.95 C 470.87 128.82 473.01 126.53 476.33 126.53 C 477.42 126.53 478.39 126.8 478.89 127.08 L 478.47 128.49 C 478.03 128.26 477.34 128 476.33 128 C 474 128 472.74 129.74 472.74 131.84 C 472.74 134.19 474.25 135.64 476.27 135.64 C 477.32 135.64 478.01 135.39 478.54 135.16 L 478.85 136.55 Z " stroke-width="1" />
    <path id="ID0.21488050883635879" d="M 481.01 122 L 482.86 122 L 482.86 128.36 L 482.9 128.36 C 483.19 127.84 483.66 127.35 484.22 127.04 C 484.77 126.73 485.42 126.54 486.11 126.54 C 487.47 126.54 489.66 127.38 489.66 130.87 L 489.66 136.92 L 487.81 136.92 L 487.81 131.07 C 487.81 129.43 487.2 128.07 485.46 128.07 C 484.26 128.07 483.34 128.91 482.98 129.9 C 482.87 130.17 482.85 130.45 482.85 130.78 L 482.85 136.91 L 481 136.91 L 481 122 Z " stroke-width="1" />
    <path id="ID0.6781567358411849" d="M 492.67 122 L 494.52 122 L 494.52 136.91 L 492.67 136.91 L 492.67 122 Z " stroke-width="1" />
    <path id="ID0.5202077105641365" d="M 499.68 123.89 C 499.68 124.52 499.24 125.02 498.5 125.02 C 497.83 125.02 497.39 124.52 497.39 123.89 C 497.39 123.26 497.85 122.74 498.54 122.74 C 499.22 122.73 499.68 123.24 499.68 123.89 Z M 497.62 136.91 L 497.62 126.75 L 499.47 126.75 L 499.47 136.91 L 497.62 136.91 Z " stroke-width="1" />
    <path id="ID0.46381880110129714" d="M 502.54 129.5 C 502.54 128.43 502.52 127.59 502.46 126.75 L 504.1 126.75 L 504.2 128.43 L 504.24 128.43 C 504.74 127.49 505.92 126.54 507.6 126.54 C 509.01 126.54 511.19 127.38 511.19 130.87 L 511.19 136.92 L 509.34 136.92 L 509.34 131.05 C 509.34 129.41 508.73 128.05 506.99 128.05 C 505.79 128.05 504.85 128.91 504.51 129.94 C 504.43 130.17 504.38 130.49 504.38 130.8 L 504.38 136.91 L 502.53 136.91 L 502.53 129.5 Z " stroke-width="1" />
    <path id="ID0.023076775018125772" d="M 522.88 135.42 C 522.88 137.77 522.4 139.18 521.43 140.08 C 520.42 140.98 518.99 141.3 517.71 141.3 C 516.49 141.3 515.15 141.01 514.33 140.46 L 514.79 139.03 C 515.46 139.47 516.51 139.85 517.77 139.85 C 519.66 139.85 521.05 138.86 521.05 136.28 L 521.05 135.17 L 521.01 135.17 C 520.47 136.11 519.35 136.87 517.78 136.87 C 515.26 136.87 513.45 134.73 513.45 131.91 C 513.45 128.47 515.7 126.53 518.05 126.53 C 519.81 126.53 520.76 127.43 521.22 128.27 L 521.26 128.27 L 521.32 126.74 L 522.96 126.74 C 522.9 127.45 522.88 128.29 522.88 129.51 L 522.88 135.42 Z M 521.04 130.76 C 521.04 130.45 521.02 130.17 520.93 129.94 C 520.59 128.85 519.71 127.97 518.35 127.97 C 516.59 127.97 515.33 129.46 515.33 131.81 C 515.33 133.8 516.36 135.46 518.33 135.46 C 519.49 135.46 520.51 134.75 520.89 133.57 C 520.99 133.26 521.04 132.9 521.04 132.58 L 521.04 130.76 Z " stroke-width="1" />
    <path id="ID0.13157173059880733" d="M 525.68 135.04 C 526.25 135.38 527.21 135.75 528.14 135.75 C 529.46 135.75 530.09 135.1 530.09 134.24 C 530.09 133.36 529.57 132.9 528.22 132.39 C 526.37 131.72 525.51 130.73 525.51 129.51 C 525.51 127.87 526.85 126.53 529.02 126.53 C 530.05 126.53 530.95 126.8 531.5 127.16 L 531.06 128.5 C 530.66 128.25 529.93 127.89 528.98 127.89 C 527.89 127.89 527.3 128.52 527.3 129.28 C 527.3 130.12 527.89 130.5 529.21 131.02 C 530.95 131.67 531.88 132.55 531.88 134.06 C 531.88 135.87 530.47 137.13 528.1 137.13 C 526.99 137.13 525.96 136.84 525.24 136.42 L 525.68 135.04 Z " stroke-width="1" />
    <path id="ID0.7715980657376349" d="M 539.43 126.75 L 540.8 131.92 C 541.07 133.05 541.34 134.1 541.53 135.15 L 541.59 135.15 C 541.82 134.12 542.16 133.03 542.49 131.94 L 544.15 126.75 L 545.7 126.75 L 547.28 131.83 C 547.66 133.05 547.95 134.12 548.18 135.15 L 548.24 135.15 C 548.41 134.12 548.68 133.05 549.02 131.85 L 550.47 126.75 L 552.3 126.75 L 549.02 136.91 L 547.34 136.91 L 545.79 132.06 C 545.43 130.93 545.14 129.92 544.89 128.72 L 544.85 128.72 C 544.6 129.94 544.28 130.99 543.93 132.08 L 542.29 136.91 L 540.61 136.91 L 537.54 126.75 L 539.43 126.75 Z " stroke-width="1" />
    <path id="ID0.15595186408609152" d="M 554.97 132.16 C 555.01 134.66 556.59 135.69 558.46 135.69 C 559.78 135.69 560.6 135.46 561.27 135.17 L 561.61 136.49 C 560.96 136.78 559.83 137.14 558.21 137.14 C 555.08 137.14 553.21 135.06 553.21 132 C 553.21 128.94 555.02 126.54 557.98 126.54 C 561.32 126.54 562.18 129.44 562.18 131.31 C 562.18 131.69 562.16 131.96 562.12 132.17 L 554.97 132.17 Z M 560.39 130.84 C 560.41 129.69 559.91 127.86 557.83 127.86 C 555.94 127.86 555.14 129.56 555 130.84 L 560.39 130.84 Z " stroke-width="1" />
    <path id="ID0.8365096808411181" d="M 564.46 129.92 C 564.46 128.72 564.44 127.69 564.38 126.75 L 566 126.75 L 566.08 128.77 L 566.14 128.77 C 566.6 127.41 567.74 126.54 568.98 126.54 C 569.17 126.54 569.32 126.56 569.48 126.58 L 569.48 128.32 C 569.29 128.28 569.1 128.28 568.85 128.28 C 567.55 128.28 566.63 129.25 566.37 130.63 C 566.33 130.88 566.31 131.2 566.31 131.49 L 566.31 136.91 L 564.46 136.91 L 564.46 129.92 Z " stroke-width="1" />
    <path id="ID0.0003841822035610676" d="M 572.15 132.16 C 572.19 134.66 573.77 135.69 575.63 135.69 C 576.95 135.69 577.77 135.46 578.44 135.17 L 578.78 136.49 C 578.13 136.78 576.99 137.14 575.38 137.14 C 572.25 137.14 570.38 135.06 570.38 132 C 570.38 128.94 572.18 126.54 575.15 126.54 C 578.49 126.54 579.35 129.44 579.35 131.31 C 579.35 131.69 579.33 131.96 579.29 132.17 L 572.15 132.17 Z M 577.57 130.84 C 577.59 129.69 577.09 127.86 575.01 127.86 C 573.12 127.86 572.32 129.56 572.17 130.84 L 577.57 130.84 Z " stroke-width="1" />
    <path id="ID0.7309980243444443" d="M 169.84 147.2 L 171.69 147.2 L 171.69 153.56 L 171.73 153.56 C 172.02 153.03 172.49 152.55 173.05 152.24 C 173.6 151.92 174.25 151.74 174.94 151.74 C 176.3 151.74 178.49 152.58 178.49 156.06 L 178.49 162.11 L 176.64 162.11 L 176.64 156.27 C 176.64 154.63 176.03 153.27 174.29 153.27 C 173.09 153.27 172.17 154.11 171.81 155.1 C 171.7 155.37 171.68 155.64 171.68 155.98 L 171.68 162.11 L 169.84 162.11 L 169.84 147.2 Z " stroke-width="1" />
    <path id="ID0.17048772610723972" d="M 188.63 159.67 C 188.63 160.55 188.67 161.41 188.78 162.11 L 187.12 162.11 L 186.97 160.83 L 186.91 160.83 C 186.34 161.63 185.25 162.34 183.8 162.34 C 181.74 162.34 180.69 160.89 180.69 159.42 C 180.69 156.96 182.87 155.62 186.8 155.64 L 186.8 155.43 C 186.8 154.61 186.57 153.08 184.49 153.1 C 183.52 153.1 182.54 153.37 181.82 153.86 L 181.4 152.62 C 182.24 152.1 183.48 151.74 184.76 151.74 C 187.87 151.74 188.62 153.86 188.62 155.88 L 188.62 159.67 Z M 186.85 156.92 C 184.83 156.88 182.55 157.23 182.55 159.21 C 182.55 160.43 183.35 160.97 184.27 160.97 C 185.61 160.97 186.47 160.13 186.77 159.27 C 186.83 159.06 186.85 158.85 186.85 158.68 L 186.85 156.92 Z " stroke-width="1" />
    <path id="ID0.18043797416612506" d="M 192.16 151.94 L 194.15 157.63 C 194.49 158.57 194.76 159.41 194.97 160.25 L 195.03 160.25 C 195.26 159.41 195.55 158.57 195.89 157.63 L 197.86 151.94 L 199.79 151.94 L 195.8 162.1 L 194.04 162.1 L 190.18 151.94 L 192.16 151.94 Z " stroke-width="1" />
    <path id="ID0.6782736498862505" d="M 203.6 149.09 C 203.6 149.72 203.16 150.22 202.42 150.22 C 201.75 150.22 201.31 149.72 201.31 149.09 C 201.31 148.46 201.77 147.94 202.47 147.94 C 203.14 147.94 203.6 148.44 203.6 149.09 Z M 201.55 162.11 L 201.55 151.94 L 203.4 151.94 L 203.4 162.1 L 201.55 162.1 Z " stroke-width="1" />
    <path id="ID0.7436196426860988" d="M 206.46 154.7 C 206.46 153.63 206.44 152.79 206.38 151.95 L 208.02 151.95 L 208.13 153.63 L 208.17 153.63 C 208.67 152.69 209.85 151.74 211.53 151.74 C 212.94 151.74 215.12 152.58 215.12 156.06 L 215.12 162.11 L 213.27 162.11 L 213.27 156.25 C 213.27 154.61 212.66 153.25 210.92 153.25 C 209.72 153.25 208.78 154.11 208.44 155.14 C 208.36 155.37 208.31 155.69 208.31 156 L 208.31 162.11 L 206.46 162.11 L 206.46 154.7 Z " stroke-width="1" />
    <path id="ID0.000306449830532074" d="M 226.81 160.62 C 226.81 162.97 226.33 164.38 225.36 165.28 C 224.35 166.18 222.92 166.5 221.64 166.5 C 220.42 166.5 219.08 166.21 218.26 165.66 L 218.72 164.23 C 219.39 164.67 220.44 165.05 221.7 165.05 C 223.59 165.05 224.98 164.06 224.98 161.48 L 224.98 160.37 L 224.94 160.37 C 224.39 161.32 223.28 162.07 221.71 162.07 C 219.19 162.07 217.39 159.93 217.39 157.11 C 217.39 153.67 219.64 151.73 221.99 151.73 C 223.75 151.73 224.7 152.63 225.16 153.47 L 225.2 153.47 L 225.26 151.94 L 226.9 151.94 C 226.84 152.65 226.82 153.49 226.82 154.71 L 226.82 160.62 Z M 224.96 155.96 C 224.96 155.64 224.94 155.37 224.86 155.14 C 224.52 154.05 223.64 153.17 222.28 153.17 C 220.52 153.17 219.26 154.66 219.26 157.01 C 219.26 159 220.29 160.66 222.26 160.66 C 223.41 160.66 224.44 159.95 224.82 158.77 C 224.93 158.46 224.97 158.1 224.97 157.78 L 224.97 155.96 Z " stroke-width="1" />
    <path id="ID0.0784962885081768" d="M 241.45 159.67 C 241.45 160.55 241.49 161.41 241.6 162.11 L 239.94 162.11 L 239.79 160.83 L 239.73 160.83 C 239.16 161.63 238.07 162.34 236.62 162.34 C 234.56 162.34 233.51 160.89 233.51 159.42 C 233.51 156.96 235.69 155.62 239.62 155.64 L 239.62 155.43 C 239.62 154.61 239.39 153.08 237.31 153.1 C 236.34 153.1 235.36 153.37 234.64 153.86 L 234.22 152.62 C 235.06 152.1 236.3 151.74 237.58 151.74 C 240.69 151.74 241.44 153.86 241.44 155.88 L 241.44 159.67 Z M 239.66 156.92 C 237.64 156.88 235.36 157.23 235.36 159.21 C 235.36 160.43 236.16 160.97 237.08 160.97 C 238.42 160.97 239.28 160.13 239.58 159.27 C 239.64 159.06 239.66 158.85 239.66 158.68 L 239.66 156.92 Z " stroke-width="1" />
    <path id="ID0.9004433481022716" d="M 248.88 154.7 C 248.88 153.63 248.84 152.79 248.8 151.95 L 250.42 151.95 L 250.5 153.61 L 250.56 153.61 C 251.13 152.64 252.07 151.74 253.77 151.74 C 255.14 151.74 256.18 152.58 256.63 153.78 L 256.67 153.78 C 256.99 153.19 257.41 152.77 257.83 152.46 C 258.44 152 259.09 151.75 260.05 151.75 C 261.42 151.75 263.41 152.63 263.41 156.16 L 263.41 162.12 L 261.61 162.12 L 261.61 156.39 C 261.61 154.42 260.87 153.26 259.4 153.26 C 258.33 153.26 257.53 154.04 257.19 154.92 C 257.11 155.19 257.04 155.51 257.04 155.84 L 257.04 162.12 L 255.23 162.12 L 255.23 156.03 C 255.23 154.41 254.52 153.26 253.11 153.26 C 251.98 153.26 251.11 154.18 250.82 155.11 C 250.71 155.36 250.67 155.7 250.67 156.01 L 250.67 162.12 L 248.86 162.12 L 248.86 154.7 Z " stroke-width="1" />
    <path id="ID0.26390619575977325" d="M 275.59 156.94 C 275.59 160.7 272.96 162.34 270.53 162.34 C 267.8 162.34 265.66 160.32 265.66 157.11 C 265.66 153.73 267.91 151.73 270.7 151.73 C 273.62 151.74 275.59 153.86 275.59 156.94 Z M 267.55 157.05 C 267.55 159.28 268.81 160.96 270.61 160.96 C 272.37 160.96 273.7 159.3 273.7 157.01 C 273.7 155.29 272.84 153.13 270.66 153.13 C 268.49 153.12 267.55 155.14 267.55 157.05 Z " stroke-width="1" />
    <path id="ID0.7789627695456147" d="M 277.67 160.24 C 278.24 160.58 279.2 160.95 280.13 160.95 C 281.45 160.95 282.08 160.3 282.08 159.44 C 282.08 158.56 281.55 158.1 280.21 157.59 C 278.36 156.92 277.5 155.93 277.5 154.71 C 277.5 153.07 278.84 151.73 281.01 151.73 C 282.04 151.73 282.94 152 283.49 152.36 L 283.05 153.7 C 282.65 153.45 281.92 153.09 280.97 153.09 C 279.88 153.09 279.29 153.72 279.29 154.48 C 279.29 155.32 279.88 155.7 281.2 156.22 C 282.94 156.87 283.87 157.75 283.87 159.26 C 283.87 161.07 282.46 162.33 280.09 162.33 C 278.98 162.33 277.95 162.04 277.23 161.62 L 277.67 160.24 Z " stroke-width="1" />
    <path id="ID0.35235466435551643" d="M 288.46 149.51 L 288.46 151.95 L 291.11 151.95 L 291.11 153.36 L 288.46 153.36 L 288.46 158.84 C 288.46 160.1 288.82 160.81 289.85 160.81 C 290.35 160.81 290.65 160.77 290.92 160.68 L 291 162.09 C 290.64 162.22 290.08 162.34 289.36 162.34 C 288.5 162.34 287.81 162.05 287.36 161.56 C 286.86 160.99 286.65 160.09 286.65 158.89 L 286.65 153.35 L 285.08 153.35 L 285.08 151.94 L 286.65 151.94 L 286.65 150.05 L 288.46 149.51 Z " stroke-width="1" />
    <path id="ID0.7928855586796999" d="M 303.12 157.36 C 303.16 159.86 304.74 160.89 306.61 160.89 C 307.93 160.89 308.75 160.66 309.42 160.36 L 309.76 161.68 C 309.11 161.97 307.98 162.33 306.36 162.33 C 303.23 162.33 301.36 160.25 301.36 157.19 C 301.36 154.12 303.17 151.73 306.13 151.73 C 309.47 151.73 310.33 154.63 310.33 156.5 C 310.33 156.88 310.31 157.15 310.27 157.36 L 303.12 157.36 Z M 308.54 156.04 C 308.56 154.88 308.06 153.06 305.98 153.06 C 304.09 153.06 303.29 154.76 303.15 156.04 L 308.54 156.04 Z " stroke-width="1" />
    <path id="ID0.29845336033031344" d="M 313.41 151.94 L 314.86 154.12 C 315.26 154.69 315.57 155.19 315.91 155.76 L 315.95 155.76 C 316.29 155.17 316.62 154.65 316.98 154.1 L 318.39 151.94 L 320.41 151.94 L 316.95 156.85 L 320.5 162.1 L 318.42 162.1 L 316.91 159.81 C 316.51 159.22 316.18 158.65 315.82 158.05 L 315.78 158.05 C 315.44 158.66 315.11 159.21 314.71 159.81 L 313.24 162.1 L 311.2 162.1 L 314.81 156.91 L 311.37 151.93 L 313.41 151.93 Z " stroke-width="1" />
    <path id="ID0.17667788919061422" d="M 329.2 161.75 C 328.72 161.98 327.65 162.34 326.28 162.34 C 323.21 162.34 321.22 160.26 321.22 157.15 C 321.22 154.02 323.36 151.73 326.68 151.73 C 327.77 151.73 328.74 152 329.24 152.27 L 328.82 153.68 C 328.38 153.45 327.69 153.2 326.68 153.2 C 324.35 153.2 323.09 154.94 323.09 157.04 C 323.09 159.39 324.6 160.84 326.62 160.84 C 327.67 160.84 328.36 160.59 328.89 160.36 L 329.2 161.75 Z " stroke-width="1" />
    <path id="ID0.11117703095078468" d="M 332.27 157.36 C 332.31 159.86 333.89 160.89 335.76 160.89 C 337.08 160.89 337.9 160.66 338.57 160.36 L 338.91 161.68 C 338.26 161.97 337.12 162.33 335.51 162.33 C 332.38 162.33 330.51 160.25 330.51 157.19 C 330.51 154.12 332.32 151.73 335.28 151.73 C 338.62 151.73 339.48 154.63 339.48 156.5 C 339.48 156.88 339.46 157.15 339.42 157.36 L 332.27 157.36 Z M 337.69 156.04 C 337.71 154.88 337.21 153.06 335.13 153.06 C 333.24 153.06 332.44 154.76 332.3 156.04 L 337.69 156.04 Z " stroke-width="1" />
    <path id="ID0.9852176797576249" d="M 341.76 147.2 L 343.61 147.2 L 343.61 162.11 L 341.76 162.11 L 341.76 147.2 Z " stroke-width="1" />
    <path id="ID0.619788977317512" d="M 346.72 147.2 L 348.57 147.2 L 348.57 162.11 L 346.72 162.11 L 346.72 147.2 Z " stroke-width="1" />
    <path id="ID0.2659516902640462" d="M 352.7 157.36 C 352.74 159.86 354.32 160.89 356.19 160.89 C 357.51 160.89 358.33 160.66 359 160.36 L 359.34 161.68 C 358.69 161.97 357.56 162.33 355.94 162.33 C 352.81 162.33 350.94 160.25 350.94 157.19 C 350.94 154.12 352.75 151.73 355.71 151.73 C 359.05 151.73 359.91 154.63 359.91 156.5 C 359.91 156.88 359.89 157.15 359.85 157.36 L 352.7 157.36 Z M 358.12 156.04 C 358.14 154.88 357.64 153.06 355.56 153.06 C 353.67 153.06 352.87 154.76 352.73 156.04 L 358.12 156.04 Z " stroke-width="1" />
    <path id="ID0.08623906970024109" d="M 362.2 154.7 C 362.2 153.63 362.18 152.79 362.12 151.95 L 363.76 151.95 L 363.87 153.63 L 363.91 153.63 C 364.41 152.69 365.59 151.74 367.27 151.74 C 368.68 151.74 370.86 152.58 370.86 156.06 L 370.86 162.11 L 369 162.11 L 369 156.25 C 369 154.61 368.39 153.25 366.65 153.25 C 365.45 153.25 364.51 154.11 364.17 155.14 C 364.09 155.37 364.04 155.69 364.04 156 L 364.04 162.11 L 362.19 162.11 L 362.19 154.7 Z " stroke-width="1" />
    <path id="ID0.6267095734365284" d="M 375.99 149.51 L 375.99 151.95 L 378.64 151.95 L 378.64 153.36 L 375.99 153.36 L 375.99 158.84 C 375.99 160.1 376.35 160.81 377.38 160.81 C 377.88 160.81 378.18 160.77 378.45 160.68 L 378.53 162.09 C 378.17 162.22 377.61 162.34 376.89 162.34 C 376.03 162.34 375.34 162.05 374.89 161.56 C 374.39 160.99 374.18 160.09 374.18 158.89 L 374.18 153.35 L 372.6 153.35 L 372.6 151.94 L 374.18 151.94 L 374.18 150.05 L 375.99 149.51 Z " stroke-width="1" />
    <path id="ID0.2957021612673998" d="M 387.39 149.51 L 387.39 151.95 L 390.04 151.95 L 390.04 153.36 L 387.39 153.36 L 387.39 158.84 C 387.39 160.1 387.75 160.81 388.78 160.81 C 389.28 160.81 389.58 160.77 389.85 160.68 L 389.93 162.09 C 389.57 162.22 389.01 162.34 388.29 162.34 C 387.43 162.34 386.74 162.05 386.29 161.56 C 385.79 160.99 385.58 160.09 385.58 158.89 L 385.58 153.35 L 384 153.35 L 384 151.94 L 385.58 151.94 L 385.58 150.05 L 387.39 149.51 Z " stroke-width="1" />
    <path id="ID0.3380854115821421" d="M 394.18 149.09 C 394.18 149.72 393.74 150.22 393 150.22 C 392.33 150.22 391.89 149.72 391.89 149.09 C 391.89 148.46 392.35 147.94 393.05 147.94 C 393.72 147.94 394.18 148.44 394.18 149.09 Z M 392.12 162.11 L 392.12 151.94 L 393.97 151.94 L 393.97 162.1 L 392.12 162.1 Z " stroke-width="1" />
    <path id="ID0.1973213627934456" d="M 397.03 154.7 C 397.03 153.63 396.99 152.79 396.95 151.95 L 398.57 151.95 L 398.65 153.61 L 398.71 153.61 C 399.28 152.64 400.22 151.74 401.92 151.74 C 403.29 151.74 404.34 152.58 404.78 153.78 L 404.82 153.78 C 405.13 153.19 405.55 152.77 405.97 152.46 C 406.58 152 407.23 151.75 408.2 151.75 C 409.56 151.75 411.56 152.63 411.56 156.16 L 411.56 162.12 L 409.75 162.12 L 409.75 156.39 C 409.75 154.42 409.02 153.26 407.54 153.26 C 406.47 153.26 405.67 154.04 405.34 154.92 C 405.26 155.19 405.19 155.51 405.19 155.84 L 405.19 162.12 L 403.39 162.12 L 403.39 156.03 C 403.39 154.41 402.68 153.26 401.27 153.26 C 400.14 153.26 399.28 154.18 398.98 155.11 C 398.88 155.36 398.83 155.7 398.83 156.01 L 398.83 162.12 L 397.02 162.12 L 397.02 154.7 Z " stroke-width="1" />
    <path id="ID0.32318073278293014" d="M 415.58 157.36 C 415.62 159.86 417.2 160.89 419.07 160.89 C 420.39 160.89 421.21 160.66 421.88 160.36 L 422.22 161.68 C 421.57 161.97 420.44 162.33 418.82 162.33 C 415.69 162.33 413.82 160.25 413.82 157.19 C 413.82 154.12 415.63 151.73 418.59 151.73 C 421.93 151.73 422.79 154.63 422.79 156.5 C 422.79 156.88 422.77 157.15 422.73 157.36 L 415.58 157.36 Z M 420.99 156.04 C 421.01 154.88 420.51 153.06 418.43 153.06 C 416.54 153.06 415.74 154.76 415.6 156.04 L 420.99 156.04 Z " stroke-width="1" />
    <path id="ID0.0672517609782517" d="M 430.55 157.36 C 430.59 159.86 432.17 160.89 434.04 160.89 C 435.36 160.89 436.18 160.66 436.85 160.36 L 437.19 161.68 C 436.54 161.97 435.41 162.33 433.79 162.33 C 430.66 162.33 428.79 160.25 428.79 157.19 C 428.79 154.12 430.6 151.73 433.56 151.73 C 436.9 151.73 437.76 154.63 437.76 156.5 C 437.76 156.88 437.74 157.15 437.7 157.36 L 430.55 157.36 Z M 435.97 156.04 C 435.99 154.88 435.49 153.06 433.41 153.06 C 431.52 153.06 430.72 154.76 430.58 156.04 L 435.97 156.04 Z " stroke-width="1" />
    <path id="ID0.781363339163363" d="M 440.04 154.7 C 440.04 153.63 440.02 152.79 439.96 151.95 L 441.6 151.95 L 441.71 153.63 L 441.75 153.63 C 442.25 152.69 443.43 151.74 445.11 151.74 C 446.52 151.74 448.7 152.58 448.7 156.06 L 448.7 162.11 L 446.85 162.11 L 446.85 156.25 C 446.85 154.61 446.24 153.25 444.5 153.25 C 443.3 153.25 442.36 154.11 442.02 155.14 C 441.94 155.37 441.89 155.69 441.89 156 L 441.89 162.11 L 440.04 162.11 L 440.04 154.7 Z " stroke-width="1" />
    <path id="ID0.5934099601581693" d="M 449.2 165.09 C 450.06 165.03 450.78 164.8 451.22 164.29 C 451.72 163.72 451.93 162.93 451.93 160.49 L 451.93 151.94 L 453.78 151.94 L 453.78 161.2 C 453.78 163.17 453.47 164.45 452.56 165.38 C 451.74 166.2 450.4 166.54 449.41 166.54 L 449.2 165.09 Z M 453.98 149.09 C 453.98 149.7 453.56 150.22 452.8 150.22 C 452.13 150.22 451.69 149.69 451.69 149.09 C 451.69 148.46 452.15 147.94 452.84 147.94 C 453.53 147.94 453.98 148.46 453.98 149.09 Z " stroke-width="1" />
    <path id="ID0.5085747800767422" d="M 466 156.94 C 466 160.7 463.37 162.34 460.94 162.34 C 458.21 162.34 456.07 160.32 456.07 157.11 C 456.07 153.73 458.32 151.73 461.11 151.73 C 464.02 151.74 466 153.86 466 156.94 Z M 457.95 157.05 C 457.95 159.28 459.21 160.96 461.02 160.96 C 462.78 160.96 464.11 159.3 464.11 157.01 C 464.11 155.29 463.25 153.13 461.07 153.13 C 458.9 153.12 457.95 155.14 457.95 157.05 Z " stroke-width="1" />
    <path id="ID0.846090697683394" d="M 468.85 151.94 L 471.06 157.95 C 471.31 158.62 471.56 159.42 471.73 160.03 L 471.77 160.03 C 471.96 159.42 472.17 158.64 472.42 157.91 L 474.44 151.95 L 476.39 151.95 L 473.62 159.19 C 472.3 162.68 471.4 164.44 470.14 165.55 C 469.22 166.33 468.33 166.64 467.87 166.73 L 467.41 165.2 C 467.87 165.05 468.48 164.76 469.03 164.3 C 469.53 163.9 470.14 163.19 470.58 162.24 C 470.66 162.05 470.73 161.9 470.73 161.8 C 470.73 161.7 470.69 161.55 470.58 161.32 L 466.84 151.95 L 468.85 151.95 Z " stroke-width="1" />
    <path id="ID0.2796244593337178" d="M 480.13 149.09 C 480.13 149.72 479.69 150.22 478.95 150.22 C 478.28 150.22 477.84 149.72 477.84 149.09 C 477.84 148.46 478.3 147.94 478.99 147.94 C 479.67 147.94 480.13 148.44 480.13 149.09 Z M 478.07 162.11 L 478.07 151.94 L 479.92 151.94 L 479.92 162.1 L 478.07 162.1 Z " stroke-width="1" />
    <path id="ID0.49408286018297076" d="M 482.99 154.7 C 482.99 153.63 482.97 152.79 482.91 151.95 L 484.55 151.95 L 484.65 153.63 L 484.69 153.63 C 485.19 152.69 486.37 151.74 488.05 151.74 C 489.46 151.74 491.64 152.58 491.64 156.06 L 491.64 162.11 L 489.79 162.11 L 489.79 156.25 C 489.79 154.61 489.18 153.25 487.44 153.25 C 486.24 153.25 485.3 154.11 484.96 155.14 C 484.88 155.37 484.83 155.69 484.83 156 L 484.83 162.11 L 482.98 162.11 L 482.98 154.7 Z " stroke-width="1" />
    <path id="ID0.3548890729434788" d="M 503.33 160.62 C 503.33 162.97 502.85 164.38 501.88 165.28 C 500.87 166.18 499.44 166.5 498.16 166.5 C 496.94 166.5 495.6 166.21 494.78 165.66 L 495.24 164.23 C 495.91 164.67 496.96 165.05 498.22 165.05 C 500.11 165.05 501.5 164.06 501.5 161.48 L 501.5 160.37 L 501.46 160.37 C 500.91 161.32 499.8 162.07 498.23 162.07 C 495.71 162.07 493.9 159.93 493.9 157.11 C 493.9 153.67 496.15 151.73 498.5 151.73 C 500.26 151.73 501.21 152.63 501.67 153.47 L 501.71 153.47 L 501.77 151.94 L 503.41 151.94 C 503.35 152.65 503.33 153.49 503.33 154.71 L 503.33 160.62 Z M 501.49 155.96 C 501.49 155.64 501.47 155.37 501.38 155.14 C 501.04 154.05 500.16 153.17 498.8 153.17 C 497.04 153.17 495.78 154.66 495.78 157.01 C 495.78 159 496.81 160.66 498.78 160.66 C 499.93 160.66 500.96 159.95 501.34 158.77 C 501.44 158.46 501.49 158.1 501.49 157.78 L 501.49 155.96 Z " stroke-width="1" />
    <path id="ID0.23363238805904984" d="M 517.97 159.67 C 517.97 160.55 518.01 161.41 518.12 162.11 L 516.46 162.11 L 516.31 160.83 L 516.25 160.83 C 515.68 161.63 514.59 162.34 513.14 162.34 C 511.08 162.34 510.03 160.89 510.03 159.42 C 510.03 156.96 512.21 155.62 516.14 155.64 L 516.14 155.43 C 516.14 154.61 515.91 153.08 513.83 153.1 C 512.87 153.1 511.88 153.37 511.16 153.86 L 510.74 152.62 C 511.58 152.1 512.82 151.74 514.1 151.74 C 517.21 151.74 517.96 153.86 517.96 155.88 L 517.96 159.67 Z M 516.18 156.92 C 514.16 156.88 511.88 157.23 511.88 159.21 C 511.88 160.43 512.68 160.97 513.6 160.97 C 514.94 160.97 515.81 160.13 516.1 159.27 C 516.16 159.06 516.18 158.85 516.18 158.68 L 516.18 156.92 Z " stroke-width="1" />
    <path id="ID0.7861092141829431" d="M 520.95 147.2 L 522.8 147.2 L 522.8 162.11 L 520.95 162.11 L 520.95 147.2 Z " stroke-width="1" />
    <path id="ID0.6563080563209951" d="M 525.91 147.2 L 527.76 147.2 L 527.76 162.11 L 525.91 162.11 L 525.91 147.2 Z " stroke-width="1" />
    <path id="ID0.2145539866760373" d="M 544.51 156.94 C 544.51 160.7 541.88 162.34 539.45 162.34 C 536.72 162.34 534.58 160.32 534.58 157.11 C 534.58 153.73 536.83 151.73 539.62 151.73 C 542.54 151.74 544.51 153.86 544.51 156.94 Z M 536.47 157.05 C 536.47 159.28 537.73 160.96 539.53 160.96 C 541.29 160.96 542.62 159.3 542.62 157.01 C 542.62 155.29 541.76 153.13 539.58 153.13 C 537.42 153.12 536.47 155.14 536.47 157.05 Z " stroke-width="1" />
    <path id="ID0.6789946150965989" d="M 547.03 162.11 L 547.03 153.36 L 545.62 153.36 L 545.62 151.95 L 547.03 151.95 L 547.03 151.47 C 547.03 150.04 547.37 148.74 548.21 147.92 C 548.9 147.25 549.83 146.98 550.69 146.98 C 551.36 146.98 551.91 147.13 552.27 147.27 L 552.02 148.7 C 551.75 148.57 551.39 148.47 550.84 148.47 C 549.26 148.47 548.87 149.83 548.87 151.41 L 548.87 151.95 L 551.33 151.95 L 551.33 153.36 L 548.87 153.36 L 548.87 162.11 L 547.03 162.11 Z " stroke-width="1" />
    <path id="ID0.2102695587091148" d="M 559.65 149.51 L 559.65 151.95 L 562.3 151.95 L 562.3 153.36 L 559.65 153.36 L 559.65 158.84 C 559.65 160.1 560.01 160.81 561.04 160.81 C 561.54 160.81 561.84 160.77 562.11 160.68 L 562.19 162.09 C 561.83 162.22 561.27 162.34 560.55 162.34 C 559.69 162.34 559 162.05 558.55 161.56 C 558.05 160.99 557.84 160.09 557.84 158.89 L 557.84 153.35 L 556.27 153.35 L 556.27 151.94 L 557.84 151.94 L 557.84 150.05 L 559.65 149.51 Z " stroke-width="1" />
    <path id="ID0.2107006679289043" d="M 564.38 147.2 L 566.23 147.2 L 566.23 153.56 L 566.27 153.56 C 566.56 153.03 567.03 152.55 567.59 152.24 C 568.13 151.92 568.79 151.74 569.48 151.74 C 570.85 151.74 573.03 152.58 573.03 156.06 L 573.03 162.11 L 571.18 162.11 L 571.18 156.27 C 571.18 154.63 570.57 153.27 568.83 153.27 C 567.63 153.27 566.71 154.11 566.35 155.1 C 566.25 155.37 566.22 155.64 566.22 155.98 L 566.22 162.11 L 564.37 162.11 L 564.37 147.2 Z " stroke-width="1" />
    <path id="ID0.3027634755708277" d="M 577.06 157.36 C 577.1 159.86 578.68 160.89 580.54 160.89 C 581.86 160.89 582.68 160.66 583.35 160.36 L 583.69 161.68 C 583.04 161.97 581.9 162.33 580.29 162.33 C 577.16 162.33 575.29 160.25 575.29 157.19 C 575.29 154.12 577.09 151.73 580.06 151.73 C 583.4 151.73 584.26 154.63 584.26 156.5 C 584.26 156.88 584.24 157.15 584.2 157.36 L 577.06 157.36 Z M 582.48 156.04 C 582.5 154.88 582 153.06 579.92 153.06 C 578.03 153.06 577.23 154.76 577.08 156.04 L 582.48 156.04 Z " stroke-width="1" />
    <path id="ID0.8079654611647129" d="M 167.94 184.87 C 167.94 185.75 167.98 186.61 168.09 187.31 L 166.42 187.31 L 166.27 186.03 L 166.21 186.03 C 165.64 186.83 164.55 187.54 163.1 187.54 C 161.05 187.54 160 186.09 160 184.62 C 160 182.16 162.18 180.82 166.11 180.84 L 166.11 180.63 C 166.11 179.81 165.88 178.28 163.8 178.3 C 162.84 178.3 161.85 178.57 161.13 179.06 L 160.71 177.82 C 161.55 177.3 162.79 176.94 164.07 176.94 C 167.18 176.94 167.93 179.06 167.93 181.08 L 167.93 184.87 Z M 166.15 182.12 C 164.13 182.08 161.85 182.44 161.85 184.41 C 161.85 185.63 162.65 186.17 163.57 186.17 C 164.91 186.17 165.78 185.33 166.07 184.47 C 166.13 184.26 166.15 184.05 166.15 183.88 L 166.15 182.12 Z " stroke-width="1" />
    <path id="ID0.6567694353871047" d="M 173.06 174.71 L 173.06 177.15 L 175.71 177.15 L 175.71 178.56 L 173.06 178.56 L 173.06 184.04 C 173.06 185.3 173.42 186.01 174.45 186.01 C 174.95 186.01 175.25 185.97 175.52 185.88 L 175.6 187.29 C 175.24 187.42 174.68 187.54 173.96 187.54 C 173.1 187.54 172.41 187.25 171.97 186.76 C 171.47 186.19 171.26 185.29 171.26 184.09 L 171.26 178.55 L 169.68 178.55 L 169.68 177.14 L 171.26 177.14 L 171.26 175.25 L 173.06 174.71 Z " stroke-width="1" />
    <path id="ID0.006739278789609671" d="M 180.01 174.71 L 180.01 177.15 L 182.65 177.15 L 182.65 178.56 L 180.01 178.56 L 180.01 184.04 C 180.01 185.3 180.37 186.01 181.39 186.01 C 181.89 186.01 182.19 185.97 182.46 185.88 L 182.54 187.29 C 182.18 187.42 181.62 187.54 180.9 187.54 C 180.04 187.54 179.35 187.25 178.91 186.76 C 178.41 186.19 178.2 185.29 178.2 184.09 L 178.2 178.55 L 176.63 178.55 L 176.63 177.14 L 178.2 177.14 L 178.2 175.25 L 180.01 174.71 Z " stroke-width="1" />
    <path id="ID0.9874328011646867" d="M 185.64 182.56 C 185.68 185.06 187.26 186.09 189.13 186.09 C 190.45 186.09 191.27 185.86 191.94 185.56 L 192.28 186.88 C 191.63 187.17 190.5 187.53 188.88 187.53 C 185.75 187.53 183.88 185.45 183.88 182.39 C 183.88 179.33 185.69 176.93 188.65 176.93 C 191.99 176.93 192.85 179.83 192.85 181.7 C 192.85 182.08 192.83 182.35 192.79 182.56 L 185.64 182.56 Z M 191.06 181.24 C 191.08 180.08 190.58 178.26 188.5 178.26 C 186.61 178.26 185.81 179.96 185.67 181.24 L 191.06 181.24 Z " stroke-width="1" />
    <path id="ID0.7563518825918436" d="M 195.13 179.9 C 195.13 178.83 195.11 177.99 195.05 177.15 L 196.69 177.15 L 196.79 178.83 L 196.83 178.83 C 197.33 177.89 198.51 176.94 200.19 176.94 C 201.6 176.94 203.78 177.78 203.78 181.27 L 203.78 187.32 L 201.93 187.32 L 201.93 181.46 C 201.93 179.82 201.32 178.46 199.58 178.46 C 198.38 178.46 197.44 179.32 197.1 180.35 C 197.02 180.58 196.97 180.9 196.97 181.21 L 196.97 187.32 L 195.12 187.32 L 195.12 179.9 Z " stroke-width="1" />
    <path id="ID0.015403888188302517" d="M 208.93 174.71 L 208.93 177.15 L 211.58 177.15 L 211.58 178.56 L 208.93 178.56 L 208.93 184.04 C 208.93 185.3 209.29 186.01 210.32 186.01 C 210.82 186.01 211.12 185.97 211.39 185.88 L 211.47 187.29 C 211.11 187.42 210.55 187.54 209.83 187.54 C 208.97 187.54 208.28 187.25 207.84 186.76 C 207.34 186.19 207.13 185.29 207.13 184.09 L 207.13 178.55 L 205.55 178.55 L 205.55 177.14 L 207.13 177.14 L 207.13 175.25 L 208.93 174.71 Z " stroke-width="1" />
    <path id="ID0.48145334189757705" d="M 215.71 174.29 C 215.71 174.92 215.27 175.42 214.53 175.42 C 213.86 175.42 213.42 174.92 213.42 174.29 C 213.42 173.66 213.88 173.13 214.58 173.13 C 215.25 173.13 215.71 173.64 215.71 174.29 Z M 213.65 187.31 L 213.65 177.15 L 215.5 177.15 L 215.5 187.31 L 213.65 187.31 Z " stroke-width="1" />
    <path id="ID0.3064083284698427" d="M 227.76 182.14 C 227.76 185.9 225.13 187.54 222.7 187.54 C 219.97 187.54 217.83 185.52 217.83 182.31 C 217.83 178.93 220.08 176.93 222.87 176.93 C 225.79 176.94 227.76 179.06 227.76 182.14 Z M 219.72 182.25 C 219.72 184.47 220.98 186.15 222.79 186.15 C 224.55 186.15 225.88 184.49 225.88 182.2 C 225.88 180.48 225.02 178.32 222.84 178.32 C 220.67 178.32 219.72 180.34 219.72 182.25 Z " stroke-width="1" />
    <path id="ID0.4890889301896095" d="M 230.1 179.9 C 230.1 178.83 230.08 177.99 230.02 177.15 L 231.66 177.15 L 231.76 178.83 L 231.8 178.83 C 232.3 177.89 233.48 176.94 235.16 176.94 C 236.57 176.94 238.75 177.78 238.75 181.27 L 238.75 187.32 L 236.9 187.32 L 236.9 181.46 C 236.9 179.82 236.29 178.46 234.55 178.46 C 233.35 178.46 232.41 179.32 232.07 180.35 C 231.99 180.58 231.94 180.9 231.94 181.21 L 231.94 187.32 L 230.1 187.32 L 230.1 179.9 Z " stroke-width="1" />
    <path id="ID0.4097871552221477" d="M 253.34 184.87 C 253.34 185.75 253.38 186.61 253.49 187.31 L 251.83 187.31 L 251.68 186.03 L 251.62 186.03 C 251.05 186.83 249.96 187.54 248.51 187.54 C 246.45 187.54 245.4 186.09 245.4 184.62 C 245.4 182.16 247.58 180.82 251.51 180.84 L 251.51 180.63 C 251.51 179.81 251.28 178.28 249.2 178.3 C 248.23 178.3 247.25 178.57 246.53 179.06 L 246.11 177.82 C 246.95 177.3 248.19 176.94 249.47 176.94 C 252.58 176.94 253.33 179.06 253.33 181.08 L 253.33 184.87 Z M 251.56 182.12 C 249.54 182.08 247.26 182.44 247.26 184.41 C 247.26 185.63 248.06 186.17 248.98 186.17 C 250.32 186.17 251.18 185.33 251.48 184.47 C 251.54 184.26 251.56 184.05 251.56 183.88 L 251.56 182.12 Z " stroke-width="1" />
    <path id="ID0.38378345454111695" d="M 262.62 187.31 L 262.62 178.56 L 258.34 178.56 L 258.34 187.31 L 256.51 187.31 L 256.51 178.56 L 255.1 178.56 L 255.1 177.15 L 256.51 177.15 L 256.51 176.83 C 256.51 175.4 256.85 174.19 257.64 173.37 C 258.23 172.78 259.07 172.43 260.2 172.43 C 260.79 172.43 261.33 172.62 261.65 172.79 L 261.27 174.18 C 261 174.03 260.6 173.91 260.18 173.91 C 258.73 173.91 258.33 175.15 258.33 176.74 L 258.33 177.16 L 262.61 177.16 L 262.61 176.68 C 262.61 175.25 262.93 173.95 263.79 173.13 C 264.48 172.46 265.41 172.19 266.25 172.19 C 266.92 172.19 267.49 172.34 267.82 172.48 L 267.59 173.91 C 267.3 173.78 266.94 173.68 266.39 173.68 C 264.84 173.68 264.44 175.05 264.44 176.62 L 264.44 177.17 L 266.88 177.17 L 266.88 178.58 L 264.44 178.58 L 264.44 187.33 L 262.62 187.33 Z " stroke-width="1" />
    <path id="ID0.9394052056595683" d="M 277.49 182.14 C 277.49 185.9 274.87 187.54 272.43 187.54 C 269.7 187.54 267.56 185.52 267.56 182.31 C 267.56 178.93 269.81 176.93 272.6 176.93 C 275.52 176.94 277.49 179.06 277.49 182.14 Z M 269.45 182.25 C 269.45 184.47 270.71 186.15 272.52 186.15 C 274.28 186.15 275.61 184.49 275.61 182.2 C 275.61 180.48 274.75 178.32 272.57 178.32 C 270.4 178.32 269.45 180.34 269.45 182.25 Z " stroke-width="1" />
    <path id="ID0.9183869492262602" d="M 279.83 180.32 C 279.83 179.12 279.81 178.09 279.75 177.15 L 281.37 177.15 L 281.45 179.17 L 281.51 179.17 C 281.97 177.81 283.11 176.94 284.34 176.94 C 284.53 176.94 284.68 176.96 284.84 176.98 L 284.84 178.72 C 284.65 178.68 284.46 178.68 284.21 178.68 C 282.91 178.68 281.98 179.65 281.73 181.03 C 281.69 181.28 281.67 181.6 281.67 181.89 L 281.67 187.31 L 279.82 187.31 L 279.82 180.32 Z " stroke-width="1" />
    <path id="ID0.7658603698946536" d="M 295.24 172.4 L 295.24 184.68 C 295.24 185.58 295.28 186.61 295.32 187.3 L 293.68 187.3 L 293.6 185.54 L 293.54 185.54 C 292.99 186.67 291.78 187.54 290.12 187.54 C 287.66 187.54 285.75 185.46 285.75 182.37 C 285.73 178.99 287.85 176.93 290.31 176.93 C 291.89 176.93 292.91 177.66 293.38 178.46 L 293.42 178.46 L 293.42 172.4 L 295.24 172.4 Z M 293.41 181.28 C 293.41 181.05 293.39 180.74 293.33 180.5 C 293.06 179.34 292.05 178.38 290.66 178.38 C 288.75 178.38 287.62 180.06 287.62 182.28 C 287.62 184.34 288.65 186.04 290.62 186.04 C 291.86 186.04 292.99 185.2 293.33 183.84 C 293.39 183.59 293.41 183.34 293.41 183.04 L 293.41 181.28 Z " stroke-width="1" />
    <path id="ID0.7404483500868082" d="M 299.35 182.56 C 299.39 185.06 300.97 186.09 302.84 186.09 C 304.16 186.09 304.98 185.86 305.65 185.56 L 305.99 186.88 C 305.34 187.17 304.2 187.53 302.59 187.53 C 299.46 187.53 297.59 185.45 297.59 182.39 C 297.59 179.33 299.4 176.93 302.36 176.93 C 305.7 176.93 306.56 179.83 306.56 181.7 C 306.56 182.08 306.54 182.35 306.5 182.56 L 299.35 182.56 Z M 304.77 181.24 C 304.79 180.08 304.29 178.26 302.21 178.26 C 300.32 178.26 299.52 179.96 299.38 181.24 L 304.77 181.24 Z " stroke-width="1" />
    <path id="ID0.35436720214784145" d="M 317.6 172.4 L 317.6 184.68 C 317.6 185.58 317.64 186.61 317.68 187.3 L 316.04 187.3 L 315.96 185.54 L 315.9 185.54 C 315.35 186.67 314.14 187.54 312.48 187.54 C 310.02 187.54 308.11 185.46 308.11 182.37 C 308.09 178.99 310.21 176.93 312.67 176.93 C 314.25 176.93 315.27 177.66 315.74 178.46 L 315.78 178.46 L 315.78 172.4 L 317.6 172.4 Z M 315.77 181.28 C 315.77 181.05 315.75 180.74 315.69 180.5 C 315.42 179.34 314.41 178.38 313.02 178.38 C 311.11 178.38 309.98 180.06 309.98 182.28 C 309.98 184.34 311.01 186.04 312.98 186.04 C 314.22 186.04 315.35 185.2 315.69 183.84 C 315.75 183.59 315.77 183.34 315.77 183.04 L 315.77 181.28 Z " stroke-width="1" />
    <path id="ID0.28592577995732427" d="M 327.37 174.71 L 327.37 177.15 L 330.01 177.15 L 330.01 178.56 L 327.37 178.56 L 327.37 184.04 C 327.37 185.3 327.73 186.01 328.75 186.01 C 329.25 186.01 329.55 185.97 329.82 185.88 L 329.9 187.29 C 329.54 187.42 328.98 187.54 328.26 187.54 C 327.4 187.54 326.71 187.25 326.27 186.76 C 325.77 186.19 325.56 185.29 325.56 184.09 L 325.56 178.55 L 323.99 178.55 L 323.99 177.14 L 325.56 177.14 L 325.56 175.25 L 327.37 174.71 Z " stroke-width="1" />
    <path id="ID0.3907410064712167" d="M 341.16 182.14 C 341.16 185.9 338.53 187.54 336.1 187.54 C 333.37 187.54 331.23 185.52 331.23 182.31 C 331.23 178.93 333.48 176.93 336.27 176.93 C 339.19 176.94 341.16 179.06 341.16 182.14 Z M 333.12 182.25 C 333.12 184.47 334.38 186.15 336.18 186.15 C 337.94 186.15 339.27 184.49 339.27 182.2 C 339.27 180.48 338.41 178.32 336.23 178.32 C 334.07 178.32 333.12 180.34 333.12 182.25 Z " stroke-width="1" />
    <path id="ID0.4282207381911576" d="M 350.17 174.71 L 350.17 177.15 L 352.82 177.15 L 352.82 178.56 L 350.17 178.56 L 350.17 184.04 C 350.17 185.3 350.53 186.01 351.56 186.01 C 352.06 186.01 352.36 185.97 352.63 185.88 L 352.71 187.29 C 352.35 187.42 351.79 187.54 351.07 187.54 C 350.21 187.54 349.52 187.25 349.07 186.76 C 348.57 186.19 348.36 185.29 348.36 184.09 L 348.36 178.55 L 346.78 178.55 L 346.78 177.14 L 348.36 177.14 L 348.36 175.25 L 350.17 174.71 Z " stroke-width="1" />
    <path id="ID0.11240178672596812" d="M 354.9 172.4 L 356.75 172.4 L 356.75 178.76 L 356.79 178.76 C 357.08 178.24 357.55 177.75 358.11 177.44 C 358.66 177.13 359.31 176.94 360 176.94 C 361.36 176.94 363.55 177.78 363.55 181.27 L 363.55 187.32 L 361.7 187.32 L 361.7 181.48 C 361.7 179.84 361.09 178.48 359.35 178.48 C 358.15 178.48 357.23 179.32 356.87 180.31 C 356.76 180.58 356.74 180.86 356.74 181.19 L 356.74 187.32 L 354.89 187.32 L 354.89 172.4 Z " stroke-width="1" />
    <path id="ID0.8381137368269265" d="M 367.58 182.56 C 367.62 185.06 369.2 186.09 371.07 186.09 C 372.39 186.09 373.21 185.86 373.88 185.56 L 374.22 186.88 C 373.57 187.17 372.44 187.53 370.82 187.53 C 367.69 187.53 365.82 185.45 365.82 182.39 C 365.82 179.33 367.63 176.93 370.59 176.93 C 373.93 176.93 374.79 179.83 374.79 181.7 C 374.79 182.08 374.77 182.35 374.73 182.56 L 367.58 182.56 Z M 373 181.24 C 373.02 180.08 372.52 178.26 370.44 178.26 C 368.55 178.26 367.75 179.96 367.61 181.24 L 373 181.24 Z " stroke-width="1" />
    <path id="ID0.13488029967993498" d="M 377.07 179.9 C 377.07 178.83 377.03 177.99 376.99 177.15 L 378.61 177.15 L 378.69 178.81 L 378.75 178.81 C 379.32 177.84 380.26 176.94 381.96 176.94 C 383.33 176.94 384.38 177.78 384.82 178.98 L 384.86 178.98 C 385.17 178.39 385.59 177.97 386.01 177.66 C 386.62 177.2 387.27 176.95 388.24 176.95 C 389.6 176.95 391.6 177.83 391.6 181.36 L 391.6 187.32 L 389.79 187.32 L 389.79 181.59 C 389.79 179.62 389.06 178.46 387.58 178.46 C 386.51 178.46 385.71 179.24 385.38 180.12 C 385.3 180.39 385.23 180.71 385.23 181.04 L 385.23 187.32 L 383.43 187.32 L 383.43 181.23 C 383.43 179.61 382.72 178.46 381.31 178.46 C 380.18 178.46 379.32 179.38 379.02 180.31 C 378.92 180.56 378.87 180.9 378.87 181.21 L 378.87 187.32 L 377.06 187.32 L 377.06 179.9 Z " stroke-width="1" />
    <path id="ID0.7257958832196891" d="M 399.04 172.4 L 400.87 172.4 L 400.87 178.78 L 400.91 178.78 C 401.56 177.65 402.74 176.93 404.37 176.93 C 406.91 176.93 408.67 179.03 408.67 182.1 C 408.67 185.73 406.36 187.54 404.09 187.54 C 402.62 187.54 401.44 186.97 400.67 185.65 L 400.63 185.65 L 400.52 187.31 L 398.95 187.31 C 398.99 186.62 399.03 185.59 399.03 184.69 L 399.03 172.4 Z M 400.87 183.23 C 400.87 183.46 400.89 183.69 400.95 183.9 C 401.29 185.18 402.38 186.06 403.72 186.06 C 405.67 186.06 406.81 184.49 406.81 182.16 C 406.81 180.12 405.76 178.38 403.77 178.38 C 402.53 178.38 401.35 179.26 400.98 180.65 C 400.92 180.88 400.87 181.13 400.87 181.43 L 400.87 183.23 Z " stroke-width="1" />
    <path id="ID0.8216209751553833" d="M 411.51 177.15 L 413.71 183.15 C 413.96 183.82 414.21 184.62 414.38 185.23 L 414.42 185.23 C 414.61 184.62 414.82 183.85 415.07 183.11 L 417.09 177.15 L 419.04 177.15 L 416.27 184.39 C 414.95 187.88 414.04 189.64 412.78 190.75 C 411.86 191.53 410.98 191.84 410.51 191.93 L 410.05 190.4 C 410.51 190.25 411.12 189.96 411.67 189.5 C 412.17 189.1 412.78 188.39 413.22 187.44 C 413.3 187.25 413.37 187.1 413.37 187 C 413.37 186.9 413.33 186.75 413.22 186.52 L 409.48 177.16 L 411.51 177.16 Z " stroke-width="1" />
    <path id="ID0.5633189976215363" d="M 427.41 174.71 L 427.41 177.15 L 430.06 177.15 L 430.06 178.56 L 427.41 178.56 L 427.41 184.04 C 427.41 185.3 427.77 186.01 428.8 186.01 C 429.3 186.01 429.6 185.97 429.87 185.88 L 429.95 187.29 C 429.59 187.42 429.03 187.54 428.31 187.54 C 427.45 187.54 426.76 187.25 426.31 186.76 C 425.81 186.19 425.6 185.29 425.6 184.09 L 425.6 178.55 L 424.03 178.55 L 424.03 177.14 L 425.6 177.14 L 425.6 175.25 L 427.41 174.71 Z " stroke-width="1" />
    <path id="ID0.17535097897052765" d="M 432.14 172.4 L 433.99 172.4 L 433.99 178.76 L 434.03 178.76 C 434.32 178.24 434.79 177.75 435.35 177.44 C 435.9 177.13 436.55 176.94 437.24 176.94 C 438.61 176.94 440.79 177.78 440.79 181.27 L 440.79 187.32 L 438.94 187.32 L 438.94 181.48 C 438.94 179.84 438.33 178.48 436.59 178.48 C 435.39 178.48 434.47 179.32 434.11 180.31 C 434.01 180.58 433.98 180.86 433.98 181.19 L 433.98 187.32 L 432.13 187.32 L 432.13 172.4 Z " stroke-width="1" />
    <path id="ID0.40389449056237936" d="M 444.82 182.56 C 444.86 185.06 446.44 186.09 448.3 186.09 C 449.62 186.09 450.44 185.86 451.11 185.56 L 451.45 186.88 C 450.8 187.17 449.66 187.53 448.05 187.53 C 444.92 187.53 443.05 185.45 443.05 182.39 C 443.05 179.33 444.85 176.93 447.82 176.93 C 451.16 176.93 452.02 179.83 452.02 181.7 C 452.02 182.08 452 182.35 451.96 182.56 L 444.82 182.56 Z M 450.24 181.24 C 450.26 180.08 449.76 178.26 447.68 178.26 C 445.79 178.26 444.99 179.96 444.85 181.24 L 450.24 181.24 Z " stroke-width="1" />
    <path id="ID0.5654589319601655" d="M 458.59 185.08 C 459.41 185.61 460.58 186 461.84 186 C 463.71 186 464.8 185.01 464.8 183.59 C 464.8 182.29 464.04 181.51 462.13 180.8 C 459.82 179.96 458.39 178.74 458.39 176.77 C 458.39 174.56 460.22 172.93 462.97 172.93 C 464.4 172.93 465.47 173.27 466.08 173.62 L 465.58 175.11 C 465.14 174.84 464.19 174.44 462.91 174.44 C 460.98 174.44 460.24 175.59 460.24 176.56 C 460.24 177.88 461.1 178.53 463.05 179.29 C 465.44 180.21 466.64 181.37 466.64 183.45 C 466.64 185.63 465.04 187.54 461.71 187.54 C 460.34 187.54 458.85 187.12 458.1 186.62 L 458.59 185.08 Z " stroke-width="1" />
    <path id="ID0.30256295716390014" d="M 476.49 186.95 C 476.01 187.18 474.94 187.54 473.57 187.54 C 470.5 187.54 468.51 185.46 468.51 182.35 C 468.51 179.22 470.65 176.93 473.97 176.93 C 475.06 176.93 476.03 177.2 476.53 177.48 L 476.11 178.89 C 475.67 178.66 474.98 178.41 473.97 178.41 C 471.64 178.41 470.38 180.15 470.38 182.25 C 470.38 184.6 471.89 186.05 473.91 186.05 C 474.96 186.05 475.65 185.8 476.18 185.57 L 476.49 186.95 Z " stroke-width="1" />
    <path id="ID0.5001686746254563" d="M 478.65 180.32 C 478.65 179.12 478.63 178.09 478.57 177.15 L 480.19 177.15 L 480.27 179.17 L 480.33 179.17 C 480.79 177.81 481.93 176.94 483.16 176.94 C 483.35 176.94 483.5 176.96 483.66 176.98 L 483.66 178.72 C 483.47 178.68 483.28 178.68 483.03 178.68 C 481.73 178.68 480.8 179.65 480.55 181.03 C 480.51 181.28 480.49 181.6 480.49 181.89 L 480.49 187.31 L 478.64 187.31 L 478.64 180.32 Z " stroke-width="1" />
    <path id="ID0.5177905024029315" d="M 492.55 184.87 C 492.55 185.75 492.59 186.61 492.7 187.31 L 491.04 187.31 L 490.89 186.03 L 490.83 186.03 C 490.26 186.83 489.17 187.54 487.72 187.54 C 485.66 187.54 484.61 186.09 484.61 184.62 C 484.61 182.16 486.79 180.82 490.72 180.84 L 490.72 180.63 C 490.72 179.81 490.49 178.28 488.41 178.3 C 487.44 178.3 486.46 178.57 485.74 179.06 L 485.32 177.82 C 486.16 177.3 487.4 176.94 488.68 176.94 C 491.79 176.94 492.54 179.06 492.54 181.08 L 492.54 184.87 Z M 490.77 182.12 C 488.75 182.08 486.47 182.44 486.47 184.41 C 486.47 185.63 487.27 186.17 488.19 186.17 C 489.53 186.17 490.4 185.33 490.69 184.47 C 490.75 184.26 490.77 184.05 490.77 183.88 L 490.77 182.12 Z " stroke-width="1" />
    <path id="ID0.8063084268942475" d="M 497.67 174.71 L 497.67 177.15 L 500.32 177.15 L 500.32 178.56 L 497.67 178.56 L 497.67 184.04 C 497.67 185.3 498.03 186.01 499.06 186.01 C 499.56 186.01 499.86 185.97 500.13 185.88 L 500.21 187.29 C 499.85 187.42 499.29 187.54 498.57 187.54 C 497.71 187.54 497.02 187.25 496.57 186.76 C 496.07 186.19 495.86 185.29 495.86 184.09 L 495.86 178.55 L 494.28 178.55 L 494.28 177.14 L 495.86 177.14 L 495.86 175.25 L 497.67 174.71 Z " stroke-width="1" />
    <path id="ID0.7881761100143194" d="M 509.52 186.95 C 509.04 187.18 507.97 187.54 506.6 187.54 C 503.53 187.54 501.54 185.46 501.54 182.35 C 501.54 179.22 503.68 176.93 507 176.93 C 508.09 176.93 509.06 177.2 509.56 177.48 L 509.14 178.89 C 508.7 178.66 508.01 178.41 507 178.41 C 504.67 178.41 503.41 180.15 503.41 182.25 C 503.41 184.6 504.92 186.05 506.94 186.05 C 507.99 186.05 508.68 185.8 509.21 185.57 L 509.52 186.95 Z " stroke-width="1" />
    <path id="ID0.39840407529845834" d="M 511.68 172.4 L 513.53 172.4 L 513.53 178.76 L 513.57 178.76 C 513.86 178.24 514.33 177.75 514.89 177.44 C 515.43 177.13 516.09 176.94 516.78 176.94 C 518.15 176.94 520.33 177.78 520.33 181.27 L 520.33 187.32 L 518.48 187.32 L 518.48 181.48 C 518.48 179.84 517.87 178.48 516.13 178.48 C 514.93 178.48 514.01 179.32 513.65 180.31 C 513.55 180.58 513.52 180.86 513.52 181.19 L 513.52 187.32 L 511.67 187.32 L 511.67 172.4 Z " stroke-width="1" />
    <path id="ID0.6836156961508095" d="M 527.2 187.31 L 527.2 186.18 L 528.65 184.77 C 532.14 181.45 533.73 179.69 533.73 177.63 C 533.73 176.24 533.08 174.96 531.04 174.96 C 529.8 174.96 528.77 175.59 528.14 176.12 L 527.55 174.82 C 528.47 174.04 529.84 173.44 531.39 173.44 C 534.33 173.44 535.57 175.46 535.57 177.41 C 535.57 179.93 533.74 181.97 530.87 184.74 L 529.8 185.75 L 529.8 185.79 L 535.91 185.79 L 535.91 187.32 L 527.2 187.32 Z " stroke-width="1" />
    <path id="ID0.20649724872782826" d="M 543.01 172.4 L 544.84 172.4 L 544.84 178.78 L 544.88 178.78 C 545.53 177.65 546.71 176.93 548.34 176.93 C 550.88 176.93 552.64 179.03 552.64 182.1 C 552.64 185.73 550.33 187.54 548.06 187.54 C 546.59 187.54 545.42 186.97 544.64 185.65 L 544.6 185.65 L 544.5 187.31 L 542.92 187.31 C 542.96 186.62 543 185.59 543 184.69 L 543 172.4 Z M 544.84 183.23 C 544.84 183.46 544.86 183.69 544.92 183.9 C 545.26 185.18 546.35 186.06 547.69 186.06 C 549.64 186.06 550.78 184.49 550.78 182.16 C 550.78 180.12 549.73 178.38 547.74 178.38 C 546.5 178.38 545.33 179.26 544.95 180.65 C 544.89 180.88 544.85 181.13 544.85 181.43 L 544.85 183.23 Z " stroke-width="1" />
    <path id="ID0.45310539193451405" d="M 555.99 182.56 C 556.03 185.06 557.61 186.09 559.47 186.09 C 560.79 186.09 561.61 185.86 562.28 185.56 L 562.62 186.88 C 561.97 187.17 560.83 187.53 559.22 187.53 C 556.09 187.53 554.22 185.45 554.22 182.39 C 554.22 179.33 556.03 176.93 558.99 176.93 C 562.33 176.93 563.19 179.83 563.19 181.7 C 563.19 182.08 563.17 182.35 563.13 182.56 L 555.99 182.56 Z M 561.41 181.24 C 561.43 180.08 560.93 178.26 558.85 178.26 C 556.96 178.26 556.16 179.96 556.02 181.24 L 561.41 181.24 Z " stroke-width="1" />
    <path id="ID0.9535638345405459" d="M 567.71 174.71 L 567.71 177.15 L 570.36 177.15 L 570.36 178.56 L 567.71 178.56 L 567.71 184.04 C 567.71 185.3 568.07 186.01 569.1 186.01 C 569.6 186.01 569.9 185.97 570.17 185.88 L 570.25 187.29 C 569.89 187.42 569.33 187.54 568.61 187.54 C 567.75 187.54 567.06 187.25 566.61 186.76 C 566.11 186.19 565.9 185.29 565.9 184.09 L 565.9 178.55 L 564.33 178.55 L 564.33 177.14 L 565.9 177.14 L 565.9 175.25 L 567.71 174.71 Z " stroke-width="1" />
    <path id="ID0.6156750596128404" d="M 579.57 184.87 C 579.57 185.75 579.61 186.61 579.72 187.31 L 578.06 187.31 L 577.91 186.03 L 577.85 186.03 C 577.28 186.83 576.19 187.54 574.74 187.54 C 572.68 187.54 571.63 186.09 571.63 184.62 C 571.63 182.16 573.81 180.82 577.74 180.84 L 577.74 180.63 C 577.74 179.81 577.51 178.28 575.43 178.3 C 574.47 178.3 573.48 178.57 572.76 179.06 L 572.34 177.82 C 573.18 177.3 574.42 176.94 575.7 176.94 C 578.81 176.94 579.56 179.06 579.56 181.08 L 579.56 184.87 Z M 577.79 182.12 C 575.77 182.08 573.49 182.44 573.49 184.41 C 573.49 185.63 574.29 186.17 575.21 186.17 C 576.55 186.17 577.42 185.33 577.71 184.47 C 577.77 184.26 577.79 184.05 577.79 183.88 L 577.79 182.12 Z " stroke-width="1" />
    <path id="ID0.6511801551096141" d="M 582.11 186.22 C 582.11 185.46 582.64 184.9 583.37 184.9 C 584.1 184.9 584.61 185.45 584.61 186.22 C 584.61 186.98 584.11 187.54 583.33 187.54 C 582.62 187.54 582.11 186.97 582.11 186.22 Z " stroke-width="1" />
    <path id="ID0.1615315624512732" d="M 586.46 186.22 C 586.46 185.46 586.98 184.9 587.72 184.9 C 588.45 184.9 588.96 185.45 588.96 186.22 C 588.96 186.98 588.46 187.54 587.68 187.54 C 586.97 187.54 586.46 186.97 586.46 186.22 Z " stroke-width="1" />
    <path id="ID0.27546831918880343" d="M 590.81 186.22 C 590.81 185.46 591.34 184.9 592.07 184.9 C 592.8 184.9 593.31 185.45 593.31 186.22 C 593.31 186.98 592.81 187.54 592.03 187.54 C 591.31 187.54 590.81 186.97 590.81 186.22 Z " stroke-width="1" />
  </g>
  <path id="ID0.8232180043123662" fill="none" stroke="#FFFFFF" stroke-width="2" stroke-linecap="round" d="M 1 44 L 1.3 44.3 "/>
  <path id="ID0.18459778605028987" fill="none" stroke="#FFFFFF" stroke-width="2" stroke-linecap="round" d="M 731 1 L 731.3 1.3 "/>
</svg>