<svg version="1.1" width="621" height="239" viewBox="-1 -1 621 239" xmlns="http://www.w3.org/2000/svg" xmlns:xlink="http://www.w3.org/1999/xlink">
  <!-- Exported by Scratch - http://scratch.mit.edu/ -->
  <path id="ID0.4459972116164863" fill="#7F7F7F" stroke="#FFFF00" stroke-width="2" d="M 15 297 L 480 297 L 480 360 L 15 360 L 15 297 Z " transform="matrix(1.0556745529174805, 0, 0, 1, -14.25, -123.5)"/>
  <path id="ID0.050547581166028976" fill="#995900" stroke="none" d="M 366.750 154 C 366.957 154 367.144 154.028 367.280 154.073 C 367.416 154.119 367.500 154.181 367.500 154.250 C 367.500 154.319 367.416 154.381 367.280 154.427 C 367.144 154.472 366.957 154.500 366.750 154.500 C 366.543 154.500 366.356 154.472 366.220 154.427 C 366.084 154.381 366 154.319 366 154.250 C 366 154.181 366.084 154.119 366.220 154.073 C 366.356 154.028 366.543 154 366.750 154 Z " transform="matrix(1, 0, 0, 1, 5, -154)"/>
  <text id="ID0.16508961468935013" fill="#FFFFFF" x="92" y="217.75" text-anchor="start" font-family="Helvetica" font-size="22" transform="matrix(1, 0, 0, 1, 0, 171.1)">&gt;&gt;&gt;&gt;&gt;&gt;&gt;&gt;&gt;&gt;&gt;&gt;&gt;&gt;&gt;&gt;&gt;&gt;&gt;&gt;&gt;&gt;&gt;&gt;&gt;&gt;&gt;&gt;&gt;&gt;&gt;&gt;&gt;&gt;&gt;&gt;&gt;&gt;&gt;&gt;&gt;&gt;&gt;&gt;&gt;&gt;&gt;&gt;</text>
</svg>