<svg version="1.1" xmlns="http://www.w3.org/2000/svg" xmlns:xlink="http://www.w3.org/1999/xlink" width="81.626" height="99.23588" viewBox="0,0,81.626,99.23588"><g transform="translate(-208,-136)"><g data-paper-data="{&quot;isPaintingLayer&quot;:true}" fill="none" fill-rule="nonzero" stroke="none" stroke-width="none" stroke-linecap="none" stroke-linejoin="none" stroke-miterlimit="10" stroke-dasharray="" stroke-dashoffset="0" font-family="none" font-weight="none" font-size="none" text-anchor="none" style="mix-blend-mode: normal"><path d="M252.296,192.887c0.953,-0.091 10.535,6.87 11.357,7.047c8.516,1.821 11.451,5.473 10.932,6.931c-1.18,3.406 -5.281,4.118 -11.645,1.158c-4.75,-2.212 -11.645,-7.203 -12.49,-7.429" id="ID0.1790580078959465_58_" fill="#ffffff" stroke="#8e5322" stroke-width="1.4" stroke-linecap="round" stroke-linejoin="round"/><path d="M241.684,204.451c0.891,0.431 2.607,1.103 0.633,4.861c-1.975,3.758 -8.882,5.208 -9.702,5.285c-3.032,0.416 -6.916,0.817 -11.293,-0.202c-12.623,-2.808 -14.129,-16.263 -10.462,-18.808c3.668,-2.545 6.271,5.547 12.276,10.022c2.714,2.022 5.663,2.583 8.163,2.773c3.514,0.363 9.528,-4.267 10.385,-3.931z" id="ID0.8535828334279358_37_" fill="#faa51f" stroke="none" stroke-width="1" stroke-linecap="butt" stroke-linejoin="miter"/><path d="M216.148,198.3c1.956,2.288 5.582,6.317 5.582,6.317c0,0 -4.21,-0.232 -6.143,1.82c-1.934,2.049 0.775,5.871 -0.916,4.978c-1.374,-1.215 -3.551,-3.213 -4.955,-6.642c-1.309,-3.461 -0.617,-8.467 1.3,-9.345c2.076,-0.724 3.424,0.714 5.132,2.872z" id="ID0.914295740891248_43_" fill="#ffffff" stroke="none" stroke-width="1" stroke-linecap="butt" stroke-linejoin="miter"/><path d="M241.684,204.451c0.891,0.431 2.607,1.103 0.633,4.861c-1.975,3.758 -8.882,5.208 -9.702,5.285c-3.032,0.416 -6.916,0.817 -11.293,-0.202c-12.623,-2.808 -14.129,-16.263 -10.462,-18.808c3.668,-2.545 6.271,5.547 12.276,10.022c2.714,2.022 5.663,2.583 8.163,2.773c3.514,0.363 9.528,-4.267 10.385,-3.931z" id="ID0.40227043256163597_43_" fill="#ffffff" stroke="#8e5322" stroke-width="1.4" stroke-linecap="round" stroke-linejoin="round"/><path d="M246.588,198.663l-5.072,13.729c0,0 1.586,-0.785 -3.176,2.299c-2.814,1.78 -16.642,-2.591 -18.531,-7.523c-1.293,-3.402 5.352,-18.23 5.352,-18.23z" id="ID0.26344340899959207_38_" fill="#518943" stroke="#426c36" stroke-width="1.4" stroke-linecap="round" stroke-linejoin="round"/><path d="M231.515,178.298c1.377,0.402 2.391,1.564 2.916,3.115c0.527,1.549 0.564,3.488 -0.012,5.449c-0.572,1.959 -1.654,3.57 -2.936,4.59c-1.279,1.021 -2.76,1.449 -4.137,1.045c-1.377,-0.404 -2.391,-1.564 -2.916,-3.117c-0.525,-1.549 -0.564,-3.488 0.01,-5.447c0.576,-1.959 1.656,-3.57 2.938,-4.59c1.279,-1.02 2.76,-1.449 4.137,-1.045z" id="ID0.2414738917723298_38_" fill="#fefbdf" stroke="#70715e" stroke-width="1.4" stroke-linecap="round" stroke-linejoin="round"/><path d="M230.585,179.464c0.74,0.217 1.283,0.855 1.561,1.711c0.277,0.854 0.291,1.926 -0.029,3.012c-0.318,1.084 -0.908,1.98 -1.604,2.549c-0.693,0.57 -1.496,0.813 -2.236,0.596c-0.74,-0.217 -1.283,-0.855 -1.561,-1.711c-0.277,-0.854 -0.289,-1.926 0.029,-3.012c0.318,-1.084 0.908,-1.98 1.604,-2.549c0.695,-0.571 1.496,-0.815 2.236,-0.596z" id="ID0.6192030962556601_38_" fill="#fefbdf" stroke="#70715e" stroke-width="1.4" stroke-linecap="round" stroke-linejoin="round"/><path d="M222.44,206.376c-0.707,-1.144 1.627,-6.607 1.627,-6.607l5.871,3.078l-2.648,7.248c0,0 -4.213,-2.696 -4.85,-3.719z" id="ID0.15330331353470683_38_" fill="#518943" stroke="#426c36" stroke-width="1.4" stroke-linecap="round" stroke-linejoin="round"/><path d="M253.532,199.642c-1.887,6.43 -3.016,16.313 -14.436,12.961c-11.418,-3.352 -7.826,-11.678 -5.939,-18.107c1.887,-6.429 6.326,-7.002 12.756,-5.115c6.428,1.888 9.506,3.833 7.619,10.261z" id="ID0.46792364912107587_43_" fill="#ffffff" stroke="#8e5322" stroke-width="1.4" stroke-linecap="round" stroke-linejoin="round"/><path d="M250.22,201.69c-1.184,4.031 -2.094,10.33 -8.234,8.527c-6.141,-1.801 -4.057,-7.129 -2.873,-11.16c1.184,-4.031 3.631,-4.563 7.182,-3.52c3.55,1.042 5.106,2.126 3.925,6.153z" id="ID0.38032895559445024_43_" fill="#bababa" stroke="none" stroke-width="1" stroke-linecap="butt" stroke-linejoin="miter"/><path d="M251,208.181c0,0 -0.543,9.07 1.557,17.652c0.861,3.715 7.244,-1.596 7.85,5.798c0.117,2.106 -9.012,3.276 -11.207,2.799c-1.984,-0.411 -2.582,-1.027 -2.584,-3.051c0.002,-7.382 -5.395,-18.421 -5.395,-18.421" id="ID0.007584026083350182_51_" fill="#ffffff" stroke="#8e5322" stroke-width="1.4" stroke-linecap="round" stroke-linejoin="round"/><path d="M252.051,227.833c1.438,-0.521 2.752,-0.516 2.752,-0.516" id="ID0.31672530295327306_47_" fill="#faa51f" stroke="#8e5322" stroke-width="1.4" stroke-linecap="round" stroke-linejoin="round"/><path d="M230.73,206.019c19.064,-9.203 6.232,-18.389 6.232,-18.389c16.219,10.074 -1.771,20.949 -6.375,21.369" id="ID0.48627097019925714_38_" fill="#518943" stroke="#426c36" stroke-width="1.4" stroke-linecap="round" stroke-linejoin="round"/><path d="M251.135,205.026c6.51,-7.261 -2.564,-13.99 -2.564,-13.99c10.275,5.83 7.627,11.307 4.119,15.801" id="ID0.07006075512617826_38_" fill="#518943" stroke="#426c36" stroke-width="1.4" stroke-linecap="round" stroke-linejoin="round"/><path d="M255.946,146.052l8.08,-5.965l1.262,11.477c0,0 5.526,5.394 6.977,8.82c2.355,5.671 1.875,9.944 1.875,9.944c0,0 6.553,3.012 7.002,8.623c0.445,5.611 -5.23,15.436 -23.75,16.549c-18.52,1.111 -32.324,-5.713 -37.666,-17.642c-5.252,-11.817 7.228,-23.44 6.527,-22.729l0.289,-18.429l11.377,9.825c0,0 4.49,-1.105 9.076,-0.683c1.697,0.131 4.742,0.747 6.215,1.048z" id="ID0.2591130444779992_41_" fill="#faa51f" stroke="none" stroke-width="1" stroke-linecap="butt" stroke-linejoin="miter"/><path d="M273.676,170.769c0,0 6.326,2.475 6.771,8.086c0.744,5.653 -5.514,15.297 -22.973,16.049c-3.959,0.167 -7.522,0.388 -12.971,-0.353c-8.437,-1.048 -16.937,-7.554 -14.746,-18.457c1.258,-6.288 9.219,-4.7 9.219,-4.7l7.277,-0.826c0,0 6.818,2.543 11.102,2.218c4.284,-0.325 4.729,-3.595 4.729,-3.595l9.07,-1.391l2.107,2.306z" id="ID0.3588979784399271_41_" fill="#ffffff" stroke="none" stroke-width="1" stroke-linecap="butt" stroke-linejoin="miter"/><path d="M288.926,173.652c0,0 -2,1.342 -4.697,1.884c-2.289,0.495 -6.742,0.596 -6.742,0.596" id="ID0.2727069961838424_41_" fill="none" stroke="#8e5322" stroke-width="1.4" stroke-linecap="round" stroke-linejoin="round"/><path d="M286.819,184.669c0,0 -1.808,-0.044 -4.445,-0.707c-2.746,-0.575 -5.174,-2.016 -5.174,-2.016" id="ID0.5861211125738919_41_" fill="none" stroke="#8e5322" stroke-width="1.4" stroke-linecap="round" stroke-linejoin="round"/><path d="M235.843,144.729l4.668,4.268" id="ID0.4793355236761272_41_" fill="none" stroke="#8e5322" stroke-width="1.4" stroke-linecap="round" stroke-linejoin="round"/><path d="M255.946,146.052l8.08,-5.965l1.262,11.477c0,0 5.526,5.394 6.977,8.82c2.355,5.671 1.875,9.944 1.875,9.944c0,0 6.553,3.012 7.002,8.623c0.445,5.611 -5.23,15.436 -23.75,16.549c-18.52,1.111 -32.324,-5.713 -37.666,-17.642c-5.252,-11.817 7.228,-23.44 6.527,-22.729l0.289,-18.429l11.377,9.825c0,0 4.49,-1.105 9.076,-0.683c1.697,0.131 4.742,0.747 6.215,1.048z" id="ID0.48413723474368453_41_" fill="none" stroke="#8e5322" stroke-width="1.4" stroke-linecap="round" stroke-linejoin="round"/><path d="M219.739,173.317c0,0 -3.535,0.024 -5.334,-0.121c-1.795,-0.142 -5.705,-1.079 -5.705,-1.079" id="ID0.9024141579866409_41_" fill="none" stroke="#8e5322" stroke-width="1.4" stroke-linecap="round" stroke-linejoin="round"/><path d="M209.202,162.497c0,0 2.127,0.694 5.848,3.017c3.351,2.07 5.4,4.065 5.4,4.065" id="ID0.16030752705410123_41_" fill="none" stroke="#8e5322" stroke-width="1.4" stroke-linecap="round" stroke-linejoin="round"/><path d="M268.089,159.916c2.195,4.639 1.619,9.606 -1.285,10.927c-2.92,1.419 -7.094,-1.269 -9.275,-6.006c-2.193,-4.639 -1.619,-9.606 1.285,-10.927c2.906,-1.32 7.082,1.368 9.275,6.006z" id="ID0.40023312577977777_41_" fill="#ffffff" stroke="#8e5322" stroke-width="1.4" stroke-linecap="round" stroke-linejoin="round"/><path d="M265.784,163.166c0.188,1.186 -0.537,2.247 -1.723,2.434c-1.074,0.203 -2.119,-0.636 -2.291,-1.937c-0.186,-1.185 0.539,-2.247 1.725,-2.434c1.17,-0.072 2.102,0.75 2.289,1.937" id="ID0.43813491938635707_41_" fill="#414142" stroke="none" stroke-width="1" stroke-linecap="butt" stroke-linejoin="miter"/><path d="M244.683,159.858c2.193,4.638 1.195,9.751 -2.26,11.4c-3.453,1.648 -8.064,-0.796 -10.244,-5.533c-2.195,-4.639 -1.197,-9.751 2.256,-11.399c3.439,-1.55 8.052,0.895 10.248,5.532z" id="ID0.4253597157076001_41_" fill="#ffffff" stroke="#8e5322" stroke-width="1.4" stroke-linecap="round" stroke-linejoin="round"/><path d="M241.431,163.313c-0.18,1.139 -1.387,2.041 -2.566,1.9c-1.311,-0.155 -2.086,-1.175 -1.891,-2.428c0.178,-1.14 1.389,-2.041 2.568,-1.901c1.18,0.138 2.084,1.175 1.889,2.429" id="ID0.814307457767427_41_" fill="#414142" stroke="none" stroke-width="1" stroke-linecap="butt" stroke-linejoin="miter"/><path d="M254.247,171.152c1.711,0.03 4.166,-0.947 4.205,0.976c-0.107,0.793 -2.137,3.847 -3.934,3.703c-1.994,-0.17 -5.125,-3.119 -4.824,-4.592c0.301,-1.473 3.039,-0.091 4.553,-0.087z" id="ID0.5240494590252638_48_" fill="#5f4b43" stroke="#8e5322" stroke-width="1.4" stroke-linecap="round" stroke-linejoin="round"/><path d="M251.478,181.816c3.328,1.072 3.791,4.155 3.801,5.81c-0.141,0.669 -1.201,1.219 -4.648,0.681c-2.904,-0.298 -5.906,-1.334 -5.529,-2.562c0.377,-1.227 2.934,-4.465 6.376,-3.929z" id="ID0.5240494590252638_47_" fill="#5f4b43" stroke="#8e5322" stroke-width="1.4" stroke-linecap="round" stroke-linejoin="round"/><path d="M231.999,201.68c-0.863,0.153 -4.166,2.524 -9.092,4.313c-6.594,2.395 -10.619,1.328 -11.496,-2.168c-0.393,-1.499 2.851,-4.879 11.492,-5.952c0.836,-0.104 10.987,-6.202 11.928,-6.03" id="ID0.1790580078959465_57_" fill="#ffffff" stroke="#8e5322" stroke-width="1.4" stroke-linecap="round" stroke-linejoin="round"/><path d="M240.448,213.098c0,0 -5.559,2.378 -9.879,7.945c-0.49,1.963 -4.115,-2.154 -5.873,-2.968c-1.713,-2.375 -0.084,-7.233 0.537,-9.25c5.951,0.375 10.625,-1.75 10.625,-1.75" id="ID0.007584026083350182_48_" fill="#ffffff" stroke="#8e5322" stroke-width="1.4" stroke-linecap="round" stroke-linejoin="round"/><path d="M232.94729,212.28109c1.00302,4.63961 -0.97925,9.00507 -4.42751,9.75054c-3.44826,0.74547 -7.05674,-2.41136 -8.05975,-7.05097c-1.00302,-4.63961 0.97925,-9.00507 4.42751,-9.75054c3.44826,-0.74547 7.05674,2.41136 8.05975,7.05097z" fill="#ffffff" stroke="#8e5322" stroke-width="1.4" stroke-linecap="round" stroke-linejoin="round"/></g></g></svg>