<svg xmlns="http://www.w3.org/2000/svg" xmlns:xlink="http://www.w3.org/1999/xlink" version="1.1" width="169.68448181152343" height="176.2480041503906" viewBox="-0.09948787689208982 0.9060000419616699 169.68448181152343 176.2480041503906">
  <!-- Exported by Scratch - http://scratch.mit.edu/ -->
  <g id="ID0.2547668074257672">
    <path id="ID0.8373954514972866" fill="#FAA51D" stroke="#000000" stroke-width="1.2" d="M 39.397 138.994 C 39.142 138.994 38.885 138.978 38.626 138.948 C 35.062 138.526 32.513 135.295 32.935 131.729 L 34.975 114.479 C 35.339 111.4 37.829 109.005 40.92 108.762 L 62.264 107.083 C 65.839 106.823 68.972 109.475 69.254 113.054 C 69.535 116.633 66.862 119.762 63.283 120.044 L 47.258 121.304 L 45.845 133.256 C 45.454 136.562 42.646 138.993 39.397 138.994 L 39.397 138.994 Z "/>
    <path id="ID0.4675603983923793_1_" fill="#FAA51D" stroke="#231F20" stroke-width="1.2" d="M 94.787 17.153 C 91.955 16.89 86.052 16.572 82.801 16.728 C 74.107 17.142 65.839 20.273 65.839 20.273 L 41.899 4.65 L 46.008 39.418 C 47.196 37.979 26.598 62.963 39.611 83.964 C 52.632 104.976 80.497 114.339 114.985 107.487 C 149.475 100.63 157.702 80.765 155.417 70.257 C 153.133 59.749 140.113 55.87 140.113 55.87 C 140.113 55.87 139.948 47.632 133.993 37.536 C 130.451 31.526 118.641 22.749 118.641 22.749 L 113.383 1.506 L 99.68 14.754 L 94.787 17.153 L 94.787 17.153 Z "/>
    <path id="ID0.876089540310204_1_" fill="#FFFFFF" d="M 138.389 55.605 L 133.825 51.81 L 117.063 56.703 C 117.063 56.703 117.063 62.991 109.033 64.733 C 100.997 66.483 88.417 60.546 88.417 60.546 L 74.1 66.831 C 74.1 66.831 58.584 68.536 58.03 78.013 C 56.792 99.075 82.634 107.855 92.426 108.414 C 97.769 108.722 107.57 107.792 115.003 106.315 C 147.648 100.368 156.472 80.719 154.191 70.208 C 151.907 59.7 139.519 56.976 139.519 56.976 L 138.389 55.605 L 138.389 55.605 Z " stroke-width="1"/>
    <path id="ID0.44282719027251005_1_" fill="none" stroke="#231F20" stroke-width="1.2" d="M 17.485 75.997 C 17.485 75.997 25.038 76.685 28.471 76.49 C 31.901 76.294 38.571 75.411 38.571 75.411 "/>
    <path id="ID0.893105489667505_1_" fill="none" stroke="#231F20" stroke-width="1.2" d="M 148.018 65.913 C 148.018 65.913 156.383 64.546 160.631 63.063 C 165.623 61.332 168.985 58.383 168.985 58.383 "/>
    <path id="ID0.03574043000116944_1_" fill="none" stroke="#231F20" stroke-width="1.2" d="M 38.934 68.189 C 38.934 68.189 34.55 64.92 27.686 61.881 C 20.083 58.514 15.908 57.646 15.908 57.646 "/>
    <path id="ID0.6674723788164556_1_" fill="none" stroke="#231F20" stroke-width="1.2" d="M 148.866 76.856 C 148.866 76.856 153.88 78.885 159.041 79.403 C 164.136 79.911 167.585 79.605 167.585 79.605 "/>
    <path id="ID0.12165586883202195_1_" fill="none" stroke="#000000" stroke-linecap="round" d="M 94.126 17.256 C 99.348 18.543 101.273 19.957 101.273 19.957 " stroke-width="1"/>
    <path id="ID0.178104005753994_1_" fill="none" stroke="#000000" d="M 60.194 16.285 L 71.335 24.299 " stroke-width="1"/>
    <path id="ID0.7735752793960273_1_" fill="#FFFFFF" stroke="#231F20" d="M 129.967 37.767 C 135.344 46.003 135.544 55.405 130.412 58.758 C 125.275 62.114 116.756 58.149 111.371 49.907 C 105.977 41.669 105.787 32.274 110.923 28.916 C 116.055 25.564 124.584 29.525 129.967 37.767 L 129.967 37.767 Z " stroke-width="1"/>
    <path id="ID0.19106501014903188_1_" fill="#231F20" d="M 128.586 50.928 C 128.586 52.913 127.111 54.525 125.275 54.525 C 123.449 54.525 121.96 52.913 121.96 50.928 C 121.96 48.942 123.449 47.326 125.275 47.326 C 127.112 47.326 128.586 48.941 128.586 50.928 " stroke-width="1"/>
    <path id="ID0.06283409334719181_1_" fill="#FFFFFF" stroke="#231F20" d="M 85.882 43.75 C 91.263 51.988 90.697 61.886 84.629 65.845 C 78.557 69.816 69.273 66.345 63.894 58.107 C 58.51 49.869 59.069 39.975 65.141 36.008 C 71.215 32.043 80.497 35.508 85.882 43.75 L 85.882 43.75 Z " stroke-width="1"/>
    <path id="ID0.716460831463337_1_" fill="#231F20" d="M 82.594 54.577 C 82.594 56.565 81.117 58.177 79.281 58.177 C 77.457 58.177 75.967 56.562 75.967 54.577 C 75.967 52.592 77.457 50.978 79.281 50.978 C 81.114 50.978 82.594 52.592 82.594 54.577 " stroke-width="1"/>
    <path id="ID0.5430324394255877_1_" fill="#5E4A42" stroke="#000000" d="M 107.764 60.864 C 111.173 60.864 116.14 60.343 116.401 61.911 C 116.665 63.483 113.258 69.64 110.907 69.901 C 108.548 70.163 99.643 65.574 99.514 62.694 C 99.378 59.815 104.618 60.864 107.764 60.864 L 107.764 60.864 Z " stroke-width="1"/>
    <path id="ID0.5547774969600141_1_" fill="none" stroke="#231F20" stroke-width="1.2" d="M 83.873 74.306 C 83.873 74.306 102.9 79.922 110.017 81.472 C 117.13 83.021 129.972 84.57 129.972 84.57 C 129.972 84.57 115.279 103.41 98.107 98.627 C 80.934 93.85 81.245 83.022 83.873 74.306 L 83.873 74.306 Z "/>
    <path id="ID0.4288013046607375" fill="#FAA51D" stroke="#000000" stroke-width="1.2" d="M 115.528 175.054 C 115.527 175.054 115.527 175.054 115.526 175.054 L 94.471 175.049 C 90.934 175.048 87.878 172.576 87.139 169.116 L 83.516 152.166 L 74.909 142.627 C 72.135 139.552 72.378 134.809 75.453 132.034 C 78.528 129.259 83.271 129.503 86.046 132.578 L 95.999 143.609 C 96.881 144.587 97.49 145.779 97.765 147.066 L 100.54 160.049 L 115.53 160.053 C 119.672 160.054 123.029 163.412 123.028 167.555 C 123.027 171.697 119.669 175.054 115.528 175.054 L 115.528 175.054 Z "/>
    <path id="ID0.7152078151702881_1_" fill="#FAA51D" stroke="#000000" d="M 35.803 133.921 C 31.602 132.258 26.69 129.693 23.059 124.877 C 14.944 114.103 14.643 98.881 6.954 101.294 C -0.741 103.707 -5.202 127.339 15.285 138.874 C 22.346 142.855 29.23 144.206 34.844 145.142 C 36.317 145.381 49.003 146.672 54.469 141.329 C 59.933 135.986 57.268 133.871 55.974 132.734 C 54.678 131.599 41.746 136.272 35.803 133.921 L 35.803 133.921 Z " stroke-width="1"/>
    <path id="ID0.4691764716990292_1_" fill="#FFFFFF" d="M 7.882 101.951 C 4.074 102.36 0.573 109.893 1.153 116.536 C 1.728 123.186 4.142 126.527 5.877 129.443 C 8.271 131.853 5.421 124.854 9.793 122.429 C 14.151 120.01 20.462 122.793 20.462 122.793 C 20.462 122.793 16.612 114.575 14.461 109.644 C 12.436 104.921 11.891 101.792 7.882 101.951 L 7.882 101.951 Z " stroke-width="1"/>
    <path id="ID0.26425604708492756_1_" fill="#FAA51D" stroke="#231F20" stroke-width="1.2" d="M 83.144 141.936 C 85.329 140.258 87.552 137.518 90.411 133.268 C 92.794 129.725 95.376 123.011 95.376 123.011 C 96.984 118.375 98.933 110.918 91.878 109.594 C 89.023 109.059 84.377 109.414 77.774 108.167 C 71.167 106.914 65.273 103.529 60.273 112.273 C 55.275 121.021 42.637 127.482 58.331 142.731 L 83.144 141.936 Z "/>
    <path id="ID0.9143255986273289" fill="#FAA51D" stroke="#000000" stroke-width="1.2" d="M 34.259 176.554 C 32.193 176.554 30.136 175.705 28.655 174.041 L 16.194 160.038 C 14.265 157.87 13.76 154.784 14.897 152.115 C 16.034 149.445 18.609 147.671 21.508 147.559 L 48.215 146.529 L 52.644 133.698 C 53.996 129.784 58.263 127.704 62.181 129.055 C 66.096 130.407 68.175 134.677 66.824 138.592 L 60.72 156.273 C 59.71 159.197 57.01 161.201 53.919 161.32 L 37.961 161.935 L 39.857 164.066 C 42.612 167.16 42.336 171.901 39.243 174.655 C 37.814 175.928 36.033 176.554 34.259 176.554 L 34.259 176.554 Z "/>
    <path id="ID0.203311821911484_1_" fill="#FFFFFF" d="M 91.419 129.84 C 91.419 129.84 95.961 124.948 86.879 120.062 C 77.797 115.176 73.614 120.031 70.809 122.859 C 65.947 127.742 77.14 135.017 77.14 135.017 L 82.981 140.909 C 82.981 140.909 86.176 137.881 87.577 135.431 C 89.182 133.198 91.419 129.84 91.419 129.84 " stroke-width="1"/>
    <path id="ID0.5480910213664174" fill="#FAA51D" d="M 66.6542 128.8098 C 68.5835 130.7087 69.6611 133.1109 69.8431 135.4578 C 70.0243 137.8055 69.3113 140.0967 67.6592 141.7751 C 66.0072 143.4535 63.7277 144.2027 61.3774 144.0587 C 59.0278 143.914 56.6089 142.8745 54.6796 140.9756 C 52.7504 139.0766 51.6727 136.6745 51.4908 134.3275 C 51.3096 131.9798 52.0226 129.6887 53.6746 128.0103 C 55.3267 126.3319 57.6062 125.5826 59.9565 125.7266 C 62.3061 125.8714 64.725 126.9108 66.6542 128.8098 Z " stroke-width="1.0000217754203118"/>
    <path id="ID0.5048491437919438" fill="#FAA51D" stroke="#000000" stroke-width="1.2" d="M 101.609 133.366 C 100.448 133.366 99.29 133.055 98.263 132.439 L 81.568 122.417 C 78.49 120.569 77.493 116.576 79.34 113.498 C 81.187 110.42 85.18 109.423 88.259 111.27 L 101.914 119.468 L 117.683 111.695 C 120.903 110.11 124.8 111.431 126.387 114.651 C 127.974 117.871 126.651 121.768 123.431 123.355 L 104.483 132.696 C 103.575 133.143 102.591 133.366 101.609 133.366 L 101.609 133.366 Z "/>
  </g>
</svg>