<svg xmlns="http://www.w3.org/2000/svg" xmlns:xlink="http://www.w3.org/1999/xlink" version="1.1" width="116.03279876708984" height="119.72129821777344" viewBox="-0.5 -0.75 116.03279876708984 119.72129821777344">
  <!-- Exported by Scratch - http://scratch.mit.edu/ -->
  <path id="ID0.4059793520718813" fill="#522828" stroke="#000000" stroke-width="2" d="M 58.65 23.9 C 68.761 23.9 77.924 28.007 84.559 34.641 C 91.193 41.276 95.3 50.439 95.3 60.55 C 95.3 70.661 91.193 79.824 84.559 86.459 C 77.924 93.093 68.761 97.2 58.65 97.2 C 48.539 97.2 39.376 93.093 32.741 86.459 C 26.107 79.824 22 70.661 22 60.55 C 22 50.439 26.107 41.276 32.741 34.641 C 39.376 28.007 48.539 23.9 58.65 23.9 Z "/>
  <path id="ID0.06171654677018523" fill="#6D4F27" stroke="none" d="M 32.2464 59.1182 C 33.8468 58.4053 35.7526 58.7835 37.5396 59.969 C 39.3257 61.1548 40.9934 63.1488 42.116 65.669 C 43.2387 68.1893 43.6056 70.7627 43.2925 72.8836 C 42.9785 75.0049 41.985 76.6747 40.3846 77.3876 C 38.7842 78.1005 36.8784 77.7223 35.0914 76.5368 C 33.3053 75.351 31.6377 73.357 30.515 70.8368 C 29.3923 68.3165 29.0254 65.7431 29.3385 63.6222 C 29.6525 61.5009 30.646 59.8311 32.2464 59.1182 Z " stroke-width="0.9999999941965036"/>
  <path id="ID0.06171654677018523" fill="#6D4F27" stroke="none" d="M 81.1099 68.9952 C 82.592 70.6862 83.0915 72.9569 82.7032 75.2599 C 82.314 77.5619 81.0363 79.897 78.9614 81.7155 C 76.8866 83.534 74.4042 84.4946 72.071 84.5786 C 69.7369 84.6616 67.5514 83.8687 66.0692 82.1777 C 64.5871 80.4866 64.0876 78.216 64.4759 75.9129 C 64.8651 73.6109 66.1428 71.2759 68.2177 69.4573 C 70.2926 67.6388 72.775 66.6782 75.1082 66.5942 C 77.4422 66.5112 79.6278 67.3041 81.1099 68.9952 Z " stroke-width="1.1504957831389895"/>
  <path id="ID0.06171654677018523" fill="#6D4F27" stroke="none" d="M 65.491 47.6548 C 65.6635 50.2208 64.7013 52.6204 63.0086 54.4261 C 61.3158 56.2304 58.8916 57.4409 56.1388 57.6259 C 53.386 57.811 50.8215 56.9359 48.9024 55.3744 C 46.9833 53.8115 45.7086 51.5623 45.536 48.9963 C 45.3635 46.4303 46.3258 44.0307 48.0184 42.225 C 49.7112 40.4207 52.1355 39.2102 54.8883 39.0251 C 57.6411 38.8401 60.2055 39.7152 62.1246 41.2766 C 64.0438 42.8396 65.3185 45.0887 65.491 47.6548 Z " stroke-width="1.2559541700053596"/>
  <path id="ID0.06171654677018523" fill="#6D4F27" stroke="none" d="M 83.8116 42.4659 C 84.5367 42.1429 85.4973 42.5321 86.4636 43.4209 C 87.4296 44.31 88.4016 45.6993 89.1491 47.3773 C 89.8966 49.0554 90.2792 50.7072 90.2941 52.02 C 90.3085 53.3329 89.9554 54.3073 89.2303 54.6303 C 88.5052 54.9533 87.5446 54.564 86.5783 53.6752 C 85.6124 52.7861 84.6403 51.3968 83.8928 49.7188 C 83.1453 48.0407 82.7627 46.3889 82.7478 45.0762 C 82.7334 43.7633 83.0865 42.7889 83.8116 42.4659 Z " stroke-width="0.5694827624778586"/>
  <path id="ID0.033297700341790915_9_" fill="none" d="M 0.5 0.25 L 114.5328 0.25 L 114.5328 117.9713 L 0.5 117.9713 L 0.5 0.25 Z " stroke-width="1.084480332450292"/>
</svg>