<svg xmlns="http://www.w3.org/2000/svg" xmlns:xlink="http://www.w3.org/1999/xlink" version="1.1" width="45.832759857177734" height="66.5254898071289" viewBox="0.267238974571228 0.7745165824890137 45.832759857177734 66.5254898071289">
  <!-- Exported by Scratch - http://scratch.mit.edu/ -->
  <g id="ID0.8810850428417325">
    <path id="ID0.1943633360788226" fill="#FF2E00" stroke="#000000" d="M 40.6 21.4 C 40.4 16.6 39.2 11.2 36.7 7.2 C 34.5 3.7 30.9 1.1 27.4 1.3 C 25.5 1.2 23.5 1.4 21.6 1.8 L 27.9 8.1 L 20.7 15.3 L 27.9 22.5 L 20.7 29.7 L 27.9 36.9 L 26.3 38.8 C 30.4 38.9 34.7 38.7 37.6 35.5 C 40.9 32.6 40.8 26.3 40.6 21.4 Z " stroke-width="1"/>
    <path id="ID0.2068682238459587" fill="#FF2E00" stroke="#000000" d="M 23.2 38.8 C 24.2 38.8 25.2 38.8 26.2 38.8 L 27.7 37.1 L 20.5 29.9 L 27.7 22.7 L 20.5 15.5 L 27.7 8.3 L 21.4 2 C 17.8 2.8 14.4 4.6 11.6 7.3 C 8.2 10.6 6.1 16.4 5.7 21.5 C 5.3 26.5 5.9 32.9 9 36.2 C 12.9 39.6 18.5 38.8 23.2 38.8 Z " stroke-width="1"/>
    <path id="ID0.5443468582816422_1_" fill="#F52C00" stroke="#000000" d="M 24 36.9 C 35.7 36.7 45.4 23.5 45.6 28.3 C 44.5 48.4 38.9 60.5 35.6 63.5 C 32 67.5 28.2 66.7 23.3 66.7 C 18.6 66.7 15 67.6 11.2 64 C 8 60.8 0.2 50.2 0.8 28.4 C 1.2 23.3 11.1 36.8 24 36.9 Z " stroke-width="1"/>
  </g>
</svg>