<svg version="1.1" xmlns="http://www.w3.org/2000/svg" xmlns:xlink="http://www.w3.org/1999/xlink" width="207.39966" height="214.95351" viewBox="0,0,207.39966,214.95351"><g transform="translate(-136.30017,-72.52325)"><g data-paper-data="{&quot;isPaintingLayer&quot;:true}" fill-rule="nonzero" stroke-linecap="butt" stroke-linejoin="miter" stroke-miterlimit="10" stroke-dasharray="" stroke-dashoffset="0" style="mix-blend-mode: normal"><path d="" fill="#e60000" stroke="none" stroke-width="0.5"/><path d="M280.86114,226.73684v0v0z" fill="none" stroke="#e60000" stroke-width="0.5"/><path d="M338.19983,180c0,56.3202 -43.96556,101.97676 -98.19983,101.97676c-54.23427,0 -98.19983,-45.65656 -98.19983,-101.97676c0,-56.3202 43.96556,-101.97675 98.19983,-101.97675c54.23427,0 98.19983,45.65655 98.19983,101.97675z" fill="none" stroke="#00e6e6" stroke-width="11"/><path d="M311.51775,180c0,36.03282 -32.01958,65.24319 -71.51775,65.24319c-39.49816,0 -71.51775,-29.21038 -71.51775,-65.24319c0,-36.03282 32.01958,-65.24319 71.51775,-65.24319c39.49816,0 71.51775,29.21037 71.51775,65.24319z" fill="none" stroke="#e60000" stroke-width="11"/><path d="M298.99491,180c0,30.46789 -26.41292,55.16699 -58.99491,55.16699c-32.58199,0 -58.99491,-24.6991 -58.99491,-55.16699c0,-30.46789 26.41292,-55.16699 58.99491,-55.16699c32.58199,0 58.99491,24.6991 58.99491,55.167z" fill="#e6e6e6" stroke="#e6e6e6" stroke-width="2"/></g></g></svg>