<svg version="1.1" xmlns="http://www.w3.org/2000/svg" xmlns:xlink="http://www.w3.org/1999/xlink" width="542" height="324.54955" viewBox="0,0,542,324.54955"><g transform="translate(35.5,-54.45045)"><g data-paper-data="{&quot;isPaintingLayer&quot;:true}" fill-rule="nonzero" stroke="none" stroke-width="0" stroke-linecap="butt" stroke-linejoin="miter" stroke-miterlimit="10" stroke-dasharray="" stroke-dashoffset="0" style="mix-blend-mode: normal"><path d="M-35.5,379v-195c0,0 59.66667,135 274,137c197.32474,1.84129 268,-137 268,-137v195z" fill="#1d1f40"/><path d="M56.26611,206.26135l7.2877,-18.8475l96.66945,37.37886l-7.2877,18.8475z" fill="#1d1f40"/><path d="M315.503,78.95045c0,-13.53098 10.96902,-24.5 24.5,-24.5c13.53098,0 24.5,10.96902 24.5,24.5c0,13.53098 -10.96902,24.5 -24.5,24.5c-13.53098,0 -24.5,-10.96902 -24.5,-24.5z" fill="#1d1f40"/><path d="M268.5,227.03303c0,-8.83656 7.16344,-16 16,-16c8.83656,0 16,7.16344 16,16c0,8.83656 -7.16344,16 -16,16c-8.83656,0 -16,-7.16344 -16,-16z" fill="#1d1f40"/><path d="M389.48498,184.53303c0,-8.56041 6.93959,-15.5 15.5,-15.5c8.56041,0 15.5,6.93959 15.5,15.5c0,8.56041 -6.93959,15.5 -15.5,15.5c-8.56041,0 -15.5,-6.93959 -15.5,-15.5z" fill="#1d1f40"/><path d="M101.11111,350.15326v-135.13514h15.01502v135.13514z" fill="#1d1f40"/></g></g></svg>