<svg xmlns="http://www.w3.org/2000/svg" xmlns:xlink="http://www.w3.org/1999/xlink" version="1.1" width="164.39729616660574" height="186.24798891562918" viewBox="5.475698840525249 0.5560000061059981 164.39729616660574 186.24798891562918">
  <!-- Exported by Scratch - http://scratch.mit.edu/ -->
  <g id="ID0.8260631002485752">
    <path id="ID0.7152078151702881_1_" fill="#FAA51D" stroke="#000000" d="M 47.6719 143.6669 C 44.4378 146.8235 40.0904 150.2605 34.2109 151.6061 C 21.0635 154.6153 7.0454 148.6739 6.1079 156.6776 C 5.1692 164.6888 24.9182 178.4101 43.815 164.4185 C 50.331 159.6 54.3763 153.866 57.5225 149.1246 C 58.3417 147.8769 64.7025 136.8244 62.056 129.6543 C 59.4083 122.4835 56.3908 124.0527 54.8246 124.7693 C 53.2585 125.49 52.2435 139.2027 47.6719 143.6669 L 47.6719 143.6669 Z " stroke-width="0.9999999852001027"/>
    <path id="ID0.4691764716990292_1_" fill="#FFFFFF" d="M 7.0884 156.1008 C 5.9064 159.7413 11.3531 166.013 17.6526 168.1981 C 23.9583 170.3878 27.9939 169.5494 31.3642 169.1556 C 34.5417 167.9544 26.9897 167.698 26.5612 162.7172 C 26.1335 157.7516 31.2515 153.1276 31.2515 153.1276 C 31.2515 153.1276 22.1777 153.2858 16.7952 153.235 C 11.6583 153.1563 8.5792 152.3759 7.0884 156.1008 L 7.0884 156.1008 Z " stroke-width="0.9999999852001027"/>
  </g>
  <path id="ID0.2856518356129527" fill="#FAA51D" stroke="#000000" stroke-width="1.2" d="M 90.832 153.780 C 88.841 153.781 86.876 152.869 85.601 151.144 L 74.643 136.324 C 73.321 134.536 73.004 132.197 73.804 130.122 L 80.383 113.054 C 81.675 109.704 85.440 108.038 88.786 109.326 C 92.136 110.618 93.805 114.380 92.514 117.729 L 87.219 131.466 L 96.054 143.415 C 98.188 146.302 97.578 150.371 94.692 152.506 C 93.529 153.366 92.175 153.780 90.832 153.780 L 90.832 153.780 Z "/>
  <path id="ID0.46319058258086443" fill="#FAA51D" stroke="#000000" stroke-width="1.2" d="M 98.561 184.125 C 98.540 184.125 98.519 184.125 98.498 184.125 L 78.416 183.977 C 75.992 183.961 73.725 182.775 72.330 180.792 C 70.934 178.810 70.584 176.274 71.389 173.988 L 77.385 156.941 L 68.575 138.571 C 66.784 134.836 68.360 130.356 72.095 128.565 C 75.828 126.775 80.311 128.350 82.101 132.085 L 92.253 153.257 C 93.113 155.051 93.226 157.112 92.566 158.988 L 89.029 169.046 L 98.624 169.125 C 102.766 169.159 106.096 172.545 106.062 176.688 C 106.025 180.807 102.674 184.125 98.561 184.125 L 98.561 184.125 Z "/>
  <path id="ID0.26425604708492756_1_" fill="#FAA51D" stroke="#231F20" stroke-width="1.2" d="M 85.836 141.586 C 88.021 139.908 90.244 137.168 93.103 132.918 C 95.486 129.375 98.068 122.661 98.068 122.661 C 99.676 118.025 101.625 110.568 94.570 109.244 C 91.715 108.709 87.069 109.064 80.466 107.817 C 73.859 106.564 67.965 103.179 62.965 111.923 C 57.967 120.671 45.329 127.132 61.023 142.381 L 85.836 141.586 Z "/>
  <path id="ID0.06476658303290606" fill="#FAA51D" stroke="#000000" stroke-width="1.2" d="M 73.948 186.204 L 49.489 186.204 C 46.765 186.204 44.256 184.727 42.932 182.346 C 41.610 179.965 41.682 177.054 43.121 174.742 L 55.832 154.317 L 55.925 135.759 C 55.946 131.629 59.300 128.296 63.424 128.296 C 63.437 128.296 63.449 128.296 63.462 128.296 C 67.605 128.317 70.945 131.692 70.925 135.833 L 70.821 156.514 C 70.814 157.903 70.422 159.261 69.688 160.440 L 62.989 171.205 L 73.947 171.205 C 78.090 171.205 81.447 174.562 81.447 178.705 C 81.447 182.848 78.091 186.204 73.948 186.204 L 73.948 186.204 Z "/>
  <path id="ID0.203311821911484_1_" fill="#FFFFFF" d="M 94.111 129.490 C 94.111 129.490 98.653 124.598 89.571 119.712 C 80.489 114.826 76.306 119.681 73.501 122.509 C 68.639 127.392 78.832 138.667 78.832 138.667 L 85.673 140.559 C 85.673 140.559 88.868 137.531 90.269 135.081 C 91.874 132.848 94.111 129.490 94.111 129.490 " stroke-width="1"/>
  <path id="ID0.59592011757195" fill="#FAA51D" d="M 71.392 141.379 C 68.085 144.738 62.274 144.380 58.413 140.579 C 54.551 136.779 54.101 130.973 57.409 127.614 C 60.716 124.254 66.528 122.611 70.389 126.412 C 76.961 132.880 77.323 135.351 71.392 141.379 Z " stroke-width="1"/>
  <path id="ID0.4675603983923793_1_" fill="#FAA51D" stroke="#231F20" stroke-width="1.2" d="M 93.479 16.803 C 90.647 16.540 84.744 16.222 81.493 16.378 C 72.799 16.792 64.531 19.923 64.531 19.923 L 40.591 4.300 L 44.700 39.068 C 45.888 37.629 25.290 62.613 38.303 83.614 C 51.324 104.626 79.189 113.989 113.677 107.137 C 148.167 100.280 156.394 80.415 154.109 69.907 C 151.825 59.399 138.805 55.520 138.805 55.520 C 138.805 55.520 138.640 47.282 132.685 37.186 C 129.143 31.176 117.333 22.399 117.333 22.399 L 112.075 1.156 L 98.372 14.404 L 93.479 16.803 L 93.479 16.803 Z "/>
  <path id="ID0.876089540310204_1_" fill="#FFFFFF" d="M 137.081 55.255 L 132.517 51.460 L 115.755 56.353 C 115.755 56.353 115.755 62.641 107.725 64.383 C 99.689 66.133 87.109 60.196 87.109 60.196 L 72.793 66.480 C 72.793 66.480 57.277 68.185 56.723 77.662 C 55.485 98.724 81.327 107.504 91.119 108.063 C 96.462 108.371 106.263 107.441 113.696 105.964 C 146.341 100.017 155.165 80.368 152.884 69.857 C 150.600 59.349 138.212 56.625 138.212 56.625 L 137.081 55.255 L 137.081 55.255 Z " stroke-width="1"/>
  <path id="ID0.44282719027251005_1_" fill="none" stroke="#231F20" stroke-width="1.1999999733098556" d="M 17.5044 82.8471 C 17.5044 82.8471 25.0226 81.8478 28.3275 80.8985 C 31.6292 79.9489 37.9388 77.6128 37.9388 77.6128 "/>
  <path id="ID0.893105489667505_1_" fill="none" stroke="#231F20" stroke-width="1.2000000240276278" d="M 147.3357 64.8398 C 147.3357 64.8398 155.8115 64.9046 160.2489 64.1601 C 165.4614 63.2967 169.273 60.9576 169.273 60.9576 "/>
  <path id="ID0.03574043000116944_1_" fill="none" stroke="#231F20" stroke-width="1.1999999846816443" d="M 37.0143 69.0738 C 37.0143 69.0738 31.8 67.4255 24.3187 66.8087 C 16.0321 66.1257 11.8032 66.6757 11.8032 66.6757 "/>
  <path id="ID0.6674723788164556_1_" fill="none" stroke="#231F20" stroke-width="1.1999999969426247" d="M 147.9002 76.3696 C 147.9002 76.3696 152.5061 79.2056 157.5086 80.5762 C 162.4478 81.9259 165.8996 82.1987 165.8996 82.1987 "/>
  <path id="ID0.12165586883202195_1_" fill="none" stroke="#000000" stroke-linecap="round" d="M 92.818 16.906 C 98.040 18.193 99.965 19.607 99.965 19.607 " stroke-width="1"/>
  <path id="ID0.178104005753994_1_" fill="none" stroke="#000000" d="M 58.886 15.935 L 70.027 23.949 " stroke-width="1"/>
  <path id="ID0.7735752793960273_1_" fill="#FFFFFF" stroke="#231F20" d="M 128.659 37.417 C 134.036 45.653 134.236 55.055 129.104 58.408 C 123.967 61.764 115.448 57.799 110.063 49.557 C 104.669 41.319 104.479 31.924 109.615 28.566 C 114.747 25.214 123.276 29.175 128.659 37.417 L 128.659 37.417 Z " stroke-width="1"/>
  <path id="ID0.19106501014903188_1_" fill="#231F20" d="M 129.078 47.078 C 129.078 49.063 127.603 50.675 125.767 50.675 C 123.941 50.675 122.452 49.063 122.452 47.078 C 122.452 45.092 123.941 43.476 125.767 43.476 C 127.604 43.476 129.078 45.091 129.078 47.078 " stroke-width="1"/>
  <path id="ID0.06283409334719181_1_" fill="#FFFFFF" stroke="#231F20" d="M 84.574 43.400 C 89.955 51.638 89.389 61.536 83.321 65.495 C 77.249 69.466 67.965 65.995 62.586 57.757 C 57.202 49.519 57.761 39.625 63.833 35.658 C 69.907 31.693 79.188 35.158 84.574 43.400 L 84.574 43.400 Z " stroke-width="1"/>
  <path id="ID0.716460831463337_1_" fill="#231F20" d="M 85.536 53.977 C 85.536 55.965 84.059 57.577 82.223 57.577 C 80.399 57.577 78.909 55.962 78.909 53.977 C 78.909 51.992 80.399 50.378 82.223 50.378 C 84.056 50.378 85.536 51.992 85.536 53.977 " stroke-width="1"/>
  <path id="ID0.5430324394255877_1_" fill="#5E4A42" stroke="#000000" d="M 106.456 60.514 C 109.865 60.514 114.832 59.993 115.093 61.561 C 115.357 63.133 111.950 69.290 109.599 69.551 C 107.240 69.813 98.335 65.224 98.206 62.344 C 98.070 59.465 103.310 60.514 106.456 60.514 L 106.456 60.514 Z " stroke-width="1"/>
  <path id="ID0.5547774969600141_1_" fill="none" stroke="#231F20" stroke-width="1.1999999773359835" d="M 132.047 93.8943 C 132.047 93.8943 112.2624 95.3553 105.0563 96.4169 C 97.8544 97.4781 85.2921 100.5614 85.2921 100.5614 C 85.2921 100.5614 92.39 77.748 110.145 76.1624 C 127.8979 74.5711 131.4286 84.8121 132.047 93.8943 L 132.047 93.8943 Z "/>
  <path id="ID0.6480262982659042" fill="#FAA51D" stroke="#000000" stroke-width="1.2" d="M 73.241 152.983 C 71.193 152.983 69.178 152.018 67.914 150.214 L 57.279 135.051 C 55.820 132.971 55.707 130.231 56.989 128.037 L 67.008 110.905 C 68.821 107.805 72.806 106.766 75.901 108.575 C 79 110.388 80.043 114.369 78.231 117.468 L 70.316 131 L 78.556 142.749 C 80.618 145.688 79.907 149.742 76.967 151.803 C 75.832 152.600 74.530 152.983 73.241 152.983 L 73.241 152.983 Z "/>
</svg>