<svg xmlns="http://www.w3.org/2000/svg" xmlns:xlink="http://www.w3.org/1999/xlink" version="1.1" width="313.58728353064896" height="132.3606905130708" viewBox="-0.24364175340353977 -0.7936417653244687 313.58728353064896 132.3606905130708">
  <!-- Exported by Scratch - http://scratch.mit.edu/ -->
  <path id="ID0.4177084397524595_15_" fill="none" d="M 0.55 0 L 312.55 0 L 312.55 6.0003 L 0.55 6.0003 L 0.55 0 Z " stroke-width="1.5872835306489375"/>
  <g id="ID0.275018276181072">
    <path id="ID0.7432805462740362" fill="#FFFFFF" d="M 161.95 29.43 L 161.82 26.19 C 154.21 28.24 146.74 29.35 139.2 29.58 C 137.31 29.64 135.43 29.64 133.56 29.57 C 115.94 30.19 99.31 23.3 82.85 23.73 C 79.93 24.09 68.66 25.14 63.94 26.19 C 63.94 26.19 63.94 26.9 63.94 27.69 C 63.94 28.22 63.94 28.79 63.94 29.19 L 63.94 42.26 L 161.94 42.26 L 161.94 29.44 C 161.93 29.44 161.94 29.44 161.95 29.43 Z " stroke-width="1"/>
    <path id="ID0.36612138664349914" fill="#BBD8ED" d="M 161.95 32.43 L 161.82 29.19 C 154.21 31.24 146.74 32.35 139.2 32.58 C 137.31 32.64 135.43 32.64 133.56 32.57 C 115.94 33.19 99.14 26.3 82.85 26.73 C 79.93 27.09 68.66 28.14 63.94 29.19 C 63.94 29.19 63.94 29.9 63.94 30.69 C 63.94 31.22 63.94 31.79 63.94 32.19 L 63.94 47.26 L 161.94 47.26 L 161.94 32.44 C 161.93 32.44 161.94 32.44 161.95 32.43 Z " stroke-width="1"/>
    <path id="ID0.16256088856607676" fill="#95BFDE" d="M 161.95 42.43 L 161.82 39.19 C 154.21 41.24 146.74 42.35 139.2 42.58 C 137.31 42.64 135.43 42.64 133.56 42.57 C 115.94 43.19 99.31 36.31 82.85 36.73 C 79.93 37.09 68.66 38.14 63.94 39.19 C 63.94 39.19 63.94 39.9 63.94 40.69 C 63.94 41.22 63.94 41.79 63.94 42.19 L 63.94 62.26 L 161.94 62.26 L 161.94 42.44 C 161.93 42.44 161.94 42.44 161.95 42.43 Z " stroke-width="1"/>
    <path id="ID0.25167091004550457" fill="#79AED4" d="M 161.95 55.4025 L 161.82 53.6362 C 154.21 54.7538 146.74 55.3589 139.2 55.4842 C 137.31 55.5169 135.43 55.5169 133.56 55.4788 C 115.94 55.8168 99.47 52.0608 82.85 52.2952 C 79.93 52.4914 68.66 53.0638 63.94 53.6362 C 63.94 53.6362 63.94 54.0233 63.94 54.4539 C 63.94 54.7428 63.94 55.0536 63.94 55.2716 L 63.94 130.7734 L 161.94 130.7734 L 161.94 55.4079 C 161.93 55.4079 161.94 55.4079 161.95 55.4025 Z " stroke-width="0.8053497424720631"/>
  </g>
  <g id="ID0.275018276181072">
    <path id="ID0.7432805462740362" fill="#FFFFFF" d="M 258.55 29.43 L 258.42 26.19 C 250.81 28.24 243.34 29.35 235.8 29.58 C 233.91 29.64 232.03 29.64 230.16 29.57 C 212.54 30.19 195.91 23.3 179.45 23.73 C 176.53 24.09 165.26 25.14 160.54 26.19 C 160.54 26.19 160.54 26.9 160.54 27.69 C 160.54 28.22 160.54 28.79 160.54 29.19 L 160.54 42.26 L 258.54 42.26 L 258.54 29.44 C 258.53 29.44 258.54 29.44 258.55 29.43 Z " stroke-width="1"/>
    <path id="ID0.36612138664349914" fill="#BBD8ED" d="M 258.55 32.43 L 258.42 29.19 C 250.81 31.24 243.34 32.35 235.8 32.58 C 233.91 32.64 232.03 32.64 230.16 32.57 C 212.54 33.19 195.74 26.3 179.45 26.73 C 176.53 27.09 165.26 28.14 160.54 29.19 C 160.54 29.19 160.54 29.9 160.54 30.69 C 160.54 31.22 160.54 31.79 160.54 32.19 L 160.54 47.26 L 258.54 47.26 L 258.54 32.44 C 258.53 32.44 258.54 32.44 258.55 32.43 Z " stroke-width="1"/>
    <path id="ID0.16256088856607676" fill="#95BFDE" d="M 258.55 42.43 L 258.42 39.19 C 250.81 41.24 243.34 42.35 235.8 42.58 C 233.91 42.64 232.03 42.64 230.16 42.57 C 212.54 43.19 195.91 36.31 179.45 36.73 C 176.53 37.09 165.26 38.14 160.54 39.19 C 160.54 39.19 160.54 39.9 160.54 40.69 C 160.54 41.22 160.54 41.79 160.54 42.19 L 160.54 62.26 L 258.54 62.26 L 258.54 42.44 C 258.53 42.44 258.54 42.44 258.55 42.43 Z " stroke-width="1"/>
    <path id="ID0.25167091004550457" fill="#79AED4" d="M 258.55 55.4025 L 258.42 53.6362 C 250.81 54.7538 243.34 55.3589 235.8 55.4842 C 233.91 55.5169 232.03 55.5169 230.16 55.4788 C 212.54 55.8168 196.07 52.0608 179.45 52.2952 C 176.53 52.4914 165.26 53.0638 160.54 53.6362 C 160.54 53.6362 160.54 54.0233 160.54 54.4539 C 160.54 54.7428 160.54 55.0536 160.54 55.2716 L 160.54 130.7734 L 258.54 130.7734 L 258.54 55.4079 C 258.53 55.4079 258.54 55.4079 258.55 55.4025 Z " stroke-width="0.8053497424720631"/>
  </g>
</svg>