<svg version="1.1" xmlns="http://www.w3.org/2000/svg" xmlns:xlink="http://www.w3.org/1999/xlink" width="84.372" height="101.087" viewBox="0,0,84.372,101.087"><g transform="translate(-198,-136)"><g data-paper-data="{&quot;isPaintingLayer&quot;:true}" fill="none" fill-rule="nonzero" stroke="none" stroke-width="none" stroke-linecap="none" stroke-linejoin="none" stroke-miterlimit="10" stroke-dasharray="" stroke-dashoffset="0" font-family="none" font-weight="none" font-size="none" text-anchor="none" style="mix-blend-mode: normal"><path d="M233.875,199.984c0.909,-0.391 2.542,-1.247 4.089,2.706c1.545,3.953 -1.883,10.122 -2.364,10.79c-1.669,2.564 -3.912,5.762 -7.55,8.403c-10.391,7.699 -21.54,0.024 -21.062,-4.415c0.478,-4.44 8.3,-1.105 15.614,-2.711c3.304,-0.726 5.661,-2.587 7.442,-4.353c2.577,-2.416 3.015,-9.994 3.831,-10.42z" id="ID0.8535828334279358_28_" fill="#faa51f" stroke="none" stroke-width="1" stroke-linecap="butt" stroke-linejoin="miter"/><path d="M212.5,215.251c3.009,0.016 8.432,-0.084 8.432,-0.084c0,0 -2.931,3.03 -2.649,5.834c0.28,2.805 4.942,3.263 3.16,3.953c-1.819,0.243 -4.754,0.58 -8.264,-0.605c-3.473,-1.278 -6.802,-5.079 -6.21,-7.104c0.815,-2.045 2.782,-2.119 5.531,-1.994z" id="ID0.914295740891248_34_" fill="#ffffff" stroke="none" stroke-width="1" stroke-linecap="butt" stroke-linejoin="miter"/><path d="M233.875,199.984c0.909,-0.391 2.542,-1.247 4.089,2.706c1.545,3.953 -1.883,10.122 -2.364,10.79c-1.669,2.564 -3.912,5.762 -7.55,8.403c-10.391,7.699 -21.54,0.024 -21.062,-4.415c0.478,-4.44 8.3,-1.105 15.614,-2.711c3.304,-0.726 5.661,-2.587 7.442,-4.353c2.577,-2.416 3.015,-9.994 3.831,-10.42z" id="ID0.40227043256163597_34_" fill="#ffffff" stroke="#8e5322" stroke-width="1.4" stroke-linecap="round" stroke-linejoin="round"/><path d="M242.455,201.109l-1,14.601c0,0 1.301,-1.2 -2.4,3.1c-2.199,2.5 -16.699,2.2 -19.898,-2c-2.199,-2.9 0,-19 0,-19z" id="ID0.26344340899959207_30_" fill="#518943" stroke="#426c36" stroke-width="1.4" stroke-linecap="round" stroke-linejoin="round"/><path d="M222.257,185.81c1.436,0 2.734,0.829 3.676,2.169c0.941,1.339 1.523,3.188 1.523,5.231c0,2.041 -0.582,3.892 -1.523,5.23c-0.941,1.34 -2.24,2.169 -3.676,2.169c-1.436,0 -2.734,-0.829 -3.676,-2.169c-0.941,-1.339 -1.523,-3.189 -1.523,-5.23c0,-2.043 0.582,-3.893 1.523,-5.231c0.941,-1.34 2.24,-2.169 3.676,-2.169z" id="ID0.2414738917723298_30_" fill="#fefbdf" stroke="#70715e" stroke-width="1.4" stroke-linecap="round" stroke-linejoin="round"/><path d="M222.257,189.109c0.771,0 1.473,0.459 1.979,1.202c0.508,0.742 0.822,1.768 0.822,2.898c0,1.13 -0.314,2.156 -0.822,2.897c-0.506,0.743 -1.207,1.202 -1.979,1.202c-0.772,0 -1.473,-0.459 -1.979,-1.202c-0.508,-0.741 -0.82,-1.767 -0.82,-2.897c0,-1.13 0.313,-2.156 0.82,-2.898c0.506,-0.743 1.207,-1.202 1.979,-1.202z" id="ID0.6192030962556601_30_" fill="#fefbdf" stroke="#70715e" stroke-width="1.4" stroke-linecap="round" stroke-linejoin="round"/><path d="M221.458,215.31c-1,-0.901 -0.301,-6.8 -0.301,-6.8l6.5,1.3l-0.5,7.7c0,0 -4.801,-1.401 -5.699,-2.2z" id="ID0.15330331353470683_30_" fill="#518943" stroke="#426c36" stroke-width="1.4" stroke-linecap="round" stroke-linejoin="round"/><path d="M250.244,206.764c0,0 3.15,1.101 5.101,3.712c-0.001,2.119 -1.928,4.899 -3.873,8.219c-0.909,3.702 7.183,1.849 4.385,8.717c-0.85,1.932 -9.521,-1.146 -11.264,-2.564c-1.585,-1.262 -1.84,-2.084 -0.928,-3.889c1.488,-2.937 2.915,-5.979 3.179,-8.895c-2,-1.588 -3.949,-1.588 -3.949,-1.588" id="ID0.007584026083350182_38_" fill="#ffffff" stroke="#8e5322" stroke-width="1.4" stroke-linecap="round" stroke-linejoin="round"/><path d="M249.541,219.147c1.518,0.185 2.69,0.784 2.69,0.784" id="ID0.31672530295327306_38_" fill="#faa51f" stroke="#8e5322" stroke-width="1.4" stroke-linecap="round" stroke-linejoin="round"/><path d="M249.956,199.01c0,6.7 1.701,16.5 -10.199,16.5c-11.9,0 -10.801,-9 -10.801,-15.7c0,-6.7 4.1,-8.5 10.801,-8.5c6.699,0 10.199,1 10.199,7.7z" id="ID0.46792364912107587_35_" fill="#ffffff" stroke="#8e5322" stroke-width="1.4" stroke-linecap="round" stroke-linejoin="round"/><path d="M240.336,214.302c-3.676,5.628 -2.616,12.224 -4.753,13.195c-12.227,2.76 -1.74,8.559 -9.831,8.89c-2.499,-0.077 -3.042,-5.891 -3.28,-8.025c-0.52,-4.646 0.947,-3.331 7.905,-6.055c0.377,-1.389 -0.369,-9.898 -0.369,-9.898" id="ID0.527006761636585_37_" fill="#ffffff" stroke="#8e5322" stroke-width="1.4" stroke-linecap="round" stroke-linejoin="round"/><path d="M230.651,229.411c-0.577,0.071 -2.084,0.795 -2.716,0.847" id="ID0.8937406223267317_49_" fill="#faa51f" stroke="#8e5322" stroke-width="1.4" stroke-linecap="round" stroke-linejoin="round"/><path d="M247.356,201.909c0,4.2 0.9,10.5 -5.5,10.5c-6.4,0 -5.9,-5.699 -5.9,-9.899c0,-4.2 2.201,-5.4 5.9,-5.4c3.699,0 5.5,0.6 5.5,4.799z" id="ID0.38032895559445024_35_" fill="#bababa" stroke="none" stroke-width="1" stroke-linecap="butt" stroke-linejoin="miter"/><path d="M246.556,193.409l4.201,-0.699c5.4,2.8 10.699,11.6 5.5,15.5" id="ID0.30105241015553474_33_" fill="#ffffff" stroke="#8e5322" stroke-width="1.4" stroke-linecap="round" stroke-linejoin="round"/><path d="M249.956,199.01l1.1,3.7" id="ID0.7841392233967781_32_" fill="#faa51f" stroke="#8e5322" stroke-width="1.4" stroke-linecap="round" stroke-linejoin="round"/><path d="M252.158,202.409l-1.102,0.301" id="ID0.4326359131373465_28_" fill="none" stroke="#8e5322" stroke-width="1.4" stroke-linecap="round" stroke-linejoin="round"/><path d="M229.157,212.509c15.699,-14.2 0.799,-19.4 0.799,-19.4c18.4,5.101 4.201,20.601 -0.1,22.3" id="ID0.48627097019925714_30_" fill="#518943" stroke="#426c36" stroke-width="1.4" stroke-linecap="round" stroke-linejoin="round"/><path d="M249.456,205.809c4.202,-8.8 -6.4,-12.7 -6.4,-12.7c11.5,2.7 10.5,8.7 8.4,14" id="ID0.07006075512617826_30_" fill="#518943" stroke="#426c36" stroke-width="1.4" stroke-linecap="round" stroke-linejoin="round"/><path d="M247.031,145.504l7.967,-6.114l1.475,11.451c0,0 5.624,5.291 7.139,8.689c2.461,5.626 2.06,9.908 2.06,9.908c0,0 6.609,2.888 7.16,8.491c0.552,5.601 -4.942,15.53 -23.437,16.987c-18.497,1.457 -32.426,-5.111 -37.985,-16.938c-5.473,-11.717 6.79,-23.571 6.1,-22.846l-0.054,-18.432l11.56,9.612c0,0 4.468,-1.188 9.061,-0.851c1.699,0.099 4.754,0.659 6.233,0.932z" id="ID0.2591130444779992_33_" fill="#faa51f" stroke="none" stroke-width="1" stroke-linecap="butt" stroke-linejoin="miter"/><path d="M265.216,169.887c0,0 6.368,2.356 6.921,7.959c0.849,5.638 -5.229,15.397 -22.672,16.473c-3.955,0.242 -7.513,0.53 -12.976,-0.111c-8.453,-0.891 -17.072,-7.238 -15.085,-18.18c1.143,-6.31 9.129,-4.871 9.129,-4.871l7.261,-0.961c0,0 6.866,2.416 11.141,2.012c4.277,-0.406 4.662,-3.683 4.662,-3.683l9.041,-1.559l2.151,2.266z" id="ID0.3588979784399271_33_" fill="#ffffff" stroke="none" stroke-width="1" stroke-linecap="butt" stroke-linejoin="miter"/><path d="M269.972,176.651c0,0 2.264,-0.818 5.015,-0.69c2.338,0.073 6.685,1.052 6.685,1.052" id="ID0.2727069961838424_33_" fill="none" stroke="#8e5322" stroke-width="1.4" stroke-linecap="round" stroke-linejoin="round"/><path d="M269.423,181.855c0,0 1.749,0.479 4.146,1.754c2.529,1.219 4.54,3.2 4.54,3.2" id="ID0.5861211125738919_33_" fill="none" stroke="#8e5322" stroke-width="1.4" stroke-linecap="round" stroke-linejoin="round"/><path d="M226.907,144.555l4.744,4.18" id="ID0.4793355236761272_33_" fill="none" stroke="#8e5322" stroke-width="1.4" stroke-linecap="round" stroke-linejoin="round"/><path d="M247.031,145.504l7.967,-6.114l1.475,11.451c0,0 5.624,5.291 7.139,8.689c2.461,5.626 2.06,9.908 2.06,9.908c0,0 6.609,2.888 7.16,8.491c0.552,5.601 -4.942,15.53 -23.437,16.987c-18.497,1.457 -32.426,-5.111 -37.985,-16.938c-5.473,-11.717 6.79,-23.571 6.1,-22.846l-0.054,-18.432l11.56,9.612c0,0 4.468,-1.188 9.061,-0.851c1.699,0.099 4.754,0.659 6.233,0.932z" id="ID0.48413723474368453_33_" fill="none" stroke="#8e5322" stroke-width="1.4" stroke-linecap="round" stroke-linejoin="round"/><path d="M200.358,176.283c0,0 3.376,-1.05 5.137,-1.432c1.762,-0.386 5.774,-0.625 5.774,-0.625" id="ID0.9024141579866409_33_" fill="none" stroke="#8e5322" stroke-width="1.4" stroke-linecap="round" stroke-linejoin="round"/><path d="M198.7,167.379c0,0 2.223,-0.258 6.574,0.303c3.909,0.483 6.604,1.442 6.604,1.442" id="ID0.16030752705410123_33_" fill="none" stroke="#8e5322" stroke-width="1.4" stroke-linecap="round" stroke-linejoin="round"/><path d="M261.414,159.373c2.281,4.597 1.798,9.574 -1.081,10.948c-2.892,1.474 -7.117,-1.136 -9.385,-5.832c-2.28,-4.597 -1.798,-9.574 1.081,-10.948c2.881,-1.375 7.106,1.235 9.385,5.832z" id="ID0.40023312577977777_33_" fill="#ffffff" stroke="#8e5322" stroke-width="1.4" stroke-linecap="round" stroke-linejoin="round"/><path d="M260.896,162.937c0.182,1.028 -0.431,1.963 -1.459,2.145c-0.93,0.194 -1.853,-0.519 -2.023,-1.646c-0.181,-1.027 0.433,-1.963 1.461,-2.144c1.017,-0.084 1.839,0.616 2.021,1.645" id="ID0.43813491938635707_33_" fill="#414142" stroke="none" stroke-width="1" stroke-linecap="butt" stroke-linejoin="miter"/><path d="M238.012,159.751c2.279,4.596 1.377,9.726 -2.047,11.439c-3.422,1.713 -8.079,-0.646 -10.347,-5.342c-2.281,-4.597 -1.377,-9.727 2.045,-11.439c3.41,-1.613 8.067,0.745 10.349,5.342z" id="ID0.4253597157076001_33_" fill="#ffffff" stroke="#8e5322" stroke-width="1.4" stroke-linecap="round" stroke-linejoin="round"/><path d="M237.259,163.589c-0.116,0.994 -1.015,1.794 -1.908,1.689c-0.993,-0.117 -1.597,-0.993 -1.469,-2.085c0.116,-0.993 1.017,-1.794 1.911,-1.689c0.894,0.104 1.594,0.992 1.466,2.085" id="ID0.814307457767427_33_" fill="#414142" stroke="none" stroke-width="1" stroke-linecap="butt" stroke-linejoin="miter"/><path d="M247.784,170.864c1.711,-0.001 4.147,-1.024 4.224,0.897c-0.094,0.795 -2.066,3.887 -3.865,3.775c-1.998,-0.133 -5.183,-3.023 -4.909,-4.501c0.273,-1.477 3.037,-0.146 4.55,-0.171z" id="ID0.5240494590252638_33_" fill="#5f4b43" stroke="#8e5322" stroke-width="1.4" stroke-linecap="round" stroke-linejoin="round"/><path d="M244.658,187.211c-5.489,0.465 -7.705,-2.111 -7.705,-2.111" id="ID0.046259244438260794_33_" fill="#ffffff" stroke="#8e5322" stroke-width="1.4" stroke-linecap="round" stroke-linejoin="round"/><path d="M256.257,208.21c-5.201,4.3 -9.1,0.7 -7.801,-2.4c0.901,-2.201 2.401,-4.5 5.6,-3.1" id="ID0.7947451807558537_28_" fill="#ffffff" stroke="#8e5322" stroke-width="1.4" stroke-linecap="round" stroke-linejoin="round"/><path d="M228.804,201.657c-0.224,-0.847 -16.868,-6.652 -13.767,-11.573c4.421,-7.014 8.932,-9.9 11.87,-6.698c3.744,2.798 2.022,5.724 -2.179,7.522c-0.772,0.33 8.774,3.07 8.681,4.023" id="ID0.1790580078959465_41_" fill="#ffffff" stroke="#8e5322" stroke-width="1.4" stroke-linecap="round" stroke-linejoin="round"/></g></g></svg>