<svg version="1.1" xmlns="http://www.w3.org/2000/svg" xmlns:xlink="http://www.w3.org/1999/xlink" width="127.06301" height="138.74931" viewBox="0,0,127.06301,138.74931"><g transform="translate(-176.4685,-110.70624)"><g data-paper-data="{&quot;isPaintingLayer&quot;:true}" fill-rule="nonzero" stroke-linejoin="miter" stroke-miterlimit="10" stroke-dasharray="" stroke-dashoffset="0" style="mix-blend-mode: normal"><g><path d="M240.00001,220.94784c17.3034,0 32.9826,1.5517 44.336,4.0579c11.3534,2.507 18.381,5.9687 18.381,9.7887c0,3.8201 -7.0276,7.2817 -18.381,9.7888c-11.3534,2.5062 -27.0326,4.0578 -44.336,4.0578c-17.3034,0 -32.9826,-1.5516 -44.336,-4.0578c-11.3534,-2.5071 -18.381,-5.9687 -18.381,-9.7888c0,-3.82 7.0276,-7.2817 18.381,-9.7887c11.3534,-2.5062 27.0326,-4.0579 44.336,-4.0579z" fill="#b2b2b2" stroke="#b2b2b2" stroke-width="1.62901" stroke-linecap="butt"/><g stroke-linecap="round"><path d="M238.6187,184.47104c11.5505,0 20.124,2.9002 29.5959,7.8871c4.501,2.3753 8.4245,7.0217 11.2923,12.7013c2.2579,4.4786 3.9219,10.2242 3.6653,15.5683c-0.4895,6.0139 0.4651,14.3636 -5.7015,15.4413c-24.6633,4.3083 -49.7867,4.138 -74.5273,-0.7625c-6.1854,-1.2252 -4.8512,-10.3069 -5.7016,-15.8861c-0.6141,-4.5269 -0.9432,-9.9841 0.6516,-13.9162c2.5095,-6.066 6.5894,-10.6183 11.1294,-13.1461c9.4182,-5.2144 18.0454,-7.8871 29.5959,-7.8871z" fill="#660000" stroke="#703d00" stroke-width="2.12954"/><path d="M239.43061,183.85934c9.8955,-0.3091 19.8251,-0.1382 29.5259,1.3407c5.6005,1.1605 13.0549,1.5342 15.8828,6.4937c3.6743,6.4309 0.8944,14.5937 0.4073,22.4138c-0.2126,2.0822 -0.9554,6.3153 -2.8508,5.6977c-4.303,-2.0026 -5.8001,-11.1189 -10.1406,-12.5685c-2.2505,-0.7482 -0.3567,6.4385 -2.9322,7.7925c-3.5024,1.8216 -9.8099,-3.8275 -11.7696,-0.8798c-2.2204,3.3474 4.3429,8.8206 2.9322,12.9874c-0.6948,2.7048 -6.0005,4.3965 -7.5749,2.1786c-3.0006,-4.2314 0.4398,-11.0561 -2.1177,-15.5849c-1.3431,-2.3839 -5.581,-2.4928 -7.5749,-0.8798c-3.7476,3.0424 -3.3134,9.7506 -7.1269,12.5684c-2.0404,1.5058 -5.2797,0.4525 -7.1677,-0.8797c-4.773,-4.1493 -5.9679,-13.5656 -11.7696,-14.7052c-4.3772,-0.8655 -6.6961,10.8542 -9.6926,9.5102c-3.3859,-1.5351 0.4186,-14.9967 -2.525,-16.0039c-2.7636,-0.9208 -6.0217,13.4919 -8.4709,12.8199c-2.8043,-0.8572 -2.2659,-10.7846 -2.0362,-15.8782c0.1873,-4.182 -0.9717,-10.8307 2.8507,-12.2334c13.2977,-4.8489 28.0606,-3.7479 42.1507,-4.1895z" fill="#ff99e5" stroke="#ff00bf" stroke-width="1.65257"/><path d="M217.80811,193.42684l4.1947,-0.8145" fill="none" stroke="#9b4976" stroke-width="1.62504"/><path d="M236.29741,203.52674h-5.05" fill="none" stroke="#9b4976" stroke-width="1.62504"/><path d="M264.47931,195.13724v3.7875" fill="none" stroke="#9b4976" stroke-width="1.62504"/><path d="M248.06701,187.56234l4.2354,2.525" fill="none" stroke="#9b4976" stroke-width="1.62504"/><path d="M279.22191,206.49964v-4.6427" fill="none" stroke="#9b4976" stroke-width="1.62504"/><path d="M275.0272,192.16434h-3.3802" fill="none" stroke="#9b4976" stroke-width="1.62504"/><path d="M205.5905,198.47674l3.7875,-3.7874" fill="none" stroke="#9b4976" stroke-width="1.62504"/><path d="M210.23321,203.52674l3.3395,-0.8145" fill="none" stroke="#ffffff" stroke-width="1.62504"/><path d="M229.5777,187.56234l3.3802,2.9323" fill="none" stroke="#ffffff" stroke-width="1.62504"/><path d="M231.69541,216.59954l3.3395,-2.973" fill="none" stroke="#ffffff" stroke-width="1.62504"/><path d="M249.32951,209.02464l3.3802,2.5249" fill="none" stroke="#ffffff" stroke-width="1.62504"/><path d="M260.28461,209.43184l-0.4073,2.525z" fill="none" stroke="#ffffff" stroke-width="1.62504"/><path d="M260.69181,188.82484h3.7875" fill="none" stroke="#ffffff" stroke-width="1.62504"/><path d="M271.23971,201.44974l3.3395,-0.8553" fill="none" stroke="#ffffff" stroke-width="1.62504"/><path d="M200.94781,192.61234l4.6427,-1.7105" fill="none" stroke="#ffffff" stroke-width="1.62504"/><path d="M213.57271,191.75704l-1.2625,-2.9322z" fill="none" stroke="#ffffff" stroke-width="1.62504"/><path d="M248.06701,198.92474l0.448,2.077z" fill="none" stroke="#ffffff" stroke-width="1.62504"/><path d="" fill="none" stroke="#6148a4" stroke-width="1.62504"/><path d="M238.41511,186.70714h5.0499" fill="none" stroke="#6148a4" stroke-width="1.62504"/><path d="M245.99001,208.16934l-5.0499,1.6698" fill="none" stroke="#6148a4" stroke-width="1.62504"/><path d="M260.28461,203.52674l-4.6427,-1.6698" fill="none" stroke="#6148a4" stroke-width="1.62504"/><path d="M214.83511,209.02464l-4.1947,1.6697" fill="none" stroke="#6148a4" stroke-width="1.62504"/><path d="M200.1333,197.21424v3.3802" fill="none" stroke="#6148a4" stroke-width="1.62504"/><path d="M224.1205,185.89264l-3.7874,0.4073" fill="none" stroke="#6148a4" stroke-width="1.62504"/><path d="M284.2718,203.52674v4.6426" fill="none" stroke="#6148a4" stroke-width="1.62504"/><path d="M256.08991,195.54454h3.7874" fill="none" stroke="#6148a4" stroke-width="1.62504"/><path d="M255.23471,185.89264h2.5249z" fill="none" stroke="#6148a4" stroke-width="1.62504"/></g><path d="M226.6907,191.44294c-0.4216,-0.4165 -0.9847,-0.8299 -1.5699,-0.8312c-0.6603,-0.0015 -1.2929,0.2572 -1.7308,0.4893c0.075,-10.7502 0.1667,-21.1946 0.2805,-31.1761c0.4137,-0.3977 0.8363,-0.939 1.2436,-0.9584c0.6385,-0.0272 1.4065,0.1079 2.0094,1.1448c-0.094,8.9663 -0.1699,19.8381 -0.2328,31.3316z" fill="#ffffff" stroke="none" stroke-width="1.24326" stroke-linecap="butt"/><path d="M227.27831,173.36904c-0.0433,0.6753 -0.0131,1.4238 -0.0171,1.9505c-0.0091,1.0676 0.2369,2.1585 0.0674,3.2231c-0.026,0.001 -0.0484,0.0021 -0.0756,0.0028c-0.5639,0.014 -1.147,0.0206 -1.735,0.018c-0.8051,-0.0035 -1.4717,-0.02 -2.1497,-0.0438c0.0191,-1.5626 -0.3953,-3.4946 -0.1858,-5.1696c0.542,-0.0057 1.3254,-0.0116 2.1444,-0.0098c0.7259,0.0016 1.4263,0.0154 1.9514,0.0288z" fill="#42b5e8" stroke="none" stroke-width="0.4292" stroke-linecap="butt"/><path d="M227.02831,163.91904c-0.0433,0.6753 -0.0131,1.4238 -0.0171,1.9505c-0.0091,1.0676 0.2369,2.1585 0.0674,3.2231c-0.026,0.001 -0.0484,0.0021 -0.0756,0.0028c-0.5639,0.014 -1.147,0.0206 -1.735,0.018c-0.8051,-0.0035 -1.4717,-0.02 -2.1497,-0.0438c0.0191,-1.5626 -0.3953,-3.4946 -0.1858,-5.1696c0.542,-0.0057 1.3254,-0.0116 2.1444,-0.0098c0.7259,0.0016 1.4263,0.0154 1.9514,0.0288z" fill="#42b5e8" stroke="none" stroke-width="0.4292" stroke-linecap="butt"/><path d="M227.27831,183.76904c-0.0433,0.6753 -0.0131,1.4238 -0.0171,1.9505c-0.0091,1.0676 0.2369,2.1585 0.0674,3.2231c-0.026,0.001 -0.0484,0.0021 -0.0756,0.0028c-0.5639,0.014 -1.147,0.0206 -1.735,0.018c-0.8051,-0.0035 -1.4717,-0.02 -2.1497,-0.0438c0.0191,-1.5626 -0.3953,-3.4946 -0.1858,-5.1696c0.542,-0.0057 1.3254,-0.0116 2.1444,-0.0098c0.7259,0.0016 1.4263,0.0154 1.9514,0.0288z" fill="#42b5e8" stroke="none" stroke-width="0.4292" stroke-linecap="butt"/><path d="M228.19731,159.48364c0.1816,0.0857 0.208,0.1883 0.1452,0.277c-0.5113,9.5265 -0.2178,21.6482 -0.6168,31.1303c-0.0005,0.0106 -0.0069,0.0182 -0.0104,0.0276c0,0.0059 0.001,0.0142 0.001,0.0173c-0.0927,0.4843 -1.7504,0.5009 -2.359,0.5044c-0.8028,0.0043 -2.3772,-0.0706 -2.6905,-0.6018c-0.003,-0.0048 -0.0015,-0.0129 -0.0019,-0.0195c-0.0136,-0.0158 -0.0301,-0.0313 -0.0315,-0.0465c-0.2111,-5.5305 -0.435,-11.027 -0.4102,-16.5336c0.0193,-4.022 -0.0169,-10.59 0.1716,-14.6103c0.0112,-0.2236 0.2853,-0.3459 0.5843,-0.3703c0.5295,-0.2077 1.5368,-0.2555 2.0025,-0.2674c1.1023,-0.0277 2.379,0.0972 3.2157,0.4928zM223.74101,159.71404c-0.0793,1.4997 -0.1349,3.069 -0.1727,4.6844c-0.198,8.5022 0.102,18.3034 0.06,26.2343c0.5462,0.1144 1.0833,0.1915 1.7324,0.2019c0.4745,0.0074 0.9448,-0.0314 1.3991,-0.1078c0.022,-0.0043 0.04,-0.0101 0.061,-0.0154c0.1551,-5.4045 -0.0242,-10.9385 0.0017,-16.3565c0.0119,-2.6731 0.0005,-6.4715 0.0476,-9.8991c0.0231,-1.7273 0.0615,-3.3607 0.125,-4.7081c-0.6065,-0.1567 -1.375,-0.1785 -2.0134,-0.1759c-0.4077,0.0027 -0.8284,0.0832 -1.2407,0.1422z" fill="#231f20" stroke="none" stroke-width="0.38875" stroke-linecap="butt"/><path d="M226.31511,156.86814c0.0815,0.3716 -0.0936,0.7577 -0.2867,1.0996c-0.2622,0.4683 -0.79,1.4471 -1.1387,1.4834c-0.3111,-0.0363 -0.1335,-1.0459 -0.2427,-1.4834c-0.0961,-0.3631 -0.3388,-0.7262 -0.2867,-1.0996c0.0782,-0.5396 0.4138,-1.1607 0.7331,-1.7674c0.0741,-0.0839 0.0839,-0.012 0.2036,0.1209c0.426,0.5027 0.8927,1.1117 1.0181,1.6465z" fill="#ffff99" stroke="none" stroke-width="0.71711" stroke-linecap="round"/><path d="M253.39631,191.84294c-0.0629,-11.4935 -0.1388,-22.3653 -0.2328,-31.3316c0.6029,-1.0369 1.3709,-1.172 2.0094,-1.1448c0.4073,0.0194 0.8299,0.5607 1.2436,0.9584c0.1138,9.9815 0.2055,20.4259 0.2805,31.1761c-0.4379,-0.2321 -1.0705,-0.4908 -1.7308,-0.4893c-0.5852,0.0013 -1.1483,0.4147 -1.5699,0.8312z" fill="#ffffff" stroke="none" stroke-width="1.24326" stroke-linecap="butt"/><path d="M252.75871,173.76904c0.5251,-0.0134 1.2255,-0.0272 1.9514,-0.0288c0.819,-0.0018 1.6024,0.0041 2.1444,0.0098c0.2095,1.675 -0.2049,3.607 -0.1858,5.1696c-0.678,0.0238 -1.3446,0.0403 -2.1497,0.0438c-0.588,0.0026 -1.1711,-0.004 -1.735,-0.018c-0.0272,-0.0007 -0.0496,-0.0018 -0.0756,-0.0028c-0.1695,-1.0646 0.0765,-2.1555 0.0674,-3.2231c-0.004,-0.5267 0.0262,-1.2752 -0.0171,-1.9505z" fill="#42b5e8" stroke="none" stroke-width="0.4292" stroke-linecap="butt"/><path d="M253.00871,164.26904c0.5251,-0.0134 1.2255,-0.0272 1.9514,-0.0288c0.819,-0.0018 1.6024,0.0041 2.1444,0.0098c0.2095,1.675 -0.2049,3.607 -0.1858,5.1696c-0.678,0.0238 -1.3446,0.0403 -2.1497,0.0438c-0.588,0.0026 -1.1711,-0.004 -1.735,-0.018c-0.0272,-0.0007 -0.0496,-0.0018 -0.0756,-0.0028c-0.1695,-1.0646 0.0765,-2.1555 0.0674,-3.2231c-0.004,-0.5267 0.0262,-1.2752 -0.0171,-1.9505z" fill="#42b5e8" stroke="none" stroke-width="0.4292" stroke-linecap="butt"/><path d="M252.75871,184.16904c0.5251,-0.0134 1.2255,-0.0272 1.9514,-0.0288c0.819,-0.0018 1.6024,0.0041 2.1444,0.0098c0.2095,1.675 -0.2049,3.607 -0.1858,5.1696c-0.678,0.0238 -1.3446,0.0403 -2.1497,0.0438c-0.588,0.0026 -1.1711,-0.004 -1.735,-0.018c-0.0272,-0.0007 -0.0496,-0.0018 -0.0756,-0.0028c-0.1695,-1.0646 0.0765,-2.1555 0.0674,-3.2231c-0.004,-0.5267 0.0262,-1.2752 -0.0171,-1.9505z" fill="#42b5e8" stroke="none" stroke-width="0.4292" stroke-linecap="butt"/><path d="M269.9407,192.94294c-0.4216,-0.4165 -0.9847,-0.8299 -1.5699,-0.8312c-0.6603,-0.0015 -1.2929,0.2572 -1.7308,0.4893c0.075,-10.7502 0.1667,-21.1946 0.2805,-31.1761c0.4137,-0.3977 0.8363,-0.939 1.2436,-0.9584c0.6385,-0.0272 1.4065,0.1079 2.0094,1.1448c-0.094,8.9663 -0.1699,19.8381 -0.2328,31.3316z" fill="#ffffff" stroke="none" stroke-width="1.24326" stroke-linecap="butt"/><path d="M270.4783,174.91904c-0.0433,0.6753 -0.0131,1.4238 -0.0171,1.9505c-0.0091,1.0676 0.2369,2.1585 0.0674,3.2231c-0.026,0.001 -0.0484,0.0021 -0.0756,0.0028c-0.5639,0.014 -1.147,0.0206 -1.735,0.018c-0.8051,-0.0035 -1.4717,-0.02 -2.1497,-0.0438c0.0191,-1.5626 -0.3953,-3.4946 -0.1858,-5.1696c0.542,-0.0057 1.3254,-0.0116 2.1444,-0.0098c0.7259,0.0016 1.4263,0.0154 1.9514,0.0288z" fill="#42b5e8" stroke="none" stroke-width="0.4292" stroke-linecap="butt"/><path d="M270.2283,165.36904c-0.0433,0.6753 -0.0131,1.4238 -0.0171,1.9505c-0.0091,1.0676 0.2369,2.1585 0.0674,3.2231c-0.026,0.001 -0.0484,0.0021 -0.0756,0.0028c-0.5639,0.014 -1.147,0.0206 -1.735,0.018c-0.8051,-0.0035 -1.4717,-0.02 -2.1497,-0.0438c0.0191,-1.5626 -0.3953,-3.4946 -0.1858,-5.1696c0.542,-0.0057 1.3254,-0.0116 2.1444,-0.0098c0.7259,0.0016 1.4263,0.0154 1.9514,0.0288z" fill="#42b5e8" stroke="none" stroke-width="0.4292" stroke-linecap="butt"/><path d="M270.62831,185.26904c-0.0433,0.6753 -0.0131,1.4238 -0.0171,1.9505c-0.0091,1.0676 0.2369,2.1585 0.0674,3.2231c-0.026,0.001 -0.0484,0.0021 -0.0756,0.0028c-0.5639,0.014 -1.147,0.0206 -1.735,0.018c-0.8051,-0.0035 -1.4717,-0.02 -2.1497,-0.0438c0.0191,-1.5626 -0.3953,-3.4946 -0.1858,-5.1696c0.542,-0.0057 1.3254,-0.0116 2.1444,-0.0098c0.7259,0.0016 1.4263,0.0154 1.9514,0.0288z" fill="#42b5e8" stroke="none" stroke-width="0.4292" stroke-linecap="butt"/><g stroke="none" stroke-width="1" stroke-linecap="butt"><g><path d="M277.53477,193.18371c0,3.03876 -1.6258,5.71098 -4.34531,7.14759c-1.31837,0.69762 -2.85549,1.04051 -4.70003,1.04051c-0.77447,0 -1.61397,-0.05912 -2.5658,-0.17736c-0.07095,-0.00591 -0.14189,-0.01774 -0.21283,-0.02956c-1.47208,-0.23057 -2.15197,-0.25421 -2.37662,-0.25421h-0.07094c-0.09459,0.01182 -0.18919,0.01773 -0.28378,0.01773c-0.1478,0.01182 -0.36063,0.03547 -0.65032,0.06503c-0.76856,0.1005 -1.44252,0.1478 -2.06328,0.1478c-0.33699,0 -1.04051,0.01773 -2.44757,0.09459h-0.07094c-0.38428,0.01773 -0.72126,0.02365 -1.02277,0.02365c-0.79812,0 -1.46618,-0.0532 -2.07511,-0.16553c-1.99825,-0.34289 -3.77185,-1.3775 -5.01337,-2.94417c-1.48982,-1.86819 -1.80316,-3.73638 -1.80316,-4.97789c0,-1.61397 0.50252,-3.15109 1.41297,-4.44582c-0.5912,-0.04729 -1.17058,-0.11824 -1.73813,-0.22466c-3.49399,-0.62667 -5.30897,-3.59448 -5.99475,-4.71776c-0.88089,-1.43661 -1.17057,-3.16291 -0.80403,-4.80644c0.11824,-0.5439 0.30742,-1.14102 0.60303,-1.91549c0.3488,-1.40114 1.14692,-2.62492 2.23473,-3.5058c1.48391,-2.02781 3.81914,-5.33853 6.95249,-9.86711c0.75673,-1.08781 1.17648,-1.76177 1.40114,-2.14605c0.57938,-1.04642 1.39523,-2.01008 2.55398,-3.03285c1.1824,-1.04642 2.22882,-1.72629 3.29889,-2.15196c0.20101,-0.08277 0.40792,-0.15372 0.62076,-0.21284c1.50164,-0.43158 3.12153,-0.38428 4.67638,0.13598c0.14189,0.04138 0.27787,0.09459 0.41384,0.1478c0.2483,0.04138 0.50252,0.09459 0.74491,0.15963c1.63171,0.4434 3.05058,1.32429 4.10291,2.54807c1.53711,1.79725 1.86228,3.9433 1.98052,5.99475c0.01183,0.1951 0.01773,0.39611 0.01182,0.5912c-0.02365,0.64441 -0.02956,1.91548 0.0473,4.32757c0.01183,0.21875 0.02365,0.46114 0.03547,0.72126c4.15612,0.87498 6.314,4.32757 6.314,7.7447c0,0.75082 -0.09459,1.50164 -0.2956,2.30568c-0.23648,0.92818 -0.66805,1.79725 -1.27699,2.54216c-0.67396,0.82176 -1.46026,1.50755 -2.33523,2.05146c2.57763,1.12919 4.74141,3.69499 4.74141,7.76835z" fill="#00cccc"/><path d="M270.14657,194.58485c-0.59001,0.31215 -1.73398,0.36418 -3.4319,0.15608c-1.76828,-0.27668 -3.08665,-0.38132 -3.95276,-0.31156c-0.13893,0 -0.53799,0.03547 -1.196,0.10405c-0.52026,0.06976 -0.95361,0.10405 -1.30004,0.10405c-0.62372,0 -1.56017,0.03547 -2.8076,0.10405c-0.79871,0.03547 -1.35207,0.01892 -1.66423,-0.04848c-0.45108,-0.06503 -0.8058,-0.26131 -1.06593,-0.58825c-0.26013,-0.32693 -0.39019,-0.63613 -0.39019,-0.92996c0,-0.52262 0.29441,-0.95538 0.88384,-1.29886c0.58943,-0.34231 1.196,-0.51376 1.8203,-0.51376c0.27727,0 0.52026,0 0.72777,0h3.17179c0.20869,0 0.50252,-0.05202 0.88443,-0.15785c0.06858,-1.26044 -0.07036,-3.62405 -0.4162,-7.09025c0,-0.56045 -0.00946,-1.14693 -0.02601,-1.76059c-0.01774,-0.61248 -0.16494,-1.11145 -0.44221,-1.49632c-1.9415,0.17381 -4.10765,0.46823 -6.50023,0.88385c-1.9072,0.34704 -3.25928,0.52025 -4.05562,0.52025c-0.59001,0 -1.1623,-0.05203 -1.71625,-0.15608c-0.41562,-0.06917 -0.95361,-0.64145 -1.6122,-1.71625c0.06917,-0.31156 0.26013,-0.84895 0.57228,-1.61219c0,-0.06858 0,-0.12061 0,-0.15608c0.10405,0 0.2418,-0.06917 0.4162,-0.2081c1.45612,-1.9409 4.05563,-5.61639 7.79969,-11.02408c0.72777,-1.04051 1.30004,-1.92435 1.71625,-2.65212c0.2081,-0.38133 0.60598,-0.83182 1.19541,-1.35207c0.58943,-0.52025 1.05706,-0.84955 1.40409,-0.98789c0.24239,-0.06917 0.52026,-0.05203 0.83182,0.05202c0.20869,0.10405 0.41621,0.19037 0.62431,0.25954c0.55455,0.10405 0.84955,0.15607 0.88384,0.15607c0.38191,0.10405 0.67633,0.27845 0.88443,0.52025c0.2081,0.24299 0.34585,0.9536 0.41561,2.13186c-0.03488,1.0748 -0.01773,2.67045 0.05203,4.78457c0.06917,1.56017 0.20869,3.91787 0.4162,7.07192c0.38132,0.03547 1.02218,0 1.92435,-0.10405c1.03992,-0.13775 1.73339,-0.2081 2.08043,-0.2081c1.28172,0 1.92376,0.48537 1.92376,1.45612c0,0.2081 -0.03488,0.45109 -0.10405,0.72777c-0.62431,0.76264 -1.50815,1.14397 -2.65152,1.14397c-0.1744,0 -0.44222,0 -0.8064,0c-0.36358,0 -0.63258,0 -0.8058,0c-0.41562,0 -0.77979,0.05262 -1.09195,0.15667c0,1.21373 0.06858,3.03403 0.20811,5.45972c0.2081,2.8082 0.4162,4.54217 0.6243,5.20018c0.93587,-0.03429 2.32223,-0.01655 4.16027,0.05203c0.8661,0.06976 1.29945,0.71121 1.29945,1.92435c0,0.62372 -0.29442,1.09195 -0.88385,1.4035zM260.89016,177.68485c-0.31156,-2.87736 -0.50311,-5.99771 -0.57228,-9.36045c-0.06976,0 -0.12179,-0.01714 -0.15608,-0.05202c0.10405,-0.10405 0.15608,-0.19036 0.15608,-0.26012c0,-0.03429 -0.05203,-0.13775 -0.15608,-0.31157c-0.06976,-0.13775 -0.06976,-0.25954 0,-0.36418c0.10405,-0.13775 0.15608,-0.31157 0.15608,-0.51967c-0.48537,0.48538 -0.97075,1.12683 -1.45612,1.92376c-0.79812,1.28349 -1.26576,2.0284 -1.4035,2.2365c-1.31778,1.73398 -2.9826,4.17741 -4.99208,7.33204c-0.03547,0.13834 0,0.25953 0.10405,0.36359c1.03992,0 2.42628,-0.1212 4.16026,-0.36359c2.21817,-0.34704 3.60513,-0.55454 4.15967,-0.6243z" fill="#ffffff"/></g><g><path d="M239.32487,193.78167c-0.13007,1.25925 -0.62667,2.44756 -1.42479,3.42896c-1.17058,1.44252 -2.53624,2.47121 -4.05562,3.0565c-1.39523,0.53799 -2.95008,0.72126 -4.86557,0.57346c-0.22466,-0.01773 -0.39611,-0.02365 -0.52025,-0.02956c-0.02365,0.00591 -0.04729,0.01182 -0.07685,0.01773c-1.02868,0.27195 -1.88593,0.39611 -2.70178,0.39611c-0.73308,0 -1.3834,-0.12416 -1.94504,-0.28969c-0.81585,0.05321 -1.47208,0.07685 -2.00417,0.07685h-2.48895c-1.12919,-0.04729 -4.49902,-0.17736 -6.56822,-3.03876c-0.27786,-0.36655 -0.7922,-1.08781 -1.18831,-2.08102c-0.17145,-0.3488 -0.32516,-0.70944 -0.44931,-1.09372c-0.35472,-1.06416 -0.43158,-2.19926 -0.21283,-3.29889c0.81585,-4.18569 3.98468,-6.19576 7.10621,-6.82243c-0.03547,-3.07423 -0.13598,-6.82835 -0.30743,-11.23869c-0.00591,-0.15963 -0.00591,-0.32516 0,-0.4907c-1.1351,-0.52616 -2.12831,-1.31246 -2.90278,-2.32341c-1.05233,-1.34202 -1.62579,-3.00329 -1.62579,-4.71185c0,-2.98556 1.63762,-5.54545 4.87148,-7.61464c0.02956,-0.01773 0.05321,-0.03547 0.08277,-0.04729c0.21283,-0.13598 0.36654,-0.24239 0.47887,-0.31924c0.38428,-0.62667 0.87498,-1.18831 1.45435,-1.65536c1.88592,-1.52529 4.09109,-2.32932 6.37312,-2.32932c4.12656,0 7.43728,2.72543 8.25313,6.78696c0.21875,1.10554 0.1478,2.24655 -0.20101,3.31071c-0.06503,0.76856 -0.15371,2.19926 -0.2483,4.81827c-0.00591,0.30151 -0.02365,0.69762 -0.05912,1.3775c-0.02365,0.3488 -0.03548,0.5912 -0.04139,0.72717v5.30305c0.00591,0.17736 0.02956,0.50843 0.05912,0.9873c0.08868,1.2829 0.09459,1.44253 0.09459,1.70265v5.85287c1.65535,0.72126 3.09197,1.98643 4.15613,3.69499c1.29472,2.05737 1.07598,4.1443 0.95774,5.27349z" fill="#00cccc"/><path d="M232.85714,193.10712c-0.45109,0.55454 -0.90158,0.91872 -1.35207,1.09253c-0.45109,0.17322 -1.12682,0.22525 -2.0284,0.15608c-1.00563,-0.06976 -1.66363,-0.06976 -1.97638,0c-0.03488,0 -0.28555,0.0603 -0.75378,0.18209c-0.46764,0.1212 -0.82413,0.18268 -1.06593,0.18268c-0.06976,0 -0.19983,-0.06149 -0.39019,-0.18268c-0.19096,-0.12178 -0.33757,-0.18209 -0.44162,-0.18209c-0.17441,0 -0.63317,0.02602 -1.37808,0.07804c-0.74609,0.05202 -1.32606,0.07803 -1.74226,0.07803c-0.72777,0 -1.47386,0 -2.23591,0c-0.90158,-0.03488 -1.42184,-0.15607 -1.56018,-0.36359c-0.31156,-0.4162 -0.46823,-0.72777 -0.46823,-0.93587c-0.10405,-0.10464 -0.19036,-0.26013 -0.25953,-0.46823c0.27727,-1.42124 1.62935,-1.99293 4.05622,-1.71566c1.76769,0.17381 2.8082,0.15608 3.11975,-0.05262c0.13775,-3.70859 0.05202,-9.63772 -0.25953,-17.78444c0.13775,-1.52529 0.27668,-4.02134 0.41561,-7.48872c-0.24299,-0.03429 -0.59001,0.12238 -1.03992,0.46823c-0.52025,0.45109 -0.85014,0.71121 -0.98848,0.77979c-0.45109,0.17381 -0.90158,0.26013 -1.35208,0.26013c-0.58943,0 -1.02218,-0.19037 -1.29945,-0.57228c-0.17381,-0.2087 -0.26013,-0.4505 -0.26013,-0.72777c0,-0.6243 0.6243,-1.33433 1.87232,-2.13186c1.45612,-0.90098 2.32223,-1.71626 2.6001,-2.44461c0.72777,-0.58943 1.48981,-0.88443 2.28793,-0.88443c1.03992,0 1.66363,0.52025 1.87174,1.56017c-0.06976,0.13893 -0.13834,0.33049 -0.2081,0.57229c-0.13893,1.0748 -0.25954,3.11975 -0.36418,6.13664c0,0.17381 -0.01774,0.55454 -0.05203,1.14397c-0.03488,0.59001 -0.05202,0.91931 -0.05202,0.98848v5.56377c0,0.06976 0.02602,0.49425 0.07804,1.27403c0.05202,0.77979 0.07863,1.20486 0.07863,1.27403v11.85649c0.93587,0.17381 1.57672,0.19096 1.92376,0.05203c0.45049,-0.17263 0.84956,-0.25953 1.196,-0.25953c0.79753,0 1.47326,0.45109 2.0284,1.35207c0.06858,0.10287 0.06858,0.48419 0,1.14279z" fill="#ffffff"/></g></g><path d="M240.82321,193.94679c0,2.5 -2.5,2.5 -2.5,2.5l-0.68112,-0.00863c-9.38682,0.78219 -19.97419,4.73114 -28.20923,-1.65011c0,0 -1.95217,-1.56174 -0.39043,-3.51391c1.56174,-1.95217 3.51391,-0.39043 3.51391,-0.39043c6.38234,5.34269 17.27702,1.18789 24.67053,0.57173l1.09634,-0.00863c0,0 2.5,0 2.5,2.5z" fill="#e88bd1" stroke="none" stroke-width="0.5" stroke-linecap="butt"/><path d="M279.3549,196.9592c-0.79057,2.37171 -3.16228,1.58113 -3.16228,1.58113l-0.48232,-0.16853c-9.43021,-2.38977 -19.1115,3.44726 -28.2307,-1.83691c0,0 -2.14373,-1.28624 -0.85749,-3.42997c1.28624,-2.14373 3.42997,-0.8575 3.42997,-0.8575c5.08825,3.2087 12.10837,1.42144 17.6433,0.56475c3.26176,-0.50485 6.07524,-0.06989 9.22759,0.70892l0.85078,0.27583c0,0 2.37171,0.79057 1.58114,3.16228z" fill="#e88bd1" stroke="none" stroke-width="0.5" stroke-linecap="butt"/><path d="M223.88127,202.00138c-0.64909,0 -1.2404,-0.24737 -1.6848,-0.65296c-0.13959,-0.00474 -0.27917,-0.00998 -0.41876,-0.01574c-1.8599,-0.07675 -4.44391,0.18801 -6.21,-0.33812c-1.78561,-0.53195 -3.8546,-1.80297 -5.74489,-2.82962c-0.12445,0.09718 -0.20819,0.14742 -0.20819,0.14742c-0.74061,0.44437 -1.48122,0.88873 -2.22184,1.3331l-1.7306,0.35627c0,0 -2.5,0 -2.5,-2.5c0,-1.97212 1.5557,-2.38853 2.21268,-2.47646c0.50973,-0.30584 1.01946,-0.61167 1.52918,-0.91751c0.01188,-0.028 0.02426,-0.05618 0.03716,-0.08456c1.0345,-2.27591 3.31043,-1.2414 3.31043,-1.2414c2.14727,0.97603 4.64649,2.76146 6.83467,3.44895c0.50217,0.15777 4.61969,0.09448 4.89919,0.10625c4.19745,0.17662 8.39803,-0.15372 12.46987,-1.27733l0.13152,0.0207l-0.00744,-0.04462l2.61975,-0.43663c0.14831,-0.02742 0.3012,-0.04175 0.45745,-0.04175c1.38071,0 2.5,1.11929 2.5,2.5c0,0.69036 -0.27983,1.31536 -0.73224,1.76776l-1.77747,1.77747l-0.0762,-0.0762c-0.1096,0.14371 -0.22545,0.28299 -0.34862,0.41711c-0.52021,0.56641 -4.69201,1.61744 -5.57319,1.85852l-1.85953,0.28515c0,0 -2.2495,0.32135 -2.76561,-1.79332c-0.48913,0.02896 -0.97882,0.05042 -1.46892,0.06471c-0.44312,0.39957 -1.02996,0.64281 -1.67361,0.64281z" fill="#ff99e5" stroke="none" stroke-width="0.5" stroke-linecap="butt"/><path d="M264.57757,204.47733c-0.31008,2.48069 -2.79078,2.1706 -2.79078,2.1706l-1.84753,-0.23195c-0.9628,-0.14812 -1.9256,-0.29624 -2.88839,-0.44437c0,0 -1.95403,-0.30062 -2.11942,-2.10487c-2.57335,-0.25489 -5.10038,-0.56444 -7.48413,-0.76309l-1.70123,-0.23868c0,0 -2.47487,-0.35356 -2.12132,-2.82843c0.18803,-1.31616 0.976,-1.83238 1.67263,-2.02725c-0.25166,-0.54674 -0.31812,-1.26741 0.16279,-2.14907c1.19713,-2.19474 3.39186,-0.99761 3.39186,-0.99761c7.40074,4.11572 15.63671,1.2659 23.56917,1.25218l0.1003,0.04754l0.00342,-0.04106l2.64264,0.22022c1.29478,0.09421 2.31595,1.17452 2.31595,2.49333c0,1.10109 -0.71183,2.03592 -1.70042,2.3694l-2.30534,0.83831c-0.70385,0.46116 -1.52082,0.84426 -2.65331,1.1833c-1.98237,0.59349 -4.0771,0.8992 -6.22539,1.01757c-0.00437,0.07574 -0.01148,0.15369 -0.02151,0.23391z" fill="#ff99e5" stroke="none" stroke-width="0.5" stroke-linecap="butt"/><g><g><path d="M223.97171,157.14916c-0.0629,-11.4935 -0.1388,-22.3653 -0.2328,-31.3316c0.6029,-1.0369 1.3709,-1.172 2.0094,-1.1448c0.4073,0.0194 0.8299,0.5607 1.2436,0.9584c0.1138,9.9815 0.2055,20.4259 0.2805,31.1761c-0.4379,-0.2321 -1.0705,-0.4908 -1.7308,-0.4893c-0.5852,0.0013 -1.1483,0.4147 -1.5699,0.8312z" fill="#ffffff" stroke="none" stroke-width="1.24326" stroke-linecap="butt"/><path d="M223.43411,139.12526c0.5251,-0.0134 1.2255,-0.0272 1.9514,-0.0288c0.819,-0.0018 1.6024,0.0041 2.1444,0.0098c0.2095,1.675 -0.2049,3.607 -0.1858,5.1696c-0.678,0.0238 -1.3446,0.0403 -2.1497,0.0438c-0.588,0.0026 -1.1711,-0.004 -1.735,-0.018c-0.0272,-0.0007 -0.0496,-0.0018 -0.0756,-0.0028c-0.1695,-1.0646 0.0765,-2.1555 0.0674,-3.2231c-0.004,-0.5267 0.0262,-1.2752 -0.0171,-1.9505z" fill="#42b5e8" stroke="none" stroke-width="0.4292" stroke-linecap="butt"/><path d="M223.63409,129.52526c0.5251,-0.0134 1.2255,-0.0272 1.9514,-0.0288c0.819,-0.0018 1.6024,0.0041 2.1444,0.0098c0.2095,1.675 -0.2049,3.607 -0.1858,5.1696c-0.678,0.0238 -1.3446,0.0403 -2.1497,0.0438c-0.588,0.0026 -1.1711,-0.004 -1.735,-0.018c-0.0272,-0.0007 -0.0496,-0.0018 -0.0756,-0.0028c-0.1695,-1.0646 0.0765,-2.1555 0.0674,-3.2231c-0.004,-0.5267 0.0262,-1.2752 -0.0171,-1.9505z" fill="#42b5e8" stroke="none" stroke-width="0.4292" stroke-linecap="butt"/><path d="M228.22271,125.13986c0.1816,0.0857 0.208,0.1883 0.1452,0.277c-0.5113,9.5265 -0.2178,21.6482 -0.6168,31.1303c-0.0005,0.0106 -0.0069,0.0182 -0.0104,0.0276c0,0.0059 0.001,0.0142 0.001,0.0173c-0.0927,0.4843 -1.7504,0.5009 -2.359,0.5044c-0.8028,0.0043 -2.3772,-0.0706 -2.6905,-0.6018c-0.003,-0.0048 -0.0015,-0.0129 -0.0019,-0.0195c-0.0136,-0.0158 -0.0301,-0.0313 -0.0315,-0.0465c-0.2111,-5.5305 -0.435,-11.027 -0.4102,-16.5336c0.0193,-4.022 -0.0169,-10.59 0.1716,-14.6103c0.0112,-0.2236 0.2853,-0.3459 0.5843,-0.3703c0.5295,-0.2077 1.5368,-0.2555 2.0025,-0.2674c1.1023,-0.0277 2.379,0.0972 3.2157,0.4928zM223.76641,125.37026c-0.0793,1.4997 -0.1349,3.069 -0.1727,4.6844c-0.198,8.5022 0.102,18.3034 0.06,26.2343c0.5462,0.1144 1.0833,0.1915 1.7324,0.2019c0.4745,0.0074 0.9448,-0.0314 1.3991,-0.1078c0.022,-0.0043 0.04,-0.0101 0.061,-0.0154c0.1551,-5.4045 -0.0242,-10.9385 0.0017,-16.3565c0.0119,-2.6731 0.0005,-6.4715 0.0476,-9.8991c0.0231,-1.7273 0.0615,-3.3607 0.125,-4.7081c-0.6065,-0.1567 -1.375,-0.1785 -2.0134,-0.1759c-0.4077,0.0027 -0.8284,0.0832 -1.2407,0.1422z" fill="#231f20" stroke="none" stroke-width="0.38875" stroke-linecap="butt"/><path d="M224.78111,111.73786c0.0164,-0.2608 -0.2484,-0.7032 0.1172,0c1.4822,2.8301 3.1719,5.762 4.101,8.779c0.2484,0.7979 -0.1746,1.7236 -0.703,2.5207c-0.5261,0.6928 -1.1694,1.761 -2.3435,1.7819c-1.2326,0.0209 -2.1806,-1.0439 -2.6364,-1.8688c-0.744,-1.03 -0.9983,-2.2704 -0.7616,-3.3899c0.307,-1.4542 1.7143,-2.8128 2.1091,-4.1288c0.3633,-1.2056 0.0598,-2.6589 0.1172,-3.6941z" fill="#ff9400" stroke="#ff9400" stroke-width="2.06324" stroke-linecap="round"/><path d="M225.41541,120.87786c0.1197,-0.1329 0.1295,-0.2048 0.2036,-0.1209c0.3193,0.6067 0.6549,1.2278 0.7331,1.7674c0.0521,0.3734 -0.1906,0.7365 -0.2867,1.0996c-0.1092,0.4375 0.0684,1.4471 -0.2427,1.4834c-0.3487,-0.0363 -0.8765,-1.0151 -1.1387,-1.4834c-0.1931,-0.3419 -0.3682,-0.728 -0.2867,-1.0996c0.1254,-0.5348 0.5921,-1.1438 1.0181,-1.6465z" fill="#ffff99" stroke="none" stroke-width="0.71711" stroke-linecap="round"/></g><path d="M223.28409,149.08089c0.5251,-0.0134 1.2255,-0.0272 1.9514,-0.0288c0.819,-0.0018 1.6024,0.0041 2.1444,0.0098c0.2095,1.675 -0.2049,3.607 -0.1858,5.1696c-0.678,0.0238 -1.3446,0.0403 -2.1497,0.0438c-0.588,0.0026 -1.1711,-0.004 -1.735,-0.018c-0.0272,-0.0007 -0.0496,-0.0018 -0.0756,-0.0028c-0.1695,-1.0646 0.0765,-2.1555 0.0674,-3.2231c-0.004,-0.5267 0.0262,-1.2752 -0.0171,-1.9505z" fill="#42b5e8" stroke="none" stroke-width="0.4292" stroke-linecap="butt"/></g><g><g><path d="M259.41089,157.92766c-0.0629,-11.4935 -0.1388,-22.3653 -0.2328,-31.3316c0.6029,-1.0369 1.3709,-1.172 2.0094,-1.1448c0.4073,0.0194 0.8299,0.5607 1.2436,0.9584c0.1138,9.9815 0.2055,20.4259 0.2805,31.1761c-0.4379,-0.2321 -1.0705,-0.4908 -1.7308,-0.4893c-0.5852,0.0013 -1.1483,0.4147 -1.5699,0.8312z" fill="#ffffff" stroke="none" stroke-width="1.24326" stroke-linecap="butt"/><path d="M258.87329,139.90376c0.5251,-0.0134 1.2255,-0.0272 1.9514,-0.0288c0.819,-0.0018 1.6024,0.0041 2.1444,0.0098c0.2095,1.675 -0.2049,3.607 -0.1858,5.1696c-0.678,0.0238 -1.3446,0.0403 -2.1497,0.0438c-0.588,0.0026 -1.1711,-0.004 -1.735,-0.018c-0.0272,-0.0007 -0.0496,-0.0018 -0.0756,-0.0028c-0.1695,-1.0646 0.0765,-2.1555 0.0674,-3.2231c-0.004,-0.5267 0.0262,-1.2752 -0.0171,-1.9505z" fill="#42b5e8" stroke="none" stroke-width="0.4292" stroke-linecap="butt"/><path d="M259.07329,130.30376c0.5251,-0.0134 1.2255,-0.0272 1.9514,-0.0288c0.819,-0.0018 1.6024,0.0041 2.1444,0.0098c0.2095,1.675 -0.2049,3.607 -0.1858,5.1696c-0.678,0.0238 -1.3446,0.0403 -2.1497,0.0438c-0.588,0.0026 -1.1711,-0.004 -1.735,-0.018c-0.0272,-0.0007 -0.0496,-0.0018 -0.0756,-0.0028c-0.1695,-1.0646 0.0765,-2.1555 0.0674,-3.2231c-0.004,-0.5267 0.0262,-1.2752 -0.0171,-1.9505z" fill="#42b5e8" stroke="none" stroke-width="0.4292" stroke-linecap="butt"/><path d="M263.66189,125.91836c0.1816,0.0857 0.208,0.1883 0.1452,0.277c-0.5113,9.5265 -0.2178,21.6482 -0.6168,31.1303c-0.0005,0.0106 -0.0069,0.0182 -0.0104,0.0276c0,0.0059 0.001,0.0142 0.001,0.0173c-0.0927,0.4843 -1.7504,0.5009 -2.359,0.5044c-0.8028,0.0043 -2.3772,-0.0706 -2.6905,-0.6018c-0.003,-0.0048 -0.0015,-0.0129 -0.0019,-0.0195c-0.0136,-0.0158 -0.0301,-0.0313 -0.0315,-0.0465c-0.2111,-5.5305 -0.435,-11.027 -0.4102,-16.5336c0.0193,-4.022 -0.0169,-10.59 0.1716,-14.6103c0.0112,-0.2236 0.2853,-0.3459 0.5843,-0.3703c0.5295,-0.2077 1.5368,-0.2555 2.0025,-0.2674c1.1023,-0.0277 2.379,0.0972 3.2157,0.4928zM259.20559,126.14876c-0.0793,1.4997 -0.1349,3.069 -0.1727,4.6844c-0.198,8.5022 0.102,18.3034 0.06,26.2343c0.5462,0.1144 1.0833,0.1915 1.7324,0.2019c0.4745,0.0074 0.9448,-0.0314 1.3991,-0.1078c0.022,-0.0043 0.04,-0.0101 0.061,-0.0154c0.1551,-5.4045 -0.0242,-10.9385 0.0017,-16.3565c0.0119,-2.6731 0.0005,-6.4715 0.0476,-9.8991c0.0231,-1.7273 0.0615,-3.3607 0.125,-4.7081c-0.6065,-0.1567 -1.375,-0.1785 -2.0134,-0.1759c-0.4077,0.0027 -0.8284,0.0832 -1.2407,0.1422z" fill="#231f20" stroke="none" stroke-width="0.38875" stroke-linecap="butt"/><path d="M260.22029,112.51636c0.0164,-0.2608 -0.2484,-0.7032 0.1172,0c1.4822,2.8301 3.1719,5.762 4.101,8.779c0.2484,0.7979 -0.1746,1.7236 -0.703,2.5207c-0.5261,0.6928 -1.1694,1.761 -2.3435,1.7819c-1.2326,0.0209 -2.1806,-1.0439 -2.6364,-1.8688c-0.744,-1.03 -0.9983,-2.2704 -0.7616,-3.3899c0.307,-1.4542 1.7143,-2.8128 2.1091,-4.1288c0.3633,-1.2056 0.0598,-2.6589 0.1172,-3.6941z" fill="#ff9400" stroke="#ff9400" stroke-width="2.06324" stroke-linecap="round"/><path d="M260.85459,121.65636c0.1197,-0.1329 0.1295,-0.2048 0.2036,-0.1209c0.3193,0.6067 0.6549,1.2278 0.7331,1.7674c0.0521,0.3734 -0.1906,0.7365 -0.2867,1.0996c-0.1092,0.4375 0.0684,1.4471 -0.2427,1.4834c-0.3487,-0.0363 -0.8765,-1.0151 -1.1387,-1.4834c-0.1931,-0.3419 -0.3682,-0.728 -0.2867,-1.0996c0.1254,-0.5348 0.5921,-1.1438 1.0181,-1.6465z" fill="#ffff99" stroke="none" stroke-width="0.71711" stroke-linecap="round"/></g><path d="M258.72328,149.8594c0.5251,-0.0134 1.2255,-0.0272 1.9514,-0.0288c0.819,-0.0018 1.6024,0.0041 2.1444,0.0098c0.2095,1.675 -0.2049,3.607 -0.1858,5.1696c-0.678,0.0238 -1.3446,0.0403 -2.1497,0.0438c-0.588,0.0026 -1.1711,-0.004 -1.735,-0.018c-0.0272,-0.0007 -0.0496,-0.0018 -0.0756,-0.0028c-0.1695,-1.0646 0.0765,-2.1555 0.0674,-3.2231c-0.004,-0.5267 0.0262,-1.2752 -0.0171,-1.9505z" fill="#42b5e8" stroke="none" stroke-width="0.4292" stroke-linecap="butt"/></g><path d="M229.23456,156.4752c0.23717,0.71151 -0.47434,0.94869 -0.47434,0.94869l-0.68425,0.20866c-2.25375,0.22535 -5.1844,0.33434 -7.25408,-0.58521c0,0 -0.68278,-0.31036 -0.37243,-0.99313c0.31035,-0.68277 0.99313,-0.37242 0.99313,-0.37242c1.79572,0.83969 4.50952,0.65568 6.48412,0.4582l0.35916,-0.13913c0,0 0.71152,-0.23717 0.94869,0.47434z" fill="#00cccc" stroke="none" stroke-width="0.5" stroke-linecap="butt"/><path d="M263.95178,158.04344c0.14708,0.73543 -0.58835,0.88252 -0.58835,0.88252l-0.50722,0.09779c-1.8201,0.18013 -3.73712,0.3424 -5.34136,-0.63198c0,0 -0.636,-0.3975 -0.2385,-1.0335c0.3975,-0.636 1.0335,-0.2385 1.0335,-0.2385c1.23368,0.80192 2.97835,0.55489 4.39711,0.41142l0.3623,-0.07611c0,0 0.73544,-0.14708 0.88252,0.58835z" fill="#00cccc" stroke="none" stroke-width="0.5" stroke-linecap="butt"/><path d="M230.35066,154.88523c0.43593,0.6103 -0.17437,1.04622 -0.17437,1.04622l-0.96176,0.56986c-2.44114,0.27123 -5.65269,0.25656 -8.07815,0c0,0 -0.74542,-0.08282 -0.66259,-0.82824c0.08283,-0.74542 0.82824,-0.66259 0.82824,-0.66259c2.31651,0.27267 5.39428,0.26139 7.74686,0l0.25555,-0.29964c0,0 0.6103,-0.43592 1.04623,0.17438z" fill="#00b7b7" stroke="none" stroke-width="0.5" stroke-linecap="butt"/><path d="M264.79008,156.52984c0.53033,0.53033 0,1.06066 0,1.06066l-0.28187,0.22744c-2.24196,1.08531 -5.52017,0.73995 -7.85478,0.04755c0,0 -0.71837,-0.21551 -0.50286,-0.93388c0.21551,-0.71837 0.93388,-0.50286 0.93388,-0.50286c1.89423,0.5758 4.93848,0.99606 6.75293,0.04755l-0.10797,0.05354c0,0 0.53033,-0.53033 1.06066,0z" fill="#00b7b7" stroke="none" stroke-width="0.5" stroke-linecap="butt"/></g></g></g></svg>