<svg version="1.1" width="156" height="283" viewBox="-1 -1 156 283" xmlns="http://www.w3.org/2000/svg" xmlns:xlink="http://www.w3.org/1999/xlink">
  <!-- Exported by Scratch - http://scratch.mit.edu/ -->
  <g id="ID0.2156205102801323" transform="matrix(1, 0, 0, 1, -147, -101)">
    <g id="ID0.6891902638599277" transform="matrix(1, 0, 0, 1, 147, 101)">
      <path id="ID0.9476556056179106" fill="#E5E5E5" stroke="none" d="M 365.250 73 C 379.527 73 392.465 78.799 401.833 88.167 C 411.201 97.535 417 110.473 417 124.750 C 417 139.027 411.201 151.965 401.833 161.333 C 392.465 170.701 379.527 176.500 365.250 176.500 C 350.973 176.500 338.035 170.701 328.667 161.333 C 319.299 151.965 313.500 139.027 313.500 124.750 C 313.500 110.473 319.299 97.535 328.667 88.167 C 338.035 78.799 350.973 73 365.250 73 Z " transform="matrix(1, 0, 0, 1, -289.5, -73)"/>
      <path id="ID0.8810585546307266" fill="#FFFFCB" stroke="none" d="M 145 126.500 L 323.500 126.500 L 323.500 260.500 L 145 260.500 L 145 126.500 Z " transform="matrix(0.8655462265014648, 0, 0, 1, -125.1, -112)"/>
      <text id="ID0.8150224373675883" fill="#666666" x="200" y="158.75" text-anchor="start" font-family="Helvetica" font-size="22" transform="matrix(0.6145251393318176, 0, 0, 0.6145251393318176, 16.8, 22.75)">Coco SteamWorks1991</text>
    </g>
    <g id="ID0.6966666751541197" transform="matrix(0.6102564334869385, 0, 0, 0.6102564334869385, 165.65, 52.8)">
      <path id="ID0.3576879482716322" fill="#995900" stroke="none" d="M 96.250 176.500 C 109.700 176.500 121.887 181.963 130.712 190.788 C 139.537 199.613 145 211.800 145 225.250 C 145 238.700 139.537 250.887 130.712 259.712 C 121.887 268.537 109.700 274 96.250 274 C 82.800 274 70.613 268.537 61.788 259.712 C 52.963 250.887 47.500 238.700 47.500 225.250 C 47.500 211.800 52.963 199.613 61.788 190.788 C 70.613 181.963 82.800 176.500 96.250 176.500 Z " transform="matrix(1, 0, 0, 1, 10, 7)"/>
      <path id="ID0.6084242695942521" fill="#000000" stroke="none" d="M 122 191 C 123.931 191 125.681 191.784 126.948 193.052 C 128.216 194.319 129 196.069 129 198 C 129 199.931 128.216 201.681 126.948 202.948 C 125.681 204.216 123.931 205 122 205 C 120.069 205 118.319 204.216 117.052 202.948 C 115.784 201.681 115 199.931 115 198 C 115 196.069 115.784 194.319 117.052 193.052 C 118.319 191.784 120.069 191 122 191 Z "/>
      <path id="ID0.7836829731240869" fill="#000000" stroke="none" d="M 134.250 207 C 135.836 207 137.274 207.644 138.315 208.685 C 139.356 209.726 140 211.164 140 212.750 C 140 214.336 139.356 215.774 138.315 216.815 C 137.274 217.856 135.836 218.500 134.250 218.500 C 132.664 218.500 131.226 217.856 130.185 216.815 C 129.144 215.774 128.500 214.336 128.500 212.750 C 128.500 211.164 129.144 209.726 130.185 208.685 C 131.226 207.644 132.664 207 134.250 207 Z "/>
      <path id="ID0.007638322655111551" fill="#000000" stroke="none" d="M 117 205.500 C 118.379 205.500 119.629 206.060 120.535 206.965 C 121.440 207.871 122 209.121 122 210.500 C 122 211.879 121.440 213.129 120.535 214.035 C 119.629 214.940 118.379 215.500 117 215.500 C 115.621 215.500 114.371 214.940 113.465 214.035 C 112.560 213.129 112 211.879 112 210.500 C 112 209.121 112.560 207.871 113.465 206.965 C 114.371 206.060 115.621 205.500 117 205.500 Z "/>
    </g>
  </g>
</svg>