<svg version="1.1" xmlns="http://www.w3.org/2000/svg" xmlns:xlink="http://www.w3.org/1999/xlink" width="260.3325" height="195.19086" viewBox="0,0,260.3325,195.19086"><defs><linearGradient x1="236.02827" y1="105.48029" x2="236.02827" y2="283.33406" gradientUnits="userSpaceOnUse" id="color-1"><stop offset="0" stop-color="#000000"/><stop offset="1" stop-color="#000000" stop-opacity="0"/></linearGradient><linearGradient x1="233.57451" y1="89.39349" x2="233.57451" y2="226.99058" gradientUnits="userSpaceOnUse" id="color-2"><stop offset="0" stop-color="#ffffff"/><stop offset="1" stop-color="#ffffff" stop-opacity="0"/></linearGradient></defs><g transform="translate(-107.36253,-88.1432)"><g data-paper-data="{&quot;isPaintingLayer&quot;:true}" fill-rule="nonzero" stroke-linejoin="miter" stroke-miterlimit="10" stroke-dasharray="" stroke-dashoffset="0" style="mix-blend-mode: normal"><path d="M335.58049,276.93221c-19.86969,10.0447 -70.76949,3.86333 -96.9519,3.86333c-22.15021,0 -90.06149,6.34876 -107.96459,-1.03414c-16.33218,-6.73507 -20.29097,-68.31237 -20.29097,-86.18929c0,-27.17691 -12.81303,-65.96433 14.4283,-81.96093c5.45456,-3.20302 14.54449,-1.15824 24.36218,-2.20985c28.06132,-3.00574 67.71908,-3.05264 89.46508,-3.05264c31.56604,0 84.92589,-5.01527 106.58151,9.05938c3.09818,2.0136 14.79539,7.47002 16.81595,22.83497c2.152,16.36452 -5.50789,43.22749 -6.76958,64.03427c-0.97588,16.09333 2.81546,32.6525 -0.3325,45.54689c-3.94418,16.15584 -15.18879,27.00769 -19.34349,29.10801z" fill="url(#color-1)" stroke="none" stroke-width="0" stroke-linecap="butt"/><g stroke="#000000" stroke-width="2.5"><path d="M360.40496,179.01016c0,26.91179 9.17019,65.39723 -17.21621,81.55189c-21.30411,13.04312 -74.80784,6.51882 -104.94737,6.51882c-36.87426,0 -88.44235,11.5248 -110.84156,-7.09751c-18.58481,-15.45106 -11.32201,-58.91664 -11.32201,-80.9732c0,-21.64791 -9.52678,-61.34747 8.4455,-76.68268c22.40916,-19.12106 76.27698,-11.38803 113.71808,-11.38803c38.44249,0 97.72573,-6.3894 120.11946,13.62254c16.90872,15.11032 2.04412,53.5222 2.04412,74.44817z" fill="#ffffff" stroke-linecap="butt"/><path d="M267.98824,161.06189l72.92271,95.15093" fill="none" stroke-linecap="round"/><path d="M203.28218,151.16616l-78.05811,102.0018" fill="none" stroke-linecap="round"/><path d="M345.37273,96.795c-10.34944,2.69656 -34.42403,46.23619 -47.44837,52.01999c-14.62736,6.49565 -33.50418,30.13624 -54.00818,31.1221c-26.1895,1.25923 -37.60597,-23.90349 -54.65913,-32.03759c-5.69526,-2.71655 -51.08113,-49.25804 -61.04636,-48.86598c-16.44704,0.64708 59.32866,-5.59563 108.70033,-7.96948c49.37166,-2.37385 114.47667,4.16377 108.46172,5.73097z" fill="#ffffff" stroke-linecap="butt"/></g><path d="M111.58084,148.68477c-0.5607,-6.16147 3.23201,-8.71565 4.63036,-12.71133c1.82036,-5.20152 1.75028,-11.32579 4.908,-15.47945c5.79626,-7.62439 12.2798,-15.81201 30.14289,-24.46272c21.62651,-10.47326 52.11806,-3.23252 81.50171,-4.61917c33.37187,-1.57486 45.88626,-3.25213 66.9717,-0.71321c7.91364,0.95289 26.86235,-4.08035 34.31431,1.25607c18.52519,13.26608 21.49619,25.77127 23.21502,44.65939c4.25249,46.73036 -26.67006,86.46567 -103.70309,90.10095c-77.03303,3.63528 -139.80822,-29.11195 -144.06072,-75.8423z" fill="url(#color-2)" stroke="none" stroke-width="0" stroke-linecap="butt"/></g></g></svg>