<svg viewBox="0 0 311.6 95.3" xmlns:xlink="http://www.w3.org/1999/xlink" height="95.3" width="311.6" xmlns="http://www.w3.org/2000/svg" id="b"><defs><style>.e{fill:#fff;}.f{stroke:#1c1c1b;stroke-width:12.3px;}.f,.g{fill:none;stroke-linecap:round;stroke-linejoin:round;}.h{fill:url(#d);}.g{stroke:#fff;stroke-width:23.7px;}</style><linearGradient gradientUnits="userSpaceOnUse" gradientTransform="translate(-343.4 1412.2) rotate(-17.2) scale(1 1.1) skewX(-2.8)" y2="-1136.5" x2="845.5" y1="-1065.9" x1="825.3" id="d"><stop stop-color="#faa51d" offset=".2"></stop><stop stop-color="#faab2e" offset=".2"></stop><stop stop-color="#fbbe5c" offset=".3"></stop><stop stop-color="#fddba5" offset=".3"></stop><stop stop-color="#fff" offset=".4"></stop></linearGradient></defs><g id="c"><g><g><path d="m30.4,54.9h-4.2s0,13.7,0,13.7h-11.7s0-47,0-47h15.4c3.9,0,14,.4,13.9,15.9,0,14.9-7.9,17.3-13.5,17.3Zm-1.5-22.2h-2.6s0,11.2,0,11.2h2.7c1.5,0,3.4-1.2,3.4-5.6,0-4.9-2.1-5.6-3.4-5.6Z" class="g"></path><path d="m68.7,68.7c-.2-2.3-.3-4.6-.6-6.7h-10c-.2,2.1-.5,4.4-.6,6.7h-11c1.7-15.8,4.9-33.3,10.5-46.9h14.3c5.7,14.5,8.7,30.7,10.4,47h-12.9Zm-5.5-34.9h0c-1.4,5.4-2.6,10.7-3.5,16.6h7.1c-.9-5.8-2-11.2-3.5-16.6Z" class="g"></path><path d="m112,69.4c-4.4,0-6.6-1.4-8.3-7.5-.4-1.7-1.1-4.1-1.7-6.3-.8-2.7-1.6-2.8-2.2-2.8h-.8s0,15.9,0,15.9h-11.7s0-47,0-47h15c6,0,15,1.2,15,15,0,7-3.4,10.5-5.5,11.8.4,1.1,1.4,4.1,2.3,6.3,1,2.8,1.7,4.1,2.8,4.1.4,0,.9-.2,1.1-.3l.3,10c-1.9.6-4.3.9-6.3.9Zm-10.8-36.6h-2.2s0,10.2,0,10.2h2.5c2,0,4.3-1,4.3-5.2,0-4.4-2.6-4.9-4.6-4.9Z" class="g"></path><path d="m143.1,34.9v34c0,0-11.8,0-11.8,0v-34c0,0-8.7,0-8.7,0v-13s29.2,0,29.2,0v13s-8.8,0-8.8,0Z" class="g"></path><path d="m157.4,68.9V21.9c0,0,11.8,0,11.8,0v46.9c0,0-11.8,0-11.8,0Z" class="g"></path><path d="m193.6,70.1c-10,0-17.6-8.4-17.6-24.1,0-17.3,8.4-25.2,19.2-25.2,2.7,0,5.8.6,8.5,1.5l-2.1,13.2c-1.6-1.1-3.5-1.9-5.3-1.9-5.1,0-8.3,4.4-8.3,12,0,7.5,3.4,11.7,8.3,11.7,2,0,4-.7,5.6-1.9l1.8,12.6c-2.9,1.5-6.8,2-10.2,2Z" class="g"></path><path d="m210.5,69V22c0,0,11.8,0,11.8,0v33.6c0,0,12.5,0,12.5,0v13.4s-24.3,0-24.3,0Z" class="g"></path><path d="m244.8,69c-2.6-2.2-4.3-6.4-4.2-13.8V22.1c0,0,23.2,0,23.2,0v12.4s-11.5,0-11.5,0v4.8s11,0,11,0v11.3s-11,0-11,0v2.9c0,1.8.3,2.7,1,3.2h11.2s0,12.4,0,12.4h-19.6Z" class="g"></path><path d="m281,70.2c-3.5,0-7.1-.5-10-1.7l1.7-12.7c1.6,1.1,3.8,2,6.4,2,1.7,0,3.8-.5,3.8-3.1s-.9-2.3-2-2.9l-1.6-.9c-3.7-2.1-7.9-5.1-7.9-13,0-11.3,6.1-16.9,13.8-16.9,3.2,0,6.8.6,9.6,1.7l-1.6,12.2c-1.5-1.1-3.9-2-6.2-2-2.3,0-2.8,1.4-2.9,2.5,0,1.1.5,1.9,1.8,2.5l1.8,1c3.9,2.2,8.1,5.4,8.1,13.7,0,12-6.5,17.7-14.7,17.7Z" class="g"></path></g><g><path d="m30.4,54.9h-4.2s0,13.7,0,13.7h-11.7s0-47,0-47h15.4c3.9,0,14,.4,13.9,15.9,0,14.9-7.9,17.3-13.5,17.3Zm-1.5-22.2h-2.6s0,11.2,0,11.2h2.7c1.5,0,3.4-1.2,3.4-5.6,0-4.9-2.1-5.6-3.4-5.6Z" class="f"></path><path d="m68.7,68.7c-.2-2.3-.3-4.6-.6-6.7h-10c-.2,2.1-.5,4.4-.6,6.7h-11c1.7-15.8,4.9-33.3,10.5-46.9h14.3c5.7,14.5,8.7,30.7,10.4,47h-12.9Zm-5.5-34.9h0c-1.4,5.4-2.6,10.7-3.5,16.6h7.1c-.9-5.8-2-11.2-3.5-16.6Z" class="f"></path><path d="m112,69.4c-4.4,0-6.6-1.4-8.3-7.5-.4-1.7-1.1-4.1-1.7-6.3-.8-2.7-1.6-2.8-2.2-2.8h-.8s0,15.9,0,15.9h-11.7s0-47,0-47h15c6,0,15,1.2,15,15,0,7-3.4,10.5-5.5,11.8.4,1.1,1.4,4.1,2.3,6.3,1,2.8,1.7,4.1,2.8,4.1.4,0,.9-.2,1.1-.3l.3,10c-1.9.6-4.3.9-6.3.9Zm-10.8-36.6h-2.2s0,10.2,0,10.2h2.5c2,0,4.3-1,4.3-5.2,0-4.4-2.6-4.9-4.6-4.9Z" class="f"></path><path d="m143.1,34.9v34c0,0-11.8,0-11.8,0v-34c0,0-8.7,0-8.7,0v-13s29.2,0,29.2,0v13s-8.8,0-8.8,0Z" class="f"></path><path d="m157.4,68.9V21.9c0,0,11.8,0,11.8,0v46.9c0,0-11.8,0-11.8,0Z" class="f"></path><path d="m193.6,70.1c-10,0-17.6-8.4-17.6-24.1,0-17.3,8.4-25.2,19.2-25.2,2.7,0,5.8.6,8.5,1.5l-2.1,13.2c-1.6-1.1-3.5-1.9-5.3-1.9-5.1,0-8.3,4.4-8.3,12,0,7.5,3.4,11.7,8.3,11.7,2,0,4-.7,5.6-1.9l1.8,12.6c-2.9,1.5-6.8,2-10.2,2Z" class="f"></path><path d="m210.5,69V22c0,0,11.8,0,11.8,0v33.6c0,0,12.5,0,12.5,0v13.4s-24.3,0-24.3,0Z" class="f"></path><path d="m244.8,69c-2.6-2.2-4.3-6.4-4.2-13.8V22.1c0,0,23.2,0,23.2,0v12.4s-11.5,0-11.5,0v4.8s11,0,11,0v11.3s-11,0-11,0v2.9c0,1.8.3,2.7,1,3.2h11.2s0,12.4,0,12.4h-19.6Z" class="f"></path><path d="m281,70.2c-3.5,0-7.1-.5-10-1.7l1.7-12.7c1.6,1.1,3.8,2,6.4,2,1.7,0,3.8-.5,3.8-3.1s-.9-2.3-2-2.9l-1.6-.9c-3.7-2.1-7.9-5.1-7.9-13,0-11.3,6.1-16.9,13.8-16.9,3.2,0,6.8.6,9.6,1.7l-1.6,12.2c-1.5-1.1-3.9-2-6.2-2-2.3,0-2.8,1.4-2.9,2.5,0,1.1.5,1.9,1.8,2.5l1.8,1c3.9,2.2,8.1,5.4,8.1,13.7,0,12-6.5,17.7-14.7,17.7Z" class="f"></path></g><g><path d="m30.4,54.9h-4.2s0,13.7,0,13.7h-11.7s0-47,0-47h15.4c3.9,0,14,.4,13.9,15.9,0,14.9-7.9,17.3-13.5,17.3Zm-1.5-22.2h-2.6s0,11.2,0,11.2h2.7c1.5,0,3.4-1.2,3.4-5.6,0-4.9-2.1-5.6-3.4-5.6Z" class="e"></path><path d="m68.7,68.7c-.2-2.3-.3-4.6-.6-6.7h-10c-.2,2.1-.5,4.4-.6,6.7h-11c1.7-15.8,4.9-33.3,10.5-46.9h14.3c5.7,14.5,8.7,30.7,10.4,47h-12.9Zm-5.5-34.9h0c-1.4,5.4-2.6,10.7-3.5,16.6h7.1c-.9-5.8-2-11.2-3.5-16.6Z" class="e"></path><path d="m112,69.4c-4.4,0-6.6-1.4-8.3-7.5-.4-1.7-1.1-4.1-1.7-6.3-.8-2.7-1.6-2.8-2.2-2.8h-.8s0,15.9,0,15.9h-11.7s0-47,0-47h15c6,0,15,1.2,15,15,0,7-3.4,10.5-5.5,11.8.4,1.1,1.4,4.1,2.3,6.3,1,2.8,1.7,4.1,2.8,4.1.4,0,.9-.2,1.1-.3l.3,10c-1.9.6-4.3.9-6.3.9Zm-10.8-36.6h-2.2s0,10.2,0,10.2h2.5c2,0,4.3-1,4.3-5.2,0-4.4-2.6-4.9-4.6-4.9Z" class="e"></path><path d="m143.1,34.9v34c0,0-11.8,0-11.8,0v-34c0,0-8.7,0-8.7,0v-13s29.2,0,29.2,0v13s-8.8,0-8.8,0Z" class="e"></path><path d="m157.4,68.9V21.9c0,0,11.8,0,11.8,0v46.9c0,0-11.8,0-11.8,0Z" class="e"></path><path d="m193.6,70.1c-10,0-17.6-8.4-17.6-24.1,0-17.3,8.4-25.2,19.2-25.2,2.7,0,5.8.6,8.5,1.5l-2.1,13.2c-1.6-1.1-3.5-1.9-5.3-1.9-5.1,0-8.3,4.4-8.3,12,0,7.5,3.4,11.7,8.3,11.7,2,0,4-.7,5.6-1.9l1.8,12.6c-2.9,1.5-6.8,2-10.2,2Z" class="e"></path><path d="m210.5,69V22c0,0,11.8,0,11.8,0v33.6c0,0,12.5,0,12.5,0v13.4s-24.3,0-24.3,0Z" class="e"></path><path d="m244.8,69c-2.6-2.2-4.3-6.4-4.2-13.8V22.1c0,0,23.2,0,23.2,0v12.4s-11.5,0-11.5,0v4.8s11,0,11,0v11.3s-11,0-11,0v2.9c0,1.8.3,2.7,1,3.2h11.2s0,12.4,0,12.4h-19.6Z" class="e"></path><path d="m281,70.2c-3.5,0-7.1-.5-10-1.7l1.7-12.7c1.6,1.1,3.8,2,6.4,2,1.7,0,3.8-.5,3.8-3.1s-.9-2.3-2-2.9l-1.6-.9c-3.7-2.1-7.9-5.1-7.9-13,0-11.3,6.1-16.9,13.8-16.9,3.2,0,6.8.6,9.6,1.7l-1.6,12.2c-1.5-1.1-3.9-2-6.2-2-2.3,0-2.8,1.4-2.9,2.5,0,1.1.5,1.9,1.8,2.5l1.8,1c3.9,2.2,8.1,5.4,8.1,13.7,0,12-6.5,17.7-14.7,17.7Z" class="e"></path></g><g><path d="m30.4,54.9h-4.2s0,13.7,0,13.7h-11.7s0-47,0-47h15.4c3.9,0,14,.4,13.9,15.9,0,14.9-7.9,17.3-13.5,17.3Zm-1.5-22.2h-2.6s0,11.2,0,11.2h2.7c1.5,0,3.4-1.2,3.4-5.6,0-4.9-2.1-5.6-3.4-5.6Z" class="h"></path><path d="m68.7,68.7c-.2-2.3-.3-4.6-.6-6.7h-10c-.2,2.1-.5,4.4-.6,6.7h-11c1.7-15.8,4.9-33.3,10.5-46.9h14.3c5.7,14.5,8.7,30.7,10.4,47h-12.9Zm-5.5-34.9h0c-1.4,5.4-2.6,10.7-3.5,16.6h7.1c-.9-5.8-2-11.2-3.5-16.6Z" class="h"></path><path d="m112,69.4c-4.4,0-6.6-1.4-8.3-7.5-.4-1.7-1.1-4.1-1.7-6.3-.8-2.7-1.6-2.8-2.2-2.8h-.8s0,15.9,0,15.9h-11.7s0-47,0-47h15c6,0,15,1.2,15,15,0,7-3.4,10.5-5.5,11.8.4,1.1,1.4,4.1,2.3,6.3,1,2.8,1.7,4.1,2.8,4.1.4,0,.9-.2,1.1-.3l.3,10c-1.9.6-4.3.9-6.3.9Zm-10.8-36.6h-2.2s0,10.2,0,10.2h2.5c2,0,4.3-1,4.3-5.2,0-4.4-2.6-4.9-4.6-4.9Z" class="h"></path><path d="m143.1,34.9v34c0,0-11.8,0-11.8,0v-34c0,0-8.7,0-8.7,0v-13s29.2,0,29.2,0v13s-8.8,0-8.8,0Z" class="h"></path><path d="m157.4,68.9V21.9c0,0,11.8,0,11.8,0v46.9c0,0-11.8,0-11.8,0Z" class="h"></path><path d="m193.6,70.1c-10,0-17.6-8.4-17.6-24.1,0-17.3,8.4-25.2,19.2-25.2,2.7,0,5.8.6,8.5,1.5l-2.1,13.2c-1.6-1.1-3.5-1.9-5.3-1.9-5.1,0-8.3,4.4-8.3,12,0,7.5,3.4,11.7,8.3,11.7,2,0,4-.7,5.6-1.9l1.8,12.6c-2.9,1.5-6.8,2-10.2,2Z" class="h"></path><path d="m210.5,69V22c0,0,11.8,0,11.8,0v33.6c0,0,12.5,0,12.5,0v13.4s-24.3,0-24.3,0Z" class="h"></path><path d="m244.8,69c-2.6-2.2-4.3-6.4-4.2-13.8V22.1c0,0,23.2,0,23.2,0v12.4s-11.5,0-11.5,0v4.8s11,0,11,0v11.3s-11,0-11,0v2.9c0,1.8.3,2.7,1,3.2h11.2s0,12.4,0,12.4h-19.6Z" class="h"></path><path d="m281,70.2c-3.5,0-7.1-.5-10-1.7l1.7-12.7c1.6,1.1,3.8,2,6.4,2,1.7,0,3.8-.5,3.8-3.1s-.9-2.3-2-2.9l-1.6-.9c-3.7-2.1-7.9-5.1-7.9-13,0-11.3,6.1-16.9,13.8-16.9,3.2,0,6.8.6,9.6,1.7l-1.6,12.2c-1.5-1.1-3.9-2-6.2-2-2.3,0-2.8,1.4-2.9,2.5,0,1.1.5,1.9,1.8,2.5l1.8,1c3.9,2.2,8.1,5.4,8.1,13.7,0,12-6.5,17.7-14.7,17.7Z" class="h"></path></g></g></g></svg>