<svg version="1.1" xmlns="http://www.w3.org/2000/svg" xmlns:xlink="http://www.w3.org/1999/xlink" width="370.85166" height="379.16586" viewBox="0,0,370.85166,379.16586"><defs><linearGradient x1="237.99877" y1="52.67138" x2="237.99877" y2="406.29211" gradientUnits="userSpaceOnUse" id="color-1"><stop offset="0" stop-color="#000000"/><stop offset="1" stop-color="#000000" stop-opacity="0"/></linearGradient><linearGradient x1="237.05097" y1="28.20368" x2="237.05097" y2="381.82441" gradientUnits="userSpaceOnUse" id="color-2"><stop offset="0" stop-color="#d4d4d4"/><stop offset="1" stop-color="#818889"/></linearGradient><linearGradient x1="239.99998" y1="56.33133" x2="239.99998" y2="303.6687" gradientUnits="userSpaceOnUse" id="color-3"><stop offset="0" stop-color="#d4d4d4"/><stop offset="1" stop-color="#818889"/></linearGradient><linearGradient x1="239.99998" y1="83.65887" x2="239.99998" y2="276.34116" gradientUnits="userSpaceOnUse" id="color-4"><stop offset="0" stop-color="#b3b500"/><stop offset="1" stop-color="#b5ca00"/></linearGradient><linearGradient x1="266.27318" y1="215.57809" x2="244.03812" y2="-16.65652" gradientUnits="userSpaceOnUse" id="color-5"><stop offset="0" stop-color="#ffffff" stop-opacity="0"/><stop offset="1" stop-color="#ffffff"/></linearGradient></defs><g transform="translate(-52.09904,-27.12625)"><g data-paper-data="{&quot;isPaintingLayer&quot;:true}" fill-rule="nonzero" stroke-linejoin="miter" stroke-miterlimit="10" stroke-dasharray="" stroke-dashoffset="0" style="mix-blend-mode: normal"><path d="M420.48739,227.82142c0,58.54548 9.14947,134.33922 -36.62674,165.7421c-29.11266,19.97154 -103.69001,7.68133 -142.05194,7.68133c-32.45404,0 -131.95625,12.62302 -158.18752,-2.05614c-53.52897,-29.9551 -20.49116,-107.08769 -20.49116,-171.36729c0,-54.03495 -6.07011,-123.319 33.84333,-155.12451c30.83473,-24.57103 101.82621,-18.29891 144.83535,-18.29891c46.24992,0 124.43168,-9.9717 156.16106,18.01246c35.97026,31.72447 22.51762,104.52148 22.51762,155.41097z" fill="url(#color-1)" stroke="none" stroke-width="0" stroke-linecap="butt"/><path d="M419.53959,203.35372c0,58.54548 9.14947,134.33922 -36.62674,165.7421c-29.11266,19.97154 -103.69001,7.68133 -142.05194,7.68133c-32.45404,0 -131.95625,12.62302 -158.18752,-2.05614c-53.52897,-29.9551 -20.49116,-107.08769 -20.49116,-171.36729c0,-54.03495 -6.07011,-123.319 33.84333,-155.12451c30.83473,-24.57103 101.82621,-18.29891 144.83535,-18.29891c46.24992,0 124.43168,-9.9717 156.16106,18.01246c35.97026,31.72447 22.51762,104.52148 22.51762,155.41097z" fill="url(#color-2)" stroke="none" stroke-width="15" stroke-linecap="butt"/><path d="M366.44775,180.00001c0,68.30033 -56.61259,123.66868 -126.44775,123.66868c-69.83517,0 -126.44775,-55.36835 -126.44775,-123.66868c0,-68.30033 56.61259,-123.66869 126.44776,-123.66869c69.83517,0 126.44775,55.36836 126.44775,123.66869z" fill="url(#color-3)" stroke="none" stroke-width="0" stroke-linecap="butt"/><path d="M333.09889,180.00001c0,53.20774 -41.6818,96.34114 -93.0989,96.34114c-51.4171,0 -93.09889,-43.1334 -93.09889,-96.34114c0,-53.20774 41.68179,-96.34114 93.0989,-96.34114c51.4171,0 93.0989,43.1334 93.0989,96.34115z" fill="url(#color-4)" stroke="none" stroke-width="0" stroke-linecap="butt"/><path d="M233.35625,97.09105l0.92636,86.15121" fill="none" stroke="#080000" stroke-width="10" stroke-linecap="round"/><path d="M300.98984,179.43253l-66.30321,2.79772" fill="none" stroke="#080000" stroke-width="10" stroke-linecap="round"/><path d="M195.3756,255.49812l40.75972,-73.18222" fill="none" stroke="#ff0000" stroke-width="7.5" stroke-linecap="round"/><path d="M61.27148,108.49387c-0.80957,-8.45561 4.66659,-11.96081 6.68563,-17.44423c2.62836,-7.13824 2.52717,-15.5428 7.0865,-21.24303c8.36903,-10.46323 17.73041,-21.69941 43.52237,-33.5711c31.22583,-14.37284 75.25162,-4.43611 117.67773,-6.33906c48.18459,-2.16124 66.25372,-4.46302 96.69831,-0.97876c11.42625,1.30769 38.7857,-5.59961 49.54534,1.72375c26.74793,18.20553 31.03766,35.36688 33.51943,61.28775c6.14004,64.12982 -38.50805,118.66006 -149.7336,123.64889c-111.22555,4.98883 -201.86466,-39.95141 -208.00471,-104.08122z" fill="url(#color-5)" stroke="none" stroke-width="0" stroke-linecap="butt"/></g></g></svg>