<svg version="1.1" xmlns="http://www.w3.org/2000/svg" xmlns:xlink="http://www.w3.org/1999/xlink" width="252.89551" height="247.33737" viewBox="0,0,252.89551,247.33737"><defs><linearGradient x1="240" y1="56.33132" x2="240" y2="303.66869" gradientUnits="userSpaceOnUse" id="color-1"><stop offset="0" stop-color="#d4d4d4"/><stop offset="1" stop-color="#818889"/></linearGradient><linearGradient x1="240" y1="83.65886" x2="240" y2="276.34115" gradientUnits="userSpaceOnUse" id="color-2"><stop offset="0" stop-color="#b3b500"/><stop offset="1" stop-color="#b5ca00"/></linearGradient></defs><g transform="translate(-113.55224,-56.33131)"><g data-paper-data="{&quot;isPaintingLayer&quot;:true}" fill-rule="nonzero" stroke-linejoin="miter" stroke-miterlimit="10" stroke-dasharray="" stroke-dashoffset="0" style="mix-blend-mode: normal"><path d="M366.44776,180c0,68.30033 -56.61259,123.66868 -126.44775,123.66868c-69.83517,0 -126.44775,-55.36835 -126.44775,-123.66868c0,-68.30033 56.61259,-123.66869 126.44776,-123.66869c69.83517,0 126.44775,55.36836 126.44775,123.66869z" fill="url(#color-1)" stroke="none" stroke-width="0" stroke-linecap="butt"/><path d="M333.0989,180c0,53.20774 -41.6818,96.34114 -93.0989,96.34114c-51.4171,0 -93.09889,-43.1334 -93.09889,-96.34114c0,-53.20774 41.68179,-96.34114 93.0989,-96.34114c51.4171,0 93.0989,43.1334 93.0989,96.34115z" fill="url(#color-2)" stroke="none" stroke-width="0" stroke-linecap="butt"/><path d="M234.28262,183.24225l-0.92636,-86.15121" fill="none" stroke="#080000" stroke-width="10" stroke-linecap="round"/><path d="M234.68664,182.23025l66.30321,-2.79772" fill="none" stroke="#080000" stroke-width="10" stroke-linecap="round"/><path d="M236.13533,182.31589l-40.75972,73.18222" fill="none" stroke="#ff0000" stroke-width="7.5" stroke-linecap="round"/></g></g></svg>