<svg version="1.1" xmlns="http://www.w3.org/2000/svg" xmlns:xlink="http://www.w3.org/1999/xlink" width="407.86056" height="133.96976" viewBox="0,0,407.86056,133.96976"><g transform="translate(-21.73,-13.5289)"><g data-paper-data="{&quot;isPaintingLayer&quot;:true}" fill-rule="nonzero" stroke="none" stroke-width="0.5" stroke-linecap="butt" stroke-linejoin="miter" stroke-miterlimit="10" stroke-dasharray="" stroke-dashoffset="0" style="mix-blend-mode: normal"><path d="M34.84522,14.48026c6.38922,-2.14512 16.77994,-0.12834 23.46785,0.84656c7.75782,1.13086 15.86327,0.88456 23.53441,2.24885c1.60023,0.28459 3.36418,1.06793 4.98327,1.15536c4.30767,0.2326 7.86992,-0.00452 11.95919,0.83012c9.44685,1.92814 17.12293,0.86286 23.85804,9.84302c4.03813,5.38418 4.54922,13.59347 1.2101,19.43694c-4.15763,7.27587 -7.07168,5.8175 -10.61514,10.46217c-4.42798,5.80407 -6.16085,11.54567 -9.17677,17.8656c-3.00471,6.29643 -5.14009,9.98645 -8.70242,15.19594c-1.31078,1.91686 -2.34424,3.98332 -3.67479,5.91812c-0.51579,0.75003 -2.66492,1.92272 -1.76848,2.08083c11.0078,1.94142 23.10593,0.51935 33.71154,0.51935c1.80415,0 3.69869,0.79125 5.42683,0.84801c4.88994,0.16061 9.92816,-0.88585 14.67465,0.30078c9.67257,2.41814 16.24219,7.84222 16.24219,18.94922c0,11.107 -6.56961,16.53107 -16.24219,18.94922c-7.67865,1.91967 -14.63672,-0.32758 -21.91995,-0.42729c-10.1666,-0.13918 -23.79802,-0.64992 -35.15067,-0.72807c-13.65184,-0.09399 -32.57616,2.70199 -44.00521,-7.09434c-9.41972,-8.07404 -5.80526,-20.52875 1.05374,-28.62769c2.41988,-2.85734 2.24396,-8.76086 4.26927,-12.03162c1.49636,-2.41653 3.80032,-5.36725 5.59806,-7.67836c1.18188,-1.51938 3.57923,-2.278 4.50485,-3.93789c2.29993,-4.12438 5.65498,-7.85541 7.79831,-11.95627c2.06284,-3.94686 3.20628,-7.86747 4.85715,-11.89851c0.30549,-0.74594 -1.59897,-0.2099 -2.39275,-0.35016c-0.89379,-0.15792 -1.71451,-0.22623 -2.64527,-0.30226c-2.95965,-0.24176 -6.01273,-0.43523 -8.95587,-0.84104c-8.09861,-1.11668 -23.41733,0.00006 -29.04762,-7.23887c-0.94336,-0.89955 -1.79549,-1.89393 -2.54111,-2.96785c-2.16031,-3.11151 -3.42643,-6.89069 -3.42643,-10.96558c0,-5.13912 2.01383,-9.80787 5.29539,-13.26019c1.57456,-2.15601 3.867,-3.81695 7.81985,-5.14408z" fill="#00ffff"/><path d="M201.13084,142.5196l-2.16303,-0.15828c-0.47952,0.03578 -0.96393,0.05399 -1.4526,0.05399c-1.46158,0 -2.88511,-0.16289 -4.25343,-0.4715l-0.851,-0.06227l-0.48248,-0.28949c-3.06936,-0.92938 -5.81463,-2.60466 -8.0249,-4.81494l-1.45614,-1.45614l-0.49129,-0.8188c-0.4922,-0.67435 -0.94161,-1.38192 -1.34426,-2.11871l-1.77037,-2.06544l-3.02076,-6.04151l-0.25089,-0.41814l-0.62409,-0.93614l-0.09178,-0.25699l-0.55128,-0.9188l-1.73688,-2.02636l-2.11313,-1.81126l-0.70456,-1.69094l-0.08339,-0.12509l-0.28815,-0.33618l-0.1921,-0.3842l-3.70364,-5.55546l-0.05825,-0.1631l-0.76853,-0.88988l-2.10547,-6.61719l-0.07502,-0.75018l-0.3296,-0.92288l0.13037,-1.04301l-0.17985,-0.71941l-0.21676,-1.48117l-0.05722,-0.17983l-0.06669,-0.66685l-0.09704,-0.66311l0.01189,-0.18835l-0.14895,-1.48951v-8.64462l-0.11994,-0.47226l0.11994,-0.53973v-0.53638l0.30078,-3.00782l0.63707,-2.0022l0.091,-0.91009l1.61418,-5.07315l0.11731,-0.5279l0.13931,-0.27862l0.23467,-0.73752l0.31848,-0.36877l1.49176,-2.98352l1.74737,-2.0386l0.43684,-0.87368l0.5577,-0.65064l0.86401,-1.44002l0.7034,-0.70339l0.05911,-0.11823l0.55769,-0.65065l0.86401,-1.44001l1.09211,-1.09211l1.09211,-1.82017l2.91228,-2.91228l2.65346,-1.59208l2.34948,-2.01384l1.45614,-0.72807l0.37994,-0.08443l2.14154,-0.96l0.88636,-0.29545l0.23252,-0.11626l0.34878,-0.0775l0.35892,-0.11965l0.38729,-0.23907l2.84506,-1.0213l2.19506,-0.54877l1.48286,-0.49428l2.94858,-0.66581l0.06707,-0.00092l0.06392,-0.02034l3.00781,-0.30078h1.99865l0.61326,-0.15331l1.48116,-0.21675l0.17984,-0.05722l0.66684,-0.06668l0.66311,-0.09704l0.18834,0.01189l1.48951,-0.14895h7.18849l0.47225,-0.11994l0.53973,0.11994h0.53638l3.00781,0.30078l5.07315,1.61418l0.5279,0.11731l0.27862,0.13931l0.73753,0.23466l0.36876,0.31848l2.98352,1.49176l0.92357,0.79163l1.14555,0.40912l2.18421,1.45614l2.54237,2.79662l0.46099,0.41908l0.63699,0.42466l0.80888,0.88976l0.77786,0.70715l1.34709,0.80826l4.12913,4.12913l4.73012,3.5476l2.05529,2.52958l0.65363,0.59422l0.42081,0.31561l0.44977,0.1874l0.35981,0.41978l0.42911,0.32183l2.78919,3.43285l2.87853,3.35828l0.10847,0.21695l0.23189,0.38648l0.24816,0.30544l0.03712,0.17005l1.00086,1.66811l2.01384,2.34948l0.72807,1.45614l0.08443,0.37994l0.96,2.14154l0.72807,2.18421l0.66581,2.94858l0.00092,0.06708l0.02033,0.06392l0.19874,1.98739l0.50808,2.25005l0.00092,0.06707l0.02034,0.06392l0.30078,3.00781v5.73234l0.11994,0.47226l-0.11994,0.53973v0.53638l-0.30078,3.00782l-1.61418,5.07315l-0.11731,0.5279l-0.13931,0.27861l-0.23467,0.73752l-0.31848,0.36877l-0.03562,0.07124l-0.79163,0.92357l-0.40913,1.14554l-1.45614,2.18421l-1.4187,1.28973l-0.98645,1.64409l-4.36843,4.36843l-1.64409,0.98646l-1.28974,1.41871l-0.59822,0.39881l-1.56445,1.56445l-1.81844,1.09106l-0.24811,0.41703l-0.62547,0.45585l-0.22026,0.22026l-0.46371,0.27822l-4.30237,3.13562l-0.18834,0.08443l-0.14208,0.14208l-1.64409,0.98646l-1.28974,1.4187l-4.36843,2.91228l-1.14554,0.40912l-0.92357,0.79164l-0.07124,0.03562l-0.36876,0.31848l-0.73753,0.23467l-0.27861,0.13931l-0.5279,0.11731l-5.07315,1.61418l-3.00781,0.30078h-0.53638l-0.53973,0.11994l-0.47226,-0.11994h-5.64012l-0.47226,0.11994l-0.53973,-0.11994h-0.53638l-3.00781,-0.30078l-5.07315,-1.61418l-0.5279,-0.11731l-0.27861,-0.13931l-0.73753,-0.23467l-0.36876,-0.31848l-1.52738,-0.76369l-0.67887,-0.58189zM226.13151,100.81666l1.64409,-0.98645l1.05565,-1.16122l-0.00712,-0.03155l-0.00092,-0.06707l-0.02034,-0.06392l-0.02046,-0.2046l-0.16,-0.18666l-0.4291,-0.32183l-2.05528,-2.52958l-0.65364,-0.59422l-4.57179,-3.42883l-0.87371,-1.07534l-1.1881,-0.71285l-3.74866,-3.74866l-0.59822,-0.39881l-2.35594,-2.59154h-1.34193l-0.61326,0.15332l-1.48116,0.21675l-0.17984,0.05722l-0.66685,0.06669l-0.66311,0.09704l-0.18834,-0.01189l-1.48952,0.14895h-1.45673l-0.42709,0.15332l-1.40862,0.35215l-0.11228,0.05033l-0.32123,0.37477l-0.86401,1.44002l-0.70339,0.70339l-0.21105,0.42211v4.73504l0.15331,0.61325l0.03046,0.20815l1.67969,2.51953l0.06284,0.17596l2.24602,1.92516l0.7271,1.74504l0.349,0.40718l0.68143,1.36285l1.0301,0.93646l1.45614,2.18421l0.40912,1.14554l0.79163,0.92357l0.14265,0.28529l0.49336,-0.1253l6.88957,1.53101l0.11498,-0.19326l0.62547,-0.45585l0.22026,-0.22026l0.46371,-0.27823l4.30237,-3.13562l1.50797,-0.67599z" fill="#00ffff"/><path d="M312.8141,141.77538c0.29179,-0.12658 0.5792,-0.26144 0.86202,-0.40421c-0.02167,0.13295 -0.04345,0.26592 -0.06536,0.39881c-0.27237,0.00867 -0.5448,0.01344 -0.81716,0.01429c0.00682,-0.00295 0.01365,-0.00592 0.02049,-0.00888z" fill="#00ffff"/><path d="M301.49356,115.13633c0.15447,1.22097 0.28783,2.44251 0.30131,3.66056c0.00292,0.26378 -0.17388,1.95351 -0.1135,2.87922c2.47217,0.49644 3.9966,2.63087 6.23851,3.53594c3.24003,1.30801 6.89428,1.28661 10.3136,1.28661c0,0 10.5,0 10.5,10.5c0,10.5 -10.5,10.5 -10.5,10.5c-6.25876,0 -12.95438,-0.54097 -18.80923,-3.08181c-1.60541,-0.6967 -2.72953,-2.29846 -4.36843,-2.91228c-2.91954,-1.09347 -6.00266,-2.22574 -8.2733,-4.36199c-2.09733,-1.97319 -5.04311,-7.54723 -5.70677,-10.10871c-0.86063,-3.32169 0.26448,-6.60243 -0.20222,-9.86633c-0.80766,-5.6484 -1.07206,-10.53898 0.23483,-16.20675c0.28995,-1.1598 1.53955,-6.22053 1.79485,-6.92087c0.43618,-1.19653 1.55392,-2.19227 1.61068,-3.46456c0.12309,-2.75974 0.36784,-5.5847 1.3016,-8.18458c1.42125,-3.9572 4.37529,-7.07197 6.06996,-10.79787c0.96857,-2.12949 0.60843,-4.8139 1.92144,-6.75009c1.62663,-2.39865 3.69597,-4.60295 6.14798,-6.14797c2.00065,-1.26062 4.47473,-1.59717 6.8027,-2.0123c1.61581,-0.28813 3.28206,-0.06219 4.92327,-0.07867c5.38405,-0.05405 10.77053,-0.46784 15.89695,1.62567c2.07268,0.84643 5.9772,3.98402 7.72831,5.31049c4.90647,4.95649 8.52523,10.58911 8.7139,17.87547c0.12794,4.94091 -1.67206,9.828 -2.25991,14.63799c-0.49208,4.02631 -1.4767,8.31933 -4.00585,11.49057c-2.35309,2.95046 -8.28553,5.47656 -11.71055,6.27389c-2.36914,0.55153 -6.41975,-0.64266 -8.73685,0c-1.25939,0.34929 -2.35705,1.20881 -3.64035,1.45615c-1.60433,0.30921 -3.26527,0.1263 -4.89791,0.18945l1.13617,0.18924c0,0 -4.46382,1.48794 -8.41118,-0.51646zM304.89776,95.35442l3.87081,-0.89088c1.54778,0.31645 3.01575,-0.9677 4.567,-1.26668c1.60433,-0.30921 3.26453,-0.14984 4.89791,-0.18946c0.90521,-0.02196 1.81551,0.17639 2.71887,0.22773c0.19749,-1.32797 0.60213,-2.62008 0.92798,-3.92348c0.85632,-3.42529 1.8159,-7.83723 -0.33348,-9.90709c-0.82063,-0.60453 -1.39866,-1.98832 -2.41208,-1.87936c-2.36323,0.25409 -4.84119,0.12422 -7.21877,0.0825c-0.22271,0.84504 -0.48791,1.67762 -0.82574,2.48083c-1.41611,3.36685 -4.05306,6.26771 -5.57918,9.58812c-0.42326,0.9209 -0.11827,3.23655 -0.15454,3.46455c-0.11939,0.7507 -0.27583,1.48699 -0.45878,2.21323z" fill="#00eaea"/><path d="M408.94268,117.16865c-0.04461,0.00713 -0.08965,0.01256 -0.13506,0.01643c0.02353,0.05736 0.04584,0.11534 0.06689,0.17392c0.02126,-0.06403 0.04397,-0.12753 0.06817,-0.19035zM382.04948,126.9833c2.47953,0.04997 4.52633,-0.44427 7.01566,-0.75544c1.28853,-0.16106 2.93173,0.8862 3.89564,0.01607c0.47922,-0.43259 0.44912,-1.25251 0.89914,-1.7154c0.84276,-0.86686 2.1074,-1.33605 2.75888,-2.35451c0.90661,-3.91403 -2.20344,-9.61163 0.88148,-12.93498c2.49126,-2.68381 9.21025,-1.02349 12.26134,-0.48488c1.53181,0.2704 3.42792,-0.38751 4.62736,0.60289c1.79275,1.48032 2.83557,3.82055 3.4464,6.0638c0.34715,1.2749 -0.58009,2.58305 -0.73453,3.89531c-0.14135,1.20095 0.17974,2.46133 -0.15051,3.62459c-0.28528,1.00483 -1.19755,1.72442 -1.63709,2.67198c-1.04553,2.25393 0.40392,2.4403 -0.54712,5.3368c-1.05228,3.20485 -2.47268,3.59156 -4.42129,5.83129c-0.82009,0.9426 -1.26699,2.25316 -2.29464,2.96377c-1.04613,0.72339 -2.47736,0.62761 -3.64114,1.14075c-2.44615,1.07856 -5.01487,2.91461 -7.28071,4.36842c-8.50164,2.19044 -19.22621,2.43528 -26.25593,-3.51226c-3.7369,-3.16163 -5.54573,-6.08049 -5.16406,-11.08669c0.07607,-0.99774 0.60395,-1.91937 0.72807,-2.91228c0.35859,-2.86877 -1.12821,-6.50202 2.33073,-8.65516c7.19543,-4.47904 10.81097,2.90521 13.28233,7.89593z" fill="#00eaea"/><path d="M396.26886,102.48517c-1.2826,-0.68001 -2.43318,-1.62772 -3.37579,-2.94619c-3.07709,-4.30403 -1.82697,-10.95725 -1.00678,-15.66397c0.28406,-1.6301 -0.47025,-3.69358 0.63729,-4.92292c6.08736,-6.75683 9.8209,-5.56728 14.75036,1.24083c0.86558,1.19546 0.35832,2.93468 0.39461,4.41016c0.00337,0.13708 -0.38967,0.222 -0.27871,0.30256c0.30613,0.22225 0.81328,0.24662 1.11507,0.44606c-0.01731,-0.05155 -0.01995,-0.09716 0.00428,-0.12436c0.26949,-0.3025 1.74773,-1.59622 2.02733,-2.24789c0.94443,-2.20119 0.97476,-4.69026 1.45434,-7.037c2.80861,-0.9517 5.46068,-2.89858 8.42583,-2.85509c3.52283,0.05166 7.12982,4.81965 8.16227,7.63973c0.44479,1.21492 0.02772,2.59423 0.20364,3.87599c0.32935,2.39959 1.04714,4.8287 0.72807,7.22968c-0.57992,4.36385 -3.15638,8.16163 -4.6825,12.21345c-1.33325,3.53975 -0.22108,4.95027 -4.26477,7.80169c-5.61912,3.96234 -14.50353,1.04986 -20.78598,1.04986c0,0 -5.75,0 -5.75,-5.75c0,-2.44952 1.0435,-3.85554 2.24144,-4.66259z" fill="#00ffff"/><path d="M370.01251,98.11429c-0.47619,-0.0573 -0.79798,-0.2597 -1.01543,-0.50709c-0.19696,-0.19358 -0.3134,-0.41431 -0.37863,-0.63289c-1.05463,-1.86123 -1.31434,-4.96554 0.63926,-6.37261c0.0186,-0.01369 0.03749,-0.02702 0.05664,-0.03998c2.35091,-1.6282 5.24447,0.18044 6.23664,2.23686c0.39055,0.80946 0.16654,2.23228 0.08732,3.44847c0.0136,0.43942 0.01772,0.83175 0.00607,1.19418c0.00503,0.03924 0.01075,0.07764 0.01723,0.11515c0.26693,1.54679 0.73628,3.07916 0.75067,4.64874c0,0 0,1.75 -1.75,1.75c-0.77664,0 -1.20861,-0.34467 -1.44888,-0.72809c-0.00242,0.00001 -0.00484,0.00001 -0.00726,0.00001c-0.78722,0 -1.45303,-0.51979 -1.67296,-1.23488l-0.71531,-2.14593l0.09502,-0.03167l-0.16223,-0.24141c0.10258,-0.48043 0.62944,-1.07003 0.30773,-1.44129c-0.02988,-0.03448 -0.06266,-0.06432 -0.09796,-0.09013c-0.25623,0.10657 -0.56945,0.15006 -0.94793,0.07255z" fill="#00ffff"/><path d="M346.3132,112.73562c-1.66787,-1.48884 -2.30668,-6.0096 0.24062,-7.35335c1.17025,-0.61733 2.67751,0.26798 3.88687,0.80468c2.09521,0.92983 4.50236,4.43615 6.14197,6.07577c0,0 1.23744,1.23744 0,2.47487c-1.23744,1.23744 -2.47487,0 -2.47487,0c-0.07188,-0.07188 -0.1438,-0.14371 -0.21577,-0.21551c-0.00098,0 -0.00196,0 -0.00294,0c-0.20784,0 -0.40721,-0.03623 -0.59215,-0.10272l-2.14546,-0.71515c-1.55444,-0.53752 -3.61126,0.12671 -4.83827,-0.96859z" fill="#00ffff"/><path d="M362.4157,106.66399c-0.5115,0.58678 -1.05565,1.08833 -1.78037,1.11848c-4.23986,0.17638 -5.57722,-9.72409 -2.23877,-11.32403c1.19315,-0.57181 2.70816,0.20364 3.88687,0.80468c2.78414,1.41967 2.74033,6.20767 3.65245,8.94402c0,0 0.5534,1.6602 -1.1068,2.21359c-1.6602,0.5534 -2.21359,-1.1068 -2.21359,-1.1068c-0.07196,-0.21589 -0.13824,-0.43264 -0.19979,-0.64995z" fill="#00ffff"/><path d="M405.82069,133.1396c-1.23744,-1.23744 0,-2.47487 0,-2.47487l0.72807,-0.72807c0.55722,-0.31559 1.33237,-0.40366 1.67165,-0.94678c0.17106,-0.27383 -0.68115,-0.03063 -0.94358,-0.2187c-0.60468,-0.43334 -1.10606,-1.00421 -1.57205,-1.5841c-2.53657,-3.15653 -4.44687,-5.72856 -8.16612,-7.55301c0,0 -1.56525,-0.78262 -0.78262,-2.34787c0.78262,-1.56525 2.34787,-0.78262 2.34787,-0.78262c4.17455,2.12073 6.45504,4.88161 9.30757,8.46455c0.73301,0.9207 3.4395,2.92509 3.30893,4.02176c-0.17169,1.44203 -1.79785,2.2811 -2.69678,3.42165l-0.72807,0.72807c0,0 -1.23744,1.23744 -2.47487,0z" fill="#00e0e0"/><path d="M395.62769,144.78873c-1.23744,-1.23744 0,-2.47487 0,-2.47487l0.10215,0.35556c-0.54695,-2.17747 -0.26615,-3.91588 -0.60193,-6.18774c-0.57175,-3.86844 -1.92467,-7.64997 -2.87281,-11.43579c0,0 -0.42444,-1.69775 1.27331,-2.12219c1.69775,-0.42444 2.12219,1.27331 2.12219,1.27331c0.97987,3.92682 2.37829,7.84559 2.95176,11.86248c0.33624,2.35519 -0.1436,3.91231 0.65104,6.21033l-1.15083,2.51891c0,0 -1.23744,1.23744 -2.47487,0z" fill="#00e0e0"/><path d="M377.31091,137.40753c1.01094,-0.9199 2.05285,-1.76559 3.29401,-2.59303c0.41627,-0.27751 2.68928,-1.60738 3.12244,-2.37622c1.28589,-2.28242 1.939,-4.17446 3.89156,-6.14197c0,0 1.23744,-1.23744 2.47487,0c1.23744,1.23744 0,2.47487 0,2.47487c-1.84149,1.82494 -2.08944,3.43253 -3.38915,5.50716c-1.92006,3.06483 -6.37653,4.9866 -8.98805,7.59812l-1.37188,-2.29871l-1.10299,-0.17617c0.21181,-0.21181 0.42021,-0.41902 0.62658,-0.6221l-0.22632,-0.37923c0,0 0.55631,-1.11262 1.66894,-0.99272z" fill="#00e0e0"/><path d="M365.50353,132.01127c-1.56525,-0.78262 -0.78262,-2.34787 -0.78262,-2.34787l1.32259,-2.12961c4.35084,-2.90056 9.32868,-6.15615 14.6294,-4.57253c0,0 1.6602,0.5534 1.1068,2.21359c-0.5534,1.6602 -2.21359,1.1068 -2.21359,1.1068c-3.76796,-1.4747 -8.50007,2.11026 -11.58115,4.16432l-0.13355,0.78268c0,0 -0.78262,1.56525 -2.34787,0.78262z" fill="#00e0e0"/></g></g></svg>