<svg version="1.1" xmlns="http://www.w3.org/2000/svg" xmlns:xlink="http://www.w3.org/1999/xlink" width="880.37838" height="572.57057" viewBox="0,0,880.37838,572.57057"><g transform="translate(200.18919,106.28528)"><g data-paper-data="{&quot;isPaintingLayer&quot;:true}" fill-rule="nonzero" stroke-linecap="butt" stroke-linejoin="miter" stroke-miterlimit="10" stroke-dasharray="" stroke-dashoffset="0" style="mix-blend-mode: normal"><path d="M-199.18919,465.28529v-570.57057h878.37838v570.57057z" fill="#000000" stroke="#000000" stroke-width="2"/><path d="M334.37992,150.77378c-0.79057,2.37171 -3.16228,1.58114 -3.16228,1.58114l-1.92353,-0.68632c-2.49532,-1.43705 -4.19063,-1.20695 -6.97967,-1.7251c-3.41108,-0.63371 -6.45499,-1.67482 -9.84882,-2.3046c-0.50781,3.89415 -1.41416,7.73756 -2.56284,11.56267c-1.14188,3.80243 -2.24206,7.7972 -5.19461,10.61471c-5.89479,5.62518 -14.4289,9.18179 -21.48584,13.10232c-1.87354,1.0403 -3.94583,2.37804 -6.01103,3.29817l0.03829,0.30882c0.20634,2.49706 0.40569,5.21373 0.44934,7.99437c5.01984,0.67911 10.42814,2.01334 15.24505,-0.04892c2.35386,-1.00775 2.60474,-3.73762 4.14602,-5.59109c1.4845,-1.78518 2.89846,-2.36905 4.70644,-3.67485c2.26949,-1.63913 4.47179,-3.9873 7.2149,-4.85772c3.58252,-1.13678 7.39267,0.15183 10.99687,0.13583c4.09678,0.00442 8.60578,-0.01605 11.6065,3.32565c2.57514,2.86776 3.15022,7.13191 5.05837,10.424c1.7022,2.93678 3.97897,4.91618 3.83125,8.63978c-0.13729,3.46081 -2.67679,5.55802 -4.39854,8.22079c-3.50918,5.42711 -7.4509,11.41679 -13.32343,14.42038c-3.16485,1.25121 -5.68359,1.25248 -8.94231,1.69728c-9.56914,1.30615 -20.06181,2.75215 -29.73229,0.98984c-6.62067,-1.20652 -12.88743,-4.57559 -19.35627,-6.335l-1.26589,-0.45932c-0.21598,0.16377 -0.43885,0.31785 -0.67138,0.45834c-0.9479,0.57267 -2.44586,1.07344 -3.80845,1.48587l-0.00066,0.50785c0.07046,0.72323 0.14091,1.44645 0.21137,2.16968c1.08364,3.9226 2.01488,8.62299 4.70995,11.8516c3.37761,4.04628 7.7134,6.94742 11.52455,10.51355c1.81023,1.69385 2.81068,3.82381 5.40169,4.41141c5.91193,1.34073 11.61768,0.18034 17.53007,0.1814c5.15037,0.51296 9.94223,1.86978 13.97872,5.32867c5.34897,4.58356 4.83943,14.50414 -0.90834,18.70837c-7.13624,5.21983 -18.91064,2.45463 -27.09102,2.45769c-4.62299,0.37441 -10.35783,0.29638 -14.66814,-1.73568c-3.93539,-1.8553 -7.45151,-4.99796 -11.35211,-7.05091c-4.23733,-2.23018 -8.95689,-3.71701 -12.96221,-6.37569c-2.19334,-1.45592 -2.14956,-1.94895 -4.33602,-3.15043c-3.50269,-1.92476 -7.29564,-2.83462 -10.75752,-4.91451c-2.29542,-2.01318 -3.64909,-4.35485 -5.76783,-6.47546c-1.21364,-1.21471 -2.77569,-2.02551 -4.10128,-3.11695c-1.99287,-1.64086 -3.7989,-3.91523 -5.87056,-5.40011c-1.00398,-0.71961 -2.14904,-1.27455 -3.18857,-1.94848c-4.56936,3.55682 -12.95696,5.84287 -14.69816,11.86524c-0.60667,2.09834 -0.05539,4.65481 0.32414,6.70686c0.30619,3.0387 0.88687,5.86739 -0.09633,8.8657c-2.77122,8.45094 -11.60583,15.40982 -20.74232,13.95607c-5.49167,-0.87381 -11.11854,-6.17314 -14.90473,-9.95574c0,0 -0.77613,-0.77612 -0.78559,-1.8141c-0.33973,-0.28636 -0.52677,-0.56691 -0.52677,-0.56691l-0.60527,-0.92264c-1.27956,-2.30732 -2.17828,-4.84669 -3.79964,-6.94435c-2.66168,-3.4436 -5.86702,-6.55384 -4.09435,-11.42748c0.40325,-1.10867 2.79378,-3.70252 3.63729,-4.66652c0.96209,-1.28279 2.36933,-3.2726 3.54367,-4.30529c2.11063,-1.85604 4.96365,-2.69351 7.11997,-4.3488c1.42449,-1.0935 2.43816,-2.70152 3.96413,-3.64828c2.46676,-1.53046 5.30277,-2.44206 7.84974,-3.8085c1.69013,-0.90676 2.65637,-2.85138 4.32811,-3.79163c0.79939,-0.4496 1.87113,-0.02758 2.72874,-0.35263c0.2436,-0.09233 0.48562,-0.1942 0.72625,-0.30451c-3.97645,-1.04756 -7.42292,-2.93585 -11.36294,-4.24569c-7.38458,-2.45497 -16.03742,-4.15563 -21.72333,-9.85265c-2.02166,-2.02561 -4.389,-5.24738 -5.35529,-7.98125c-1.14863,-3.24976 -0.21356,-5.29968 -3.32088,-7.49567c-0.93853,-0.68454 -2.14327,-1.1063 -2.81559,-2.05363c-1.54097,-2.17128 -1.22953,-4.56398 -1.24048,-6.98722c-0.02024,-4.47655 -0.1995,-9.37341 1.10365,-13.71237c0.519,-1.72808 1.67694,-3.20675 2.29986,-4.90015c1.43179,-3.8923 1.52893,-8.54174 6.09613,-10.42861c5.34691,-2.209 12.88691,2.26242 14.6362,7.54425c0.47662,1.4391 0.3578,4.45551 0.35407,5.9714c-0.47395,2.65722 -1.1247,5.18717 -0.993,7.90095c0.39362,8.11123 5.82778,14.9811 12.55911,19.24279c4.07408,2.57936 10.43912,1.80812 14.96765,1.39201c0,0 0.85529,-0.07775 1.60885,0.35917c0.32666,-1.20802 0.65411,-2.41186 1.38916,-3.3979c2.19408,-2.94328 6.26677,-4.52015 8.52964,-7.28761c1.3435,-1.64309 0.44514,-2.59313 1.03186,-4.57335c0.97275,-3.28312 1.52427,-3.49165 3.55214,-5.5266c0.52048,-1.58399 2.36471,-1.58398 2.36471,-1.58398l-0.24029,0.04855c0.51021,-0.09359 1.01614,-0.242 1.52437,-0.36104c-0.07289,-0.55403 0.02994,-0.99966 0.02994,-0.99966c0.03793,-0.16301 0.08051,-0.33803 0.12607,-0.52254l-0.19009,-0.66531c0,0 0,-1.15059 0.78057,-1.89064c0.15017,-0.79008 0.25041,-1.57076 0.22299,-2.22601c-0.09211,-2.20092 -1.07315,-2.70815 -1.68027,-5.03249c-0.49275,-1.88648 -0.92942,-3.78844 -1.47594,-5.66005c-0.40062,-1.37196 -0.74044,-2.71998 -1.08115,-4.05535c-6.72477,2.64306 -13.89138,2.99974 -20.5877,5.68573l-1.63791,0.55052c0,0 -2.3717,0.79057 -3.16227,-1.58114c-0.79057,-2.37171 1.58113,-3.16228 1.58113,-3.16228l1.3621,-0.44948c6.76869,-2.70054 13.99731,-3.0414 20.75,-5.75c0,0 0.13203,-0.05281 0.34571,-0.10176c-0.15668,-0.47796 -0.32323,-0.95605 -0.50259,-1.4348c-0.36084,-0.96317 -0.60106,-1.91808 -0.76185,-2.87122c-2.3705,0.28507 -4.77542,0.6496 -7.08876,0.72814c-5.50671,0.18696 -11.79612,-2.28373 -17.03241,-3.85461l-0.89966,-0.40849c0,0 -2.23606,-1.11803 -1.11803,-3.35411c1.11803,-2.23607 3.3541,-1.11804 3.3541,-1.11804l0.10034,0.09151c4.65839,1.39751 10.57387,3.87803 15.46759,3.64539c2.2663,-0.10774 4.58221,-0.45226 6.88178,-0.7235c-0.0106,-1.11818 -0.01088,-2.24909 -0.06463,-3.40278c-0.17397,-3.73403 -1.42128,-7.36995 -1.75311,-11.12454c0.26953,-2.99444 0.57458,-6.9816 2.04717,-9.68216c0.93755,-1.71935 2.97694,-2.55527 4.32864,-3.97234c1.20347,-1.26167 1.48275,-4.78074 1.38467,-6.36692c-0.30151,-4.87597 -5.52375,-5.06884 -7.81048,-8.29768c-0.65383,-0.92321 -0.7297,-2.14168 -1.09455,-3.21252l-0.10543,-2.21837c0,0 0,-2.45741 2.43639,-2.49945c0.19279,-0.47424 0.43261,-0.91509 0.79585,-1.26831c0.93455,-0.90877 2.32139,-1.20851 3.5554,-1.6286c5.0849,-1.73104 13.05058,-0.38106 17.28344,2.9517c2.0416,1.60745 4.10303,3.79747 6.07519,5.56323c0.80516,0.72088 1.76013,1.31113 2.39388,2.18652c1.06053,1.46488 0.25654,2.56648 1.96022,3.15379c3.71111,1.27933 8.02226,-0.46425 11.65011,-1.18431c6.49157,-0.54096 12.25036,-2.81824 18.38716,-4.67092c1.31313,-0.39643 3.22791,-0.35087 4.3963,-1.30234c0.5953,-0.48477 0.78521,-1.3453 1.34803,-1.86744c2.42606,-2.25064 5.65086,-3.79204 7.83391,-6.32705c0.55987,-0.65013 0.67689,-1.61152 1.25,-2.25c1.65503,-1.84382 7.19304,-5.49421 9.82489,-3.80501c4.7522,3.0501 1.11293,7.87265 -0.37631,11.14335c-0.97345,2.6796 -1.33383,4.77394 -1.85994,7.5296c-0.15613,0.81778 -0.47395,1.59641 -0.73101,2.38828c-0.09465,0.29158 -0.54689,0.6506 -0.32375,0.86081c1.2,1.13041 3.09193,1.32152 4.3002,2.44308c3.21655,2.98573 6.12431,7.08558 8.78682,10.5656c2.17753,2.84614 4.87768,5.44512 6.99157,8.23902c1.64891,2.17935 2.88874,5.05695 3.89593,7.95024c2.82085,-1.52383 5.77715,-3.02814 8.66902,-4.23148c1.72406,-0.7174 3.79951,-0.56607 5.38063,-1.55962c1.56696,-0.98465 2.71171,-2.55776 4.28984,-3.52441l0.51847,-0.62403c0,0 1.76777,-1.76776 3.53554,0c1.76776,1.76776 0,3.53553 0,3.53553l-1.48153,1.37597c-1.57157,0.91753 -2.64933,2.5399 -4.21016,3.47559c-1.83535,1.10026 -4.14454,1.11627 -6.11937,1.94038c-3.02607,1.2628 -6.13083,2.86167 -9.0494,4.46474c0.10105,0.34006 0.2,0.67413 0.2972,1.00081c0.19347,2.05514 0.24434,4.08905 0.17347,6.10606c1.7434,0.21183 3.514,0.26796 5.21649,0.69039c1.74086,0.43195 3.33316,1.40515 5.09931,1.718c3.25835,0.57718 5.52866,0.65644 8.52033,2.2749l1.07646,0.31368c0,0 2.37171,0.79057 1.58114,3.16228zM209.50186,142.80507c0.04572,0.63999 -0.08456,1.12747 -0.3035,1.49856c0.12081,0.85293 0.32023,1.69947 0.64521,2.53731c1.38153,3.56183 1.99577,7.02338 3.06731,10.70144c1.08247,3.71559 3.14225,7.88305 3.34378,11.80746c0.07464,1.4534 -0.17167,2.8805 -0.48979,4.28961c2.34856,2.22171 5.95982,3.05157 9.03004,3.97075c4.86498,1.7672 9.15569,2.20568 14.19389,3.16962c7.68741,1.4708 15.05307,2.28333 22.89488,1.95648c3.7478,-0.15621 8.49309,0.54485 12.10143,-0.63056c2.31026,-0.75256 4.68897,-2.37949 6.80901,-3.55794c5.53979,-3.07766 11.35289,-5.95503 16.52017,-9.60546c1.73207,-1.22362 4.17696,-2.34779 5.31219,-4.26516c1.17864,-1.99068 1.82784,-4.71232 2.48718,-6.91236c1.98613,-6.62719 3.29495,-13.32976 2.69006,-20.30688c-1.08706,-3.58258 -2.44284,-8.69035 -4.77382,-11.69629c-4.31005,-5.55807 -9.26343,-10.91887 -13.71376,-16.45421c-1.47062,-1.82915 -5.75496,-3.70695 -6.70765,-5.29808c-1.50312,-2.51044 0.01231,-4.47295 0.44524,-6.75091c0.57455,-3.0232 1.06982,-5.52983 2.14006,-8.4704c0.42951,-0.94646 0.82229,-1.91045 1.28853,-2.83936c0.18051,-0.35963 0.37384,-0.71332 0.57931,-1.05971c-0.88832,0.64126 -2.23994,0.91616 -2.91926,1.7374c-1.11043,1.34242 -2.16346,2.74808 -3.43418,3.93989c-1.88936,1.77204 -4.12449,3.23829 -5.98191,4.98306c-0.65539,0.61564 -0.92682,1.60088 -1.65197,2.13256c-1.74389,1.27864 -4.03132,1.58014 -6.1037,2.19766c-6.37962,1.90098 -12.37095,4.26726 -19.11284,4.82908c-4.41173,0.88981 -9.90309,2.84391 -14.34989,0.81568c-1.91342,-0.87273 -2.85195,-3.11073 -4.03978,-4.8462c-0.87724,-1.28169 -2.35296,-2.02837 -3.55107,-3.01671c-4.11807,-3.39702 -6.84381,-5.90912 -12.52206,-6.18078c-2.61561,-0.12514 -5.33965,-0.26832 -6.06552,2.43105c0,0 -0.23695,0.59236 -0.77068,1.0589c0.75821,1.07663 1.89762,0.76821 3.80136,2.34324c2.29143,1.89578 4.33933,5.51857 4.63766,8.44081c0.31617,3.09695 -0.59195,7.69493 -2.61534,10.13308c-1.14158,1.37559 -2.86077,1.38621 -3.67136,3.02766c-1.02307,2.0717 -1.24393,5.05025 -1.45283,7.31784c0.3467,3.68251 1.55213,7.19174 1.7469,10.87546c0.07595,1.43661 0.01134,2.87322 0.01708,4.29948c0.25218,0.33243 0.43588,0.78396 0.47967,1.39693zM262.13275,187.7301c-8.24318,0.34335 -16.02424,-0.48122 -24.10512,-2.04352c-5.19865,-1.00507 -9.7697,-1.4969 -14.8061,-3.33038c-1.34268,-0.4036 -2.66835,-0.80586 -3.95003,-1.26505c1.24717,5.19111 -2.82814,12.49134 -3.26328,17.14205c0.84931,8.81005 13.64871,8.16203 14.23783,17.75366c0.08424,1.37144 0.38645,2.89757 -0.25177,4.11438c-1.56486,2.98353 -3.83731,2.82653 -6.49851,3.12065c-5.62313,0.62149 -10.26392,-0.96365 -15.7339,-1.50086c-1.23634,-0.12142 -2.43047,-0.1913 -3.61887,-0.27961c1.80969,1.95327 3.59807,3.93445 5.13584,6.06967c1.3941,1.93574 2.13549,4.32013 3.49081,6.27125c0.23368,0.15048 0.46624,0.35849 0.69074,0.63911c0.17087,0.21359 0.29968,0.42251 0.39358,0.62522c1.0497,0.89506 2.48674,1.33746 3.61602,2.15841c2.16131,1.57122 4.04447,3.88249 6.12945,5.59989c1.42774,1.17604 3.0903,2.07555 4.39872,3.38305c1.96019,1.95882 3.14137,4.20125 5.23217,6.02454c3.26345,1.9546 6.92128,2.75751 10.24247,4.58549c1.67684,0.92293 3.07381,2.28423 4.66398,3.34957c3.84119,2.57341 8.45991,3.97806 12.53779,6.1243c3.83298,2.01736 7.29936,5.11376 11.1479,6.94909c3.54356,1.68989 8.55406,1.58869 12.33186,1.26432c4.37059,0.00139 8.85883,0.03294 13.22843,0.25095c3.65235,0.18223 7.94389,0.3456 11.18054,-1.79325c0.93811,-0.61993 1.77686,-2.60003 2.06563,-3.47728c2.56644,-7.79692 -6.45137,-10.87836 -12.49524,-11.48567c-6.14385,0.00131 -12.34312,1.30569 -18.46994,-0.3186c-3.67586,-0.97451 -5.01723,-3.16376 -7.5983,-5.58859c-3.94536,-3.70653 -8.51571,-6.74107 -11.97545,-10.98645c-3.25059,-3.98872 -4.48737,-9.318 -5.79005,-14.1484c-0.09621,-0.94344 -0.19241,-1.88688 -0.28862,-2.83032l-0.0028,-2.37197c-0.11564,-0.78387 0.12573,-1.3577 0.46482,-1.76658c0.29283,-0.44024 0.77003,-0.8347 1.54767,-0.95124c3.65567,-1.1433 5.18051,-2.84924 8.40427,-4.89977c2.14857,-1.36664 2.55127,-0.75311 4.13214,-2.69845c5.09701,-6.27211 4.38716,-16.37615 3.7577,-23.90369c-3.35262,0.38939 -6.9553,0.07963 -10.18238,0.21405zM284.90867,223.26549c9.19937,1.66769 19.16448,0.23009 28.26772,-1.01016c2.85595,-0.3891 4.81428,-0.18842 7.55769,-1.30272c4.88453,-2.36251 8.30803,-8.1495 11.17657,-12.57962c1.12235,-1.73334 3.45462,-3.55703 3.60146,-5.77921c0.13007,-1.96824 -2.28118,-4.3256 -3.16875,-5.86022c-1.66199,-2.87359 -2.49228,-9.00416 -5.71173,-10.51857c-2.0043,-0.94281 -4.49493,-0.73428 -6.62341,-0.73177c-2.9563,-0.01096 -6.59406,-1.27528 -9.50312,-0.36417c-2.07712,0.65055 -4.08756,2.91631 -5.7851,4.14228c-0.99158,0.71612 -2.95365,1.79095 -3.79355,2.82515c-2.2772,2.80399 -2.24272,5.09792 -5.85398,6.90891c-5.39448,2.70525 -11.76364,1.35924 -17.49448,0.55495c-0.38533,5.50497 -1.7156,10.89728 -5.11897,14.99635c-1.12594,1.3561 -2.70995,2.23617 -4.25311,3.13409c5.54555,1.78732 11.00861,4.55247 16.70277,5.58472zM205.23759,230.45532c-2.27206,-3.13519 -5.09785,-5.92956 -7.7052,-8.80989c-3.84079,2.02274 -7.14718,5.58813 -11.11645,7.16716c-0.70495,0.28044 -1.60537,-0.2162 -2.27126,0.14737c-1.63305,0.89164 -2.54903,2.79834 -4.1719,3.70838c-2.45547,1.37693 -5.22609,2.23937 -7.65025,3.6915c-1.39317,0.83453 -2.24435,2.36715 -3.53587,3.35171c-2.08765,1.59145 -4.84999,2.38668 -6.88002,4.15121c-0.73087,0.63528 -2.42876,2.99128 -2.95633,3.6947c-0.96449,1.10227 -2.26386,1.99684 -2.86272,3.33348c-0.73111,1.63183 0.69003,3.4099 1.61272,4.51802c2.54158,3.05237 4.07644,6.16645 5.99329,9.61014l0.39473,0.57736c0,0 0.4171,0.62565 0.45067,1.41944c0.15174,0.11431 0.23697,0.19954 0.23697,0.19954c2.09965,2.10177 3.95418,3.53647 6.40438,5.21168c1.81837,1.24322 3.39051,3.02158 5.69089,3.33259c6.83854,0.92455 13.11503,-4.27447 15.25767,-10.54393c0.73461,-2.14951 0.12064,-4.44644 -0.09632,-6.6343c-0.49654,-2.77468 -1.03068,-6.00398 -0.17587,-8.79314c2.38507,-7.78229 10.61492,-9.63613 16.19076,-14.20601c-0.94493,-1.70123 -1.65488,-3.53323 -2.80989,-5.12701zM189.01098,206.36568c0.06781,-1.09365 0.5413,-2.08825 1.08715,-3.06617c-4.76919,0.39305 -9.33289,0.44102 -14.01355,-0.90876c-3.23526,-0.93296 -5.43241,-3.12314 -7.93823,-5.24654c-2.41533,-2.04673 -5.24561,-4.88732 -6.97523,-7.53476c-3.8907,-5.9553 -3.37165,-13.79354 -2.15279,-20.35074c-0.0018,-0.55525 0.03957,-3.38203 -0.14593,-4.02861c-0.7902,-2.75427 -6.68309,-6.5058 -8.98004,-3.60369c-1.54868,1.95669 -1.47511,4.51678 -2.28763,6.71934c-0.58826,1.59461 -1.71242,2.97168 -2.20014,4.59985c-0.91543,3.05598 -0.89827,6.62896 -0.89636,9.78763c0.00189,3.13204 -0.99794,5.80629 1.94393,7.45915c5.52667,4.29791 4.43462,11.14632 9.32384,16.02309c5.05782,5.04494 13.23079,6.45987 19.77666,8.64735c4.20071,1.40378 7.82128,3.54923 12.19586,4.41897l1.12775,0.46538c0,0 0.72533,0.36267 1.14323,1.08799c1.46456,-1.10689 2.92219,-2.25769 4.42003,-3.16898c-3.34691,-2.75473 -5.72825,-6.46649 -5.42852,-11.30048zM210.47961,181.04612c-3.18665,3.12488 -1.91489,6.46236 -4.5227,10.00315c-2.09937,2.85046 -6.23719,4.40975 -8.47036,7.21239c-1.42656,1.79033 -0.49598,2.23278 -1.41864,4.42825c-0.51811,1.23283 -2.02278,2.38251 -2.06247,3.91083c-0.12309,4.74087 3.28503,7.60281 7.06411,9.51778c2.43848,0.46515 4.74412,0.37901 7.185,0.62685c4.12485,0.41884 7.92618,1.94887 12.14037,1.7404c0.04539,-0.00224 4.98988,-0.07298 5.12722,-0.6206c1.32859,-5.29753 -7.375,-8.0656 -10.26943,-10.3861c-3.23257,-2.5916 -3.8449,-5.3392 -4.24451,-9.24587c0.10724,-1.03149 0.07962,-2.08607 0.32171,-3.09447c0.96576,-4.02284 6.91308,-15.2663 -0.85031,-14.09261z" fill="#ffffff" stroke="none" stroke-width="0.5"/><g fill="#ffffff" stroke="none" stroke-width="0.5"><path d="M11.53788,344.18242c0.99807,-2.80042 3.79849,-1.80235 3.79849,-1.80235l1.53471,0.81899c1.12048,-0.08298 2.24719,-0.10477 3.36146,-0.24894c1.29212,-0.16719 6.13912,-1.05232 6.21204,-3.50452c0.01786,-0.60063 -0.79767,-0.90895 -1.09969,-1.42845c-0.67734,-1.16505 -1.30469,-2.36423 -1.82744,-3.60635c-1.05509,-2.50702 -1.83024,-5.1483 -3.14392,-7.53003c-1.07293,-1.94524 -3.20648,-4.74777 -3.19191,-7.09397c0.04219,-6.79523 6.49914,-8.76534 11.7525,-10.24355c0,0 2.86265,-0.80231 3.66496,2.06034c0.80231,2.86265 -2.06034,3.66496 -2.06034,3.66496c-2.30263,0.64253 -5.29893,1.08088 -6.96215,3.03553c-1.65426,1.94411 3.20366,7.80084 3.88542,9.41531c1.07408,2.54354 2.07426,5.11894 3.20145,7.6394c0.6329,1.4152 1.85578,2.77558 1.72246,4.32013c-0.21741,2.5189 -3.66116,6.80519 -5.97724,7.93034c-2.44651,1.18852 -6.34201,1.3052 -9.08698,1.51862l-3.98147,-1.14697c0,0 -2.80042,-0.99807 -1.80235,-3.79849z"/><path d="M56.03173,340.8204c0.51916,2.92728 -2.40811,3.44644 -2.40811,3.44644l-3.48313,0.56735c-2.70665,-0.49471 -5.85665,-0.81357 -8.2677,-2.33531c-1.20883,-0.76296 -2.26227,-1.81229 -3.07754,-2.98648c-5.25518,-7.56876 2.03323,-14.80613 9.07969,-16.8091c0,0 2.87629,-0.75197 3.62826,2.12432c0.75197,2.87629 -2.12432,3.62826 -2.12432,3.62826c-3.59742,0.81573 -9.77868,5.86118 -4.33041,9.01617c1.22689,0.71048 3.77448,1.1322 5.1362,1.41638l2.40062,-0.47615c0,0 2.92728,-0.51916 3.44644,2.40811z"/><path d="M73.08939,329.4064c-1.35349,1.57617 -2.86259,1.10504 -3.64884,0.67826c-0.99382,-0.08081 -2.24177,-0.11468 -2.9279,0.45637c-2.98135,2.4813 -1.56398,9.67981 -1.63651,12.88385c0,0 -0.07078,2.97211 -3.04289,2.90135c-2.97211,-0.07078 -2.90135,-3.04289 -2.90135,-3.04289c0.17982,-7.16006 -1.1334,-17.07129 8.08798,-19.08802c1.1612,-0.25396 2.37721,0.01881 3.56583,0.02823l2.18503,0.99055c0,0 2.25548,1.93683 0.31864,4.19231z"/><path d="M94.37732,339.09705c0.15041,1.97884 -1.12052,2.73713 -1.98224,3.02263c-0.16801,0.15206 -0.36517,0.29839 -0.59563,0.43638c-1.30245,0.77985 -2.33804,0.49642 -3.03972,0.03226c-1.88933,0.29287 -3.74161,0.49633 -5.59983,0.83201c-0.18786,0.49753 -0.382,0.99252 -0.58206,1.48477c0,0 -1.12419,2.75221 -3.87641,1.62802c-2.75221,-1.12419 -1.62802,-3.87641 -1.62802,-3.87641c0.04445,-0.1082 0.08811,-0.21636 0.131,-0.32444c-0.06104,-0.15029 -0.11524,-0.31324 -0.16142,-0.48988c-0.50766,-1.94183 0.63835,-2.91543 1.43659,-3.34308c0.59749,-2.09552 1.09153,-4.19725 1.78257,-6.34909c0.5615,-1.74843 0.25674,-4.36593 1.90876,-5.16789c6.93068,-3.36449 8.40297,4.56374 9.86045,9.43906c0.89469,0.16914 2.19941,0.74804 2.34593,2.67569zM85.43052,336.28162c-0.12051,0.33314 -0.22717,0.62182 -0.28609,0.83887c0.18589,-0.02663 0.37196,-0.0532 0.55825,-0.07994c-0.09475,-0.25044 -0.18564,-0.50261 -0.27217,-0.75894z"/><path d="M122.13364,331.62064c0.22531,2.96441 -2.73909,3.18972 -2.73909,3.18972l-0.59253,0.03024c-2.93037,-0.07359 -5.83759,0.14839 -8.74411,0.42197c0.82523,3.61712 1.67883,7.22693 2.68006,10.79883l0.16935,1.46631c0,0 0.22531,2.96441 -2.73909,3.18972c-2.96441,0.22531 -3.18972,-2.73909 -3.18972,-2.73909l0.03417,-0.31233c-1.09769,-3.91717 -2.01481,-7.88053 -2.91283,-11.84868c-1.6928,0.13372 -3.39052,0.2287 -5.09757,0.23723c0,0 -2.97292,0.01353 -2.98647,-2.95939c-0.01353,-2.97292 2.95939,-2.98647 2.95939,-2.98647c1.27058,-0.0052 2.53522,-0.05725 3.79606,-0.13722c-0.69419,-2.99606 -1.42279,-5.98325 -2.25556,-8.94363c0,0 -0.80231,-2.86265 2.06034,-3.66496c2.86265,-0.80231 3.66496,2.06034 3.66496,2.06034c0.92737,3.32039 1.72841,6.67314 2.49882,10.0337c3.38966,-0.32666 6.77667,-0.63816 10.20374,-0.56058l0.00036,-0.01483c0,0 2.96441,-0.22531 3.18972,2.73909z"/><path d="M147.91413,340.18183c1.31015,2.66871 -1.35856,3.97885 -1.35856,3.97885l-1.66015,0.80389c-4.56067,1.72818 -8.24049,2.52392 -12.98167,0.46759c-5.82265,-2.5254 -10.23561,-9.34111 -6.65033,-15.51233c0.82936,-1.42756 2.45329,-2.21009 3.67993,-3.31512c0,0 2.26491,-1.9258 4.19071,0.3391c1.9258,2.26491 -0.3391,4.19071 -0.3391,4.19071c-0.82709,0.64121 -1.84537,1.09243 -2.48127,1.92361c-2.01267,2.63075 1.94973,6.06124 4.00033,6.93412c3.23324,1.37628 5.34128,0.70036 8.40713,-0.56178l1.21413,-0.60719c0,0 2.66871,-1.31015 3.97885,1.35856z"/><path d="M172.50239,346.42296c-2.74103,1.15118 -3.89221,-1.58986 -3.89221,-1.58986l-0.86332,-2.13279c-0.15269,-0.59607 -0.86506,-3.91917 -1.48631,-4.74847c-0.99956,-1.33429 -1.56445,-0.42038 -2.63304,0.16394c-2.8493,1.55804 -4.4355,3.31324 -6.70673,5.62709c0,0 -1.65947,1.6906 -3.52486,0.57221c-2.00552,-0.42987 -2.17661,-2.68086 -2.17661,-2.68086c-0.2695,-3.68633 0.32152,-7.05087 0.38868,-10.71083c0.05559,-3.02961 -0.73436,-5.87963 -0.67516,-8.94404l-0.17254,-2.07543c0,0 -0.22531,-2.96441 2.73909,-3.18972c2.96441,-0.22531 3.18972,2.73909 3.18972,2.73909l0.18796,2.66761c-0.08897,3.03694 0.71275,5.80894 0.67672,8.84241c-0.01699,1.43088 -0.13404,2.8087 -0.24778,4.17753c3.91498,-3.2772 8.55074,-5.48946 13.17615,-1.37616c1.73402,1.54205 2.45314,5.3096 3.01729,7.43167l0.59282,1.33437c0,0 1.15118,2.74103 -1.58986,3.89221z"/><path d="M208.50363,319.24592c2.74103,-1.15118 3.89221,1.58986 3.89221,1.58986l0.95967,2.92876c-0.10995,5.10301 -1.3313,10.96217 -4.7704,15.00237c-1.79805,2.11232 -5.42026,4.33284 -7.64605,5.84454c-5.39225,3.66228 -11.60449,6.44861 -16.75029,0.36584c-1.22398,-1.44684 -2.45883,-5.72635 -3.07845,-7.54448c-2.33751,-6.85885 -1.32014,-14.00008 -0.77335,-21.12471c0,0 0.22806,-2.96419 3.19227,-2.73613c2.96419,0.22806 2.73613,3.19227 2.73613,3.19227c-0.59277,7.68555 -2.32088,17.68815 2.57536,24.50991c2.46511,3.43454 6.50122,-0.03114 8.74363,-1.57185c6.21788,-4.27215 9.77625,-8.11808 9.82589,-16.02575l-0.49647,-0.5384c0,0 -1.15118,-2.74103 1.58986,-3.89221z"/><path d="M221.35095,354.80761c-1.40985,-2.6174 1.20754,-4.02725 1.20754,-4.02725l2.26932,-1.19717c1.1519,-0.80769 4.31273,-2.8496 5.05285,-4.09657c0.62343,-1.05036 -2.56568,-6.30943 -2.85821,-6.82371c-3.53355,-6.21187 -12.20623,-9.56421 -8.10508,-18.35113c1.09638,-2.34904 5.48725,-4.79368 7.5165,-6.10127c0,0 2.50325,-1.6038 4.10706,0.89945c1.6038,2.50325 -0.89945,4.10706 -0.89945,4.10706c-0.06466,0.04116 -4.9645,2.96412 -5.44384,3.8284c-1.55781,2.80876 1.3071,4.8121 2.90313,6.41424c3.50325,3.51667 7.35802,8.31331 8.25905,13.39657c0.26803,1.51211 0.73499,3.19406 0.12924,4.60522c-1.34473,3.13267 -4.60175,5.10029 -7.22448,6.9738l-2.88637,1.57991c0,0 -2.6174,1.40985 -4.02725,-1.20754z"/><path d="M248.95698,339.30815c0.26308,0.24112 0.54406,0.45688 0.85959,0.62069c0.70373,0.36536 1.56089,0.28027 2.34134,0.42041c0,0 2.90413,0.63601 2.26813,3.54014c-0.63601,2.90413 -3.54014,2.26813 -3.54014,2.26813c-4.15614,-1.01329 -8.11861,-3.09555 -9.96312,-7.35467c-2.5868,-5.97314 1.60678,-13.03175 8.1704,-13.54757c6.50363,-0.51111 10.78775,4.91072 6.31464,10.61357c-0.91748,1.16972 -2.50824,1.59647 -3.76235,2.39471zM246.03899,334.0969c0.20215,-0.11297 0.33976,-0.16591 0.33976,-0.16591l2.66218,-1.01255c5.69729,-2.99467 -1.30213,-1.75064 -2.51657,0.03399c-0.25899,0.38059 -0.41378,0.76409 -0.48537,1.14449z"/><path d="M280.30992,329.45852c-1.93683,2.25548 -4.19231,0.31864 -4.19231,0.31864l0.59017,-0.37899c-0.69744,-0.01957 -4.56396,-0.23124 -5.30397,0.14516c-4.35579,2.2155 -4.17953,11.88133 -4.23347,15.77214c0,0 -0.044,2.97264 -3.01663,2.92864c-2.97264,-0.044 -2.92864,-3.01663 -2.92864,-3.01663c0.10072,-6.42959 0.5659,-17.33367 7.29194,-20.88226c2.34015,-1.23463 5.75162,-0.94355 8.33231,-0.89128l3.14194,1.81228c0,0 2.25548,1.93683 0.31864,4.19231z"/><path d="M321.33614,347.78614c0.22531,2.96441 -2.73909,3.18972 -2.73909,3.18972l-1.4822,0.11265c-4.10157,0.31174 -11.545,2.11641 -15.41824,0.06244c-2.06462,-1.09486 -5.00828,-2.08283 -5.48114,-4.37145c-0.48209,-2.33336 4.04736,-4.14901 4.94168,-6.32335c0.31848,-0.7743 0.71528,-5.65301 0.79398,-6.03433c0.3563,-1.72639 1.53188,-3.0853 0.82928,-4.93392c-1.8651,-4.90724 -9.5763,-3.99365 -13.50185,-4.02222c0,0 -2.97288,-0.02164 -2.95123,-2.99453c0.02164,-2.97288 2.99453,-2.95123 2.99453,-2.95123c6.64993,0.04842 16.16653,0.05708 19.00239,7.81862c1.60382,4.38953 0.2061,4.58175 -0.55088,8.28973c-0.55513,2.71926 0.03472,4.50849 -1.17905,7.23437c-0.35515,0.79759 -1.0989,1.89722 -1.9113,2.69065c0.37323,0.06539 0.74709,0.14481 1.12174,0.16452c3.62628,0.19086 7.24906,-0.28369 10.85947,-0.55811l1.4822,-0.11265c0,0 2.96441,-0.22531 3.18972,2.73909z"/><path d="M334.66656,347.5321c-1.03059,1.58937 -3.08825,1.13875 -3.08825,1.13875c-1.31656,-0.34449 -2.83828,-0.2481 -3.94968,-1.03347c-4.36272,-3.08291 -3.42506,-4.39464 -3.99321,-8.85618c-0.19204,-1.50813 -1.12147,-6.14809 -0.77807,-7.70868c0.88627,-4.02773 4.64418,-8.53561 8.54003,-9.89799c4.78081,-1.67185 13.44566,-0.47159 16.64801,3.87235c2.11167,2.86446 1.77216,5.23231 1.69978,8.35423c-0.06937,2.99199 0.14019,5.61717 -2.02214,8.2265c-1.00845,1.21693 -5.72474,3.19988 -7.34958,3.93576c-1.17225,0.52159 -2.3445,1.04319 -3.51674,1.56478zM331.13469,342.4958c0.66242,-0.48563 1.38219,-0.61327 1.38219,-0.61327l2.58224,-0.43459c0.94157,-0.43415 1.88314,-0.86829 2.8247,-1.30243c1.76336,-0.79586 3.97003,-0.97556 5.28825,-2.39155c0.79451,-0.85344 0.56791,-3.6466 0.58885,-4.49439c0.03069,-1.24293 0.41217,-3.4253 -0.47736,-4.59904c-1.76716,-2.33177 -7.55294,-2.59774 -10.0246,-1.85236c-5.43721,1.63971 -4.14949,7.3438 -3.75638,11.29521c0.27156,2.72964 -0.0668,3.81219 1.5921,4.39243z"/><path d="M361.16909,340.32162c0.4637,1.23824 1.09947,2.27739 1.97427,2.67967c2.12469,0.97707 3.58177,0.40177 5.77001,-0.00214c1.19323,-0.22025 3.32453,0.10924 3.47148,-1.0952c0.06871,-0.5632 -0.39387,-1.06422 -0.58568,-1.5982c-1.26364,-3.51755 -1.22808,-5.40894 -5.16406,-4.06563c-1.37128,0.25761 -2.75927,1.10585 -3.50847,2.2829l0.12152,-0.04291c0,0 -0.62363,1.52675 -2.07905,1.8415zM359.81888,332.89423c0.33489,-0.44232 0.70542,-0.84533 1.16486,-1.15039c1.18893,-0.7894 2.73135,-0.82859 4.09702,-1.24289c1.24773,-0.30707 2.46219,-1.02226 3.74317,-0.9212c5.32798,0.4203 7.71623,4.46714 8.72989,9.2301c0.3403,1.59895 1.04083,3.33472 0.50288,4.87843c-2.10189,6.03168 -13.00629,7.00242 -17.76069,4.53282c-3.28109,-1.70431 -4.22861,-4.81126 -5.18898,-8.0585c-1.73398,-5.86298 -2.40024,-15.24891 1.57361,-20.34871c1.5726,-2.01819 4.51085,-3.80838 6.54621,-5.21721c0,0 2.44707,-1.6883 4.13536,0.75877c1.6883,2.44707 -0.75877,4.13536 -0.75877,4.13536c-1.39089,0.95619 -4.05262,2.59098 -5.27343,4.02945c-1.78116,2.09871 -1.76424,6.26714 -1.51114,9.37395z"/><path d="M382.65657,319.78984c-0.72242,-0.12318 -2.67406,-0.68082 -2.53659,-3.10319c0.16845,-2.96818 3.13664,-2.79973 3.13664,-2.79973c5.34214,0.31379 13.94988,1.12713 15.90083,7.59986c0.49162,1.63107 0.04767,3.42516 -0.23367,5.10532c-0.22679,1.3543 -0.62611,2.70747 -1.27709,3.91652c-0.56861,1.05607 -1.63977,1.76338 -2.3149,2.75474c-0.00602,0.00885 -0.01202,0.0177 -0.01802,0.02657c0.02437,0.01112 0.04858,0.02221 0.07262,0.03329c3.27857,1.75558 6.44792,2.53552 7.57159,6.68893c2.00063,7.39489 -7.6909,13.91896 -13.99285,9.35225c-3.54882,-2.57167 -2.94957,-8.47343 -1.33931,-13.37462c-5.21092,-3.15639 -9.66184,-7.74567 -6.36694,-14.37573c0.34225,-0.68867 0.85891,-1.26364 1.39765,-1.82422zM393.24378,338.88247c-0.21763,0.96279 -0.41071,1.91454 -0.62714,2.79928c-0.23137,0.94585 -0.94331,2.44678 -0.09215,2.91977c1.46343,0.81323 5.66127,-0.76834 4.76112,-2.80669c-0.80834,-1.83043 -2.31651,-2.14869 -4.04183,-2.91237zM389.51845,320.54062c-0.09041,0.19586 -0.1635,0.31048 -0.1635,0.31048l-1.05044,1.59179c-0.15992,0.17816 -2.58703,2.44018 -2.4428,3.44416c0.31274,2.17678 2.02524,3.71017 4.03578,4.88197c0.16395,-0.28769 0.3259,-0.55497 0.48385,-0.79913c2.71661,-4.1993 5.00069,-6.76806 -0.86291,-9.42927z"/><path d="M448.96536,342.2113c1.15118,2.74103 -1.58986,3.89221 -1.58986,3.89221l-1.99865,0.82487c-7.58756,2.36379 -13.8545,2.97996 -20.76789,2.08396l-0.0156,0.44829l-5.34515,-0.18607c-1.51137,-0.03256 -2.77987,-1.20836 -2.89683,-2.7471c-0.06807,-0.89559 0.26807,-1.72861 0.85455,-2.31988l2.20203,-2.24334l0.03669,0.03602l0.07893,-0.1476c2.39321,-1.96609 6.13264,-4.14719 7.9566,-6.69192c3.07279,-4.28705 0.66291,-12.84758 -4.14208,-14.45601c-6.13457,-2.05351 -12.82658,0.37752 -18.86496,1.65452c0,0 -2.90862,0.61513 -3.52375,-2.29351c-0.61513,-2.90862 2.29351,-3.52375 2.29351,-3.52375c7.03076,-1.48688 14.95687,-4.18832 22.04388,-1.4548c8.48281,3.27188 12.26588,15.63182 7.08733,23.45041c-1.27875,1.93067 -3.47793,3.66333 -5.61362,5.25616c1.54197,-0.03441 3.14352,0.21521 5.47288,0.03583c3.90146,-0.30044 7.66324,-1.41621 11.37126,-2.57688l1.46852,-0.63128c0,0 2.74103,-1.15118 3.89221,1.58986z"/><path d="M464.90599,339.76647c-2.93054,-0.50038 -2.43016,-3.43094 -2.43016,-3.43094l0.63015,-2.3063c2.64749,-4.13919 4.36525,-8.48303 6.14257,-13.05185c0.42092,-1.08205 0.79699,-2.18584 1.30998,-3.22741c0.1248,-0.2534 0.8474,-0.71374 0.58263,-0.61534c-5.21323,1.93726 -11.79179,0.85784 -17.44878,0.9098c-4.04918,0.03719 -7.95653,0.39118 -12.01476,-0.02565c0,0 -2.95689,-0.3086 -2.64829,-3.26551c0.3086,-2.95689 3.26551,-2.64829 3.26551,-2.64829c7.17811,0.76246 14.78918,0.1953 22.00974,0.07316c0.71333,-0.01207 9.79698,-0.36231 10.50186,0.27465c1.50736,1.36211 1.66934,3.82966 1.6712,5.86128c0.00153,1.67753 -1.08826,3.17387 -1.6615,4.75043c-1.81004,4.97806 -3.85335,9.68989 -6.69672,14.16151l0.21751,0.11028c0,0 -0.50038,2.93054 -3.43094,2.43016z"/></g></g></g></svg>