<svg xmlns="http://www.w3.org/2000/svg" xmlns:xlink="http://www.w3.org/1999/xlink" version="1.1" width="92.07138612813638" height="72.54538515157388" viewBox="-0.2726925757869437 -0.5226925757869437 92.07138612813638 72.54538515157388">
  <!-- Exported by Scratch - http://scratch.mit.edu/ -->
  <path id="ID0.5443468582816422" fill="#000000" stroke="#000000" stroke-width="1.1585145573557825" d="M 49.3982 17.6738 C 52.6391 17.4338 55.9231 19.8636 57.9297 23.041 C 60.2172 26.6566 61.3229 31.5876 61.5261 35.9855 C 61.7372 40.4669 61.7639 46.2446 58.7435 48.9617 C 55.4412 52.5741 50.128 51.8941 45.6312 51.8978 C 41.294 51.9029 36.1908 52.7017 32.7289 49.4352 C 29.9195 46.4233 29.3709 40.5951 29.7363 35.9855 C 30.1048 31.3767 32.0442 26.0877 35.1702 23.041 C 39.0958 19.2075 44.411 17.4344 49.3982 17.6738 Z "/>
  <path id="ID0.37750169076025486" fill="#FFFFFF" stroke="#000000" stroke-width="0.8471974517271978" d="M 59.8166 29.696 C 61.1559 29.696 62.3692 30.2341 63.2478 31.1041 C 64.1264 31.9735 64.6704 33.1747 64.6704 34.4999 C 64.6704 35.825 64.1264 37.0263 63.2478 37.8957 C 62.3692 38.7657 61.1559 39.3038 59.8166 39.3038 C 58.4774 39.3038 57.2641 38.7657 56.3854 37.8957 C 55.5068 37.0263 54.9628 35.825 54.9628 34.4999 C 54.9628 33.1747 55.5068 31.9735 56.3854 31.1041 C 57.2641 30.2341 58.4774 29.696 59.8166 29.696 Z "/>
  <path id="ID0.37750169076025486" fill="#FFFFFF" stroke="#000000" stroke-width="1.1104878126595163" d="M 49.4339 28.2129 C 51.4221 28.211 53.224 28.8832 54.5294 29.9714 C 55.8349 31.0589 56.6439 32.5625 56.6456 34.222 C 56.6472 35.8816 55.841 37.3867 54.5377 38.4768 C 53.2343 39.5675 51.4337 40.2432 49.4455 40.2451 C 47.4573 40.2471 45.6554 39.5749 44.3499 38.4867 C 43.0445 37.3991 42.2354 35.8955 42.2338 34.236 C 42.2322 32.5765 43.0383 31.0713 44.3417 29.9812 C 45.645 28.8905 47.4456 28.2148 49.4339 28.2129 Z "/>
  <path id="ID0.234124637208879" fill="#000000" stroke="black" stroke-width="1.178983154000629" stroke-linecap="round" d="M 59.8693 30.3284 C 60.2323 30.3284 60.5609 30.7773 60.7989 31.5033 C 61.0372 32.2292 61.1845 33.2314 61.1845 34.337 C 61.1845 35.4427 61.0372 36.4449 60.7989 37.1708 C 60.5609 37.8967 60.2323 38.3457 59.8693 38.3457 C 59.5062 38.3457 59.1776 37.8967 58.9397 37.1708 C 58.7013 36.4449 58.554 35.4427 58.554 34.337 C 58.554 33.2314 58.7013 32.2292 58.9397 31.5033 C 59.1776 30.7773 59.5062 30.3284 59.8693 30.3284 Z "/>
  <path id="ID0.234124637208879" fill="#000000" stroke="black" stroke-width="1.5453851515738875" stroke-linecap="round" d="M 49.0253 28.6743 C 49.5642 28.6737 50.0526 29.2355 50.4068 30.1443 C 50.7615 31.0531 50.9814 32.3079 50.9828 33.6926 C 50.9841 35.0772 50.7666 36.3325 50.4136 37.242 C 50.0612 38.1514 49.5739 38.7141 49.035 38.7147 C 48.4961 38.7152 48.0077 38.1534 47.6535 37.2446 C 47.2988 36.3359 47.0789 35.081 47.0775 33.6964 C 47.0762 32.3117 47.2937 31.0564 47.6467 30.147 C 47.999 29.2375 48.4864 28.6748 49.0253 28.6743 Z "/>
  <path id="ID0.033297700341790915_9_" fill="none" d="M 0.5 0.25 L 91.026 0.25 L 91.026 71.25 L 0.5 71.25 L 0.5 0.25 Z " stroke-width="0.7653684782999252"/>
</svg>