<svg version="1.1" width="221" height="235" viewBox="-1 -1 221 235" xmlns="http://www.w3.org/2000/svg" xmlns:xlink="http://www.w3.org/1999/xlink">
  <!-- Exported by Scratch - http://scratch.mit.edu/ -->
  <path id="ID0.3418219964951277" fill="#FFFF00" stroke="#CCCC00" stroke-width="2" d="M 246.500 104.500 L 334 104.500 L 334 291.500 L 246.500 291.500 L 246.500 104.500 Z " transform="matrix(0.6703910827636719, 0, 0, 1, -77.1, -103.5)"/>
  <g id="ID0.7602356765419245" transform="matrix(1, 0, 0, 1, -217.5, -45.6)">
    <path id="ID0.04938193038105965" fill="#7F7F7F" stroke="#7F7F7F" stroke-width="2" stroke-linecap="round" d="M 220.500 191.500 L 304.500 179 L 304.500 204.500 L 220.500 191.500 Z " transform="matrix(1, 0, 0, 1, 0.5, -0.5)"/>
    <path id="ID0.04938193038105965" fill="#7F7F7F" stroke="#7F7F7F" stroke-width="2" stroke-linecap="round" d="M 220.500 191.500 L 304.500 179 L 304.500 204.500 L 220.500 191.500 Z " transform="matrix(1, 0, 0, 1, 0, -28.3)"/>
    <path id="ID0.04938193038105965" fill="#7F7F7F" stroke="#7F7F7F" stroke-width="2" stroke-linecap="round" d="M 220.500 191.500 L 304.500 179 L 304.500 204.500 L 220.500 191.500 Z " transform="matrix(1, 0, 0, 1, 1, 28.2)"/>
  </g>
</svg>