<svg version="1.1" xmlns="http://www.w3.org/2000/svg" xmlns:xlink="http://www.w3.org/1999/xlink" width="591.59159" height="445.58559" viewBox="0,0,591.59159,445.58559"><g transform="translate(55.7958,42.7928)"><g data-paper-data="{&quot;isPaintingLayer&quot;:true}" fill-rule="nonzero" stroke="none" stroke-linecap="butt" stroke-linejoin="miter" stroke-miterlimit="10" stroke-dasharray="" stroke-dashoffset="0" style="mix-blend-mode: normal"><path d="M-55.79579,402.7928v-445.58559h591.59159v445.58559z" fill="#000000" stroke-width="0"/><path d="M34.19239,198.15771c1.0756,-2.25679 3.33238,-1.18119 3.33238,-1.18119l0.47267,0.34089c4.90885,0.76679 9.78737,1.27259 14.7344,1.72416c3.6664,0.33468 9.30164,1.95611 12.94581,1.00983c2.94571,-0.76491 3.77568,-2.09587 5.73006,-4.08171c2.43632,-3.1361 3.01935,-7.61474 1.27396,-11.34106c-0.08056,-0.17199 -3.37212,-3.99979 -3.58083,-4.24374c-4.52371,-5.28728 -9.64008,-10.3059 -13.85285,-15.80755c-1.61288,-2.10633 -5.94748,-7.292 -6.12312,-9.90617c-0.10002,-1.48858 1.34975,-2.70359 2.35452,-3.80645c0.86538,-0.94985 1.91565,-1.85459 3.14468,-2.22955c1.46196,-0.44603 3.05533,-0.10663 4.58366,-0.12829c2.98344,-0.04229 5.97049,-0.1947 8.93571,-0.52658c0,0 2.48471,-0.27608 2.76079,2.20863c0.27608,2.48471 -2.20863,2.76079 -2.20863,2.76079c-3.86398,0.42637 -8.77561,-0.36265 -12.49039,0.42887c-0.51139,0.10896 -0.77053,0.70989 -1.19028,1.02167c-0.27852,0.20688 -1.01991,0.20417 -0.8967,0.52851c0.98828,2.6014 3.40905,4.3994 5.10011,6.60945c4.15322,5.42787 9.21888,10.38001 13.68171,15.59614c0.83423,0.97504 3.91132,4.50704 4.2622,5.27517c2.64543,5.7912 1.63916,11.90669 -1.97726,16.83618c-2.98773,2.95271 -3.83603,4.44463 -8.35856,5.67195c-1.91403,0.51943 -7.8769,-0.27927 -9.58099,-0.44203c-6.69916,-0.63984 -13.36631,-1.18102 -20.01885,-2.21799l-1.85299,-0.76753c0,0 -2.25679,-1.0756 -1.18119,-3.33238z" fill="#ffffff" stroke-width="0.5"/><path d="M137.92104,178.24253c-1.76777,1.76777 -3.53553,0 -3.53553,0l0.29742,0.01155c-3.65047,-1.66297 -6.35651,1.00598 -8.27138,4.32232c-1.39991,2.42448 -0.55631,4.95487 -0.76944,7.62233c-0.38339,4.79832 -1.94244,9.66966 -4.05073,13.94569c0,0 -1.11803,2.23607 -3.3541,1.11803c-0.8118,-0.4059 -1.18152,-0.95916 -1.32315,-1.49929c-0.44829,0.13761 -0.81004,0.13761 -0.81004,0.13761l-1.239,-0.17881c-4.49529,1.77447 -9.89187,3.1644 -14.7341,3.42491c-3.33594,0.17947 -6.37496,0.50191 -9.24541,-1.49152c-11.19435,-7.77412 -5.36094,-27.81652 6.84651,-30.54832c0,0 2.45145,-0.49029 2.94174,1.96116c0.49029,2.45145 -1.96116,2.94174 -1.96116,2.94174c-8.20723,1.338 -12.22836,16.38999 -5.07463,21.47121c1.7197,1.22149 4.39493,0.79162 6.17329,0.67596c4.32441,-0.28126 9.19198,-1.45015 13.19681,-3.07753l3.09596,-0.17881c0,0 1.26847,0 1.99832,0.90354c1.34305,-3.13764 2.30759,-6.62706 2.55228,-9.96004c0.04319,-0.5883 -0.07429,-5.72105 0.03882,-6.25612c1.07029,-5.06327 6.8449,-11.6103 12.43712,-11.22855c1.20782,0.08245 2.27284,0.83472 3.40926,1.25208l1.38116,1.09529c0,0 1.76777,1.76777 0,3.53553z" fill="#ffffff" stroke-width="0.5"/><path d="M178.48772,186.736c1.11803,2.23607 -1.11803,3.3541 -1.11803,3.3541l-2.20177,0.8058c-2.88246,-0.0045 -5.52771,0.31144 -8.23287,0.80698c0.04441,0.86144 0.14025,1.7147 0.35254,2.54986c0.50843,2.00017 1.47076,3.85794 2.12399,5.81561l0.64065,-0.20582c0,0 2.08013,1.38675 0.69338,3.46688c-1.38675,2.08013 -3.46688,0.69338 -3.46688,0.69338l-2.61057,-2.3733c-0.68382,-2.05366 -1.69273,-4.00398 -2.21097,-6.10554c-0.25251,-1.02398 -0.45334,-2.07599 -0.61269,-3.14737c-0.01858,-0.00557 -0.03718,-0.01139 -0.0558,-0.01745c-0.73925,0.68426 -1.79314,0.68426 -1.79314,0.68426h-0.54187c-2.42899,-0.00603 -4.83263,0.30463 -7.22722,0.73078c0.32662,1.86832 1.17477,3.62749 1.55062,5.49072l-4.76109,1.71619c0,0 -1.28971,-1.28971 -0.56432,-2.76752c-0.26704,-1.24306 -0.52084,-2.38928 -0.72922,-3.54987c-1.20696,0.24842 -2.41423,0.49408 -3.6239,0.71104c-1.03245,1.35599 -2.16397,2.67245 -3.46816,3.98074c0,0 -1.76777,1.76777 -3.53553,0c-1.76777,-1.76777 0,-3.53553 0,-3.53553c0.72639,-0.7239 1.38959,-1.44919 2.00674,-2.18305c-0.00154,-0.01015 -0.00304,-0.02034 -0.0045,-0.03059c-0.35355,-2.47487 2.12132,-2.82843 2.12132,-2.82843c0.01909,-0.00273 0.03817,-0.00546 0.05725,-0.00821c1.24527,-1.81145 2.35598,-3.72157 3.55771,-5.8246l0.01952,-0.0193l-0.00596,-0.00357l1.60204,-2.67006c0.43183,-0.74893 1.24069,-1.25305 2.16731,-1.25305c1.0731,0 1.98829,0.67611 2.34282,1.62559l1.06211,2.65528l-0.06681,0.02672c0.07121,0.14055 0.13824,0.28344 0.2005,0.42899c0.39915,0.93306 0.42955,1.93469 0.34255,2.9619c2.29883,-0.37983 4.61024,-0.64906 6.95622,-0.65417h0.54187c0,0 0.42286,0 0.92076,0.17391c0.15641,-0.14012 0.32209,-0.25303 0.47981,-0.34303c-0.23502,-4.02751 -0.10748,-8.15341 -0.10748,-11.96137c0,0 0,-2.5 2.5,-2.5c2.5,0 2.5,2.5 2.5,2.5c0,3.65869 0.22486,7.12327 0.49914,10.72606c2.74646,-0.46827 5.46354,-0.75891 8.38013,-0.76305l-0.03429,-0.27794c0,0 2.23607,-1.11803 3.3541,1.11803z" fill="#ffffff" stroke-width="0.5"/><path d="M203.13214,193.06576c0.20978,-0.73649 0.7878,-1.75116 2.38049,-1.75116c2.5,0 2.5,2.5 2.5,2.5l-1,2.54187c-4.14907,3.09573 -7.10059,6.96921 -12.92092,7.00209c-8.24302,0.04657 -17.04462,-7.76211 -12.44994,-16.15738c0.72753,-1.32932 1.69106,-2.57531 2.874,-3.52244c0.92538,-0.74091 2.18028,-0.93142 3.27041,-1.39713c0,0 2.32119,-0.92848 3.24967,1.39272c0.92848,2.32119 -1.39272,3.24967 -1.39272,3.24967c-0.7161,0.25678 -1.53643,0.31829 -2.14829,0.77035c-6.3878,4.71947 1.73251,10.62144 6.68016,10.66491c3.74093,0.03286 6.32135,-3.05162 8.95713,-5.2935z" fill="#ffffff" stroke-width="0.5"/><path d="M235.89166,202.01124c-2.23607,1.11803 -3.3541,-1.11803 -3.3541,-1.11803l-1.34767,-3.28551c0,-2.7059 1.06932,-7.66262 -0.67084,-10.00304c-0.85495,-1.14986 -2.8534,-2.72423 -4.10406,-3.58456c-0.91388,-0.62866 -1.72849,-1.50328 -2.79612,-1.80421c-0.3304,-0.09313 -0.38728,0.56692 -0.57586,0.85375c-0.65098,0.99015 -1.26606,2.00437 -1.94277,2.97711c-2.35186,3.38073 -4.1856,7.25432 -6.02725,11.01485c-0.19039,1.06705 -0.39264,2.1348 -0.60646,3.20387c0,0 -0.49029,2.45145 -2.94174,1.96116c-2.45145,-0.49029 -1.96116,-2.94174 -1.96116,-2.94174c0.04132,-0.20661 0.08222,-0.41318 0.1227,-0.61969c-0.46892,-1.05232 0.09268,-2.17553 0.09268,-2.17553c0.16588,-0.33155 0.33105,-0.66452 0.49587,-0.99852c1.25674,-7.19726 1.96783,-14.3679 1.94955,-21.72573v-1.08374c0,0 0,-2.5 2.5,-2.5c2.5,0 2.5,2.5 2.5,2.5v1.08374c-0.00707,3.24703 -0.13943,6.46017 -0.38889,9.6559c0.06066,-0.08778 0.12166,-0.17526 0.183,-0.26243c1.19418,-1.69713 3.32194,-5.96194 6.1513,-5.9228c2.13173,0.02949 3.98645,1.53927 5.8738,2.53075c7.571,3.97726 7.14624,10.53381 7.14624,17.84086l0.81981,1.04945c0,0 1.11803,2.23607 -1.11803,3.3541z" fill="#ffffff" stroke-width="0.5"/><path d="M265.11835,175.60037c2.5,0 2.5,2.5 2.5,2.5v0.54187c0,0.24383 0.01536,6.14973 -0.04511,6.43334c-0.49732,2.33246 -2.32077,4.16815 -3.55023,6.2117c-1.41155,2.34622 -2.33094,4.98704 -3.90945,7.22434c-1.74607,2.47479 -4.19152,5.65762 -7.85868,5.35687c-0.76392,-0.06265 -4.97248,-4.21858 -5.78056,-5.11683c-5.1392,-5.71266 -8.06501,-11.63607 -6.56597,-19.51598c0,0 0.49029,-2.45145 2.94174,-1.96116c2.45145,0.49029 1.96116,2.94174 1.96116,2.94174c-1.32723,6.23205 1.33725,10.70142 5.35518,15.16371c0.65843,0.73125 1.46837,1.32212 2.08919,2.08556c0.35153,0.43228 0.25142,1.37107 0.80017,1.46753c1.46265,0.25709 2.1456,-2.08367 2.97872,-3.31305c1.45615,-2.14873 2.34246,-4.63782 3.67673,-6.86428c1.23192,-2.05567 2.54498,-2.34795 2.95221,-4.6257c0.32196,-1.80077 -0.04511,-3.65847 -0.04511,-5.4878v-0.54187c0,0 0,-2.5 2.5,-2.5z" fill="#ffffff" stroke-width="0.5"/><path d="M272.16266,194.02395c1.47327,0 2.07833,0.86821 2.32682,1.58134c0.50067,-0.75792 0.65874,-3.69161 0.59671,-4.3447c-0.22056,-2.32225 -2.19503,-3.58571 -2.17123,-6.04248c0.02663,-2.74902 1.74886,-5.10567 3.06454,-7.32024c0,0 1.28624,-2.14373 3.42997,-0.85749c2.14373,1.28624 0.85749,3.42997 0.85749,3.42997c-0.3468,0.57128 -2.37284,3.60614 -2.35416,4.6009c0.03921,2.0877 1.97998,3.79869 2.16373,5.87866c0.30031,3.39936 -1.53121,9.55101 -5.56917,10.23523c-1.44281,0.24448 -2.56314,-1.41288 -3.8447,-2.11932l-1,-2.54187c0,0 0,-2.5 2.5,-2.5zM274.13812,195.7591l-0.47546,-0.69328c0.17676,0.40809 0.33482,0.62386 0.47546,0.69328z" fill="#ffffff" stroke-width="0.5"/><path d="M285.32553,189.86942c-0.46957,2.59935 6.54362,4.44937 7.67689,4.82469c0,0 2.37171,0.79057 1.58114,3.16228c-0.79057,2.37171 -3.16228,1.58114 -3.16228,1.58114c-4.49952,-1.50857 -12.56377,-4.50553 -10.85035,-11.09079c0.50144,-1.92723 3.4121,-4.68397 5.26409,-5.74393c1.38712,-0.7939 2.83984,-2.57721 4.34248,-2.03276c3.01406,1.09207 3.91915,8.03524 2.1765,10.13549c-0.96561,1.16376 -2.98474,0.48816 -4.47712,0.73223l-2.30964,-1.2741c0,0 -0.10684,-0.10684 -0.24172,-0.29425zM288.61106,186.73175c-0.07784,0.08723 -0.16287,0.17583 -0.25352,0.26524c0.16522,0.19403 0.32483,0.32194 0.46093,0.17301c0.12981,-0.14205 -0.01679,-0.28452 -0.20742,-0.43825z" fill="#ffffff" stroke-width="0.5"/><path d="M309.04411,187.92262c-2.23607,1.11803 -3.3541,-1.11803 -3.3541,-1.11803l0.40796,-0.05804c-0.6166,-0.43534 -1.14835,-1.02729 -1.84979,-1.30602c-2.3728,-0.94289 -1.40763,5.19272 -1.40828,5.66473c-0.00467,3.38142 -0.47138,6.39556 -1.13229,9.70208c0,0 -0.49029,2.45145 -2.94174,1.96116c-2.45145,-0.49029 -1.96116,-2.94174 -1.96116,-2.94174c0.59799,-2.98811 1.03971,-5.66655 1.03519,-8.7215c-0.00116,-0.78072 -0.03159,-5.80899 0.12829,-6.20927c1.24836,-3.12545 3.65339,-4.83887 7.13335,-4.3821c1.34334,0.17632 2.37927,1.2968 3.56891,1.9452l1.4917,2.10944c0,0 1.11803,2.23607 -1.11803,3.3541z" fill="#ffffff" stroke-width="0.5"/><path d="M330.75321,196.48966c1.11803,2.23607 -1.11803,3.3541 -1.11803,3.3541l-2.49494,1.21938c-3.27875,1.08522 -9.07899,3.32093 -12.35983,0.86322c-1.52203,-1.14017 -3.11984,-3.12649 -2.75903,-4.99367c0.48253,-2.49707 5.41519,-2.72882 7.15111,-3.67648c2.99955,-1.63748 3.2768,-2.44922 2.14664,-5.01557c-0.54703,-1.24218 -0.55832,-2.99012 -1.72109,-3.69029c-1.16759,-0.70308 -2.72286,-0.16362 -4.08577,-0.15689c0,0 -2.5,0 -2.5,-2.5c0,-2.5 2.5,-2.5 2.5,-2.5c5.8594,0.02412 8.34598,1.37421 10.44924,6.99022c0.45017,1.20203 1.31155,2.3552 1.26255,3.63783c-0.13237,3.46505 -2.7037,5.78439 -5.38109,7.45635c0.21939,-0.03084 0.43716,-0.07271 0.65285,-0.12897c1.04231,-0.27188 2.04219,-0.68611 3.06328,-1.02917l1.84002,-0.9481c0,0 2.23607,-1.11803 3.3541,1.11803z" fill="#ffffff" stroke-width="0.5"/><path d="M354.1183,196.55457c1.86408,1.21264 4.06971,1.96636 6.22776,2.3785c0.77861,0.1487 1.5867,0.05954 2.378,0.01283c0.48532,-0.02865 1.80478,-0.1946 1.38863,-0.44594c-1.55164,-0.93716 -6.28951,-2.74967 -8.27255,-2.73777c-0.6305,0.00378 -1.1602,0.46012 -1.72184,0.79239zM350.50707,193.3023c0.9822,-1.34003 2.28077,-2.25593 4.87408,-2.51901c1.67432,-0.16985 3.28323,0.75125 4.89664,1.22989c4.12453,1.2236 12.11747,3.52572 7.55037,9.90261c-1.53142,2.13827 -6.11017,2.27922 -8.28301,1.95272c-2.1257,-0.31942 -4.37439,-1.03587 -6.42304,-2.08757c-1.12427,0.08445 -1.98858,-0.77987 -1.98858,-0.77987l-0.67083,-0.87129c-0.77422,-0.57974 -1.48386,-1.21643 -2.10312,-1.90511c-0.18802,-0.2091 -0.37882,-0.42301 -0.56953,-0.64165c-1.38139,1.9032 -3.87021,2.60957 -5.88142,3.42961l-1.47035,0.17881c0,0 -0.47826,0 -1.01641,-0.20918c-0.15263,0.25193 -0.3707,0.50319 -0.67307,0.74509c-1.95217,1.56174 -3.51391,-0.39043 -3.51391,-0.39043c-2.60187,-3.2773 -6.40801,-7.55415 -3.42004,-12.09693c1.81566,-2.76045 4.79178,-3.57608 7.53641,-4.72099c1.84164,-0.76824 3.56254,-2.75991 5.51222,-2.33494c1.57866,0.3441 2.36728,2.19043 3.08748,3.73543c0.22091,-0.18143 0.44114,-0.3609 0.65601,-0.54067c2.05185,-1.71658 4.87164,-2.65059 7.54554,-2.73412c0,0 2.5,0 2.5,2.5c0,2.5 -2.5,2.5 -2.5,2.5c-2.48449,-0.13427 -4.86102,1.20066 -6.36022,3.33354c-0.50041,0.71192 0.0057,1.54194 0.71478,2.32408zM338.3287,197.24643c0.70306,-1.055 2.10958,-1.055 2.10958,-1.055l-0.38661,0.17881c3.46742,-1.35357 4.17523,-1.72668 3.8557,-5.60066c-0.07189,-0.87163 -0.32477,-1.72199 -0.39642,-2.59364c-0.03162,-0.38461 0.44338,-1.30557 0.08832,-1.15436c-0.88361,0.37632 -1.26792,1.47784 -2.07397,2.00002c-3.25793,2.11057 -7.60943,2.01883 -4.39988,6.69684c0.36691,0.53479 0.7829,1.03303 1.20328,1.52799z" fill="#ffffff" stroke-width="0.5"/><path d="M372.69114,185.26103c-2.20869,-0.13878 -4.50035,-0.05471 -6.59665,-0.35083c0,0 -2.47487,-0.35355 -2.12132,-2.82843c0.35355,-2.47487 2.82843,-2.12132 2.82843,-2.12132c4.36501,0.63124 12.05453,-0.76878 14.76635,3.85129c2.60554,4.43902 -0.75952,7.79309 -3.74197,11.28854c1.89721,1.00793 3.82818,2.17515 4.92691,3.36026c1.06781,1.15177 2.49187,2.4539 2.45126,4.02397c-0.18232,7.04985 -11.11797,6.98882 -14.23795,2.60446c-1.86225,-2.61693 -1.59594,-5.50811 -0.48953,-8.20451c-1.03661,-0.53342 -2.10415,-1.04272 -2.52182,-2.05848c-1.68082,-4.08773 2.48497,-6.92034 4.73629,-9.56495zM374.85691,199.39659c-0.21541,0.48647 -0.3833,0.98321 -0.49035,1.49281c-0.29169,1.38858 2.38298,2.42748 3.30541,2.35118c0.67776,-0.05606 1.29314,-0.42211 1.94479,-0.61668c0.19282,-0.05757 0.67328,0.0426 0.58739,-0.13937c-0.52055,-1.10287 -2.21209,-1.04669 -3.22993,-1.71847c-0.70081,-0.46253 -1.40444,-0.9237 -2.1173,-1.36947zM373.64446,191.67599c-0.22248,0.19955 -0.44307,0.40103 -0.65727,0.6089c-0.16574,0.16084 -0.6378,0.3712 -0.45977,0.51832c0.05237,0.04328 0.10793,0.08044 0.16609,0.11258c0.13122,-0.19057 0.26357,-0.37831 0.39635,-0.56297c0.16715,-0.23244 0.35405,-0.45709 0.5546,-0.67683zM375.51154,189.8864c0.75185,-0.70494 1.46736,-1.44412 1.9314,-2.31964l-0.32497,0.16166c-0.53946,0.71603 -1.02053,1.48035 -1.60643,2.15797z" fill="#ffffff" stroke-width="0.5"/><path d="M405.25334,205.73574c0,2.5 -2.5,2.5 -2.5,2.5l-1.67719,-0.04855c-3.14998,0.62854 -5.07877,0.83326 -7.0962,0.60622l-0.04693,0.46931l-4.94768,-0.49477c-1.27708,-0.11199 -2.27874,-1.18419 -2.27874,-2.49034c0,-0.82831 0.40283,-1.56254 1.02328,-2.01746l1.95551,-1.46663c3.34849,-4.11238 8.62765,-5.79109 10.11856,-11.27817c1.15497,-4.25068 1.29661,-8.09946 -1.96912,-11.01029c-0.66067,-0.58888 -2.32764,-2.4863 -3.70101,-2.14334c-1.43874,0.35929 -2.11315,2.08115 -3.15945,3.13202c0,0 -1.76777,1.76777 -3.53553,0c-1.76777,-1.76777 0,-3.53553 0,-3.53553c1.13579,-1.13139 3.88261,-4.15626 5.51047,-4.45416c4.30901,-0.78854 9.4378,3.16294 11.46636,6.66789c1.13315,1.95786 0.94595,7.2737 0.82917,8.97203c-0.23628,3.43616 -1.53822,7.47483 -3.86029,10.10887c-1.83947,2.08659 -4.04736,3.30172 -6.05344,4.96712c1.51273,-0.3754 3.05452,-0.59284 4.76447,-0.93566l2.65777,-0.04855c0,0 2.5,0 2.5,2.5z" fill="#ffffff" stroke-width="0.5"/><path d="M426.3845,209.58487c-0.01809,0.36975 -0.22105,2.44396 -2.49823,2.44396c-2.5,0 -2.5,-2.5 -2.5,-2.5l0.26393,-1.6599c3.50534,-6.9884 8.50587,-13.2046 13.26213,-19.37526c0.90322,-1.17181 1.84209,-2.31886 2.84211,-3.40923c0.75953,-0.82815 1.57409,-1.6083 2.42878,-2.33783c0.31677,-0.27038 1.48452,-0.66879 1.0686,-0.64738c-1.40318,0.07224 -2.77944,0.87423 -4.16556,0.64445c-5.96965,-0.98962 -11.79237,-1.94865 -17.84505,-2.70449c0,0 -2.48069,-0.31009 -2.17061,-2.79078c0.31009,-2.48069 2.79078,-2.17061 2.79078,-2.17061c6.07027,0.75951 11.9311,1.71045 17.91838,2.71421c2.30878,0.38706 6.19645,-1.17003 7.75558,1.72819c2.09826,3.9004 -2.2102,6.85229 -4.0888,8.93593c-5.60055,6.21183 -11.23622,13.62387 -15.06206,21.12874z" fill="#ffffff" stroke-width="0.5"/></g></g></svg>