<svg version="1.1" xmlns="http://www.w3.org/2000/svg" xmlns:xlink="http://www.w3.org/1999/xlink" width="575.62278" height="367.0362" viewBox="0,0,575.62278,367.0362"><defs><linearGradient x1="249.77837" y1="-29.77657" x2="249.77837" y2="337.25966" gradientUnits="userSpaceOnUse" id="color-1"><stop offset="0" stop-color="#0c556e"/><stop offset="1" stop-color="#002734"/></linearGradient><linearGradient x1="222.76996" y1="-28.13011" x2="222.76996" y2="53.35044" gradientUnits="userSpaceOnUse" id="color-2"><stop offset="0" stop-color="#0c556e"/><stop offset="1" stop-color="#002734"/></linearGradient></defs><g transform="translate(31.01205,29.77653)"><g data-paper-data="{&quot;isPaintingLayer&quot;:true}" fill-rule="nonzero" stroke="none" stroke-linecap="butt" stroke-linejoin="miter" stroke-miterlimit="10" stroke-dasharray="" stroke-dashoffset="0" style="mix-blend-mode: normal"><path d="" fill="#000000" stroke-width="0"/><path d="" fill="#929292" stroke-width="0"/><path d="" fill="#ffffff" stroke-width="0"/><path d="M483.55042,324.04817c-46.65866,20.72911 -166.18349,7.97278 -227.66592,7.97278c-52.01397,0 -211.48561,13.10186 -253.52632,-2.1342c-36.72473,-13.30948 -32.84105,-139.71066 -32.84105,-177.86852c0,-56.08485 -9.72855,-127.99743 54.24059,-161.00952c49.41874,-25.50321 163.19632,-18.99311 232.12689,-18.99311c74.12456,0 199.426,-10.35004 250.27849,18.69582c57.6493,32.92805 50.75272,300.74272 -22.61269,333.33685z" fill="url(#color-1)" stroke-width="2"/><path d="M426.1073,50.41756c-40.5842,4.60178 -144.54812,1.76993 -198.0262,1.76993c-45.24229,0 -183.95237,2.90856 -220.51983,-0.47379c-31.94355,-2.95464 -28.56546,-31.0152 -28.56546,-39.48608c0,-12.4506 -8.46198,-28.41491 47.17903,-35.74346c42.98493,-5.66159 141.94985,-4.2164 201.90638,-4.2164c64.47432,0 173.4628,-2.29767 217.69484,4.1504c50.14396,7.3099 44.14524,66.76365 -19.66875,73.99942z" fill="url(#color-2)" stroke-width="2"/></g></g></svg>