<svg version="1.1" width="85" height="61" viewBox="-1 -1 85 61" xmlns="http://www.w3.org/2000/svg" xmlns:xlink="http://www.w3.org/1999/xlink">
  <!-- Exported by Scratch - http://scratch.mit.edu/ -->
  <g id="Layer_2">
    <path id="ID0.5241109835915267" fill="#000000" stroke="#231F20" stroke-width="1.2" d="M 52.709 14.156 C 51.169 14.013 47.959 13.840 46.191 13.925 C 41.463 14.150 36.967 15.853 36.967 15.853 L 23.949 7.357 L 26.184 26.263 C 26.830 25.481 15.629 39.067 22.705 50.487 C 29.785 61.913 47.572 63.877 63.693 63.279 C 74.876 62.094 75.499 61.107 80.250 57.250 C 83.473 53.764 86.514 48.399 85.679 43.033 C 84.923 38.438 77.357 35.210 77.357 35.210 C 77.357 35.210 77.267 30.730 74.029 25.240 C 72.103 21.972 65.681 17.199 65.681 17.199 L 62.822 5.647 L 55.370 12.851 L 52.709 14.156 Z " transform="matrix(1, 0, 0, 1, -9, -4)"/>
    <path id="ID0.6290038991719484" fill="none" stroke="#231F20" stroke-width="1.2" d="M 10.673 46.155 C 10.673 46.155 14.780 46.529 16.647 46.423 C 18.512 46.316 22.139 45.836 22.139 45.836 " transform="matrix(1, 0, 0, 1, -9, -4)"/>
    <path id="ID0.30399617087095976" fill="none" stroke="#231F20" stroke-width="1.2" d="M 81.656 40.671 C 81.656 40.671 86.205 39.928 88.515 39.122 C 91.230 38.180 93.058 36.577 93.058 36.577 " transform="matrix(1, 0, 0, 1, -9, -4)"/>
    <path id="ID0.4203011691570282" fill="none" stroke="#231F20" stroke-width="1.2" d="M 22.337 41.909 C 22.337 41.909 19.953 40.132 16.220 38.479 C 12.086 36.648 9.815 36.176 9.815 36.176 " transform="matrix(1, 0, 0, 1, -9, -4)"/>
    <path id="ID0.005260630045086145" fill="none" stroke="#231F20" stroke-width="1.2" d="M 82.117 46.622 C 82.117 46.622 84.843 47.726 87.650 48.007 C 90.420 48.283 92.296 48.117 92.296 48.117 " transform="matrix(1, 0, 0, 1, -9, -4)"/>
    <path id="ID0.36163295339792967" fill="none" stroke="#000000" stroke-linecap="round" d="M 52.350 14.212 C 55.190 14.912 56.237 15.681 56.237 15.681 " transform="matrix(1, 0, 0, 1, -9, -4)"/>
    <path id="ID0.4884376581758261" fill="none" stroke="#000000" d="M 33.898 13.684 L 39.956 18.042 " transform="matrix(1, 0, 0, 1, -9, -4)"/>
  </g>
</svg>