<svg xmlns="http://www.w3.org/2000/svg" xmlns:xlink="http://www.w3.org/1999/xlink" version="1.1" width="97.16799926757812" height="77.53500366210938" viewBox="-0.5 0.25 97.16799926757812 77.53500366210938">
  <!-- Exported by Scratch - http://scratch.mit.edu/ -->
  <path id="ID0.47685860516503453" d="M 83.675 48.51 C 82.643 48.748 81.201 48.91 79.904 49.019 C 80.196 49.718 80.41 50.468 80.485 51.281 C 80.589 52.405 80.443 53.703 80.004 55.069 C 80.604 55.273 81.252 55.46 81.919 55.59 C 84.47 56.194 86.229 56.225 86.246 56.225 C 86.633 56.231 86.941 56.548 86.936 56.934 C 86.931 57.318 86.62 57.625 86.237 57.625 C 86.234 57.625 86.231 57.625 86.228 57.625 C 86.152 57.624 84.309 57.595 81.623 56.957 C 80.876 56.811 80.158 56.603 79.496 56.376 C 77.168 61.511 70.572 67.137 56.948 68.13 C 38.446 69.48 24.553 62.831 19.063 50.972 C 18.474 49.692 18.106 48.412 17.898 47.148 C 17.578 47.151 17.212 47.153 16.821 47.153 C 15.747 47.153 14.504 47.137 13.635 47.079 C 11.803 46.958 7.971 46.095 7.809 46.058 C 7.432 45.973 7.196 45.598 7.281 45.221 C 7.366 44.843 7.745 44.609 8.118 44.693 C 8.157 44.702 12.006 45.569 13.728 45.683 C 14.808 45.756 16.548 45.758 17.732 45.749 C 17.646 44.503 17.713 43.279 17.897 42.092 C 16.972 41.352 15.597 40.33 13.865 39.289 C 10.252 37.096 8.154 36.423 8.134 36.416 C 7.765 36.3 7.56 35.907 7.676 35.539 C 7.791 35.17 8.184 34.965 8.551 35.08 C 8.642 35.108 10.812 35.798 14.589 38.091 C 16.068 38.98 17.278 39.843 18.203 40.553 C 19.85 33.739 24.932 28.5 25.296 28.158 L 25.349 9.732 L 36.853 19.41 C 36.853 19.41 41.328 18.248 45.917 18.611 C 47.616 18.718 50.669 19.297 52.146 19.58 L 54.873 18.707 L 62.875 12.639 L 64.285 24.096 C 64.285 24.096 69.877 29.42 71.371 32.828 C 73.801 38.467 73.375 42.746 73.375 42.746 C 73.375 42.746 77.144 44.426 79.206 47.669 C 80.59 47.566 82.261 47.399 83.372 47.144 C 85.909 46.603 87.789 45.32 87.808 45.307 C 88.127 45.087 88.563 45.167 88.782 45.486 C 89.002 45.804 88.922 46.24 88.603 46.46 C 88.516 46.518 86.47 47.913 83.675 48.51 Z M 96.168 0.75 L 0 0.75 L 0 77.285 L 96.168 77.285 L 96.168 0.75 Z " stroke-width="1" />
</svg>