<svg xmlns="http://www.w3.org/2000/svg" xmlns:xlink="http://www.w3.org/1999/xlink" version="1.1" width="165.55699462890624" height="180.24798889160155" viewBox="-0.09999427795410154 0.556000018119812 165.55699462890624 180.24798889160155">
  <!-- Exported by Scratch - http://scratch.mit.edu/ -->
  <g id="ID0.11658022506162524">
    <path id="ID0.598202986177057" fill="#FAA51D" stroke="#000000" stroke-width="1.2" d="M 107.608 124.875 C 107.356 124.875 107.103 124.860 106.851 124.831 L 84.849 122.252 C 81.284 121.834 78.732 118.605 79.150 115.039 C 79.568 111.473 82.805 108.915 86.363 109.340 L 106.217 111.668 L 122.884 102.002 C 125.989 100.203 129.967 101.259 131.768 104.364 C 133.569 107.469 132.511 111.447 129.406 113.248 L 110.869 123.998 C 109.875 124.574 108.749 124.875 107.608 124.875 L 107.608 124.875 Z "/>
    <path id="ID0.4675603983923793_1_" fill="#FAA51D" stroke="#231F20" stroke-width="1.2" d="M 90.659 16.803 C 87.827 16.540 81.924 16.222 78.673 16.378 C 69.979 16.792 61.711 19.923 61.711 19.923 L 37.771 4.300 L 41.880 39.068 C 43.068 37.629 22.470 62.613 35.483 83.614 C 48.504 104.626 76.369 113.989 110.857 107.137 C 145.347 100.280 153.574 80.415 151.289 69.907 C 149.005 59.399 135.985 55.520 135.985 55.520 C 135.985 55.520 135.820 47.282 129.865 37.186 C 126.323 31.176 114.513 22.399 114.513 22.399 L 109.255 1.156 L 95.552 14.404 L 90.659 16.803 L 90.659 16.803 Z "/>
    <path id="ID0.876089540310204_1_" fill="#FFFFFF" d="M 134.261 55.255 L 129.697 51.460 L 112.935 56.353 C 112.935 56.353 112.935 62.641 104.905 64.383 C 96.869 66.133 84.289 60.196 84.289 60.196 L 69.973 66.480 C 69.973 66.480 54.457 68.185 53.903 77.662 C 52.665 98.724 78.507 107.504 88.299 108.063 C 93.642 108.371 103.443 107.441 110.876 105.964 C 143.521 100.017 152.345 80.368 150.064 69.857 C 147.780 59.349 135.392 56.625 135.392 56.625 L 134.261 55.255 L 134.261 55.255 Z " stroke-width="1"/>
    <path id="ID0.44282719027251005_1_" fill="none" stroke="#231F20" stroke-width="1.2" d="M 13.357 75.647 C 13.357 75.647 20.910 76.335 24.343 76.140 C 27.773 75.944 34.443 75.061 34.443 75.061 "/>
    <path id="ID0.893105489667505_1_" fill="none" stroke="#231F20" stroke-width="1.2" d="M 143.890 65.563 C 143.890 65.563 152.255 64.196 156.503 62.713 C 161.495 60.982 164.857 58.033 164.857 58.033 "/>
    <path id="ID0.03574043000116944_1_" fill="none" stroke="#231F20" stroke-width="1.2" d="M 34.806 67.839 C 34.806 67.839 30.422 64.570 23.558 61.531 C 15.955 58.164 11.780 57.296 11.780 57.296 "/>
    <path id="ID0.6674723788164556_1_" fill="none" stroke="#231F20" stroke-width="1.2" d="M 144.738 76.506 C 144.738 76.506 149.752 78.535 154.913 79.053 C 160.008 79.561 163.457 79.255 163.457 79.255 "/>
    <path id="ID0.12165586883202195_1_" fill="none" stroke="#000000" stroke-linecap="round" d="M 89.999 16.906 C 95.221 18.193 97.146 19.607 97.146 19.607 " stroke-width="1"/>
    <path id="ID0.178104005753994_1_" fill="none" stroke="#000000" d="M 56.066 15.935 L 67.207 23.949 " stroke-width="1"/>
    <path id="ID0.7735752793960273_1_" fill="#FFFFFF" stroke="#231F20" d="M 125.839 37.417 C 131.216 45.653 131.416 55.055 126.284 58.408 C 121.147 61.764 112.628 57.799 107.243 49.557 C 101.849 41.319 101.659 31.924 106.795 28.566 C 111.927 25.214 120.457 29.175 125.839 37.417 L 125.839 37.417 Z " stroke-width="1"/>
    <path id="ID0.19106501014903188_1_" fill="#231F20" d="M 124.458 50.578 C 124.458 52.563 122.983 54.175 121.147 54.175 C 119.321 54.175 117.832 52.563 117.832 50.578 C 117.832 48.592 119.321 46.976 121.147 46.976 C 122.984 46.976 124.458 48.591 124.458 50.578 " stroke-width="1"/>
    <path id="ID0.06283409334719181_1_" fill="#FFFFFF" stroke="#231F20" d="M 81.754 43.400 C 87.135 51.638 86.569 61.536 80.501 65.495 C 74.429 69.466 65.145 65.995 59.766 57.757 C 54.382 49.519 54.941 39.625 61.013 35.658 C 67.087 31.693 76.369 35.158 81.754 43.400 L 81.754 43.400 Z " stroke-width="1"/>
    <path id="ID0.716460831463337_1_" fill="#231F20" d="M 78.466 54.227 C 78.466 56.215 76.989 57.827 75.153 57.827 C 73.329 57.827 71.839 56.212 71.839 54.227 C 71.839 52.242 73.329 50.628 75.153 50.628 C 76.986 50.628 78.466 52.242 78.466 54.227 " stroke-width="1"/>
    <path id="ID0.5430324394255877_1_" fill="#5E4A42" stroke="#000000" d="M 103.636 60.514 C 107.045 60.514 112.012 59.993 112.273 61.561 C 112.537 63.133 109.130 69.290 106.779 69.551 C 104.420 69.813 95.515 65.224 95.386 62.344 C 95.250 59.465 100.490 60.514 103.636 60.514 L 103.636 60.514 Z " stroke-width="1"/>
    <path id="ID0.5547774969600141_1_" fill="none" stroke="#231F20" stroke-width="1.2" d="M 79.745 73.956 C 79.745 73.956 98.772 79.572 105.889 81.122 C 113.002 82.671 125.844 84.220 125.844 84.220 C 125.844 84.220 111.151 103.060 93.979 98.277 C 76.806 93.500 77.117 82.672 79.745 73.956 L 79.745 73.956 Z "/>
    <path id="ID0.7812201734632254" fill="#FAA51D" stroke="#000000" stroke-width="1.2" d="M 21.732 176.125 C 18.217 176.126 15.081 173.644 14.379 170.065 L 12.795 161.977 L 11.272 153.859 C 10.831 151.510 11.536 149.091 13.169 147.348 C 14.804 145.603 17.176 144.745 19.542 145.029 L 39.690 147.464 L 49.049 131.529 C 51.147 127.957 55.745 126.762 59.314 128.860 C 62.886 130.958 64.081 135.553 61.983 139.125 L 50.135 159.297 C 48.624 161.870 45.733 163.302 42.769 162.945 L 27.917 161.150 L 29.099 167.182 C 29.895 171.246 27.245 175.188 23.180 175.984 C 22.695 176.080 22.209 176.125 21.732 176.125 L 21.732 176.125 Z "/>
    <path id="ID0.7152078151702881_1_" fill="#FAA51D" stroke="#000000" d="M 33.533 129.288 C 29.554 127.145 24.975 124.025 21.933 118.817 C 15.130 107.169 16.611 92.016 8.693 93.513 C 0.767 95.011 -6.424 117.959 12.577 131.811 C 19.123 136.588 25.803 138.735 31.269 140.320 C 32.703 140.729 45.152 143.494 51.204 138.827 C 57.254 134.158 54.856 131.745 53.703 130.466 C 52.548 129.186 39.160 132.317 33.533 129.288 L 33.533 129.288 Z " stroke-width="1"/>
    <path id="ID0.4691764716990292_1_" fill="#FFFFFF" d="M 9.538 94.276 C 5.709 94.236 1.351 101.309 1.150 107.974 C 0.945 114.646 2.952 118.245 4.334 121.344 C 6.430 124.018 4.419 116.734 9.043 114.836 C 13.653 112.943 19.596 116.445 19.596 116.445 C 19.596 116.445 16.734 107.834 15.173 102.682 C 13.712 97.756 13.537 94.585 9.538 94.276 L 9.538 94.276 Z " stroke-width="1"/>
    <path id="ID0.26425604708492756_1_" fill="#FAA51D" stroke="#231F20" stroke-width="1.2" d="M 79.016 141.586 C 81.201 139.908 83.424 137.168 86.283 132.918 C 88.666 129.375 91.248 122.661 91.248 122.661 C 92.856 118.025 94.805 110.568 87.750 109.244 C 84.895 108.709 80.249 109.064 73.646 107.817 C 67.039 106.564 61.145 103.179 56.145 111.923 C 51.147 120.671 38.509 127.132 54.203 142.381 L 79.016 141.586 Z "/>
    <path id="ID0.7381380507722497" fill="#FAA51D" stroke="#000000" stroke-width="1.2" d="M 113.128 180.204 L 88.669 180.204 C 86.587 180.204 84.599 179.339 83.181 177.815 C 81.762 176.292 81.040 174.247 81.188 172.169 L 82.497 153.835 L 60.092 145.860 C 56.190 144.471 54.152 140.182 55.541 136.280 C 56.930 132.378 61.223 130.341 65.121 131.729 L 92.898 141.616 C 96.073 142.746 98.104 145.854 97.865 149.216 L 96.723 165.203 L 113.128 165.203 C 117.271 165.203 120.628 168.560 120.628 172.703 C 120.628 176.846 117.271 180.204 113.128 180.204 L 113.128 180.204 Z "/>
    <path id="ID0.203311821911484_1_" fill="#FFFFFF" d="M 87.292 129.490 C 87.292 129.490 91.834 124.598 82.752 119.712 C 73.670 114.826 69.487 119.681 66.682 122.509 C 61.820 127.392 73.013 134.667 73.013 134.667 L 78.854 140.559 C 78.854 140.559 82.049 137.531 83.450 135.081 C 85.054 132.848 87.292 129.490 87.292 129.490 " stroke-width="1"/>
    <path id="ID0.42586974054574966" fill="#FAA51D" d="M 67.5227 130.4469 C 69.452 132.3458 70.5296 134.748 70.7116 137.095 C 70.8928 139.4427 70.1798 141.7338 68.5277 143.4122 C 66.8757 145.0906 64.5961 145.8398 62.2459 145.6958 C 59.8963 145.5511 57.4774 144.5116 55.5481 142.6127 C 53.6188 140.7137 52.5412 138.3116 52.3593 135.9646 C 52.178 133.6169 52.8911 131.3258 54.5431 129.6474 C 56.1952 127.969 58.4747 127.2197 60.825 127.3637 C 63.1746 127.5085 65.5934 128.5479 67.5227 130.4469 Z " stroke-width="1.0000217754203118"/>
    <path id="ID0.8956258930265903" fill="#FAA51D" stroke="#000000" stroke-width="1.2" d="M 30.861 139.297 C 30.245 139.297 29.619 139.208 28.998 139.024 C 25.559 137.997 23.602 134.375 24.630 130.935 L 30.045 112.805 C 30.815 110.229 33.091 108.393 35.771 108.185 L 58.856 106.394 C 62.426 106.111 65.562 108.791 65.839 112.372 C 66.116 115.951 63.441 119.078 59.861 119.355 L 41.224 120.801 L 37.086 134.655 C 36.244 137.475 33.660 139.297 30.861 139.297 L 30.861 139.297 Z "/>
  </g>
</svg>