<svg version="1.1" width="51" height="111" viewBox="-1 -1 51 111" xmlns="http://www.w3.org/2000/svg" xmlns:xlink="http://www.w3.org/1999/xlink">
  <defs>
    <radialGradient id="grad_1" cx="0.5408" cy="0.9285" r="1.2070499999999997">
      <stop offset="0" stop-color="#006666" stop-opacity="1"/>
      <stop offset="1" stop-color="#00FFFF" stop-opacity="1"/>
    </radialGradient>
    <linearGradient id="grad_2" y2="1">
      <stop offset="0" stop-color="#FFFFFF" stop-opacity="1"/>
      <stop offset="1" stop-color="#FFFFFF" stop-opacity="0"/>
    </linearGradient>
  </defs>
  <!-- Exported by Scratch - http://scratch.mit.edu/ -->
  <g id="ID0.9862604849040508" transform="matrix(1, 0, 0, 1, -212, -157)">
    <path id="ID0.7250244673341513" fill="#666666" stroke="#7F7F7F" stroke-width="2" d="M 225 205.500 L 239 205.500 L 239 268 L 225 268 L 225 205.500 Z " transform="matrix(1, 0, 0, 1, 4, -2)"/>
    <path id="ID0.47025758773088455" fill="url(#grad_1)" stroke="#000000" stroke-width="2" d="M 234.500 159 C 240.983 159 246.858 161.633 251.113 165.887 C 255.367 170.142 258 176.017 258 182.500 C 258 188.983 255.367 194.858 251.113 199.113 C 246.858 203.367 240.983 206 234.500 206 C 228.017 206 222.142 203.367 217.887 199.113 C 213.633 194.858 211 188.983 211 182.500 C 211 176.017 213.633 170.142 217.887 165.887 C 222.142 161.633 228.017 159 234.500 159 Z " transform="matrix(1, 0, 0, 1, 2, -0.5)"/>
    <path id="ID0.6898534814827144" fill="none" stroke="#009F9F" stroke-width="2" stroke-linecap="round" d="M 247.500 178 L 247.800 178.300 "/>
    <path id="ID0.6436798740178347" fill="none" stroke="#009F9F" stroke-width="2" stroke-linecap="round" d="M 241.500 190.500 L 241.800 190.800 "/>
    <path id="ID0.534279353916645" fill="none" stroke="#009F9F" stroke-width="2" stroke-linecap="round" d="M 228.500 175 L 228.800 175.300 "/>
    <path id="ID0.5541051714681089" fill="none" stroke="#009F9F" stroke-width="2" stroke-linecap="round" d="M 224 186.500 L 224.300 186.800 "/>
    <path id="ID0.07968003954738379" fill="none" stroke="#009F9F" stroke-width="2" stroke-linecap="round" d="M 232 194.500 L 232.300 194.800 "/>
    <path id="ID0.2499368181452155" fill="none" stroke="#009F9F" stroke-width="2" stroke-linecap="round" d="M 246.500 188 L 246.800 188.300 "/>
    <path id="ID0.06400489434599876" fill="none" stroke="#009F9F" stroke-width="2" stroke-linecap="round" d="M 226 179.500 L 226.300 179.800 "/>
    <path id="ID0.906250280328095" fill="none" stroke="#009F9F" stroke-width="2" stroke-linecap="round" d="M 235.500 167 L 235.800 167.300 "/>
    <path id="ID0.18180017219856381" fill="none" stroke="#009F9F" stroke-width="2" stroke-linecap="round" d="M 248 163 L 248.300 163.300 " transform="matrix(1, 0, 0, 1, -1, 2)"/>
    <path id="ID0.3926858645863831" fill="none" stroke="#009F9F" stroke-width="2" stroke-linecap="round" d="M 218 176 L 218.300 176.300 "/>
    <path id="ID0.08606827817857265" fill="none" stroke="#009F9F" stroke-width="2" stroke-linecap="round" d="M 251 193 L 251.300 193.300 "/>
    <path id="ID0.47025758773088455" fill="url(#grad_2)" stroke="#000000" stroke-width="2" d="M 234.500 159 C 240.983 159 246.858 161.633 251.113 165.887 C 255.367 170.142 258 176.017 258 182.500 C 258 188.983 255.367 194.858 251.113 199.113 C 246.858 203.367 240.983 206 234.500 206 C 228.017 206 222.142 203.367 217.887 199.113 C 213.633 194.858 211 188.983 211 182.500 C 211 176.017 213.633 170.142 217.887 165.887 C 222.142 161.633 228.017 159 234.500 159 Z " transform="matrix(1, 0, 0, 1, 2, -0.5)"/>
  </g>
</svg>