<svg version="1.1" xmlns="http://www.w3.org/2000/svg" xmlns:xlink="http://www.w3.org/1999/xlink" width="392.31153" height="374.31153" viewBox="0,0,392.31153,374.31153"><g transform="translate(24.70264,3.65576)"><g data-paper-data="{&quot;isPaintingLayer&quot;:true}" fill-rule="nonzero" stroke="none" stroke-width="0.5" stroke-linecap="butt" stroke-linejoin="miter" stroke-miterlimit="10" stroke-dasharray="" stroke-dashoffset="0" style="mix-blend-mode: normal"><path d="M65.049,296.30828c-0.72987,-1.5278 -1.43471,-3.08346 -2.19244,-4.63373c-7.08698,-14.49969 -16.80504,-31.46454 -14.01282,-48.0808c2.40523,-14.31329 8.76573,-28.26713 14.78366,-41.34401c3.86803,-8.40519 6.09514,-17.96938 9.43747,-26.64194c5.3496,-13.88097 7.26313,-31.8283 10.53924,-46.61772c0.7056,-3.18528 0.92264,-6.23177 2.13193,-9.39578c2.51034,-6.56807 7.25973,-15.45961 12.28587,-20.08949c1.2231,-1.12667 1.47981,-3.91128 2.31997,-5.49277c2.24447,-4.22487 4.99107,-8.94161 8.14811,-12.48746c5.71223,-6.41574 12.87512,-10.99191 18.93546,-17.05224c8.86847,-8.86847 13.44128,-19.49262 24.27901,-24.80432c0.11904,-0.36116 0.24609,-0.71869 0.38094,-1.07236c0.44466,-1.99788 1.0954,-3.89822 2.27397,-5.54877c2.37062,-3.31999 5.57888,-5.78651 9.31864,-7.60572c1.83145,-0.97968 3.79914,-1.73794 5.8673,-2.23903c15.1477,-4.45678 35.27737,-1.77363 45.90781,-1.70212c19.42882,0.13069 39.801,5.4158 57.59121,12.84476c7.03289,2.93685 14.62874,4.86284 21.27118,8.71791c10.68401,6.20069 22.43268,14.70353 30.13761,24.43733c8.37615,10.58176 11.41951,21.0559 14.50723,33.77395c2.31166,9.52152 5.66461,18.99567 7.2415,28.69051c1.44446,8.88063 1.47967,17.84304 2.25126,26.75884c0.42798,4.94536 1.93633,9.79581 2,14.77669c0.20049,15.68268 -1.93932,29.85755 -4.3494,45.22247c-1.90815,12.165 -3.67001,23.09656 -8.24237,34.55562c-3.69181,9.25226 -9.23929,16.59786 -14.79393,24.53601c-3.58425,5.12225 -5.08123,11.21422 -8.17697,16.5483c-7.83364,13.49764 -21.32067,31.1838 -36.0367,37.78064c-14.11403,6.32698 -25.30721,3.41017 -41.34369,4.35697c-2.18069,0.12874 -8.50636,2.71549 -10.99355,3.25356c-7.88821,1.70652 -16.10641,2.60806 -24.09293,3.74644c-4.5203,0.64431 -9.33406,1.92485 -13.97046,2c-13.13627,0.21292 -24.44588,-2.39755 -37.22247,-4.3494c-15.13132,-2.31158 -30.69423,-3.28784 -45.68044,-6.13609c-7.87857,-1.49739 -19.26235,-3.58804 -26.07252,-8.55138c-7.21174,-5.25601 -12.08747,-14.67829 -12.35819,-23.92261c-0.81681,-1.3334 -1.51211,-2.74928 -2.07051,-4.23225z" fill="#cacaca"/><path d="M210.45313,0.5l3.90625,0.39063l0.08302,0.02641l0.08711,0.00119l2.5764,0.58177l32.33636,0l0.61332,-0.15576l0.993,0.15576h0.40454l3.90625,0.39063l1.77027,0.56327l1.83527,0.28789l3.66855,1.39754l0.36183,0.18092l0.95783,0.30476l0.04278,0.03695l6.36291,2.12097l0.82656,0.37053l0.94426,0.30045l1.83527,0.28789l0.38939,0.14834l0.00506,0.00051l1.77027,0.56327l1.83527,0.28789l3.66855,1.39754l0.36183,0.18092l0.56497,0.17976h6.89286l3.90625,0.39063l0.08302,0.02641l0.08711,0.00119l3.82932,0.86469l3,1l1.61784,0.72524l1.65681,0.63116l2.68993,1.34496l0.03853,0.00604l1.58506,-0.32079l5.98941,2.49559l3.01673,0.95987l0.6647,0.57406l0.81072,0.3378l2.20766,2.26898l4.91067,4.24103l0.25151,0.93057l2.61788,2.54713l0.71303,1.71128l0.68451,1.08381l5.68782,11.37564l0.37292,0.38328l3.54172,3.446l0.71303,1.71128l0.68451,1.08381l1.10071,2.20143l0.41361,0.47891l0.30476,0.95783l0.18092,0.36183l1.39754,3.66855l0.25749,1.64152l0.44568,0.89135l0.41361,0.47891l0.30476,0.95783l0.18092,0.36183l1.39754,3.66855l0.28789,1.83527l0.56327,1.77027l0.00051,0.00506l0.14834,0.38939l0.25749,1.64152l3.34496,6.68993l0.63116,1.65681l0.72524,1.61784l1,3l0.86469,3.82932l0.00119,0.08711l0.02641,0.08302l0.00051,0.00506l0.14834,0.38939l0.28789,1.83527l0.56327,1.77027l0.00051,0.00506l0.14834,0.38939l0.28789,1.83527l0.56327,1.77027l0.39063,3.90625v0.40454l0.15576,0.993l-0.15576,0.61332l0,5.01868l0.04611,0.29394l0.56327,1.77027l0.39063,3.90625v0.40454l0.15576,0.993l-0.15576,0.61332l0,8.33636l0.58177,2.5764l0.00119,0.08711l0.02641,0.08302l0.27346,2.73461l0.69893,3.09527l0.00119,0.08711l0.02641,0.08302l0.09678,0.96776l0.01093,0.03279l0.86469,3.82932l0.00119,0.08711l0.02641,0.08302l0.39063,3.90625l0,1.34723l0.58177,2.5764l0.00119,0.08711l0.02641,0.08302l0.23963,2.39633l0.86807,2.60422l0.86469,3.82932l0.00119,0.08711l0.02641,0.08302l0.32254,3.2254l0.82631,2.16906l0.28789,1.83527l0.56327,1.77027l0.39063,3.90625v0.40454l0.15576,0.993l-0.15576,0.61332v1.01868l0.04611,0.29394l0.56327,1.77027l0.39063,3.90625v0.40454l0.15576,0.993l-0.15576,0.61332v18.98913l-0.39062,3.90625l-0.02641,0.08302l-0.00119,0.08711l-0.86469,3.82932l-1,3l-0.37053,0.82656l-0.30045,0.94426l-0.28789,1.83527l-0.14834,0.38939l-0.00051,0.00506l-0.07431,0.23355l-0.2815,1.92359l-0.43317,1.73268l-0.21102,2.11018l-0.56327,1.77027l-0.28789,1.83527l-1.09749,2.88092l-0.05135,0.51354l-0.02641,0.08302l-0.00119,0.08711l-0.86469,3.82932l-2,6l-0.00985,0.02197l-0.09786,0.97859l-0.56327,1.77027l-0.28789,1.83527l-0.14834,0.38939l-0.00051,0.00506l-0.56327,1.77027l-0.28789,1.83527l-1.39754,3.66855l-0.18092,0.36183l-0.30476,0.95783l-0.03695,0.04278l-0.12097,0.36291l-0.72524,1.61784l-0.63116,1.65681l-0.20544,0.41088l-0.43816,1.31448l-0.72524,1.61784l-0.63116,1.65681l-1,2l-0.83011,1.31434l-0.72932,1.37283l-3.13664,4.70496l-2.30394,4.60787l-0.83011,1.31434l-0.72932,1.37283l-0.49282,0.73924l-0.00164,0.02239l-0.46179,0.89279l-0.12793,0.38378l-1.60584,3.58227l-1.09417,1.5013l-0.85348,1.65006l-2.48592,3.03835l-0.24957,0.24957l-0.62685,0.94027l-1.56364,1.90357l-0.01152,0.01408l-0.38108,0.73676l-0.12793,0.38378l-1.60584,3.58227l-1.09417,1.5013l-0.85348,1.65006l-2.48592,3.03835l-0.28605,0.28605l-0.59201,0.8123l-0.54383,0.32354l-0.0993,0.0993l-0.35521,0.66864l-2,3l-0.36456,0.44381l-0.59487,1.15008l-0.96683,3.0386l-1.50805,1.74617l-0.20336,0.39315l-0.7235,0.88428l-1.32885,2.96436l-1.09417,1.5013l-0.85348,1.65006l-0.49469,0.60462l-0.55767,1.24402l-1.09417,1.5013l-0.85348,1.65006l-2.02225,2.47164l-0.87697,1.38854l-0.06075,0.06244l-0.04002,0.07738l-2.48592,3.03835l-6,6l-3.03835,2.48592l-0.07738,0.04002l-0.06244,0.06075l-3.31916,2.09631l-4,2l-1.65681,0.63116l-1.61784,0.72524l-1.31448,0.43816l-2.6123,1.30615l-0.47891,0.41361l-0.95783,0.30476l-0.36183,0.18092l-3.66855,1.39754l-1.64152,0.25749l-2.68993,1.34496l-1.65681,0.63116l-1.61784,0.72524l-6,2l-3.82932,0.86469l-0.08711,0.00119l-0.08302,0.02641l-0.51354,0.05135l-0.86918,0.33112l-1.61784,0.72524l-3,1l-3.82932,0.86469l-0.08711,0.00119l-0.08302,0.02641l-0.96776,0.09678l-3.03279,1.01093l-3.82932,0.86469l-0.08711,0.00119l-0.08302,0.02641l-0.96776,0.09678l-0.03279,0.01093l-3.82932,0.86469l-0.08711,0.00119l-0.08302,0.02641l-2.73461,0.27346l-3.09527,0.69893l-0.08711,0.00119l-0.08302,0.02641l-3.90625,0.39063h-0.92236l-0.0828,0.0207l-2.08915,0.69638l-3.82932,0.86469l-0.08711,0.00119l-0.08302,0.02641l-3.90625,0.39063h-0.34723l-1.15002,0.25968l-2.40188,0.54726l-8,1l-1.55405,0.03837l-1.54681,0.15468h-3.34723l-2.5764,0.58177l-0.08711,0.00119l-0.08302,0.02641l-3.90625,0.39063l-31.34723,0l-2.5764,0.58177l-0.08711,0.00119l-0.08302,0.02641l-3.90625,0.39063l-5.34723,0l-2.5764,0.58177l-0.08711,0.00119l-0.08302,0.02641l-3.90625,0.39063l-13.02954,0l-0.29394,0.04611l-1.77027,0.56327l-3.90625,0.39063h-0.40454l-0.993,0.15576l-0.61332,-0.15576h-10.98913l-3.90625,-0.39062l-0.08302,-0.02641l-0.08711,-0.00119l-2.5764,-0.58177h-7.33636l-0.61332,0.15576l-0.993,-0.15576h-0.40454l-3.90625,-0.39062l-1.77027,-0.56327l-0.29394,-0.04611h-16.02954l-3.90625,-0.39062l-0.08302,-0.02641l-0.08711,-0.00119l-3.82932,-0.86469l-0.03279,-0.01093l-0.96776,-0.09678l-0.08302,-0.02641l-0.08711,-0.00119l-2.5764,-0.58177h-0.34723l-3.90625,-0.39062l-0.08302,-0.02641l-0.08711,-0.00119l-3.82932,-0.86469l-0.03279,-0.01093l-0.96776,-0.09678l-1.77027,-0.56327l-1.83527,-0.28789l-3.66855,-1.39754l-0.04931,-0.02465l-0.39948,-0.02923l-0.77715,-0.40197l-0.09372,-0.02982l-0.04278,-0.03695l-0.36291,-0.12097l-3.58227,-1.60584l-1.5013,-1.09417l-1.65006,-0.85348l-0.88428,-0.7235l-0.99993,-0.44825l-1.65681,-0.63116l-2,-1l-3.31916,-2.09631l-0.06244,-0.06075l-0.07738,-0.04002l-1.67326,-1.36903l-0.86776,-0.43388l-1.08381,-0.68451l-1.71128,-0.71303l-3.446,-3.54172l-3.54172,-3.446l-0.41659,-0.99981l-3.29794,-3.29794l-2.24374,-2.74235l-0.50001,-0.51389l-3.54172,-3.446l-0.41659,-0.99981l-1.29794,-1.29794l-2.48592,-3.03835l-0.04002,-0.07738l-0.06075,-0.06244l-0.70034,-1.10887l-1.71297,-1.71297l-2.48592,-3.03835l-0.04002,-0.07738l-0.06075,-0.06244l-2.09631,-3.31916l-2.10071,-4.20143l-0.41361,-0.47891l-0.30476,-0.95783l-0.18092,-0.36183l-1.39754,-3.66855l-0.28789,-1.83527l-0.56327,-1.77027l-0.00051,-0.00506l-0.14834,-0.38939l-0.28789,-1.83527l-0.56327,-1.77027l-0.09678,-0.96776l-0.01093,-0.03279l-0.86469,-3.82932l-0.00119,-0.08711l-0.02641,-0.08302l-0.09678,-0.96776l-0.01093,-0.03279l-0.86469,-3.82932l-0.00119,-0.08711l-0.02641,-0.08302l-0.39062,-3.90625v-12.02954l-0.04611,-0.29394l-0.56327,-1.77027l-0.39062,-3.90625v-0.40454l-0.15576,-0.993l0.07644,-0.30098l-0.50244,-2.2251l-0.00119,-0.08711l-0.02641,-0.08302l-0.00051,-0.00506l-0.14834,-0.38939l-0.28789,-1.83527l-0.56327,-1.77027l-0.39062,-3.90625v-0.40454l-0.15576,-0.993l0.03821,-0.15047l-0.49183,-1.54574l-0.39062,-3.90625v-0.40454l-0.15576,-0.993l0.15576,-0.61332v-1.01868l-0.04611,-0.29394l-0.56327,-1.77027l-0.39062,-3.90625l0,-0.40454l-0.15576,-0.993l0.15576,-0.61332l0,-7.33636l-0.58177,-2.5764l-0.00119,-0.08711l-0.02641,-0.08302l-0.39062,-3.90625v-25.98913l-0.15576,-0.61332l0.15576,-0.993v-0.40454l0.39063,-3.90625l0.56327,-1.77027l0.28789,-1.83527l0.14834,-0.38939l0.00051,-0.00506l0.56327,-1.77027l0.28789,-1.83527l0.75822,-1.99033v-4.49788l0.39063,-3.90625l0.02641,-0.08302l0.00119,-0.08711l0.86469,-3.82932l0.56316,-1.68949l-0.00185,-0.00727l0.15576,-0.993v-0.40454l0.39063,-3.90625l0.56327,-1.77027l0.04611,-0.29394v-4.02954l0.39063,-3.90625l0.02641,-0.08302l0.00119,-0.08711l0.86469,-3.82932l0.69638,-2.08915l0.0207,-0.0828v-4.92236l0.39063,-3.90625l0.02641,-0.08302l0.00119,-0.08711l0.58177,-2.5764v-0.34723l0.19344,-1.93443l-0.01545,-0.2446l0.12603,-0.86118l0.0866,-0.86604l0.07431,-0.23355l0.2815,-1.92359l0.43317,-1.73268l0.21102,-2.11018l0.24977,-0.78498l0.05963,-0.8216l1.08806,-3.77194l0.58719,-1.46798l0.01535,-0.1535l0.56327,-1.77027l0.28789,-1.83527l1.39754,-3.66855l0.18092,-0.36183l0.30476,-0.95783l0.32453,-0.37578l0.2969,-1.18761l0.47625,-1.32669l0.01909,-0.12171l0.42637,-1.11922l0.40466,-1.12726l0.06471,-0.10483l0.1712,-0.4494l0.43772,-1.75089l0.32476,-0.90469l0.21172,-0.93761l1,-3l0.72524,-1.61784l0.63116,-1.65681l2,-4l0.83011,-1.31434l0.72932,-1.37283l1.13664,-1.70496l0.30394,-0.60787l0.83011,-1.31434l0.72932,-1.37283l2,-3l1.56364,-1.90357l1.55994,-1.9066l7,-7l3.03835,-2.48592l0.07738,-0.04002l0.06244,-0.06075l3.31916,-2.09631l6.37136,-3.18568l0.13131,-0.13131l1.65,-1.35l1.35,-1.65l10.24957,-10.24957l0.07526,-0.11288l0.38971,-0.93531l1.24782,-1.2141l1.40587,-1.7115l1.98656,-1.58925l1.82338,-1.7741l0.32584,-0.20579l0.21053,-0.50527l3.54172,-3.446l3.446,-3.54172l0.99981,-0.41659l1.29794,-1.29794l3.03835,-2.48592l0.07738,-0.04002l0.06244,-0.06075l3.31916,-2.09631l0.37136,-0.18568l0.13131,-0.13131l1.9066,-1.55994l1.90357,-1.56364l0.94027,-0.62685l2.24957,-2.24957l3.03835,-2.48592l0.07738,-0.04002l0.06244,-0.06075l3.31916,-2.09631l12,-6l1.65681,-0.63116l1.61784,-0.72524l1.31448,-0.43816l2.41088,-1.20544l1.65681,-0.63116l1.61784,-0.72524l3,-1l3.82932,-0.86469l0.08711,-0.00119l0.08302,-0.02641l3.90625,-0.39062l10.02954,0l0.29394,-0.04611l1.77027,-0.56327l3.90625,-0.39062l0.34723,0l2.5764,-0.58177l0.08711,-0.00119l0.08302,-0.02641l3.90625,-0.39062l1.02954,0l0.29394,-0.04611l1.77027,-0.56327l3.90625,-0.39062l0.40454,0l0.993,-0.15576l0.61332,0.15576l9.33636,0l2.5764,-0.58177l0.08711,-0.00119l0.08302,-0.02641l3.90625,-0.39062l5.92236,0l1.01425,-0.25356l1.92359,-0.2815l0.23355,-0.07431l0.86604,-0.0866l0.86118,-0.12603l0.2446,0.01545l1.93443,-0.19344l6.34723,0l2.5764,-0.58177l0.08711,-0.00119l0.08302,-0.02641l3.90625,-0.39062l0.98913,0l0.61332,-0.15576l0.993,0.15576h0.40454l3.90625,0.39063l1.77027,0.56327l0.29394,0.04611h1.02954l3.90625,0.39063l8.20089,2.60938zM87.44226,318.5l0.61332,-0.15576l0.993,0.15576h0.40454l3.90625,0.39063l1.77027,0.56327l0.29394,0.04611h9.02954l3.90625,0.39063l0.08302,0.02641l0.08711,0.00119l2.5764,0.58177l5.37677,0l0.29394,-0.04611l1.77027,-0.56327l3.90625,-0.39062h0.40454l0.993,-0.15576l0.61332,0.15576l11.33636,0l2.5764,-0.58177l0.08711,-0.00119l0.08302,-0.02641l3.90625,-0.39062l5.34723,0l2.5764,-0.58177l0.08711,-0.00119l0.08302,-0.02641l3.90625,-0.39062l31.34723,0l2.5764,-0.58177l0.08711,-0.00119l0.08302,-0.02641l3.90625,-0.39062h5.44356l3.9992,-0.4999l0.65155,-0.21718l3.82932,-0.86469l0.08711,-0.00119l0.08302,-0.02641l3.90625,-0.39062h0.23026l0.70635,-0.25356l4,-1l1.92359,-0.2815l0.23355,-0.07431l0.86604,-0.0866l0.86118,-0.12603l0.2446,0.01545l1.93443,-0.19344l0.34723,0l2.5764,-0.58177l0.08711,-0.00119l0.08302,-0.02641l2.73461,-0.27346l3.09527,-0.69893l0.08711,-0.00119l0.08302,-0.02641l0.96776,-0.09678l3.03279,-1.01093l3.82932,-0.86469l0.08711,-0.00119l0.08302,-0.02641l0.51354,-0.05135l0.86918,-0.33112l1.61784,-0.72524l3,-1l3.82932,-0.86469l0.08711,-0.00119l0.08302,-0.02641l0.96776,-0.09678l1.34727,-0.44909l2.6123,-1.30615l0.47891,-0.41361l0.95783,-0.30476l0.36183,-0.18092l3.66855,-1.39754l1.64152,-0.25749l2.68993,-1.34496l1.65681,-0.63116l1.61784,-0.72524l0.40116,-0.13372l0.53983,-0.53983l0.70034,-1.10887l0.06075,-0.06244l0.04002,-0.07738l0.49469,-0.60462l0.55767,-1.24402l1.09417,-1.5013l0.85348,-1.65006l0.40393,-0.49369l0.39898,-1.04733l1,-2l1.2,-1.9l0.8,-2.1l0.18092,-0.36183l0.30476,-0.95783l0.41361,-0.47891l0.10071,-0.20143l2.09631,-3.31916l0.06075,-0.06244l0.04002,-0.07738l2.48592,-3.03835l0.13131,-0.13131l0.18568,-0.37136l2.09631,-3.31916l0.06075,-0.06244l0.04002,-0.07738l2.48592,-3.03835l0.20272,-0.20272l0.11426,-0.29995l2,-4l2.09631,-3.31916l0.06075,-0.06244l0.04002,-0.07738l2.48592,-3.03835l0.24957,-0.24957l0.62685,-0.94027l1.04339,-1.27021l0.39719,-1.04262l1,-2l0.83011,-1.31434l0.72932,-1.37283l1.13664,-1.70496l2.30394,-4.60787l0.83011,-1.31434l0.72932,-1.37283l2.80956,-4.21434l0.27462,-0.82385l0.72524,-1.61784l0.63116,-1.65681l0.20544,-0.41088l0.43816,-1.31448l0.37053,-0.82656l0.30045,-0.94426l0.28789,-1.83527l0.01275,-0.03346l0.1361,-1.361l0.56327,-1.77027l0.28789,-1.83527l1.39754,-3.66855l0.18092,-0.36183l0.30476,-0.95783l0.03695,-0.04278l0.1319,-0.39571l0.09678,-0.96776l0.02641,-0.08302l0.00119,-0.08711l0.86469,-3.82932l1,-3l0.21938,-0.48938l0.24414,-1.66832l0.43317,-1.73268l0.21102,-2.11018l0.56327,-1.77027l0.28789,-1.83527l0.14834,-0.38939l0.00051,-0.00506l0.56327,-1.77027l0.28789,-1.83527l0.75822,-1.99033l0,-12.52742l-0.04611,-0.29394l-0.56327,-1.77027l-0.39062,-3.90625v-0.40454l-0.15576,-0.993l0.15576,-0.61332v-0.21939l-0.25356,-0.70635l-1,-4l-0.2815,-1.92359l-0.07431,-0.23355l-0.0866,-0.86604l-0.12603,-0.86118l0.01136,-0.17985l-0.94758,-2.48739l-0.28789,-1.83527l-0.56327,-1.77027l-0.39062,-3.90625v-0.34723l-0.58177,-2.5764l-0.00119,-0.08711l-0.02641,-0.08302l-0.39062,-3.90625v-1.34723l-0.58177,-2.5764l-0.00119,-0.08711l-0.02641,-0.08302l-0.09678,-0.96776l-0.01093,-0.03279l-0.86469,-3.82932l-0.00119,-0.08711l-0.02641,-0.08302l-0.27346,-2.73461l-0.69893,-3.09527l-0.00119,-0.08711l-0.02641,-0.08302l-0.39062,-3.90625v-10.02954l-0.04611,-0.29394l-0.56327,-1.77027l-0.39062,-3.90625v-0.40454l-0.15576,-0.993l0.15576,-0.61332v-5.01868l-0.04611,-0.29394l-0.56327,-1.77027l-0.00051,-0.00506l-0.14834,-0.38939l-0.28789,-1.83527l-0.56327,-1.77027l-0.02791,-0.27913l-2.82411,-5.64821l-0.41361,-0.47891l-0.30476,-0.95783l-0.18092,-0.36183l-1.39754,-3.66855l-0.28789,-1.83527l-0.56327,-1.77027l-0.00051,-0.00506l-0.14834,-0.38939l-0.25749,-1.64152l-0.44568,-0.89135l-0.41361,-0.47891l-0.30476,-0.95783l-0.18092,-0.36183l-0.64017,-1.68045l-0.39076,-0.53616l-0.28605,-0.28605l-2.48592,-3.03835l-0.85348,-1.65006l-1.09417,-1.5013l-1.60584,-3.58227l-0.12793,-0.38378l-0.46179,-0.89279l-0.02923,-0.39948l-1.10276,-2.20552l-1.74155,-0.66345l-0.36183,-0.18092l-0.95783,-0.30476l-0.47891,-0.41361l-0.92279,-0.46139l-5.16691,0l-0.23576,0.13544l-1.85096,-0.13544h-2.84467l-3.90625,-0.39062l-0.4218,-0.13421l-2.30108,-0.16837l-2.83227,-1.46497l-3.0386,-0.96683l-1.5,-1.29545l-1.67652,-0.53344l-1.83527,-0.28789l-3.66855,-1.39754l-0.36183,-0.18092l-0.95783,-0.30476l-0.04278,-0.03695l-5.51416,-1.83805l-32.94306,0l-3.90625,-0.39062l-0.08302,-0.02641l-0.08711,-0.00119l-2.5764,-0.58177h-6.34723l-1.93443,-0.19344l-0.2446,0.01545l-0.86118,-0.12603l-0.86604,-0.0866l-0.23355,-0.07431l-1.92359,-0.2815l-1.06601,-0.2665l-2.41895,-0.2419l-1.16688,0.46675l-1.94194,0.56017l-1.91957,0.63259l-7.28763,1.61947l-5.12893,1.92335l-12.82636,6.41318l-2.00908,0.76536l-1.98756,0.81961l-10,3l-0.16215,0.03149l-0.15352,0.06096l-3.3839,0.96683l-0.58865,0.31272l-2.25615,1.84594l-0.07738,0.04002l-0.06244,0.06075l-3.31916,2.09631l-0.60787,0.30394l-8.64523,5.76349l-0.24957,0.24957l-2.52199,2.06344l-1.25466,1.56833l-1.42573,1.17113l-1.79762,2.1971l-2,2l-1.9066,1.55994l-0.8419,0.69156l-0.69156,0.8419l-1.55994,1.9066l-0.24957,0.24957l-0.62685,0.94027l-1.04339,1.27021l-0.39719,1.04262l-0.77271,1.54542l-0.19012,0.76049l-0.80427,4.02136l-1.88594,11.31566l-1.92788,13.49519l-0.77975,6.23799v26.44356l-0.19344,1.93443l0.01545,0.2446l-0.12603,0.86118l-0.0866,0.86604l-0.07431,0.23355l-0.2815,1.92359l-2.25356,9.01425v0.92236l-0.39062,3.90625l-0.02641,0.08302l-0.00119,0.08711l-0.86469,3.82932l-0.69638,2.08915l-0.62285,2.49141l-0.88333,4.41665l-0.45503,1.48644l-0.3424,1.51635l-1.28714,3.86143l-0.65019,4.55133l-0.77975,6.23799l0,5.44356l-0.15468,1.54681l-0.03837,1.55405l-0.80695,6.45558v41.43269l0.15576,0.61332l-0.15576,0.993v0.40454l-0.39062,3.90625l-0.56327,1.77027l-0.04611,0.29394v2.01868l0.15576,0.61332l-0.15576,0.993v0.40454l-0.39062,3.90625l-0.56327,1.77027l-0.04611,0.29394v0.02954l-0.39062,3.90625l-0.02641,0.08302l-0.00119,0.08711l-0.50244,2.2251l0.07644,0.30098l-0.15576,0.993v0.40454l-0.39062,3.90625l-0.56327,1.77027l-0.04611,0.29394v0.01868l0.15576,0.61332l-0.15576,0.993v0.40454l-0.39062,3.90625l-0.56327,1.77027l-0.04611,0.29394v0.02954l-0.39062,3.90625l-0.56327,1.77027l-0.04611,0.29394v2.02954l-0.0247,0.24705l0.18047,1.15049l-0.48745,1.91935l-0.05894,0.58936l-0.34801,1.09375z" fill="#cacaca"/></g></g></svg>