<svg version="1.1" xmlns="http://www.w3.org/2000/svg" xmlns:xlink="http://www.w3.org/1999/xlink" width="345.19988" height="348.78044" viewBox="0,0,345.19988,348.78044"><defs><linearGradient x1="69.65231" y1="205.50944" x2="414.8522" y2="205.50944" gradientUnits="userSpaceOnUse" id="color-1"><stop offset="0" stop-color="#a4a4a4"/><stop offset="1" stop-color="#565656"/></linearGradient><radialGradient cx="242.25225" cy="205.50944" r="141.17178" gradientUnits="userSpaceOnUse" id="color-2"><stop offset="0" stop-color="#dcdcdc"/><stop offset="1" stop-color="#5f5f5f"/></radialGradient><linearGradient x1="72.49423" y1="209.08999" x2="390.36371" y2="209.08999" gradientUnits="userSpaceOnUse" id="color-3"><stop offset="0" stop-color="#a4a4a4"/><stop offset="1" stop-color="#565656"/></linearGradient><radialGradient cx="232.53696" cy="206.87401" r="141.17178" gradientUnits="userSpaceOnUse" id="color-4"><stop offset="0" stop-color="#dcdcdc"/><stop offset="1" stop-color="#5f5f5f"/></radialGradient><linearGradient x1="233.75031" y1="208.44693" x2="185.41476" y2="319.75382" gradientUnits="userSpaceOnUse" id="color-5"><stop offset="0" stop-color="#ffad00" stop-opacity="0"/><stop offset="1" stop-color="#ffad00"/></linearGradient></defs><g transform="translate(-69.65231,-32.90616)"><g data-paper-data="{&quot;isPaintingLayer&quot;:true}" fill-rule="nonzero" stroke-linecap="butt" stroke-linejoin="miter" stroke-miterlimit="10" stroke-dasharray="" stroke-dashoffset="0" style="mix-blend-mode: normal"><path d="M414.8522,205.5061c0,95.16703 -77.42459,172.59994 -172.59994,172.59994c-95.17119,0 -172.59994,-77.43291 -172.59994,-172.59994c0,-95.17119 77.42459,-172.59994 172.59994,-172.59994c95.17535,0 172.59994,77.43291 172.59994,172.59994z" fill="url(#color-1)" stroke="none" stroke-width="1"/><path d="M101.07798,205.51026c0,-77.96842 63.20585,-141.17427 141.17427,-141.17427c77.96842,0 141.17427,63.20589 141.17427,141.17427c0,77.96842 -63.20589,141.17427 -141.17427,141.17427c-77.96842,0 -141.17427,-63.20585 -141.17427,-141.17427z" fill="url(#color-2)" stroke="none" stroke-width="1"/><path d="M390.36371,209.08666c0,95.16703 -71.29467,172.59994 -158.93477,172.59994c-87.63623,0 -158.93477,-77.43291 -158.93477,-172.59994c0,-95.17119 71.29467,-172.59994 158.93477,-172.59994c87.64005,0 158.93477,77.43291 158.93477,172.59994z" fill="url(#color-3)" stroke="none" stroke-width="1"/><path d="M91.36268,206.87485c0,-77.96839 63.20589,-141.17427 141.17427,-141.17427c77.96839,0 141.17427,63.20589 141.17427,141.17427c0,77.96839 -63.20589,141.17427 -141.17427,141.17427c-77.96839,0 -141.17427,-63.20589 -141.17427,-141.17427z" fill="url(#color-4)" stroke="none" stroke-width="1"/><g><path d="M207.9001,193.78185c-3.52632,-24.29289 40.52449,-86.0663 40.52449,-86.0663l56.90723,26.79488c0,0 -8.80686,66.77126 -40.52449,86.0663c-31.71763,19.29504 -53.3809,-2.50199 -56.90722,-26.79488z" fill="#b3b3b3" stroke="none" stroke-width="0"/><path d="M312.32851,143.35339c-10.74714,24.67306 -85.02526,-7.68113 -74.27813,-32.35419c10.74714,-24.67306 56.59847,-28.49743 56.59847,-28.49743c0,0 28.42679,36.17856 17.67966,60.85162z" fill="#4c4c4c" stroke="none" stroke-width="0"/><path d="M268.12536,175.44866c-4.65914,10.37436 -14.52146,16.0515 -22.02811,12.68025c-7.50664,-3.37125 -9.81501,-14.51427 -5.15587,-24.88862c4.65914,-10.37436 14.52147,-16.0515 22.02812,-12.68025c7.50664,3.37125 9.815,14.51427 5.15586,24.88862z" fill="none" stroke="#4c4c4c" stroke-width="15"/><path d="M205.18301,296.24168c-0.95072,1.13021 -2.19554,2.00236 -3.07981,3.18529c-2.88439,2.80624 -4.50517,6.27964 -7.81387,8.75086c-0.69744,0.52091 -3.95035,2.65893 -5.02139,2.57585c-2.96354,-0.22989 -6.84811,0.42814 -8.71603,-1.88407c-1.83538,-2.27193 -0.3671,-5.88083 0.11623,-8.76121c0.16205,-0.96572 1.16065,-1.57752 1.74986,-2.35964c0.86788,-1.15204 1.76772,-2.17758 2.45232,-3.46854c2.00157,-3.77442 2.75479,-7.59311 3.92455,-11.58093c0.19509,-0.66509 0.63314,-1.24217 0.82824,-1.90726c0.0869,-0.29627 0.16496,-0.58489 0.23875,-0.86808c-0.60885,1.11401 -1.33243,2.17003 -2.18949,3.0958c-0.71141,0.76845 -1.3949,1.57934 -2.22454,2.21834c-0.28661,0.22076 -0.78561,0.0449 -1.0434,0.29872c-0.39077,0.38472 -0.39039,1.04955 -0.74818,1.46512c-0.38003,0.44141 -0.80312,0.82837 -1.25945,1.1731l-0.18807,0.4331c-1.42945,3.29173 -5.25672,4.8014 -8.54845,3.37196c-3.29173,-1.42945 -4.8014,-5.25672 -3.37196,-8.54845l0.3168,-0.72952c0.13449,-0.94531 0.50049,-1.85176 0.73229,-2.78075c0.13267,-0.53165 0.00055,-1.10876 0.14436,-1.63751c0.7403,-2.72189 2.35932,-6.26415 3.72757,-8.71509c1.33371,-2.38905 3.18232,-4.62636 4.69314,-6.91595c1.26309,-2.97825 2.3619,-6.22108 3.98484,-9.02121c0.82722,-1.42723 2.29209,-2.90087 2.65595,-4.58527c0.05982,-0.27689 -0.18677,-0.53977 -0.21844,-0.82127c-0.19567,-1.73911 -0.42024,-3.47744 -0.51425,-5.22499c-0.02407,-0.44734 -0.10859,-10.84899 -0.08341,-11.19817c0.33241,-4.60741 1.43288,-9.75991 2.93478,-14.13125c0.44395,-1.29214 1.41705,-2.39439 1.69439,-3.73223c0.27403,-1.32187 0.36962,-2.67681 0.64862,-3.99763c0,0 0.61945,-2.87399 2.95818,-4.33896c0.03211,-0.14185 0.07089,-0.28316 0.11683,-0.42386c0.83336,-2.55234 4.05015,-3.68686 6.53019,-4.7156c1.28657,-0.53368 2.79835,0.03167 4.16938,0.2773c0.53474,0.0958 0.92038,0.64472 1.4568,0.73066c0.76516,0.12258 1.55863,-0.2622 2.32138,-0.12539c1.42382,0.25539 2.64626,1.1872 4.0287,1.61305c1.12692,0.34714 2.36973,0.13441 3.51132,0.42973c0.83959,0.21721 1.6124,0.63921 2.41859,0.95881c10.25267,4.45227 20.44697,8.92153 30.9,12.86053c1.30403,0.4914 2.62176,0.95905 3.97149,1.30579c3.53118,0.90715 9.10953,1.04721 11.24344,4.52602c1.24326,2.02682 -0.09561,4.76173 -0.36903,7.12372c-0.26582,2.2964 -2.42404,4.42122 -2.97532,6.64092c-0.13208,0.5318 -0.00055,1.10876 -0.14436,1.6375c-0.18395,0.67633 -1.19267,2.95712 -1.57999,3.84904c-0.38199,0.59586 -0.24216,1.39683 -0.42791,2.07982c-0.2276,0.83684 -0.61338,1.62312 -0.95881,2.41859c-1.04689,2.41077 -2.83002,4.25281 -3.56374,6.82209c-0.3718,1.30194 -0.50657,3.35366 -0.86436,4.55773c-0.34549,1.1627 -1.15454,2.16116 -1.44942,3.33771c-0.91942,3.66858 -2.42334,7.00775 -3.93596,10.49101c-1.53817,3.54208 -2.93903,6.8925 -5.12398,10.09699c-2.03826,2.49084 -2.63458,5.85515 -4.18902,8.65943c-2.17762,3.92849 -5.12425,7.50987 -7.24056,11.47705c-0.48934,0.91731 -0.75048,1.94495 -1.24236,2.8609c-0.7591,1.41355 -1.70047,2.21326 -2.14515,3.64929c-1.49921,4.84163 -2.49799,9.74753 -4.5357,14.40105c-0.44389,1.01371 -1.21463,3.00402 -2.20868,3.78106l-0.5458,1.25686c-1.42945,3.29173 -5.25672,4.8014 -8.54845,3.37195c-2.68114,-1.16429 -4.18002,-3.91935 -3.87142,-6.6801l0.1312,-1.48825l0.21031,0.01854c0.04796,-0.13362 0.10059,-0.26656 0.15794,-0.39864l0.05564,-0.12812l-0.2489,-0.52125c0.56895,-1.36642 0.80907,-2.84783 1.24571,-4.2621c0.28096,-0.91004 0.81255,-1.72773 1.11371,-2.63129c0.66655,-1.99987 0.87483,-4.13265 1.53109,-6.13591c0.6453,-1.96979 1.35581,-3.85059 1.97504,-5.82937c0.54365,-1.73728 0.28436,-3.13459 0.63802,-5.02745c0.20129,-1.07732 0.58063,-2.23553 0.96467,-3.42105c-1.81086,1.37903 -4.29425,1.76439 -6.53049,0.7933c-1.24916,-0.54246 -2.24169,-1.43021 -2.91435,-2.50297c-0.62123,0.96366 -1.12088,2.02861 -1.85785,2.90472z" fill="url(#color-5)" stroke="none" stroke-width="0.5"/></g></g></g></svg>