<svg version="1.1" xmlns="http://www.w3.org/2000/svg" xmlns:xlink="http://www.w3.org/1999/xlink" width="423.25442" height="376.99979" viewBox="0,0,423.25442,376.99979"><defs><linearGradient x1="240.75075" y1="-1.27936" x2="240.75075" y2="375.59752" gradientUnits="userSpaceOnUse" id="color-1"><stop offset="0" stop-color="#ffad00"/><stop offset="1" stop-color="#ffd200"/></linearGradient><linearGradient x1="263.84763" y1="-1.02451" x2="241.61257" y2="231.2101" gradientUnits="userSpaceOnUse" id="color-2"><stop offset="0" stop-color="#ffffff"/><stop offset="1" stop-color="#ffffff" stop-opacity="0"/></linearGradient></defs><g transform="translate(-21.70053,1.40228)"><g data-paper-data="{&quot;isPaintingLayer&quot;:true}" fill-rule="nonzero" stroke-linejoin="miter" stroke-miterlimit="10" stroke-dasharray="" stroke-dashoffset="0" style="mix-blend-mode: normal"><path d="M444.95495,187.15908c0,104.07168 -91.42534,188.43844 -204.2042,188.43844c-112.77887,0 -204.2042,-84.36676 -204.2042,-188.43844c0,-104.07168 91.42534,-188.43844 204.2042,-188.43844c112.77887,0 204.2042,84.36676 204.2042,188.43844z" fill="url(#color-1)" stroke="none" stroke-width="0" stroke-linecap="butt"/><text transform="matrix(1.84364 0 0 1.84364 179.5914 89.76816)" font-size="40"  fill="#ffffff" fill-rule="nonzero" stroke="none" stroke-width="1" stroke-linecap="butt" stroke-linejoin="miter" stroke-miterlimit="10" stroke-dasharray="" stroke-dashoffset="0" font-family="Helvetica" font-weight="normal" text-anchor="start" style="mix-blend-mode: normal" >1</text><text transform="matrix(1.09964 0 0 1.09964 353.20711 192.38513999999998)" font-size="40"  fill="#ffffff" fill-rule="nonzero" stroke="none" stroke-width="1" stroke-linecap="butt" stroke-linejoin="miter" stroke-miterlimit="10" stroke-dasharray="" stroke-dashoffset="0" font-family="Helvetica" font-weight="normal" text-anchor="start" style="mix-blend-mode: normal" >2</text><text transform="matrix(3.73094 0 0 3.73094 123.93177 219.63155)" font-size="40"  fill="#ffffff" fill-rule="nonzero" stroke="none" stroke-width="1" stroke-linecap="butt" stroke-linejoin="miter" stroke-miterlimit="10" stroke-dasharray="" stroke-dashoffset="0" font-family="Helvetica" font-weight="normal" text-anchor="start" style="mix-blend-mode: normal" >3</text><text transform="matrix(3.56939 0 0 3.56939 242.52486 91.91597000000002)" font-size="40"  fill="#ffffff" fill-rule="nonzero" stroke="none" stroke-width="1" stroke-linecap="butt" stroke-linejoin="miter" stroke-miterlimit="10" stroke-dasharray="" stroke-dashoffset="0" font-family="Helvetica" font-weight="normal" text-anchor="start" style="mix-blend-mode: normal" >4</text><text transform="matrix(1.67122 0 0 1.67122 281.32128 252.68466000000004)" font-size="40"  fill="#ffffff" fill-rule="nonzero" stroke="none" stroke-width="1" stroke-linecap="butt" stroke-linejoin="miter" stroke-miterlimit="10" stroke-dasharray="" stroke-dashoffset="0" font-family="Helvetica" font-weight="normal" text-anchor="start" style="mix-blend-mode: normal" >5</text><text transform="matrix(2.83481 0 0 2.83481 358.23524 111.7894)" font-size="40"  fill="#ffffff" fill-rule="nonzero" stroke="none" stroke-width="1" stroke-linecap="butt" stroke-linejoin="miter" stroke-miterlimit="10" stroke-dasharray="" stroke-dashoffset="0" font-family="Helvetica" font-weight="normal" text-anchor="start" style="mix-blend-mode: normal" >6</text><g fill="none" stroke="#ffffff" stroke-width="2.5" stroke-linecap="round"><path d="M141.75983,284.07172l-50.96353,-25.24486"/><path d="M83.89643,271.22914l50.24794,24.49312"/></g><g fill="none" stroke="#ffffff" stroke-width="2.5" stroke-linecap="round"><path d="M108.18087,142.03964l56.10304,25.33853"/><path d="M142.5888,127.89326l-12.93903,49.71251"/></g><g fill="none" stroke="#ffffff" stroke-width="10" stroke-linecap="round"><path d="M287.60219,202.47468l-0.54563,28.64552"/><path d="M301.24292,215.29696l-32.46493,-0.54563"/></g><path d="M313.88282,339.0108l76.2837,-35.42712" fill="none" stroke="#ffffff" stroke-width="2.5" stroke-linecap="round"/><g stroke-width="2.5"><path d="M200.78835,95.50511l57.88722,-23.28295" fill="none" stroke="#ffffff" stroke-linecap="round"/><path d="M216.56184,59.06074c-1.0121,-2.58794 0.26537,-5.50637 2.85331,-6.51847c2.58794,-1.0121 5.50637,0.26537 6.51847,2.85331c1.01211,2.58795 -0.26537,5.50637 -2.85331,6.51847c-2.58794,1.0121 -5.50637,-0.26536 -6.51847,-2.85331z" fill="#ffffff" stroke="none" stroke-linecap="butt"/><path d="M234.69753,105.43358c-1.01211,-2.58795 0.26537,-5.50637 2.85331,-6.51847c2.58794,-1.0121 5.50637,0.26536 6.51847,2.85331c1.01211,2.58795 -0.26537,5.50637 -2.85331,6.51847c-2.58794,1.0121 -5.50637,-0.26536 -6.51847,-2.85331z" fill="#ffffff" stroke="none" stroke-linecap="butt"/></g><text transform="matrix(1.06207 0 0 1.06207 140.01029 227.40846)" font-size="40"  fill="#ffffff" fill-rule="nonzero" stroke="none" stroke-width="1" stroke-linecap="butt" stroke-linejoin="miter" stroke-miterlimit="10" stroke-dasharray="" stroke-dashoffset="0" font-family="Helvetica" font-weight="normal" text-anchor="start" style="mix-blend-mode: normal" >7</text><text transform="matrix(0.91987 0 0 0.91987 182.83233 187.67623)" font-size="40"  fill="#ffffff" fill-rule="nonzero" stroke="none" stroke-width="1" stroke-linecap="butt" stroke-linejoin="miter" stroke-miterlimit="10" stroke-dasharray="" stroke-dashoffset="0" font-family="Helvetica" font-weight="normal" text-anchor="start" style="mix-blend-mode: normal" >8</text><text transform="matrix(0.82051 0 0 0.82051 165.8076 312.99769000000003)" font-size="40"  fill="#ffffff" fill-rule="nonzero" stroke="none" stroke-width="1" stroke-linecap="butt" stroke-linejoin="miter" stroke-miterlimit="10" stroke-dasharray="" stroke-dashoffset="0" font-family="Helvetica" font-weight="normal" text-anchor="start" style="mix-blend-mode: normal" >9</text><text transform="matrix(0.81982 0 0 0.81982 184.14563 255.08071999999999)" font-size="40"  fill="#ffffff" fill-rule="nonzero" stroke="none" stroke-width="1" stroke-linecap="butt" stroke-linejoin="miter" stroke-miterlimit="10" stroke-dasharray="" stroke-dashoffset="0" font-family="Helvetica" font-weight="normal" text-anchor="start" style="mix-blend-mode: normal" >10</text><text transform="matrix(0.94675 0 0 0.94675 284.38995 186.21655)" font-size="40"  fill="#ffffff" fill-rule="nonzero" stroke="none" stroke-width="1" stroke-linecap="butt" stroke-linejoin="miter" stroke-miterlimit="10" stroke-dasharray="" stroke-dashoffset="0" font-family="Helvetica" font-weight="normal" text-anchor="start" style="mix-blend-mode: normal" >11</text><text transform="matrix(0.75294 0 0 0.75294 235.00787 195.57137)" font-size="40"  fill="#ffffff" fill-rule="nonzero" stroke="none" stroke-width="1" stroke-linecap="butt" stroke-linejoin="miter" stroke-miterlimit="10" stroke-dasharray="" stroke-dashoffset="0" font-family="Helvetica" font-weight="normal" text-anchor="start" style="mix-blend-mode: normal" >12</text><text transform="matrix(0.73438 0 0 0.73438 327.13875 275.61775)" font-size="40"  fill="#ffffff" fill-rule="nonzero" stroke="none" stroke-width="1" stroke-linecap="butt" stroke-linejoin="miter" stroke-miterlimit="10" stroke-dasharray="" stroke-dashoffset="0" font-family="Helvetica" font-weight="normal" text-anchor="start" style="mix-blend-mode: normal" >13</text><text transform="matrix(0.78196 0 0 0.78196 281.84276 330.61337000000003)" font-size="40"  fill="#ffffff" fill-rule="nonzero" stroke="none" stroke-width="1" stroke-linecap="butt" stroke-linejoin="miter" stroke-miterlimit="10" stroke-dasharray="" stroke-dashoffset="0" font-family="Helvetica" font-weight="normal" text-anchor="start" style="mix-blend-mode: normal" >14</text><text transform="matrix(0.9074 0 0 0.9074 370.54444 262.7262)" font-size="40"  fill="#ffffff" fill-rule="nonzero" stroke="none" stroke-width="1" stroke-linecap="butt" stroke-linejoin="miter" stroke-miterlimit="10" stroke-dasharray="" stroke-dashoffset="0" font-family="Helvetica" font-weight="normal" text-anchor="start" style="mix-blend-mode: normal" >15</text><text transform="matrix(0.94155 0 0 0.94155 184.91535 121.75079)" font-size="40"  fill="#ffffff" fill-rule="nonzero" stroke="none" stroke-width="1" stroke-linecap="butt" stroke-linejoin="miter" stroke-miterlimit="10" stroke-dasharray="" stroke-dashoffset="0" font-family="Helvetica" font-weight="normal" text-anchor="start" style="mix-blend-mode: normal" >78</text><text transform="matrix(0.81302 0 0 0.81302 210.6008 272.89543000000003)" font-size="40"  fill="#ffffff" fill-rule="nonzero" stroke="none" stroke-width="1" stroke-linecap="butt" stroke-linejoin="miter" stroke-miterlimit="10" stroke-dasharray="" stroke-dashoffset="0" font-family="Helvetica" font-weight="normal" text-anchor="start" style="mix-blend-mode: normal" >87</text><path d="M55.84293,103.05672c6.14005,-64.12981 96.77916,-109.07005 208.00471,-104.08122c111.22555,4.98883 155.87364,59.51907 149.7336,123.64889c-2.48177,25.92087 -6.7715,43.08222 -33.51943,61.28775c-10.75964,7.32336 -38.11909,0.41606 -49.54534,1.72375c-30.44459,3.48426 -48.51372,1.18248 -96.69831,-0.97876c-42.42611,-1.90295 -86.4519,8.03378 -117.67773,-6.33906c-25.79196,-11.87169 -35.15334,-23.10787 -43.52237,-33.5711c-4.55933,-5.70023 -4.45814,-14.10479 -7.0865,-21.24303c-2.01904,-5.48342 -7.4952,-8.98862 -6.68563,-17.44423z" data-paper-data="{&quot;index&quot;:null}" fill="url(#color-2)" stroke="none" stroke-width="0" stroke-linecap="butt"/></g></g></svg>