<svg version="1.1" xmlns="http://www.w3.org/2000/svg" xmlns:xlink="http://www.w3.org/1999/xlink" width="386.40481" height="354.97229" viewBox="0,0,386.40481,354.97229"><defs><linearGradient x1="236.12449" y1="29.24306" x2="236.12449" y2="382.86379" gradientUnits="userSpaceOnUse" id="color-1"><stop offset="0" stop-color="#00d8ff"/><stop offset="1" stop-color="#006efa"/></linearGradient><linearGradient x1="266.11495" y1="216.34334" x2="243.87989" y2="-15.89127" gradientUnits="userSpaceOnUse" id="color-2"><stop offset="0" stop-color="#ffffff" stop-opacity="0"/><stop offset="1" stop-color="#ffffff"/></linearGradient></defs><g transform="translate(-49.99778,-27.8915)"><g data-paper-data="{&quot;isPaintingLayer&quot;:true}" fill-rule="nonzero" stroke-linecap="butt" stroke-linejoin="miter" stroke-miterlimit="10" stroke-dasharray="" stroke-dashoffset="0" style="mix-blend-mode: normal"><path d="M418.61311,204.3931c0,58.54548 9.14947,134.33922 -36.62674,165.7421c-29.11266,19.97154 -103.69001,7.68133 -142.05194,7.68133c-32.45404,0 -131.95625,12.62302 -158.18752,-2.05614c-53.52897,-29.9551 -20.49116,-107.08769 -20.49116,-171.36729c0,-54.03495 -6.07011,-123.319 33.84333,-155.12451c30.83473,-24.57103 101.82621,-18.29891 144.83535,-18.29891c46.24992,0 124.43168,-9.9717 156.16106,18.01246c35.97026,31.72447 22.51762,104.52148 22.51762,155.41097z" fill="url(#color-1)" stroke="none" stroke-width="0"/><path d="M61.11325,109.25912c-0.80957,-8.45561 4.66659,-11.96081 6.68563,-17.44423c2.62836,-7.13824 2.52717,-15.5428 7.0865,-21.24303c8.36903,-10.46323 17.73041,-21.69941 43.52237,-33.5711c31.22583,-14.37284 75.25162,-4.43611 117.67773,-6.33906c48.18459,-2.16124 66.25372,-4.46302 96.69831,-0.97876c11.42625,1.30769 38.7857,-5.59961 49.54534,1.72375c26.74793,18.20553 31.03766,35.36688 33.51943,61.28775c6.14004,64.12982 -38.50805,118.66006 -149.7336,123.64889c-111.22555,4.98883 -201.86466,-39.95141 -208.00471,-104.08122z" fill="url(#color-2)" stroke="none" stroke-width="0"/><path d="M424.57842,161.14794c1.71647,1.76777 0,3.53553 0,3.53553l-0.89668,0.92348c-1.06423,1.09603 -2.48398,1.89915 -3.23826,3.24046c-0.96655,1.71877 -1.70368,3.63718 -3.03848,5.07081c-1.16994,0.85973 -2.07304,2.61576 -3.50982,2.57918c-4.01207,-0.10214 -4.64805,-8.29032 -8.55248,-7.42448c-0.73663,0.16335 -1.14689,1.00952 -1.75782,1.46376c-1.88459,1.40122 -2.60654,1.44667 -3.95264,3.19875c-1.51327,1.96967 -2.07869,4.60793 -3.64415,6.53386c-0.58166,0.71559 -1.86946,0.59389 -2.36962,1.37209c-0.34235,0.53267 0.34389,1.26211 0.26904,1.89624c-0.16439,1.39275 -0.60611,2.73691 -0.9753,4.08741c-0.69651,2.54789 -2.31777,5.3913 -2.62457,8.01276c-0.28246,2.41347 0.34692,4.88629 0.01316,7.2928c-0.54834,3.95371 -1.80651,6.22934 -1.80651,10.25322c-0.87876,2.80568 -1.57195,6.68044 -3.02123,9.22515c-0.42772,0.75101 -1.34723,1.10739 -1.79336,1.84695c-0.90885,1.50662 -1.26823,3.34286 -1.45323,5.1063c-0.18202,1.73512 0.31167,3.52879 -0.04253,5.23546c-0.57046,2.74875 -2.28944,5.19527 -2.63691,7.98324c-0.24191,1.94104 0.81318,3.85462 0.80832,5.81158c-0.00652,2.62166 -1.677,10.3821 -3.4172,12.03388c-0.73889,0.70135 -1.51877,-1.50219 -2.49679,-1.73968c-0.35205,-0.08549 0.11669,0.80005 -0.07689,1.11472c-0.40977,0.66612 -1.15491,1.04786 -1.63257,1.66416c-1.82559,2.35542 -3.50139,4.9736 -5.14284,7.59737l0.13935,0.05741l-1.77236,4.56331c-0.34424,0.94948 -1.23287,1.62559 -2.27483,1.62559c-1.09196,0 -2.01553,-0.74256 -2.32059,-1.76412l-0.74101,-2.28947c-0.5086,-0.49687 -2.39262,-2.3417 -2.64067,-2.43286c-0.31018,-0.11399 -0.68259,0.17262 -0.89438,0.43236c-1.21332,1.48801 -2.05797,3.33727 -3.52118,4.56396c-1.89368,1.58758 -3.61325,3.41252 -5.64286,4.81065c-0.78564,0.5412 -1.87042,0.43867 -2.69003,0.92348c-0.94469,0.55879 -1.43116,2.0116 -2.51183,2.15345c-5.45357,0.71581 -10.18914,-6.66415 -11.02392,-11.26742c-0.31914,-1.75987 -0.2801,-3.60711 -0.8467,-5.29964c-1.28153,-6.64116 -4.17097,-12.84463 -6.24032,-19.26547c-0.4792,-1.48687 -1.24252,-2.86768 -1.69807,-4.36241c-0.23004,-0.7548 0.34897,-2.01058 -0.34656,-2.34633c-0.6104,-0.29466 -0.92979,1.00557 -1.39972,1.50335c-0.55457,0.58743 -1.05278,1.24005 -1.67373,1.7522c-2.93539,2.42105 -5.82182,4.77772 -8.85039,7.10559c-1.38874,1.06744 -2.50816,2.56855 -4.08203,3.31534c-1.52086,0.72164 -3.36384,1.55812 -4.93567,0.96349c-1.68582,-0.63776 -1.45948,-4.02359 -3.20456,-4.46071c-4.07698,-1.02125 -8.96754,1.68134 -12.425,3.46345c-2.8314,1.95043 -5.16064,4.33483 -7.86914,6.33016c-1.08718,0.80091 -2.46984,1.09061 -3.58671,1.84695c-0.85786,0.58095 -1.29086,1.85947 -2.28377,2.12854c-1.57905,0.42792 -3.48604,0.66644 -4.89517,-0.18307c-1.352,-0.81507 -1.34727,-2.95367 -2.35582,-4.18827c-1.76062,-2.15523 -4.97826,-2.5154 -6.99113,-4.42206c-0.53301,-0.50489 0.0498,-1.84616 -0.61305,-2.14654c-0.51103,-0.23158 -0.447,1.09732 -0.86746,1.47562c-2.28534,2.0562 -4.29273,2.7404 -7.32666,3.17157c-3.70515,0.52656 -7.59582,0.86113 -11.35934,1.23112c-1.87881,0.18471 -3.7795,0.92241 -5.63516,0.56768c-4.60713,-0.88071 -8.32161,-7.1698 -9.5773,-11.27702c-2.66832,-2.74806 -2.45768,-4.74751 -3.02123,-8.30167c-0.35564,-2.24298 -1.4866,-4.31064 -1.80651,-6.55932c-0.12554,-0.8824 0.15079,-1.79494 0.01316,-2.67543c-0.8361,-5.34874 -4.60013,-9.13901 -7.51746,-13.34819c-0.91547,-1.32086 -1.8726,-2.61219 -2.74491,-3.96368c-0.53744,-0.83267 -0.51469,-2.48277 -1.48063,-2.58303c-1.07047,-0.11111 -1.59556,1.48942 -2.43994,2.17609c-2.062,1.67687 -4.37253,3.13091 -6.86361,3.99099c-3.71141,1.28142 -8.6692,3.30724 -10.19023,7.23997c-1.02246,6.38826 -1.30332,12.8008 -3.54424,18.95994c-1.35211,3.71627 -3.20492,7.20956 -4.45718,11.0049c-0.89895,2.72454 -0.28686,8.59964 -3.53853,9.95383c-1.73518,0.72263 -3.1623,-2.77726 -5.0411,-2.70355c-2.31667,0.09089 -4.04214,2.76351 -5.63444,4.05073c-3.38721,2.73823 -10.03587,6.25597 -14.01558,2.60484c-0.97805,-0.8973 -0.98873,-2.49842 -1.48309,-3.74762c-0.77805,-2.47417 -1.67606,-4.57168 -3.71948,-6.24501c-0.94385,-0.77291 -2.19437,-1.17567 -2.97086,-2.1258c-0.91109,-1.11482 -1.15415,-2.67685 -1.9428,-3.88663c-0.48968,-0.75116 -1.50045,-1.10274 -1.85064,-1.9325c-0.46973,-1.11301 -0.02518,-2.48952 -0.48683,-3.60611c-0.18507,-0.44762 -0.13894,1.00704 -0.42897,1.39106c-0.84428,1.1179 -1.93894,2.00888 -2.90216,3.01966c-1.06489,1.11746 -2.25825,2.12157 -3.18211,3.36503c-2.3064,3.10425 -2.59241,5.86899 -5.69422,8.48742c-0.30223,0.25513 -5.34221,1.95407 -6.03179,2.19055c-4.74324,1.62665 -9.64043,2.32165 -14.43578,3.72249c-2.17783,0.6362 -4.83628,2.13857 -7.20417,0.72736c-1.38465,-0.82522 -1.91192,-2.64215 -2.86788,-3.96323c-0.22032,-1.08839 -0.11802,-2.30423 -0.66097,-3.26516c-0.33862,-0.5993 -3.26132,-1.65319 -3.78466,-1.74283c-4.08568,-0.69976 -9.41692,4.06469 -13.31006,1.58342c-1.44137,-0.91865 -2.30579,-2.64459 -2.97124,-4.25015c-0.5105,-1.23172 0.3815,-5.43436 -1.26341,-6.53574c-0.30325,-0.20304 0.12031,0.80244 -0.07689,1.11472c-1.15227,1.8247 -2.98624,3.08102 -4.48339,4.61738c-3.0164,3.09541 -6.69883,5.27335 -10.23341,7.70016c0,0 -2.01976,1.38675 -3.36627,-0.69338c-1.34651,-2.08013 0.67325,-3.46688 0.67325,-3.46688c4.48949,-3.08244 8.36932,-5.91767 12.18353,-9.84587c0.94921,-0.97758 4.268,-4.59859 5.30318,-4.42613c3.62301,0.6036 5.40067,4.55053 5.98282,7.64039c0.08871,0.47084 -0.52529,3.15623 0.54266,3.73712c0.37631,0.20468 0.83465,-0.17292 1.24802,-0.27708c0.76374,-0.19245 6.68067,-1.78135 7.17342,-1.84695c3.38,-0.45001 8.22954,0.7794 10.35093,3.81157c0.81065,1.15869 0.75492,2.74843 1.13238,4.12264c0.23961,0.52587 0.25255,1.25077 0.71883,1.57762c0.3262,0.22866 0.77843,-0.14472 1.15578,-0.26353c2.03442,-0.64053 4.05659,-1.34176 6.13302,-1.81833c3.58722,-0.82332 7.03766,-1.50455 10.52506,-2.70304c1.5647,-0.53773 3.47476,-0.39919 4.72834,-1.50335c1.05939,-0.93312 4.21842,-6.85553 4.6815,-7.47531c0.12087,-0.16177 6.43154,-6.91252 6.85361,-7.20379c1.50438,-1.03813 3.27039,-2.99713 4.9511,-2.30284c1.94387,0.803 1.92938,3.83994 3.09988,5.62864c0.45399,0.69377 1.28791,1.06363 1.73607,1.7614c0.69443,1.08121 0.84378,2.50044 1.64391,3.50117c0.60389,0.75529 1.66909,0.9547 2.4092,1.5681c2.76714,2.29341 4.13361,5.16614 5.24729,8.53059c0.56792,3.28242 3.19901,1.60534 5.59738,0.39173c4.40406,-2.22852 8.19396,-8.95584 13.73701,-6.13616c0.02818,-2.44292 1.33932,-5.2026 2.08703,-7.25355c1.03564,-2.84074 2.55409,-5.47787 3.58938,-8.31875c2.19419,-6.02094 2.41063,-12.35259 3.43211,-18.60825c2.07214,-4.98677 5.68137,-7.17447 10.33155,-9.55095c1.67345,-0.85522 3.70373,-0.85072 5.31997,-1.81561c1.2169,-0.72648 2.14638,-1.89625 3.35882,-2.6306c1.88319,-1.14061 3.72082,-3.26793 5.88616,-2.96887c2.06863,0.28571 6.26827,6.89577 7.43892,8.58253c3.42242,4.93129 7.32384,9.2342 8.35908,15.45347c0.1567,0.94142 -0.11438,1.91935 0.01316,2.86542c0.29501,2.18833 1.4213,4.19115 1.7802,6.36933c0.30786,1.86846 -0.48461,2.97828 0.56548,4.62698c0.46369,0.72801 1.19557,1.2313 1.79336,1.84695c1.13694,3.3538 2.25119,5.27604 4.85413,7.69225c0.53283,0.49461 0.99612,1.26298 1.70877,1.34718c3.41914,0.40401 8.39561,-1.51656 11.75657,-1.90166c3.22692,-0.36974 3.48446,0.61352 6.43058,-0.72193c2.01834,-0.9149 4.46157,-4.23241 6.83816,-3.85907c1.46276,0.22979 1.81517,2.44629 2.97366,3.39431c2.61785,2.14225 5.1219,2.06491 7.35571,4.81269c0.71506,0.87959 0.66786,2.2097 1.23089,3.19953c0.4154,0.7303 1.1075,-1.27364 1.78784,-1.74843c1.10657,-0.77223 2.49845,-1.04759 3.58671,-1.84695c2.82108,-2.07218 5.30991,-4.5715 8.27105,-6.5985c5.59042,-2.8764 14.99345,-7.4462 20.18439,-1.20216c0.43207,0.51972 -0.21367,1.42526 0.05315,2.05184c0.12934,0.30373 0.20965,-0.65642 0.4444,-0.88346c1.0962,-1.06024 2.29937,-1.99912 3.50006,-2.93161c2.95447,-2.29454 5.79501,-4.59387 8.67449,-6.96391c0.69939,-0.57565 1.1193,-1.51503 1.91298,-1.9417c1.81821,-0.97744 3.81306,-2.81067 5.7737,-2.19055c1.87057,0.59163 2.32002,3.26289 3.24015,5.04147c1.87065,3.61591 2.07582,7.47789 3.61496,11.14913c1.90254,4.53802 3.62878,8.34026 4.58685,13.24369c1.44881,4.60917 0.81454,7.00828 3.97108,11.00884c0.5966,0.75612 1.23382,2.38564 2.09184,1.97531c0.55686,-0.26631 0.55668,-1.20132 1.07488,-1.54045c0.79774,-0.52208 1.90271,-0.38488 2.69003,-0.92348c0.96798,-0.66217 1.53721,-1.80768 2.42724,-2.57715c1.34451,-1.16239 3.04408,-1.93743 4.14511,-3.34552c2.05184,-2.62407 2.29742,-5.09727 6.68284,-4.58681c1.63738,0.19059 3.31823,1.73856 4.69495,3.19533c0.00255,-0.01146 0.00519,-0.02292 0.00792,-0.03438c0.27686,-1.16171 1.27955,-1.99673 1.92194,-2.9933c1.72229,-2.67187 3.23458,-5.70324 5.68336,-7.76882c1.11189,-0.93789 2.08494,-2.38559 3.50982,-2.57918c0.72315,-0.09825 0.80076,2.64389 1.08992,1.95422c0.3587,-0.85552 -0.78393,-1.74349 -0.78757,-2.67535c-0.0058,-1.48622 0.76443,-2.90323 0.76001,-4.38946c-0.00649,-2.17947 -1.04532,-4.32458 -0.78797,-6.48788c0.2081,-1.74925 0.48439,-3.50732 1.01625,-5.18237c0.39109,-1.23169 1.46713,-2.18899 1.7269,-3.45694c0.56952,-2.77983 0.11786,-5.7556 0.93792,-8.4682c0.34229,-1.13222 0.57274,-2.32923 1.15304,-3.35345c0.42606,-0.752 1.3495,-1.10595 1.79336,-1.84695c1.17819,-1.96694 1.61319,-5.18836 2.35884,-7.3974c0,-3.84671 1.26486,-6.34874 1.7802,-10.06323c0.34257,-2.46919 -0.29576,-5.0089 0.01316,-7.4828c0.50604,-4.05244 2.93508,-7.83126 3.57355,-11.91018c0.18828,-1.20285 -0.31375,-2.58433 0.26904,-3.64461c0.6176,-1.1236 2.20997,-1.32813 3.01045,-2.32181c2.23014,-2.76841 2.72915,-6.1408 5.6609,-8.59012c3.83338,-3.20259 6.63757,-5.4212 11.70176,-3.01257c1.03623,0.49285 1.73842,1.53916 2.4746,2.43748c0.68583,0.83687 1.31363,1.74361 1.77478,2.73043c0.00434,-0.04759 0.00828,-0.09519 0.01157,-0.1428c1.13679,-1.09635 1.52369,-2.79897 2.34159,-4.16394c0.18845,-0.3145 3.49281,-3.69178 3.93516,-4.14734l0.89668,-0.92348c0,0 1.71647,-1.76777 3.43294,0z" fill="#ffffff" stroke="#ffffff" stroke-width="10"/></g></g></svg>