<svg version="1.1" xmlns="http://www.w3.org/2000/svg" xmlns:xlink="http://www.w3.org/1999/xlink" width="52.5" height="52.62929" viewBox="0,0,52.5,52.62929"><g transform="translate(-213.75112,-153.68536)"><g data-paper-data="{&quot;isPaintingLayer&quot;:true}" fill-rule="nonzero" stroke-linejoin="miter" stroke-miterlimit="10" stroke-dasharray="" stroke-dashoffset="0" style="mix-blend-mode: normal"><path d="M216.00112,204.01148v-48h48v48z" fill="#007dff" stroke="none" stroke-width="0" stroke-linecap="butt"/><path d="M215.00112,160.26148v39.5" fill="none" stroke="#000000" stroke-width="2.5" stroke-linecap="round"/><path d="M265.00113,160.26148v39.5" fill="none" stroke="#000000" stroke-width="2.5" stroke-linecap="round"/><path d="M220.25116,154.97508l39.49993,0.07281" fill="none" stroke="#000000" stroke-width="2.5" stroke-linecap="round"/><path d="M259.75109,205.04789l-39.49993,-0.07281" fill="none" stroke="#000000" stroke-width="2.5" stroke-linecap="round"/><path d="M222.23024,155.02367c-0.06338,1.24839 -1.31178,1.18501 -1.31178,1.18501l-0.40342,-0.02417c-3.42719,0.08682 -4.36541,0.11421 -4.24503,3.74738c0,0 0.03255,1.24958 -1.21703,1.28213c-1.24958,0.03255 -1.28213,-1.21703 -1.28213,-1.21703c-0.10056,-4.93715 1.99638,-6.18653 6.67908,-6.31163l0.59529,0.02654c0,0 1.24839,0.06338 1.18501,1.31178z" fill="#000000" stroke="none" stroke-width="0.5" stroke-linecap="butt"/><path d="M258.95475,153.8119l0.5953,-0.02654c4.6827,0.1251 6.77964,1.37448 6.67908,6.31163c0,0 -0.03255,1.24957 -1.28213,1.21703c-1.24957,-0.03255 -1.21703,-1.28213 -1.21703,-1.28213c0.12038,-3.63316 -0.81784,-3.66056 -4.24503,-3.74738l-0.40342,0.02417c0,0 -1.24839,0.06338 -1.31178,-1.18501c-0.06338,-1.24839 1.185,-1.31177 1.185,-1.31177z" data-paper-data="{&quot;index&quot;:null}" fill="#000000" stroke="none" stroke-width="0.5" stroke-linecap="butt"/><path d="M257.76975,204.97633c0.06338,-1.24839 1.31178,-1.18501 1.31178,-1.18501l0.40342,0.02417c3.42719,-0.08682 4.36541,-0.11422 4.24504,-3.74738c0,0 -0.03255,-1.24957 1.21702,-1.28212c1.24957,-0.03255 1.28213,1.21703 1.28213,1.21703c0.10056,4.93715 -1.99638,6.18653 -6.67908,6.31163l-0.5953,-0.02654c0,0 -1.24839,-0.06339 -1.185,-1.31178z" data-paper-data="{&quot;index&quot;:null}" fill="#000000" stroke="none" stroke-width="0.5" stroke-linecap="butt"/><path d="M221.04523,206.18811l-0.5953,0.02654c-4.6827,-0.1251 -6.77964,-1.37448 -6.67908,-6.31163c0,0 0.03255,-1.24957 1.28213,-1.21703c1.24957,0.03255 1.21702,1.28213 1.21702,1.28213c-0.12038,3.63316 0.81785,3.66056 4.24504,3.74738l0.40342,-0.02417c0,0 1.24839,-0.06338 1.31178,1.18501c0.06338,1.24839 -1.185,1.31177 -1.185,1.31177z" data-paper-data="{&quot;index&quot;:null}" fill="#000000" stroke="none" stroke-width="0.5" stroke-linecap="butt"/></g></g></svg>