<svg xmlns="http://www.w3.org/2000/svg" xmlns:xlink="http://www.w3.org/1999/xlink" version="1.1" width="511.29275035858154" height="383.99993419647217" viewBox="0.2392265796661377 0.4392266273498535 511.29275035858154 383.99993419647217">
  <!-- Exported by Scratch - http://scratch.mit.edu/ -->
  <path id="ID0.41042835358530283" fill="#FFFFFF" stroke="#FFFFFF" stroke-width="2.121546745300293" d="M 1.3 1.5 L 510.4712 1.5 L 510.4712 383.3784 L 1.3 383.3784 L 1.3 1.5 Z "/>
  <g id="ID0.8279604502022266">
    <g id="ID0.2712148008868098">
      <path id="ID0.7152078151702881_1_" fill="#FAA51D" stroke="#000000" d="M 268.4382 183.7148 C 265.389 184.2634 261.6003 184.5431 257.7458 183.0469 C 249.1264 179.7012 243.4534 170.9405 239.8447 175.1231 C 236.2325 179.3095 242.168 194.6892 258.2722 194.0111 C 263.823 193.7807 268.3232 192.081 271.9316 190.5991 C 272.8762 190.2057 280.7351 186.3772 281.989 181.2901 C 283.2425 176.2021 280.9266 175.9329 279.7621 175.7376 C 278.5961 175.5447 272.749 182.9381 268.4382 183.7148 L 268.4382 183.7148 Z " stroke-width="0.6855201948611896"/>
      <path id="ID0.4691764716990292_1_" fill="#FFFFFF" d="M 240.623 175.1726 C 238.5527 176.7847 239.2336 182.4382 241.9693 186.0999 C 244.7068 189.7666 247.3197 190.842 249.3841 191.914 C 251.6494 192.4536 247.4614 189.4051 249.1327 186.4132 C 250.7987 183.4303 255.4811 182.773 255.4811 182.773 C 255.4811 182.773 250.2699 179.3749 247.2342 177.2771 C 244.3487 175.2579 242.901 173.6314 240.623 175.1726 L 240.623 175.1726 Z " stroke-width="0.6855201948611896"/>
    </g>
    <path id="ID0.7115552560426295" fill="#FAA51D" stroke="#000000" stroke-width="0.8226242109230979" d="M 291.9324 175.7023 C 291.4025 176.9601 290.3029 177.9583 288.8736 178.304 L 276.5933 181.2766 C 275.1117 181.6352 273.5499 181.2122 272.4525 180.154 L 263.4249 171.4509 C 261.6532 169.7423 261.6035 166.9216 263.3091 165.1501 C 265.0178 163.3784 267.8386 163.3266 269.6099 165.0343 L 276.8757 172.0389 L 286.777 169.6423 C 289.1691 169.0636 291.5766 170.5331 292.1562 172.9248 C 292.3895 173.8885 292.2902 174.854 291.9324 175.7023 L 291.9324 175.7023 Z "/>
    <path id="ID0.10610466729849577" fill="#FAA51D" stroke="#000000" stroke-width="0.8226242775096845" d="M 307.1914 159.2879 C 307.1941 159.302 307.1968 159.3162 307.1995 159.3303 L 309.6845 172.8712 C 309.9857 174.5054 309.4789 176.1845 308.3233 177.379 C 307.1684 178.5741 305.5059 179.1361 303.863 178.8883 L 291.6131 177.0451 L 280.3779 185.3415 C 278.0935 187.0281 274.8742 186.5435 273.1875 184.2592 C 271.5011 181.9761 271.9853 178.7548 274.2698 177.0688 L 287.2189 167.5082 C 288.3162 166.6982 289.6894 166.3569 291.0375 166.5598 L 298.2651 167.6468 L 297.0833 161.1761 C 296.5731 158.3828 298.4244 155.7048 301.2184 155.1945 C 303.9966 154.6892 306.662 156.5185 307.1914 159.2879 L 307.1914 159.2879 Z "/>
    <path id="ID0.26425604708492756_1_" fill="#FAA51D" stroke="#231F20" stroke-width="0.8226242387911403" d="M 282.1006 169.5524 C 280.8375 168.1483 278.8466 166.7748 275.7898 165.0469 C 273.2415 163.6067 268.5155 162.1992 268.5155 162.1992 C 265.2614 161.3469 260.0612 160.4116 259.5317 165.3038 C 259.3179 167.2835 259.8077 170.4399 259.3068 175.0191 C 258.8019 179.6014 256.802 183.8097 263.0441 186.7618 C 269.2889 189.7122 274.3771 198.006 283.9641 186.4686 L 282.1006 169.5524 Z "/>
    <path id="ID0.46752600744366646" fill="#FAA51D" stroke="#000000" stroke-width="0.82262431214615" d="M 310.7105 169.0273 L 315.2004 185.1821 C 315.7004 186.9813 315.1855 188.9096 313.8559 190.2211 C 312.526 191.5314 310.5901 192.0182 308.7989 191.4922 L 292.9751 186.8461 L 280.7008 190.1913 C 277.9691 190.9356 275.152 189.3322 274.395 186.6083 C 274.3926 186.5997 274.3904 186.5918 274.388 186.5832 C 273.6414 183.843 275.2574 181.0174 277.9961 180.2705 L 291.6747 176.5428 C 292.5934 176.2924 293.5623 176.3021 294.4758 176.5704 L 302.8156 179.0189 L 300.8041 171.7813 C 300.0435 169.0449 301.6446 166.2114 304.381 165.4509 C 307.1173 164.6904 309.95 166.2909 310.7105 169.0273 L 310.7105 169.0273 Z "/>
    <path id="ID0.203311821911484_1_" fill="#FFFFFF" d="M 273.3933 164.5403 C 273.3933 164.5403 269.8082 161.6964 266.952 168.1634 C 264.0959 174.6305 267.6366 177.2311 269.7186 178.9977 C 273.3146 182.0609 280.4782 174.4946 280.4782 174.4946 L 281.4073 169.7184 C 281.4073 169.7184 279.1679 167.6959 277.4189 166.8687 C 275.8073 165.8906 273.3933 164.5403 273.3933 164.5403 " stroke-width="0.685520198992617"/>
    <path id="ID0.17305035842582583" fill="#FAA51D" d="M 282.7276 179.4352 C 285.1992 181.5166 285.2637 185.5072 282.8713 188.3483 C 280.4797 191.1899 276.5355 191.8064 274.0638 189.7242 C 271.5914 187.6428 270.1593 183.758 272.5517 180.917 C 276.6226 176.0812 278.2922 175.7023 282.7276 179.4352 Z " stroke-width="0.685520198992617"/>
    <path id="ID0.7115552560426295" fill="#FAA51D" stroke="#000000" stroke-width="0.8226242754282101" d="M 289.2456 189.9349 C 288.6415 191.1588 287.4842 192.0894 286.0369 192.3491 L 273.6008 194.5823 C 272.1004 194.8516 270.5667 194.336 269.5344 193.2142 L 261.0433 183.987 C 259.3769 182.1755 259.496 179.3568 261.3044 177.6905 C 263.1159 176.0241 265.9348 176.141 267.6009 177.9516 L 274.4349 185.378 L 284.4617 183.5776 C 286.8841 183.1429 289.1995 184.7537 289.6351 187.1758 C 289.8104 188.1517 289.6535 189.1096 289.2456 189.9349 L 289.2456 189.9349 Z "/>
    <g id="ID0.7563453577458858">
      <path id="ID0.4675603983923793_1_" fill="#FAA51D" stroke="#231F20" stroke-width="0.8226242210412862" d="M 209.8984 137.7706 C 208.6919 139.3022 206.3095 142.5805 205.188 144.5093 C 202.1869 149.6663 200.908 155.5905 200.908 155.5905 L 182.9982 163.5451 L 204.5356 174.135 C 204.1502 172.9152 210.8519 194.0767 227.7849 194.4135 C 244.7272 194.7498 260.4972 182.2042 269.4044 159.806 C 278.3095 137.4048 269.944 125.2692 263.0461 122.6689 C 256.1485 120.0679 249.0653 126.1147 249.0653 126.1147 C 249.0653 126.1147 244.2635 123.1402 236.2352 122.8051 C 231.4572 122.604 222.0063 126.1295 222.0063 126.1295 L 207.8235 121.2401 L 210.3411 134.0612 L 209.8984 137.7706 L 209.8984 137.7706 Z "/>
      <path id="ID0.876089540310204_1_" fill="#FFFFFF" d="M 248.2704 127.0079 L 244.3862 128.2202 L 240.9563 139.6885 C 240.9563 139.6885 244.5746 142.0314 242.5851 147.3011 C 240.5979 152.5773 232.4944 157.604 232.4944 157.604 L 230.7763 168.1831 C 230.7763 168.1831 225.9763 177.7467 231.2231 181.5965 C 242.8814 190.1565 257.5622 178.5577 261.5323 173.1315 C 263.7003 170.1717 266.8169 164.1855 268.7365 159.358 C 277.4778 138.3575 269.459 125.9589 262.5609 123.3551 C 255.6633 120.7542 249.4802 126.8676 249.4802 126.8676 L 248.2704 127.0079 L 248.2704 127.0079 Z " stroke-width="0.6855201842010719"/>
      <path id="ID0.44282719027251005_1_" fill="none" stroke="#231F20" stroke-width="0.8226242210412862" d="M 214.9565 204.1769 C 214.9565 204.1769 218.1666 200.0871 219.3335 198.039 C 220.4987 195.9922 222.4758 191.8252 222.4758 191.8252 "/>
      <path id="ID0.893105489667505_1_" fill="none" stroke="#231F20" stroke-width="0.8226242210412862" d="M 257.7896 125.3079 C 257.7896 125.3079 260.1197 119.9851 260.8492 116.9882 C 261.7131 113.4707 261.2688 110.4373 261.2688 110.4373 "/>
      <path id="ID0.03574043000116944_1_" fill="none" stroke="#231F20" stroke-width="0.8226242210412862" d="M 218.4554 188.9254 C 218.4554 188.9254 214.9408 190.2301 210.6347 193.0475 C 205.865 196.1683 203.8093 198.2469 203.8093 198.2469 "/>
      <path id="ID0.6674723788164556_1_" fill="none" stroke="#231F20" stroke-width="0.8226242210412862" d="M 264.4024 128.8972 C 264.4024 128.8972 267.4381 126.768 269.6592 123.9913 C 271.8498 121.2488 272.9588 119.1501 272.9588 119.1501 "/>
      <path id="ID0.12165586883202195_1_" fill="none" stroke="#000000" stroke-linecap="round" d="M 209.7114 138.1894 C 212.3977 135.664 213.9286 135.0832 213.9286 135.0832 " stroke-width="0.6855201842010719"/>
      <path id="ID0.178104005753994_1_" fill="none" stroke="#000000" d="M 196.5099 157.3529 L 205.2724 153.928 " stroke-width="0.6855201842010719"/>
      <path id="ID0.5430324394255877_1_" fill="#5E4A42" stroke="#000000" d="M 239.8859 146.5898 C 241.1561 144.6281 242.707 141.5759 243.7065 142.0099 C 244.7094 142.4437 246.9829 146.6983 246.2571 148.1483 C 245.5289 149.6034 239.5704 153.0177 237.8651 152.0189 C 236.1578 151.0244 238.7138 148.4001 239.8859 146.5898 L 239.8859 146.5898 Z " stroke-width="0.6855201842010719"/>
      <path id="ID0.5547774969600141_1_" fill="none" stroke="#231F20" stroke-width="0.8226242300075304" d="M 265.8993 142.3004 C 265.9371 142.2265 262.4299 154.3436 259.5327 159.822 C 257.5352 163.6006 252.6296 171.2883 251.9746 170.1703 C 251.6612 169.1496 254.1425 158.7222 256.7094 153.5844 C 258.8419 149.3175 262.546 146.2388 265.4655 142.7562 L 265.8993 142.3004 Z "/>
      <path id="ID0.0627080244012177" fill="none" stroke="#000000" d="M 231.1077 156.0462 C 228.205 157.511 223.5531 167.7021 225.4795 172.9807 " stroke-width="0.6855201842010719"/>
      <path id="ID0.6798256845213473" fill="none" stroke="#000000" d="M 242.7856 127.4746 C 239.9518 128.0635 234.6286 135.9931 235.8841 141.1703 " stroke-width="0.6855201842010719"/>
    </g>
  </g>
  <g id="ID0.5605241823941469">
    <g id="ID0.5159829594194889">
      <text  fill="#E5E5E5" text-anchor="start" transform="matrix(2.0814 -0.473006 0.473006 2.0814 134.4985 222.3485)" stroke-width="1" font-family="Helvetica" alignment-baseline="text-before-edge"  font-size="18" >Game</text>
      <text  fill="#E5E5E5" text-anchor="start" transform="matrix(2.10479 0.354707 -0.354707 2.10479 263.26802499999997 205.004975)" stroke-width="1" font-family="Helvetica" alignment-baseline="text-before-edge"  font-size="18" >Over...</text>
    </g>
    <g id="ID0.5159829594194889">
      <text  fill="#E5E5E5" text-anchor="start" transform="matrix(2.0814 -0.473006 0.473006 2.0814 139.3985 222.64849999999998)" stroke-width="1" font-family="Helvetica" alignment-baseline="text-before-edge"  font-size="18" >Game</text>
      <text  fill="#E5E5E5" text-anchor="start" transform="matrix(2.10479 0.354707 -0.354707 2.10479 268.168025 205.304975)" stroke-width="1" font-family="Helvetica" alignment-baseline="text-before-edge"  font-size="18" >Over...</text>
    </g>
    <g id="ID0.5159829594194889">
      <text  fill="#000000" text-anchor="start" transform="matrix(2.0814 -0.473006 0.473006 2.0814 134.7485 216.3485)" stroke-width="1" font-family="Helvetica" alignment-baseline="text-before-edge"  font-size="18" >Game</text>
      <text  fill="#000000" text-anchor="start" transform="matrix(2.10479 0.354707 -0.354707 2.10479 263.51802499999997 199.004975)" stroke-width="1" font-family="Helvetica" alignment-baseline="text-before-edge"  font-size="18" >Over...</text>
    </g>
  </g>
</svg>