<?xml version="1.0" encoding="utf-8"?>
<!-- Generator: Adobe Illustrator 15.0.0, SVG Export Plug-In . SVG Version: 6.00 Build 0)  -->
<!DOCTYPE svg PUBLIC "-//W3C//DTD SVG 1.1//EN" "http://www.w3.org/Graphics/SVG/1.1/DTD/svg11.dtd" >
<svg version="1.1" id="Layer_1"
	 xmlns="http://www.w3.org/2000/svg" xmlns:xlink="http://www.w3.org/1999/xlink" x="0px" y="0px" width="95px" height="111px"
	 viewBox="0 0 95 111" enable-background="new 0 0 95 111" xml:space="preserve">

 	<g  id="ScratchCat1">

		<path fill="#F9A637" stroke="#000000" stroke-width="1.4" d="M54.617,65.789c-9.502-0.363-13.394-2.347-13.394-2.347l-0.759-0.901
			c-1.619-2.108-3.643-2.654-5.301-2.879c0.065,0.041-0.427,1.092-0.493,1.096c-0.048,0.006-0.095,0.007-0.142,0.014
			c-0.073,0.006-0.146,0.014-0.219,0.023c-0.038,0.006-0.076,0.009-0.112,0.016c-0.109,0.018-0.217,0.036-0.323,0.059
			c-0.019,0.006-0.035,0.01-0.051,0.016c-0.092,0.02-0.183,0.041-0.272,0.064c-0.036,0.01-0.07,0.02-0.105,0.031
			c-0.073,0.02-0.144,0.043-0.216,0.065c-0.037,0.015-0.074,0.026-0.111,0.04c-0.071,0.023-0.14,0.049-0.21,0.076
			c-0.035,0.017-0.071,0.028-0.105,0.043c-0.076,0.029-0.149,0.064-0.223,0.096c-0.028,0.016-0.058,0.027-0.085,0.039
			c-0.098,0.047-0.197,0.096-0.292,0.145c-0.004,0-0.008,0.003-0.01,0.006c-0.105,0.054-0.212,0.112-0.316,0.173
			c-0.01,0.005-0.021,0.012-0.03,0.019c-0.093,0.052-0.184,0.106-0.274,0.162c-0.023,0.016-0.046,0.029-0.068,0.042
			c-0.08,0.052-0.159,0.103-0.239,0.157c-0.024,0.018-0.048,0.029-0.071,0.047c-0.082,0.056-0.164,0.11-0.245,0.172
			c-0.02,0.01-0.038,0.023-0.059,0.037c-0.097,0.067-0.194,0.139-0.291,0.211c-0.002,0.001-0.003,0.002-0.006,0.005
			c-0.316,0.237-0.634,0.489-0.954,0.755c-0.001,0.004-0.004,0.004-0.006,0.006c-0.589,0.486-1.191,1.016-1.824,1.56
			c-0.02,0.018-0.039,0.032-0.058,0.048c-0.07,0.059-0.139,0.121-0.212,0.18c-0.044,0.041-0.092,0.078-0.138,0.118
			c-0.059,0.05-0.116,0.099-0.176,0.148c-0.064,0.052-0.126,0.103-0.189,0.157c-0.047,0.037-0.094,0.074-0.141,0.115
			c-0.112,0.096-0.225,0.188-0.34,0.279c-2.141,1.725-5.188,2.512-4.366,6.064c0.288,1.219,0.871,3.191,1.784,5.146
			c0.131,0.279,0.269,0.557,0.413,0.836l-0.12,0.07c-2.304-0.467-4.999-1.512-7.25-3.773c-5.061-5.11-6.457-13.285-10.226-11.339
			c-1.417,0.733-2.355,3.034-2.369,5.859c-0.018,3.769,1.61,8.47,5.949,11.63c0.136,0.1,0.274,0.197,0.415,0.293
			c0.282,0.191,0.573,0.377,0.878,0.553c0.758,0.447,1.585,0.849,2.486,1.198c3.959,1.548,7.626,1.689,10.597,1.722
			c0,0,0.409-0.09-0.512,0.38l-3.225,1.501l-0.255,0.093c-1.256,0.491-2.489,0.888-3.236,1.117c-0.15,0.046-0.279,0.084-0.387,0.116
			c-0.214,0.064-0.336,0.098-0.336,0.098s-0.008-0.008-0.026-0.021c-0.176-0.127-1.204-0.827-2.589-0.829
			c-0.692-0.003-1.472,0.169-2.28,0.674c-4.227,2.651,4.853,18.101,10.03,16.571c6.274-1.848,1.425-8.107,0.529-9.708
			c8.007-1.903,16.729-7.776,16.729-7.776c1.553,1.554,3.449,3.354,5.395,5.507c4.471,4.95,11.193,11.056,11.193,11.056
			s18.143,2.877,18.786,0.008c2.186-9.736-13.951-7.458-13.951-7.458s-4.287-4.102-6.256-6.046c-1.753-1.732-4.63-4.873-6.908-7.394
			l0.179-0.223c1.147-0.874,2.346-2.302,3.878-4.515c0.509-0.729,1.495-2.367,1.495-2.367s1.176,0.215,4.425,3.854
			c3.243,3.643,5.716,2.387,8.534,1.049c2.544-1.215,8.959-4.952,7.344-8.506c-0.087-0.182-0.191-0.365-0.318-0.547
			c-0.088-0.121-0.18-0.241-0.289-0.365c-0.053-0.059-0.108-0.117-0.168-0.179c-1.057-1.079-1.994-1.48-2.872-1.474
			c-2.048,0.02-3.765,2.266-5.911,3.277c-0.207,0.096-0.415,0.181-0.629,0.252c-3.41,1.134-4.768-2.674-6.435-4.54
			C55.966,66.932,55.226,66.275,54.617,65.789"/>
		<path fill="#FFFFFF" d="M7.024,63.442c-1.919,0.362-3.022,4.044-2.31,6.964c0.705,2.916,1.498,5.542,3.195,5.994
			c1.699,0.455-0.25-2.48,1.495-3.864c1.741-1.384,4.702-0.585,4.702-0.585s-2.145-3.404-3.428-5.448
			C9.392,64.461,8.867,63.096,7.024,63.442"/>
		<path fill="#FFFFFF" d="M52.57,74.815c0,0,1.15-0.901-3.215-3.641c-4.365-2.753-6.498-0.276-7.921,1.163
			c-2.475,2.473,5.965,9.059,5.965,9.059s1.031-1.066,2.026-2.123c0.95-1.01,1.984-2.871,1.984-2.871"/>
		<path fill="#F9A637" stroke="#000000" stroke-width="1.4" d="M21.326,76.238c0.293,0.594,0.535,1.21,0.732,1.848
			c0.146,0.047,0.292,0.096,0.435,0.136c1.107,2.017,2.645,4.019,4.623,5.04c0.884,0.453,1.792,0.682,2.717,0.682
			c0.827,0,1.669-0.186,2.52-0.549c0.974-0.508,1.502-0.625,2.518-2.018c0.159-0.287,0.281-0.582,0.347-0.898
			c0.486-2.379-1.796-4.953-3.537-6.863c0.945-0.686,2.453-1.779,3.853-2.769c0.988-0.698,4.2-3.169,4.075-5.649
			c-0.05-1.005-0.618-1.846-1.679-2.504c-0.038-0.029-0.937-0.747-2.299-1.195c-0.454-0.15-0.905-0.256-1.353-0.313
			c-0.002-0.003-0.004-0.003-0.009-0.007c-0.065-0.037-0.133-0.073-0.197-0.117c-1.15-0.15-2.278,0.189-2.213,0.164
			c-1.892,0.605-3.491,1.963-5.155,3.389l-1.701,1.413c-0.396,0.321-0.86,0.61-1.335,0.919c-1.494,0.953-3.462,2.211-3.462,4.791
			c0,0.428,0.056,0.895,0.173,1.398C20.515,73.713,20.824,74.869,21.326,76.238z"/>
		<path fill="#373536" d="M53.739,75.311l-1.093-0.705c0.025-0.041,2.481-4.256,2.297-7.766l1.28-0.074
			C56.432,70.695,53.849,75.121,53.739,75.311"/>
		<path fill="#F9A637" stroke="#000000" stroke-width="1.4" d="M78.751,39.493c0,0,0.143-4.613-2.745-9.938
			c-1.713-3.167-7.646-7.92-7.646-7.92l-2.316-11.066l-7.315,6.588l-4.109,0.925c-1.457-0.189-3.094-0.326-4.776-0.307
			c-4.621,0.056-4.662,0.102-8.9,1.329l-11.865-8.249l1.469,18.034c0.647-0.729-10.454,11.792-4.13,22.872
			c2.763,4.849,7.052,8.582,12.479,11.024c0.492,0.211,7.881,3.329,14.93,3.253c1.141-0.012,1.973-0.002,2.566,0.027
			c2.72-0.035,5.559-0.275,8.501-0.752c17.932-2.89,22.545-13.001,21.567-18.466c-0.988-5.461-7.633-7.716-7.633-7.716"/>
		<path fill="#FFFFFF" d="M85.517,46.462c-0.211-2.191-1.723-3.413-2.69-4.493c-1.323-0.859-1.659-1.13-2.782-1.923
			c-1.061-0.344-1.916-0.646-2.48-0.817c-0.206-0.015-0.372-0.017-0.519-0.015c-0.128,0.196-0.365,0.307-0.62,0.141
			c-0.028-0.018-0.049-0.042-0.076-0.061c-0.065-0.017-0.132-0.049-0.194-0.099c-0.759-0.6-1.438-1.28-2.083-2
			c-0.022-0.025-0.03-0.053-0.047-0.08l-1.307,0.334l-2.074,0.531l-2.076,0.531l-2.073,0.532c0,0-0.007,0.195-0.079,0.5
			c-0.071,0.304-0.209,0.717-0.47,1.154c-0.262,0.436-0.646,0.894-1.215,1.289c-0.566,0.395-1.317,0.726-2.309,0.907
			c-0.992,0.181-2.116,0.118-3.242-0.079s-2.256-0.525-3.261-0.876c-1.006-0.352-1.887-0.726-2.517-1.013
			c-0.63-0.286-1.009-0.484-1.009-0.484l-1.781,0.715l-3.561,1.431l-1.781,0.716c0,0-0.477,0.036-1.199,0.162
			c-0.722,0.127-1.688,0.344-2.67,0.708c-0.98,0.365-1.975,0.875-2.751,1.589c-0.777,0.713-1.336,1.629-1.446,2.802
			c-0.275,2.944,0.718,5.445,2.362,7.542c1.644,2.096,3.939,3.787,6.269,5.109c2.329,1.324,4.693,2.279,6.476,2.902
			c1.781,0.625,2.98,0.92,2.98,0.92s0.638,0.047,1.72,0.061c1.081,0.016,2.604-0.002,4.374-0.133
			c1.771-0.129,3.785-0.373,5.851-0.807s4.275-0.992,6.243-1.893c2.455-0.82,4.379-2.068,6.046-3.383
			c1.935-1.227,3.032-2.481,4.03-4.129c1.117-1.169,1.405-2.376,1.981-3.879C85.701,49.56,85.974,47.744,85.517,46.462z"/>
		<path fill="#373536" d="M43.983,22.107c-0.075,0-0.15-0.021-0.218-0.068L29.815,12.2c-0.171-0.119-0.212-0.354-0.091-0.523
			c0.119-0.17,0.354-0.211,0.524-0.093l13.951,9.84c0.17,0.118,0.212,0.355,0.091,0.523C44.219,22.052,44.103,22.107,43.983,22.107"
			/>
		<path fill="#373536" d="M59.896,19.986c-0.036,0-0.075-0.006-0.109-0.019c-2.082-0.629-3.899-1.448-9.853-1.522
			c-0.208-0.002-0.374-0.173-0.372-0.381c0.004-0.208,0.175-0.374,0.381-0.371c5.139,0.063,10.016,1.541,10.064,1.556
			c0.198,0.06,0.31,0.271,0.249,0.47C60.207,19.881,60.057,19.986,59.896,19.986"/>
		<path fill="#FFFFFF" stroke="#000000" d="M50.991,30.764c2.619,4.352,2.148,9.454-1.058,11.385
			c-3.207,1.935-7.936-0.03-10.558-4.384c-2.631-4.354-2.154-9.451,1.053-11.384C43.639,24.447,48.368,26.408,50.991,30.764"/>
		<path fill="#FFFFFF" stroke="#000000" d="M71.693,28.589c2.546,4.218,2.474,8.934-0.156,10.519
			c-2.634,1.588-6.824-0.553-9.372-4.774c-2.549-4.225-2.483-8.932,0.156-10.522C64.951,22.229,69.15,24.363,71.693,28.589"/>
		<path fill="#373536" d="M48.179,36.903c-0.022,0.796-0.637,1.412-1.365,1.384c-0.728-0.022-1.292-0.689-1.258-1.479
			c0.027-0.785,0.64-1.402,1.363-1.374C47.646,35.456,48.206,36.119,48.179,36.903"/>
		<path fill="#373536" d="M70.291,34.686c-0.031,0.789-0.638,1.411-1.367,1.385c-0.719-0.029-1.293-0.688-1.265-1.476
			c0.031-0.792,0.646-1.411,1.372-1.383C69.76,33.236,70.32,33.897,70.291,34.686"/>
		<path fill="#373536" d="M60.963,40.009c1.767,0.065,4.346-0.11,4.445,0.7c0.106,0.816-1.766,3.932-2.987,4.026
			c-1.22,0.089-5.736-2.443-5.746-3.933C56.661,39.313,59.344,39.951,60.963,40.009"/>
		<path fill="#373536" d="M82.656,43.741c-0.187,0-0.35-0.14-0.373-0.33c-0.026-0.207,0.12-0.394,0.327-0.42
			c0.043-0.006,4.338-0.548,6.506-1.219c2.506-0.776,4.253-2.182,4.271-2.195c0.161-0.13,0.398-0.106,0.529,0.056
			c0.13,0.161,0.105,0.398-0.055,0.529c-0.076,0.061-1.878,1.51-4.522,2.33c-2.232,0.69-6.458,1.224-6.636,1.246
			C82.688,43.741,82.671,43.741,82.656,43.741"/>
		<path fill="#373536" d="M26.295,42.885c-0.083,0-0.166-0.026-0.235-0.084c-0.021-0.017-2.214-1.77-5.611-3.424
			c-3.776-1.835-5.908-2.375-5.931-2.379c-0.2-0.051-0.325-0.254-0.274-0.457c0.049-0.202,0.254-0.324,0.455-0.274
			c0.09,0.021,2.219,0.559,6.078,2.434c3.479,1.694,5.664,3.44,5.757,3.514c0.161,0.132,0.186,0.367,0.056,0.53
			C26.514,42.837,26.406,42.885,26.295,42.885"/>
		<path fill="#373536" d="M20.56,46.976c-1.847,0-5.377-0.446-5.531-0.467c-0.207-0.026-0.353-0.214-0.326-0.421
			c0.025-0.205,0.215-0.352,0.421-0.326c0.038,0.005,3.884,0.491,5.609,0.46c1.74-0.036,5.176-0.369,5.211-0.372
			c0.206-0.02,0.392,0.133,0.411,0.34c0.021,0.206-0.131,0.392-0.339,0.41c-0.141,0.014-3.499,0.337-5.268,0.376
			C20.688,46.976,20.625,46.976,20.56,46.976"/>
		<path fill="#373536" d="M91.904,51.187c-0.745,0-2.113-0.04-3.86-0.274c-2.681-0.37-5.2-1.491-5.306-1.539
			c-0.191-0.085-0.275-0.308-0.191-0.498c0.086-0.189,0.309-0.274,0.498-0.189c0.024,0.012,2.531,1.125,5.101,1.48
			c2.56,0.344,4.321,0.259,4.34,0.258c0.208-0.011,0.385,0.147,0.395,0.356c0.01,0.208-0.148,0.385-0.355,0.396
			C92.5,51.176,92.28,51.187,91.904,51.187"/>
		<path fill="#FFFFFF" stroke="#000000" d="M49.863,46.503c-0.94,2.936-1.172,5.766-0.214,7.664
			c1.059,2.098,3.328,3.713,6.743,4.797c1.038,0.331,2.122,0.499,3.216,0.499c3.697,0,7.059-1.911,9.225-3.516
			c1.601-1.184,2.8-2.374,3.413-3.024c-1.788-0.294-6.662-1.121-9.589-1.865c-3.223-0.825-11.243-3.481-13.035-4.077"/>
		<line fill="none" stroke="#000000" x1="39.627" y1="86.828" x2="35.087" y2="81.6"/>
		<line fill="none" stroke="#000000" x1="45.092" y1="79.771" x2="47.211" y2="82.088"/>
		<line fill="none" stroke="#000000" x1="29.928" y1="72.026" x2="32.046" y2="74.344"/>

	</g>
</svg>
