<svg xmlns="http://www.w3.org/2000/svg" xmlns:xlink="http://www.w3.org/1999/xlink" version="1.1" width="29.209299087524414" height="29.28820037841797" viewBox="0.680899977684021 0.9128999710083008 29.209299087524414 29.28820037841797">
  <!-- Exported by Scratch - http://scratch.mit.edu/ -->
  <path id="ID0.3996796882711351" fill="#92D0F0" stroke="#FFFFFF" stroke-width="0.9203675389289856" stroke-linecap="round" d="M 13.1917 18.9328 L 19.4042 15.3433 L 25.6167 14.9292 L 29.3902 17.7363 L 29.3442 29.7011 L 1.273 29.7011 L 1.1809 16.908 L 6.9793 19.7151 L 13.1917 18.9328 Z "/>
  <path id="ID0.5185317564755678" fill="#92D0F0" stroke="#FFFFFF" stroke-width="0.9203675389289856" stroke-linecap="round" d="M 18.2021 5.8129 C 18.8749 5.8129 19.4851 6.0862 19.9259 6.528 C 20.3677 6.9688 20.641 7.579 20.641 8.2518 C 20.641 8.9246 20.3677 9.5348 19.9259 9.9757 C 19.4851 10.4175 18.8749 10.6908 18.2021 10.6908 C 17.5293 10.6908 16.9191 10.4175 16.4782 9.9757 C 16.0364 9.5348 15.7631 8.9246 15.7631 8.2518 C 15.7631 7.579 16.0364 6.9688 16.4782 6.528 C 16.9191 6.0862 17.5293 5.8129 18.2021 5.8129 Z "/>
  <path id="ID0.5185317564755678" fill="#92D0F0" stroke="#FFFFFF" stroke-width="0.9203675389289856" d="M 11.8521 9.6629 C 12.5249 9.6629 13.1351 9.9362 13.5759 10.378 C 14.0177 10.8188 14.291 11.429 14.291 12.1018 C 14.291 12.7746 14.0177 13.3848 13.5759 13.8257 C 13.1351 14.2675 12.5249 14.5408 11.8521 14.5408 C 11.1793 14.5408 10.5691 14.2675 10.1282 13.8257 C 9.6864 13.3848 9.4131 12.7746 9.4131 12.1018 C 9.4131 11.429 9.6864 10.8188 10.1282 10.378 C 10.5691 9.9362 11.1793 9.6629 11.8521 9.6629 Z "/>
  <path id="ID0.5185317564755678" fill="#92D0F0" stroke="#FFFFFF" stroke-width="0.9203675389289856" d="M 12.4521 1.4129 C 13.1249 1.4129 13.7351 1.6862 14.1759 2.128 C 14.6177 2.5688 14.891 3.179 14.891 3.8518 C 14.891 4.5246 14.6177 5.1348 14.1759 5.5757 C 13.7351 6.0175 13.1249 6.2908 12.4521 6.2908 C 11.7793 6.2908 11.1691 6.0175 10.7282 5.5757 C 10.2864 5.1348 10.0131 4.5246 10.0131 3.8518 C 10.0131 3.179 10.2864 2.5688 10.7282 2.128 C 11.1691 1.6862 11.7793 1.4129 12.4521 1.4129 Z "/>
</svg>