<svg version="1.1" xmlns="http://www.w3.org/2000/svg" xmlns:xlink="http://www.w3.org/1999/xlink" width="90.526" height="71"><g transform="translate(-193,-133.3)"><g data-paper-data="{&quot;isPaintingLayer&quot;:true}" fill="none" fill-rule="nonzero" stroke="none" stroke-width="none" stroke-linecap="none" stroke-linejoin="miter" stroke-miterlimit="10" stroke-dasharray="" stroke-dashoffset="0" font-family="none" font-weight="none" font-size="none" text-anchor="none" style="mix-blend-mode: normal"><path d="M244.3979,157.1363c5.0922,-0.1594 10.2521,1.4548 13.4049,3.5656c3.5942,2.4019 5.3314,5.6777 5.6507,8.5994c0.3316,2.977 0.3737,6.8153 -4.3721,8.6203c-5.1887,2.3999 -13.5368,1.9481 -20.6022,1.9506c-6.8147,0.0034 -14.8328,0.534 -20.2723,-1.6359c-4.4141,-2.001 -5.2762,-5.8728 -4.702,-8.935c0.5791,-3.0618 3.6263,-6.5754 8.5378,-8.5994c6.1679,-2.5467 14.5194,-3.7246 22.3552,-3.5656z" data-paper-data="{&quot;origPos&quot;:null}" id="ID0.5443468582816422" fill="#32d600" stroke="#229100" stroke-width="1.30559" stroke-linecap="butt"/><path d="M262.4166,160.396c1.3393,0 2.5526,0.5381 3.4312,1.4081c0.8786,0.8694 1.4226,2.0706 1.4226,3.3958c0,1.3251 -0.544,2.5264 -1.4226,3.3958c-0.8786,0.87 -2.0919,1.4081 -3.4312,1.4081c-1.3392,0 -2.5525,-0.5381 -3.4312,-1.4081c-0.8786,-0.8694 -1.4226,-2.0707 -1.4226,-3.3958c0,-1.3252 0.544,-2.5264 1.4226,-3.3958c0.8787,-0.87 2.092,-1.4081 3.4312,-1.4081z" data-paper-data="{&quot;origPos&quot;:null}" id="ID0.37750169076025486" fill="#ffffff" stroke="#229100" stroke-width="0.8472" stroke-linecap="butt"/><path d="M251.9339,158.8629c1.9882,-0.0019 3.7901,0.6703 5.0955,1.7585c1.3055,1.0875 2.1145,2.5911 2.1162,4.2506c0.0016,1.6596 -0.8046,3.1647 -2.1079,4.2548c-1.3034,1.0907 -3.104,1.7664 -5.0922,1.7683c-1.9882,0.002 -3.7901,-0.6702 -5.0956,-1.7584c-1.3054,-1.0876 -2.1145,-2.5912 -2.1161,-4.2507c-0.0016,-1.6595 0.8045,-3.1647 2.1079,-4.2548c1.3033,-1.0907 3.1039,-1.7664 5.0922,-1.7683z" data-paper-data="{&quot;origPos&quot;:null}" id="ID0.37750169076025486" fill="#ffffff" stroke="#229100" stroke-width="1.11049" stroke-linecap="butt"/><path d="M262.5193,160.9784c0.363,0 0.6916,0.4489 0.9296,1.1749c0.2383,0.7259 0.3856,1.7281 0.3856,2.8337c0,1.1057 -0.1473,2.1079 -0.3856,2.8338c-0.238,0.7259 -0.5666,1.1749 -0.9296,1.1749c-0.3631,0 -0.6917,-0.449 -0.9296,-1.1749c-0.2384,-0.7259 -0.3857,-1.7281 -0.3857,-2.8338c0,-1.1056 0.1473,-2.1078 0.3857,-2.8337c0.2379,-0.726 0.5665,-1.1749 0.9296,-1.1749z" data-paper-data="{&quot;origPos&quot;:null}" id="ID0.234124637208879" fill="#229100" stroke="#229100" stroke-width="1.17898" stroke-linecap="round"/><path d="M251.7253,159.4743c0.5389,-0.0006 1.0273,0.5612 1.3815,1.47c0.3547,0.9088 0.5746,2.1636 0.576,3.5483c0.0013,1.3846 -0.2162,2.6399 -0.5692,3.5494c-0.3524,0.9094 -0.8397,1.4721 -1.3786,1.4727c-0.5389,0.0005 -1.0273,-0.5613 -1.3815,-1.4701c-0.3547,-0.9087 -0.5746,-2.1636 -0.576,-3.5482c-0.0013,-1.3847 0.2162,-2.64 0.5692,-3.5494c0.3523,-0.9095 0.8397,-1.4722 1.3786,-1.4727z" data-paper-data="{&quot;origPos&quot;:null}" id="ID0.234124637208879" fill="#229100" stroke="#229100" stroke-width="1.54539" stroke-linecap="round"/><path d="M193,133.3h90.526v71h-90.526z" id="ID0.033297700341790915_9_" fill="none" stroke="none" stroke-width="0.76537" stroke-linecap="butt"/></g></g></svg>