<svg version="1.1" xmlns="http://www.w3.org/2000/svg" xmlns:xlink="http://www.w3.org/1999/xlink" width="459.93226" height="458.22899" viewBox="0,0,459.93226,458.22899"><defs><linearGradient x1="297.4647" y1="61.29534" x2="178.26852" y2="394.2216" gradientUnits="userSpaceOnUse" id="color-1"><stop offset="0" stop-color="#000000"/><stop offset="1" stop-color="#000000" stop-opacity="0"/></linearGradient><linearGradient x1="305.90737" y1="35.45055" x2="186.71119" y2="368.37681" gradientUnits="userSpaceOnUse" id="color-2"><stop offset="0" stop-color="#dcdcdc"/><stop offset="1" stop-color="#bababa"/></linearGradient><linearGradient x1="302.23728" y1="57.23831" x2="283.15193" y2="110.54551" gradientUnits="userSpaceOnUse" id="color-3"><stop offset="0" stop-color="#000000"/><stop offset="1" stop-color="#ffffff"/></linearGradient><linearGradient x1="309.17636" y1="43.79029" x2="290.09101" y2="97.09749" gradientUnits="userSpaceOnUse" id="color-4"><stop offset="0" stop-color="#fafafa"/><stop offset="1" stop-color="#600000"/></linearGradient><linearGradient x1="312.14027" y1="38.4785" x2="293.05493" y2="91.78569" gradientUnits="userSpaceOnUse" id="color-5"><stop offset="0" stop-color="#fafafa"/><stop offset="1" stop-color="#fa0000"/></linearGradient><linearGradient x1="162.47638" y1="-2.92395" x2="151.10013" y2="28.85101" gradientUnits="userSpaceOnUse" id="color-6"><stop offset="0" stop-color="#f7f7f4"/><stop offset="1" stop-color="#8f8f89"/></linearGradient><linearGradient x1="453.29944" y1="102.37847" x2="441.92319" y2="134.15343" gradientUnits="userSpaceOnUse" id="color-7"><stop offset="0" stop-color="#f7f7f4"/><stop offset="1" stop-color="#8f8f89"/></linearGradient></defs><g transform="translate(-21.28259,25.42373)"><g data-paper-data="{&quot;isPaintingLayer&quot;:true}" fill-rule="nonzero" stroke-linecap="butt" stroke-linejoin="miter" stroke-miterlimit="10" stroke-dasharray="" stroke-dashoffset="0" style="mix-blend-mode: normal"><path d="M410.23533,287.70738c-19.73413,55.1193 -36.66816,129.56151 -90.35055,143.69669c-34.14081,8.98967 -100.21107,-27.71935 -136.328,-40.65014c-30.55478,-10.93939 -128.48883,-32.59466 -148.23705,-55.25663c-40.29929,-46.24527 16.80444,-107.72777 38.47139,-168.24562c18.21375,-50.87274 35.85269,-118.14824 84.15113,-134.63867c37.31248,-12.73952 102.03525,17.09489 142.52742,31.59213c43.5433,15.58962 120.51093,32.55448 140.95074,69.59609c23.17174,41.99253 -14.03157,105.9948 -31.18507,153.90615z" fill="url(#color-1)" stroke="none" stroke-width="0"/><path d="M422.41193,277.80391c-19.73413,55.1193 -36.66816,129.56152 -90.35055,143.69671c-34.14081,8.98967 -100.21107,-27.71935 -136.32799,-40.65014c-30.55478,-10.93939 -128.48883,-32.59465 -148.23705,-55.25664c-40.29929,-46.24527 16.80444,-107.72777 38.47139,-168.24562c18.21375,-50.87274 35.85269,-118.14824 84.15112,-134.63867c37.31248,-12.73952 102.03525,17.09489 142.52743,31.59213c43.5433,15.58962 120.51092,32.55448 140.95073,69.5961c23.17174,41.99252 -14.03156,105.99481 -31.18507,153.90616z" fill="#9c9c9c" stroke="#000000" stroke-width="5"/><path d="M418.88633,270.34586c-19.73413,55.1193 -36.66816,129.56152 -90.35055,143.69671c-34.14082,8.98967 -100.21107,-27.71935 -136.328,-40.65014c-30.55478,-10.93939 -128.48883,-32.59465 -148.23705,-55.25664c-40.29929,-46.24527 16.80444,-107.72777 38.47139,-168.24562c18.21375,-50.87274 35.85269,-118.14824 84.15113,-134.63867c37.31248,-12.73952 102.03524,17.09489 142.52742,31.59213c43.5433,15.58962 120.51093,32.55448 140.95073,69.5961c23.17174,41.99253 -14.03156,105.9948 -31.18507,153.90615z" fill="#bebebe" stroke="#444444" stroke-width="4.5"/><path d="M418.67801,261.8626c-19.73413,55.1193 -36.66816,129.56152 -90.35055,143.6967c-34.14081,8.98967 -100.21107,-27.71935 -136.32799,-40.65014c-30.55478,-10.93939 -128.48883,-32.59466 -148.23705,-55.25664c-40.29929,-46.24527 16.80444,-107.72776 38.47139,-168.24561c18.21375,-50.87274 35.85268,-118.14824 84.15112,-134.63867c37.31248,-12.73952 102.03525,17.09489 142.52743,31.59213c43.5433,15.58962 120.51092,32.55448 140.95073,69.5961c23.17174,41.99253 -14.03156,105.9948 -31.18507,153.90615z" fill="url(#color-2)" stroke="#444444" stroke-width="4.5"/><path d="M387.83522,289.91238c-26.51262,28.84634 -53.12496,55.77481 -73.15179,61.04811c-16.95558,4.4646 11.61114,53.81168 -11.99684,55.04368c-23.92773,1.24869 -100.03793,-45.69101 -118.21787,-52.1999c-30.55478,-10.93939 -128.48883,-32.59465 -148.23705,-55.25664c-40.29929,-46.24527 16.80444,-107.72776 38.47139,-168.24561c18.21375,-50.87274 35.85268,-118.14824 84.15112,-134.63868c37.31248,-12.73952 102.03525,17.0949 142.52743,31.59214c43.5433,15.58962 120.51093,32.55448 140.95073,69.59609c12.8952,23.36906 17.48039,57.49333 3.12501,84.04529c-5.81434,10.7543 -23.40435,58.66824 -28.07187,65.06148c-1.70508,2.3355 -29.55025,43.95404 -29.55025,43.95404z" fill="#fafafa" stroke="none" stroke-width="0"/><path d="M464.59333,145.15371c-3.15977,8.82554 1.36358,23.33525 -43.42859,12.63919c-28.48683,-6.80246 -98.03647,-33.79322 -134.15339,-46.72401c-30.55478,-10.9394 -124.91523,-42.57607 -148.81915,-53.63077c-48.77965,-22.55883 -13.51233,-23.05015 -10.04308,-32.7401c2.91634,-8.14559 0.9408,-20.63601 40.23502,-11.97684c30.35636,6.68957 96.85479,31.56442 137.34696,46.06166c43.5433,15.58962 117.68792,40.43942 146.0501,55.35308c32.15301,16.90698 15.5587,23.34637 12.81213,31.0178z" fill="url(#color-3)" stroke="none" stroke-width="0"/><path d="M471.53238,131.70568c-3.15977,8.82554 1.36358,23.33525 -43.42858,12.63919c-28.48683,-6.80246 -98.03647,-33.79323 -134.15339,-46.72402c-30.55478,-10.9394 -124.91523,-42.57607 -148.81915,-53.63077c-48.77965,-22.55883 -13.51233,-23.05015 -10.04308,-32.7401c2.91634,-8.14559 0.9408,-20.63601 40.23503,-11.97684c30.35636,6.68957 96.85479,31.56442 137.34696,46.06165c43.5433,15.58962 117.68791,40.43942 146.0501,55.35307c32.15301,16.90698 15.5587,23.34637 12.81212,31.0178z" fill="url(#color-4)" stroke="none" stroke-width="0"/><path d="M474.4963,126.39389c-3.15977,8.82554 1.36358,23.33525 -43.42858,12.63919c-28.48683,-6.80246 -98.03647,-33.79322 -134.1534,-46.72401c-30.55478,-10.9394 -124.91523,-42.57607 -148.81915,-53.63078c-48.77965,-22.55883 -13.51233,-23.05015 -10.04308,-32.7401c2.91634,-8.14559 0.9408,-20.63601 40.23503,-11.97683c30.35636,6.68957 96.85478,31.56442 137.34696,46.06166c43.5433,15.58962 117.68792,40.43942 146.0501,55.35308c32.15301,16.90699 15.5587,23.34637 12.81213,31.0178z" fill="url(#color-5)" stroke="none" stroke-width="0"/><text transform="matrix(6.22552 0 0 6.22552 76.85724 73.57554999999999)" font-size="40"  fill="#313131" fill-rule="nonzero" stroke="none" stroke-width="1" stroke-linecap="butt" stroke-linejoin="miter" stroke-miterlimit="10" stroke-dasharray="" stroke-dashoffset="0" font-family="Helvetica" font-weight="normal" text-anchor="start" style="mix-blend-mode: normal" >10</text><text transform="matrix(1.19339 0 0 1.19339 170.62534 5.709960000000002)" font-size="40"  fill="#fafafa" fill-rule="nonzero" stroke="none" stroke-width="1" stroke-linecap="butt" stroke-linejoin="miter" stroke-miterlimit="10" stroke-dasharray="" stroke-dashoffset="0" font-family="Helvetica" font-weight="normal" text-anchor="start" style="mix-blend-mode: normal" >Wednesday</text><path d="M140.90078,7.2754c3.14147,-8.77441 12.80119,-13.34082 21.5756,-10.19936c8.77442,3.14147 13.34082,12.8012 10.19935,21.57561c-3.14147,8.77442 -12.8012,13.34082 -21.57561,10.19935c-8.77442,-3.14146 -13.34081,-12.80119 -10.19935,-21.5756z" fill="url(#color-6)" stroke="none" stroke-width="0.5"/><path d="M431.72384,112.57782c3.14146,-8.77442 12.80119,-13.34082 21.5756,-10.19935c8.77441,3.14146 13.34082,12.80119 10.19935,21.57561c-3.14146,8.77441 -12.8012,13.34082 -21.57561,10.19935c-8.77441,-3.14147 -13.34081,-12.80119 -10.19935,-21.57561z" fill="url(#color-7)" stroke="none" stroke-width="0.5"/></g></g></svg>