<svg version="1.1" xmlns="http://www.w3.org/2000/svg" xmlns:xlink="http://www.w3.org/1999/xlink" width="575.62277" height="367.03619" viewBox="0,0,575.62277,367.03619"><defs><linearGradient x1="249.77837" y1="-29.77657" x2="249.77837" y2="337.25966" gradientUnits="userSpaceOnUse" id="color-1"><stop offset="0" stop-color="#0c556e"/><stop offset="1" stop-color="#002734"/></linearGradient><linearGradient x1="222.76996" y1="-28.13011" x2="222.76996" y2="53.35044" gradientUnits="userSpaceOnUse" id="color-2"><stop offset="0" stop-color="#0c556e"/><stop offset="1" stop-color="#002734"/></linearGradient><linearGradient x1="124.85649" y1="63.10213" x2="124.85649" y2="209.45305" gradientUnits="userSpaceOnUse" id="color-3"><stop offset="0" stop-color="#0c556e"/><stop offset="1" stop-color="#002734"/></linearGradient><linearGradient x1="100.80928" y1="170.2363" x2="108.45314" y2="170.2363" gradientUnits="userSpaceOnUse" id="color-4"><stop offset="0" stop-color="#aeff66"/><stop offset="1" stop-color="#66ffef"/></linearGradient><linearGradient x1="87.43071" y1="178.63319" x2="104.83775" y2="178.63319" gradientUnits="userSpaceOnUse" id="color-5"><stop offset="0" stop-color="#fff966"/><stop offset="1" stop-color="#aeff66"/></linearGradient><linearGradient x1="72.68402" y1="183.44972" x2="91.44429" y2="183.44972" gradientUnits="userSpaceOnUse" id="color-6"><stop offset="0" stop-color="#ffcc66"/><stop offset="1" stop-color="#fff966"/></linearGradient><linearGradient x1="57.51866" y1="184.4037" x2="76.26503" y2="184.4037" gradientUnits="userSpaceOnUse" id="color-7"><stop offset="0" stop-color="#ff0000"/><stop offset="1" stop-color="#ffd666"/></linearGradient><linearGradient x1="116.44957" y1="140.47401" x2="116.44957" y2="167.85943" gradientUnits="userSpaceOnUse" id="color-8"><stop offset="0" stop-color="#66afff"/><stop offset="1" stop-color="#6cffe6"/></linearGradient></defs><g transform="translate(31.01204,29.77654)"><g data-paper-data="{&quot;isPaintingLayer&quot;:true}" fill-rule="nonzero" stroke-linecap="butt" stroke-linejoin="miter" stroke-miterlimit="10" stroke-dasharray="" stroke-dashoffset="0" style="mix-blend-mode: normal"><path d="" fill="#000000" stroke="none" stroke-width="0"/><path d="" fill="#929292" stroke="none" stroke-width="0"/><path d="" fill="#ffffff" stroke="none" stroke-width="0"/><path d="M483.55042,324.04817c-46.65866,20.72911 -166.18349,7.97278 -227.66592,7.97278c-52.01397,0 -211.48561,13.10186 -253.52632,-2.1342c-36.72473,-13.30948 -32.84105,-139.71066 -32.84105,-177.86852c0,-56.08485 -9.72855,-127.99743 54.24059,-161.00952c49.41874,-25.50321 163.19632,-18.99311 232.12689,-18.99311c74.12456,0 199.426,-10.35004 250.27849,18.69582c57.6493,32.92805 50.75272,300.74272 -22.61269,333.33685z" fill="url(#color-1)" stroke="none" stroke-width="2"/><path d="M426.1073,50.41756c-40.5842,4.60178 -144.54812,1.76993 -198.0262,1.76993c-45.24229,0 -183.95237,2.90856 -220.51983,-0.47379c-31.94355,-2.95464 -28.56546,-31.0152 -28.56546,-39.48608c0,-12.4506 -8.46198,-28.41491 47.17903,-35.74346c42.98493,-5.66159 141.94985,-4.2164 201.90638,-4.2164c64.47432,0 173.4628,-2.29767 217.69484,4.1504c50.14396,7.3099 44.14524,66.76365 -19.66875,73.99942z" fill="url(#color-2)" stroke="none" stroke-width="2"/><text transform="matrix(0.5 0 0 0.5 38.61745 280.60006)" font-size="40"  fill="#ffffff" fill-rule="nonzero" stroke="none" stroke-width="1" stroke-linecap="butt" stroke-linejoin="miter" stroke-miterlimit="10" stroke-dasharray="" stroke-dashoffset="0" font-family="Helvetica" font-weight="normal" text-anchor="start" style="mix-blend-mode: normal" >Add Sprites!</text><text transform="matrix(0.5 0 0 0.5 206.72988 236.99763)" font-size="40"  fill="#ffffff" fill-rule="nonzero" stroke="none" stroke-width="1" stroke-linecap="butt" stroke-linejoin="miter" stroke-miterlimit="10" stroke-dasharray="" stroke-dashoffset="0" font-family="Helvetica" font-weight="normal" text-anchor="start" style="mix-blend-mode: normal" >Costumise Your Computer!</text><g><path d="M192.40053,204.18515c-13.48115,8.26546 -48.01559,3.17904 -65.77979,3.17904c-15.02846,0 -61.10479,5.22419 -73.25166,-0.85099c-10.61092,-5.30698 -9.4888,-55.70781 -9.4888,-70.92276c0,-22.36311 -2.81088,-51.03731 15.6718,-64.20045c14.27861,-10.16907 47.15251,-7.57325 67.0687,-7.57325c21.4169,0 57.62039,-4.12695 72.31327,7.45471c16.65668,13.12964 14.66405,119.91724 -6.53351,132.91374z" fill="url(#color-3)" stroke="none" stroke-width="2"/><g stroke="none" stroke-width="0.5"><path d="M103.05418,176.47317c-2.23001,0 -2.23001,-2.39445 -2.23001,-2.39445v-0.47937c0,-2.06054 -0.2279,-3.75534 1.0996,-5.5281c0.20852,-0.27845 0.62279,-0.27069 0.89289,-0.47937c0.04692,-0.03625 -0.05706,-0.12373 -0.03696,-0.18192c0.24501,-0.70923 0.37509,-1.50593 0.82204,-2.09065c0.39323,-0.51444 1.05352,-0.70146 1.58028,-1.05219c0,0 1.99458,-1.07083 2.99187,1.07083c0.99729,2.14167 -0.9973,3.2125 -0.9973,3.2125c-0.0685,-0.03115 -0.1762,-0.16686 -0.20552,-0.09345c-0.09656,0.2418 0.02521,0.54356 -0.07086,0.78557c-0.24371,0.61398 -0.51827,1.23542 -0.92986,1.73556c-0.17205,0.20907 -0.42946,0.30859 -0.68267,0.40099c0.19244,0.47313 -0.00352,1.84938 -0.00352,2.2202v0.47937c0,0 0,2.39445 -2.23001,2.39445z" fill="url(#color-4)"/><path d="M87.43071,182.22802c0,-2.39445 2.23001,-2.39445 2.23001,-2.39445h0.44645c0.42495,0 0.86295,0.18201 1.27344,0.06406c0.47831,-0.13745 0.85799,-0.53224 1.30086,-0.77c0.73166,-0.39281 1.71317,-0.7238 2.37207,-1.23893c0.4755,-0.37175 0.81453,-0.9521 1.34342,-1.22844c0.37132,-0.19401 0.83166,-0.01804 1.23393,-0.11821c0.49848,-0.12413 1.47001,-0.70081 1.88713,-1.05019c0.33189,-0.27798 0.53023,-0.72934 0.8929,-0.95874c0.0083,-0.00525 0.01729,-0.00913 0.0268,-0.01177c0.14023,-0.70385 0.60822,-1.87832 2.17002,-1.87832c2.23001,0 2.23001,2.39445 2.23001,2.39445c-0.11102,0.73919 0.01579,1.56926 -0.33305,2.21758c-0.30663,0.56986 -1.01446,0.74248 -1.48595,1.16301c-1.2597,1.12356 -2.71226,2.31432 -4.36315,2.78477c-0.1813,0.05167 -0.38645,-0.21318 -0.55186,-0.11821c-0.22911,0.13154 -0.23709,0.51805 -0.44237,0.68904c-0.14541,0.12112 -1.78821,0.9946 -2.09241,1.15792c-0.96423,0.51767 -2.12756,1.35428 -3.16363,1.62685c-0.29501,0.07761 -1.83,0.06406 -2.29815,0.06406h-0.44645c0,0 -2.23001,0 -2.23001,-2.39445z" fill="url(#color-5)"/><path d="M73.93063,186.76653c-1.99458,-1.07083 -0.99729,-3.2125 -0.99729,-3.2125l0.86418,-1.58104c0.65246,-0.37221 1.26332,-0.84472 1.9574,-1.11664c0.2796,-0.10954 0.60415,0.07751 0.8929,0c0.32283,-0.08666 0.56792,-0.40253 0.89289,-0.47937c1.24131,-0.29352 2.80876,-0.06406 4.08394,-0.06406c0.8929,0 1.78579,0 2.67869,0c0.42495,0 0.86684,0.19666 1.27344,0.06406c0.3184,-0.10384 0.56565,-0.41458 0.89289,-0.47937c0.37548,-0.07434 2.08898,-0.06406 2.74459,-0.06406c0,0 2.23001,0 2.23001,2.39445c0,2.39445 -2.23001,2.39445 -2.23001,2.39445c-0.57364,0 -1.16023,-0.19921 -1.71989,-0.06406c-0.32465,0.0784 -0.56792,0.40253 -0.8929,0.47937c-1.79023,0.42332 -4.03548,0.06406 -5.86974,0.06406c-0.55243,0 -1.6572,-0.2301 -2.16634,-0.06406c-0.3184,0.10384 -0.57007,0.39271 -0.8929,0.47937c-0.23793,0.06387 -0.492,0.06583 -0.73723,0.02882l-0.01278,0.14972c0,0 -0.99729,2.14167 -2.99187,1.07083z" fill="url(#color-6)"/><path d="M59.74867,181.27167c1.25876,0 1.80699,0.76292 2.04578,1.42748c0.80338,-0.02573 1.61678,0.01064 2.41871,0.01064c3.27396,0 6.54791,0 9.82187,0c0,0 2.23001,0 2.23001,2.39445c0,2.39445 -2.23001,2.39445 -2.23001,2.39445c-3.27396,0 -6.54791,0 -9.82187,0c-0.89156,0 -1.78746,0.02484 -2.67869,0c-0.46868,-0.01306 -0.97121,0.12628 -1.40525,-0.06406c-0.83224,-0.36496 -1.51833,-1.03395 -2.27751,-1.55094l-0.33305,-2.21758c0,0 0,-2.39445 2.23001,-2.39445z" fill="url(#color-7)"/></g><path d="M127.84636,141.22652c1.57686,1.69314 0,3.38627 0,3.38627l-0.44645,0.47937c-1.14961,1.21644 -1.46181,1.71251 -3.16288,2.51606c-0.21044,0.09941 -0.45698,-0.10416 -0.68573,-0.07952c-0.04985,0.00537 0.07604,0.09473 0.06279,0.14661c-0.05655,0.22151 -0.16866,0.42231 -0.26094,0.62951c-0.37108,0.83315 -1.14019,2.48993 -1.7151,2.88349c-0.42707,0.29236 -0.95543,0.34869 -1.47982,0.35761c-0.16706,0.54962 -0.57804,1.02631 -0.82311,1.5526c-0.1521,0.32664 -0.96559,2.09057 -1.0784,2.24671c-0.15924,0.22042 -0.45993,0.2757 -0.64172,0.47499c-0.04065,0.04457 0.16265,-0.01949 0.16975,0.04242c0.02874,0.25066 -0.01125,2.73483 -0.05966,2.94698c-0.11113,0.48701 -1.20886,2.76247 -1.4864,3.06049c-0.40242,0.43209 -0.96344,0.65462 -1.47246,0.9279c-0.09381,0.05037 -0.24662,-0.05605 -0.31334,0.03084c-0.21167,0.27569 -0.20103,0.71744 -0.44645,0.95874c-0.41973,0.41267 -0.96344,0.65462 -1.47246,0.9279c-0.09381,0.05037 -0.24661,-0.05605 -0.31333,0.03084c-0.21167,0.27569 -0.20103,0.71744 -0.44645,0.95874c-0.41973,0.41267 -0.96785,0.64535 -1.47246,0.9279c-0.44683,0.2502 -0.89182,0.52511 -1.37783,0.66811c-0.42716,0.12568 -0.93179,0.02771 -1.30086,0.29063c0,0 -1.99458,1.07083 -2.99187,-1.07083c-0.99729,-2.14167 0.9973,-3.2125 0.9973,-3.2125c0.45928,-0.22271 0.89181,-0.52511 1.37783,-0.66811c0.275,-0.08091 1.34566,0.02827 1.61419,-0.32147c0.21167,-0.27569 0.20103,-0.71745 0.44645,-0.95874c0.41973,-0.41267 0.96344,-0.65462 1.47246,-0.9279c0.09381,-0.05037 0.24661,0.05605 0.31333,-0.03084c0.21167,-0.27569 0.20103,-0.71744 0.44645,-0.95874c0.41973,-0.41267 0.96344,-0.65462 1.47246,-0.9279c0.09381,-0.05037 0.23917,0.04879 0.31334,-0.03084c0.20325,-0.21824 0.24956,-0.87933 0.23975,-1.18308c-0.02034,-0.6296 -0.01655,-2.84274 0.16975,-3.31317c0.23017,-0.5812 0.79787,-0.93192 1.14408,-1.44249c0.3217,-0.47442 0.46297,-1.06336 0.70739,-1.58825c0.51324,-1.10218 1.23259,-3.20629 2.16154,-3.84223c0.4373,-0.29937 0.98079,-0.35124 1.5175,-0.35817c0.09844,-0.20238 0.24201,-0.39123 0.339,-0.5933c0.20704,-0.43134 0.33517,-0.922 0.63195,-1.28797c0.54228,-0.6687 1.13564,-1.32346 1.84859,-1.77086c0.3173,-0.19912 0.7514,0.04525 1.10007,-0.07953c0.21434,-0.0767 1.26528,-1.27908 1.30161,-1.3189l0.44645,-0.47937c0,0 1.57686,-1.69314 3.15371,0z" fill="url(#color-8)" stroke="none" stroke-width="0.5"/><g stroke="#000000" stroke-width="3.99013"><path d="M141.72187,124.4166c0,0 -0.21497,-0.49804 0,-0.86201c0.21497,-0.36396 2.10126,-3.5307 3.92661,-5.78852c1.82563,-2.25781 4.09608,-4.59735 6.76555,-7.43653c2.66947,-2.83918 3.97061,-4.20753 6.57288,-6.75012c2.60227,-2.54259 3.8377,-3.66416 6.34839,-5.87536c2.5104,-2.21088 3.89419,-3.06873 6.15394,-5.13499c2.25944,-2.06626 2.85738,-2.95476 4.73981,-4.82658c1.88213,-1.87215 3.45146,-3.35288 4.88967,-4.74996c2.17054,-2.02731 3.33134,-2.9107 3.80589,-3.4959c0.28247,-0.34831 0.08117,-0.61234 0.2676,-0.87797c0.18405,-0.26243 0.36156,-0.05172 0.55007,-0.28733c0.18851,-0.23562 0.26939,-1.42199 1.08527,-1.75594c0.81589,-0.33395 3.17286,-0.49454 4.60869,-0.57467c0.30536,-0.01692 0.44184,0.0581 0.55007,0.28733c0.10823,0.22923 0.09455,0.52678 0,0.87797c-0.09455,0.35119 -0.21527,0.62064 -0.55007,1.1653c-0.3348,0.54466 -1.77628,3.08821 -3.22608,4.98047c-1.4498,1.89226 -2.71348,3.06682 -4.63842,5.28376c-1.92494,2.21695 -4.13623,4.68387 -6.63056,7.69418c-2.49434,3.01031 -3.34383,4.35919 -5.60476,7.07162c-2.26094,2.71244 -3.61143,4.32821 -5.91696,6.75236c-2.29572,2.41393 -2.86749,2.8344 -4.83169,4.54946c-1.96419,1.71507 -3.2796,2.56366 -5.27769,4.27809c-1.99809,1.71443 -2.76195,2.5493 -4.63842,4.2302c-1.87648,1.68091 -3.17851,3.76344 -5.41149,4.77295c-1.77301,0.80135 -2.76997,0.20944 -3.80589,-0.6066c-0.98299,-0.77421 -0.18881,-1.83671 -0.2676,-2.60197" fill="#a85b00"/><path d="M144.47222,128.48718c-0.3235,1.97176 -0.86881,5.84119 -1.10014,6.70447c-0.23133,0.86328 -0.55958,0.71195 -1.08527,1.45263c-0.85483,1.20425 -2.14735,3.17281 -2.43814,3.51187c-0.29079,0.33906 -0.62173,0.13154 -0.81767,0.28733c-0.19594,0.1558 -0.02855,0.38152 -0.2676,0.57467c-0.24828,0.20082 -0.62262,0.14527 -0.81767,0.30329c-0.19505,0.15804 -0.09991,0.39461 -0.2676,0.57467c-0.16769,0.18006 -0.38594,0.12706 -0.55007,0.30329c-0.16413,0.17623 -0.03182,0.37705 -0.2676,0.57467c-0.65027,0.54498 -1.62226,1.19659 -2.17054,1.4686c-0.54828,0.27201 -0.67079,0.28733 -1.36774,0.28733c-2.0189,0 -5.52686,-0.20433 -6.24403,-0.28733c-0.71717,-0.08301 -1.09776,-0.47282 -1.35287,-0.59063c-0.25511,-0.1178 -0.25244,-0.22476 -0.55007,-0.28733c-0.29763,-0.06258 -0.97585,0.40482 -0.81767,0c0.65859,-1.68506 2.06558,-3.16643 2.98821,-5.55513c0.92263,-2.3887 0.39129,-4.3876 1.63534,-6.41714c1.24405,-2.02954 2.29721,-2.81492 4.61969,-3.78739c2.32278,-0.97215 6.5155,-0.87382 6.5155,-0.87382" fill="#f2e7be"/></g></g></g></g></svg>