<svg version="1.1" xmlns="http://www.w3.org/2000/svg" xmlns:xlink="http://www.w3.org/1999/xlink" width="82.19564" height="93.42681" viewBox="0,0,82.19564,93.42681"><g transform="translate(-207.00035,-135)"><g data-paper-data="{&quot;isPaintingLayer&quot;:true}" fill="none" fill-rule="nonzero" stroke="none" stroke-width="none" stroke-linecap="none" stroke-linejoin="none" stroke-miterlimit="10" stroke-dasharray="" stroke-dashoffset="0" font-family="none" font-weight="none" font-size="none" text-anchor="none" style="mix-blend-mode: normal"><path d="M248.266,193.904c0.611,-0.737 12.311,-2.573 13.018,-3.028c7.315,-4.723 11.973,-4.211 12.634,-2.811c1.57,3.244 -0.833,6.646 -7.427,9.041c-4.926,1.788 -13.332,3.122 -14.09,3.56" id="ID0.1790580078959465_58_" fill="#ffffff" stroke="#8e5322" stroke-width="1.4" stroke-linecap="round" stroke-linejoin="round"/><path d="M240.649,200.452c0.949,0.277 2.755,0.654 1.432,4.688c-1.323,4.034 -7.892,6.612 -8.688,6.824c-2.921,0.914 -6.685,1.956 -11.17,1.679c-12.914,-0.668 -16.637,-13.686 -13.443,-16.806c3.193,-3.12 7.105,4.427 13.77,7.841c3.013,1.543 6.013,1.606 8.511,1.378c3.527,-0.228 8.686,-5.792 9.588,-5.604z" id="ID0.8535828334279358_37_" fill="#faa51f" stroke="none" stroke-width="1" stroke-linecap="butt" stroke-linejoin="miter"/><path d="M214.442,198.633c2.311,1.929 6.556,5.3 6.556,5.3c0,0 -4.189,0.471 -5.753,2.816c-1.567,2.343 1.74,5.661 -0.076,5.061c-1.558,-0.969 -4.036,-2.578 -5.991,-5.725c-1.867,-3.196 -2.017,-8.246 -0.273,-9.431c1.928,-1.058 3.497,0.134 5.537,1.979z" id="ID0.914295740891248_43_" fill="#ffffff" stroke="none" stroke-width="1" stroke-linecap="butt" stroke-linejoin="miter"/><path d="M240.649,200.452c0.949,0.277 2.755,0.654 1.432,4.688c-1.323,4.034 -7.892,6.612 -8.688,6.824c-2.921,0.914 -6.685,1.956 -11.17,1.679c-12.914,-0.668 -16.637,-13.686 -13.443,-16.806c3.193,-3.12 7.105,4.427 13.77,7.841c3.013,1.543 6.013,1.606 8.511,1.378c3.527,-0.228 8.686,-5.792 9.588,-5.604z" id="ID0.40227043256163597_43_" fill="#ffffff" stroke="#8e5322" stroke-width="1.4" stroke-linecap="round" stroke-linejoin="round"/><path d="M246.157,196.663l-5.072,13.729c0,0 1.586,-0.785 -3.176,2.299c-2.814,1.78 -16.642,-2.591 -18.531,-7.523c-1.293,-3.402 5.352,-18.23 5.352,-18.23z" id="ID0.26344340899959207_38_" fill="#518943" stroke="#426c36" stroke-width="1.4" stroke-linecap="round" stroke-linejoin="round"/><path d="M231.083,176.298c1.377,0.402 2.391,1.564 2.917,3.115c0.527,1.549 0.564,3.488 -0.012,5.449c-0.572,1.959 -1.654,3.57 -2.936,4.59c-1.279,1.021 -2.76,1.449 -4.137,1.045c-1.377,-0.404 -2.39,-1.564 -2.915,-3.117c-0.525,-1.549 -0.564,-3.488 0.01,-5.447c0.576,-1.959 1.656,-3.57 2.938,-4.59c1.278,-1.02 2.759,-1.449 4.135,-1.045z" id="ID0.2414738917723298_38_" fill="#fefbdf" stroke="#70715e" stroke-width="1.4" stroke-linecap="round" stroke-linejoin="round"/><path d="M230.154,179.464c0.74,0.217 1.283,0.855 1.561,1.711c0.277,0.854 0.291,1.926 -0.029,3.012c-0.318,1.084 -0.908,1.98 -1.604,2.549c-0.693,0.57 -1.496,0.813 -2.236,0.596c-0.74,-0.217 -1.283,-0.855 -1.561,-1.711c-0.277,-0.854 -0.289,-1.926 0.029,-3.012c0.318,-1.084 0.908,-1.98 1.604,-2.549c0.695,-0.571 1.496,-0.815 2.236,-0.596z" id="ID0.6192030962556601_38_" fill="#fefbdf" stroke="#70715e" stroke-width="1.4" stroke-linecap="round" stroke-linejoin="round"/><path d="M222.009,204.376c-0.707,-1.144 1.627,-6.607 1.627,-6.607l5.871,3.078l-2.648,7.248c0,0 -4.213,-2.696 -4.85,-3.719z" id="ID0.15330331353470683_38_" fill="#518943" stroke="#426c36" stroke-width="1.4" stroke-linecap="round" stroke-linejoin="round"/><path d="M253.101,199.642c-1.887,6.43 -3.016,16.313 -14.436,12.961c-11.418,-3.352 -7.826,-11.678 -5.939,-18.107c1.887,-6.429 6.326,-7.002 12.756,-5.115c6.428,1.888 9.506,3.833 7.619,10.261z" id="ID0.46792364912107587_43_" fill="#ffffff" stroke="#8e5322" stroke-width="1.4" stroke-linecap="round" stroke-linejoin="round"/><path d="M250.778,206.184c0,0 -0.747,4.168 2.588,12.35c1.396,3.55 5.606,-2.605 9.528,3.504c0.424,2.067 -9.347,5.644 -11.59,5.493c-2.022,-0.117 -2.705,-0.638 -3.002,-2.64c-0.954,-5.604 -5.535,-11.557 -5.535,-11.557" id="ID0.007584026083350182_51_" fill="#ffffff" stroke="#8e5322" stroke-width="1.4" stroke-linecap="round" stroke-linejoin="round"/><path d="M253.159,220.586c1.345,-0.725 2.647,-0.913 2.647,-0.913" id="ID0.31672530295327306_51_" fill="#faa51f" stroke="#8e5322" stroke-width="1.4" stroke-linecap="round" stroke-linejoin="round"/><path d="M249.789,201.69c-1.184,4.031 -2.094,10.33 -8.234,8.527c-6.141,-1.801 -4.057,-7.129 -2.873,-11.16c1.184,-4.031 3.631,-4.563 7.182,-3.52c3.55,1.042 5.106,2.126 3.925,6.153z" id="ID0.38032895559445024_43_" fill="#bababa" stroke="none" stroke-width="1" stroke-linecap="butt" stroke-linejoin="miter"/><path d="M230.299,205.019c19.064,-9.203 6.232,-18.389 6.232,-18.389c16.219,10.074 -1.771,20.949 -6.375,21.369" id="ID0.48627097019925714_38_" fill="#518943" stroke="#426c36" stroke-width="1.4" stroke-linecap="round" stroke-linejoin="round"/><path d="M250.704,204.026c6.51,-7.261 -2.564,-13.99 -2.564,-13.99c10.275,5.83 7.627,11.307 4.119,15.801" id="ID0.07006075512617826_38_" fill="#518943" stroke="#426c36" stroke-width="1.4" stroke-linecap="round" stroke-linejoin="round"/><path d="M255.516,145.052l8.08,-5.965l1.261,11.476c0,0 5.525,5.394 6.976,8.82c2.356,5.671 1.875,9.944 1.875,9.944c0,0 6.554,3.012 7.002,8.623c0.447,5.612 -5.23,15.436 -23.748,16.55c-18.52,1.111 -32.325,-5.713 -37.666,-17.642c-5.253,-11.817 7.227,-23.44 6.526,-22.729l0.289,-18.429l11.378,9.825c0,0 4.489,-1.105 9.075,-0.683c1.697,0.131 4.742,0.747 6.215,1.048z" id="ID0.2591130444779992_41_" fill="#faa51f" stroke="none" stroke-width="1" stroke-linecap="butt" stroke-linejoin="miter"/><path d="M273.247,169.769c0,0 6.325,2.475 6.771,8.086c0.744,5.653 -5.514,15.297 -22.974,16.049c-3.959,0.167 -7.522,0.388 -12.971,-0.353c-8.436,-1.048 -16.937,-7.554 -14.745,-18.457c1.258,-6.288 9.218,-4.7 9.218,-4.7l7.277,-0.826c0,0 6.82,2.543 11.102,2.218c4.284,-0.325 4.729,-3.595 4.729,-3.595l9.069,-1.391l2.108,2.306z" id="ID0.3588979784399271_41_" fill="#ffffff" stroke="none" stroke-width="1" stroke-linecap="butt" stroke-linejoin="miter"/><path d="M288.496,172.652c0,0 -2,1.342 -4.697,1.884c-2.289,0.495 -6.743,0.596 -6.743,0.596" id="ID0.2727069961838424_41_" fill="none" stroke="#8e5322" stroke-width="1.4" stroke-linecap="round" stroke-linejoin="round"/><path d="M286.389,183.669c0,0 -1.808,-0.044 -4.445,-0.707c-2.746,-0.575 -5.175,-2.016 -5.175,-2.016" id="ID0.5861211125738919_41_" fill="none" stroke="#8e5322" stroke-width="1.4" stroke-linecap="round" stroke-linejoin="round"/><path d="M235.412,143.729l4.668,4.268" id="ID0.4793355236761272_41_" fill="none" stroke="#8e5322" stroke-width="1.4" stroke-linecap="round" stroke-linejoin="round"/><path d="M255.516,145.052l8.08,-5.965l1.261,11.476c0,0 5.525,5.394 6.976,8.82c2.356,5.671 1.875,9.944 1.875,9.944c0,0 6.554,3.012 7.002,8.623c0.447,5.612 -5.23,15.436 -23.748,16.55c-18.52,1.111 -32.325,-5.713 -37.666,-17.642c-5.253,-11.817 7.227,-23.44 6.526,-22.729l0.289,-18.429l11.378,9.825c0,0 4.489,-1.105 9.075,-0.683c1.697,0.131 4.742,0.747 6.215,1.048z" id="ID0.48413723474368453_41_" fill="none" stroke="#8e5322" stroke-width="1.4" stroke-linecap="round" stroke-linejoin="round"/><path d="M219.309,172.317c0,0 -3.536,0.024 -5.334,-0.121c-1.796,-0.142 -5.705,-1.079 -5.705,-1.079" id="ID0.9024141579866409_41_" fill="none" stroke="#8e5322" stroke-width="1.4" stroke-linecap="round" stroke-linejoin="round"/><path d="M208.771,161.497c0,0 2.128,0.694 5.848,3.017c3.351,2.07 5.4,4.065 5.4,4.065" id="ID0.16030752705410123_41_" fill="none" stroke="#8e5322" stroke-width="1.4" stroke-linecap="round" stroke-linejoin="round"/><path d="M267.658,158.916c2.195,4.639 1.619,9.606 -1.284,10.927c-2.92,1.419 -7.095,-1.269 -9.275,-6.006c-2.194,-4.639 -1.619,-9.606 1.285,-10.927c2.905,-1.32 7.08,1.368 9.274,6.006z" id="ID0.40023312577977777_41_" fill="#ffffff" stroke="#8e5322" stroke-width="1.4" stroke-linecap="round" stroke-linejoin="round"/><path d="M265.353,162.166c0.188,1.186 -0.537,2.247 -1.723,2.434c-1.073,0.203 -2.119,-0.636 -2.291,-1.937c-0.186,-1.185 0.539,-2.247 1.725,-2.434c1.17,-0.072 2.102,0.75 2.289,1.937" id="ID0.43813491938635707_41_" fill="#414142" stroke="none" stroke-width="1" stroke-linecap="butt" stroke-linejoin="miter"/><path d="M244.252,158.858c2.193,4.638 1.195,9.751 -2.26,11.4c-3.453,1.648 -8.065,-0.796 -10.245,-5.533c-2.195,-4.639 -1.196,-9.751 2.257,-11.399c3.44,-1.55 8.053,0.895 10.248,5.532z" id="ID0.4253597157076001_41_" fill="#ffffff" stroke="#8e5322" stroke-width="1.4" stroke-linecap="round" stroke-linejoin="round"/><path d="M241,162.313c-0.179,1.139 -1.386,2.041 -2.565,1.9c-1.311,-0.155 -2.087,-1.175 -1.891,-2.428c0.178,-1.14 1.388,-2.041 2.567,-1.901c1.18,0.138 2.084,1.175 1.889,2.429" id="ID0.814307457767427_41_" fill="#414142" stroke="none" stroke-width="1" stroke-linecap="butt" stroke-linejoin="miter"/><path d="M253.816,170.152c1.711,0.03 4.166,-0.947 4.206,0.976c-0.108,0.793 -2.138,3.847 -3.934,3.703c-1.995,-0.17 -5.126,-3.119 -4.825,-4.592c0.301,-1.473 3.04,-0.091 4.553,-0.087z" id="ID0.5240494590252638_48_" fill="#5f4b43" stroke="#8e5322" stroke-width="1.4" stroke-linecap="round" stroke-linejoin="round"/><path d="M251.046,180.816c3.328,1.072 3.791,4.155 3.801,5.81c-0.141,0.669 -1.201,1.219 -4.647,0.681c-2.904,-0.298 -5.907,-1.334 -5.529,-2.562c0.378,-1.228 2.934,-4.465 6.375,-3.929z" id="ID0.5240494590252638_47_" fill="#5f4b43" stroke="#8e5322" stroke-width="1.4" stroke-linecap="round" stroke-linejoin="round"/><path d="M231.749,197.856c-0.642,-0.597 -8.533,-3.787 -12.93,-6.639c-5.887,-3.817 -7.463,-7.671 -5.203,-10.479c0.96,-1.215 5.612,-0.667 11.678,5.581c0.586,0.603 11.572,5.025 12.003,5.88" id="ID0.1790580078959465_57_" fill="#ffffff" stroke="#8e5322" stroke-width="1.4" stroke-linecap="round" stroke-linejoin="round"/><path d="M255.805,226.5c-3.726,1.334 -7.03,1.626 -7.377,0.649c-0.351,-0.976 2.386,-2.847 6.112,-4.181c3.724,-1.334 8.026,-1.709 8.374,-0.732c0.349,0.976 -3.383,2.931 -7.109,4.264z" fill="#ffffff" stroke="#8e5322" stroke-width="1.4" stroke-linecap="round" stroke-linejoin="round"/><path d="M240.936,213.334c0,0 -4.581,5.953 -5.535,11.557c-0.297,2.002 -0.98,2.523 -3.002,2.64c-2.243,0.151 -12.014,-3.426 -11.59,-5.493c3.922,-6.109 8.132,0.046 9.528,-3.504c3.335,-8.182 2.588,-12.35 2.588,-12.35" id="ID0.007584026083350182_48_" fill="#ffffff" stroke="#8e5322" stroke-width="1.4" stroke-linecap="round" stroke-linejoin="round"/><path d="M227.898,219.673c0,0 1.302,0.188 2.647,0.913" id="ID0.31672530295327306_47_" fill="#faa51f" stroke="#8e5322" stroke-width="1.4" stroke-linecap="round" stroke-linejoin="round"/><path d="M220.79,222.236c0.348,-0.977 4.65,-0.602 8.374,0.732c3.726,1.334 6.463,3.205 6.112,4.181c-0.347,0.977 -3.651,0.685 -7.377,-0.649c-3.726,-1.333 -7.458,-3.288 -7.109,-4.264z" fill="#ffffff" stroke="#8e5322" stroke-width="1.4" stroke-linecap="round" stroke-linejoin="round"/></g></g></svg>