<svg xmlns="http://www.w3.org/2000/svg" xmlns:xlink="http://www.w3.org/1999/xlink" version="1.1" width="182.9285125732422" height="198.04800415039062" viewBox="-6.999505519866943 -5.99399995803833 182.9285125732422 198.04800415039062">
  <!-- Exported by Scratch - http://scratch.mit.edu/ -->
  <g id="ID0.712121439166367">
    <path id="ID0.9689886146225035" fill="#FAA51D" stroke="#000000" stroke-width="1.2" d="M 104.989 150.234 C 104.408 150.234 103.819 150.156 103.232 149.991 L 83.279 144.404 C 80.144 143.527 78.142 140.466 78.595 137.242 L 81.841 114.123 C 82.34 110.567 85.634 108.095 89.181 108.59 C 92.737 109.089 95.213 112.375 94.714 115.93 L 92.259 133.419 L 106.738 137.474 C 110.195 138.442 112.213 142.029 111.244 145.486 C 110.44 148.355 107.831 150.234 104.989 150.234 L 104.989 150.234 Z "/>
    <g id="ID0.23397165536880493">
      <path id="ID0.17843658570200205" fill="none" stroke="#000000" stroke-width="15" stroke-linecap="round" stroke-linejoin="round" d="M 79.201 110.741 L 71.622 129.809 L 78.58 148.63 "/>
      <path id="ID0.5408652606420219" fill="none" stroke="#FAA51D" stroke-width="13" stroke-linecap="round" stroke-linejoin="round" d="M 79.201 110.741 L 71.622 129.809 L 78.58 148.63 "/>
    </g>
    <path id="ID0.4675603983923793_1_" fill="#FAA51D" stroke="#231F20" stroke-width="1.2" d="M 94.231 17.153 C 91.399 16.89 85.496 16.572 82.245 16.728 C 73.551 17.142 65.283 20.273 65.283 20.273 L 41.343 4.65 L 45.452 39.418 C 46.64 37.979 26.042 62.963 39.055 83.964 C 52.076 104.976 79.941 114.339 114.429 107.487 C 148.919 100.63 157.146 80.765 154.861 70.257 C 152.577 59.749 139.557 55.87 139.557 55.87 C 139.557 55.87 139.392 47.632 133.437 37.536 C 129.895 31.526 118.085 22.749 118.085 22.749 L 112.827 1.506 L 99.125 14.754 L 94.231 17.153 L 94.231 17.153 Z "/>
    <path id="ID0.876089540310204_1_" fill="#FFFFFF" d="M 137.833 55.605 L 133.269 51.81 L 116.507 56.703 C 116.507 56.703 116.507 62.991 108.477 64.733 C 100.441 66.483 87.861 60.546 87.861 60.546 L 73.545 66.83 C 73.545 66.83 58.029 68.535 57.475 78.012 C 56.237 99.074 82.079 107.854 91.871 108.413 C 97.214 108.721 107.015 107.791 114.448 106.314 C 147.093 100.367 155.917 80.718 153.636 70.207 C 151.352 59.699 138.964 56.975 138.964 56.975 L 137.833 55.605 L 137.833 55.605 Z " stroke-width="1"/>
    <path id="ID0.44282719027251005_1_" fill="none" stroke="#231F20" stroke-width="1.2" d="M 16.929 75.997 C 16.929 75.997 24.482 76.685 27.915 76.49 C 31.345 76.294 38.015 75.411 38.015 75.411 "/>
    <path id="ID0.893105489667505_1_" fill="none" stroke="#231F20" stroke-width="1.2" d="M 147.462 65.913 C 147.462 65.913 155.827 64.546 160.075 63.063 C 165.067 61.332 168.429 58.383 168.429 58.383 "/>
    <path id="ID0.03574043000116944_1_" fill="none" stroke="#231F20" stroke-width="1.2" d="M 38.378 68.189 C 38.378 68.189 33.994 64.92 27.13 61.881 C 19.527 58.514 15.352 57.646 15.352 57.646 "/>
    <path id="ID0.6674723788164556_1_" fill="none" stroke="#231F20" stroke-width="1.2" d="M 148.31 76.856 C 148.31 76.856 153.324 78.885 158.485 79.403 C 163.58 79.911 167.029 79.605 167.029 79.605 "/>
    <path id="ID0.12165586883202195_1_" fill="none" stroke="#000000" stroke-linecap="round" d="M 93.571 17.256 C 98.793 18.543 100.718 19.957 100.718 19.957 " stroke-width="1"/>
    <path id="ID0.178104005753994_1_" fill="none" stroke="#000000" d="M 59.638 16.285 L 70.779 24.299 " stroke-width="1"/>
    <path id="ID0.7735752793960273_1_" fill="#FFFFFF" stroke="#231F20" d="M 129.412 37.767 C 134.789 46.003 134.989 55.405 129.857 58.758 C 124.72 62.114 116.201 58.149 110.816 49.907 C 105.422 41.669 105.232 32.274 110.368 28.916 C 115.5 25.564 124.029 29.525 129.412 37.767 L 129.412 37.767 Z " stroke-width="1"/>
    <path id="ID0.19106501014903188_1_" fill="#231F20" d="M 128.031 50.928 C 128.031 52.913 126.556 54.525 124.72 54.525 C 122.894 54.525 121.405 52.913 121.405 50.928 C 121.405 48.942 122.894 47.326 124.72 47.326 C 126.556 47.326 128.031 48.941 128.031 50.928 " stroke-width="1"/>
    <path id="ID0.06283409334719181_1_" fill="#FFFFFF" stroke="#231F20" d="M 85.327 43.75 C 90.708 51.988 90.142 61.886 84.074 65.845 C 78.002 69.816 68.718 66.345 63.339 58.107 C 57.955 49.869 58.514 39.975 64.586 36.008 C 70.66 32.043 79.941 35.508 85.327 43.75 L 85.327 43.75 Z " stroke-width="1"/>
    <path id="ID0.716460831463337_1_" fill="#231F20" d="M 82.039 54.577 C 82.039 56.565 80.562 58.177 78.726 58.177 C 76.902 58.177 75.412 56.562 75.412 54.577 C 75.412 52.592 76.902 50.978 78.726 50.978 C 80.558 50.978 82.039 52.592 82.039 54.577 " stroke-width="1"/>
    <path id="ID0.5430324394255877_1_" fill="#5E4A42" stroke="#000000" d="M 107.208 60.864 C 110.617 60.864 115.584 60.343 115.845 61.911 C 116.109 63.483 112.702 69.64 110.351 69.901 C 107.992 70.163 99.087 65.574 98.958 62.694 C 98.823 59.815 104.062 60.864 107.208 60.864 L 107.208 60.864 Z " stroke-width="1"/>
    <path id="ID0.5547774969600141_1_" fill="none" stroke="#231F20" stroke-width="1.2" d="M 83.317 74.306 C 83.317 74.306 102.344 79.922 109.461 81.472 C 116.574 83.021 129.416 84.57 129.416 84.57 C 129.416 84.57 114.723 103.41 97.551 98.627 C 80.378 93.85 80.689 83.022 83.317 74.306 L 83.317 74.306 Z "/>
    <path id="ID0.6837002756074071" fill="#FAA51D" stroke="#000000" stroke-width="1.2" d="M 54.314 176.475 C 52.286 176.475 50.264 175.658 48.785 174.044 L 36.703 160.911 C 34.629 158.662 34.128 155.379 35.438 152.614 C 36.748 149.849 39.614 148.152 42.661 148.34 L 67.93 149.842 L 66.625 136.403 C 66.225 132.28 69.242 128.614 73.365 128.214 C 77.492 127.801 81.154 130.832 81.554 134.954 L 83.706 157.126 C 83.918 159.309 83.164 161.475 81.643 163.054 C 80.122 164.632 78 165.473 75.796 165.337 L 60.266 164.414 C 62.609 167.465 62.27 171.853 59.381 174.503 C 57.942 175.822 56.125 176.475 54.314 176.475 L 54.314 176.475 Z "/>
    <path id="ID0.7152078151702881_1_" fill="#FAA51D" stroke="#000000" d="M 36.685 135.594 C 32.41 134.131 27.381 131.802 23.527 127.163 C 14.911 116.785 13.89 101.595 6.323 104.368 C -1.249 107.143 -4.587 130.959 16.425 141.513 C 23.665 145.156 30.607 146.179 36.258 146.848 C 37.74 147.017 50.473 147.706 55.68 142.111 C 60.884 136.515 58.123 134.528 56.777 133.455 C 55.427 132.381 42.731 137.661 36.685 135.594 L 36.685 135.594 Z " stroke-width="1"/>
    <path id="ID0.4691764716990292_1_" fill="#FFFFFF" d="M 7.282 104.982 C 3.499 105.569 0.358 113.26 1.25 119.868 C 2.14 126.484 4.709 129.707 6.58 132.537 C 9.085 134.832 5.908 127.974 10.16 125.347 C 14.398 122.725 20.834 125.206 20.834 125.206 C 20.834 125.206 16.601 117.18 14.218 112.354 C 11.97 107.732 11.278 104.633 7.282 104.982 L 7.282 104.982 Z " stroke-width="1"/>
    <path id="ID0.26425604708492756_1_" fill="#FAA51D" stroke="#231F20" stroke-width="1.2" d="M 82.588 141.936 C 84.773 140.258 86.996 137.518 89.855 133.268 C 92.238 129.725 94.82 123.011 94.82 123.011 C 96.428 118.375 98.377 110.918 91.322 109.594 C 88.467 109.059 83.821 109.414 77.218 108.167 C 70.611 106.914 64.717 103.529 59.717 112.273 C 54.719 121.021 42.081 127.482 57.775 142.731 L 82.588 141.936 Z "/>
    <path id="ID0.619051730260253" fill="#FAA51D" stroke="#000000" stroke-width="1.2" d="M 88.701 184.554 L 64.242 184.554 C 61.536 184.554 59.039 183.096 57.71 180.739 C 56.38 178.382 56.424 175.49 57.824 173.175 L 67.891 156.522 L 57.415 143.948 C 54.764 140.765 55.194 136.036 58.377 133.385 C 61.561 130.734 66.289 131.164 68.94 134.347 L 82.836 151.028 C 84.883 153.486 85.147 156.971 83.491 159.709 L 77.538 169.557 L 88.699 169.557 C 92.842 169.557 96.199 172.914 96.199 177.057 C 96.199 181.2 92.843 184.554 88.701 184.554 L 88.701 184.554 Z "/>
    <path id="ID0.203311821911484_1_" fill="#FFFFFF" d="M 90.864 129.84 C 90.864 129.84 95.406 124.948 86.324 120.062 C 77.242 115.176 73.059 120.031 70.254 122.859 C 65.392 127.742 76.585 135.017 76.585 135.017 L 82.426 140.909 C 82.426 140.909 85.621 137.881 87.022 135.431 C 88.626 133.198 90.864 129.84 90.864 129.84 " stroke-width="1"/>
    <path id="ID0.45575406588613987" fill="#FAA51D" d="M 66.108 128.7697 C 68.0373 130.6687 69.1149 133.0708 69.2968 135.4178 C 69.4781 137.7655 68.765 140.0566 67.113 141.7351 C 65.461 143.4135 63.1814 144.1627 60.8311 144.0187 C 58.4815 143.8739 56.0627 142.8345 54.1334 140.9355 C 52.2041 139.0366 51.1265 136.6345 50.9445 134.2875 C 50.7633 131.9398 51.4764 129.6486 53.1284 127.9702 C 54.7804 126.2918 57.06 125.5426 59.4102 125.6866 C 61.7598 125.8313 64.1787 126.8708 66.108 128.7697 Z " stroke-width="1.0000217754203118"/>
    <path id="ID0.19342859694734216" fill="#FAA51D" stroke="#000000" stroke-width="1.2" d="M 50.145 152.848 C 47.26 152.848 44.626 150.913 43.861 147.994 L 38.973 129.338 C 38.271 126.657 39.345 123.826 41.649 122.286 L 60.599 109.62 C 63.586 107.626 67.62 108.429 69.616 111.412 C 71.61 114.397 70.808 118.433 67.824 120.429 L 52.722 130.52 L 56.437 144.698 C 57.346 148.171 55.269 151.723 51.796 152.634 C 51.244 152.778 50.69 152.848 50.145 152.848 L 50.145 152.848 Z "/>
  </g>
</svg>