<svg version="1.1" width="388" height="134" viewBox="-1 -1 388 134" xmlns="http://www.w3.org/2000/svg" xmlns:xlink="http://www.w3.org/1999/xlink">
  <!-- Exported by Scratch - http://scratch.mit.edu/ -->
  <g id="ID0.6074695289134979" transform="matrix(1, 0, 0, 1, 45, 114)">
    <g id="ID0.36852472508326173">
      <path id="ID0.41738378163427114" fill="#ff0000" stroke="none" stroke-width="0.5" d="M 127.477 176.426 C 129.327 174.482 132.149 173 136.453 173 C 148.953 173 148.953 185.500 148.953 185.500 L 136.453 200 C 133.526 199.526 129.276 202.373 126.455 202.839 C 123.018 203.406 118.965 203 115.453 203 C 109.265 203 103.459 203.099 97.451 201.839 C 94.910 201.306 90.994 202.208 88.451 201.839 C 87.408 201.687 86.488 201.026 85.451 200.839 C 83.930 200.564 82.269 201.027 80.831 200.464 C 74.528 197.994 70.880 194.022 67.249 188.720 C 65.209 185.988 63.575 182.972 61.601 180.193 C 60.794 179.057 59.552 178.257 58.820 177.072 C 58.266 176.175 58.362 174.976 57.820 174.072 C 57.335 173.263 56.277 172.896 55.820 172.072 C 53.297 167.523 52.210 161.970 51.196 156.951 C 50.526 153.634 49.455 150.387 49.047 147.027 C 47.861 137.265 49.485 127.743 52.595 118.547 C 53.953 114.530 54.635 112.030 57.313 108.191 C 57.918 107.323 62.109 103.166 63.614 101.661 C 64.879 100.489 65.696 98.911 66.786 97.575 C 69.622 94.101 73.341 90.721 76.614 87.661 C 78.005 86.361 79.256 84.857 80.881 83.867 C 85.411 81.108 93.741 78.824 98.926 78.094 C 100.090 77.930 101.287 78.328 102.451 78.161 C 103.494 78.012 104.408 77.313 105.451 77.161 C 107.587 76.851 109.796 77.446 111.926 77.094 C 115.916 76.433 119.369 76.000 123.453 76.000 C 123.453 76.000 135.953 76.000 135.953 88.500 C 135.953 101.000 123.453 101.000 123.453 101.000 C 116.224 101.000 109.106 102.180 101.980 102.906 C 99.377 103.172 96.505 105.562 94.025 105.133 C 93.914 105.114 94.365 105.253 94.292 105.339 C 93.374 106.415 92.292 107.339 91.292 108.339 C 87.723 111.908 84.783 115.742 81.292 119.339 C 80.097 120.534 78.631 121.475 77.594 122.809 C 76.415 124.324 75.885 127.742 75.312 129.453 C 72.749 137.102 74.178 144.303 75.710 152.049 C 76.164 154.343 75.689 157.053 77.086 158.928 C 80.731 163.819 83.802 169.166 87.657 174.280 C 88.048 174.894 88.427 175.516 88.823 176.126 C 89.046 176.116 89.278 176.136 89.455 176.161 C 90.499 176.310 91.424 176.945 92.455 177.161 C 94.996 177.694 98.912 176.792 101.455 177.161 C 102.499 177.313 103.424 177.945 104.455 178.161 C 107.662 178.834 112.113 178.000 115.453 178.000 C 117.507 178.000 120.474 178.508 122.451 178.161 C 124.120 177.869 125.792 177.117 127.477 176.426 Z " transform="matrix(1, 0, 0, 1, -48.65, -70.3)"/>
      <path id="ID0.18729354720562696" fill="#00fff3" stroke="none" stroke-width="0.5" d="M 328.589 155.310 C 330.440 153.423 333.235 152 337.453 152 C 349.953 152 349.953 164.500 349.953 164.500 L 341.406 177.359 C 340.309 177.724 338.952 177.442 338.025 178.133 C 337.269 178.697 336.849 179.676 336.025 180.133 C 334.510 180.973 327.458 183.508 325.455 183.839 C 319.391 184.839 312.286 184.063 306.451 182.839 C 305.146 182.565 303.787 183.000 302.453 183.000 C 298.586 183.000 295.147 183.070 291.451 181.839 C 286.549 181.839 282.106 179.894 277.500 178.359 C 271.166 176.247 263.871 174.795 259.519 169.087 C 255.808 164.219 256.047 160.725 255.953 155.500 C 255.804 147.174 255.609 138.584 257.115 130.498 C 257.926 126.138 260.115 122.876 260.115 118.498 C 261.540 114.220 260.283 111.569 261.905 106.716 C 262.410 105.205 264.019 104.306 264.820 102.928 C 265.149 102.363 264.914 101.584 265.224 101.008 C 266.252 99.102 267.470 97.295 268.786 95.575 C 272.460 90.776 277.846 87.468 282.528 83.833 C 287.016 80.349 288.110 78.331 293.958 76.498 C 299.791 74.671 305.449 75.000 311.453 75.000 C 311.453 75.000 323.953 75.000 323.953 87.500 C 323.953 100.000 311.453 100.000 311.453 100.000 C 309.120 100.000 306.786 100.040 304.453 100.000 C 304.096 99.994 302.072 100.248 301.263 100.256 C 300.917 100.840 299.153 102.534 298.378 103.167 C 296.725 104.517 295.045 105.833 293.378 107.167 C 291.931 108.325 288.559 109.988 287.682 111.992 C 287.124 113.267 286.883 114.694 286.191 115.897 C 286.413 118.319 285.565 120.182 284.792 122.502 C 284.792 126.917 282.319 130.398 281.792 134.502 C 281.346 137.977 280.953 140.980 280.953 144.500 C 280.953 146.833 280.953 149.167 280.953 151.500 C 280.953 152.051 280.960 152.601 280.966 153.152 C 281.446 153.315 281.925 153.481 282.406 153.641 C 286.713 155.077 290.931 157.161 295.455 157.161 C 300.368 158.799 305.317 157.416 310.455 158.161 C 311.499 158.313 312.424 158.945 313.455 159.161 C 314.761 159.435 316.119 159.000 317.453 159.000 C 317.992 159.000 322.229 159.353 322.881 158.867 C 323.637 158.303 324.057 157.324 324.881 156.867 C 325.741 156.390 327.117 155.842 328.589 155.310 Z " transform="matrix(1, 0, 0, 1, -48.65, -70.3)"/>
      <path id="ID0.33588864421471953" fill="#e27800" stroke="none" stroke-width="0.5" d="M 186.777 87.454 C 190.920 86.136 195.376 86.378 199.608 86.500 C 202.523 86.584 206.244 86.290 209.082 87.193 C 221.518 91.150 229.949 104.014 232.063 116.594 C 233.359 124.308 232.413 137.244 232.453 142.489 C 232.475 145.335 232.528 149.402 231.784 151.994 C 230.896 155.084 229.565 158.032 228.328 161.000 C 227.750 162.387 226.023 163.725 225.147 164.683 C 217.157 173.420 208.144 178.127 196.359 180.109 C 189.125 181.327 182.593 179.252 175.930 176.492 C 163.169 171.206 151.850 161.580 147.695 148.012 C 146.525 144.192 146.531 140.364 146.453 136.470 C 146.307 129.121 144.263 122.320 146.695 114.988 C 148.650 109.094 151.322 105.986 155.689 101.375 C 158.218 98.705 160.434 95.048 163.478 92.537 C 169.080 87.915 178.412 86.996 185.303 87.685 Z " transform="matrix(1, 0, 0, 1, -48.65, -70.3)"/>
      <path id="ID0.2134748618118465" fill="#e27800" stroke="none" stroke-width="0.5" d="M 401.442 73.500 C 404.081 72.830 407.402 73.863 409.931 74.580 C 422.033 78.011 429.570 88.096 433.211 99.988 C 436.631 111.155 433.831 133.361 428.328 144 C 425.777 148.932 420.361 154.336 415.906 157.098 C 414.053 158.246 412.980 160.531 410.953 161.375 C 407.985 162.612 405.068 164.057 401.947 164.830 C 400.811 165.112 399.623 164.489 398.453 164.500 C 391.742 164.563 383.634 165.308 376.941 163.258 C 369.624 161.017 363.655 156.568 357.931 151.845 C 355.747 150.043 350.910 146.197 349.578 143.000 C 345.216 132.531 344.619 122.806 344.453 111.431 C 344.402 107.904 344.042 103.341 345.146 99.871 C 349.759 85.373 369.164 70.371 384.851 70.344 C 390.015 70.335 394.658 71.940 399.560 73.500 Z " transform="matrix(1, 0, 0, 1, -48.65, -70.3)"/>
      <path id="ID0.11390092130750418" fill="#000000" stroke="none" stroke-width="0.5" d="M 204.203 102.500 C 204.203 99.048 207.001 96.250 210.453 96.250 C 213.905 96.250 216.703 99.048 216.703 102.500 C 216.703 105.952 213.905 108.750 210.453 108.750 C 207.001 108.750 204.203 105.952 204.203 102.500 Z " transform="matrix(1, 0, 0, 1, -48.65, -70.3)"/>
      <path id="ID0.6959520359523594" fill="#000000" stroke="none" stroke-width="0.5" d="M 209.203 126.500 C 209.203 123.048 212.001 120.250 215.453 120.250 C 218.905 120.250 221.703 123.048 221.703 126.500 C 221.703 129.952 218.905 132.750 215.453 132.750 C 212.001 132.750 209.203 129.952 209.203 126.500 Z " transform="matrix(1, 0, 0, 1, -48.65, -70.3)"/>
      <path id="ID0.6121841166168451" fill="#000000" stroke="none" stroke-width="0.5" d="M 187.203 114.500 C 187.203 111.048 190.001 108.250 193.453 108.250 C 196.905 108.250 199.703 111.048 199.703 114.500 C 199.703 117.952 196.905 120.750 193.453 120.750 C 190.001 120.750 187.203 117.952 187.203 114.500 Z " transform="matrix(1, 0, 0, 1, -48.65, -70.3)"/>
      <path id="ID0.4876247178763151" fill="#000000" stroke="none" stroke-width="0.5" d="M 405.203 87.500 C 405.203 84.048 408.001 81.250 411.453 81.250 C 414.905 81.250 417.703 84.048 417.703 87.500 C 417.703 90.952 414.905 93.750 411.453 93.750 C 408.001 93.750 405.203 90.952 405.203 87.500 Z " transform="matrix(1, 0, 0, 1, -48.65, -70.3)"/>
      <path id="ID0.8078756639733911" fill="#000000" stroke="none" stroke-width="0.5" d="M 383.203 94.500 C 383.203 91.048 386.001 88.250 389.453 88.250 C 392.905 88.250 395.703 91.048 395.703 94.500 C 395.703 97.952 392.905 100.750 389.453 100.750 C 386.001 100.750 383.203 97.952 383.203 94.500 Z " transform="matrix(1, 0, 0, 1, -48.65, -70.3)"/>
      <path id="ID0.17656462406739593" fill="#000000" stroke="none" stroke-width="0.5" d="M 406.203 108.500 C 406.203 105.048 409.001 102.250 412.453 102.250 C 415.905 102.250 418.703 105.048 418.703 108.500 C 418.703 111.952 415.905 114.750 412.453 114.750 C 409.001 114.750 406.203 111.952 406.203 108.500 Z " transform="matrix(1, 0, 0, 1, -48.65, -70.3)"/>
    </g>
  </g>
</svg>