<svg xmlns="http://www.w3.org/2000/svg" xmlns:xlink="http://www.w3.org/1999/xlink" version="1.1" width="69.16877238156977" height="20.96918742063227" viewBox="0.6323664575686917 0.7677400499454007 69.16877238156977 20.96918742063227">
  <!-- Exported by Scratch - http://scratch.mit.edu/ -->
  <path id="ID0.5443468582816422" fill="#002067" stroke="#000000" stroke-width="1.590311688210395" d="M 43.1984 10.1682 C 50.0486 10.0929 56.9897 10.8558 61.231 11.8534 C 66.066 12.9886 68.403 14.5368 68.8324 15.9176 C 69.2785 17.3246 69.3351 19.1386 62.951 19.9917 C 55.971 21.1259 44.7409 20.9124 35.2363 20.9136 C 26.0691 20.9152 15.2829 21.166 7.9655 20.1404 C 2.0275 19.1948 0.8679 17.3649 1.6403 15.9176 C 2.4193 14.4706 6.5185 12.81 13.1256 11.8534 C 21.4228 10.6498 32.6574 10.0931 43.1984 10.1682 Z "/>
  <path id="ID0.37750169076025486" fill="#FFFFFF" stroke="#000000" stroke-width="0.8471974517271978" d="M 48.0666 2.746 C 49.4059 2.746 50.6192 3.2841 51.4978 4.1541 C 52.3764 5.0235 52.9204 6.2247 52.9204 7.5499 C 52.9204 8.875 52.3764 10.0763 51.4978 10.9457 C 50.6192 11.8157 49.4059 12.3538 48.0666 12.3538 C 46.7274 12.3538 45.5141 11.8157 44.6354 10.9457 C 43.7568 10.0763 43.2128 8.875 43.2128 7.5499 C 43.2128 6.2247 43.7568 5.0235 44.6354 4.1541 C 45.5141 3.2841 46.7274 2.746 48.0666 2.746 Z "/>
  <path id="ID0.37750169076025486" fill="#FFFFFF" stroke="#000000" stroke-width="1.1104878126595163" d="M 37.6839 1.5629 C 39.6721 1.561 41.474 2.2332 42.7794 3.3214 C 44.0849 4.4089 44.8939 5.9125 44.8956 7.572 C 44.8972 9.2316 44.091 10.7367 42.7877 11.8268 C 41.4843 12.9175 39.6837 13.5932 37.6955 13.5951 C 35.7073 13.5971 33.9054 12.9249 32.5999 11.8367 C 31.2945 10.7491 30.4854 9.2455 30.4838 7.586 C 30.4822 5.9265 31.2883 4.4213 32.5917 3.3312 C 33.895 2.2405 35.6956 1.5648 37.6839 1.5629 Z "/>
  <path id="ID0.234124637208879" fill="#000000" stroke="black" stroke-width="1.178983154000629" stroke-linecap="round" d="M 48.1193 2.9784 C 48.4823 2.9784 48.8109 3.4273 49.0489 4.1533 C 49.2872 4.8792 49.4345 5.8814 49.4345 6.987 C 49.4345 8.0927 49.2872 9.0949 49.0489 9.8208 C 48.8109 10.5467 48.4823 10.9957 48.1193 10.9957 C 47.7562 10.9957 47.4276 10.5467 47.1897 9.8208 C 46.9513 9.0949 46.804 8.0927 46.804 6.987 C 46.804 5.8814 46.9513 4.8792 47.1897 4.1533 C 47.4276 3.4273 47.7562 2.9784 48.1193 2.9784 Z "/>
  <path id="ID0.234124637208879" fill="#000000" stroke="black" stroke-width="1.5453851515738875" stroke-linecap="round" d="M 37.2753 2.4743 C 37.8142 2.4737 38.3026 3.0355 38.6568 3.9443 C 39.0115 4.8531 39.2314 6.1079 39.2328 7.4926 C 39.2341 8.8772 39.0166 10.1325 38.6636 11.042 C 38.3112 11.9514 37.8239 12.5141 37.285 12.5147 C 36.7461 12.5152 36.2577 11.9534 35.9035 11.0446 C 35.5488 10.1359 35.3289 8.881 35.3275 7.4964 C 35.3262 6.1117 35.5437 4.8564 35.8967 3.947 C 36.249 3.0375 36.7364 2.4748 37.2753 2.4743 Z "/>
</svg>