<svg version="1.1" xmlns="http://www.w3.org/2000/svg" xmlns:xlink="http://www.w3.org/1999/xlink" width="817.54065" height="684.96291" viewBox="0,0,817.54065,684.96291"><defs><linearGradient x1="161.59478" y1="168.41936" x2="319.93346" y2="195.65593" gradientUnits="userSpaceOnUse" id="color-1"><stop offset="0" stop-color="#8a5500"/><stop offset="1" stop-color="#ff9d00"/></linearGradient><linearGradient x1="219.74764" y1="237.52299" x2="264.90121" y2="97.68152" gradientUnits="userSpaceOnUse" id="color-2"><stop offset="0" stop-color="#ffffff" stop-opacity="0"/><stop offset="1" stop-color="#ffffff"/></linearGradient><linearGradient x1="553.70762" y1="12.29393" x2="214.97106" y2="243.1265" gradientUnits="userSpaceOnUse" id="color-3"><stop offset="0" stop-color="#ffffff"/><stop offset="1" stop-color="#ffffff" stop-opacity="0"/></linearGradient></defs><g transform="translate(109.0991,214.77125)"><g data-paper-data="{&quot;isPaintingLayer&quot;:true}" fill-rule="nonzero" stroke="none" stroke-linecap="butt" stroke-linejoin="miter" stroke-miterlimit="10" stroke-dasharray="" stroke-dashoffset="0" style="mix-blend-mode: normal"><path d="M-109.0991,439.75976v-469.96997h726.72673v469.96997z" fill="#000000" stroke-width="0"/><g><g><path d="M320.76269,181.04981c0.60663,49.12655 -34.71819,89.39375 -78.90017,89.93932c-44.18199,0.54557 -80.49034,-38.8371 -81.09697,-87.96364c-0.60663,-49.12655 34.71819,-89.39375 78.90017,-89.93932c44.18199,-0.54557 80.49034,38.8371 81.09697,87.96364z" fill="url(#color-1)" stroke-width="0"/><path d="M256.02415,128.12358c-0.07065,-5.72044 4.50942,-10.41504 10.22987,-10.48567c5.72044,-0.07065 10.41504,4.50942 10.48567,10.22987c0.07065,5.72044 -4.50942,10.41504 -10.22987,10.48567c-5.72044,0.07065 -10.41504,-4.50942 -10.48567,-10.22987z" fill="#000000" stroke-width="0.5"/><path d="M261.08722,163.87815c-0.07065,-5.72044 4.50942,-10.41503 10.22987,-10.48567c5.72044,-0.07065 10.41503,4.50942 10.48567,10.22987c0.07065,5.72044 -4.50942,10.41504 -10.22987,10.48567c-5.72044,0.07065 -10.41503,-4.50943 -10.48567,-10.22987z" fill="#000000" stroke-width="0.5"/><path d="M224.4626,145.26647c-0.07065,-5.72044 4.50942,-10.41503 10.22987,-10.48567c5.72044,-0.07065 10.41504,4.50942 10.48567,10.22987c0.07065,5.72044 -4.50942,10.41503 -10.22987,10.48567c-5.72044,0.07065 -10.41504,-4.50942 -10.48567,-10.22987z" fill="#000000" stroke-width="0.5"/></g><path d="M169.30258,144.43266c12.4688,-38.61615 57.10565,-59.18019 95.59863,-46.75114c38.49298,12.42904 65.57318,61.78728 53.10438,100.40344c-1.75225,5.42676 -4.41219,18.98731 -10.18077,29.97942c-2.78692,5.31053 -16.76757,23.99887 -31.84485,34.12487c-6.98042,4.68808 -19.41913,4.40693 -21.69809,5.74887c-17.40539,10.24903 -21.17491,-20.46912 -41.87186,-27.15199c-19.70226,-6.36168 -40.73275,-22.66816 -49.15187,-39.9464c-4.78768,-9.82556 -2.61526,-44.73802 0.37339,-48.66755c2.02017,-2.65616 5.67107,-7.73952 5.67107,-7.73952z" data-paper-data="{&quot;index&quot;:null}" fill="url(#color-2)" stroke-width="0"/></g><path d="M60.23714,16.06133l338.73656,-230.83257l309.46785,454.13034l-338.73656,230.83258z" fill="url(#color-3)" stroke-width="0"/></g></g></svg>