<svg xmlns="http://www.w3.org/2000/svg" xmlns:xlink="http://www.w3.org/1999/xlink" version="1.1" width="40.666099548339844" height="88.5741958618164" viewBox="0.3911999464035034 0.7238001823425293 40.666099548339844 88.5741958618164">
  <!-- Exported by Scratch - http://scratch.mit.edu/ -->
  <g id="ID0.37168458150699735">
    <path id="ID0.0213544606231153" fill="#4D4D4D" stroke="#333333" d="M 16.7531 58.1611 L 17.4573 5.5951 C 14.9562 0.5836 3.3923 0.5836 0.8912 5.5951 L 1.5967 58.1652 L 9.1746 88.798 L 16.7531 58.1611 Z " stroke-width="0.8645548727110297"/>
    <path id="ID0.893112882040441" fill="#808080" d="M 12.9205 58.1652 L 13.4766 5.057 C 10.9009 2.8954 3.3513 3.8082 2.2362 6.3354 L 2.7319 58.1652 L 8.7307 83.6997 L 12.9205 58.1652 Z " stroke-width="0.8645548727110297"/>
    <path id="ID0.6368621685542166" fill="#B3B3B3" d="M 10.1443 58.1641 L 10.4604 5.1081 C 7.5787 4.5311 4.8671 4.7476 3.2531 6.704 L 3.6364 58.1641 L 8.1893 78.8617 L 10.1443 58.1641 Z " stroke-width="0.8645548727110297"/>
    <path id="ID0.0909316218458116" fill="#FFFFFF" d="M 8.6493 58.1652 L 8.8175 6.2466 C 7.1301 5.83 5.543 5.9862 4.5981 7.3984 L 4.7851 58.1652 L 7.4879 73.3039 L 8.6493 58.1652 Z " stroke-width="0.8645548727110297"/>
  </g>
  <g id="ID0.37168458150699735">
    <path id="ID0.0213544606231153" fill="#4D4D4D" stroke="#333333" d="M 39.8531 57.5484 L 40.5573 4.9825 C 38.0562 -0.0291 26.4923 -0.0291 23.9912 4.9825 L 24.6967 57.5525 L 32.2746 88.1853 L 39.8531 57.5484 Z " stroke-width="0.8645548727110297"/>
    <path id="ID0.893112882040441" fill="#808080" d="M 36.0205 57.5525 L 36.5766 4.4444 C 34.0009 2.2827 26.4513 3.1956 25.3362 5.7228 L 25.8319 57.5525 L 31.8307 83.087 L 36.0205 57.5525 Z " stroke-width="0.8645548727110297"/>
    <path id="ID0.6368621685542166" fill="#B3B3B3" d="M 33.2443 57.5515 L 33.5604 4.4954 C 30.6787 3.9185 27.9671 4.135 26.3531 6.0914 L 26.7364 57.5515 L 31.2893 78.2491 L 33.2443 57.5515 Z " stroke-width="0.8645548727110297"/>
    <path id="ID0.0909316218458116" fill="#FFFFFF" d="M 31.7493 57.5525 L 31.9175 5.6339 C 30.2301 5.2173 28.643 5.3735 27.6981 6.7857 L 27.8851 57.5525 L 30.5879 72.6913 L 31.7493 57.5525 Z " stroke-width="0.8645548727110297"/>
  </g>
</svg>