<svg version="1.1" xmlns="http://www.w3.org/2000/svg" xmlns:xlink="http://www.w3.org/1999/xlink" width="600.4" height="374.75"><defs><linearGradient x1="239.31341" y1="172.61971" x2="239.31341" y2="358.11971" gradientUnits="userSpaceOnUse" id="color-1"><stop offset="0" stop-color="#b9e0fa"/><stop offset="1" stop-color="#edf6ff"/></linearGradient><linearGradient x1="242.12541" y1="-8.13029" x2="242.12541" y2="175.74051" gradientUnits="userSpaceOnUse" id="color-2"><stop offset="0" stop-color="#6cbdfa"/><stop offset="1" stop-color="#b9e0fa"/></linearGradient><linearGradient x1="239.81341" y1="207.61971" x2="239.81341" y2="366.61971" gradientUnits="userSpaceOnUse" id="color-3"><stop offset="0" stop-color="#9ee1cd"/><stop offset="1" stop-color="#ffffff"/></linearGradient></defs><g transform="translate(60.95529,8.13029)"><g data-paper-data="{&quot;isPaintingLayer&quot;:true}" fill="none" fill-rule="nonzero" stroke="none" stroke-width="none" stroke-linecap="butt" stroke-linejoin="miter" stroke-miterlimit="10" stroke-dasharray="" stroke-dashoffset="0" font-family="none" font-weight="none" font-size="none" text-anchor="none" style="mix-blend-mode: normal"><path d="M-16.68659,358.11971v-185.5h512v185.5z" data-paper-data="{&quot;origPos&quot;:null}" fill="url(#color-1)" stroke="none" stroke-width="0"/><path d="M-3.03659,-8.13029h490.3243v183.8705h-490.3243z" data-paper-data="{&quot;origPos&quot;:null}" id="ID0.4060725416056812" fill="url(#color-2)" stroke="none" stroke-width="1.51058"/><path d="M-60.95529,214.10471c0,0 41.2256,-33.3543 65.5989,-53.0754c30.0569,-24.3193 55.0116,-23.682 83.4175,-0.6979c24.3751,19.7221 66.4598,53.7733 66.4598,53.7733z" id="ID0.7441570269875228_1_" fill="#9ee1cd" stroke="none" stroke-width="0.93174"/><path d="M217.72381,208.18821c0,0 41.2266,-35.4023 65.5999,-56.3319c30.0569,-25.8109 55.0116,-25.1345 83.4174,-0.7407c24.3752,20.9324 66.459,57.0726 66.459,57.0726z" id="ID0.8491930640302598_1_" fill="#9ee1cd" stroke="none" stroke-width="0.93174"/><path d="M219.65441,210.35361l-0.9234,-1.2122l65.599,-56.3319c15.1705,-13.0266 29.168,-19.3634 42.7909,-19.3708v1.5588c-13.2717,0.0074 -26.9672,6.2314 -41.8667,19.0242z" id="ID0.22414550697430968_1_" fill="#a0e8d2" stroke="none" stroke-width="0.93174"/><path d="M328.30231,132.73991c12.6428,0.7566 25.1653,6.975 38.4416,18.3757c24.3733,20.9324 66.459,57.0726 66.459,57.0726h-41.5741c-11.6691,-15.888 -27.7751,-37.8136 -39.1479,-53.2972c-5.6314,-7.6673 -14.1577,-15.3671 -24.1786,-22.1511z" id="ID0.35308043006807566_1_" fill="#98d9c6" stroke="none" stroke-width="0.93174"/><path d="M-59.94859,215.57311c0,0 41.2265,-33.3543 65.5998,-53.0745c15.028,-12.1591 28.7832,-18.0813 42.3298,-18.0887" id="ID0.0782379605807364_1_" fill="none" stroke="#a0e8d2" stroke-width="0.93174"/><path d="M49.16151,143.02071c12.6427,0.7127 25.1653,6.5696 38.4406,17.3126c24.3733,19.722 66.459,53.7724 66.459,53.7724h-41.5741c-11.6691,-14.9693 -27.7751,-35.6269 -39.1479,-50.216c-5.6314,-7.2238 -14.1568,-14.4792 -24.1776,-20.869z" id="ID0.26913808891549706_1_" fill="#98d9c6" stroke="none" stroke-width="0.93174"/><path d="M13.51041,227.32701c0,0 41.2257,-33.3543 65.599,-53.0745c30.0569,-24.3193 55.0116,-23.682 83.4174,-0.6979c24.3752,19.7221 66.4589,53.7724 66.4589,53.7724z" data-paper-data="{&quot;origPos&quot;:null}" id="ID0.2690865541808307_1_" fill="#9ee1cd" stroke="none" stroke-width="0.93174"/><path d="M14.97891,228.79631c0,0 41.2265,-33.3543 65.5998,-53.0754c15.028,-12.1582 28.7832,-18.0813 42.3297,-18.0887" id="ID0.8754123891703784_1_" fill="none" stroke="#a0e8d2" stroke-width="0.93174"/><path d="M124.08901,156.24291c12.6427,0.7128 25.1652,6.5706 38.4406,17.3126c24.3733,19.7221 66.4589,53.7734 66.4589,53.7734h-41.5741c-11.669,-14.9702 -27.775,-35.6278 -39.1478,-50.2169c-5.6314,-7.2238 -14.1568,-14.4783 -24.1776,-20.8691z" id="ID0.4617554512806237_1_" fill="#98d9c6" stroke="none" stroke-width="0.93174"/><path d="M144.26571,227.00001c0,0 41.2266,-38.7109 65.5999,-61.5972c30.0559,-28.2232 55.0116,-27.4843 83.4174,-0.8096c24.3743,22.8881 66.4589,62.4068 66.4589,62.4068z" id="ID0.1587411449290812_1_" fill="#9ee1cd" stroke="none" stroke-width="0.93174"/><path d="M146.19631,229.36751l-0.9243,-1.3249l65.5998,-61.5981c15.1706,-14.2453 29.1671,-21.1737 42.791,-21.1802v1.706c-13.2726,0.0075 -26.9673,6.8129 -41.8667,20.802z" id="ID0.19198337523266673_1_" fill="#a0e8d2" stroke="none" stroke-width="0.93174"/><path d="M254.84421,144.50121c12.6418,0.8274 25.1644,7.6263 38.4407,20.092c24.3733,22.889 66.4598,62.4068 66.4598,62.4068h-41.575c-11.6681,-17.3723 -27.7751,-41.3477 -39.1478,-58.2783c-5.6315,-8.3847 -14.1559,-16.8029 -24.1777,-24.2205z" id="ID0.1743733761832118_1_" fill="#98d9c6" stroke="none" stroke-width="0.93174"/><path d="M323.50391,219.98121c0,0 41.2266,-33.3543 65.5999,-53.0755c30.0559,-24.3192 55.0116,-23.6819 83.4174,-0.6978c24.3743,19.722 66.4589,53.7724 66.4589,53.7724h-215.4762z" id="ID0.5217337682843208_1_" fill="#9ee1cd" stroke="none" stroke-width="0.93174"/><path d="M324.97331,221.44961c0,0 41.2256,-33.3543 65.5989,-53.0745c15.0289,-12.1592 28.7832,-18.0813 42.3306,-18.0888" id="ID0.9087674850597978_1_" fill="none" stroke="#a0e8d2" stroke-width="0.93174"/><path d="M434.54421,148.89711c12.6427,0.7128 25.1652,6.5697 38.4406,17.3126c24.3733,19.7221 66.4599,53.7724 66.4599,53.7724h-41.5751c-11.6681,-14.9693 -27.775,-35.6268 -39.1478,-50.2159c-5.6314,-7.2238 -14.1559,-14.4783 -24.1776,-20.8691z" id="ID0.5699780872091651_1_" fill="#98d9c6" stroke="none" stroke-width="0.93174"/><path d="M-4.68659,366.61971v-159h489v159z" data-paper-data="{&quot;origPos&quot;:null}" fill="url(#color-3)" stroke="none" stroke-width="0"/></g></g></svg>