<svg version="1.1" width="406" height="75" viewBox="0 -1 406 75" xmlns="http://www.w3.org/2000/svg" xmlns:xlink="http://www.w3.org/1999/xlink">
  <!-- Exported by Scratch - http://scratch.mit.edu/ -->
  <g id="ID0.11603095289319754" transform="matrix(1, 0, 0, 1, -337, -29.5)">
    <path id="ID0.9488252582959831" fill="#FFFFFF" stroke="none" stroke-linecap="round" d="M 351.500 29.750 L 401.500 30 L 414.500 45 L 415.250 103.500 L 351.500 103.500 L 351.500 29.750 Z " transform="matrix(0.843137264251709, 0, 0, 1, 55.05, 0)"/>
    <path id="ID0.46050125965848565" fill="none" stroke="#000000" stroke-width="2" stroke-linecap="round" d="M 353.500 51.250 L 402.250 51.500 "/>
    <path id="ID0.25803554710000753" fill="none" stroke="#000000" stroke-width="2" stroke-linecap="round" d="M 353.500 64.750 L 399.500 65 "/>
    <path id="ID0.5326530411839485" fill="none" stroke="#000000" stroke-width="2" stroke-linecap="round" d="M 355.750 77.750 L 399 78 "/>
    <path id="ID0.2746719615533948" fill="none" stroke="#000000" stroke-width="2" stroke-linecap="round" d="M 356.750 90.750 L 398.250 89.250 "/>
    <path id="ID0.8365989536978304" fill="#E5E5E5" stroke="none" stroke-linecap="round" d="M 378.750 30 L 384.900 30.400 L 393.950 30.850 L 384.500 42.750 L 378.750 30 Z " transform="matrix(0.669637143611908, 0.7426884174346924, -0.7426884174346924, 0.669637143611908, 162.1, -271.5)"/>
  </g>
  <text id="ID0.5172596238553524" fill="#FFFFFF" x="230" y="160.25" text-anchor="start" font-family="Helvetica" font-size="22" transform="matrix(0.2574124038219452, 0, 0, 0.2574124038219452, 0, 78.65)">Gorilla In The Shower.text.exe</text>
</svg>