<svg xmlns="http://www.w3.org/2000/svg" xmlns:xlink="http://www.w3.org/1999/xlink" version="1.1" width="151.91165472518742" height="179.0730011607343" viewBox="0.3559497522744587 1.050000064316695 151.91165472518742 179.0730011607343">
  <!-- Exported by Scratch - http://scratch.mit.edu/ -->
  <path id="ID0.22936768038198352" fill="#FAA51D" stroke="#000000" stroke-width="1.2" d="M 85.785 126.283 C 85.613 126.298 85.441 126.305 85.268 126.306 L 71.804 126.376 C 68.214 126.395 65.288 123.499 65.271 119.91 C 65.251 116.32 68.137 113.396 71.737 113.376 L 81.499 113.324 L 92.741 94.15 C 94.557 91.053 98.539 90.014 101.637 91.83 C 104.733 93.646 105.772 97.628 103.956 100.726 L 90.843 123.094 C 89.77 124.924 87.877 126.105 85.785 126.283 L 85.785 126.283 Z "/>
  <path id="ID0.0032008830457925797" fill="#FAA51D" stroke="#000000" stroke-width="1.2" d="M 78.022 175.446 C 76.941 175.446 75.843 175.211 74.802 174.716 L 66.218 170.628 C 66.077 170.561 65.939 170.489 65.802 170.414 L 60.289 167.353 C 58.192 166.188 56.778 164.091 56.485 161.71 C 56.193 159.33 57.056 156.953 58.808 155.315 L 65.213 149.33 L 56.702 146.847 C 52.725 145.687 50.442 141.523 51.602 137.546 C 52.762 133.569 56.925 131.288 60.903 132.446 L 82.055 138.618 C 84.643 139.373 86.626 141.459 87.25 144.081 C 87.874 146.702 87.044 149.458 85.075 151.298 L 76.784 159.046 L 81.249 161.172 C 84.989 162.953 86.577 167.429 84.796 171.168 C 83.513 173.868 80.825 175.446 78.022 175.446 L 78.022 175.446 Z "/>
  <path id="ID0.7152078151702881_1_" fill="#FAA51D" stroke="#000000" d="M 25.145 122.997 C 22.408 119.399 19.529 114.665 18.911 108.665 C 17.533 95.248 25.145 82.062 17.315 80.151 C 9.479 78.241 -6.555 96.164 5.02 116.63 C 9.006 123.687 14.201 128.402 18.523 132.106 C 19.661 133.071 29.852 140.735 37.292 138.987 C 44.733 137.237 43.545 134.049 43.024 132.407 C 42.502 130.763 29.016 128.078 25.145 122.997 L 25.145 122.997 Z " stroke-width="1"/>
  <path id="ID0.4691764716990292_1_" fill="#FFFFFF" d="M 17.767 81.195 C 14.297 79.577 7.408 84.216 4.469 90.201 C 1.525 96.192 1.863 100.301 1.841 103.692 C 2.644 106.994 3.823 99.53 8.819 99.713 C 13.799 99.897 17.762 105.542 17.762 105.542 C 17.762 105.542 18.716 96.517 19.424 91.181 C 20.131 86.093 21.282 83.131 17.767 81.195 L 17.767 81.195 Z " stroke-width="1"/>
  <path id="ID0.26425604708492756_1_" fill="#FAA51D" stroke="#231F20" stroke-width="1.2" d="M 69.303 145.906 C 71.488 144.228 73.711 141.488 76.57 137.238 C 78.953 133.695 81.535 126.981 81.535 126.981 C 83.143 122.345 85.092 114.888 78.037 113.564 C 75.182 113.029 70.536 113.384 63.933 112.137 C 57.326 110.884 51.432 107.499 46.432 116.243 C 41.434 124.991 28.796 131.452 44.49 146.701 L 69.303 145.906 Z "/>
  <path id="ID0.3589282021857798" fill="#FAA51D" stroke="#000000" stroke-width="1.2" d="M 44.414 179.523 C 42.551 179.523 40.685 178.834 39.232 177.444 L 28.773 167.444 C 27.093 165.839 26.253 163.546 26.497 161.235 C 26.741 158.924 28.043 156.858 30.02 155.639 L 43.029 147.618 L 40.784 144.467 C 38.381 141.094 39.167 136.41 42.541 134.007 C 45.914 131.602 50.599 132.39 53.001 135.764 L 59.897 145.445 C 61.101 147.135 61.551 149.25 61.139 151.284 C 60.728 153.319 59.492 155.092 57.724 156.18 L 46.157 163.313 L 49.597 166.603 C 52.591 169.465 52.698 174.213 49.835 177.207 C 48.363 178.747 46.39 179.523 44.414 179.523 L 44.414 179.523 Z "/>
  <path id="ID0.203311821911484_1_" fill="#FFFFFF" d="M 77.578 133.81 C 77.578 133.81 82.12 128.918 73.038 124.032 C 63.956 119.146 59.773 124.001 56.968 126.829 C 52.106 131.712 62.299 142.987 62.299 142.987 L 69.14 144.879 C 69.14 144.879 72.335 141.851 73.736 139.401 C 75.341 137.168 77.578 133.81 77.578 133.81 " stroke-width="1"/>
  <path id="ID0.9333963696844876" fill="#FAA51D" d="M 54.859 145.699 C 51.552 149.058 45.741 148.7 41.88 144.899 C 38.018 141.099 37.568 135.293 40.876 131.934 C 44.183 128.574 49.995 126.931 53.856 130.732 C 60.428 137.2 60.79 139.671 54.859 145.699 Z " stroke-width="1"/>
  <path id="ID0.4675603983923793_1_" fill="#FAA51D" stroke="#231F20" stroke-width="1.2" d="M 84.088 22.785 C 81.317 22.144 75.939 21.027 72.268 20.755 C 65.273 20.214 59.753 24.113 54.9 20.75 L 43.1 1.65 L 32.762 38.298 C 29.623 50.453 10.366 59.023 20.44 81.581 C 30.521 104.151 56.877 117.172 91.972 115.014 C 127.071 112.851 137.891 94.271 137.037 83.551 C 136.184 72.831 123.804 67.238 123.804 67.238 C 123.804 67.238 124.747 59.052 120.201 48.249 C 117.499 41.818 110.412 37.738 106.974 31.534 L 96.75 6.1 L 89.26 21.065 L 84.088 22.785 L 84.088 22.785 Z "/>
  <path id="ID0.876089540310204_1_" fill="#FFFFFF" d="M 122.132 66.745 L 118.118 62.371 L 100.851 64.969 C 100.851 64.969 100.006 71.2 91.815 71.848 C 83.617 72.503 71.948 64.931 71.948 64.931 L 56.917 69.236 C 56.917 69.236 41.313 68.841 39.491 78.158 C 35.435 98.863 59.864 111.034 69.492 112.903 C 74.745 113.925 84.582 114.32 92.146 113.855 C 125.293 112.346 136.676 94.061 135.828 83.337 C 134.975 72.618 123.066 68.254 123.066 68.254 L 122.132 66.745 L 122.132 66.745 Z " stroke-width="1"/>
  <path id="ID0.44282719027251005_1_" fill="none" stroke="#231F20" stroke-width="1.2000000271169755" d="M 2.2395 61.7331 C 2.2395 61.7331 8.5399 65.9562 11.645 67.4311 C 14.7498 68.9038 21.0262 71.3245 21.0262 71.3245 "/>
  <path id="ID0.893105489667505_1_" fill="none" stroke="#231F20" stroke-width="1.2000000621014733" d="M 132.0196 77.7972 C 132.0196 77.7972 138.5869 72.4385 141.5285 69.0334 C 144.9905 65.0424 146.4333 60.8095 146.4333 60.8095 "/>
  <path id="ID0.6674723788164556_1_" fill="none" stroke="#231F20" stroke-width="1.199999937654719" d="M 133.0639 86.5222 C 133.0639 86.5222 138.4649 86.8236 143.5166 85.6461 C 148.5022 84.4816 151.6676 83.0778 151.6676 83.0778 "/>
  <path id="ID0.12165586883202195_1_" fill="none" stroke="#000000" stroke-linecap="round" d="M 83.42 22.799 C 88.422 24.776 90.14 26.436 90.14 26.436 " stroke-width="1"/>
  <path id="ID0.178104005753994_1_" fill="none" stroke="#000000" d="M 49.925 17.279 L 59.889 26.717 " stroke-width="1"/>
  <path id="ID0.7735752793960273_1_" fill="#FFFFFF" stroke="#231F20" d="M 116.182 47.938 C 120.404 56.822 119.34 66.166 113.804 68.799 C 108.263 71.435 100.354 66.361 96.124 57.471 C 91.886 48.583 92.959 39.248 98.499 36.61 C 104.034 33.977 111.954 39.047 116.182 47.938 L 116.182 47.938 Z " stroke-width="1"/>
  <path id="ID0.19106501014903188_1_" fill="#231F20" d="M 113.046 60.793 C 112.779 62.761 111.102 64.159 109.282 63.913 C 107.472 63.667 106.213 61.87 106.48 59.903 C 106.746 57.934 108.439 56.534 110.249 56.779 C 112.069 57.026 113.313 58.825 113.046 60.793 " stroke-width="1"/>
  <path id="ID0.06283409334719181_1_" fill="#FFFFFF" stroke="#231F20" d="M 71.693 47.945 C 75.919 56.832 74.03 66.563 67.484 69.672 C 60.934 72.791 52.2 68.106 47.976 59.219 C 43.747 50.332 45.629 40.604 52.179 37.489 C 58.731 34.375 67.463 39.055 71.693 47.945 L 71.693 47.945 Z " stroke-width="1"/>
  <path id="ID0.716460831463337_1_" fill="#231F20" d="M 67.981 61.233 C 67.713 63.203 66.034 64.601 64.215 64.355 C 62.406 64.11 61.147 62.309 61.413 60.342 C 61.679 58.375 63.373 56.977 65.181 57.221 C 66.996 57.468 68.247 59.266 67.981 61.233 " stroke-width="1"/>
  <path id="ID0.5430324394255877_1_" fill="#5E4A42" stroke="#000000" d="M 91.078 67.844 C 94.456 68.301 99.448 68.451 99.496 70.041 C 99.546 71.634 95.344 77.277 92.978 77.221 C 90.605 77.163 82.397 71.42 82.656 68.549 C 82.909 65.678 87.96 67.421 91.078 67.844 L 91.078 67.844 Z " stroke-width="1"/>
  <path id="ID0.5547774969600141_1_" fill="none" stroke="#231F20" stroke-width="1.2" d="M 65.45 79.65 C 65.407 79.961 82.194 85.605 90.542 88.566 C 96.435 90.657 110.675 92.536 108.1 95.55 C 103.823 100.016 86.811 108.085 76.435 103.965 C 67.531 100.425 67.618 86.455 65.598 77.954 L 65.45 79.65 Z "/>
  <path id="ID0.6672558831050992" fill="#FAA51D" stroke="#000000" stroke-width="1.2" d="M 50.238 123.219 C 48.814 123.053 47.436 122.417 46.353 121.314 L 36.391 111.159 C 35.327 110.075 34.676 108.653 34.553 107.139 L 32.99 88.107 C 32.696 84.529 35.359 81.39 38.936 81.097 C 42.511 80.798 45.652 83.465 45.946 87.043 L 47.316 103.732 L 55.633 112.211 C 58.147 114.774 58.107 118.889 55.544 121.403 C 54.085 122.835 52.121 123.438 50.238 123.219 L 50.238 123.219 Z "/>
  <path id="ID0.893105489667505_1_" fill="none" stroke="#231F20" stroke-width="1.2000000023241892" d="M 9.1405 44.8909 C 9.1405 44.8909 12.8451 52.5146 15.4823 56.1605 C 18.5701 60.4476 22.3577 62.8252 22.3577 62.8252 "/>
</svg>