<svg version="1.1" xmlns="http://www.w3.org/2000/svg" xmlns:xlink="http://www.w3.org/1999/xlink" width="160.06377" height="108.97612" viewBox="0,0,160.06377,108.97612"><defs><linearGradient x1="256.04285" y1="130.6976" x2="225.67047" y2="224.0371" gradientUnits="userSpaceOnUse" id="color-1"><stop offset="0" stop-color="#152ed4"/><stop offset="1" stop-color="#0e1d7f"/></linearGradient></defs><g transform="translate(-161.13099,-119.39237)"><g data-paper-data="{&quot;isPaintingLayer&quot;:true}" fill-rule="nonzero" stroke-linejoin="miter" stroke-miterlimit="10" stroke-dasharray="" stroke-dashoffset="0" style="mix-blend-mode: normal"><path d="M162.8682,209.42425l17.6726,-88.47309c0,0 20.36154,0.95501 27.7831,2.59387c5.47806,1.2097 12.71339,6.34881 12.71339,6.34881l-16.62788,78.75543c0,0 -6.94287,7.68182 -11.07268,7.57078c-8.93092,-0.24014 -30.46853,-6.79579 -30.46853,-6.79579z" fill="#0e1d7f" stroke="#000000" stroke-width="3" stroke-linecap="butt"/><path d="M228.72251,225.03023c-42.82615,-13.93549 -76.06299,-33.03612 -62.3574,-71.90219c6.72578,-19.07286 31.19671,-29.37642 60.9771,-27.59027c10.13283,0.60774 20.88033,2.61513 31.75267,6.15295c25.72117,8.36959 45.313,25.00579 58.77741,38.70638c4.61846,4.69948 -0.23558,13.43074 -6.80593,15.40416c-2.64401,0.79413 -20.43304,-5.41242 -24.23162,-3.71845c-2.36832,1.05614 -3.97491,7.41648 -1.80445,8.64782c4.58035,2.59854 35.18065,8.30264 26.63366,20.99741c-6.5922,9.79132 -15.63941,9.5665 -32.52443,12.8176c-20.41416,3.9306 -45.7223,2.01223 -50.41701,0.48459z" fill="url(#color-1)" stroke="#000000" stroke-width="3" stroke-linecap="butt"/><path d="M274.37035,153.07105c0,0 13.15173,14.18465 6.58591,33.88525c-6.26725,18.80477 -17.47362,23.97613 -17.47362,23.97613" fill="none" stroke="#00109b" stroke-width="3" stroke-linecap="round"/><path d="M193.66605,197.74256c0,0 5.58548,-17.16512 8.56657,-26.32652c2.82545,-8.68308 0.09497,-31.20054 0.09497,-31.20054c0,0 6.77573,-1.01362 9.69253,-0.47298c4.86366,0.9015 16.76697,5.37738 16.76697,5.37738c0,0 9.01721,7.34687 3.88424,33.0464c-2.16285,10.82888 -15.71787,26.0952 -15.71787,26.0952c0,0 -7.87913,-0.63883 -11.68719,-1.70484c-3.94927,-1.10554 -11.60021,-4.81411 -11.60021,-4.81411z" fill="#9bc6d4" stroke="#000000" stroke-width="3" stroke-linecap="butt"/><path d="M201.29048,195.45942c0,0 6.97871,-19.83445 8.56574,-28.42377c1.40439,-7.60081 0.4757,-20.51014 0.4757,-20.51014l12.42249,0.86616c0,0 -4.50544,18.36172 -5.49416,26.49511c-1.1033,9.076 -0.81965,25.44374 -0.81965,25.44374z" fill="#3d606d" stroke="none" stroke-width="0" stroke-linecap="butt"/><path d="M227.731,153.24579l-1.27645,21.81721" fill="none" stroke="#e0ffff" stroke-width="3" stroke-linecap="round"/><path d="M225.37566,180.00539l-2.51489,4.47514" fill="none" stroke="#e0ffff" stroke-width="3" stroke-linecap="round"/></g></g></svg>