<svg version="1.1" width="57" height="46" viewBox="-1 -1 57 46" xmlns="http://www.w3.org/2000/svg" xmlns:xlink="http://www.w3.org/1999/xlink">
  <defs>
    <linearGradient id="grad_1" y2="1">
      <stop offset="0" stop-color="#995900" stop-opacity="1"/>
      <stop offset="1" stop-color="#995900" stop-opacity="0"/>
    </linearGradient>
  </defs>
  <!-- Exported by Scratch - http://scratch.mit.edu/ -->
  <path id="ID0.9832451394759119" fill="url(#grad_1)" stroke="none" stroke-linecap="round" d="M 207 18 C 228.463 16.991 228.196 114.999 268 129 C 306.439 141.538 361.474 62.384 378 76 C 393.677 88.923 352.478 149.947 333 184 C 327.698 192.623 310.758 190.409 306 200 C 296.308 219.538 306.917 253.598 292 264 C 281.724 271.167 268.963 228.869 257 236 C 237.963 246.369 247.738 290.196 230 299 C 217.452 305.221 211.181 266.407 195 265 C 179.652 263.669 171.134 299.789 159 294 C 143.672 286.682 157.919 248.182 141 240 C 108.006 223.226 33.753 237.658 31 230 C 28.247 222.342 116.800 226.463 124 194 C 134.692 151.026 54.125 87.924 68 74 C 81.875 60.076 148.389 149.243 185 135 C 217.889 121.243 186.934 18.961 207 18 Z " transform="matrix(0.15777923166751862, 0, 0, 0.15777923166751862, -4.65, -2.65)"/>
</svg>