<svg xmlns="http://www.w3.org/2000/svg" xmlns:xlink="http://www.w3.org/1999/xlink" version="1.1" width="168.37683416015227" height="186.24798894530852" viewBox="-0.09982669654647747 0.5559999912663277 168.37683416015227 186.24798894530852">
  <!-- Exported by Scratch - http://scratch.mit.edu/ -->
  <path id="ID0.7115552560426295" fill="#FAA51D" stroke="#000000" stroke-width="1.2000000299994507" d="M 136.7672 114.7473 C 136.7452 116.7382 135.8106 118.6925 134.071 119.9475 L 119.1256 130.7339 C 117.3225 132.0352 114.98 132.3252 112.9144 131.5013 L 95.9234 124.726 C 92.5885 123.3954 90.966 119.6135 92.2925 116.2805 C 93.6231 112.9457 97.4041 111.3201 100.738 112.6497 L 114.413 118.1027 L 126.4631 109.4061 C 129.3745 107.3055 133.4362 107.9624 135.5378 110.8728 C 136.3843 112.0457 136.7826 113.4044 136.7672 114.7473 L 136.7672 114.7473 Z "/>
  <path id="ID0.10610466729849577" fill="#FAA51D" stroke="#000000" stroke-width="1.2000000113128626" d="M 119.0393 175.7852 C 119.0202 175.7938 119.001 175.8023 118.9818 175.8108 L 100.5701 183.8306 C 98.3484 184.8004 95.7951 184.6372 93.7151 183.3915 C 91.6345 182.1472 90.2848 179.9719 90.0921 177.5559 L 88.6489 159.5429 L 73.1382 146.3334 C 69.9848 143.6475 69.6057 138.9136 72.2916 135.7601 C 74.9756 132.6075 79.7123 132.2273 82.8648 134.9135 L 100.7398 150.1386 C 102.2542 151.4288 103.1944 153.2663 103.3531 155.2487 L 104.2053 165.8764 L 113.0056 162.0521 C 116.8045 160.4012 121.2226 162.1432 122.8739 165.943 C 124.5128 169.7221 122.7979 174.115 119.0393 175.7852 L 119.0393 175.7852 Z "/>
  <path id="ID0.7152078151702881_1_" fill="#FAA51D" stroke="#000000" d="M 44.323 140.748 C 40.414 143.016 35.357 145.283 29.327 145.147 C 15.843 144.843 3.708 135.648 0.838 143.178 C -2.035 150.715 13.750 168.857 35.499 159.922 C 42.997 156.847 48.324 152.279 52.536 148.453 C 53.636 147.444 62.511 138.287 61.702 130.687 C 60.892 123.086 57.582 123.868 55.888 124.179 C 54.193 124.494 49.849 137.540 44.323 140.748 L 44.323 140.748 Z " stroke-width="1"/>
  <path id="ID0.4691764716990292_1_" fill="#FFFFFF" d="M 1.930 142.859 C -0.108 146.099 3.636 153.514 9.208 157.176 C 14.785 160.844 18.903 161.020 22.267 161.464 C 25.642 161.078 18.383 158.979 19.188 154.045 C 19.990 149.126 26.085 145.897 26.085 145.897 C 26.085 145.897 17.249 143.827 12.043 142.459 C 7.082 141.124 4.288 139.613 1.930 142.859 L 1.930 142.859 Z " stroke-width="1"/>
  <path id="ID0.26425604708492756_1_" fill="#FAA51D" stroke="#231F20" stroke-width="1.2" d="M 85.836 141.586 C 88.021 139.908 90.244 137.168 93.103 132.918 C 95.486 129.375 98.068 122.661 98.068 122.661 C 99.676 118.025 101.625 110.568 94.570 109.244 C 91.715 108.709 87.069 109.064 80.466 107.817 C 73.859 106.564 67.965 103.179 62.965 111.923 C 57.967 120.671 45.329 127.132 61.023 142.381 L 85.836 141.586 Z "/>
  <path id="ID0.46752600744366646" fill="#FAA51D" stroke="#000000" stroke-width="1.2" d="M 73.948 186.204 L 49.489 186.204 C 46.765 186.204 44.256 184.727 42.932 182.346 C 41.610 179.965 41.682 177.054 43.121 174.742 L 55.832 154.317 L 55.925 135.759 C 55.946 131.629 59.300 128.296 63.424 128.296 C 63.437 128.296 63.449 128.296 63.462 128.296 C 67.605 128.317 70.945 131.692 70.925 135.833 L 70.821 156.514 C 70.814 157.903 70.422 159.261 69.688 160.440 L 62.989 171.205 L 73.947 171.205 C 78.090 171.205 81.447 174.562 81.447 178.705 C 81.447 182.848 78.091 186.204 73.948 186.204 L 73.948 186.204 Z "/>
  <path id="ID0.203311821911484_1_" fill="#FFFFFF" d="M 94.111 129.490 C 94.111 129.490 98.653 124.598 89.571 119.712 C 80.489 114.826 76.306 119.681 73.501 122.509 C 68.639 127.392 78.832 138.667 78.832 138.667 L 85.673 140.559 C 85.673 140.559 88.868 137.531 90.269 135.081 C 91.874 132.848 94.111 129.490 94.111 129.490 " stroke-width="1"/>
  <path id="ID0.17305035842582583" fill="#FAA51D" d="M 71.392 141.379 C 68.085 144.738 62.274 144.380 58.413 140.579 C 54.551 136.779 54.101 130.973 57.409 127.614 C 60.716 124.254 66.528 122.611 70.389 126.412 C 76.961 132.880 77.323 135.351 71.392 141.379 Z " stroke-width="1"/>
  <path id="ID0.4675603983923793_1_" fill="#FAA51D" stroke="#231F20" stroke-width="1.2" d="M 93.479 16.803 C 90.647 16.540 84.744 16.222 81.493 16.378 C 72.799 16.792 64.531 19.923 64.531 19.923 L 40.591 4.300 L 44.700 39.068 C 45.888 37.629 25.290 62.613 38.303 83.614 C 51.324 104.626 79.189 113.989 113.677 107.137 C 148.167 100.280 156.394 80.415 154.109 69.907 C 151.825 59.399 138.805 55.520 138.805 55.520 C 138.805 55.520 138.640 47.282 132.685 37.186 C 129.143 31.176 117.333 22.399 117.333 22.399 L 112.075 1.156 L 98.372 14.404 L 93.479 16.803 L 93.479 16.803 Z "/>
  <path id="ID0.876089540310204_1_" fill="#FFFFFF" d="M 137.081 55.255 L 132.517 51.460 L 115.755 56.353 C 115.755 56.353 115.755 62.641 107.725 64.383 C 99.689 66.133 87.109 60.196 87.109 60.196 L 72.793 66.480 C 72.793 66.480 57.277 68.185 56.723 77.662 C 55.485 98.724 81.327 107.504 91.119 108.063 C 96.462 108.371 106.263 107.441 113.696 105.964 C 146.341 100.017 155.165 80.368 152.884 69.857 C 150.600 59.349 138.212 56.625 138.212 56.625 L 137.081 55.255 L 137.081 55.255 Z " stroke-width="1"/>
  <path id="ID0.44282719027251005_1_" fill="none" stroke="#231F20" stroke-width="1.2" d="M 16.177 75.647 C 16.177 75.647 23.730 76.335 27.163 76.140 C 30.593 75.944 37.263 75.061 37.263 75.061 "/>
  <path id="ID0.893105489667505_1_" fill="none" stroke="#231F20" stroke-width="1.2" d="M 146.710 65.563 C 146.710 65.563 155.075 64.196 159.323 62.713 C 164.315 60.982 167.677 58.033 167.677 58.033 "/>
  <path id="ID0.03574043000116944_1_" fill="none" stroke="#231F20" stroke-width="1.2" d="M 37.626 67.839 C 37.626 67.839 33.242 64.570 26.378 61.531 C 18.775 58.165 14.600 57.296 14.600 57.296 "/>
  <path id="ID0.6674723788164556_1_" fill="none" stroke="#231F20" stroke-width="1.2" d="M 147.558 76.506 C 147.558 76.506 152.572 78.535 157.733 79.053 C 162.828 79.561 166.277 79.255 166.277 79.255 "/>
  <path id="ID0.12165586883202195_1_" fill="none" stroke="#000000" stroke-linecap="round" d="M 92.818 16.906 C 98.040 18.193 99.965 19.607 99.965 19.607 " stroke-width="1"/>
  <path id="ID0.178104005753994_1_" fill="none" stroke="#000000" d="M 58.886 15.935 L 70.027 23.949 " stroke-width="1"/>
  <path id="ID0.5430324394255877_1_" fill="#5E4A42" stroke="#000000" d="M 106.456 60.514 C 109.865 60.514 114.832 59.993 115.093 61.561 C 115.357 63.133 111.950 69.290 109.599 69.551 C 107.240 69.813 98.335 65.224 98.206 62.344 C 98.070 59.465 103.310 60.514 106.456 60.514 L 106.456 60.514 Z " stroke-width="1"/>
  <path id="ID0.5547774969600141_1_" fill="none" stroke="#231F20" stroke-width="1.2000000107906967" d="M 132.484 93.3674 C 132.484 93.3674 112.6609 94.1478 105.4226 94.9613 C 98.1885 95.7745 85.5277 98.4243 85.5277 98.4243 C 85.5277 98.4243 93.4052 75.8683 111.2042 74.8935 C 129.0012 73.9131 132.1781 84.2693 132.484 93.3674 L 132.484 93.3674 Z "/>
  <path id="ID0.0627080244012177" fill="none" stroke="#000000" d="M 87.917 57.263 C 83.822 54.870 67.655 57.254 62.719 63.798 " stroke-width="1"/>
  <path id="ID0.6798256845213473" fill="none" stroke="#000000" d="M 132.161 48.909 C 129.193 45.906 115.263 45.675 109.919 51.317 " stroke-width="1"/>
  <path id="ID0.7115552560426295" fill="#FAA51D" stroke="#000000" stroke-width="1.2000000537069686" d="M 69.0506 114.4614 C 68.2259 116.2736 66.5812 117.6835 64.4828 118.1284 L 46.4531 121.9547 C 44.2779 122.4163 42.018 121.7348 40.4615 120.1464 L 27.6581 107.0823 C 25.1454 104.5175 25.1897 100.4024 27.7501 97.8899 C 30.3149 95.3772 34.4303 95.4184 36.9425 97.9819 L 47.2472 108.4964 L 61.784 105.4115 C 65.296 104.6668 68.7458 106.9091 69.4918 110.4206 C 69.7922 111.8355 69.6075 113.2393 69.0506 114.4614 L 69.0506 114.4614 Z "/>
</svg>