<svg xmlns="http://www.w3.org/2000/svg" xmlns:xlink="http://www.w3.org/1999/xlink" version="1.1" width="18.79199981689453" height="30.75" viewBox="0 0.25 18.79199981689453 30.75">
  <defs>
    <linearGradient id="grad_1" x1="6.6001" y1="29.3447" x2="11.1837" y2="0.4052" gradientUnits="userSpaceOnUse">
      <stop offset="0" stop-color="#D68D00"/>
      <stop offset="0.5211" stop-color="#FFE600"/>
      <stop offset="0.7606" stop-color="#FFFFFF"/>
      <stop offset="1" stop-color="#FFE600"/>
    </linearGradient>
    <linearGradient id="grad_2" x1="6.3921" y1="9.6748" x2="16.7936" y2="20.0763" gradientUnits="userSpaceOnUse">
      <stop offset="0" stop-color="#A84D00"/>
      <stop offset="1" stop-color="#D1A600"/>
    </linearGradient>
  <linearGradient id="grad_1-,0,0,1,0.5,0.75" x1="7.1001" y1="30.0947" x2="11.6837" y2="1.1552" gradientUnits="userSpaceOnUse">
      <stop offset="0" stop-color="#D68D00"/>
      <stop offset="0.5211" stop-color="#FFE600"/>
      <stop offset="0.7606" stop-color="#FFFFFF"/>
      <stop offset="1" stop-color="#FFE600"/>
    </linearGradient><linearGradient id="grad_2-,0,0,1,0.5,0.75" x1="6.8921" y1="10.4248" x2="17.2936" y2="20.8263" gradientUnits="userSpaceOnUse">
      <stop offset="0" stop-color="#A84D00"/>
      <stop offset="1" stop-color="#D1A600"/>
    </linearGradient></defs>
  <!-- Exported by Scratch - http://scratch.mit.edu/ -->
  <g id="ID0.3723571766167879">
    <g id="ID0.49742065696045756">
      <path id="ID0.5974066238850355" fill="url(#grad_1-,0,0,1,0.5,0.75)" d="M 12.092 30 C 12.037 30 6.63 30 6.571 29.996 C 3.397 29.84 1 23.661 1 15.625 C 1 7.622 3.386 1.444 6.55 1.254 C 6.617 1.25 12.038 1.25 12.092 1.25 C 15.288 1.25 17.791 7.564 17.791 15.625 C 17.791 23.686 15.289 30 12.092 30 L 12.092 30 Z " stroke-width="1"/>
      <path id="ID0.624477387405932" fill="#B58015" d="M 12.092 1.75 C 14.963 1.75 17.291 7.962 17.291 15.625 C 17.291 23.288 14.963 29.5 12.092 29.5 C 12.059 29.5 6.634 29.499 6.601 29.497 C 3.774 29.357 1.5 23.2 1.5 15.625 C 1.5 8.067 3.764 1.922 6.58 1.753 C 6.62 1.751 12.053 1.75 12.092 1.75 M 12.092 0.75 C 12.037 0.75 6.614 0.75 6.531 0.754 C 2.568 0.992 0.5 8.415 0.5 15.625 C 0.5 22.689 2.621 30.302 6.552 30.496 C 6.607 30.499 9.596 30.5 12.093 30.5 C 16.119 30.5 18.292 22.836 18.292 15.625 C 18.292 8.414 16.119 0.75 12.092 0.75 L 12.092 0.75 Z " stroke-width="1"/>
    </g>
    <path id="ID0.8135916329920292" fill="url(#grad_2-,0,0,1,0.5,0.75)" d="M 12.092 5.888 C 13.099 5.888 14.012 6.979 14.672 8.742 C 15.333 10.504 15.742 12.939 15.742 15.625 C 15.742 18.311 15.333 20.746 14.672 22.508 C 14.012 24.271 13.099 25.362 12.092 25.362 C 11.085 25.362 10.172 24.271 9.512 22.508 C 8.851 20.746 8.442 18.311 8.442 15.625 C 8.442 12.939 8.851 10.504 9.512 8.742 C 10.172 6.979 11.085 5.888 12.092 5.888 Z " stroke-width="1"/>
    <path id="ID0.5330035206861794" fill="#B26600" d="M 10.593 6.859 C 11.499 6.859 12.321 7.841 12.915 9.428 C 13.51 11.015 13.878 13.207 13.878 15.625 C 13.878 18.043 13.51 20.235 12.915 21.822 C 12.321 23.409 11.499 24.391 10.593 24.391 C 9.687 24.391 8.865 23.409 8.271 21.822 C 7.676 20.235 7.308 18.043 7.308 15.625 C 7.308 13.207 7.676 11.015 8.271 9.428 C 8.865 7.841 9.687 6.859 10.593 6.859 Z " stroke-width="1"/>
    <path id="ID0.659500430803746" fill="#B27800" stroke="#9E5300" stroke-width="0.2" d="M 12.092 1.75 C 9.22 1.75 6.892 7.962 6.892 15.625 C 6.892 23.288 9.22 29.5 12.092 29.5 C 14.963 29.5 17.291 23.288 17.291 15.625 C 17.291 7.962 14.963 1.75 12.092 1.75 Z M 12.092 25.362 C 10.076 25.362 8.442 21.003 8.442 15.625 C 8.442 10.246 10.076 5.888 12.092 5.888 C 14.108 5.888 15.741 10.246 15.741 15.625 C 15.742 21.003 14.108 25.362 12.092 25.362 Z "/>
  </g>
</svg>