<svg xmlns="http://www.w3.org/2000/svg" xmlns:xlink="http://www.w3.org/1999/xlink" version="1.1" width="72.86744906394553" height="49.73704745261741" viewBox="0.08572511926853621 0.3357251192685362 72.86744906394553 49.73704745261741">
  <!-- Exported by Scratch - http://scratch.mit.edu/ -->
  <path id="ID0.6534826750867069" fill="none" d="M 0.65 0.9 L 72.3889 0.9 L 72.3889 49.5085 L 0.65 49.5085 L 0.65 0.9 Z " stroke-width="0.6050236953753166"/>
  <path id="ID0.15375018352642655" fill="#C89A66" stroke="#624523" stroke-width="1.1285498142242432" d="M 37.312 24.6531 C 37.9748 33.197 34.2355 36.7873 25.1778 36.7873 C 17.6917 36.7873 12.3266 33.5988 13.0429 24.6531 C 13.5786 17.9729 17.6993 12.1684 25.1778 12.519 C 32.6646 12.8688 36.68 16.4922 37.312 24.6531 Z "/>
  <path id="ID0.9231221177615225" fill="#AA7C48" d="M 32.6646 24.1475 C 32.6646 28.2818 29.8229 31.5764 25.6894 31.5764 C 21.5544 31.5764 17.6925 28.2818 17.6925 24.1475 C 17.6925 20.0125 21.0435 16.6607 25.1785 16.6607 C 30.1065 16.6607 32.6646 20.0133 32.6646 24.1475 Z " stroke-width="0.7523665428161621"/>
  <path id="ID0.06518897321075201" fill="#624523" d="M 26.3101 23.4975 C 25.6879 23.0438 25.1191 22.2832 24.8964 21.8588 C 23.7445 20.3263 23.1178 19.5453 19.6517 16.824 C 20.632 19.0149 24.2155 20.9259 24.3336 23.0581 C 25.2756 25.5913 19.7382 28.0583 18.1996 28.9747 C 18.1996 28.9747 23.0177 28.0207 25.1823 24.371 C 25.7157 23.4719 31.594 26.5506 31.594 26.5506 C 30.2375 25.2234 29.0916 24.8811 27.8284 24.2822 " stroke-width="0.7523665428161621"/>
  <path id="ID0.7497768863104284" fill="#624523" d="M 26.8097 30.6126 L 26.5569 30.3207 C 26.584 29.0974 25.9873 27.9936 25.7428 27.0351 L 26.1423 26.9336 C 26.3989 27.9395 27.0249 28.9928 26.9948 30.3207 L 26.8097 30.6126 Z " stroke-width="0.7523665428161621"/>
  <path id="ID0.3099703397601843" fill="#624523" d="M 28.5191 18.0639 C 29.7108 16.1168 30.2909 14.5932 30.1547 13.7739 L 30.9018 13.649 C 31.0741 14.6775 28.5191 18.0639 28.5191 18.0639 Z " stroke-width="0.7523665428161621"/>
  <path id="ID0.9944758857600391" fill="#624523" d="M 16.9981 24.0241 L 17.1508 23.5231 C 18.0755 22.8121 20.2746 22.9242 20.5229 22.94 L 20.805 23.2974 C 19.7683 23.2342 18.086 23.7616 17.6135 24.125 L 16.9981 24.0241 Z " stroke-width="0.7523665428161621"/>
  <g id="ID0.7427087859250605">
    <path id="ID0.6909199906513095" fill="#C89A66" stroke="#624523" stroke-width="1.1285498329885013" d="M 61.6861 25.3319 C 61.8747 33.9001 57.9416 37.277 48.8978 36.7753 C 41.4232 36.3607 36.2429 32.8799 37.4543 23.9877 C 38.3584 17.3474 42.795 11.78 50.2419 12.5443 C 57.6978 13.309 61.5056 17.1492 61.6861 25.3319 Z "/>
    <path id="ID0.82295709149912" fill="#AA7C48" d="M 56.5676 24.5416 C 56.3386 28.6695 53.3196 31.8017 49.1916 31.5727 C 45.0637 31.3438 41.3895 27.8403 41.6185 23.7124 C 41.8475 19.5845 45.3797 16.4234 49.5076 16.6524 C 54.4288 16.9254 56.7966 20.4137 56.5676 24.5416 Z " stroke-width="0.7523665553256675"/>
    <path id="ID0.27400038950145245" fill="#624523" d="M 49.0725 24.7422 C 49.6095 24.1895 50.4425 23.7339 50.8938 23.5736 C 52.5734 22.6487 53.4358 22.139 56.619 19.0912 C 54.3112 19.7521 51.914 23.0311 49.7865 22.8468 C 47.1451 23.4221 45.4845 17.5919 44.794 15.9396 C 44.794 15.9396 45.0592 20.8439 48.3666 23.502 C 49.1826 24.1568 46.1835 29.5914 46.1835 29.5914 C 47.6876 28.4353 47.6892 27.3737 48.4592 26.2077 " stroke-width="0.7523665553256675"/>
    <path id="ID0.6486528874374926" fill="#624523" d="M 53.1374 32.9264 L 53.4261 33.1821 C 53.5598 34.3989 54.2954 35.414 54.6635 36.3319 L 54.2812 36.4855 C 53.8946 35.5221 53.1357 34.5592 52.9919 33.2394 L 53.1374 32.9264 Z " stroke-width="0.7523665553256675"/>
    <path id="ID0.863175633829087" fill="#624523" d="M 42.0885 27.2468 C 40.0775 28.249 38.5249 28.7039 37.7142 28.5263 L 37.5476 29.2209 C 38.5637 29.4445 42.0885 27.2468 42.0885 27.2468 Z " stroke-width="0.7523665553256675"/>
    <path id="ID0.2732348460704088" fill="#624523" d="M 54.8523 25.1578 L 55.3013 24.8873 C 56.4651 24.9767 58.0254 26.5296 58.1994 26.7073 L 58.1704 27.1616 C 57.4414 26.4219 55.837 25.6894 55.2428 25.6436 L 54.8523 25.1578 Z " stroke-width="0.7523665553256675"/>
  </g>
</svg>