<svg version="1.1" xmlns="http://www.w3.org/2000/svg" xmlns:xlink="http://www.w3.org/1999/xlink" width="56.28638" height="46.32281" viewBox="0,0,56.28638,46.32281"><defs><linearGradient x1="375.73902" y1="628.52011" x2="376.25096" y2="673.685" gradientUnits="userSpaceOnUse" id="color-1"><stop offset="0" stop-color="#ee2a7b"/><stop offset="1" stop-color="#811150"/></linearGradient></defs><g transform="translate(-211.85697,-156.8386)"><g data-paper-data="{&quot;isPaintingLayer&quot;:true}" fill="url(#color-1)" fill-rule="nonzero" stroke="#ffffff" stroke-width="1.15823" stroke-linecap="butt" stroke-linejoin="miter" stroke-miterlimit="10" stroke-dasharray="" stroke-dashoffset="0" style="mix-blend-mode: normal"><path d="M250.76519,184.93949c0,0 -22.92392,0.26955 -33.33526,0.38755c-2.72722,0.03092 -4.96296,-2.15519 -4.99385,-4.88192c-0.03092,-2.72722 2.1547,-4.96254 4.88191,-4.99344c8.72874,-0.09893 33.30845,-0.38776 33.30845,-0.38776c0,0 -1.66913,-1.65128 -9.36823,-9.1773c-1.95033,-1.90671 -1.98577,-5.03282 -0.07915,-6.98275c1.90762,-1.94996 5.03331,-1.98587 6.98325,-0.07916c6.24286,6.10203 17.91597,17.51475 17.91597,17.51475c1.94994,1.90672 1.98537,5.03322 0.07915,6.98275c0,0 -9.84774,10.07396 -17.37416,17.77307c-1.90759,1.95134 -5.0337,1.98679 -6.98325,0.07916c-1.95043,-1.90632 -1.98586,-5.03331 -0.07913,-6.98185c6.10301,-6.24477 9.04431,-9.2531 9.04431,-9.2531z" data-paper-data="{&quot;index&quot;:null}"/></g></g></svg>