<svg xmlns="http://www.w3.org/2000/svg" xmlns:xlink="http://www.w3.org/1999/xlink" version="1.1" width="40.27000045776367" height="24.959999084472656" viewBox="-0.5 -0.5 40.27000045776367 24.959999084472656">
  <defs>
    <linearGradient id="grad_1" x1="57.1768" y1="-20.9961" x2="57.1768" y2="-39.6104" gradientUnits="userSpaceOnUse">
      <stop offset="0" stop-color="#E6E6E6"/>
      <stop offset="0.0399" stop-color="#EBEBEB"/>
      <stop offset="0.192" stop-color="#F6F6F6"/>
      <stop offset="0.4058" stop-color="#FDFDFD"/>
      <stop offset="1" stop-color="#FFFFFF"/>
    </linearGradient>
    <linearGradient id="grad_2" x1="38.1338" y1="-20.7393" x2="38.1338" y2="-39.146" gradientUnits="userSpaceOnUse">
      <stop offset="0" stop-color="#E6E6E6"/>
      <stop offset="0.0399" stop-color="#EBEBEB"/>
      <stop offset="0.192" stop-color="#F6F6F6"/>
      <stop offset="0.4058" stop-color="#FDFDFD"/>
      <stop offset="1" stop-color="#FFFFFF"/>
    </linearGradient>
    <linearGradient id="grad_3" x1="47.6709" y1="-23.1387" x2="47.6709" y2="-43.0894" gradientUnits="userSpaceOnUse">
      <stop offset="0" stop-color="#D9D9D9"/>
      <stop offset="5.900040e-003" stop-color="#DADADA"/>
      <stop offset="0.1185" stop-color="#EBEBEB"/>
      <stop offset="0.258" stop-color="#F6F6F6"/>
      <stop offset="0.4545" stop-color="#FDFDFD"/>
      <stop offset="1" stop-color="#FFFFFF"/>
    </linearGradient>
  </defs>
  <!-- Exported by Scratch - http://scratch.mit.edu/ -->
  <g id="ID0.5878120926208794">
    <path id="ID0.9676298191770911_1_" fill="#FFFFFF" d="M 25.490 0 C 27.580 0 29.480 0.770 30.850 2.020 C 32.220 3.270 33.070 4.990 33.070 6.890 C 33.070 8.790 32.220 10.520 30.850 11.760 C 29.480 13.010 27.580 13.780 25.490 13.780 C 23.400 13.780 21.500 13.010 20.130 11.760 C 18.760 10.510 17.910 8.790 17.910 6.890 C 17.910 4.990 18.760 3.260 20.130 2.020 C 21.500 0.780 23.400 0 25.490 0 Z " stroke-width="1"/>
    <path id="ID0.8828279236331582_1_" fill="#FFFFFF" d="M 15.310 0.010 C 17.850 0.010 20.140 0.940 21.800 2.440 C 23.460 3.940 24.490 6.020 24.490 8.300 C 24.490 10.590 23.460 12.660 21.800 14.160 C 20.140 15.660 17.840 16.590 15.310 16.590 C 12.780 16.590 10.480 15.660 8.820 14.160 C 7.160 12.660 6.130 10.590 6.130 8.300 C 6.130 6.010 7.160 3.940 8.820 2.440 C 10.480 0.940 12.770 0.010 15.310 0.010 Z " stroke-width="1"/>
    <path id="ID0.6374159646220505_1_" fill="url(#grad_1)" d="M 28.180 3.790 C 31.240 3.790 34.010 4.740 36.020 6.280 C 38.030 7.820 39.270 9.940 39.270 12.280 C 39.270 14.620 38.030 16.750 36.020 18.280 C 34.010 19.810 31.240 20.770 28.180 20.770 C 25.120 20.770 22.350 19.820 20.340 18.280 C 18.330 16.740 17.090 14.620 17.090 12.280 C 17.090 9.940 18.330 7.810 20.340 6.280 C 22.350 4.740 25.120 3.790 28.180 3.790 Z " stroke-width="1"/>
    <path id="ID0.6483261599205434_1_" fill="url(#grad_2)" d="M 10.800 3.550 C 13.780 3.550 16.480 4.490 18.440 6.010 C 20.400 7.530 21.610 9.630 21.610 11.950 C 21.610 14.270 20.400 16.370 18.440 17.890 C 16.480 19.410 13.780 20.350 10.800 20.350 C 7.820 20.350 5.120 19.410 3.160 17.890 C 1.210 16.370 0 14.270 0 11.950 C 0 9.630 1.210 7.530 3.170 6.010 C 5.120 4.490 7.820 3.550 10.800 3.550 Z " stroke-width="1"/>
    <path id="ID0.6189421555027366_1_" fill="url(#grad_3)" d="M 19.510 5.740 C 22.700 5.740 25.590 6.760 27.680 8.410 C 29.770 10.060 31.070 12.330 31.070 14.850 C 31.070 17.370 29.780 19.640 27.680 21.290 C 25.580 22.940 22.700 23.960 19.510 23.960 C 16.320 23.960 13.430 22.940 11.340 21.290 C 9.250 19.640 7.950 17.370 7.950 14.850 C 7.950 12.330 9.250 10.060 11.340 8.410 C 13.430 6.760 16.320 5.740 19.510 5.740 Z " stroke-width="1"/>
  </g>
</svg>