<svg version="1.1" width="484" height="365" viewBox="-1 -1 484 365" xmlns="http://www.w3.org/2000/svg" xmlns:xlink="http://www.w3.org/1999/xlink">
  <!-- Exported by Scratch - http://scratch.mit.edu/ -->
  <path id="ID0.7176098907366395" fill="none" stroke="#FF00BF" stroke-width="2" stroke-linecap="round" d="M 370 128 C 370 128 373.263 125.868 375 125 C 375.942 124.529 377.022 124.391 378 124 C 378.691 123.723 379.362 123.383 380 123 C 381.030 122.382 381.896 121.473 383 121 C 384.262 120.459 385.697 120.434 387 120 C 388.701 119.433 390.299 118.567 392 118 C 393.303 117.566 394.668 117.333 396 117 C 397.332 116.667 398.745 116.558 400 116 C 401.774 115.211 403.197 113.721 405 113 C 406.577 112.369 408.353 112.412 410 112 C 412.352 111.412 414.700 110.767 417 110 C 419.699 109.100 422.344 108.021 425 107 C 426.674 106.356 428.315 105.613 430 105 C 431.979 104.280 433.987 103.619 436 103 C 438.317 102.287 440.648 101.588 443 101 C 444.647 100.588 446.335 100.333 448 100 C 449.665 99.667 451.342 99.368 453 99 C 454.340 98.702 455.660 98.298 457 98 C 458.658 97.632 460.342 97.368 462 97 C 463.340 96.702 464.646 96.226 466 96 C 466.657 95.891 467.334 96 468 96 C 468.666 96 469.343 96.109 470 96 C 471.354 95.774 472.697 95.434 474 95 C 475.701 94.433 477.508 93.995 479 93 C 479.620 92.587 479.823 91 480 91 C 480.177 91 480 92.334 480 93 C 480 93.666 480 94.334 480 95 C 480 95.666 480 96.334 480 97 C 480 97.666 480 98.334 480 99 C 480 99.999 480 101.001 480 102 C 480 103.665 480 105.335 480 107 C 480 108.665 480 110.335 480 112 C 480 112.999 480 114.001 480 115 C 480 116.332 480 117.668 480 119 C 480 120.332 480 121.668 480 123 C 480 124.332 480 125.668 480 127 C 480 128.332 480 129.668 480 131 C 480 131.999 480 133.001 480 134 C 480 135.332 480 136.668 480 138 C 480 139.332 480 140.668 480 142 C 480 144.331 480 146.669 480 149 C 480 151.331 480 153.669 480 156 C 480 158.664 480 161.336 480 164 C 480 165.998 480 168.002 480 170 C 480 171.665 480 173.335 480 175 C 480 176.665 480 178.335 480 180 C 480 181.332 480 182.668 480 184 C 480 185.332 480 186.668 480 188 C 480 188.999 480 190.001 480 191 C 480 191.666 480 192.334 480 193 C 480 193.666 480 194.334 480 195 C 480 195.999 480 197.001 480 198 C 480 198.666 480 199.334 480 200 C 480 200.666 480 201.334 480 202 C 480 202.666 480 203.334 480 204 C 480 204.666 480 205.334 480 206 C 480 207.665 480 209.335 480 211 C 480 212.665 480 214.335 480 216 C 480 218.331 480.232 220.681 480 223 C 479.895 224.048 479.584 225.124 479 226 C 478.216 227.176 476.999 228.001 476 229 C 475.334 229.666 474.753 230.435 474 231 C 473.404 231.447 472.730 231.854 472 232 C 471.020 232.196 469.999 232 469 232 C 467.668 232 466.322 232.165 465 232 C 463.638 231.830 462.346 231.269 461 231 C 459.014 230.603 456.954 230.533 455 230 C 453.270 229.528 451.557 228.890 450 228 C 449.182 227.533 448.842 226.421 448 226 C 446.772 225.386 445.303 225.434 444 225 C 443.294 224.765 442.638 224.383 442 224 C 440.970 223.382 439.922 222.769 439 222 C 437.915 221.096 436.999 219.999 436 219 C 435.334 218.334 434.666 217.666 434 217 C 433.334 216.334 432.936 214.896 432 215 C 429.479 215.280 427.438 217.303 425 218 C 422.736 218.647 420.345 218.787 418 219 C 416.673 219.121 415.322 218.835 414 219 C 412.638 219.170 411.362 219.830 410 220 C 408.678 220.165 407.332 220 406 220 C 405.001 220 403.985 219.836 403 220 C 401.961 220.173 401.053 221 400 221 C 399.255 221 398.666 220.333 398 220 C 397.334 219.667 396.596 219.447 396 219 C 395.247 218.435 394.565 217.753 394 217 C 393.553 216.404 393.447 215.596 393 215 C 392.435 214.247 391.565 213.753 391 213 C 390.553 212.404 390.333 211.666 390 211 C 389.667 210.334 389.447 209.596 389 209 C 388.435 208.247 387.421 207.842 387 207 C 386.702 206.404 387.131 205.653 387 205 C 386.793 203.967 386.333 202.999 386 202 C 385.667 201.001 385.391 199.978 385 199 C 384.723 198.309 384.181 197.722 384 197 C 383.838 196.354 384.131 195.653 384 195 C 383.793 193.967 383.173 193.039 383 192 C 382.836 191.015 383 189.999 383 189 C 383 188.001 383 186.999 383 186 C 383 185.334 383 184.666 383 184 C 383 183.334 382.838 182.646 383 182 C 383.181 181.278 383.667 180.666 384 180 C 384.333 179.334 384.723 178.691 385 178 C 385.391 177.022 385.609 175.978 386 175 C 386.277 174.309 386.723 173.691 387 173 C 387.391 172.022 387.793 171.033 388 170 C 388.131 169.347 387.891 168.657 388 168 C 388.226 166.646 388.566 165.303 389 164 C 389.235 163.294 389.819 162.722 390 162 C 390.162 161.354 389.838 160.646 390 160 C 390.181 159.278 390.819 158.722 391 158 C 391.162 157.354 390.838 156.646 391 156 C 391.181 155.278 391.854 154.730 392 154 C 392.196 153.020 391.836 151.985 392 151 C 392.173 149.961 392.827 149.039 393 148 C 393.164 147.015 392.804 145.980 393 145 C 393.146 144.270 393.819 143.722 394 143 C 394.162 142.354 394 141.666 394 141 C 394 140.001 393.804 138.980 394 138 C 394.146 137.270 394.667 136.666 395 136 C 395.333 135.334 395.667 134.666 396 134 C 396.333 133.334 396.667 132.666 397 132 C 397.333 131.334 397.419 130.465 398 130 C 399.163 129.070 400.788 128.866 402 128 C 403.150 127.179 403.927 125.919 405 125 C 406.264 123.916 407.645 122.968 409 122 C 409.977 121.302 411.023 120.698 412 120 C 413.355 119.032 414.645 117.968 416 117 C 416.977 116.302 417.970 115.618 419 115 C 419.638 114.617 420.334 114.333 421 114 C 421.666 113.667 422.334 113.333 423 113 C 424.332 112.334 425.587 111.471 427 111 C 427.632 110.789 428.334 111 429 111 C 429.666 111 430.354 110.838 431 111 C 431.722 111.181 432.255 112 433 112 C 434.053 112 434.967 111.207 436 111 C 438.309 110.538 440.653 110.196 443 110 C 444.659 109.862 446.335 110 448 110 C 449.998 110 452.010 109.819 454 110 C 455.691 110.154 457.319 110.760 459 111 C 459.659 111.094 460.334 111 461 111 C 461.666 111 462.347 111.131 463 111 C 464.033 110.793 464.961 110.173 466 110 C 466.985 109.836 468.001 110 469 110 C 469.999 110 471.001 110 472 110 C 472.666 110 473.334 110 474 110 C 474.666 110 475.334 110 476 110 C 476.666 110 477.354 110.162 478 110 C 478.722 109.819 479.334 109.333 480 109 C 480.166 108.917 480 109 480 109 " transform="matrix(1, 0, 0, 1, 2, 2)"/>
  <path id="ID0.6913964627310634" fill="none" stroke="#FF00BF" stroke-width="2" stroke-linecap="round" d="M 475 84 C 475 84 470.268 85.866 468 87 C 466.263 87.868 464.842 89.386 463 90 C 461.736 90.421 460.332 90 459 90 C 457.668 90 456.324 90.147 455 90 C 453.312 89.812 451.626 89.488 450 89 C 448.282 88.485 446.701 87.567 445 87 C 442.700 86.233 440.317 85.713 438 85 C 435.987 84.381 433.998 83.666 432 83 C 431.001 82.667 430.039 82.173 429 82 C 428.015 81.836 426.989 81.859 426 82 C 424.641 82.194 423.303 82.566 422 83 C 421.294 83.235 420.691 83.723 420 84 C 419.022 84.391 418.039 84.827 417 85 C 416.015 85.164 414.999 85 414 85 C 413.001 85 411.999 85 411 85 C 409.002 85 406.998 85 405 85 C 403.002 85 400.998 85 399 85 C 397.002 85 394.994 84.875 393 85 C 389.660 85.209 386.341 85.803 383 86 C 380.673 86.137 378.326 85.845 376 86 C 373.321 86.179 370.658 86.620 368 87 C 365.995 87.286 363.998 87.667 362 88 C 360.002 88.333 357.977 88.561 356 89 C 354.972 89.228 353.978 89.609 353 90 C 352.309 90.277 351.691 90.723 351 91 C 350.022 91.391 349.013 91.711 348 92 C 346.680 92.377 345.320 92.623 344 93 C 340.657 93.955 337.343 95.045 334 96 C 332.680 96.377 331.336 96.686 330 97 C 325.675 98.018 321.332 99.015 317 100 C 314.006 100.680 310.966 101.209 308 102 C 305.965 102.543 304.017 103.395 302 104 C 300.685 104.395 299.303 104.566 298 105 C 297.294 105.235 296.527 105.473 296 106 C 295.151 106.849 294.666 108.001 294 109 C 293.334 109.999 292.666 111.001 292 112 C 290.668 113.998 289.441 116.079 288 118 C 287.435 118.753 286.565 119.247 286 120 C 284.559 121.921 283.166 123.901 282 126 C 281.489 126.921 281.391 128.022 281 129 C 280.723 129.691 280.447 130.404 280 131 C 279.435 131.753 278.588 132.265 278 133 C 277.250 133.938 276.769 135.078 276 136 C 275.096 137.085 273.904 137.915 273 139 C 272.231 139.922 271.596 140.958 271 142 C 270.261 143.293 269.587 144.631 269 146 C 268.585 146.968 268.471 148.058 268 149 C 267.463 150.074 266.618 150.970 266 152 C 265.617 152.638 265.333 153.334 265 154 C 264.667 154.666 264.277 155.309 264 156 C 263.609 156.978 263.471 158.058 263 159 C 262.463 160.074 261.537 160.926 261 162 C 260.529 162.942 260.542 164.097 260 165 C 259.515 165.808 258.485 166.192 258 167 C 257.458 167.903 257.207 168.967 257 170 C 256.869 170.653 257.298 171.404 257 172 C 256.579 172.842 255.547 173.234 255 174 C 253.871 175.580 252.765 177.215 252 179 C 251.738 179.612 252.262 180.388 252 181 C 251.235 182.785 249.789 184.226 249 186 C 248.442 187.255 248.434 188.697 248 190 C 247.433 191.701 246.630 193.321 246 195 C 245.630 195.986 245.391 197.022 245 198 C 244.723 198.691 244.181 199.278 244 200 C 243.838 200.646 244.162 201.354 244 202 C 243.819 202.722 243.333 203.334 243 204 C 242.667 204.666 242.333 205.334 242 206 C 241.667 206.666 241.277 207.309 241 208 C 240.609 208.978 240.391 210.022 240 211 C 239.058 213.355 238.202 215.767 237 218 C 235.862 220.114 234.273 221.964 233 224 C 230.942 227.293 228.841 230.581 227 234 C 226.501 234.927 226.289 235.987 226 237 C 225.623 238.320 225.541 239.738 225 241 C 224.527 242.104 223.618 242.970 223 244 C 222.617 244.638 222.333 245.334 222 246 C 221.334 247.332 220.666 248.668 220 250 C 219.334 251.332 218.666 252.668 218 254 C 217.334 255.332 216.587 256.631 216 258 C 215.585 258.968 215.207 259.967 215 261 C 214.869 261.653 215.162 262.354 215 263 C 214.819 263.722 214.333 264.334 214 265 C 213.667 265.666 213.333 266.334 213 267 C 212.667 267.666 212 268.255 212 269 C 212 269.745 212.553 270.404 213 271 C 213.565 271.753 214.158 272.579 215 273 C 216.228 273.614 217.680 273.623 219 274 C 220.013 274.289 221.014 274.630 222 275 C 223.679 275.630 225.315 276.387 227 277 C 228.979 277.720 230.935 278.587 233 279 C 235.957 279.591 239.000 279.700 242 280 C 245.660 280.366 249.399 280.250 253 281 C 257.434 281.924 261.743 283.452 266 285 C 269.082 286.121 271.977 287.727 275 289 C 278.305 290.392 281.714 291.562 285 293 C 287.047 293.895 289.002 295.001 291 296 C 292.998 296.999 294.881 298.294 297 299 C 298.922 299.641 301.007 299.638 303 300 C 304.671 300.304 306.315 300.789 308 301 C 308.991 301.124 310.001 301 311 301 C 312.665 301 314.335 301 316 301 C 317.332 301 318.668 301 320 301 C 322.331 301 324.669 301 327 301 C 328.665 301 330.335 301 332 301 C 334.331 301 336.669 301 339 301 C 340.665 301 342.335 301 344 301 C 345.665 301 347.335 301 349 301 C 350.665 301 352.335 301 354 301 C 354.999 301 356.015 300.836 357 301 C 358.039 301.173 358.953 301.884 360 302 C 361.986 302.221 364.014 302.221 366 302 C 367.047 301.884 367.955 301.131 369 301 C 370.652 300.793 372.335 301 374 301 C 375.665 301 377.341 301.138 379 301 C 381.347 300.804 383.653 300.196 386 300 C 387.659 299.862 389.342 300.151 391 300 C 393.017 299.817 394.980 299.155 397 299 C 399.324 298.821 401.669 299 404 299 C 405.665 299 407.343 299.166 409 299 C 410.690 298.831 412.312 298.188 414 298 C 415.324 297.853 416.678 298.165 418 298 C 419.362 297.830 420.638 297.170 422 297 C 423.322 296.835 424.668 297 426 297 C 426.666 297 427.354 297.162 428 297 C 428.722 296.819 429.278 296.181 430 296 C 430.646 295.838 431.334 296 432 296 C 433.332 296 434.686 296.219 436 296 C 436.734 295.878 437.270 295.146 438 295 C 438.980 294.804 440.020 295.196 441 295 C 441.730 294.854 442.278 294.181 443 294 C 443.646 293.838 444.334 294 445 294 C 445.999 294 447.001 294 448 294 C 449.332 294 450.678 294.165 452 294 C 453.362 293.830 454.641 293.194 456 293 C 456.989 292.859 458.001 293 459 293 C 460.332 293 461.686 293.219 463 293 C 463.734 292.878 464.278 292.181 465 292 C 465.646 291.838 466.334 292 467 292 C 467.666 292 468.354 292.162 469 292 C 469.722 291.819 470.334 291.333 471 291 C 471.666 290.667 472.334 290.333 473 290 C 473.666 289.667 474.334 289.333 475 289 C 475.666 288.667 476.278 288.181 477 288 C 477.646 287.838 478.446 288.369 479 288 C 479.620 287.587 479.819 286.722 480 286 C 480.162 285.354 480 284.666 480 284 C 480 283.334 480 282.666 480 282 C 480 281.334 480 280.666 480 280 C 480 279.834 480 280 480 280 " transform="matrix(1, 0, 0, 1, 2, 2)"/>
  <path id="ID0.8071179408580065" fill="none" stroke="#FF00BF" stroke-width="2" stroke-linecap="round" d="M 477 76 C 477 76 477.793 74.033 478 73 C 478.131 72.347 478 71.666 478 71 C 478 70.334 478 69.666 478 69 C 478 68.001 478 66.999 478 66 C 478 65.334 478 64.666 478 64 C 478 63.334 478 62.666 478 62 C 478 61.001 478 59.999 478 59 C 478 58.334 478.131 57.653 478 57 C 477.793 55.967 477.391 54.978 477 54 C 476.723 53.309 476.181 52.722 476 52 C 475.838 51.354 476.369 50.554 476 50 C 475.587 49.380 474.666 49.333 474 49 C 473.334 48.667 472.666 48.333 472 48 C 471.334 47.667 470.691 47.277 470 47 C 469.022 46.609 468.013 46.289 467 46 C 465.680 45.623 464.332 45.333 463 45 C 461.668 44.667 460.320 44.377 459 44 C 457.987 43.711 457.013 43.289 456 43 C 454.680 42.623 453.303 42.434 452 42 C 451.294 41.765 450.722 41.181 450 41 C 449.354 40.838 448.618 41.247 448 41 C 446.885 40.554 445.999 39.666 445 39 C 444.001 38.334 443.042 37.596 442 37 C 440.707 36.261 439.263 35.789 438 35 C 436.588 34.118 435.412 32.882 434 32 C 432.737 31.211 431.293 30.739 430 30 C 428.958 29.404 427.999 28.666 427 28 C 426.001 27.334 425.030 26.618 424 26 C 423.362 25.617 422.745 25 422 25 C 419.645 25 417.309 25.538 415 26 C 412.307 26.539 409.685 27.425 407 28 C 405.019 28.424 403.021 28.865 401 29 C 398.010 29.199 394.991 28.813 392 29 C 389.650 29.147 387.336 29.708 385 30 C 382.008 30.374 379.008 30.785 376 31 C 374.339 31.119 372.655 30.816 371 31 C 369.635 31.152 368.332 31.667 367 32 C 365.668 32.333 364.354 32.774 363 33 C 362.343 33.109 361.666 33 361 33 C 360.001 33 358.980 32.804 358 33 C 357.270 33.146 356.722 33.819 356 34 C 355.354 34.162 354.653 33.869 354 34 C 352.967 34.207 351.999 34.667 351 35 C 350.001 35.333 349.045 35.869 348 36 C 346.348 36.207 344.658 35.849 343 36 C 340.983 36.183 338.995 36.648 337 37 C 333.334 37.647 329.677 38.419 326 39 C 323.348 39.419 320.671 39.733 318 40 C 314.010 40.399 309.990 40.601 306 41 C 303.329 41.267 300.666 41.686 298 42 C 295.005 42.352 292.000 42.700 289 43 C 285.340 43.366 281.628 43.395 278 44 C 275.609 44.399 273.362 45.455 271 46 C 269.026 46.455 266.986 46.603 265 47 C 263.654 47.269 262.320 47.623 261 48 C 259.987 48.289 259.022 48.745 258 49 C 256.353 49.412 254.519 49.241 253 50 C 251.093 50.954 249.828 52.903 248 54 C 246.462 54.923 244.639 55.272 243 56 C 241.639 56.605 240.239 57.174 239 58 C 238.216 58.522 237.753 59.435 237 60 C 236.404 60.447 235.666 60.667 235 61 C 234.334 61.333 233.596 61.553 233 62 C 232.247 62.565 231.724 63.397 231 64 C 229.721 65.066 228.332 66.001 227 67 C 223.004 69.997 218.821 72.783 215 76 C 212.478 78.123 210.430 80.772 208 83 C 206.428 84.441 204.683 85.691 203 87 C 201.686 88.022 200.355 89.032 199 90 C 198.023 90.698 196.849 91.151 196 92 C 195.151 92.849 194.849 94.151 194 95 C 193.473 95.527 192.666 95.667 192 96 C 191.334 96.333 190.527 96.473 190 97 C 189.473 97.527 189.572 98.523 189 99 C 187.508 100.243 185.710 101.079 184 102 C 181.378 103.412 178.326 104.139 176 106 C 173.236 108.211 171.503 111.497 169 114 C 168.151 114.849 166.849 115.151 166 116 C 165.473 116.527 165.333 117.334 165 118 C 164.667 118.666 164.333 119.334 164 120 C 163.667 120.666 163.383 121.362 163 122 C 162.382 123.030 161.537 123.926 161 125 C 160.529 125.942 160.370 127.014 160 128 C 159.370 129.679 158.871 131.432 158 133 C 157.191 134.455 155.839 135.562 155 137 C 153.499 139.573 152.412 142.378 151 145 C 150.079 146.710 148.789 148.226 148 150 C 147.442 151.255 147.482 152.714 147 154 C 146.477 155.394 145.587 156.631 145 158 C 144.585 158.968 144.542 160.097 144 161 C 143.515 161.808 142.485 162.192 142 163 C 141.458 163.903 141.584 165.124 141 166 C 140.216 167.176 138.727 167.789 138 169 C 137.657 169.571 138.298 170.404 138 171 C 137.579 171.842 136.565 172.247 136 173 C 135.553 173.596 135.333 174.334 135 175 C 134.667 175.666 134.413 176.380 134 177 C 133.076 178.385 131.857 179.572 131 181 C 129.851 182.915 128.895 184.953 128 187 C 126.562 190.286 125.542 193.762 124 197 C 122.206 200.767 119.925 204.298 118 208 C 115.595 212.624 113.145 217.250 111 222 C 108.480 227.580 106.186 233.282 104 239 C 101.856 244.607 100.067 250.364 98 256 C 96.403 260.355 94.274 264.540 93 269 C 91.601 273.898 91.286 279.071 90 284 C 89.282 286.753 87.947 289.317 87 292 C 85.949 294.979 84.685 297.916 84 301 C 83.346 303.944 83.374 307.008 83 310 C 82.708 312.336 82.213 314.655 82 317 C 81.879 318.327 81.835 319.678 82 321 C 82.170 322.362 82.667 323.668 83 325 C 83.333 326.332 83.623 327.680 84 329 C 84.289 330.013 84.529 331.058 85 332 C 85.537 333.074 86.334 334.001 87 335 C 87.666 335.999 88.382 336.970 89 338 C 89.383 338.638 89.667 339.334 90 340 C 90.999 341.998 92.076 343.966 93 346 C 93.742 347.633 94.198 349.396 95 351 C 95.868 352.737 96.923 354.384 98 356 C 98.924 357.385 99.511 359.255 101 360 C 102.489 360.745 104.335 360 106 360 C 107.665 360 109.335 360 111 360 C 112.332 360 113.668 360 115 360 C 116.665 360 118.335 360 120 360 C 121.998 360 124.002 360 126 360 C 127.998 360 130.002 360 132 360 C 134.331 360 136.669 360 139 360 C 141.664 360 144.336 360 147 360 C 148.998 360 151.002 360 153 360 C 154.665 360 156.335 360 158 360 C 161.330 360 164.670 360 168 360 C 170.664 360 173.336 360 176 360 C 178.331 360 180.669 360 183 360 C 186.330 360 189.670 360 193 360 C 195.664 360 198.336 360 201 360 C 202.998 360 205.002 360 207 360 C 208.665 360 210.335 360 212 360 C 213.998 360 216.002 360 218 360 C 220.331 360 222.669 360 225 360 C 229.995 360 235.005 360 240 360 C 243.330 360 246.670 360 250 360 C 252.331 360 254.669 360 257 360 C 260.330 360 263.670 360 267 360 C 269.331 360 271.669 360 274 360 C 276.331 360 278.669 360 281 360 C 282.998 360 285.002 360 287 360 C 288.332 360 289.668 360 291 360 C 292.332 360 293.668 360 295 360 C 295.666 360 296.334 360 297 360 C 297.999 360 299.001 360 300 360 C 301.665 360 303.335 360 305 360 C 307.331 360 309.669 360 312 360 C 315.663 360 319.337 360 323 360 C 326.663 360 330.337 360 334 360 C 337.330 360 340.670 360 344 360 C 347.996 360 352.004 360 356 360 C 359.996 360 364.004 360 368 360 C 371.330 360 374.670 360 378 360 C 380.664 360 383.336 360 386 360 C 387.665 360 389.335 360 391 360 C 393.331 360 395.669 360 398 360 C 400.331 360 402.669 360 405 360 C 405.666 360 406.334 360 407 360 C 407.999 360 409.001 360 410 360 C 410.666 360 411.334 360 412 360 C 413.665 360 415.335 360 417 360 C 419.997 360 423.003 360 426 360 C 428.997 360 432.003 360 435 360 C 437.664 360 440.336 360 443 360 C 445.664 360 448.336 360 451 360 C 453.997 360 457.003 360 460 360 C 461.332 360 462.668 360 464 360 C 464.666 360 465.334 360 466 360 C 466.999 360 468.001 360 469 360 C 469.666 360 470.334 360 471 360 C 472.665 360 474.335 360 476 360 C 477.332 360 478.668 360 480 360 C 480.333 360 480 360 480 360 " transform="matrix(1, 0, 0, 1, 2, 2)"/>
  <path id="ID0.9342072964645922" fill="none" stroke="#FF00BF" stroke-width="2" stroke-linecap="round" d="M 449 21 C 449 21 446.924 18.385 446 17 C 445.587 16.380 445.447 15.596 445 15 C 444.435 14.247 443.588 13.735 443 13 C 442.250 12.062 441.666 10.999 441 10 C 440.334 9.001 439.618 8.030 439 7 C 438.617 6.362 438.447 5.596 438 5 C 437.435 4.247 436.588 3.735 436 3 C 435.250 2.062 434.961 0.720 434 0 C 433.467 -0.400 432.666 0 432 0 C 431.334 0 430.666 0 430 0 C 429.001 0 427.999 0 427 0 C 426.334 0 425.666 0 425 0 C 424.334 0 423.666 0 423 0 C 422.001 0 420.999 0 420 0 C 419.001 0 417.999 0 417 0 C 416.334 0 415.666 0 415 0 C 414.001 0 412.999 0 412 0 C 411.001 0 409.999 0 409 0 C 407.668 0 406.332 0 405 0 C 403.002 0 400.998 0 399 0 C 397.335 0 395.665 0 394 0 C 392.668 0 391.332 0 390 0 C 388.668 0 387.332 0 386 0 C 384.002 0 381.998 0 380 0 C 379.001 0 377.999 0 377 0 C 376.334 0 375.666 0 375 0 C 374.334 0 373.666 0 373 0 C 372.001 0 370.999 0 370 0 C 368.668 0 367.332 0 366 0 C 364.335 0 362.665 0 361 0 C 359.335 0 357.665 0 356 0 C 354.002 0 351.998 0 350 0 C 348.002 0 345.998 0 344 0 C 342.668 0 341.332 0 340 0 C 338.002 0 335.998 0 334 0 C 332.668 0 331.332 0 330 0 C 329.001 0 327.999 0 327 0 C 326.334 0 325.666 0 325 0 C 324.334 0 323.666 0 323 0 C 322.334 0 321.666 0 321 0 C 320.334 0 319.666 0 319 0 C 318.334 0 317.666 0 317 0 C 316.334 0 315.666 0 315 0 C 313.668 0 312.332 0 311 0 C 309.668 0 308.332 0 307 0 C 305.335 0 303.665 0 302 0 C 299.669 0 297.331 0 295 0 C 291.670 0 288.330 0 285 0 C 281.004 0 276.996 0 273 0 C 269.670 0 266.330 0 263 0 C 260.336 0 257.664 0 255 0 C 253.002 0 250.998 0 249 0 C 247.002 0 244.998 0 243 0 C 242.001 0 240.999 0 240 0 C 239.001 0 237.999 0 237 0 C 235.335 0 233.665 0 232 0 C 229.669 0 227.331 0 225 0 C 222.669 0 220.331 0 218 0 C 216.002 0 213.998 0 212 0 C 209.336 0 206.664 0 204 0 C 201.336 0 198.664 0 196 0 C 193.003 0 189.997 0 187 0 C 184.003 0 180.997 0 178 0 C 175.003 0 171.997 0 169 0 C 163.672 0 158.328 0 153 0 C 150.336 0 147.664 0 145 0 C 142.336 0 139.664 0 137 0 C 134.003 0 130.997 0 128 0 C 125.669 0 123.331 0 121 0 C 119.002 0 116.998 0 115 0 C 113.002 0 110.998 0 109 0 C 106.336 0 103.664 0 101 0 C 99.002 0 96.998 0 95 0 C 92.336 0 89.664 0 87 0 C 84.336 0 81.664 0 79 0 C 76.336 0 73.664 0 71 0 C 67.004 0 62.996 0 59 0 C 57.002 0 54.998 0 53 0 C 50.669 0 48.331 0 46 0 C 44.335 0 42.665 0 41 0 C 39.668 0 38.332 0 37 0 C 35.668 0 34.332 0 33 0 C 32.334 0 31.666 0 31 0 C 29.668 0 28.332 0 27 0 C 26.334 0 25.666 0 25 0 C 23.668 0 22.332 0 21 0 C 19.668 0 18.332 0 17 0 C 13.337 0 9.387 -1.395 6 0 C 3.161 1.169 1.078 4.125 0 7 C -1.052 9.806 0 13.003 0 16 C 0 18.331 0 20.669 0 23 C 0 26.330 0 29.670 0 33 C 0 35.331 0 37.669 0 40 C 0 43.330 0 46.670 0 50 C 0 52.997 0 56.003 0 59 C 0 62.330 0 65.670 0 69 C 0 71.664 0 74.336 0 77 C 0 79.331 0 81.669 0 84 C 0 88.329 0 92.671 0 97 C 0 99.664 0 102.336 0 105 C 0 106.998 0 109.002 0 111 C 0 113.997 0 117.003 0 120 C 0 123.330 0 126.670 0 130 C 0 132.997 0 136.003 0 139 C 0 142.330 0 145.670 0 149 C 0 151.997 0 155.003 0 158 C 0 160.997 0 164.003 0 167 C 0 169.997 0 173.003 0 176 C 0 179.996 0 184.004 0 188 C 0 191.663 0 195.337 0 199 C 0 202.996 0 207.004 0 211 C 0 215.329 0 219.671 0 224 C 0 230.327 0 236.673 0 243 C 0 247.329 0 251.671 0 256 C 0 259.996 0 264.004 0 268 C 0 271.330 0 274.670 0 278 C 0 281.330 0 284.670 0 288 C 0 291.663 0 295.337 0 299 C 0 301.664 0 304.336 0 307 C 0 310.663 0 314.337 0 318 C 0 321.663 0 325.337 0 329 C 0 331.997 0 335.003 0 338 C 0 341.330 0 344.670 0 348 C 0 351.996 -1.787 356.426 0 360 C 0.894 361.787 4.002 360 6 360 C 9.996 360 14.004 360 18 360 C 21.996 360 26.004 360 30 360 C 33.663 360 37.337 360 41 360 C 42.998 360 45.002 360 47 360 C 49.331 360 51.669 360 54 360 C 55.998 360 58.002 360 60 360 C 61.332 360 62.668 360 64 360 C 64.666 360 65.334 360 66 360 C 66.666 360 67.334 360 68 360 C 68.999 360 70.001 360 71 360 C 71.666 360 72.334 360 73 360 C 73.166 360 73 360 73 360 " transform="matrix(1, 0, 0, 1, 2, 2)"/>
  <path id="ID0.8972012577578425" fill="none" stroke="#FF00BF" stroke-width="2" stroke-linecap="round" d="M 189 0 C 189 0 82 0 82 0 " transform="matrix(1, 0, 0, 1, 2, 2)"/>
  <path id="ID0.4926109700463712" fill="none" stroke="#FF00BF" stroke-width="2" stroke-linecap="round" d="M 33 2 C 33 2 32.377 4.680 32 6 C 31.711 7.013 31.207 7.967 31 9 C 30.869 9.653 31.162 10.354 31 11 C 30.819 11.722 30.277 12.309 30 13 C 29.609 13.978 29.333 15.001 29 16 C 28.667 16.999 28.632 18.158 28 19 C 27.553 19.596 26.383 19.362 26 20 C 25.294 21.177 25.377 22.680 25 24 C 24.711 25.013 24.415 26.032 24 27 C 23.413 28.369 22.523 29.606 22 31 C 21.518 32.286 21.482 33.714 21 35 C 20.477 36.394 19.587 37.631 19 39 C 18.585 39.968 18.228 40.972 18 42 C 17.561 43.977 17.491 46.035 17 48 C 16.489 50.043 15.666 52.002 15 54 C 14.667 54.999 14.391 56.022 14 57 C 13.723 57.691 13.333 58.334 13 59 C 12.334 60.332 11.471 61.587 11 63 C 10.789 63.632 11.131 64.347 11 65 C 10.793 66.033 10.289 66.987 10 68 C 9.623 69.320 9.333 70.668 9 72 C 8.667 73.332 8.377 74.680 8 76 C 7.711 77.013 7.289 77.987 7 79 C 6.623 80.320 6.333 81.668 6 83 C 5.667 84.332 5.333 85.668 5 87 C 4.667 88.332 4.434 89.697 4 91 C 3.765 91.706 3.333 92.334 3 93 C 2.667 93.666 2.181 94.278 2 95 C 1.838 95.646 2.247 96.382 2 97 C 1.554 98.115 0.446 98.885 0 100 C -0.247 100.618 0 101.334 0 102 C 0 102.999 0 104.001 0 105 C 0 105.666 0 106.334 0 107 C 0 107.666 0 108.334 0 109 C 0 109.666 0 110.334 0 111 C 0 111.666 0 112.334 0 113 C 0 113.666 0 114.334 0 115 C 0 115.999 0 117.001 0 118 C 0 118.666 0 119.334 0 120 C 0 120.666 0 121.334 0 122 C 0 122.666 0 123.334 0 124 C 0 124.666 0 125.334 0 126 C 0 126.666 0 127.334 0 128 C 0 128.666 0 129.334 0 130 C 0 130.666 0 131.334 0 132 C 0 132.999 0 134.001 0 135 C 0 135.666 0 136.334 0 137 C 0 137.666 0 139.150 0 139 C 0 138.850 0 136.999 0 136 C 0 135.750 0 136 0 136 " transform="matrix(1, 0, 0, 1, 2, 2)"/>
  <path id="ID0.7057121121324599" fill="none" stroke="#FF00BF" stroke-width="2" stroke-linecap="round" d="M 100 0 C 100 0 87.272 0.104 81 1 C 79.432 1.224 79.666 2.334 79 3 C 78.334 3.666 77.666 4.334 77 5 C 76.334 5.666 75.753 6.435 75 7 C 74.404 7.447 73.413 7.380 73 8 C 72.631 8.554 73.369 9.446 73 10 C 72.587 10.620 71.596 10.553 71 11 C 70.247 11.565 69.565 12.247 69 13 C 68.553 13.596 68.413 14.380 68 15 C 67.076 16.385 66.177 17.823 65 19 C 64.473 19.527 63.527 19.473 63 20 C 62.473 20.527 62.333 21.334 62 22 C 61.667 22.666 61.333 23.334 61 24 C 60.667 24.666 60.333 25.334 60 26 C 59.667 26.666 59.333 27.334 59 28 C 58.667 28.666 58.465 29.419 58 30 C 57.117 31.103 55.999 32.001 55 33 C 54.334 33.666 53.588 34.265 53 35 C 52.250 35.938 51.769 37.078 51 38 C 50.096 39.085 48.848 39.870 48 41 C 46.835 42.553 46.165 44.447 45 46 C 44.152 47.130 42.999 48.001 42 49 C 41.001 49.999 39.904 50.915 39 52 C 38.231 52.922 37.750 54.062 37 55 C 36.412 55.735 35.666 56.334 35 57 C 34.334 57.666 33.666 58.334 33 59 C 32.334 59.666 31.565 60.247 31 61 C 30.553 61.596 30.447 62.404 30 63 C 29.435 63.753 28.666 64.334 28 65 C 27.334 65.666 26.565 66.247 26 67 C 25.553 67.596 25.447 68.404 25 69 C 24.435 69.753 23.666 70.334 23 71 C 22.334 71.666 21.565 72.247 21 73 C 20.553 73.596 20.527 74.473 20 75 C 19.151 75.849 17.720 76.039 17 77 C 16.600 77.533 17.400 78.467 17 79 C 16.280 79.961 14.938 80.250 14 81 C 13.265 81.588 12.753 82.435 12 83 C 11.404 83.447 10.666 83.667 10 84 C 9.334 84.333 8.596 84.553 8 85 C 7.247 85.565 6.666 86.334 6 87 C 5.334 87.666 4.666 88.334 4 89 C 3.334 89.666 2.666 90.334 2 91 C 1.667 91.333 1 92 1 92 " transform="matrix(1, 0, 0, 1, 2, 2)"/>
  <path id="ID0.6743547022342682" fill="none" stroke="#FF00BF" stroke-width="2" stroke-linecap="round" d="M 92 0 C 92 0 87.965 0.509 86 1 C 85.278 1.181 84.666 1.667 84 2 C 83.334 2.333 82.572 2.523 82 3 C 80.553 4.206 79.447 5.794 78 7 C 77.428 7.477 76.596 7.553 76 8 C 75.247 8.565 74.485 9.192 74 10 C 73.458 10.903 73.632 12.158 73 13 C 72.553 13.596 71.527 13.473 71 14 C 70.151 14.849 69.750 16.062 69 17 C 68.412 17.735 67.421 18.158 67 19 C 66.702 19.596 67.247 20.382 67 21 C 66.554 22.115 65.618 22.970 65 24 C 64.617 24.638 64.277 25.309 64 26 C 62.943 28.642 62.272 31.455 61 34 C 60.579 34.842 59.565 35.247 59 36 C 58.553 36.596 58.447 37.404 58 38 C 57.435 38.753 56.753 39.435 56 40 C 55.404 40.447 54.465 40.419 54 41 C 53.070 42.163 52.866 43.788 52 45 C 51.179 46.150 49.883 46.897 49 48 C 48.535 48.581 48.447 49.404 48 50 C 47.435 50.753 46.565 51.247 46 52 C 45.553 52.596 45.581 53.535 45 54 C 43.837 54.930 42.053 54.947 41 56 C 39.947 57.053 39.953 58.856 39 60 C 38.231 60.922 36.769 61.078 36 62 C 35.047 63.144 34.894 64.809 34 66 C 32.870 67.507 31.206 68.553 30 70 C 29.523 70.572 29.465 71.419 29 72 C 28.117 73.103 26.999 74.001 26 75 C 25.334 75.666 24.588 76.265 24 77 C 23.250 77.938 22.849 79.151 22 80 C 21.473 80.527 20.527 80.473 20 81 C 19.473 81.527 19.527 82.473 19 83 C 18.473 83.527 17.596 83.553 17 84 C 16.247 84.565 15.753 85.435 15 86 C 14.404 86.447 13.666 86.667 13 87 C 11.668 87.666 9 89 9 89 " transform="matrix(1, 0, 0, 1, 2, 2)"/>
  <path id="ID0.2511582490988076" fill="none" stroke="#FF00BF" stroke-width="2" stroke-linecap="round" d="M 82 2 C 82 2 80.537 3.926 80 5 C 79.529 5.942 79.289 6.987 79 8 C 78.623 9.320 78.706 10.823 78 12 C 77.617 12.638 76.527 12.473 76 13 C 75.473 13.527 75.293 14.316 75 15 C 74.294 16.648 73.802 18.396 73 20 C 72.463 21.074 71.618 21.970 71 23 C 70.617 23.638 70.333 24.334 70 25 C 69.334 26.332 68.471 27.587 68 29 C 67.789 29.632 68.298 30.404 68 31 C 67.579 31.842 66.666 32.334 66 33 C 64.668 34.332 63.226 35.570 62 37 C 61.219 37.912 60.618 38.970 60 40 C 59.617 40.638 59.527 41.473 59 42 C 58.151 42.849 56.938 43.250 56 44 C 55.265 44.588 54.485 45.192 54 46 C 53.458 46.903 53.632 48.158 53 49 C 52.553 49.596 51.527 49.473 51 50 C 50.473 50.527 50.477 51.428 50 52 C 48.794 53.447 47.206 54.553 46 56 C 45.523 56.572 45.383 57.362 45 58 C 44.382 59.030 43.964 59.967 43 61 C 39.144 65.131 34.856 68.869 31 73 C 30.036 74.033 29.750 75.062 29 76 C 28.412 76.735 27.753 77.435 27 78 C 26.404 78.447 25.596 78.553 25 79 C 24.247 79.565 23.753 80.435 23 81 C 22.404 81.447 21.596 81.553 21 82 C 20.247 82.565 19.766 83.453 19 84 C 17.420 85.129 15.737 86.132 14 87 C 13.566 87.217 13 87 13 87 " transform="matrix(1, 0, 0, 1, 2, 2)"/>
  <path id="ID0.8328389595262706" fill="none" stroke="#FF00BF" stroke-width="2" stroke-linecap="round" d="M 13 0 C 13 0 11 1 11 1 Z " transform="matrix(1, 0, 0, 1, 2, 2)"/>
  <path id="ID0.2983817392960191" fill="none" stroke="#FF00BF" stroke-width="2" stroke-linecap="round" d="M 12 0 C 12 0 10.697 4.678 10 7 C 9.697 8.009 9.289 8.987 9 10 C 8.623 11.320 8.226 12.646 8 14 C 7.891 14.657 8 15.334 8 16 C 8 16.999 8 18.001 8 19 C 8 19.666 8.162 20.354 8 21 C 7.819 21.722 7.277 22.309 7 23 C 6.609 23.978 6.289 24.987 6 26 C 5.623 27.320 5.246 28.649 5 30 C 4.579 32.317 4.275 34.661 4 37 C 3.609 40.324 3.186 43.659 3 47 C 2.852 49.660 2.834 52.341 3 55 C 3.167 57.680 3.559 60.352 4 63 C 4.226 64.354 4.830 65.638 5 67 C 5.165 68.322 4.677 69.708 5 71 C 5.081 71.323 6 71 6 71 " transform="matrix(1, 0, 0, 1, 2, 2)"/>
  <path id="ID0.6030645919963717" fill="none" stroke="#FF00BF" stroke-width="2" stroke-linecap="round" d="M 114 14 C 114 14 115.926 12.537 117 12 C 118.604 11.198 120.321 10.630 122 10 C 122.986 9.630 124.032 9.415 125 9 C 126.369 8.413 127.555 7.361 129 7 C 130.292 6.677 131.686 7.219 133 7 C 133.734 6.878 134.278 5.819 135 6 C 135.914 6.228 136.412 7.265 137 8 C 137.750 8.938 138.334 10.001 139 11 C 139.666 11.999 140.334 13.001 141 14 C 141.666 14.999 142.554 15.885 143 17 C 143.247 17.618 143 18.334 143 19 C 143 19.666 143.131 20.347 143 21 C 142.793 22.033 142.333 23.001 142 24 C 141.667 24.999 140.349 26.566 141 27 C 141.849 27.566 143.697 26.434 145 26 C 145.706 25.765 146.334 25.333 147 25 C 147.666 24.667 148.334 24.333 149 24 C 149.666 23.667 150.404 23.447 151 23 C 151.753 22.435 152.247 21.565 153 21 C 153.596 20.553 154.473 20.527 155 20 C 155.527 19.473 155.553 18.596 156 18 C 156.565 17.247 157.334 16.666 158 16 C 158.999 15.001 160.081 14.073 161 13 C 162.084 11.736 163.032 10.355 164 9 C 164.698 8.023 165.062 6.750 166 6 C 166.822 5.342 168.097 5.542 169 5 C 169.808 4.515 170.162 3 171 3 C 171.662 3 171.667 4.334 172 5 C 172.333 5.666 172.667 6.334 173 7 C 173.333 7.666 173.667 8.334 174 9 C 174.333 9.666 174.723 10.309 175 11 C 175.391 11.978 175.609 13.022 176 14 C 176.277 14.691 176.819 15.278 177 16 C 177.162 16.646 177 17.334 177 18 C 177 18.666 177 19.334 177 20 C 177 20.666 177.162 21.354 177 22 C 176.819 22.722 176.333 23.334 176 24 C 175.667 24.666 175.333 25.334 175 26 C 174.667 26.666 174.333 27.334 174 28 C 173.667 28.666 173.181 29.278 173 30 C 172.838 30.646 172.467 31.600 173 32 C 174.098 32.824 175.641 32.806 177 33 C 177.989 33.141 179.001 33 180 33 C 180.666 33 181.354 32.838 182 33 C 182.722 33.181 183.473 33.473 184 34 C 184.527 34.527 184.819 35.278 185 36 C 185.162 36.646 185.369 37.446 185 38 C 184.587 38.620 183.666 38.667 183 39 C 182.334 39.333 181.666 39.667 181 40 C 180.334 40.333 179.666 40.667 179 41 C 178.334 41.333 177.596 41.553 177 42 C 176.247 42.565 175.735 43.412 175 44 C 174.062 44.750 172.999 45.334 172 46 C 171.001 46.666 169.938 47.250 169 48 C 168.265 48.588 167.666 49.334 167 50 C 166.334 50.666 165.753 51.435 165 52 C 164.404 52.447 163.596 52.553 163 53 C 162.247 53.565 161.842 54.579 161 55 C 160.404 55.298 159.618 54.753 159 55 C 157.885 55.446 157.115 56.554 156 57 C 155.382 57.247 154.646 56.838 154 57 C 153.278 57.181 152.722 57.819 152 58 C 151.354 58.162 150.646 57.838 150 58 C 149.278 58.181 148.666 58.667 148 59 C 147.334 59.333 146.666 59.667 146 60 C 145.334 60.333 144.666 60.667 144 61 C 143.334 61.333 142.691 61.723 142 62 C 141.022 62.391 139.978 62.609 139 63 C 138.309 63.277 137.722 63.819 137 64 C 136.354 64.162 135.646 63.838 135 64 C 134.278 64.181 133.722 64.819 133 65 C 132.354 65.162 131.646 64.838 131 65 C 130.278 65.181 129.722 65.819 129 66 C 128.354 66.162 127.653 65.869 127 66 C 125.967 66.207 125.039 66.827 124 67 C 123.015 67.164 121.989 66.859 121 67 C 119.641 67.194 118.362 67.830 117 68 C 115.678 68.165 114.332 68 113 68 C 112.001 68 110.999 68 110 68 C 109.334 68 108.666 68 108 68 C 107.334 68 106.666 68 106 68 C 105.334 68 104.646 68.162 104 68 C 103.278 67.819 102.447 67.596 102 67 C 101.368 66.158 101 65.053 101 64 C 101 63.255 101.667 62.666 102 62 C 102.083 61.834 102 62 102 62 " transform="matrix(1, 0, 0, 1, 2, 2)"/>
  <path id="ID0.8433628887869418" fill="none" stroke="#FF00BF" stroke-width="2" stroke-linecap="round" d="M 118 8 C 118 8 116.421 9.158 116 10 C 115.702 10.596 116 11.334 116 12 C 116 13.332 116.188 14.681 116 16 C 115.851 17.042 115.289 17.987 115 19 C 114.623 20.320 114.377 21.680 114 23 C 113.711 24.013 113.333 25.001 113 26 C 112.667 26.999 112.391 28.022 112 29 C 111.723 29.691 111.333 30.334 111 31 C 110.667 31.666 110.333 32.334 110 33 C 109.667 33.666 109.277 34.309 109 35 C 108.609 35.978 108.391 37.022 108 38 C 107.723 38.691 107.181 39.278 107 40 C 106.838 40.646 107.162 41.354 107 42 C 106.819 42.722 106.333 43.334 106 44 C 105.667 44.666 105 45.255 105 46 C 105 47.053 105.609 48.022 106 49 C 106.277 49.691 106.819 50.278 107 51 C 107.162 51.646 107 52.334 107 53 C 107 53.999 106.804 55.020 107 56 C 107.146 56.730 107.819 57.278 108 58 C 108.162 58.646 108 59.334 108 60 C 108 60.166 108 60 108 60 " transform="matrix(1, 0, 0, 1, 2, 2)"/>
  <path id="ID0.49029517779126763" fill="none" stroke="#FF00BF" stroke-width="2" stroke-linecap="round" d="M 0 281 C 0 281 -1.002 277.877 0 277 C 2.141 275.126 5.284 274.849 8 274 C 10.621 273.181 13.324 272.617 16 272 C 17.654 271.618 19.410 271.596 21 271 C 22.124 270.578 22.926 269.537 24 269 C 24.942 268.529 26.001 268.333 27 268 C 28.998 267.334 31.028 266.739 33 266 C 33.697 265.739 34.266 265.122 35 265 C 36.314 264.781 37.668 265 39 265 C 40.332 265 41.736 264.579 43 265 C 44.842 265.614 46.430 266.858 48 268 C 50.103 269.530 51.897 271.470 54 273 C 55.570 274.142 57.625 274.350 59 276 C 64.502 282.602 69.192 289.877 74 297 C 78.187 303.202 82.555 309.357 86 316 C 91.899 327.377 96.920 339.235 102 351 C 103.270 353.941 103.466 357.238 105 360 C 105.384 360.690 106.334 360 107 360 C 109.331 360 111.687 360.289 114 360 C 117.046 359.619 120.031 358.781 123 358 C 126.362 357.115 129.751 356.238 133 355 C 136.760 353.568 140.219 351.375 144 350 C 147.568 348.702 151.398 348.201 155 347 C 158.402 345.866 161.684 344.366 165 343 C 167.345 342.034 169.702 341.072 172 340 C 174.699 338.740 177.385 337.426 180 336 C 181.054 335.425 182.062 334.750 183 334 C 183.735 333.412 184.192 332.485 185 332 C 185.903 331.458 187.158 331.632 188 331 C 188.596 330.553 188.535 329.581 189 329 C 189.883 327.897 190.870 326.848 192 326 C 193.553 324.835 195.308 323.952 197 323 C 200.637 320.954 204.268 318.866 208 317 C 210.933 315.533 213.943 314.189 217 313 C 219.944 311.855 223.003 310.999 226 310 C 229.996 308.668 233.914 307.022 238 306 C 244.589 304.353 251.340 303.332 258 302 C 259.665 301.667 261.321 301.252 263 301 C 267.983 300.252 273.007 299.681 278 299 C 280.333 298.682 282.645 298 285 298 C 287.685 298 290.326 298.757 293 299 C 293.995 299.090 295.233 298.360 296 299 C 297.492 300.243 298.386 302.158 299 304 C 299.421 305.264 299 306.668 299 308 C 299 309.332 299.219 310.686 299 312 C 298.549 314.709 297.789 317.370 297 320 C 296.786 320.713 296.235 321.294 296 322 C 295.566 323.303 294.667 324.668 295 326 C 295.162 326.646 296.446 326.369 297 326 C 297.620 325.587 297.473 324.527 298 324 C 298.527 323.473 299.419 323.465 300 323 C 301.103 322.117 301.880 320.861 303 320 C 306.222 317.522 309.650 315.303 313 313 C 314.979 311.640 316.980 310.299 319 309 C 321.643 307.301 324.362 305.707 327 304 C 330.024 302.043 332.927 299.878 336 298 C 338.925 296.212 342.122 294.863 345 293 C 347.796 291.191 350.130 288.688 353 287 C 355.827 285.337 358.955 284.218 362 283 C 363.955 282.218 365.983 281.605 368 281 C 369.315 280.605 370.627 280 372 280 C 372.745 280 373.362 280.617 374 281 C 375.030 281.618 376.231 282.078 377 283 C 377.953 284.144 378.223 285.729 379 287 C 381.890 291.729 384.706 296.543 388 301 C 390.383 304.225 393.347 306.993 396 310 C 398.342 312.654 400.876 315.168 403 318 C 404.885 320.513 406.441 323.272 408 326 C 409.108 327.940 409.420 330.420 411 332 C 411.706 332.706 413.025 332.217 414 332 C 416.056 331.543 417.978 330.590 420 330 C 425.972 328.258 431.953 326.460 438 325 C 441.619 324.126 445.314 323.527 449 323 C 452.313 322.527 455.704 322.582 459 322 C 461.387 321.579 463.717 320.815 466 320 C 468.388 319.147 470.691 318.049 473 317 C 474.356 316.384 475.668 315.666 477 315 C 477.666 314.667 478.617 314.638 479 314 C 479.706 312.823 479.774 311.354 480 310 C 480.109 309.343 480 308 480 308 " transform="matrix(1, 0, 0, 1, 2, 2)"/>
  <path id="ID0.9950220761820674" fill="none" stroke="#FF00BF" stroke-width="2" stroke-linecap="round" d="M 48 131 C 48 131 52.248 131.832 54 133 C 54.554 133.369 54 134.334 54 135 C 54 135.666 54.369 136.446 54 137 C 53.587 137.620 52.706 137.765 52 138 C 51.684 138.105 51 138 51 138 " transform="matrix(1, 0, 0, 1, 2, 2)"/>
  <path id="ID0.489504583645612" fill="none" stroke="#FF00BF" stroke-width="2" stroke-linecap="round" d="M 91 136 C 91 136 88.239 139.265 87 141 C 86.567 141.606 86.235 142.294 86 143 C 85.895 143.316 86 144 86 144 " transform="matrix(1, 0, 0, 1, 2, 2)"/>
  <path id="ID0.09882035665214062" fill="none" stroke="#FF00BF" stroke-width="2" stroke-linecap="round" d="M 46 163 C 46 163 46.732 166.732 48 168 C 48.971 168.971 50.633 168.876 52 169 C 54.321 169.211 56.675 168.834 59 169 C 61.349 169.168 63.698 169.507 66 170 C 68.370 170.508 70.678 171.303 73 172 C 74.009 172.303 74.961 172.827 76 173 C 76.985 173.164 78.015 173.164 79 173 C 80.039 172.827 80.961 172.173 82 172 C 84.974 171.504 88.036 171.556 91 171 C 93.383 170.553 95.617 169.447 98 169 C 100.964 168.444 104.015 168.426 107 168 C 108.681 167.760 110.367 167.466 112 167 C 112.716 166.795 113.278 166.181 114 166 C 114.646 165.838 115.446 166.369 116 166 C 116.620 165.587 117 164 117 164 " transform="matrix(1, 0, 0, 1, 2, 2)"/>
</svg>