<svg xmlns="http://www.w3.org/2000/svg" xmlns:xlink="http://www.w3.org/1999/xlink" version="1.1" width="179.3400115966797" height="34.21999740600586" viewBox="0.8999999761581421 0.8999999761581421 179.3400115966797 34.21999740600586">
  <!-- Exported by Scratch - http://scratch.mit.edu/ -->
  <g id="ID0.3779243379831314">
    <path id="ID0.9924842822365463" fill="#42210B" d="M 22.94 28.29 C 22.15 28.29 21.49 28 20.98 27.44 C 20.48 26.89 20.23 26.09 20.23 25.07 L 20.23 14.09 L 17.74 23.99 C 17.49 24.96 17.3 25.66 17.14 26.12 C 16.96 26.66 16.62 27.15 16.14 27.58 C 15.62 28.04 14.92 28.28 14.05 28.28 C 13.4 28.28 12.83 28.13 12.36 27.84 C 11.9 27.55 11.54 27.18 11.28 26.73 C 11.05 26.32 10.86 25.87 10.73 25.38 C 10.6 24.94 10.48 24.48 10.36 24 L 7.87 14.1 L 7.87 25.07 C 7.87 26.09 7.62 26.89 7.13 27.44 C 6.62 28.01 5.95 28.3 5.13 28.3 C 4.33 28.3 3.67 28.02 3.16 27.46 C 2.65 26.9 2.4 26.1 2.4 25.06 L 2.4 6.94 C 2.4 5.73 2.75 4.88 3.45 4.42 C 4.07 4 4.89 3.79 5.89 3.79 L 7.33 3.79 C 8.28 3.79 8.97 3.88 9.44 4.07 C 9.98 4.28 10.38 4.67 10.63 5.22 C 10.83 5.66 11.05 6.34 11.31 7.3 L 14.06 17.66 L 16.79 7.3 C 17.04 6.34 17.26 5.66 17.47 5.22 C 17.72 4.67 18.12 4.28 18.66 4.07 C 19.13 3.88 19.82 3.79 20.77 3.79 L 22.21 3.79 C 23.21 3.79 24.03 4 24.65 4.42 C 25.34 4.89 25.7 5.73 25.7 6.94 L 25.7 25.07 C 25.7 26.09 25.45 26.89 24.96 27.44 C 24.45 28 23.77 28.29 22.94 28.29 L 22.94 28.29 Z " stroke-width="1"/>
    <path id="ID0.9482337515801191" fill="#42210B" d="M 37.44 28.29 C 34.54 28.29 32.25 27.44 30.62 25.76 C 28.99 24.09 28.17 21.81 28.17 18.98 C 28.17 17.66 28.37 16.41 28.77 15.27 C 29.17 14.12 29.77 13.11 30.54 12.28 C 31.32 11.45 32.29 10.8 33.42 10.36 C 34.54 9.92 35.79 9.7 37.14 9.7 C 38.91 9.7 40.45 10.08 41.73 10.84 C 43.01 11.6 43.99 12.59 44.63 13.8 C 45.27 15 45.59 16.24 45.59 17.49 C 45.59 18.8 45.17 19.68 44.34 20.11 C 43.63 20.48 42.69 20.65 41.47 20.65 L 33.76 20.65 C 33.83 21.28 33.99 21.84 34.24 22.34 C 34.57 22.98 34.99 23.45 35.53 23.77 C 36.07 24.09 36.65 24.25 37.31 24.25 C 37.76 24.25 38.18 24.2 38.54 24.09 C 38.9 23.99 39.26 23.82 39.61 23.6 C 39.98 23.36 40.32 23.1 40.63 22.83 C 40.96 22.54 41.39 22.15 41.91 21.66 C 42.26 21.36 42.71 21.22 43.26 21.22 C 43.85 21.22 44.34 21.39 44.72 21.73 C 45 21.98 45.33 22.43 45.33 23.2 C 45.33 23.7 45.15 24.24 44.79 24.85 C 44.45 25.43 43.94 25.99 43.27 26.5 C 42.61 27.01 41.78 27.44 40.8 27.77 C 39.83 28.12 38.7 28.29 37.44 28.29 L 37.44 28.29 Z M 40.19 17.04 C 40.04 16.05 39.72 15.29 39.24 14.78 C 38.67 14.18 37.93 13.88 36.98 13.88 C 36.08 13.88 35.37 14.18 34.8 14.79 C 34.32 15.31 33.98 16.07 33.81 17.04 L 40.19 17.04 Z " stroke-width="1"/>
    <path id="ID0.6733005531132221" fill="#42210B" d="M 55.3 34.62 C 53.77 34.62 52.38 34.4 51.16 33.97 C 49.92 33.53 48.94 32.94 48.26 32.23 C 47.53 31.47 47.16 30.65 47.16 29.81 C 47.16 29.12 47.4 28.54 47.88 28.1 C 48.35 27.67 48.91 27.45 49.57 27.45 C 50.38 27.45 51.08 27.8 51.67 28.49 C 51.9 28.78 52.14 29.06 52.38 29.34 C 52.59 29.58 52.82 29.8 53.08 29.97 C 53.31 30.13 53.61 30.25 53.95 30.33 C 54.32 30.42 54.76 30.46 55.25 30.46 C 56.25 30.46 57.03 30.33 57.55 30.06 C 58.04 29.81 58.36 29.49 58.55 29.06 C 58.76 28.57 58.89 28.05 58.93 27.49 C 58.95 27.15 58.97 26.7 58.99 26.12 C 58.57 26.51 58.12 26.84 57.64 27.1 C 56.69 27.63 55.56 27.89 54.28 27.89 C 52.74 27.89 51.36 27.49 50.2 26.69 C 49.04 25.9 48.14 24.78 47.53 23.37 C 46.93 21.99 46.62 20.38 46.62 18.58 C 46.62 17.24 46.81 16.01 47.18 14.92 C 47.55 13.82 48.1 12.87 48.8 12.1 C 49.5 11.33 50.32 10.74 51.24 10.35 C 52.15 9.96 53.17 9.76 54.26 9.76 C 55.56 9.76 56.71 10.02 57.68 10.52 C 58.27 10.83 58.83 11.24 59.36 11.76 C 59.47 11.28 59.67 10.87 59.97 10.54 C 60.45 10 61.07 9.73 61.82 9.73 C 63.14 9.73 63.73 10.35 64 10.86 C 64.32 11.49 64.47 12.34 64.47 13.45 L 64.47 25.84 C 64.47 27.31 64.31 28.59 63.99 29.67 C 63.66 30.78 63.12 31.72 62.39 32.46 C 61.65 33.19 60.69 33.75 59.52 34.09 C 58.36 34.44 56.95 34.62 55.3 34.62 L 55.3 34.62 Z M 55.52 14.13 C 54.48 14.13 53.68 14.51 53.06 15.29 C 52.42 16.1 52.09 17.31 52.09 18.87 C 52.09 20.45 52.42 21.63 53.08 22.4 C 53.72 23.15 54.53 23.52 55.55 23.52 C 56.15 23.52 56.71 23.36 57.25 23.04 C 57.78 22.72 58.22 22.22 58.57 21.56 C 58.92 20.88 59.1 20.04 59.1 19.05 C 59.1 17.46 58.76 16.22 58.08 15.36 C 57.42 14.53 56.58 14.13 55.52 14.13 L 55.52 14.13 Z " stroke-width="1"/>
    <path id="ID0.9378686868585646" fill="#42210B" d="M 80.8 28.29 C 80.2 28.29 79.63 28.03 79.09 27.5 C 78.73 27.16 78.37 26.71 77.99 26.15 C 77.1 26.79 76.23 27.29 75.39 27.64 C 74.36 28.07 73.19 28.29 71.92 28.29 C 70.73 28.29 69.67 28.05 68.76 27.57 C 67.84 27.09 67.11 26.42 66.61 25.59 C 66.11 24.76 65.85 23.85 65.85 22.87 C 65.85 21.56 66.28 20.42 67.11 19.48 C 67.93 18.57 69.06 17.95 70.48 17.64 C 70.75 17.58 71.42 17.44 72.5 17.22 C 73.56 17 74.48 16.8 75.24 16.62 C 75.86 16.47 76.53 16.3 77.24 16.1 C 77.16 15.34 76.99 14.78 76.72 14.43 C 76.44 14.07 75.75 13.88 74.71 13.88 C 73.73 13.88 73.01 14.01 72.55 14.26 C 72.09 14.51 71.69 14.9 71.36 15.42 C 70.95 16.05 70.67 16.46 70.49 16.67 C 70.2 17.01 69.71 17.17 68.99 17.17 C 68.36 17.17 67.81 16.96 67.35 16.56 C 66.87 16.14 66.62 15.58 66.62 14.93 C 66.62 14.05 66.93 13.19 67.54 12.38 C 68.13 11.59 69.06 10.93 70.28 10.43 C 71.47 9.94 72.96 9.7 74.71 9.7 C 76.68 9.7 78.2 9.93 79.36 10.41 C 80.57 10.91 81.44 11.72 81.95 12.81 C 82.43 13.84 82.67 15.21 82.67 16.87 C 82.67 17.87 82.67 18.72 82.66 19.42 L 82.64 21.75 C 82.64 22.48 82.77 23.27 83.01 24.08 C 83.39 25.31 83.43 25.72 83.43 25.93 C 83.43 26.55 83.15 27.1 82.61 27.58 C 82.07 28.06 81.46 28.29 80.8 28.29 L 80.8 28.29 Z M 77.26 19.93 C 76.71 20.09 76.05 20.25 75.26 20.42 C 74.08 20.67 73.26 20.86 72.81 20.98 C 72.44 21.08 72.08 21.27 71.73 21.56 C 71.45 21.79 71.32 22.11 71.32 22.56 C 71.32 23.04 71.5 23.43 71.86 23.77 C 72.24 24.12 72.73 24.29 73.37 24.29 C 74.11 24.29 74.81 24.13 75.43 23.8 C 76.03 23.49 76.48 23.08 76.76 22.61 C 76.98 22.24 77.24 21.48 77.26 19.93 L 77.26 19.93 Z " stroke-width="1"/>
    <path id="ID0.5067732259631157" fill="#42210B" d="M 104.81 28.29 C 103.56 28.29 102.41 28.17 101.38 27.93 C 100.33 27.69 99.37 27.3 98.51 26.79 C 97.65 26.27 96.85 25.59 96.14 24.75 C 95.5 23.99 94.95 23.14 94.51 22.21 C 94.06 21.28 93.72 20.28 93.5 19.22 C 93.28 18.18 93.17 17.05 93.17 15.88 C 93.17 13.97 93.45 12.24 94.01 10.72 C 94.57 9.19 95.39 7.86 96.45 6.77 C 97.5 5.68 98.76 4.83 100.17 4.26 C 101.58 3.69 103.1 3.4 104.69 3.4 C 106.63 3.4 108.39 3.8 109.92 4.58 C 111.45 5.36 112.64 6.35 113.46 7.51 C 114.3 8.7 114.73 9.85 114.73 10.94 C 114.73 11.62 114.49 12.23 114.01 12.75 C 113.52 13.28 112.91 13.55 112.21 13.55 C 111.46 13.55 110.87 13.35 110.46 12.96 C 110.11 12.63 109.75 12.1 109.35 11.35 C 108.79 10.31 108.14 9.52 107.41 9.02 C 106.7 8.53 105.79 8.28 104.73 8.28 C 103 8.28 101.67 8.91 100.65 10.22 C 99.61 11.55 99.08 13.5 99.08 16.02 C 99.08 17.71 99.32 19.13 99.78 20.23 C 100.23 21.29 100.87 22.09 101.67 22.61 C 102.48 23.13 103.46 23.39 104.57 23.39 C 105.77 23.39 106.79 23.09 107.6 22.51 C 108.42 21.92 109.05 21.04 109.47 19.88 C 109.68 19.23 109.96 18.68 110.29 18.24 C 110.7 17.71 111.33 17.43 112.17 17.43 C 112.88 17.43 113.5 17.68 114.01 18.18 C 114.53 18.68 114.79 19.31 114.79 20.05 C 114.79 20.86 114.59 21.73 114.2 22.65 C 113.81 23.56 113.21 24.46 112.39 25.33 C 111.56 26.2 110.5 26.92 109.24 27.46 C 107.98 28 106.48 28.29 104.81 28.29 L 104.81 28.29 Z " stroke-width="1"/>
    <path id="ID0.2638297905214131" fill="#42210B" d="M 125.52 28.29 C 124.16 28.29 122.91 28.06 121.81 27.62 C 120.71 27.17 119.73 26.53 118.92 25.69 C 118.11 24.86 117.49 23.86 117.07 22.73 C 116.66 21.61 116.45 20.36 116.45 19.01 C 116.45 17.65 116.66 16.39 117.08 15.26 C 117.5 14.11 118.12 13.12 118.92 12.3 C 119.72 11.48 120.69 10.84 121.82 10.4 C 122.94 9.96 124.18 9.74 125.52 9.74 C 126.88 9.74 128.14 9.96 129.26 10.41 C 130.39 10.86 131.37 11.5 132.17 12.33 C 132.97 13.16 133.6 14.15 134.01 15.29 C 134.42 16.41 134.63 17.67 134.63 19.01 C 134.63 20.35 134.42 21.6 134 22.73 C 133.58 23.88 132.95 24.88 132.15 25.71 C 131.34 26.54 130.37 27.18 129.25 27.62 C 128.14 28.07 126.89 28.29 125.52 28.29 L 125.52 28.29 Z M 125.52 14.1 C 124.8 14.1 124.19 14.28 123.65 14.64 C 123.12 15 122.7 15.56 122.4 16.28 C 122.09 17.05 121.93 17.97 121.93 19.01 C 121.93 20.04 122.09 20.95 122.39 21.71 C 122.69 22.44 123.09 22.98 123.63 23.36 C 124.16 23.73 124.78 23.92 125.51 23.92 C 126.62 23.92 127.47 23.52 128.12 22.69 C 128.8 21.83 129.14 20.59 129.14 19.02 C 129.14 17.43 128.8 16.19 128.12 15.33 C 127.48 14.5 126.62 14.1 125.52 14.1 L 125.52 14.1 Z " stroke-width="1"/>
    <path id="ID0.6428804029710591" fill="#42210B" d="M 139.5 28.29 C 138.7 28.29 138.03 27.99 137.52 27.41 C 137.03 26.85 136.79 26.07 136.79 25.09 L 136.79 12.89 C 136.79 11.9 137.04 11.12 137.53 10.58 C 138.04 10.03 138.7 9.74 139.5 9.74 C 140.29 9.74 140.96 10.02 141.48 10.57 C 141.99 11.11 142.25 11.85 142.25 12.76 L 142.25 25.09 C 142.25 26.1 141.99 26.89 141.48 27.44 C 140.96 28 140.3 28.29 139.5 28.29 L 139.5 28.29 Z M 139.55 8.96 C 138.81 8.96 138.17 8.73 137.63 8.27 C 137.07 7.79 136.79 7.11 136.79 6.27 C 136.79 5.49 137.07 4.84 137.64 4.33 C 138.18 3.84 138.83 3.59 139.55 3.59 C 140.24 3.59 140.86 3.82 141.4 4.26 C 141.97 4.73 142.26 5.41 142.26 6.27 C 142.26 7.1 141.98 7.77 141.43 8.26 C 140.9 8.72 140.27 8.96 139.55 8.96 L 139.55 8.96 Z " stroke-width="1"/>
    <path id="ID0.3450072198174894" fill="#42210B" d="M 159.03 28.29 C 158.22 28.29 157.55 28 157.03 27.42 C 156.54 26.86 156.29 26.08 156.29 25.1 L 156.29 17.99 C 156.29 16.69 156.12 15.7 155.77 15.04 C 155.67 14.84 155.35 14.24 153.97 14.24 C 153.33 14.24 152.77 14.43 152.24 14.81 C 151.71 15.2 151.33 15.72 151.08 16.4 C 150.96 16.77 150.8 17.68 150.8 19.76 L 150.8 25.1 C 150.8 26.12 150.54 26.91 150.04 27.45 C 149.52 28.01 148.85 28.29 148.04 28.29 C 147.25 28.29 146.59 28 146.08 27.42 C 145.59 26.86 145.34 26.08 145.34 25.1 L 145.34 12.77 C 145.34 11.81 145.57 11.06 146.02 10.55 C 146.49 10.02 147.13 9.75 147.92 9.75 C 148.4 9.75 148.84 9.87 149.24 10.1 C 149.64 10.33 149.96 10.68 150.2 11.14 C 150.3 11.33 150.37 11.54 150.43 11.76 C 150.96 11.24 151.53 10.82 152.12 10.51 C 153.09 10 154.22 9.75 155.47 9.75 C 156.69 9.75 157.8 10.02 158.78 10.56 C 159.77 11.11 160.52 11.9 161.01 12.9 C 161.31 13.46 161.52 14.09 161.61 14.77 C 161.7 15.4 161.74 16.21 161.74 17.17 L 161.74 25.11 C 161.74 26.11 161.49 26.9 161 27.45 C 160.5 28 159.83 28.29 159.03 28.29 L 159.03 28.29 Z " stroke-width="1"/>
    <path id="ID0.303427976090461" fill="#42210B" d="M 171.64 28.29 C 170.03 28.29 168.63 28.04 167.47 27.54 C 166.28 27.03 165.38 26.37 164.8 25.59 C 164.2 24.79 163.9 23.95 163.9 23.12 C 163.9 22.49 164.13 21.94 164.58 21.49 C 165.03 21.04 165.6 20.81 166.27 20.81 C 166.87 20.81 167.35 20.97 167.71 21.29 C 168 21.55 168.27 21.92 168.52 22.37 C 168.9 23.03 169.36 23.53 169.88 23.85 C 170.39 24.16 171.12 24.32 172.06 24.32 C 172.79 24.32 173.38 24.16 173.82 23.86 C 174.38 23.47 174.38 23.15 174.38 23.05 C 174.38 22.34 174.06 22.07 173.82 21.92 C 173.31 21.61 172.42 21.3 171.19 21.01 C 169.69 20.64 168.45 20.24 167.5 19.83 C 166.5 19.39 165.68 18.8 165.07 18.08 C 164.43 17.32 164.1 16.37 164.1 15.27 C 164.1 14.3 164.39 13.37 164.97 12.51 C 165.54 11.66 166.38 10.98 167.48 10.48 C 168.55 9.99 169.84 9.75 171.33 9.75 C 172.48 9.75 173.53 9.87 174.46 10.11 C 175.4 10.35 176.2 10.69 176.84 11.11 C 177.5 11.54 178.01 12.03 178.36 12.56 C 178.73 13.13 178.92 13.7 178.92 14.26 C 178.92 14.92 178.69 15.47 178.24 15.9 C 177.8 16.32 177.19 16.53 176.43 16.53 C 175.85 16.53 175.35 16.36 174.93 16.02 C 174.59 15.74 174.21 15.34 173.78 14.8 C 173.5 14.44 173.18 14.16 172.81 13.95 C 172.47 13.75 171.97 13.65 171.33 13.65 C 170.68 13.65 170.14 13.78 169.73 14.05 C 169.29 14.33 169.24 14.6 169.24 14.77 C 169.24 15.03 169.34 15.22 169.57 15.4 C 169.88 15.64 170.33 15.85 170.89 16.01 C 171.52 16.2 172.38 16.42 173.49 16.69 C 174.86 17.02 175.99 17.43 176.87 17.9 C 177.79 18.39 178.5 18.98 178.98 19.67 C 179.48 20.38 179.74 21.2 179.74 22.1 C 179.74 23.39 179.42 24.52 178.78 25.46 C 178.14 26.4 177.19 27.11 175.96 27.59 C 174.76 28.06 173.31 28.29 171.64 28.29 L 171.64 28.29 Z " stroke-width="1"/>
    <path id="ID0.9418837805278599" fill="#FBB03B" stroke="#42210B" stroke-width="0.8" d="M 21.94 26.29 C 21.15 26.29 20.49 26 19.98 25.44 C 19.48 24.89 19.23 24.09 19.23 23.07 L 19.23 12.09 L 16.74 21.99 C 16.49 22.96 16.3 23.66 16.14 24.12 C 15.96 24.66 15.62 25.15 15.14 25.58 C 14.62 26.04 13.92 26.28 13.05 26.28 C 12.4 26.28 11.83 26.13 11.36 25.84 C 10.9 25.55 10.54 25.18 10.28 24.73 C 10.05 24.32 9.86 23.87 9.73 23.38 C 9.6 22.94 9.48 22.48 9.36 22 L 6.87 12.1 L 6.87 23.07 C 6.87 24.09 6.62 24.89 6.13 25.44 C 5.62 26.01 4.95 26.3 4.13 26.3 C 3.33 26.3 2.67 26.02 2.16 25.46 C 1.65 24.9 1.4 24.1 1.4 23.06 L 1.4 4.94 C 1.4 3.73 1.75 2.88 2.45 2.42 C 3.07 2 3.89 1.79 4.89 1.79 L 6.33 1.79 C 7.28 1.79 7.97 1.88 8.44 2.07 C 8.98 2.28 9.38 2.67 9.63 3.22 C 9.83 3.66 10.05 4.34 10.3 5.3 L 13.05 15.66 L 15.79 5.3 C 16.04 4.34 16.26 3.66 16.47 3.22 C 16.72 2.67 17.12 2.28 17.66 2.07 C 18.13 1.88 18.82 1.79 19.77 1.79 L 21.21 1.79 C 22.21 1.79 23.03 2 23.65 2.42 C 24.34 2.89 24.7 3.73 24.7 4.94 L 24.7 23.07 C 24.7 24.09 24.45 24.89 23.96 25.44 C 23.45 26 22.77 26.29 21.94 26.29 L 21.94 26.29 Z "/>
    <path id="ID0.9769347095862031" fill="#FBB03B" stroke="#42210B" stroke-width="0.8" d="M 36.44 26.29 C 33.54 26.29 31.25 25.44 29.62 23.76 C 27.99 22.09 27.17 19.81 27.17 16.98 C 27.17 15.66 27.37 14.41 27.77 13.27 C 28.17 12.12 28.77 11.11 29.54 10.28 C 30.32 9.45 31.29 8.8 32.42 8.36 C 33.54 7.92 34.79 7.7 36.14 7.7 C 37.91 7.7 39.45 8.08 40.73 8.84 C 42.01 9.6 42.99 10.59 43.63 11.8 C 44.27 13 44.59 14.24 44.59 15.49 C 44.59 16.8 44.17 17.68 43.34 18.11 C 42.63 18.48 41.69 18.65 40.47 18.65 L 32.76 18.65 C 32.83 19.28 32.99 19.84 33.24 20.34 C 33.57 20.98 33.99 21.45 34.53 21.77 C 35.07 22.09 35.65 22.25 36.31 22.25 C 36.76 22.25 37.18 22.2 37.54 22.09 C 37.9 21.99 38.26 21.82 38.61 21.6 C 38.98 21.36 39.32 21.1 39.63 20.83 C 39.96 20.54 40.39 20.15 40.91 19.66 C 41.26 19.36 41.71 19.22 42.26 19.22 C 42.85 19.22 43.34 19.39 43.72 19.73 C 44 19.98 44.33 20.43 44.33 21.2 C 44.33 21.7 44.15 22.24 43.79 22.85 C 43.45 23.43 42.94 23.99 42.27 24.5 C 41.61 25.01 40.78 25.44 39.8 25.77 C 38.83 26.12 37.7 26.29 36.44 26.29 L 36.44 26.29 Z M 39.19 15.04 C 39.04 14.05 38.72 13.29 38.24 12.78 C 37.67 12.18 36.93 11.88 35.98 11.88 C 35.08 11.88 34.37 12.18 33.8 12.79 C 33.32 13.31 32.98 14.07 32.81 15.04 L 39.19 15.04 Z "/>
    <path id="ID0.3339881575666368" fill="#FBB03B" stroke="#42210B" stroke-width="0.8" d="M 54.3 32.62 C 52.77 32.62 51.38 32.4 50.16 31.97 C 48.92 31.53 47.94 30.94 47.26 30.23 C 46.53 29.47 46.16 28.65 46.16 27.81 C 46.16 27.12 46.4 26.54 46.88 26.1 C 47.35 25.67 47.91 25.45 48.57 25.45 C 49.38 25.45 50.08 25.8 50.67 26.49 C 50.9 26.78 51.14 27.06 51.38 27.34 C 51.59 27.58 51.82 27.8 52.08 27.97 C 52.31 28.13 52.61 28.25 52.95 28.33 C 53.32 28.42 53.76 28.46 54.25 28.46 C 55.25 28.46 56.03 28.33 56.55 28.06 C 57.04 27.81 57.36 27.49 57.55 27.06 C 57.76 26.57 57.89 26.05 57.93 25.49 C 57.95 25.15 57.97 24.7 57.99 24.12 C 57.57 24.51 57.12 24.84 56.64 25.1 C 55.69 25.63 54.56 25.89 53.28 25.89 C 51.74 25.89 50.36 25.49 49.2 24.69 C 48.04 23.9 47.14 22.78 46.53 21.37 C 45.93 19.99 45.62 18.38 45.62 16.58 C 45.62 15.24 45.81 14.01 46.18 12.92 C 46.55 11.82 47.1 10.87 47.8 10.1 C 48.5 9.33 49.32 8.74 50.24 8.35 C 51.15 7.96 52.17 7.76 53.26 7.76 C 54.56 7.76 55.71 8.02 56.68 8.52 C 57.27 8.83 57.83 9.24 58.36 9.76 C 58.47 9.28 58.67 8.87 58.97 8.54 C 59.45 8 60.07 7.73 60.82 7.73 C 62.14 7.73 62.73 8.35 63 8.86 C 63.32 9.49 63.47 10.34 63.47 11.45 L 63.47 23.84 C 63.47 25.31 63.31 26.59 62.99 27.67 C 62.66 28.78 62.12 29.72 61.39 30.46 C 60.65 31.19 59.69 31.75 58.52 32.09 C 57.36 32.44 55.95 32.62 54.3 32.62 L 54.3 32.62 Z M 54.52 12.13 C 53.48 12.13 52.68 12.51 52.06 13.29 C 51.42 14.1 51.09 15.31 51.09 16.87 C 51.09 18.45 51.42 19.63 52.08 20.4 C 52.72 21.15 53.53 21.52 54.55 21.52 C 55.15 21.52 55.71 21.36 56.25 21.04 C 56.78 20.72 57.22 20.22 57.57 19.56 C 57.92 18.88 58.1 18.04 58.1 17.05 C 58.1 15.46 57.76 14.22 57.08 13.36 C 56.42 12.53 55.58 12.13 54.52 12.13 L 54.52 12.13 Z "/>
    <path id="ID0.8688193755224347" fill="#FBB03B" stroke="#42210B" stroke-width="0.8" d="M 79.8 26.29 C 79.2 26.29 78.63 26.03 78.09 25.5 C 77.73 25.16 77.37 24.71 76.99 24.15 C 76.1 24.79 75.23 25.29 74.39 25.64 C 73.36 26.07 72.19 26.29 70.92 26.29 C 69.73 26.29 68.67 26.05 67.76 25.57 C 66.84 25.09 66.11 24.42 65.61 23.59 C 65.11 22.76 64.85 21.85 64.85 20.87 C 64.85 19.56 65.28 18.42 66.11 17.48 C 66.93 16.57 68.06 15.95 69.48 15.64 C 69.75 15.58 70.42 15.44 71.5 15.22 C 72.56 15 73.48 14.8 74.24 14.62 C 74.86 14.47 75.53 14.3 76.24 14.1 C 76.16 13.34 75.99 12.78 75.72 12.43 C 75.44 12.07 74.75 11.88 73.71 11.88 C 72.73 11.88 72.01 12.01 71.55 12.26 C 71.09 12.51 70.69 12.9 70.36 13.42 C 69.95 14.05 69.67 14.46 69.49 14.67 C 69.2 15.01 68.71 15.17 67.99 15.17 C 67.36 15.17 66.81 14.96 66.35 14.56 C 65.87 14.14 65.62 13.58 65.62 12.93 C 65.62 12.05 65.93 11.19 66.54 10.38 C 67.13 9.59 68.06 8.93 69.28 8.43 C 70.47 7.94 71.96 7.7 73.71 7.7 C 75.68 7.7 77.2 7.93 78.36 8.41 C 79.57 8.91 80.44 9.72 80.95 10.81 C 81.43 11.84 81.67 13.21 81.67 14.87 C 81.67 15.87 81.67 16.72 81.66 17.42 L 81.64 19.75 C 81.64 20.48 81.77 21.27 82.01 22.08 C 82.39 23.31 82.43 23.72 82.43 23.93 C 82.43 24.55 82.15 25.1 81.61 25.58 C 81.07 26.06 80.46 26.29 79.8 26.29 L 79.8 26.29 Z M 76.26 17.93 C 75.71 18.09 75.05 18.25 74.26 18.42 C 73.08 18.67 72.26 18.86 71.81 18.98 C 71.44 19.08 71.08 19.27 70.73 19.56 C 70.45 19.79 70.32 20.11 70.32 20.56 C 70.32 21.04 70.5 21.43 70.86 21.77 C 71.24 22.12 71.73 22.29 72.37 22.29 C 73.11 22.29 73.81 22.13 74.43 21.8 C 75.03 21.49 75.48 21.08 75.76 20.61 C 75.98 20.24 76.24 19.48 76.26 17.93 L 76.26 17.93 Z "/>
    <path id="ID0.41139339143410325" fill="#FBB03B" stroke="#42210B" stroke-width="0.8" d="M 103.81 26.29 C 102.56 26.29 101.41 26.17 100.38 25.93 C 99.33 25.69 98.37 25.3 97.51 24.79 C 96.65 24.27 95.85 23.59 95.14 22.75 C 94.5 21.99 93.95 21.14 93.51 20.21 C 93.06 19.28 92.72 18.28 92.5 17.22 C 92.28 16.18 92.17 15.05 92.17 13.88 C 92.17 11.97 92.45 10.24 93.01 8.72 C 93.57 7.19 94.39 5.86 95.45 4.77 C 96.5 3.68 97.76 2.83 99.17 2.26 C 100.58 1.69 102.1 1.4 103.69 1.4 C 105.63 1.4 107.39 1.8 108.92 2.58 C 110.45 3.36 111.64 4.35 112.46 5.51 C 113.3 6.7 113.73 7.85 113.73 8.94 C 113.73 9.62 113.49 10.23 113.01 10.75 C 112.52 11.28 111.91 11.55 111.21 11.55 C 110.46 11.55 109.87 11.35 109.46 10.96 C 109.11 10.63 108.75 10.1 108.35 9.35 C 107.79 8.31 107.14 7.52 106.41 7.02 C 105.7 6.53 104.79 6.28 103.73 6.28 C 102 6.28 100.67 6.91 99.65 8.22 C 98.61 9.55 98.08 11.5 98.08 14.02 C 98.08 15.71 98.32 17.13 98.78 18.23 C 99.23 19.29 99.87 20.09 100.67 20.61 C 101.48 21.13 102.46 21.39 103.57 21.39 C 104.77 21.39 105.79 21.09 106.6 20.51 C 107.42 19.92 108.05 19.04 108.47 17.88 C 108.68 17.23 108.96 16.68 109.29 16.24 C 109.7 15.71 110.33 15.43 111.17 15.43 C 111.88 15.43 112.5 15.68 113.01 16.18 C 113.53 16.68 113.79 17.31 113.79 18.05 C 113.79 18.86 113.59 19.73 113.2 20.65 C 112.81 21.56 112.21 22.46 111.39 23.33 C 110.56 24.2 109.5 24.92 108.24 25.46 C 106.98 26 105.48 26.29 103.81 26.29 L 103.81 26.29 Z "/>
    <path id="ID0.00385609595105052" fill="#FBB03B" stroke="#42210B" stroke-width="0.8" d="M 124.52 26.29 C 123.16 26.29 121.91 26.06 120.81 25.62 C 119.71 25.17 118.73 24.53 117.92 23.69 C 117.11 22.86 116.49 21.86 116.07 20.73 C 115.66 19.61 115.45 18.36 115.45 17.01 C 115.45 15.65 115.66 14.39 116.08 13.26 C 116.5 12.11 117.12 11.12 117.92 10.3 C 118.72 9.48 119.69 8.84 120.82 8.4 C 121.94 7.96 123.18 7.74 124.52 7.74 C 125.88 7.74 127.14 7.96 128.26 8.41 C 129.39 8.86 130.37 9.5 131.17 10.33 C 131.97 11.16 132.6 12.15 133.01 13.29 C 133.42 14.41 133.63 15.67 133.63 17.01 C 133.63 18.35 133.42 19.6 133 20.73 C 132.58 21.88 131.95 22.88 131.15 23.71 C 130.34 24.54 129.37 25.18 128.25 25.62 C 127.14 26.07 125.89 26.29 124.52 26.29 L 124.52 26.29 Z M 124.52 12.1 C 123.8 12.1 123.19 12.28 122.65 12.64 C 122.12 13 121.7 13.56 121.4 14.28 C 121.09 15.05 120.93 15.97 120.93 17.01 C 120.93 18.04 121.09 18.95 121.39 19.71 C 121.69 20.44 122.09 20.98 122.63 21.36 C 123.16 21.73 123.78 21.92 124.51 21.92 C 125.62 21.92 126.47 21.52 127.12 20.69 C 127.8 19.83 128.14 18.59 128.14 17.02 C 128.14 15.43 127.8 14.19 127.12 13.33 C 126.48 12.5 125.62 12.1 124.52 12.1 L 124.52 12.1 Z "/>
    <path id="ID0.7798372963443398" fill="#FBB03B" stroke="#42210B" stroke-width="0.8" d="M 138.5 26.29 C 137.7 26.29 137.03 25.99 136.52 25.41 C 136.03 24.85 135.79 24.07 135.79 23.09 L 135.79 10.89 C 135.79 9.9 136.04 9.12 136.53 8.58 C 137.04 8.03 137.7 7.74 138.5 7.74 C 139.29 7.74 139.96 8.02 140.48 8.57 C 140.99 9.11 141.25 9.85 141.25 10.76 L 141.25 23.09 C 141.25 24.1 140.99 24.89 140.48 25.44 C 139.96 26 139.3 26.29 138.5 26.29 L 138.5 26.29 Z M 138.55 6.96 C 137.81 6.96 137.17 6.73 136.63 6.27 C 136.07 5.79 135.79 5.11 135.79 4.27 C 135.79 3.49 136.07 2.84 136.64 2.33 C 137.18 1.84 137.83 1.59 138.55 1.59 C 139.24 1.59 139.86 1.82 140.4 2.26 C 140.97 2.73 141.26 3.41 141.26 4.27 C 141.26 5.1 140.98 5.77 140.43 6.26 C 139.9 6.72 139.27 6.96 138.55 6.96 L 138.55 6.96 Z "/>
    <path id="ID0.7685037264600396" fill="#FBB03B" stroke="#42210B" stroke-width="0.8" d="M 158.03 26.29 C 157.22 26.29 156.55 26 156.03 25.42 C 155.54 24.86 155.29 24.08 155.29 23.1 L 155.29 15.99 C 155.29 14.69 155.12 13.7 154.77 13.04 C 154.67 12.84 154.35 12.24 152.97 12.24 C 152.33 12.24 151.77 12.43 151.24 12.81 C 150.71 13.2 150.33 13.72 150.08 14.4 C 149.96 14.77 149.8 15.68 149.8 17.76 L 149.8 23.1 C 149.8 24.12 149.54 24.91 149.04 25.45 C 148.52 26.01 147.85 26.29 147.04 26.29 C 146.25 26.29 145.59 26 145.08 25.42 C 144.59 24.86 144.34 24.08 144.34 23.1 L 144.34 10.77 C 144.34 9.81 144.57 9.06 145.02 8.55 C 145.49 8.02 146.13 7.75 146.92 7.75 C 147.4 7.75 147.84 7.87 148.24 8.1 C 148.64 8.33 148.96 8.68 149.2 9.14 C 149.3 9.33 149.37 9.54 149.43 9.76 C 149.96 9.24 150.53 8.82 151.12 8.51 C 152.09 8 153.22 7.75 154.47 7.75 C 155.69 7.75 156.8 8.02 157.78 8.56 C 158.77 9.11 159.52 9.9 160.01 10.9 C 160.31 11.46 160.52 12.09 160.61 12.77 C 160.7 13.4 160.74 14.21 160.74 15.17 L 160.74 23.11 C 160.74 24.11 160.49 24.9 160 25.45 C 159.5 26 158.83 26.29 158.03 26.29 L 158.03 26.29 Z "/>
    <path id="ID0.30954888043925166" fill="#FBB03B" stroke="#42210B" stroke-width="0.8" d="M 170.64 26.29 C 169.03 26.29 167.63 26.04 166.47 25.54 C 165.28 25.03 164.38 24.37 163.8 23.59 C 163.2 22.79 162.9 21.95 162.9 21.12 C 162.9 20.49 163.13 19.94 163.58 19.49 C 164.03 19.04 164.6 18.81 165.27 18.81 C 165.87 18.81 166.35 18.97 166.71 19.29 C 167 19.55 167.27 19.92 167.52 20.37 C 167.9 21.03 168.36 21.53 168.88 21.85 C 169.39 22.16 170.12 22.32 171.06 22.32 C 171.79 22.32 172.38 22.16 172.82 21.86 C 173.38 21.47 173.38 21.15 173.38 21.05 C 173.38 20.34 173.06 20.07 172.82 19.92 C 172.31 19.61 171.42 19.3 170.19 19.01 C 168.69 18.64 167.45 18.24 166.5 17.83 C 165.5 17.39 164.68 16.8 164.07 16.08 C 163.43 15.32 163.1 14.37 163.1 13.27 C 163.1 12.3 163.39 11.37 163.97 10.51 C 164.54 9.66 165.38 8.98 166.48 8.48 C 167.55 7.99 168.84 7.75 170.33 7.75 C 171.48 7.75 172.53 7.87 173.46 8.11 C 174.4 8.35 175.2 8.69 175.84 9.11 C 176.5 9.54 177.01 10.03 177.36 10.56 C 177.73 11.13 177.92 11.7 177.92 12.26 C 177.92 12.92 177.69 13.47 177.24 13.9 C 176.8 14.32 176.19 14.53 175.43 14.53 C 174.85 14.53 174.35 14.36 173.93 14.02 C 173.59 13.74 173.21 13.34 172.78 12.8 C 172.5 12.44 172.18 12.16 171.81 11.95 C 171.47 11.75 170.97 11.65 170.33 11.65 C 169.68 11.65 169.14 11.78 168.73 12.05 C 168.29 12.33 168.24 12.6 168.24 12.77 C 168.24 13.03 168.34 13.22 168.57 13.4 C 168.88 13.64 169.33 13.85 169.89 14.01 C 170.52 14.2 171.38 14.42 172.49 14.69 C 173.86 15.02 174.99 15.43 175.87 15.9 C 176.79 16.39 177.5 16.98 177.98 17.67 C 178.48 18.38 178.74 19.2 178.74 20.1 C 178.74 21.39 178.42 22.52 177.78 23.46 C 177.14 24.4 176.19 25.11 174.96 25.59 C 173.76 26.06 172.31 26.29 170.64 26.29 L 170.64 26.29 Z "/>
  </g>
</svg>