<svg xmlns="http://www.w3.org/2000/svg" xmlns:xlink="http://www.w3.org/1999/xlink" xmlns:a="http://ns.adobe.com/AdobeSVGViewerExtensions/3.0/" version="1.1" x="0px" y="0px" width="43.28200149536133" height="61.599998474121094" viewBox="0 0 43.28200149536133 61.599998474121094" enable-background="new -10.234 -1.251 64 64" xml:space="preserve">
  <defs/>
  <g>
    <path fill="#594419" d="M23.209,60.6c-3.797,0-7.251-1.092-10.265-3.244c-2.992-2.136-5.271-5.116-6.772-8.859&#13;&#10;&#9;c-0.76-2.033-1.313-4.261-1.658-6.656C4.173,39.484,4,36.898,4,34.156c0-3.506,0.189-6.714,0.563-9.533&#13;&#10;&#9;c0.379-2.877,0.987-5.4,1.809-7.5c1.475-3.598,3.648-6.369,6.473-8.266C15.671,6.961,19.065,6,22.935,6&#13;&#10;&#9;c2.545,0,4.899,0.425,6.999,1.261c2.117,0.846,4.001,2.097,5.599,3.721c1.572,1.597,2.916,3.586,3.995,5.914&#13;&#10;&#9;c1.827,3.968,2.754,9.578,2.754,16.678c0,3.818-0.239,7.159-0.709,9.933c-0.487,2.868-1.402,5.51-2.719,7.852&#13;&#10;&#9;c-1.695,2.939-3.916,5.23-6.608,6.825C29.54,59.786,26.499,60.6,23.209,60.6L23.209,60.6z M23.071,16.132&#13;&#10;&#9;c-2.347,0-3.876,1.127-4.813,3.546c-1.101,2.843-1.658,7.379-1.658,13.484c0,4.185,0.244,7.641,0.729,10.272&#13;&#10;&#9;c0.448,2.455,1.186,4.301,2.188,5.486c0.879,1.042,2.064,1.547,3.622,1.547c1.614,0,2.828-0.525,3.708-1.608&#13;&#10;&#9;c1.01-1.243,1.74-3.111,2.17-5.55c0.463-2.617,0.696-6.124,0.696-10.422c0-4.067-0.245-7.422-0.727-9.974&#13;&#10;&#9;c-0.447-2.368-1.178-4.146-2.173-5.286C25.935,16.621,24.709,16.132,23.071,16.132L23.071,16.132z" stroke-width="1"/>
    <linearGradient id="SVGID_1_" gradientUnits="userSpaceOnUse" x1="20.1406" y1="1" x2="20.1406" y2="55.5996">
      <stop offset="0" style="stop-color:#FFFFFF"/>
      <stop offset="1" style="stop-color:#FFD38F"/>
    </linearGradient>
    <path fill="url(#SVGID_1_)" stroke="#594419" stroke-width="2" d="M20.209,55.6c-3.797,0-7.251-1.092-10.265-3.244&#13;&#10;&#9;c-2.992-2.136-5.271-5.116-6.772-8.859c-0.76-2.033-1.313-4.261-1.658-6.656C1.173,34.484,1,31.898,1,29.156&#13;&#10;&#9;c0-3.506,0.189-6.714,0.563-9.533c0.379-2.877,0.987-5.4,1.809-7.5c1.475-3.598,3.648-6.369,6.473-8.266&#13;&#10;&#9;C12.671,1.961,16.065,1,19.935,1c2.545,0,4.899,0.425,6.999,1.261c2.117,0.846,4.001,2.097,5.599,3.721&#13;&#10;&#9;c1.572,1.597,2.916,3.586,3.995,5.914c1.827,3.968,2.754,9.578,2.754,16.678c0,3.818-0.239,7.159-0.709,9.933&#13;&#10;&#9;c-0.487,2.868-1.402,5.51-2.719,7.852c-1.695,2.939-3.916,5.23-6.608,6.825C26.54,54.786,23.499,55.6,20.209,55.6L20.209,55.6z&#13;&#10;&#9; M20.071,11.132c-2.347,0-3.876,1.127-4.813,3.546c-1.101,2.843-1.658,7.379-1.658,13.484c0,4.185,0.244,7.641,0.729,10.272&#13;&#10;&#9;c0.448,2.455,1.186,4.301,2.188,5.486c0.879,1.042,2.064,1.547,3.622,1.547c1.614,0,2.828-0.525,3.708-1.608&#13;&#10;&#9;c1.01-1.243,1.74-3.111,2.17-5.55c0.463-2.617,0.696-6.124,0.696-10.422c0-4.067-0.245-7.422-0.727-9.974&#13;&#10;&#9;c-0.447-2.368-1.178-4.146-2.173-5.286C22.935,11.621,21.709,11.132,20.071,11.132L20.071,11.132z"/>
  </g>
</svg>