<svg version="1.1" xmlns="http://www.w3.org/2000/svg" xmlns:xlink="http://www.w3.org/1999/xlink" width="78" height="78.75"><g transform="translate(-200,-140.125)"><g data-paper-data="{&quot;isPaintingLayer&quot;:true}" fill="none" fill-rule="nonzero" stroke="none" stroke-width="none" stroke-linecap="butt" stroke-linejoin="miter" stroke-miterlimit="10" stroke-dasharray="" stroke-dashoffset="0" font-family="none" font-weight="none" font-size="none" text-anchor="none" style="mix-blend-mode: normal"><g><path d="M263.51,183.615l0.19,11.59c0,4.41 -3.48,8.09 -7.81,8.09l-8.29,0.47h-25.31c-4.32,0 -6.79,-3.82 -6.79,-8.22l-0.29,-8.82l0.29,-23.09c0.29,-4.32 3.73,-8.19 8.07,-8.19l16.91,0.41l15.19,-0.54c4.32,0 8.03,3.79 8.03,8.2z" id="ID0.14449769724160433_22_" fill="#adadad" stroke="#000000" stroke-width="2"/><path d="M259.68,182.185l0.17,10.18c0,3.87 -3.06,7.11 -6.87,7.11l-7.29,0.42h-22.25c-3.79,0 -5.97,-3.35 -5.97,-7.23l-0.26,-7.75l0.26,-20.29c0.25,-3.8 3.28,-7.2 7.1,-7.2l14.87,0.36l13.36,-0.48c3.79,0 7.06,3.33 7.06,7.21z" id="ID0.14449769724160433_21_" fill="#dedede" stroke="none" stroke-width="1"/><path d="M253.11,178.845l-21.28,11.91h-3.85c-3.36,0 -6.11,-2.2 -6.11,-4.93l-0.23,-5.28l0.23,-14.26c0,-2.72 2.73,-4.93 6.11,-4.93l14.26,0.47l4.76,-0.47c3.36,0 6.11,2.2 6.11,4.93z" id="ID0.14449769724160433_20_" fill="#f0f0f0" stroke="none" stroke-width="1"/><path d="M200,140.125h78v78.75h-78z" id="ID0.033297700341790915_8_" fill="none" stroke="none" stroke-width="1"/><path d="M227.01,164.355c0.93,0 1.772,0.378 2.382,0.988c0.61,0.61 0.988,1.452 0.988,2.382c0,0.93 -0.378,1.772 -0.988,2.382c-0.61,0.61 -1.452,0.988 -2.382,0.988c-0.93,0 -1.772,-0.378 -2.382,-0.988c-0.61,-0.61 -0.988,-1.452 -0.988,-2.382c0,-0.93 0.378,-1.772 0.988,-2.382c0.61,-0.61 1.452,-0.988 2.382,-0.988z" id="ID0.5012160879559815" fill="#dedede" stroke="none" stroke-width="1"/><path d="M249.75,164.355c0.93,0 1.772,0.378 2.382,0.988c0.61,0.61 0.988,1.452 0.988,2.382c0,0.93 -0.378,1.772 -0.988,2.382c-0.61,0.61 -1.452,0.988 -2.382,0.988c-0.93,0 -1.772,-0.378 -2.382,-0.988c-0.61,-0.61 -0.988,-1.452 -0.988,-2.382c0,-0.93 0.378,-1.772 0.988,-2.382c0.61,-0.61 1.452,-0.988 2.382,-0.988z" id="ID0.14869580883532763" fill="#dedede" stroke="none" stroke-width="1"/><path d="M227.01,187.425c0.93,0 1.772,0.378 2.382,0.988c0.61,0.61 0.988,1.452 0.988,2.382c0,0.93 -0.378,1.772 -0.988,2.382c-0.61,0.61 -1.452,0.988 -2.382,0.988c-0.93,0 -1.772,-0.378 -2.382,-0.988c-0.61,-0.61 -0.988,-1.452 -0.988,-2.382c0,-0.93 0.378,-1.772 0.988,-2.382c0.61,-0.61 1.452,-0.988 2.382,-0.988z" id="ID0.7674991837702692" fill="#d4d4d4" stroke="none" stroke-width="1"/><path d="M249.75,187.425c0.93,0 1.772,0.378 2.382,0.988c0.61,0.61 0.988,1.452 0.988,2.382c0,0.93 -0.378,1.772 -0.988,2.382c-0.61,0.61 -1.452,0.988 -2.382,0.988c-0.93,0 -1.772,-0.378 -2.382,-0.988c-0.61,-0.61 -0.988,-1.452 -0.988,-2.382c0,-0.93 0.378,-1.772 0.988,-2.382c0.61,-0.61 1.452,-0.988 2.382,-0.988z" id="ID0.08038173196837306" fill="#d4d4d4" stroke="none" stroke-width="1"/></g></g></g></svg>