<svg version="1.1" xmlns="http://www.w3.org/2000/svg" xmlns:xlink="http://www.w3.org/1999/xlink" width="189.9262" height="183.7136" viewBox="0,0,189.9262,183.7136"><g transform="translate(-145.0369,-88.1432)"><g data-paper-data="{&quot;isPaintingLayer&quot;:true}" fill="#ffffff" fill-rule="nonzero" stroke-linecap="butt" stroke-linejoin="miter" stroke-miterlimit="10" stroke-dasharray="" stroke-dashoffset="0" style="mix-blend-mode: normal"><path d="M329.23659,179.01016c0,26.91179 6.79637,65.39723 -12.75957,81.55189c-15.78927,13.04312 -55.44287,6.51882 -77.78039,6.51882c-27.32888,0 -65.54791,11.5248 -82.1488,-7.09751c-13.77389,-15.45106 -8.39116,-58.91664 -8.39116,-80.9732c0,-21.64791 -7.06065,-61.34747 6.25927,-76.68268c16.60826,-19.12106 56.5317,-11.38803 84.28069,-11.38803c28.49116,0 72.42817,-6.3894 89.02499,13.62254c12.53168,15.11032 1.51497,53.5222 1.51497,74.44817z" stroke="#000000" stroke-width="2.5"/><path d="M188.1901,100.20545l6.045,-5.40554c0.66416,-0.07135 1.33797,-0.12685 2.02338,-0.1637c5.33395,-0.28675 10.44712,-0.32136 15.73666,-0.69994c16.25895,-1.16365 31.37158,-4.78382 47.81352,-2.72691c6.0387,0 10.93451,1.55987 16.82129,2.0153c5.86894,0.45406 8.64847,-0.10746 14.46399,-0.7109l4.60111,-0.99693l-50.17295,44.86548z" stroke="#000000" stroke-width="2.5"/><path d="" stroke="none" stroke-width="0"/></g></g></svg>