<svg version="1.1" xmlns="http://www.w3.org/2000/svg" xmlns:xlink="http://www.w3.org/1999/xlink" width="382.97942" height="427.27342" viewBox="0,0,382.97942,427.27342"><defs><radialGradient cx="59.80314" cy="-71.51219" r="0.00125" gradientUnits="userSpaceOnUse" id="color-1"><stop offset="0" stop-color="#ffffff"/><stop offset="1" stop-color="#ffffff" stop-opacity="0"/></radialGradient><radialGradient cx="52.87221" cy="-65.4346" r="0.00125" gradientUnits="userSpaceOnUse" id="color-2"><stop offset="0" stop-color="#ffffff"/><stop offset="1" stop-color="#ffffff" stop-opacity="0"/></radialGradient><radialGradient cx="59.80314" cy="-71.51219" r="0.00125" gradientUnits="userSpaceOnUse" id="color-3"><stop offset="0" stop-color="#ffffff"/><stop offset="1" stop-color="#ffffff" stop-opacity="0"/></radialGradient><radialGradient cx="52.87221" cy="-65.4346" r="0.00125" gradientUnits="userSpaceOnUse" id="color-4"><stop offset="0" stop-color="#ffffff"/><stop offset="1" stop-color="#ffffff" stop-opacity="0"/></radialGradient><linearGradient x1="282.22256" y1="58.56952" x2="185.57333" y2="328.52001" gradientUnits="userSpaceOnUse" id="color-5"><stop offset="0" stop-color="#000000"/><stop offset="1" stop-color="#000000" stop-opacity="0"/></linearGradient><linearGradient x1="289.06823" y1="37.61349" x2="192.419" y2="307.56399" gradientUnits="userSpaceOnUse" id="color-6"><stop offset="0" stop-color="#dcdcdc"/><stop offset="1" stop-color="#bababa"/></linearGradient><linearGradient x1="234.21255" y1="2.84637" x2="234.21255" y2="338.09366" gradientUnits="userSpaceOnUse" id="color-7"><stop offset="0" stop-color="#ffffff"/><stop offset="1" stop-color="#ced0ce"/></linearGradient><linearGradient x1="286.09237" y1="55.27992" x2="270.61718" y2="98.50362" gradientUnits="userSpaceOnUse" id="color-8"><stop offset="0" stop-color="#000000"/><stop offset="1" stop-color="#ffffff"/></linearGradient><linearGradient x1="291.71887" y1="44.37569" x2="276.24367" y2="87.59939" gradientUnits="userSpaceOnUse" id="color-9"><stop offset="0" stop-color="#fafafa"/><stop offset="1" stop-color="#600000"/></linearGradient><linearGradient x1="294.12213" y1="40.06868" x2="278.64694" y2="83.29237" gradientUnits="userSpaceOnUse" id="color-10"><stop offset="0" stop-color="#fafafa"/><stop offset="1" stop-color="#fa0000"/></linearGradient><linearGradient x1="172.76841" y1="6.49785" x2="163.54407" y2="32.26231" gradientUnits="userSpaceOnUse" id="color-11"><stop offset="0" stop-color="#f7f7f4"/><stop offset="1" stop-color="#8f8f89"/></linearGradient><linearGradient x1="408.57987" y1="91.88144" x2="399.35554" y2="117.6459" gradientUnits="userSpaceOnUse" id="color-12"><stop offset="0" stop-color="#f7f7f4"/><stop offset="1" stop-color="#8f8f89"/></linearGradient></defs><g transform="translate(-48.23542,67.46816)"><g data-paper-data="{&quot;isPaintingLayer&quot;:true}" fill-rule="nonzero" stroke-linecap="butt" stroke-linejoin="miter" stroke-miterlimit="10" stroke-dasharray="" stroke-dashoffset="0" style="mix-blend-mode: normal"><path d="M55.16636,-67.46816z" fill="url(#color-1)" stroke="none" stroke-width="0"/><path d="M48.23542,-61.39061z" fill="url(#color-2)" stroke="none" stroke-width="0"/><path d="M55.16636,-67.46816z" fill="url(#color-3)" stroke="none" stroke-width="0"/><path d="M48.23542,-61.39061z" fill="url(#color-4)" stroke="none" stroke-width="0"/><g><path d="M373.6617,242.15385c-16.00126,44.69303 -29.73207,105.05388 -73.25999,116.51527c-27.6828,7.2892 -81.25532,-22.47601 -110.54043,-32.96083c-24.77509,-8.87012 -104.18411,-26.4291 -120.19678,-44.80438c-32.67635,-37.49759 13.62574,-87.35017 31.19421,-136.42057c14.76847,-41.24973 29.07086,-95.79952 68.23324,-109.17066c30.25451,-10.32973 82.73444,13.86125 115.56718,25.61622c35.30672,12.64071 97.71529,26.39653 114.28873,56.43142c18.78861,34.04929 -11.37738,85.945 -25.28616,124.79353z" fill="url(#color-5)" stroke="none" stroke-width="0"/><path d="M383.53499,234.1237c-16.00126,44.69303 -29.73208,105.05388 -73.25999,116.51528c-27.6828,7.2892 -81.25532,-22.47601 -110.54043,-32.96083c-24.77509,-8.87012 -104.18411,-26.4291 -120.19678,-44.80439c-32.67635,-37.49759 13.62574,-87.35017 31.19421,-136.42057c14.76847,-41.24973 29.07086,-95.79952 68.23324,-109.17066c30.25451,-10.32973 82.73444,13.86125 115.56718,25.61622c35.30672,12.64071 97.71529,26.39653 114.28873,56.43142c18.78861,34.04929 -11.37738,85.945 -25.28616,124.79353z" fill="#9c9c9c" stroke="#000000" stroke-width="5"/><path d="M380.67628,228.0764c-16.00126,44.69303 -29.73208,105.05388 -73.25999,116.51528c-27.6828,7.2892 -81.25532,-22.47601 -110.54043,-32.96083c-24.77509,-8.87012 -104.18411,-26.4291 -120.19678,-44.80439c-32.67635,-37.49759 13.62574,-87.35017 31.19421,-136.42057c14.76847,-41.24973 29.07086,-95.79952 68.23324,-109.17066c30.25451,-10.32973 82.73444,13.86125 115.56718,25.61622c35.30672,12.64071 97.71529,26.39653 114.28873,56.43142c18.78861,34.04929 -11.37738,85.945 -25.28616,124.79353z" fill="#bebebe" stroke="#444444" stroke-width="4.5"/><path d="M380.50737,221.19782c-16.00126,44.69303 -29.73208,105.05388 -73.25999,116.51528c-27.6828,7.2892 -81.25532,-22.47601 -110.54043,-32.96083c-24.77509,-8.87012 -104.18411,-26.4291 -120.19678,-44.80439c-32.67635,-37.49759 13.62574,-87.35017 31.19421,-136.42057c14.76847,-41.24973 29.07086,-95.79952 68.23324,-109.17066c30.25451,-10.32973 82.73444,13.86125 115.56718,25.61622c35.30672,12.64071 97.71529,26.39653 114.28873,56.43142c18.78861,34.04929 -11.37738,85.945 -25.28616,124.79353z" fill="url(#color-6)" stroke="#444444" stroke-width="4.5"/><path d="M355.49874,243.94176c-21.49754,23.38982 -43.07593,45.22454 -59.31452,49.50035c-13.74829,3.62008 9.4148,43.63275 -9.72754,44.63171c-19.4016,1.01249 -81.11493,-37.04818 -95.85598,-42.32586c-24.77509,-8.87012 -104.18411,-26.4291 -120.19678,-44.80439c-32.67635,-37.49759 13.62574,-87.35017 31.19421,-136.42057c14.76847,-41.24973 29.07086,-95.79952 68.23324,-109.17066c30.25451,-10.32973 82.73444,13.86125 115.56718,25.61622c35.30672,12.64071 97.71529,26.39653 114.28873,56.43142c10.45596,18.9486 14.17384,46.61799 2.5339,68.14743c-4.71451,8.72003 -18.97723,47.57066 -22.76185,52.75456c-1.38256,1.89372 -23.96058,35.63978 -23.96058,35.63978z" fill="url(#color-7)" stroke="none" stroke-width="0"/><path d="M417.73742,126.56539c-2.56207,7.15612 1.10564,18.92119 -35.21371,10.24838c-23.09831,-5.51572 -79.49206,-27.40095 -108.77716,-37.88578c-24.77509,-8.87012 -101.28648,-34.52246 -120.66877,-43.48607c-39.55257,-18.29164 -10.95636,-18.69002 -8.14335,-26.54704c2.36468,-6.60479 0.76284,-16.73254 32.62423,-9.71131c24.6142,5.42418 78.5339,25.59374 111.36664,37.34871c35.30672,12.64071 95.42627,32.78997 118.42351,44.88258c26.071,13.70888 12.61564,18.93021 10.38861,25.15053z" fill="url(#color-8)" stroke="none" stroke-width="0"/><path d="M423.3639,115.66116c-2.56207,7.15612 1.10564,18.92119 -35.21371,10.24838c-23.09831,-5.51572 -79.49206,-27.40095 -108.77716,-37.88578c-24.77509,-8.87012 -101.28648,-34.52246 -120.66877,-43.48607c-39.55257,-18.29164 -10.95636,-18.69002 -8.14335,-26.54704c2.36468,-6.60479 0.76284,-16.73254 32.62423,-9.71131c24.6142,5.42418 78.5339,25.59374 111.36664,37.34871c35.30672,12.64071 95.42627,32.78997 118.42351,44.88258c26.071,13.70888 12.61564,18.93021 10.38861,25.15053z" fill="url(#color-9)" stroke="none" stroke-width="0"/><path d="M425.76717,111.35414c-2.56207,7.15612 1.10564,18.92119 -35.21371,10.24838c-23.09831,-5.51572 -79.49206,-27.40095 -108.77716,-37.88578c-24.77509,-8.87012 -101.28648,-34.52246 -120.66877,-43.48607c-39.55257,-18.29164 -10.95636,-18.69002 -8.14335,-26.54704c2.36468,-6.60479 0.76284,-16.73254 32.62423,-9.71131c24.6142,5.42418 78.5339,25.59374 111.36664,37.34871c35.30672,12.64071 95.42627,32.78997 118.42351,44.88258c26.071,13.70888 12.61564,18.93021 10.38861,25.15053z" fill="url(#color-10)" stroke="none" stroke-width="0"/><text transform="matrix(5.04791 0 0 5.04791 103.34484 68.52685000000001)" font-size="40"  fill="#313131" fill-rule="nonzero" stroke="none" stroke-width="1" stroke-linecap="butt" stroke-linejoin="miter" stroke-miterlimit="10" stroke-dasharray="" stroke-dashoffset="0" font-family="Helvetica" font-weight="normal" text-anchor="start" style="mix-blend-mode: normal" >10</text><text transform="matrix(0.96765 0 0 0.96765 179.37592 13.49858)" font-size="40"  fill="#fafafa" fill-rule="nonzero" stroke="none" stroke-width="1" stroke-linecap="butt" stroke-linejoin="miter" stroke-miterlimit="10" stroke-dasharray="" stroke-dashoffset="0" font-family="Helvetica" font-weight="normal" text-anchor="start" style="mix-blend-mode: normal" >Wednesday</text><path d="M155.274,14.7679c2.54723,-7.11466 10.37974,-10.81729 17.4944,-8.27006c7.11466,2.54723 10.81729,10.37974 8.27006,17.4944c-2.54723,7.11466 -10.37974,10.81729 -17.4944,8.27006c-7.11466,-2.54723 -10.81729,-10.37974 -8.27006,-17.4944z" fill="url(#color-11)" stroke="none" stroke-width="0.5"/><path d="M391.08547,100.1515c2.54723,-7.11466 10.37974,-10.81729 17.4944,-8.27006c7.11466,2.54723 10.81729,10.37974 8.27006,17.4944c-2.54723,7.11466 -10.37974,10.81729 -17.4944,8.27006c-7.11466,-2.54723 -10.81729,-10.37974 -8.27006,-17.4944z" fill="url(#color-12)" stroke="none" stroke-width="0.5"/></g></g></g></svg>