<svg xmlns="http://www.w3.org/2000/svg" xmlns:xlink="http://www.w3.org/1999/xlink" version="1.1" width="30.75" height="30.75" viewBox="0.15000003576278687 0.40000003576278687 30.75 30.75">
  <defs>
    <linearGradient id="grad_1" x1="7.9893" y1="7.9893" x2="21.7613" y2="21.7613" gradientUnits="userSpaceOnUse">
      <stop offset="0" stop-color="#D68D00"/>
      <stop offset="1" stop-color="#FFE600"/>
    </linearGradient>
  <linearGradient id="grad_1-,0,0,1,0.65,0.9" x1="8.6393" y1="8.8893" x2="22.4113" y2="22.6613" gradientUnits="userSpaceOnUse">
      <stop offset="0" stop-color="#D68D00"/>
      <stop offset="1" stop-color="#FFE600"/>
    </linearGradient></defs>
  <!-- Exported by Scratch - http://scratch.mit.edu/ -->
  <g id="ID0.5204231468960643">
    <g id="ID0.04987580515444279">
      <path id="ID0.4675361681729555" fill="#E0B820" d="M 15.525 30.15 C 7.599 30.15 1.15 23.702 1.15 15.775 C 1.15 7.849 7.599 1.4 15.525 1.4 C 23.452 1.4 29.9 7.849 29.9 15.775 C 29.9 23.702 23.452 30.15 15.525 30.15 L 15.525 30.15 Z " stroke-width="1"/>
      <path id="ID0.7858227952383459" fill="#B58015" d="M 15.525 1.9 C 23.188 1.9 29.4 8.112 29.4 15.775 C 29.4 23.438 23.188 29.65 15.525 29.65 C 7.862 29.65 1.65 23.438 1.65 15.775 C 1.65 8.112 7.862 1.9 15.525 1.9 M 15.525 0.9 C 7.323 0.9 0.65 7.573 0.65 15.775 C 0.65 23.977 7.323 30.65 15.525 30.65 C 23.727 30.65 30.4 23.977 30.4 15.775 C 30.4 7.573 23.727 0.9 15.525 0.9 L 15.525 0.9 Z " stroke-width="1"/>
    </g>
    <path id="ID0.580843495670706" fill="url(#grad_1-,0,0,1,0.65,0.9)" d="M 15.525 6.037 C 18.212 6.037 20.646 7.128 22.409 8.891 C 24.172 10.654 25.263 13.088 25.263 15.775 C 25.263 18.462 24.172 20.896 22.409 22.659 C 20.646 24.422 18.212 25.513 15.525 25.513 C 12.838 25.513 10.404 24.422 8.641 22.659 C 6.878 20.896 5.787 18.462 5.787 15.775 C 5.787 13.088 6.878 10.654 8.641 8.891 C 10.404 7.128 12.838 6.037 15.525 6.037 Z " stroke-width="1"/>
    <path id="ID0.49814528692513704" fill="#E0A614" d="M 15.525 7.009 C 17.943 7.009 20.135 7.991 21.722 9.578 C 23.309 11.165 24.291 13.357 24.291 15.775 C 24.291 18.193 23.309 20.385 21.722 21.972 C 20.135 23.559 17.943 24.541 15.525 24.541 C 13.107 24.541 10.915 23.559 9.328 21.972 C 7.741 20.385 6.759 18.193 6.759 15.775 C 6.759 13.357 7.741 11.165 9.328 9.578 C 10.915 7.991 13.107 7.009 15.525 7.009 Z " stroke-width="1"/>
  </g>
</svg>