<svg xmlns="http://www.w3.org/2000/svg" xmlns:xlink="http://www.w3.org/1999/xlink" version="1.1" width="57.06822752952576" height="55.87713027000427" viewBox="-0.5261139571666718 -0.6261139586567879 57.06822752952576 55.87713027000427">
  <defs>
    <linearGradient id="grad_1" x1="12.1436" y1="36.1748" x2="25.6346" y2="-0.8917" gradientUnits="userSpaceOnUse">
      <stop offset="0" stop-color="#D40000"/>
      <stop offset="0.0892" stop-color="#DB0000"/>
      <stop offset="0.3903" stop-color="#EF0000"/>
      <stop offset="0.6935" stop-color="#FB0000"/>
      <stop offset="1" stop-color="#FF0000"/>
    </linearGradient>
  <linearGradient id="grad_1-.6761139631271362,0,0,0.6761139631271362,14,14.9" x1="22.2105" y1="39.3583" x2="31.3319" y2="14.2971" gradientUnits="userSpaceOnUse">
      <stop offset="0" stop-color="#D40000"/>
      <stop offset="0.0892" stop-color="#DB0000"/>
      <stop offset="0.3903" stop-color="#EF0000"/>
      <stop offset="0.6935" stop-color="#FB0000"/>
      <stop offset="1" stop-color="#FF0000"/>
    </linearGradient></defs>
  <!-- Exported by Scratch - http://scratch.mit.edu/ -->
  <g id="ID0.41567432321608067">
    <path id="ID0.8707799022085965" fill="url(#grad_1-.6761139631271362,0,0,0.6761139631271362,14,14.9)" stroke="#000000" stroke-width="1.3522279262542725" d="M 36.4876 16.2056 C 33.2618 14.6978 30.6047 16.0453 27.8245 18.7146 C 25.2762 16.1589 22.3906 14.6972 19.1635 16.2056 C 15.4989 17.9195 13.7214 22.7679 15.194 27.0335 C 16.6071 31.1247 25.4649 41.3198 27.7948 41.3198 C 30.1848 41.3198 39.046 31.1247 40.4584 27.0335 C 41.9309 22.7679 40.1521 17.9195 36.4876 16.2056 Z "/>
    <path id="ID0.4122458123601973" fill="#FFFFFF" d="M 21.6921 17.9844 C 22.0316 18.5983 21.3595 19.7883 20.1878 20.6449 C 19.0181 21.5002 17.7937 21.697 17.4543 21.0824 C 17.1135 20.4685 17.7862 19.2785 18.9573 18.4232 C 20.1276 17.5673 21.3514 17.3705 21.6921 17.9844 Z " stroke-width="0.6761139631271362"/>
  </g>
  <path id="ID0.033297700341790915_9_" fill="none" d="M 0.15 0.05 L 55.866 0.05 L 55.866 54.5749 L 0.15 54.5749 L 0.15 0.05 Z " stroke-width="0.516382864539597"/>
</svg>