<svg version="1.1" xmlns="http://www.w3.org/2000/svg" xmlns:xlink="http://www.w3.org/1999/xlink" width="106.79688" height="207.0618" viewBox="0,0,106.79688,207.0618"><defs><linearGradient x1="234.26301" y1="205.91855" x2="210.52752" y2="172.48762" gradientUnits="userSpaceOnUse" id="color-1"><stop offset="0" stop-color="#00ffff"/><stop offset="1" stop-color="#00a1ab"/></linearGradient><linearGradient x1="213.76861" y1="177.34054" x2="202.76925" y2="161.84816" gradientUnits="userSpaceOnUse" id="color-2"><stop offset="0" stop-color="#ffe4ba"/><stop offset="1" stop-color="#ddb980"/></linearGradient><linearGradient x1="214.72237" y1="176.97" x2="211.1524" y2="171.94176" gradientUnits="userSpaceOnUse" id="color-3"><stop offset="0" stop-color="#00ffff"/><stop offset="1" stop-color="#00a1ab"/></linearGradient><linearGradient x1="284.94216" y1="195.9533" x2="299.836" y2="207.75048" gradientUnits="userSpaceOnUse" id="color-4"><stop offset="0" stop-color="#ffe4ba"/><stop offset="1" stop-color="#ddb980"/></linearGradient><linearGradient x1="255.31748" y1="173.76372" x2="287.4568" y2="199.2208" gradientUnits="userSpaceOnUse" id="color-5"><stop offset="0" stop-color="#00ffff"/><stop offset="1" stop-color="#00a1ab"/></linearGradient><linearGradient x1="284.77821" y1="196.02607" x2="289.61218" y2="199.85498" gradientUnits="userSpaceOnUse" id="color-6"><stop offset="0" stop-color="#00ffff"/><stop offset="1" stop-color="#00a1ab"/></linearGradient><linearGradient x1="231.84825" y1="223.86424" x2="231.84825" y2="272.5309" gradientUnits="userSpaceOnUse" id="color-7"><stop offset="0" stop-color="#213fff"/><stop offset="1" stop-color="#003580"/></linearGradient><linearGradient x1="251.18158" y1="224.19757" x2="251.18158" y2="272.86424" gradientUnits="userSpaceOnUse" id="color-8"><stop offset="0" stop-color="#213fff"/><stop offset="1" stop-color="#003580"/></linearGradient><linearGradient x1="241.37361" y1="165.28772" x2="241.37361" y2="231.20642" gradientUnits="userSpaceOnUse" id="color-9"><stop offset="0" stop-color="#00ffff"/><stop offset="1" stop-color="#00a1ab"/></linearGradient><linearGradient x1="241.36387" y1="95.21574" x2="241.36387" y2="173.1794" gradientUnits="userSpaceOnUse" id="color-10"><stop offset="0" stop-color="#ffe4ba"/><stop offset="1" stop-color="#ddb980"/></linearGradient><linearGradient x1="239.84062" y1="77.4691" x2="239.84062" y2="119.49912" gradientUnits="userSpaceOnUse" id="color-11"><stop offset="0" stop-color="#00ffff"/><stop offset="1" stop-color="#00a1ab"/></linearGradient><linearGradient x1="240.72145" y1="97.17906" x2="240.72145" y2="149.62497" gradientUnits="userSpaceOnUse" id="color-12"><stop offset="0" stop-color="#00ffff"/><stop offset="1" stop-color="#00a1ab"/></linearGradient><linearGradient x1="230.84825" y1="265.86424" x2="230.84825" y2="281.5309" gradientUnits="userSpaceOnUse" id="color-13"><stop offset="0" stop-color="#00e6ff"/><stop offset="1" stop-color="#0095c3"/></linearGradient><linearGradient x1="254.51491" y1="266.86424" x2="254.51491" y2="282.5309" gradientUnits="userSpaceOnUse" id="color-14"><stop offset="0" stop-color="#00e6ff"/><stop offset="1" stop-color="#0095c3"/></linearGradient></defs><g transform="translate(-196.35481,-76.4691)"><g data-paper-data="{&quot;isPaintingLayer&quot;:true}" fill-rule="nonzero" stroke-linejoin="miter" stroke-miterlimit="10" stroke-dasharray="" stroke-dashoffset="0" style="mix-blend-mode: normal"><g stroke="#000000" stroke-width="2" stroke-linecap="butt"><path d="M215.69165,168.82118c0,0 1.44234,13.28964 3.06919,13.84531c1.34018,0.45776 5.99963,-10.74772 5.99963,-10.74772l0.67175,17.33292c0,0 -10.77988,8.09803 -13.52335,6.30755c-3.67175,-2.39631 -6.54547,-19.40514 -6.54547,-19.40514z" fill="url(#color-1)"/><path d="M202.76925,161.84816c4.57833,-3.25056 10.75207,-2.41755 13.78948,1.86055c3.03739,4.27811 1.78822,10.38128 -2.7901,13.63182c-4.57833,3.25056 -10.75207,2.41755 -13.78948,-1.86055c-3.03739,-4.27811 -1.78822,-10.38128 2.7901,-13.63182z" fill="url(#color-2)"/><path d="M211.1524,171.94176c3.79024,-2.69101 7.662,-3.74693 8.64784,-2.35842c0.98582,1.3885 -1.28762,4.69561 -5.07787,7.38665c-3.79024,2.69101 -7.662,3.74693 -8.64784,2.35842c-0.98582,-1.3885 1.28762,-4.69561 5.07787,-7.38665z" fill="url(#color-3)"/></g><g stroke="#000000" stroke-width="2" stroke-linecap="butt"><path d="M299.836,207.75048c-3.48632,4.40144 -9.64663,5.32862 -13.75944,2.07093c-4.11281,-3.2577 -4.62069,-9.46666 -1.13439,-13.8681c3.4863,-4.40144 9.64664,-5.32861 13.75944,-2.07093c4.11283,3.25771 4.62069,9.46666 1.13439,13.8681z" fill="url(#color-4)"/><path d="M283.52442,204.1854l-32.13934,-25.45707l7.8648,-9.92923l32.13934,25.45707z" fill="url(#color-5)"/><path d="M289.61217,199.85498c-2.8862,3.64381 -6.30805,5.74058 -7.64292,4.68326c-1.33488,-1.05733 -0.07725,-4.86834 2.80897,-8.51217c2.88621,-3.64383 6.30805,-5.74059 7.64292,-4.68326c1.33488,1.05733 0.07724,4.86836 -2.80897,8.51217z" fill="url(#color-6)"/></g><path d="M223.18158,272.5309v-48.66667h17.33334v48.66667z" fill="url(#color-7)" stroke="#000000" stroke-width="2" stroke-linecap="butt"/><path d="M242.51491,272.86424v-48.66667h17.33333v48.66667z" fill="url(#color-8)" stroke="#000000" stroke-width="2" stroke-linecap="butt"/><path d="M222.3207,231.20642v-65.91871h38.10583v65.91871z" fill="url(#color-9)" stroke="#000000" stroke-width="2" stroke-linecap="butt"/><path d="M241.36387,173.1794c-22.79904,0 -41.28132,-17.45276 -41.28132,-38.98183c0,-21.52907 18.48228,-38.98183 41.28132,-38.98183c22.79904,0 41.28132,17.45276 41.28132,38.98183c0,21.52907 -18.48228,38.98183 -41.28132,38.98183z" fill="url(#color-10)" stroke="#000000" stroke-width="2" stroke-linecap="butt"/><path d="M229.24335,162.00615c-4.35419,0 -7.88396,-4.22835 -7.88396,-9.44427c0,-5.21593 3.52976,-9.44427 7.88396,-9.44427c4.35419,0 7.88396,4.22835 7.88396,9.44427c0,5.21593 -3.52976,9.44427 -7.88396,9.44427z" fill="#000000" stroke="#000000" stroke-width="2" stroke-linecap="butt"/><path d="M250.09661,160.5215c-4.3542,0 -7.88397,-3.85525 -7.88397,-8.61094c0,-4.75569 3.52977,-8.61093 7.88397,-8.61093c4.35419,0 7.88396,3.85524 7.88396,8.61093c0,4.75569 -3.52976,8.61094 -7.88396,8.61094z" fill="#000000" stroke="#000000" stroke-width="2" stroke-linecap="butt"/><path d="M228.92366,148.47824c0,-1.38071 1.11929,-2.5 2.5,-2.5c1.38071,0 2.5,1.11929 2.5,2.5c0,1.38071 -1.11929,2.5 -2.5,2.5c-1.38071,0 -2.5,-1.11929 -2.5,-2.5z" fill="#ffffff" stroke="none" stroke-width="0.5" stroke-linecap="butt"/><path d="M249.57557,148.81158c0,-1.38071 1.11929,-2.5 2.5,-2.5c1.38071,0 2.5,1.11929 2.5,2.5c0,1.38071 -1.11929,2.5 -2.5,2.5c-1.38071,0 -2.5,-1.11929 -2.5,-2.5z" fill="#ffffff" stroke="none" stroke-width="0.5" stroke-linecap="butt"/><path d="M223.68305,123.75696l8.32196,-0.219" fill="none" stroke="#000000" stroke-width="2" stroke-linecap="round"/><path d="M246.85826,121.54763l6.56997,-0.219" fill="none" stroke="#000000" stroke-width="2" stroke-linecap="round"/><path d="M241.15462,106.92079c-22.01287,0 -43.79981,9.30156 -43.79981,-2.30471c0,-11.60627 20.47294,-27.14698 42.48581,-27.14698c22.01287,0 41.60982,14.22672 41.60982,25.83299c0,11.60627 -18.28295,3.6187 -40.29582,3.6187z" fill="url(#color-11)" stroke="#000000" stroke-width="2" stroke-linecap="butt"/><path d="M241.37361,101.55899c-4.95894,0 -8.97896,-3.67684 -8.97896,-8.21246c0,-4.53561 4.02002,-8.21246 8.97896,-8.21246c4.95894,0 8.97896,3.67684 8.97896,8.21246c0,4.53561 -4.02002,8.21246 -8.97896,8.21246z" fill="#ffffff" stroke="#000000" stroke-width="2" stroke-linecap="butt"/><path d="M240.72144,149.62497c-17.8401,0 -32.30236,-11.7404 -32.30236,-26.22299c0,-14.48252 14.46226,-26.22299 32.30236,-26.22299c17.8401,0 32.30236,11.7404 32.30236,26.22299c0,14.48252 -14.46226,26.22299 -32.30236,26.22299z" fill="url(#color-12)" stroke="#000000" stroke-width="2" stroke-linecap="butt"/><text transform="matrix(0.22735 0 0 0.22735 235.67964 89.50416)" font-size="40"  fill="#00ffff" fill-rule="nonzero" stroke="none" stroke-width="1" stroke-linecap="butt" stroke-linejoin="miter" stroke-miterlimit="10" stroke-dasharray="" stroke-dashoffset="0" font-family="Helvetica" font-weight="normal" text-anchor="start" style="mix-blend-mode: normal" >CP</text><text transform="matrix(0.60554 0 0 0.60554 227.13868 186.87113)" font-size="40"  fill="#006f6f" fill-rule="nonzero" stroke="none" stroke-width="1" stroke-linecap="butt" stroke-linejoin="miter" stroke-miterlimit="10" stroke-dasharray="" stroke-dashoffset="0" font-family="Helvetica" font-weight="normal" text-anchor="start" style="mix-blend-mode: normal" >CP</text><path d="M230.84824,281.5309c-7.54789,0 -13.66667,-3.5071 -13.66667,-7.83333c0,-4.32623 6.11878,-7.83333 13.66667,-7.83333c7.54789,0 13.66667,3.5071 13.66667,7.83333c0,4.32623 -6.11878,7.83333 -13.66667,7.83333z" fill="url(#color-13)" stroke="#000000" stroke-width="2" stroke-linecap="butt"/><path d="M254.51492,282.5309c-7.54789,0 -13.66666,-3.5071 -13.66666,-7.83333c0,-4.32623 6.11877,-7.83333 13.66666,-7.83333c7.54789,0 13.66666,3.5071 13.66666,7.83333c0,4.32623 -6.11877,7.83333 -13.66666,7.83333z" fill="url(#color-14)" stroke="#000000" stroke-width="2" stroke-linecap="butt"/><path d="M240.71926,169.50017c-6.73216,0 -12.18959,-0.93275 -12.18959,-2.0835c0,-1.15068 5.45747,-2.0835 12.18959,-2.0835c6.73216,0 12.18959,0.93275 12.18959,2.0835c0,1.15068 -5.45747,2.0835 -12.18959,2.0835z" fill="#bd0000" stroke="#000000" stroke-width="2" stroke-linecap="butt"/></g></g></svg>