<svg xmlns="http://www.w3.org/2000/svg" xmlns:xlink="http://www.w3.org/1999/xlink" version="1.1" width="131.53720082299478" height="103.59669484154945" viewBox="-0.4999999476301964 -0.19999993570926744 131.53720082299478 103.59669484154945">
  <!-- Exported by Scratch - http://scratch.mit.edu/ -->
  <path id="ID0.5443468582816422" fill="#000000" stroke="#000000" stroke-width="1.2374464515622894" d="M 64.8632 35.791 C 70.1189 35.6809 76.2039 36.2667 80.0558 39.3486 C 83.5594 42.1533 84.6832 46.9858 84.6003 51.1114 C 84.5087 55.6357 82.9371 60.6949 79.2928 63.9931 C 75.8509 67.1518 70.3418 68.8233 65.2944 68.899 C 60.1866 68.9042 54.4864 67.3113 50.8648 64.2226 C 46.9233 60.9049 44.2656 55.789 44.4295 51.1114 C 44.5854 46.727 47.4945 42.2537 51.296 39.3486 C 54.8964 36.5967 60.1316 35.6809 64.8632 35.791 Z "/>
  <path id="ID0.4069141363725066" fill="none" stroke="#000000" stroke-width="1.9999998831134784" stroke-linecap="round" d="M 73.1615 36.7639 C 73.1615 36.7639 76.4407 28.8802 78.161 24.9796 C 78.9604 23.1662 78.896 20.0154 80.7264 19.6089 C 82.6094 19.1901 83.954 22.1095 85.5879 23.3289 C 90.949 27.3292 96.356 31.3022 101.7319 35.2827 "/>
  <path id="ID0.8678468321450055" fill="none" stroke="#000000" stroke-width="1.9999998952603928" stroke-linecap="round" d="M 77.9313 37.6196 C 77.9313 37.6196 82.5561 33.2732 85.0591 31.3397 C 85.9219 30.673 87.1049 29.2054 87.9779 29.8587 C 90.221 31.5372 90.8956 34.6579 92.5323 36.9318 C 98.1951 44.7981 104.1093 52.5161 109.8891 60.2968 "/>
  <path id="ID0.8587070810608566" fill="none" stroke="#000000" stroke-width="1.9999998080935395" stroke-linecap="round" d="M 84.1174 45.7192 C 84.1174 45.7192 88.9092 42.6392 90.1879 44.277 C 94.6172 49.9526 96.1646 57.4215 98.5516 64.2144 C 99.7384 67.592 100.1067 71.215 100.8835 74.7098 "/>
  <path id="ID0.07539850194007158" fill="none" stroke="#000000" stroke-width="1.9999998362236102" stroke-linecap="round" d="M 84.5367 51.4642 C 84.5367 51.4642 88.1798 48.876 88.7009 51.5307 C 90.7851 62.1504 90.9148 83.9552 90.9148 83.9552 "/>
  <path id="ID0.4069141363725066" fill="none" stroke="#000000" stroke-width="1.9723797460357368" stroke-linecap="round" d="M 55.8274 35.9312 C 55.8274 35.9312 51.8724 28.4405 49.8208 24.7448 C 48.8675 23.0266 48.6167 19.8872 46.8059 19.677 C 44.943 19.4602 43.9325 22.5053 42.4734 23.8908 C 37.6855 28.4364 32.8504 32.9597 28.0462 37.4871 "/>
  <path id="ID0.8678468321450055" fill="none" stroke="#000000" stroke-width="1.9723798326150306" stroke-linecap="round" d="M 50.9862 38.4103 C 50.9862 38.4103 46.2848 34.3243 43.7605 32.5311 C 42.8904 31.9127 41.6707 30.5124 40.8543 31.2122 C 38.7568 33.0105 38.2522 36.1628 36.7723 38.5223 C 31.652 46.6848 26.2805 54.713 21.0425 62.7964 "/>
  <path id="ID0.8587070810608566" fill="none" stroke="#000000" stroke-width="1.9723797459407049" stroke-linecap="round" d="M 45.2641 46.4963 C 45.2641 46.4963 40.574 43.4952 39.3467 45.1529 C 35.0953 50.8975 33.6642 58.3881 31.4098 65.2165 C 30.2891 68.6118 29.9667 72.2391 29.2457 75.745 "/>
  <path id="ID0.07539850194007158" fill="none" stroke="#000000" stroke-width="1.97237987510663" stroke-linecap="round" d="M 44.6394 52.4042 C 44.6394 52.4042 41.0706 49.867 40.5916 52.5284 C 38.6758 63.175 38.7767 84.9777 38.7767 84.9777 "/>
  <g id="ID0.9577445294708014">
    <path id="ID0.37750169076025486" fill="#FFFFFF" stroke="#000000" stroke-width="1.3443691729901157" d="M 72.7237 44.0185 C 74.8807 44.0161 76.8356 44.8638 78.2519 46.2363 C 79.6682 47.6079 80.5459 49.5042 80.5477 51.5972 C 80.5494 53.6902 79.6749 55.5884 78.2609 56.9633 C 76.8468 58.3389 74.8934 59.1911 72.7364 59.1935 C 70.5794 59.1959 68.6245 58.3482 67.2082 56.9757 C 65.7919 55.6041 64.9142 53.7078 64.9124 51.6148 C 64.9107 49.5218 65.7852 47.6235 67.1992 46.2487 C 68.6132 44.8731 70.5667 44.0209 72.7237 44.0185 Z "/>
    <path id="ID0.234124637208879" fill="#000000" stroke="black" stroke-width="1.5444463961489148" stroke-linecap="round" d="M 72.595 50.9038 C 73.4114 50.9029 74.1506 51.2739 74.686 51.8744 C 75.2222 52.475 75.5538 53.3045 75.5541 54.2201 C 75.5544 55.1358 75.2234 55.966 74.6876 56.5678 C 74.1526 57.1696 73.4137 57.5422 72.5973 57.5431 C 71.7809 57.544 71.0418 57.1731 70.5064 56.5725 C 69.9701 55.972 69.6385 55.1424 69.6382 54.2268 C 69.6379 53.3112 69.9689 52.4809 70.5048 51.8792 C 71.0397 51.2774 71.7786 50.9048 72.595 50.9038 Z "/>
  </g>
  <g id="ID0.9577445294708014">
    <path id="ID0.37750169076025486" fill="#FFFFFF" stroke="#000000" stroke-width="1.3443691729901157" d="M 57.3237 44.0685 C 59.4807 44.0661 61.4356 44.9138 62.8519 46.2863 C 64.2682 47.6579 65.1459 49.5542 65.1477 51.6472 C 65.1494 53.7402 64.2749 55.6384 62.8609 57.0133 C 61.4468 58.3889 59.4934 59.2411 57.3364 59.2435 C 55.1794 59.2459 53.2245 58.3982 51.8082 57.0257 C 50.3919 55.6541 49.5142 53.7578 49.5124 51.6648 C 49.5107 49.5718 50.3852 47.6735 51.7992 46.2987 C 53.2132 44.9231 55.1667 44.0709 57.3237 44.0685 Z "/>
    <path id="ID0.234124637208879" fill="#000000" stroke="black" stroke-width="1.5444463961489148" stroke-linecap="round" d="M 57.195 51.0038 C 58.0114 51.0029 58.7506 51.3739 59.286 51.9744 C 59.8222 52.575 60.1538 53.4045 60.1541 54.3201 C 60.1544 55.2358 59.8234 56.066 59.2876 56.6678 C 58.7526 57.2696 58.0137 57.6422 57.1973 57.6431 C 56.3809 57.644 55.6418 57.2731 55.1064 56.6725 C 54.5701 56.072 54.2385 55.2424 54.2382 54.3268 C 54.2379 53.4112 54.5689 52.5809 55.1048 51.9792 C 55.6397 51.3774 56.3786 51.0048 57.195 51.0038 Z "/>
  </g>
  <path id="ID0.033297700341790915_9_" fill="none" d="M 0.5 0.8 L 130.0372 0.8 L 130.0372 102.3967 L 0.5 102.3967 L 0.5 0.8 Z " stroke-width="1.0951957752184225"/>
</svg>