<svg version="1.1" width="513" height="104" viewBox="-1 -1 513 104" xmlns="http://www.w3.org/2000/svg" xmlns:xlink="http://www.w3.org/1999/xlink">
  <!-- Exported by Scratch - http://scratch.mit.edu/ -->
  <path id="ID0.547040204051882" fill="#00FF55" stroke="none" d="M 30 258 L 480 258 L 480 360 L 30 360 L 30 258 Z " transform="matrix(1.0977777242660522, 0, 0, 1, -15.9, -258)"/>
  <path id="ID0.4915185943245888" fill="#B2B2B2" stroke="none" d="M 0 272 L 480 272 L 480 331 L 0 331 L 0 272 Z " transform="matrix(1, 0, 0, 1, 23, -271)"/>
  <path id="ID0.12495281919836998" fill="none" stroke="#FFFF00" stroke-width="2" stroke-linecap="round" d="M 18 284 L 62 284 " transform="matrix(1.8695652484893799, 0, 0, 1, -31.75, -265)"/>
  <path id="ID0.169530576094985" fill="none" stroke="#FFFF00" stroke-width="2" stroke-linecap="round" d="M 144 290 L 191 290 " transform="matrix(1, 0, 0, 1, 28, -271)"/>
  <path id="ID0.169530576094985" fill="none" stroke="#FFFF00" stroke-width="2" stroke-linecap="round" d="M 144 290 L 191 290 " transform="matrix(1.9244897365570068, 0, 0, 1, -154.5, -271)"/>
  <path id="ID0.2574487184174359" fill="none" stroke="#FFFF00" stroke-width="2" stroke-linecap="round" d="M 216 288 L 281 288 " transform="matrix(1, 0, 0, 1, 23, -269)"/>
  <path id="ID0.9597998890094459" fill="none" stroke="#FFFF00" stroke-width="2" stroke-linecap="round" d="M 304 282 L 379 282 " transform="matrix(1, 0, 0, 1, 23, -263)"/>
  <path id="ID0.15456728590652347" fill="none" stroke="#FFFF00" stroke-width="2" stroke-linecap="round" d="M 415 282 L 485 282 " transform="matrix(1, 0, 0, 1, 23, -263)"/>
</svg>