<svg version="1.1" xmlns="http://www.w3.org/2000/svg" xmlns:xlink="http://www.w3.org/1999/xlink" width="120" height="52.287" viewBox="0,0,120,52.287"><defs><linearGradient x1="181.0181" y1="176.9307" x2="301.0176" y2="176.9307" gradientUnits="userSpaceOnUse" id="color-1"><stop offset="0" stop-color="#27aae1"/><stop offset="1" stop-color="#115489"/></linearGradient><linearGradient x1="185.5205" y1="176.9307" x2="296.5137" y2="176.9307" gradientUnits="userSpaceOnUse" id="color-2"><stop offset="0" stop-color="#2f7eba"/><stop offset="0.506" stop-color="#3f9dd6"/><stop offset="1" stop-color="#3e97d1"/></linearGradient></defs><g transform="translate(-181.018,-150.787)"><g data-paper-data="{&quot;isPaintingLayer&quot;:true}" fill-rule="nonzero" stroke="none" stroke-linecap="butt" stroke-linejoin="miter" stroke-miterlimit="10" stroke-dasharray="" stroke-dashoffset="0" style="mix-blend-mode: normal"><path d="M301.018,176.93c0,14.416 -11.729,26.144 -26.144,26.144h-67.713c-14.415,0 -26.143,-11.727 -26.143,-26.144c0,-14.415 11.727,-26.143 26.143,-26.143h67.713c14.415,0 26.144,11.728 26.144,26.143z" fill="url(#color-1)" stroke-width="1"/><path d="M296.514,176.93c0,11.952 -9.688,21.641 -21.64,21.641h-67.713c-11.952,0 -21.641,-9.689 -21.641,-21.641v0c0,-11.951 9.689,-21.64 21.641,-21.64h67.713c11.952,0 21.64,9.689 21.64,21.64z" fill="url(#color-2)" stroke-width="1"/><path d="M200.3278,172.14016c-0.74904,-0.85108 -4.33242,-3.37328 -5.00364,-4.68947c-1.26361,-2.47778 1.86354,-4.70031 3.9909,-3.4239c3.05759,1.83456 7.53897,6.80303 9.8291,11.07804c1.47477,-1.6877 2.86809,-3.49257 4.01978,-5.3424c1.04253,-1.6745 3.10115,-5.48276 4.72691,-6.60507c1.63523,-1.12885 4.57434,-0.40979 4.26777,2.09006c-0.23403,1.90832 -2.72356,4.34292 -3.94125,5.94366c-4.1212,5.41761 -8.13402,10.13174 -12.94109,15.03598c-1.17754,1.20134 -1.75536,2.96976 -3.01198,3.97874c-0.45349,0.46086 -1.0844,0.74662 -1.78204,0.74662c-1.38071,0 -2.5,-1.11929 -2.5,-2.5c0,-0.58095 0.19816,-1.11561 0.53057,-1.5401c1.26395,-2.46556 4.42744,-5.59031 6.53909,-7.60452c-1.57219,-2.29258 -2.86354,-5.05362 -4.7241,-7.16766z" fill="#000000" stroke-width="0.5"/><path d="M241.7356,184.82441c1.38071,0 2.5,1.11929 2.5,2.5c0,0.04657 -0.00127,0.09285 -0.00379,0.1388l0.01727,0.03455l-0.02524,0.07068c-0.04185,0.43201 -0.19365,0.83184 -0.42708,1.17117l-0.30333,0.455l-0.77532,0.70483l-0.05481,0.09592l-0.06993,0.01748l-0.05334,0.04849l-0.11021,-0.0076l-1.01652,0.25413h-2.41719l-0.20271,-0.05068l-0.20829,0.01666l-3.8675,-0.64458l-0.11807,-0.05134l-0.12872,-0.00274l-1.76579,-0.48158l-2.39149,-0.63773l-0.62564,-0.15641l-0.24293,-0.12956l-0.26876,-0.05973l-0.64458,-0.32229l-0.30513,-0.26154l-0.34461,-0.20676l-0.20695,-0.20695l-0.02754,-0.00551l-0.03855,-0.06058l-0.04926,-0.04926l-0.29554,-0.49257l-0.3084,-0.48463l-0.02203,-0.06609l-0.03694,-0.06157l0.00739,-0.02709l-0.10956,-0.32869l-0.01212,-0.15751l-0.06763,-0.14277l-0.31062,-1.55312l-0.46592,-1.86366l-0.93094,-3.56861l-0.43793,-1.16782l-0.01166,-0.10204l-0.05132,-0.08896l-0.32229,-1.12802l-0.00921,-0.27625l-0.08267,-0.26375l-0.16115,-2.73948l0.05953,-0.31595l-0.01529,-0.32115l0.16115,-0.80573l0.09901,-0.20902l0.03125,-0.22916l0.32229,-0.80573l0.06211,-0.086l0.02301,-0.10356l0.64458,-1.28917l0.06379,-0.07443l0.02854,-0.09378l0.48344,-0.80573l0.13821,-0.13821l0.08497,-0.17602l0.80573,-0.96688l0.16551,-0.12095l0.11772,-0.16782l2.41719,-2.0949l0.21939,-0.1112l0.17758,-0.17019l1.12802,-0.64458l0.13987,-0.03934l0.11568,-0.08792l1.12802,-0.48344l0.19985,-0.03223l0.17861,-0.09526l1.28917,-0.32229h0.17046l0.1598,-0.05935l1.21947,-0.1355l0.01282,-0.01147l0.05342,0.00411l0.1646,-0.01829l0.5317,0.07185l0.53495,0.04115l0.15712,0.05237l0.0531,0.00718l0.01013,0.0139l0.26309,0.0877l0.19747,0.12566l0.22607,0.06065l1.45031,0.80573l0.25465,0.23822l0.29901,0.17941l0.48344,0.48344l0.09258,0.1543l0.13965,0.11347l0.96688,1.28917l0.08818,0.20943l0.14789,0.17253l1.28917,2.57833l0.05078,0.22849l0.11697,0.20274l0.32229,1.12802l0.00344,0.1032l0.0442,0.09332l0.16115,0.80573l-0.01184,0.24872l0.06039,0.24157v2.0949l-0.0244,0.09758l0.03788,0.07576l-0.1894,0.53033l-0.13658,0.54632l-0.07354,0.04202l-0.03383,0.09473l-0.64458,0.96688l-0.32647,0.29679l-0.28323,0.3383l-1.77261,1.28917l-0.19375,0.07824l-0.15865,0.13598l-0.18308,0.09154l-0.11734,0.07823l-0.00219,0.00621l-0.02216,0.01003l-0.21224,0.14149l-0.47754,0.17055l-0.462,0.209l-0.25096,0.04563l-0.02291,0.00818l-0.00589,-0.00295l-1.49285,0.27143l-0.22676,-0.01479l-0.22046,0.05511l-1.24341,0l-0.76278,0.12713l-0.14601,-0.01168l-0.14015,0.04258l-2.8815,0.14407l-0.57287,0.19096l-0.18767,0.07507l0.29614,1.13519l0.00013,0.01313l0.00618,0.01159l0.48344,1.93375v0.06096l0.0261,0.05509l0.19013,0.95065l0.05966,0.01491l0.01773,0.00946l0.02009,0.00031l2.41719,0.64458l0.00636,0.00352l0.00727,0.00015l1.65058,0.45016l3.53865,0.58977h1.05463c0.09408,-0.06907 0.19316,-0.13171 0.29661,-0.18728l0.0546,-0.04963l0.03752,0.00259c0.32923,-0.15961 0.69877,-0.24912 1.08921,-0.24912zM234.55648,173.9005l0.20829,0.01666l0.20271,-0.05068h1.22489l1.04177,-0.18941l0.05294,-0.0353l0.14877,-0.05313l0.11994,-0.10281l0.13723,-0.06861l1.22029,-0.88748v-1.07237l-0.09275,-0.46377l-0.23066,-0.80732l-1.08444,-2.16889l-0.72502,-0.96669l-0.11022,-0.11022l-0.76919,-0.42733l-0.65149,0.07239l-0.9317,0.23292l-0.81249,0.34821l-0.79164,0.45237l-2.07913,1.80191l-0.5521,0.66252l-0.3346,0.55766l-0.55514,1.11028l-0.19843,0.49607l-0.05299,0.26496l0.12423,2.11183l0.92155,-0.30718l0.33972,-0.02613l0.32601,-0.09904l3.07895,-0.15395z" fill="#000000" stroke-width="0.5"/><path d="M271.14697,162.50794c-0.76938,1.34641 -2.03327,1.94951 -3.45685,2.31035c-2.97442,0.75393 -6.64601,0.45028 -7.9608,3.65926c-1.39601,3.40721 4.44329,5.32432 5.3039,8.25041c2.00666,6.82266 -7.63166,11.03134 -12.67715,12.32359c-2.0136,0.51573 -6.97736,0.88117 -7.15807,-2.37171c-0.18776,-3.37964 7.41267,-2.6617 9.33838,-3.31365c1.78358,-0.60383 3.95587,-2.50712 5.28782,-3.9685c1.2594,-1.38178 -1.38084,-2.80178 -2.05825,-3.45022c-2.09896,-2.00919 -4.25416,-6.22498 -2.84999,-9.18934c2.03098,-4.28762 6.77591,-5.97233 11.14582,-6.70163c0.71826,-0.11987 3.40344,-0.49161 3.85402,0.29691z" fill="#000000" stroke-width="0.5"/></g></g></svg>