<svg version="1.1" xmlns="http://www.w3.org/2000/svg" xmlns:xlink="http://www.w3.org/1999/xlink" width="87.29038" height="207.0618" viewBox="0,0,87.29038,207.0618"><defs><linearGradient x1="231.84825" y1="223.86424" x2="231.84825" y2="272.5309" gradientUnits="userSpaceOnUse" id="color-1"><stop offset="0" stop-color="#213fff"/><stop offset="1" stop-color="#003580"/></linearGradient><linearGradient x1="251.18158" y1="224.19757" x2="251.18158" y2="272.86424" gradientUnits="userSpaceOnUse" id="color-2"><stop offset="0" stop-color="#213fff"/><stop offset="1" stop-color="#003580"/></linearGradient><linearGradient x1="241.37361" y1="165.28772" x2="241.37361" y2="231.20642" gradientUnits="userSpaceOnUse" id="color-3"><stop offset="0" stop-color="#00ffff"/><stop offset="1" stop-color="#00a1ab"/></linearGradient><linearGradient x1="241.36387" y1="95.21574" x2="241.36387" y2="173.1794" gradientUnits="userSpaceOnUse" id="color-4"><stop offset="0" stop-color="#ffe4ba"/><stop offset="1" stop-color="#ddb980"/></linearGradient><linearGradient x1="239.84062" y1="77.4691" x2="239.84062" y2="119.49912" gradientUnits="userSpaceOnUse" id="color-5"><stop offset="0" stop-color="#00ffff"/><stop offset="1" stop-color="#00a1ab"/></linearGradient><linearGradient x1="240.72145" y1="97.17902" x2="240.72145" y2="111.95831" gradientUnits="userSpaceOnUse" id="color-6"><stop offset="0" stop-color="#00ffff"/><stop offset="1" stop-color="#00a1ab"/></linearGradient><linearGradient x1="230.84825" y1="265.86424" x2="230.84825" y2="281.5309" gradientUnits="userSpaceOnUse" id="color-7"><stop offset="0" stop-color="#00e6ff"/><stop offset="1" stop-color="#0095c3"/></linearGradient><linearGradient x1="254.51491" y1="266.86424" x2="254.51491" y2="282.5309" gradientUnits="userSpaceOnUse" id="color-8"><stop offset="0" stop-color="#00e6ff"/><stop offset="1" stop-color="#0095c3"/></linearGradient><linearGradient x1="257.97531" y1="207.83183" x2="252.61395" y2="226.05971" gradientUnits="userSpaceOnUse" id="color-9"><stop offset="0" stop-color="#ffe4ba"/><stop offset="1" stop-color="#ddb980"/></linearGradient><linearGradient x1="267.45651" y1="172.05325" x2="255.88724" y2="211.3871" gradientUnits="userSpaceOnUse" id="color-10"><stop offset="0" stop-color="#00ffff"/><stop offset="1" stop-color="#00a1ab"/></linearGradient><linearGradient x1="257.84643" y1="207.70706" x2="256.10634" y2="213.62313" gradientUnits="userSpaceOnUse" id="color-11"><stop offset="0" stop-color="#00ffff"/><stop offset="1" stop-color="#00a1ab"/></linearGradient><linearGradient x1="213.24926" y1="171.77123" x2="226.78557" y2="210.47225" gradientUnits="userSpaceOnUse" id="color-12"><stop offset="0" stop-color="#00ffff"/><stop offset="1" stop-color="#00a1ab"/></linearGradient><linearGradient x1="225.01699" y1="204.91098" x2="231.28991" y2="222.8456" gradientUnits="userSpaceOnUse" id="color-13"><stop offset="0" stop-color="#ffe4ba"/><stop offset="1" stop-color="#ddb980"/></linearGradient><linearGradient x1="223.99789" y1="205.00258" x2="226.03384" y2="210.82346" gradientUnits="userSpaceOnUse" id="color-14"><stop offset="0" stop-color="#00ffff"/><stop offset="1" stop-color="#00a1ab"/></linearGradient></defs><g transform="translate(-196.35481,-76.4691)"><g data-paper-data="{&quot;isPaintingLayer&quot;:true}" fill-rule="nonzero" stroke-linejoin="miter" stroke-miterlimit="10" stroke-dasharray="" stroke-dashoffset="0" style="mix-blend-mode: normal"><path d="M223.18158,272.5309v-48.66667h17.33334v48.66667z" fill="url(#color-1)" stroke="#000000" stroke-width="2" stroke-linecap="butt"/><path d="M242.51491,272.86424v-48.66667h17.33333v48.66667z" fill="url(#color-2)" stroke="#000000" stroke-width="2" stroke-linecap="butt"/><path d="M222.3207,231.20642v-65.91871h38.10583v65.91871z" fill="url(#color-3)" stroke="#000000" stroke-width="2" stroke-linecap="butt"/><path d="M241.36387,173.1794c-22.79904,0 -41.28132,-17.45276 -41.28132,-38.98183c0,-21.52907 18.48228,-38.98183 41.28132,-38.98183c22.79904,0 41.28132,17.45276 41.28132,38.98183c0,21.52907 -18.48228,38.98183 -41.28132,38.98183z" fill="url(#color-4)" stroke="#000000" stroke-width="2" stroke-linecap="butt"/><path d="M227.57668,153.00615c-4.35419,0 -7.88396,-6.7654 -7.88396,-15.11094c0,-8.34554 3.52976,-15.11094 7.88396,-15.11094c4.35419,0 7.88396,6.7654 7.88396,15.11094c0,8.34554 -3.52976,15.11094 -7.88396,15.11094z" fill="#000000" stroke="#000000" stroke-width="2" stroke-linecap="butt"/><path d="M249.76328,150.85483c-4.3542,0 -7.88397,-6.7654 -7.88397,-15.11094c0,-8.34554 3.52977,-15.11093 7.88397,-15.11093c4.35419,0 7.88396,6.76539 7.88396,15.11093c0,8.34554 -3.52976,15.11094 -7.88396,15.11094z" fill="#000000" stroke="#000000" stroke-width="2" stroke-linecap="butt"/><path d="M227.92366,128.14491c0,-1.38071 1.11929,-2.5 2.5,-2.5c1.38071,0 2.5,1.11929 2.5,2.5c0,1.38071 -1.11929,2.5 -2.5,2.5c-1.38071,0 -2.5,-1.11929 -2.5,-2.5z" fill="#ffffff" stroke="none" stroke-width="0.5" stroke-linecap="butt"/><path d="M250.9089,125.47825c0,-1.38071 1.11929,-2.5 2.5,-2.5c1.38071,0 2.5,1.11929 2.5,2.5c0,1.38071 -1.11929,2.5 -2.5,2.5c-1.38071,0 -2.5,-1.11929 -2.5,-2.5z" fill="#ffffff" stroke="none" stroke-width="0.5" stroke-linecap="butt"/><path d="M221.01638,114.75696l8.32196,-0.219" fill="none" stroke="#000000" stroke-width="2" stroke-linecap="round"/><path d="M246.85826,113.54763l6.56997,-0.219" fill="none" stroke="#000000" stroke-width="2" stroke-linecap="round"/><path d="M241.15462,106.92079c-22.01287,0 -43.79981,9.30156 -43.79981,-2.30471c0,-11.60627 20.47294,-27.14698 42.48581,-27.14698c22.01287,0 41.60982,14.22672 41.60982,25.83299c0,11.60627 -18.28295,3.6187 -40.29582,3.6187z" fill="url(#color-5)" stroke="#000000" stroke-width="2" stroke-linecap="butt"/><path d="M241.37361,101.55899c-4.95894,0 -8.97896,-3.67684 -8.97896,-8.21246c0,-4.53561 4.02002,-8.21246 8.97896,-8.21246c4.95894,0 8.97896,3.67684 8.97896,8.21246c0,4.53561 -4.02002,8.21246 -8.97896,8.21246z" fill="#ffffff" stroke="#000000" stroke-width="2" stroke-linecap="butt"/><path d="M240.72144,111.95831c-17.8401,0 -32.30236,-3.30845 -32.30236,-7.38965c0,-4.08118 14.46226,-7.38965 32.30236,-7.38965c17.8401,0 32.30236,3.30845 32.30236,7.38965c0,4.08118 -14.46226,7.38965 -32.30236,7.38965z" fill="url(#color-6)" stroke="#000000" stroke-width="2" stroke-linecap="butt"/><text transform="matrix(0.22735 0 0 0.22735 235.67964 89.50416)" font-size="40"  fill="#00ffff" fill-rule="nonzero" stroke="none" stroke-width="1" stroke-linecap="butt" stroke-linejoin="miter" stroke-miterlimit="10" stroke-dasharray="" stroke-dashoffset="0" font-family="Helvetica" font-weight="normal" text-anchor="start" style="mix-blend-mode: normal" >CP</text><text transform="matrix(0.60554 0 0 0.60554 227.13868 186.87113)" font-size="40"  fill="#006f6f" fill-rule="nonzero" stroke="none" stroke-width="1" stroke-linecap="butt" stroke-linejoin="miter" stroke-miterlimit="10" stroke-dasharray="" stroke-dashoffset="0" font-family="Helvetica" font-weight="normal" text-anchor="start" style="mix-blend-mode: normal" >CP</text><path d="M230.84824,281.5309c-7.54789,0 -13.66667,-3.5071 -13.66667,-7.83333c0,-4.32623 6.11878,-7.83333 13.66667,-7.83333c7.54789,0 13.66667,3.5071 13.66667,7.83333c0,4.32623 -6.11878,7.83333 -13.66667,7.83333z" fill="url(#color-7)" stroke="#000000" stroke-width="2" stroke-linecap="butt"/><path d="M254.51492,282.5309c-7.54789,0 -13.66666,-3.5071 -13.66666,-7.83333c0,-4.32623 6.11877,-7.83333 13.66666,-7.83333c7.54789,0 13.66666,3.5071 13.66666,7.83333c0,4.32623 -6.11877,7.83333 -13.66666,7.83333z" fill="url(#color-8)" stroke="#000000" stroke-width="2" stroke-linecap="butt"/><path d="M226.05259,167.16684c-6.73216,0 -12.18959,-1.90273 -12.18959,-4.25017c0,-2.34728 5.45747,-4.25017 12.18959,-4.25017c6.73216,0 12.18959,1.90273 12.18959,4.25017c0,2.34728 -5.45747,4.25017 -12.18959,4.25017z" fill="#ffffff" stroke="#000000" stroke-width="2" stroke-linecap="butt"/><g stroke="#000000" stroke-width="2" stroke-linecap="butt"><path d="M252.61395,226.05971c-5.38672,-1.5844 -8.55334,-6.94925 -7.07284,-11.98274c1.4805,-5.03349 7.04749,-7.82953 12.4342,-6.24514c5.38671,1.58439 8.55334,6.94926 7.07284,11.98274c-1.4805,5.0335 -7.04749,7.82953 -12.4342,6.24514z" fill="url(#color-9)"/><path d="M249.81129,209.59998l11.56927,-39.33385l12.15193,3.57425l-11.56927,39.33385z" fill="url(#color-10)"/><path d="M256.10633,213.62312c-4.45949,-1.31167 -7.68509,-3.69934 -7.20458,-5.33302c0.48051,-1.63368 4.48518,-1.89471 8.94467,-0.58304c4.4595,1.31167 7.6851,3.69934 7.20459,5.33302c-0.48051,1.63368 -4.48519,1.89471 -8.94468,0.58304z" fill="url(#color-11)"/></g><g stroke="#000000" stroke-width="2" stroke-linecap="butt"><path d="M220.80736,212.56322l-13.53631,-38.70101l11.95641,-4.18195l13.53631,38.70101z" fill="url(#color-12)"/><path d="M231.28991,222.8456c-5.30006,1.85378 -11.00084,-0.65823 -12.73306,-5.61074c-1.73222,-4.95251 1.16009,-10.4701 6.46013,-12.32387c5.30006,-1.85378 11.00084,0.65823 12.73306,5.61074c1.73222,4.95251 -1.16009,10.4701 -6.46013,12.32387z" fill="url(#color-13)"/><path d="M226.03384,210.82346c-4.38775,1.53469 -8.40048,1.47575 -8.9627,-0.13164c-0.56221,-1.60739 2.539,-4.15455 6.92675,-5.68924c4.38775,-1.53469 8.40048,-1.47575 8.9627,0.13164c0.56221,1.60739 -2.539,4.15455 -6.92675,5.68924z" fill="url(#color-14)"/></g></g></g></svg>