<svg version="1.1" width="216" height="165" viewBox="-1 -1 216 165" xmlns="http://www.w3.org/2000/svg" xmlns:xlink="http://www.w3.org/1999/xlink">
  <defs>
    <linearGradient id="grad_1" y2="1">
      <stop offset="0" stop-color="#FFFFFF" stop-opacity="1"/>
      <stop offset="1" stop-color="#FFFFFF" stop-opacity="0"/>
    </linearGradient>
    <linearGradient id="grad_2" y2="1">
      <stop offset="0" stop-color="#FFFFFF" stop-opacity="1"/>
      <stop offset="1" stop-color="#FFFFFF" stop-opacity="0"/>
    </linearGradient>
  </defs>
  <!-- Exported by Scratch - http://scratch.mit.edu/ -->
  <g id="ID0.6225903644226491" transform="matrix(1, 0, 0, 1, -196, -108)">
    <g id="ID0.7042090003378689" transform="matrix(1, 0, 0, 1, 68, 72)">
      <path id="ID0.5144429598003626" fill="#F9C4F7" d="M 45.638 120.479 C 43.910 119.311 43.367 117.966 41.389 117.208 C 39.472 116.488 37.890 116.837 36.139 117.829 C 32.410 119.973 30.557 124.385 32.222 128.182 C 33.014 130.008 33.243 129.778 34.805 131.061 C 37.138 132.987 39.096 133.979 42.222 133.862 C 45.326 133.747 47.367 131.588 50.303 130.591 C 54.657 129.096 57.178 129.171 61.553 130.438 C 63.532 131.001 70.656 134 73.218 133.003 C 77.675 131.274 80.925 128.742 85.633 130.047 C 90.424 131.391 92.382 134.111 97.299 134.485 C 101.255 134.778 103.630 133.940 107.213 132.381 C 109.151 131.544 109.754 130.337 110.546 128.490 C 111.317 126.678 111.546 126.095 111.546 124.133 C 111.546 120.557 109.462 116.529 105.631 116.821 C 102.819 117.037 101.193 117.075 98.465 117.834 C 96.902 118.258 50.325 119.389 45.638 120.479 Z " transform="matrix(1, 0, 0, 1, 97, 33)"/>
      <path id="ID0.26307614939287305" fill="#FFFF6E" d="M 61.885 42.195 C 59.843 41.417 58.469 43.031 56.552 44.140 C 54.552 45.307 52.032 44.432 50.803 42.584 C 49.616 40.793 49.178 38.849 46.970 38.538 C 44.554 38.187 43.825 40.755 41.472 41.416 C 41.160 39.315 41.534 37.855 42.472 35.969 C 43.181 34.529 43.618 34.218 44.972 33.245 C 47.972 31.066 50.200 30.600 53.970 29.899 C 57.949 29.160 59.955 26.746 61.122 23.186 C 61.851 20.969 61.573 18.986 62.469 16.826 C 63.739 13.754 63.510 11.419 66.052 9.045 C 68.302 6.945 70.552 7.139 73.634 6.477 C 79.113 5.311 85.840 7.411 86.340 12.936 C 89.028 12.761 91.819 13.929 92.922 16.204 C 94.256 18.947 92.547 21.399 91.048 24.220 C 89.507 23.364 89.673 21.943 88.964 20.407 C 88.235 18.812 87.193 18.209 85.882 16.983 C 84.715 15.894 84.194 14.862 82.633 14.338 C 81.029 13.812 79.612 15.115 78.966 16.593 C 77.820 19.200 77.758 20.873 77.550 23.675 C 77.238 27.955 76.509 30.620 73.467 33.946 C 72.738 34.744 72.405 35.600 71.300 35.658 C 70.071 35.716 69.384 34.684 68.217 35.035 C 66.135 35.677 66.135 37.875 66.135 39.937 C 64.468 40.058 62.718 40.854 61.885 42.195 Z " transform="matrix(1, 0, 0, 1, 97, 33)"/>
      <path id="ID0.41178736789152026" fill="#F9C4F7" d="M 70.884 48.108 C 70.592 51.766 68.634 53.477 67.051 56.824 C 63.302 64.723 55.595 71.258 46.888 68.030 C 44.930 67.603 43.013 67.213 42.555 65.384 C 42.304 64.450 43.888 64.372 44.720 63.827 C 46.554 62.583 47.470 61.727 49.054 60.248 C 51.637 57.835 52.970 56.280 55.554 53.867 C 58.802 50.832 59.427 47.837 63.385 45.619 C 66.051 44.144 71.092 45.230 70.884 48.108 Z " transform="matrix(1, 0, 0, 1, 97, 33)"/>
      <path id="ID0.7917356137186289" fill="#F9C4F7" d="M 72.549 59.003 L 92.296 59.003 L 92.296 63.789 L 72.549 63.789 C 73.217 62.041 73.008 60.792 72.549 59.003 Z " transform="matrix(1, 0, 0, 1, 97, 33)"/>
      <path id="ID0.8198357312940061" fill="#FF00FF" d="M 91.297 82.501 C 90.776 85.497 91.818 87.171 92.296 90.129 C 93.047 94.739 93.215 97.365 93.713 102.033 C 94.172 106.429 95.151 108.804 96.796 112.929 C 98.172 116.353 98.234 119.209 101.546 121.175 C 102.984 119.832 105.484 121.062 106.378 122.734 C 107.482 124.796 104.982 126.334 103.128 127.872 C 101.566 129.154 99.463 129.154 97.713 128.025 C 94.921 126.214 94.505 123.746 91.297 122.657 C 87.006 121.219 83.548 122.678 80.131 125.459 C 78.133 127.094 76.590 128.456 73.966 128.025 C 71.279 127.580 70.300 126.082 68.050 124.679 C 66.217 123.549 65.467 122.421 63.467 121.644 C 60.718 120.576 58.572 120.984 55.801 122.111 C 51.344 123.923 49.198 127.771 44.387 128.103 C 41.991 128.256 41.116 128.568 38.720 128.334 C 36.886 128.158 36.282 126.313 36.220 124.601 C 36.158 122.695 36.845 120.300 38.886 120.400 C 40.990 120.498 41.824 121.996 43.053 123.588 C 46.344 120.864 45.157 117.499 45.886 113.397 C 46.657 109.080 47.281 106.824 48.052 102.501 C 49.135 96.336 51.719 93.339 55.801 88.418 C 57.677 86.160 59.426 85.284 60.384 82.582 C 66.030 75.539 72.299 73.185 75.049 64.606 C 77.028 58.439 76.674 52.175 70.799 48.887 C 67.841 55.520 66.924 60.170 61.300 65.072 C 59.655 66.491 58.863 67.639 56.800 68.495 C 52.114 70.441 47.468 69.526 44.052 66.004 C 50.968 61.161 55.842 59.196 60.883 52.464 C 62.696 50.033 62.883 48.419 64.299 45.773 C 64.299 44.217 65.612 43.633 66.216 42.194 C 68.154 37.642 71.590 35.521 76.715 34.335 C 76.715 38.012 79.611 40.599 83.464 41.338 C 84.672 41.571 86.068 41.999 86.630 40.948 C 86.942 40.345 86.338 39.898 85.964 39.315 C 84.776 37.447 83.381 36.494 83.381 34.335 C 85.569 34.335 86.630 35.482 88.380 36.747 C 90.963 38.615 92.526 40.658 92.129 43.673 C 91.920 45.347 91.317 46.222 90.380 47.642 C 89.901 48.362 88.962 48.381 88.713 49.198 C 87.880 51.805 89.275 53.400 89.629 56.124 C 91.006 66.457 91.297 72.172 91.297 82.501 Z " transform="matrix(1, 0, 0, 1, 97, 33)"/>
      <path id="ID0.7261377740651369" fill="#F9C4F7" d="M 88.963 48.618 C 89.870 49.250 90.505 49.493 91.588 49.824 C 94.109 50.602 95.702 51.098 98.295 50.680 C 99.161 50.543 99.660 50.368 100.545 50.329 C 101.768 50.280 102.725 49.706 103.670 50.407 C 104.753 51.214 105.201 51.847 106.087 52.858 C 107.108 54.025 107.858 54.551 108.628 55.854 C 109.044 56.554 110.391 56.671 110.045 57.410 C 109.891 57.760 109.534 57.789 109.169 57.955 C 107.201 58.869 105.867 59.112 103.712 58.810 C 102.807 58.683 102.285 58.907 101.379 58.849 C 98.411 58.645 96.755 58.499 93.839 57.915 C 92.838 57.720 92.296 57.478 91.338 57.137 C 90.518 56.845 89.536 56.961 89.339 56.165 C 89.213 55.630 89.235 55.309 89.172 54.764 C 88.922 52.583 89.488 50.748 88.963 48.618 Z " transform="matrix(1, 0, 0, 1, 97, 33)"/>
      <path id="ID0.5175564126111567" fill="#FFDFA4" d="M 104.150 51.037 C 105.079 50.823 105.158 50.391 105.796 49.730 C 107.182 48.291 107.951 47.502 108.879 45.762 C 110.072 43.515 110.003 41.793 111.879 40.043 C 112.858 39.129 113.430 38.496 114.711 38.020 C 115.766 37.631 116.680 37.280 117.627 37.864 C 118.003 38.098 118.398 38.263 118.376 38.681 C 118.346 39.255 117.738 39.382 117.210 39.654 C 115.814 40.374 114.670 40.802 114.170 42.221 C 115.608 42.017 116.399 41.658 117.836 41.793 C 118.305 41.832 118.721 42.172 118.669 42.610 C 118.544 43.572 117.461 43.641 116.545 44.088 C 116.281 44.215 115.930 44.205 115.878 44.478 C 115.805 44.838 116.024 45.305 116.419 45.295 C 117.045 45.275 117.377 44.983 118.003 45.023 C 118.815 45.071 119.512 44.887 120.043 45.451 C 120.355 45.781 120.498 45.714 120.188 46.053 C 119.104 47.211 116.877 47.085 116.210 48.486 C 115.598 49.779 114.889 50.742 113.378 50.976 C 112.531 51.102 112.057 51.171 111.212 51.171 C 110.596 51.171 109.906 50.820 109.629 51.326 C 108.930 52.572 108.525 53.252 108.044 54.595 L 104.150 51.037 Z " transform="matrix(1, 0, 0, 1, 97, 33)"/>
      <path id="ID0.47115641878917813" fill="#FFDFA4" d="M 49.178 68.615 C 48.803 69.510 46.648 72.594 45.470 72.545 C 43.648 72.467 42.627 72.943 40.970 73.712 C 39.803 74.257 39.178 74.647 38.263 75.503 C 37.742 75.986 37.116 76.251 37.138 76.941 C 37.170 77.701 38.429 77.388 39.221 77.171 C 40.085 76.941 40.502 76.665 41.345 76.357 C 41.075 76.991 40.877 77.527 40.512 78.109 C 39.554 79.656 38.950 80.453 39.095 82.234 C 39.126 82.679 39.147 83.029 39.512 83.324 C 39.991 83.703 40.523 83.284 41.095 83.051 C 42.480 82.477 42.438 81.223 43.345 80.094 C 43.345 81.807 43.762 82.740 44.345 84.373 C 44.605 85.103 45.095 85.959 45.887 85.734 C 46.803 85.472 46.814 84.546 46.969 83.672 C 47.282 81.990 47.595 81.067 48.177 79.434 C 48.740 77.858 49.895 76.417 51.635 76.707 C 53.156 76.973 53.573 79.305 54.968 78.689 C 56.385 78.068 56.270 76.125 55.301 74.957 C 54.718 74.247 54.229 73.857 53.302 73.635 C 52.666 73.479 51.812 73.469 51.844 72.857 C 51.938 71.115 54.010 70.862 54.469 69.121 C 52.594 68.583 51.053 69.148 49.178 68.615 Z " transform="matrix(1, 0, 0, 1, 97, 33)"/>
      <path id="ID0.12976865284144878" fill="#E179FF" d="M 55.719 138.294 C 55.969 137.361 56.261 136.815 56.886 136.037 C 59.531 139.754 63.822 141.835 68.217 140.161 C 69.092 139.832 70.613 139.015 69.884 138.450 C 68.947 137.711 68.239 137.435 67.135 136.971 C 65.052 136.094 63.154 134.700 62.134 132.791 C 61.176 130.980 61.469 129.850 59.470 129.107 C 57.345 128.331 54.387 127.961 53.637 129.961 C 52.742 132.356 51.575 133.482 50.804 135.953 C 50.200 137.908 53.575 138.294 55.719 138.294 Z " transform="matrix(1, 0, 0, 1, 97, 33)"/>
      <path id="ID0.9403871474787593" fill="#E179FF" d="M 88.463 130.668 C 87.859 133.566 86.673 139.909 87.547 140.477 C 88.213 140.905 91.505 140.145 92.713 140.006 C 92.817 139.016 92.567 138.024 93.464 137.520 C 94.045 137.188 97.068 140.477 98.796 140.477 C 101.984 140.477 105.295 140.206 106.295 137.367 C 104.045 136.490 102.254 137.370 100.129 136.274 C 96.484 134.398 93.088 132.381 88.463 130.668 Z " transform="matrix(1, 0, 0, 1, 97, 33)"/>
      <path id="ID0.44381743762642145" fill="#272525" d="M 86.505 12.700 C 94.255 12.824 96.594 19.740 91.047 24.223 C 91.331 25.604 92.861 29.946 91.838 31.109 C 90.550 32.571 86.460 32.088 84.590 31.731 C 84.346 32.123 84.594 32.897 84.591 33.329 C 85.797 32.185 88.423 32.277 88.255 34.688 C 89.005 34.455 90.061 34.325 90.755 34.923 C 91.668 35.703 91.964 37.295 90.964 38.385 C 91.422 39.008 91.940 39.402 92.500 40.361 C 94.134 43.149 92.552 47.462 89.249 48.507 C 91.129 61.480 91.968 74.552 93.421 87.569 C 94.692 98.932 95.268 114.215 103.660 123.387 C 103.534 123.540 98.713 122.034 94.829 111.749 C 89.034 96.400 91.182 81.033 89.355 65.254 C 88.699 59.540 87.876 54.067 87.334 48.345 C 88.040 48.082 88.882 47.918 89.543 47.333 C 94.836 42.640 89.185 39.185 85.345 35.605 C 85.574 37.447 87.988 39.403 88.215 41.828 C 84.396 44.120 75.478 39.610 75.972 35.251 C 74.800 35.485 74.070 35.890 73.156 36.212 C 73.116 36.809 73.462 37.179 73.535 37.780 C 74.827 38.238 75.769 37.795 76.514 39.147 C 77.493 40.922 76.637 42.335 75.106 43.498 C 77.579 47.502 71.630 53.131 68.879 47.956 C 65.512 49.227 62.832 49.028 63.512 45.066 C 62.494 45 61.320 44.411 60.880 43.598 C 60.183 42.309 61.380 39.630 64.880 39.241 C 64.630 37.918 64.350 37.506 65.463 35.606 C 66.797 33.327 70.379 32.900 72.407 35.207 C 73.710 34.481 77.777 34.478 76.513 31.507 C 75.422 32.326 73.756 34.793 72.294 35.086 C 73.435 33.909 76.386 29.491 76.668 27.179 C 77.263 22.305 75.959 16.257 81.335 13.648 C 75.833 12.668 71.940 15.939 70.961 19.019 C 70.115 21.673 72.437 25.381 70.932 27.966 C 67.808 33.330 62.863 31.400 59.989 35.859 C 58.815 37.682 58.194 39.759 57.010 41.576 C 56.155 41.277 56.003 40.137 55.981 39.401 C 55.751 31.707 65.323 32.300 69.033 28.973 C 72.692 25.693 67.753 22.277 69.254 18.505 C 70.900 14.369 76.545 11.929 82.476 12.788 C 82.798 13.196 82.040 13.280 81.827 13.496 C 82.773 13.319 83.714 13.303 84.340 13.952 C 86.098 15.775 89.548 19.359 90.630 23.056 C 92.527 20.541 94.880 13.446 85.729 13.294 C 85.797 5.082 73.289 5.820 68.134 9.517 C 60.513 14.984 64.320 29.318 53.873 31.356 C 49.136 32.280 44.320 31.952 42.138 39.787 C 45.304 36.908 49.866 37.288 50.785 38.895 C 51.784 40.639 50.811 42.804 53.386 43.650 C 56.503 44.675 57.512 40.611 60.374 41.576 L 60.537 42.284 C 57.999 42.715 58.399 45.498 55.823 46.534 C 48.897 49.318 50.846 38.053 45.585 39.602 C 43.988 40.073 42.571 42.468 42.063 43.852 C 39.517 43.529 41.351 35.673 42.171 34.290 C 44.567 30.249 50.855 30.299 55.030 29.352 C 62.125 27.742 61.467 15.508 63.136 12.282 C 65.110 8.470 69.134 5.158 75.800 5.002 C 78.988 4.928 85.340 6.555 86.299 9.593 C 86.555 10.399 86.455 11.856 86.505 12.700 Z " transform="matrix(1, 0, 0, 1, 97, 33)"/>
      <path id="ID0.3764053229242563" fill="#272525" d="M 82.480 11.672 C 80.197 11.547 77.724 10.255 75.435 10.674 C 64.775 12.624 70.432 26.716 58.861 32.819 C 55.167 34.768 52.683 35.984 48.296 36.210 C 52.293 35.226 57.228 33.498 60.311 30.960 C 63.144 28.629 63.999 25.475 64.928 21.993 C 66.350 16.661 67.191 11.825 73.811 10.002 C 76.602 9.235 79.900 10.106 82.480 11.672 Z " transform="matrix(1, 0, 0, 1, 97, 33)"/>
      <path id="ID0.8122409950010478" fill="#FFBC99" d="M 80.882 20.796 C 83.006 21.341 83.090 19.551 81.924 18.462 C 81.100 17.691 78.663 18.705 77.839 19.085 C 77.193 19.386 77.641 21.067 78.284 21.262 C 79.038 21.498 80.126 20.604 80.882 20.796 Z " transform="matrix(1, 0, 0, 1, 97, 33)"/>
      <path id="ID0.5946966581977904" fill="#FFBC99" d="M 87.173 20.138 C 86.040 20.426 85.020 20.658 85.130 20.059 C 85.359 18.855 86.048 17.686 87.317 18.254 C 87.854 18.494 88.186 18.805 88.381 19.320 C 88.548 19.736 87.654 20.138 87.173 20.138 Z " transform="matrix(1, 0, 0, 1, 97, 33)"/>
      <path id="ID0.3648532754741609" fill="#FFDFA4" d="M 90.672 29.900 C 88.901 31.642 85.506 31.029 83.022 30.290 C 81.799 34.880 84.141 37.711 86.110 40.813 C 82.616 41.277 79.709 38.538 78.089 35.956 C 78.277 33.557 78.465 30.951 77.131 28.305 C 78.975 24.634 75.049 16.050 83.589 14.299 C 87.562 17.958 90.887 24.521 90.672 29.900 Z " transform="matrix(1, 0, 0, 1, 97, 33)"/>
      <path id="ID0.5017033303156495" fill="#272525" d="M 85.547 19.940 C 85.966 21.929 87.173 23.365 88.548 24.570 C 89.330 26.216 85.654 27.394 83.669 25.787 C 83.422 25.504 83.548 25.115 83.940 25.180 C 84.911 25.248 86.717 26.027 87.408 24.826 C 86.301 23.754 84.836 22.455 84.218 19.940 C 84.100 19.458 85.458 19.500 85.547 19.940 Z " transform="matrix(1, 0, 0, 1, 97, 33)"/>
      <path id="ID0.2665619608014822" fill="#272525" d="M 115.387 41.590 C 117.112 40.721 123.499 40.975 116.727 44.468 C 118.219 44.749 120.755 43.659 121.709 45.385 C 120.751 47.563 117.230 46.051 115.661 49.995 C 114.921 51.860 111.880 51.848 110.195 51.797 L 109.011 54.072 C 109.812 54.949 113.289 57.193 113.681 58.218 C 113.970 58.989 112.900 59.398 112.273 59.534 C 106.570 60.763 94.388 60.848 89.794 56.825 C 89.983 56.253 89.273 55.337 90.065 55.105 C 96.237 57.653 102.044 58.414 108.752 57.005 C 108.752 57.005 104.814 53.025 103.011 51.136 C 100.163 51.811 90.740 52.259 88.798 49.445 C 88.437 48.922 88.793 48.139 89.339 47.876 C 92.812 49.175 97.420 51.301 103.443 49.315 C 104.818 50.596 106.878 51.944 108.121 53.320 C 108.464 52.677 109.050 51.047 109.777 50.765 C 113.722 52.015 115.298 48.751 116.023 47.209 C 117.347 46.604 120.036 45.986 119.939 45.645 C 119.845 45.304 118.066 45.113 117.275 45.324 C 117.256 47.067 114.877 46.832 113.693 48.362 C 112.161 50.349 110.797 50.435 109.661 49.839 C 109.849 49.011 110.846 49.727 111.449 49.316 C 112.845 48.367 113.084 46.335 115.228 46.304 C 115.972 46.345 115.954 45.659 115.954 45.659 C 114.933 44.112 111.937 46.149 111.109 46.626 C 110.752 46.505 110.582 46.095 110.943 45.799 C 112.255 44.727 113.754 44.844 115.138 44.125 C 115.451 43.963 117.695 42.867 118.209 42.164 C 116.526 41.605 114.021 42.437 112.293 44.081 C 113.314 41.579 116.735 39.530 117.798 38.447 C 117.460 37.921 115.519 38.367 115.006 38.552 C 110.239 40.274 110.293 48.462 105.716 50.691 L 104.793 50.212 C 106.627 48.811 108.286 46.169 108.791 44.505 C 109.720 41.436 111.983 37.582 115.728 37.052 C 116.861 36.891 118.999 37.250 119.329 38.012 C 119.684 38.788 115.949 40.686 115.387 41.590 Z " transform="matrix(1, 0, 0, 1, 97, 33)"/>
      <path id="ID0.6519624092616141" fill="#9145FF" d="M 87.193 35.147 C 86.587 34.785 86.128 34.253 85.623 33.781 C 86.169 32.667 88.007 33.979 87.193 35.147 Z " transform="matrix(1, 0, 0, 1, 97, 33)"/>
      <path id="ID0.4338096478022635" fill="#9145FF" d="M 90.381 37.877 C 90.381 37.877 88.729 36.427 87.945 35.856 C 89.213 34.920 91.006 35.583 90.381 37.877 Z " transform="matrix(1, 0, 0, 1, 97, 33)"/>
      <path id="ID0.36549787130206823" fill="#9145FF" d="M 74.216 40.484 C 74.667 43.006 72.878 42.260 71.860 42.535 C 73.016 44.102 74.506 46.214 71.589 47.290 C 70.371 47.740 69.697 46.230 69.097 45.570 C 67.843 46.320 67.496 46.535 66.226 46.430 C 65.216 45.766 65.718 44.607 66.390 43.647 C 65.136 43.752 64.407 43.482 64.168 42.788 C 63.935 42.108 64.385 40.328 67.147 41.066 C 66.627 38.749 67.259 34.362 70.939 36.816 C 71.873 37.439 71.635 38.770 71.551 39.860 C 72.705 39.941 74.050 39.549 74.216 40.484 Z " transform="matrix(1, 0, 0, 1, 97, 33)"/>
      <path id="ID0.0662639569491148" fill="#272525" d="M 85.895 47.292 C 85.891 48.547 84.448 50.136 83.291 50.682 C 81.436 51.561 79.236 50.522 77.883 49.434 C 77.288 48.957 77.807 47.609 78.215 47.955 C 81.674 50.874 84.380 48.731 85.895 47.292 Z " transform="matrix(1, 0, 0, 1, 97, 33)"/>
      <path id="ID0.34639872098341584" fill="#272525" d="M 64.057 47.632 C 62.137 54.490 53.272 61.507 45.474 66.302 C 47.104 67.387 49.576 67.757 51.473 67.911 C 58.477 68.485 61.827 64.079 65.086 58.763 C 66.942 55.735 68.952 52.582 69.366 49.049 L 71.857 49.049 C 71.857 49.470 70.974 52.549 70.634 53.361 C 68.516 58.446 65.072 65.791 59.775 68.629 C 54.647 71.378 45.805 69.157 41.680 65.848 C 49.114 61.507 59.710 53.448 63.636 46.046 C 64.226 46.042 63.770 47.275 64.057 47.632 Z " transform="matrix(1, 0, 0, 1, 97, 33)"/>
      <path id="ID0.6976527692750096" fill="#272525" d="M 72.406 49.965 C 76.609 53.310 78.411 59.921 77.060 64.744 C 74.191 74.979 61.665 81.134 55.823 89.991 C 51.151 97.075 47.372 105.597 47.372 114.021 C 47.372 118.323 46.075 123.228 41.521 125.206 C 41.521 125.206 43.253 122.875 44.012 121.462 C 45.706 118.309 45.412 113.436 46.071 109.926 C 48.014 99.581 50.467 88.287 58.965 80.784 C 65.784 74.763 76.561 68.871 74.945 58.675 C 74.543 56.130 73.320 52.489 71.754 50.320 C 71.818 50.016 72.102 49.901 72.406 49.965 Z " transform="matrix(1, 0, 0, 1, 97, 33)"/>
      <path id="ID0.3057024898007512" fill="#272525" d="M 89.839 58.757 C 90.218 59.060 90.486 59.364 90.381 59.871 C 88.796 60.656 86.266 59.921 84.259 59.972 C 81.391 59.820 78.461 59.770 75.536 59.718 C 75.157 59.364 75.101 58.909 75.157 58.404 L 76.295 57.798 C 80.958 57.850 85.342 58.049 89.839 58.757 Z " transform="matrix(1, 0, 0, 1, 97, 33)"/>
      <path id="ID0.6412952528335154" fill="#272525" d="M 75.109 122.675 C 66.774 107.621 83.335 93.754 81.558 78.356 C 81.120 74.563 80.148 69.646 81.340 65.960 C 81.131 75.577 86.056 81.739 82.748 89.991 C 77.355 103.460 72.549 108.650 75.109 122.675 Z " transform="matrix(1, 0, 0, 1, 97, 33)"/>
      <path id="ID0.9113225913606584" fill="#272525" d="M 87.842 90.145 C 86.352 98.166 85.190 105.223 90.008 112.610 C 90.319 113.085 92.213 116.899 92.393 119.036 C 89.251 114.985 83.923 109.598 83.401 104.466 C 82.192 92.618 89.458 81.816 86.757 68.039 C 89.213 74.101 89.029 83.770 87.842 90.145 Z " transform="matrix(1, 0, 0, 1, 97, 33)"/>
      <path id="ID0.3499644426628947" fill="#272525" d="M 48.188 123.891 C 48.890 122.268 50.161 119.602 50.626 118.426 C 55.567 105.947 50.274 96.710 63.899 86.955 C 67.619 84.292 73.053 79.623 76.221 72.230 C 76.747 76.500 70.564 84.772 67.312 87.563 C 62.476 91.709 56.958 94.619 55.827 101.274 C 54.854 106.995 55.302 118.688 48.188 123.891 Z " transform="matrix(1, 0, 0, 1, 97, 33)"/>
      <path id="ID0.1947708292864263" fill="#272525" d="M 50.398 68.956 L 47.040 73.054 C 44.151 73.444 39.681 73.935 38.056 76.669 C 38.392 77.294 40.298 76.301 40.639 76.047 C 42.097 74.957 42.984 74.619 44.548 74.522 C 43.596 76.047 38.529 80.338 40.089 82.461 C 40.089 82.461 41.097 81.882 41.431 81.570 C 43.337 79.632 44.168 76.546 47.312 76.189 C 47.312 76.189 43.703 82.203 45.221 84.681 C 46.911 84.126 47.283 80.413 47.961 79.021 C 49.196 76.482 52.086 74.601 53.970 77.915 C 54.326 78.542 55.163 77.689 55.220 77.202 C 55.502 74.816 51.953 74.284 50.291 73.558 C 50.391 72.229 51.738 70.580 52.620 69.561 C 53.303 68.773 55.488 69.200 54.732 70.269 L 52.891 72.799 C 54.579 73.586 56.359 74.841 56.683 76.695 C 56.833 77.554 56.220 78.769 55.261 79.742 C 54.303 80.716 52.964 76.221 50.940 77.202 C 48.992 78.146 48.058 84.204 46.901 85.747 C 44.823 88.516 42.971 84.019 43.139 81.809 C 42.159 83.338 39.178 85.778 38.139 83.328 C 37.542 81.917 40.005 78.640 40.596 77.375 C 38.738 77.813 36.784 78.377 36.348 77.920 C 35.475 77.001 37.894 74.127 39.781 72.957 C 41.515 71.881 44.063 72.185 45.888 71.538 C 46.888 70.760 47.864 70.089 48.340 68.556 C 49.028 68.503 49.811 68.596 50.398 68.956 Z " transform="matrix(1, 0, 0, 1, 97, 33)"/>
      <path id="ID0.18481231573969126" fill="#272525" d="M 61.566 117.314 C 58.802 108.183 64.216 100.577 72.510 89.994 C 74.026 88.058 75.383 86.630 77.550 79.706 C 78.397 84.553 73.862 91.957 70.669 95.609 C 64.480 102.691 61.441 107.854 61.566 117.314 Z " transform="matrix(1, 0, 0, 1, 97, 33)"/>
      <path id="ID0.2220838824287057" fill="#272525" d="M 98.963 116.584 C 102.213 116.001 105.973 114.753 109.025 116.354 C 111.480 117.635 112.808 119.333 112.924 122.071 C 113.146 127.108 109.945 132.259 104.959 134.216 C 91.628 139.441 89.453 128.732 80.688 130.673 C 75.180 131.896 71.977 138.099 66.003 134.819 C 63.243 133.307 61.988 131.036 58.690 130.421 C 48.923 128.599 43.463 139.482 35.178 133.105 C 33.497 131.810 31.458 129.084 31.115 127.035 C 30.349 122.453 33.330 113.716 39.729 115.044 C 41.464 115.402 43.616 117.168 43.900 118.891 C 44.097 120.080 42.112 118.563 42.059 118.537 C 38.009 116.630 32.648 121 32.687 124.860 C 32.715 127.721 35.245 130.776 38.158 131.636 C 46.428 134.085 53.826 123.241 63.132 129.362 C 71.268 134.711 74.238 131.059 82.203 127.893 C 87.974 125.600 90.908 131.592 95.474 133.108 C 99.224 134.345 104.246 133.938 107.177 131.287 C 113.808 125.282 109.941 116.373 103.437 117.830 C 103.017 117.923 101.458 118.071 100.041 118.616 C 99.334 118.883 98.908 117.159 98.963 116.584 Z " transform="matrix(1, 0, 0, 1, 97, 33)"/>
      <path id="ID0.6651282887905836" fill="#272525" d="M 41.415 123.129 C 39.641 121.567 35.142 122.346 37.407 125.711 C 38.951 128.003 42.706 127.740 45.208 127.275 C 49.226 126.540 52.603 121.831 57.290 120.499 C 69.956 116.898 68.949 128.814 75.872 127.023 C 78.327 126.388 80.658 124.294 82.753 122.925 C 85.346 121.228 87.365 120.681 90.555 121.558 C 94.159 122.546 95.712 125.228 98.463 127.175 C 100.602 128.687 105.402 126.916 105.775 124.491 C 106.463 120.004 102.291 122.679 101.713 121.326 C 100.568 118.638 106.359 117.700 107.565 120.494 C 108.960 123.727 106.294 127.331 103.666 129.197 C 95.892 134.716 92.658 121.600 85.463 123.631 C 80.720 124.972 78.506 130.224 72.624 129.197 C 68.094 128.406 66.659 123.426 62.114 122.670 C 54.967 121.482 51.922 125.425 46.349 128.136 C 43.873 129.341 39.069 129.478 36.760 127.881 C 31.275 124.093 38.204 116.050 41.310 120.599 C 41.712 121.202 41.585 122.477 41.415 123.129 Z " transform="matrix(1, 0, 0, 1, 97, 33)"/>
      <path id="ID0.14604567969217896" fill="#272525" d="M 88.793 132.007 C 89.934 134.186 88.956 136.714 88.688 138.942 L 91.831 138.942 C 91.831 137.475 91.940 134.589 91.940 134.589 C 93.836 136.915 96.272 139.443 99.465 139.546 C 100.874 139.600 103.797 138.916 104.561 137.727 C 102.553 137.272 100.444 136.967 98.708 135.908 L 98.708 135.554 C 101.687 135.808 104.884 136.314 108.187 136.262 C 108.623 136.616 108.623 137.072 108.293 137.478 C 105.640 140.415 101.250 142.031 97.133 140.767 C 95.728 140.564 94.644 139.351 93.612 138.588 L 93.506 140.866 C 91.177 140.967 88.735 141.219 86.463 141.119 C 86.519 140.006 86.569 133.377 87.765 131.911 C 88.197 131.756 88.416 132.163 88.793 132.007 Z " transform="matrix(1, 0, 0, 1, 97, 33)"/>
      <path id="ID0.18367537669837475" fill="#272525" d="M 90.088 63.352 C 90.468 63.656 90.736 63.959 90.630 64.465 C 89.797 64.920 86.516 64.515 84.509 64.566 C 81.639 64.414 78.712 64.363 75.786 64.313 C 75.407 63.959 75.353 63.504 75.407 62.998 L 76.545 62.391 C 81.207 62.438 85.593 62.644 90.088 63.352 Z " transform="matrix(1, 0, 0, 1, 97, 33)"/>
      <path id="ID0.6404719287529588" fill="#272525" d="M 54.518 129.592 C 55.013 131.971 53.371 134.176 52.492 136.260 L 55.528 137.024 C 55.934 135.606 56.839 132.846 56.839 132.846 C 58.026 135.550 59.679 138.584 62.739 139.453 C 64.085 139.842 67.097 139.891 68.162 138.924 C 66.352 138.001 62.056 136.430 61.708 132.647 L 61.807 132.305 C 63.640 135.339 68.869 137.635 72.075 138.384 C 72.396 138.831 72.269 139.274 71.844 139.583 C 68.466 141.773 63.779 142.277 60.153 140.062 C 58.848 139.525 58.138 138.088 57.354 137.109 L 56.618 139.284 C 54.341 138.816 51.915 138.472 49.746 137.826 C 50.106 136.764 51.996 130.376 53.553 129.246 C 54.008 129.207 54.106 129.648 54.518 129.592 Z " transform="matrix(1, 0, 0, 1, 97, 33)"/>
      <path id="ID0.739327204413712" fill="#D718B9" d="M 83.277 27.717 C 83.281 28.309 84.455 29.205 84.855 29.495 C 85.621 30.044 86.716 30.535 87.293 29.825 C 87.691 29.327 86.618 29.102 85.984 28.888 C 84.975 28.541 84.270 28.104 83.277 27.717 Z " transform="matrix(1, 0, 0, 1, 97, 33)"/>
      <path id="ID0.6724210055544972" fill="#9E0096" d="M 83.270 27.726 C 84.225 27.468 84.716 27.232 85.303 27.143 C 85.908 27.057 86.256 27.413 86.867 27.375 C 87.181 27.356 87.176 26.965 87.471 26.847 C 88.149 26.582 88.507 26.761 89.229 26.587 C 88.568 27.541 86.801 28.342 83.270 27.726 Z " transform="matrix(1, 0, 0, 1, 97, 33)"/>
      <path id="ID0.25180333014577627" fill="#272525" d="M 76.425 20.212 C 76.735 18.382 80.395 17.619 82.047 18.166 C 80.215 18.423 76.583 19.522 76.425 20.212 Z " transform="matrix(1, 0, 0, 1, 97, 33)"/>
      <path id="ID0.8201079433783889" fill="#272525" d="M 89.421 18.297 C 88.492 17.735 86.626 17.311 86.184 18.255 L 89.421 18.297 Z " transform="matrix(1, 0, 0, 1, 97, 33)"/>
      <path id="ID0.23819611500948668" fill="#272525" d="M 82.490 20.808 C 80.671 22.422 77.240 22.142 76.157 21.345 C 77.803 20.769 80.531 19.166 82.490 20.808 Z " transform="matrix(1, 0, 0, 1, 97, 33)"/>
      <path id="ID0.528225427493453" fill="#272525" d="M 80.357 21.241 C 80.240 20.870 80.378 20.508 80.667 20.432 C 80.954 20.356 81.279 20.595 81.396 20.967 C 81.508 21.338 81.373 21.699 81.084 21.776 C 80.797 21.851 80.473 21.608 80.357 21.241 Z " transform="matrix(1, 0, 0, 1, 97, 33)"/>
      <path id="ID0.5920839393511415" fill="#FFFFFF" d="M 81.464 20.916 C 80.727 21.573 79.436 21.443 79.068 21.199 C 79.751 20.682 80.789 20.493 81.464 20.916 Z " transform="matrix(1, 0, 0, 1, 97, 33)"/>
      <path id="ID0.29849900864064693" fill="#272525" d="M 89.658 19.034 C 89.470 19.890 89.150 20.220 88.835 20.427 C 87.758 21.122 86.546 20.893 86.012 20.467 C 86.748 19.574 87.574 19.041 88.427 19.059 C 88.857 19.065 89.092 19.326 89.658 19.034 Z " transform="matrix(1, 0, 0, 1, 97, 33)"/>
      <path id="ID0.4326655017212033" fill="#272525" d="M 88.143 20.042 C 88.042 19.717 88.164 19.399 88.413 19.333 C 88.659 19.268 88.942 19.477 89.042 19.802 C 89.146 20.128 89.022 20.444 88.774 20.510 C 88.525 20.579 88.245 20.369 88.143 20.042 Z " transform="matrix(1, 0, 0, 1, 97, 33)"/>
      <path id="ID0.7764583984389901" fill="#FFFFFF" d="M 89 19.702 C 88.516 20.392 87.566 20.322 87.286 20.098 C 87.738 19.545 88.475 19.312 89 19.702 Z " transform="matrix(1, 0, 0, 1, 97, 33)"/>
    </g>
    <g id="ID0.9023489928804338" transform="matrix(0.4444444477558136, 0, 0, 0.4444444477558136, 212, 76.7)">
      <path id="ID0.09253329830244184" fill="#FFFF00" stroke="#FFFF00" stroke-width="2" d="M 224.500 97.500 L 234.800 79.700 L 247.450 96.050 L 262.050 80.650 L 275.500 97.500 L 288.700 82.950 L 286.150 123.550 L 224.500 123.500 L 224.500 97.500 Z " transform="matrix(0.39420485496520996, 0, 0, 0.5357142686843872, -19.5, 31.8)"/>
      <path id="ID0.5417500040493906" fill="none" stroke="#FF0000" stroke-width="2" stroke-linecap="round" d="M 94.500 74.900 L 94.800 75.200 "/>
      <path id="ID0.2820471115410328" fill="none" stroke="#FF0000" stroke-width="2" stroke-linecap="round" d="M 83.300 73.950 L 83.600 74.250 "/>
      <path id="ID0.8687682445161045" fill="none" stroke="#FF0000" stroke-width="2" stroke-linecap="round" d="M 72.800 73.400 L 73.100 73.700 "/>
      <g id="ID0.65213811583817" transform="matrix(1, 0, 0, 1, 68, 72)">
        <path id="ID0.1449937978759408" fill="#00FFFF" stroke="none" d="M 53.125 84.300 C 54.387 84.300 55.531 84.813 56.359 85.641 C 57.187 86.469 57.700 87.613 57.700 88.875 C 57.700 90.137 57.187 91.281 56.359 92.109 C 55.531 92.937 54.387 93.450 53.125 93.450 C 51.863 93.450 50.719 92.937 49.891 92.109 C 49.063 91.281 48.550 90.137 48.550 88.875 C 48.550 87.613 49.063 86.469 49.891 85.641 C 50.719 84.813 51.863 84.300 53.125 84.300 Z " transform="matrix(0.39344263076782227, 0, 0, 0.39344263076782227, -15.2, -21.85)"/>
        <path id="ID0.1449937978759408" fill="url(#grad_1)" stroke="none" d="M 53.125 84.300 C 54.387 84.300 55.531 84.813 56.359 85.641 C 57.187 86.469 57.700 87.613 57.700 88.875 C 57.700 90.137 57.187 91.281 56.359 92.109 C 55.531 92.937 54.387 93.450 53.125 93.450 C 51.863 93.450 50.719 92.937 49.891 92.109 C 49.063 91.281 48.550 90.137 48.550 88.875 C 48.550 87.613 49.063 86.469 49.891 85.641 C 50.719 84.813 51.863 84.300 53.125 84.300 Z " transform="matrix(0.39344263076782227, 0, 0, 0.39344263076782227, -15.2, -21.85)"/>
      </g>
      <path id="ID0.09253329830244184" fill="url(#grad_2)" stroke="#000000" stroke-width="2" d="M 224.500 97.500 L 234.800 79.700 L 247.450 96.050 L 262.050 80.650 L 275.500 97.500 L 288.700 82.950 L 286.150 123.550 L 224.500 123.500 L 224.500 97.500 Z " transform="matrix(0.39420485496520996, 0, 0, 0.5357142686843872, -19.5, 31.7)"/>
    </g>
  </g>
</svg>