<svg xmlns="http://www.w3.org/2000/svg" xmlns:xlink="http://www.w3.org/1999/xlink" version="1.1" width="223.1699981689453" height="80.25" viewBox="-0.75 -0.25 223.1699981689453 80.25">
  <!-- Exported by Scratch - http://scratch.mit.edu/ -->
  <g id="ID0.6734785120934248">
    <path id="ID0.18426489690318704" fill="#7F7F7F" d="M 159.5 16 L 111.5 16 L 111.5 16 L 63.5 16 L 15.5 16 L 15.5 64 L 63.5 64 L 111.5 64 L 111.5 64 L 159.5 64 L 207.5 64 L 207.5 16 L 159.5 16 " stroke-width="1"/>
    <path id="ID0.033297700341790915_22_" fill="none" d="M 0 0.5 L 221.67 0.5 L 221.67 79.25 L 0 79.25 L 0 0.5 Z " stroke-width="1"/>
    <path id="ID0.14449769724160433_125_" fill="#C4482B" stroke="#000000" stroke-width="1.5" d="M 63.51 30.14 L 63.5 35.79 C 63.5 37.99 61.71 39.77 59.5 39.77 L 53.04 40.45 L 37.91 39.55 L 26.82 39.76 L 19.5 39.76 C 17.3 39.76 15.5 37.98 15.5 35.78 L 15.35 31.51 L 15.5 19.98 C 15.5 17.78 17.29 16 19.5 16 L 28.97 16.8 L 47.18 16 L 56.39 16.38 L 59.51 16 C 61.71 16 63.51 17.78 63.51 19.98 L 63.51 30.14 Z "/>
    <path id="ID0.3559804647229612_5_" fill="#C4482B" stroke="#000000" stroke-width="1.5" d="M 14.5 64.02 L 27.39 64.39 L 35.52 64.02 C 37.72 64.02 39.51 62.24 39.51 60.04 L 38.74 48.24 L 39.51 44.25 C 39.51 42.05 37.73 40.27 35.52 40.27 L 26.37 40.27 L 19.05 39.88 L 14.51 40.27 "/>
    <path id="ID0.14449769724160433_124_" fill="#E3674B" d="M 58.56 28.37 L 27.92 34.74 L 21.82 34.74 C 19.98 34.74 18.48 33.56 18.48 32.1 L 18.35 29.27 L 18.48 21.64 C 18.48 20.18 19.97 19 21.82 19 L 29.73 19.53 L 44.94 19 L 52.63 19.25 L 55.23 19 C 57.07 19 58.57 20.18 58.57 21.64 L 58.57 28.37 Z " stroke-width="1"/>
    <path id="ID0.5445906571112573" fill="#E3674B" d="M 31.11 43.56 L 28.51 43.81 L 20.82 43.56 L 14.5 43.78 L 14.5 57.07 L 34.46 52.92 L 34.46 46.2 C 34.46 44.73 32.95 43.56 31.11 43.56 Z " stroke-width="1"/>
    <path id="ID0.14449769724160433_123_" fill="#C4482B" stroke="#000000" stroke-width="1.5" d="M 111.51 30.14 L 111.5 35.79 C 111.5 37.99 109.71 39.77 107.5 39.77 L 101.04 40.45 L 85.91 39.55 L 74.82 39.76 L 67.5 39.76 C 65.3 39.76 63.5 37.98 63.5 35.78 L 63.35 31.51 L 63.5 19.98 C 63.5 17.78 65.29 16 67.5 16 L 76.97 16.8 L 95.18 16 L 104.39 16.38 L 107.51 16 C 109.71 16 111.51 17.78 111.51 19.98 L 111.51 30.14 Z "/>
    <path id="ID0.9958865819498897" fill="#C4482B" stroke="#000000" stroke-width="1.5" d="M 87.51 44.25 C 87.51 42.05 85.73 40.27 83.52 40.27 L 74.37 40.27 L 67.05 39.88 L 63.04 40.22 L 50.8 40.79 L 43.47 40.15 C 41.27 40.15 39.48 41.94 39.48 44.15 L 39 49.89 L 39.49 60.02 C 39.49 62.23 41.27 64.02 43.48 64.02 L 56.3 64 L 62.5 64.01 L 62.5 64.01 L 75.39 64.38 L 83.52 64.01 C 85.72 64.01 87.51 62.23 87.51 60.03 L 86.74 48.23 L 87.51 44.25 Z "/>
    <path id="ID0.14449769724160433_122_" fill="#E3674B" d="M 106.56 28.37 L 75.92 34.74 L 69.82 34.74 C 67.98 34.74 66.48 33.56 66.48 32.1 L 66.35 29.27 L 66.48 21.64 C 66.48 20.18 67.97 19 69.82 19 L 77.73 19.53 L 92.94 19 L 100.63 19.25 L 103.23 19 C 105.07 19 106.57 20.18 106.57 21.64 L 106.57 28.37 Z " stroke-width="1"/>
    <path id="ID0.43451670370996" fill="#E3674B" d="M 82.46 46.19 C 82.46 44.73 80.96 43.55 79.12 43.55 L 76.52 43.8 L 68.83 43.55 L 62.51 43.77 L 62.51 43.78 L 53.78 44.08 L 45.87 43.55 C 44.02 43.55 42.53 44.73 42.53 46.19 L 42.4 53.82 L 42.53 56.65 C 42.53 58.11 44.03 59.29 45.87 59.29 L 51.97 59.29 L 64.51 56.68 L 64.51 56.65 L 82.47 52.92 L 82.47 46.19 Z " stroke-width="1"/>
    <path id="ID0.14449769724160433_121_" fill="#C4482B" stroke="#000000" stroke-width="1.5" d="M 159.51 30.14 L 159.5 35.79 C 159.5 37.99 157.71 39.77 155.5 39.77 L 149.04 40.45 L 133.91 39.55 L 122.82 39.76 L 115.51 39.76 C 113.31 39.76 111.51 37.98 111.51 35.78 L 111.36 31.51 L 111.51 19.98 C 111.51 17.78 113.3 16 115.51 16 L 124.98 16.8 L 143.19 16 L 152.4 16.38 L 155.52 16 C 157.72 16 159.52 17.78 159.52 19.98 L 159.52 30.14 Z "/>
    <path id="ID0.9826101753860712" fill="#C4482B" stroke="#000000" stroke-width="1.5" d="M 135.51 44.25 C 135.51 42.05 133.73 40.27 131.52 40.27 L 122.37 40.27 L 115.05 39.88 L 111.04 40.22 L 98.8 40.79 L 91.47 40.15 C 89.27 40.15 87.48 41.94 87.48 44.15 L 87 49.89 L 87.49 60.02 C 87.49 62.23 89.27 64.02 91.48 64.02 L 104.31 64 L 110.51 64.01 L 110.51 64.01 L 123.4 64.38 L 131.53 64.01 C 133.73 64.01 135.52 62.23 135.52 60.03 L 134.75 48.23 L 135.51 44.25 Z "/>
    <path id="ID0.14449769724160433_120_" fill="#E3674B" d="M 154.56 28.37 L 123.92 34.74 L 117.82 34.74 C 115.98 34.74 114.48 33.56 114.48 32.1 L 114.35 29.27 L 114.48 21.64 C 114.48 20.18 115.97 19 117.82 19 L 125.73 19.53 L 140.94 19 L 148.63 19.25 L 151.23 19 C 153.07 19 154.57 20.18 154.57 21.64 L 154.57 28.37 Z " stroke-width="1"/>
    <path id="ID0.8767799898050725" fill="#E3674B" d="M 130.46 46.19 C 130.46 44.73 128.96 43.55 127.12 43.55 L 124.52 43.8 L 116.83 43.55 L 110.51 43.77 L 110.51 43.78 L 101.78 44.08 L 93.87 43.55 C 92.02 43.55 90.53 44.73 90.53 46.19 L 90.4 53.82 L 90.53 56.65 C 90.53 58.11 92.03 59.29 93.87 59.29 L 99.97 59.29 L 112.51 56.68 L 112.51 56.65 L 130.47 52.92 L 130.47 46.19 Z " stroke-width="1"/>
    <path id="ID0.14449769724160433_119_" fill="#C4482B" stroke="#000000" stroke-width="1.5" d="M 207.51 30.14 L 207.5 35.79 C 207.5 37.99 205.71 39.77 203.5 39.77 L 197.04 40.45 L 181.91 39.55 L 170.82 39.76 L 163.51 39.76 C 161.31 39.76 159.51 37.98 159.51 35.78 L 159.36 31.51 L 159.51 19.98 C 159.51 17.78 161.3 16 163.51 16 L 172.98 16.8 L 191.19 16 L 200.4 16.38 L 203.52 16 C 205.72 16 207.52 17.78 207.52 19.98 L 207.52 30.14 Z "/>
    <path id="ID0.39046006463468075" fill="#C4482B" stroke="#000000" stroke-width="1.5" d="M 183.51 44.25 C 183.51 42.05 181.73 40.27 179.52 40.27 L 170.37 40.27 L 163.05 39.88 L 159.04 40.22 L 146.8 40.79 L 139.47 40.15 C 137.27 40.15 135.48 41.94 135.48 44.15 L 135 49.89 L 135.49 60.02 C 135.49 62.23 137.27 64.02 139.48 64.02 L 152.31 64 L 158.51 64.01 L 158.51 64.01 L 171.4 64.38 L 179.53 64.01 C 181.73 64.01 183.52 62.23 183.52 60.03 L 182.75 48.23 L 183.51 44.25 Z "/>
    <path id="ID0.3690653797239065_1_" fill="#C4482B" stroke="#000000" stroke-width="1.5" d="M 208.5 40.15 L 194.81 40.79 L 187.48 40.15 C 185.28 40.15 183.49 41.94 183.49 44.15 L 183 49.89 L 183.49 60.02 C 183.49 62.23 185.27 64.02 187.48 64.02 L 200.31 64 L 208.5 64.02 "/>
    <path id="ID0.14449769724160433_118_" fill="#E3674B" d="M 202.56 28.37 L 171.92 34.74 L 165.82 34.74 C 163.98 34.74 162.48 33.56 162.48 32.1 L 162.35 29.27 L 162.48 21.64 C 162.48 20.18 163.97 19 165.82 19 L 173.73 19.53 L 188.94 19 L 196.63 19.25 L 199.23 19 C 201.07 19 202.57 20.18 202.57 21.64 L 202.57 28.37 Z " stroke-width="1"/>
    <path id="ID0.007359120063483715" fill="#E3674B" d="M 178.46 46.19 C 178.46 44.73 176.96 43.55 175.12 43.55 L 172.52 43.8 L 164.83 43.55 L 158.51 43.77 L 158.51 43.78 L 149.78 44.08 L 141.87 43.55 C 140.02 43.55 138.53 44.73 138.53 46.19 L 138.4 53.82 L 138.53 56.65 C 138.53 58.11 140.03 59.29 141.87 59.29 L 147.97 59.29 L 160.51 56.68 L 160.51 56.65 L 178.47 52.92 L 178.47 46.19 Z " stroke-width="1"/>
    <path id="ID0.5406435607001185" fill="#E3674B" d="M 208.5 43.71 L 197.77 44.08 L 189.86 43.55 C 188.01 43.55 186.52 44.73 186.52 46.19 L 186.39 53.82 L 186.52 56.65 C 186.52 58.11 188.02 59.29 189.86 59.29 L 195.96 59.29 L 208.5 56.68 L 208.5 43.71 Z " stroke-width="1"/>
  </g>
</svg>