<svg version="1.1" xmlns="http://www.w3.org/2000/svg" xmlns:xlink="http://www.w3.org/1999/xlink" width="116.08665" height="148.63224" viewBox="0,0,116.08665,148.63224"><defs><linearGradient x1="191.43485" y1="195.76715" x2="217.27588" y2="195.76715" gradientUnits="userSpaceOnUse" id="color-1"><stop offset="0" stop-color="#4b6263"/><stop offset="1" stop-color="#aad2d7"/></linearGradient></defs><g transform="translate(-181.95668,-105.77737)"><g data-paper-data="{&quot;isPaintingLayer&quot;:true}" fill-rule="nonzero" stroke-linecap="butt" stroke-linejoin="miter" stroke-miterlimit="10" stroke-dasharray="" stroke-dashoffset="0" style="mix-blend-mode: normal"><path d="M285.05655,235.68369c0,11.18191 -9.475,14.57758 -29.15515,14.57758c-8.03065,0 -34.30958,4.66414 -40.02662,1.61299c-5.40471,-2.88445 -2.89624,-11.19127 -2.89624,-17.8103c0,-11.18191 61.28041,-30.1486 67.80131,-25.39679c4.71011,3.43231 4.27671,22.32698 4.27671,27.01652z" fill="#35ffe1" stroke="#000000" stroke-width="3"/><path d="M241.63688,178.40402c-10.26753,2.66048 -24.74566,-8.9917 -29.51376,-27.39327c-4.7681,-18.40156 3.39279,-41.07291 13.66032,-43.73338c7.47001,-1.93558 15.43541,11.51908 20.9702,23.57628c0.91874,2.00141 -8.84936,8.81617 -8.75791,18.60633c0.11484,12.29764 9.35773,27.46279 3.64115,28.94403z" fill="#35ffe1" stroke="#000000" stroke-width="3"/><path d="M296.54332,198.15612c0,17.40311 -60.8319,43.87999 -77.74707,43.87999c-23.39409,0 -35.33957,-19.99797 -35.33957,-37.40107c0,-17.40311 21.95837,-34.45608 38.87354,-34.45608c5.47235,0 20.33705,0.80326 34.15656,-4.13702c3.44833,-1.23273 14.67164,1.00542 21.39665,5.71268c11.3195,7.92323 18.6599,21.38094 18.6599,26.40149z" fill="#35ffe1" stroke="#000000" stroke-width="3"/><path d="M252.97769,195.14737c-12.52373,0 -25.62119,-17.60638 -25.62119,-40.0515c0,-22.44513 16.04243,-45.94146 28.56615,-45.94146c9.11148,0 14.23105,17.73777 16.98635,33.15835c0.45738,2.55973 -12.72587,7.45601 -15.52088,18.67323c-3.5109,14.0902 2.56232,34.16138 -4.41043,34.16138z" fill="#35ffe1" stroke="#000000" stroke-width="3"/><path d="M251.50519,168.64272c0,1.1158 0.89701,1.84649 3.60355,2.059c2.19383,0.17228 6.18257,-0.39998 7.03637,1.8231c3.31328,8.62707 0.28993,26.15652 -2.394,26.15652c-0.96944,0 -8.93012,-4.68167 -14.84098,-9.95399c-4.22575,-3.76927 -8.5949,-11.36128 -9.48672,-12.17438c-3.30217,-3.01069 -3.94395,-8.67732 -3.94395,-12.0332c0,-5.52996 8.14005,-5.88993 12.36885,-5.88993c1.83176,0 5.86922,2.60809 7.18697,4.0111c1.72443,1.83599 0.46992,2.86718 0.46992,6.00178z" fill="#35ffe1" stroke="none" stroke-width="0"/><path d="M197.95482,213.5366c-1.04816,-4.34797 -7.61383,-14.02247 -6.36194,-20.98692c1.80263,-10.0283 12.22754,-16.96658 14.74817,-15.60111c3.30571,1.79074 12.20156,20.93175 10.78284,26.6744c-1.50198,6.07959 -18.12229,14.2558 -19.16906,9.91363z" fill="url(#color-1)" stroke="#000000" stroke-width="3"/></g></g></svg>