<svg xmlns="http://www.w3.org/2000/svg" xmlns:xlink="http://www.w3.org/1999/xlink" xmlns:a="http://ns.adobe.com/AdobeSVGViewerExtensions/3.0/" version="1.1" x="0px" y="0px" width="68.89999847412109" height="70.28999786376953" viewBox="-0.65 -0.65 68.89999847412109 70.28999786376953" enable-background="new -6.5 -5.5 81 79" xml:space="preserve">
  <defs/>
  <g>
    <path fill="#E6E6E6" stroke="#999999" d="M59.77,35.97c-0.69,3.72-5.06,7.07-9.08,5.29c-3.8-1.68-7.28-4.47-6.59-8.19&#13;&#10;&#9;c0.69-3.73,4.76-6.1,9.08-5.29C57.51,28.57,60.46,32.24,59.77,35.97z" stroke-width="1"/>
    <path fill="#E6E6E6" stroke="#999999" d="M59.63,16.9c4.58,4.09,5.05,9.23,1.52,12.27c-4.9,4.22-14.55,4.5-17.61,0.7&#13;&#10;&#9;c-3.06-3.8,0.44-9.6,4.88-13.18C52.86,13.1,55.99,13.65,59.63,16.9z" stroke-width="1"/>
    <line fill="none" stroke="#FFFFFF" x1="45.81" y1="27.75" x2="56.92" y2="19.57" stroke-width="1"/>
    <line fill="none" stroke="#FFFFFF" x1="53.35" y1="22.34" x2="58.2" y2="24.3" stroke-width="1"/>
    <line fill="none" stroke="#FFFFFF" x1="46.99" y1="26.65" x2="51.84" y2="28.6" stroke-width="1"/>
    <line fill="none" stroke="#FFFFFF" x1="50.22" y1="18.34" x2="52.01" y2="23.03" stroke-width="1"/>
    <line fill="none" stroke="#FFFFFF" x1="47.48" y1="21.52" x2="48.98" y2="25.42" stroke-width="1"/>
    <line fill="none" stroke="#FFFFFF" x1="50.36" y1="24.51" x2="57.75" y2="27.48" stroke-width="1"/>
    <path fill="#E6E6E6" stroke="#999999" d="M7.91,36.26c0.84,3.69,5.33,6.86,9.29,4.93c3.73-1.83,7.09-4.75,6.26-8.45&#13;&#10;&#9;c-0.84-3.69-4.99-5.9-9.29-4.93C9.88,28.78,7.08,32.57,7.91,36.26z" stroke-width="1"/>
    <path fill="#E6E6E6" stroke="#999999" d="M7.3,17.2c-4.42,4.27-4.69,9.42-1.03,12.32c5.07,4.02,14.72,3.92,17.63,0&#13;&#10;&#9;c2.91-3.92-0.81-9.58-5.4-12.98C13.91,13.14,10.8,13.81,7.3,17.2z" stroke-width="1"/>
    <line fill="none" stroke="#FFFFFF" x1="21.54" y1="27.5" x2="10.11" y2="19.77" stroke-width="1"/>
    <line fill="none" stroke="#FFFFFF" x1="13.79" y1="22.39" x2="9.02" y2="24.54" stroke-width="1"/>
    <line fill="none" stroke="#FFFFFF" x1="20.31" y1="26.44" x2="15.54" y2="28.58" stroke-width="1"/>
    <line fill="none" stroke="#FFFFFF" x1="16.76" y1="18.27" x2="15.15" y2="23.03" stroke-width="1"/>
    <line fill="none" stroke="#FFFFFF" x1="19.62" y1="21.33" x2="18.28" y2="25.3" stroke-width="1"/>
    <line fill="none" stroke="#FFFFFF" x1="16.86" y1="24.44" x2="9.59" y2="27.7" stroke-width="1"/>
    <path fill="#FCEE21" stroke="#000000" d="M49.23,38.88c0,8.64-7,17.48-15.64,17.48c-8.64,0-15.64-8.85-15.64-17.48&#13;&#10;&#9;s7-13.79,15.64-13.79C42.23,25.09,49.23,30.25,49.23,38.88z" stroke-width="1"/>
    <path fill="#D9E021" stroke="#42210B" stroke-width="1.3" d="M49.23,38.88c0,8.64-7,17.48-15.64,17.48&#13;&#10;&#9;c-8.64,0-15.64-8.85-15.64-17.48s7-13.79,15.64-13.79C42.23,25.09,49.23,30.25,49.23,38.88z"/>
    <path fill="#FCEE21" d="M33.13,52.21c-7.25,0-12.87-7.91-12.87-14.71c0-7.62,6.46-11.02,12.87-11.02S46,29.88,46,37.5&#13;&#10;&#9;C46,44.3,40.38,52.21,33.13,52.21L33.13,52.21z" stroke-width="1"/>
    <line fill="none" stroke="#000000" x1="38.2" y1="53.56" x2="40.81" y2="57.98" stroke-width="1"/>
    <line fill="none" stroke="#000000" x1="37.2" y1="54.34" x2="38.74" y2="58.63" stroke-width="1"/>
    <line fill="none" stroke="#000000" x1="39.69" y1="53.04" x2="42.41" y2="56.49" stroke-width="1"/>
    <line fill="none" stroke="#000000" x1="44.77" y1="49.09" x2="48.51" y2="51.6" stroke-width="1"/>
    <line fill="none" stroke="#000000" x1="44.2" y1="50.08" x2="47" y2="52.89" stroke-width="1"/>
    <line fill="none" stroke="#000000" x1="45.83" y1="48.12" x2="49.32" y2="49.83" stroke-width="1"/>
    <line fill="none" stroke="#000000" x1="22.23" y1="49.09" x2="18.49" y2="51.6" stroke-width="1"/>
    <line fill="none" stroke="#000000" x1="22.8" y1="50.08" x2="20" y2="52.89" stroke-width="1"/>
    <line fill="none" stroke="#000000" x1="21.16" y1="48.12" x2="17.68" y2="49.83" stroke-width="1"/>
    <line fill="none" stroke="#000000" x1="29.44" y1="53.56" x2="26.83" y2="57.98" stroke-width="1"/>
    <line fill="none" stroke="#000000" x1="30.45" y1="54.34" x2="28.91" y2="58.63" stroke-width="1"/>
    <line fill="none" stroke="#000000" x1="27.95" y1="53.04" x2="25.24" y2="56.49" stroke-width="1"/>
    <line fill="none" stroke="#000000" x1="33.37" y1="26.25" x2="33.37" y2="21.12" stroke-width="1"/>
    <line fill="none" stroke="#000000" x1="32.11" y1="26.09" x2="31.26" y2="21.61" stroke-width="1"/>
    <line fill="none" stroke="#000000" x1="34.91" y1="25.94" x2="35.51" y2="21.59" stroke-width="1"/>
    <ellipse transform="matrix(0.9723,-0.2338,0.2338,0.9723,-9.1884,7.3424)" fill="#D9E021" cx="26.38" cy="42.43" rx="2.15" ry="2.66" stroke-width="1"/>
    <ellipse transform="matrix(0.2309,0.973,-0.973,0.2309,49.7316,-3.7833)" fill="#CDD41F" cx="27.26" cy="29.56" rx="0.99" ry="1.92" stroke-width="1"/>
    <ellipse transform="matrix(0.9341,0.3571,-0.3571,0.9341,19.5565,-11.6793)" fill="#CDD41F" cx="41.41" cy="47.12" rx="1.8" ry="1.92" stroke-width="1"/>
    <ellipse transform="matrix(-0.1423,0.9898,-0.9898,-0.1423,71.8749,-1.0893)" fill="#D9E021" cx="36.41" cy="30.6" rx="1.65" ry="2.69" stroke-width="1"/>
    <rect fill="none" width="67.6" height="68.99" stroke-width="1"/>
    <path fill="#FFFFFF" stroke="#000000" d="M45.25,35.17c0,3.45-2.8,6.25-6.25,6.25c-3.45,0-5.25-2.8-5.25-6.25&#13;&#10;&#9;c0-3.45,1.8-6.25,5.25-6.25C42.45,28.92,45.25,31.71,45.25,35.17z" stroke-width="1"/>
    <circle cx="39" cy="35.17" r="1" stroke-width="1"/>
    <path fill="#FFFFFF" stroke="#000000" d="M33.25,35.17c0,3.45-1.8,6.25-5.25,6.25c-3.45,0-6.25-2.8-6.25-6.25&#13;&#10;&#9;c0-3.45,2.8-6.25,6.25-6.25C31.45,28.92,33.25,31.71,33.25,35.17z" stroke-width="1"/>
    <circle cx="28" cy="35.17" r="1" stroke-width="1"/>
    <path fill="none" stroke="#000000" d="M29.5,50.09c0-1.5,8.23-1.5,8.23,0" stroke-width="1"/>
  </g>
</svg>