<svg version="1.1" xmlns="http://www.w3.org/2000/svg" xmlns:xlink="http://www.w3.org/1999/xlink" width="336.63539" height="87.51417" viewBox="0,0,336.63539,87.51417"><g transform="translate(-71.6823,-18.24296)"><g data-paper-data="{&quot;isPaintingLayer&quot;:true}" fill="#ffffff" fill-rule="nonzero" stroke="none" stroke-width="0.5" stroke-linecap="butt" stroke-linejoin="miter" stroke-miterlimit="10" stroke-dasharray="" stroke-dashoffset="0" style="mix-blend-mode: normal"><g><path d="M88.82555,50.96729c0.04228,0.04523 0.15165,0.16796 0.27273,0.34975c2.5085,0.99238 5.47896,0.89852 8.1942,1.31947c1.48408,0.23007 4.43292,0.98651 5.91008,0.49628c3.02714,-1.00465 3.13074,-5.93824 3.12644,-8.35366c-0.00218,-1.22921 0.73776,-2.56007 0.23184,-3.68032c-0.88356,-1.95642 -6.00843,-1.67351 -7.65487,-2.22232c-2.52163,0.03877 -6.05125,-0.9885 -8.41656,-0.43984c-3.54639,0.82262 -2.53711,9.41171 -1.66385,12.53065zM84.76069,53.28043l-0.23448,-0.32024c-1.08455,-3.37277 -1.71938,-8.28762 -0.74249,-12.34822c-0.61849,1.62416 -1.3294,3.21381 -2.45429,4.67171c0.10809,3.20896 -1.25731,5.5175 -1.43157,8.68211c-0.82971,15.06788 -2.93988,30.32522 -1.47637,45.42589c3.10723,0 6.69668,0 9.70329,0v-0.19574c0,-5.32788 -0.24257,-10.68068 0.36194,-15.97529c-0.06932,-0.86998 0.25934,-1.50711 0.67182,-1.95625c0.3899,-0.53417 1.01592,-1.01502 2.01277,-1.06089c4.89128,-2.6337 8.94894,-2.34112 13.96228,-0.3113c0.88141,0.18572 1.40548,0.69113 1.71709,1.22648c0.36495,0.49141 0.6213,1.162 0.457,2.03012v2.73654c0,4.28957 -0.85474,9.63008 0.30201,13.9014c4.15049,0.0203 8.16909,0.09633 12.22658,-0.61679c0.02563,-5.54549 0.54188,-11.41142 0.01332,-16.91016c-0.34431,-3.58188 -1.36223,-7.06723 -1.57574,-10.69712c-0.39874,-6.7786 0.23419,-13.18776 -1.11566,-19.91332c-0.75189,-3.40504 -0.64703,-7.07783 -1.52706,-10.40865c-1.0399,-3.93595 -3.71546,-6.4789 -6.35694,-9.33218c-1.69938,-1.83563 -4.11401,-5.15422 -6.83075,-5.82343c-0.88341,-0.21761 -4.8263,0.38119 -5.53749,0.46717c-1.09648,0.13255 -3.44892,0.14715 -4.49831,1.01885c-1.85039,1.53704 -4.61804,4.52006 -5.89005,6.60612c-0.71147,1.16678 -1.23149,2.38767 -1.69881,3.62073c0.94138,-1.78417 2.37803,-3.1912 4.4648,-3.90181c2.61753,-0.89137 7.54718,0.31167 10.37486,0.34314c3.6995,1.23316 8.92064,0.52917 11.13656,4.82446c0.28334,0.54924 0.23342,4.74644 0.23183,5.71539c-0.00775,4.73856 -1.08492,10.82848 -6.26927,12.78668c-0.3164,0.1195 -5.05475,0.17533 -5.66911,0.12441c-4.21582,-0.34939 -9.24124,-0.80526 -12.99286,-2.5889c0,0 -1.21393,-0.60696 -1.33492,-1.82088zM123.51235,47.28243c-0.70853,-2.12018 -0.87497,-3.22474 -1.58474,-4.23502c0.31871,2.45938 0.43785,4.9826 0.9763,7.38909c1.40416,7.04371 0.81644,13.7151 1.23328,20.80141c0.00099,0.01673 0.00199,0.03347 0.00301,0.05021c5.90313,-6.28791 1.87701,-16.51031 -0.62785,-24.00569zM122.91213,36.12607c6.43593,4.76463 8.98263,14.42522 9.44512,22.17269c0.28793,4.8235 1.36226,9.70262 -1.17531,14.18615c-1.53705,2.71574 -3.1135,3.47039 -5.52939,5.21953l-0.49921,0.30205c0.22165,1.21966 0.42349,2.44106 0.54001,3.67468c0.55124,5.83649 0.01428,12.03922 0.01428,17.90627v1.70719c0.11892,0.93876 -0.1754,1.61193 -0.58541,2.08567c-0.36162,0.51475 -0.94661,0.96513 -1.89296,1.07515c-5.64465,1.35514 -11.11985,1.20008 -16.90028,1.20008h-0.38761c-0.86812,0.16429 -1.5387,-0.09206 -2.0301,-0.45701c-0.54325,-0.3162 -1.05564,-0.85115 -1.23448,-1.75625c-2.07345,-5.49229 -1.24141,-11.70731 -1.24141,-17.55688v-1.14788c-2.50477,-0.87933 -4.75796,-1.02144 -7.25566,0.50579c-0.41106,4.62453 -0.18261,9.31122 -0.18261,13.95269v3.1319c0,1.01972 -0.35414,1.68528 -0.81645,2.1197c-0.43442,0.46231 -1.1,0.81646 -2.11971,0.81646c-4.43686,0 -8.87372,0 -13.31058,0h-1.82694c-0.1765,0.01204 -0.34292,0.01151 -0.49985,0h-0.80512c0,0 -2.93616,0 -2.93616,-2.93616c0,-1.08749 0.40279,-1.77219 0.90998,-2.20329c-1.52708,-15.42275 0.39252,-31.15007 1.44463,-46.52364c0.25169,-3.67769 1.60236,-6.4155 1.70034,-10.10931c4.67794,-6.9537 5.90044,-15.29898 13.19403,-20.65324c2.44413,-1.79424 4.439,-1.75258 7.24631,-2.11305c2.18932,-0.28112 5.67442,-0.84479 7.77311,-0.31581c3.96679,0.99986 7.01284,4.69617 9.61174,7.48715c2.37541,2.55098 4.64672,5.0035 6.22543,7.9852c1.51885,-0.9025 3.12426,0.24422 3.12426,0.24422z"/><path d="M131.00255,102.93057c0,-2.97796 2.20825,-5.43359 2.60195,-8.30944c0.60129,-4.39222 0.76164,-8.71401 1.22969,-13.14001c1.55528,-14.70701 2.60608,-30.95071 6.52759,-45.1734c1.07573,-3.90149 1.09698,-10.6097 4.63799,-13.31729c3.05249,-2.33406 5.41857,5.19991 5.8904,7.39277c1.01637,4.72371 1.63648,10.30728 2.02904,15.1627c0.151,1.86768 1.30686,3.67446 1.9085,5.39918c1.60654,4.60539 1.93242,9.72642 3.12861,14.51118c0.77884,3.11537 1.2931,6.20861 1.71606,9.37093c0.16153,1.20761 0.40481,2.13696 0.62614,3.28621c0.11684,0.60671 -0.05724,2.44139 0.12041,1.84962c4.34257,-14.46542 6.44757,-29.01936 8.50235,-43.99235c0.45989,-3.35126 1.01633,-12.8176 5.43189,-11.1574c2.18995,0.8234 3.7375,12.22362 3.95402,14.45979c1.55609,16.07046 4.57655,31.45929 7.31823,47.40062c0.87117,5.06535 0.57856,9.02151 0.61919,14.63099c0.00984,1.35792 0.61648,2.59297 -1.63242,3.1552c-2.0025,0.50062 -3.05525,-1.31593 -3.06543,-2.86603c-0.02276,-3.46767 0.03793,-6.9357 0,-10.40323c-0.10649,-9.73725 -4.94772,-26.10094 -6.85436,-36.40825c-0.75018,-4.05548 -0.59493,-8.538 -0.77966,-12.65482c-0.05293,-1.17989 -0.22377,-1.64819 -0.28764,-2.46608c-0.05455,-0.69863 0.03203,-2.76973 -0.16093,-2.09607c-2.35316,8.21498 -1.79655,17.50419 -3.57117,25.92756c-1.52403,7.23393 -5.04614,13.87662 -5.08234,21.37278c-0.01314,2.72134 -0.18275,16.60001 -4.25743,17.16858c-3.64028,0.50795 -2.75274,-10.39832 -3.08297,-12.47867c-2.30485,-14.52003 -5.73887,-28.6173 -9.118,-42.93155c-0.92027,-3.89825 -1.21979,-8.03463 -1.87445,-11.97689c-0.07321,-0.44087 -0.11702,-3.28588 -0.32913,-3.29699c-0.13317,-0.00697 -0.64025,3.5426 -0.71667,3.88649c-0.98211,4.41951 -1.61744,8.6617 -2.51934,13.10449c-1.32186,6.51142 -1.2764,13.29542 -2.21047,19.87304c-0.69792,4.91478 -2.28737,10.01691 -2.31697,14.96943c-0.01727,2.88854 0.07362,6.52537 -0.51057,9.43742c-0.70686,3.52358 -2.23905,6.75412 -3.08709,10.14628c0.04848,0.188 0.07426,0.3851 0.07426,0.58824c0,0.03781 -0.00089,0.0754 -0.00265,0.11276c-0.06653,1.92972 -1.18837,2.47505 -2.33698,2.23615c-0.00309,0.00001 -0.00619,0.00001 -0.00928,0.00001c-1.10648,0 -2.03428,-0.76506 -2.28325,-1.79505c-0.14419,-0.3076 -0.22711,-0.63808 -0.22711,-0.97881z"/><path d="M204.92204,22.6539c-0.19862,1.06931 -1.24054,1.63764 -1.24054,1.63764c-5.55855,2.929 -4.31692,8.55364 -5.14287,14.0168c-1.35566,8.96684 -1.85424,17.53478 -1.85424,26.67158c0,5.984 -1.43268,13.16698 -0.27728,19.05189c0.56049,2.85474 2.73681,6.17958 4.02247,8.78944c1.65978,3.3693 3.96619,5.23367 7.76454,5.27854c0.78439,0.00926 2.211,0.42301 2.84355,-0.50229c0.75189,-1.09989 0.48503,-2.62016 0.72151,-3.93133c2.29951,-11.49751 4.66091,-23.04283 4.65619,-34.79346c-0.00302,-7.51165 0.16602,-13.85951 -3.55023,-20.64364c-2.08743,-5.70666 -3.70782,-10.98912 -7.83597,-15.61355zM202.66926,19.86122c0.63192,-2.09837 2.80607,-1.55484 2.80607,-1.55484l3.06506,1.18803c4.44649,5.02135 6.37113,10.61061 8.60652,16.80165c3.51952,6.47904 3.96634,12.54584 3.96634,19.75791c0,13.09561 -2.17687,25.67979 -4.73953,38.49306c-0.24791,1.35348 -0.75845,4.92448 -1.6274,5.93418c-4.53262,5.26674 -13.72177,1.78218 -17.14876,-2.88714c-2.23086,-3.0396 -5.05491,-8.97557 -5.80353,-12.67388c-1.25473,-6.19868 0.19252,-13.64325 0.19252,-19.94029c0,-9.36619 0.53718,-18.15817 1.90404,-27.35377c1.08146,-7.27547 0.24061,-13.37319 7.54134,-17.45882c0,0 0.55026,-0.30015 1.23735,-0.30609z"/><path d="M251.88417,19.17582c2.34893,0 2.34892,2.34893 2.34892,2.34893v2.34892c0,7.86751 1.17446,15.59282 1.17446,23.48928c0,13.31806 -0.02362,27.11088 -1.90346,40.2689c-0.34264,2.39836 -0.76076,4.87599 -0.91816,7.29642c-0.06439,0.99025 0.42239,2.14218 -0.11763,2.97472c-0.13585,0.20942 -0.28694,0.40546 -0.45009,0.59093l0.10083,0.07563l-1.39296,1.85728c-0.42742,0.58294 -1.11728,0.96143 -1.89555,0.96143c-1.08107,0 -1.99157,-0.73031 -2.26502,-1.72451l-0.6884,-2.29469c-2.16563,-7.13433 -2.56179,-14.77229 -3.81877,-22.09364c-0.76562,-4.45944 -2.79442,-8.81351 -4.15822,-13.10995c-1.769,-5.57299 -2.82928,-11.38455 -4.97492,-16.8278c-0.44357,-4.28162 -2.38422,-8.17018 -3.90611,-12.17021c-0.22802,-0.59931 -0.84418,-1.83256 -1.27272,-3.07868c-0.02586,0.23747 -0.04763,0.47524 -0.05909,0.71378c-0.07704,1.6034 0.00293,3.2105 0.00293,4.81574c0,6.57699 0,13.15399 0,19.73099c0,15.68603 1.17446,31.38127 1.17446,46.97855c0,0 0,2.34892 -2.34892,2.34892c-2.34893,0 -2.34893,-2.34892 -2.34893,-2.34892c0,-15.59385 -1.17446,-31.29347 -1.17446,-46.97854c0,-7.43827 -0.0043,-14.87654 0,-22.31481c0.00113,-1.94953 -0.3401,-6.96997 1.15636,-8.43168c1.21471,-1.1865 3.0176,-2.45588 4.66532,-2.0456c1.58556,0.39481 2.11165,2.51679 2.923,3.9351c0.87256,1.52529 1.04477,3.35801 1.67105,4.99985c1.58566,4.1569 3.65141,8.27022 4.08024,12.72842c2.16013,5.31538 3.14774,11.06357 4.89058,16.52697c1.4315,4.48746 3.47878,9.01017 4.29792,13.66782c0.78851,4.48341 1.19002,9.12009 1.91753,13.66861c0.31474,-1.44348 0.62645,-2.71407 0.72906,-3.46659c0.79439,-5.82605 0.44092,-11.51104 0.6831,-17.37228c0.27473,-6.64919 0.70319,-13.2167 0.70319,-19.88216c0,-7.89491 -1.17446,-15.61666 -1.17446,-23.48927v-2.34892c0,0 0,-2.34893 2.34892,-2.34893z"/><path d="M297.68825,70.38243c0,2.34892 -2.34893,2.34893 -2.34893,2.34893h-2.58381c-0.90665,0 -6.51512,-0.71449 -6.83792,0.37129c-0.9819,3.30272 0.11413,7.48955 -0.2203,10.90014c-0.67845,6.91894 -1.43847,14.18525 -6.83017,18.96681c-3.88784,1.20561 -8.76607,1.72625 -12.3927,-0.85676c-3.23796,-2.30619 -4.90681,-7.20727 -6.2201,-10.70661c-4.22719,-11.26363 -2.49782,-22.192 -2.49782,-33.94287c0,-3.72013 0.05903,-7.28565 1.01306,-10.91824c0.9809,-3.73489 2.93962,-7.13735 4.00672,-10.85561c0.74637,-2.60072 0.89691,-5.03445 1.9808,-7.57058c1.28136,-2.99817 4.2028,-8.31672 7.60343,-9.46895c3.99545,-1.35378 6.42074,0.95925 9.5562,2.7006c0,0 2.05333,1.14075 0.9126,3.19408c-1.14074,2.05333 -3.19407,0.91259 -3.19407,0.91259c-1.09472,-0.60836 -4.01299,-3.18829 -5.47693,-2.46702c-4.93153,2.42969 -5.57431,9.45496 -6.85825,13.9663c-2.07371,7.28636 -4.84571,12.76089 -4.84571,20.50683c0,11.13306 -1.79172,21.6435 2.20003,32.29686c2.18493,5.83123 4.76653,11.10678 11.92326,9.10718c4.59789,-4.10675 4.42975,-14.03933 4.43324,-19.79391c0.00245,-4.02918 -0.54784,-8.84862 3.87168,-10.88986c1.71983,-0.79434 5.91896,-0.15009 7.87296,-0.15009h2.58381c0,0 2.34893,0 2.34893,2.34892z"/><path d="M367.35352,20.70262c2.34893,0 2.34893,2.34892 2.34893,2.34892v1.7617c0,3.36284 0.00084,6.7257 -0.00173,10.08854c0.83474,10.85159 0.07336,20.96808 -0.78809,31.78403c-0.60886,7.64456 -0.90289,15.58655 -2.66208,23.0853c-1.67626,3.73004 -3.76858,9.52484 -7.50854,11.65411c-4.99423,2.84337 -11.87072,0.84511 -14.58709,-4.03361c-4.73831,-8.51026 -5.28055,-20.13883 -5.95252,-29.6437c-0.83783,-5.45442 -3.09222,-10.31271 -4.26817,-15.62195c-0.7672,-3.46377 -0.24867,-7.52934 -0.24867,-11.06596c0,-6.7627 0.07969,-13.59592 0.59415,-20.34178c0,0 0.18015,-2.34201 2.52216,-2.16186c2.34201,0.18016 2.16184,2.52216 2.16184,2.52216c-0.51434,6.6255 -0.58031,13.33855 -0.58031,19.98148c0,3.16683 -0.57268,6.9798 0.14283,10.07439c1.26132,5.45526 3.47912,10.4706 4.34458,16.08857c0.64384,8.92807 1.82075,17.4017 4.59341,25.94927c1.8456,5.68964 8.08531,6.31901 11.0152,1.30672c1.20681,-2.06454 2.31782,-4.03825 3.32177,-6.21554c1.60953,-7.124 1.84499,-14.68832 2.42727,-21.93582c0.85559,-10.6496 1.59958,-20.56308 0.77785,-31.24552c-0.00243,-3.42294 -0.00173,-6.84588 -0.00173,-10.26883v-1.76169c0,0 0,-2.34893 2.34893,-2.34893z"/><path d="M377.33646,72.18327c2.34893,0 2.34893,2.34893 2.34893,2.34893l-0.00811,1.37088c0.40927,4.91151 0.99609,9.5987 1.92339,14.43289c0.26651,1.38935 0.55658,4.74055 1.70309,5.82881c6.04459,5.73753 14.46615,0.98006 17.78454,-4.7033c0.83595,-1.84566 2.15972,-3.93107 2.50817,-5.95238c0.24827,-1.4402 -0.30038,-2.70979 -0.41382,-4.12786c-0.29581,-3.69766 -0.22271,-7.60707 -2.94624,-10.58281c-3.56769,-3.89808 -8.75839,-5.7256 -12.8073,-8.90821c-3.92559,-3.08567 -6.76747,-6.94866 -8.56589,-11.57001c-2.47491,-6.52287 -3.68948,-16.06623 -0.25042,-22.54074c1.73351,-3.26356 5.16804,-7.39847 8.90918,-8.37422c5.27288,-1.37525 12.7346,1.82414 16.3349,5.31302c0,0 1.66095,1.66093 0,3.32187c-1.66095,1.66094 -3.32188,0 -3.32188,0c-2.31955,-2.42603 -8.28854,-5.01273 -11.85223,-4.08269c-2.46084,0.64222 -4.8283,4.06412 -5.96737,6.11084c-2.81329,5.05495 -1.43698,13.5269 0.53255,18.56549c3.81257,10.05304 13.87242,11.6576 20.51601,19.06205c3.42677,3.81923 3.71826,8.51971 4.10053,13.29794c0.14037,1.75465 0.65242,3.53053 0.36916,5.26784c-0.4126,2.53061 -1.92094,5.05186 -2.97266,7.3582c-0.69614,1.19433 -2.14666,3.86432 -3.15089,4.87308c-5.32155,5.3456 -16.4133,6.85156 -22.12823,0.99379c-1.57153,-1.6108 -1.88794,-3.57649 -2.38463,-5.61409c-1.42086,-5.82879 -2.10428,-11.61173 -2.60161,-17.57936l-0.00811,-1.76101c0,0 0,-2.34893 2.34893,-2.34893z"/></g></g></g></svg>