<svg version="1.1" xmlns="http://www.w3.org/2000/svg" xmlns:xlink="http://www.w3.org/1999/xlink" width="511.15426" height="483.68937" viewBox="0,0,511.15426,483.68937"><defs><radialGradient cx="240" cy="288.74149" r="184.47711" gradientUnits="userSpaceOnUse" id="color-1"><stop offset="0" stop-color="#ff0000"/><stop offset="1" stop-color="#ff0000" stop-opacity="0"/></radialGradient></defs><g transform="translate(15.57713,10.47078)"><g data-paper-data="{&quot;isPaintingLayer&quot;:true}" fill-rule="nonzero" stroke-linecap="butt" stroke-linejoin="miter" stroke-miterlimit="10" stroke-dasharray="" stroke-dashoffset="0" style="mix-blend-mode: normal"><path d="M-15.57713,370.47076v-380.94153h511.15426v380.94153z" fill="#000000" stroke="none" stroke-width="0"/><text transform="matrix(1.5235 0 0 1.5235 88.50299 47.987860000000005)" font-size="40"  fill="#e50000" fill-rule="nonzero" stroke="none" stroke-width="1" stroke-linecap="butt" stroke-linejoin="miter" stroke-miterlimit="10" stroke-dasharray="" stroke-dashoffset="0" font-family="Helvetica" font-weight="normal" text-anchor="start" style="mix-blend-mode: normal" >IMPOSTER</text><path d="M55.52289,288.74149c0,-101.8839 82.59321,-184.47711 184.47711,-184.47711c101.8839,0 184.47711,82.59321 184.47711,184.47711c0,101.8839 -82.59321,184.47711 -184.47711,184.47711c-101.8839,0 -184.47711,-82.59321 -184.47711,-184.47711z" fill="url(#color-1)" stroke="#000000" stroke-width="0"/><path d="M217.01478,275.62684c1.02833,-0.319 2.83652,-0.09059 4.26554,0.03585c-0.17366,5.49413 0.07288,10.85211 0.54906,16.65195v0.00003c0.2848,3.46871 -0.45248,6.9673 -0.55434,10.4351l-0.53155,-0.22154c-1.08319,-0.5901 -2.17308,-1.19958 -3.22685,-1.84074c-3.49539,-5.19942 -2.81013,-11.90488 -2.57133,-17.87495c0.0766,-1.91459 -0.5733,-6.36585 2.06949,-7.18567z" data-paper-data="{&quot;noHover&quot;:false,&quot;origItem&quot;:[&quot;Path&quot;,{&quot;applyMatrix&quot;:true,&quot;segments&quot;:[[[223.49568,173.63024],[0,0],[-1.89817,0.58884]],[[222.02805,178.78567],[0.05501,-1.37514],[-0.17152,4.28797]],[[223.85475,191.53027],[-2.51055,-3.73447],[0.75687,0.46052]],[[226.16009,192.85308],[-0.778,-0.42384],[0,0]],[[226.54018,193.01254],[0,0],[0.07316,-2.49074]],[[226.91199,185.53279],[0.20456,2.49139],[0,0]],[[226.91199,185.53277],[0,0],[-0.34201,-4.16572]],[[226.54381,173.65501],[-0.12474,3.94614],[-1.02637,-0.09081]],[[223.49568,173.63023],[0.7386,-0.22912],[0,0]]],&quot;closed&quot;:true,&quot;fillColor&quot;:[0,0,0,1],&quot;strokeWidth&quot;:0.5}]}" fill="#ffa100" stroke="none" stroke-width="0.25"/><path d="M260.62531,296.16442c0.00028,2.33838 0.08043,4.70746 0.25185,7.04393c-0.00727,0.07737 -0.00744,0.12349 -0.00744,0.12349l0.01816,0.02375c0.00142,0.01876 0.00275,0.03763 0.00417,0.05639c-0.24229,1.37001 -0.39126,2.76906 -0.3964,4.16019c0,1.7829 0.56751,4.797 -0.65137,6.33628c-1.1951,1.50922 -7.6478,0.55684 -9.4374,0.32204c-0.96547,-0.12666 -2.19729,0.10288 -2.86303,-0.60772c-0.59938,-0.6398 0.05353,-1.89174 0.004,-2.76704c-0.15351,-2.71323 -1.09469,-7.03482 -3.66113,-8.54577c-3.14457,-1.85136 -5.63467,0.11472 -7.78193,2.11856c-0.16149,2.55367 0.67729,6.94122 -0.49272,9.28303c-1.31572,2.63345 -6.30625,1.45558 -8.44355,0.91975c-0.84224,-0.21116 -2.18055,0.30498 -2.56647,-0.47286c-0.52411,-1.05637 -0.10839,-4.40435 0.13132,-6.74914c0.46389,-0.63029 0.32553,-1.45391 0.32553,-1.45391c-0.7985,-4.56453 0.68836,-9.32662 0.32735,-13.94051c-0.60727,-7.76081 -0.80983,-14.54199 -0.1492,-22.28066c0,-3.75147 0.30354,-7.07538 2.95859,-9.96236c1.17259,-1.27508 3.10339,-1.85337 4.64153,-2.52316c5.49245,-2.39165 15.63503,-6.05806 20.76321,-1.36777c3.63831,4.09309 4.06173,7.88708 4.73771,13.34658c1.10825,8.95066 1.59541,17.94346 2.28723,26.93681z" data-paper-data="{&quot;noHover&quot;:false,&quot;origItem&quot;:[&quot;Path&quot;,{&quot;applyMatrix&quot;:true,&quot;segments&quot;:[[[254.77208,188.30426],[0,0],[-0.49688,-6.45945]],[[253.13537,169.01901],[0.796,6.42877],[-0.48552,-3.92128]],[[249.75049,159.44472],[2.6132,2.93984],[-3.6833,-3.36877]],[[234.87221,160.4275],[3.94493,-1.7178],[-1.10477,0.48107]],[[231.54674,162.23588],[0.84222,-0.91581],[-1.90698,2.07355]],[[229.43466,169.38047],[0,-2.69448],[-0.47449,5.55826]],[[229.54952,185.33109],[-0.43616,-5.57418],[0.25929,3.3139]],[[229.30025,195.32512],[-0.57353,-3.27846],[0,0]],[[229.06553,196.36866],[0.33319,-0.45271],[-0.17215,1.68414]],[[228.96641,201.21289],[-0.37644,-0.75874],[0.27719,0.55868]],[[230.80662,201.55076],[-0.60494,-0.15167],[1.5351,0.38487]],[[236.86002,200.88603],[-0.94502,1.89146],[0.84036,-1.682]],[[237.21779,194.21962],[-0.11599,1.83417],[1.54226,-1.43926]],[[242.78805,192.69563],[-2.25858,-1.32972],[1.84333,1.08524]],[[245.43039,198.93262],[-0.11026,-1.94876],[0.03557,0.62869]],[[245.40999,200.82159],[-0.43051,-0.45954],[0.47816,0.51039]],[[247.46202,201.25901],[-0.69344,-0.09097],[1.28537,0.16864]],[[254.2278,201.03293],[-0.85838,1.084],[0.87546,-1.10557]],[[254.69029,196.48555],[0,1.28056],[0.0037,-0.99917]],[[254.97089,193.50107],[-0.17402,0.98401],[-0.00102,-0.01348]],[[254.96785,193.46062],[0.00101,0.01348],[0,0]],[254.95481,193.44355],[[254.96003,193.35498],[-0.00522,0.05557],[-0.12312,-1.67817]],[[254.77209,188.30429],[0.0002,1.67953],[0,0]]],&quot;closed&quot;:true,&quot;fillColor&quot;:[0,0,0,1],&quot;strokeWidth&quot;:0.5}]}" fill="#ffa100" stroke="none" stroke-width="0.25"/><path d="M211.96311,282.5277c-0.13214,-0.2644 -0.20463,-0.60091 -0.16898,-1.02898c0.15292,-1.83509 1.98801,-1.68218 1.98801,-1.68218l2.0393,0.17148c0.3603,0.06096 3.76501,0.92976 4.12159,0.16756c0.57182,-1.22237 -0.47757,-2.90035 0.24328,-4.04118c0.3614,-0.57194 1.4482,-0.16044 1.92642,-0.639c0.72221,-0.72272 -0.15425,-2.08641 0.15082,-3.06158v-1.89274c0,-1.01701 0.82444,-1.84145 1.84145,-1.84145c0.86324,0 1.58772,0.59399 1.7871,1.39553l0.48052,1.76193l-0.00823,0.00224l0.01328,0.01669c1.86089,7.44345 0.19739,19.71379 8.43566,24.05931c2.83155,1.49358 6.03166,1.82374 9.16809,2.06507c3.95502,-0.00284 7.85742,-0.32482 11.80171,-0.49079c1.09315,-0.04601 3.7964,-0.46707 4.70962,-0.02509c0.97849,0.47354 1.8389,1.32446 2.30605,2.30605c0.62007,1.30295 -0.04371,3.49627 -0.20006,4.8503c-0.37602,3.25645 0.41116,9.05601 -2.64688,11.16143c-2.64061,1.81804 -9.1875,0.59754 -12.0033,-0.03548c-1.79258,-2.61921 -2.79696,-11.02963 -6.04461,-12.03597c-7.30308,-2.26299 -2.59205,9.84202 -6.20967,12.4715c-2.4303,1.7665 -9.57462,0.47005 -12.23611,-0.01879c-1.19419,-2.78924 -0.23321,-7.92199 -1.98103,-10.17596c-1.94811,-2.51227 -5.9627,-3.53756 -7.36705,-6.65301c-1.08453,-2.40595 0.01865,-4.76178 -0.48004,-7.14471c-0.69,-3.29706 -1.55693,-6.22792 -1.66694,-9.66217z" fill="#ff8200" stroke="none" stroke-width="0.5"/><path d="M220.2696,306.25995l-1.30218,-0.56703c-1.3649,-0.74537 -2.69175,-1.5615 -3.9924,-2.41407c-4.42095,-6.17053 -3.96705,-13.29924 -3.67669,-20.55796c0.12544,-3.136 -0.29244,-6.33798 2.1657,-8.74606c2.34558,-2.29779 5.02448,-1.96908 7.9704,-1.87613c0.05001,-0.81445 0.10853,-1.63782 0.17596,-2.4725c0,-4.5708 0.61567,-8.86373 3.9341,-12.31373c2.01341,-2.09322 5.2291,-3.22724 7.89948,-4.22949c6.97763,-2.61884 16.54081,-5.14572 22.73564,0.25875c4.25506,4.78695 4.97424,9.22457 5.76307,15.47825c1.14194,9.0534 1.60455,18.06721 2.30437,27.16519c-0.00031,2.58563 0.10549,5.19805 0.32238,7.77458l0.00636,0.64397c0,0 0,0.58309 -0.32811,1.09304c-0.07484,0.6713 -0.11477,1.34643 -0.11179,2.02034c0,2.84725 0.5475,6.44268 -1.56581,8.76859c-2.60337,2.8653 -11.56632,2.38185 -15.00463,1.0912c-1.02876,-0.38618 -2.20774,-0.69519 -2.91817,-1.53349c-1.48845,-1.75634 0.05929,-13.36857 -5.16715,-9.95924c0.5597,3.67501 0.88444,9.05172 -2.3925,11.56081c-3.00962,2.30437 -13.22988,2.1648 -15.58236,-1.40983c-1.14867,-1.74538 -0.47218,-6.84578 -0.30799,-9.62358c-0.50961,0.02753 -0.92769,-0.15164 -0.92769,-0.15164z" fill="#4c0000" stroke="none" stroke-width="0.5"/><path d="M242.00748,265.74039c0.20488,0.03934 0.34755,0.03834 0.34755,0.03834c6.08809,0 15.12971,-1.62059 20.74652,1.11802c2.78563,1.35823 2.89113,7.42694 1.42748,9.47506c-4.60336,6.32683 -12.84872,5.42417 -20.10219,5.42666c-2.54743,0.00088 -5.84466,0.31548 -7.7727,-1.75872c-1.39922,-1.5053 -0.8736,-4.47882 -0.90187,-6.30852c1.16309,-3.16358 3.18944,-6.4615 6.25519,-7.99087z" data-paper-data="{&quot;noHover&quot;:false,&quot;origItem&quot;:[&quot;Path&quot;,{&quot;applyMatrix&quot;:true,&quot;segments&quot;:[[[239.90084,166.06497],[0.78953,-2.14749],[0.0192,1.24203]],[[240.50838,170.32677],[-0.94981,-1.02182],[1.30878,1.408]],[[245.76918,171.50163],[-1.72924,0.0006],[4.92377,-0.00171]],[[259.33593,167.84814],[-3.12483,4.29474],[0.99354,-1.39031]],[[258.37182,161.44966],[1.89094,0.92198],[-3.81279,-1.85902]],[[244.36918,160.70163],[4.13268,0],[0,0]],[[244.13387,160.67493],[0.13907,0.0267],[-2.08108,1.03816]]],&quot;closed&quot;:true}]}" fill="#9ddcff" stroke="none" stroke-width="0.5"/><path d="M267.32259,277.66276c0.36115,1.80569 -1.44454,2.16681 -1.44454,2.16681l-0.41757,0.0344c-8.9346,4.0543 -23.46398,4.28112 -32.15459,-0.91577c0,0 -1.57904,-0.94742 -0.63162,-2.52646c0.94742,-1.57904 2.52646,-0.63162 2.52646,-0.63162c7.66891,4.61857 20.88315,4.29607 28.73577,0.72105l1.21928,-0.29298c0,0 1.80569,-0.36115 2.16681,1.44454z" fill="#49bfff" stroke="none" stroke-width="0.5"/><path d="M239.5589,262.84065l0.12275,-0.04093c1.86745,-0.61252 4.17588,-0.83733 6.13185,-0.83733c0,0 0.10328,0 0.20046,0.05469c0.00548,-0.00199 0.01093,-0.00394 0.01638,-0.00593c7.62952,-0.43057 18.86579,-1.37384 22.04808,5.29943c0.91393,1.91649 0.8069,4.48345 0.77321,6.54752c-0.02594,1.58886 -0.53674,3.20701 -1.35051,4.57191c-1.31788,1.81281 -2.58895,3.89434 -4.62958,5.00603c-1.88425,1.02652 -4.41877,1.07039 -6.49246,1.37711c-6.00053,0.88753 -17.92885,2.75092 -22.42527,-2.37414c-2.24679,-2.56088 -1.79201,-6.22815 -1.75668,-9.33715c1.39916,-3.98964 3.6149,-7.70703 7.10524,-9.94045c0.00636,-0.23738 0.25657,-0.32079 0.25657,-0.32079z" fill="#7c0000" stroke="none" stroke-width="0.5"/><path d="M258.68313,268.4389c0,1.84145 -1.84145,1.84145 -1.84145,1.84145c-2.01878,0 -5.347,0 -7.36577,0c0,0 -1.84145,0 -1.84145,-1.84145c0,-1.84145 1.84145,-1.84145 1.84145,-1.84145c2.01878,0 4.03752,0 6.0563,0h1.30948c0,0 1.84145,0 1.84145,1.84145z" fill="#c10000" stroke="none" stroke-width="0.5"/></g></g></svg>