<svg xmlns="http://www.w3.org/2000/svg" xmlns:xlink="http://www.w3.org/1999/xlink" version="1.1" width="29" height="30.75" viewBox="0.25 0.050000011920928955 29 30.75">
  <defs>
    <linearGradient id="grad_1" x1="11.7109" y1="29.3203" x2="16.2873" y2="0.4266" gradientUnits="userSpaceOnUse">
      <stop offset="0" stop-color="#820900"/>
      <stop offset="0.5211" stop-color="#AB6200"/>
      <stop offset="0.7606" stop-color="#AB7B7B"/>
      <stop offset="1" stop-color="#AB6200"/>
    </linearGradient>
    <linearGradient id="grad_2" x1="-108.3696" y1="8.6611" x2="-120.7971" y2="21.0886" gradientUnits="userSpaceOnUse">
      <stop offset="0" stop-color="#FFDA4C"/>
      <stop offset="0.5459" stop-color="#FFFF4C"/>
      <stop offset="0.6083" stop-color="#FFFF71"/>
      <stop offset="0.7039" stop-color="#FFFFA3"/>
      <stop offset="0.794" stop-color="#FFFFCB"/>
      <stop offset="0.8761" stop-color="#FFFFE8"/>
      <stop offset="0.9474" stop-color="#FFFFF9"/>
      <stop offset="1" stop-color="#FFFFFF"/>
    </linearGradient>
  <linearGradient id="grad_1-,0,0,1,0.75,0.55" x1="12.4609" y1="29.8703" x2="17.0373" y2="0.9766" gradientUnits="userSpaceOnUse">
      <stop offset="0" stop-color="#820900"/>
      <stop offset="0.5211" stop-color="#AB6200"/>
      <stop offset="0.7606" stop-color="#AB7B7B"/>
      <stop offset="1" stop-color="#AB6200"/>
    </linearGradient><linearGradient id="grad_2-,0,0,1,0.75,0.55" x1="-107.6196" y1="9.2111" x2="-120.0471" y2="21.6386" gradientUnits="userSpaceOnUse">
      <stop offset="0" stop-color="#FFDA4C"/>
      <stop offset="0.5459" stop-color="#FFFF4C"/>
      <stop offset="0.6083" stop-color="#FFFF71"/>
      <stop offset="0.7039" stop-color="#FFFFA3"/>
      <stop offset="0.794" stop-color="#FFFFCB"/>
      <stop offset="0.8761" stop-color="#FFFFE8"/>
      <stop offset="0.9474" stop-color="#FFFFF9"/>
      <stop offset="1" stop-color="#FFFFFF"/>
    </linearGradient></defs>
  <!-- Exported by Scratch - http://scratch.mit.edu/ -->
  <g id="ID0.6987480004318058">
    <g id="ID0.03910307306796312">
      <path id="ID0.855702230706811" fill="url(#grad_1-,0,0,1,0.75,0.55)" d="M 12.75 29.8 C 6.409 29.8 1.25 23.352 1.25 15.425 C 1.25 7.499 6.409 1.05 12.75 1.05 C 12.834 1.05 16.929 1.051 17.012 1.053 C 23.314 1.232 28.25 7.545 28.25 15.425 C 28.25 23.204 23.189 29.652 16.97 29.797 C 16.902 29.799 12.819 29.8 12.75 29.8 L 12.75 29.8 Z " stroke-width="1"/>
      <path id="ID0.3057160507887602" fill="#A86700" d="M 12.75 1.55 C 12.834 1.55 16.917 1.551 17 1.553 C 22.96 1.722 27.75 7.867 27.75 15.425 C 27.75 23 22.937 29.157 16.958 29.297 C 16.889 29.299 12.819 29.3 12.75 29.3 C 6.674 29.3 1.75 23.088 1.75 15.425 C 1.75 7.762 6.674 1.55 12.75 1.55 M 12.75 0.55 C 6.133 0.55 0.75 7.223 0.75 15.425 C 0.75 23.627 6.133 30.3 12.75 30.3 C 12.791 30.3 16.894 30.299 16.986 30.297 C 23.471 30.146 28.75 23.474 28.75 15.425 C 28.75 7.272 23.602 0.739 17.028 0.553 C 16.921 0.551 12.792 0.55 12.75 0.55 L 12.75 0.55 Z " stroke-width="1"/>
    </g>
    <path id="ID0.2986555374227464" fill="#FFD23A" stroke="#F2AD2E" stroke-width="0.2" d="M 12.75 1.55 C 15.785 1.55 18.535 3.105 20.526 5.616 C 22.517 8.128 23.75 11.597 23.75 15.425 C 23.75 19.253 22.517 22.722 20.526 25.234 C 18.535 27.745 15.785 29.3 12.75 29.3 C 9.715 29.3 6.965 27.745 4.974 25.234 C 2.983 22.722 1.75 19.253 1.75 15.425 C 1.75 11.597 2.983 8.128 4.974 5.616 C 6.965 3.105 9.715 1.55 12.75 1.55 Z "/>
    <path id="ID0.25412825774401426" fill="url(#grad_2-,0,0,1,0.75,0.55)" d="M 12.75 5.688 C 14.88 5.688 16.81 6.779 18.208 8.542 C 19.606 10.304 20.471 12.739 20.471 15.425 C 20.471 18.111 19.606 20.546 18.208 22.308 C 16.81 24.071 14.88 25.162 12.75 25.162 C 10.62 25.162 8.69 24.071 7.292 22.308 C 5.894 20.546 5.029 18.111 5.029 15.425 C 5.029 12.739 5.894 10.304 7.292 8.542 C 8.69 6.779 10.62 5.688 12.75 5.688 Z " stroke-width="1"/>
    <path id="ID0.9166105072945356" fill="#FFC02D" d="M 13.145 6.659 C 15.033 6.659 16.745 7.641 17.984 9.228 C 19.223 10.815 19.99 13.007 19.99 15.425 C 19.99 17.843 19.223 20.035 17.984 21.622 C 16.745 23.209 15.033 24.191 13.145 24.191 C 11.257 24.191 9.545 23.209 8.306 21.622 C 7.067 20.035 6.3 17.843 6.3 15.425 C 6.3 13.007 7.067 10.815 8.306 9.228 C 9.545 7.641 11.257 6.659 13.145 6.659 Z " stroke-width="1"/>
  </g>
</svg>