<svg xmlns="http://www.w3.org/2000/svg" xmlns:xlink="http://www.w3.org/1999/xlink" version="1.1" width="129.67444028172667" height="61.190252201892704" viewBox="0.030173471998290236 -0.30752653734771807 129.67444028172667 61.190252201892704">
  <!-- Exported by Scratch - http://scratch.mit.edu/ -->
  <path id="ID0.4177084397524595_2_" fill="none" d="M 0.5877 0.25 L 129.1471 0.25 L 129.1471 60.3252 L 0.5877 60.3252 L 0.5877 0.25 Z " stroke-width="1.1150530746954361"/>
  <path id="ID0.7840548576787114" fill="#666666" stroke="#FF00FF" d="M 113.5 33.161 C 113.5 36.375 110.285 38.979 106.32 38.979 L 24.68 38.979 C 20.715 38.979 17.5 36.375 17.5 33.161 L 17.5 23.437 C 17.5 20.224 20.715 17.619 24.68 17.619 L 106.32 17.619 C 110.285 17.619 113.5 20.223 113.5 23.437 L 113.5 33.161 Z " stroke-width="1"/>
  <path id="ID0.19409132888540626" fill="#B2B2B2" d="M 21.874 33.714 C 21.263 33.11 20.904 32.402 20.904 31.644 L 20.904 24.956 C 20.904 22.746 23.891 20.954 27.575 20.954 L 103.425 20.954 C 104.812 20.954 106.1 21.208 107.167 21.643 L 111.342 19.284 C 110.047 18.255 108.276 17.62 106.32 17.62 L 24.68 17.62 C 20.715 17.62 17.5 20.224 17.5 23.438 L 17.5 33.162 C 17.5 34.096 17.778 34.975 18.261 35.757 L 21.874 33.714 Z " stroke-width="1"/>
  <path id="ID0.8169588991440833" fill="#000000" d="M 113.104 21.543 L 109.636 23.502 C 109.929 23.953 110.096 24.441 110.096 24.954 L 110.096 31.642 C 110.096 33.853 107.109 35.644 103.425 35.644 L 27.575 35.644 C 26.6 35.644 25.677 35.516 24.842 35.29 L 20.38 37.813 C 21.58 38.542 23.066 38.98 24.68 38.98 L 106.32 38.98 C 110.285 38.98 113.5 36.376 113.5 33.162 L 113.5 23.438 C 113.5 22.773 113.356 22.138 113.104 21.543 Z " stroke-width="1"/>
  <path id="ID0.8182667219080031" fill="#FF0000" stroke="none" d="M 102.25 24.5 C 103.423 24.5 104.485 24.948 105.254 25.672 C 106.024 26.396 106.5 27.396 106.5 28.5 C 106.5 29.604 106.024 30.604 105.254 31.328 C 104.485 32.052 103.423 32.5 102.25 32.5 C 101.077 32.5 100.015 32.052 99.246 31.328 C 98.476 30.604 98 29.604 98 28.5 C 98 27.396 98.476 26.396 99.246 25.672 C 100.015 24.948 101.077 24.5 102.25 24.5 Z " stroke-width="1"/>
  <path id="ID0.8182667219080031" fill="#FF0000" stroke="none" d="M 29.25 24.25 C 30.423 24.25 31.485 24.698 32.254 25.422 C 33.024 26.146 33.5 27.146 33.5 28.25 C 33.5 29.354 33.024 30.354 32.254 31.078 C 31.485 31.802 30.423 32.25 29.25 32.25 C 28.077 32.25 27.015 31.802 26.246 31.078 C 25.476 30.354 25 29.354 25 28.25 C 25 27.146 25.476 26.146 26.246 25.422 C 27.015 24.698 28.077 24.25 29.25 24.25 Z " stroke-width="1"/>
  <path id="ID0.08539461996406317" fill="none" stroke="#000000" d="M 113.5 33.161 C 113.5 36.375 110.285 38.979 106.32 38.979 L 24.68 38.979 C 20.715 38.979 17.5 36.375 17.5 33.161 L 17.5 23.437 C 17.5 20.224 20.715 17.619 24.68 17.619 L 106.32 17.619 C 110.285 17.619 113.5 20.223 113.5 23.437 L 113.5 33.161 Z " stroke-width="1"/>
  <path id="ID0.6096465825103223" fill="#FF0000" stroke="none" d="M 29 27 L 100.25 27 L 100.25 29.75 L 29 29.75 L 29 27 Z " stroke-width="1"/>
</svg>