<svg version="1.1" width="46" height="63" viewBox="-1 -1 46 63" xmlns="http://www.w3.org/2000/svg" xmlns:xlink="http://www.w3.org/1999/xlink">
  <!-- Exported by Scratch - http://scratch.mit.edu/ -->
  <g id="ID0.42052250262349844" transform="matrix(1, 0, 0, 1, -217, -141)">
    <path id="ID0.5528155770152807" fill="#7F7F7F" stroke="#666666" stroke-width="2" d="M 244.500 167 C 250.294 167 255.544 169.353 259.345 173.155 C 263.147 176.956 265.500 182.206 265.500 188 C 265.500 193.794 263.147 199.044 259.345 202.845 C 255.544 206.647 250.294 209 244.500 209 C 238.706 209 233.456 206.647 229.655 202.845 C 225.853 199.044 223.500 193.794 223.500 188 C 223.500 182.206 225.853 176.956 229.655 173.155 C 233.456 169.353 238.706 167 244.500 167 Z " transform="matrix(1, 0, 0, 1, -5.5, -7)"/>
    <path id="ID0.49572135601192713" fill="#313131" stroke="#313131" stroke-width="2" stroke-linecap="round" d="M 233.750 193.250 C 235.171 194.144 235.819 193.585 236.500 193.500 C 237.161 193.417 237.834 193.500 238.500 193.500 C 239.166 193.500 239.839 193.583 240.500 193.500 C 241.181 193.415 241.825 193.127 242.500 193 C 243.160 192.876 243.834 192.833 244.500 192.750 C 245.166 192.667 246.025 192.975 246.500 192.500 C 246.975 192.025 246.976 191.132 246.750 190.500 C 246.512 189.835 245.566 189.632 245.250 189 C 244.950 188.400 244.917 187.666 245 187 C 245.170 185.638 245.872 184.367 246 183 C 246.125 181.671 246.034 180.304 245.750 179 C 245.607 178.344 245.266 177.680 244.750 177.250 C 244.204 176.795 243.429 176.712 242.750 176.500 C 242.095 176.295 241.416 176.167 240.750 176 C 240.084 175.833 239.435 175.457 238.750 175.500 C 238.040 175.544 237.378 175.915 236.750 176.250 C 236.118 176.587 235.506 176.994 235 177.500 C 234.494 178.006 234.036 178.593 233.750 179.250 C 233.194 180.530 232.361 181.861 232.500 183.250 C 232.634 184.586 234.203 185.441 234.500 186.750 C 234.658 187.444 234.000 188.084 233.750 188.750 C 233.500 189.416 233.131 190.051 233 190.750 C 232.877 191.405 232.721 192.145 233 192.750 C 233.272 193.340 233.864 193.864 234.500 194 Z " transform="matrix(1, 0, 0, 1, -0.25, -3.25)"/>
    <path id="ID0.6913887565024197" fill="none" stroke="#676767" stroke-width="2" stroke-linecap="round" d="M 224 165.500 L 222.500 158.250 L 222.750 153.750 L 224.500 149.500 L 226.250 146.250 L 230.750 144 L 235.750 142.750 L 245.750 143 L 250.500 145.250 L 252.750 149 L 254 153.500 L 254.500 157 L 253 165.250 "/>
  </g>
</svg>