<svg version="1.1" xmlns="http://www.w3.org/2000/svg" xmlns:xlink="http://www.w3.org/1999/xlink" width="651.65166" height="445.07961" viewBox="0,0,651.65166,445.07961"><defs><linearGradient x1="238.99402" y1="43.73366" x2="238.99402" y2="23.65945" gradientUnits="userSpaceOnUse" id="color-1"><stop offset="0" stop-color="#000000" stop-opacity="0"/><stop offset="1" stop-color="#000000"/></linearGradient><linearGradient x1="242.17881" y1="310.29555" x2="242.17881" y2="330.9593" gradientUnits="userSpaceOnUse" id="color-2"><stop offset="0" stop-color="#000000" stop-opacity="0"/><stop offset="1" stop-color="#000000"/></linearGradient><linearGradient x1="45.21522" y1="180.52286" x2="23.62927" y2="180.61509" gradientUnits="userSpaceOnUse" id="color-3"><stop offset="0" stop-color="#000000" stop-opacity="0"/><stop offset="1" stop-color="#000000"/></linearGradient><linearGradient x1="437.13371" y1="198.39632" x2="460.45872" y2="198.4808" gradientUnits="userSpaceOnUse" id="color-4"><stop offset="0" stop-color="#000000" stop-opacity="0"/><stop offset="1" stop-color="#000000"/></linearGradient></defs><g transform="translate(73.23388,44.41946)"><g data-paper-data="{&quot;isPaintingLayer&quot;:true}" fill-rule="nonzero" stroke="none" stroke-width="0" stroke-linecap="butt" stroke-linejoin="miter" stroke-miterlimit="10" stroke-dasharray="" stroke-dashoffset="0" style="mix-blend-mode: normal"><path d="M-73.23388,24.5668v-68.98626h651.65166v68.98627z" fill="#000000"/><path d="M522.02703,23.65945v20.07421h-566.06607v-20.07421z" data-paper-data="{&quot;index&quot;:null}" fill="url(#color-1)"/><path d="M-73.23388,398.59053v-68.26932h651.65166v68.26933z" fill="#000000"/><path d="M-40.85424,330.9593v-20.66376h566.06607v20.66376z" data-paper-data="{&quot;index&quot;:null}" fill="url(#color-2)"/><path d="M-63.18153,343v-351h87.58504v351z" fill="#000000"/><path d="M23.19862,-39.42995l21.58594,-0.09223l0.86131,440.0901l-21.58594,0.09223z" data-paper-data="{&quot;index&quot;:null}" fill="url(#color-3)"/><path d="M459.53949,353v-351h108.91417v351z" fill="#000000"/><path d="M459.99338,400.02973l-23.32501,-0.08448l0.9307,-403.09785l23.32501,0.08448z" data-paper-data="{&quot;index&quot;:null}" fill="url(#color-4)"/></g></g></svg>