<svg version="1.1" xmlns="http://www.w3.org/2000/svg" xmlns:xlink="http://www.w3.org/1999/xlink" width="591.59159" height="426.42643" viewBox="0,0,591.59159,426.42643"><g transform="translate(55.7958,33.21322)"><g data-paper-data="{&quot;isPaintingLayer&quot;:true}" fill-rule="nonzero" stroke="none" stroke-linecap="butt" stroke-linejoin="miter" stroke-miterlimit="10" stroke-dasharray="" stroke-dashoffset="0" style="mix-blend-mode: normal"><path d="M-55.79579,393.21322v-426.42643h591.59159v426.42643z" fill="#000000" stroke-width="0"/><path d="M263.35395,33.30569c0,-0.69035 0.55964,-1.25 1.25,-1.25c0.69036,0 1.25,0.55965 1.25,1.25c0,0.69035 -0.55964,1.25 -1.25,1.25c-0.69036,0 -1.25,-0.55965 -1.25,-1.25z" fill="#ffffff" stroke-width="0.5"/><path d="M372.96356,27.29969c0,-0.69036 0.55964,-1.25 1.25,-1.25c0.69036,0 1.25,0.55964 1.25,1.25c0,0.69036 -0.55964,1.25 -1.25,1.25c-0.69036,0 -1.25,-0.55964 -1.25,-1.25z" fill="#ffffff" stroke-width="0.5"/><path d="M425.51611,79.85223c0,-0.69035 0.55964,-1.25 1.25,-1.25c0.69036,0 1.25,0.55965 1.25,1.25c0,0.69035 -0.55964,1.25 -1.25,1.25c-0.69036,0 -1.25,-0.55965 -1.25,-1.25z" fill="#ffffff" stroke-width="0.5"/><path d="M368.45906,159.43182c0,-0.69036 0.55964,-1.25 1.25,-1.25c0.69036,0 1.25,0.55964 1.25,1.25c0,0.69036 -0.55964,1.25 -1.25,1.25c-0.69036,0 -1.25,-0.55964 -1.25,-1.25z" fill="#ffffff" stroke-width="0.5"/><path d="M353.44404,106.87927c0,-0.69035 0.55964,-1.25 1.25,-1.25c0.69036,0 1.25,0.55965 1.25,1.25c0,0.69035 -0.55964,1.25 -1.25,1.25c-0.69036,0 -1.25,-0.55965 -1.25,-1.25z" fill="#ffffff" stroke-width="0.5"/><path d="M210.8014,106.87927c0,-0.69035 0.55964,-1.25 1.25,-1.25c0.69036,0 1.25,0.55965 1.25,1.25c0,0.69035 -0.55964,1.25 -1.25,1.25c-0.69036,0 -1.25,-0.55965 -1.25,-1.25z" fill="#ffffff" stroke-width="0.5"/><path d="M195.78638,45.31771c0,-0.69035 0.55964,-1.25 1.25,-1.25c0.69036,0 1.25,0.55965 1.25,1.25c0,0.69035 -0.55964,1.25 -1.25,1.25c-0.69036,0 -1.25,-0.55965 -1.25,-1.25z" fill="#ffffff" stroke-width="0.5"/><path d="M87.67828,79.85223c0,-0.69035 0.55965,-1.25 1.25,-1.25c0.69035,0 1.25,0.55965 1.25,1.25c0,0.69035 -0.55965,1.25 -1.25,1.25c-0.69035,0 -1.25,-0.55965 -1.25,-1.25z" fill="#ffffff" stroke-width="0.5"/><path d="M102.69329,150.42281c0,-0.69036 0.55965,-1.25 1.25,-1.25c0.69035,0 1.25,0.55964 1.25,1.25c0,0.69036 -0.55965,1.25 -1.25,1.25c-0.69035,0 -1.25,-0.55964 -1.25,-1.25z" fill="#ffffff" stroke-width="0.5"/><path d="M207.7984,205.97837c0,-0.69036 0.55964,-1.25 1.25,-1.25c0.69036,0 1.25,0.55964 1.25,1.25c0,0.69036 -0.55964,1.25 -1.25,1.25c-0.69036,0 -1.25,-0.55964 -1.25,-1.25z" fill="#ffffff" stroke-width="0.5"/><path d="M62.15275,234.50689c0,-0.69036 0.55965,-1.25 1.25,-1.25c0.69035,0 1.25,0.55964 1.25,1.25c0,0.69036 -0.55965,1.25 -1.25,1.25c-0.69035,0 -1.25,-0.55964 -1.25,-1.25z" fill="#ffffff" stroke-width="0.5"/><path d="M81.67227,303.57596c0,-0.69036 0.55965,-1.25 1.25,-1.25c0.69035,0 1.25,0.55964 1.25,1.25c0,0.69036 -0.55965,1.25 -1.25,1.25c-0.69035,0 -1.25,-0.55964 -1.25,-1.25z" fill="#ffffff" stroke-width="0.5"/><path d="M168.75936,293.06545c0,-0.69036 0.55964,-1.25 1.25,-1.25c0.69036,0 1.25,0.55964 1.25,1.25c0,0.69036 -0.55964,1.25 -1.25,1.25c-0.69036,0 -1.25,-0.55964 -1.25,-1.25z" fill="#ffffff" stroke-width="0.5"/><path d="M276.86747,320.09247c0,-0.69036 0.55964,-1.25 1.25,-1.25c0.69036,0 1.25,0.55964 1.25,1.25c0,0.69036 -0.55964,1.25 -1.25,1.25c-0.69036,0 -1.25,-0.55964 -1.25,-1.25z" fill="#ffffff" stroke-width="0.5"/><path d="M427.01762,261.53392c0,-0.69036 0.55964,-1.25 1.25,-1.25c0.69036,0 1.25,0.55964 1.25,1.25c0,0.69036 -0.55964,1.25 -1.25,1.25c-0.69036,0 -1.25,-0.55964 -1.25,-1.25z" fill="#ffffff" stroke-width="0.5"/><path d="M324.91551,239.0114c0,-0.69036 0.55964,-1.25 1.25,-1.25c0.69036,0 1.25,0.55964 1.25,1.25c0,0.69036 -0.55964,1.25 -1.25,1.25c-0.69036,0 -1.25,-0.55964 -1.25,-1.25z" fill="#ffffff" stroke-width="0.5"/><path d="M302.39299,139.9123c0,-0.69036 0.55964,-1.25 1.25,-1.25c0.69036,0 1.25,0.55964 1.25,1.25c0,0.69036 -0.55964,1.25 -1.25,1.25c-0.69036,0 -1.25,-0.55964 -1.25,-1.25z" fill="#ffffff" stroke-width="0.5"/><path d="M171.76236,160.93332c0,-0.69036 0.55964,-1.25 1.25,-1.25c0.69036,0 1.25,0.55964 1.25,1.25c0,0.69036 -0.55964,1.25 -1.25,1.25c-0.69036,0 -1.25,-0.55964 -1.25,-1.25z" fill="#ffffff" stroke-width="0.5"/><path d="M110.2008,25.79819c0,-0.69036 0.55965,-1.25 1.25,-1.25c0.69035,0 1.25,0.55964 1.25,1.25c0,0.69036 -0.55965,1.25 -1.25,1.25c-0.69035,0 -1.25,-0.55964 -1.25,-1.25z" fill="#ffffff" stroke-width="0.5"/><path d="M39.63023,33.30569c0,-0.69035 0.55965,-1.25 1.25,-1.25c0.69035,0 1.25,0.55965 1.25,1.25c0,0.69035 -0.55965,1.25 -1.25,1.25c-0.69035,0 -1.25,-0.55965 -1.25,-1.25z" fill="#ffffff" stroke-width="0.5"/><path d="M17.1077,135.40779c0,-0.69036 0.55964,-1.25 1.25,-1.25c0.69036,0 1.25,0.55964 1.25,1.25c0,0.69036 -0.55964,1.25 -1.25,1.25c-0.69036,0 -1.25,-0.55964 -1.25,-1.25z" fill="#ffffff" stroke-width="0.5"/><path d="M-51.96137,153.42581c0,-0.69036 0.55964,-1.25 1.25,-1.25c0.69036,0 1.25,0.55964 1.25,1.25c0,0.69036 -0.55964,1.25 -1.25,1.25c-0.69036,0 -1.25,-0.55964 -1.25,-1.25z" fill="#ffffff" stroke-width="0.5"/><path d="M9.6002,267.53992c0,-0.69036 0.55964,-1.25 1.25,-1.25c0.69036,0 1.25,0.55964 1.25,1.25c0,0.69036 -0.55964,1.25 -1.25,1.25c-0.69036,0 -1.25,-0.55964 -1.25,-1.25z" fill="#ffffff" stroke-width="0.5"/><path d="M-26.43584,320.09248c0,-0.69036 0.55964,-1.25 1.25,-1.25c0.69036,0 1.25,0.55964 1.25,1.25c0,0.69036 -0.55964,1.25 -1.25,1.25c-0.69036,0 -1.25,-0.55964 -1.25,-1.25z" fill="#ffffff" stroke-width="0.5"/><path d="M104.19479,357.63001c0,-0.69036 0.55964,-1.25 1.25,-1.25c0.69036,0 1.25,0.55964 1.25,1.25c0,0.69036 -0.55964,1.25 -1.25,1.25c-0.69036,0 -1.25,-0.55964 -1.25,-1.25z" fill="#ffffff" stroke-width="0.5"/><path d="M192.78338,329.10149c0,-0.69036 0.55964,-1.25 1.25,-1.25c0.69036,0 1.25,0.55964 1.25,1.25c0,0.69036 -0.55964,1.25 -1.25,1.25c-0.69036,0 -1.25,-0.55964 -1.25,-1.25z" fill="#ffffff" stroke-width="0.5"/><path d="M374.46506,363.63602c0,-0.69036 0.55964,-1.25 1.25,-1.25c0.69036,0 1.25,0.55964 1.25,1.25c0,0.69036 -0.55964,1.25 -1.25,1.25c-0.69036,0 -1.25,-0.55964 -1.25,-1.25z" fill="#ffffff" stroke-width="0.5"/><path d="M372.96356,317.08947c0,-0.69036 0.55964,-1.25 1.25,-1.25c0.69036,0 1.25,0.55964 1.25,1.25c0,0.69036 -0.55964,1.25 -1.25,1.25c-0.69036,0 -1.25,-0.55964 -1.25,-1.25z" fill="#ffffff" stroke-width="0.5"/><path d="M488.57917,327.59998c0,-0.69036 0.55964,-1.25 1.25,-1.25c0.69036,0 1.25,0.55964 1.25,1.25c0,0.69036 -0.55964,1.25 -1.25,1.25c-0.69036,0 -1.25,-0.55964 -1.25,-1.25z" fill="#ffffff" stroke-width="0.5"/><path d="M520.11071,210.48287c0,-0.69036 0.55964,-1.25 1.25,-1.25c0.69036,0 1.25,0.55964 1.25,1.25c0,0.69036 -0.55964,1.25 -1.25,1.25c-0.69036,0 -1.25,-0.55964 -1.25,-1.25z" fill="#ffffff" stroke-width="0.5"/><path d="M448.03863,192.46485c0,-0.69036 0.55964,-1.25 1.25,-1.25c0.69036,0 1.25,0.55964 1.25,1.25c0,0.69036 -0.55964,1.25 -1.25,1.25c-0.69036,0 -1.25,-0.55964 -1.25,-1.25z" fill="#ffffff" stroke-width="0.5"/><path d="M503.59419,73.84623c0,-0.69036 0.55964,-1.25 1.25,-1.25c0.69036,0 1.25,0.55964 1.25,1.25c0,0.69036 -0.55964,1.25 -1.25,1.25c-0.69036,0 -1.25,-0.55964 -1.25,-1.25z" fill="#ffffff" stroke-width="0.5"/><path d="M457.04764,34.80719c0,-0.69036 0.55964,-1.25 1.25,-1.25c0.69036,0 1.25,0.55964 1.25,1.25c0,0.69036 -0.55964,1.25 -1.25,1.25c-0.69036,0 -1.25,-0.55964 -1.25,-1.25z" fill="#ffffff" stroke-width="0.5"/></g></g></svg>