<svg version="1.1" xmlns="http://www.w3.org/2000/svg" xmlns:xlink="http://www.w3.org/1999/xlink" width="55.60135" height="16.90027" viewBox="0,0,55.60135,16.90027"><defs><linearGradient x1="4.11182" y1="11.29003" x2="4.11182" y2="26.75931" gradientUnits="userSpaceOnUse" id="color-1"><stop offset="0" stop-color="#000000"/><stop offset="1" stop-color="#ff0000"/></linearGradient><linearGradient x1="-0.97054" y1="13.46385" x2="4.20616" y2="20.04165" gradientUnits="userSpaceOnUse" id="color-2"><stop offset="0" stop-color="#ffffff"/><stop offset="1" stop-color="#ffffff" stop-opacity="0"/></linearGradient><linearGradient x1="4.36625" y1="22.26427" x2="8.20999" y2="12.11489" gradientUnits="userSpaceOnUse" id="color-3"><stop offset="0" stop-color="#ffffff" stop-opacity="0"/><stop offset="1" stop-color="#ffffff"/></linearGradient><linearGradient x1="23.65312" y1="11.99054" x2="23.65312" y2="27.45982" gradientUnits="userSpaceOnUse" id="color-4"><stop offset="0" stop-color="#000000"/><stop offset="1" stop-color="#faff00"/></linearGradient><linearGradient x1="23.90755" y1="22.96478" x2="27.75129" y2="12.8154" gradientUnits="userSpaceOnUse" id="color-5"><stop offset="0" stop-color="#ffffff" stop-opacity="0"/><stop offset="1" stop-color="#ffffff"/></linearGradient><linearGradient x1="18.57075" y1="14.16436" x2="23.74746" y2="20.74216" gradientUnits="userSpaceOnUse" id="color-6"><stop offset="0" stop-color="#ffffff"/><stop offset="1" stop-color="#ffffff" stop-opacity="0"/></linearGradient><linearGradient x1="44.14819" y1="12.69105" x2="44.14819" y2="28.16032" gradientUnits="userSpaceOnUse" id="color-7"><stop offset="0" stop-color="#000000"/><stop offset="1" stop-color="#00ff14"/></linearGradient><linearGradient x1="39.06583" y1="14.86485" x2="44.24253" y2="21.44267" gradientUnits="userSpaceOnUse" id="color-8"><stop offset="0" stop-color="#ffffff"/><stop offset="1" stop-color="#ffffff" stop-opacity="0"/></linearGradient><linearGradient x1="44.40262" y1="23.66528" x2="48.24636" y2="13.5159" gradientUnits="userSpaceOnUse" id="color-9"><stop offset="0" stop-color="#ffffff" stop-opacity="0"/><stop offset="1" stop-color="#ffffff"/></linearGradient></defs><g transform="translate(3.72357,-11.26005)"><g data-paper-data="{&quot;isPaintingLayer&quot;:true}" fill-rule="nonzero" stroke-width="2" stroke-linejoin="miter" stroke-miterlimit="10" stroke-dasharray="" stroke-dashoffset="0" style="mix-blend-mode: normal"><path d="M11.84142,19.02467c0,4.27172 -3.46066,7.73464 -7.72961,7.73464c-4.26894,0 -7.72961,-3.46291 -7.72961,-7.73464c0,-4.27172 3.46067,-7.73464 7.72961,-7.73464c4.26894,0 7.72961,3.46292 7.72961,7.73464z" fill="url(#color-1)" stroke="none" stroke-linecap="butt"/><g fill="none" stroke="#ffffff" stroke-linecap="round"><path d="M8.03344,14.88166l-7.08213,8.65631"/><path d="M0.33663,15.07103l8.31152,8.27758"/></g><path d="M7.03773,12.50671c0.18848,0.2395 0.09887,0.45785 0.14767,0.66529c0.06353,0.27004 0.23056,0.5225 0.21027,0.78855c-0.03725,0.48835 -0.08805,1.02045 -0.60069,1.90844c-0.62065,1.07507 -2.08545,1.67617 -3.27289,2.60307c-1.34861,1.05271 -1.82522,1.49262 -2.77202,2.01088c-0.35535,0.19451 -1.01018,0.96426 -1.46375,0.96292c-1.12756,-0.00333 -1.58649,-0.43518 -2.1643,-1.16936c-1.4295,-1.81641 -1.2056,-4.38268 1.90743,-6.81266c3.11302,-2.42998 6.60682,-2.92602 8.03632,-1.10961z" data-paper-data="{&quot;index&quot;:null}" fill="url(#color-2)" stroke="none" stroke-linecap="butt"/><path d="M1.46702,15.1795c1.06142,-2.80268 4.08035,-4.17475 6.74296,-3.06461c2.66262,1.11014 3.96064,4.2821 2.89923,7.08477c-0.49072,1.29573 -1.14743,2.98141 -2.24629,3.56167c-1.27799,0.67486 -2.94459,-0.34202 -4.37623,-0.93892c-1.36284,-0.56821 -3.42743,-1.23249 -3.94186,-2.55502c-0.49064,-1.26135 0.40406,-2.71973 0.92219,-4.08788z" data-paper-data="{&quot;index&quot;:null}" fill="url(#color-3)" stroke="none" stroke-linecap="butt"/><g><path d="M31.38273,19.72518c0,4.27172 -3.46067,7.73464 -7.72961,7.73464c-4.26894,0 -7.72961,-3.46291 -7.72961,-7.73464c0,-4.27172 3.46067,-7.73464 7.72961,-7.73464c4.26894,0 7.72961,3.46292 7.72961,7.73464z" fill="url(#color-4)" stroke="none" stroke-linecap="butt"/><path d="M18.66016,19.36689l9.89137,0.51892" fill="none" stroke="#ffffff" stroke-linecap="round"/><path d="M21.00832,15.88001c1.06142,-2.80268 4.08035,-4.17475 6.74297,-3.06461c2.66262,1.11014 3.96064,4.2821 2.89923,7.08477c-0.49072,1.29573 -1.14742,2.98141 -2.2463,3.56167c-1.27799,0.67486 -2.94459,-0.34202 -4.37623,-0.93892c-1.36284,-0.56821 -3.42743,-1.23248 -3.94186,-2.55502c-0.49064,-1.26135 0.40405,-2.71973 0.92219,-4.08788z" data-paper-data="{&quot;index&quot;:null}" fill="url(#color-5)" stroke="none" stroke-linecap="butt"/><path d="M26.57904,13.20722c0.18848,0.2395 0.09886,0.45785 0.14766,0.66529c0.06352,0.27003 0.23056,0.5225 0.21027,0.78855c-0.03725,0.48836 -0.08805,1.02045 -0.6007,1.90844c-0.62065,1.07507 -2.08545,1.67617 -3.27289,2.60307c-1.34861,1.05271 -1.82522,1.49262 -2.77201,2.01088c-0.35534,0.19451 -1.01018,0.96426 -1.46375,0.96292c-1.12756,-0.00333 -1.58649,-0.43518 -2.1643,-1.16936c-1.4295,-1.81641 -1.2056,-4.38269 1.90743,-6.81266c3.11302,-2.42997 6.60681,-2.92602 8.03631,-1.10961z" data-paper-data="{&quot;index&quot;:null}" fill="url(#color-6)" stroke="none" stroke-linecap="butt"/></g><g><path d="M51.87778,20.42568c0,4.27172 -3.46067,7.73464 -7.7296,7.73464c-4.26894,0 -7.7296,-3.46292 -7.7296,-7.73464c0,-4.27172 3.46067,-7.73464 7.7296,-7.73464c4.26894,0 7.7296,3.46292 7.7296,7.73464z" fill="url(#color-7)" stroke="none" stroke-linecap="butt"/><g fill="none" stroke="#ffffff" stroke-linecap="round"><path d="M44.10092,25.25662v-9.85954"/><path d="M49.04661,20.58631l-9.89138,-0.51892"/></g><path d="M47.07411,13.90772c0.18848,0.2395 0.09886,0.45785 0.14766,0.66529c0.06353,0.27004 0.23056,0.5225 0.21027,0.78855c-0.03725,0.48836 -0.08805,1.02046 -0.60069,1.90844c-0.62065,1.07507 -2.08545,1.67617 -3.2729,2.60307c-1.34861,1.0527 -1.82522,1.49263 -2.77201,2.01088c-0.35535,0.19451 -1.01017,0.96426 -1.46375,0.96292c-1.12756,-0.00333 -1.5865,-0.43519 -2.1643,-1.16936c-1.4295,-1.81641 -1.2056,-4.38268 1.90743,-6.81266c3.11302,-2.42997 6.60682,-2.92602 8.03633,-1.10961z" data-paper-data="{&quot;index&quot;:null}" fill="url(#color-8)" stroke="none" stroke-linecap="butt"/><path d="M41.5034,16.58051c1.06142,-2.80268 4.08035,-4.17475 6.74296,-3.06461c2.66262,1.11014 3.96064,4.28209 2.89923,7.08477c-0.49072,1.29573 -1.14742,2.98141 -2.24629,3.56167c-1.27799,0.67486 -2.94459,-0.34202 -4.37624,-0.93892c-1.36284,-0.56821 -3.42742,-1.23248 -3.94186,-2.55502c-0.49064,-1.26135 0.40406,-2.71974 0.9222,-4.08789z" data-paper-data="{&quot;index&quot;:null}" fill="url(#color-9)" stroke="none" stroke-linecap="butt"/></g></g></g></svg>