<svg version="1.1" xmlns="http://www.w3.org/2000/svg" xmlns:xlink="http://www.w3.org/1999/xlink" width="118.1008" height="48.66752" viewBox="0,0,118.1008,48.66752"><g transform="translate(-245.87827,-172.13808)"><g data-paper-data="{&quot;isPaintingLayer&quot;:true}" fill-rule="nonzero" stroke="#24ff00" stroke-linejoin="miter" stroke-miterlimit="10" stroke-dasharray="" stroke-dashoffset="0" style="mix-blend-mode: normal"><path d="M247.37827,213.71366c0,-10.11942 0,-30.88659 0,-35.88162c0,-2.12137 1.85317,-4.19396 4.19396,-4.19396c10.38199,0 85.35708,0 105.78089,0c3.25633,0 5.12595,2.33655 5.12595,4.65995c0,5.06384 0,24.82236 0,34.94963c0,3.65686 -2.78966,6.05794 -6.05794,6.05794c-12.22021,0 -87.59326,0 -105.31489,0c-2.38692,0 -3.72796,-2.19662 -3.72796,-5.59194z" fill="#020202" stroke-width="3" stroke-linecap="butt"/><path d="M272.07608,196.93784c0,9.77976 0.21069,17.70781 -7.19994,17.70781c-7.41063,0 -7.19993,-7.92806 -7.19993,-17.70781c0,-9.77976 -0.2107,-17.70781 7.19993,-17.70781c7.41063,0 7.19994,7.92806 7.19994,17.70781z" fill="none" stroke-width="2.5" stroke-linecap="butt"/><path d="M286.98785,179.23002v33.08565c0,0 -0.25779,3.91494 -1.30241,0.1787c-2.24426,-8.02696 -6.43531,-27.7809 -7.64528,-31.52079c-0.81006,-2.50381 -1.3042,-0.34557 -1.3042,-0.34557v33.08565" fill="none" stroke-width="2.5" stroke-linecap="round"/><path d="M305.16166,212.78167h-11.18388v-34.01764" fill="none" stroke-width="2.5" stroke-linecap="round"/><path d="M317.74352,178.76403h-10.25189" fill="none" stroke-width="2.5" stroke-linecap="round"/><path d="M312.61758,178.76403v34.48364" fill="none" stroke-width="2.5" stroke-linecap="round"/><path d="M309.35562,214.17966h7.45592" fill="none" stroke-width="1" stroke-linecap="round"/><path d="M334.98535,178.76403v33.08565c0,0 -0.25779,3.91494 -1.30241,0.1787c-2.24426,-8.02696 -6.43531,-27.7809 -7.64528,-31.52079c-0.81006,-2.50381 -1.3042,-0.34557 -1.3042,-0.34557v33.08565" fill="none" stroke-width="2.5" stroke-linecap="round"/><path d="M351.29519,213.24767h-9.7859v-34.01764h8.85391" fill="none" stroke-width="2.5" stroke-linecap="round"/><path d="M341.50929,196.47185h8.38791" fill="none" stroke-width="2.5" stroke-linecap="round"/></g></g></svg>