<svg xmlns="http://www.w3.org/2000/svg" xmlns:xlink="http://www.w3.org/1999/xlink" version="1.1" width="130.6323967029528" height="102.69189835090202" viewBox="-0.04759788760921124 -0.5475978876092112 130.6323967029528 102.69189835090202">
  <!-- Exported by Scratch - http://scratch.mit.edu/ -->
  <path id="ID0.35917190834879875" fill="#42210B" stroke="#000000" d="M 28.2444 55.0196 C 28.2444 68.1141 43.4467 78.7288 62.2006 78.7288 C 80.9545 78.7288 95.8852 67.185 91.0415 55.0196 C 86.4587 43.5095 80.9545 31.3105 62.2006 31.3105 C 43.4467 31.3105 28.2444 41.9258 28.2444 55.0196 Z " stroke-width="0.5902649164199829"/>
  <g id="ID0.893189774826169">
    <path id="ID0.6546092904172838" fill="#C69C6D" stroke="#000000" d="M 31.6191 78.6716 C 31.6191 74.2038 36.307 70.5814 42.0904 70.5814 C 47.8738 70.5814 52.5617 74.2038 52.5617 78.6716 C 52.5617 81.1424 31.6191 81.1424 31.6191 78.6716 Z " stroke-width="0.5902649164199829"/>
    <path id="ID0.9999977913685143" fill="#A67C52" stroke="#000000" d="M 50.7112 79.7795 C 50.5937 76.3825 48.823 74.7374 48.823 74.7374 " stroke-width="0.5902649164199829"/>
    <path id="ID0.8689246741123497" fill="#A67C52" stroke="#000000" d="M 48.3348 80.1921 C 48.3307 76.9704 47.2487 75.5532 47.2487 75.5532 " stroke-width="0.5902649164199829"/>
  </g>
  <path id="ID0.009229061659425497" fill="#754C24" stroke="#000000" d="M 26.8673 55.7196 C 26.8673 60.0008 28.3548 64.0341 30.9797 67.5686 C 36.916 75.5608 60.5643 77.0188 69.6952 67.0333 C 86.428 48.735 102.665 54.6377 93.6204 44.1422 C 87.069 36.5402 75.8841 30.4368 62.2006 30.4368 C 42.6864 30.4368 26.8673 41.7563 26.8673 55.7196 Z " stroke-width="0.5902649164199829"/>
  <path id="ID0.8130080956034362" fill="#C69C6D" stroke="#000000" d="M 73.9492 65.5405 C 75.3942 65.0902 76.675 64.0436 77.9111 62.7285 C 76.7217 62.8808 75.4219 62.6589 74.2201 62.0155 C 71.466 60.541 70.2677 57.4138 71.5439 55.0291 C 72.82 52.645 76.0871 51.9072 78.8413 53.3811 C 80.6747 54.3627 81.8127 56.0762 81.9969 57.8157 C 84.9045 54.3479 88.2454 51.3039 93.4026 52.462 C 98.2232 53.544 97.7806 59.0541 101.076 60.0369 C 105.4623 61.3449 110.7929 60.7257 110.7929 65.5405 C 110.7929 69.4534 107.916 72.9283 103.4648 75.1182 C 100.3789 76.6363 96.5363 76.4663 92.3708 76.4663 C 87.7053 76.4663 80.5643 73.9719 76.8751 73.3468 C 72.6453 72.6296 70.7759 66.5304 73.9492 65.5405 Z " stroke-width="0.5902649164199829"/>
  <path id="ID0.5114893540740013" d="M 103.7003 70.2013 C 104.7114 71.1522 107.8688 70.3317 110.9393 67.5923 C 113.615 65.2047 113.4491 61.3254 111.6459 59.9301 C 109.8426 58.5347 105.915 59.5399 104.5491 62.8554 C 102.5759 67.6472 102.6308 69.1949 103.7003 70.2013 Z " stroke-width="0.5902649164199829" />
  <path id="ID0.6965664783492684" fill="#FFFFFF" stroke="#000000" d="M 83.4666 61.7097 C 85.2091 67.0404 93.7012 69.4817 93.7012 61.787 C 88.4839 61.9063 87.6368 58.4632 85.5255 58.2974 C 83.4489 58.1345 82.9743 60.2045 83.4666 61.7097 Z " stroke-width="0.5902649164199829"/>
  <path id="ID0.6119098500348628" d="M 91.2747 62.5951 C 91.6276 62.5951 91.9476 62.7385 92.1789 62.9699 C 92.4103 63.2013 92.5538 63.5212 92.5538 63.8742 C 92.5538 64.2272 92.4103 64.5471 92.1789 64.7785 C 91.9476 65.0099 91.6276 65.1533 91.2747 65.1533 C 90.9217 65.1533 90.6017 65.0099 90.3704 64.7785 C 90.139 64.5471 89.9955 64.2272 89.9955 63.8742 C 89.9955 63.5212 90.139 63.2013 90.3704 62.9699 C 90.6017 62.7385 90.9217 62.5951 91.2747 62.5951 Z " stroke-width="0.5902649164199829" />
  <path id="ID0.22970852302387357" fill="none" stroke="#000000" d="M 75.61 61.0629 C 74.7742 60.6156 74.1818 59.9022 73.8998 59.1119 C 73.6176 58.3208 73.6459 57.4522 74.0518 56.6939 C 74.4576 55.9356 75.1646 55.4303 75.9794 55.2263 C 76.7935 55.0226 77.7156 55.1198 78.5514 55.5671 C 79.3873 56.0145 79.9796 56.7279 80.2616 57.5182 C 80.5438 58.3093 80.5155 59.1779 80.1096 59.9362 C 79.7038 60.6944 78.9968 61.1998 78.182 61.4038 C 77.3679 61.6075 76.4458 61.5103 75.61 61.0629 Z " stroke-width="0.5902898577198336"/>
  <path id="ID0.916386145632714" fill="none" stroke="#000000" d="M 108.4543 71.0554 C 108.4543 71.0554 106.6835 72.0966 104.1259 72.1662 C 101.5683 72.2359 100.3441 70.9745 98.2232 70.5814 C 95.6385 70.8618 95.694 74.3018 95.694 74.3018 " stroke-width="0.5902649164199829"/>
  <path id="ID0.46020253375172615" fill="none" stroke="#000000" d="M 94.8782 61.1495 C 92.7137 61.3461 92.8489 61.3154 90.9134 60.9223 C 88.9779 60.5292 87.2048 57.7744 84.5486 57.4297 " stroke-width="0.5902649164199829"/>
  <path id="ID0.5557723217643797" fill="#42210B" stroke="#000000" d="M 59.0007 37.0464 L 64.1431 37.0464 L 61.5719 19.1909 L 59.0007 37.0464 " stroke-width="0.5902649164199829"/>
  <path id="ID0.3557110703550279" fill="#42210B" stroke="#000000" d="M 68.687 32.9907 L 73.7603 33.8354 L 74.1558 15.7993 L 68.687 32.9907 " stroke-width="0.5902649164199829"/>
  <path id="ID0.9858297486789525" fill="#42210B" stroke="#000000" d="M 77.7458 38.5965 L 82.2129 41.1458 L 88.8304 24.3628 L 77.7458 38.5965 " stroke-width="0.5902649164199829"/>
  <path id="ID0.7554545314051211" fill="#42210B" stroke="#000000" d="M 87.7838 40.277 L 91.7563 43.5435 L 101.112 28.1187 L 87.7838 40.277 " stroke-width="0.5902649164199829"/>
  <path id="ID0.12854639953002334" fill="#42210B" stroke="#000000" d="M 79.4145 48.2556 L 83.4896 51.3934 L 87.1646 42.4072 L 79.4145 48.2556 " stroke-width="0.5902649164199829"/>
  <path id="ID0.0611889879219234" fill="#42210B" stroke="#000000" d="M 66.4859 43.8646 L 71.5309 44.8615 L 70.8237 35.1788 L 66.4859 43.8646 " stroke-width="0.5902649164199829"/>
  <path id="ID0.2531722658313811" fill="#42210B" stroke="#000000" d="M 52.4529 43.4054 L 57.5109 42.4745 L 53.2882 33.7327 L 52.4529 43.4054 " stroke-width="0.5902649164199829"/>
  <path id="ID0.7779754302464426" fill="#42210B" stroke="#000000" d="M 42.8818 51.4772 L 46.5414 47.8636 L 38.1343 43.0087 L 42.8818 51.4772 " stroke-width="0.5902649164199829"/>
  <path id="ID0.20593265164643526" fill="#42210B" stroke="#000000" d="M 38.2565 60.8447 L 38.5799 55.7118 L 29.0755 57.6898 L 38.2565 60.8447 " stroke-width="0.5902649164199829"/>
  <path id="ID0.8070150394923985" fill="#42210B" stroke="#000000" d="M 49.0312 33.6158 L 54.0809 32.6425 L 48.1765 15.5968 L 49.0312 33.6158 " stroke-width="0.5902649164199829"/>
  <path id="ID0.729429510422051" fill="#42210B" stroke="#000000" d="M 41.8895 41.4126 L 46.5698 39.2824 L 36.8339 24.096 L 41.8895 41.4126 " stroke-width="0.5902649164199829"/>
  <path id="ID0.06967791076749563" fill="#42210B" stroke="#000000" d="M 32.6672 43.766 L 36.4715 40.3065 L 22.5572 28.8252 L 32.6672 43.766 " stroke-width="0.5902649164199829"/>
  <path id="ID0.07578826742246747" fill="#42210B" stroke="#000000" d="M 33.784 52.9618 L 35.631 48.1629 L 18.044 44.1467 L 33.784 52.9618 " stroke-width="0.5902649164199829"/>
  <g id="ID0.7288383892737329">
    <path id="ID0.44699910236522555" fill="#C69C6D" stroke="#000000" d="M 59.731 78.9732 C 59.731 75.2321 64.4189 72.1987 70.2023 72.1987 C 75.9857 72.1987 80.6736 75.2321 80.6736 78.9732 C 80.6736 81.0415 59.731 81.0415 59.731 78.9732 Z " stroke-width="0.5902649164199829"/>
    <path id="ID0.4673094302415848" fill="#A67C52" stroke="#000000" d="M 78.8231 79.9005 C 78.7057 77.0566 76.9349 75.6789 76.9349 75.6789 " stroke-width="0.5902649164199829"/>
    <path id="ID0.029157384298741817" fill="#A67C52" stroke="#000000" d="M 76.4467 80.2458 C 76.4426 77.5483 75.3606 76.3613 75.3606 76.3613 " stroke-width="0.5902649164199829"/>
  </g>
  <path id="ID0.033297700341790915_9_" fill="none" d="M 0.5 0 L 130.0372 0 L 130.0372 101.5967 L 0.5 101.5967 L 0.5 0 Z " stroke-width="1.0951957752184225"/>
</svg>