<svg version="1.1" width="31" height="23" viewBox="0 2 31 23" xmlns="http://www.w3.org/2000/svg" xmlns:xlink="http://www.w3.org/1999/xlink">
  <!-- Exported by Scratch - http://scratch.mit.edu/ -->
  <g id="ID0.7411454315297306" transform="matrix(1, 0, 0, 1, -23, -37.75)">
    <path id="ID0.5877763065509498" fill="#FAA51D" stroke="#231F20" stroke-width="1" d="M 29.926 73.218 C 30.675 72.647 32.815 71.016 34.780 69.561 C 37.208 67.762 40.897 63.712 35.857 61.915 C 30.817 60.114 28.350 63.519 24.338 66.861 C 22.179 68.662 19.030 69.560 20.019 73.070 C 21.012 76.581 24.881 86.478 31.808 83.240 C 38.737 80.001 30.009 74.060 28.748 72.083 " transform="matrix(-0.3970218300819397, -0.9178091883659363, 0.9178091883659363, -0.3970218300819397, -17, 123.1)"/>
    <path id="ID0.41703723231330514" fill="#FF0000" stroke="#000000" stroke-width="1" stroke-linecap="round" d="M 301.400 200 C 303.055 200 304.555 200.846 305.642 202.213 C 306.728 203.580 307.146 205.696 307.400 207.550 C 307.601 209.012 308.154 211.077 306.900 211.600 C 303.899 212.863 300.211 212.747 297.150 211.600 C 295.742 211.173 295.395 209.103 295.400 207.550 C 295.406 205.675 296.072 203.580 297.158 202.213 C 298.245 200.846 299.745 200 301.400 200 Z " transform="matrix(0.8689242601394653, 0.7368976473808289, -0.6467878818511963, 0.7626699209213257, -82.55, -315.9)"/>
  </g>
  <g id="ID0.7411454315297306" transform="matrix(1, 0, 0, 1, 17.9, -53.4)">
    <path id="ID0.5877763065509498" fill="#FAA51D" stroke="#231F20" stroke-width="1" d="M 29.926 73.218 C 30.675 72.647 32.815 71.016 34.780 69.561 C 37.208 67.762 40.897 63.712 35.857 61.915 C 30.817 60.114 28.350 63.519 24.338 66.861 C 22.179 68.662 19.030 69.560 20.019 73.070 C 21.012 76.581 24.881 86.478 31.808 83.240 C 38.737 80.001 30.009 74.060 28.748 72.083 " transform="matrix(-0.3970218300819397, -0.9178091883659363, 0.9178091883659363, -0.3970218300819397, -17, 123.1)"/>
    <path id="ID0.41703723231330514" fill="#FF0000" stroke="#000000" stroke-width="1" stroke-linecap="round" d="M 301.400 200 C 303.055 200 304.555 200.846 305.642 202.213 C 306.728 203.580 307.146 205.696 307.400 207.550 C 307.601 209.012 308.154 211.077 306.900 211.600 C 303.899 212.863 300.211 212.747 297.150 211.600 C 295.742 211.173 295.395 209.103 295.400 207.550 C 295.406 205.675 296.072 203.580 297.158 202.213 C 298.245 200.846 299.745 200 301.400 200 Z " transform="matrix(0.8689242601394653, 0.7368976473808289, -0.6467878818511963, 0.7626699209213257, -82.55, -315.9)"/>
  </g>
</svg>