<svg version="1.1" xmlns="http://www.w3.org/2000/svg" xmlns:xlink="http://www.w3.org/1999/xlink" width="869.36692" height="464.92246" viewBox="0,0,869.36692,464.92246"><defs><linearGradient x1="654.55226" y1="371.2444" x2="391.23629" y2="283.20016" gradientUnits="userSpaceOnUse" id="color-1"><stop offset="0" stop-color="#00ffff"/><stop offset="1" stop-color="#00a1ab"/></linearGradient><linearGradient x1="428.34204" y1="296.79712" x2="306.31757" y2="255.99613" gradientUnits="userSpaceOnUse" id="color-2"><stop offset="0" stop-color="#ffe4ba"/><stop offset="1" stop-color="#ddb980"/></linearGradient><linearGradient x1="432.07827" y1="290.96179" x2="392.47388" y2="277.71938" gradientUnits="userSpaceOnUse" id="color-3"><stop offset="0" stop-color="#00ffff"/><stop offset="1" stop-color="#00a1ab"/></linearGradient><linearGradient x1="-179.38823" y1="459.7444" x2="83.92773" y2="371.70016" gradientUnits="userSpaceOnUse" id="color-4"><stop offset="0" stop-color="#00ffff"/><stop offset="1" stop-color="#00a1ab"/></linearGradient><linearGradient x1="46.82199" y1="385.29712" x2="168.84646" y2="344.49613" gradientUnits="userSpaceOnUse" id="color-5"><stop offset="0" stop-color="#ffe4ba"/><stop offset="1" stop-color="#ddb980"/></linearGradient><linearGradient x1="43.08575" y1="379.46179" x2="82.69014" y2="366.21938" gradientUnits="userSpaceOnUse" id="color-6"><stop offset="0" stop-color="#00ffff"/><stop offset="1" stop-color="#00a1ab"/></linearGradient></defs><g transform="translate(197.10145,-39.60961)"><g data-paper-data="{&quot;isPaintingLayer&quot;:true}" fill-rule="nonzero" stroke-linecap="butt" stroke-linejoin="miter" stroke-miterlimit="10" stroke-dasharray="" stroke-dashoffset="0" style="mix-blend-mode: normal"><g data-paper-data="{&quot;index&quot;:null}" stroke="#000000" stroke-width="6.5"><path d="M404.83664,242.52529l263.31596,88.04424l-27.20066,81.34967l-263.31596,-88.04424z" data-paper-data="{&quot;index&quot;:null}" fill="url(#color-1)"/><path d="M306.31757,255.99613c12.05755,-36.0608 49.14819,-56.16022 82.84435,-44.89332c33.69615,11.26689 51.23765,49.63358 39.18012,85.69432c-12.05755,36.0608 -49.1482,56.16021 -82.84435,44.89332c-33.69616,-11.26689 -51.23765,-49.63358 -39.18011,-85.69431z" data-paper-data="{&quot;index&quot;:null}" fill="url(#color-2)"/><path d="M392.47388,277.71938c9.98207,-29.85361 26.93985,-51.09032 37.87633,-47.43351c10.93641,3.65677 11.71013,30.82232 1.72807,60.67593c-9.98206,29.85361 -26.93985,51.09031 -37.87633,47.43352c-10.93642,-3.65677 -11.71013,-30.82232 -1.72807,-60.67593z" data-paper-data="{&quot;index&quot;:null}" fill="url(#color-3)"/></g><path d="M33.47316,402.46997v-360.36036h385.88589v360.36036z" fill="#ffffff" stroke="#000000" stroke-width="5"/><path d="M55.50019,114.70871v-57.05706h328.82883v57.05706z" fill="#000000" stroke="#000000" stroke-width="5"/><text transform="matrix(0.65591 0 0 0.65591 138.57827 77.68326)" font-size="40"  fill="#ffffff" fill-rule="nonzero" stroke="none" stroke-width="1" stroke-linecap="butt" stroke-linejoin="miter" stroke-miterlimit="10" stroke-dasharray="" stroke-dashoffset="0" font-family="Helvetica" font-weight="normal" text-anchor="start" style="mix-blend-mode: normal" >Scratch team</text><path d="M36.45312,396.5v-115h379v115z" fill="#868686" stroke="#000000" stroke-width="5"/><path d="M46.72656,326.96997v-33h38v33z" fill="#5c5c5c" stroke="#000000" stroke-width="5"/><path d="M46.22657,363.96997v-33h38v33z" fill="#5c5c5c" stroke="#000000" stroke-width="5"/><path d="M87.72657,328.46997v-33h38v33z" fill="#5c5c5c" stroke="#000000" stroke-width="5"/><path d="M86.22657,366.46997v-33h38v33z" fill="#5c5c5c" stroke="#000000" stroke-width="5"/><path d="M125.72657,328.46997v-33h38v33z" fill="#5c5c5c" stroke="#000000" stroke-width="5"/><path d="M126.72657,364.96997v-33h38v33z" fill="#5c5c5c" stroke="#000000" stroke-width="5"/><path d="M165.22657,364.46997v-33h38v33z" fill="#5c5c5c" stroke="#000000" stroke-width="5"/><path d="M163.72657,328.96997v-33h38v33z" fill="#5c5c5c" stroke="#000000" stroke-width="5"/><path d="M206.22657,329.96997v-33h38v33z" fill="#5c5c5c" stroke="#000000" stroke-width="5"/><path d="M205.72657,366.96997v-33h38v33z" fill="#5c5c5c" stroke="#000000" stroke-width="5"/><path d="M245.22657,331.46997v-33h38v33z" fill="#5c5c5c" stroke="#000000" stroke-width="5"/><path d="M244.22657,363.96997v-33h38v33z" fill="#5c5c5c" stroke="#000000" stroke-width="5"/><path d="M285.72657,330.46997v-33h38v33z" fill="#5c5c5c" stroke="#000000" stroke-width="5"/><path d="M285.22657,367.46997v-33h38v33z" fill="#5c5c5c" stroke="#000000" stroke-width="5"/><path d="M325.22657,332.46997v-33h38v33z" fill="#5c5c5c" stroke="#000000" stroke-width="5"/><path d="M327.72657,367.46997v-33h38v33z" fill="#5c5c5c" stroke="#000000" stroke-width="5"/><path d="M364.22657,331.46997v-33h38v33z" fill="#5c5c5c" stroke="#000000" stroke-width="5"/><path d="M359.72657,365.96997v-33h38v33z" fill="#5c5c5c" stroke="#000000" stroke-width="5"/><path d="M173.95313,184.23498v-70h230v70c0,0 -4.65654,2.15488 -8.95347,5.6628c-5.37976,4.39191 -9.33084,37.8372 -17.85904,37.8372c-9.96334,0 -0.56677,-38.10326 -22.58565,-39.73037c-61.83367,-4.56927 -180.60184,-3.76963 -180.60184,-3.76963z" fill="#347fff" stroke="#000000" stroke-width="6.5"/><text transform="matrix(0.58532 0 0 0.58532 180.95313 114.59243000000001)" font-size="40"  fill="#ffffff" fill-rule="nonzero" stroke="none" stroke-width="1" stroke-linecap="butt" stroke-linejoin="miter" stroke-miterlimit="10" stroke-dasharray="" stroke-dashoffset="0" font-family="Helvetica" font-weight="normal" text-anchor="start" style="mix-blend-mode: normal" >hey Scratch team
give me cheat code</text><g stroke="#000000" stroke-width="6.5"><path d="M97.52805,412.37496l-263.31596,88.04424l-27.20067,-81.34967l263.31596,-88.04424z" data-paper-data="{&quot;index&quot;:null}" fill="url(#color-4)"/><path d="M129.66634,430.19044c-33.69616,11.26689 -70.7868,-8.83252 -82.84435,-44.89332c-12.05753,-36.06073 5.48397,-74.42742 39.18012,-85.69431c33.69616,-11.26689 70.7868,8.83252 82.84435,44.89332c12.05753,36.06073 -5.48396,74.42742 -39.18012,85.69431z" data-paper-data="{&quot;index&quot;:null}" fill="url(#color-5)"/><path d="M80.96208,426.89531c-10.93648,3.6568 -27.89426,-17.57991 -37.87633,-47.43351c-9.98207,-29.85361 -9.20834,-57.01915 1.72807,-60.67593c10.93648,-3.6568 27.89425,17.5799 37.87632,47.43351c9.98207,29.85361 9.20835,57.01915 -1.72806,60.67593z" data-paper-data="{&quot;index&quot;:null}" fill="url(#color-6)"/></g><path d="M48.14062,246.84551v-83h96v83z" fill="#b5b5b5" stroke="#000000" stroke-width="6.5"/><text transform="matrix(0.29848 0 0 0.29848 57.64062 169.93131)" font-size="40"  fill="#ffffff" fill-rule="nonzero" stroke="none" stroke-width="1" stroke-linecap="butt" stroke-linejoin="miter" stroke-miterlimit="10" stroke-dasharray="" stroke-dashoffset="0" font-family="Helvetica" font-weight="normal" text-anchor="start" style="mix-blend-mode: normal" >NO! You
need it cuz
you bad
at animating
huh?</text><path d="M209.15545,260.62775v-49.24277h161.79769v49.24277c0,0 -4.23108,2.85431 -9.07601,6.26409c-2.84037,1.99901 -5.43002,5.34314 -8.73055,5.34314c-6.39135,0 -0.56346,-6.0276 -15.59316,-7.14827c-44.03459,-3.28338 -128.39797,-4.45896 -128.39797,-4.45896z" fill="#347fff" stroke="#000000" stroke-width="6.5"/><text transform="matrix(1.07809 0 0 1.07809 255.14062 216.94121)" font-size="40"  fill="#ffffff" fill-rule="nonzero" stroke="none" stroke-width="1" stroke-linecap="butt" stroke-linejoin="miter" stroke-miterlimit="10" stroke-dasharray="" stroke-dashoffset="0" font-family="Helvetica" font-weight="normal" text-anchor="start" style="mix-blend-mode: normal" >yes</text></g></g></svg>