<svg version="1.1" xmlns="http://www.w3.org/2000/svg" xmlns:xlink="http://www.w3.org/1999/xlink" width="87.29038" height="207.0618" viewBox="0,0,87.29038,207.0618"><defs><linearGradient x1="231.84825" y1="223.86424" x2="231.84825" y2="272.5309" gradientUnits="userSpaceOnUse" id="color-1"><stop offset="0" stop-color="#213fff"/><stop offset="1" stop-color="#003580"/></linearGradient><linearGradient x1="251.18158" y1="224.19757" x2="251.18158" y2="272.86424" gradientUnits="userSpaceOnUse" id="color-2"><stop offset="0" stop-color="#213fff"/><stop offset="1" stop-color="#003580"/></linearGradient><linearGradient x1="241.37361" y1="165.28772" x2="241.37361" y2="231.20642" gradientUnits="userSpaceOnUse" id="color-3"><stop offset="0" stop-color="#00ffff"/><stop offset="1" stop-color="#00a1ab"/></linearGradient><linearGradient x1="241.36387" y1="95.21574" x2="241.36387" y2="173.1794" gradientUnits="userSpaceOnUse" id="color-4"><stop offset="0" stop-color="#ffe4ba"/><stop offset="1" stop-color="#ddb980"/></linearGradient><linearGradient x1="239.84062" y1="77.4691" x2="239.84062" y2="119.49912" gradientUnits="userSpaceOnUse" id="color-5"><stop offset="0" stop-color="#00ffff"/><stop offset="1" stop-color="#00a1ab"/></linearGradient><linearGradient x1="240.72145" y1="97.17906" x2="240.72145" y2="149.62497" gradientUnits="userSpaceOnUse" id="color-6"><stop offset="0" stop-color="#00ffff"/><stop offset="1" stop-color="#00a1ab"/></linearGradient><linearGradient x1="230.84825" y1="265.86424" x2="230.84825" y2="281.5309" gradientUnits="userSpaceOnUse" id="color-7"><stop offset="0" stop-color="#00e6ff"/><stop offset="1" stop-color="#0095c3"/></linearGradient><linearGradient x1="254.51491" y1="266.86424" x2="254.51491" y2="282.5309" gradientUnits="userSpaceOnUse" id="color-8"><stop offset="0" stop-color="#00e6ff"/><stop offset="1" stop-color="#0095c3"/></linearGradient><linearGradient x1="249.97662" y1="160.84652" x2="247.64725" y2="141.98984" gradientUnits="userSpaceOnUse" id="color-9"><stop offset="0" stop-color="#ffe4ba"/><stop offset="1" stop-color="#ddb980"/></linearGradient><linearGradient x1="255.5052" y1="197.4448" x2="250.47868" y2="156.75409" gradientUnits="userSpaceOnUse" id="color-10"><stop offset="0" stop-color="#00ffff"/><stop offset="1" stop-color="#00a1ab"/></linearGradient><linearGradient x1="250.14448" y1="160.90974" x2="249.38846" y2="154.7896" gradientUnits="userSpaceOnUse" id="color-11"><stop offset="0" stop-color="#00ffff"/><stop offset="1" stop-color="#00a1ab"/></linearGradient><linearGradient x1="230.36144" y1="194.47694" x2="228.93402" y2="153.50179" gradientUnits="userSpaceOnUse" id="color-12"><stop offset="0" stop-color="#00ffff"/><stop offset="1" stop-color="#00a1ab"/></linearGradient><linearGradient x1="228.97053" y1="159.33739" x2="228.30905" y2="140.34891" gradientUnits="userSpaceOnUse" id="color-13"><stop offset="0" stop-color="#ffe4ba"/><stop offset="1" stop-color="#ddb980"/></linearGradient><linearGradient x1="229.97083" y1="159.5527" x2="229.75614" y2="153.38978" gradientUnits="userSpaceOnUse" id="color-14"><stop offset="0" stop-color="#00ffff"/><stop offset="1" stop-color="#00a1ab"/></linearGradient></defs><g transform="translate(-196.35481,-76.4691)"><g data-paper-data="{&quot;isPaintingLayer&quot;:true}" fill-rule="nonzero" stroke-linejoin="miter" stroke-miterlimit="10" stroke-dasharray="" stroke-dashoffset="0" style="mix-blend-mode: normal"><path d="M223.18158,272.5309v-48.66667h17.33334v48.66667z" fill="url(#color-1)" stroke="#000000" stroke-width="2" stroke-linecap="butt"/><path d="M242.51491,272.86424v-48.66667h17.33333v48.66667z" fill="url(#color-2)" stroke="#000000" stroke-width="2" stroke-linecap="butt"/><path d="M222.3207,231.20642v-65.91871h38.10583v65.91871z" fill="url(#color-3)" stroke="#000000" stroke-width="2" stroke-linecap="butt"/><path d="M241.36387,173.1794c-22.79904,0 -41.28132,-17.45276 -41.28132,-38.98183c0,-21.52907 18.48228,-38.98183 41.28132,-38.98183c22.79904,0 41.28132,17.45276 41.28132,38.98183c0,21.52907 -18.48228,38.98183 -41.28132,38.98183z" fill="url(#color-4)" stroke="#000000" stroke-width="2" stroke-linecap="butt"/><path d="M229.24335,162.00615c-4.35419,0 -7.88396,-4.22835 -7.88396,-9.44427c0,-5.21593 3.52976,-9.44427 7.88396,-9.44427c4.35419,0 7.88396,4.22835 7.88396,9.44427c0,5.21593 -3.52976,9.44427 -7.88396,9.44427z" fill="#000000" stroke="#000000" stroke-width="2" stroke-linecap="butt"/><path d="M250.09661,160.5215c-4.3542,0 -7.88397,-3.85525 -7.88397,-8.61094c0,-4.75569 3.52977,-8.61093 7.88397,-8.61093c4.35419,0 7.88396,3.85524 7.88396,8.61093c0,4.75569 -3.52976,8.61094 -7.88396,8.61094z" fill="#000000" stroke="#000000" stroke-width="2" stroke-linecap="butt"/><path d="M228.92366,148.47824c0,-1.38071 1.11929,-2.5 2.5,-2.5c1.38071,0 2.5,1.11929 2.5,2.5c0,1.38071 -1.11929,2.5 -2.5,2.5c-1.38071,0 -2.5,-1.11929 -2.5,-2.5z" fill="#ffffff" stroke="none" stroke-width="0.5" stroke-linecap="butt"/><path d="M249.57557,148.81158c0,-1.38071 1.11929,-2.5 2.5,-2.5c1.38071,0 2.5,1.11929 2.5,2.5c0,1.38071 -1.11929,2.5 -2.5,2.5c-1.38071,0 -2.5,-1.11929 -2.5,-2.5z" fill="#ffffff" stroke="none" stroke-width="0.5" stroke-linecap="butt"/><path d="M223.68305,123.75696l8.32196,-0.219" fill="none" stroke="#000000" stroke-width="2" stroke-linecap="round"/><path d="M246.85826,121.54763l6.56997,-0.219" fill="none" stroke="#000000" stroke-width="2" stroke-linecap="round"/><path d="M241.15462,106.92079c-22.01287,0 -43.79981,9.30156 -43.79981,-2.30471c0,-11.60627 20.47294,-27.14698 42.48581,-27.14698c22.01287,0 41.60982,14.22672 41.60982,25.83299c0,11.60627 -18.28295,3.6187 -40.29582,3.6187z" fill="url(#color-5)" stroke="#000000" stroke-width="2" stroke-linecap="butt"/><path d="M241.37361,101.55899c-4.95894,0 -8.97896,-3.67684 -8.97896,-8.21246c0,-4.53561 4.02002,-8.21246 8.97896,-8.21246c4.95894,0 8.97896,3.67684 8.97896,8.21246c0,4.53561 -4.02002,8.21246 -8.97896,8.21246z" fill="#ffffff" stroke="#000000" stroke-width="2" stroke-linecap="butt"/><path d="M240.72144,149.62497c-17.8401,0 -32.30236,-11.7404 -32.30236,-26.22299c0,-14.48252 14.46226,-26.22299 32.30236,-26.22299c17.8401,0 32.30236,11.7404 32.30236,26.22299c0,14.48252 -14.46226,26.22299 -32.30236,26.22299z" fill="url(#color-6)" stroke="#000000" stroke-width="2" stroke-linecap="butt"/><text transform="matrix(0.22735 0 0 0.22735 235.67964 89.50416)" font-size="40"  fill="#00ffff" fill-rule="nonzero" stroke="none" stroke-width="1" stroke-linecap="butt" stroke-linejoin="miter" stroke-miterlimit="10" stroke-dasharray="" stroke-dashoffset="0" font-family="Helvetica" font-weight="normal" text-anchor="start" style="mix-blend-mode: normal" >CP</text><text transform="matrix(0.60554 0 0 0.60554 227.13868 186.87113)" font-size="40"  fill="#006f6f" fill-rule="nonzero" stroke="none" stroke-width="1" stroke-linecap="butt" stroke-linejoin="miter" stroke-miterlimit="10" stroke-dasharray="" stroke-dashoffset="0" font-family="Helvetica" font-weight="normal" text-anchor="start" style="mix-blend-mode: normal" >CP</text><path d="M230.84824,281.5309c-7.54789,0 -13.66667,-3.5071 -13.66667,-7.83333c0,-4.32623 6.11878,-7.83333 13.66667,-7.83333c7.54789,0 13.66667,3.5071 13.66667,7.83333c0,4.32623 -6.11878,7.83333 -13.66667,7.83333z" fill="url(#color-7)" stroke="#000000" stroke-width="2" stroke-linecap="butt"/><path d="M254.51492,282.5309c-7.54789,0 -13.66666,-3.5071 -13.66666,-7.83333c0,-4.32623 6.11877,-7.83333 13.66666,-7.83333c7.54789,0 13.66666,3.5071 13.66666,7.83333c0,4.32623 -6.11877,7.83333 -13.66666,7.83333z" fill="url(#color-8)" stroke="#000000" stroke-width="2" stroke-linecap="butt"/><g stroke="#000000" stroke-width="2" stroke-linecap="butt"><path d="M247.64725,141.98984c5.57254,-0.68837 10.61142,2.97479 11.25465,8.18191c0.64323,5.20712 -3.35277,9.98637 -8.92529,10.67475c-5.57252,0.68838 -10.61142,-2.97481 -11.25465,-8.18191c-0.64324,-5.20714 3.35277,-9.98637 8.92529,-10.67475z" fill="url(#color-9)"/><path d="M256.76422,155.97764l5.02653,40.69071l-12.57112,1.55291l-5.02653,-40.69071z" fill="url(#color-10)"/><path d="M249.38847,154.7896c4.61332,-0.56989 8.5224,0.33817 8.73118,2.0282c0.20877,1.69004 -3.36183,3.52205 -7.97516,4.09193c-4.61334,0.56989 -8.52242,-0.33816 -8.73118,-2.02819c-0.20877,-1.69004 3.36184,-3.52206 7.97517,-4.09194z" fill="url(#color-11)"/></g><g stroke="#000000" stroke-width="2" stroke-linecap="butt"><path d="M235.26351,153.28131l1.42744,40.97515l-12.65898,0.441l-1.42744,-40.97515z" fill="url(#color-12)"/><path d="M228.30905,140.34891c5.61151,-0.19549 10.30859,3.89676 10.49126,9.14028c0.18267,5.24353 -4.21828,9.65272 -9.82975,9.8482c-5.61151,0.19549 -10.30859,-3.89676 -10.49126,-9.14028c-0.18267,-5.24353 4.21828,-9.65272 9.82975,-9.8482z" fill="url(#color-13)"/><path d="M229.75614,153.38978c4.64557,-0.16183 8.45962,1.08658 8.51892,2.78843c0.05929,1.70184 -3.65863,3.21266 -8.30423,3.3745c-4.64557,0.16183 -8.45962,-1.08658 -8.51892,-2.78843c-0.05929,-1.70184 3.65863,-3.21266 8.30423,-3.3745z" fill="url(#color-14)"/></g></g></g></svg>