<svg version="1.1" width="214" height="222" viewBox="-1 -1 214 222" xmlns="http://www.w3.org/2000/svg" xmlns:xlink="http://www.w3.org/1999/xlink">
  <!-- Exported by Scratch - http://scratch.mit.edu/ -->
  <g id="ID0.07366833975538611" transform="matrix(1, 0, 0, 1, 65, 74)">
    <g id="Layer_3">
      <path id="ID0.8200414711609483" fill="#FAA51D" stroke="#000000" d="M 22.462 79.039 C 20.047 78.588 17.158 77.730 14.720 75.536 C 9.268 70.629 7.526 62.535 3.672 64.622 C -0.184 66.710 -0.110 79.787 12.025 83.816 C 16.207 85.207 20.023 85.212 23.116 85.128 C 23.927 85.103 30.833 84.474 33.195 81.054 C 35.556 77.634 33.914 76.782 33.105 76.310 C 32.295 75.838 25.878 79.677 22.462 79.039 Z "/>
      <path id="ID0.8578959656879306" fill="#FFFFFF" d="M 4.236 64.877 C 2.247 65.490 1.161 69.875 2.160 73.361 C 3.158 76.851 4.794 78.383 6.023 79.759 C 7.551 80.797 5.303 77.357 7.384 75.609 C 9.459 73.865 13.117 74.695 13.117 74.695 C 13.117 74.695 10.208 70.708 8.547 68.299 C 6.975 65.988 6.359 64.375 4.236 64.877 Z "/>
    </g>
    <g id="ID0.37383122043684125">
      <path id="ID0.599285970441997" fill="#FAA51D" d="M 38.217 86.756 C 38.217 86.756 29.385 92.956 21.146 95.168 L 21.232 95.383 C 22.479 97.207 27.102 102.880 20.898 104.879 C 15.565 106.596 5.778 91.775 10.077 88.977 C 12.703 87.264 14.969 88.725 14.969 88.725 C 14.969 88.725 18.443 87.655 20.970 86.380 C 25.273 84.219 26.754 82.927 26.754 82.927 C 26.754 82.927 30.938 78.621 33.610 78.790 C 36.281 78.960 41.669 83.504 38.217 86.756 Z "/>
      <path id="ID0.35038306610658765" fill="none" stroke="#231F20" stroke-width="1.2" d="M 21.232 95.383 C 22.479 97.207 27.102 102.880 20.898 104.879 C 15.565 106.596 5.569 91.535 9.868 88.734 C 12.494 87.021 14.969 88.724 14.969 88.724 C 14.969 88.724 18.443 87.652 20.970 86.376 C 25.273 84.215 26.754 82.923 26.754 82.923 "/>
      <path id="ID0.2152438540942967" fill="none" stroke="#231F20" stroke-width="1.2" d="M 38.217 86.756 C 38.217 86.756 28.094 93.863 19.413 95.575 "/>
    </g>
    <path id="ID0.5251262439414859" fill="#FAA51D" stroke="#231F20" stroke-width="1.2" d="M 52.169 74.885 C 52.169 74.885 53.404 75.050 56.913 78.561 C 60.422 82.069 62.939 80.721 65.824 79.285 C 68.701 77.842 76.361 73.159 72.314 69.468 C 68.265 65.780 66.107 70.614 62.599 71.873 C 59.087 73.133 57.538 69.386 55.741 67.586 C 55.152 66.993 54.553 66.487 54.012 66.081 C 54.012 66.081 53.041 65.321 52.106 68.871 C 51.172 72.412 50.162 73.415 52.169 74.885 Z "/>
    <g id="Layer_2_1_">
      <path id="ID0.9175611156970263" fill="#FAA51D" stroke="#231F20" stroke-width="1.2" d="M 46.753 82.012 C 47.941 81.100 49.150 79.610 50.704 77.299 C 52 75.372 53.404 71.721 53.404 71.721 C 54.279 69.200 55.338 65.145 51.502 64.425 C 49.949 64.134 47.423 64.327 43.832 63.649 C 40.239 62.968 37.034 61.127 34.315 65.882 C 31.597 70.639 24.725 74.153 33.259 82.445 C 33.259 82.445 38.160 86.287 44.023 92.084 C 48.854 96.859 56.068 102.686 56.068 102.686 C 56.068 102.686 75.040 104.874 75.603 101.993 C 77.525 92.203 60.826 95.082 60.826 95.082 C 60.826 95.082 56.221 91.149 54.101 89.288 C 50.623 86.229 42.976 78.517 42.976 78.517 "/>
      <path id="ID0.07041538273915648" fill="#FFFFFF" d="M 51.253 75.434 C 51.253 75.434 53.723 72.774 48.784 70.117 C 43.845 67.460 41.571 70.100 40.045 71.638 C 37.401 74.293 43.488 78.249 43.488 78.249 L 46.664 81.453 C 46.664 81.453 48.402 79.806 49.163 78.474 C 50.036 77.260 51.253 75.434 51.253 75.434 "/>
    </g>
    <path id="ID0.017732197884470224" fill="#FAA51D" stroke="#231F20" stroke-width="1.2" d="M 29.926 73.218 C 30.675 72.647 32.815 71.016 34.780 69.561 C 37.208 67.762 40.897 63.712 35.857 61.915 C 30.817 60.114 28.350 63.519 24.338 66.861 C 22.179 68.662 19.030 69.560 20.019 73.070 C 21.012 76.581 24.881 86.478 31.808 83.240 C 38.737 80.001 30.009 74.060 28.748 72.083 "/>
    <g id="Layer_2">
      <path id="ID0.4667322891764343" fill="#FAA51D" stroke="#231F20" stroke-width="1.2" d="M 52.709 14.156 C 51.169 14.013 47.959 13.840 46.191 13.925 C 41.463 14.150 36.967 15.853 36.967 15.853 L 23.949 7.357 L 26.184 26.263 C 26.830 25.481 15.629 39.067 22.705 50.487 C 29.785 61.913 44.938 67.005 63.693 63.279 C 82.448 59.550 86.922 48.748 85.679 43.033 C 84.437 37.319 77.357 35.210 77.357 35.210 C 77.357 35.210 77.267 30.730 74.029 25.240 C 72.103 21.972 65.681 17.199 65.681 17.199 L 62.822 5.647 L 55.370 12.851 L 52.709 14.156 Z "/>
      <path id="ID0.6655192254111171" fill="#FFFFFF" d="M 76.420 35.066 L 73.938 33.002 L 64.823 35.663 C 64.823 35.663 64.823 39.082 60.456 40.030 C 56.086 40.981 49.245 37.753 49.245 37.753 L 41.460 41.170 C 41.460 41.170 33.023 42.098 32.721 47.251 C 32.048 58.704 46.100 63.479 51.425 63.783 C 54.330 63.950 59.660 63.445 63.702 62.642 C 81.454 59.408 86.253 48.723 85.012 43.007 C 83.770 37.293 77.034 35.811 77.034 35.811 L 76.420 35.066 Z "/>
      <path id="ID0.13082147715613246" fill="none" stroke="#231F20" stroke-width="1.2" d="M 10.673 46.155 C 10.673 46.155 14.780 46.529 16.647 46.423 C 18.512 46.316 22.139 45.836 22.139 45.836 "/>
      <path id="ID0.04599890997633338" fill="none" stroke="#231F20" stroke-width="1.2" d="M 81.656 40.671 C 81.656 40.671 86.205 39.928 88.515 39.122 C 91.230 38.180 93.058 36.577 93.058 36.577 "/>
      <path id="ID0.09440325666218996" fill="none" stroke="#231F20" stroke-width="1.2" d="M 22.337 41.909 C 22.337 41.909 19.953 40.132 16.220 38.479 C 12.086 36.648 9.815 36.176 9.815 36.176 "/>
      <path id="ID0.42567099817097187" fill="none" stroke="#231F20" stroke-width="1.2" d="M 82.117 46.622 C 82.117 46.622 84.843 47.726 87.650 48.007 C 90.420 48.283 92.296 48.117 92.296 48.117 "/>
      <path id="ID0.9297998398542404" fill="none" stroke="#000000" stroke-linecap="round" d="M 52.350 14.212 C 55.190 14.912 56.237 15.681 56.237 15.681 "/>
      <path id="ID0.1121952491812408" fill="none" stroke="#000000" d="M 33.898 13.684 L 39.956 18.042 "/>
    </g>
    <g id="Layer_5">
      <path id="ID0.7596660940907896" fill="#FFFFFF" stroke="#231F20" d="M 71.840 25.366 C 74.764 29.845 74.873 34.957 72.082 36.781 C 69.289 38.606 64.656 36.449 61.728 31.968 C 58.795 27.488 58.691 22.379 61.484 20.553 C 64.275 18.730 68.913 20.884 71.840 25.366 Z "/>
      <path id="ID0.3683806308545172" fill="#231F20" d="M 71.089 32.522 C 71.089 33.602 70.287 34.478 69.289 34.478 C 68.296 34.478 67.486 33.601 67.486 32.522 C 67.486 31.442 68.296 30.564 69.289 30.564 C 70.287 30.564 71.089 31.442 71.089 32.522 "/>
    </g>
    <g id="Layer_7">
      <path id="ID0.9499196009710431" fill="#FFFFFF" stroke="#231F20" d="M 47.867 28.619 C 50.793 33.099 50.486 38.481 47.186 40.634 C 43.884 42.793 38.835 40.906 35.910 36.426 C 32.982 31.946 33.286 26.566 36.588 24.409 C 39.891 22.253 44.938 24.137 47.867 28.619 Z "/>
      <path id="ID0.6029720683582127" fill="#231F20" d="M 46.079 34.507 C 46.079 35.588 45.276 36.464 44.278 36.464 C 43.286 36.464 42.475 35.586 42.475 34.507 C 42.475 33.427 43.286 32.550 44.278 32.550 C 45.274 32.550 46.079 33.427 46.079 34.507 "/>
    </g>
    <path id="ID0.843347423709929" fill="#5E4A42" stroke="#000000" d="M 59.766 37.926 C 61.620 37.926 64.321 37.642 64.463 38.495 C 64.606 39.350 62.754 42.698 61.475 42.840 C 60.192 42.982 55.350 40.487 55.280 38.921 C 55.206 37.355 58.055 37.926 59.766 37.926 Z "/>
    <g id="Layer_4">
      <path id="ID0.7664906638674438" fill="none" stroke="#231F20" stroke-width="1.2" d="M 46.774 45.235 C 46.774 45.235 57.121 48.289 60.991 49.132 C 64.859 49.974 71.842 50.816 71.842 50.816 C 71.842 50.816 63.852 61.061 54.514 58.460 C 45.176 55.863 45.345 49.975 46.774 45.235 Z "/>
    </g>
  </g>
  <path id="ID0.9993453798815608" fill="none" stroke="#000000" stroke-width="2" stroke-linecap="round" d="M 221 151 L 237 163 " transform="matrix(1, 0, 0, 1, -124, -52)"/>
  <path id="ID0.8803736916743219" fill="none" stroke="#000000" stroke-width="2" stroke-linecap="round" d="M 236 148 L 224 166 " transform="matrix(1, 0, 0, 1, -124, -52)"/>
  <path id="ID0.28431878983974457" fill="none" stroke="#000000" stroke-width="2" stroke-linecap="round" d="M 243 147 L 267 165 " transform="matrix(1, 0, 0, 1, -124, -52)"/>
  <path id="ID0.9297415921464562" fill="none" stroke="#000000" stroke-width="2" stroke-linecap="round" d="M 271 142 L 252 164 " transform="matrix(1, 0, 0, 1, -124, -52)"/>
  <path id="ID0.41011094208806753" fill="none" stroke="#FF9400" stroke-width="2" stroke-linecap="round" d="M 151 125 C 151 125 151.538 120.309 152 118 C 152.207 116.967 152.529 115.942 153 115 C 153.537 113.926 154.382 113.030 155 112 C 155.383 111.362 155.723 110.691 156 110 C 156.391 109.022 156.609 107.978 157 107 C 157.277 106.309 157.667 105.666 158 105 C 158.333 104.334 158.473 103.527 159 103 C 159.527 102.473 160.473 102.527 161 102 C 161.527 101.473 161.380 100.413 162 100 C 162.554 99.631 163.334 100 164 100 C 164.666 100 165.334 100 166 100 C 166.666 100 167.529 99.529 168 100 C 168.471 100.471 168 101.334 168 102 C 168 102.666 168.162 103.354 168 104 C 167.819 104.722 167.181 105.278 167 106 C 166.838 106.646 167.162 107.354 167 108 C 166.819 108.722 166.333 109.334 166 110 C 165.667 110.666 165.146 111.270 165 112 C 164.804 112.980 165.164 114.015 165 115 C 164.827 116.039 164.207 116.967 164 118 C 163.869 118.653 164 119.334 164 120 C 164 120.666 164 121.334 164 122 C 164 122.666 163.631 123.446 164 124 C 164.413 124.620 165.255 125 166 125 C 166.745 125 167.404 124.447 168 124 C 168.753 123.435 169.435 122.753 170 122 C 170.447 121.404 170.473 120.527 171 120 C 171.849 119.151 173.209 118.904 174 118 C 175.581 116.193 176.668 113.998 178 112 C 178.666 111.001 179.250 109.938 180 109 C 180.588 108.265 181.334 107.666 182 107 C 182.666 106.334 183.515 105.808 184 105 C 184.542 104.097 184.458 102.903 185 102 C 185.485 101.192 186.435 100.753 187 100 C 187.447 99.404 187.667 98.666 188 98 C 188.333 97.334 188.553 96.596 189 96 C 189.565 95.247 190.435 94.753 191 94 C 191.447 93.404 191.553 92.596 192 92 C 192.565 91.247 193.247 90.565 194 90 C 194.596 89.553 195.294 88.765 196 89 C 196.706 89.235 197 90.255 197 91 C 197 91.745 196.333 92.334 196 93 C 195.667 93.666 195.277 94.309 195 95 C 194.609 95.978 194.333 97.001 194 98 C 193.667 98.999 193.391 100.022 193 101 C 192.723 101.691 192.333 102.334 192 103 C 191.667 103.666 191.181 104.278 191 105 C 190.838 105.646 191.162 106.354 191 107 C 190.819 107.722 190.181 108.278 190 109 C 189.838 109.646 189.529 110.529 190 111 C 190.471 111.471 191.446 111.369 192 111 C 192.620 110.587 192.473 109.527 193 109 C 193.527 108.473 194.404 108.447 195 108 C 195.753 107.435 196.334 106.666 197 106 C 197.666 105.334 198.334 104.666 199 104 C 200.665 102.335 202.250 100.575 204 99 C 205.585 97.574 207.350 96.350 209 95 C 211.013 93.353 213.002 91.665 215 90 C 216.998 88.335 219.002 86.665 221 85 C 222.998 83.335 224.869 81.491 227 80 C 231.540 76.822 236.353 74.020 241 71 C 243.013 69.691 245.033 68.377 247 67 C 248.364 66.045 249.668 64.999 251 64 C 252.332 63.001 253.554 61.826 255 61 C 255.914 60.478 257.058 60.471 258 60 C 259.074 59.463 259.885 58.446 261 58 C 261.618 57.753 262.334 58 263 58 C 263.666 58 264.529 57.529 265 58 C 265.471 58.471 265.162 59.354 265 60 C 264.819 60.722 264.333 61.334 264 62 C 263.667 62.666 263.181 63.278 263 64 C 262.838 64.646 263.247 65.382 263 66 C 262.554 67.115 261.618 67.970 261 69 C 260.617 69.638 260.333 70.334 260 71 C 259.667 71.666 259.277 72.309 259 73 C 258.609 73.978 258.207 74.967 258 76 C 257.869 76.653 258 77.334 258 78 C 258 78.666 258 79.334 258 80 C 258 80.666 257.528 81.764 258 82 C 258.528 82.264 259.473 81.527 260 81 C 260.849 80.151 261.382 79.030 262 78 C 262.383 77.362 262.473 76.527 263 76 C 263.527 75.473 264.553 75.596 265 75 C 265.632 74.158 265.609 72.978 266 72 C 266.277 71.309 266.587 70.620 267 70 C 267.924 68.615 268.823 67.177 270 66 C 270.527 65.473 271.419 65.465 272 65 C 273.103 64.117 273.773 62.701 275 62 C 276.192 61.319 277.738 61.541 279 61 C 280.104 60.527 280.926 59.537 282 59 C 282.942 58.529 284.014 58.370 285 58 C 286.679 57.370 288.352 56.706 290 56 C 290.684 55.707 291.309 55.277 292 55 C 292.978 54.609 293.961 54.173 295 54 C 295.985 53.836 297.001 54 298 54 C 299.332 54 300.668 54 302 54 C 302.666 54 303.354 53.838 304 54 C 304.722 54.181 305.587 54.380 306 55 C 306.369 55.554 306 56.334 306 57 C 306 57.666 306 58.334 306 59 C 306 59.666 306 60.334 306 61 C 306 62.332 306 63.668 306 65 C 306 65.999 306 67.001 306 68 C 306 68.666 306 69.334 306 70 C 306 70.666 306 71.334 306 72 C 306 72.666 306 73.334 306 74 C 306 74.999 306 76.001 306 77 C 306 77.666 306 78.334 306 79 C 306 79.666 306 80.334 306 81 C 306 81.666 306 82.334 306 83 C 306 83.666 306 84.334 306 85 C 306 85.666 306 86.334 306 87 C 306 87.999 306 89.001 306 90 C 306 90.666 306 91.334 306 92 C 306 92.999 305.446 94.169 306 95 C 306.369 95.554 307.354 95.162 308 95 C 308.722 94.819 309.473 94.527 310 94 C 310.527 93.473 310.473 92.527 311 92 C 311.527 91.473 312.473 91.527 313 91 C 313.527 90.473 313.473 89.527 314 89 C 314.527 88.473 315.334 88.333 316 88 C 316.666 87.667 317.278 87.181 318 87 C 318.646 86.838 319.404 86.702 320 87 C 320.842 87.421 321.435 88.247 322 89 C 322.447 89.596 322.854 90.270 323 91 C 323.196 91.980 322.553 93.106 323 94 C 323.632 95.264 325.251 95.802 326 97 C 326.950 98.521 327.387 100.315 328 102 C 328.720 103.979 329.446 105.968 330 108 C 330.447 109.638 330.512 111.374 331 113 C 331.515 114.718 332.565 116.260 333 118 C 333.242 118.969 332.859 120.011 333 121 C 333.194 122.359 333.623 123.680 334 125 C 334.289 126.013 334.793 126.967 335 128 C 335.131 128.653 334.838 129.354 335 130 C 335.181 130.722 335.819 131.278 336 132 C 336.162 132.646 336 133.334 336 134 C 336 134.999 336 136.001 336 137 C 336 137.666 336 138.334 336 139 C 336 139.999 336 141.001 336 142 C 336 142.999 336.196 144.020 336 145 C 335.854 145.730 335.333 146.334 335 147 C 334.667 147.666 334.181 148.278 334 149 C 333.838 149.646 334.247 150.382 334 151 C 333.554 152.115 332.446 152.885 332 154 C 331.753 154.618 332 155.334 332 156 C 332 156.666 332.162 157.354 332 158 C 331.819 158.722 331.333 159.334 331 160 C 330.667 160.666 330.146 161.270 330 162 C 329.804 162.980 330.141 164.011 330 165 C 329.806 166.359 329.333 167.668 329 169 C 328.667 170.332 328.377 171.680 328 173 C 327.711 174.013 327.173 174.961 327 176 C 326.836 176.985 327 178.001 327 179 C 327 179.999 327.196 181.020 327 182 C 326.854 182.730 326.181 183.278 326 184 C 325.838 184.646 326 185.334 326 186 C 326 186.666 326 187.334 326 188 C 326 188.999 326.196 190.020 326 191 C 325.854 191.730 325.277 192.309 325 193 C 324.609 193.978 324.391 195.022 324 196 C 323.723 196.691 323.181 197.278 323 198 C 322.838 198.646 323.162 199.354 323 200 C 322.819 200.722 322.333 201.334 322 202 C 321.667 202.666 321.181 203.278 321 204 C 320.838 204.646 321.162 205.354 321 206 C 320.819 206.722 320.333 207.334 320 208 C 319.667 208.666 319.181 209.278 319 210 C 318.838 210.646 319.162 211.354 319 212 C 318.819 212.722 318.333 213.334 318 214 C 317.667 214.666 317.333 215.334 317 216 C 316.667 216.666 316.181 217.278 316 218 C 315.838 218.646 316.162 219.354 316 220 C 315.819 220.722 315.277 221.309 315 222 C 314.609 222.978 314.207 223.967 314 225 C 313.869 225.653 314.162 226.354 314 227 C 313.819 227.722 313.181 228.278 313 229 C 312.838 229.646 313.162 230.354 313 231 C 312.819 231.722 312.333 232.334 312 233 C 311.667 233.666 311.333 234.334 311 235 C 310.667 235.666 310.277 236.309 310 237 C 309.609 237.978 309.391 239.022 309 240 C 308.723 240.691 308.277 241.309 308 242 C 307.609 242.978 307.632 244.158 307 245 C 306.553 245.596 305.413 245.380 305 246 C 304.631 246.554 305.162 247.354 305 248 C 304.819 248.722 304.333 249.334 304 250 C 303.667 250.666 303.620 251.587 303 252 C 302.446 252.369 301.554 251.631 301 252 C 300.380 252.413 300.447 253.404 300 254 C 299.435 254.753 298.565 255.247 298 256 C 297.553 256.596 297.527 257.473 297 258 C 296.473 258.527 295.666 258.667 295 259 C 294.334 259.333 293.666 259.667 293 260 C 292.334 260.333 291.666 260.667 291 261 C 290.334 261.333 289.666 261.667 289 262 C 288.334 262.333 287.666 262.667 287 263 C 286.334 263.333 285.638 263.617 285 264 C 283.970 264.618 283.104 265.527 282 266 C 280.738 266.541 279.320 266.623 278 267 C 276.987 267.289 275.999 267.667 275 268 C 274.001 268.333 272.978 268.609 272 269 C 271.309 269.277 270.691 269.723 270 270 C 269.022 270.391 268.033 270.793 267 271 C 266.347 271.131 265.646 270.838 265 271 C 264.278 271.181 263.722 271.819 263 272 C 262.354 272.162 261.666 272 261 272 C 260.334 272 259.666 272 259 272 C 258.001 272 256.999 272 256 272 C 255.334 272 254.666 272 254 272 C 253.334 272 252.666 272 252 272 C 251.334 272 250.666 272 250 272 C 249.334 272 248.666 272 248 272 C 247.001 272 245.999 272 245 272 C 244.334 272 243.666 272 243 272 C 242.334 272 241.666 272 241 272 C 240.334 272 239.666 272 239 272 C 238.001 272 236.999 272 236 272 C 235.334 272 234.666 272 234 272 C 233.334 272 232.666 272 232 272 C 231.334 272 230.666 272 230 272 C 229.334 272 228.666 272 228 272 C 227.334 272 226.666 272 226 272 C 225.334 272 224.666 272 224 272 C 223.001 272 221.999 272 221 272 C 218.669 272 216.331 272 214 272 C 213.001 272 211.999 272 211 272 C 210.334 272 209.666 272 209 272 C 208.334 272 207.666 272 207 272 C 206.334 272 205.666 272 205 272 C 204.001 272 202.999 272 202 272 C 201.334 272 200.666 272 200 272 C 199.334 272 198.666 272 198 272 C 197.334 272 196.666 272 196 272 C 195.334 272 194.666 272 194 272 C 193.334 272 192.666 272 192 272 C 191.334 272 190.666 272 190 272 C 189.334 272 188.653 272.131 188 272 C 186.967 271.793 186.033 271.207 185 271 C 184.347 270.869 183.666 271 183 271 C 182.334 271 181.646 271.162 181 271 C 180.278 270.819 179.691 270.277 179 270 C 178.022 269.609 176.942 269.471 176 269 C 174.926 268.463 173.938 267.750 173 267 C 172.265 266.412 171.753 265.565 171 265 C 170.404 264.553 169.527 264.527 169 264 C 168.473 263.473 168.181 262.722 168 262 C 167.838 261.354 168 260.666 168 260 C 168 259.334 168 258.666 168 258 C 168 257.334 168 256.666 168 256 C 168 255.334 168 254.666 168 254 C 168 253.001 168.196 251.980 168 251 C 167.854 250.270 167.181 249.722 167 249 C 166.838 248.354 167.162 247.646 167 247 C 166.819 246.278 166.181 245.722 166 245 C 165.838 244.354 166.162 243.646 166 243 C 165.819 242.278 165.181 241.722 165 241 C 164.838 240.354 165 239.666 165 239 C 165 238.001 165 236.999 165 236 C 165 235.001 165 233.999 165 233 C 165 232.001 165.196 230.980 165 230 C 164.854 229.270 164.146 228.730 164 228 C 163.804 227.020 164 225.999 164 225 C 164 224.334 164 223.666 164 223 C 164 222.334 164 221.666 164 221 C 164 220.334 164 219.666 164 219 C 164 218.334 164 217.666 164 217 C 164 216.334 164 215.666 164 215 C 164 214.001 164 212.999 164 212 C 164 210.668 164 209.332 164 208 C 164 207.001 164 205.999 164 205 C 164 204.334 163.891 203.657 164 203 C 164.226 201.646 164.774 200.354 165 199 C 165.109 198.343 165 197.666 165 197 C 165 196.334 165 195.666 165 195 C 165 194.334 165 193.666 165 193 C 165 192.334 165 191.666 165 191 C 165 190.001 165 188.999 165 188 C 165 187.334 165.162 186.646 165 186 C 164.819 185.278 164.333 184.666 164 184 C 163.667 183.334 163.527 182.527 163 182 C 162.473 181.473 161.527 181.527 161 181 C 160.473 180.473 160.333 179.666 160 179 C 159.667 178.334 159.333 177.666 159 177 C 158.667 176.334 158.333 175.666 158 175 C 157.667 174.334 157.181 173.722 157 173 C 156.838 172.354 157 171.666 157 171 C 157 170.334 157 169.666 157 169 C 157 168.334 157 167.666 157 167 C 157 166.001 157 164.999 157 164 C 157 163.334 157 162.666 157 162 C 157 161.334 157 160.666 157 160 C 157 159.334 157 158.666 157 158 C 157 157.334 157 156.666 157 156 C 157 155.001 157 153.999 157 153 C 157 152.334 157 151.666 157 151 C 157 150.334 157 149.666 157 149 C 157 148.334 157 147.666 157 147 C 157 146.334 157 145.666 157 145 C 157 144.334 157 143.666 157 143 C 157 142.334 157 141.666 157 141 C 157 140.334 157 139.666 157 139 C 157 138.334 157 137.666 157 137 C 157 136.334 157.162 135.646 157 135 C 156.819 134.278 156.181 133.722 156 133 C 155.838 132.354 156.162 131.646 156 131 C 155.819 130.278 155.620 129.413 155 129 C 154.446 128.631 153.554 129.369 153 129 C 152.380 128.587 152.181 127.722 152 127 C 151.838 126.354 152 125.666 152 125 C 152 124.334 152.471 123.471 152 123 C 151.529 122.529 150.596 123.298 150 123 C 149.158 122.579 148.808 121.485 148 121 C 147.097 120.458 145.852 120.619 145 120 C 142.137 117.918 139.806 115.158 137 113 C 135.461 111.816 133.580 111.129 132 110 C 131.234 109.453 130.753 108.565 130 108 C 129.404 107.553 128.666 107.333 128 107 C 127.334 106.667 126.666 106.333 126 106 C 125.834 105.917 126 106 126 106 " transform="matrix(1, 0, 0, 1, -124, -52)"/>
</svg>