<svg xmlns="http://www.w3.org/2000/svg" xmlns:xlink="http://www.w3.org/1999/xlink" version="1.1" width="148.5" height="155.69000244140625" viewBox="-0.5 -0.5 148.5 155.69000244140625">
  <!-- Exported by Scratch - http://scratch.mit.edu/ -->
  <g id="ID0.23926258133724332">
    <path id="ID0.6813546000048518" fill="#8C303C" d="M 123.370 128.190 L 100.890 128.190 L 74.380 129.770 L 56.390 125.190 L 34.620 127.490 L 25.370 128.190 L 25.370 32.190 L 123.370 32.190 L 123.370 128.190 " stroke-width="1"/>
    <path id="ID0.4343103156425059" fill="#781E29" d="M 104.840 75.930 L 114.830 73.250 L 121.030 59.470 L 110.420 47.680 L 100.430 46.650 L 92.430 50.940 L 87.050 63.580 L 95.230 70.170 L 104.840 75.930 " stroke-width="1"/>
    <path id="ID0.7260759021155536" fill="#781E29" d="M 62.420 87.280 L 67.380 68.010 L 60.670 57.070 L 49.740 52.050 L 31.610 55.490 L 30.620 68.480 L 31.710 82.580 L 42.370 90.690 L 62.420 87.280 " stroke-width="1"/>
    <path id="ID0.613007593434304" fill="#781E29" d="M 113.330 112.730 L 105.700 112.640 L 96.540 120.090 L 98.510 128.190 L 108.140 131.190 L 115.990 129.190 L 120.460 124.440 L 117.500 118.340 L 113.330 112.730 " stroke-width="1"/>
    <path id="ID0.2894555376842618" fill="#781E29" d="M 87.970 125.420 L 101.820 101.160 L 101.110 84.340 L 93.300 73.440 L 74.360 72.070 L 67.180 89.080 L 61.250 108.510 L 67.070 123.340 L 87.970 125.420 " stroke-width="1"/>
    <path id="ID0.4177084397524595_11_" fill="none" d="M 0 0 L 147.500 0 L 147.500 154.690 L 0 154.690 L 0 0 Z " stroke-width="1"/>
    <path id="ID0.17349215224385262_85_" fill="#A34E42" d="M 109.440 46.590 L 118.660 56.830 L 113.380 68.560 L 105.130 70.770 L 96.360 65.530 L 89.470 59.980 L 94 49.370 L 100.840 45.710 L 109.440 46.590 " stroke-width="1"/>
    <path id="ID0.17349215224385262_84_" fill="#B3655A" d="M 65.230 65.330 L 60.800 82.530 L 42.890 85.580 L 33.630 78.540 L 32.620 65.490 L 33.490 54.180 L 49.480 51.150 L 59.280 55.650 L 65.230 65.330 " stroke-width="1"/>
    <path id="ID0.17349215224385262_83_" fill="#D06454" d="M 100.680 126.610 L 98.790 117.840 L 106.410 111.640 L 112.330 111.710 L 115.800 116.370 L 117 122.900 L 112.270 127.550 L 105.690 128.600 L 100.700 125.600 " stroke-width="1"/>
    <path id="ID0.17349215224385262_78_" fill="#AB483B" d="M 99.800 97.670 L 86.870 120.300 L 68.480 118.470 L 63.370 105.420 L 69.070 86.750 L 75.650 71.160 L 92.230 72.360 L 99.150 82.020 L 99.800 97.670 " stroke-width="1"/>
    <path id="ID0.14066133182495832" fill="#781E29" d="M 37.250 129.540 L 54.570 126.650 L 58.800 110.550 L 53.080 101.410 L 43.640 97.160 L 27.970 100.080 L 27.120 110.960 L 28.050 122.680 L 37.250 129.540 " stroke-width="1"/>
    <path id="ID0.17349215224385262_68_" fill="#AB483B" d="M 56.670 108.090 L 52.930 122.330 L 37.800 124.860 L 29.980 119.030 L 29.130 108.220 L 29.860 98.850 L 43.370 96.340 L 51.650 100.060 L 56.670 108.090 " stroke-width="1"/>
    <path id="ID0.48743041371926665" fill="#5E2028" d="M 25.370 30.320 L 25.310 49.940 L 29 56.890 L 36.470 48.710 L 38.230 51.130 L 43.660 46.700 L 47.540 54.590 L 50.410 51.190 L 52.350 53.910 L 54.970 51.460 L 57.860 56.510 L 61.700 48.870 L 64.890 57.890 L 72.760 48.710 L 75.630 54.610 L 79.850 50.890 L 81.680 52.620 L 83.700 47.880 L 89.390 54.680 L 92.180 45.750 L 96.300 53.990 L 98.310 48.350 L 100.130 48.040 L 101.810 46.060 L 107.830 58.020 L 111.800 48.950 L 113.310 52.130 L 118.900 47.530 L 123.150 50.180 L 123.410 40.970 L 122.840 30.510 L 25.370 30.320 " stroke-width="1"/>
    <path id="ID0.9920938340947032" fill="#39B54A" d="M 120.660 26.460 L 115.250 28.100 L 115.530 27.310 L 109.490 26.380 L 101.300 28.480 L 95.150 26.820 L 89.690 27.530 L 89.680 26.780 L 82.070 26.820 L 77.960 28.440 L 78.060 28.100 L 70.610 26.550 L 60.050 28.100 L 60.100 28.340 L 56.370 27.330 L 50.480 28.100 L 50.550 28.580 L 45.790 27.590 L 41.760 28.490 L 41.880 28.100 L 34.420 26.550 L 23.860 28.100 L 24.600 31.780 L 23.590 31.230 L 21.340 33.080 L 21.870 39.190 L 24.090 45.790 L 26.420 40.840 L 29.030 53.890 L 38.570 38.710 L 38.340 46.130 L 45.810 39.700 L 48.730 51.590 L 50.620 42.190 L 52.580 49.910 L 54.220 42.460 L 58.130 51.510 L 62.010 37.870 L 65.220 53.890 L 74.960 38.380 L 75.170 37.710 L 76.060 49.610 L 81.310 42.890 L 82.160 46.620 L 85.200 39.880 L 89.940 49.680 L 89.720 30.480 L 90.750 36.750 L 96.910 50.990 L 99.930 40.350 L 100.770 44.040 L 103.460 38.060 L 108.530 54.020 L 113.530 32.950 L 114.470 30.310 L 114.050 48.130 L 121.690 38.530 L 126.370 46.440 L 127 34.450 L 124.660 28.510 L 120.660 26.460 " stroke-width="1"/>
    <path id="ID0.11840488389134407" fill="#8CE83F" d="M 27.550 28.920 L 29.510 46.460 L 32.820 35.310 L 37.930 28.680 L 34.330 27.930 L 27.550 28.920 " stroke-width="1"/>
    <path id="ID0.0625996240414679" fill="#8CE83F" d="M 52.420 28.880 L 55.790 35.040 L 57.360 44.980 L 60.420 29.900 L 55.270 28.510 L 52.420 28.880 " stroke-width="1"/>
    <path id="ID0.04217758122831583" fill="#8CE83F" d="M 97.380 29.020 L 92.230 30.420 L 95.800 45.500 L 97.380 33.490 L 100.220 29.390 L 97.380 29.020 " stroke-width="1"/>
    <path id="ID0.9397410191595554" fill="#8CE83F" d="M 43.570 28.920 L 39.850 40.770 L 45.600 32.890 L 48.900 41.990 L 49.300 34.880 L 48.800 29.480 L 43.570 28.920 " stroke-width="1"/>
    <path id="ID0.26552741369232535" fill="#8CE83F" d="M 85.450 28.030 L 78.670 29.100 L 77.500 42.500 L 81.990 32.040 L 88.150 39.220 L 88.100 32.700 L 85.450 28.030 " stroke-width="1"/>
    <path id="ID0.06690320186316967" fill="#8CE83F" d="M 70.520 27.930 L 63.740 28.920 L 66.730 41.290 L 74.180 32.200 L 74.110 28.680 L 70.520 27.930 " stroke-width="1"/>
    <path id="ID0.28832710813730955" fill="#8CE83F" d="M 50.770 36.190 L 51.470 39.860 L 52.400 45.880 L 53.950 36.640 L 51.920 34.350 L 50.770 36.190 " stroke-width="1"/>
    <path id="ID0.18947569793090224" fill="#8CE83F" d="M 81.460 36.690 L 81.850 39.370 L 82.290 43.720 L 84.540 37.590 L 82.730 35.620 L 81.460 36.690 " stroke-width="1"/>
    <path id="ID0.3730085683055222" fill="#8CE83F" d="M 100.070 34.100 L 100.460 36.780 L 100.900 41.130 L 103.150 35.010 L 101.340 33.040 L 100.070 34.100 " stroke-width="1"/>
    <path id="ID0.6884765466675162" fill="#8CE83F" d="M 22.580 33.360 L 22.870 37.030 L 23.870 41.280 L 25.250 34.190 L 24.040 32.110 L 22.580 33.360 " stroke-width="1"/>
    <path id="ID0.08059883862733841" fill="#8CE83F" d="M 123.210 29.150 L 117.780 28.230 L 115.750 41.300 L 120.150 31.610 L 124.420 39.590 L 124.750 33.690 L 123.210 29.150 " stroke-width="1"/>
    <path id="ID0.07340328581631184" fill="#8CE83F" d="M 102.930 29.460 L 106.160 34.580 L 108.260 46.530 L 110.630 32.470 L 113.230 28.130 L 109.570 27.760 L 102.930 29.460 " stroke-width="1"/>
    <path id="ID0.008909730706363916" fill="#781E29" d="M 106.280 103.560 L 104.920 91.900 L 108.110 85.250 L 114.060 84.500 L 119.890 85.150 L 121.280 95.960 L 119.450 102.300 L 114.720 106.890 L 106.280 103.560 " stroke-width="1"/>
    <path id="ID0.3634342197328806" fill="#AD5B50" d="M 118.100 84.960 L 114.080 84.510 L 109.440 85.100 L 106.970 90.240 L 108.130 100.140 L 114.250 102.550 L 117.680 99.230 L 119.240 93.800 L 118.100 84.960 " stroke-width="1"/>
  </g>
</svg>