<svg xmlns="http://www.w3.org/2000/svg" xmlns:xlink="http://www.w3.org/1999/xlink" version="1.1" width="120.43000030517578" height="33" viewBox="-0.5 -0.5 120.43000030517578 33">
  <!-- Exported by Scratch - http://scratch.mit.edu/ -->
  <g id="ID0.6815460869111121">
    <path id="ID0.9604283305816352" fill="none" d="M 0 0 L 107.290 0 L 107.290 32 L 0 32 L 0 0 Z " stroke-width="1"/>
    <path id="ID0.8847224130295217" fill="#FFDB43" d="M 119.420 20.860 C 119.420 27.010 116.910 32 113.800 32 L 89.040 32 C 85.940 32 83.420 27.010 83.420 20.860 L 83.420 11.150 C 83.420 4.990 85.940 0 89.040 0 L 113.810 0 C 116.910 0 119.430 4.990 119.430 11.140 L 119.430 20.860 Z " stroke-width="1"/>
    <path id="ID0.23639564448967576" d="M 9.850 20.140 L 7.180 9.550 L 7.180 21.020 C 7.180 21.650 7.040 22.130 6.750 22.450 C 6.470 22.770 6.090 22.930 5.620 22.930 C 5.170 22.930 4.800 22.770 4.510 22.460 C 4.220 22.150 4.080 21.670 4.080 21.030 L 4.080 7.880 C 4.080 7.150 4.270 6.670 4.650 6.410 C 5.030 6.150 5.540 6.030 6.180 6.030 L 7.220 6.030 C 7.850 6.030 8.300 6.090 8.590 6.200 C 8.880 6.310 9.080 6.520 9.220 6.810 C 9.360 7.100 9.510 7.580 9.680 8.250 L 12.090 17.350 L 14.500 8.250 C 14.670 7.580 14.830 7.110 14.960 6.810 C 15.100 6.520 15.310 6.310 15.590 6.200 C 15.870 6.090 16.330 6.030 16.960 6.030 L 18.000 6.030 C 18.640 6.030 19.150 6.160 19.530 6.410 C 19.910 6.660 20.100 7.150 20.100 7.880 L 20.100 21.030 C 20.100 21.660 19.960 22.140 19.670 22.460 C 19.390 22.780 19.010 22.940 18.530 22.940 C 18.080 22.940 17.720 22.780 17.430 22.460 C 17.140 22.140 17.000 21.670 17.000 21.030 L 17.000 9.550 L 14.340 20.140 C 14.170 20.830 14.020 21.330 13.920 21.650 C 13.810 21.970 13.610 22.260 13.310 22.530 C 13.020 22.790 12.610 22.930 12.090 22.930 C 11.700 22.930 11.360 22.850 11.090 22.680 C 10.820 22.510 10.610 22.290 10.460 22.030 C 10.310 21.770 10.190 21.470 10.100 21.150 C 10.030 20.820 9.940 20.490 9.850 20.140 Z " stroke-width="1" />
    <path id="ID0.3145148912444711" d="M 31.400 21.180 L 31.400 20.780 C 31.030 21.250 30.640 21.640 30.230 21.960 C 29.820 22.280 29.380 22.510 28.890 22.670 C 28.410 22.830 27.850 22.900 27.240 22.900 C 26.490 22.900 25.820 22.740 25.230 22.440 C 24.640 22.140 24.180 21.700 23.850 21.160 C 23.460 20.500 23.270 19.560 23.270 18.330 L 23.270 12.200 C 23.270 11.580 23.410 11.120 23.690 10.810 C 23.970 10.500 24.340 10.350 24.800 10.350 C 25.270 10.350 25.650 10.500 25.930 10.810 C 26.220 11.120 26.360 11.580 26.360 12.190 L 26.360 17.140 C 26.360 17.860 26.420 18.460 26.540 18.950 C 26.660 19.440 26.880 19.820 27.190 20.090 C 27.500 20.370 27.930 20.500 28.470 20.500 C 28.990 20.500 29.480 20.340 29.940 20.040 C 30.400 19.740 30.740 19.330 30.950 18.830 C 31.120 18.390 31.210 17.430 31.210 15.950 L 31.210 12.190 C 31.210 11.580 31.350 11.120 31.640 10.810 C 31.930 10.500 32.300 10.350 32.760 10.350 C 33.220 10.350 33.590 10.500 33.870 10.810 C 34.150 11.120 34.290 11.580 34.290 12.200 L 34.290 21.170 C 34.290 21.760 34.160 22.200 33.890 22.500 C 33.620 22.790 33.280 22.940 32.850 22.940 C 32.420 22.940 32.080 22.790 31.800 22.480 C 31.520 22.170 31.400 21.740 31.400 21.180 Z " stroke-width="1" />
    <path id="ID0.6549238874576986" d="M 47.340 18.880 C 47.340 19.730 47.130 20.460 46.720 21.070 C 46.300 21.680 45.690 22.140 44.880 22.450 C 44.070 22.760 43.080 22.920 41.920 22.920 C 40.810 22.920 39.860 22.750 39.060 22.410 C 38.270 22.070 37.680 21.640 37.300 21.130 C 36.920 20.620 36.730 20.110 36.730 19.590 C 36.730 19.250 36.850 18.960 37.090 18.720 C 37.330 18.480 37.640 18.360 38.010 18.360 C 38.330 18.360 38.580 18.440 38.760 18.600 C 38.930 18.760 39.100 18.980 39.260 19.270 C 39.580 19.820 39.960 20.230 40.400 20.510 C 40.840 20.780 41.440 20.920 42.210 20.920 C 42.830 20.920 43.340 20.780 43.730 20.510 C 44.130 20.230 44.320 19.920 44.320 19.560 C 44.320 19.020 44.110 18.620 43.700 18.370 C 43.290 18.120 42.610 17.880 41.660 17.660 C 40.590 17.400 39.730 17.120 39.060 16.830 C 38.390 16.540 37.860 16.160 37.460 15.680 C 37.060 15.200 36.860 14.620 36.860 13.920 C 36.860 13.300 37.050 12.710 37.420 12.160 C 37.790 11.610 38.340 11.170 39.060 10.840 C 39.780 10.510 40.650 10.350 41.670 10.350 C 42.470 10.350 43.190 10.430 43.830 10.600 C 44.470 10.770 45.000 10.990 45.430 11.270 C 45.860 11.550 46.180 11.860 46.400 12.200 C 46.620 12.540 46.730 12.870 46.730 13.200 C 46.730 13.560 46.610 13.850 46.370 14.070 C 46.130 14.300 45.790 14.410 45.360 14.410 C 45.040 14.410 44.770 14.320 44.550 14.140 C 44.330 13.960 44.070 13.690 43.790 13.320 C 43.560 13.020 43.280 12.780 42.960 12.590 C 42.640 12.410 42.210 12.320 41.670 12.320 C 41.110 12.320 40.650 12.440 40.280 12.680 C 39.910 12.920 39.730 13.210 39.730 13.570 C 39.730 13.900 39.870 14.160 40.140 14.370 C 40.410 14.580 40.780 14.750 41.240 14.890 C 41.700 15.030 42.340 15.190 43.140 15.390 C 44.100 15.620 44.880 15.900 45.490 16.230 C 46.100 16.560 46.560 16.940 46.870 17.380 C 47.180 17.820 47.340 18.320 47.340 18.880 Z " stroke-width="1" />
    <path id="ID0.6710895071737468" d="M 51.530 8.910 C 51.100 8.910 50.730 8.780 50.430 8.510 C 50.120 8.250 49.970 7.870 49.970 7.390 C 49.970 6.950 50.130 6.590 50.440 6.310 C 50.750 6.030 51.120 5.880 51.530 5.880 C 51.930 5.880 52.290 6.010 52.600 6.270 C 52.910 6.530 53.060 6.900 53.060 7.390 C 53.060 7.870 52.910 8.240 52.610 8.510 C 52.300 8.770 51.940 8.910 51.530 8.910 Z M 53.060 12.100 L 53.060 21.040 C 53.060 21.660 52.910 22.130 52.620 22.450 C 52.330 22.770 51.950 22.930 51.500 22.930 C 51.050 22.930 50.680 22.770 50.390 22.440 C 50.100 22.110 49.970 21.650 49.970 21.050 L 49.970 12.200 C 49.970 11.590 50.110 11.130 50.390 10.820 C 50.670 10.510 51.040 10.360 51.500 10.360 C 51.950 10.360 52.330 10.510 52.620 10.820 C 52.910 11.120 53.060 11.550 53.060 12.100 Z " stroke-width="1" />
    <path id="ID0.8746131714433432" d="M 67.350 19.100 C 67.350 19.490 67.230 19.900 67 20.340 C 66.770 20.780 66.420 21.200 65.950 21.590 C 65.480 21.990 64.880 22.310 64.160 22.550 C 63.440 22.790 62.630 22.910 61.730 22.910 C 59.820 22.910 58.330 22.350 57.250 21.240 C 56.180 20.130 55.640 18.630 55.640 16.760 C 55.640 15.490 55.890 14.370 56.380 13.390 C 56.870 12.410 57.580 11.660 58.510 11.130 C 59.440 10.600 60.550 10.330 61.840 10.330 C 62.640 10.330 63.380 10.450 64.050 10.680 C 64.720 10.910 65.290 11.220 65.750 11.590 C 66.210 11.960 66.570 12.350 66.820 12.770 C 67.070 13.190 67.190 13.580 67.190 13.940 C 67.190 14.310 67.050 14.620 66.780 14.880 C 66.500 15.140 66.170 15.270 65.780 15.270 C 65.520 15.270 65.310 15.200 65.140 15.070 C 64.970 14.940 64.780 14.720 64.570 14.430 C 64.190 13.860 63.800 13.430 63.390 13.140 C 62.980 12.850 62.450 12.710 61.820 12.710 C 60.910 12.710 60.170 13.070 59.610 13.780 C 59.050 14.490 58.770 15.470 58.770 16.710 C 58.770 17.290 58.840 17.830 58.980 18.310 C 59.120 18.790 59.330 19.210 59.600 19.560 C 59.870 19.900 60.200 20.160 60.590 20.340 C 60.980 20.520 61.400 20.610 61.860 20.610 C 62.480 20.610 63.010 20.470 63.450 20.180 C 63.890 19.890 64.280 19.450 64.620 18.860 C 64.810 18.510 65.010 18.240 65.230 18.040 C 65.450 17.840 65.720 17.750 66.030 17.750 C 66.410 17.750 66.720 17.890 66.970 18.180 C 67.220 18.470 67.350 18.770 67.350 19.100 Z " stroke-width="1" />
  </g>
</svg>