<svg xmlns="http://www.w3.org/2000/svg" xmlns:xlink="http://www.w3.org/1999/xlink" version="1.1" width="80" height="80.75" viewBox="-0.5 -1 80 80.75">
  <!-- Exported by Scratch - http://scratch.mit.edu/ -->
  <g id="ID0.5987578257918358">
    <path id="ID0.14449769724160433_129_" fill="#ADADAD" d="M 64.01 43.49 L 64.2 55.08 C 64.2 59.49 60.72 63.17 56.39 63.17 L 48.1 63.64 L 22.79 63.64 C 18.47 63.64 16 59.82 16 55.42 L 15.71 46.6 L 16 23.51 C 16.29 19.19 19.73 15.32 24.07 15.32 L 40.98 15.73 L 56.17 15.19 C 60.49 15.19 64.2 18.98 64.2 23.39 L 64.01 43.49 Z " stroke-width="1"/>
    <path id="ID0.14449769724160433_128_" fill="#DEDEDE" d="M 60.18 42.06 L 60.35 52.24 C 60.35 56.11 57.29 59.35 53.48 59.35 L 46.19 59.77 L 23.94 59.77 C 20.15 59.77 17.97 56.42 17.97 52.54 L 17.71 44.79 L 17.97 24.5 C 18.22 20.7 21.25 17.3 25.06 17.3 L 39.93 17.66 L 53.29 17.18 C 57.08 17.18 60.35 20.51 60.35 24.39 L 60.18 42.06 Z " stroke-width="1"/>
    <path id="ID0.14449769724160433_127_" fill="#F0F0F0" d="M 53.61 38.72 L 32.33 50.63 L 28.49 50.63 C 25.13 50.63 22.38 48.43 22.38 45.7 L 22.15 40.42 L 22.38 26.16 C 22.38 23.44 25.11 21.23 28.49 21.23 L 42.75 21.7 L 47.5 21.23 C 50.86 21.23 53.61 23.43 53.61 26.16 L 53.61 38.72 Z " stroke-width="1"/>
    <path id="ID0.033297700341790915_24_" fill="none" d="M 0.5 0 L 78.5 0 L 78.5 78.75 L 0.5 78.75 L 0.5 0 Z " stroke-width="1"/>
    <path id="ID0.40235534170642495" fill="none" stroke="#4D4D4D" stroke-width="1.5" d="M 30.5 15.47 L 33.13 23.34 L 30.5 27.09 L 33.13 29.71 "/>
    <path id="ID0.5009231655858457" fill="none" stroke="#4D4D4D" stroke-width="1.5" d="M 49.88 15.47 L 47.63 19.41 L 48.75 22.71 "/>
    <path id="ID0.0725051797926426" fill="none" stroke="#4D4D4D" stroke-width="1.5" d="M 64.12 31.34 L 56 29.71 L 50.44 37.21 "/>
    <path id="ID0.9086189637891948" fill="none" stroke="#4D4D4D" stroke-width="1.5" d="M 52.13 34.71 L 48.75 32.21 "/>
    <path id="ID0.33498922688886523" fill="none" stroke="#4D4D4D" stroke-width="1.5" d="M 15.71 46.6 L 23.75 41.84 L 27.25 43.71 "/>
    <path id="ID0.6885333987884223" fill="none" stroke="#4D4D4D" stroke-width="1.5" d="M 22.79 63.64 L 24.63 57.46 "/>
    <path id="ID0.7143373275175691" fill="none" stroke="#4D4D4D" stroke-width="1.5" d="M 42.38 63.64 L 39.03 57.46 L 46.63 50.63 "/>
    <path id="ID0.2214491805061698" fill="none" stroke="#4D4D4D" stroke-width="1.5" d="M 43.13 53.46 L 37.88 49.59 L 39.5 47.34 "/>
    <path id="ID0.14202797645702958" fill="none" stroke="#4D4D4D" stroke-width="1.5" d="M 64.12 52.59 L 57.88 50.63 "/>
    <path id="ID0.14449769724160433_126_" fill="none" stroke="#000000" stroke-width="2" d="M 64.01 43.49 L 64.2 55.08 C 64.2 59.49 60.72 63.17 56.39 63.17 L 48.1 63.64 L 22.79 63.64 C 18.47 63.64 16 59.82 16 55.42 L 15.71 46.6 L 16 23.51 C 16.29 19.19 19.73 15.32 24.07 15.32 L 40.98 15.73 L 56.17 15.19 C 60.49 15.19 64.2 18.98 64.2 23.39 L 64.01 43.49 Z "/>
  </g>
</svg>