<svg version="1.1" xmlns="http://www.w3.org/2000/svg" xmlns:xlink="http://www.w3.org/1999/xlink" width="89.4354" height="97.61269" viewBox="0,0,89.4354,97.61269"><g transform="translate(-203.9646,-135.3)"><g data-paper-data="{&quot;isPaintingLayer&quot;:true}" fill="none" fill-rule="nonzero" stroke="none" stroke-width="none" stroke-linecap="none" stroke-linejoin="none" stroke-miterlimit="10" stroke-dasharray="" stroke-dashoffset="0" font-family="none" font-weight="none" font-size="none" text-anchor="none" style="mix-blend-mode: normal"><path d="M250.2,196c-0.1,-1 3.7,-5.4 3.7,-6.2c-0.3,-8.7 2.5,-12.4 4.1,-12.3c3.6,0.3 5.3,4.1 3.9,11c-1,5.1 -7.9,14.4 -8.1,15.2" id="ID0.1790580078959465_13_" fill="#ffffff" stroke="#8e5322" stroke-width="1.4" stroke-linecap="round" stroke-linejoin="round"/><g id="ID0.15723733883351088_13_" stroke="#8e5322" stroke-width="1.4" stroke-linecap="round" stroke-linejoin="round"><path d="M240.4,215.1c-9.6,1.1 -12,6.7 -14.2,5.8c-8.2,-6.6 -5.9,4.8 -11.8,-0.8c-1.6,-1.9 1.4,-5.6 2.8,-7.3c3,-3.6 2.4,-2.4 9.2,0.7c1.2,-0.6 5.1,-4.9 5.1,-4.9" id="ID0.527006761636585_13_" fill="#ffffff"/><path d="M222.9,218.7c-0.5,-0.4 -2,-0.9 -2.5,-1.4" id="ID0.8937406223267317_18_" fill="#faa51f"/></g><g id="Layer_3_12_"><path d="M231.7,204.8c0.5,0.8 1.6,2.3 -2.1,4.4c-3.7,2.1 -10.3,-0.5 -11,-0.9c-2.7,-1.4 -6.2,-3.1 -9.3,-6.4c-9,-9.3 -2.9,-21.4 1.6,-21.5c4.5,-0.1 2.2,8.1 4.8,15.1c1.2,3.2 3.3,5.3 5.3,6.8c2.8,2.2 10.3,1.6 10.7,2.5z" id="ID0.8535828334279358_11_" fill="#faa51f" stroke="none" stroke-width="1" stroke-linecap="butt" stroke-linejoin="miter"/><path d="M213.8,185.5c0.4,2.9 1.2,8.3 1.2,8.3c0,0 -3.4,-2.5 -6.1,-1.8c-2.7,0.7 -2.6,5.4 -3.5,3.7c-0.5,-1.8 -1.2,-4.7 -0.5,-8.3c0.8,-3.6 4.1,-7.4 6.2,-7.1c2.2,0.6 2.5,2.5 2.7,5.2z" id="ID0.914295740891248_11_" fill="#ffffff" stroke="none" stroke-width="1" stroke-linecap="butt" stroke-linejoin="miter"/><path d="M231.7,204.8c0.5,0.8 1.6,2.3 -2.1,4.4c-3.7,2.1 -10.3,-0.5 -11,-0.9c-2.7,-1.4 -6.2,-3.1 -9.3,-6.4c-9,-9.3 -2.9,-21.4 1.6,-21.5c4.5,-0.1 2.2,8.1 4.8,15.1c1.2,3.2 3.3,5.3 5.3,6.8c2.8,2.2 10.3,1.6 10.7,2.5z" id="ID0.40227043256163597_11_" fill="#ffffff" stroke="#8e5322" stroke-width="1.4" stroke-linecap="round" stroke-linejoin="round"/></g><g stroke-width="1.4" stroke-linecap="round" stroke-linejoin="round"><path d="M245.4,194.8l-5.1,13.7c0,0 1.6,-0.8 -3.2,2.3c-2.8,1.8 -16.6,-2.6 -18.5,-7.5c-1.2,-3.4 5.4,-18.2 5.4,-18.2z" id="ID0.26344340899959207_11_" fill="#518943" stroke="#426c36"/><path d="M230.4,174.5c1.4,0.4 2.4,1.6 2.9,3.1c0.5,1.6 0.6,3.5 0,5.5c-0.6,2 -1.7,3.6 -2.9,4.6c-1.3,1 -2.8,1.5 -4.1,1c-1.4,-0.4 -2.4,-1.6 -2.9,-3.1c-0.5,-1.5 -0.6,-3.5 0,-5.4c0.6,-2 1.7,-3.6 2.9,-4.6c1.2,-1.1 2.7,-1.5 4.1,-1.1z" id="ID0.2414738917723298_11_" fill="#fefbdf" stroke="#70715e"/><path d="M229.5,177.7c0.7,0.2 1.3,0.9 1.6,1.7c0.3,0.9 0.3,1.9 0,3c-0.3,1.1 -0.9,2 -1.6,2.5c-0.7,0.6 -1.5,0.8 -2.2,0.6c-0.7,-0.2 -1.3,-0.9 -1.6,-1.7c-0.3,-0.8 -0.3,-1.9 0,-3c0.3,-1.1 0.9,-2 1.6,-2.5c0.6,-0.6 1.4,-0.8 2.2,-0.6z" id="ID0.6192030962556601_11_" fill="#fefbdf" stroke="#70715e"/><path d="M221.3,202.6c-0.7,-1.1 1.6,-6.6 1.6,-6.6l5.9,3.1l-2.6,7.2c0,0 -4.2,-2.7 -4.9,-3.7z" id="ID0.15330331353470683_11_" fill="#518943" stroke="#426c36"/></g><path d="M239.3,207.5" id="ID0.39854341372847557_11_" fill="#faa51f" stroke="#8e5322" stroke-width="1.4" stroke-linecap="round" stroke-linejoin="round"/><path d="M251.4,201.8c-1.9,6.4 -3,16.3 -14.4,13c-11.4,-3.3 -7.8,-11.7 -5.9,-18.1c1.9,-6.4 6.3,-7 12.8,-5.1c6.5,1.9 9.4,3.8 7.5,10.2z" id="ID0.46792364912107587_11_" fill="#ffffff" stroke="#8e5322" stroke-width="1.4" stroke-linecap="round" stroke-linejoin="round"/><path d="M252.2,204.4c-1.2,4 -4.9,7.6 -6.8,6.1c-4.1,-3.3 -4.1,-4.8 -2.9,-8.9c1.2,-4 3.6,-4.6 7.2,-3.5c3.5,1.1 3.7,2.3 2.5,6.3z" id="ID0.38032895559445024_11_" fill="#bababa" stroke="none" stroke-width="1" stroke-linecap="butt" stroke-linejoin="miter"/><g id="ID0.16171270422637463_11_" stroke="#8e5322" stroke-width="1.4" stroke-linecap="round" stroke-linejoin="round"><path d="M249.3,209.8c0,0 -1.8,0.6 -2.1,3.1c-0.3,2.3 0.9,6.3 2.4,10.3c1.3,3.6 7,-2.4 8.5,4.9c0.4,2.1 -8.6,4.3 -10.8,4.1c-2,-0.2 -2.7,-0.7 -2.9,-2.7c-0.8,-7.3 -9.5,-17.1 -9.5,-17.1" id="ID0.007584026083350182_11_" fill="#ffffff"/><path d="M249.2,225.2c1.4,-0.7 2.7,-0.8 2.7,-0.8" id="ID0.31672530295327306_11_" fill="#faa51f"/></g><path d="M228.7,207.2c19,-9.2 6.2,-18.4 6.2,-18.4c16.2,10.1 -1.8,21 -6.4,21.4" id="ID0.48627097019925714_11_" fill="#518943" stroke="#426c36" stroke-width="1.4" stroke-linecap="round" stroke-linejoin="round"/><path d="M250.1,208.9c6.5,-7.3 -3.6,-16.7 -3.6,-16.7c10.2,5.9 7.9,15.3 4.1,16.7" id="ID0.07006075512617826_11_" fill="#518943" stroke="#426c36" stroke-width="1.4" stroke-linecap="round" stroke-linejoin="round"/><g><g id="Layer_2_23_"><path d="M261.2,146.6l8.3,-5.6l0.8,11.5c0,0 5.3,5.6 6.6,9.1c2.2,5.7 1.5,10 1.5,10c0,0 6.4,3.3 6.6,8.9c0.2,5.7 -5.9,15.2 -24.4,15.6c-18.6,0.3 -32.1,-7.1 -36.9,-19.3c-4.8,-12 8.1,-23.1 7.4,-22.4l1,-18.4l11,10.3c0,0 4.5,-0.9 9.1,-0.3c1.7,0.2 4.7,0.9 6.2,1.3z" id="ID0.2591130444779992_11_" fill="#faa51f" stroke="none" stroke-width="1" stroke-linecap="butt" stroke-linejoin="miter"/><path d="M277.9,171.8c0,0 6.2,2.8 6.4,8.4c0.5,5.7 -6.1,15.1 -23.6,15.1c-3.9,0 -7.5,0.1 -12.9,-0.9c-8.4,-1.3 -16.6,-8.2 -14,-19c1.5,-6.2 9.4,-4.3 9.4,-4.3l7.3,-0.5c0,0 6.7,2.9 11,2.7c4.3,-0.2 4.9,-3.4 4.9,-3.4l9.1,-1l2,2.4z" id="ID0.3588979784399271_11_" fill="#ffffff" stroke="none" stroke-width="1" stroke-linecap="butt" stroke-linejoin="miter"/><path d="M292.7,174.7c0,0 -1.9,1.4 -4.6,2c-2.3,0.6 -6.7,0.8 -6.7,0.8" id="ID0.2727069961838424_11_" fill="none" stroke="#8e5322" stroke-width="1.4" stroke-linecap="round" stroke-linejoin="round"/><path d="M290.7,185.4c0,0 -1.8,0.1 -4.5,-0.4c-2.8,-0.4 -5.3,-1.7 -5.3,-1.7" id="ID0.5861211125738919_11_" fill="none" stroke="#8e5322" stroke-width="1.4" stroke-linecap="round" stroke-linejoin="round"/><path d="M241.1,144.5l4.5,4.5" id="ID0.4793355236761272_11_" fill="none" stroke="#8e5322" stroke-width="1.4" stroke-linecap="round" stroke-linejoin="round"/><path d="M261.2,146.6l8.3,-5.6l0.8,11.5c0,0 5.3,5.6 6.6,9.1c2.2,5.7 1.5,10 1.5,10c0,0 6.4,3.3 6.6,8.9c0.2,5.7 -5.9,15.2 -24.4,15.6c-18.6,0.3 -32.1,-7.1 -36.9,-19.3c-4.8,-12 8.1,-23.1 7.4,-22.4l1,-18.4l11,10.3c0,0 4.5,-0.9 9.1,-0.3c1.7,0.2 4.7,0.9 6.2,1.3z" id="ID0.48413723474368453_11_" fill="none" stroke="#8e5322" stroke-width="1.4" stroke-linecap="round" stroke-linejoin="round"/><path d="M223.9,172.5c0,0 -3.5,-0.4 -5.3,-0.7c-1.8,-0.3 -5.6,-1.6 -5.6,-1.6" id="ID0.9024141579866409_11_" fill="none" stroke="#8e5322" stroke-width="1.4" stroke-linecap="round" stroke-linejoin="round"/><path d="M214.5,160.1c0,0 2,1 5.4,3.8c3,2.5 4.8,4.8 4.8,4.8" id="ID0.16030752705410123_11_" fill="none" stroke="#8e5322" stroke-width="1.4" stroke-linecap="round" stroke-linejoin="round"/></g><g id="Layer_5_12_"><path d="M274.7,161.3c2,4.7 1.2,9.7 -1.7,10.9c-3,1.3 -7,-1.6 -9,-6.4c-2,-4.7 -1.2,-9.7 1.7,-10.9c2.9,-1.2 7,1.7 9,6.4z" id="ID0.40023312577977777_11_" fill="#ffffff" stroke="#8e5322" stroke-width="1.4" stroke-linecap="round" stroke-linejoin="round"/><path d="M273,166.8c0.1,1 -0.5,1.9 -1.6,2.1c-0.9,0.1 -1.8,-0.6 -1.9,-1.8c-0.1,-1 0.5,-1.9 1.6,-2.1c0.9,0 1.7,0.8 1.9,1.8" id="ID0.43813491938635707_11_" fill="#414142" stroke="none" stroke-width="1" stroke-linecap="butt" stroke-linejoin="miter"/></g><g id="Layer_7_12_"><path d="M251.3,160.3c2,4.7 0.8,9.8 -2.7,11.3c-3.5,1.5 -8,-1.1 -10,-5.9c-2,-4.7 -0.8,-9.8 2.7,-11.3c3.5,-1.5 8,1.2 10,5.9z" id="ID0.4253597157076001_11_" fill="#ffffff" stroke="#8e5322" stroke-width="1.4" stroke-linecap="round" stroke-linejoin="round"/><path d="M249.3,166.1c-0.2,1 -1.1,1.7 -2,1.6c-1,-0.2 -1.5,-1.1 -1.3,-2.2c0.2,-1 1.1,-1.7 2,-1.6c0.9,0.2 1.5,1.1 1.3,2.2" id="ID0.814307457767427_11_" fill="#414142" stroke="none" stroke-width="1" stroke-linecap="butt" stroke-linejoin="miter"/></g><path d="M260.4,172c1.7,0.1 4.2,-0.8 4.2,1.1c-0.1,0.8 -2.3,3.8 -4.1,3.5c-2,-0.3 -5,-3.3 -4.6,-4.8c0.3,-1.4 3,0.1 4.5,0.2z" id="ID0.5240494590252638_11_" fill="#5f4b43" stroke="#8e5322" stroke-width="1.4" stroke-linecap="round" stroke-linejoin="round"/><path d="M256.3,188.1c-5.5,0.1 -7.6,-2.6 -7.6,-2.6" id="ID0.046259244438260794_11_" fill="#ffffff" stroke="#8e5322" stroke-width="1.4" stroke-linecap="round" stroke-linejoin="round"/></g><path d="M231.7,198.1c-0.2,-0.8 -7.1,-10.1 -8.1,-15.2c-1.4,-6.9 0.3,-10.7 3.9,-11c1.6,-0.1 4.4,3.6 4.1,12.3c0,0.8 3.8,5.2 3.7,6.2" id="ID0.1790580078959465_14_" fill="#ffffff" stroke="#8e5322" stroke-width="1.4" stroke-linecap="round" stroke-linejoin="round"/></g></g></svg>