<svg version="1.1" xmlns="http://www.w3.org/2000/svg" xmlns:xlink="http://www.w3.org/1999/xlink" width="83" height="83" viewBox="0,0,83,83"><defs><linearGradient x1="197.375" y1="178.1328" x2="280.375" y2="178.1328" gradientUnits="userSpaceOnUse" id="color-1"><stop offset="0" stop-color="#8dc63f"/><stop offset="1" stop-color="#006838"/></linearGradient><radialGradient cx="238.875" cy="178.1328" r="33.9434" gradientUnits="userSpaceOnUse" id="color-2"><stop offset="0" stop-color="#d7df23"/><stop offset="1" stop-color="#009444"/></radialGradient></defs><g transform="translate(-197.375,-136.632)"><g data-paper-data="{&quot;isPaintingLayer&quot;:true}" fill-rule="nonzero" stroke="none" stroke-linecap="butt" stroke-linejoin="miter" stroke-miterlimit="10" stroke-dasharray="" stroke-dashoffset="0" style="mix-blend-mode: normal"><path d="M280.375,178.132c0,22.882 -18.616,41.5 -41.5,41.5c-22.883,0 -41.5,-18.618 -41.5,-41.5c0,-22.883 18.616,-41.5 41.5,-41.5c22.884,0 41.5,18.618 41.5,41.5z" fill="url(#color-1)" stroke-width="1"/><path d="M204.931,178.133c0,-18.74676 15.19724,-33.944 33.944,-33.944c18.74676,0 33.944,15.19725 33.944,33.944c0,18.74676 -15.19725,33.944 -33.944,33.944c-18.74676,0 -33.944,-15.19724 -33.944,-33.944z" fill="url(#color-2)" stroke-width="1"/><path d="M232.59631,151.42503c2.14689,0.46082 3.87153,2.9423 5.62267,4.15173c4.72179,3.26112 8.46572,7.00194 12.86163,10.64997c3.18184,2.64051 7.26625,3.14758 10.60842,5.40682c2.31059,1.56191 5.19274,5.25453 4.21759,8.03997c-1.43088,4.08723 -6.04242,4.64451 -9.6702,5.76001c-4.95902,1.52484 -9.58266,4.50399 -14.49399,6.01202c-2.78565,0.85534 -6.1621,1.12727 -8.77965,2.14583c-4.03952,1.57189 -7.6179,3.961 -11.60715,0.28761c-2.05363,-1.89104 -1.58912,-6.14632 -1.20305,-8.84878c0.54611,-3.82278 2.48825,-8.53667 2.49332,-12.30833c0.00666,-4.95726 0.16622,-9.81873 0.16622,-14.76827c-0.10856,-0.43112 -0.16622,-0.88248 -0.16622,-1.3473c0,-3.03757 2.46243,-5.5 5.5,-5.5c0.44652,0 0.8806,0.05321 1.29627,0.15363c1.11867,-0.09948 2.21699,-0.03606 3.15413,0.16509z" fill="#ffffff" stroke-width="0.5"/></g></g></svg>