<svg xmlns="http://www.w3.org/2000/svg" xmlns:xlink="http://www.w3.org/1999/xlink" version="1.1" width="245.99000549316406" height="253.35000610351562" viewBox="-0.5 -0.5 245.99000549316406 253.35000610351562">
  <!-- Exported by Scratch - http://scratch.mit.edu/ -->
  <g id="ID0.05031164502725005">
    <path id="ID0.8366665341891348" fill="#8C303C" d="M 220.190 224.190 L 182.710 223.190 L 157.210 221.690 L 133.700 223.060 L 94.210 224.860 L 24.190 224.190 L 24.190 32.190 L 220.190 32.190 L 220.190 224.190 " stroke-width="1"/>
    <path id="ID0.16043552057817578" fill="#781E29" d="M 103.660 75.930 L 113.650 73.250 L 119.850 59.470 L 109.230 47.680 L 99.250 46.650 L 91.250 50.940 L 85.870 63.580 L 94.050 70.180 L 103.660 75.930 " stroke-width="1"/>
    <path id="ID0.118011181242764" fill="#781E29" d="M 56.180 145.660 L 103.010 138.870 L 114.750 100.040 L 98.930 78.080 L 73.350 68.070 L 31.260 74.880 L 28.930 100.730 L 31.570 129.710 L 56.180 145.660 " stroke-width="1"/>
    <path id="ID0.5205905074253678" fill="#781E29" d="M 210.720 156.420 L 194.090 130.830 L 166.960 119.060 L 122.370 127.050 L 119.940 157.140 L 122.710 190.980 L 148.720 209.680 L 198.380 201.690 L 210.720 156.420 " stroke-width="1"/>
    <path id="ID0.4049203093163669" fill="#781E29" d="M 111.740 181.280 L 116.700 162.010 L 109.990 151.070 L 99.050 146.050 L 80.930 149.490 L 79.940 162.480 L 81.030 176.580 L 91.690 184.690 L 111.740 181.280 " stroke-width="1"/>
    <path id="ID0.1636227029375732" fill="#781E29" d="M 196.060 93.540 L 213.390 90.370 L 217.610 72.720 L 211.890 62.700 L 202.450 58.040 L 186.790 61.230 L 185.940 73.160 L 186.860 86.020 L 196.060 93.540 " stroke-width="1"/>
    <path id="ID0.20260575274005532" fill="#781E29" d="M 201.660 128.930 L 211.650 126.250 L 217.850 112.470 L 207.230 100.680 L 197.250 99.650 L 189.250 103.940 L 183.870 116.580 L 192.050 123.180 L 201.660 128.930 " stroke-width="1"/>
    <path id="ID0.3810021751560271" fill="#781E29" d="M 200.690 206.830 L 193.990 211.530 L 188.270 223.450 L 192.960 226.190 L 204.960 226.440 L 212.710 224.190 L 216.570 216.480 L 209.050 206.530 L 200.690 206.830 " stroke-width="1"/>
    <path id="ID0.19989028805866838" fill="#781E29" d="M 72.020 178.140 L 62.860 185.590 L 65.290 195.590 L 71.780 198.190 L 78.450 196.930 L 86.780 189.940 L 83.820 183.840 L 79.650 178.230 L 72.020 178.140 " stroke-width="1"/>
    <path id="ID0.5691595901735127" fill="#781E29" d="M 122.160 199.070 L 103.660 193.650 L 98.120 203.130 L 94.310 214.360 L 101.300 224.190 L 115.710 227.190 L 127.960 225.190 L 133.840 218.860 L 130.910 207.460 L 122.160 199.070 " stroke-width="1"/>
    <path id="ID0.9605537904426455" fill="#781E29" d="M 51.290 201.920 L 65.140 177.660 L 64.430 160.840 L 56.620 149.940 L 37.680 148.570 L 30.500 165.580 L 24.570 185.010 L 30.380 199.840 L 51.290 201.920 " stroke-width="1"/>
    <path id="ID0.19970474066212773" fill="#781E29" d="M 126.910 106.780 L 146.320 115.300 L 179.470 112.520 L 182.550 93.680 L 181.860 72.480 L 163.340 59.620 L 126.600 62.140 L 115.500 89.910 L 126.910 106.780 " stroke-width="1"/>
    <path id="ID0.4177084397524595_11_" fill="none" d="M 0 0 L 244.990 0 L 244.990 252.350 L 0 252.350 L 0 0 Z " stroke-width="1"/>
    <path id="ID0.17349215224385262_90_" fill="#A34E42" d="M 108.260 46.590 L 117.480 56.830 L 112.200 68.560 L 103.950 70.770 L 95.180 65.530 L 88.290 59.980 L 92.800 49.370 L 99.640 45.710 L 108.260 46.590 " stroke-width="1"/>
    <path id="ID0.2295404472388327" fill="#5E2028" d="M 24.190 30.320 L 24.130 49.940 L 27.850 56.890 L 35.390 48.710 L 37.160 51.130 L 42.630 46.700 L 46.550 54.590 L 49.440 51.190 L 51.400 53.910 L 54.040 51.460 L 56.950 56.510 L 60.830 48.870 L 64.040 57.890 L 71.980 48.710 L 74.880 54.610 L 79.130 50.890 L 80.980 52.620 L 83.020 47.880 L 88.760 54.680 L 91.560 45.750 L 95.720 53.990 L 97.750 48.350 L 99.590 48.040 L 101.280 46.060 L 107.350 58.020 L 111.350 48.950 L 112.870 52.130 L 118.510 47.530 L 122.800 50.180 L 123.060 40.970 L 122.480 30.510 L 24.190 30.320 " stroke-width="1"/>
    <path id="ID0.8755641845054924" fill="#5E2028" d="M 122.190 30.320 L 122.130 49.940 L 125.850 56.890 L 133.380 48.710 L 135.160 51.130 L 140.630 46.700 L 144.550 54.590 L 147.440 51.190 L 149.400 53.910 L 152.040 51.460 L 154.950 56.510 L 158.830 48.870 L 162.040 57.890 L 169.980 48.710 L 172.880 54.610 L 177.130 50.890 L 178.980 52.620 L 181.020 47.880 L 186.760 54.680 L 189.560 45.750 L 193.720 53.990 L 195.750 48.350 L 197.590 48.040 L 199.280 46.060 L 205.350 58.020 L 209.350 48.950 L 210.870 52.130 L 216.510 47.530 L 219.800 51.180 L 220.060 40.970 L 218.480 30.510 L 122.190 30.320 " stroke-width="1"/>
    <path id="ID0.17349215224385262_89_" fill="#BA594B" d="M 112.550 97.410 L 101.460 134.080 L 56.630 140.580 L 33.460 125.560 L 30.930 97.730 L 33.100 73.610 L 73.120 67.140 L 97.640 76.730 L 112.550 97.410 " stroke-width="1"/>
    <path id="ID0.17349215224385262_88_" fill="#AB483B" d="M 208.550 153.760 L 196.780 196.920 L 149.210 204.570 L 124.630 186.890 L 121.940 154.130 L 124.240 125.740 L 166.710 118.130 L 192.730 129.420 L 208.550 153.760 " stroke-width="1"/>
    <path id="ID0.17349215224385262_87_" fill="#B3655A" d="M 114.550 159.330 L 110.120 176.520 L 92.210 179.570 L 82.950 172.530 L 81.940 159.480 L 82.810 148.170 L 98.800 145.140 L 108.600 149.640 L 114.550 159.330 " stroke-width="1"/>
    <path id="ID0.17349215224385262_85_" fill="#AB483B" d="M 215.480 70.030 L 211.740 85.640 L 196.610 88.410 L 188.790 82.010 L 187.940 70.160 L 188.670 59.890 L 202.180 57.140 L 210.460 61.220 L 215.480 70.030 " stroke-width="1"/>
    <path id="ID0.17349215224385262_84_" fill="#9C472D" d="M 206.260 99.590 L 215.480 109.830 L 210.200 121.560 L 201.950 123.770 L 193.180 118.530 L 186.290 112.980 L 190.800 102.370 L 197.640 98.710 L 206.260 99.590 " stroke-width="1"/>
    <path id="ID0.3901403876952827" fill="#BA594B" d="M 201.470 206.590 L 195.870 210.520 L 191.240 220.150 L 195.840 224.120 L 195.960 224.190 L 208.690 224.190 L 213.740 214.080 L 207.910 206.350 L 201.470 206.590 " stroke-width="1"/>
    <path id="ID0.17349215224385262_83_" fill="#D06454" d="M 66.990 191.110 L 65.100 183.340 L 72.720 177.140 L 78.640 177.210 L 82.110 181.870 L 84.310 186.400 L 77.580 192.050 L 72 193.100 L 66.990 191.110 " stroke-width="1"/>
    <path id="ID0.8519359650090337" fill="#BA594B" d="M 120.030 198.290 L 103.400 193.790 L 98.920 201.850 L 95.720 211.980 L 102.520 221.140 L 113.200 224.190 L 123.050 224.190 L 130.890 215.510 L 128.180 205.780 L 120.030 198.290 " stroke-width="1"/>
    <path id="ID0.17349215224385262_78_" fill="#AB483B" d="M 63.120 174.170 L 50.190 196.800 L 31.800 194.970 L 26.690 181.920 L 32.390 163.250 L 38.970 147.660 L 55.550 148.860 L 62.470 158.520 L 63.120 174.170 " stroke-width="1"/>
    <path id="ID0.17349215224385262_68_" fill="#C76050" d="M 117.750 86.670 L 127.990 61.050 L 162.780 58.660 L 179.900 70.550 L 180.550 90.550 L 177.760 107.660 L 146.670 110.260 L 128.260 102.180 L 117.750 86.670 " stroke-width="1"/>
    <path id="ID0.01042576227337122" fill="#39B54A" d="M 119.480 26.460 L 114.070 28.100 L 114.350 27.310 L 108.310 26.380 L 100.110 28.480 L 93.960 26.820 L 88.510 27.530 L 88.500 26.780 L 80.890 26.820 L 76.780 28.440 L 76.880 28.110 L 69.430 26.550 L 58.870 28.110 L 58.920 28.340 L 55.190 27.330 L 49.290 28.100 L 49.370 28.580 L 44.610 27.590 L 40.580 28.490 L 40.700 28.110 L 33.240 26.550 L 22.680 28.110 L 23.420 31.780 L 22.410 31.230 L 20.160 33.090 L 20.690 39.190 L 22.900 45.790 L 25.240 40.840 L 27.850 53.890 L 37.390 38.710 L 37.160 46.130 L 44.630 39.700 L 47.550 51.590 L 49.440 42.190 L 51.400 49.910 L 53.040 42.460 L 56.950 51.510 L 60.830 37.870 L 64.040 53.890 L 73.780 38.380 L 73.980 37.710 L 74.880 49.610 L 80.130 42.890 L 80.980 46.620 L 84.020 39.880 L 88.760 49.680 L 88.540 30.490 L 89.560 36.750 L 95.720 50.990 L 98.750 40.350 L 99.590 44.040 L 102.280 38.060 L 107.350 54.020 L 112.350 32.950 L 113.290 30.310 L 112.870 48.130 L 120.510 38.530 L 123.800 50.180 L 125.480 27.510 L 119.480 26.460 " stroke-width="1"/>
    <path id="ID0.09107690723612905" fill="#8CE83F" d="M 26.370 28.930 L 28.330 46.460 L 31.640 35.310 L 36.750 28.680 L 33.150 27.930 L 26.370 28.930 " stroke-width="1"/>
    <path id="ID0.6800721143372357" fill="#8CE83F" d="M 51.240 28.880 L 54.600 35.040 L 56.180 44.980 L 59.240 29.900 L 54.090 28.510 L 51.240 28.880 " stroke-width="1"/>
    <path id="ID0.9726883107796311" fill="#8CE83F" d="M 96.200 29.020 L 91.050 30.420 L 94.620 45.500 L 96.200 33.490 L 99.040 29.390 L 96.200 29.020 " stroke-width="1"/>
    <path id="ID0.8242144882678986" fill="#8CE83F" d="M 42.390 28.930 L 38.670 40.770 L 44.420 32.890 L 47.710 41.990 L 48.120 34.880 L 47.620 29.480 L 42.390 28.930 " stroke-width="1"/>
    <path id="ID0.40420234808698297" fill="#8CE83F" d="M 84.270 28.040 L 77.490 29.100 L 76.310 42.500 L 80.810 32.040 L 86.970 39.220 L 86.910 32.700 L 84.270 28.040 " stroke-width="1"/>
    <path id="ID0.7684974819421768" fill="#8CE83F" d="M 69.340 27.930 L 62.550 28.930 L 65.550 41.290 L 73 32.210 L 72.930 28.680 L 69.340 27.930 " stroke-width="1"/>
    <path id="ID0.5327986902557313" fill="#8CE83F" d="M 49.590 36.190 L 50.290 39.860 L 51.220 45.880 L 52.770 36.640 L 50.740 34.350 L 49.590 36.190 " stroke-width="1"/>
    <path id="ID0.2068180595524609" fill="#8CE83F" d="M 80.280 36.690 L 80.670 39.370 L 81.110 43.720 L 83.350 37.590 L 81.550 35.630 L 80.280 36.690 " stroke-width="1"/>
    <path id="ID0.5962468818761408" fill="#8CE83F" d="M 98.890 34.100 L 99.280 36.780 L 99.720 41.130 L 101.960 35.010 L 100.160 33.040 L 98.890 34.100 " stroke-width="1"/>
    <path id="ID0.6816783379763365" fill="#8CE83F" d="M 21.400 33.360 L 21.690 37.030 L 22.690 41.280 L 24.070 34.190 L 22.860 32.110 L 21.400 33.360 " stroke-width="1"/>
    <path id="ID0.13758380478248" fill="#8CE83F" d="M 122.030 28.150 L 116.600 28.230 L 114.570 41.310 L 118.970 31.610 L 123.240 39.590 L 123.730 33.140 L 122.030 28.150 " stroke-width="1"/>
    <path id="ID0.4373896443285048" fill="#8CE83F" d="M 101.750 29.460 L 104.970 34.580 L 107.070 46.530 L 109.450 32.470 L 112.040 28.130 L 108.390 27.760 L 101.750 29.460 " stroke-width="1"/>
    <path id="ID0.9887056355364621" fill="#39B54A" d="M 217.690 26.460 L 212.280 28.100 L 212.550 27.310 L 206.520 26.380 L 198.320 28.480 L 192.170 26.820 L 186.720 27.530 L 186.710 26.780 L 179.090 26.820 L 174.990 28.440 L 175.090 28.110 L 167.640 26.550 L 157.080 28.110 L 157.130 28.340 L 153.400 27.330 L 147.500 28.100 L 147.580 28.580 L 142.820 27.590 L 138.790 28.490 L 138.900 28.110 L 131.450 26.550 L 120.890 28.110 L 121.630 31.780 L 120.620 31.230 L 118.360 33.090 L 119.080 38.070 L 122.110 45.790 L 123.440 40.840 L 126.060 53.890 L 135.590 38.710 L 135.370 46.130 L 142.840 39.700 L 145.760 51.590 L 147.650 42.190 L 149.610 49.910 L 151.250 42.460 L 155.160 51.510 L 159.040 37.870 L 162.250 53.890 L 171.990 38.380 L 172.190 37.710 L 173.080 49.610 L 178.340 42.890 L 179.190 46.620 L 182.230 39.880 L 186.960 49.680 L 186.750 30.490 L 187.770 36.750 L 193.930 50.990 L 196.960 40.350 L 197.800 44.040 L 200.490 38.060 L 205.560 54.020 L 210.560 32.950 L 211.500 30.310 L 211.080 48.130 L 217.720 38.530 L 223.010 46.180 L 223.480 34.530 L 221.690 28.510 L 217.690 26.460 " stroke-width="1"/>
    <path id="ID0.40957419527694583" fill="#8CE83F" d="M 124.570 28.930 L 126.540 46.460 L 129.850 35.310 L 134.950 28.680 L 131.350 27.930 L 124.570 28.930 " stroke-width="1"/>
    <path id="ID0.0037797577679157257" fill="#8CE83F" d="M 149.450 28.880 L 152.810 35.040 L 154.390 44.980 L 157.440 29.900 L 152.300 28.510 L 149.450 28.880 " stroke-width="1"/>
    <path id="ID0.38107258919626474" fill="#8CE83F" d="M 194.410 29.020 L 189.260 30.420 L 192.830 45.500 L 194.410 33.490 L 197.250 29.390 L 194.410 29.020 " stroke-width="1"/>
    <path id="ID0.18661230010911822" fill="#8CE83F" d="M 140.600 28.930 L 136.880 40.770 L 142.620 32.890 L 145.920 41.990 L 146.330 34.880 L 145.830 29.480 L 140.600 28.930 " stroke-width="1"/>
    <path id="ID0.2618128163740039" fill="#8CE83F" d="M 182.480 28.040 L 175.700 29.100 L 174.520 42.500 L 179.020 32.040 L 185.180 39.220 L 185.120 32.700 L 182.480 28.040 " stroke-width="1"/>
    <path id="ID0.08395403204485774" fill="#8CE83F" d="M 167.540 27.930 L 160.760 28.930 L 163.760 41.290 L 171.210 32.210 L 171.140 28.680 L 167.540 27.930 " stroke-width="1"/>
    <path id="ID0.42087680054828525" fill="#8CE83F" d="M 147.800 36.190 L 148.490 39.860 L 149.430 45.880 L 150.980 36.640 L 148.940 34.350 L 147.800 36.190 " stroke-width="1"/>
    <path id="ID0.2548988782800734" fill="#8CE83F" d="M 178.490 36.690 L 178.870 39.370 L 179.320 43.720 L 181.560 37.590 L 179.750 35.630 L 178.490 36.690 " stroke-width="1"/>
    <path id="ID0.14699371624737978" fill="#8CE83F" d="M 197.100 34.100 L 197.490 36.780 L 197.930 41.130 L 200.170 35.010 L 198.370 33.040 L 197.100 34.100 " stroke-width="1"/>
    <path id="ID0.33914720779284835" fill="#8CE83F" d="M 119.330 33.400 L 120.350 36.720 L 121.750 42.150 L 123.340 33.920 L 120.710 31.790 L 119.330 33.400 " stroke-width="1"/>
    <path id="ID0.0766482874751091" fill="#8CE83F" d="M 220.240 29.150 L 214.810 28.230 L 212.780 41.310 L 217.180 31.610 L 221.450 39.590 L 221.520 33.530 L 220.240 29.150 " stroke-width="1"/>
    <path id="ID0.4402174227871001" fill="#8CE83F" d="M 199.960 29.460 L 203.180 34.580 L 205.280 46.530 L 207.660 32.470 L 210.250 28.130 L 206.590 27.760 L 199.960 29.460 " stroke-width="1"/>
    <path id="ID0.17879892513155937" fill="#781E29" d="M 59.750 203.560 L 39.580 209 L 30.490 224.190 L 39.210 228.940 L 72.210 231.190 L 85.460 226.940 L 87.990 222.190 L 78.500 201.020 L 59.750 203.560 " stroke-width="1"/>
    <path id="ID0.03283810941502452" fill="#AB483B" d="M 60.080 202.200 L 40.810 207.370 L 32.580 221.060 L 39.460 226.940 L 71.210 229.440 L 83.460 226.190 L 85.760 219.030 L 77.220 199.910 L 60.080 202.200 " stroke-width="1"/>
  </g>
</svg>