<svg version="1.1" xmlns="http://www.w3.org/2000/svg" xmlns:xlink="http://www.w3.org/1999/xlink" width="350.02152" height="348.78044" viewBox="0,0,350.02152,348.78044"><defs><linearGradient x1="60.65232" y1="170.50944" x2="405.85221" y2="170.50944" gradientUnits="userSpaceOnUse" id="color-1"><stop offset="0" stop-color="#a4a4a4"/><stop offset="1" stop-color="#565656"/></linearGradient><radialGradient cx="233.25226" cy="170.50944" r="141.17178" gradientUnits="userSpaceOnUse" id="color-2"><stop offset="0" stop-color="#dcdcdc"/><stop offset="1" stop-color="#5f5f5f"/></radialGradient><linearGradient x1="63.49424" y1="174.08999" x2="381.36372" y2="174.08999" gradientUnits="userSpaceOnUse" id="color-3"><stop offset="0" stop-color="#a4a4a4"/><stop offset="1" stop-color="#565656"/></linearGradient><radialGradient cx="231.52148" cy="175.52004" r="144.92452" gradientUnits="userSpaceOnUse" id="color-4"><stop offset="0" stop-color="#cccccc"/><stop offset="1" stop-color="#464646"/></radialGradient><linearGradient x1="232.90324" y1="165.8825" x2="284.15115" y2="174.69788" gradientUnits="userSpaceOnUse" id="color-5"><stop offset="0" stop-color="#8a5500"/><stop offset="1" stop-color="#ff9d00"/></linearGradient><linearGradient x1="251.725" y1="188.24858" x2="266.3394" y2="142.98748" gradientUnits="userSpaceOnUse" id="color-6"><stop offset="0" stop-color="#ffffff" stop-opacity="0"/><stop offset="1" stop-color="#ffffff"/></linearGradient><linearGradient x1="219.75825" y1="213.20072" x2="130.94134" y2="295.8875" gradientUnits="userSpaceOnUse" id="color-7"><stop offset="0" stop-color="#ffad00" stop-opacity="0"/><stop offset="1" stop-color="#ffad00"/></linearGradient><linearGradient x1="293.95008" y1="300.60132" x2="151.76329" y2="49.94468" gradientUnits="userSpaceOnUse" id="color-8"><stop offset="0" stop-color="#ffffff" stop-opacity="0"/><stop offset="1" stop-color="#ffffff"/></linearGradient><linearGradient x1="110.19599" y1="43.18806" x2="208.02215" y2="165.57723" gradientUnits="userSpaceOnUse" id="color-9"><stop offset="0" stop-color="#ffffff"/><stop offset="1" stop-color="#ffffff" stop-opacity="0"/></linearGradient></defs><g transform="translate(-55.83069,2.09384)"><g data-paper-data="{&quot;isPaintingLayer&quot;:true}" fill-rule="nonzero" stroke-linecap="butt" stroke-linejoin="miter" stroke-miterlimit="10" stroke-dasharray="" stroke-dashoffset="0" style="mix-blend-mode: normal"><path d="M405.85221,170.5061c0,95.16703 -77.42459,172.59994 -172.59994,172.59994c-95.17119,0 -172.59994,-77.43291 -172.59994,-172.59994c0,-95.17119 77.42459,-172.59994 172.59994,-172.59994c95.17535,0 172.59994,77.43291 172.59994,172.59994z" fill="url(#color-1)" stroke="none" stroke-width="1"/><path d="M92.07799,170.51026c0,-77.96842 63.20585,-141.17427 141.17427,-141.17427c77.96842,0 141.17427,63.20589 141.17427,141.17427c0,77.96842 -63.20589,141.17427 -141.17427,141.17427c-77.96842,0 -141.17427,-63.20585 -141.17427,-141.17427z" fill="url(#color-2)" stroke="none" stroke-width="1"/><path d="M381.36372,174.08666c0,95.16703 -71.29467,172.59994 -158.93477,172.59994c-87.63623,0 -158.93477,-77.43291 -158.93477,-172.59994c0,-95.17119 71.29467,-172.59994 158.93477,-172.59994c87.64005,0 158.93477,77.43291 158.93477,172.59994z" fill="url(#color-3)" stroke="none" stroke-width="1"/><path d="M98.689,117.55978c32.011,-73.36116 117.43203,-106.88208 190.79317,-74.87109c73.36116,32.011 106.88208,117.43203 74.87109,190.79317c-32.011,73.36116 -117.43203,106.88208 -190.79317,74.87109c-73.36116,-32.011 -106.88208,-117.43203 -74.87109,-190.79317z" fill="url(#color-4)" stroke="none" stroke-width="1"/><path d="M217.93043,157.42119c6.48348,-23.67581 71.56321,-62.67655 71.56321,-62.67655l41.44187,47.31775c0,0 -34.77587,57.67669 -71.56321,62.67655c-12.39787,1.68502 -34.27992,40.69552 -53.45435,47.98888c-5.07028,1.92858 -25.76254,-10.45159 -27.22273,-11.93636c-9.40293,-9.56122 35.51454,-69.78346 39.23521,-83.37027z" fill="#b3b3b3" stroke="none" stroke-width="0"/><g stroke="none"><g><path d="M284.41954,169.97047c0.19635,15.90031 -11.23689,28.93319 -25.53683,29.10977c-14.29995,0.17658 -26.0515,-12.57001 -26.24785,-28.47032c-0.19635,-15.90031 11.23689,-28.93319 25.53684,-29.10977c14.29995,-0.17658 26.0515,12.57001 26.24785,28.47032z" fill="url(#color-5)" stroke-width="0"/><path d="M263.46626,152.84035c-0.02287,-1.85147 1.45952,-3.37093 3.311,-3.39379c1.85147,-0.02286 3.37093,1.45952 3.39379,3.311c0.02287,1.85147 -1.45951,3.37093 -3.311,3.39379c-1.85147,0.02286 -3.37093,-1.45952 -3.39379,-3.311z" fill="#000000" stroke-width="0.5"/><path d="M265.10497,164.41268c-0.02287,-1.85147 1.45953,-3.37093 3.311,-3.39379c1.85147,-0.02286 3.37093,1.45953 3.39379,3.311c0.02287,1.85147 -1.45951,3.37093 -3.311,3.39379c-1.85147,0.02286 -3.37093,-1.45953 -3.39379,-3.311z" fill="#000000" stroke-width="0.5"/><path d="M253.25104,158.38882c-0.02286,-1.85147 1.45953,-3.37093 3.311,-3.39379c1.85147,-0.02286 3.37093,1.45953 3.39379,3.31101c0.02287,1.85147 -1.45953,3.37093 -3.311,3.39379c-1.85147,0.02286 -3.37093,-1.45953 -3.39379,-3.31101z" fill="#000000" stroke-width="0.5"/></g><path d="M235.39794,158.11896c4.03566,-12.4985 18.48282,-19.15426 30.94146,-15.13147c12.45864,4.02278 21.22343,19.99807 17.18777,32.49658c-0.56714,1.75643 -1.42805,6.14543 -3.29511,9.70315c-0.90202,1.71881 -5.427,7.76747 -10.30691,11.04485c-2.25928,1.51735 -6.2852,1.42635 -7.0228,1.86069c-5.63343,3.31721 -6.85347,-6.62505 -13.55225,-8.78802c-6.37683,-2.05902 -13.18357,-7.33677 -15.90851,-12.92905c-1.54958,-3.18014 -0.84645,-14.47992 0.12086,-15.75174c0.65385,-0.85969 1.83551,-2.50497 1.83551,-2.50497z" data-paper-data="{&quot;index&quot;:null}" fill="url(#color-6)" stroke-width="0"/></g><path d="M333.8117,152.96556c-19.71779,18.31583 -74.85751,-41.04446 -55.13973,-59.36029c19.71779,-18.31583 63.27207,-3.4836 63.27207,-3.4836c0,0 11.58544,44.52806 -8.13234,62.84389z" fill="#4c4c4c" stroke="none" stroke-width="0"/><path d="M275.09634,185.35366c-13.91044,12.63143 -32.59636,14.71168 -41.73618,4.64641c-9.1398,-10.06527 -5.27245,-28.46461 8.63799,-41.09601c13.91044,-12.63143 32.59638,-14.71169 41.7362,-4.64641c9.1398,10.06528 5.27243,28.46459 -8.63801,41.09601z" fill="none" stroke="#4c4c4c" stroke-width="15"/><path d="M158.46309,282.24354c-1.32338,0.65566 -2.81312,0.95718 -4.09668,1.68774c-3.76598,1.41848 -6.64062,3.95381 -10.66151,4.89553c-0.84756,0.19851 -4.68406,0.85715 -5.63249,0.35266c-2.62428,-1.39592 -6.44783,-2.34637 -7.23513,-5.21266c-0.77359,-2.81635 2.01547,-5.53686 3.61042,-7.98356c0.53475,-0.82032 1.69469,-0.98169 2.54752,-1.46289c1.25619,-0.7088 2.49108,-1.28888 3.63484,-2.19831c3.34404,-2.65893 5.56162,-5.85769 8.22861,-9.04488c0.4448,-0.53156 1.07709,-0.88529 1.52189,-1.41685c0.19814,-0.23679 0.38511,-0.4701 0.566,-0.70015c-1.00357,0.77754 -2.0891,1.45605 -3.24488,1.96179c-0.95937,0.4198 -1.91012,0.88967 -2.92608,1.14354c-0.35098,0.08771 -0.738,-0.27304 -1.07579,-0.1435c-0.51202,0.19633 -0.77756,0.80583 -1.27169,1.04363c-0.52485,0.25259 -1.06739,0.43804 -1.6235,0.5715l-0.34559,0.32174c-2.62662,2.44533 -6.73825,2.29836 -9.18359,-0.32825c-2.44533,-2.62662 -2.29836,-6.73825 0.32825,-9.18359l0.58212,-0.54194c0.50133,-0.81263 1.1993,-1.49706 1.78329,-2.25581c0.33422,-0.43422 0.44393,-1.01601 0.78721,-1.44312c1.76709,-2.19866 4.66766,-4.7978 6.90193,-6.49699c2.17786,-1.65628 4.76697,-2.96755 7.06738,-4.46184c2.34878,-2.22455 4.6528,-4.7573 7.26016,-6.67467c1.32898,-0.97729 3.26095,-1.7421 4.26809,-3.1404c0.16556,-0.22986 0.04469,-0.56942 0.12824,-0.84009c0.51619,-1.67223 1.00557,-3.3553 1.61831,-4.9946c0.15684,-0.41963 4.23934,-9.98701 4.40206,-10.29698c2.14732,-4.08996 5.2166,-8.37234 8.3414,-11.77821c0.92367,-1.00675 2.25638,-1.62784 3.04562,-2.74311c0.77982,-1.10196 1.40932,-2.30559 2.19327,-3.4046c0,0 1.71716,-2.3864 4.44659,-2.79378c0.08616,-0.11717 0.17822,-0.23118 0.2766,-0.34176c1.78458,-2.00605 5.18664,-1.75939 7.87113,-1.71042c1.39263,0.0254 2.55215,1.14818 3.71052,1.92163c0.4518,0.30166 0.58572,0.959 1.04301,1.2523c0.65228,0.41836 1.53342,0.38303 2.1778,0.81347c1.20286,0.80351 1.95062,2.14645 3.04737,3.08964c0.89404,0.76886 2.11821,1.07092 3.04642,1.79816c0.68265,0.53486 1.2222,1.23072 1.83329,1.84606c7.61642,8.18108 15.17255,16.35439 23.17789,24.14516c0.99867,0.97191 2.0194,1.92754 3.11782,2.78514c2.87369,2.24368 7.93048,4.60301 8.49501,8.64492c0.32891,2.35489 -1.992,4.3261 -3.18724,6.38162c-1.16204,1.99844 -3.98993,3.08279 -5.38293,4.89677c-0.33374,0.4346 -0.44393,1.01601 -0.7872,1.44311c-0.43908,0.54632 -2.27578,2.23335 -2.98749,2.89593c-0.58841,0.39336 -0.78059,1.18341 -1.22399,1.73511c-0.54329,0.67598 -1.21133,1.24235 -1.84606,1.83329c-1.92367,1.79089 -4.29468,2.76607 -5.9947,4.82749c-0.86146,1.04459 -1.80553,2.87119 -2.61501,3.83168c-0.78166,0.92749 -1.92251,1.51906 -2.66332,2.47949c-2.30987,2.99471 -5.02373,5.45374 -7.80318,8.04136c-2.82639,2.63131 -5.45029,5.14187 -8.73447,7.2051c-2.86432,1.4678 -4.75637,4.31285 -7.30261,6.26143c-3.56702,2.72974 -7.70004,4.83378 -11.22634,7.62349c-0.81536,0.64505 -1.4657,1.48249 -2.28285,2.12528c-1.26107,0.99199 -2.44371,1.34848 -3.4256,2.48682c-3.31042,3.83799 -6.18787,7.93502 -9.91662,11.38523c-0.81226,0.75158 -2.31467,2.26755 -3.53652,2.58219l-1.00291,0.93369c-2.62662,2.44533 -6.73825,2.29836 -9.18359,-0.32826c-1.99175,-2.1394 -2.2637,-5.26398 -0.87674,-7.67092l0.71545,-1.31158l0.18534,0.1011c0.0974,-0.10329 0.1988,-0.20408 0.30419,-0.30221l0.10224,-0.09518l-0.01966,-0.57729c1.06794,-1.02484 1.88049,-2.28659 2.8463,-3.40821c0.62147,-0.72173 1.43571,-1.25858 2.0731,-1.96629c1.41074,-1.5664 2.4546,-3.43789 3.85726,-5.0115c1.37923,-1.54732 2.78264,-2.98701 4.14157,-4.553c1.19307,-1.37487 1.51425,-2.75927 2.59541,-4.35272c0.61535,-0.90691 1.42623,-1.81675 2.25235,-2.74974c-2.21125,0.53972 -4.64151,-0.10027 -6.30275,-1.88466c-0.92796,-0.99677 -1.48262,-2.20738 -1.67011,-3.45963c-0.95478,0.63479 -1.83864,1.41104 -2.86449,1.91929z" fill="url(#color-7)" stroke="none" stroke-width="0.5"/><path d="M97.92813,246.13962c-39.26379,-69.21692 -15.16097,-157.0564 53.83516,-196.19495c68.99615,-39.13856 156.75815,-14.75522 196.02195,54.4617c18.15239,32.00028 41.45017,74.02646 34.34022,107.33486c-8.26895,38.73801 -58.08059,57.91596 -95.17853,78.96004c-35.31502,20.0327 -84.77116,53.62749 -120.89917,42.88313c-34.4565,-10.24726 -48.95265,-53.65588 -68.11964,-87.44477z" data-paper-data="{&quot;index&quot;:null}" fill="url(#color-8)" stroke="none" stroke-width="0"/><path d="M264.78879,28.06886c3.56183,4.45616 1.77107,8.43875 2.65068,12.26326c1.14506,4.9787 4.28989,9.66643 3.82104,14.54617c-0.86061,8.95715 -1.99512,18.71345 -12.13314,34.86381c-12.2739,19.55295 -40.67539,30.14231 -63.8275,46.80002c-26.29454,18.91865 -35.60702,26.8515 -54.00265,36.07844c-6.90412,3.46298 -19.74734,17.39838 -28.48693,17.23453c-21.7262,-0.40733 -30.44313,-8.47906 -41.362,-22.13954c-27.01395,-33.79684 -21.94861,-80.85716 38.74767,-124.52749c60.69629,-43.67033 128.16378,-51.70761 155.17772,-17.91078z" data-paper-data="{&quot;index&quot;:null}" fill="url(#color-9)" stroke="none" stroke-width="0"/></g></g></svg>