<svg version="1.1" xmlns="http://www.w3.org/2000/svg" xmlns:xlink="http://www.w3.org/1999/xlink" width="212.39714" height="236.16722" viewBox="0,0,212.39714,236.16722"><defs><linearGradient x1="794.13043" y1="-215.50444" x2="794.13043" y2="19.74826" gradientUnits="userSpaceOnUse" id="color-1"><stop offset="0" stop-color="#005921"/><stop offset="1" stop-color="#00ff14"/></linearGradient><linearGradient x1="794.13043" y1="-215.50444" x2="794.13043" y2="19.74826" gradientUnits="userSpaceOnUse" id="color-2"><stop offset="0" stop-color="#005921"/><stop offset="1" stop-color="#00ff14"/></linearGradient></defs><g transform="translate(-133.80143,-61.91639)"><g data-paper-data="{&quot;isPaintingLayer&quot;:true}" fill-rule="nonzero" stroke-linejoin="miter" stroke-miterlimit="10" stroke-dasharray="" stroke-dashoffset="0" style="mix-blend-mode: normal"><path d="" fill="url(#color-1)" stroke="#009c42" stroke-width="12.5" stroke-linecap="round"/><path d="" fill="url(#color-2)" stroke="#009c42" stroke-width="12.5" stroke-linecap="round"/><g stroke="none" stroke-linecap="butt"><path d="M346.19857,180c0,65.21578 -47.54672,118.08361 -106.19857,118.08361c-58.65185,0 -106.19857,-52.86783 -106.19857,-118.08361c0,-65.21578 47.54672,-118.08361 106.19857,-118.08361c58.65185,0 106.19857,52.86783 106.19857,118.08361z" fill="#c37700" stroke-width="0"/><path d="M261.13834,108.68977c0,-7.59392 6.15608,-13.75 13.75,-13.75c7.59392,0 13.75,6.15608 13.75,13.75c0,7.59392 -6.15608,13.75 -13.75,13.75c-7.59392,0 -13.75,-6.15608 -13.75,-13.75z" fill="#000000" stroke-width="0.5"/><path d="M267.27256,156.22993c0,-7.59392 6.15608,-13.75 13.75,-13.75c7.59392,0 13.75,6.15608 13.75,13.75c0,7.59392 -6.15608,13.75 -13.75,13.75c-7.59392,0 -13.75,-6.15608 -13.75,-13.75z" fill="#000000" stroke-width="0.5"/><path d="M218.96563,130.9263c0,-7.59392 6.15608,-13.75 13.75,-13.75c7.59392,0 13.75,6.15608 13.75,13.75c0,7.59392 -6.15608,13.75 -13.75,13.75c-7.59392,0 -13.75,-6.15608 -13.75,-13.75z" fill="#000000" stroke-width="0.5"/></g></g></g></svg>