<svg version="1.1" xmlns="http://www.w3.org/2000/svg" xmlns:xlink="http://www.w3.org/1999/xlink" width="34.54619" height="36.84356" viewBox="0,0,34.54619,36.84356"><g transform="translate(-222.69397,-161.94656)"><g data-paper-data="{&quot;isPaintingLayer&quot;:true}" fill="none" fill-rule="nonzero" stroke="none" stroke-width="none" stroke-linecap="none" stroke-linejoin="miter" stroke-miterlimit="10" stroke-dasharray="" stroke-dashoffset="0" font-family="none" font-weight="none" font-size="none" text-anchor="none" style="mix-blend-mode: normal"><path d="M240.75941,162.2369c4.89,0.2077 10.5124,1.0463 13.9917,5.241c2.7579,3.1098 2.2198,8.9468 2.0213,13.5128c-0.2105,4.8564 -0.1811,10.8103 -3.2551,13.7654c-3.7297,3.8417 -9.3978,3.7975 -14.2542,3.7255c-4.5084,-0.0669 -9.8599,-0.4641 -13.2567,-4.2306c-2.8598,-3.0651 -3.1344,-8.8042 -2.9927,-13.5129c0.1555,-5.1563 0.8364,-11.3059 3.9902,-14.7441c3.6168,-3.6201 9.0623,-3.9573 13.7555,-3.7571z" id="ID0.5443468582816422" fill="#5e5e5e" stroke="#000000" stroke-width="0.58067" stroke-linecap="butt"/><g id="ID0.05171704199165106" stroke="#000000"><path d="M249.02661,176.8762c1.2027,0 2.2923,0.4833 3.0814,1.2646c0.789,0.7808 1.2776,1.8596 1.2776,3.0496c0,1.1901 -0.4886,2.2689 -1.2776,3.0497c-0.7891,0.7813 -1.8787,1.2645 -3.0814,1.2645c-1.2027,0 -2.2924,-0.4832 -3.0814,-1.2645c-0.7891,-0.7808 -1.2776,-1.8596 -1.2776,-3.0497c0,-1.19 0.4885,-2.2688 1.2776,-3.0496c0.789,-0.7813 1.8787,-1.2646 3.0814,-1.2646z" id="ID0.37750169076025486" fill="#ffffff" stroke-width="0.76083" stroke-linecap="butt"/><path d="M249.08021,177.4541c0.326,0 0.6211,0.4032 0.8348,1.0552c0.2141,0.6519 0.3463,1.5519 0.3463,2.5448c0,0.993 -0.1322,1.893 -0.3463,2.5449c-0.2137,0.652 -0.5088,1.0552 -0.8348,1.0552c-0.326,0 -0.6212,-0.4032 -0.8349,-1.0552c-0.214,-0.6519 -0.3463,-1.5519 -0.3463,-2.5449c0,-0.9929 0.1323,-1.8929 0.3463,-2.5448c0.2137,-0.652 0.5089,-1.0552 0.8349,-1.0552z" id="ID0.234124637208879" fill="#000000" stroke-width="1.0588" stroke-linecap="round"/></g><g id="ID0.45551702193915844" stroke="#000000"><path d="M231.28551,176.7362c1.3031,-0.0013 2.4841,0.4393 3.3398,1.1525c0.8556,0.7128 1.3859,1.6983 1.387,2.786c0.001,1.0877 -0.5273,2.0743 -1.3816,2.7887c-0.8543,0.7149 -2.0344,1.1578 -3.3376,1.1591c-1.3031,0.0012 -2.4841,-0.4393 -3.3398,-1.1526c-0.8556,-0.7128 -1.3859,-1.6983 -1.3869,-2.786c-0.0011,-1.0877 0.5273,-2.0742 1.3815,-2.7887c0.8543,-0.7149 2.0345,-1.1578 3.3376,-1.159z" id="ID0.37750169076025486" fill="#ffffff" stroke-width="0.72785" stroke-linecap="butt"/><path d="M231.01961,177.1131c0.3532,-0.0003 0.6733,0.3679 0.9054,0.9635c0.2326,0.5956 0.3767,1.4181 0.3776,2.3257c0.0008,0.9075 -0.1417,1.7302 -0.3731,2.3263c-0.2309,0.5961 -0.5503,0.9649 -0.9036,0.9653c-0.3532,0.0003 -0.6733,-0.3679 -0.9054,-0.9635c-0.2325,-0.5957 -0.3767,-1.4181 -0.3776,-2.3257c-0.0008,-0.9075 0.1417,-1.7303 0.3731,-2.3263c0.2309,-0.5961 0.5503,-0.965 0.9036,-0.9653z" id="ID0.234124637208879" fill="#000000" stroke-width="1.01289" stroke-linecap="round"/></g><g fill="#6f6f6f" stroke="none" stroke-linecap="butt"><path d="M236.85191,189.7183c1.3718,0.4217 2.5031,1.1632 3.2234,2.0216c0.7223,0.8576 1.0322,1.8316 0.7597,2.718c-0.2726,0.8865 -1.0761,1.5182 -2.1554,1.822c-1.0781,0.3055 -2.4306,0.2834 -3.8024,-0.1383c-1.3718,-0.4217 -2.5031,-1.1632 -3.2235,-2.0216c-0.7223,-0.8576 -1.0321,-1.8317 -0.7596,-2.7181c0.2725,-0.8864 1.076,-1.5182 2.1553,-1.8219c1.0782,-0.3055 2.4306,-0.2835 3.8025,0.1383z" data-paper-data="{&quot;origPos&quot;:null}" id="ID0.33818667102605104" stroke-width="1.47755"/><path d="M230.48931,166.8673c1.1249,-0.5663 2.3222,-0.728 3.3455,-0.532c1.0246,0.1953 1.8758,0.7495 2.3109,1.6139c0.4351,0.8644 0.3732,1.8782 -0.0802,2.8175c-0.4522,0.9387 -1.2952,1.8041 -2.4201,2.3703c-1.1249,0.5663 -2.3222,0.728 -3.3456,0.532c-1.0245,-0.1953 -1.8757,-0.7495 -2.3108,-1.6139c-0.4351,-0.8644 -0.3733,-1.8782 0.0801,-2.8175c0.4522,-0.9387 1.2953,-1.8041 2.4202,-2.3703z" data-paper-data="{&quot;origPos&quot;:null}" id="ID0.5287177078425884" stroke-width="1.36296"/><path d="M240.14001,174.94c0.9108,0 1.7352,0.3828 2.3328,1.002c0.5976,0.6192 0.9672,1.4748 0.9672,2.418c0,0.9432 -0.3696,1.7988 -0.9672,2.418c-0.5976,0.6192 -1.422,1.002 -2.3328,1.002c-0.9108,0 -1.7352,-0.3828 -2.3328,-1.002c-0.5976,-0.6192 -0.9672,-1.4748 -0.9672,-2.418c0,-0.9432 0.3696,-1.7988 0.9672,-2.418c0.5976,-0.6192 1.422,-1.002 2.3328,-1.002z" data-paper-data="{&quot;origPos&quot;:null}" id="ID0.7122737374156713" stroke-width="1.2"/><path d="M226.64781,185.5465c0.5309,0 1.0118,0.1972 1.3603,0.5147c0.3486,0.3174 0.5647,0.7565 0.5647,1.2414c0,0.485 -0.2161,0.924 -0.5647,1.2415c-0.3485,0.3174 -0.8294,0.5147 -1.3603,0.5147c-0.5309,0 -1.0118,-0.1973 -1.3603,-0.5147c-0.3486,-0.3175 -0.5647,-0.7565 -0.5647,-1.2415c0,-0.4849 0.2161,-0.924 0.5647,-1.2414c0.3485,-0.3175 0.8294,-0.5147 1.3603,-0.5147z" data-paper-data="{&quot;origPos&quot;:null}" id="ID0.7883478063158691" stroke-width="1.35088"/><path d="M240.35861,163.9612c0.9658,0.0195 1.837,0.2162 2.464,0.519c0.628,0.3028 1.0118,0.7106 1.0028,1.1516c-0.0089,0.4409 -0.4089,0.8328 -1.0487,1.1099c-0.6387,0.2772 -1.5172,0.4384 -2.483,0.4188c-0.9658,-0.0196 -1.837,-0.2162 -2.464,-0.519c-0.6279,-0.3028 -1.0118,-0.7107 -1.0028,-1.1516c0.0089,-0.4409 0.4089,-0.8328 1.0487,-1.1099c0.6387,-0.2772 1.5172,-0.4384 2.483,-0.4188z" data-paper-data="{&quot;origPos&quot;:null}" id="ID0.8392290938645601" stroke-width="1"/><path d="M249.16311,170.906c0.3536,0.442 0.5157,0.968 0.4929,1.4614c-0.022,0.4927 -0.2297,0.9534 -0.6178,1.2639c-0.3881,0.3105 -0.8832,0.412 -1.3687,0.3253c-0.4864,-0.0861 -0.9639,-0.3597 -1.3175,-0.8017c-0.3536,-0.4419 -0.5157,-0.9679 -0.4929,-1.4613c0.022,-0.4927 0.2297,-0.9534 0.6178,-1.2639c0.3881,-0.3105 0.8832,-0.412 1.3687,-0.3253c0.4864,0.0861 0.9639,0.3597 1.3175,0.8016z" data-paper-data="{&quot;origPos&quot;:null}" id="ID0.4541481975466013" stroke-width="1"/><path d="M254.75941,185.3514c0.3044,0.1119 0.461,0.5419 0.4643,1.1472c0.0057,0.6043 -0.1395,1.3828 -0.437,2.1922c-0.2975,0.8094 -0.691,1.4966 -1.0866,1.9534c-0.3945,0.4591 -0.7923,0.6854 -1.0967,0.5736c-0.3043,-0.1119 -0.4609,-0.5419 -0.4642,-1.1473c-0.0057,-0.6042 0.1395,-1.3827 0.437,-2.1921c0.2974,-0.8094 0.6909,-1.4967 1.0865,-1.9534c0.3946,-0.4591 0.7924,-0.6855 1.0967,-0.5736z" data-paper-data="{&quot;origPos&quot;:null}" id="ID0.3690975047647953" stroke-width="1.81159"/><path d="M247.76731,189.9385c0.7558,0 1.4404,0.2807 1.9365,0.7326c0.4962,0.452 0.8039,1.077 0.8039,1.7674c0,0.6903 -0.3077,1.3153 -0.8039,1.7673c-0.4961,0.4519 -1.1807,0.7327 -1.9365,0.7327c-0.7558,0 -1.4404,-0.2808 -1.9365,-0.7327c-0.4962,-0.452 -0.8039,-1.077 -0.8039,-1.7673c0,-0.6904 0.3077,-1.3154 0.8039,-1.7674c0.4961,-0.4519 1.1807,-0.7326 1.9365,-0.7326z" data-paper-data="{&quot;origPos&quot;:null}" id="ID0.7883478063158691" stroke-width="1.92308"/></g></g></g></svg>