<svg version="1.1" xmlns="http://www.w3.org/2000/svg" xmlns:xlink="http://www.w3.org/1999/xlink" width="454.92487" height="461.05168" viewBox="0,0,454.92487,461.05168"><g transform="translate(-63.43956,106.61425)"><g data-paper-data="{&quot;isPaintingLayer&quot;:true}" fill-rule="nonzero" stroke="none" stroke-width="0.5" stroke-linecap="butt" stroke-linejoin="miter" stroke-miterlimit="10" stroke-dasharray="" stroke-dashoffset="0" style="mix-blend-mode: normal"><path d="M230.42021,283.05714c-0.53804,0.57708 -1.04487,1.19281 -1.72356,1.57601c-13.02923,7.35661 -28.23251,5.86687 -42.57164,5.86687c-7.93542,0 -15.34446,0.14135 -22.57164,-3.86687c-0.8245,-0.45727 -1.20916,-1.48672 -2,-2c-0.33968,-0.22046 -0.84824,0.0935 -1.21191,-0.08464c-2.56701,-1.25745 -5.2486,-2.4023 -7.48898,-4.17752c-2.15296,-1.70596 -3.62882,-5.0478 -5.91749,-6.9278c-3.64094,-2.9908 -7.85598,-5.76843 -10.44312,-9.87153c-2.10433,-3.33739 -2.2359,-6.981 -5.2057,-9.73281c0,0 -8.83884,-8.83883 0,-17.67767c1.08467,-1.08467 2.16933,-1.90312 3.23766,-2.50436c-0.4053,-5.07233 0.18931,-10.41288 1.59968,-15.15165c0.8136,-2.77841 1.06747,-5.66889 1.6629,-8.50744c0.4106,-1.9574 -0.32545,-4.02666 0,-6c0.59428,-3.60336 2.31718,-7.46195 3.48005,-10.95056c0.55509,-1.66528 2.25252,-6.86168 2.7863,-7.84849c0.79296,-1.46595 2.15411,-2.56394 3,-4c1.58555,-2.69178 2.26433,-5.86567 3.93171,-8.50754c0.1587,-0.25145 0.35763,-0.5828 0.58478,-0.84796c-0.149,-2.6744 1.24854,-7.28306 1.55425,-8.33801c1.67864,-5.79265 5.45639,-12.03473 8.16267,-17.34399c1.21627,-0.53478 2.67989,-0.69522 3.64881,-1.60434c0.45369,-0.42568 -0.22768,-1.30874 0.0495,-1.8657c0.29203,-0.58682 1.10431,-0.74587 1.50739,-1.26276c1.2964,-1.66246 0.90357,-4.19936 2,-6c0.52229,-0.85774 4.37947,-4.95912 5.7943,-6.26719c2.13089,-1.9701 4.61207,-3.62287 7.26719,-4.7943c0.10283,-0.04537 -0.33663,-0.11731 -0.26719,-0.2057c0.58244,-0.74139 1.32846,-1.33823 2,-2c2.14691,-2.11568 4.53303,-3.97957 6.91397,-5.82794c6.11511,-4.74727 9.9939,-11.67763 17.12353,-15.40546c4.77789,-2.49819 8.1242,-1.71348 12.76964,-3.05454c3.82899,-0.95725 8.15858,-2.65912 12.02942,-3.21182c7.06522,-1.0088 14.61739,-0.05511 21.52957,0.93225c2.16549,0.30933 4.32227,0.67932 6.47499,1.06775c1.52051,0.27436 3.1664,-0.14871 4.62002,0.37494c5.86762,2.11375 13.68577,7.93135 17.01083,13.39201c2.43811,4.00404 2.45784,9.05621 4.59581,13.07975c1.30874,2.46297 2.68716,4.91401 3.6296,7.53905c1.42619,4.77041 1.68261,9.16591 2.48005,13.95056c0.17329,1.03975 0.8486,1.95684 1,3c0.55876,3.84999 -0.62628,8.24228 0,12c0.28141,1.68848 1.12689,3.29085 1.16141,5.00228c0.02125,1.05388 -0.95747,1.94676 -1,3c-0.01752,0.43409 0.76718,0.56918 0.83859,0.99772c0.43832,2.62992 -0.54527,6.4006 0,9c1.73352,8.26397 3.04872,15.49674 0.51995,23.95513c-0.60417,1.21943 -0.27089,2.71153 -0.51995,4.04944c-0.93349,5.01451 -2.95287,11.92115 -5.10965,16.48961c-0.44572,0.94413 -1.37286,1.61123 -1.79751,2.56502c-0.33563,0.75384 -0.19555,1.64673 -0.42993,2.43793c-0.60073,2.02789 -1.59462,3.91012 -2.60126,5.78253c-0.30809,1.9245 -0.66517,3.83481 -1.06164,5.7249c-0.4106,1.9574 0.32545,4.02666 0,6c-0.28027,1.6994 -0.9867,3.30037 -1.48005,4.95056c-0.7418,1.87293 -1.21645,3.8752 -2.22541,5.6188c-0.86681,1.49795 -2.71031,2.33477 -3.40419,3.92025c-0.58546,1.33774 -0.80365,2.85303 -1.59581,4.07975c-2.8806,4.4608 -7.61686,7.91889 -11.70827,11.09513c-1.92269,1.49262 -3.26215,3.72055 -5.35322,4.96636c-3.27639,1.95198 -10.6015,4.24401 -14.56936,4.70546c-3.32903,0.38716 -6.68678,-0.52598 -10.00456,-1c-0.88816,-0.12689 -1.79146,-0.21343 -2.70252,-0.28147zM171.73393,220.43037c-0.3466,0.15221 -0.71063,0.29081 -1.09297,0.41405c0.31194,1.05059 0.6402,2.09629 0.97805,3.13908c0.0007,-0.3849 0.00272,-0.71982 0.006,-0.98349c0.01083,-0.87014 0.04707,-1.72548 0.10892,-2.56965zM239.546,119.08192c0.07348,0.16342 0.14562,0.32712 0.21641,0.49105c0.77445,-0.17556 1.60316,-0.30637 2.49256,-0.4253c-0.90553,-0.05342 -1.80936,-0.07867 -2.70897,-0.06575z" fill="#00f8ff"/><path d="M296.97839,38.9403c0.00126,0.00468 0.00297,0.00887 0.00516,0.01256zM283.77992,51.17081c0.41329,-0.07711 0.84841,-0.17462 1.3134,-0.29758c1.17411,-0.31047 2.33518,-0.69887 3.53685,-0.87472c0.1241,-0.01816 -0.17244,0.44951 -0.0768,0.36836c0.45565,-0.38657 0.93089,-0.78629 1.43098,-1.14382l-1.62968,0.54323c-1.23314,0.44335 -2.55611,0.69835 -3.93423,0.73031c-0.20783,0.22889 -0.42104,0.45382 -0.64052,0.67422zM256.64029,34.49767c-0.07476,0.00024 -0.14898,0.00077 -0.22267,0.0016c0.07473,-0.00039 0.14896,-0.00091 0.22267,-0.0016zM198.15338,100.22118c-2.79905,-0.22843 -6.56874,0.27884 -9.02837,0.27884c-4.02526,-0.02842 -8.0198,-0.70521 -12.031,-1.04259c-2.15787,-0.1815 -4.34542,0.20018 -6.49628,-0.05106c-2.56778,-0.29994 -4.91746,-1.69028 -7.47499,-2.06775c-9.15336,-1.35097 -17.62467,-3.72015 -24.92258,-9.67182c-1.44495,-1.1784 -3.22765,-1.9829 -4.44611,-3.39424c-1.23815,-1.43415 -1.75024,-3.36652 -2.76955,-4.96365c-1.17079,-1.83449 -3.37875,-2.86763 -4.49261,-4.73724c-1.66141,-2.78866 -2.0272,-6.16781 -3.09043,-9.23481c-1.48348,-4.27925 -5.85386,-9.04075 -8.34867,-12.5355c-0.72271,-1.96162 -2.95198,-7.70133 -3.26636,-9.79906c-0.87583,-5.84414 0.96386,-12.25574 0,-18c-0.6378,-3.80108 -1.5713,-7.60414 -2.06775,-11.47499c-0.2343,-1.82685 0.44588,-3.72244 0.06775,-5.52501c-1.0898,-5.19526 -1.87028,-11.11098 -1.06775,-16.52957c1.40069,-9.45739 6.62829,-18.13681 12.2021,-25.69237c2.77455,-4.17516 5.33853,-8.8514 8.53747,-12.7052c5.40261,-6.5086 12.27759,-13.31915 18.74192,-18.74191c0.69703,-0.58473 1.69609,-0.76584 2.33467,-1.41389c3.09314,-3.13908 5.91343,-7.42078 10.01855,-9.55246c2.37795,-1.23481 4.97535,-2.03424 7.56936,-2.70546c0.85169,-0.22038 1.78549,0.27959 2.63844,0.06414c1.2516,-0.31615 2.29898,-1.19436 3.51798,-1.61921c5.83502,-2.03366 11.35175,-4.43769 16.57178,-7.91771c11.7681,-5.77218 25.2245,-7.40242 37.71225,-11.17042c4.44876,-1.34235 8.88913,-3.68994 13.55955,-4.3568c1.56813,-0.22391 10.43644,-0.20651 12.00456,0c0.65205,0.08588 1.1169,0.87662 1.77444,0.86275c2.59113,-0.05468 5.64756,-1.53074 8.221,-1.86275c5.84713,-0.75436 12.58929,-0.44205 18.47499,-0.06775c4.96546,-1.24137 9.395,-1.09365 14.52729,-1.09365c7.33333,0 14.66667,0 22,0c4.84758,0 11.62991,-0.72544 15.89823,1.47907c2.48563,1.28378 3.82447,4.08435 5.76855,6.09607c4.14006,4.28411 10.64958,6.69732 14.26706,11.33744c3.0333,3.89079 4.49433,10.33413 4.41267,15.25365c0.67228,0.91553 1.25221,1.89653 1.88244,2.84188c0.33333,1 0.60591,2.02235 1,3c0.64703,1.60517 2.53738,2.4223 3.40419,3.92025c1.87482,3.23992 4.0048,9.80552 4.70546,13.56936c0.54691,2.93789 0.50811,6.04863 1,9c0.79772,4.78631 2.0609,9.01938 2.16141,14.00228c0.03312,1.64232 -0.02301,7.04873 -0.16141,8.00228c-0.24749,1.70523 -1.29438,3.22919 -1,4.99544c0.28141,1.68849 1.16141,3.2905 1.16141,5.00228c0,2.93511 -1.16141,5.06716 -1.16141,8.00228c-2.05839,6.88503 -3.98482,13.97527 -7.52722,20.27181c-0.38791,0.68951 -4.79748,7.21982 -5.1446,7.65078c-1.22313,1.51854 -4.49396,3.67392 -5.52625,5.38402c-0.77038,1.27622 -1.16496,2.76512 -2,4c-0.80547,1.19116 -2.38774,1.84389 -2.91159,3.18301c-1.03215,2.63849 -2.02839,5.31296 -3.41757,7.78219c-0.90974,1.61703 -2.54676,2.79786 -3.26288,4.50946c-0.67117,1.60415 -0.0306,3.47766 -0.0485,5.21646c-0.038,3.69152 -0.584,7.41581 -1.64146,10.95284c-0.7418,1.87293 -1.13091,3.92758 -2.22541,5.6188c-1.67402,2.5867 -4.61561,4.0885 -6.7943,6.2672c-0.56398,0.56397 -0.63129,1.49976 -1.17206,2.08602c-1.56791,1.69978 -3.20525,3.37563 -5.09513,4.70828c-0.86146,0.60746 -2.0356,0.57451 -3,1c-0.10284,0.04537 0.35287,0.13295 0.2672,0.2057c-1.94909,1.6552 -3.73632,3.63217 -6.05529,4.70966c-1.76389,0.81958 -3.8738,0.40984 -5.78127,0.7901c-2.53535,0.50543 -4.92121,1.66568 -7.47499,2.06775c-0.19886,0.03131 -3.54736,-0.07749 -3.95565,0.22679c-3.11582,2.32207 -7.14812,5.08489 -10.94934,6.33052c-1.46825,0.48113 -3.09384,0.13405 -4.62002,0.37494c-3.10644,0.49034 -5.68459,2 -9,2c-3.37997,1.12665 -6.73395,0.31489 -10,1c-5.72445,1.20081 -12.0607,1.76684 -18.00456,1c-1.04543,-0.13487 -1.96044,-0.82556 -3,-1c-3.45859,-0.58034 -7.45613,0.51434 -11,0c-1.04316,-0.1514 -1.96836,-0.7836 -3,-1c-1.63127,-0.34219 -3.33094,0.16141 -4.99772,0.16141c-4.27875,0 -8.84448,-0.5637 -12.9683,0.62678c0,0 -9.8321,2.45803 -14.00333,-5.90561z" fill="#00eaff"/><path d="M515.90364,293.48632c0.62571,-1.27103 1.46101,-2.4203 2.4608,-3.40272c-0.80323,1.14681 -1.62303,2.28166 -2.4608,3.40272z" fill="#00eaff"/><path d="M357.81425,10.95795c-0.23316,-4.27986 2.42154,-14.46702 2.8716,-18.18966c0.37911,-3.13581 -0.06083,-6.59789 -0.06083,-9.76828c0,-6 0,-12 0,-18c0,-2 0,-4 0,-6c0,-0.28319 -0.04941,-0.58341 -0.10625,-0.88618c-0.68737,-0.83436 -1.31208,-1.73829 -2.02688,-2.54218c-0.12779,-4.25169 -1.94876,-8.92652 -1.62477,-13.0653c-0.21598,-0.48497 -0.41685,-1.00214 -0.60063,-1.55349c-3.95285,-11.85854 7.90569,-15.81139 7.90569,-15.81139c5.31419,-1.58876 10.35971,-2.20193 15.95513,-1.48005c1.04543,0.13487 1.95391,0.87041 3,1c1.49706,0.18546 3.0274,-0.2487 4.52501,-0.06775c2.72889,0.32972 5.27583,1.63332 8,2c1.26817,0.1707 2.59784,-0.189 3.83656,0.13189c5.7194,1.48165 10.13295,4.4752 15.4197,6.72596c8.07873,3.43941 19.6022,9.12152 24.09395,17.38976c1.11292,2.04861 1.416,4.4426 2.124,6.66389c1.47036,4.41107 1.95699,8.42821 2.40484,12.96755c0.31487,3.1915 2.41372,6.38092 2.93225,9.52501c1.3083,7.93276 0.16141,16.96274 0.16141,25.00228c0,5.64308 0.93167,12.47119 -0.16141,18.00228c-1.14848,5.81149 -4.48807,10.19801 -7.19807,15.3066c-2.88196,2.97919 -6.88355,7.19169 -10.56889,9.32426c-4.93268,2.85435 -11.11126,4.00464 -16.56936,4.70546c-2.01846,0.25917 -3.81793,2.1574 -5.51038,2.89035c-2.08731,0.90395 -4.25814,1.66866 -6.48962,2.10965c-4.28839,0.84748 -11.68671,0.62667 -16.00456,0c-1.04316,-0.1514 -1.95606,-0.85404 -3,-1c-3.70787,-0.51843 -7.7558,0.55117 -11.52501,0.06775c-1.83406,-0.23522 -3.62736,-1.0237 -5.47271,-0.90635c-5.26909,-0.17001 -10.95099,-0.88789 -15.95285,-2.64146c-1.90104,-0.66647 -4.12679,-0.87186 -5.61879,-2.2254c-3.05322,-2.76989 -6.52756,-5.77912 -7.59397,-9.76123c-2.54805,-9.51472 1.27106,-9.11552 3.93667,-14.3638c0.66126,-1.30194 0.80365,-2.85303 1.59581,-4.07974c1.07961,-1.67186 6.35135,-7.02017 8.06149,-8.0615c2.79932,-1.70454 5.93967,-2.76614 9.26088,-3.40893z" fill="#00ddff"/><path d="M190.40393,-75.26906c0.24793,1.34794 0.56103,2.77084 1.05967,4.26679c0.12692,3.93357 -0.65091,9.1208 0,13c0.73296,4.36816 1.70121,8.6598 1.10057,13.234c-0.56865,4.33048 -2.1373,8.47973 -3.5455,12.61415c-1.07899,3.16788 -2.03412,6.93412 -2.55507,10.15641c-0.20607,1.27462 0.17067,2.62504 -0.17299,3.86963c-0.39677,1.43694 -1.67317,2.54556 -2,4c-0.30212,1.34447 0.4205,2.77479 0.17299,4.13037c-0.44006,2.41019 -1.61927,4.63242 -2.20719,7.01087c-0.99385,4.02064 -1.0637,8.02021 -1.79281,11.98913c-0.2661,1.44851 -1.9923,6.4795 -2.60128,8.29719c-3.53982,8.84955 -7.10012,18.50706 -13.89848,25.53937c-1.11873,1.15722 -2.66712,1.81006 -3.91397,2.82794c-2.3972,1.95698 -4.6385,4.23278 -7.43296,5.56217c-4.99194,2.37477 -9.22583,2.27106 -14.49189,2.27106c-6.62118,0 -12.83309,-0.45885 -19.05692,-3.06857c-1.25434,-0.52596 -2.22009,-1.59088 -3.43497,-2.20249c-3.5552,-1.78979 -8.2746,-2.45062 -11.66684,-4.35144c-1.79761,-1.00728 -3.12007,-2.69244 -4.6801,-4.03866c-3.24874,-3.5061 -7.84745,-5.8354 -11.24183,-9.24865c-1.05438,-1.06025 -1.65849,-2.49256 -2.58611,-3.66533c-1.46222,-1.84865 -3.4809,-3.19781 -5,-5c-3.23538,-3.83828 -6.05621,-7.91116 -9,-12c-1.25468,-1.7427 -3.03724,-3.16696 -3.88172,-5.14132c-0.76489,-1.78829 -0.47034,-3.86272 -0.7901,-5.78126c-0.36994,-2.21965 -2.28026,-3.94753 -2.82702,-6.13037c-1.17728,-4.70017 -0.11606,-9.37836 0.82702,-13.87419c0.62359,-2.97277 -0.02819,-5.91543 1,-9c-0.93353,-5.77054 1.65506,-14.55978 4.70546,-19.56936c1.26591,-2.07896 3.47374,-3.43053 4.96636,-5.35322c1.89392,-2.43962 4.11077,-4.60192 6,-7c1.89668,-2.40754 3.11914,-5.39246 5.39424,-7.44611c1.40644,-1.26954 3.39453,-1.70764 4.96365,-2.76955c2.65699,-1.79812 4.98894,-4.77683 7.73724,-6.49261c0.89414,-0.55822 2.07938,-0.48661 3,-1c0.35497,-0.19795 0.30921,-0.80728 0.64678,-1.03364c2.34574,-1.57296 4.67293,-3.26646 7.30256,-4.29687c1.92879,-0.75579 4.23114,-0.20392 6.12745,-1.03785c0.81264,-0.14331 1.63907,-0.22314 2.43792,-0.42993c1.52721,-0.39534 2.11986,-2.41158 3.48528,-3.2017c1.42637,-0.82538 8.64231,-3.38765 10.56936,-3.70546c1.97334,-0.32545 4.0426,0.4106 6,0c1.03164,-0.2164 1.95457,-0.86513 3,-1c4.50294,-0.58093 11.50741,-0.64212 16.00456,0c2.24559,0.32063 4.2729,1.66117 6.52501,1.93225c1.15025,0.13845 2.33188,-0.12076 3.47499,0.06775c2.00057,0.3299 4,0.66666 6,1c1.34305,0.22384 2.65362,1.05603 3.99772,0.83859c0,0 12.5,0 12.5,12.5c0,0.98605 -0.07779,1.89431 -0.22108,2.73093z" fill="#00ddff"/><path d="M195.62501,-31.99999c0,-6.90356 5.59644,-12.5 12.5,-12.5c6.90356,0 12.5,5.59644 12.5,12.5c0,6.90356 -5.59644,12.5 -12.5,12.5c-6.90356,0 -12.5,-5.59644 -12.5,-12.5z" fill="#ffffff"/><path d="M292.62501,-28.99999c0,-6.90356 5.59644,-12.5 12.5,-12.5c6.90356,0 12.5,5.59644 12.5,12.5c0,6.90356 -5.59644,12.5 -12.5,12.5c-6.90356,0 -12.5,-5.59644 -12.5,-12.5z" fill="#ffffff"/><path d="M203.62501,-30.99999c0,-2.48528 2.01472,-4.5 4.5,-4.5c2.48528,0 4.5,2.01472 4.5,4.5c0,2.48528 -2.01472,4.5 -4.5,4.5c-2.48528,0 -4.5,-2.01472 -4.5,-4.5z" fill="#000000"/><path d="M299.62501,-27.99999c0,-2.48528 2.01472,-4.5 4.5,-4.5c2.48528,0 4.5,2.01472 4.5,4.5c0,2.48528 -2.01472,4.5 -4.5,4.5c-2.48528,0 -4.5,-2.01472 -4.5,-4.5z" fill="#000000"/><path d="M220.10009,70.01247l-1.24415,-2.58944c-0.66667,-2 -1.33333,-4 -2,-6c0,0 -0.99444,-2.98331 1.17321,-4.79341c-0.47123,-0.94677 -0.95695,-1.88354 -1.44822,-2.82174c-1.74698,2.30897 -3.51421,4.58343 -5.60296,6.67217c-3.41204,2.25574 -7.00016,4.27667 -11.13213,4.96185c-0.98813,0.16386 -1.99758,0.07548 -3.00647,-0.00945c0.2047,2.91407 0.50553,5.77388 0.66917,8.69954c1.02762,0.55616 2.01796,1.60177 2.10958,3.56755c1.0188,0.01135 2.01846,-0.0252 2.95707,-0.16581c1.3592,-0.20362 2.63834,-0.81356 4,-1c1.92506,-0.26358 3.91619,0.36567 5.829,0.02439c4.84544,-0.86451 9.01887,-1.92128 12.65171,-4.11738c-3.30388,0.87561 -4.95582,-2.42826 -4.95582,-2.42826zM231.94303,65.81803c4.53111,-3.02074 7.41969,-7.78707 10.43775,-12.31417c1.19139,-1.78708 2.74631,-3.36626 3.62891,-5.32434c0.81346,-1.80468 0.33373,-3.95015 0.67342,-5.90033c0.32956,-1.89201 1.44852,-3.58752 1.89102,-5.44911c-1.30221,-0.83777 -1.73441,-2.2657 -1.87786,-3.12126c-0.57162,-0.72049 -1.15759,-1.42083 -1.93705,-1.88088c-4.36596,-2.57685 -10.09765,-2.97403 -15.23622,-3.78801c-0.12497,1.22721 0.20517,2.53591 -0.24053,3.68216c-0.40518,1.04203 -1.7423,1.4947 -2.24156,2.49507c-0.61373,1.22972 -0.38536,2.77073 -1,4c-0.42164,0.84327 -1.56843,1.16176 -2,2c-0.84495,1.64116 -0.89706,3.60813 -1.38184,5.39092c0.82862,1.75976 1.58997,3.57808 2.50836,5.41485c1.76759,3.53517 3.17906,6.40382 4.39947,10.25626l0.05811,3.72082c0,0 0,1.63184 -0.98268,2.93017c0.044,0.66656 -0.0385,1.4296 -0.41638,2.16245c1.31502,-1.18068 2.55132,-2.58586 3.71707,-4.27461zM192.12501,55.50001c1.40859,0 2.37626,0.44092 3.04103,1.04672c1.08623,0.08548 2.17379,0.19023 3.23815,0.01139c2.4325,-0.40874 4.86855,-1.685 6.86787,-3.03815c2.52005,-2.52005 4.44357,-5.57838 6.60979,-8.40288c-0.42653,-0.46732 -2.85469,-3.38319 0.06118,-6.29906c1.31042,-1.31042 2.62085,-1.54151 3.70902,-1.36002c0.12857,-0.58138 0.29839,-1.14643 0.55706,-1.67515c0.41433,-0.84689 1.57836,-1.15673 2,-2c0.61464,-1.22927 0.3843,-2.77126 1,-4c0.34562,-0.68975 1.45927,-0.7938 1.75844,-1.50493c0.26096,-0.6203 -0.38805,-1.33381 -0.28444,-1.99874c0.3246,-2.08305 1.67477,-3.91705 2,-6c0.15427,-0.98803 -0.1644,-2.01361 0,-3c0.46645,-2.79869 1.08632,-5.02772 0.90149,-7.51921c-0.64021,0.09171 -1.30908,0.24722 -2.03657,0.50911l-1.41056,0.75585c0,0 -4.02492,2.01246 -6.03738,-2.01246c-2.01246,-4.02492 2.01246,-6.03738 2.01246,-6.03738l2.58944,-1.24415c2.40559,-0.76206 4.44989,-0.74396 6.59993,-0.85181c0.12746,-0.05226 0.26073,-0.10174 0.40007,-0.14819c1.05087,-0.35029 1.92929,-0.35567 2.65648,-0.16472c0.01523,-0.00268 0.03047,-0.00537 0.04572,-0.0081c2.23261,-0.39833 4.45302,-1.04104 6.72082,-1.05811c2.79287,-0.02102 6.49772,0.55436 9.27918,0.05811c3.2333,-0.57687 8.15085,-2.4332 11.4429,-0.71556c1.85371,0.96718 2.95692,2.95692 4.43538,4.43538c0.61214,8.43863 0.72624,17.16547 -0.71556,25.4429c-0.36177,2.07691 -1.67477,3.91705 -2,6c-0.15427,0.98803 0.17237,2.01497 0,3c-0.36339,2.07663 -1.67386,3.91719 -2,6c-0.42324,2.70293 -0.27567,5.5737 -1.32658,8.09967c-0.16792,0.40361 -3.91542,5.99216 -4.37109,6.67566c-3.29711,4.94567 -6.59913,10.37709 -11.56225,13.68583c-5.51277,8.65157 -14.91378,11.7568 -24.46116,13.25991c-2.03199,0.31991 -4.13668,-0.28036 -6.171,0.02439c-4.66278,0.69852 -8.79424,1.03372 -13.54982,1.03372c-1.75983,0 -3.54671,-0.36721 -5.27918,-0.05811c-2.64862,0.47256 -5.44273,1.62077 -8.02485,0.86502c-3.338,-0.97698 -5.7202,-3.96323 -9.119,-5.03784c-0.97529,-0.3251 -6.45999,-2.12147 -6.94277,-2.44115c-6.72461,-4.45282 -8.44424,-15.9948 -1,-20.65586c4.1468,-2.59644 9.73459,-1.67207 14.36579,-1.67207c3.13263,0 6.85911,0.53176 10.07728,0.22069c0.56734,-1.11515 1.69226,-2.22069 3.92272,-2.22069zM184.12501,66.50001c-3.9991,0 -8.00117,0.04401 -12,0c-1.45424,-0.01601 -2.34823,-0.29974 -3.63421,0.32793c-1.44752,0.70652 -0.46205,1.74923 -0.09672,2.74905c1.26564,3.46374 2.45217,2.92002 6.15395,4.15395c3.47642,1.19986 5.72445,3.48504 8.881,4.96216c1.24811,0.58406 2.61392,-0.92067 3.97515,-1.13498c0.12265,-0.01931 0.5864,-0.03249 1.21875,-0.04143c-0.03228,-3.79776 -0.43517,-7.46349 -0.71902,-11.19523c-1.19881,0.11367 -2.43271,0.17855 -3.77891,0.17855zM249.4908,24.17208c0.19185,0.11601 0.76921,0.65002 1.46529,1.32168c0.25054,-1.67886 0.48431,-3.36028 0.70264,-5.04358c0.54838,-4.22812 -0.7111,-8.75181 0.1276,-12.95062c-0.89963,0.21434 -2.87886,-0.06866 -2.94049,-0.05766c-2.23261,0.39833 -4.45304,1.0385 -6.72082,1.05811c-2.95349,0.02554 -6.39111,-0.57339 -9.27918,-0.05811c-0.14117,0.02519 -0.28019,0.059 -0.41764,0.09902c0.39571,3.62904 0.07452,7.25985 -0.48381,10.89555c5.92555,1.07662 12.34327,1.58929 17.54641,4.7356z" fill="#00c2ff"/><path d="M285.31341,49.57932c-0.41368,-0.6303 -0.6884,-1.46744 -0.6884,-2.57931c0,-4.5 4.5,-4.5 4.5,-4.5c3.09019,0 6.67744,-0.42103 9.72082,0.05811c1.04127,0.16393 1.96229,0.81486 3,1c5.32191,0.94952 12.51023,-1.17819 14.6588,6.40801c0.31319,1.10581 -1.7569,8.02709 -2.55169,9.39968c-0.47244,0.8159 -1.49924,1.20117 -2,2c-0.7358,1.17378 -0.66637,2.83661 -1.64595,3.81619c-0.97958,0.97958 -2.63637,0.91988 -3.81619,1.64595c-1.0003,0.61559 -1.53958,1.92898 -2.64371,2.32953c-3.28711,1.19246 -10.18319,0.63976 -13.08787,-1.32953c-1.54196,-1.04541 -2.52778,-2.73724 -3.79167,-4.10585c-0.04982,-1.13935 0.21271,-2.33664 -0.14946,-3.41805c-0.38167,-1.13964 -1.691,-1.83855 -2,-3c-0.51281,-1.92753 -0.37641,-5.20018 0.49532,-7.72472z" fill="#000000"/><path d="M140.94142,249.13282c0.33078,0.23619 0.55873,0.64 0.79027,1.02281c0.37608,0.3054 0.73733,0.62836 1.08251,0.96762c3.15768,0.31196 6.7002,-3.3321 10.44207,-2.57482c4.21383,0.8528 6.97505,3.67411 10.71939,5.32688c1.80574,0.79706 4.1291,1.02462 5.96937,1.48468c4.66052,1.16513 9.44834,3.90615 13.9285,5.76189c9.84183,4.07662 17.18857,-1.56023 23.59524,11.25313c1.89025,3.78049 1.65893,8.22428 2.31169,12.24675c1.45681,8.97726 0.65044,18.3106 -3.20546,26.57832c-2.84473,6.09961 -2.78384,15.8876 -6.10623,21.42493c-0.95091,1.58484 -2.44296,2.63564 -3.49261,4.09061c-10.46941,14.51231 -20.1121,20.4764 -37.85114,16.53439c-5.16915,-1.1487 -10.4494,-2.5844 -15.20007,-4.80002c-5.58029,-2.60253 -11.45283,-2.40176 -16.2533,-7.20223c-5.31141,-5.31141 -6.21328,-11.12272 -7.79663,-18.24776c-0.20567,-0.92552 0.22721,-1.88396 -0.19998,-2.79993c-1.8244,-3.91183 -3.89503,-9.78776 -3.89503,-14.05257c0,-4.38261 -0.07683,-8.76826 0.09502,-13.1475c0.06823,-1.73881 0.98535,-3.71058 1,-5.47473c0.00486,-0.58531 -1.80474,-14.87106 0.00638,-25.97055c0.07103,-2.47729 0.73286,-4.80658 1.84954,-6.85191c2.58699,-4.7384 7.61515,-7.95281 13.39408,-7.95281c1.9133,0 3.7443,0.35235 5.43165,0.99569c1.2187,0.27125 2.37792,0.66819 3.38475,1.38712z" fill="#efff00"/><path d="M257.91388,255.75001c0.52281,-2.35266 0.81462,-4.84839 1.86738,-7.375c3.39875,-8.15699 15.6676,-10.03255 22.9097,-7.01501c2.81007,1.17086 4.15766,4.45468 6.07407,6.82001c1.3043,1.60983 0.96489,3.80793 1.80997,5.61993c3.87844,8.31606 4.65183,20.86693 2.80002,29.20007c-0.55502,2.49758 -1.98125,5.50272 -2,8.07507c-0.04841,6.64147 0.17699,13.28564 0,19.92493c-0.2888,10.83354 -3.58285,28.6713 -16.20623,31.82715c-3.20269,0.80067 -6.72658,0.28735 -9.96869,0.42285c-1.6602,0.06939 -3.26176,0.92829 -4.92757,1.09502c-2.39743,0.23995 -5.66824,-1.13018 -7.96751,-1.705c-4.62001,-1.155 -7.54785,-5.02323 -10.67231,-8.1477c-1.68294,-1.68294 -3.71233,-3.12063 -5.29519,-4.96731c-3.45693,-4.03309 -4.2502,-9.88769 -5.83057,-14.66114c-4.51686,-13.64304 -6.81529,-21.08533 -5.63192,-36.86387v0c0,-1.49232 0.21435,-2.93458 0.61395,-4.29767c0.28489,-1.1705 0.6927,-2.29908 1.2923,-3.32733c0.20404,-0.34991 0.46087,-0.66438 0.74027,-0.96335c0.63923,-0.93626 1.38005,-1.79763 2.20661,-2.56824c0.82333,-1.7724 0.4478,-4.0323 1.52968,-5.65982c1.27816,-1.92279 3.17708,-3.49479 5.24219,-4.52734c6.36203,-3.18102 13.25212,-2.33913 19.70007,-0.90625z" fill="#efff00"/><path d="M256.46876,132.375c1.89605,7.58422 3.20758,14.98097 4.90625,22.625c0.53142,2.39141 0.00696,4.24189 1.19998,6.79993c9.83271,21.08307 11.86877,37.30513 6.19003,60.02008c-1.50654,6.02614 -4.35326,11.81882 -9.11501,15.96751c-1.42722,1.24347 -3.5039,1.79737 -4.95786,3.21209c-8.52497,8.29491 -17.80078,14.63564 -29.56715,17.25039c-4.59656,1.02146 -15.09614,-1.86089 -20.07507,-2c-7.67281,-0.21438 -18.25134,-1.1494 -24.44994,-6.46249c-2.45987,-2.10846 -6.62876,-5.30656 -7.81874,-8.16251c-5.40854,-12.98049 -3.11913,-32.39713 -2.90625,-44.625c0.15949,-9.16138 5.03178,-16.68481 8.37187,-24.74851c0.76862,-1.85562 0.63327,-4.07428 1.53438,-5.87649c2.37806,-4.75613 4.92058,-9.43054 7.21905,-14.22564c1.47147,-3.06979 1.4597,-7.23471 3.48468,-9.96937c5.98977,-8.08897 13.31817,-14.80959 21.39346,-20.5002c4.03933,-2.8465 6.67684,-9.05119 12.62155,-12.02355c6.58759,-3.29379 15.79257,-1.96226 22.19095,0.70374c6.24428,2.60178 9.68405,15.61648 9.68405,21.90646z" fill="#efff00"/><path d="M223.62501,137c0,-1.38071 1.11929,-2.5 2.5,-2.5c1.38071,0 2.5,1.11929 2.5,2.5c0,1.38071 -1.11929,2.5 -2.5,2.5c-1.38071,0 -2.5,-1.11929 -2.5,-2.5z" fill="#000000"/><path d="M206.62501,158c0,-1.38071 1.11929,-2.5 2.5,-2.5c1.38071,0 2.5,1.11929 2.5,2.5c0,1.38071 -1.11929,2.5 -2.5,2.5c-1.38071,0 -2.5,-1.11929 -2.5,-2.5z" fill="#000000"/><path d="M233.62501,159c0,-1.38071 1.11929,-2.5 2.5,-2.5c1.38071,0 2.5,1.11929 2.5,2.5c0,1.38071 -1.11929,2.5 -2.5,2.5c-1.38071,0 -2.5,-1.11929 -2.5,-2.5z" fill="#000000"/><path d="M216.62501,125.00001c0,-1.38071 1.11929,-2.5 2.5,-2.5c1.38071,0 2.5,1.11929 2.5,2.5c0,1.38071 -1.11929,2.5 -2.5,2.5c-1.38071,0 -2.5,-1.11929 -2.5,-2.5z" fill="#000000"/><path d="M234.35724,126.76778c-1.76777,-1.76777 0,-3.53553 0,-3.53553l2,-2c0,0 1.76777,-1.76777 3.53553,0c1.76777,1.76777 0,3.53553 0,3.53553l-2,2c0,0 -1.76777,1.76777 -3.53553,0z" fill="#000000"/><path d="M185.62501,174.00001c0,-1.38071 1.11929,-2.5 2.5,-2.5c1.38071,0 2.5,1.11929 2.5,2.5c0,1.38071 -1.11929,2.5 -2.5,2.5c-1.38071,0 -2.5,-1.11929 -2.5,-2.5z" fill="#000000"/><path d="M242.62501,187.00001c0,-1.38071 1.11929,-2.5 2.5,-2.5c1.38071,0 2.5,1.11929 2.5,2.5c0,1.38071 -1.11929,2.5 -2.5,2.5c-1.38071,0 -2.5,-1.11929 -2.5,-2.5z" fill="#000000"/><path d="M215.62501,239.00001c0,-1.38071 1.11929,-2.5 2.5,-2.5c1.38071,0 2.5,1.11929 2.5,2.5c0,1.38071 -1.11929,2.5 -2.5,2.5c-1.38071,0 -2.5,-1.11929 -2.5,-2.5z" fill="#000000"/><path d="M193.62501,214.00001c0,-1.38071 1.11929,-2.5 2.5,-2.5c1.38071,0 2.5,1.11929 2.5,2.5c0,1.38071 -1.11929,2.5 -2.5,2.5c-1.38071,0 -2.5,-1.11929 -2.5,-2.5z" fill="#000000"/><path d="M238.62501,219.00001c0,-1.38071 1.11929,-2.5 2.5,-2.5c1.38071,0 2.5,1.11929 2.5,2.5c0,1.38071 -1.11929,2.5 -2.5,2.5c-1.38071,0 -2.5,-1.11929 -2.5,-2.5z" fill="#000000"/><path d="M218.62501,194.00001c0,-1.38071 1.11929,-2.5 2.5,-2.5c1.38071,0 2.5,1.11929 2.5,2.5c0,1.38071 -1.11929,2.5 -2.5,2.5c-1.38071,0 -2.5,-1.11929 -2.5,-2.5z" fill="#000000"/><path d="M217.62501,217.00001c0,-1.38071 1.11929,-2.5 2.5,-2.5c1.38071,0 2.5,1.11929 2.5,2.5c0,1.38071 -1.11929,2.5 -2.5,2.5c-1.38071,0 -2.5,-1.11929 -2.5,-2.5z" fill="#000000"/><path d="M184.62501,227.00001c0,-1.38071 1.11929,-2.5 2.5,-2.5c1.38071,0 2.5,1.11929 2.5,2.5c0,1.38071 -1.11929,2.5 -2.5,2.5c-1.38071,0 -2.5,-1.11929 -2.5,-2.5z" fill="#000000"/><path d="M182.62501,191.00001c0,-1.38071 1.11929,-2.5 2.5,-2.5c1.38071,0 2.5,1.11929 2.5,2.5c0,1.38071 -1.11929,2.5 -2.5,2.5c-1.38071,0 -2.5,-1.11929 -2.5,-2.5z" fill="#000000"/><path d="M214.62501,173.00001c0,-1.38071 1.11929,-2.5 2.5,-2.5c1.38071,0 2.5,1.11929 2.5,2.5c0,1.38071 -1.11929,2.5 -2.5,2.5c-1.38071,0 -2.5,-1.11929 -2.5,-2.5z" fill="#000000"/><path d="M248.62501,203.00001c0,-1.38071 1.11929,-2.5 2.5,-2.5c1.38071,0 2.5,1.11929 2.5,2.5c0,1.38071 -1.11929,2.5 -2.5,2.5c-1.38071,0 -2.5,-1.11929 -2.5,-2.5z" fill="#000000"/></g></g></svg>