<svg version="1.1" xmlns="http://www.w3.org/2000/svg" xmlns:xlink="http://www.w3.org/1999/xlink" width="283.284" height="324.50001" viewBox="0,0,283.284,324.50001"><g transform="translate(-98.358,-17.75)"><g data-paper-data="{&quot;isPaintingLayer&quot;:true}" fill-rule="nonzero" stroke-linejoin="miter" stroke-miterlimit="10" stroke-dasharray="" stroke-dashoffset="0" style="mix-blend-mode: normal"><path d="M99.608,19h280.784v322l-86.92408,0c-0.67129,-0.1392 -1.38813,-0.21671 -2.15052,-0.22416c-7.08037,-0.06914 -14.16091,-0.12569 -21.24156,-0.16997c-1.26638,-0.48962 -2.77694,-0.77701 -4.54421,-0.80887c-21.44096,-0.38656 -42.89201,-0.36594 -64.33333,0c-0.25427,0 -0.50632,0.00949 -0.75582,0.02814c-1.41801,0.08368 -2.49109,0.33495 -3.3437,0.7445c-9.594,0.04866 -19.18784,0.11768 -28.78138,0.2062c-0.14044,0 -0.2802,0.00289 -0.41922,0.00863c-0.7597,0.02463 -1.42577,0.09715 -2.0151,0.21554h-20.82433c-15.14935,-0.15731 -30.30031,-0.21776 -45.45074,-0.17231z" fill="#808080" stroke="#000000" stroke-width="2.5" stroke-linecap="butt"/><path d="M280.9375,19v321" fill="none" stroke="#000000" stroke-width="2.5" stroke-linecap="round"/><text transform="matrix(0.5 0 0 0.5 306.9375 37.5)" font-size="40"  fill="#000000" fill-rule="nonzero" stroke="none" stroke-width="1" stroke-linecap="butt" stroke-linejoin="miter" stroke-miterlimit="10" stroke-dasharray="" stroke-dashoffset="0" font-family="Helvetica" font-weight="normal" text-anchor="start" style="mix-blend-mode: normal" >PULL</text><g fill="#000000" stroke="none" stroke-width="1" stroke-linecap="butt" font-family="Sans Serif" font-weight="normal" font-size="40" text-anchor="start"><text transform="matrix(0.5 0 0 0.5 327.9375 60.5)" font-size="40"  fill="#000000" fill-rule="nonzero" stroke="none" stroke-width="1" stroke-linecap="butt" stroke-linejoin="miter" stroke-miterlimit="10" stroke-dasharray="" stroke-dashoffset="0" font-family="Helvetica" font-weight="normal" text-anchor="start" style="mix-blend-mode: normal" >l</text><text transform="matrix(0.5 0 0 0.5 322.9375 71.5)" font-size="40"  fill="#000000" fill-rule="nonzero" stroke="none" stroke-width="1" stroke-linecap="butt" stroke-linejoin="miter" stroke-miterlimit="10" stroke-dasharray="" stroke-dashoffset="0" font-family="Helvetica" font-weight="normal" text-anchor="start" style="mix-blend-mode: normal" >\/</text></g><text transform="matrix(0.5 0 0 0.5 303.9375 93.5)" font-size="40"  fill="#000000" fill-rule="nonzero" stroke="none" stroke-width="1" stroke-linecap="butt" stroke-linejoin="miter" stroke-miterlimit="10" stroke-dasharray="" stroke-dashoffset="0" font-family="Helvetica" font-weight="normal" text-anchor="start" style="mix-blend-mode: normal" >HOLD</text><g data-paper-data="{&quot;index&quot;:null}"><path d="M298.27484,190.32143v-29.33929h64.35714v29.33929z" fill="#cccccc" stroke="#000000" stroke-width="1.5" stroke-linecap="butt"/><path d="M307.73912,189.375v-27.44643h13.25v27.44643z" fill="#000000" stroke="#000000" stroke-width="1.5" stroke-linecap="butt"/><path d="M338.97126,189.375v-27.44643h13.25v27.44643z" fill="#000000" stroke="#000000" stroke-width="1.5" stroke-linecap="butt"/><g fill="none" stroke-linecap="round"><path d="M314.36412,213.98214v-38.80357" stroke="#bfbfbf" stroke-width="5"/><path d="M346.06948,175.17857v38.80357" stroke="#c0c0c0" stroke-width="5"/><path d="M290.98438,212.41147h79.5" stroke="#c0c0c0" stroke-width="7.5"/><path d="M290.98438,201.91518v20.58482" stroke="#c0c0c0" stroke-width="7.5"/><path d="M370.48438,222.5v-20.58482" stroke="#c0c0c0" stroke-width="7.5"/></g></g><path d="M166.11338,340.17588c4.43363,-4.43362 36.55863,-12.17588 43.32412,-12.17588c5.56571,0 16.14569,6.39566 23.81371,12.48429c-21.64503,-0.00859 -43.29018,0.09184 -64.93382,0.29155c-0.14044,0 -0.2802,0.00289 -0.41922,0.00863c-0.89724,0.02908 -1.66387,0.12497 -2.32773,0.28435c0.05485,-0.28325 0.22985,-0.57984 0.54294,-0.89293z" fill="#c4b996" stroke="none" stroke-width="NaN" stroke-linecap="butt"/><path d="" fill="#c4b996" stroke="none" stroke-width="NaN" stroke-linecap="butt"/><path d="" fill="#c4b996" stroke="none" stroke-width="NaN" stroke-linecap="butt"/><path d="M247.48545,338.08057c4.19303,-3.69302 9.82979,-6.78818 12.90544,-8.53796c-1.22412,1.90392 -2.28685,5.4691 -3.06687,10.12618c-3.79896,-0.05025 -7.59816,-0.08798 -11.39748,-0.11351c0.48912,-0.50065 1.01173,-0.99277 1.55892,-1.47471z" fill="#c4b996" stroke="none" stroke-width="0" stroke-linecap="butt"/><path d="" fill="#c4b996" stroke="none" stroke-width="0" stroke-linecap="butt"/><path d="" fill="#c4b996" stroke="none" stroke-width="0" stroke-linecap="butt"/><path d="M260.39089,284.54261c0.64349,-1.00084 1.33157,-1.54261 2.04661,-1.54261c0.60283,0 -0.31685,0.55853 -2.04661,1.54261z" fill="#c4b996" stroke="none" stroke-width="0" stroke-linecap="butt"/><path d="" fill="#c4b996" stroke="none" stroke-width="0" stroke-linecap="butt"/><path d="" fill="#c4b996" stroke="none" stroke-width="0" stroke-linecap="butt"/><path d="" fill="#c4b996" stroke="none" stroke-width="0" stroke-linecap="butt"/><path d="M252.06088,320.85173c0.2957,0.36156 0.13502,0.54754 0,0z" fill="#c4b996" stroke="none" stroke-width="0" stroke-linecap="butt"/><path d="" fill="#c4b996" stroke="none" stroke-width="0" stroke-linecap="butt"/><path d="" fill="#c4b996" stroke="none" stroke-width="0" stroke-linecap="butt"/><path d="" fill="#c4b996" stroke="none" stroke-width="0" stroke-linecap="butt"/><path d="M116.99135,335.31043c2.82369,-6.13186 15.43373,2.68051 19.37951,-1.22293c6.54543,-6.4752 4.93063,-23.36273 10.56424,-20.76848c7.38475,3.40064 9.55527,15.11459 5.99429,28.1877c-12.65786,0.03631 -25.31555,0.11807 -37.97254,0.24254c0.33904,-2.02389 0.9867,-4.16346 2.0345,-6.43883z" fill="#c4b996" stroke="none" stroke-width="0" stroke-linecap="butt"/><path d="" fill="#c4b996" stroke="none" stroke-width="0" stroke-linecap="butt"/><path d="M169.63495,333.11149c-4.73714,-4.45029 -10.77179,-25.11387 -1.54156,-34.93905c9.23022,-9.82518 30.23002,-5.09136 34.96716,-0.64107c3.50486,3.29263 15.19249,9.23141 10.654,16.7293c-1.59569,2.63618 -16.38839,6.56288 -18.78946,9.11871c-0.58145,0.61892 -28.52344,0.3623 -29.11932,0.93699c-8.86354,8.54834 8.26789,12.96506 3.82916,8.79511z" fill="#c4b996" stroke="none" stroke-width="0" stroke-linecap="butt"/><path d="M245.12027,340.33528c-4.09065,-2.52177 -17.27062,-20.03476 -18.46469,-24.66963c-1.55057,-6.01863 9.92413,0.41152 13.77186,-5.83c3.02837,-4.91242 -8.85286,-33.7172 -4.20601,-35.65762c5.80393,-2.4236 28.34116,22.92964 33.56297,26.14875c5.47806,3.37707 -0.50143,14.45904 -0.29865,21.10147c0.14527,4.75869 7.83423,4.78684 4.99148,9.39816c-0.84006,1.36268 -1.71867,5.26485 -2.6587,9.7906c-8.81428,-0.05764 -17.62873,-0.09623 -26.44326,-0.11645c-0.08538,-0.05799 -0.17038,-0.11312 -0.255,-0.16529z" data-paper-data="{&quot;index&quot;:null}" fill="#c4b996" stroke="none" stroke-width="0" stroke-linecap="butt"/></g></g></svg>