<svg xmlns="http://www.w3.org/2000/svg" xmlns:xlink="http://www.w3.org/1999/xlink" version="1.1" width="174.63670654296874" height="189.2480041503906" viewBox="-0.09970328807830808 0.9559999942779541 174.63670654296874 189.2480041503906">
  <!-- Exported by Scratch - http://scratch.mit.edu/ -->
  <g id="ID0.96025385055691">
    <path id="ID0.4675603983923793_1_" fill="#FAA51D" stroke="#231F20" stroke-width="1.2" d="M 99.739 17.203 C 96.907 16.94 91.004 16.622 87.753 16.778 C 79.059 17.192 70.791 20.323 70.791 20.323 L 46.851 4.7 L 50.96 39.468 C 52.148 38.029 31.55 63.013 44.563 84.014 C 57.584 105.026 85.449 114.389 119.937 107.537 C 154.427 100.68 162.654 80.815 160.369 70.307 C 158.085 59.799 145.065 55.92 145.065 55.92 C 145.065 55.92 144.9 47.682 138.945 37.586 C 135.403 31.576 123.593 22.799 123.593 22.799 L 118.335 1.556 L 104.632 14.804 L 99.739 17.203 L 99.739 17.203 Z "/>
    <path id="ID0.876089540310204_1_" fill="#FFFFFF" d="M 143.341 55.655 L 138.777 51.86 L 122.015 56.753 C 122.015 56.753 122.015 63.041 113.985 64.783 C 105.949 66.533 93.369 60.596 93.369 60.596 L 79.053 66.88 C 79.053 66.88 63.537 68.585 62.983 78.062 C 61.745 99.124 87.587 107.904 97.379 108.463 C 102.722 108.771 112.523 107.841 119.956 106.364 C 152.601 100.417 161.425 80.768 159.144 70.257 C 156.86 59.749 144.472 57.025 144.472 57.025 L 143.341 55.655 L 143.341 55.655 Z " stroke-width="1"/>
    <path id="ID0.44282719027251005_1_" fill="none" stroke="#231F20" stroke-width="1.2" d="M 22.437 76.047 C 22.437 76.047 29.99 76.735 33.423 76.54 C 36.853 76.344 43.523 75.461 43.523 75.461 "/>
    <path id="ID0.893105489667505_1_" fill="none" stroke="#231F20" stroke-width="1.2" d="M 152.97 65.963 C 152.97 65.963 161.335 64.596 165.583 63.113 C 170.575 61.382 173.937 58.433 173.937 58.433 "/>
    <path id="ID0.03574043000116944_1_" fill="none" stroke="#231F20" stroke-width="1.2" d="M 43.886 68.239 C 43.886 68.239 39.502 64.97 32.638 61.931 C 25.035 58.564 20.86 57.696 20.86 57.696 "/>
    <path id="ID0.6674723788164556_1_" fill="none" stroke="#231F20" stroke-width="1.2" d="M 153.818 76.906 C 153.818 76.906 158.832 78.935 163.993 79.453 C 169.088 79.961 172.537 79.655 172.537 79.655 "/>
    <path id="ID0.12165586883202195_1_" fill="none" stroke="#000000" stroke-linecap="round" d="M 99.079 17.306 C 104.301 18.593 106.226 20.007 106.226 20.007 " stroke-width="1"/>
    <path id="ID0.178104005753994_1_" fill="none" stroke="#000000" d="M 65.146 16.335 L 76.287 24.349 " stroke-width="1"/>
    <path id="ID0.7735752793960273_1_" fill="#FFFFFF" stroke="#231F20" d="M 134.919 37.817 C 140.296 46.053 140.496 55.455 135.364 58.808 C 130.227 62.164 121.708 58.199 116.323 49.957 C 110.929 41.719 110.739 32.324 115.875 28.966 C 121.007 25.614 129.537 29.575 134.919 37.817 L 134.919 37.817 Z " stroke-width="1"/>
    <path id="ID0.19106501014903188_1_" fill="#231F20" d="M 133.539 50.978 C 133.539 52.963 132.064 54.575 130.228 54.575 C 128.402 54.575 126.913 52.963 126.913 50.978 C 126.913 48.992 128.402 47.376 130.228 47.376 C 132.064 47.376 133.539 48.991 133.539 50.978 " stroke-width="1"/>
    <path id="ID0.06283409334719181_1_" fill="#FFFFFF" stroke="#231F20" d="M 90.834 43.8 C 96.215 52.038 95.649 61.936 89.581 65.895 C 83.509 69.866 74.225 66.395 68.846 58.157 C 63.462 49.919 64.021 40.025 70.093 36.058 C 76.167 32.093 85.449 35.558 90.834 43.8 L 90.834 43.8 Z " stroke-width="1"/>
    <path id="ID0.716460831463337_1_" fill="#231F20" d="M 87.546 54.627 C 87.546 56.615 86.069 58.227 84.233 58.227 C 82.409 58.227 80.919 56.612 80.919 54.627 C 80.919 52.642 82.409 51.028 84.233 51.028 C 86.066 51.028 87.546 52.642 87.546 54.627 " stroke-width="1"/>
    <path id="ID0.5430324394255877_1_" fill="#5E4A42" stroke="#000000" d="M 112.716 60.914 C 116.125 60.914 121.092 60.393 121.353 61.961 C 121.617 63.533 118.21 69.69 115.859 69.951 C 113.5 70.213 104.595 65.624 104.466 62.744 C 104.331 59.865 109.57 60.914 112.716 60.914 L 112.716 60.914 Z " stroke-width="1"/>
    <path id="ID0.5547774969600141_1_" fill="none" stroke="#231F20" stroke-width="1.2" d="M 88.825 74.356 C 88.825 74.356 107.852 79.972 114.969 81.522 C 122.082 83.071 134.924 84.62 134.924 84.62 C 134.924 84.62 120.231 103.46 103.059 98.677 C 85.886 93.9 86.197 83.072 88.825 74.356 L 88.825 74.356 Z "/>
    <path id="ID0.565857948269695" fill="#FAA51D" stroke="#000000" stroke-width="1.2" d="M 87.473 176.105 C 86.231 176.105 84.971 175.796 83.811 175.145 L 67.756 166.14 C 64.988 164.588 63.497 161.462 64.032 158.335 C 64.566 155.207 67.011 152.754 70.137 152.21 L 84.841 149.648 L 77.442 145.004 C 73.933 142.803 72.874 138.174 75.076 134.665 C 77.277 131.157 81.906 130.098 85.415 132.299 L 109.368 147.33 C 111.999 148.98 113.34 152.081 112.741 155.128 C 112.142 158.176 109.728 160.538 106.669 161.071 L 92.943 163.462 C 95.13 165.784 95.663 169.343 94.02 172.272 C 92.646 174.725 90.098 176.105 87.473 176.105 L 87.473 176.105 Z "/>
    <path id="ID0.7152078151702881_1_" fill="#FAA51D" stroke="#000000" d="M 43.701 141.037 C 39.254 141.837 33.727 142.246 28.105 140.065 C 15.529 135.185 7.251 122.407 1.989 128.508 C -3.28 134.613 5.381 157.049 28.873 156.058 C 36.971 155.721 43.534 153.241 48.799 151.079 C 50.176 150.506 61.639 144.919 63.469 137.499 C 65.296 130.078 61.917 129.685 60.219 129.4 C 58.519 129.117 49.989 139.904 43.701 141.037 L 43.701 141.037 Z " stroke-width="1"/>
    <path id="ID0.4691764716990292_1_" fill="#FFFFFF" d="M 3.124 128.579 C 0.103 130.932 1.099 139.179 5.091 144.52 C 9.084 149.87 12.897 151.436 15.905 153 C 19.212 153.786 13.101 149.339 15.539 144.977 C 17.969 140.623 24.799 139.664 24.799 139.664 C 24.799 139.664 17.197 134.709 12.77 131.65 C 8.559 128.702 6.447 126.331 3.124 128.579 L 3.124 128.579 Z " stroke-width="1"/>
    <path id="ID0.26425604708492756_1_" fill="#FAA51D" stroke="#231F20" stroke-width="1.2" d="M 88.096 141.986 C 90.281 140.308 92.504 137.568 95.363 133.318 C 97.746 129.775 100.328 123.061 100.328 123.061 C 101.936 118.425 103.885 110.968 96.83 109.644 C 93.975 109.109 89.329 109.464 82.726 108.217 C 76.119 106.964 70.225 103.579 65.225 112.323 C 60.227 121.071 47.589 127.532 63.283 142.781 L 88.096 141.986 Z "/>
    <path id="ID0.36250351183116436" fill="#FAA51D" stroke="#000000" stroke-width="1.2" d="M 64.208 189.604 L 50.086 189.604 C 49.439 189.604 48.793 189.52 48.167 189.354 L 36.83 186.354 C 34.031 185.614 31.909 183.329 31.377 180.483 C 30.845 177.637 31.998 174.739 34.34 173.037 L 58.756 155.293 L 57.212 136.821 C 56.866 132.693 59.933 129.067 64.061 128.722 C 68.195 128.378 71.815 131.443 72.16 135.571 L 74.056 158.252 C 74.275 160.865 73.113 163.402 70.992 164.944 L 57.699 174.604 L 64.209 174.604 C 68.352 174.604 71.709 177.961 71.709 182.104 C 71.709 186.247 68.351 189.604 64.208 189.604 L 64.208 189.604 Z "/>
    <path id="ID0.203311821911484_1_" fill="#FFFFFF" d="M 96.372 129.89 C 96.372 129.89 100.914 124.998 91.832 120.112 C 82.75 115.226 78.567 120.081 75.762 122.909 C 70.9 127.792 82.093 135.067 82.093 135.067 L 87.934 140.959 C 87.934 140.959 91.129 137.931 92.53 135.481 C 94.134 133.248 96.372 129.89 96.372 129.89 " stroke-width="1"/>
    <path id="ID0.5478275958448648" fill="#FAA51D" d="M 71.6335 128.8336 C 73.5628 130.7326 74.6404 133.1347 74.8224 135.4817 C 75.0036 137.8294 74.2906 140.1205 72.6385 141.7989 C 70.9865 143.4773 68.7069 144.2266 66.3567 144.0825 C 64.0071 143.9378 61.5882 142.8984 59.6589 140.9994 C 57.7297 139.1004 56.652 136.6983 56.4701 134.3513 C 56.2889 132.0036 57.0019 129.7125 58.6539 128.0341 C 60.306 126.3557 62.5855 125.6064 64.9358 125.7505 C 67.2854 125.8952 69.7043 126.9346 71.6335 128.8336 Z " stroke-width="1.0000217754203118"/>
    <path id="ID0.019890920724719763" fill="#FAA51D" stroke="#000000" stroke-width="1.2" d="M 97.573 149.631 C 96.786 149.631 95.986 149.486 95.208 149.183 L 77.014 142.07 C 74.155 140.952 72.467 137.985 72.968 134.956 L 76.388 114.28 C 76.974 110.738 80.317 108.34 83.862 108.927 C 87.404 109.513 89.8 112.859 89.215 116.401 L 86.654 131.88 L 99.943 137.075 C 103.286 138.382 104.937 142.152 103.63 145.496 C 102.625 148.062 100.171 149.631 97.573 149.631 L 97.573 149.631 Z "/>
  </g>
</svg>