<svg version="1.1" xmlns="http://www.w3.org/2000/svg" xmlns:xlink="http://www.w3.org/1999/xlink" width="575.62277" height="367.95107" viewBox="0,0,575.62277,367.95107"><defs><linearGradient x1="222.76996" y1="-28.13011" x2="222.76996" y2="53.35044" gradientUnits="userSpaceOnUse" id="color-1"><stop offset="0" stop-color="#0c556e"/><stop offset="1" stop-color="#002734"/></linearGradient><linearGradient x1="237.40005" y1="254.58108" x2="237.40005" y2="338.17454" gradientUnits="userSpaceOnUse" id="color-2"><stop offset="0" stop-color="#0c556e"/><stop offset="1" stop-color="#002734"/></linearGradient><linearGradient x1="286.07717" y1="291.61028" x2="286.07717" y2="322.08397" gradientUnits="userSpaceOnUse" id="color-3"><stop offset="0" stop-color="#1490ba"/><stop offset="1" stop-color="#005673"/></linearGradient><linearGradient x1="106.564" y1="284.98236" x2="106.564" y2="328.39534" gradientUnits="userSpaceOnUse" id="color-4"><stop offset="0" stop-color="#015875"/><stop offset="1" stop-color="#148db7"/></linearGradient><linearGradient x1="114.18294" y1="302.0711" x2="114.18294" y2="324.04716" gradientUnits="userSpaceOnUse" id="color-5"><stop offset="0" stop-color="#ffffff" stop-opacity="0"/><stop offset="1" stop-color="#ffffff"/></linearGradient><linearGradient x1="94.91226" y1="304.00935" x2="113.08163" y2="291.34244" gradientUnits="userSpaceOnUse" id="color-6"><stop offset="0" stop-color="#ffffff"/><stop offset="1" stop-color="#ffffff" stop-opacity="0"/></linearGradient><linearGradient x1="400.27923" y1="69.05807" x2="400.27923" y2="113.35028" gradientUnits="userSpaceOnUse" id="color-7"><stop offset="0" stop-color="#66d6ff"/><stop offset="1" stop-color="#58b9dc"/></linearGradient><linearGradient x1="400.27923" y1="69.05807" x2="400.27923" y2="95.63339" gradientUnits="userSpaceOnUse" id="color-8"><stop offset="0" stop-color="#ffffff"/><stop offset="1" stop-color="#ffffff" stop-opacity="0"/></linearGradient><linearGradient x1="401.16831" y1="148.05459" x2="401.16831" y2="192.3468" gradientUnits="userSpaceOnUse" id="color-9"><stop offset="0" stop-color="#66d6ff"/><stop offset="1" stop-color="#58b9dc"/></linearGradient><linearGradient x1="401.16831" y1="148.05459" x2="401.16831" y2="174.62991" gradientUnits="userSpaceOnUse" id="color-10"><stop offset="0" stop-color="#ffffff"/><stop offset="1" stop-color="#ffffff" stop-opacity="0"/></linearGradient></defs><g transform="translate(31.01204,29.77654)"><g data-paper-data="{&quot;isPaintingLayer&quot;:true}" fill-rule="nonzero" stroke-linejoin="miter" stroke-miterlimit="10" stroke-dasharray="" stroke-dashoffset="0" style="mix-blend-mode: normal"><path d="" fill="#000000" stroke="none" stroke-width="0" stroke-linecap="butt"/><path d="" fill="#929292" stroke="none" stroke-width="0" stroke-linecap="butt"/><path d="" fill="#ffffff" stroke="none" stroke-width="0" stroke-linecap="butt"/><path d="M483.55042,324.04817c-46.65866,20.72911 -166.18349,7.97278 -227.66592,7.97278c-52.01397,0 -211.48561,13.10186 -253.52632,-2.1342c-36.72473,-13.30948 -32.84105,-139.71066 -32.84105,-177.86852c0,-56.08485 -9.72855,-127.99743 54.24059,-161.00952c49.41874,-25.50321 163.19632,-18.99311 232.12689,-18.99311c74.12456,0 199.426,-10.35004 250.27849,18.69582c57.6493,32.92805 50.75272,300.74272 -22.61269,333.33685z" fill="#ffffff" stroke="none" stroke-width="2" stroke-linecap="butt"/><path d="M426.1073,50.41756c-40.5842,4.60178 -144.54812,1.76993 -198.0262,1.76993c-45.24229,0 -183.95237,2.90856 -220.51983,-0.47379c-31.94355,-2.95464 -28.56546,-31.0152 -28.56546,-39.48608c0,-12.4506 -8.46198,-28.41491 47.17903,-35.74346c42.98493,-5.66159 141.94985,-4.2164 201.90638,-4.2164c64.47432,0 173.4628,-2.29767 217.69484,4.1504c50.14396,7.3099 44.14524,66.76365 -19.66875,73.99942z" fill="url(#color-1)" stroke="none" stroke-width="2" stroke-linecap="butt"/><text transform="matrix(1.1948 0 0 1.1948 37.64887 82.93379999999999)" font-size="40"  fill="#000000" fill-rule="nonzero" stroke="none" stroke-width="1" stroke-linecap="butt" stroke-linejoin="miter" stroke-miterlimit="10" stroke-dasharray="" stroke-dashoffset="0" font-family="Helvetica" font-weight="normal" text-anchor="start" style="mix-blend-mode: normal" >Good Muzak</text><text transform="matrix(0.5 0 0 0.5 374.74415 125.58595)" font-size="40"  fill="#000000" fill-rule="nonzero" stroke="none" stroke-width="1" stroke-linecap="butt" stroke-linejoin="miter" stroke-miterlimit="10" stroke-dasharray="" stroke-dashoffset="0" font-family="Helvetica" font-weight="normal" text-anchor="start" style="mix-blend-mode: normal" >4 MB</text><g><path d="M396.10998,335.16559c-31.67699,4.72111 -112.82346,1.81582 -154.56444,1.81582c-35.31275,0 -143.57947,2.98398 -172.12128,-0.48607c-24.93275,-3.03127 -22.29607,-31.81947 -22.29607,-40.51002c0,-12.77347 -6.60479,-29.15175 36.82442,-36.67034c33.55082,-5.80842 110.79544,-4.32573 157.59302,-4.32573c50.32383,0 135.39209,-2.35725 169.91631,4.25802c39.13863,7.49945 34.45647,68.49494 -15.35196,75.91834z" fill="url(#color-2)" stroke="none" stroke-width="2" stroke-linecap="butt"/><path d="M397.30961,320.98707c-22.20094,1.72107 -79.07275,0.66195 -108.32706,0.66195c-24.74908,0 -100.62821,1.0878 -120.63184,-0.17719c-14.50252,-0.91712 -15.62628,-11.19641 -15.62628,-14.76778c0,-4.65653 -4.62899,-10.62717 25.80853,-13.36804c23.51422,-2.11744 77.65139,-1.57693 110.44965,-1.57693c35.26965,0 94.89005,-0.85932 119.08648,1.55224c27.43046,2.7339 24.14894,24.96958 -10.75948,27.67576z" fill="url(#color-3)" stroke="none" stroke-width="2" stroke-linecap="butt"/><path d="M134.22399,306.68886c0,11.98816 -12.3838,21.7065 -27.65999,21.7065c-15.27619,0 -27.65998,-9.71834 -27.65998,-21.7065c0,-11.98816 12.38379,-21.7065 27.65998,-21.7065c15.27619,0 27.65999,9.71834 27.65999,21.7065z" fill="url(#color-4)" stroke="none" stroke-width="10" stroke-linecap="butt"/><g fill="none" stroke-width="5"><path d="M108.26849,302.0711l11.8289,21.97606" stroke="url(#color-5)" stroke-linecap="round"/><path d="M95.78992,289.44801c5.01733,-3.49788 12.75909,-2.6497 17.2917,1.89444c4.5326,4.54415 4.13968,11.0635 -0.87766,14.56137c-5.01733,3.49787 -12.75909,2.6497 -17.2917,-1.89444c-4.5326,-4.54416 -4.13968,-11.06351 0.87766,-14.56138z" stroke="url(#color-6)" stroke-linecap="butt"/></g></g><text transform="matrix(1.1948 0 0 1.1948 28.67175 170.15215)" font-size="40"  fill="#000000" fill-rule="nonzero" stroke="none" stroke-width="1" stroke-linecap="butt" stroke-linejoin="miter" stroke-miterlimit="10" stroke-dasharray="" stroke-dashoffset="0" font-family="Helvetica" font-weight="normal" text-anchor="start" style="mix-blend-mode: normal" >Im Blue</text><text transform="matrix(0.5 0 0 0.5 377.2776 199.64937)" font-size="40"  fill="#000000" fill-rule="nonzero" stroke="none" stroke-width="1" stroke-linecap="butt" stroke-linejoin="miter" stroke-miterlimit="10" stroke-dasharray="" stroke-dashoffset="0" font-family="Helvetica" font-weight="normal" text-anchor="start" style="mix-blend-mode: normal" >4 MB</text><g><path d="M346.35828,112.96513c0,0 -4.23665,-12.78464 -4.23665,-21.95353c0,-9.16889 3.08119,-21.95353 3.08119,-21.95353h110.15281v44.29221c0,0 -43.45013,-0.15354 -62.77725,-0.22182c-16.5837,-0.0586 -46.2201,-0.16332 -46.2201,-0.16332z" fill="url(#color-7)" stroke="#d0d0d0" stroke-width="2" stroke-linecap="butt"/><g fill="none" stroke="#ffffff" stroke-width="5" stroke-linecap="round"><path d="M394.47656,73.13344l1.64437,30.42079l-8.22184,-18.91022"/><path d="M396.9431,104.37642l8.22184,-17.26586"/></g><path d="M346.35828,95.4023c0,0 -4.23665,-7.67079 -4.23665,-13.17212c0,-5.50133 3.08119,-13.17211 3.08119,-13.17211h110.15281v26.57532c0,0 -43.45013,-0.09212 -62.77725,-0.13309c-16.5837,-0.03516 -46.2201,-0.09799 -46.2201,-0.09799z" fill="url(#color-8)" stroke="#d0d0d0" stroke-width="2" stroke-linecap="butt"/></g><g><path d="M347.24736,191.96165c0,0 -4.23665,-12.78464 -4.23665,-21.95353c0,-9.16889 3.0812,-21.95353 3.0812,-21.95353h110.15281v44.29221c0,0 -43.45013,-0.15353 -62.77725,-0.22182c-16.5837,-0.0586 -46.2201,-0.16333 -46.2201,-0.16333z" fill="url(#color-9)" stroke="#d0d0d0" stroke-width="2" stroke-linecap="butt"/><g fill="none" stroke="#ffffff" stroke-width="5" stroke-linecap="round"><path d="M395.36564,152.12996l1.64437,30.42079l-8.22184,-18.91022"/><path d="M397.83218,183.37294l8.22184,-17.26586"/></g><path d="M347.24736,174.39882c0,0 -4.23665,-7.67079 -4.23665,-13.17212c0,-5.50133 3.0812,-13.17212 3.0812,-13.17212h110.15281v26.57533c0,0 -43.45013,-0.09212 -62.77725,-0.1331c-16.5837,-0.03516 -46.2201,-0.09799 -46.2201,-0.09799z" fill="url(#color-10)" stroke="#d0d0d0" stroke-width="2" stroke-linecap="butt"/></g></g></g></svg>