<svg version="1.1" xmlns="http://www.w3.org/2000/svg" xmlns:xlink="http://www.w3.org/1999/xlink" width="880.37838" height="572.57057" viewBox="0,0,880.37838,572.57057"><g transform="translate(186.67568,152.83183)"><g data-paper-data="{&quot;isPaintingLayer&quot;:true}" fill-rule="nonzero" stroke-linecap="butt" stroke-linejoin="miter" stroke-miterlimit="10" stroke-dasharray="" stroke-dashoffset="0" style="mix-blend-mode: normal"><path d="M-185.67568,418.73874v-570.57057h878.37838v570.57057z" fill="#000000" stroke="#000000" stroke-width="2"/><path d="M213.77623,237.01151l-0.95548,0.84992c-3.99356,2.38153 -8.28273,3.81995 -12.32274,6.16136c-1.05724,0.61273 -2.38493,0.89805 -2.66856,2.31521c-0.65048,3.2501 0.30418,7.25854 0.55614,10.5013c0.26282,3.38256 -0.64333,5.80517 -1.5058,8.93701c-1.29976,4.71971 -1.00211,7.52293 -4.66061,11.24985c-7.69878,4.65375 -15.71535,3.58246 -23.79482,0.35068c-0.52185,-0.20874 -4.9294,-1.95645 -5.18726,-2.12989c-1.83412,-1.23368 -2.85402,-3.08315 -4.2782,-4.68536c-2.59554,-2.91999 -5.76398,-6.00886 -7.11854,-9.8086c-1.73104,-4.85584 -0.35886,-11.41399 1.4467,-16.0108c4.0502,-9.65444 17.0821,-14.40526 25.92202,-18.40505c1.47154,-0.66583 4.08894,-1.9277 5.6559,-3.12601c-3.63985,-0.718 -7.08579,-1.95394 -10.63342,-3.13799c-3.86027,-1.2884 -8.26899,-1.88447 -11.82484,-3.99719c-3.08825,-1.83489 -6.74905,-4.5163 -9.39152,-6.91291c-1.54416,-1.4005 -2.33925,-3.45675 -3.64302,-5.0834c-2.06008,-2.57024 -3.77009,-4.66526 -5.48257,-7.53689c-1.15387,-2.90276 -1.33243,-5.58311 -2.08247,-8.56545c-0.74361,-2.95678 -1.45713,-3.00992 -1.49558,-6.29005c-0.01126,-0.96091 0.46776,-1.88274 0.47395,-2.8437c0.02524,-3.91509 -2.01363,-8.04066 -0.85719,-12.04216c0.62464,-2.16139 2.45112,-4.01395 4.05964,-5.46105c3.9589,-3.56161 10.02484,-8.48874 15.89465,-6.1343c4.96319,1.99079 4.16956,7.95924 4.85243,12.05648c0,2.61532 -0.93288,5.6963 -0.51054,8.26456c0.35181,2.13939 1.69073,2.01993 2.67159,4.19301c0.44501,0.98591 0.31026,2.14683 0.5987,3.18935c0.67598,2.44324 1.76979,4.80575 3.05386,6.97062c0.5493,0.92609 1.24991,1.7826 1.62416,2.79221c0.35692,0.96289 0.37738,2.01917 0.53545,3.03385c0.0565,0.36268 -0.21382,0.91919 0.10791,1.09588c0.54894,0.30147 1.26462,-0.12732 1.87879,-0.00481c4.4263,0.88289 9.01217,1.363 13.61591,1.34813c0,0 0.40245,0 0.8844,0.16147c0.85314,-3.63729 2.39768,-7.20274 4.25436,-9.62693c0.50348,-0.65737 1.32089,-1.0439 1.77922,-1.73351c0.47092,-0.70855 0.46095,-1.67213 0.9479,-2.36975c1.54522,-2.21372 5.13688,-4.67076 7.46372,-5.99725c3.29171,-1.87654 6.83608,-1.03016 10.26886,-1.29763c-1.58334,-1.26833 -3.69684,-1.99487 -4.85543,-3.65716c-3.01627,-4.32759 -0.70974,-9.10789 -1.66474,-13.72215c-0.42657,-2.06104 -0.95105,-4.13267 -1.50551,-6.20785c-2.37669,1.05327 -4.68793,1.4076 -7.20399,2.34129c-1.39824,0.51888 -5.76896,2.87753 -7.17833,3.30583c-2.49541,0.75834 -4.73094,0.64766 -7.2288,1.65914l-1.67848,0.17881c0,0 -2.5,0 -2.5,-2.5c0,-2.5 2.5,-2.5 2.5,-2.5l-0.17848,0.17881c2.63122,-1.04156 5.17987,-1.0507 7.7712,-1.84086c2.40165,-0.73232 4.46666,-2.32345 6.82167,-3.19417c2.68524,-0.99282 5.03099,-1.1377 7.54264,-2.53492c-0.35478,-1.31658 -0.70011,-2.63237 -1.01866,-3.94557c-7.7974,-0.7184 -15.7346,-1.58895 -23.38558,-2.95362l-1.46378,-0.24369c0,0 -2.46598,-0.411 -2.05499,-2.87698c0.411,-2.46598 2.87698,-2.05499 2.87698,-2.05499l1.53622,0.25631c2.69147,0.50029 5.32445,0.25195 8.00764,0.7514c4.56341,0.84944 9.08174,1.53278 13.69957,2.01595c-0.07625,-2.314 0.11419,-4.62944 -0.1269,-6.93771c-0.86069,-4.27613 -2.53359,-10.14475 -0.23171,-14.29961c1.44794,-2.6135 4.45852,-3.35678 6.02117,-5.78872c0.93734,-1.45878 0.11993,-1.87714 -0.05481,-3.53529c-0.3687,-3.49871 -0.8284,-5.09975 -3.01217,-7.99634l-0.51777,-0.48223c0,0 -0.65534,-0.65534 -0.76898,-1.56701c-0.81966,-0.52186 -1.10782,-1.48239 -1.10782,-1.48239c-1.28769,-4.68285 -0.12552,-12.70407 5.84155,-14.15644c1.18616,-0.28871 2.42958,0.26924 3.6274,0.50494c2.56089,0.50393 6.02506,1.09403 8.40684,2.13373c1.90852,0.83311 3.29986,2.54174 4.98055,3.77129c1.58966,1.16295 4.07998,1.30357 5.40456,2.86474c2.74021,3.22965 -0.10304,9.0078 5.13732,8.67554c7.2222,-1.47099 14.21411,-3.12726 21.05357,-5.82759c3.91419,-1.54539 8.82594,-1.2736 12.56619,-3.16635c3.42147,-1.73143 6.55349,-5.20797 8.94324,-8.1032c1.03829,-1.25792 2.03236,-3.59298 3.33149,-4.58441c1.07702,-0.82193 2.43293,-1.19289 3.6494,-1.78933c1.67668,0.43938 4.09522,-0.14144 5.03005,1.31815c3.33978,5.21456 -1.20652,4.66731 -2.71256,6.72349c-0.72265,0.98661 -0.11799,2.44412 -0.11502,3.66707c0.00852,3.50494 -0.70781,8.51359 1.13174,11.69399c1.19801,2.07125 4.03324,2.16792 5.87374,3.56014c6.91212,5.22855 11.99329,12.39675 11.99141,21.12134c0.11373,1.4196 -0.03908,2.20569 0.80886,3.39559c0.89621,1.25763 6.74394,-1.33875 7.69688,-2.02302c0.64912,-0.46611 0.95495,-1.29485 1.54742,-1.83111c1.39112,-1.25913 3.34985,-1.69356 4.99011,-2.60468c0.74258,-0.41248 1.17286,-1.26124 1.90382,-1.69398c2.08543,-1.23461 3.55264,-1.35821 5.81572,-1.81971l1.99029,-0.04855c0,0 2.5,0 2.5,2.5c0,2.5 -2.5,2.5 -2.5,2.5l-1.00971,-0.04855c-3.39365,0.66282 -5.82432,2.34372 -8.8637,3.78032c-2.00336,0.94691 -1.33772,1.86737 -3.37922,3.2702c-1.18345,0.81321 -2.55342,1.32657 -3.8917,1.84704c-0.75058,0.2919 -1.49605,0.54939 -2.22855,0.75745c0.18481,0.95985 0.29425,1.76261 0.36978,3.26901c0.05947,1.18615 -0.55658,2.64249 0.20084,3.55727c1.4959,1.80668 6.49761,1.0739 8.41109,1.34315c5.05959,0.71196 9.3017,1.01986 13.85528,3.53872l1.52069,0.63753c0,0 2.29786,0.9848 1.31306,3.28266c-0.9848,2.29786 -3.28266,1.31306 -3.28266,1.31306l-1.97931,-0.86247c-4.40718,-2.4604 -9.62549,-2.94834 -14.64918,-3.18796c-1.63166,-0.07783 -3.57721,-0.15177 -5.3482,-0.64356c0.0712,3.88533 -1.0009,7.18507 -2.12661,11.30392c-1.22623,4.48665 -3.11972,9.99261 -6.73756,13.1987c-2.65378,2.35174 -6.40026,3.69556 -9.16886,5.88938c-1.75548,1.39104 -3.17656,3.28765 -5.19125,4.2663c-1.6326,0.79304 -3.45121,1.13333 -5.13576,1.80902c-1.8731,0.73863 -3.8648,1.46695 -5.91263,2.10347c-0.19076,0.31098 -0.37631,0.49654 -0.37631,0.49654c-1.69916,1.3614 -1.6104,4.28405 -1.38164,7.11062c0.05617,-0.00356 0.08782,-0.00356 0.08782,-0.00356l0.06295,0.03401c5.45389,-0.90898 11.15377,-0.7165 16.32566,-2.78525c2.09625,-0.34938 5.04668,-0.79859 6.88063,-2.04933c4.42728,-3.01937 7.12421,-7.11732 12.67523,-8.40887c7.03006,-1.63567 14.34573,2.52394 19.62451,6.62965c2.26731,1.76346 5.11974,3.23382 6.70994,5.80775c2.04579,3.31136 0.88408,6.3074 0.84174,9.90617c-1.57225,3.9923 -4.24658,6.47413 -6.52916,9.90854c-0.47092,0.70855 -0.4699,1.66597 -0.9479,2.36975c-1.04119,1.53299 -2.77601,2.48683 -3.90819,3.95392c-1.26327,1.63696 -2.20467,3.64765 -3.91195,4.81413c-2.43677,1.6649 -5.56058,1.94694 -8.28581,2.69019c-2.65017,0.72277 -5.40662,1.16587 -8.05717,1.8958c-1.95353,0.53798 -3.86086,1.51432 -5.88711,1.51432c-1.95747,0 -3.76041,-1.1164 -5.68623,-1.46697c-1.93858,-0.35289 -3.94523,-0.19392 -5.88828,-0.52131c-5.78776,-2.28242 -11.71592,-3.41415 -17.63174,-5.24226c-2.16203,-0.66811 -4.73737,-2.54725 -7.0096,-2.73011c-1.64456,-0.13235 -7.6638,0.61253 -8.80201,1.9723c-1.19367,1.42602 -0.81324,4.80415 -0.82517,6.43624c-0.0106,1.4514 -0.3655,2.59685 0.53501,3.83724c1.59877,2.20221 3.90945,3.52949 6.24684,4.75538c1.81509,2.8565 4.24257,5.81583 6.94917,7.92097c0.80645,0.62724 1.87419,0.90457 2.599,1.6246c0.65353,0.64923 0.78077,1.70823 1.42185,2.36975c2.41483,2.49184 8.67022,5.12669 12.00554,5.95415c1.26433,0.31367 3.9053,-0.43231 4.97855,-0.51649c3.02758,-0.23747 7.11174,0.02227 10.08569,0.49771c2.41222,0.38564 6.02562,1.83966 8.20691,3.03082c1.40231,0.76577 3.25796,1.17887 4.04735,2.56801c0.68998,1.2142 -0.14017,2.78957 -0.21026,4.18435c-0.03569,3.35989 1.91518,6.13781 0.81549,9.62639c-0.63829,2.02486 -4.79251,6.76845 -6.67026,7.8949c-4.82963,2.89729 -7.1566,-0.79122 -11.72966,-1.51519c-1.89832,-0.30052 -3.79365,-0.61993 -5.68741,-0.9479c-4.81401,-0.83371 -9.80375,0.83224 -14.69249,0c-3.7948,-0.64601 -8.17239,-2.22548 -11.83427,-3.43791c-3.0016,-1.25662 -5.23176,-2.94003 -7.27199,-5.54845c-0.96572,-1.23467 -1.61998,-2.89482 -3.01581,-3.60803c-4.19234,-2.14211 -9.74481,-2.4801 -13.56546,-5.40172c-2.38422,-1.82319 -3.43429,-4.05645 -6.28391,-5.46931c-3.18333,-1.57833 -6.2877,-2.08385 -8.80146,-4.84632c-0.17373,-0.19092 -2.85135,-4.67563 -3.10503,-5.09842c0,0 -0.32964,-0.54942 -0.37704,-1.25885c-0.98734,-1.39459 -1.9178,-2.82623 -3.03861,-3.94705c-1.25173,-1.25173 -3.00406,-1.89534 -4.38101,-3.00489c-0.08347,0.10403 -0.14062,0.16118 -0.14062,0.16118zM197.18036,219.37733c-5.83911,3.48625 -9.59111,8.63181 -15.88199,11.50238c-3.20189,1.46105 -6.69787,2.32779 -9.73891,4.1543c-1.64406,0.98745 -3.06747,2.31467 -4.71197,3.30137c-3.3823,2.02938 -7.50664,4.46347 -8.91803,8.26377c-1.35286,3.30633 -2.7304,8.86603 -1.39701,12.42629c1.19316,3.18584 3.96342,5.73928 6.1521,8.20155c0.32674,0.36758 2.5381,3.34162 3.30502,3.84576c1.2819,0.84268 2.86741,1.09198 4.29176,1.66172c6.23147,2.49259 12.81482,3.93926 18.8608,0.35068c2.59682,-2.50871 2.02178,-5.32366 2.92261,-8.6561c0.70081,-2.5925 1.59,-4.37158 1.33791,-7.17733c-0.32031,-3.56503 -1.47692,-8.73144 -0.39176,-12.24837c2.08787,-6.76663 11.95315,-8.2364 17.23739,-11.42938l-0.00758,-0.09798c0,0 0.06834,-0.06834 0.1916,-0.16472c-0.14161,-0.12512 -0.28676,-0.24631 -0.43631,-0.36257c-1.53145,-1.19054 -3.38496,-1.60218 -4.84613,-2.9318c-1.46123,-1.32968 -4.50971,-5.31516 -3.49642,-7.60672c0.03202,-0.0724 0.0657,-0.14271 0.10098,-0.21098c-1.45467,-0.93251 -2.91298,-1.9364 -4.30322,-3.01947c-0.15816,0.13002 -0.27083,0.19762 -0.27083,0.19762zM190.8108,212.18314c-0.17796,-0.44118 -2.05237,-5.04438 -2.11107,-5.37765c-0.1992,-1.13086 -0.25941,-2.37331 -0.20021,-3.67211c-0.1178,0.01192 -0.18861,0.01192 -0.18861,0.01192c-4.88369,-0.01364 -10.15789,-0.17435 -14.82117,-1.49558c-1.2591,-0.35673 -2.79731,-0.12215 -3.80862,-0.95272c-2.54921,-2.09363 -1.33728,-3.86408 -2.20034,-6.29719c-0.59437,-1.67561 -2.0309,-2.94118 -2.76896,-4.55865c-1.13977,-2.4978 -1.29351,-5.71026 -2.38126,-8.08254c-0.84552,-1.844 -2.63414,-3.29364 -3.01582,-5.28602c-0.55046,-2.87342 0.43736,-5.90694 0.43736,-8.79769c-0.21807,-1.30842 0.23117,-7.31113 -1.78288,-7.84948c-3.99112,-1.06681 -8.02837,2.94733 -10.64662,5.24053c-0.55846,0.48912 -2.35252,2.15107 -2.57567,3.07008c-0.83759,3.44938 1.01959,7.2978 1.03861,10.7075c0.00536,0.96096 -0.46002,1.88283 -0.47395,2.84371c-0.02508,1.72972 0.95157,3.48962 1.34814,5.08479c0.65025,2.6156 0.69402,5.03384 1.70914,7.54889c1.56992,2.59815 3.06759,4.33146 4.94436,6.68165c1.19056,1.49089 1.52251,3.12299 2.9923,4.39562c2.52381,2.18528 5.73808,4.60859 8.61863,6.35772c3.20234,1.94453 7.43188,2.42316 10.92482,3.58604c3.76946,1.25493 7.45408,2.66895 11.39364,3.20837l1.54225,-0.02513c0,0 0.09824,0 0.25577,0.01947c1.43451,-1.02406 3.08621,-1.98739 4.53372,-2.84064c-1.04672,-1.10384 -1.98443,-2.27568 -2.76355,-3.5209zM207.74172,182.24633c-1.92753,0.29629 -6.34252,3.40599 -7.39074,5.08271c-0.45099,0.7214 -0.47505,1.66249 -0.9479,2.36975c-0.94502,1.41352 -2.41607,2.47381 -3.16515,4.00025c-1.56847,3.19617 -3.31536,8.55779 -2.62843,12.16091c0.27669,1.4513 1.13648,2.72775 1.68053,4.10137c0.68873,1.24181 1.96964,2.0602 3.09053,2.93201c2.93589,2.28347 5.02133,4.5076 8.27883,6.4621l0.64714,0.57565c0.67541,-0.00265 1.31452,0.01997 1.85823,0.01599c0.4558,-0.00334 5.85396,-0.00562 6.08787,0.03228c0.92915,0.15057 1.73144,0.82936 2.66777,0.92572c2.73138,0.28111 4.04607,-1.03666 5.49589,-2.96902c1.04758,-0.99034 1.96209,-2.26878 2.28024,-3.67484c0.3464,-1.5309 1.04677,-3.05413 0.91807,-4.61845c-0.08974,-1.09071 -2.10628,-1.80977 -2.62173,-2.11422c-3.89083,-2.2981 -10.10871,0.18027 -11.98635,-5.14478c-1.11747,-3.16918 1.56825,-6.98197 2.31518,-9.92432c0.71003,-2.79697 0.00663,-5.47824 0.4244,-8.27525c0.10958,-0.73365 0.27101,-1.46305 0.42841,-2.19257c-2.43192,0.16578 -4.78715,-0.15198 -7.43278,0.2547zM265.22469,213.61212c-1.11804,-2.23607 1.11804,-3.3541 1.11804,-3.3541l-0.07779,0.47588c0.86796,-1.4466 2.07918,-2.72648 2.6414,-4.31705c0.32027,-0.90604 0.14313,-1.94147 0.47395,-2.84371c0.98679,-2.69124 2.47004,-3.92615 2.69826,-6.92565c0.21851,-2.87183 -0.68021,-6.95837 -0.2969,-10.14244c-1.66775,0.26964 -3.32785,0.42485 -4.94885,0.42454c-4.57839,-0.00084 -9.13911,-1.00191 -13.73874,-0.99997c-5.71936,0.0024 -11.78313,0.99241 -17.44378,-0.0397c-3.77034,-0.68745 -7.07316,-2.59341 -10.85924,-3.27223c-1.3432,-0.36623 -2.91257,-0.72947 -4.44632,-1.19527c-0.20464,1.15303 -0.46369,2.30163 -0.64696,3.45528c-0.46931,2.95414 0.2192,5.77939 -0.52351,8.78701c-0.53213,2.1549 -2.38746,4.86591 -2.42433,7.13792c-0.00076,0.04673 6.73333,0.71096 7.02319,0.81429c3.04486,1.08545 7.00325,3.72307 7.75371,7.09316c0.91091,4.09064 -1.73758,9.80394 -4.38491,12.56058c-2.639,3.15209 -5.24517,4.87296 -9.67056,4.6142c-1.05542,-0.06171 -1.97768,-0.7912 -3.01965,-0.97008c-1.73694,-0.29817 -3.52468,0.04752 -5.28696,0.03228c-0.38761,-0.00335 -1.00308,0.03503 -1.57552,0.03362c0.92104,0.85659 1.78546,1.79174 2.86176,2.43192c2.65612,1.57984 4.27678,3.47012 6.54243,5.49438c1.47208,1.31524 3.44411,2.01685 4.83997,3.41271c1.58208,1.58208 2.73676,3.70573 4.21389,5.521c1.73181,0.45088 1.73181,2.40813 1.73181,2.40813l-0.6524,0.34268c0.42149,0.80506 0.86865,1.59155 1.45667,2.27774c1.72469,2.0126 5.09183,2.56638 7.31288,3.6848c3.04774,1.53469 4.51352,3.93589 6.98673,5.90552c3.48729,2.77724 9.14164,2.84496 12.97581,5.02522c4.07093,2.31489 5.12081,7.18534 9.61816,8.85366c3.36433,1.13047 7.43358,2.63237 10.91539,3.19741c6.72861,1.09193 13.60984,-0.22855 20.37991,0.9479c1.77858,0.30907 6.62154,3.57769 8.17629,2.27642c1.34586,-1.12644 4.10925,-3.769 4.70457,-5.37573c0.53226,-1.43653 -0.88051,-3.79302 -1.05656,-4.9334c-0.17548,-1.13668 -0.01584,-2.30024 -0.02376,-3.45036c0.24588,-0.50102 0.99015,-1.00534 0.73764,-1.50306c-0.25081,-0.49437 -1.10941,-0.11532 -1.64006,-0.2757c-0.05759,-0.0174 -4.53756,-1.81486 -4.57527,-1.82894c-3.21323,-1.19964 -7.80514,-1.5848 -11.25664,-1.27783c-2.56265,0.22791 -3.66877,1.02859 -6.39628,0.43141c-4.2941,-0.94018 -11.3599,-4.21912 -14.53573,-7.31649c-0.65948,-0.64318 -0.77289,-1.71597 -1.42185,-2.36975c-0.57846,-0.58276 -1.49237,-0.71499 -2.14052,-1.21911c-2.74457,-2.13466 -5.59809,-5.17921 -7.26936,-8.19338c-2.63103,-1.23944 -5.4088,-3.12816 -7.02379,-5.67154c-3.32334,-5.23379 -2.03752,-15.91963 4.06703,-18.41475c1.65127,-0.67493 5.65494,-1.42792 8.20396,-1.56806c-0.03325,-0.05784 -0.06568,-0.11826 -0.09722,-0.18134zM274.07236,205.30069c-0.32574,0.90409 -0.13869,1.94311 -0.47395,2.84371c-0.10751,0.28879 -2.76399,4.69195 -3.04601,5.16197l-1.44305,1.04104c1.95608,0.68968 3.85544,1.82122 5.7559,2.40326c5.84962,1.79151 11.74029,2.86684 17.44067,5.18466c1.81015,0.29709 3.6817,0.09878 5.48654,0.4266c1.61903,0.29407 3.09518,1.37674 4.7407,1.37674c2.31565,0 2.29014,-0.72125 4.53983,-1.32939c2.67045,-0.72188 5.39708,-1.17033 8.05717,-1.89581c2.22363,-0.60645 4.85255,-0.75262 6.88063,-2.04933c1.45881,-0.93273 1.69248,-2.40076 2.72337,-3.71699c3.51567,-4.48875 8.18256,-8.68257 10.4165,-14.10068c-0.02472,-1.74132 1.01535,-4.74876 -0.10616,-6.20817c-1.55668,-2.02569 -3.66969,-3.10788 -5.6128,-4.61918c-4.71592,-3.66793 -11.95614,-8.04531 -18.1686,-4.96249c-3.06612,1.52151 -5.43845,5.099 -8.30163,6.97488c-2.34713,1.53778 -5.5808,2.23935 -8.28581,2.69018c-5.35456,2.14183 -11.21578,1.96297 -16.85093,2.90216l-0.80477,0.03093c-0.38891,3.19649 -1.90169,4.94301 -2.94761,7.84589zM208.36183,97.16184l0.98223,1.01777c2.64303,3.54007 3.5739,6.17206 3.98783,10.50366c0.20575,2.15302 0.48632,4.56896 -0.55481,6.46471c-1.43153,2.60661 -4.65212,3.33644 -5.97883,5.71128c-1.64793,2.94983 0.17552,8.21925 0.76829,11.20039c0.32292,3.33936 -0.29246,6.79127 0.47223,10.09708c0.68341,2.95443 1.19709,5.83496 1.76357,8.81803c0.51776,2.72652 1.97613,5.31216 2.49662,7.98208c0.64083,3.28729 -0.4888,6.82466 0.2234,10.1283c0.58269,2.7029 2.7371,2.82905 4.67496,4.42625c0.63324,0.52192 0.92884,1.39428 1.59167,1.87807c1.76112,1.28545 5.04143,1.78827 7.1081,2.35208c3.70551,0.68242 6.96988,2.56275 10.64076,3.22777c5.34012,0.96742 11.15663,-0.04188 16.55622,-0.0397c4.60611,0.00186 9.18096,1.00103 13.76126,1.00003c5.19666,-0.00113 11.06627,-1.89067 15.81026,-3.82122c1.59438,-0.63612 3.30296,-0.97746 4.86424,-1.69098c2.01358,-0.92023 2.48739,-2.30063 4.30875,-3.7337c2.67051,-2.1012 6.25562,-3.39815 8.83114,-5.61062c1.56313,-1.34278 2.82248,-4.09175 3.64375,-5.91765c2.34747,-5.21906 4.3768,-11.59828 3.32093,-17.27865c0,0 -0.2137,-1.17534 0.46682,-2.04881c-0.63719,-2.24115 -0.54207,-5.07464 -0.7509,-7.39132c-2.12871,-0.45501 -3.87143,-1.93864 -4.90774,-5.06221c-0.32431,-0.97751 -0.23027,-2.04689 -0.34541,-3.07034c-0.00157,-7.34639 -4.21706,-12.88321 -10.00859,-17.37866c-1.36458,-1.0592 -3.30381,-1.17419 -4.68943,-2.20572c-2.01208,-1.49791 -3.10783,-3.58612 -3.73337,-5.94568c-0.92169,-3.47661 -0.57958,-7.53955 -0.57171,-11.09447c0.00182,-0.82235 -0.02776,-1.69832 0.00493,-2.57453c-0.10147,0.13508 -0.20826,0.27162 -0.32158,0.40951c-2.81492,3.42524 -6.50218,7.3859 -10.55676,9.3968c-3.96332,1.96564 -8.86224,1.67992 -12.93381,3.33365c-7.25897,2.94834 -14.74703,4.6584 -22.44643,6.17241c-1.35256,-0.04105 -2.79013,0.35058 -4.05769,-0.12315c-3.36423,-1.25732 -3.92607,-3.08337 -4.64101,-6.12889c-0.05053,-0.21526 -0.19568,-3.57423 -0.66399,-4.07243c-1.15688,-1.23072 -3.22109,-1.15333 -4.59544,-2.13526c-1.39831,-0.99906 -2.43331,-2.56722 -4.01945,-3.22871c-2.34771,-0.9791 -5.15523,-1.13 -7.59316,-1.86627c-0.46561,-0.14062 -0.89196,-0.56959 -1.3726,-0.49506c-2.77435,0.43025 -2.72017,6.19558 -2.15845,7.84356c0,0 0.06689,0.22296 0.09181,0.55321c0.33193,0.19792 0.53139,0.39739 0.53139,0.39739z" fill="#ffffff" stroke="none" stroke-width="0.5"/><g fill="#ffffff" stroke="none" stroke-width="0.5"><path d="M18.59525,321.99196c0.16467,4.07513 5.74748,8.0054 6.01626,12.75747c0.48929,8.65051 -13.19939,16.84788 -20.54809,11.216c-3.2904,-2.52169 -2.55935,-6.16826 1.5521,-7.53875c2.24911,-0.74971 9.34101,2.87872 10.90586,-1.73347c1.66653,-4.91193 -6.35523,-9.9078 -5.8705,-15.28829c0.29094,-3.22932 3.76492,-10.56008 7.64854,-10.52847c0.39908,0.00326 0.98761,-0.16992 1.61932,-0.32947c0.01297,-0.00334 0.02593,-0.00661 0.03895,-0.00981c0.30492,-0.0751 0.62374,-0.11495 0.95186,-0.11495c2.19057,0 3.96639,1.77582 3.96639,3.96639c0,2.19057 -1.77582,3.96639 -3.96639,3.96639c-0.03154,0 -0.06299,-0.00038 -0.09435,-0.00111c-1.24681,1.19052 -2.26846,2.43732 -2.21994,3.63806z"/><path d="M44.44345,327.08107c-0.62172,1.08802 -2.30577,2.49158 -3.80492,3.96317c-1.86698,1.83266 -3.44719,3.77086 -2.33178,5.33659c3.00719,4.22129 13.54062,-0.57814 13.54062,6.03695c0,4.8834 -9.45741,4.91944 -12.88905,4.02726c-6.53728,-1.69959 -13.30775,-13.18816 -6.77644,-18.75925c0.72188,-0.61574 8.44115,-7.29045 10.30824,-4.02303z"/><path d="M62.76601,323.79785c2.29276,-1.31377 9.60085,-3.14736 10.91713,0.80151c2.75191,8.25573 -5.75745,3.43614 -8.0856,7.64903c-2.32299,4.20355 1.10221,11.7075 -3.86451,15.08187c-0.1978,0.13439 -0.43122,0.24665 -0.68966,0.3356c-0.47018,0.19639 -0.98622,0.30485 -1.52762,0.30485c-0.36113,0 -0.71099,-0.04826 -1.04347,-0.13869c-1.79463,-0.30331 -3.42192,-1.47175 -2.92158,-3.72325c-0.00091,-0.03471 -0.00134,-0.06953 -0.00134,-0.10444c0,-0.56247 0.11707,-1.09759 0.32818,-1.58232c1.10483,-6.29652 0.69502,-15.07525 6.88847,-18.62417z"/><path d="M77.62894,334.71637c0.27325,-0.1537 0.67434,-0.29863 1.17856,-0.43164c2.1798,-5.70767 6.24389,-16.74008 12.17497,-18.04513c2.72911,-0.60051 5.39977,2.77851 6.61066,4.49524c3.70056,5.24645 5.71604,13.69651 8.52252,19.63538c1.16666,2.46877 2.97848,6.15237 -0.66689,7.97504c-2.71164,1.35582 -5.89532,-2.88391 -8.34815,-7.44023c-3.71662,1.39853 -9.71717,1.1973 -12.19994,1.24832c-0.28467,0.00586 -0.58581,0.03171 -0.89761,0.06947c-0.05908,0.23588 -0.11262,0.46757 -0.1601,0.69437c-0.19313,0.92262 -0.03185,3.97625 -0.81251,4.42234l-3.4183,1.95331c-1.62342,-0.92766 -3.64314,-2.12476 -3.96639,-3.96639v0c-0.28401,-1.61811 0.08366,-3.30448 0.66357,-4.94246c-0.41922,-0.62895 -0.66357,-1.38448 -0.66357,-2.19704c0,-1.29077 0.61657,-2.43755 1.57126,-3.16187c0.12211,-0.11822 0.25826,-0.22229 0.41194,-0.30873zM93.21628,332.00945c-0.52649,-1.76758 -0.89767,-3.92994 -1.67157,-5.62857c-0.25558,-0.56096 -0.65291,1.046 -0.96399,1.5782c-0.54257,0.92823 -1.21765,1.75995 -1.71401,2.70322c-0.44115,0.8384 -0.92487,1.78475 -1.41478,2.79146c2.18608,-0.00346 4.4343,0.12263 6.42397,0.41857c-0.31437,-0.81454 -0.54055,-1.46319 -0.65961,-1.86291z"/><path d="M131.42219,328.40321c3.55723,-0.03982 9.22611,-2.32694 11.78442,0.23137c8.09121,8.09123 -8.22404,7.6895 -11.50253,7.70141c-0.49845,0.0018 -0.99689,0.00423 -1.49536,0.00709c0.32982,3.47601 0.48169,6.54572 0.43765,8.45455c-0.06005,2.60172 1.12309,6.27456 -2.4477,7.46481c-3.45869,1.1529 -4.91086,-1.6522 -5.54598,-4.09512c-0.88395,-3.40009 -0.01221,-7.65041 -0.20353,-11.18767c-0.01048,-0.19397 -0.02342,-0.38813 -0.03863,-0.58246c-3.16065,0.01542 -6.3211,0.01035 -9.48071,-0.0612c-0.0422,-0.00095 -0.08542,-0.00159 -0.12946,-0.00208c-2.13065,-0.06833 -3.83693,-1.81706 -3.83693,-3.96431c0,-1.83294 1.2433,-3.3755 2.93258,-3.83031c2.23444,-1.85992 4.62711,-1.47943 8.73319,-0.91242c-0.87308,-3.13983 -1.83327,-6.27136 -2.3446,-9.33936c-0.0435,-0.2353 -0.06626,-0.47787 -0.06626,-0.72577c0,-2.09899 1.63043,-3.81718 3.6939,-3.95718c1.13569,-0.20456 2.35115,0.16316 3.36981,1.43041c1.67653,2.08563 3.01012,7.53994 3.92918,13.35497c0.70565,0.01656 1.44196,0.02188 2.21095,0.01328z"/><path d="M159.87721,333.77933c1.42002,5.5512 10.6975,-0.41464 10.6975,6.78748c0,5.74424 -9.94935,4.18118 -13.14415,2.22553c-4.96592,-3.03983 -8.09911,-11.53047 -5.36005,-16.92328c0.31819,-0.62643 3.07497,-6.95014 5.3463,-6.3307c0.31775,-0.082 0.65091,-0.12565 0.99427,-0.12565c2.19057,0 3.96639,1.77582 3.96639,3.96639c0.23744,0.3067 0.02993,0.81857 -0.16964,1.15116c-0.19502,0.64405 -0.54943,1.21886 -1.01733,1.6785c-1.5349,2.55652 -2.20544,4.08308 -1.31334,7.57054z"/><path d="M201.24814,345.06206c0.29587,4.48677 -3.80836,6.93395 -7.43698,3.30532c-2.394,-2.39401 -0.33673,-7.76637 -5.6521,-7.76637c-3.35854,0 -3.72184,4.63035 -5.11468,7.62595c-0.19418,0.55331 -0.50759,1.05053 -0.90937,1.46088c-0.18737,0.21247 -0.39175,0.39814 -0.61695,0.55114c-0.1978,0.13439 -0.43121,0.24665 -0.68966,0.3356c-0.47018,0.19639 -0.98623,0.30485 -1.52762,0.30485c-0.36113,0 -0.71099,-0.04826 -1.04347,-0.13869c-0.62865,-0.10626 -1.23677,-0.31866 -1.74009,-0.64659c-1.49397,0.04376 -2.6585,-0.85129 -2.4492,-3.57219c-0.03668,-0.21674 -0.05579,-0.43946 -0.05579,-0.66663c0,-0.42923 0.06817,-0.84254 0.19428,-1.22968c1.01418,-7.08952 0.2877,-14.39906 0.59899,-21.51096c0.11632,-2.65762 2.09894,-5.68486 5.4851,-4.55613c3.74817,1.2494 2.39559,4.56835 2.4477,7.17869c0.03958,1.98326 0.27496,4.95794 0.40186,8.12127c7.7142,-3.75061 17.51754,2.25029 18.10796,11.20354z"/><path d="M210.23862,312.00879c2.70523,2.02127 3.50185,3.66141 3.67808,5.45379c0.23385,2.37837 -0.62464,5.02476 0.43432,9.18537c0.55562,2.18298 1.61176,11.67148 4.17569,12.28893c7.9007,1.90265 5.588,-13.0625 6.56651,-15.01955c1.67238,-3.34475 3.24024,-3.86738 6.58499,-2.19498c3.39524,1.69762 1.88809,10.3946 0.61787,12.68553c-4.01723,7.24531 -7.47968,14.58382 -17.29186,12.13078c-5.77455,-1.44365 -9.2173,-19.69581 -9.26088,-22.36625c-0.01975,-1.21107 -0.53861,-10.35883 1.66847,-10.97959z"/><path d="M249.50591,324.46986c-0.01478,0.00833 -0.05485,0.01754 -0.11407,0.02867c-0.48328,0.25868 -1.02639,0.42018 -1.60322,0.45835c-0.23961,0.14403 -0.40183,0.33285 -0.38896,0.58248c0.16054,3.1176 3.58532,5.77138 3.58532,9.16734c0,4.47912 -1.42112,6.57613 -4.15631,9.91254c-0.87573,1.06821 -3.82407,4.00926 -5.60947,3.37617c-9.91696,-3.51638 1.04834,-7.45051 1.80827,-11.53811c0.87783,-4.72162 -5.8059,-8.53987 -3.20615,-13.73932c0.74791,-1.49578 7.36745,-9.24438 9.71448,-5.13707c1.16905,0.68996 1.95332,1.96254 1.95332,3.4183c0,1.29077 -0.61657,2.43754 -1.57126,3.16184c-0.12211,0.11822 -0.25826,0.22229 -0.41194,0.30875z"/><path d="M274.49417,343.21108c0,1.45576 -0.78426,2.72834 -1.95332,3.4183l-0.02988,0.05229l-0.11355,0.02839c-0.55704,0.29828 -1.1936,0.46741 -1.86965,0.46741h-1.85098l-0.61856,-0.15464l-0.63572,-0.0489l-0.18265,-0.06087h-0.94291l-0.61856,-0.15464l-0.63572,-0.0489l-0.64876,-0.21624l-0.90992,-0.22749l-0.38542,-0.20555l-0.42641,-0.09477l-1.05771,-0.52884l-0.48411,-0.41495l-0.54674,-0.32803l-1.04442,-1.04442l-0.46649,-0.311l-0.26575,-0.29232l-0.33876,-0.20325l-0.79328,-0.79328l-0.20325,-0.33876l-0.29232,-0.26575l-1.05771,-1.58655l-0.17818,-0.49892l-0.28443,-0.44696l-0.17528,-0.52587l-0.13836,-0.27672l-0.06192,-0.27869l-0.15328,-0.24086l-0.26443,-0.79328l-0.0489,-0.63572l-0.15464,-0.61856v-5.68905l-0.71625,-3.58127l0.01879,-0.3946l-0.09581,-0.38326v-2.37984l0.09581,-0.38326l-0.01879,-0.3946l0.26443,-1.32213l0.2268,-0.47879l0.07136,-0.32112l-0.00077,-0.00282l0.00222,-0.0037l0.04213,-0.18954l0.26443,-0.52884l0.25959,-0.30286l0.00937,-0.0198l0.01063,-0.00354l0.13535,-0.15791l0.12818,-0.21365l0.03495,-0.10486l0.48929,-0.76889l0.46889,-0.78149l0.07815,-0.07815l0.06116,-0.09611l0.04369,-0.00875l0.34586,-0.34586l0.54674,-0.32803l0.32013,-0.27439l0.71969,-0.71969l0.54674,-0.32803l0.48411,-0.41495l0.52884,-0.26443l0.18954,-0.04213l0.0037,-0.00222l0.00282,0.00077l0.23036,-0.0512l0.38542,-0.20555l1.05771,-0.26443h0.48827l0.47369,-0.11842h2.1154l0.47369,0.11842h0.48827l2.1154,0.52884l0.13722,0.07319l0.15507,0.01194l1.34104,0.44701l0.04298,-0.01172l0.09768,0.05861l0.10486,0.03495l0.76889,0.48929l0.78149,0.46889l0.07815,0.07815l0.09611,0.06116l0.00875,0.04369l0.61029,0.61029l0.20325,0.33876l0.29232,0.26575l0.52884,0.79328l0.17818,0.49892l0.17359,0.27278l0.21036,0.21036l0.20325,0.33876l0.29232,0.26575l0.52884,0.79328l0.0843,0.23603l0.16311,0.1903l0.52884,1.05771l0.06192,0.27869l0.15328,0.24086l0.79328,2.37984l0.0489,0.63572l0.15464,0.61856v3.17874l0.02471,0.03706l-0.02471,0.11121v0.11052l-0.22104,0.88415l-0.1977,0.88966l-0.04943,0.09886l-0.01729,0.06919l-0.1977,0.88966l-0.04943,0.09886l-0.02764,0.11052l-0.03868,0.02209l-0.1487,0.29738l-0.21076,0.24588l-0.01097,0.19758l-0.59696,0.51168l-0.51168,0.59696l-0.19758,0.01097l-0.0819,0.07019l-0.19085,0.19085l-0.54674,0.32803l-0.48411,0.41495l-1.35508,0.67754l-0.02209,0.03868l-0.11052,0.02764l-0.09886,0.04943l-0.88966,0.1977l-0.88415,0.22104h-0.11052l-0.11121,0.02471l-0.03305,-0.02204l-0.18319,0.04072l-0.42494,0.10623l-1.05293,0.35098l-0.27672,0.13836l-0.27869,0.06192l-0.24086,0.15328l-0.79328,0.26443l-0.63572,0.0489l-0.57347,0.14337l0.71788,0.71788l0.09256,0.04628l0.6353,0.15883l0.13722,0.07319l0.15507,0.01194l0.18265,0.06087h0.94291l0.61856,0.15464l0.63572,0.0489l0.18265,0.06087h1.20733c0.67606,0 1.31261,0.16914 1.86965,0.46741l0.11355,0.02839l0.02988,0.05229c1.16905,0.68996 1.95332,1.96254 1.95332,3.4183zM266.62922,329.1356l0.51966,-0.03999l0.0185,-0.00925l0.88966,-0.1977l0.59804,-0.14951l0.28612,-0.14305v-1.92908l-0.50059,-1.50179l-0.29236,-0.58471l-0.17402,-0.26102l-0.33256,-0.33256l-0.04369,-0.00875l-0.06116,-0.09611l-0.07815,-0.07815l-0.46889,-0.78149l-0.48929,-0.76889l-0.03495,-0.10486l-0.05861,-0.09768l0.0018,-0.00665l-0.42829,-0.14276l-1.49391,-0.37347h-1.04189l-0.42484,0.42484l-0.54674,0.32803l-0.00647,0.00553l-0.30004,0.47148l-0.32249,0.53747l-0.0424,0.21194v1.59434l0.71625,3.58127l-0.01879,0.3946l0.09581,0.38326v0.9916l1.39176,-0.34794l0.25966,-0.08655l0.27672,-0.13836l0.27869,-0.06192l0.24086,-0.15328z"/><path d="M285.43966,323.74755c2.9679,-3.26575 15.19058,-6.87245 17.50091,0.05853c0.42134,1.26404 0.81759,2.79936 0.22172,3.99112c-3.49011,6.98021 -8.64543,-3.66379 -11.48044,0.92682c-1.77877,2.88028 -0.51636,11.2232 -3.08331,15.919c-0.53713,0.98258 -2.19104,2.24263 -3.83158,2.79868c-2.08373,0.70625 -4.14592,0.27678 -3.87081,-3.29957c-0.03668,-0.21674 -0.05579,-0.43946 -0.05579,-0.66663c0,-0.4639 0.07963,-0.90918 0.226,-1.32293c0.84168,-4.95204 2.85353,-16.7327 4.37328,-18.405z"/><path d="M323.71048,325.89116c1.62602,3.25203 0.15491,7.80535 -1.656,10.63455c-0.01598,0.02496 -2.75163,2.81157 -2.45242,3.51768c1.21465,2.8665 10.28233,-2.78727 9.89273,4.2254c-0.40962,7.37304 -19.57539,4.94331 -19.78521,-3.69261c-0.09934,-4.08896 6.97037,-6.92011 6.5639,-11.63309c-0.13972,-1.61986 -3.1348,-1.12288 -5.33656,-1.07451c-0.07163,0.00385 -0.14379,0.00581 -0.21639,0.00581c-0.04572,0 -0.09126,-0.00077 -0.1366,-0.00231c-2.12731,-0.072 -3.82979,-1.81922 -3.82979,-3.9641c0,-2.19057 1.77582,-3.96639 3.96639,-3.96639c0.34202,0 0.67392,0.04328 0.99053,0.12469c4.40034,-1.11728 9.78006,1.38622 11.9994,5.8249z"/><path d="M346.32719,340.78785l0.59804,-0.14951l0.31642,-0.1582l0.07372,-0.07372l0.4958,-0.29747l0.29747,-0.4958l0.36878,-0.36878l-0.28909,-1.15636l-0.23405,-0.58512l-0.47852,-0.63803l-0.04374,-0.10387l-0.08339,-0.07581l-0.52884,-0.79328l-0.0843,-0.23603l-0.16311,-0.1903l-0.14639,-0.29278l-0.10978,-0.00609l-0.13342,-0.15567l-0.3707,-0.09267l-1.16687,-0.23336l-1.19968,-0.19994h-1.90069l-0.2549,0.42484l-0.25114,0.25114l-0.01636,0.02452l-0.09646,0.28938l-0.28443,0.44696l-0.17818,0.49892l-0.12713,0.19069v0.81754l0.04088,0.11448l0.28443,0.44696l0.26443,0.79328l0.01923,0.24989l0.1073,0.22651l0.16025,0.80128l0.02688,0.05375l0.06192,0.27869l0.15328,0.24086l0.17528,0.52587l0.02793,0.05587l0.20332,0.30499c0.19809,0.10032 0.38664,0.21679 0.56392,0.34765l0.1586,-0.27754l1.52398,-0.381l0.52706,-0.1757l0.63572,-0.0489l0.61856,-0.15464h0.24273zM340.34447,349.01921l-0.05089,0.03394l-0.11728,-0.02607c-0.03471,0.00091 -0.06953,0.00134 -0.10445,0.00134c-0.66619,0 -1.29401,-0.16424 -1.84519,-0.45442l-0.98632,-0.49317l-0.24588,-0.21076l-0.19758,-0.01097l-0.51168,-0.59696l-0.59696,-0.51168l-0.01097,-0.19758l-0.21076,-0.24588l-0.15399,-0.30799l-0.39188,-0.58782l-0.0843,-0.23603l-0.16311,-0.1903l-0.26443,-0.52884l-0.06192,-0.27869l-0.15328,-0.24086l-0.17528,-0.52587l-0.13836,-0.27672l-0.11492,-0.51718l-0.2268,-0.47879l-0.216,-1.07998l-0.01838,-0.05509l-0.2342,-0.35131l-0.05367,-0.1503l-0.11667,-0.06666l-0.21669,-0.86676l-0.3005,-0.8414l0.0601,-0.1202l-0.03871,-0.15481v-2.64426l0.15464,-0.61856l0.0489,-0.63572l0.26443,-0.79328l0.28443,-0.44696l0.17818,-0.49892l0.2342,-0.35131l0.09646,-0.28938l0.28443,-0.44696l0.17818,-0.49892l0.52884,-0.79328l0.29232,-0.26575l0.20325,-0.33876l0.02384,-0.02384l-0.00115,-0.01683l0.69022,-0.75923l0.66777,-0.77906l0.0607,-0.00338l0.7497,-0.4998l0.23603,-0.0843l0.1903,-0.16311l0.52884,-0.26443l0.27869,-0.06192l0.24086,-0.15328l0.79328,-0.26443l0.63572,-0.0489l0.61856,-0.15464h2.90868l0.3216,0.0804l0.33046,-0.02644l1.58655,0.26443l0.06021,0.02618l0.06559,-0.00312l1.32213,0.26443l0.0874,0.04141h0.09672l0.58399,0.146h0.04057l1.9832,0.4958l0.07771,0.13599l0.15639,0.00869l0.85791,1.00088l0.52276,0.31366l0.52884,0.52884l0.32803,0.54674l0.41495,0.48411l0.41842,0.83683l0.33081,0.49621l0.72723,0.96963l0.20313,0.48241l0.30645,0.42433l0.52884,1.32213l0.03687,0.27035l0.12841,0.24074l0.52884,2.1154v0.48827l0.11842,0.47369v1.05771l-0.15464,0.61856l-0.0489,0.63572l-0.26443,0.79328l-0.28443,0.44696l-0.17818,0.49892l-0.52884,0.79328l-0.29232,0.26575l-0.20325,0.33876l-0.45527,0.45527l-0.07019,0.0819l-0.01097,0.19758l-0.59696,0.51168l-0.51168,0.59696l-0.19758,0.01097l-0.0819,0.07019l-0.19085,0.19085l-0.54674,0.32803l-0.48411,0.41495l-1.35508,0.67754l-0.02209,0.03868l-0.11052,0.02764l-0.09886,0.04943l-0.88966,0.1977l-0.88415,0.22104h-0.11052l-0.11121,0.02471l-0.03305,-0.02204l-0.18319,0.04072l-0.88415,0.22104h-0.11052l-0.11121,0.02471l-0.00068,-0.00045l-0.10986,0.03662l-0.63572,0.0489l-0.61856,0.15464h-0.52884l-0.20303,-0.05075l-0.05204,0.004l-0.02638,-0.02361l-1.70175,-0.42543l-0.1586,-0.27754c-0.58986,0.4355 -1.3047,0.71143 -2.08082,0.76411z"/><path d="M368.62986,321.79255c2.19057,0 3.96639,1.77582 3.96639,3.96639c0,0.07388 -0.00202,0.14731 -0.00601,0.22022l0.0274,0.05481l-0.04004,0.11214c-0.06639,0.6854 -0.30724,1.31976 -0.67759,1.85813l-0.36179,0.5427l-0.02793,0.05587l-0.0972,0.29159l-0.13897,0.69486v2.68488l0.44411,-0.29606l0.49892,-0.17818l0.44696,-0.28443l0.79328,-0.26443l0.63572,-0.0489l0.61856,-0.15464h1.32776l0.03706,-0.02471l0.11121,0.02471h0.11052l0.88415,0.22104l0.88966,0.1977l0.09886,0.04943l0.11052,0.02764l0.00675,0.01184l0.5586,0.13965l0.0199,0.01062l0.06987,-0.01906l0.84475,0.50684l0.86923,0.46359l0.01961,0.06972l0.01933,0.0116l1.32213,1.32213l0.20325,0.33876l0.29232,0.26575l1.05771,1.58655l0.17818,0.49892l0.28443,0.44696l1.05771,3.17311l0.0489,0.63572l0.15464,0.61856v0.79328l-0.11842,0.47369v0.48827l-0.26443,1.05771l-0.5049,0.94668l-0.01714,0.3086l-0.27161,0.23282l-0.16834,0.31565l-0.29753,0.08367l-0.65063,0.55769l-0.71969,0.71969l-0.33876,0.20325l-0.26575,0.29232l-0.79328,0.52884l-0.23603,0.0843l-0.1903,0.16311l-0.29738,0.1487l-0.02209,0.03868l-0.11052,0.02764l-0.09886,0.04943l-0.88966,0.1977l-0.88415,0.22104h-0.08639l-0.27374,0.146l-0.89956,0.2249l-0.03788,0.03954h-2.16448l-0.03788,-0.03954l-0.42587,-0.10646h-0.83384l-0.38326,-0.09581l-0.3946,0.01879l-1.32213,-0.26443l-0.22651,-0.1073l-0.24989,-0.01923l-0.79328,-0.26443l-0.24086,-0.15328l-0.27869,-0.06192l-0.27672,-0.13836l-0.28034,-0.09345l-0.04298,0.01172l-0.09768,-0.05861l-0.10486,-0.03495l-0.76889,-0.48929l-0.78149,-0.46889l-0.07815,-0.07815l-0.09611,-0.06116l-0.00875,-0.04369l-1.13913,-1.13913l-0.20325,-0.33876l-0.29232,-0.26575l-0.52884,-0.79328l-0.17818,-0.49892l-0.28443,-0.44696l-0.79328,-2.37984l-0.0489,-0.63572l-0.15464,-0.61856v-0.66495l-0.18741,-0.93701l0.03704,-0.77787l-0.03704,-0.77787l0.18741,-0.93701v-7.01118l0.09581,-0.38326l-0.01879,-0.3946l0.26443,-1.32213l0.1073,-0.22651l0.01923,-0.24989l0.26443,-0.79328l0.15328,-0.24086l0.06192,-0.27869l0.26443,-0.52884l0.16311,-0.1903l0.0843,-0.23603l0.49472,-0.7421c0.36391,-0.56348 0.86676,-1.02882 1.46011,-1.34755l0.08663,-0.07874l0.05953,0.00411c0.52234,-0.25323 1.10864,-0.39524 1.7281,-0.39524zM371.69588,340.92401l0.01636,0.02452l0.4615,0.4615l0.06666,0.04243l0.27869,0.06192l0.27672,0.13836l0.29159,0.0972l0.69486,0.13897h0.92937l0.47369,0.11842h0.48827l0.03292,0.00823l0.7652,-0.17005l0.44346,-0.11087l0.02916,-0.01944l0.17043,-0.17043l-0.44507,-1.33523l-0.5452,-0.81781l-0.27249,-0.27249l-0.2607,-0.13904h-0.07537l-0.19069,0.12713l-0.23603,0.0843l-0.1903,0.16311l-1.05771,0.52884l-0.18905,0.04201l-1.58476,0.90559l-0.49713,-0.28407z"/><path d="M390.04837,325.23009c0,-1.73413 1.11287,-3.20834 2.66338,-3.74739l0.03897,-0.04472l0.11581,-0.00552c0.36346,-0.10974 0.74896,-0.16874 1.14823,-0.16874c0.29467,0 0.58183,0.03213 0.85819,0.09309l2.56395,0.5128l0.0874,0.04141h0.09672l1.05771,0.26443l0.13722,0.07319l0.15507,0.01194l0.52706,0.1757l0.29992,0.07498l0.29261,-0.07981l0.43702,0.26221l0.49443,0.1236l0.15049,0.26334l0.67099,0.40259l0.45527,0.45527l0.0819,0.07019l0.19758,0.01097l0.51168,0.59696l0.59696,0.51168l0.01097,0.19758l0.21076,0.24588l0.26443,0.52884l0.06192,0.27869l0.15328,0.24086l0.26443,0.79328l0.0489,0.63572l0.15464,0.61856v0.7989l0.02471,0.03706l-0.02471,0.11121v0.11052l-0.22104,0.88415l-0.1977,0.88966l-0.04943,0.09886l-0.02764,0.11052l-0.03868,0.02209l-0.4131,0.82623l-0.37454,0.43695v0.16904l-0.15464,0.61856l-0.0489,0.63572l-0.00765,0.02294l0.2509,0.12545l0.73992,0.29597l0.00769,-0.00209l0.02588,0.01553l0.39544,0.15818l0.64711,0.46736l0.68447,0.41068l0.21036,0.21036l0.59471,0.37844l0.78149,0.46889l0.07815,0.07815l0.09611,0.06116l0.00875,0.04369l1.66797,1.66797l0.0116,0.01933l0.06972,0.01961l0.46359,0.86923l0.50684,0.84475l-0.01906,0.06987l0.01062,0.0199l0.26443,1.05771v0.09797l0.07167,0.08011l-0.07167,0.9317v0.93447l-0.0776,0.07436l-0.00751,0.09767l-0.26443,0.79328l-0.28443,0.44696l-0.17818,0.49892l-0.2342,0.35131l-0.01461,0.04385l0.01172,0.04298l-0.05861,0.09768l-0.03495,0.10486l-0.48929,0.76889l-0.46889,0.78149l-0.07815,0.07815l-0.06116,0.09611l-0.04369,0.00875l-0.8747,0.8747l-0.01933,0.0116l-0.01961,0.06972l-0.86923,0.46359l-0.84475,0.50684l-0.06987,-0.01906l-0.0199,0.01062l-1.05771,0.26443h-0.09672l-0.0874,0.04141l-1.22959,0.24592l-0.96613,0.24154h-0.16166l-0.14826,0.06447l-1.58655,0.26443l-0.33046,-0.02644l-0.3216,0.0804h-1.85098l-0.61856,-0.15464l-0.63572,-0.0489l-0.79328,-0.26443l-1.72464,-1.0975l-0.17584,-0.87916l-0.6634,-0.6031l-0.05378,-2.04352l0.52884,-2.37984l0.21837,-0.43673l0.10592,-0.47666l0.52884,-1.05771l0.41495,-0.48411l0.32803,-0.54674l0.19085,-0.19085l0.02256,-0.02633l0.0843,-0.23603l0.22998,-0.34497l-0.49561,-0.09912h-0.92937l-0.61856,-0.15464l-0.63572,-0.0489l-1.58655,-0.52884l-0.24086,-0.15328l-0.27869,-0.06192l-0.27672,-0.13836l-0.28034,-0.09345l-0.04298,0.01172l-0.09768,-0.05861l-0.10486,-0.03495l-0.76889,-0.48929l-0.78149,-0.46889l-0.07815,-0.07815l-0.09611,-0.06116l-0.00875,-0.04369l-0.16286,-0.16286l-0.04369,-0.00875l-0.06116,-0.09611l-0.07815,-0.07815l-0.46889,-0.78149l-0.48929,-0.76889l-0.03495,-0.10486l-0.05861,-0.09768l0.01172,-0.04298l-0.44701,-1.34104l-0.0489,-0.63572l-0.15464,-0.61856v-0.53448l-0.02471,-0.03706l0.02471,-0.11121v-0.11052l0.22104,-0.88415l0.04072,-0.18319l-0.02204,-0.03305l0.02471,-0.11121v-0.11052l0.22104,-0.88415l0.1977,-0.88966l0.04943,-0.09886l0.02764,-0.11052l0.03868,-0.02209l0.02262,-0.04525l0.17528,-0.52587l0.15328,-0.24086l0.06192,-0.27869l0.26443,-0.52884l1.33038,-1.5521l0.63145,-0.03508c-0.00047,-0.02545 -0.00073,-0.05097 -0.00073,-0.07654zM394.71517,331.68337l0.47209,0.15736h0.48016l0.08853,-0.35413l0.0489,-0.63572l0.18258,-0.54776l-0.01172,-0.04298l0.05861,-0.09768l0.03495,-0.10486l0.19636,-0.30856l-0.47704,-0.11926l-0.40754,-0.0815l-0.19847,0.89317l-0.13836,0.27672l-0.17528,0.52587l-0.07235,0.11368z"/><path d="M433.2517,323.22629c2.83443,2.42951 5.60421,7.12343 5.71551,10.99428c0.05569,1.93669 0.35992,3.93178 -0.10999,5.81142c-0.1589,0.63557 -1.63675,1.49071 -1.01119,1.68531c3.10389,0.96552 10.64052,-3.12477 10.64052,3.60917c0,4.02093 -16.94639,8.01462 -20.78564,3.06908c-4.53325,-5.8395 3.21368,-7.664 3.33352,-10.78874c0.1173,-3.05853 -0.48609,-8.30162 -4.63135,-7.88147c-1.62652,0.16486 -2.82092,0.94509 -4.08063,1.57623c-0.6653,0.50435 -1.49466,0.80361 -2.3939,0.80361c-2.19057,0 -3.96639,-1.77582 -3.96639,-3.96639c0,-1.34409 0.66856,-2.53204 1.69125,-3.24941c3.67344,-3.667 12.19133,-4.58334 15.59832,-1.66306z"/><path d="M448.22212,324.43681c0.94931,-1.17377 1.42604,-3.14177 2.70729,-3.76238c0.14714,-0.07126 0.30489,-0.12477 0.47517,-0.15726c1.87096,-0.35694 3.99825,0.78659 5.88827,1.05422c5.06552,0.71729 15.22319,-0.12934 16.60332,6.08122c0.88419,3.97888 -6.42913,10.70425 -8.17993,13.76655c-0.61657,1.07842 -1.7155,4.29598 -2.66516,4.77083c-3.34476,1.67238 -4.91262,1.14976 -6.58499,-2.195c-1.61743,-3.23488 7.52545,-12.29905 7.29359,-13.49227c-0.16272,-0.83736 -1.69914,-0.16002 -2.54379,-0.27915c-1.40149,-0.19769 -11.57458,-0.96285 -12.01832,-3.18159z"/></g></g></g></svg>