<?xml version="1.0" encoding="utf-8"?>
<!-- Generator: Adobe Illustrator 15.0.0, SVG Export Plug-In . SVG Version: 6.00 Build 0)  -->
<!DOCTYPE svg PUBLIC "-//W3C//DTD SVG 1.1//EN" "http://www.w3.org/Graphics/SVG/1.1/DTD/svg11.dtd" >
<svg version="1.1" id="Layer_1"
	 xmlns="http://www.w3.org/2000/svg" xmlns:xlink="http://www.w3.org/1999/xlink" x="0px" y="0px" width="95px" height="111px"
	 viewBox="0 0 95 111" enable-background="new 0 0 95 111" xml:space="preserve">

	<g  id="ScratchCat1">

		<path fill="#F9A637" stroke="#000000" stroke-width="1.4" d="M58.092,65.66c0,0-0.431,4.959,2.35,6.672
			c0,0,1.825,1.427,6.835,1.427c0,0,6.043-0.497,6.043,3.855c0,0,0.729,5.696-5.597,5.696c0,0-8.193,0.02-12.118-2.671
			c0,0-3.193-2.499-3.193-4.427"/>
		<path fill="#F9A637" stroke="#000000" stroke-width="1.4" d="M28.622,77.12c-0.199-0.193-0.313-0.441-0.386-0.703
			c-0.283-0.245-0.451-0.588-0.501-0.95c-0.022-0.068-0.058-0.128-0.071-0.195c-0.516-0.49-0.616-1.324-0.281-1.93l-0.228-0.552
			c-0.954-0.54-8.11-1.86-8.152-1.882c-1.57-0.861-3.132-2.062-4.397-3.748c-4.214-5.645-4.215-13.515-8.344-12.348
			c-1.55,0.438-2.889,2.422-3.385,5.058c-0.665,3.513,0.167,8.182,3.989,11.88c0.119,0.115,0.241,0.231,0.366,0.344
			c0.25,0.227,0.512,0.451,0.789,0.67c-0.53-0.421,0,0,2.239,1.918c3.17,2.715,12.149,4.507,15.156,5.068l4.253-0.858l-0.434-1.053
			C28.945,77.67,28.738,77.415,28.622,77.12z"/>
		<path fill="#F9A637" stroke="#000000" stroke-width="1.4" d="M58.199,65.2c-0.05-0.55-0.212-0.838-0.438-0.974
			c-0.075-0.045-0.157-0.073-0.244-0.089C56,64,53,64,50.59,63.814c-0.12-0.02-0.236-0.04-0.353-0.062
			c-2.189-0.406-4.276-1.106-6.469-1.852c-0.184-0.064-0.367-0.13-0.549-0.194c-0.547-0.192-1.085-0.384-1.594-0.568
			c-0.168-0.081-0.336-0.162-0.504-0.241C39.444,60.097,37.786,59.357,36,59c0,1,0,1-0.368,2.292
			c-0.146,0.106-0.287,0.215-0.421,0.325c-0.943,0.779-1.587,1.715-2.238,2.642c-0.744,1.059-1.496,2.104-2.712,2.887
			c-0.649,0.417-1.1,0.921-1.491,1.506c-0.391,0.584-0.722,1.249-1.132,1.987c-0.298,0.534-0.337,0.805-0.328,1.095
			c0.004,0.146,0.021,0.295,0.023,0.486C27,73,27,74,27.061,74.807c-0.034,0.199-0.075,0.379-0.13,0.523c0,0,0.143,0.139,0.372,0.36
			c0.115,0.11,0.25,0.242,0.401,0.388C28,76,28,77,28.19,76.549c0.086,0.083,0.174,0.168,0.262,0.254
			c0.975,0.942,2.057,1.99,2.057,1.99c0.674,0.553,1.159,0.916,1.608,1.351c0.417,0.402,0.806,0.878,1.281,1.611
			c0.348,0.099,0.635,0.278,0.85,0.519c0.447,0.204,0.754,0.566,0.928,0.99c0.024-0.003,0.042-0.014,0.068-0.014
			c0.304,0,0.462,0.224,0.481,0.459c0.09-0.006,0.18-0.014,0.237-0.005c0.075,0.01,0.118,0.034,0.117,0.08
			c0.851,0.651,1.521,1.252,1.979,1.69s0.703,0.714,0.703,0.714s0.266,0.213,0.58,0.467c0.314,0.254,0.678,0.548,0.874,0.711
			c0.355,0.296-1.199,2.065-2.796,3.853c-1.597,1.788-3.235,3.594-3.05,3.961c0.454,0.896,1.855,2.736,3.624,4.7
			c1.527,1.697,3.324,3.462,5.027,4.815c0.23,0.04,0.43,0.124,0.593,0.246c0.27-0.049,0.558-0.044,0.861,0.08
			c1.229,0.501,3.508,0.601,4.696-0.085c0.673-0.388,1.033-0.921,1.234-1.53c-0.047-0.979-1.214-3.07-2.338-4.975
			c-0.625-1.058-1.226-2.045-1.618-2.757c-0.44-0.479-0.647-1.156-0.474-1.836c0.114-0.443,0.387-0.817,0.74-1.086
			c0.838-1.205,1.874-2.252,3.063-3.103c0.068-0.185,0.17-0.36,0.301-0.52c0.687-0.83,1.463-1.6,2.023-2.525
			c0.093-0.154,0.204-0.273,0.321-0.376c0.142-0.391,0.227-0.748,0.227-1.049c0-0.479-0.171-1.114-0.339-1.67
			c-0.09-0.299-0.176-0.569-0.237-0.786c-0.138-0.124-0.265-0.263-0.367-0.432c-0.08-0.131-0.138-0.271-0.184-0.415
			c-0.196-0.185-0.422-0.408-0.634-0.665c-0.082-0.1-0.158-0.204-0.229-0.312c-0.036-0.055-0.07-0.109-0.104-0.166
			C49,78,52,78,52.576,76.696c0.057-0.077,0.115-0.154,0.175-0.232c0.238-0.312,0.485-0.646,0.742-1
			c0.25-0.345,0.62-0.905,0.927-1.38s0.552-0.863,0.552-0.863s0.003,0,0.007,0.002c0.006,0.001,0.013,0.004,0.022,0.007
			c0.405-0.747,1.121-1.99,1.764-3.37c0.45-0.967,0.865-2.001,1.112-2.979c0.032-0.129,0.062-0.256,0.219-1.007
			c0.015-0.068,0.029-0.142,0.046-0.221c-0.019-0.023-0.017-0.085-0.004-0.167C58.151,65.403,58.175,65.301,58.199,65.2z"/>
		<path fill="#373536" d="M52.054,85.808c-0.211,0.238-0.419,0.509-0.632,0.794c-0.106,0.143-0.214,0.288-0.323,0.436
			c-0.033,0.654-0.388,1.091-0.893,1.465c-0.126,0.094-0.262,0.183-0.403,0.272C48,90,47,92,44.917,94.352
			c-0.009,0.154-0.002,0.312,0.021,0.471c0.048,0.317,0.167,0.64,0.385,0.952l2.096,3.027c0.645,0.869,2.256,3.443,1.981,4.893
			c-0.057,0.301-0.192,0.519-0.427,0.681c-0.51,0.175-4.266,1.343-6.991-1.18l-6.464-6.755c-0.019-0.02-0.038-0.037-0.06-0.055
			c-0.011-0.009-1.041-0.877,0.216-2.771c0.604-0.652,4.56-4.941,5.122-5.816c0.168-0.264,0.12-0.608-0.112-0.818L29.343,76.82
			c-0.012-0.01-0.58-0.6-1.11-1.62c-0.089-0.171-0.176-0.353-0.26-0.545c-0.039-0.107-0.073-0.211-0.109-0.316
			c-0.282,0.061-0.614-0.086-0.613-0.459c0-0.04,0.001-0.078,0.002-0.118c-0.128-0.075-0.229-0.198-0.252-0.382
			c-0.051-0.423-0.014-0.815,0.1-1.169c0.018-1.73,1.477-3.544,2.99-4.419c0.123-0.125,0.256-0.26,0.397-0.402
			c2.113-2.142,6.015-6.094,6.015-6.094c0.246-0.25,0.243-0.652-0.006-0.898c-0.25-0.246-0.651-0.244-0.899,0.006l-7.339,7.438
			c-1.45,1.478-2.168,3.101-2.133,4.824c0.019,0.91,0.257,1.727,0.564,2.44c0.327,0.071,0.441,0.425,0.333,0.69
			c0.642,1.165,1.4,1.905,1.46,1.962l10.92,9.779c-0.883,1.084-3.158,3.593-4.693,5.252c-0.021,0.023-0.042,0.05-0.061,0.076
			c-1.528,2.262-0.701,3.898-0.023,4.479l6.453,6.743c0.008,0.009,0.017,0.016,0.025,0.024c1.665,1.552,3.605,1.964,5.2,1.964
			c1.746,0,3.081-0.494,3.184-0.533c0.037-0.017,0.073-0.035,0.109-0.055c0.562-0.352,0.928-0.89,1.052-1.558
			c0.429-2.253-1.939-5.521-2.198-5.867c0,0-1.172-1.695-1.758-2.544c-0.195-0.282-0.326-0.471-0.326-0.471
			C47,92,49,91,49.864,89.174c0.114-0.13,0.229-0.258,0.347-0.385c0.353-0.384,0.723-0.767,1.122-1.186
			c0.115-0.12,0.227-0.246,0.331-0.384c0.312-0.412,0.559-0.923,0.653-1.652C52.23,85.652,52.143,85.732,52.054,85.808z"/>
		<path fill="#373536" d="M50.734,79.058c0.009-0.012,0.02-0.021,0.029-0.032l-6.261-5.884c-0.298-0.28-0.743-0.24-0.998,0.087
			c-0.255,0.326-0.219,0.817,0.077,1.098l5.991,5.629c0.078-0.062,0.163-0.111,0.236-0.191c0.17-0.184,0.366-0.209,0.54-0.146
			c0.021-0.021,0.051-0.029,0.075-0.048C50.411,79.361,50.538,79.149,50.734,79.058z"/>
		<path fill="#F9A637" stroke="#000000" stroke-width="1.4" d="M35.807,60.126c-0.011-0.014-1.091-1.222-1.696-1.898
			c-0.014-0.021-0.024-0.037-0.041-0.059c-0.058-0.08-0.243-0.265-0.354-0.382c-0.004-0.004-0.006-0.007-0.006-0.007h-0.001
			c-0.015-0.017-0.027-0.03-0.039-0.044c-0.048-0.055-0.419-0.36-0.523-0.404c-0.979-0.414-2.075-0.757-2.01-0.748
			c-1.897-0.247-3.833,0.271-5.852,0.817l-2.046,0.523c-0.474,0.114-0.994,0.175-1.534,0.246c-1.118,0.14-2.475,0.317-3.554,1.062
			l-0.007,0.001l-0.006,0.008c-0.539,0.377-1.01,0.893-1.345,1.623c-0.167,0.367-0.3,0.788-0.394,1.265
			c-0.096,0.508-0.229,1.512-0.319,2.747c-0.012,0.152-0.021,0.305-0.03,0.464c-0.001,0.009-0.002,0.018-0.002,0.026
			c0,0.001,0,0.002,0,0.003c-0.128,2.443,0.226,5.496,2.329,8.107c0.598,0.742,1.309,1.302,2.122,1.675
			c0.743,0.338,1.572,0.521,2.485,0.546c1.697,0.049,2.625-0.521,3.318-1.459c1.354-1.831,0.032-4.943-0.752-7.273
			c1.101-0.207,3.215-0.817,4.83-1.1c1.141-0.199,5.165-0.614,6.023-2.781C36.769,62.163,36.568,61.168,35.807,60.126z"/>
		<path fill="#F9A637" stroke="#000000" stroke-width="1.4" d="M79.842,37.493c0,0,0.143-4.613-2.745-9.938
			c-1.713-3.167-7.646-7.92-7.646-7.92L67.134,8.569l-7.315,6.588l-4.109,0.925c-1.457-0.189-3.094-0.326-4.776-0.307
			c-4.621,0.056-4.662,0.102-8.9,1.329L30.167,8.855l1.469,18.034c0.647-0.729-10.454,11.792-4.13,22.872
			c2.763,4.849,7.052,8.582,12.479,11.024c0.492,0.211,7.881,3.329,14.93,3.253c1.141-0.012,1.973-0.002,2.566,0.027
			c2.72-0.035,5.559-0.275,8.501-0.752c17.932-2.89,22.545-13.001,21.567-18.466c-0.988-5.461-7.633-7.716-7.633-7.716"/>
		<path fill="#F9A637" stroke="#000000" stroke-width="1.4" d="M36.535,84.792l-2.912,2.195c0,0-1.544,1.985-9.681,2.599
			l-6.062-1.664c0,0,0.74,4.234,0.434,7.053c-0.009,0.073-0.465,1.25-0.484,1.319c-0.715,2.379-1.84,1.763-3.22,1.811
			c0,0-5.999,0.095-5.521-6.375l0.383-8.945c0,0,0.773-6.218,5.745-3.346c0.055,0.03,9.706,0.415,9.706,0.415
			s1.054,0.165,4.354-1.713"/>
		<path fill="#FFFFFF" d="M51.958,67.808c-4.732-2.459-6.853,0.083-8.279,1.567c-2.245,2.315,4.868,7.91,6.23,8.945
			c0.037-0.061,0.089-0.117,0.163-0.164c0.07-0.044,0.144-0.097,0.215-0.142c0.008-0.009,0.01-0.019,0.019-0.027
			c0.208-0.204,0.431-0.396,0.65-0.591c-0.002-0.108,0.021-0.221,0.1-0.326c0.416-0.554,0.964-0.979,1.416-1.5
			c0.037-0.042,0.078-0.065,0.118-0.091c0.717-1.229,1.793-2.659,1.793-2.659l1.14-1.617C55.522,71.203,56.689,70.256,51.958,67.808
			z"/>
		<path fill="#FFFFFF" d="M86.607,44.462c-0.211-2.191-1.723-3.413-2.69-4.493c-1.323-0.859-1.659-1.13-2.782-1.923
			c-1.061-0.344-1.916-0.646-2.48-0.817c-0.601-0.044-0.97,0.013-0.97,0.013l-0.45-0.581l-0.451-0.58l-0.369-0.476
			c-0.281,0.104-0.587-0.124-0.642-0.413c-0.002,0-0.003-0.003-0.005-0.004c-0.01,0.011-0.025,0.025-0.031,0.032
			c-0.244,0.283-0.581,0.167-0.747-0.073l-1.181,0.303l-2.074,0.531l-2.076,0.531l-2.073,0.532c0,0-0.007,0.195-0.079,0.5
			c-0.071,0.304-0.209,0.717-0.47,1.154c-0.262,0.436-0.646,0.894-1.215,1.289c-0.566,0.395-1.317,0.726-2.309,0.907
			c-0.992,0.181-2.116,0.118-3.242-0.079s-2.256-0.525-3.261-0.876c-1.006-0.352-1.887-0.726-2.517-1.013
			c-0.63-0.286-1.009-0.484-1.009-0.484l-1.781,0.715l-3.561,1.431l-1.782,0.716c0,0-0.477,0.036-1.198,0.162
			c-0.722,0.127-1.689,0.344-2.67,0.708c-0.981,0.365-1.976,0.875-2.752,1.589c-0.777,0.713-1.336,1.629-1.446,2.802
			c-0.275,2.944,0.718,5.445,2.362,7.542c1.644,2.096,3.939,3.788,6.269,5.11c2.329,1.324,4.693,2.279,6.476,2.902
			c1.781,0.625,2.98,0.92,2.98,0.92s0.638,0.047,1.72,0.061c1.081,0.016,2.604-0.002,4.374-0.133
			c1.771-0.129,3.785-0.373,5.851-0.807s4.275-0.992,6.243-1.893c2.455-0.82,4.379-2.068,6.046-3.383
			c1.935-1.227,3.032-2.481,4.03-4.129c1.117-1.169,1.405-2.376,1.981-3.879C86.792,47.56,87.064,45.744,86.607,44.462z"/>
		<path fill="#FFFFFF" d="M6.641,55.53c-2.102,0.007-3.949,3.557-3.726,6.666c0.216,3.104,1.066,5.35,2.295,6.71
			c1.246,1.377,0.186-2.577,2.292-3.661c2.102-1.085,4.845,0.48,4.845,0.48s-1.401-4.069-2.389-6.392
			C8.968,57.009,8.793,54.854,6.641,55.53"/>
		<path fill="#373536" d="M45.074,20.107c-0.075,0-0.15-0.021-0.218-0.068L30.906,10.2c-0.171-0.119-0.212-0.354-0.091-0.523
			c0.119-0.17,0.354-0.211,0.524-0.093l13.951,9.84c0.17,0.118,0.212,0.355,0.091,0.523C45.31,20.052,45.193,20.107,45.074,20.107"
			/>
		<path fill="#373536" d="M60.986,17.986c-0.036,0-0.075-0.006-0.109-0.019c-2.082-0.629-3.899-1.448-9.853-1.522
			c-0.208-0.002-0.374-0.173-0.372-0.381c0.004-0.208,0.175-0.374,0.381-0.371c5.139,0.063,10.016,1.541,10.064,1.556
			c0.198,0.06,0.31,0.271,0.249,0.47C61.298,17.881,61.147,17.986,60.986,17.986"/>
		<path fill="#FFFFFF" stroke="#000000" d="M52.082,28.764c2.619,4.352,2.148,9.454-1.058,11.385
			c-3.207,1.935-7.936-0.03-10.558-4.384c-2.631-4.354-2.154-9.451,1.053-11.384C44.729,22.447,49.459,24.408,52.082,28.764"/>
		<path fill="#FFFFFF" stroke="#000000" d="M72.784,26.589c2.546,4.218,2.474,8.934-0.156,10.519
			c-2.634,1.588-6.824-0.553-9.372-4.774c-2.549-4.225-2.483-8.932,0.156-10.522C66.042,20.229,70.241,22.363,72.784,26.589"/>
		<path fill="#373536" d="M49.27,34.903c-0.022,0.796-0.637,1.412-1.365,1.384c-0.728-0.022-1.292-0.689-1.258-1.479
			c0.027-0.785,0.64-1.402,1.363-1.374C48.736,33.456,49.297,34.119,49.27,34.903"/>
		<path fill="#373536" d="M71.382,32.686c-0.031,0.789-0.638,1.411-1.367,1.385c-0.719-0.029-1.293-0.688-1.265-1.476
			c0.031-0.792,0.646-1.411,1.372-1.383C70.851,31.236,71.411,31.897,71.382,32.686"/>
		<path fill="#373536" d="M62.054,38.009c1.767,0.065,4.346-0.11,4.445,0.7c0.106,0.816-1.766,3.932-2.987,4.026
			c-1.22,0.089-5.736-2.443-5.746-3.933C57.752,37.313,60.435,37.951,62.054,38.009"/>
		<path fill="#373536" d="M83.747,41.741c-0.187,0-0.35-0.14-0.373-0.33c-0.026-0.207,0.12-0.394,0.327-0.42
			c0.043-0.006,4.338-0.548,6.506-1.219c2.506-0.776,4.253-2.182,4.271-2.195c0.161-0.13,0.398-0.106,0.529,0.056
			c0.13,0.161,0.105,0.398-0.055,0.529c-0.076,0.061-1.878,1.51-4.522,2.33c-2.232,0.69-6.458,1.224-6.636,1.246
			C83.778,41.741,83.762,41.741,83.747,41.741"/>
		<path fill="#373536" d="M27.386,40.885c-0.083,0-0.166-0.026-0.235-0.084c-0.021-0.017-2.214-1.77-5.611-3.424
			c-3.776-1.835-5.908-2.375-5.931-2.379c-0.2-0.051-0.325-0.254-0.274-0.457c0.049-0.202,0.254-0.324,0.455-0.274
			c0.09,0.021,2.219,0.559,6.078,2.434c3.479,1.694,5.664,3.44,5.757,3.514c0.161,0.132,0.186,0.367,0.056,0.53
			C27.604,40.837,27.497,40.885,27.386,40.885"/>
		<path fill="#373536" d="M21.65,44.976c-1.847,0-5.377-0.446-5.531-0.467c-0.207-0.026-0.353-0.214-0.326-0.421
			c0.025-0.205,0.215-0.352,0.421-0.326c0.038,0.005,3.884,0.491,5.609,0.46c1.74-0.036,5.176-0.369,5.211-0.372
			c0.206-0.02,0.392,0.133,0.411,0.34c0.021,0.206-0.131,0.392-0.339,0.41c-0.141,0.014-3.499,0.337-5.268,0.376
			C21.778,44.976,21.716,44.976,21.65,44.976"/>
		<path fill="#373536" d="M92.995,49.187c-0.745,0-2.113-0.04-3.86-0.274c-2.681-0.37-5.2-1.491-5.306-1.539
			c-0.191-0.085-0.275-0.308-0.191-0.498c0.086-0.189,0.309-0.274,0.498-0.189c0.024,0.012,2.531,1.125,5.101,1.48
			c2.56,0.344,4.321,0.259,4.34,0.258c0.208-0.011,0.385,0.147,0.395,0.356c0.01,0.208-0.148,0.385-0.355,0.396
			C93.591,49.176,93.371,49.187,92.995,49.187"/>
		<path fill="#FFFFFF" stroke="#000000" d="M50.954,44.503c-0.94,2.936-1.172,5.766-0.214,7.664
			c1.059,2.098,3.328,3.713,6.743,4.797c1.038,0.331,2.122,0.499,3.216,0.499c3.697,0,7.059-1.911,9.225-3.516
			c1.601-1.184,2.8-2.374,3.413-3.024c-1.788-0.294-6.662-1.121-9.589-1.865c-3.223-0.825-11.243-3.481-13.035-4.077"/>
		<path fill="#373536" d="M49.855,79.539c0.2-0.004,0.39,0.097,0.482,0.254c1.233-1.361,7.738-9.001,8.714-14.858
			c0.052-0.309-0.285-0.559-0.646-0.554c-0.351,0.002-0.63,0.261-0.626,0.57c0.096,5.528-7.497,13.225-8.465,14.185
			C49.577,79.109,49.793,79.31,49.855,79.539z"/>
		<line fill="none" stroke="#000000" x1="24.293" y1="64.599" x2="25.644" y2="67.615"/>

	</g>
</svg>
