<svg version="1.1" xmlns="http://www.w3.org/2000/svg" xmlns:xlink="http://www.w3.org/1999/xlink" width="75.99088" height="98.04396" viewBox="0,0,75.99088,98.04396"><g transform="translate(-218.159,-141)"><g data-paper-data="{&quot;isPaintingLayer&quot;:true}" fill="none" fill-rule="nonzero" stroke="none" stroke-width="none" stroke-linecap="none" stroke-linejoin="none" stroke-miterlimit="10" stroke-dasharray="" stroke-dashoffset="0" font-family="none" font-weight="none" font-size="none" text-anchor="none" style="mix-blend-mode: normal"><path d="M280.947,192.879h-7.469v-9.474h7.469z" id="ID0.438533594366163" fill="#fefbdf" stroke="none" stroke-width="1" stroke-linecap="butt" stroke-linejoin="miter"/><path d="M287.931,189.169c0,0 6.645,14.828 5.352,18.23c-1.889,4.932 -15.717,9.303 -18.531,7.523c-4.762,-3.084 -3.176,-2.299 -3.176,-2.299l-5.072,-13.729z" id="ID0.26344340899959207_31_" fill="#518943" stroke="#426c36" stroke-width="1.4" stroke-linecap="round" stroke-linejoin="round"/><path d="M285.715,179.573c1.282,1.02 2.362,2.631 2.938,4.59c0.574,1.959 0.535,3.898 0.01,5.447c-0.525,1.553 -1.539,2.713 -2.916,3.117c-1.377,0.404 -2.858,-0.024 -4.137,-1.045c-1.282,-1.02 -2.364,-2.631 -2.936,-4.59c-0.576,-1.961 -0.539,-3.9 -0.012,-5.449c0.525,-1.551 1.539,-2.713 2.916,-3.115c1.377,-0.404 2.857,0.026 4.137,1.045z" id="ID0.2414738917723298_31_" fill="#fefbdf" stroke="#70715e" stroke-width="1.4" stroke-linecap="round" stroke-linejoin="round"/><path d="M284.743,182.29c0.696,0.569 1.286,1.465 1.604,2.549c0.318,1.086 0.306,2.158 0.029,3.012c-0.278,0.856 -0.821,1.494 -1.561,1.711c-0.74,0.217 -1.543,-0.026 -2.236,-0.596c-0.696,-0.569 -1.286,-1.465 -1.604,-2.549c-0.32,-1.086 -0.306,-2.158 -0.029,-3.012c0.278,-0.856 0.821,-1.494 1.561,-1.711c0.741,-0.218 1.541,0.026 2.236,0.596z" id="ID0.6192030962556601_31_" fill="#fefbdf" stroke="#70715e" stroke-width="1.4" stroke-linecap="round" stroke-linejoin="round"/><path d="M285.802,210.325l-2.648,-7.248l5.871,-3.078c0,0 2.334,5.463 1.627,6.607c-0.637,1.024 -4.85,3.719 -4.85,3.719z" id="ID0.15330331353470683_31_" fill="#518943" stroke="#426c36" stroke-width="1.4" stroke-linecap="round" stroke-linejoin="round"/><path d="M272.49,213.952c0,0 -5.311,0.967 -6.424,1.828c3.123,2.396 4.74,-0.268 3.148,4.129c-0.73,2.02 -2.381,6.572 -4.83,6.066c-7.791,-2.211 1.305,-4.455 -7.17,-10.184c-2.344,-1.801 -5.525,-6.074 3.934,-8.334" id="ID0.527006761636585_40_" fill="#ffffff" stroke="#8e5322" stroke-width="1.4" stroke-linecap="round" stroke-linejoin="round"/><path d="M258.834,217.247c0.996,0.535 2.426,1.855 3.559,2.699" id="ID0.8937406223267317_55_" fill="#ffffff" stroke="#8e5322" stroke-width="1.4" stroke-linecap="round" stroke-linejoin="round"/><path d="M267.514,215.156c-1.356,0.027 -3.676,0.435 -4.223,0.23" id="ID0.8937406223267317_54_" fill="#faa51f" stroke="#8e5322" stroke-width="1.4" stroke-linecap="round" stroke-linejoin="round"/><path d="M268.155,207.959c-0.168,-0.976 -0.618,-2.763 3.586,-3.344c4.205,-0.582 9.404,4.19 9.942,4.814c2.104,2.221 4.693,5.148 6.409,9.3c5.068,11.898 -4.997,20.953 -9.202,19.452c-4.204,-1.499 0.86,-8.328 1.005,-15.814c0.063,-3.384 -1.196,-6.108 -2.498,-8.252c-1.751,-3.07 -9.014,-5.261 -9.242,-6.156z" id="ID0.8535828334279358_30_" fill="#faa51f" stroke="none" stroke-width="1" stroke-linecap="butt" stroke-linejoin="miter"/><path d="M278.02,232.304c0.717,-2.923 1.884,-8.216 1.884,-8.216c0,0 2.263,3.557 5.058,3.936c2.79,0.378 4.323,-4.047 4.578,-2.154c-0.186,1.827 -0.543,4.758 -2.514,7.897c-2.052,3.078 -6.524,5.429 -8.356,4.381c-1.798,-1.267 -1.414,-3.2 -0.65,-5.844z" id="ID0.914295740891248_36_" fill="#ffffff" stroke="none" stroke-width="1" stroke-linecap="butt" stroke-linejoin="miter"/><path d="M268.155,207.959c-0.168,-0.976 -0.618,-2.763 3.586,-3.344c4.205,-0.582 9.404,4.19 9.942,4.814c2.104,2.221 4.693,5.148 6.409,9.3c5.068,11.898 -4.997,20.953 -9.202,19.452c-4.204,-1.499 0.86,-8.328 1.005,-15.814c0.063,-3.384 -1.196,-6.108 -2.498,-8.252c-1.751,-3.07 -9.014,-5.261 -9.242,-6.156z" id="ID0.40227043256163597_36_" fill="#ffffff" stroke="#8e5322" stroke-width="1.4" stroke-linecap="round" stroke-linejoin="round"/><path d="M267.179,190.611c6.43,-1.887 10.869,-1.314 12.756,5.115c1.887,6.429 5.479,14.755 -5.939,18.107c-11.42,3.352 -12.549,-6.531 -14.436,-12.961c-1.887,-6.428 1.192,-8.373 7.619,-10.261z" id="ID0.46792364912107587_36_" fill="#faa51f" stroke="#8e5322" stroke-width="1.4" stroke-linecap="round" stroke-linejoin="round"/><path d="M265.421,197.261c3.551,-1.043 5.998,-0.511 7.182,3.52c1.184,4.031 3.268,9.359 -2.873,11.16c-6.14,1.803 -7.05,-4.496 -8.234,-8.527c-1.182,-4.027 0.375,-5.111 3.925,-6.153z" id="ID0.38032895559445024_36_" fill="#bababa" stroke="none" stroke-width="1" stroke-linecap="butt" stroke-linejoin="miter"/><path d="M256.107,211.474c-6.088,-2.277 -3.482,-12.213 0.912,-16.42l4.229,-0.512" id="ID0.30105241015553474_33_" fill="#ffffff" stroke="#8e5322" stroke-width="1.4" stroke-linecap="round" stroke-linejoin="round"/><path d="M259.56,200.872l-0.012,3.859" id="ID0.7841392233967781_32_" fill="#faa51f" stroke="#8e5322" stroke-width="1.4" stroke-linecap="round" stroke-linejoin="round"/><path d="M258.405,204.754l1.143,-0.023" id="ID0.4326359131373465_28_" fill="none" stroke="#8e5322" stroke-width="1.4" stroke-linecap="round" stroke-linejoin="round"/><path d="M282.505,209.229c-4.604,-0.42 -22.594,-11.295 -6.375,-21.369c0,0 -12.832,9.186 6.232,18.389" id="ID0.48627097019925714_31_" fill="#518943" stroke="#426c36" stroke-width="1.4" stroke-linecap="round" stroke-linejoin="round"/><path d="M260.402,207.067c-3.508,-4.494 -6.156,-9.971 4.119,-15.801c0,0 -9.074,6.729 -2.564,13.99" id="ID0.07006075512617826_31_" fill="#518943" stroke="#426c36" stroke-width="1.4" stroke-linecap="round" stroke-linejoin="round"/><path d="M256.67,205.577c2.676,-2.246 4.764,-0.459 6.246,1.398c2.119,2.607 -0.609,7.16 -6.809,4.498" id="ID0.7947451807558537_28_" fill="#ffffff" stroke="#8e5322" stroke-width="1.4" stroke-linecap="round" stroke-linejoin="round"/><path d="M269.659,190.557l8.014,0.366c5.452,6.76 6.714,18.01 2.207,19.356" id="ID0.15909873321652412_32_" fill="#ffffff" stroke="#8e5322" stroke-width="1.4" stroke-linecap="round" stroke-linejoin="round"/><path d="M275.355,202.601l-1.733,-4.594" id="ID0.8143284288235009_32_" fill="#faa51f" stroke="#8e5322" stroke-width="1.4" stroke-linecap="round" stroke-linejoin="round"/><path d="M275.355,202.601l1.238,-0.029" id="ID0.6682511982508004_28_" fill="none" stroke="#8e5322" stroke-width="1.4" stroke-linecap="round" stroke-linejoin="round"/><path d="M278.668,212.075c0,0 -3.343,3.438 -4.483,4.261c3.041,2.498 5.245,1.214 3.508,5.554c-0.798,1.996 -1.907,7.268 -5.028,5.903c-7.714,-2.467 2.641,-4.084 -5.918,-10.003c-0.901,-1.703 -3.215,-3.521 3.296,-8.612" id="ID0.527006761636585_39_" fill="#ffffff" stroke="#8e5322" stroke-width="1.4" stroke-linecap="round" stroke-linejoin="round"/><path d="M267.405,218.886c0.979,0.568 2.363,1.936 3.468,2.816" id="ID0.8937406223267317_53_" fill="#faa51f" stroke="#8e5322" stroke-width="1.4" stroke-linecap="round" stroke-linejoin="round"/><path d="M273.245,216.675c0.54,0.223 2.374,-1.432 3.729,-1.414" id="ID0.8937406223267317_52_" fill="#faa51f" stroke="#8e5322" stroke-width="1.4" stroke-linecap="round" stroke-linejoin="round"/><path d="M233.673,164.626c1.08,-1.046 3.316,-3.203 4.678,-4.225c3.64,-2.82 8.02,-4.301 8.02,-4.301l4.316,-14.4l10.148,15.387c-0.975,-0.223 15.798,2.87 17.716,15.659c1.91,12.929 -6.064,26.104 -22.279,35.118c-16.215,9.015 -26.282,3.782 -28.921,-1.189c-2.639,-4.974 1.27,-11.035 1.27,-11.035c0,0 -2.703,-3.348 -3.763,-9.395c-0.618,-3.67 1.14,-11.188 1.14,-11.188l-5.102,-10.354l10.02,0.688z" id="ID0.2591130444779992_34_" fill="#faa51f" stroke="none" stroke-width="1" stroke-linecap="butt" stroke-linejoin="miter"/><path d="M229.242,194.982l0.538,-3.078l8.396,-3.703c0,0 2.133,2.519 5.92,0.491c3.787,-2.028 8.172,-7.838 8.172,-7.838l6.579,-3.215c0,0 5.858,-5.617 10.301,-0.99c7.707,8.017 4.035,18.073 -2.516,23.488c-4.196,3.556 -7.321,5.284 -10.749,7.27c-15.129,8.751 -25.588,3.98 -27.999,-1.188c-2.637,-4.972 1.364,-10.457 1.364,-10.457z" id="ID0.3588979784399271_34_" fill="#ffffff" stroke="none" stroke-width="1" stroke-linecap="butt" stroke-linejoin="miter"/><path d="M228.916,202.332c0,0 -3.324,2.965 -5.336,4.164c-2.342,1.446 -4.721,1.827 -4.721,1.827" id="ID0.2727069961838424_34_" fill="none" stroke="#8e5322" stroke-width="1.4" stroke-linecap="round" stroke-linejoin="round"/><path d="M232.282,207.082c0,0 -0.816,2.702 -2.455,4.984c-1.498,2.265 -2.802,3.52 -2.802,3.52" id="ID0.5861211125738919_34_" fill="none" stroke="#8e5322" stroke-width="1.4" stroke-linecap="round" stroke-linejoin="round"/><path d="M247.157,153.47l-1.642,6.107" id="ID0.4793355236761272_34_" fill="none" stroke="#8e5322" stroke-width="1.4" stroke-linecap="round" stroke-linejoin="round"/><path d="M233.673,164.626c1.08,-1.046 3.316,-3.203 4.678,-4.225c3.64,-2.82 8.02,-4.301 8.02,-4.301l4.316,-14.4l10.148,15.387c-0.975,-0.223 15.798,2.87 17.716,15.659c1.91,12.929 -6.064,26.104 -22.279,35.118c-16.215,9.015 -26.282,3.782 -28.921,-1.189c-2.639,-4.974 1.27,-11.035 1.27,-11.035c0,0 -2.703,-3.348 -3.763,-9.395c-0.618,-3.67 1.14,-11.188 1.14,-11.188l-5.102,-10.354l10.02,0.688z" id="ID0.48413723474368453_34_" fill="none" stroke="#8e5322" stroke-width="1.4" stroke-linecap="round" stroke-linejoin="round"/><path d="M286.079,164.054c0,0 -3.358,2.206 -5.002,2.948c-1.644,0.745 -4.975,1.922 -4.975,1.922" id="ID0.9024141579866409_34_" fill="none" stroke="#8e5322" stroke-width="1.4" stroke-linecap="round" stroke-linejoin="round"/><path d="M273.495,166.154c1.133,-2.535 1.11,-2.534 3.519,-5.773c2.599,-3.531 4.317,-4.962 4.317,-4.962" id="ID0.16030752705410123_34_" fill="none" stroke="#8e5322" stroke-width="1.4" stroke-linecap="round" stroke-linejoin="round"/><path d="M230.193,175.85c3.158,-0.448 6.315,3.433 6.958,8.523c0.706,5.168 -1.371,9.678 -4.595,10.05c-3.157,0.448 -6.313,-3.434 -6.957,-8.524c-0.641,-5.09 1.434,-9.6 4.594,-10.049z" id="ID0.40023312577977777_34_" fill="#ffffff" stroke="#8e5322" stroke-width="1.4" stroke-linecap="round" stroke-linejoin="round"/><path d="M228.004,188.583c-0.417,-0.958 -0.12,-1.998 0.773,-2.491c0.956,-0.417 1.984,0.023 2.399,0.981c0.483,1.032 0.109,2.135 -0.772,2.489c-0.957,0.417 -1.985,-0.023 -2.4,-0.979" id="ID0.43813491938635707_34_" fill="#414142" stroke="none" stroke-width="1" stroke-linecap="butt" stroke-linejoin="miter"/><path d="M247.976,165.098c3.799,-0.465 7.388,3.309 8.031,8.4c0.706,5.168 -1.87,9.707 -5.67,10.173c-3.799,0.465 -7.387,-3.307 -8.03,-8.4c-0.641,-5.09 1.935,-9.632 5.669,-10.173z" id="ID0.4253597157076001_34_" fill="#ffffff" stroke="#8e5322" stroke-width="1.4" stroke-linecap="round" stroke-linejoin="round"/><path d="M245.058,178.055c-0.711,-0.839 -0.619,-1.967 0.069,-2.549c0.685,-0.582 1.878,-0.411 2.524,0.353c0.71,0.837 0.693,1.901 -0.07,2.547c-0.685,0.582 -1.877,0.413 -2.523,-0.351" id="ID0.814307457767427_34_" fill="#414142" stroke="none" stroke-width="1" stroke-linecap="butt" stroke-linejoin="miter"/><path d="M246.198,185.562c1.045,1.08 -0.008,5.25 -1.6,6.466c-1.438,1.088 -4.791,-0.398 -5.308,-1.007c-1.002,-1.644 1.594,-2.139 3.022,-3.086c1.275,-0.817 2.841,-3.455 3.886,-2.373z" id="ID0.5240494590252638_34_" fill="#5f4b43" stroke="#8e5322" stroke-width="1.4" stroke-linecap="round" stroke-linejoin="round"/><path d="M258.21,195.807c0,0 -0.423,3.369 -5.254,6.021" id="ID0.046259244438260794_34_" fill="#ffffff" stroke="#8e5322" stroke-width="1.4" stroke-linecap="round" stroke-linejoin="round"/><path d="M281.124,209.815c-8.063,3.298 -12.901,2.293 -13.767,-1.617c-0.383,-1.658 2.794,-6.233 8.617,-5.396" id="ID0.1790580078959465_44_" fill="#ffffff" stroke="#8e5322" stroke-width="1.4" stroke-linecap="round" stroke-linejoin="round"/></g></g></svg>