<svg version="1.1" xmlns="http://www.w3.org/2000/svg" xmlns:xlink="http://www.w3.org/1999/xlink" width="476.3984" height="473.87155" viewBox="0,0,476.3984,473.87155"><defs><radialGradient cx="245.15044" cy="203.32135" r="233.9492" gradientUnits="userSpaceOnUse" id="color-1"><stop offset="0" stop-color="#4e4e4e"/><stop offset="1" stop-color="#000000"/></radialGradient><linearGradient x1="247.95185" y1="-35.19824" x2="247.95185" y2="427.00565" gradientUnits="userSpaceOnUse" id="color-2"><stop offset="0" stop-color="#ffffff"/><stop offset="1" stop-color="#ffffff" stop-opacity="0"/></linearGradient><linearGradient x1="404.32368" y1="29.28413" x2="251.14779" y2="205.25137" gradientUnits="userSpaceOnUse" id="color-3"><stop offset="0" stop-color="#ffffff"/><stop offset="1" stop-color="#ffffff" stop-opacity="0"/></linearGradient></defs><g transform="translate(-6.95124,35.19825)"><g data-paper-data="{&quot;isPaintingLayer&quot;:true}" fill-rule="nonzero" stroke-linecap="butt" stroke-linejoin="miter" stroke-miterlimit="10" stroke-dasharray="" stroke-dashoffset="0" style="mix-blend-mode: normal"><path d="M479.09964,203.32135c0,127.63408 -104.74263,231.10195 -233.9492,231.10195c-129.20658,0 -233.9492,-103.46787 -233.9492,-231.10195c0,-127.63408 104.74262,-231.10195 233.9492,-231.10195c129.20658,0 233.9492,103.46786 233.9492,231.10195z" fill="url(#color-1)" stroke="#ffffff" stroke-width="8.5"/><path d="M481.90105,195.9037c0,127.63408 -104.74263,231.10195 -233.9492,231.10195c-129.20658,0 -233.9492,-103.46787 -233.9492,-231.10195c0,-127.63408 104.74262,-231.10195 233.9492,-231.10195c129.20658,0 233.9492,103.46786 233.9492,231.10195z" fill="url(#color-2)" stroke="none" stroke-width="0"/><path d="M174.58767,-7.05078c10.85026,-12.46468 18.37534,-12.76429 35.62257,-16.91169c49.98894,-12.02072 129.0069,2.12674 194.11344,53.24661c32.44145,25.47214 50.33394,55.11153 61.83473,79.8296c19.54346,42.00377 14.66199,77.25617 -11.96633,107.84656c-17.09673,19.64058 -30.5687,31.10443 -62.91572,30.35379c-13.01193,-0.30195 -38.36167,-17.09305 -48.41654,-22.67596c-26.79062,-14.87535 -38.5685,-25.67761 -76.505,-55.46432c-33.40276,-26.22693 -69.46121,-50.07686 -86.4999,-79.93174c-14.07366,-24.65957 -15.15224,-39.24462 -15.87326,-52.62371c-0.3928,-7.28874 5.72475,-33.07274 11.30184,-39.47967z" data-paper-data="{&quot;index&quot;:null}" fill="url(#color-3)" stroke="none" stroke-width="0"/></g></g></svg>