<svg version="1.1" xmlns="http://www.w3.org/2000/svg" xmlns:xlink="http://www.w3.org/1999/xlink" width="369.90386" height="540.80697" viewBox="0,0,369.90386,540.80697"><defs><linearGradient x1="236.12459" y1="29.24315" x2="236.12459" y2="382.86389" gradientUnits="userSpaceOnUse" id="color-1"><stop offset="0" stop-color="#53a0be"/><stop offset="1" stop-color="#001b2e"/></linearGradient><linearGradient x1="92.69312" y1="31.67792" x2="396.54415" y2="404.32297" gradientTransform="translate(-12.51266,-36.71662) rotate(4.72301) scale(0.10607,0.10607)" gradientUnits="userSpaceOnUse" id="color-2"><stop offset="0" stop-color="#bbbbbb"/><stop offset="1" stop-color="#313131"/></linearGradient></defs><g transform="translate(-51.17266,90.18323)"><g data-paper-data="{&quot;isPaintingLayer&quot;:true}" fill-rule="nonzero" stroke="none" stroke-linecap="butt" stroke-linejoin="miter" stroke-miterlimit="10" stroke-dasharray="" stroke-dashoffset="0" style="mix-blend-mode: normal"><path d="M418.61321,204.3932c0,58.54548 9.14947,134.33922 -36.62674,165.7421c-29.11266,19.97154 -103.69001,7.68133 -142.05194,7.68133c-32.45404,0 -131.95625,12.62302 -158.18752,-2.05614c-53.52897,-29.9551 -20.49116,-107.08769 -20.49116,-171.36729c0,-54.03495 -6.07011,-123.319 33.84333,-155.12451c30.83473,-24.57103 101.82621,-18.29891 144.83535,-18.29891c46.24992,0 124.43168,-9.9717 156.16106,18.01246c35.97026,31.72447 22.51762,104.52148 22.51762,155.41097z" fill="url(#color-1)" stroke-width="0"/><text transform="matrix(9.42813 0 0 9.42813 146.07346 99.57674999999998)" font-size="40"  fill="url(#color-2)" fill-rule="nonzero" stroke="none" stroke-width="1" stroke-linecap="butt" stroke-linejoin="miter" stroke-miterlimit="10" stroke-dasharray="" stroke-dashoffset="0" font-family="Helvetica" font-weight="normal" text-anchor="start" style="mix-blend-mode: normal" >6</text></g></g></svg>