<svg version="1.1" xmlns="http://www.w3.org/2000/svg" xmlns:xlink="http://www.w3.org/1999/xlink" width="233.61033" height="309.14507" viewBox="0,0,233.61033,309.14507"><defs><linearGradient x1="140.87029" y1="314.12855" x2="194.20958" y2="339.346" gradientUnits="userSpaceOnUse" id="color-1"><stop offset="0" stop-color="#c37b00"/><stop offset="1" stop-color="#f5ff45"/></linearGradient><radialGradient cx="241.31672" cy="181.21496" r="141.69749" gradientUnits="userSpaceOnUse" id="color-2"><stop offset="0" stop-color="#f8ff66" stop-opacity="0"/><stop offset="1" stop-color="#f8ff66"/></radialGradient></defs><g transform="translate(-129.19483,-42.92746)"><g data-paper-data="{&quot;isPaintingLayer&quot;:true}" fill-rule="nonzero" stroke-linecap="butt" stroke-linejoin="miter" stroke-miterlimit="10" stroke-dasharray="" stroke-dashoffset="0" style="mix-blend-mode: normal"><path d="M198.73742,329.76883c-8.49796,17.97466 -27.32733,26.90089 -42.05657,19.93728c-14.72924,-6.96361 -19.78069,-27.18007 -11.28273,-45.15473c8.49796,-17.97466 18.82827,-6.58425 33.5575,0.37936c14.72924,6.96361 28.27975,6.86343 19.78179,24.83809z" fill="url(#color-1)" stroke="none" stroke-width="0"/><path d="M328.11071,252.92853c-2.49939,0.05504 -2.55443,-2.44436 -2.55443,-2.44436l0.72175,-0.48431c-1.83207,-1.75313 -3.6778,-4.34694 -6.24596,-5.05898c-2.67474,-0.74159 -6.35324,0.07823 -8.97431,0.69673c-2.78572,0.65735 -4.45782,2.43987 -7.63515,0.3285c-1.77279,-1.17804 -2.62858,-3.34857 -3.94287,-5.02286c0.189,-2.21628 0.39825,-7.82219 -2.47413,-9.06524c-1.26394,-0.54698 -4.57866,0.31427 -5.42781,0.37869c-2.59005,0.19648 -5.19093,-0.32965 -7.78776,-0.2711c-5.05869,0.11407 -9.44271,0.59546 -13.84167,-3.06307c-2.7381,-2.27723 -4.06878,-7.7951 -4.15863,-11.14069c-0.0763,-2.8411 1.53732,-6.05867 0.43953,-8.87805c-1.41958,-3.64581 -5.67029,-5.30483 -8.87243,-6.86766c-6.59574,-0.76654 -12.20022,3.50841 -18.62189,4.09228c-3.03438,0.27589 -8.39951,-0.69797 -11.29478,-1.64421c-0.43802,-0.14316 -8.77091,-4.05044 -9.29591,-4.56966c-0.89823,-0.88833 -0.99602,-2.32252 -1.4549,-3.49954c-0.92716,-2.37818 -2.12703,-6.01856 -3.99187,-7.83272c-2.05017,-1.99446 -4.68572,-1.60927 -7.10345,-1.40099c-3.75807,0.32375 -7.62023,0.70462 -11.35475,0.25477c-5.67127,0.81331 -16.78157,0.22574 -20.19116,-5.34507c-0.8424,-1.37636 -0.81175,-3.15259 -0.85026,-4.76583c-0.01656,-0.69364 1.03634,-1.36297 0.6896,-1.96396c-0.36356,-0.63014 -1.40298,-0.39655 -2.12056,-0.51628c-7.72073,-1.28822 -15.61131,-2.76304 -23.49262,-1.63784c-3.68679,0.52636 -7.12923,3.24868 -10.82717,3.83918c-1.23017,0.19644 -2.47856,-0.25365 -3.71784,-0.38048c0,0 -2.48206,-0.29898 -2.18307,-2.78104c0.29898,-2.48206 2.78104,-2.18307 2.78104,-2.18307c4.90142,0.71932 8.34469,-2.70181 13.03767,-3.41119c5.81833,-0.87948 12.67722,-0.61415 18.39995,0.51673c2.44921,0.48399 5.06274,0.32323 7.38746,1.23349c1.82467,0.71446 3.9893,1.2969 5.11189,2.90304c2.13463,3.0541 -1.40782,4.01256 0.1347,6.68337c1.10022,1.90499 3.69299,1.9191 5.45107,2.1825c3.68574,0.55222 6.61326,1.18955 10.32309,0.6269c7.05216,0.84949 15.95859,-3.16885 21.87971,2.43875c0.26332,0.24938 4.02614,6.40963 4.29628,6.96381c0.72295,1.48307 0.27292,3.61356 1.49943,4.71712c0.75559,0.67984 1.90497,0.71336 2.83264,1.1287c1.39937,0.62653 2.68855,1.51434 4.14445,1.9951c2.36801,0.78195 6.86349,1.75512 9.35082,1.47974c0.8286,-0.09174 1.52512,-0.69923 2.33566,-0.89423c6.22789,-1.49835 11.72264,-3.83469 18.23019,-3.03357c4.53557,2.09185 10.10411,4.57028 12.06853,9.66945c1.96978,5.11309 -2.64061,14.2054 2.49287,18.31415c3.35105,2.68213 6.67862,1.85099 10.42016,1.77054c2.47913,-0.0533 4.96162,0.48502 7.43351,0.28837c2.80179,-0.22289 5.16724,-1.29817 7.98535,0.08332c3.18475,1.56124 3.4977,3.40204 4.52323,6.26679c0.67458,1.8844 0.95617,3.99693 0.6289,5.9715c0.52664,0.67089 0.8644,1.54848 1.57992,2.01268c1.08912,0.70658 3.23172,-0.64533 3.9699,-0.82169c0.22822,-0.05453 7.52454,-1.12441 7.70744,-1.12622c5.55945,-0.0548 8.48471,3.18783 12.18279,6.72655l0.8202,3.98674c0,0 0.05504,2.49939 -2.44436,2.55443z" fill="#f8fd66" stroke="none" stroke-width="0.5"/><path d="M291.12691,185.94201c4.35344,1.89863 8.54159,2.6802 13.08225,4.02619c0.78262,0.23199 1.32775,1.12628 2.14174,1.18735c0.70653,0.053 1.2477,-0.70596 1.9341,-0.88158c1.16435,-0.2979 2.39697,-0.25111 3.567,-0.52587c3.52299,-0.82732 6.10441,-2.5155 8.24524,-5.46754c0.10434,-0.14387 1.56085,-3.04947 1.3665,-3.59239c-0.1865,-0.52097 -0.86348,-0.70147 -1.3478,-0.9691c-2.33693,-1.29132 -4.4797,-2.19653 -7.11403,-2.50269c-0.69775,0.10521 -3.99683,0.43317 -4.90222,1.07655c-0.85924,0.61058 -1.30293,1.70962 -2.1863,2.28475c-3.76415,2.45072 -9.59363,3.50537 -13.83294,5.02297zM287.07943,186.27438c-0.34049,-0.25193 -0.64689,-0.64121 -0.85823,-1.23157c-0.84259,-2.35373 1.51114,-3.19632 1.51114,-3.19632c2.66294,-0.95328 7.98882,-2.85985 10.65176,-3.81313c1.59517,-0.57104 3.41206,-0.68928 4.80764,-1.65001c0.86825,-0.59771 1.29702,-1.7188 2.1863,-2.28475c2.21042,-1.40675 5.09361,-1.52448 7.55765,-1.88176c4.00448,0.49297 11.60025,2.21816 13.23551,6.78616c1.67984,4.69253 -3.48539,11.00793 -7.02593,13.36102c-2.74664,1.82546 -6.56769,2.07426 -9.64714,2.76056c-1.15281,0.25692 -2.21233,1.08722 -3.39178,1.02499c-1.18494,-0.06252 -2.13799,-1.06429 -3.28259,-1.37714c-5.1625,-1.41103 -9.8379,-2.40314 -14.7915,-4.74508c0,0 -2.26014,-1.06854 -1.1916,-3.32868c0.07423,-0.157 0.15421,-0.29795 0.23878,-0.4243z" fill="#f9ff66" stroke="none" stroke-width="0.5"/><path d="M345.58126,229.73704c-18.40337,38.92633 -27.41112,16.47162 -60.89611,29.24863c-21.23959,8.10448 -58.18387,46.10833 -84.98348,54.1213c-7.36268,2.20141 -12.81971,-2.43506 -18.35227,-5.05071c-10.59202,-5.00763 -24.46243,-5.37756 -27.61739,-19.27561c-4.30635,-18.97008 3.84568,-53.32701 -1.57717,-68.66657c-12.14146,-34.34435 -33.26982,-48.99449 -14.50642,-88.68234c33.28368,-70.40077 106.81278,-105.46548 164.23185,-78.31921c57.41907,27.14626 76.98467,106.22376 43.70099,176.62453z" fill="url(#color-2)" stroke="#000000" stroke-width="2"/></g></g></svg>