<svg version="1.1" xmlns="http://www.w3.org/2000/svg" xmlns:xlink="http://www.w3.org/1999/xlink" width="36.3618" height="23.61334" viewBox="0,0,36.3618,23.61334"><g transform="translate(-221.8191,-168.19333)"><g data-paper-data="{&quot;isPaintingLayer&quot;:true}" fill-rule="nonzero" stroke="none" stroke-width="0.5" stroke-linecap="butt" stroke-linejoin="miter" stroke-miterlimit="10" stroke-dasharray="" stroke-dashoffset="0" style="mix-blend-mode: normal"><path d="M227.43498,189.88326c-1.75585,-0.15283 -3.34132,-0.2864 -4.39013,-2.08484c-0.75536,-1.29527 -0.44155,-1.9575 -0.52954,-3.32945c-0.15697,-2.4473 -1.50951,-5.33153 0.04062,-7.5743c1.40885,-2.03836 3.58288,-2.03387 5.64946,-1.72567c0.96873,-2.74691 2.63254,-5.05083 5.44671,-6.13722c3.04074,-1.17385 6.46617,-0.77288 9.63678,-0.77054c3.8161,0.31504 8.42814,1.58792 10.58528,5.44498c0.97888,1.75029 1.25145,3.99535 1.4538,5.97613c0.38028,3.72252 1.39989,9.69325 -2.82501,11.60171c-0.51011,0.23042 -1.09177,0.19081 -1.63767,0.28623c-5.56671,0.01189 -11.17448,0.52697 -16.73151,-0.00167c-1.86023,-0.17696 -4.80521,-0.08611 -6.27768,-1.68404zM224.39963,178.37563c-0.62544,0.84468 -0.1288,2.11344 0.02404,3.00039c0.01064,0.06177 0.38176,2.87664 0.38434,2.91713c0.05515,0.86575 -0.2539,2.26521 0.71483,2.78339c0.36248,0.1939 1.00568,0.26017 1.53543,0.29728c-0.02353,-0.69365 0.02078,-1.40785 0.04138,-2.01359c-0.17416,-0.32911 -0.17416,-0.68157 -0.17416,-0.68157v-0.09921c0.00114,-2.22403 0.13222,-4.69157 0.61987,-7.01701c-1.13059,-0.18366 -2.34515,-0.26805 -3.14576,0.81318zM229.22495,184.17922c0.18293,0.33365 0.18293,0.69787 0.18293,0.69787c0,0.45858 -0.19801,1.92614 -0.09265,2.75534c0.20328,0.14341 0.3867,0.37797 0.44285,0.76164c1.06323,0.73602 3.632,0.61391 4.57755,0.70401c5.43791,0.51816 10.91956,-0.01477 16.36671,-0.00167c3.89027,-0.45934 2.62865,-6.37006 2.34085,-9.14344c-0.16662,-1.60567 -0.33216,-3.50647 -1.12051,-4.93637c-1.72537,-3.12942 -5.68894,-4.0238 -8.72201,-4.27707c-2.8436,0.00226 -6.02259,-0.4308 -8.75112,0.61833c-4.64406,1.78565 -5.19929,8.17479 -5.2246,12.82138z" fill="#000000"/><path d="M227.55363,177.5393c-0.48765,2.32545 -0.61588,4.83784 -0.61702,7.06189l-0.00038,0.09942c0,0 -0.00096,0.35298 0.17319,0.68208c-0.02061,0.60573 -0.06868,1.32143 -0.04516,2.01508c-0.52975,-0.03712 -1.18051,-0.1026 -1.54299,-0.29649c-0.96873,-0.51818 -0.66965,-1.92093 -0.72479,-2.78667c-0.00258,-0.04049 -0.38109,-2.89089 -0.39174,-2.95265c-0.15284,-0.88695 -0.63871,-2.16484 -0.01326,-3.00951c0.8006,-1.08123 2.03155,-0.99681 3.16214,-0.81314z" data-paper-data="{&quot;noHover&quot;:false,&quot;origItem&quot;:[&quot;Path&quot;,{&quot;applyMatrix&quot;:true,&quot;segments&quot;:[[[406.21069,329.98569],[3.48317,-4.35961],[-2.72112,3.4058]],[[406.31528,342.08347],[-0.66496,-3.57624],[0.04631,0.24905]],[[407.98742,353.84555],[-0.01122,-0.16327],[0.23989,3.49074]],[[411.09741,365.06838],[-4.21465,-2.08935],[1.57704,0.78179]],[[417.77762,366.26707],[-2.30479,-0.14968],[-0.10236,-2.79685]],[[417.95767,358.14814],[-0.08966,2.44237],[-0.75767,-1.32698]],[417.2,355.4],[[417.2,355],[0,0],[0.00493,-8.96749]],[[419.89687,326.7069],[-2.12163,9.37636],[-4.91885,-0.74055]]],&quot;closed&quot;:true}]}" fill="#ffffff"/><path d="M234.43454,171.33906c2.72852,-1.04912 5.92738,-0.62152 8.77099,-0.62378c3.03307,0.25327 7.01286,1.16198 8.73823,4.2914c0.78835,1.42989 0.9558,3.34054 1.12242,4.9462c0.28779,2.77338 1.54351,8.70078 -2.34676,9.16012c-5.44715,-0.01309 -10.96056,0.5223 -16.39846,0.00414c-0.94556,-0.0901 -3.51871,0.02677 -4.58194,-0.70925c-0.05615,-0.38366 -0.2403,-0.61948 -0.44357,-0.76289c-0.10536,-0.8292 0.09097,-2.30055 0.09097,-2.75913c0,0 -0.0004,-0.36545 -0.18332,-0.6991c0.02531,-4.64659 0.58742,-11.06208 5.23148,-12.84773z" data-paper-data="{&quot;noHover&quot;:false,&quot;origItem&quot;:[&quot;Path&quot;,{&quot;applyMatrix&quot;:true,&quot;segments&quot;:[[[427.20414,353.38615],[0.11012,-18.73538],[0.79586,1.34533]],[[428,356.2],[0,0],[0,1.84902]],[[427.5969,367.30973],[-0.45838,-3.3434],[0.88443,0.57824]],[[429.52359,370.3807],[-0.24428,-1.54694],[4.62579,2.96769]],[[449.4391,373.21932],[-4.11382,-0.36329],[23.65865,2.08927]],[[520.64555,373.21258],[-23.69885,-0.0528],[16.92536,-1.85209]],[[530.82986,336.34558],[1.25209,11.18247],[-0.7249,-6.47417]],[[525.95488,316.44177],[3.42987,5.76544],[-7.50651,-12.61804]],[[488.00812,299.19632],[13.19597,1.02121],[-12.37164,0.0091]],[[449.93473,301.68943],[11.87096,-4.23013],[-20.20487,7.19986]]],&quot;closed&quot;:true}]}" fill="#ffffff"/><g><path d="M240.99181,175.20683c0.13108,0.0219 0.22237,0.02135 0.22237,0.02135c3.8952,0 9.68009,-0.90229 13.27376,0.62248c1.78228,0.75622 1.84976,4.13506 0.9133,5.2754c-2.94526,3.52256 -8.22069,3.01999 -12.86151,3.02139c-1.62987,0.00048 -3.73946,0.17566 -4.97302,-0.97919c-0.89523,-0.8381 -0.55894,-2.49366 -0.57702,-3.51238c0.74416,-1.76138 2.04063,-3.59755 4.00211,-4.44905z" data-paper-data="{&quot;noHover&quot;:false,&quot;origItem&quot;:[&quot;Path&quot;,{&quot;applyMatrix&quot;:true,&quot;segments&quot;:[[[239.90084,166.06497],[0.78953,-2.14749],[0.0192,1.24203]],[[240.50838,170.32677],[-0.94981,-1.02182],[1.30878,1.408]],[[245.76918,171.50163],[-1.72924,0.0006],[4.92377,-0.00171]],[[259.33593,167.84814],[-3.12483,4.29474],[0.99354,-1.39031]],[[258.37182,161.44966],[1.89094,0.92198],[-3.81279,-1.85902]],[[244.36918,160.70163],[4.13268,0],[0,0]],[[244.13387,160.67493],[0.13907,0.0267],[-2.08108,1.03816]]],&quot;closed&quot;:true}]}" fill="#9ddcff"/><path d="M257.18859,181.84479c0.23106,1.00535 -0.92423,1.20641 -0.92423,1.20641l-0.26716,0.01914c-5.71642,2.25731 -15.0124,2.38358 -20.57271,-0.50988c0,0 -1.01027,-0.52749 -0.40411,-1.40664c0.60617,-0.87915 1.61644,-0.35166 1.61644,-0.35166c4.90661,2.57148 13.36117,2.39191 18.38533,0.40146l0.7801,-0.16312c0,0 1.15529,-0.20108 1.38635,0.80428z" fill="#49bfff"/><path d="M239.4252,173.59233l0.07854,-0.02278c1.1948,-0.34104 2.67177,-0.46619 3.92319,-0.46619c0,0 0.06607,0 0.12825,0.03045c0.0035,-0.0011 0.007,-0.00221 0.01049,-0.0033c4.88141,-0.23973 12.07045,-0.76491 14.1065,2.95055c0.58474,1.06705 0.51625,2.49623 0.4947,3.64545c-0.0166,0.88462 -0.34342,1.78556 -0.86407,2.54549c-0.84317,1.00931 -1.65642,2.16824 -2.96204,2.7872c-1.20556,0.57153 -2.82715,0.59597 -4.15392,0.76673c-3.83917,0.49414 -11.47098,1.53162 -14.34783,-1.32184c-1.4375,-1.42582 -1.14654,-3.46763 -1.12394,-5.19861c0.89519,-2.22129 2.31284,-4.29103 4.54598,-5.53452c0.00407,-0.13217 0.16415,-0.1786 0.16415,-0.1786zM237.03683,179.65543c0.0181,1.01872 -0.32259,2.65744 0.57263,3.49555c1.23357,1.15485 3.32861,0.96412 4.95848,0.96362c4.64082,-0.0014 9.84186,0.52596 12.78713,-2.9966c0.93644,-1.14034 0.87357,-4.49184 -0.9087,-5.24805c-3.59368,-1.52478 -9.30277,-0.61353 -13.19796,-0.61353c0,0 -0.09071,0 -0.22179,-0.0219c-1.96148,0.8515 -3.24562,2.65955 -3.98977,4.42093z" fill="#000000"/></g><path d="M250.17631,176.77585c0,0.62003 -0.65022,0.62003 -0.65022,0.62003h-0.62421c-0.82339,0 -1.60519,0.00768 -2.42503,0.09541c0,0 -0.64624,0.06847 -0.71805,-0.54777c-0.0718,-0.61623 0.57443,-0.6847 0.57443,-0.6847c0.86762,-0.09107 1.69756,-0.103 2.56863,-0.103h0.62421c0,0 0.65022,0 0.65022,0.62003z" fill="#ffffff"/></g></g></svg>