<svg version="1.1" xmlns="http://www.w3.org/2000/svg" xmlns:xlink="http://www.w3.org/1999/xlink" width="398.5" height="232.26604" viewBox="0,0,398.5,232.26604"><g transform="translate(-40.75,-75.94231)"><g data-paper-data="{&quot;isPaintingLayer&quot;:true}" fill-rule="nonzero" stroke-linecap="butt" stroke-linejoin="miter" stroke-miterlimit="10" stroke-dasharray="" stroke-dashoffset="0" style="mix-blend-mode: normal"><g stroke="#000000" stroke-width="2.5"><path d="M42,282.80769v-205.61538h396v205.61538z" fill="#b3b3b3"/><path d="M76.57143,264.85714v-169.71428h326.85714v169.71429z" fill="#8fa8cc"/></g><g stroke="none"><path d="M188.22835,157.16006c-0.05118,0.01221 -0.1044,0.028 -0.15887,0.04685c-0.18759,0.06491 -0.33707,0.15171 -0.45335,0.24959c-1.37579,0.57286 -3.02505,0.7866 -3.93217,2.18004c-1.97827,3.03887 -0.04546,8.64943 -3.26907,10.87134c-0.68377,0.18996 -1.40401,0.27592 -2.11184,0.27277c-0.97469,-0.00433 -3.58552,0.49791 -4.43333,-0.19651c-0.57983,-0.47493 -0.20311,-2.57815 -0.20343,-3.17953c-0.00124,-2.32166 0.20045,-5.70001 -1.13286,-7.65697c-1.69185,-2.48322 -4.90251,-3.75069 -5.41243,-7.219c-0.44635,-4.67299 -1.77197,-11.51394 -0.53181,-16.10423c1.03745,-3.83997 4.55728,-6.85835 7.08089,-9.47836c4.96777,-2.79251 8.65524,-1.98373 13.77195,-0.39512c0.18152,0.13983 0.54048,0.35466 0.95752,0.28364c2.39334,1.18878 2.42388,4.08847 2.69363,6.87114c0.27182,2.80407 1.12671,5.74085 1.2594,8.52354c0.08373,1.75612 -0.49568,3.60808 -0.49755,5.39993c0.01551,2.98086 -0.69119,6.95358 -2.95928,9.04952c-0.20314,0.18773 -0.4292,0.34631 -0.66739,0.48138z" data-paper-data="{&quot;noHover&quot;:false,&quot;origItem&quot;:[&quot;Path&quot;,{&quot;applyMatrix&quot;:true,&quot;segments&quot;:[[[252.88437,188.12449],[0,0],[0.23819,-0.13507]],[[253.5496,187.64538],[-0.20314,0.18773],[2.26809,-2.09594]],[[256.49619,178.63075],[0.01551,2.98086],[0.00187,-1.79185]],[[256.99797,173.24943],[0.08373,1.75612],[-0.13269,-2.78269]],[[255.75239,164.74419],[0.27182,2.80407],[-0.26975,-2.78267]],[[253.0708,157.88044],[2.39334,1.18878],[-0.41704,0.07102]],[[252.11528,157.59761],[0.18152,0.13983],[-5.11671,-1.58861]],[[238.37394,157.9944],[4.96777,-2.79251],[-2.52361,2.62001]],[[231.31715,167.45824],[1.03745,-3.83997],[-1.24016,4.59029]],[[231.859,183.51119],[-0.44635,-4.67299],[0.50992,3.46831]],[[237.24933,190.7042],[-1.69185,-2.48322],[1.33331,1.95696]],[[238.37119,198.35654],[-0.00124,-2.32166],[0.00032,0.60138]],[[238.57239,201.53549],[-0.57983,-0.47493],[0.84781,0.69442]],[[242.99619,201.73069],[-0.97469,-0.00433],[0.70783,0.00315]],[[245.10336,201.45795],[-0.68377,0.18996],[3.22361,-2.22191]],[[248.35713,190.58988],[-1.97827,3.03887],[0.90712,-1.39344]],[[252.274,188.41917],[-1.37579,0.57286],[0.11628,-0.09788]],[[252.7259,188.17092],[-0.18759,0.06491],[0.05447,-0.01885]],[[252.88436,188.12447],[-0.05118,0.01221],[0,0]]],&quot;closed&quot;:true,&quot;fillColor&quot;:[0,0,0,1]}]}" fill="#ff00df" stroke-width="0.5"/><path d="M160.65186,131.20269c0.179,-0.20475 0.36082,-0.41018 0.53982,-0.61493c1.72937,-0.45963 4.13018,-0.27907 5.97747,-0.07756c-1.20224,1.56089 -2.22457,3.35536 -2.74997,5.2428c-1.3821,4.96511 -0.02108,12.11004 0.46997,17.16947c0.05623,0.29181 0.12481,0.50348 0.22639,0.82697l0.01262,0.09922c-1.22825,0.10451 -2.63741,0.26405 -3.62063,-0.00264c-0.36458,-0.09889 -0.65108,-0.36577 -0.8715,-0.71636c-1.40892,-7.27574 0.51781,-14.64948 0.01584,-21.92697z" data-paper-data="{&quot;noHover&quot;:false,&quot;origItem&quot;:[&quot;Path&quot;,{&quot;applyMatrix&quot;:true,&quot;segments&quot;:[[[225.16502,162.25091],[0,0],[0.50197,7.27749]],[[225.1492,184.08142],[-1.40892,-7.27574],[0.22042,0.35059]],[[226.01648,184.79682],[-0.36458,-0.09889],[0.98322,0.26669]],[[229.62184,184.79905],[-1.22825,0.10451],[0,0]],[[229.62184,184.79903],[0,0],[-0.10158,-0.32349]],[[229.38338,183.87279],[0.05623,0.29181],[-0.49105,-5.05943]],[[228.92523,166.70336],[-1.3821,4.96511],[0.5254,-1.88744]],[[231.65463,161.55804],[-1.20224,1.56089],[-1.84729,-0.20151]],[[225.70203,161.63667],[1.72937,-0.45963],[-0.179,0.20475]],[[225.16502,162.25092],[0.179,-0.20475],[0,0]]],&quot;closed&quot;:true,&quot;fillColor&quot;:[0,0,0,1]}]}" fill="#ff00df" stroke-width="0.5"/><path d="M186.36606,164.70451l-0.90023,0.08161c0.1127,-1.09937 -0.24201,-2.70851 0.38578,-3.71559c0.37501,-0.60158 1.1542,-0.96308 1.95806,-1.25498c0.79031,2.24475 1.36461,4.0189 -1.44361,4.88896z" data-paper-data="{&quot;noHover&quot;:false,&quot;origItem&quot;:[&quot;Path&quot;,{&quot;applyMatrix&quot;:true,&quot;segments&quot;:[[[252.29371,190.86294],[0.79031,2.24475],[-0.80386,0.2919]],[[250.38524,192.10752],[0.37501,-0.60158],[-0.62779,1.00708]],[[249.99176,195.74337],[0.1127,-1.09937],[0,0]],[[250.87829,195.65603],[0,0],[2.80822,-0.87006]]],&quot;closed&quot;:true,&quot;fillColor&quot;:[0,0,0,1],&quot;strokeWidth&quot;:0.5}]}" fill="#ff0000" stroke-width="0.25"/><path d="M171.53439,164.34328c-0.21252,-0.06376 -0.38405,-0.06068 -0.38405,-0.06068c-0.71281,0 -1.48967,0.23414 -2.18302,0.06239c-2.00164,-0.49583 -0.88578,-3.33713 0.08335,-4.27767c0.62252,0.44544 1.22533,0.45624 1.72898,1.15137c0.58992,0.81421 0.75411,1.95966 0.75474,3.12458z" data-paper-data="{&quot;noHover&quot;:false,&quot;origItem&quot;:[&quot;Path&quot;,{&quot;applyMatrix&quot;:true,&quot;segments&quot;:[[[236.00137,195.30571],[0,0],[-0.00063,-1.16492]],[[235.24305,192.25276],[0.58992,0.81421],[-0.50365,-0.69513]],[[233.56467,191.11531],[0.62252,0.44544],[-0.96913,0.94054]],[[233.48342,195.29765],[-2.00164,-0.49583],[0.69335,0.17175]],[[235.62119,195.24196],[-0.71281,0],[0,0]],[[236.00137,195.30572],[-0.21252,-0.06376],[0,0]]],&quot;closed&quot;:true,&quot;fillColor&quot;:[0,0,0,1],&quot;strokeWidth&quot;:0.5}]}" fill="#ff0000" stroke-width="0.25"/><path d="M159.10471,135.76138c-0.20677,-0.2378 -0.3473,-0.59335 -0.20648,-1.10966c0.3289,-1.20595 1.53485,-0.87706 1.53485,-0.87706c2.60625,0.71999 5.44042,1.5642 6.73279,-1.07621l0.09206,-0.07128l-0.02874,-0.02156l0.74127,-0.98836c0.22746,-0.31022 0.59457,-0.51164 1.00873,-0.51164c0.5753,0 1.05983,0.38865 1.20535,0.91771l0.36693,1.2231l-0.05235,0.01571c0.04117,0.10675 0.07658,0.21582 0.10497,0.32773c0.21859,0.86179 -0.37854,1.75168 -0.3749,2.64075c0.01717,4.20002 -0.69499,9.81941 3.26423,12.76083c2.0027,1.48787 5.08793,2.10705 7.45766,2.75902c2.63476,0.23952 5.25193,0.38536 7.90311,0.60515c0.72615,0.0602 1.6513,-0.23094 2.16749,0.28332c2.44435,2.43526 -0.45464,3.3617 -1.47917,4.74884c-1.03527,1.40168 0.61016,4.55913 -0.34417,6.19728c-0.94348,1.61952 -2.63424,1.61249 -4.04132,2.26667c-0.84913,0.39478 -1.57917,1.72791 -2.07154,2.46082c-0.39166,0.97084 -0.69308,2.07129 -1.65381,2.70201c-1.50556,0.9884 -6.96575,1.34554 -8.33635,-0.02506c-0.84111,-0.84111 -0.78132,-2.51403 -0.73956,-3.57115c0.02355,-0.5963 0.67698,-1.28095 0.32248,-1.761c-0.77865,-1.05441 -3.89235,0.27783 -5.19242,-1.29299c-2.41786,-2.92143 1.35665,-4.97375 1.87535,-7.19973c-1.11713,-0.58122 -1.57051,-1.63323 -2.50391,-2.34972c-0.43406,-0.3332 -1.46786,0.24382 -1.69654,0.27746c-0.96,0.14121 -3.878,0.25582 -4.64083,-0.33249c-1.67914,-1.29499 -0.92941,-1.87333 -1.15243,-3.34774c-0.7426,-4.90934 -0.76582,-9.89202 -0.2617,-14.86878c-0.00034,-0.26066 -0.00068,-0.52131 -0.00102,-0.78197z" fill="#bf00a5" stroke-width="0.5"/><path d="M160.66503,131.25091c0.50197,7.27749 -1.42474,14.55477 -0.01582,21.83051c0.22042,0.35059 0.5027,0.61651 0.86728,0.7154c0.98322,0.26669 2.37711,0.10674 3.60536,0.00223v-0.00002c-0.10158,-0.32349 -0.18223,-0.63443 -0.23846,-0.92624c-0.49105,-5.05943 -1.84025,-12.20432 -0.45815,-17.16943c0.5254,-1.88744 1.52716,-3.58443 2.7294,-5.14532c-1.84729,-0.20151 -4.22323,-0.381 -5.9526,0.07863c-0.179,0.20475 -0.35801,0.4095 -0.53701,0.61425zM158.25345,153.85077c-0.0084,-0.04297 -0.01672,-0.08596 -0.02494,-0.12896c-0.02299,-0.049 -0.04545,-0.09822 -0.06738,-0.14763c0.01143,-0.0104 0.02262,-0.02092 0.03359,-0.03157c-1.40309,-7.5537 -0.2024,-15.47526 0.0986,-23.08228c0.31195,-0.45157 0.6239,-0.90314 0.93585,-1.35472l0.14217,-0.14508c-0.01155,-0.12291 -0.0242,-0.24586 -0.038,-0.36887c0.20669,-0.09278 0.42176,-0.17564 0.64388,-0.24944l0.11807,-0.12049c0,0 0.68464,-0.68464 1.45136,-0.24626c2.56786,-0.39226 5.58389,-0.00867 7.57395,0.19548l0.00062,-0.00645c0,0 0.03172,0 0.08506,0.00524l-0.00001,0.00002c1.06673,-1.14142 2.16744,-2.21472 3.16219,-3.24748c5.43818,-3.19804 9.67335,-2.68234 15.22947,-1.03243c0.08867,0.00592 0.14343,0.01729 0.14343,0.01729c6.29176,1.39036 5.4926,7.21921 6.12049,12.40441c0.23239,1.91915 1.04625,3.86304 1.13259,5.79944c0.08161,1.83043 -0.50033,3.66699 -0.49822,5.51976c-0.01585,3.7153 -0.92784,8.42506 -3.80341,10.97073c-0.16545,0.14647 -0.36012,0.27387 -0.57509,0.38827c1.14516,3.83183 1.35056,6.77321 -3.25361,8.21229l-1.36852,0.14808c0,0 -0.21001,0.0218 -0.46607,-0.0421c-0.57603,2.20478 -1.63773,4.29643 -3.39049,5.51227c-2.86066,0.81904 -9.12436,1.73869 -10.22786,-2.15338c-0.30402,-1.07228 -0.19155,-2.44601 -0.06521,-3.85512c-0.13336,0.02565 -0.22475,0.02565 -0.22475,0.02565c-0.36516,0 -2.66936,0.01439 -2.86223,-0.05568c-3.88238,-1.41039 -3.27991,-6.23046 -0.89245,-8.56165c-0.41565,-0.58689 -0.81101,-1.23314 -1.16163,-1.89288c-1.60082,0.02895 -4.0297,0.44482 -5.47897,-0.06816c-0.82724,-0.29281 -1.47186,-0.88152 -1.96448,-1.59867c-0.40522,-0.29574 -0.508,-0.80965 -0.508,-0.80965zM188.38438,157.12449c0.23819,-0.13507 0.46209,-0.29138 0.66523,-0.47911c2.26809,-2.09594 2.9621,-6.03377 2.94659,-9.01463c0.00187,-1.79185 0.58551,-3.6252 0.50178,-5.38132c-0.13269,-2.78269 -0.97376,-5.70117 -1.24558,-8.50524c-0.26975,-2.78267 -0.28825,-5.67497 -2.68159,-6.86375c-0.41704,0.07102 -0.774,-0.143 -0.95552,-0.28283c-5.11671,-1.58861 -8.77357,-2.39572 -13.74134,0.39679c-2.52361,2.62001 -6.01934,5.62387 -7.05679,9.46384c-1.24016,4.59029 0.0955,11.37996 0.54185,16.05295c0.50992,3.46831 3.69848,4.70979 5.39033,7.19301c1.33331,1.95696 1.12062,5.33068 1.12186,7.65234c0.00032,0.60138 -0.37863,2.70402 0.2012,3.17895c0.84781,0.69442 3.44911,0.19087 4.4238,0.1952c0.70783,0.00315 1.4234,-0.08278 2.10717,-0.27274c3.22361,-2.22191 1.2755,-7.8292 3.25377,-10.86807c0.90712,-1.39344 2.54108,-1.59785 3.91687,-2.17071c0.11628,-0.09788 0.26431,-0.18334 0.4519,-0.24825c0.05447,-0.01885 0.10728,-0.03424 0.15846,-0.04645zM171.50138,164.30571c-0.00063,-1.16492 -0.1684,-2.23874 -0.75832,-3.05295c-0.50365,-0.69513 -1.05586,-0.69201 -1.67838,-1.13745c-0.96913,0.94054 -2.08289,3.68651 -0.08125,4.18234c0.69335,0.17175 1.42496,-0.05569 2.13777,-0.05569c0,0 0.16766,0 0.38018,0.06376zM187.79372,159.86294c-0.80386,0.2919 -1.53346,0.643 -1.90847,1.24458c-0.62779,1.00708 -0.28078,2.53648 -0.39348,3.63585l0.88653,-0.08734c2.80822,-0.87006 2.20573,-2.54834 1.41542,-4.79309z" fill="#000000" stroke-width="0.5"/><path d="M182.59696,133.0162c0.13907,0.0267 0.23593,0.02603 0.23593,0.02603c4.13268,0 10.27029,-1.10008 14.08307,0.75894c1.89094,0.92198 1.96253,5.04151 0.96899,6.43182c-3.12483,4.29474 -8.72191,3.682 -13.64568,3.68371c-1.72924,0.0006 -3.96745,0.21416 -5.27623,-1.19384c-0.94981,-1.02182 -0.59301,-3.0403 -0.6122,-4.28233c0.78953,-2.14749 2.16504,-4.38617 4.24612,-5.42433z" data-paper-data="{&quot;noHover&quot;:false,&quot;origItem&quot;:[&quot;Path&quot;,{&quot;applyMatrix&quot;:true,&quot;segments&quot;:[[[239.90084,166.06497],[0.78953,-2.14749],[0.0192,1.24203]],[[240.50838,170.32677],[-0.94981,-1.02182],[1.30878,1.408]],[[245.76918,171.50163],[-1.72924,0.0006],[4.92377,-0.00171]],[[259.33593,167.84814],[-3.12483,4.29474],[0.99354,-1.39031]],[[258.37182,161.44966],[1.89094,0.92198],[-3.81279,-1.85902]],[[244.36918,160.70163],[4.13268,0],[0,0]],[[244.13387,160.67493],[0.13907,0.0267],[-2.08108,1.03816]]],&quot;closed&quot;:true}]}" fill="#9ddcff" stroke-width="0.5"/><path d="M199.78129,141.10926c0.24515,1.22573 -0.98058,1.47087 -0.98058,1.47087l-0.28345,0.02334c-6.06495,2.75213 -15.92772,2.90608 -21.82704,-0.62165c0,0 -1.07187,-0.64312 -0.42875,-1.71499c0.64312,-1.07187 1.71499,-0.42875 1.71499,-0.42875c5.20577,3.13517 14.17581,2.91624 19.50629,0.48946l0.82766,-0.19888c0,0 1.22573,-0.24515 1.47087,0.98058z" fill="#49bfff" stroke-width="0.5"/><path d="M180.93484,131.04779l0.08333,-0.02778c1.26765,-0.4158 2.83466,-0.56838 4.16239,-0.56838c0,0 0.0701,0 0.13607,0.03712c0.00371,-0.00134 0.00742,-0.00268 0.01112,-0.00403c5.17903,-0.29228 12.80639,-0.93258 14.96658,3.59733c0.62039,1.30095 0.54773,3.04343 0.52486,4.44457c-0.01761,1.07854 -0.36436,2.17698 -0.91675,3.10349c-0.89459,1.23056 -1.75742,2.64354 -3.14263,3.39818c-1.27906,0.69681 -2.99953,0.7266 -4.40719,0.9348c-4.07325,0.60246 -12.17038,1.86737 -15.22263,-1.6116c-1.52515,-1.73837 -1.21645,-4.22777 -1.19246,-6.3382c0.94978,-2.70823 2.45385,-5.23166 4.82315,-6.74774c0.00432,-0.16114 0.17416,-0.21775 0.17416,-0.21775zM178.40085,138.43997c0.0192,1.24203 -0.34226,3.23998 0.60754,4.2618c1.30878,1.408 3.53156,1.17546 5.2608,1.17486c4.92377,-0.00171 10.44193,0.64125 13.56676,-3.65349c0.99354,-1.39031 0.92683,-5.4765 -0.96411,-6.39848c-3.81279,-1.85902 -9.86996,-0.74803 -14.00265,-0.74803c0,0 -0.09624,0 -0.23531,-0.0267c-2.08108,1.03816 -3.44351,3.24255 -4.23303,5.39005z" fill="#000000" stroke-width="0.5"/><path d="M193.36421,134.8336c-0.10376,1.24569 -1.34945,1.14193 -1.34945,1.14193l-0.51314,-0.04873c-1.2561,0.01837 -2.5122,0.03674 -3.7683,0.05511c0,0 -1.24987,0.01828 -1.26814,-1.23159c-0.01828,-1.24987 1.23159,-1.26814 1.23159,-1.26814c1.2561,-0.01837 2.5122,-0.03674 3.7683,-0.05511l0.75722,0.05709c0,0 1.24569,0.10376 1.14193,1.34945z" fill="#ffffff" stroke-width="0.5"/></g><path d="" fill="#c4b996" stroke="none" stroke-width="NaN"/><path d="" fill="#c4b996" stroke="none" stroke-width="NaN"/><path d="" fill="#c4b996" stroke="none" stroke-width="0"/><path d="" fill="#c4b996" stroke="none" stroke-width="0"/><path d="" fill="#c4b996" stroke="none" stroke-width="0"/><path d="" fill="#c4b996" stroke="none" stroke-width="0"/><path d="" fill="#c4b996" stroke="none" stroke-width="0"/><path d="" fill="#c4b996" stroke="none" stroke-width="0"/><path d="" fill="#c4b996" stroke="none" stroke-width="0"/><path d="" fill="#c4b996" stroke="none" stroke-width="0"/><path d="" fill="#c4b996" stroke="none" stroke-width="0"/><path d="" data-paper-data="{&quot;index&quot;:null}" fill="#c4b996" stroke="none" stroke-width="0"/><path d="" fill="#c4b996" stroke="none" stroke-width="0"/><path d="M253.12118,307.83366c0.3217,0.39335 0.14689,0.59568 0,0z" fill="#c4b996" stroke="none" stroke-width="0"/><path d="" fill="#e6d973" stroke="#000000" stroke-width="2.5"/><path d="M125.95437,172.83303l-18.99407,-23.04708l41.39938,-34.11898l18.99407,23.04708z" fill="#ffffff" stroke="#000000" stroke-width="1.5"/><path d="M123.03095,171.66641l-21.92041,-16.45727l29.56213,-39.37555l21.92041,16.45727z" fill="#ffffff" stroke="#000000" stroke-width="1.5"/><g fill="#e6d973" stroke="#000000" stroke-width="2.5"><path d="M100.08367,174.05529v-40.22361h69.83265v40.22361z"/><path d="M100.08367,133.83169v-7.88698h18.14006v7.88698z"/></g><text transform="matrix(0.56141 0 0 0.56141 94.6875 183.00626)" font-size="40"  fill="#ffffff" fill-rule="nonzero" stroke="none" stroke-width="1" stroke-linecap="butt" stroke-linejoin="miter" stroke-miterlimit="10" stroke-dasharray="" stroke-dashoffset="0" font-family="Donegal" font-weight="normal" text-anchor="start" style="mix-blend-mode: normal" >Cafeteria</text><g fill="#e6d973" stroke="#000000" stroke-width="2.5"><path d="M310.08367,174.0553v-40.2236h69.83265v40.2236z"/><path d="M310.08367,133.83169v-7.88699h18.14006v7.88699z"/></g><text transform="matrix(0.5 0 0 0.5 303.6875 185.25)" font-size="40"  fill="#ffffff" fill-rule="nonzero" stroke="none" stroke-width="1" stroke-linecap="butt" stroke-linejoin="miter" stroke-miterlimit="10" stroke-dasharray="" stroke-dashoffset="0" font-family="Donegal" font-weight="normal" text-anchor="start" style="mix-blend-mode: normal" >My Tablet</text></g></g></svg>