<svg xmlns="http://www.w3.org/2000/svg" xmlns:xlink="http://www.w3.org/1999/xlink" version="1.1" width="153.14225674231216" height="209.1922445352809" viewBox="-0.12482691088996001 -0.701726826823569 153.14225674231216 209.1922445352809">
  <!-- Exported by Scratch - http://scratch.mit.edu/ -->
  <path id="ID0.5409291740506887" fill="none" stroke="none" d="M 0.7963 0.2194 L 152.0963 0.2194 L 152.0963 207.5694 L 0.7963 207.5694 L 0.7963 0.2194 Z " stroke-width="0.9705918852156621"/>
  <g id="ID0.9984294562600553">
    <g id="layer1">
      <path id="path5110" fill="#627d44" stroke="none" stroke-width="0.67190954290989" d="M 104.7639 89.5303 C 104.7639 98.3305 97.6295 105.4648 88.8285 105.4648 C 80.0283 105.4648 72.8939 98.3305 72.8939 89.5303 C 72.8939 80.7292 80.0283 73.5948 88.8285 73.5948 C 97.6295 73.5948 104.7639 80.7292 104.7639 89.5303 Z "/>
      <path id="path5108" fill="#627d44" stroke="none" stroke-width="0.6719095155004509" d="M 97.1049 38.2925 C 97.1049 56.1808 82.6027 70.683 64.7125 70.683 C 46.8243 70.683 32.322 56.1808 32.322 38.2925 C 32.322 20.4024 46.8243 5.9001 64.7125 5.9001 C 82.6027 5.9001 97.1049 20.4024 97.1049 38.2925 Z "/>
      <path id="path5099" fill="#627d44" stroke="none" stroke-width="0.6719094818631701" d="M 84.5375 94.3155 C 84.5375 109.2023 72.4686 121.2712 57.5802 121.2712 C 42.6934 121.2712 30.6244 109.2023 30.6244 94.3155 C 30.6244 79.4271 42.6934 67.3582 57.5802 67.3582 C 72.4686 67.3582 84.5375 79.4271 84.5375 94.3155 Z "/>
      <path id="path5101" fill="#627d44" stroke="none" stroke-width="0.671909505392545" d="M 125.1158 52.4718 C 125.1158 69.6097 111.2219 83.5036 94.0822 83.5036 C 76.9443 83.5036 63.0504 69.6097 63.0504 52.4718 C 63.0504 35.3321 76.9443 21.4382 94.0822 21.4382 C 111.2219 21.4382 125.1158 35.3321 125.1158 52.4718 Z "/>
      <path id="path5139" fill="#6a945c" stroke="none" stroke-width="1.842253690554334" d="M 93.1304 25.4703 C 92.105 25.4703 91.0804 25.51 90.0859 25.6222 L 91.7603 29.1739 C 93.2903 28.9004 94.8706 28.7681 96.4792 28.7681 C 102.912 28.7681 108.7731 31.0586 113.3757 34.8569 C 108.4916 29.1047 101.2672 25.4703 93.1304 25.4703 Z "/>
      <g id="g5103">
        <path id="path4875" fill="#8f4b36" stroke="none" stroke-width="1.6236811696550717" d="M 82.4008 182.4122 M 71.9102 182.3878 C 72.6766 167.4857 73.4576 152.6891 73.2514 137.9054 C 73.1069 129.2902 72.8406 120.7675 70.6275 112.6734 C 70.6275 112.6734 70.6275 112.6734 70.6275 112.6734 C 69.2068 107.4338 66.643 102.4361 62.8939 98.3883 C 58.713 93.8582 53.4685 90.2455 48.3328 86.5955 C 53.803 89.7227 59.3706 92.7931 64.1929 97.0601 C 68.5655 100.9505 71.8843 106.0196 73.9886 111.5758 C 73.9886 111.5758 73.9886 111.5758 73.9886 111.5758 C 77.1466 119.9345 78.3774 128.8632 79.3305 137.519 C 79.3305 137.519 79.3305 137.519 79.3305 137.519 C 81.011 152.478 81.7075 167.5116 82.4008 182.4122 Z "/>
        <path id="path4877" fill="#8f4b36" stroke="none" stroke-width="1.6236811696550717" d="M 73.4576 144.7038 M 79.5513 144.4846 C 77.9682 118.1079 78.3124 91.2928 86.0022 66.0494 C 86.0022 66.0494 86.0022 66.0494 86.0022 66.0494 C 88.3646 58.3093 91.4253 50.7089 96.1664 44.1557 C 96.1664 44.1557 96.1664 44.1557 96.1664 44.1557 C 99.3862 39.7198 103.4795 35.6411 108.724 33.8908 C 103.3967 35.3749 98.9819 39.2895 95.5007 43.6475 C 95.5007 43.6475 95.5007 43.6475 95.5007 43.6475 C 90.3553 50.0643 86.8124 57.6615 84.0359 65.3967 C 84.0359 65.3967 84.0359 65.3967 84.0359 65.3967 C 74.9741 90.5946 73.1329 117.9666 73.4576 144.7038 Z "/>
        <path id="path4879" fill="#8f4b36" stroke="none" stroke-width="1.6236811696550717" d="M 78.4667 84.9247 M 81.326 85.808 C 81.6945 84.3581 81.5614 83.0348 81.3438 81.9323 C 81.0532 80.1836 80.5677 78.5177 80.0222 76.9135 C 78.5381 72.5425 76.554 68.3957 74.3312 64.4241 C 74.3312 64.4241 74.3312 64.4241 74.3312 64.4241 C 71.8258 59.9411 68.9665 55.6449 65.6493 51.7383 C 62.6812 48.2377 59.317 44.9529 55.287 42.8081 C 59.1838 45.1868 62.2851 48.6192 65.0193 52.2433 C 68.0621 56.2862 70.6162 60.6702 72.8179 65.2132 C 72.8179 65.2132 72.8179 65.2132 72.8179 65.2132 C 74.7679 69.2465 76.4598 73.3901 77.6256 77.649 C 77.6256 77.649 77.6256 77.649 77.6256 77.649 C 78.0526 79.2159 78.4115 80.7714 78.569 82.3106 C 78.6453 83.3676 78.7427 84.2931 78.4667 84.9247 Z "/>
        <path id="path5164" fill="#8f4b36" stroke="none" stroke-width="1.6236811696550717" d="M 76.0311 108.3918 M 79.0138 108.1515 C 78.7492 106.4401 79.1925 104.5274 79.8078 102.6245 C 80.6051 100.2425 81.8212 97.9743 83.4254 95.9966 C 85.1205 93.9118 87.2751 92.1469 89.8 91.1467 C 89.8 91.1467 89.8 91.1467 89.8 91.1467 C 92.6511 90.0069 95.9488 89.9468 99.0257 90.7521 C 96.0365 89.6643 92.6723 89.3866 89.5126 90.3072 C 86.7328 91.1256 84.2194 92.7866 82.1784 94.8828 C 82.1784 94.8828 82.1784 94.8828 82.1784 94.8828 C 80.2527 96.8539 78.6875 99.1953 77.5607 101.7493 C 76.6628 103.7237 75.9613 105.9546 76.0311 108.3918 Z "/>
      </g>
      <path id="path5112" fill="#6a945c" stroke="none" stroke-width="1.842253690554334" d="M 64.3102 9.669 C 48.7669 9.669 36.184 22.2526 36.184 37.7958 C 36.184 45.9622 39.6652 53.3304 45.2212 58.4718 C 41.9228 53.8619 39.9749 48.2172 39.9749 42.1162 C 39.9749 26.5729 52.6021 13.9457 68.1454 13.9457 C 75.4652 13.9457 82.0963 16.7718 87.102 21.3522 C 81.9901 14.2777 73.7055 9.669 64.3102 9.669 Z "/>
      <path id="path5117" fill="#6a945c" stroke="none" stroke-width="1.842253690554334" d="M 57.7127 70.5313 C 44.8302 70.5313 34.3988 80.9627 34.3988 93.8452 C 34.3988 100.2868 37.0266 106.1324 41.2482 110.354 C 38.5693 106.5564 37.0333 101.9188 37.0333 96.9185 C 37.0333 84.036 47.4647 73.6046 60.3472 73.6046 Z "/>
    </g>
  </g>
</svg>