<svg version="1.1" width="362" height="232" viewBox="-1 24 362 232" xmlns="http://www.w3.org/2000/svg" xmlns:xlink="http://www.w3.org/1999/xlink">
  <!-- Exported by Scratch - http://scratch.mit.edu/ -->
  <path id="ID0.6327933166176081" fill="#663B00" stroke="#000000" stroke-width="2" d="M 54 209 C 68.898 209 82.398 217.460 92.174 231.128 C 101.949 244.795 108 263.670 108 284.500 C 108 305.330 101.949 324.205 92.174 337.872 C 82.398 351.540 68.898 360 54 360 C 39.102 360 25.602 351.540 15.826 337.872 C 6.051 324.205 0 305.330 0 284.500 C 0 263.670 6.051 244.795 15.826 231.128 C 25.602 217.460 39.102 209 54 209 Z " transform="matrix(1.2870370149612427, 0, 0, 1, 2, -105)"/>
  <path id="ID0.22196136554703116" fill="#663B00" stroke="#000000" stroke-width="2" d="M 218 152 C 235.657 152 251.657 159.844 263.243 172.516 C 274.829 185.188 282 202.688 282 222 C 282 241.312 274.829 258.812 263.243 271.484 C 251.657 284.156 235.657 292 218 292 C 200.343 292 184.343 284.156 172.757 271.484 C 161.171 258.812 154 241.312 154 222 C 154 202.688 161.171 185.188 172.757 172.516 C 184.343 159.844 200.343 152 218 152 Z " transform="matrix(1, 0, 0, 1, -31, -44)"/>
  <path id="ID0.7172611900605261" fill="#663B00" stroke="#000000" stroke-width="2" d="M 117 210 C 136.588 210 154.338 218.404 167.191 231.981 C 180.044 245.558 188 264.308 188 285 C 188 305.692 180.044 324.442 167.191 338.019 C 154.338 351.596 136.588 360 117 360 C 97.412 360 79.662 351.596 66.809 338.019 C 53.956 324.442 46 305.692 46 285 C 46 264.308 53.956 245.558 66.809 231.981 C 79.662 218.404 97.412 210 117 210 Z " transform="matrix(1, 0, 0, 1, 4, -183)"/>
  <path id="ID0.05485427472740412" fill="#663B00" stroke="#000000" stroke-width="2" d="M 191 89 L 207 89 L 207 332 L 191 332 L 191 89 Z " transform="matrix(0.561606228351593, -0.8274046182632446, 0.8274046182632446, 0.561606228351593, -31.55, 175.1)"/>
  <path id="ID0.24270684365183115" fill="#666666" stroke="#000000" stroke-width="2" stroke-linecap="round" d="M 219 106 C 236.799 105.520 255.484 106.971 271.510 114.490 C 283.016 119.951 287.756 131.925 295 141 C 299.258 145.435 309.514 152.289 306 155 C 298.580 158.580 282.030 150.732 271 150 C 256.713 149.045 242.216 149.270 228 150 C 206.926 151.090 186.040 153.530 165 157 C 157.627 158.209 146.844 165.735 143 164 C 140.276 162.590 149.671 154.975 153 150 C 161.158 138.484 165.646 122.638 177.490 114.490 C 189.426 106.268 204.911 105.520 219 106 Z " transform="matrix(0.561606228351593, -0.8274046182632446, 0.8274046182632446, 0.561606228351593, -45.6, 195.85)"/>
</svg>