<svg xmlns="http://www.w3.org/2000/svg" xmlns:xlink="http://www.w3.org/1999/xlink" version="1.1" width="35.96552276611328" height="32.25652313232422" viewBox="-0.015702486038208008 -0.5316637456417084 35.96552276611328 32.25652313232422">
  <!-- Exported by Scratch - http://scratch.mit.edu/ -->
  <path id="ID0.5443468582816422" fill="#666600" stroke="#000000" stroke-width="0.5256097363906538" d="M 18.7594 0.5058 C 23.6494 0.6789 29.2718 1.3777 32.7511 4.8732 C 35.509 7.4648 34.9709 12.329 34.7724 16.1339 C 34.5619 20.1809 34.5913 25.1425 31.5173 27.6051 C 27.7876 30.8065 22.1195 30.7697 17.2631 30.7097 C 12.7547 30.6539 7.4032 30.3229 4.0064 27.1841 C 1.1466 24.63 0.872 19.8473 1.0137 15.9234 C 1.1692 11.6265 1.8501 6.5018 5.0039 3.6367 C 8.6207 0.6199 14.0662 0.339 18.7594 0.5058 Z "/>
  <path id="ID0.33818667102605104" fill="#717902" stroke="none" d="M 14.8519 23.4902 C 16.2237 23.8417 17.355 24.4596 18.0753 25.1749 C 18.7976 25.8896 19.1075 26.7013 18.835 27.4399 C 18.5624 28.1786 17.7589 28.7051 16.6796 28.9582 C 15.6015 29.2128 14.249 29.1944 12.8772 28.843 C 11.5054 28.4915 10.3741 27.8737 9.6537 27.1583 C 8.9314 26.4437 8.6216 25.6319 8.8941 24.8933 C 9.1666 24.1546 9.9701 23.6281 11.0494 23.375 C 12.1276 23.1204 13.48 23.1388 14.8519 23.4902 Z " stroke-width="1.374927332949715"/>
  <path id="ID0.5287177078425884" fill="#717902" stroke="none" d="M 8.4893 4.4061 C 9.6142 3.9342 10.8115 3.7994 11.8348 3.9627 C 12.8594 4.1255 13.7106 4.5873 14.1457 5.3076 C 14.5808 6.028 14.5189 6.8728 14.0655 7.6556 C 13.6133 8.4378 12.7703 9.159 11.6454 9.6308 C 10.5205 10.1027 9.3232 10.2375 8.2998 10.0742 C 7.2753 9.9114 6.4241 9.4496 5.989 8.7292 C 5.5539 8.0089 5.6157 7.1641 6.0691 6.3813 C 6.5213 5.5991 7.3644 4.8779 8.4893 4.4061 Z " stroke-width="1.2485789279742265"/>
  <path id="ID0.7122737374156713" fill="#717902" stroke="none" d="M 18.14 10.75 C 19.0508 10.75 19.8752 11.069 20.4728 11.585 C 21.0704 12.101 21.44 12.814 21.44 13.6 C 21.44 14.386 21.0704 15.099 20.4728 15.615 C 19.8752 16.131 19.0508 16.45 18.14 16.45 C 17.2292 16.45 16.4048 16.131 15.8072 15.615 C 15.2096 15.099 14.84 14.386 14.84 13.6 C 14.84 12.814 15.2096 12.101 15.8072 11.585 C 16.4048 11.069 17.2292 10.75 18.14 10.75 Z " stroke-width="1.104536127621211"/>
  <path id="ID0.7883478063158691" fill="#717902" stroke="none" d="M 4.6478 20.3471 C 5.1787 20.3471 5.6596 20.5114 6.0081 20.776 C 6.3567 21.0405 6.5728 21.4064 6.5728 21.8105 C 6.5728 22.2147 6.3567 22.5805 6.0081 22.8451 C 5.6596 23.1096 5.1787 23.274 4.6478 23.274 C 4.1169 23.274 3.636 23.1096 3.2875 22.8451 C 2.9389 22.5805 2.7228 22.2147 2.7228 21.8105 C 2.7228 21.4064 2.9389 21.0405 3.2875 20.776 C 3.636 20.5114 4.1169 20.3471 4.6478 20.3471 Z " stroke-width="1.243410507833383"/>
  <path id="ID0.8392290938645601" fill="#717902" stroke="none" d="M 18.3586 1.601 C 19.3244 1.6173 20.1956 1.7812 20.8226 2.0335 C 21.4506 2.2858 21.8344 2.6257 21.8254 2.9931 C 21.8165 3.3605 21.4165 3.6872 20.7767 3.9181 C 20.138 4.149 19.2595 4.2834 18.2937 4.2671 C 17.3279 4.2508 16.4567 4.0869 15.8297 3.8346 C 15.2018 3.5823 14.8179 3.2424 14.8269 2.8749 C 14.8358 2.5075 15.2358 2.1809 15.8756 1.95 C 16.5143 1.719 17.3928 1.5847 18.3586 1.601 Z " stroke-width="0.9204363092842287"/>
  <path id="ID0.4541481975466013" fill="#717902" stroke="none" d="M 27.1631 7.9384 C 27.5167 8.3067 27.6788 8.745 27.656 9.1561 C 27.634 9.5668 27.4263 9.9507 27.0382 10.2094 C 26.6501 10.4681 26.155 10.5527 25.6695 10.4805 C 25.1831 10.4088 24.7056 10.1808 24.352 9.8125 C 23.9984 9.4442 23.8363 9.0058 23.8591 8.5947 C 23.8811 8.1841 24.0888 7.8002 24.4769 7.5414 C 24.865 7.2827 25.3601 7.1981 25.8456 7.2703 C 26.332 7.3421 26.8095 7.5701 27.1631 7.9384 Z " stroke-width="0.9130008808650651"/>
  <path id="ID0.3690975047647953" fill="#717902" stroke="none" d="M 32.7594 19.8178 C 33.0638 19.9111 33.2204 20.2694 33.2237 20.7739 C 33.2294 21.2774 33.0842 21.9262 32.7867 22.6007 C 32.4892 23.2751 32.0957 23.8479 31.7001 24.2285 C 31.3056 24.6111 30.9078 24.7997 30.6034 24.7065 C 30.2991 24.6132 30.1425 24.2549 30.1392 23.7504 C 30.1335 23.2469 30.2787 22.5981 30.5762 21.9236 C 30.8736 21.2492 31.2671 20.6765 31.6627 20.2958 C 32.0573 19.9132 32.4551 19.7246 32.7594 19.8178 Z " stroke-width="1.6624706471321335"/>
  <path id="ID0.7883478063158691" fill="#717902" stroke="none" d="M 25.7673 23.6321 C 26.5231 23.6321 27.2077 23.866 27.7038 24.2426 C 28.2 24.6192 28.5077 25.1401 28.5077 25.7154 C 28.5077 26.2907 28.2 26.8115 27.7038 27.1881 C 27.2077 27.5647 26.5231 27.7987 25.7673 27.7987 C 25.0115 27.7987 24.3269 27.5647 23.8308 27.1881 C 23.3346 26.8115 23.0269 26.2907 23.0269 25.7154 C 23.0269 25.1401 23.3346 24.6192 23.8308 24.2426 C 24.3269 23.866 25.0115 23.6321 25.7673 23.6321 Z " stroke-width="1.770089873945681"/>
  <path id="ID0.0055252909660339355" fill="none" stroke="#000000" stroke-width="2" stroke-linecap="round" d="M 4.95 15.6 L 13.3 15.6 Z "/>
  <path id="ID0.0055252909660339355" fill="none" stroke="#000000" stroke-width="2" stroke-linecap="round" d="M 22.7 15.6 L 31.05 15.6 Z "/>
</svg>