<svg version="1.1" xmlns="http://www.w3.org/2000/svg" xmlns:xlink="http://www.w3.org/1999/xlink" width="41.47664" height="49.44207" viewBox="0,0,41.47664,49.44207"><g transform="translate(-219.26168,-155.27897)"><g data-paper-data="{&quot;isPaintingLayer&quot;:true}" fill-rule="nonzero" stroke="none" stroke-linecap="butt" stroke-linejoin="miter" stroke-miterlimit="10" stroke-dasharray="" stroke-dashoffset="0" style="mix-blend-mode: normal"><path d="M223.49094,173.58045c0.7386,-0.22912 2.03733,-0.06507 3.0637,0.02574c-0.12474,3.94614 0.05235,7.79448 0.39436,11.9602v0.00002c0.20456,2.49139 -0.325,5.00424 -0.39816,7.49498l-0.38179,-0.15912c-0.778,-0.42384 -1.5608,-0.86159 -2.31767,-1.32211c-2.51055,-3.73447 -2.01836,-8.55064 -1.84684,-12.83861c0.05501,-1.37514 -0.41177,-4.57224 1.4864,-5.16108z" data-paper-data="{&quot;noHover&quot;:false,&quot;origItem&quot;:[&quot;Path&quot;,{&quot;applyMatrix&quot;:true,&quot;segments&quot;:[[[223.49568,173.63024],[0,0],[-1.89817,0.58884]],[[222.02805,178.78567],[0.05501,-1.37514],[-0.17152,4.28797]],[[223.85475,191.53027],[-2.51055,-3.73447],[0.75687,0.46052]],[[226.16009,192.85308],[-0.778,-0.42384],[0,0]],[[226.54018,193.01254],[0,0],[0.07316,-2.49074]],[[226.91199,185.53279],[0.20456,2.49139],[0,0]],[[226.91199,185.53277],[0,0],[-0.34201,-4.16572]],[[226.54381,173.65501],[-0.12474,3.94614],[-1.02637,-0.09081]],[[223.49568,173.63023],[0.7386,-0.22912],[0,0]]],&quot;closed&quot;:true,&quot;fillColor&quot;:[0,0,0,1],&quot;strokeWidth&quot;:0.5}]}" fill="#ffa100" stroke-width="0.25"/><path d="M254.81405,188.33149c0.0002,1.67953 0.05778,3.38111 0.1809,5.05928c-0.00522,0.05557 -0.00535,0.08869 -0.00535,0.08869l0.01304,0.01707c0.00101,0.01348 0.00197,0.02702 0.00299,0.0405c-0.17402,0.98401 -0.28102,1.98887 -0.28472,2.98804c0,1.28056 0.40762,3.44543 -0.46784,4.551c-0.85838,1.084 -5.49301,0.39994 -6.77838,0.2313c-0.69344,-0.09097 -1.5782,0.0739 -2.05636,-0.43649c-0.43051,-0.45954 0.03844,-1.35873 0.00287,-1.98742c-0.11026,-1.94876 -0.78626,-5.05273 -2.62959,-6.13797c-2.25858,-1.32972 -4.04708,0.08239 -5.58934,1.52165c-0.11599,1.83417 0.48646,4.9855 -0.3539,6.6675c-0.94502,1.89146 -4.52945,1.04547 -6.06455,0.6606c-0.60494,-0.15167 -1.56617,0.21905 -1.84336,-0.33963c-0.37644,-0.75874 -0.07784,-3.16341 0.09431,-4.84755c0.33319,-0.45271 0.23382,-1.04426 0.23382,-1.04426c-0.57353,-3.27846 0.4944,-6.69882 0.23511,-10.01272c-0.43616,-5.57418 -0.58165,-10.44474 -0.10716,-16.003c0,-2.69448 0.21802,-5.08187 2.125,-7.15542c0.84222,-0.91581 2.229,-1.33118 3.33377,-1.81225c3.94493,-1.7178 11.2298,-4.35117 14.9131,-0.9824c2.6132,2.93984 2.91732,5.66486 3.40284,9.58614c0.796,6.42877 1.14591,12.88782 1.64279,19.34727z" data-paper-data="{&quot;noHover&quot;:false,&quot;origItem&quot;:[&quot;Path&quot;,{&quot;applyMatrix&quot;:true,&quot;segments&quot;:[[[254.77208,188.30426],[0,0],[-0.49688,-6.45945]],[[253.13537,169.01901],[0.796,6.42877],[-0.48552,-3.92128]],[[249.75049,159.44472],[2.6132,2.93984],[-3.6833,-3.36877]],[[234.87221,160.4275],[3.94493,-1.7178],[-1.10477,0.48107]],[[231.54674,162.23588],[0.84222,-0.91581],[-1.90698,2.07355]],[[229.43466,169.38047],[0,-2.69448],[-0.47449,5.55826]],[[229.54952,185.33109],[-0.43616,-5.57418],[0.25929,3.3139]],[[229.30025,195.32512],[-0.57353,-3.27846],[0,0]],[[229.06553,196.36866],[0.33319,-0.45271],[-0.17215,1.68414]],[[228.96641,201.21289],[-0.37644,-0.75874],[0.27719,0.55868]],[[230.80662,201.55076],[-0.60494,-0.15167],[1.5351,0.38487]],[[236.86002,200.88603],[-0.94502,1.89146],[0.84036,-1.682]],[[237.21779,194.21962],[-0.11599,1.83417],[1.54226,-1.43926]],[[242.78805,192.69563],[-2.25858,-1.32972],[1.84333,1.08524]],[[245.43039,198.93262],[-0.11026,-1.94876],[0.03557,0.62869]],[[245.40999,200.82159],[-0.43051,-0.45954],[0.47816,0.51039]],[[247.46202,201.25901],[-0.69344,-0.09097],[1.28537,0.16864]],[[254.2278,201.03293],[-0.85838,1.084],[0.87546,-1.10557]],[[254.69029,196.48555],[0,1.28056],[0.0037,-0.99917]],[[254.97089,193.50107],[-0.17402,0.98401],[-0.00102,-0.01348]],[[254.96785,193.46062],[0.00101,0.01348],[0,0]],[254.95481,193.44355],[[254.96003,193.35498],[-0.00522,0.05557],[-0.12312,-1.67817]],[[254.77209,188.30429],[0.0002,1.67953],[0,0]]],&quot;closed&quot;:true,&quot;fillColor&quot;:[0,0,0,1],&quot;strokeWidth&quot;:0.5}]}" fill="#ffa100" stroke-width="0.25"/><path d="M219.8626,178.53698c-0.09491,-0.18991 -0.14698,-0.43161 -0.12136,-0.73906c0.10984,-1.31804 1.42788,-1.20821 1.42788,-1.20821l1.46472,0.12317c0.25879,0.04378 2.70421,0.66781 2.96031,0.12035c0.4107,-0.87796 -0.34301,-2.08316 0.17474,-2.90256c0.25957,-0.41079 1.04016,-0.11524 1.38364,-0.45896c0.51872,-0.51909 -0.11079,-1.49856 0.10832,-2.19896v-1.35944c0,-0.73046 0.59215,-1.32261 1.32261,-1.32261c0.62001,0 1.14037,0.42662 1.28357,1.00233l0.34514,1.26549l-0.00591,0.00161l0.00954,0.01198c1.33657,5.34624 0.14178,14.15935 6.05887,17.28051c2.03375,1.07276 4.33223,1.3099 6.58494,1.48323c2.84068,-0.00203 5.64356,-0.23331 8.47654,-0.35252c0.78516,-0.03304 2.72674,-0.33547 3.38267,-0.01803c0.70281,0.34012 1.32078,0.95129 1.65631,1.65631c0.44537,0.93583 -0.03139,2.51118 -0.14369,3.48371c-0.27007,2.33893 0.29531,6.50445 -1.90112,8.01666c-1.89661,1.30579 -6.59889,0.42917 -8.62132,-0.02549c-1.28751,-1.88123 -2.00891,-7.92199 -4.34152,-8.64479c-5.24542,-1.62538 -1.86173,7.06899 -4.46007,8.95762c-1.74556,1.26878 -6.87694,0.33761 -8.78854,-0.0135c-0.85772,-2.00335 -0.16751,-5.68994 -1.42287,-7.30884c-1.39923,-1.80443 -4.28268,-2.54085 -5.29136,-4.77851c-0.77896,-1.72807 0.0134,-3.42014 -0.34479,-5.13167c-0.49559,-2.3681 -1.11826,-4.47318 -1.19727,-6.93981z" fill="#ff8200" stroke-width="0.5"/><path d="M225.82871,195.58256l-0.93529,-0.40726c-0.98034,-0.53536 -1.93334,-1.12155 -2.86753,-1.73389c-3.17533,-4.43197 -2.84932,-9.55213 -2.64077,-14.76567c0.0901,-2.25241 -0.21004,-4.55224 1.5555,-6.28183c1.6847,-1.65038 3.60882,-1.41428 5.72471,-1.34752c0.03591,-0.58498 0.07796,-1.17636 0.12638,-1.77586c0,-3.28297 0.4422,-6.36634 2.82566,-8.84429c1.44612,-1.50345 3.75578,-2.31795 5.67377,-3.03781c5.01165,-1.88097 11.88038,-3.69589 16.32979,0.18584c3.05619,3.43821 3.57273,6.6255 4.13929,11.1172c0.8202,6.50257 1.15246,12.97671 1.65511,19.51129c-0.00022,1.85712 0.07576,3.73348 0.23154,5.58406l0.00457,0.46253c0,0 0,0.41881 -0.23567,0.78508c-0.05375,0.48216 -0.08244,0.96707 -0.08029,1.4511c0,2.04503 0.39324,4.62743 -1.12464,6.29801c-1.86986,2.05799 -8.30746,1.71076 -10.77701,0.78374c-0.7389,-0.27738 -1.58569,-0.49932 -2.09596,-1.10143c-1.06908,-1.26149 0.04258,-9.60193 -3.71128,-7.15318c0.402,2.63957 0.63525,6.50136 -1.7184,8.3035c-2.16165,1.65511 -9.5023,1.55486 -11.19196,-1.0126c-0.82502,-1.25361 -0.33914,-4.91695 -0.22122,-6.91209c-0.36603,0.01977 -0.66631,-0.10892 -0.66631,-0.10892zM223.49568,173.63023c-1.89817,0.58884 -1.41262,3.78029 -1.46763,5.15543c-0.17152,4.28797 -0.68385,9.01013 1.8267,12.7446c0.75687,0.46052 1.52734,0.89897 2.30534,1.32281l0.38009,0.15946c0.07316,-2.49074 0.57637,-4.98836 0.37181,-7.47975v-0.00002c-0.34201,-4.16572 -0.49292,-7.93162 -0.36818,-11.87776c-1.02637,-0.09081 -2.30953,-0.2539 -3.04813,-0.02478zM254.77208,188.30426c-0.49688,-6.45945 -0.84071,-12.85648 -1.63671,-19.28525c-0.48552,-3.92128 -0.77168,-6.63445 -3.38488,-9.57429c-3.6833,-3.36877 -10.93335,-0.73502 -14.87828,0.98278c-1.10477,0.48107 -2.48325,0.89257 -3.32547,1.80838c-1.90698,2.07355 -2.11208,4.45011 -2.11208,7.14459c-0.47449,5.55826 -0.3213,10.37644 0.11486,15.95062c0.25929,3.3139 -0.8228,6.71557 -0.24927,9.99403c0,0 0.09847,0.59083 -0.23472,1.04354c-0.17215,1.68414 -0.47556,4.08549 -0.09912,4.84423c0.27719,0.55868 1.23527,0.1862 1.84021,0.33787c1.5351,0.38487 5.10838,1.22673 6.0534,-0.66473c0.84036,-1.682 0.24178,-4.83224 0.35777,-6.66641c1.54226,-1.43926 3.31168,-2.85371 5.57026,-1.52399c1.84333,1.08524 2.53208,4.28823 2.64234,6.23699c0.03557,0.62869 -0.45091,1.42943 -0.0204,1.88897c0.47816,0.51039 1.35859,0.34645 2.05203,0.43742c1.28537,0.16864 5.9074,0.85792 6.76578,-0.22608c0.87546,-1.10557 0.46249,-3.26682 0.46249,-4.54738c0.0037,-0.99917 0.10658,-2.00047 0.2806,-2.98448c-0.00102,-0.01348 -0.00203,-0.02697 -0.00304,-0.04045l-0.01304,-0.01707c0,0 0,-0.033 0.00522,-0.08857c-0.12312,-1.67817 -0.18774,-3.37116 -0.18794,-5.05069z" fill="#000000" stroke-width="0.5"/><path d="M241.44186,166.47956c0.14715,0.02825 0.24963,0.02754 0.24963,0.02754c4.37274,0 10.86686,-1.16398 14.90112,0.80302c2.00078,0.97554 2.07653,5.33436 1.02528,6.80543c-3.30634,4.54421 -9.22854,3.89588 -14.43832,3.89769c-1.82969,0.00063 -4.19791,0.2266 -5.58271,-1.26319c-1.00498,-1.08117 -0.62746,-3.2169 -0.64776,-4.53108c0.83539,-2.27223 2.2908,-4.64095 4.49277,-5.73941z" data-paper-data="{&quot;noHover&quot;:false,&quot;origItem&quot;:[&quot;Path&quot;,{&quot;applyMatrix&quot;:true,&quot;segments&quot;:[[[239.90084,166.06497],[0.78953,-2.14749],[0.0192,1.24203]],[[240.50838,170.32677],[-0.94981,-1.02182],[1.30878,1.408]],[[245.76918,171.50163],[-1.72924,0.0006],[4.92377,-0.00171]],[[259.33593,167.84814],[-3.12483,4.29474],[0.99354,-1.39031]],[[258.37182,161.44966],[1.89094,0.92198],[-3.81279,-1.85902]],[[244.36918,160.70163],[4.13268,0],[0,0]],[[244.13387,160.67493],[0.13907,0.0267],[-2.08108,1.03816]]],&quot;closed&quot;:true}]}" fill="#9ddcff" stroke-width="0.5"/><path d="M259.62436,175.04274c0.25939,1.29693 -1.03754,1.55631 -1.03754,1.55631l-0.29991,0.0247c-6.41725,2.91199 -16.85292,3.07489 -23.09491,-0.65776c0,0 -1.13413,-0.68048 -0.45365,-1.81461c0.68048,-1.13413 1.81461,-0.45365 1.81461,-0.45365c5.50816,3.31728 14.99924,3.08564 20.63936,0.51789l0.87574,-0.21043c0,0 1.29693,-0.25939 1.55631,1.03754z" fill="#49bfff" stroke-width="0.5"/><path d="M239.68318,164.39681l0.08817,-0.02939c1.34128,-0.43995 2.99932,-0.6014 4.40417,-0.6014c0,0 0.07417,0 0.14397,0.03928c0.00393,-0.00142 0.00785,-0.00284 0.01177,-0.00426c5.47987,-0.30926 13.55028,-0.98675 15.83595,3.80629c0.65643,1.37652 0.57955,3.22021 0.55535,4.70274c-0.01863,1.14119 -0.38552,2.30343 -0.97,3.28376c-0.94655,1.30204 -1.8595,2.7971 -3.32518,3.59557c-1.35336,0.73729 -3.17376,0.76881 -4.66319,0.9891c-4.30985,0.63746 -12.87732,1.97584 -16.10687,-1.70521c-1.61374,-1.83935 -1.28711,-4.47335 -1.26173,-6.70637c1.00495,-2.86554 2.59639,-5.53555 5.10331,-7.1397c0.00457,-0.1705 0.18428,-0.2304 0.18428,-0.2304zM237.002,172.21839c0.02032,1.31418 -0.36214,3.42818 0.64283,4.50936c1.3848,1.48979 3.7367,1.24374 5.56639,1.2431c5.20978,-0.00181 11.04847,0.6785 14.35482,-3.86571c1.05125,-1.47107 0.98067,-5.79461 -1.02011,-6.77015c-4.03426,-1.96701 -10.44328,-0.79148 -14.81602,-0.79148c0,0 -0.10183,0 -0.24898,-0.02825c-2.20196,1.09846 -3.64353,3.4309 -4.47891,5.70314z" fill="#000000" stroke-width="0.5"/><path d="M253.4191,168.41775c0,1.32261 -1.32261,1.32261 -1.32261,1.32261c-1.44997,0 -3.84047,0 -5.29044,0c0,0 -1.32261,0 -1.32261,-1.32261c0,-1.32261 1.32261,-1.32261 1.32261,-1.32261c1.44997,0 2.89994,0 4.34991,0h0.94052c0,0 1.32261,0 1.32261,1.32261z" fill="#ffffff" stroke-width="0.5"/></g></g></svg>