<svg version="1.1" xmlns="http://www.w3.org/2000/svg" xmlns:xlink="http://www.w3.org/1999/xlink" width="36.20697" height="51.58226" viewBox="0,0,36.20697,51.58226"><g transform="translate(-223.88703,-128.6167)"><g data-paper-data="{&quot;isPaintingLayer&quot;:true}" fill="none" fill-rule="nonzero" stroke="#000000" stroke-width="none" stroke-linecap="none" stroke-linejoin="miter" stroke-miterlimit="10" stroke-dasharray="" stroke-dashoffset="0" font-family="none" font-weight="none" font-size="none" text-anchor="none" style="mix-blend-mode: normal"><path d="M244.3982,129.3892c3.2409,-0.3505 6.5249,3.1986 8.5315,7.8398c2.2875,5.2813 3.3932,12.4837 3.5964,18.9077c0.2111,6.5458 0.2378,14.9851 -2.7826,18.9539c-3.3023,5.2767 -8.6155,4.2833 -13.1123,4.2888c-4.3372,0.0074 -9.4404,1.1742 -12.9023,-3.597c-2.8094,-4.3996 -3.358,-12.9127 -2.9926,-19.6457c0.3685,-6.732 2.3079,-14.4575 5.4339,-18.9077c3.9256,-5.5995 9.2408,-8.1894 14.228,-7.8398z" id="ID0.5443468582816422" fill="#002067" stroke-width="1.49723" stroke-linecap="butt"/><path d="M254.8166,140.996c1.3393,0 2.5526,0.5381 3.4312,1.4081c0.8786,0.8694 1.4226,2.0706 1.4226,3.3958c0,1.3251 -0.544,2.5264 -1.4226,3.3958c-0.8786,0.87 -2.0919,1.4081 -3.4312,1.4081c-1.3392,0 -2.5525,-0.5381 -3.4312,-1.4081c-0.8786,-0.8694 -1.4226,-2.0707 -1.4226,-3.3958c0,-1.3252 0.544,-2.5264 1.4226,-3.3958c0.8787,-0.87 2.092,-1.4081 3.4312,-1.4081z" id="ID0.37750169076025486" fill="#ffffff" stroke-width="0.8472" stroke-linecap="butt"/><path d="M244.4339,139.8129c1.9882,-0.0019 3.7901,0.6703 5.0955,1.7585c1.3055,1.0875 2.1145,2.5911 2.1162,4.2506c0.0016,1.6596 -0.8046,3.1647 -2.1079,4.2548c-1.3034,1.0907 -3.104,1.7664 -5.0922,1.7683c-1.9882,0.002 -3.7901,-0.6702 -5.0956,-1.7584c-1.3054,-1.0876 -2.1145,-2.5912 -2.1161,-4.2507c-0.0016,-1.6595 0.8045,-3.1647 2.1079,-4.2548c1.3033,-1.0907 3.1039,-1.7664 5.0922,-1.7683z" id="ID0.37750169076025486" fill="#ffffff" stroke-width="1.11049" stroke-linecap="butt"/><path d="M254.8693,141.2284c0.363,0 0.6916,0.4489 0.9296,1.1749c0.2383,0.7259 0.3856,1.7281 0.3856,2.8337c0,1.1057 -0.1473,2.1079 -0.3856,2.8338c-0.238,0.7259 -0.5666,1.1749 -0.9296,1.1749c-0.3631,0 -0.6917,-0.449 -0.9296,-1.1749c-0.2384,-0.7259 -0.3857,-1.7281 -0.3857,-2.8338c0,-1.1056 0.1473,-2.1078 0.3857,-2.8337c0.2379,-0.726 0.5665,-1.1749 0.9296,-1.1749z" id="ID0.234124637208879" fill="#000000" stroke-width="1.17898" stroke-linecap="round"/><path d="M244.0253,140.7743c0.5389,-0.0006 1.0273,0.5612 1.3815,1.47c0.3547,0.9088 0.5746,2.1636 0.576,3.5483c0.0013,1.3846 -0.2162,2.6399 -0.5692,3.5494c-0.3524,0.9094 -0.8397,1.4721 -1.3786,1.4727c-0.5389,0.0005 -1.0273,-0.5613 -1.3815,-1.4701c-0.3547,-0.9087 -0.5746,-2.1636 -0.576,-3.5482c-0.0013,-1.3847 0.2162,-2.64 0.5692,-3.5494c0.3523,-0.9095 0.8397,-1.4722 1.3786,-1.4727z" id="ID0.234124637208879" fill="#000000" stroke-width="1.54539" stroke-linecap="round"/><path d="M255.66667,139l-4.66667,3l-13.66667,-4.33333" data-paper-data="{&quot;origPos&quot;:null}" fill="none" stroke-width="2" stroke-linecap="round"/></g></g></svg>