<svg version="1.1" width="150" height="65" viewBox="-1 0 150 65" xmlns="http://www.w3.org/2000/svg" xmlns:xlink="http://www.w3.org/1999/xlink">
  <!-- Exported by Scratch - http://scratch.mit.edu/ -->
  <g id="ID0.1788471071049571">
    <path id="ID0.027280720882117748" fill="#FFFF00" stroke="none" stroke-linecap="round" d="M 214.500 83 C 240.620 83 268.489 94.571 286.959 113.041 C 305.429 131.511 341.133 175.506 317 185.500 C 253.930 211.620 175.070 211.620 112 185.500 C 87.867 175.506 123.571 131.511 142.041 113.041 C 160.511 94.571 188.380 83 214.500 83 Z " transform="matrix(-0.5069634318351746, 0.010805614292621613, 0.010805614292621613, 0.5069634318351746, 199.25, -43.1)"/>
    <path id="ID0.8255622205324471" fill="#FFFFFF" stroke="none" d="M 284 128 C 291.173 128 297.673 131.474 302.380 137.086 C 307.087 142.697 310 150.447 310 159 C 310 167.553 307.087 175.303 302.380 180.914 C 297.673 186.526 291.173 190 284 190 C 276.827 190 270.327 186.526 265.620 180.914 C 260.913 175.303 258 167.553 258 159 C 258 150.447 260.913 142.697 265.620 137.086 C 270.327 131.474 276.827 128 284 128 Z " transform="matrix(-0.5069634318351746, 0.010805614292621613, 0.010805614292621613, 0.5069634318351746, 208.2, -53.05)"/>
    <path id="ID0.656756401527673" fill="none" stroke="#00FF55" stroke-width="2" d="M 268.500 128 C 270.845 128 272.970 129.289 274.509 131.370 C 276.048 133.452 277 136.327 277 139.500 C 277 142.673 276.048 145.548 274.509 147.630 C 272.970 149.711 270.845 151 268.500 151 C 266.155 151 264.030 149.711 262.491 147.630 C 260.952 145.548 260 142.673 260 139.500 C 260 136.327 260.952 133.452 262.491 131.370 C 264.030 129.289 266.155 128 268.500 128 Z " transform="matrix(-0.5069634318351746, 0.010805614292621613, 0.010805614292621613, 0.5069634318351746, 199.25, -43.1)"/>
    <path id="ID0.6880330848507583" fill="none" stroke="#CCCC00" stroke-width="2" d="M 267.500 110 C 274.811 110 281.436 113.418 286.233 118.939 C 291.031 124.460 294 132.085 294 140.500 C 294 148.915 291.031 156.540 286.233 162.061 C 281.436 167.582 274.811 171 267.500 171 C 260.189 171 253.564 167.582 248.767 162.061 C 243.969 156.540 241 148.915 241 140.500 C 241 132.085 243.969 124.460 248.767 118.939 C 253.564 113.418 260.189 110 267.500 110 Z " transform="matrix(-0.5069634318351746, 0.010805614292621613, 0.010805614292621613, 0.5069634318351746, 199.25, -43.1)"/>
    <path id="ID0.993488347157836" fill="none" stroke="#FFFF99" stroke-width="5" stroke-linecap="round" d="M 300 113 L 343 95 " transform="matrix(-0.5069634318351746, 0.010805614292621613, 0.010805614292621613, 0.5069634318351746, 199.25, -43.1)"/>
    <path id="ID0.25363350845873356" fill="none" stroke="#FFFF99" stroke-width="5" stroke-linecap="round" d="M 332 157 L 376 169 " transform="matrix(-0.5069634318351746, 0.010805614292621613, 0.010805614292621613, 0.5069634318351746, 199.25, -43.1)"/>
    <path id="ID0.6729364939965308" fill="none" stroke="#FFFF99" stroke-width="5" stroke-linecap="round" d="M 337 132 L 393 117 " transform="matrix(-0.5069634318351746, 0.010805614292621613, 0.010805614292621613, 0.5069634318351746, 199.25, -43.1)"/>
  </g>
</svg>