<svg xmlns="http://www.w3.org/2000/svg" xmlns:xlink="http://www.w3.org/1999/xlink" version="1.1" width="227.61000061035156" height="134.6300048828125" viewBox="-0.5 -0.5 227.61000061035156 134.6300048828125">
  <!-- Exported by Scratch - http://scratch.mit.edu/ -->
  <g id="ID0.21197946229949594">
    <path id="ID0.14449769724160433_103_" fill="#ADADAD" stroke="#000000" stroke-width="2" d="M 63.76 46.66 L 63.95 58.25 C 63.95 62.66 60.47 66.34 56.14 66.34 L 47.85 66.81 L 22.54 66.81 C 18.22 66.81 15.75 62.99 15.75 58.59 L 15.46 49.77 L 15.75 26.68 C 16.04 22.36 19.48 18.49 23.82 18.49 L 40.73 18.9 L 55.92 18.36 C 60.24 18.36 63.95 22.15 63.95 26.56 L 63.76 46.66 Z "/>
    <path id="ID0.14449769724160433_102_" fill="#DEDEDE" d="M 59.93 45.23 L 60.1 55.41 C 60.1 59.28 57.04 62.52 53.23 62.52 L 45.94 62.94 L 23.69 62.94 C 19.9 62.94 17.72 59.59 17.72 55.71 L 17.46 47.96 L 17.72 27.67 C 17.97 23.87 21 20.47 24.82 20.47 L 39.69 20.83 L 53.05 20.35 C 56.84 20.35 60.11 23.68 60.11 27.56 L 59.93 45.23 Z " stroke-width="1"/>
    <path id="ID0.14449769724160433_101_" fill="#F0F0F0" d="M 53.37 41.89 L 32.08 53.81 L 28.23 53.81 C 24.87 53.81 22.12 51.61 22.12 48.88 L 21.9 43.6 L 22.13 29.34 C 22.13 26.62 24.86 24.41 28.24 24.41 L 42.5 24.88 L 47.26 24.41 C 50.62 24.41 53.37 26.61 53.37 29.34 L 53.37 41.89 Z " stroke-width="1"/>
    <path id="ID0.033297700341790915_13_" fill="none" d="M 0.5 0.5 L 226.11 0.5 L 226.11 133.13 L 0.5 133.13 L 0.5 0.5 Z " stroke-width="1"/>
    <path id="ID0.840704804752022" fill="#DEDEDE" d="M 27.26 27.4 C 28.19 27.4 29.032 27.778 29.642 28.388 C 30.252 28.998 30.63 29.84 30.63 30.77 C 30.63 31.7 30.252 32.542 29.642 33.152 C 29.032 33.762 28.19 34.14 27.26 34.14 C 26.33 34.14 25.488 33.762 24.878 33.152 C 24.268 32.542 23.89 31.7 23.89 30.77 C 23.89 29.84 24.268 28.998 24.878 28.388 C 25.488 27.778 26.33 27.4 27.26 27.4 Z " stroke-width="1"/>
    <path id="ID0.14267259184271097" fill="#DEDEDE" d="M 50 27.4 C 50.93 27.4 51.772 27.778 52.382 28.388 C 52.992 28.998 53.37 29.84 53.37 30.77 C 53.37 31.7 52.992 32.542 52.382 33.152 C 51.772 33.762 50.93 34.14 50 34.14 C 49.07 34.14 48.228 33.762 47.618 33.152 C 47.008 32.542 46.63 31.7 46.63 30.77 C 46.63 29.84 47.008 28.998 47.618 28.388 C 48.228 27.778 49.07 27.4 50 27.4 Z " stroke-width="1"/>
    <path id="ID0.8486455506645143" fill="#D4D4D4" d="M 27.26 50.47 C 28.19 50.47 29.032 50.848 29.642 51.458 C 30.252 52.068 30.63 52.91 30.63 53.84 C 30.63 54.77 30.252 55.612 29.642 56.222 C 29.032 56.832 28.19 57.21 27.26 57.21 C 26.33 57.21 25.488 56.832 24.878 56.222 C 24.268 55.612 23.89 54.77 23.89 53.84 C 23.89 52.91 24.268 52.068 24.878 51.458 C 25.488 50.848 26.33 50.47 27.26 50.47 Z " stroke-width="1"/>
    <path id="ID0.20670907897874713" fill="#D4D4D4" d="M 50 50.47 C 50.93 50.47 51.772 50.848 52.382 51.458 C 52.992 52.068 53.37 52.91 53.37 53.84 C 53.37 54.77 52.992 55.612 52.382 56.222 C 51.772 56.832 50.93 57.21 50 57.21 C 49.07 57.21 48.228 56.832 47.618 56.222 C 47.008 55.612 46.63 54.77 46.63 53.84 C 46.63 52.91 47.008 52.068 47.618 51.458 C 48.228 50.848 49.07 50.47 50 50.47 Z " stroke-width="1"/>
    <path id="ID0.14449769724160433_100_" fill="#ADADAD" stroke="#000000" stroke-width="2" d="M 111.76 46.66 L 111.95 58.25 C 111.95 62.66 108.47 66.34 104.14 66.34 L 95.85 66.81 L 70.54 66.81 C 66.22 66.81 63.75 62.99 63.75 58.59 L 63.46 49.77 L 63.75 26.68 C 64.04 22.36 67.48 18.49 71.82 18.49 L 88.73 18.9 L 103.92 18.36 C 108.24 18.36 111.95 22.15 111.95 26.56 L 111.76 46.66 Z "/>
    <path id="ID0.14449769724160433_99_" fill="#DEDEDE" d="M 107.93 45.23 L 108.1 55.41 C 108.1 59.28 105.04 62.52 101.23 62.52 L 93.94 62.94 L 71.69 62.94 C 67.9 62.94 65.72 59.59 65.72 55.71 L 65.46 47.96 L 65.72 27.67 C 65.97 23.87 69 20.47 72.82 20.47 L 87.69 20.83 L 101.05 20.35 C 104.84 20.35 108.11 23.68 108.11 27.56 L 107.93 45.23 Z " stroke-width="1"/>
    <path id="ID0.14449769724160433_98_" fill="#F0F0F0" d="M 101.37 41.89 L 80.08 53.81 L 76.23 53.81 C 72.87 53.81 70.12 51.61 70.12 48.88 L 69.9 43.6 L 70.13 29.34 C 70.13 26.62 72.86 24.41 76.24 24.41 L 90.5 24.88 L 95.26 24.41 C 98.62 24.41 101.37 26.61 101.37 29.34 L 101.37 41.89 Z " stroke-width="1"/>
    <path id="ID0.5496963672339916" fill="#DEDEDE" d="M 75.26 27.4 C 76.19 27.4 77.032 27.778 77.642 28.388 C 78.252 28.998 78.63 29.84 78.63 30.77 C 78.63 31.7 78.252 32.542 77.642 33.152 C 77.032 33.762 76.19 34.14 75.26 34.14 C 74.33 34.14 73.488 33.762 72.878 33.152 C 72.268 32.542 71.89 31.7 71.89 30.77 C 71.89 29.84 72.268 28.998 72.878 28.388 C 73.488 27.778 74.33 27.4 75.26 27.4 Z " stroke-width="1"/>
    <path id="ID0.2657339731231332" fill="#DEDEDE" d="M 98 27.4 C 98.93 27.4 99.772 27.778 100.382 28.388 C 100.992 28.998 101.37 29.84 101.37 30.77 C 101.37 31.7 100.992 32.542 100.382 33.152 C 99.772 33.762 98.93 34.14 98 34.14 C 97.07 34.14 96.228 33.762 95.618 33.152 C 95.008 32.542 94.63 31.7 94.63 30.77 C 94.63 29.84 95.008 28.998 95.618 28.388 C 96.228 27.778 97.07 27.4 98 27.4 Z " stroke-width="1"/>
    <path id="ID0.8538858769461513" fill="#D4D4D4" d="M 75.26 50.47 C 76.19 50.47 77.032 50.848 77.642 51.458 C 78.252 52.068 78.63 52.91 78.63 53.84 C 78.63 54.77 78.252 55.612 77.642 56.222 C 77.032 56.832 76.19 57.21 75.26 57.21 C 74.33 57.21 73.488 56.832 72.878 56.222 C 72.268 55.612 71.89 54.77 71.89 53.84 C 71.89 52.91 72.268 52.068 72.878 51.458 C 73.488 50.848 74.33 50.47 75.26 50.47 Z " stroke-width="1"/>
    <path id="ID0.764551623724401" fill="#D4D4D4" d="M 98 50.47 C 98.93 50.47 99.772 50.848 100.382 51.458 C 100.992 52.068 101.37 52.91 101.37 53.84 C 101.37 54.77 100.992 55.612 100.382 56.222 C 99.772 56.832 98.93 57.21 98 57.21 C 97.07 57.21 96.228 56.832 95.618 56.222 C 95.008 55.612 94.63 54.77 94.63 53.84 C 94.63 52.91 95.008 52.068 95.618 51.458 C 96.228 50.848 97.07 50.47 98 50.47 Z " stroke-width="1"/>
    <path id="ID0.14449769724160433_97_" fill="#ADADAD" stroke="#000000" stroke-width="2" d="M 63.76 94.66 L 63.95 106.25 C 63.95 110.66 60.47 114.34 56.14 114.34 L 47.85 114.81 L 22.54 114.81 C 18.22 114.81 15.75 110.99 15.75 106.59 L 15.46 97.77 L 15.75 74.68 C 16.04 70.36 19.48 66.49 23.82 66.49 L 40.73 66.9 L 55.92 66.36 C 60.24 66.36 63.95 70.15 63.95 74.56 L 63.76 94.66 Z "/>
    <path id="ID0.14449769724160433_96_" fill="#DEDEDE" d="M 59.93 93.23 L 60.1 103.41 C 60.1 107.28 57.04 110.52 53.23 110.52 L 45.94 110.94 L 23.69 110.94 C 19.9 110.94 17.72 107.59 17.72 103.71 L 17.46 95.96 L 17.72 75.67 C 17.97 71.87 21 68.47 24.82 68.47 L 39.69 68.83 L 53.05 68.35 C 56.84 68.35 60.11 71.68 60.11 75.56 L 59.93 93.23 Z " stroke-width="1"/>
    <path id="ID0.14449769724160433_95_" fill="#F0F0F0" d="M 53.37 89.89 L 32.09 101.8 L 28.24 101.8 C 24.88 101.8 22.13 99.6 22.13 96.87 L 21.9 91.6 L 22.13 77.34 C 22.13 74.62 24.86 72.41 28.24 72.41 L 42.5 72.88 L 47.26 72.41 C 50.62 72.41 53.37 74.61 53.37 77.34 L 53.37 89.89 Z " stroke-width="1"/>
    <path id="ID0.8495642356574535" fill="#DEDEDE" d="M 27.26 75.4 C 28.19 75.4 29.032 75.778 29.642 76.388 C 30.252 76.998 30.63 77.84 30.63 78.77 C 30.63 79.7 30.252 80.542 29.642 81.152 C 29.032 81.762 28.19 82.14 27.26 82.14 C 26.33 82.14 25.488 81.762 24.878 81.152 C 24.268 80.542 23.89 79.7 23.89 78.77 C 23.89 77.84 24.268 76.998 24.878 76.388 C 25.488 75.778 26.33 75.4 27.26 75.4 Z " stroke-width="1"/>
    <path id="ID0.02577284211292863" fill="#DEDEDE" d="M 50 75.4 C 50.93 75.4 51.772 75.778 52.382 76.388 C 52.992 76.998 53.37 77.84 53.37 78.77 C 53.37 79.7 52.992 80.542 52.382 81.152 C 51.772 81.762 50.93 82.14 50 82.14 C 49.07 82.14 48.228 81.762 47.618 81.152 C 47.008 80.542 46.63 79.7 46.63 78.77 C 46.63 77.84 47.008 76.998 47.618 76.388 C 48.228 75.778 49.07 75.4 50 75.4 Z " stroke-width="1"/>
    <path id="ID0.357554389629513" fill="#D4D4D4" d="M 27.26 98.47 C 28.19 98.47 29.032 98.848 29.642 99.458 C 30.252 100.068 30.63 100.91 30.63 101.84 C 30.63 102.77 30.252 103.612 29.642 104.222 C 29.032 104.832 28.19 105.21 27.26 105.21 C 26.33 105.21 25.488 104.832 24.878 104.222 C 24.268 103.612 23.89 102.77 23.89 101.84 C 23.89 100.91 24.268 100.068 24.878 99.458 C 25.488 98.848 26.33 98.47 27.26 98.47 Z " stroke-width="1"/>
    <path id="ID0.6153680896386504" fill="#D4D4D4" d="M 50 98.47 C 50.93 98.47 51.772 98.848 52.382 99.458 C 52.992 100.068 53.37 100.91 53.37 101.84 C 53.37 102.77 52.992 103.612 52.382 104.222 C 51.772 104.832 50.93 105.21 50 105.21 C 49.07 105.21 48.228 104.832 47.618 104.222 C 47.008 103.612 46.63 102.77 46.63 101.84 C 46.63 100.91 47.008 100.068 47.618 99.458 C 48.228 98.848 49.07 98.47 50 98.47 Z " stroke-width="1"/>
    <path id="ID0.14449769724160433_94_" fill="#ADADAD" stroke="#000000" stroke-width="2" d="M 111.76 94.66 L 111.95 106.25 C 111.95 110.66 108.47 114.34 104.14 114.34 L 95.85 114.81 L 70.54 114.81 C 66.22 114.81 63.75 110.99 63.75 106.59 L 63.46 97.77 L 63.75 74.68 C 64.04 70.36 67.48 66.49 71.82 66.49 L 88.73 66.9 L 103.92 66.36 C 108.24 66.36 111.95 70.15 111.95 74.56 L 111.76 94.66 Z "/>
    <path id="ID0.14449769724160433_93_" fill="#DEDEDE" d="M 107.93 93.23 L 108.1 103.41 C 108.1 107.28 105.04 110.52 101.23 110.52 L 93.94 110.94 L 71.69 110.94 C 67.9 110.94 65.72 107.59 65.72 103.71 L 65.46 95.96 L 65.72 75.67 C 65.97 71.87 69 68.47 72.82 68.47 L 87.69 68.83 L 101.05 68.35 C 104.84 68.35 108.11 71.68 108.11 75.56 L 107.93 93.23 Z " stroke-width="1"/>
    <path id="ID0.14449769724160433_92_" fill="#F0F0F0" d="M 101.37 89.89 L 80.09 101.8 L 76.24 101.8 C 72.88 101.8 70.13 99.6 70.13 96.87 L 69.9 91.6 L 70.13 77.34 C 70.13 74.62 72.86 72.41 76.24 72.41 L 90.5 72.88 L 95.26 72.41 C 98.62 72.41 101.37 74.61 101.37 77.34 L 101.37 89.89 Z " stroke-width="1"/>
    <path id="ID0.30951678520068526" fill="#DEDEDE" d="M 75.26 75.4 C 76.19 75.4 77.032 75.778 77.642 76.388 C 78.252 76.998 78.63 77.84 78.63 78.77 C 78.63 79.7 78.252 80.542 77.642 81.152 C 77.032 81.762 76.19 82.14 75.26 82.14 C 74.33 82.14 73.488 81.762 72.878 81.152 C 72.268 80.542 71.89 79.7 71.89 78.77 C 71.89 77.84 72.268 76.998 72.878 76.388 C 73.488 75.778 74.33 75.4 75.26 75.4 Z " stroke-width="1"/>
    <path id="ID0.3030206267721951" fill="#DEDEDE" d="M 98 75.4 C 98.93 75.4 99.772 75.778 100.382 76.388 C 100.992 76.998 101.37 77.84 101.37 78.77 C 101.37 79.7 100.992 80.542 100.382 81.152 C 99.772 81.762 98.93 82.14 98 82.14 C 97.07 82.14 96.228 81.762 95.618 81.152 C 95.008 80.542 94.63 79.7 94.63 78.77 C 94.63 77.84 95.008 76.998 95.618 76.388 C 96.228 75.778 97.07 75.4 98 75.4 Z " stroke-width="1"/>
    <path id="ID0.2542994823306799" fill="#D4D4D4" d="M 75.26 98.47 C 76.19 98.47 77.032 98.848 77.642 99.458 C 78.252 100.068 78.63 100.91 78.63 101.84 C 78.63 102.77 78.252 103.612 77.642 104.222 C 77.032 104.832 76.19 105.21 75.26 105.21 C 74.33 105.21 73.488 104.832 72.878 104.222 C 72.268 103.612 71.89 102.77 71.89 101.84 C 71.89 100.91 72.268 100.068 72.878 99.458 C 73.488 98.848 74.33 98.47 75.26 98.47 Z " stroke-width="1"/>
    <path id="ID0.41919207386672497" fill="#D4D4D4" d="M 98 98.47 C 98.93 98.47 99.772 98.848 100.382 99.458 C 100.992 100.068 101.37 100.91 101.37 101.84 C 101.37 102.77 100.992 103.612 100.382 104.222 C 99.772 104.832 98.93 105.21 98 105.21 C 97.07 105.21 96.228 104.832 95.618 104.222 C 95.008 103.612 94.63 102.77 94.63 101.84 C 94.63 100.91 95.008 100.068 95.618 99.458 C 96.228 98.848 97.07 98.47 98 98.47 Z " stroke-width="1"/>
    <path id="ID0.14449769724160433_91_" fill="#ADADAD" stroke="#000000" stroke-width="2" d="M 159.76 46.66 L 159.95 58.25 C 159.95 62.66 156.47 66.34 152.14 66.34 L 143.85 66.81 L 118.54 66.81 C 114.22 66.81 111.75 62.99 111.75 58.59 L 111.46 49.77 L 111.75 26.68 C 112.04 22.36 115.48 18.49 119.82 18.49 L 136.73 18.9 L 151.92 18.36 C 156.24 18.36 159.95 22.15 159.95 26.56 L 159.76 46.66 Z "/>
    <path id="ID0.14449769724160433_90_" fill="#DEDEDE" d="M 155.93 45.23 L 156.1 55.41 C 156.1 59.28 153.04 62.52 149.23 62.52 L 141.94 62.94 L 119.69 62.94 C 115.9 62.94 113.72 59.59 113.72 55.71 L 113.46 47.96 L 113.72 27.67 C 113.97 23.87 117 20.47 120.82 20.47 L 135.69 20.83 L 149.05 20.35 C 152.84 20.35 156.11 23.68 156.11 27.56 L 155.93 45.23 Z " stroke-width="1"/>
    <path id="ID0.14449769724160433_89_" fill="#F0F0F0" d="M 149.37 41.89 L 128.09 53.8 L 124.24 53.8 C 120.88 53.8 118.13 51.6 118.13 48.87 L 117.9 43.59 L 118.13 29.33 C 118.13 26.61 120.86 24.4 124.24 24.4 L 138.5 24.87 L 143.26 24.4 C 146.62 24.4 149.37 26.6 149.37 29.33 L 149.37 41.89 Z " stroke-width="1"/>
    <path id="ID0.15792025858536363" fill="#DEDEDE" d="M 123.26 27.4 C 124.19 27.4 125.032 27.778 125.642 28.388 C 126.252 28.998 126.63 29.84 126.63 30.77 C 126.63 31.7 126.252 32.542 125.642 33.152 C 125.032 33.762 124.19 34.14 123.26 34.14 C 122.33 34.14 121.488 33.762 120.878 33.152 C 120.268 32.542 119.89 31.7 119.89 30.77 C 119.89 29.84 120.268 28.998 120.878 28.388 C 121.488 27.778 122.33 27.4 123.26 27.4 Z " stroke-width="1"/>
    <path id="ID0.3916995385661721" fill="#DEDEDE" d="M 146 27.4 C 146.93 27.4 147.772 27.778 148.382 28.388 C 148.992 28.998 149.37 29.84 149.37 30.77 C 149.37 31.7 148.992 32.542 148.382 33.152 C 147.772 33.762 146.93 34.14 146 34.14 C 145.07 34.14 144.228 33.762 143.618 33.152 C 143.008 32.542 142.63 31.7 142.63 30.77 C 142.63 29.84 143.008 28.998 143.618 28.388 C 144.228 27.778 145.07 27.4 146 27.4 Z " stroke-width="1"/>
    <path id="ID0.9141950663179159" fill="#D4D4D4" d="M 123.26 50.47 C 124.19 50.47 125.032 50.848 125.642 51.458 C 126.252 52.068 126.63 52.91 126.63 53.84 C 126.63 54.77 126.252 55.612 125.642 56.222 C 125.032 56.832 124.19 57.21 123.26 57.21 C 122.33 57.21 121.488 56.832 120.878 56.222 C 120.268 55.612 119.89 54.77 119.89 53.84 C 119.89 52.91 120.268 52.068 120.878 51.458 C 121.488 50.848 122.33 50.47 123.26 50.47 Z " stroke-width="1"/>
    <path id="ID0.17016894975677133" fill="#D4D4D4" d="M 146 50.47 C 146.93 50.47 147.772 50.848 148.382 51.458 C 148.992 52.068 149.37 52.91 149.37 53.84 C 149.37 54.77 148.992 55.612 148.382 56.222 C 147.772 56.832 146.93 57.21 146 57.21 C 145.07 57.21 144.228 56.832 143.618 56.222 C 143.008 55.612 142.63 54.77 142.63 53.84 C 142.63 52.91 143.008 52.068 143.618 51.458 C 144.228 50.848 145.07 50.47 146 50.47 Z " stroke-width="1"/>
    <path id="ID0.14449769724160433_88_" fill="#ADADAD" stroke="#000000" stroke-width="2" d="M 207.76 46.66 L 207.95 58.25 C 207.95 62.66 204.47 66.34 200.14 66.34 L 191.85 66.81 L 166.54 66.81 C 162.22 66.81 159.75 62.99 159.75 58.59 L 159.46 49.77 L 159.75 26.68 C 160.04 22.36 163.48 18.49 167.82 18.49 L 184.73 18.9 L 199.92 18.36 C 204.24 18.36 207.95 22.15 207.95 26.56 L 207.76 46.66 Z "/>
    <path id="ID0.14449769724160433_87_" fill="#DEDEDE" d="M 203.93 45.23 L 204.1 55.41 C 204.1 59.28 201.04 62.52 197.23 62.52 L 189.94 62.94 L 167.69 62.94 C 163.9 62.94 161.72 59.59 161.72 55.71 L 161.46 47.96 L 161.72 27.67 C 161.97 23.87 165 20.47 168.82 20.47 L 183.69 20.83 L 197.05 20.35 C 200.84 20.35 204.11 23.68 204.11 27.56 L 203.93 45.23 Z " stroke-width="1"/>
    <path id="ID0.14449769724160433_86_" fill="#F0F0F0" d="M 197.37 41.89 L 176.09 53.8 L 172.24 53.8 C 168.88 53.8 166.13 51.6 166.13 48.87 L 165.9 43.59 L 166.13 29.33 C 166.13 26.61 168.86 24.4 172.24 24.4 L 186.5 24.88 L 191.26 24.41 C 194.62 24.41 197.37 26.61 197.37 29.34 L 197.37 41.89 Z " stroke-width="1"/>
    <path id="ID0.06052689300850034" fill="#DEDEDE" d="M 171.26 27.4 C 172.19 27.4 173.032 27.778 173.642 28.388 C 174.252 28.998 174.63 29.84 174.63 30.77 C 174.63 31.7 174.252 32.542 173.642 33.152 C 173.032 33.762 172.19 34.14 171.26 34.14 C 170.33 34.14 169.488 33.762 168.878 33.152 C 168.268 32.542 167.89 31.7 167.89 30.77 C 167.89 29.84 168.268 28.998 168.878 28.388 C 169.488 27.778 170.33 27.4 171.26 27.4 Z " stroke-width="1"/>
    <path id="ID0.09847372444346547" fill="#DEDEDE" d="M 194 27.4 C 194.93 27.4 195.772 27.778 196.382 28.388 C 196.992 28.998 197.37 29.84 197.37 30.77 C 197.37 31.7 196.992 32.542 196.382 33.152 C 195.772 33.762 194.93 34.14 194 34.14 C 193.07 34.14 192.228 33.762 191.618 33.152 C 191.008 32.542 190.63 31.7 190.63 30.77 C 190.63 29.84 191.008 28.998 191.618 28.388 C 192.228 27.778 193.07 27.4 194 27.4 Z " stroke-width="1"/>
    <path id="ID0.1202020039781928" fill="#D4D4D4" d="M 171.26 50.47 C 172.19 50.47 173.032 50.848 173.642 51.458 C 174.252 52.068 174.63 52.91 174.63 53.84 C 174.63 54.77 174.252 55.612 173.642 56.222 C 173.032 56.832 172.19 57.21 171.26 57.21 C 170.33 57.21 169.488 56.832 168.878 56.222 C 168.268 55.612 167.89 54.77 167.89 53.84 C 167.89 52.91 168.268 52.068 168.878 51.458 C 169.488 50.848 170.33 50.47 171.26 50.47 Z " stroke-width="1"/>
    <path id="ID0.5126879569143057" fill="#D4D4D4" d="M 194 50.47 C 194.93 50.47 195.772 50.848 196.382 51.458 C 196.992 52.068 197.37 52.91 197.37 53.84 C 197.37 54.77 196.992 55.612 196.382 56.222 C 195.772 56.832 194.93 57.21 194 57.21 C 193.07 57.21 192.228 56.832 191.618 56.222 C 191.008 55.612 190.63 54.77 190.63 53.84 C 190.63 52.91 191.008 52.068 191.618 51.458 C 192.228 50.848 193.07 50.47 194 50.47 Z " stroke-width="1"/>
    <path id="ID0.14449769724160433_85_" fill="#ADADAD" stroke="#000000" stroke-width="2" d="M 159.76 94.66 L 159.95 106.25 C 159.95 110.66 156.47 114.34 152.14 114.34 L 143.85 114.81 L 118.54 114.81 C 114.22 114.81 111.75 110.99 111.75 106.59 L 111.46 97.77 L 111.75 74.68 C 112.04 70.36 115.48 66.49 119.82 66.49 L 136.73 66.9 L 151.92 66.36 C 156.24 66.36 159.95 70.15 159.95 74.56 L 159.76 94.66 Z "/>
    <path id="ID0.14449769724160433_84_" fill="#DEDEDE" d="M 155.93 93.23 L 156.1 103.41 C 156.1 107.28 153.04 110.52 149.23 110.52 L 141.94 110.94 L 119.69 110.94 C 115.9 110.94 113.72 107.59 113.72 103.71 L 113.46 95.96 L 113.72 75.67 C 113.97 71.87 117 68.47 120.82 68.47 L 135.69 68.83 L 149.05 68.35 C 152.84 68.35 156.11 71.68 156.11 75.56 L 155.93 93.23 Z " stroke-width="1"/>
    <path id="ID0.14449769724160433_83_" fill="#F0F0F0" d="M 149.37 89.89 L 128.09 101.8 L 124.24 101.8 C 120.88 101.8 118.13 99.6 118.13 96.87 L 117.9 91.59 L 118.13 77.33 C 118.13 74.61 120.86 72.4 124.24 72.4 L 138.5 72.87 L 143.26 72.4 C 146.62 72.4 149.37 74.6 149.37 77.33 L 149.37 89.89 Z " stroke-width="1"/>
    <path id="ID0.8268784447573125" fill="#DEDEDE" d="M 123.26 75.4 C 124.19 75.4 125.032 75.778 125.642 76.388 C 126.252 76.998 126.63 77.84 126.63 78.77 C 126.63 79.7 126.252 80.542 125.642 81.152 C 125.032 81.762 124.19 82.14 123.26 82.14 C 122.33 82.14 121.488 81.762 120.878 81.152 C 120.268 80.542 119.89 79.7 119.89 78.77 C 119.89 77.84 120.268 76.998 120.878 76.388 C 121.488 75.778 122.33 75.4 123.26 75.4 Z " stroke-width="1"/>
    <path id="ID0.6570037174969912" fill="#DEDEDE" d="M 146 75.4 C 146.93 75.4 147.772 75.778 148.382 76.388 C 148.992 76.998 149.37 77.84 149.37 78.77 C 149.37 79.7 148.992 80.542 148.382 81.152 C 147.772 81.762 146.93 82.14 146 82.14 C 145.07 82.14 144.228 81.762 143.618 81.152 C 143.008 80.542 142.63 79.7 142.63 78.77 C 142.63 77.84 143.008 76.998 143.618 76.388 C 144.228 75.778 145.07 75.4 146 75.4 Z " stroke-width="1"/>
    <path id="ID0.9260104293935001" fill="#D4D4D4" d="M 123.26 98.47 C 124.19 98.47 125.032 98.848 125.642 99.458 C 126.252 100.068 126.63 100.91 126.63 101.84 C 126.63 102.77 126.252 103.612 125.642 104.222 C 125.032 104.832 124.19 105.21 123.26 105.21 C 122.33 105.21 121.488 104.832 120.878 104.222 C 120.268 103.612 119.89 102.77 119.89 101.84 C 119.89 100.91 120.268 100.068 120.878 99.458 C 121.488 98.848 122.33 98.47 123.26 98.47 Z " stroke-width="1"/>
    <path id="ID0.16391675034537911" fill="#D4D4D4" d="M 146 98.47 C 146.93 98.47 147.772 98.848 148.382 99.458 C 148.992 100.068 149.37 100.91 149.37 101.84 C 149.37 102.77 148.992 103.612 148.382 104.222 C 147.772 104.832 146.93 105.21 146 105.21 C 145.07 105.21 144.228 104.832 143.618 104.222 C 143.008 103.612 142.63 102.77 142.63 101.84 C 142.63 100.91 143.008 100.068 143.618 99.458 C 144.228 98.848 145.07 98.47 146 98.47 Z " stroke-width="1"/>
    <path id="ID0.14449769724160433_82_" fill="#ADADAD" stroke="#000000" stroke-width="2" d="M 207.76 94.66 L 207.95 106.25 C 207.95 110.66 204.47 114.34 200.14 114.34 L 191.85 114.81 L 166.54 114.81 C 162.22 114.81 159.75 110.99 159.75 106.59 L 159.46 97.77 L 159.75 74.68 C 160.04 70.36 163.48 66.49 167.82 66.49 L 184.73 66.9 L 199.92 66.36 C 204.24 66.36 207.95 70.15 207.95 74.56 L 207.76 94.66 Z "/>
    <path id="ID0.14449769724160433_81_" fill="#DEDEDE" d="M 203.93 93.23 L 204.1 103.41 C 204.1 107.28 201.04 110.52 197.23 110.52 L 189.94 110.94 L 167.69 110.94 C 163.9 110.94 161.72 107.59 161.72 103.71 L 161.46 95.96 L 161.72 75.67 C 161.97 71.87 165 68.47 168.82 68.47 L 183.69 68.83 L 197.05 68.35 C 200.84 68.35 204.11 71.68 204.11 75.56 L 203.93 93.23 Z " stroke-width="1"/>
    <path id="ID0.14449769724160433_80_" fill="#F0F0F0" d="M 197.37 89.89 L 176.09 101.8 L 172.24 101.8 C 168.88 101.8 166.13 99.6 166.13 96.87 L 165.9 91.59 L 166.13 77.33 C 166.13 74.61 168.86 72.4 172.24 72.4 L 186.5 72.88 L 191.26 72.41 C 194.62 72.41 197.37 74.61 197.37 77.34 L 197.37 89.89 Z " stroke-width="1"/>
    <path id="ID0.09734250651672482" fill="#DEDEDE" d="M 171.26 75.4 C 172.19 75.4 173.032 75.778 173.642 76.388 C 174.252 76.998 174.63 77.84 174.63 78.77 C 174.63 79.7 174.252 80.542 173.642 81.152 C 173.032 81.762 172.19 82.14 171.26 82.14 C 170.33 82.14 169.488 81.762 168.878 81.152 C 168.268 80.542 167.89 79.7 167.89 78.77 C 167.89 77.84 168.268 76.998 168.878 76.388 C 169.488 75.778 170.33 75.4 171.26 75.4 Z " stroke-width="1"/>
    <path id="ID0.10412245010957122" fill="#DEDEDE" d="M 194 75.4 C 194.93 75.4 195.772 75.778 196.382 76.388 C 196.992 76.998 197.37 77.84 197.37 78.77 C 197.37 79.7 196.992 80.542 196.382 81.152 C 195.772 81.762 194.93 82.14 194 82.14 C 193.07 82.14 192.228 81.762 191.618 81.152 C 191.008 80.542 190.63 79.7 190.63 78.77 C 190.63 77.84 191.008 76.998 191.618 76.388 C 192.228 75.778 193.07 75.4 194 75.4 Z " stroke-width="1"/>
    <path id="ID0.31326613621786237" fill="#D4D4D4" d="M 171.26 98.47 C 172.19 98.47 173.032 98.848 173.642 99.458 C 174.252 100.068 174.63 100.91 174.63 101.84 C 174.63 102.77 174.252 103.612 173.642 104.222 C 173.032 104.832 172.19 105.21 171.26 105.21 C 170.33 105.21 169.488 104.832 168.878 104.222 C 168.268 103.612 167.89 102.77 167.89 101.84 C 167.89 100.91 168.268 100.068 168.878 99.458 C 169.488 98.848 170.33 98.47 171.26 98.47 Z " stroke-width="1"/>
    <path id="ID0.6913662683218718" fill="#D4D4D4" d="M 194 98.47 C 194.93 98.47 195.772 98.848 196.382 99.458 C 196.992 100.068 197.37 100.91 197.37 101.84 C 197.37 102.77 196.992 103.612 196.382 104.222 C 195.772 104.832 194.93 105.21 194 105.21 C 193.07 105.21 192.228 104.832 191.618 104.222 C 191.008 103.612 190.63 102.77 190.63 101.84 C 190.63 100.91 191.008 100.068 191.618 99.458 C 192.228 98.848 193.07 98.47 194 98.47 Z " stroke-width="1"/>
  </g>
</svg>