<svg xmlns="http://www.w3.org/2000/svg" xmlns:xlink="http://www.w3.org/1999/xlink" version="1.1" width="278.3591021080863" height="129.7402971764457" viewBox="-0.6545449460571807 -0.7045449505275291 278.3591021080863 129.7402971764457">
  <!-- Exported by Scratch - http://scratch.mit.edu/ -->
  <path id="ID0.4177084397524595_16_" fill="none" d="M 277 0 L 0.05 0 L 0.05 8.0003 L 277 8.0003 L 277 0 Z " stroke-width="1.4090899010550582"/>
  <path id="ID0.08167594531551003" fill="#FFFFFF" d="M 43.05 29.43 L 43.18 26.19 C 50.79 28.24 136.35 25.14 141.07 26.19 C 141.07 26.19 141.07 26.9 141.07 27.69 C 141.07 28.22 141.07 28.79 141.07 29.19 L 141.07 42.26 L 43.07 42.26 L 43.07 29.44 C 43.06 29.44 43.06 29.44 43.05 29.43 Z " stroke-width="1"/>
  <path id="ID0.2170699038542807" fill="#BBD8ED" d="M 43.05 32.43 L 43.18 29.19 C 50.79 31.24 136.35 28.14 141.07 29.19 C 141.07 29.19 141.07 29.9 141.07 30.69 C 141.07 31.22 141.07 31.79 141.07 32.19 L 141.07 47.26 L 43.07 47.26 L 43.07 32.44 C 43.06 32.44 43.06 32.44 43.05 32.43 Z " stroke-width="1"/>
  <path id="ID0.46743336552754045" fill="#95BFDE" d="M 43.05 42.43 L 43.18 39.19 C 50.79 41.24 136.35 38.14 141.07 39.19 C 141.07 39.19 141.07 39.9 141.07 40.69 C 141.07 41.22 141.07 41.79 141.07 42.19 L 141.07 62.26 L 43.07 62.26 L 43.07 42.44 C 43.06 42.44 43.06 42.44 43.05 42.43 Z " stroke-width="1"/>
  <path id="ID0.07305622799322009" fill="#79AED4" d="M 43.05 56.1531 L 43.18 54.4617 C 50.79 55.5319 136.35 53.9136 141.07 54.4617 C 141.07 54.4617 141.07 54.8324 141.07 55.2448 C 141.07 55.5215 141.07 55.819 141.07 56.0278 L 141.07 128.3312 L 43.07 128.3312 L 43.07 56.1584 C 43.06 56.1584 43.06 56.1584 43.05 56.1531 Z " stroke-width="0.7976627953870113"/>
  <path id="ID0.08167594531551003" fill="#FFFFFF" d="M 140.15 29.43 L 140.28 26.19 C 147.89 28.24 233.45 25.14 238.17 26.19 C 238.17 26.19 238.17 26.9 238.17 27.69 C 238.17 28.22 238.17 28.79 238.17 29.19 L 238.17 42.26 L 140.17 42.26 L 140.17 29.44 C 140.16 29.44 140.16 29.44 140.15 29.43 Z " stroke-width="1"/>
  <path id="ID0.2170699038542807" fill="#BBD8ED" d="M 140.15 32.43 L 140.28 29.19 C 147.89 31.24 233.45 28.14 238.17 29.19 C 238.17 29.19 238.17 29.9 238.17 30.69 C 238.17 31.22 238.17 31.79 238.17 32.19 L 238.17 47.26 L 140.17 47.26 L 140.17 32.44 C 140.16 32.44 140.16 32.44 140.15 32.43 Z " stroke-width="1"/>
  <path id="ID0.46743336552754045" fill="#95BFDE" d="M 140.15 42.43 L 140.28 39.19 C 147.89 41.24 233.45 38.14 238.17 39.19 C 238.17 39.19 238.17 39.9 238.17 40.69 C 238.17 41.22 238.17 41.79 238.17 42.19 L 238.17 62.26 L 140.17 62.26 L 140.17 42.44 C 140.16 42.44 140.16 42.44 140.15 42.43 Z " stroke-width="1"/>
  <path id="ID0.07305622799322009" fill="#79AED4" d="M 140.15 56.1531 L 140.28 54.4617 C 147.89 55.5319 233.45 53.9136 238.17 54.4617 C 238.17 54.4617 238.17 54.8324 238.17 55.2448 C 238.17 55.5215 238.17 55.819 238.17 56.0278 L 238.17 128.3312 L 140.17 128.3312 L 140.17 56.1584 C 140.16 56.1584 140.16 56.1584 140.15 56.1531 Z " stroke-width="0.7976627953870113"/>
</svg>