<svg version="1.1" width="482" height="362" viewBox="-1 -1 482 362" xmlns="http://www.w3.org/2000/svg" xmlns:xlink="http://www.w3.org/1999/xlink">
  <!-- Exported by Scratch - http://scratch.mit.edu/ -->
  <path id="ID0.3865150325000286" fill="#FFFFFF" stroke="none" d="M 0 0 L 480 0 L 480 360 L 0 360 L 0 0 Z "/>
  <g id="ID0.7714808732271194">
    <g id="ID0.036127774976193905">
      <g id="Layer_3">
        <path id="ID0.1262586428783834" fill="#FAA51D" stroke="#000000" d="M 22.462 79.039 C 20.047 78.588 17.158 77.730 14.720 75.536 C 9.268 70.629 7.526 62.535 3.672 64.622 C -0.184 66.710 -0.110 79.787 12.025 83.816 C 16.207 85.207 20.023 85.212 23.116 85.128 C 23.927 85.103 30.833 84.474 33.195 81.054 C 35.556 77.634 33.914 76.782 33.105 76.310 C 32.295 75.838 25.878 79.677 22.462 79.039 Z " transform="matrix(1, 0, 0, 1, 12.5, 245.9)"/>
        <path id="ID0.10763301514089108" fill="#FFFFFF" d="M 4.236 64.877 C 2.247 65.490 1.161 69.875 2.160 73.361 C 3.158 76.851 4.794 78.383 6.023 79.759 C 7.551 80.797 5.303 77.357 7.384 75.609 C 9.459 73.865 13.117 74.695 13.117 74.695 C 13.117 74.695 10.208 70.708 8.547 68.299 C 6.975 65.988 6.359 64.375 4.236 64.877 Z " transform="matrix(1, 0, 0, 1, 12.5, 245.9)"/>
      </g>
      <g id="ID0.711244479753077">
        <path id="ID0.08443237747997046" fill="#FAA51D" d="M 38.217 86.756 C 38.217 86.756 29.385 92.956 21.146 95.168 L 21.232 95.383 C 22.479 97.207 27.102 102.880 20.898 104.879 C 15.565 106.596 5.778 91.775 10.077 88.977 C 12.703 87.264 14.969 88.725 14.969 88.725 C 14.969 88.725 18.443 87.655 20.970 86.380 C 25.273 84.219 26.754 82.927 26.754 82.927 C 26.754 82.927 30.938 78.621 33.610 78.790 C 36.281 78.960 41.669 83.504 38.217 86.756 Z " transform="matrix(1, 0, 0, 1, 12.5, 245.9)"/>
        <path id="ID0.6914621884934604" fill="none" stroke="#231F20" stroke-width="1.2" d="M 21.232 95.383 C 22.479 97.207 27.102 102.880 20.898 104.879 C 15.565 106.596 5.569 91.535 9.868 88.734 C 12.494 87.021 14.969 88.724 14.969 88.724 C 14.969 88.724 18.443 87.652 20.970 86.376 C 25.273 84.215 26.754 82.923 26.754 82.923 " transform="matrix(1, 0, 0, 1, 12.5, 245.9)"/>
        <path id="ID0.9612226812168956" fill="none" stroke="#231F20" stroke-width="1.2" d="M 38.217 86.756 C 38.217 86.756 28.094 93.863 19.413 95.575 " transform="matrix(1, 0, 0, 1, 12.5, 245.9)"/>
      </g>
      <path id="ID0.39917869213968515" fill="#FAA51D" stroke="#231F20" stroke-width="1.2" d="M 52.169 74.885 C 52.169 74.885 53.404 75.050 56.913 78.561 C 60.422 82.069 62.939 80.721 65.824 79.285 C 68.701 77.842 76.361 73.159 72.314 69.468 C 68.265 65.780 66.107 70.614 62.599 71.873 C 59.087 73.133 57.538 69.386 55.741 67.586 C 55.152 66.993 54.553 66.487 54.012 66.081 C 54.012 66.081 53.041 65.321 52.106 68.871 C 51.172 72.412 50.162 73.415 52.169 74.885 Z " transform="matrix(1, 0, 0, 1, 12.5, 245.9)"/>
      <g id="Layer_2_1_">
        <path id="ID0.7902410514652729" fill="#FAA51D" stroke="#231F20" stroke-width="1.2" d="M 46.753 82.012 C 47.941 81.100 49.150 79.610 50.704 77.299 C 52 75.372 53.404 71.721 53.404 71.721 C 54.279 69.200 55.338 65.145 51.502 64.425 C 49.949 64.134 47.423 64.327 43.832 63.649 C 40.239 62.968 37.034 61.127 34.315 65.882 C 31.597 70.639 24.725 74.153 33.259 82.445 C 33.259 82.445 38.160 86.287 44.023 92.084 C 48.854 96.859 56.068 102.686 56.068 102.686 C 56.068 102.686 75.040 104.874 75.603 101.993 C 77.525 92.203 60.826 95.082 60.826 95.082 C 60.826 95.082 56.221 91.149 54.101 89.288 C 50.623 86.229 42.976 78.517 42.976 78.517 " transform="matrix(1, 0, 0, 1, 12.5, 245.9)"/>
        <path id="ID0.3538971454836428" fill="#FFFFFF" d="M 51.253 75.434 C 51.253 75.434 53.723 72.774 48.784 70.117 C 43.845 67.460 41.571 70.100 40.045 71.638 C 37.401 74.293 43.488 78.249 43.488 78.249 L 46.664 81.453 C 46.664 81.453 48.402 79.806 49.163 78.474 C 50.036 77.260 51.253 75.434 51.253 75.434 " transform="matrix(1, 0, 0, 1, 12.5, 245.9)"/>
      </g>
      <path id="ID0.8001463976688683" fill="#FAA51D" stroke="#231F20" stroke-width="1.2" d="M 29.926 73.218 C 30.675 72.647 32.815 71.016 34.780 69.561 C 37.208 67.762 40.897 63.712 35.857 61.915 C 30.817 60.114 28.350 63.519 24.338 66.861 C 22.179 68.662 19.030 69.560 20.019 73.070 C 21.012 76.581 24.881 86.478 31.808 83.240 C 38.737 80.001 30.009 74.060 28.748 72.083 " transform="matrix(1, 0, 0, 1, 12.5, 245.9)"/>
      <g id="Layer_2">
        <path id="ID0.5349301737733185" fill="#FAA51D" stroke="#231F20" stroke-width="1.2" d="M 52.709 14.156 C 51.169 14.013 47.959 13.840 46.191 13.925 C 41.463 14.150 36.967 15.853 36.967 15.853 L 23.949 7.357 L 26.184 26.263 C 26.830 25.481 15.629 39.067 22.705 50.487 C 29.785 61.913 44.938 67.005 63.693 63.279 C 82.448 59.550 86.922 48.748 85.679 43.033 C 84.437 37.319 77.357 35.210 77.357 35.210 C 77.357 35.210 77.267 30.730 74.029 25.240 C 72.103 21.972 65.681 17.199 65.681 17.199 L 62.822 5.647 L 55.370 12.851 L 52.709 14.156 Z " transform="matrix(1, 0, 0, 1, 12.5, 245.9)"/>
        <path id="ID0.33821341395378113" fill="#FFFFFF" d="M 76.420 35.066 L 73.938 33.002 L 64.823 35.663 C 64.823 35.663 64.823 39.082 60.456 40.030 C 56.086 40.981 49.245 37.753 49.245 37.753 L 41.460 41.170 C 41.460 41.170 33.023 42.098 32.721 47.251 C 32.048 58.704 46.100 63.479 51.425 63.783 C 54.330 63.950 59.660 63.445 63.702 62.642 C 81.454 59.408 86.253 48.723 85.012 43.007 C 83.770 37.293 77.034 35.811 77.034 35.811 L 76.420 35.066 Z " transform="matrix(1, 0, 0, 1, 12.5, 245.9)"/>
        <path id="ID0.5276660155504942" fill="none" stroke="#231F20" stroke-width="1.2" d="M 10.673 46.155 C 10.673 46.155 14.780 46.529 16.647 46.423 C 18.512 46.316 22.139 45.836 22.139 45.836 " transform="matrix(1, 0, 0, 1, 12.5, 245.9)"/>
        <path id="ID0.20987239247187972" fill="none" stroke="#231F20" stroke-width="1.2" d="M 81.656 40.671 C 81.656 40.671 86.205 39.928 88.515 39.122 C 91.230 38.180 93.058 36.577 93.058 36.577 " transform="matrix(1, 0, 0, 1, 12.5, 245.9)"/>
        <path id="ID0.9332323684357107" fill="none" stroke="#231F20" stroke-width="1.2" d="M 22.337 41.909 C 22.337 41.909 19.953 40.132 16.220 38.479 C 12.086 36.648 9.815 36.176 9.815 36.176 " transform="matrix(1, 0, 0, 1, 12.5, 245.9)"/>
        <path id="ID0.16135577345266938" fill="none" stroke="#231F20" stroke-width="1.2" d="M 82.117 46.622 C 82.117 46.622 84.843 47.726 87.650 48.007 C 90.420 48.283 92.296 48.117 92.296 48.117 " transform="matrix(1, 0, 0, 1, 12.5, 245.9)"/>
        <path id="ID0.9711056067608297" fill="none" stroke="#000000" stroke-linecap="round" d="M 52.350 14.212 C 55.190 14.912 56.237 15.681 56.237 15.681 " transform="matrix(1, 0, 0, 1, 12.5, 245.9)"/>
        <path id="ID0.6718857120722532" fill="none" stroke="#000000" d="M 33.898 13.684 L 39.956 18.042 " transform="matrix(1, 0, 0, 1, 12.5, 245.9)"/>
      </g>
      <g id="Layer_5">
        <path id="ID0.10769918374717236" fill="#FFFFFF" stroke="#231F20" d="M 71.840 25.366 C 74.764 29.845 74.873 34.957 72.082 36.781 C 69.289 38.606 64.656 36.449 61.728 31.968 C 58.795 27.488 58.691 22.379 61.484 20.553 C 64.275 18.730 68.913 20.884 71.840 25.366 Z " transform="matrix(1, 0, 0, 1, 12.5, 245.9)"/>
        <path id="ID0.096935432869941" fill="#231F20" d="M 71.089 32.522 C 71.089 33.602 70.287 34.478 69.289 34.478 C 68.296 34.478 67.486 33.601 67.486 32.522 C 67.486 31.442 68.296 30.564 69.289 30.564 C 70.287 30.564 71.089 31.442 71.089 32.522 " transform="matrix(1, 0, 0, 1, 12.5, 245.9)"/>
      </g>
      <g id="Layer_7">
        <path id="ID0.24205661891028285" fill="#FFFFFF" stroke="#231F20" d="M 47.867 28.619 C 50.793 33.099 50.486 38.481 47.186 40.634 C 43.884 42.793 38.835 40.906 35.910 36.426 C 32.982 31.946 33.286 26.566 36.588 24.409 C 39.891 22.253 44.938 24.137 47.867 28.619 Z " transform="matrix(1, 0, 0, 1, 12.5, 245.9)"/>
        <path id="ID0.36201765527948737" fill="#231F20" d="M 46.079 34.507 C 46.079 35.588 45.276 36.464 44.278 36.464 C 43.286 36.464 42.475 35.586 42.475 34.507 C 42.475 33.427 43.286 32.550 44.278 32.550 C 45.274 32.550 46.079 33.427 46.079 34.507 " transform="matrix(1, 0, 0, 1, 12.5, 245.9)"/>
      </g>
      <path id="ID0.9789959993213415" fill="#5E4A42" stroke="#000000" d="M 59.766 37.926 C 61.620 37.926 64.321 37.642 64.463 38.495 C 64.606 39.350 62.754 42.698 61.475 42.840 C 60.192 42.982 55.350 40.487 55.280 38.921 C 55.206 37.355 58.055 37.926 59.766 37.926 Z " transform="matrix(1, 0, 0, 1, 12.5, 245.9)"/>
      <g id="Layer_4">
        <path id="ID0.4725899393670261" fill="none" stroke="#231F20" stroke-width="1.2" d="M 46.774 45.235 C 46.774 45.235 57.121 48.289 60.991 49.132 C 64.859 49.974 71.842 50.816 71.842 50.816 C 71.842 50.816 63.852 61.061 54.514 58.460 C 45.176 55.863 45.345 49.975 46.774 45.235 Z " transform="matrix(1, 0, 0, 1, 12.5, 245.9)"/>
      </g>
    </g>
    <g id="ID0.1788471071049571">
      <path id="ID0.027280720882117748" fill="#FFFF00" stroke="none" stroke-linecap="round" d="M 214.500 83 C 240.620 83 268.489 94.571 286.959 113.041 C 305.429 131.511 341.133 175.506 317 185.500 C 253.930 211.620 175.070 211.620 112 185.500 C 87.867 175.506 123.571 131.511 142.041 113.041 C 160.511 94.571 188.380 83 214.500 83 Z " transform="matrix(0.22194921970367432, 0, 0, 0.22194921970367432, 14.4, 232.5)"/>
      <path id="ID0.8255622205324471" fill="#FFFFFF" stroke="none" d="M 284 128 C 291.173 128 297.673 131.474 302.380 137.086 C 307.087 142.697 310 150.447 310 159 C 310 167.553 307.087 175.303 302.380 180.914 C 297.673 186.526 291.173 190 284 190 C 276.827 190 270.327 186.526 265.620 180.914 C 260.913 175.303 258 167.553 258 159 C 258 150.447 260.913 142.697 265.620 137.086 C 270.327 131.474 276.827 128 284 128 Z " transform="matrix(0.22194921970367432, 0, 0, 0.22194921970367432, 10.4, 228.25)"/>
      <path id="ID0.656756401527673" fill="none" stroke="#00FF55" stroke-width="2" d="M 268.500 128 C 270.845 128 272.970 129.289 274.509 131.370 C 276.048 133.452 277 136.327 277 139.500 C 277 142.673 276.048 145.548 274.509 147.630 C 272.970 149.711 270.845 151 268.500 151 C 266.155 151 264.030 149.711 262.491 147.630 C 260.952 145.548 260 142.673 260 139.500 C 260 136.327 260.952 133.452 262.491 131.370 C 264.030 129.289 266.155 128 268.500 128 Z " transform="matrix(0.22194921970367432, 0, 0, 0.22194921970367432, 14.4, 232.5)"/>
      <path id="ID0.6880330848507583" fill="none" stroke="#CCCC00" stroke-width="2" d="M 267.500 110 C 274.811 110 281.436 113.418 286.233 118.939 C 291.031 124.460 294 132.085 294 140.500 C 294 148.915 291.031 156.540 286.233 162.061 C 281.436 167.582 274.811 171 267.500 171 C 260.189 171 253.564 167.582 248.767 162.061 C 243.969 156.540 241 148.915 241 140.500 C 241 132.085 243.969 124.460 248.767 118.939 C 253.564 113.418 260.189 110 267.500 110 Z " transform="matrix(0.22194921970367432, 0, 0, 0.22194921970367432, 14.4, 232.5)"/>
      <path id="ID0.993488347157836" fill="none" stroke="#FFFF99" stroke-width="5" stroke-linecap="round" d="M 300 113 L 343 95 " transform="matrix(0.22194921970367432, 0, 0, 0.22194921970367432, 14.4, 232.5)"/>
      <path id="ID0.25363350845873356" fill="none" stroke="#FFFF99" stroke-width="5" stroke-linecap="round" d="M 332 157 L 376 169 " transform="matrix(0.22194921970367432, 0, 0, 0.22194921970367432, 14.4, 232.5)"/>
      <path id="ID0.6729364939965308" fill="none" stroke="#FFFF99" stroke-width="5" stroke-linecap="round" d="M 337 132 L 393 117 " transform="matrix(0.22194921970367432, 0, 0, 0.22194921970367432, 14.4, 232.5)"/>
    </g>
  </g>
  <path id="ID0.25965610705316067" fill="#FFFFFF" stroke="none" d="M 300 58 C 318.485 58 335.235 63.435 347.364 72.214 C 359.492 80.994 367 93.119 367 106.500 C 367 119.881 359.492 132.006 347.364 140.786 C 335.235 149.565 318.485 155 300 155 C 281.515 155 264.765 149.565 252.636 140.786 C 240.508 132.006 233 119.881 233 106.500 C 233 93.119 240.508 80.994 252.636 72.214 C 264.765 63.435 281.515 58 300 58 Z "/>
  <text id="ID0.8602459360845387" fill="#995900" x="94" y="87.25" text-anchor="start" font-family="Helvetica" font-size="22" transform="matrix(2.203389883041382, 0, 0, 2.203389883041382, 82, 43.3)">Miner Cat Run</text>
  <text id="ID0.24789598118513823" fill="#995900" x="362" y="350.25" text-anchor="start" font-family="Helvetica" font-size="22" transform="matrix(1, 0, 0, 1, 264, 335.15)">Made In Scratch 2.0</text>
  <text id="ID0.9929222506470978" fill="#663B00" x="13" y="13.250000000000002" text-anchor="start" font-family="Helvetica" font-size="22" transform="matrix(0.5343047976493835, 0, 0, 0.5343047976493835, 4, 2.55)">Alpha Ver 1.0.6</text>
</svg>