<svg xmlns="http://www.w3.org/2000/svg" xmlns:xlink="http://www.w3.org/1999/xlink" version="1.1" width="169.1537658691406" height="173.7480041503906" viewBox="-0.10077009201049802 0.356000030040741 169.1537658691406 173.7480041503906">
  <!-- Exported by Scratch - http://scratch.mit.edu/ -->
  <g id="ID0.28617000253871083">
    <path id="ID0.8289369675330818" fill="#FAA51D" stroke="#000000" stroke-width="1.2" d="M 50.849 147.247 C 48.102 147.247 45.549 145.491 44.663 142.735 L 39.299 126.061 C 38.391 123.241 39.507 120.163 42.011 118.578 L 60.103 107.13 C 63.138 105.212 67.152 106.114 69.071 109.148 C 70.99 112.182 70.088 116.197 67.054 118.117 L 53.216 126.873 L 57.038 138.756 C 58.138 142.173 56.259 145.834 52.841 146.934 C 52.179 147.145 51.508 147.247 50.849 147.247 L 50.849 147.247 Z "/>
    <path id="ID0.4675603983923793_1_" fill="#FAA51D" stroke="#231F20" stroke-width="1.2" d="M 94.254 16.603 C 91.422 16.34 85.519 16.022 82.268 16.178 C 73.574 16.592 65.306 19.723 65.306 19.723 L 41.367 4.1 L 45.476 38.868 C 46.664 37.429 26.066 62.413 39.079 83.414 C 52.1 104.426 79.965 113.789 114.453 106.937 C 148.943 100.08 157.17 80.215 154.885 69.707 C 152.6 59.199 139.581 55.32 139.581 55.32 C 139.581 55.32 139.416 47.082 133.461 36.986 C 129.919 30.976 118.109 22.199 118.109 22.199 L 112.851 0.956 L 99.148 14.204 L 94.254 16.603 L 94.254 16.603 Z "/>
    <path id="ID0.876089540310204_1_" fill="#FFFFFF" d="M 137.857 55.055 L 133.293 51.26 L 116.531 56.153 C 116.531 56.153 116.531 62.441 108.501 64.183 C 100.465 65.933 87.885 59.996 87.885 59.996 L 73.569 66.28 C 73.569 66.28 58.053 67.985 57.499 77.462 C 56.261 98.524 82.103 107.304 91.895 107.863 C 97.238 108.171 107.039 107.241 114.472 105.764 C 147.117 99.817 155.941 80.168 153.66 69.657 C 151.376 59.149 138.988 56.425 138.988 56.425 L 137.857 55.055 L 137.857 55.055 Z " stroke-width="1"/>
    <path id="ID0.44282719027251005_1_" fill="none" stroke="#231F20" stroke-width="1.2" d="M 16.953 75.447 C 16.953 75.447 24.506 76.135 27.939 75.94 C 31.369 75.744 38.039 74.861 38.039 74.861 "/>
    <path id="ID0.893105489667505_1_" fill="none" stroke="#231F20" stroke-width="1.2" d="M 147.486 65.363 C 147.486 65.363 155.851 63.996 160.099 62.513 C 165.091 60.782 168.453 57.833 168.453 57.833 "/>
    <path id="ID0.03574043000116944_1_" fill="none" stroke="#231F20" stroke-width="1.2" d="M 38.402 67.639 C 38.402 67.639 34.018 64.37 27.154 61.331 C 19.551 57.964 15.376 57.096 15.376 57.096 "/>
    <path id="ID0.6674723788164556_1_" fill="none" stroke="#231F20" stroke-width="1.2" d="M 148.333 76.306 C 148.333 76.306 153.347 78.335 158.508 78.853 C 163.603 79.361 167.052 79.055 167.052 79.055 "/>
    <path id="ID0.12165586883202195_1_" fill="none" stroke="#000000" stroke-linecap="round" d="M 93.594 16.706 C 98.816 17.993 100.741 19.407 100.741 19.407 " stroke-width="1"/>
    <path id="ID0.178104005753994_1_" fill="none" stroke="#000000" d="M 59.662 15.735 L 70.803 23.749 " stroke-width="1"/>
    <path id="ID0.7735752793960273_1_" fill="#FFFFFF" stroke="#231F20" d="M 129.435 37.217 C 134.812 45.453 135.012 54.855 129.88 58.208 C 124.743 61.564 116.224 57.599 110.839 49.357 C 105.445 41.119 105.255 31.724 110.391 28.366 C 115.523 25.014 124.052 28.975 129.435 37.217 L 129.435 37.217 Z " stroke-width="1"/>
    <path id="ID0.19106501014903188_1_" fill="#231F20" d="M 128.054 50.378 C 128.054 52.363 126.579 53.975 124.743 53.975 C 122.917 53.975 121.428 52.363 121.428 50.378 C 121.428 48.392 122.917 46.776 124.743 46.776 C 126.58 46.776 128.054 48.391 128.054 50.378 " stroke-width="1"/>
    <path id="ID0.06283409334719181_1_" fill="#FFFFFF" stroke="#231F20" d="M 85.35 43.2 C 90.731 51.438 90.165 61.336 84.097 65.295 C 78.025 69.266 68.741 65.795 63.362 57.557 C 57.978 49.319 58.537 39.425 64.609 35.458 C 70.683 31.493 79.964 34.958 85.35 43.2 L 85.35 43.2 Z " stroke-width="1"/>
    <path id="ID0.716460831463337_1_" fill="#231F20" d="M 82.062 54.027 C 82.062 56.015 80.585 57.627 78.749 57.627 C 76.925 57.627 75.435 56.012 75.435 54.027 C 75.435 52.042 76.925 50.428 78.749 50.428 C 80.582 50.428 82.062 52.042 82.062 54.027 " stroke-width="1"/>
    <path id="ID0.5430324394255877_1_" fill="#5E4A42" stroke="#000000" d="M 107.232 60.314 C 110.641 60.314 115.608 59.793 115.869 61.361 C 116.133 62.933 112.726 69.09 110.375 69.351 C 108.016 69.613 99.111 65.024 98.982 62.144 C 98.846 59.265 104.085 60.314 107.232 60.314 L 107.232 60.314 Z " stroke-width="1"/>
    <path id="ID0.5547774969600141_1_" fill="none" stroke="#231F20" stroke-width="1.2" d="M 83.34 73.756 C 83.34 73.756 102.367 79.372 109.484 80.922 C 116.597 82.471 129.439 84.02 129.439 84.02 C 129.439 84.02 114.746 102.86 97.574 98.077 C 80.402 93.3 80.712 82.472 83.34 73.756 L 83.34 73.756 Z "/>
    <path id="ID0.24181034788489342" fill="#FAA51D" stroke="#000000" stroke-width="1.2" d="M 88.996 173.504 C 88.995 173.504 88.995 173.504 88.994 173.504 L 67.939 173.499 C 64.847 173.498 62.071 171.6 60.951 168.717 C 59.83 165.835 60.594 162.56 62.873 160.471 L 78.013 146.593 L 74.113 141.769 C 71.509 138.547 72.009 133.826 75.23 131.221 C 78.449 128.617 83.173 129.116 85.777 132.337 L 94.11 142.643 C 96.6 145.724 96.266 150.21 93.345 152.887 L 87.217 158.504 L 88.997 158.504 C 93.139 158.505 96.496 161.863 96.495 166.006 C 96.495 170.147 93.137 173.504 88.996 173.504 L 88.996 173.504 Z "/>
    <path id="ID0.7152078151702881_1_" fill="#FAA51D" stroke="#000000" d="M 36.731 131.025 C 32.452 129.574 27.418 127.257 23.552 122.629 C 14.908 112.273 13.849 97.085 6.289 99.878 C -1.276 102.673 -4.553 126.497 16.485 136.996 C 23.735 140.621 30.679 141.626 36.332 142.28 C 37.814 142.445 50.55 143.102 55.742 137.494 C 60.932 131.885 58.166 129.905 56.817 128.834 C 55.466 127.764 42.783 133.077 36.731 131.025 L 36.731 131.025 Z " stroke-width="1"/>
    <path id="ID0.4691764716990292_1_" fill="#FFFFFF" d="M 7.25 100.489 C 3.468 101.087 0.347 108.785 1.256 115.39 C 2.163 122.003 4.74 125.22 6.619 128.045 C 9.13 130.333 5.935 123.485 10.181 120.846 C 14.412 118.213 20.854 120.678 20.854 120.678 C 20.854 120.678 16.6 112.661 14.205 107.843 C 11.946 103.227 11.246 100.13 7.25 100.489 L 7.25 100.489 Z " stroke-width="1"/>
    <path id="ID0.26425604708492756_1_" fill="#FAA51D" stroke="#231F20" stroke-width="1.2" d="M 82.612 141.386 C 84.797 139.708 87.02 136.968 89.879 132.718 C 92.262 129.175 94.844 122.461 94.844 122.461 C 96.452 117.825 98.401 110.368 91.346 109.044 C 88.491 108.509 83.845 108.864 77.242 107.617 C 70.635 106.364 64.741 102.979 59.741 111.723 C 54.743 120.471 42.105 126.932 57.799 142.181 L 82.612 141.386 Z "/>
    <path id="ID0.7182223838753998" fill="#FAA51D" stroke="#000000" stroke-width="1.2" d="M 54.279 168.837 C 52.279 168.837 50.283 168.042 48.807 166.468 L 41.461 158.635 C 41.303 158.466 41.153 158.29 41.011 158.109 L 36.345 152.109 C 34.447 149.668 34.241 146.312 35.827 143.658 C 37.414 141.004 40.47 139.595 43.515 140.109 L 54.913 142.035 L 53.641 140.628 C 50.862 137.556 51.1 132.814 54.172 130.034 C 57.244 127.256 61.987 127.494 64.765 130.565 L 80.534 147.998 C 82.677 150.367 83.084 153.833 81.549 156.634 C 80.014 159.435 76.873 160.956 73.723 160.425 L 61.138 158.299 C 62.393 161.133 61.798 164.569 59.409 166.809 C 57.961 168.165 56.118 168.837 54.279 168.837 L 54.279 168.837 Z "/>
    <path id="ID0.203311821911484_1_" fill="#FFFFFF" d="M 90.887 129.29 C 90.887 129.29 95.429 124.398 86.347 119.512 C 77.265 114.626 73.082 119.481 70.277 122.309 C 65.415 127.192 76.608 134.467 76.608 134.467 L 82.449 140.359 C 82.449 140.359 85.644 137.331 87.045 134.881 C 88.65 132.648 90.887 129.29 90.887 129.29 " stroke-width="1"/>
    <path id="ID0.8497806671075523" fill="#FAA51D" d="M 66.1251 128.2366 C 68.0544 130.1355 69.132 132.5377 69.3139 134.8846 C 69.4952 137.2323 68.7821 139.5235 67.1301 141.2019 C 65.4781 142.8803 63.1985 143.6295 60.8482 143.4855 C 58.4987 143.3408 56.0798 142.3013 54.1505 140.4024 C 52.2212 138.5034 51.1436 136.1013 50.9617 133.7543 C 50.7804 131.4066 51.4935 129.1155 53.1455 127.4371 C 54.7975 125.7587 57.0771 125.0094 59.4274 125.1534 C 61.7769 125.2982 64.1958 126.3376 66.1251 128.2366 Z " stroke-width="1.0000217754203118"/>
    <path id="ID0.09832995757460594" fill="#FAA51D" stroke="#000000" stroke-width="1.2" d="M 103.29 141.943 C 103.249 141.943 103.208 141.943 103.167 141.942 L 80.939 141.532 C 78.01 141.478 75.48 139.471 74.759 136.633 L 69.749 116.897 C 68.866 113.418 70.971 109.88 74.45 108.998 C 77.929 108.112 81.466 110.22 82.349 113.698 L 86.139 128.627 L 103.407 128.945 C 106.997 129.011 109.852 131.974 109.786 135.564 C 109.721 139.111 106.823 141.943 103.29 141.943 L 103.29 141.943 Z "/>
  </g>
</svg>