<svg version="1.1" xmlns="http://www.w3.org/2000/svg" xmlns:xlink="http://www.w3.org/1999/xlink" width="575.62277" height="371.07886" viewBox="0,0,575.62277,371.07886"><defs><linearGradient x1="249.77837" y1="-29.77657" x2="249.77837" y2="337.25966" gradientUnits="userSpaceOnUse" id="color-1"><stop offset="0" stop-color="#0c556e"/><stop offset="1" stop-color="#002734"/></linearGradient><linearGradient x1="222.76996" y1="-28.13011" x2="222.76996" y2="53.35044" gradientUnits="userSpaceOnUse" id="color-2"><stop offset="0" stop-color="#0c556e"/><stop offset="1" stop-color="#002734"/></linearGradient><linearGradient x1="56.41315" y1="222.89726" x2="56.41315" y2="261.09282" gradientUnits="userSpaceOnUse" id="color-3"><stop offset="0" stop-color="#000000"/><stop offset="1" stop-color="#00ff14"/></linearGradient><linearGradient x1="58.69756" y1="231.09752" x2="42.73321" y2="245.20637" gradientUnits="userSpaceOnUse" id="color-4"><stop offset="0" stop-color="#ffffff"/><stop offset="1" stop-color="#ffffff" stop-opacity="0"/></linearGradient><linearGradient x1="42.04527" y1="244.78099" x2="57.10143" y2="256.947" gradientUnits="userSpaceOnUse" id="color-5"><stop offset="0" stop-color="#ffffff"/><stop offset="1" stop-color="#ffffff" stop-opacity="0"/></linearGradient><linearGradient x1="88.00959" y1="174.08801" x2="88.00959" y2="249.22815" gradientUnits="userSpaceOnUse" id="color-6"><stop offset="0" stop-color="#000000"/><stop offset="1" stop-color="#00ff14"/></linearGradient><linearGradient x1="58.93536" y1="182.08786" x2="85.56895" y2="223.79624" gradientUnits="userSpaceOnUse" id="color-7"><stop offset="0" stop-color="#ffffff"/><stop offset="1" stop-color="#ffffff" stop-opacity="0"/></linearGradient><linearGradient x1="89.85026" y1="237.16702" x2="113.24634" y2="178.28917" gradientUnits="userSpaceOnUse" id="color-8"><stop offset="0" stop-color="#ffffff" stop-opacity="0"/><stop offset="1" stop-color="#ffffff"/></linearGradient><linearGradient x1="253.98941" y1="257.70887" x2="253.98941" y2="341.30233" gradientUnits="userSpaceOnUse" id="color-9"><stop offset="0" stop-color="#0c556e"/><stop offset="1" stop-color="#002734"/></linearGradient><linearGradient x1="302.66653" y1="294.73807" x2="302.66653" y2="325.21176" gradientUnits="userSpaceOnUse" id="color-10"><stop offset="0" stop-color="#1490ba"/><stop offset="1" stop-color="#005673"/></linearGradient><linearGradient x1="123.15336" y1="288.11015" x2="123.15336" y2="331.52313" gradientUnits="userSpaceOnUse" id="color-11"><stop offset="0" stop-color="#015875"/><stop offset="1" stop-color="#148db7"/></linearGradient><linearGradient x1="409.40238" y1="117.57885" x2="409.40238" y2="160.64538" gradientUnits="userSpaceOnUse" id="color-12"><stop offset="0" stop-color="#000000"/><stop offset="1" stop-color="#00fcd8"/></linearGradient><linearGradient x1="406.82664" y1="126.82487" x2="424.82688" y2="142.73297" gradientUnits="userSpaceOnUse" id="color-13"><stop offset="0" stop-color="#ffffff"/><stop offset="1" stop-color="#ffffff" stop-opacity="0"/></linearGradient><linearGradient x1="425.60255" y1="142.25335" x2="408.62632" y2="155.97085" gradientUnits="userSpaceOnUse" id="color-14"><stop offset="0" stop-color="#ffffff"/><stop offset="1" stop-color="#ffffff" stop-opacity="0"/></linearGradient><linearGradient x1="373.77652" y1="62.54509" x2="373.77652" y2="147.26765" gradientUnits="userSpaceOnUse" id="color-15"><stop offset="0" stop-color="#000000"/><stop offset="1" stop-color="#00ffdb"/></linearGradient><linearGradient x1="406.55851" y1="71.56514" x2="376.52841" y2="118.59246" gradientUnits="userSpaceOnUse" id="color-16"><stop offset="0" stop-color="#ffffff"/><stop offset="1" stop-color="#ffffff" stop-opacity="0"/></linearGradient><linearGradient x1="371.70112" y1="133.66839" x2="345.3214" y2="67.282" gradientUnits="userSpaceOnUse" id="color-17"><stop offset="0" stop-color="#ffffff" stop-opacity="0"/><stop offset="1" stop-color="#ffffff"/></linearGradient></defs><g transform="translate(31.01204,29.77653)"><g data-paper-data="{&quot;isPaintingLayer&quot;:true}" fill-rule="nonzero" stroke-linejoin="miter" stroke-miterlimit="10" stroke-dasharray="" stroke-dashoffset="0" style="mix-blend-mode: normal"><path d="" fill="#000000" stroke="none" stroke-width="0" stroke-linecap="butt"/><path d="" fill="#929292" stroke="none" stroke-width="0" stroke-linecap="butt"/><path d="" fill="#ffffff" stroke="none" stroke-width="0" stroke-linecap="butt"/><path d="M483.55042,324.04817c-46.65866,20.72911 -166.18349,7.97278 -227.66592,7.97278c-52.01397,0 -211.48561,13.10186 -253.52632,-2.1342c-36.72473,-13.30948 -32.84105,-139.71066 -32.84105,-177.86852c0,-56.08485 -9.72855,-127.99743 54.24059,-161.00952c49.41874,-25.50321 163.19632,-18.99311 232.12689,-18.99311c74.12456,0 199.426,-10.35004 250.27849,18.69582c57.6493,32.92805 50.75272,300.74272 -22.61269,333.33685z" fill="url(#color-1)" stroke="none" stroke-width="2" stroke-linecap="butt"/><path d="M426.1073,50.41756c-40.5842,4.60178 -144.54812,1.76993 -198.0262,1.76993c-45.24229,0 -183.95237,2.90856 -220.51983,-0.47379c-31.94355,-2.95464 -28.56546,-31.0152 -28.56546,-39.48608c0,-12.4506 -8.46198,-28.41491 47.17903,-35.74346c42.98493,-5.66159 141.94985,-4.2164 201.90638,-4.2164c64.47432,0 173.4628,-2.29767 217.69484,4.1504c50.14396,7.3099 44.14524,66.76365 -19.66875,73.99942z" fill="url(#color-2)" stroke="none" stroke-width="2" stroke-linecap="butt"/><g stroke="none" stroke-linecap="butt"><path d="M49.39117,238.49906c-0.04726,0.00971 -0.09829,0.01603 -0.15339,0.01836c-0.16811,-0.32113 -0.40857,-0.63901 -0.75248,-0.89139c-0.02343,-0.32421 -0.05327,-0.64717 -0.09021,-0.96882c-0.00574,-0.29402 -0.04745,-0.55537 -0.10781,-0.80326c-0.02801,-0.18161 -0.05849,-0.36278 -0.09158,-0.5435c-0.07343,-0.40114 -0.25106,-0.77573 -0.40429,-1.15642c-0.0073,-0.03718 -0.01424,-0.07487 -0.0208,-0.11312c-0.08366,-0.48781 -0.15029,-0.98002 -0.23785,-1.46937c0.02582,-0.50383 0.08325,-1.01057 -0.06744,-1.48345c-0.24307,-0.76281 -0.72971,-1.54592 -1.28688,-2.26711c0.01481,-0.16681 0.03184,-0.33452 0.00435,-0.49624c-0.08543,-0.50255 -0.22887,-1.01037 -0.36081,-1.51848c1.55441,-0.12993 3.11586,-0.18277 4.65808,-0.3618c0.50228,0.9848 1.76385,2.30139 2.49756,3.04593c0.2161,0.21929 1.35043,1.11783 1.44954,1.3294c1.431,3.05485 4.25111,5.51267 7.4133,6.74175l0.9527,0.31757c0,0 0.4975,0.16583 1.15554,0.16056c0.0854,0.08187 0.17037,0.16381 0.25486,0.24582c0.25979,0.59758 0.54679,1.17332 0.86943,1.78695c0.25126,0.47788 0.26656,1.10156 0.64659,1.48507c0.72643,0.73306 1.62211,1.30802 2.55615,1.74692c0.41258,0.19387 0.91411,0.02337 1.36426,0.09526c0.66111,0.10557 1.24685,0.51458 1.90539,0.63513c0.0779,0.01426 0.15678,0.02688 0.23647,0.0382c0.66722,0.23879 1.22291,0.57512 0.68812,1.89444c-0.24419,0.60241 -1.08453,0.71853 -1.64869,1.04141c-0.83884,0.48009 -1.42882,0.7434 -2.32694,0.99577c-0.21005,0.05903 -0.49594,-0.03598 -0.64237,0.12577c-0.18656,0.20608 -0.05778,0.57203 -0.2036,0.8087c-0.40256,0.65335 -0.82748,0.83632 -1.34421,1.17044h-0.28383c-1.50788,0 -2.77029,1.05093 -3.09475,2.46029c-0.28899,0.14662 -0.59697,0.26173 -0.88694,0.40671c-0.17711,0.18188 -1.15137,1.19098 -1.27026,1.27026c-2.36733,1.57865 -5.51522,1.83648 -8.09951,2.9475c-0.70165,0.30165 -1.45068,0.50803 -2.10939,0.89456c-0.73917,0.43375 -1.15804,1.45478 -1.90539,1.90539c-0.68662,0.41399 -2.34805,0.95394 -3.1483,1.06101c-1.30193,0.17421 -2.3334,-0.31117 -3.60663,-0.36775c-0.30304,-0.27403 -1.64122,-1.40856 -1.73911,-1.82133c-0.09991,-0.4213 0.24722,-0.83337 0.30658,-1.26227c0.09881,-0.71391 0.07359,-1.47853 0.38804,-2.12702c0.31494,-0.6495 1.00602,-1.09839 1.2236,-1.78664c0.03382,-0.10699 0.03074,-0.21985 0.01721,-0.33432c0.55624,-0.59532 1.12057,-1.19438 1.54929,-1.86585c0.19743,-0.30922 0.2654,-0.69047 0.4689,-0.99572c0.1904,-0.28561 0.52088,-0.46277 0.69903,-0.75617c0.15974,-0.26308 0.13363,-0.61203 0.29198,-0.87595c0.14163,-0.23605 0.44928,-0.34388 0.58396,-0.58396c0.30117,-0.53684 0.23643,-1.24383 0.58396,-1.75189c0.08418,-0.12307 0.27467,-0.14439 0.35824,-0.26787c0.07816,-0.1155 -0.01312,-0.32275 0.09826,-0.40668c0.34349,-0.25885 0.8908,-0.21912 1.16826,-0.54776c0.81016,-0.95958 1.17995,-2.56506 1.58131,-3.76914l0.14984,-1.5073c0,0 0,-0.58092 -0.25911,-1.22452c0.01627,-0.10637 0.02282,-0.20714 0.0218,-0.30406z" fill="url(#color-3)" stroke-width="0"/><path d="M61.79024,251.99156c-0.58126,0.5137 -1.13418,0.29727 -1.64769,0.44244c-0.66847,0.18899 -1.28398,0.64761 -1.94987,0.61674c-1.22228,-0.05666 -2.55494,-0.14516 -4.81652,-1.41345c-2.18201,-1.22367 -3.65975,-3.87664 -5.39371,-6.43842c0.7515,-0.96851 1.10917,-2.50286 1.4962,-3.66395l0.14984,-1.5073c0,0 0,-1.56266 -1.1432,-2.40161c-0.05632,-0.77937 -0.14973,-1.5515 -0.2896,-2.31558c-0.12055,-0.65854 -0.52193,-1.24554 -0.63513,-1.90539c-0.1307,-0.76184 0.13943,-1.58047 -0.09525,-2.31696c-0.30677,-0.96269 -1.00146,-1.95772 -1.7363,-2.81982c-0.22924,-0.4498 -0.5443,-0.89752 -0.98897,-1.35639c0.02462,-0.00283 0.04925,-0.00562 0.07389,-0.00837c1.88563,-0.21023 3.7901,-0.24129 5.66611,-0.45905c0.50228,0.9848 1.76385,2.30139 2.49756,3.04593c0.2161,0.21929 1.35043,1.11783 1.44954,1.3294c1.431,3.05485 4.25111,5.51267 7.4133,6.74175l0.9527,0.31757c0,0 0.02566,0.00856 0.07304,0.02171c2.569,5.83419 2.4825,11.34509 -0.69289,14.1514z" data-paper-data="{&quot;index&quot;:null}" fill="url(#color-4)" stroke-width="0"/><path d="M57.10143,256.947c-3.34883,4.14438 -9.43404,4.78061 -13.59169,1.42106c-0.96642,-0.78091 -2.07651,-1.6882 -2.98923,-2.6842c0.03599,-0.2447 0.07092,-0.48867 0.20441,-0.69c0.80848,-1.2193 2.10756,-2.2316 2.91982,-3.50379c0.19743,-0.30922 0.2654,-0.69047 0.4689,-0.99572c0.1904,-0.28561 0.52088,-0.46277 0.69903,-0.75617c0.15974,-0.26308 0.13363,-0.61203 0.29198,-0.87595c0.14163,-0.23605 0.44928,-0.34388 0.58396,-0.58396c0.30117,-0.53684 0.23643,-1.24383 0.58396,-1.75189c0.08418,-0.12307 0.27467,-0.14439 0.35824,-0.26787c0.07816,-0.1155 -0.01312,-0.32275 0.09826,-0.40668c0.34349,-0.25885 0.8908,-0.21912 1.16826,-0.54776c0.81016,-0.95958 1.17995,-2.56506 1.58131,-3.76914l0.14984,-1.5073c0,0 0,-0.18802 -0.04771,-0.46862c0.72088,0.01151 1.40389,0.2463 2.06284,0.6114c0.34296,0.4818 0.7725,1.02282 0.77704,1.03806c0.16198,0.54348 -0.00769,1.14932 0.14685,1.69496c0.2128,0.75137 0.71663,1.38952 1.01932,2.1094c0.09967,0.23703 0.05668,0.51288 0.04845,0.76989c-0.00476,0.14856 -0.25009,0.34028 -0.12921,0.42677l-0.19105,0.93334c-0.35171,1.71824 0.75607,3.39626 2.47431,3.74797c0.10315,0.02111 0.20615,0.03697 0.30873,0.04774c0.36507,0.84706 1.1817,1.93296 2.9584,1.83743c-0.29342,1.48187 -0.94044,2.91543 -1.95502,4.17104z" fill="url(#color-5)" stroke-width="0"/><path d="M135.05815,211.65809c0,20.74938 -21.06435,37.57007 -47.04856,37.57007c-25.9842,0 -47.04856,-16.82069 -47.04856,-37.57007c0,-20.74938 21.06435,-37.57007 47.04856,-37.57007c25.9842,0 47.04856,16.82069 47.04856,37.57007z" fill="url(#color-6)" stroke-width="0"/><path d="M107.99359,182.50636c0.96972,1.51859 0.27419,2.70955 0.42262,3.94011c0.19323,1.60193 1.02424,3.17931 0.71389,4.69622c-0.56967,2.7844 -1.25207,5.81064 -4.97591,10.54414c-4.50838,5.73075 -13.78235,8.10728 -21.61048,12.56515c-8.89064,5.06293 -12.08054,7.24314 -18.16644,9.5262c-2.28412,0.85686 -6.78355,4.80428 -9.52291,4.46072c-6.80992,-0.85409 -9.27786,-3.68052 -12.25057,-8.3358c-7.35466,-11.51745 -4.19089,-26.12836 16.33156,-37.81523c20.52246,-11.68686 41.98057,-11.95615 49.33523,-0.4387z" data-paper-data="{&quot;index&quot;:null}" fill="url(#color-7)" stroke-width="0"/><path d="M72.20327,196.06737c6.46065,-16.25867 24.83625,-24.21824 41.04306,-17.7782c16.20681,6.44004 24.10763,24.84098 17.64699,41.09965c-2.98688,7.51669 -6.98416,17.29552 -13.67272,20.6617c-7.77886,3.91491 -17.92315,-1.98409 -26.63725,-5.44678c-8.2953,-3.29627 -20.86204,-7.14981 -23.99333,-14.822c-2.98642,-7.31723 2.45942,-15.77754 5.61324,-23.71437z" data-paper-data="{&quot;index&quot;:null}" fill="url(#color-8)" stroke-width="0"/><text transform="matrix(1.03786 0 0 1.03786 64.12825 202.95341000000002)" font-size="40"  fill="#ffffff" fill-rule="nonzero" stroke="none" stroke-width="1" stroke-linecap="butt" stroke-linejoin="miter" stroke-miterlimit="10" stroke-dasharray="" stroke-dashoffset="0" font-family="Helvetica" font-weight="normal" text-anchor="start" style="mix-blend-mode: normal" >Hi</text></g><path d="M412.69934,338.29338c-31.67699,4.72111 -112.82346,1.81582 -154.56444,1.81582c-35.31275,0 -143.57947,2.98398 -172.12128,-0.48607c-24.93275,-3.03127 -22.29607,-31.81947 -22.29607,-40.51002c0,-12.77347 -6.60479,-29.15175 36.82442,-36.67034c33.55082,-5.80842 110.79544,-4.32573 157.59302,-4.32573c50.32383,0 135.39209,-2.35725 169.91631,4.25802c39.13863,7.49945 34.45647,68.49494 -15.35196,75.91834z" fill="url(#color-9)" stroke="none" stroke-width="2" stroke-linecap="butt"/><path d="M413.89897,324.11486c-22.20094,1.72107 -79.07275,0.66195 -108.32706,0.66195c-24.74908,0 -100.62821,1.0878 -120.63184,-0.17719c-14.50252,-0.91712 -15.62628,-11.19641 -15.62628,-14.76778c0,-4.65653 -4.62899,-10.62717 25.80853,-13.36804c23.51422,-2.11744 77.65139,-1.57693 110.44965,-1.57693c35.26965,0 94.89005,-0.85932 119.08648,1.55224c27.43046,2.7339 24.14894,24.96958 -10.75948,27.67576z" fill="url(#color-10)" stroke="none" stroke-width="2" stroke-linecap="butt"/><path d="M150.81335,309.81665c0,11.98816 -12.3838,21.7065 -27.65999,21.7065c-15.27619,0 -27.65998,-9.71834 -27.65998,-21.7065c0,-11.98816 12.38379,-21.7065 27.65998,-21.7065c15.27619,0 27.65999,9.71834 27.65999,21.7065z" fill="url(#color-11)" stroke="none" stroke-width="10" stroke-linecap="butt"/><g fill="none" stroke="#ffffff" stroke-width="5" stroke-linecap="round"><path d="M135.53849,310.81494l-28.11938,-1.22258"/><path d="M117.60938,303.99768l21.74806,6.08946l-20.38881,10.43907"/></g><g stroke="none" stroke-linecap="butt"><g stroke-width="0"><path d="M417.31984,135.1703c-0.00115,0.10928 0.00623,0.22289 0.02458,0.34283c-0.29216,0.72568 -0.29216,1.38068 -0.29216,1.38068l0.16894,1.69952c0.45255,1.35763 0.86949,3.16786 1.78297,4.24981c0.31285,0.37054 0.92996,0.32575 1.31724,0.61761c0.12558,0.09463 0.02266,0.32831 0.11079,0.45854c0.09422,0.13923 0.309,0.16327 0.40392,0.30203c0.39186,0.57285 0.31886,1.37 0.65844,1.97531c0.15187,0.2707 0.49874,0.39228 0.65844,0.65844c0.17854,0.29757 0.14911,0.69103 0.32922,0.98765c0.20088,0.33082 0.57349,0.53057 0.78818,0.85261c0.22945,0.34418 0.30609,0.77405 0.52869,1.1227c0.48339,0.7571 1.11969,1.43256 1.74686,2.1038c-0.01526,0.12907 -0.01873,0.25633 0.0194,0.37696c0.24532,0.77602 1.02454,1.28216 1.37964,2.01449c0.35455,0.73119 0.32611,1.59333 0.43753,2.39828c0.06693,0.4836 0.45833,0.94821 0.34567,1.42324c-0.11037,0.46542 -1.61921,1.74463 -1.9609,2.0536c-1.4356,0.06379 -2.59862,0.61107 -4.06658,0.41464c-0.9023,-0.12073 -2.77561,-0.72953 -3.54979,-1.19632c-0.84265,-0.50808 -1.31494,-1.65932 -2.14838,-2.14838c-0.74271,-0.43583 -1.58726,-0.66852 -2.37839,-1.00864c-2.91386,-1.25271 -6.46319,-1.54342 -9.13242,-3.32339c-0.13405,-0.08939 -1.23255,-1.22717 -1.43225,-1.43225c-0.32695,-0.16348 -0.67421,-0.29327 -1.00005,-0.45858c-0.36583,-1.58909 -1.78924,-2.77405 -3.48941,-2.77405h-0.32002c-0.58262,-0.37673 -1.06174,-0.58304 -1.51564,-1.3197c-0.16441,-0.26684 -0.01922,-0.67947 -0.22957,-0.91183c-0.16511,-0.18238 -0.48745,-0.07526 -0.72429,-0.14181c-1.01266,-0.28455 -1.67788,-0.58144 -2.62369,-1.12276c-0.6361,-0.36406 -1.58361,-0.49499 -1.85894,-1.17422c-0.60299,-1.48758 0.02356,-1.86679 0.77588,-2.13604c0.08986,-0.01276 0.1788,-0.02699 0.26663,-0.04307c0.74252,-0.13593 1.40296,-0.59709 2.14838,-0.71613c0.50757,-0.08105 1.07305,0.11119 1.53825,-0.1074c1.05316,-0.49487 2.06306,-1.14315 2.88213,-1.9697c0.4285,-0.43241 0.44575,-1.13563 0.72905,-1.67445c0.36378,-0.69189 0.68738,-1.34105 0.9803,-2.01483c0.09527,-0.09248 0.19108,-0.18486 0.28736,-0.27717c0.74197,0.00595 1.30291,-0.18103 1.30291,-0.18103l1.07419,-0.35806c3.56546,-1.38581 6.74521,-4.15708 8.3587,-7.6015c0.11175,-0.23855 1.39074,-1.25168 1.6344,-1.49894c0.82728,-0.83949 2.24973,-2.32398 2.81606,-3.43437c1.73889,0.20185 3.49947,0.26143 5.25211,0.40793c-0.14877,0.57292 -0.31051,1.14549 -0.40683,1.71213c-0.031,0.18234 -0.01179,0.37144 0.00491,0.55953c-0.62823,0.81317 -1.17693,1.69615 -1.451,2.55623c-0.1699,0.53318 -0.10515,1.10454 -0.07604,1.67263c-0.09873,0.55175 -0.17385,1.10673 -0.26819,1.65675c-0.0074,0.04312 -0.01523,0.08562 -0.02346,0.12754c-0.17276,0.42923 -0.37305,0.8516 -0.45585,1.30389c-0.0373,0.20377 -0.07167,0.40804 -0.10326,0.61281c-0.06806,0.2795 -0.11509,0.57419 -0.12156,0.9057c-0.04165,0.36267 -0.0753,0.72681 -0.10172,1.09237c-0.38777,0.28457 -0.65889,0.64299 -0.84844,1.00507c-0.06213,-0.00263 -0.11967,-0.00976 -0.17295,-0.0207z" data-paper-data="{&quot;index&quot;:null}" fill="url(#color-12)"/><path d="M402.90764,150.45188c-3.58034,-3.1642 -3.67787,-9.37789 -0.78125,-15.95609c0.05342,-0.01484 0.08235,-0.02448 0.08235,-0.02448l1.07419,-0.35806c3.56546,-1.38581 6.74521,-4.15708 8.3587,-7.6015c0.11175,-0.23855 1.39074,-1.25168 1.6344,-1.49894c0.82728,-0.83949 2.24973,-2.32398 2.81606,-3.43437c2.11525,0.24554 4.2626,0.28056 6.38869,0.5176c0.02778,0.0031 0.05556,0.00625 0.08332,0.00944c-0.50137,0.51739 -0.85661,1.0222 -1.11509,1.52937c-0.82855,0.97204 -1.61184,2.09396 -1.95773,3.17942c-0.26461,0.83041 0.03997,1.75344 -0.1074,2.61244c-0.12764,0.74399 -0.5802,1.40585 -0.71613,2.14838c-0.15771,0.86151 -0.26304,1.73212 -0.32654,2.61087c-1.28898,0.94593 -1.28898,2.70788 -1.28898,2.70788l0.16894,1.69952c0.43639,1.30916 0.83967,3.03918 1.68701,4.1312c-1.95509,2.88847 -3.62128,5.87977 -6.08156,7.25949c-2.55,1.43004 -4.0526,1.52982 -5.43076,1.59371c-0.7508,0.0348 -1.44481,-0.4823 -2.19853,-0.69539c-0.57899,-0.16369 -1.20243,0.08035 -1.85781,-0.49886z" data-paper-data="{&quot;index&quot;:null}" fill="url(#color-13)"/><path d="M408.62632,155.97085c-1.14397,-1.41573 -1.8735,-3.03212 -2.20434,-4.70296c2.00327,0.10772 2.92405,-1.11667 3.33568,-2.07175c0.11566,-0.01215 0.2318,-0.03003 0.3481,-0.05383c1.93736,-0.39656 3.18641,-2.28858 2.78985,-4.22594l-0.21541,-1.05237c0.13629,-0.09752 -0.14033,-0.31369 -0.14569,-0.4812c-0.00928,-0.28978 -0.05775,-0.60081 0.05463,-0.86807c0.34129,-0.81168 0.90938,-1.53121 1.14931,-2.3784c0.17424,-0.61522 -0.01706,-1.29832 0.16557,-1.91111c0.00512,-0.01718 0.48944,-0.6272 0.87614,-1.17044c0.74298,-0.41166 1.5131,-0.67639 2.3259,-0.68937c-0.05379,0.31639 -0.05379,0.52839 -0.05379,0.52839l0.16894,1.69952c0.45255,1.35763 0.86949,3.16786 1.78297,4.24981c0.31285,0.37054 0.92996,0.32575 1.31724,0.61761c0.12558,0.09463 0.02266,0.32831 0.11079,0.45854c0.09422,0.13923 0.309,0.16327 0.40392,0.30203c0.39186,0.57285 0.31886,1.37 0.65844,1.97531c0.15187,0.2707 0.49874,0.39228 0.65844,0.65844c0.17854,0.29757 0.14911,0.69103 0.32922,0.98765c0.20088,0.33082 0.57349,0.53057 0.78818,0.85261c0.22945,0.34418 0.30609,0.77405 0.52869,1.1227c0.91585,1.43443 2.3806,2.57582 3.29218,3.95062c0.15051,0.227 0.18989,0.50209 0.23048,0.77799c-1.02912,1.12302 -2.28077,2.14602 -3.37044,3.02651c-4.68786,3.78798 -11.54909,3.07062 -15.325,-1.60229z" data-paper-data="{&quot;index&quot;:null}" fill="url(#color-14)"/><path d="M373.77652,62.54509c29.2979,0 53.04853,18.96579 53.04853,42.36128c0,23.39549 -23.75064,42.36128 -53.04853,42.36128c-29.2979,0 -53.04853,-18.96579 -53.04853,-42.36128c0,-23.39549 23.75064,-42.36128 53.04853,-42.36128z" data-paper-data="{&quot;index&quot;:null}" fill="url(#color-15)"/><path d="M350.93169,71.07049c8.29258,-12.98624 32.48719,-12.68261 55.62682,0.49465c23.13963,13.17726 26.70687,29.65146 18.41428,42.6377c-3.35181,5.24896 -6.13448,8.43584 -13.81285,9.39884c-3.08871,0.38738 -8.16194,-4.06345 -10.73734,-5.02958c-6.86202,-2.57421 -10.45873,-5.03247 -20.48316,-10.74105c-8.82643,-5.02636 -19.28308,-7.70596 -24.3664,-14.16755c-4.19873,-5.33714 -4.96816,-8.74931 -5.61047,-11.8888c-0.34993,-1.71035 0.58707,-3.4889 0.80494,-5.29512c0.16736,-1.38749 -0.61687,-2.73033 0.47652,-4.44258z" data-paper-data="{&quot;index&quot;:null}" fill="url(#color-16)"/><path d="M391.59858,87.32741c3.55602,8.94898 9.69635,18.48822 6.32908,26.7386c-3.53062,8.65061 -17.69995,12.99557 -27.05313,16.71221c-9.82539,3.90428 -21.26334,10.55556 -30.03422,6.14139c-7.54153,-3.79547 -12.04857,-14.82136 -15.41636,-23.29663c-7.28456,-18.3321 1.62384,-39.07966 19.89746,-46.34098c18.27362,-7.26132 38.99262,1.71332 46.27717,20.04541z" data-paper-data="{&quot;index&quot;:null}" fill="url(#color-17)"/></g><text transform="matrix(0.89682 0 0 0.89682 353.01625 100.48863)" font-size="40"  fill="#ffffff" fill-rule="nonzero" stroke="none" stroke-width="1" stroke-linecap="butt" stroke-linejoin="miter" stroke-miterlimit="10" stroke-dasharray="" stroke-dashoffset="0" font-family="Helvetica" font-weight="normal" text-anchor="start" style="mix-blend-mode: normal" >Hi</text></g></g></g></svg>