<svg xmlns="http://www.w3.org/2000/svg" xmlns:xlink="http://www.w3.org/1999/xlink" version="1.1" width="18.79199981689453" height="30.75" viewBox="0.25 0 18.79199981689453 30.75">
  <defs>
    <linearGradient id="grad_1" x1="6.6001" y1="29.3447" x2="11.1837" y2="0.4052" gradientUnits="userSpaceOnUse">
      <stop offset="0" stop-color="#D68D00"/>
      <stop offset="0.5211" stop-color="#FFE600"/>
      <stop offset="0.7606" stop-color="#FFFFFF"/>
      <stop offset="1" stop-color="#FFE600"/>
    </linearGradient>
    <linearGradient id="grad_2" x1="6.3921" y1="9.6748" x2="16.7936" y2="20.0763" gradientUnits="userSpaceOnUse">
      <stop offset="0" stop-color="#A84D00"/>
      <stop offset="1" stop-color="#D1A600"/>
    </linearGradient>
  <linearGradient id="grad_1-,0,0,1,0.75,0.5" x1="7.3501" y1="29.8447" x2="11.9337" y2="0.9052" gradientUnits="userSpaceOnUse">
      <stop offset="0" stop-color="#D68D00"/>
      <stop offset="0.5211" stop-color="#FFE600"/>
      <stop offset="0.7606" stop-color="#FFFFFF"/>
      <stop offset="1" stop-color="#FFE600"/>
    </linearGradient><linearGradient id="grad_2-,0,0,1,0.75,0.5" x1="7.1421" y1="10.1748" x2="17.5436" y2="20.5763" gradientUnits="userSpaceOnUse">
      <stop offset="0" stop-color="#A84D00"/>
      <stop offset="1" stop-color="#D1A600"/>
    </linearGradient></defs>
  <!-- Exported by Scratch - http://scratch.mit.edu/ -->
  <g id="ID0.3723571766167879">
    <g id="ID0.49742065696045756">
      <path id="ID0.5974066238850355" fill="url(#grad_1-,0,0,1,0.75,0.5)" d="M 12.342 29.75 C 12.287 29.75 6.88 29.75 6.821 29.746 C 3.647 29.59 1.25 23.411 1.25 15.375 C 1.25 7.372 3.636 1.194 6.8 1.004 C 6.867 1 12.288 1 12.342 1 C 15.538 1 18.041 7.314 18.041 15.375 C 18.041 23.436 15.539 29.75 12.342 29.75 L 12.342 29.75 Z " stroke-width="1"/>
      <path id="ID0.624477387405932" fill="#B58015" d="M 12.342 1.5 C 15.213 1.5 17.541 7.712 17.541 15.375 C 17.541 23.038 15.213 29.25 12.342 29.25 C 12.309 29.25 6.884 29.249 6.851 29.247 C 4.024 29.107 1.75 22.95 1.75 15.375 C 1.75 7.817 4.014 1.672 6.83 1.503 C 6.87 1.501 12.303 1.5 12.342 1.5 M 12.342 0.5 C 12.287 0.5 6.864 0.5 6.781 0.504 C 2.818 0.742 0.75 8.165 0.75 15.375 C 0.75 22.439 2.871 30.052 6.802 30.246 C 6.857 30.249 9.846 30.25 12.343 30.25 C 16.369 30.25 18.542 22.586 18.542 15.375 C 18.542 8.164 16.369 0.5 12.342 0.5 L 12.342 0.5 Z " stroke-width="1"/>
    </g>
    <path id="ID0.8135916329920292" fill="url(#grad_2-,0,0,1,0.75,0.5)" d="M 12.342 5.638 C 13.349 5.638 14.262 6.729 14.922 8.492 C 15.583 10.254 15.992 12.689 15.992 15.375 C 15.992 18.061 15.583 20.496 14.922 22.258 C 14.262 24.021 13.349 25.112 12.342 25.112 C 11.335 25.112 10.422 24.021 9.762 22.258 C 9.101 20.496 8.692 18.061 8.692 15.375 C 8.692 12.689 9.101 10.254 9.762 8.492 C 10.422 6.729 11.335 5.638 12.342 5.638 Z " stroke-width="1"/>
    <path id="ID0.5330035206861794" fill="#B26600" d="M 10.843 6.609 C 11.749 6.609 12.571 7.591 13.165 9.178 C 13.76 10.765 14.128 12.957 14.128 15.375 C 14.128 17.793 13.76 19.985 13.165 21.572 C 12.571 23.159 11.749 24.141 10.843 24.141 C 9.937 24.141 9.115 23.159 8.521 21.572 C 7.926 19.985 7.558 17.793 7.558 15.375 C 7.558 12.957 7.926 10.765 8.521 9.178 C 9.115 7.591 9.937 6.609 10.843 6.609 Z " stroke-width="1"/>
    <path id="ID0.659500430803746" fill="#B27800" stroke="#9E5300" stroke-width="0.2" d="M 12.342 1.5 C 9.47 1.5 7.142 7.712 7.142 15.375 C 7.142 23.038 9.47 29.25 12.342 29.25 C 15.213 29.25 17.541 23.038 17.541 15.375 C 17.541 7.712 15.213 1.5 12.342 1.5 Z M 12.342 25.112 C 10.326 25.112 8.692 20.753 8.692 15.375 C 8.692 9.996 10.326 5.638 12.342 5.638 C 14.358 5.638 15.991 9.996 15.991 15.375 C 15.992 20.753 14.358 25.112 12.342 25.112 Z "/>
  </g>
</svg>