<svg version="1.1" xmlns="http://www.w3.org/2000/svg" xmlns:xlink="http://www.w3.org/1999/xlink" width="351.52174" height="248.09727" viewBox="0,0,351.52174,248.09727"><defs><linearGradient x1="-91.05553" y1="-19.61413" x2="-33.30553" y2="-19.61413" gradientUnits="userSpaceOnUse" id="color-1"><stop offset="0" stop-color="#ffffff" stop-opacity="0"/><stop offset="1" stop-color="#ffffff"/></linearGradient><linearGradient x1="134.31777" y1="110.01934" x2="134.31777" y2="207.45692" gradientUnits="userSpaceOnUse" id="color-2"><stop offset="0" stop-color="#ffffff"/><stop offset="1" stop-color="#ffffff" stop-opacity="0"/></linearGradient></defs><g transform="translate(91.05554,40.53804)"><g data-paper-data="{&quot;isPaintingLayer&quot;:true}" fill-rule="nonzero" stroke="none" stroke-linecap="butt" stroke-linejoin="miter" stroke-miterlimit="10" stroke-dasharray="" stroke-dashoffset="0" style="mix-blend-mode: normal"><path d="M-33.30553,-19.61413c0,11.55596 -12.92778,20.92391 -28.875,20.92391c-15.94722,0 -28.875,-9.36795 -28.875,-20.92391c0,-11.55596 12.92778,-20.92391 28.875,-20.92391c15.94722,0 28.875,9.36795 28.875,20.92391z" fill="url(#color-1)" stroke-width="0"/><g><path d="M244.83794,201.6876c-20.69986,13.22831 -126.21208,-0.3452 -126.21208,-0.3452c0,0 -110.47826,-24.00319 -110.47826,-39.33696c0,-14.77599 110.47826,-43.52174 110.47826,-43.52174c0,0 111.7206,-18.99589 141.44565,0c1.168,0.74641 0.46264,73.17319 -15.23357,83.2039z" data-paper-data="{&quot;index&quot;:null}" fill="#c39b35" stroke-width="NaN"/><text transform="matrix(1.86025 0 0 1.86025 66.0 137.79991)" font-size="40"  fill="#ffffff" fill-rule="nonzero" stroke="none" stroke-width="1" stroke-linecap="butt" stroke-linejoin="miter" stroke-miterlimit="10" stroke-dasharray="" stroke-dashoffset="0" font-family="Helvetica" font-weight="normal" text-anchor="start" style="mix-blend-mode: normal" >Back</text><path d="M258.76421,156.93495c-2.00571,19.34965 -250.59487,20.38252 -250.59487,5.04875c0,-14.77599 110.47826,-43.52174 110.47826,-43.52174c0,0 111.7206,-18.99589 141.44565,0c0.58753,0.37546 0.70104,18.88816 -1.32904,38.47299z" data-paper-data="{&quot;index&quot;:null}" fill="url(#color-2)" stroke-width="NaN"/></g></g></g></svg>