<svg xmlns="http://www.w3.org/2000/svg" xmlns:xlink="http://www.w3.org/1999/xlink" xmlns:a="http://ns.adobe.com/AdobeSVGViewerExtensions/3.0/" version="1.1" x="0px" y="0px" width="43.82699966430664" height="61.599998474121094" viewBox="0 0 43.82699966430664 61.599998474121094" enable-background="new -9.723 -1.251 64 64" xml:space="preserve">
  <defs/>
  <g>
    <path fill="#594419" d="M23.482,60.6c-4.02,0-7.531-0.725-10.436-2.151c-2.967-1.458-5.244-3.505-6.768-6.086&#13;&#10;&#9;C4.766,49.808,4,46.911,4,43.756c0-5.765,2.324-10.049,6.918-12.771C7.439,28.524,5.68,25.081,5.68,20.717&#13;&#10;&#9;c0-2.575,0.707-5.03,2.104-7.295c1.398-2.267,3.457-4.096,6.123-5.437C16.529,6.668,19.611,6,23.072,6&#13;&#10;&#9;c2.881,0,5.467,0.387,7.682,1.148c2.252,0.775,4.164,1.872,5.693,3.258c1.533,1.394,2.693,2.999,3.443,4.771&#13;&#10;&#9;c0.744,1.758,1.121,3.645,1.121,5.608c0,2.544-0.67,4.855-1.992,6.871c-0.813,1.238-1.873,2.343-3.17,3.298&#13;&#10;&#9;c0.975,0.581,1.85,1.239,2.613,1.971c1.439,1.373,2.539,2.989,3.271,4.804c0.727,1.793,1.094,3.799,1.094,5.959&#13;&#10;&#9;c0,3.154-0.777,6.064-2.314,8.646c-1.547,2.6-3.836,4.657-6.801,6.115C30.809,59.875,27.365,60.6,23.482,60.6L23.482,60.6z&#13;&#10;&#9; M23.209,36.223c-1.916,0-3.471,0.612-4.75,1.874c-1.275,1.256-1.893,3.017-1.893,5.386c0,1.505,0.309,2.835,0.92,3.954&#13;&#10;&#9;c0.607,1.111,1.404,1.943,2.438,2.542c1.045,0.606,2.186,0.9,3.49,0.9c1.324,0,2.473-0.297,3.516-0.911&#13;&#10;&#9;c1.031-0.609,1.824-1.449,2.422-2.568c0.604-1.133,0.91-2.474,0.91-3.986c0-1.504-0.301-2.815-0.898-3.896&#13;&#10;&#9;c-0.586-1.063-1.387-1.854-2.445-2.42C25.814,36.509,24.602,36.223,23.209,36.223L23.209,36.223z M23.277,15.72&#13;&#10;&#9;c-1.723,0-3.051,0.5-4.063,1.531c-1.021,1.038-1.518,2.362-1.518,4.048c0,1.507,0.502,2.719,1.533,3.705&#13;&#10;&#9;c1.053,1.01,2.398,1.498,4.115,1.498c0.871,0,1.664-0.136,2.355-0.406c0.689-0.268,1.258-0.623,1.736-1.087&#13;&#10;&#9;c0.477-0.457,0.832-0.986,1.094-1.62c0.26-0.639,0.393-1.365,0.393-2.158c0-1.08-0.229-2.015-0.703-2.854&#13;&#10;&#9;c-0.465-0.825-1.104-1.458-1.949-1.935C25.406,15.956,24.428,15.72,23.277,15.72L23.277,15.72z" stroke-width="1"/>
    <linearGradient id="SVGID_1_" gradientUnits="userSpaceOnUse" x1="20.4141" y1="1" x2="20.4141" y2="55.5996">
      <stop offset="0" style="stop-color:#FFFFFF"/>
      <stop offset="1" style="stop-color:#FFD38F"/>
    </linearGradient>
    <path fill="url(#SVGID_1_)" stroke="#594419" stroke-width="2" d="M20.482,55.6c-4.02,0-7.531-0.725-10.436-2.151&#13;&#10;&#9;c-2.967-1.458-5.244-3.505-6.768-6.086C1.766,44.808,1,41.911,1,38.756c0-5.765,2.324-10.049,6.918-12.771&#13;&#10;&#9;C4.439,23.524,2.68,20.081,2.68,15.717c0-2.575,0.707-5.03,2.104-7.295c1.398-2.267,3.457-4.096,6.123-5.437&#13;&#10;&#9;C13.529,1.668,16.611,1,20.072,1c2.881,0,5.467,0.387,7.682,1.148c2.252,0.775,4.164,1.872,5.693,3.258&#13;&#10;&#9;c1.533,1.394,2.693,2.999,3.443,4.771c0.744,1.758,1.121,3.645,1.121,5.608c0,2.544-0.67,4.855-1.992,6.871&#13;&#10;&#9;c-0.813,1.238-1.873,2.343-3.17,3.298c0.975,0.581,1.85,1.239,2.613,1.971c1.439,1.373,2.539,2.989,3.271,4.804&#13;&#10;&#9;c0.727,1.793,1.094,3.799,1.094,5.959c0,3.154-0.777,6.064-2.314,8.646c-1.547,2.6-3.836,4.657-6.801,6.115&#13;&#10;&#9;C27.809,54.875,24.365,55.6,20.482,55.6L20.482,55.6z M20.209,31.223c-1.916,0-3.471,0.612-4.75,1.874&#13;&#10;&#9;c-1.275,1.256-1.893,3.017-1.893,5.386c0,1.505,0.309,2.835,0.92,3.954c0.607,1.111,1.404,1.943,2.438,2.542&#13;&#10;&#9;c1.045,0.606,2.186,0.9,3.49,0.9c1.324,0,2.473-0.297,3.516-0.911c1.031-0.609,1.824-1.449,2.422-2.568&#13;&#10;&#9;c0.604-1.133,0.91-2.474,0.91-3.986c0-1.504-0.301-2.815-0.898-3.896c-0.586-1.063-1.387-1.854-2.445-2.42&#13;&#10;&#9;C22.814,31.509,21.602,31.223,20.209,31.223L20.209,31.223z M20.277,10.72c-1.723,0-3.051,0.5-4.063,1.531&#13;&#10;&#9;c-1.021,1.038-1.518,2.362-1.518,4.048c0,1.507,0.502,2.719,1.533,3.705c1.053,1.01,2.398,1.498,4.115,1.498&#13;&#10;&#9;c0.871,0,1.664-0.136,2.355-0.406c0.689-0.268,1.258-0.623,1.736-1.087c0.477-0.457,0.832-0.986,1.094-1.62&#13;&#10;&#9;c0.26-0.639,0.393-1.365,0.393-2.158c0-1.08-0.229-2.015-0.703-2.854c-0.465-0.825-1.104-1.458-1.949-1.935&#13;&#10;&#9;C22.406,10.956,21.428,10.72,20.277,10.72L20.277,10.72z"/>
  </g>
</svg>