<svg xmlns="http://www.w3.org/2000/svg" xmlns:xlink="http://www.w3.org/1999/xlink" xmlns:a="http://ns.adobe.com/AdobeSVGViewerExtensions/3.0/" version="1.1" x="0px" y="0px" width="44.03300476074219" height="61.53099822998047" viewBox="0 0 44.03300476074219 61.53099822998047" enable-background="new -9.606 -1.319 64 64" xml:space="preserve">
  <defs/>
  <g>
    <path fill="#594419" d="M22.008,60.531c-3.211,0-6.061-0.631-8.475-1.873c-2.42-1.248-4.303-2.841-5.59-4.734&#13;&#10;&#9;c-1.32-1.94-1.99-3.872-1.99-5.744c0-1.373,0.504-2.604,1.494-3.658c1.002-1.066,2.336-1.631,3.865-1.631&#13;&#10;&#9;c1.328,0,2.547,0.379,3.615,1.127c1.066,0.746,1.873,1.847,2.398,3.271c0.393,1.076,1.027,1.916,1.938,2.566&#13;&#10;&#9;c0.896,0.644,1.885,0.955,3.02,0.955c1.031,0,1.986-0.256,2.92-0.786c0.959-0.548,1.764-1.307,2.455-2.325&#13;&#10;&#9;c1.104-1.64,1.887-4.354,2.338-8.092c-0.783,0.575-1.6,1.068-2.445,1.479c-2.07,1.005-4.385,1.515-6.881,1.515&#13;&#10;&#9;c-2.363,0-4.607-0.468-6.664-1.392c-2.057-0.92-3.859-2.226-5.361-3.878c-1.49-1.642-2.652-3.581-3.449-5.767&#13;&#10;&#9;C4.402,29.401,4,27.101,4,24.729c0-2.541,0.453-4.989,1.342-7.278c0.898-2.305,2.203-4.337,3.879-6.041&#13;&#10;&#9;c1.676-1.698,3.693-3.04,5.996-3.988C17.514,6.479,20.074,6,22.832,6c3.166,0,6.045,0.592,8.555,1.759&#13;&#10;&#9;c2.531,1.181,4.689,2.912,6.414,5.15c1.697,2.2,3.012,4.986,3.908,8.282c0.879,3.234,1.324,6.926,1.324,10.977&#13;&#10;&#9;c0,4.506-0.465,8.549-1.391,12.014c-0.938,3.529-2.336,6.55-4.152,8.977c-1.855,2.477-4.115,4.349-6.719,5.562&#13;&#10;&#9;C28.193,59.922,25.242,60.531,22.008,60.531L22.008,60.531z M22.488,15.927c-1.682,0-3.084,0.721-4.287,2.205&#13;&#10;&#9;c-1.266,1.564-1.91,3.715-1.91,6.391c0,2.645,0.639,4.748,1.895,6.252c1.203,1.44,2.678,2.139,4.508,2.139&#13;&#10;&#9;c1.146,0,2.215-0.295,3.271-0.902c1.053-0.604,1.895-1.473,2.57-2.653c0.668-1.168,1.006-2.588,1.006-4.218&#13;&#10;&#9;c0-1.383-0.186-2.667-0.557-3.817c-0.363-1.124-0.873-2.104-1.514-2.907c-0.631-0.791-1.359-1.394-2.23-1.844&#13;&#10;&#9;C24.398,16.138,23.498,15.927,22.488,15.927L22.488,15.927z" stroke-width="1"/>
    <linearGradient id="SVGID_1_" gradientUnits="userSpaceOnUse" x1="20.5166" y1="1" x2="20.5166" y2="55.5313">
      <stop offset="0" style="stop-color:#FFFFFF"/>
      <stop offset="1" style="stop-color:#FFD38F"/>
    </linearGradient>
    <path fill="url(#SVGID_1_)" stroke="#594419" stroke-width="2" d="M19.008,55.531c-3.211,0-6.061-0.631-8.475-1.873&#13;&#10;&#9;c-2.42-1.248-4.303-2.841-5.59-4.734c-1.32-1.94-1.99-3.872-1.99-5.744c0-1.373,0.504-2.604,1.494-3.658&#13;&#10;&#9;c1.002-1.066,2.336-1.631,3.865-1.631c1.328,0,2.547,0.379,3.615,1.127c1.066,0.746,1.873,1.847,2.398,3.271&#13;&#10;&#9;c0.393,1.076,1.027,1.916,1.938,2.566c0.896,0.644,1.885,0.955,3.02,0.955c1.031,0,1.986-0.256,2.92-0.786&#13;&#10;&#9;c0.959-0.548,1.764-1.307,2.455-2.325c1.104-1.64,1.887-4.354,2.338-8.092c-0.783,0.575-1.6,1.068-2.445,1.479&#13;&#10;&#9;c-2.07,1.005-4.385,1.515-6.881,1.515c-2.363,0-4.607-0.468-6.664-1.392c-2.057-0.92-3.859-2.226-5.361-3.878&#13;&#10;&#9;c-1.49-1.642-2.652-3.581-3.449-5.767C1.402,24.401,1,22.101,1,19.729c0-2.541,0.453-4.989,1.342-7.278&#13;&#10;&#9;c0.898-2.305,2.203-4.337,3.879-6.041c1.676-1.698,3.693-3.04,5.996-3.988C14.514,1.479,17.074,1,19.832,1&#13;&#10;&#9;c3.166,0,6.045,0.592,8.555,1.759c2.531,1.181,4.689,2.912,6.414,5.15c1.697,2.2,3.012,4.986,3.908,8.282&#13;&#10;&#9;c0.879,3.234,1.324,6.926,1.324,10.977c0,4.506-0.465,8.549-1.391,12.014c-0.938,3.529-2.336,6.55-4.152,8.977&#13;&#10;&#9;c-1.855,2.477-4.115,4.349-6.719,5.562C25.193,54.922,22.242,55.531,19.008,55.531L19.008,55.531z M19.488,10.927&#13;&#10;&#9;c-1.682,0-3.084,0.721-4.287,2.205c-1.266,1.564-1.91,3.715-1.91,6.391c0,2.645,0.639,4.748,1.895,6.252&#13;&#10;&#9;c1.203,1.44,2.678,2.139,4.508,2.139c1.146,0,2.215-0.295,3.271-0.902c1.053-0.604,1.895-1.473,2.57-2.653&#13;&#10;&#9;c0.668-1.168,1.006-2.588,1.006-4.218c0-1.383-0.186-2.667-0.557-3.817c-0.363-1.124-0.873-2.104-1.514-2.907&#13;&#10;&#9;c-0.631-0.791-1.359-1.394-2.23-1.844C21.398,11.138,20.498,10.927,19.488,10.927L19.488,10.927z"/>
  </g>
</svg>