<svg version="1.1" width="699" height="419" viewBox="-1 -1 699 419" xmlns="http://www.w3.org/2000/svg" xmlns:xlink="http://www.w3.org/1999/xlink">
  <!-- Exported by Scratch - http://scratch.mit.edu/ -->
  <g id="ID0.565842077601701" transform="matrix(1, 0, 0, 1, -114, -15)">
    <g id="ID0.835071665700525">
      <path id="ID0.8329543825238943" fill="#00f3ff" stroke="none" stroke-width="0.5" d="" transform="matrix(1, 0, 0, 1, 103, 19.75)"/>
      <path id="ID0.013747482094913721" fill="#000000" stroke="none" stroke-width="0.5" d="M 348.024 -9.907 L 349.541 -10.317 L 350.578 -10.037 L 353.564 -10.188 L 355.188 -9.589 L 355.365 -9.589 L 356.195 -9.506 L 357.028 -9.534 L 367.949 -8.806 L 368.075 -8.785 L 368.204 -8.787 L 376.711 -8.133 L 383.760 -8.133 L 386.211 -7.888 L 388.663 -7.648 L 389.876 -7.405 L 403.982 -7.405 L 413.179 -8.062 L 431.275 -9.510 L 431.580 -9.503 L 431.882 -9.551 L 444.820 -10.269 L 465.768 -11.714 L 465.936 -11.709 L 466.101 -11.735 L 479.207 -12.463 L 479.901 -12.432 L 480.593 -12.501 L 483.061 -12.501 L 484.092 -13.561 L 484.902 -13.899 L 485.567 -14.473 L 488.584 -15.433 L 494.573 -17.928 L 496.821 -17.473 L 498.067 -17.598 L 499.523 -17.598 L 500.725 -17.478 L 504.219 -17.733 L 507.251 -15.991 L 512.023 -14.473 L 516.252 -10.821 L 517.201 -10.276 L 517.513 -9.731 L 520.617 -7.051 L 522.006 -1.911 L 524.659 2.706 L 524.359 6.796 L 524.523 7.402 L 524.238 8.458 L 523.830 14.031 L 521.529 18.479 L 520.617 21.855 L 518.018 24.100 L 517.797 24.526 L 517.358 24.888 L 517.201 25.080 L 515.745 26.536 L 512.706 29.022 L 511.704 29.540 L 510.844 30.248 L 510.671 30.939 L 510.195 32.266 L 510.176 32.388 L 509.750 33.507 L 509.358 34.597 L 509.341 34.705 L 509.389 35.010 L 509.234 35.623 L 509.234 35.797 L 509.127 36.861 L 522.511 35.211 L 560.141 25.479 L 560.145 25.476 L 560.168 25.472 L 563.158 24.698 L 567.038 24.099 L 567.440 24.121 L 571.309 23.402 L 573.758 24.468 L 576.043 24.594 L 586.221 29.628 L 589.710 35.764 L 593.881 41.459 L 594.308 52.806 L 593.488 54.943 L 593.459 57.613 L 591.219 60.849 L 591.075 61.225 L 590.695 61.811 L 589.900 64.203 L 588.956 65.268 L 588.269 66.727 L 585.422 69.255 L 583.919 70.952 L 580.763 73.288 L 542.904 95.858 L 541.951 96.305 L 541.055 96.857 L 515.280 109.420 L 516.787 110.762 L 519.582 121.768 L 519.118 124.725 L 519.593 127.689 L 518.103 130.892 L 516.787 134.346 L 516.126 135.669 L 512.460 146.665 L 509.962 155.160 L 509.962 158.113 L 509.768 160.047 L 509.784 160.292 L 509.658 161.153 L 509.571 162.019 L 509.497 162.253 L 509.234 164.051 L 509.234 179.634 L 509.710 182.972 L 509.785 184.743 L 509.962 186.507 L 509.962 195.244 L 509.756 197.296 L 509.621 199.354 L 509.234 201.682 L 509.234 213.446 L 509.057 215.210 L 508.982 216.982 L 508.505 220.319 L 508.505 239.657 L 508.300 241.709 L 508.165 243.767 L 507.437 248.135 L 507.176 249.100 L 507.031 250.088 L 506.172 253.523 L 506.128 253.968 L 506.143 254.213 L 506.017 255.074 L 505.931 255.940 L 505.856 256.174 L 505.593 257.972 L 505.593 261.906 L 505.651 262.314 L 505.808 262.724 L 506.095 264.559 L 506.659 266.329 L 507.049 270.236 L 507.049 270.640 L 507.205 271.633 L 507.167 271.784 L 507.437 273.406 L 507.572 275.464 L 507.777 277.516 L 507.777 292.078 L 507.532 294.529 L 507.292 296.981 L 507.049 298.194 L 507.049 327.753 L 506.936 328.882 L 506.947 330.017 L 506.321 336.896 L 506.321 357.049 L 506.477 357.663 L 506.321 358.656 L 506.321 359.060 L 505.931 362.967 L 505.367 364.737 L 505.228 365.627 L 505.203 365.879 L 505.174 365.968 L 505.080 366.572 L 504.488 368.125 L 502.468 374.473 L 502.099 374.900 L 501.687 376.426 L 498.124 379.503 L 495.046 383.066 L 493.520 383.479 L 493.093 383.848 L 484.499 386.582 L 481.508 386.881 L 480.535 387.128 L 479.542 386.973 L 479.137 386.973 L 475.231 386.582 L 474.170 386.244 L 472.455 386.244 L 471.663 386.487 L 468.022 387.215 L 465.571 387.456 L 463.120 387.701 L 460.246 387.701 L 443.528 389.707 L 443.073 389.716 L 442.625 389.798 L 434.911 390.441 L 422.817 392.457 L 421.535 392.541 L 420.267 392.748 L 409.391 393.428 L 404.334 394.060 L 402.780 394.099 L 401.234 394.253 L 392.497 394.253 L 390.562 394.060 L 390.318 394.075 L 389.456 393.949 L 388.590 393.863 L 388.357 393.788 L 386.433 393.507 L 382.073 392.417 L 373.467 391.341 L 334.657 391.341 L 328.197 391.928 L 323.008 392.577 L 319.819 393.032 L 316.365 394.019 L 313.668 394.506 L 313.403 394.591 L 312.950 394.636 L 312.501 394.717 L 312.223 394.709 L 309.497 394.981 L 291.180 394.981 L 288.852 395.369 L 287.828 395.436 L 286.818 395.623 L 278.081 396.351 L 277.041 396.334 L 276.005 396.437 L 273.193 396.437 L 269.131 396.945 L 264.251 397.642 L 262.480 397.717 L 260.716 397.894 L 230.137 397.894 L 228.373 397.717 L 226.601 397.642 L 223.264 397.166 L 209.023 397.166 L 207.782 397.041 L 206.535 397.041 L 200.495 396.437 L 195.189 396.437 L 193.949 396.313 L 192.702 396.313 L 185.627 395.606 L 177.096 394.895 L 175.691 394.635 L 174.269 394.496 L 173.056 394.253 L 171.891 394.253 L 169.440 394.008 L 166.988 393.768 L 164.028 393.176 L 151.185 391.341 L 150.049 391.341 L 148.115 391.148 L 147.870 391.163 L 147.009 391.037 L 146.143 390.950 L 145.909 390.876 L 143.986 390.595 L 141.073 389.866 L 140.169 389.542 L 139.231 389.330 L 136.628 388.462 L 129.271 387.481 L 129.026 387.423 L 128.774 387.410 L 120.373 386.118 L 110.526 385.461 L 110.175 385.402 L 109.819 385.404 L 95.712 384.060 L 83.067 384.060 L 82.473 384.001 L 81.877 384.032 L 73.658 383.641 L 60.861 384.664 L 38.115 387.508 L 37.870 387.514 L 37.631 387.563 L 24.258 388.971 L 14.811 390.321 L 7.346 391.565 L 5.402 392.051 L 3.478 392.332 L 3.245 392.407 L 2.379 392.493 L 1.517 392.619 L 1.273 392.604 L -0.662 392.797 L -2.118 392.797 L -6.024 392.407 L -7.058 392.078 L -7.483 392.051 L -8.064 391.757 L -14.618 389.672 L -15.045 389.303 L -16.571 388.891 L -19.648 385.328 L -23.211 382.250 L -23.624 380.724 L -23.993 380.297 L -26.727 371.703 L -27.118 367.797 L -27.118 343.355 L -27.759 335.654 L -27.742 334.613 L -27.846 333.578 L -27.846 332.623 L -29.212 331.501 L -29.821 330.740 L -33.404 327.645 L -33.970 325.554 L -34.845 324.459 L -36.802 317.403 L -51.398 319.689 L -52.508 319.751 L -53.604 319.935 L -62.336 320.517 L -62.799 320.684 L -63.886 320.620 L -64.525 320.663 L -68.449 320.533 L -69.400 320.299 L -74.134 320.022 L -75.851 318.710 L -77.205 318.376 L -86.274 311.542 L -88.782 304.231 L -91.722 297.082 L -89.417 285.963 L -88.620 284.819 L -88.196 282.700 L -84.821 279.368 L -84.261 278.565 L -82.787 277.181 L -85.795 276.191 L -87.022 275.110 L -88.510 274.430 L -91.394 271.258 L -92.561 270.229 L -93.613 268.817 L -96.148 266.028 L -96.342 264.687 L -97.818 262.227 L -98.899 261.437 L -100.172 257.897 L -100.949 256.249 L -101.305 254.746 L -102.741 250.752 L -102.643 249.092 L -103.026 247.473 L -102.300 243.291 L -102.208 241.749 L -101.727 239.991 L -101.083 236.286 L -100.155 235.321 L -98.451 230.891 L -98.422 230.551 L -98.055 229.862 L -97.530 228.498 L -95.763 224.992 L -94.861 223.865 L -94.182 222.591 L -91.660 219.583 L -90.614 218.562 L -90.126 217.953 L -89.825 217.792 L -61.081 189.732 L -60.008 188.876 L -59.936 188.790 L -58.968 188.045 L -58.013 187.283 L -57.913 187.233 L -56.825 186.395 L -6.004 154.773 L -6.004 144.321 L -63.820 155.028 L -66.098 155.219 L -68.372 155.446 L -71.284 155.446 L -73.097 155.265 L -74.856 155.386 L -82.222 152.818 L -83.784 152.321 L -83.877 152.241 L -85.578 151.648 L -87.415 149.186 L -92.378 144.899 L -93.382 141.186 L -94.530 139.647 L -95.059 134.980 L -96.284 130.446 L -95.783 128.593 L -96.217 124.771 L -93.180 118.959 L -92.378 115.993 L -91.015 114.815 L -90.958 114.707 L -89.688 113.670 L -83.784 108.571 L -82.104 108.036 L -80.486 107.201 L -45.538 93.368 L -45.480 93.351 L -45.426 93.323 L -30.378 87.451 L -30.027 87.029 L -30.015 86.992 L -29.560 86.467 L -23.868 79.617 L -22.323 78.826 L -20.978 77.807 L -7.873 69.798 L -6.379 69.078 L -4.935 68.260 L -4.547 68.089 L -4.547 36.860 L -6.867 28.793 L -6.111 22.746 C -6.501 22.348 -6.879 21.938 -7.243 21.515 L -9.378 19.671 L -9.877 17.826 C -12.043 14.125 -13.284 9.816 -13.284 5.218 C -13.284 0.619 -12.043 -3.689 -9.877 -7.391 L -9.378 -9.235 L -7.243 -11.080 C -5.627 -12.958 -3.737 -14.593 -1.634 -15.923 L -0.784 -16.657 L 0.163 -16.959 C 3.619 -18.762 7.548 -19.782 11.716 -19.782 L 13.900 -19.782 L 17.806 -19.392 L 17.889 -19.365 L 17.976 -19.364 L 19.348 -19.054 L 21.909 -19.054 L 23.455 -18.899 L 25.010 -18.861 L 29.290 -18.326 L 77.970 -18.326 L 78.703 -18.253 L 79.438 -18.283 L 91.082 -17.598 L 95.444 -17.598 L 96.573 -17.485 L 97.707 -17.495 L 104.587 -16.870 L 105.637 -16.870 L 107.401 -16.693 L 109.172 -16.619 L 113.258 -16.035 L 114.124 -15.948 L 114.368 -15.964 L 115.230 -15.838 L 116.096 -15.751 L 116.329 -15.677 L 118.253 -15.395 L 119.914 -14.980 L 123.734 -14.434 L 125.914 -13.897 L 128.104 -13.403 L 128.812 -13.167 L 130.245 -12.880 L 132.896 -12.501 L 133.303 -12.501 L 135.238 -12.308 L 135.483 -12.323 L 136.344 -12.197 L 137.210 -12.111 L 137.443 -12.036 L 139.241 -11.773 L 196.354 -11.773 L 197.567 -12.016 L 199.332 -12.189 L 201.083 -12.463 L 213.110 -13.131 L 217.136 -13.706 L 217.872 -13.737 L 218.596 -13.871 L 225.908 -14.481 L 228.146 -14.928 L 228.838 -14.996 L 229.514 -15.162 L 234.610 -15.891 L 236.382 -15.965 L 238.146 -16.142 L 252.707 -16.142 L 254.254 -15.987 L 255.808 -15.949 L 260.088 -15.414 L 282.558 -15.414 L 285.009 -15.169 L 287.461 -14.928 L 288.674 -14.686 L 290.567 -14.686 L 294.473 -14.295 L 294.556 -14.269 L 294.643 -14.267 L 298.472 -13.403 L 298.518 -13.387 L 301.383 -12.978 L 303.563 -12.441 L 305.753 -11.947 L 307.000 -11.531 L 307.208 -11.522 L 315.642 -10.317 L 336.435 -10.317 L 337.168 -10.244 L 337.903 -10.274 L 345.939 -9.801 Z M -28.101 227.411 L -32.935 232.130 L -22.837 232.130 L -12.170 231.846 L -11.911 230.839 L -11.675 229.438 L -9.852 222.753 L -8.680 215.327 Z " transform="matrix(1, 0, 0, 1, 103, 19.75)"/>
      <path id="ID0.47068047104403377" fill="#c3c3c3" stroke="none" stroke-width="0.5" d="M 163.571 72.200 C 163.454 81.247 154.375 87.701 146.078 86.080 C 144.449 85.761 142.850 85.132 141.355 84.149 C 141.147 84.013 140.843 83.741 140.476 83.374 C 139.077 82.265 137.892 80.899 136.990 79.348 C 135.903 77.968 134.912 76.591 134.391 75.661 C 127.861 63.985 126.806 55.076 113.825 49.270 C 108.486 46.882 104.437 46.688 99.256 49.896 C 97.526 50.968 90.362 55.045 88.132 58.165 C 85.459 61.903 84.656 66.911 83.786 71.288 C 82.880 75.841 80.782 80.171 80.571 84.862 C 80.421 88.189 79.914 95.632 79.914 99.139 C 79.914 103.801 81.193 108.382 81.299 112.972 C 81.401 117.400 79.563 127.283 84.180 131.400 C 85.059 132.183 87.886 132.551 89.185 132.214 C 89.816 132.050 90.031 128.447 90.662 127.396 C 92.738 123.936 92.864 121.017 94.624 117.496 C 95.179 116.388 97.415 114.211 97.570 113.137 C 97.810 111.477 94.496 111.705 93.209 110.630 C 86.887 105.351 83.490 99.130 88.321 91.079 C 91.174 86.324 95.344 83.630 100.846 84.053 C 103.287 84.241 105.596 85.290 107.872 86.192 C 114.323 88.748 120.661 93.081 125.801 97.695 C 127.219 98.967 129.299 99.776 130.032 101.534 C 132.520 107.507 132.274 120.062 127.779 125.307 C 126.557 126.732 125.221 128.068 123.796 129.290 C 123.541 129.508 120.473 130.567 120.344 130.904 C 116.664 140.485 113.328 151.222 104.001 157.025 C 95.709 162.184 77.558 161.902 69.413 156.297 C 65.939 153.906 64.186 150.966 61.339 148.042 C 59.006 145.647 56.429 142.472 55.378 139.321 C 52.667 131.188 53.098 122.633 52.799 114.152 C 52.640 109.649 51.669 105.102 51.414 100.557 C 50.375 82.108 55.430 56.389 65.418 40.422 C 67.085 37.756 70.260 35.770 72.751 33.727 C 81.582 26.488 100.209 15.811 112.918 18.635 C 118.704 19.920 122.281 22.018 127.754 24.285 C 133.659 26.731 140.284 30.892 144.524 35.840 C 144.798 36.159 146.109 39.039 146.203 39.196 C 147.704 41.721 150.231 43.684 151.874 46.170 C 153.801 49.085 154.799 52.454 156.214 55.578 C 157.982 59.484 160.163 62.020 161.938 65.571 Z " transform="matrix(1, 0, 0, 1, 103, 19.75)"/>
      <path id="ID0.43501583067700267" fill="#c3c3c3" stroke="none" stroke-width="0.5" d="M 147.922 180.829 C 143.429 177.621 141.653 173.889 141.321 169.932 C 141.165 169.029 141.083 168.100 141.083 167.151 C 141.083 164.695 141.630 162.367 142.607 160.281 C 143.529 156.983 144.730 153.691 145.561 150.557 C 148.734 138.596 156.426 127.239 163.425 117.148 C 165.356 114.364 168.478 111.596 169.818 108.476 C 172.397 102.471 175.657 96.674 178.156 90.641 C 181.920 81.553 181.904 71.389 187.732 63.303 C 189.911 60.280 193.978 56.006 198.097 56.308 C 218.431 57.796 221.204 77.131 222.715 93.987 C 223.327 100.814 226.336 107.555 226.856 114.538 C 226.882 114.888 230.619 124.650 230.649 124.755 C 232.222 130.186 231.840 135.019 232.309 140.648 C 233.336 152.971 241.685 167.522 228.474 176.603 C 220.491 182.091 210.140 178.894 204.913 171.053 C 204.227 170.024 201.220 153.246 200.937 150.767 C 200.387 145.938 200.920 138.658 199.573 134.050 C 198.992 132.063 198.042 129.433 197.192 127.505 C 196.996 127.060 196.992 125.904 196.589 126.176 C 195.130 127.163 191.192 134.168 190.291 135.546 C 185.857 142.322 180.174 149.252 177.405 156.858 C 176.148 160.311 175.402 163.624 173.642 166.883 C 173.595 166.971 173.549 167.059 173.504 167.149 C 173.504 167.150 173.504 167.151 173.504 167.151 C 173.504 170.462 172.512 173.540 170.809 176.105 C 167.906 180.479 162.937 183.362 157.294 183.362 C 155.260 183.362 153.314 182.987 151.520 182.304 C 150.225 182.015 148.992 181.593 147.922 180.829 Z " transform="matrix(1, 0, 0, 1, 103, 19.75)"/>
      <path id="ID0.3531506541185081" fill="#c3c3c3" stroke="none" stroke-width="0.5" d="M 166.826 150.599 C 168.027 148.915 169.602 147.641 171.415 146.678 C 173.103 145.643 175.023 144.950 177.079 144.696 C 182.790 143.460 189.297 143.770 194.070 143.770 C 195.570 143.770 196.922 144.715 198.469 144.414 C 201.611 143.804 216.777 143.608 219.410 145.363 C 224.389 148.682 227.110 154.126 226.779 160.100 C 225.909 175.751 203.140 173.254 193.410 172.359 C 188.436 171.901 183.746 173.783 178.849 173.087 C 176.199 173.087 173.718 172.364 171.593 171.104 C 169.217 170.010 167.183 168.397 166.541 166.024 C 165.307 163.914 164.599 161.458 164.599 158.837 C 164.599 157.049 164.928 155.338 165.529 153.761 C 165.783 152.623 166.154 151.539 166.826 150.599 Z " transform="matrix(1, 0, 0, 1, 103, 19.75)"/>
      <path id="ID0.3093066173605621" fill="#c3c3c3" stroke="none" stroke-width="0.5" d="M 253.934 165.768 C 243.244 158.135 249.336 144.692 252.614 135.172 C 256.760 123.132 263.724 107.654 276.926 103.630 C 281.265 102.308 282.915 103.875 287.363 104.205 C 287.701 104.230 288.691 102.316 288.742 102.231 C 289.517 100.939 290.618 99.865 291.684 98.800 C 294.727 95.756 297.729 94.159 302.147 93.537 C 306.551 92.917 309.978 95.396 313.380 97.573 C 322.290 103.274 331.372 108.615 331.755 120.981 C 331.918 126.207 331.700 131.439 331.755 136.668 C 331.767 137.790 332.969 139.486 333.208 140.501 C 334.839 147.418 337.906 153.743 334.343 160.869 C 333.378 162.799 331.985 164.697 330.112 165.768 C 322.633 170.041 313.864 168.105 309.405 160.869 C 307.979 158.555 306.275 150.824 305.488 147.740 C 305.240 146.770 304.998 145.799 304.760 144.828 C 304.467 143.634 304.301 140.054 303.950 141.232 C 300.084 154.175 287.693 157.705 278.345 147.437 C 278.013 147.072 276.620 152.819 276.422 153.744 C 276.422 156.471 275.656 159.018 274.328 161.184 C 271.823 165.269 267.316 167.994 262.172 167.994 C 260.384 167.994 258.673 167.665 257.097 167.064 C 255.958 166.810 254.875 166.439 253.934 165.768 Z " transform="matrix(1, 0, 0, 1, 103, 19.75)"/>
      <path id="ID0.3006612048484385" fill="#c3c3c3" stroke="none" stroke-width="0.5" d="M 420.891 143.135 C 421.017 143.135 421.142 143.136 421.267 143.139 L 421.688 143.046 L 422.314 143.205 C 423.758 143.348 425.140 143.707 426.425 144.249 L 427.961 144.639 L 428.687 145.454 C 432.574 147.999 435.141 152.392 435.141 157.385 C 435.141 157.693 435.132 157.999 435.112 158.302 L 435.330 159.376 L 434.719 160.841 C 434.370 162.241 433.815 163.560 433.086 164.761 L 432.840 165.351 L 432.516 165.629 C 431.419 167.173 430.022 168.489 428.409 169.493 L 426.673 171.518 L 425.381 172.056 L 425.080 172.314 L 423.624 173.042 L 422.623 173.265 L 421.757 173.816 L 417.389 175.272 L 415.105 175.447 L 412.883 176.003 L 409.242 176.003 L 407.020 175.447 L 404.736 175.272 L 404.121 175.067 L 397.759 174.488 L 397.028 174.233 L 396.255 174.270 L 392.614 173.542 L 392.474 173.475 L 392.318 173.480 L 387.292 172.363 L 386.672 172.363 L 384.744 171.881 L 382.757 171.814 L 377.661 170.358 L 376.867 169.900 L 375.962 169.754 L 371.233 167.728 L 364.919 165.432 L 364.692 165.415 L 364.413 165.247 L 363.601 164.952 L 361.042 163.225 L 358.394 161.636 L 357.783 161.025 L 357.513 160.843 L 357.402 160.644 L 355.482 158.724 L 354.579 157.220 L 353.339 155.979 L 351.155 152.339 L 350.992 151.804 L 350.628 151.380 L 350.297 150.718 L 349.333 149.272 L 349.135 148.717 L 348.733 148.287 L 345.093 141.735 L 344.952 141.210 L 344.611 140.786 L 340.336 131.523 L 333.883 118.617 L 333.502 116.905 L 332.718 115.335 L 331.261 108.783 L 331.303 107.214 L 330.922 105.692 L 330.922 100.595 L 331.478 98.373 L 331.653 96.089 L 333.838 89.536 L 334.388 88.671 L 334.611 87.670 L 335.339 86.214 L 335.702 85.789 L 335.865 85.255 L 338.049 81.614 L 339.290 80.374 L 340.192 78.870 L 341.648 77.414 L 342.337 77.001 L 342.823 76.362 L 345.847 73.943 L 347.473 72.317 L 349.437 71.139 L 351.177 69.648 L 352.143 69.164 L 353.810 68.164 L 354.531 67.443 L 354.894 66.928 L 358.017 65.263 L 361.051 63.442 L 361.679 63.396 L 363.755 62.877 L 364.459 62.642 L 365.010 62.367 L 366.868 61.954 L 368.588 61.139 L 371.896 60.478 L 373.948 59.965 L 375.613 59.410 L 377.897 59.234 L 380.119 58.678 L 393.953 58.678 L 394.948 58.927 L 395.968 58.822 L 406.161 60.278 L 408.282 61.142 L 410.519 61.639 L 414.887 63.823 L 416.626 65.314 L 418.591 66.493 L 421.764 69.666 L 422.761 70.572 L 425.560 72.971 L 425.782 73.504 L 426.924 75.217 L 427.040 75.544 L 427.286 75.790 L 429.470 79.430 L 430.084 81.446 L 431.076 83.306 L 432.152 87.613 L 432.181 87.670 L 432.295 88.183 L 432.532 89.130 L 432.532 89.249 L 432.891 90.866 L 433.685 94.042 L 433.685 94.440 L 433.774 94.839 L 433.685 95.189 L 433.685 97.683 L 433.260 99.385 L 433.260 101.139 L 432.532 104.051 L 432.269 104.544 L 432.226 105.101 L 430.770 109.470 L 430.625 109.698 L 430.594 109.967 L 428.502 115.545 L 427.858 117.479 L 427.307 118.344 L 427.084 119.345 L 423.698 126.119 L 423.543 126.675 L 421.064 129.403 L 418.664 132.202 L 418.131 132.424 L 416.419 133.566 L 414.626 134.206 L 413.021 135.228 L 410.836 135.956 L 408.943 136.102 L 407.196 136.684 L 404.912 136.860 L 402.690 137.415 L 397.690 137.415 L 395.447 137.588 L 393.225 138.143 L 391.492 138.143 L 388.287 138.678 L 387.100 138.583 L 385.944 138.871 L 384.045 138.871 L 379.951 139.456 L 378.930 139.351 L 377.935 139.600 L 377.277 139.600 L 381.349 141.080 L 381.688 141.309 L 382.093 141.375 L 386.359 143.203 L 388.668 143.863 L 388.856 143.863 L 390.379 144.243 L 391.948 144.202 L 398.352 145.625 L 401.098 146.174 L 408.348 146.834 L 409.913 147.379 L 410.396 147.416 L 411.469 146.164 L 412.761 145.625 L 413.063 145.367 L 414.262 144.767 C 416.243 143.725 418.498 143.135 420.891 143.135 Z M 387.970 109.837 L 389.157 109.932 L 390.313 109.643 L 390.944 109.643 L 393.187 109.471 L 395.409 108.915 L 400.409 108.915 L 400.436 108.913 L 401.140 107.505 L 401.548 106.282 L 401.693 106.054 L 401.724 105.785 L 403.816 100.207 L 405.015 96.608 L 405.069 96.392 L 404.883 96.042 L 403.941 92.275 L 403.123 90.912 L 402.078 90.285 L 400.073 88.280 L 399.841 88.164 L 392.940 87.178 L 382.400 87.178 L 381.884 87.218 L 381.391 87.481 L 378.479 88.209 L 378.132 88.209 L 377.818 88.358 L 375.177 88.886 L 374.433 89.359 L 372.249 90.088 L 371.778 90.124 L 371.218 90.460 L 369.977 91.700 L 366.337 93.885 L 366.155 93.940 L 365.441 94.654 L 364.753 95.067 L 364.267 95.705 L 361.506 97.913 L 360.585 99.449 L 360.555 99.509 L 359.422 102.908 L 359.422 104.127 L 360.158 107.441 L 363.514 114.152 L 364.986 112.881 L 372.111 111.100 L 376.923 111.100 L 381.017 110.515 L 382.037 110.620 L 383.032 110.371 L 384.765 110.371 Z " transform="matrix(1, 0, 0, 1, 103, 19.75)"/>
      <path id="ID0.6423965455032885" fill="#c3c3c3" stroke="none" stroke-width="0.5" d="M 55.711 222.183 C 55.711 219.562 56.419 217.106 57.654 214.996 L 57.938 213.945 L 59.155 212.893 C 60.076 211.823 61.154 210.891 62.352 210.133 L 62.836 209.714 L 63.244 209.612 C 65.246 208.541 67.532 207.933 69.961 207.933 L 75.786 207.933 L 78.008 208.489 L 80.292 208.664 L 81.516 209.072 L 88.528 210.347 L 89.179 210.642 L 89.894 210.665 L 94.990 212.122 L 96.146 212.788 L 97.448 213.078 L 101.817 215.262 L 102.500 215.848 L 103.348 216.151 L 105.533 217.607 L 105.805 217.907 L 106.178 218.064 L 109.090 220.248 L 110.368 221.820 L 111.940 223.098 L 113.517 225.200 L 117.897 229.580 L 118.628 230.797 L 119.678 231.752 L 121.134 233.936 L 122.065 236.544 L 123.250 239.046 L 123.979 242.687 L 123.959 243.091 L 124.112 243.466 L 124.658 247.290 L 124.980 248.256 L 125.156 250.540 L 125.711 252.762 L 125.711 257.858 L 125.493 258.732 L 125.601 259.626 L 124.873 265.450 L 124.361 266.774 L 124.252 268.189 L 123.970 269.035 L 123.417 273.459 L 122.905 274.783 L 122.796 276.198 L 122.241 277.863 L 121.646 280.244 L 120.654 282.104 L 120.040 284.120 L 117.856 287.760 L 116.616 289.001 L 115.713 290.505 L 109.889 296.329 L 109.009 296.857 L 108.362 297.653 L 106.312 299.191 L 106.146 299.469 L 105.801 299.689 L 105.520 299.970 L 102.712 301.654 L 99.950 303.412 L 99.573 303.538 L 99.222 303.748 L 98.863 303.775 L 96.868 304.440 L 96.744 304.547 L 96.347 304.646 L 95.992 304.823 L 92.796 305.534 L 89.619 306.328 L 89.222 306.328 L 88.823 306.417 L 88.680 306.380 L 85.979 307.056 L 85.582 307.056 L 85.182 307.145 L 84.833 307.056 L 73.500 307.056 L 73.366 307.133 L 72.311 307.056 L 70.689 307.056 L 70.018 306.888 L 66.911 306.661 L 65.341 305.719 L 63.564 305.275 L 61.285 303.306 L 61.267 303.299 L 61.241 303.268 L 61.206 303.238 L 60.613 302.882 L 59.467 301.736 L 58.666 301.044 L 58.451 300.250 L 57.978 299.462 L 56.488 297.722 L 55.089 294.925 L 53.124 292.650 L 52.693 290.924 L 51.668 289.738 L 51.224 287.961 L 50.282 286.391 L 50.054 283.284 L 49.887 282.613 L 49.887 282.183 L 49.584 280.972 L 49.584 279.218 L 49.418 278.553 L 49.353 278.403 L 49.297 278.070 L 49.159 277.516 L 49.159 277.240 L 47.168 265.298 L 47.263 264.110 L 46.974 262.955 L 46.974 261.658 L 46.421 257.230 L 45.795 254.100 L 45.863 252.683 L 45.518 251.306 L 45.518 249.122 L 46.074 246.899 L 46.246 244.657 L 46.246 244.443 L 46.158 244.094 L 46.246 243.694 L 46.246 243.297 L 47.041 240.120 L 47.751 236.924 L 47.896 236.633 L 48.479 234.012 L 48.656 233.657 L 48.756 233.260 L 48.809 233.198 L 48.826 232.966 L 49.036 232.615 L 49.162 232.238 L 50.920 229.476 L 52.133 227.454 L 52.188 227.322 L 52.237 227.280 L 52.604 226.668 L 52.885 226.387 L 53.105 226.042 L 53.415 225.858 L 54.060 225.212 L 55.845 224.141 C 55.757 223.501 55.711 222.847 55.711 222.183 Z M 74.470 252.151 L 74.444 252.683 L 74.636 253.179 L 75.364 259.003 L 75.256 259.897 L 75.475 260.771 L 75.475 261.776 L 77.465 273.717 L 77.388 274.679 L 77.910 276.769 L 78.062 276.944 L 78.465 278.556 L 84.523 278.556 L 86.017 278.182 L 86.569 277.831 L 88.127 277.312 L 88.350 277.037 L 90.452 275.461 L 94.320 271.593 L 94.511 271.275 L 94.725 270.420 L 94.988 269.927 L 95.030 269.370 L 95.312 268.524 L 95.865 264.100 L 96.378 262.776 L 96.487 261.361 L 96.768 260.515 L 97.211 256.971 L 97.211 255.042 L 97.115 253.792 L 96.627 252.593 L 95.964 247.952 L 92.648 244.636 L 92.121 243.757 L 91.325 243.110 L 90.362 241.826 L 89.395 241.101 L 88.278 240.356 L 85.887 239.161 L 82.739 238.262 L 81.598 238.054 L 81.251 238.749 L 80.992 239.050 L 80.454 240.342 L 78.310 242.180 L 76.471 244.325 L 75.546 244.711 L 74.918 245.087 L 74.878 245.122 L 74.774 245.173 L 74.746 245.190 L 74.746 246.937 L 74.191 249.160 L 74.102 250.313 Z " transform="matrix(1, 0, 0, 1, 103, 19.75)"/>
      <path id="ID0.8962233397178352" fill="#c3c3c3" stroke="none" stroke-width="0.5" d="M 151.007 232.730 C 152.730 233.960 153.964 235.530 154.916 237.300 C 155.697 238.571 156.285 239.973 156.638 241.467 C 158.197 246.253 158.992 251.596 161.903 255.526 C 162.018 255.682 161.991 255.127 162.126 254.989 C 162.814 254.289 163.634 253.712 164.242 252.942 C 167.169 249.233 169.090 245.348 171.523 241.293 C 175.790 234.181 185.975 225.277 194.979 231.279 C 199.957 234.599 202.679 240.042 202.347 246.017 C 202.216 248.377 194.532 259.072 192.611 261.602 C 190.666 264.163 189.526 267.806 187.481 270.193 C 181.610 277.042 172.445 289.997 165.183 294.353 C 162.392 296.028 158.621 296.212 155.381 296.212 C 149.934 296.212 146.368 293.881 143.122 290.123 C 140.207 286.748 142.079 280.662 139.993 277.063 C 138.956 275.274 138.821 273.413 138.060 271.569 C 137.082 269.196 134.834 267.857 133.940 265.711 C 132.086 261.262 130.208 255.597 129.250 250.716 C 129.082 249.862 128.947 248.901 128.862 247.877 C 128.637 246.872 128.518 245.826 128.518 244.753 C 128.518 242.994 128.837 241.310 129.420 239.754 C 130.297 236.313 132.153 233.372 135.582 232.446 C 137.691 231.211 140.147 230.503 142.768 230.503 C 144.556 230.503 146.267 230.832 147.844 231.434 C 148.983 231.687 150.066 232.058 151.007 232.730 Z " transform="matrix(1, 0, 0, 1, 103, 19.75)"/>
      <path id="ID0.007727624382823706" fill="#c3c3c3" stroke="none" stroke-width="0.5" d="M 255.901 285.010 L 256.716 285.736 L 257.106 287.272 C 257.648 288.558 258.007 289.939 258.150 291.384 L 258.309 292.009 L 258.215 292.431 C 258.219 292.555 258.220 292.680 258.220 292.806 C 258.220 295.199 257.630 297.455 256.588 299.435 L 255.988 300.635 L 255.729 300.936 L 255.191 302.228 L 253.046 304.066 L 251.208 306.211 L 249.916 306.749 L 249.615 307.008 L 249.184 307.223 L 248.911 307.459 L 248.514 307.558 L 248.159 307.736 L 246.852 308.026 L 245.234 308.700 L 244.629 308.578 L 242.652 309.237 L 240.368 309.413 L 238.146 309.968 L 227.225 309.968 L 227.100 309.937 L 226.237 310.045 L 223.214 308.965 L 220.100 308.187 L 219.441 307.618 L 219.320 307.575 L 218.370 306.942 L 217.678 306.665 L 217.621 306.661 L 217.528 306.605 L 216.108 306.037 L 213.783 304.358 L 211.324 302.882 L 210.242 301.800 L 210.154 301.737 L 210.128 301.686 L 208.412 299.970 L 207.233 298.006 L 205.742 296.266 L 205.014 294.810 L 204.883 294.220 L 204.529 293.730 L 203.293 290.640 L 203.227 290.507 L 202.263 289.061 L 201.960 288.213 L 201.374 287.530 L 200.646 286.073 L 200.423 285.072 L 199.873 284.207 L 199.144 282.023 L 199.102 281.466 L 198.839 280.973 L 198.111 278.060 L 198.111 277.713 L 197.962 277.399 L 197.234 273.758 L 197.301 272.341 L 196.957 270.964 L 196.957 269.926 L 196.868 269.576 L 196.957 269.177 L 196.957 268.780 L 197.751 265.603 L 198.017 264.406 L 198.080 263.545 L 198.284 263.205 L 198.462 262.407 L 198.639 262.052 L 198.738 261.655 L 198.974 261.382 L 199.190 260.951 L 199.710 260.344 L 200.478 259.062 L 200.923 257.286 L 202.959 254.928 L 203.315 254.335 L 203.532 254.118 L 203.719 253.594 L 204.987 251.692 L 205.694 250.514 L 205.694 246.209 L 206.349 243.591 L 206.713 240.917 L 208.169 237.277 L 208.523 236.786 L 208.655 236.196 L 211.567 230.372 L 212.553 229.221 L 213.185 227.843 L 214.778 225.851 L 215.450 224.171 L 216.323 222.963 L 216.824 221.559 L 219.422 217.662 L 219.644 217.129 L 222.443 214.730 L 223.440 213.824 L 223.619 213.645 L 223.803 213.335 L 224.148 213.116 L 224.429 212.835 L 224.720 212.660 L 225.171 212.251 L 225.602 212.131 L 227.237 211.150 L 229.999 209.392 L 230.376 209.267 L 230.727 209.056 L 231.086 209.030 L 231.101 209.025 L 232.425 208.142 L 232.546 208.099 L 233.205 207.530 L 236.319 206.752 L 237.807 206.220 L 237.898 206.174 L 237.935 206.174 L 239.342 205.672 L 240.206 205.780 L 240.330 205.749 L 241.786 205.749 L 243.488 206.174 L 245.242 206.174 L 247.849 206.826 L 248.477 206.872 L 251.512 208.693 L 252.787 209.373 L 252.845 209.392 L 252.957 209.464 L 254.635 210.359 L 254.855 210.672 L 255.607 211.150 L 258.415 212.835 L 258.696 213.116 L 259.041 213.335 L 259.225 213.645 L 259.313 213.733 L 262.337 216.152 L 263.668 217.898 L 265.292 219.375 L 268.204 223.743 L 268.844 225.536 L 269.866 227.142 L 271.002 230.549 L 271.277 231.100 L 271.500 232.101 L 272.050 232.966 L 272.779 235.151 L 272.954 237.434 L 273.510 239.657 L 273.510 249.951 L 273.587 250.086 L 273.510 251.141 L 273.510 252.762 L 273.342 253.433 L 273.115 256.541 L 272.173 258.111 L 271.729 259.887 L 269.692 262.245 L 269.336 262.838 L 268.190 263.985 L 267.498 264.785 L 267.348 264.826 L 266.593 265.581 L 266.562 266.006 L 266.358 266.345 L 266.181 267.144 L 266.003 267.499 L 265.904 267.896 L 265.668 268.169 L 265.453 268.600 L 263.962 270.339 L 263.320 271.408 L 263.269 271.512 L 263.234 271.552 L 262.783 272.303 L 261.691 273.395 L 260.599 275.216 L 259.675 276.140 L 259.634 276.290 L 258.833 276.981 L 257.687 278.128 L 257.094 278.484 L 254.736 280.520 L 252.959 280.964 L 252.388 281.307 C 253.769 282.320 254.961 283.575 255.901 285.010 Z M 240.690 252.942 L 240.867 252.587 L 240.966 252.190 L 241.202 251.917 L 242.146 250.029 L 242.404 249.728 L 242.942 248.436 L 245.010 246.664 L 245.010 242.172 L 244.836 241.388 L 244.285 240.523 L 243.432 237.965 L 242.806 237.025 L 241.476 235.961 L 241.361 236.134 L 240.455 238.396 L 239.227 240.098 L 238.352 242.006 L 236.383 244.467 L 234.411 248.412 L 234.194 248.954 L 234.194 252.034 L 233.850 253.411 L 233.910 254.678 L 237.418 253.801 L 239.912 253.801 L 240.261 253.713 L 240.506 253.767 Z M 230.109 280.942 L 230.333 281.031 L 230.938 281.468 L 234.084 281.468 L 230.293 280.520 L 229.755 280.056 Z " transform="matrix(1, 0, 0, 1, 103, 19.75)"/>
      <path id="ID0.28352667624130845" fill="#c3c3c3" stroke="none" stroke-width="0.5" d="M 281.233 275.786 C 281.654 273.806 282.804 271.961 282.869 269.938 C 282.953 267.369 282.312 264.736 282.869 262.227 C 283.537 259.222 284.736 255.961 285.054 252.930 C 285.801 245.794 286.446 238.853 291.412 233.221 C 295.753 228.297 303.050 224.485 308.651 221.599 C 311.489 220.137 315.592 219.664 318.716 219.279 C 327.415 218.209 333.988 219.306 340.687 225.212 C 346.468 230.309 352.344 244.249 351.245 251.938 C 350.465 257.401 346.930 260.887 341.670 262.640 C 336.409 264.394 331.490 263.726 327.588 259.824 C 326.597 258.834 323.666 254.500 322.962 251.854 C 322.788 251.203 322.236 247.808 321.483 247.526 C 320.951 247.327 313.624 251.311 313.554 251.995 C 313.143 255.990 311.788 260.025 311.369 263.879 C 310.958 267.662 311.525 271.424 310.944 275.148 C 310.718 276.594 309.295 280.321 309.185 281.696 C 308.651 288.387 309.946 299.059 302.827 303.610 C 300.935 305.502 298.514 306.865 295.804 307.456 C 294.820 307.671 293.799 307.784 292.751 307.784 C 286.131 307.784 280.565 303.269 278.964 297.151 C 278.119 296.274 278.455 295.790 278.541 294.609 C 278.514 294.254 278.501 293.896 278.501 293.534 C 278.501 290.746 279.302 288.145 280.685 285.949 C 281.218 282.671 280.530 279.094 281.233 275.786 Z " transform="matrix(1, 0, 0, 1, 103, 19.75)"/>
    </g>
  </g>
</svg>