<svg version="1.1" xmlns="http://www.w3.org/2000/svg" xmlns:xlink="http://www.w3.org/1999/xlink" width="386.24009" height="391.54319" viewBox="0,0,386.24009,391.54319"><defs><linearGradient x1="237.99876" y1="52.67138" x2="237.99876" y2="406.29211" gradientUnits="userSpaceOnUse" id="color-1"><stop offset="0" stop-color="#000000"/><stop offset="1" stop-color="#000000" stop-opacity="0"/></linearGradient><linearGradient x1="794.13043" y1="-215.50445" x2="794.13043" y2="19.74825" gradientUnits="userSpaceOnUse" id="color-2"><stop offset="0" stop-color="#005921"/><stop offset="1" stop-color="#00ff14"/></linearGradient><linearGradient x1="794.13043" y1="-215.50445" x2="794.13043" y2="19.74825" gradientUnits="userSpaceOnUse" id="color-3"><stop offset="0" stop-color="#005921"/><stop offset="1" stop-color="#00ff14"/></linearGradient><linearGradient x1="233.11861" y1="29.77892" x2="233.11861" y2="383.39964" gradientUnits="userSpaceOnUse" id="color-4"><stop offset="0" stop-color="#590057"/><stop offset="1" stop-color="#9c0f8a"/></linearGradient><linearGradient x1="209.03615" y1="228.98501" x2="209.03615" y2="408.97874" gradientUnits="userSpaceOnUse" id="color-5"><stop offset="0" stop-color="#ffffff"/><stop offset="1" stop-color="#ffffff" stop-opacity="0"/></linearGradient><linearGradient x1="213.43005" y1="226.68467" x2="213.43005" y2="393.84199" gradientUnits="userSpaceOnUse" id="color-6"><stop offset="0" stop-color="#ffffff"/><stop offset="1" stop-color="#ffffff" stop-opacity="0"/></linearGradient><linearGradient x1="176.2406" y1="244.32054" x2="176.2406" y2="412.41944" gradientUnits="userSpaceOnUse" id="color-7"><stop offset="0" stop-color="#ffffff"/><stop offset="1" stop-color="#ffffff" stop-opacity="0"/></linearGradient><linearGradient x1="200.85073" y1="233.58567" x2="200.85073" y2="405.1287" gradientUnits="userSpaceOnUse" id="color-8"><stop offset="0" stop-color="#ffffff"/><stop offset="1" stop-color="#ffffff" stop-opacity="0"/></linearGradient><linearGradient x1="237.28633" y1="245.8541" x2="237.28633" y2="400.51135" gradientUnits="userSpaceOnUse" id="color-9"><stop offset="0" stop-color="#ffffff"/><stop offset="1" stop-color="#ffffff" stop-opacity="0"/></linearGradient><linearGradient x1="302.75953" y1="262.72318" x2="302.75953" y2="366.23803" gradientUnits="userSpaceOnUse" id="color-10"><stop offset="0" stop-color="#ffffff"/><stop offset="1" stop-color="#ffffff" stop-opacity="0"/></linearGradient><linearGradient x1="308.89374" y1="251.22153" x2="308.89374" y2="350.13572" gradientUnits="userSpaceOnUse" id="color-11"><stop offset="0" stop-color="#ffffff"/><stop offset="1" stop-color="#ffffff" stop-opacity="0"/></linearGradient><linearGradient x1="210.39344" y1="266.53107" x2="407.03211" y2="266.53107" gradientUnits="userSpaceOnUse" id="color-12"><stop offset="0" stop-color="#ffffff"/><stop offset="1" stop-color="#ffffff" stop-opacity="0"/></linearGradient><linearGradient x1="207.80412" y1="251.57326" x2="402.2272" y2="251.57326" gradientUnits="userSpaceOnUse" id="color-13"><stop offset="0" stop-color="#ffffff"/><stop offset="1" stop-color="#ffffff" stop-opacity="0"/></linearGradient><linearGradient x1="223.92715" y1="273.82515" x2="380.10602" y2="273.82515" gradientUnits="userSpaceOnUse" id="color-14"><stop offset="0" stop-color="#ffffff"/><stop offset="1" stop-color="#ffffff" stop-opacity="0"/></linearGradient><linearGradient x1="214.52346" y1="247.81316" x2="385.93792" y2="247.81316" gradientUnits="userSpaceOnUse" id="color-15"><stop offset="0" stop-color="#ffffff"/><stop offset="1" stop-color="#ffffff" stop-opacity="0"/></linearGradient><linearGradient x1="226.99327" y1="213.13217" x2="395.64701" y2="213.13217" gradientUnits="userSpaceOnUse" id="color-16"><stop offset="0" stop-color="#ffffff"/><stop offset="1" stop-color="#ffffff" stop-opacity="0"/></linearGradient><linearGradient x1="249.36053" y1="146.76853" x2="382.65797" y2="146.76853" gradientUnits="userSpaceOnUse" id="color-17"><stop offset="0" stop-color="#ffffff"/><stop offset="1" stop-color="#ffffff" stop-opacity="0"/></linearGradient><linearGradient x1="237.98686" y1="137.64991" x2="369.9506" y2="137.64991" gradientUnits="userSpaceOnUse" id="color-18"><stop offset="0" stop-color="#ffffff"/><stop offset="1" stop-color="#ffffff" stop-opacity="0"/></linearGradient><linearGradient x1="215.39344" y1="272.66737" x2="404.71238" y2="272.66737" gradientUnits="userSpaceOnUse" id="color-19"><stop offset="0" stop-color="#ffffff"/><stop offset="1" stop-color="#ffffff" stop-opacity="0"/></linearGradient><linearGradient x1="212.80412" y1="256.57326" x2="407.2272" y2="256.57326" gradientUnits="userSpaceOnUse" id="color-20"><stop offset="0" stop-color="#ffffff"/><stop offset="1" stop-color="#ffffff" stop-opacity="0"/></linearGradient><linearGradient x1="228.92715" y1="278.82515" x2="385.10602" y2="278.82515" gradientUnits="userSpaceOnUse" id="color-21"><stop offset="0" stop-color="#ffffff"/><stop offset="1" stop-color="#ffffff" stop-opacity="0"/></linearGradient><linearGradient x1="219.52346" y1="252.81315" x2="390.93792" y2="252.81315" gradientUnits="userSpaceOnUse" id="color-22"><stop offset="0" stop-color="#ffffff"/><stop offset="1" stop-color="#ffffff" stop-opacity="0"/></linearGradient><linearGradient x1="231.99327" y1="218.13217" x2="400.64701" y2="218.13217" gradientUnits="userSpaceOnUse" id="color-23"><stop offset="0" stop-color="#ffffff"/><stop offset="1" stop-color="#ffffff" stop-opacity="0"/></linearGradient><linearGradient x1="254.36053" y1="151.76853" x2="387.65797" y2="151.76853" gradientUnits="userSpaceOnUse" id="color-24"><stop offset="0" stop-color="#ffffff"/><stop offset="1" stop-color="#ffffff" stop-opacity="0"/></linearGradient><linearGradient x1="242.98686" y1="142.64991" x2="374.95061" y2="142.64991" gradientUnits="userSpaceOnUse" id="color-25"><stop offset="0" stop-color="#ffffff"/><stop offset="1" stop-color="#ffffff" stop-opacity="0"/></linearGradient><linearGradient x1="245.27268" y1="44.61499" x2="245.27268" y2="211.59554" gradientUnits="userSpaceOnUse" id="color-26"><stop offset="0" stop-color="#ffffff" stop-opacity="0"/><stop offset="1" stop-color="#ffffff"/></linearGradient><linearGradient x1="241.32729" y1="50.65401" x2="241.32729" y2="214.06926" gradientUnits="userSpaceOnUse" id="color-27"><stop offset="0" stop-color="#ffffff" stop-opacity="0"/><stop offset="1" stop-color="#ffffff"/></linearGradient><linearGradient x1="262.21549" y1="43.12863" x2="262.21549" y2="197.14538" gradientUnits="userSpaceOnUse" id="color-28"><stop offset="0" stop-color="#ffffff" stop-opacity="0"/><stop offset="1" stop-color="#ffffff"/></linearGradient><linearGradient x1="237.63853" y1="44.03616" x2="237.63853" y2="207.22222" gradientUnits="userSpaceOnUse" id="color-29"><stop offset="0" stop-color="#ffffff" stop-opacity="0"/><stop offset="1" stop-color="#ffffff"/></linearGradient><linearGradient x1="203.77987" y1="43.05374" x2="203.77987" y2="194.76263" gradientUnits="userSpaceOnUse" id="color-30"><stop offset="0" stop-color="#ffffff" stop-opacity="0"/><stop offset="1" stop-color="#ffffff"/></linearGradient><linearGradient x1="141.96999" y1="64.69022" x2="141.96999" y2="174.77204" gradientUnits="userSpaceOnUse" id="color-31"><stop offset="0" stop-color="#ffffff" stop-opacity="0"/><stop offset="1" stop-color="#ffffff"/></linearGradient><linearGradient x1="137.43918" y1="83.17729" x2="137.43918" y2="186.27947" gradientUnits="userSpaceOnUse" id="color-32"><stop offset="0" stop-color="#ffffff" stop-opacity="0"/><stop offset="1" stop-color="#ffffff"/></linearGradient><linearGradient x1="45.29433" y1="192.64621" x2="218.16532" y2="192.64621" gradientUnits="userSpaceOnUse" id="color-33"><stop offset="0" stop-color="#ffffff" stop-opacity="0"/><stop offset="1" stop-color="#ffffff"/></linearGradient><linearGradient x1="42.9606" y1="199.84778" x2="220.62767" y2="199.84778" gradientUnits="userSpaceOnUse" id="color-34"><stop offset="0" stop-color="#ffffff" stop-opacity="0"/><stop offset="1" stop-color="#ffffff"/></linearGradient><linearGradient x1="58.59784" y1="169.8353" x2="203.64273" y2="169.8353" gradientUnits="userSpaceOnUse" id="color-35"><stop offset="0" stop-color="#ffffff" stop-opacity="0"/><stop offset="1" stop-color="#ffffff"/></linearGradient><linearGradient x1="49.17305" y1="192.40152" x2="213.77305" y2="192.40152" gradientUnits="userSpaceOnUse" id="color-36"><stop offset="0" stop-color="#ffffff" stop-opacity="0"/><stop offset="1" stop-color="#ffffff"/></linearGradient><linearGradient x1="44.33118" y1="226.59193" x2="201.32084" y2="226.59193" gradientUnits="userSpaceOnUse" id="color-37"><stop offset="0" stop-color="#ffffff" stop-opacity="0"/><stop offset="1" stop-color="#ffffff"/></linearGradient><linearGradient x1="62.2233" y1="293.81301" x2="181.54799" y2="293.81301" gradientUnits="userSpaceOnUse" id="color-38"><stop offset="0" stop-color="#ffffff" stop-opacity="0"/><stop offset="1" stop-color="#ffffff"/></linearGradient><linearGradient x1="76.70885" y1="301.5033" x2="193.06109" y2="301.5033" gradientUnits="userSpaceOnUse" id="color-39"><stop offset="0" stop-color="#ffffff" stop-opacity="0"/><stop offset="1" stop-color="#ffffff"/></linearGradient><linearGradient x1="239.8641" y1="19.90342" x2="239.8641" y2="378.49918" gradientUnits="userSpaceOnUse" id="color-40"><stop offset="0" stop-color="#ffffff"/><stop offset="1" stop-color="#ffffff" stop-opacity="0"/></linearGradient><linearGradient x1="266.27318" y1="215.57809" x2="244.03812" y2="-16.65652" gradientUnits="userSpaceOnUse" id="color-41"><stop offset="0" stop-color="#ffffff" stop-opacity="0"/><stop offset="1" stop-color="#ffffff"/></linearGradient></defs><g transform="translate(-36.7106,-27.12625)"><g data-paper-data="{&quot;isPaintingLayer&quot;:true}" fill-rule="nonzero" stroke-linejoin="miter" stroke-miterlimit="10" stroke-dasharray="" stroke-dashoffset="0" style="mix-blend-mode: normal"><path d="M420.48738,227.82142c0,58.54548 9.14947,134.33922 -36.62674,165.7421c-29.11266,19.97154 -103.69001,7.68133 -142.05194,7.68133c-32.45404,0 -131.95625,12.62302 -158.18752,-2.05614c-53.52897,-29.9551 -20.49116,-107.08769 -20.49116,-171.36729c0,-54.03495 -6.07011,-123.319 33.84333,-155.12451c30.83473,-24.57103 101.82621,-18.29891 144.83535,-18.29891c46.24992,0 124.43168,-9.9717 156.16106,18.01246c35.97026,31.72447 22.51762,104.52148 22.51762,155.41097z" fill="url(#color-1)" stroke="none" stroke-width="0" stroke-linecap="butt"/><path d="" fill="url(#color-2)" stroke="#009c42" stroke-width="12.5" stroke-linecap="round"/><path d="" fill="url(#color-3)" stroke="#009c42" stroke-width="12.5" stroke-linecap="round"/><path d="M415.60723,204.92896c0,58.54548 9.14947,134.33922 -36.62674,165.7421c-29.11266,19.97154 -103.69001,7.68133 -142.05194,7.68133c-32.45404,0 -131.95625,12.62302 -158.18752,-2.05614c-53.52897,-29.9551 -20.49116,-107.08769 -20.49116,-171.36729c0,-54.03495 -6.07011,-123.319 33.84333,-155.12451c30.83473,-24.57103 101.82621,-18.29891 144.83535,-18.29891c46.24992,0 124.43168,-9.9717 156.16106,18.01246c35.97026,31.72447 22.51762,104.52148 22.51762,155.41097z" fill="url(#color-4)" stroke="none" stroke-width="0" stroke-linecap="butt"/><g fill="none" stroke-width="12.5" stroke-linecap="round"><path d="M111.20627,408.97874l93.40584,-179.99373l102.25392,174.12382" stroke="url(#color-5)"/><path d="M75.02686,393.84199l128.05171,-167.15732l148.75468,164.85698" stroke="url(#color-6)"/><path d="M198.4779,244.32054l-44.47459,168.0989" stroke="url(#color-7)"/><path d="M198.6229,405.1287l4.45566,-171.54303" stroke="url(#color-8)"/><path d="M239.71335,400.35916l-34.33446,-154.50506l63.81489,154.65725" stroke="url(#color-9)"/><path d="M374.06977,366.23803l-142.62047,-103.51485" stroke="url(#color-10)"/><path d="M387.10496,350.13572l-156.42244,-98.91419" stroke="url(#color-11)"/></g><g fill="none" stroke-width="12.5" stroke-linecap="round"><path d="M383.55054,371.26828l-173.1571,-148.42272l196.63867,-61.05171" stroke="url(#color-12)"/><path d="M341.3748,386.59552l-133.57068,-162.78108l194.42308,-107.26345" stroke="url(#color-13)"/><path d="M380.10602,315.33657l-156.17887,-83.02285" stroke="url(#color-14)"/><path d="M214.52346,225.38737l171.41446,44.85157" stroke="url(#color-15)"/><path d="M389.57755,227.77813l-162.58428,-1.83422l168.65374,-27.4577" stroke="url(#color-16)"/><path d="M382.65797,89.13235l-133.29744,115.27235" stroke="url(#color-17)"/><path d="M237.98686,202.52973l131.96374,-129.75965" stroke="url(#color-18)"/></g><g fill="none" stroke-width="12.5" stroke-linecap="round"><path d="M388.55054,376.26828l-173.1571,-148.42272l189.31894,-58.7791" stroke="url(#color-19)"/><path d="M346.3748,391.59552l-133.57068,-162.78108l194.42308,-107.26345" stroke="url(#color-20)"/><path d="M385.10602,320.33657l-156.17887,-83.02285" stroke="url(#color-21)"/><path d="M219.52346,230.38737l171.41446,44.85156" stroke="url(#color-22)"/><path d="M394.57755,232.77813l-162.58428,-1.83422l168.65374,-27.4577" stroke="url(#color-23)"/><path d="M387.65797,94.13235l-133.29744,115.27235" stroke="url(#color-24)"/><path d="M242.98686,207.52973l131.96375,-129.75965" stroke="url(#color-25)"/></g><g fill="none" stroke-width="12.5" stroke-linecap="round"><path d="M338.29257,44.61499l-115.17197,166.98055l-70.86781,-164.91129" stroke="url(#color-26)"/><path d="M372.26568,64.19841l-147.91057,149.87085l-113.96621,-163.41525" stroke="url(#color-27)"/><path d="M293.31036,43.12863l-62.18974,154.01675" stroke="url(#color-28)"/><path d="M225.2163,207.22222l24.84447,-163.18606" stroke="url(#color-29)"/><path d="M210.42183,45.089l14.04312,149.67363l-41.37015,-151.70889" stroke="url(#color-30)"/><path d="M83.23652,64.69022l117.46694,110.08182" stroke="url(#color-31)"/><path d="M74.84945,83.17729l125.17947,103.10218" stroke="url(#color-32)"/></g><g fill="none" stroke-width="12.5" stroke-linecap="round"><path d="M65.41547,102.90775l152.74985,103.31166l-172.87099,76.16526" stroke="url(#color-33)"/><path d="M79.7068,68.40151l140.92087,136.56088l-177.66707,126.33165" stroke="url(#color-34)"/><path d="M203.64273,198.35165l-145.04489,-57.03271" stroke="url(#color-35)"/><path d="M213.77305,204.16374l-164.6,-23.52444" stroke="url(#color-36)"/><path d="M44.33118,221.20533l156.98966,-16.17653l-152.64496,43.12625" stroke="url(#color-37)"/><path d="M181.54799,228.97178l-119.32469,129.68245" stroke="url(#color-38)"/><path d="M193.06109,229.54124l-116.35224,143.92412" stroke="url(#color-39)"/></g><path d="M391.89622,187.97032c0,65.21578 -47.54672,118.08361 -106.19857,118.08361c-58.65185,0 -106.19857,-52.86783 -106.19857,-118.08361c0,-65.21578 47.54672,-118.08361 106.19857,-118.08361c58.65185,0 106.19857,52.86783 106.19857,118.08361z" fill="#c37700" stroke="none" stroke-width="0" stroke-linecap="butt"/><path d="M306.83599,116.66009c0,-7.59392 6.15608,-13.75 13.75,-13.75c7.59392,0 13.75,6.15608 13.75,13.75c0,7.59392 -6.15608,13.75 -13.75,13.75c-7.59392,0 -13.75,-6.15608 -13.75,-13.75z" fill="#000000" stroke="none" stroke-width="0.5" stroke-linecap="butt"/><path d="M312.97021,164.20025c0,-7.59392 6.15608,-13.75 13.75,-13.75c7.59392,0 13.75,6.15608 13.75,13.75c0,7.59392 -6.15608,13.75 -13.75,13.75c-7.59392,0 -13.75,-6.15608 -13.75,-13.75z" fill="#000000" stroke="none" stroke-width="0.5" stroke-linecap="butt"/><path d="M264.66328,138.89662c0,-7.59392 6.15608,-13.75 13.75,-13.75c7.59392,0 13.75,6.15608 13.75,13.75c0,7.59392 -6.15608,13.75 -13.75,13.75c-7.59392,0 -13.75,-6.15608 -13.75,-13.75z" fill="#000000" stroke="none" stroke-width="0.5" stroke-linecap="butt"/><path d="M66.09537,219.37822c2.04862,-1.09152 3.61155,-1.37868 5.11936,-1.34728c0.55781,-0.06888 1.12596,-0.10435 1.7024,-0.10435c1.59048,0 3.11789,0.27004 4.53888,0.76678c6.12162,0.20485 12.25249,0.17095 18.37515,0c6.97245,-0.19467 13.63479,-1.63977 20.35446,-2.88812c-1.22355,-10.95632 -3.19396,-21.88871 -5.32176,-32.52769c-0.2113,-0.95799 -0.3227,-1.95349 -0.3227,-2.97501c0,-1.83772 0.36052,-3.59124 1.0147,-5.19369c0.50982,-1.63003 1.29491,-3.16637 2.6652,-4.62361c5.69908,-6.06075 15.54935,-4.89534 20.51942,0.71628c3.96744,4.47957 3.68504,11.3973 4.66575,16.86514c1.73738,9.68657 3.16258,14.1828 3.91828,22.92207c0.0622,0.71935 0.12518,1.4407 0.18867,2.16389c7.23523,-0.1465 14.5073,0.12728 21.41715,0.94007c10.94407,1.28733 17.62436,11.15932 11.60156,21.69922c-4.89657,8.569 -18.13581,5.84718 -25.91779,5.09518c-1.91786,-0.18533 -3.5059,-0.16276 -4.97452,-0.0513c0.63148,12.82341 0.47972,25.66113 -1.74204,37.78306c-1.20419,6.57007 0.91103,15.7525 -6.28972,19.8672c-2.38316,1.36181 -5.20441,2.14844 -7.94922,2.14844c-19.16001,0 -12.36874,-19.27078 -12.21645,-30.22352c0.12267,-8.82234 0.16864,-17.64677 0.10693,-26.47005c-1.94546,0.33581 -3.93906,0.69628 -6.02536,1.07511c-11.05446,2.00724 -25.33312,1.13488 -35.96706,1.17732c-1.87393,0.00748 -4.16401,-0.44924 -6.43509,-1.29733c-1.71851,-0.49251 -3.29923,-1.31106 -4.67094,-2.38443c-3.54952,-2.40255 -6.08515,-5.85037 -5.25547,-9.94995c-0.01859,-0.29263 -0.02803,-0.58775 -0.02803,-0.88507c0,-4.05795 1.75787,-7.70533 4.55366,-10.22218c0.64094,-0.84719 1.41027,-1.5624 2.37459,-2.07619z" fill="#000000" stroke="none" stroke-width="0.5" stroke-linecap="butt"/><path d="M418.59007,199.2013c0,99.02348 -80.01835,179.29789 -178.72597,179.29789c-98.70764,0 -178.72597,-80.2744 -178.72597,-179.29789c0,-45.78041 0.58649,-105.57144 28.73226,-137.2574c32.73381,-36.85109 98.42197,-27.02548 151.49522,-27.02548c50.52257,0 124.67743,-5.99668 157.18377,27.81393c31.00239,32.24632 20.0407,88.12969 20.0407,136.46894z" fill="url(#color-40)" stroke="none" stroke-width="0" stroke-linecap="butt"/><path d="M61.27148,108.49387c-0.80957,-8.45561 4.66659,-11.96081 6.68563,-17.44423c2.62836,-7.13824 2.52717,-15.5428 7.0865,-21.24303c8.36903,-10.46323 17.73041,-21.69941 43.52237,-33.5711c31.22583,-14.37284 75.25162,-4.43611 117.67773,-6.33906c48.18459,-2.16124 66.25372,-4.46302 96.69831,-0.97876c11.42625,1.30769 38.7857,-5.59961 49.54534,1.72375c26.74793,18.20553 31.03766,35.36688 33.51943,61.28775c6.14004,64.12982 -38.50805,118.66006 -149.7336,123.64889c-111.22555,4.98883 -201.86466,-39.95141 -208.00471,-104.08122z" fill="url(#color-41)" stroke="none" stroke-width="0" stroke-linecap="butt"/></g></g></svg>