<svg version="1.1" width="817" height="467" viewBox="-1 -1 817 467" xmlns="http://www.w3.org/2000/svg" xmlns:xlink="http://www.w3.org/1999/xlink">
  <!-- Exported by Scratch - http://scratch.mit.edu/ -->
  <g id="ID0.5258851167745888" transform="matrix(1.1024999618530273, 0, 0, 1.1024999618530273, -22.45, -18.55)">
    <g id="ID0.17519064294174314">
      <path id="ID0.050651940517127514" fill="#000000" stroke="none" stroke-width="0.5" d="M 59.139 -24.465 C 76.287 -23.657 93.605 -22.381 110.641 -24.500 C 130.046 -26.913 148.715 -33.438 167.766 -37.845 C 178.359 -40.295 199.647 -41.926 202.115 -42.309 C 203.041 -42.452 205.145 -45.175 205.954 -45.764 C 209.069 -48.037 212.664 -49.721 216.390 -50.754 C 228.450 -54.096 240.991 -52.525 253.453 -52.500 C 260.916 -52.485 265.753 -51.143 275.566 -51.562 C 283.748 -51.912 295.576 -55.778 305.060 -54.072 C 321.171 -51.173 337.599 -49.749 353.428 -45.582 C 355.238 -45.105 363.309 -40.782 363.635 -40.606 C 364.607 -40.084 367.198 -36.208 367.719 -36.919 C 370.460 -40.660 370.184 -46.122 372.578 -50 C 377.522 -58.010 385.054 -62.322 394.453 -62.500 C 397.770 -62.563 400.678 -61.130 403.618 -60.023 C 405.327 -59.379 407.312 -59.483 408.906 -58.594 C 410.036 -57.964 410.473 -56.513 411.442 -55.657 C 416.509 -51.185 419.337 -44.548 419.453 -37.500 C 419.562 -30.923 416.175 -23.468 419.453 -17.765 C 421.478 -14.242 427.519 -16.747 431.569 -16.419 C 444.392 -15.379 456.814 -14.619 469.679 -13.575 C 476.338 -13.034 483.010 -11.770 489.675 -12.220 C 514.339 -13.884 520.206 -17.603 547.343 -22.160 C 551.272 -22.819 609.017 -41.439 623.884 -24.224 C 631.005 -15.979 633.615 1.412 627.328 11 C 625.138 14.339 621.706 17.632 618.753 19.905 C 614.308 23.328 609.108 28.372 603.859 31.831 C 576.307 49.987 525.609 70.962 513.530 76.912 C 512.026 77.653 507.245 78.940 506.799 79.553 C 505.847 80.861 506.488 82.775 506.453 84.392 C 506.373 88.094 506.492 91.797 506.453 95.500 C 506.374 103.026 505.253 110.619 504.202 118.036 C 500.798 142.048 497.312 166.127 493.050 189.972 C 491.384 199.290 489.779 208.549 488.073 217.845 C 487.616 220.333 486.166 223.760 486.267 225.691 C 486.301 226.324 487.514 225.927 488.144 225.986 C 489.518 226.113 490.922 225.974 492.274 226.246 C 494.229 226.640 496.866 228.174 498.633 229.139 C 505.929 233.124 510.131 239.844 513.085 247.601 C 516.643 256.941 517.137 270.386 513.665 279.785 C 512.421 283.152 511.058 286.476 509.665 289.785 C 509.117 291.087 506.825 293.932 506.578 295.294 C 506.533 295.542 507.068 295.424 507.301 295.521 C 509.643 296.500 511.991 297.468 514.301 298.521 C 518.499 300.436 523.540 303.313 526.452 306.953 C 532.654 314.705 534.906 326.828 532.355 336.467 C 531.570 339.434 529.570 341.976 528.476 344.657 C 527.066 348.111 527.247 352.291 525.328 356 C 518.977 368.279 503.804 372.906 491.517 375.754 C 487.882 376.596 483.996 375.761 480.440 376.500 C 477.646 377.081 456.820 383.634 446.173 384.441 C 436.511 385.173 426.842 385.802 417.173 386.441 C 406.380 387.154 386.796 386.448 383.487 386.500 C 383.349 386.502 382.544 388.327 382.416 388.475 C 380.315 390.909 378.352 393.506 375.906 395.594 C 375.325 396.090 374.405 395.916 373.692 396.192 C 366.350 399.034 362.179 402.492 354.056 402.656 C 343.753 402.864 316.236 390.198 311.751 388.093 C 305.533 385.176 299.355 382.173 293.129 379.273 C 291.643 378.580 290.248 377.490 288.618 377.318 C 278.114 376.209 267.529 376.089 256.985 375.457 C 234.729 374.122 203.236 371.092 181.536 369.426 C 170.006 368.542 158.530 366.496 146.967 366.534 C 142.292 366.550 137.122 367.630 132.264 367.472 C 129.335 367.376 126.402 366.798 123.483 367.054 C 122.831 367.111 117.942 369.990 117.359 370.217 C 112.618 372.066 107.356 373.157 102.356 374.014 C 85.615 376.886 71.662 374.126 55.448 374.003 C 55.354 374.002 53.865 376.507 53.617 376.823 C 51.936 378.964 49.006 382.914 46.906 384.594 C 46.342 385.045 45.473 384.861 44.815 385.159 C 40.971 386.897 36.995 388.936 32.778 389.068 C 30.205 389.149 27.920 387.355 25.456 386.609 C 22.992 385.863 20.265 385.818 18 384.594 C 16.534 383.801 15.858 382.039 14.732 380.810 C 13.847 379.844 12.303 381.962 10.994 382.024 C 9.938 382.073 8.992 381.291 7.943 381.158 C 6.808 381.015 5.606 381.541 4.512 381.205 C 0.894 380.095 -2.863 379.018 -5.988 376.882 C -7.711 375.704 -8.143 373.292 -9.450 371.663 C -10.756 370.035 -13.017 369.090 -13.793 367.152 C -15.139 363.789 -16.404 354.148 -15.129 349.459 C -13.700 344.208 -8.332 340.086 -7.099 334.703 C -5.735 328.748 -5.250 322.626 -4.241 316.601 C -4.137 315.977 -3.223 315.099 -3.760 314.766 C -4.995 314.003 -6.699 314.671 -8.081 314.226 C -10.795 313.353 -12.381 310.480 -14.519 308.593 C -20.248 303.536 -25.621 299.778 -24.115 290.175 C -23.651 287.214 -22.345 282.267 -21.082 279.233 C -20.914 278.829 -18.820 275.966 -18.966 275.830 C -20.059 274.808 -22.340 278.226 -25.506 279.082 C -28.475 279.884 -37.504 279.014 -40.453 278.217 C -44.948 277.002 -47.175 274.716 -50.478 271.566 C -62.441 260.160 -56.538 245.093 -52.264 231.594 C -50.889 227.251 -49.869 222.488 -47.908 218.320 C -46.646 215.639 -43.879 212.422 -42.935 209.608 C -40.694 202.928 -38.856 196.286 -37.156 189.594 C -36.435 186.754 -35.928 183.843 -34.908 181.097 C -34.714 180.576 -33.685 180.544 -33.664 179.989 C -33.583 177.937 -35.431 176.029 -35.112 174 C -33.982 166.795 -30.271 159.632 -26.908 153.320 C -23.191 146.345 -15.564 143.478 -11.337 136.977 C -11.075 136.574 -13.226 130.296 -12.877 129.006 C -12.057 125.971 -10.413 123.220 -9.249 120.299 C -9.089 119.897 -8.695 119.420 -8.911 119.045 C -10.178 116.843 -12.725 115.070 -13.264 112.406 C -14.025 108.644 -14.656 104.837 -14.877 101.006 C -14.947 99.800 -14.544 98.594 -14.129 97.459 C -13.750 96.423 -11.349 94.435 -12.437 94.615 C -14.555 94.967 -49.405 103.950 -67.348 106.294 C -88.010 108.995 -108.674 111.679 -129.348 114.294 C -139.866 115.625 -165.746 116.780 -176.094 107.499 C -190.666 94.429 -183.920 74.831 -170.952 63.745 C -168.508 61.656 -165.562 60.013 -162.666 58.780 C -142.221 50.078 -121.839 41.226 -101.395 32.521 C -83.368 24.846 -63.677 21.891 -44.891 16.327 C -43.542 15.928 -46.433 13.922 -46.800 12.563 C -47.332 10.598 -47.586 8.536 -47.547 6.500 C -47.457 1.780 -46.376 -4.067 -43.641 -7.953 C -33.602 -22.211 -12.472 -19.224 2.139 -21.465 Z " transform="matrix(1, 0, 0, 1, -3.65, 11.5)"/>
    </g>
  </g>
</svg>