<svg version="1.1" width="238" height="222" viewBox="6 27 238 222" xmlns="http://www.w3.org/2000/svg" xmlns:xlink="http://www.w3.org/1999/xlink">
  <!-- Exported by Scratch - http://scratch.mit.edu/ -->
  <g id="ID0.5265975636430085" transform="matrix(1, 0, 0, 1, -242.6, -63.5)">
    <path id="ID0.323063971940428" fill="#FFFF00" stroke="none" d="M 393 238 C 408.174 238 421.924 242.650 431.881 250.163 C 441.837 257.675 448 268.050 448 279.500 C 448 290.950 441.837 301.325 431.881 308.837 C 421.924 316.350 408.174 321 393 321 C 377.826 321 364.076 316.350 354.119 308.837 C 344.163 301.325 338 290.950 338 279.500 C 338 268.050 344.163 257.675 354.119 250.163 C 364.076 242.650 377.826 238 393 238 Z " transform="matrix(-0.9795778393745422, -0.20106567442417145, -0.20106567442417145, 0.9795778393745422, 746.3, 56.75)"/>
    <path id="ID0.9738849266432226" fill="#FFFF00" stroke="none" d="M 301.500 248 C 317.364 248 331.739 252.930 342.148 260.896 C 352.557 268.861 359 279.861 359 292 C 359 304.139 352.557 315.139 342.148 323.104 C 331.739 331.070 317.364 336 301.500 336 C 285.636 336 271.261 331.070 260.852 323.104 C 250.443 315.139 244 304.139 244 292 C 244 279.861 250.443 268.861 260.852 260.896 C 271.261 252.930 285.636 248 301.500 248 Z " transform="matrix(-0.9795778393745422, -0.20106567442417145, -0.20106567442417145, 0.9795778393745422, 781.05, 41.25)"/>
    <path id="ID0.8476644423790276" fill="none" stroke="#FFFF00" stroke-width="13" stroke-linecap="round" d="M 271 222 L 278 81 L 404 113 L 386 238 " transform="matrix(-0.9795778393745422, -0.20106567442417145, -0.20106567442417145, 0.9795778393745422, 766.05, 75)"/>
  </g>
</svg>