<svg version="1.1" width="262" height="164" viewBox="-1 -1 262 164" xmlns="http://www.w3.org/2000/svg" xmlns:xlink="http://www.w3.org/1999/xlink">
  <!-- Exported by Scratch - http://scratch.mit.edu/ -->
  <g id="ID0.2517250059172511" transform="matrix(1.1384564638137817, -0.4141677916049957, 0.4141677916049957, 1.1384564638137817, -295.35, -24.5)">
    <g id="Layer_2" transform="matrix(1, 0, 0, 1, 195.75, 123.85)">
      <path id="ID0.5349301737733185" fill="#FAA51D" stroke="#231F20" stroke-width="1.2" d="M 52.709 14.156 C 51.169 14.013 47.959 13.840 46.191 13.925 C 41.463 14.150 36.967 15.853 36.967 15.853 L 23.949 7.357 L 26.184 26.263 C 26.830 25.481 15.629 39.067 22.705 50.487 C 29.785 61.913 44.938 67.005 63.693 63.279 C 82.448 59.550 86.922 48.748 85.679 43.033 C 84.437 37.319 77.357 35.210 77.357 35.210 C 77.357 35.210 77.267 30.730 74.029 25.240 C 72.103 21.972 65.681 17.199 65.681 17.199 L 62.822 5.647 L 55.370 12.851 L 52.709 14.156 Z " transform="matrix(1, 0, 0, 1, -1, -4)"/>
      <path id="ID0.33821341395378113" fill="#FFFFFF" d="M 76.420 35.066 L 73.938 33.002 L 64.823 35.663 C 64.823 35.663 64.823 39.082 60.456 40.030 C 56.086 40.981 49.245 37.753 49.245 37.753 L 41.460 41.170 C 41.460 41.170 33.023 42.098 32.721 47.251 C 32.048 58.704 46.100 63.479 51.425 63.783 C 54.330 63.950 59.660 63.445 63.702 62.642 C 81.454 59.408 86.253 48.723 85.012 43.007 C 83.770 37.293 77.034 35.811 77.034 35.811 L 76.420 35.066 Z " transform="matrix(1, 0, 0, 1, -1, -4)"/>
      <path id="ID0.5276660155504942" fill="none" stroke="#231F20" stroke-width="1.2" d="M 10.673 46.155 C 10.673 46.155 14.780 46.529 16.647 46.423 C 18.512 46.316 22.139 45.836 22.139 45.836 " transform="matrix(1, 0, 0, 1, -1, -4)"/>
      <path id="ID0.20987239247187972" fill="none" stroke="#231F20" stroke-width="1.2" d="M 81.656 40.671 C 81.656 40.671 86.205 39.928 88.515 39.122 C 91.230 38.180 93.058 36.577 93.058 36.577 " transform="matrix(1, 0, 0, 1, -1, -4)"/>
      <path id="ID0.9332323684357107" fill="none" stroke="#231F20" stroke-width="1.2" d="M 22.337 41.909 C 22.337 41.909 19.953 40.132 16.220 38.479 C 12.086 36.648 9.815 36.176 9.815 36.176 " transform="matrix(1, 0, 0, 1, -1, -4)"/>
      <path id="ID0.16135577345266938" fill="none" stroke="#231F20" stroke-width="1.2" d="M 82.117 46.622 C 82.117 46.622 84.843 47.726 87.650 48.007 C 90.420 48.283 92.296 48.117 92.296 48.117 " transform="matrix(1, 0, 0, 1, -1, -4)"/>
      <path id="ID0.9711056067608297" fill="none" stroke="#000000" stroke-linecap="round" d="M 52.350 14.212 C 55.190 14.912 56.237 15.681 56.237 15.681 " transform="matrix(1, 0, 0, 1, -1, -4)"/>
      <path id="ID0.6718857120722532" fill="none" stroke="#000000" d="M 33.898 13.684 L 39.956 18.042 " transform="matrix(1, 0, 0, 1, -1, -4)"/>
    </g>
    <path id="ID0.10769918374717236" fill="#FFFFFF" stroke="#231F20" d="M 71.840 25.366 C 74.764 29.845 74.873 34.957 72.082 36.781 C 69.289 38.606 64.656 36.449 61.728 31.968 C 58.795 27.488 58.691 22.379 61.484 20.553 C 64.275 18.730 68.913 20.884 71.840 25.366 Z " transform="matrix(1, 0, 0, 1, 194.75, 119.85)"/>
    <path id="ID0.096935432869941" fill="#231F20" d="M 71.089 32.522 C 71.089 33.602 70.287 34.478 69.289 34.478 C 68.296 34.478 67.486 33.601 67.486 32.522 C 67.486 31.442 68.296 30.564 69.289 30.564 C 70.287 30.564 71.089 31.442 71.089 32.522 " transform="matrix(1, 0, 0, 1, 193.5, 119.6)"/>
    <path id="ID0.24205661891028285" fill="#FFFFFF" stroke="#231F20" d="M 47.867 28.619 C 50.793 33.099 50.486 38.481 47.186 40.634 C 43.884 42.793 38.835 40.906 35.910 36.426 C 32.982 31.946 33.286 26.566 36.588 24.409 C 39.891 22.253 44.938 24.137 47.867 28.619 Z " transform="matrix(1, 0, 0, 1, 194.75, 119.85)"/>
    <path id="ID0.36201765527948737" fill="#231F20" d="M 46.079 34.507 C 46.079 35.588 45.276 36.464 44.278 36.464 C 43.286 36.464 42.475 35.586 42.475 34.507 C 42.475 33.427 43.286 32.550 44.278 32.550 C 45.274 32.550 46.079 33.427 46.079 34.507 " transform="matrix(1, 0, 0, 1, 193, 119.85)"/>
    <path id="ID0.9789959993213415" fill="#5E4A42" stroke="#000000" d="M 59.766 37.926 C 61.620 37.926 64.321 37.642 64.463 38.495 C 64.606 39.350 62.754 42.698 61.475 42.840 C 60.192 42.982 55.350 40.487 55.280 38.921 C 55.206 37.355 58.055 37.926 59.766 37.926 Z " transform="matrix(1, 0, 0, 1, 194.75, 119.85)"/>
    <g id="Layer_4" transform="matrix(1, 0, 0, 1, 195.75, 123.85)">
      <path id="ID0.4725899393670261" fill="none" stroke="#231F20" stroke-width="1.2" d="M 46.774 45.235 C 46.774 45.235 57.121 48.289 60.991 49.132 C 64.859 49.974 71.842 50.816 71.842 50.816 C 71.842 50.816 63.852 61.061 54.514 58.460 C 45.176 55.863 45.345 49.975 46.774 45.235 Z " transform="matrix(1, 0, 0, 1, -1, -4)"/>
    </g>
    <g id="ID0.1788471071049571" transform="matrix(1, 0, 0, 1, 195.75, 123.85)">
      <path id="ID0.027280720882117748" fill="#FFFF00" stroke="none" stroke-linecap="round" d="M 214.500 83 C 240.620 83 268.489 94.571 286.959 113.041 C 305.429 131.511 341.133 175.506 317 185.500 C 253.930 211.620 175.070 211.620 112 185.500 C 87.867 175.506 123.571 131.511 142.041 113.041 C 160.511 94.571 188.380 83 214.500 83 Z " transform="matrix(0.22194921970367432, 0, 0, 0.22194921970367432, 0.9, -17.4)"/>
      <path id="ID0.8255622205324471" fill="#FFFFFF" stroke="none" d="M 284 128 C 291.173 128 297.673 131.474 302.380 137.086 C 307.087 142.697 310 150.447 310 159 C 310 167.553 307.087 175.303 302.380 180.914 C 297.673 186.526 291.173 190 284 190 C 276.827 190 270.327 186.526 265.620 180.914 C 260.913 175.303 258 167.553 258 159 C 258 150.447 260.913 142.697 265.620 137.086 C 270.327 131.474 276.827 128 284 128 Z " transform="matrix(0.22194921970367432, 0, 0, 0.22194921970367432, -3.05, -21.65)"/>
      <path id="ID0.656756401527673" fill="none" stroke="#00FF55" stroke-width="2" d="M 268.500 128 C 270.845 128 272.970 129.289 274.509 131.370 C 276.048 133.452 277 136.327 277 139.500 C 277 142.673 276.048 145.548 274.509 147.630 C 272.970 149.711 270.845 151 268.500 151 C 266.155 151 264.030 149.711 262.491 147.630 C 260.952 145.548 260 142.673 260 139.500 C 260 136.327 260.952 133.452 262.491 131.370 C 264.030 129.289 266.155 128 268.500 128 Z " transform="matrix(0.22194921970367432, 0, 0, 0.22194921970367432, 0.9, -17.4)"/>
      <path id="ID0.6880330848507583" fill="none" stroke="#CCCC00" stroke-width="2" d="M 267.500 110 C 274.811 110 281.436 113.418 286.233 118.939 C 291.031 124.460 294 132.085 294 140.500 C 294 148.915 291.031 156.540 286.233 162.061 C 281.436 167.582 274.811 171 267.500 171 C 260.189 171 253.564 167.582 248.767 162.061 C 243.969 156.540 241 148.915 241 140.500 C 241 132.085 243.969 124.460 248.767 118.939 C 253.564 113.418 260.189 110 267.500 110 Z " transform="matrix(0.22194921970367432, 0, 0, 0.22194921970367432, 0.9, -17.4)"/>
      <path id="ID0.993488347157836" fill="none" stroke="#FFFF99" stroke-width="5" stroke-linecap="round" d="M 300 113 L 343 95 " transform="matrix(0.22194921970367432, 0, 0, 0.22194921970367432, 0.9, -17.4)"/>
      <path id="ID0.25363350845873356" fill="none" stroke="#FFFF99" stroke-width="5" stroke-linecap="round" d="M 332 157 L 376 169 " transform="matrix(0.22194921970367432, 0, 0, 0.22194921970367432, 0.9, -17.4)"/>
      <path id="ID0.6729364939965308" fill="none" stroke="#FFFF99" stroke-width="5" stroke-linecap="round" d="M 337 132 L 393 117 " transform="matrix(0.22194921970367432, 0, 0, 0.22194921970367432, 0.9, -17.4)"/>
    </g>
  </g>
</svg>