<svg version="1.1" width="493" height="368" viewBox="-1 -1 493 368" xmlns="http://www.w3.org/2000/svg" xmlns:xlink="http://www.w3.org/1999/xlink">
  <!-- Exported by Scratch - http://scratch.mit.edu/ -->
  <g id="ID0.23501505283638835" transform="matrix(1.0499999523162842, 0, 0, 1.0499999523162842, -11.95, -24.05)">
    <g id="legacy">
      <g id="blue-sky">
        <path id="ID0.3961414685472846" fill="#99FFFF" stroke="#CCFFFF" stroke-width="2.00405817" d="M 0.050 0 L 480.992 0 L 480.992 290 L 1.004 275 L 0.050 0 "/>
        <path id="ID0.42040406772866845" fill="#00CC44" stroke="#00CC44" stroke-width="2.88235283" d="M 444.991 247.426 C 457.044 246.892 470.610 251.672 477.994 260.974 C 485.857 270.833 483.703 285.537 483.038 298.012 C 483.362 310.848 484.691 325.551 476.985 335.987 C 469.866 345.653 456.898 352.707 444.991 352.632 C 427.278 352.521 407.095 346.738 394.051 337.216 C 381.007 327.693 372.932 314.542 372.932 300.029 C 372.932 285.517 381.007 272.366 394.051 262.843 C 407.095 253.321 427.291 248.197 444.991 247.426 Z "/>
        <path id="ID0.42040406772866845" fill="#00CC44" stroke="#00CC44" stroke-width="2.06637253" d="M 80.018 237.576 C 95.436 237.576 109.406 241.426 119.522 247.644 C 129.638 253.864 135.900 262.452 135.900 271.929 C 135.900 281.407 129.638 289.995 119.522 296.215 C 109.406 302.433 95.436 306.282 80.018 306.282 C 64.600 306.282 50.629 302.433 40.513 296.215 C 30.397 289.995 24.135 281.407 24.135 271.929 C 24.135 262.452 30.397 253.864 40.513 247.644 C 50.629 241.426 64.600 237.576 80.018 237.576 Z "/>
        <path id="ID0.42040406772866845" fill="#00CC44" stroke="#00CC44" stroke-width="2.88235283" d="M 193.491 229.876 C 213.372 229.876 231.387 235.771 244.431 245.293 C 257.475 254.816 265.550 267.967 265.550 282.479 C 265.550 296.992 257.475 310.143 244.431 319.666 C 231.387 329.188 213.372 335.082 193.491 335.082 C 173.610 335.082 155.595 329.188 142.551 319.666 C 129.507 310.143 121.432 296.992 121.432 282.479 C 121.432 267.967 129.507 254.816 142.551 245.293 C 155.595 235.771 173.610 229.876 193.491 229.876 Z "/>
        <path id="ID0.42040406772866845" fill="#00CC44" stroke="#00CC44" stroke-width="2.88235283" d="M 321.491 237.876 C 341.372 237.876 359.387 243.771 372.431 253.293 C 385.475 262.816 393.550 275.967 393.550 290.479 C 393.550 304.992 385.475 318.143 372.431 327.666 C 359.387 337.188 341.372 343.082 321.491 343.082 C 301.610 343.082 283.595 337.188 270.551 327.666 C 257.507 318.143 249.432 304.992 249.432 290.479 C 249.432 275.967 257.507 262.816 270.551 253.293 C 283.595 243.771 301.610 237.876 321.491 237.876 Z "/>
        <path id="ID0.42040406772866845" fill="#00CC44" stroke="#00CC44" stroke-width="1.65923341" d="M -2.002 244.997 C 3.943 241.784 14.197 255.318 20.587 264.194 C 25.402 270.868 30.852 279.180 30.852 288.479 C 30.852 297.779 26.820 308.726 20.587 312.765 L -0.005 308.997 L -0.986 274.032 C -1.308 262.389 -6.843 246.703 -2.002 244.997 Z "/>
        <path id="ID0.03885363461449742" fill="#00CC44" stroke="#00CC44" stroke-width="2" d="M 2 279 L 472 276 L 480 336 L 0 341 L 2 279 "/>
        <path id="ID0.33250138349831104" fill="#663B00" stroke="#663B00" stroke-width="2.62811965" d="M -4.988 338.617 L 479.987 338.617 L 479.987 363.550 L -4.988 363.550 L -4.988 338.617 "/>
      </g>
    </g>
  </g>
</svg>