<svg version="1.1" xmlns="http://www.w3.org/2000/svg" xmlns:xlink="http://www.w3.org/1999/xlink" width="283.87947" height="214.7773" viewBox="0,0,283.87947,214.7773"><g transform="translate(-91.52793,-21.08965)"><g data-paper-data="{&quot;isPaintingLayer&quot;:true}" fill="#e8ff00" fill-rule="nonzero" stroke="none" stroke-width="0.5" stroke-linecap="butt" stroke-linejoin="miter" stroke-miterlimit="10" stroke-dasharray="" stroke-dashoffset="0" style="mix-blend-mode: normal"><path d="M171.74182,179.32887c-2.19499,-0.81557 -4.63493,-0.6731 -6.89115,-0.6731c-5.1546,0 -13.39882,-1.89082 -17.89754,-4.28076c-24.87948,-13.21722 -45.2865,-36.46781 -53.8068,-63.24587c-3.00111,-9.43206 -1.46511,-19.82934 1.64607,-29.02184c2.47246,-7.30528 4.5406,-14.91706 9.56698,-21.06041c7.7905,-9.52172 22.80666,-13.91825 34.60554,-10.3051c7.13535,2.18505 14.69036,4.9733 20.46363,9.79508c4.52837,3.78205 8.12337,8.59687 11.88351,12.95146c2.14717,2.48662 5.04844,4.46394 7.1042,7.03625c0.53193,0.66558 0.91562,1.43388 1.29365,2.21649c1.64982,-3.18627 4.21331,-6.16104 5.76088,-9.32415c2.80541,-5.73405 3.17905,-13.56036 6.10733,-19.41692c2.33258,-4.66517 9.96761,-14.43545 13.45358,-17.92142c1.98394,-1.98394 9.89396,-9.37664 11.9683,-10.67233c3.37169,-2.10605 14.60377,-5.27006 19.14876,-4.04169c1.71345,0.46309 2.97733,1.97317 4.61715,2.6524c1.63982,0.67924 3.6013,0.50515 5.14035,1.38928c1.23776,0.71106 2.72082,3.07107 3.76946,4.36464c7.89216,9.73547 7.15349,17.56494 7.77741,29.07634c0.16758,3.09195 2.15769,6.0784 2.75822,9.14098c0.45879,2.33972 2.20375,11.40668 3.5715,12.26953c0.64384,0.40617 1.56023,-2.56209 1.70714,-2.73317c2.14602,-2.49905 4.5275,-4.79727 6.98771,-6.98771c5.30684,-4.72492 10.86351,-9.00233 16,-14c8.82928,-8.59065 14.45596,-10.28723 26.29891,-13.08297c3.47451,-0.82022 7.6417,-2.83765 11.07406,-2.10966c3.70265,0.78532 7.39584,1.65684 11.00565,2.79508c9.17003,2.8915 12.18279,16.14035 12.59681,24.22169c0.13951,2.72323 -0.983,5.41372 -1,8.10945c-0.06522,10.34359 -1.16746,20.30204 -5.28292,29.93524c-1.46795,3.43609 -5.19216,8.18549 -5.92662,11.18967c-0.85892,3.51328 -1.25461,7.08292 -2.91546,10.40463c-1.31746,2.63493 -2.89844,5.57386 -3.46604,8.55362c-0.08582,0.45053 1.54702,0.96593 1.56647,0.98325c3.517,3.13135 7.15968,6.25541 10.446,9.54172c1.16473,1.16473 2.44639,2.21577 3.54172,3.446c4.91018,5.51492 8.80223,10.99449 13.1782,16.86446c1.90776,2.55909 3.67206,3.52979 5.8218,6.13554c6.40323,7.76149 11.36878,21.64411 9.64624,31.88167c-4.15325,24.68393 -32.01921,28.33965 -52.10937,19.96875c-4.94258,-2.05941 -10.629,-9.97166 -14.42767,-13.94733c-3.00183,-3.1417 -6.87,-5.74882 -10.03547,-8.95224c-4.41372,-4.46664 -8.8456,-9.18964 -13,-14c-0.60526,-0.70083 -3.70152,-4.94273 -3.90535,-4.97542c-4.38692,-0.70367 -5.18144,1.49044 -8.10384,4.02767c-0.61076,0.53026 -3.42758,5.94553 -3.7633,6.47183c-2.45404,3.84717 -5.69297,7.77194 -8.84295,10.92192c-7.75482,7.75482 -17.69118,13.26125 -27.31751,18.47747c-1.77008,0.95915 -2.71132,3.18753 -4.60391,3.97611c-2.88983,1.2041 -6.47474,2.19965 -9.1863,3.419c-8.66684,3.89736 -11.6502,3.73881 -20.55926,4.58145c-0.76123,0.072 -1.50611,0.63886 -2.2483,0.45501c-16.72784,-4.14368 -27.37388,-22.15696 -22.26437,-38.84225c1.58855,-5.18747 4.12653,-9.29482 7.24729,-13.19825c-3.53411,-1.56869 -6.96048,-3.25728 -10.20037,-4.46109z"/></g></g></svg>