<svg version="1.1" xmlns="http://www.w3.org/2000/svg" xmlns:xlink="http://www.w3.org/1999/xlink" width="41.75988" height="38.47691" viewBox="0,0,41.75988,38.47691"><g transform="translate(-219.12007,-169.61868)"><g data-paper-data="{&quot;isPaintingLayer&quot;:true}" fill-rule="nonzero" stroke="none" stroke-linecap="butt" stroke-linejoin="miter" stroke-miterlimit="10" stroke-dasharray="" stroke-dashoffset="0" style="mix-blend-mode: normal"><path d="M227.63001,184.12501c0.31415,-0.17671 0.67346,-0.32588 1.0711,-0.44877c1.05681,-0.43582 2.21478,-0.67623 3.4289,-0.67623c0.87565,0 1.7221,0.12505 2.52245,0.35828c5.55927,0.58106 12.16236,3.04904 14.14928,6.36057c1.09614,1.82689 1.02102,7.15709 0.50312,9.05608c-0.24689,0.90528 -7.00791,4.8842 -7.54673,5.03115c-2.40674,0.65638 -7.05462,-2.18672 -9.62812,-2.80608c-0.63529,0 -1.25521,-0.06582 -1.85331,-0.19102c-4.08144,-0.85436 -7.14669,-4.47371 -7.14669,-8.80898c0,-2.92886 1.39904,-5.53096 3.56529,-7.17446c0.27708,-0.26824 0.58602,-0.5044 0.93471,-0.70054z" fill="#6b3700" stroke-width="0.5"/><path d="M243.47161,187.45014c-7.44203,-2.13358 -17.9366,0.40095 -21.89962,7.71452c-0.01927,-0.72595 -0.01981,-1.50788 0.00333,-2.0005c0.14399,-3.06557 1.4835,-4.99005 3.54453,-6.48071c0.12971,-0.0531 0.25878,-0.13781 0.37663,-0.26336c0.72505,-0.488 1.53643,-0.94195 2.40395,-1.37571c0,0 0.68997,-0.34644 0.7182,-1.03285c1.71396,-1.39765 2.88242,-1.13378 5.17349,-1.13378c3.77711,0 8.7322,-0.7686 12.317,0.64368c5.38094,2.1199 6.8218,8.13406 5.79592,13.25763c-0.59833,6.3133 -6.71435,8.68842 -12.84862,8.49202c-0.0622,-1.76894 4.33729,-2.20682 5.63514,-3.22417c1.39924,-1.09683 3.49901,-2.97467 3.98151,-4.75414c1.08358,-3.99625 -2.40242,-7.72092 -5.20147,-9.84263z" data-paper-data="{&quot;noHover&quot;:false,&quot;origItem&quot;:[&quot;Path&quot;,{&quot;applyMatrix&quot;:true,&quot;segments&quot;:[[[244.05902,183.48911],[0,0],[2.79905,2.12171]],[[249.27299,193.38032],[1.08358,-3.99625],[-0.4825,1.77947]],[[245.27819,198.1568],[1.39924,-1.09683],[-1.29785,1.01735]],[[239.59858,201.29605],[-0.0622,-1.76894],[6.13427,0.1964]],[[252.40766,192.84394],[-0.59833,6.3133],[1.02588,-5.12357]],[[246.62772,179.63288],[5.38094,2.1199],[-3.5848,-1.41228]],[[234.35715,179],[3.77711,0],[-2.29107,0]],[[229.20224,180.12413],[1.71396,-1.39765],[-0.02823,0.68641]],[[228.48759,181.15375],[0,0],[-0.86752,0.43376]],[[226.08988,182.52184],[0.72505,-0.488],[-0.11785,0.12555]],[[225.71409,182.7839],[0.12971,-0.0531],[-2.06103,1.49066]],[[222.17703,189.24085],[0.14399,-3.06557],[-0.02314,0.49262]],[[222.07392,191.2426],[-0.01927,-0.72595],[3.96302,-7.31357]],[[244.05903,183.48912],[-7.44203,-2.13358],[0,0]]],&quot;closed&quot;:true,&quot;fillColor&quot;:[0,0,0],&quot;strokeWidth&quot;:0.5}]}" fill="#ffa100" stroke-width="0.25"/><path d="M254.66176,193.27616c-0.13451,-4.36556 -1.98451,-8.73204 -5.74965,-11.09843l0.66738,-0.58327c0.16263,-0.25589 0.35955,-0.49909 0.55795,-0.73442c0.12754,0.02277 0.21521,0.02213 0.21521,0.02213c1.45078,-0.00626 3.5815,-0.87407 4.97827,-0.4815c0.93565,0.26297 1.85114,1.56636 2.25207,2.37682c2.02473,4.09283 -0.65992,7.27451 -2.92124,10.49867z" data-paper-data="{&quot;noHover&quot;:false,&quot;origItem&quot;:[&quot;Path&quot;,{&quot;applyMatrix&quot;:true,&quot;segments&quot;:[[[258.09957,178.88704],[2.02473,4.09283],[-0.40093,-0.81046]],[[255.86968,176.52299],[0.93565,0.26297],[-1.39677,-0.39257]],[[250.92857,177],[1.45078,-0.00626],[0,0]],[[250.71449,176.97723],[0.12754,0.02277],[-0.1984,0.23533]],[[250.16192,177.70801],[0.16263,-0.25589],[0,0]],[[249.49957,178.2868],[0,0],[3.76514,2.36639]],[[255.20552,189.30085],[-0.13451,-4.36556],[2.26132,-3.22416]]],&quot;closed&quot;:true,&quot;fillColor&quot;:[0,0,0],&quot;strokeWidth&quot;:0.5}]}" fill="#ffa100" stroke-width="0.25"/><path d="M246.89755,180.73889c0,0 -0.15377,0.13322 -0.28433,0.35199c-3.88095,-1.32657 -8.83906,-0.63049 -12.84412,-0.63049c-2.92068,0 -4.54841,-0.16613 -6.87443,1.81757l-0.31692,0.11685c0,0 -0.63631,0.31537 -0.70972,0.95061c-0.41296,0.23004 -0.89691,0.51214 -1.27337,0.75672c-2.41772,-1.69513 -1.13768,-5.32246 1.05651,-7.00439c1.09453,-0.83899 2.58064,-0.78503 3.84452,-1.27235c3.10706,-1.19799 5.89596,-2.93047 9.22444,-3.53003c2.66692,-0.29899 6.00261,-0.39504 8.50444,0.65505c0.00104,0.00044 1.63163,0.69135 1.75923,1.0457c0.24424,0.67829 0.01093,1.45028 0.05147,2.17006c0.0388,0.68891 0.33121,1.43546 0.07629,2.07665c-0.27305,0.68678 -0.96112,1.1389 -1.34738,1.76901l-0.86664,0.72707z" data-paper-data="{&quot;noHover&quot;:false,&quot;origItem&quot;:[&quot;Path&quot;,{&quot;applyMatrix&quot;:true,&quot;segments&quot;:[[247.4008,176.80093],[[248.26665,176.0777],[0,0],[0.38626,-0.63011]],[[249.61336,174.31632],[-0.27305,0.68678],[0.25492,-0.64119]],[[249.53763,172.2477],[0.0388,0.68891],[-0.04054,-0.71978]],[[249.48801,170.0855],[0.24424,0.67829],[-0.1276,-0.35435]],[[247.73111,169.0457],[0.00104,0.00044],[-2.50183,-1.05009]],[[239.25236,168.41541],[2.66692,-0.29899],[-3.32848,0.59956]],[[230.09486,171.91542],[3.10706,-1.19799],[-1.26388,0.48732]],[[226.25274,173.17651],[1.09453,-0.83899],[-2.19419,1.68193]],[[225.19091,180.15329],[-2.41772,-1.69513],[0.37646,-0.24458]],[[226.37518,179.44198],[-0.41296,0.23004],[0.07341,-0.63524]],[227.08383,178.48911],[[227.40079,178.37236],[0,0],[2.32602,-1.9837]],[[234.35714,176.5],[-2.92068,0],[4.00506,0]],[[247.11695,177.15108],[-3.88095,-1.32657],[0.13056,-0.21877]],[247.40079,176.80093]],&quot;closed&quot;:true,&quot;fillColor&quot;:[0,0,0],&quot;strokeWidth&quot;:0.5}]}" fill="#ffa100" stroke-width="0.25"/><path d="M224.38881,181.28619c0.70162,-1.01342 1.8342,-1.81702 3.02856,-2.12168c0,0 0.14585,-0.02917 0.34698,-0.01707c0.30826,-0.15006 0.61245,-0.15006 0.61245,-0.15006l0.86196,0.00765c5.63703,-0.61903 11.98173,-2.19673 17.51407,-0.28569c0.27671,0.91888 1.25606,1.8967 0.83014,2.75664c-0.37777,0.76271 -1.6367,0.52122 -2.48542,0.58537c-2.08032,0.15724 -4.51688,-0.88265 -6.64702,-0.99445c-4.7972,-0.25178 -8.45347,0.84504 -12.5069,2.96369c-0.14692,0.15096 -0.34818,0.2859 -0.61482,0.32739c-0.16183,0.08771 -0.32441,0.17699 -0.48782,0.26781c0,0 -1.0927,0.60705 -1.69975,-0.48564c-0.60705,-1.0927 0.48564,-1.69975 0.48564,-1.69975c0.15199,-0.0844 0.30347,-0.16757 0.45449,-0.24951z" fill="#ff8200" stroke-width="0.5"/><path d="M253.49187,191.81597c-0.89651,-0.77822 -0.90834,-3.12287 -1.60363,-4.19179l-0.70407,-1.12651c-0.12667,-0.19548 -0.20022,-0.42857 -0.20022,-0.67884c0,-0.41454 0.20179,-0.78195 0.5125,-1.00936c-1.04367,-0.51497 -2.62856,-0.90582 -3.36217,-1.36463c0,0 -1.05458,-0.67109 -0.38348,-1.72567c0.67109,-1.05458 1.72567,-0.38348 1.72567,-0.38348c1.48055,0.96249 3.43776,1.06211 4.68231,2.35649c0.63537,0.66081 1.04287,1.42428 1.31439,2.23908l0.17693,0.35409c0.48641,1.10375 2.08797,2.51236 2.59516,3.69521c0.27722,0.42475 0.46119,0.8497 0.51607,1.26559c0.1142,0.86555 -0.77062,1.56685 -1.15593,2.35028l-0.65716,-0.11295v0.29964h-1.42857v0c-0.68919,0 -1.24811,-0.55776 -1.25,-1.24651l-0.56349,-0.48299l0.03901,-0.04551c-0.08793,-0.05834 -0.17257,-0.12204 -0.25331,-0.19213z" fill="#ff8200" stroke-width="0.5"/><path d="M247.09957,188.99293c0.7366,0.27208 1.61346,0.34911 2.03597,0.97536c0.07633,0.11314 0.14393,0.23049 0.20443,0.35127l0.0769,-0.05126l0.45668,0.68501c0.81541,0.40036 1.82997,0.92302 2.2975,1.46682c2.23061,2.59449 -0.31394,6.69348 -2.12817,8.78042c-3.01699,3.47051 -6.83479,4.92336 -10.95179,4.1846v0.25509h-1.28571c-0.16004,0 -0.31305,-0.03007 -0.45369,-0.08488c-0.12235,-0.65975 -0.30947,-1.29677 -0.55451,-1.9042c0.12231,-0.16656 0.28489,-0.3017 0.4734,-0.39106l1.11864,-0.55932l0.02285,0.04571l0.09003,-0.09535c2.35474,-0.64968 7.31559,-1.64103 8.83739,-3.81552c0.52382,-0.74848 0.21537,-2.33676 0.21588,-3.15966c0.00071,-1.14733 -0.32822,-2.22265 -0.87243,-3.21181l-0.61859,-0.61859l0.14543,-0.14543c-0.09871,-0.14321 -0.20168,-0.28434 -0.30853,-0.42335c-0.11769,-0.07725 -0.24043,-0.15887 -0.36994,-0.24258c-0.36793,-0.07981 -0.97593,-0.34359 -0.97593,-1.21537c0,-0.00507 0.00002,-0.01012 0.00006,-0.01515c-0.70456,-0.6618 -1.47835,-1.256 -2.25795,-1.77474c-1.68873,-1.01749 -4.11006,-0.52618 -6.06354,-0.53154c-6.07218,-0.01666 -11.2009,1.90119 -13.55369,7.78567c0,0 -0.46424,1.1606 -1.62483,0.69636c-1.1606,-0.46424 -0.69636,-1.62483 -0.69636,-1.62483c2.75142,-6.87572 8.78541,-9.33951 15.87488,-9.35719c2.61356,-0.00652 5.01983,-0.34148 7.36503,0.89703c1.15647,0.77223 2.39552,1.84285 3.50059,3.09851z" fill="#ff8200" stroke-width="0.5"/><path d="M228.97528,197.49542c-0.0449,-0.00655 -0.08991,-0.0128 -0.135,-0.01875l0.17896,-0.30097c0,0 0.06608,-0.11014 0.19119,-0.23862c0.00799,-0.01813 0.01602,-0.0363 0.02411,-0.05451c0,0 0.50767,-1.14226 1.64994,-0.63459c1.14226,0.50767 0.63459,1.64994 0.63459,1.64994c-0.96105,2.16107 -1.03512,3.39472 -1.03512,5.77804v0.69161c1.82423,0.73259 5.26621,1.67713 6.52141,1.10222c0.13658,-0.06255 0.21894,-0.16695 0.26742,-0.29773c-0.0935,-0.41284 -0.21254,-0.81599 -0.35537,-1.2077c0.21252,-0.38842 0.49921,-0.73429 0.8402,-1.04907c0.12788,-0.23451 0.25576,-0.46901 0.38364,-0.70352l0.21782,-0.57147c0,0 0.00798,-0.01996 0.02447,-0.05359c-0.15945,-1.56118 -0.90672,-3.78314 -0.47197,-5.03878c0.33771,-0.97536 1.414,-1.5188 1.97336,-2.38626c0.30412,-0.47162 0.95541,-1.56974 0.39814,-1.63577c-1.4979,-0.17748 -4.02526,-0.37514 -5.3815,0.49258c-1.99692,1.27761 -2.38472,2.69688 -5.09618,2.76464c-2.74049,-0.00386 -5.0383,-0.56448 -5.54974,2.15194c-0.02656,0.00917 -0.05306,0.01844 -0.07952,0.02782c-0.26805,1.0777 -0.57556,2.28653 -0.35877,3.09188c0.21332,0.79249 3.27043,0.47331 4.21603,0.67203c0.0918,-1.46846 0.33745,-2.72365 0.94188,-4.23135zM239.68825,204.54825c-0.04698,0.21422 -0.09132,0.44591 -0.14142,0.68414c5.96056,0.05612 11.72699,-2.32081 12.30905,-8.46249c1.02588,-5.12357 -0.399,-11.09116 -5.77994,-13.21106c-3.5848,-1.41228 -8.49346,-0.63288 -12.27057,-0.63288c-2.29107,0 -3.44095,-0.27352 -5.15491,1.12413c-0.02823,0.68641 -0.71465,1.02962 -0.71465,1.02962c-0.86752,0.43376 -1.67266,0.88009 -2.39771,1.36809c-0.11785,0.12555 -0.24608,0.20896 -0.37579,0.26206c-2.06103,1.49066 -3.39307,3.39138 -3.53706,6.45695c-0.02314,0.49262 -0.12238,1.2758 -0.10311,2.00175c3.96302,-7.31357 14.54308,-9.88706 21.98511,-7.75348l-0.00001,-0.00001c2.79905,2.12171 6.29755,5.89496 5.21397,9.89121c-0.4825,1.77947 -2.59556,3.67965 -3.9948,4.77648c-0.90069,0.70602 -3.31659,1.09207 -4.69006,1.85346c-0.11604,0.20401 -0.23207,0.40801 -0.34811,0.61202zM228.45508,206.18063c-0.8171,-0.50329 -0.98187,-1.67508 -1.66631,-2.34776c-0.47081,-0.46273 -1.32427,0.17297 -1.97858,0.08544c-1.62803,-0.21778 -2.39897,-0.06361 -3.30252,-1.90686c-0.35355,-0.72125 -0.29058,-1.73098 -0.11243,-2.75742c-0.28829,0.07134 -0.57164,0.15518 -0.84945,0.25092c-0.26199,-0.30694 -0.28298,-0.6988 -0.26865,-0.92241c-0.19458,-0.20308 -0.37188,-0.42235 -0.52561,-0.66292c-0.75727,-1.18501 -0.61963,-2.24357 -0.62472,-3.52937c-0.01536,-3.88337 1.19145,-6.62082 3.49764,-8.75867c-2.68213,-2.45466 -2.07772,-6.39629 0.36618,-9.33046c1.64676,-1.97712 3.4573,-1.93011 5.64846,-2.79057c3.28317,-1.28928 6.17193,-2.99639 9.69964,-3.64285c3.53498,-0.38981 11.00592,-0.86144 12.90721,3.18705c0.42367,0.90213 0.18153,1.98549 0.23609,2.98066c0.01417,0.25839 0.00878,1.47903 -0.01935,2.30599c1.5073,-0.21119 3.14739,-0.71528 4.54444,-0.29557c4.13755,1.24301 5.95768,7.71839 4.21264,11.3102c-1.10976,2.28422 -2.99954,4.38464 -4.35439,6.55386l-0.74754,0.79281c0,0 -0.32518,0.32518 -0.77831,0.38383c-0.00437,0.02232 -0.00878,0.04462 -0.01323,0.06692c-0.98067,7.9222 -8.66221,10.96959 -16.17436,10.54098c-2.18409,1.14621 -7.91778,-0.41799 -9.69685,-1.51381zM246.84903,180.72689l0.86585,-0.72323c0.38626,-0.63011 1.07366,-1.0746 1.34671,-1.76138c0.25492,-0.64119 -0.03693,-1.37971 -0.07573,-2.06862c-0.04054,-0.71978 0.19462,-1.48391 -0.04962,-2.1622c-0.1276,-0.35435 -1.75586,-1.03936 -1.7569,-1.0398c-2.50183,-1.05009 -5.81183,-0.92928 -8.47875,-0.63029c-3.32848,0.59956 -6.05044,2.30202 -9.1575,3.50001c-1.26388,0.48732 -2.74759,0.4221 -3.84212,1.26109c-2.19419,1.68193 -3.47955,5.28165 -1.06183,6.97678c0.37646,-0.24458 0.77131,-0.48127 1.18427,-0.71131c0.07341,-0.63524 0.70865,-0.95287 0.70865,-0.95287l0.31696,-0.11675c2.32602,-1.9837 4.03567,-1.87236 6.95635,-1.87236c4.00506,0 8.87886,-0.67549 12.75981,0.65108c0.13056,-0.21877 0.28384,-0.35015 0.28384,-0.35015zM257.5478,182.813c-0.40093,-0.81046 -1.29424,-2.10108 -2.22989,-2.36405c-1.39677,-0.39257 -3.49033,0.47075 -4.94111,0.47701c0,0 -0.08654,0 -0.21408,-0.02277c-0.1984,0.23533 -0.38994,0.47489 -0.55257,0.73078l-0.66235,0.57879c3.76514,2.36639 5.57144,6.64849 5.70595,11.01405c2.26132,-3.22416 4.91878,-6.32098 2.89405,-10.41381zM229.80537,193.2831c1.98451,0.08158 2.19679,-1.41467 3.76096,-2.37822c1.56107,-0.96163 6.0545,-1.63019 7.76136,-0.65028c4.0604,2.33108 -0.10713,5.01189 -1.05707,7.12083c-0.22318,0.49548 0.25208,2.395 0.5017,3.70214c3.00467,-1.43396 6.31803,-2.69892 5.25698,-6.49652c-0.33034,-1.18231 -0.37462,-1.17119 -1.01492,-2.27011c-0.6848,-1.17529 -1.57512,-1.81299 -2.62517,-2.65981c-5.92137,-1.50384 -11.08402,-0.33849 -15.61833,3.7163c0.93945,-0.08378 1.96381,-0.08297 3.03449,-0.08434z" fill="#000000" stroke-width="0.5"/><path d="M228.07504,201.6991c-0.94559,-0.19872 -4.0929,0.16009 -4.30622,-0.6324c-0.21679,-0.80535 0.0897,-2.03266 0.35775,-3.11036c0.02645,-0.00938 0.05299,-0.01889 0.07955,-0.02806c0.51144,-2.71641 2.82962,-2.18964 5.57011,-2.18578c2.71146,-0.06776 3.14947,-1.49178 5.14639,-2.76939c1.35624,-0.86772 3.90171,-0.65581 5.39961,-0.47833c0.55727,0.06603 -0.09076,1.16877 -0.39488,1.64039c-0.55936,0.86746 -1.63205,1.41782 -1.96976,2.39318c-0.43475,1.25564 0.31274,3.5162 0.47219,5.07738c-0.01649,0.03363 -0.02464,0.05399 -0.02464,0.05399l-0.21974,0.57552c-0.12788,0.23451 -0.2588,0.47401 -0.38668,0.70851c-0.341,0.31478 -0.634,0.6681 -0.84653,1.05652c0.14283,0.39171 0.25916,0.79729 0.35266,1.21014c-0.04848,0.13079 -0.13276,0.2367 -0.26934,0.29926c-1.2552,0.57491 -4.74194,-0.36171 -6.56618,-1.0943l-0.00194,-0.69225c0,-2.38332 0.06678,-3.70809 1.02783,-5.86916c0,0 0.55198,-1.0527 -0.59028,-1.56037c-1.14226,-0.50767 -1.63013,0.61862 -1.63013,0.61862c-0.00809,0.01821 -0.01565,0.03572 -0.02364,0.05385c-0.1251,0.12848 -0.18888,0.23507 -0.18888,0.23507l-0.17671,0.29669c0.0451,0.00595 0.08985,0.01272 0.13476,0.01927c-0.60443,1.5077 -0.8535,2.71355 -0.9453,4.18201z" data-paper-data="{&quot;noHover&quot;:false,&quot;origItem&quot;:[&quot;Path&quot;,{&quot;applyMatrix&quot;:true,&quot;segments&quot;:[[[229.52705,193.56946],[-0.60443,1.5077],[-0.0449,-0.00655]],[[229.39204,193.55071],[0.0451,0.00595],[0,0]],[229.57101,193.24974],[[229.76219,193.01112],[-0.1251,0.12848],[0.00799,-0.01813]],[[229.78631,192.95661],[-0.00809,0.01821],[0,0]],[[231.43624,192.32202],[-1.14226,-0.50767],[1.14226,0.50767]],[[232.07084,193.97196],[0,0],[-0.96105,2.16107]],[[231.03571,199.75],[0,-2.38332],[0,0]],[[231.03571,200.44161],[0,0],[1.82423,0.73259]],[[237.55712,201.54383],[-1.2552,0.57491],[0.13658,-0.06255]],[[237.82455,201.2461],[-0.04848,0.13079],[-0.0935,-0.41284]],[[237.46918,200.03839],[0.14283,0.39171],[0.21252,-0.38842]],[[238.30938,198.98932],[-0.341,0.31478],[0.12788,-0.23451]],[[238.69302,198.2858],[-0.12788,0.23451],[0,0]],[238.91083,197.71433],[[238.9353,197.66074],[-0.01649,0.03363],[-0.15945,-1.56118]],[[238.46334,192.62196],[-0.43475,1.25564],[0.33771,-0.97536]],[[240.4367,190.2357],[-0.55936,0.86746],[0.30412,-0.47162]],[[240.83484,188.59993],[0.55727,0.06603],[-1.4979,-0.17748]],[[235.45334,189.09251],[1.35624,-0.86772],[-1.99692,1.27761]],[[230.35716,191.85715],[2.71146,-0.06776],[-2.74049,-0.00386]],[[224.80742,194.00909],[0.51144,-2.71641],[-0.02656,0.00917]],[[224.7279,194.03691],[0.02645,-0.00938],[-0.26805,1.0777]],[[224.36914,197.12879],[-0.21679,-0.80535],[0.21332,0.79249]],[[228.58516,197.80082],[-0.94559,-0.19872],[0.0918,-1.46846]]],&quot;closed&quot;:true}]}" fill="#ffffff" stroke-width="0.5"/><path d="M230.76616,196.78543c-1.07187,-0.64312 -1.70141,0.41098 -1.70141,0.41098l-0.17201,0.28732c-0.44888,-0.06164 -0.90726,-0.09349 -1.37308,-0.09349c-1.16296,0 -2.27955,0.19852 -3.31773,0.56352c0.50507,-2.74312 2.8231,-2.21215 5.57056,-2.20828c2.71146,-0.06776 3.15271,-1.49497 5.14963,-2.77258c1.35624,-0.86772 3.90255,-0.65514 5.40045,-0.47766c0.55727,0.06603 -0.09065,1.16907 -0.39477,1.64069c-0.55936,0.86746 -1.63185,1.41869 -1.96956,2.39405c-0.48558,1.40243 0.50029,4.05281 0.49786,5.5991c0,0 -0.00075,0.10999 0.03131,0.26329c-0.65362,0.4585 -1.20195,0.98833 -1.54924,1.62947c-0.96204,-2.68971 -3.04354,-4.84703 -5.6832,-5.91064c0.10911,-0.37709 0.14184,-0.98601 -0.55269,-1.40273z" data-paper-data="{&quot;noHover&quot;:false,&quot;origItem&quot;:[&quot;Path&quot;,{&quot;applyMatrix&quot;:true,&quot;segments&quot;:[[[231.28598,192.82099],[0,0],[1.07187,0.64312]],[231.71473,194.53598],[[231.33233,195.16616],[0,0],[-0.70805,1.30414]],[[231.11379,199.32358],[-0.31635,-1.42401],[1.74618,0.84167]],[[237.11445,201.08025],[-2.17081,-0.30717],[0,0]],[[237.11481,201.04054],[0,0],[0.2005,-1.11143]],[[238.99636,198.44058],[-0.96204,0.67485],[-0.03206,-0.1533]],[[238.9643,198.17858],[0,0],[0.00243,-1.54629]],[[238.46334,192.62196],[-0.48558,1.40243],[0.33771,-0.97536]],[[240.4367,190.2357],[-0.55936,0.86746],[0.30412,-0.47162]],[[240.83484,188.59993],[0.55727,0.06603],[-1.4979,-0.17748]],[[235.45334,189.09251],[1.35624,-0.86772],[-1.99692,1.27761]],[[230.35716,191.85715],[2.71146,-0.06776],[-2.88245,-0.00406]],[[224.74251,194.45814],[0.33948,-3.22504],[0.40986,0.24803]],[[225.87795,195.22357],[-0.33099,-0.27073],[0.95704,0.78278]],[[228.37648,197.60465],[-0.92516,-0.74816],[-0.03991,-1.19766]],[[229.09627,194.04813],[-0.56873,1.20094],[0,0]],[229.57101,193.24974],[[231.286,192.82099],[-1.07187,-0.64312],[0,0]]],&quot;closed&quot;:true,&quot;fillColor&quot;:[0,0,0,1]}]}" fill="#ffffff" stroke-width="0.5"/></g></g></svg>