<svg xmlns="http://www.w3.org/2000/svg" xmlns:xlink="http://www.w3.org/1999/xlink" version="1.1" width="681" height="267" viewBox="-1 0 681 267">
  <!-- Exported by Scratch - http://scratch.mit.edu/ -->
  <g id="ID0.058419897221028805">
    <path id="ID0.9153073714114726" d="M 135 83.5 C 135.48 81.74 136.39 79.47 136.95 78.5 L 138.13 78.37 C 137.69 79.61 137.12 81.77 136.89 83.28 L 135 83.5 Z M 138.11 83.5 C 138.59 81.74 139.5 79.47 140.06 78.5 L 141.24 78.37 C 140.77 79.62 140.23 81.78 140 83.29 L 138.11 83.5 Z " stroke-width="1" />
    <path id="ID0.8506702459417284" d="M 146.19 92.91 L 142.6 78.76 L 144.53 78.76 L 146.21 85.92 C 146.63 87.68 147.01 89.45 147.26 90.81 L 147.3 90.81 C 147.53 89.4 147.97 87.72 148.46 85.9 L 150.35 78.76 L 152.26 78.76 L 153.98 85.94 C 154.38 87.62 154.76 89.3 154.97 90.79 L 155.01 90.79 C 155.3 89.24 155.7 87.66 156.14 85.9 L 158.01 78.76 L 159.88 78.76 L 155.87 92.91 L 153.96 92.91 L 152.18 85.54 C 151.74 83.74 151.44 82.35 151.26 80.92 L 151.22 80.92 C 150.99 82.33 150.65 83.71 150.13 85.54 L 148.11 92.91 L 146.19 92.91 Z " stroke-width="1" />
    <path id="ID0.9292743215337396" d="M 161.92 88.16 C 161.96 90.66 163.54 91.69 165.41 91.69 C 166.73 91.69 167.55 91.46 168.22 91.16 L 168.56 92.48 C 167.91 92.77 166.77 93.13 165.16 93.13 C 162.03 93.13 160.16 91.05 160.16 87.99 C 160.16 84.93 161.97 82.53 164.93 82.53 C 168.27 82.53 169.13 85.43 169.13 87.3 C 169.13 87.68 169.11 87.95 169.07 88.16 L 161.92 88.16 Z M 167.34 86.84 C 167.36 85.68 166.86 83.86 164.78 83.86 C 162.89 83.86 162.09 85.56 161.95 86.84 L 167.34 86.84 Z " stroke-width="1" />
    <path id="ID0.7473827823996544" d="M 173.2 78.38 C 172.72 80.14 171.81 82.41 171.25 83.38 L 170.07 83.5 C 170.51 82.26 171.08 80.1 171.31 78.59 L 173.2 78.38 Z " stroke-width="1" />
    <path id="ID0.785961328074336" d="M 175.24 78 L 177.09 78 L 177.09 92.91 L 175.24 92.91 L 175.24 78 Z " stroke-width="1" />
    <path id="ID0.7987434198148549" d="M 180.19 78 L 182.04 78 L 182.04 92.91 L 180.19 92.91 L 180.19 78 Z " stroke-width="1" />
    <path id="ID0.5279213031753898" d="M 189.35 91.04 C 189.92 91.38 190.88 91.75 191.81 91.75 C 193.13 91.75 193.76 91.1 193.76 90.24 C 193.76 89.36 193.24 88.9 191.89 88.39 C 190.04 87.72 189.18 86.73 189.18 85.51 C 189.18 83.87 190.52 82.53 192.69 82.53 C 193.72 82.53 194.62 82.8 195.17 83.16 L 194.73 84.5 C 194.33 84.25 193.6 83.89 192.65 83.89 C 191.56 83.89 190.97 84.52 190.97 85.27 C 190.97 86.11 191.56 86.49 192.88 87.01 C 194.62 87.66 195.55 88.54 195.55 90.05 C 195.55 91.86 194.14 93.12 191.77 93.12 C 190.66 93.12 189.63 92.83 188.91 92.41 L 189.35 91.04 Z " stroke-width="1" />
    <path id="ID0.0908809807151556" d="M 198.94 88.16 C 198.98 90.66 200.56 91.69 202.43 91.69 C 203.75 91.69 204.57 91.46 205.24 91.16 L 205.58 92.48 C 204.93 92.77 203.8 93.13 202.18 93.13 C 199.05 93.13 197.18 91.05 197.18 87.99 C 197.18 84.93 198.99 82.53 201.95 82.53 C 205.29 82.53 206.15 85.43 206.15 87.3 C 206.15 87.68 206.13 87.95 206.09 88.16 L 198.94 88.16 Z M 204.36 86.84 C 204.38 85.68 203.88 83.86 201.8 83.86 C 199.91 83.86 199.11 85.56 198.97 86.84 L 204.36 86.84 Z " stroke-width="1" />
    <path id="ID0.37716698134317994" d="M 209.46 88.16 C 209.5 90.66 211.08 91.69 212.95 91.69 C 214.27 91.69 215.09 91.46 215.76 91.16 L 216.1 92.48 C 215.45 92.77 214.31 93.13 212.7 93.13 C 209.57 93.13 207.7 91.05 207.7 87.99 C 207.7 84.93 209.51 82.53 212.47 82.53 C 215.81 82.53 216.67 85.43 216.67 87.3 C 216.67 87.68 216.65 87.95 216.61 88.16 L 209.46 88.16 Z M 214.88 86.84 C 214.9 85.68 214.4 83.86 212.32 83.86 C 210.43 83.86 209.63 85.56 209.49 86.84 L 214.88 86.84 Z " stroke-width="1" />
    <path id="ID0.21129060490056872" d="M 230.55 90.47 C 230.55 91.35 230.59 92.21 230.7 92.91 L 229.04 92.91 L 228.89 91.63 L 228.83 91.63 C 228.26 92.43 227.17 93.14 225.72 93.14 C 223.66 93.14 222.61 91.69 222.61 90.22 C 222.61 87.76 224.79 86.42 228.72 86.44 L 228.72 86.23 C 228.72 85.41 228.49 83.88 226.41 83.9 C 225.44 83.9 224.46 84.17 223.74 84.66 L 223.32 83.42 C 224.16 82.9 225.4 82.54 226.68 82.54 C 229.79 82.54 230.54 84.66 230.54 86.68 L 230.54 90.47 Z M 228.76 87.72 C 226.74 87.68 224.46 88.04 224.46 90.01 C 224.46 91.23 225.26 91.77 226.18 91.77 C 227.52 91.77 228.39 90.93 228.68 90.07 C 228.74 89.86 228.76 89.65 228.76 89.48 L 228.76 87.72 Z " stroke-width="1" />
    <path id="ID0.039483553264290094" d="M 233.53 78 L 235.36 78 L 235.36 84.38 L 235.4 84.38 C 236.05 83.25 237.23 82.53 238.86 82.53 C 241.4 82.53 243.16 84.63 243.16 87.7 C 243.16 91.33 240.85 93.14 238.58 93.14 C 237.11 93.14 235.93 92.57 235.16 91.25 L 235.12 91.25 L 235.01 92.91 L 233.44 92.91 C 233.48 92.22 233.52 91.19 233.52 90.29 L 233.52 78 Z M 235.36 88.83 C 235.36 89.06 235.38 89.29 235.44 89.5 C 235.78 90.78 236.87 91.66 238.21 91.66 C 240.16 91.66 241.3 90.09 241.3 87.76 C 241.3 85.72 240.25 83.98 238.26 83.98 C 237.02 83.98 235.84 84.86 235.47 86.25 C 235.41 86.48 235.36 86.73 235.36 87.03 L 235.36 88.83 Z " stroke-width="1" />
    <path id="ID0.3908452554605901" d="M 254.68 87.74 C 254.68 91.5 252.05 93.14 249.62 93.14 C 246.89 93.14 244.75 91.12 244.75 87.91 C 244.75 84.53 247 82.53 249.79 82.53 C 252.7 82.54 254.68 84.66 254.68 87.74 Z M 246.63 87.85 C 246.63 90.07 247.89 91.75 249.7 91.75 C 251.46 91.75 252.79 90.09 252.79 87.8 C 252.79 86.08 251.93 83.92 249.75 83.92 C 247.58 83.92 246.63 85.94 246.63 87.85 Z " stroke-width="1" />
    <path id="ID0.7090309942141175" d="M 265.51 90.12 C 265.51 91.19 265.53 92.11 265.59 92.91 L 263.95 92.91 L 263.85 91.25 L 263.81 91.25 C 263.35 92.07 262.26 93.14 260.45 93.14 C 258.85 93.14 256.94 92.24 256.94 88.69 L 256.94 82.75 L 258.79 82.75 L 258.79 88.36 C 258.79 90.29 259.4 91.61 261.06 91.61 C 262.3 91.61 263.16 90.75 263.5 89.91 C 263.61 89.66 263.67 89.32 263.67 88.97 L 263.67 82.75 L 265.52 82.75 L 265.52 90.12 Z " stroke-width="1" />
    <path id="ID0.0017534354701638222" d="M 270.8 80.31 L 270.8 82.75 L 273.45 82.75 L 273.45 84.16 L 270.8 84.16 L 270.8 89.64 C 270.8 90.9 271.16 91.61 272.19 91.61 C 272.69 91.61 272.99 91.57 273.26 91.48 L 273.34 92.89 C 272.98 93.02 272.42 93.14 271.7 93.14 C 270.84 93.14 270.15 92.85 269.71 92.36 C 269.21 91.79 269 90.89 269 89.69 L 269 84.15 L 267.42 84.15 L 267.42 82.75 L 269 82.75 L 269 80.86 L 270.8 80.31 Z " stroke-width="1" />
    <path id="ID0.09130421979352832" d="M 282.21 80.31 L 282.21 82.75 L 284.86 82.75 L 284.86 84.16 L 282.21 84.16 L 282.21 89.64 C 282.21 90.9 282.57 91.61 283.6 91.61 C 284.1 91.61 284.4 91.57 284.67 91.48 L 284.75 92.89 C 284.39 93.02 283.83 93.14 283.11 93.14 C 282.25 93.14 281.56 92.85 281.11 92.36 C 280.61 91.79 280.4 90.89 280.4 89.69 L 280.4 84.15 L 278.82 84.15 L 278.82 82.75 L 280.4 82.75 L 280.4 80.86 L 282.21 80.31 Z " stroke-width="1" />
    <path id="ID0.30469084391370416" d="M 286.93 78 L 288.78 78 L 288.78 84.36 L 288.82 84.36 C 289.11 83.84 289.58 83.35 290.14 83.04 C 290.69 82.73 291.34 82.54 292.03 82.54 C 293.39 82.54 295.58 83.38 295.58 86.87 L 295.58 92.92 L 293.73 92.92 L 293.73 87.07 C 293.73 85.43 293.12 84.07 291.38 84.07 C 290.18 84.07 289.26 84.91 288.9 85.9 C 288.79 86.17 288.77 86.45 288.77 86.78 L 288.77 92.91 L 286.92 92.91 L 286.92 78 Z " stroke-width="1" />
    <path id="ID0.9229305135086179" d="M 305.73 90.47 C 305.73 91.35 305.77 92.21 305.88 92.91 L 304.22 92.91 L 304.07 91.63 L 304 91.63 C 303.43 92.43 302.34 93.14 300.89 93.14 C 298.83 93.14 297.78 91.69 297.78 90.22 C 297.78 87.76 299.96 86.42 303.89 86.44 L 303.89 86.23 C 303.89 85.41 303.66 83.88 301.58 83.9 C 300.61 83.9 299.63 84.17 298.91 84.66 L 298.49 83.42 C 299.33 82.9 300.57 82.54 301.85 82.54 C 304.96 82.54 305.71 84.66 305.71 86.68 L 305.71 90.47 Z M 303.94 87.72 C 301.92 87.68 299.64 88.04 299.64 90.01 C 299.64 91.23 300.44 91.77 301.36 91.77 C 302.7 91.77 303.56 90.93 303.86 90.07 C 303.92 89.86 303.94 89.65 303.94 89.48 L 303.94 87.72 Z " stroke-width="1" />
    <path id="ID0.042930259834975004" d="M 310.85 80.31 L 310.85 82.75 L 313.49 82.75 L 313.49 84.16 L 310.85 84.16 L 310.85 89.64 C 310.85 90.9 311.21 91.61 312.23 91.61 C 312.73 91.61 313.03 91.57 313.3 91.48 L 313.38 92.89 C 313.02 93.02 312.46 93.14 311.74 93.14 C 310.88 93.14 310.19 92.85 309.75 92.36 C 309.25 91.79 309.04 90.89 309.04 89.69 L 309.04 84.15 L 307.47 84.15 L 307.47 82.75 L 309.04 82.75 L 309.04 80.86 L 310.85 80.31 Z " stroke-width="1" />
    <path id="ID0.5602934276685119" d="M 315.22 91.84 C 315.22 91.08 315.75 90.54 316.48 90.54 C 317.22 90.54 317.7 91.08 317.7 91.84 C 317.7 92.58 317.22 93.14 316.44 93.14 C 315.72 93.14 315.22 92.57 315.22 91.84 Z M 315.74 88.86 L 315.45 78.76 L 317.47 78.76 L 317.18 88.86 L 315.74 88.86 Z " stroke-width="1" />
    <path id="ID0.4738814514130354" d="M 322.72 78.38 C 322.24 80.14 321.33 82.41 320.77 83.38 L 319.59 83.51 C 320.05 82.27 320.6 80.11 320.83 78.6 L 322.72 78.38 Z M 325.82 78.38 C 325.34 80.14 324.43 82.41 323.87 83.38 L 322.7 83.5 C 323.14 82.26 323.71 80.1 323.94 78.59 L 325.82 78.38 Z " stroke-width="1" />
    <path id="ID0.23317087348550558" d="M 339.18 91.42 C 339.18 93.77 338.7 95.18 337.73 96.08 C 336.72 96.98 335.29 97.3 334.01 97.3 C 332.79 97.3 331.45 97.01 330.63 96.46 L 331.09 95.03 C 331.76 95.47 332.81 95.85 334.07 95.85 C 335.96 95.85 337.35 94.86 337.35 92.28 L 337.35 91.17 L 337.31 91.17 C 336.76 92.12 335.65 92.87 334.08 92.87 C 331.56 92.87 329.75 90.73 329.75 87.91 C 329.75 84.47 332 82.53 334.35 82.53 C 336.11 82.53 337.06 83.43 337.52 84.27 L 337.56 84.27 L 337.62 82.74 L 339.26 82.74 C 339.2 83.45 339.18 84.29 339.18 85.51 L 339.18 91.42 Z M 337.33 86.76 C 337.33 86.44 337.31 86.17 337.23 85.94 C 336.89 84.85 336.01 83.97 334.65 83.97 C 332.89 83.97 331.63 85.46 331.63 87.81 C 331.63 89.81 332.66 91.46 334.63 91.46 C 335.79 91.46 336.81 90.75 337.19 89.57 C 337.3 89.26 337.34 88.9 337.34 88.58 L 337.34 86.76 Z " stroke-width="1" />
    <path id="ID0.759360461961478" d="M 342.1 85.92 C 342.1 84.72 342.08 83.69 342.02 82.75 L 343.64 82.75 L 343.72 84.77 L 343.78 84.77 C 344.24 83.41 345.38 82.54 346.61 82.54 C 346.8 82.54 346.95 82.56 347.11 82.58 L 347.11 84.32 C 346.92 84.28 346.73 84.28 346.48 84.28 C 345.18 84.28 344.26 85.25 344 86.63 C 343.96 86.88 343.94 87.2 343.94 87.49 L 343.94 92.91 L 342.09 92.91 L 342.09 85.92 Z " stroke-width="1" />
    <path id="ID0.7559679094702005" d="M 351.11 79.89 C 351.11 80.52 350.67 81.02 349.93 81.02 C 349.26 81.02 348.82 80.52 348.82 79.89 C 348.82 79.26 349.28 78.73 349.97 78.73 C 350.64 78.73 351.11 79.24 351.11 79.89 Z M 349.05 92.91 L 349.05 82.75 L 350.9 82.75 L 350.9 92.91 L 349.05 92.91 Z " stroke-width="1" />
    <path id="ID0.09384591598063707" d="M 353.96 85.5 C 353.96 84.43 353.94 83.59 353.88 82.75 L 355.52 82.75 L 355.62 84.43 L 355.66 84.43 C 356.16 83.49 357.34 82.54 359.02 82.54 C 360.43 82.54 362.61 83.38 362.61 86.87 L 362.61 92.92 L 360.76 92.92 L 360.76 87.05 C 360.76 85.41 360.15 84.05 358.41 84.05 C 357.21 84.05 356.27 84.91 355.93 85.94 C 355.85 86.17 355.8 86.49 355.8 86.8 L 355.8 92.91 L 353.95 92.91 L 353.95 85.5 Z " stroke-width="1" />
    <path id="ID0.4819293231703341" d="M 365.62 85.5 C 365.62 84.43 365.6 83.59 365.54 82.75 L 367.18 82.75 L 367.29 84.43 L 367.33 84.43 C 367.83 83.49 369.01 82.54 370.69 82.54 C 372.1 82.54 374.28 83.38 374.28 86.87 L 374.28 92.92 L 372.43 92.92 L 372.43 87.05 C 372.43 85.41 371.82 84.05 370.08 84.05 C 368.88 84.05 367.94 84.91 367.6 85.94 C 367.52 86.17 367.47 86.49 367.47 86.8 L 367.47 92.91 L 365.62 92.91 L 365.62 85.5 Z " stroke-width="1" />
    <path id="ID0.430846631526947" d="M 378.3 88.16 C 378.34 90.66 379.92 91.69 381.79 91.69 C 383.11 91.69 383.93 91.46 384.6 91.16 L 384.94 92.48 C 384.29 92.77 383.16 93.13 381.54 93.13 C 378.41 93.13 376.54 91.05 376.54 87.99 C 376.54 84.93 378.35 82.53 381.31 82.53 C 384.65 82.53 385.51 85.43 385.51 87.3 C 385.51 87.68 385.49 87.95 385.45 88.16 L 378.3 88.16 Z M 383.72 86.84 C 383.74 85.68 383.24 83.86 381.16 83.86 C 379.27 83.86 378.47 85.56 378.33 86.84 L 383.72 86.84 Z " stroke-width="1" />
    <path id="ID0.8957467721775174" d="M 396.55 78 L 396.55 90.28 C 396.55 91.18 396.59 92.21 396.63 92.9 L 395 92.9 L 394.92 91.14 L 394.86 91.14 C 394.31 92.27 393.1 93.14 391.44 93.14 C 388.98 93.14 387.07 91.06 387.07 87.97 C 387.05 84.59 389.17 82.53 391.63 82.53 C 393.2 82.53 394.23 83.26 394.7 84.06 L 394.74 84.06 L 394.74 78 L 396.55 78 Z M 394.72 86.88 C 394.72 86.65 394.7 86.34 394.64 86.1 C 394.37 84.94 393.36 83.98 391.97 83.98 C 390.06 83.98 388.93 85.66 388.93 87.88 C 388.93 89.94 389.96 91.64 391.93 91.64 C 393.17 91.64 394.3 90.8 394.64 89.44 C 394.7 89.19 394.72 88.94 394.72 88.64 L 394.72 86.88 Z " stroke-width="1" />
    <path id="ID0.2276386427693069" d="M 404.09 78 L 405.92 78 L 405.92 84.38 L 405.96 84.38 C 406.61 83.25 407.79 82.53 409.42 82.53 C 411.96 82.53 413.72 84.63 413.72 87.7 C 413.72 91.33 411.41 93.14 409.14 93.14 C 407.67 93.14 406.49 92.57 405.72 91.25 L 405.68 91.25 L 405.57 92.91 L 404 92.91 C 404.04 92.22 404.08 91.19 404.08 90.29 L 404.08 78 Z M 405.92 88.83 C 405.92 89.06 405.94 89.29 406 89.5 C 406.34 90.78 407.43 91.66 408.77 91.66 C 410.72 91.66 411.86 90.09 411.86 87.76 C 411.86 85.72 410.81 83.98 408.82 83.98 C 407.58 83.98 406.4 84.86 406.03 86.25 C 405.97 86.48 405.92 86.73 405.92 87.03 L 405.92 88.83 Z " stroke-width="1" />
    <path id="ID0.09621134400367737" d="M 418.1 79.89 C 418.1 80.52 417.66 81.02 416.92 81.02 C 416.25 81.02 415.81 80.52 415.81 79.89 C 415.81 79.26 416.27 78.73 416.97 78.73 C 417.63 78.73 418.1 79.24 418.1 79.89 Z M 416.04 92.91 L 416.04 82.75 L 417.89 82.75 L 417.89 92.91 L 416.04 92.91 Z " stroke-width="1" />
    <path id="ID0.9441990316845477" d="M 423.18 80.31 L 423.18 82.75 L 425.83 82.75 L 425.83 84.16 L 423.18 84.16 L 423.18 89.64 C 423.18 90.9 423.54 91.61 424.57 91.61 C 425.07 91.61 425.37 91.57 425.64 91.48 L 425.72 92.89 C 425.36 93.02 424.8 93.14 424.08 93.14 C 423.22 93.14 422.53 92.85 422.09 92.36 C 421.59 91.79 421.38 90.89 421.38 89.69 L 421.38 84.15 L 419.8 84.15 L 419.8 82.75 L 421.38 82.75 L 421.38 80.86 L 423.18 80.31 Z " stroke-width="1" />
    <path id="ID0.9678031443618238" d="M 427.9 85.5 C 427.9 84.43 427.86 83.59 427.82 82.75 L 429.44 82.75 L 429.52 84.41 L 429.58 84.41 C 430.15 83.44 431.09 82.54 432.79 82.54 C 434.16 82.54 435.2 83.38 435.65 84.58 L 435.69 84.58 C 436.01 83.99 436.43 83.57 436.85 83.26 C 437.46 82.8 438.11 82.55 439.07 82.55 C 440.44 82.55 442.43 83.43 442.43 86.96 L 442.43 92.92 L 440.63 92.92 L 440.63 87.18 C 440.63 85.21 439.89 84.05 438.42 84.05 C 437.35 84.05 436.55 84.83 436.21 85.71 C 436.13 85.98 436.06 86.3 436.06 86.63 L 436.06 92.91 L 434.25 92.91 L 434.25 86.82 C 434.25 85.2 433.54 84.05 432.13 84.05 C 431 84.05 430.13 84.97 429.84 85.9 C 429.73 86.15 429.69 86.49 429.69 86.8 L 429.69 92.91 L 427.88 92.91 L 427.88 85.5 Z " stroke-width="1" />
    <path id="ID0.1902515646070242" d="M 452.56 90.47 C 452.56 91.35 452.6 92.21 452.71 92.91 L 451.05 92.91 L 450.9 91.63 L 450.84 91.63 C 450.27 92.43 449.18 93.14 447.73 93.14 C 445.67 93.14 444.62 91.69 444.62 90.22 C 444.62 87.76 446.8 86.42 450.73 86.44 L 450.73 86.23 C 450.73 85.41 450.5 83.88 448.42 83.9 C 447.45 83.9 446.47 84.17 445.75 84.66 L 445.33 83.42 C 446.17 82.9 447.41 82.54 448.69 82.54 C 451.8 82.54 452.55 84.66 452.55 86.68 L 452.55 90.47 Z M 450.77 87.72 C 448.75 87.68 446.47 88.04 446.47 90.01 C 446.47 91.23 447.27 91.77 448.19 91.77 C 449.53 91.77 450.39 90.93 450.69 90.07 C 450.75 89.86 450.77 89.65 450.77 89.48 L 450.77 87.72 Z " stroke-width="1" />
    <path id="ID0.8050371971912682" d="M 455.54 86.06 C 455.54 84.76 455.5 83.71 455.46 82.74 L 457.1 82.74 L 457.2 84.48 L 457.24 84.48 C 457.97 83.24 459.19 82.53 460.85 82.53 C 463.33 82.53 465.17 84.61 465.17 87.67 C 465.17 91.32 462.92 93.13 460.53 93.13 C 459.19 93.13 458.01 92.54 457.4 91.53 L 457.36 91.53 L 457.36 97.05 L 455.53 97.05 L 455.53 86.06 Z M 457.37 88.77 C 457.37 89.04 457.39 89.29 457.45 89.53 C 457.79 90.81 458.9 91.69 460.22 91.69 C 462.17 91.69 463.31 90.09 463.31 87.76 C 463.31 85.74 462.24 84 460.29 84 C 459.03 84 457.83 84.88 457.5 86.27 C 457.44 86.5 457.37 86.77 457.37 87.01 L 457.37 88.77 Z " stroke-width="1" />
    <path id="ID0.27942974865436554" d="M 479.08 90.47 C 479.08 91.35 479.12 92.21 479.23 92.91 L 477.57 92.91 L 477.42 91.63 L 477.36 91.63 C 476.79 92.43 475.7 93.14 474.25 93.14 C 472.19 93.14 471.14 91.69 471.14 90.22 C 471.14 87.76 473.32 86.42 477.25 86.44 L 477.25 86.23 C 477.25 85.41 477.02 83.88 474.94 83.9 C 473.98 83.9 472.99 84.17 472.27 84.66 L 471.85 83.42 C 472.69 82.9 473.93 82.54 475.21 82.54 C 478.32 82.54 479.07 84.66 479.07 86.68 L 479.07 90.47 Z M 477.29 87.72 C 475.27 87.68 472.99 88.04 472.99 90.01 C 472.99 91.23 473.79 91.77 474.71 91.77 C 476.05 91.77 476.92 90.93 477.21 90.07 C 477.27 89.86 477.29 89.65 477.29 89.48 L 477.29 87.72 Z " stroke-width="1" />
    <path id="ID0.7236668188124895" d="M 481.81 91.04 C 482.38 91.38 483.34 91.75 484.27 91.75 C 485.59 91.75 486.22 91.1 486.22 90.24 C 486.22 89.36 485.69 88.9 484.35 88.39 C 482.5 87.72 481.64 86.73 481.64 85.51 C 481.64 83.87 482.98 82.53 485.15 82.53 C 486.18 82.53 487.08 82.8 487.63 83.16 L 487.19 84.5 C 486.79 84.25 486.06 83.89 485.11 83.89 C 484.02 83.89 483.43 84.52 483.43 85.27 C 483.43 86.11 484.02 86.49 485.34 87.01 C 487.08 87.66 488.01 88.54 488.01 90.05 C 488.01 91.86 486.6 93.12 484.23 93.12 C 483.12 93.12 482.09 92.83 481.37 92.41 L 481.81 91.04 Z " stroke-width="1" />
    <path id="ID0.18683885596692562" d="M 494.83 78 L 496.68 78 L 496.68 84.36 L 496.72 84.36 C 497.01 83.84 497.48 83.35 498.04 83.04 C 498.59 82.73 499.24 82.54 499.93 82.54 C 501.29 82.54 503.48 83.38 503.48 86.87 L 503.48 92.92 L 501.63 92.92 L 501.63 87.07 C 501.63 85.43 501.02 84.07 499.28 84.07 C 498.08 84.07 497.16 84.91 496.8 85.9 C 496.69 86.17 496.67 86.45 496.67 86.78 L 496.67 92.91 L 494.82 92.91 L 494.82 78 Z " stroke-width="1" />
    <path id="ID0.5050946557894349" d="M 507.51 88.16 C 507.55 90.66 509.13 91.69 511 91.69 C 512.32 91.69 513.14 91.46 513.81 91.16 L 514.15 92.48 C 513.5 92.77 512.37 93.13 510.75 93.13 C 507.62 93.13 505.75 91.05 505.75 87.99 C 505.75 84.93 507.56 82.53 510.52 82.53 C 513.86 82.53 514.72 85.43 514.72 87.3 C 514.72 87.68 514.7 87.95 514.66 88.16 L 507.51 88.16 Z M 512.93 86.84 C 512.95 85.68 512.45 83.86 510.37 83.86 C 508.48 83.86 507.68 85.56 507.54 86.84 L 512.93 86.84 Z " stroke-width="1" />
    <path id="ID0.46443655202165246" d="M 521.46 78 L 523.29 78 L 523.29 84.38 L 523.33 84.38 C 523.98 83.25 525.16 82.53 526.79 82.53 C 529.33 82.53 531.09 84.63 531.09 87.7 C 531.09 91.33 528.78 93.14 526.51 93.14 C 525.04 93.14 523.86 92.57 523.09 91.25 L 523.05 91.25 L 522.94 92.91 L 521.37 92.91 C 521.41 92.22 521.45 91.19 521.45 90.29 L 521.45 78 Z M 523.28 88.83 C 523.28 89.06 523.3 89.29 523.36 89.5 C 523.7 90.78 524.79 91.66 526.13 91.66 C 528.08 91.66 529.22 90.09 529.22 87.76 C 529.22 85.72 528.17 83.98 526.18 83.98 C 524.94 83.98 523.76 84.86 523.39 86.25 C 523.33 86.48 523.28 86.73 523.28 87.03 L 523.28 88.83 Z " stroke-width="1" />
    <path id="ID0.9352408326230943" d="M 540.54 90.47 C 540.54 91.35 540.58 92.21 540.69 92.91 L 539.03 92.91 L 538.88 91.63 L 538.82 91.63 C 538.25 92.43 537.16 93.14 535.71 93.14 C 533.65 93.14 532.6 91.69 532.6 90.22 C 532.6 87.76 534.78 86.42 538.71 86.44 L 538.71 86.23 C 538.71 85.41 538.48 83.88 536.4 83.9 C 535.43 83.9 534.45 84.17 533.73 84.66 L 533.31 83.42 C 534.15 82.9 535.39 82.54 536.67 82.54 C 539.78 82.54 540.53 84.66 540.53 86.68 L 540.53 90.47 Z M 538.76 87.72 C 536.74 87.68 534.46 88.04 534.46 90.01 C 534.46 91.23 535.26 91.77 536.18 91.77 C 537.52 91.77 538.39 90.93 538.68 90.07 C 538.74 89.86 538.76 89.65 538.76 89.48 L 538.76 87.72 Z " stroke-width="1" />
    <path id="ID0.06344689335674047" d="M 552.22 91.42 C 552.22 93.77 551.74 95.18 550.77 96.08 C 549.76 96.98 548.33 97.3 547.05 97.3 C 545.83 97.3 544.49 97.01 543.67 96.46 L 544.13 95.03 C 544.8 95.47 545.85 95.85 547.11 95.85 C 549 95.85 550.39 94.86 550.39 92.28 L 550.39 91.17 L 550.35 91.17 C 549.8 92.12 548.69 92.87 547.12 92.87 C 544.6 92.87 542.79 90.73 542.79 87.91 C 542.79 84.47 545.04 82.53 547.39 82.53 C 549.15 82.53 550.1 83.43 550.56 84.27 L 550.6 84.27 L 550.66 82.74 L 552.3 82.74 C 552.24 83.45 552.22 84.29 552.22 85.51 L 552.22 91.42 Z M 550.37 86.76 C 550.37 86.44 550.35 86.17 550.27 85.94 C 549.93 84.85 549.05 83.97 547.69 83.97 C 545.93 83.97 544.67 85.46 544.67 87.81 C 544.67 89.81 545.7 91.46 547.67 91.46 C 548.83 91.46 549.85 90.75 550.23 89.57 C 550.34 89.26 550.38 88.9 550.38 88.58 L 550.38 86.76 Z " stroke-width="1" />
    <path id="ID0.048726579174399376" d="M 563.96 91.42 C 563.96 93.77 563.48 95.18 562.51 96.08 C 561.5 96.98 560.07 97.3 558.79 97.3 C 557.57 97.3 556.23 97.01 555.41 96.46 L 555.87 95.03 C 556.54 95.47 557.59 95.85 558.85 95.85 C 560.74 95.85 562.13 94.86 562.13 92.28 L 562.13 91.17 L 562.09 91.17 C 561.54 92.12 560.43 92.87 558.86 92.87 C 556.34 92.87 554.53 90.73 554.53 87.91 C 554.53 84.47 556.78 82.53 559.13 82.53 C 560.89 82.53 561.84 83.43 562.3 84.27 L 562.34 84.27 L 562.4 82.74 L 564.04 82.74 C 563.98 83.45 563.96 84.29 563.96 85.51 L 563.96 91.42 Z M 562.11 86.76 C 562.11 86.44 562.09 86.17 562 85.94 C 561.66 84.85 560.78 83.97 559.42 83.97 C 557.66 83.97 556.4 85.46 556.4 87.81 C 556.4 89.81 557.43 91.46 559.4 91.46 C 560.55 91.46 561.58 90.75 561.96 89.57 C 562.06 89.26 562.11 88.9 562.11 88.58 L 562.11 86.76 Z " stroke-width="1" />
    <path id="ID0.745862330775708" d="M 568.03 88.16 C 568.07 90.66 569.65 91.69 571.52 91.69 C 572.84 91.69 573.66 91.46 574.33 91.16 L 574.67 92.48 C 574.02 92.77 572.88 93.13 571.27 93.13 C 568.14 93.13 566.27 91.05 566.27 87.99 C 566.27 84.93 568.08 82.53 571.04 82.53 C 574.38 82.53 575.24 85.43 575.24 87.3 C 575.24 87.68 575.22 87.95 575.18 88.16 L 568.03 88.16 Z M 573.45 86.84 C 573.47 85.68 572.97 83.86 570.89 83.86 C 569 83.86 568.2 85.56 568.06 86.84 L 573.45 86.84 Z " stroke-width="1" />
    <path id="ID0.9849491198547184" d="M 586.28 78 L 586.28 90.28 C 586.28 91.18 586.32 92.21 586.36 92.9 L 584.72 92.9 L 584.64 91.14 L 584.58 91.14 C 584.03 92.27 582.82 93.14 581.16 93.14 C 578.7 93.14 576.79 91.06 576.79 87.97 C 576.77 84.59 578.89 82.53 581.35 82.53 C 582.93 82.53 583.95 83.26 584.42 84.06 L 584.46 84.06 L 584.46 78 L 586.28 78 Z M 584.45 86.88 C 584.45 86.65 584.43 86.34 584.37 86.1 C 584.1 84.94 583.09 83.98 581.7 83.98 C 579.79 83.98 578.66 85.66 578.66 87.88 C 578.66 89.94 579.69 91.64 581.66 91.64 C 582.9 91.64 584.03 90.8 584.37 89.44 C 584.43 89.19 584.45 88.94 584.45 88.64 L 584.45 86.88 Z " stroke-width="1" />
    <path id="ID0.359721343498677" d="M 199.2 105.51 L 199.2 107.95 L 201.85 107.95 L 201.85 109.36 L 199.2 109.36 L 199.2 114.84 C 199.2 116.1 199.56 116.81 200.59 116.81 C 201.09 116.81 201.39 116.77 201.66 116.68 L 201.74 118.09 C 201.38 118.22 200.82 118.34 200.1 118.34 C 199.24 118.34 198.55 118.05 198.11 117.56 C 197.61 116.99 197.4 116.09 197.4 114.89 L 197.4 109.35 L 195.82 109.35 L 195.82 107.94 L 197.4 107.94 L 197.4 106.05 L 199.2 105.51 Z " stroke-width="1" />
    <path id="ID0.7629589047282934" d="M 203.92 103.2 L 205.77 103.2 L 205.77 109.56 L 205.81 109.56 C 206.1 109.03 206.57 108.55 207.13 108.24 C 207.68 107.92 208.33 107.74 209.02 107.74 C 210.38 107.74 212.57 108.58 212.57 112.07 L 212.57 118.12 L 210.72 118.12 L 210.72 112.28 C 210.72 110.64 210.11 109.28 208.37 109.28 C 207.17 109.28 206.25 110.12 205.89 111.11 C 205.78 111.38 205.76 111.66 205.76 111.99 L 205.76 118.12 L 203.91 118.12 L 203.91 103.2 Z " stroke-width="1" />
    <path id="ID0.2546421936713159" d="M 216.6 113.36 C 216.64 115.86 218.22 116.89 220.09 116.89 C 221.41 116.89 222.23 116.66 222.9 116.37 L 223.24 117.69 C 222.59 117.98 221.46 118.34 219.84 118.34 C 216.71 118.34 214.84 116.26 214.84 113.2 C 214.84 110.14 216.65 107.74 219.61 107.74 C 222.95 107.74 223.81 110.64 223.81 112.51 C 223.81 112.89 223.79 113.16 223.75 113.37 L 216.6 113.37 Z M 222.02 112.04 C 222.04 110.89 221.54 109.06 219.46 109.06 C 217.57 109.06 216.77 110.76 216.63 112.04 L 222.02 112.04 Z " stroke-width="1" />
    <path id="ID0.4245034377090633" d="M 230.38 115.88 C 231.2 116.4 232.38 116.8 233.63 116.8 C 235.5 116.8 236.59 115.81 236.59 114.38 C 236.59 113.08 235.83 112.3 233.92 111.59 C 231.61 110.75 230.18 109.53 230.18 107.56 C 230.18 105.36 232.01 103.72 234.76 103.72 C 236.19 103.72 237.26 104.06 237.87 104.41 L 237.37 105.9 C 236.93 105.63 235.99 105.23 234.7 105.23 C 232.77 105.23 232.03 106.39 232.03 107.35 C 232.03 108.67 232.89 109.32 234.84 110.08 C 237.23 111 238.43 112.16 238.43 114.24 C 238.43 116.42 236.83 118.33 233.5 118.33 C 232.14 118.33 230.64 117.91 229.89 117.41 L 230.38 115.88 Z " stroke-width="1" />
    <path id="ID0.25670766504481435" d="M 248.27 117.75 C 247.79 117.98 246.72 118.34 245.35 118.34 C 242.29 118.34 240.29 116.26 240.29 113.15 C 240.29 110.02 242.43 107.73 245.75 107.73 C 246.84 107.73 247.81 108 248.31 108.28 L 247.89 109.69 C 247.45 109.46 246.76 109.21 245.75 109.21 C 243.42 109.21 242.16 110.95 242.16 113.05 C 242.16 115.4 243.67 116.85 245.69 116.85 C 246.74 116.85 247.43 116.6 247.96 116.37 L 248.27 117.75 Z " stroke-width="1" />
    <path id="ID0.7611297839321196" d="M 250.44 111.12 C 250.44 109.92 250.42 108.9 250.36 107.95 L 251.98 107.95 L 252.06 109.97 L 252.12 109.97 C 252.58 108.6 253.72 107.74 254.95 107.74 C 255.14 107.74 255.29 107.76 255.45 107.78 L 255.45 109.52 C 255.26 109.48 255.07 109.48 254.82 109.48 C 253.52 109.48 252.59 110.44 252.34 111.83 C 252.3 112.08 252.28 112.4 252.28 112.69 L 252.28 118.11 L 250.43 118.11 L 250.43 111.12 Z " stroke-width="1" />
    <path id="ID0.5825694487430155" d="M 264.34 115.67 C 264.34 116.55 264.38 117.41 264.49 118.11 L 262.83 118.11 L 262.68 116.83 L 262.62 116.83 C 262.05 117.63 260.96 118.34 259.51 118.34 C 257.45 118.34 256.4 116.89 256.4 115.42 C 256.4 112.96 258.58 111.62 262.51 111.64 L 262.51 111.43 C 262.51 110.61 262.28 109.08 260.2 109.1 C 259.23 109.1 258.25 109.37 257.53 109.86 L 257.11 108.62 C 257.95 108.09 259.19 107.74 260.47 107.74 C 263.58 107.74 264.33 109.86 264.33 111.88 L 264.33 115.67 Z M 262.55 112.92 C 260.53 112.88 258.25 113.23 258.25 115.21 C 258.25 116.43 259.05 116.97 259.97 116.97 C 261.31 116.97 262.17 116.13 262.47 115.27 C 262.53 115.06 262.55 114.85 262.55 114.68 L 262.55 112.92 Z " stroke-width="1" />
    <path id="ID0.4917095801793039" d="M 269.46 105.51 L 269.46 107.95 L 272.1 107.95 L 272.1 109.36 L 269.46 109.36 L 269.46 114.84 C 269.46 116.1 269.82 116.81 270.84 116.81 C 271.34 116.81 271.64 116.77 271.91 116.68 L 271.99 118.09 C 271.63 118.22 271.07 118.34 270.35 118.34 C 269.49 118.34 268.8 118.05 268.36 117.56 C 267.86 116.99 267.65 116.09 267.65 114.89 L 267.65 109.35 L 266.08 109.35 L 266.08 107.94 L 267.65 107.94 L 267.65 106.05 L 269.46 105.51 Z " stroke-width="1" />
    <path id="ID0.8114236444234848" d="M 281.3 117.75 C 280.82 117.98 279.75 118.34 278.38 118.34 C 275.32 118.34 273.32 116.26 273.32 113.15 C 273.32 110.02 275.46 107.73 278.78 107.73 C 279.87 107.73 280.84 108 281.34 108.28 L 280.92 109.69 C 280.48 109.46 279.79 109.21 278.78 109.21 C 276.45 109.21 275.19 110.95 275.19 113.05 C 275.19 115.4 276.7 116.85 278.72 116.85 C 279.77 116.85 280.46 116.6 280.99 116.37 L 281.3 117.75 Z " stroke-width="1" />
    <path id="ID0.07668432733044028" d="M 283.47 103.2 L 285.32 103.2 L 285.32 109.56 L 285.36 109.56 C 285.65 109.03 286.12 108.55 286.68 108.24 C 287.23 107.92 287.88 107.74 288.57 107.74 C 289.93 107.74 292.12 108.58 292.12 112.07 L 292.12 118.12 L 290.27 118.12 L 290.27 112.28 C 290.27 110.64 289.66 109.28 287.92 109.28 C 286.72 109.28 285.8 110.12 285.44 111.11 C 285.33 111.38 285.31 111.66 285.31 111.99 L 285.31 118.12 L 283.46 118.12 L 283.46 103.2 Z " stroke-width="1" />
    <path id="ID0.41767510771751404" d="M 295.12 103.2 L 296.97 103.2 L 296.97 118.11 L 295.12 118.11 L 295.12 103.2 Z " stroke-width="1" />
    <path id="ID0.8674245909787714" d="M 302.14 105.09 C 302.14 105.72 301.7 106.22 300.96 106.22 C 300.29 106.22 299.85 105.72 299.85 105.09 C 299.85 104.46 300.31 103.94 301 103.94 C 301.67 103.94 302.14 104.44 302.14 105.09 Z M 300.08 118.11 L 300.08 107.95 L 301.93 107.95 L 301.93 118.11 L 300.08 118.11 Z " stroke-width="1" />
    <path id="ID0.2101937741972506" d="M 304.99 110.7 C 304.99 109.63 304.97 108.79 304.91 107.95 L 306.55 107.95 L 306.65 109.63 L 306.69 109.63 C 307.19 108.68 308.37 107.74 310.05 107.74 C 311.46 107.74 313.64 108.58 313.64 112.07 L 313.64 118.12 L 311.79 118.12 L 311.79 112.26 C 311.79 110.62 311.18 109.26 309.44 109.26 C 308.24 109.26 307.3 110.12 306.96 111.15 C 306.88 111.38 306.83 111.7 306.83 112.01 L 306.83 118.12 L 304.98 118.12 L 304.98 110.7 Z " stroke-width="1" />
    <path id="ID0.18327161809429526" d="M 325.34 116.62 C 325.34 118.97 324.86 120.38 323.89 121.28 C 322.88 122.18 321.45 122.5 320.17 122.5 C 318.95 122.5 317.61 122.21 316.79 121.66 L 317.25 120.23 C 317.92 120.67 318.97 121.05 320.23 121.05 C 322.12 121.05 323.51 120.06 323.51 117.48 L 323.51 116.37 L 323.47 116.37 C 322.93 117.31 321.81 118.07 320.24 118.07 C 317.72 118.07 315.91 115.93 315.91 113.11 C 315.91 109.67 318.16 107.73 320.51 107.73 C 322.27 107.73 323.22 108.63 323.68 109.47 L 323.72 109.47 L 323.78 107.94 L 325.42 107.94 C 325.36 108.65 325.34 109.49 325.34 110.71 L 325.34 116.62 Z M 323.49 111.96 C 323.49 111.65 323.47 111.37 323.38 111.14 C 323.04 110.05 322.16 109.17 320.8 109.17 C 319.04 109.17 317.78 110.66 317.78 113.01 C 317.78 115 318.81 116.66 320.78 116.66 C 321.94 116.66 322.96 115.95 323.34 114.77 C 323.44 114.45 323.49 114.1 323.49 113.78 L 323.49 111.96 Z " stroke-width="1" />
    <path id="ID0.9855449227616191" d="M 328.13 116.24 C 328.7 116.58 329.66 116.95 330.59 116.95 C 331.91 116.95 332.54 116.3 332.54 115.44 C 332.54 114.56 332.02 114.1 330.67 113.59 C 328.82 112.92 327.96 111.93 327.96 110.71 C 327.96 109.07 329.3 107.73 331.47 107.73 C 332.5 107.73 333.4 108 333.95 108.36 L 333.51 109.7 C 333.11 109.45 332.38 109.09 331.43 109.09 C 330.34 109.09 329.75 109.72 329.75 110.48 C 329.75 111.32 330.34 111.7 331.66 112.22 C 333.4 112.87 334.33 113.75 334.33 115.26 C 334.33 117.06 332.92 118.32 330.55 118.32 C 329.44 118.32 328.41 118.03 327.69 117.61 L 328.13 116.24 Z " stroke-width="1" />
    <path id="ID0.4740967219695449" d="M 348.29 115.67 C 348.29 116.55 348.33 117.41 348.44 118.11 L 346.78 118.11 L 346.63 116.83 L 346.57 116.83 C 346 117.63 344.91 118.34 343.46 118.34 C 341.4 118.34 340.35 116.89 340.35 115.42 C 340.35 112.96 342.53 111.62 346.46 111.64 L 346.46 111.43 C 346.46 110.61 346.23 109.08 344.15 109.1 C 343.18 109.1 342.2 109.37 341.48 109.86 L 341.06 108.62 C 341.9 108.09 343.14 107.74 344.42 107.74 C 347.53 107.74 348.28 109.86 348.28 111.88 L 348.28 115.67 Z M 346.51 112.92 C 344.49 112.88 342.21 113.23 342.21 115.21 C 342.21 116.43 343.01 116.97 343.93 116.97 C 345.27 116.97 346.13 116.13 346.43 115.27 C 346.49 115.06 346.51 114.85 346.51 114.68 L 346.51 112.92 Z " stroke-width="1" />
    <path id="ID0.6971151842735708" d="M 351.28 110.7 C 351.28 109.63 351.26 108.79 351.2 107.95 L 352.84 107.95 L 352.94 109.63 L 352.98 109.63 C 353.48 108.68 354.66 107.74 356.34 107.74 C 357.75 107.74 359.93 108.58 359.93 112.07 L 359.93 118.12 L 358.08 118.12 L 358.08 112.26 C 358.08 110.62 357.47 109.26 355.73 109.26 C 354.53 109.26 353.59 110.12 353.25 111.15 C 353.17 111.38 353.12 111.7 353.12 112.01 L 353.12 118.12 L 351.27 118.12 L 351.27 110.7 Z " stroke-width="1" />
    <path id="ID0.08932208549231291" d="M 371.69 103.2 L 371.69 115.48 C 371.69 116.38 371.73 117.41 371.77 118.11 L 370.13 118.11 L 370.05 116.35 L 369.99 116.35 C 369.44 117.48 368.23 118.34 366.57 118.34 C 364.11 118.34 362.2 116.26 362.2 113.18 C 362.18 109.8 364.3 107.74 366.76 107.74 C 368.33 107.74 369.36 108.48 369.83 109.27 L 369.87 109.27 L 369.87 103.2 L 371.69 103.2 Z M 369.86 112.08 C 369.86 111.85 369.84 111.53 369.78 111.3 C 369.51 110.15 368.5 109.18 367.11 109.18 C 365.2 109.18 364.07 110.86 364.07 113.09 C 364.07 115.15 365.1 116.85 367.07 116.85 C 368.31 116.85 369.44 116.01 369.78 114.64 C 369.84 114.39 369.86 114.14 369.86 113.84 L 369.86 112.08 Z " stroke-width="1" />
    <path id="ID0.778563542291522" d="M 379.23 110.7 C 379.23 109.63 379.19 108.79 379.15 107.95 L 380.77 107.95 L 380.85 109.61 L 380.91 109.61 C 381.48 108.65 382.42 107.74 384.12 107.74 C 385.48 107.74 386.54 108.58 386.98 109.78 L 387.02 109.78 C 387.33 109.19 387.75 108.77 388.17 108.46 C 388.78 108 389.43 107.75 390.4 107.75 C 391.76 107.75 393.76 108.63 393.76 112.16 L 393.76 118.12 L 391.95 118.12 L 391.95 112.39 C 391.95 110.42 391.22 109.26 389.75 109.26 C 388.68 109.26 387.88 110.04 387.55 110.92 C 387.47 111.19 387.4 111.51 387.4 111.84 L 387.4 118.12 L 385.59 118.12 L 385.59 112.03 C 385.59 110.41 384.88 109.26 383.47 109.26 C 382.34 109.26 381.48 110.18 381.18 111.11 C 381.08 111.36 381.03 111.7 381.03 112.01 L 381.03 118.12 L 379.23 118.12 L 379.23 110.7 Z " stroke-width="1" />
    <path id="ID0.8314350307919085" d="M 403.88 115.67 C 403.88 116.55 403.92 117.41 404.03 118.11 L 402.37 118.11 L 402.22 116.83 L 402.16 116.83 C 401.59 117.63 400.5 118.34 399.05 118.34 C 396.99 118.34 395.94 116.89 395.94 115.42 C 395.94 112.96 398.12 111.62 402.05 111.64 L 402.05 111.43 C 402.05 110.61 401.82 109.08 399.74 109.1 C 398.78 109.1 397.79 109.37 397.07 109.86 L 396.65 108.62 C 397.49 108.09 398.73 107.74 400.01 107.74 C 403.12 107.74 403.87 109.86 403.87 111.88 L 403.87 115.67 Z M 402.09 112.92 C 400.07 112.88 397.79 113.23 397.79 115.21 C 397.79 116.43 398.59 116.97 399.51 116.97 C 400.85 116.97 401.72 116.13 402.01 115.27 C 402.07 115.06 402.09 114.85 402.09 114.68 L 402.09 112.92 Z " stroke-width="1" />
    <path id="ID0.9553751717321575" d="M 415.62 103.2 L 415.62 115.48 C 415.62 116.38 415.66 117.41 415.7 118.11 L 414.06 118.11 L 413.98 116.35 L 413.92 116.35 C 413.38 117.48 412.16 118.34 410.5 118.34 C 408.04 118.34 406.13 116.26 406.13 113.18 C 406.11 109.8 408.23 107.74 410.69 107.74 C 412.26 107.74 413.29 108.48 413.75 109.27 L 413.79 109.27 L 413.79 103.2 L 415.62 103.2 Z M 413.79 112.08 C 413.79 111.85 413.77 111.53 413.71 111.3 C 413.44 110.15 412.43 109.18 411.04 109.18 C 409.13 109.18 408 110.86 408 113.09 C 408 115.15 409.03 116.85 411 116.85 C 412.24 116.85 413.37 116.01 413.71 114.64 C 413.77 114.39 413.79 114.14 413.79 113.84 L 413.79 112.08 Z " stroke-width="1" />
    <path id="ID0.8895408413372934" d="M 419.73 113.36 C 419.77 115.86 421.35 116.89 423.22 116.89 C 424.54 116.89 425.36 116.66 426.03 116.37 L 426.37 117.69 C 425.72 117.98 424.59 118.34 422.97 118.34 C 419.84 118.34 417.97 116.26 417.97 113.2 C 417.97 110.14 419.78 107.74 422.74 107.74 C 426.08 107.74 426.94 110.64 426.94 112.51 C 426.94 112.89 426.92 113.16 426.88 113.37 L 419.73 113.37 Z M 425.15 112.04 C 425.17 110.89 424.67 109.06 422.59 109.06 C 420.7 109.06 419.9 110.76 419.76 112.04 L 425.15 112.04 Z " stroke-width="1" />
    <path id="ID0.18521622149273753" d="M 440.82 115.67 C 440.82 116.55 440.86 117.41 440.97 118.11 L 439.31 118.11 L 439.16 116.83 L 439.1 116.83 C 438.53 117.63 437.44 118.34 435.99 118.34 C 433.93 118.34 432.88 116.89 432.88 115.42 C 432.88 112.96 435.06 111.62 438.99 111.64 L 438.99 111.43 C 438.99 110.61 438.76 109.08 436.68 109.1 C 435.71 109.1 434.73 109.37 434.01 109.86 L 433.59 108.62 C 434.43 108.09 435.67 107.74 436.95 107.74 C 440.06 107.74 440.81 109.86 440.81 111.88 L 440.81 115.67 Z M 439.03 112.92 C 437.01 112.88 434.73 113.23 434.73 115.21 C 434.73 116.43 435.53 116.97 436.45 116.97 C 437.79 116.97 438.65 116.13 438.95 115.27 C 439.01 115.06 439.03 114.85 439.03 114.68 L 439.03 112.92 Z " stroke-width="1" />
    <path id="ID0.661872236058116" d="M 448.25 111.12 C 448.25 109.92 448.23 108.9 448.17 107.95 L 449.79 107.95 L 449.87 109.97 L 449.93 109.97 C 450.39 108.6 451.53 107.74 452.76 107.74 C 452.95 107.74 453.1 107.76 453.26 107.78 L 453.26 109.52 C 453.07 109.48 452.88 109.48 452.63 109.48 C 451.33 109.48 450.4 110.44 450.15 111.83 C 450.11 112.08 450.09 112.4 450.09 112.69 L 450.09 118.11 L 448.24 118.11 L 448.24 111.12 Z " stroke-width="1" />
    <path id="ID0.333407333586365" d="M 463.62 115.31 C 463.62 116.38 463.64 117.31 463.7 118.1 L 462.06 118.1 L 461.96 116.44 L 461.92 116.44 C 461.46 117.26 460.37 118.33 458.56 118.33 C 456.96 118.33 455.05 117.43 455.05 113.88 L 455.05 107.94 L 456.9 107.94 L 456.9 113.55 C 456.9 115.48 457.51 116.8 459.17 116.8 C 460.41 116.8 461.27 115.94 461.61 115.1 C 461.71 114.85 461.78 114.51 461.78 114.15 L 461.78 107.94 L 463.63 107.94 L 463.63 115.31 Z " stroke-width="1" />
    <path id="ID0.9457205627113581" d="M 466.69 110.7 C 466.69 109.63 466.67 108.79 466.61 107.95 L 468.25 107.95 L 468.35 109.63 L 468.39 109.63 C 468.89 108.68 470.07 107.74 471.75 107.74 C 473.16 107.74 475.34 108.58 475.34 112.07 L 475.34 118.12 L 473.49 118.12 L 473.49 112.26 C 473.49 110.62 472.88 109.26 471.14 109.26 C 469.94 109.26 469 110.12 468.66 111.15 C 468.58 111.38 468.53 111.7 468.53 112.01 L 468.53 118.12 L 466.68 118.12 L 466.68 110.7 Z " stroke-width="1" />
    <path id="ID0.7120644859969616" d="M 482.99 118.11 L 482.99 109.35 L 481.58 109.35 L 481.58 107.94 L 482.99 107.94 L 482.99 107.46 C 482.99 106.03 483.33 104.73 484.17 103.91 C 484.86 103.24 485.79 102.96 486.65 102.96 C 487.32 102.96 487.87 103.11 488.23 103.25 L 487.98 104.68 C 487.71 104.55 487.35 104.45 486.8 104.45 C 485.22 104.45 484.83 105.81 484.83 107.39 L 484.83 107.94 L 487.29 107.94 L 487.29 109.35 L 484.83 109.35 L 484.83 118.11 L 482.99 118.11 Z " stroke-width="1" />
    <path id="ID0.2888018465600908" d="M 497.85 112.94 C 497.85 116.7 495.23 118.34 492.79 118.34 C 490.06 118.34 487.92 116.32 487.92 113.11 C 487.92 109.73 490.17 107.73 492.96 107.73 C 495.88 107.74 497.85 109.86 497.85 112.94 Z M 489.81 113.05 C 489.81 115.28 491.07 116.96 492.88 116.96 C 494.64 116.96 495.97 115.3 495.97 113.01 C 495.97 111.29 495.11 109.13 492.93 109.13 C 490.76 109.12 489.81 111.14 489.81 113.05 Z " stroke-width="1" />
    <path id="ID0.4838126110844314" d="M 500.19 111.12 C 500.19 109.92 500.17 108.9 500.11 107.95 L 501.73 107.95 L 501.81 109.97 L 501.87 109.97 C 502.33 108.6 503.47 107.74 504.7 107.74 C 504.89 107.74 505.04 107.76 505.2 107.78 L 505.2 109.52 C 505.01 109.48 504.82 109.48 504.57 109.48 C 503.27 109.48 502.34 110.44 502.09 111.83 C 502.05 112.08 502.03 112.4 502.03 112.69 L 502.03 118.11 L 500.18 118.11 L 500.18 111.12 Z " stroke-width="1" />
    <path id="ID0.6812613415531814" d="M 513.56 105.09 C 513.56 105.72 513.12 106.22 512.38 106.22 C 511.71 106.22 511.27 105.72 511.27 105.09 C 511.27 104.46 511.73 103.94 512.43 103.94 C 513.1 103.94 513.56 104.44 513.56 105.09 Z M 511.5 118.11 L 511.5 107.95 L 513.35 107.95 L 513.35 118.11 L 511.5 118.11 Z " stroke-width="1" />
    <path id="ID0.6477109198458493" d="M 518.64 105.51 L 518.64 107.95 L 521.29 107.95 L 521.29 109.36 L 518.64 109.36 L 518.64 114.84 C 518.64 116.1 519 116.81 520.03 116.81 C 520.53 116.81 520.83 116.77 521.1 116.68 L 521.18 118.09 C 520.82 118.22 520.26 118.34 519.54 118.34 C 518.68 118.34 517.99 118.05 517.54 117.56 C 517.04 116.99 516.83 116.09 516.83 114.89 L 516.83 109.35 L 515.25 109.35 L 515.25 107.94 L 516.83 107.94 L 516.83 106.05 L 518.64 105.51 Z " stroke-width="1" />
    <path id="ID0.9410818782635033" d="M 523.01 117.04 C 523.01 116.28 523.53 115.74 524.27 115.74 C 525 115.74 525.49 116.29 525.49 117.04 C 525.49 117.77 525.01 118.34 524.23 118.34 C 523.52 118.34 523.01 117.77 523.01 117.04 Z M 523.54 114.05 L 523.25 103.95 L 525.27 103.95 L 524.98 114.05 L 523.54 114.05 Z " stroke-width="1" />
  </g>
  <path id="ID0.2979870745912194" fill="none" stroke="#C6EDFF" stroke-width="0.1" d="M 0 255 L 11 255 L 11 266 L 0 266 L 0 255 Z "/>
  <path id="ID0.08155053667724133" fill="none" stroke="#C6EDFF" stroke-width="0.1" d="M 666 194 L 679 194 L 679 206 L 666 206 L 666 194 Z "/>
  <path id="ID0.008281173184514046" fill="none" stroke="#FFFFFF" stroke-width="2" stroke-linecap="round" d="M 657 1 L 657.3 1.3 "/>
  <path id="ID0.467786343768239" fill="none" stroke="#FFFFFF" stroke-width="2" stroke-linecap="round" d="M 9 15 L 9.3 15.3 "/>
</svg>