<svg version="1.1" xmlns="http://www.w3.org/2000/svg" xmlns:xlink="http://www.w3.org/1999/xlink" width="382.2794" height="381.28952" viewBox="0,0,382.2794,381.28952"><defs><linearGradient x1="237.99877" y1="52.67138" x2="237.99877" y2="406.29211" gradientUnits="userSpaceOnUse" id="color-1"><stop offset="0" stop-color="#000000"/><stop offset="1" stop-color="#000000" stop-opacity="0"/></linearGradient><linearGradient x1="52.47635" y1="201.81295" x2="422.38022" y2="201.81295" gradientUnits="userSpaceOnUse" id="color-2"><stop offset="0" stop-color="#ffffff"/><stop offset="1" stop-color="#a5a5a5"/></linearGradient><linearGradient x1="329.68107" y1="75.36226" x2="400.86988" y2="197.03185" gradientTransform="translate(-66.43841,-125.32817) rotate(35.05478) scale(0.35276,0.35276)" gradientUnits="userSpaceOnUse" id="color-3"><stop offset="0" stop-color="#ffffff"/><stop offset="1" stop-color="#a5a5a5"/></linearGradient><linearGradient x1="265.34913" y1="215.57809" x2="243.11407" y2="-16.65652" gradientUnits="userSpaceOnUse" id="color-4"><stop offset="0" stop-color="#ffffff" stop-opacity="0"/><stop offset="1" stop-color="#ffffff"/></linearGradient></defs><g transform="translate(-52.47636,-25.00259)"><g data-paper-data="{&quot;isPaintingLayer&quot;:true}" fill-rule="nonzero" stroke-linejoin="miter" stroke-miterlimit="10" stroke-dasharray="" stroke-dashoffset="0" style="mix-blend-mode: normal"><path d="M420.48739,227.82142c0,58.54548 9.14947,134.33922 -36.62674,165.7421c-29.11266,19.97154 -103.69001,7.68133 -142.05194,7.68133c-32.45404,0 -131.95625,12.62302 -158.18752,-2.05614c-53.52897,-29.9551 -20.49116,-107.08769 -20.49116,-171.36729c0,-54.03495 -6.07011,-123.319 33.84333,-155.12451c30.83473,-24.57103 101.82621,-18.29891 144.83535,-18.29891c46.24992,0 124.43168,-9.9717 156.16106,18.01246c35.97026,31.72447 22.51762,104.52148 22.51762,155.41097z" fill="url(#color-1)" stroke="none" stroke-width="0" stroke-linecap="butt"/><g><path d="M419.91691,200.15263c0,58.54548 9.14947,134.33922 -36.62674,165.7421c-29.11266,19.97154 -103.69001,7.68133 -142.05194,7.68133c-32.45404,0 -131.95625,12.62302 -158.18752,-2.05614c-53.52897,-29.9551 -20.49116,-107.08769 -20.49116,-171.36729c0,-54.03495 -6.07011,-123.319 33.84333,-155.12451c30.83473,-24.57103 101.82621,-18.29891 144.83535,-18.29891c46.24992,0 124.43168,-9.9717 156.16106,18.01246c35.97026,31.72447 22.51762,104.52148 22.51762,155.41097z" fill="url(#color-2)" stroke="none" stroke-width="0" stroke-linecap="butt"/><text transform="matrix(1.84364 0 0 1.84364 179.5914 89.76816)" font-size="40"  fill="#ffffff" fill-rule="nonzero" stroke="none" stroke-width="1" stroke-linecap="butt" stroke-linejoin="miter" stroke-miterlimit="10" stroke-dasharray="" stroke-dashoffset="0" font-family="Helvetica" font-weight="normal" text-anchor="start" style="mix-blend-mode: normal" >1</text><text transform="matrix(1.09964 0 0 1.09964 353.20711 192.38513999999998)" font-size="40"  fill="#ffffff" fill-rule="nonzero" stroke="none" stroke-width="1" stroke-linecap="butt" stroke-linejoin="miter" stroke-miterlimit="10" stroke-dasharray="" stroke-dashoffset="0" font-family="Helvetica" font-weight="normal" text-anchor="start" style="mix-blend-mode: normal" >2</text><text transform="matrix(3.73094 0 0 3.73094 186.99483 218.13004)" font-size="40"  fill="#ffffff" fill-rule="nonzero" stroke="none" stroke-width="1" stroke-linecap="butt" stroke-linejoin="miter" stroke-miterlimit="10" stroke-dasharray="" stroke-dashoffset="0" font-family="Helvetica" font-weight="normal" text-anchor="start" style="mix-blend-mode: normal" >3</text><text transform="matrix(3.56939 0 0 3.56939 242.52486 91.91597000000002)" font-size="40"  fill="#ffffff" fill-rule="nonzero" stroke="none" stroke-width="1" stroke-linecap="butt" stroke-linejoin="miter" stroke-miterlimit="10" stroke-dasharray="" stroke-dashoffset="0" font-family="Helvetica" font-weight="normal" text-anchor="start" style="mix-blend-mode: normal" >4</text><text transform="matrix(1.67122 0 0 1.67122 281.32128 252.68466000000004)" font-size="40"  fill="#ffffff" fill-rule="nonzero" stroke="none" stroke-width="1" stroke-linecap="butt" stroke-linejoin="miter" stroke-miterlimit="10" stroke-dasharray="" stroke-dashoffset="0" font-family="Helvetica" font-weight="normal" text-anchor="start" style="mix-blend-mode: normal" >5</text><text transform="matrix(2.83481 0 0 2.83481 358.23524 111.7894)" font-size="40"  fill="url(#color-3)" fill-rule="nonzero" stroke="none" stroke-width="1" stroke-linecap="butt" stroke-linejoin="miter" stroke-miterlimit="10" stroke-dasharray="" stroke-dashoffset="0" font-family="Helvetica" font-weight="normal" text-anchor="start" style="mix-blend-mode: normal" >6</text><g fill="none" stroke="#ffffff" stroke-width="2.5" stroke-linecap="round"><path d="M141.75983,284.07172l-50.96353,-25.24486"/><path d="M83.89643,271.22914l50.24794,24.49312"/></g><g fill="none" stroke="#ffffff" stroke-width="2.5" stroke-linecap="round"><path d="M108.18087,142.03964l56.10304,25.33853"/><path d="M142.5888,127.89326l-12.93903,49.71251"/></g><g fill="none" stroke="#ffffff" stroke-width="10" stroke-linecap="round"><path d="M287.05656,231.1202l0.54563,-28.64552"/><path d="M301.24292,215.29696l-32.46493,-0.54563"/></g><path d="M313.88282,339.0108l76.2837,-35.42712" fill="none" stroke="#ffffff" stroke-width="2.5" stroke-linecap="round"/><g stroke-width="2.5"><path d="M200.78835,95.50511l57.88722,-23.28295" fill="none" stroke="#ffffff" stroke-linecap="round"/><path d="M216.56184,59.06074c-1.0121,-2.58794 0.26537,-5.50637 2.85331,-6.51847c2.58794,-1.0121 5.50637,0.26537 6.51847,2.85331c1.01211,2.58795 -0.26537,5.50637 -2.85331,6.51847c-2.58794,1.0121 -5.50637,-0.26536 -6.51847,-2.85331z" fill="#ffffff" stroke="none" stroke-linecap="butt"/><path d="M234.69753,105.43358c-1.01211,-2.58795 0.26537,-5.50637 2.85331,-6.51847c2.58794,-1.0121 5.50637,0.26536 6.51847,2.85331c1.01211,2.58795 -0.26537,5.50637 -2.85331,6.51847c-2.58794,1.0121 -5.50637,-0.26536 -6.51847,-2.85331z" fill="#ffffff" stroke="none" stroke-linecap="butt"/></g><text transform="matrix(1.06207 0 0 1.06207 189.55984 308.48954)" font-size="40"  fill="#ffffff" fill-rule="nonzero" stroke="none" stroke-width="1" stroke-linecap="butt" stroke-linejoin="miter" stroke-miterlimit="10" stroke-dasharray="" stroke-dashoffset="0" font-family="Helvetica" font-weight="normal" text-anchor="start" style="mix-blend-mode: normal" >7</text><text transform="matrix(0.91987 0 0 0.91987 256.4059 292.78132999999997)" font-size="40"  fill="#ffffff" fill-rule="nonzero" stroke="none" stroke-width="1" stroke-linecap="butt" stroke-linejoin="miter" stroke-miterlimit="10" stroke-dasharray="" stroke-dashoffset="0" font-family="Helvetica" font-weight="normal" text-anchor="start" style="mix-blend-mode: normal" >8</text><text transform="matrix(0.82051 0 0 0.82051 222.86466 316.00069)" font-size="40"  fill="#ffffff" fill-rule="nonzero" stroke="none" stroke-width="1" stroke-linecap="butt" stroke-linejoin="miter" stroke-miterlimit="10" stroke-dasharray="" stroke-dashoffset="0" font-family="Helvetica" font-weight="normal" text-anchor="start" style="mix-blend-mode: normal" >9</text><text transform="matrix(0.81982 0 0 0.81982 145.10659 325.65129)" font-size="40"  fill="#ffffff" fill-rule="nonzero" stroke="none" stroke-width="1" stroke-linecap="butt" stroke-linejoin="miter" stroke-miterlimit="10" stroke-dasharray="" stroke-dashoffset="0" font-family="Helvetica" font-weight="normal" text-anchor="start" style="mix-blend-mode: normal" >10</text><text transform="matrix(0.99272 0 0 0.99272 82.14635 291.09019)" font-size="40"  fill="#ffffff" fill-rule="nonzero" stroke="none" stroke-width="1" stroke-linecap="butt" stroke-linejoin="miter" stroke-miterlimit="10" stroke-dasharray="" stroke-dashoffset="0" font-family="Helvetica" font-weight="normal" text-anchor="start" style="mix-blend-mode: normal" >11</text><text transform="matrix(0.75294 0 0 0.75294 235.00787 195.57137)" font-size="40"  fill="#ffffff" fill-rule="nonzero" stroke="none" stroke-width="1" stroke-linecap="butt" stroke-linejoin="miter" stroke-miterlimit="10" stroke-dasharray="" stroke-dashoffset="0" font-family="Helvetica" font-weight="normal" text-anchor="start" style="mix-blend-mode: normal" >12</text><text transform="matrix(0.73438 0 0 0.73438 327.13875 275.61775)" font-size="40"  fill="#ffffff" fill-rule="nonzero" stroke="none" stroke-width="1" stroke-linecap="butt" stroke-linejoin="miter" stroke-miterlimit="10" stroke-dasharray="" stroke-dashoffset="0" font-family="Helvetica" font-weight="normal" text-anchor="start" style="mix-blend-mode: normal" >13</text><text transform="matrix(0.78196 0 0 0.78196 250.31123 267.55030000000005)" font-size="40"  fill="#ffffff" fill-rule="nonzero" stroke="none" stroke-width="1" stroke-linecap="butt" stroke-linejoin="miter" stroke-miterlimit="10" stroke-dasharray="" stroke-dashoffset="0" font-family="Helvetica" font-weight="normal" text-anchor="start" style="mix-blend-mode: normal" >14</text><text transform="matrix(0.9074 0 0 0.9074 370.54444 262.7262)" font-size="40"  fill="#ffffff" fill-rule="nonzero" stroke="none" stroke-width="1" stroke-linecap="butt" stroke-linejoin="miter" stroke-miterlimit="10" stroke-dasharray="" stroke-dashoffset="0" font-family="Helvetica" font-weight="normal" text-anchor="start" style="mix-blend-mode: normal" >15</text><text transform="matrix(0.94155 0 0 0.94155 184.91535 121.75079)" font-size="40"  fill="#ffffff" fill-rule="nonzero" stroke="none" stroke-width="1" stroke-linecap="butt" stroke-linejoin="miter" stroke-miterlimit="10" stroke-dasharray="" stroke-dashoffset="0" font-family="Helvetica" font-weight="normal" text-anchor="start" style="mix-blend-mode: normal" >78</text><text transform="matrix(0.81302 0 0 0.81302 75.46567 175.29783)" font-size="40"  fill="#ffffff" fill-rule="nonzero" stroke="none" stroke-width="1" stroke-linecap="butt" stroke-linejoin="miter" stroke-miterlimit="10" stroke-dasharray="" stroke-dashoffset="0" font-family="Helvetica" font-weight="normal" text-anchor="start" style="mix-blend-mode: normal" >87</text></g><path d="M60.34743,108.49387c-0.80957,-8.45561 4.66659,-11.96081 6.68563,-17.44423c2.62836,-7.13824 2.52717,-15.5428 7.0865,-21.24303c8.36903,-10.46323 17.73041,-21.69941 43.52237,-33.5711c31.22583,-14.37284 75.25162,-4.43611 117.67773,-6.33906c48.18459,-2.16124 66.25372,-4.46302 96.69831,-0.97876c11.42625,1.30769 38.7857,-5.59961 49.54534,1.72375c26.74793,18.20553 31.03766,35.36688 33.51943,61.28775c6.14004,64.12982 -38.50805,118.66006 -149.7336,123.64889c-111.22555,4.98883 -201.86466,-39.95141 -208.00471,-104.08122z" fill="url(#color-4)" stroke="none" stroke-width="0" stroke-linecap="butt"/></g></g></svg>