<svg xmlns="http://www.w3.org/2000/svg" xmlns:xlink="http://www.w3.org/1999/xlink" xmlns:a="http://ns.adobe.com/AdobeSVGViewerExtensions/3.0/" version="1.1" x="0px" y="0px" width="43.281005859375" height="61.53099822998047" viewBox="0 0 43.281005859375 61.53099822998047" enable-background="new -10.066 -1.388 64 64" xml:space="preserve">
  <defs/>
  <g>
    <path fill="#594419" d="M22.591,60.531c-2.955,0-5.655-0.544-8.024-1.615c-2.346-1.062-4.317-2.419-5.86-4.036&#13;&#10;&#9;c-1.521-1.597-2.693-3.282-3.482-5.014C4.4,48.064,4,46.57,4,45.299c0-1.771,0.6-3.236,1.78-4.356&#13;&#10;&#9;c1.159-1.096,2.604-1.651,4.297-1.651c0.943,0,1.853,0.273,2.701,0.813c0.9,0.57,1.51,1.3,1.813,2.169&#13;&#10;&#9;c1.103,2.947,2.289,5.165,3.515,6.555c1.055,1.196,2.545,1.777,4.555,1.777c1.166,0,2.262-0.281,3.354-0.86&#13;&#10;&#9;c1.074-0.57,1.942-1.401,2.655-2.543c0.704-1.124,1.044-2.408,1.044-3.926c0-2.269-0.571-3.967-1.749-5.191&#13;&#10;&#9;c-1.162-1.207-2.785-1.793-4.961-1.793c-0.425,0-1.084,0.045-1.977,0.129c-1.037,0.1-1.705,0.146-2.001,0.146&#13;&#10;&#9;c-1.66,0-3.001-0.459-3.984-1.359c-0.704-0.646-1.544-1.827-1.544-3.793c0-1.567,0.628-2.91,1.814-3.884&#13;&#10;&#9;c1.112-0.909,2.684-1.37,4.674-1.37h1.405c1.744,0,3.194-0.489,4.435-1.497c1.141-0.926,1.695-2.262,1.695-4.083&#13;&#10;&#9;c0-1.349-0.451-2.477-1.379-3.448c-0.906-0.95-2.136-1.411-3.756-1.411c-1.171,0-2.119,0.152-2.819,0.453&#13;&#10;&#9;c-0.673,0.29-1.178,0.647-1.543,1.092c-0.439,0.535-0.871,1.252-1.281,2.133c-0.462,0.992-0.885,1.929-1.269,2.808&#13;&#10;&#9;c-0.414,0.871-1.088,1.507-2.023,1.939c-0.803,0.37-1.719,0.558-2.722,0.558c-1.337,0-2.558-0.526-3.625-1.563&#13;&#10;&#9;c-1.08-1.048-1.629-2.429-1.629-4.103c0-1.453,0.429-2.972,1.275-4.517c0.809-1.477,1.989-2.888,3.512-4.195&#13;&#10;&#9;c1.527-1.313,3.435-2.375,5.668-3.156C18.146,6.394,20.641,6,23.346,6c2.375,0,4.584,0.333,6.566,0.989&#13;&#10;&#9;c2.016,0.668,3.796,1.649,5.293,2.917c1.522,1.293,2.691,2.818,3.47,4.532c0.776,1.709,1.172,3.567,1.172,5.524&#13;&#10;&#9;c0,2.57-0.581,4.825-1.724,6.704c-0.764,1.255-1.761,2.492-2.979,3.696c1.124,0.747,2.125,1.563,2.991,2.438&#13;&#10;&#9;c1.363,1.376,2.406,2.927,3.1,4.608c0.694,1.684,1.046,3.52,1.046,5.456c0,2.286-0.464,4.527-1.381,6.661&#13;&#10;&#9;c-0.917,2.136-2.283,4.062-4.059,5.725c-1.768,1.655-3.885,2.964-6.291,3.89C28.146,60.063,25.47,60.531,22.591,60.531&#13;&#10;&#9;L22.591,60.531z" stroke-width="1"/>
    <linearGradient id="SVGID_1_" gradientUnits="userSpaceOnUse" x1="20.1401" y1="1" x2="20.1401" y2="55.5313">
      <stop offset="0" style="stop-color:#FFFFFF"/>
      <stop offset="1" style="stop-color:#FFD38F"/>
    </linearGradient>
    <path fill="url(#SVGID_1_)" stroke="#594419" stroke-width="2" d="M19.591,55.531c-2.955,0-5.655-0.544-8.024-1.615&#13;&#10;&#9;c-2.346-1.062-4.317-2.419-5.86-4.036c-1.521-1.597-2.693-3.282-3.482-5.014C1.4,43.064,1,41.57,1,40.299&#13;&#10;&#9;c0-1.771,0.6-3.236,1.78-4.356c1.159-1.096,2.604-1.651,4.297-1.651c0.943,0,1.853,0.273,2.701,0.813c0.9,0.57,1.51,1.3,1.813,2.169&#13;&#10;&#9;c1.103,2.947,2.289,5.165,3.515,6.555c1.055,1.196,2.545,1.777,4.555,1.777c1.166,0,2.262-0.281,3.354-0.86&#13;&#10;&#9;c1.074-0.57,1.942-1.401,2.655-2.543c0.704-1.124,1.044-2.408,1.044-3.926c0-2.269-0.571-3.967-1.749-5.191&#13;&#10;&#9;c-1.162-1.207-2.785-1.793-4.961-1.793c-0.425,0-1.084,0.045-1.977,0.129c-1.037,0.1-1.705,0.146-2.001,0.146&#13;&#10;&#9;c-1.66,0-3.001-0.459-3.984-1.359c-0.704-0.646-1.544-1.827-1.544-3.793c0-1.567,0.628-2.91,1.814-3.884&#13;&#10;&#9;c1.112-0.909,2.684-1.37,4.674-1.37h1.405c1.744,0,3.194-0.489,4.435-1.497c1.141-0.926,1.695-2.262,1.695-4.083&#13;&#10;&#9;c0-1.349-0.451-2.477-1.379-3.448c-0.906-0.95-2.136-1.411-3.756-1.411c-1.171,0-2.119,0.152-2.819,0.453&#13;&#10;&#9;c-0.673,0.29-1.178,0.647-1.543,1.092c-0.439,0.535-0.871,1.252-1.281,2.133c-0.462,0.992-0.885,1.929-1.269,2.808&#13;&#10;&#9;c-0.414,0.871-1.088,1.507-2.023,1.939c-0.803,0.37-1.719,0.558-2.722,0.558c-1.337,0-2.558-0.526-3.625-1.563&#13;&#10;&#9;c-1.08-1.048-1.629-2.429-1.629-4.103c0-1.453,0.429-2.972,1.275-4.517c0.809-1.477,1.989-2.888,3.512-4.195&#13;&#10;&#9;c1.527-1.313,3.435-2.375,5.668-3.156C15.146,1.394,17.641,1,20.346,1c2.375,0,4.584,0.333,6.566,0.989&#13;&#10;&#9;c2.016,0.668,3.796,1.649,5.293,2.917c1.522,1.293,2.691,2.818,3.47,4.532c0.776,1.709,1.172,3.567,1.172,5.524&#13;&#10;&#9;c0,2.57-0.581,4.825-1.724,6.704c-0.764,1.255-1.761,2.492-2.979,3.696c1.124,0.747,2.125,1.563,2.991,2.438&#13;&#10;&#9;c1.363,1.376,2.406,2.927,3.1,4.608c0.694,1.684,1.046,3.52,1.046,5.456c0,2.286-0.464,4.527-1.381,6.661&#13;&#10;&#9;c-0.917,2.136-2.283,4.062-4.059,5.725c-1.768,1.655-3.885,2.964-6.291,3.89C25.146,55.063,22.47,55.531,19.591,55.531&#13;&#10;&#9;L19.591,55.531z"/>
  </g>
</svg>