<svg xmlns="http://www.w3.org/2000/svg" xmlns:xlink="http://www.w3.org/1999/xlink" version="1.1" width="123.07186126708984" height="37.82148361206055" viewBox="-0.5 -0.4914820194244385 123.07186126708984 37.82148361206055">
  <!-- Exported by Scratch - http://scratch.mit.edu/ -->
  <g id="ID0.09742937376722693">
    <path id="ID0.3084553489461541" fill="none" d="M 0 4.830 L 98.680 4.830 L 98.680 36.830 L 0 36.830 L 0 4.830 Z " stroke-width="1"/>
    <path id="ID0.13452717615291476" fill="#FFDB43" d="M 121.410 25.690 C 121.410 31.840 118.900 36.830 115.790 36.830 L 91.030 36.830 C 87.930 36.830 85.410 31.840 85.410 25.690 L 85.410 15.980 C 85.410 9.830 87.920 4.840 91.030 4.840 L 115.800 4.840 C 118.900 4.840 121.420 9.830 121.420 15.980 L 121.420 25.690 Z " stroke-width="1"/>
    <path id="ID0.6446947171352804" d="M 18.850 22.490 C 18.850 23.490 18.590 24.400 18.070 25.200 C 17.550 26 16.800 26.630 15.800 27.080 C 14.800 27.530 13.620 27.760 12.250 27.760 C 10.610 27.760 9.260 27.450 8.190 26.830 C 7.430 26.380 6.820 25.790 6.350 25.040 C 5.880 24.300 5.640 23.570 5.640 22.870 C 5.640 22.460 5.780 22.110 6.070 21.820 C 6.350 21.530 6.710 21.380 7.150 21.380 C 7.500 21.380 7.810 21.490 8.050 21.720 C 8.290 21.950 8.510 22.280 8.680 22.730 C 8.890 23.260 9.120 23.700 9.370 24.060 C 9.620 24.420 9.960 24.710 10.410 24.940 C 10.860 25.170 11.440 25.290 12.170 25.290 C 13.170 25.290 13.980 25.060 14.600 24.590 C 15.220 24.130 15.540 23.550 15.540 22.850 C 15.540 22.300 15.370 21.850 15.040 21.510 C 14.700 21.170 14.270 20.900 13.740 20.720 C 13.210 20.540 12.490 20.350 11.600 20.140 C 10.410 19.860 9.410 19.530 8.600 19.160 C 7.790 18.790 7.160 18.280 6.680 17.630 C 6.210 16.980 5.970 16.180 5.970 15.220 C 5.970 14.310 6.220 13.490 6.720 12.780 C 7.220 12.070 7.940 11.520 8.890 11.140 C 9.830 10.760 10.950 10.570 12.220 10.570 C 13.240 10.570 14.120 10.700 14.870 10.950 C 15.610 11.200 16.230 11.540 16.720 11.960 C 17.210 12.380 17.570 12.820 17.800 13.280 C 18.030 13.740 18.140 14.190 18.140 14.630 C 18.140 15.030 18 15.390 17.710 15.710 C 17.430 16.030 17.070 16.190 16.650 16.190 C 16.260 16.190 15.970 16.090 15.770 15.900 C 15.570 15.710 15.350 15.390 15.120 14.950 C 14.820 14.320 14.450 13.830 14.030 13.480 C 13.610 13.130 12.930 12.950 11.990 12.950 C 11.120 12.950 10.420 13.140 9.890 13.520 C 9.360 13.900 9.090 14.360 9.090 14.900 C 9.090 15.230 9.180 15.520 9.360 15.760 C 9.540 16 9.790 16.210 10.110 16.380 C 10.430 16.550 10.750 16.690 11.070 16.790 C 11.400 16.890 11.930 17.030 12.680 17.220 C 13.620 17.440 14.470 17.680 15.220 17.950 C 15.980 18.210 16.630 18.540 17.160 18.910 C 17.690 19.290 18.110 19.770 18.410 20.340 C 18.700 20.950 18.850 21.650 18.850 22.490 Z " stroke-width="1" />
    <path id="ID0.8221295583061874" d="M 33.080 21.470 C 33.080 22.390 32.940 23.240 32.650 24.020 C 32.360 24.800 31.950 25.470 31.400 26.030 C 30.860 26.590 30.210 27.020 29.450 27.320 C 28.690 27.620 27.840 27.770 26.900 27.770 C 25.960 27.770 25.120 27.620 24.370 27.320 C 23.620 27.020 22.970 26.580 22.430 26.020 C 21.890 25.460 21.470 24.790 21.180 24.020 C 20.900 23.250 20.750 22.400 20.750 21.480 C 20.750 20.540 20.890 19.690 21.180 18.910 C 21.470 18.130 21.880 17.470 22.420 16.910 C 22.960 16.360 23.610 15.930 24.370 15.630 C 25.130 15.330 25.980 15.180 26.900 15.180 C 27.840 15.180 28.690 15.330 29.450 15.630 C 30.210 15.930 30.870 16.360 31.410 16.920 C 31.950 17.480 32.370 18.140 32.650 18.920 C 32.930 19.700 33.080 20.540 33.080 21.470 Z M 29.970 21.470 C 29.970 20.210 29.690 19.230 29.140 18.520 C 28.580 17.820 27.840 17.470 26.900 17.470 C 26.300 17.470 25.760 17.630 25.300 17.940 C 24.840 18.250 24.480 18.720 24.230 19.330 C 23.980 19.940 23.860 20.660 23.860 21.470 C 23.860 22.280 23.980 22.990 24.230 23.590 C 24.480 24.190 24.830 24.660 25.280 24.980 C 25.730 25.300 26.280 25.460 26.900 25.460 C 27.840 25.460 28.580 25.110 29.140 24.400 C 29.690 23.700 29.970 22.720 29.970 21.470 Z " stroke-width="1" />
    <path id="ID0.9312042687088251" d="M 43.550 26.020 L 43.550 25.620 C 43.180 26.090 42.790 26.480 42.380 26.800 C 41.970 27.120 41.530 27.350 41.040 27.510 C 40.560 27.670 40 27.740 39.390 27.740 C 38.640 27.740 37.970 27.580 37.380 27.280 C 36.790 26.980 36.330 26.540 36 26 C 35.610 25.340 35.420 24.400 35.420 23.170 L 35.420 17.040 C 35.420 16.420 35.560 15.960 35.840 15.650 C 36.120 15.340 36.490 15.190 36.950 15.190 C 37.420 15.190 37.800 15.340 38.080 15.650 C 38.370 15.960 38.510 16.420 38.510 17.030 L 38.510 21.980 C 38.510 22.700 38.570 23.300 38.690 23.790 C 38.810 24.280 39.030 24.660 39.340 24.930 C 39.650 25.210 40.080 25.340 40.620 25.340 C 41.140 25.340 41.630 25.180 42.090 24.880 C 42.550 24.580 42.890 24.170 43.100 23.670 C 43.270 23.230 43.360 22.270 43.360 20.790 L 43.360 17.030 C 43.360 16.420 43.500 15.960 43.790 15.650 C 44.080 15.340 44.450 15.190 44.910 15.190 C 45.370 15.190 45.740 15.340 46.020 15.650 C 46.300 15.960 46.440 16.420 46.440 17.040 L 46.440 26 C 46.440 26.590 46.310 27.030 46.040 27.330 C 45.770 27.620 45.430 27.770 45 27.770 C 44.570 27.770 44.230 27.620 43.950 27.310 C 43.690 27 43.550 26.570 43.550 26.020 Z " stroke-width="1" />
    <path id="ID0.9777785851620138" d="M 52.350 16.890 L 52.350 17.260 C 52.890 16.540 53.490 16.010 54.140 15.680 C 54.790 15.340 55.530 15.180 56.370 15.180 C 57.190 15.180 57.910 15.360 58.560 15.710 C 59.210 16.060 59.680 16.570 60 17.220 C 60.200 17.600 60.340 18.010 60.400 18.440 C 60.460 18.880 60.490 19.440 60.490 20.120 L 60.490 25.880 C 60.490 26.500 60.350 26.970 60.070 27.290 C 59.790 27.610 59.420 27.770 58.960 27.770 C 58.500 27.770 58.130 27.610 57.840 27.280 C 57.550 26.950 57.410 26.490 57.410 25.890 L 57.410 20.730 C 57.410 19.710 57.270 18.930 56.990 18.390 C 56.710 17.850 56.140 17.580 55.300 17.580 C 54.750 17.580 54.250 17.740 53.790 18.070 C 53.340 18.400 53 18.850 52.790 19.420 C 52.640 19.880 52.560 20.740 52.560 22 L 52.560 25.880 C 52.560 26.510 52.410 26.980 52.120 27.290 C 51.830 27.600 51.450 27.760 50.990 27.760 C 50.540 27.760 50.180 27.600 49.890 27.270 C 49.600 26.940 49.460 26.480 49.460 25.880 L 49.460 16.940 C 49.460 16.350 49.590 15.910 49.840 15.620 C 50.100 15.330 50.450 15.180 50.890 15.180 C 51.160 15.180 51.410 15.240 51.630 15.370 C 51.850 15.500 52.020 15.690 52.160 15.950 C 52.280 16.210 52.350 16.520 52.350 16.890 Z " stroke-width="1" />
    <path id="ID0.9043929586187005" d="M 72.030 26 L 72.030 25.690 C 71.610 26.170 71.200 26.550 70.800 26.850 C 70.400 27.150 69.960 27.380 69.490 27.530 C 69.020 27.690 68.500 27.760 67.940 27.760 C 67.200 27.760 66.510 27.600 65.880 27.290 C 65.250 26.980 64.700 26.530 64.240 25.950 C 63.780 25.370 63.430 24.680 63.190 23.900 C 62.950 23.110 62.830 22.260 62.830 21.350 C 62.830 19.420 63.300 17.910 64.250 16.830 C 65.190 15.750 66.440 15.210 67.980 15.210 C 68.870 15.210 69.620 15.360 70.240 15.670 C 70.850 15.980 71.450 16.450 72.030 17.080 L 72.030 12.510 C 72.030 11.880 72.160 11.400 72.410 11.070 C 72.660 10.750 73.020 10.580 73.490 10.580 C 73.960 10.580 74.320 10.730 74.570 11.030 C 74.820 11.330 74.950 11.770 74.950 12.350 L 74.950 26 C 74.950 26.590 74.810 27.030 74.540 27.330 C 74.270 27.620 73.920 27.770 73.490 27.770 C 73.070 27.770 72.720 27.620 72.440 27.310 C 72.170 27 72.030 26.560 72.030 26 Z M 65.950 21.450 C 65.950 22.290 66.080 23 66.340 23.590 C 66.600 24.180 66.960 24.620 67.410 24.920 C 67.860 25.220 68.360 25.370 68.890 25.370 C 69.430 25.370 69.930 25.230 70.380 24.950 C 70.830 24.670 71.190 24.230 71.460 23.650 C 71.730 23.060 71.860 22.330 71.860 21.460 C 71.860 20.640 71.730 19.930 71.460 19.330 C 71.190 18.740 70.830 18.280 70.370 17.970 C 69.910 17.660 69.410 17.500 68.870 17.500 C 68.300 17.500 67.800 17.660 67.350 17.980 C 66.900 18.300 66.560 18.760 66.310 19.360 C 66.070 19.960 65.950 20.660 65.950 21.450 Z " stroke-width="1" />
    <path id="check_1_" d="M 88.540 22.480 C 88.540 22.480 95.150 29.920 96.470 32.960 L 102.150 32.960 C 104.530 25.690 113.780 8.350 121.700 2.270 C 123.340 0.160 119.220 -0.710 115.890 0.690 C 110.870 2.800 101.410 18.880 99.640 22.750 C 97.130 23.410 94.490 18.520 94.490 18.520 L 88.540 22.480 Z " stroke-width="1" />
  </g>
</svg>