<svg version="1.1" xmlns="http://www.w3.org/2000/svg" xmlns:xlink="http://www.w3.org/1999/xlink" width="142.55362" height="149.20231" viewBox="0,0,142.55362,149.20231"><defs><linearGradient x1="192.11856" y1="126.44917" x2="192.11856" y2="197.05277" gradientUnits="userSpaceOnUse" id="color-1"><stop offset="0" stop-color="#9a3c7f"/><stop offset="1" stop-color="#e759be"/></linearGradient><linearGradient x1="226.11451" y1="110.2531" x2="226.11451" y2="133.31496" gradientUnits="userSpaceOnUse" id="color-2"><stop offset="0" stop-color="#afe2e4"/><stop offset="1" stop-color="#778693"/></linearGradient></defs><g transform="translate(-168.66159,-105.39885)"><g data-paper-data="{&quot;isPaintingLayer&quot;:true}" fill-rule="nonzero" stroke-linejoin="miter" stroke-miterlimit="10" stroke-dasharray="" stroke-dashoffset="0" style="mix-blend-mode: normal"><path d="M201.81893,195.2817c-3.77669,0 -21.64561,4.56607 -23.6767,-0.96483c-4.19547,-11.4248 -12.50309,-46.49324 -4.87626,-62.15853c4.65766,-9.56669 23.7888,-4.2193 28.55296,-4.2193c16.3421,0 16.3421,67.34266 0,67.34266z" fill="url(#color-1)" stroke="#000000" stroke-width="3" stroke-linecap="butt"/><path d="M251.81575,154.12785c0,13.05028 11.43875,20.48815 10.84415,31.02495c-0.76618,13.57748 -15.67275,28.70654 -39.41377,29.85555c-14.25915,0.69011 -15.64526,-16.04889 -15.64526,-45.91545c0,-29.86656 -25.31829,-50.39486 -12.92435,-57.47935c28.56066,-16.32549 57.13922,12.64774 57.13922,42.5143z" fill="#e759be" stroke="#000000" stroke-width="3" stroke-linecap="butt"/><path d="M232.08911,174.19461c0,-7.5136 14.66299,-20.44251 23.46789,-21.08709c21.30716,-1.55988 29.10811,3.39965 54.15821,31.45503c1.95488,2.18938 -19.84519,5.94531 -30.7175,7.84198c-1.94209,0.33882 -6.29337,-7.8357 -11.62253,-13.96513c-4.2935,-4.93824 -9.93781,-8.07168 -9.96876,-8.02262z" fill="#e759be" stroke="#000000" stroke-width="3" stroke-linecap="butt"/><path d="M251.13552,206.16537c0,14.65153 -22.81218,46.93579 -33.33122,46.93579c-3.27604,0 -9.52369,-13.95477 -8.23526,-24.41339c0.70839,-5.75016 8.91549,-7.8015 8.91549,-12.99921c0,-14.65153 8.52738,-25.8487 19.04641,-25.8487c10.51903,0 13.60458,1.67395 13.60458,16.32549z" fill="#e759be" stroke="#000000" stroke-width="3" stroke-linecap="butt"/><path d="M255.2169,194.60147c0,7.13791 -8.67965,12.92435 -19.38652,12.92435c-6.80645,0 -8.48156,8.00801 -16.25252,4.32749c-11.77269,-5.57587 -3.13401,-14.65153 -3.13401,-17.25184c0,-2.22278 9.83428,-30.61342 12.06026,-24.14355c2.32293,6.75165 7.523,-1.25949 12.91507,-5.10324c2.79716,-1.99397 6.03262,-6.39684 9.32426,-8.20095c3.23718,-1.77426 6.55096,-0.96805 6.9232,-0.78161c1.09531,0.54854 5.46243,4.9611 6.19688,7.28753c0.68712,2.17648 -8.35166,10.35039 -8.1536,13.22186c0.50027,7.25311 -0.49303,15.39565 -0.49303,17.71996z" fill="#e759be" stroke="none" stroke-width="0" stroke-linecap="butt"/><path d="M239.57163,125.89836c0,0 -16.20525,10.28261 -19.02699,6.63297c-1.6329,-2.112 -9.23253,-9.15484 -7.67921,-13.95266c1.8343,-5.66571 14.46208,-8.32557 14.46208,-8.32557c0,0 6.51254,4.16461 8.49129,6.69301c2.0959,2.67806 3.75283,8.95225 3.75283,8.95225z" fill="url(#color-2)" stroke="#000000" stroke-width="3" stroke-linecap="butt"/><path d="M251.13553,205.48513c0,0 -7.45785,5.97365 -12.58821,7.36312c-5.69435,1.54222 -20.06278,1.47985 -20.06278,1.47985" fill="none" stroke="#000000" stroke-width="3" stroke-linecap="round"/></g></g></svg>