<svg version="1.1" xmlns="http://www.w3.org/2000/svg" xmlns:xlink="http://www.w3.org/1999/xlink" width="502.88015" height="379.60942" viewBox="0,0,502.88015,379.60942"><defs><radialGradient cx="35.94498" cy="79.99882" r="68.21742" gradientUnits="userSpaceOnUse" id="color-1"><stop offset="0" stop-color="#c08bf5"/><stop offset="1" stop-color="#6e28b4"/></radialGradient><radialGradient cx="114.6187" cy="-0.0625" r="76.7554" gradientUnits="userSpaceOnUse" id="color-2"><stop offset="0" stop-color="#fcfcf1"/><stop offset="0.2699" stop-color="#fde754"/><stop offset="0.7423" stop-color="#eeba31"/><stop offset="1" stop-color="#e6a124"/></radialGradient><radialGradient cx="466.0048" cy="113.00165" r="63.87775" gradientUnits="userSpaceOnUse" id="color-3"><stop offset="0" stop-color="#ff99e5"/><stop offset="1" stop-color="#ff00bf"/></radialGradient><radialGradient cx="421.998" cy="-48.2949" r="76.7551" gradientUnits="userSpaceOnUse" id="color-4"><stop offset="0" stop-color="#ffffff"/><stop offset="1" stop-color="#d7df23"/></radialGradient><radialGradient cx="416.917" cy="11.9404" r="76.7547" gradientUnits="userSpaceOnUse" id="color-5"><stop offset="0" stop-color="#fcfcf1"/><stop offset="0.2577" stop-color="#f7941e"/><stop offset="0.7423" stop-color="#ef4136"/><stop offset="1" stop-color="#be1e2d"/></radialGradient><linearGradient x1="393.7021" y1="-132.3242" x2="396.8778" y2="-41.3831" gradientUnits="userSpaceOnUse" id="color-6"><stop offset="0" stop-color="#2e368f"/><stop offset="0.0234" stop-color="#333590"/><stop offset="0.3273" stop-color="#583393"/><stop offset="0.6019" stop-color="#6e3894"/><stop offset="0.8354" stop-color="#7c3895"/><stop offset="1" stop-color="#803895"/></linearGradient><radialGradient cx="257.94621" cy="10.00759" r="61.07316" gradientUnits="userSpaceOnUse" id="color-7"><stop offset="0" stop-color="#99ffbb"/><stop offset="1" stop-color="#009933"/></radialGradient><radialGradient cx="316.0127" cy="19.00345" r="60.38579" gradientUnits="userSpaceOnUse" id="color-8"><stop offset="0" stop-color="#00ffff"/><stop offset="1" stop-color="#0033cc"/></radialGradient><radialGradient cx="456.01028" cy="153.49914" r="66.64228" gradientUnits="userSpaceOnUse" id="color-9"><stop offset="0" stop-color="#ffff99"/><stop offset="1" stop-color="#ff9400"/></radialGradient><radialGradient cx="421.02328" cy="73.02396" r="70.19139" gradientUnits="userSpaceOnUse" id="color-10"><stop offset="0" stop-color="#cc99ff"/><stop offset="1" stop-color="#4c0099"/></radialGradient><radialGradient cx="93.97971" cy="30.99123" r="64.66406" gradientUnits="userSpaceOnUse" id="color-11"><stop offset="0" stop-color="#99ffbb"/><stop offset="1" stop-color="#009933"/></radialGradient><radialGradient cx="34.9331" cy="17.00881" r="61.43876" gradientUnits="userSpaceOnUse" id="color-12"><stop offset="0" stop-color="#00ffff"/><stop offset="1" stop-color="#0033cc"/></radialGradient><radialGradient cx="353.8037" cy="17.3213" r="76.7547" gradientUnits="userSpaceOnUse" id="color-13"><stop offset="0" stop-color="#ffffff"/><stop offset="1" stop-color="#ec008c"/></radialGradient><radialGradient cx="84.93129" cy="99.98948" r="57.17496" gradientUnits="userSpaceOnUse" id="color-14"><stop offset="0" stop-color="#ffc341"/><stop offset="1" stop-color="#ff7320"/></radialGradient><radialGradient cx="217.99992" cy="22.01178" r="70.42984" gradientUnits="userSpaceOnUse" id="color-15"><stop offset="0" stop-color="#cc99ff"/><stop offset="1" stop-color="#4c0099"/></radialGradient><radialGradient cx="15.01123" cy="120.02323" r="68.35196" gradientUnits="userSpaceOnUse" id="color-16"><stop offset="0" stop-color="#ff9df8"/><stop offset="1" stop-color="#ff308b"/></radialGradient><radialGradient cx="53.4385" cy="167.8369" r="76.7552" gradientUnits="userSpaceOnUse" id="color-17"><stop offset="0" stop-color="#fcfcf1"/><stop offset="0.2699" stop-color="#fde754"/><stop offset="0.7423" stop-color="#eeba31"/><stop offset="1" stop-color="#e6a124"/></radialGradient><radialGradient cx="144.96289" cy="22.0081" r="64.21398" gradientUnits="userSpaceOnUse" id="color-18"><stop offset="0" stop-color="#ff9df8"/><stop offset="1" stop-color="#ff308b"/></radialGradient></defs><g transform="translate(12.32749,19.60942)"><g data-paper-data="{&quot;isPaintingLayer&quot;:true}" fill-rule="nonzero" stroke-linecap="butt" stroke-linejoin="miter" stroke-miterlimit="10" stroke-dasharray="" stroke-dashoffset="0" style="mix-blend-mode: normal"><g><path d="M0,0h479v286h-479z" fill="#ffffff" stroke="#ffffff" stroke-width="2"/><g stroke="none" stroke-width="1"><g fill="#f7941e"><g><path d="M120.333,91.5c-0.12,-0.006 0.045,-4.998 -0.001,-4.999c7.72,0.382 8.715,8.52 8.698,14.613c-0.016,5.818 -2.289,12.63 -9.364,9.054c-0.602,-0.304 0.538,-4.818 0,-5c2.32,0.785 4.021,-3.704 6.469,-2.963c2.935,0.888 2.927,5.161 2.934,7.721c0.008,2.851 0.008,5.597 -1.427,8.192c-1.502,2.716 -4.922,7.004 -7.309,2.716c-0.271,-0.485 0.236,-4.968 0,-5c10.86,1.484 5.687,26.147 3.333,32.333c0.549,-1.442 -0.559,-3.532 0,-5c2.18,-5.728 6.223,-21.026 -3.333,-22.333c0,-1.667 0,-3.333 0,-5c3.521,6.324 8.453,-4.548 8.712,-7.744c-0.003,1.637 -0.005,3.274 -0.007,4.911c-0.113,-2.301 -1.381,-7.355 -4.705,-5.333c-1.193,0.725 -3.157,3.01 -4.667,2.5c0,-1.667 0,-3.333 0,-5c4.931,2.492 8.814,-0.353 9.254,-5.697c-0.211,2.561 -0.494,-1.022 -0.849,-1.893c-0.469,-1.153 -1.009,-2.34 -1.856,-3.274c-1.621,-1.789 -3.465,-2.684 -5.882,-2.804z"/></g></g><path d="M69.634,88.04c7.111,24.001 -12.525,52.446 -20.798,55.846c-9.022,3.708 -42.132,-11.093 -49.244,-35.095c-7.11,-24.001 2.805,-48.105 22.146,-53.836c19.342,-5.73 40.785,9.084 47.896,33.085z" fill="url(#color-1)"/><path d="M163.742,49.638c-4.552,24.615 -34.956,41.056 -43.872,40.332c-9.722,-0.789 -32.513,-29 -27.962,-53.617c4.552,-24.615 24.324,-41.597 44.16,-37.93c19.835,3.669 32.226,26.599 27.674,51.215z" fill="url(#color-2)"/><path d="M489.757,130.181c-2.305,24.927 -31.097,44.052 -40.04,44.137c-9.755,0.095 -35.006,-25.938 -32.701,-50.865c2.306,-24.926 20.459,-43.628 40.545,-41.771c20.087,1.858 34.501,23.572 32.196,48.499z" fill="url(#color-3)"/><g><path d="M466.985,52.989c-4.552,24.615 -34.956,41.056 -43.872,40.332c-9.723,-0.789 -32.514,-29 -27.963,-53.617c4.553,-24.615 24.324,-41.597 44.16,-37.93c19.836,3.669 32.227,26.6 27.675,51.215z" fill="url(#color-4)"/><g fill="#8dc63f"><g><path d="M423.667,92.833c0.354,0.07 -0.28,4.945 0.001,4.999c-2.539,-0.502 -6.023,-0.955 -6.348,2.426c0.005,-1.553 0.009,-3.105 0.013,-4.658c0.139,6.384 6.786,11.203 7.009,17.321c0.075,2.05 0.456,5 -0.361,6.948c-1.732,4.126 -5.698,6.856 -6.344,11.463c0.002,-1.637 0.005,-3.274 0.007,-4.911c0.037,1.403 0.05,6.89 2.775,6.829c2.465,-0.055 3.592,-2.489 4.582,-4.419c0,1.667 0,3.333 0,5c-4.462,1.802 -6.626,5.164 -7.049,9.895c0.007,-1.254 0.014,-2.508 0.021,-3.762c0.002,0.451 0.004,0.9 0.007,1.35c-0.007,-0.412 -0.014,-0.825 -0.022,-1.238c0.048,0.929 0.174,1.848 0.377,2.755c0.291,1.62 -0.289,3.393 0,5c-1.274,-7.098 -1.008,-15.9 6.666,-19c-0.479,0.194 0.337,4.344 0,5c-1.158,2.258 -5.191,7.319 -6.751,2.206c-0.717,-2.347 -0.639,-4.774 -0.639,-7.205c0,-2.389 0.085,-4.524 1.488,-6.618c2.022,-3.016 4.895,-5.588 5.235,-9.382c0,1.667 0,3.333 0,5c-0.537,-6 -6.285,-10.808 -7.002,-16.984c-0.205,-1.77 -0.183,-3.818 -0.013,-5.589c0.326,-3.381 3.809,-2.928 6.348,-2.426z"/></g></g></g><g fill="#009933"><g><path d="M93.333,96.167c-0.528,-0.175 0.461,-4.849 0,-5c12.191,4.014 0.069,19.107 -0.685,26.238c0.003,-1.637 0.005,-3.274 0.007,-4.911c0.068,2.813 4.361,2.619 4.678,5.34c0.188,1.61 0.215,3.144 0.211,4.765c-0.014,5.156 -1.2,10.263 -1.627,15.402c0.006,-1.423 0.012,-2.846 0.018,-4.268c0.028,2.235 1.304,3.854 2.732,5.434c0.846,0.936 -0.812,4.102 0,5c-5.65,-6.25 -1.758,-17.397 -1.147,-24.733c0,1.667 0,3.333 0,5c-0.257,-2.205 -0.635,-2.977 -2.52,-4.184c-0.707,-0.453 -2.315,-1.147 -2.34,-2.173c-0.043,-1.776 -0.054,-3.555 -0.024,-5.331c0.097,-5.694 5.013,-10.244 5.71,-15.876c-0.007,0.413 -0.014,0.825 -0.021,1.238c0.002,-0.274 0.003,-0.548 0.005,-0.822c0.007,1.254 0.014,2.508 0.021,3.762c-0.394,-2.879 -2.425,-4.027 -5.018,-4.881z"/></g></g><g><g fill="#ff9400"><g><path d="M426.75,73.773c-0.765,-0.461 0.709,-4.572 0.001,-5c5.957,3.595 5.724,18.384 -2,19.666c0.033,-0.005 -0.025,-2.365 -0.025,-2.5c0,-0.889 0,-1.777 0,-2.666c0,-0.144 0.088,-2.484 0.025,-2.5c7.962,2.016 8.351,17.779 -0.666,18.333c0,-1.667 0,-3.333 0,-5c3.441,4.419 1.67,12.141 3.333,17.333c0.487,1.521 -0.48,3.5 0,5c-1.68,-5.242 0.118,-12.9 -3.333,-17.333c-0.281,-0.36 0.089,-5.006 0,-5c3.582,-0.22 5.913,-2.127 6.321,-5.755c-0.007,0.833 -0.016,1.667 -0.024,2.5c0,-0.275 0,-0.551 0,-0.825c0.007,0.833 0.016,1.666 0.024,2.5c-0.37,-3.41 -2.286,-5.9 -5.655,-6.753c0.008,-0.833 0.016,-1.667 0.025,-2.5c0,0.889 0,1.777 0,2.666c-0.008,-0.833 -0.016,-1.667 -0.025,-2.5c3.77,-0.626 5.495,-3.403 5.775,-7.049c-0.004,1.553 -0.009,3.105 -0.013,4.659c-0.045,-2.977 -1.159,-5.705 -3.763,-7.276z"/></g></g><path d="M476.184,42.099c-8.599,23.509 -41.321,34.641 -49.99,32.438c-9.455,-2.401 -27.214,-34.022 -18.616,-57.533c8.6,-23.509 30.93,-36.951 49.874,-30.022c18.945,6.931 27.33,31.607 18.732,55.117z" fill="url(#color-5)"/></g><path d="M-0.71,285.709h480.001v74.291h-480.001z" fill="url(#color-6)"/><g><g fill="#8dc63f"><g><path d="M271,65.5c-0.105,-0.004 0.029,-4.999 0,-5c14.147,0.575 12.531,28.672 -1.37,28.444c-3.26,-0.053 -2.256,-2.575 -2.209,-5.343c0.044,-2.532 3.172,-6.785 5.807,-4.02c6.403,6.721 3.246,17.637 -3.562,22.587c0,-1.667 0,-3.333 0,-5c6.869,-1.012 6.603,5.918 5.793,10.984c-0.668,4.178 -2.255,8.155 -3.77,12.085c-0.76,1.971 -1.55,3.937 -2.218,5.942c-0.314,0.945 -0.642,1.895 -0.863,2.868c-0.435,1.929 0.315,2.098 -0.275,-1.879c0.242,1.635 -0.241,3.375 0,5c-0.844,-5.696 0.995,-10.804 3.012,-16.037c1.521,-3.948 3.321,-8.021 3.993,-12.225c0.303,-1.893 1.015,2.116 -0.214,-0.038c-0.24,-0.422 -0.499,-0.883 -0.926,-1.151c-1.415,-0.89 -2.932,-0.785 -4.532,-0.55c0.356,-0.053 -0.456,-4.668 0,-5c3.432,-2.495 6.018,-5.681 6.75,-9.938c-0.006,0.412 -0.014,0.825 -0.021,1.238c0.003,-0.453 0.006,-0.906 0.009,-1.359c0.007,1.254 0.014,2.508 0.022,3.762c-0.358,-2.018 -2.785,-8.764 -6.105,-6.932c-1.607,0.887 -2.687,2.485 -2.886,4.32c0,-1.667 0,-3.333 0,-5c0.338,2.175 6.711,-0.259 7.81,-1.083c2.37,-1.779 4.088,-4.331 4.73,-7.249c0.167,-0.761 -0.021,-2.646 0.315,-0.637c-0.129,-0.772 -0.255,-1.557 -0.525,-2.296c-0.427,-1.17 -0.937,-2.37 -1.773,-3.318c-1.884,-2.136 -4.168,-3.06 -6.992,-3.175z"/></g></g><path d="M294.432,15.552c6.234,20.417 -11.775,45.257 -19.29,48.363c-8.194,3.386 -38.031,-8.544 -44.266,-28.96c-6.233,-20.416 2.942,-41.311 20.492,-46.669c17.55,-5.358 36.831,6.85 43.064,27.266z" fill="url(#color-7)"/></g><g><path d="M349.135,32.885c-1.672,24.977 -29.97,44.825 -38.909,45.138c-9.749,0.341 -35.651,-25.043 -33.979,-50.021c1.674,-24.977 19.348,-44.133 39.475,-42.785c20.126,1.348 35.086,22.691 33.413,47.668z" fill="url(#color-8)"/><g fill="#27aae1"><g><path d="M309.667,76.5c-0.426,1.538 0.431,3.443 0,4.998c-0.341,1.233 -0.539,2.368 -0.636,3.643c0.006,-1.423 0.012,-2.846 0.018,-4.268c0.042,3.344 1.457,8.557 4.698,10.313c3.107,1.684 4.163,-1.419 4.587,-4.021c0,1.667 0,3.333 0,5c-2.3,-0.241 -5.026,-0.149 -6.741,1.672c-0.739,0.785 -1.38,1.662 -1.711,2.704c-0.509,1.598 0.11,2.939 -0.431,0.009c0.58,3.141 2.719,5.607 4.883,1.949c0,1.667 0,3.333 0,5c-1.935,1.242 -3.597,2.916 -4.368,5.142c-0.269,0.777 -0.502,4.016 -0.795,1.97c0.148,1.04 0.301,2.088 0.627,3.091c1.516,4.654 4.398,8.597 9.202,10.131c0.517,0.165 -0.448,4.857 0,5c-10.697,-3.416 -14.624,-23.947 -4.666,-30.333c-0.691,0.443 0.494,4.165 0,5c-3.477,5.88 -5.023,-2.847 -5.031,-5.633c-0.017,-6.146 1.607,-11.476 9.031,-10.701c0.095,0.01 0.078,4.522 0,5c-1.458,8.961 -8.053,1.754 -8.971,-3.471c-0.675,-3.847 -0.741,-8.42 0.304,-12.195z"/></g></g></g><g><path d="M489.611,177.472c-4.552,24.615 -34.956,41.056 -43.872,40.332c-9.722,-0.789 -32.513,-29 -27.962,-53.617c4.552,-24.615 24.323,-41.597 44.159,-37.93c19.836,3.669 32.227,26.599 27.675,51.215z" fill="url(#color-9)"/><g fill="#fbb040"><g><path d="M444.667,221.333c-0.557,-0.197 0.49,-4.827 -0.002,-5c4.575,1.617 4.655,3.711 4.345,8.095c-0.299,4.25 -6.424,7.212 -8.345,10.905c0,-1.667 0,-3.333 0,-5c5.36,1.656 6.279,5.981 5.245,11.141c-0.646,3.228 -2.446,6.02 -3.572,9.08c-0.292,0.791 -0.603,1.593 -0.78,2.42c-0.546,2.558 -0.915,-2.665 -0.033,-0.272c0.546,1.481 1.337,2.545 2.474,3.632c0.852,0.814 -0.812,4.224 0,5c-3.303,-3.158 -3.005,-7.422 -2.733,-11.668c0.314,-4.891 4.66,-8.912 4.71,-13.758c0.006,1.423 0.012,2.845 0.018,4.268c-0.332,-2.939 -2.752,-4.046 -5.327,-4.842c-0.142,-0.044 -0.203,-4.609 0,-5c1.848,-3.553 8.045,-6.659 8.332,-10.727c0.002,1.637 0.004,3.273 0.007,4.91c-0.489,-1.98 -2.619,-2.577 -4.339,-3.184z"/></g></g></g><g><path d="M474.075,92.752c-4.552,24.615 -34.956,41.056 -43.872,40.332c-9.723,-0.789 -32.514,-29 -27.963,-53.617c4.553,-24.615 24.324,-41.597 44.16,-37.929c19.836,3.668 32.227,26.599 27.675,51.214z" fill="url(#color-10)"/><g fill="#662d91"><g><path d="M430.667,136.833c-0.075,-0.002 -0.001,-5 -0.001,-5.001c2.059,0.046 7.617,-0.154 7.735,3.077c0.062,1.705 0.033,3.422 0.005,5.128c-0.087,5.093 -6.154,8.494 -7.073,13.462c0,-1.667 0,-3.333 0,-5c0.593,1.304 4.637,1.104 4.673,2.089c0.078,2.133 0.019,4.278 0.019,6.411c0,1.785 0.272,3.914 -0.114,5.687c-0.722,3.317 -2.856,6.026 -3.31,9.422c0.005,-1.553 0.009,-3.105 0.013,-4.658c-0.018,1.294 0.222,2.533 0.72,3.717c0.494,1.517 -0.487,3.506 0,5c-0.933,-2.861 -0.796,-5.738 -0.745,-8.717c0.067,-3.939 3.117,-7.009 3.411,-10.95c-0.008,0.833 -0.016,1.667 -0.025,2.5c0,-2 0,-4 0,-6c0.008,0.833 0.016,1.667 0.025,2.5c-1.048,-1.164 -4.643,-0.21 -4.679,-2.342c-0.025,-1.479 -0.257,-3.2 0.013,-4.658c0.927,-5.011 6.209,-8.103 7.061,-13.12c-0.008,0.611 -0.016,1.224 -0.024,1.835c0,-0.187 0.001,-0.372 0.001,-0.559c0.007,1.055 0.016,2.109 0.024,3.164c-0.656,-3.151 -5.294,-2.932 -7.729,-2.987z"/></g></g></g><path d="M129.481,46.974c-0.226,25.031 -27.328,46.483 -36.234,47.312c-9.712,0.905 -37.04,-22.939 -36.815,-47.972c0.226,-25.031 16.762,-45.177 36.933,-44.996c20.173,0.182 36.341,20.624 36.116,45.656z" fill="url(#color-11)"/><g><path d="M60.017,14.707c7.111,24.001 -12.525,52.446 -20.799,55.846c-9.023,3.707 -42.132,-11.094 -49.244,-35.095c-7.11,-24.001 2.805,-48.105 22.146,-53.836c19.341,-5.73 40.785,9.083 47.897,33.085z" fill="url(#color-12)"/><g fill="#009d9f"><g><path d="M36.333,74.167c0.761,-1.126 -0.784,-3.839 0,-5.001c5.655,-8.369 10.197,6.38 10.265,10.72c0.055,3.412 0.515,7.537 -1.002,10.718c-2.202,4.617 -6.807,4.843 -11.262,3.562c-0.059,-0.017 -0.254,-4.802 0,-5c7.99,-6.205 8.557,6.633 8.557,11.821c0,3.131 0.023,6.297 -0.961,9.309c-2.279,6.978 -6.02,12.905 -6.255,20.448c0.036,-1.178 -0.061,-3.314 -0.014,-4.821c0.287,-9.229 6.759,-16.549 7.147,-25.588c-0.136,3.155 -0.371,-2.286 -0.617,-3.174c-0.323,-1.165 -0.675,-2.536 -1.5,-3.468c-2.003,-2.26 -4.289,-1.133 -6.358,0.474c0,-1.667 0,-3.333 0,-5c3.313,0.953 7.701,1.466 10.102,-1.658c0.942,-1.225 1.587,-2.637 1.861,-4.165c0.445,-2.478 0.353,0.795 0.13,-0.771c-0.123,-0.87 -0.26,-1.741 -0.484,-2.593c-1.128,-4.292 -5.302,-12.188 -9.609,-5.813z"/></g></g></g><g><path d="M405.968,20.54c7.111,24.001 -12.525,52.446 -20.799,55.846c-9.022,3.708 -42.132,-11.093 -49.244,-35.095c-7.11,-24.001 2.806,-48.105 22.146,-53.836c19.341,-5.73 40.785,9.084 47.897,33.085z" fill="url(#color-13)"/><g fill="#ec008c"><g><path d="M383.583,79.167c-0.698,-0.351 0.638,-4.68 0,-4.999c3.984,2 4.915,6.818 3.74,11.019c-1.59,5.691 -8.484,10.817 -14.407,10.648c0.157,0.004 -0.337,-4.819 0,-5c10.534,-5.657 12.732,22.632 0.667,19c-0.1,-0.03 -0.162,-4.938 0,-5c4.088,-1.548 4.404,3.735 4.606,6.566c0.334,4.674 -0.278,10.817 2.727,14.767c0.816,1.073 -0.789,3.963 0,5c-2.683,-3.528 -2.355,-8.829 -2.613,-13.042c-0.175,-2.838 -0.029,-10.068 -4.72,-8.292c0,-1.667 0,-3.333 0,-5c1.903,0.572 4.222,0.772 5.686,-0.892c0.696,-0.792 1.262,-1.682 1.543,-2.711c0.747,-2.737 0.616,1.095 0.259,-0.557c-0.922,-4.261 -3.822,-7.166 -8.154,-4.84c0,-1.667 0,-3.333 0,-5c5.995,0.171 13.629,-5.318 14.521,-11.426c-0.008,0.833 -0.016,1.667 -0.025,2.5c0,-0.254 0,-0.509 -0.001,-0.763c0.008,0.833 0.016,1.667 0.025,2.5c-0.381,-2.305 -1.843,-3.469 -3.854,-4.478z"/></g></g></g><g><path d="M114.542,104.098c2.853,24.87 -21.407,49.491 -30.145,51.408c-9.527,2.092 -39.578,-18.212 -42.432,-43.083c-2.853,-24.869 11.082,-46.895 31.122,-49.194c20.042,-2.3 38.602,15.999 41.455,40.869z" fill="url(#color-14)"/><g fill="#ef4136"><g><path d="M83.95,155.5c-0.805,0.959 0.836,4.004 0.001,5c-1.068,1.273 -2.211,2.614 -2.839,4.177c-0.781,1.941 0.028,2.447 -0.699,-0.002c0.415,1.397 1.184,2.793 2.538,3.492c2.649,1.368 5.152,0.374 5.404,-2.731c-0.003,1.637 -0.005,3.273 -0.007,4.911c-0.05,-1.161 0.221,-3.38 -1.33,-1.794c-0.786,0.803 -1.583,1.635 -2.018,2.697c-0.848,2.07 -1.15,1.681 -0.259,3.83c0.418,1.01 0.845,2.074 1.559,2.923c0.037,0.045 2.308,2.28 2.315,1.797c0.016,-1.079 0.15,-2.013 0.669,-2.967c0,1.667 0,3.333 0,5c-7.181,5.395 -4.133,13.16 1.333,19c0.849,0.907 -0.813,4.131 0,5c-6.263,-6.692 -9.969,-22.512 -1.333,-29c-0.73,0.549 0.5,4.081 0,5c-0.545,1.002 -0.637,1.838 -0.654,2.992c0.001,0.114 -0.003,0.229 -0.013,0.342c-5.047,-3.648 -4.929,-9.986 -4.542,-15.601c0.136,-1.978 4.054,-9.4 4.252,-4.821c0.08,1.861 0.101,3.74 0.034,5.602c-0.199,5.445 -7.223,3.626 -7.949,-0.672c-0.892,-5.291 0.048,-10.018 3.538,-14.175z"/></g></g></g><g><path d="M250.075,49.639c-4.552,24.615 -34.956,41.056 -43.872,40.332c-9.723,-0.789 -32.514,-29 -27.963,-53.616c4.552,-24.615 24.324,-41.597 44.159,-37.93c19.837,3.668 32.228,26.598 27.676,51.214z" fill="url(#color-15)"/><g fill="#662d91"><g><path d="M206.333,87.833c-0.547,1.444 0.558,3.532 0.001,5.001c-0.991,2.609 -1.581,4.711 -0.162,7.306c1.337,2.446 1.935,2.662 2.693,-0.131c-0.008,1.055 -0.016,2.11 -0.024,3.165c0,-0.184 -0.001,-0.369 -0.001,-0.553c0.008,0.611 0.016,1.223 0.024,1.835c-0.983,-2.456 -5.673,-0.124 -7.071,0.77c-3.764,2.407 -6.182,6.309 -6.567,10.769c0.003,-1.638 0.005,-3.274 0.007,-4.911c0.109,3.445 2.433,8.767 6.435,9.416c0.731,0.118 1.491,0.022 1.855,-0.738c1.21,-2.522 0.901,3.3 0.255,1.458c-0.502,-1.431 -1.758,-2.669 -3.275,-1.481c-3.283,2.572 -5.25,7.104 -5.347,11.198c-0.005,-1.554 -0.009,-3.106 -0.013,-4.659c0.507,5.433 3.621,9.307 8.524,11.555c0.662,0.304 -0.6,4.725 0,5c-6.69,-3.067 -8.586,-8.505 -8.546,-15.317c0.021,-3.59 0.671,-6.737 2.764,-9.791c0.697,-1.016 3.157,-4.797 4.907,-3.127c1.975,1.885 1.327,6.232 1.167,8.681c-0.064,1.002 -0.922,2.928 -2.292,2.221c-3.52,-1.817 -5.791,-4.346 -6.404,-8.328c-0.676,-4.391 -0.103,-10.027 2.754,-13.483c0.968,-1.171 10.778,-8.623 10.859,-3.892c0.029,1.704 0.057,3.419 -0.005,5.122c-0.05,1.355 -0.865,3.577 -2.032,1.442c-0.939,-1.717 -1.462,-3.313 -1.777,-5.243c-0.687,-4.197 -0.205,-9.399 1.271,-13.285z"/></g></g></g><g><g fill="#ec008c"><g><path d="M29.333,184.935c-0.024,0 -0.051,-5 0,-5c5.615,-0.045 5.788,6.111 5.776,10.284c-0.01,3.607 -0.79,9.471 -5.776,6.716c-0.182,-0.101 -0.202,-4.875 0,-5c5.684,-3.512 8.187,2.603 8.2,7.371c0.014,5.301 -0.778,10.439 -7.533,9.629c-0.023,-0.003 -0.143,-4.97 0,-5c5.95,-1.241 5.127,7.152 5.117,10.915c-0.015,5.307 -2.249,13.097 0.883,17.752c0.783,1.164 -0.76,3.871 0,5c-2.559,-3.803 -1.651,-10.568 -1.444,-14.94c0.095,-2.021 0.24,-4.037 0.355,-6.057c0.056,-0.985 0.118,-1.972 0.143,-2.959c-0.075,2.93 -0.099,-0.271 -0.269,-1.043c-0.59,-2.681 -1.891,-4.272 -4.786,-3.668c0,-1.667 0,-3.333 0,-5c4.185,0.502 7.133,-1.469 7.504,-5.772c-0.007,0.413 -0.014,0.825 -0.021,1.238c-0.023,3.598 -0.413,0.13 -1.004,-0.851c-0.418,-0.691 -0.887,-1.444 -1.578,-1.902c-1.905,-1.262 -3.703,-0.864 -5.567,0.287c0,-1.667 0,-3.333 0,-5c3,1.658 5.342,-0.073 5.663,-3.383c-0.361,3.722 -0.017,1.106 -0.659,-0.232c-0.306,-0.638 -0.62,-1.334 -1.134,-1.841c-1.142,-1.127 -2.267,-1.557 -3.87,-1.544z"/></g></g><path d="M61.77,133c4.147,24.687 -18.795,50.539 -27.419,52.91c-9.406,2.586 -40.476,-16.121 -44.624,-40.809c-4.146,-24.687 8.62,-47.41 28.512,-50.752c19.895,-3.341 39.384,13.964 43.531,38.651z" fill="url(#color-16)"/></g><g><path d="M65.342,186.441c7.486,23.887 -11.703,52.636 -19.923,56.165c-8.963,3.849 -42.3,-10.433 -49.787,-34.32c-7.485,-23.887 2.051,-48.144 21.3,-54.176c19.249,-6.032 40.923,8.444 48.41,32.331z" fill="url(#color-17)"/><g fill="#f7941e"><g><path d="M43.333,245.833c-0.261,-0.036 0.188,-4.975 0,-5.001c6.929,0.949 6.344,11.904 5.5,17.084c-0.705,4.328 -2.661,10.053 -7.125,11.89c-2.34,0.963 -2.583,0.497 -2.622,-1.799c-0.022,-1.309 -0.018,-2.618 -0.005,-3.926c0.074,-7.387 7.316,2.845 7.803,5.745c1.118,6.668 0.074,12.292 -7.551,13.34c0,-1.667 0,-3.333 0,-5c4.401,4.306 3.352,12.803 3.358,18.5c0.003,2.828 -0.047,2.828 -0.05,0c-0.005,-4.337 0.056,-10.209 -3.309,-13.5c-0.289,-0.283 0.045,-5.006 0,-5c2.48,-0.341 5.723,-1.04 6.975,-3.535c0.271,-0.541 0.539,-1.091 0.631,-1.697c0.178,2.731 0.16,3.362 -0.055,1.893c-0.25,-1.074 -0.576,-2.132 -1.085,-3.116c-0.426,-0.823 -4.883,-7.726 -6.325,-5.022c-0.694,1.301 0.293,1.433 -0.274,-1.998c-0.134,0.864 0.186,1.084 0.959,0.661c1.321,-0.388 2.595,-0.948 3.613,-1.908c1.976,-1.861 3.422,-4.223 4.208,-6.829c0.534,-1.773 0.973,-3.606 1.027,-5.468c-0.09,3.122 -0.579,-0.857 -1.007,-1.713c-1.009,-2.019 -2.385,-3.289 -4.666,-3.601z"/></g></g></g><g><g fill="#ec008c"><g><path d="M169.61408,51.167c-0.49871,-1.339 0.48699,-3.692 -0.00147,-4.999c1.6023,4.303 2.00068,8.094 1.98091,12.781c-0.02417,5.55 -2.15008,9.096 -5.39862,12.219c0,-1.667 0,-3.333 0,-5c3.72455,3.064 4.17859,6.701 4.1676,12.082c-0.00952,4.849 -1.4185,10.292 -4.09656,13.638c-2.34047,2.925 -8.48385,6.039 -9.58672,-0.55c-0.16037,-0.958 -0.4511,-5.687 0.37202,-6.256c6.67211,-4.61 6.14192,11.024 6.14192,16.035c0,4.032 0.82898,7.962 2.12151,11.594c1.50784,4.239 3.23609,5.528 4.29868,0.125c0,1.667 0,3.333 0,5c-0.75575,0.703 -1.56934,1.505 -1.97065,2.68c-0.20578,0.511 -0.35883,1.051 -0.45843,1.618c-0.10765,-1.677 -0.07543,-1.802 0.09667,-0.378c0.49651,2.515 1.26104,4.891 2.22697,7.138c1.79417,4.173 3.97207,7.953 5.9647,11.942c0.57707,1.154 -0.55949,3.881 0,5c-2.99662,-6.001 -7.65781,-12.543 -8.33447,-20.056c-0.41742,-4.635 -0.64223,-10.044 2.47596,-12.944c-0.4079,0.379 0.16111,4.182 0,5c-1.19074,6.056 -3.24342,3.439 -4.57257,-0.964c-1.01645,-3.368 -1.82785,-6.727 -1.87545,-10.379c-0.05712,-4.404 0.38739,-9.345 -0.81433,-13.528c-0.44524,-1.55 -1.20758,-3.505 -2.6085,-3.638c-1.0311,-0.098 -3.00395,0.037 -3.05741,1.922c-0.0022,-1.637 -0.00366,-3.274 -0.00512,-4.911c0.65249,3.899 4.6414,4.941 6.92988,3.212c3.75457,-2.836 6.30742,-8.664 6.73582,-14.465c-0.00512,1.254 -0.01099,2.508 -0.01612,3.762c-0.00146,-0.377 -0.00366,-0.753 -0.00512,-1.129c0.00439,0.412 0.01026,0.825 0.01538,1.238c-0.34565,-3.708 -1.85496,-5.905 -4.14417,-7.788c-0.14354,-0.118 -0.15891,-4.847 0,-5c1.98457,-1.909 4.25109,-4.328 4.9607,-7.682c0.26729,-1.261 0.33759,-1.23 -0.20285,-3.198c-0.39105,-1.426 -0.83484,-2.764 -1.34013,-4.121z"/></g></g><path d="M192.835,14.707c7.111,24.001 -12.525,52.446 -20.799,55.846c-9.022,3.708 -42.132,-11.093 -49.244,-35.095c-7.11,-24.001 2.805,-48.105 22.146,-53.836c19.342,-5.73 40.786,9.083 47.897,33.085z" fill="url(#color-18)"/></g></g></g></g></g></svg>