<svg xmlns="http://www.w3.org/2000/svg" xmlns:xlink="http://www.w3.org/1999/xlink" version="1.1" width="71.5" height="102.83000183105469" viewBox="-0.75 -0.75 71.5 102.83000183105469">
  <!-- Exported by Scratch - http://scratch.mit.edu/ -->
  <g id="ID0.757095848210156">
    <path id="ID0.4177084397524595_21_" fill="none" d="M 0 0 L 70 0 L 70 101.330 L 0 101.330 L 0 0 Z " stroke-width="1"/>
    <path id="ID0.41613231552764773" fill="#FCEE21" stroke="#807B3A" d="M 14 21.330 L 20.160 21.330 L 20.160 79.660 L 14 79.660 L 14 21.330 Z " stroke-width="1"/>
    <path id="ID0.0964761795476079" fill="#FCEE21" stroke="#807B3A" d="M 26.170 87.330 L 17.100 88.330 L 8.030 87.330 L 9.320 79.670 L 24.880 79.670 L 26.170 87.330 " stroke-width="1"/>
    <path id="ID0.32075364887714386" fill="none" stroke="#FFFFFF" stroke-width="1.5" d="M 16 23 L 16 74.670 "/>
    <path id="ID0.38946767756715417" fill="none" stroke="#FFFFFF" stroke-width="1.5" d="M 12.110 81 L 19.900 81 "/>
    <path id="ID0.6561413849703968" fill="#FCEE21" stroke="#807B3A" d="M 17.030 12.180 C 18.451 12.180 19.738 12.757 20.671 13.689 C 21.603 14.622 22.180 15.909 22.180 17.330 C 22.180 18.751 21.603 20.038 20.671 20.971 C 19.738 21.903 18.451 22.480 17.030 22.480 C 15.609 22.480 14.322 21.903 13.389 20.971 C 12.457 20.038 11.880 18.751 11.880 17.330 C 11.880 15.909 12.457 14.622 13.389 13.689 C 14.322 12.757 15.609 12.180 17.030 12.180 Z " stroke-width="1"/>
    <path id="ID0.9088856689631939" fill="#FFFFFF" d="M 15.440 14.190 C 15.870 14.190 16.260 14.365 16.543 14.647 C 16.825 14.930 17 15.320 17 15.750 C 17 16.180 16.825 16.570 16.543 16.853 C 16.260 17.135 15.870 17.310 15.440 17.310 C 15.010 17.310 14.620 17.135 14.337 16.853 C 14.055 16.570 13.880 16.180 13.880 15.750 C 13.880 15.320 14.055 14.930 14.337 14.647 C 14.620 14.365 15.010 14.190 15.440 14.190 Z " stroke-width="1"/>
    <path id="ID0.7297253352589905" fill="#FFC369" stroke="#875608" d="M 50.500 27.420 C 52.170 30.310 53.830 33.420 55.500 36.840 C 53.830 38.750 52.170 40.970 50.500 43.420 C 52.170 46.280 53.830 49.360 55.500 52.760 C 43.720 47.910 31.940 58.630 20.160 53.400 C 20.160 42.790 20.160 32.180 20.160 21.570 C 31.940 26.790 43.720 16.080 55.500 20.930 C 53.840 22.800 52.170 25 50.500 27.420 Z " stroke-width="1"/>
    <path id="ID0.0011204760521650314" fill="#FAA51D" stroke="#231F20" stroke-width="0.6" d="M 36.380 30.250 C 35.890 30.320 34.860 30.500 34.290 30.640 C 32.780 31.040 31.340 31.820 31.340 31.820 C 29.950 31.070 28.560 30.240 27.170 29.280 C 27.410 31.390 27.650 33.500 27.890 35.600 C 28.100 35.390 24.510 39.780 26.780 43.700 C 29.050 47.740 33.900 48.670 39.910 45.840 C 45.920 43.210 47.350 39.830 46.950 37.870 C 46.550 35.960 44.280 35.540 44.280 35.570 C 44.280 35.570 44.250 34.070 43.210 32.420 C 42.590 31.430 40.540 30.280 40.540 30.290 C 40.230 29.070 39.930 27.850 39.620 26.640 C 38.820 27.630 38.030 28.630 37.230 29.620 C 36.940 29.830 36.660 30.040 36.380 30.250 L 36.380 30.250 Z "/>
    <path id="ID0.2336741485632956" fill="#FFFFFF" d="M 43.970 35.570 C 43.700 35.380 43.440 35.200 43.180 35.020 C 42.210 35.500 41.230 36 40.260 36.530 C 40.260 36.530 40.260 37.670 38.860 38.320 C 37.460 38.980 35.270 38.420 35.270 38.410 C 34.440 38.980 33.610 39.530 32.780 40.070 C 32.780 40.100 30.080 40.810 29.980 42.510 C 29.760 46.440 34.260 47.340 35.970 46.960 C 36.900 46.800 38.610 46.210 39.900 45.640 C 45.590 43.240 47.120 39.830 46.730 37.890 C 46.330 35.980 44.170 35.780 44.170 35.800 C 44.100 35.710 44.040 35.640 43.970 35.570 L 43.970 35.570 Z " stroke-width="1"/>
    <path id="ID0.8744979542680085" fill="none" stroke="#231F20" stroke-width="0.6" d="M 22.910 41.730 C 22.910 41.740 24.230 42.160 24.820 42.180 C 25.420 42.240 26.580 42.140 26.580 42.130 "/>
    <path id="ID0.5877763447351754" fill="none" stroke="#231F20" stroke-width="0.6" d="M 45.650 37.200 C 45.650 37.190 47.110 36.790 47.850 36.510 C 48.720 36.170 49.300 35.660 49.300 35.650 "/>
    <path id="ID0.39057218423113227" fill="none" stroke="#231F20" stroke-width="0.6" d="M 26.650 40.830 C 26.650 40.820 25.890 40.230 24.690 39.510 C 23.370 38.700 22.640 38.320 22.640 38.320 "/>
    <path id="ID0.37897531501948833" fill="none" stroke="#231F20" stroke-width="0.6" d="M 45.790 39.170 C 45.790 39.170 46.660 39.440 47.560 39.490 C 48.450 39.540 49.050 39.510 49.050 39.500 "/>
    <path id="ID0.7999649196863174" fill="none" stroke="#000000" stroke-width="0.5" stroke-linecap="round" d="M 36.260 30.300 C 37.170 30.320 37.500 30.500 37.500 30.500 "/>
    <path id="ID0.7233004914596677" fill="none" stroke="#000000" stroke-width="0.5" d="M 30.350 31.220 C 31 31.630 31.640 32.020 32.290 32.400 "/>
    <path id="ID0.11365367658436298" fill="#FFFFFF" stroke="#231F20" stroke-width="0.5" d="M 42.500 32.590 C 43.440 33.910 43.470 35.610 42.580 36.390 C 41.680 37.170 40.200 36.790 39.260 35.510 C 38.320 34.240 38.290 32.540 39.180 31.710 C 40.080 30.890 41.570 31.270 42.500 32.590 L 42.500 32.590 Z "/>
    <path id="ID0.46341503597795963" fill="#231F20" d="M 42.260 35.030 C 42.260 35.390 42 35.740 41.680 35.810 C 41.360 35.880 41.100 35.640 41.100 35.280 C 41.100 34.920 41.360 34.570 41.680 34.500 C 42.010 34.430 42.260 34.670 42.260 35.030 " stroke-width="1"/>
    <path id="ID0.7274790620431304" fill="#FFFFFF" stroke="#231F20" stroke-width="0.5" d="M 34.820 35.440 C 35.760 36.730 35.660 38.550 34.600 39.510 C 33.540 40.470 31.930 40.130 30.990 38.750 C 30.050 37.370 30.150 35.560 31.210 34.700 C 32.270 33.840 33.890 34.160 34.820 35.440 L 34.820 35.440 Z "/>
    <path id="ID0.17879922036081553" fill="#231F20" d="M 34.250 37.540 C 34.250 37.900 33.990 38.250 33.670 38.310 C 33.350 38.370 33.090 38.130 33.090 37.770 C 33.090 37.410 33.350 37.070 33.670 37 C 33.990 36.940 34.250 37.170 34.250 37.540 " stroke-width="1"/>
    <path id="ID0.29310840368270874" fill="#5E4A42" stroke="#000000" stroke-width="0.5" d="M 38.640 37.660 C 39.230 37.520 40.100 37.220 40.140 37.490 C 40.190 37.770 39.590 39.020 39.180 39.170 C 38.770 39.310 37.220 38.850 37.200 38.340 C 37.170 37.820 38.090 37.790 38.640 37.660 L 38.640 37.660 Z "/>
    <path id="ID0.5948419882915914" fill="none" stroke="#231F20" stroke-width="0.6" d="M 34.470 41.080 C 34.470 41.100 37.780 41.340 39.020 41.320 C 40.260 41.290 42.500 41.100 42.500 41.110 C 42.500 41.090 39.940 45.070 36.950 44.940 C 33.960 44.770 34.020 42.750 34.470 41.080 L 34.470 41.080 Z "/>
  </g>
</svg>