<svg version="1.1" width="352" height="283" viewBox="-1 -1 352 283" xmlns="http://www.w3.org/2000/svg" xmlns:xlink="http://www.w3.org/1999/xlink">
  <!-- Exported by Scratch - http://scratch.mit.edu/ -->
  <g id="ID0.21641384903341532" transform="matrix(1, 0, 0, 1, 54, -42)">
    <path id="ID0.9832451394759119" fill="#FF9400" stroke="none" stroke-linecap="round" d="M 207 18 C 228.463 16.991 228.196 114.999 268 129 C 306.439 141.538 361.474 62.384 378 76 C 393.677 88.923 352.478 149.947 333 184 C 327.698 192.623 310.758 190.409 306 200 C 296.308 219.538 306.917 253.598 292 264 C 281.724 271.167 268.963 228.869 257 236 C 237.963 246.369 247.738 290.196 230 299 C 217.452 305.221 211.181 266.407 195 265 C 179.652 263.669 171.134 299.789 159 294 C 143.672 286.682 157.919 248.182 141 240 C 108.006 223.226 33.753 237.658 31 230 C 28.247 222.342 116.800 226.463 124 194 C 134.692 151.026 54.125 87.924 68 74 C 81.875 60.076 148.389 149.243 185 135 C 217.889 121.243 186.934 18.961 207 18 Z " transform="matrix(1, 0, 0, 1, -84, 24)"/>
    <path id="ID0.5787796983495355" fill="#FF0000" stroke="none" d="M 412 276 C 423.587 276 434.087 280.706 441.691 288.309 C 449.294 295.913 454 306.413 454 318 C 454 329.587 449.294 340.087 441.691 347.691 C 434.087 355.294 423.587 360 412 360 C 400.413 360 389.913 355.294 382.309 347.691 C 374.706 340.087 370 329.587 370 318 C 370 306.413 374.706 295.913 382.309 288.309 C 389.913 280.706 400.413 276 412 276 Z " transform="matrix(0.4632912278175354, 0, 0, 0.4632912278175354, -60, 128.15)"/>
    <path id="ID0.30719301477074623" fill="#FF0000" stroke="none" d="M 389 131 L 618 131 L 618 360 L 389 360 L 389 131 Z " transform="matrix(0.16588346660137177, 0, 0, 0.5133420825004578, 54.45, 58.6)"/>
  </g>
</svg>