<svg xmlns="http://www.w3.org/2000/svg" xmlns:xlink="http://www.w3.org/1999/xlink" version="1.1" width="134.08999633789062" height="134.6300048828125" viewBox="-0.5 -0.5 134.08999633789062 134.6300048828125">
  <!-- Exported by Scratch - http://scratch.mit.edu/ -->
  <g id="ID0.1109348963946104">
    <path id="ID0.14449769724160433_103_" fill="#ADADAD" stroke="#000000" stroke-width="2" d="M 65.55 45.88 L 65.74 57.47 C 65.74 61.88 62.26 65.56 57.93 65.56 L 49.64 66.03 L 24.34 66.03 C 20.02 66.03 17.55 62.21 17.55 57.81 L 17.26 48.99 L 17.55 25.9 C 17.84 21.58 21.28 17.71 25.62 17.71 L 42.53 18.12 L 57.72 17.58 C 62.04 17.58 65.75 21.37 65.75 25.78 L 65.55 45.88 Z "/>
    <path id="ID0.14449769724160433_102_" fill="#DEDEDE" d="M 61.73 44.46 L 61.9 54.64 C 61.9 58.51 58.84 61.75 55.03 61.75 L 47.74 62.17 L 25.48 62.17 C 21.69 62.17 19.51 58.82 19.51 54.94 L 19.25 47.19 L 19.51 26.9 C 19.76 23.1 22.79 19.7 26.61 19.7 L 41.48 20.06 L 54.84 19.58 C 58.63 19.58 61.9 22.91 61.9 26.79 L 61.73 44.46 Z " stroke-width="1"/>
    <path id="ID0.14449769724160433_101_" fill="#F0F0F0" d="M 55.16 41.12 L 33.88 53.03 L 30.03 53.03 C 26.67 53.03 23.92 50.83 23.92 48.1 L 23.69 42.82 L 23.92 28.56 C 23.92 25.84 26.65 23.63 30.03 23.63 L 44.29 24.1 L 49.05 23.63 C 52.41 23.63 55.16 25.83 55.16 28.56 L 55.16 41.12 Z " stroke-width="1"/>
    <path id="ID0.6130843018181622" fill="#DEDEDE" d="M 29.06 26.63 C 29.99 26.63 30.832 27.008 31.442 27.618 C 32.052 28.228 32.43 29.07 32.43 30 C 32.43 30.93 32.052 31.772 31.442 32.382 C 30.832 32.992 29.99 33.37 29.06 33.37 C 28.13 33.37 27.288 32.992 26.678 32.382 C 26.068 31.772 25.69 30.93 25.69 30 C 25.69 29.07 26.068 28.228 26.678 27.618 C 27.288 27.008 28.13 26.63 29.06 26.63 Z " stroke-width="1"/>
    <path id="ID0.31011600606143475" fill="#DEDEDE" d="M 51.79 26.63 C 52.72 26.63 53.562 27.008 54.172 27.618 C 54.782 28.228 55.16 29.07 55.16 30 C 55.16 30.93 54.782 31.772 54.172 32.382 C 53.562 32.992 52.72 33.37 51.79 33.37 C 50.86 33.37 50.018 32.992 49.408 32.382 C 48.798 31.772 48.42 30.93 48.42 30 C 48.42 29.07 48.798 28.228 49.408 27.618 C 50.018 27.008 50.86 26.63 51.79 26.63 Z " stroke-width="1"/>
    <path id="ID0.5515265446156263" fill="#D4D4D4" d="M 29.06 49.7 C 29.99 49.7 30.832 50.078 31.442 50.688 C 32.052 51.298 32.43 52.14 32.43 53.07 C 32.43 54 32.052 54.842 31.442 55.452 C 30.832 56.062 29.99 56.44 29.06 56.44 C 28.13 56.44 27.288 56.062 26.678 55.452 C 26.068 54.842 25.69 54 25.69 53.07 C 25.69 52.14 26.068 51.298 26.678 50.688 C 27.288 50.078 28.13 49.7 29.06 49.7 Z " stroke-width="1"/>
    <path id="ID0.9028083952143788" fill="#D4D4D4" d="M 51.79 49.7 C 52.72 49.7 53.562 50.078 54.172 50.688 C 54.782 51.298 55.16 52.14 55.16 53.07 C 55.16 54 54.782 54.842 54.172 55.452 C 53.562 56.062 52.72 56.44 51.79 56.44 C 50.86 56.44 50.018 56.062 49.408 55.452 C 48.798 54.842 48.42 54 48.42 53.07 C 48.42 52.14 48.798 51.298 49.408 50.688 C 50.018 50.078 50.86 49.7 51.79 49.7 Z " stroke-width="1"/>
    <path id="ID0.14449769724160433_100_" fill="#ADADAD" stroke="#000000" stroke-width="2" d="M 113.56 45.88 L 113.75 57.47 C 113.75 61.88 110.27 65.56 105.94 65.56 L 97.65 66.03 L 72.34 66.03 C 68.02 66.03 65.55 62.21 65.55 57.81 L 65.26 48.99 L 65.55 25.9 C 65.84 21.58 69.28 17.71 73.62 17.71 L 90.53 18.12 L 105.72 17.58 C 110.04 17.58 113.75 21.37 113.75 25.78 L 113.56 45.88 Z "/>
    <path id="ID0.14449769724160433_99_" fill="#DEDEDE" d="M 109.73 44.46 L 109.9 54.64 C 109.9 58.51 106.84 61.75 103.03 61.75 L 95.74 62.17 L 73.48 62.17 C 69.69 62.17 67.51 58.82 67.51 54.94 L 67.25 47.19 L 67.51 26.9 C 67.76 23.1 70.79 19.7 74.61 19.7 L 89.48 20.06 L 102.84 19.58 C 106.63 19.58 109.9 22.91 109.9 26.79 L 109.73 44.46 Z " stroke-width="1"/>
    <path id="ID0.14449769724160433_98_" fill="#F0F0F0" d="M 103.16 41.12 L 81.88 53.03 L 78.03 53.03 C 74.67 53.03 71.92 50.83 71.92 48.1 L 71.69 42.82 L 71.92 28.56 C 71.92 25.84 74.65 23.63 78.03 23.63 L 92.29 24.1 L 97.05 23.63 C 100.41 23.63 103.16 25.83 103.16 28.56 L 103.16 41.12 Z " stroke-width="1"/>
    <path id="ID0.33521842025220394" fill="#DEDEDE" d="M 77.06 26.63 C 77.99 26.63 78.832 27.008 79.442 27.618 C 80.052 28.228 80.43 29.07 80.43 30 C 80.43 30.93 80.052 31.772 79.442 32.382 C 78.832 32.992 77.99 33.37 77.06 33.37 C 76.13 33.37 75.288 32.992 74.678 32.382 C 74.068 31.772 73.69 30.93 73.69 30 C 73.69 29.07 74.068 28.228 74.678 27.618 C 75.288 27.008 76.13 26.63 77.06 26.63 Z " stroke-width="1"/>
    <path id="ID0.40770007809624076" fill="#DEDEDE" d="M 99.79 26.63 C 100.72 26.63 101.562 27.008 102.172 27.618 C 102.782 28.228 103.16 29.07 103.16 30 C 103.16 30.93 102.782 31.772 102.172 32.382 C 101.562 32.992 100.72 33.37 99.79 33.37 C 98.86 33.37 98.018 32.992 97.408 32.382 C 96.798 31.772 96.42 30.93 96.42 30 C 96.42 29.07 96.798 28.228 97.408 27.618 C 98.018 27.008 98.86 26.63 99.79 26.63 Z " stroke-width="1"/>
    <path id="ID0.9324153582565486" fill="#D4D4D4" d="M 77.06 49.7 C 77.99 49.7 78.832 50.078 79.442 50.688 C 80.052 51.298 80.43 52.14 80.43 53.07 C 80.43 54 80.052 54.842 79.442 55.452 C 78.832 56.062 77.99 56.44 77.06 56.44 C 76.13 56.44 75.288 56.062 74.678 55.452 C 74.068 54.842 73.69 54 73.69 53.07 C 73.69 52.14 74.068 51.298 74.678 50.688 C 75.288 50.078 76.13 49.7 77.06 49.7 Z " stroke-width="1"/>
    <path id="ID0.5718031395226717" fill="#D4D4D4" d="M 99.79 49.7 C 100.72 49.7 101.562 50.078 102.172 50.688 C 102.782 51.298 103.16 52.14 103.16 53.07 C 103.16 54 102.782 54.842 102.172 55.452 C 101.562 56.062 100.72 56.44 99.79 56.44 C 98.86 56.44 98.018 56.062 97.408 55.452 C 96.798 54.842 96.42 54 96.42 53.07 C 96.42 52.14 96.798 51.298 97.408 50.688 C 98.018 50.078 98.86 49.7 99.79 49.7 Z " stroke-width="1"/>
    <path id="ID0.14449769724160433_97_" fill="#ADADAD" stroke="#000000" stroke-width="2" d="M 65.55 93.88 L 65.74 105.47 C 65.74 109.88 62.26 113.56 57.93 113.56 L 49.64 114.03 L 24.34 114.03 C 20.02 114.03 17.55 110.21 17.55 105.81 L 17.26 96.99 L 17.55 73.9 C 17.84 69.58 21.28 65.71 25.62 65.71 L 42.53 66.12 L 57.72 65.58 C 62.04 65.58 65.75 69.37 65.75 73.78 L 65.55 93.88 Z "/>
    <path id="ID0.14449769724160433_96_" fill="#DEDEDE" d="M 61.73 92.46 L 61.9 102.64 C 61.9 106.51 58.84 109.75 55.03 109.75 L 47.74 110.17 L 25.48 110.17 C 21.69 110.17 19.51 106.82 19.51 102.94 L 19.25 95.19 L 19.51 74.9 C 19.76 71.1 22.79 67.7 26.61 67.7 L 41.48 68.06 L 54.84 67.58 C 58.63 67.58 61.9 70.91 61.9 74.79 L 61.73 92.46 Z " stroke-width="1"/>
    <path id="ID0.14449769724160433_95_" fill="#F0F0F0" d="M 55.16 89.12 L 33.88 101.03 L 30.03 101.03 C 26.67 101.03 23.92 98.83 23.92 96.1 L 23.69 90.82 L 23.92 76.56 C 23.92 73.84 26.65 71.63 30.03 71.63 L 44.29 72.1 L 49.05 71.63 C 52.41 71.63 55.16 73.83 55.16 76.56 L 55.16 89.12 Z " stroke-width="1"/>
    <path id="ID0.14862350467592478" fill="#DEDEDE" d="M 29.06 74.63 C 29.99 74.63 30.832 75.008 31.442 75.618 C 32.052 76.228 32.43 77.07 32.43 78 C 32.43 78.93 32.052 79.772 31.442 80.382 C 30.832 80.992 29.99 81.37 29.06 81.37 C 28.13 81.37 27.288 80.992 26.678 80.382 C 26.068 79.772 25.69 78.93 25.69 78 C 25.69 77.07 26.068 76.228 26.678 75.618 C 27.288 75.008 28.13 74.63 29.06 74.63 Z " stroke-width="1"/>
    <path id="ID0.9762568706646562" fill="#DEDEDE" d="M 51.79 74.63 C 52.72 74.63 53.562 75.008 54.172 75.618 C 54.782 76.228 55.16 77.07 55.16 78 C 55.16 78.93 54.782 79.772 54.172 80.382 C 53.562 80.992 52.72 81.37 51.79 81.37 C 50.86 81.37 50.018 80.992 49.408 80.382 C 48.798 79.772 48.42 78.93 48.42 78 C 48.42 77.07 48.798 76.228 49.408 75.618 C 50.018 75.008 50.86 74.63 51.79 74.63 Z " stroke-width="1"/>
    <path id="ID0.3533660862594843" fill="#D4D4D4" d="M 29.06 97.7 C 29.99 97.7 30.832 98.078 31.442 98.688 C 32.052 99.298 32.43 100.14 32.43 101.07 C 32.43 102 32.052 102.842 31.442 103.452 C 30.832 104.062 29.99 104.44 29.06 104.44 C 28.13 104.44 27.288 104.062 26.678 103.452 C 26.068 102.842 25.69 102 25.69 101.07 C 25.69 100.14 26.068 99.298 26.678 98.688 C 27.288 98.078 28.13 97.7 29.06 97.7 Z " stroke-width="1"/>
    <path id="ID0.5957793048582971" fill="#D4D4D4" d="M 51.79 97.7 C 52.72 97.7 53.562 98.078 54.172 98.688 C 54.782 99.298 55.16 100.14 55.16 101.07 C 55.16 102 54.782 102.842 54.172 103.452 C 53.562 104.062 52.72 104.44 51.79 104.44 C 50.86 104.44 50.018 104.062 49.408 103.452 C 48.798 102.842 48.42 102 48.42 101.07 C 48.42 100.14 48.798 99.298 49.408 98.688 C 50.018 98.078 50.86 97.7 51.79 97.7 Z " stroke-width="1"/>
    <path id="ID0.14449769724160433_94_" fill="#ADADAD" stroke="#000000" stroke-width="2" d="M 113.56 93.88 L 113.75 105.47 C 113.75 109.88 110.27 113.56 105.94 113.56 L 97.65 114.03 L 72.34 114.03 C 68.02 114.03 65.55 110.21 65.55 105.81 L 65.26 96.99 L 65.55 73.9 C 65.84 69.58 69.28 65.71 73.62 65.71 L 90.53 66.12 L 105.72 65.58 C 110.04 65.58 113.75 69.37 113.75 73.78 L 113.56 93.88 Z "/>
    <path id="ID0.14449769724160433_93_" fill="#DEDEDE" d="M 109.73 92.46 L 109.9 102.64 C 109.9 106.51 106.84 109.75 103.03 109.75 L 95.74 110.17 L 73.48 110.17 C 69.69 110.17 67.51 106.82 67.51 102.94 L 67.25 95.19 L 67.51 74.9 C 67.76 71.1 70.79 67.7 74.61 67.7 L 89.48 68.06 L 102.84 67.58 C 106.63 67.58 109.9 70.91 109.9 74.79 L 109.73 92.46 Z " stroke-width="1"/>
    <path id="ID0.14449769724160433_92_" fill="#F0F0F0" d="M 103.16 89.12 L 81.88 101.03 L 78.03 101.03 C 74.67 101.03 71.92 98.83 71.92 96.1 L 71.69 90.82 L 71.92 76.56 C 71.92 73.84 74.65 71.63 78.03 71.63 L 92.29 72.1 L 97.05 71.63 C 100.41 71.63 103.16 73.83 103.16 76.56 L 103.16 89.12 Z " stroke-width="1"/>
    <path id="ID0.345214962027967" fill="#DEDEDE" d="M 77.06 74.63 C 77.99 74.63 78.832 75.008 79.442 75.618 C 80.052 76.228 80.43 77.07 80.43 78 C 80.43 78.93 80.052 79.772 79.442 80.382 C 78.832 80.992 77.99 81.37 77.06 81.37 C 76.13 81.37 75.288 80.992 74.678 80.382 C 74.068 79.772 73.69 78.93 73.69 78 C 73.69 77.07 74.068 76.228 74.678 75.618 C 75.288 75.008 76.13 74.63 77.06 74.63 Z " stroke-width="1"/>
    <path id="ID0.2815473582595587" fill="#DEDEDE" d="M 99.79 74.63 C 100.72 74.63 101.562 75.008 102.172 75.618 C 102.782 76.228 103.16 77.07 103.16 78 C 103.16 78.93 102.782 79.772 102.172 80.382 C 101.562 80.992 100.72 81.37 99.79 81.37 C 98.86 81.37 98.018 80.992 97.408 80.382 C 96.798 79.772 96.42 78.93 96.42 78 C 96.42 77.07 96.798 76.228 97.408 75.618 C 98.018 75.008 98.86 74.63 99.79 74.63 Z " stroke-width="1"/>
    <path id="ID0.4852686319500208" fill="#D4D4D4" d="M 77.06 97.7 C 77.99 97.7 78.832 98.078 79.442 98.688 C 80.052 99.298 80.43 100.14 80.43 101.07 C 80.43 102 80.052 102.842 79.442 103.452 C 78.832 104.062 77.99 104.44 77.06 104.44 C 76.13 104.44 75.288 104.062 74.678 103.452 C 74.068 102.842 73.69 102 73.69 101.07 C 73.69 100.14 74.068 99.298 74.678 98.688 C 75.288 98.078 76.13 97.7 77.06 97.7 Z " stroke-width="1"/>
    <path id="ID0.24597135232761502" fill="#D4D4D4" d="M 99.79 97.7 C 100.72 97.7 101.562 98.078 102.172 98.688 C 102.782 99.298 103.16 100.14 103.16 101.07 C 103.16 102 102.782 102.842 102.172 103.452 C 101.562 104.062 100.72 104.44 99.79 104.44 C 98.86 104.44 98.018 104.062 97.408 103.452 C 96.798 102.842 96.42 102 96.42 101.07 C 96.42 100.14 96.798 99.298 97.408 98.688 C 98.018 98.078 98.86 97.7 99.79 97.7 Z " stroke-width="1"/>
    <path id="ID0.8482981990091503" fill="#FFFFFF" d="M 43.14 18.78 C 46.644 18.78 49.819 19.142 52.118 19.727 C 54.417 20.311 55.84 21.119 55.84 22.01 C 55.84 22.901 54.417 23.709 52.118 24.293 C 49.819 24.878 46.644 25.24 43.14 25.24 C 39.636 25.24 36.461 24.878 34.162 24.293 C 31.863 23.709 30.44 22.901 30.44 22.01 C 30.44 21.119 31.863 20.311 34.162 19.727 C 36.461 19.142 39.636 18.78 43.14 18.78 Z " stroke-width="1"/>
    <path id="ID0.2393652331084013" d="M 41.14 17.79 C 44.644 17.79 47.819 18.117 50.118 18.646 C 52.417 19.174 53.84 19.904 53.84 20.71 C 53.84 21.516 52.417 22.246 50.118 22.774 C 47.819 23.303 44.644 23.63 41.14 23.63 C 37.636 23.63 34.461 23.303 32.162 22.774 C 29.863 22.246 28.44 21.516 28.44 20.71 C 28.44 19.904 29.863 19.174 32.162 18.646 C 34.461 18.117 37.636 17.79 41.14 17.79 Z " stroke-width="1" />
    <path id="ID0.4858342087827623" fill="#FFFFFF" d="M 91.5 18.78 C 95.004 18.78 98.179 19.142 100.478 19.727 C 102.777 20.311 104.2 21.119 104.2 22.01 C 104.2 22.901 102.777 23.709 100.478 24.293 C 98.179 24.878 95.004 25.24 91.5 25.24 C 87.996 25.24 84.821 24.878 82.522 24.293 C 80.223 23.709 78.8 22.901 78.8 22.01 C 78.8 21.119 80.223 20.311 82.522 19.727 C 84.821 19.142 87.996 18.78 91.5 18.78 Z " stroke-width="1"/>
    <path id="ID0.26664792839437723" d="M 89.5 17.79 C 93.004 17.79 96.179 18.117 98.478 18.646 C 100.777 19.174 102.2 19.904 102.2 20.71 C 102.2 21.516 100.777 22.246 98.478 22.774 C 96.179 23.303 93.004 23.63 89.5 23.63 C 85.996 23.63 82.821 23.303 80.522 22.774 C 78.223 22.246 76.8 21.516 76.8 20.71 C 76.8 19.904 78.223 19.174 80.522 18.646 C 82.821 18.117 85.996 17.79 89.5 17.79 Z " stroke-width="1" />
    <path id="ID0.033297700341790915_17_" fill="none" d="M 0.5 0.5 L 132.59 0.5 L 132.59 133.13 L 0.5 133.13 L 0.5 0.5 Z " stroke-width="1"/>
  </g>
</svg>