<svg version="1.1" xmlns="http://www.w3.org/2000/svg" xmlns:xlink="http://www.w3.org/1999/xlink" width="938.83904" height="627.42643" viewBox="0,0,938.83904,627.42643"><g transform="translate(250.86013,102.21321)"><g data-paper-data="{&quot;isPaintingLayer&quot;:true}" fill-rule="nonzero" stroke="none" stroke-linecap="butt" stroke-linejoin="miter" stroke-miterlimit="10" stroke-dasharray="" stroke-dashoffset="0" style="mix-blend-mode: normal"><path d="M275.20421,147.21322v-238.42643h330.77469v238.42643z" fill="#000000" stroke-width="0"/><path d="M453.64937,-54.02071c0,-0.38599 0.31291,-0.69891 0.69891,-0.69891c0.386,0 0.69891,0.31292 0.69891,0.69891c0,0.38599 -0.31291,0.69891 -0.69891,0.69891c-0.386,0 -0.69891,-0.31292 -0.69891,-0.69891z" fill="#ffffff" stroke-width="0.5"/><path d="M514.93504,-57.37883c0,-0.386 0.31291,-0.69891 0.69891,-0.69891c0.386,0 0.69891,0.31291 0.69891,0.69891c0,0.386 -0.31291,0.69891 -0.69891,0.69891c-0.386,0 -0.69891,-0.31291 -0.69891,-0.69891z" fill="#ffffff" stroke-width="0.5"/><path d="M544.31858,-27.9953c0,-0.38599 0.31291,-0.69891 0.69891,-0.69891c0.386,0 0.69891,0.31292 0.69891,0.69891c0,0.38599 -0.31291,0.69891 -0.69891,0.69891c-0.386,0 -0.69891,-0.31292 -0.69891,-0.69891z" fill="#ffffff" stroke-width="0.5"/><path d="M512.41646,16.49978c0,-0.386 0.31291,-0.69891 0.69891,-0.69891c0.386,0 0.69891,0.31291 0.69891,0.69891c0,0.386 -0.31291,0.69891 -0.69891,0.69891c-0.386,0 -0.69891,-0.31291 -0.69891,-0.69891z" fill="#ffffff" stroke-width="0.5"/><path d="M504.02116,-12.88376c0,-0.38599 0.31291,-0.69891 0.69891,-0.69891c0.386,0 0.69891,0.31292 0.69891,0.69891c0,0.38599 -0.31291,0.69891 -0.69891,0.69891c-0.386,0 -0.69891,-0.31292 -0.69891,-0.69891z" fill="#ffffff" stroke-width="0.5"/><path d="M424.26584,-12.88376c0,-0.38599 0.31291,-0.69891 0.69891,-0.69891c0.386,0 0.69891,0.31292 0.69891,0.69891c0,0.38599 -0.31291,0.69891 -0.69891,0.69891c-0.386,0 -0.69891,-0.31292 -0.69891,-0.69891z" fill="#ffffff" stroke-width="0.5"/><path d="M415.87054,-47.30447c0,-0.38599 0.31291,-0.69891 0.69891,-0.69891c0.386,0 0.69891,0.31292 0.69891,0.69891c0,0.38599 -0.31291,0.69891 -0.69891,0.69891c-0.386,0 -0.69891,-0.31292 -0.69891,-0.69891z" fill="#ffffff" stroke-width="0.5"/><path d="M355.42441,-27.9953c0,-0.38599 0.31292,-0.69891 0.69891,-0.69891c0.38599,0 0.69891,0.31292 0.69891,0.69891c0,0.38599 -0.31292,0.69891 -0.69891,0.69891c-0.38599,0 -0.69891,-0.31292 -0.69891,-0.69891z" fill="#ffffff" stroke-width="0.5"/><path d="M363.8197,11.4626c0,-0.386 0.31292,-0.69891 0.69891,-0.69891c0.38599,0 0.69891,0.31291 0.69891,0.69891c0,0.386 -0.31292,0.69891 -0.69891,0.69891c-0.38599,0 -0.69891,-0.31291 -0.69891,-0.69891z" fill="#ffffff" stroke-width="0.5"/><path d="M422.58678,42.5252c0,-0.386 0.31291,-0.69891 0.69891,-0.69891c0.386,0 0.69891,0.31291 0.69891,0.69891c0,0.386 -0.31291,0.69891 -0.69891,0.69891c-0.386,0 -0.69891,-0.31291 -0.69891,-0.69891z" fill="#ffffff" stroke-width="0.5"/><path d="M341.1524,58.47626c0,-0.386 0.31292,-0.69891 0.69891,-0.69891c0.38599,0 0.69891,0.31291 0.69891,0.69891c0,0.386 -0.31292,0.69891 -0.69891,0.69891c-0.38599,0 -0.69891,-0.31291 -0.69891,-0.69891z" fill="#ffffff" stroke-width="0.5"/><path d="M352.06629,97.09463c0,-0.386 0.31292,-0.69891 0.69891,-0.69891c0.38599,0 0.69891,0.31291 0.69891,0.69891c0,0.386 -0.31292,0.69891 -0.69891,0.69891c-0.38599,0 -0.69891,-0.31291 -0.69891,-0.69891z" fill="#ffffff" stroke-width="0.5"/><path d="M400.75901,91.21792c0,-0.386 0.31291,-0.69891 0.69891,-0.69891c0.386,0 0.69891,0.31291 0.69891,0.69891c0,0.386 -0.31291,0.69891 -0.69891,0.69891c-0.386,0 -0.69891,-0.31291 -0.69891,-0.69891z" fill="#ffffff" stroke-width="0.5"/><path d="M461.20515,106.32945c0,-0.386 0.31291,-0.69891 0.69891,-0.69891c0.386,0 0.69891,0.31291 0.69891,0.69891c0,0.386 -0.31291,0.69891 -0.69891,0.69891c-0.386,0 -0.69891,-0.31291 -0.69891,-0.69891z" fill="#ffffff" stroke-width="0.5"/><path d="M545.15811,73.5878c0,-0.386 0.31291,-0.69891 0.69891,-0.69891c0.386,0 0.69891,0.31291 0.69891,0.69891c0,0.386 -0.31291,0.69891 -0.69891,0.69891c-0.386,0 -0.69891,-0.31291 -0.69891,-0.69891z" fill="#ffffff" stroke-width="0.5"/><path d="M488.07009,60.99485c0,-0.386 0.31291,-0.69891 0.69891,-0.69891c0.386,0 0.69891,0.31291 0.69891,0.69891c0,0.386 -0.31291,0.69891 -0.69891,0.69891c-0.386,0 -0.69891,-0.31291 -0.69891,-0.69891z" fill="#ffffff" stroke-width="0.5"/><path d="M475.47714,5.5859c0,-0.386 0.31291,-0.69891 0.69891,-0.69891c0.386,0 0.69891,0.31291 0.69891,0.69891c0,0.386 -0.31291,0.69891 -0.69891,0.69891c-0.386,0 -0.69891,-0.31291 -0.69891,-0.69891z" fill="#ffffff" stroke-width="0.5"/><path d="M402.43807,17.33931c0,-0.386 0.31291,-0.69891 0.69891,-0.69891c0.386,0 0.69891,0.31291 0.69891,0.69891c0,0.386 -0.31291,0.69891 -0.69891,0.69891c-0.386,0 -0.69891,-0.31291 -0.69891,-0.69891z" fill="#ffffff" stroke-width="0.5"/><path d="M368.01735,-58.21836c0,-0.386 0.31292,-0.69891 0.69891,-0.69891c0.38599,0 0.69891,0.31291 0.69891,0.69891c0,0.386 -0.31292,0.69891 -0.69891,0.69891c-0.38599,0 -0.69891,-0.31291 -0.69891,-0.69891z" fill="#ffffff" stroke-width="0.5"/><path d="M328.55945,-54.02071c0,-0.38599 0.31292,-0.69891 0.69891,-0.69891c0.38599,0 0.69891,0.31292 0.69891,0.69891c0,0.38599 -0.31292,0.69891 -0.69891,0.69891c-0.38599,0 -0.69891,-0.31292 -0.69891,-0.69891z" fill="#ffffff" stroke-width="0.5"/><path d="M315.9665,3.0673c0,-0.386 0.31291,-0.69891 0.69891,-0.69891c0.386,0 0.69891,0.31291 0.69891,0.69891c0,0.386 -0.31291,0.69891 -0.69891,0.69891c-0.386,0 -0.69891,-0.31291 -0.69891,-0.69891z" fill="#ffffff" stroke-width="0.5"/><path d="M277.34814,13.14166c0,-0.386 0.31291,-0.69891 0.69891,-0.69891c0.386,0 0.69891,0.31291 0.69891,0.69891c0,0.386 -0.31291,0.69891 -0.69891,0.69891c-0.386,0 -0.69891,-0.31291 -0.69891,-0.69891z" fill="#ffffff" stroke-width="0.5"/><path d="M311.76886,76.94591c0,-0.386 0.31291,-0.69891 0.69891,-0.69891c0.386,0 0.69891,0.31291 0.69891,0.69891c0,0.386 -0.31291,0.69891 -0.69891,0.69891c-0.386,0 -0.69891,-0.31291 -0.69891,-0.69891z" fill="#ffffff" stroke-width="0.5"/><path d="M291.62014,106.32946c0,-0.386 0.31291,-0.69891 0.69891,-0.69891c0.386,0 0.69891,0.31291 0.69891,0.69891c0,0.386 -0.31291,0.69891 -0.69891,0.69891c-0.386,0 -0.69891,-0.31291 -0.69891,-0.69891z" fill="#ffffff" stroke-width="0.5"/><path d="M364.65923,127.3177c0,-0.386 0.31291,-0.69891 0.69891,-0.69891c0.386,0 0.69891,0.31291 0.69891,0.69891c0,0.386 -0.31291,0.69891 -0.69891,0.69891c-0.386,0 -0.69891,-0.31291 -0.69891,-0.69891z" fill="#ffffff" stroke-width="0.5"/><path d="M414.19148,111.36664c0,-0.386 0.31291,-0.69891 0.69891,-0.69891c0.386,0 0.69891,0.31291 0.69891,0.69891c0,0.386 -0.31291,0.69891 -0.69891,0.69891c-0.386,0 -0.69891,-0.31291 -0.69891,-0.69891z" fill="#ffffff" stroke-width="0.5"/><path d="M515.77457,130.67582c0,-0.386 0.31291,-0.69891 0.69891,-0.69891c0.386,0 0.69891,0.31291 0.69891,0.69891c0,0.386 -0.31291,0.69891 -0.69891,0.69891c-0.386,0 -0.69891,-0.31291 -0.69891,-0.69891z" fill="#ffffff" stroke-width="0.5"/><path d="M514.93504,104.65039c0,-0.386 0.31291,-0.69891 0.69891,-0.69891c0.386,0 0.69891,0.31291 0.69891,0.69891c0,0.386 -0.31291,0.69891 -0.69891,0.69891c-0.386,0 -0.69891,-0.31291 -0.69891,-0.69891z" fill="#ffffff" stroke-width="0.5"/><path d="M579.57882,110.5271c0,-0.386 0.31291,-0.69891 0.69891,-0.69891c0.386,0 0.69891,0.31291 0.69891,0.69891c0,0.386 -0.31291,0.69891 -0.69891,0.69891c-0.386,0 -0.69891,-0.31291 -0.69891,-0.69891z" fill="#ffffff" stroke-width="0.5"/><path d="M597.20895,45.04379c0,-0.386 0.31291,-0.69891 0.69891,-0.69891c0.386,0 0.69891,0.31291 0.69891,0.69891c0,0.386 -0.31291,0.69891 -0.69891,0.69891c-0.386,0 -0.69891,-0.31291 -0.69891,-0.69891z" fill="#ffffff" stroke-width="0.5"/><path d="M556.91152,34.96943c0,-0.386 0.31291,-0.69891 0.69891,-0.69891c0.386,0 0.69891,0.31291 0.69891,0.69891c0,0.386 -0.31291,0.69891 -0.69891,0.69891c-0.386,0 -0.69891,-0.31291 -0.69891,-0.69891z" fill="#ffffff" stroke-width="0.5"/><path d="M587.97412,-31.35341c0,-0.386 0.31291,-0.69891 0.69891,-0.69891c0.386,0 0.69891,0.31291 0.69891,0.69891c0,0.386 -0.31291,0.69891 -0.69891,0.69891c-0.386,0 -0.69891,-0.31291 -0.69891,-0.69891z" fill="#ffffff" stroke-width="0.5"/><path d="M561.9487,-53.18118c0,-0.386 0.31291,-0.69891 0.69891,-0.69891c0.386,0 0.69891,0.31291 0.69891,0.69891c0,0.386 -0.31291,0.69891 -0.69891,0.69891c-0.386,0 -0.69891,-0.31291 -0.69891,-0.69891z" fill="#ffffff" stroke-width="0.5"/><path d="M-54.79579,159.21322v-261.42643h330.77469v261.42643z" fill="#000000" stroke-width="0"/><path d="M123.64937,-54.02071c0,-0.386 0.31291,-0.6989 0.69891,-0.6989c0.386,0 0.69891,0.31291 0.69891,0.6989c0,0.386 -0.31291,0.69891 -0.69891,0.69891c-0.386,0 -0.69891,-0.31292 -0.69891,-0.69891z" fill="#ffffff" stroke-width="0.5"/><path d="M184.93504,-57.37883c0,-0.386 0.31291,-0.6989 0.69891,-0.6989c0.386,0 0.69891,0.3129 0.69891,0.6989c0,0.386 -0.31291,0.69891 -0.69891,0.69891c-0.386,0 -0.69891,-0.31291 -0.69891,-0.69891z" fill="#ffffff" stroke-width="0.5"/><path d="M214.31858,-27.99529c0,-0.386 0.31291,-0.69891 0.69891,-0.69891c0.386,0 0.69891,0.31292 0.69891,0.69891c0,0.386 -0.31291,0.6989 -0.69891,0.6989c-0.386,0 -0.69891,-0.31291 -0.69891,-0.6989z" fill="#ffffff" stroke-width="0.5"/><path d="M182.41646,16.49978c0,-0.386 0.31291,-0.69891 0.69891,-0.69891c0.386,0 0.69891,0.31291 0.69891,0.69891c0,0.386 -0.31291,0.69891 -0.69891,0.69891c-0.386,0 -0.69891,-0.31291 -0.69891,-0.69891z" fill="#ffffff" stroke-width="0.5"/><path d="M174.02116,-12.88375c0,-0.386 0.31291,-0.69891 0.69891,-0.69891c0.386,0 0.69891,0.31292 0.69891,0.69891c0,0.38599 -0.31291,0.69891 -0.69891,0.69891c-0.386,0 -0.69891,-0.31292 -0.69891,-0.69891z" fill="#ffffff" stroke-width="0.5"/><path d="M94.26584,-12.88375c0,-0.386 0.31291,-0.69891 0.69891,-0.69891c0.386,0 0.69891,0.31292 0.69891,0.69891c0,0.38599 -0.31291,0.69891 -0.69891,0.69891c-0.386,0 -0.69891,-0.31292 -0.69891,-0.69891z" fill="#ffffff" stroke-width="0.5"/><path d="M85.87054,-47.30447c0,-0.386 0.31291,-0.69891 0.69891,-0.69891c0.386,0 0.6989,0.31291 0.6989,0.69891c0,0.386 -0.3129,0.69891 -0.6989,0.69891c-0.386,0 -0.69891,-0.31291 -0.69891,-0.69891z" fill="#ffffff" stroke-width="0.5"/><path d="M25.42441,-27.99529c0,-0.386 0.31291,-0.69891 0.6989,-0.69891c0.38599,0 0.69891,0.31292 0.69891,0.69891c0,0.386 -0.31292,0.6989 -0.69891,0.6989c-0.38599,0 -0.6989,-0.31291 -0.6989,-0.6989z" fill="#ffffff" stroke-width="0.5"/><path d="M33.8197,11.46261c0,-0.386 0.31292,-0.69891 0.69891,-0.69891c0.38599,0 0.69891,0.31291 0.69891,0.69891c0,0.386 -0.31291,0.6989 -0.69891,0.6989c-0.38599,0 -0.69891,-0.31291 -0.69891,-0.6989z" fill="#ffffff" stroke-width="0.5"/><path d="M92.58678,42.52521c0,-0.386 0.31291,-0.69891 0.69891,-0.69891c0.386,0 0.69891,0.31291 0.69891,0.69891c0,0.386 -0.31291,0.69891 -0.69891,0.69891c-0.386,0 -0.69891,-0.31291 -0.69891,-0.69891z" fill="#ffffff" stroke-width="0.5"/><path d="M11.1524,58.47627c0,-0.386 0.31292,-0.69891 0.69891,-0.69891c0.38599,0 0.6989,0.31291 0.6989,0.69891c0,0.386 -0.31291,0.69891 -0.6989,0.69891c-0.38599,0 -0.69891,-0.31291 -0.69891,-0.69891z" fill="#ffffff" stroke-width="0.5"/><path d="M22.06628,97.09463c0,-0.386 0.31292,-0.69891 0.69891,-0.69891c0.38599,0 0.69891,0.31291 0.69891,0.69891c0,0.386 -0.31292,0.69891 -0.69891,0.69891c-0.38599,0 -0.69891,-0.31291 -0.69891,-0.69891z" fill="#ffffff" stroke-width="0.5"/><path d="M70.75901,91.21792c0,-0.386 0.31291,-0.69891 0.69891,-0.69891c0.386,0 0.69891,0.31291 0.69891,0.69891c0,0.386 -0.31291,0.69891 -0.69891,0.69891c-0.386,0 -0.69891,-0.31291 -0.69891,-0.69891z" fill="#ffffff" stroke-width="0.5"/><path d="M131.20514,106.32945c0,-0.386 0.31291,-0.6989 0.69891,-0.6989c0.386,0 0.69891,0.31291 0.69891,0.6989c0,0.386 -0.31291,0.69891 -0.69891,0.69891c-0.386,0 -0.69891,-0.31291 -0.69891,-0.69891z" fill="#ffffff" stroke-width="0.5"/><path d="M215.15811,73.5878c0,-0.386 0.31291,-0.69891 0.69891,-0.69891c0.386,0 0.6989,0.31291 0.6989,0.69891c0,0.386 -0.31291,0.6989 -0.6989,0.6989c-0.386,0 -0.69891,-0.31291 -0.69891,-0.6989z" fill="#ffffff" stroke-width="0.5"/><path d="M158.07009,60.99486c0,-0.386 0.31291,-0.69891 0.69891,-0.69891c0.386,0 0.69891,0.31291 0.69891,0.69891c0,0.386 -0.31291,0.69891 -0.69891,0.69891c-0.386,0 -0.69891,-0.31291 -0.69891,-0.69891z" fill="#ffffff" stroke-width="0.5"/><path d="M145.47714,5.5859c0,-0.386 0.3129,-0.69891 0.6989,-0.69891c0.386,0 0.69891,0.31291 0.69891,0.69891c0,0.386 -0.31291,0.69891 -0.69891,0.69891c-0.386,0 -0.6989,-0.31291 -0.6989,-0.69891z" fill="#ffffff" stroke-width="0.5"/><path d="M72.43806,17.33931c0,-0.386 0.31291,-0.69891 0.69891,-0.69891c0.386,0 0.69891,0.31291 0.69891,0.69891c0,0.386 -0.31291,0.69891 -0.69891,0.69891c-0.386,0 -0.69891,-0.31291 -0.69891,-0.69891z" fill="#ffffff" stroke-width="0.5"/><path d="M38.01735,-58.21835c0,-0.386 0.31291,-0.69891 0.69891,-0.69891c0.38599,0 0.69891,0.31291 0.69891,0.69891c0,0.386 -0.31292,0.69891 -0.69891,0.69891c-0.38599,0 -0.69891,-0.31291 -0.69891,-0.69891z" fill="#ffffff" stroke-width="0.5"/><path d="M-1.44055,-54.02071c0,-0.386 0.31291,-0.6989 0.69891,-0.6989c0.38599,0 0.69891,0.31291 0.69891,0.6989c0,0.386 -0.31292,0.69891 -0.69891,0.69891c-0.38599,0 -0.69891,-0.31292 -0.69891,-0.69891z" fill="#ffffff" stroke-width="0.5"/><path d="M-14.0335,3.06731c0,-0.386 0.31291,-0.69891 0.69891,-0.69891c0.386,0 0.69891,0.31291 0.69891,0.69891c0,0.386 -0.31291,0.6989 -0.69891,0.6989c-0.386,0 -0.69891,-0.31291 -0.69891,-0.6989z" fill="#ffffff" stroke-width="0.5"/><path d="M-52.65186,2.14166c0,-0.386 0.31291,-0.69891 0.69891,-0.69891c0.386,0 0.69891,0.31291 0.69891,0.69891c0,0.386 -0.31291,0.69891 -0.69891,0.69891c-0.386,0 -0.69891,-0.31291 -0.69891,-0.69891z" fill="#ffffff" stroke-width="0.5"/><path d="M-18.23114,76.94592c0,-0.386 0.3129,-0.69891 0.6989,-0.69891c0.386,0 0.69891,0.31291 0.69891,0.69891c0,0.386 -0.31291,0.6989 -0.69891,0.6989c-0.386,0 -0.6989,-0.31291 -0.6989,-0.6989z" fill="#ffffff" stroke-width="0.5"/><path d="M-38.37986,106.32946c0,-0.386 0.31291,-0.6989 0.69891,-0.6989c0.386,0 0.69891,0.31291 0.69891,0.6989c0,0.386 -0.31291,0.69891 -0.69891,0.69891c-0.386,0 -0.69891,-0.31291 -0.69891,-0.69891z" fill="#ffffff" stroke-width="0.5"/><path d="M34.65923,127.3177c0,-0.386 0.31291,-0.69891 0.69891,-0.69891c0.386,0 0.69891,0.31291 0.69891,0.69891c0,0.386 -0.31291,0.69891 -0.69891,0.69891c-0.386,0 -0.69891,-0.31291 -0.69891,-0.69891z" fill="#ffffff" stroke-width="0.5"/><path d="M84.19148,111.36664c0,-0.386 0.31291,-0.69891 0.69891,-0.69891c0.386,0 0.69891,0.31291 0.69891,0.69891c0,0.386 -0.31291,0.69891 -0.69891,0.69891c-0.386,0 -0.69891,-0.31291 -0.69891,-0.69891z" fill="#ffffff" stroke-width="0.5"/><path d="M185.77457,130.67582c0,-0.386 0.31291,-0.69891 0.69891,-0.69891c0.386,0 0.69891,0.31291 0.69891,0.69891c0,0.386 -0.31291,0.69891 -0.69891,0.69891c-0.386,0 -0.69891,-0.31291 -0.69891,-0.69891z" fill="#ffffff" stroke-width="0.5"/><path d="M184.93504,104.6504c0,-0.386 0.31291,-0.69891 0.69891,-0.69891c0.386,0 0.69891,0.31291 0.69891,0.69891c0,0.386 -0.31291,0.6989 -0.69891,0.6989c-0.386,0 -0.69891,-0.31291 -0.69891,-0.6989z" fill="#ffffff" stroke-width="0.5"/><path d="M249.57883,110.5271c0,-0.386 0.31291,-0.69891 0.69891,-0.69891c0.386,0 0.6989,0.31291 0.6989,0.69891c0,0.386 -0.31291,0.69891 -0.6989,0.69891c-0.386,0 -0.69891,-0.31291 -0.69891,-0.69891z" fill="#ffffff" stroke-width="0.5"/><path d="M267.20895,45.04379c0,-0.386 0.31291,-0.69891 0.69891,-0.69891c0.386,0 0.69891,0.31291 0.69891,0.69891c0,0.386 -0.31291,0.69891 -0.69891,0.69891c-0.386,0 -0.69891,-0.31291 -0.69891,-0.69891z" fill="#ffffff" stroke-width="0.5"/><path d="M226.91153,34.96943c0,-0.386 0.31291,-0.69891 0.6989,-0.69891c0.386,0 0.69891,0.31291 0.69891,0.69891c0,0.386 -0.31291,0.69891 -0.69891,0.69891c-0.386,0 -0.6989,-0.31291 -0.6989,-0.69891z" fill="#ffffff" stroke-width="0.5"/><path d="M257.97412,-31.35341c0,-0.386 0.31291,-0.69891 0.69891,-0.69891c0.386,0 0.6989,0.31291 0.6989,0.69891c0,0.386 -0.31291,0.6989 -0.6989,0.6989c-0.386,0 -0.69891,-0.31291 -0.69891,-0.6989z" fill="#ffffff" stroke-width="0.5"/><path d="M231.94871,-53.18118c0,-0.386 0.31291,-0.69891 0.6989,-0.69891c0.386,0 0.69891,0.31291 0.69891,0.69891c0,0.386 -0.31291,0.69891 -0.69891,0.69891c-0.386,0 -0.6989,-0.31291 -0.6989,-0.69891z" fill="#ffffff" stroke-width="0.5"/><path d="M273.20421,380.21323v-238.42643h330.77469v238.42643z" fill="#000000" stroke-width="0"/><path d="M451.64937,178.97929c0,-0.386 0.31291,-0.69891 0.69891,-0.69891c0.386,0 0.69891,0.31291 0.69891,0.69891c0,0.38599 -0.31291,0.69891 -0.69891,0.69891c-0.386,0 -0.69891,-0.31292 -0.69891,-0.69891z" fill="#ffffff" stroke-width="0.5"/><path d="M512.93504,175.62117c0,-0.386 0.31291,-0.6989 0.69891,-0.6989c0.386,0 0.69891,0.3129 0.69891,0.6989c0,0.386 -0.31291,0.69891 -0.69891,0.69891c-0.386,0 -0.69891,-0.31291 -0.69891,-0.69891z" fill="#ffffff" stroke-width="0.5"/><path d="M542.31858,205.00471c0,-0.38599 0.31291,-0.69891 0.69891,-0.69891c0.386,0 0.69891,0.31292 0.69891,0.69891c0,0.386 -0.31291,0.69891 -0.69891,0.69891c-0.386,0 -0.69891,-0.31291 -0.69891,-0.69891z" fill="#ffffff" stroke-width="0.5"/><path d="M510.41646,249.49978c0,-0.386 0.31291,-0.6989 0.69891,-0.6989c0.386,0 0.69891,0.31291 0.69891,0.6989c0,0.386 -0.31291,0.69891 -0.69891,0.69891c-0.386,0 -0.69891,-0.31291 -0.69891,-0.69891z" fill="#ffffff" stroke-width="0.5"/><path d="M502.02116,220.11625c0,-0.386 0.31291,-0.69891 0.69891,-0.69891c0.386,0 0.69891,0.31291 0.69891,0.69891c0,0.38599 -0.31291,0.69891 -0.69891,0.69891c-0.386,0 -0.69891,-0.31292 -0.69891,-0.69891z" fill="#ffffff" stroke-width="0.5"/><path d="M422.26584,220.11625c0,-0.386 0.31291,-0.69891 0.69891,-0.69891c0.386,0 0.69891,0.31291 0.69891,0.69891c0,0.38599 -0.31291,0.69891 -0.69891,0.69891c-0.386,0 -0.69891,-0.31292 -0.69891,-0.69891z" fill="#ffffff" stroke-width="0.5"/><path d="M413.87054,185.69553c0,-0.386 0.31291,-0.69891 0.69891,-0.69891c0.386,0 0.6989,0.31291 0.6989,0.69891c0,0.386 -0.3129,0.6989 -0.6989,0.6989c-0.386,0 -0.69891,-0.31291 -0.69891,-0.6989z" fill="#ffffff" stroke-width="0.5"/><path d="M353.42441,205.00471c0,-0.38599 0.31291,-0.69891 0.6989,-0.69891c0.38599,0 0.69891,0.31292 0.69891,0.69891c0,0.386 -0.31292,0.69891 -0.69891,0.69891c-0.38599,0 -0.6989,-0.31291 -0.6989,-0.69891z" fill="#ffffff" stroke-width="0.5"/><path d="M361.8197,244.46261c0,-0.386 0.31292,-0.69891 0.69891,-0.69891c0.38599,0 0.69891,0.31291 0.69891,0.69891c0,0.386 -0.31291,0.69891 -0.69891,0.69891c-0.38599,0 -0.69891,-0.31291 -0.69891,-0.69891z" fill="#ffffff" stroke-width="0.5"/><path d="M420.58678,275.5252c0,-0.386 0.31291,-0.69891 0.69891,-0.69891c0.386,0 0.69891,0.31291 0.69891,0.69891c0,0.386 -0.31291,0.69891 -0.69891,0.69891c-0.386,0 -0.69891,-0.31291 -0.69891,-0.69891z" fill="#ffffff" stroke-width="0.5"/><path d="M339.1524,291.47627c0,-0.386 0.31292,-0.69891 0.69891,-0.69891c0.38599,0 0.6989,0.31291 0.6989,0.69891c0,0.386 -0.31291,0.69891 -0.6989,0.69891c-0.38599,0 -0.69891,-0.31291 -0.69891,-0.69891z" fill="#ffffff" stroke-width="0.5"/><path d="M350.06629,330.09463c0,-0.386 0.31292,-0.69891 0.69891,-0.69891c0.38599,0 0.69891,0.31291 0.69891,0.69891c0,0.386 -0.31292,0.69891 -0.69891,0.69891c-0.38599,0 -0.69891,-0.31291 -0.69891,-0.69891z" fill="#ffffff" stroke-width="0.5"/><path d="M398.75901,324.21792c0,-0.386 0.31291,-0.69891 0.69891,-0.69891c0.386,0 0.69891,0.31291 0.69891,0.69891c0,0.386 -0.31291,0.69891 -0.69891,0.69891c-0.386,0 -0.69891,-0.31291 -0.69891,-0.69891z" fill="#ffffff" stroke-width="0.5"/><path d="M459.20515,339.32945c0,-0.386 0.31291,-0.69891 0.69891,-0.69891c0.386,0 0.69891,0.31291 0.69891,0.69891c0,0.386 -0.31291,0.69891 -0.69891,0.69891c-0.386,0 -0.69891,-0.31291 -0.69891,-0.69891z" fill="#ffffff" stroke-width="0.5"/><path d="M543.15811,306.5878c0,-0.386 0.31291,-0.69891 0.69891,-0.69891c0.386,0 0.6989,0.31291 0.6989,0.69891c0,0.386 -0.31291,0.6989 -0.6989,0.6989c-0.386,0 -0.69891,-0.31291 -0.69891,-0.6989z" fill="#ffffff" stroke-width="0.5"/><path d="M486.07009,293.99486c0,-0.386 0.31291,-0.69891 0.69891,-0.69891c0.386,0 0.69891,0.31291 0.69891,0.69891c0,0.386 -0.31291,0.69891 -0.69891,0.69891c-0.386,0 -0.69891,-0.31291 -0.69891,-0.69891z" fill="#ffffff" stroke-width="0.5"/><path d="M473.47715,238.5859c0,-0.386 0.3129,-0.69891 0.6989,-0.69891c0.386,0 0.69891,0.31291 0.69891,0.69891c0,0.386 -0.31291,0.69891 -0.69891,0.69891c-0.386,0 -0.6989,-0.31291 -0.6989,-0.69891z" fill="#ffffff" stroke-width="0.5"/><path d="M400.43807,250.33931c0,-0.386 0.31291,-0.69891 0.69891,-0.69891c0.386,0 0.69891,0.31291 0.69891,0.69891c0,0.386 -0.31291,0.69891 -0.69891,0.69891c-0.386,0 -0.69891,-0.31291 -0.69891,-0.69891z" fill="#ffffff" stroke-width="0.5"/><path d="M366.01735,174.78165c0,-0.386 0.31291,-0.69891 0.69891,-0.69891c0.38599,0 0.69891,0.31291 0.69891,0.69891c0,0.386 -0.31292,0.6989 -0.69891,0.6989c-0.38599,0 -0.69891,-0.31291 -0.69891,-0.6989z" fill="#ffffff" stroke-width="0.5"/><path d="M326.55945,178.97929c0,-0.386 0.31291,-0.69891 0.69891,-0.69891c0.38599,0 0.69891,0.31291 0.69891,0.69891c0,0.38599 -0.31292,0.69891 -0.69891,0.69891c-0.38599,0 -0.69891,-0.31292 -0.69891,-0.69891z" fill="#ffffff" stroke-width="0.5"/><path d="M313.9665,236.06731c0,-0.386 0.31291,-0.69891 0.69891,-0.69891c0.386,0 0.69891,0.31291 0.69891,0.69891c0,0.386 -0.31291,0.6989 -0.69891,0.6989c-0.386,0 -0.69891,-0.31291 -0.69891,-0.6989z" fill="#ffffff" stroke-width="0.5"/><path d="M275.34814,246.14166c0,-0.386 0.31291,-0.69891 0.69891,-0.69891c0.386,0 0.69891,0.31291 0.69891,0.69891c0,0.386 -0.31291,0.69891 -0.69891,0.69891c-0.386,0 -0.69891,-0.31291 -0.69891,-0.69891z" fill="#ffffff" stroke-width="0.5"/><path d="M309.76886,309.94592c0,-0.386 0.3129,-0.69891 0.6989,-0.69891c0.386,0 0.69891,0.31291 0.69891,0.69891c0,0.386 -0.31291,0.6989 -0.69891,0.6989c-0.386,0 -0.6989,-0.31291 -0.6989,-0.6989z" fill="#ffffff" stroke-width="0.5"/><path d="M289.62014,339.32946c0,-0.386 0.31291,-0.69891 0.69891,-0.69891c0.386,0 0.69891,0.31291 0.69891,0.69891c0,0.386 -0.31291,0.69891 -0.69891,0.69891c-0.386,0 -0.69891,-0.31291 -0.69891,-0.69891z" fill="#ffffff" stroke-width="0.5"/><path d="M362.65923,360.3177c0,-0.386 0.31291,-0.69891 0.69891,-0.69891c0.386,0 0.69891,0.31291 0.69891,0.69891c0,0.386 -0.31291,0.69891 -0.69891,0.69891c-0.386,0 -0.69891,-0.31291 -0.69891,-0.69891z" fill="#ffffff" stroke-width="0.5"/><path d="M412.19148,344.36664c0,-0.386 0.31291,-0.69891 0.69891,-0.69891c0.386,0 0.69891,0.31291 0.69891,0.69891c0,0.386 -0.31291,0.69891 -0.69891,0.69891c-0.386,0 -0.69891,-0.31291 -0.69891,-0.69891z" fill="#ffffff" stroke-width="0.5"/><path d="M513.77457,363.67582c0,-0.386 0.31291,-0.69891 0.69891,-0.69891c0.386,0 0.69891,0.31291 0.69891,0.69891c0,0.386 -0.31291,0.69891 -0.69891,0.69891c-0.386,0 -0.69891,-0.31291 -0.69891,-0.69891z" fill="#ffffff" stroke-width="0.5"/><path d="M512.93504,337.6504c0,-0.386 0.31291,-0.69891 0.69891,-0.69891c0.386,0 0.69891,0.31291 0.69891,0.69891c0,0.386 -0.31291,0.6989 -0.69891,0.6989c-0.386,0 -0.69891,-0.31291 -0.69891,-0.6989z" fill="#ffffff" stroke-width="0.5"/><path d="M577.57883,343.5271c0,-0.386 0.31291,-0.69891 0.69891,-0.69891c0.386,0 0.6989,0.31291 0.6989,0.69891c0,0.386 -0.31291,0.69891 -0.6989,0.69891c-0.386,0 -0.69891,-0.31291 -0.69891,-0.69891z" fill="#ffffff" stroke-width="0.5"/><path d="M595.20895,278.04379c0,-0.386 0.31291,-0.69891 0.69891,-0.69891c0.386,0 0.69891,0.31291 0.69891,0.69891c0,0.386 -0.31291,0.69891 -0.69891,0.69891c-0.386,0 -0.69891,-0.31291 -0.69891,-0.69891z" fill="#ffffff" stroke-width="0.5"/><path d="M554.91153,267.96943c0,-0.386 0.31291,-0.69891 0.6989,-0.69891c0.386,0 0.69891,0.31291 0.69891,0.69891c0,0.386 -0.31291,0.69891 -0.69891,0.69891c-0.386,0 -0.6989,-0.31291 -0.6989,-0.69891z" fill="#ffffff" stroke-width="0.5"/><path d="M585.97412,201.64659c0,-0.386 0.31291,-0.69891 0.69891,-0.69891c0.386,0 0.6989,0.31291 0.6989,0.69891c0,0.386 -0.31291,0.69891 -0.6989,0.69891c-0.386,0 -0.69891,-0.31291 -0.69891,-0.69891z" fill="#ffffff" stroke-width="0.5"/><path d="M559.94871,179.81882c0,-0.386 0.31291,-0.69891 0.6989,-0.69891c0.386,0 0.69891,0.31291 0.69891,0.69891c0,0.386 -0.31291,0.69891 -0.69891,0.69891c-0.386,0 -0.6989,-0.31291 -0.6989,-0.69891z" fill="#ffffff" stroke-width="0.5"/><path d="M-42.79579,382.21323v-238.42643h330.77469v238.42643z" fill="#000000" stroke-width="0"/><path d="M135.64937,180.97929c0,-0.386 0.31291,-0.6989 0.69891,-0.6989c0.386,0 0.69891,0.31291 0.69891,0.6989c0,0.38599 -0.31291,0.69891 -0.69891,0.69891c-0.386,0 -0.69891,-0.31292 -0.69891,-0.69891z" fill="#ffffff" stroke-width="0.5"/><path d="M196.93504,177.62117c0,-0.386 0.31291,-0.6989 0.69891,-0.6989c0.386,0 0.69891,0.3129 0.69891,0.6989c0,0.386 -0.31291,0.69891 -0.69891,0.69891c-0.386,0 -0.69891,-0.31291 -0.69891,-0.69891z" fill="#ffffff" stroke-width="0.5"/><path d="M226.31858,207.00471c0,-0.38599 0.31291,-0.69891 0.69891,-0.69891c0.386,0 0.69891,0.31292 0.69891,0.69891c0,0.386 -0.31291,0.6989 -0.69891,0.6989c-0.386,0 -0.69891,-0.31291 -0.69891,-0.6989z" fill="#ffffff" stroke-width="0.5"/><path d="M194.41646,251.49978c0,-0.386 0.31291,-0.6989 0.69891,-0.6989c0.386,0 0.69891,0.31291 0.69891,0.6989c0,0.386 -0.31291,0.69891 -0.69891,0.69891c-0.386,0 -0.69891,-0.31291 -0.69891,-0.69891z" fill="#ffffff" stroke-width="0.5"/><path d="M186.02115,222.11625c0,-0.38599 0.31291,-0.69891 0.69891,-0.69891c0.386,0 0.69891,0.31292 0.69891,0.69891c0,0.38599 -0.31291,0.69891 -0.69891,0.69891c-0.386,0 -0.69891,-0.31292 -0.69891,-0.69891z" fill="#ffffff" stroke-width="0.5"/><path d="M106.26584,222.11625c0,-0.38599 0.31291,-0.69891 0.69891,-0.69891c0.386,0 0.69891,0.31292 0.69891,0.69891c0,0.38599 -0.31291,0.69891 -0.69891,0.69891c-0.386,0 -0.69891,-0.31292 -0.69891,-0.69891z" fill="#ffffff" stroke-width="0.5"/><path d="M97.87054,187.69553c0,-0.386 0.31291,-0.69891 0.69891,-0.69891c0.386,0 0.6989,0.31291 0.6989,0.69891c0,0.386 -0.3129,0.6989 -0.6989,0.6989c-0.386,0 -0.69891,-0.31291 -0.69891,-0.6989z" fill="#ffffff" stroke-width="0.5"/><path d="M37.42441,207.00471c0,-0.38599 0.31291,-0.69891 0.6989,-0.69891c0.38599,0 0.69891,0.31292 0.69891,0.69891c0,0.386 -0.31292,0.6989 -0.69891,0.6989c-0.38599,0 -0.6989,-0.31291 -0.6989,-0.6989z" fill="#ffffff" stroke-width="0.5"/><path d="M45.8197,246.46261c0,-0.386 0.31292,-0.69891 0.69891,-0.69891c0.38599,0 0.69891,0.31291 0.69891,0.69891c0,0.386 -0.31291,0.69891 -0.69891,0.69891c-0.38599,0 -0.69891,-0.31291 -0.69891,-0.69891z" fill="#ffffff" stroke-width="0.5"/><path d="M104.58678,277.5252c0,-0.386 0.31291,-0.69891 0.69891,-0.69891c0.386,0 0.69891,0.31291 0.69891,0.69891c0,0.386 -0.31291,0.69891 -0.69891,0.69891c-0.386,0 -0.69891,-0.31291 -0.69891,-0.69891z" fill="#ffffff" stroke-width="0.5"/><path d="M23.1524,293.47627c0,-0.386 0.31292,-0.69891 0.69891,-0.69891c0.38599,0 0.6989,0.31291 0.6989,0.69891c0,0.386 -0.31291,0.69891 -0.6989,0.69891c-0.38599,0 -0.69891,-0.31291 -0.69891,-0.69891z" fill="#ffffff" stroke-width="0.5"/><path d="M34.06628,332.09463c0,-0.386 0.31292,-0.69891 0.69891,-0.69891c0.38599,0 0.69891,0.31291 0.69891,0.69891c0,0.386 -0.31292,0.69891 -0.69891,0.69891c-0.38599,0 -0.69891,-0.31291 -0.69891,-0.69891z" fill="#ffffff" stroke-width="0.5"/><path d="M82.75901,326.21792c0,-0.386 0.31291,-0.69891 0.69891,-0.69891c0.386,0 0.69891,0.31291 0.69891,0.69891c0,0.386 -0.31291,0.69891 -0.69891,0.69891c-0.386,0 -0.69891,-0.31291 -0.69891,-0.69891z" fill="#ffffff" stroke-width="0.5"/><path d="M143.20514,341.32945c0,-0.386 0.31291,-0.69891 0.69891,-0.69891c0.386,0 0.69891,0.31291 0.69891,0.69891c0,0.386 -0.31291,0.69891 -0.69891,0.69891c-0.386,0 -0.69891,-0.31291 -0.69891,-0.69891z" fill="#ffffff" stroke-width="0.5"/><path d="M227.15811,308.5878c0,-0.386 0.31291,-0.69891 0.69891,-0.69891c0.386,0 0.6989,0.31291 0.6989,0.69891c0,0.386 -0.31291,0.6989 -0.6989,0.6989c-0.386,0 -0.69891,-0.31291 -0.69891,-0.6989z" fill="#ffffff" stroke-width="0.5"/><path d="M170.07009,295.99486c0,-0.386 0.31291,-0.69891 0.69891,-0.69891c0.386,0 0.69891,0.31291 0.69891,0.69891c0,0.386 -0.31291,0.69891 -0.69891,0.69891c-0.386,0 -0.69891,-0.31291 -0.69891,-0.69891z" fill="#ffffff" stroke-width="0.5"/><path d="M157.47714,240.5859c0,-0.386 0.3129,-0.69891 0.6989,-0.69891c0.386,0 0.69891,0.31291 0.69891,0.69891c0,0.386 -0.31291,0.69891 -0.69891,0.69891c-0.386,0 -0.6989,-0.31291 -0.6989,-0.69891z" fill="#ffffff" stroke-width="0.5"/><path d="M84.43807,252.33931c0,-0.386 0.31291,-0.69891 0.69891,-0.69891c0.386,0 0.69891,0.31291 0.69891,0.69891c0,0.386 -0.31291,0.69891 -0.69891,0.69891c-0.386,0 -0.69891,-0.31291 -0.69891,-0.69891z" fill="#ffffff" stroke-width="0.5"/><path d="M50.01735,176.78165c0,-0.386 0.31291,-0.69891 0.69891,-0.69891c0.38599,0 0.69891,0.31291 0.69891,0.69891c0,0.386 -0.31292,0.6989 -0.69891,0.6989c-0.38599,0 -0.69891,-0.31291 -0.69891,-0.6989z" fill="#ffffff" stroke-width="0.5"/><path d="M10.55945,180.97929c0,-0.386 0.31291,-0.6989 0.69891,-0.6989c0.38599,0 0.69891,0.31291 0.69891,0.6989c0,0.38599 -0.31292,0.69891 -0.69891,0.69891c-0.38599,0 -0.69891,-0.31292 -0.69891,-0.69891z" fill="#ffffff" stroke-width="0.5"/><path d="M-2.0335,238.06731c0,-0.386 0.31291,-0.69891 0.69891,-0.69891c0.386,0 0.69891,0.31291 0.69891,0.69891c0,0.386 -0.31291,0.6989 -0.69891,0.6989c-0.386,0 -0.69891,-0.31291 -0.69891,-0.6989z" fill="#ffffff" stroke-width="0.5"/><path d="M-40.65186,248.14166c0,-0.386 0.31291,-0.69891 0.69891,-0.69891c0.386,0 0.69891,0.31291 0.69891,0.69891c0,0.386 -0.31291,0.69891 -0.69891,0.69891c-0.386,0 -0.69891,-0.31291 -0.69891,-0.69891z" fill="#ffffff" stroke-width="0.5"/><path d="M-6.23114,311.94592c0,-0.386 0.3129,-0.69891 0.6989,-0.69891c0.386,0 0.69891,0.31291 0.69891,0.69891c0,0.386 -0.31291,0.6989 -0.69891,0.6989c-0.386,0 -0.6989,-0.31291 -0.6989,-0.6989z" fill="#ffffff" stroke-width="0.5"/><path d="M-26.37986,341.32946c0,-0.386 0.31291,-0.69891 0.69891,-0.69891c0.386,0 0.69891,0.31291 0.69891,0.69891c0,0.386 -0.31291,0.69891 -0.69891,0.69891c-0.386,0 -0.69891,-0.31291 -0.69891,-0.69891z" fill="#ffffff" stroke-width="0.5"/><path d="M46.65923,362.3177c0,-0.386 0.31291,-0.69891 0.69891,-0.69891c0.386,0 0.69891,0.31291 0.69891,0.69891c0,0.386 -0.31291,0.69891 -0.69891,0.69891c-0.386,0 -0.69891,-0.31291 -0.69891,-0.69891z" fill="#ffffff" stroke-width="0.5"/><path d="M96.19148,346.36664c0,-0.386 0.31291,-0.69891 0.69891,-0.69891c0.386,0 0.69891,0.31291 0.69891,0.69891c0,0.386 -0.31291,0.69891 -0.69891,0.69891c-0.386,0 -0.69891,-0.31291 -0.69891,-0.69891z" fill="#ffffff" stroke-width="0.5"/><path d="M197.77457,365.67582c0,-0.386 0.31291,-0.69891 0.69891,-0.69891c0.386,0 0.69891,0.31291 0.69891,0.69891c0,0.386 -0.31291,0.69891 -0.69891,0.69891c-0.386,0 -0.69891,-0.31291 -0.69891,-0.69891z" fill="#ffffff" stroke-width="0.5"/><path d="M196.93504,339.6504c0,-0.386 0.31291,-0.69891 0.69891,-0.69891c0.386,0 0.69891,0.31291 0.69891,0.69891c0,0.386 -0.31291,0.6989 -0.69891,0.6989c-0.386,0 -0.69891,-0.31291 -0.69891,-0.6989z" fill="#ffffff" stroke-width="0.5"/><path d="M261.57883,345.5271c0,-0.386 0.31291,-0.69891 0.69891,-0.69891c0.386,0 0.6989,0.31291 0.6989,0.69891c0,0.386 -0.31291,0.69891 -0.6989,0.69891c-0.386,0 -0.69891,-0.31291 -0.69891,-0.69891z" fill="#ffffff" stroke-width="0.5"/><path d="M279.20895,280.04379c0,-0.386 0.31291,-0.69891 0.69891,-0.69891c0.386,0 0.69891,0.31291 0.69891,0.69891c0,0.386 -0.31291,0.69891 -0.69891,0.69891c-0.386,0 -0.69891,-0.31291 -0.69891,-0.69891z" fill="#ffffff" stroke-width="0.5"/><path d="M238.91153,269.96943c0,-0.386 0.31291,-0.69891 0.6989,-0.69891c0.386,0 0.69891,0.31291 0.69891,0.69891c0,0.386 -0.31291,0.69891 -0.69891,0.69891c-0.386,0 -0.6989,-0.31291 -0.6989,-0.69891z" fill="#ffffff" stroke-width="0.5"/><path d="M269.97412,203.64659c0,-0.386 0.31291,-0.69891 0.69891,-0.69891c0.386,0 0.6989,0.31291 0.6989,0.69891c0,0.386 -0.31291,0.69891 -0.6989,0.69891c-0.386,0 -0.69891,-0.31291 -0.69891,-0.69891z" fill="#ffffff" stroke-width="0.5"/><path d="M243.94871,181.81882c0,-0.386 0.31291,-0.69891 0.6989,-0.69891c0.386,0 0.69891,0.31291 0.69891,0.69891c0,0.386 -0.31291,0.69891 -0.69891,0.69891c-0.386,0 -0.6989,-0.31291 -0.6989,-0.69891z" fill="#ffffff" stroke-width="0.5"/><path d="M-12.43609,236.91886l-238.42405,-1.06633l1.47934,-330.77138l238.42405,1.06633z" data-paper-data="{&quot;index&quot;:null}" fill="#000000" stroke-width="0"/><path d="M-212.29097,95.39289c-0.00173,0.386 -0.31604,0.6975 -0.70203,0.69578c-0.38599,-0.00173 -0.6975,-0.31603 -0.69577,-0.70203c0.00173,-0.386 0.31603,-0.6975 0.70202,-0.69578c0.38599,0.00173 0.6975,0.31603 0.69578,0.70203z" data-paper-data="{&quot;index&quot;:null}" fill="#ffffff" stroke-width="0.5"/><path d="M-215.92314,156.66293c-0.00173,0.386 -0.31603,0.6975 -0.70203,0.69578c-0.386,-0.00173 -0.6975,-0.31603 -0.69577,-0.70203c0.00173,-0.386 0.31603,-0.6975 0.70202,-0.69577c0.386,0.00173 0.6975,0.31603 0.69578,0.70202z" data-paper-data="{&quot;index&quot;:null}" fill="#ffffff" stroke-width="0.5"/><path d="M-186.67132,186.17759c-0.00173,0.386 -0.31603,0.6975 -0.70202,0.69577c-0.38599,-0.00173 -0.6975,-0.31603 -0.69578,-0.70202c0.00173,-0.386 0.31604,-0.6975 0.70203,-0.69578c0.38599,0.00173 0.6975,0.31603 0.69577,0.70203z" data-paper-data="{&quot;index&quot;:null}" fill="#ffffff" stroke-width="0.5"/><path d="M-142.034,154.47478c-0.00173,0.386 -0.31603,0.6975 -0.70203,0.69578c-0.386,-0.00173 -0.6975,-0.31603 -0.69577,-0.70203c0.00173,-0.386 0.31603,-0.6975 0.70202,-0.69578c0.386,0.00173 0.6975,0.31603 0.69578,0.70203z" data-paper-data="{&quot;index&quot;:null}" fill="#ffffff" stroke-width="0.5"/><path d="M-171.3797,145.94815c-0.00173,0.386 -0.31604,0.6975 -0.70203,0.69578c-0.38599,-0.00173 -0.6975,-0.31603 -0.69578,-0.70203c0.00173,-0.386 0.31604,-0.6975 0.70203,-0.69578c0.38599,0.00173 0.6975,0.31603 0.69578,0.70203z" data-paper-data="{&quot;index&quot;:null}" fill="#ffffff" stroke-width="0.5"/><path d="M-171.023,66.19364c-0.00173,0.386 -0.31604,0.6975 -0.70203,0.69577c-0.38599,-0.00173 -0.6975,-0.31603 -0.69578,-0.70202c0.00173,-0.386 0.31604,-0.6975 0.70203,-0.69578c0.38599,0.00173 0.6975,0.31603 0.69578,0.70203z" data-paper-data="{&quot;index&quot;:null}" fill="#ffffff" stroke-width="0.5"/><path d="M-205.40583,57.64448c-0.00173,0.386 -0.31603,0.6975 -0.70202,0.69577c-0.38599,-0.00173 -0.6975,-0.31603 -0.69578,-0.70202c0.00173,-0.386 0.31604,-0.6975 0.70203,-0.69578c0.38599,0.00173 0.6975,0.31603 0.69577,0.70203z" data-paper-data="{&quot;index&quot;:null}" fill="#ffffff" stroke-width="0.5"/><path d="M-185.82652,-2.7147c-0.00173,0.38599 -0.31603,0.6975 -0.70202,0.69578c-0.38599,-0.00173 -0.6975,-0.31604 -0.69578,-0.70203c0.00173,-0.38599 0.31604,-0.6975 0.70203,-0.69577c0.38599,0.00173 0.6975,0.31603 0.69577,0.70202z" data-paper-data="{&quot;index&quot;:null}" fill="#ffffff" stroke-width="0.5"/><path d="M-146.40656,5.85699c-0.00173,0.38599 -0.31603,0.6975 -0.70202,0.69578c-0.386,-0.00173 -0.6975,-0.31604 -0.69578,-0.70203c0.00173,-0.38599 0.31603,-0.6975 0.70203,-0.69578c0.386,0.00173 0.6975,0.31604 0.69577,0.70203z" data-paper-data="{&quot;index&quot;:null}" fill="#ffffff" stroke-width="0.5"/><path d="M-115.60709,64.7624c-0.00173,0.386 -0.31603,0.6975 -0.70202,0.69578c-0.386,-0.00173 -0.6975,-0.31603 -0.69578,-0.70203c0.00173,-0.386 0.31603,-0.6975 0.70203,-0.69578c0.386,0.00173 0.6975,0.31603 0.69577,0.70203z" data-paper-data="{&quot;index&quot;:null}" fill="#ffffff" stroke-width="0.5"/><path d="M-99.29199,-27.59983c-0.00173,0.38599 -0.31603,0.6975 -0.70202,0.69577c-0.386,-0.00173 -0.6975,-0.31603 -0.69578,-0.70202c0.00173,-0.38599 0.31603,-0.6975 0.70203,-0.69578c0.386,0.00173 0.6975,0.31604 0.69577,0.70203z" data-paper-data="{&quot;index&quot;:null}" fill="#ffffff" stroke-width="0.5"/><path d="M-60.72282,-16.51334c-0.00173,0.38599 -0.31603,0.6975 -0.70202,0.69578c-0.386,-0.00173 -0.6975,-0.31604 -0.69578,-0.70203c0.00173,-0.38599 0.31603,-0.6975 0.70203,-0.69578c0.386,0.00173 0.6975,0.31604 0.69577,0.70203z" data-paper-data="{&quot;index&quot;:null}" fill="#ffffff" stroke-width="0.5"/><path d="M-66.81724,32.15262c-0.00173,0.386 -0.31603,0.6975 -0.70203,0.69577c-0.386,-0.00173 -0.6975,-0.31603 -0.69578,-0.70202c0.00173,-0.386 0.31603,-0.6975 0.70203,-0.69578c0.386,0.00173 0.6975,0.31603 0.69578,0.70203z" data-paper-data="{&quot;index&quot;:null}" fill="#ffffff" stroke-width="0.5"/><path d="M-51.9762,92.66573c-0.00173,0.386 -0.31603,0.6975 -0.70203,0.69578c-0.386,-0.00173 -0.6975,-0.31603 -0.69577,-0.70203c0.00173,-0.386 0.31603,-0.6975 0.70202,-0.69578c0.386,0.00173 0.6975,0.31603 0.69578,0.70203z" data-paper-data="{&quot;index&quot;:null}" fill="#ffffff" stroke-width="0.5"/><path d="M-85.09299,176.47143c-0.00173,0.386 -0.31603,0.6975 -0.70202,0.69577c-0.386,-0.00173 -0.6975,-0.31603 -0.69578,-0.70202c0.00173,-0.386 0.31603,-0.6975 0.70203,-0.69578c0.386,0.00173 0.6975,0.31603 0.69577,0.70203z" data-paper-data="{&quot;index&quot;:null}" fill="#ffffff" stroke-width="0.5"/><path d="M-97.43049,119.32766c-0.00173,0.386 -0.31603,0.6975 -0.70203,0.69578c-0.386,-0.00173 -0.6975,-0.31603 -0.69578,-0.70203c0.00173,-0.386 0.31603,-0.6975 0.70203,-0.69578c0.386,0.00173 0.6975,0.31603 0.69578,0.70203z" data-paper-data="{&quot;index&quot;:null}" fill="#ffffff" stroke-width="0.5"/><path d="M-152.78257,117.48703c-0.00173,0.386 -0.31603,0.6975 -0.70203,0.69578c-0.386,-0.00173 -0.6975,-0.31603 -0.69578,-0.70203c0.00173,-0.386 0.31603,-0.6975 0.70203,-0.69577c0.386,0.00173 0.6975,0.31603 0.69578,0.70202z" data-paper-data="{&quot;index&quot;:null}" fill="#ffffff" stroke-width="0.5"/><path d="M-140.70262,44.50125c-0.00173,0.386 -0.31603,0.6975 -0.70203,0.69578c-0.386,-0.00173 -0.6975,-0.31603 -0.69578,-0.70203c0.00173,-0.386 0.31603,-0.6975 0.70203,-0.69578c0.386,0.00173 0.6975,0.31603 0.69578,0.70203z" data-paper-data="{&quot;index&quot;:null}" fill="#ffffff" stroke-width="0.5"/><path d="M-216.10559,9.74296c-0.00173,0.38599 -0.31603,0.6975 -0.70202,0.69578c-0.386,-0.00173 -0.6975,-0.31604 -0.69578,-0.70203c0.00173,-0.38599 0.31603,-0.6975 0.70203,-0.69578c0.386,0.00173 0.6975,0.31604 0.69577,0.70203z" data-paper-data="{&quot;index&quot;:null}" fill="#ffffff" stroke-width="0.5"/><path d="M-211.73152,-29.69578c-0.00173,0.38599 -0.31604,0.6975 -0.70203,0.69578c-0.38599,-0.00173 -0.6975,-0.31604 -0.69577,-0.70203c0.00173,-0.38599 0.31603,-0.6975 0.70202,-0.69578c0.38599,0.00173 0.6975,0.31604 0.69578,0.70203z" data-paper-data="{&quot;index&quot;:null}" fill="#ffffff" stroke-width="0.5"/><path d="M-154.58776,-42.03328c-0.00173,0.386 -0.31603,0.6975 -0.70202,0.69578c-0.386,-0.00173 -0.6975,-0.31603 -0.69578,-0.70203c0.00173,-0.386 0.31603,-0.6975 0.70203,-0.69578c0.386,0.00173 0.6975,0.31603 0.69577,0.70203z" data-paper-data="{&quot;index&quot;:null}" fill="#ffffff" stroke-width="0.5"/><path d="M-144.34078,-80.6062c-0.00173,0.386 -0.31603,0.6975 -0.70203,0.69578c-0.386,-0.00173 -0.6975,-0.31603 -0.69578,-0.70203c0.00173,-0.386 0.31603,-0.6975 0.70203,-0.69578c0.386,0.00173 0.6975,0.31603 0.69578,0.70203z" data-paper-data="{&quot;index&quot;:null}" fill="#ffffff" stroke-width="0.5"/><path d="M-80.69111,-56.90047c-0.00173,0.386 -0.31603,0.6975 -0.70202,0.69578c-0.386,-0.00173 -0.6975,-0.31603 -0.69578,-0.70203c0.00173,-0.386 0.31603,-0.6975 0.70203,-0.69577c0.386,0.00173 0.6975,0.31603 0.69577,0.70202z" data-paper-data="{&quot;index&quot;:null}" fill="#ffffff" stroke-width="0.5"/><path d="M-51.21775,-76.91757c-0.00173,0.386 -0.31603,0.6975 -0.70203,0.69578c-0.386,-0.00173 -0.6975,-0.31603 -0.69577,-0.70203c0.00173,-0.386 0.31603,-0.6975 0.70202,-0.69577c0.386,0.00173 0.6975,0.31603 0.69578,0.70202z" data-paper-data="{&quot;index&quot;:null}" fill="#ffffff" stroke-width="0.5"/><path d="M-30.55637,7.21465c-0.00173,0.386 -0.31603,0.6975 -0.70203,0.69577c-0.386,-0.00173 -0.6975,-0.31603 -0.69578,-0.70202c0.00173,-0.386 0.31603,-0.6975 0.70203,-0.69578c0.386,0.00173 0.6975,0.31603 0.69578,0.70203z" data-paper-data="{&quot;index&quot;:null}" fill="#ffffff" stroke-width="0.5"/><path d="M-46.7288,45.67507c-0.00173,0.386 -0.31603,0.6975 -0.70203,0.69578c-0.386,-0.00173 -0.6975,-0.31603 -0.69578,-0.70203c0.00173,-0.386 0.31603,-0.6975 0.70203,-0.69578c0.386,0.00173 0.6975,0.31603 0.69578,0.70203z" data-paper-data="{&quot;index&quot;:null}" fill="#ffffff" stroke-width="0.5"/><path d="M-27.87412,158.3435c-0.00173,0.386 -0.31603,0.6975 -0.70203,0.69578c-0.386,-0.00173 -0.6975,-0.31603 -0.69578,-0.70203c0.00173,-0.386 0.31603,-0.6975 0.70203,-0.69578c0.386,0.00173 0.6975,0.31603 0.69578,0.70203z" data-paper-data="{&quot;index&quot;:null}" fill="#ffffff" stroke-width="0.5"/><path d="M-53.89554,146.38758c-0.00173,0.386 -0.31603,0.6975 -0.70202,0.69578c-0.386,-0.00173 -0.6975,-0.31603 -0.69578,-0.70203c0.00173,-0.386 0.31603,-0.6975 0.70203,-0.69577c0.386,0.00173 0.6975,0.31603 0.69577,0.70202z" data-paper-data="{&quot;index&quot;:null}" fill="#ffffff" stroke-width="0.5"/><path d="M-48.308,211.057c-0.00173,0.386 -0.31603,0.6975 -0.70203,0.69577c-0.386,-0.00173 -0.6975,-0.31603 -0.69578,-0.70202c0.00173,-0.386 0.31603,-0.6975 0.70203,-0.69578c0.386,0.00173 0.6975,0.31603 0.69578,0.70203z" data-paper-data="{&quot;index&quot;:null}" fill="#ffffff" stroke-width="0.5"/><path d="M-113.8695,239.39409c-0.00173,0.386 -0.31603,0.6975 -0.70203,0.69578c-0.386,-0.00173 -0.6975,-0.31603 -0.69578,-0.70203c0.00173,-0.386 0.31603,-0.6975 0.70203,-0.69577c0.386,0.00173 0.6975,0.31603 0.69578,0.70202z" data-paper-data="{&quot;index&quot;:null}" fill="#ffffff" stroke-width="0.5"/><path d="M-123.76354,199.05201c-0.00173,0.386 -0.31603,0.6975 -0.70202,0.69578c-0.386,-0.00173 -0.6975,-0.31603 -0.69578,-0.70203c0.00173,-0.386 0.31603,-0.6975 0.70203,-0.69577c0.386,0.00173 0.6975,0.31603 0.69577,0.70202z" data-paper-data="{&quot;index&quot;:null}" fill="#ffffff" stroke-width="0.5"/><path d="M-190.22464,229.81768c-0.00173,0.386 -0.31603,0.6975 -0.70202,0.69577c-0.386,-0.00173 -0.6975,-0.31603 -0.69578,-0.70202c0.00173,-0.386 0.31603,-0.6975 0.70203,-0.69578c0.386,0.00173 0.6975,0.31603 0.69577,0.70203z" data-paper-data="{&quot;index&quot;:null}" fill="#ffffff" stroke-width="0.5"/><path d="M-211.9358,203.69489c-0.00173,0.386 -0.31603,0.6975 -0.70203,0.69578c-0.386,-0.00173 -0.6975,-0.31603 -0.69578,-0.70203c0.00173,-0.386 0.31603,-0.6975 0.70203,-0.69577c0.386,0.00173 0.6975,0.31603 0.69578,0.70202z" data-paper-data="{&quot;index&quot;:null}" fill="#ffffff" stroke-width="0.5"/><path d="M28.20421,298.21322v-238.42643h330.77469v238.42643z" fill="#000000" stroke-width="0"/><path d="M206.64937,96.97928c0,-0.386 0.31291,-0.6989 0.69891,-0.6989c0.386,0 0.69891,0.31291 0.69891,0.6989c0,0.38599 -0.31291,0.69891 -0.69891,0.69891c-0.386,0 -0.69891,-0.31292 -0.69891,-0.69891z" fill="#ffffff" stroke-width="0.5"/><path d="M267.93504,93.62117c0,-0.386 0.31291,-0.6989 0.69891,-0.6989c0.386,0 0.69891,0.3129 0.69891,0.6989c0,0.386 -0.31291,0.69891 -0.69891,0.69891c-0.386,0 -0.69891,-0.31291 -0.69891,-0.69891z" fill="#ffffff" stroke-width="0.5"/><path d="M297.31858,123.00471c0,-0.38599 0.31291,-0.69891 0.69891,-0.69891c0.386,0 0.69891,0.31292 0.69891,0.69891c0,0.386 -0.31291,0.6989 -0.69891,0.6989c-0.386,0 -0.69891,-0.31291 -0.69891,-0.6989z" fill="#ffffff" stroke-width="0.5"/><path d="M265.41646,167.49978c0,-0.386 0.31291,-0.69891 0.69891,-0.69891c0.386,0 0.69891,0.31291 0.69891,0.69891c0,0.386 -0.31291,0.69891 -0.69891,0.69891c-0.386,0 -0.69891,-0.31291 -0.69891,-0.69891z" fill="#ffffff" stroke-width="0.5"/><path d="M257.02115,138.11625c0,-0.386 0.31291,-0.69891 0.69891,-0.69891c0.386,0 0.69891,0.31292 0.69891,0.69891c0,0.386 -0.31291,0.69891 -0.69891,0.69891c-0.386,0 -0.69891,-0.31292 -0.69891,-0.69891z" fill="#ffffff" stroke-width="0.5"/><path d="M177.26584,138.11625c0,-0.386 0.31291,-0.69891 0.69891,-0.69891c0.386,0 0.69891,0.31292 0.69891,0.69891c0,0.386 -0.31291,0.69891 -0.69891,0.69891c-0.386,0 -0.69891,-0.31292 -0.69891,-0.69891z" fill="#ffffff" stroke-width="0.5"/><path d="M168.87054,103.69553c0,-0.386 0.31291,-0.69891 0.69891,-0.69891c0.386,0 0.6989,0.31291 0.6989,0.69891c0,0.386 -0.3129,0.6989 -0.6989,0.6989c-0.386,0 -0.69891,-0.31291 -0.69891,-0.6989z" fill="#ffffff" stroke-width="0.5"/><path d="M108.42441,123.00471c0,-0.38599 0.31291,-0.69891 0.6989,-0.69891c0.38599,0 0.69891,0.31292 0.69891,0.69891c0,0.386 -0.31292,0.6989 -0.69891,0.6989c-0.38599,0 -0.6989,-0.31291 -0.6989,-0.6989z" fill="#ffffff" stroke-width="0.5"/><path d="M116.8197,162.46261c0,-0.386 0.31292,-0.69891 0.69891,-0.69891c0.38599,0 0.69891,0.31291 0.69891,0.69891c0,0.386 -0.31291,0.69891 -0.69891,0.69891c-0.38599,0 -0.69891,-0.31291 -0.69891,-0.69891z" fill="#ffffff" stroke-width="0.5"/><path d="M175.58678,193.52521c0,-0.386 0.31291,-0.69891 0.69891,-0.69891c0.386,0 0.69891,0.31291 0.69891,0.69891c0,0.386 -0.31291,0.69891 -0.69891,0.69891c-0.386,0 -0.69891,-0.31291 -0.69891,-0.69891z" fill="#ffffff" stroke-width="0.5"/><path d="M94.1524,209.47627c0,-0.386 0.31292,-0.69891 0.69891,-0.69891c0.38599,0 0.6989,0.31291 0.6989,0.69891c0,0.386 -0.31291,0.69891 -0.6989,0.69891c-0.38599,0 -0.69891,-0.31291 -0.69891,-0.69891z" fill="#ffffff" stroke-width="0.5"/><path d="M105.06629,248.09463c0,-0.386 0.31292,-0.69891 0.69891,-0.69891c0.38599,0 0.69891,0.31291 0.69891,0.69891c0,0.386 -0.31292,0.69891 -0.69891,0.69891c-0.38599,0 -0.69891,-0.31291 -0.69891,-0.69891z" fill="#ffffff" stroke-width="0.5"/><path d="M153.75901,242.21792c0,-0.386 0.31291,-0.69891 0.69891,-0.69891c0.386,0 0.69891,0.31291 0.69891,0.69891c0,0.386 -0.31291,0.69891 -0.69891,0.69891c-0.386,0 -0.69891,-0.31291 -0.69891,-0.69891z" fill="#ffffff" stroke-width="0.5"/><path d="M214.20515,257.32945c0,-0.386 0.31291,-0.69891 0.69891,-0.69891c0.386,0 0.69891,0.31291 0.69891,0.69891c0,0.386 -0.31291,0.69891 -0.69891,0.69891c-0.386,0 -0.69891,-0.31291 -0.69891,-0.69891z" fill="#ffffff" stroke-width="0.5"/><path d="M298.15811,224.5878c0,-0.386 0.31291,-0.69891 0.69891,-0.69891c0.386,0 0.6989,0.31291 0.6989,0.69891c0,0.386 -0.31291,0.6989 -0.6989,0.6989c-0.386,0 -0.69891,-0.31291 -0.69891,-0.6989z" fill="#ffffff" stroke-width="0.5"/><path d="M241.07009,211.99486c0,-0.386 0.31291,-0.69891 0.69891,-0.69891c0.386,0 0.69891,0.31291 0.69891,0.69891c0,0.386 -0.31291,0.69891 -0.69891,0.69891c-0.386,0 -0.69891,-0.31291 -0.69891,-0.69891z" fill="#ffffff" stroke-width="0.5"/><path d="M228.47714,156.5859c0,-0.386 0.3129,-0.69891 0.6989,-0.69891c0.386,0 0.69891,0.31291 0.69891,0.69891c0,0.386 -0.31291,0.69891 -0.69891,0.69891c-0.386,0 -0.6989,-0.31291 -0.6989,-0.69891z" fill="#ffffff" stroke-width="0.5"/><path d="M155.43807,168.33931c0,-0.386 0.31291,-0.69891 0.69891,-0.69891c0.386,0 0.69891,0.31291 0.69891,0.69891c0,0.386 -0.31291,0.69891 -0.69891,0.69891c-0.386,0 -0.69891,-0.31291 -0.69891,-0.69891z" fill="#ffffff" stroke-width="0.5"/><path d="M121.01735,92.78165c0,-0.386 0.31291,-0.69891 0.69891,-0.69891c0.38599,0 0.69891,0.31291 0.69891,0.69891c0,0.386 -0.31292,0.6989 -0.69891,0.6989c-0.38599,0 -0.69891,-0.31291 -0.69891,-0.6989z" fill="#ffffff" stroke-width="0.5"/><path d="M81.55945,96.97928c0,-0.386 0.31291,-0.6989 0.69891,-0.6989c0.38599,0 0.69891,0.31291 0.69891,0.6989c0,0.38599 -0.31292,0.69891 -0.69891,0.69891c-0.38599,0 -0.69891,-0.31292 -0.69891,-0.69891z" fill="#ffffff" stroke-width="0.5"/><path d="M68.9665,154.06731c0,-0.386 0.31291,-0.69891 0.69891,-0.69891c0.386,0 0.69891,0.31291 0.69891,0.69891c0,0.386 -0.31291,0.6989 -0.69891,0.6989c-0.386,0 -0.69891,-0.31291 -0.69891,-0.6989z" fill="#ffffff" stroke-width="0.5"/><path d="M30.34814,164.14166c0,-0.386 0.31291,-0.69891 0.69891,-0.69891c0.386,0 0.69891,0.31291 0.69891,0.69891c0,0.386 -0.31291,0.69891 -0.69891,0.69891c-0.386,0 -0.69891,-0.31291 -0.69891,-0.69891z" fill="#ffffff" stroke-width="0.5"/><path d="M64.76886,227.94592c0,-0.386 0.3129,-0.69891 0.6989,-0.69891c0.386,0 0.69891,0.31291 0.69891,0.69891c0,0.386 -0.31291,0.6989 -0.69891,0.6989c-0.386,0 -0.6989,-0.31291 -0.6989,-0.6989z" fill="#ffffff" stroke-width="0.5"/><path d="M44.62014,257.32946c0,-0.386 0.31291,-0.69891 0.69891,-0.69891c0.386,0 0.69891,0.31291 0.69891,0.69891c0,0.386 -0.31291,0.69891 -0.69891,0.69891c-0.386,0 -0.69891,-0.31291 -0.69891,-0.69891z" fill="#ffffff" stroke-width="0.5"/><path d="M117.65923,278.3177c0,-0.386 0.31291,-0.69891 0.69891,-0.69891c0.386,0 0.69891,0.31291 0.69891,0.69891c0,0.386 -0.31291,0.69891 -0.69891,0.69891c-0.386,0 -0.69891,-0.31291 -0.69891,-0.69891z" fill="#ffffff" stroke-width="0.5"/><path d="M167.19148,262.36663c0,-0.386 0.31291,-0.69891 0.69891,-0.69891c0.386,0 0.69891,0.31291 0.69891,0.69891c0,0.386 -0.31291,0.69891 -0.69891,0.69891c-0.386,0 -0.69891,-0.31291 -0.69891,-0.69891z" fill="#ffffff" stroke-width="0.5"/><path d="M268.77457,281.67582c0,-0.386 0.31291,-0.69891 0.69891,-0.69891c0.386,0 0.69891,0.31291 0.69891,0.69891c0,0.386 -0.31291,0.69891 -0.69891,0.69891c-0.386,0 -0.69891,-0.31291 -0.69891,-0.69891z" fill="#ffffff" stroke-width="0.5"/><path d="M267.93504,255.6504c0,-0.386 0.31291,-0.69891 0.69891,-0.69891c0.386,0 0.69891,0.31291 0.69891,0.69891c0,0.386 -0.31291,0.6989 -0.69891,0.6989c-0.386,0 -0.69891,-0.31291 -0.69891,-0.6989z" fill="#ffffff" stroke-width="0.5"/><path d="M332.57883,261.5271c0,-0.386 0.31291,-0.69891 0.69891,-0.69891c0.386,0 0.6989,0.31291 0.6989,0.69891c0,0.386 -0.31291,0.69891 -0.6989,0.69891c-0.386,0 -0.69891,-0.31291 -0.69891,-0.69891z" fill="#ffffff" stroke-width="0.5"/><path d="M350.20895,196.04379c0,-0.386 0.31291,-0.69891 0.69891,-0.69891c0.386,0 0.69891,0.31291 0.69891,0.69891c0,0.386 -0.31291,0.69891 -0.69891,0.69891c-0.386,0 -0.69891,-0.31291 -0.69891,-0.69891z" fill="#ffffff" stroke-width="0.5"/><path d="M309.91153,185.96943c0,-0.386 0.31291,-0.69891 0.6989,-0.69891c0.386,0 0.69891,0.31291 0.69891,0.69891c0,0.386 -0.31291,0.69891 -0.69891,0.69891c-0.386,0 -0.6989,-0.31291 -0.6989,-0.69891z" fill="#ffffff" stroke-width="0.5"/><path d="M340.97412,119.64659c0,-0.386 0.31291,-0.69891 0.69891,-0.69891c0.386,0 0.6989,0.31291 0.6989,0.69891c0,0.386 -0.31291,0.69891 -0.6989,0.69891c-0.386,0 -0.69891,-0.31291 -0.69891,-0.69891z" fill="#ffffff" stroke-width="0.5"/><path d="M314.94871,97.81882c0,-0.386 0.31291,-0.69891 0.6989,-0.69891c0.386,0 0.69891,0.31291 0.69891,0.69891c0,0.386 -0.31291,0.69891 -0.69891,0.69891c-0.386,0 -0.6989,-0.31291 -0.6989,-0.69891z" fill="#ffffff" stroke-width="0.5"/><path d="M-170.79579,481.21323v-238.42643h330.77469v238.42643z" fill="#000000" stroke-width="0"/><path d="M7.64937,279.97928c0,-0.38599 0.31291,-0.6989 0.69891,-0.6989c0.386,0 0.69891,0.31291 0.69891,0.6989c0,0.38599 -0.31291,0.69891 -0.69891,0.69891c-0.386,0 -0.69891,-0.31292 -0.69891,-0.69891z" fill="#ffffff" stroke-width="0.5"/><path d="M68.93504,276.62117c0,-0.386 0.31291,-0.6989 0.69891,-0.6989c0.386,0 0.69891,0.3129 0.69891,0.6989c0,0.386 -0.31291,0.69891 -0.69891,0.69891c-0.386,0 -0.69891,-0.31291 -0.69891,-0.69891z" fill="#ffffff" stroke-width="0.5"/><path d="M98.31858,306.00471c0,-0.386 0.31291,-0.69891 0.69891,-0.69891c0.386,0 0.69891,0.31291 0.69891,0.69891c0,0.386 -0.31291,0.69891 -0.69891,0.69891c-0.386,0 -0.69891,-0.31291 -0.69891,-0.69891z" fill="#ffffff" stroke-width="0.5"/><path d="M66.41646,350.49978c0,-0.386 0.31291,-0.69891 0.69891,-0.69891c0.386,0 0.69891,0.31291 0.69891,0.69891c0,0.386 -0.31291,0.69891 -0.69891,0.69891c-0.386,0 -0.69891,-0.31291 -0.69891,-0.69891z" fill="#ffffff" stroke-width="0.5"/><path d="M58.02115,321.11625c0,-0.386 0.31291,-0.69891 0.69891,-0.69891c0.386,0 0.69891,0.31291 0.69891,0.69891c0,0.386 -0.31291,0.69891 -0.69891,0.69891c-0.386,0 -0.69891,-0.31291 -0.69891,-0.69891z" fill="#ffffff" stroke-width="0.5"/><path d="M-21.73416,321.11625c0,-0.386 0.31291,-0.69891 0.69891,-0.69891c0.386,0 0.69891,0.31291 0.69891,0.69891c0,0.386 -0.31291,0.69891 -0.69891,0.69891c-0.386,0 -0.69891,-0.31291 -0.69891,-0.69891z" fill="#ffffff" stroke-width="0.5"/><path d="M-30.12946,286.69553c0,-0.386 0.31291,-0.69891 0.69891,-0.69891c0.386,0 0.6989,0.31291 0.6989,0.69891c0,0.386 -0.3129,0.69891 -0.6989,0.69891c-0.386,0 -0.69891,-0.31291 -0.69891,-0.69891z" fill="#ffffff" stroke-width="0.5"/><path d="M-90.57559,306.00471c0,-0.386 0.31291,-0.69891 0.6989,-0.69891c0.38599,0 0.69891,0.31291 0.69891,0.69891c0,0.386 -0.31292,0.69891 -0.69891,0.69891c-0.38599,0 -0.6989,-0.31291 -0.6989,-0.69891z" fill="#ffffff" stroke-width="0.5"/><path d="M-82.1803,345.46261c0,-0.386 0.31292,-0.69891 0.69891,-0.69891c0.38599,0 0.69891,0.31291 0.69891,0.69891c0,0.386 -0.31291,0.69891 -0.69891,0.69891c-0.38599,0 -0.69891,-0.31291 -0.69891,-0.69891z" fill="#ffffff" stroke-width="0.5"/><path d="M-23.41322,376.52521c0,-0.386 0.31291,-0.69891 0.69891,-0.69891c0.386,0 0.69891,0.31291 0.69891,0.69891c0,0.386 -0.31291,0.69891 -0.69891,0.69891c-0.386,0 -0.69891,-0.31291 -0.69891,-0.69891z" fill="#ffffff" stroke-width="0.5"/><path d="M-104.8476,392.47627c0,-0.386 0.31292,-0.69891 0.69891,-0.69891c0.38599,0 0.6989,0.31291 0.6989,0.69891c0,0.386 -0.31291,0.69891 -0.6989,0.69891c-0.38599,0 -0.69891,-0.31291 -0.69891,-0.69891z" fill="#ffffff" stroke-width="0.5"/><path d="M-93.93371,431.09463c0,-0.386 0.31292,-0.69891 0.69891,-0.69891c0.38599,0 0.69891,0.31291 0.69891,0.69891c0,0.386 -0.31292,0.69891 -0.69891,0.69891c-0.38599,0 -0.69891,-0.31291 -0.69891,-0.69891z" fill="#ffffff" stroke-width="0.5"/><path d="M-45.24099,425.21792c0,-0.386 0.31291,-0.69891 0.69891,-0.69891c0.386,0 0.69891,0.31291 0.69891,0.69891c0,0.386 -0.31291,0.69891 -0.69891,0.69891c-0.386,0 -0.69891,-0.31291 -0.69891,-0.69891z" fill="#ffffff" stroke-width="0.5"/><path d="M15.20514,440.32945c0,-0.386 0.31291,-0.69891 0.69891,-0.69891c0.386,0 0.69891,0.31291 0.69891,0.69891c0,0.386 -0.31291,0.69891 -0.69891,0.69891c-0.386,0 -0.69891,-0.31291 -0.69891,-0.69891z" fill="#ffffff" stroke-width="0.5"/><path d="M99.15811,407.5878c0,-0.386 0.31291,-0.69891 0.69891,-0.69891c0.386,0 0.6989,0.31291 0.6989,0.69891c0,0.386 -0.31291,0.6989 -0.6989,0.6989c-0.386,0 -0.69891,-0.31291 -0.69891,-0.6989z" fill="#ffffff" stroke-width="0.5"/><path d="M42.07009,394.99486c0,-0.386 0.31291,-0.69891 0.69891,-0.69891c0.386,0 0.69891,0.31291 0.69891,0.69891c0,0.386 -0.31291,0.69891 -0.69891,0.69891c-0.386,0 -0.69891,-0.31291 -0.69891,-0.69891z" fill="#ffffff" stroke-width="0.5"/><path d="M29.47714,339.5859c0,-0.386 0.3129,-0.69891 0.6989,-0.69891c0.386,0 0.69891,0.31291 0.69891,0.69891c0,0.386 -0.31291,0.69891 -0.69891,0.69891c-0.386,0 -0.6989,-0.31291 -0.6989,-0.69891z" fill="#ffffff" stroke-width="0.5"/><path d="M-43.56194,351.33931c0,-0.386 0.31291,-0.69891 0.69891,-0.69891c0.386,0 0.69891,0.31291 0.69891,0.69891c0,0.386 -0.31291,0.69891 -0.69891,0.69891c-0.386,0 -0.69891,-0.31291 -0.69891,-0.69891z" fill="#ffffff" stroke-width="0.5"/><path d="M-77.98265,275.78164c0,-0.386 0.31291,-0.69891 0.69891,-0.69891c0.38599,0 0.69891,0.31291 0.69891,0.69891c0,0.386 -0.31292,0.69891 -0.69891,0.69891c-0.38599,0 -0.69891,-0.31291 -0.69891,-0.69891z" fill="#ffffff" stroke-width="0.5"/><path d="M-117.44055,279.97928c0,-0.38599 0.31291,-0.6989 0.69891,-0.6989c0.38599,0 0.69891,0.31291 0.69891,0.6989c0,0.38599 -0.31292,0.69891 -0.69891,0.69891c-0.38599,0 -0.69891,-0.31292 -0.69891,-0.69891z" fill="#ffffff" stroke-width="0.5"/><path d="M-130.0335,337.06731c0,-0.386 0.31291,-0.69891 0.69891,-0.69891c0.386,0 0.69891,0.31291 0.69891,0.69891c0,0.386 -0.31291,0.69891 -0.69891,0.69891c-0.386,0 -0.69891,-0.31291 -0.69891,-0.69891z" fill="#ffffff" stroke-width="0.5"/><path d="M-168.65186,347.14166c0,-0.386 0.31291,-0.69891 0.69891,-0.69891c0.386,0 0.69891,0.31291 0.69891,0.69891c0,0.386 -0.31291,0.69891 -0.69891,0.69891c-0.386,0 -0.69891,-0.31291 -0.69891,-0.69891z" fill="#ffffff" stroke-width="0.5"/><path d="M-134.23114,410.94592c0,-0.386 0.3129,-0.69891 0.6989,-0.69891c0.386,0 0.69891,0.31291 0.69891,0.69891c0,0.386 -0.31291,0.6989 -0.69891,0.6989c-0.386,0 -0.6989,-0.31291 -0.6989,-0.6989z" fill="#ffffff" stroke-width="0.5"/><path d="M-154.37986,440.32946c0,-0.386 0.31291,-0.69891 0.69891,-0.69891c0.386,0 0.69891,0.31291 0.69891,0.69891c0,0.386 -0.31291,0.69891 -0.69891,0.69891c-0.386,0 -0.69891,-0.31291 -0.69891,-0.69891z" fill="#ffffff" stroke-width="0.5"/><path d="M-81.34077,461.3177c0,-0.386 0.31291,-0.69891 0.69891,-0.69891c0.386,0 0.69891,0.31291 0.69891,0.69891c0,0.386 -0.31291,0.69891 -0.69891,0.69891c-0.386,0 -0.69891,-0.31291 -0.69891,-0.69891z" fill="#ffffff" stroke-width="0.5"/><path d="M-31.80852,445.36664c0,-0.386 0.31291,-0.69891 0.69891,-0.69891c0.386,0 0.69891,0.31291 0.69891,0.69891c0,0.386 -0.31291,0.69891 -0.69891,0.69891c-0.386,0 -0.69891,-0.31291 -0.69891,-0.69891z" fill="#ffffff" stroke-width="0.5"/><path d="M69.77457,464.67582c0,-0.386 0.31291,-0.69891 0.69891,-0.69891c0.386,0 0.69891,0.31291 0.69891,0.69891c0,0.386 -0.31291,0.69891 -0.69891,0.69891c-0.386,0 -0.69891,-0.31291 -0.69891,-0.69891z" fill="#ffffff" stroke-width="0.5"/><path d="M68.93504,438.6504c0,-0.386 0.31291,-0.69891 0.69891,-0.69891c0.386,0 0.69891,0.31291 0.69891,0.69891c0,0.386 -0.31291,0.6989 -0.69891,0.6989c-0.386,0 -0.69891,-0.31291 -0.69891,-0.6989z" fill="#ffffff" stroke-width="0.5"/><path d="M133.57883,444.5271c0,-0.386 0.31291,-0.69891 0.69891,-0.69891c0.386,0 0.6989,0.31291 0.6989,0.69891c0,0.386 -0.31291,0.69891 -0.6989,0.69891c-0.386,0 -0.69891,-0.31291 -0.69891,-0.69891z" fill="#ffffff" stroke-width="0.5"/><path d="M151.20895,379.04379c0,-0.386 0.31291,-0.69891 0.69891,-0.69891c0.386,0 0.69891,0.31291 0.69891,0.69891c0,0.386 -0.31291,0.69891 -0.69891,0.69891c-0.386,0 -0.69891,-0.31291 -0.69891,-0.69891z" fill="#ffffff" stroke-width="0.5"/><path d="M110.91152,368.96944c0,-0.386 0.31291,-0.69891 0.6989,-0.69891c0.386,0 0.69891,0.31291 0.69891,0.69891c0,0.386 -0.31291,0.69891 -0.69891,0.69891c-0.386,0 -0.6989,-0.31291 -0.6989,-0.69891z" fill="#ffffff" stroke-width="0.5"/><path d="M141.97412,302.64659c0,-0.386 0.31291,-0.69891 0.69891,-0.69891c0.386,0 0.6989,0.31291 0.6989,0.69891c0,0.386 -0.31291,0.69891 -0.6989,0.69891c-0.386,0 -0.69891,-0.31291 -0.69891,-0.69891z" fill="#ffffff" stroke-width="0.5"/><path d="M115.94871,280.81881c0,-0.386 0.31291,-0.69891 0.6989,-0.69891c0.386,0 0.69891,0.31291 0.69891,0.69891c0,0.386 -0.31291,0.69891 -0.69891,0.69891c-0.386,0 -0.6989,-0.31291 -0.6989,-0.69891z" fill="#ffffff" stroke-width="0.5"/><path d="M-190.79579,355.21323v-238.42643h330.77469v238.42643z" fill="#000000" stroke-width="0"/><path d="M-12.35063,153.97929c0,-0.386 0.31291,-0.6989 0.69891,-0.6989c0.386,0 0.69891,0.31291 0.69891,0.6989c0,0.38599 -0.31291,0.69891 -0.69891,0.69891c-0.386,0 -0.69891,-0.31292 -0.69891,-0.69891z" fill="#ffffff" stroke-width="0.5"/><path d="M48.93504,150.62117c0,-0.386 0.31291,-0.6989 0.69891,-0.6989c0.386,0 0.69891,0.3129 0.69891,0.6989c0,0.386 -0.31291,0.69891 -0.69891,0.69891c-0.386,0 -0.69891,-0.31291 -0.69891,-0.69891z" fill="#ffffff" stroke-width="0.5"/><path d="M78.31858,180.00471c0,-0.386 0.31291,-0.69891 0.69891,-0.69891c0.386,0 0.69891,0.31292 0.69891,0.69891c0,0.386 -0.31291,0.6989 -0.69891,0.6989c-0.386,0 -0.69891,-0.31291 -0.69891,-0.6989z" fill="#ffffff" stroke-width="0.5"/><path d="M46.41646,224.49978c0,-0.386 0.31291,-0.69891 0.69891,-0.69891c0.386,0 0.69891,0.31291 0.69891,0.69891c0,0.386 -0.31291,0.69891 -0.69891,0.69891c-0.386,0 -0.69891,-0.31291 -0.69891,-0.69891z" fill="#ffffff" stroke-width="0.5"/><path d="M38.02115,195.11625c0,-0.386 0.31291,-0.69891 0.69891,-0.69891c0.386,0 0.69891,0.31292 0.69891,0.69891c0,0.38599 -0.31291,0.69891 -0.69891,0.69891c-0.386,0 -0.69891,-0.31292 -0.69891,-0.69891z" fill="#ffffff" stroke-width="0.5"/><path d="M-41.73416,195.11625c0,-0.386 0.31291,-0.69891 0.69891,-0.69891c0.386,0 0.69891,0.31292 0.69891,0.69891c0,0.38599 -0.31291,0.69891 -0.69891,0.69891c-0.386,0 -0.69891,-0.31292 -0.69891,-0.69891z" fill="#ffffff" stroke-width="0.5"/><path d="M-50.12946,160.69553c0,-0.386 0.31291,-0.69891 0.69891,-0.69891c0.386,0 0.6989,0.31291 0.6989,0.69891c0,0.386 -0.3129,0.6989 -0.6989,0.6989c-0.386,0 -0.69891,-0.31291 -0.69891,-0.6989z" fill="#ffffff" stroke-width="0.5"/><path d="M-110.57559,180.00471c0,-0.386 0.31291,-0.69891 0.6989,-0.69891c0.38599,0 0.69891,0.31292 0.69891,0.69891c0,0.386 -0.31292,0.6989 -0.69891,0.6989c-0.38599,0 -0.6989,-0.31291 -0.6989,-0.6989z" fill="#ffffff" stroke-width="0.5"/><path d="M-102.1803,219.46261c0,-0.386 0.31292,-0.69891 0.69891,-0.69891c0.38599,0 0.69891,0.31291 0.69891,0.69891c0,0.386 -0.31291,0.6989 -0.69891,0.6989c-0.38599,0 -0.69891,-0.31291 -0.69891,-0.6989z" fill="#ffffff" stroke-width="0.5"/><path d="M-43.41322,250.52521c0,-0.386 0.31291,-0.69891 0.69891,-0.69891c0.386,0 0.69891,0.31291 0.69891,0.69891c0,0.386 -0.31291,0.6989 -0.69891,0.6989c-0.386,0 -0.69891,-0.31291 -0.69891,-0.6989z" fill="#ffffff" stroke-width="0.5"/><path d="M-124.8476,266.47627c0,-0.386 0.31292,-0.69891 0.69891,-0.69891c0.38599,0 0.6989,0.31291 0.6989,0.69891c0,0.386 -0.31291,0.69891 -0.6989,0.69891c-0.38599,0 -0.69891,-0.31291 -0.69891,-0.69891z" fill="#ffffff" stroke-width="0.5"/><path d="M-113.93371,305.09463c0,-0.386 0.31292,-0.69891 0.69891,-0.69891c0.38599,0 0.69891,0.31291 0.69891,0.69891c0,0.386 -0.31292,0.69891 -0.69891,0.69891c-0.38599,0 -0.69891,-0.31291 -0.69891,-0.69891z" fill="#ffffff" stroke-width="0.5"/><path d="M-65.24099,299.21792c0,-0.386 0.31291,-0.69891 0.69891,-0.69891c0.386,0 0.69891,0.31291 0.69891,0.69891c0,0.386 -0.31291,0.69891 -0.69891,0.69891c-0.386,0 -0.69891,-0.31291 -0.69891,-0.69891z" fill="#ffffff" stroke-width="0.5"/><path d="M-4.79486,314.32945c0,-0.386 0.31291,-0.69891 0.69891,-0.69891c0.386,0 0.69891,0.31291 0.69891,0.69891c0,0.386 -0.31291,0.69891 -0.69891,0.69891c-0.386,0 -0.69891,-0.31291 -0.69891,-0.69891z" fill="#ffffff" stroke-width="0.5"/><path d="M79.15811,281.5878c0,-0.386 0.31291,-0.69891 0.69891,-0.69891c0.386,0 0.6989,0.31291 0.6989,0.69891c0,0.386 -0.31291,0.6989 -0.6989,0.6989c-0.386,0 -0.69891,-0.31291 -0.69891,-0.6989z" fill="#ffffff" stroke-width="0.5"/><path d="M22.07009,268.99486c0,-0.386 0.31291,-0.69891 0.69891,-0.69891c0.386,0 0.69891,0.31291 0.69891,0.69891c0,0.386 -0.31291,0.69891 -0.69891,0.69891c-0.386,0 -0.69891,-0.31291 -0.69891,-0.69891z" fill="#ffffff" stroke-width="0.5"/><path d="M9.47714,213.5859c0,-0.386 0.3129,-0.69891 0.6989,-0.69891c0.386,0 0.69891,0.31291 0.69891,0.69891c0,0.386 -0.31291,0.69891 -0.69891,0.69891c-0.386,0 -0.6989,-0.31291 -0.6989,-0.69891z" fill="#ffffff" stroke-width="0.5"/><path d="M-63.56194,225.33931c0,-0.386 0.31291,-0.69891 0.69891,-0.69891c0.386,0 0.69891,0.31291 0.69891,0.69891c0,0.386 -0.31291,0.69891 -0.69891,0.69891c-0.386,0 -0.69891,-0.31291 -0.69891,-0.69891z" fill="#ffffff" stroke-width="0.5"/><path d="M-97.98265,149.78165c0,-0.386 0.31291,-0.69891 0.69891,-0.69891c0.38599,0 0.69891,0.31291 0.69891,0.69891c0,0.386 -0.31292,0.6989 -0.69891,0.6989c-0.38599,0 -0.69891,-0.31291 -0.69891,-0.6989z" fill="#ffffff" stroke-width="0.5"/><path d="M-137.44055,153.97929c0,-0.386 0.31291,-0.6989 0.69891,-0.6989c0.38599,0 0.69891,0.31291 0.69891,0.6989c0,0.38599 -0.31292,0.69891 -0.69891,0.69891c-0.38599,0 -0.69891,-0.31292 -0.69891,-0.69891z" fill="#ffffff" stroke-width="0.5"/><path d="M-150.0335,211.0673c0,-0.386 0.31291,-0.69891 0.69891,-0.69891c0.386,0 0.69891,0.31291 0.69891,0.69891c0,0.386 -0.31291,0.69891 -0.69891,0.69891c-0.386,0 -0.69891,-0.31291 -0.69891,-0.69891z" fill="#ffffff" stroke-width="0.5"/><path d="M-188.65186,221.14166c0,-0.386 0.31291,-0.69891 0.69891,-0.69891c0.386,0 0.69891,0.31291 0.69891,0.69891c0,0.386 -0.31291,0.69891 -0.69891,0.69891c-0.386,0 -0.69891,-0.31291 -0.69891,-0.69891z" fill="#ffffff" stroke-width="0.5"/><path d="M-154.23114,284.94592c0,-0.386 0.3129,-0.69891 0.6989,-0.69891c0.386,0 0.69891,0.31291 0.69891,0.69891c0,0.386 -0.31291,0.6989 -0.69891,0.6989c-0.386,0 -0.6989,-0.31291 -0.6989,-0.6989z" fill="#ffffff" stroke-width="0.5"/><path d="M-174.37986,314.32946c0,-0.386 0.31291,-0.69891 0.69891,-0.69891c0.386,0 0.69891,0.31291 0.69891,0.69891c0,0.386 -0.31291,0.69891 -0.69891,0.69891c-0.386,0 -0.69891,-0.31291 -0.69891,-0.69891z" fill="#ffffff" stroke-width="0.5"/><path d="M-101.34077,335.3177c0,-0.386 0.31291,-0.69891 0.69891,-0.69891c0.386,0 0.69891,0.31291 0.69891,0.69891c0,0.386 -0.31291,0.69891 -0.69891,0.69891c-0.386,0 -0.69891,-0.31291 -0.69891,-0.69891z" fill="#ffffff" stroke-width="0.5"/><path d="M-51.80852,319.36663c0,-0.386 0.31291,-0.69891 0.69891,-0.69891c0.386,0 0.69891,0.31291 0.69891,0.69891c0,0.386 -0.31291,0.69891 -0.69891,0.69891c-0.386,0 -0.69891,-0.31291 -0.69891,-0.69891z" fill="#ffffff" stroke-width="0.5"/><path d="M49.77457,338.67582c0,-0.386 0.31291,-0.69891 0.69891,-0.69891c0.386,0 0.69891,0.31291 0.69891,0.69891c0,0.386 -0.31291,0.69891 -0.69891,0.69891c-0.386,0 -0.69891,-0.31291 -0.69891,-0.69891z" fill="#ffffff" stroke-width="0.5"/><path d="M48.93504,312.6504c0,-0.386 0.31291,-0.69891 0.69891,-0.69891c0.386,0 0.69891,0.31291 0.69891,0.69891c0,0.386 -0.31291,0.6989 -0.69891,0.6989c-0.386,0 -0.69891,-0.31291 -0.69891,-0.6989z" fill="#ffffff" stroke-width="0.5"/><path d="M113.57883,318.5271c0,-0.386 0.31291,-0.69891 0.69891,-0.69891c0.386,0 0.6989,0.31291 0.6989,0.69891c0,0.386 -0.31291,0.69891 -0.6989,0.69891c-0.386,0 -0.69891,-0.31291 -0.69891,-0.69891z" fill="#ffffff" stroke-width="0.5"/><path d="M131.20895,253.04379c0,-0.386 0.31291,-0.69891 0.69891,-0.69891c0.386,0 0.69891,0.31291 0.69891,0.69891c0,0.386 -0.31291,0.69891 -0.69891,0.69891c-0.386,0 -0.69891,-0.31291 -0.69891,-0.69891z" fill="#ffffff" stroke-width="0.5"/><path d="M90.91152,242.96943c0,-0.386 0.31291,-0.69891 0.6989,-0.69891c0.386,0 0.69891,0.31291 0.69891,0.69891c0,0.386 -0.31291,0.69891 -0.69891,0.69891c-0.386,0 -0.6989,-0.31291 -0.6989,-0.69891z" fill="#ffffff" stroke-width="0.5"/><path d="M121.97412,176.64659c0,-0.386 0.31291,-0.69891 0.69891,-0.69891c0.386,0 0.6989,0.31291 0.6989,0.69891c0,0.386 -0.31291,0.69891 -0.6989,0.69891c-0.386,0 -0.69891,-0.31291 -0.69891,-0.69891z" fill="#ffffff" stroke-width="0.5"/><path d="M95.94871,154.81882c0,-0.386 0.31291,-0.69891 0.6989,-0.69891c0.386,0 0.69891,0.31291 0.69891,0.69891c0,0.386 -0.31291,0.69891 -0.69891,0.69891c-0.386,0 -0.6989,-0.31291 -0.6989,-0.69891z" fill="#ffffff" stroke-width="0.5"/><path d="M95.20421,525.21323v-238.42643h330.77469v238.42643z" fill="#000000" stroke-width="0"/><path d="M273.64937,323.97928c0,-0.38599 0.31291,-0.6989 0.69891,-0.6989c0.386,0 0.69891,0.31291 0.69891,0.6989c0,0.38599 -0.31291,0.69891 -0.69891,0.69891c-0.386,0 -0.69891,-0.31292 -0.69891,-0.69891z" fill="#ffffff" stroke-width="0.5"/><path d="M334.93504,320.62117c0,-0.386 0.31291,-0.6989 0.69891,-0.6989c0.386,0 0.69891,0.3129 0.69891,0.6989c0,0.386 -0.31291,0.69891 -0.69891,0.69891c-0.386,0 -0.69891,-0.31291 -0.69891,-0.69891z" fill="#ffffff" stroke-width="0.5"/><path d="M364.31858,350.00471c0,-0.386 0.31291,-0.69891 0.69891,-0.69891c0.386,0 0.69891,0.31291 0.69891,0.69891c0,0.386 -0.31291,0.69891 -0.69891,0.69891c-0.386,0 -0.69891,-0.31291 -0.69891,-0.69891z" fill="#ffffff" stroke-width="0.5"/><path d="M332.41646,394.49978c0,-0.386 0.31291,-0.69891 0.69891,-0.69891c0.386,0 0.69891,0.31291 0.69891,0.69891c0,0.386 -0.31291,0.69891 -0.69891,0.69891c-0.386,0 -0.69891,-0.31291 -0.69891,-0.69891z" fill="#ffffff" stroke-width="0.5"/><path d="M324.02115,365.11625c0,-0.386 0.31291,-0.69891 0.69891,-0.69891c0.386,0 0.69891,0.31291 0.69891,0.69891c0,0.38599 -0.31291,0.69891 -0.69891,0.69891c-0.386,0 -0.69891,-0.31292 -0.69891,-0.69891z" fill="#ffffff" stroke-width="0.5"/><path d="M244.26584,365.11625c0,-0.386 0.31291,-0.69891 0.69891,-0.69891c0.386,0 0.69891,0.31291 0.69891,0.69891c0,0.38599 -0.31291,0.69891 -0.69891,0.69891c-0.386,0 -0.69891,-0.31292 -0.69891,-0.69891z" fill="#ffffff" stroke-width="0.5"/><path d="M235.87054,330.69553c0,-0.386 0.31291,-0.69891 0.69891,-0.69891c0.386,0 0.6989,0.31291 0.6989,0.69891c0,0.386 -0.3129,0.69891 -0.6989,0.69891c-0.386,0 -0.69891,-0.31291 -0.69891,-0.69891z" fill="#ffffff" stroke-width="0.5"/><path d="M175.42441,350.00471c0,-0.386 0.31291,-0.69891 0.6989,-0.69891c0.38599,0 0.69891,0.31291 0.69891,0.69891c0,0.386 -0.31292,0.69891 -0.69891,0.69891c-0.38599,0 -0.6989,-0.31291 -0.6989,-0.69891z" fill="#ffffff" stroke-width="0.5"/><path d="M183.8197,389.46261c0,-0.386 0.31292,-0.69891 0.69891,-0.69891c0.38599,0 0.69891,0.31291 0.69891,0.69891c0,0.386 -0.31291,0.69891 -0.69891,0.69891c-0.38599,0 -0.69891,-0.31291 -0.69891,-0.69891z" fill="#ffffff" stroke-width="0.5"/><path d="M242.58678,420.52521c0,-0.386 0.31291,-0.69891 0.69891,-0.69891c0.386,0 0.69891,0.31291 0.69891,0.69891c0,0.386 -0.31291,0.69891 -0.69891,0.69891c-0.386,0 -0.69891,-0.31291 -0.69891,-0.69891z" fill="#ffffff" stroke-width="0.5"/><path d="M161.1524,436.47627c0,-0.386 0.31292,-0.69891 0.69891,-0.69891c0.38599,0 0.6989,0.31291 0.6989,0.69891c0,0.386 -0.31291,0.69891 -0.6989,0.69891c-0.38599,0 -0.69891,-0.31291 -0.69891,-0.69891z" fill="#ffffff" stroke-width="0.5"/><path d="M172.06629,475.09463c0,-0.386 0.31292,-0.69891 0.69891,-0.69891c0.38599,0 0.69891,0.31291 0.69891,0.69891c0,0.386 -0.31292,0.69891 -0.69891,0.69891c-0.38599,0 -0.69891,-0.31291 -0.69891,-0.69891z" fill="#ffffff" stroke-width="0.5"/><path d="M220.75901,469.21792c0,-0.386 0.31291,-0.69891 0.69891,-0.69891c0.386,0 0.69891,0.31291 0.69891,0.69891c0,0.386 -0.31291,0.69891 -0.69891,0.69891c-0.386,0 -0.69891,-0.31291 -0.69891,-0.69891z" fill="#ffffff" stroke-width="0.5"/><path d="M281.20515,484.32945c0,-0.386 0.31291,-0.69891 0.69891,-0.69891c0.386,0 0.69891,0.31291 0.69891,0.69891c0,0.386 -0.31291,0.69891 -0.69891,0.69891c-0.386,0 -0.69891,-0.31291 -0.69891,-0.69891z" fill="#ffffff" stroke-width="0.5"/><path d="M365.15811,451.5878c0,-0.386 0.31291,-0.69891 0.69891,-0.69891c0.386,0 0.6989,0.31291 0.6989,0.69891c0,0.386 -0.31291,0.6989 -0.6989,0.6989c-0.386,0 -0.69891,-0.31291 -0.69891,-0.6989z" fill="#ffffff" stroke-width="0.5"/><path d="M308.07009,438.99486c0,-0.386 0.31291,-0.69891 0.69891,-0.69891c0.386,0 0.69891,0.31291 0.69891,0.69891c0,0.386 -0.31291,0.69891 -0.69891,0.69891c-0.386,0 -0.69891,-0.31291 -0.69891,-0.69891z" fill="#ffffff" stroke-width="0.5"/><path d="M295.47715,383.5859c0,-0.386 0.3129,-0.69891 0.6989,-0.69891c0.386,0 0.69891,0.31291 0.69891,0.69891c0,0.386 -0.31291,0.69891 -0.69891,0.69891c-0.386,0 -0.6989,-0.31291 -0.6989,-0.69891z" fill="#ffffff" stroke-width="0.5"/><path d="M222.43807,395.33931c0,-0.386 0.31291,-0.69891 0.69891,-0.69891c0.386,0 0.69891,0.31291 0.69891,0.69891c0,0.386 -0.31291,0.69891 -0.69891,0.69891c-0.386,0 -0.69891,-0.31291 -0.69891,-0.69891z" fill="#ffffff" stroke-width="0.5"/><path d="M188.01735,319.78164c0,-0.386 0.31291,-0.69891 0.69891,-0.69891c0.38599,0 0.69891,0.31291 0.69891,0.69891c0,0.386 -0.31292,0.69891 -0.69891,0.69891c-0.38599,0 -0.69891,-0.31291 -0.69891,-0.69891z" fill="#ffffff" stroke-width="0.5"/><path d="M148.55945,323.97928c0,-0.38599 0.31291,-0.6989 0.69891,-0.6989c0.38599,0 0.69891,0.31291 0.69891,0.6989c0,0.38599 -0.31292,0.69891 -0.69891,0.69891c-0.38599,0 -0.69891,-0.31292 -0.69891,-0.69891z" fill="#ffffff" stroke-width="0.5"/><path d="M135.9665,381.06731c0,-0.386 0.31291,-0.69891 0.69891,-0.69891c0.386,0 0.69891,0.31291 0.69891,0.69891c0,0.386 -0.31291,0.69891 -0.69891,0.69891c-0.386,0 -0.69891,-0.31291 -0.69891,-0.69891z" fill="#ffffff" stroke-width="0.5"/><path d="M97.34814,391.14166c0,-0.386 0.31291,-0.69891 0.69891,-0.69891c0.386,0 0.69891,0.31291 0.69891,0.69891c0,0.386 -0.31291,0.69891 -0.69891,0.69891c-0.386,0 -0.69891,-0.31291 -0.69891,-0.69891z" fill="#ffffff" stroke-width="0.5"/><path d="M131.76886,454.94592c0,-0.386 0.3129,-0.69891 0.6989,-0.69891c0.386,0 0.69891,0.31291 0.69891,0.69891c0,0.386 -0.31291,0.6989 -0.69891,0.6989c-0.386,0 -0.6989,-0.31291 -0.6989,-0.6989z" fill="#ffffff" stroke-width="0.5"/><path d="M111.62014,484.32946c0,-0.386 0.31291,-0.69891 0.69891,-0.69891c0.386,0 0.69891,0.31291 0.69891,0.69891c0,0.386 -0.31291,0.69891 -0.69891,0.69891c-0.386,0 -0.69891,-0.31291 -0.69891,-0.69891z" fill="#ffffff" stroke-width="0.5"/><path d="M184.65923,505.3177c0,-0.386 0.31291,-0.69891 0.69891,-0.69891c0.386,0 0.69891,0.31291 0.69891,0.69891c0,0.386 -0.31291,0.69891 -0.69891,0.69891c-0.386,0 -0.69891,-0.31291 -0.69891,-0.69891z" fill="#ffffff" stroke-width="0.5"/><path d="M234.19148,489.36664c0,-0.386 0.31291,-0.69891 0.69891,-0.69891c0.386,0 0.69891,0.31291 0.69891,0.69891c0,0.386 -0.31291,0.69891 -0.69891,0.69891c-0.386,0 -0.69891,-0.31291 -0.69891,-0.69891z" fill="#ffffff" stroke-width="0.5"/><path d="M335.77457,508.67582c0,-0.386 0.31291,-0.69891 0.69891,-0.69891c0.386,0 0.69891,0.31291 0.69891,0.69891c0,0.386 -0.31291,0.69891 -0.69891,0.69891c-0.386,0 -0.69891,-0.31291 -0.69891,-0.69891z" fill="#ffffff" stroke-width="0.5"/><path d="M334.93504,482.6504c0,-0.386 0.31291,-0.69891 0.69891,-0.69891c0.386,0 0.69891,0.31291 0.69891,0.69891c0,0.386 -0.31291,0.6989 -0.69891,0.6989c-0.386,0 -0.69891,-0.31291 -0.69891,-0.6989z" fill="#ffffff" stroke-width="0.5"/><path d="M399.57883,488.5271c0,-0.386 0.31291,-0.69891 0.69891,-0.69891c0.386,0 0.6989,0.31291 0.6989,0.69891c0,0.386 -0.31291,0.69891 -0.6989,0.69891c-0.386,0 -0.69891,-0.31291 -0.69891,-0.69891z" fill="#ffffff" stroke-width="0.5"/><path d="M417.20895,423.04379c0,-0.386 0.31291,-0.69891 0.69891,-0.69891c0.386,0 0.69891,0.31291 0.69891,0.69891c0,0.386 -0.31291,0.69891 -0.69891,0.69891c-0.386,0 -0.69891,-0.31291 -0.69891,-0.69891z" fill="#ffffff" stroke-width="0.5"/><path d="M376.91153,412.96944c0,-0.386 0.31291,-0.69891 0.6989,-0.69891c0.386,0 0.69891,0.31291 0.69891,0.69891c0,0.386 -0.31291,0.69891 -0.69891,0.69891c-0.386,0 -0.6989,-0.31291 -0.6989,-0.69891z" fill="#ffffff" stroke-width="0.5"/><path d="M407.97412,346.64659c0,-0.386 0.31291,-0.69891 0.69891,-0.69891c0.386,0 0.6989,0.31291 0.6989,0.69891c0,0.386 -0.31291,0.69891 -0.6989,0.69891c-0.386,0 -0.69891,-0.31291 -0.69891,-0.69891z" fill="#ffffff" stroke-width="0.5"/><path d="M381.94871,324.81881c0,-0.386 0.31291,-0.69891 0.6989,-0.69891c0.386,0 0.69891,0.31291 0.69891,0.69891c0,0.386 -0.31291,0.69891 -0.69891,0.69891c-0.386,0 -0.6989,-0.31291 -0.6989,-0.69891z" fill="#ffffff" stroke-width="0.5"/><path d="M357.20422,491.21323v-238.42643h330.77469v238.42643z" fill="#000000" stroke-width="0"/><path d="M535.64937,289.97929c0,-0.38599 0.31291,-0.6989 0.69891,-0.6989c0.386,0 0.69891,0.31291 0.69891,0.6989c0,0.38599 -0.31291,0.69891 -0.69891,0.69891c-0.386,0 -0.69891,-0.31292 -0.69891,-0.69891z" fill="#ffffff" stroke-width="0.5"/><path d="M596.93504,286.62117c0,-0.386 0.31291,-0.6989 0.69891,-0.6989c0.386,0 0.69891,0.3129 0.69891,0.6989c0,0.386 -0.31291,0.69891 -0.69891,0.69891c-0.386,0 -0.69891,-0.31291 -0.69891,-0.69891z" fill="#ffffff" stroke-width="0.5"/><path d="M626.31858,316.00471c0,-0.386 0.31291,-0.69891 0.69891,-0.69891c0.386,0 0.69891,0.31291 0.69891,0.69891c0,0.386 -0.31291,0.69891 -0.69891,0.69891c-0.386,0 -0.69891,-0.31291 -0.69891,-0.69891z" fill="#ffffff" stroke-width="0.5"/><path d="M594.41646,360.49978c0,-0.386 0.31291,-0.69891 0.69891,-0.69891c0.386,0 0.69891,0.31291 0.69891,0.69891c0,0.386 -0.31291,0.69891 -0.69891,0.69891c-0.386,0 -0.69891,-0.31291 -0.69891,-0.69891z" fill="#ffffff" stroke-width="0.5"/><path d="M586.02116,331.11625c0,-0.386 0.31291,-0.69891 0.69891,-0.69891c0.386,0 0.69891,0.31291 0.69891,0.69891c0,0.38599 -0.31291,0.69891 -0.69891,0.69891c-0.386,0 -0.69891,-0.31292 -0.69891,-0.69891z" fill="#ffffff" stroke-width="0.5"/><path d="M506.26584,331.11625c0,-0.386 0.31291,-0.69891 0.69891,-0.69891c0.386,0 0.69891,0.31291 0.69891,0.69891c0,0.38599 -0.31291,0.69891 -0.69891,0.69891c-0.386,0 -0.69891,-0.31292 -0.69891,-0.69891z" fill="#ffffff" stroke-width="0.5"/><path d="M497.87054,296.69553c0,-0.386 0.31291,-0.69891 0.69891,-0.69891c0.386,0 0.6989,0.31291 0.6989,0.69891c0,0.386 -0.3129,0.69891 -0.6989,0.69891c-0.386,0 -0.69891,-0.31291 -0.69891,-0.69891z" fill="#ffffff" stroke-width="0.5"/><path d="M437.42441,316.00471c0,-0.386 0.31291,-0.69891 0.6989,-0.69891c0.38599,0 0.69891,0.31291 0.69891,0.69891c0,0.386 -0.31292,0.69891 -0.69891,0.69891c-0.38599,0 -0.6989,-0.31291 -0.6989,-0.69891z" fill="#ffffff" stroke-width="0.5"/><path d="M445.8197,355.46261c0,-0.386 0.31292,-0.69891 0.69891,-0.69891c0.38599,0 0.69891,0.31291 0.69891,0.69891c0,0.386 -0.31291,0.69891 -0.69891,0.69891c-0.38599,0 -0.69891,-0.31291 -0.69891,-0.69891z" fill="#ffffff" stroke-width="0.5"/><path d="M504.58678,386.52521c0,-0.386 0.31291,-0.69891 0.69891,-0.69891c0.386,0 0.69891,0.31291 0.69891,0.69891c0,0.386 -0.31291,0.69891 -0.69891,0.69891c-0.386,0 -0.69891,-0.31291 -0.69891,-0.69891z" fill="#ffffff" stroke-width="0.5"/><path d="M423.1524,402.47627c0,-0.386 0.31292,-0.69891 0.69891,-0.69891c0.38599,0 0.6989,0.31291 0.6989,0.69891c0,0.386 -0.31291,0.69891 -0.6989,0.69891c-0.38599,0 -0.69891,-0.31291 -0.69891,-0.69891z" fill="#ffffff" stroke-width="0.5"/><path d="M434.06629,441.09463c0,-0.386 0.31292,-0.69891 0.69891,-0.69891c0.38599,0 0.69891,0.31291 0.69891,0.69891c0,0.386 -0.31292,0.69891 -0.69891,0.69891c-0.38599,0 -0.69891,-0.31291 -0.69891,-0.69891z" fill="#ffffff" stroke-width="0.5"/><path d="M482.75901,435.21792c0,-0.386 0.31291,-0.69891 0.69891,-0.69891c0.386,0 0.69891,0.31291 0.69891,0.69891c0,0.386 -0.31291,0.69891 -0.69891,0.69891c-0.386,0 -0.69891,-0.31291 -0.69891,-0.69891z" fill="#ffffff" stroke-width="0.5"/><path d="M543.20515,450.32945c0,-0.386 0.31291,-0.69891 0.69891,-0.69891c0.386,0 0.69891,0.31291 0.69891,0.69891c0,0.386 -0.31291,0.69891 -0.69891,0.69891c-0.386,0 -0.69891,-0.31291 -0.69891,-0.69891z" fill="#ffffff" stroke-width="0.5"/><path d="M627.15811,417.5878c0,-0.386 0.31291,-0.69891 0.69891,-0.69891c0.386,0 0.6989,0.31291 0.6989,0.69891c0,0.386 -0.31291,0.6989 -0.6989,0.6989c-0.386,0 -0.69891,-0.31291 -0.69891,-0.6989z" fill="#ffffff" stroke-width="0.5"/><path d="M570.07009,404.99486c0,-0.386 0.31291,-0.69891 0.69891,-0.69891c0.386,0 0.69891,0.31291 0.69891,0.69891c0,0.386 -0.31291,0.69891 -0.69891,0.69891c-0.386,0 -0.69891,-0.31291 -0.69891,-0.69891z" fill="#ffffff" stroke-width="0.5"/><path d="M557.47715,349.5859c0,-0.386 0.3129,-0.69891 0.6989,-0.69891c0.386,0 0.69891,0.31291 0.69891,0.69891c0,0.386 -0.31291,0.69891 -0.69891,0.69891c-0.386,0 -0.6989,-0.31291 -0.6989,-0.69891z" fill="#ffffff" stroke-width="0.5"/><path d="M484.43807,361.33931c0,-0.386 0.31291,-0.69891 0.69891,-0.69891c0.386,0 0.69891,0.31291 0.69891,0.69891c0,0.386 -0.31291,0.69891 -0.69891,0.69891c-0.386,0 -0.69891,-0.31291 -0.69891,-0.69891z" fill="#ffffff" stroke-width="0.5"/><path d="M450.01735,285.78164c0,-0.386 0.31291,-0.69891 0.69891,-0.69891c0.38599,0 0.69891,0.31291 0.69891,0.69891c0,0.386 -0.31292,0.69891 -0.69891,0.69891c-0.38599,0 -0.69891,-0.31291 -0.69891,-0.69891z" fill="#ffffff" stroke-width="0.5"/><path d="M410.55945,289.97929c0,-0.38599 0.31291,-0.6989 0.69891,-0.6989c0.38599,0 0.69891,0.31291 0.69891,0.6989c0,0.38599 -0.31292,0.69891 -0.69891,0.69891c-0.38599,0 -0.69891,-0.31292 -0.69891,-0.69891z" fill="#ffffff" stroke-width="0.5"/><path d="M397.9665,347.06731c0,-0.386 0.31291,-0.69891 0.69891,-0.69891c0.386,0 0.69891,0.31291 0.69891,0.69891c0,0.386 -0.31291,0.69891 -0.69891,0.69891c-0.386,0 -0.69891,-0.31291 -0.69891,-0.69891z" fill="#ffffff" stroke-width="0.5"/><path d="M359.34814,357.14166c0,-0.386 0.31291,-0.69891 0.69891,-0.69891c0.386,0 0.69891,0.31291 0.69891,0.69891c0,0.386 -0.31291,0.69891 -0.69891,0.69891c-0.386,0 -0.69891,-0.31291 -0.69891,-0.69891z" fill="#ffffff" stroke-width="0.5"/><path d="M393.76886,420.94592c0,-0.386 0.3129,-0.69891 0.6989,-0.69891c0.386,0 0.69891,0.31291 0.69891,0.69891c0,0.386 -0.31291,0.6989 -0.69891,0.6989c-0.386,0 -0.6989,-0.31291 -0.6989,-0.6989z" fill="#ffffff" stroke-width="0.5"/><path d="M373.62015,450.32946c0,-0.386 0.31291,-0.69891 0.69891,-0.69891c0.386,0 0.69891,0.31291 0.69891,0.69891c0,0.386 -0.31291,0.69891 -0.69891,0.69891c-0.386,0 -0.69891,-0.31291 -0.69891,-0.69891z" fill="#ffffff" stroke-width="0.5"/><path d="M446.65923,471.3177c0,-0.386 0.31291,-0.69891 0.69891,-0.69891c0.386,0 0.69891,0.31291 0.69891,0.69891c0,0.386 -0.31291,0.69891 -0.69891,0.69891c-0.386,0 -0.69891,-0.31291 -0.69891,-0.69891z" fill="#ffffff" stroke-width="0.5"/><path d="M496.19148,455.36664c0,-0.386 0.31291,-0.69891 0.69891,-0.69891c0.386,0 0.69891,0.31291 0.69891,0.69891c0,0.386 -0.31291,0.69891 -0.69891,0.69891c-0.386,0 -0.69891,-0.31291 -0.69891,-0.69891z" fill="#ffffff" stroke-width="0.5"/><path d="M597.77457,474.67582c0,-0.386 0.31291,-0.69891 0.69891,-0.69891c0.386,0 0.69891,0.31291 0.69891,0.69891c0,0.386 -0.31291,0.69891 -0.69891,0.69891c-0.386,0 -0.69891,-0.31291 -0.69891,-0.69891z" fill="#ffffff" stroke-width="0.5"/><path d="M596.93504,448.6504c0,-0.386 0.31291,-0.69891 0.69891,-0.69891c0.386,0 0.69891,0.31291 0.69891,0.69891c0,0.386 -0.31291,0.6989 -0.69891,0.6989c-0.386,0 -0.69891,-0.31291 -0.69891,-0.6989z" fill="#ffffff" stroke-width="0.5"/><path d="M661.57883,454.5271c0,-0.386 0.31291,-0.69891 0.69891,-0.69891c0.386,0 0.6989,0.31291 0.6989,0.69891c0,0.386 -0.31291,0.69891 -0.6989,0.69891c-0.386,0 -0.69891,-0.31291 -0.69891,-0.69891z" fill="#ffffff" stroke-width="0.5"/><path d="M679.20896,389.04379c0,-0.386 0.31291,-0.69891 0.69891,-0.69891c0.386,0 0.69891,0.31291 0.69891,0.69891c0,0.386 -0.31291,0.69891 -0.69891,0.69891c-0.386,0 -0.69891,-0.31291 -0.69891,-0.69891z" fill="#ffffff" stroke-width="0.5"/><path d="M638.91153,378.96944c0,-0.386 0.31291,-0.69891 0.6989,-0.69891c0.386,0 0.69891,0.31291 0.69891,0.69891c0,0.386 -0.31291,0.69891 -0.69891,0.69891c-0.386,0 -0.6989,-0.31291 -0.6989,-0.69891z" fill="#ffffff" stroke-width="0.5"/><path d="M669.97412,312.64659c0,-0.386 0.31291,-0.69891 0.69891,-0.69891c0.386,0 0.6989,0.31291 0.6989,0.69891c0,0.386 -0.31291,0.69891 -0.6989,0.69891c-0.386,0 -0.69891,-0.31291 -0.69891,-0.69891z" fill="#ffffff" stroke-width="0.5"/><path d="M643.94871,290.81881c0,-0.386 0.31291,-0.69891 0.6989,-0.69891c0.386,0 0.69891,0.31291 0.69891,0.69891c0,0.386 -0.31291,0.69891 -0.69891,0.69891c-0.386,0 -0.6989,-0.31291 -0.6989,-0.69891z" fill="#ffffff" stroke-width="0.5"/></g></g></svg>