<svg version="1.1" xmlns="http://www.w3.org/2000/svg" xmlns:xlink="http://www.w3.org/1999/xlink" width="94.1165" height="93.7" viewBox="0,0,94.1165,93.7"><g transform="translate(-201.18349,-137.9)"><g data-paper-data="{&quot;isPaintingLayer&quot;:true}" fill="none" fill-rule="nonzero" stroke="none" stroke-width="none" stroke-linecap="none" stroke-linejoin="none" stroke-miterlimit="10" stroke-dasharray="" stroke-dashoffset="0" font-family="none" font-weight="none" font-size="none" text-anchor="none" style="mix-blend-mode: normal"><path d="M252.6,194.7c0.7,-0.6 6.5,0 7.2,-0.5c7,-5.2 11.7,-5 12.4,-3.7c1.8,3.1 -0.4,6.7 -6.8,9.5c-4.8,2.1 -16.3,1.7 -17.1,2" id="ID0.1790580078959465_11_" fill="#ffffff" stroke="#8e5322" stroke-width="1.4" stroke-linecap="round" stroke-linejoin="round"/><g stroke-width="1.4" stroke-linecap="round" stroke-linejoin="round"><path d="M244.7,197.9l-5.1,13.7c0,0 1.6,-0.8 -3.2,2.3c-2.8,1.8 -16.6,-2.6 -18.5,-7.5c-1.2,-3.4 5.4,-18.2 5.4,-18.2z" id="ID0.26344340899959207_10_" fill="#518943" stroke="#426c36"/><path d="M229.6,177.6c1.4,0.4 2.4,1.6 2.9,3.1c0.5,1.5 0.6,3.5 0,5.4c-0.6,2 -1.7,3.6 -2.9,4.6c-1.3,1 -2.8,1.4 -4.1,1c-1.3,-0.4 -2.4,-1.6 -2.9,-3.1c-0.5,-1.5 -0.6,-3.5 0,-5.4c0.6,-2 1.7,-3.6 2.9,-4.6c1.3,-1 2.7,-1.4 4.1,-1z" id="ID0.2414738917723298_10_" fill="#fefbdf" stroke="#70715e"/><path d="M228.7,180.7c0.7,0.2 1.3,0.9 1.6,1.7c0.3,0.9 0.3,1.9 0,3c-0.3,1.1 -0.9,2 -1.6,2.5c-0.7,0.6 -1.5,0.8 -2.2,0.6c-0.7,-0.2 -1.3,-0.9 -1.6,-1.7c-0.3,-0.9 -0.3,-1.9 0,-3c0.3,-1.1 0.9,-2 1.6,-2.5c0.6,-0.5 1.4,-0.8 2.2,-0.6z" id="ID0.6192030962556601_10_" fill="#fefbdf" stroke="#70715e"/><path d="M220.5,205.7c-0.7,-1.1 1.6,-6.6 1.6,-6.6l5.9,3.1l-2.6,7.2c0,0 -4.2,-2.7 -4.9,-3.7z" id="ID0.15330331353470683_10_" fill="#518943" stroke="#426c36"/></g><path d="M239.6,205.6" id="ID0.39854341372847557_10_" fill="#faa51f" stroke="#8e5322" stroke-width="1.4" stroke-linecap="round" stroke-linejoin="round"/><g id="ID0.16171270422637463_7_" stroke="#8e5322" stroke-width="1.4" stroke-linecap="round" stroke-linejoin="round"><path d="M237.8,213.1c0,0 -6.6,2.6 -13.4,8.2c-3,2.4 4.6,5.8 -1.8,9.6c-1.8,1 -6.9,-6.7 -7.4,-8.9c-0.5,-2 -0.2,-2.8 1.6,-3.7c6.6,-3.2 13.8,-13.8 13.8,-13.8" id="ID0.007584026083350182_7_" fill="#ffffff"/><path d="M222.4,221.7c1.1,1.1 1.7,2.3 1.7,2.3" id="ID0.31672530295327306_7_" fill="#faa51f"/></g><g id="Layer_3_11_"><path d="M234.8,206.4c0.9,0.1 2.8,0.4 1.8,4.5c-1,4.1 -7.3,7.2 -8.1,7.5c-2.8,1.1 -6.5,2.5 -11,2.6c-12.9,0.4 -17.7,-12.2 -14.8,-15.6c2.9,-3.4 7.5,3.8 14.4,6.6c3.1,1.2 6.1,1 8.6,0.6c3.5,-0.5 8.2,-6.5 9.1,-6.2z" id="ID0.8535828334279358_10_" fill="#faa51f" stroke="none" stroke-width="1" stroke-linecap="butt" stroke-linejoin="miter"/><path d="M208.5,206.7c2.5,1.7 7,4.7 7,4.7c0,0 -4.1,0.8 -5.5,3.3c-1.3,2.4 2.3,5.4 0.4,5c-1.7,-0.8 -4.3,-2.2 -6.5,-5.2c-2.1,-3 -2.7,-8.1 -1.1,-9.4c1.9,-1.2 3.5,-0.1 5.7,1.6z" id="ID0.914295740891248_10_" fill="#ffffff" stroke="none" stroke-width="1" stroke-linecap="butt" stroke-linejoin="miter"/><path d="M234.8,206.4c0.9,0.1 2.8,0.4 1.8,4.5c-1,4.1 -7.3,7.2 -8.1,7.5c-2.8,1.1 -6.5,2.5 -11,2.6c-12.9,0.4 -17.7,-12.2 -14.8,-15.6c2.9,-3.4 7.5,3.8 14.4,6.6c3.1,1.2 6.1,1 8.6,0.6c3.5,-0.5 8.2,-6.5 9.1,-6.2z" id="ID0.40227043256163597_10_" fill="#ffffff" stroke="#8e5322" stroke-width="1.4" stroke-linecap="round" stroke-linejoin="round"/></g><path d="M251.6,199.9c-1.9,6.4 -3,16.3 -14.4,13c-11.4,-3.4 -7.8,-11.7 -5.9,-18.1c1.9,-6.4 6.3,-7 12.8,-5.1c6.3,1.9 9.4,3.8 7.5,10.2z" id="ID0.46792364912107587_10_" fill="#ffffff" stroke="#8e5322" stroke-width="1.4" stroke-linecap="round" stroke-linejoin="round"/><path d="M253.3,203c-1.2,4 -4.8,4.5 -10.9,2.6c-1.7,-0.5 -1.3,-1.2 -0.2,-5.2c1.1,-4 3.6,-4.6 7.2,-3.5c3.5,1 5.1,2 3.9,6.1z" id="ID0.38032895559445024_10_" fill="#bababa" stroke="none" stroke-width="1" stroke-linecap="butt" stroke-linejoin="miter"/><path d="M228.9,205.3c19,-9.2 6.2,-18.4 6.2,-18.4c16.2,10.1 -1.8,21 -6.4,21.4" id="ID0.48627097019925714_10_" fill="#518943" stroke="#426c36" stroke-width="1.4" stroke-linecap="round" stroke-linejoin="round"/><path d="M249.3,204.3c6.5,-7.3 -2.6,-14 -2.6,-14c10.3,5.8 7.6,11.3 4.1,15.8" id="ID0.07006075512617826_10_" fill="#518943" stroke="#426c36" stroke-width="1.4" stroke-linecap="round" stroke-linejoin="round"/><g><g id="Layer_2_21_"><path d="M258.3,145.5l7.3,-6.9l2.6,11.3c0,0 6.1,4.8 7.9,8c3,5.4 3,9.7 3,9.7c0,0 6.8,2.3 7.9,7.8c1.1,5.6 -3.4,16 -21.7,19.2c-18.3,3.3 -32.8,-1.9 -39.4,-13.2c-6.5,-11.1 4.5,-24.1 3.9,-23.3l-1.8,-18.3l12.4,8.4c0,0 4.3,-1.6 8.9,-1.7c1.7,-0.1 4.8,0.2 6.3,0.3z" id="ID0.2591130444779992_10_" fill="#faa51f" stroke="none" stroke-width="1" stroke-linecap="butt" stroke-linejoin="miter"/><path d="M278.6,168.2c0,0 6.6,1.8 7.7,7.3c1.4,5.5 -3.7,15.8 -21,18.6c-3.9,0.6 -7.4,1.2 -12.9,1.1c-8.5,0 -17.7,-5.5 -16.8,-16.6c0.5,-6.4 8.6,-5.7 8.6,-5.7l7.1,-1.7c0,0 7.1,1.7 11.3,0.9c4.2,-0.8 4.3,-4.1 4.3,-4.1l8.8,-2.4l2.4,2z" id="ID0.3588979784399271_10_" fill="#ffffff" stroke="none" stroke-width="1" stroke-linecap="butt" stroke-linejoin="miter"/><path d="M294.6,171.4c0,0 -2.1,1.2 -4.8,1.6c-2.3,0.3 -6.8,0.1 -6.8,0.1" id="ID0.2727069961838424_10_" fill="none" stroke="#8e5322" stroke-width="1.4" stroke-linecap="round" stroke-linejoin="round"/><path d="M292.8,182.2c0,0 -1.8,-0.2 -4.4,-1c-2.7,-0.7 -5,-2.3 -5,-2.3" id="ID0.5861211125738919_10_" fill="none" stroke="#8e5322" stroke-width="1.4" stroke-linecap="round" stroke-linejoin="round"/><path d="M243.2,150.4l-5.1,-3.7" id="ID0.4793355236761272_10_" fill="none" stroke="#8e5322" stroke-width="1.4" stroke-linecap="round" stroke-linejoin="round"/><path d="M258.3,145.5l7.3,-6.9l2.6,11.3c0,0 6.1,4.8 7.9,8c3,5.4 3,9.7 3,9.7c0,0 6.8,2.3 7.9,7.8c1.1,5.6 -3.4,16 -21.7,19.2c-18.3,3.3 -32.8,-1.9 -39.4,-13.2c-6.5,-11.1 4.5,-24.1 3.9,-23.3l-1.8,-18.3l12.4,8.4c0,0 4.3,-1.6 8.9,-1.7c1.7,-0.1 4.8,0.2 6.3,0.3z" id="ID0.48413723474368453_10_" fill="none" stroke="#8e5322" stroke-width="1.4" stroke-linecap="round" stroke-linejoin="round"/><path d="M225.3,176.9c0,0 -3.4,1.1 -5.1,1.6c-1.7,0.5 -5.7,0.9 -5.7,0.9" id="ID0.9024141579866409_10_" fill="none" stroke="#8e5322" stroke-width="1.4" stroke-linecap="round" stroke-linejoin="round"/><path d="M212.7,169.7c0,0 2.3,0 6.5,1.1c3.9,1 3.9,1 6.4,2.3" id="ID0.16030752705410123_10_" fill="none" stroke="#8e5322" stroke-width="1.4" stroke-linecap="round" stroke-linejoin="round"/></g><g id="Layer_5_11_"><path d="M273.8,158.1c2.7,4.4 2.7,9.4 0,11c-2.7,1.7 -7.2,-0.4 -9.9,-4.9c-2.7,-4.4 -2.7,-9.4 0,-11c2.8,-1.7 7.2,0.5 9.9,4.9z" id="ID0.40023312577977777_10_" fill="#ffffff" stroke="#8e5322" stroke-width="1.4" stroke-linecap="round" stroke-linejoin="round"/><path d="M273.7,161.7c0.3,1 -0.2,2 -1.2,2.3c-0.9,0.3 -1.9,-0.3 -2.2,-1.4c-0.3,-1 0.2,-2 1.2,-2.3c1,-0.2 1.9,0.4 2.2,1.4" id="ID0.43813491938635707_10_" fill="#414142" stroke="none" stroke-width="1" stroke-linecap="butt" stroke-linejoin="miter"/></g><g id="Layer_7_11_"><path d="M250.6,160.7c2.7,4.4 2.3,9.5 -0.9,11.6c-3.2,2 -8.1,0.1 -10.8,-4.3c-2.7,-4.4 -2.3,-9.5 0.9,-11.6c3.2,-1.9 8.1,0 10.8,4.3z" id="ID0.4253597157076001_10_" fill="#ffffff" stroke="#8e5322" stroke-width="1.4" stroke-linecap="round" stroke-linejoin="round"/><path d="M250.2,164.6c0,1 -0.8,1.9 -1.7,1.9c-1,0 -1.7,-0.8 -1.7,-1.9c0,-1 0.8,-1.9 1.7,-1.9c0.9,0 1.7,0.8 1.7,1.9" id="ID0.814307457767427_10_" fill="#414142" stroke="none" stroke-width="1" stroke-linecap="butt" stroke-linejoin="miter"/></g><path d="M261.4,170.8c1.7,-0.2 4,-1.4 4.3,0.5c0,0.8 -1.7,4.1 -3.5,4.1c-2,0.1 -5.4,-2.5 -5.3,-4c0.1,-1.5 3,-0.4 4.5,-0.6z" id="ID0.5240494590252638_10_" fill="#5f4b43" stroke="#8e5322" stroke-width="1.4" stroke-linecap="round" stroke-linejoin="round"/><path d="M259.9,187.5c-5.4,0.9 -7.9,-1.4 -7.9,-1.4" id="ID0.046259244438260794_10_" fill="#ffffff" stroke="#8e5322" stroke-width="1.4" stroke-linecap="round" stroke-linejoin="round"/></g><g id="ID0.15723733883351088_12_" stroke="#8e5322" stroke-width="1.4" stroke-linecap="round" stroke-linejoin="round"><path d="M243.7,205.5c0.4,0.1 7.2,1.2 7.6,1.3c7.9,2.3 4.9,6.3 2.7,8c-8.5,5.7 0.6,8 -7.2,10.2c-2.4,0.5 -4.1,-4.1 -4.8,-6.1c-1.6,-4.4 0,-1.7 3.1,-4.1c-1.1,-0.8 -6.4,-1.8 -6.4,-1.8" id="ID0.527006761636585_12_" fill="#ffffff"/><path d="M248.8,219c1.2,-0.8 2.6,-2.2 3.6,-2.7" id="ID0.8937406223267317_17_" fill="#faa51f"/><path d="M247.9,214.4c-0.5,0.2 -2.9,-0.2 -4.2,-0.2" id="ID0.8937406223267317_16_" fill="#faa51f"/></g><path d="M238.6,192.4c0.7,-0.6 6.5,0.1 7.2,-0.4c7.1,-5.1 11.7,-4.8 12.5,-3.5c1.7,3.2 -0.5,6.7 -6.9,9.4c-4.8,2.1 -16.3,1.5 -17.1,1.8" id="ID0.1790580078959465_10_" fill="#ffffff" stroke="#8e5322" stroke-width="1.4" stroke-linecap="round" stroke-linejoin="round"/><g id="ID0.7407716196030378_10_" stroke="#8e5322" stroke-width="1.4" stroke-linecap="round" stroke-linejoin="round"><path d="M244.4,193" id="ID0.8024068027734756_10_" fill="#faa51f"/><path d="M241.2,191.4" id="ID0.06734407460317016_10_" fill="none"/></g></g></g></svg>