<svg version="1.1" width="51" height="51" viewBox="-1 -1 51 51" xmlns="http://www.w3.org/2000/svg" xmlns:xlink="http://www.w3.org/1999/xlink">
  <defs>
    <radialGradient id="grad_1" cx="0.5408" cy="0.9285" r="1.2070499999999997">
      <stop offset="0" stop-color="#006666" stop-opacity="1"/>
      <stop offset="1" stop-color="#00FFFF" stop-opacity="1"/>
    </radialGradient>
    <linearGradient id="grad_2" y2="1">
      <stop offset="0" stop-color="#FFFFFF" stop-opacity="1"/>
      <stop offset="1" stop-color="#FFFFFF" stop-opacity="0"/>
    </linearGradient>
  </defs>
  <!-- Exported by Scratch - http://scratch.mit.edu/ -->
  <path id="ID0.47025758773088455" fill="url(#grad_1)" stroke="#000000" stroke-width="2" d="M 234.500 159 C 240.983 159 246.858 161.633 251.113 165.887 C 255.367 170.142 258 176.017 258 182.500 C 258 188.983 255.367 194.858 251.113 199.113 C 246.858 203.367 240.983 206 234.500 206 C 228.017 206 222.142 203.367 217.887 199.113 C 213.633 194.858 211 188.983 211 182.500 C 211 176.017 213.633 170.142 217.887 165.887 C 222.142 161.633 228.017 159 234.500 159 Z " transform="matrix(1, 0, 0, 1, -209.5, -157.5)"/>
  <path id="ID0.6898534814827144" fill="none" stroke="#009F9F" stroke-width="2" stroke-linecap="round" d="M 247.500 178 L 247.800 178.300 " transform="matrix(1, 0, 0, 1, -211.5, -157)"/>
  <path id="ID0.6436798740178347" fill="none" stroke="#009F9F" stroke-width="2" stroke-linecap="round" d="M 241.500 190.500 L 241.800 190.800 " transform="matrix(1, 0, 0, 1, -211.5, -157)"/>
  <path id="ID0.534279353916645" fill="none" stroke="#009F9F" stroke-width="2" stroke-linecap="round" d="M 228.500 175 L 228.800 175.300 " transform="matrix(1, 0, 0, 1, -211.5, -157)"/>
  <path id="ID0.5541051714681089" fill="none" stroke="#009F9F" stroke-width="2" stroke-linecap="round" d="M 224 186.500 L 224.300 186.800 " transform="matrix(1, 0, 0, 1, -211.5, -157)"/>
  <path id="ID0.07968003954738379" fill="none" stroke="#009F9F" stroke-width="2" stroke-linecap="round" d="M 232 194.500 L 232.300 194.800 " transform="matrix(1, 0, 0, 1, -211.5, -157)"/>
  <path id="ID0.2499368181452155" fill="none" stroke="#009F9F" stroke-width="2" stroke-linecap="round" d="M 246.500 188 L 246.800 188.300 " transform="matrix(1, 0, 0, 1, -211.5, -157)"/>
  <path id="ID0.06400489434599876" fill="none" stroke="#009F9F" stroke-width="2" stroke-linecap="round" d="M 226 179.500 L 226.300 179.800 " transform="matrix(1, 0, 0, 1, -211.5, -157)"/>
  <path id="ID0.906250280328095" fill="none" stroke="#009F9F" stroke-width="2" stroke-linecap="round" d="M 235.500 167 L 235.800 167.300 " transform="matrix(1, 0, 0, 1, -211.5, -157)"/>
  <path id="ID0.18180017219856381" fill="none" stroke="#009F9F" stroke-width="2" stroke-linecap="round" d="M 248 163 L 248.300 163.300 " transform="matrix(1, 0, 0, 1, -212.5, -155)"/>
  <path id="ID0.3926858645863831" fill="none" stroke="#009F9F" stroke-width="2" stroke-linecap="round" d="M 218 176 L 218.300 176.300 " transform="matrix(1, 0, 0, 1, -211.5, -157)"/>
  <path id="ID0.08606827817857265" fill="none" stroke="#009F9F" stroke-width="2" stroke-linecap="round" d="M 251 193 L 251.300 193.300 " transform="matrix(1, 0, 0, 1, -211.5, -157)"/>
  <g id="ID0.9090041313320398" transform="matrix(1, 0, 0, 1, 0.5, 0)">
    <g id="Layer_2">
      <path id="ID0.8898130133748055" fill="#FAA51D" stroke="#231F20" stroke-width="1.2" d="M 52.709 14.156 C 51.169 14.013 47.959 13.840 46.191 13.925 C 41.463 14.150 36.967 15.853 36.967 15.853 L 23.949 7.357 L 26.184 26.263 C 26.830 25.481 15.629 39.067 22.705 50.487 C 29.785 61.913 44.938 67.005 63.693 63.279 C 82.448 59.550 86.922 48.748 85.679 43.033 C 84.437 37.319 77.357 35.210 77.357 35.210 C 77.357 35.210 77.267 30.730 74.029 25.240 C 72.103 21.972 65.681 17.199 65.681 17.199 L 62.822 5.647 L 55.370 12.851 L 52.709 14.156 Z " transform="matrix(0.4406012296676636, 0, 0, 0.4406012296676636, 2.1, 11.25)"/>
      <path id="ID0.989949687384069" fill="#FFFFFF" d="M 76.420 35.066 L 73.938 33.002 L 64.823 35.663 C 64.823 35.663 64.823 39.082 60.456 40.030 C 56.086 40.981 49.245 37.753 49.245 37.753 L 41.460 41.170 C 41.460 41.170 33.023 42.098 32.721 47.251 C 32.048 58.704 46.100 63.479 51.425 63.783 C 54.330 63.950 59.660 63.445 63.702 62.642 C 81.454 59.408 86.253 48.723 85.012 43.007 C 83.770 37.293 77.034 35.811 77.034 35.811 L 76.420 35.066 Z " transform="matrix(0.4406012296676636, 0, 0, 0.4406012296676636, 2.1, 11.25)"/>
      <path id="ID0.5059808571822941" fill="none" stroke="#231F20" stroke-width="1.2" d="M 10.673 46.155 C 10.673 46.155 14.780 46.529 16.647 46.423 C 18.512 46.316 22.139 45.836 22.139 45.836 " transform="matrix(0.4406012296676636, 0, 0, 0.4406012296676636, 2.1, 11.25)"/>
      <path id="ID0.7918492127209902" fill="none" stroke="#231F20" stroke-width="1.2" d="M 81.656 40.671 C 81.656 40.671 86.205 39.928 88.515 39.122 C 91.230 38.180 93.058 36.577 93.058 36.577 " transform="matrix(0.4406012296676636, 0, 0, 0.4406012296676636, 2.1, 11.25)"/>
      <path id="ID0.9572206074371934" fill="none" stroke="#231F20" stroke-width="1.2" d="M 22.337 41.909 C 22.337 41.909 19.953 40.132 16.220 38.479 C 12.086 36.648 9.815 36.176 9.815 36.176 " transform="matrix(0.4406012296676636, 0, 0, 0.4406012296676636, 2.1, 11.25)"/>
      <path id="ID0.4198414827696979" fill="none" stroke="#231F20" stroke-width="1.2" d="M 82.117 46.622 C 82.117 46.622 84.843 47.726 87.650 48.007 C 90.420 48.283 92.296 48.117 92.296 48.117 " transform="matrix(0.4406012296676636, 0, 0, 0.4406012296676636, 2.1, 11.25)"/>
      <path id="ID0.9515557917766273" fill="none" stroke="#000000" stroke-linecap="round" d="M 52.350 14.212 C 55.190 14.912 56.237 15.681 56.237 15.681 " transform="matrix(0.4406012296676636, 0, 0, 0.4406012296676636, 2.1, 11.25)"/>
      <path id="ID0.34508845349773765" fill="none" stroke="#000000" d="M 33.898 13.684 L 39.956 18.042 " transform="matrix(0.4406012296676636, 0, 0, 0.4406012296676636, 2.1, 11.25)"/>
    </g>
    <g id="Layer_5">
      <path id="ID0.5645076711662114" fill="#FFFFFF" stroke="#231F20" d="M 71.840 25.366 C 74.764 29.845 74.873 34.957 72.082 36.781 C 69.289 38.606 64.656 36.449 61.728 31.968 C 58.795 27.488 58.691 22.379 61.484 20.553 C 64.275 18.730 68.913 20.884 71.840 25.366 Z " transform="matrix(0.4406012296676636, 0, 0, 0.4406012296676636, 2.1, 11.25)"/>
      <path id="ID0.993048298638314" fill="#231F20" d="M 71.089 32.522 C 71.089 33.602 70.287 34.478 69.289 34.478 C 68.296 34.478 67.486 33.601 67.486 32.522 C 67.486 31.442 68.296 30.564 69.289 30.564 C 70.287 30.564 71.089 31.442 71.089 32.522 " transform="matrix(0.4406012296676636, 0, 0, 0.4406012296676636, 2.1, 11.25)"/>
    </g>
    <g id="Layer_7">
      <path id="ID0.9125873050652444" fill="#FFFFFF" stroke="#231F20" d="M 47.867 28.619 C 50.793 33.099 50.486 38.481 47.186 40.634 C 43.884 42.793 38.835 40.906 35.910 36.426 C 32.982 31.946 33.286 26.566 36.588 24.409 C 39.891 22.253 44.938 24.137 47.867 28.619 Z " transform="matrix(0.4406012296676636, 0, 0, 0.4406012296676636, 2.1, 11.25)"/>
      <path id="ID0.058598415460437536" fill="#231F20" d="M 46.079 34.507 C 46.079 35.588 45.276 36.464 44.278 36.464 C 43.286 36.464 42.475 35.586 42.475 34.507 C 42.475 33.427 43.286 32.550 44.278 32.550 C 45.274 32.550 46.079 33.427 46.079 34.507 " transform="matrix(0.4406012296676636, 0, 0, 0.4406012296676636, 2.1, 11.25)"/>
    </g>
    <path id="ID0.8315944476053119" fill="#5E4A42" stroke="#000000" d="M 59.766 37.926 C 61.620 37.926 64.321 37.642 64.463 38.495 C 64.606 39.350 62.754 42.698 61.475 42.840 C 60.192 42.982 55.350 40.487 55.280 38.921 C 55.206 37.355 58.055 37.926 59.766 37.926 Z " transform="matrix(0.4406012296676636, 0, 0, 0.4406012296676636, 2.1, 11.25)"/>
    <g id="Layer_4">
      <path id="ID0.2666803910396993" fill="none" stroke="#231F20" stroke-width="1.2" d="M 46.774 45.235 C 46.774 45.235 57.121 48.289 60.991 49.132 C 64.859 49.974 71.842 50.816 71.842 50.816 C 71.842 50.816 63.852 61.061 54.514 58.460 C 45.176 55.863 45.345 49.975 46.774 45.235 Z " transform="matrix(0.4406012296676636, 0, 0, 0.4406012296676636, 2.1, 11.25)"/>
    </g>
  </g>
  <path id="ID0.47025758773088455" fill="url(#grad_2)" stroke="#000000" stroke-width="2" d="M 234.500 159 C 240.983 159 246.858 161.633 251.113 165.887 C 255.367 170.142 258 176.017 258 182.500 C 258 188.983 255.367 194.858 251.113 199.113 C 246.858 203.367 240.983 206 234.500 206 C 228.017 206 222.142 203.367 217.887 199.113 C 213.633 194.858 211 188.983 211 182.500 C 211 176.017 213.633 170.142 217.887 165.887 C 222.142 161.633 228.017 159 234.500 159 Z " transform="matrix(1, 0, 0, 1, -209.5, -157.5)"/>
</svg>