<svg version="1.1" width="69" height="53" viewBox="-1 -1 69 53" xmlns="http://www.w3.org/2000/svg" xmlns:xlink="http://www.w3.org/1999/xlink">
  <!-- Exported by Scratch - http://scratch.mit.edu/ -->
  <path id="ID0.012871101032942533" fill="#FF9400" stroke="#FF0000" stroke-width="2" stroke-linecap="round" d="M 241.750 159 C 248.578 159 254.766 161.773 259.246 166.254 C 263.727 170.734 266.500 176.922 266.500 183.750 C 266.500 190.578 263.727 196.766 259.246 201.246 C 254.766 205.727 248.578 208.500 241.750 208.500 C 234.922 208.500 229.454 204.810 224.254 201.246 C 218.638 197.396 215.703 190.513 210.500 186 C 207.626 183.968 201.188 184.812 200.500 182 C 199.993 179.752 205.407 178.500 208 177 C 213.321 173.254 218.264 169.398 224.254 166.254 C 229.842 163.332 234.922 159 241.750 159 Z " transform="matrix(1, 0, 0, 1, -199, -158)"/>
  <text id="ID0.4228537888266146" fill="#FFFF00" x="213.5" y="274.25" text-anchor="start" font-family="Helvetica" font-size="22" transform="matrix(1.299826741218567, 0, 0, 1.299826741218567, 35.05, 8.15)">!</text>
</svg>