<svg version="1.1" xmlns="http://www.w3.org/2000/svg" xmlns:xlink="http://www.w3.org/1999/xlink" width="517.83195" height="438.31144" viewBox="0,0,517.83195,438.31144"><defs><linearGradient x1="247.56299" y1="20.43698" x2="243.77728" y2="410.33575" gradientUnits="userSpaceOnUse" id="color-1"><stop offset="0" stop-color="#000000"/><stop offset="1" stop-color="#000000" stop-opacity="0"/></linearGradient><linearGradient x1="241.75604" y1="-15.00528" x2="237.97033" y2="374.89349" gradientUnits="userSpaceOnUse" id="color-2"><stop offset="0" stop-color="#efbd40"/><stop offset="1" stop-color="#baa008"/></linearGradient><linearGradient x1="249.67994" y1="-0.7146" x2="248.77662" y2="92.32052" gradientUnits="userSpaceOnUse" id="color-3"><stop offset="0" stop-color="#000000"/><stop offset="1" stop-color="#000000" stop-opacity="0"/></linearGradient></defs><g transform="translate(18.82221,28.14032)"><g data-paper-data="{&quot;isPaintingLayer&quot;:true}" fill-rule="nonzero" stroke-linejoin="miter" stroke-miterlimit="10" stroke-dasharray="" stroke-dashoffset="0" style="mix-blend-mode: normal"><path d="" fill="#000000" stroke="none" stroke-width="0" stroke-linecap="butt"/><path d="" fill="#929292" stroke="none" stroke-width="0" stroke-linecap="butt"/><path d="" fill="#ffffff" stroke="none" stroke-width="0" stroke-linecap="butt"/><path d="M443.30685,398.43538c-41.24304,21.58119 -146.2155,6.90537 -200.28001,6.32673c-45.73842,-0.48953 -186.10477,11.92758 -222.91607,-4.65319c-32.15657,-14.48416 -27.43773,-148.72228 -27.04416,-189.25698c0.57847,-59.57836 -7.23459,-136.06191 49.3571,-170.52827c43.71936,-26.62669 143.7024,-18.64027 204.31642,-17.99153c65.18135,0.69762 175.47178,-9.11785 219.88928,22.21586c50.35422,35.52169 41.52741,319.95355 -23.32257,353.88749z" fill="url(#color-1)" stroke="none" stroke-width="2" stroke-linecap="butt"/><path d="M437.4999,362.99312c-41.24304,21.58119 -146.2155,6.90537 -200.28001,6.32673c-45.73842,-0.48953 -186.10477,11.92758 -222.91607,-4.65319c-32.15657,-14.48416 -27.43773,-148.72228 -27.04416,-189.25698c0.57847,-59.57836 -7.23459,-136.06191 49.3571,-170.52827c43.71936,-26.62669 143.7024,-18.64027 204.31642,-17.99153c65.18135,0.69762 175.47178,-9.11785 219.88928,22.21586c50.35422,35.52169 41.52741,319.95355 -23.32257,353.88749z" fill="url(#color-2)" stroke="none" stroke-width="2" stroke-linecap="butt"/><path d="M-7.88463,104.68658l498.33943,19.05044" fill="none" stroke="#00bfff" stroke-width="7.5" stroke-linecap="round"/><path d="M-11.28698,145.80067l501.32563,20.797" fill="none" stroke="#00bfff" stroke-width="7.5" stroke-linecap="round"/><path d="M488.28753,192.29798l-502.94357,-8.81209" fill="none" stroke="#00bfff" stroke-width="7.5" stroke-linecap="round"/><path d="M480.54736,216.21961l-495.61957,10.12693" fill="none" stroke="#00bfff" stroke-width="7.5" stroke-linecap="round"/><path d="M-7.86472,257.28656l477.46932,3.39564" fill="none" stroke="#00bfff" stroke-width="7.5" stroke-linecap="round"/><path d="M461.79785,291.46151l-463.97315,-1.53659" fill="none" stroke="#00bfff" stroke-width="7.5" stroke-linecap="round"/><path d="M28.73214,45.06734l18.3066,279.6764" fill="none" stroke="#ff0000" stroke-width="7.5" stroke-linecap="round"/><g stroke="none" stroke-width="2" stroke-linecap="butt"><path d="M435.22597,90.96688c-38.41009,4.8438 -136.64257,0.55868 -187.1886,0.01769c-42.76178,-0.45767 -173.89902,1.46016 -208.42409,-2.77175c-30.15942,-3.69677 -26.65545,-35.70236 -26.56154,-45.37448c0.13803,-14.21619 -7.68302,-32.52996 44.9886,-40.3349c40.69096,-6.02961 134.21387,-3.37836 190.88316,-2.77184c60.93937,0.65222 163.97778,-0.86875 205.71323,6.94115c47.31367,8.85375 40.98472,76.67782 -19.41075,84.29414z" fill="url(#color-3)"/><path d="M431.79989,74.46483c-38.41009,4.8438 -136.64257,0.55868 -187.1886,0.01769c-42.76178,-0.45767 -173.89902,1.46016 -208.42409,-2.77175c-30.15942,-3.69677 -26.65545,-35.70236 -26.56154,-45.37448c0.13803,-14.21619 -7.68302,-32.52996 44.9886,-40.3349c40.69096,-6.02961 134.21387,-3.37836 190.88316,-2.77184c60.93937,0.65222 163.97778,-0.86875 205.71323,6.94115c47.31367,8.85375 40.98472,76.67782 -19.41075,84.29414z" fill="#2e2402"/><path d="M431.36009,64.19778c-38.41009,4.8438 -136.64257,0.55868 -187.1886,0.01769c-42.76178,-0.45767 -173.89902,1.46016 -208.42409,-2.77175c-30.15942,-3.69677 -26.65545,-35.70236 -26.56154,-45.37448c0.13803,-14.21619 -7.68302,-32.52996 44.9886,-40.3349c40.69096,-6.02961 134.21387,-3.37836 190.88316,-2.77184c60.93937,0.65222 163.97778,-0.86875 205.71323,6.94115c47.31367,8.85375 40.98472,76.67782 -19.41075,84.29414z" fill="#4f3e04"/></g></g></g></svg>