<svg version="1.1" xmlns="http://www.w3.org/2000/svg" xmlns:xlink="http://www.w3.org/1999/xlink" width="15.56497" height="15.49927" viewBox="0,0,15.56497,15.49927"><defs><linearGradient x1="178.1482" y1="92.69105" x2="178.1482" y2="108.16032" gradientUnits="userSpaceOnUse" id="color-1"><stop offset="0" stop-color="#000000"/><stop offset="1" stop-color="#00ff14"/></linearGradient><linearGradient x1="173.06584" y1="94.86485" x2="178.24254" y2="101.44267" gradientUnits="userSpaceOnUse" id="color-2"><stop offset="0" stop-color="#ffffff"/><stop offset="1" stop-color="#ffffff" stop-opacity="0"/></linearGradient><linearGradient x1="178.40263" y1="103.66528" x2="182.24637" y2="93.5159" gradientUnits="userSpaceOnUse" id="color-3"><stop offset="0" stop-color="#ffffff" stop-opacity="0"/><stop offset="1" stop-color="#ffffff"/></linearGradient></defs><g transform="translate(-170.31282,-92.66105)"><g data-paper-data="{&quot;isPaintingLayer&quot;:true}" fill-rule="nonzero" stroke-width="2" stroke-linejoin="miter" stroke-miterlimit="10" stroke-dasharray="" stroke-dashoffset="0" style="mix-blend-mode: normal"><path d="M185.87779,100.42568c0,4.27172 -3.46067,7.73464 -7.7296,7.73464c-4.26894,0 -7.7296,-3.46292 -7.7296,-7.73464c0,-4.27172 3.46067,-7.73464 7.7296,-7.73464c4.26894,0 7.7296,3.46292 7.7296,7.73464z" fill="url(#color-1)" stroke="none" stroke-linecap="butt"/><g fill="none" stroke="#ffffff" stroke-linecap="round"><path d="M178.10093,105.25662v-9.85954"/><path d="M173.15523,100.06739l9.89138,0.51892"/></g><path d="M181.07412,93.90772c0.18848,0.2395 0.09886,0.45785 0.14766,0.66529c0.06353,0.27004 0.23056,0.5225 0.21027,0.78855c-0.03725,0.48836 -0.08805,1.02046 -0.60069,1.90844c-0.62065,1.07507 -2.08545,1.67617 -3.2729,2.60307c-1.34861,1.0527 -1.82522,1.49263 -2.77201,2.01088c-0.35535,0.19451 -1.01017,0.96426 -1.46375,0.96292c-1.12756,-0.00333 -1.5865,-0.43519 -2.1643,-1.16936c-1.4295,-1.81641 -1.2056,-4.38268 1.90743,-6.81266c3.11302,-2.42997 6.60682,-2.92602 8.03633,-1.10961z" data-paper-data="{&quot;index&quot;:null}" fill="url(#color-2)" stroke="none" stroke-linecap="butt"/><path d="M175.50341,96.58051c1.06142,-2.80268 4.08035,-4.17475 6.74296,-3.06461c2.66262,1.11014 3.96064,4.28209 2.89923,7.08477c-0.49072,1.29573 -1.14742,2.98141 -2.24629,3.56167c-1.27799,0.67486 -2.94459,-0.34202 -4.37624,-0.93892c-1.36284,-0.56821 -3.42742,-1.23248 -3.94186,-2.55502c-0.49064,-1.26135 0.40406,-2.71974 0.9222,-4.08789z" data-paper-data="{&quot;index&quot;:null}" fill="url(#color-3)" stroke="none" stroke-linecap="butt"/></g></g></svg>