<svg version="1.1" width="76" height="104" viewBox="4 5 76 104" xmlns="http://www.w3.org/2000/svg" xmlns:xlink="http://www.w3.org/1999/xlink">
  <!-- Exported by Scratch - http://scratch.mit.edu/ -->
  <g id="Layer_3" transform="matrix(1, 0, 0, 1, 0, -49)">
    <path id="ID0.5125042512081563" fill="#FAA51D" stroke="#000000" d="M 22.462 79.039 C 20.047 78.588 17.158 77.730 14.720 75.536 C 9.268 70.629 7.526 62.535 3.672 64.622 C -0.184 66.710 -0.110 79.787 12.025 83.816 C 16.207 85.207 20.023 85.212 23.116 85.128 C 23.927 85.103 30.833 84.474 33.195 81.054 C 35.556 77.634 33.914 76.782 33.105 76.310 C 32.295 75.838 25.878 79.677 22.462 79.039 Z " transform="matrix(0.8985253572463989, 0.43892160058021545, -0.43892160058021545, 0.8985253572463989, 39.4, -8)"/>
    <path id="ID0.3527623382396996" fill="#FFFFFF" d="M 4.236 64.877 C 2.247 65.490 1.161 69.875 2.160 73.361 C 3.158 76.851 4.794 78.383 6.023 79.759 C 7.551 80.797 5.303 77.357 7.384 75.609 C 9.459 73.865 13.117 74.695 13.117 74.695 C 13.117 74.695 10.208 70.708 8.547 68.299 C 6.975 65.988 6.359 64.375 4.236 64.877 Z " transform="matrix(0.8985253572463989, 0.43892160058021545, -0.43892160058021545, 0.8985253572463989, 39.4, -8)"/>
  </g>
  <g id="ID0.47307951748371124" transform="matrix(1, 0, 0, 1, 0, -49)">
    <path id="ID0.625234114471823" fill="#FAA51D" d="M 38.217 86.756 C 38.217 86.756 29.385 92.956 21.146 95.168 L 21.232 95.383 C 22.479 97.207 27.102 102.880 20.898 104.879 C 15.565 106.596 5.778 91.775 10.077 88.977 C 12.703 87.264 14.969 88.725 14.969 88.725 C 14.969 88.725 18.443 87.655 20.970 86.380 C 25.273 84.219 26.754 82.927 26.754 82.927 C 26.754 82.927 30.938 78.621 33.610 78.790 C 36.281 78.960 41.669 83.504 38.217 86.756 Z " transform="matrix(0.8985253572463989, 0.43892160058021545, -0.43892160058021545, 0.8985253572463989, 39.4, -8)"/>
    <path id="ID0.06742785638198256" fill="none" stroke="#231F20" stroke-width="1.2" d="M 21.232 95.383 C 22.479 97.207 27.102 102.880 20.898 104.879 C 15.565 106.596 5.569 91.535 9.868 88.734 C 12.494 87.021 14.969 88.724 14.969 88.724 C 14.969 88.724 18.443 87.652 20.970 86.376 C 25.273 84.215 26.754 82.923 26.754 82.923 " transform="matrix(0.8985253572463989, 0.43892160058021545, -0.43892160058021545, 0.8985253572463989, 39.4, -8)"/>
    <path id="ID0.6495014429092407" fill="none" stroke="#231F20" stroke-width="1.2" d="M 38.217 86.756 C 38.217 86.756 28.094 93.863 19.413 95.575 " transform="matrix(0.8985253572463989, 0.43892160058021545, -0.43892160058021545, 0.8985253572463989, 39.4, -8)"/>
  </g>
  <path id="ID0.7121603628620505" fill="#FAA51D" stroke="#231F20" stroke-width="1.2" d="M 52.169 74.885 C 52.169 74.885 53.404 75.050 56.913 78.561 C 60.422 82.069 62.939 80.721 65.824 79.285 C 68.701 77.842 76.361 73.159 72.314 69.468 C 68.265 65.780 66.107 70.614 62.599 71.873 C 59.087 73.133 57.538 69.386 55.741 67.586 C 55.152 66.993 54.553 66.487 54.012 66.081 C 54.012 66.081 53.041 65.321 52.106 68.871 C 51.172 72.412 50.162 73.415 52.169 74.885 Z " transform="matrix(0.9992399215698242, -0.038981884717941284, 0.038981884717941284, 0.9992399215698242, 3.05, -43.25)"/>
  <g id="Layer_2_1_" transform="matrix(1, 0, 0, 1, 0, -49)">
    <path id="ID0.9162897346541286" fill="#FAA51D" stroke="#231F20" stroke-width="1.2" d="M 46.753 82.012 C 47.941 81.100 49.150 79.610 50.704 77.299 C 52 75.372 53.404 71.721 53.404 71.721 C 54.279 69.200 55.338 65.145 51.502 64.425 C 49.949 64.134 47.423 64.327 43.832 63.649 C 40.239 62.968 37.034 61.127 34.315 65.882 C 31.597 70.639 24.725 74.153 33.259 82.445 C 33.259 82.445 40.928 88.401 44.023 92.084 C 47.743 96.508 47.756 105.034 53.200 106.450 C 59.266 108.079 66.108 102.995 70.350 99.050 C 71.847 97.657 67.101 95.692 64.950 95.150 C 62.527 94.541 59.623 97.237 57.750 95.750 C 51.667 91.215 42.976 78.517 42.976 78.517 " transform="matrix(0.8985253572463989, 0.43892160058021545, -0.43892160058021545, 0.8985253572463989, 39.4, -8)"/>
    <path id="ID0.7905941768549383" fill="#FFFFFF" d="M 51.253 75.434 C 51.253 75.434 53.723 72.774 48.784 70.117 C 43.845 67.460 41.571 70.100 40.045 71.638 C 37.401 74.293 43.488 78.249 43.488 78.249 L 46.664 81.453 C 46.664 81.453 48.402 79.806 49.163 78.474 C 50.036 77.260 51.253 75.434 51.253 75.434 " transform="matrix(0.8985253572463989, 0.43892160058021545, -0.43892160058021545, 0.8985253572463989, 39.4, -8)"/>
  </g>
  <path id="ID0.9925815602764487" fill="#FAA51D" stroke="#231F20" stroke-width="1.2" d="M 29.926 73.218 C 30.675 72.647 32.815 71.016 34.780 69.561 C 37.208 67.762 40.897 63.712 35.857 61.915 C 30.817 60.114 28.350 63.519 24.338 66.861 C 22.179 68.662 19.030 69.560 20.019 73.070 C 21.012 76.581 24.881 86.478 31.808 83.240 C 38.737 80.001 30.009 74.060 28.748 72.083 " transform="matrix(0.8985253572463989, 0.43892160058021545, -0.43892160058021545, 0.8985253572463989, 39.4, -57)"/>
</svg>