<svg version="1.1" xmlns="http://www.w3.org/2000/svg" xmlns:xlink="http://www.w3.org/1999/xlink" width="190.33334" height="118.33334" viewBox="0,0,190.33334,118.33334"><g transform="translate(-144.83334,-120.83333)"><g data-paper-data="{&quot;isPaintingLayer&quot;:true}" fill-rule="nonzero" stroke="none" stroke-width="0" stroke-linejoin="miter" stroke-miterlimit="10" stroke-dasharray="" stroke-dashoffset="0" style="mix-blend-mode: normal"><path d="M335.16667,180h-190.33333" fill="none" stroke-linecap="round"></path><path d="M240,239.16666v-118.33333" fill="none" stroke-linecap="round"></path><path d="M144.83335,180.00001h190.33333" fill="none" stroke-linecap="round"></path><path d="M240.00001,239.16667v-118.33333" fill="none" stroke-linecap="round"></path><path d="M242.63008,166.24279c0,6.48056 -5.70643,11.73411 -12.74566,11.73411c-7.03924,0 -12.74566,-5.25353 -12.74566,-11.73411c0,-6.48056 5.70643,-11.73411 12.74566,-11.73411c7.03924,0 12.74566,5.25353 12.74566,11.73411z" fill="#ffffff" stroke-linecap="butt"></path><path d="M229.27748,177.77458c0,-6.5923 3.62313,-11.93641 8.09249,-11.93641c4.46936,0 8.09249,5.34411 8.09249,11.93641c0,6.5923 -3.62313,11.93641 -8.09249,11.93641c-4.46936,0 -8.09249,-5.34411 -8.09249,-11.93641z" fill="#ffffff" stroke-linecap="butt"></path><path d="M234.53759,179.59539c0,5.81017 -5.88759,10.52024 -13.15029,10.52024c-7.2627,0 -13.15029,-4.71007 -13.15029,-10.52024c0,-5.81017 5.88759,-10.52024 13.15029,-10.52024c7.2627,0 13.15029,4.71007 13.15029,10.52024z" fill="#ffffff" stroke-linecap="butt"></path><path d="M264.88441,175.54915c0,8.04485 -5.70643,14.56647 -12.74566,14.56647c-7.03924,0 -12.74566,-6.52163 -12.74566,-14.56647c0,-8.04485 5.70643,-14.56647 12.74566,-14.56647c7.03924,0 12.74566,6.52163 12.74566,14.56647z" fill="#ffffff" stroke-linecap="butt"></path><path d="M251.12719,188.90175c0,2.68162 -6.2499,4.85549 -13.95954,4.85549c-7.70963,0 -13.95954,-2.17388 -13.95954,-4.85549c0,-2.68162 6.2499,-4.85549 13.95954,-4.85549c7.70963,0 13.95954,2.17388 13.95954,4.85549z" fill="#ffffff" stroke-linecap="butt"></path><path d="M240.20233,193.55492c0,-5.02803 3.53255,-9.10405 7.89017,-9.10405c4.35762,0 7.89017,4.07602 7.89017,9.10405c0,5.02803 -3.53255,9.10405 -7.89017,9.10405c-4.35762,0 -7.89017,-4.07602 -7.89017,-9.10405z" fill="#ffffff" stroke-linecap="butt"></path><path d="M249.91332,193.75724c0,3.12855 -6.06875,5.66474 -13.55492,5.66474c-7.48617,0 -13.55492,-2.53619 -13.55492,-5.66474c0,-3.12855 6.06875,-5.66474 13.55492,-5.66474c7.48617,0 13.55492,2.53619 13.55492,5.66474z" fill="#ffffff" stroke-linecap="butt"></path><path d="M239.7977,194.7688c0,4.5811 -7.78973,8.29479 -17.39884,8.29479c-9.60911,0 -17.39884,-3.71371 -17.39884,-8.29479c0,-4.5811 7.78973,-8.29479 17.39884,-8.29479c9.60911,0 17.39884,3.71371 17.39884,8.29479z" fill="#ffffff" stroke-linecap="butt"></path><path d="M228.06361,193.35262c0,-4.46936 9.1484,-8.09249 20.43352,-8.09249c11.28512,0 26.50289,8.074 26.50289,12.54335c0,4.46936 -15.21777,3.64162 -26.50289,3.64162c-11.28512,0 -20.43352,-3.62313 -20.43352,-8.09249z" fill="#ffffff" stroke-linecap="butt"></path><path d="M224.01736,200.23123c0,-2.90508 7.0651,-5.26011 15.78035,-5.26011c8.71524,0 18.61271,3.16429 18.61271,6.06936c0,2.90508 -9.89747,4.45087 -18.61271,4.45087c-8.71524,0 -15.78035,-2.35503 -15.78035,-5.26011z" fill="#ffffff" stroke-linecap="butt"></path><path d="M266.90754,187.48556c0,4.13416 -3.53255,7.48555 -7.89017,7.48555c-4.35762,0 -7.89017,-3.35139 -7.89017,-7.48555c0,-4.13416 3.53255,-7.48555 7.89017,-7.48555c4.35762,0 7.89017,3.35139 7.89017,7.48555z" fill="#ffffff" stroke-linecap="butt"></path><path d="M209.45932,186.06938c0,-2.23468 0.76614,-4.04624 1.71122,-4.04624c0.94508,0 1.71122,1.81156 1.71122,4.04624c0,2.23468 -0.76614,4.04624 -1.71122,4.04624c-0.94508,0 -1.71122,-1.81156 -1.71122,-4.04624z" fill="#ffffff" stroke-linecap="butt"></path></g></g></svg>