<svg version="1.1" xmlns="http://www.w3.org/2000/svg" xmlns:xlink="http://www.w3.org/1999/xlink" width="79.6784" height="56.44108" viewBox="0,0,79.6784,56.44108"><g transform="translate(-200.1608,-151.77947)"><g data-paper-data="{&quot;isPaintingLayer&quot;:true}" fill-rule="nonzero" stroke-linejoin="miter" stroke-miterlimit="10" stroke-dasharray="" stroke-dashoffset="0" style="mix-blend-mode: normal"><path d="M231.38693,152.99502l0.29857,0.07464h0.30776l0.36809,0.09202h1.52557l0.20271,0.05068l0.20829,-0.01666l0.79591,0.13265h24.45976l0.29857,0.07464h0.30776l0.36809,0.09202h5.3589l0.29857,0.07464h0.30776l0.66667,0.16667l0.17254,0.09202h0.05445l0.09758,0.0244l0.07576,-0.03788l0.53033,0.1894l0.54632,0.13658l0.04202,0.07354l0.09473,0.03383l0.51346,0.34231l0.09604,-0.02619l0.27545,0.16527l0.31164,0.07791l0.09485,0.16598l0.01911,0.01147l0.293,0.0586l0.439,0.20795l0.45746,0.16338l0.5,0.33333l0.1675,0.18425l0.21352,0.12811l0.61571,0.61571l0.56943,0.34166l0.21762,0.21762l0.26391,0.15834l0.5,0.5l0.12811,0.21352l0.18425,0.1675l0.33333,0.5l0.05313,0.14877l0.10281,0.11994l0.26038,0.52077l0.02438,0.01393l0.01742,0.06966l0.03115,0.06231l0.09951,0.4478l0.07788,0.11682l0.08795,0.24627l0.15311,0.212l0.33333,0.83333l0.06397,0.46914l0.11484,0.45934v0.02557l0.09202,0.36809v0.30776l0.07464,0.29857v0.15299l0.02735,0.12306l0.13932,0.55728v0.06966l0.01558,0.07009l-0.01558,0.02336v0.09785l0.03837,0.11512l0.03082,0.40069l0.09747,0.38988v0.52557l0.06874,0.27495l0.1363,0.40891l0.03082,0.40069l0.09747,0.38988v0.02557l0.09202,0.36809v0.30776l0.07464,0.29857v4.00355l0.01558,0.02336l-0.01558,0.07009v0.06966l-0.13932,0.55728l-0.02735,0.12306v1.48633l-0.07464,0.29857v0.30776l-0.09202,0.36809v10.19578l0.01558,0.02336l-0.01558,0.07009v0.06966l-0.13932,0.55728l-0.12461,0.56075l-0.03115,0.06231l-0.01742,0.06966l-0.02083,0.0119v1.57143l-0.06039,0.24157l0.01184,0.24872l-0.11812,0.59059v0.41912l-0.09747,0.38988l-0.03082,0.40069l-0.03837,0.11512v3.09431l-0.00345,0.01378l0.02233,0.03981l-0.18079,0.59402l-0.1506,0.60238l-0.03963,0.02265l-0.00414,0.01359l-0.14373,0.23955v0.14087l-0.25413,1.01652l0.0076,0.11021l-0.04849,0.05334l-0.01748,0.06993l-0.09592,0.05481l-0.5301,0.58312l-0.0231,0.06931l-0.12759,0.20051l0.00936,0.13566l-0.31895,0.35084l-0.25456,0.40002l-0.13334,0.02667l-0.15987,0.17586l-0.29403,0.19602l-0.49098,0.49098l-0.06337,0.19012l-0.26479,0.4161l-0.0106,0.19087l-0.24389,0.20905l-0.17246,0.27101l-0.08186,0.01637l-0.0287,0.05739l-0.10281,0.11994l-0.05313,0.14877l-0.247,0.3705l-0.09706,0.19412l-0.32097,0.37447l-0.03749,0.18746l-0.27101,0.17246l-0.20905,0.24389l-0.19087,0.0106l-0.4161,0.26479l-0.06609,0.02203l-0.21297,0.12778l-0.09485,0.16598l-0.18442,0.04611l-0.16804,0.19604l-0.09857,0.00548l-0.04898,0.08571l-1.25,0.3125h-10.09431l-0.11512,0.03837l-0.22657,0.01743l-0.21045,0.08574l-2.33333,0.33333l-0.17899,-0.01852l-0.17457,0.04364h-0.47548l-1.97771,0.30426l-0.19255,-0.01783l-0.1876,0.0469h-1.31966l-0.12306,0.02735l-0.55728,0.13932h-0.06966l-0.07009,0.01558l-0.02336,-0.01558h-0.82321l-0.12306,0.02735l-0.55728,0.13932h-0.06966l-0.07009,0.01558l-0.02336,-0.01558h-23.33688l-0.20271,-0.05068l-0.20829,0.01666l-0.79591,-0.13265h-2.12643l-0.15326,-0.03831l-0.15683,0.01901l-1.17889,-0.14736h-1.34436l-0.24157,-0.06039l-0.24872,0.01184l-0.59059,-0.11812h-0.58578l-0.24157,-0.06039l-0.24872,0.01184l-0.83333,-0.16667l-0.14277,-0.06763l-0.15751,-0.01212l-0.11512,-0.03837h-0.42764l-0.47848,-0.11962l-0.18443,0.0503l-0.27545,-0.16527l-0.31164,-0.07791l-0.09485,-0.16598l-0.03587,-0.02152h-0.61929l-0.38988,-0.09747l-0.40069,-0.03082l-0.40891,-0.1363l-0.57352,-0.14338l-0.32621,-0.17398l-0.35369,-0.10764l-0.25798,-0.15479l-0.51306,-0.12827l-0.56075,-0.12461l-0.06231,-0.03115l-0.06966,-0.01742l-0.01393,-0.02438l-0.69519,-0.34759l-0.33145,-0.11048l-0.15181,-0.09661l-0.17566,-0.03903l-0.33333,-0.16667l-0.15498,-0.13284l-0.12453,-0.00692l-0.25894,-0.3021l-0.42685,-0.10671l-0.34091,-0.59659l-0.59659,-0.34091l-0.16383,-0.65533l-0.03539,-0.04128l-0.37626,-0.32251l-0.00692,-0.12453l-0.13284,-0.15498l-0.09706,-0.19412l-0.247,-0.3705l-0.05313,-0.14877l-0.10281,-0.11994l-0.16667,-0.33333l-0.07244,-0.32597l-0.14295,-0.30178l-0.155,-0.775l-0.15224,-0.60895v-0.06096l-0.0261,-0.05509l-0.13614,-0.68071l-0.11745,-0.35234l-0.03082,-0.40069l-0.06969,-0.27877l-0.04861,-0.02778l-0.13658,-0.54632l-0.1894,-0.53033l0.03788,-0.07576l-0.0244,-0.09758v-0.52557l-0.09202,-0.36809v-0.30776l-0.07464,-0.29857v-0.08578l-0.11812,-0.59059l0.01184,-0.24872l-0.06039,-0.24157v-0.52557l-0.09202,-0.36809v-0.30776l-0.07464,-0.29857v-0.3589l-0.09202,-0.36809v-0.25677l-0.10199,-0.45896l-0.13932,-0.55728v-0.06966l-0.01558,-0.07009l0.01558,-0.02336v-0.86245l-0.09202,-0.36809v-0.30776l-0.07464,-0.29857v-6.16667l0.08457,-0.33829l0.01162,-0.34851l0.23714,-0.83v-2.15341l-0.01558,-0.02336l0.01558,-0.07009v-0.06966l0.13932,-0.55728l0.12461,-0.56075l0.01694,-0.03388l0.05246,-0.2623v-1.08578l0.09747,-0.38988l0.03082,-0.40069l0.03837,-0.11512v-9.92764l0.09747,-0.38988l0.03082,-0.40069l0.03837,-0.11512v-0.09785l-0.01558,-0.02336l0.01558,-0.07009v-0.06966l0.13932,-0.55728l0.12461,-0.56075l0.03115,-0.06231l0.01742,-0.06966l0.02438,-0.01393l0.24562,-0.49124l-0.00264,-0.03823l0.43504,-0.47854l0.42089,-0.49104l0.03826,-0.00213l0.26656,-0.1777l0.15829,-0.15829l0.34461,-0.20676l0.30513,-0.26154l0.33333,-0.16667l0.10356,-0.02301l0.086,-0.06211l0.73678,-0.29471l0.90699,-0.4535l0.26876,-0.05973l0.24293,-0.12956l0.2171,-0.05428l0.12147,-0.12147l0.34461,-0.20676l0.30513,-0.26154l0.66667,-0.33333l0.17566,-0.03903l0.15181,-0.09661l0.5,-0.16667l0.40069,-0.03082l0.38988,-0.09747h1.58641l0.03599,-0.17996l1.08703,-0.69175l0.5,-0.16667l0.40069,-0.03082l0.10043,-0.02511l0.33221,-0.11074l0.40069,-0.03082l0.38988,-0.09747h0.19224l0.36809,-0.09202h0.30776l0.29857,-0.07464z" fill="#b7b7b7" stroke="none" stroke-width="0.5" stroke-linecap="butt"/><path d="M212.2233,154.49846h55.375" fill="none" stroke="#000000" stroke-width="5" stroke-linecap="round"/><path d="M212.2233,205.46781h55.375" fill="none" stroke="#000000" stroke-width="5" stroke-linecap="round"/><path d="M202.6608,165.12881v29.70865" fill="none" stroke="#000000" stroke-width="5" stroke-linecap="round"/><path d="M214.2233,154.78006c-0.81438,1.6053 -1.99163,2.33414 -3.07382,2.74146c-1.34136,0.50487 -2.53668,0.51578 -2.71395,1.08951c-0.54284,1.75685 -2.05983,2.27074 -2.47655,4.25911c-0.39226,1.87165 -0.33736,3.92525 -1.71314,5.25354c-1.48372,1.43251 -4.00839,-0.2723 -3.91312,-2.20386c0.33031,-6.69711 2.905,-9.38161 7.17879,-13.16566c0.8753,-0.775 4.9469,-1.45303 5.48062,-0.40096z" fill="#000000" stroke="none" stroke-width="0.5" stroke-linecap="butt"/><path d="M212.86713,207.68057c-0.53372,1.05206 -4.60532,0.37404 -5.48062,-0.40096c-4.27379,-3.78404 -6.84848,-6.46855 -7.17879,-13.16566c-0.09527,-1.93155 2.42939,-3.63636 3.91312,-2.20386c1.37578,1.32829 1.32088,3.38189 1.71314,5.25354c0.41672,1.98837 1.9337,2.50227 2.47654,4.25911c0.17728,0.57373 1.37259,0.58464 2.71395,1.08951c1.08219,0.40732 2.25944,1.13615 3.07382,2.74146z" data-paper-data="{&quot;index&quot;:null}" fill="#000000" stroke="none" stroke-width="0.5" stroke-linecap="butt"/><path d="M277.3392,165.09506v29.70865" data-paper-data="{&quot;index&quot;:null}" fill="none" stroke="#000000" stroke-width="5" stroke-linecap="round"/><path d="M267.00787,152.31945c0.53372,-1.05206 4.60532,-0.37404 5.48062,0.40096c4.27379,3.78404 6.84848,6.46855 7.17879,13.16566c0.09527,1.93155 -2.42939,3.63636 -3.91312,2.20386c-1.37578,-1.32829 -1.32088,-3.38189 -1.71314,-5.25354c-0.41672,-1.98837 -1.9337,-2.50227 -2.47654,-4.25911c-0.17728,-0.57373 -1.37259,-0.58464 -2.71395,-1.08951c-1.08219,-0.40732 -2.25943,-1.13615 -3.07382,-2.74146z" data-paper-data="{&quot;index&quot;:null}" fill="#000000" stroke="none" stroke-width="0.5" stroke-linecap="butt"/><path d="M265.9017,205.21996c0.81439,-1.6053 1.99163,-2.33414 3.07382,-2.74146c1.34136,-0.50487 2.53668,-0.51578 2.71395,-1.08951c0.54284,-1.75684 2.05982,-2.27074 2.47654,-4.25911c0.39226,-1.87165 0.33736,-3.92525 1.71314,-5.25354c1.48372,-1.4325 4.00838,0.27231 3.91312,2.20386c-0.33031,6.69711 -2.905,9.38162 -7.17879,13.16566c-0.8753,0.775 -4.9469,1.45303 -5.48062,0.40096z" data-paper-data="{&quot;index&quot;:null}" fill="#000000" stroke="none" stroke-width="0.5" stroke-linecap="butt"/><path d="M212.4108,164.35441h55" fill="none" stroke="#787878" stroke-width="4" stroke-linecap="round"/><path d="M212.4108,174.35116h55" fill="none" stroke="#787878" stroke-width="4" stroke-linecap="round"/><path d="M212.4108,184.48871h55" fill="none" stroke="#787878" stroke-width="4" stroke-linecap="round"/><path d="M212.4108,194.76706h55" fill="none" stroke="#787878" stroke-width="4" stroke-linecap="round"/></g></g></svg>