<svg xmlns="http://www.w3.org/2000/svg" xmlns:xlink="http://www.w3.org/1999/xlink" version="1.1" width="24.374000549316406" height="30.75" viewBox="-0.19999998807907104 0.3500000238418579 24.374000549316406 30.75">
  <defs>
    <linearGradient id="grad_1" x1="9.3926" y1="29.3438" x2="13.9756" y2="0.4076" gradientUnits="userSpaceOnUse">
      <stop offset="0" stop-color="#D68D00"/>
      <stop offset="0.5211" stop-color="#FFE600"/>
      <stop offset="0.7606" stop-color="#FFFFFF"/>
      <stop offset="1" stop-color="#FFE600"/>
    </linearGradient>
    <linearGradient id="grad_2" x1="8.4731" y1="9.2119" x2="19.8" y2="20.5387" gradientUnits="userSpaceOnUse">
      <stop offset="0" stop-color="#C96E00"/>
      <stop offset="1" stop-color="#F2C700"/>
    </linearGradient>
  <linearGradient id="grad_1-,0,0,1,0.3,0.85" x1="9.6926" y1="30.1938" x2="14.2756" y2="1.2576" gradientUnits="userSpaceOnUse">
      <stop offset="0" stop-color="#D68D00"/>
      <stop offset="0.5211" stop-color="#FFE600"/>
      <stop offset="0.7606" stop-color="#FFFFFF"/>
      <stop offset="1" stop-color="#FFE600"/>
    </linearGradient><linearGradient id="grad_2-,0,0,1,0.3,0.85" x1="8.7731" y1="10.0619" x2="20.1" y2="21.3887" gradientUnits="userSpaceOnUse">
      <stop offset="0" stop-color="#C96E00"/>
      <stop offset="1" stop-color="#F2C700"/>
    </linearGradient></defs>
  <!-- Exported by Scratch - http://scratch.mit.edu/ -->
  <g id="ID0.291697661858052">
    <g id="ID0.6164557291194797">
      <path id="ID0.39301236998289824" fill="url(#grad_1-,0,0,1,0.3,0.85)" d="M 9.364 30.097 C 4.564 29.947 0.8 23.634 0.8 15.725 C 0.8 7.847 4.548 1.535 9.332 1.353 C 9.41 1.351 14.386 1.35 14.436 1.35 C 19.254 1.35 23.175 7.799 23.175 15.725 C 23.175 23.652 19.254 30.1 14.436 30.1 C 14.436 30.1 9.433 30.099 9.364 30.097 Z " stroke-width="1"/>
      <path id="ID0.7526641241274774" fill="#B58015" d="M 14.436 1.85 C 18.987 1.85 22.675 8.062 22.675 15.725 C 22.675 23.388 18.987 29.6 14.436 29.6 C 14.384 29.6 9.436 29.599 9.384 29.597 C 4.904 29.457 1.3 23.3 1.3 15.725 C 1.3 8.167 4.887 2.022 9.351 1.853 C 9.414 1.851 14.372 1.85 14.436 1.85 M 14.436 0.85 C 14.386 0.85 9.41 0.85 9.32 0.853 C 4.259 1.045 0.3 7.577 0.3 15.725 C 0.3 23.906 4.276 30.438 9.352 30.596 C 9.431 30.6 14.386 30.6 14.435 30.6 C 19.616 30.6 23.674 24.066 23.674 15.725 C 23.675 7.384 19.616 0.85 14.436 0.85 L 14.436 0.85 Z " stroke-width="1"/>
    </g>
    <path id="ID0.4106632019393146" fill="url(#grad_2-,0,0,1,0.3,0.85)" d="M 14.436 5.988 C 16.031 5.988 17.477 7.079 18.524 8.842 C 19.571 10.604 20.219 13.039 20.219 15.725 C 20.219 18.411 19.571 20.846 18.524 22.608 C 17.477 24.371 16.031 25.462 14.436 25.462 C 12.841 25.462 11.395 24.371 10.348 22.608 C 9.301 20.846 8.653 18.411 8.653 15.725 C 8.653 13.039 9.301 10.604 10.348 8.842 C 11.395 7.079 12.841 5.988 14.436 5.988 Z " stroke-width="1"/>
    <path id="ID0.8419432905502617" fill="#D38700" d="M 13.372 6.959 C 14.808 6.959 16.109 7.941 17.052 9.528 C 17.994 11.115 18.577 13.307 18.577 15.725 C 18.577 18.143 17.994 20.335 17.052 21.922 C 16.109 23.509 14.808 24.491 13.372 24.491 C 11.936 24.491 10.635 23.509 9.692 21.922 C 8.75 20.335 8.167 18.143 8.167 15.725 C 8.167 13.307 8.75 11.115 9.692 9.528 C 10.635 7.941 11.936 6.959 13.372 6.959 Z " stroke-width="1"/>
    <path id="ID0.9167210618034005" fill="#D39901" stroke="#BF7400" stroke-width="0.2" d="M 14.436 1.85 C 9.885 1.85 6.196 8.062 6.196 15.725 C 6.196 23.388 9.885 29.6 14.436 29.6 C 18.987 29.6 22.675 23.388 22.675 15.725 C 22.675 8.062 18.987 1.85 14.436 1.85 Z M 14.436 25.462 C 11.242 25.462 8.653 21.103 8.653 15.725 C 8.653 10.346 11.242 5.988 14.436 5.988 C 17.63 5.988 20.219 10.346 20.219 15.725 C 20.219 21.103 17.63 25.462 14.436 25.462 Z "/>
  </g>
</svg>