<svg version="1.1" width="421" height="154" viewBox="-1 -1 421 154" xmlns="http://www.w3.org/2000/svg" xmlns:xlink="http://www.w3.org/1999/xlink">
  <!-- Exported by Scratch - http://scratch.mit.edu/ -->
  <path id="ID0.4136708746664226" fill="#CCCC00" stroke="#CCCC00" stroke-width="2" d="M 357 113.750 L 422.750 113.750 L 422.750 175.500 L 357 175.500 L 357 113.750 Z " transform="matrix(1.2323226928710938, 0, 0, 1.1215686798095703, -139, -80.7)"/>
  <g id="ID0.33164782216772437">
    <path id="ID0.261154024861753" fill="none" stroke="#FFFF00" stroke-width="2" d="M 142 199 L 430 199 L 430 252 L 142 252 L 142 199 Z " transform="matrix(1, 0, 0, 1, -141, -106)"/>
    <path id="ID0.7641077870503068" fill="none" stroke="#FFFF00" stroke-width="2" stroke-linecap="round" d="M 202 199 L 177 249 " transform="matrix(1, 0, 0, 1, -141, -106)"/>
    <path id="ID0.5904625146649778" fill="none" stroke="#FFFF00" stroke-width="2" stroke-linecap="round" d="M 249 200 L 222 255 " transform="matrix(1, 0, 0, 1, -141, -106)"/>
    <path id="ID0.20474033150821924" fill="none" stroke="#FFFF00" stroke-width="2" stroke-linecap="round" d="M 289 198 L 262 247 " transform="matrix(1, 0, 0, 1, -141, -106)"/>
    <path id="ID0.5952359545044601" fill="none" stroke="#FFFF00" stroke-width="2" stroke-linecap="round" d="M 360 196 L 325 256 " transform="matrix(1, 0, 0, 1, -141, -106)"/>
    <path id="ID0.5104959728196263" fill="none" stroke="#FFFF00" stroke-width="2" stroke-linecap="round" d="M 395 202 L 372 253 " transform="matrix(1, 0, 0, 1, -141, -106)"/>
  </g>
  <path id="ID0.2891867230646312" fill="#FFFF00" stroke="#CCCC00" stroke-width="2" stroke-linecap="round" d="M 378 62 L 452 103 L 439 171 L 414 165 L 412 119 L 363 106 L 341 160 L 437 169 L 433 206 L 303 212 L 329 83 L 378 62 Z " transform="matrix(1, 0, 0, 1, -34, -60.5)"/>
</svg>