<svg version="1.1" width="59" height="59" viewBox="-1 -1 59 59" xmlns="http://www.w3.org/2000/svg" xmlns:xlink="http://www.w3.org/1999/xlink">
  <!-- Exported by Scratch - http://scratch.mit.edu/ -->
  <path id="ID0.07181084668263793" fill="none" stroke="#FF0000" stroke-width="2" d="M 237.250 165.500 C 240.354 165.500 243.166 166.761 245.203 168.797 C 247.239 170.834 248.500 173.646 248.500 176.750 C 248.500 179.854 247.239 182.666 245.203 184.703 C 243.166 186.739 240.354 188 237.250 188 C 234.146 188 231.334 186.739 229.297 184.703 C 227.261 182.666 226 179.854 226 176.750 C 226 173.646 227.261 170.834 229.297 168.797 C 231.334 166.761 234.146 165.500 237.250 165.500 Z " transform="matrix(2.326530694961548, 0, 0, 2.326530694961548, -522.95, -382.05)"/>
  <path id="ID0.6905415500514209" fill="none" stroke="#FF0000" stroke-width="2" stroke-linecap="round" d="M 240.100 165 L 240.100 195.600 " transform="matrix(1, 0, 0, 1, -211, -151)"/>
  <path id="ID0.7134669250808656" fill="none" stroke="#FF0000" stroke-width="2" stroke-linecap="round" d="M 228.100 179.700 L 252.100 179.700 " transform="matrix(1, 0, 0, 1, -211, -151)"/>
</svg>