<svg version="1.1" width="504" height="381" viewBox="-1 -1 504 381" xmlns="http://www.w3.org/2000/svg" xmlns:xlink="http://www.w3.org/1999/xlink">
  <defs>
    <radialGradient id="grad_1" cx="35.94498" cy="79.99882" r="68.21742" gradientUnits="userSpaceOnUse">
      <stop offset="0" stop-color="#c08bf5"/>
      <stop offset="1" stop-color="#6e28b4"/>
    </radialGradient>
    <radialGradient id="grad_2" cx="114.6187" cy="-0.0625" r="76.7554" gradientUnits="userSpaceOnUse">
      <stop offset="0" stop-color="#fcfcf1"/>
      <stop offset="0.2699" stop-color="#fde754"/>
      <stop offset="0.7423" stop-color="#eeba31"/>
      <stop offset="1" stop-color="#e6a124"/>
    </radialGradient>
    <radialGradient id="grad_3" cx="466.0048" cy="113.00165" r="63.87775" gradientUnits="userSpaceOnUse">
      <stop offset="0" stop-color="#ff99e5"/>
      <stop offset="1" stop-color="#ff00bf"/>
    </radialGradient>
    <radialGradient id="grad_4" cx="421.998" cy="-48.2949" r="76.7551" gradientUnits="userSpaceOnUse">
      <stop offset="0" stop-color="#ffffff"/>
      <stop offset="1" stop-color="#d7df23"/>
    </radialGradient>
    <radialGradient id="grad_5" cx="416.917" cy="11.9404" r="76.7547" gradientUnits="userSpaceOnUse">
      <stop offset="0" stop-color="#fcfcf1"/>
      <stop offset="0.2577" stop-color="#f7941e"/>
      <stop offset="0.7423" stop-color="#ef4136"/>
      <stop offset="1" stop-color="#be1e2d"/>
    </radialGradient>
    <linearGradient id="grad_6" x1="393.7021" y1="-132.3242" x2="396.8778" y2="-41.3831" gradientUnits="userSpaceOnUse">
      <stop offset="0" stop-color="#2e368f"/>
      <stop offset="0.0234" stop-color="#333590"/>
      <stop offset="0.3273" stop-color="#583393"/>
      <stop offset="0.6019" stop-color="#6e3894"/>
      <stop offset="0.8354" stop-color="#7c3895"/>
      <stop offset="1" stop-color="#803895"/>
    </linearGradient>
    <radialGradient id="grad_7" cx="257.94621" cy="10.00759" r="61.07316" gradientUnits="userSpaceOnUse">
      <stop offset="0" stop-color="#99ffbb"/>
      <stop offset="1" stop-color="#009933"/>
    </radialGradient>
    <radialGradient id="grad_8" cx="316.0127" cy="19.00345" r="60.38579" gradientUnits="userSpaceOnUse">
      <stop offset="0" stop-color="#00ffff"/>
      <stop offset="1" stop-color="#0033cc"/>
    </radialGradient>
    <radialGradient id="grad_9" cx="456.01028" cy="153.49914" r="66.64228" gradientUnits="userSpaceOnUse">
      <stop offset="0" stop-color="#ffff99"/>
      <stop offset="1" stop-color="#ff9400"/>
    </radialGradient>
    <radialGradient id="grad_10" cx="421.02328" cy="73.02396" r="70.19139" gradientUnits="userSpaceOnUse">
      <stop offset="0" stop-color="#cc99ff"/>
      <stop offset="1" stop-color="#4c0099"/>
    </radialGradient>
    <radialGradient id="grad_11" cx="93.97971" cy="30.99123" r="64.66406" gradientUnits="userSpaceOnUse">
      <stop offset="0" stop-color="#99ffbb"/>
      <stop offset="1" stop-color="#009933"/>
    </radialGradient>
    <radialGradient id="grad_12" cx="34.9331" cy="17.00881" r="61.43876" gradientUnits="userSpaceOnUse">
      <stop offset="0" stop-color="#00ffff"/>
      <stop offset="1" stop-color="#0033cc"/>
    </radialGradient>
    <radialGradient id="grad_13" cx="353.8037" cy="17.3213" r="76.7547" gradientUnits="userSpaceOnUse">
      <stop offset="0" stop-color="#ffffff"/>
      <stop offset="1" stop-color="#ec008c"/>
    </radialGradient>
    <radialGradient id="grad_14" cx="84.93129" cy="99.98948" r="57.17496" gradientUnits="userSpaceOnUse">
      <stop offset="0" stop-color="#ffc341"/>
      <stop offset="1" stop-color="#ff7320"/>
    </radialGradient>
    <radialGradient id="grad_15" cx="217.99992" cy="22.01178" r="70.42984" gradientUnits="userSpaceOnUse">
      <stop offset="0" stop-color="#cc99ff"/>
      <stop offset="1" stop-color="#4c0099"/>
    </radialGradient>
    <radialGradient id="grad_16" cx="15.01123" cy="120.02323" r="68.35196" gradientUnits="userSpaceOnUse">
      <stop offset="0" stop-color="#ff9df8"/>
      <stop offset="1" stop-color="#ff308b"/>
    </radialGradient>
    <radialGradient id="grad_17" cx="53.4385" cy="167.8369" r="76.7552" gradientUnits="userSpaceOnUse">
      <stop offset="0" stop-color="#fcfcf1"/>
      <stop offset="0.2699" stop-color="#fde754"/>
      <stop offset="0.7423" stop-color="#eeba31"/>
      <stop offset="1" stop-color="#e6a124"/>
    </radialGradient>
    <radialGradient id="grad_18" cx="144.96289" cy="22.0081" r="64.21398" gradientUnits="userSpaceOnUse">
      <stop offset="0" stop-color="#ff9df8"/>
      <stop offset="1" stop-color="#ff308b"/>
    </radialGradient>
  </defs>
  <!-- Exported by Scratch - http://scratch.mit.edu/ -->
  <g id="ID0.787381668575108" transform="matrix(1, 0, 0, 1, -10, 0)">
    <g id="ID0.3166312822140753">
      <g id="ID0.8245688793249428">
        <path id="ID0.36719017336145043" fill="#ffffff" stroke="#ffffff" stroke-width="2" d="M 0 0 L 479 0 L 479 286 L 0 286 Z " transform="matrix(1, 0, 0, 1, 12.6, 20.4)"/>
        <g id="ID0.7340269507840276">
          <g id="ID0.9899064535275102">
            <g id="ID0.4035583618097007">
              <path id="ID0.5320815253071487" fill="#f7941e" stroke="none" stroke-width="1" d="M 120.333 91.500 C 120.213 91.494 120.378 86.502 120.332 86.501 C 128.052 86.883 129.047 95.021 129.030 101.114 C 129.014 106.932 126.741 113.744 119.666 110.168 C 119.064 109.864 120.204 105.350 119.666 105.168 C 121.986 105.953 123.687 101.464 126.135 102.205 C 129.070 103.093 129.062 107.366 129.069 109.926 C 129.077 112.777 129.077 115.523 127.642 118.118 C 126.140 120.834 122.720 125.122 120.333 120.834 C 120.062 120.349 120.569 115.866 120.333 115.834 C 131.193 117.318 126.020 141.981 123.666 148.167 C 124.215 146.725 123.107 144.635 123.666 143.167 C 125.846 137.439 129.889 122.141 120.333 120.834 C 120.333 119.167 120.333 117.501 120.333 115.834 C 123.854 122.158 128.786 111.286 129.045 108.090 C 129.042 109.727 129.040 111.364 129.038 113.001 C 128.925 110.700 127.657 105.646 124.333 107.668 C 123.140 108.393 121.176 110.678 119.666 110.168 C 119.666 108.501 119.666 106.835 119.666 105.168 C 124.597 107.660 128.480 104.815 128.920 99.471 C 128.709 102.032 128.426 98.449 128.071 97.578 C 127.602 96.425 127.062 95.238 126.215 94.304 C 124.594 92.515 122.750 91.620 120.333 91.500 Z " transform="matrix(1, 0, 0, 1, 12.6, 20.4)"/>
            </g>
          </g>
          <path id="ID0.11195742897689342" fill="url(#grad_1)" stroke="none" stroke-width="1" d="M 69.634 88.040 C 76.745 112.041 57.109 140.486 48.836 143.886 C 39.814 147.594 6.704 132.793 -0.408 108.791 C -7.518 84.790 2.397 60.686 21.738 54.955 C 41.080 49.225 62.523 64.039 69.634 88.040 Z " transform="matrix(1, 0, 0, 1, 12.6, 20.4)"/>
          <path id="ID0.1919907438568771" fill="url(#grad_2)" stroke="none" stroke-width="1" d="M 163.742 49.638 C 159.190 74.253 128.786 90.694 119.870 89.970 C 110.148 89.181 87.357 60.970 91.908 36.353 C 96.460 11.738 116.232 -5.244 136.068 -1.577 C 155.903 2.092 168.294 25.022 163.742 49.638 Z " transform="matrix(1, 0, 0, 1, 12.6, 20.4)"/>
          <path id="ID0.4356324444524944" fill="url(#grad_3)" stroke="none" stroke-width="1" d="M 489.757 130.181 C 487.452 155.108 458.660 174.233 449.717 174.318 C 439.962 174.413 414.711 148.380 417.016 123.453 C 419.322 98.527 437.475 79.825 457.561 81.682 C 477.648 83.540 492.062 105.254 489.757 130.181 Z " transform="matrix(1, 0, 0, 1, 12.6, 20.4)"/>
          <g id="ID0.22109101945534348">
            <path id="ID0.46647881669923663" fill="url(#grad_4)" stroke="none" stroke-width="1" d="M 466.985 52.989 C 462.433 77.604 432.029 94.045 423.113 93.321 C 413.390 92.532 390.599 64.321 395.150 39.704 C 399.703 15.089 419.474 -1.893 439.310 1.774 C 459.146 5.443 471.537 28.374 466.985 52.989 Z " transform="matrix(1, 0, 0, 1, 12.6, 20.4)"/>
            <g id="ID0.6457655848935246">
              <g id="ID0.35068074613809586">
                <path id="ID0.2649063002318144" fill="#8dc63f" stroke="none" stroke-width="1" d="M 423.667 92.833 C 424.021 92.903 423.387 97.778 423.668 97.832 C 421.129 97.330 417.645 96.877 417.320 100.258 C 417.325 98.705 417.329 97.153 417.333 95.600 C 417.472 101.984 424.119 106.803 424.342 112.921 C 424.417 114.971 424.798 117.921 423.981 119.869 C 422.249 123.995 418.283 126.725 417.637 131.332 C 417.639 129.695 417.642 128.058 417.644 126.421 C 417.681 127.824 417.694 133.311 420.419 133.250 C 422.884 133.195 424.011 130.761 425.001 128.831 C 425.001 130.498 425.001 132.164 425.001 133.831 C 420.539 135.633 418.375 138.995 417.952 143.726 C 417.959 142.472 417.966 141.218 417.973 139.964 C 417.975 140.415 417.977 140.864 417.980 141.314 C 417.973 140.902 417.966 140.489 417.958 140.076 C 418.006 141.005 418.132 141.924 418.335 142.831 C 418.626 144.451 418.046 146.224 418.335 147.831 C 417.061 140.733 417.327 131.931 425.001 128.831 C 424.522 129.025 425.338 133.175 425.001 133.831 C 423.843 136.089 419.810 141.150 418.250 136.037 C 417.533 133.690 417.611 131.263 417.611 128.832 C 417.611 126.443 417.696 124.308 419.099 122.214 C 421.121 119.198 423.994 116.626 424.334 112.832 C 424.334 114.499 424.334 116.165 424.334 117.832 C 423.797 111.832 418.049 107.024 417.332 100.848 C 417.127 99.078 417.149 97.030 417.319 95.259 C 417.645 91.878 421.128 92.331 423.667 92.833 Z " transform="matrix(1, 0, 0, 1, 12.6, 20.4)"/>
              </g>
            </g>
          </g>
          <g id="ID0.3075274764560163">
            <g id="ID0.8758801557123661">
              <path id="ID0.1773568531498313" fill="#009933" stroke="none" stroke-width="1" d="M 93.333 96.167 C 92.805 95.992 93.794 91.318 93.333 91.167 C 105.524 95.181 93.402 110.274 92.648 117.405 C 92.651 115.768 92.653 114.131 92.655 112.494 C 92.723 115.307 97.016 115.113 97.333 117.834 C 97.521 119.444 97.548 120.978 97.544 122.599 C 97.530 127.755 96.344 132.862 95.917 138.001 C 95.923 136.578 95.929 135.155 95.935 133.733 C 95.963 135.968 97.239 137.587 98.667 139.167 C 99.513 140.103 97.855 143.269 98.667 144.167 C 93.017 137.917 96.909 126.770 97.520 119.434 C 97.520 121.101 97.520 122.767 97.520 124.434 C 97.263 122.229 96.885 121.457 95 120.250 C 94.293 119.797 92.685 119.103 92.660 118.077 C 92.617 116.301 92.606 114.522 92.636 112.746 C 92.733 107.052 97.649 102.502 98.346 96.870 C 98.339 97.283 98.332 97.695 98.325 98.108 C 98.327 97.834 98.328 97.560 98.330 97.286 C 98.337 98.540 98.344 99.794 98.351 101.048 C 97.957 98.169 95.926 97.021 93.333 96.167 Z " transform="matrix(1, 0, 0, 1, 12.6, 20.4)"/>
            </g>
          </g>
          <g id="ID0.6205455926246941">
            <g id="ID0.9135726578533649">
              <g id="ID0.8404250973835588">
                <path id="ID0.3726240750402212" fill="#ff9400" stroke="none" stroke-width="1" d="M 426.750 73.773 C 425.985 73.312 427.459 69.201 426.751 68.773 C 432.708 72.368 432.475 87.157 424.751 88.439 C 424.784 88.434 424.726 86.074 424.726 85.939 C 424.726 85.050 424.726 84.162 424.726 83.273 C 424.726 83.129 424.814 80.789 424.751 80.773 C 432.713 82.789 433.102 98.552 424.085 99.106 C 424.085 97.439 424.085 95.773 424.085 94.106 C 427.526 98.525 425.755 106.247 427.418 111.439 C 427.905 112.960 426.938 114.939 427.418 116.439 C 425.738 111.197 427.536 103.539 424.085 99.106 C 423.804 98.746 424.174 94.100 424.085 94.106 C 427.667 93.886 429.998 91.979 430.406 88.351 C 430.399 89.184 430.390 90.018 430.382 90.851 C 430.382 90.576 430.382 90.300 430.382 90.026 C 430.389 90.859 430.398 91.692 430.406 92.526 C 430.036 89.116 428.120 86.626 424.751 85.773 C 424.759 84.940 424.767 84.106 424.776 83.273 C 424.776 84.162 424.776 85.050 424.776 85.939 C 424.768 85.106 424.760 84.272 424.751 83.439 C 428.521 82.813 430.246 80.036 430.526 76.390 C 430.522 77.943 430.517 79.495 430.513 81.049 C 430.468 78.072 429.354 75.344 426.750 73.773 Z " transform="matrix(1, 0, 0, 1, 12.6, 20.4)"/>
              </g>
            </g>
            <path id="ID0.6320331781171262" fill="url(#grad_5)" stroke="none" stroke-width="1" d="M 476.184 42.099 C 467.585 65.608 434.863 76.740 426.194 74.537 C 416.739 72.136 398.980 40.515 407.578 17.004 C 416.178 -6.505 438.508 -19.947 457.452 -13.018 C 476.397 -6.087 484.782 18.589 476.184 42.099 Z " transform="matrix(1, 0, 0, 1, 12.6, 20.4)"/>
          </g>
          <path id="ID0.751845589838922" fill="url(#grad_6)" stroke="none" stroke-width="1" d="M -0.710 285.709 L 479.291 285.709 L 479.291 360 L -0.710 360 Z " transform="matrix(1, 0, 0, 1, 12.6, 20.4)"/>
          <g id="ID0.01151819247752428">
            <g id="ID0.2380905468016863">
              <g id="ID0.8254007059149444">
                <path id="ID0.9379406129010022" fill="#8dc63f" stroke="none" stroke-width="1" d="M 271 65.500 C 270.895 65.496 271.029 60.501 271 60.500 C 285.147 61.075 283.531 89.172 269.630 88.944 C 266.370 88.891 267.374 86.369 267.421 83.601 C 267.465 81.069 270.593 76.816 273.228 79.581 C 279.631 86.302 276.474 97.218 269.666 102.168 C 269.666 100.501 269.666 98.835 269.666 97.168 C 276.535 96.156 276.269 103.086 275.459 108.152 C 274.791 112.330 273.204 116.307 271.689 120.237 C 270.929 122.208 270.139 124.174 269.471 126.179 C 269.157 127.124 268.829 128.074 268.608 129.047 C 268.173 130.976 268.923 131.145 268.333 127.168 C 268.575 128.803 268.092 130.543 268.333 132.168 C 267.489 126.472 269.328 121.364 271.345 116.131 C 272.866 112.183 274.666 108.110 275.338 103.906 C 275.641 102.013 276.353 106.022 275.124 103.868 C 274.884 103.446 274.625 102.985 274.198 102.717 C 272.783 101.827 271.266 101.932 269.666 102.167 C 270.022 102.114 269.210 97.499 269.666 97.167 C 273.098 94.672 275.684 91.486 276.416 87.229 C 276.410 87.641 276.402 88.054 276.395 88.467 C 276.398 88.014 276.401 87.561 276.404 87.108 C 276.411 88.362 276.418 89.616 276.426 90.870 C 276.068 88.852 273.641 82.106 270.321 83.938 C 268.714 84.825 267.634 86.423 267.435 88.258 C 267.435 86.591 267.435 84.925 267.435 83.258 C 267.773 85.433 274.146 82.999 275.245 82.175 C 277.615 80.396 279.333 77.844 279.975 74.926 C 280.142 74.165 279.954 72.280 280.290 74.289 C 280.161 73.517 280.035 72.732 279.765 71.993 C 279.338 70.823 278.828 69.623 277.992 68.675 C 276.108 66.539 273.824 65.615 271 65.500 Z " transform="matrix(1, 0, 0, 1, 12.6, 20.4)"/>
              </g>
            </g>
            <path id="ID0.4475969900377095" fill="url(#grad_7)" stroke="none" stroke-width="1" d="M 294.432 15.552 C 300.666 35.969 282.657 60.809 275.142 63.915 C 266.948 67.301 237.111 55.371 230.876 34.955 C 224.643 14.539 233.818 -6.356 251.368 -11.714 C 268.918 -17.072 288.199 -4.864 294.432 15.552 Z " transform="matrix(1, 0, 0, 1, 12.6, 20.4)"/>
          </g>
          <g id="ID0.15626156609505415">
            <path id="ID0.22826186614111066" fill="url(#grad_8)" stroke="none" stroke-width="1" d="M 349.135 32.885 C 347.463 57.862 319.165 77.710 310.226 78.023 C 300.477 78.364 274.575 52.980 276.247 28.002 C 277.921 3.025 295.595 -16.131 315.722 -14.783 C 335.848 -13.435 350.808 7.908 349.135 32.885 Z " transform="matrix(1, 0, 0, 1, 12.6, 20.4)"/>
            <g id="ID0.7634501843713224">
              <g id="ID0.4179077032022178">
                <path id="ID0.5956861786544323" fill="#27aae1" stroke="none" stroke-width="1" d="M 309.667 76.500 C 309.241 78.038 310.098 79.943 309.667 81.498 C 309.326 82.731 309.128 83.866 309.031 85.141 C 309.037 83.718 309.043 82.295 309.049 80.873 C 309.091 84.217 310.506 89.430 313.747 91.186 C 316.854 92.870 317.910 89.767 318.334 87.165 C 318.334 88.832 318.334 90.498 318.334 92.165 C 316.034 91.924 313.308 92.016 311.593 93.837 C 310.854 94.622 310.213 95.499 309.882 96.541 C 309.373 98.139 309.992 99.480 309.451 96.550 C 310.031 99.691 312.170 102.157 314.334 98.499 C 314.334 100.166 314.334 101.832 314.334 103.499 C 312.399 104.741 310.737 106.415 309.966 108.641 C 309.697 109.418 309.464 112.657 309.171 110.611 C 309.319 111.651 309.472 112.699 309.798 113.702 C 311.314 118.356 314.196 122.299 319 123.833 C 319.517 123.998 318.552 128.690 319 128.833 C 308.303 125.417 304.376 104.886 314.334 98.500 C 313.643 98.943 314.828 102.665 314.334 103.500 C 310.857 109.380 309.311 100.653 309.303 97.867 C 309.286 91.721 310.910 86.391 318.334 87.166 C 318.429 87.176 318.412 91.688 318.334 92.166 C 316.876 101.127 310.281 93.920 309.363 88.695 C 308.688 84.848 308.622 80.275 309.667 76.500 Z " transform="matrix(1, 0, 0, 1, 12.6, 20.4)"/>
              </g>
            </g>
          </g>
          <g id="ID0.7046981952153146">
            <path id="ID0.41059467010200024" fill="url(#grad_9)" stroke="none" stroke-width="1" d="M 489.611 177.472 C 485.059 202.087 454.655 218.528 445.739 217.804 C 436.017 217.015 413.226 188.804 417.777 164.187 C 422.329 139.572 442.100 122.590 461.936 126.257 C 481.772 129.926 494.163 152.856 489.611 177.472 Z " transform="matrix(1, 0, 0, 1, 12.6, 20.4)"/>
            <g id="ID0.4976371852681041">
              <g id="ID0.13067127345129848">
                <path id="ID0.4338560295291245" fill="#fbb040" stroke="none" stroke-width="1" d="M 444.667 221.333 C 444.110 221.136 445.157 216.506 444.665 216.333 C 449.240 217.950 449.320 220.044 449.010 224.428 C 448.711 228.678 442.586 231.640 440.665 235.333 C 440.665 233.666 440.665 232 440.665 230.333 C 446.025 231.989 446.944 236.314 445.910 241.474 C 445.264 244.702 443.464 247.494 442.338 250.554 C 442.046 251.345 441.735 252.147 441.558 252.974 C 441.012 255.532 440.643 250.309 441.525 252.702 C 442.071 254.183 442.862 255.247 443.999 256.334 C 444.851 257.148 443.187 260.558 443.999 261.334 C 440.696 258.176 440.994 253.912 441.266 249.666 C 441.580 244.775 445.926 240.754 445.976 235.908 C 445.982 237.331 445.988 238.753 445.994 240.176 C 445.662 237.237 443.242 236.130 440.667 235.334 C 440.525 235.290 440.464 230.725 440.667 230.334 C 442.515 226.781 448.712 223.675 448.999 219.607 C 449.001 221.244 449.003 222.880 449.006 224.517 C 448.517 222.537 446.387 221.940 444.667 221.333 Z " transform="matrix(1, 0, 0, 1, 12.6, 20.4)"/>
              </g>
            </g>
          </g>
          <g id="ID0.64091731980443">
            <path id="ID0.8477963036857545" fill="url(#grad_10)" stroke="none" stroke-width="1" d="M 474.075 92.752 C 469.523 117.367 439.119 133.808 430.203 133.084 C 420.480 132.295 397.689 104.084 402.240 79.467 C 406.793 54.852 426.564 37.870 446.400 41.538 C 466.236 45.206 478.627 68.137 474.075 92.752 Z " transform="matrix(1, 0, 0, 1, 12.6, 20.4)"/>
            <g id="ID0.0662257932126522">
              <g id="ID0.05058641219511628">
                <path id="ID0.7395926653407514" fill="#662d91" stroke="none" stroke-width="1" d="M 430.667 136.833 C 430.592 136.831 430.666 131.833 430.666 131.832 C 432.725 131.878 438.283 131.678 438.401 134.909 C 438.463 136.614 438.434 138.331 438.406 140.037 C 438.319 145.130 432.252 148.531 431.333 153.499 C 431.333 151.832 431.333 150.166 431.333 148.499 C 431.926 149.803 435.970 149.603 436.006 150.588 C 436.084 152.721 436.025 154.866 436.025 156.999 C 436.025 158.784 436.297 160.913 435.911 162.686 C 435.189 166.003 433.055 168.712 432.601 172.108 C 432.606 170.555 432.610 169.003 432.614 167.450 C 432.596 168.744 432.836 169.983 433.334 171.167 C 433.828 172.684 432.847 174.673 433.334 176.167 C 432.401 173.306 432.538 170.429 432.589 167.450 C 432.656 163.511 435.706 160.441 436 156.500 C 435.992 157.333 435.984 158.167 435.975 159 C 435.975 157 435.975 155 435.975 153 C 435.983 153.833 435.991 154.667 436 155.500 C 434.952 154.336 431.357 155.290 431.321 153.158 C 431.296 151.679 431.064 149.958 431.334 148.500 C 432.261 143.489 437.543 140.397 438.395 135.380 C 438.387 135.991 438.379 136.604 438.371 137.215 C 438.371 137.028 438.372 136.843 438.372 136.656 C 438.379 137.711 438.388 138.765 438.396 139.820 C 437.740 136.669 433.102 136.888 430.667 136.833 Z " transform="matrix(1, 0, 0, 1, 12.6, 20.4)"/>
              </g>
            </g>
          </g>
          <path id="ID0.3977632955648005" fill="url(#grad_11)" stroke="none" stroke-width="1" d="M 129.481 46.974 C 129.255 72.005 102.153 93.457 93.247 94.286 C 83.535 95.191 56.207 71.347 56.432 46.314 C 56.658 21.283 73.194 1.137 93.365 1.318 C 113.538 1.500 129.706 21.942 129.481 46.974 Z " transform="matrix(1, 0, 0, 1, 12.6, 20.4)"/>
          <g id="ID0.38331035198643804">
            <path id="ID0.3837280785664916" fill="url(#grad_12)" stroke="none" stroke-width="1" d="M 60.017 14.707 C 67.128 38.708 47.492 67.153 39.218 70.553 C 30.195 74.260 -2.914 59.459 -10.026 35.458 C -17.136 11.457 -7.221 -12.647 12.120 -18.378 C 31.461 -24.108 52.905 -9.295 60.017 14.707 Z " transform="matrix(1, 0, 0, 1, 12.6, 20.4)"/>
            <g id="ID0.8987905387766659">
              <g id="ID0.494807003531605">
                <path id="ID0.12218077387660742" fill="#009d9f" stroke="none" stroke-width="1" d="M 36.333 74.167 C 37.094 73.041 35.549 70.328 36.333 69.166 C 41.988 60.797 46.530 75.546 46.598 79.886 C 46.653 83.298 47.113 87.423 45.596 90.604 C 43.394 95.221 38.789 95.447 34.334 94.166 C 34.275 94.149 34.080 89.364 34.334 89.166 C 42.324 82.961 42.891 95.799 42.891 100.987 C 42.891 104.118 42.914 107.284 41.930 110.296 C 39.651 117.274 35.910 123.201 35.675 130.744 C 35.711 129.566 35.614 127.430 35.661 125.923 C 35.948 116.694 42.420 109.374 42.808 100.335 C 42.672 103.490 42.437 98.049 42.191 97.161 C 41.868 95.996 41.516 94.625 40.691 93.693 C 38.688 91.433 36.402 92.560 34.333 94.167 C 34.333 92.500 34.333 90.834 34.333 89.167 C 37.646 90.120 42.034 90.633 44.435 87.509 C 45.377 86.284 46.022 84.872 46.296 83.344 C 46.741 80.866 46.649 84.139 46.426 82.573 C 46.303 81.703 46.166 80.832 45.942 79.980 C 44.814 75.688 40.640 67.792 36.333 74.167 Z " transform="matrix(1, 0, 0, 1, 12.6, 20.4)"/>
              </g>
            </g>
          </g>
          <g id="ID0.9361727312207222">
            <path id="ID0.176386590115726" fill="url(#grad_13)" stroke="none" stroke-width="1" d="M 405.968 20.540 C 413.079 44.541 393.443 72.986 385.169 76.386 C 376.147 80.094 343.037 65.293 335.925 41.291 C 328.815 17.290 338.731 -6.814 358.071 -12.545 C 377.412 -18.275 398.856 -3.461 405.968 20.540 Z " transform="matrix(1, 0, 0, 1, 12.6, 20.4)"/>
            <g id="ID0.968140016309917">
              <g id="ID0.06197804631665349">
                <path id="ID0.3136002440005541" fill="#ec008c" stroke="none" stroke-width="1" d="M 383.583 79.167 C 382.885 78.816 384.221 74.487 383.583 74.168 C 387.567 76.168 388.498 80.986 387.323 85.187 C 385.733 90.878 378.839 96.004 372.916 95.835 C 373.073 95.839 372.579 91.016 372.916 90.835 C 383.450 85.178 385.648 113.467 373.583 109.835 C 373.483 109.805 373.421 104.897 373.583 104.835 C 377.671 103.287 377.987 108.570 378.189 111.401 C 378.523 116.075 377.911 122.218 380.916 126.168 C 381.732 127.241 380.127 130.131 380.916 131.168 C 378.233 127.640 378.561 122.339 378.303 118.126 C 378.128 115.288 378.274 108.058 373.583 109.834 C 373.583 108.167 373.583 106.501 373.583 104.834 C 375.486 105.406 377.805 105.606 379.269 103.942 C 379.965 103.150 380.531 102.260 380.812 101.231 C 381.559 98.494 381.428 102.326 381.071 100.674 C 380.149 96.413 377.249 93.508 372.917 95.834 C 372.917 94.167 372.917 92.501 372.917 90.834 C 378.912 91.005 386.546 85.516 387.438 79.408 C 387.430 80.241 387.422 81.075 387.413 81.908 C 387.413 81.654 387.413 81.399 387.412 81.145 C 387.420 81.978 387.428 82.812 387.437 83.645 C 387.056 81.340 385.594 80.176 383.583 79.167 Z " transform="matrix(1, 0, 0, 1, 12.6, 20.4)"/>
              </g>
            </g>
          </g>
          <g id="ID0.7753709275275469">
            <path id="ID0.6234510648064315" fill="url(#grad_14)" stroke="none" stroke-width="1" d="M 114.542 104.098 C 117.395 128.968 93.135 153.589 84.397 155.506 C 74.870 157.598 44.819 137.294 41.965 112.423 C 39.112 87.554 53.047 65.528 73.087 63.229 C 93.129 60.929 111.689 79.228 114.542 104.098 Z " transform="matrix(1, 0, 0, 1, 12.6, 20.4)"/>
            <g id="ID0.7502065915614367">
              <g id="ID0.506349541246891">
                <path id="ID0.9046120131388307" fill="#ef4136" stroke="none" stroke-width="1" d="M 83.950 155.500 C 83.145 156.459 84.786 159.504 83.951 160.500 C 82.883 161.773 81.740 163.114 81.112 164.677 C 80.331 166.618 81.140 167.124 80.413 164.675 C 80.828 166.072 81.597 167.468 82.951 168.167 C 85.600 169.535 88.103 168.541 88.355 165.436 C 88.352 167.073 88.350 168.709 88.348 170.347 C 88.298 169.186 88.569 166.967 87.018 168.553 C 86.232 169.356 85.435 170.188 85 171.250 C 84.152 173.320 83.850 172.931 84.741 175.080 C 85.159 176.090 85.586 177.154 86.300 178.003 C 86.337 178.048 88.608 180.283 88.615 179.800 C 88.631 178.721 88.765 177.787 89.284 176.833 C 89.284 178.500 89.284 180.166 89.284 181.833 C 82.103 187.228 85.151 194.993 90.617 200.833 C 91.466 201.740 89.804 204.964 90.617 205.833 C 84.354 199.141 80.648 183.321 89.284 176.833 C 88.554 177.382 89.784 180.914 89.284 181.833 C 88.739 182.835 88.647 183.671 88.630 184.825 C 88.631 184.939 88.627 185.054 88.617 185.167 C 83.570 181.519 83.688 175.181 84.075 169.566 C 84.211 167.588 88.129 160.166 88.327 164.745 C 88.407 166.606 88.428 168.485 88.361 170.347 C 88.162 175.792 81.138 173.973 80.412 169.675 C 79.520 164.384 80.460 159.657 83.950 155.500 Z " transform="matrix(1, 0, 0, 1, 12.6, 20.4)"/>
              </g>
            </g>
          </g>
          <g id="ID0.36965361004695296">
            <path id="ID0.7740453043952584" fill="url(#grad_15)" stroke="none" stroke-width="1" d="M 250.075 49.639 C 245.523 74.254 215.119 90.695 206.203 89.971 C 196.480 89.182 173.689 60.971 178.240 36.355 C 182.792 11.740 202.564 -5.242 222.399 -1.575 C 242.236 2.093 254.627 25.023 250.075 49.639 Z " transform="matrix(1, 0, 0, 1, 12.6, 20.4)"/>
            <g id="ID0.861215200740844">
              <g id="ID0.4906583270058036">
                <path id="ID0.9223950514569879" fill="#662d91" stroke="none" stroke-width="1" d="M 206.333 87.833 C 205.786 89.277 206.891 91.365 206.334 92.834 C 205.343 95.443 204.753 97.545 206.172 100.140 C 207.509 102.586 208.107 102.802 208.865 100.009 C 208.857 101.064 208.849 102.119 208.841 103.174 C 208.841 102.990 208.840 102.805 208.840 102.621 C 208.848 103.232 208.856 103.844 208.864 104.456 C 207.881 102 203.191 104.332 201.793 105.226 C 198.029 107.633 195.611 111.535 195.226 115.995 C 195.229 114.357 195.231 112.721 195.233 111.084 C 195.342 114.529 197.666 119.851 201.668 120.500 C 202.399 120.618 203.159 120.522 203.523 119.762 C 204.733 117.240 204.424 123.062 203.778 121.220 C 203.276 119.789 202.020 118.551 200.503 119.739 C 197.220 122.311 195.253 126.843 195.156 130.937 C 195.151 129.383 195.147 127.831 195.143 126.278 C 195.650 131.711 198.764 135.585 203.667 137.833 C 204.329 138.137 203.067 142.558 203.667 142.833 C 196.977 139.766 195.081 134.328 195.121 127.516 C 195.142 123.926 195.792 120.779 197.885 117.725 C 198.582 116.709 201.042 112.928 202.792 114.598 C 204.767 116.483 204.119 120.830 203.959 123.279 C 203.895 124.281 203.037 126.207 201.667 125.500 C 198.147 123.683 195.876 121.154 195.263 117.172 C 194.587 112.781 195.160 107.145 198.017 103.689 C 198.985 102.518 208.795 95.066 208.876 99.797 C 208.905 101.501 208.933 103.216 208.871 104.919 C 208.821 106.274 208.006 108.496 206.839 106.361 C 205.900 104.644 205.377 103.048 205.062 101.118 C 204.375 96.921 204.857 91.719 206.333 87.833 Z " transform="matrix(1, 0, 0, 1, 12.6, 20.4)"/>
              </g>
            </g>
          </g>
          <g id="ID0.008098849095404148">
            <g id="ID0.4041849309578538">
              <g id="ID0.6396087929606438">
                <path id="ID0.8329247548244894" fill="#ec008c" stroke="none" stroke-width="1" d="M 29.333 184.935 C 29.309 184.935 29.282 179.935 29.333 179.935 C 34.948 179.890 35.121 186.046 35.109 190.219 C 35.099 193.826 34.319 199.690 29.333 196.935 C 29.151 196.834 29.131 192.060 29.333 191.935 C 35.017 188.423 37.520 194.538 37.533 199.306 C 37.547 204.607 36.755 209.745 30 208.935 C 29.977 208.932 29.857 203.965 30 203.935 C 35.950 202.694 35.127 211.087 35.117 214.850 C 35.102 220.157 32.868 227.947 36 232.602 C 36.783 233.766 35.240 236.473 36 237.602 C 33.441 233.799 34.349 227.034 34.556 222.662 C 34.651 220.641 34.796 218.625 34.911 216.605 C 34.967 215.620 35.029 214.633 35.054 213.646 C 34.979 216.576 34.955 213.375 34.785 212.603 C 34.195 209.922 32.894 208.331 29.999 208.935 C 29.999 207.268 29.999 205.602 29.999 203.935 C 34.184 204.437 37.132 202.466 37.503 198.163 C 37.496 198.576 37.489 198.988 37.482 199.401 C 37.459 202.999 37.069 199.531 36.478 198.550 C 36.060 197.859 35.591 197.106 34.900 196.648 C 32.995 195.386 31.197 195.784 29.333 196.935 C 29.333 195.268 29.333 193.602 29.333 191.935 C 32.333 193.593 34.675 191.862 34.996 188.552 C 34.635 192.274 34.979 189.658 34.337 188.320 C 34.031 187.682 33.717 186.986 33.203 186.479 C 32.061 185.352 30.936 184.922 29.333 184.935 Z " transform="matrix(1, 0, 0, 1, 12.6, 20.4)"/>
              </g>
            </g>
            <path id="ID0.7024120693095028" fill="url(#grad_16)" stroke="none" stroke-width="1" d="M 61.770 133 C 65.917 157.687 42.975 183.539 34.351 185.910 C 24.945 188.496 -6.125 169.789 -10.273 145.101 C -14.419 120.414 -1.653 97.691 18.239 94.349 C 38.134 91.008 57.623 108.313 61.770 133 Z " transform="matrix(1, 0, 0, 1, 12.6, 20.4)"/>
          </g>
          <g id="ID0.8458343259990215">
            <path id="ID0.06267888424918056" fill="url(#grad_17)" stroke="none" stroke-width="1" d="M 65.342 186.441 C 72.828 210.328 53.639 239.077 45.419 242.606 C 36.456 246.455 3.119 232.173 -4.368 208.286 C -11.853 184.399 -2.317 160.142 16.932 154.110 C 36.181 148.078 57.855 162.554 65.342 186.441 Z " transform="matrix(1, 0, 0, 1, 12.6, 20.4)"/>
            <g id="ID0.967220023740083">
              <g id="ID0.4047991340048611">
                <path id="ID0.06971674505621195" fill="#f7941e" stroke="none" stroke-width="1" d="M 43.333 245.833 C 43.072 245.797 43.521 240.858 43.333 240.832 C 50.262 241.781 49.677 252.736 48.833 257.916 C 48.128 262.244 46.172 267.969 41.708 269.806 C 39.368 270.769 39.125 270.303 39.086 268.007 C 39.064 266.698 39.068 265.389 39.081 264.081 C 39.155 256.694 46.397 266.926 46.884 269.826 C 48.002 276.494 46.958 282.118 39.333 283.166 C 39.333 281.499 39.333 279.833 39.333 278.166 C 43.734 282.472 42.685 290.969 42.691 296.666 C 42.694 299.494 42.644 299.494 42.641 296.666 C 42.636 292.329 42.697 286.457 39.332 283.166 C 39.043 282.883 39.377 278.160 39.332 278.166 C 41.812 277.825 45.055 277.126 46.307 274.631 C 46.578 274.090 46.846 273.540 46.938 272.934 C 47.116 275.665 47.098 276.296 46.883 274.827 C 46.633 273.753 46.307 272.695 45.798 271.711 C 45.372 270.888 40.915 263.985 39.473 266.689 C 38.779 267.990 39.766 268.122 39.199 264.691 C 39.065 265.555 39.385 265.775 40.158 265.352 C 41.479 264.964 42.753 264.404 43.771 263.444 C 45.747 261.583 47.193 259.221 47.979 256.615 C 48.513 254.842 48.952 253.009 49.006 251.147 C 48.916 254.269 48.427 250.290 47.999 249.434 C 46.990 247.415 45.614 246.145 43.333 245.833 Z " transform="matrix(1, 0, 0, 1, 12.6, 20.4)"/>
              </g>
            </g>
          </g>
          <g id="ID0.3169702119193971">
            <g id="ID0.36815836234018207">
              <g id="ID0.4241007943637669">
                <path id="ID0.19306282699108124" fill="#ec008c" stroke="none" stroke-width="1" d="M 169.614 51.167 C 169.115 49.828 170.101 47.475 169.613 46.168 C 171.215 50.471 171.613 54.262 171.594 58.949 C 171.569 64.499 169.443 68.045 166.195 71.168 C 166.195 69.501 166.195 67.835 166.195 66.168 C 169.919 69.232 170.373 72.869 170.362 78.250 C 170.353 83.099 168.944 88.542 166.266 91.888 C 163.925 94.813 157.782 97.927 156.679 91.338 C 156.519 90.380 156.228 85.651 157.051 85.082 C 163.723 80.472 163.193 96.106 163.193 101.117 C 163.193 105.149 164.022 109.079 165.315 112.711 C 166.823 116.950 168.551 118.239 169.613 112.836 C 169.613 114.503 169.613 116.169 169.613 117.836 C 168.858 118.539 168.044 119.341 167.643 120.516 C 167.437 121.027 167.284 121.567 167.184 122.134 C 167.077 120.457 167.109 120.332 167.281 121.756 C 167.777 124.271 168.542 126.647 169.508 128.894 C 171.302 133.067 173.480 136.847 175.473 140.836 C 176.050 141.990 174.913 144.717 175.473 145.836 C 172.476 139.835 167.815 133.293 167.138 125.780 C 166.721 121.145 166.496 115.736 169.614 112.836 C 169.206 113.215 169.775 117.018 169.614 117.836 C 168.423 123.892 166.371 121.275 165.042 116.872 C 164.025 113.504 163.214 110.145 163.166 106.493 C 163.109 102.089 163.553 97.148 162.352 92.965 C 161.907 91.415 161.144 89.460 159.743 89.327 C 158.712 89.229 156.739 89.364 156.686 91.249 C 156.684 89.612 156.682 87.975 156.681 86.338 C 157.333 90.237 161.322 91.279 163.611 89.550 C 167.365 86.714 169.918 80.886 170.346 75.085 C 170.341 76.339 170.335 77.593 170.330 78.847 C 170.329 78.470 170.327 78.094 170.325 77.718 C 170.330 78.130 170.335 78.543 170.341 78.956 C 169.995 75.248 168.486 73.051 166.196 71.168 C 166.053 71.050 166.037 66.321 166.196 66.168 C 168.181 64.259 170.447 61.840 171.157 58.486 C 171.424 57.225 171.495 57.256 170.954 55.288 C 170.563 53.862 170.119 52.524 169.614 51.167 Z " transform="matrix(1, 0, 0, 1, 12.6, 20.4)"/>
              </g>
            </g>
            <path id="ID0.6706933150999248" fill="url(#grad_18)" stroke="none" stroke-width="1" d="M 192.835 14.707 C 199.946 38.708 180.310 67.153 172.036 70.553 C 163.014 74.261 129.904 59.460 122.792 35.458 C 115.682 11.457 125.597 -12.647 144.938 -18.378 C 164.280 -24.108 185.724 -9.295 192.835 14.707 Z " transform="matrix(1, 0, 0, 1, 12.6, 20.4)"/>
          </g>
        </g>
      </g>
    </g>
  </g>
</svg>