<svg xmlns="http://www.w3.org/2000/svg" xmlns:xlink="http://www.w3.org/1999/xlink" version="1.1" width="287.4554671985403" height="129.81406400029812" viewBox="-0.7277335992701462 -0.7277335992701462 287.4554671985403 129.81406400029812">
  <!-- Exported by Scratch - http://scratch.mit.edu/ -->
  <path id="ID0.4177084397524595_15_" fill="none" d="M 286 0 L 0 0 L 0 13.0006 L 286 13.0006 L 286 0 Z " stroke-width="1.4554671985402925"/>
  <path id="ID0.7970016268081963" fill="#FFFFFF" d="M 51.05 29.43 L 51.18 26.19 C 58.79 28.24 66.26 29.35 73.8 29.58 C 75.69 29.64 77.57 29.64 79.44 29.57 C 97.06 30.19 113.69 23.3 130.15 23.73 C 133.07 24.09 144.34 25.14 149.06 26.19 C 149.06 26.19 149.06 26.9 149.06 27.69 C 149.06 28.22 149.06 28.79 149.06 29.19 L 149.06 42.26 L 51.06 42.26 L 51.06 29.44 C 51.06 29.44 51.06 29.44 51.05 29.43 Z " stroke-width="1"/>
  <path id="ID0.40872410451993346" fill="#BBD8ED" d="M 51.05 32.43 L 51.18 29.19 C 58.79 31.24 66.26 32.35 73.8 32.58 C 75.69 32.64 77.57 32.64 79.44 32.57 C 97.06 33.19 113.86 26.3 130.15 26.73 C 133.07 27.09 144.34 28.14 149.06 29.19 C 149.06 29.19 149.06 29.9 149.06 30.69 C 149.06 31.22 149.06 31.79 149.06 32.19 L 149.06 47.26 L 51.06 47.26 L 51.06 32.44 C 51.06 32.44 51.06 32.44 51.05 32.43 Z " stroke-width="1"/>
  <path id="ID0.6072941836901009" fill="#95BFDE" d="M 51.05 42.43 L 51.18 39.19 C 58.79 41.24 66.26 42.35 73.8 42.58 C 75.69 42.64 77.57 42.64 79.44 42.57 C 97.06 43.19 113.69 36.31 130.15 36.73 C 133.07 37.09 144.34 38.14 149.06 39.19 C 149.06 39.19 149.06 39.9 149.06 40.69 C 149.06 41.22 149.06 41.79 149.06 42.19 L 149.06 62.26 L 51.06 62.26 L 51.06 42.44 C 51.06 42.44 51.06 42.44 51.05 42.43 Z " stroke-width="1"/>
  <path id="ID0.6924649365246296" fill="#79AED4" d="M 51.05 55.3881 L 51.18 53.6781 C 58.79 54.76 66.26 55.3458 73.8 55.4672 C 75.69 55.4989 77.57 55.4989 79.44 55.4619 C 97.06 55.7892 113.53 52.1528 130.15 52.3797 C 133.07 52.5697 144.34 53.1239 149.06 53.6781 C 149.06 53.6781 149.06 54.0528 149.06 54.4697 C 149.06 54.7494 149.06 55.0503 149.06 55.2614 L 149.06 128.3586 L 51.06 128.3586 L 51.06 55.3933 C 51.06 55.3933 51.06 55.3933 51.05 55.3881 Z " stroke-width="0.7995465579618819"/>
  <path id="ID0.7970016268081963" fill="#FFFFFF" d="M 146.3 29.43 L 146.43 26.19 C 154.04 28.24 161.51 29.35 169.05 29.58 C 170.94 29.64 172.82 29.64 174.69 29.57 C 192.31 30.19 208.94 23.3 225.4 23.73 C 228.32 24.09 239.59 25.14 244.31 26.19 C 244.31 26.19 244.31 26.9 244.31 27.69 C 244.31 28.22 244.31 28.79 244.31 29.19 L 244.31 42.26 L 146.31 42.26 L 146.31 29.44 C 146.31 29.44 146.31 29.44 146.3 29.43 Z " stroke-width="1"/>
  <path id="ID0.40872410451993346" fill="#BBD8ED" d="M 146.3 32.43 L 146.43 29.19 C 154.04 31.24 161.51 32.35 169.05 32.58 C 170.94 32.64 172.82 32.64 174.69 32.57 C 192.31 33.19 209.11 26.3 225.4 26.73 C 228.32 27.09 239.59 28.14 244.31 29.19 C 244.31 29.19 244.31 29.9 244.31 30.69 C 244.31 31.22 244.31 31.79 244.31 32.19 L 244.31 47.26 L 146.31 47.26 L 146.31 32.44 C 146.31 32.44 146.31 32.44 146.3 32.43 Z " stroke-width="1"/>
  <path id="ID0.6072941836901009" fill="#95BFDE" d="M 146.3 42.43 L 146.43 39.19 C 154.04 41.24 161.51 42.35 169.05 42.58 C 170.94 42.64 172.82 42.64 174.69 42.57 C 192.31 43.19 208.94 36.31 225.4 36.73 C 228.32 37.09 239.59 38.14 244.31 39.19 C 244.31 39.19 244.31 39.9 244.31 40.69 C 244.31 41.22 244.31 41.79 244.31 42.19 L 244.31 62.26 L 146.31 62.26 L 146.31 42.44 C 146.31 42.44 146.31 42.44 146.3 42.43 Z " stroke-width="1"/>
  <path id="ID0.6924649365246296" fill="#79AED4" d="M 146.3 55.3881 L 146.43 53.6781 C 154.04 54.76 161.51 55.3458 169.05 55.4672 C 170.94 55.4989 172.82 55.4989 174.69 55.4619 C 192.31 55.7892 208.78 52.1528 225.4 52.3797 C 228.32 52.5697 239.59 53.1239 244.31 53.6781 C 244.31 53.6781 244.31 54.0528 244.31 54.4697 C 244.31 54.7494 244.31 55.0503 244.31 55.2614 L 244.31 128.3586 L 146.31 128.3586 L 146.31 55.3933 C 146.31 55.3933 146.31 55.3933 146.3 55.3881 Z " stroke-width="0.7995465579618819"/>
</svg>