<svg xmlns="http://www.w3.org/2000/svg" xmlns:xlink="http://www.w3.org/1999/xlink" xmlns:a="http://ns.adobe.com/AdobeSVGViewerExtensions/3.0/" version="1.1" x="0px" y="0px" width="120.43000030517578" height="33" viewBox="-0.5 -0.5 120.43000030517578 33" enable-background="new -339.58 -284 800 600" xml:space="preserve">
  <defs/>
  <g>
    <rect fill="none" width="107.29" height="32" stroke-width="1"/>
    <path fill="#FBB03B" d="M119.42,20.86c0,6.15-2.51,11.14-5.62,11.14H89.04c-3.1,0-5.62-4.99-5.62-11.14v-9.71&#13;&#10;&#9;C83.42,4.99,85.94,0,89.04,0h24.77c3.1,0,5.62,4.99,5.62,11.14V20.86z" stroke-width="1"/>
    <path d="M9.85,20.14L7.18,9.55v11.47c0,0.63-0.14,1.11-0.43,1.43c-0.28,0.32-0.66,0.48-1.13,0.48c-0.45,0-0.82-0.16-1.11-0.47&#13;&#10;&#9;c-0.29-0.31-0.43-0.79-0.43-1.43V7.88c0-0.73,0.19-1.21,0.57-1.47s0.89-0.38,1.53-0.38h1.04c0.63,0,1.08,0.06,1.37,0.17&#13;&#10;&#9;s0.49,0.32,0.63,0.61c0.14,0.29,0.29,0.77,0.46,1.44l2.41,9.1l2.41-9.1c0.17-0.67,0.33-1.14,0.46-1.44c0.14-0.29,0.35-0.5,0.63-0.61&#13;&#10;&#9;c0.28-0.11,0.74-0.17,1.37-0.17h1.04c0.64,0,1.15,0.13,1.53,0.38s0.57,0.74,0.57,1.47v13.15c0,0.63-0.14,1.11-0.43,1.43&#13;&#10;&#9;c-0.28,0.32-0.66,0.48-1.14,0.48c-0.45,0-0.81-0.16-1.1-0.48s-0.43-0.79-0.43-1.43V9.55l-2.66,10.59c-0.17,0.69-0.32,1.19-0.42,1.51&#13;&#10;&#9;c-0.11,0.32-0.31,0.61-0.61,0.88c-0.29,0.26-0.7,0.4-1.22,0.4c-0.39,0-0.73-0.08-1-0.25s-0.48-0.39-0.63-0.65&#13;&#10;&#9;c-0.15-0.26-0.27-0.56-0.36-0.88C10.03,20.82,9.94,20.49,9.85,20.14z" stroke-width="1" />
    <path d="M31.4,21.18v-0.4c-0.37,0.47-0.76,0.86-1.17,1.18c-0.41,0.32-0.85,0.55-1.34,0.71c-0.48,0.16-1.04,0.23-1.65,0.23&#13;&#10;&#9;c-0.75,0-1.42-0.16-2.01-0.46s-1.05-0.74-1.38-1.28c-0.39-0.66-0.58-1.6-0.58-2.83v-6.13c0-0.62,0.14-1.08,0.42-1.39&#13;&#10;&#9;c0.28-0.31,0.65-0.46,1.11-0.46c0.47,0,0.85,0.15,1.13,0.46c0.29,0.31,0.43,0.77,0.43,1.38v4.95c0,0.72,0.06,1.32,0.18,1.81&#13;&#10;&#9;s0.34,0.87,0.65,1.14c0.31,0.28,0.74,0.41,1.28,0.41c0.52,0,1.01-0.16,1.47-0.46s0.8-0.71,1.01-1.21c0.17-0.44,0.26-1.4,0.26-2.88&#13;&#10;&#9;v-3.76c0-0.61,0.14-1.07,0.43-1.38c0.29-0.31,0.66-0.46,1.12-0.46c0.46,0,0.83,0.15,1.11,0.46c0.28,0.31,0.42,0.77,0.42,1.39v8.97&#13;&#10;&#9;c0,0.59-0.13,1.03-0.4,1.33c-0.27,0.29-0.61,0.44-1.04,0.44s-0.77-0.15-1.05-0.46S31.4,21.74,31.4,21.18z" stroke-width="1" />
    <path d="M47.34,18.88c0,0.85-0.21,1.58-0.62,2.19c-0.42,0.61-1.03,1.07-1.84,1.38s-1.8,0.47-2.96,0.47c-1.11,0-2.06-0.17-2.86-0.51&#13;&#10;&#9;c-0.79-0.34-1.38-0.77-1.76-1.28c-0.38-0.51-0.57-1.02-0.57-1.54c0-0.34,0.12-0.63,0.36-0.87c0.24-0.24,0.55-0.36,0.92-0.36&#13;&#10;&#9;c0.32,0,0.57,0.08,0.75,0.24c0.17,0.16,0.34,0.38,0.5,0.67c0.32,0.55,0.7,0.96,1.14,1.24c0.44,0.27,1.04,0.41,1.81,0.41&#13;&#10;&#9;c0.62,0,1.13-0.14,1.52-0.41c0.4-0.28,0.59-0.59,0.59-0.95c0-0.54-0.21-0.94-0.62-1.19c-0.41-0.25-1.09-0.49-2.04-0.71&#13;&#10;&#9;c-1.07-0.26-1.93-0.54-2.6-0.83c-0.67-0.29-1.2-0.67-1.6-1.15c-0.4-0.48-0.6-1.06-0.6-1.76c0-0.62,0.19-1.21,0.56-1.76&#13;&#10;&#9;s0.92-0.99,1.64-1.32c0.72-0.33,1.59-0.49,2.61-0.49c0.8,0,1.52,0.08,2.16,0.25s1.17,0.39,1.6,0.67c0.43,0.28,0.75,0.59,0.97,0.93&#13;&#10;&#9;c0.22,0.34,0.33,0.67,0.33,1c0,0.36-0.12,0.65-0.36,0.87c-0.24,0.23-0.58,0.34-1.01,0.34c-0.32,0-0.59-0.09-0.81-0.27&#13;&#10;&#9;c-0.22-0.18-0.48-0.45-0.76-0.82c-0.23-0.3-0.51-0.54-0.83-0.73c-0.32-0.18-0.75-0.27-1.29-0.27c-0.56,0-1.02,0.12-1.39,0.36&#13;&#10;&#9;c-0.37,0.24-0.55,0.53-0.55,0.89c0,0.33,0.14,0.59,0.41,0.8c0.27,0.21,0.64,0.38,1.1,0.52c0.46,0.14,1.1,0.3,1.9,0.5&#13;&#10;&#9;c0.96,0.23,1.74,0.51,2.35,0.84s1.07,0.71,1.38,1.15S47.34,18.32,47.34,18.88z" stroke-width="1" />
    <path d="M51.53,8.91c-0.43,0-0.8-0.13-1.1-0.4c-0.31-0.26-0.46-0.64-0.46-1.12c0-0.44,0.16-0.8,0.47-1.08&#13;&#10;&#9;c0.31-0.28,0.68-0.43,1.09-0.43c0.4,0,0.76,0.13,1.07,0.39c0.31,0.26,0.46,0.63,0.46,1.12c0,0.48-0.15,0.85-0.45,1.12&#13;&#10;&#9;C52.3,8.77,51.94,8.91,51.53,8.91z M53.06,12.1v8.94c0,0.62-0.15,1.09-0.44,1.41c-0.29,0.32-0.67,0.48-1.12,0.48&#13;&#10;&#9;c-0.45,0-0.82-0.16-1.11-0.49s-0.42-0.79-0.42-1.39v-8.85c0-0.61,0.14-1.07,0.42-1.38c0.28-0.31,0.65-0.46,1.11-0.46&#13;&#10;&#9;c0.45,0,0.83,0.15,1.12,0.46C52.91,11.12,53.06,11.55,53.06,12.1z" stroke-width="1" />
    <path d="M67.35,19.1c0,0.39-0.12,0.8-0.35,1.24c-0.23,0.44-0.58,0.86-1.05,1.25c-0.47,0.4-1.07,0.72-1.79,0.96&#13;&#10;&#9;c-0.72,0.24-1.53,0.36-2.43,0.36c-1.91,0-3.4-0.56-4.48-1.67c-1.07-1.11-1.61-2.61-1.61-4.48c0-1.27,0.25-2.39,0.74-3.37&#13;&#10;&#9;s1.2-1.73,2.13-2.26c0.93-0.53,2.04-0.8,3.33-0.8c0.8,0,1.54,0.12,2.21,0.35s1.24,0.54,1.7,0.91s0.82,0.76,1.07,1.18&#13;&#10;&#9;c0.25,0.42,0.37,0.81,0.37,1.17c0,0.37-0.14,0.68-0.41,0.94c-0.28,0.26-0.61,0.39-1,0.39c-0.26,0-0.47-0.07-0.64-0.2&#13;&#10;&#9;c-0.17-0.13-0.36-0.35-0.57-0.64c-0.38-0.57-0.77-1-1.18-1.29c-0.41-0.29-0.94-0.43-1.57-0.43c-0.91,0-1.65,0.36-2.21,1.07&#13;&#10;&#9;c-0.56,0.71-0.84,1.69-0.84,2.93c0,0.58,0.07,1.12,0.21,1.6s0.35,0.9,0.62,1.25c0.27,0.34,0.6,0.6,0.99,0.78&#13;&#10;&#9;c0.39,0.18,0.81,0.27,1.27,0.27c0.62,0,1.15-0.14,1.59-0.43s0.83-0.73,1.17-1.32c0.19-0.35,0.39-0.62,0.61-0.82&#13;&#10;&#9;c0.22-0.2,0.49-0.29,0.8-0.29c0.38,0,0.69,0.14,0.94,0.43C67.22,18.47,67.35,18.77,67.35,19.1z" stroke-width="1" />
  </g>
</svg>