<svg version="1.1" xmlns="http://www.w3.org/2000/svg" xmlns:xlink="http://www.w3.org/1999/xlink" width="547.88015" height="413.5786" viewBox="0,0,547.88015,413.5786"><defs><radialGradient cx="18.65205" cy="81.73234" r="74.32182" gradientUnits="userSpaceOnUse" id="color-1"><stop offset="0" stop-color="#c08bf5"/><stop offset="1" stop-color="#6e28b4"/></radialGradient><radialGradient cx="104.36585" cy="-5.49323" r="83.62382" gradientUnits="userSpaceOnUse" id="color-2"><stop offset="0" stop-color="#fcfcf1"/><stop offset="0.2699" stop-color="#fde754"/><stop offset="0.7423" stop-color="#eeba31"/><stop offset="1" stop-color="#e6a124"/></radialGradient><radialGradient cx="487.19557" cy="117.6884" r="69.59382" gradientUnits="userSpaceOnUse" id="color-3"><stop offset="0" stop-color="#ff99e5"/><stop offset="1" stop-color="#ff00bf"/></radialGradient><radialGradient cx="439.25085" cy="-58.04169" r="83.6235" gradientUnits="userSpaceOnUse" id="color-4"><stop offset="0" stop-color="#ffffff"/><stop offset="1" stop-color="#d7df23"/></radialGradient><radialGradient cx="433.71518" cy="7.58374" r="83.62306" gradientUnits="userSpaceOnUse" id="color-5"><stop offset="0" stop-color="#fcfcf1"/><stop offset="0.2577" stop-color="#f7941e"/><stop offset="0.7423" stop-color="#ef4136"/><stop offset="1" stop-color="#be1e2d"/></radialGradient><linearGradient x1="408.4229" y1="-149.59031" x2="411.88278" y2="-50.51139" gradientUnits="userSpaceOnUse" id="color-6"><stop offset="0" stop-color="#2e368f"/><stop offset="0.0234" stop-color="#333590"/><stop offset="0.3273" stop-color="#583393"/><stop offset="0.6019" stop-color="#6e3894"/><stop offset="0.8354" stop-color="#7c3895"/><stop offset="1" stop-color="#803895"/></linearGradient><radialGradient cx="260.51894" cy="5.47798" r="66.53826" gradientUnits="userSpaceOnUse" id="color-7"><stop offset="0" stop-color="#99ffbb"/><stop offset="1" stop-color="#009933"/></radialGradient><radialGradient cx="323.78148" cy="15.27883" r="65.78938" gradientUnits="userSpaceOnUse" id="color-8"><stop offset="0" stop-color="#00ffff"/><stop offset="1" stop-color="#0033cc"/></radialGradient><radialGradient cx="476.3067" cy="161.80979" r="72.60573" gradientUnits="userSpaceOnUse" id="color-9"><stop offset="0" stop-color="#ffff99"/><stop offset="1" stop-color="#ff9400"/></radialGradient><radialGradient cx="438.1889" cy="74.13333" r="76.47243" gradientUnits="userSpaceOnUse" id="color-10"><stop offset="0" stop-color="#cc99ff"/><stop offset="1" stop-color="#4c0099"/></radialGradient><radialGradient cx="81.87998" cy="28.33933" r="70.45049" gradientUnits="userSpaceOnUse" id="color-11"><stop offset="0" stop-color="#99ffbb"/><stop offset="1" stop-color="#009933"/></radialGradient><radialGradient cx="17.54961" cy="13.10569" r="66.93658" gradientUnits="userSpaceOnUse" id="color-12"><stop offset="0" stop-color="#00ffff"/><stop offset="1" stop-color="#0033cc"/></radialGradient><radialGradient cx="364.95421" cy="13.44615" r="83.62306" gradientUnits="userSpaceOnUse" id="color-13"><stop offset="0" stop-color="#ffffff"/><stop offset="1" stop-color="#ec008c"/></radialGradient><radialGradient cx="72.02187" cy="103.51185" r="62.29124" gradientUnits="userSpaceOnUse" id="color-14"><stop offset="0" stop-color="#ffc341"/><stop offset="1" stop-color="#ff7320"/></radialGradient><radialGradient cx="216.99808" cy="18.55636" r="76.73222" gradientUnits="userSpaceOnUse" id="color-15"><stop offset="0" stop-color="#cc99ff"/><stop offset="1" stop-color="#4c0099"/></radialGradient><radialGradient cx="-4.15495" cy="125.3383" r="74.4684" gradientUnits="userSpaceOnUse" id="color-16"><stop offset="0" stop-color="#ff9df8"/><stop offset="1" stop-color="#ff308b"/></radialGradient><radialGradient cx="37.71097" cy="177.43057" r="83.6236" gradientUnits="userSpaceOnUse" id="color-17"><stop offset="0" stop-color="#fcfcf1"/><stop offset="0.2699" stop-color="#fde754"/><stop offset="0.7423" stop-color="#eeba31"/><stop offset="1" stop-color="#e6a124"/></radialGradient><radialGradient cx="137.42538" cy="18.55235" r="69.96014" gradientUnits="userSpaceOnUse" id="color-18"><stop offset="0" stop-color="#ff9df8"/><stop offset="1" stop-color="#ff308b"/></radialGradient></defs><g transform="translate(33.94008,26.7893)"><g data-paper-data="{&quot;isPaintingLayer&quot;:true}" fill-rule="nonzero" stroke-linecap="butt" stroke-linejoin="miter" stroke-miterlimit="10" stroke-dasharray="" stroke-dashoffset="0" style="mix-blend-mode: normal"><path d="M-20.50945,-5.42514h521.8631v311.59258h-521.8631z" fill="#ffffff" stroke="#ffffff" stroke-width="2"/><g stroke="none" stroke-width="1"><g fill="#f7941e"><g><path d="M110.59149,94.2627c-0.13074,-0.00654 0.04903,-5.44524 -0.00109,-5.44633c8.41082,0.41618 9.49486,9.28241 9.47634,15.92064c-0.01743,6.33862 -2.49383,13.76019 -10.20193,9.86419c-0.65587,-0.3312 0.58614,-5.24914 0,-5.44742c2.5276,0.85525 4.38082,-4.03545 7.04788,-3.22814c3.19764,0.96746 3.18892,5.62283 3.19655,8.41191c0.00872,3.10612 0.00872,6.09784 -1.55469,8.92506c-1.63641,2.95904 -5.36244,7.63075 -7.96304,2.95904c-0.29525,-0.5284 0.25712,-5.41256 0,-5.44742c11.8318,1.6168 6.1959,28.48675 3.63125,35.2263c0.59813,-1.57104 -0.60902,-3.84806 0,-5.44742c2.37508,-6.24057 6.77986,-22.9075 -3.63125,-24.33146c0,-1.81617 0,-3.63125 0,-5.44742c3.83608,6.8899 9.20941,-4.95498 9.49159,-8.43697c-0.00327,1.78349 -0.00545,3.56697 -0.00763,5.35046c-0.12311,-2.5069 -1.50458,-8.01316 -5.12602,-5.81022c-1.29976,0.78988 -3.4395,3.27935 -5.08462,2.72371c0,-1.81617 0,-3.63125 0,-5.44742c5.37225,2.715 9.60272,-0.38459 10.08209,-6.20679c-0.22988,2.79017 -0.53821,-1.11345 -0.92497,-2.06239c-0.51097,-1.25618 -1.09929,-2.54939 -2.02208,-3.56697c-1.76605,-1.94909 -3.77506,-2.92418 -6.40835,-3.05491z"/></g></g><path d="M55.35572,90.49308c7.74732,26.14872 -13.64579,57.13911 -22.6591,60.84335c-9.82933,4.03981 -45.90216,-12.08565 -53.65058,-38.23546c-7.74624,-26.14872 3.056,-52.40965 24.12772,-58.65349c21.07281,-6.24275 44.43463,9.89688 52.18195,36.0456z" fill="url(#color-1)"/><path d="M157.88493,48.6547c-4.95933,26.81766 -38.08402,44.72988 -47.79787,43.94109c-10.59197,-0.8596 -35.42241,-31.59505 -30.46417,-58.41489c4.95933,-26.81766 26.50062,-45.31929 48.11164,-41.32415c21.60993,3.99732 35.10973,28.9792 30.1504,55.79795z" fill="url(#color-2)"/><path d="M513.07323,136.40505c-2.51126,27.15758 -33.8797,47.99397 -43.62296,48.08658c-10.62792,0.1035 -38.1385,-28.25905 -35.62723,-55.41663c2.51235,-27.15649 22.28976,-47.53203 44.17315,-45.50886c21.88448,2.02426 37.58831,25.68133 35.07704,52.83891z" fill="url(#color-3)"/><g><path d="M488.26349,52.30556c-4.95933,26.81766 -38.08402,44.72988 -47.79787,43.94109c-10.59306,-0.8596 -35.4235,-31.59505 -30.46526,-58.41489c4.96042,-26.81766 26.50062,-45.31929 48.11164,-41.32415c21.61102,3.99732 35.11082,28.98029 30.15148,55.79795z" fill="url(#color-4)"/><g fill="#8dc63f"><g><path d="M441.0692,95.71498c0.38568,0.07626 -0.30506,5.3875 0.00109,5.44633c-2.7662,-0.54692 -6.56197,-1.04046 -6.91605,2.64309c0.00545,-1.69197 0.00981,-3.38285 0.01416,-5.07482c0.15144,6.95527 7.39324,12.2055 7.6362,18.87096c0.08171,2.23344 0.4968,5.44742 -0.3933,7.56974c-1.88699,4.49521 -6.20788,7.46951 -6.91169,12.48876c0.00218,-1.78349 0.00545,-3.56697 0.00763,-5.35046c0.04031,1.52855 0.05447,7.50655 3.02332,7.44009c2.68558,-0.05992 3.91343,-2.71173 4.99202,-4.81443c0,1.81617 0,3.63125 0,5.44742c-4.86128,1.96325 -7.21892,5.6261 -7.67978,10.78045c0.00763,-1.36621 0.01525,-2.73243 0.02288,-4.09864c0.00218,0.49136 0.00436,0.98054 0.00763,1.4708c-0.00763,-0.44887 -0.01525,-0.89882 -0.02397,-1.34878c0.0523,1.01213 0.18957,2.01337 0.41074,3.00153c0.31704,1.76496 -0.31486,3.69662 0,5.44742c-1.388,-7.73316 -1.0982,-17.3228 7.2625,-20.70021c-0.52186,0.21136 0.36716,4.73272 0,5.44742c-1.26162,2.46006 -5.65551,7.97394 -7.35511,2.4034c-0.78116,-2.55702 -0.69618,-5.2012 -0.69618,-7.84974c0,-2.60278 0.09261,-4.92883 1.62115,-7.21021c2.20294,-3.28589 5.33303,-6.08804 5.70345,-10.22154c0,1.81617 0,3.63125 0,5.44742c-0.58505,-6.53691 -6.84741,-11.77515 -7.62857,-18.50381c-0.22334,-1.92839 -0.19938,-4.15965 -0.01416,-6.08913c0.35517,-3.68355 4.14985,-3.19001 6.91605,-2.64309z"/></g></g></g><g fill="#009933"><g><path d="M81.17541,99.34732c-0.57525,-0.19066 0.50225,-5.28291 0,-5.44742c13.28191,4.37319 0.07517,20.81678 -0.7463,28.5859c0.00327,-1.78349 0.00545,-3.56697 0.00763,-5.35046c0.07408,3.06472 4.75124,2.85336 5.09661,5.81785c0.20482,1.75407 0.23424,3.42534 0.22988,5.19139c-0.01525,5.61738 -1.30738,11.18138 -1.77259,16.78024c0.00654,-1.55034 0.01307,-3.10067 0.01961,-4.64992c0.03051,2.435 1.42069,4.19887 2.97647,5.92026c0.9217,1.01976 -0.88466,4.46907 0,5.44742c-6.15559,-6.80928 -1.91531,-18.95376 -1.24964,-26.94622c0,1.81617 0,3.63125 0,5.44742c-0.28,-2.40231 -0.69182,-3.2434 -2.7455,-4.5584c-0.77027,-0.49354 -2.52216,-1.24964 -2.54939,-2.36745c-0.04685,-1.93492 -0.05883,-3.87312 -0.02615,-5.80804c0.10568,-6.20352 5.46159,-11.16068 6.22096,-17.29666c-0.00763,0.44996 -0.01525,0.89882 -0.02288,1.34878c0.00218,-0.29852 0.00327,-0.59704 0.00545,-0.89556c0.00763,1.36621 0.01525,2.73243 0.02288,4.09864c-0.42926,-3.13663 -2.642,-4.38735 -5.46703,-5.31777z"/></g></g><g><g fill="#ff9400"><g><path d="M444.42808,74.94941c-0.83346,-0.50225 0.77244,-4.98112 0.00109,-5.44742c6.49006,3.9167 6.23621,20.02908 -2.17897,21.4258c0.03595,-0.00545 -0.02724,-2.57663 -0.02724,-2.72371c0,-0.96855 0,-1.93601 0,-2.90457c0,-0.15689 0.09587,-2.70628 0.02724,-2.72371c8.67448,2.1964 9.09829,19.36995 -0.7256,19.97352c0,-1.81617 0,-3.63125 0,-5.44742c3.74892,4.81443 1.81944,13.22743 3.63125,18.88404c0.53058,1.65711 -0.52295,3.8132 0,5.44742c-1.83033,-5.71108 0.12856,-14.05435 -3.63125,-18.88404c-0.30615,-0.39221 0.09696,-5.45396 0,-5.44742c3.90253,-0.23969 6.44212,-2.31733 6.88663,-6.26998c-0.00763,0.90754 -0.01743,1.81617 -0.02615,2.72371c0,-0.29961 0,-0.60031 0,-0.89882c0.00763,0.90754 0.01743,1.81508 0.02615,2.72371c-0.40311,-3.71514 -2.49056,-6.42796 -6.16104,-7.35729c0.00872,-0.90754 0.01743,-1.81617 0.02724,-2.72371c0,0.96855 0,1.93601 0,2.90457c-0.00872,-0.90754 -0.01743,-1.81617 -0.02724,-2.72371c4.10736,-0.68202 5.98672,-3.70752 6.29177,-7.67978c-0.00436,1.69197 -0.00981,3.38285 -0.01416,5.07591c-0.04903,-3.2434 -1.26271,-6.21551 -4.09973,-7.92709z"/></g></g><path d="M498.28566,40.44107c-9.36848,25.61269 -45.01859,37.74083 -54.46333,35.3407c-10.30108,-2.61585 -29.64923,-37.06644 -20.28184,-62.68131c9.36957,-25.61269 33.69776,-40.25754 54.33695,-32.7085c20.64028,7.55122 29.77561,34.43534 20.40822,60.04912z" fill="url(#color-5)"/></g><path d="M-21.28299,305.8504h522.95367v80.9389h-522.95367z" fill="url(#color-6)"/><g><g fill="#8dc63f"><g><path d="M274.74086,65.9361c-0.1144,-0.00436 0.0316,-5.44633 0,-5.44742c15.41294,0.62645 13.65233,31.2377 -1.49259,30.9893c-3.55172,-0.05774 -2.45788,-2.80542 -2.40667,-5.82112c0.04794,-2.75857 3.45584,-7.39215 6.32664,-4.37973c6.97597,7.32243 3.53647,19.21524 -3.88074,24.60819c0,-1.81617 0,-3.63125 0,-5.44742c7.48367,-1.10256 7.19387,6.44757 6.31138,11.9669c-0.72778,4.55187 -2.45679,8.88475 -4.10736,13.16642c-0.82801,2.14737 -1.6887,4.2893 -2.41648,6.47372c-0.3421,1.02956 -0.69945,2.06457 -0.94023,3.12464c-0.47393,2.10162 0.34319,2.28574 -0.29961,-2.04714c0.26366,1.78131 -0.26257,3.67701 0,5.44742c-0.91952,-6.2057 1.08404,-11.77079 3.28153,-17.47206c1.65711,-4.30128 3.61818,-8.73876 4.35031,-13.31895c0.33011,-2.06239 1.10583,2.30535 -0.23315,-0.0414c-0.26148,-0.45976 -0.54365,-0.96201 -1.00886,-1.254c-1.54162,-0.96964 -3.19437,-0.85525 -4.93754,-0.59922c0.38786,-0.05774 -0.4968,-5.08571 0,-5.44742c3.73911,-2.71826 6.55652,-6.18936 7.35402,-10.8273c-0.00654,0.44887 -0.01525,0.89882 -0.02288,1.34878c0.00327,-0.49354 0.00654,-0.98707 0.00981,-1.48061c0.00763,1.36621 0.01525,2.73243 0.02397,4.09864c-0.39004,-2.19858 -3.03421,-9.54824 -6.6513,-7.55231c-1.7508,0.96637 -2.92744,2.70737 -3.14425,4.70657c0,-1.81617 0,-3.63125 0,-5.44742c0.36825,2.36963 7.31153,-0.28218 8.50887,-1.17991c2.58208,-1.93819 4.45381,-4.71856 5.15326,-7.89767c0.18194,-0.8291 -0.02288,-2.88278 0.34319,-0.694c-0.14054,-0.84108 -0.27782,-1.69633 -0.57198,-2.50146c-0.46521,-1.2747 -1.02085,-2.58208 -1.93166,-3.61491c-2.05259,-2.32714 -4.54097,-3.33382 -7.61768,-3.45911z"/></g></g><path d="M300.26966,11.51853c6.79185,22.24401 -12.82868,49.3068 -21.01616,52.69074c-8.92724,3.68899 -41.43419,-9.30856 -48.22712,-31.55147c-6.79076,-22.24292 3.20526,-45.0077 22.32572,-50.84515c19.12045,-5.83746 40.12681,7.46297 46.91756,29.70589z" fill="url(#color-7)"/></g><g><path d="M359.86773,30.40256c-1.82162,27.21206 -32.65185,48.83614 -42.39075,49.17715c-10.62138,0.37151 -38.84121,-27.28396 -37.0196,-54.49711c1.8238,-27.21206 21.07935,-48.08222 43.0074,-46.6136c21.92697,1.46863 38.22565,24.72149 36.40295,51.93355z" fill="url(#color-8)"/><g fill="#27aae1"><g><path d="M316.86796,77.92043c-0.46412,1.67563 0.46957,3.7511 0,5.44524c-0.37151,1.34333 -0.58723,2.5799 -0.69291,3.96899c0.00654,-1.55034 0.01307,-3.10067 0.01961,-4.64992c0.04576,3.64324 1.58738,9.32272 5.1184,11.23585c3.38503,1.83469 4.53552,-1.54598 4.99747,-4.38082c0,1.81617 0,3.63125 0,5.44742c-2.50581,-0.26257 -5.47575,-0.16233 -7.34422,1.82162c-0.80513,0.85525 -1.50349,1.81072 -1.86411,2.94597c-0.55455,1.741 0.11984,3.202 -0.46957,0.00981c0.6319,3.42207 2.96231,6.10874 5.31995,2.12341c0,1.81617 0,3.63125 0,5.44742c-2.10815,1.35314 -3.91888,3.17694 -4.75887,5.60213c-0.29307,0.84653 -0.54692,4.37537 -0.86614,2.14628c0.16124,1.13306 0.32793,2.27484 0.68311,3.3676c1.65166,5.07046 4.79155,9.3663 10.02544,11.03757c0.56326,0.17976 -0.48809,5.29163 0,5.44742c-11.65422,-3.72168 -15.93262,-26.08989 -5.08353,-33.04733c-0.75283,0.48264 0.53821,4.5377 0,5.44742c-3.78814,6.40617 -5.47248,-3.10176 -5.4812,-6.13707c-0.01852,-6.69597 1.7508,-12.50292 9.83913,-11.65857c0.1035,0.01089 0.08498,4.92665 0,5.44742c-1.58847,9.76287 -8.77362,1.91096 -9.77377,-3.7816c-0.7354,-4.19125 -0.80731,-9.17346 0.3312,-13.28626z"/></g></g></g><g><path d="M512.91416,187.92786c-4.95933,26.81766 -38.08402,44.72988 -47.79787,43.94109c-10.59197,-0.8596 -35.42241,-31.59505 -30.46417,-58.41489c4.95933,-26.81766 26.49953,-45.31929 48.11055,-41.32415c21.61102,3.99732 35.11082,28.9792 30.15148,55.79795z" fill="url(#color-9)"/><g fill="#fbb040"><g><path d="M463.94837,235.71374c-0.60684,-0.21463 0.53385,-5.25894 -0.00218,-5.44742c4.98439,1.7617 5.07155,4.04308 4.73381,8.81938c-0.32576,4.63031 -6.99885,7.85736 -9.09175,11.88083c0,-1.81617 0,-3.63125 0,-5.44742c5.83964,1.80419 6.84087,6.51621 5.71435,12.13795c-0.70381,3.51686 -2.66488,6.5587 -3.89164,9.89252c-0.31813,0.86178 -0.65696,1.73555 -0.8498,2.63655c-0.59486,2.7869 -0.99688,-2.90348 -0.03595,-0.29634c0.59486,1.61353 1.45664,2.77274 2.69538,3.95701c0.92824,0.88684 -0.88466,4.60198 0,5.44742c-3.59857,-3.44059 -3.2739,-8.08615 -2.97756,-12.71211c0.3421,-5.32867 5.077,-9.70949 5.13147,-14.98913c0.00654,1.55034 0.01307,3.09958 0.01961,4.64992c-0.36171,-3.202 -2.99826,-4.40805 -5.80368,-5.27528c-0.15471,-0.04794 -0.22117,-5.02143 0,-5.44742c2.01337,-3.87094 8.7649,-7.25488 9.07759,-11.6869c0.00218,1.78349 0.00436,3.56588 0.00763,5.34937c-0.53276,-2.15718 -2.85336,-2.8076 -4.72727,-3.46892z"/></g></g></g><g><path d="M495.98793,95.62673c-4.95933,26.81766 -38.08402,44.72988 -47.79787,43.94109c-10.59306,-0.8596 -35.4235,-31.59505 -30.46526,-58.41489c4.96042,-26.81766 26.50062,-45.31929 48.11164,-41.32306c21.61102,3.99623 35.11082,28.9792 30.15148,55.79686z" fill="url(#color-10)"/><g fill="#662d91"><g><path d="M448.69559,143.6523c-0.08171,-0.00218 -0.00109,-5.44742 -0.00109,-5.44851c2.24325,0.05012 8.2986,-0.16778 8.42716,3.35234c0.06755,1.85757 0.03595,3.72822 0.00545,5.58688c-0.09479,5.54874 -6.70469,9.25408 -7.70592,14.66664c0,-1.81617 0,-3.63125 0,-5.44742c0.64606,1.42069 5.05194,1.20279 5.09116,2.27593c0.08498,2.32387 0.0207,4.66081 0.0207,6.98469c0,1.94473 0.29634,4.26424 -0.1242,6.1959c-0.78661,3.61382 -3.11157,6.56523 -3.60619,10.26512c0.00545,-1.69197 0.00981,-3.38285 0.01416,-5.07482c-0.01961,1.40979 0.24187,2.75966 0.78443,4.04961c0.53821,1.65275 -0.53058,3.81973 0,5.44742c-1.01649,-3.11702 -0.86723,-6.25146 -0.81167,-9.49704c0.073,-4.29148 3.39592,-7.6362 3.71623,-11.92986c-0.00872,0.90754 -0.01743,1.81617 -0.02724,2.72371c0,-2.17897 0,-4.35794 0,-6.53691c0.00872,0.90754 0.01743,1.81617 0.02724,2.72371c-1.14178,-1.26816 -5.05848,-0.22879 -5.0977,-2.55157c-0.02724,-1.61135 -0.28,-3.48635 0.01416,-5.07482c1.00995,-5.45941 6.76461,-8.82809 7.69285,-14.29404c-0.00872,0.66568 -0.01743,1.33353 -0.02615,1.9992c0,-0.20373 0.00109,-0.40529 0.00109,-0.60902c0.00763,1.14941 0.01743,2.29772 0.02615,3.44713c-0.7147,-3.43297 -5.76773,-3.19437 -8.42063,-3.25429z"/></g></g></g><path d="M120.5581,45.75231c-0.24622,27.27089 -29.77343,50.64251 -39.47638,51.54569c-10.58107,0.98598 -40.35451,-24.99169 -40.10937,-52.26475c0.24622,-27.27089 18.26194,-49.21964 40.23793,-49.02245c21.97817,0.19829 39.59296,22.46953 39.34782,49.74151z" fill="url(#color-11)"/><g><path d="M44.87814,10.59791c7.74732,26.14872 -13.64579,57.13911 -22.66019,60.84335c-9.83042,4.03872 -45.90216,-12.08674 -53.65058,-38.23546c-7.74624,-26.14872 3.056,-52.40965 24.12772,-58.65349c21.07172,-6.24275 44.43463,9.89579 52.18304,36.0456z" fill="url(#color-12)"/><g fill="#009d9f"><g><path d="M19.07478,75.37866c0.8291,-1.22676 -0.85416,-4.18253 0,-5.44851c6.16104,-9.1179 11.10947,6.95091 11.18356,11.67927c0.05992,3.71732 0.56108,8.21144 -1.09166,11.6771c-2.39904,5.03015 -7.41612,5.27637 -12.26977,3.88074c-0.06428,-0.01852 -0.27673,-5.2317 0,-5.44742c8.70498,-6.76025 9.32272,7.22655 9.32272,12.8788c0,3.41118 0.02506,6.86048 -1.04699,10.14201c-2.48294,7.60242 -6.5587,14.0598 -6.81473,22.27778c0.03922,-1.28341 -0.06646,-3.61055 -0.01525,-5.2524c0.31268,-10.05485 7.36383,-18.02988 7.78655,-27.87773c-0.14817,3.43732 -0.4042,-2.49056 -0.67221,-3.45802c-0.3519,-1.26925 -0.7354,-2.76293 -1.63423,-3.77833c-2.18224,-2.46224 -4.6728,-1.23439 -6.92694,0.51642c0,-1.81617 0,-3.63125 0,-5.44742c3.60946,1.03828 8.39012,1.59718 11.00597,-1.80637c1.02629,-1.33462 1.72901,-2.87297 2.02753,-4.5377c0.48482,-2.69974 0.38459,0.86614 0.14163,-0.83999c-0.13401,-0.94785 -0.28327,-1.89679 -0.52731,-2.82503c-1.22894,-4.67607 -5.77645,-13.27864 -10.46886,-6.33317z"/></g></g></g><g><path d="M421.78641,16.95287c7.74732,26.14872 -13.64579,57.13911 -22.66019,60.84335c-9.82933,4.03981 -45.90216,-12.08565 -53.65058,-38.23546c-7.74624,-26.14872 3.05709,-52.40965 24.12772,-58.65349c21.07172,-6.24275 44.43463,9.89688 52.18304,36.0456z" fill="url(#color-13)"/><g fill="#ec008c"><g><path d="M397.3983,80.82608c-0.76046,-0.38241 0.69509,-5.09879 0,-5.44633c4.34051,2.17897 5.35482,7.42811 4.07467,12.00503c-1.73228,6.20026 -9.24319,11.78495 -15.6962,11.60083c0.17105,0.00436 -0.36716,-5.25023 0,-5.44742c11.47663,-6.16321 13.87132,24.65721 0.72669,20.70021c-0.10895,-0.03268 -0.1765,-5.37987 0,-5.44742c4.45381,-1.68652 4.79809,4.06922 5.01817,7.15356c0.36389,5.09225 -0.30288,11.78495 2.97102,16.08842c0.88902,1.16902 -0.8596,4.31763 0,5.44742c-2.92309,-3.8437 -2.56574,-9.61906 -2.84682,-14.20906c-0.19066,-3.09196 -0.0316,-10.96893 -5.14237,-9.03401c0,-1.81617 0,-3.63125 0,-5.44742c2.07329,0.62319 4.5998,0.84108 6.19481,-0.97182c0.75828,-0.86287 1.37493,-1.83251 1.68107,-2.95359c0.81384,-2.98192 0.67112,1.19299 0.28218,-0.60684c-1.0045,-4.64229 -4.16401,-7.80725 -8.88366,-5.27311c0,-1.81617 0,-3.63125 0,-5.44742c6.53146,0.1863 14.84858,-5.79388 15.82041,-12.44845c-0.00872,0.90754 -0.01743,1.81617 -0.02724,2.72371c0,-0.27673 0,-0.55455 -0.00109,-0.83128c0.00872,0.90754 0.01743,1.81617 0.02724,2.72371c-0.41509,-2.51126 -2.00792,-3.77942 -4.19887,-4.87871z"/></g></g></g><g><path d="M104.28229,107.98802c3.1083,27.09548 -23.3226,53.91968 -32.84251,56.00822c-10.37952,2.2792 -43.11962,-19.84169 -46.22901,-46.93826c-3.1083,-27.09439 12.07367,-51.09138 33.90694,-53.5961c21.83545,-2.50581 42.05628,17.43066 45.16458,44.52614z" fill="url(#color-14)"/><g fill="#ef4136"><g><path d="M70.95278,163.98971c-0.87704,1.04482 0.91081,4.3623 0.00109,5.44742c-1.16357,1.38691 -2.40885,2.84791 -3.09305,4.55078c-0.85089,2.11469 0.03051,2.66597 -0.76155,-0.00218c0.45214,1.52201 1.28995,3.04293 2.76511,3.80448c2.88604,1.49041 5.61302,0.40747 5.88757,-2.97538c-0.00327,1.78349 -0.00545,3.56588 -0.00763,5.35046c-0.05447,-1.26489 0.24078,-3.68246 -1.44901,-1.95454c-0.85633,0.87486 -1.72465,1.78131 -2.19858,2.93834c-0.92388,2.25523 -1.25291,1.83142 -0.28218,4.17273c0.4554,1.10038 0.92061,2.25959 1.69851,3.18456c0.04031,0.04903 2.51453,2.48402 2.52216,1.9578c0.01743,-1.17555 0.16342,-2.19313 0.72887,-3.2325c0,1.81617 0,3.63125 0,5.44742c-7.82359,5.87777 -4.50284,14.33762 1.45228,20.70021c0.92497,0.98816 -0.88575,4.50066 0,5.44742c-6.82344,-7.29083 -10.86107,-24.52648 -1.45228,-31.59505c-0.79532,0.59813 0.54474,4.44619 0,5.44742c-0.59377,1.09166 -0.694,2.00247 -0.71252,3.25974c0.00109,0.1242 -0.00327,0.24949 -0.01416,0.3726c-5.49863,-3.97444 -5.37007,-10.87959 -4.94844,-16.99705c0.14817,-2.155 4.41677,-10.24115 4.63249,-5.2524c0.08716,2.02753 0.11004,4.07467 0.03704,6.10329c-0.21681,5.93224 -7.86935,3.95047 -8.66031,-0.73213c-0.97182,-5.76446 0.0523,-10.91446 3.8546,-15.44344z"/></g></g></g><g><path d="M251.9434,48.65579c-4.95933,26.81766 -38.08402,44.72988 -47.79787,43.94109c-10.59306,-0.8596 -35.4235,-31.59505 -30.46526,-58.4138c4.95933,-26.81766 26.50062,-45.31929 48.11055,-41.32415c21.6121,3.99623 35.11191,28.97811 30.15257,55.79686z" fill="url(#color-15)"/><g fill="#662d91"><g><path d="M204.28716,90.26756c-0.59595,1.57322 0.60793,3.84806 0.00109,5.44851c-1.07968,2.84247 -1.72248,5.13256 -0.1765,7.95977c1.45664,2.66488 2.10815,2.90021 2.93398,-0.14272c-0.00872,1.14941 -0.01743,2.29881 -0.02615,3.44822c0,-0.20047 -0.00109,-0.40202 -0.00109,-0.60248c0.00872,0.66568 0.01743,1.33244 0.02615,1.9992c-1.07096,-2.67577 -6.18065,-0.1351 -7.70375,0.8389c-4.10082,2.62239 -6.73519,6.87356 -7.15464,11.73266c0.00327,-1.78458 0.00545,-3.56697 0.00763,-5.35046c0.11875,3.75327 2.65072,9.55151 7.01083,10.25859c0.79641,0.12856 1.62442,0.02397 2.02099,-0.80404c1.31828,-2.74768 0.98163,3.5953 0.27782,1.58847c-0.54692,-1.55905 -1.91531,-2.90783 -3.56806,-1.61353c-3.57678,2.80215 -5.71979,7.7397 -5.82547,12.20005c-0.00545,-1.69306 -0.00981,-3.38394 -0.01416,-5.07591c0.55237,5.91917 3.94502,10.13983 9.28677,12.58899c0.72124,0.3312 -0.65369,5.14781 0,5.44742c-7.28865,-3.34145 -9.35431,-9.26607 -9.31073,-16.68763c0.02288,-3.91125 0.73104,-7.33986 3.01134,-10.66714c0.75937,-1.10692 3.4395,-5.22626 5.3461,-3.40682c2.15173,2.05368 1.44575,6.78967 1.27143,9.45782c-0.06973,1.09166 -1.0045,3.19001 -2.4971,2.41975c-3.83499,-1.97959 -6.3092,-4.7349 -6.97706,-9.07323c-0.73649,-4.78393 -0.11222,-10.92426 3.00044,-14.68952c1.05462,-1.27579 11.74246,-9.39463 11.83071,-4.24027c0.0316,1.85648 0.0621,3.72495 -0.00545,5.58034c-0.05447,1.47625 -0.9424,3.89709 -2.21383,1.57104c-1.02303,-1.87064 -1.59283,-3.60946 -1.93601,-5.71217c-0.74848,-4.57257 -0.22334,-10.24007 1.38473,-14.4738z"/></g></g></g><g><g fill="#ec008c"><g><path d="M11.4484,196.05869c-0.02615,0 -0.05556,-5.44742 0,-5.44742c6.11746,-0.04903 6.30594,6.65784 6.29286,11.20426c-0.01089,3.92977 -0.86069,10.31851 -6.29286,7.31698c-0.19829,-0.11004 -0.22008,-5.31124 0,-5.44742c6.19263,-3.82627 8.91961,2.83593 8.93377,8.03059c0.01525,5.77536 -0.84762,11.37313 -8.20709,10.49065c-0.02506,-0.00327 -0.1558,-5.41474 0,-5.44742c6.48243,-1.35205 5.58579,7.79199 5.57489,11.89172c-0.01634,5.78189 -2.45025,14.26898 0.96201,19.34053c0.85307,1.26816 -0.82801,4.21739 0,5.44742c-2.78799,-4.14331 -1.79874,-11.51367 -1.57322,-16.2769c0.1035,-2.20185 0.26148,-4.39825 0.38677,-6.59901c0.06101,-1.07314 0.12856,-2.14846 0.1558,-3.22378c-0.08171,3.19219 -0.10786,-0.29525 -0.29307,-1.13633c-0.6428,-2.92091 -2.06022,-4.65428 -5.21427,-3.99623c0,-1.81617 0,-3.63125 0,-5.44742c4.55949,0.54692 7.77129,-1.60045 8.17549,-6.2885c-0.00763,0.44996 -0.01525,0.89882 -0.02288,1.34878c-0.02506,3.91997 -0.44996,0.14163 -1.09384,-0.92715c-0.4554,-0.75283 -0.96637,-1.57322 -1.71921,-2.0722c-2.07547,-1.37493 -4.03436,-0.94131 -6.06516,0.31268c0,-1.81617 0,-3.63125 0,-5.44742c3.26845,1.80637 5.82003,-0.07953 6.16975,-3.68573c-0.3933,4.05506 -0.01852,1.20497 -0.71797,-0.25276c-0.33338,-0.69509 -0.67548,-1.45337 -1.23548,-2.00574c-1.24419,-1.22785 -2.46986,-1.69633 -4.21631,-1.68216z"/></g></g><path d="M46.78801,139.47631c4.51809,26.8961 -20.47686,55.06146 -29.87258,57.64463c-10.24769,2.81741 -44.09798,-17.56358 -48.61716,-44.46077c-4.517,-26.8961 9.39136,-51.65246 31.06338,-55.29352c21.67529,-3.63997 42.90826,15.21356 47.42635,42.10967z" fill="url(#color-16)"/></g><g><path d="M50.67965,197.69945c8.15588,26.02452 -12.75024,57.34611 -21.7058,61.1909c-9.76505,4.19343 -46.0852,-11.36659 -54.24217,-37.39111c-8.15479,-26.02452 2.23453,-52.45214 23.20602,-59.02391c20.97149,-6.57177 44.58498,9.19961 52.74195,35.22412z" fill="url(#color-17)"/><g fill="#f7941e"><g><path d="M26.70118,262.40612c-0.28436,-0.03922 0.20482,-5.42019 0,-5.44851c7.54904,1.03392 6.91169,12.96922 5.99216,18.61275c-0.76809,4.71529 -2.89912,10.95259 -7.76258,12.95397c-2.54939,1.04917 -2.81414,0.54147 -2.85663,-1.95998c-0.02397,-1.42614 -0.01961,-2.85227 -0.00545,-4.27732c0.08062,-8.04802 7.97067,3.09958 8.50125,6.25909c1.21804,7.26468 0.08062,13.39194 -8.2267,14.53372c0,-1.81617 0,-3.63125 0,-5.44742c4.79482,4.69132 3.65195,13.94867 3.65849,20.15546c0.00327,3.08106 -0.05121,3.08106 -0.05447,0c-0.00545,-4.72509 0.06101,-11.12255 -3.6051,-14.70804c-0.31486,-0.30832 0.04903,-5.45396 0,-5.44742c2.70192,-0.37151 6.23512,-1.13306 7.59915,-3.85133c0.29525,-0.58941 0.58723,-1.18863 0.68746,-1.84886c0.19393,2.97538 0.17432,3.66285 -0.05992,2.06239c-0.27237,-1.17011 -0.62754,-2.32278 -1.18209,-3.39483c-0.46412,-0.89665 -5.31995,-8.41736 -6.89099,-5.47139c-0.7561,1.41742 0.31922,1.56123 -0.29852,-2.17679c-0.14599,0.94131 0.20264,1.181 1.04482,0.72015c1.43921,-0.42272 2.82721,-1.03283 3.93631,-2.07874c2.15282,-2.02753 3.72822,-4.60089 4.58455,-7.44009c0.58178,-1.93166 1.06007,-3.92868 1.1189,-5.9573c-0.09805,3.40137 -0.63081,-0.93369 -1.09711,-1.86629c-1.09929,-2.19967 -2.59842,-3.58331 -5.08353,-3.92323z"/></g></g></g><g><g fill="#ec008c"><g><path d="M164.28246,50.32052c-0.54334,-1.45882 0.53057,-4.02238 -0.0016,-5.44633c1.74568,4.68805 2.17971,8.81829 2.15817,13.9247c-0.02633,6.04664 -2.34248,9.90995 -5.88171,13.31241c0,-1.81617 0,-3.63125 0,-5.44742c4.05784,3.33818 4.55251,7.30064 4.54054,13.16315c-0.01037,5.28291 -1.54543,11.21297 -4.46314,14.85839c-2.54991,3.18674 -9.24302,6.5794 -10.44458,-0.59922c-0.17472,-1.04373 -0.49147,-6.1959 0.40531,-6.81582c7.26916,-5.02252 6.69153,12.01048 6.69153,17.46988c0,4.3928 0.90316,8.67448 2.31135,12.63148c1.64277,4.61832 3.52567,6.02267 4.68335,0.13619c0,1.81617 0,3.63125 0,5.44742c-0.82338,0.76591 -1.70977,1.63967 -2.14699,2.91982c-0.22419,0.55673 -0.39094,1.14505 -0.49945,1.76279c-0.11728,-1.82707 -0.08218,-1.96325 0.10532,-0.41183c0.54094,2.74005 1.37388,5.32867 2.42625,7.77674c1.95472,4.54642 4.32751,8.66467 6.49845,13.01062c0.62871,1.25727 -0.60956,4.22829 0,5.44742c-3.26477,-6.538 -8.34307,-13.6654 -9.08028,-21.8507c-0.45477,-5.04976 -0.6997,-10.94278 2.69752,-14.10229c-0.4444,0.41291 0.17553,4.55622 0,5.44742c-1.29729,6.59792 -3.53366,3.74674 -4.98174,-1.05026c-1.10741,-3.66938 -1.99141,-7.32896 -2.04327,-11.30776c-0.06223,-4.79809 0.42206,-10.18123 -0.8872,-14.73855c-0.48508,-1.6887 -1.31564,-3.81864 -2.84192,-3.96354c-1.12337,-0.10677 -3.27276,0.04031 -3.331,2.09399c-0.0024,-1.78349 -0.00399,-3.56697 -0.00558,-5.35046c0.71088,4.2479 5.05673,5.38314 7.55,3.49942c4.09055,-3.08978 6.87184,-9.43929 7.33857,-15.75939c-0.00558,1.36621 -0.01197,2.73243 -0.01756,4.09864c-0.00159,-0.41074 -0.00399,-0.82038 -0.00558,-1.23003c0.00478,0.44887 0.01118,0.89882 0.01676,1.34878c-0.37658,-4.03981 -2.02095,-6.43341 -4.51501,-8.48491c-0.15638,-0.12856 -0.17313,-5.28073 0,-5.44742c2.16216,-2.07983 4.6315,-4.71529 5.40461,-8.36942c0.29121,-1.37384 0.3678,-1.34007 -0.221,-3.48417c-0.42604,-1.5536 -0.90955,-3.01134 -1.46005,-4.48977z"/></g></g><path d="M189.5813,10.59791c7.74732,26.14872 -13.64579,57.13911 -22.66019,60.84335c-9.82933,4.03981 -45.90216,-12.08565 -53.65058,-38.23546c-7.74624,-26.14872 3.056,-52.40965 24.12772,-58.65349c21.07281,-6.24275 44.43572,9.89579 52.18304,36.0456z" fill="url(#color-18)"/></g></g><g stroke="none" stroke-width="1"><path d="M208.71624,90.0734c1.05708,5.03013 -0.70457,10.01907 -4.7065,13.34314c-1.93966,1.61339 -4.3648,2.7157 -7.41811,3.35735c-1.282,0.26941 -2.69221,0.46358 -4.30893,0.59896c-0.11949,0.01489 -0.24104,0.02 -0.36259,0.02511c-2.51698,0.13042 -3.65062,0.32778 -4.0225,0.40593l-0.11743,0.02468c-0.15247,0.05248 -0.30699,0.09517 -0.46357,0.12807c-0.24054,0.07099 -0.58462,0.18417 -1.05386,0.33387c-1.23725,0.43372 -2.33643,0.74646 -3.36398,0.9624c-0.55782,0.11722 -1.71621,0.39131 -4.0186,1.008l-0.11743,0.02468c-0.62994,0.16304 -1.1857,0.29005 -1.68479,0.39493c-1.32114,0.27764 -2.4455,0.42195 -3.49255,0.44784c-3.42703,0.12752 -6.7228,-0.9681 -9.3229,-3.12958c-3.11601,-2.5742 -4.28456,-5.55765 -4.71643,-7.61276c-0.56144,-2.67164 -0.26432,-5.39088 0.79237,-7.85077c-0.99508,0.12737 -1.97881,0.21148 -2.9553,0.23275c-6.00167,0.17809 -10.03844,-4.10324 -11.56439,-5.72406c-1.9579,-2.07163 -3.03794,-4.82844 -3.00292,-7.67652c0.00652,-0.94147 0.11197,-1.99569 0.33187,-3.38051c0.08998,-2.44068 0.98541,-4.74407 2.47965,-6.58062c1.75094,-3.87288 4.46483,-10.16552 8.07621,-18.75176c0.87423,-2.06391 1.3346,-3.32556 1.5728,-4.03981c0.59504,-1.93371 1.61032,-3.81267 3.17264,-5.90878c1.59324,-2.14348 3.08889,-3.63291 4.71213,-4.70976c0.30394,-0.20693 0.62178,-0.39635 0.95352,-0.56824c2.33558,-1.23676 5.03346,-1.72197 7.78822,-1.40166c0.24927,0.01915 0.49286,0.05992 0.73645,0.1007c0.42542,-0.01787 0.86474,-0.01823 1.28859,0.0051c2.85525,0.16635 5.51037,1.13093 7.67803,2.79061c3.16962,2.44031 4.4544,5.8796 5.36375,9.2343c0.08744,0.31883 0.16715,0.64951 0.22523,0.97451c0.18502,1.07493 0.6174,3.18103 1.5837,7.14708c0.09567,0.35798 0.19956,0.7551 0.30962,1.18158c7.1841,0.0026 11.95711,4.96711 13.14581,10.62356c0.26118,1.24285 0.36579,2.51861 0.31275,3.91946c-0.06857,1.6187 -0.48065,3.20741 -1.2295,4.6523c-0.82977,1.59474 -1.89278,3.00346 -3.15194,4.20817c4.65961,0.97251 9.13392,4.46703 10.5509,11.20975z" fill="#00cccc"/><path d="M196.97378,94.96283c-0.86808,0.72196 -2.74362,1.20602 -5.62662,1.4522c-3.02331,0.15712 -5.24205,0.44252 -6.65146,0.85929c-0.22998,0.04833 -0.87821,0.24587 -1.94356,0.58828c-0.83692,0.29646 -1.54233,0.50396 -2.1158,0.62448c-1.03245,0.21697 -2.57025,0.60145 -4.61129,1.1489c-1.30978,0.33656 -2.23153,0.50165 -2.77169,0.49868c-0.76931,0.04927 -1.42477,-0.15224 -1.96909,-0.60293c-0.54432,-0.45069 -0.86718,-0.91727 -0.96939,-1.40364c-0.1818,-0.8651 0.15501,-1.68387 1.01121,-2.45749c0.85661,-0.77166 1.80104,-1.26647 2.83447,-1.48364c0.45897,-0.09645 0.86119,-0.18098 1.20469,-0.25316l5.25032,-1.10335c0.34545,-0.0726 0.81373,-0.26093 1.40911,-0.56896c-0.32494,-2.11028 -1.37713,-5.97449 -3.15539,-11.59186c-0.19496,-0.92774 -0.41463,-1.89524 -0.65551,-2.90529c-0.24242,-1.00768 -0.65967,-1.78244 -1.25253,-2.32307c-3.15334,0.96309 -6.6366,2.20397 -10.45252,3.72424c-3.03632,1.2379 -5.21418,1.99498 -6.53238,2.272c-0.97667,0.20525 -1.94207,0.3182 -2.89524,0.33867c-0.71203,0.03008 -1.80166,-0.73008 -3.26573,-2.28012c0.00612,-0.5398 0.13527,-1.49579 0.38648,-2.86778c-0.02386,-0.11352 -0.04195,-0.19964 -0.05429,-0.25836c0.17224,-0.0362 0.3762,-0.19861 0.61656,-0.48926c1.73518,-3.71936 4.75962,-10.70774 9.0761,-20.96164c0.84273,-1.97554 1.48258,-3.63766 1.91837,-4.98713c0.21183,-0.7036 0.71373,-1.58772 1.50844,-2.65395c0.79471,-1.06623 1.45425,-1.774 1.98058,-2.12372c0.37717,-0.19882 0.84309,-0.2671 1.39502,-0.20324c0.38165,0.09964 0.75517,0.17033 1.12371,0.21244c0.95415,-0.02067 1.46058,-0.03717 1.51734,-0.0491c0.66839,0.03938 1.21641,0.22566 1.645,0.55353c0.429,0.32982 0.90422,1.45821 1.42957,3.38434c0.31615,1.79127 0.89959,4.42661 1.7505,7.90191c0.65723,2.55853 1.70834,6.41275 3.14902,11.56152c0.64355,-0.07393 1.69204,-0.35558 3.14923,-0.84165c1.67348,-0.58977 2.79693,-0.94746 3.37139,-1.06818c2.12166,-0.44586 3.35329,0.13424 3.69098,1.74114c0.07239,0.34448 0.09918,0.75882 0.08093,1.24088c-0.76813,1.4796 -2.09852,2.41827 -3.99118,2.81601c-0.28869,0.06067 -0.73201,0.15383 -1.33484,0.28052c-0.60185,0.12648 -1.04713,0.22005 -1.33386,0.28031c-0.68797,0.14458 -1.2725,0.35836 -1.75302,0.63918c0.42221,2.00912 1.16895,4.99844 2.24372,8.9652c1.32135,4.57607 2.26901,7.37399 2.84239,8.3908c1.53723,-0.38232 3.83828,-0.83522 6.90468,-1.36109c1.45795,-0.18581 2.39842,0.72525 2.82043,2.73339c0.21697,1.03245 -0.10751,1.90994 -0.97481,2.63071zM175.77256,70.20785c-1.51667,-4.65458 -2.9192,-9.75313 -4.20347,-15.29548c-0.11548,0.02427 -0.20756,0.01399 -0.27645,-0.03183c0.13604,-0.20843 0.19214,-0.36941 0.16787,-0.48489c-0.01193,-0.05676 -0.13404,-0.20992 -0.36674,-0.46144c-0.1634,-0.20375 -0.20576,-0.40535 -0.12668,-0.60283c0.12432,-0.26422 0.14998,-0.57003 0.07758,-0.9145c-0.63461,0.97229 -1.21492,2.20295 -1.74114,3.69098c-0.87466,2.40223 -1.38963,3.79797 -1.54525,4.19036c-1.57816,3.32871 -3.48399,7.9525 -5.71295,13.87346c-0.01059,0.24134 0.09028,0.42962 0.29872,0.56566c1.7214,-0.36175 3.97411,-1.04463 6.7601,-2.04906c3.55108,-1.34608 5.77474,-2.17205 6.66843,-2.48043z" fill="#ffffff"/></g><g stroke="none" stroke-width="1"><path d="M145.67454,104.35508c0.22275,2.12971 -0.18592,4.2695 -1.16567,6.17165c-1.43587,2.79504 -3.33865,4.97292 -5.65012,6.47029c-2.12241,1.3759 -4.63243,2.22015 -7.85459,2.64182c-0.37805,0.04879 -0.6639,0.09865 -0.87147,0.13205c-0.03709,0.01801 -0.07418,0.03603 -0.12105,0.05609c-1.6082,0.80801 -2.98402,1.31172 -4.33452,1.59553c-1.21349,0.25501 -2.33317,0.27573 -3.32045,0.19709c-1.33199,0.37188 -2.41004,0.63931 -3.2908,0.8244l-4.12001,0.86582c-1.88562,0.31451 -7.50903,1.27146 -11.92959,-2.74528c-0.58746,-0.51009 -1.68977,-1.52509 -2.69095,-3.03139c-0.40514,-0.51775 -0.78503,-1.06124 -1.12422,-1.65416c-0.95736,-1.63813 -1.47944,-3.49035 -1.49987,-5.38669c-0.10555,-7.21247 4.44064,-11.64211 9.38978,-13.76532c-1.12813,-5.07651 -2.60042,-11.25581 -4.41842,-18.4967c-0.06531,-0.26217 -0.1229,-0.53619 -0.1707,-0.81226c-2.06199,-0.47611 -3.97961,-1.43218 -5.61328,-2.83622c-2.20879,-1.85541 -3.73595,-4.40585 -4.3303,-7.23408c-1.03857,-4.94205 0.78173,-9.74916 5.415,-14.29929c0.04276,-0.03964 0.07574,-0.07723 0.12055,-0.10708c0.305,-0.29912 0.52243,-0.52874 0.68163,-0.69504c0.41811,-1.17102 1.03499,-2.27141 1.83158,-3.24606c2.59122,-3.1809 5.96179,-5.27893 9.73928,-6.07276c6.8308,-1.43549 13.25917,1.92429 16.02253,8.36363c0.74667,1.75393 1.02615,3.66736 0.81895,5.55022c0.15971,1.29483 0.5106,3.69395 1.26508,8.06216c0.0951,0.50115 0.20353,1.163 0.38132,2.30076c0.08219,0.58561 0.14694,0.99096 0.18445,1.2181l1.84474,8.77826c0.07148,0.29153 0.2258,0.83133 0.44131,1.61374c0.59307,2.09277 0.65838,2.35494 0.74887,2.78553l2.036,9.68838c2.99105,0.61808 5.80921,2.21259 8.16508,4.67063c2.85887,2.95522 3.22275,6.48586 3.41983,8.39616z" fill="#00cccc"/><path d="M134.73374,105.48836c-0.55378,1.07487 -1.17281,1.83441 -1.85806,2.27883c-0.68643,0.44365 -1.7869,0.76484 -3.30337,0.96397c-1.68891,0.23434 -2.77812,0.46324 -3.27154,0.68751c-0.05774,0.01213 -0.4517,0.19915 -1.1844,0.56363c-0.73193,0.36329 -1.30065,0.58908 -1.70091,0.67319c-0.11548,0.02427 -0.35216,-0.03226 -0.70944,-0.16666c-0.35846,-0.13517 -0.62214,-0.18399 -0.79437,-0.14779c-0.28869,0.06067 -1.03906,0.26332 -2.25403,0.60856c-1.21693,0.34566 -2.16791,0.59047 -2.85686,0.73525c-1.20469,0.25316 -2.43971,0.5127 -3.70116,0.77779c-1.50454,0.25589 -2.40788,0.23625 -2.70907,-0.05913c-0.66052,-0.58057 -1.02823,-1.04181 -1.10063,-1.38628c-0.20864,-0.13702 -0.40561,-0.36437 -0.5925,-0.68479c-0.03542,-2.44907 2.00382,-3.86573 6.11752,-4.25098c2.98655,-0.3272 4.70276,-0.71851 5.1459,-1.17235c-1.06207,-6.18683 -3.2665,-15.97163 -6.61619,-29.34869c-0.30258,-2.57277 -0.94088,-6.75285 -1.91708,-12.54081c-0.41414,0.02776 -0.9341,0.40782 -1.55852,1.13682c-0.70427,0.92767 -1.15986,1.47302 -1.365,1.63466c-0.68623,0.44463 -1.40191,0.74422 -2.14762,0.90093c-0.97569,0.20504 -1.75826,0.04046 -2.35009,-0.49527c-0.36031,-0.28499 -0.58731,-0.65522 -0.68376,-1.1142c-0.21717,-1.03343 0.56926,-2.42593 2.3577,-4.18023c2.09693,-1.99796 3.24701,-3.64877 3.4536,-4.95109c0.99965,-1.22885 2.15847,-1.98228 3.47961,-2.25991c1.7214,-0.36175 2.93483,0.28247 3.64105,1.93148c-0.06715,0.25424 -0.11404,0.59517 -0.1454,1.0197c0.14391,1.82747 0.65564,5.25448 1.53189,10.2848c0.06046,0.28772 0.16355,0.92412 0.31183,1.91174c0.14751,0.9888 0.23368,1.53986 0.25774,1.65436l1.93544,9.20983c0.02427,0.11548 0.21499,0.80908 0.57237,2.08179c0.35738,1.27271 0.54929,1.96708 0.57335,2.08158l4.12445,19.62631c1.60963,-0.03784 2.67642,-0.23239 3.20254,-0.58309c0.68566,-0.44247 1.316,-0.72515 1.88947,-0.84566c1.32016,-0.27743 2.59565,0.23419 3.828,1.5325c0.1493,0.14642 0.28195,0.77764 0.39753,1.89168z" fill="#ffffff"/></g></g></g></svg>