<svg xmlns="http://www.w3.org/2000/svg" xmlns:xlink="http://www.w3.org/1999/xlink" version="1.1" width="299.4658471647557" height="130.6167413297948" viewBox="-0.20791746694130886 -0.7579174788622378 299.4658471647557 130.6167413297948">
  <!-- Exported by Scratch - http://scratch.mit.edu/ -->
  <path id="ID0.4177084397524595_15_" fill="none" d="M 0.55 0 L 298.5 0 L 298.5 6.5003 L 0.55 6.5003 L 0.55 0 Z " stroke-width="1.5158349577244756"/>
  <g id="ID0.008500578813254833">
    <path id="ID0.21765113901346922" fill="#FFFFFF" d="M 150.95 29.43 L 150.82 26.19 C 143.21 28.24 135.74 30.35 128.2 30.58 C 126.31 30.64 124.43 30.64 122.56 30.57 C 104.94 31.19 88.1 20.27 71.85 22.73 C 68.93 23.09 57.66 25.14 52.94 26.19 C 52.94 26.19 52.94 26.9 52.94 27.69 C 52.94 28.22 52.94 28.79 52.94 29.19 L 52.94 42.26 L 150.94 42.26 L 150.94 29.44 C 150.93 29.44 150.94 29.44 150.95 29.43 Z " stroke-width="1"/>
    <path id="ID0.10167367430403829" fill="#BBD8ED" d="M 150.95 32.43 L 150.82 29.19 C 143.21 31.24 135.74 33.35 128.2 33.58 C 126.31 33.64 124.43 33.64 122.56 33.57 C 104.94 34.19 88.1 23.27 71.85 25.73 C 68.93 26.09 57.66 28.14 52.94 29.19 C 52.94 29.19 52.94 29.9 52.94 30.69 C 52.94 31.22 52.94 31.79 52.94 32.19 L 52.94 47.26 L 150.94 47.26 L 150.94 32.44 C 150.93 32.44 150.94 32.44 150.95 32.43 Z " stroke-width="1"/>
    <path id="ID0.2425168533809483" fill="#95BFDE" d="M 150.95 42.43 L 150.82 39.19 C 143.21 41.24 135.74 43.35 128.2 43.58 C 126.31 43.64 124.43 43.64 122.56 43.57 C 104.94 44.19 88.1 33.27 71.85 35.73 C 68.93 36.09 57.66 38.14 52.94 39.19 C 52.94 39.19 52.94 39.9 52.94 40.69 C 52.94 41.22 52.94 41.79 52.94 42.19 L 52.94 62.26 L 150.94 62.26 L 150.94 42.44 C 150.93 42.44 150.94 42.44 150.95 42.43 Z " stroke-width="1"/>
    <path id="ID0.7981051420792937" fill="#79AED4" d="M 150.95 54.9056 L 150.82 53.1669 C 143.21 54.267 135.74 55.3993 128.2 55.5228 C 126.31 55.555 124.43 55.555 122.56 55.5174 C 104.94 55.8501 88.1 49.99 71.85 51.3102 C 68.93 51.5034 57.66 52.6035 52.94 53.1669 C 52.94 53.1669 52.94 53.5479 52.94 53.9719 C 52.94 54.2563 52.94 54.5622 52.94 54.7768 L 52.94 129.1009 L 150.94 129.1009 L 150.94 54.911 C 150.93 54.911 150.94 54.911 150.95 54.9056 Z " stroke-width="0.8024892121313648"/>
  </g>
  <g id="ID0.008500578813254833">
    <path id="ID0.21765113901346922" fill="#FFFFFF" d="M 248.6 29.43 L 248.47 26.19 C 240.86 28.24 233.39 30.35 225.85 30.58 C 223.96 30.64 222.08 30.64 220.21 30.57 C 202.59 31.19 185.75 20.27 169.5 22.73 C 166.58 23.09 155.31 25.14 150.59 26.19 C 150.59 26.19 150.59 26.9 150.59 27.69 C 150.59 28.22 150.59 28.79 150.59 29.19 L 150.59 42.26 L 248.59 42.26 L 248.59 29.44 C 248.58 29.44 248.59 29.44 248.6 29.43 Z " stroke-width="1"/>
    <path id="ID0.10167367430403829" fill="#BBD8ED" d="M 248.6 32.43 L 248.47 29.19 C 240.86 31.24 233.39 33.35 225.85 33.58 C 223.96 33.64 222.08 33.64 220.21 33.57 C 202.59 34.19 185.75 23.27 169.5 25.73 C 166.58 26.09 155.31 28.14 150.59 29.19 C 150.59 29.19 150.59 29.9 150.59 30.69 C 150.59 31.22 150.59 31.79 150.59 32.19 L 150.59 47.26 L 248.59 47.26 L 248.59 32.44 C 248.58 32.44 248.59 32.44 248.6 32.43 Z " stroke-width="1"/>
    <path id="ID0.2425168533809483" fill="#95BFDE" d="M 248.6 42.43 L 248.47 39.19 C 240.86 41.24 233.39 43.35 225.85 43.58 C 223.96 43.64 222.08 43.64 220.21 43.57 C 202.59 44.19 185.75 33.27 169.5 35.73 C 166.58 36.09 155.31 38.14 150.59 39.19 C 150.59 39.19 150.59 39.9 150.59 40.69 C 150.59 41.22 150.59 41.79 150.59 42.19 L 150.59 62.26 L 248.59 62.26 L 248.59 42.44 C 248.58 42.44 248.59 42.44 248.6 42.43 Z " stroke-width="1"/>
    <path id="ID0.7981051420792937" fill="#79AED4" d="M 248.6 54.9056 L 248.47 53.1669 C 240.86 54.267 233.39 55.3993 225.85 55.5228 C 223.96 55.555 222.08 55.555 220.21 55.5174 C 202.59 55.8501 185.75 49.99 169.5 51.3102 C 166.58 51.5034 155.31 52.6035 150.59 53.1669 C 150.59 53.1669 150.59 53.5479 150.59 53.9719 C 150.59 54.2563 150.59 54.5622 150.59 54.7768 L 150.59 129.1009 L 248.59 129.1009 L 248.59 54.911 C 248.58 54.911 248.59 54.911 248.6 54.9056 Z " stroke-width="0.8024892121313648"/>
  </g>
</svg>