<svg version="1.1" width="76" height="64" viewBox="3 0 76 64" xmlns="http://www.w3.org/2000/svg" xmlns:xlink="http://www.w3.org/1999/xlink">
  <!-- Exported by Scratch - http://scratch.mit.edu/ -->
  <g id="ID0.34044281067326665">
    <g id="Layer_3">
      <path id="ID0.5125042512081563" fill="#FAA51D" stroke="#000000" d="M 22.462 79.039 C 20.047 78.588 17.158 77.730 14.720 75.536 C 9.268 70.629 7.526 62.535 3.672 64.622 C -0.184 66.710 -0.110 79.787 12.025 83.816 C 16.207 85.207 20.023 85.212 23.116 85.128 C 23.927 85.103 30.833 84.474 33.195 81.054 C 35.556 77.634 33.914 76.782 33.105 76.310 C 32.295 75.838 25.878 79.677 22.462 79.039 Z " transform="matrix(0.931419849395752, 0.3639465570449829, -0.3639465570449829, 0.931419849395752, 30.7, -59.6)"/>
      <path id="ID0.3527623382396996" fill="#FFFFFF" d="M 4.236 64.877 C 2.247 65.490 1.161 69.875 2.160 73.361 C 3.158 76.851 4.794 78.383 6.023 79.759 C 7.551 80.797 5.303 77.357 7.384 75.609 C 9.459 73.865 13.117 74.695 13.117 74.695 C 13.117 74.695 10.208 70.708 8.547 68.299 C 6.975 65.988 6.359 64.375 4.236 64.877 Z " transform="matrix(0.931419849395752, 0.3639465570449829, -0.3639465570449829, 0.931419849395752, 30.7, -59.6)"/>
    </g>
    <g id="ID0.47307951748371124">
      <path id="ID0.625234114471823" fill="#FAA51D" d="M 40.700 84.550 C 40.430 87.168 35.209 87.542 32.450 89 C 28.667 91.014 24.956 93.079 21.146 95.168 L 21.232 95.383 C 22.479 97.207 27.102 102.880 20.898 104.879 C 15.565 106.596 5.778 91.775 10.077 88.977 C 12.703 87.264 14.969 88.725 14.969 88.725 C 14.969 88.725 18.443 87.655 20.970 86.380 C 25.273 84.219 26.754 82.927 26.754 82.927 C 26.754 82.927 30.967 78.443 33.610 78.790 C 36.685 79.195 41.009 82.063 40.700 84.550 Z " transform="matrix(0.9242516160011292, -0.38178396224975586, 0.38178396224975586, 0.9242516160011292, -36.4, -31.3)"/>
      <path id="ID0.06742785638198256" fill="none" stroke="#231F20" stroke-width="1.2" d="M 21.232 95.383 C 22.479 97.207 27.102 102.880 20.898 104.879 C 15.565 106.596 5.569 91.535 9.868 88.734 C 12.494 87.021 14.969 88.724 14.969 88.724 C 14.969 88.724 19.078 87.389 20.970 86.376 C 24.629 84.418 27.461 82.172 30.700 80.150 C 32.102 79.364 34.900 77.950 34.900 77.950 " transform="matrix(0.9242516160011292, -0.38178396224975586, 0.38178396224975586, 0.9242516160011292, -36.4, -31.3)"/>
      <path id="ID0.6495014429092407" fill="none" stroke="#231F20" stroke-width="1.2" d="M 41.350 84.900 C 41.350 84.900 19.413 95.575 19.413 95.575 " transform="matrix(0.9242516160011292, -0.38178396224975586, 0.38178396224975586, 0.9242516160011292, -36.4, -31.3)"/>
    </g>
    <path id="ID0.7121603628620505" fill="#FAA51D" stroke="#231F20" stroke-width="1.2" d="M 52.169 74.885 C 52.169 74.885 53.404 75.050 56.913 78.561 C 60.422 82.069 62.939 80.721 65.824 79.285 C 68.701 77.842 76.361 73.159 72.314 69.468 C 68.265 65.780 66.107 70.614 62.599 71.873 C 59.087 73.133 57.538 69.386 55.741 67.586 C 55.152 66.993 54.553 66.487 54.012 66.081 C 54.012 66.081 53.041 65.321 52.106 68.871 C 51.172 72.412 50.162 73.415 52.169 74.885 Z " transform="matrix(0.9927019476890564, -0.12059415131807327, 0.12059415131807327, 0.9927019476890564, -4.35, -42.9)"/>
    <g id="Layer_2_1_">
      <path id="ID0.9162897346541286" fill="#FAA51D" stroke="#231F20" stroke-width="1.2" d="M 46.753 82.012 C 47.941 81.100 49.150 79.610 50.704 77.299 C 52 75.372 53.404 71.721 53.404 71.721 C 54.279 69.200 55.338 65.145 51.502 64.425 C 49.949 64.134 47.423 64.327 43.832 63.649 C 40.239 62.968 37.034 61.127 34.315 65.882 C 31.597 70.639 31.501 77.176 33.259 82.445 C 34.729 86.931 41.263 88.357 43.500 92.600 C 45.875 97.658 41.556 106.562 46.500 109.150 C 51.969 112.012 59.364 107.350 64.250 103.800 C 66.162 102.431 64.554 98.262 62.600 97.500 C 59.751 96.396 56.075 100.571 53.500 98.900 C 50.744 97.086 52.471 92.762 51.150 90.150 C 48.915 85.877 42.976 78.517 42.976 78.517 " transform="matrix(0.931419849395752, 0.3639465570449829, -0.3639465570449829, 0.931419849395752, 30.7, -59.6)"/>
      <path id="ID0.7905941768549383" fill="#FFFFFF" d="M 51.253 75.434 C 51.253 75.434 53.723 72.774 48.784 70.117 C 43.845 67.460 41.571 70.100 40.045 71.638 C 37.401 74.293 43.488 78.249 43.488 78.249 L 46.664 81.453 C 46.664 81.453 48.402 79.806 49.163 78.474 C 50.036 77.260 51.253 75.434 51.253 75.434 " transform="matrix(0.931419849395752, 0.3639465570449829, -0.3639465570449829, 0.931419849395752, 30.7, -59.6)"/>
    </g>
    <path id="ID0.9925815602764487" fill="#FAA51D" stroke="#231F20" stroke-width="1.2" d="M 29.926 73.218 C 30.675 72.647 32.815 71.016 34.780 69.561 C 37.208 67.762 40.897 63.712 35.857 61.915 C 30.817 60.114 28.350 63.519 24.338 66.861 C 22.179 68.662 19.030 69.560 20.019 73.070 C 21.012 76.581 24.881 86.478 31.808 83.240 C 38.737 80.001 30.009 74.060 28.748 72.083 " transform="matrix(0.931419849395752, 0.3639465570449829, -0.3639465570449829, 0.931419849395752, 30.7, -59.6)"/>
  </g>
</svg>