<svg version="1.1" xmlns="http://www.w3.org/2000/svg" xmlns:xlink="http://www.w3.org/1999/xlink" width="754.36692" height="479.42246" viewBox="0,0,754.36692,479.42246"><defs><linearGradient x1="654.55226" y1="371.2444" x2="391.23629" y2="283.20016" gradientUnits="userSpaceOnUse" id="color-1"><stop offset="0" stop-color="#00ffff"/><stop offset="1" stop-color="#00a1ab"/></linearGradient><linearGradient x1="428.34204" y1="296.79712" x2="306.31757" y2="255.99613" gradientUnits="userSpaceOnUse" id="color-2"><stop offset="0" stop-color="#ffe4ba"/><stop offset="1" stop-color="#ddb980"/></linearGradient><linearGradient x1="432.07827" y1="290.96179" x2="392.47388" y2="277.71938" gradientUnits="userSpaceOnUse" id="color-3"><stop offset="0" stop-color="#00ffff"/><stop offset="1" stop-color="#00a1ab"/></linearGradient><linearGradient x1="-64.38823" y1="474.2444" x2="198.92773" y2="386.20016" gradientUnits="userSpaceOnUse" id="color-4"><stop offset="0" stop-color="#00ffff"/><stop offset="1" stop-color="#00a1ab"/></linearGradient><linearGradient x1="161.82199" y1="399.79712" x2="283.84646" y2="358.99613" gradientUnits="userSpaceOnUse" id="color-5"><stop offset="0" stop-color="#ffe4ba"/><stop offset="1" stop-color="#ddb980"/></linearGradient><linearGradient x1="158.08575" y1="393.96179" x2="197.69014" y2="380.71938" gradientUnits="userSpaceOnUse" id="color-6"><stop offset="0" stop-color="#00ffff"/><stop offset="1" stop-color="#00a1ab"/></linearGradient></defs><g transform="translate(82.10145,-39.60961)"><g data-paper-data="{&quot;isPaintingLayer&quot;:true}" fill-rule="nonzero" stroke-linecap="butt" stroke-linejoin="miter" stroke-miterlimit="10" stroke-dasharray="" stroke-dashoffset="0" style="mix-blend-mode: normal"><g data-paper-data="{&quot;index&quot;:null}" stroke="#000000" stroke-width="6.5"><path d="M404.83664,242.52529l263.31596,88.04424l-27.20066,81.34967l-263.31596,-88.04424z" data-paper-data="{&quot;index&quot;:null}" fill="url(#color-1)"/><path d="M306.31757,255.99613c12.05755,-36.0608 49.14819,-56.16022 82.84435,-44.89332c33.69615,11.26689 51.23765,49.63358 39.18012,85.69432c-12.05755,36.0608 -49.1482,56.16021 -82.84435,44.89332c-33.69616,-11.26689 -51.23765,-49.63358 -39.18011,-85.69431z" data-paper-data="{&quot;index&quot;:null}" fill="url(#color-2)"/><path d="M392.47388,277.71938c9.98207,-29.85361 26.93985,-51.09032 37.87633,-47.43351c10.93641,3.65677 11.71013,30.82232 1.72807,60.67593c-9.98206,29.85361 -26.93985,51.09031 -37.87633,47.43352c-10.93642,-3.65677 -11.71013,-30.82232 -1.72807,-60.67593z" data-paper-data="{&quot;index&quot;:null}" fill="url(#color-3)"/></g><path d="M33.47316,402.46997v-360.36036h385.88589v360.36036z" fill="#ffffff" stroke="#000000" stroke-width="5"/><path d="M55.50019,114.70871v-57.05706h328.82883v57.05706z" fill="#000000" stroke="#000000" stroke-width="5"/><text transform="matrix(0.65591 0 0 0.65591 138.57827 77.68326)" font-size="40"  fill="#ffffff" fill-rule="nonzero" stroke="none" stroke-width="1" stroke-linecap="butt" stroke-linejoin="miter" stroke-miterlimit="10" stroke-dasharray="" stroke-dashoffset="0" font-family="Helvetica" font-weight="normal" text-anchor="start" style="mix-blend-mode: normal" >Scratch team</text><path d="M36.45312,396.5v-115h379v115z" fill="#868686" stroke="#000000" stroke-width="5"/><path d="M46.72656,326.96997v-33h38v33z" fill="#5c5c5c" stroke="#000000" stroke-width="5"/><path d="M46.22657,363.96997v-33h38v33z" fill="#5c5c5c" stroke="#000000" stroke-width="5"/><path d="M87.72657,328.46997v-33h38v33z" fill="#5c5c5c" stroke="#000000" stroke-width="5"/><path d="M86.22657,366.46997v-33h38v33z" fill="#5c5c5c" stroke="#000000" stroke-width="5"/><path d="M125.72657,328.46997v-33h38v33z" fill="#5c5c5c" stroke="#000000" stroke-width="5"/><path d="M126.72657,364.96997v-33h38v33z" fill="#5c5c5c" stroke="#000000" stroke-width="5"/><path d="M165.22657,364.46997v-33h38v33z" fill="#5c5c5c" stroke="#000000" stroke-width="5"/><path d="M163.72657,328.96997v-33h38v33z" fill="#5c5c5c" stroke="#000000" stroke-width="5"/><path d="M206.22657,329.96997v-33h38v33z" fill="#5c5c5c" stroke="#000000" stroke-width="5"/><path d="M205.72657,366.96997v-33h38v33z" fill="#5c5c5c" stroke="#000000" stroke-width="5"/><path d="M245.22657,331.46997v-33h38v33z" fill="#5c5c5c" stroke="#000000" stroke-width="5"/><path d="M244.22657,363.96997v-33h38v33z" fill="#5c5c5c" stroke="#000000" stroke-width="5"/><path d="M285.72657,330.46997v-33h38v33z" fill="#5c5c5c" stroke="#000000" stroke-width="5"/><path d="M285.22657,367.46997v-33h38v33z" fill="#5c5c5c" stroke="#000000" stroke-width="5"/><path d="M325.22657,332.46997v-33h38v33z" fill="#5c5c5c" stroke="#000000" stroke-width="5"/><path d="M327.72657,367.46997v-33h38v33z" fill="#5c5c5c" stroke="#000000" stroke-width="5"/><path d="M364.22657,331.46997v-33h38v33z" fill="#5c5c5c" stroke="#000000" stroke-width="5"/><path d="M359.72657,365.96997v-33h38v33z" fill="#5c5c5c" stroke="#000000" stroke-width="5"/><path d="M100.45313,273.73498v-70h230v70z" fill="#e6e6e6" stroke="#000000" stroke-width="6.5"/><text transform="matrix(0.58532 0 0 0.58532 109.45313 207.59243)" font-size="40"  fill="#ffffff" fill-rule="nonzero" stroke="none" stroke-width="1" stroke-linecap="butt" stroke-linejoin="miter" stroke-miterlimit="10" stroke-dasharray="" stroke-dashoffset="0" font-family="Helvetica" font-weight="normal" text-anchor="start" style="mix-blend-mode: normal" >hey Scratch team
giv</text><g stroke="#000000" stroke-width="6.5"><path d="M212.52805,426.87496l-263.31596,88.04424l-27.20067,-81.34967l263.31596,-88.04424z" data-paper-data="{&quot;index&quot;:null}" fill="url(#color-4)"/><path d="M244.66634,444.69044c-33.69616,11.26689 -70.7868,-8.83252 -82.84435,-44.89332c-12.05753,-36.06073 5.48397,-74.42742 39.18012,-85.69431c33.69616,-11.26689 70.7868,8.83252 82.84435,44.89332c12.05753,36.06073 -5.48396,74.42742 -39.18012,85.69431z" data-paper-data="{&quot;index&quot;:null}" fill="url(#color-5)"/><path d="M195.96208,441.39531c-10.93648,3.6568 -27.89426,-17.57991 -37.87633,-47.43351c-9.98207,-29.85361 -9.20834,-57.01915 1.72807,-60.67593c10.93648,-3.6568 27.89425,17.5799 37.87632,47.43351c9.98207,29.85361 9.20835,57.01915 -1.72806,60.67593z" data-paper-data="{&quot;index&quot;:null}" fill="url(#color-6)"/></g></g></g></svg>