<svg version="1.1" xmlns="http://www.w3.org/2000/svg" xmlns:xlink="http://www.w3.org/1999/xlink" width="113.38053" height="107.37996" viewBox="0,0,113.38053,107.37996"><g transform="translate(-183.30974,-126.31002)"><g data-paper-data="{&quot;isPaintingLayer&quot;:true}" fill="#d4d4d4" fill-rule="nonzero" stroke="none" stroke-width="0.5" stroke-linecap="butt" stroke-linejoin="miter" stroke-miterlimit="10" stroke-dasharray="" stroke-dashoffset="0" style="mix-blend-mode: normal"><path d="M264.46253,229.92718c-3.21784,2.77904 -9.39973,3.0946 -13.38346,3.53861c-8.95648,0.99826 -24.60502,-1.42398 -32.57437,-5.53861c-10.3858,-5.36225 -21.37893,-11.26743 -28.98422,-20.48597c-10.12482,-12.27251 -5.36722,-29.71668 -3.03686,-43.47755c0.46358,-2.73749 -0.08743,-5.55925 0.39063,-8.40413c1.51533,-9.01761 6.98764,-16.59664 13.97005,-22.25734c5.87505,-4.76295 13.4142,-5.69177 20.66886,-5.83641c2.35779,-0.04701 4.90036,-1.15576 7.368,-1.15576c19.95936,0 46.03462,2.77916 59.56559,19.18034c3.17006,3.8425 3.97897,9.62231 5.08297,14.29891c1.2628,5.34931 2.5963,10.78976 3.10966,16.27897c0.33799,3.61404 -1.08033,7.58728 -2.10966,11.07406c-0.87653,2.96917 -0.32251,6.6828 -1.28789,9.83527c-3.74159,12.21829 -11.78342,23.03133 -22.57788,29.84889z"/></g></g></svg>