<svg xmlns="http://www.w3.org/2000/svg" xmlns:xlink="http://www.w3.org/1999/xlink" version="1.1" width="129.83939360727538" height="102.26509856333007" viewBox="-0.9499999913060125 -0.44999998385543194 129.83939360727538 102.26509856333007">
  <!-- Exported by Scratch - http://scratch.mit.edu/ -->
  <path id="ID0.5443468582816422" fill="#000000" stroke="#000000" stroke-width="1.2374464515622894" d="M 65.8632 32.791 C 71.1189 32.6809 77.2039 33.2667 81.0558 36.3486 C 84.5594 39.1533 85.6832 43.9858 85.6003 48.1114 C 85.5087 52.6357 83.9371 57.6949 80.2928 60.9931 C 76.8509 64.1518 71.3418 65.8233 66.2944 65.899 C 61.1866 65.9042 55.4864 64.3113 51.8648 61.2226 C 47.9233 57.9049 45.2656 52.789 45.4295 48.1114 C 45.5854 43.727 48.4945 39.2537 52.296 36.3486 C 55.8964 33.5967 61.1316 32.6809 65.8632 32.791 Z "/>
  <path id="ID0.4069141363725066" fill="none" stroke="#000000" stroke-width="1.9999999915527218" stroke-linecap="round" d="M 73.5815 33.8255 C 73.5815 33.8255 76.4749 25.7922 78.0043 21.8128 C 78.7148 19.9629 78.4979 16.8189 80.3064 16.3242 C 82.167 15.8147 83.6515 18.6655 85.3424 19.8043 C 90.891 23.5403 96.4842 27.2467 102.0466 30.9621 "/>
  <path id="ID0.8678468321450055" fill="none" stroke="#000000" stroke-width="1.9999999609307717" stroke-linecap="round" d="M 79.4578 34.7613 C 79.4578 34.7613 84.3199 30.6822 86.9278 28.8927 C 87.8268 28.2756 89.0905 26.877 89.9253 27.5783 C 92.0704 29.3804 92.5682 32.5342 94.0743 34.8967 C 99.2853 43.0693 104.7556 51.108 110.0882 59.2018 "/>
  <path id="ID0.8587070810608566" fill="none" stroke="#000000" stroke-width="1.9999998868017186" stroke-linecap="round" d="M 84.4852 41.7498 C 84.4852 41.7498 89.1354 38.46 90.4856 40.0394 C 95.1626 45.5126 97.0404 52.9054 99.7269 59.5855 C 101.0625 62.9071 101.5914 66.5101 102.5227 69.967 "/>
  <path id="ID0.07539850194007158" fill="none" stroke="#000000" stroke-width="1.9999999464645366" stroke-linecap="round" d="M 85.5094 50.1381 C 85.5094 50.1381 89.3952 47.9309 89.6456 50.6246 C 90.6474 61.4004 88.5756 83.107 88.5756 83.107 "/>
  <path id="ID0.4069141363725066" fill="none" stroke="#000000" stroke-width="1.9723797580708622" stroke-linecap="round" d="M 57.0134 32.7567 C 57.0134 32.7567 53.424 25.0841 51.553 21.2938 C 50.6837 19.5317 50.5845 16.3838 48.786 16.0865 C 46.9356 15.7802 45.7795 18.773 44.2553 20.0867 C 39.2539 24.3961 34.2063 28.681 29.1895 32.9716 "/>
  <path id="ID0.8678468321450055" fill="none" stroke="#000000" stroke-width="1.9723798088442364" stroke-linecap="round" d="M 51.293 35.583 C 51.293 35.583 46.3551 31.7862 43.7279 30.1475 C 42.8223 29.5824 41.5208 28.2576 40.7479 29.0052 C 38.7619 30.926 38.4471 34.1028 37.1113 36.5468 C 32.4895 45.0015 27.6087 53.3371 22.8646 61.72 "/>
  <path id="ID0.8587070810608566" fill="none" stroke="#000000" stroke-width="1.9723797645157528" stroke-linecap="round" d="M 46.818 42.5383 C 46.818 42.5383 42.2444 39.3625 40.9554 40.9728 C 36.4905 46.553 34.778 53.9843 32.2678 60.7229 C 31.0199 64.0735 30.5609 67.6861 29.7082 71.1622 "/>
  <path id="ID0.07539850194007158" fill="none" stroke="#000000" stroke-width="1.9723798661217498" stroke-linecap="round" d="M 45.6831 50.6652 C 45.6831 50.6652 41.7673 48.7054 41.7022 51.4088 C 41.442 62.2232 44.8856 83.7525 44.8856 83.7525 "/>
  <g id="ID0.9577445294708014">
    <path id="ID0.37750169076025486" fill="#FFFFFF" stroke="#000000" stroke-width="1.3443691729901157" d="M 73.7237 41.0185 C 75.8807 41.0161 77.8356 41.8638 79.2519 43.2363 C 80.6682 44.6079 81.5459 46.5042 81.5477 48.5972 C 81.5494 50.6902 80.6749 52.5884 79.2609 53.9633 C 77.8468 55.3389 75.8934 56.1911 73.7364 56.1935 C 71.5794 56.1959 69.6245 55.3482 68.2082 53.9757 C 66.7919 52.6041 65.9142 50.7078 65.9124 48.6148 C 65.9107 46.5218 66.7852 44.6235 68.1992 43.2487 C 69.6132 41.8731 71.5667 41.0209 73.7237 41.0185 Z "/>
    <path id="ID0.234124637208879" fill="#000000" stroke="black" stroke-width="1.5444463961489148" stroke-linecap="round" d="M 73.595 47.9038 C 74.4114 47.9029 75.1506 48.2739 75.686 48.8744 C 76.2222 49.475 76.5538 50.3045 76.5541 51.2201 C 76.5544 52.1358 76.2234 52.966 75.6876 53.5678 C 75.1526 54.1696 74.4137 54.5422 73.5973 54.5431 C 72.7809 54.544 72.0418 54.1731 71.5064 53.5725 C 70.9701 52.972 70.6385 52.1424 70.6382 51.2268 C 70.6379 50.3112 70.9689 49.4809 71.5048 48.8792 C 72.0397 48.2774 72.7786 47.9048 73.595 47.9038 Z "/>
  </g>
  <g id="ID0.9577445294708014">
    <path id="ID0.37750169076025486" fill="#FFFFFF" stroke="#000000" stroke-width="1.3443691729901157" d="M 58.3237 41.0685 C 60.4807 41.0661 62.4356 41.9138 63.8519 43.2863 C 65.2682 44.6579 66.1459 46.5542 66.1477 48.6472 C 66.1494 50.7402 65.2749 52.6384 63.8609 54.0133 C 62.4468 55.3889 60.4934 56.2411 58.3364 56.2435 C 56.1794 56.2459 54.2245 55.3982 52.8082 54.0257 C 51.3919 52.6541 50.5142 50.7578 50.5124 48.6648 C 50.5107 46.5718 51.3852 44.6735 52.7992 43.2987 C 54.2132 41.9231 56.1667 41.0709 58.3237 41.0685 Z "/>
    <path id="ID0.234124637208879" fill="#000000" stroke="black" stroke-width="1.5444463961489148" stroke-linecap="round" d="M 58.195 48.0038 C 59.0114 48.0029 59.7506 48.3739 60.286 48.9744 C 60.8222 49.575 61.1538 50.4045 61.1541 51.3201 C 61.1544 52.2358 60.8234 53.066 60.2876 53.6678 C 59.7526 54.2696 59.0137 54.6422 58.1973 54.6431 C 57.3809 54.644 56.6418 54.2731 56.1064 53.6725 C 55.5701 53.072 55.2385 52.2424 55.2382 51.3268 C 55.2379 50.4112 55.5689 49.5809 56.1048 48.9792 C 56.6397 48.3774 57.3786 48.0048 58.195 48.0038 Z "/>
  </g>
  <path id="ID0.033297700341790915_9_" fill="none" d="M 0.05 0.55 L 127.8894 0.55 L 127.8894 100.8151 L 0.05 100.8151 L 0.05 0.55 Z " stroke-width="1.0808412389961648"/>
</svg>