<svg version="1.1" width="94" height="102" viewBox="-1 -1 94 102" xmlns="http://www.w3.org/2000/svg" xmlns:xlink="http://www.w3.org/1999/xlink">
  <!-- Exported by Scratch - http://scratch.mit.edu/ -->
  <g id="ID0.37433050107210875">
    <g id="Layer_3">
      <path id="ID0.0065995631739497185" fill="#FAA51D" stroke="#000000" d="M 22.462 79.039 C 20.047 78.588 17.158 77.730 14.720 75.536 C 9.268 70.629 7.526 62.535 3.672 64.622 C -0.184 66.710 -0.110 79.787 12.025 83.816 C 16.207 85.207 20.023 85.212 23.116 85.128 C 23.927 85.103 30.833 84.474 33.195 81.054 C 35.556 77.634 33.914 76.782 33.105 76.310 C 32.295 75.838 25.878 79.677 22.462 79.039 Z " transform="matrix(1, 0, 0, 1, 0, -4)"/>
      <path id="ID0.2721970546990633" fill="#FFFFFF" d="M 4.236 64.877 C 2.247 65.490 1.161 69.875 2.160 73.361 C 3.158 76.851 4.794 78.383 6.023 79.759 C 7.551 80.797 5.303 77.357 7.384 75.609 C 9.459 73.865 13.117 74.695 13.117 74.695 C 13.117 74.695 10.208 70.708 8.547 68.299 C 6.975 65.988 6.359 64.375 4.236 64.877 Z " transform="matrix(1, 0, 0, 1, 0, -4)"/>
    </g>
    <g id="ID0.6603132453747094">
      <path id="ID0.30055658565834165" fill="#FAA51D" d="M 38.217 86.756 C 38.217 86.756 29.385 92.956 21.146 95.168 L 21.232 95.383 C 22.479 97.207 27.102 102.880 20.898 104.879 C 15.565 106.596 5.778 91.775 10.077 88.977 C 12.703 87.264 14.969 88.725 14.969 88.725 C 14.969 88.725 18.443 87.655 20.970 86.380 C 25.273 84.219 26.754 82.927 26.754 82.927 C 26.754 82.927 30.938 78.621 33.610 78.790 C 36.281 78.960 41.669 83.504 38.217 86.756 Z " transform="matrix(1, 0, 0, 1, 0, -4)"/>
      <path id="ID0.7822144795209169" fill="none" stroke="#231F20" stroke-width="1.2" d="M 21.232 95.383 C 22.479 97.207 27.102 102.880 20.898 104.879 C 15.565 106.596 5.569 91.535 9.868 88.734 C 12.494 87.021 14.969 88.724 14.969 88.724 C 14.969 88.724 18.443 87.652 20.970 86.376 C 25.273 84.215 26.754 82.923 26.754 82.923 " transform="matrix(1, 0, 0, 1, 0, -4)"/>
      <path id="ID0.03205751720815897" fill="none" stroke="#231F20" stroke-width="1.2" d="M 38.217 86.756 C 38.217 86.756 28.094 93.863 19.413 95.575 " transform="matrix(1, 0, 0, 1, 0, -4)"/>
    </g>
    <path id="ID0.651427541859448" fill="#FAA51D" stroke="#231F20" stroke-width="1.2" d="M 52.169 74.885 C 52.169 74.885 53.404 75.050 56.913 78.561 C 60.422 82.069 62.939 80.721 65.824 79.285 C 68.701 77.842 76.361 73.159 72.314 69.468 C 68.265 65.780 66.107 70.614 62.599 71.873 C 59.087 73.133 57.538 69.386 55.741 67.586 C 55.152 66.993 54.553 66.487 54.012 66.081 C 54.012 66.081 53.041 65.321 52.106 68.871 C 51.172 72.412 50.162 73.415 52.169 74.885 Z " transform="matrix(1, 0, 0, 1, 0, -4)"/>
    <g id="Layer_2_1_">
      <path id="ID0.5363249480724335" fill="#FAA51D" stroke="#231F20" stroke-width="1.2" d="M 46.753 82.012 C 47.941 81.100 49.150 79.610 50.704 77.299 C 52 75.372 53.404 71.721 53.404 71.721 C 54.279 69.200 55.338 65.145 51.502 64.425 C 49.949 64.134 47.423 64.327 43.832 63.649 C 40.239 62.968 37.034 61.127 34.315 65.882 C 31.597 70.639 24.725 74.153 33.259 82.445 C 33.259 82.445 38.160 86.287 44.023 92.084 C 48.854 96.859 56.068 102.686 56.068 102.686 C 56.068 102.686 75.040 104.874 75.603 101.993 C 77.525 92.203 60.826 95.082 60.826 95.082 C 60.826 95.082 56.221 91.149 54.101 89.288 C 50.623 86.229 42.976 78.517 42.976 78.517 " transform="matrix(1, 0, 0, 1, 0, -4)"/>
      <path id="ID0.7596298004500568" fill="#FFFFFF" d="M 51.253 75.434 C 51.253 75.434 53.723 72.774 48.784 70.117 C 43.845 67.460 41.571 70.100 40.045 71.638 C 37.401 74.293 43.488 78.249 43.488 78.249 L 46.664 81.453 C 46.664 81.453 48.402 79.806 49.163 78.474 C 50.036 77.260 51.253 75.434 51.253 75.434 " transform="matrix(1, 0, 0, 1, 0, -4)"/>
    </g>
    <path id="ID0.9852025364525616" fill="#FAA51D" stroke="#231F20" stroke-width="1.2" d="M 29.926 73.218 C 30.675 72.647 32.815 71.016 34.780 69.561 C 37.208 67.762 40.897 63.712 35.857 61.915 C 30.817 60.114 28.350 63.519 24.338 66.861 C 22.179 68.662 19.030 69.560 20.019 73.070 C 21.012 76.581 24.881 86.478 31.808 83.240 C 38.737 80.001 30.009 74.060 28.748 72.083 " transform="matrix(1, 0, 0, 1, 0, -4)"/>
    <g id="Layer_2">
      <path id="ID0.5241109835915267" fill="#FAA51D" stroke="#231F20" stroke-width="1.2" d="M 52.709 14.156 C 51.169 14.013 47.959 13.840 46.191 13.925 C 41.463 14.150 36.967 15.853 36.967 15.853 L 23.949 7.357 L 26.184 26.263 C 26.830 25.481 15.629 39.067 22.705 50.487 C 29.785 61.913 44.938 67.005 63.693 63.279 C 82.448 59.550 86.922 48.748 85.679 43.033 C 84.437 37.319 77.357 35.210 77.357 35.210 C 77.357 35.210 77.267 30.730 74.029 25.240 C 72.103 21.972 65.681 17.199 65.681 17.199 L 62.822 5.647 L 55.370 12.851 L 52.709 14.156 Z " transform="matrix(1, 0, 0, 1, 0, -4)"/>
      <path id="ID0.14053222071379423" fill="#FFFFFF" d="M 76.420 35.066 L 73.938 33.002 L 64.823 35.663 C 64.823 35.663 64.823 39.082 60.456 40.030 C 56.086 40.981 49.245 37.753 49.245 37.753 L 41.460 41.170 C 41.460 41.170 33.023 42.098 32.721 47.251 C 32.048 58.704 46.100 63.479 51.425 63.783 C 54.330 63.950 59.660 63.445 63.702 62.642 C 81.454 59.408 86.253 48.723 85.012 43.007 C 83.770 37.293 77.034 35.811 77.034 35.811 L 76.420 35.066 Z " transform="matrix(1, 0, 0, 1, 0, -4)"/>
      <path id="ID0.6290038991719484" fill="none" stroke="#231F20" stroke-width="1.2" d="M 10.673 46.155 C 10.673 46.155 14.780 46.529 16.647 46.423 C 18.512 46.316 22.139 45.836 22.139 45.836 " transform="matrix(1, 0, 0, 1, 0, -4)"/>
      <path id="ID0.30399617087095976" fill="none" stroke="#231F20" stroke-width="1.2" d="M 81.656 40.671 C 81.656 40.671 86.205 39.928 88.515 39.122 C 91.230 38.180 93.058 36.577 93.058 36.577 " transform="matrix(1, 0, 0, 1, 0, -4)"/>
      <path id="ID0.4203011691570282" fill="none" stroke="#231F20" stroke-width="1.2" d="M 22.337 41.909 C 22.337 41.909 19.953 40.132 16.220 38.479 C 12.086 36.648 9.815 36.176 9.815 36.176 " transform="matrix(1, 0, 0, 1, 0, -4)"/>
      <path id="ID0.005260630045086145" fill="none" stroke="#231F20" stroke-width="1.2" d="M 82.117 46.622 C 82.117 46.622 84.843 47.726 87.650 48.007 C 90.420 48.283 92.296 48.117 92.296 48.117 " transform="matrix(1, 0, 0, 1, 0, -4)"/>
      <path id="ID0.36163295339792967" fill="none" stroke="#000000" stroke-linecap="round" d="M 52.350 14.212 C 55.190 14.912 56.237 15.681 56.237 15.681 " transform="matrix(1, 0, 0, 1, 0, -4)"/>
      <path id="ID0.4884376581758261" fill="none" stroke="#000000" d="M 33.898 13.684 L 39.956 18.042 " transform="matrix(1, 0, 0, 1, 0, -4)"/>
    </g>
    <g id="Layer_5">
      <path id="ID0.6139535009860992" fill="#FFFFFF" stroke="#231F20" d="M 71.840 25.366 C 74.764 29.845 74.873 34.957 72.082 36.781 C 69.289 38.606 64.656 36.449 61.728 31.968 C 58.795 27.488 58.691 22.379 61.484 20.553 C 64.275 18.730 68.913 20.884 71.840 25.366 Z " transform="matrix(1, 0, 0, 1, 0, -4)"/>
      <path id="ID0.04094189405441284" fill="#231F20" d="M 71.089 32.522 C 71.089 33.602 70.287 34.478 69.289 34.478 C 68.296 34.478 67.486 33.601 67.486 32.522 C 67.486 31.442 68.296 30.564 69.289 30.564 C 70.287 30.564 71.089 31.442 71.089 32.522 " transform="matrix(1, 0, 0, 1, 0, -4)"/>
    </g>
    <g id="Layer_7">
      <path id="ID0.09146235976368189" fill="#FFFFFF" stroke="#231F20" d="M 47.867 28.619 C 50.793 33.099 50.486 38.481 47.186 40.634 C 43.884 42.793 38.835 40.906 35.910 36.426 C 32.982 31.946 33.286 26.566 36.588 24.409 C 39.891 22.253 44.938 24.137 47.867 28.619 Z " transform="matrix(1, 0, 0, 1, 0, -4)"/>
      <path id="ID0.014297184068709612" fill="#231F20" d="M 46.079 34.507 C 46.079 35.588 45.276 36.464 44.278 36.464 C 43.286 36.464 42.475 35.586 42.475 34.507 C 42.475 33.427 43.286 32.550 44.278 32.550 C 45.274 32.550 46.079 33.427 46.079 34.507 " transform="matrix(1, 0, 0, 1, 0, -4)"/>
    </g>
    <path id="ID0.8090035622008145" fill="#5E4A42" stroke="#000000" d="M 59.766 37.926 C 61.620 37.926 64.321 37.642 64.463 38.495 C 64.606 39.350 62.754 42.698 61.475 42.840 C 60.192 42.982 55.350 40.487 55.280 38.921 C 55.206 37.355 58.055 37.926 59.766 37.926 Z " transform="matrix(1, 0, 0, 1, 0, -4)"/>
    <g id="Layer_4">
      <path id="ID0.628821917809546" fill="none" stroke="#231F20" stroke-width="1.2" d="M 46.774 45.235 C 47.564 43.599 53.831 50.100 57.850 51 C 62.437 52.016 72.519 49.415 71.842 50.816 C 71.163 52.221 63.852 61.061 54.514 58.460 C 45.176 55.863 45.984 46.872 46.774 45.235 Z " transform="matrix(1, 0, 0, 1, 0, -4)"/>
    </g>
  </g>
  <path id="ID0.5929792127572" fill="none" stroke="#FFFFFF" stroke-width="1" stroke-linecap="round" d="M 243.350 171.500 C 243.350 171.500 241.449 171.555 240.500 171.600 C 240.033 171.622 239.489 171.959 239.100 171.700 C 238.794 171.496 238.814 170.917 239 170.600 C 239.212 170.240 239.699 170.115 240.100 170 C 240.420 169.909 240.767 170 241.100 170 C 241.433 170 242.122 169.991 242.100 170 C 242.078 170.009 241.267 170.084 240.850 170.100 C 240.401 170.117 239.949 170.084 239.500 170.100 C 239.033 170.117 238.205 169.965 238.100 170.200 C 238.005 170.415 238.701 170.848 239.100 171 C 239.442 171.130 240.180 170.879 240.200 171 C 240.220 171.121 239.188 171.584 239.200 171.600 C 239.212 171.616 239.987 171.381 240.350 171.200 C 240.925 170.913 241.461 170.550 242 170.200 C 242.411 169.933 243.175 169.562 243.200 169.350 C 243.221 169.168 242.450 169.242 242.100 169.350 C 241.721 169.467 241.215 169.620 241.100 170 C 240.992 170.356 241.346 170.728 241.600 171 C 241.834 171.251 242.166 171.421 242.500 171.500 C 242.889 171.593 243.305 171.563 243.700 171.500 C 244.147 171.428 245.021 171.272 245 171.100 C 244.979 170.928 244.084 170.719 243.600 170.700 C 243.221 170.685 242.865 170.895 242.500 171 C 242.115 171.111 241.398 171.414 241.350 171.350 C 241.302 171.286 242.238 170.915 242.200 170.600 C 242.163 170.290 241.566 170.170 241.200 170.100 C 240.839 170.031 240.462 170.134 240.100 170.200 C 239.726 170.268 239.014 170.442 239 170.500 C 238.986 170.558 239.669 170.647 240 170.600 C 240.386 170.545 240.715 170.262 241.100 170.200 C 241.560 170.126 242.482 170.200 242.500 170.200 C 242.518 170.200 241.733 170.200 241.350 170.200 C 241.017 170.200 240.618 170.398 240.350 170.200 C 240.066 169.990 240.284 169.410 240 169.200 C 239.732 169.002 239.332 169.175 239 169.200 C 238.664 169.225 238.333 169.300 238 169.350 C 237.917 169.362 238 169.350 238 169.350 " transform="matrix(1, 0, 0, 1, -193, -129)"/>
  <path id="ID0.7418845687061548" fill="none" stroke="#FFFFFF" stroke-width="1" stroke-linecap="round" d="M 241.600 174.200 C 241.600 174.200 240.366 175.028 239.700 175.350 C 239.325 175.531 238.452 175.730 238.500 175.700 C 238.548 175.670 239.566 175.296 240.100 175.100 C 240.565 174.930 241.022 174.730 241.500 174.600 C 241.941 174.480 242.377 174.478 242.850 174.350 C 244.742 173.837 246.600 173.181 248.500 172.700 C 249.434 172.464 250.401 172.366 251.350 172.200 C 252.016 172.083 252.690 171.996 253.350 171.850 C 253.973 171.712 254.984 171.477 255.200 171.350 C 255.346 171.264 254.532 171.375 254.200 171.350 C 253.864 171.325 253.536 171.221 253.200 171.200 C 252.751 171.171 252.299 171.219 251.850 171.200 C 251.516 171.186 251.185 171.110 250.850 171.100 C 250.018 171.076 249.183 171.100 248.350 171.100 C 247.734 171.100 247.116 171.100 246.500 171.100 C 245.568 171.100 244.632 171.100 243.700 171.100 C 242.917 171.100 242.133 171.100 241.350 171.100 C 239.768 171.100 238.182 171.124 236.600 171.100 C 236.016 171.091 235.433 171.018 234.850 171 C 234.351 170.985 233.850 171 233.350 171 C 232.967 171 232.581 170.965 232.200 171 C 231.862 171.031 231.119 171.058 231.200 171.200 C 231.297 171.369 232.114 171.607 232.600 171.700 C 233.256 171.825 233.933 171.821 234.600 171.850 C 235.099 171.871 235.600 171.850 236.100 171.850 C 236.600 171.850 237.100 171.850 237.600 171.850 C 238.066 171.850 238.534 171.850 239 171.850 C 239.400 171.850 239.800 171.850 240.200 171.850 C 240.533 171.850 240.867 171.850 241.200 171.850 C 241.633 171.850 242.368 171.678 242.500 171.850 C 242.611 171.994 242.038 172.441 241.700 172.500 C 241.294 172.571 240.912 172.200 240.500 172.200 C 239.496 172.200 238.501 172.428 237.500 172.500 C 237.118 172.528 236.727 172.431 236.350 172.500 C 235.619 172.633 234.316 172.993 234.200 173.100 C 234.084 173.207 235.200 173.100 235.700 173.100 C 236.133 173.100 236.573 173.171 237 173.100 C 237.384 173.036 237.717 172.774 238.100 172.700 C 238.592 172.605 239.100 172.633 239.600 172.600 C 240.100 172.567 240.605 172.576 241.100 172.500 C 241.475 172.442 241.828 172.277 242.200 172.200 C 242.629 172.111 243.071 172.089 243.500 172 C 243.872 171.923 244.646 171.689 244.600 171.700 C 244.554 171.711 243.596 171.954 243.100 172.100 C 242.463 172.287 241.823 172.471 241.200 172.700 C 240.689 172.888 240.212 173.166 239.700 173.350 C 239.377 173.466 239.029 173.503 238.700 173.600 C 238.296 173.719 237.898 173.862 237.500 174 C 237.032 174.162 235.999 174.416 236.100 174.500 C 236.201 174.584 237.435 174.529 238.100 174.500 C 238.602 174.479 239.103 174.421 239.600 174.350 C 240.269 174.254 240.936 174.128 241.600 174 C 242.235 173.878 242.860 173.692 243.500 173.600 C 244.361 173.476 245.237 173.455 246.100 173.350 C 246.603 173.289 247.097 173.159 247.600 173.100 C 248.097 173.042 249.106 172.994 249.100 173 C 249.094 173.006 248.032 173.124 247.500 173.200 C 246.866 173.291 246.236 173.427 245.600 173.500 C 245.070 173.561 244.532 173.559 244 173.600 C 243.666 173.626 243.334 173.684 243 173.700 C 242.617 173.718 242.229 173.643 241.850 173.700 C 241.339 173.777 240.370 174.033 240.350 174.100 C 240.330 174.167 241.249 174.200 241.700 174.200 C 242.035 174.200 242.368 174.144 242.700 174.100 C 243.251 174.027 243.802 173.944 244.350 173.850 C 244.968 173.744 245.583 173.610 246.200 173.500 C 246.798 173.393 247.411 173.350 248 173.200 C 248.465 173.082 248.887 172.825 249.350 172.700 C 250.122 172.491 250.906 172.301 251.700 172.200 C 252.743 172.067 253.800 172.045 254.850 172 C 255.349 171.979 256.360 172 256.350 172 C 256.341 172 255.249 172 254.700 172 C 254.300 172 253.900 172 253.500 172 C 253.034 172 252.566 172 252.100 172 C 251.600 172 251.087 171.888 250.600 172 C 250.193 172.094 249.891 172.455 249.500 172.600 C 248.803 172.857 248.089 173.116 247.350 173.200 C 246.308 173.318 245.249 173.200 244.200 173.200 C 243.534 173.200 242.865 173.167 242.200 173.200 C 241.864 173.217 241.122 173.327 241.200 173.350 C 241.278 173.373 242.200 173.350 242.700 173.350 C 243.033 173.350 243.368 173.379 243.700 173.350 C 244.336 173.295 244.972 173.213 245.600 173.100 C 246.355 172.964 247.108 172.796 247.850 172.600 C 248.242 172.496 249.019 172.251 249 172.200 C 248.981 172.149 248.129 172.144 247.700 172.200 C 247.355 172.245 247.044 172.451 246.700 172.500 C 246.337 172.552 245.966 172.500 245.600 172.500 C 245.017 172.500 244.432 172.479 243.850 172.500 C 243.516 172.512 242.808 172.618 242.850 172.600 C 242.892 172.582 243.758 172.466 244.200 172.350 C 244.709 172.216 245.183 171.948 245.700 171.850 C 246.076 171.779 246.835 171.875 246.850 171.850 C 246.865 171.825 246.193 171.600 245.850 171.600 C 245.096 171.600 244.347 171.748 243.600 171.850 C 242.515 171.998 241.429 172.163 240.350 172.350 C 239.797 172.446 238.754 172.624 238.700 172.700 C 238.646 172.776 239.565 172.822 240 172.850 C 240.332 172.872 240.667 172.850 241 172.850 C 241.400 172.850 241.816 172.741 242.200 172.850 C 242.838 173.031 243.401 173.417 244 173.700 C 244.150 173.771 244 173.700 244 173.700 " transform="matrix(1, 0, 0, 1, -193, -129)"/>
  <path id="ID0.8326562708243728" fill="none" stroke="#FFFFFF" stroke-width="1" stroke-linecap="round" d="M 245.850 173.350 C 246.488 173.882 246.166 174.350 246.350 174.700 C 246.509 175.007 247.047 175.170 247.350 175 C 247.649 174.832 247.600 174.343 247.600 174 C 247.600 173.657 247.350 173 247.350 173 C 247.350 173 247.466 173.684 247.600 174 C 247.752 174.357 248.206 175 248.200 175 C 248.194 175 247.461 174.039 247.500 174 C 247.539 173.961 248.485 174.692 248.500 174.700 C 248.515 174.708 247.977 174.285 247.700 174.100 C 247.377 173.885 247.047 173.674 246.700 173.500 C 246.613 173.457 246.723 173.521 246.700 173.600 Z " transform="matrix(1, 0, 0, 1, -193, -129)"/>
  <path id="ID0.6762016634456813" fill="none" stroke="#FFFFFF" stroke-width="1" stroke-linecap="round" d="M 246.350 172.600 C 246.350 172.600 246.001 173.596 245.850 174.100 C 245.751 174.429 245.408 175.010 245.600 175.100 C 245.833 175.210 246.428 174.817 246.700 174.500 C 246.964 174.192 246.967 173.733 247.100 173.350 C 247.233 172.967 247.500 172.209 247.500 172.200 C 247.500 172.190 247.042 173.151 247.100 173.200 C 247.158 173.249 247.591 172.406 247.850 172.500 C 248.141 172.606 247.946 173.312 248.200 173.600 C 248.486 173.924 248.948 174.043 249.350 174.200 C 249.719 174.344 250.120 174.390 250.500 174.500 C 250.869 174.607 251.232 174.740 251.600 174.850 C 252.181 175.023 252.771 175.171 253.350 175.350 C 253.687 175.454 254.017 175.584 254.350 175.700 C 254.733 175.834 255.483 176.066 255.500 176.100 C 255.517 176.134 254.830 176.057 254.500 176 C 254.062 175.924 253.638 175.776 253.200 175.700 C 252.870 175.643 252.530 175.655 252.200 175.600 C 251.829 175.538 251.124 175.587 251.100 175.350 C 251.074 175.087 252.251 174.872 252.100 174.600 C 251.876 174.197 250.941 174.173 250.350 174 C 249.691 173.807 249.015 173.669 248.350 173.500 C 247.966 173.403 247.590 173.266 247.200 173.200 C 246.805 173.133 246.397 173.156 246 173.100 C 245.563 173.039 245.134 172.926 244.700 172.850 C 244.368 172.792 244.029 172.770 243.700 172.700 C 243.246 172.603 242.390 172.333 242.350 172.350 C 242.310 172.367 242.995 172.737 243.350 172.850 C 243.786 172.989 244.252 173.010 244.700 173.100 C 245.084 173.177 245.467 173.268 245.850 173.350 C 246.399 173.468 246.954 173.570 247.500 173.700 C 248.003 173.820 248.500 173.967 249 174.100 C 249.500 174.233 250.004 174.356 250.500 174.500 C 251.036 174.656 251.563 174.848 252.100 175 C 252.562 175.131 253.038 175.219 253.500 175.350 C 254.037 175.502 254.559 175.713 255.100 175.850 C 255.676 175.996 256.272 176.063 256.850 176.200 C 257.188 176.280 257.527 176.371 257.850 176.500 C 258.196 176.638 258.926 176.969 258.850 177 C 258.774 177.031 257.857 176.745 257.350 176.700 C 256.736 176.645 256.116 176.700 255.500 176.700 C 254.951 176.700 254.399 176.729 253.850 176.700 C 253.132 176.662 252.418 176.532 251.700 176.500 C 250.918 176.465 250.132 176.526 249.350 176.500 C 248.599 176.476 247.846 176.440 247.100 176.350 C 246.461 176.273 245.836 176.094 245.200 176 C 244.703 175.927 244.199 175.903 243.700 175.850 C 243.250 175.803 242.253 175.722 242.350 175.700 C 242.447 175.678 243.684 175.700 244.350 175.700 C 244.800 175.700 245.250 175.700 245.700 175.700 C 246.299 175.700 246.901 175.700 247.500 175.700 C 247.950 175.700 248.400 175.700 248.850 175.700 C 249.516 175.700 250.184 175.700 250.850 175.700 C 251.516 175.700 252.184 175.700 252.850 175.700 C 253.300 175.700 253.750 175.700 254.200 175.700 C 254.583 175.700 255.416 175.813 255.350 175.700 C 255.284 175.587 254.370 175.239 253.850 175.100 C 253.115 174.904 252.352 174.817 251.600 174.700 C 251.069 174.617 250.532 174.576 250 174.500 C 249.366 174.409 248.737 174.270 248.100 174.200 C 247.520 174.136 246.933 174.133 246.350 174.100 C 245.767 174.067 245.178 174.079 244.600 174 C 243.959 173.912 243.333 173.734 242.700 173.600 C 241.917 173.434 240.399 173.125 240.350 173.100 C 240.301 173.075 241.582 173.282 242.200 173.350 C 242.798 173.416 243.402 173.440 244 173.500 C 244.567 173.557 245.133 173.642 245.700 173.700 C 247.081 173.842 248.471 173.941 249.850 174.100 C 250.353 174.158 250.852 174.258 251.350 174.350 C 251.934 174.458 252.891 174.491 253.100 174.700 C 253.241 174.841 252.446 175.006 252.100 175.100 C 251.643 175.224 251.171 175.303 250.700 175.350 C 250.336 175.386 249.600 175.371 249.600 175.350 C 249.600 175.329 250.675 175.288 250.700 175.100 C 250.725 174.913 250.057 174.707 249.700 174.600 C 249.379 174.504 249.032 174.540 248.700 174.500 C 248.333 174.456 247.611 174.384 247.600 174.350 C 247.589 174.316 248.264 174.224 248.600 174.200 C 248.965 174.174 249.335 174.176 249.700 174.200 C 250.085 174.226 250.865 174.339 250.850 174.350 C 250.835 174.361 249.950 174.350 249.500 174.350 C 249.167 174.350 248.831 174.314 248.500 174.350 C 248.062 174.398 247.194 174.590 247.200 174.600 C 247.206 174.609 248.133 174.519 248.600 174.500 C 248.933 174.486 249.600 174.411 249.600 174.500 C 249.600 174.589 248.837 175.132 248.600 175 C 248.387 174.882 248.398 174.057 248.700 174 C 249.198 173.907 249.688 174.495 250.200 174.700 C 250.523 174.829 250.858 174.936 251.200 175 C 251.578 175.070 251.966 175.084 252.350 175.100 C 252.766 175.117 253.189 175.034 253.600 175.100 C 254.032 175.169 254.418 175.431 254.850 175.500 C 255.261 175.566 255.684 175.500 256.100 175.500 C 256.683 175.500 257.267 175.500 257.850 175.500 C 258.183 175.500 258.519 175.467 258.850 175.500 C 259.188 175.534 259.765 175.859 259.850 175.700 C 259.940 175.534 259.521 175.006 259.200 174.850 C 258.871 174.690 258.461 174.790 258.100 174.850 C 257.752 174.908 257.100 175.014 257.100 175.200 C 257.100 175.389 257.757 175.494 258.100 175.600 C 258.459 175.711 258.832 175.773 259.200 175.850 C 259.632 175.940 260.500 176.082 260.500 176.100 C 260.500 176.118 259.633 176.100 259.200 176.100 C 258.750 176.100 258.299 176.081 257.850 176.100 C 257.516 176.114 256.828 176.191 256.850 176.200 C 256.872 176.209 257.684 176.200 258.100 176.200 C 258.766 176.200 259.434 176.200 260.100 176.200 C 260.733 176.200 261.367 176.200 262 176.200 C 262.333 176.200 262.667 176.200 263 176.200 C 263.366 176.200 263.734 176.200 264.100 176.200 C 264.933 176.200 265.768 176.200 266.600 176.200 C 266.933 176.200 267.600 176.142 267.600 176.200 C 267.600 176.258 266.950 176.522 266.600 176.600 C 266.192 176.691 265.767 176.683 265.350 176.700 C 264.967 176.716 264.583 176.700 264.200 176.700 C 263.867 176.700 263.533 176.700 263.200 176.700 C 262.800 176.700 262.400 176.700 262 176.700 C 261.617 176.700 261.233 176.700 260.850 176.700 C 260.184 176.700 259.516 176.720 258.850 176.700 C 258.433 176.687 258.008 176.687 257.600 176.600 C 257.219 176.519 256.416 176.410 256.500 176.200 C 256.616 175.910 257.492 175.778 258 175.600 C 258.442 175.445 258.891 175.298 259.350 175.200 C 259.677 175.130 260.019 175.152 260.350 175.100 C 261.069 174.986 261.779 174.803 262.500 174.700 C 262.946 174.636 263.407 174.682 263.850 174.600 C 264.311 174.515 265.180 174.208 265.200 174.200 C 265.220 174.192 264.100 174.306 264.100 174.500 C 264.100 174.705 264.813 174.889 265.200 175 C 265.522 175.092 266.200 175.109 266.200 175.100 C 266.200 175.091 265.539 174.904 265.200 174.850 C 264.704 174.771 264.201 174.730 263.700 174.700 C 263.368 174.680 263.033 174.700 262.700 174.700 C 262.250 174.700 261.800 174.700 261.350 174.700 C 260.900 174.700 260.450 174.700 260 174.700 C 259.567 174.700 258.520 174.718 258.700 174.700 C 258.909 174.679 260.233 174.611 261 174.600 C 262.498 174.578 264.002 174.600 265.500 174.600 C 265.950 174.600 266.401 174.576 266.850 174.600 C 267.934 174.659 269.605 174.737 270.100 174.850 C 270.377 174.913 269.098 174.937 268.600 175 C 268.182 175.053 267.771 175.174 267.350 175.200 C 266.685 175.241 266.016 175.177 265.350 175.200 C 264.600 175.226 263.848 175.281 263.100 175.350 C 262.765 175.381 262.436 175.476 262.100 175.500 C 261.735 175.526 261.366 175.500 261 175.500 C 260.500 175.500 259.528 175.514 259.500 175.500 C 259.472 175.486 260.300 175.396 260.700 175.350 C 261.166 175.296 261.636 175.265 262.100 175.200 C 262.469 175.148 262.832 175.054 263.200 175 C 263.631 174.937 264.471 174.850 264.500 174.850 C 264.529 174.850 263.833 174.951 263.500 175 C 263.034 175.068 262.569 175.161 262.100 175.200 C 261.768 175.228 261.050 175.200 261.100 175.200 C 261.150 175.200 262.034 175.200 262.500 175.200 C 262.900 175.200 263.305 175.141 263.700 175.200 C 263.981 175.242 264.500 175.500 264.500 175.500 " transform="matrix(1, 0, 0, 1, -193, -129)"/>
  <path id="ID0.8027142276987433" fill="none" stroke="#FFFFFF" stroke-width="1" stroke-linecap="round" d="M 263.200 176.600 C 263.200 176.600 262.906 177.550 262.700 178 C 262.538 178.353 261.923 179.071 262.100 179 C 262.346 178.902 263.214 178.115 263.700 177.600 C 264.052 177.227 264.801 176.370 264.600 176.350 C 264.399 176.330 263.278 177.038 262.700 177.500 C 262.429 177.716 261.955 178.239 262.100 178.350 C 262.271 178.482 262.967 178.200 263.350 178 C 263.781 177.775 264.458 177.351 264.500 177.100 C 264.530 176.917 263.824 177.025 263.500 177.100 C 263.093 177.195 262.735 177.439 262.350 177.600 C 262.019 177.738 261.687 177.879 261.350 178 C 260.855 178.178 260.350 178.333 259.850 178.500 C 259.351 178.667 258.847 178.826 258.350 179 C 257.898 179.159 257.452 179.341 257 179.500 C 256.503 179.674 256.004 179.847 255.500 180 C 254.905 180.180 254.281 180.279 253.700 180.500 C 253.227 180.680 252.801 180.970 252.350 181.200 C 252.018 181.369 251.292 181.514 251.350 181.700 C 251.415 181.909 252.172 182.016 252.600 182 C 253.085 181.982 253.525 181.695 254 181.600 C 254.361 181.528 254.739 181.572 255.100 181.500 C 255.575 181.405 256.032 181.227 256.500 181.100 C 256.831 181.010 257.165 180.926 257.500 180.850 C 257.898 180.760 258.299 180.678 258.700 180.600 C 259.415 180.461 260.127 180.288 260.850 180.200 C 261.230 180.154 261.974 180.114 262 180.200 C 262.026 180.286 261.340 180.547 261 180.700 C 260.673 180.847 260.089 181.211 260 181.100 C 259.911 180.989 260.368 180.475 260.600 180.200 C 260.820 179.939 261.060 179.681 261.350 179.500 C 261.868 179.176 262.489 179.034 263 178.700 C 263.414 178.429 264.100 177.770 264.100 177.700 C 264.100 177.630 263.370 178.042 263 178.200 C 262.670 178.341 262.325 178.449 262 178.600 C 261.608 178.782 260.844 179.200 260.850 179.200 C 260.856 179.200 262.091 178.600 262.100 178.600 C 262.110 178.600 261.359 178.987 261 179.200 C 260.659 179.403 260.352 179.667 260 179.850 C 259.517 180.101 258.992 180.266 258.500 180.500 C 257.942 180.766 257.421 181.113 256.850 181.350 C 256.533 181.482 256.179 181.501 255.850 181.600 C 255.462 181.717 255.095 181.908 254.700 182 C 254.374 182.076 254.033 182.067 253.700 182.100 C 253.367 182.133 252.823 181.953 252.700 182.200 C 252.573 182.453 252.899 182.937 253.200 183.100 C 253.769 183.408 254.456 183.440 255.100 183.500 C 255.896 183.574 256.701 183.533 257.500 183.500 C 257.902 183.483 258.380 183.595 258.700 183.350 C 258.976 183.138 258.916 182.687 259 182.350 C 259.082 182.021 259.141 181.685 259.200 181.350 C 259.258 181.018 259.539 180.628 259.350 180.350 C 259.157 180.066 258.683 180.017 258.350 180.100 C 257.946 180.201 257.290 180.549 257.350 180.850 C 257.415 181.174 258.153 181.320 258.600 181.350 C 258.952 181.373 259.600 181.045 259.600 181 C 259.600 180.955 258.933 181 258.600 181 C 258.234 181 257.865 180.976 257.500 181 C 256.865 181.042 256.233 181.133 255.600 181.200 C 255.134 181.249 254.234 181.295 254.200 181.350 C 254.166 181.405 254.960 181.561 255.350 181.600 C 255.797 181.645 256.250 181.600 256.700 181.600 C 257.083 181.600 257.781 181.462 257.850 181.600 C 257.919 181.738 257.287 182.006 257 182.200 C 256.671 182.422 256 182.765 256 182.850 C 256 182.935 256.677 182.797 257 182.700 C 257.515 182.545 258.012 182.325 258.500 182.100 C 258.879 181.925 259.657 181.614 259.600 181.500 C 259.543 181.386 258.650 181.380 258.200 181.500 C 257.865 181.589 257.312 181.922 257.350 182.100 C 257.387 182.272 258.023 182.270 258.350 182.200 C 258.831 182.098 259.229 181.740 259.700 181.600 C 260.021 181.504 260.370 181.555 260.700 181.500 C 261.170 181.422 262.078 181.273 262.100 181.200 C 262.122 181.127 261.271 181.028 260.850 181 C 260.269 180.961 259.683 181 259.100 181 C 258.767 181 258.433 181 258.100 181 C 257.634 181 257.166 181 256.700 181 C 256.250 181 255.800 181 255.350 181 C 254.934 181 254.516 181 254.100 181 C 253.684 181 253.266 180.984 252.850 181 C 252.400 181.017 251.490 181.087 251.500 181.100 C 251.510 181.113 252.500 181.181 253 181.200 C 253.399 181.215 253.818 181.082 254.200 181.200 C 254.553 181.309 255.034 181.486 255.100 181.850 C 255.169 182.232 254.464 182.799 254.500 182.850 C 254.536 182.901 255.333 182.556 255.350 182.200 C 255.376 181.642 255.053 180.912 254.600 180.700 C 254.303 180.562 253.786 181.208 253.850 181.500 C 253.911 181.783 254.499 181.815 254.850 181.850 C 255.185 181.884 255.520 181.766 255.850 181.700 C 255.938 181.682 256.100 181.600 256.100 181.600 " transform="matrix(1, 0, 0, 1, -193, -129)"/>
  <path id="ID0.7505440139211714" fill="none" stroke="#FFFFFF" stroke-width="1" stroke-linecap="round" d="M 255.200 182.200 C 255.071 182.819 254.344 183.143 254.350 183.200 C 254.355 183.252 255.076 183.201 255.350 183 C 255.626 182.797 255.850 182.137 255.850 182.100 C 255.850 182.063 255.530 182.568 255.350 182.700 Z " transform="matrix(1, 0, 0, 1, -193, -129)"/>
  <path id="ID0.26596463611349463" fill="none" stroke="#FFFFFF" stroke-width="1" stroke-linecap="round" d="M 253.350 182.850 C 253.350 182.850 252.240 182.968 251.700 183.100 C 251.352 183.185 251.036 183.374 250.700 183.500 C 250.370 183.624 249.645 183.758 249.700 183.850 C 249.755 183.942 250.564 184 251 184 C 251.502 184 252.002 183.910 252.500 183.850 C 252.834 183.810 253.168 183.758 253.500 183.700 C 253.835 183.641 254.162 183.532 254.500 183.500 C 254.865 183.465 255.589 183.533 255.600 183.500 C 255.611 183.467 254.945 183.241 254.600 183.200 C 254.104 183.140 253.600 183.200 253.100 183.200 C 252.767 183.200 252.433 183.182 252.100 183.200 C 251.516 183.232 250.931 183.287 250.350 183.350 C 250.015 183.387 249.339 183.489 249.350 183.500 C 249.361 183.511 250.117 183.500 250.500 183.500 C 250.866 183.500 251.244 183.585 251.600 183.500 C 251.962 183.414 252.655 183.143 252.600 183 C 252.545 182.857 251.768 182.817 251.350 182.850 C 250.919 182.884 250.515 183.080 250.100 183.200 C 249.766 183.296 249.100 183.491 249.100 183.500 C 249.100 183.510 249.781 183.459 250.100 183.350 C 250.424 183.239 251.087 183.034 251 182.850 C 250.887 182.609 250.139 182.591 249.700 182.500 C 249.338 182.425 248.966 182.401 248.600 182.350 C 248.017 182.268 247.436 182.159 246.850 182.100 C 246.269 182.042 245.683 182.021 245.100 182 C 244.767 181.988 243.996 182 244.100 182 C 244.204 182 245.167 182 245.700 182 C 246.033 182 246.369 181.961 246.700 182 C 247.372 182.078 248.028 182.272 248.700 182.350 C 249.031 182.389 249.367 182.350 249.700 182.350 C 250.133 182.350 250.567 182.350 251 182.350 C 251.500 182.350 252.422 182.327 252.500 182.350 C 252.578 182.373 251.834 182.461 251.500 182.500 C 251.118 182.544 250.734 182.584 250.350 182.600 C 249.934 182.617 249.516 182.585 249.100 182.600 C 248.566 182.619 248.034 182.683 247.500 182.700 C 247.001 182.716 246.500 182.700 246 182.700 C 245.667 182.700 245.333 182.700 245 182.700 C 244.667 182.700 243.401 182.661 244 182.700 C 246.396 182.855 248.801 182.987 251.200 183.100 C 251.800 183.128 252.069 183.059 252.500 183.100 C 252.955 183.143 253.850 183.306 253.850 183.350 C 253.850 183.394 252.952 183.474 252.500 183.500 C 252.068 183.524 251.633 183.500 251.200 183.500 C 250.834 183.500 250.466 183.500 250.100 183.500 C 249.684 183.500 249.266 183.500 248.850 183.500 C 248.517 183.500 247.837 183.483 247.850 183.500 C 247.863 183.517 248.615 183.649 249 183.700 C 249.498 183.766 249.999 183.822 250.500 183.850 C 250.899 183.872 251.301 183.826 251.700 183.850 C 252.135 183.876 252.990 184.010 253 184 C 253.010 183.990 252.239 183.772 251.850 183.700 C 251.521 183.639 251.184 183.616 250.850 183.600 C 250.467 183.582 250.083 183.614 249.700 183.600 C 249.167 183.581 248.628 183.579 248.100 183.500 C 247.509 183.412 246.941 183.191 246.350 183.100 C 245.855 183.024 245.349 183.044 244.850 183 C 244.399 182.960 243.946 182.926 243.500 182.850 C 243.162 182.792 242.500 182.645 242.500 182.600 C 242.500 182.555 243.166 182.514 243.500 182.500 C 243.949 182.481 244.400 182.500 244.850 182.500 C 245.399 182.500 245.951 182.500 246.500 182.500 C 246.866 182.500 247.234 182.500 247.600 182.500 C 248.016 182.500 248.435 182.470 248.850 182.500 C 249.353 182.537 249.854 182.609 250.350 182.700 C 250.938 182.809 251.962 182.994 252.100 183.100 C 252.224 183.195 251.366 183.163 251 183.200 C 250.533 183.247 250.065 183.292 249.600 183.350 C 249.266 183.392 248.600 183.455 248.600 183.500 C 248.600 183.545 249.600 183.685 249.600 183.700 C 249.600 183.715 248.932 183.729 248.600 183.700 C 248.180 183.663 247.757 183.609 247.350 183.500 C 247.003 183.408 246.300 183.143 246.350 183.100 C 246.400 183.057 247.251 183.159 247.700 183.200 C 248.167 183.242 248.637 183.276 249.100 183.350 C 249.471 183.409 250.222 183.587 250.200 183.600 C 250.178 183.613 249.300 183.519 248.850 183.500 C 248.517 183.486 248.182 183.471 247.850 183.500 C 247.430 183.537 246.645 183.609 246.600 183.700 C 246.555 183.791 247.258 183.935 247.600 184 C 247.961 184.069 248.343 184.011 248.700 184.100 C 249.150 184.212 249.987 184.579 250 184.600 C 250.013 184.621 249.232 184.439 248.850 184.350 C 248.516 184.272 247.912 184.346 247.850 184.100 C 247.787 183.846 248.371 183.619 248.600 183.350 C 248.658 183.282 248.700 183.100 248.700 183.100 " transform="matrix(1, 0, 0, 1, -193, -129)"/>
  <path id="ID0.08072142768651247" fill="none" stroke="#FFFFFF" stroke-width="1" stroke-linecap="round" d="M 243.850 182 C 243.850 182 242.975 180.878 242.500 180.350 C 242.224 180.044 241.938 179.736 241.600 179.500 C 241.099 179.149 240.504 178.946 240 178.600 C 239.699 178.393 239.451 178.116 239.200 177.850 C 238.900 177.532 238.633 177.183 238.350 176.850 C 238.067 176.517 237.732 176.220 237.500 175.850 C 237.278 175.496 237.155 175.088 237 174.700 C 236.855 174.338 236.670 173.983 236.600 173.600 C 236.534 173.240 236.415 172.562 236.600 172.500 C 236.790 172.437 237.164 173.022 237.350 173.350 C 237.587 173.767 237.650 174.264 237.850 174.700 C 238.034 175.100 238.290 175.464 238.500 175.850 C 238.706 176.230 238.863 176.958 239.100 177 C 239.288 177.033 239.310 176.341 239.350 176 C 239.394 175.620 239.136 174.951 239.350 174.850 C 239.561 174.751 240.001 175.279 240.200 175.600 C 240.400 175.922 240.412 176.331 240.500 176.700 C 240.579 177.030 240.683 177.869 240.700 177.700 C 240.725 177.450 240.747 176.350 240.600 175.700 C 240.508 175.293 240.243 174.940 240 174.600 C 239.740 174.235 239.461 173.600 239.100 173.600 C 238.811 173.600 238.778 174.250 238.700 174.600 C 238.609 175.008 238.574 175.433 238.600 175.850 C 238.624 176.241 238.773 176.616 238.850 177 C 238.940 177.448 238.826 178.213 239.100 178.350 C 239.326 178.463 239.726 177.856 239.850 177.500 C 239.993 177.091 239.850 176.633 239.850 176.200 C 239.850 175.834 239.827 175.086 239.850 175.100 C 239.873 175.114 240.035 175.931 240.100 176.350 C 240.151 176.681 240.119 177.025 240.200 177.350 C 240.287 177.698 240.510 178.350 240.600 178.350 C 240.690 178.350 240.716 177.684 240.700 177.350 C 240.682 176.962 240.589 176.227 240.500 176.200 C 240.411 176.173 240.224 176.853 240.200 177.200 C 240.173 177.585 240.263 177.974 240.350 178.350 C 240.430 178.694 240.542 179.034 240.700 179.350 C 240.878 179.705 241.112 180.032 241.350 180.350 C 241.612 180.700 241.900 181.032 242.200 181.350 C 242.451 181.616 242.764 181.822 243 182.100 C 243.233 182.375 243.464 183.091 243.600 183 C 243.736 182.909 243.671 182.127 243.600 181.700 C 243.536 181.316 243.374 180.949 243.200 180.600 C 243.039 180.278 242.832 179.975 242.600 179.700 C 242.380 179.439 241.922 178.946 241.850 179 C 241.778 179.054 242.068 179.673 242.200 180 C 242.351 180.373 242.469 180.771 242.700 181.100 C 243.025 181.563 243.298 182.227 243.850 182.350 C 244.198 182.427 244.390 181.839 244.500 181.500 C 244.618 181.136 244.500 180.733 244.500 180.350 C 244.500 180.017 244.561 179.677 244.500 179.350 C 244.426 178.951 244.281 178.563 244.100 178.200 C 243.945 177.890 243.500 177.350 243.500 177.350 C 243.500 177.350 243.904 177.914 244.100 178.200 C 244.304 178.497 244.706 179.100 244.700 179.100 C 244.694 179.100 244.304 178.428 244 178.200 C 243.619 177.914 243.111 177.482 242.700 177.600 C 242.411 177.682 242.497 178.282 242.600 178.600 C 242.729 178.996 243.092 179.273 243.350 179.600 C 243.592 179.906 243.836 180.213 244.100 180.500 C 244.419 180.846 244.723 181.217 245.100 181.500 C 245.398 181.723 245.755 181.860 246.100 182 C 246.456 182.144 247.182 182.262 247.200 182.350 C 247.218 182.438 246.536 182.476 246.200 182.500 C 245.835 182.526 245.466 182.522 245.100 182.500 C 244.632 182.472 244.163 182.424 243.700 182.350 C 243.329 182.291 242.967 182.178 242.600 182.100 C 242.185 182.012 241.774 181.869 241.350 181.850 C 241.014 181.835 240.685 181.968 240.350 182 C 239.802 182.052 239.250 182.079 238.700 182.100 C 238.367 182.113 238.033 182.100 237.700 182.100 C 237.334 182.100 236.966 182.100 236.600 182.100 C 236.267 182.100 235.896 182.252 235.600 182.100 C 235.253 181.922 235.104 181.496 234.850 181.200 C 234.604 180.913 234.350 180.633 234.100 180.350 C 233.850 180.067 233.625 179.758 233.350 179.500 C 233.090 179.256 232.820 179.006 232.500 178.850 C 232.191 178.700 231.819 178.726 231.500 178.600 C 231.181 178.474 230.854 178.331 230.600 178.100 C 230.292 177.820 230.079 177.448 229.850 177.100 C 229.662 176.814 229.227 176.508 229.350 176.200 C 229.477 175.883 229.997 175.850 230.350 175.850 C 230.912 175.850 231.447 176.102 232 176.200 C 232.663 176.318 233.332 176.411 234 176.500 C 234.332 176.544 234.667 176.572 235 176.600 C 235.449 176.638 235.906 176.624 236.350 176.700 C 236.693 176.758 237.008 176.939 237.350 177 C 237.761 177.073 238.187 177.038 238.600 177.100 C 238.972 177.155 239.375 177.162 239.700 177.350 C 240.036 177.545 240.175 177.986 240.500 178.200 C 240.826 178.414 241.226 178.490 241.600 178.600 C 241.960 178.706 242.329 178.791 242.700 178.850 C 243.163 178.924 243.636 178.935 244.100 179 C 244.469 179.052 244.838 179.114 245.200 179.200 C 245.538 179.281 245.853 179.521 246.200 179.500 C 246.454 179.485 246.850 179.100 246.850 179.100 " transform="matrix(1, 0, 0, 1, -193, -129)"/>
  <path id="ID0.782078621443361" fill="none" stroke="#FFFFFF" stroke-width="1" d="M 246.350 174 C 247.688 174 248.901 174.504 249.779 175.319 C 250.657 176.133 251.200 177.258 251.200 178.500 C 251.200 179.742 250.657 180.867 249.779 181.681 C 248.901 182.496 247.688 183 246.350 183 C 245.012 183 243.799 182.496 242.921 181.681 C 242.043 180.867 241.500 179.742 241.500 178.500 C 241.500 177.258 242.043 176.133 242.921 175.319 C 243.799 174.504 245.012 174 246.350 174 Z " transform="matrix(1, 0, 0, 1, -193, -129)"/>
  <path id="ID0.4170769299380481" fill="none" stroke="#000000" stroke-width="1" d="M 245.300 174.850 C 248.142 174.850 250.717 175.102 252.581 175.509 C 254.446 175.917 255.600 176.479 255.600 177.100 C 255.600 177.721 254.446 178.283 252.581 178.691 C 250.717 179.098 248.142 179.350 245.300 179.350 C 242.458 179.350 239.883 179.098 238.019 178.691 C 236.154 178.283 235 177.721 235 177.100 C 235 176.479 236.154 175.917 238.019 175.509 C 239.883 175.102 242.458 174.850 245.300 174.850 Z " transform="matrix(1, 0, 0, 1, -193, -129)"/>
</svg>