<svg xmlns="http://www.w3.org/2000/svg" xmlns:xlink="http://www.w3.org/1999/xlink" version="1.1" width="92.07138612813638" height="72.54538515157388" viewBox="-0.7726925757869437 -0.47269256386601477 92.07138612813638 72.54538515157388">
  <!-- Exported by Scratch - http://scratch.mit.edu/ -->
  <path id="ID0.5443468582816422" fill="#000000" stroke="#000000" stroke-width="1.2630203299447569" d="M 49.1936 22.071 C 53.8733 21.89 58.6152 23.7226 61.5126 26.1191 C 64.8157 28.846 66.4122 32.565 66.7056 35.882 C 67.0103 39.2619 67.049 43.6195 62.6877 45.6688 C 57.9193 48.3933 50.2474 47.8804 43.7543 47.8833 C 37.4917 47.8871 30.123 48.4895 25.1241 46.0259 C 21.0676 43.7543 20.2753 39.3586 20.803 35.882 C 21.3352 32.4059 24.1356 28.4169 28.6493 26.1191 C 34.3175 23.2278 41.9925 21.8905 49.1936 22.071 Z "/>
  <path id="ID0.37750169076025486" fill="#FFFFFF" stroke="#000000" stroke-width="0.8471974517271978" d="M 65.7166 27.446 C 67.0559 27.446 68.2692 27.9841 69.1478 28.8541 C 70.0264 29.7235 70.5704 30.9247 70.5704 32.2499 C 70.5704 33.575 70.0264 34.7763 69.1478 35.6457 C 68.2692 36.5157 67.0559 37.0538 65.7166 37.0538 C 64.3774 37.0538 63.1641 36.5157 62.2854 35.6457 C 61.4068 34.7763 60.8628 33.575 60.8628 32.2499 C 60.8628 30.9247 61.4068 29.7235 62.2854 28.8541 C 63.1641 27.9841 64.3774 27.446 65.7166 27.446 Z "/>
  <path id="ID0.37750169076025486" fill="#FFFFFF" stroke="#000000" stroke-width="1.1104878126595163" d="M 55.3339 25.9629 C 57.3221 25.961 59.124 26.6332 60.4294 27.7214 C 61.7349 28.8089 62.5439 30.3125 62.5456 31.972 C 62.5472 33.6316 61.741 35.1367 60.4377 36.2268 C 59.1343 37.3175 57.3337 37.9932 55.3455 37.9951 C 53.3573 37.9971 51.5554 37.3249 50.2499 36.2367 C 48.9445 35.1491 48.1354 33.6455 48.1338 31.986 C 48.1322 30.3265 48.9383 28.8213 50.2417 27.7312 C 51.545 26.6405 53.3456 25.9648 55.3339 25.9629 Z "/>
  <path id="ID0.234124637208879" fill="#000000" stroke="black" stroke-width="1.178983154000629" stroke-linecap="round" d="M 65.7693 28.0784 C 66.1323 28.0784 66.4609 28.5273 66.6989 29.2533 C 66.9372 29.9792 67.0845 30.9814 67.0845 32.087 C 67.0845 33.1927 66.9372 34.1949 66.6989 34.9208 C 66.4609 35.6467 66.1323 36.0957 65.7693 36.0957 C 65.4062 36.0957 65.0776 35.6467 64.8397 34.9208 C 64.6013 34.1949 64.454 33.1927 64.454 32.087 C 64.454 30.9814 64.6013 29.9792 64.8397 29.2533 C 65.0776 28.5273 65.4062 28.0784 65.7693 28.0784 Z "/>
  <path id="ID0.234124637208879" fill="#000000" stroke="black" stroke-width="1.5453851515738875" stroke-linecap="round" d="M 55.0253 26.5743 C 55.5642 26.5737 56.0526 27.1355 56.4068 28.0443 C 56.7615 28.9531 56.9814 30.2079 56.9828 31.5926 C 56.9841 32.9772 56.7666 34.2325 56.4136 35.142 C 56.0612 36.0514 55.5739 36.6141 55.035 36.6147 C 54.4961 36.6152 54.0077 36.0534 53.6535 35.1446 C 53.2988 34.2359 53.0789 32.981 53.0775 31.5964 C 53.0762 30.2117 53.2937 28.9564 53.6467 28.047 C 53.999 27.1375 54.4864 26.5748 55.0253 26.5743 Z "/>
  <path id="ID0.033297700341790915_9_" fill="none" d="M 0 0.3 L 90.526 0.3 L 90.526 71.3 L 0 71.3 L 0 0.3 Z " stroke-width="0.7653684782999252"/>
</svg>