<svg version="1.1" width="326" height="256" viewBox="-1 -1 326 256" xmlns="http://www.w3.org/2000/svg" xmlns:xlink="http://www.w3.org/1999/xlink">
  <!-- Exported by Scratch - http://scratch.mit.edu/ -->
  <g id="ID0.6581880655139685" transform="matrix(1, 0, 0, 1, -89, -46.65)">
    <path id="ID0.5485594216734171" fill="none" stroke="#FFFF00" stroke-width="9" stroke-linecap="round" d="M 388 254 L 388 55 "/>
    <path id="ID0.9170327642932534" fill="none" stroke="#FFFF00" stroke-width="15" stroke-linecap="round" d="M 384 55 L 196 67 L 194 217 "/>
    <path id="ID0.7157802134752274" fill="#FFFF00" stroke="none" d="M 198.500 205 C 216.295 205 232.420 209.594 244.096 217.016 C 255.773 224.438 263 234.688 263 246 C 263 257.312 255.773 267.562 244.096 274.984 C 232.420 282.406 216.295 287 198.500 287 C 180.705 287 164.580 282.406 152.904 274.984 C 141.227 267.562 134 257.312 134 246 C 134 234.688 141.227 224.438 152.904 217.016 C 164.580 209.594 180.705 205 198.500 205 Z " transform="matrix(1, 0, 0, 1, -45, -2)"/>
    <path id="ID0.15321013936772943" fill="#FFFF00" stroke="none" d="M 384.500 229 C 402.847 229 419.472 233.706 431.510 241.309 C 443.548 248.913 451 259.413 451 271 C 451 282.587 443.548 293.087 431.510 300.691 C 419.472 308.294 402.847 313 384.500 313 C 366.153 313 349.528 308.294 337.490 300.691 C 325.452 293.087 318 282.587 318 271 C 318 259.413 325.452 248.913 337.490 241.309 C 349.528 233.706 366.153 229 384.500 229 Z " transform="matrix(1, 0, 0, 1, -38, -11)"/>
  </g>
</svg>