<svg version="1.1" xmlns="http://www.w3.org/2000/svg" xmlns:xlink="http://www.w3.org/1999/xlink" width="474.4616" height="465.74474" viewBox="0,0,474.4616,465.74474"><defs><linearGradient x1="245.15045" y1="-27.7806" x2="245.15045" y2="434.4233" gradientUnits="userSpaceOnUse" id="color-1"><stop offset="0" stop-color="#00ffff"/><stop offset="1" stop-color="#66c0ff"/></linearGradient><linearGradient x1="222.53498" y1="211.76406" x2="222.53498" y2="391.75779" gradientUnits="userSpaceOnUse" id="color-2"><stop offset="0" stop-color="#ffffff"/><stop offset="1" stop-color="#ffffff" stop-opacity="0"/></linearGradient><linearGradient x1="226.92888" y1="209.46371" x2="226.92888" y2="376.62104" gradientUnits="userSpaceOnUse" id="color-3"><stop offset="0" stop-color="#ffffff"/><stop offset="1" stop-color="#ffffff" stop-opacity="0"/></linearGradient><linearGradient x1="189.73943" y1="227.09959" x2="189.73943" y2="395.19849" gradientUnits="userSpaceOnUse" id="color-4"><stop offset="0" stop-color="#ffffff"/><stop offset="1" stop-color="#ffffff" stop-opacity="0"/></linearGradient><linearGradient x1="214.34956" y1="216.36472" x2="214.34956" y2="387.90775" gradientUnits="userSpaceOnUse" id="color-5"><stop offset="0" stop-color="#ffffff"/><stop offset="1" stop-color="#ffffff" stop-opacity="0"/></linearGradient><linearGradient x1="250.78516" y1="228.63315" x2="250.78516" y2="383.2904" gradientUnits="userSpaceOnUse" id="color-6"><stop offset="0" stop-color="#ffffff"/><stop offset="1" stop-color="#ffffff" stop-opacity="0"/></linearGradient><linearGradient x1="316.25836" y1="245.50221" x2="316.25836" y2="349.01708" gradientUnits="userSpaceOnUse" id="color-7"><stop offset="0" stop-color="#ffffff"/><stop offset="1" stop-color="#ffffff" stop-opacity="0"/></linearGradient><linearGradient x1="322.39257" y1="234.00058" x2="322.39257" y2="332.91477" gradientUnits="userSpaceOnUse" id="color-8"><stop offset="0" stop-color="#ffffff"/><stop offset="1" stop-color="#ffffff" stop-opacity="0"/></linearGradient><linearGradient x1="223.89227" y1="249.31012" x2="420.53094" y2="249.31012" gradientUnits="userSpaceOnUse" id="color-9"><stop offset="0" stop-color="#ffffff"/><stop offset="1" stop-color="#ffffff" stop-opacity="0"/></linearGradient><linearGradient x1="221.30295" y1="234.35231" x2="415.72603" y2="234.35231" gradientUnits="userSpaceOnUse" id="color-10"><stop offset="0" stop-color="#ffffff"/><stop offset="1" stop-color="#ffffff" stop-opacity="0"/></linearGradient><linearGradient x1="237.42598" y1="256.60418" x2="393.60485" y2="256.60418" gradientUnits="userSpaceOnUse" id="color-11"><stop offset="0" stop-color="#ffffff"/><stop offset="1" stop-color="#ffffff" stop-opacity="0"/></linearGradient><linearGradient x1="228.02229" y1="230.5922" x2="399.43675" y2="230.5922" gradientUnits="userSpaceOnUse" id="color-12"><stop offset="0" stop-color="#ffffff"/><stop offset="1" stop-color="#ffffff" stop-opacity="0"/></linearGradient><linearGradient x1="240.4921" y1="195.91122" x2="409.14584" y2="195.91122" gradientUnits="userSpaceOnUse" id="color-13"><stop offset="0" stop-color="#ffffff"/><stop offset="1" stop-color="#ffffff" stop-opacity="0"/></linearGradient><linearGradient x1="262.85936" y1="129.54755" x2="396.1568" y2="129.54755" gradientUnits="userSpaceOnUse" id="color-14"><stop offset="0" stop-color="#ffffff"/><stop offset="1" stop-color="#ffffff" stop-opacity="0"/></linearGradient><linearGradient x1="251.48569" y1="120.42896" x2="383.44943" y2="120.42896" gradientUnits="userSpaceOnUse" id="color-15"><stop offset="0" stop-color="#ffffff"/><stop offset="1" stop-color="#ffffff" stop-opacity="0"/></linearGradient><linearGradient x1="228.89227" y1="255.44642" x2="418.21121" y2="255.44642" gradientUnits="userSpaceOnUse" id="color-16"><stop offset="0" stop-color="#ffffff"/><stop offset="1" stop-color="#ffffff" stop-opacity="0"/></linearGradient><linearGradient x1="226.30295" y1="239.35231" x2="420.72603" y2="239.35231" gradientUnits="userSpaceOnUse" id="color-17"><stop offset="0" stop-color="#ffffff"/><stop offset="1" stop-color="#ffffff" stop-opacity="0"/></linearGradient><linearGradient x1="242.42598" y1="261.60418" x2="398.60485" y2="261.60418" gradientUnits="userSpaceOnUse" id="color-18"><stop offset="0" stop-color="#ffffff"/><stop offset="1" stop-color="#ffffff" stop-opacity="0"/></linearGradient><linearGradient x1="233.02229" y1="235.5922" x2="404.43675" y2="235.5922" gradientUnits="userSpaceOnUse" id="color-19"><stop offset="0" stop-color="#ffffff"/><stop offset="1" stop-color="#ffffff" stop-opacity="0"/></linearGradient><linearGradient x1="245.4921" y1="200.91122" x2="414.14584" y2="200.91122" gradientUnits="userSpaceOnUse" id="color-20"><stop offset="0" stop-color="#ffffff"/><stop offset="1" stop-color="#ffffff" stop-opacity="0"/></linearGradient><linearGradient x1="267.85936" y1="134.54755" x2="401.1568" y2="134.54755" gradientUnits="userSpaceOnUse" id="color-21"><stop offset="0" stop-color="#ffffff"/><stop offset="1" stop-color="#ffffff" stop-opacity="0"/></linearGradient><linearGradient x1="256.48569" y1="125.42896" x2="388.44944" y2="125.42896" gradientUnits="userSpaceOnUse" id="color-22"><stop offset="0" stop-color="#ffffff"/><stop offset="1" stop-color="#ffffff" stop-opacity="0"/></linearGradient><linearGradient x1="258.77151" y1="27.39403" x2="258.77151" y2="194.37459" gradientUnits="userSpaceOnUse" id="color-23"><stop offset="0" stop-color="#ffffff" stop-opacity="0"/><stop offset="1" stop-color="#ffffff"/></linearGradient><linearGradient x1="254.82612" y1="33.43303" x2="254.82612" y2="196.8483" gradientUnits="userSpaceOnUse" id="color-24"><stop offset="0" stop-color="#ffffff" stop-opacity="0"/><stop offset="1" stop-color="#ffffff"/></linearGradient><linearGradient x1="275.71432" y1="25.90767" x2="275.71432" y2="179.92443" gradientUnits="userSpaceOnUse" id="color-25"><stop offset="0" stop-color="#ffffff" stop-opacity="0"/><stop offset="1" stop-color="#ffffff"/></linearGradient><linearGradient x1="251.13736" y1="26.8152" x2="251.13736" y2="190.00127" gradientUnits="userSpaceOnUse" id="color-26"><stop offset="0" stop-color="#ffffff" stop-opacity="0"/><stop offset="1" stop-color="#ffffff"/></linearGradient><linearGradient x1="217.2787" y1="25.83278" x2="217.2787" y2="177.54168" gradientUnits="userSpaceOnUse" id="color-27"><stop offset="0" stop-color="#ffffff" stop-opacity="0"/><stop offset="1" stop-color="#ffffff"/></linearGradient><linearGradient x1="155.46882" y1="47.46927" x2="155.46882" y2="157.55109" gradientUnits="userSpaceOnUse" id="color-28"><stop offset="0" stop-color="#ffffff" stop-opacity="0"/><stop offset="1" stop-color="#ffffff"/></linearGradient><linearGradient x1="150.93801" y1="65.95633" x2="150.93801" y2="169.05852" gradientUnits="userSpaceOnUse" id="color-29"><stop offset="0" stop-color="#ffffff" stop-opacity="0"/><stop offset="1" stop-color="#ffffff"/></linearGradient><linearGradient x1="58.79316" y1="175.42526" x2="231.66415" y2="175.42526" gradientUnits="userSpaceOnUse" id="color-30"><stop offset="0" stop-color="#ffffff" stop-opacity="0"/><stop offset="1" stop-color="#ffffff"/></linearGradient><linearGradient x1="56.45943" y1="182.62683" x2="234.1265" y2="182.62683" gradientUnits="userSpaceOnUse" id="color-31"><stop offset="0" stop-color="#ffffff" stop-opacity="0"/><stop offset="1" stop-color="#ffffff"/></linearGradient><linearGradient x1="72.09667" y1="152.61433" x2="217.14156" y2="152.61433" gradientUnits="userSpaceOnUse" id="color-32"><stop offset="0" stop-color="#ffffff" stop-opacity="0"/><stop offset="1" stop-color="#ffffff"/></linearGradient><linearGradient x1="62.67188" y1="175.18057" x2="227.27188" y2="175.18057" gradientUnits="userSpaceOnUse" id="color-33"><stop offset="0" stop-color="#ffffff" stop-opacity="0"/><stop offset="1" stop-color="#ffffff"/></linearGradient><linearGradient x1="57.83001" y1="209.37098" x2="214.81967" y2="209.37098" gradientUnits="userSpaceOnUse" id="color-34"><stop offset="0" stop-color="#ffffff" stop-opacity="0"/><stop offset="1" stop-color="#ffffff"/></linearGradient><linearGradient x1="75.72213" y1="276.59206" x2="195.04682" y2="276.59206" gradientUnits="userSpaceOnUse" id="color-35"><stop offset="0" stop-color="#ffffff" stop-opacity="0"/><stop offset="1" stop-color="#ffffff"/></linearGradient><linearGradient x1="90.20768" y1="284.28235" x2="206.55992" y2="284.28235" gradientUnits="userSpaceOnUse" id="color-36"><stop offset="0" stop-color="#ffffff" stop-opacity="0"/><stop offset="1" stop-color="#ffffff"/></linearGradient><linearGradient x1="240.95591" y1="-31.32144" x2="240.95591" y2="433.56656" gradientUnits="userSpaceOnUse" id="color-37"><stop offset="0" stop-color="#ffffff"/><stop offset="1" stop-color="#ffffff" stop-opacity="0"/></linearGradient><linearGradient x1="397.36774" y1="27.29672" x2="244.19185" y2="203.26396" gradientUnits="userSpaceOnUse" id="color-38"><stop offset="0" stop-color="#ffffff"/><stop offset="1" stop-color="#ffffff" stop-opacity="0"/></linearGradient></defs><g transform="translate(-4.63805,31.32144)"><g data-paper-data="{&quot;isPaintingLayer&quot;:true}" fill-rule="nonzero" stroke-linejoin="miter" stroke-miterlimit="10" stroke-dasharray="" stroke-dashoffset="0" style="mix-blend-mode: normal"><path d="M479.09965,203.32135c0,127.63408 -104.74263,231.10195 -233.9492,231.10195c-129.20658,0 -233.9492,-103.46787 -233.9492,-231.10195c0,-127.63408 104.74262,-231.10195 233.9492,-231.10195c129.20658,0 233.9492,103.46786 233.9492,231.10195z" fill="url(#color-1)" stroke="none" stroke-width="0" stroke-linecap="butt"/><g fill="none" stroke-width="12.5" stroke-linecap="round"><path d="M124.7051,391.75779l93.40584,-179.99373l102.25392,174.12382" stroke="url(#color-2)"/><path d="M88.52569,376.62104l128.05171,-167.15732l148.75468,164.85698" stroke="url(#color-3)"/><path d="M167.50214,395.19849l44.47459,-168.0989" stroke="url(#color-4)"/><path d="M212.12173,387.90775l4.45566,-171.54303" stroke="url(#color-5)"/><path d="M253.21218,383.13821l-34.33446,-154.50506l63.81489,154.65725" stroke="url(#color-6)"/><path d="M244.94813,245.50223l142.62047,103.51485" stroke="url(#color-7)"/><path d="M400.60379,332.91477l-156.42244,-98.91419" stroke="url(#color-8)"/></g><g fill="none" stroke-width="12.5" stroke-linecap="round"><path d="M397.04937,354.04733l-173.1571,-148.42272l196.63867,-61.05171" stroke="url(#color-9)"/><path d="M354.87363,369.37457l-133.57068,-162.78108l194.42308,-107.26345" stroke="url(#color-10)"/><path d="M237.42598,215.09276l156.17887,83.02285" stroke="url(#color-11)"/><path d="M399.43675,253.01799l-171.41446,-44.85157" stroke="url(#color-12)"/><path d="M403.07638,210.55718l-162.58428,-1.83422l168.65374,-27.4577" stroke="url(#color-13)"/><path d="M262.85936,187.18375l133.29744,-115.27235" stroke="url(#color-14)"/><path d="M251.48569,185.30878l131.96374,-129.75965" stroke="url(#color-15)"/></g><g fill="none" stroke-width="12.5" stroke-linecap="round"><path d="M402.04937,359.04733l-173.1571,-148.42272l189.31894,-58.7791" stroke="url(#color-16)"/><path d="M359.87363,374.37457l-133.57068,-162.78108l194.42308,-107.26345" stroke="url(#color-17)"/><path d="M398.60485,303.1156l-156.17887,-83.02285" stroke="url(#color-18)"/><path d="M404.43675,258.01798l-171.41446,-44.85156" stroke="url(#color-19)"/><path d="M408.07638,215.55718l-162.58428,-1.83422l168.65374,-27.4577" stroke="url(#color-20)"/><path d="M401.1568,76.9114l-133.29744,115.27235" stroke="url(#color-21)"/><path d="M256.48569,190.30877l131.96375,-129.75965" stroke="url(#color-22)"/></g><g fill="none" stroke-width="12.5" stroke-linecap="round"><path d="M351.7914,27.39403l-115.17197,166.98055l-70.86781,-164.91129" stroke="url(#color-23)"/><path d="M385.76451,46.97746l-147.91057,149.87085l-113.96621,-163.41525" stroke="url(#color-24)"/><path d="M306.80919,25.90768l-62.18974,154.01675" stroke="url(#color-25)"/><path d="M263.5596,26.81521l-24.84447,163.18606" stroke="url(#color-26)"/><path d="M223.92066,27.86804l14.04312,149.67363l-41.37015,-151.70889" stroke="url(#color-27)"/><path d="M214.20229,157.55109l-117.46694,-110.08182" stroke="url(#color-28)"/><path d="M213.52775,169.05851l-125.17947,-103.10218" stroke="url(#color-29)"/></g><g fill="none" stroke-width="12.5" stroke-linecap="round"><path d="M78.9143,85.68679l152.74985,103.31166l-172.87099,76.16526" stroke="url(#color-30)"/><path d="M93.20563,51.18055l140.92087,136.56088l-177.66707,126.33165" stroke="url(#color-31)"/><path d="M217.14156,181.1307l-145.04489,-57.03271" stroke="url(#color-32)"/><path d="M227.27188,186.94277l-164.6,-23.52444" stroke="url(#color-33)"/><path d="M57.83001,203.98438l156.98966,-16.17653l-152.64496,43.12625" stroke="url(#color-34)"/><path d="M75.72213,341.43328l119.32469,-129.68245" stroke="url(#color-35)"/><path d="M90.20768,356.24439l116.35224,-143.92412" stroke="url(#color-36)"/></g><path d="M405.39505,170.74935c0,65.21578 -47.54672,118.08361 -106.19857,118.08361c-58.65185,0 -106.19857,-52.86783 -106.19857,-118.08361c0,-65.21578 47.54672,-118.08361 106.19857,-118.08361c58.65185,0 106.19857,52.86783 106.19857,118.08361z" fill="#c37700" stroke="none" stroke-width="0" stroke-linecap="butt"/><path d="M320.33482,99.43913c0,-7.59392 6.15608,-13.75 13.75,-13.75c7.59392,0 13.75,6.15608 13.75,13.75c0,7.59392 -6.15608,13.75 -13.75,13.75c-7.59392,0 -13.75,-6.15608 -13.75,-13.75z" fill="#000000" stroke="none" stroke-width="0.5" stroke-linecap="butt"/><path d="M326.46904,146.97928c0,-7.59392 6.15608,-13.75 13.75,-13.75c7.59392,0 13.75,6.15608 13.75,13.75c0,7.59392 -6.15608,13.75 -13.75,13.75c-7.59392,0 -13.75,-6.15608 -13.75,-13.75z" fill="#000000" stroke="none" stroke-width="0.5" stroke-linecap="butt"/><path d="M278.16211,121.67567c0,-7.59392 6.15608,-13.75 13.75,-13.75c7.59392,0 13.75,6.15608 13.75,13.75c0,7.59392 -6.15608,13.75 -13.75,13.75c-7.59392,0 -13.75,-6.15608 -13.75,-13.75z" fill="#000000" stroke="none" stroke-width="0.5" stroke-linecap="butt"/><path d="M79.5942,202.15727c2.04862,-1.09152 3.61155,-1.37868 5.11936,-1.34728c0.55781,-0.06888 1.12596,-0.10435 1.7024,-0.10435c1.59048,0 3.11789,0.27004 4.53888,0.76678c6.12162,0.20485 12.25249,0.17095 18.37515,0c6.97245,-0.19467 13.63479,-1.63977 20.35446,-2.88812c-1.22355,-10.95632 -3.19396,-21.88871 -5.32176,-32.52769c-0.2113,-0.95799 -0.3227,-1.95349 -0.3227,-2.97501c0,-1.83772 0.36052,-3.59124 1.0147,-5.19369c0.50982,-1.63003 1.29491,-3.16637 2.6652,-4.62361c5.69908,-6.06075 15.54935,-4.89534 20.51942,0.71628c3.96744,4.47957 3.68504,11.3973 4.66575,16.86514c1.73738,9.68657 3.16258,14.1828 3.91828,22.92207c0.0622,0.71935 0.12518,1.4407 0.18867,2.16389c7.23523,-0.1465 14.5073,0.12728 21.41715,0.94007c10.94407,1.28733 17.62436,11.15932 11.60156,21.69922c-4.89657,8.569 -18.13581,5.84718 -25.91779,5.09518c-1.91786,-0.18533 -3.5059,-0.16276 -4.97452,-0.0513c0.63148,12.82341 0.47972,25.66113 -1.74204,37.78306c-1.20419,6.57007 0.91103,15.7525 -6.28972,19.8672c-2.38316,1.36181 -5.20441,2.14844 -7.94922,2.14844c-19.16001,0 -12.36874,-19.27078 -12.21645,-30.22352c0.12267,-8.82234 0.16864,-17.64677 0.10693,-26.47005c-1.94546,0.33581 -3.93906,0.69628 -6.02536,1.07511c-11.05446,2.00724 -25.33312,1.13488 -35.96706,1.17732c-1.87393,0.00748 -4.16401,-0.44924 -6.43509,-1.29733c-1.71851,-0.49251 -3.29923,-1.31106 -4.67094,-2.38443c-3.54952,-2.40255 -6.08515,-5.85037 -5.25547,-9.94995c-0.01859,-0.29263 -0.02803,-0.58775 -0.02803,-0.88507c0,-4.05795 1.75787,-7.70533 4.55366,-10.22218c0.64094,-0.84719 1.41027,-1.5624 2.37459,-2.07619z" fill="#000000" stroke="none" stroke-width="0.5" stroke-linecap="butt"/><path d="M387.46604,381.64213c-21.2659,21.43352 -55.21004,39.62771 -92.28271,47.3057c-31.90895,6.60855 -66.91314,4.13055 -89.09745,4.30237c-6.58466,0.051 -13.55133,-1.93994 -20.73685,-3.74862c-56.69763,-14.27145 -127.02141,-78.45595 -130.82122,-84.41338c-6.44109,-10.0985 -9.60988,-17.07905 -17.44578,-28.56462c-4.94937,-7.25459 -9.50882,-18.55644 -14.69476,-26.54964c-2.02143,-3.11566 -5.53029,-7.48831 -6.11301,-11.27452c-2.01853,-13.11531 -20.81234,-92.00462 -5.97844,-102.54922c2.43233,-9.10755 0.99456,-19.21314 4.64653,-32.94098c6.79554,-25.54456 21.36436,-58.70618 41.89083,-86.62066c40.43292,-54.98574 121.02909,-85.14652 149.75084,-85.14652c35.62585,0 93.24962,-13.22268 142.71252,18.179c27.46241,17.4346 57.55287,45.81065 78.98263,77.0822c18.76085,27.37693 29.71604,57.44019 42.00083,78.10722c13.34744,22.45478 3.09041,74.78228 5.21232,90.37876c2.36721,17.39953 -13.18588,57.79118 -36.43535,91.21383c-18.47658,26.56131 -44.39297,47.98439 -51.59091,55.23907z" fill="url(#color-37)" stroke="none" stroke-width="0" stroke-linecap="butt"/><path d="M167.63172,-9.03819c10.85026,-12.46468 18.37534,-12.76429 35.62257,-16.91169c49.98894,-12.02072 129.0069,2.12674 194.11344,53.24661c32.44145,25.47214 50.33394,55.11153 61.83473,79.8296c19.54346,42.00377 14.66199,77.25617 -11.96633,107.84656c-17.09673,19.64058 -30.5687,31.10443 -62.91572,30.35379c-13.01193,-0.30195 -38.36167,-17.09305 -48.41654,-22.67596c-26.79062,-14.87535 -38.5685,-25.67761 -76.505,-55.46432c-33.40276,-26.22693 -69.46121,-50.07686 -86.4999,-79.93174c-14.07366,-24.65957 -15.15224,-39.24462 -15.87326,-52.62371c-0.3928,-7.28874 5.72475,-33.07274 11.30184,-39.47967z" data-paper-data="{&quot;index&quot;:null}" fill="url(#color-38)" stroke="none" stroke-width="0" stroke-linecap="butt"/></g></g></svg>