<svg version="1.1" xmlns="http://www.w3.org/2000/svg" xmlns:xlink="http://www.w3.org/1999/xlink" width="475.41695" height="450.87088" viewBox="0,0,475.41695,450.87088"><defs><linearGradient x1="240.00003" y1="-42.97296" x2="240.00003" y2="402.97298" gradientUnits="userSpaceOnUse" id="color-1"><stop offset="0" stop-color="#00c9f9"/><stop offset="1" stop-color="#00ffc2"/></linearGradient><linearGradient x1="267.67112" y1="339.07701" x2="99.82709" y2="22.18697" gradientUnits="userSpaceOnUse" id="color-2"><stop offset="0" stop-color="#ffffff" stop-opacity="0"/><stop offset="1" stop-color="#ffffff"/></linearGradient><linearGradient x1="100.51808" y1="-2.28974" x2="230.90119" y2="191.17229" gradientUnits="userSpaceOnUse" id="color-3"><stop offset="0" stop-color="#ffffff"/><stop offset="1" stop-color="#ffffff" stop-opacity="0"/></linearGradient></defs><g transform="translate(-4.26428,47.8979)"><g data-paper-data="{&quot;isPaintingLayer&quot;:true}" fill-rule="nonzero" stroke-linecap="butt" stroke-linejoin="miter" stroke-miterlimit="10" stroke-dasharray="" stroke-dashoffset="0" style="mix-blend-mode: normal"><path d="M475.73577,180.00001c0,123.14457 -105.54248,222.97297 -235.73574,222.97297c-130.19325,0 -235.73574,-99.8284 -235.73574,-222.97297c0,-123.14457 105.54248,-222.97297 235.73574,-222.97297c130.19325,0 235.73574,99.8284 235.73574,222.97297z" fill="url(#color-1)" stroke="none" stroke-width="0"/><path d="M473.97663,146.22667c2.05704,2.11852 0,4.23703 0,4.23703l-1.07459,1.10671c-1.27539,1.3135 -2.97684,2.27597 -3.88078,3.88342c-1.15833,2.0598 -2.04172,4.35885 -3.64136,6.07694c-1.40207,1.03031 -2.48436,3.13477 -4.20622,3.09093c-4.80813,-0.12241 -5.57029,-9.93524 -10.24942,-8.89761c-0.88279,0.19576 -1.37445,1.20982 -2.1066,1.75419c-2.25852,1.67924 -3.12372,1.73371 -4.7369,3.83343c-1.81353,2.36048 -2.49113,5.52221 -4.3672,7.83028c-0.69707,0.85757 -2.24039,0.71173 -2.83979,1.64433c-0.41028,0.63836 0.41212,1.51253 0.32242,2.27248c-0.19701,1.66909 -0.72637,3.27995 -1.16881,4.89841c-0.83471,3.05343 -2.77765,6.46102 -3.14532,9.60261c-0.3385,2.89234 0.41575,5.8558 0.01577,8.7398c-0.65714,4.73819 -2.16495,7.46533 -2.16495,12.28761c-1.05312,3.36237 -1.88385,8.00594 -3.62069,11.05556c-0.51259,0.90002 -1.61454,1.32711 -2.14919,2.21341c-1.08918,1.80556 -1.51987,4.00613 -1.74157,6.11947c-0.21814,2.07939 0.37351,4.22896 -0.05097,6.27425c-0.68365,3.29414 -2.7437,6.22609 -3.16011,9.56724c-0.28991,2.32617 0.97453,4.61943 0.9687,6.96469c-0.00781,3.14184 -2.00974,12.44207 -4.09522,14.42158c-0.8855,0.84051 -1.82012,-1.80025 -2.99219,-2.08486c-0.4219,-0.10245 0.13984,0.95879 -0.09215,1.3359c-0.49107,0.79829 -1.38406,1.25577 -1.9565,1.99435c-2.18781,2.82277 -4.19612,5.96044 -6.16326,9.1048l0.167,0.0688l-2.12402,5.46874c-0.41254,1.13787 -1.47749,1.94813 -2.72619,1.94813c-1.30862,0 -2.41544,-0.8899 -2.78103,-2.11415l-0.88804,-2.74374c-0.60951,-0.59546 -2.86735,-2.80633 -3.16462,-2.91558c-0.37172,-0.13661 -0.81803,0.20687 -1.07184,0.51815c-1.45406,1.78325 -2.4663,3.99943 -4.21984,5.46952c-2.26941,1.90258 -4.33017,4.08962 -6.76249,5.76516c-0.94152,0.64858 -2.24154,0.52571 -3.22377,1.10671c-1.13213,0.66966 -1.71512,2.41073 -3.01021,2.58073c-6.53564,0.85784 -12.21082,-7.98642 -13.21123,-13.50305c-0.38246,-2.10905 -0.33568,-4.32281 -1.0147,-6.35117c-1.5358,-7.95887 -4.99855,-15.3932 -7.47849,-23.08803c-0.57428,-1.78189 -1.48905,-3.43667 -2.03499,-5.22798c-0.27568,-0.90456 0.41821,-2.40951 -0.41532,-2.81188c-0.73151,-0.35312 -1.11427,1.20509 -1.67745,1.80164c-0.66461,0.70398 -1.26167,1.48609 -2.00582,2.09986c-3.51782,2.90142 -6.97696,5.72569 -10.60644,8.51545c-1.66429,1.27924 -3.00582,3.07819 -4.89197,3.97315c-1.82262,0.86482 -4.03128,1.86727 -5.91498,1.15466c-2.02031,-0.7643 -1.74906,-4.82193 -3.84039,-5.34578c-4.88591,-1.22388 -10.74684,2.01494 -14.89031,4.15065c-3.39319,2.33742 -6.18459,5.19493 -9.4305,7.58616c-1.30289,0.95982 -2.95989,1.307 -4.29837,2.21341c-1.02807,0.69622 -1.54699,2.22842 -2.7369,2.55087c-1.89236,0.51283 -4.17772,0.79867 -5.86645,-0.21939c-1.62026,-0.97679 -1.61459,-3.53972 -2.82325,-5.01929c-2.10995,-2.58286 -5.96602,-3.01449 -8.37828,-5.29946c-0.63877,-0.60507 0.05968,-2.21247 -0.73469,-2.57245c-0.61243,-0.27753 -0.53569,1.31504 -1.03958,1.76841c-2.73879,2.46418 -5.14447,3.28414 -8.78038,3.80086c-4.44031,0.63104 -9.10295,1.03199 -13.6132,1.47539c-2.25159,0.22136 -4.52941,1.10543 -6.75326,0.68032c-5.52125,-1.05546 -9.97274,-8.5924 -11.47758,-13.51455c-3.19775,-3.29332 -2.94532,-5.68949 -3.62069,-9.94885c-0.4262,-2.68802 -1.78156,-5.16594 -2.16495,-7.86079c-0.15045,-1.05748 0.18071,-2.15108 0.01577,-3.20628c-1.00199,-6.41001 -5.51287,-10.95233 -9.00904,-15.99667c-1.09711,-1.58294 -2.24415,-3.13049 -3.28954,-4.75013c-0.64408,-0.99788 -0.61681,-2.97539 -1.77441,-3.09554c-1.28287,-0.13316 -1.91214,1.78494 -2.92406,2.60786c-2.47113,2.00959 -5.24011,3.75213 -8.22545,4.78286c-4.44781,1.53567 -10.3893,3.96345 -12.21213,8.67649c-1.22533,7.65579 -1.56192,15.34067 -4.24747,22.72188c-1.62039,4.45363 -3.84082,8.64005 -5.34155,13.18844c-1.07732,3.26513 -0.34378,10.30594 -4.24063,11.92882c-2.07947,0.86601 -3.78975,-3.32831 -6.04133,-3.23998c-2.77633,0.10892 -4.84416,3.31183 -6.7524,4.85446c-4.05928,3.28154 -12.02714,7.49725 -16.79648,3.12168c-1.17211,-1.07534 -1.18491,-2.99414 -1.77736,-4.4912c-0.93243,-2.96508 -2.00862,-5.47877 -4.45748,-7.48411c-1.13112,-0.92627 -2.62977,-1.40894 -3.56032,-2.54759c-1.09186,-1.33602 -1.38315,-3.20798 -2.32828,-4.6578c-0.58684,-0.9002 -1.79816,-1.32154 -2.21783,-2.31594c-0.56293,-1.33385 -0.03018,-2.98348 -0.58342,-4.32162c-0.22179,-0.53643 -0.16651,1.20685 -0.51408,1.66707c-1.0118,1.33971 -2.32365,2.40747 -3.47799,3.61881c-1.27618,1.33918 -2.70632,2.54252 -3.81349,4.0327c-2.76402,3.72018 -3.10678,7.03349 -6.82404,10.17145c-0.3622,0.30575 -6.40218,2.34179 -7.22859,2.62519c-5.68437,1.9494 -11.55324,2.7823 -17.30006,4.46109c-2.60994,0.76243 -5.79587,2.56289 -8.63359,0.87168c-1.65939,-0.98896 -2.29127,-3.16639 -3.43691,-4.74959c-0.26403,-1.30434 -0.14144,-2.76142 -0.79212,-3.91302c-0.40581,-0.71821 -3.90842,-1.98121 -4.53559,-2.08863c-4.89634,-0.8386 -11.28538,4.87119 -15.95098,1.89759c-1.72736,-1.10092 -2.76329,-3.16932 -3.56078,-5.09344c-0.61179,-1.47611 0.4572,-6.51262 -1.51409,-7.83253c-0.36342,-0.24333 0.14418,0.96166 -0.09215,1.3359c-1.3809,2.18675 -3.57876,3.69234 -5.37296,5.53354c-3.6149,3.70959 -8.02798,6.31966 -12.26387,9.22799c0,0 -2.42051,1.6619 -4.03419,-0.83096c-1.61368,-2.49286 0.80683,-4.15476 0.80683,-4.15476c5.38027,-3.69404 10.02992,-7.09182 14.60093,-11.79944c1.13755,-1.17155 5.11484,-5.51102 6.35541,-5.30434c4.34187,0.72336 6.47224,5.45342 7.1699,9.15636c0.10631,0.56426 -0.62952,3.78247 0.65033,4.47862c0.45098,0.24529 1.00026,-0.20723 1.49565,-0.33206c0.91528,-0.23063 8.00622,-2.1348 8.59673,-2.21341c4.05064,-0.5393 9.8624,0.93404 12.40471,4.56784c0.9715,1.38859 0.90471,3.29376 1.35706,4.94063c0.28715,0.63021 0.30266,1.49894 0.86146,1.89064c0.39092,0.27403 0.93288,-0.17343 1.3851,-0.31582c2.43808,-0.76762 4.86148,-1.60799 7.3499,-2.17911c4.29898,-0.98668 8.43404,-1.80308 12.61339,-3.23936c1.87516,-0.64442 4.1642,-0.4784 5.66651,-1.80164c1.26959,-1.11827 5.05542,-8.21577 5.61038,-8.95852c0.14485,-0.19387 7.70765,-8.28407 8.21347,-8.63313c1.80287,-1.24411 3.91928,-3.59181 5.93347,-2.75976c2.32956,0.96233 2.3122,4.60184 3.71494,6.74545c0.54407,0.83142 1.54345,1.27467 2.08053,2.11089c0.83222,1.29574 1.0112,2.99656 1.97009,4.19585c0.72371,0.90515 2.00026,1.14413 2.88722,1.87923c3.31618,2.74846 4.95378,6.19118 6.28843,10.22319c0.6806,3.9337 3.83374,1.92386 6.70798,0.46946c5.27789,-2.67069 9.81977,-10.73281 16.46264,-7.35367c0.03377,-2.92763 1.60506,-6.23487 2.50113,-8.69276c1.24113,-3.40439 3.06086,-6.56476 4.30157,-9.96932c2.62955,-7.21559 2.88894,-14.80353 4.11309,-22.30041c2.48328,-5.97622 6.80864,-8.59799 12.38149,-11.446c2.00549,-1.02491 4.43861,-1.01952 6.37553,-2.17585c1.45835,-0.87062 2.57225,-2.27249 4.02526,-3.15255c2.25684,-1.36692 4.45909,-3.91634 7.05406,-3.55794c2.47908,0.3424 7.51199,8.26399 8.91491,10.28543c4.10148,5.90973 8.777,11.0664 10.01765,18.51967c0.18779,1.12821 -0.13707,2.30018 0.01577,3.43396c0.35354,2.62253 1.70331,5.02274 2.13342,7.6331c0.36894,2.23919 -0.58076,3.56922 0.67768,5.54504c0.55569,0.87246 1.43279,1.47561 2.14919,2.21341c1.36253,4.01924 2.69786,6.32289 5.81726,9.21851c0.63855,0.59275 1.19377,1.51357 2.04782,1.61448c4.09755,0.48417 10.06143,-1.81747 14.08925,-2.27898c3.86719,-0.4431 4.17583,0.73525 7.7065,-0.86517c2.41881,-1.09643 5.34681,-5.07218 8.19495,-4.62477c1.75299,0.27538 2.17533,2.93167 3.56368,4.06779c3.13727,2.5673 6.13816,2.47462 8.81519,5.7676c0.85694,1.05411 0.80037,2.64814 1.47512,3.83436c0.49782,0.8752 1.32724,-1.52635 2.14257,-2.09534c1.32613,-0.92545 2.99418,-1.25545 4.29837,-2.21341c3.38082,-2.48333 6.36348,-5.47855 9.91215,-7.90774c6.69964,-3.44712 17.96838,-8.92364 24.18928,-1.44069c0.5178,0.62284 -0.25607,1.70805 0.0637,2.45896c0.155,0.36399 0.25125,-0.78666 0.53258,-1.05875c1.3137,-1.27061 2.7556,-2.39578 4.19452,-3.51329c3.54068,-2.74981 6.94483,-5.50536 10.39564,-8.34565c0.83816,-0.68987 1.34139,-1.81563 2.29254,-2.32696c2.17897,-1.17138 4.56963,-3.36835 6.91929,-2.62519c2.24172,0.70902 2.78035,3.9103 3.88304,6.04177c2.24182,4.33336 2.48769,8.96162 4.33222,13.36129c2.28003,5.43843 4.34878,9.99509 5.49695,15.87144c1.73628,5.5237 0.97616,8.39883 4.759,13.19316c0.71497,0.90615 1.47863,2.85899 2.50689,2.36724c0.66735,-0.31915 0.66713,-1.43968 1.28815,-1.8461c0.95602,-0.62567 2.28024,-0.46125 3.22377,-1.10671c1.16004,-0.79355 1.84222,-2.16635 2.90884,-3.0885c1.61128,-1.39303 3.64807,-2.32185 4.96756,-4.00932c2.45896,-3.14473 2.75326,-6.10865 8.00882,-5.4969c1.96226,0.22841 3.97662,2.08352 5.6265,3.82933c0.00306,-0.01373 0.00622,-0.02747 0.00949,-0.0412c0.33179,-1.39221 1.53343,-2.39291 2.30328,-3.58722c2.06402,-3.20201 3.87637,-6.83485 6.81102,-9.31027c1.33251,-1.12398 2.49862,-2.85893 4.20622,-3.09093c0.86663,-0.11774 0.95964,3.16848 1.30618,2.34197c0.42987,-1.02527 -0.93947,-2.08942 -0.94384,-3.20618c-0.00695,-1.78111 0.9161,-3.47927 0.91081,-5.2604c-0.00778,-2.61191 -1.25273,-5.18264 -0.94432,-7.77517c0.24939,-2.09633 0.5805,-4.20323 1.21789,-6.21063c0.46869,-1.47608 1.75823,-2.62332 2.06954,-4.14285c0.68252,-3.33139 0.14125,-6.8976 1.12402,-10.14842c0.41021,-1.35687 0.68638,-2.79138 1.38182,-4.01883c0.5106,-0.90121 1.61726,-1.32539 2.14919,-2.21341c1.41196,-2.35721 1.93327,-6.21781 2.82687,-8.86516c0,-4.60996 1.51583,-7.60843 2.13342,-12.05993c0.41054,-2.95911 -0.35444,-6.00274 0.01577,-8.9675c0.60645,-4.85651 3.51744,-9.3851 4.2826,-14.27334c0.22564,-1.44151 -0.376,-3.0971 0.32242,-4.36776c0.74014,-1.34654 2.64846,-1.59165 3.60777,-2.78249c2.67263,-3.3177 3.27065,-7.35923 6.78411,-10.29453c4.59398,-3.83803 7.95456,-6.49685 14.02357,-3.61031c1.24183,0.59064 2.08335,1.84455 2.9656,2.92111c0.82191,1.00292 1.57427,2.08957 2.12692,3.27219c0.0052,-0.05703 0.00992,-0.11408 0.01387,-0.17113c1.36235,-1.31388 1.82601,-3.35433 2.8062,-4.99013c0.22584,-0.3769 4.18584,-4.42428 4.71596,-4.97023l1.07459,-1.10671c0,0 2.05704,-2.11852 4.11409,0z" fill="#ffffff" stroke="#ffffff" stroke-width="10"/><path d="M25.80948,264.28631c-46.34885,-87.50676 -13.21004,-195.89835 74.0176,-242.09936c87.22766,-46.20101 195.5128,-12.71607 241.86165,74.7907c21.42794,40.45601 48.8954,93.56769 38.85397,134.74237c-11.67828,47.88656 -74.32569,69.94965 -121.22637,94.79107c-44.64665,23.64755 -107.37029,63.65566 -151.92141,48.99221c-42.48991,-13.98503 -58.95982,-68.49972 -81.58545,-111.21697z" data-paper-data="{&quot;index&quot;:null}" fill="url(#color-2)" stroke="none" stroke-width="0"/><path d="M331.77269,-6.03624c4.74722,7.04391 1.60809,12.73782 2.45107,18.52002c1.09738,7.52718 5.19775,14.86434 3.91195,22.04952c-2.3602,13.18898 -5.22349,27.53084 -22.22172,50.27336c-20.57943,27.53394 -64.00956,39.81535 -100.38297,61.73728c-41.31036,24.89739 -56.08986,35.54435 -84.50587,47.0136c-10.6649,4.30456 -31.41003,23.4328 -44.36039,22.13296c-32.19396,-3.23137 -44.15455,-16.26433 -58.70726,-37.8576c-36.0043,-53.42307 -22.79703,-122.65144 72.56058,-180.12263c95.35761,-57.47119 196.45586,-61.24174 232.46016,-7.81869z" data-paper-data="{&quot;index&quot;:null}" fill="url(#color-3)" stroke="none" stroke-width="0"/></g></g></svg>