<svg version="1.1" xmlns="http://www.w3.org/2000/svg" xmlns:xlink="http://www.w3.org/1999/xlink" width="278.21686" height="264.6626" viewBox="0,0,278.21686,264.6626"><g transform="translate(-100.89157,-47.6687)"><g data-paper-data="{&quot;isPaintingLayer&quot;:true}" fill-rule="nonzero" stroke-linecap="butt" stroke-linejoin="miter" stroke-miterlimit="10" stroke-dasharray="" stroke-dashoffset="0" style="mix-blend-mode: normal"><path d="" fill="#e60000" stroke="none" stroke-width="0.5"/><path d="M373.60843,179.99999c0,70.04699 -59.81852,126.83131 -133.60843,126.83131c-73.7899,0 -133.60843,-56.78432 -133.60843,-126.83131c0,-70.04699 59.81852,-126.83129 133.60843,-126.83129c73.7899,0 133.60843,56.78431 133.60843,126.83129z" fill="none" stroke="#00e660" stroke-width="11"/><path d="M280.86114,226.73684v0z" fill="none" stroke="#e60000" stroke-width="0.5"/><path d="M338.19983,180c0,56.3202 -43.96556,101.97676 -98.19983,101.97676c-54.23427,0 -98.19983,-45.65656 -98.19983,-101.97676c0,-56.3202 43.96556,-101.97675 98.19983,-101.97675c54.23427,0 98.19983,45.65655 98.19983,101.97675z" fill="none" stroke="#00e6e6" stroke-width="11"/><path d="M311.51775,180c0,36.03282 -32.01958,65.24319 -71.51775,65.24319c-39.49816,0 -71.51775,-29.21038 -71.51775,-65.24319c0,-36.03282 32.01958,-65.24319 71.51775,-65.24319c39.49816,0 71.51775,29.21037 71.51775,65.24319z" fill="none" stroke="#e60000" stroke-width="11"/><path d="M298.99491,180c0,30.46789 -26.41292,55.167 -58.99491,55.167c-32.58199,0 -58.99491,-24.69911 -58.99491,-55.167c0,-30.46789 26.41292,-55.167 58.99491,-55.167c32.58199,0 58.99491,24.69911 58.99491,55.167z" fill="#e6e6e6" stroke="#e6e6e6" stroke-width="2"/></g></g></svg>