<svg xmlns="http://www.w3.org/2000/svg" xmlns:xlink="http://www.w3.org/1999/xlink" xmlns:a="http://ns.adobe.com/AdobeSVGViewerExtensions/3.0/" version="1.1" x="0px" y="0px" width="47.77100372314453" height="61.94200134277344" viewBox="0 0 47.77100372314453 61.94200134277344" enable-background="new -7.807 -0.977 64 64" xml:space="preserve">
  <defs/>
  <g>
    <path fill="#594419" d="M33.597,60.942c-1.719,0-3.2-0.64-4.282-1.847c-1.055-1.176-1.589-2.842-1.589-4.951v-4.79H12.1&#13;&#10;&#9;c-2.566,0-4.567-0.635-5.949-1.886C4.724,46.178,4,44.433,4,42.281c0-0.615,0.113-1.24,0.334-1.855&#13;&#10;&#9;c0.199-0.557,0.497-1.141,0.884-1.735c0.339-0.521,0.691-1.023,1.055-1.509l1.273-1.686l18.164-24.3&#13;&#10;&#9;c1.252-1.686,2.271-2.893,3.115-3.686C29.891,6.509,31.185,6,32.671,6c2.539,0,6.798,0.98,6.798,7.552v24.951&#13;&#10;&#9;c1.954,0.01,3.517,0.293,4.775,0.859c1.152,0.521,2.527,1.742,2.527,4.6c0,2.328-1.079,3.568-1.982,4.199&#13;&#10;&#9;c-1.152,0.803-2.728,1.193-4.814,1.193h-0.506v4.79c0,2.157-0.53,3.836-1.577,4.991C36.803,60.335,35.359,60.942,33.597,60.942&#13;&#10;&#9;L33.597,60.942z M27.726,38.503V24.977l-10.01,13.526H27.726z" stroke-width="1"/>
    <linearGradient id="SVGID_1_" gradientUnits="userSpaceOnUse" x1="22.3853" y1="1" x2="22.3853" y2="55.9424">
      <stop offset="0" style="stop-color:#FFFFFF"/>
      <stop offset="1" style="stop-color:#FFD38F"/>
    </linearGradient>
    <path fill="url(#SVGID_1_)" stroke="#594419" stroke-width="2" d="M30.597,55.942c-1.719,0-3.2-0.64-4.282-1.847&#13;&#10;&#9;c-1.055-1.176-1.589-2.842-1.589-4.951v-4.79H9.1c-2.566,0-4.567-0.635-5.949-1.886C1.724,41.178,1,39.433,1,37.281&#13;&#10;&#9;c0-0.615,0.113-1.24,0.334-1.855c0.199-0.557,0.497-1.141,0.884-1.735c0.339-0.521,0.691-1.023,1.055-1.509l1.273-1.686l18.164-24.3&#13;&#10;&#9;c1.252-1.686,2.271-2.893,3.115-3.686C26.891,1.509,28.185,1,29.671,1c2.539,0,6.798,0.98,6.798,7.552v24.951&#13;&#10;&#9;c1.954,0.01,3.517,0.293,4.775,0.859c1.152,0.521,2.527,1.742,2.527,4.6c0,2.328-1.079,3.568-1.982,4.199&#13;&#10;&#9;c-1.152,0.803-2.728,1.193-4.814,1.193h-0.506v4.79c0,2.157-0.53,3.836-1.577,4.991C33.803,55.335,32.359,55.942,30.597,55.942&#13;&#10;&#9;L30.597,55.942z M24.726,33.503V19.977l-10.01,13.526H24.726z"/>
  </g>
</svg>