<svg xmlns="http://www.w3.org/2000/svg" xmlns:xlink="http://www.w3.org/1999/xlink" version="1.1" width="232.4115795616864" height="76.060284090495" viewBox="-0.17364255212539836 -0.5736425580858628 232.4115795616864 76.060284090495">
  <!-- Exported by Scratch - http://scratch.mit.edu/ -->
  <path id="ID0.6534826750867069" fill="none" d="M 0.55 0.15 L 231.5143 0.15 L 231.5143 74.763 L 0.55 74.763 L 0.55 0.15 Z " stroke-width="1.4472851280926546"/>
  <g id="ID0.10699172131717205">
    <path id="ID0.15375018352642655" fill="#C89A66" stroke="#624523" stroke-width="1.1285498142242432" d="M 42.312 36.6531 C 42.9748 45.197 39.2355 48.7873 30.1778 48.7873 C 22.6917 48.7873 17.3266 45.5988 18.0429 36.6531 C 18.5786 29.9729 22.6993 24.1684 30.1778 24.519 C 37.6646 24.8688 41.68 28.4922 42.312 36.6531 Z "/>
    <path id="ID0.9231221177615225" fill="#AA7C48" d="M 37.6646 36.1475 C 37.6646 40.2818 34.8229 43.5764 30.6894 43.5764 C 26.5544 43.5764 22.6925 40.2818 22.6925 36.1475 C 22.6925 32.0125 26.0435 28.6607 30.1785 28.6607 C 35.1065 28.6607 37.6646 32.0133 37.6646 36.1475 Z " stroke-width="0.7523665428161621"/>
    <path id="ID0.06518897321075201" fill="#624523" d="M 31.3101 35.4975 C 30.6879 35.0438 30.1191 34.2832 29.8964 33.8588 C 28.7445 32.3263 28.1178 31.5453 24.6517 28.824 C 25.632 31.0149 29.2155 32.9259 29.3336 35.0581 C 30.2756 37.5913 24.7382 40.0583 23.1996 40.9747 C 23.1996 40.9747 28.0177 40.0207 30.1823 36.371 C 30.7157 35.4719 36.594 38.5506 36.594 38.5506 C 35.2375 37.2234 34.0916 36.8811 32.8284 36.2822 " stroke-width="0.7523665428161621"/>
    <path id="ID0.7497768863104284" fill="#624523" d="M 31.8097 42.6126 L 31.5569 42.3207 C 31.584 41.0974 30.9873 39.9936 30.7428 39.0351 L 31.1423 38.9336 C 31.3989 39.9395 32.0249 40.9928 31.9948 42.3207 L 31.8097 42.6126 Z " stroke-width="0.7523665428161621"/>
    <path id="ID0.3099703397601843" fill="#624523" d="M 33.5191 30.0639 C 34.7108 28.1168 35.2909 26.5932 35.1547 25.7739 L 35.9018 25.649 C 36.0741 26.6775 33.5191 30.0639 33.5191 30.0639 Z " stroke-width="0.7523665428161621"/>
    <path id="ID0.9944758857600391" fill="#624523" d="M 21.9981 36.0241 L 22.1508 35.5231 C 23.0755 34.8121 25.2746 34.9242 25.5229 34.94 L 25.805 35.2974 C 24.7683 35.2342 23.086 35.7616 22.6135 36.125 L 21.9981 36.0241 Z " stroke-width="0.7523665428161621"/>
    <path id="ID0.49146472522988915" fill="#C89A66" stroke="#624523" stroke-width="1.1285498142242432" d="M 91.127 36.6524 C 91.7898 45.197 88.0506 48.7865 78.9928 48.7865 C 71.5068 48.7865 66.1417 45.598 66.8587 36.6524 C 67.3936 29.9721 71.5143 24.1676 78.9928 24.5182 C 86.4796 24.8688 90.4943 28.4922 91.127 36.6524 Z "/>
    <path id="ID0.6701460680924356" fill="#AA7C48" d="M 85.974 35.6412 C 85.974 39.7762 83.1331 43.0708 78.9989 43.0708 C 74.8639 43.0708 71.002 39.7762 71.002 35.6412 C 71.002 31.5069 74.353 28.1551 78.488 28.1551 C 83.416 28.1551 85.974 31.5069 85.974 35.6412 Z " stroke-width="0.7523665428161621"/>
    <path id="ID0.1964735547080636" fill="#624523" d="M 78.2397 33.8927 C 77.8139 34.5345 77.0781 35.1349 76.6635 35.3756 C 75.1813 36.5929 74.4275 37.252 71.8574 40.8303 C 74.0046 39.7581 75.7599 36.0949 77.8854 35.8865 C 80.3764 34.8362 83.0774 40.2637 84.0593 41.7617 C 84.0593 41.7617 82.8999 36.9887 79.1606 34.9821 C 78.239 34.4886 80.1914 28.596 80.1914 28.596 C 78.9236 30.0082 79.1177 31.0518 78.5738 32.3398 " stroke-width="0.7523665428161621"/>
    <path id="ID0.957850428763777" fill="#624523" d="M 77.923 44.2754 C 76.9614 46.306 76.021 47.6226 75.2739 47.9838 L 75.5718 48.6331 C 76.51 48.1809 77.923 44.2754 77.923 44.2754 Z " stroke-width="0.7523665428161621"/>
    <path id="ID0.9385940567590296" fill="#624523" d="M 85.1622 32.1465 C 87.1696 31.1119 88.7224 30.6402 89.5342 30.8178 L 89.6983 30.1075 C 88.6796 29.8841 85.1622 32.1465 85.1622 32.1465 Z " stroke-width="0.7523665428161621"/>
    <path id="ID0.2835201183333993" fill="#624523" d="M 70.6807 31.9907 L 71.1133 31.6958 C 72.2802 31.7206 73.9241 33.1847 74.1077 33.3525 L 74.104 33.8077 C 73.335 33.1087 71.6934 32.4662 71.0975 32.4542 L 70.6807 31.9907 Z " stroke-width="0.7523665428161621"/>
    <g id="ID0.7427087859250605">
      <path id="ID0.6909199906513095" fill="#C89A66" stroke="#624523" stroke-width="1.1285498329885013" d="M 66.6861 37.3319 C 66.8747 45.9001 62.9416 49.277 53.8978 48.7753 C 46.4232 48.3607 41.2429 44.8799 42.4543 35.9877 C 43.3584 29.3474 47.795 23.78 55.2419 24.5443 C 62.6978 25.309 66.5056 29.1492 66.6861 37.3319 Z "/>
      <path id="ID0.82295709149912" fill="#AA7C48" d="M 61.5676 36.5416 C 61.3386 40.6695 58.3196 43.8017 54.1916 43.5727 C 50.0637 43.3438 46.3895 39.8403 46.6185 35.7124 C 46.8475 31.5845 50.3797 28.4234 54.5076 28.6524 C 59.4288 28.9254 61.7966 32.4137 61.5676 36.5416 Z " stroke-width="0.7523665553256675"/>
      <path id="ID0.27400038950145245" fill="#624523" d="M 54.0725 36.7422 C 54.6095 36.1895 55.4425 35.7339 55.8938 35.5736 C 57.5734 34.6487 58.4358 34.139 61.619 31.0912 C 59.3112 31.7521 56.914 35.0311 54.7865 34.8468 C 52.1451 35.4221 50.4845 29.5919 49.794 27.9396 C 49.794 27.9396 50.0592 32.8439 53.3666 35.502 C 54.1826 36.1568 51.1835 41.5914 51.1835 41.5914 C 52.6876 40.4353 52.6892 39.3737 53.4592 38.2077 " stroke-width="0.7523665553256675"/>
      <path id="ID0.6486528874374926" fill="#624523" d="M 58.1374 44.9264 L 58.4261 45.1821 C 58.5598 46.3989 59.2954 47.414 59.6635 48.3319 L 59.2812 48.4855 C 58.8946 47.5221 58.1357 46.5592 57.9919 45.2394 L 58.1374 44.9264 Z " stroke-width="0.7523665553256675"/>
      <path id="ID0.863175633829087" fill="#624523" d="M 47.0885 39.2468 C 45.0775 40.249 43.5249 40.7039 42.7142 40.5263 L 42.5476 41.2209 C 43.5637 41.4445 47.0885 39.2468 47.0885 39.2468 Z " stroke-width="0.7523665553256675"/>
      <path id="ID0.2732348460704088" fill="#624523" d="M 59.8523 37.1578 L 60.3013 36.8873 C 61.4651 36.9767 63.0254 38.5296 63.1994 38.7073 L 63.1704 39.1616 C 62.4414 38.4219 60.837 37.6894 60.2428 37.6436 L 59.8523 37.1578 Z " stroke-width="0.7523665553256675"/>
    </g>
    <g id="ID0.7427087859250605">
      <path id="ID0.6909199906513095" fill="#C89A66" stroke="#624523" stroke-width="1.128549708744803" d="M 115.8654 36.6284 C 116.5716 45.1695 112.8499 48.778 103.7923 48.824 C 96.3063 48.8621 90.9251 45.7008 91.5966 36.7517 C 92.0976 30.0688 96.1896 24.2434 103.669 24.556 C 111.1575 24.8686 115.1905 28.4715 115.8654 36.6284 Z "/>
      <path id="ID0.82295709149912" fill="#AA7C48" d="M 110.7084 36.149 C 110.7294 40.2832 107.9053 43.5922 103.7711 43.6132 C 99.6369 43.6342 95.7575 40.3592 95.7365 36.225 C 95.7155 32.0908 99.0503 28.7221 103.1845 28.7011 C 108.1132 28.676 110.6874 32.0148 110.7084 36.149 Z " stroke-width="0.7523664724965354"/>
      <path id="ID0.27400038950145245" fill="#624523" d="M 103.2392 36.8024 C 103.7418 36.2182 104.5458 35.7131 104.9865 35.5257 C 106.6071 34.501 107.4372 33.9401 110.4302 30.7054 C 108.1666 31.5047 105.972 34.9226 103.8372 34.8672 C 101.2355 35.6012 99.2254 29.8821 98.4363 28.2745 C 98.4363 28.2745 98.9975 33.1538 102.4596 35.607 C 103.3136 36.2114 100.6486 41.8173 100.6486 41.8173 C 102.0801 40.5724 102.0175 39.5126 102.7156 38.3023 " stroke-width="0.7523664724965354"/>
      <path id="ID0.6486528874374926" fill="#624523" d="M 107.7914 44.7258 L 108.0951 44.9636 C 108.3021 46.1701 109.0977 47.1388 109.5206 48.0328 L 109.1483 48.2092 C 108.7042 47.271 107.8885 46.3557 107.6651 45.047 L 107.7914 44.7258 Z " stroke-width="0.7523664724965354"/>
      <path id="ID0.863175633829087" fill="#624523" d="M 96.4194 39.7246 C 94.4727 40.8465 92.9504 41.3945 92.1304 41.2662 L 92.0061 41.9696 C 93.0339 42.1314 96.4194 39.7246 96.4194 39.7246 Z " stroke-width="0.7523664724965354"/>
      <path id="ID0.2732348460704088" fill="#624523" d="M 109.0335 36.8677 L 109.4654 36.5706 C 110.6324 36.5895 112.2838 38.0452 112.4682 38.2121 L 112.4667 38.6673 C 111.6943 37.973 110.0486 37.3388 109.4527 37.3291 L 109.0335 36.8677 Z " stroke-width="0.7523664724965354"/>
    </g>
  </g>
  <g id="ID0.10699172131717205">
    <path id="ID0.15375018352642655" fill="#C89A66" stroke="#624523" stroke-width="1.1285498142242432" d="M 139.662 36.9031 C 140.3248 45.447 136.5855 49.0373 127.5278 49.0373 C 120.0417 49.0373 114.6766 45.8488 115.3929 36.9031 C 115.9286 30.2229 120.0493 24.4184 127.5278 24.769 C 135.0146 25.1188 139.03 28.7422 139.662 36.9031 Z "/>
    <path id="ID0.9231221177615225" fill="#AA7C48" d="M 135.0146 36.3975 C 135.0146 40.5318 132.1729 43.8264 128.0394 43.8264 C 123.9044 43.8264 120.0425 40.5318 120.0425 36.3975 C 120.0425 32.2625 123.3935 28.9107 127.5285 28.9107 C 132.4565 28.9107 135.0146 32.2633 135.0146 36.3975 Z " stroke-width="0.7523665428161621"/>
    <path id="ID0.06518897321075201" fill="#624523" d="M 128.6601 35.7475 C 128.0379 35.2938 127.4691 34.5332 127.2464 34.1088 C 126.0945 32.5763 125.4678 31.7953 122.0017 29.074 C 122.982 31.2649 126.5655 33.1759 126.6836 35.3081 C 127.6256 37.8413 122.0882 40.3083 120.5496 41.2247 C 120.5496 41.2247 125.3677 40.2707 127.5323 36.621 C 128.0657 35.7219 133.944 38.8006 133.944 38.8006 C 132.5875 37.4734 131.4416 37.1311 130.1784 36.5322 " stroke-width="0.7523665428161621"/>
    <path id="ID0.7497768863104284" fill="#624523" d="M 129.1597 42.8626 L 128.9069 42.5707 C 128.934 41.3474 128.3373 40.2436 128.0928 39.2851 L 128.4923 39.1836 C 128.7489 40.1895 129.3749 41.2428 129.3448 42.5707 L 129.1597 42.8626 Z " stroke-width="0.7523665428161621"/>
    <path id="ID0.3099703397601843" fill="#624523" d="M 130.8691 30.3139 C 132.0608 28.3668 132.6409 26.8432 132.5047 26.0239 L 133.2518 25.899 C 133.4241 26.9275 130.8691 30.3139 130.8691 30.3139 Z " stroke-width="0.7523665428161621"/>
    <path id="ID0.9944758857600391" fill="#624523" d="M 119.3481 36.2741 L 119.5008 35.7731 C 120.4255 35.0621 122.6246 35.1742 122.8729 35.19 L 123.155 35.5474 C 122.1183 35.4842 120.436 36.0116 119.9635 36.375 L 119.3481 36.2741 Z " stroke-width="0.7523665428161621"/>
    <path id="ID0.49146472522988915" fill="#C89A66" stroke="#624523" stroke-width="1.1285498142242432" d="M 188.477 36.9024 C 189.1398 45.447 185.4006 49.0365 176.3428 49.0365 C 168.8568 49.0365 163.4917 45.848 164.2087 36.9024 C 164.7436 30.2221 168.8643 24.4176 176.3428 24.7682 C 183.8296 25.1188 187.8443 28.7422 188.477 36.9024 Z "/>
    <path id="ID0.6701460680924356" fill="#AA7C48" d="M 183.324 35.8912 C 183.324 40.0262 180.4831 43.3208 176.3489 43.3208 C 172.2139 43.3208 168.352 40.0262 168.352 35.8912 C 168.352 31.7569 171.703 28.4051 175.838 28.4051 C 180.766 28.4051 183.324 31.7569 183.324 35.8912 Z " stroke-width="0.7523665428161621"/>
    <path id="ID0.1964735547080636" fill="#624523" d="M 175.5897 34.1427 C 175.1639 34.7845 174.4281 35.3849 174.0135 35.6256 C 172.5313 36.8429 171.7775 37.502 169.2074 41.0803 C 171.3546 40.0081 173.1099 36.3449 175.2354 36.1365 C 177.7264 35.0862 180.4274 40.5137 181.4093 42.0117 C 181.4093 42.0117 180.2499 37.2387 176.5106 35.2321 C 175.589 34.7386 177.5414 28.846 177.5414 28.846 C 176.2736 30.2582 176.4677 31.3018 175.9238 32.5898 " stroke-width="0.7523665428161621"/>
    <path id="ID0.957850428763777" fill="#624523" d="M 175.273 44.5254 C 174.3114 46.556 173.371 47.8726 172.6239 48.2338 L 172.9218 48.8831 C 173.86 48.4309 175.273 44.5254 175.273 44.5254 Z " stroke-width="0.7523665428161621"/>
    <path id="ID0.9385940567590296" fill="#624523" d="M 182.5122 32.3965 C 184.5196 31.3619 186.0724 30.8902 186.8842 31.0678 L 187.0483 30.3575 C 186.0296 30.1341 182.5122 32.3965 182.5122 32.3965 Z " stroke-width="0.7523665428161621"/>
    <path id="ID0.2835201183333993" fill="#624523" d="M 168.0307 32.2407 L 168.4633 31.9458 C 169.6302 31.9706 171.2741 33.4347 171.4577 33.6025 L 171.454 34.0577 C 170.685 33.3587 169.0434 32.7162 168.4475 32.7042 L 168.0307 32.2407 Z " stroke-width="0.7523665428161621"/>
    <g id="ID0.7427087859250605">
      <path id="ID0.6909199906513095" fill="#C89A66" stroke="#624523" stroke-width="1.1285498329885013" d="M 164.0361 37.5819 C 164.2247 46.1501 160.2916 49.527 151.2478 49.0253 C 143.7732 48.6107 138.5929 45.1299 139.8043 36.2377 C 140.7084 29.5974 145.145 24.03 152.5919 24.7943 C 160.0478 25.559 163.8556 29.3992 164.0361 37.5819 Z "/>
      <path id="ID0.82295709149912" fill="#AA7C48" d="M 158.9176 36.7916 C 158.6886 40.9195 155.6696 44.0517 151.5416 43.8227 C 147.4137 43.5938 143.7395 40.0903 143.9685 35.9624 C 144.1975 31.8345 147.7297 28.6734 151.8576 28.9024 C 156.7788 29.1754 159.1466 32.6637 158.9176 36.7916 Z " stroke-width="0.7523665553256675"/>
      <path id="ID0.27400038950145245" fill="#624523" d="M 151.4225 36.9922 C 151.9595 36.4395 152.7925 35.9839 153.2438 35.8236 C 154.9234 34.8987 155.7858 34.389 158.969 31.3412 C 156.6612 32.0021 154.264 35.2811 152.1365 35.0968 C 149.4951 35.6721 147.8345 29.8419 147.144 28.1896 C 147.144 28.1896 147.4092 33.0939 150.7166 35.752 C 151.5326 36.4068 148.5335 41.8414 148.5335 41.8414 C 150.0376 40.6853 150.0392 39.6237 150.8092 38.4577 " stroke-width="0.7523665553256675"/>
      <path id="ID0.6486528874374926" fill="#624523" d="M 155.4874 45.1764 L 155.7761 45.4321 C 155.9098 46.6489 156.6454 47.664 157.0135 48.5819 L 156.6312 48.7355 C 156.2446 47.7721 155.4857 46.8092 155.3419 45.4894 L 155.4874 45.1764 Z " stroke-width="0.7523665553256675"/>
      <path id="ID0.863175633829087" fill="#624523" d="M 144.4385 39.4968 C 142.4275 40.499 140.8749 40.9539 140.0642 40.7763 L 139.8976 41.4709 C 140.9137 41.6945 144.4385 39.4968 144.4385 39.4968 Z " stroke-width="0.7523665553256675"/>
      <path id="ID0.2732348460704088" fill="#624523" d="M 157.2023 37.4078 L 157.6513 37.1373 C 158.8151 37.2267 160.3754 38.7796 160.5494 38.9573 L 160.5204 39.4116 C 159.7914 38.6719 158.187 37.9394 157.5928 37.8936 L 157.2023 37.4078 Z " stroke-width="0.7523665553256675"/>
    </g>
    <g id="ID0.7427087859250605">
      <path id="ID0.6909199906513095" fill="#C89A66" stroke="#624523" stroke-width="1.128549708744803" d="M 213.2154 36.8784 C 213.9216 45.4195 210.1999 49.028 201.1423 49.074 C 193.6563 49.1121 188.2751 45.9508 188.9466 37.0017 C 189.4476 30.3188 193.5396 24.4934 201.019 24.806 C 208.5075 25.1186 212.5405 28.7215 213.2154 36.8784 Z "/>
      <path id="ID0.82295709149912" fill="#AA7C48" d="M 208.0584 36.399 C 208.0794 40.5332 205.2553 43.8422 201.1211 43.8632 C 196.9869 43.8842 193.1075 40.6092 193.0865 36.475 C 193.0655 32.3408 196.4003 28.9721 200.5345 28.9511 C 205.4632 28.926 208.0374 32.2648 208.0584 36.399 Z " stroke-width="0.7523664724965354"/>
      <path id="ID0.27400038950145245" fill="#624523" d="M 200.5892 37.0524 C 201.0918 36.4682 201.8958 35.9631 202.3365 35.7757 C 203.9571 34.751 204.7872 34.1901 207.7802 30.9554 C 205.5166 31.7547 203.322 35.1726 201.1872 35.1172 C 198.5855 35.8512 196.5754 30.1321 195.7863 28.5245 C 195.7863 28.5245 196.3475 33.4038 199.8096 35.857 C 200.6636 36.4614 197.9986 42.0673 197.9986 42.0673 C 199.4301 40.8224 199.3675 39.7626 200.0656 38.5523 " stroke-width="0.7523664724965354"/>
      <path id="ID0.6486528874374926" fill="#624523" d="M 205.1414 44.9758 L 205.4451 45.2136 C 205.6521 46.4201 206.4477 47.3888 206.8706 48.2828 L 206.4983 48.4592 C 206.0542 47.521 205.2385 46.6057 205.0151 45.297 L 205.1414 44.9758 Z " stroke-width="0.7523664724965354"/>
      <path id="ID0.863175633829087" fill="#624523" d="M 193.7694 39.9746 C 191.8227 41.0965 190.3004 41.6445 189.4804 41.5162 L 189.3561 42.2196 C 190.3839 42.3814 193.7694 39.9746 193.7694 39.9746 Z " stroke-width="0.7523664724965354"/>
      <path id="ID0.2732348460704088" fill="#624523" d="M 206.3835 37.1177 L 206.8154 36.8206 C 207.9824 36.8395 209.6338 38.2952 209.8182 38.4621 L 209.8167 38.9173 C 209.0443 38.223 207.3986 37.5888 206.8027 37.5791 L 206.3835 37.1177 Z " stroke-width="0.7523664724965354"/>
    </g>
  </g>
</svg>